<?xml version="1.0" encoding="UTF-8" standalone="no"?>
<!-- Created with Inkscape (http://www.inkscape.org/) -->

<svg
   xmlns:dc="http://purl.org/dc/elements/1.1/"
   xmlns:cc="http://creativecommons.org/ns#"
   xmlns:rdf="http://www.w3.org/1999/02/22-rdf-syntax-ns#"
   xmlns:svg="http://www.w3.org/2000/svg"
   xmlns="http://www.w3.org/2000/svg"
   xmlns:xlink="http://www.w3.org/1999/xlink"
   xmlns:sodipodi="http://sodipodi.sourceforge.net/DTD/sodipodi-0.dtd"
   xmlns:inkscape="http://www.inkscape.org/namespaces/inkscape"
   version="1.0"
   width="128"
   height="128"
   id="svg3449"
   sodipodi:version="0.32"
   inkscape:version="0.48.4 r9939"
   sodipodi:docname="application-default-icon-5.svg"
   inkscape:output_extension="org.inkscape.output.svg.inkscape">
  <metadata
     id="metadata56">
    <rdf:RDF>
      <cc:Work
         rdf:about="">
        <dc:format>image/svg+xml</dc:format>
        <dc:type
           rdf:resource="http://purl.org/dc/dcmitype/StillImage" />
      </cc:Work>
    </rdf:RDF>
  </metadata>
  <sodipodi:namedview
     inkscape:window-height="1018"
     inkscape:window-width="1920"
     inkscape:pageshadow="2"
     inkscape:pageopacity="0.0"
     guidetolerance="10.0"
     gridtolerance="10.0"
     objecttolerance="10.0"
     borderopacity="1.0"
     bordercolor="#666666"
     pagecolor="#ffffff"
     id="base"
     showgrid="false"
     inkscape:zoom="5.590563"
     inkscape:cx="115.48916"
     inkscape:cy="70.690612"
     inkscape:window-x="-8"
     inkscape:window-y="-8"
     inkscape:current-layer="svg3449"
     inkscape:window-maximized="1" />
  <defs
     id="defs3451">
    <radialGradient
       inkscape:collect="always"
       xlink:href="#linearGradient3900-0"
       id="radialGradient4260"
       gradientUnits="userSpaceOnUse"
       gradientTransform="matrix(1.3085509,2.0157699,-1.1621359,0.75440503,233.74388,9.8074563)"
       cx="2.730051"
       cy="17.311573"
       fx="2.730051"
       fy="17.311573"
       r="45" />
    <linearGradient
       id="linearGradient3900-0">
      <stop
         style="stop-color:#a65597;stop-opacity:1;"
         offset="0"
         id="stop3902-6" />
      <stop
         id="stop3904-9"
         offset="0.49695465"
         style="stop-color:#66345d;stop-opacity:1;" />
      <stop
         style="stop-color:#2a1126;stop-opacity:1;"
         offset="1"
         id="stop3906-8" />
    </linearGradient>
    <linearGradient
       inkscape:collect="always"
       xlink:href="#linearGradient9829"
       id="linearGradient4262"
       gradientUnits="userSpaceOnUse"
       gradientTransform="matrix(1.4278328,0,0,1.4278328,165.46224,-4.8549848)"
       x1="19.731277"
       y1="120.59161"
       x2="19.606531"
       y2="-30.302357" />
    <linearGradient
       id="linearGradient9829">
      <stop
         offset="0"
         style="stop-color:#41213b;stop-opacity:1;"
         id="stop9831" />
      <stop
         offset="1"
         style="stop-color:#6f3865;stop-opacity:1;"
         id="stop9833" />
    </linearGradient>
    <linearGradient
       inkscape:collect="always"
       xlink:href="#linearGradient3737-1"
       id="linearGradient4264"
       gradientUnits="userSpaceOnUse"
       x1="48"
       y1="20.220806"
       x2="48"
       y2="138.66119" />
    <linearGradient
       id="linearGradient3737-1">
      <stop
         id="stop3739-68"
         style="stop-color:#ffffff;stop-opacity:1"
         offset="0" />
      <stop
         id="stop3741-0"
         style="stop-color:#ffffff;stop-opacity:0"
         offset="1" />
    </linearGradient>
    <clipPath
       id="clipPath3613-6-4">
      <rect
         width="84"
         height="84"
         rx="6"
         ry="6"
         x="6"
         y="6"
         id="rect3615-5-8"
         style="fill:#ffffff;fill-opacity:1;fill-rule:nonzero;stroke:none" />
    </clipPath>
    <filter
       x="-0.192"
       y="-0.192"
       width="1.3839999"
       height="1.3839999"
       color-interpolation-filters="sRGB"
       id="filter3794-6-4">
      <feGaussianBlur
         id="feGaussianBlur3796-9-4"
         stdDeviation="5.28" />
    </filter>
    <linearGradient
       inkscape:collect="always"
       xlink:href="#linearGradient3839"
       id="linearGradient4266"
       gradientUnits="userSpaceOnUse"
       gradientTransform="translate(-667.31704,1231.8519)"
       x1="1043.8456"
       y1="445.28998"
       x2="673.96057"
       y2="75.032654" />
    <linearGradient
       id="linearGradient3839">
      <stop
         style="stop-color:#a7a7a7;stop-opacity:1;"
         offset="0"
         id="stop3841" />
      <stop
         style="stop-color:#ffffff;stop-opacity:1;"
         offset="1"
         id="stop3843" />
    </linearGradient>
    <linearGradient
       inkscape:collect="always"
       xlink:href="#linearGradient3397"
       id="linearGradient4268"
       gradientUnits="userSpaceOnUse"
       gradientTransform="matrix(11.636363,0,0,11.636364,-88.113475,1221.9667)"
       x1="37.201294"
       y1="1"
       x2="37.201294"
       y2="45" />
    <linearGradient
       id="linearGradient3397">
      <stop
         id="stop3399"
         style="stop-color:#818181;stop-opacity:1;"
         offset="0" />
      <stop
         id="stop3401"
         style="stop-color:#7a7a7a;stop-opacity:1;"
         offset="1" />
    </linearGradient>
    <linearGradient
       inkscape:collect="always"
       xlink:href="#linearGradient3828"
       id="linearGradient4270"
       gradientUnits="userSpaceOnUse"
       x1="189.07822"
       y1="213.2502"
       x2="338.9617"
       y2="333.88785" />
    <linearGradient
       id="linearGradient3828">
      <stop
         style="stop-color:#7c7c7c;stop-opacity:1;"
         offset="0"
         id="stop3830" />
      <stop
         style="stop-color:#ffffff;stop-opacity:1;"
         offset="1"
         id="stop3832" />
    </linearGradient>
    <radialGradient
       inkscape:collect="always"
       xlink:href="#linearGradient3816"
       id="radialGradient4272"
       gradientUnits="userSpaceOnUse"
       gradientTransform="matrix(1,0,0,0.85561499,0,40.878089)"
       cx="254.37288"
       cy="283.11865"
       fx="254.37288"
       fy="283.11865"
       r="101.42373" />
    <linearGradient
       id="linearGradient3816">
      <stop
         style="stop-color:#ff6d00;stop-opacity:1;"
         offset="0"
         id="stop3818" />
      <stop
         style="stop-color:#732f0c;stop-opacity:1;"
         offset="1"
         id="stop3820" />
    </linearGradient>
    <linearGradient
       inkscape:collect="always"
       xlink:href="#linearGradient3982"
       id="linearGradient4274"
       gradientUnits="userSpaceOnUse"
       x1="261.31775"
       y1="326.27835"
       x2="262.55969"
       y2="244.19215" />
    <linearGradient
       id="linearGradient3982">
      <stop
         style="stop-color:#d4d4d4;stop-opacity:1;"
         offset="0"
         id="stop3984" />
      <stop
         style="stop-color:#ffffff;stop-opacity:1;"
         offset="1"
         id="stop3986" />
    </linearGradient>
    <linearGradient
       inkscape:collect="always"
       xlink:href="#linearGradient3990"
       id="linearGradient4276"
       gradientUnits="userSpaceOnUse"
       x1="289.18414"
       y1="302.33368"
       x2="202.72896"
       y2="240.53796" />
    <linearGradient
       id="linearGradient3990">
      <stop
         style="stop-color:#737373;stop-opacity:1;"
         offset="0"
         id="stop3992" />
      <stop
         style="stop-color:#c1c1c1;stop-opacity:1;"
         offset="1"
         id="stop3994" />
    </linearGradient>
    <linearGradient
       inkscape:collect="always"
       xlink:href="#linearGradient4037"
       id="linearGradient4278"
       gradientUnits="userSpaceOnUse"
       x1="409.50784"
       y1="1691.778"
       x2="-12.119721"
       y2="1277.5812" />
    <linearGradient
       id="linearGradient4037">
      <stop
         style="stop-color:#979797;stop-opacity:1;"
         offset="0"
         id="stop4039" />
      <stop
         style="stop-color:#d4d4d4;stop-opacity:1;"
         offset="1"
         id="stop4041" />
    </linearGradient>
    <linearGradient
       id="linearGradient3697">
      <stop
         id="stop3699"
         style="stop-color:#ffffff;stop-opacity:1"
         offset="0" />
      <stop
         id="stop3701"
         style="stop-color:#ffffff;stop-opacity:0"
         offset="1" />
    </linearGradient>
    <linearGradient
       y2="66.667923"
       x2="6.9054751"
       y1="11.108812"
       x1="129.16827"
       gradientTransform="matrix(-1.4388716,0,0,1.6608003,303.28945,-6.9426106)"
       gradientUnits="userSpaceOnUse"
       id="linearGradient3352"
       xlink:href="#linearGradient3697"
       inkscape:collect="always" />
    <linearGradient
       inkscape:collect="always"
       xlink:href="#linearGradient3697"
       id="linearGradient3113"
       gradientUnits="userSpaceOnUse"
       gradientTransform="matrix(-1.4388716,0,0,1.6608003,133.29845,-5.9306105)"
       x1="129.16827"
       y1="11.108812"
       x2="6.9054751"
       y2="66.667923" />
    <radialGradient
       inkscape:collect="always"
       xlink:href="#linearGradient3900-0"
       id="radialGradient3152"
       gradientUnits="userSpaceOnUse"
       gradientTransform="matrix(1.3085509,2.0157699,-1.1621359,0.75440503,63.75288,10.819456)"
       cx="2.730051"
       cy="17.311573"
       fx="2.730051"
       fy="17.311573"
       r="45" />
    <linearGradient
       inkscape:collect="always"
       xlink:href="#linearGradient9829"
       id="linearGradient3154"
       gradientUnits="userSpaceOnUse"
       gradientTransform="matrix(1.4278328,0,0,1.4278328,-4.52876,-3.8429847)"
       x1="19.731277"
       y1="120.59161"
       x2="19.606531"
       y2="-30.302357" />
    <linearGradient
       inkscape:collect="always"
       xlink:href="#linearGradient3839"
       id="linearGradient3157"
       gradientUnits="userSpaceOnUse"
       gradientTransform="translate(-667.31704,1231.8519)"
       x1="1043.8456"
       y1="445.28998"
       x2="673.96057"
       y2="75.032654" />
    <linearGradient
       inkscape:collect="always"
       xlink:href="#linearGradient3397"
       id="linearGradient3159"
       gradientUnits="userSpaceOnUse"
       gradientTransform="matrix(11.636363,0,0,11.636364,-88.113475,1221.9667)"
       x1="37.201294"
       y1="1"
       x2="37.201294"
       y2="45" />
    <linearGradient
       inkscape:collect="always"
       xlink:href="#linearGradient3828"
       id="linearGradient3161"
       gradientUnits="userSpaceOnUse"
       x1="189.07822"
       y1="213.2502"
       x2="338.9617"
       y2="333.88785" />
    <radialGradient
       inkscape:collect="always"
       xlink:href="#linearGradient3816"
       id="radialGradient3163"
       gradientUnits="userSpaceOnUse"
       gradientTransform="matrix(1,0,0,0.85561499,0,40.878089)"
       cx="254.37288"
       cy="283.11865"
       fx="254.37288"
       fy="283.11865"
       r="101.42373" />
    <linearGradient
       inkscape:collect="always"
       xlink:href="#linearGradient3982"
       id="linearGradient3165"
       gradientUnits="userSpaceOnUse"
       x1="261.31775"
       y1="326.27835"
       x2="262.55969"
       y2="244.19215" />
    <linearGradient
       inkscape:collect="always"
       xlink:href="#linearGradient3990"
       id="linearGradient3167"
       gradientUnits="userSpaceOnUse"
       x1="289.18414"
       y1="302.33368"
       x2="202.72896"
       y2="240.53796" />
    <linearGradient
       inkscape:collect="always"
       xlink:href="#linearGradient4037"
       id="linearGradient3169"
       gradientUnits="userSpaceOnUse"
       x1="409.50784"
       y1="1691.778"
       x2="-12.119721"
       y2="1277.5812" />
    <linearGradient
       inkscape:collect="always"
       xlink:href="#linearGradient4037"
       id="linearGradient3172"
       gradientUnits="userSpaceOnUse"
       x1="409.50784"
       y1="1691.778"
       x2="-12.119721"
       y2="1277.5812"
       gradientTransform="matrix(0.16992233,0,0,0.16992248,31.94423,-189.09107)" />
    <linearGradient
       inkscape:collect="always"
       xlink:href="#linearGradient3839"
       id="linearGradient3178"
       gradientUnits="userSpaceOnUse"
       gradientTransform="matrix(0.16992233,0,0,0.16992248,-81.447836,20.22826)"
       x1="1043.8456"
       y1="445.28998"
       x2="673.96057"
       y2="75.032654" />
    <linearGradient
       inkscape:collect="always"
       xlink:href="#linearGradient3397"
       id="linearGradient3180"
       gradientUnits="userSpaceOnUse"
       gradientTransform="matrix(1.9772779,0,0,1.9772798,16.971783,18.548542)"
       x1="37.201294"
       y1="1"
       x2="37.201294"
       y2="45" />
  </defs>
  <rect
     style="opacity:0.76254183;fill:#090909;fill-opacity:1;fill-rule:nonzero;stroke:none;display:inline"
     id="rect3716"
     transform="scale(1,-1)"
     y="-122.14361"
     x="8.7353182"
     ry="8.0663118"
     rx="8.0664988"
     height="112.92838"
     width="112.93097"
     inkscape:transform-center-x="-3.281265"
     inkscape:transform-center-y="-107.31159" />
  <rect
     style="fill:url(#radialGradient3152);fill-opacity:1;fill-rule:nonzero;stroke:url(#linearGradient3154);stroke-width:1.06205869;stroke-miterlimit:4;stroke-opacity:1;stroke-dasharray:none;display:inline"
     id="rect2419"
     y="4.7240281"
     x="4.619031"
     ry="8.5669947"
     rx="8.5669966"
     height="119.93794"
     width="119.93793" />
  <rect
     style="opacity:0.1;fill:url(#linearGradient4264);fill-opacity:1;fill-rule:nonzero;stroke:#ffffff;stroke-width:0.5;stroke-linecap:round;stroke-linejoin:miter;stroke-miterlimit:4;stroke-opacity:1;stroke-dasharray:none;stroke-dashoffset:0;display:inline;filter:url(#filter3794-6-4)"
     id="rect3171"
     clip-path="url(#clipPath3613-6-4)"
     y="15"
     x="15"
     ry="12"
     rx="12"
     height="66"
     width="66"
     transform="matrix(1.3444165,0,0,1.3576364,0.06968,0.56636326)" />
  <rect
     ry="1.5672181"
     rx="7.7456436"
     y="21.315071"
     x="11.263387"
     height="1.5672181"
     width="107.04079"
     id="rect4233-3"
     style="opacity:0.5;fill:#ceabdb;fill-opacity:1;fill-rule:nonzero;stroke:none" />
  <rect
     style="opacity:0.5;fill:#ceabdb;fill-opacity:1;fill-rule:nonzero;stroke:none"
     id="rect4235-8"
     width="107.04079"
     height="1.5672181"
     x="11.263387"
     y="25.31736"
     rx="7.7456436"
     ry="1.5672181" />
  <rect
     ry="1.5672181"
     rx="7.7456436"
     y="29.319649"
     x="11.263387"
     height="1.5672181"
     width="107.04079"
     id="rect4237-6"
     style="opacity:0.5;fill:#ceabdb;fill-opacity:1;fill-rule:nonzero;stroke:none" />
  <rect
     style="opacity:0.5;fill:#ceabdb;fill-opacity:1;fill-rule:nonzero;stroke:none"
     id="rect4239-2"
     width="107.04079"
     height="1.5672181"
     x="11.263387"
     y="33.321938"
     rx="7.7456436"
     ry="1.5672181" />
  <rect
     ry="1.5672181"
     rx="7.7456436"
     y="37.324226"
     x="11.263387"
     height="1.5672181"
     width="107.04079"
     id="rect4241-0"
     style="opacity:0.5;fill:#ceabdb;fill-opacity:1;fill-rule:nonzero;stroke:none" />
  <rect
     style="opacity:0.5;fill:#ceabdb;fill-opacity:1;fill-rule:nonzero;stroke:none"
     id="rect4243-6"
     width="107.04079"
     height="1.5672181"
     x="11.263387"
     y="41.326515"
     rx="7.7456436"
     ry="1.5672181" />
  <rect
     ry="1.5672181"
     rx="7.7456436"
     y="45.328804"
     x="11.263387"
     height="1.5672181"
     width="107.04079"
     id="rect4245-9"
     style="opacity:0.5;fill:#ceabdb;fill-opacity:1;fill-rule:nonzero;stroke:none" />
  <rect
     style="opacity:0.5;fill:#ceabdb;fill-opacity:1;fill-rule:nonzero;stroke:none"
     id="rect4247-0"
     width="107.04079"
     height="1.5672181"
     x="11.263387"
     y="49.331093"
     rx="7.7456436"
     ry="1.5672181" />
  <rect
     ry="1.5672181"
     rx="7.7456436"
     y="53.333382"
     x="11.263387"
     height="1.5672181"
     width="107.04079"
     id="rect4249-7"
     style="opacity:0.5;fill:#ceabdb;fill-opacity:1;fill-rule:nonzero;stroke:none" />
  <rect
     style="opacity:0.5;fill:#ceabdb;fill-opacity:1;fill-rule:nonzero;stroke:none"
     id="rect4251-5"
     width="107.04079"
     height="1.5672181"
     x="11.263387"
     y="57.33567"
     rx="7.7456436"
     ry="1.5672181" />
  <rect
     ry="1.5672181"
     rx="7.7456436"
     y="61.337959"
     x="11.263387"
     height="1.5672181"
     width="107.04079"
     id="rect4253-6"
     style="opacity:0.5;fill:#ceabdb;fill-opacity:1;fill-rule:nonzero;stroke:none" />
  <rect
     style="opacity:0.5;fill:#ceabdb;fill-opacity:1;fill-rule:nonzero;stroke:none"
     id="rect4255-8"
     width="107.04079"
     height="1.5672181"
     x="11.263387"
     y="65.340248"
     rx="7.7456436"
     ry="1.5672181" />
  <rect
     ry="1.5672181"
     rx="7.7456436"
     y="69.342545"
     x="11.263387"
     height="1.5672181"
     width="107.04079"
     id="rect4257-8"
     style="opacity:0.5;fill:#ceabdb;fill-opacity:1;fill-rule:nonzero;stroke:none" />
  <rect
     style="opacity:0.5;fill:#ceabdb;fill-opacity:1;fill-rule:nonzero;stroke:none"
     id="rect4259-1"
     width="107.04079"
     height="1.5672181"
     x="11.263387"
     y="73.344833"
     rx="7.7456436"
     ry="1.5672181" />
  <rect
     ry="1.5672181"
     rx="7.7456436"
     y="77.347122"
     x="11.263387"
     height="1.5672181"
     width="107.04079"
     id="rect4261-6"
     style="opacity:0.5;fill:#ceabdb;fill-opacity:1;fill-rule:nonzero;stroke:none" />
  <rect
     style="opacity:0.5;fill:#ceabdb;fill-opacity:1;fill-rule:nonzero;stroke:none"
     id="rect4263-8"
     width="107.04079"
     height="1.5672181"
     x="11.263387"
     y="81.349411"
     rx="7.7456436"
     ry="1.5672181" />
  <rect
     ry="1.5672181"
     rx="7.7456436"
     y="85.3517"
     x="11.263387"
     height="1.5672181"
     width="107.04079"
     id="rect4265-6"
     style="opacity:0.5;fill:#ceabdb;fill-opacity:1;fill-rule:nonzero;stroke:none" />
  <rect
     style="opacity:0.5;fill:#ceabdb;fill-opacity:1;fill-rule:nonzero;stroke:none"
     id="rect4267-3"
     width="107.04079"
     height="1.5672181"
     x="11.263387"
     y="89.353989"
     rx="7.7456436"
     ry="1.5672181" />
  <rect
     ry="1.5672181"
     rx="7.7456436"
     y="93.356277"
     x="11.263387"
     height="1.5672181"
     width="107.04079"
     id="rect4269-3"
     style="opacity:0.5;fill:#ceabdb;fill-opacity:1;fill-rule:nonzero;stroke:none" />
  <rect
     ry="1.5672181"
     rx="7.737812"
     y="97.358566"
     x="11.263387"
     height="1.5672181"
     width="106.93256"
     id="rect4271-8"
     style="opacity:0.5;fill:#ceabdb;fill-opacity:1;fill-rule:nonzero;stroke:none" />
  <rect
     style="opacity:0.5;fill:#ceabdb;fill-opacity:1;fill-rule:nonzero;stroke:none"
     id="rect4273-7"
     width="106.93256"
     height="1.5672181"
     x="11.263387"
     y="101.36086"
     rx="7.737812"
     ry="1.5672181" />
  <rect
     ry="1.5672181"
     rx="7.737812"
     y="105.36315"
     x="11.263387"
     height="1.5672181"
     width="106.93256"
     id="rect4275-1"
     style="opacity:0.5;fill:#ceabdb;fill-opacity:1;fill-rule:nonzero;stroke:none" />
  <rect
     style="opacity:0.5;fill:#ceabdb;fill-opacity:1;fill-rule:nonzero;stroke:none"
     id="rect4277-5"
     width="106.93256"
     height="1.5672181"
     x="11.263387"
     y="109.36542"
     rx="7.737812"
     ry="1.5672181" />
  <rect
     ry="1.5672181"
     rx="7.737812"
     y="113.365"
     x="11.263005"
     height="1.5672181"
     width="106.93256"
     id="rect4015"
     style="opacity:0.5;fill:#ceabdb;fill-opacity:1;fill-rule:nonzero;stroke:none" />
  <rect
     style="opacity:0.5;fill:#ceabdb;fill-opacity:1;fill-rule:nonzero;stroke:none"
     id="rect4017"
     width="107.04079"
     height="1.5672181"
     x="11.263005"
     y="17.314993"
     rx="7.7456436"
     ry="1.5672181" />
  <rect
     ry="1.5672181"
     rx="7.7456436"
     y="13.314781"
     x="11.263478"
     height="1.5672181"
     width="107.04079"
     id="rect4116"
     style="opacity:0.5;fill:#ceabdb;fill-opacity:1;fill-rule:nonzero;stroke:none" />
  <rect
     style="opacity:0.5;fill:#ceabdb;fill-opacity:1;fill-rule:nonzero;stroke:none"
     id="rect4118"
     width="106.93256"
     height="1.5672181"
     x="11.263478"
     y="117.36478"
     rx="7.737812"
     ry="1.5672181" />
  <rect
     style="opacity:0.5;fill:#ceabdb;fill-opacity:1;fill-rule:nonzero;stroke:none"
     id="rect4120"
     width="107.04079"
     height="1.5672181"
     x="11.263478"
     y="9.7732792"
     rx="7.7456436"
     ry="1.5672181" />
  <path
     style="fill:url(#linearGradient3178);fill-opacity:1;fill-rule:nonzero;stroke:url(#linearGradient3180);stroke-width:1.97727895;stroke-linecap:butt;stroke-linejoin:round;stroke-miterlimit:4;stroke-opacity:1;stroke-dasharray:none;stroke-dashoffset:0;marker:none;visibility:visible;display:block;overflow:visible;enable-background:accumulate"
     id="path4156"
     d="m 58.556398,21.514471 c -1.673021,0 -3.027693,1.387859 -3.027693,3.089497 l 0,5.993624 c -2.991516,0.797056 -5.849899,2.00099 -8.465224,3.522034 l -4.263504,-4.263507 c -0.60161,-0.601628 -1.322318,-0.92025 -2.100852,-0.926843 -0.77855,-0.0066 -1.571152,0.273542 -2.162652,0.865059 l -8.34164,8.34163 c -1.183016,1.183017 -1.141453,3.060287 0.06178,4.263525 l 4.263504,4.263508 c -1.521043,2.615311 -2.724977,5.473713 -3.522014,8.465215 l -5.993637,0 c -1.701619,0 -3.089493,1.354673 -3.089493,3.027713 l 0,11.740097 c 0,1.67304 1.387874,3.027713 3.089493,3.027713 l 5.993637,0 c 0.797037,2.991519 2.000971,5.849904 3.522014,8.465232 l -4.263504,4.263508 c -1.203237,1.203238 -1.2448,3.08049 -0.06178,4.263508 l 8.34164,8.341647 c 1.183016,1.183018 3.060267,1.141454 4.263504,-0.06178 l 4.263504,-4.263508 c 2.615325,1.521045 5.473708,2.724979 8.465224,3.522035 l 0,5.993622 c 0,1.70164 1.354672,3.08949 3.027693,3.08949 l 11.740087,0 c 1.673038,0 3.02771,-1.38785 3.02771,-3.08949 l 0,-5.993622 c 2.991517,-0.797056 5.849899,-2.00099 8.465223,-3.522035 l 4.263504,4.263508 c 1.20322,1.203238 3.080488,1.244802 4.263504,0.06178 l 8.34164,-8.341647 c 1.183017,-1.183018 1.141454,-3.06027 -0.0618,-4.263508 l -4.263505,-4.263508 c 1.52106,-2.615328 2.724977,-5.473713 3.522049,-8.465232 l 5.99362,0 c 1.70162,0 3.08949,-1.354673 3.08949,-3.027713 l 0,-11.740097 c 0,-1.673023 -1.38787,-3.027713 -3.08949,-3.027713 l -5.99362,0 c -0.797072,-2.991502 -2.000989,-5.849904 -3.522049,-8.465215 l 4.263505,-4.263508 c 1.203254,-1.203238 1.244817,-3.080508 0.0618,-4.263525 l -8.34164,-8.34163 c -1.183016,-1.183018 -3.060284,-1.141455 -4.263504,0.06178 l -4.263504,4.263507 c -2.615324,-1.521044 -5.473706,-2.724978 -8.465223,-3.522034 l 0,-5.993624 c 0,-1.701638 -1.354672,-3.089497 -3.02771,-3.089497 l -11.740087,0 z m 5.870052,29.659187 c 7.094478,0 12.852296,5.757841 12.852296,12.852325 0,7.094484 -5.757818,12.852308 -12.852296,12.852308 -7.094461,0 -12.852296,-5.757824 -12.852296,-12.852308 0,-7.094484 5.757835,-12.852325 12.852296,-12.852325 z"
     inkscape:connector-curvature="0" />
  <path
     sodipodi:type="arc"
     style="fill:url(#linearGradient3161);fill-opacity:1;fill-rule:nonzero;stroke:#9a8585;stroke-opacity:1"
     id="path4158"
     sodipodi:cx="261.17407"
     sodipodi:cy="272.68631"
     sodipodi:rx="95.495369"
     sodipodi:ry="89.742638"
     d="m 356.66944,272.68631 a 95.495369,89.742638 0 1 1 -190.99074,0 95.495369,89.742638 0 1 1 190.99074,0 z"
     transform="matrix(0.20729751,0,0,0.22058599,10.58796,5.2442067)" />
  <path
     transform="matrix(0.17020342,0,0,0.19696879,21.485263,9.8429717)"
     d="m 355.79661,283.11865 a 101.42373,86.779663 0 1 1 -202.84746,0 101.42373,86.779663 0 1 1 202.84746,0 z"
     sodipodi:ry="86.779663"
     sodipodi:rx="101.42373"
     sodipodi:cy="283.11865"
     sodipodi:cx="254.37288"
     id="path4160"
     style="fill:url(#radialGradient3163);fill-opacity:1;fill-rule:nonzero;stroke:none"
     sodipodi:type="arc" />
  <path
     transform="matrix(0.20174253,0,0,0.22191699,12.983236,5.2285058)"
     d="m 291.79661,271.18643 a 35.796612,32.542374 0 1 1 -71.59322,0 35.796612,32.542374 0 1 1 71.59322,0 z"
     sodipodi:ry="32.542374"
     sodipodi:rx="35.796612"
     sodipodi:cy="271.18643"
     sodipodi:cx="256"
     id="path4162"
     style="fill:url(#linearGradient3165);fill-opacity:1;fill-rule:nonzero;stroke:url(#linearGradient3167);stroke-width:8.03075981;stroke-miterlimit:4;stroke-dasharray:none"
     sodipodi:type="arc" />
  <path
     style="fill:url(#linearGradient3172);fill-opacity:1;fill-rule:nonzero;stroke:none;stroke-width:11.63636398;marker:none;visibility:visible;display:block;overflow:visible;enable-background:accumulate"
     d="m 58.402802,21.458906 c -1.673021,0 -3.026741,1.388828 -3.026724,3.090466 l 0,5.989767 c -2.991517,0.797055 -5.848931,2.00483 -8.464273,3.525891 l -4.26398,-4.264 c -0.60161,-0.601611 -1.324255,-0.922662 -2.102789,-0.929255 -0.77855,-0.0066 -1.569691,0.274034 -2.161191,0.865534 l -8.342133,8.342123 c -1.183016,1.183017 -1.144834,3.060763 0.05842,4.264001 l 4.26398,4.263983 c -1.521043,2.615328 -2.723549,5.472762 -3.52057,8.464264 l -5.995081,0 c -1.701619,0 -3.085161,1.353704 -3.085161,3.026744 l 0,11.74059 c 0,1.67304 1.383542,3.026744 3.085161,3.026744 l 5.995081,0 c 0.797021,2.991502 1.999527,5.854237 3.52057,8.469565 l -4.26398,4.258682 c -1.203237,1.203239 -1.241436,3.080984 -0.05842,4.264001 l 8.342133,8.342123 c 1.183017,1.183018 3.060743,1.144836 4.26398,-0.0584 l 4.26398,-4.264001 c 2.615325,1.521044 5.472739,2.723535 8.464273,3.52059 l 0,5.995074 c 0,1.70162 1.35372,3.09046 3.026724,3.09046 l 11.74058,0 c 1.673038,0 3.026741,-1.38884 3.026741,-3.09046 l 0,-5.995074 c 2.991517,-0.797055 5.848931,-1.999546 8.464258,-3.52059 l 4.263997,4.264001 c 1.20322,1.203238 3.080963,1.24142 4.26398,0.0584 l 8.342116,-8.342123 c 1.183033,-1.183017 1.139533,-3.060762 -0.06372,-4.264001 l -4.26398,-4.258682 c 1.521059,-2.615328 2.728816,-5.478063 3.525888,-8.469565 l 5.989759,0 c 1.70162,0 3.09047,-1.353704 3.09047,-3.026744 l 0,-11.74059 c 0,-1.673023 -1.38885,-3.026744 -3.09047,-3.026744 l -5.989759,0 c -0.797072,-2.991502 -2.004829,-5.848936 -3.525888,-8.464264 l 4.26398,-4.263983 c 1.203271,-1.203238 1.246754,-3.080984 0.06372,-4.264001 l -8.342116,-8.342123 c -1.183017,-1.183018 -3.060777,-1.139517 -4.26398,0.06372 l -4.263997,4.264 C 79.019054,32.543969 76.16164,31.336194 73.170123,30.539139 l 0,-5.989767 c 0,-1.701638 -1.353703,-3.090466 -3.026741,-3.090466 l -11.74058,0 z m 6.244646,9.191736 c 18.440652,0 33.389739,14.9491 33.389739,33.389767 0,18.440651 -14.949087,33.389768 -33.389739,33.389768 -18.440633,0 -33.38972,-14.949117 -33.389737,-33.389768 0,-18.440667 14.949104,-33.389767 33.389737,-33.389767 z"
     id="path4164"
     inkscape:connector-curvature="0" />
  <path
     inkscape:connector-curvature="0"
     style="opacity:0.3;fill:url(#linearGradient3113);fill-opacity:1;fill-rule:nonzero;stroke:none;display:inline"
     id="path4180"
     d="m 113.85454,4.2147295 c 4.7828,-0.004 11.11502,4.89563 11.09471,10.4161005 L 124.66523,91.849 C 99.32877,72.71323 61.02574,60.50142 18.18874,60.50142 c -4.8605,0 -9.65776,0.16092 -14.38874,0.4671 l 0,-46.15718 C 3.8,9.2908395 9.92257,4.3093295 14.70538,4.3049795 z"
     sodipodi:nodetypes="sscscsss" />
</svg>
