<svg xmlns="http://www.w3.org/2000/svg" viewBox="0 0 128 128" xmlns:xlink="http://www.w3.org/1999/xlink">
<defs>
<clipPath id="clipPath3613-6-6">
<path style="fill:#fff" d="m12,6h72a6,6 0 0,1 6,6v72a6,6 0 0,1 -6,6h-72a6,6 0 0,1 -6-6v-72a6,6 0 0,1 6-6"/>
</clipPath>
<clipPath id="clipPath3613-6-4">
<path style="fill:#fff" d="m12,6h72a6,6 0 0,1 6,6v72a6,6 0 0,1 -6,6h-72a6,6 0 0,1 -6-6v-72a6,6 0 0,1 6-6"/>
</clipPath>
<filter width="1.384" x="-.192" y="-.192" height="1.384" style="color-interpolation-filters:sRGB" id="filter3794-6-1">
<feGaussianBlur stdDeviation="5.28"/>
</filter>
<filter width="1.384" x="-.192" y="-.192" height="1.384" style="color-interpolation-filters:sRGB" id="filter3794-6-4">
<feGaussianBlur stdDeviation="5.28"/>
</filter>
<linearGradient id="linearGradient9829">
<stop offset="0" style="stop-color:#29557e"/>
<stop offset="1" style="stop-color:#177bc0"/>
</linearGradient>
<linearGradient id="linearGradient3737-1">
<stop offset="0" style="stop-color:#fff"/>
<stop offset="1" style="stop-color:#fff;stop-opacity:0"/>
</linearGradient>
<linearGradient gradientTransform="matrix(1.34442 0 0 1.34439 -.76009 -.49642)" xlink:href="#linearGradient9829" id="linearGradient9827" y1="101.698" x1="19.199" y2="-135.945" x2="20.405" gradientUnits="userSpaceOnUse"/>
<linearGradient id="linearGradient3103" xlink:href="#linearGradient3737-1" y1="20.221" y2="138.661" x2="0" gradientUnits="userSpaceOnUse"/>
<linearGradient id="linearGradient3737-18">
<stop offset="0" style="stop-color:#fff"/>
<stop offset="1" style="stop-color:#fff;stop-opacity:0"/>
</linearGradient>
<linearGradient gradientTransform="matrix(-1.43887 0 0 1.6608 133.29087 -6.82207)" id="linearGradient8830" xlink:href="#linearGradient3697" y1="11.109" y2="66.668" x1="129.168" x2="6.905" gradientUnits="userSpaceOnUse"/>
<linearGradient id="linearGradient8813" xlink:href="#linearGradient3737-18" y1="20.221" y2="138.661" x2="0" gradientUnits="userSpaceOnUse"/>
<linearGradient id="linearGradient3697">
<stop offset="0" style="stop-color:#fff"/>
<stop offset="1" style="stop-color:#fff;stop-opacity:0"/>
</linearGradient>
<radialGradient cx="19.142" cy="19.001" gradientTransform="matrix(2.57361 .01685 -.01635 2.49578 13.76604 13.05315)" id="radialGradient9887" r="45" gradientUnits="userSpaceOnUse">
<stop offset="0" style="stop-color:#569ce3"/>
<stop offset="1" style="stop-color:#0a3d77"/>
</radialGradient>
</defs>
<g transform="translate(-.00041 -.0005)">
<path style="opacity:.763;fill:#090909" d="m16.4667-120.749h96.7983a8.0665,8.0663 0 0,1 8.066,8.066v96.7962a8.0665,8.0663 0 0,1 -8.066,8.0663h-96.7983a8.0665,8.0663 0 0,1 -8.0665-8.0663v-96.7962a8.0665,8.0663 0 0,1 8.0665-8.066" transform="scale(1 -1)"/>
<path style="fill:url(#radialGradient9887);stroke:url(#linearGradient9827);stroke-width:8.066" d="m15.9198,7.5699h96.7982a8.0665,8.0663 0 0,1 8.066,8.0663v96.7958a8.0665,8.0663 0 0,1 -8.066,8.066h-96.7982a8.0665,8.0663 0 0,1 -8.0665-8.066v-96.7958a8.0665,8.0663 0 0,1 8.0665-8.0663"/>
<path style="opacity:.1;fill:url(#linearGradient3103);filter:url(#filter3794-6-4);stroke:#fff;stroke-linecap:round;stroke-width:.5;clip-path:url(#clipPath3613-6-4)" d="m27,15h42a12,12 0 0,1 12,12v42a12,12 0 0,1 -12,12h-42a12,12 0 0,1 -12-12v-42a12,12 0 0,1 12-12" transform="matrix(1.34442 0 0 1.35764 -.26545 -.82835)"/>
<path style="fill:#fff" d="m64.2564,14.9986-14.1875,26.7187 3.1562-.0312 0,22.0625-6.125,0 0-4.1562-14.2188,0 0,31.3437 2.75,0 0,4.625 1.9688,0-5.75,9.4062 16.2188-.0312-5.9062-9.375 11.0625,0 0,2 21.8125,0 0-2 11.1875,0-5.5625,9.0937 16.2188-.0625-5.7188-9.0312 2.1562,0 0-4.625 2.1562,0 0-31.3125-14.2188,0 0,4.125-6.2188,0 0-22.1562 3.0938-.0312-13.875-26.5625zm-24.4062,30.4687-8,13.0625 16.2188-.0625-8.2188-13zm48.5312,0-8,13.0625 16.2188-.0625-8.2188-13zm-41.2812,26.0937 6.125,0 0,17.1562-6.125,0 0-17.1562zm27.9375,0 6.2188,0 0,17.1562-6.2188,0 0-17.1562zm-18.7188,26.9687 0,3.5312 5.3125,0-8.4688,11.5 22.1562-.0625-8.6562-11.4375 5.375,0 0-3.5312-15.7188,0z"/>
<path style="opacity:.1;fill:url(#linearGradient8813);filter:url(#filter3794-6-1);stroke:#fff;stroke-linecap:round;stroke-width:.5;clip-path:url(#clipPath3613-6-6)" d="m27,15h42a12,12 0 0,1 12,12v42a12,12 0 0,1 -12,12h-42a12,12 0 0,1 -12-12v-42a12,12 0 0,1 12-12" transform="matrix(1.3254 0 0 1.34291 .44961 -.12014)"/>
<path style="opacity:.3;fill:url(#linearGradient8830)" d="m113.847,3.3233c4.7828-.004 11.115,4.8956 11.0947,10.4161l-.284,77.2182c-25.3365-19.1358-63.6395-31.3476-106.4765-31.3476-4.8605,0-9.6578,.1609-14.3887,.4671v-46.1572c0-5.5205 6.1226-10.502 10.9054-10.5064z"/>
</g>
</svg>
