<?xml version="1.0" encoding="UTF-8" standalone="no"?>
<!-- Created with Inkscape (http://www.inkscape.org/) -->

<svg
   xmlns:dc="http://purl.org/dc/elements/1.1/"
   xmlns:cc="http://creativecommons.org/ns#"
   xmlns:rdf="http://www.w3.org/1999/02/22-rdf-syntax-ns#"
   xmlns:svg="http://www.w3.org/2000/svg"
   xmlns="http://www.w3.org/2000/svg"
   xmlns:xlink="http://www.w3.org/1999/xlink"
   xmlns:sodipodi="http://sodipodi.sourceforge.net/DTD/sodipodi-0.dtd"
   xmlns:inkscape="http://www.inkscape.org/namespaces/inkscape"
   version="1.0"
   width="128"
   height="128"
   id="svg3449"
   sodipodi:version="0.32"
   inkscape:version="0.48.2 r9819"
   sodipodi:docname="folder (5ª copia).svg"
   inkscape:output_extension="org.inkscape.output.svg.inkscape">
  <metadata
     id="metadata56">
    <rdf:RDF>
      <cc:Work
         rdf:about="">
        <dc:format>image/svg+xml</dc:format>
        <dc:type
           rdf:resource="http://purl.org/dc/dcmitype/StillImage" />
      </cc:Work>
    </rdf:RDF>
  </metadata>
  <sodipodi:namedview
     inkscape:window-height="974"
     inkscape:window-width="1280"
     inkscape:pageshadow="2"
     inkscape:pageopacity="0.0"
     guidetolerance="10.0"
     gridtolerance="10.0"
     objecttolerance="10.0"
     borderopacity="1.0"
     bordercolor="#666666"
     pagecolor="#ffffff"
     id="base"
     showgrid="false"
     inkscape:zoom="1.9765625"
     inkscape:cx="65.521075"
     inkscape:cy="41.32332"
     inkscape:window-x="0"
     inkscape:window-y="0"
     inkscape:current-layer="svg3449"
     inkscape:window-maximized="1" />
  <defs
     id="defs3451">
    <linearGradient
       id="linearGradient5060-820">
      <stop
         id="stop2681"
         style="stop-color:#000000;stop-opacity:1"
         offset="0" />
      <stop
         id="stop2683"
         style="stop-color:#000000;stop-opacity:0"
         offset="1" />
    </linearGradient>
    <radialGradient
       cx="605.71429"
       cy="486.64789"
       r="117.14286"
       fx="605.71429"
       fy="486.64789"
       id="radialGradient2488"
       xlink:href="#linearGradient5060-820"
       gradientUnits="userSpaceOnUse"
       gradientTransform="matrix(-8.2775052e-2,0,0,6.6416887e-2,62.347829,75.518568)" />
    <linearGradient
       id="linearGradient5060-179">
      <stop
         id="stop2675"
         style="stop-color:#000000;stop-opacity:1"
         offset="0" />
      <stop
         id="stop2677"
         style="stop-color:#000000;stop-opacity:0"
         offset="1" />
    </linearGradient>
    <radialGradient
       cx="605.71429"
       cy="486.64789"
       r="117.14286"
       fx="605.71429"
       fy="486.64789"
       id="radialGradient2486"
       xlink:href="#linearGradient5060-179"
       gradientUnits="userSpaceOnUse"
       gradientTransform="matrix(8.2775071e-2,0,0,6.6416887e-2,65.628912,75.518568)" />
    <linearGradient
       id="linearGradient5048-585">
      <stop
         id="stop2667"
         style="stop-color:#000000;stop-opacity:0"
         offset="0" />
      <stop
         id="stop2669"
         style="stop-color:#000000;stop-opacity:1"
         offset="0.5" />
      <stop
         id="stop2671"
         style="stop-color:#000000;stop-opacity:0"
         offset="1" />
    </linearGradient>
    <linearGradient
       x1="302.85715"
       y1="366.64789"
       x2="302.85715"
       y2="609.50507"
       id="linearGradient2484"
       xlink:href="#linearGradient5048-585"
       gradientUnits="userSpaceOnUse"
       gradientTransform="matrix(0.2134205,0,0,6.6416887e-2,-13.147881,75.518568)" />
    <linearGradient
       id="linearGradient3484">
      <stop
         id="stop3486"
         style="stop-color:#bdbdbd;stop-opacity:1"
         offset="0" />
      <stop
         id="stop3488"
         style="stop-color:#d0d0d0;stop-opacity:1"
         offset="1" />
    </linearGradient>
    <linearGradient
       id="linearGradient6404">
      <stop
         id="stop6406"
         style="stop-color:#f9f9f9;stop-opacity:1"
         offset="0" />
      <stop
         id="stop6408"
         style="stop-color:#c9c9c9;stop-opacity:1"
         offset="1" />
    </linearGradient>
    <linearGradient
       id="linearGradient3390">
      <stop
         id="stop3392"
         style="stop-color:#51751e;stop-opacity:1"
         offset="0" />
      <stop
         id="stop3394"
         style="stop-color:#51751e;stop-opacity:1"
         offset="1" />
    </linearGradient>
    <linearGradient
       id="linearGradient7012-661-145-733-759-865-745">
      <stop
         id="stop2699"
         style="stop-color:#aacb7d;stop-opacity:1"
         offset="0" />
      <stop
         id="stop2701"
         style="stop-color:#709937;stop-opacity:1"
         offset="1" />
    </linearGradient>
    <linearGradient
       id="linearGradient6129-963-697-142-998-580-273">
      <stop
         id="stop2661"
         style="stop-color:#0a0a0a;stop-opacity:0.498"
         offset="0" />
      <stop
         id="stop2663"
         style="stop-color:#0a0a0a;stop-opacity:0"
         offset="1" />
    </linearGradient>
    <linearGradient
       id="linearGradient6087-437-184-795-110-662-495">
      <stop
         id="stop2693"
         style="stop-color:#ffffff;stop-opacity:0.40000001"
         offset="0" />
      <stop
         id="stop2695"
         style="stop-color:#ffffff;stop-opacity:0"
         offset="1" />
    </linearGradient>
    <linearGradient
       id="linearGradient8265-821-176-38-919-66-249">
      <stop
         id="stop2687"
         style="stop-color:#ffffff;stop-opacity:0.2"
         offset="0" />
      <stop
         id="stop2689"
         style="stop-color:#ffffff;stop-opacity:0"
         offset="1" />
    </linearGradient>
    <linearGradient
       inkscape:collect="always"
       xlink:href="#linearGradient8265-821-176-38-919-66-249"
       id="linearGradient2432"
       gradientUnits="userSpaceOnUse"
       gradientTransform="matrix(2.6482074,0,0,2.640269,0.4315584,1.7937658)"
       x1="11.566265"
       y1="22.292103"
       x2="15.214532"
       y2="33.95525" />
    <radialGradient
       inkscape:collect="always"
       xlink:href="#linearGradient6087-437-184-795-110-662-495"
       id="radialGradient2435"
       gradientUnits="userSpaceOnUse"
       gradientTransform="matrix(0,1.1019148,-1.5096234,0,53.85015,9.2569441)"
       cx="32.264069"
       cy="14.298984"
       fx="32.264069"
       fy="14.298984"
       r="61" />
    <linearGradient
       inkscape:collect="always"
       xlink:href="#linearGradient6129-963-697-142-998-580-273"
       id="linearGradient2438"
       gradientUnits="userSpaceOnUse"
       gradientTransform="matrix(3.036796,0,0,2.6219687,-8.8831095,4.6704719)"
       x1="22.934725"
       y1="49.629246"
       x2="22.934725"
       y2="36.599415" />
    <radialGradient
       inkscape:collect="always"
       xlink:href="#linearGradient7012-661-145-733-759-865-745"
       id="radialGradient2441"
       gradientUnits="userSpaceOnUse"
       gradientTransform="matrix(4.1712212,-2.5183476e-7,1.6467508e-7,2.688962,-229.83186,22.814774)"
       cx="63.969177"
       cy="14.113381"
       fx="63.969177"
       fy="14.113381"
       r="23.097054" />
    <linearGradient
       inkscape:collect="always"
       xlink:href="#linearGradient3390"
       id="linearGradient2443"
       gradientUnits="userSpaceOnUse"
       gradientTransform="matrix(2.6658408,0,0,2.6469079,-143.33284,0.950492)"
       x1="82.453476"
       y1="45.114193"
       x2="82.453476"
       y2="7.6327758" />
    <linearGradient
       inkscape:collect="always"
       xlink:href="#linearGradient6404"
       id="linearGradient2446"
       gradientUnits="userSpaceOnUse"
       gradientTransform="matrix(2.7209303,0,0,2.6722576,-139.90895,0.7861261)"
       x1="62.988873"
       y1="12.724592"
       x2="62.988873"
       y2="17.324797" />
    <radialGradient
       inkscape:collect="always"
       xlink:href="#linearGradient3484"
       id="radialGradient2448"
       gradientUnits="userSpaceOnUse"
       gradientTransform="matrix(0,4.5810288,-7.2733208,0,40.564727,8.4207689)"
       cx="3"
       cy="5.01718"
       fx="3"
       fy="5.01718"
       r="21" />
    <radialGradient
       inkscape:collect="always"
       xlink:href="#linearGradient4059"
       id="radialGradient3548"
       gradientUnits="userSpaceOnUse"
       gradientTransform="matrix(4.0072397e-4,2.2081308,-2.7670616,4.5911225e-4,17.162722,-249.92558)"
       cx="128.6185"
       cy="-5.0455413"
       fx="128.6185"
       fy="-5.0455413"
       r="45" />
    <linearGradient
       id="linearGradient4059">
      <stop
         style="stop-color:#4a4c37;stop-opacity:1"
         offset="0"
         id="stop4061" />
      <stop
         id="stop4063"
         offset="0.31291944"
         style="stop-color:#2a2c1d;stop-opacity:1" />
      <stop
         style="stop-color:#090908;stop-opacity:1"
         offset="0.66048187"
         id="stop4065" />
      <stop
         style="stop-color:#1d240d;stop-opacity:1"
         offset="1"
         id="stop4067" />
    </linearGradient>
    <linearGradient
       inkscape:collect="always"
       xlink:href="#linearGradient9647"
       id="linearGradient3550"
       gradientUnits="userSpaceOnUse"
       gradientTransform="matrix(1.0095551,0,0,1.0056748,17.095365,17.598094)"
       x1="48.24577"
       y1="102.10169"
       x2="17.000467"
       y2="-21.966103" />
    <linearGradient
       id="linearGradient9647">
      <stop
         id="stop9649"
         style="stop-color:#151414;stop-opacity:1"
         offset="0" />
      <stop
         id="stop9651"
         style="stop-color:#5c5a5a;stop-opacity:1"
         offset="1" />
    </linearGradient>
    <radialGradient
       inkscape:collect="always"
       xlink:href="#linearGradient4357"
       id="radialGradient4352"
       gradientUnits="userSpaceOnUse"
       gradientTransform="matrix(1.5092597,-1.3574554,1.43613,1.5817358,-221.31444,108.93849)"
       cx="119.33224"
       cy="123.7699"
       fx="119.33224"
       fy="123.7699"
       r="42.606647" />
    <linearGradient
       id="linearGradient4357">
      <stop
         offset="0"
         style="stop-color:#0d0e09;stop-opacity:1;"
         id="stop4359" />
      <stop
         offset="1"
         style="stop-color:#abaeab;stop-opacity:0;"
         id="stop4361" />
    </linearGradient>
    <linearGradient
       inkscape:collect="always"
       xlink:href="#linearGradient3637-6"
       id="linearGradient3526"
       gradientUnits="userSpaceOnUse"
       gradientTransform="matrix(2.819164,0,0,2.819164,-228.96953,113.61114)"
       x1="10.710332"
       y1="1.9963325"
       x2="10.710332"
       y2="18.974037" />
    <linearGradient
       id="linearGradient3637-6">
      <stop
         id="stop3639-1"
         style="stop-color:#f0f0f0;stop-opacity:1"
         offset="0" />
      <stop
         id="stop3641-5"
         style="stop-color:#aaaaaa;stop-opacity:1"
         offset="1" />
    </linearGradient>
    <linearGradient
       inkscape:collect="always"
       xlink:href="#linearGradient4292"
       id="linearGradient3530"
       gradientUnits="userSpaceOnUse"
       gradientTransform="matrix(1.0037478,0,0,1,153.19278,-47.907068)"
       x1="-195.39287"
       y1="33.214844"
       x2="35.6287"
       y2="184.31998" />
    <linearGradient
       id="linearGradient4292">
      <stop
         offset="0"
         style="stop-color:#ffffff;stop-opacity:0.502"
         id="stop4294" />
      <stop
         offset="1"
         style="stop-color:#ffffff;stop-opacity:0"
         id="stop4296" />
    </linearGradient>
    <linearGradient
       y2="184.31998"
       x2="35.6287"
       y1="33.214844"
       x1="-195.39287"
       gradientTransform="matrix(1.0037478,0,0,1,153.19278,-47.907068)"
       gradientUnits="userSpaceOnUse"
       id="linearGradient3560"
       xlink:href="#linearGradient4292"
       inkscape:collect="always" />
  </defs>
  <g
     transform="translate(3.790242e-4,-3.7784454e-4)"
     id="g3501">
    <g
       transform="matrix(1.331741,0,0,1.3368307,-23.735345,-23.823136)"
       id="g3544">
      <rect
         style="opacity:0.76254183;fill:#090909;fill-opacity:1;fill-rule:nonzero;stroke:none;display:inline"
         id="rect9752"
         transform="scale(1,-1)"
         y="-108.29631"
         x="23.974026"
         ry="6.0340486"
         rx="6.0573306"
         height="84.476677"
         width="84.802628"
         inkscape:transform-center-x="-2.4406777"
         inkscape:transform-center-y="-79.822033" />
      <rect
         style="fill:url(#radialGradient3548);fill-opacity:1;fill-rule:nonzero;stroke:url(#linearGradient3550);stroke-width:6.04567862;stroke-miterlimit:4;stroke-opacity:1;stroke-dasharray:none;display:inline"
         id="rect9754"
         y="23.632143"
         x="23.563358"
         ry="6.0340486"
         rx="6.0573306"
         height="84.476677"
         width="84.802628" />
    </g>
    <rect
       style="opacity:0.7;fill:url(#radialGradient4352);fill-opacity:1;fill-rule:nonzero;stroke:none;display:inline"
       id="rect4329"
       y="11.908042"
       x="11.307986"
       ry="4.9180083"
       rx="3.9854703"
       height="104.91989"
       width="105.34079" />
    <g
       transform="matrix(1.797268,0,0,1.7582509,419.0952,-186.83855)"
       id="g3518">
      <path
         inkscape:connector-curvature="0"
         style="opacity:0.1;fill:#000000;fill-opacity:1;stroke:none;display:inline"
         id="path3931"
         d="m -203.43162,118.09535 c -4.84396,0 -9.71342,1.8207 -13.40625,5.5 -7.38588,7.35882 -7.38588,19.39119 0,26.75 6.23579,6.21295 15.78403,7.1714 23.0625,2.875 0.41135,0.0264 0.84454,0.0301 1.15625,0.0937 0.13296,0.0271 0.23201,0.0849 0.34375,0.125 1.8e-4,0.19482 -0.005,0.45197 0,0.875 0.0109,0.93042 0.34009,2.24908 1.25,3.40625 0.006,0.007 -0.006,0.0239 0,0.0312 a 1.0045329,1.0045329 0 0 0 0.0312,0.0625 1.0045329,1.0045329 0 0 0 0.25,0.5 l 10.375,10.5 a 1.0045329,1.0045329 0 0 0 0.0937,0.0625 1.0045329,1.0045329 0 0 0 0.15625,0.0937 c 0.11458,0.10186 0.24078,0.24279 0.4375,0.375 0.41011,0.27564 1.02243,0.59547 1.78125,0.71875 1.55373,0.25244 3.51184,-0.33106 5.34375,-2.15625 1.83435,-1.82763 2.413,-3.79059 2.15625,-5.34375 -0.24037,-1.45401 -1.11331,-2.27454 -1.25,-2.40625 -0.002,-0.002 0.002,-0.0297 0,-0.0312 l 0,-0.0312 -10.3125,-10.4375 c -0.0659,-0.0728 -0.072,-0.0752 -0.0312,-0.0312 -1.27715,-1.37496 -3.00964,-1.5489 -4.0625,-1.5625 -0.4115,-0.005 -0.64289,-6.9e-4 -0.84375,0 -0.0333,-0.10137 -0.0702,-0.19093 -0.0937,-0.3125 -0.0617,-0.31797 -0.0984,-0.74792 -0.125,-1.15625 4.31483,-7.25651 3.36263,-16.78523 -2.875,-23 -3.69707,-3.68352 -8.59388,-5.5 -13.4375,-5.5 z m 0.0625,9.625 c 5.15636,0 9.3125,4.12946 9.3125,9.25 0,5.12055 -4.15613,9.25 -9.3125,9.25 -5.15676,1e-5 -9.28125,-4.12207 -9.28125,-9.25 0,-2.55645 1.07341,-4.89206 2.75,-6.5625 1.68045,-1.67429 3.93489,-2.6875 6.53125,-2.6875 z m -14,32.375 c -2.74775,0 -5,2.25226 -5,5 0,2.74775 2.25225,5 5,5 2.74774,0 5,-2.25225 5,-5 0,-2.74774 -2.25226,-5 -5,-5 z m 5,5 c 0,2.74775 2.25225,5 5,5 2.74774,0 5,-2.25225 5,-5 0,-2.74774 -2.25226,-5 -5,-5 -2.74775,0 -5,2.25226 -5,5 z m 10,0 c 0,2.74775 2.25225,5 5,5 2.74774,0 5,-2.25225 5,-5 0,-2.74774 -2.25226,-5 -5,-5 -2.74775,0 -5,2.25226 -5,5 z" />
      <path
         inkscape:connector-curvature="0"
         style="opacity:0.15;fill:#000000;fill-opacity:1;stroke:none;display:inline"
         id="path3927"
         d="m -203.43162,119.09535 c -4.59128,0 -9.18841,1.73248 -12.6875,5.21875 -6.99935,6.9737 -6.99935,18.33881 0,25.3125 6.00255,5.98057 15.22855,6.85038 22.15625,2.5625 0.48901,0.0306 1.0402,0.056 1.53125,0.15625 0.58132,0.11868 1.02917,0.36858 1.0625,0.40625 0.0118,0.0133 0.0693,0.0988 0.0937,0.375 0.0244,0.27625 -0.006,0.70766 0,1.1875 0.011,0.94295 0.21715,2.25311 1.28125,3.25 l -0.0312,0.0312 10.375,10.5 0.0312,0 c 0.0268,0.0277 0.71221,0.77983 1.875,0.96875 1.18509,0.19255 2.8096,-0.22193 4.46875,-1.875 1.65875,-1.65268 2.07045,-3.28641 1.875,-4.46875 -0.18906,-1.14361 -0.89012,-1.82954 -0.9375,-1.875 l -0.0312,-0.0312 -10.34375,-10.46875 c -0.0109,-0.0121 -0.0202,-0.0194 -0.0312,-0.0312 -1.00366,-1.08052 -2.35754,-1.23766 -3.3125,-1.25 -0.48273,-0.006 -0.90739,0.0248 -1.1875,0 -0.28012,-0.0248 -0.36182,-0.0822 -0.375,-0.0937 -0.0359,-0.0315 -0.26382,-0.45809 -0.375,-1.03125 -0.0939,-0.48415 -0.1272,-1.03897 -0.15625,-1.53125 4.30503,-6.90476 3.44101,-16.11224 -2.5625,-22.09375 -3.50134,-3.4885 -8.12748,-5.21875 -12.71875,-5.21875 z m 0.0625,7.625 c 5.6953,0 10.3125,4.58381 10.3125,10.25 0,5.6662 -4.6172,10.25 -10.3125,10.25 -5.6953,1e-5 -10.28125,-4.58043 -10.28125,-10.25 0,-2.8334 1.17188,-5.42869 3.03125,-7.28125 1.86054,-1.85372 4.39236,-2.96875 7.25,-2.96875 z m -14,34.375 c -2.19971,0 -4,1.8003 -4,4 0,2.19971 1.80029,4 4,4 2.1997,0 4,-1.80029 4,-4 0,-2.1997 -1.8003,-4 -4,-4 z m 10,0 c -2.19971,0 -4,1.8003 -4,4 0,2.19971 1.80029,4 4,4 2.1997,0 4,-1.80029 4,-4 0,-2.1997 -1.8003,-4 -4,-4 z m 10,0 c -2.19971,0 -4,1.8003 -4,4 0,2.19971 1.80029,4 4,4 2.1997,0 4,-1.80029 4,-4 0,-2.1997 -1.8003,-4 -4,-4 z" />
      <path
         style="opacity:0.3;fill:#000000;fill-opacity:1;stroke:none;display:inline"
         id="path3921"
         inkscape:connector-curvature="0"
         d="m -203.43162,120.09535 c -4.33773,0 -8.66154,1.6424 -11.96875,4.9375 -6.61444,6.5902 -6.61444,17.2848 0,23.875 5.7663,5.74519 14.64906,6.52185 21.21875,2.25 1.1167,0.0558 2.9226,0.21424 3.5625,0.9375 0.87127,0.9848 -0.35846,3.28034 1.3125,4.78125 l 10.375,10.53125 c 0,0 1.93492,2.05408 4.9375,-0.9375 3.00258,-2.99157 0.9375,-4.90625 0.9375,-4.90625 l -10.40625,-10.53125 c -1.50644,-1.66483 -3.82409,-0.44442 -4.8125,-1.3125 -0.72593,-0.63754 -0.85024,-2.41863 -0.90625,-3.53125 4.28755,-6.54561 3.51631,-15.41107 -2.25,-21.15625 -3.30722,-3.2951 -7.66228,-4.9375 -12,-4.9375 z m 0.0625,5.625 c 6.23614,0 11.3125,5.0367 11.3125,11.25 0,6.21331 -5.07635,11.25 -11.3125,11.25 -6.23615,1e-5 -11.28125,-5.03669 -11.28125,-11.25 0,-3.10665 1.26767,-5.96267 3.3125,-8 2.04482,-2.03733 4.85067,-3.25 7.96875,-3.25 z m -14,36.375 c -1.65686,0 -3,1.34315 -3,3 0,1.65686 1.34314,3 3,3 1.65685,0 3,-1.34314 3,-3 0,-1.65685 -1.34315,-3 -3,-3 z m 10,0 c -1.65686,0 -3,1.34315 -3,3 0,1.65686 1.34314,3 3,3 1.65685,0 3,-1.34314 3,-3 0,-1.65685 -1.34315,-3 -3,-3 z m 10,0 c -1.65686,0 -3,1.34315 -3,3 0,1.65686 1.34314,3 3,3 1.65685,0 3,-1.34314 3,-3 0,-1.65685 -1.34315,-3 -3,-3 z" />
      <path
         style="fill:url(#linearGradient3526);fill-opacity:1;stroke:none;display:inline"
         id="Symbol"
         inkscape:connector-curvature="0"
         d="m -203.43162,119.09535 c -4.33773,0 -8.66154,1.6424 -11.96875,4.9375 -6.61444,6.5902 -6.61444,17.2848 0,23.875 5.7663,5.74519 14.64906,6.52185 21.21875,2.25 1.1167,0.0558 2.9226,0.21424 3.5625,0.9375 0.87127,0.9848 -0.35846,3.28034 1.3125,4.78125 l 10.375,10.53125 c 0,0 1.93492,2.05408 4.9375,-0.9375 3.00258,-2.99157 0.9375,-4.90625 0.9375,-4.90625 l -10.40625,-10.53125 c -1.50644,-1.66483 -3.82409,-0.44442 -4.8125,-1.3125 -0.72593,-0.63754 -0.85024,-2.41863 -0.90625,-3.53125 4.28755,-6.54561 3.51631,-15.41107 -2.25,-21.15625 -3.30722,-3.2951 -7.66228,-4.9375 -12,-4.9375 z m 0.0625,5.625 c 6.23614,0 11.3125,5.0367 11.3125,11.25 0,6.21331 -5.07635,11.25 -11.3125,11.25 -6.23615,1e-5 -11.28125,-5.03669 -11.28125,-11.25 0,-3.10665 1.26767,-5.96267 3.3125,-8 2.04482,-2.03733 4.85067,-3.25 7.96875,-3.25 z m -14,36.375 c -1.65686,0 -3,1.34315 -3,3 0,1.65686 1.34314,3 3,3 1.65685,0 3,-1.34314 3,-3 0,-1.65685 -1.34315,-3 -3,-3 z m 10,0 c -1.65686,0 -3,1.34315 -3,3 0,1.65686 1.34314,3 3,3 1.65685,0 3,-1.34314 3,-3 0,-1.65685 -1.34315,-3 -3,-3 z m 10,0 c -1.65686,0 -3,1.34315 -3,3 0,1.65686 1.34314,3 3,3 1.65685,0 3,-1.34314 3,-3 0,-1.65685 -1.34315,-3 -3,-3 z" />
      <path
         style="opacity:0.75;fill:#ffffff;fill-opacity:1;stroke:none;display:inline"
         id="path3903"
         inkscape:connector-curvature="0"
         d="m -203.43162,119.09535 c -4.33773,0 -8.66154,1.6424 -11.96875,4.9375 -3.43446,3.42187 -5.06963,7.95163 -4.9375,12.4375 0.12234,-4.15349 1.75751,-8.26917 4.9375,-11.4375 3.30721,-3.2951 7.63102,-4.9375 11.96875,-4.9375 4.33772,0 8.69278,1.6424 12,4.9375 3.15562,3.14407 4.81546,7.22234 4.96875,11.34375 0.0986,-4.45697 -1.5571,-8.9446 -4.96875,-12.34375 -3.30722,-3.2951 -7.66228,-4.9375 -12,-4.9375 z m -11.1875,17.375 c -0.007,0.16645 -0.0312,0.332 -0.0312,0.5 0,6.21331 5.0451,11.25001 11.28125,11.25 6.23615,0 11.3125,-5.03669 11.3125,-11.25 0,-0.168 -0.0239,-0.33379 -0.0312,-0.5 -0.26432,5.98065 -5.21372,10.75 -11.28125,10.75 -6.06753,1e-5 -10.98729,-4.76935 -11.25,-10.75 z m 25.5,9.65625 c -0.0156,0.0241 -0.0467,0.0384 -0.0625,0.0625 0.056,1.11262 0.18032,2.89371 0.90625,3.53125 0.98841,0.86808 3.30606,-0.35233 4.8125,1.3125 l 10.40625,10.53125 c 0,0 0.50804,0.47949 0.65625,1.3125 0.28309,-1.45899 -0.65625,-2.3125 -0.65625,-2.3125 l -10.40625,-10.53125 c -1.50644,-1.66483 -3.82409,-0.44442 -4.8125,-1.3125 -0.54445,-0.47816 -0.75113,-1.59355 -0.84375,-2.59375 z m -28.25,14.96875 c -1.65686,0 -3,1.34315 -3,3 0,0.17477 0.0338,0.33343 0.0625,0.5 0.24321,-1.41264 1.45541,-2.5 2.9375,-2.5 1.48209,0 2.69428,1.08736 2.9375,2.5 0.0287,-0.16657 0.0625,-0.32523 0.0625,-0.5 0,-1.65685 -1.34315,-3 -3,-3 z m 10,0 c -1.65686,0 -3,1.34315 -3,3 0,0.17477 0.0338,0.33343 0.0625,0.5 0.24321,-1.41264 1.45541,-2.5 2.9375,-2.5 1.48209,0 2.69428,1.08736 2.9375,2.5 0.0287,-0.16657 0.0625,-0.32523 0.0625,-0.5 0,-1.65685 -1.34315,-3 -3,-3 z m 10,0 c -1.65686,0 -3,1.34315 -3,3 0,0.17477 0.0338,0.33343 0.0625,0.5 0.24321,-1.41264 1.45541,-2.5 2.9375,-2.5 1.48209,0 2.69428,1.08736 2.9375,2.5 0.0287,-0.16657 0.0625,-0.32523 0.0625,-0.5 0,-1.65685 -1.34315,-3 -3,-3 z" />
      <path
         style="opacity:0.15;fill:#000000;fill-opacity:1;stroke:none;display:inline"
         id="path3912"
         inkscape:connector-curvature="0"
         d="m -203.36912,123.72035 c -3.11808,0 -5.92393,1.21267 -7.96875,3.25 -2.04483,2.03733 -3.3125,4.89335 -3.3125,8 0,0.16801 0.024,0.3338 0.0312,0.5 0.12833,-2.91143 1.347,-5.57284 3.28125,-7.5 2.04482,-2.03733 4.85067,-3.25 7.96875,-3.25 6.06752,0 11.01693,4.76936 11.28125,10.75 0.007,-0.1662 0.0312,-0.33199 0.0312,-0.5 0,-6.2133 -5.07636,-11.25 -11.3125,-11.25 z m 16.90625,11.65625 c -0.0681,3.07612 -0.96794,6.13962 -2.71875,8.8125 0.0135,0.26893 0.0335,0.58481 0.0625,0.90625 1.89862,-2.9419 2.78171,-6.3454 2.65625,-9.71875 z m -33.875,0.0937 c -0.13213,4.48587 1.50304,9.01563 4.9375,12.4375 5.7663,5.74519 14.64906,6.52185 21.21875,2.25 1.1167,0.0558 2.9226,0.21424 3.5625,0.9375 0.21781,0.2462 0.3104,0.56036 0.34375,0.9375 0.003,-0.78216 0.0483,-1.49434 -0.34375,-1.9375 -0.6399,-0.72326 -2.4458,-0.88168 -3.5625,-0.9375 -6.56969,4.27185 -15.45245,3.49519 -21.21875,-2.25 -3.17998,-3.16833 -4.81516,-7.284 -4.9375,-11.4375 z m 30.0625,16.8125 c 0.0426,1.10724 -0.20092,2.54312 0.96875,3.59375 l 10.375,10.53125 c 0,0 1.93492,2.05408 4.9375,-0.9375 1.50129,-1.49579 1.73469,-2.70988 1.59375,-3.5625 -0.14707,0.71906 -0.61097,1.58332 -1.59375,2.5625 -3.00258,2.99158 -4.9375,0.9375 -4.9375,0.9375 l -10.375,-10.53125 c -0.83548,-0.75045 -0.95841,-1.70915 -0.96875,-2.59375 z m -30.03125,11.3125 c -0.0287,0.16658 -0.0625,0.32524 -0.0625,0.5 0,1.65686 1.34314,3 3,3 1.65685,0 3,-1.34314 3,-3 0,-0.17476 -0.0338,-0.33342 -0.0625,-0.5 -0.24322,1.41265 -1.45541,2.5 -2.9375,2.5 -1.48209,0 -2.69429,-1.08735 -2.9375,-2.5 z m 10,0 c -0.0287,0.16658 -0.0625,0.32524 -0.0625,0.5 0,1.65686 1.34314,3 3,3 1.65685,0 3,-1.34314 3,-3 0,-0.17476 -0.0338,-0.33342 -0.0625,-0.5 -0.24322,1.41265 -1.45541,2.5 -2.9375,2.5 -1.48209,0 -2.69429,-1.08735 -2.9375,-2.5 z m 10,0 c -0.0287,0.16658 -0.0625,0.32524 -0.0625,0.5 0,1.65686 1.34314,3 3,3 1.65685,0 3,-1.34314 3,-3 0,-0.17476 -0.0338,-0.33342 -0.0625,-0.5 -0.24322,1.41265 -1.45541,2.5 -2.9375,2.5 -1.48209,0 -2.69429,-1.08735 -2.9375,-2.5 z" />
    </g>
    <rect
       style="opacity:0.3;fill:url(#linearGradient3560);fill-opacity:1;fill-rule:nonzero;stroke:none;display:inline"
       id="rect3528"
       y="11.852029"
       x="11.730936"
       ry="3.9688547"
       rx="3.9670165"
       height="104.91989"
       width="104.85293" />
  </g>
</svg>
