<svg width="128" version="1.0" xmlns="http://www.w3.org/2000/svg" height="128" xmlns:xlink="http://www.w3.org/1999/xlink">
<defs id="defs3451">
<linearGradient xlink:href="#linearGradient3975-5" id="linearGradient3274" y1="37.966103" x1="77.288139" y2="138.06529" gradientUnits="userSpaceOnUse" x2="77.288139"/>
<linearGradient xlink:href="#linearGradient3975" id="linearGradient3271" y1="37.966103" x1="77.288139" y2="138.06529" gradientUnits="userSpaceOnUse" x2="77.288139"/>
<linearGradient id="linearGradient3975-5">
<stop offset="0" style="stop-color:#e5e5e5" id="stop3977-9"/>
<stop offset="1" style="stop-color:#e5e5e5;stop-opacity:0" id="stop3979-4"/>
</linearGradient>
<linearGradient id="linearGradient7340">
<stop offset="0" style="stop-color:#2e3436" id="stop7342"/>
<stop offset="1" style="stop-color:#555753" id="stop7344"/>
</linearGradient>
<linearGradient gradientTransform="matrix(-3.1294428,0,0,2.7092237,158.72739,0.168699)" xlink:href="#linearGradient7422" id="linearGradient3278" y1="27.313059" x1="30.3125" y2="24.6875" gradientUnits="userSpaceOnUse" x2="30.3125"/>
<linearGradient gradientTransform="matrix(-3.463238,0,0,2.9810472,168.28173,-4.56555)" xlink:href="#linearGradient7340" id="linearGradient3276" y1="21" x1="32.8125" y2="26.204767" gradientUnits="userSpaceOnUse" x2="32.8125"/>
<linearGradient id="linearGradient3975">
<stop offset="0" style="stop-color:#e5e5e5" id="stop3977"/>
<stop offset="1" style="stop-color:#e5e5e5;stop-opacity:0" id="stop3979"/>
</linearGradient>
<linearGradient id="linearGradient7422">
<stop offset="0" style="stop-color:#edd400" id="stop7424"/>
<stop offset="1" style="stop-color:#edd400;stop-opacity:0" id="stop7426"/>
</linearGradient>
<linearGradient id="linearGradient3662">
<stop offset="0" style="stop-color:#8c24b6" id="stop3664"/>
<stop offset="1" style="stop-color:#5e2c73" id="stop3666"/>
</linearGradient>
<linearGradient gradientTransform="matrix(1.6868637,0,0,1.8309408,23.417944,-22.625058)" xlink:href="#linearGradient8265-821-176-38-919-66-249-3-3" id="linearGradient3264" y1="20.22348" x1="24.647728" y2="47.069637" gradientUnits="userSpaceOnUse" x2="24.647728"/>
<linearGradient gradientTransform="matrix(-1.6858149,0.05936366,-0.0646728,-1.8298025,109.34285,149.75763)" xlink:href="#linearGradient3977" id="linearGradient3267" y1="17.349781" x1="25.34119" y2="47.050739" gradientUnits="userSpaceOnUse" x2="24.065233"/>
<linearGradient id="linearGradient3977">
<stop offset="0" style="stop-color:#241e1e;stop-opacity:.255" id="stop3980"/>
<stop offset="1" style="stop-color:#fff;stop-opacity:0" id="stop3982"/>
</linearGradient>
<linearGradient id="linearGradient8265-821-176-38-919-66-249-3-3">
<stop offset="0" style="stop-color:#fff;stop-opacity:.2" id="stop2687-7-2"/>
<stop offset="1" style="stop-color:#fff;stop-opacity:0" id="stop2689-1-8"/>
</linearGradient>
<radialGradient fx="29.830509" fy="64.81356" cx="29.830509" cy="64.81356" gradientTransform="matrix(1,0,0,0.91007627,0,5.8282773)" xlink:href="#linearGradient3662" id="radialGradient3262" r="63.330509" gradientUnits="userSpaceOnUse"/>
</defs>
<g id="g3256" transform="translate(4.6200835e-4,-2.6807811e-4)">
<g id="g3252" transform="matrix(1.0434783,0,0,1.0434783,-3.3979793,-3.003088)">
<g style="stroke:none">
<path style="fill:url(#radialGradient3262)" id="path3218" d="m 91.661,64.8136 c 0,31.0028 -27.6825,56.1356 -61.8305,56.1356 -34.148,0 -61.8305,-25.1328 -61.8305,-56.1356 0,-31.0028 27.6825,-56.1356 61.8305,-56.1356 34.148,-3.55271e-15 61.8305,25.1328 61.8305,56.1356 z " transform="matrix(0.92996159,0,0,1.0224126,37.345433,-1.876293)"/>
<path style="fill:url(#linearGradient3264)" id="path3996" d="m 40.7639,12.5543 c -0.65693,0.266393 -2.30358,1.49071 -5.08145,3.21651 -2.37363,1.47467 -4.32723,3.76066 -4.70005,4.12051 -0.67139,0.647989 -1.93172,1.7926 -3.14137,3.21221 -1.57047,1.84306 -3.10468,3.70248 -3.10457,3.70656 l -2.4084,3.6553 -1.3326,2.9694 c -0.158485,0.848444 -1.10415,3.96133 -1.30775,5.74316 -0.223233,1.9536 -0.477681,4.03932 -0.406483,5.02949 0.108535,1.50952 0.484777,3.92768 0.876697,5.40204 0.529107,1.99049 2.70284,5.62996 2.75234,5.61991 l 3.8967,-6.8744 3.5859,-5.1981 2.4357,-2.5195 2.7617,-2.2645 2.7394,-1.9527 2.8602,-2.0186 4.9591,-2.3779 6.3485,-2.1415 5.4048,-1.0622 7.0413,-.6604 6.3066,.6867 5.4917,1.0374 4.9933,1.9036 4.7254,2.1199 4.9622,2.9375 4.3545,3.6198 4.1054,3.8925 c 0.156256,-0.02958 7.44213,10.8922 7.44832,10.7197 l 1.1091,-1.5027 .8033,-1.3187 .4176,-1.4719 .5118,-1.9797 .4097,-3.0676 .1392,-2.374 -.1614,-2.5911 -.4225,-2.6718 -.5509,-2.6822 -.8078,-2.8992 -1.3923,-2.8391 c -0.47198,-0.944505 -1.26091,-2.37402 -2.25894,-3.71195 -0.42275,-0.566718 -1.13581,-1.47106 -1.54035,-2.0109 -0.52026,-0.694285 -0.66184,-0.928558 -1.10359,-1.46162 -0.11393,-0.137475 -0.82809,-1.01398 -1.27764,-1.58267 -0.40374,-0.510739 -1.24298,-1.6229 -1.78246,-2.24167 -1.05927,-1.21495 -2.13183,-1.80375 -3.63956,-2.79252 -1.231,-0.807317 -2.90937,-1.6317 -4.01057,-2.21376 -1.02983,-0.544342 -2.3164,-1.15051 -2.72106,-1.33377 l -2.7871,-1.325 -3.6179,-1.2574 -3.5556,-1.0892 -4.5758,-.9988 -3.5885,-.3839 -3.1749,-.2138 -3.475,-.0358 -3.6249,.1954 -3.2006,.2698 -2.5975,.3534 -2.9301,.7035 -2.0571,.5333 -2.1464,.5861 -2.7096,1.0463 z "/>
<path style="fill:url(#linearGradient3267)" id="path4000" d="m 92.4978,114.5617 c 0.57759,-0.42814 1.62913,-0.64434 3.57955,-2.11986 2.22821,-1.68567 4.7985,-3.8363 5.15838,-4.20904 0.64808,-0.67121 2.91496,-2.72966 3.44802,-3.52894 0.64682,-0.9698 1.98878,-3.51502 1.98852,-3.51909 l 1.8845,-4.5229 1.2269,-3.0144 c 0.12841,-0.8535 0.96354,-3.99772 1.10407,-5.78562 0.15408,-1.96024 0.33471,-4.05362 0.22857,-5.04067 -0.16178,-1.50477 -0.6232,-3.90817 -1.06696,-5.36783 -0.59908,-1.97063 -2.90002,-5.53134 -2.94913,-5.51955 l -3.6514,7.0072 -3.4001,5.3211 -2.3452,2.6036 -2.68,2.3602 -2.6687,2.0479 -2.7871,2.118 -4.872,2.5509 -6.2689,2.3636 -5.3639,1.2517 -7.0136,.9078 -6.327,-.4643 -5.5249,-.8435 -5.0574,-1.7267 -4.7973,-1.9523 -5.0629,-2.7611 -4.4797,-3.4643 -4.2404,-3.7456 c -0.155122,0.03511 -7.82222,-10.6235 -7.82232,-10.4509 l -1.0554,1.5408 -.7562,1.3462 -.3654,1.4857 -.4415,1.9965 -.3011,3.0801 -.0553,2.3774 .2528,2.5838 .5166,2.6553 .6453,2.6612 .9097,2.869 1.4917,2.7883 c 0.50506,0.9273 1.34399,2.81887 1.79874,3.63015 0.345632,0.6166 0.793779,1.62645 1.21713,2.15172 0.544468,0.67554 0.890879,1.39538 1.35118,1.91257 0.118717,0.13339 0.765065,0.88607 1.23443,1.43859 0.421536,0.4962 1.7267,1.15473 2.35212,1.68685 0.806566,0.68621 2.5875,1.62946 4.12922,2.56456 1.25875,0.7635 2.47637,1.45434 3.58525,2.02168 1.75792,0.89941 3.41247,1.58402 3.82334,1.75293 l 4.3829,1.6588 2.5568,.635 2.6162,.6276 2.97,.6651 3.3098,.3659 4.0984,.2434 2.7948,.1999 2.8236,-.0901 2.5026,-.5502 2.6709,-.2849 2.0733,-.4997 2.9037,-.4282 3.4796,-1.1229 4.4366,-1.4709 3.0277,-1.3916 z "/>
</g>
<g style="fill-rule:evenodd">
<g style="stroke-miterlimit:0;stroke-linecap:square;stroke-width:0;stroke:#5f8b50;stroke-opacity:.345">
<path style="fill:url(#linearGradient3271)" id="path4006" d="m 111.7288,71.0508 c 0,18.2722 -15.4196,33.0847 -34.4407,33.0847 -19.0211,0 -34.4407,-14.8125 -34.4407,-33.0847 0,-18.2722 15.4196,-33.0847 34.4407,-33.0847 18.4917,0 33.6832,14.0278 34.4138,31.7776" transform="matrix(1.175219,0,0,1.2240614,-25.629857,-22.706097)"/>
<path style="fill:url(#linearGradient3274)" id="path4008" d="m 111.7288,71.0508 c 0,18.2722 -15.4196,33.0847 -34.4407,33.0847 -19.0211,0 -34.4407,-14.8125 -34.4407,-33.0847 0,-18.2722 15.4196,-33.0847 34.4407,-33.0847 18.4917,0 33.6832,14.0278 34.4138,31.7776" transform="matrix(1.175219,0,0,1.2240614,-25.679183,-22.701619)"/>
</g>
<g style="stroke:none">
<path style="fill:#fff" id="path4012" d="m 70.4453,49.4767 c 1.14509,0 2.16453,0.738534 2.16453,1.87385 v 1.87387 c 0,0.804605 1.16316,1.87389 2.16451,1.87389 h 4.9784 c 2.03502,0 3.6797,1.75615 3.6797,3.50784 v 17.6852 c 0,1.75168 -1.64468,3.16735 -3.6797,3.16735 h -27.273 c -2.03502,0 -3.6797,-1.41567 -3.6797,-3.16735 v -17.6852 c 0,-1.75169 1.64468,-3.50784 3.6797,-3.50784 h 4.97841 c 0.83365,0.04829 2.16452,-0.941127 2.16452,-1.87389 v -1.87387 c 0,-1.04289 1.01944,-1.87385 2.16452,-1.87385 h 8.6581 z "/>
<path style="fill:url(#linearGradient3276)" id="path4014" d="m 70.4453,47.6028 c 1.14509,0 2.16453,0.738551 2.16453,1.87389 v 1.87385 c 0,0.804604 1.16316,1.87387 2.16451,1.87387 h 4.9784 c 2.03502,0 3.6797,1.75617 3.6797,3.50784 v 17.6852 c 0,1.75168 -1.64468,3.16736 -3.6797,3.16736 h -27.273 c -2.03502,0 -3.6797,-1.41567 -3.6797,-3.16736 v -17.6852 c 0,-1.75167 1.64468,-3.50784 3.6797,-3.50784 h 4.97841 c 0.83365,0.0483 2.16452,-0.941111 2.16452,-1.87387 v -1.87385 c 0,-1.04289 1.01944,-1.87389 2.16452,-1.87389 h 8.6581 z "/>
</g>
</g>
<path style="fill:none;stroke:url(#linearGradient3278);stroke-linecap:round" id="path4016" d="m 75.7971,71.9631 0,-5.4184 m -6.4025,5.4184 0,-5.4184 m -6.453,5.4184 0,-5.4184 m -6.5004,5.4184 0,-5.4184"/>
</g>
</g>
</svg>
