<svg xmlns="http://www.w3.org/2000/svg" viewBox="0 0 128 128" xmlns:xlink="http://www.w3.org/1999/xlink">
<defs>
<linearGradient id="linearGradient4177-8-6-2">
<stop offset="0" stop-color="#1f95e5" stop-opacity=".923"/>
<stop offset=".508" stop-color="#6ab8ec"/>
<stop offset="1" stop-color="#1f95e5"/>
</linearGradient>
<linearGradient id="linearGradient3852-9-3">
<stop offset="0" stop-color="#2b2b2b"/>
<stop offset="1" stop-color="#c9c9c9" stop-opacity="0"/>
</linearGradient>
<linearGradient id="linearGradient3805-1-3">
<stop offset="0" stop-color="#060000"/>
<stop offset="1" stop-color="#060000" stop-opacity="0"/>
</linearGradient>
<linearGradient gradientTransform="matrix(.63992 0 0 .54284 46.67152 32.68752)" xlink:href="#linearGradient3805-1-3" id="linearGradient3244" y1="97.048" x1="62.646" y2="119.611" gradientUnits="userSpaceOnUse" x2="70.014"/>
<linearGradient gradientTransform="matrix(.12771 0 0 .11886 21.0576 19.90569)" xlink:href="#linearGradient3852-9-3" id="linearGradient3242" y1="744.742" x1="444.954" y2="724.27" gradientUnits="userSpaceOnUse" x2="444.963"/>
<linearGradient gradientTransform="matrix(.12771 0 0 .11886 -72.2233 10.36656)" xlink:href="#linearGradient3800-92-6" id="linearGradient3236" y1="731.371" x1="849.815" y2="730.628" gradientUnits="userSpaceOnUse" x2="1501.119"/>
<linearGradient gradientTransform="matrix(-.12771 0 0 .11886 227.83051 10.22466)" xlink:href="#linearGradient3830-5-7" id="linearGradient3240" y1="597.525" x1="1215.911" y2="738.4" gradientUnits="userSpaceOnUse" x2="1032.716"/>
<linearGradient id="linearGradient3800-92-6">
<stop offset="0" stop-color="#a9a9a9"/>
<stop offset=".498" stop-color="#fff"/>
<stop offset="1" stop-color="#a9a9a9"/>
</linearGradient>
<linearGradient id="linearGradient3830-5-7">
<stop offset="0"/>
<stop offset="1" stop-color="#c9c9c9" stop-opacity="0"/>
</linearGradient>
<linearGradient gradientTransform="matrix(.12771 0 0 .11886 -72.19634 10.24114)" xlink:href="#linearGradient3830-5-7" id="linearGradient3238" y1="597.525" x1="1215.911" y2="738.4" gradientUnits="userSpaceOnUse" x2="1032.716"/>
<linearGradient gradientTransform="matrix(-.63992 0 0 .54284 108.71252 32.78786)" xlink:href="#linearGradient3805-1-3" id="linearGradient3246" y1="97.048" x1="62.646" y2="119.611" gradientUnits="userSpaceOnUse" x2="70.014"/>
<linearGradient gradientTransform="matrix(.12771 0 0 .11886 -72.2233 10.36656)" xlink:href="#linearGradient3948-0-0" id="linearGradient3248" y1="864.807" x1="1175" y2="983.108" gradientUnits="userSpaceOnUse" x2="1174.428"/>
<linearGradient gradientTransform="scale(.735 1.36054)" xlink:href="#linearGradient9478-2" id="linearGradient3256" x1="2062.785" gradientUnits="userSpaceOnUse" x2="2170.748"/>
<linearGradient xlink:href="#linearGradient4177-8-6-2" id="linearGradient3258" x1="1517.842" gradientUnits="userSpaceOnUse" x2="1568.493"/>
<linearGradient gradientTransform="scale(.735 1.36054)" id="linearGradient9478-2" xlink:href="#linearGradient3786-0-1" x1="2062.785" gradientUnits="userSpaceOnUse" x2="2170.748">
<stop offset="0" stop-color="#ffb100"/>
<stop offset=".529" stop-color="#ffd578"/>
<stop offset="1" stop-color="#ffb100"/>
</linearGradient>
<linearGradient id="linearGradient3990-8-0">
<stop offset="0" stop-color="#7c7c7c" stop-opacity="0"/>
<stop offset=".509" stop-color="#e0e0e0"/>
<stop offset="1" stop-color="#7c7c7c" stop-opacity="0"/>
</linearGradient>
<linearGradient id="linearGradient3948-0-0">
<stop offset="0" stop-color="#1c0303"/>
<stop offset="1" stop-color="#3b3b3b" stop-opacity="0"/>
</linearGradient>
<linearGradient gradientTransform="matrix(.21759 0 0 .25166 -17.06817 -70.56)" xlink:href="#linearGradient3990-8-0" id="linearGradient3254" y1="723.539" x1="451.326" y2="723.466" gradientUnits="userSpaceOnUse" x2="421.742"/>
<linearGradient gradientTransform="matrix(.12771 0 0 .11886 -72.2233 10.36656)" xlink:href="#linearGradient3970-8-9" id="linearGradient3250" y1="852.459" x1="1148.903" y2="918.121" gradientUnits="userSpaceOnUse" x2="1127.334"/>
<linearGradient gradientTransform="matrix(-.12771 0 0 .11886 227.88611 10.36377)" xlink:href="#linearGradient3970-8-9" id="linearGradient3252" y1="852.459" x1="1148.903" y2="918.121" gradientUnits="userSpaceOnUse" x2="1127.334"/>
<linearGradient id="linearGradient3970-8-9">
<stop offset="0" stop-color="#150101"/>
<stop offset="1" stop-color="#200101" stop-opacity="0"/>
</linearGradient>
<linearGradient id="linearGradient4177-2-5">
<stop offset="0" stop-color="#e51f1f"/>
<stop offset=".508" stop-color="#ff6a6a"/>
<stop offset="1" stop-color="#e51f1f"/>
</linearGradient>
<linearGradient gradientTransform="matrix(-1.26678 -.2641 -.14677 .70436 426.58378 -2.35337)" xlink:href="#linearGradient4983-9-3" id="linearGradient3103" y1="188.891" x1="208.469" y2="190.01" gradientUnits="userSpaceOnUse" x2="223.217"/>
<linearGradient gradientTransform="matrix(1.34635 0 0 1.37162 -.96051 -2.70744)" xlink:href="#ButtonShadow-0-0-1" id="linearGradient3097" y1="88.397" x1="55.361" y2="31.652" gradientUnits="userSpaceOnUse" x2="54.949"/>
<linearGradient xlink:href="#linearGradient4177-2-5" id="linearGradient3234" x1="1517.842" gradientUnits="userSpaceOnUse" x2="1568.493"/>
<linearGradient gradientTransform="matrix(1.27869 -.23518 .14815 .62722 -301.53163 10.55997)" xlink:href="#linearGradient4983-9-3" id="linearGradient3101" y1="188.891" x1="208.469" y2="190.01" gradientUnits="userSpaceOnUse" x2="223.217"/>
<linearGradient gradientTransform="matrix(1.00587 0 0 .99417 100 0)" id="ButtonShadow-0-0-1" y1="92.54" y2="7.017" x2="0" gradientUnits="userSpaceOnUse">
<stop offset="0"/>
<stop offset="1" stop-color="#1b1b1b" stop-opacity=".588"/>
</linearGradient>
<linearGradient gradientTransform="matrix(2.63353 0 0 2.88654 -134.39539 -4.37964)" xlink:href="#linearGradient2902" id="linearGradient3090" y1="13.183" y2="16.19" gradientUnits="userSpaceOnUse" x2="0"/>
<linearGradient gradientTransform="matrix(1.36863 0 0 1.40062 -1.98984 -4.24264)" xlink:href="#ButtonShadow-0-0-1" id="linearGradient3095" y1="88.397" x1="55.361" y2="31.652" gradientUnits="userSpaceOnUse" x2="54.949"/>
<linearGradient gradientTransform="matrix(1.3408 0 0 1.33 -68.673 -1.51)" id="linearGradient2902" y1="13.183" y2="16.19" gradientUnits="userSpaceOnUse" x2="0">
<stop offset="0" stop-color="#f9f9f9"/>
<stop offset="1" stop-color="#c9c9c9"/>
</linearGradient>
<linearGradient id="linearGradient20184-8">
<stop offset="0" stop-color="#595959"/>
<stop offset="1" stop-color="#4c4c4c"/>
</linearGradient>
<linearGradient gradientTransform="matrix(1.35867 0 0 1.51534 -1.07599 -7.69141)" xlink:href="#linearGradient20184-8" id="linearGradient3092" y1="21.877" x1="8.086" y2="22.227" gradientUnits="userSpaceOnUse" x2="37.974"/>
<linearGradient id="linearGradient4983-9-3">
<stop offset="0"/>
<stop offset="1" stop-opacity="0"/>
</linearGradient>
<linearGradient id="linearGradient4187-6-4">
<stop offset="0" stop-color="#ffb100"/>
<stop offset=".442" stop-color="#ffd578"/>
<stop offset="1" stop-color="#ffb100"/>
</linearGradient>
<linearGradient gradientTransform="matrix(3.0744 0 0 1.77356 -9.81197 38.15066)" xlink:href="#linearGradient2890-6" id="linearGradient3105" y1="49.629" x1="22.935" y2="36.658" gradientUnits="userSpaceOnUse" x2="22.809"/>
<linearGradient gradientTransform="matrix(.11427 0 0 .09594 -172.2143 18.46823)" xlink:href="#linearGradient3786-0-1" id="linearGradient3230" x1="2027.129" gradientUnits="userSpaceOnUse" x2="2349.501"/>
<linearGradient xlink:href="#linearGradient3786-0-1" id="linearGradient3232" x1="1516.154" gradientUnits="userSpaceOnUse" x2="1595.507"/>
<linearGradient id="linearGradient3786-0-1">
<stop offset="0" stop-color="#ffb100"/>
<stop offset=".505" stop-color="#ffd578"/>
<stop offset="1" stop-color="#ffb100"/>
</linearGradient>
<linearGradient gradientTransform="matrix(.11857 0 0 .09594 -103.31479 71.70167)" xlink:href="#linearGradient4187-6-4" id="linearGradient3228" y1="-64.885" x1="1254.131" y2="-62.497" gradientUnits="userSpaceOnUse" x2="1856.328"/>
<linearGradient gradientTransform="matrix(1.5348 0 0 1.327 -5.0206 -.04854)" id="linearGradient2890-6" y1="49.629" y2="36.658" x1="22.935" gradientUnits="userSpaceOnUse" x2="22.809">
<stop offset="0" stop-color="#0a0a0a" stop-opacity=".498"/>
<stop offset="1" stop-color="#0a0a0a" stop-opacity="0"/>
</linearGradient>
<linearGradient id="linearGradient4329-1-1">
<stop offset="0" stop-color="#ffb100"/>
<stop offset=".497" stop-color="#ffd578"/>
<stop offset="1" stop-color="#ffb100"/>
</linearGradient>
<linearGradient gradientTransform="matrix(3.0744 0 0 1.77356 -9.58261 38.09777)" xlink:href="#linearGradient2890-6" id="linearGradient3107" y1="49.629" x1="22.935" y2="36.658" gradientUnits="userSpaceOnUse" x2="22.809"/>
<linearGradient gradientTransform="matrix(.6102 0 0 .48574 78.55362 -37.06513)" xlink:href="#linearGradient4329-1-1" id="linearGradient3226" y1="206.823" x1="-100.862" y2="206.127" gradientUnits="userSpaceOnUse" x2="98.587"/>
<radialGradient cx="23.795" cy="51.561" gradientTransform="matrix(2.293 .01088 -.00922 1.91372 -23.29712 -26.43172)" id="radialGradient3099" r="45.415" gradientUnits="userSpaceOnUse">
<stop offset="0" stop-color="#f6a220"/>
<stop offset="1" stop-color="#d06a0e"/>
</radialGradient>
</defs>
<g transform="translate(.00035 -6.99961)">
<path fill="url(#linearGradient3090)" stroke="#bebebe" stroke-linejoin="round" stroke-linecap="round" stroke-width="2.065" d="m10.8613,19.7534c-1.8178,.0221-3.2304,1.4227-3.2304,3.3217 0,15.9172 .0845,28.1123 0,42.5776 3.7802,0 111.7521-10.7128 111.7521-15.3095v-18.6215c0-1.899-1.263-3.3423-3.0818-3.3206h-53.3423c-5.3916,0-9.2138-8.6792-13.1676-8.6792l-38.9294,.0315z"/>
<path fill="url(#linearGradient3092)" display="block" d="m15.2794,23.688h32.5625a2.6755,2.1623 0 0,1 2.6755,2.1624v.279a2.6755,2.1623 0 0,1 -2.6755,2.1623h-32.5625a2.6755,2.1623 0 0,1 -2.6755-2.1623v-.279a2.6755,2.1623 0 0,1 2.6755-2.1624"/>
<path opacity=".1" fill="url(#linearGradient3095)" d="m3.1223,42.5672c-2.3975,.3356-3.02,3.5076-2.9643,5.4912 .474,8.2126 2.7909,53.9794 3.1315,61.8162-.0544,1.9825 5.0941,7.6572 7.8496,7.6928l104.7895,.1793c4.4466-.0941 8.7822-5.4378 8.8092-8.4038 1.1059-22.9971 2.7284-65.5969 3.069-73.1851-.4083-1.3207-3.6008-3.4169-5.0549-3.5844l-64.6117,.0332-12.2585,10.0236-41.2388-.3312z"/>
<path opacity=".15" fill="url(#linearGradient3097)" d="m3.9041,43.3176c-2.9743,.3287-2.827,3.2498-2.7517,5.1931 .709,10.9351 2.8843,53.7561 3.207,59.9067 .1953,3.1456 4.4035,8.1121 7.2241,8.1469l103.4543,.1917c4.3742,.1532 8.3862-5.1445 8.6617-7.9813 .2025-3.0048 2.6619-65.1855 3.1111-72.0935-.4897-1.8188-3.1023-3.171-5.0605-3.335l-63.3734-.0532-12.245,9.9018-40.3491,.0334z"/>
<path fill="url(#radialGradient3099)" stroke="#c58532" stroke-width="1.301" d="m5.0006,44.6051c-2.8771,.3115-1.96,3.4604-1.9697,5.3453 1.0529,21.3413 1.9336,36.0292 2.9798,57.3705 .1889,3.8164 3.4032,7.6878 6.988,7.7208l100.455,.2022c4.2313,.1452 8.4342-3.1777 8.7007-8.372 1.0523-21.3432 1.8858-46.8796 2.932-68.2228 .0792-2.9777-2.8626-3.7614-5.0769-3.8928l-59.7557-.1331c-1.0716-.0311-2.6399,.8389-3.5308,1.6905l-10.1608,8.2915h-41.5615z"/>
<path opacity=".4" fill="url(#linearGradient3101)" d="m10.6708,43.9641 3.2114,71.7768c-2.7269,.1976-4.4404-.9368-6.1111-2.6771-1.3278-1.3831-2.2565-3.9353-2.3819-5.068l-3.0284-59.3947c-.017-.2297-.0757-.8821-.0927-1.3928-.0089-.2684 .0116-.4976 .0169-.6057 .0378-.7627 .0786-1.8662 1.2926-2.4036 .6081-.2692 .6689-.2249 2.8507-.2179 1.1197,.0035 2.4867-.0235 4.2424-.017z"/>
<path opacity=".4" fill="url(#linearGradient3103)" d="m117.3301,33.6952-3.2224,82.0682c2.4618,.2219 4.7838-1.1712 6.3771-3.0405 1.2324-1.4459 2.4565-3.9404 2.3103-5.4654l2.8913-66.8074c.0256-.3935 .0479-1.7794 .0517-2.1321 .0293-2.7018-2.8401-4.1144-5.1261-4.1399-1.1094-.0124-1.5426-.4902-3.2819-.4828z"/>
<path opacity=".4" fill="url(#linearGradient3105)" d="m5.025,64.7548 119.5935,.0447c1.7047,.0006-.1687,1.1069-.1687,2.0892l-1.6982,41.189c0,.53-1.4637,4.2552-3.2763,5.7768-1.5471,1.2987-3.8954,2.051-6.2194,2.0477l-100.4104-.1422c-.7886-.001-3.2118-.7481-4.7327-2.3056-1.7639-1.8063-2.4973-4.2126-2.6715-5.2447l-2.2063-41.6454c0-.9837 .0875-1.8096 1.7906-1.8096z"/>
<path opacity=".4" fill="url(#linearGradient3107)" d="m5.2544,64.7019 118.7886,.0894c1.7047,.001 .1443,1.0622 .1443,2.0445l-1.6088,41.6362c-.0447,1.4244-.7035,2.69-2.6056,4.8377-1.3393,1.5122-3.4931,2.5439-6.4877,2.5396l-100.4103-.1422c-.7886-.001-3.4331-.4635-4.9541-2.021-1.7639-1.8063-2.5181-4.0229-2.6923-5.0549l-1.9642-42.1197c0-.9837 .0875-1.8096 1.7906-1.8096z"/>
</g>
<g transform="translate(-.00016 -7)">
<path fill="#63247c" stroke="url(#linearGradient3226)" stroke-width="2.722" d="m59.3706,46.0563c-3.4903,.0122-5.3619,1.02-6.5124,1.4908-7.7003,4.1749-8.6859,8.4062-12.5944,14.1893-.371,.5488-.8153,1.0635-.5912,2.2921 .1542,.7956 .4998,1.0408 .7818,1.442l10.6422,15.3888c3.9583,.0544 7.6511,.0404 10.8547,.0314l9.4805-.3896 6.4259,.2607 7.2226,.2005 6.1062-.0426c7.2983-.0113 8.5102,.2561 12.7559,.1291l11.6233-15.5328c.2801-.4013 .6098-.6465 .7627-1.442 .2226-1.2286-.2294-1.7173-.5721-2.2769-3.6856-6.0201-5.5202-12.3238-14.4159-14.9819-8.0584-2.4716-15.6385,1.9687-23.1683,7.0887-6.1599-4.1621-12.3463-7.8995-18.8016-7.8477z"/>
<path fill="url(#linearGradient3228)" d="m77.2645,56.5611a1.5864,1.4144 0 0,1 1.5864,1.4144v18.6678a1.5864,1.4144 0 0,1 -1.5864,1.4144 1.5864,1.4144 0 0,1 -1.5864-1.4144v-18.6678a1.5864,1.4144 0 0,1 1.5864-1.4144"/>
<path fill="#63247c" stroke="url(#linearGradient3230)" stroke-width="2.715" d="m77.6253,34.4107-15.0609,12.4333 14.8277,17.2725 15.7326-17.0461z"/>
<path fill="url(#linearGradient3232)" d="m1595.5071,295.4791c0,40.562-17.7639,73.444-39.6767,73.444-21.9128,0-39.6766-32.882-39.6766-73.444 0-40.562 17.7638-73.444 39.6766-73.444 21.9128,0 39.6767,32.882 39.6767,73.444z" transform="matrix(.13118 0 0 .09594 -126.23357 19.93951)"/>
<path fill="url(#linearGradient3234)" d="m1568.4932,239.763c0,27.5076-11.3386,49.8068-25.3255,49.8068-13.9869,0-25.3255-22.2993-25.3255-49.8068 0-27.5076 11.3386-49.8068 25.3255-49.8068 13.9869,0 25.3255,22.2993 25.3255,49.8068z" transform="matrix(.11857 0 0 .09594 -105.10743 25.44669)"/>
<path fill="url(#linearGradient3236)" stroke="#919191" stroke-width="1.784" d="m89.2889,69.4309c-.2808,.0008-.5556,.0172-.8181,.0557-2.4117,.1241-3.4564,.6966-4.2224,1.0957-1.0702,.6554-1.8248,1.1716-2.9134,2.2434-.8367,.8504-1.4821,1.6419-1.8877,2.3586-.8222,1.1648-1.4124,2.546-1.9675,3.9594-.625-1.412-1.2815-2.7921-2.1671-3.9408-.4369-.7006-1.1179-1.4665-1.9915-2.2843-1.1349-1.0293-1.9109-1.5181-3.0091-2.132-.783-.3695-1.8551-.9005-4.2703-.9323-1.4078-.1514-3.0776,.2744-4.7372,.936-1.7662,.8592-4.0675,1.9233-5.8307,4.7691-.8957,1.3959-1.5234,2.8289-1.6961,4.3308l-1.3609,.9583c.7147,6.2375 1.6063,12.4346 3.0291,18.5119 1.1326,4.4186 3.0274,7.5902 4.8011,10.9608 2.4061,3.7778 4.698,7.2017 7.6266,10.2551 2.0585,2.0193 3.776,3.7652 6.3674,4.8845 1.2441,.621 2.9512,.8552 4.1866,.8434 1.347,.0424 2.9978-.2761 4.2903-.9864 2.5398-1.2174 4.1962-2.9869 6.1639-5.0832 2.7914-3.1628 4.9304-6.6671 7.1677-10.5337 1.6234-3.4356 3.3775-6.681 4.3142-11.1391 1.1534-6.1266 1.7681-11.4355 2.207-17.6951l-1.2528-.8261c-.2389-1.494-1.0792-3.8971-2.0357-5.2576-1.8873-2.776-4.2316-3.7516-6.0343-4.5426-1.371-.4855-2.7421-.8135-3.959-.8097z"/>
<path fill="url(#linearGradient3238)" d="m60.9841,82.8873c.7932-.9095 1.9727-2.0123 3.9182-2.2809 1.3903-.196 2.8949-.1634 4.0375,.3401 1.426,.566 2.6782,1.6172 3.9035,2.7435 1.0051,1.1588 1.9976,2.3701 2.8031,4.3647 .7022,1.9726 1.3487,4.1049 1.065,13.2946-.0095,1.0744-.0465,2.0556-.2684,2.851-.2413,.9244-.4232,1.4737-.8505,2.517l-1.8867-1.4047c-.6349-.4569-1.1247-.8986-1.9814-1.5846-.5251-.3419-.931-.8501-1.2529-1.4757-.1777-.5794-.1951-1.0658 .1301-1.8324 .2365-.5944 .8008-.9599 1.2175-1.4286 .9775-1.0917 1.6497-2.3751 2.1312-3.8361 .393-1.0392 .632-2.5224 .4274-3.8397-.5015-2.8142-1.2697-3.7952-2.1143-4.9728-.9235-1.0873-1.5807-2.0089-2.6479-2.9098-.7917-.6594-1.3801-.8932-2.5401-1.198-1.0961-.1645-2.1921-.2057-3.2882,.1003-1.2484,.5021-1.9395,.8461-2.4442,1.4133-.5991,.4855-1.5457,1.8412-1.9771,2.3833 .1368-.8555 .9804-2.5759 1.6183-3.2448z"/>
<path fill="url(#linearGradient3240)" d="m94.6501,82.8708c-.7932-.9095-1.9727-2.0123-3.9182-2.2809-1.3903-.196-2.8949-.1634-4.0375,.34-1.426,.566-2.6782,1.6172-3.9035,2.7435-1.0051,1.1588-1.9976,2.3701-2.8031,4.3647-.7022,1.9726-1.3487,4.1049-1.065,13.2946 .0095,1.0744 .0465,2.0556 .2684,2.851 .2413,.9244 .4232,1.4737 .8505,2.517l1.8867-1.4047c.6349-.4568 1.1247-.8986 1.9814-1.5846 .5251-.3419 .931-.8501 1.2529-1.4757 .1777-.5794 .1951-1.0659-.1301-1.8324-.2365-.5944-.8008-.9599-1.2175-1.4286-.9775-1.0917-1.6497-2.3751-2.1312-3.8361-.393-1.0392-.632-2.5224-.4274-3.8397 .5015-2.8142 1.2697-3.7952 2.1143-4.9728 .9235-1.0873 1.5807-2.0089 2.6479-2.9098 .7918-.6594 1.3801-.8932 2.5401-1.198 1.0961-.1645 2.1921-.2057 3.2882,.1003 1.2484,.5021 1.9394,.8461 2.4442,1.4133 .5991,.4855 1.5457,1.8412 1.9771,2.3833-.1368-.8555-.9804-2.5759-1.6183-3.2448z"/>
<path fill="url(#linearGradient3242)" d="m75.5205,106.5981c.4372,.9284 1.0841,1.292 2.3671,1.2824 1.2243-.002 1.6848-.292 2.277-1.1778-1.9552-1.9282-2.5273-1.8874-4.644-.1047z"/>
<path fill="url(#linearGradient3244)" d="m96.9658,87.869c-2.216-1.3409-5.0866-2.2588-8.5561-2.0737-5.7965,.7913-6.1906,4.0719-6.5967,6.7554 3.4093,.9338 5.5079,.7113 8.502,.3158 3.339-.6864 4.9368-2.9265 6.6508-4.9974z"/>
<path fill="url(#linearGradient3246)" d="m58.4182,87.9693c2.216-1.3409 5.0866-2.2588 8.5561-2.0737 5.7965,.7913 6.1906,4.0719 6.5967,6.7554-3.4093,.9337-5.5079,.7113-8.502,.3158-3.339-.6864-4.9368-2.9265-6.6508-4.9974z"/>
<path fill="url(#linearGradient3248)" d="m88.275,109.5331c-1.9609,1.7272-2.8866,2.2008-4.4978,3.1571-1.4103,.7562-2.4765,1.0876-3.4676,1.4063-.8191,.2731-1.5797,.4203-2.3989,.5076l-.277-.016c-.8259-.0873-1.4435-.1964-2.2694-.4717-.991-.3187-2.0977-.6626-3.508-1.4188-1.6112-.9564-2.5369-1.4299-4.4978-3.1571l1.2571,1.7048 2.5542,3.3688c.9586,1.1213 2.399,2.1377 4.3461,2.6594 .9194,.2269 1.3231,.2151 2.0692,.2623l.3145-.004c.7498-.0476 1.2951-.0369 2.2179-.2646 1.9471-.5217 3.3875-1.5382 4.3461-2.6594l2.5542-3.3726 1.2571-1.7011z"/>
<path fill="url(#linearGradient3250)" d="m77.829,113.9644 .0173,.6773c-1.0639-.0892-2.1004-.3554-3.2027-.7052-1.164-.3674-1.7939-.6498-2.8885-1.1762-1.6545-.7759-2.9473-2.0636-4.3426-3.1411 1.5262,.995 2.9328,2.0457 4.6391,2.6143 1.1992,.4077 2.03,.4851 3.0456,.7024 .8963,.1522 1.9074,.5421 2.7319,1.0285z"/>
<path fill="url(#linearGradient3252)" d="m77.81,113.9705 .0066,.6684c1.0639-.0891 2.1004-.3554 3.2027-.7051 1.164-.3675 1.7939-.6498 2.8885-1.1762 1.6545-.7759 2.9473-2.0636 4.3426-3.1411-1.5262,.995-2.9328,2.0457-4.6391,2.6143-1.1992,.4077-2.03,.4852-3.0456,.7024-.8963,.1522-1.9313,.5509-2.7557,1.0373z"/>
<path fill="#ff0909" d="m1182.2791,873.7977 .093,.1102 .1437-.0145-.076,.1229 .058,.1322-.1403-.0342-.1078,.0962-.011-.144-.1248-.0727 .1336-.0548z" transform="matrix(.12771 0 0 .11886 -72.2233 10.36656)"/>
<path fill="url(#linearGradient3254)" d="m76.9704,108.5039c-.798,1.3582-.914,3.1557-1.214,4.6009 .89,.243 1.4681,.4784 2.0833,.863 .7211-.398 1.3407-.677 2.0695-.8518-.0614-1.6447-.4984-3.2421-1.2502-4.6121-.4842-.8139-1.2831-.7785-1.6886,0z"/>
<path fill="url(#linearGradient3256)" d="m1595.5071,295.4791c0,40.562-17.7639,73.444-39.6767,73.444-21.9128,0-39.6766-32.882-39.6766-73.444 0-40.562 17.7638-73.444 39.6766-73.444 21.9128,0 39.6767,32.882 39.6767,73.444z" transform="matrix(.11156 0 0 .06631 -96.20008 49.42532)"/>
<path fill="url(#linearGradient3258)" d="m1568.4932,239.763c0,27.5076-11.3386,49.8068-25.3255,49.8068-13.9869,0-25.3255-22.2993-25.3255-49.8068 0-27.5076 11.3386-49.8068 25.3255-49.8068 13.9869,0 25.3255,22.2993 25.3255,49.8068z" transform="matrix(.10083 0 0 .06631 -78.234 53.2316)"/>
</g>
</svg>
