<svg xmlns="http://www.w3.org/2000/svg" viewBox="0 0 96 96" xmlns:xlink="http://www.w3.org/1999/xlink">
<defs>
<clipPath id="clipPath3613">
<path fill="#fff" d="m12,6h72a6,6 0 0,1 6,6v72a6,6 0 0,1 -6,6h-72a6,6 0 0,1 -6-6v-72a6,6 0 0,1 6-6"/>
</clipPath>
<clipPath id="clipPath4187">
<path fill="#bbb1bf" d="m48,102c-19.8822,0-36,16.1178-36,36 0,19.8822 16.1178,36 36,36 19.8822,0 36-16.1178 36-36 0-19.8822-16.1178-36-36-36zm0,24c6.6274,0 12,5.3726 12,12 0,6.6274-5.3726,12-12,12-6.6274,0-12-5.3726-12-12 0-6.6274 5.3726-12 12-12z"/>
</clipPath>
<clipPath id="clipPath4031">
<path fill="#bbb1bf" d="m48,32c-19.8823,0-36,16.1177-36,36 0,19.8823 16.1177,36 36,36 19.8823,0 36-16.1177 36-36 0-19.8823-16.1177-36-36-36zm0,24c6.6274,0 12,5.3726 12,12 0,6.6274-5.3726,12-12,12-6.6274,0-12-5.3726-12-12 0-6.6274 5.3726-12 12-12z"/>
</clipPath>
<filter width="1.36" x="-.18" y="-.18" height="1.36" color-interpolation-filters="sRGB" id="filter4195">
<feGaussianBlur stdDeviation="5.216"/>
</filter>
<filter width="1.384" x="-.192" y="-.192" height="1.384" color-interpolation-filters="sRGB" id="filter3794">
<feGaussianBlur stdDeviation="5.28"/>
</filter>
<filter width="1.381" x="-.19" y="-.171" height="1.341" color-interpolation-filters="sRGB" id="filter4035">
<feGaussianBlur stdDeviation="4.94766"/>
</filter>
<linearGradient id="linearGradient3330">
<stop offset="0" stop-color="#fff" stop-opacity=".203"/>
<stop offset="1" stop-color="#fff" stop-opacity=".68"/>
</linearGradient>
<linearGradient id="linearGradient4004" xlink:href="#linearGradient3362" x1="25.22" x2="94.568" gradientUnits="userSpaceOnUse"/>
<linearGradient id="linearGradient3737-9">
<stop offset="0" stop-color="#fff"/>
<stop offset="1" stop-color="#fff" stop-opacity="0"/>
</linearGradient>
<linearGradient id="linearGradient4014" xlink:href="#linearGradient3330" x1="26.18" x2="93.608" gradientUnits="userSpaceOnUse"/>
<linearGradient id="linearGradient3013" xlink:href="#linearGradient3308" y1="11.446" x1="21.311" y2="11.789" x2="6.59" gradientUnits="userSpaceOnUse"/>
<linearGradient id="linearGradient3362">
<stop offset="0" stop-color="#4d4d4d"/>
<stop offset="1" stop-color="#fff"/>
</linearGradient>
<linearGradient id="linearGradient3308">
<stop offset="0" stop-color="#fc0000"/>
<stop offset="1" stop-color="#fc0000" stop-opacity="0"/>
</linearGradient>
<linearGradient id="linearGradient3868" xlink:href="#linearGradient3737-9" y1="20.221" y2="138.661" x2="0" gradientUnits="userSpaceOnUse"/>
<linearGradient gradientTransform="translate(0 -97)" id="linearGradient3721" xlink:href="#ButtonShadow-0" y1="6.132" y2="90.239" x2="0" gradientUnits="userSpaceOnUse"/>
<linearGradient gradientTransform="matrix(1.00587 0 0 .99417 100 0)" id="ButtonShadow-0" y1="92.54" y2="7.017" x2="0" gradientUnits="userSpaceOnUse">
<stop offset="0"/>
<stop offset="1" stop-opacity=".588"/>
</linearGradient>
<linearGradient id="linearGradient3700">
<stop offset="0" stop-color="#e6e6e6"/>
<stop offset="1" stop-color="#f5f5f5"/>
</linearGradient>
<linearGradient id="linearGradient3706" xlink:href="#linearGradient3700" y1="90" y2="5.988" x2="0" gradientUnits="userSpaceOnUse"/>
<linearGradient gradientTransform="matrix(1.02381 0 0 1.0119 -1.14286 -98.07143)" id="linearGradient3780" xlink:href="#ButtonShadow-0" y1="6.132" y2="90.239" x2="0" gradientUnits="userSpaceOnUse"/>
<linearGradient id="linearGradient3923" xlink:href="#linearGradient3737-1" y1="6" y2="63.893" x2="0" gradientUnits="userSpaceOnUse"/>
<linearGradient id="linearGradient3737-1">
<stop offset="0" stop-color="#fff"/>
<stop offset="1" stop-color="#fff" stop-opacity="0"/>
</linearGradient>
<radialGradient cx="48" cy="90.172" gradientTransform="matrix(1.15731 0 0 .99591 -7.55102 .19713)" r="42" id="radialGradient2886" gradientUnits="userSpaceOnUse">
<stop offset="0" stop-color="#fff"/>
<stop offset="1" stop-color="#fff" stop-opacity="0"/>
</radialGradient>
<radialGradient cx="59.894" cy="61.922" gradientTransform="matrix(1 0 0 .83754 0 10.05967)" r="33.714" id="radialGradient4012" gradientUnits="userSpaceOnUse">
<stop offset="0" stop-opacity="0"/>
<stop offset=".85" stop-opacity="0"/>
<stop offset="1"/>
</radialGradient>
<radialGradient cx="5.963" cy="10.958" r="1.502" id="radialGradient3300" gradientUnits="userSpaceOnUse">
<stop offset="0" stop-color="#ffc64e"/>
<stop offset=".3" stop-color="#f30000" stop-opacity=".831"/>
<stop offset=".438" stop-color="#fb0000" stop-opacity=".476"/>
<stop offset="1" stop-color="#ffb56f" stop-opacity="0"/>
</radialGradient>
</defs>
<path opacity=".08" fill="url(#linearGradient3780)" d="m12-95.0312c-5.5111,0-10.0312,4.5202-10.0312,10.0312v71c0,5.5111 4.5202,10.0312 10.0312,10.0312h72c5.5111,0 10.0312-4.5202 10.0312-10.0312v-71c0-5.5111-4.5202-10.0312-10.0312-10.0312h-72z" transform="scale(1 -1)"/>
<path opacity=".1" fill="url(#linearGradient3780)" d="m12-94.0312c-4.9716,0-9.0312,4.0596-9.0312,9.0312v71c0,4.9716 4.0596,9.0312 9.0312,9.0312h72c4.9716,0 9.0312-4.0596 9.0312-9.0312v-71c0-4.9716-4.0596-9.0312-9.0312-9.0312h-72z" transform="scale(1 -1)"/>
<path opacity=".2" fill="url(#linearGradient3780)" d="m12-93c-4.4091,0-8,3.5909-8,8v71c0,4.4091 3.5909,8 8,8h72c4.4091,0 8-3.5909 8-8v-71c0-4.4091-3.5909-8-8-8h-72z" transform="scale(1 -1)"/>
<path opacity=".3" fill="url(#linearGradient3780)" d="m12-92h72a7,7 0 0,1 7,7v71a7,7 0 0,1 -7,7h-72a7,7 0 0,1 -7-7v-71a7,7 0 0,1 7-7" transform="scale(1 -1)"/>
<path opacity=".45" fill="url(#linearGradient3721)" d="m12-91h72a6,6 0 0,1 6,6v72a6,6 0 0,1 -6,6h-72a6,6 0 0,1 -6-6v-72a6,6 0 0,1 6-6" transform="scale(1 -1)"/>
<path fill="url(#linearGradient3706)" d="m12,6h72a6,6 0 0,1 6,6v72a6,6 0 0,1 -6,6h-72a6,6 0 0,1 -6-6v-72a6,6 0 0,1 6-6"/>
<path opacity=".5" fill="url(#linearGradient3923)" d="m12,6c-3.324,0-6,2.676-6,6v2 68 2c0,.3347 .0413,.6507 .0938,.9688 .0487,.2956 .097,.5969 .1875,.875 .0099,.0304 .0209,.0636 .0312,.0938 .0989,.2878 .2349,.5475 .375,.8125 .1446,.2735 .3156,.5356 .5,.7812 .1844,.2456 .3738,.4735 .5938,.6875 .4399,.4281 .9429,.8145 1.5,1.0938 .2785,.1396 .5735,.2469 .875,.3438-.2562-.1002-.4867-.2363-.7188-.375-.0074-.0044-.0239,.0045-.0312,0-.0319-.0193-.0623-.0425-.0938-.0625-.1204-.0767-.231-.1635-.3438-.25-.1062-.0808-.2133-.1611-.3125-.25-.1779-.1614-.3475-.3454-.5-.5312-.1076-.1303-.2184-.2653-.3125-.4062-.0251-.0384-.0385-.0859-.0625-.125-.0648-.103-.1302-.2045-.1875-.3125-.101-.1947-.2057-.4157-.2812-.625-.008-.0218-.0236-.0405-.0312-.0625-.0318-.0919-.0358-.1868-.0625-.2812-.0303-.1066-.0704-.203-.0938-.3125-.0729-.3415-.125-.6982-.125-1.0625v-2-68-2c0-2.7818 2.2182-5 5-5h2 68 2c2.7818,0 5,2.2182 5,5v2 68 2c0,.3643-.0521,.721-.125,1.0625-.0442,.2069-.0884,.3977-.1562,.5938-.0077,.022-.0233,.0407-.0312,.0625-.0627,.1737-.1384,.3674-.2188,.5312-.0416,.0828-.079,.17-.125,.25-.0546,.0972-.1268,.1883-.1875,.2812-.0941,.141-.2049,.276-.3125,.4062-.1432,.1744-.3031,.347-.4688,.5-.0112,.0102-.02,.0212-.0312,.0312-.1384,.1256-.2851,.2344-.4375,.3438-.1026,.0731-.2043,.1534-.3125,.2188-.0074,.0045-.0238-.0044-.0312,0-.232,.1387-.4625,.2748-.7188,.375 .3015-.0968 .5965-.2041 .875-.3438 .5571-.2792 1.0601-.6657 1.5-1.0938 .22-.214 .4094-.4419 .5938-.6875 .1844-.2456 .3554-.5077 .5-.7812 .1401-.265 .2761-.5247 .375-.8125 .0104-.0308 .0213-.0627 .0312-.0938 .0905-.2781 .1388-.5794 .1875-.875 .0524-.318 .0938-.634 .0938-.9688v-2-68-2c0-3.324-2.676-6-6-6h-72z"/>
<path opacity=".4" fill="url(#radialGradient2886)" d="m12,90c-3.324,0-6-2.676-6-6v-2-68-2c0-.3347 .0413-.6507 .0938-.9688 .0487-.2956 .097-.5969 .1875-.875 .0099-.0304 .0209-.0636 .0312-.0938 .0989-.2878 .2349-.5475 .375-.8125 .1446-.2735 .3156-.5356 .5-.7812 .1844-.2456 .3738-.4735 .5938-.6875 .4399-.4281 .9429-.8145 1.5-1.0938 .2785-.1396 .5735-.2469 .875-.3438-.2562,.1002-.4867,.2363-.7188,.375-.0074,.0044-.0239-.0045-.0312,0-.0319,.0193-.0623,.0425-.0938,.0625-.1204,.0767-.231,.1635-.3438,.25-.1062,.0808-.2133,.1611-.3125,.25-.1779,.1614-.3475,.3454-.5,.5312-.1076,.1303-.2184,.2653-.3125,.4062-.0251,.0384-.0384,.0859-.0625,.125-.0648,.103-.1302,.2045-.1875,.3125-.101,.1947-.2057,.4157-.2812,.625-.008,.0218-.0236,.0405-.0312,.0625-.0318,.092-.0358,.1868-.0625,.2812-.0303,.1066-.0704,.203-.0938,.3125-.0729,.3415-.125,.6982-.125,1.0625v2 68 2c0,2.7818 2.2182,5 5,5h2 68 2c2.7818,0 5-2.2182 5-5v-2-68-2c0-.3643-.0521-.721-.125-1.0625-.0442-.2069-.0884-.3977-.1562-.5938-.0077-.022-.0233-.0407-.0312-.0625-.0627-.1737-.1384-.3674-.2188-.5312-.0416-.0828-.079-.17-.125-.25-.0546-.0972-.1268-.1883-.1875-.2812-.0941-.141-.2049-.276-.3125-.4062-.1432-.1745-.3031-.347-.4688-.5-.0112-.0102-.02-.0211-.0312-.0312-.1384-.1256-.2851-.2344-.4375-.3438-.1026-.0732-.2043-.1534-.3125-.2188-.0074-.0045-.0238,.0044-.0312,0-.232-.1387-.4625-.2748-.7188-.375 .3015,.0968 .5965,.2041 .875,.3438 .5571,.2792 1.0601,.6657 1.5,1.0938 .22,.214 .4094,.4419 .5938,.6875 .1844,.2456 .3554,.5077 .5,.7812 .1401,.265 .2761,.5247 .375,.8125 .0104,.0308 .0213,.0627 .0312,.0938 .0905,.2781 .1388,.5794 .1875,.875 .0524,.318 .0938,.634 .0938,.9688v2 68 2c0,3.324-2.676,6-6,6h-72z"/>
<path fill="#f0f" d="m-88,6h72a6,6 0 0,1 6,6v72a6,6 0 0,1 -6,6h-72a6,6 0 0,1 -6-6v-72a6,6 0 0,1 6-6"/>
<path fill="#fff" stroke="#000" stroke-linecap="round" color="#000" stroke-width=".5" d="m112,8h16v16h-16z" stroke-dashoffset="8.6"/>
<text x="131.393" y="11.969" font-family="Liberation Sans" text-align="start" line-height="125%" xml:space="preserve" font-size="4px"><tspan x="131.393" y="11.969">Width: 2px</tspan><tspan x="131.393" y="16.969">Blur: 12</tspan><tspan x="131.393" y="21.969">Opacity: 60</tspan>
</text>
<path opacity=".5" fill="url(#linearGradient3868)" filter="url(#filter3794)" stroke="#fff" stroke-linecap="round" stroke-width=".5" d="m27,15h42a12,12 0 0,1 12,12v42a12,12 0 0,1 -12,12h-42a12,12 0 0,1 -12-12v-42a12,12 0 0,1 12-12" clip-path="url(#clipPath3613)"/>
<g color="#000">
<path opacity=".05" d="m48,31c-9.926,0-18,8.074-18,18 0,9.926 8.074,18 18,18 9.926,0 18-8.074 18-18 0-9.926-8.074-18-18-18zm0,10c4.4365,0 8,3.5635 8,8 0,4.4365-3.5635,8-8,8-4.4365,0-8-3.5635-8-8 0-4.4365 3.5635-8 8-8z"/>
<path opacity=".3" d="m48,33c-8.8366,0-16,7.1634-16,16 0,8.8366 7.1634,16 16,16 8.8366,0 16-7.1634 16-16 0-8.8366-7.1634-16-16-16zm0,6c5.5228,0 10,4.4772 10,10 0,5.5228-4.4772,10-10,10-5.5228,0-10-4.4772-10-10 0-5.5228 4.4772-10 10-10z"/>
<path opacity=".1" d="m48,31.9688c-9.3975,0-17.0312,7.6337-17.0312,17.0312 0,9.3975 7.6337,17.0312 17.0312,17.0312 9.3975,0 17.0312-7.6337 17.0312-17.0312 0-9.3975-7.6337-17.0312-17.0312-17.0312zm0,8.0625c4.9619,0 8.9688,4.0069 8.9688,8.9688 0,4.9619-4.0069,8.9688-8.9688,8.9688-4.9619,0-8.9688-4.0069-8.9688-8.9688 0-4.9619 4.0069-8.9688 8.9688-8.9688z"/>
</g>
<path fill="#bbb1bf" d="m48,18.0845c-16.5219,0-29.9155,13.3936-29.9155,29.9155 0,16.5219 13.3936,29.9155 29.9155,29.9155 16.5219,0 29.9155-13.3936 29.9155-29.9155 0-16.5219-13.3936-29.9155-29.9155-29.9155zm0,19.9437c5.5073,0 9.9718,4.4645 9.9718,9.9718 0,5.5073-4.4645,9.9718-9.9718,9.9718-5.5073,0-9.9718-4.4645-9.9718-9.9718 0-5.5073 4.4645-9.9718 9.9718-9.9718z"/>
<path opacity=".3" fill="#fff" d="m48,38.0282c-5.5073,0-9.9718,4.4645-9.9718,9.9718 0,5.5073 4.4645,9.9718 9.9718,9.9718 5.5073,0 9.9718-4.4645 9.9718-9.9718 0-5.5073-4.4645-9.9718-9.9718-9.9718zm0,5.8169c2.2947,0 4.1549,1.8602 4.1549,4.1549 0,2.2947-1.8602,4.1549-4.1549,4.1549-2.2947,0-4.1549-1.8602-4.1549-4.1549 0-2.2947 1.8602-4.1549 4.1549-4.1549z"/>
<g stroke-linecap="round">
<path opacity=".6" fill="none" stroke="url(#linearGradient4004)" stroke-width="6.525" d="m92.5795,61.9223a32.6855,27.2085 0 1,1 -65.371,0 32.6855,27.2085 0 1,1 65.371,0z" transform="matrix(0 .13983 -.16798 0 58.40157 39.62501)"/>
<path opacity=".5" fill="url(#radialGradient4012)" fill-rule="evenodd" stroke="url(#linearGradient4014)" stroke-width="3.778" d="m92.5795,61.9223a32.6855,27.2085 0 1,1 -65.371,0 32.6855,27.2085 0 1,1 65.371,0z" transform="matrix(0 .24152 -.29014 0 65.96635 33.53436)"/>
</g>
<path opacity=".8" fill="#fff" filter="url(#filter4035)" d="m57.3125,33.2188-9.3125,34.7812 31.1875-18c-4.7739-8.2686-12.6525-14.3101-21.875-16.7812zm-9.3125,34.7812-31.1875,18c4.7739,8.2686 12.6525,14.3101 21.875,16.7812l9.3125-34.7812z" clip-path="url(#clipPath4031)" transform="matrix(.83099 0 0 .83099 8.11268 -8.50704)"/>
<g opacity=".6" filter="url(#filter4195)" clip-path="url(#clipPath4187)" transform="matrix(.83099 0 0 .83099 8.11268 -66.67606)">
<path fill="#7137c8" d="m60.9475,57.7841a20.7081,18.8141 0 0,1 -2.6155,2.9059l-14.6429-13.3036z" transform="matrix(1.50554 .86922 -.95673 1.6571 27.5603 21.50017)"/>
<path fill="#0cf" d="m60.7794,58.0108a20.7081,18.8141 0 0,1 -3.384,3.4788l-13.7062-14.1033z" transform="matrix(1.67921 .44994 -.49524 1.84826 -1.89561 30.75998)"/>
<path fill="#fc0" d="m62.7238,54.7957a20.7081,18.8141 0 0,1 -2.2597,3.6221l-16.775-11.0314z" transform="matrix(1.73845 0 -0 1.91346 -27.95122 47.32803)"/>
<path fill="#f00" d="m61.6229,56.7935a20.7081,18.8141 0 0,1 -1.6993,2.2728l-16.2345-11.6798z" transform="matrix(1.67921 -.44994 .49524 1.84826 -48.83088 70.07522)"/>
<path fill="#0f0" d="m63.1233,53.8834a20.7081,18.8141 0 0,1 -2.37,4.1619l-17.0642-10.659z" transform="matrix(1.67921 .44994 -.49524 1.84826 -1.89561 30.75998)"/>
<path fill="#7137c8" d="m60.9475,57.7841a20.7081,18.8141 0 0,1 -2.6155,2.9059l-14.6429-13.3036z" transform="matrix(-1.50554 -.86922 .95673 -1.6571 68.43968 254.49984)"/>
<path fill="#0cf" d="m60.7794,58.0108a20.7081,18.8141 0 0,1 -3.384,3.4788l-13.7062-14.1033z" transform="matrix(-1.67921 -.44994 .49524 -1.84826 97.8956 245.24003)"/>
<path fill="#fc0" d="m62.7238,54.7957a20.7081,18.8141 0 0,1 -2.2597,3.6221l-16.775-11.0314z" transform="matrix(-1.73845 0 0 -1.91346 123.9512 228.67198)"/>
<path fill="#f00" d="m61.6229,56.7935a20.7081,18.8141 0 0,1 -1.6993,2.2728l-16.2345-11.6798z" transform="matrix(-1.67921 .44994 -.49524 -1.84826 144.83086 205.92479)"/>
<path fill="#0f0" d="m63.1233,53.8834a20.7081,18.8141 0 0,1 -2.37,4.1619l-17.0642-10.659z" transform="matrix(-1.67921 -.44994 .49524 -1.84826 97.8956 245.24003)"/>
</g>
<path opacity=".2" d="m48,35.9507c-6.6546,0-12.0493,5.3947-12.0493,12.0493 0,6.6546 5.3947,12.0493 12.0493,12.0493 6.6546,0 12.0493-5.3947 12.0493-12.0493 0-6.6546-5.3947-12.0493-12.0493-12.0493zm0,2.0775c5.5073,0 9.9718,4.4645 9.9718,9.9718 0,5.5073-4.4645,9.9718-9.9718,9.9718-5.5073,0-9.9718-4.4645-9.9718-9.9718 0-5.5073 4.4645-9.9718 9.9718-9.9718z"/>
<path opacity=".4" fill="#fff" d="m-52,18.0845c-16.5219,0-29.9155,13.3936-29.9155,29.9155 0,.2801 .0183,.5527 .0259,.831 .4436-16.1346 13.6478-29.0845 29.8896-29.0845 16.2418,0 29.446,12.9499 29.8895,29.0845 .0076-.2783 .026-.5509 .026-.831-0-16.5219-13.3936-29.9155-29.9155-29.9155z"/>
<g color="#000">
<path opacity=".6" fill="#fff" d="m18,48.5c-.0028,.1683 0,.331 0,.5 0,16.5685 13.4315,30 30,30 16.5685,0 30-13.4315 30-30 0-.169 .0028-.3317 0-.5-.2701,16.3351-13.6005,29.5-30,29.5-16.3995,0-29.7299-13.1649-30-29.5z"/>
<path opacity=".05" d="m48,18c-16.5685,0-30,13.4315-30,30 0,16.5685 13.4315,30 30,30 16.5685,0 30-13.4315 30-30 0-16.5685-13.4315-30-30-30zm0,3c14.9117,0 27,12.0883 27,27 0,14.9117-12.0883,27-27,27-14.9117,0-27-12.0883-27-27 0-14.9117 12.0883-27 27-27z"/>
<path opacity=".1" d="m48,18c-16.5685,0-30,13.4315-30,30 0,16.5685 13.4315,30 30,30 16.5685,0 30-13.4315 30-30 0-16.5685-13.4315-30-30-30zm0,2.0312c15.4694,0 27.9688,12.4994 27.9688,27.9688 0,15.4694-12.4994,27.9688-27.9688,27.9688-15.4694,0-27.9688-12.4994-27.9688-27.9688 0-15.4694 12.4994-27.9688 27.9688-27.9688z"/>
<path opacity=".15" d="m48,18c-16.5685,0-30,13.4315-30,30 0,16.5685 13.4315,30 30,30 16.5685,0 30-13.4315 30-30 0-16.5685-13.4315-30-30-30zm0,1c16.0163,0 29,12.9837 29,29 0,16.0163-12.9837,29-29,29-16.0163,0-29-12.9837-29-29 0-16.0163 12.9837-29 29-29z"/>
<path opacity=".2" d="m48,18c-16.5685,0-30,13.4315-30,30 0,.169-.0028,.3317 0,.5 .2701-16.3351 13.6005-29.5 30-29.5 16.3995,0 29.7299,13.1649 30,29.5 .0028-.1683 0-.331 0-.5 0-16.5685-13.4315-30-30-30z"/>
</g>
<path fill="none" stroke="url(#linearGradient3013)" stroke-linejoin="round" stroke-width=".766" d="M 16.25795,11 A 5.2579503,5.2579503 0 0 1 6.2999401,13.357006" transform="matrix(-3.91345 -.09102 .09102 -3.91345 90.12555 91.08518)"/>
<path fill="url(#radialGradient3300)" d="m7.4647,10.9576a1.5018,1.5018 0 1,1 -3.0035,0 1.5018,1.5018 0 1,1 3.0035,0z" transform="matrix(6.11465 -.53035 .53035 6.11465 -15.29254 -15.12123)"/>
</svg>
