<svg xmlns="http://www.w3.org/2000/svg" viewBox="0 0 96 96" xmlns:xlink="http://www.w3.org/1999/xlink">
<defs>
<clipPath id="clipPath3613">
<path fill="#fff" d="m12,6h72a6,6 0 0,1 6,6v72a6,6 0 0,1 -6,6h-72a6,6 0 0,1 -6-6v-72a6,6 0 0,1 6-6"/>
</clipPath>
<filter width="1.384" x="-.192" y="-.192" height="1.384" color-interpolation-filters="sRGB" id="filter3794">
<feGaussianBlur stdDeviation="5.28"/>
</filter>
<linearGradient id="linearGradient3822" xlink:href="#linearGradient3737-9" y1="20.221" y2="138.661" x2="0" gradientUnits="userSpaceOnUse"/>
<linearGradient gradientTransform="translate(0 -97)" id="linearGradient3721" xlink:href="#ButtonShadow-0" y1="6.132" y2="90.239" x2="0" gradientUnits="userSpaceOnUse"/>
<linearGradient id="linearGradient3737-9">
<stop offset="0" stop-color="#fff"/>
<stop offset="1" stop-color="#fff" stop-opacity="0"/>
</linearGradient>
<linearGradient gradientTransform="matrix(1.00587 0 0 .99417 100 0)" id="ButtonShadow-0" y1="92.54" y2="7.017" x2="0" gradientUnits="userSpaceOnUse">
<stop offset="0"/>
<stop offset="1" stop-opacity=".588"/>
</linearGradient>
<linearGradient gradientTransform="matrix(1.02381 0 0 1.0119 -1.14286 -98.07143)" id="linearGradient3780" xlink:href="#ButtonShadow-0" y1="6.132" y2="90.239" x2="0" gradientUnits="userSpaceOnUse"/>
<linearGradient id="linearGradient3174">
<stop offset="0" stop-color="#c30000"/>
<stop offset="1" stop-color="#f12300"/>
</linearGradient>
<linearGradient id="linearGradient3737">
<stop offset="0" stop-color="#fff"/>
<stop offset="1" stop-color="#fff" stop-opacity="0"/>
</linearGradient>
<linearGradient id="linearGradient3203" xlink:href="#linearGradient3174" y1="89.164" y2="6.398" x2="0" gradientUnits="userSpaceOnUse"/>
<linearGradient id="linearGradient3700">
<stop offset="0" stop-color="#e6e6e6"/>
<stop offset="1" stop-color="#f5f5f5"/>
</linearGradient>
<linearGradient id="linearGradient3706" xlink:href="#linearGradient3700" y1="90" y2="5.988" x2="0" gradientUnits="userSpaceOnUse"/>
<linearGradient id="linearGradient3188" xlink:href="#linearGradient3737" y1="6" y2="63.893" x2="0" gradientUnits="userSpaceOnUse"/>
<radialGradient cx="48" cy="90.172" gradientTransform="matrix(1.15731 0 0 .99591 -7.55102 .19713)" r="42" id="radialGradient2903" gradientUnits="userSpaceOnUse">
<stop offset="0" stop-color="#fff"/>
<stop offset="1" stop-color="#fff" stop-opacity="0"/>
</radialGradient>
</defs>
<path opacity=".08" fill="url(#linearGradient3780)" d="m12-95.0312c-5.5111,0-10.0312,4.5202-10.0312,10.0312v71c0,5.5111 4.5202,10.0312 10.0312,10.0312h72c5.5111,0 10.0312-4.5202 10.0312-10.0312v-71c0-5.5111-4.5202-10.0312-10.0312-10.0312h-72z" transform="scale(1 -1)"/>
<path opacity=".1" fill="url(#linearGradient3780)" d="m12-94.0312c-4.9716,0-9.0312,4.0596-9.0312,9.0312v71c0,4.9716 4.0596,9.0312 9.0312,9.0312h72c4.9716,0 9.0312-4.0596 9.0312-9.0312v-71c0-4.9716-4.0596-9.0312-9.0312-9.0312h-72z" transform="scale(1 -1)"/>
<path opacity=".2" fill="url(#linearGradient3780)" d="m12-93c-4.4091,0-8,3.5909-8,8v71c0,4.4091 3.5909,8 8,8h72c4.4091,0 8-3.5909 8-8v-71c0-4.4091-3.5909-8-8-8h-72z" transform="scale(1 -1)"/>
<path opacity=".3" fill="url(#linearGradient3780)" d="m12-92h72a7,7 0 0,1 7,7v71a7,7 0 0,1 -7,7h-72a7,7 0 0,1 -7-7v-71a7,7 0 0,1 7-7" transform="scale(1 -1)"/>
<path opacity=".45" fill="url(#linearGradient3721)" d="m12-91h72a6,6 0 0,1 6,6v72a6,6 0 0,1 -6,6h-72a6,6 0 0,1 -6-6v-72a6,6 0 0,1 6-6" transform="scale(1 -1)"/>
<path fill="url(#linearGradient3706)" d="m12,6h72a6,6 0 0,1 6,6v72a6,6 0 0,1 -6,6h-72a6,6 0 0,1 -6-6v-72a6,6 0 0,1 6-6"/>
<path opacity=".5" fill="url(#linearGradient3822)" filter="url(#filter3794)" stroke="#fff" stroke-linecap="round" stroke-width=".5" d="m27,15h42a12,12 0 0,1 12,12v42a12,12 0 0,1 -12,12h-42a12,12 0 0,1 -12-12v-42a12,12 0 0,1 12-12" clip-path="url(#clipPath3613)"/>
<path opacity=".5" fill="#999" d="m12,12 0,17.9375 8.0938-17.9375-8.0938,0zm9.9062,0 8.0938,17.9375 0-17.9375-8.0938,0zm-.9062,7.0312l-3.0312,7h2.9286l1.7188,3.9688h3.2277l-2.375-5.2812-.0625-.125-2.4062-5.5625z"/>
<g fill-rule="evenodd">
<path opacity=".1" d="m90,28.6875c-23.5167,30.3301-59.7507,34.4713-84,30.0938v4.9062c22.7675,4.1099 50.9462,3.418 71.3125-5.0938-4.3872,6.3521-6.2238,13.4637-6.6562,19.9375-.2781,4.164 .003,8.0883 .4688,11.4688h4.0312c-.4786-3.2618-.7722-7.1118-.5-11.1875 .6305-9.4395 4.0671-19.8283 15.3438-26.9688v-23.1562z"/>
<path fill="url(#linearGradient3203)" d="m58.7621,6.0006c-3.9481,8.6919-6.9399,17.6332-8.9249,26.6436-1.0303,.8199-2.0773,1.586-3.15,2.3625-12.2383,8.8586-26.9187,14.6467-40.6872,14.3061v6.5625c12.1835,1.1502 20.2886,3.2121 25.8061,10.5499 5.457,7.2574 8.5125,14.4338 8.5125,23.5749h4.2c0-9.1138-3.9545-19.94-9.3-26.0686-5.2827-6.0566-11.9544-8.8617-20.9499-10.9437 12.0296-1.6106 23.9736-6.9592 34.256-14.3061-2.9654,17.2205-2.4821,34.708 1.1812,51.3184h29.0061c-14.4937-13.1412-20.7634-36.6972-20.7374-58.9309 8.1728-7.6081 14.5241-16.331 17.8499-25.0686l-4.4625,0c-2.7652,6.4004-7.4,12.9684-13.2562,19.0311 .3566-6.6988 1.4252-13.1109 2.8875-19.0311l-2.2312,0z"/>
<path opacity=".6" fill="#500" d="m58.75,6c-3.9481,8.6919-6.9212,17.6459-8.9062,26.6562-1.0303,.8199-2.0836,1.5673-3.1562,2.3438-12.2383,8.8586-26.919,14.653-40.6875,14.3125v1c13.7685,.3405 28.4492-5.4539 40.6875-14.3125 1.0727-.7765 2.1259-1.5238 3.1562-2.3438 1.985-9.0104 4.9581-17.9644 8.9062-26.6562h2c.079-.3329 .1685-.6701 .25-1h-2.25zm12.625,0c-2.7506,6.3666-7.375,12.9015-13.1875,18.9375-.0237,.3649-.0742,.7271-.0938,1.0938 5.8562-6.0628 10.5161-12.6308 13.2812-19.0312h4.0312c.1369-.3362 .2782-.6637 .4062-1h-4.4375zm-13.3438,29.25c.5356,20.7156 6.5589,42.0873 19.625,54.75h1.0625c-13.5878-12.3198-19.9671-33.7939-20.6875-54.75zm-9.5,4.4375c-.0607,.0434-.1266,.0817-.1875,.125-1.0482,6.4167-1.6115,12.8565-1.7188,19.2812 .1562-6.4724 .7942-12.9486 1.9062-19.4062zm-31.7812,13.9375c-.8229,.1449-1.6445,.2646-2.4688,.375 8.9955,2.082 15.6548,4.8809 20.9375,10.9375 5.1511,5.9058 9.0074,16.1682 9.2812,25.0625h.0312c0-9.1138-3.967-19.9339-9.3125-26.0625-4.7807-5.4811-10.7201-8.2833-18.4688-10.3125z"/>
<path opacity=".8" fill="#fff" d="m60.75,7c-1.3384,5.6415-2.3195,11.7058-2.6562,18.0312 .0309-.032 .0629-.0617 .0938-.0938 .4098-6.3019 1.4303-12.3413 2.8125-17.9375h-.25zm14.6562,0c-3.42,8.3986-9.5793,16.7473-17.4375,24.0625-.0004,.3318-.0024,.6677 0,1 8.1728-7.6081 14.5179-16.3249 17.8438-25.0625h-.4062zm-26.875,31.6875c-10.2824,7.3469-22.2204,12.7019-34.25,14.3125 .8548,.1978 1.6551,.4119 2.4688,.625 11.1166-1.9573 22.0585-7.0343 31.5938-13.8125 .0615-.3765 .1227-.7487 .1875-1.125zm-42.5312,17.1875v1c12.1835,1.1502 20.295,3.2246 25.8125,10.5625 5.2549,6.9886 8.2525,13.8984 8.4688,22.5625h.0312c0-9.1411-3.043-16.3051-8.5-23.5625-5.5175-7.3379-13.629-9.4123-25.8125-10.5625zm40.625,8.6875c.1435,8.5963 1.1093,17.1245 2.875,25.4375h.2188c-1.8317-8.3052-2.8857-16.8368-3.0938-25.4375z"/>
</g>
<path opacity=".5" fill="url(#linearGradient3188)" d="m12,6c-3.324,0-6,2.676-6,6v2 68 2c0,.3347 .0413,.6507 .0938,.9688 .0487,.2956 .097,.5969 .1875,.875 .0099,.0304 .0209,.0636 .0312,.0938 .0989,.2878 .2349,.5475 .375,.8125 .1446,.2735 .3156,.5356 .5,.7812 .1844,.2456 .3738,.4735 .5938,.6875 .4399,.4281 .9429,.8145 1.5,1.0938 .2785,.1396 .5735,.2469 .875,.3438-.2562-.1002-.4867-.2363-.7188-.375-.0074-.0044-.0239,.0045-.0312,0-.0319-.0193-.0623-.0425-.0938-.0625-.1204-.0767-.231-.1635-.3438-.25-.1062-.0808-.2133-.1611-.3125-.25-.1779-.1614-.3475-.3454-.5-.5312-.1076-.1303-.2184-.2653-.3125-.4062-.0251-.0384-.0384-.0859-.0625-.125-.0648-.103-.1302-.2045-.1875-.3125-.101-.1947-.2057-.4157-.2812-.625-.008-.0218-.0236-.0405-.0312-.0625-.0318-.0919-.0358-.1868-.0625-.2812-.0303-.1066-.0704-.203-.0938-.3125-.0729-.3415-.125-.6982-.125-1.0625v-2-68-2c0-2.7818 2.2182-5 5-5h2 68 2c2.7818,0 5,2.2182 5,5v2 68 2c0,.3643-.0521,.721-.125,1.0625-.0442,.2069-.0884,.3977-.1562,.5938-.0077,.022-.0233,.0407-.0312,.0625-.0627,.1737-.1384,.3674-.2188,.5312-.0416,.0828-.079,.17-.125,.25-.0546,.0972-.1268,.1883-.1875,.2812-.0941,.141-.2049,.276-.3125,.4062-.1432,.1744-.3031,.347-.4688,.5-.0112,.0102-.02,.0212-.0312,.0312-.1384,.1256-.2851,.2344-.4375,.3438-.1026,.0731-.2043,.1534-.3125,.2188-.0074,.0045-.0238-.0044-.0312,0-.232,.1387-.4625,.2748-.7188,.375 .3015-.0968 .5965-.2041 .875-.3438 .5571-.2792 1.0601-.6657 1.5-1.0938 .22-.214 .4094-.4419 .5938-.6875 .1844-.2456 .3554-.5077 .5-.7812 .1401-.265 .2761-.5247 .375-.8125 .0104-.0308 .0213-.0627 .0312-.0938 .0905-.2781 .1388-.5794 .1875-.875 .0524-.318 .0938-.634 .0938-.9688v-2-68-2c0-3.324-2.676-6-6-6h-72z"/>
<path opacity=".3" fill="url(#radialGradient2903)" d="m12,90c-3.324,0-6-2.676-6-6v-2-68-2c0-.3347 .0413-.6507 .0938-.9688 .0487-.2956 .097-.5969 .1875-.875 .0099-.0304 .0209-.0636 .0312-.0938 .0989-.2878 .2349-.5475 .375-.8125 .1446-.2735 .3156-.5356 .5-.7812 .1844-.2456 .3738-.4735 .5938-.6875 .4399-.4281 .9429-.8145 1.5-1.0938 .2785-.1396 .5735-.2469 .875-.3438-.2562,.1002-.4867,.2363-.7188,.375-.0074,.0044-.0239-.0045-.0312,0-.0319,.0193-.0623,.0425-.0938,.0625-.1204,.0767-.231,.1635-.3438,.25-.1062,.0808-.2133,.1611-.3125,.25-.1779,.1614-.3475,.3454-.5,.5312-.1076,.1303-.2184,.2653-.3125,.4062-.0251,.0384-.0384,.0859-.0625,.125-.0648,.103-.1302,.2045-.1875,.3125-.101,.1947-.2057,.4157-.2812,.625-.008,.0218-.0236,.0405-.0312,.0625-.0318,.092-.0358,.1868-.0625,.2812-.0303,.1066-.0704,.203-.0938,.3125-.0729,.3415-.125,.6982-.125,1.0625v2 68 2c0,2.7818 2.2182,5 5,5h2 68 2c2.7818,0 5-2.2182 5-5v-2-68-2c0-.3643-.0521-.721-.125-1.0625-.0442-.2069-.0884-.3977-.1562-.5938-.0077-.022-.0233-.0407-.0312-.0625-.0627-.1737-.1384-.3674-.2188-.5312-.0416-.0828-.079-.17-.125-.25-.0546-.0972-.1268-.1883-.1875-.2812-.0941-.141-.2049-.276-.3125-.4062-.1432-.1745-.3031-.347-.4688-.5-.0112-.0102-.02-.0211-.0312-.0312-.1384-.1256-.2851-.2344-.4375-.3438-.1026-.0732-.2043-.1534-.3125-.2188-.0074-.0045-.0238,.0044-.0312,0-.232-.1387-.4625-.2748-.7188-.375 .3015,.0968 .5965,.2041 .875,.3438 .5571,.2792 1.0601,.6657 1.5,1.0938 .22,.214 .4094,.4419 .5938,.6875 .1844,.2456 .3554,.5077 .5,.7812 .1401,.265 .2761,.5247 .375,.8125 .0104,.0308 .0213,.0627 .0312,.0938 .0905,.2781 .1388,.5794 .1875,.875 .0524,.318 .0938,.634 .0938,.9688v2 68 2c0,3.324-2.676,6-6,6h-72z"/>
</svg>
