<svg xmlns="http://www.w3.org/2000/svg" viewBox="0 0 96 96" xmlns:xlink="http://www.w3.org/1999/xlink">
<defs>
<clipPath id="clipPath3613">
<path fill="#fff" d="m12,6h72a6,6 0 0,1 6,6v72a6,6 0 0,1 -6,6h-72a6,6 0 0,1 -6-6v-72a6,6 0 0,1 6-6"/>
</clipPath>
<filter width="1.384" x="-.192" y="-.192" height="1.384" color-interpolation-filters="sRGB" id="filter3794">
<feGaussianBlur stdDeviation="5.28"/>
</filter>
<linearGradient id="linearGradient3923" xlink:href="#linearGradient3737-1" y1="6" y2="63.893" x2="0" gradientUnits="userSpaceOnUse"/>
<linearGradient id="linearGradient3737-9">
<stop offset="0" stop-color="#fff"/>
<stop offset="1" stop-color="#fff" stop-opacity="0"/>
</linearGradient>
<linearGradient id="linearGradient3737-1">
<stop offset="0" stop-color="#fff"/>
<stop offset="1" stop-color="#fff" stop-opacity="0"/>
</linearGradient>
<linearGradient id="linearGradient3707" xlink:href="#linearGradient3737-9" y1="20.221" y2="138.661" x2="0" gradientUnits="userSpaceOnUse"/>
<linearGradient id="linearGradient3700">
<stop offset="0" stop-color="#ebebeb"/>
<stop offset="1" stop-color="#fafafa"/>
</linearGradient>
<linearGradient id="linearGradient3706" xlink:href="#linearGradient3700" y1="90" y2="5.988" x2="0" gradientUnits="userSpaceOnUse"/>
<linearGradient gradientTransform="matrix(1.00587 0 0 .99417 100 0)" id="ButtonShadow-0" y1="92.54" y2="7.017" x2="0" gradientUnits="userSpaceOnUse">
<stop offset="0"/>
<stop offset="1" stop-opacity=".588"/>
</linearGradient>
<linearGradient gradientTransform="translate(0 -97)" id="linearGradient3721" xlink:href="#ButtonShadow-0" y1="6.132" y2="90.239" x2="0" gradientUnits="userSpaceOnUse"/>
<linearGradient gradientTransform="matrix(1.02381 0 0 1.0119 -1.14286 -98.07143)" id="linearGradient3780" xlink:href="#ButtonShadow-0" y1="6.132" y2="90.239" x2="0" gradientUnits="userSpaceOnUse"/>
<radialGradient cx="48" cy="90.172" gradientTransform="matrix(1.15731 0 0 .99591 -7.55102 .19713)" r="42" id="radialGradient2886" gradientUnits="userSpaceOnUse">
<stop offset="0" stop-color="#fff"/>
<stop offset="1" stop-color="#fff" stop-opacity="0"/>
</radialGradient>
<radialGradient cx="48" cy="63.367" gradientTransform="matrix(1.60821 0 0 1.19867 -29.19386 -4.50257)" r="36" id="radialGradient2898" gradientUnits="userSpaceOnUse">
<stop offset="0" stop-color="#463c4f"/>
<stop offset="1" stop-color="#0f0f0f"/>
</radialGradient>
</defs>
<path opacity=".08" fill="url(#linearGradient3780)" d="m12-95.0312c-5.5111,0-10.0312,4.5202-10.0312,10.0312v71c0,5.5111 4.5202,10.0312 10.0312,10.0312h72c5.5111,0 10.0312-4.5202 10.0312-10.0312v-71c0-5.5111-4.5202-10.0312-10.0312-10.0312h-72z" transform="scale(1 -1)"/>
<path opacity=".1" fill="url(#linearGradient3780)" d="m12-94.0312c-4.9716,0-9.0312,4.0596-9.0312,9.0312v71c0,4.9716 4.0596,9.0312 9.0312,9.0312h72c4.9716,0 9.0312-4.0596 9.0312-9.0312v-71c0-4.9716-4.0596-9.0312-9.0312-9.0312h-72z" transform="scale(1 -1)"/>
<path opacity=".2" fill="url(#linearGradient3780)" d="m12-93c-4.4091,0-8,3.5909-8,8v71c0,4.4091 3.5909,8 8,8h72c4.4091,0 8-3.5909 8-8v-71c0-4.4091-3.5909-8-8-8h-72z" transform="scale(1 -1)"/>
<path opacity=".3" fill="url(#linearGradient3780)" d="m12-92h72a7,7 0 0,1 7,7v71a7,7 0 0,1 -7,7h-72a7,7 0 0,1 -7-7v-71a7,7 0 0,1 7-7" transform="scale(1 -1)"/>
<path opacity=".45" fill="url(#linearGradient3721)" d="m12-91h72a6,6 0 0,1 6,6v72a6,6 0 0,1 -6,6h-72a6,6 0 0,1 -6-6v-72a6,6 0 0,1 6-6" transform="scale(1 -1)"/>
<path fill="url(#linearGradient3706)" d="m12,6h72a6,6 0 0,1 6,6v72a6,6 0 0,1 -6,6h-72a6,6 0 0,1 -6-6v-72a6,6 0 0,1 6-6"/>
<path opacity=".5" fill="url(#linearGradient3923)" d="m12,6c-3.324,0-6,2.676-6,6v2 68 2c0,.3347 .0413,.6507 .0938,.9688 .0487,.2956 .097,.5969 .1875,.875 .0099,.0304 .0209,.0636 .0312,.0938 .0989,.2878 .2349,.5475 .375,.8125 .1446,.2735 .3156,.5356 .5,.7812 .1844,.2456 .3738,.4735 .5938,.6875 .4399,.4281 .9429,.8145 1.5,1.0938 .2785,.1396 .5735,.2469 .875,.3438-.2562-.1002-.4867-.2363-.7188-.375-.0074-.0044-.0239,.0045-.0312,0-.0319-.0193-.0623-.0425-.0938-.0625-.1204-.0767-.231-.1635-.3438-.25-.1062-.0808-.2133-.1611-.3125-.25-.1779-.1614-.3475-.3454-.5-.5312-.1076-.1303-.2184-.2653-.3125-.4062-.0251-.0384-.0385-.0859-.0625-.125-.0648-.103-.1302-.2045-.1875-.3125-.101-.1947-.2057-.4157-.2812-.625-.008-.0218-.0236-.0405-.0312-.0625-.0318-.0919-.0358-.1868-.0625-.2812-.0303-.1066-.0704-.203-.0938-.3125-.0729-.3415-.125-.6982-.125-1.0625v-2-68-2c0-2.7818 2.2182-5 5-5h2 68 2c2.7818,0 5,2.2182 5,5v2 68 2c0,.3643-.0521,.721-.125,1.0625-.0442,.2069-.0884,.3977-.1562,.5938-.0077,.022-.0233,.0407-.0312,.0625-.0627,.1737-.1384,.3674-.2188,.5312-.0416,.0828-.079,.17-.125,.25-.0546,.0972-.1268,.1883-.1875,.2812-.0941,.141-.2049,.276-.3125,.4062-.1432,.1744-.3031,.347-.4688,.5-.0112,.0102-.02,.0212-.0312,.0312-.1384,.1256-.2851,.2344-.4375,.3438-.1026,.0731-.2043,.1534-.3125,.2188-.0074,.0045-.0238-.0044-.0312,0-.232,.1387-.4625,.2748-.7188,.375 .3015-.0968 .5965-.2041 .875-.3438 .5571-.2792 1.0601-.6657 1.5-1.0938 .22-.214 .4094-.4419 .5938-.6875 .1844-.2456 .3554-.5077 .5-.7812 .1401-.265 .2761-.5247 .375-.8125 .0104-.0308 .0213-.0627 .0312-.0938 .0905-.2781 .1388-.5794 .1875-.875 .0524-.318 .0938-.634 .0938-.9688v-2-68-2c0-3.324-2.676-6-6-6h-72z"/>
<path opacity=".4" fill="url(#radialGradient2886)" d="m12,90c-3.324,0-6-2.676-6-6v-2-68-2c0-.3347 .0413-.6507 .0938-.9688 .0487-.2956 .097-.5969 .1875-.875 .0099-.0304 .0209-.0636 .0312-.0938 .0989-.2878 .2349-.5475 .375-.8125 .1446-.2735 .3156-.5356 .5-.7812 .1844-.2456 .3738-.4735 .5938-.6875 .4399-.4281 .9429-.8145 1.5-1.0938 .2785-.1396 .5735-.2469 .875-.3438-.2562,.1002-.4867,.2363-.7188,.375-.0074,.0044-.0239-.0045-.0312,0-.0319,.0193-.0623,.0425-.0938,.0625-.1204,.0767-.231,.1635-.3438,.25-.1062,.0808-.2133,.1611-.3125,.25-.1779,.1614-.3475,.3454-.5,.5312-.1076,.1303-.2184,.2653-.3125,.4062-.0251,.0384-.0384,.0859-.0625,.125-.0648,.103-.1302,.2045-.1875,.3125-.101,.1947-.2057,.4157-.2812,.625-.008,.0218-.0236,.0405-.0312,.0625-.0318,.092-.0358,.1868-.0625,.2812-.0303,.1066-.0704,.203-.0938,.3125-.0729,.3415-.125,.6982-.125,1.0625v2 68 2c0,2.7818 2.2182,5 5,5h2 68 2c2.7818,0 5-2.2182 5-5v-2-68-2c0-.3643-.0521-.721-.125-1.0625-.0442-.2069-.0884-.3977-.1562-.5938-.0077-.022-.0233-.0407-.0312-.0625-.0627-.1737-.1384-.3674-.2188-.5312-.0416-.0828-.079-.17-.125-.25-.0546-.0972-.1268-.1883-.1875-.2812-.0941-.141-.2049-.276-.3125-.4062-.1432-.1745-.3031-.347-.4688-.5-.0112-.0102-.02-.0211-.0312-.0312-.1384-.1256-.2851-.2344-.4375-.3438-.1026-.0732-.2043-.1534-.3125-.2188-.0074-.0045-.0238,.0044-.0312,0-.232-.1387-.4625-.2748-.7188-.375 .3015,.0968 .5965,.2041 .875,.3438 .5571,.2792 1.0601,.6657 1.5,1.0938 .22,.214 .4094,.4419 .5938,.6875 .1844,.2456 .3554,.5077 .5,.7812 .1401,.265 .2761,.5247 .375,.8125 .0104,.0308 .0213,.0627 .0312,.0938 .0905,.2781 .1388,.5794 .1875,.875 .0524,.318 .0938,.634 .0938,.9688v2 68 2c0,3.324-2.676,6-6,6h-72z"/>
<path fill="#f0f" d="m-88,6h72a6,6 0 0,1 6,6v72a6,6 0 0,1 -6,6h-72a6,6 0 0,1 -6-6v-72a6,6 0 0,1 6-6"/>
<path fill="#fff" stroke="#000" stroke-linecap="round" color="#000" stroke-width=".5" d="m112,8h16v16h-16z" stroke-dashoffset="8.6"/>
<text x="131.393" y="11.969" font-family="Liberation Sans" text-align="start" line-height="125%" xml:space="preserve" font-size="4px"><tspan x="131.393" y="11.969">Width: 2px</tspan><tspan x="131.393" y="16.969">Blur: 12</tspan><tspan x="131.393" y="21.969">Opacity: 60</tspan>
</text>
<path opacity=".5" fill="url(#linearGradient3707)" filter="url(#filter3794)" stroke="#fff" stroke-linecap="round" stroke-width=".5" d="m27,15h42a12,12 0 0,1 12,12v42a12,12 0 0,1 -12,12h-42a12,12 0 0,1 -12-12v-42a12,12 0 0,1 12-12" clip-path="url(#clipPath3613)"/>
<path fill="url(#radialGradient2898)" d="m15,24h66a3,3 0 0,1 3,3v42a3,3 0 0,1 -3,3h-66a3,3 0 0,1 -3-3v-42a3,3 0 0,1 3-3"/>
<path opacity=".15" fill="#d9c6ed" d="m15,24c-1.662,0-3,1.338-3,3v1 8.0625 18.0625c19.0884-7.9192 44.2743-12.8882 72-13.3125v-4.75-8.0625-1c0-1.662-1.338-3-3-3h-1-64-1z"/>
<path opacity=".15" d="m15,24c-1.662,0-3,1.338-3,3v42c0,1.662 1.338,3 3,3h66c1.662,0 3-1.338 3-3v-42c0-1.662-1.338-3-3-3h-66zm0,2 66,0c.5809,0 1,.4191 1,1v42c0,.5809-.4191,1-1,1h-66c-.5809,0-1-.4191-1-1v-42c0-.5809 .4191-1 1-1z"/>
<path opacity=".3" d="m15,24c-1.662,0-3,1.338-3,3v42c0,1.662 1.338,3 3,3h66c1.662,0 3-1.338 3-3v-42c0-1.662-1.338-3-3-3h-66zm0,1 66,0c1.1214,0 2,.8786 2,2v42c0,1.1214-.8786,2-2,2h-66c-1.1214,0-2-.8786-2-2v-42c0-1.1214 .8786-2 2-2z"/>
<g fill="#fff" line-height="125%">
<path line-height="145.00000477%" d="m-77.3125,27.8438-1.5938,2.9375 .3438,0 1.5938-2.9375-.3438,0zm.9375,0 0,2.4688c0,.0508 .0013,.1094 0,.1562 0,.0469 .0013,.0859 0,.125-.0013,.0391 .0013,.0651 0,.0938-.0013,.0273-.0299,.0508-.0312,.0625h.3438c.0013-.0052-.0013-.0104 0-.0312 .0026-.0221 .0299-.0638 .0312-.0938 .0026-.0299-.0013-.0586 0-.0938 .0013-.0365-0-.0599 0-.0938 .0625,.1276 .1393,.2253 .25,.2812 .1107,.056 .2552,.0625 .4062,.0625 .2461,0 .431-.0977 .5625-.2812 .1328-.1836 .1875-.4427 .1875-.8125-0-.3659-.0599-.6328-.1875-.8125-.1276-.181-.3086-.2812-.5625-.2812-.1523,0-.2956,.0312-.4062,.0938-.1094,.0612-.1875,.1758-.25,.3125 .0013-.0299-.0013-.0911 0-.125 .0013-.0286-0-.0573 0-.0938 .0013-.0378-0-.056 0-.0938v-.8438h-.3438zm3.0938,0 0,.375 .4062,0 0-.375-.4062,0zm5.5625,0-1.5938,2.9375 .3438,0 1.5938-2.9375-.3438,0zm.9375,0 0,2.4688c0,.0508 .0013,.1094 0,.1562 0,.0469 .0013,.0859 0,.125-.0013,.0391 .0013,.0651 0,.0938-.0013,.0273-.0299,.0508-.0312,.0625h.3438c.0013-.0052-.0013-.0104 0-.0312 .0026-.0221 .0299-.0638 .0312-.0938 .0026-.0299-.0013-.0586 0-.0938 .0013-.0365-0-.0599 0-.0938 .0625,.1276 .1393,.2253 .25,.2812 .1107,.056 .2552,.0625 .4062,.0625 .2461,0 .431-.0977 .5625-.2812 .1328-.1836 .1875-.4427 .1875-.8125-0-.3659-.0599-.6328-.1875-.8125-.1276-.181-.3086-.2812-.5625-.2812-.1523,0-.2956,.0312-.4062,.0938-.1094,.0612-.1875,.1758-.25,.3125 .0013-.0299-.0013-.0911 0-.125 .0013-.0286-0-.0573 0-.0938 .0013-.0378-0-.056 0-.0938v-.8438h-.3438zm7.1875,0 0,2.9062 .3438,0 0-1.2188c0-.1055 .0339-.2005 .0625-.2812 .0286-.082 .0443-.1641 .0938-.2188 .0508-.056 .1211-.0964 .1875-.125 .0677-.0299 .1419-.0312 .2188-.0312 .0625,0 .1354,.0156 .1875,.0312 .0521,.0156 .0872,.0221 .125,.0625 .0391,.0391 .0729,.0885 .0938,.1562 .0221,.0664 .0312,.1771 .0312,.2812v1.3438h.3438v-1.4062c0-.1315 0-.25-.0312-.3438-.0299-.0938-.0977-.1589-.1562-.2188-.0586-.0599-.1341-.0964-.2188-.125-.0846-.0286-.1732-.0625-.2812-.0625-.0833,0-.1497,.0117-.2188,.0312-.0677,.0182-.1341,.0586-.1875,.0938-.0534,.0339-.1146,.0755-.1562,.125-.0417,.0495-.0625,.0951-.0938,.1562 .0039-.0599-.0039-.1224 0-.1875 .0039-.0664-0-.1224 0-.1875v-.7812h-.3438zm-23.4375,.2812-.1875,.7812-.5,0 0,.2188 .4688,0-.1562,.625-.4375,0 0,.2188 .4062,0-.1562,.7812 .2188,0 .1562-.7812 .7188,0-.1875,.7812 .2188,0 .1562-.7812 .5625,0 0-.2188-.5,0 .125-.625 .4688,0 0-.2188-.4062,0 .1562-.7812-.2188,0-.1562,.7812-.7188,0 .1562-.7812-.1875,0zm2.5,0 .0625,1.8438 .2812,0 .0312-1.8438-.375,0zm9.9688,.4688c-.0859,0-.181,.0117-.25,.0312-.069,.0182-.1315,.0586-.1875,.0938-.0547,.0339-.082,.0755-.125,.125-.0417,.0495-.0938,.0951-.125,.1562 0-.026 .0013-.056 0-.0938-.0013-.0391 .0026-.0885 0-.125-.0013-.0378 .0013-.0651 0-.0938-.0013-.0286 .0013-.056 0-.0625h-.3438c.0013,.0091-.0013,.0312 0,.0625 .0013,.0312-.0013,.0807 0,.125 .0013,.043 0,.0755 0,.125 .0013,.0482-0,.112 0,.1562v1.6562h.375v-1.2188c0-.1055 .0026-.2005 .0312-.2812 .0286-.082 .0755-.1641 .125-.2188 .0508-.056 .0898-.0964 .1562-.125 .0677-.0299 .1419-.0312 .2188-.0312 .0625,0 .1354,.0156 .1875,.0312 .0521,.0156 .0872,.0221 .125,.0625 .0391,.0391 .0729,.0885 .0938,.1562 .0221,.0664 .0312,.1771 .0312,.2812v1.3438h.3438v-1.4062c0-.1315-.0013-.25-.0312-.3438-.0286-.0938-.0677-.1589-.125-.2188-.056-.0599-.1354-.0964-.2188-.125-.0833-.0286-.1732-.0625-.2812-.0625zm6.9688,0c-.1393,0-.2448,.0339-.3438,.0625-.0977,.0273-.1849,.043-.25,.0938-.0651,.0508-.1198,.1172-.1562,.1875-.0352,.069-.0495,.1354-.0625,.2188l.375,.0312c.0078-.0664 .0078-.1133 .0312-.1562 .0247-.0443 .056-.069 .0938-.0938 .0378-.026 .1042-.0534 .1562-.0625 .0534-.0104 .0911,0 .1562,0 .0729,0 .1328,.013 .1875,.0312 .0547,.0169 .1211,.0247 .1562,.0625 .0365,.0378 .0456,.0951 .0625,.1562 .0182,.0612 .0312,.1315 .0312,.2188v.125h-.4688c-.1094,.0013-.2057,.0104-.3125,.0312-.1055,.0195-.1979,.043-.2812,.0938-.0833,.0508-.1667,.1289-.2188,.2188-.0508,.0885-.0625,.2044-.0625,.3438 0,.1953 .0521,.3568 .1562,.4688 .1042,.112 .263,.1562 .4688,.1562 .0964,0 .1758-.0104 .25-.0312 .0742-.0208 .1302-.056 .1875-.0938 .0573-.0391 .112-.0703 .1562-.125 .0443-.0547 .0885-.1198 .125-.1875 .0039,.0703 .0156,.1341 .0312,.1875 .0156,.0521 .0638,.0885 .0938,.125 .0299,.0352 .0469,.0755 .0938,.0938 .0482,.0169 .1211,.0312 .1875,.0312 .0495,0 .082-.0261 .125-.0312 .0443-.0052 .0807,.0104 .125,0v-.2188c-.0182,.0039-.0117-.0026-.0312,0-.0195,.0026-.043,0-.0625,0-.0768,0-.1289-.0104-.1562-.0625-.0273-.0534-.0312-.1458-.0312-.25v-.9062c-0-.2305-.0872-.4102-.2188-.5312-.1302-.1224-.3333-.1875-.5938-.1875zm2.4688,0c-.2617,0-.4557,.0794-.5938,.1875-.138,.1081-.2188,.2461-.2188,.4375 0,.1003 .0234,.1849 .0625,.25 .0404,.0651 .0924,.1133 .1562,.1562 .0651,.0417 .1367,.0677 .2188,.0938 .082,.026 .1667,.0716 .25,.0938 .0924,.0247 .1719,.043 .25,.0625 .0794,.0195 .1615,.0352 .2188,.0625 .0573,.0273 .0924,.0534 .125,.0938 .0339,.0391 .0312,.0911 .0312,.1562-0,.0625-.0039,.1133-.0312,.1562-.026,.0417-.0469,.0977-.0938,.125-.0469,.026-.1224,.0195-.1875,.0312-.0638,.0104-.112,.0312-.1875,.0312-.0742,0-.1549,.0065-.2188,0-.0638-.0078-.1068-.0404-.1562-.0625-.0482-.0221-.0898-.0521-.125-.0938-.0339-.043-.0781-.0846-.0938-.1562l-.3125,.0625c.0234,.099 .0755,.1823 .125,.25 .0508,.0664 .1133,.1159 .1875,.1562 .0742,.0404 .1523,.0456 .25,.0625 .099,.0182 .2214,.0312 .3438,.0312 .1367,0 .2383-.0013 .3438-.0312 .1068-.0299 .2083-.0703 .2812-.125 .0729-.056 .1185-.1393 .1562-.2188 .0391-.0794 .0625-.151 .0625-.25-0-.1081-.0143-.2109-.0625-.2812-.0469-.0716-.1133-.1107-.1875-.1562-.0729-.0456-.1602-.0977-.25-.125-.0885-.0273-.1654-.0417-.25-.0625-.0846-.0221-.1797-.0456-.25-.0625-.0703-.0182-.1055-.0378-.1562-.0625-.0508-.0247-.0964-.0573-.125-.0938-.0273-.0378-.0625-.0964-.0625-.1562-0-.1966 .181-.2812 .5-.2812 .0599,0 .1016-.0078 .1562,0 .0547,.0078 .1133,.0404 .1562,.0625 .0443,.0208 .0638,.026 .0938,.0625 .0299,.0365 .0534,.0977 .0625,.1562l.3125-.0312c-.0182-.0898-.0456-.1862-.0938-.25-.0469-.0651-.0859-.1159-.1562-.1562-.0703-.0417-.1602-.0755-.25-.0938-.0898-.0195-.1784-.0312-.2812-.0312zm-12.75,.0312 0,.2812 .625,0 0,1.5625-.8125,0 0,.2812 1.9062,0 0-.2812-.7188,0 0-1.8438-1,0zm-1.5938,.25c.0859,0 .1576-.0013 .2188,.0312 .0625,.0312 .1159,.0885 .1562,.1562 .0417,.0664 .0742,.1445 .0938,.25 .0195,.1042 .0312,.2292 .0312,.375 0,.151-.0091,.2995-.0312,.4062-.0208,.1055-.0521,.1836-.0938,.25-.0417,.0664-.0938,.1263-.1562,.1562-.0625,.0299-.1367,.0312-.2188,.0312-.0846,0-.181-.0065-.25-.0312-.0677-.026-.1081-.0638-.1562-.125-.0469-.0625-.099-.1471-.125-.25-.026-.1029-.0312-.2513-.0312-.4062 0-.1615 .0052-.2969 .0312-.4062 .026-.1107 .0781-.1836 .125-.25 .0482-.0677 .0872-.1276 .1562-.1562 .069-.0299 .1641-.0312 .25-.0312zm9.5938,0c.0859,0 .1576-.0013 .2188,.0312 .0625,.0312 .1159,.0885 .1562,.1562 .0417,.0664 .0742,.1445 .0938,.25 .0195,.1042 .0312,.2292 .0312,.375 0,.151-.0091,.2995-.0312,.4062-.0208,.1055-.0521,.1836-.0938,.25-.0417,.0664-.0938,.1263-.1562,.1562-.0625,.0299-.1367,.0312-.2188,.0312-.0846,0-.181-.0065-.25-.0312-.0677-.026-.1081-.0638-.1562-.125-.0469-.0625-.099-.1471-.125-.25-.026-.1029-.0312-.2513-.0312-.4062 0-.1615 .0052-.2969 .0312-.4062 .026-.1107 .0781-.1836 .125-.25 .0482-.0677 .0872-.1276 .1562-.1562 .069-.0299 .1641-.0312 .25-.0312zm-17.1562,.25 .6875,0-.125,.625-.7188,0 .1562-.625zm19.2812,.5938c.0729-.0104 .1471,.0013 .2188,0h.375v.1562c0,.069-.0052,.1432-.0312,.2188-.026,.0755-.0716,.1562-.125,.2188-.0521,.0625-.1081,.1146-.1875,.1562-.0794,.0404-.1732,.0625-.2812,.0625-.112,0-.1914-.0286-.25-.0938-.0573-.0651-.0938-.1745-.0938-.2812 0-.099 .026-.1602 .0625-.2188 .0365-.0599 .0677-.125 .125-.1562 .0586-.0312 .1159-.0534 .1875-.0625zm-16.7812,.625 0,.4062 .375,0 0-.4062-.375,0zm-1.7188,9.0938 0,.8438 0,.0625c.0013,.0286-0,.0612 0,.0938v.0625c.0013,.0273-0,.056 0,.0625-.0638-.1276-.1432-.2253-.25-.2812-.1055-.056-.2487-.0625-.4062-.0625-.5104,0-.75,.3568-.75,1.0938 0,.3646 .0638,.6315 .1875,.8125 .1237,.181 .2995,.2812 .5625,.2812 .1576,0 .3008-.0326 .4062-.0938 .1055-.0625 .1862-.1758 .25-.3125 0,.0339-.0013,.0872 0,.125 .0013,.0378-.0013,.0612 0,.0938 .0026,.0326 .0286,.0703 .0312,.0938 .0026,.0234-.0013,.026 0,.0312h.3438c-.0013-.0117-.0299-.0352-.0312-.0625-.0013-.0286 .0013-.0547 0-.0938-.0013-.0391 .0013-.0781 0-.125v-.1562-2.4688h-.3438zm1.7812,0 0,.375 .375,0 0-.375-.375,0zm7.9375,0-1.5938,2.9375 .375,0 1.5938-2.9375-.375,0zm.9375,0 0,2.9062 .375,0 0-1.2188c0-.1055 .0026-.2005 .0312-.2812 .0286-.082 .0755-.1328 .125-.1875 .0508-.056 .0898-.1276 .1562-.1562 .0677-.0299 .1419-.0312 .2188-.0312 .0625,0 .1354,.0156 .1875,.0312 .0521,.0156 .0872,.0221 .125,.0625 .0391,.0391 .0729,.1198 .0938,.1875 .0221,.0664 .0312,.1458 .0312,.25v1.3438h.3438v-1.4062c0-.1315 0-.25-.0312-.3438-.0299-.0938-.0664-.1589-.125-.2188-.0586-.0599-.1341-.0964-.2188-.125-.0846-.0286-.2044-.0625-.3125-.0625-.0833,0-.1497,.0117-.2188,.0312-.0677,.0182-.1341,.0586-.1875,.0938-.0534,.0339-.0833,.0755-.125,.125-.0417,.0495-.0938,.0951-.125,.1562 .0039-.0599-.0039-.1224 0-.1875 .0039-.0664 .0312-.1224 .0312-.1875v-.7812h-.375zm11.0625,0-1.5938,2.9375 .3438,0 1.5938-2.9375-.3438,0zm14.4062,0-1.625,2.9375 .375,0 1.5938-2.9375-.3438,0zm1.375,.25-.125,.5625-.3125,0 0,.25 .3125,0 0,1.3125c-0,.1927 .0508,.3477 .1562,.4375 .1055,.0885 .2891,.125 .5,.125 .0703,0 .1211,.0065 .1875,0 .0664-.0065 .1315-.0222 .1875-.0312 .0573-.0091 .1107-.0208 .1562-.0312 .0456-.0104 .0964-.0234 .125-.0312v-.25c-.0312,.0065-.0794-.0078-.125,0-.0443,.0078-.1042,.0247-.1562,.0312-.0508,.0065-.1003,.026-.1562,.0312-.0547,.0039-.1042,0-.1562,0-.1263,0-.2253-.013-.2812-.0625-.0547-.0495-.0625-.1471-.0625-.25v-1.2812h.8438v-.25h-.8438v-.5625h-.25zm-4.4062,.0312c-.0339,.0651-.0938,.1328-.1562,.1875-.0625,.0547-.138,.0846-.2188,.125-.0807,.0391-.1562,.0716-.25,.0938-.0924,.0221-.1849,.0312-.2812,.0312v.2812c.0859,0 .1576,.0195 .25,0 .0924-.0208 .2005-.0599 .2812-.0938 .082-.0339 .1562-.0794 .2188-.125 .0625-.0469 .1003-.1042 .125-.1562v2h-.875v.2812h1.9062v-.2812h-.6875v-2.3438h-.3125zm-28.3438,.4688c-.1068,0-.2057,.0378-.2812,.0625-.0755,.0247-.1315,.0482-.1875,.0938-.0547,.0456-.1159,.0911-.1562,.1562-.0404,.0651-.0573,.138-.0938,.2188h-.0312c-.0026-.0378 .0065-.0807 0-.125-.0065-.0443-.0221-.082-.0312-.125-.0091-.0443-.0208-.0846-.0312-.125-.0091-.0404-.0221-.0625-.0312-.0938h-.3125c.0078,.0312 .0195,.0716 .0312,.125 .0117,.0534 .0208,.0885 .0312,.1562 .0104,.0664 .0234,.1432 .0312,.2188 .0078,.0755-0,.1458 0,.2188v1.375h.3438v-1c-0-.1146 .0312-.2109 .0625-.3125 .0326-.1016 .0651-.1745 .125-.25 .0599-.0768 .1315-.1432 .2188-.1875 .0872-.0443 .2031-.0625 .3125-.0625 .0807,0 .1523-.0078 .2188,0 .0677,.0065 .1263,.0208 .1875,.0312v-.3438c-.0547-.0091-.1172,.0065-.1875,0-.0703-.0065-.1458-.0312-.2188-.0312zm9.1562,0c-.3021,0-.5534,.0977-.7188,.2812-.1641,.1823-.2188,.4492-.2188,.8125 0,.1862 .0182,.362 .0625,.5 .0443,.1367 .1068,.2526 .1875,.3438 .082,.0911 .1667,.1432 .2812,.1875 .1159,.0443 .2643,.0625 .4062,.0625 .1484,0 .2578-.0182 .375-.0625 .1185-.0456 .2305-.0964 .3125-.1875 .082-.0911 .1445-.207 .1875-.3438 .0443-.138 .0625-.3151 .0625-.5-0-.3672-.0638-.6315-.2188-.8125-.1549-.181-.401-.2812-.7188-.2812zm2.125,0c-.0599,0-.1107,.0104-.1562,.0312-.0456,.0195-.0911,.0586-.125,.0938-.0326,.0352-.0703,.0781-.0938,.125-.0234,.0456-.0456,.1055-.0625,.1562 0-.026 .0013-.0573 0-.0938 0-.0365 .0013-.0911 0-.125-.0013-.0352 .0013-.0677 0-.0938-.0013-.0273 .0013-.0247 0-.0312h-.3125c.0013,.0091 .0299,.0312 .0312,.0625 .0013,.0312-.0013,.0495 0,.0938 .0013,.043 0,.1068 0,.1562 .0013,.0482-0,.0807 0,.125v1.6562h.3125v-1.1875c0-.1055 .0182-.1966 .0312-.2812 .013-.0859 .0378-.1589 .0625-.2188 .0247-.0612 .0599-.0924 .0938-.125 .0339-.0339 .0508-.0625 .0938-.0625 .0417,0 .0977,.013 .125,.0312 .0286,.0169 .0456,.0508 .0625,.0938 .0182,.0417 .0234,.0872 .0312,.1562 .0078,.069-0,.1471 0,.25v1.3438h.3438v-1.2188c0-.2187 .013-.3906 .0625-.5 .0508-.1094 .1328-.1562 .2188-.1562 .0417,0 .0664,.013 .0938,.0312 .0286,.0169 .0456,.0508 .0625,.0938 .0182,.0417 .0547,.0872 .0625,.1562 .0078,.069-0,.1471 0,.25v1.3438h.3125v-1.4062c0-.1315 .0156-.25 0-.3438-.0143-.0938-.0599-.1589-.0938-.2188-.0339-.0599-.0703-.0964-.125-.125-.0547-.0286-.1081-.0625-.1875-.0625-.0612,0-.1094,.0143-.1562,.0312-.0469,.0169-.0885,.0612-.125,.0938-.0365,.0326-.0964,.0456-.125,.0938-.0273,.0469-.0391,.1263-.0625,.1875-.0247-.1302-.0677-.25-.125-.3125-.056-.0625-.1354-.0938-.25-.0938zm2.6875,0c-.125,0-.2604,.026-.375,.0625-.1133,.0365-.2253,.1029-.3125,.1875-.0872,.0846-.1354,.2057-.1875,.3438-.0508,.138-.0938,.2969-.0938,.5 0,.1836 .0195,.3294 .0625,.4688 .0443,.138 .1055,.2826 .1875,.375 .082,.0924 .194,.1406 .3125,.1875 .1185,.0469 .2565,.0625 .4062,.0625 .1354,0 .2448-.0013 .3438-.0312 .099-.0312 .181-.0781 .25-.125 .069-.0482 .1458-.0977 .1875-.1562 .0417-.0599 .0729-.1289 .0938-.1875l-.3125-.0625c-.0156,.0469-.0612,.0846-.0938,.125-.0326,.0391-.0768,.0651-.125,.0938-.0482,.0286-.0951,.0456-.1562,.0625-.0599,.0156-.1159,.0312-.1875,.0312-.0964,0-.1758-.026-.25-.0625-.0729-.0378-.138-.0898-.1875-.1562-.0495-.0677-.1003-.1263-.125-.2188-.0247-.0938-.0312-.2018-.0312-.3125h1.5v-.0625c0-.1667 .0026-.2995-.0312-.4375-.0326-.138-.082-.2773-.1562-.375-.0742-.099-.194-.1641-.3125-.2188-.1172-.0547-.2357-.0938-.4062-.0938zm9.5938,0c-.125,0-.2604,.026-.375,.0625-.1133,.0365-.2253,.1029-.3125,.1875-.0872,.0846-.1354,.2057-.1875,.3438-.0508,.138-.0938,.2969-.0938,.5 0,.1836 .0195,.3294 .0625,.4688 .0443,.138 .1055,.2826 .1875,.375 .082,.0924 .194,.1406 .3125,.1875 .1185,.0469 .2565,.0625 .4062,.0625 .1354,0 .2448-.0013 .3438-.0312 .099-.0312 .181-.0781 .25-.125 .069-.0482 .1458-.0977 .1875-.1562 .0417-.0599 .0729-.1289 .0938-.1875l-.3125-.0625c-.0156,.0469-.0612,.0846-.0938,.125-.0326,.0391-.0456,.0651-.0938,.0938-.0482,.0286-.1263,.0456-.1875,.0625-.0599,.0156-.1159,.0312-.1875,.0312-.0964,0-.1758-.026-.25-.0625-.0729-.0378-.138-.0898-.1875-.1562-.0495-.0677-.1003-.1263-.125-.2188-.0247-.0938-.0312-.2018-.0312-.3125h1.5v-.0625c0-.1667 .0026-.2995-.0312-.4375-.0326-.138-.082-.2773-.1562-.375-.0742-.099-.194-.1641-.3125-.2188-.1172-.0547-.2357-.0938-.4062-.0938zm2.8125,0c-.1068,0-.2057,.0378-.2812,.0625-.0755,.0247-.1315,.0482-.1875,.0938-.0547,.0456-.0846,.0911-.125,.1562-.0404,.0651-.0885,.138-.125,.2188-.0026-.0378-.0247-.0807-.0312-.125-.0065-.0443-.0222-.082-.0312-.125-.0091-.0443-.0208-.0846-.0312-.125-.0091-.0404 .0091-.0625 0-.0938h-.3438c.0078,.0312 .0195,.0716 .0312,.125 .0117,.0534 .0208,.0885 .0312,.1562 .0104,.0664 .0234,.1432 .0312,.2188 .0078,.0755 0,.1458 0,.2188v1.375h.3438v-1c-0-.1146 .0312-.2109 .0625-.3125 .0326-.1016 .0651-.1745 .125-.25 .0599-.0768 .1315-.1432 .2188-.1875 .0872-.0443 .2031-.0625 .3125-.0625 .0807,0 .1523-.0078 .2188,0 .0677,.0065 .1263,.0208 .1875,.0312v-.3438c-.0547-.0091-.1172,.0065-.1875,0-.0703-.0065-.1458-.0312-.2188-.0312zm8.875,0c-.0599,0-.1107,.0104-.1562,.0312-.0456,.0195-.0911,.0586-.125,.0938-.0326,.0352-.0391,.0781-.0625,.125-.0234,.0456-.0456,.1055-.0625,.1562 0-.026 .0013-.0573 0-.0938 0-.0365-.0299-.0911-.0312-.125-.0013-.0352 .0013-.0677 0-.0938-.0013-.0273 .0013-.0247 0-.0312h-.2812c.0013,.0091-.0013,.0312 0,.0625 .0013,.0312-.0013,.0495 0,.0938 .0013,.043 0,.1068 0,.1562 .0013,.0482-0,.0807 0,.125v1.6562h.3438v-1.1875c0-.1055 .0182-.1966 .0312-.2812 .013-.0859 .0065-.1589 .0312-.2188 .0247-.0612 .0599-.0924 .0938-.125 .0339-.0339 .082-.0625 .125-.0625 .0417,0 .0664,.013 .0938,.0312 .0286,.0169 .0456,.0508 .0625,.0938 .0182,.0417 .0547,.0872 .0625,.1562 .0078,.069-0,.1471 0,.25v1.3438h.3125v-1.2188c0-.2187 .0443-.3906 .0938-.5 .0508-.1094 .1016-.1562 .1875-.1562 .0417,0 .0977,.013 .125,.0312 .0286,.0169 .0456,.0508 .0625,.0938 .0182,.0417 .0234,.0872 .0312,.1562 .0078,.069-0,.1471 0,.25v1.3438h.3438v-1.4062c0-.1315-.0156-.25-.0312-.3438-.0143-.0938-.0286-.1589-.0625-.2188-.0339-.0599-.0703-.0964-.125-.125-.0547-.0286-.1393-.0625-.2188-.0625-.0612,0-.1094,.0143-.1562,.0312-.0469,.0169-.0885,.0612-.125,.0938-.0365,.0326-.0651,.0456-.0938,.0938-.0273,.0469-.0703,.1263-.0938,.1875-.0247-.1302-.0677-.25-.125-.3125-.056-.0625-.1354-.0938-.25-.0938zm2.8438,0c-.0807,0-.1536,.0156-.2188,.0312-.0651,.0143-.1042,.0299-.1562,.0625-.0521,.0312-.1146,.0755-.1562,.125-.0404,.0495-.0612,.1198-.0938,.1875h-.0312c0-.0339 .0026-.0859 0-.125-.0013-.0391 .0026-.0599 0-.0938-.0013-.0339 .0026-.0703 0-.0938-.0013-.0247 .0013-.0273 0-.0312h-.3438c.0013,.0117-.0013,.0039 0,.0312 .0013,.0273-.0013,.0859 0,.125 .0013,.0378 0,.0768 0,.125 .0013,.0482 0,.1042 0,.1562v2.5h.3438v-.8438c0-.0378 .0013-.056 0-.0938 0-.0378 .0013-.0951 0-.125 0-.0299 .0013-.043 0-.0625 .0277,.0551 .0873,.085 .125,.125 .0443,.0456 .1003,.0964 .1562,.125 .056,.0286 .1224,.0495 .1875,.0625 .0651,.013 .1159,0 .1875,0 .1432,0 .2773-.0078 .375-.0625 .0977-.056 .1589-.1523 .2188-.25 .0599-.0977 .099-.2083 .125-.3438 .026-.1354 .0625-.2773 .0625-.4375 0-.1628-.0365-.3034-.0625-.4375-.026-.1341-.0651-.2487-.125-.3438-.0599-.0964-.1211-.1667-.2188-.2188-.0977-.0521-.2318-.0938-.375-.0938zm-16.9375,.0312c-.2617,0-.4557,.0482-.5938,.1562-.138,.1081-.2188,.2461-.2188,.4375 0,.1003 .0234,.1849 .0625,.25 .0404,.0651 .0924,.1133 .1562,.1562 .0651,.0417 .1367,.0677 .2188,.0938 .082,.026 .1667,.0716 .25,.0938 .0924,.0247 .1719,.043 .25,.0625 .0794,.0195 .1615,.0352 .2188,.0625 .0573,.0273 .0924,.0534 .125,.0938 .0339,.0391 .0625,.0911 .0625,.1562-0,.0625-.0039,.1133-.0312,.1562-.026,.0417-.0781,.0977-.125,.125-.0469,.026-.0911,.0508-.1562,.0625-.0638,.0104-.1432,0-.2188,0-.0742,0-.1549,.0065-.2188,0-.0638-.0078-.1068-.0404-.1562-.0625-.0482-.0221-.0898-.0521-.125-.0938-.0339-.043-.0469-.0846-.0625-.1562l-.3125,.0625c.0234,.099 .0443,.1823 .0938,.25 .0508,.0664 .1133,.1159 .1875,.1562 .0742,.0404 .1523,.0768 .25,.0938 .099,.0182 .2214,0 .3438,0 .1367,0 .2695-.0013 .375-.0312 .1068-.0299 .1771-.0703 .25-.125 .0729-.056 .1497-.1393 .1875-.2188 .0391-.0794 .0312-.151 .0312-.25h.0312c-0-.1081-.0456-.2109-.0938-.2812-.0469-.0716-.1133-.1107-.1875-.1562-.0729-.0456-.1289-.0977-.2188-.125-.0885-.0273-.1966-.0417-.2812-.0625-.0846-.0221-.1484-.0456-.2188-.0625-.0703-.0182-.1367-.0378-.1875-.0625-.0508-.0247-.0964-.0573-.125-.0938-.0273-.0378-.0312-.0964-.0312-.1562-0-.1966 .1497-.2812 .4688-.2812 .0599,0 .1328-.0078 .1875,0 .0547,.0078 .082,.0404 .125,.0625 .0443,.0208 .0951,.026 .125,.0625 .0299,.0365 .0534,.0977 .0625,.1562l.3125-.0312c-.0182-.0898-.0456-.1862-.0938-.25-.0469-.0651-.1172-.1159-.1875-.1562-.0703-.0417-.1602-.0755-.25-.0938-.0898-.0195-.1784,0-.2812,0zm-24.7188,.0312v.25h.625v1.5625h-.8125v.2812h1.9062v-.2812h-.75v-1.8125h-.9688zm21.4688,0 0,1.4062c0,.1302 .0065,.2174 .0312,.3125 .026,.0938 .0703,.1901 .125,.25 .0547,.0599 .1341,.0964 .2188,.125 .0846,.0286 .1641,.0312 .2812,.0312 .0911,0 .181,.0195 .25,0 .069-.0182 .1341-.0599 .1875-.0938 .0534-.0352 .1159-.0755 .1562-.125 .0404-.0495 .0599-.0951 .0938-.1562 0,.026-.0013,.0547 0,.0938v.0938c.0026,.0365 .0299,.0964 .0312,.125 .0013,.0286-.0013,.0247 0,.0312h.3125c-.0013-.0091 .0013-.0312 0-.0625-.0013-.0312 .0013-.0508 0-.0938-.0013-.0443 .0013-.1081 0-.1562v-.125-1.6562h-.3438v1.2188c0,.1055-.0365,.1992-.0625,.2812-.0247,.0807-.0456,.1315-.0938,.1875-.0469,.0547-.1198,.0951-.1875,.125-.0664,.0286-.1354,.0625-.2188,.0625-.082,0-.1315-.0143-.1875-.0312-.0547-.0182-.1211-.0521-.1562-.0938-.0339-.043-.0469-.0872-.0625-.1562-.0143-.069-.0312-.1784-.0312-.2812v-1.3125h-.3438zm-16.9062,.125v.3125h1.9375v-.3125h-1.9375zm-6.3125,.0938c.0898,0 .181,.0039 .25,.0312 .069,.0273 .1094,.0938 .1562,.1562 .0469,.0625 .1016,.1159 .125,.2188 .0247,.1016 .0312,.2552 .0312,.4062 0,.1563-.0065,.2656-.0312,.375-.0234,.1094-.0768,.2122-.125,.2812-.0469,.0677-.0859,.125-.1562,.1562-.069,.0312-.1602,.0312-.25,.0312-.0872,0-.1562,0-.2188-.0312-.0625-.0326-.1159-.0885-.1562-.1562-.0391-.0677-.0742-.1458-.0938-.25-.0182-.1042-.0312-.2292-.0312-.375 0-.151 .0104-.3008 .0312-.4062 .0208-.1068 .0534-.1836 .0938-.25 .0417-.0664 .0938-.1263 .1562-.1562 .0625-.0299 .1354-.0312 .2188-.0312zm14.4688,0c.0833,0 .1497,.0052 .2188,.0312 .069,.0247 .138,.0612 .1875,.125 .0508,.0638 .0977,.1432 .125,.25 .0286,.1068 .0312,.2422 .0312,.4062 0,.1641-.0013,.2982-.0312,.4062-.0286,.1081-.0729,.2174-.125,.2812-.0521,.0638-.1146,.099-.1875,.125-.0716,.0247-.1654,.0312-.25,.0312-.0742,0-.1185-.0052-.1875-.0312-.0677-.026-.1354-.0612-.1875-.125-.0508-.0638-.0938-.1745-.125-.2812-.0299-.1081-.0625-.2422-.0625-.4062 0-.1602 .0339-.2682 .0625-.375 .0299-.1068 .0742-.2174 .125-.2812 .0521-.0651 .1159-.099 .1875-.125 .0716-.0273 .1341-.0312 .2188-.0312zm4.8125,0c.0703,0 .1237,.0104 .1875,.0312 .0638,.0208 .138,.0443 .1875,.0938 .0508,.0495 .0911,.1055 .125,.1875 .0339,.082 .0521,.1901 .0625,.3125h-1.1562c.0039-.1276 .0247-.2305 .0625-.3125 .0391-.0833 .1003-.1393 .1562-.1875 .056-.0482 .1224-.0755 .1875-.0938 .0664-.0195 .1276-.0312 .1875-.0312zm9.5938,0c.0703,0 .1237,.0104 .1875,.0312 .0638,.0208 .138,.0443 .1875,.0938 .0508,.0495 .0911,.1055 .125,.1875 .0339,.082 .0521,.1901 .0625,.3125h-1.1562c.0039-.1276 .0247-.2305 .0625-.3125 .0391-.0833 .1003-.1393 .1562-.1875 .056-.0482 .1224-.0755 .1875-.0938 .0664-.0195 .1276-.0312 .1875-.0312zm14.4375,0c.0951,0 .1875,.026 .25,.0625 .0638,.0365 .1185,.0859 .1562,.1562 .0391,.069 .0469,.1484 .0625,.25 .0156,.1016 .0312,.2135 .0312,.3438 0,.1354-.0143,.2695-.0312,.375-.0156,.1055-.0234,.1784-.0625,.25-.0378,.0716-.0924,.1185-.1562,.1562-.0638,.0365-.1549,.0625-.25,.0625-.0885,0-.1497-.0039-.2188-.0312-.069-.0273-.1406-.0625-.1875-.125-.0469-.0638-.069-.1484-.0938-.25-.0234-.1029-.0625-.2565-.0625-.4062 0-.1758 .0339-.2943 .0625-.4062 .0299-.112 .0755-.2188 .125-.2812 .0508-.0638 .0885-.1016 .1562-.125 .0677-.0247 .1419-.0312 .2188-.0312zm-37,.9062 0,.3125 1.9375,0 0-.3125-1.9375,0zm3.8438,3.875 0,.8125 0,.0625c.0013,.0286-0,.0612 0,.0938v.0938c.0013,.0273-0,.056 0,.0625-.0638-.1276-.1432-.2253-.25-.2812-.1055-.056-.2487-.0938-.4062-.0938-.5104,0-.75,.388-.75,1.125 0,.3646 .0638,.6315 .1875,.8125 .1237,.181 .2995,.25 .5625,.25 .1576,0 .3008-.0013 .4062-.0625 .1055-.0625 .1862-.1758 .25-.3125 0,.0339-.0013,.056 0,.0938 .0013,.0378-.0013,.0924 0,.125 .0026,.0326 .0286,.0391 .0312,.0625 .0026,.0234-.0013,.0573 0,.0625h.3438c-.0013-.0117-.0299-.0352-.0312-.0625-.0013-.0286 .0013-.0547 0-.0938-.0013-.0391 .0013-.0781 0-.125v-.1562-2.4688h-.3438zm1.7812,0 0,.375 .375,0 0-.375-.375,0zm5.5625,0-1.625,2.9375 .375,0 1.5938-2.9375-.3438,0zm1.625,0 .0312,.5938-.5312-.2188-.0625,.25 .5312,.1562-.375,.4688 .25,.1562 .2812-.5 .3125,.5 .2188-.125-.3438-.5 .5312-.1562-.0938-.25-.5,.2188 .0312-.5938-.2812,0zm15.1562,0-1.5938,2.9375 .3438,0 1.5938-2.9375-.3438,0zm.9375,0 0,2.9062 .3438,0 0-1.2188c0-.1055 .0026-.2005 .0312-.2812 .0286-.082 .0755-.1641 .125-.2188 .0508-.056 .1211-.0964 .1875-.125 .0677-.0299 .1419-.0312 .2188-.0312 .0625,0 .1042-.0156 .1562,0 .0521,.0156 .1185,.0534 .1562,.0938 .0391,.0391 .0417,.0885 .0625,.1562 .0221,.0664 .0312,.1458 .0312,.25v1.375h.375v-1.4062c0-.1315-.0312-.25-.0625-.3438-.0299-.0938-.0664-.1589-.125-.2188-.0586-.0599-.1341-.1276-.2188-.1562-.0846-.0286-.1732-.0312-.2812-.0312-.0833,0-.1497,.0117-.2188,.0312-.0677,.0182-.1341,.0273-.1875,.0625-.0534,.0339-.1146,.0755-.1562,.125-.0417,.0495-.0625,.1263-.0938,.1875 .0039-.0599-.0039-.1224 0-.1875 .0039-.0664 0-.1536 0-.2188v-.75h-.3438zm11.0625,0-1.625,2.9375 .375,0 1.5938-2.9375-.3438,0zm-39.125,.0312 0,.25c-.1211,.0039-.2409,.0052-.3438,.0312-.1016,.026-.1758,.0729-.25,.125-.0742,.0508-.1458,.1094-.1875,.1875-.0417,.0768-.0625,.1745-.0625,.2812 0,.082 .0117,.1549 .0312,.2188 .0208,.0625 .0573,.1081 .0938,.1562 .0365,.0469 .0755,.0885 .125,.125 .0495,.0352 .099,.0677 .1562,.0938 .0573,.0247 .1237,.043 .1875,.0625 .0638,.0182 .1237,.0469 .1875,.0625 .0026,0 .0273-.0013 .0312,0 .0091,.0026 .0208-.0026 .0312,0v.9688c-.1003-.0052-.1771-.0365-.25-.0625-.0729-.0273-.1367-.0495-.1875-.0938-.0495-.0443-.0951-.0977-.125-.1562-.0286-.0599-.0482-.1172-.0625-.1875l-.3438,.0625c.0443,.2174 .1549,.3789 .3125,.5 .1589,.1198 .3763,.2097 .6562,.2188v.3125h.25v-.3125c.1549-.0065 .293-.026 .4062-.0625 .1146-.0378 .207-.0951 .2812-.1562 .0742-.0625 .1198-.1354 .1562-.2188 .0365-.0833 .0625-.1836 .0625-.2812-0-.0938-.0078-.1797-.0312-.25-.0234-.0703-.0508-.1354-.0938-.1875-.0417-.0534-.099-.0872-.1562-.125-.0573-.0378-.1198-.0664-.1875-.0938-.0664-.0286-.1445-.043-.2188-.0625-.0742-.0208-.1432-.0443-.2188-.0625v-.8438c.0768,.0052 .1615,.0091 .2188,.0312 .0573,.0208 .0846,.056 .125,.0938 .0417,.0365 .069,.0729 .0938,.125 .026,.0508 .0495,.125 .0625,.1875l.3438-.0625c-.026-.099-.0521-.2057-.0938-.2812-.0417-.0768-.0898-.1354-.1562-.1875-.0664-.0521-.1549-.0964-.25-.125-.0938-.0286-.2109-.026-.3438-.0312v-.25h-.25zm50.4688,.1875c-.138,0-.2383,.0247-.3438,.0625-.1055,.0378-.2083,.0898-.2812,.1562-.0716,.0651-.1146,.1315-.1562,.2188-.0417,.0872-.082,.1823-.0938,.2812l.3438,.0312c.0091-.0768 .0339-.1302 .0625-.1875 .0286-.0586 .0794-.1172 .125-.1562 .0456-.0391 .0964-.0742 .1562-.0938 .0612-.0195 .1172-.0312 .1875-.0312 .0768,0 .1562,.013 .2188,.0312 .0638,.0169 .1107,.056 .1562,.0938 .0469,.0365 .1003,.0677 .125,.125 .026,.056 .0312,.1406 .0312,.2188 0,.0964-.0391,.194-.0938,.2812-.0547,.0859-.1315,.1654-.2188,.25-.0859,.0833-.1732,.1641-.2812,.25-.1068,.0859-.2057,.1862-.3125,.2812-.1055,.0938-.2188,.1745-.3125,.2812-.0938,.1068-.1615,.2487-.2188,.375v.2188h1.8438v-.2812h-1.4062c.0417-.0911 .1042-.1979 .1875-.2812 .0833-.0846 .1484-.1667 .25-.25 .1016-.0833 .2057-.1654 .3125-.25 .1068-.0846 .2253-.1562 .3125-.25 .0885-.0938 .1628-.2083 .2188-.3125 .056-.1055 .0625-.2214 .0625-.3438 0-.1159-.0221-.2227-.0625-.3125-.0404-.0898-.0794-.1589-.1562-.2188-.0755-.0612-.1719-.0938-.2812-.125-.1081-.0312-.2383-.0625-.375-.0625zm-50.4688,.3125 0,.8125c-.0703-.0182-.1263-.043-.1875-.0625-.0599-.0195-.1107-.0326-.1562-.0625-.0443-.0312-.099-.0794-.125-.125-.026-.0469-.0312-.1172-.0312-.1875 0-.0508 .0143-.0807 .0312-.125 .0182-.0456 .0547-.0911 .0938-.125 .0391-.0352 .0924-.0729 .1562-.0938 .0638-.0221 .1263-.0273 .2188-.0312zm-7.375,.2188c-.0599,0-.1107,.0104-.1562,.0312-.0456,.0195-.0599,.0586-.0938,.0938-.0326,.0352-.0703,.0781-.0938,.125-.0234,.0456-.0456,.0742-.0625,.125 0-.026 .0013-.0573 0-.0938 0-.0365 .0013-.0599 0-.0938-.0013-.0352 .0013-.0677 0-.0938-.0013-.0273-.0299-.056-.0312-.0625h-.2812c.0013,.0091-.0013,.0312 0,.0625 .0013,.0312-.0013,.0807 0,.125 .0013,.043 0,.0755 0,.125 .0013,.0482 .0312,.112 .0312,.1562v1.6562h.3125v-1.1875c0-.1055 .0182-.1966 .0312-.2812 .013-.0859 .0378-.1589 .0625-.2188 .0247-.0612 .0286-.1237 .0625-.1562 .0339-.0339 .082-.0312 .125-.0312 .0417,0 .0664,.013 .0938,.0312 .0286,.0169 .0768,.0195 .0938,.0625 .0182,.0417 .0234,.1185 .0312,.1875 .0078,.069-0,.1471 0,.25v1.3438h.3438v-1.2188c0-.2187 .013-.3906 .0625-.5 .0508-.1094 .1328-.1562 .2188-.1562 .0417,0 .0664,.013 .0938,.0312 .0286,.0169 .0456,.0195 .0625,.0625 .0182,.0417 .0234,.1185 .0312,.1875 .0078,.069 .0312,.1471 .0312,.25v1.3438h.3125v-1.4062c-0-.1315-.0156-.25-.0312-.3438-.0143-.0938-.0286-.1589-.0625-.2188-.0339-.0599-.0703-.1276-.125-.1562-.0547-.0286-.1393-.0312-.2188-.0312-.0612,0-.1094,.0143-.1562,.0312-.0469,.0169-.0885,.0299-.125,.0625-.0365,.0326-.0651,.0768-.0938,.125-.0273,.0469-.0391,.0951-.0625,.1562-.0247-.1302-.0677-.2188-.125-.2812-.056-.0625-.1667-.0938-.2812-.0938zm15.125,0c-.1068,0-.2057,.0065-.2812,.0312-.0755,.0247-.1315,.0794-.1875,.125-.0547,.0456-.1159,.0911-.1562,.1562-.0404,.0651-.0573,.138-.0938,.2188h-.0312c-.0026-.0378 .0065-.0807 0-.125-.0065-.0443-.0221-.082-.0312-.125-.0091-.0443-.0208-.0846-.0312-.125-.0091-.0404-.0221-.0938-.0312-.125h-.3125c.0078,.0312 .0195,.0716 .0312,.125 .0117,.0534 .0208,.1198 .0312,.1875 .0104,.0664 .0234,.1432 .0312,.2188 .0078,.0755-0,.1458 0,.2188v1.375h.3438v-1c-0-.1146 .0312-.2109 .0625-.3125 .0326-.1016 .0651-.2057 .125-.2812 .0599-.0768 .1315-.1432 .2188-.1875 .0872-.0443 .2031-.0625 .3125-.0625 .0807,0 .1523,.0234 .2188,.0312 .0677,.0065 .1263-.0104 .1875,0v-.3125c-.0547-.0091-.1172-.0247-.1875-.0312-.0703-.0065-.1458,0-.2188,0zm9.1562,0c-.2617,0-.4557,.0482-.5938,.1562-.138,.1081-.1875,.2773-.1875,.4688 0,.1003 .0234,.1849 .0625,.25 .0404,.0651 .0924,.1133 .1562,.1562 .0651,.0417 .1367,.0677 .2188,.0938 .082,.026 .1667,.0404 .25,.0625 .0924,.0247 .1719,.0742 .25,.0938 .0794,.0195 .1302,.0352 .1875,.0625 .0573,.0273 .1237,.0534 .1562,.0938 .0339,.0391 .0312,.0911 .0312,.1562-0,.0625-.0039,.1133-.0312,.1562-.026,.0417-.0781,.0664-.125,.0938-.0469,.026-.0911,.0508-.1562,.0625-.0638,.0104-.1432,.0312-.2188,.0312-.0742,0-.1237-.0247-.1875-.0312-.0638-.0078-.138-.0091-.1875-.0312-.0482-.0221-.0898-.0521-.125-.0938-.0339-.043-.0469-.1159-.0625-.1875l-.3125,.0625c.0234,.099 .0443,.1823 .0938,.25 .0508,.0664 .1133,.1159 .1875,.1562 .0742,.0404 .1836,.0768 .2812,.0938 .099,.0182 .1901,.0312 .3125,.0312 .1367,0 .2695-.0013 .375-.0312 .1068-.0299 .2083-.0703 .2812-.125 .0729-.056 .1185-.1393 .1562-.2188 .0391-.0794 .0625-.151 .0625-.25-0-.1081-.0456-.2109-.0938-.2812-.0469-.0716-.082-.1419-.1562-.1875-.0729-.0456-.1602-.0664-.25-.0938-.0885-.0273-.1654-.0417-.25-.0625-.0846-.0221-.1797-.0456-.25-.0625-.0703-.0182-.1367-.0378-.1875-.0625-.0508-.0247-.0964-.0573-.125-.0938-.0273-.0378-.0312-.0964-.0312-.1562 0-.1966 .1497-.2812 .4688-.2812 .0599,0 .1328-.0078 .1875,0 .0547,.0078 .1133,.0091 .1562,.0312 .0443,.0208 .0638,.0573 .0938,.0938 .0299,.0365 .0534,.0977 .0625,.1562l.3125-.0625c-.0182-.0898-.0456-.1549-.0938-.2188-.0469-.0651-.1172-.1159-.1875-.1562-.0703-.0417-.1289-.0755-.2188-.0938-.0898-.0195-.2096-.0312-.3125-.0312zm4.6562,0c-.1432,0-.276,.0143-.375,.0625-.099,.0482-.1562,.1263-.2188,.2188-.0612,.0911-.1276,.2109-.1562,.3438-.0273,.1328-.0312,.2982-.0312,.4688 0,.1758 .0039,.306 .0312,.4375 .0286,.1315 .0964,.2565 .1562,.3438 .0599,.0872 .125,.1445 .2188,.1875 .0938,.043 .2109,.0625 .3438,.0625 .0938,0 .1784-.0091 .25-.0312 .0716-.0234 .1341-.056 .1875-.0938 .0547-.0378 .0872-.0755 .125-.125 .0391-.0495 .069-.1042 .0938-.1562v.375c-0,.112-.0078,.2031-.0312,.2812-.0221,.0781-.0508,.1393-.0938,.1875-.0417,.0495-.0964,.1029-.1562,.125-.0586,.0221-.1133,.0312-.1875,.0312-.1198,0-.207-.0404-.2812-.0938-.0729-.0521-.1341-.1211-.1562-.2188l-.375,.0625c.0169,.0781 .0547,.1237 .0938,.1875 .0404,.0638 .0924,.1419 .1562,.1875 .0651,.0469 .1615,.069 .25,.0938 .0898,.0247 .1641,.0312 .2812,.0312 .2878-0 .5182-.069 .6562-.2188 .138-.1484 .2187-.3607 .2188-.6562v-1.625-.125c.0013-.0482-.0013-.1172 0-.1562 .0013-.0391-.0013-.0664 0-.0938 .0013-.0286-.0013-.0508 0-.0625h-.3438c-.0013,.0039 .0039,.0365 0,.0625-.0026,.026 .0026,.0573 0,.0938-.0013,.0352 .0026,.0534 0,.0938-.0014,.0404-.0312,.0924-.0312,.125-.0586-.1263-.1406-.2448-.25-.3125-.1081-.069-.2279-.0938-.375-.0938zm9.7188,0c-.3021,0-.5221,.0977-.6875,.2812-.1641,.1823-.25,.4492-.25,.8125 0,.1862 .0182,.362 .0625,.5 .0443,.1367 .1068,.2214 .1875,.3125 .082,.0911 .1979,.1745 .3125,.2188 .1159,.0443 .2331,.0625 .375,.0625 .1484,0 .2891-.0182 .4062-.0625 .1185-.0456 .1992-.1276 .2812-.2188 .082-.0911 .1445-.207 .1875-.3438 .0443-.138 .0938-.2839 .0938-.4688-0-.3672-.0951-.6315-.25-.8125-.1549-.181-.401-.2812-.7188-.2812zm2.125,0c-.0599,0-.1107,.0104-.1562,.0312-.0456,.0195-.0911,.0586-.125,.0938-.0326,.0352-.0391,.0781-.0625,.125-.0234,.0456-.0456,.0742-.0625,.125 0-.026 .0013-.0573 0-.0938 0-.0365-.0299-.0599-.0312-.0938-.0013-.0352 .0013-.0677 0-.0938-.0013-.0273 .0013-.056 0-.0625h-.2812c.0013,.0091-.0013,.0312 0,.0625 .0013,.0312-.0013,.0807 0,.125 .0013,.043 0,.0755 0,.125 .0013,.0482-0,.112 0,.1562v1.6562h.3438v-1.1875c0-.1055 .0182-.1966 .0312-.2812 .013-.0859 .0065-.1589 .0312-.2188 .0247-.0612 .0599-.1237 .0938-.1562 .0339-.0339 .082-.0312 .125-.0312 .0417,0 .0664,.013 .0938,.0312 .0286,.0169 .0456,.0195 .0625,.0625 .0182,.0417 .0547,.1185 .0625,.1875 .0078,.069-0,.1471 0,.25v1.3438h.3125v-1.2188c0-.2187 .0443-.3906 .0938-.5 .0508-.1094 .1016-.1562 .1875-.1562 .0417,0 .0977,.013 .125,.0312 .0286,.0169 .0456,.0195 .0625,.0625 .0182,.0417 .0234,.1185 .0312,.1875 .0078,.069-0,.1471 0,.25v1.3438h.3438v-1.4062c0-.1315-.0156-.25-.0312-.3438-.0143-.0938-.0286-.1589-.0625-.2188-.0339-.0599-.0703-.1276-.125-.1562-.0547-.0286-.1393-.0312-.2188-.0312-.0612,0-.1094,.0143-.1562,.0312-.0469,.0169-.0885,.0299-.125,.0625-.0365,.0326-.0651,.0768-.0938,.125-.0273,.0469-.0703,.0951-.0938,.1562-.0247-.1302-.0677-.2188-.125-.2812-.056-.0625-.1354-.0938-.25-.0938zm2.6875,0c-.125,0-.2292,.026-.3438,.0625-.1133,.0365-.2253,.1029-.3125,.1875-.0872,.0846-.1667,.1745-.2188,.3125-.0508,.138-.0625,.3281-.0625,.5312 0,.1836 .0195,.3294 .0625,.4688 .0443,.138 .1055,.2513 .1875,.3438 .082,.0924 .194,.1719 .3125,.2188 .1185,.0469 .2253,.0625 .375,.0625 .1354,0 .276-.0013 .375-.0312 .099-.0312 .181-.0781 .25-.125 .069-.0482 .1146-.0977 .1562-.1562 .0417-.0599 .0729-.1289 .0938-.1875l-.3125-.0938c-.0156,.0469-.0299,.0846-.0625,.125-.0326,.0391-.0768,.0964-.125,.125-.0482,.0286-.0951,.0456-.1562,.0625-.0599,.0156-.1471,.0312-.2188,.0312-.0964,0-.1758-.026-.25-.0625-.0729-.0378-.138-.0898-.1875-.1562-.0495-.0677-.069-.1576-.0938-.25-.0247-.0938-.0312-.2018-.0312-.3125h1.5v-.0312c0-.1667-.0286-.3307-.0625-.4688-.0326-.138-.082-.2461-.1562-.3438-.0742-.099-.1628-.1641-.2812-.2188-.1172-.0547-.2669-.0938-.4375-.0938zm7.2188,0c-.2617,0-.4557,.0482-.5938,.1562-.138,.1081-.2188,.2773-.2188,.4688 0,.1003 .0234,.1849 .0625,.25 .0404,.0651 .0924,.1133 .1562,.1562 .0651,.0417 .1367,.0677 .2188,.0938 .082,.026 .1667,.0404 .25,.0625 .0924,.0247 .1719,.0742 .25,.0938 .0794,.0195 .1615,.0352 .2188,.0625 .0573,.0273 .0924,.0534 .125,.0938 .0339,.0391 .0312,.0911 .0312,.1562-0,.0625-.0039,.1133-.0312,.1562-.026,.0417-.0469,.0664-.0938,.0938-.0469,.026-.1224,.0508-.1875,.0625-.0638,.0104-.112,.0312-.1875,.0312-.0742,0-.1549-.0247-.2188-.0312-.0638-.0078-.1068-.0091-.1562-.0312-.0482-.0221-.0898-.0521-.125-.0938-.0339-.043-.0781-.1159-.0938-.1875l-.3125,.0625c.0234,.099 .0755,.1823 .125,.25 .0508,.0664 .1133,.1159 .1875,.1562 .0742,.0404 .1523,.0768 .25,.0938 .099,.0182 .2214,.0312 .3438,.0312 .1367,0 .2383-.0013 .3438-.0312 .1068-.0299 .2083-.0703 .2812-.125 .0729-.056 .1185-.1393 .1562-.2188 .0391-.0794 .0625-.151 .0625-.25-0-.1081-.0143-.2109-.0625-.2812-.0469-.0716-.1133-.1419-.1875-.1875-.0729-.0456-.1602-.0664-.25-.0938-.0885-.0273-.1654-.0417-.25-.0625-.0846-.0221-.1797-.0456-.25-.0625-.0703-.0182-.1055-.0378-.1562-.0625-.0508-.0247-.0964-.0573-.125-.0938-.0273-.0378-.0625-.0964-.0625-.1562-0-.1966 .181-.2812 .5-.2812 .0599,0 .1016-.0078 .1562,0 .0547,.0078 .1133,.0091 .1562,.0312 .0443,.0208 .0638,.0573 .0938,.0938 .0299,.0365 .0534,.0977 .0625,.1562l.3125-.0625c-.0182-.0898-.0456-.1549-.0938-.2188-.0469-.0651-.0859-.1159-.1562-.1562-.0703-.0417-.1602-.0755-.25-.0938-.0898-.0195-.1784-.0312-.2812-.0312zm2.375,0c-.125,0-.2292,.026-.3438,.0625-.1133,.0365-.2253,.1029-.3125,.1875-.0872,.0846-.1667,.1745-.2188,.3125-.0508,.138-.0625,.3281-.0625,.5312 0,.1836 .0195,.3294 .0625,.4688 .0443,.138 .1055,.2513 .1875,.3438 .082,.0924 .194,.1719 .3125,.2188 .1185,.0469 .2253,.0625 .375,.0625 .1354,0 .276-.0013 .375-.0312 .099-.0312 .181-.0781 .25-.125 .069-.0482 .1146-.0977 .1562-.1562 .0417-.0599 .0729-.1289 .0938-.1875l-.3125-.0938c-.0156,.0469-.0299,.0846-.0625,.125-.0326,.0391-.0768,.0964-.125,.125-.0482,.0286-.0951,.0456-.1562,.0625-.0599,.0156-.1471,.0312-.2188,.0312-.0964,0-.1758-.026-.25-.0625-.0729-.0378-.138-.0898-.1875-.1562-.0495-.0677-.069-.1576-.0938-.25-.0247-.0938-.0312-.2018-.0312-.3125h1.5v-.0312c0-.1667-.0286-.3307-.0625-.4688-.0326-.138-.082-.2461-.1562-.3438-.0742-.099-.1628-.1641-.2812-.2188-.1172-.0547-.2669-.0938-.4375-.0938zm2.8438,0c-.1068,0-.2057,.0065-.2812,.0312-.0755,.0247-.1315,.0794-.1875,.125-.0547,.0456-.1159,.0911-.1562,.1562-.0404,.0651-.0885,.138-.125,.2188-.0026-.0378 .0065-.0807 0-.125-.0065-.0443-.0221-.082-.0312-.125-.0091-.0443-.0208-.0846-.0312-.125-.0091-.0404-.0221-.0938-.0312-.125h-.3438c.0078,.0312 .0195,.0716 .0312,.125 .0117,.0534 .0208,.1198 .0312,.1875 .0104,.0664 .0235,.1432 .0312,.2188 .0078,.0755 .0312,.1458 .0312,.2188v1.375h.3438v-1c-0-.1146 0-.2109 .0312-.3125 .0326-.1016 .0964-.2057 .1562-.2812 .0599-.0768 .1315-.1432 .2188-.1875 .0872-.0443 .1719-.0625 .2812-.0625 .0807,0 .1523,.0234 .2188,.0312 .0677,.0065 .1576-.0104 .2188,0v-.3125c-.0547-.0091-.1172-.0247-.1875-.0312-.0703-.0065-.1458,0-.2188,0zm-54.2812,.0312 .8438,2.125 .4062,0 .875-2.125-.375,0-.5625,1.375c-.0104,.0286-.0169,.0833-.0312,.125-.013,.0404-.0182,.082-.0312,.125-.013,.043-.0182,.0833-.0312,.125-.0117,.0404-.0234,.0664-.0312,.0938-.0078-.0273-.0195-.0534-.0312-.0938-.0104-.0417-.0182-.0807-.0312-.125-.013-.0443-.0508-.0846-.0625-.125-.0117-.0417-.0208-.0964-.0312-.125l-.5-1.375h-.4062zm9.9375,0 0,.2812 .625,0 0,1.5625-.8125,0 0,.2812 1.9062,0 0-.2812-.75,0 0-1.8438-.9688,0zm14.0625,0 .8438,2.125 .4062,0 .875-2.125-.4062,0-.5312,1.375c-.0104,.0286-.0169,.0833-.0312,.125-.013,.0404-.0495,.082-.0625,.125-.013,.043-.0182,.0833-.0312,.125-.0117,.0404-.0234,.0664-.0312,.0938-.0078-.0273-.0195-.0534-.0312-.0938-.0104-.0417-.0182-.0807-.0312-.125-.013-.0443-.0195-.0846-.0312-.125-.0117-.0417-.0208-.0964-.0312-.125l-.5312-1.375h-.375zm21.8125,0 0,1.4062c0,.1302 .0065,.2487 .0312,.3438 .026,.0938 .0703,.1589 .125,.2188 .0547,.0599 .1029,.1276 .1875,.1562 .0846,.0286 .1953,.0312 .3125,.0312 .0911,0 .181-.0117 .25-.0312 .069-.0182 .1341-.0286 .1875-.0625 .0534-.0352 .0846-.0755 .125-.125 .0404-.0495 .0911-.1263 .125-.1875 0,.026-.0013,.0547 0,.0938v.125c.0026,.0365-.0013,.0651 0,.0938 .0013,.0286-.0013,.056 0,.0625h.3438c-.0013-.0091 .0013-.0312 0-.0625-.0013-.0312 .0013-.082 0-.125-.0013-.0443 .0013-.0768 0-.125v-.1562-1.6562h-.375v1.2188c0,.1055-.0052,.1992-.0312,.2812-.0247,.0807-.0768,.1628-.125,.2188-.0469,.0547-.0885,.0951-.1562,.125-.0664,.0286-.1354,.0312-.2188,.0312-.082,0-.1628,.0169-.2188,0-.0547-.0182-.0898-.0521-.125-.0938-.0339-.043-.0781-.1185-.0938-.1875-.0143-.069-0-.1471 0-.25v-1.3438h-.3438zm-8.75,.2188c.0833,0 .1497,.0365 .2188,.0625 .069,.0247 .138,.0612 .1875,.125 .0508,.0638 .0664,.1432 .0938,.25 .0286,.1068 .0625,.2422 .0625,.4062 0,.1641-.0326,.2982-.0625,.4062-.0286,.1081-.0729,.1862-.125,.25-.0521,.0638-.1146,.1302-.1875,.1562-.0716,.0247-.1341,.0312-.2188,.0312-.0742,0-.1497-.0052-.2188-.0312-.0677-.026-.1354-.0924-.1875-.1562-.0508-.0638-.0938-.1432-.125-.25-.0299-.1081-.0312-.2422-.0312-.4062 0-.1602 .0026-.2995 .0312-.4062 .0299-.1068 .0742-.1862 .125-.25 .0521-.0651 .1159-.099 .1875-.125 .0716-.0273 .1654-.0625 .25-.0625zm4.7812,0c.0703,0 .1549,.0104 .2188,.0312 .0638,.0208 .1068,.0755 .1562,.125 .0508,.0495 .0911,.1055 .125,.1875 .0339,.082 .0521,.1901 .0625,.3125h-1.125c.0039-.1276 .0247-.2305 .0625-.3125 .0391-.0833 .069-.1706 .125-.2188 .056-.0482 .1224-.0755 .1875-.0938 .0664-.0195 .1276-.0312 .1875-.0312zm9.5938,0c.0703,0 .1549,.0104 .2188,.0312 .0638,.0208 .1068,.0755 .1562,.125 .0508,.0495 .0911,.1055 .125,.1875 .0339,.082 .0521,.1901 .0625,.3125h-1.125c.0039-.1276 .0247-.2305 .0625-.3125 .0391-.0833 .069-.1706 .125-.2188 .056-.0482 .1224-.0755 .1875-.0938 .0664-.0195 .1276-.0312 .1875-.0312zm-43.25,.0312c.0898,0 .181,.0039 .25,.0312 .069,.0273 .1094,.0625 .1562,.125 .0469,.0625 .1016,.1471 .125,.25 .0247,.1016 .0312,.224 .0312,.375 0,.1563-.0065,.2969-.0312,.4062-.0234,.1094-.0768,.2122-.125,.2812-.0469,.0677-.0859,.0938-.1562,.125-.069,.0312-.1602,.0625-.25,.0625-.0872,0-.1562-.0312-.2188-.0625-.0625-.0326-.1159-.0885-.1562-.1562-.0391-.0677-.0742-.1458-.0938-.25-.0182-.1042-.0312-.2292-.0312-.375 0-.151 .0104-.2695 .0312-.375 .0208-.1068 .0534-.1836 .0938-.25 .0417-.0664 .0938-.1263 .1562-.1562 .0625-.0299 .1354-.0312 .2188-.0312zm19.2188,0c.069,0 .1224,.0026 .1875,.0312 .0664,.0286 .1367,.0599 .1875,.125 .0521,.0638 .0938,.1471 .125,.25 .0312,.1029 .0312,.2279 .0312,.375 0,.1458 .0013,.2734-.0312,.375-.0312,.1003-.0729,.1875-.125,.25-.0521,.0625-.1211,.0964-.1875,.125-.0664,.0273-.1185,.0625-.1875,.0625-.0859,0-.1862-.0065-.25-.0312-.0625-.026-.1146-.0951-.1562-.1562-.0404-.0612-.043-.1172-.0625-.2188-.0195-.1016-.0312-.2539-.0312-.4062 0-.1471 .0117-.2734 .0312-.375 .0195-.1029 .0208-.1862 .0625-.25 .0417-.0651 .1237-.0964 .1875-.125 .0638-.0299 .1315-.0312 .2188-.0312zm-21.4062,.6562c.0755,.0195 .1497,.0404 .2188,.0625 .069,.0208 .1354,.0286 .1875,.0625 .0521,.0339 .0938,.0716 .125,.125 .0312,.0521 .0312,.1367 .0312,.2188 0,.0716-.0026,.1341-.0312,.1875-.0273,.0534-.0742,.0885-.125,.125-.0495,.0365-.1172,.0742-.1875,.0938-.069,.0195-.1341,.026-.2188,.0312v-.9062zm14.0312,.625 0,.5938 .4375,0 0-.5938-.4375,0zm-14.3125,3.5 .0312,.5625-.5-.1875-.0938,.25 .5312,.1562-.375,.4688 .25,.1562 .3125-.5 .2812,.5 .2188-.1562-.3438-.4688 .5312-.1562-.0625-.25-.5312,.1875 .0312-.5625-.2812,0zm19.9688,0-1.625,2.9375 .375,0 1.5938-2.9375-.3438,0zm2.25,0 0,.8125 0,.0625c.0013,.0286-0,.0612 0,.0938v.0938c-.0624-.1157-.1497-.1662-.25-.2188-.1055-.056-.2487-.0938-.4062-.0938-.5104,0-.75,.3568-.75,1.0938 0,.3646 .0638,.6315 .1875,.8125 .1237,.181 .2995,.2812 .5625,.2812 .1576,0 .3008-.0326 .4062-.0938 .1055-.0625 .1862-.1445 .25-.2812 0,.0339-.0013,.056 0,.0938 .0013,.0378-.0013,.0612 0,.0938 .0026,.0326 .0286,.0703 .0312,.0938 .0026,.0234-.0013,.026 0,.0312h.3438c-.0013-.0117-.0299-.0039-.0312-.0312-.0013-.0286 .0013-.0859 0-.125-.0013-.0391 .0013-.0781 0-.125v-.125-2.4688h-.3438zm7.3438,0-1.625,2.9375 .375,0 1.5938-2.9375-.3438,0zm5.875,0 0,.2812 .5625,0 0,2.3438-.8125,0 0,.25 1.9062,0 0-.25-.7188,0 0-2.625-.9375,0zm2.4062,0 0,.2812 .5625,0 0,2.3438-.8125,0 0,.25 1.9062,0 0-.25-.75,0 0-2.625-.9062,0zm-33.2812,.2188-.125,.5625-.3125,0 0,.2812 .3125,0 0,1.3125c0,.1927 .0508,.3164 .1562,.4062 .1055,.0885 .2578,.125 .4688,.125 .0703,0 .1523,.0065 .2188,0 .0664-.0065 .1315-.0222 .1875-.0312 .0573-.0091 .1107-.0208 .1562-.0312 .0456-.0104 .0651,.0078 .0938,0v-.2812c-.0313,.0065-.0482,.0234-.0938,.0312-.0443,.0078-.1042-.0065-.1562,0-.0508,.0065-.1003,.026-.1562,.0312-.0547,.0039-.1042,0-.1562,0-.1263,0-.2253-.013-.2812-.0625-.0547-.0495-.0938-.1471-.0938-.25v-1.25h.8438v-.2812h-.8438v-.5625h-.2188zm4.7812,0-.0938,.5625-.3438,0 0,.2812 .3438,0 0,1.3125c0,.1927 .0508,.3164 .1562,.4062 .1055,.0885 .2578,.125 .4688,.125 .0703,0 .1211,.0065 .1875,0 .0664-.0065 .1315-.0222 .1875-.0312 .0573-.0091 .1107-.0208 .1562-.0312 .0456-.0104 .0964,.0078 .125,0v-.2812c-.0313,.0065-.0794,.0234-.125,.0312-.0443,.0078-.1042-.0065-.1562,0-.0508,.0065-.1003,.026-.1562,.0312-.0547,.0039-.1042,0-.1562,0-.1263,0-.2253-.013-.2812-.0625-.0547-.0495-.0625-.1471-.0625-.25v-1.25h.8438v-.2812h-.8438v-.5625h-.25zm5.1875,0c-.138,0-.2695,.0247-.375,.0625-.1055,.0378-.1771,.0898-.25,.1562-.0716,.0651-.1458,.1315-.1875,.2188-.0417,.0872-.0508,.1823-.0625,.2812l.3438,.0312c.0091-.0768 .0339-.1302 .0625-.1875 .0286-.0586 .0794-.1172 .125-.1562 .0456-.0391 .0964-.0742 .1562-.0938 .0612-.0195 .1172-.0312 .1875-.0312 .0768,0 .1562,.013 .2188,.0312 .0638,.0169 .1107,.056 .1562,.0938 .0469,.0365 .069,.0677 .0938,.125 .026,.056 .0625,.1406 .0625,.2188 0,.0964-.0391,.1628-.0938,.25-.0547,.0859-.1315,.1966-.2188,.2812-.0859,.0833-.1732,.1641-.2812,.25-.1068,.0859-.2057,.1549-.3125,.25-.1055,.0938-.2188,.2057-.3125,.3125-.0938,.1068-.1615,.2174-.2188,.3438v.2188h1.8438v-.2812h-1.4375c.0417-.0911 .1042-.1667 .1875-.25 .0833-.0846 .1797-.1667 .2812-.25 .1016-.0833 .2057-.1654 .3125-.25 .1068-.0846 .2253-.1875 .3125-.2812 .0885-.0938 .1315-.1771 .1875-.2812 .056-.1055 .0938-.2214 .0938-.3438-0-.1159-.0221-.2227-.0625-.3125-.0404-.0898-.0794-.1589-.1562-.2188-.0755-.0612-.1719-.125-.2812-.1562-.1081-.0312-.2383-.0312-.375-.0312zm1.4375,.3438 0,.2812 1.6562,.7188-1.6562,.7188 0,.3125 1.9375-.8125 0-.4062-1.9375-.8125zm-22.5938,.1875c-.1068,0-.1745,.0065-.25,.0312-.0755,.0247-.1628,.0482-.2188,.0938-.0547,.0456-.0846,.0911-.125,.1562-.0404,.0651-.0885,.138-.125,.2188-.0026-.0378-.0247-.0495-.0312-.0938-.0065-.0443 .0091-.1133 0-.1562-.0091-.0443-.0208-.0846-.0312-.125-.0091-.0404-.0221-.0625-.0312-.0938h-.3438c.0078,.0312 .0195,.0716 .0312,.125 .0117,.0534 .0208,.1198 .0312,.1875 .0104,.0664 .0234,.1432 .0312,.2188 .0078,.0755-0,.1458 0,.2188v1.3438h.375v-.9688c-0-.1146 0-.2422 .0312-.3438 .0326-.1016 .0964-.1745 .1562-.25 .0599-.0768 .1315-.1432 .2188-.1875 .0872-.0443 .1719-.0625 .2812-.0625 .0807,0 .1523-.0078 .2188,0 .0677,.0065 .1263,.0208 .1875,.0312v-.3125c-.0547-.0091-.1172-.0247-.1875-.0312-.0703-.0065-.1458,0-.2188,0zm1.6875,0c-.0599,0-.1107,.0104-.1562,.0312-.0456,.0195-.0911,.0273-.125,.0625-.0326,.0352-.0391,.0781-.0625,.125-.0234,.0456-.0456,.1055-.0625,.1562 0-.026 .0013-.0573 0-.0938 0-.0365-.0299-.0911-.0312-.125-.0013-.0352 .0013-.0677 0-.0938-.0013-.0273 .0013-.0247 0-.0312h-.2812c.0013,.0091-.0013,.0312 0,.0625 .0013,.0312-.0013,.0495 0,.0938 .0013,.043 0,.1068 0,.1562 .0013,.0482-0,.0807 0,.125v1.6562h.3438v-1.1562c0-.1055 .0182-.2279 .0312-.3125 .013-.0859 .0065-.1589 .0312-.2188 .0247-.0612 .0599-.0924 .0938-.125 .0339-.0339 .082-.0625 .125-.0625 .0417,0 .0664,.013 .0938,.0312 .0286,.0169 .0456,.0508 .0625,.0938 .0182,.0417 .0547,.0872 .0625,.1562 .0078,.069-0,.1784 0,.2812v1.3125h.3125v-1.2188c0-.2187 .0443-.3594 .0938-.4688 .0508-.1094 .1016-.1875 .1875-.1875 .0417,0 .0977,.013 .125,.0312 .0286,.0169 .0456,.0508 .0625,.0938 .0182,.0417 .0234,.0872 .0312,.1562 .0078,.069-0,.1784 0,.2812v1.3125h.3438v-1.4062c0-.1315-.0156-.2188-.0312-.3125-.0143-.0938-.0286-.1901-.0625-.25-.0339-.0599-.0703-.0964-.125-.125-.0547-.0286-.1393-.0312-.2188-.0312-.0612,0-.1094-.0169-.1562,0-.0469,.0169-.0885,.0612-.125,.0938-.0365,.0326-.0651,.0768-.0938,.125-.0273,.0469-.0703,.0951-.0938,.1562-.0247-.1302-.0677-.2188-.125-.2812-.056-.0625-.1354-.0938-.25-.0938zm29.0625,0c-.125,0-.2292-.0052-.3438,.0312-.1133,.0365-.2253,.1029-.3125,.1875-.0872,.0846-.1354,.2057-.1875,.3438-.0508,.138-.0938,.2969-.0938,.5 0,.1836 .0195,.3607 .0625,.5 .0443,.138 .1055,.2513 .1875,.3438 .082,.0924 .194,.1406 .3125,.1875 .1185,.0469 .2565,.0938 .4062,.0938 .1354,0 .2448-.0326 .3438-.0625 .099-.0312 .181-.0469 .25-.0938 .069-.0482 .1146-.1289 .1562-.1875 .0417-.0599 .0729-.0977 .0938-.1562l-.3125-.0938c-.0156,.0469-.0299,.0846-.0625,.125-.0326,.0391-.0768,.0651-.125,.0938-.0482,.0286-.0951,.0768-.1562,.0938-.0599,.0156-.1159,0-.1875,0-.0964,0-.1758,.0052-.25-.0312-.0729-.0378-.138-.0898-.1875-.1562-.0495-.0677-.1003-.1576-.125-.25-.0247-.0938-.0312-.2018-.0312-.3125h1.5v-.0312c0-.1667 .0026-.3307-.0312-.4688-.0326-.138-.1133-.2461-.1875-.3438-.0742-.099-.1628-.1953-.2812-.25-.1172-.0547-.2669-.0625-.4375-.0625zm7.375,0c-.0859,0-.1497,.0117-.2188,.0312-.069,.0182-.1315,.0273-.1875,.0625-.0547,.0339-.1133,.0755-.1562,.125-.0417,.0495-.0625,.0951-.0938,.1562h-.0312c0-.026 .0013-.056 0-.0938-.0013-.0391 .0026-.0573 0-.0938-.0013-.0378 .0013-.0651 0-.0938-.0013-.0286 .0013-.056 0-.0625h-.3438c.0013,.0091-.0013,.0312 0,.0625 .0013,.0312-.0013,.0495 0,.0938 .0013,.043 0,.1068 0,.1562 .0013,.0482 .0312,.0807 .0312,.125v1.6562h.3438v-1.2188c0-.1055 .0026-.2005 .0312-.2812 .0286-.082 .0755-.1328 .125-.1875 .0508-.056 .1211-.0964 .1875-.125 .0677-.0299 .1419-.0625 .2188-.0625 .0625,0 .1042,.0156 .1562,.0312 .0521,.0156 .0872,.0534 .125,.0938 .0391,.0391 .0729,.0885 .0938,.1562 .0221,.0664 .0312,.1458 .0312,.25v1.3438h.375v-1.4062c0-.1315-.0326-.2188-.0625-.3125-.0286-.0938-.0677-.1901-.125-.25-.056-.0599-.1354-.0964-.2188-.125-.0833-.0286-.1732-.0312-.2812-.0312zm-25.125,.0312 .75,1.0312-.8125,1.0625 .375,0 .6562-.8438 .625,.8438 .375,0-.8125-1.0625 .7812-1.0312-.4062,0-.5625,.8125-.5938-.8125-.375,0zm19.0938,0 .8438,2.0938 .4062,0 .875-2.0938-.4062,0-.5312,1.375c-.0104,.0286-.0169,.0521-.0312,.0938-.013,.0404-.0182,.082-.0312,.125-.013,.043-.0495,.0833-.0625,.125-.0117,.0404 .0078,.0977 0,.125-.0078-.0273-.0195-.0846-.0312-.125-.0104-.0417-.0495-.0807-.0625-.125-.013-.0443-.0195-.0846-.0312-.125-.0117-.0417-.0208-.0651-.0312-.0938l-.5312-1.375h-.375zm7.4062,0 0,1.4062c0,.1302 .0065,.2487 .0312,.3438 .026,.0938 .0703,.1589 .125,.2188 .0547,.0599 .1341,.0964 .2188,.125 .0846,.0286 .1953,.0625 .3125,.0625 .0911,0 .1497-.0117 .2188-.0312 .069-.0182 .1341-.0599 .1875-.0938 .0534-.0352 .1159-.0755 .1562-.125 .0404-.0495 .0599-.0951 .0938-.1562h.0312c0,.026-.0013,.0547 0,.0938v.125c.0026,.0365-.0013,.0651 0,.0938 .0013,.0286-.0013,.0247 0,.0312h.3438c-.0013-.0091 .0013,0 0-.0312-.0013-.0312-.0299-.082-.0312-.125-.0013-.0443 .0013-.0768 0-.125v-.1562-1.6562h-.3438v1.2188c0,.1055-.0052,.1992-.0312,.2812-.0247,.0807-.0768,.1628-.125,.2188-.0469,.0547-.0885,.0951-.1562,.125-.0664,.0286-.1354,.0312-.2188,.0312-.082,0-.1628-.0143-.2188-.0312-.0547-.0182-.0898-.0521-.125-.0938-.0339-.043-.0781-.0872-.0938-.1562-.0143-.069-0-.1471 0-.25v-1.3438h-.375zm-11.2188,.2188c.0898,0 .181,.0039 .25,.0312 .069,.0273 .1094,.0938 .1562,.1562 .0469,.0625 .1016,.1471 .125,.25 .0247,.1016 .0312,.224 .0312,.375 0,.1563-.0065,.2969-.0312,.4062-.0234,.1094-.0768,.181-.125,.25-.0469,.0677-.0859,.125-.1562,.1562-.069,.0312-.1602,.0312-.25,.0312-.0872,0-.1562,0-.2188-.0312-.0625-.0326-.1159-.0885-.1562-.1562-.0391-.0677-.0742-.1458-.0938-.25-.0182-.1042-.0312-.2292-.0312-.375 0-.151 .0104-.2695 .0312-.375 .0208-.1068 .0534-.2148 .0938-.2812 .0417-.0664 .0938-.0951 .1562-.125 .0625-.0299 .1354-.0625 .2188-.0625zm2.4688,0c.0703,0 .1549,.0104 .2188,.0312 .0638,.0208 .1068,.0443 .1562,.0938 .0508,.0495 .0911,.1367 .125,.2188 .0339,.082 .0833,.1589 .0938,.2812h-1.1562c.0039-.1276 .0247-.2305 .0625-.3125 .0391-.0833 .1003-.1393 .1562-.1875 .056-.0482 .0911-.0755 .1562-.0938 .0664-.0195 .1276-.0312 .1875-.0312zm-21.8125,1.3125 0,.5625 .4688,0 0-.5625-.4688,0zm-5.4062,3.4688 0,2.9062 .3438,0 0-1.2188c0-.1055 .0339-.2005 .0625-.2812 .0286-.082 .0443-.1641 .0938-.2188 .0508-.056 .1211-.0964 .1875-.125 .0677-.0299 .1419-.0312 .2188-.0312 .0625,0 .1354,.0156 .1875,.0312 .0521,.0156 .0872,.0221 .125,.0625 .0391,.0391 .0729,.0885 .0938,.1562 .0221,.0664 .0312,.1771 .0312,.2812v1.3438h.3438v-1.4062c0-.1315 0-.25-.0312-.3438-.0299-.0938-.0977-.1589-.1562-.2188-.0586-.0599-.1341-.0964-.2188-.125-.0846-.0286-.1732-.0625-.2812-.0625-.0833,0-.1497,.0117-.2188,.0312-.0677,.0182-.1341,.0586-.1875,.0938-.0534,.0339-.1146,.0755-.1562,.125-.0417,.0495-.0625,.0951-.0938,.1562 .0039-.0599-.0039-.1224 0-.1875 .0039-.0664-0-.1224 0-.1875v-.7812h-.3438zm7.375,0 .0938,1.25 .25,0 .0938-1.25-.4375,0zm.875,0 .0938,1.25 .25,0 .0938-1.25-.4375,0zm11.125,0 .0625,1.25 .2812,0 .0938-1.25-.4375,0zm.875,0 .0625,1.25 .2812,0 .0938-1.25-.4375,0zm-10.6875,.2812 0,2.625 .7188,0c.1823,0 .3255-.0365 .4688-.0938 .1445-.0586 .276-.1367 .375-.25 .099-.1133 .1667-.2396 .2188-.4062 .0521-.168 .0938-.375 .0938-.5938 0-.224-.0378-.431-.0938-.5938-.0547-.1628-.1419-.2695-.25-.375-.1081-.1055-.2474-.2005-.4062-.25-.1576-.0508-.3255-.0625-.5312-.0625h-.5938zm.375,.2812 .2188,0c.1523,0 .2943,.0247 .4062,.0625 .112,.0365 .207,.1081 .2812,.1875 .0742,.0781 .1198,.1875 .1562,.3125 .0365,.125 .0625,.2617 .0625,.4375-0,.3464-.0846,.6081-.2188,.7812-.1341,.1732-.3177,.25-.5938,.25h-.3125v-2.0312zm-13.875,.1875c-.125,0-.2604,.026-.375,.0625-.1133,.0365-.2253,.1029-.3125,.1875-.0872,.0846-.1354,.1745-.1875,.3125-.0508,.138-.0938,.3281-.0938,.5312 0,.1836 .0195,.3294 .0625,.4688 .0443,.138 .1055,.2513 .1875,.3438 .082,.0924 .194,.1719 .3125,.2188 .1185,.0469 .2565,.0625 .4062,.0625 .1354,0 .2448-.0013 .3438-.0312 .099-.0312 .181-.0781 .25-.125 .069-.0482 .1458-.0977 .1875-.1562 .0417-.0599 .0729-.1289 .0938-.1875l-.3125-.0938c-.0156,.0469-.0612,.1159-.0938,.1562-.0326,.0391-.0768,.0651-.125,.0938-.0482,.0286-.0951,.0456-.1562,.0625-.0599,.0156-.1159,.0312-.1875,.0312-.0964,0-.1758-.026-.25-.0625-.0729-.0378-.138-.0898-.1875-.1562-.0495-.0677-.1003-.1576-.125-.25-.0247-.0938-.0312-.1706-.0312-.2812h1.5v-.0625c0-.1667 .0026-.3307-.0312-.4688-.0326-.138-.082-.2461-.1562-.3438-.0742-.099-.194-.1641-.3125-.2188-.1172-.0547-.2357-.0938-.4062-.0938zm2.4062,0c-.1237,0-.2266,.0273-.3438,.0625-.1172,.0339-.2201,.0729-.3125,.1562-.0911,.0833-.1628,.2031-.2188,.3438-.056,.1406-.0938,.319-.0938,.5312-0,.1562 .0273,.3034 .0625,.4375 .0352,.1328 .0794,.2448 .1562,.3438 .0781,.0977 .1888,.194 .3125,.25 .125,.056 .2591,.0625 .4375,.0625 .1302,0 .2409,.0052 .3438-.0312 .1029-.0378 .207-.0951 .2812-.1562 .0742-.0612 .1432-.138 .1875-.2188 .0443-.0807 .0508-.1628 .0625-.25l-.375-.0312c-.0221,.1419-.0638,.2435-.1562,.3125-.0924,.069-.2031,.125-.3438,.125-.1107,0-.2044-.0247-.2812-.0625-.0755-.0378-.1406-.0846-.1875-.1562-.0456-.0716-.0729-.1784-.0938-.2812-.0195-.1042-.0312-.2135-.0312-.3438 0-.1302 .0117-.2435 .0312-.3438 .0208-.1016 .0482-.1823 .0938-.25 .0469-.069 .112-.1211 .1875-.1562 .0768-.0365 .1693-.0625 .2812-.0625 .1536,0 .2604,.0247 .3438,.0938 .0833,.0677 .1354,.1628 .1562,.2812l.375-.0312c-.0169-.0885-.0482-.1732-.0938-.25-.0456-.0768-.1146-.1315-.1875-.1875-.0716-.0573-.1497-.0924-.25-.125-.1003-.0326-.2161-.0625-.3438-.0625zm4.7812,0c-.3021,0-.5534,.0977-.7188,.2812-.1641,.1823-.25,.4492-.25,.8125 0,.1862 .0182,.362 .0625,.5 .0443,.1367 .1068,.2526 .1875,.3438 .082,.0911 .1979,.1432 .3125,.1875 .1159,.0443 .2331,.0625 .375,.0625 .1484,0 .2891-.0182 .4062-.0625 .1185-.0456 .2305-.0964 .3125-.1875 .082-.0911 .1445-.207 .1875-.3438 .0443-.138 .0625-.3151 .0625-.5-0-.3672-.0951-.6315-.25-.8125-.1549-.181-.3698-.2812-.6875-.2812zm9.5938,0c-.3021,0-.5534,.0977-.7188,.2812-.1641,.1823-.25,.4492-.25,.8125 0,.1862 .0182,.362 .0625,.5 .0443,.1367 .1068,.2526 .1875,.3438 .082,.0911 .1979,.1432 .3125,.1875 .1159,.0443 .2331,.0625 .375,.0625 .1484,0 .2891-.0182 .4062-.0625 .1185-.0456 .2305-.0964 .3125-.1875 .082-.0911 .1445-.207 .1875-.3438 .0443-.138 .0625-.3151 .0625-.5-0-.3672-.0951-.6315-.25-.8125-.1549-.181-.3698-.2812-.6875-.2812zm2.5625,0c-.0859,0-.1497,.0117-.2188,.0312-.069,.0182-.1315,.0586-.1875,.0938-.0547,.0339-.1133,.0755-.1562,.125-.0417,.0495-.0625,.0951-.0938,.1562h-.0312c0-.026 .0013-.056 0-.0938-.0013-.0391 .0026-.0885 0-.125-.0013-.0378 .0013-.0651 0-.0938-.0013-.0286 .0013-.056 0-.0625h-.3438c.0013,.0091-.0013,.0312 0,.0625 .0013,.0312-.0013,.0807 0,.125 .0013,.043 0,.0755 0,.125 .0013,.0482 .0312,.112 .0312,.1562v1.6562h.3438v-1.2188c0-.1055 .0026-.2005 .0312-.2812 .0286-.082 .0755-.1641 .125-.2188 .0508-.056 .1211-.0964 .1875-.125 .0677-.0299 .1419-.0312 .2188-.0312 .0625,0 .1042,.0156 .1562,.0312 .0521,.0156 .0872,.0221 .125,.0625 .0391,.0391 .0729,.0885 .0938,.1562 .0221,.0664 .0312,.1771 .0312,.2812v1.3438h.375v-1.4062c0-.1315-.0326-.25-.0625-.3438-.0286-.0938-.0677-.1589-.125-.2188-.056-.0599-.1354-.0964-.2188-.125-.0833-.0286-.1732-.0625-.2812-.0625zm2.2188,0c-.125,0-.2292,.026-.3438,.0625-.1133,.0365-.2253,.1029-.3125,.1875-.0872,.0846-.1354,.1745-.1875,.3125-.0508,.138-.0938,.3281-.0938,.5312 0,.1836 .0195,.3294 .0625,.4688 .0443,.138 .1055,.2513 .1875,.3438 .082,.0924 .194,.1719 .3125,.2188 .1185,.0469 .2565,.0625 .4062,.0625 .1354,0 .2448-.0013 .3438-.0312 .099-.0312 .181-.0781 .25-.125 .069-.0482 .1146-.0977 .1562-.1562 .0417-.0599 .0729-.1289 .0938-.1875l-.3125-.0938c-.0156,.0469-.0299,.1159-.0625,.1562-.0326,.0391-.0768,.0651-.125,.0938-.0482,.0286-.0951,.0456-.1562,.0625-.0599,.0156-.1159,.0312-.1875,.0312-.0964,0-.1758-.026-.25-.0625-.0729-.0378-.138-.0898-.1875-.1562-.0495-.0677-.1003-.1576-.125-.25-.0247-.0938-.0312-.1706-.0312-.2812h1.5v-.0625c0-.1667 .0026-.3307-.0312-.4688-.0326-.138-.1133-.2461-.1875-.3438-.0742-.099-.1628-.1641-.2812-.2188-.1172-.0547-.2669-.0938-.4375-.0938zm-21.5625,.25c.0703,0 .1237,.0104 .1875,.0312 .0638,.0208 .138,.0755 .1875,.125 .0508,.0495 .0911,.1055 .125,.1875 .0339,.082 .0521,.1901 .0625,.3125h-1.1562c.0039-.1276 .0247-.2305 .0625-.3125 .0391-.0833 .1003-.1393 .1562-.1875 .056-.0482 .1224-.1068 .1875-.125 .0664-.0195 .1276-.0312 .1875-.0312zm7.1875,0c.0833,0 .1497,.0365 .2188,.0625 .069,.0247 .138,.0612 .1875,.125 .0508,.0638 .0977,.1432 .125,.25 .0286,.1068 .0312,.2422 .0312,.4062 0,.1641-.0013,.2982-.0312,.4062-.0286,.1081-.0729,.1862-.125,.25-.0521,.0638-.1146,.1302-.1875,.1562-.0716,.0247-.1654,.0312-.25,.0312-.0742,0-.1497-.0052-.2188-.0312-.0677-.026-.1042-.0924-.1562-.1562-.0508-.0638-.0938-.1432-.125-.25-.0299-.1081-.0625-.2422-.0625-.4062 0-.1602 .0339-.2995 .0625-.4062 .0299-.1068 .043-.1862 .0938-.25 .0521-.0651 .1159-.099 .1875-.125 .0716-.0273 .1654-.0625 .25-.0625zm9.5938,0c.0833,0 .1497,.0365 .2188,.0625 .069,.0247 .138,.0612 .1875,.125 .0508,.0638 .0977,.1432 .125,.25 .0286,.1068 .0312,.2422 .0312,.4062 0,.1641-.0013,.2982-.0312,.4062-.0286,.1081-.0729,.1862-.125,.25-.0521,.0638-.1146,.1302-.1875,.1562-.0716,.0247-.1654,.0312-.25,.0312-.0742,0-.1497-.0052-.2188-.0312-.0677-.026-.1042-.0924-.1562-.1562-.0508-.0638-.0938-.1432-.125-.25-.0299-.1081-.0625-.2422-.0625-.4062 0-.1602 .0339-.2995 .0625-.4062 .0299-.1068 .043-.1862 .0938-.25 .0521-.0651 .1159-.099 .1875-.125 .0716-.0273 .1654-.0625 .25-.0625zm4.7812,0c.0703,0 .1549,.0104 .2188,.0312 .0638,.0208 .1068,.0755 .1562,.125 .0508,.0495 .0911,.1055 .125,.1875 .0339,.082 .0833,.1901 .0938,.3125h-1.1562c.0039-.1276 .0247-.2305 .0625-.3125 .0391-.0833 .1003-.1393 .1562-.1875 .056-.0482 .0911-.1068 .1562-.125 .0664-.0195 .1276-.0312 .1875-.0312zm-17.625,4.8125 0,2.9062 .3438,0 0-1.25c0-.1055 .0339-.1693 .0625-.25 .0286-.082 .0443-.1641 .0938-.2188 .0508-.056 .1211-.0964 .1875-.125 .0677-.0299 .1419-.0625 .2188-.0625 .0625,0 .1354,.0156 .1875,.0312 .0521,.0156 .0872,.0534 .125,.0938 .0391,.0391 .0729,.0885 .0938,.1562 .0221,.0664 .0312,.1458 .0312,.25v1.375h.3438v-1.4062c0-.1315 0-.25-.0312-.3438-.0299-.0938-.0977-.1901-.1562-.25-.0586-.0599-.1341-.0964-.2188-.125-.0846-.0286-.1732-.0312-.2812-.0312-.0833,0-.1497,.0117-.2188,.0312-.0677,.0182-.1341,.0273-.1875,.0625-.0534,.0339-.1146,.0755-.1562,.125-.0417,.0495-.0625,.1263-.0938,.1875 .0039-.0599-.0039-.1224 0-.1875 .0039-.0664-0-.1536 0-.2188v-.75h-.3438zm-3.9375,.75c-.125,0-.2604,.026-.375,.0625-.1133,.0365-.2253,.0716-.3125,.1562-.0872,.0846-.1354,.2057-.1875,.3438-.0508,.138-.0938,.2969-.0938,.5 0,.1836 .0195,.3607 .0625,.5 .0443,.138 .1055,.2513 .1875,.3438 .082,.0924 .194,.1719 .3125,.2188 .1185,.0469 .2565,.0625 .4062,.0625 .1354,0 .2448-.0326 .3438-.0625 .099-.0312 .181-.0469 .25-.0938 .069-.0482 .1458-.0977 .1875-.1562 .0417-.0599 .0729-.1289 .0938-.1875l-.3125-.0938c-.0156,.0469-.0612,.0846-.0938,.125-.0326,.0391-.0768,.0964-.125,.125-.0482,.0286-.0951,.0456-.1562,.0625-.0599,.0156-.1159,0-.1875,0-.0964,0-.1758,.0052-.25-.0312-.0729-.0378-.138-.0898-.1875-.1562-.0495-.0677-.1003-.1576-.125-.25-.0247-.0938-.0312-.2018-.0312-.3125h1.5v-.0312c0-.1667 .0026-.3307-.0312-.4688-.0326-.138-.082-.2461-.1562-.3438-.0742-.099-.194-.1953-.3125-.25-.1172-.0547-.2357-.0625-.4062-.0625zm2.4062,0c-.1237,0-.2266-.0039-.3438,.0312-.1172,.0339-.2201,.1042-.3125,.1875-.0911,.0833-.1628,.2031-.2188,.3438-.056,.1406-.0938,.319-.0938,.5312-0,.1563 .0273,.3034 .0625,.4375 .0352,.1328 .0794,.2448 .1562,.3438 .0781,.0977 .1888,.1628 .3125,.2188 .125,.056 .2591,.0938 .4375,.0938 .1302,0 .2409-.026 .3438-.0625 .1029-.0378 .207-.0951 .2812-.1562 .0742-.0612 .1432-.1068 .1875-.1875 .0443-.0807 .0508-.1628 .0625-.25l-.375-.0312c-.0221,.1419-.0638,.2435-.1562,.3125-.0924,.069-.2031,.0938-.3438,.0938-.1107,0-.2044-.0247-.2812-.0625-.0755-.0378-.1406-.0846-.1875-.1562-.0456-.0716-.0729-.1471-.0938-.25-.0195-.1042-.0312-.2135-.0312-.3438 0-.1302 .0117-.2747 .0312-.375 .0208-.1016 .0482-.1823 .0938-.25 .0469-.069 .112-.1211 .1875-.1562 .0768-.0365 .1693-.0312 .2812-.0312 .1536,0 .2604,.0247 .3438,.0938 .0833,.0677 .1354,.1628 .1562,.2812l.375-.0312c-.0169-.0885-.0482-.1732-.0938-.25-.0456-.0768-.1146-.1315-.1875-.1875-.0716-.0573-.1497-.1237-.25-.1562-.1003-.0326-.2161-.0312-.3438-.0312zm4.7812,0c-.3021,0-.5534,.0977-.7188,.2812-.1641,.1823-.25,.4492-.25,.8125 0,.1862 .0182,.3307 .0625,.4688 .0443,.1367 .1068,.2526 .1875,.3438 .082,.0911 .1979,.1745 .3125,.2188 .1159,.0443 .2331,.0625 .375,.0625 .1484,0 .2891-.0182 .4062-.0625 .1185-.0456 .2305-.1276 .3125-.2188 .082-.0911 .1445-.207 .1875-.3438 .0443-.138 .0625-.2839 .0625-.4688-0-.3672-.0951-.6628-.25-.8438-.1549-.181-.3698-.25-.6875-.25zm-7.1875,.25c.0703,0 .1237,.0104 .1875,.0312 .0638,.0208 .138,.0443 .1875,.0938 .0508,.0495 .0911,.1367 .125,.2188 .0339,.082 .0521,.1901 .0625,.3125h-1.1562c.0039-.1276 .0247-.2305 .0625-.3125 .0391-.0833 .1003-.1706 .1562-.2188 .056-.0482 .1224-.0755 .1875-.0938 .0664-.0195 .1276-.0312 .1875-.0312zm7.1875,0c.0833,0 .1497,.0052 .2188,.0312 .069,.0247 .138,.0924 .1875,.1562 .0508,.0638 .0977,.1432 .125,.25 .0286,.1068 .0312,.2422 .0312,.4062 0,.1641-.0013,.2982-.0312,.4062-.0286,.1081-.0729,.1862-.125,.25-.0521,.0638-.1146,.099-.1875,.125-.0716,.0247-.1654,.0625-.25,.0625-.0742,0-.1497-.0365-.2188-.0625-.0677-.026-.1042-.0612-.1562-.125-.0508-.0638-.0938-.1432-.125-.25-.0299-.1081-.0625-.2422-.0625-.4062 0-.1602 .0339-.2995 .0625-.4062 .0299-.1068 .043-.1862 .0938-.25 .0521-.0651 .1159-.1302 .1875-.1562 .0716-.0273 .1654-.0312 .25-.0312z"/>
<path d="m12,69 0,1c0,1.662 1.338,3 3,3h66c1.662,0 3-1.338 3-3v-1c0,1.662-1.338,3-3,3h-66c-1.662,0-3-1.338-3-3z"/>
<path d="m20,46 0,4.0022 8.0116,3.0931l-8.0116,3.0325v3.8722l11.9467-4.9165 .0533-3.8421-12-5.2414z"/>
<path d="m32,60 0,4 12,0 0-4-12,0z"/>
</g>
</svg>
