<svg xmlns="http://www.w3.org/2000/svg" viewBox="0 0 128 128" xmlns:xlink="http://www.w3.org/1999/xlink">
<defs>
<linearGradient gradientTransform="matrix(2.21934 0 0 2.6093 4.65587 19.19434)" id="linearGradient2862" xlink:href="#linearGradient4081" y1="20.237" y2="1.842" x2="0" gradientUnits="userSpaceOnUse"/>
<linearGradient id="linearGradient9647-5">
<stop offset="0" stop-color="#151414"/>
<stop offset="1" stop-color="#5c5a5a"/>
</linearGradient>
<linearGradient id="linearGradient4081">
<stop offset="0" stop-color="#aaa"/>
<stop offset="1" stop-color="#f0f0f0"/>
</linearGradient>
<linearGradient gradientTransform="matrix(1.00956 0 0 1.00567 17.09537 17.59809)" xlink:href="#linearGradient9647-5" id="linearGradient3139" y1="102.102" x1="48.246" y2="-21.966" gradientUnits="userSpaceOnUse" x2="17"/>
<radialGradient cx="119.332" cy="123.77" gradientTransform="matrix(1.0428 -.94238 .99228 1.09809 -149.07741 78.52216)" id="radialGradient3146" r="42.607" gradientUnits="userSpaceOnUse">
<stop offset="0" stop-color="#0d0e09"/>
<stop offset="1" stop-color="#abaeab" stop-opacity="0"/>
</radialGradient>
<radialGradient cx="128.619" cy="-5.046" gradientTransform="matrix(.0004 2.20813 -2.76706 .00046 17.16272 -249.92558)" id="radialGradient3137" r="45" gradientUnits="userSpaceOnUse">
<stop offset="0" stop-color="#4a4c37"/>
<stop offset=".313" stop-color="#2a2c1d"/>
<stop offset=".66" stop-color="#090908"/>
<stop offset="1" stop-color="#1d240d"/>
</radialGradient>
</defs>
<g transform="matrix(1.33172 0 0 1.33686 -23.73447 -23.82634)">
<path opacity=".763" fill="#090909" d="m30.0314-108.296h72.6876a6.0573,6.034 0 0,1 6.058,6.034v72.4083a6.0573,6.034 0 0,1 -6.058,6.0341h-72.6876a6.0573,6.034 0 0,1 -6.0574-6.0341v-72.4083a6.0573,6.034 0 0,1 6.0574-6.034" transform="scale(1 -1)"/>
<path fill="url(#radialGradient3137)" stroke="url(#linearGradient3139)" stroke-width="6.046" d="m29.6207,23.6321h72.6883a6.0573,6.034 0 0,1 6.057,6.0341v72.4088a6.0573,6.034 0 0,1 -6.057,6.034h-72.6883a6.0573,6.034 0 0,1 -6.0573-6.034v-72.4088a6.0573,6.034 0 0,1 6.0573-6.0341"/>
</g>
<g transform="matrix(1.44047 0 0 1.44048 -5.03085 -4.41427)">
<path opacity=".7" fill="url(#radialGradient3146)" d="m14.4038,11.1608h67.2764a2.7537,3.4142 0 0,1 2.7537,3.4142v66.01a2.7537,3.4142 0 0,1 -2.7537,3.4142h-67.2764a2.7537,3.4142 0 0,1 -2.7538-3.4142v-66.01a2.7537,3.4142 0 0,1 2.7538-3.4142"/>
</g>
<g transform="matrix(1.44047 0 0 1.44048 -5.03085 -4.41427)">
<path opacity=".1" d="m27.5938,23c-3.0718,0-5.5938,2.5219-5.5938,5.5938v26.8438c0,3.0691 2.5055,5.625 5.5938,5.625h20.8125c.0016,.0411 0,.0938 0,.0938 0,0 .0312,.125 .0312,.125 0,0 .0312,.1562 .0312,.1562 0,0 .0312,.125 .0312,.125 0,0 .0312,.1562 .0312,.1562 0,0 .0625,.125 .0625,.125 0,0 .0625,.125 .0625,.125 0,0 .0625,.125 .0625,.125 0,0 .0938,.125 .0938,.125 0,0 .0938,.0938 .0938,.0938l10.75,12c0,0 .0625,.0938 .0625,.0938 0,0 .0938,.0625 .0938,.0625 0,0 .0625,.0625 .0625,.0625 0,0 .0938,.0625 .0938,.0625 0,0 .0938,.0625 .0938,.0625 0,0 .0938,.0625 .0938,.0625 0,0 .0938,.0625 .0938,.0625 0,0 .0938,.0312 .0938,.0312 0,0 .0938,.0312 .0938,.0312 0,0 .0938,.0625 .0938,.0625 0,0 .0938,.0312 .0938,.0312 0,0 .125,0 .125,0 0,0 .0938,.0312 .0938,.0312 0,0 .0938,0 .0938,0 0,0 .125,.0312 .125,.0312 0,0 .0938,0 .0938,0 0,0 .0938,0 .0938,0 0,0 .125-.0312 .125-.0312 0,0 .0938,0 .0938,0 0,0 .0938-.0312 .0938-.0312 0,0 .125,0 .125,0 0,0 .0938-.0312 .0938-.0312 0-0 .0938-.0625 .0938-.0625 0-0 .0938-.0312 .0938-.0312 0-0 .0938-.0312 .0938-.0312 0-0 .0938-.0625 .0938-.0625 0-0 .0938-.0625 .0938-.0625 0-0 .0938-.0625 .0938-.0625 0-0 .0938-.0625 .0938-.0625 0-0 .0625-.0625 .0625-.0625 0-0 .0938-.0625 .0938-.0625 0-0 .0625-.0938 .0625-.0938l10.8438-12c0-0 .0938-.0938 .0938-.0938 0-0 .0938-.125 .0938-.125 0-0 .0625-.125 .0625-.125 0-0 .0625-.125 .0625-.125 0-0 .0625-.125 .0625-.125 0-0 .0312-.1562 .0312-.1562 0-0 .0312-.125 .0312-.125 0-0 .0312-.1562 .0312-.1562 0-0 .0312-.125 .0312-.125 0-0 0-.1562 0-.1562 0-0 0-.125 0-.125 0-0-.0312-.1562-.0312-.1562 0-0-.0312-.125-.0312-.125 0-0-.0312-.1562-.0312-.1562-0-0-.0312-.125-.0312-.125-0-0-.0625-.125-.0625-.125-0-0-.0625-.1562-.0625-.1562-0-0-.0625-.0938-.0625-.0938-0-0-.0938-.125-.0938-.125-0-0-.0938-.125-.0938-.125-0-0-.0938-.0938-.0938-.0938-0-0-.0938-.0938-.0938-.0938-0-0-.125-.0938-.125-.0938-0-0-.0938-.0938-.0938-.0938-0-0-.125-.0625-.125-.0625-0-0-.125-.0625-.125-.0625-0-0-.1562-.0625-.1562-.0625-0-0-.125-.0312-.125-.0312-0-0-.125-.0312-.125-.0312-0-0-.1562-.0312-.1562-.0312-0,0-.125-.0312-.125-.0312-0,0-.1562,0-.1562,0h-4v-3.8438c0-0 0-.1875 0-.1875 0-0-.0312-.1875-.0312-.1875-0-0-.0625-.2187-.0625-.2188-0-0-.0625-.1562-.0625-.1562-0-0-.0938-.1875-.0938-.1875-0-0-.0735-.1225-.0938-.1562-.0031-.0052 0-.0312 0-.0312 .0202-.0337 .0938-.1562 .0938-.1562 0-0 .0938-.1875 .0938-.1875 0-0 .0625-.1562 .0625-.1562 0-0 .0625-.2187 .0625-.2188 0-0 .0312-.1875 .0312-.1875 0-0 0-.1875 0-.1875v-3.8438c0-0 0-.1875 0-.1875 0-0-.0312-.1875-.0312-.1875-0-0-.0625-.2187-.0625-.2188-0-0-.0625-.1562-.0625-.1562-0-0-.0938-.1875-.0938-.1875-0-0-.0367-.1131-.0625-.1562 .0299-.0499 .0625-.125 .0625-.125 0-0 .0938-.1875 .0938-.1875 0-0 .0625-.1562 .0625-.1562 0-0 .0625-.2187 .0625-.2188 0-0 .0312-.1875 .0312-.1875 0-0 0-.1875 0-.1875v-1.9062c0-0 0-.1875 0-.1875 0-0-.0312-.1875-.0312-.1875-0-0-.0625-.2187-.0625-.2188-0-0-.0625-.1562-.0625-.1562-0-0-.0938-.1875-.0938-.1875-0-0-.0938-.1875-.0938-.1875-0-0-.125-.1562-.125-.1562-0-0-.125-.125-.125-.125-0-0-.125-.125-.125-.125-0-0-.1562-.125-.1562-.125-0-0-.1875-.0938-.1875-.0938-0-0-.1875-.0938-.1875-.0938-0-0-.1562-.0625-.1562-.0625-0-0-.2187-.0625-.2188-.0625-0-0-.1875-.0312-.1875-.0312-0,0-.1875,0-.1875,0h-9.875c-0,0-.0192,0-.0312,0-.024,0-.0265,0-.0625,0-0,0-.0265,0-.0625,0-.054,0-.0938,0-.0938,0a.9983,.9983 0 0,0 -.1562,.0312c-0,0-.1562,.0312-.1562,.0312-0,0-.1875,.0625-.1875,.0625-0,0-.1562,.0625-.1562,.0625-0,0-.1562,.0938-.1562,.0938-0,0-.125,.0938-.125,.0938-0,0-.1562,.0938-.1562,.0938-0,0-.125,.125-.125,.125-0,0-.125,.125-.125,.125-0,0-.0938,.1562-.0938,.1562-0,0-.0938,.125-.0938,.125-0,0-.0625,.1562-.0625,.1562-0,0-.0625,.1875-.0625,.1875-0,0-.0625,.1562-.0625,.1562-0,0-.0312,.1562-.0312,.1562 0,0-.0312,.1875-.0312,.1875 0,0 .001,.1158 0,.1562-.0002,.0081 0,.0312 0,.0312v1.875c0,0 0,.1875 0,.1875 0,0 .0312,.1875 .0312,.1875 0,0 .0625,.2187 .0625,.2188 0,0 .0625,.1562 .0625,.1562 0,0 .0938,.1875 .0938,.1875 0,0 .0326,.0751 .0625,.125-.0266,.0433-.0625,.0938-.0625,.0938-0,0-.0625,.1562-.0625,.1562-0,0-.0625,.1875-.0625,.1875-0,0-.0625,.1562-.0625,.1562-0,0-.0312,.1562-.0312,.1562 0,0-.0312,.1875-.0312,.1875 0,0 .001,.1158 0,.1562-.0002,.0081 0,.0312 0,.0312v3.8125c0,0 0,.1875 0,.1875 0,0 .0312,.1875 .0312,.1875 0,0 .0625,.2187 .0625,.2188 0,0 .0625,.1562 .0625,.1562 0,0 .0938,.1875 .0938,.1875 0,0 .0735,.1225 .0938,.1562 .0031,.0052 0,.0312 0,.0312-.0207,.0337-.0938,.0938-.0938,.0938-0,0-.0625,.1562-.0625,.1562-0,0-.0625,.1875-.0625,.1875-0,0-.0625,.1562-.0625,.1562-0,0-.0312,.1562-.0312,.1562 0,0-.0312,.1875-.0312,.1875 0,0 .001,.1158 0,.1562-.0002,.0081 0,.0312 0,.0312v3.8125h-1.375c.8136-.9795 1.3438-2.205 1.3438-3.5625v-26.8438c0-3.0718-2.5219-5.5938-5.5938-5.5938h-20.875zm4.375,9.9688 12.125,0 0,18.125-12.125,0 0-18.125z"/>
<path opacity=".15" d="m27.5938,24c-2.5281,0-4.5938,2.0657-4.5938,4.5938v26.8438c0,2.5281 2.0552,4.625 4.5938,4.625h20.875c2.5385,0 4.5938-2.0969 4.5938-4.625v-26.8438c0-2.5281-2.0657-4.5938-4.5938-4.5938h-20.875zm3.5938,7.9688 13.7188,0c.1103,0 .1875,.0772 .1875,.2188v19.6875c0,.1416-.0772,.2188-.1875,.2188h-13.7188c-.1103,0-.2188-.1085-.2188-.2188v-19.6875c0-.1103 .1085-.2188 .2188-.2188zm24.8125,12.0625a.9983,.9983 0 0,0 -.9062,1v1.9062a.9983,.9983 0 0,0 1,1h9.9062a.9983,.9983 0 0,0 1-1v-1.9062a.9983,.9983 0 0,0 -1-1h-9.9062a.9983,.9983 0 0,0 -.0938,0zm0,4.0625a.9983,.9983 0 0,0 -.9062,1v3.8438a.9983,.9983 0 0,0 1,1h9.9062a.9983,.9983 0 0,0 1-1v-3.8438a.9983,.9983 0 0,0 -1-1h-9.9062a.9983,.9983 0 0,0 -.0938,0zm0,6.0625a.9983,.9983 0 0,0 -.9062,1v4.8438h-4.6875a.9983,.9983 0 0,0 -.75,1.6562l10.75,12a.9983,.9983 0 0,0 1.5,0l10.8438-12a.9983,.9983 0 0,0 -.75-1.6562h-5v-4.8438a.9983,.9983 0 0,0 -1-1h-9.9062a.9983,.9983 0 0,0 -.0938,0z"/>
<path opacity=".3" d="m27.6,25c-1.9944,0-3.6,1.6056-3.6,3.6v26.8491c0,1.9944 1.6056,3.6 3.6,3.6h20.8533c1.9944,0 3.6-1.6056 3.6-3.6v-26.8491c0-1.9944-1.6056-3.6-3.6-3.6l-20.8533,0zm3.5796,5.9785 13.7222,0c.6648,0 1.2,.5352 1.2,1.2 0,0 0,12.5029 0,19.7029 0,.6648-.5352,1.2-1.2,1.2h-13.7222c-.6648,0-1.2-.5352-1.2-1.2v-19.7029c0-.6648 .5352-1.2 1.2-1.2zm24.9069,14.0627 0,1.8934 9.9103,0 0-1.8934-9.9103,0zm0,4.0401 0,3.8502 9.9103,0 0-3.8502-9.9103,0zm0,6.0602 0,5.8585h-5.6865l10.7667,12 10.8333-12h-6.0031v-5.8585h-9.9103z"/>
<path fill="url(#linearGradient2862)" d="m27.6,24c-1.9944,0-3.6,1.6056-3.6,3.6v26.8491c0,1.9944 1.6056,3.6 3.6,3.6h20.8533c1.9944,0 3.6-1.6056 3.6-3.6v-26.8491c0-1.9944-1.6056-3.6-3.6-3.6l-20.8533,0zm3.5796,5.9785 13.7222,0c.6648,0 1.2,.5352 1.2,1.2 0,0 0,12.5029 0,19.7029 0,.6648-.5352,1.2-1.2,1.2h-13.7222c-.6648,0-1.2-.5352-1.2-1.2v-19.7029c0-.6648 .5352-1.2 1.2-1.2zm24.9069,14.0627 0,1.8934 9.9103,0 0-1.8934-9.9103,0zm0,4.0401 0,3.8502 9.9103,0 0-3.8502-9.9103,0zm0,6.0602 0,5.8585h-5.6865l10.7667,12 10.8333-12h-6.0031v-5.8585h-9.9103z"/>
<path opacity=".75" fill="#fff" d="m27.5938,24c-1.9944,0-3.5938,1.5994-3.5938,3.5938v1c0-1.9944 1.5994-3.5938 3.5938-3.5938h20.875c1.9944,0 3.5938,1.5994 3.5938,3.5938v-1c0-1.9944-1.5994-3.5938-3.5938-3.5938h-20.875zm28.5,20.0312 0,1 9.9062,0 0-1-9.9062,0zm0,4.0625 0,1 9.9062,0 0-1-9.9062,0zm-26.125,2.7812 0,1c0,.6648 .554,1.2188 1.2188,1.2188h13.7188c.6648,0 1.1875-.554 1.1875-1.2188v-1c0,.6648-.5227,1.2188-1.1875,1.2188h-13.7188c-.6648,0-1.2188-.554-1.2188-1.2188zm26.125,3.2812 0,1 9.9062,0 0-1-9.9062,0zm-5.6875,5.8438l.9062,1h4.7812v-1h-5.6875zm15.5938,0 0,1 5.0938,0 .9062-1-6,0z"/>
<path opacity=".15" d="m31.1875,28.9688c-.6648,0-1.2188,.554-1.2188,1.2188v1c0-.6648 .554-1.2188 1.2188-1.2188h13.7188c.6648,0 1.1875,.554 1.1875,1.2188v-1c0-.6648-.5227-1.2188-1.1875-1.2188h-13.7188zm24.9062,15.9688 0,1 9.9062,0 0-1-9.9062,0zm0,6 0,1 9.9062,0 0-1-9.9062,0zm-32.0938,2.5v1c0,1.9944 1.5994,3.625 3.5938,3.625h20.875c1.9944,0 3.5938-1.6306 3.5938-3.625v-1c0,1.9944-1.5994,3.625-3.5938,3.625h-20.875c-1.9944,0-3.5938-1.6306-3.5938-3.625zm26.4062,6.5625 10.75,12 10.8438-12-.9062,0-9.9375,11-9.8438-11-.9062,0z"/>
</g>
</svg>
