<svg xmlns="http://www.w3.org/2000/svg" viewBox="0 0 128 128" xmlns:xlink="http://www.w3.org/1999/xlink">
<defs>
<linearGradient id="linearGradient3745" xlink:href="#linearGradient4081" y1="72" y2="24" x2="0" gradientUnits="userSpaceOnUse"/>
<linearGradient id="linearGradient9647-2">
<stop offset="0" stop-color="#151414"/>
<stop offset="1" stop-color="#5c5a5a"/>
</linearGradient>
<linearGradient id="linearGradient4081">
<stop offset="0" stop-color="#aaa"/>
<stop offset="1" stop-color="#f0f0f0"/>
</linearGradient>
<linearGradient gradientTransform="matrix(1.00956 0 0 1.00567 17.09537 17.59809)" xlink:href="#linearGradient9647-2" id="linearGradient3139" y1="102.102" x1="48.246" y2="-21.966" gradientUnits="userSpaceOnUse" x2="17"/>
<radialGradient cx="119.332" cy="123.77" gradientTransform="matrix(1.0428 -.94238 .99228 1.09809 -149.07741 78.52216)" id="radialGradient3146" r="42.607" gradientUnits="userSpaceOnUse">
<stop offset="0" stop-color="#0d0e09"/>
<stop offset="1" stop-color="#abaeab" stop-opacity="0"/>
</radialGradient>
<radialGradient cx="128.619" cy="-5.046" gradientTransform="matrix(.0004 2.20813 -2.76706 .00046 17.16272 -249.92558)" id="radialGradient3137" r="45" gradientUnits="userSpaceOnUse">
<stop offset="0" stop-color="#4a4c37"/>
<stop offset=".313" stop-color="#2a2c1d"/>
<stop offset=".66" stop-color="#090908"/>
<stop offset="1" stop-color="#1d240d"/>
</radialGradient>
</defs>
<g transform="matrix(1.33172 0 0 1.33686 -23.73447 -23.82634)">
<path opacity=".763" fill="#090909" d="m30.0314-108.296h72.6876a6.0573,6.034 0 0,1 6.058,6.034v72.4083a6.0573,6.034 0 0,1 -6.058,6.0341h-72.6876a6.0573,6.034 0 0,1 -6.0574-6.0341v-72.4083a6.0573,6.034 0 0,1 6.0574-6.034" transform="scale(1 -1)"/>
<path fill="url(#radialGradient3137)" stroke="url(#linearGradient3139)" stroke-width="6.046" d="m29.6207,23.6321h72.6883a6.0573,6.034 0 0,1 6.057,6.0341v72.4088a6.0573,6.034 0 0,1 -6.057,6.034h-72.6883a6.0573,6.034 0 0,1 -6.0573-6.034v-72.4088a6.0573,6.034 0 0,1 6.0573-6.0341"/>
</g>
<g transform="matrix(1.44047 0 0 1.44048 -5.03085 -4.41427)">
<path opacity=".7" fill="url(#radialGradient3146)" d="m14.4038,11.1608h67.2764a2.7537,3.4142 0 0,1 2.7537,3.4142v66.01a2.7537,3.4142 0 0,1 -2.7537,3.4142h-67.2764a2.7537,3.4142 0 0,1 -2.7538-3.4142v-66.01a2.7537,3.4142 0 0,1 2.7538-3.4142"/>
</g>
<g transform="matrix(1.44047 0 0 1.44048 -5.03121 -4.41391)">
<path opacity=".08" d="m48,21.9062c-14.9199,0-27.0938,12.1739-27.0938,27.0938 0,14.9199 12.1739,27.0938 27.0938,27.0938 14.9199,0 27.0938-12.1739 27.0938-27.0938 0-14.9199-12.1739-27.0938-27.0938-27.0938zm-6.9062,20.1875 13.8125,0 0,13.8125-13.8125,0 0-13.8125z"/>
<path opacity=".1" d="m48,23c-14.3315,0-26,11.6685-26,26 0,14.3315 11.6685,26 26,26 14.3315,0 26-11.6685 26-26 0-14.3315-11.6685-26-26-26zm-8,18 16,0 0,16-16,0 0-16z"/>
<path opacity=".15" d="m48,24c-13.7977,0-25,11.2023-25,25 0,13.7977 11.2023,25 25,25 13.7977,0 25-11.2023 25-25 0-13.7977-11.2023-25-25-25zm-9,16 18,0 0,18-18,0 0-18z"/>
<path opacity=".3" d="m48,25c-13.2548,0-24,10.7452-24,24 0,13.2548 10.7452,24 24,24 13.2548,0 24-10.7452 24-24 0-13.2548-10.7452-24-24-24zm-10,14 20,0 0,20-20,0 0-20z"/>
<path fill="url(#linearGradient3745)" d="m48,24c-13.2548,0-24,10.7452-24,24 0,13.2548 10.7452,24 24,24 13.2548,0 24-10.7452 24-24 0-13.2548-10.7452-24-24-24zm-10,14 20,0 0,20-20,0 0-20z"/>
<path opacity=".75" fill="#fff" d="m48,24c-13.2548,0-24,10.7452-24,24 0,.1656-.0033,.3352 0,.5 .2638-13.0261 10.9107-23.5 24-23.5 13.0893,0 23.7362,10.4739 24,23.5 .0033-.1648 0-.3344 0-.5 0-13.2548-10.7452-24-24-24zm-10,34 0,1 20,0 0-1-20,0z"/>
<path opacity=".15" d="m38,37 0,1 20,0 0-1-20,0zm-14,10.5c-.0033,.1648 0,.3344 0,.5 0,13.2548 10.7452,24 24,24 13.2548,0 24-10.7452 24-24 0-.1656 .0033-.3352 0-.5-.2638,13.0261-10.9107,23.5-24,23.5-13.0893,0-23.7362-10.4739-24-23.5z"/>
</g>
</svg>
