<svg xmlns="http://www.w3.org/2000/svg" viewBox="0 0 128 128" xmlns:xlink="http://www.w3.org/1999/xlink">
<defs>
<linearGradient xlink:href="#linearGradient4081" id="linearGradient3057" y1="72" y2="23.99" gradientUnits="userSpaceOnUse" x2="0"/>
<linearGradient id="linearGradient9647-5">
<stop offset="0" stop-color="#151414"/>
<stop offset="1" stop-color="#5c5a5a"/>
</linearGradient>
<linearGradient id="linearGradient4081">
<stop offset="0" stop-color="#aaa"/>
<stop offset="1" stop-color="#f0f0f0"/>
</linearGradient>
<linearGradient gradientTransform="matrix(1.00956 0 0 1.00567 17.09537 17.59809)" xlink:href="#linearGradient9647-5" id="linearGradient3139" y1="102.102" x1="48.246" y2="-21.966" gradientUnits="userSpaceOnUse" x2="17"/>
<radialGradient cx="119.332" cy="123.77" gradientTransform="matrix(1.0428 -.94238 .99228 1.09809 -149.07741 78.52216)" id="radialGradient3146" r="42.607" gradientUnits="userSpaceOnUse">
<stop offset="0" stop-color="#0d0e09"/>
<stop offset="1" stop-color="#abaeab" stop-opacity="0"/>
</radialGradient>
<radialGradient cx="128.619" cy="-5.046" gradientTransform="matrix(.0004 2.20813 -2.76706 .00046 17.16272 -249.92558)" id="radialGradient3137" r="45" gradientUnits="userSpaceOnUse">
<stop offset="0" stop-color="#4a4c37"/>
<stop offset=".313" stop-color="#2a2c1d"/>
<stop offset=".66" stop-color="#090908"/>
<stop offset="1" stop-color="#1d240d"/>
</radialGradient>
</defs>
<g transform="matrix(1.33172 0 0 1.33686 -23.73445 -23.82693)">
<path opacity=".763" fill="#090909" d="m30.0314-108.296h72.6876a6.0573,6.034 0 0,1 6.058,6.034v72.4083a6.0573,6.034 0 0,1 -6.058,6.0341h-72.6876a6.0573,6.034 0 0,1 -6.0574-6.0341v-72.4083a6.0573,6.034 0 0,1 6.0574-6.034" transform="scale(1 -1)"/>
<path fill="url(#radialGradient3137)" stroke="url(#linearGradient3139)" stroke-width="6.046" d="m29.6207,23.6321h72.6883a6.0573,6.034 0 0,1 6.057,6.0341v72.4088a6.0573,6.034 0 0,1 -6.057,6.034h-72.6883a6.0573,6.034 0 0,1 -6.0573-6.034v-72.4088a6.0573,6.034 0 0,1 6.0573-6.0341"/>
</g>
<g transform="matrix(1.44047 0 0 1.44048 -5.03084 -4.41478)">
<path opacity=".7" fill="url(#radialGradient3146)" d="m14.4038,11.1608h67.2764a2.7537,3.4142 0 0,1 2.7537,3.4142v66.01a2.7537,3.4142 0 0,1 -2.7537,3.4142h-67.2764a2.7537,3.4142 0 0,1 -2.7538-3.4142v-66.01a2.7537,3.4142 0 0,1 2.7538-3.4142"/>
</g>
<g transform="matrix(1.44047 0 0 1.44048 -5.03012 -4.4155)">
<path opacity=".1" d="m48,22.9375c-14.3765,0-26.0625,11.686-26.0625,26.0625 0,14.3765 11.686,26.0625 26.0625,26.0625 14.3765,0 26.0625-11.686 26.0625-26.0625 0-14.3765-11.686-26.0625-26.0625-26.0625z"/>
<path opacity=".15" d="m48,24.0312c-13.7856,0-24.9688,11.1831-24.9688,24.9688 0,13.7856 11.1831,24.9688 24.9688,24.9688 13.7856,0 24.9688-11.1831 24.9688-24.9688 0-13.7856-11.1831-24.9688-24.9688-24.9688zm-1.0938,8 2.0625,0 0,12.0625-2.0625,0 0-12.0625zm6,5.1875c4.6817,1.9592 8.0625,6.4997 8.0625,11.9062 0,7.1724-5.7964,12.9688-12.9688,12.9688-7.1724,0-12.9688-5.7964-12.9688-12.9688 0-5.3628 3.3117-9.8288 7.9375-11.8125v2.1562c-3.4907,1.8399-5.875,5.4616-5.875,9.6562 0,6.023 4.8833,10.9062 10.9062,10.9062 6.023,0 10.9062-4.8833 10.9062-10.9062 0-4.2401-2.4554-7.8976-6-9.7188v-2.1875z"/>
<path opacity=".3" d="m48,25c-13.2548,0-24,10.7452-24,24 0,13.2548 10.7452,24 24,24 13.2548,0 24-10.7452 24-24 0-13.2548-10.7452-24-24-24zm-2.0625,6.0625 4,0 0,14-4,0 0-14zm6,4.625c5.7859,1.7028 10,7.1004 10,13.4375 0,7.7024-6.2351,13.9375-13.9375,13.9375-7.7024,0-13.9375-6.2351-13.9375-13.9375 0-6.2924 4.1443-11.633 9.875-13.375v4.25c-3.4747,1.5599-5.875,5.0786-5.875,9.125 0,5.4933 4.4442,9.9375 9.9375,9.9375 5.4933,0 9.9375-4.4442 9.9375-9.9375 0-4.0954-2.4665-7.6563-6-9.1875v-4.25z"/>
<path fill="url(#linearGradient3057)" d="m48,24c-13.2548,0-24,10.7452-24,24 0,13.2548 10.7452,24 24,24 13.2548,0 24-10.7452 24-24 0-13.2548-10.7452-24-24-24zm-2.0625,6.0625 4,0 0,14-4,0 0-14zm6,4.625c5.7859,1.7028 10,7.1004 10,13.4375 0,7.7024-6.2351,13.9375-13.9375,13.9375-7.7024,0-13.9375-6.2351-13.9375-13.9375 0-6.2924 4.1443-11.633 9.875-13.375v4.25c-3.4747,1.5599-5.875,5.0786-5.875,9.125 0,5.4933 4.4442,9.9375 9.9375,9.9375 5.4933,0 9.9375-4.4442 9.9375-9.9375 0-4.0954-2.4665-7.6563-6-9.1875v-4.25z"/>
<path opacity=".75" fill="#fff" d="m48,24c-13.2548,0-24,10.7452-24,24 0,.1656-.0033,.3352 0,.5 .2638-13.0261 10.9107-23.5 24-23.5 13.0893,0 23.7362,10.4739 24,23.5 .0033-.1648 0-.3344 0-.5 0-13.2548-10.7452-24-24-24zm3.9375,14.9375 0,1c3.3127,1.4355 5.6848,4.6662 5.9688,8.4375 .002-.0831 .0312-.1664 .0312-.25 0-4.0954-2.4665-7.6563-6-9.1875zm-8,.0625c-3.4747,1.5599-5.875,5.0786-5.875,9.125 0,.0836 .0292,.1669 .0312,.25 .2764-3.7264 2.5862-6.9126 5.8438-8.375v-1zm2,5.0625 0,1 4,0 0-1-4,0zm-11.8438,4.625c-.0046,.1478-.0312,.2886-.0312,.4375 0,7.7024 6.2351,13.9375 13.9375,13.9375 7.7024,0 13.9375-6.2351 13.9375-13.9375 0-.1461-.0268-.2925-.0312-.4375-.2949,7.4411-6.3923,13.375-13.9062,13.375-7.5139,0-13.6114-5.9339-13.9062-13.375z"/>
<path opacity=".15" d="m45.9375,29.0625 0,1 4,0 0-1-4,0zm6,4.625 0,1c5.6526,1.6636 9.7803,6.8527 9.9688,13 .0074-.1866 .0312-.374 .0312-.5625 0-6.3371-4.2141-11.7347-10-13.4375zm-8,.0625c-5.7307,1.742-9.875,7.0826-9.875,13.375 0,.1885 .0239,.3759 .0312,.5625 .1902-6.098 4.2487-11.2367 9.8438-12.9375v-1zm-19.9375,13.75c-.0033,.1648 0,.3344 0,.5 0,13.2548 10.7452,24 24,24 13.2548,0 24-10.7452 24-24 0-.1656 .0033-.3352 0-.5-.2638,13.0261-10.9107,23.5-24,23.5-13.0893,0-23.7362-10.4739-24-23.5zm14.0938,.0312c-.0116,.1975-.0312,.3934-.0312,.5938 0,5.4933 4.4442,9.9375 9.9375,9.9375 5.4933,0 9.9375-4.4442 9.9375-9.9375 0-.2027-.0193-.3938-.0312-.5938-.2116,5.3054-4.5484,9.5312-9.9062,9.5312-5.3579,0-9.6946-4.2258-9.9062-9.5312z"/>
</g>
</svg>
