<svg xmlns="http://www.w3.org/2000/svg" viewBox="0 0 128 128" xmlns:xlink="http://www.w3.org/1999/xlink">
<defs>
<linearGradient xlink:href="#linearGradient4081" id="linearGradient3062" y1="72" y2="24" gradientUnits="userSpaceOnUse" x2="0"/>
<linearGradient id="linearGradient9647-8">
<stop offset="0" stop-color="#151414"/>
<stop offset="1" stop-color="#5c5a5a"/>
</linearGradient>
<linearGradient id="linearGradient4081">
<stop offset="0" stop-color="#aaa"/>
<stop offset="1" stop-color="#f0f0f0"/>
</linearGradient>
<linearGradient gradientTransform="matrix(1.00956 0 0 1.00567 17.09537 17.59809)" xlink:href="#linearGradient9647-8" id="linearGradient3139" y1="102.102" x1="48.246" y2="-21.966" gradientUnits="userSpaceOnUse" x2="17"/>
<radialGradient cx="119.332" cy="123.77" gradientTransform="matrix(1.0428 -.94238 .99228 1.09809 -149.07741 78.52216)" id="radialGradient3146" r="42.607" gradientUnits="userSpaceOnUse">
<stop offset="0" stop-color="#0d0e09"/>
<stop offset="1" stop-color="#abaeab" stop-opacity="0"/>
</radialGradient>
<radialGradient cx="128.619" cy="-5.046" gradientTransform="matrix(.0004 2.20813 -2.76706 .00046 17.16272 -249.92558)" id="radialGradient3137" r="45" gradientUnits="userSpaceOnUse">
<stop offset="0" stop-color="#4a4c37"/>
<stop offset=".313" stop-color="#2a2c1d"/>
<stop offset=".66" stop-color="#090908"/>
<stop offset="1" stop-color="#1d240d"/>
</radialGradient>
</defs>
<g transform="matrix(1.33172 0 0 1.33686 -23.7345 -23.8264)">
<path opacity=".763" fill="#090909" d="m30.0314-108.296h72.6876a6.0573,6.034 0 0,1 6.058,6.034v72.4083a6.0573,6.034 0 0,1 -6.058,6.0341h-72.6876a6.0573,6.034 0 0,1 -6.0574-6.0341v-72.4083a6.0573,6.034 0 0,1 6.0574-6.034" transform="scale(1 -1)"/>
<path fill="url(#radialGradient3137)" stroke="url(#linearGradient3139)" stroke-width="6.046" d="m29.6207,23.6321h72.6883a6.0573,6.034 0 0,1 6.057,6.0341v72.4088a6.0573,6.034 0 0,1 -6.057,6.034h-72.6883a6.0573,6.034 0 0,1 -6.0573-6.034v-72.4088a6.0573,6.034 0 0,1 6.0573-6.0341"/>
</g>
<g transform="matrix(1.44048 0 0 1.44048 -5.03086 -4.41433)">
<path opacity=".7" fill="url(#radialGradient3146)" d="m14.4038,11.1608h67.2764a2.7537,3.4142 0 0,1 2.7537,3.4142v66.01a2.7537,3.4142 0 0,1 -2.7537,3.4142h-67.2764a2.7537,3.4142 0 0,1 -2.7538-3.4142v-66.01a2.7537,3.4142 0 0,1 2.7538-3.4142"/>
</g>
<g transform="matrix(1.44048 0 0 1.44048 -5.03122 -4.41397)">
<path opacity=".1" d="m48,22.9062c-14.3895,0-26.0938,11.7042-26.0938,26.0938 0,14.3895 11.7042,26.0938 26.0938,26.0938 14.3895,0 26.0938-11.7042 26.0938-26.0938 0-14.3895-11.7042-26.0938-26.0938-26.0938z"/>
<path opacity=".15" d="m48,23.9062c-13.8407,0-25.0938,11.253-25.0938,25.0938 0,13.8407 11.253,25.0938 25.0938,25.0938 13.8407,0 25.0938-11.253 25.0938-25.0938 0-13.8407-11.253-25.0938-25.0938-25.0938zm-.9062,10.1875 1.8125,0 0,7.9688c-.3052-.0407-.5904-.1562-.9062-.1562-.3159,0-.601,.1156-.9062,.1562v-7.9688zm-9,3.75 5.625,5.625c-.4735,.3662-.8838,.7765-1.25,1.25l-5.625-5.625 1.25-1.25zm19.8125,0 1.25,1.25-5.625,5.625c-.3662-.4735-.7765-.8838-1.25-1.25l5.625-5.625zm-24.8125,10.25 7.9688,0c-.0407,.3052-.1562,.5904-.1562,.9062 0,.3159 .1156,.601 .1562,.9062h-7.9688v-1.8125zm21.8438,0 7.9688,0 0,1.8125-7.9688,0c.0407-.3052 .1562-.5904 .1562-.9062 0-.3159-.1156-.601-.1562-.9062zm-12.4688,5.1875c.3662,.4735 .7765,.8838 1.25,1.25l-5.625,5.625-1.25-1.25 5.625-5.625zm11.0625,0 5.625,5.625-1.25,1.25-5.625-5.625c.4735-.3662 .8838-.7765 1.25-1.25zm-6.4375,2.6562c.3052,.0407 .5904,.1562 .9062,.1562 .3159,0 .601-.1156 .9062-.1562v7.9688h-1.8125v-7.9688z"/>
<path opacity=".3" d="m48,25c-13.2548,0-24,10.7452-24,24 0,13.2548 10.7452,24 24,24 13.2548,0 24-10.7452 24-24 0-13.2548-10.7452-24-24-24zm-2,8 4,0 0,10.3438c-.6251-.2208-1.2993-.3438-2-.3438-.7007,0-1.3749,.123-2,.3438v-10.3438zm-7.9062,3.2812 7.3125,7.3125c-1.2341,.5911-2.2214,1.5784-2.8125,2.8125l-7.3125-7.3125 2.8125-2.8125zm19.8125,0 2.8125,2.8125-7.3125,7.3125c-.5911-1.2341-1.5784-2.2214-2.8125-2.8125l7.3125-7.3125zm-25.9062,10.7188 10.3438,0c-.2208,.6251-.3438,1.2993-.3438,2 0,.7007 .123,1.3749 .3438,2h-10.3438v-4zm21.6562,0 10.3438,0 0,4-10.3438,0c.2208-.6251 .3438-1.2993 .3438-2 0-.7007-.123-1.3749-.3438-2zm-11.0625,4.5938c.5911,1.2341 1.5784,2.2214 2.8125,2.8125l-7.3125,7.3125-2.8125-2.8125 7.3125-7.3125zm10.8125,0 7.3125,7.3125-2.8125,2.8125-7.3125-7.3125c1.2341-.5911 2.2214-1.5784 2.8125-2.8125zm-7.4062,3.0625c.6251,.2208 1.2993,.3438 2,.3438 .7007,0 1.3749-.123 2-.3438v10.3438h-4v-10.3438z"/>
<path fill="url(#linearGradient3062)" d="m48,24c-13.2548,0-24,10.7452-24,24 0,13.2548 10.7452,24 24,24 13.2548,0 24-10.7452 24-24 0-13.2548-10.7452-24-24-24zm-2,8 4,0 0,10.3438c-.6251-.2208-1.2993-.3438-2-.3438-.7007,0-1.3749,.123-2,.3438v-10.3438zm-7.9062,3.2812 7.3125,7.3125c-1.2341,.5911-2.2214,1.5784-2.8125,2.8125l-7.3125-7.3125 2.8125-2.8125zm19.8125,0 2.8125,2.8125-7.3125,7.3125c-.5911-1.2341-1.5784-2.2214-2.8125-2.8125l7.3125-7.3125zm-25.9062,10.7188 10.3438,0c-.2208,.6251-.3438,1.2993-.3438,2 0,.7007 .123,1.3749 .3438,2h-10.3438v-4zm21.6562,0 10.3438,0 0,4-10.3438,0c.2208-.6251 .3438-1.2993 .3438-2 0-.7007-.123-1.3749-.3438-2zm-11.0625,4.5938c.5911,1.2341 1.5784,2.2214 2.8125,2.8125l-7.3125,7.3125-2.8125-2.8125 7.3125-7.3125zm10.8125,0 7.3125,7.3125-2.8125,2.8125-7.3125-7.3125c1.2341-.5911 2.2214-1.5784 2.8125-2.8125zm-7.4062,3.0625c.6251,.2208 1.2993,.3438 2,.3438 .7007,0 1.3749-.123 2-.3438v10.3438h-4v-10.3438z"/>
<path opacity=".75" fill="#fff" d="m48,24c-13.2548,0-24,10.7452-24,24 0,.1656-.0033,.3352 0,.5 .2638-13.0261 10.9107-23.5 24-23.5 13.0893,0 23.7362,10.4739 24,23.5 .0033-.1648 0-.3344 0-.5 0-13.2548-10.7452-24-24-24zm-12.2188,14.5938-.5,.5l6.9062,6.9062h.1562c-.0142,.0403-.0179,.0844-.0312,.125l.2812,.2812c.5911-1.2341 1.5784-2.2214 2.8125-2.8125l-.625-.625c-.9339,.5976-1.7033,1.4265-2.1875,2.4375l-6.8125-6.8125zm24.4375,0-6.8125,6.8125c-.4842-1.011-1.2536-1.8399-2.1875-2.4375l-.625,.625c1.2341,.5911 2.2214,1.5784 2.8125,2.8125l.2812-.2812c-.0134-.0406-.017-.0847-.0312-.125h.1562l6.9062-6.9062-.5-.5zm-12.2188,3.4062c-.7007,0-1.3749,.123-2,.3438v1c.6251-.2208 1.2993-.3438 2-.3438 .7007,0 1.3749,.123 2,.3438v-1c-.6251-.2208-1.2993-.3438-2-.3438zm-5.9062,5c-.055,.3248-.0938,.6602-.0938,1 0,.1694 .0172,.334 .0312,.5 .044-.5205 .1451-1.026 .3125-1.5h-.25zm11.5625,0c.1674,.474 .2685,.9795 .3125,1.5 .014-.166 .0312-.3306 .0312-.5 0-.3398-.0388-.6752-.0938-1h-.25zm-21.6562,3v1h10.1875l.125-.125c-.0938-.2845-.1677-.5732-.2188-.875h-10.0938zm21.9062,0c-.0511,.3018-.125,.5905-.2188,.875l.125,.125h10.1875v-1h-10.0938zm-9.125,4.0312-6.6875,6.6875-2.3125-2.3125-.5,.5 2.8125,2.8125 7.3125-7.3125c-.2231-.1069-.4189-.2431-.625-.375zm6.4375,0c-.2061,.1319-.4019,.2681-.625,.375l7.3125,7.3125 2.8125-2.8125-.5-.5-2.3125,2.3125-6.6875-6.6875zm-5.2188,9.9688v1h4v-1h-4z"/>
<path opacity=".15" d="m46,31 0,1 4,0 0-1-4,0zm-7.9062,3.2812-2.8125,2.8125 .5,.5 2.3125-2.3125 6.6875,6.6875c.2061-.1319 .4019-.2681 .625-.375l-7.3125-7.3125zm19.8125,0-7.3125,7.3125c.2231,.1069 .4189,.2431 .625,.375l6.6875-6.6875 2.3125,2.3125 .5-.5-2.8125-2.8125zm-25.9062,10.7188v1h10.0938c.0511-.3018 .125-.5905 .2188-.875l-.125-.125h-10.1875zm21.8125,0-.125,.125c.0938,.2845 .1677,.5732 .2188,.875h10.0938v-1h-10.1875zm-29.8125,2.5c-.0033,.1648 0,.3344 0,.5 0,13.2548 10.7452,24 24,24 13.2548,0 24-10.7452 24-24 0-.1656 .0033-.3352 0-.5-.2638,13.0261-10.9107,23.5-24,23.5-13.0893,0-23.7362-10.4739-24-23.5zm18.0312,0c-.014,.166-.0312,.3306-.0312,.5 0,.3398 .0388,.6752 .0938,1h.25c-.1674-.474-.2685-.9795-.3125-1.5zm11.9375,0c-.044,.5205-.1451,1.026-.3125,1.5h.25c.055-.3248 .0938-.6602 .0938-1 0-.1694-.0172-.334-.0312-.5zm-11.375,2.0938-.2812,.2812c.0134,.0406 .017,.0847 .0312,.125h-.1562l-6.9062,6.9062 .5,.5 6.8125-6.8125c.4842,1.011 1.2536,1.8399 2.1875,2.4375l.625-.625c-1.2341-.5911-2.2214-1.5784-2.8125-2.8125zm10.8125,0c-.5911,1.2341-1.5784,2.2214-2.8125,2.8125l.625,.625c.9339-.5976 1.7033-1.4265 2.1875-2.4375l6.8125,6.8125 .5-.5-6.9062-6.9062h-.1562c.0142-.0403 .0179-.0844 .0312-.125l-.2812-.2812zm-7.4062,3.0625v1c.6251,.2208 1.2993,.3438 2,.3438 .7007,0 1.3749-.123 2-.3438v-1c-.6251,.2208-1.2993,.3438-2,.3438-.7007,0-1.3749-.123-2-.3438z"/>
</g>
</svg>
