<svg width="128" version="1.0" xmlns="http://www.w3.org/2000/svg" height="128" xmlns:xlink="http://www.w3.org/1999/xlink">
<defs id="defs3451">
<linearGradient id="linearGradient3487">
<stop offset="0" style="stop-color:#e6cde2" id="stop3489"/>
<stop offset="1" style="stop-color:#e6cde2;stop-opacity:0" id="stop3491"/>
</linearGradient>
<linearGradient id="linearGradient3104-0">
<stop offset="0" style="stop-color:#a2a2a2" id="stop3106-3"/>
<stop offset="1" style="stop-color:#e1e1e1" id="stop3108-8"/>
</linearGradient>
<linearGradient gradientTransform="matrix(0.4893625,0,0,0.4893625,16.2553,6.2553)" spreadMethod="reflect" id="linearGradient2959" xlink:href="#linearGradient3495" y1="11.200086" y2="9.7956104" x1="17.494959" x2="21.047453" gradientUnits="userSpaceOnUse"/>
<linearGradient gradientTransform="matrix(0.4893625,0,0,0.4893625,16.2553,6.2553)" spreadMethod="reflect" id="linearGradient2956" xlink:href="#linearGradient3503" y1="13.045606" y2="10.732353" x1="14.084608" x2="16.994024" gradientUnits="userSpaceOnUse"/>
<linearGradient id="linearGradient3495">
<stop offset="0" style="stop-color:#c1cbe4" id="stop3497"/>
<stop offset="1" style="stop-color:#c1cbe4;stop-opacity:0" id="stop3499"/>
</linearGradient>
<linearGradient gradientTransform="matrix(0.4891673,0.01382104,-0.01382104,0.4891673,16.59414,5.9270187)" spreadMethod="reflect" id="linearGradient2962" xlink:href="#linearGradient3487" y1="10.774516" y2="9.8622112" x1="20.580074" x2="24.27351" gradientUnits="userSpaceOnUse"/>
<linearGradient id="linearGradient3437">
<stop offset="0" style="stop-color:#3c3c3c" id="stop3439"/>
<stop offset="1" style="stop-color:#5d5f6b" id="stop3441"/>
</linearGradient>
<linearGradient id="linearGradient3772">
<stop offset="0" style="stop-color:#b4b4b4" id="stop3774"/>
<stop offset="1" style="stop-color:#969696" id="stop3776"/>
</linearGradient>
<linearGradient gradientTransform="matrix(0,0.6000053,-0.6000053,0,41.860125,3.5998693)" id="linearGradient2965" xlink:href="#linearGradient3263" y1="32.4165" y2="14.2033" x1="12.2744" x2="35.391201" gradientUnits="userSpaceOnUse"/>
<linearGradient gradientTransform="matrix(0.5121951,0,0,0.5121951,41.452835,5.7073167)" id="linearGradient2967" xlink:href="#linearGradient3772" y1="3" y2="45.032898" x1="-21.915663" x2="-21.915663" gradientUnits="userSpaceOnUse"/>
<linearGradient id="linearGradient3263" y1="32.4165" y2="14.2033" x1="12.2744" gradientUnits="userSpaceOnUse" x2="35.391201">
<stop offset="0" style="stop-color:#dedbde" id="stop3265"/>
<stop offset="0.5" style="stop-color:#e6e6e6" id="stop3267"/>
<stop offset="1" style="stop-color:#d2d2d2" id="stop3269"/>
</linearGradient>
<linearGradient id="linearGradient3503">
<stop offset="0" style="stop-color:#c4ebdd" id="stop3505"/>
<stop offset="1" style="stop-color:#c4ebdd;stop-opacity:0" id="stop3507"/>
</linearGradient>
<linearGradient gradientTransform="translate(-1,0)" spreadMethod="reflect" id="linearGradient2938" xlink:href="#linearGradient3242" y1="24.650604" y2="12.711448" x1="27" x2="27" gradientUnits="userSpaceOnUse"/>
<linearGradient gradientTransform="matrix(0.4893625,0,0,0.4893625,16.2553,6.2553)" spreadMethod="reflect" id="linearGradient2953" xlink:href="#linearGradient3511" y1="16.188046" y2="13.461712" x1="12.371647" x2="14.609327" gradientUnits="userSpaceOnUse"/>
<linearGradient id="linearGradient3242">
<stop offset="0" style="stop-color:#9de74f" id="stop3244"/>
<stop offset="0.49876043" style="stop-color:#a5c842" id="stop3246"/>
<stop offset="1" style="stop-color:#7dab2c" id="stop3248"/>
</linearGradient>
<linearGradient id="linearGradient2490">
<stop offset="0" style="stop-color:#cdff8f" id="stop2492"/>
<stop offset="0.25483045" style="stop-color:#708449" id="stop4118"/>
<stop offset="1" style="stop-color:#73a559" id="stop2494"/>
</linearGradient>
<linearGradient gradientTransform="translate(-1,0)" spreadMethod="reflect" id="linearGradient2940" xlink:href="#linearGradient2490" y1="12.711448" y2="23.258751" x1="20" x2="20" gradientUnits="userSpaceOnUse"/>
<linearGradient gradientTransform="matrix(1.1598935,0,0,1.3742464,-3.8374201,-0.9326011)" id="linearGradient2943" xlink:href="#linearGradient3355-273-3" y1="9.3726854" y2="2.0968478" x1="23.999979" x2="23.999979" gradientUnits="userSpaceOnUse"/>
<linearGradient id="linearGradient3511">
<stop offset="0" style="stop-color:#ebeec7" id="stop3513"/>
<stop offset="1" style="stop-color:#ebeec7;stop-opacity:0" id="stop3515"/>
</linearGradient>
<linearGradient id="linearGradient6036">
<stop offset="0" style="stop-color:#fff" id="stop6038"/>
<stop offset="1" style="stop-color:#fff;stop-opacity:0" id="stop6040"/>
</linearGradient>
<linearGradient gradientTransform="matrix(0.4893625,0,0,0.4893625,16.2553,6.2553)" spreadMethod="reflect" id="linearGradient2950" xlink:href="#linearGradient3519" y1="17.886322" y2="20.612656" x1="10.609375" x2="9.7297754" gradientUnits="userSpaceOnUse"/>
<linearGradient gradientTransform="matrix(0.4820056,0,0,0.4820056,16.264609,5.9498628)" id="linearGradient2947" xlink:href="#linearGradient6036" y1="3.6100161" y2="54.698483" x1="10.50172" x2="48.798885" gradientUnits="userSpaceOnUse"/>
<linearGradient id="linearGradient3519">
<stop offset="0" style="stop-color:#fcd9cd" id="stop3521"/>
<stop offset="1" style="stop-color:#fcd9cd;stop-opacity:0" id="stop3523"/>
</linearGradient>
<linearGradient gradientTransform="matrix(1,0,0,0.9561695,-36.672862,7.8694218)" id="linearGradient2970" xlink:href="#linearGradient3437" y1="5.9285936" y2="-3.6927242" x1="52.672863" x2="59.672863" gradientUnits="userSpaceOnUse"/>
<linearGradient id="linearGradient3355-273-3">
<stop offset="0" style="stop-color:#f0f0f0" id="stop4657-0"/>
<stop offset="0.44955608" style="stop-color:#777779" id="stop3619-1"/>
<stop offset="1" style="stop-color:#6c6c70" id="stop4659-5"/>
</linearGradient>
<linearGradient id="linearGradient3254-8-457-5">
<stop offset="0" style="stop-color:#fff" id="stop4669-9"/>
<stop offset="1" style="stop-color:#fff;stop-opacity:0" id="stop4671-8"/>
</linearGradient>
<linearGradient id="linearGradient3320-3">
<stop offset="0" style="stop-color:#4e4e4e" id="stop3323-2"/>
<stop offset="1" style="stop-color:#b9bac2" id="stop3325-6"/>
</linearGradient>
<linearGradient spreadMethod="reflect" id="linearGradient2993" xlink:href="#linearGradient3320-3" y1="8" y2="8" x1="9.0003471" x2="24" gradientUnits="userSpaceOnUse"/>
<linearGradient id="linearGradient3384-6">
<stop offset="0" style="stop-color:#6e6e6e" id="stop3386-6"/>
<stop offset="1" style="stop-color:#9f9fa1" id="stop3388-6"/>
</linearGradient>
<linearGradient gradientTransform="translate(-1,0)" spreadMethod="reflect" id="linearGradient2935" xlink:href="#linearGradient6036" y1="12.711448" y2="21.276361" x1="20" x2="20" gradientUnits="userSpaceOnUse"/>
<linearGradient gradientTransform="translate(0,2)" id="linearGradient3003" xlink:href="#linearGradient3384-6" y1="45" y2="5.5" x1="31.048019" x2="31.048019" gradientUnits="userSpaceOnUse"/>
<linearGradient id="linearGradient5060-3">
<stop offset="0" id="stop5062-06"/>
<stop offset="1" style="stop-opacity:0" id="stop5064-9"/>
</linearGradient>
<linearGradient id="linearGradient2793-2-0-403-6">
<stop offset="0" style="stop-color:#8d909a" id="stop4645-6"/>
<stop offset="1" style="stop-color:#d9d9d9" id="stop4647-1"/>
</linearGradient>
<linearGradient gradientTransform="matrix(1.2083478,0,0,1.5198788,-1.979478,-15.055094)" spreadMethod="reflect" id="linearGradient3001" xlink:href="#linearGradient2793-2-0-403-6" y1="26.410894" y2="26.410894" x1="11.93083" x2="21.514704" gradientUnits="userSpaceOnUse"/>
<linearGradient gradientTransform="matrix(1.1598658,0,0,1.3742464,-3.8367541,-0.9326014)" id="linearGradient2995" xlink:href="#linearGradient3355-273-3" y1="9.3726854" y2="2.0968478" x1="23.999979" x2="23.999979" gradientUnits="userSpaceOnUse"/>
<linearGradient gradientTransform="matrix(1,0.04605065,0,1,0,-0.9440383)" id="linearGradient2978" xlink:href="#linearGradient3205-5" y1="15.502284" y2="45" x1="24" x2="24" gradientUnits="userSpaceOnUse"/>
<linearGradient id="linearGradient3205-5">
<stop offset="0" id="stop3207-3"/>
<stop offset="1" style="stop-opacity:0" id="stop3209-8"/>
</linearGradient>
<linearGradient gradientTransform="matrix(1,0,0,0.9561695,-36.672862,7.8694218)" id="linearGradient2973" xlink:href="#linearGradient3865" y1="1.7133857" y2="1.7133857" x1="49.925751" x2="64.672821" gradientUnits="userSpaceOnUse"/>
<linearGradient gradientTransform="matrix(0.8074968,0,0,0.8948322,22.73737,6.8037908)" id="linearGradient2975" xlink:href="#linearGradient3104-0" y1="16.208538" y2="-2.087147" x1="-11.285484" x2="-11.285484" gradientUnits="userSpaceOnUse"/>
<linearGradient id="linearGradient3865">
<stop offset="0" style="stop-color:#b8b4b4" id="stop3867"/>
<stop offset="1" style="stop-color:#f1f1f0" id="stop3869"/>
</linearGradient>
<linearGradient gradientTransform="matrix(1,0.3684052,0,1,0,-4.9734702)" id="linearGradient2981" xlink:href="#linearGradient3205-5" y1="13.506023" y2="43" x1="24" x2="24" gradientUnits="userSpaceOnUse"/>
<linearGradient id="linearGradient3627-8">
<stop offset="0" style="stop-opacity:0" id="stop3629-6"/>
<stop offset="0.5" style="stop-opacity:0" id="stop3190-0"/>
<stop offset="1" id="stop3631-2"/>
</linearGradient>
<linearGradient gradientTransform="matrix(0.8965013,0,0,1.365896,4.7251825,-8.808688)" id="linearGradient2984" xlink:href="#linearGradient3254-3-182-2" y1="20.230709" y2="34.173542" x1="12.25" x2="17.125" gradientUnits="userSpaceOnUse"/>
<linearGradient gradientTransform="matrix(1.2227969,0,0,1.9458981,-4.735753,-31.362975)" id="linearGradient2987" xlink:href="#linearGradient3254-8-457-5" y1="10.996204" y2="39.850574" x1="23.5" x2="23.5" gradientUnits="userSpaceOnUse"/>
<linearGradient id="linearGradient3254-3-182-2">
<stop offset="0" style="stop-color:#fff" id="stop4663-2"/>
<stop offset="1" style="stop-color:#fff;stop-opacity:0" id="stop4665-1"/>
</linearGradient>
<radialGradient fx="24" fy="7.7919979" cx="24" cy="7.7919979" gradientTransform="matrix(-3.2042761e-8,0.6892888,-3.1574826,0,48.603098,-13.542931)" r="14.507708" id="radialGradient2990" xlink:href="#linearGradient3627-8" gradientUnits="userSpaceOnUse"/>
<radialGradient fx="19.308081" fy="21.029308" cx="19.308081" cy="21.029308" gradientTransform="matrix(0,1.679283,-1.6454754,0,48.823182,-18.496093)" r="14.500172" id="radialGradient2998" xlink:href="#linearGradient3254-8-457-5" gradientUnits="userSpaceOnUse"/>
<radialGradient fx="62.71241" fy="108.02493" cx="62.71241" cy="108.02493" gradientTransform="matrix(0.3587806,0,0,0.2110472,1.5000008,15.20272)" r="47.38271" id="radialGradient3006" xlink:href="#linearGradient5060-3" gradientUnits="userSpaceOnUse"/>
</defs>
<g id="g3608">
<g id="g4088" transform="matrix(2.6740294,0,0,2.6613546,-1.3152055,-0.0180208)">
<path style="fill:url(#radialGradient3006);fill-rule:evenodd;stroke:none;stroke-width:1.055" id="path12941-9" d="M 41,38.001101 C 40.998964,43.52352 33.388109,48 24,48 14.611891,48 7.0010357,43.52352 7,38.001101 6.9989643,32.477823 14.610427,28 24,28 c 9.389573,0 17.001036,4.477823 17,10.001101 z"/>
<path style="fill:url(#linearGradient3001);stroke:url(#linearGradient3003)" id="path2230-2" d="m 9.4998,8 0,32 c 0,2.93641 4.40777,6.5 14.5002,6.5 10.0924,0 14.5002,-3.56359 14.5002,-6.5 v -32 c 0,0 -29.0003,0 -29.0003,0 z "/>
<path style="opacity:.4;fill:url(#radialGradient2998);stroke:none" id="path3212-1" d="m 10,9 0,31 c 0,2.822 6.272,6 14,6 7.728,0 14,-3.178 14,-6 v -31 c 0,0 -28,0 -28,0 z "/>
<g style="stroke-width:.984">
<path style="fill:url(#linearGradient2993);stroke:url(#linearGradient2995);stroke-linejoin:round;stroke-linecap:round" id="path3164-5" d="m 38.5077,8 c 0,3.04201 -6.49532,5.50805 -14.5077,5.50805 -8.01239,0 -14.5077,-2.46604 -14.5077,-5.50805 0,-3.04202 6.49532,-5.50806 14.5077,-5.50806 8.01238,0 14.5077,2.46604 14.5077,5.50806 z "/>
<path style="opacity:.3;fill:url(#radialGradient2990);stroke:none" id="path3197-9" d="m 38,8 c 0,2.76142 -6.26801,5 -14,5 -7.73199,0 -14,-2.23858 -14,-5 0,-2.76142 6.26801,-5 14,-5 7.73198,-4.44089e-16 14,2.23858 14,5 z "/>
</g>
<path style="opacity:.15;fill:none;stroke:url(#linearGradient2987);stroke-linejoin:round;stroke-linecap:round" id="path2206-9" d="m 10.5,7.8106 c 0,2.2238 0,30.597 0,32.8247 0,2.68534 6.07514,4.86474 13.5,4.86474 7.42483,0 13.5,-2.17941 13.5,-4.86474 0,-2.06112 0,-30.7635 0,-32.8247 0,-2.24357 -6.07916,-4.34702 -13.5,-4.3101 -7.42086,0.0369205 -13.5,2.07685 -13.5,4.3101 z "/>
<g style="stroke:none">
<path style="opacity:.2;fill:url(#linearGradient2984)" id="rect3244-4" d="m 16.3797,12.1772 4.4825,.8685 0,33.2084 -4.4825,-1.1098 0,-32.967 z "/>
<path style="opacity:.15;fill:url(#linearGradient2981)" id="path3287-0" d="m 13.5,13.506 c 0.831,0.306145 1.5,1.22161 1.5,2.05261 v 26.494 c 0,0.831 -0.669,1.25354 -1.5,0.947392 -0.831,-0.306145 -1.5,-1.22161 -1.5,-2.05261 v -26.494 c 0,-0.831 0.669,-1.25354 1.5,-0.947392 z  m 21,-.247 c -0.831,0.306145 -1.5,1.22161 -1.5,2.05261 v 26.494 c 0,0.831 0.669,1.25354 1.5,0.947392 0.831,-0.306145 1.5,-1.22161 1.5,-2.05261 v -26.494 c 0,-0.831 -0.669,-1.25354 -1.5,-0.947392 z "/>
<path style="opacity:.3;fill:url(#linearGradient2978)" id="path3293-2" d="m 20.5,15.506 c 0.831,0.03827 1.5,0.738076 1.5,1.56908 v 26.494 c 0,0.831 -0.669,1.46919 -1.5,1.43092 -0.831,-0.038268 -1.5,-0.738076 -1.5,-1.56908 v -26.494 c 0,-0.831 0.669,-1.46919 1.5,-1.43092 z  m 7,0 c -0.831,0.03827 -1.5,0.738076 -1.5,1.56908 v 26.494 c 0,0.831 0.669,1.46919 1.5,1.43092 0.831,-0.03827 1.5,-0.738076 1.5,-1.56908 v -26.494 c 0,-0.831 -0.669,-1.46919 -1.5,-1.43092 z "/>
</g>
<path style="fill:url(#linearGradient2973);stroke:url(#linearGradient2975);stroke-linejoin:round" id="path3834" d="m 12.5,8.125 0,3.2579 c 4.34929,1.94657 10.1639,2.41833 15,2.0625 v -7.94539 c -3.72626,0 -10.4118,-0.567139 -15,2.625 z "/>
<path style="fill:url(#linearGradient2970);stroke:none" id="path3424" d="m 14,9 0,3.28125 c 3.127993,0.933929 8.686854,1.29821 12.00556,1.261125 C 26.00556,13.542375 26,7 26,7 21,7 18,7 14,9 z"/>
<path style="fill:url(#linearGradient2965);stroke:url(#linearGradient2967)" id="path2781" d="m 28,7.5 c -3.856532,1e-7 -7.762276,2.473922 -9.587724,5.553731 5.319047,0.585927 12.787429,0.747512 17.610205,-1.875 C 34.111497,9.1587915 31.015182,7.5 28,7.5 z"/>
<g style="stroke:none">
<path style="fill:url(#linearGradient2962)" id="path3296" d="m 24.2716,8.9495 2.1857,5.2574 c 0.512823,-0.210004 1.07159,-0.321593 1.66087,-0.304943 0.01568,0.000443 0.03023,0.000678 0.04586,0.0013 l .1676,-5.6841 c -1.43823,-0.075241 -2.72056,0.244912 -4.06001,0.730276 z "/>
<path style="fill:url(#linearGradient2959)" id="path3308" d="m 22.1871,10.1242 3.3918,4.5805 c 0.446841,-0.327753 0.962056,-0.571117 1.53788,-0.697424 0.01533,-0.0034 0.02949,-0.0067 0.04481,-0.0098 l -1.1889,-5.5761 c -1.41376,0.274691 -2.60318,0.908063 -3.78556,1.70285 z "/>
<path style="fill:url(#linearGradient2956)" id="path3310" d="m 20.2937,11.9547 4.5089,3.5018 c 0.346786,-0.432236 0.781458,-0.800655 1.30497,-1.07169 0.01393,-0.0072 0.02676,-0.01405 0.04074,-0.02109 l -2.6182,-5.0496 c -1.29449,0.631238 -2.29999,1.56683 -3.23638,2.64056 z "/>
<path style="fill:url(#linearGradient2953)" id="path3312" d="m 19.0118,14.1213 c 3.51108,1.09727 3.84162,3.44093 6.25248,0.858404 l -3.8707,-4.2555 c -1.087,0.944768 -1.7552,2.11758 -2.38178,3.39707 z "/>
<path style="fill:url(#linearGradient2950)" id="path3314" d="m 19.7568,12.7115 c -0.578954,0.857369 -0.933563,1.77951 -1.23569,2.76193 l 5.5487,1.456 c 0.105465,-0.373386 0.253513,-0.741271 0.47407,-1.08577 0.0085,-0.01321 0.022,-0.0328 0.03059,-0.04588 l -4.8176,-3.0863 z "/>
</g>
<path style="opacity:.4;fill:none;stroke:url(#linearGradient2947)" id="path3272" d="m 28,8.4688 c -3.36135,-1e-07 -6.69867,2.10025 -8.39748,4.70998 5.99245,0.4191 10.7458,0.303801 15.5137,-1.5625 -1.72203,-1.70642 -4.48728,-3.14748 -7.11623,-3.14748 z "/>
<path style="opacity:.2;fill-rule:evenodd;stroke:none" id="path3371" d="m 19,14 c 0,0 7,0 7,0 L 26,28 22.308512,24 19,28 19,14 z"/>
<path style="fill:none;stroke:url(#linearGradient2943);stroke-linejoin:round;stroke-linecap:round;stroke-width:.984" id="path3849" d="m 38.5081,8 c 0,3.04201 -6.49548,5.50805 -14.5081,5.50805 -8.01258,0 -14.5081,-2.46604 -14.5081,-5.50805 0,-3.04202 6.49548,-5.50806 14.5081,-5.50806 8.01258,0 14.5081,2.46604 14.5081,5.50806 z "/>
<path style="fill:url(#linearGradient2938);fill-rule:evenodd;stroke:url(#linearGradient2940)" id="path2472" d="m 19.5,13.2114 c 1.86088,0.488767 6,0.247331 6,0.247331 v 12.0412 l -3.1915,-3.2 -2.8085,2.9333 v -12.0219 z "/>
<path style="opacity:.4;fill:none;stroke:url(#linearGradient2935)" id="path3475" d="m 20.5,22.6757 0,-8.2732 c 1.81125,0.220403 4,0.05988 4,0.05988 v 8.59762"/>
</g>
</g>
</svg>
