<svg xmlns="http://www.w3.org/2000/svg" viewBox="0 0 128 128" xmlns:xlink="http://www.w3.org/1999/xlink">
<defs>
<linearGradient xlink:href="#linearGradient4081-2" id="linearGradient3062" y1="72" y2="24" gradientUnits="userSpaceOnUse" x2="0"/>
<linearGradient id="linearGradient9647-5">
<stop offset="0" stop-color="#151414"/>
<stop offset="1" stop-color="#5c5a5a"/>
</linearGradient>
<linearGradient id="linearGradient4081-2">
<stop offset="0" stop-color="#aaa"/>
<stop offset="1" stop-color="#f0f0f0"/>
</linearGradient>
<linearGradient gradientTransform="matrix(1.00956 0 0 1.00567 17.09537 17.59809)" xlink:href="#linearGradient9647-5" id="linearGradient3139" y1="102.102" x1="48.246" y2="-21.966" gradientUnits="userSpaceOnUse" x2="17"/>
<radialGradient cx="119.332" cy="123.77" gradientTransform="matrix(1.0428 -.94238 .99228 1.09809 -149.07741 78.52216)" id="radialGradient3146" r="42.607" gradientUnits="userSpaceOnUse">
<stop offset="0" stop-color="#0d0e09"/>
<stop offset="1" stop-color="#abaeab" stop-opacity="0"/>
</radialGradient>
<radialGradient cx="128.619" cy="-5.046" gradientTransform="matrix(.0004 2.20813 -2.76706 .00046 17.16272 -249.92558)" id="radialGradient3137" r="45" gradientUnits="userSpaceOnUse">
<stop offset="0" stop-color="#4a4c37"/>
<stop offset=".313" stop-color="#2a2c1d"/>
<stop offset=".66" stop-color="#090908"/>
<stop offset="1" stop-color="#1d240d"/>
</radialGradient>
</defs>
<g transform="matrix(1.33172 0 0 1.33686 -23.73445 -23.82693)">
<path opacity=".763" fill="#090909" d="m30.0314-108.296h72.6876a6.0573,6.034 0 0,1 6.058,6.034v72.4083a6.0573,6.034 0 0,1 -6.058,6.0341h-72.6876a6.0573,6.034 0 0,1 -6.0574-6.0341v-72.4083a6.0573,6.034 0 0,1 6.0574-6.034" transform="scale(1 -1)"/>
<path fill="url(#radialGradient3137)" stroke="url(#linearGradient3139)" stroke-width="6.046" d="m29.6207,23.6321h72.6883a6.0573,6.034 0 0,1 6.057,6.0341v72.4088a6.0573,6.034 0 0,1 -6.057,6.034h-72.6883a6.0573,6.034 0 0,1 -6.0573-6.034v-72.4088a6.0573,6.034 0 0,1 6.0573-6.0341"/>
</g>
<g transform="matrix(1.44047 0 0 1.44048 -5.03084 -4.41478)">
<path opacity=".7" fill="url(#radialGradient3146)" d="m14.4038,11.1608h67.2764a2.7537,3.4142 0 0,1 2.7537,3.4142v66.01a2.7537,3.4142 0 0,1 -2.7537,3.4142h-67.2764a2.7537,3.4142 0 0,1 -2.7538-3.4142v-66.01a2.7537,3.4142 0 0,1 2.7538-3.4142"/>
</g>
<g transform="matrix(1.44047 0 0 1.44048 -5.03084 -4.41478)">
<path opacity=".1" d="m48,23c-14.3317,0-26,11.6683-26,26 0,14.3317 11.6683,26 26,26 14.3317,0 26-11.6683 26-26 0-14.3317-11.6683-26-26-26zm.5,24.6875c.0028,.0032 .0908,.0908 .0938,.0938 .003,.003 .0906,.0597 .0938,.0625 .0032,.0028 .0904,.0912 .0938,.0938 .0033,.0026 .1215,.0602 .125,.0625 .0035,.0023 .0901,.0916 .0938,.0938 .0036,.0021 .1212,.0606 .125,.0625 .0038,.0019 .1211,.0296 .125,.0312 .0039,.0016 .0898,.0611 .0938,.0625 .004,.0014 .1209,.0301 .125,.0312 .0041,.0011 .1209,.0304 .125,.0312 .0022,.0004 .0302,.0258 .0625,.0312-.0037,.0101 .0003,.0303 0,.0312-.0013,.004-.0614,.1209-.0625,.125-.0011,.0041-.0304,.1209-.0312,.125-.0008,.0041 .0005,.1208 0,.125-.0005,.0042-.031,.1208-.0312,.125-.0003,.0042 0,.1208 0,.125 0,.0042-.0003,.1208 0,.125 .0003,.0042 .0307,.1208 .0312,.125 .0005,.0042-.0008,.1209 0,.125 .0008,.0041 .0302,.1209 .0312,.125 .0011,.0041 .0612,.121 .0625,.125 .0003,.0009-.0037,.0211 0,.0312-.0323,.0055-.0603,.0308-.0625,.0312-.0041,.0008-.1209,.0301-.125,.0312-.0041,.0011-.121,.0299-.125,.0312-.004,.0014-.0899,.0609-.0938,.0625-.0039,.0016-.1212,.0294-.125,.0312-.0038,.0019-.1214,.0604-.125,.0625-.0036,.0021-.0902,.0914-.0938,.0938-.0035,.0023-.1217,.0599-.125,.0625-.0033,.0026-.0906,.091-.0938,.0938-.0032,.0028-.0908,.0595-.0938,.0625-.003,.003-.091,.0906-.0938,.0938-.0028-.0032-.0908-.0908-.0938-.0938-.003-.003-.0906-.0597-.0938-.0625-.0032-.0028-.0904-.0912-.0938-.0938-.0033-.0026-.1215-.0602-.125-.0625-.0035-.0023-.0901-.0916-.0938-.0938-.0036-.0021-.1212-.0606-.125-.0625-.0038-.0019-.1211-.0296-.125-.0312-.0039-.0016-.0898-.0611-.0938-.0625-.004-.0014-.1209-.0301-.125-.0312-.0041-.0011-.1209-.0304-.125-.0312-.0022-.0004-.0302-.0258-.0625-.0312 .0037-.0101-.0003-.0303 0-.0312 .0013-.004 .0614-.1209 .0625-.125 .0011-.0041 .0304-.1209 .0312-.125 .0008-.0041-.0005-.1208 0-.125 .0005-.0042 .031-.1208 .0312-.125 .0003-.0042 0-.1208 0-.125 0-.0042 .0003-.1208 0-.125-.0003-.0042-.0307-.1208-.0312-.125-.0005-.0042 .0008-.1209 0-.125-.0008-.0041-.0302-.1209-.0312-.125-.0011-.0041-.0612-.121-.0625-.125-.0003-.0009 .0037-.0211 0-.0312 .0323-.0055 .0603-.0308 .0625-.0312 .0041-.0008 .1209-.0301 .125-.0312 .0041-.0011 .121-.0299 .125-.0312 .004-.0014 .0899-.0609 .0938-.0625 .0039-.0016 .1212-.0294 .125-.0312 .0038-.0019 .1214-.0604 .125-.0625 .0036-.0021 .0902-.0914 .0938-.0938 .0035-.0023 .1217-.0599 .125-.0625 .0033-.0026 .0906-.091 .0938-.0938 .0032-.0028 .0908-.0595 .0938-.0625 .003-.003 .091-.0906 .0938-.0938z"/>
<path opacity=".15" d="m48,23.9062c-13.8457,0-25.0938,11.2481-25.0938,25.0938 0,13.8457 11.2481,25.0938 25.0938,25.0938 13.8457,0 25.0938-11.2481 25.0938-25.0938 0-13.8457-11.2481-25.0938-25.0938-25.0938zm.0938,10.1875 .8125,0 0,12.2812a1.0934,1.0934 0 0,0 1.625,.9375l10.6562-6.1562 .4375,.75-10.6562,6.1562a1.0934,1.0934 0 0,0 0,1.875l10.6562,6.1562-.4375,.75-10.6562-6.1562a1.0934,1.0934 0 0,0 -1.625,.9375v12.2812h-.8125v-12.2812a1.0934,1.0934 0 0,0 -1.625-.9375l-10.6562,6.1562-.4375-.75 10.6562-6.1562a1.0934,1.0934 0 0,0 0-1.875l-10.6562-6.1562 .4375-.75 10.6562,6.1562a1.0934,1.0934 0 0,0 1.625-.9375v-12.2812z"/>
<path opacity=".3" d="m48,25c-13.2548,0-24,10.7452-24,24 0,13.2548 10.7452,24 24,24 13.2548,0 24-10.7452 24-24 0-13.2548-10.7452-24-24-24zm-1,8 3,0 0,13.375 11.5938-6.6875 1.5,2.625-11.5625,6.6875 11.5625,6.6875-1.5,2.625l-11.5938-6.6875v13.375h-3v-13.375l-11.5938,6.6875-1.5-2.625 11.5625-6.6875-11.5625-6.6875 1.5-2.625 11.5938,6.6875v-13.375z"/>
<path fill="url(#linearGradient3062)" d="m48,24c-13.2548,0-24,10.7452-24,24 0,13.2548 10.7452,24 24,24 13.2548,0 24-10.7452 24-24 0-13.2548-10.7452-24-24-24zm-1,8 3,0 0,13.375 11.5938-6.6875 1.5,2.625-11.5625,6.6875 11.5625,6.6875-1.5,2.625l-11.5938-6.6875v13.375h-3v-13.375l-11.5938,6.6875-1.5-2.625 11.5625-6.6875-11.5625-6.6875 1.5-2.625 11.5938,6.6875v-13.375z"/>
<path opacity=".75" fill="#fff" d="m48,24c-13.2548,0-24,10.7452-24,24 0,.1656-.0033,.3352 0,.5 .2638-13.0261 10.9107-23.5 24-23.5 13.0893,0 23.7362,10.4739 24,23.5 .0033-.1648 0-.3344 0-.5 0-13.2548-10.7452-24-24-24zm-13.6562,17.5625-.4375,.75 10.6875,6.1875 .875-.5-11.125-6.4375zm28.3125,0-11.125,6.4375 .875,.5 10.6875-6.1875-.4375-.75zm-15.6562,9.0625l-11.5938,6.6875-1.0625-1.875-.4375,.25 1.5,2.625 11.5938-6.6875v-1zm3,0 0,1 11.5938,6.6875 1.5-2.625-.4375-.25-1.0625,1.875l-11.5938-6.6875zm-3,13.375v1h3v-1h-3z"/>
<path opacity=".15" d="m47,31 0,1 3,0 0-1-3,0zm-11.5938,6.6875-1.5,2.625 .4375,.25 1.0625-1.875l11.5938,6.6875v-1l-11.5938-6.6875zm26.1875,0l-11.5938,6.6875v1l11.5938-6.6875 1.0625,1.875 .4375-.25-1.5-2.625zm-37.5938,9.8125c-.0033,.1648 0,.3344 0,.5 0,13.2548 10.7452,24 24,24 13.2548,0 24-10.7452 24-24 0-.1656 .0033-.3352 0-.5-.2638,13.0261-10.9107,23.5-24,23.5-13.0893,0-23.7362-10.4739-24-23.5zm20.5938,0-10.6875,6.1875 .4375,.75 11.125-6.4375-.875-.5zm7.8125,0-.875,.5 11.125,6.4375 .4375-.75l-10.6875-6.1875z"/>
</g>
</svg>
