<svg width="96" version="1.0" xmlns="http://www.w3.org/2000/svg" height="96" xmlns:xlink="http://www.w3.org/1999/xlink" style="enable-background:new">
<defs id="defs2410">
<clipPath id="clipPath3613">
<rect width="84" x="6" y="6" rx="6" height="84" ry="6" style="fill:#fff;stroke:none" id="rect3615"/>
</clipPath>
<filter width="1.3839999" x="-0.192" y="-0.192" height="1.3839999" style="color-interpolation-filters:sRGB" id="filter3794-7">
<feGaussianBlur stdDeviation="5.28" id="feGaussianBlur3796-7"/>
</filter>
<filter style="color-interpolation-filters:sRGB" id="filter3174">
<feGaussianBlur stdDeviation="1.71" id="feGaussianBlur3176"/>
</filter>
<linearGradient id="linearGradient3737-11">
<stop offset="0" style="stop-color:#fff" id="stop3739-5"/>
<stop offset="1" style="stop-color:#fff;stop-opacity:0" id="stop3741-9"/>
</linearGradient>
<linearGradient gradientTransform="matrix(1.0238095,0,0,1.0119048,-1.1428571,-98.071429)" id="linearGradient3059" xlink:href="#ButtonShadow-0" y1="6.1317081" x1="32.251034" y2="90.238609" x2="32.251034" gradientUnits="userSpaceOnUse"/>
<linearGradient id="linearGradient2862" xlink:href="#linearGradient3737-11" y1="20.220806" x1="48" y2="138.66119" x2="48" gradientUnits="userSpaceOnUse"/>
<linearGradient gradientTransform="translate(0,-97)" id="linearGradient3721" xlink:href="#ButtonShadow-0" y1="6.1317081" x1="32.251034" y2="90.238609" x2="32.251034" gradientUnits="userSpaceOnUse"/>
<linearGradient gradientTransform="matrix(1.0058652,0,0,0.994169,100,0)" id="ButtonShadow-0" y1="92.539597" x1="45.447727" y2="7.0165396" x2="45.447727" gradientUnits="userSpaceOnUse">
<stop offset="0" id="stop3750-8"/>
<stop offset="1" style="stop-opacity:.588" id="stop3752-5"/>
</linearGradient>
<linearGradient gradientTransform="matrix(1.0238095,0,0,1.0119048,-1.1428571,-98.071429)" id="linearGradient3725" xlink:href="#ButtonShadow-0" y1="6.1317081" x1="32.251034" y2="90.238609" x2="32.251034" gradientUnits="userSpaceOnUse"/>
<linearGradient gradientTransform="matrix(1.0238095,0,0,1.0119048,-1.1428571,-98.071429)" id="linearGradient3780" xlink:href="#ButtonShadow-0" y1="6.1317081" x1="32.251034" y2="90.238609" x2="32.251034" gradientUnits="userSpaceOnUse"/>
<linearGradient gradientTransform="matrix(1.0238095,0,0,1.0119048,-1.1428571,-98.071429)" id="linearGradient3772" xlink:href="#ButtonShadow-0" y1="6.1317081" x1="32.251034" y2="90.238609" x2="32.251034" gradientUnits="userSpaceOnUse"/>
<linearGradient id="linearGradient3737-8">
<stop offset="0" style="stop-color:#fff" id="stop3739-1"/>
<stop offset="1" style="stop-color:#fff;stop-opacity:0" id="stop3741-2"/>
</linearGradient>
<linearGradient id="linearGradient3706" xlink:href="#linearGradient3700" y1="90" x1="48" y2="5.9877172" x2="48" gradientUnits="userSpaceOnUse"/>
<linearGradient id="linearGradient3700">
<stop offset="0" style="stop-color:#970303" id="stop3702"/>
<stop offset="1" style="stop-color:#f31d0c" id="stop3704"/>
</linearGradient>
<linearGradient id="linearGradient3826">
<stop offset="0" style="stop-color:#ff3920" id="stop3828"/>
<stop offset="1" style="stop-color:#ff3920;stop-opacity:0" id="stop3830"/>
</linearGradient>
<linearGradient id="linearGradient3737">
<stop offset="0" style="stop-color:#fff" id="stop3739"/>
<stop offset="1" style="stop-color:#fff;stop-opacity:0" id="stop3741"/>
</linearGradient>
<linearGradient gradientTransform="translate(100,0)" id="linearGradient3188" xlink:href="#linearGradient3737" y1="6" x1="36.357143" y2="63.893143" x2="36.357143" gradientUnits="userSpaceOnUse"/>
<linearGradient gradientTransform="scale(1.0058652,0.994169)" id="linearGradient2964" xlink:href="#ButtonShadow" y1="92.539597" x1="45.447727" y2="7.0165396" x2="45.447727" gradientUnits="userSpaceOnUse"/>
<linearGradient id="linearGradient2956" xlink:href="#linearGradient3737-1" y1="6" x1="36.357143" y2="63.893143" x2="36.357143" gradientUnits="userSpaceOnUse"/>
<linearGradient gradientTransform="scale(1.0058652,0.994169)" id="ButtonShadow" y1="92.539597" x1="45.447727" y2="7.0165396" x2="45.447727" gradientUnits="userSpaceOnUse">
<stop offset="0" id="stop3750"/>
<stop offset="1" style="stop-opacity:.588" id="stop3752"/>
</linearGradient>
<linearGradient id="linearGradient3737-1">
<stop offset="0" style="stop-color:#fff" id="stop3739-0"/>
<stop offset="1" style="stop-color:#fff;stop-opacity:0" id="stop3741-5"/>
</linearGradient>
<radialGradient fx="48" fy="90.171875" cx="48" cy="90.171875" gradientTransform="matrix(1.1573129,0,0,0.99590774,-7.551021,0.1971319)" r="42" id="radialGradient2855" xlink:href="#linearGradient3737-8" gradientUnits="userSpaceOnUse"/>
<radialGradient fx="48" fy="-14.78724" cx="48" cy="-14.78724" gradientTransform="matrix(0,0.99292131,-1.0017097,0,33.187478,-41.553843)" r="42" id="radialGradient3832" xlink:href="#linearGradient3826" gradientUnits="userSpaceOnUse"/>
</defs>
<g style="display:none" id="layer2">
<rect width="86" x="5" y="7" rx="6" height="85" ry="6" style="opacity:.9;fill:url(#linearGradient2964);filter:url(#filter3174);stroke:none" id="rect3745"/>
</g>
<g style="stroke:none" id="layer5">
<path style="opacity:.08;fill:url(#linearGradient3059)" id="path3786" d="m 12,-95.0312 c -5.51109,0 -10.0312,4.52016 -10.0312,10.0312 v 71 c 0,5.51109 4.52016,10.0312 10.0312,10.0312 h 72 c 5.51109,0 10.0312,-4.52016 10.0312,-10.0312 v -71 c 0,-5.51109 -4.52016,-10.0312 -10.0312,-10.0312 h -72 z " transform="scale(1,-1)"/>
<path style="opacity:.1;fill:url(#linearGradient3780)" id="path3778" d="m 12,-94.0312 c -4.97163,0 -9.03125,4.05962 -9.03125,9.03125 v 71 c 0,4.97163 4.05962,9.03125 9.03125,9.03125 h 72 c 4.97163,0 9.03125,-4.05962 9.03125,-9.03125 v -71 c 0,-4.97163 -4.05962,-9.03125 -9.03125,-9.03125 h -72 z " transform="scale(1,-1)"/>
<path style="opacity:.2;fill:url(#linearGradient3772)" id="path3770" d="m 12,-93 c -4.40913,0 -8,3.59087 -8,8 v 71 c 0,4.40913 3.59087,8 8,8 h 72 c 4.40913,0 8,-3.59087 8,-8 v -71 c 0,-4.40913 -3.59087,-8 -8,-8 h -72 z " transform="scale(1,-1)"/>
<rect width="86" x="5" y="-92" rx="7" height="85" ry="7" style="opacity:.3;fill:url(#linearGradient3725)" id="rect3723" transform="scale(1,-1)"/>
<rect width="84" x="6" y="-91" rx="6" height="84" ry="6" style="opacity:.45;fill:url(#linearGradient3721)" id="rect3716" transform="scale(1,-1)"/>
</g>
<g style="stroke:none" id="layer1">
<rect width="84" x="6" y="6" rx="6" height="84" ry="6" style="fill:url(#linearGradient3706)" id="rect2419"/>
<path style="opacity:.3;fill:#640000;fill-rule:evenodd" id="path4144" d="m 58.7621,6.0006 c -3.94814,8.69189 -6.93991,17.6332 -8.92493,26.6436 -1.03034,0.819932 -2.07728,1.58602 -3.14998,2.36248 -12.2383,8.85855 -26.9187,14.6467 -40.6872,14.3062 v 6.56245 c 12.1835,1.15019 20.1436,5.32077 24.8061,11.5499 4.21679,5.63373 5.96715,13.309 5.51246,22.5749 h 4.19997 c 0.448956,-9.86891 -1.36253,-18.4721 -6.29996,-25.0686 -4.34172,-5.80066 -10.9544,-9.86172 -19.9499,-11.9437 12.0296,-1.61056 23.9736,-6.95922 34.256,-14.3062 -2.96543,17.2205 -2.48207,34.708 1.18124,51.3184 h 29.0061 c -14.4937,-13.1411 -20.7634,-36.6972 -20.7374,-58.9309 8.17282,-7.60809 14.5241,-16.331 17.8499,-25.0686 l -4.4625,0 c -2.76519,6.40042 -7.39996,12.9684 -13.2562,19.0311 0.356571,-6.69875 1.42523,-13.1109 2.88748,-19.0311 l -2.2312,0 z "/>
<path style="opacity:.5;fill:url(#linearGradient3188)" id="rect3728" d="m 112,6 c -3.324,0 -6,2.676 -6,6 v 2 68 2 c 0,0.334721 0.0413,0.6507 0.0937,0.96875 0.0487,0.295596 0.097,0.596915 0.1875,0.875 0.01,0.03038 0.0209,0.0636 0.0312,0.09375 0.0989,0.287771 0.23488,0.547452 0.375,0.8125 0.14459,0.273507 0.31562,0.535615 0.5,0.78125 0.18438,0.245635 0.37378,0.473472 0.59375,0.6875 0.43995,0.428056 0.94291,0.814526 1.5,1.09375 0.27854,0.139612 0.57347,0.246947 0.875,0.34375 -0.2562,-0.100222 -0.48671,-0.236272 -0.71875,-0.375 -0.007,-0.0044 -0.0239,0.0045 -0.0312,0 -0.0319,-0.0193 -0.0623,-0.04251 -0.0937,-0.0625 -0.1204,-0.0767 -0.23102,-0.163513 -0.34375,-0.25 -0.10617,-0.0808 -0.21328,-0.161112 -0.3125,-0.25 -0.17793,-0.161433 -0.34746,-0.345388 -0.5,-0.53125 -0.10758,-0.130255 -0.21839,-0.265285 -0.3125,-0.40625 -0.0251,-0.03838 -0.0384,-0.08587 -0.0625,-0.125 -0.0648,-0.103032 -0.13023,-0.204517 -0.1875,-0.3125 -0.10101,-0.194706 -0.20567,-0.415701 -0.28125,-0.625 -0.008,-0.02181 -0.0236,-0.04055 -0.0312,-0.0625 -0.0318,-0.09195 -0.0358,-0.186831 -0.0625,-0.28125 -0.0303,-0.106618 -0.0704,-0.203031 -0.0937,-0.3125 -0.07298,-0.341512 -0.1251,-0.698205 -0.1251,-1.0625 v -2 -68 -2 c 0,-2.78185 2.21815,-5 5,-5 h 2 68 2 c 2.78185,0 5,2.21815 5,5 v 2 68 2 c 0,0.364295 -0.0521,0.720988 -0.125,1.0625 -0.0442,0.206893 -0.0884,0.397658 -0.15625,0.59375 -0.008,0.02195 -0.0233,0.04069 -0.0312,0.0625 -0.0627,0.173739 -0.13838,0.367449 -0.21875,0.53125 -0.0416,0.0828 -0.079,0.169954 -0.125,0.25 -0.0546,0.09721 -0.12677,0.18835 -0.1875,0.28125 -0.0941,0.140965 -0.20492,0.275995 -0.3125,0.40625 -0.14317,0.17445 -0.30314,0.346998 -0.46875,0.5 -0.0112,0.0102 -0.02,0.02115 -0.0312,0.03125 -0.13839,0.125556 -0.28509,0.234436 -0.4375,0.34375 -0.10257,0.07315 -0.20432,0.153364 -0.3125,0.21875 -0.007,0.0045 -0.0238,-0.0044 -0.0312,0 -0.23204,0.138728 -0.46255,0.274778 -0.71875,0.375 0.30153,-0.0968 0.59646,-0.204138 0.875,-0.34375 0.55709,-0.279224 1.06005,-0.665694 1.5,-1.09375 0.21997,-0.214028 0.40937,-0.441865 0.59375,-0.6875 0.18438,-0.245635 0.35541,-0.507743 0.5,-0.78125 0.14012,-0.265048 0.27613,-0.524729 0.375,-0.8125 0.0104,-0.03078 0.0213,-0.06274 0.0312,-0.09375 0.0905,-0.278085 0.1388,-0.579404 0.1875,-0.875 0.0523,-0.31805 0.09365,-0.634029 0.09365,-0.96875 v -2 -68 -2 c 0,-3.324 -2.676,-6 -6,-6 h -72 z "/>
<path style="opacity:.4;fill:url(#linearGradient2956)" id="rect3728-1" d="m 12,6 c -3.324,0 -6,2.676 -6,6 v 2 68 2 c 0,0.334721 0.04135,0.6507 0.09375,0.96875 0.0487,0.295596 0.09704,0.596915 0.1875,0.875 0.00988,0.03038 0.020892,0.0636 0.03125,0.09375 0.098865,0.287771 0.23488,0.547452 0.375,0.8125 0.144592,0.273507 0.315616,0.535615 0.5,0.78125 0.184384,0.245635 0.373776,0.473472 0.59375,0.6875 0.439947,0.428056 0.94291,0.814526 1.5,1.09375 0.278545,0.139612 0.573473,0.246947 0.875,0.34375 -0.256202,-0.100222 -0.486711,-0.236272 -0.71875,-0.375 -0.00741,-0.0044 -0.023866,0.0045 -0.03125,0 -0.031933,-0.0193 -0.062293,-0.04251 -0.09375,-0.0625 -0.120395,-0.0767 -0.231023,-0.163513 -0.34375,-0.25 -0.106173,-0.0808 -0.213281,-0.161112 -0.3125,-0.25 -0.17793,-0.161433 -0.34746,-0.345388 -0.5,-0.53125 -0.107579,-0.130255 -0.218394,-0.265285 -0.3125,-0.40625 -0.025089,-0.03838 -0.038446,-0.08587 -0.0625,-0.125 -0.064763,-0.103032 -0.130228,-0.204517 -0.1875,-0.3125 -0.101008,-0.194706 -0.205675,-0.415701 -0.28125,-0.625 -0.00796,-0.02181 -0.023589,-0.04055 -0.03125,-0.0625 -0.0318251,-0.09195 -0.0358045,-0.186831 -0.0625,-0.28125 -0.0303323,-0.106618 -0.0703894,-0.203031 -0.09375,-0.3125 -0.0728786,-0.341512 -0.125,-0.698205 -0.125,-1.0625 v -2 -68 -2 c 0,-2.78185 2.21815,-5 5,-5 h 2 68 2 c 2.78185,0 5,2.21815 5,5 v 2 68 2 c 0,0.364295 -0.05212,0.720988 -0.125,1.0625 -0.04415,0.206893 -0.08838,0.397658 -0.15625,0.59375 -0.0077,0.02195 -0.0233,0.04069 -0.03125,0.0625 -0.06274,0.173739 -0.138383,0.367449 -0.21875,0.53125 -0.04158,0.0828 -0.07904,0.169954 -0.125,0.25 -0.0546,0.09721 -0.126774,0.18835 -0.1875,0.28125 -0.09411,0.140965 -0.204921,0.275995 -0.3125,0.40625 -0.143174,0.17445 -0.303141,0.346998 -0.46875,0.5 -0.01117,0.0102 -0.01998,0.02115 -0.03125,0.03125 -0.138386,0.125556 -0.285091,0.234436 -0.4375,0.34375 -0.102571,0.07315 -0.204318,0.153364 -0.3125,0.21875 -0.0074,0.0045 -0.02384,-0.0044 -0.03125,0 -0.232039,0.138728 -0.462548,0.274778 -0.71875,0.375 0.301527,-0.0968 0.596455,-0.204138 0.875,-0.34375 0.55709,-0.279224 1.06005,-0.665694 1.5,-1.09375 0.219973,-0.214028 0.409366,-0.441865 0.59375,-0.6875 0.184384,-0.245635 0.355408,-0.507743 0.5,-0.78125 0.14012,-0.265048 0.276135,-0.524729 0.375,-0.8125 0.01041,-0.03078 0.02133,-0.06274 0.03125,-0.09375 0.09046,-0.278085 0.1388,-0.579404 0.1875,-0.875 0.0524,-0.31805 0.09375,-0.634029 0.09375,-0.96875 v -2 -68 -2 c 0,-3.324 -2.676,-6 -6,-6 h -72 z "/>
<path style="opacity:.8;fill:url(#radialGradient3832)" id="rect3819" d="M 12,6 C 8.676,6 6,8.676 6,12 l 0,36 84,0 0,-36 C 90,8.676 87.324,6 84,6 L 12,6 z"/>
<path style="opacity:.2;fill:url(#radialGradient2855)" id="path3615" d="M 12,90 C 8.676,90 6,87.324 6,84 L 6,82 6,14 6,12 c 0,-0.334721 0.04135,-0.6507 0.09375,-0.96875 0.0487,-0.295596 0.09704,-0.596915 0.1875,-0.875 C 6.29113,10.12587 6.302142,10.09265 6.3125,10.0625 6.411365,9.774729 6.5473802,9.515048 6.6875,9.25 6.8320918,8.976493 7.0031161,8.714385 7.1875,8.46875 7.3718839,8.223115 7.5612765,7.995278 7.78125,7.78125 8.221197,7.353194 8.72416,6.966724 9.28125,6.6875 9.559795,6.547888 9.8547231,6.440553 10.15625,6.34375 9.9000482,6.443972 9.6695391,6.580022 9.4375,6.71875 c -0.00741,0.0044 -0.023866,-0.0045 -0.03125,0 -0.031933,0.0193 -0.062293,0.04251 -0.09375,0.0625 -0.120395,0.0767 -0.2310226,0.163513 -0.34375,0.25 -0.1061728,0.0808 -0.2132809,0.161112 -0.3125,0.25 C 8.4783201,7.442683 8.3087904,7.626638 8.15625,7.8125 8.0486711,7.942755 7.9378561,8.077785 7.84375,8.21875 7.818661,8.25713 7.805304,8.30462 7.78125,8.34375 7.716487,8.446782 7.6510225,8.548267 7.59375,8.65625 7.4927417,8.850956 7.3880752,9.071951 7.3125,9.28125 7.30454,9.30306 7.288911,9.3218 7.28125,9.34375 7.2494249,9.4357 7.2454455,9.530581 7.21875,9.625 7.1884177,9.731618 7.1483606,9.828031 7.125,9.9375 7.0521214,10.279012 7,10.635705 7,11 l 0,2 0,68 0,2 c 0,2.781848 2.2181517,5 5,5 l 2,0 68,0 2,0 c 2.781848,0 5,-2.218152 5,-5 l 0,-2 0,-68 0,-2 C 89,10.635705 88.94788,10.279012 88.875,9.9375 88.83085,9.730607 88.78662,9.539842 88.71875,9.34375 88.71105,9.3218 88.69545,9.30306 88.6875,9.28125 88.62476,9.107511 88.549117,8.913801 88.46875,8.75 88.42717,8.6672 88.38971,8.580046 88.34375,8.5 88.28915,8.40279 88.216976,8.31165 88.15625,8.21875 88.06214,8.077785 87.951329,7.942755 87.84375,7.8125 87.700576,7.63805 87.540609,7.465502 87.375,7.3125 87.36383,7.3023 87.35502,7.29135 87.34375,7.28125 87.205364,7.155694 87.058659,7.046814 86.90625,6.9375 86.803679,6.86435 86.701932,6.784136 86.59375,6.71875 c -0.0074,-0.0045 -0.02384,0.0044 -0.03125,0 -0.232039,-0.138728 -0.462548,-0.274778 -0.71875,-0.375 0.301527,0.0968 0.596455,0.204138 0.875,0.34375 0.55709,0.279224 1.060053,0.665694 1.5,1.09375 0.219973,0.214028 0.409366,0.441865 0.59375,0.6875 0.184384,0.245635 0.355408,0.507743 0.5,0.78125 0.14012,0.265048 0.276135,0.524729 0.375,0.8125 0.01041,0.03078 0.02133,0.06274 0.03125,0.09375 0.09046,0.278085 0.1388,0.579404 0.1875,0.875 C 89.95865,11.3493 90,11.665279 90,12 l 0,2 0,68 0,2 c 0,3.324 -2.676,6 -6,6 l -72,0 z"/>
</g>
<g id="layer4">
<rect width="66" x="15" y="15" rx="12" height="66" ry="12" style="opacity:.1;fill:url(#linearGradient2862);filter:url(#filter3794-7);stroke:#fff;stroke-linecap:round;stroke-width:.5;clip-path:url(#clipPath3613)" id="rect3171"/>
</g>
<g style="stroke:none" id="layer3">
<path style="opacity:.05" id="path3717" d="m 44.0938,12.9688 c -1.91193,-0.161166 -3.5187,0.765663 -4.5,2.09375 -1.01924,1.37943 -1.52153,3.12744 -1.5625,4.75 h 0.03125 c -0.650029,5.85122 0.609251,11.5842 2.03125,17.0625 -3.10763,10.1072 -7.82836,19.6927 -13.2812,28.7812 -0.777589,-0.173832 -1.56405,-0.201065 -2.28125,0 -0.956263,0.268086 -1.81297,0.788093 -2.625,1.375 -1.62406,1.17382 -3.082,2.67741 -4.25,3.4375 a 0.860232,0.860232 0 0,0 -0.15625,0.125 c -1.31717,1.32354 -2.92435,2.95346 -4.0625,4.84375 -1.13815,1.89029 -1.79373,4.12779 -1.03125,6.4375 a 0.860232,0.860232 0 0,0 0.09375,0.1875 c 2.40868,3.53534 7.62327,3.73184 10.75,1.125 0.01839,-0.01348 0.04416,-0.01772 0.0625,-0.03125 5.62398,-4.14848 8.84564,-10.3743 12.4375,-15.8438 7.97718,-2.42512 16.1554,-4.1855 24.4375,-5.09375 5.80786,2.75555 12.3799,5.45797 19.1875,4.53125 a 0.860232,0.860232 0 0,0 0.03125,0 c 1.71801,-0.312428 3.02623,-1.30219 3.78125,-2.59375 0.755024,-1.29156 0.98196,-2.85554 0.75,-4.375 -0.322689,-2.31514 -1.90359,-3.7846 -3.71875,-4.625 -1.81516,-0.840401 -3.90588,-1.15504 -5.59375,-1.34375 -4.12404,-0.399468 -8.24112,-0.144503 -12.2812,0.09375 -5.72908,-3.04892 -10.1073,-8.39652 -12.3438,-14.5312 a 0.860232,0.860232 0 0,0 -0.09375,-0.1875 c -1.52057,-2.25608 -0.836965,-4.83431 -0.5625,-7.8125 0.001,-0.01106 -0.001,-0.02017 0,-0.03125 0.386198,-3.56735 0.242361,-7.27597 0.40625,-10.5625 0.53443,-1.84551 0.385207,-3.8227 -0.53125,-5.375 -0.925025,-1.56681 -2.69233,-2.61948 -4.90625,-2.4375 -0.07707,0.0063 -0.14061,-0.0094 -0.21875,0 z  m 1.0938,35.1875 c 1.71235,2.8739 3.81331,5.47822 6.28125,7.75 -3.84171,0.84796 -7.62627,1.91962 -11.3438,3.21875 1.8626,-3.55369 3.58895,-7.20754 5.0625,-10.9688 z "/>
<path style="opacity:.1" id="path3711" d="m 44.1875,13.8125 c -3.40113,-0.437072 -5.19545,3.12849 -5.26885,6.03525 -0.654698,5.77067 0.6339,11.5044 2.08135,17.0585 -3.19385,10.4771 -8.09691,20.3643 -13.75,29.7188 -3.36586,-1.44366 -6.51416,2.84295 -9.1405,4.55206 -2.62585,2.63854 -6.22293,6.38288 -4.89288,10.4119 2.09292,3.07188 6.79197,3.22855 9.52669,0.901923 5.54074,-4.0624 8.7612,-10.3201 12.4754,-15.9284 8.1925,-2.5082 16.6031,-4.30175 25.125,-5.21875 5.83029,2.77561 12.3212,5.45665 18.9093,4.55981 2.96882,-0.539895 4.24881,-3.3126 3.83867,-5.99926 -0.55654,-3.99291 -5.24327,-4.88403 -8.55754,-5.25458 -4.14031,-0.401044 -8.29923,-0.143912 -12.4405,0.100271 -6.01962,-3.14415 -10.5949,-8.71211 -12.921,-15.0928 -1.7585,-2.6091 -0.930449,-5.47745 -0.667925,-8.36266 0.380885,-3.4892 0.245178,-7.20457 0.41232,-10.5563 1.10455,-3.37721 -0.673829,-7.41433 -4.72965,-6.92574 z  m .8438,32.5312 c 2.04007,3.81008 4.7716,7.25842 8.09375,10.0312 -5.0035,1.02923 -9.93551,2.42302 -14.7188,4.21875 2.47523,-4.61751 4.82192,-9.324 6.625,-14.25 z "/>
<path style="opacity:.15" id="path3707" d="m 44.1875,14.8438 c -0.586982,0 -0.994751,0.01781 -1.4375,0.125 -0.442749,0.107191 -0.848183,0.36172 -1.125,0.59375 -0.814165,0.682431 -1.16474,1.67591 -1.4375,2.90625 -0.272758,1.23034 -0.40897,2.73169 -0.40625,4.5 0.0056,3.64176 0.561834,7.13143 1.6875,11.5625 l .5938,2.375 -.5625,1.7812 c -2.06251,6.5909 -5.05861,13.4648 -9.5,21.75 -1.76054,3.2842 -3.39743,6.10931 -4.9375,8.5625 0.07059,-0.09391 0.131561,-0.167802 0.1875,-0.4375 0.03617,-0.174405 0.05291,-0.445027 -0.09375,-0.75 -0.146657,-0.304973 -0.437669,-0.516099 -0.65625,-0.59375 -0.437163,-0.155303 -0.607411,-0.0636 -0.75,-0.03125 -0.285178,0.0647 -0.458461,0.138583 -0.6875,0.25 -0.916157,0.445669 -2.34812,1.36639 -3.9375,2.5625 -3.24966,2.44557 -5.89602,5.47019 -6.84375,8.15625 -0.306991,0.870078 -0.550706,1.56519 -0.375,2.375 0.175706,0.80981 0.845576,1.41743 1.5,1.75 0.994202,0.505245 1.87149,0.806819 2.78125,0.84375 0.90976,0.03693 1.749,-0.221437 2.625,-0.65625 3.57511,-1.77455 7.55475,-6.71429 12.125,-14.2812 0.727441,-1.20442 1.21391,-1.93908 1.5,-2.3125 0.109502,-0.142931 0.157739,-0.188933 0.1875,-0.21875 0.07576,-0.0159 0.155982,-0.03924 0.25,-0.0625 0.188035,-0.04652 0.435159,-0.109607 0.71875,-0.1875 0.567182,-0.155785 1.30966,-0.357455 2.09375,-0.59375 6.12286,-1.8452 13.4847,-3.37446 20.7188,-4.25 l 2.0938,-.25 .9688,.4688 c 3.31048,1.6607 7.76719,3.23619 11.1875,3.90625 1.1868,0.2325 2.50584,0.346281 3.6875,0.375 1.18166,0.02872 2.13054,0.04294 2.96875,-0.25 0.454578,-0.158863 0.921116,-0.410772 1.375,-0.6875 0.226942,-0.138364 0.456951,-0.303522 0.65625,-0.46875 0.09965,-0.08261 0.201037,-0.144402 0.3125,-0.28125 0.111463,-0.136848 0.312471,-0.324889 0.3125,-0.84375 a 1.14334,1.14334 0 0,0 -0.21875,-0.65625 c 0.01614,-0.02018 0.08099,-0.01228 0.09375,-0.03125 0.154054,-0.229063 0.21611,-0.411082 0.25,-0.5625 0.06778,-0.302836 0.04403,-0.570913 0.03125,-0.84375 -0.025559,-0.545674 -0.079651,-1.08404 -0.4375,-1.6875 -0.967629,-1.63175 -2.99143,-2.37354 -5.6875,-2.875 -2.34355,-0.435883 -7.14799,-0.538487 -11.0625,-0.28125 l -3.0938,.1875 -.9062,-.5 c -0.01336,-0.0081 -0.01792,-0.02316 -0.03125,-0.03125 -6.84138,-4.15348 -10.3073,-8.63488 -13.625,-17.625 -0.2499,-0.677168 -0.349422,-1.0234 -0.375,-1.1875 -0.02558,-0.164098 -0.01517,-0.223925 0.0625,-0.625 0.32811,-1.69435 0.590934,-4.9868 0.75,-8 0.07953,-1.5066 0.122993,-2.91894 0.125,-4 0.001,-0.540532 -0.0036,-1.00878 -0.03125,-1.375 -0.01384,-0.183109 -0.02634,-0.324652 -0.0625,-0.5 -0.01808,-0.08767 -0.0396,-0.180333 -0.09375,-0.3125 -0.04493,-0.109675 -0.169886,-0.307674 -0.40625,-0.5 0.193674,-0.100674 0.431829,-0.14275 0.53125,-0.28125 0.198842,-0.276999 0.213963,-0.474325 0.25,-0.65625 0.07207,-0.36385 0.10493,-0.720568 0.125,-1.25 0.04713,-1.24323 -0.06203,-2.31759 -0.84375,-3.125 -0.781721,-0.807409 -1.87729,-0.96875 -3.125,-0.96875 z  m .625,3.8125 c 0.395231,0.34061 0.673077,0.809758 0.78125,1.71875 a 1.14334,1.14334 0 0,0 0.3125,0.6875 1.14334,1.14334 0 0,0 -0.46875,0.6875 c -0.326258,1.46149 -0.612783,2.7673 -0.90625,4.1875 -0.13658,-1.30051 -0.207333,-2.74513 -0.15625,-4.0625 0.05761,-1.48573 0.28969,-2.82352 0.4375,-3.21875 z  m .0625,25.3125 c 0.180334,0.361599 0.336202,0.712908 0.53125,1.09375 2.66444,5.20244 5.72724,8.87917 9.75,11.875 -6.53697,1.1818 -13.8132,3.3675 -18.8125,5.46875 4.09631,-7.35761 6.89249,-13.3898 8.53125,-18.4375 z  m 25.3438,15.6562 c 1.46493,-0.08527 2.98927,-0.115547 4.375,0 1.45502,0.121325 2.77693,0.375739 3.6875,0.75 0.910565,0.374261 1.32251,0.792658 1.4375,1.1875 a 1.14334,1.14334 0 0,0 0,0.0625 c -0.837274,0.20935 -1.85212,0.213547 -3.0625,-0.03125 -1.47894,-0.299112 -3.09059,-0.855091 -4.53125,-1.28125 -0.0066,-0.0021 -0.02455,0.0021 -0.03125,0 -0.455722,-0.144181 -1.21031,-0.444344 -1.875,-0.6875 z  m -43.4688,9.8125 c -1.28038,2.01132 -2.51019,3.83379 -3.625,5.25 -1.89557,2.40806 -3.44247,3.63331 -4.6875,4.3125 0.02811,-0.05733 0.000383,-0.06599 0.03125,-0.125 0.406688,-0.777457 1.02406,-1.7203 1.78125,-2.71875 1.51438,-1.99689 3.60782,-4.22673 5.78125,-6.0625 0.304537,-0.257225 0.533038,-0.464018 0.71875,-0.65625 z "/>
<path style="opacity:.3" id="path3703" d="m 44.196,16 c -1.13793,0 -1.36238,0.0532 -1.82013,0.436895 -0.911322,0.763868 -1.43066,3.11428 -1.4254,6.53157 0.0054,3.5333 0.48922,6.89609 1.60084,11.2719 l .7017,2.7306 -.6579,2.0534 c -2.08955,6.67728 -5.119,13.6264 -9.58311,21.9539 -6.76554,12.6208 -11.9941,19.2464 -15.6356,19.835 -0.585915,0.09472 -0.614021,0.0703 -0.614021,-0.349516 -1e-06,-2.13003 4.03883,-7.45618 8.5305,-11.25 2.29443,-1.93797 -0.375629,-0.64277 -3.46483,1.68204 -3.11313,2.34282 -5.69188,5.38057 -6.49108,7.64566 -0.56829,1.61066 -0.448076,2.18014 0.592091,2.70875 1.85851,0.944479 2.80429,0.981631 4.38586,0.196598 3.07438,-1.526 7.14016,-6.35546 11.6664,-13.8496 1.46763,-2.42995 1.92817,-3.03642 2.30258,-3.03642 0.131932,1e-06 1.51892,-0.384476 3.0701,-0.851944 6.19973,-1.86836 13.6442,-3.3764 20.9425,-4.25972 l 2.4342,-.3058 1.228,.6117 c 3.19817,1.60436 7.65443,3.16108 10.9208,3.80098 2.20918,0.43279 5.08594,0.512551 6.05249,0.174758 0.609016,-0.212835 1.87774,-0.964905 1.87776,-1.21206 -2.47908,1.16268 -6.21574,-0.273989 -9.02672,-1.10348 -1.85336,-0.583892 -5.93208,-2.17854 -6.16214,-2.40292 4.93837,-0.955846 14.2016,-1.16784 15.197,2.25001 0.291634,-1e-06 0.216688,-1.37202 -0.109646,-1.92233 -0.611203,-1.03069 -2.38231,-1.86277 -4.93409,-2.33738 -2.066,-0.38426 -6.96145,-0.491829 -10.7892,-0.240292 l -3.399,.2184 -1.228,-.7427 c -7.0417,-4.26559 -10.7711,-9.0777 -14.1444,-18.2185 -0.506216,-1.37172 -0.540276,-1.55992 -0.372799,-2.42476 0.589659,-3.04497 1.13687,-13.333 0.723668,-13.5874 -0.752577,3.3712 -1.36119,6.7431 -2.12714,9.78643 -0.158218,0 -0.621801,-2.37216 -0.98682,-5.13351 -0.397139,-3.00434 -0.252915,-7.06868 0.285081,-8.4539 0.215588,-0.555085 0.496778,-1.06088 0.635951,-1.11408 1.37902,0.395523 2.14654,1.48772 2.34644,3.16748 0.195667,0 0.245907,-0.321005 0.285081,-1.35437 0.08616,-2.27276 -0.52292,-2.90535 -2.80695,-2.90535 z  m .5482,25.0777 c 0.07815,-0.02488 0.122599,0.143832 0.219293,0.415048 0.119034,0.333881 0.785276,1.70089 1.46926,3.03642 2.94301,5.74636 6.20205,9.51508 10.8989,12.6044 0.237953,0.156512 0.384976,0.334908 0.32894,0.393204 -0.05604,0.0583 -1.01208,0.264093 -2.10521,0.458739 -7.45433,1.32734 -16.7347,4.11971 -21.2495,6.37866 -0.07182,0.03594 -0.131575,-0.03462 -0.131575,-0.152913 1e-06,-0.118293 0.443784,-1.04286 1.00875,-2.0534 4.25537,-7.61153 7.11479,-13.7635 8.72787,-18.8301 0.51172,-1.60731 0.703059,-2.20855 0.833314,-2.25001 z "/>
<path style="fill:#fff" id="rect3364" d="m 44.196,15 c -1.13793,0 -1.36238,0.0532 -1.82013,0.436895 -0.911322,0.763868 -1.43066,3.11428 -1.4254,6.53157 0.0054,3.5333 0.48922,6.89609 1.60084,11.2719 l .7017,2.7306 -.6579,2.0534 c -2.08955,6.67728 -5.119,13.6264 -9.58311,21.9539 -6.76554,12.6208 -11.9941,19.2464 -15.6356,19.835 -0.585915,0.09472 -0.614021,0.0703 -0.614021,-0.349516 -1e-06,-2.13003 4.03883,-7.45618 8.5305,-11.25 2.29443,-1.93797 -0.375629,-0.64277 -3.46483,1.68204 -3.11313,2.34282 -5.69188,5.38057 -6.49108,7.64566 -0.56829,1.61066 -0.448076,2.18014 0.592091,2.70875 1.85851,0.944479 2.80429,0.981631 4.38586,0.196598 3.07438,-1.526 7.14016,-6.35546 11.6664,-13.8496 1.46763,-2.42995 1.92817,-3.03641 2.30258,-3.03641 0.131932,1e-06 1.51892,-0.384476 3.0701,-0.851944 6.19973,-1.86836 13.6442,-3.3764 20.9425,-4.25972 l 2.4342,-.3058 1.228,.6117 c 3.19817,1.60436 7.65443,3.16108 10.9208,3.80098 2.20918,0.43279 5.08594,0.512551 6.05249,0.174758 0.609016,-0.212835 1.87774,-0.964905 1.87776,-1.21206 -2.47908,1.16268 -6.21574,-0.273989 -9.02672,-1.10348 -1.85336,-0.583892 -5.93208,-2.17854 -6.16214,-2.40292 4.93837,-0.955846 14.2016,-1.16784 15.197,2.25001 0.291634,-1e-06 0.216688,-1.37202 -0.109646,-1.92233 -0.611203,-1.03069 -2.38231,-1.86277 -4.93409,-2.33738 -2.066,-0.38426 -6.96145,-0.491829 -10.7892,-0.240292 l -3.399,.2184 -1.228,-.7427 c -7.0417,-4.26559 -10.7711,-9.0777 -14.1444,-18.2185 -0.506216,-1.37172 -0.540276,-1.55992 -0.372799,-2.42476 0.589659,-3.04497 1.13687,-13.333 0.723668,-13.5874 -0.752577,3.3712 -1.36119,6.7431 -2.12714,9.78643 -0.158218,0 -0.621801,-2.37216 -0.98682,-5.13351 -0.397139,-3.00434 -0.252915,-7.06868 0.285081,-8.4539 0.215588,-0.555085 0.496778,-1.06088 0.635951,-1.11408 1.37902,0.395523 2.14654,1.48772 2.34644,3.16748 0.195667,0 0.245907,-0.321005 0.285081,-1.35437 0.08616,-2.27276 -0.52292,-2.90535 -2.80695,-2.90535 z  m .5482,25.0777 c 0.07815,-0.02488 0.122599,0.143832 0.219293,0.415048 0.119034,0.333881 0.785276,1.70089 1.46926,3.03642 2.94301,5.74636 6.20205,9.51508 10.8989,12.6044 0.237953,0.156512 0.384976,0.334908 0.32894,0.393204 -0.05604,0.0583 -1.01208,0.264093 -2.10521,0.458739 -7.45433,1.32734 -16.7347,4.11971 -21.2495,6.37866 -0.07182,0.03594 -0.131575,-0.03462 -0.131575,-0.152913 1e-06,-0.118293 0.443784,-1.04286 1.00875,-2.0534 4.25537,-7.61153 7.11479,-13.7635 8.72787,-18.8301 0.51172,-1.60731 0.703059,-2.20855 0.833314,-2.25001 z "/>
</g>
</svg>
