<svg width="96" version="1.0" xmlns="http://www.w3.org/2000/svg" height="96" xmlns:xlink="http://www.w3.org/1999/xlink">
<defs id="defs2410">
<clipPath id="clipPath3613">
<rect width="84" x="6" y="6" rx="6" height="84" ry="6" style="fill:#fff;stroke:none" id="rect3615"/>
</clipPath>
<filter width="1.3839999" x="-0.192" y="-0.192" height="1.3839999" style="color-interpolation-filters:sRGB" id="filter3794">
<feGaussianBlur stdDeviation="5.28" id="feGaussianBlur3796"/>
</filter>
<filter style="color-interpolation-filters:sRGB" id="filter3174">
<feGaussianBlur stdDeviation="1.71" id="feGaussianBlur3176"/>
</filter>
<linearGradient gradientTransform="matrix(0.09487444,0,0,0.09487444,8.473189,8.6743156)" id="linearGradient3952" xlink:href="#XMLID_5_" y1="634.63232" x1="220.9512" y2="560.35498" x2="278.14471" gradientUnits="userSpaceOnUse"/>
<linearGradient gradientTransform="matrix(0.09487444,0,0,0.09487444,8.473189,8.6743156)" id="linearGradient3943" xlink:href="#XMLID_5_" y1="713.54639" x1="319.186" y2="626.00598" x2="373.12509" gradientUnits="userSpaceOnUse"/>
<linearGradient gradientTransform="matrix(0.09487444,0,0,0.09487444,8.473189,8.6743156)" id="linearGradient3940" xlink:href="#XMLID_5_" y1="790.51508" x1="331.49609" y2="688.75092" x2="409.85471" gradientUnits="userSpaceOnUse"/>
<linearGradient gradientTransform="matrix(0.08428564,0,0,0.08428564,12.002509,12.007535)" id="linearGradient3937" xlink:href="#linearGradient5498" y1="-363.42487" x1="1508.4957" y2="630.52039" x2="361.1441" gradientUnits="userSpaceOnUse"/>
<linearGradient gradientTransform="matrix(0.09487444,0,0,0.09487444,8.473189,8.6743156)" id="linearGradient3946" xlink:href="#XMLID_5_" y1="704.23578" x1="264.5405" y2="612.60522" x2="335.09619" gradientUnits="userSpaceOnUse"/>
<linearGradient gradientTransform="matrix(0.09487444,0,0,0.09487444,8.473189,8.6743156)" id="linearGradient3949" xlink:href="#XMLID_5_" y1="684.01898" x1="237.20799" y2="565.86761" x2="328.18469" gradientUnits="userSpaceOnUse"/>
<linearGradient gradientTransform="matrix(-0.09487444,0,0,0.09487444,98.72485,8.6743156)" id="linearGradient3955" xlink:href="#XMLID_4_" y1="815.45459" x1="429.84909" y2="643.30768" x2="480.12021" gradientUnits="userSpaceOnUse"/>
<linearGradient gradientTransform="translate(0,-97)" id="linearGradient3721" xlink:href="#ButtonShadow-0" y1="6.1317081" x1="32.251034" y2="90.238609" x2="32.251034" gradientUnits="userSpaceOnUse"/>
<linearGradient gradientTransform="matrix(1.0238095,0,0,1.0119048,-1.1428571,-98.071429)" id="linearGradient3725" xlink:href="#ButtonShadow-0" y1="6.1317081" x1="32.251034" y2="90.238609" x2="32.251034" gradientUnits="userSpaceOnUse"/>
<linearGradient gradientTransform="matrix(0.08428564,0,0,0.08428564,12.002509,12.007535)" id="linearGradient3934" xlink:href="#linearGradient5498" y1="-309.6048" x1="370.62177" y2="458.38397" x2="370.20648" gradientUnits="userSpaceOnUse"/>
<linearGradient gradientTransform="matrix(1.0238095,0,0,1.0119048,-1.1428571,-98.071429)" id="linearGradient3772" xlink:href="#ButtonShadow-0" y1="6.1317081" x1="32.251034" y2="90.238609" x2="32.251034" gradientUnits="userSpaceOnUse"/>
<linearGradient gradientTransform="matrix(1.0058652,0,0,0.994169,100,0)" id="ButtonShadow-0" y1="92.539597" x1="45.447727" y2="7.0165396" x2="45.447727" gradientUnits="userSpaceOnUse">
<stop offset="0" id="stop3750-8"/>
<stop offset="1" style="stop-opacity:.588" id="stop3752-5"/>
</linearGradient>
<linearGradient gradientTransform="matrix(0,1,-1,0,96,0)" id="linearGradient3991" xlink:href="#linearGradient3985" y1="48" x1="13.1875" y2="48" x2="82.8125" gradientUnits="userSpaceOnUse"/>
<linearGradient gradientTransform="matrix(1.0238095,0,0,1.0119048,-1.1428571,-98.071429)" id="linearGradient3780" xlink:href="#ButtonShadow-0" y1="6.1317081" x1="32.251034" y2="90.238609" x2="32.251034" gradientUnits="userSpaceOnUse"/>
<linearGradient gradientTransform="matrix(0.08428564,0,0,0.08428564,12.002509,12.007535)" id="linearGradient3931" xlink:href="#linearGradient5498" y1="274.88394" x1="247.47713" y2="580.54669" x2="130.31757" gradientUnits="userSpaceOnUse"/>
<linearGradient gradientTransform="translate(0,-96)" id="linearGradient3617" xlink:href="#radialGradient3809" y1="90" x1="48" y2="5.9877172" x2="48" gradientUnits="userSpaceOnUse"/>
<linearGradient id="linearGradient3613" xlink:href="#linearGradient3737" y1="20.220806" x1="48" y2="138.66119" x2="48" gradientUnits="userSpaceOnUse"/>
<linearGradient gradientTransform="scale(1.0058652,0.994169)" id="ButtonShadow" y1="92.539597" x1="45.447727" y2="7.0165396" x2="45.447727" gradientUnits="userSpaceOnUse">
<stop offset="0" id="stop3750"/>
<stop offset="1" style="stop-opacity:.588" id="stop3752"/>
</linearGradient>
<linearGradient id="linearGradient3188" xlink:href="#linearGradient3737" y1="6" x1="36.357143" y2="63.893143" x2="36.357143" gradientUnits="userSpaceOnUse"/>
<linearGradient id="linearGradient3737">
<stop offset="0" style="stop-color:#fff" id="stop3739"/>
<stop offset="1" style="stop-color:#fff;stop-opacity:0" id="stop3741"/>
</linearGradient>
<linearGradient id="linearGradient3985">
<stop offset="0" id="stop3987"/>
<stop offset="1" style="stop-opacity:0" id="stop3989"/>
</linearGradient>
<linearGradient gradientTransform="matrix(0.08428564,0,0,0.08428564,12.002509,12.007535)" id="linearGradient3928" xlink:href="#linearGradient5498" y1="756.76105" x1="220.36789" y2="491.06723" x2="185.21225" gradientUnits="userSpaceOnUse"/>
<linearGradient id="linearGradient5498">
<stop offset="0" style="stop-color:#eee" id="stop5500"/>
<stop offset="1" style="stop-color:#eee;stop-opacity:0" id="stop5502"/>
</linearGradient>
<linearGradient gradientTransform="matrix(1.0238095,0,0,1.0119048,-1.1428571,-98.071429)" id="linearGradient3059" xlink:href="#ButtonShadow-0" y1="6.1317081" x1="32.251034" y2="90.238609" x2="32.251034" gradientUnits="userSpaceOnUse"/>
<linearGradient gradientTransform="matrix(-1.12563,0,0,1.12563,1028.91,-39.5467)" id="XMLID_4_" y1="815.45459" x1="429.84909" y2="643.30768" x2="480.12021" gradientUnits="userSpaceOnUse">
<stop offset="0" style="stop-color:#fff" id="stop112"/>
<stop offset="1" style="stop-color:#e5eaf2" id="stop114"/>
</linearGradient>
<linearGradient id="XMLID_5_" y1="634.63232" x1="220.9512" y2="560.35498" x2="278.14471" gradientUnits="userSpaceOnUse">
<stop offset="0" style="stop-color:#fff" id="stop119"/>
<stop offset="1" style="stop-color:#193d6b" id="stop121"/>
</linearGradient>
<mask id="XMLID_23_">
<g style="filter:url(#Adobe_OpacityMaskFilter)" id="g31">
<radialGradient fx="88.977501" fy="-20.899401" cx="88.977501" cy="-20.899401" r="673.11609" id="XMLID_24_" gradientUnits="userSpaceOnUse">
<stop offset="0.30899999" style="stop-color:#fff" id="stop34"/>
<stop offset="1" id="stop36"/>
</radialGradient>
<ellipse cx="295.89499" cy="286.172" rx="512.93402" ry="349.10599" style="fill:url(#XMLID_24_) #000000" id="ellipse38"/>
</g>
</mask>
<radialGradient fx="375.21439" fy="783.16357" cx="375.21439" cy="783.16357" gradientTransform="matrix(0.09487444,0,0,0.09487444,8.473189,8.6743156)" r="300.5752" id="radialGradient3959" xlink:href="#radialGradient29545" gradientUnits="userSpaceOnUse"/>
<radialGradient fx="375.21439" fy="783.16357" cx="375.21439" cy="783.16357" gradientTransform="matrix(1.12563,0,0,1.12563,-41.8734,-39.5467)" r="300.5752" id="radialGradient29545" gradientUnits="userSpaceOnUse">
<stop offset="0.0112" style="stop-color:#eeeeef;stop-opacity:.941" id="stop29547"/>
<stop offset="0.29210001" style="stop-color:#6193cf" id="stop29549"/>
<stop offset="0.45750001" style="stop-color:#2c72c7" id="stop29551"/>
<stop offset="0.6767" style="stop-color:#0057ae" id="stop29553"/>
<stop offset="0.8653" style="stop-color:#004d9a" id="stop29555"/>
<stop offset="1" style="stop-color:#00438a" id="stop29557"/>
</radialGradient>
<radialGradient fx="663.91144" fy="649.22662" cx="663.91144" cy="649.22662" gradientTransform="matrix(0.08428564,0,0,0.08428564,12.002509,12.007534)" r="427.12018" id="radialGradient3972" xlink:href="#XMLID_22_" gradientUnits="userSpaceOnUse"/>
<radialGradient fx="622.72803" fy="621.17328" cx="622.72803" cy="621.17328" r="510.71881" id="XMLID_22_" gradientUnits="userSpaceOnUse">
<stop offset="0" style="stop-color:#fff" id="stop14"/>
<stop offset="0.2814" style="stop-color:#e6e6e6" id="stop16"/>
<stop offset="0.75150001" style="stop-color:#c0c0c0" id="stop18"/>
<stop offset="1" style="stop-color:#b2b2b2" id="stop20"/>
</radialGradient>
<radialGradient fx="622.72803" fy="621.17328" cx="622.72803" cy="621.17328" r="510.71881" id="radialGradient3809" gradientUnits="userSpaceOnUse">
<stop offset="0" style="stop-color:#f0f0f0" id="stop3811"/>
<stop offset="0.2814" style="stop-color:#e1e1e1" id="stop3813"/>
<stop offset="0.75150001" style="stop-color:#c0c0c0" id="stop3815"/>
<stop offset="1" style="stop-color:#b2b2b2" id="stop3817"/>
</radialGradient>
<radialGradient fx="48" fy="90.171875" cx="48" cy="90.171875" gradientTransform="matrix(1.1573129,0,0,0.99590774,-7.5510206,0.19713193)" r="42" id="radialGradient3619" xlink:href="#linearGradient3737" gradientUnits="userSpaceOnUse"/>
</defs>
<g style="display:none" id="layer2">
<rect width="86" x="5" y="7" rx="6" height="85" ry="6" style="opacity:.9;fill:url(#ButtonShadow);filter:url(#filter3174);stroke:none" id="rect3745"/>
</g>
<g style="stroke:none" id="layer4">
<path style="opacity:.08;fill:url(#linearGradient3059)" id="path3786" d="m 12,-95.0312 c -5.51109,0 -10.0312,4.52016 -10.0312,10.0312 v 71 c 0,5.51109 4.52016,10.0312 10.0312,10.0312 h 72 c 5.51109,0 10.0312,-4.52016 10.0312,-10.0312 v -71 c 0,-5.51109 -4.52016,-10.0312 -10.0312,-10.0312 h -72 z " transform="scale(1,-1)"/>
<path style="opacity:.1;fill:url(#linearGradient3780)" id="path3778" d="m 12,-94.0312 c -4.97163,0 -9.03125,4.05962 -9.03125,9.03125 v 71 c 0,4.97163 4.05962,9.03125 9.03125,9.03125 h 72 c 4.97163,0 9.03125,-4.05962 9.03125,-9.03125 v -71 c 0,-4.97163 -4.05962,-9.03125 -9.03125,-9.03125 h -72 z " transform="scale(1,-1)"/>
<path style="opacity:.2;fill:url(#linearGradient3772)" id="path3770" d="m 12,-93 c -4.40913,0 -8,3.59087 -8,8 v 71 c 0,4.40913 3.59087,8 8,8 h 72 c 4.40913,0 8,-3.59087 8,-8 v -71 c 0,-4.40913 -3.59087,-8 -8,-8 h -72 z " transform="scale(1,-1)"/>
<rect width="86" x="5" y="-92" rx="7" height="85" ry="7" style="opacity:.3;fill:url(#linearGradient3725)" id="rect3723" transform="scale(1,-1)"/>
<rect width="84" x="6" y="-91" rx="6" height="84" ry="6" style="opacity:.45;fill:url(#linearGradient3721)" id="rect3716" transform="scale(1,-1)"/>
</g>
<g style="stroke:none" id="layer1">
<rect width="84" x="6" y="-90" rx="6" height="84" ry="6" style="fill:url(#linearGradient3617)" id="rect2419" transform="scale(1,-1)"/>
<path style="opacity:.5;fill:url(#linearGradient3188)" id="rect3728" d="m 12,6 c -3.324,0 -6,2.676 -6,6 v 2 68 2 c 0,0.334721 0.04135,0.6507 0.09375,0.96875 0.0487,0.295596 0.09704,0.596915 0.1875,0.875 0.00988,0.03038 0.020892,0.0636 0.03125,0.09375 0.098865,0.287771 0.23488,0.547452 0.375,0.8125 0.144592,0.273507 0.315616,0.535615 0.5,0.78125 0.184384,0.245635 0.373776,0.473472 0.59375,0.6875 0.439947,0.428056 0.94291,0.814526 1.5,1.09375 0.278545,0.139612 0.573473,0.246947 0.875,0.34375 -0.256202,-0.100222 -0.486711,-0.236272 -0.71875,-0.375 -0.00741,-0.0044 -0.023866,0.0045 -0.03125,0 -0.031933,-0.0193 -0.062293,-0.04251 -0.09375,-0.0625 -0.120395,-0.0767 -0.231023,-0.163513 -0.34375,-0.25 -0.106173,-0.0808 -0.213281,-0.161112 -0.3125,-0.25 -0.17793,-0.161433 -0.34746,-0.345388 -0.5,-0.53125 -0.107579,-0.130255 -0.218394,-0.265285 -0.3125,-0.40625 -0.025089,-0.03838 -0.038446,-0.08587 -0.0625,-0.125 -0.064763,-0.103032 -0.130228,-0.204517 -0.1875,-0.3125 -0.101008,-0.194706 -0.205675,-0.415701 -0.28125,-0.625 -0.00796,-0.02181 -0.023589,-0.04055 -0.03125,-0.0625 -0.0318251,-0.09195 -0.0358045,-0.186831 -0.0625,-0.28125 -0.0303323,-0.106618 -0.0703894,-0.203031 -0.09375,-0.3125 -0.0728786,-0.341512 -0.125,-0.698205 -0.125,-1.0625 v -2 -68 -2 c 0,-2.78185 2.21815,-5 5,-5 h 2 68 2 c 2.78185,0 5,2.21815 5,5 v 2 68 2 c 0,0.364295 -0.05212,0.720988 -0.125,1.0625 -0.04415,0.206893 -0.08838,0.397658 -0.15625,0.59375 -0.0077,0.02195 -0.0233,0.04069 -0.03125,0.0625 -0.06274,0.173739 -0.138383,0.367449 -0.21875,0.53125 -0.04158,0.0828 -0.07904,0.169954 -0.125,0.25 -0.0546,0.09721 -0.126774,0.18835 -0.1875,0.28125 -0.09411,0.140965 -0.204921,0.275995 -0.3125,0.40625 -0.143174,0.17445 -0.303141,0.346998 -0.46875,0.5 -0.01117,0.0102 -0.01998,0.02115 -0.03125,0.03125 -0.138386,0.125556 -0.285091,0.234436 -0.4375,0.34375 -0.102571,0.07315 -0.204318,0.153364 -0.3125,0.21875 -0.0074,0.0045 -0.02384,-0.0044 -0.03125,0 -0.232039,0.138728 -0.462548,0.274778 -0.71875,0.375 0.301527,-0.0968 0.596455,-0.204138 0.875,-0.34375 0.55709,-0.279224 1.06005,-0.665694 1.5,-1.09375 0.219973,-0.214028 0.409366,-0.441865 0.59375,-0.6875 0.184384,-0.245635 0.355408,-0.507743 0.5,-0.78125 0.14012,-0.265048 0.276135,-0.524729 0.375,-0.8125 0.01041,-0.03078 0.02133,-0.06274 0.03125,-0.09375 0.09046,-0.278085 0.1388,-0.579404 0.1875,-0.875 0.0524,-0.31805 0.09375,-0.634029 0.09375,-0.96875 v -2 -68 -2 c 0,-3.324 -2.676,-6 -6,-6 h -72 z "/>
<path style="opacity:.25;fill:url(#radialGradient3619)" id="path3615" d="M 12,90 C 8.676,90 6,87.324 6,84 L 6,82 6,14 6,12 c 0,-0.334721 0.04135,-0.6507 0.09375,-0.96875 0.0487,-0.295596 0.09704,-0.596915 0.1875,-0.875 C 6.29113,10.12587 6.302142,10.09265 6.3125,10.0625 6.411365,9.774729 6.5473802,9.515048 6.6875,9.25 6.8320918,8.976493 7.0031161,8.714385 7.1875,8.46875 7.3718839,8.223115 7.5612765,7.995278 7.78125,7.78125 8.221197,7.353194 8.72416,6.966724 9.28125,6.6875 9.559795,6.547888 9.8547231,6.440553 10.15625,6.34375 9.9000482,6.443972 9.6695391,6.580022 9.4375,6.71875 c -0.00741,0.0044 -0.023866,-0.0045 -0.03125,0 -0.031933,0.0193 -0.062293,0.04251 -0.09375,0.0625 -0.120395,0.0767 -0.2310226,0.163513 -0.34375,0.25 -0.1061728,0.0808 -0.2132809,0.161112 -0.3125,0.25 C 8.4783201,7.442683 8.3087904,7.626638 8.15625,7.8125 8.0486711,7.942755 7.9378561,8.077785 7.84375,8.21875 7.818661,8.25713 7.805304,8.30462 7.78125,8.34375 7.716487,8.446782 7.6510225,8.548267 7.59375,8.65625 7.4927417,8.850956 7.3880752,9.071951 7.3125,9.28125 7.30454,9.30306 7.288911,9.3218 7.28125,9.34375 7.2494249,9.4357 7.2454455,9.530581 7.21875,9.625 7.1884177,9.731618 7.1483606,9.828031 7.125,9.9375 7.0521214,10.279012 7,10.635705 7,11 l 0,2 0,68 0,2 c 0,2.781848 2.2181517,5 5,5 l 2,0 68,0 2,0 c 2.781848,0 5,-2.218152 5,-5 l 0,-2 0,-68 0,-2 C 89,10.635705 88.94788,10.279012 88.875,9.9375 88.83085,9.730607 88.78662,9.539842 88.71875,9.34375 88.71105,9.3218 88.69545,9.30306 88.6875,9.28125 88.62476,9.107511 88.549117,8.913801 88.46875,8.75 88.42717,8.6672 88.38971,8.580046 88.34375,8.5 88.28915,8.40279 88.216976,8.31165 88.15625,8.21875 88.06214,8.077785 87.951329,7.942755 87.84375,7.8125 87.700576,7.63805 87.540609,7.465502 87.375,7.3125 87.36383,7.3023 87.35502,7.29135 87.34375,7.28125 87.205364,7.155694 87.058659,7.046814 86.90625,6.9375 86.803679,6.86435 86.701932,6.784136 86.59375,6.71875 c -0.0074,-0.0045 -0.02384,0.0044 -0.03125,0 -0.232039,-0.138728 -0.462548,-0.274778 -0.71875,-0.375 0.301527,0.0968 0.596455,0.204138 0.875,0.34375 0.55709,0.279224 1.060053,0.665694 1.5,1.09375 0.219973,0.214028 0.409366,0.441865 0.59375,0.6875 0.184384,0.245635 0.355408,0.507743 0.5,0.78125 0.14012,0.265048 0.276135,0.524729 0.375,0.8125 0.01041,0.03078 0.02133,0.06274 0.03125,0.09375 0.09046,0.278085 0.1388,0.579404 0.1875,0.875 C 89.95865,11.3493 90,11.665279 90,12 l 0,2 0,68 0,2 c 0,3.324 -2.676,6 -6,6 l -72,0 z"/>
</g>
<g id="layer5">
<rect width="66" x="15" y="15" rx="12" height="66" ry="12" style="opacity:.1;fill:url(#linearGradient3613);filter:url(#filter3794);stroke:#fff;stroke-linecap:round;stroke-width:.5;clip-path:url(#clipPath3613)" id="rect3171"/>
</g>
<g id="layer3">
<path style="fill:url(#radialGradient3972);stroke:none" id="circle22" d="m 82.8166,48.0075 c 0,19.2174 -15.5967,34.8141 -34.8141,34.8141 -19.2174,0 -34.8141,-15.5967 -34.8141,-34.8141 0,-19.2174 15.5967,-34.8141 34.8141,-34.8141 19.2174,0 34.8141,15.5967 34.8141,34.8141 z "/>
<path style="opacity:.4;fill:#323232" id="path4002" d="m 66.7188,33.375 c -0.293778,0.198652 -0.610172,0.399525 -0.96875,0.6875 -0.473721,0.380447 -0.966925,0.807717 -1.4375,1.1875 -0.470575,0.379783 -0.807883,0.703879 -1.53125,1.03125 0.166621,-0.07537 -0.734239,0.423523 -1.65625,1 -0.922011,0.576477 -2.07558,1.30635 -3.21875,2.0625 -1.14317,0.75615 -2.2807,1.53161 -3.15625,2.15625 -0.437775,0.312322 -0.831184,0.60626 -1.09375,0.8125 -0.262566,0.20624 -0.462108,0.436925 -0.28125,0.21875 -1.22952,1.48377 -3.12918,2.1506 -4.84375,2.03125 -0.427756,-0.02978 -1.60014,-0.05751 -2.6875,0 -1.08736,0.05751 -2.29653,0.369957 -2.125,0.28125 0.170829,-0.08833 -0.524852,0.404447 -1.21875,0.96875 -0.693898,0.564303 -1.5675,1.26798 -2.4375,2 -0.869996,0.732024 -1.74906,1.47643 -2.53125,2.09375 -0.782193,0.617323 -1.28182,1.07308 -2.15625,1.46875 -1.78807,0.808829 -3.66749,1.14368 -4.84375,1.25 0.875508,-0.07932 0.436405,-0.129683 0.125,0.09375 -0.311405,0.223433 -0.772218,0.583364 -1.21875,0.96875 -0.893063,0.770771 -1.60318,1.50637 -2.4375,2.09375 -0.663953,0.467095 -1.05307,0.598975 -1.75,0.90625 -0.696925,0.307275 -1.51332,0.656223 -2.34375,1 -0.607501,0.251491 -1.14624,0.49438 -1.6875,0.71875 0.367308,0.547243 0.723467,1.08302 1.21875,1.71875 0.727573,0.933889 1.52597,1.86799 2.15625,2.53125 0.315141,0.33163 0.587703,0.582105 0.75,0.71875 0.162297,0.136645 0.482478,0.05442 -0.5,-0.09375 0.315305,0.04759 0.717092,-0.03548 1.4375,0.625 0.360204,0.330238 0.742496,1.05335 0.71875,1.75 -0.02375,0.696646 -0.319375,1.15126 -0.53125,1.40625 -0.42375,0.509985 -0.696299,0.597906 -0.9375,0.71875 -0.241201,0.120844 -0.454571,0.203653 -0.6875,0.28125 -0.0084,0.0028 -0.02277,-0.0028 -0.03125,0 0.342741,0.562792 0.554735,1.01735 1.09375,1.71875 1.90368,2.47718 5.06783,5.61444 10.0625,8.09375 8.46525,4.20187 14.8199,1.72501 18.625,0.5625 1.0857,-0.331676 1.49297,-0.550436 1.59375,-0.59375 0.0943,-1.29368 0.238709,-2.32375 0.40625,-3.6875 0.03609,-0.293753 0.303168,-3.98258 0.78125,-7.65625 0.239041,-1.83684 0.524863,-3.75117 0.9375,-5.46875 0.412637,-1.71758 0.855818,-3.21191 1.78125,-4.5 1.47646,-2.05572 3.81523,-3.81973 6.15625,-5.3125 1.02448,-0.653267 1.97733,-1.17615 2.90625,-1.65625 -0.57871,0.04516 -1.07805,0.10837 -1.8125,0.09375 -0.63346,-0.01261 -1.28392,-0.05726 -1.9375,-0.1875 -0.653584,-0.130238 -1.48648,-0.09825 -2.3125,-1.34375 -0.481427,-0.726212 -0.395736,-1.25173 -0.375,-1.59375 0.02074,-0.342024 0.05956,-0.572624 0.125,-0.8125 0.130882,-0.479752 0.315892,-0.941192 0.53125,-1.4375 0.430716,-0.992617 1.00527,-2.13068 1.625,-3.28125 1.23946,-2.30114 2.53465,-4.45161 2.96875,-5.125 0.145004,-0.225025 0.18704,-0.38594 0.1875,-0.46875 0.00046,-0.08281 0.01119,-0.185141 -0.28125,-0.53125 -0.49948,-0.590931 -0.830306,-1.07184 -1.15625,-1.5 z "/>
<path style="opacity:.86;fill:#eee;mask:url(#XMLID_23_)" id="ellipse40" d="m 699.571,390.895 c 0,162.148 -129.16,293.746 -288.304,293.746 -159.144,0 -288.304,-131.598 -288.304,-293.746 0,-162.148 129.16,-293.746 288.304,-293.746 159.144,0 288.304,131.598 288.304,293.746 z " transform="matrix(0.09487444,0,0,0.09487444,8.473189,8.6743156)"/>
<g style="stroke:none">
<path style="opacity:.15" id="path3993" d="m 48,13.1875 c -19.2174,0 -34.8125,15.5951 -34.8125,34.8125 0,19.2174 15.5951,34.8125 34.8125,34.8125 19.2174,0 34.8125,-15.5951 34.8125,-34.8125 0,-19.2174 -15.5951,-34.8125 -34.8125,-34.8125 z  m 0,3.5312 c 17.2658,0 31.2812,14.0155 31.2812,31.2812 0,17.2657 -14.0155,31.2812 -31.2812,31.2812 -17.2657,0 -31.2812,-14.0155 -31.2812,-31.2812 0,-17.2658 14.0155,-31.2812 31.2812,-31.2812 z "/>
<path style="opacity:.4;fill:url(#linearGradient3991)" id="path3980" d="m 82.8125,48 c 0,-19.2174 -15.5951,-34.8125 -34.8125,-34.8125 -19.2174,0 -34.8125,15.5951 -34.8125,34.8125 0,19.2174 15.5951,34.8125 34.8125,34.8125 19.2174,0 34.8125,-15.5951 34.8125,-34.8125 z  m -2.2812,0 c 0,17.9628 -14.5685,32.5312 -32.5312,32.5312 -17.9628,0 -32.5625,-14.5685 -32.5625,-32.5312 0,-17.9628 14.5997,-32.5312 32.5625,-32.5312 17.9628,0 32.5312,14.5685 32.5312,32.5312 z "/>
</g>
<path style="opacity:.22;fill:#323232" id="path43" d="m 67.1842,30.7811 c -1.44873,0 -4.26185,3.02137 -5.31591,3.4984 -1.05453,0.477029 -9.4012,5.88307 -10.1921,6.83712 -0.790493,0.953961 -1.84483,1.35158 -2.98693,1.27208 -1.142,-0.0795 -4.75273,-0.112142 -5.98259,0.523896 -1.23014,0.636038 -6.84462,5.83629 -8.25046,6.47243 -1.40566,0.635848 -3.23968,0.961837 -4.11821,1.04125 -0.878542,0.0796 -3.7891,3.0134 -4.57988,3.57012 -0.79068,0.556248 -6.57157,2.78523 -7.45,3.26207 -0.87864,0.477123 5.16582,8.02713 6.22014,8.18614 1.05416,0.159104 -1.03564,0.938592 -3.06406,0.938592 -0.223331,0 2.89888,8.18747 13.5446,13.4719 9.20329,4.5682 16.6181,1.79408 20.2446,0.686127 2.56427,-0.783371 3.02925,-1.1327 3.11738,-2.40478 0.08795,-1.27198 0.246768,-2.27717 0.42257,-3.70817 0.175802,-1.4308 0.790398,-13.436 3.07507,-16.616 2.28401,-3.1801 8.81317,-6.99765 11.0974,-7.39499 2.28439,-0.397524 1.84521,-1.19248 1.84521,-1.90802 0,-0.715544 -0.35151,-2.30564 -0.966486,-2.54415 -0.615071,-0.238419 -3.01482,1.1938 -3.80551,1.35281 -0.790778,0.159008 -4.56858,0.397524 -5.0958,-0.397429 -0.527123,-0.795142 4.26204,-8.90453 4.87702,-9.85849 0.614786,-0.954056 0.878443,-2.22613 -0.263467,-3.57762 -1.14257,-1.35177 -1.93335,-2.70326 -2.37252,-2.70326 z "/>
<path style="fill:url(#radialGradient3959)" id="path58" d="m 64.1013,26.575 c -1.40537,0 -4.13387,3.23863 -5.15652,3.74991 -1.02265,0.511372 -9.11876,6.30621 -9.88572,7.32895 -0.766965,1.02256 -1.78971,1.44873 -2.89746,1.36353 -1.10775,-0.0851 -4.60995,-0.120206 -5.803,0.561561 -1.19324,0.681863 -6.63912,6.25611 -8.00265,6.93798 -1.36344,0.681579 -3.14234,1.03081 -3.99459,1.1161 -0.852077,0.0851 -3.67525,3.22991 -4.44222,3.82657 -0.766964,0.596666 -6.82754,3.21918 -7.6797,3.73027 -0.852251,0.511372 6.21722,7.67278 7.23987,7.84308 1.02265,0.170678 -0.969666,3.06411 -2.67195,4.05085 -2.98683,1.73134 1.25269,6.80888 11.5793,12.473 8.92722,4.89659 19.2825,3.86521 22.8,2.67776 2.48742,-0.840022 0.362827,-2.81947 0.448214,-4.18291 0.085,-1.36364 0.156637,-3.15657 0.327127,-4.6904 0.170585,-1.53393 0.76687,-14.4024 2.98275,-17.8112 2.2156,-3.40855 8.54847,-7.50068 10.7643,-7.92676 2.21589,-0.426082 1.78962,-1.27834 1.78962,-2.04521 0,-0.76687 -0.340789,-2.47138 -0.937453,-2.72707 -0.596477,-0.255593 -2.92412,1.27967 -3.69109,1.45006 -0.766965,0.170395 -4.43149,0.426176 -4.94296,-0.425987 -0.511279,-0.852351 4.13405,-9.54484 4.73063,-10.5675 0.596665,-1.02275 0.852161,-2.38638 -0.255781,-3.83492 -1.10747,-1.44902 -1.87453,-2.89775 -2.30061,-2.89775 z "/>
<path style="fill:#fff" id="path60" d="m 47.1018,42.6394 c 0,0 -3.3762,-0.519532 -5.32426,1.42862 -1.94814,1.94806 -3.63672,6.23363 -3.50646,7.53236 0.129698,1.29874 4.0259,-4.41555 5.714,-4.80501 1.68848,-0.389743 3.50656,-3.24708 3.11672,-4.15597 z "/>
<path style="opacity:.18;fill:url(#linearGradient3955)" id="path116" d="m 55.627,60.5654 c 0,0 -3.02118,10.2848 -3.09755,10.4437 -0.431773,0.897322 -1.22815,3.49755 -0.953962,4.33728 0.322857,0.989259 1.53298,2.42755 2.09777,3.14669 0.564787,0.719433 0.806811,1.07901 0.64543,1.34893 -0.161287,0.269727 -2.25906,0.269727 -2.25906,0.269727 0,0 -1.61353,-2.42764 -1.93648,-3.32677 -0.322573,-0.898931 -0.48405,-2.78703 -0.161192,-3.41624 0.322668,-0.629491 5.66504,-12.8033 5.66504,-12.8033 z "/>
<path style="opacity:.2;fill:url(#linearGradient3952)" id="polygon123" d="m 34.3326,62.4814 -5.5193,4.778 6.9198,-4.119 -1.4004,-.659 z "/>
<path style="opacity:.2;fill:url(#linearGradient3949)" id="polygon130" d="m 39.7697,60.834 -9.3912,12.1919 10.7916,-11.3683 -1.4003,-.8236 z "/>
<path style="opacity:.201;fill:url(#linearGradient3946)" id="polygon137" d="m 40.5111,65.0352 -7.167,11.3682 8.8145,-10.6269 -1.6475,-.7413 z "/>
<path style="opacity:.2;fill:url(#linearGradient3943)" id="polygon144" d="m 44.7124,64.5408 -6.0137,14.087 7.9908,-13.6749 -1.9771,-.412 z "/>
<path style="opacity:.2;fill:url(#linearGradient3940)" id="polygon151" d="m 47.1014,68.2479 -.4944,12.8511 2.1418,-12.6863 -1.6474,-.1648 z "/>
<path style="opacity:.58;fill:url(#linearGradient3937)" id="path2270" d="m 47.4798,73.4827 c -5.86773,-2.61054 -11.1601,-6.19306 -15.7321,-10.6495 -0.513295,-0.500305 -0.627971,-0.633809 -0.627971,-0.731064 0,-0.102099 0.1464,-0.247522 1.03182,-1.02493 1.80302,-1.58308 2.19971,-2.00562 2.50701,-2.67038 0.313745,-0.678712 0.962051,-1.47879 2.22657,-2.7478 2.79171,-2.80164 7.85947,-6.98846 10.2499,-8.46816 0.415451,-0.257166 0.654212,-0.443052 0.982837,-0.765177 1.04268,-1.02206 2.65765,-3.08729 6.02231,-7.70137 3.58159,-4.91156 4.78728,-6.49909 5.97936,-7.87298 0.720332,-0.830203 1.25003,-1.32303 1.45546,-1.35413 0.08729,-0.01322 0.232268,-0.03663 0.322165,-0.05205 0.08989,-0.0154 0.204778,-0.0083 0.255293,0.01579 0.05052,0.02409 0.124424,0.05415 0.16424,0.06681 0.07632,0.02425 1.52994,1.66902 2.06532,2.33689 0.641285,0.799996 0.699036,1.02276 0.378144,1.45861 -0.119764,0.162669 -0.235116,0.396602 -0.323899,0.65686 -0.152501,0.447046 -0.938179,2.03518 -2.14707,4.34 -0.950458,1.8121 -2.23693,4.37375 -2.63898,5.2548 -0.848727,1.8599 -1.2627,3.14113 -1.15437,3.57274 0.03547,0.141301 0.249835,0.242386 0.825652,0.389326 1.34694,0.34372 2.59216,0.291678 3.75251,-0.156827 0.175516,-0.06784 0.587178,-0.278065 0.914805,-0.467167 1.0002,-0.577297 1.75415,-0.900027 2.69559,-1.15384 0.449745,-0.121253 0.556651,-0.133993 1.15586,-0.137744 0.628667,-0.0039 0.670411,0.0011 0.871916,0.104596 0.182921,0.09397 0.216445,0.131496 0.247072,0.276569 0.06901,0.326869 0.08111,0.537036 0.03367,0.584485 -0.02593,0.02593 -0.04715,0.08962 -0.04715,0.141538 0,0.212955 -0.512145,0.385031 -1.93992,0.651793 -1.49769,0.279822 -1.57,0.309972 -2.61226,1.08916 -2.33308,1.74421 -5.96313,4.90391 -7.25087,6.31136 -0.584199,0.638513 -1.47976,1.87425 -2.68685,3.70744 -2.70829,4.11305 -4.58449,7.66501 -5.08571,9.62808 -0.09959,0.390067 -0.379771,2.15197 -0.63411,3.9876 -0.23475,1.69426 -0.245224,1.74526 -0.357624,1.74143 -0.0496,-0.0016 -0.453993,-0.164923 -0.89863,-0.362738 z "/>
<path style="fill:url(#linearGradient3934)" id="path2476" d="m 31.6103,50.5873 c -0.02607,-0.09332 -0.02084,-0.913231 0.0087,-1.29697 0.02084,-0.27456 0.03818,-0.365288 0.111425,-0.581012 0.226277,-0.666817 0.557117,-1.03801 1.03569,-1.16202 0.178506,-0.04626 0.275368,-0.09368 0.533499,-0.261155 0.530225,-0.34402 1.20696,-0.915175 2.29001,-1.93272 0.29388,-0.276107 1.48611,-1.44876 2.64941,-2.60589 1.16329,-1.15713 2.16737,-2.14175 2.23128,-2.18802 0.06393,-0.04628 0.15804,-0.09521 0.209171,-0.108741 0.373516,-0.09885 1.27684,-0.146762 3.56741,-0.189239 2.15229,-0.03992 3.06886,-0.08138 3.35154,-0.151621 0.29277,-0.07275 0.960821,-0.468367 2.30751,-1.36649 0.973723,-0.649386 3.04605,-2.08227 4.24694,-2.93649 0.32225,-0.229226 0.453349,-0.309788 0.504109,-0.309788 0.03772,0 0.07507,-0.01047 0.08296,-0.02325 0.0079,-0.01279 0.03036,-0.02324 0.04992,-0.02324 0.02924,0 0.03333,0.02373 0.02304,0.133632 -0.0264,0.281948 -0.04306,0.339899 -0.131701,0.458124 -0.241509,0.322106 -0.877638,0.841988 -1.62755,1.33013 -0.192531,0.125322 -0.566427,0.39556 -0.830888,0.60053 -2.66712,2.06715 -4.47904,3.29074 -5.26245,3.55372 -0.155329,0.05215 -0.215441,0.05935 -0.495082,0.05935 -0.539355,0 -1.15885,0.116906 -2.21592,0.418168 -1.55799,0.444023 -2.99114,1.02638 -3.74414,1.52143 -0.65388,0.429882 -1.17927,1.255 -1.70714,2.681 -0.207687,0.56105 -0.452607,1.39035 -0.747655,2.53156 -0.07353,0.284357 -0.140749,0.528482 -0.149422,0.542499 -0.0087,0.01402 -1.40547,0.322885 -3.10402,0.686371 -1.69856,0.363488 -3.10623,0.666401 -3.12817,0.673136 -0.02891,0.0088 -0.04494,-0.0058 -0.05814,-0.05299 z "/>
<path style="opacity:.7;fill:url(#linearGradient3931)" id="path5482" d="m 23.6108,60.932 c -0.03229,-0.0072 -0.096,-0.01344 -0.141534,-0.01391 -0.19968,-0.0021 -0.766462,-0.288338 -1.37626,-0.69519 -0.661451,-0.441316 -1.19308,-0.863195 -1.79579,-1.42504 -0.12133,-0.113103 -0.332727,-0.307777 -0.469778,-0.432608 -0.368029,-0.335229 -0.935836,-0.905688 -1.10274,-1.1079 -0.305117,-0.369633 -0.468447,-0.641683 -0.490898,-0.817675 -0.03415,-0.26758 -0.03295,-0.330659 0.01091,-0.560828 0.0098,-0.05218 0.138883,-0.164427 0.314432,-0.273556 0.32855,-0.204229 1.02752,-0.67828 3.49019,-2.36711 3.74699,-2.56958 5.3256,-3.61427 6.15797,-4.07525 0.210895,-0.116789 0.268986,-0.129819 0.58044,-0.13015 0.298462,-0.000337 0.549611,0.02648 0.728073,0.07768 0.356814,0.102382 0.9084,0.317968 1.39474,0.545144 0.242771,0.113403 0.260193,0.124192 0.260193,0.161084 0,0.03561 -0.0087,0.04189 -0.08433,0.06323 -0.1746,0.04905 -0.640636,0.202491 -1.02287,0.336771 -2.32227,0.815823 -4.64595,1.94099 -6.72373,3.25577 -0.492447,0.311607 -0.549621,0.353494 -0.733549,0.53742 -0.522447,0.522442 -0.992792,1.33878 -1.12392,1.95071 -0.01833,0.08544 -0.02673,0.186915 -0.02684,0.322622 -0.000164,0.216393 0.02575,0.329598 0.107127,0.468391 0.321535,0.548651 1.95382,1.06673 4.06504,1.29022 0.615938,0.0652 0.899629,0.08028 1.52496,0.08105 l .6086,.0007 .1613,-.0557 c 0.431313,-0.148981 1.0215,-0.486138 2.30235,-1.31528 1.1099,-0.718475 1.45247,-0.927779 1.84775,-1.12892 0.370102,-0.188333 0.557094,-0.244293 0.716454,-0.214399 0.06066,0.01138 0.07178,0.04547 0.07255,0.221334 0.00096,0.254307 -0.02684,0.351124 -0.15564,0.542591 -0.37224,0.553194 -1.28831,1.30501 -2.57693,2.11488 -1.08297,0.680619 -2.31637,1.31171 -2.97326,1.5213 -0.06218,0.01984 -0.229037,0.06261 -0.370746,0.09502 -0.757309,0.173208 -1.51371,0.442919 -2.51397,0.896399 -0.141611,0.0642 -0.266607,0.111061 -0.315284,0.118193 -0.14352,0.02102 -0.284563,0.02634 -0.344618,0.01297 z "/>
<path style="fill:url(#linearGradient3928)" id="path6524" d="m 26.2163,56.6732 c -0.01429,-0.0019 -0.198982,-0.007 -0.41052,-0.01143 -0.380858,-0.008 -0.61932,-0.02436 -0.959313,-0.06598 -0.788564,-0.09653 -1.31417,-0.251937 -1.49851,-0.443043 -0.03906,-0.04053 -0.05204,-0.08864 -0.05138,-0.191542 0.000567,-0.134014 0.01309,-0.186281 0.07047,-0.298672 0.242902,-0.476459 0.941695,-1.23094 1.76466,-1.90529 0.180567,-0.147959 0.480022,-0.372712 0.635455,-0.476927 l .1121,-.0752 2.5452,-.3079 2.5452,-.3079 .1685,.0096 c 0.156687,0.0089 0.290781,0.01886 0.632181,0.04673 0.157462,0.01286 0.16968,0.01857 0.15479,0.07221 -0.0055,0.01791 -0.0087,0.04886 -0.0087,0.06877 -6.5e-05,0.05105 -0.08018,0.238665 -0.191782,0.448773 -0.601756,1.13355 -1.81714,2.56133 -2.62572,3.08459 -0.231763,0.149982 -0.394418,0.220932 -0.60337,0.263192 -0.213164,0.04311 -0.48539,0.07046 -0.788062,0.07918 -0.297426,0.0086 -1.44443,0.01683 -1.49084,0.0108 z "/>
<g style="stroke:none;line-height:normal">
<path style="font-family:Abandoned Bitplane;text-transform:none;text-indent:0;text-align:start;color:#000;stroke-width:4.217;fill:#1c5eaa" id="path3966" d="m 48,12 c -19.8591,0 -36,16.1409 -36,36 0,19.8591 16.1409,36 36,36 19.8591,0 36,-16.1409 36,-36 0,-19.8591 -16.1409,-36 -36,-36 z  m 0,2.373 c 18.5756,0 33.627,15.0513 33.627,33.627 0,18.5756 -15.0513,33.627 -33.627,33.627 -18.5757,0 -33.627,-15.0513 -33.627,-33.627 0,-18.5756 15.0513,-33.627 33.627,-33.627 z "/>
<path style="fill:#fff" id="path3819" d="m 85,48 c 0,20.4345 -16.5655,37 -37,37 -20.4345,0 -37,-16.5655 -37,-37 0,-20.4345 16.5655,-37 37,-37 20.4345,0 37,16.5655 37,37 z  m -1,0 c 0,-19.8823 -16.1177,-36 -36,-36 -19.8823,0 -36,16.1177 -36,36 0,19.8823 16.1177,36 36,36 19.8823,0 36,-16.1177 36,-36 z "/>
<path style="font-family:Abandoned Bitplane;text-transform:none;text-indent:0;text-align:start;color:#000;stroke-width:4.217;fill:#00438a" id="path3832" d="m 48,12 c -19.8591,0 -36,16.1409 -36,36 0,0.16846 0.02894,0.332082 0.03125,0.5 0.270631,-19.6272 16.2781,-35.5 35.9688,-35.5 19.6906,0 35.6981,15.8728 35.9688,35.5 0.002315,-0.167918 0.03125,-0.33154 0.03125,-0.5 0,-19.8591 -16.1409,-36 -36,-36 z  m -33.625,36.5 c -0.0025,0.168223 0,0.331186 0,0.5 0,18.5756 15.0493,33.625 33.625,33.625 18.5756,0 33.625,-15.0494 33.625,-33.625 0,-0.168814 0.0025,-0.331777 0,-0.5 -0.27014,18.3424 -15.2182,33.125 -33.625,33.125 -18.4068,0 -33.3549,-14.7826 -33.625,-33.125 z "/>
</g>
</g>
</svg>
