<svg width="96" version="1.0" xmlns="http://www.w3.org/2000/svg" height="96" xmlns:xlink="http://www.w3.org/1999/xlink">
<defs id="defs2410">
<clipPath id="clipPath3613">
<rect width="84" x="6" y="6" rx="6" height="84" ry="6" style="fill:#fff;stroke:none" id="rect3615"/>
</clipPath>
<filter style="color-interpolation-filters:sRGB" id="filter3174">
<feGaussianBlur stdDeviation="1.71" id="feGaussianBlur3176"/>
</filter>
<filter width="1.3839999" x="-0.192" y="-0.192" height="1.3839999" style="color-interpolation-filters:sRGB" id="filter3794-9">
<feGaussianBlur stdDeviation="5.28" id="feGaussianBlur3796-4"/>
</filter>
<linearGradient id="linearGradient3737-6">
<stop offset="0" style="stop-color:#fff" id="stop3739-1"/>
<stop offset="1" style="stop-color:#fff;stop-opacity:0" id="stop3741-5"/>
</linearGradient>
<linearGradient id="linearGradient2862" xlink:href="#linearGradient3737-6" y1="20.220806" x1="48" y2="138.66119" x2="48" gradientUnits="userSpaceOnUse"/>
<linearGradient gradientTransform="matrix(1.0058652,0,0,0.994169,100,0)" id="ButtonShadow-0" y1="92.539597" x1="45.447727" y2="7.0165396" x2="45.447727" gradientUnits="userSpaceOnUse">
<stop offset="0" id="stop3750-8"/>
<stop offset="1" style="stop-opacity:.588" id="stop3752-5"/>
</linearGradient>
<linearGradient gradientTransform="matrix(1.0238095,0,0,1.0119048,-1.1428571,-98.071429)" id="linearGradient3780" xlink:href="#ButtonShadow-0" y1="6.1317081" x1="32.251034" y2="90.238609" x2="32.251034" gradientUnits="userSpaceOnUse"/>
<linearGradient gradientTransform="translate(0,-97)" id="linearGradient3721" xlink:href="#ButtonShadow-0" y1="6.1317081" x1="32.251034" y2="90.238609" x2="32.251034" gradientUnits="userSpaceOnUse"/>
<linearGradient gradientTransform="matrix(1.0238095,0,0,1.0119048,-1.1428571,-98.071429)" id="linearGradient3772" xlink:href="#ButtonShadow-0" y1="6.1317081" x1="32.251034" y2="90.238609" x2="32.251034" gradientUnits="userSpaceOnUse"/>
<linearGradient gradientTransform="matrix(1.0238095,0,0,1.0119048,-1.1428571,-98.071429)" id="linearGradient3725" xlink:href="#ButtonShadow-0" y1="6.1317081" x1="32.251034" y2="90.238609" x2="32.251034" gradientUnits="userSpaceOnUse"/>
<linearGradient gradientTransform="matrix(0.66133595,0,0,0.66133595,-26.270146,-129.43622)" id="linearGradient2892" xlink:href="#linearGradient4001" y1="268.56995" x1="100.5444" y2="246.0843" x2="105.47408" gradientUnits="userSpaceOnUse"/>
<linearGradient gradientTransform="matrix(1.0238095,0,0,1.0119048,-1.1428571,-98.071429)" id="linearGradient3059" xlink:href="#ButtonShadow-0" y1="6.1317081" x1="32.251034" y2="90.238609" x2="32.251034" gradientUnits="userSpaceOnUse"/>
<linearGradient id="linearGradient3700">
<stop offset="0" style="stop-color:#84cf18" id="stop3702"/>
<stop offset="1" style="stop-color:#bff571" id="stop3704"/>
</linearGradient>
<linearGradient gradientTransform="scale(1.0058652,0.994169)" id="ButtonShadow" y1="92.539597" x1="45.447727" y2="7.0165396" x2="45.447727" gradientUnits="userSpaceOnUse">
<stop offset="0" id="stop3750"/>
<stop offset="1" style="stop-opacity:.588" id="stop3752"/>
</linearGradient>
<linearGradient id="linearGradient3737">
<stop offset="0" style="stop-color:#fff" id="stop3739"/>
<stop offset="1" style="stop-color:#fff;stop-opacity:0" id="stop3741"/>
</linearGradient>
<linearGradient id="linearGradient3706" xlink:href="#linearGradient3700" y1="90" x1="48" y2="5.9877172" x2="48" gradientUnits="userSpaceOnUse"/>
<linearGradient gradientTransform="matrix(0.66133595,0,0,0.66133595,-26.270146,-129.43622)" id="linearGradient2890" xlink:href="#linearGradient3593" y1="239.55312" x1="114.70967" y2="306.33884" x2="96.074165" gradientUnits="userSpaceOnUse"/>
<linearGradient id="linearGradient3593">
<stop offset="0" style="stop-color:#0362b2" id="stop3595"/>
<stop offset="1" style="stop-color:#66bbfb" id="stop3597"/>
</linearGradient>
<linearGradient id="linearGradient4001">
<stop offset="0" style="stop-color:#fff" id="stop4003"/>
<stop offset="1" style="stop-color:#c7c7c7" id="stop4005"/>
</linearGradient>
<linearGradient id="linearGradient3188" xlink:href="#linearGradient3737" y1="6" x1="36.357143" y2="63.893143" x2="36.357143" gradientUnits="userSpaceOnUse"/>
<radialGradient fx="48" fy="90.171875" cx="48" cy="90.171875" gradientTransform="matrix(1.1573129,0,0,0.99590774,-7.5510206,0.19713193)" r="42" id="radialGradient3619" xlink:href="#linearGradient3737" gradientUnits="userSpaceOnUse"/>
</defs>
<g style="display:none" id="layer2">
<rect width="86" x="5" y="7" rx="6" height="85" ry="6" style="opacity:.9;fill:url(#ButtonShadow);filter:url(#filter3174);stroke:none" id="rect3745"/>
</g>
<g style="stroke:none" id="layer4">
<path style="opacity:.08;fill:url(#linearGradient3059)" id="path3786" d="m 12,-95.0312 c -5.51109,0 -10.0312,4.52016 -10.0312,10.0312 v 71 c 0,5.51109 4.52016,10.0312 10.0312,10.0312 h 72 c 5.51109,0 10.0312,-4.52016 10.0312,-10.0312 v -71 c 0,-5.51109 -4.52016,-10.0312 -10.0312,-10.0312 h -72 z " transform="scale(1,-1)"/>
<path style="opacity:.1;fill:url(#linearGradient3780)" id="path3778" d="m 12,-94.0312 c -4.97163,0 -9.03125,4.05962 -9.03125,9.03125 v 71 c 0,4.97163 4.05962,9.03125 9.03125,9.03125 h 72 c 4.97163,0 9.03125,-4.05962 9.03125,-9.03125 v -71 c 0,-4.97163 -4.05962,-9.03125 -9.03125,-9.03125 h -72 z " transform="scale(1,-1)"/>
<path style="opacity:.2;fill:url(#linearGradient3772)" id="path3770" d="m 12,-93 c -4.40913,0 -8,3.59087 -8,8 v 71 c 0,4.40913 3.59087,8 8,8 h 72 c 4.40913,0 8,-3.59087 8,-8 v -71 c 0,-4.40913 -3.59087,-8 -8,-8 h -72 z " transform="scale(1,-1)"/>
<rect width="86" x="5" y="-92" rx="7" height="85" ry="7" style="opacity:.3;fill:url(#linearGradient3725)" id="rect3723" transform="scale(1,-1)"/>
<rect width="84" x="6" y="-91" rx="6" height="84" ry="6" style="opacity:.45;fill:url(#linearGradient3721)" id="rect3716" transform="scale(1,-1)"/>
</g>
<g style="stroke:none" id="layer1">
<rect width="84" x="6" y="6" rx="6" height="84" ry="6" style="fill:url(#linearGradient3706)" id="rect2419"/>
<path style="opacity:.5;fill:url(#linearGradient3188)" id="rect3728" d="m 12,6 c -3.324,0 -6,2.676 -6,6 v 2 68 2 c 0,0.334721 0.04135,0.6507 0.09375,0.96875 0.0487,0.295596 0.09704,0.596915 0.1875,0.875 0.00988,0.03038 0.020892,0.0636 0.03125,0.09375 0.098865,0.287771 0.23488,0.547452 0.375,0.8125 0.144592,0.273507 0.315616,0.535615 0.5,0.78125 0.184384,0.245635 0.373776,0.473472 0.59375,0.6875 0.439947,0.428056 0.94291,0.814526 1.5,1.09375 0.278545,0.139612 0.573473,0.246947 0.875,0.34375 -0.256202,-0.100222 -0.486711,-0.236272 -0.71875,-0.375 -0.00741,-0.0044 -0.023866,0.0045 -0.03125,0 -0.031933,-0.0193 -0.062293,-0.04251 -0.09375,-0.0625 -0.120395,-0.0767 -0.231023,-0.163513 -0.34375,-0.25 -0.106173,-0.0808 -0.213281,-0.161112 -0.3125,-0.25 -0.17793,-0.161433 -0.34746,-0.345388 -0.5,-0.53125 -0.107579,-0.130255 -0.218394,-0.265285 -0.3125,-0.40625 -0.025089,-0.03838 -0.038446,-0.08587 -0.0625,-0.125 -0.064763,-0.103032 -0.130228,-0.204517 -0.1875,-0.3125 -0.101008,-0.194706 -0.205675,-0.415701 -0.28125,-0.625 -0.00796,-0.02181 -0.023589,-0.04055 -0.03125,-0.0625 -0.0318251,-0.09195 -0.0358045,-0.186831 -0.0625,-0.28125 -0.0303323,-0.106618 -0.0703894,-0.203031 -0.09375,-0.3125 -0.0728786,-0.341512 -0.125,-0.698205 -0.125,-1.0625 v -2 -68 -2 c 0,-2.78185 2.21815,-5 5,-5 h 2 68 2 c 2.78185,0 5,2.21815 5,5 v 2 68 2 c 0,0.364295 -0.05212,0.720988 -0.125,1.0625 -0.04415,0.206893 -0.08838,0.397658 -0.15625,0.59375 -0.0077,0.02195 -0.0233,0.04069 -0.03125,0.0625 -0.06274,0.173739 -0.138383,0.367449 -0.21875,0.53125 -0.04158,0.0828 -0.07904,0.169954 -0.125,0.25 -0.0546,0.09721 -0.126774,0.18835 -0.1875,0.28125 -0.09411,0.140965 -0.204921,0.275995 -0.3125,0.40625 -0.143174,0.17445 -0.303141,0.346998 -0.46875,0.5 -0.01117,0.0102 -0.01998,0.02115 -0.03125,0.03125 -0.138386,0.125556 -0.285091,0.234436 -0.4375,0.34375 -0.102571,0.07315 -0.204318,0.153364 -0.3125,0.21875 -0.0074,0.0045 -0.02384,-0.0044 -0.03125,0 -0.232039,0.138728 -0.462548,0.274778 -0.71875,0.375 0.301527,-0.0968 0.596455,-0.204138 0.875,-0.34375 0.55709,-0.279224 1.06005,-0.665694 1.5,-1.09375 0.219973,-0.214028 0.409366,-0.441865 0.59375,-0.6875 0.184384,-0.245635 0.355408,-0.507743 0.5,-0.78125 0.14012,-0.265048 0.276135,-0.524729 0.375,-0.8125 0.01041,-0.03078 0.02133,-0.06274 0.03125,-0.09375 0.09046,-0.278085 0.1388,-0.579404 0.1875,-0.875 0.0524,-0.31805 0.09375,-0.634029 0.09375,-0.96875 v -2 -68 -2 c 0,-3.324 -2.676,-6 -6,-6 h -72 z "/>
<path style="opacity:.25;fill:url(#radialGradient3619)" id="path3615" d="M 12,90 C 8.676,90 6,87.324 6,84 L 6,82 6,14 6,12 c 0,-0.334721 0.04135,-0.6507 0.09375,-0.96875 0.0487,-0.295596 0.09704,-0.596915 0.1875,-0.875 C 6.29113,10.12587 6.302142,10.09265 6.3125,10.0625 6.411365,9.774729 6.5473802,9.515048 6.6875,9.25 6.8320918,8.976493 7.0031161,8.714385 7.1875,8.46875 7.3718839,8.223115 7.5612765,7.995278 7.78125,7.78125 8.221197,7.353194 8.72416,6.966724 9.28125,6.6875 9.559795,6.547888 9.8547231,6.440553 10.15625,6.34375 9.9000482,6.443972 9.6695391,6.580022 9.4375,6.71875 c -0.00741,0.0044 -0.023866,-0.0045 -0.03125,0 -0.031933,0.0193 -0.062293,0.04251 -0.09375,0.0625 -0.120395,0.0767 -0.2310226,0.163513 -0.34375,0.25 -0.1061728,0.0808 -0.2132809,0.161112 -0.3125,0.25 C 8.4783201,7.442683 8.3087904,7.626638 8.15625,7.8125 8.0486711,7.942755 7.9378561,8.077785 7.84375,8.21875 7.818661,8.25713 7.805304,8.30462 7.78125,8.34375 7.716487,8.446782 7.6510225,8.548267 7.59375,8.65625 7.4927417,8.850956 7.3880752,9.071951 7.3125,9.28125 7.30454,9.30306 7.288911,9.3218 7.28125,9.34375 7.2494249,9.4357 7.2454455,9.530581 7.21875,9.625 7.1884177,9.731618 7.1483606,9.828031 7.125,9.9375 7.0521214,10.279012 7,10.635705 7,11 l 0,2 0,68 0,2 c 0,2.781848 2.2181517,5 5,5 l 2,0 68,0 2,0 c 2.781848,0 5,-2.218152 5,-5 l 0,-2 0,-68 0,-2 C 89,10.635705 88.94788,10.279012 88.875,9.9375 88.83085,9.730607 88.78662,9.539842 88.71875,9.34375 88.71105,9.3218 88.69545,9.30306 88.6875,9.28125 88.62476,9.107511 88.549117,8.913801 88.46875,8.75 88.42717,8.6672 88.38971,8.580046 88.34375,8.5 88.28915,8.40279 88.216976,8.31165 88.15625,8.21875 88.06214,8.077785 87.951329,7.942755 87.84375,7.8125 87.700576,7.63805 87.540609,7.465502 87.375,7.3125 87.36383,7.3023 87.35502,7.29135 87.34375,7.28125 87.205364,7.155694 87.058659,7.046814 86.90625,6.9375 86.803679,6.86435 86.701932,6.784136 86.59375,6.71875 c -0.0074,-0.0045 -0.02384,0.0044 -0.03125,0 -0.232039,-0.138728 -0.462548,-0.274778 -0.71875,-0.375 0.301527,0.0968 0.596455,0.204138 0.875,0.34375 0.55709,0.279224 1.060053,0.665694 1.5,1.09375 0.219973,0.214028 0.409366,0.441865 0.59375,0.6875 0.184384,0.245635 0.355408,0.507743 0.5,0.78125 0.14012,0.265048 0.276135,0.524729 0.375,0.8125 0.01041,0.03078 0.02133,0.06274 0.03125,0.09375 0.09046,0.278085 0.1388,0.579404 0.1875,0.875 C 89.95865,11.3493 90,11.665279 90,12 l 0,2 0,68 0,2 c 0,3.324 -2.676,6 -6,6 l -72,0 z"/>
<path style="opacity:.25;fill:url(#radialGradient3619)" id="path3762" d="M 12,90 C 8.676,90 6,87.324 6,84 L 6,82 6,14 6,12 c 0,-0.334721 0.04135,-0.6507 0.09375,-0.96875 0.0487,-0.295596 0.09704,-0.596915 0.1875,-0.875 C 6.29113,10.12587 6.302142,10.09265 6.3125,10.0625 6.411365,9.774729 6.5473802,9.515048 6.6875,9.25 6.8320918,8.976493 7.0031161,8.714385 7.1875,8.46875 7.3718839,8.223115 7.5612765,7.995278 7.78125,7.78125 8.221197,7.353194 8.72416,6.966724 9.28125,6.6875 9.559795,6.547888 9.8547231,6.440553 10.15625,6.34375 9.9000482,6.443972 9.6695391,6.580022 9.4375,6.71875 c -0.00741,0.0044 -0.023866,-0.0045 -0.03125,0 -0.031933,0.0193 -0.062293,0.04251 -0.09375,0.0625 -0.120395,0.0767 -0.2310226,0.163513 -0.34375,0.25 -0.1061728,0.0808 -0.2132809,0.161112 -0.3125,0.25 C 8.4783201,7.442683 8.3087904,7.626638 8.15625,7.8125 8.0486711,7.942755 7.9378561,8.077785 7.84375,8.21875 7.818661,8.25713 7.805304,8.30462 7.78125,8.34375 7.716487,8.446782 7.6510225,8.548267 7.59375,8.65625 7.4927417,8.850956 7.3880752,9.071951 7.3125,9.28125 7.30454,9.30306 7.288911,9.3218 7.28125,9.34375 7.2494249,9.4357 7.2454455,9.530581 7.21875,9.625 7.1884177,9.731618 7.1483606,9.828031 7.125,9.9375 7.0521214,10.279012 7,10.635705 7,11 l 0,2 0,68 0,2 c 0,2.781848 2.2181517,5 5,5 l 2,0 68,0 2,0 c 2.781848,0 5,-2.218152 5,-5 l 0,-2 0,-68 0,-2 C 89,10.635705 88.94788,10.279012 88.875,9.9375 88.83085,9.730607 88.78662,9.539842 88.71875,9.34375 88.71105,9.3218 88.69545,9.30306 88.6875,9.28125 88.62476,9.107511 88.549117,8.913801 88.46875,8.75 88.42717,8.6672 88.38971,8.580046 88.34375,8.5 88.28915,8.40279 88.216976,8.31165 88.15625,8.21875 88.06214,8.077785 87.951329,7.942755 87.84375,7.8125 87.700576,7.63805 87.540609,7.465502 87.375,7.3125 87.36383,7.3023 87.35502,7.29135 87.34375,7.28125 87.205364,7.155694 87.058659,7.046814 86.90625,6.9375 86.803679,6.86435 86.701932,6.784136 86.59375,6.71875 c -0.0074,-0.0045 -0.02384,0.0044 -0.03125,0 -0.232039,-0.138728 -0.462548,-0.274778 -0.71875,-0.375 0.301527,0.0968 0.596455,0.204138 0.875,0.34375 0.55709,0.279224 1.060053,0.665694 1.5,1.09375 0.219973,0.214028 0.409366,0.441865 0.59375,0.6875 0.184384,0.245635 0.355408,0.507743 0.5,0.78125 0.14012,0.265048 0.276135,0.524729 0.375,0.8125 0.01041,0.03078 0.02133,0.06274 0.03125,0.09375 0.09046,0.278085 0.1388,0.579404 0.1875,0.875 C 89.95865,11.3493 90,11.665279 90,12 l 0,2 0,68 0,2 c 0,3.324 -2.676,6 -6,6 l -72,0 z"/>
</g>
<g id="layer5">
<rect width="66" x="15" y="15" rx="12" height="66" ry="12" style="opacity:.2;fill:url(#linearGradient2862);filter:url(#filter3794-9);stroke:#fff;stroke-linecap:round;stroke-width:.5;clip-path:url(#clipPath3613)" id="rect3171"/>
</g>
<g id="layer3">
<g style="stroke:none">
<path style="opacity:.05" id="path3717" d="m 58.125,9.75 c -4.90153,-0.073546 -9.6182,3.12626 -10.8838,7.9518 -1.47498,1.56543 1.07634,6.50151 -0.122929,5.90633 -3.71254,-1.86901 -7.94483,-2.3875 -12.0558,-2.35813 1.98049,-5.35064 -3.02029,-10.6049 -8.19822,-11.1281 -3.38656,-0.713221 -7.03945,0.573678 -9.23928,3.06563 -2.73175,3.20322 -2.91145,8.85388 0.857749,11.4155 3.16926,1.5664 -3.09194,3.28701 -3.86482,5.53109 -5.73476,6.21816 -6.95095,16.0001 -2.79608,23.3932 7.49296,14.0377 27.1934,20.0747 41.0532,11.9727 0.813325,2.7271 -1.88101,7.21183 0.209214,10.5704 3.57376,11.2779 19.6219,16.829 28.7955,8.8264 4.18411,-3.98985 6.14255,-10.4218 3.80401,-15.8932 -3.4263,-9.17723 -14.9421,-14.3405 -24.0275,-10.5348 -1.99394,-1.24748 1.49394,-3.76943 1.25,-5.375 3.0449,-7.74311 -0.121522,-16.6262 -5.75,-22.3438 5.47515,1.53286 12.6627,0.0077 15.0312,-5.6875 2.05677,-4.96935 -0.579079,-10.8715 -5.31878,-13.1788 -2.65457,-1.46838 -5.70865,-2.2316 -8.74372,-2.13368 z "/>
<path style="opacity:.1" id="path3711" d="m 58.1562,10.6562 c -3.43015,0.115629 -6.79758,1.41072 -8.59375,4.28125 -0.492514,0.787112 -0.884588,1.59718 -1.1875,2.3125 -0.794554,1.87634 -0.771391,3.92979 -0.125,5.75 0.270627,0.762058 0.751095,1.26161 1.1875,1.78125 l -.5938,.625 c -1.36104,-0.717889 -2.74093,-1.4145 -4.3125,-1.9375 -3.66356,-1.2192 -7.34605,-1.49944 -10.875,-1.34375 0.137195,-0.227816 0.269849,-0.41223 0.40625,-0.6875 1.03184,-2.08227 0.525571,-4.43846 -0.46875,-6.125 -0.973046,-1.65046 -2.60617,-2.91731 -4.59375,-3.6875 -1.9907,-0.771407 -4.09306,-0.926821 -6,-0.59375 -1.77467,0.309969 -3.46757,1.19709 -4.625,2.75 -0.0047,0.0063 -0.0266,-0.0063 -0.03125,0 a 0.86105,0.86105 0 0,0 -0.3125,0.3125 0.86105,0.86105 0 0,0 -0.03125,0.03125 c -0.552302,0.893835 -0.791032,1.73489 -0.9375,2.03125 -0.949192,1.92059 -0.73615,4.14047 0.28125,5.875 0.913546,1.55747 2.45518,2.69477 4.25,3.46875 -5.01135,2.82992 -8.79919,7.30524 -10.4688,12.5938 -3.71364,11.7633 4.75724,24.1139 18.2188,28.5938 8.51,2.83204 17.2239,1.75091 23.7188,-2.28125 l 1.5938,1.5625 c -0.221532,0.410939 -0.458585,0.817315 -0.65625,1.3125 -1.37179,3.43656 -0.839257,7.16434 0.6875,10.375 1.61611,3.39856 4.58375,6.36113 8.46875,8.21875 7.76814,3.71435 17.1279,1.92758 20.625,-4.96875 0.318149,-0.627389 0.795272,-1.29866 1.1875,-2.28125 1.37603,-3.44718 0.886336,-7.31857 -0.65625,-10.5625 -1.61821,-3.40298 -4.59119,-6.33344 -8.46875,-8.1875 -4.90574,-2.3457 -10.1643,-2.33591 -14.4375,-0.40625 l -1.7188,-1.5938 c 0.701512,-1.05168 1.38452,-2.14139 1.84375,-3.4375 0.136768,-0.386004 0.274298,-0.824053 0.40625,-1.28125 0.03594,-0.07104 0.02504,-0.07648 0.03125,-0.09375 0.02585,-0.07192 0.0544,-0.0926 0.0625,-0.125 0.0052,-0.01989 -0.0038,-0.01313 0,-0.03125 0.0038,-0.01812 -0.0025,-0.0149 0,-0.03125 0.0039,-0.01743 0.02466,-0.03625 0.03125,-0.0625 0.05104,-0.140841 0.0893,-0.274245 0.125,-0.375 2.77724,-7.83835 -0.339982,-16.1441 -6.5625,-22.0938 l .625,-.6562 c 2.67541,0.772531 5.56317,1.00486 8.1875,0.40625 2.94218,-0.671113 5.67321,-2.352 6.84375,-5.1875 0.0056,-0.01353 0.02574,-0.01767 0.03125,-0.03125 h -0.03125 c 1.28339,-3.11829 0.69097,-6.03464 -0.53125,-8.125 -1.28638,-2.2001 -3.51513,-3.92812 -6.28125,-5 -2.07664,-0.804713 -4.25176,-1.16322 -6.3125,-1.09375 z "/>
<path style="opacity:.15" id="path3707" d="m 58.1875,11.5312 c -3.23364,0.109005 -6.30855,1.32165 -7.90625,3.875 -0.461141,0.736973 -0.83588,1.50475 -1.125,2.1875 -0.702965,1.66005 -0.67545,3.48696 -0.09375,5.125 0.293501,0.826467 0.89736,1.47859 1.46875,2.15625 l -1.4688,1.5625 c -1.50978,-0.824519 -3.0789,-1.57932 -4.8125,-2.15625 -4.11446,-1.36925 -8.26619,-1.68048 -12.1875,-1.3125 0.04956,-0.06883 0.110119,-0.113774 0.15625,-0.1875 a 0.900976,0.900976 0 0,0 0.03125,0 c 0.353622,-0.570928 0.703294,-1.05691 1.03125,-1.71875 0.860039,-1.73556 0.438743,-3.82624 -0.4375,-5.3125 -0.85642,-1.45264 -2.3156,-2.59924 -4.15625,-3.3125 -1.84001,-0.713014 -3.77906,-0.868541 -5.53125,-0.5625 -1.75577,0.306666 -3.43277,1.13175 -4.40625,2.6875 a 0.900976,0.900976 0 0,0 -0.03125,0 c -0.471021,0.762291 -0.64433,1.50202 -0.875,1.96875 -0.807896,1.63469 -0.630231,3.56183 0.25,5.0625 0.861509,1.46876 2.35024,2.60055 4.1875,3.3125 0.513105,0.198831 0.996387,0.21725 1.5,0.3125 -5.7532,2.58103 -10.0444,7.4254 -11.8438,13.125 -3.54745,11.2369 4.57092,23.1662 17.6875,27.5312 8.53375,2.83995 17.2902,1.67903 23.5938,-2.5 l 2.5,2.4062 c -0.308977,0.586795 -0.648968,1.16796 -0.90625,1.8125 -1.26409,3.16676 -0.792621,6.64063 0.65625,9.6875 1.52352,3.20385 4.34554,6.03523 8.0625,7.8125 7.43184,3.55355 16.2275,1.82918 19.4688,-4.5625 0.355334,-0.700717 0.804646,-1.33793 1.15625,-2.21875 1.26699,-3.17404 0.83269,-6.8096 -0.625,-9.875 -1.52456,-3.20604 -4.34943,-6.00584 -8.0625,-7.78125 -4.90244,-2.34412 -10.17,-2.2591 -14.2812,-0.1875 l -2.5938,-2.4375 c 0.836259,-1.20318 1.61748,-2.4426 2.125,-3.875 0.163196,-0.460592 0.337746,-0.935732 0.46875,-1.4375 0.0026,-0.0099 -0.0026,-0.02134 0,-0.03125 -0.03193,0.130005 -0.01425,0.08762 0.03125,-0.09375 0.0592,-0.161317 0.113151,-0.315867 0.15625,-0.4375 2.74165,-7.73791 -0.429278,-16.043 -6.90625,-21.8438 l 1.4688,-1.5625 c 2.69616,0.876964 5.6806,1.10034 8.3125,0.5 2.77063,-0.631984 5.22315,-2.15803 6.25,-4.6875 1.19168,-2.86991 0.619815,-5.45978 -0.5,-7.375 -1.16593,-1.99409 -3.22291,-3.60941 -5.84375,-4.625 -1.9669,-0.762186 -4.02723,-1.0967 -5.96875,-1.03125 z "/>
<path style="opacity:.3" id="path3596-8" d="m 58.2131,12.4486 c -3.02955,0.102125 -5.80276,1.22618 -7.18598,3.43678 -0.418558,0.668919 -0.741179,1.3735 -1.02358,2.04039 -0.609917,1.44032 -0.613725,3.03579 -0.101187,4.47907 0.333427,0.938895 0.965232,1.79742 1.74963,2.58279 l -2.3745,2.5411 c -1.64239,-0.941181 -3.40443,-1.76072 -5.31137,-2.39533 -4.34484,-1.44592 -8.74343,-1.80116 -12.8306,-1.27057 l -.3957,-.729 c 0.283152,-0.240357 0.528948,-0.513419 0.72901,-0.833159 0.371351,-0.599552 0.704373,-1.05836 0.993833,-1.64251 0.659261,-1.33039 0.347809,-3.18843 -0.389793,-4.43954 -0.737601,-1.2511 -2.02403,-2.28451 -3.70755,-2.93688 -1.6835,-0.652363 -3.47948,-0.817861 -5.06143,-0.541553 -1.58196,0.276308 -3.01335,1.01531 -3.8117,2.29118 -0.372067,0.602146 -0.552041,1.31743 -0.845056,1.91031 -0.658468,1.33234 -0.495651,2.91582 0.24102,4.17174 0.736669,1.25592 2.02226,2.30465 3.70755,2.95771 0.914734,0.354464 1.86246,0.468274 2.79108,0.541552 l .3333,.6249 c -6.35403,2.20035 -11.0371,7.38606 -12.9288,13.3781 -3.37258,10.683 4.35681,22.18 17.1154,26.426 8.57505,2.85369 17.3835,1.57661 23.4534,-2.77025 l 3.4576,3.3118 c -0.0026,0.0051 0.0026,0.01542 0,0.02077 -0.387646,0.764436 -0.863726,1.56565 -1.1698,2.33242 -1.15157,2.88486 -0.738929,6.1026 0.628255,8.97769 1.42663,3.00009 4.08217,5.65937 7.62339,7.35261 7.08169,3.38612 15.3187,1.71004 18.2878,-4.14496 0.387646,-0.764436 0.821647,-1.39733 1.12772,-2.1641 1.15157,-2.88487 0.781017,-6.27092 -0.586175,-9.14601 -1.42662,-3.00009 -4.08217,-5.65937 -7.6234,-7.35261 -4.90829,-2.34692 -10.2501,-2.18657 -14.1428,0.04162 l -3.4784,-3.2909 c 0.996797,-1.31343 1.82921,-2.75548 2.39532,-4.35325 0.164687,-0.464799 0.316337,-0.926263 0.437413,-1.39553 0.0069,-0.02809 0.0137,-0.05515 0.02077,-0.08333 0.06963,-0.175021 0.144936,-0.341949 0.208283,-0.520727 2.70196,-7.6259 -0.548496,-15.9539 -7.31096,-21.5788 l 2.4162,-2.562 c 0.05722,0.02267 0.109692,0.06126 0.166627,0.08331 5.27095,1.88558 12.0618,0.791546 13.8334,-3.57239 1.08473,-2.61236 0.577242,-4.83085 -0.440366,-6.57126 -1.04113,-1.78063 -2.90908,-3.29398 -5.37387,-4.2491 -1.8495,-0.716695 -3.80751,-1.01936 -5.62381,-0.958131 v -3.3e-05 z "/>
<g id="g2877" transform="matrix(1.0078478,0,0,1.0078478,-1.521576,-2.4647991)">
<path style="fill:#024c88" id="path3596" d="m 59.2695,13.805 c -3.00596,0.10133 -5.75757,1.21663 -7.13003,3.41001 -0.415299,0.66371 -0.735407,1.36281 -1.01561,2.0245 -0.605168,1.42911 -0.608947,3.01215 -0.100399,4.44419 0.33083,0.931584 0.957716,1.78342 1.73601,2.56268 l -2.356,2.5213 c -1.6296,-0.933852 -3.37792,-1.747 -5.27001,-2.37668 -4.31101,-1.43466 -8.67534,-1.78714 -12.7307,-1.26067 l -.3927,-.7233 c 0.280947,-0.238485 0.524829,-0.509421 0.723333,-0.826671 0.36846,-0.594884 0.698889,-1.05011 0.986095,-1.62972 0.654127,-1.32003 0.3451,-3.16361 -0.386758,-4.40497 -0.731858,-1.24136 -2.00827,-2.26672 -3.67868,-2.91401 -1.67039,-0.647283 -3.45238,-0.811492 -5.02202,-0.537336 -1.56964,0.274157 -2.98989,1.00741 -3.78202,2.27334 -0.36917,0.597457 -0.547743,1.30717 -0.838476,1.89543 -0.653341,1.32196 -0.491792,2.89311 0.239143,4.13926 0.730933,1.24614 2.00652,2.28671 3.67868,2.93468 0.907611,0.351704 1.84796,0.464627 2.76935,0.537335 l .3307,.62 c -6.30456,2.18322 -10.9512,7.32855 -12.8281,13.274 -3.34631,10.5998 4.32289,22.0073 16.9822,26.2202 8.50828,2.83147 17.2481,1.56434 23.2708,-2.74868 l 3.4307,3.286 c -0.0026,0.0051 0.0026,0.0153 0,0.02061 -0.384628,0.758484 -0.857001,1.55346 -1.16069,2.31426 -1.1426,2.8624 -0.733175,6.05508 0.623363,8.90778 1.41552,2.97673 4.05038,5.6153 7.56403,7.29536 7.02654,3.35975 15.1995,1.69672 18.1454,-4.11268 0.384628,-0.758484 0.815249,-1.38645 1.11894,-2.14725 1.1426,-2.86241 0.774935,-6.22209 -0.581611,-9.0748 -1.41551,-2.97673 -4.05038,-5.6153 -7.56404,-7.29536 -4.87007,-2.32864 -10.1703,-2.16954 -14.0327,0.0413 l -3.4513,-3.2653 c 0.989035,-1.3032 1.81496,-2.73402 2.37667,-4.31935 0.163405,-0.46118 0.313874,-0.919051 0.434007,-1.38467 0.0068,-0.02787 0.01359,-0.05472 0.02061,-0.08268 0.06909,-0.173658 0.143808,-0.339286 0.206662,-0.516672 2.68092,-7.56652 -0.544225,-15.8297 -7.25403,-21.4108 l 2.3974,-2.542 c 0.05677,0.02249 0.108837,0.06078 0.165329,0.08266 5.2299,1.8709 11.9679,0.785382 13.7257,-3.54458 1.07628,-2.59202 0.572745,-4.79324 -0.436939,-6.5201 -1.03302,-1.76677 -2.88643,-3.26834 -5.33202,-4.21602 -1.8351,-0.711115 -3.77787,-1.01142 -5.58002,-0.950671 v -3.2e-05 z "/>
<path style="fill:url(#linearGradient2890)" id="path3650" d="m 59.3109,14.7557 c -2.78882,0.09401 -5.22905,1.13936 -6.36536,2.95535 -1.43954,2.30058 -0.3441,5.14304 2.43867,7.10936 l -4.7947,5.1254 c -1.7563,-1.06685 -3.66546,-1.97384 -5.74535,-2.66601 -4.40793,-1.46692 -8.89112,-1.79502 -12.9787,-1.15734 l -1.7773,-3.3273 c 1.09037,-0.309929 1.99675,-0.889311 2.50068,-1.69467 1.20185,-1.92073 -0.27032,-4.41143 -3.28601,-5.58002 -3.01569,-1.16859 -6.44485,-0.577392 -7.6467,1.34334 -1.20185,1.92073 0.270321,4.4321 3.28601,5.60069 0.998244,0.386829 2.04642,0.585269 3.03801,0.599336 l 1.8393,3.4513 c -6.35675,1.55196 -11.5045,5.54832 -13.5367,11.284 -3.50722,9.89859 3.58585,21.2349 15.8514,25.3168 8.54693,2.84433 17.3479,1.41742 23.0848,-3.05868 l 5.0634,4.8153 c -0.60958,0.626185 -1.14645,1.3122 -1.55001,2.10801 -2.65451,5.23466 0.593334,12.0672 7.25403,15.2521 6.6607,3.18482 14.2302,1.53531 16.8847,-3.69935 2.65452,-5.23466 -0.593325,-12.0672 -7.25403,-15.2521 -4.8823,-2.33448 -10.2453,-2.06193 -13.8054,0.310002 l -5.1047,-4.836 c 1.77074,-1.7268 3.14841,-3.78715 3.98868,-6.15869 2.71543,-7.66389 -0.935407,-16.2028 -8.41137,-21.5554 l 4.8774,-5.1874 c 0.240837,0.111336 0.488156,0.21086 0.744,0.310001 4.56199,1.76779 9.73461,0.859578 11.5527,-2.04601 1.81811,-2.90559 -0.398027,-6.70557 -4.96001,-8.47337 -1.71074,-0.662923 -3.51406,-0.945075 -5.18736,-0.88867 z "/>
<path style="fill:#024c88;font-family:Lohit Hindi;text-align:start;line-height:125%;font-weight:bold;font-size:48px" id="path4016" d="m 94.9375,243.8125 c -2.03459,0.0427 -4.0439,0.16751 -6.0625,0.375 a 1.79281,1.79281 0 0,0 -1.4375,1 l -2.4375,5.0938 a 1.79281,1.79281 0 0,0 2.09375,2.5 c 1.57245,-0.43144 3.22673,-0.70738 4.9375,-0.84375 1.74377,-0.13901 3.56623,-0.14476 5.53125,0.0312 2.49136,0.2232 4.18551,0.7225 4.84375,1.125 a 1.79281,1.79281 0 0,0 0.0312,0 c 0.0503,0.03 0.024,0.036 0.0625,0.0625 l -4.25,-.4688 c -5.54437,-0.62518 -9.80706,-0.4465 -13.1562,0.71875 -3.33088,1.16807 -5.93399,3.52321 -7.625,6.875 -1.48896,2.95131 -1.7733,6.07664 -0.4375,8.8125 a 1.79281,1.79281 0 0,0 0.03125,0.0312 c 1.45019,2.88118 4.34853,4.7953 8.21875,5.6875 2.92523,0.67435 5.77142,0.77751 8.40625,0.1875 1.20438,-0.27974 2.37195,-0.75683 3.53125,-1.3125 l -.25,.8438 a 1.79281,1.79281 0 0,0 1.3125,2.25 l 13.875,3.125 a 1.79281,1.79281 0 0,0 2.1875,-1.46875 l 3.2813,-19.6874 c 0.80369,-4.84067 -0.38716,-8.81779 -3.46875,-11.1875 -2.87162,-2.24445 -7.17491,-3.25949 -12.9062,-3.625 -2.08141,-0.13266 -4.19879,-0.17898 -6.28125,-0.125 -0.01036,0.00027 -0.02089,-0.00027 -0.03125,0 z  m -.7812,17.3125 c 0.741323,-0.0297 1.65457,0.0415 2.6875,0.1875 l 3.5625,.5 c -0.489477,1.03355 -1.20281,1.93022 -2.40625,2.625 -0.0078,0.005 -0.0234,-0.005 -0.03125,0 -1.58312,0.88763 -3.13692,1.16903 -4.875,0.84375 -1.39496,-0.26107 -2.09766,-0.72172 -2.375,-1.0625 -0.246129,-0.3413 -0.318696,-0.46673 0,-1.25 0.319759,-0.78593 0.741784,-1.2185 1.625,-1.53125 0.0082,-0.003 0.02299,0.003 0.03125,0 0.485281,-0.16242 1.06233,-0.28366 1.78125,-0.3125 z " transform="matrix(0.66133595,0,0,0.66133595,-26.270146,-129.43622)"/>
<g style="fill:#fff">
<path style="opacity:0" id="path3601" d="m 59.3109,14.7557 c -2.78882,0.09401 -5.22905,1.13936 -6.36536,2.95535 -0.556268,0.888987 -0.730541,1.86235 -0.57867,2.83134 0.08645,-0.518276 0.276082,-1.0251 0.57867,-1.50867 1.13631,-1.81599 3.57653,-2.86134 6.36536,-2.95535 1.67329,-0.05641 3.47661,0.225747 5.18736,0.888671 3.13636,1.21536 5.16852,3.3946 5.53868,5.58002 0.39441,-2.58768 -1.76359,-5.43982 -5.53868,-6.90269 -1.71074,-0.662923 -3.51406,-0.945075 -5.18736,-0.88867 z  m -33.4388,.1653 c -1.84652,0.05674 -3.46486,0.742218 -4.21602,1.94267 -0.403673,0.645127 -0.487484,1.36155 -0.330668,2.06668 0.06888,-0.254774 0.180439,-0.503912 0.330668,-0.744003 1.20185,-1.92073 4.63101,-2.51193 7.6467,-1.34334 1.9838,0.76873 3.29057,2.11832 3.61669,3.49268 0.466199,-1.77477 -0.987634,-3.79659 -3.61669,-4.81535 -1.13089,-0.438221 -2.32276,-0.633368 -3.43068,-0.599336 z  m 4.8153,8.9694 c -0.193733,0.07879 -0.390571,0.167993 -0.599336,0.227334 l 1.7773,3.3273 c 4.0876,-0.63768 8.57079,-0.309578 12.9787,1.15734 2.0799,0.692175 3.98905,1.59916 5.74535,2.66601 l 4.7947,-5.1254 c -0.250679,-0.177131 -0.479991,-0.367689 -0.702668,-0.558002 l -4.092,4.3607 c -1.7563,-1.06685 -3.66546,-1.97384 -5.74535,-2.66601 -4.40793,-1.46692 -8.89112,-1.79502 -12.9787,-1.15734 l -1.178,-2.232 z  m -1.488,2.79 c -6.06848,1.65578 -10.9514,5.57182 -12.9167,11.1187 -0.679111,1.91669 -0.944371,3.88729 -0.868003,5.84868 0.06709,-1.52135 0.341508,-3.04006 0.868003,-4.52601 2.03225,-5.73573 7.17997,-9.73209 13.5367,-11.284 l -.62,-1.1573 z  m 23.8081,4.9187 -.7233,.7647 c 5.56132,3.98176 8.9976,9.72568 9.27937,15.5621 0.207525,-6.01927 -3.02248,-12.0637 -8.55603,-16.3267 z  m 4.3607,27.7968 c -0.214861,0.233604 -0.4331,0.459436 -0.661335,0.682001 l 5.1047,4.836 c 3.5601,-2.37194 8.92309,-2.64449 13.8054,-0.310001 4.84329,2.31583 7.86557,6.5696 8.14271,10.726 0.361491,-4.55574 -2.77978,-9.48443 -8.14271,-12.0487 -4.8823,-2.33448 -10.2453,-2.06193 -13.8054,0.310002 l -4.4433,-4.1953 z  m 2.2733,6.2 c -0.343612,0.425568 -0.65588,0.884858 -0.909337,1.38467 -0.7243,1.42831 -0.992661,2.96634 -0.888672,4.52602 0.08749,-1.10246 0.371461,-2.18342 0.888672,-3.20335 0.403559,-0.795807 0.940426,-1.48183 1.55001,-2.108 l -.6407,-.5993 z "/>
<path style="opacity:.2" id="path3607" d="m 21.3254,17.6284 c -0.466202,1.7788 0.987633,3.81725 3.61668,4.83602 0.998244,0.386829 2.04642,0.585269 3.03801,0.599336 l 1.2193,2.294 c 0.206594,-0.05635 0.410716,-0.114239 0.620003,-0.165334 l -1.8393,-3.4513 c -0.991592,-0.01408 -2.03977,-0.212507 -3.03801,-0.599336 -1.99329,-0.772413 -3.29853,-2.12597 -3.61668,-3.51335 z  m 11.594,1.4053 c -0.06892,0.254205 -0.180438,0.503912 -0.330676,0.744003 -0.503932,0.805362 -1.41031,1.38474 -2.50068,1.69467 l .5993,1.0953 c 0.818166,-0.332725 1.4939,-0.816175 1.90134,-1.46734 0.407466,-0.651178 0.493859,-1.35821 0.330676,-2.06668 z  m 19.4474,.186 c -0.287804,1.72533 0.585032,3.56441 2.31467,5.04269 l .7027,-.7647 c -1.70744,-1.2065 -2.77619,-2.73939 -3.01734,-4.27802 z  m 17.6701,2.0047 c -0.08217,0.539379 -0.26507,1.06949 -0.578671,1.57067 -1.8181,2.90559 -6.99072,3.8138 -11.5527,2.04601 -0.255844,-0.09914 -0.503163,-0.198666 -0.744,-0.310002 l -4.8774,5.1874 c 0.249439,0.178587 0.482513,0.372471 0.723342,0.558002 l 4.154,-4.4227 c 0.240837,0.111336 0.488156,0.21086 0.744,0.310001 4.56199,1.76779 9.73461,0.859578 11.5527,-2.04601 0.568162,-0.907994 0.746933,-1.89997 0.578671,-2.89335 z  m -54.6222,21.1008 c -0.379859,8.61303 6.29513,17.3217 16.7194,20.7908 8.54693,2.84433 17.3479,1.41742 23.0848,-3.05868 l 4.4227,4.216 c 0.203498,-0.25203 0.41394,-0.490422 0.640669,-0.723334 l -5.0634,-4.8153 c -5.73686,4.47609 -14.5378,5.90301 -23.0848,3.05868 -9.89054,-3.29148 -16.4014,-11.3 -16.7194,-19.4681 z  m 46.1488,4.278 c -0.05412,1.57021 -0.324948,3.13799 -0.868006,4.67069 -0.840268,2.37154 -2.21793,4.43189 -3.98868,6.15869 l .6613,.6407 c 1.45216,-1.57881 2.59538,-3.41083 3.32734,-5.47669 0.695434,-1.96278 0.965018,-3.98402 0.868006,-5.99336 z  m -3.72,23.5808 c -0.361491,4.55575 2.77978,9.48443 8.1427,12.0487 6.6607,3.18482 14.2302,1.53531 16.8847,-3.69935 0.7243,-1.42831 0.99267,-2.96634 0.888672,-4.52601 -0.08748,1.10245 -0.371461,2.18341 -0.888672,3.20334 -2.65451,5.23466 -10.224,6.88417 -16.8847,3.69935 -4.84328,-2.31583 -7.86556,-6.56961 -8.1427,-10.726 z "/>
</g>
<g style="font-size:48px;line-height:125%;text-align:start;font-family:Lohit Hindi">
<path style="fill:url(#linearGradient2892);font-weight:bold" id="path3999" d="m 37.9378,42.2056 c -1.47127,-0.208004 -2.63419,-0.160097 -3.51512,0.139747 -0.867637,0.301502 -1.46387,0.851854 -1.79467,1.66494 -0.310762,0.763768 -0.269883,1.42739 0.13442,1.98801 0.431536,0.563981 1.19711,0.953047 2.30492,1.16038 1.41133,0.264129 2.77153,0.03591 4.04768,-0.685413 1.27004,-0.728104 2.08817,-1.74649 2.45202,-3.02477 0,0 0.199676,-0.701538 0.199676,-0.701538 0,0 -3.82894,-0.541357 -3.82894,-0.541357 m 12.4018,-.6982 c 0,0 -2.16147,13.0178 -2.16147,13.0178 0,0 -9.17638,-2.06363 -9.17638,-2.06363 0,0 0.991147,-3.48229 0.991147,-3.48229 -1.4954,1.16206 -3.03194,1.93174 -4.58248,2.29189 -1.53627,0.344015 -3.22149,0.302913 -5.01957,-0.111599 -2.33754,-0.538868 -3.87455,-1.60331 -4.64885,-3.14164 -0.714133,-1.46262 -0.604646,-3.05991 0.267096,-4.78782 1.00586,-1.99374 2.45246,-3.28749 4.38337,-3.96462 1.94484,-0.67664 4.62572,-0.822791 8.1968,-0.420121 0,0 4.15467,0.46849 4.15467,0.46849 0,0 0.121432,-0.426611 0.121432,-0.426611 0.241052,-0.846997 -0.02941,-1.49441 -0.792121,-1.94949 -0.740716,-0.452929 -1.98945,-0.754448 -3.72247,-0.909707 -1.36787,-0.122525 -2.6541,-0.133821 -3.86989,-0.0369 -1.20012,0.09566 -2.35401,0.296569 -3.46994,0.602757 0,0 1.60905,-3.36036 1.60905,-3.36036 1.31384,-0.135044 2.62743,-0.216627 3.94457,-0.243675 1.34417,-0.03551 2.69008,-0.01111 4.04186,0.07505 3.67733,0.234516 6.34249,0.937491 7.89836,2.15356 1.67411,1.28737 2.32377,3.34388 1.83481,6.28894"/>
<path style="fill:#fff;font-weight:bold" id="path4018" d="m 36.3501,34.5958 c -0.644516,-0.006 -1.25211,0.03419 -1.86001,0.08266 -0.94489,0.07532 -1.85706,0.228182 -2.74868,0.434002 l -.7233,1.488 c 1.11594,-0.306188 2.2719,-0.503675 3.47202,-0.599337 1.21579,-0.09692 2.49681,-0.101859 3.86468,0.02063 1.73302,0.155265 2.9793,0.456408 3.72002,0.909337 0.364338,0.217384 0.606407,0.479366 0.743999,0.785332 l .0413,-.1447 c 0.241051,-0.846989 -0.02266,-1.50827 -0.785332,-1.96334 -0.740717,-0.452929 -1.987,-0.754074 -3.72002,-0.909337 -0.683934,-0.06124 -1.36015,-0.09731 -2.00467,-0.103333 z  m 14.1154,4.5467 c -0.02591,0.334532 -0.06413,0.672331 -0.124006,1.03334 l -2.17,13.0201 -8.8247,-1.984 -.3513,1.24 9.176,2.0667 2.17,-13.0201 c 0.144458,-0.870075 0.175368,-1.63796 0.124006,-2.35601 z  m -14.5081,1.612 c -0.58475,0.02351 -1.08888,0.118747 -1.52934,0.268669 -0.867637,0.301494 -1.4672,0.860917 -1.798,1.674 -0.243181,0.59767 -0.275792,1.11768 -0.08268,1.59134 0.02787,-0.09233 0.04386,-0.173195 0.08268,-0.26866 0.330804,-0.813087 0.930363,-1.37252 1.798,-1.67401 0.880925,-0.299852 2.04208,-0.352676 3.51335,-0.144663 l 3.4307,.4753 c 0.07439,-0.178856 0.131778,-0.367502 0.185996,-0.558004 l .2067,-.7027 -3.8233,-.5373 c -0.735604,-0.103955 -1.39922,-0.147408 -1.98398,-0.123954 z  m -10.6434,4.588 c -0.124911,0.933364 0.0218,1.82162 0.434007,2.66601 0.774285,1.53833 2.31248,2.60248 4.65001,3.14135 1.7981,0.414512 3.48576,0.46802 5.02203,0.124006 1.38411,-0.321485 2.74952,-0.980716 4.09202,-1.94267 l .4753,-1.674 c -1.4954,1.16205 -3.01681,1.93387 -4.56735,2.29402 -1.53627,0.344015 -3.22393,0.290506 -5.02203,-0.124006 -2.33753,-0.538868 -3.87573,-1.60302 -4.65001,-3.14135 -0.213792,-0.437872 -0.366194,-0.881438 -0.434007,-1.34334 z "/>
</g>
</g>
</g>
</g>
</svg>
