<svg width="96" version="1.0" xmlns="http://www.w3.org/2000/svg" height="96" xmlns:xlink="http://www.w3.org/1999/xlink">
<defs id="defs2410">
<clipPath id="clipPath3613">
<rect width="84" x="6" y="6" rx="6" height="84" ry="6" style="fill:#fff;stroke:none" id="rect3615"/>
</clipPath>
<filter style="color-interpolation-filters:sRGB" id="filter3174">
<feGaussianBlur stdDeviation="1.71" id="feGaussianBlur3176"/>
</filter>
<filter width="1.3839999" x="-0.192" y="-0.192" height="1.3839999" style="color-interpolation-filters:sRGB" id="filter3794">
<feGaussianBlur stdDeviation="5.28" id="feGaussianBlur3796"/>
</filter>
<linearGradient gradientTransform="matrix(1.0058652,0,0,0.994169,100,0)" id="ButtonShadow-0" y1="92.539597" x1="45.447727" y2="7.0165396" x2="45.447727" gradientUnits="userSpaceOnUse">
<stop offset="0" id="stop3750-8"/>
<stop offset="1" style="stop-opacity:.588" id="stop3752-5"/>
</linearGradient>
<linearGradient gradientTransform="matrix(1.0238095,0,0,1.0119048,-1.1428571,-98.071429)" id="linearGradient3772" xlink:href="#ButtonShadow-0" y1="6.1317081" x1="32.251034" y2="90.238609" x2="32.251034" gradientUnits="userSpaceOnUse"/>
<linearGradient gradientTransform="matrix(1.0238095,0,0,1.0119048,-1.1428571,-98.071429)" id="linearGradient3780" xlink:href="#ButtonShadow-0" y1="6.1317081" x1="32.251034" y2="90.238609" x2="32.251034" gradientUnits="userSpaceOnUse"/>
<linearGradient gradientTransform="matrix(1.0238095,0,0,1.0119048,-1.1428571,-98.071429)" id="linearGradient3725" xlink:href="#ButtonShadow-0" y1="6.1317081" x1="32.251034" y2="90.238609" x2="32.251034" gradientUnits="userSpaceOnUse"/>
<linearGradient id="linearGradient3863" xlink:href="#linearGradient3795" y1="48" x1="16" y2="48" x2="80" gradientUnits="userSpaceOnUse"/>
<linearGradient id="linearGradient3617" xlink:href="#linearGradient3789" y1="90" x1="48" y2="5.9877172" x2="48" gradientUnits="userSpaceOnUse"/>
<linearGradient gradientTransform="matrix(1.0035883,0,0,0.98468749,-0.22247342,0.50531262)" id="linearGradient3836" xlink:href="#linearGradient3838" y1="69.964287" x1="49.714287" y2="34.946777" x2="49.714287" gradientUnits="userSpaceOnUse"/>
<linearGradient gradientTransform="matrix(1.0238095,0,0,1.0119048,-1.1428571,-98.071429)" id="linearGradient3026" xlink:href="#ButtonShadow-0" y1="6.1317081" x1="32.251034" y2="90.238609" x2="32.251034" gradientUnits="userSpaceOnUse"/>
<linearGradient gradientTransform="translate(0,-97)" id="linearGradient3721" xlink:href="#ButtonShadow-0" y1="6.1317081" x1="32.251034" y2="90.238609" x2="32.251034" gradientUnits="userSpaceOnUse"/>
<linearGradient gradientTransform="matrix(0,-1.030303,1.030303,0,-1.4545454,97.454545)" id="linearGradient3814" xlink:href="#linearGradient3808" y1="48" x1="15" y2="47.82143" x2="108.85714" gradientUnits="userSpaceOnUse"/>
<linearGradient id="linearGradient3838">
<stop offset="0" style="stop-color:#737373" id="stop3840"/>
<stop offset="1" style="stop-color:#cecece" id="stop3842"/>
</linearGradient>
<linearGradient gradientTransform="scale(1.0058652,0.994169)" id="ButtonShadow" y1="92.539597" x1="45.447727" y2="7.0165396" x2="45.447727" gradientUnits="userSpaceOnUse">
<stop offset="0" id="stop3750"/>
<stop offset="1" style="stop-opacity:.588" id="stop3752"/>
</linearGradient>
<linearGradient id="linearGradient3789">
<stop offset="0" style="stop-color:#656565" id="stop3791"/>
<stop offset="1" style="stop-color:#c1c1c1" id="stop3793"/>
</linearGradient>
<linearGradient id="linearGradient3808">
<stop offset="0" style="stop-color:#fff" id="stop3810"/>
<stop offset="1" style="stop-color:#fff;stop-opacity:0" id="stop3812"/>
</linearGradient>
<linearGradient id="linearGradient3795">
<stop offset="0" style="stop-color:#050505" id="stop3797"/>
<stop offset="1" style="stop-color:#191919" id="stop3799"/>
</linearGradient>
<linearGradient id="linearGradient3726">
<stop offset="0" style="stop-color:#fff" id="stop3728"/>
<stop offset="1" style="stop-color:#fff;stop-opacity:0" id="stop3730"/>
</linearGradient>
<linearGradient id="linearGradient3878" xlink:href="#linearGradient3726" y1="63.175663" x1="50.59584" y2="12.880043" x2="50.59584" gradientUnits="userSpaceOnUse"/>
<linearGradient id="linearGradient3613" xlink:href="#linearGradient3737" y1="20.220806" x1="48" y2="138.66119" x2="48" gradientUnits="userSpaceOnUse"/>
<linearGradient id="linearGradient3188" xlink:href="#linearGradient3737" y1="6" x1="36.357143" y2="63.893143" x2="36.357143" gradientUnits="userSpaceOnUse"/>
<linearGradient id="linearGradient3737">
<stop offset="0" style="stop-color:#fff" id="stop3739"/>
<stop offset="1" style="stop-color:#fff;stop-opacity:0" id="stop3741"/>
</linearGradient>
<radialGradient fx="48" fy="90.171875" cx="48" cy="90.171875" gradientTransform="matrix(1.1573129,0,0,0.99590774,-7.5510206,0.19713193)" r="42" id="radialGradient3619" xlink:href="#linearGradient3737" gradientUnits="userSpaceOnUse"/>
</defs>
<g style="display:none" id="layer2">
<rect width="86" x="5" y="7" rx="6" height="85" ry="6" style="opacity:.9;fill:url(#ButtonShadow);filter:url(#filter3174);stroke:none" id="rect3745"/>
</g>
<g style="stroke:none" id="layer3">
<path style="opacity:.08;fill:url(#linearGradient3026)" id="path3786" d="m 12,-95.0312 c -5.51109,0 -10.0312,4.52016 -10.0312,10.0312 v 71 c 0,5.51109 4.52016,10.0312 10.0312,10.0312 h 72 c 5.51109,0 10.0312,-4.52016 10.0312,-10.0312 v -71 c 0,-5.51109 -4.52016,-10.0312 -10.0312,-10.0312 h -72 z " transform="scale(1,-1)"/>
<path style="opacity:.1;fill:url(#linearGradient3780)" id="path3778" d="m 12,-94.0312 c -4.97163,0 -9.03125,4.05962 -9.03125,9.03125 v 71 c 0,4.97163 4.05962,9.03125 9.03125,9.03125 h 72 c 4.97163,0 9.03125,-4.05962 9.03125,-9.03125 v -71 c 0,-4.97163 -4.05962,-9.03125 -9.03125,-9.03125 h -72 z " transform="scale(1,-1)"/>
<path style="opacity:.2;fill:url(#linearGradient3772)" id="path3770" d="m 12,-93 c -4.40913,0 -8,3.59087 -8,8 v 71 c 0,4.40913 3.59087,8 8,8 h 72 c 4.40913,0 8,-3.59087 8,-8 v -71 c 0,-4.40913 -3.59087,-8 -8,-8 h -72 z " transform="scale(1,-1)"/>
<rect width="86" x="5" y="-92" rx="7" height="85" ry="7" style="opacity:.3;fill:url(#linearGradient3725)" id="rect3723" transform="scale(1,-1)"/>
<rect width="84" x="6" y="-91" rx="6" height="84" ry="6" style="opacity:.45;fill:url(#linearGradient3721)" id="rect3716" transform="scale(1,-1)"/>
</g>
<g style="stroke:none" id="layer1">
<rect width="84" x="6" y="6" rx="6" height="84" ry="6" style="fill:url(#linearGradient3617)" id="rect2419"/>
<path style="opacity:.3;fill:url(#linearGradient3188)" id="rect3728" d="m 12,6 c -3.324,0 -6,2.676 -6,6 v 2 68 2 c 0,0.334721 0.04135,0.6507 0.09375,0.96875 0.0487,0.295596 0.09704,0.596915 0.1875,0.875 0.00988,0.03038 0.020892,0.0636 0.03125,0.09375 0.098865,0.287771 0.23488,0.547452 0.375,0.8125 0.144592,0.273507 0.315616,0.535615 0.5,0.78125 0.184384,0.245635 0.373776,0.473472 0.59375,0.6875 0.439947,0.428056 0.94291,0.814526 1.5,1.09375 0.278545,0.139612 0.573473,0.246947 0.875,0.34375 -0.256202,-0.100222 -0.486711,-0.236272 -0.71875,-0.375 -0.00741,-0.0044 -0.023866,0.0045 -0.03125,0 -0.031933,-0.0193 -0.062293,-0.04251 -0.09375,-0.0625 -0.120395,-0.0767 -0.231023,-0.163513 -0.34375,-0.25 -0.106173,-0.0808 -0.213281,-0.161112 -0.3125,-0.25 -0.17793,-0.161433 -0.34746,-0.345388 -0.5,-0.53125 -0.107579,-0.130255 -0.218394,-0.265285 -0.3125,-0.40625 -0.025089,-0.03838 -0.038446,-0.08587 -0.0625,-0.125 -0.064763,-0.103032 -0.130228,-0.204517 -0.1875,-0.3125 -0.101008,-0.194706 -0.205675,-0.415701 -0.28125,-0.625 -0.00796,-0.02181 -0.023589,-0.04055 -0.03125,-0.0625 -0.0318251,-0.09195 -0.0358045,-0.186831 -0.0625,-0.28125 -0.0303323,-0.106618 -0.0703894,-0.203031 -0.09375,-0.3125 -0.0728786,-0.341512 -0.125,-0.698205 -0.125,-1.0625 v -2 -68 -2 c 0,-2.78185 2.21815,-5 5,-5 h 2 68 2 c 2.78185,0 5,2.21815 5,5 v 2 68 2 c 0,0.364295 -0.05212,0.720988 -0.125,1.0625 -0.04415,0.206893 -0.08838,0.397658 -0.15625,0.59375 -0.0077,0.02195 -0.0233,0.04069 -0.03125,0.0625 -0.06274,0.173739 -0.138383,0.367449 -0.21875,0.53125 -0.04158,0.0828 -0.07904,0.169954 -0.125,0.25 -0.0546,0.09721 -0.126774,0.18835 -0.1875,0.28125 -0.09411,0.140965 -0.204921,0.275995 -0.3125,0.40625 -0.143174,0.17445 -0.303141,0.346998 -0.46875,0.5 -0.01117,0.0102 -0.01998,0.02115 -0.03125,0.03125 -0.138386,0.125556 -0.285091,0.234436 -0.4375,0.34375 -0.102571,0.07315 -0.204318,0.153364 -0.3125,0.21875 -0.0074,0.0045 -0.02384,-0.0044 -0.03125,0 -0.232039,0.138728 -0.462548,0.274778 -0.71875,0.375 0.301527,-0.0968 0.596455,-0.204138 0.875,-0.34375 0.55709,-0.279224 1.06005,-0.665694 1.5,-1.09375 0.219973,-0.214028 0.409366,-0.441865 0.59375,-0.6875 0.184384,-0.245635 0.355408,-0.507743 0.5,-0.78125 0.14012,-0.265048 0.276135,-0.524729 0.375,-0.8125 0.01041,-0.03078 0.02133,-0.06274 0.03125,-0.09375 0.09046,-0.278085 0.1388,-0.579404 0.1875,-0.875 0.0524,-0.31805 0.09375,-0.634029 0.09375,-0.96875 v -2 -68 -2 c 0,-3.324 -2.676,-6 -6,-6 h -72 z "/>
<path style="opacity:.2;fill:url(#radialGradient3619)" id="path3615" d="M 12,90 C 8.676,90 6,87.324 6,84 L 6,82 6,14 6,12 c 0,-0.334721 0.04135,-0.6507 0.09375,-0.96875 0.0487,-0.295596 0.09704,-0.596915 0.1875,-0.875 C 6.29113,10.12587 6.302142,10.09265 6.3125,10.0625 6.411365,9.774729 6.5473802,9.515048 6.6875,9.25 6.8320918,8.976493 7.0031161,8.714385 7.1875,8.46875 7.3718839,8.223115 7.5612765,7.995278 7.78125,7.78125 8.221197,7.353194 8.72416,6.966724 9.28125,6.6875 9.559795,6.547888 9.8547231,6.440553 10.15625,6.34375 9.9000482,6.443972 9.6695391,6.580022 9.4375,6.71875 c -0.00741,0.0044 -0.023866,-0.0045 -0.03125,0 -0.031933,0.0193 -0.062293,0.04251 -0.09375,0.0625 -0.120395,0.0767 -0.2310226,0.163513 -0.34375,0.25 -0.1061728,0.0808 -0.2132809,0.161112 -0.3125,0.25 C 8.4783201,7.442683 8.3087904,7.626638 8.15625,7.8125 8.0486711,7.942755 7.9378561,8.077785 7.84375,8.21875 7.818661,8.25713 7.805304,8.30462 7.78125,8.34375 7.716487,8.446782 7.6510225,8.548267 7.59375,8.65625 7.4927417,8.850956 7.3880752,9.071951 7.3125,9.28125 7.30454,9.30306 7.288911,9.3218 7.28125,9.34375 7.2494249,9.4357 7.2454455,9.530581 7.21875,9.625 7.1884177,9.731618 7.1483606,9.828031 7.125,9.9375 7.0521214,10.279012 7,10.635705 7,11 l 0,2 0,68 0,2 c 0,2.781848 2.2181517,5 5,5 l 2,0 68,0 2,0 c 2.781848,0 5,-2.218152 5,-5 l 0,-2 0,-68 0,-2 C 89,10.635705 88.94788,10.279012 88.875,9.9375 88.83085,9.730607 88.78662,9.539842 88.71875,9.34375 88.71105,9.3218 88.69545,9.30306 88.6875,9.28125 88.62476,9.107511 88.549117,8.913801 88.46875,8.75 88.42717,8.6672 88.38971,8.580046 88.34375,8.5 88.28915,8.40279 88.216976,8.31165 88.15625,8.21875 88.06214,8.077785 87.951329,7.942755 87.84375,7.8125 87.700576,7.63805 87.540609,7.465502 87.375,7.3125 87.36383,7.3023 87.35502,7.29135 87.34375,7.28125 87.205364,7.155694 87.058659,7.046814 86.90625,6.9375 86.803679,6.86435 86.701932,6.784136 86.59375,6.71875 c -0.0074,-0.0045 -0.02384,0.0044 -0.03125,0 -0.232039,-0.138728 -0.462548,-0.274778 -0.71875,-0.375 0.301527,0.0968 0.596455,0.204138 0.875,0.34375 0.55709,0.279224 1.060053,0.665694 1.5,1.09375 0.219973,0.214028 0.409366,0.441865 0.59375,0.6875 0.184384,0.245635 0.355408,0.507743 0.5,0.78125 0.14012,0.265048 0.276135,0.524729 0.375,0.8125 0.01041,0.03078 0.02133,0.06274 0.03125,0.09375 0.09046,0.278085 0.1388,0.579404 0.1875,0.875 C 89.95865,11.3493 90,11.665279 90,12 l 0,2 0,68 0,2 c 0,3.324 -2.676,6 -6,6 l -72,0 z"/>
</g>
<g id="layer5">
<rect width="66" x="15" y="15" rx="12" height="66" ry="12" style="opacity:.05;fill:url(#linearGradient3613);filter:url(#filter3794);stroke:#fff;stroke-linecap:round;stroke-width:.5;clip-path:url(#clipPath3613)" id="rect3171"/>
</g>
<g style="stroke:none" id="layer4">
<g style="color:#000;stroke-width:1.5">
<path style="fill:url(#linearGradient3863)" id="path3663" d="m 80,48 a 32,32 0 1 1 -64,0 32,32 0 1 1 64,0 z" transform="matrix(0,-1.03125,1.03125,0,-1.5,97.5)"/>
<path style="opacity:.3;fill:url(#linearGradient3814)" id="path3801" d="m 14,48 c 0,18.7777 15.2223,34 34,34 18.7777,0 34,-15.2223 34,-34 0,-18.7777 -15.2223,-34 -34,-34 -18.7777,0 -34,15.2223 -34,34 z  m 1.0303,0 c 0,-18.2087 14.761,-32.9697 32.9697,-32.9697 18.2087,-3.55271e-15 32.9697,14.761 32.9697,32.9697 0,18.2087 -14.761,32.9697 -32.9697,32.9697 -18.2087,0 -32.9697,-14.761 -32.9697,-32.9697 z "/>
<path style="opacity:.6" id="path3816" d="m 48,16 c -17.6731,0 -32,14.3269 -32,32 0,17.6731 14.3269,32 32,32 17.6731,0 32,-14.3269 32,-32 0,-17.6731 -14.3269,-32 -32,-32 z  m 0,1 c 17.1208,0 31,13.8792 31,31 0,17.1208 -13.8792,31 -31,31 -17.1208,0 -31,-13.8792 -31,-31 0,-17.1208 13.8792,-31 31,-31 z "/>
<path style="opacity:.2" id="path3857" d="m 48,16 c -17.6731,0 -32,14.3269 -32,32 0,17.6731 14.3269,32 32,32 17.6731,0 32,-14.3269 32,-32 0,-17.6731 -14.3269,-32 -32,-32 z  m 0,2 c 16.5847,0 30,13.4153 30,30 0,16.5847 -13.4153,30 -30,30 -16.5847,0 -30,-13.4153 -30,-30 0,-16.5847 13.4153,-30 30,-30 z  m -.0625,13.0312 c -1.47338,0.06395 -3.75832,0.06897 -6,0.40625 -2.22528,0.334808 -4.61381,0.949551 -6.21875,2.84375 -1.21132,1.42963 -1.36845,3.33732 -1.03125,4.9375 0.342438,1.62505 1.38961,3.48815 3.46875,3.875 0.759158,0.141249 1.53292,0.149462 2.3125,0.125 -3.19042,1.08198 -5.70844,2.72108 -7.125,5.0625 -1.5261,2.52249 -1.71238,5.611 -0.8125,8.78125 1.2984,4.57422 5.72638,7.75173 10.5625,7.9375 a 0.992195,0.992195 0 0,0 0.03125,0 h 0.03125 c 4.19498,-0.0092 6.44002,-1.2854 7.59375,-2.0625 0.36926,-0.248718 0.567911,-0.369612 0.625,-0.40625 -0.01911,0.003 0.08026,-0.05332 0.8125,0.34375 0.873439,0.789109 1.89737,1.32843 3.03125,1.53125 1.32878,0.237678 2.86269,0.112276 4.09375,-0.84375 0.747886,-0.580797 2.16206,-1.19099 3.3125,-2.4375 0.611901,-0.663001 1.15669,-1.61249 1.1875,-2.75 0.02849,-1.05186 -0.397509,-2.07476 -1.03125,-3.0625 -0.0026,-0.01406 0.0049,-0.01628 0,-0.03125 0.0029,0.0187 -0.01639,0.02573 0,-0.09375 0.03114,-0.226979 0.249907,-0.888056 0.46875,-1.78125 0.434769,-1.77449 0.946368,-4.51324 0.65625,-8.625 -0.28953,-4.10343 -1.88885,-7.73816 -4.6875,-10.2188 -2.79703,-2.47915 -6.6797,-3.73096 -11.2812,-3.53125 z  m .5938,20.6562 c 0.833387,0 1.09375,0.426875 1.09375,0.71875 0,0.283011 -0.293132,0.75 -1.09375,0.75 -0.785933,0 -1.15625,-0.561649 -1.15625,-0.75 0,-0.197494 0.337409,-0.71875 1.15625,-0.71875 z "/>
</g>
<path style="opacity:.6" id="path3848" d="m 47.9688,32.0312 c -1.52061,0.066 -3.73686,0.0533 -5.875,0.375 -2.13814,0.321698 -4.27167,0.934005 -5.625,2.53125 -0.954709,1.12677 -1.10486,2.67511 -0.8125,4.0625 0.292357,1.38739 1.12953,2.83512 2.6875,3.125 1.50091,0.279261 3.24738,0.07132 4.96875,-0.125 1.72137,-0.196322 3.42825,-0.403185 4.59375,-0.28125 0.693206,0.07252 0.859427,0.329091 0.875,0.375 0.01557,0.04591 0.102829,0.223272 -0.4375,0.59375 -0.486139,0.333323 -1.73134,0.56523 -3.0625,0.6875 -1.33116,0.12227 -2.71013,0.150006 -3.875,0.5 -3.39379,1.01969 -5.86052,2.66124 -7.21875,4.90625 -1.35823,2.24501 -1.53338,5.01999 -0.6875,8 1.16835,4.11607 5.20348,7.0489 9.625,7.21875 a 1.00356,1.00356 0 0,0 0.03125,0 c 4.00956,-0.0088 5.93576,-1.13713 7.03125,-1.875 0.547743,-0.368937 0.815843,-0.528665 1.03125,-0.5625 0.215407,-0.03384 0.602313,-0.0154 1.4375,0.4375 0.770093,0.757994 1.72857,1.2548 2.75,1.4375 1.13668,0.203317 2.36778,0.07741 3.3125,-0.65625 0.903224,-0.70143 2.21346,-1.28837 3.1875,-2.34375 0.487019,-0.52769 0.883451,-1.25199 0.90625,-2.09375 0.0228,-0.841761 -0.287495,-1.70048 -0.90625,-2.625 -0.105793,-0.158071 -0.14966,-0.248755 -0.09375,-0.65625 0.05591,-0.407495 0.257775,-1.04517 0.46875,-1.90625 0.421949,-1.72216 0.907386,-4.31032 0.625,-8.3125 -0.274627,-3.89221 -1.76342,-7.24418 -4.34375,-9.53125 -2.58033,-2.28707 -6.19334,-3.47223 -10.5938,-3.28125 z  m .5625,18.6562 c 1.26156,0 2.09375,0.816699 2.09375,1.71875 0,0.902049 -0.844277,1.75 -2.09375,1.75 -1.24947,0 -2.15625,-0.87569 -2.15625,-1.75 0,-0.874311 0.894694,-1.71875 2.15625,-1.71875 z "/>
<path style="fill:url(#linearGradient3836)" id="path3821" d="m 48.0075,33.019 c -3.11615,0.135243 -8.65184,0.02585 -10.8022,2.56377 -1.31401,1.55084 -0.699416,5.16435 1.31421,5.53901 2.50855,0.466741 6.74722,-0.695893 9.46585,-0.411469 1.89558,0.198316 2.47327,1.72689 0.929567,2.78533 -1.63452,1.12071 -5.34866,0.798131 -7.22207,1.36101 -6.47696,1.94606 -8.79807,6.0571 -7.21216,11.6442 1.03411,3.64315 4.67314,6.34569 8.66625,6.49908 7.68136,-0.01688 6.26986,-3.89137 9.98919,-1.87445 1.224,1.41274 3.69011,1.87892 4.96837,0.886241 2.05514,-1.59599 5.13503,-2.4626 2.94897,-5.72892 -1.04686,-1.56418 1.41468,-3.57885 0.865459,-11.3629 -0.519699,-7.36556 -5.51505,-12.2654 -13.9114,-11.901 z  m .5228,16.6803 c 1.73001,0 3.10924,1.21472 3.10924,2.72203 0,1.50731 -1.37923,2.72203 -3.10924,2.72203 -1.73001,0 -3.14129,-1.21472 -3.14129,-2.72203 0,-1.50731 1.41129,-2.72203 3.14129,-2.72203 z "/>
<path style="opacity:.3;fill:url(#linearGradient3878)" id="path3865" d="m 49.5312,33 c -0.497942,-0.01767 -1.00648,0.0085 -1.53125,0.03125 -3.11615,0.135243 -8.63089,0.02458 -10.7812,2.5625 -1.31401,1.55084 -0.70113,5.15659 1.3125,5.53125 2.50855,0.466741 6.75012,-0.690674 9.46875,-0.40625 1.89558,0.198316 2.44995,1.72281 0.90625,2.78125 -1.63452,1.12071 -5.34534,0.780868 -7.21875,1.34375 -6.47696,1.94606 -8.80466,6.06911 -7.21875,11.6562 1.03411,3.64315 4.6944,6.34661 8.6875,6.5 7.68136,-0.01688 6.24942,-3.89191 9.96875,-1.875 1.224,1.41274 3.69049,1.86768 4.96875,0.875 2.05514,-1.59599 5.15481,-2.45244 2.96875,-5.71875 -1.04686,-1.56418 1.39298,-3.59097 0.84375,-11.375 -0.487218,-6.90521 -4.90587,-11.6412 -12.375,-11.9062 z  m -1.5,1 c 4.00187,-0.173683 7.06862,0.906728 9.21875,2.8125 2.15013,1.90577 3.442,4.6768 3.6875,8.15625 0.267066,3.78506 -0.194467,6.0891 -0.59375,7.71875 -0.199641,0.814826 -0.37928,1.47291 -0.46875,2.125 -0.08947,0.652089 -0.0381,1.38277 0.375,2 0.476378,0.711784 0.601751,1.20458 0.59375,1.5 -0.008,0.295422 -0.131578,0.48364 -0.40625,0.78125 -0.549343,0.595219 -1.7892,1.23325 -2.9375,2.125 -0.342441,0.265935 -1.02183,0.411497 -1.75,0.28125 -0.728169,-0.130247 -1.44118,-0.499283 -1.875,-1 a 0.974334,0.974334 0 0,0 -0.28125,-0.21875 c -1.02172,-0.554058 -1.86259,-0.812163 -2.65625,-0.6875 -0.793662,0.124663 -1.32398,0.556154 -1.84375,0.90625 -1.03548,0.697457 -2.26303,1.51685 -5.90625,1.53125 -0.01034,-0.000397 -0.02091,0.000436 -0.03125,0 -3.56525,-0.150453 -6.84883,-2.6377 -7.75,-5.8125 -0.741578,-2.61256 -0.564438,-4.6985 0.46875,-6.40625 1.03319,-1.70775 3.00606,-3.10353 6.09375,-4.03125 0.715187,-0.214884 2.09978,-0.308887 3.5,-0.4375 1.40022,-0.128613 2.86127,-0.250474 4,-1.03125 0.996628,-0.683342 1.53222,-1.82756 1.1875,-2.84375 -0.344719,-1.01619 -1.36755,-1.59373 -2.5625,-1.71875 -1.54748,-0.161898 -3.32482,0.08663 -5.03125,0.28125 -1.70643,0.194619 -3.32893,0.313817 -4.34375,0.125 -0.471717,-0.08777 -0.934505,-0.658498 -1.125,-1.5625 -0.190495,-0.904002 0.007,-1.9407 0.375,-2.375 0.805129,-0.950237 2.4987,-1.55204 4.4375,-1.84375 1.9388,-0.291705 4.03055,-0.3058 5.625,-0.375 z  m .5,14.7188 c -2.18482,0 -4.125,1.56563 -4.125,3.6875 0,2.12187 1.92845,3.71875 4.125,3.71875 2.19655,0 4.0625,-1.62381 4.0625,-3.71875 0,-2.09494 -1.87768,-3.6875 -4.0625,-3.6875 z  m 0,.9688 c 1.73001,0 3.09375,1.21144 3.09375,2.71875 0,1.50731 -1.36374,2.75 -3.09375,2.75 -1.73001,0 -3.15625,-1.24269 -3.15625,-2.75 0,-1.50731 1.42624,-2.71875 3.15625,-2.71875 z "/>
</g>
</svg>
