<svg width="96" version="1.0" xmlns="http://www.w3.org/2000/svg" height="96" xmlns:xlink="http://www.w3.org/1999/xlink">
<defs id="defs2410">
<clipPath id="clipPath3613">
<rect width="84" x="6" y="6" rx="6" height="84" ry="6" style="fill:#fff;stroke:none" id="rect3615"/>
</clipPath>
<clipPath id="clipPath2849-2">
<rect width="20" x="1" y="1" rx="2" height="20" ry="2" style="fill:#fff;fill-rule:evenodd;stroke:none" id="rect2851-4"/>
</clipPath>
<clipPath id="clipPath6183">
<rect width="20" x="1" y="0.99999988" rx="2" height="20" ry="2" style="fill:#fff;fill-rule:evenodd;stroke:none" id="rect6185"/>
</clipPath>
<clipPath id="clipPath3739">
<path style="fill:#fff;fill-rule:evenodd;stroke:none" id="path3741" d="m 33,1 c -0.277,0 -0.541812,0.055313 -0.78125,0.15625 -0.37163,0.263465 -0.714453,0.582314 -1,0.9375 -0.137536,0.27163 -0.21875,0.579849 -0.21875,0.90625 v 4.96875 c 0.890327,1.29312 2.37386,2.15625 4.0625,2.15625 2.72686,0 4.9375,-2.21064 4.9375,-4.9375 0,-1.77049 -0.943686,-3.31603 -2.34375,-4.1875 h -4.65625 z  m 7.5312,0 .5625,.8438 .4688,-.25 l .4375,-.0938 h 1.125 l .25,.5938 -.75,.8125 -.4062,.25 -.5312,.1562 .25,1.0938 .5,-.0625 .4688,.0625 1.0312,.4375 v 0.65625 l -1.0312,.4688 -.4688,.0312 -.5,-.0312 -.25,1.125 .5312,.1562 .4062,.2188 .75,.8125 -.25,.5938 -1.125,.0312 -.4375,-.125 -.4688,-.2812 -.625,.9688 .375,.3125 .3125,.4062 .4375,1.0312 -.4688,.4688 -1.0312,-.4375 -.4062,-.25 -.3125,-.4375 -.9688,.6562 .25,.4375 .1562,.5 -.0312,1.0625 -.625,.2812 -.7812,-.7812 -.2812,-.4062 -.0938,-.5312 -1.125,.25 .0312,.5 -.0625,.5 -.4375,1 h -0.65625 l -.4688,-1 -.0312,-.5 .0312,-.5 -1.125,-.25 -.0938,.5312 -.2812,.4062 -.7812,.7812 -.5938,-.2812 -.0625,-1.0625 .1562,-.5 .25,-.4375 -.75,-.5 v 8.28125 c 0,1.108 0.892,2 2,2 h 6.84375 l .2812,-.25 .4688,-.25 -.4688,-1.1562 -.5312,.1875 -.5,.0312 -1.1562,-.25 -.1562,-.6875 .9688,-.6875 .5,-.1562 .5312,-.0625 v -1.21875 l -.5312,-.0312 -.5,-.1875 -1,-.6562 .1562,-.6875 1.1562,-.25 h 0.5 l .5312,.1875 .4688,-1.1562 -.5,-.25 -.4062,-.3125 -.625,-1 .375,-.5938 1.1562,.1875 .5,.25 .4062,.3438 .8438,-.875 -.3438,-.4062 -.2188,-.4688 -.2188,-1.1875 .5625,-.375 1,.625 .3438,.375 .2812,.5 1.125,-.4688 -.1875,-.5312 -.0312,-.5312 .25,-1.1562 .6875,-.125 .6875,.9688 .1562,.4688 .0625,.5625 1.2188,-.0312 .0312,-.5312 .1875,-.5 .6562,-.9688 .6875,.125 .2812,1.1562 -.0312,.5312 -.1875,.5 1.1562,.4688 .25,-.4688 .2812,-.3438 v -6.65625 c 0,-1.108 -0.892,-2 -2,-2 h -8.46875 z  m -5.5,.3125 c 2.12167,0 3.84375,1.72209 3.84375,3.84375 0,2.12166 -1.72208,3.84375 -3.84375,3.84375 -2.12167,0 -3.84375,-1.72209 -3.84375,-3.84375 0,-2.12166 1.72208,-3.84375 3.84375,-3.84375 z  m 0,1.7188 c -1.24195,0 -2.25,0.952047 -2.25,2.125 0,1.17295 1.00805,2.125 2.25,2.125 1.24195,0 2.25,-0.952047 2.25,-2.125 0,-1.17295 -1.00805,-2.125 -2.25,-2.125 z  m 12.0938,8.375 c -1.27623,0 -2.45991,0.441669 -3.40625,1.15625 l 1.8125,1.9375 c 0.461136,-0.287236 1.01085,-0.4375 1.59375,-0.4375 0.293976,0 0.575112,0.04631 0.84375,0.125 l 1.2188,-2.375 c -0.640216,-0.252167 -1.33292,-0.40625 -2.0625,-0.40625 z  m 3.0938,.9375 l -1.2188,2.375 c 0.685742,0.544483 1.11379,1.37215 1.125,2.3125 l .875,.1562 v -4.21875 c -0.242222,-0.227764 -0.502051,-0.44206 -0.78125,-0.625 z  m -7.3438,1 c -0.873486,0.993935 -1.40625,2.29259 -1.40625,3.71875 0,0.637183 0.117557,1.24088 0.3125,1.8125 l 2.4062,-1.0938 c -0.0552,-0.227756 -0.0625,-0.474117 -0.0625,-0.71875 0,-0.662658 0.199196,-1.28387 0.5625,-1.78125 l -1.8125,-1.9375 z  m 4.25,2.75 c -0.535035,0 -0.96875,0.433715 -0.96875,0.96875 0,0.535035 0.433715,0.96875 0.96875,0.96875 0.535035,0 0.96875,-0.433715 0.96875,-0.96875 0,-0.535035 -0.433715,-0.96875 -0.96875,-0.96875 z  m 2.8125,2.0625 c -0.322038,0.823782 -1.00237,1.46465 -1.84375,1.75 l .1562,1.0938 h 0.75 c 1.108,0 2,-0.892 2,-2 v -0.65625 l -1.0625,-.1875 z  m -5.25,.6562 -2.4375,1.125 c 0.230479,0.390313 0.497541,0.7398 0.8125,1.0625 h 4 l -.125,-.9375 c -0.933758,-0.05393 -1.73549,-0.535346 -2.25,-1.25 z "/>
</clipPath>
<filter width="1.3839999" x="-0.192" y="-0.192" height="1.3839999" style="color-interpolation-filters:sRGB" id="filter3794">
<feGaussianBlur stdDeviation="5.28" id="feGaussianBlur3796"/>
</filter>
<filter width="1.36" x="-0.18000001" y="-0.18000001" height="1.36" style="color-interpolation-filters:sRGB" id="filter3194-1">
<feGaussianBlur stdDeviation="1.2" id="feGaussianBlur3196-4"/>
</filter>
<filter style="color-interpolation-filters:sRGB" id="filter3743">
<feGaussianBlur stdDeviation="0.8" id="feGaussianBlur3745"/>
</filter>
<filter style="color-interpolation-filters:sRGB" id="filter3174">
<feGaussianBlur stdDeviation="1.71" id="feGaussianBlur3176"/>
</filter>
<linearGradient id="linearGradient3639" xlink:href="#linearGradient3633" y1="42.659012" x1="54.093639" y2="22.155571" x2="54.071827" gradientUnits="userSpaceOnUse"/>
<linearGradient id="linearGradient3649" xlink:href="#linearGradient3633" y1="42.659012" x1="54.093639" y2="20.779154" x2="53.634274" gradientUnits="userSpaceOnUse"/>
<linearGradient gradientTransform="translate(21.201413,-20.840989)" id="linearGradient3647" xlink:href="#linearGradient3660" y1="41.247932" x1="29.247082" y2="62.26416" x2="29.247082" gradientUnits="userSpaceOnUse"/>
<linearGradient id="linearGradient3298-1">
<stop offset="0" style="stop-color:#c8c8c8" id="stop3300-5"/>
<stop offset="1" style="stop-color:#d9d9d9" id="stop3302-9"/>
</linearGradient>
<linearGradient gradientTransform="translate(21.201413,-20.840989)" id="linearGradient3629" xlink:href="#linearGradient3660" y1="41.247932" x1="29.247082" y2="62.26416" x2="29.247082" gradientUnits="userSpaceOnUse"/>
<linearGradient gradientTransform="matrix(0.1989658,0,0,0.1811141,-1.733807,-0.5915314)" id="linearGradient3274" xlink:href="#linearGradient3268" y1="23" x1="51.484161" y2="105" x2="51.484161" gradientUnits="userSpaceOnUse"/>
<linearGradient id="linearGradient3187">
<stop offset="0" style="stop-color:#a0a0a0" id="stop3189-8"/>
<stop offset="1" style="stop-color:#dcdcdc" id="stop3191-4"/>
</linearGradient>
<linearGradient gradientTransform="matrix(0.1989658,0,0,0.1811141,-1.733807,-0.5915314)" id="linearGradient3266" xlink:href="#linearGradient3298-1" y1="105" x1="45.987217" y2="22.989777" x2="45.987217" gradientUnits="userSpaceOnUse"/>
<linearGradient gradientTransform="translate(0,-97)" id="linearGradient3721-6" xlink:href="#ButtonShadow-0" y1="6.1317081" x1="32.251034" y2="90.238609" x2="32.251034" gradientUnits="userSpaceOnUse"/>
<linearGradient gradientTransform="matrix(1.0058652,0,0,0.994169,100,0)" id="ButtonShadow-0" y1="92.539597" x1="45.447727" y2="7.0165396" x2="45.447727" gradientUnits="userSpaceOnUse">
<stop offset="0" id="stop3750-8"/>
<stop offset="1" style="stop-opacity:.588" id="stop3752-5-6"/>
</linearGradient>
<linearGradient gradientTransform="translate(21.201413,-20.840989)" id="linearGradient3657" xlink:href="#linearGradient3660" y1="41.247932" x1="29.247082" y2="62.26416" x2="29.247082" gradientUnits="userSpaceOnUse"/>
<linearGradient gradientTransform="matrix(1.0238095,0,0,1.0119048,-1.1428571,-98.071429)" id="linearGradient3780" xlink:href="#ButtonShadow-0" y1="6.1317081" x1="32.251034" y2="90.238609" x2="32.251034" gradientUnits="userSpaceOnUse"/>
<linearGradient gradientTransform="matrix(1.0238095,0,0,1.0119048,-1.1428571,-98.071429)" id="linearGradient3725" xlink:href="#ButtonShadow-0" y1="6.1317081" x1="32.251034" y2="90.238609" x2="32.251034" gradientUnits="userSpaceOnUse"/>
<linearGradient gradientTransform="matrix(1.0238095,0,0,1.0119048,-1.1428571,-98.071429)" id="linearGradient3772" xlink:href="#ButtonShadow-0" y1="6.1317081" x1="32.251034" y2="90.238609" x2="32.251034" gradientUnits="userSpaceOnUse"/>
<linearGradient id="linearGradient3327">
<stop offset="0" id="stop3330"/>
<stop offset="1" style="stop-opacity:0" id="stop3333"/>
</linearGradient>
<linearGradient id="linearGradient3268">
<stop offset="0" style="stop-color:#414141" id="stop3270"/>
<stop offset="1" style="stop-color:#696969" id="stop3272"/>
</linearGradient>
<linearGradient id="linearGradient3335" xlink:href="#linearGradient3327" y1="22" x1="11.375" y2="-9.817296" x2="11.375" gradientUnits="userSpaceOnUse"/>
<linearGradient id="linearGradient3660">
<stop offset="0" style="stop-color:#dcdcdc" id="stop3668"/>
<stop offset="1" style="stop-color:#fff" id="stop3670"/>
</linearGradient>
<linearGradient gradientTransform="translate(11.119372,-6.2581978)" id="linearGradient3181" xlink:href="#linearGradient3187" y1="27.258198" x1="-3.0607977" y2="7.2536583" x2="-3.0607977" gradientUnits="userSpaceOnUse"/>
<linearGradient id="linearGradient3633">
<stop offset="0" style="stop-opacity:.539" id="stop3635"/>
<stop offset="1" style="stop-opacity:0" id="stop3637"/>
</linearGradient>
<linearGradient id="linearGradient4354" xlink:href="#linearGradient3327-8" y1="22" x1="11.375" y2="-9.817296" x2="11.375" gradientUnits="userSpaceOnUse"/>
<linearGradient id="linearGradient3659" xlink:href="#linearGradient3633" y1="42.659012" x1="54.093639" y2="20.779154" x2="53.634274" gradientUnits="userSpaceOnUse"/>
<linearGradient id="linearGradient3613" xlink:href="#linearGradient3737" y1="20.220806" x1="48" y2="138.66119" x2="48" gradientUnits="userSpaceOnUse"/>
<linearGradient gradientTransform="translate(0,8)" id="linearGradient3644" xlink:href="#linearGradient3638" y1="48" x1="16" y2="44.090794" x2="16" gradientUnits="userSpaceOnUse"/>
<linearGradient id="linearGradient3625" xlink:href="#linearGradient3619" y1="56.208946" x1="40" y2="104" x2="40" gradientUnits="userSpaceOnUse"/>
<linearGradient id="linearGradient3188" xlink:href="#linearGradient3737" y1="6" x1="36.357143" y2="63.893143" x2="36.357143" gradientUnits="userSpaceOnUse"/>
<linearGradient id="linearGradient3737">
<stop offset="0" style="stop-color:#fff" id="stop3739"/>
<stop offset="1" style="stop-color:#fff;stop-opacity:0" id="stop3741"/>
</linearGradient>
<linearGradient id="linearGradient3638">
<stop offset="0" id="stop3640"/>
<stop offset="0.25925925" style="stop-opacity:.498" id="stop3646"/>
<stop offset="1" style="stop-opacity:0" id="stop3642"/>
</linearGradient>
<linearGradient gradientTransform="scale(1.0058652,0.994169)" id="ButtonShadow" y1="92.539597" x1="45.447727" y2="7.0165396" x2="45.447727" gradientUnits="userSpaceOnUse">
<stop offset="0" id="stop3750"/>
<stop offset="1" style="stop-opacity:.588" id="stop3752"/>
</linearGradient>
<linearGradient id="linearGradient3619">
<stop offset="0" style="stop-color:#fff" id="stop3621"/>
<stop offset="0.29591838" style="stop-color:#fff;stop-opacity:.498" id="stop3627"/>
<stop offset="1" style="stop-color:#fff;stop-opacity:0" id="stop3623"/>
</linearGradient>
<linearGradient id="linearGradient1428">
<stop offset="0" style="stop-color:#3465a4" id="stop1430"/>
<stop offset="1" style="stop-color:#729fcf" id="stop1432"/>
</linearGradient>
<linearGradient id="linearGradient4324" xlink:href="#linearGradient3764" y1="21" x1="5" y2="0.90024877" x2="5" gradientUnits="userSpaceOnUse"/>
<linearGradient id="linearGradient3733" xlink:href="#linearGradient1428" y1="56.251743" x1="48" y2="5.9877172" x2="48" gradientUnits="userSpaceOnUse"/>
<linearGradient gradientTransform="matrix(1.0238095,0,0,1.0119048,-1.1428571,-98.071429)" id="linearGradient3059" xlink:href="#ButtonShadow-0" y1="6.1317081" x1="32.251034" y2="90.238609" x2="32.251034" gradientUnits="userSpaceOnUse"/>
<linearGradient id="linearGradient4358" xlink:href="#linearGradient3764" y1="21" x1="5" y2="0.90024877" x2="5" gradientUnits="userSpaceOnUse"/>
<linearGradient gradientTransform="translate(11.119372,-6.2581977)" id="linearGradient4356" xlink:href="#ButtonColor-6" y1="27.258198" x1="-3.0607977" y2="7.2536583" x2="-3.0607977" gradientUnits="userSpaceOnUse"/>
<linearGradient gradientTransform="translate(11.119372,-6.2581977)" id="linearGradient4322" xlink:href="#ButtonColor-6" y1="27.258198" x1="-3.0607977" y2="7.2536583" x2="-3.0607977" gradientUnits="userSpaceOnUse"/>
<linearGradient id="ButtonColor-6" y1="21" x1="10.31979" y2="0.99929649" x2="10.31979" gradientUnits="userSpaceOnUse">
<stop offset="0" style="stop-color:#afafaf" id="stop3189-2"/>
<stop offset="1" style="stop-color:#d8d8d8" id="stop3191-6"/>
</linearGradient>
<linearGradient id="linearGradient3327-8">
<stop offset="0" id="stop3330-7"/>
<stop offset="1" style="stop-opacity:0" id="stop3333-0"/>
</linearGradient>
<linearGradient gradientTransform="matrix(1.0172414,0,0,1.0172414,-1.1034483,-1.1034483)" id="linearGradient3764" y1="122" x1="58.650177" y2="5.4252338" x2="58.650177" gradientUnits="userSpaceOnUse">
<stop offset="0" style="stop-color:#969696" id="stop3766"/>
<stop offset="1" style="stop-color:#cacaca" id="stop3768"/>
</linearGradient>
<linearGradient id="linearGradient4320" xlink:href="#linearGradient3327-8" y1="22" x1="11.375" y2="-9.817296" x2="11.375" gradientUnits="userSpaceOnUse"/>
<radialGradient fx="48" fy="90.171875" cx="48" cy="90.171875" gradientTransform="matrix(1.1573129,0,0,0.99590774,-7.5510206,0.19713193)" r="42" id="radialGradient3619" xlink:href="#linearGradient3737" gradientUnits="userSpaceOnUse"/>
</defs>
<g style="display:none" id="layer2">
<rect width="86" x="5" y="7" rx="6" height="85" ry="6" style="opacity:.9;fill:url(#ButtonShadow);filter:url(#filter3174);stroke:none" id="rect3745"/>
</g>
<g style="stroke:none" id="layer3">
<path style="opacity:.08;fill:url(#linearGradient3059)" id="path3786" d="m 12,-95.0312 c -5.51109,0 -10.0312,4.52016 -10.0312,10.0312 v 71 c 0,5.51109 4.52016,10.0312 10.0312,10.0312 h 72 c 5.51109,0 10.0312,-4.52016 10.0312,-10.0312 v -71 c 0,-5.51109 -4.52016,-10.0312 -10.0312,-10.0312 h -72 z " transform="scale(1,-1)"/>
<path style="opacity:.1;fill:url(#linearGradient3780)" id="path3778" d="m 12,-94.0312 c -4.97163,0 -9.03125,4.05962 -9.03125,9.03125 v 71 c 0,4.97163 4.05962,9.03125 9.03125,9.03125 h 72 c 4.97163,0 9.03125,-4.05962 9.03125,-9.03125 v -71 c 0,-4.97163 -4.05962,-9.03125 -9.03125,-9.03125 h -72 z " transform="scale(1,-1)"/>
<path style="opacity:.2;fill:url(#linearGradient3772)" id="path3770" d="m 12,-93 c -4.40913,0 -8,3.59087 -8,8 v 71 c 0,4.40913 3.59087,8 8,8 h 72 c 4.40913,0 8,-3.59087 8,-8 v -71 c 0,-4.40913 -3.59087,-8 -8,-8 h -72 z " transform="scale(1,-1)"/>
<rect width="86" x="5" y="-92" rx="7" height="85" ry="7" style="opacity:.3;fill:url(#linearGradient3725)" id="rect3723" transform="scale(1,-1)"/>
<rect width="84" x="6" y="-91" rx="6" height="84" ry="6" style="opacity:.45;fill:url(#linearGradient3721-6)" id="rect3716" transform="scale(1,-1)"/>
</g>
<g style="stroke:none" id="layer1">
<rect width="84" x="6" y="6" rx="6" height="84" ry="6" style="fill:url(#linearGradient3733)" id="rect2419"/>
<path style="opacity:.3;fill:url(#linearGradient3188)" id="rect3728" d="m 12,6 c -3.324,0 -6,2.676 -6,6 v 2 68 2 c 0,0.334721 0.04135,0.6507 0.09375,0.96875 0.0487,0.295596 0.09704,0.596915 0.1875,0.875 0.00988,0.03038 0.020892,0.0636 0.03125,0.09375 0.098865,0.287771 0.23488,0.547452 0.375,0.8125 0.144592,0.273507 0.315616,0.535615 0.5,0.78125 0.184384,0.245635 0.373776,0.473472 0.59375,0.6875 0.439947,0.428056 0.94291,0.814526 1.5,1.09375 0.278545,0.139612 0.573473,0.246947 0.875,0.34375 -0.256202,-0.100222 -0.486711,-0.236272 -0.71875,-0.375 -0.00741,-0.0044 -0.023866,0.0045 -0.03125,0 -0.031933,-0.0193 -0.062293,-0.04251 -0.09375,-0.0625 -0.120395,-0.0767 -0.231023,-0.163513 -0.34375,-0.25 -0.106173,-0.0808 -0.213281,-0.161112 -0.3125,-0.25 -0.17793,-0.161433 -0.34746,-0.345388 -0.5,-0.53125 -0.107579,-0.130255 -0.218394,-0.265285 -0.3125,-0.40625 -0.025089,-0.03838 -0.038446,-0.08587 -0.0625,-0.125 -0.064763,-0.103032 -0.130228,-0.204517 -0.1875,-0.3125 -0.101008,-0.194706 -0.205675,-0.415701 -0.28125,-0.625 -0.00796,-0.02181 -0.023589,-0.04055 -0.03125,-0.0625 -0.0318251,-0.09195 -0.0358045,-0.186831 -0.0625,-0.28125 -0.0303323,-0.106618 -0.0703894,-0.203031 -0.09375,-0.3125 -0.0728786,-0.341512 -0.125,-0.698205 -0.125,-1.0625 v -2 -68 -2 c 0,-2.78185 2.21815,-5 5,-5 h 2 68 2 c 2.78185,0 5,2.21815 5,5 v 2 68 2 c 0,0.364295 -0.05212,0.720988 -0.125,1.0625 -0.04415,0.206893 -0.08838,0.397658 -0.15625,0.59375 -0.0077,0.02195 -0.0233,0.04069 -0.03125,0.0625 -0.06274,0.173739 -0.138383,0.367449 -0.21875,0.53125 -0.04158,0.0828 -0.07904,0.169954 -0.125,0.25 -0.0546,0.09721 -0.126774,0.18835 -0.1875,0.28125 -0.09411,0.140965 -0.204921,0.275995 -0.3125,0.40625 -0.143174,0.17445 -0.303141,0.346998 -0.46875,0.5 -0.01117,0.0102 -0.01998,0.02115 -0.03125,0.03125 -0.138386,0.125556 -0.285091,0.234436 -0.4375,0.34375 -0.102571,0.07315 -0.204318,0.153364 -0.3125,0.21875 -0.0074,0.0045 -0.02384,-0.0044 -0.03125,0 -0.232039,0.138728 -0.462548,0.274778 -0.71875,0.375 0.301527,-0.0968 0.596455,-0.204138 0.875,-0.34375 0.55709,-0.279224 1.06005,-0.665694 1.5,-1.09375 0.219973,-0.214028 0.409366,-0.441865 0.59375,-0.6875 0.184384,-0.245635 0.355408,-0.507743 0.5,-0.78125 0.14012,-0.265048 0.276135,-0.524729 0.375,-0.8125 0.01041,-0.03078 0.02133,-0.06274 0.03125,-0.09375 0.09046,-0.278085 0.1388,-0.579404 0.1875,-0.875 0.0524,-0.31805 0.09375,-0.634029 0.09375,-0.96875 v -2 -68 -2 c 0,-3.324 -2.676,-6 -6,-6 h -72 z "/>
<path style="opacity:.2;fill:url(#radialGradient3619)" id="path3615" d="M 12,90 C 8.676,90 6,87.324 6,84 L 6,82 6,14 6,12 c 0,-0.334721 0.04135,-0.6507 0.09375,-0.96875 0.0487,-0.295596 0.09704,-0.596915 0.1875,-0.875 C 6.29113,10.12587 6.302142,10.09265 6.3125,10.0625 6.411365,9.774729 6.5473802,9.515048 6.6875,9.25 6.8320918,8.976493 7.0031161,8.714385 7.1875,8.46875 7.3718839,8.223115 7.5612765,7.995278 7.78125,7.78125 8.221197,7.353194 8.72416,6.966724 9.28125,6.6875 9.559795,6.547888 9.8547231,6.440553 10.15625,6.34375 9.9000482,6.443972 9.6695391,6.580022 9.4375,6.71875 c -0.00741,0.0044 -0.023866,-0.0045 -0.03125,0 -0.031933,0.0193 -0.062293,0.04251 -0.09375,0.0625 -0.120395,0.0767 -0.2310226,0.163513 -0.34375,0.25 -0.1061728,0.0808 -0.2132809,0.161112 -0.3125,0.25 C 8.4783201,7.442683 8.3087904,7.626638 8.15625,7.8125 8.0486711,7.942755 7.9378561,8.077785 7.84375,8.21875 7.818661,8.25713 7.805304,8.30462 7.78125,8.34375 7.716487,8.446782 7.6510225,8.548267 7.59375,8.65625 7.4927417,8.850956 7.3880752,9.071951 7.3125,9.28125 7.30454,9.30306 7.288911,9.3218 7.28125,9.34375 7.2494249,9.4357 7.2454455,9.530581 7.21875,9.625 7.1884177,9.731618 7.1483606,9.828031 7.125,9.9375 7.0521214,10.279012 7,10.635705 7,11 l 0,2 0,68 0,2 c 0,2.781848 2.2181517,5 5,5 l 2,0 68,0 2,0 c 2.781848,0 5,-2.218152 5,-5 l 0,-2 0,-68 0,-2 C 89,10.635705 88.94788,10.279012 88.875,9.9375 88.83085,9.730607 88.78662,9.539842 88.71875,9.34375 88.71105,9.3218 88.69545,9.30306 88.6875,9.28125 88.62476,9.107511 88.549117,8.913801 88.46875,8.75 88.42717,8.6672 88.38971,8.580046 88.34375,8.5 88.28915,8.40279 88.216976,8.31165 88.15625,8.21875 88.06214,8.077785 87.951329,7.942755 87.84375,7.8125 87.700576,7.63805 87.540609,7.465502 87.375,7.3125 87.36383,7.3023 87.35502,7.29135 87.34375,7.28125 87.205364,7.155694 87.058659,7.046814 86.90625,6.9375 86.803679,6.86435 86.701932,6.784136 86.59375,6.71875 c -0.0074,-0.0045 -0.02384,0.0044 -0.03125,0 -0.232039,-0.138728 -0.462548,-0.274778 -0.71875,-0.375 0.301527,0.0968 0.596455,0.204138 0.875,0.34375 0.55709,0.279224 1.060053,0.665694 1.5,1.09375 0.219973,0.214028 0.409366,0.441865 0.59375,0.6875 0.184384,0.245635 0.355408,0.507743 0.5,0.78125 0.14012,0.265048 0.276135,0.524729 0.375,0.8125 0.01041,0.03078 0.02133,0.06274 0.03125,0.09375 0.09046,0.278085 0.1388,0.579404 0.1875,0.875 C 89.95865,11.3493 90,11.665279 90,12 l 0,2 0,68 0,2 c 0,3.324 -2.676,6 -6,6 l -72,0 z"/>
</g>
<g id="layer5">
<rect width="66" x="15" y="15" rx="12" height="66" ry="12" style="opacity:.1;fill:url(#linearGradient3613);filter:url(#filter3794);stroke:#fff;stroke-linecap:round;stroke-width:.5;clip-path:url(#clipPath3613)" id="rect3171"/>
</g>
<g style="stroke:none" id="layer4">
<path style="opacity:.5;fill:url(#linearGradient3625)" id="rect3613" d="m 6,56 0,28 c 0,3.324 2.676,6 6,6 h 72 c 3.324,0 6,-2.676 6,-6 v -28 h -84 z "/>
<rect width="84" x="6" y="56" height="1" style="opacity:.6;fill:#fff" id="rect3632"/>
<rect width="84" x="6" y="56" height="1" style="opacity:0" id="rect3634"/>
<rect width="84" x="6" y="52" height="4" style="opacity:.3;fill:url(#linearGradient3644)" id="rect3636"/>
</g>
<g id="layer6">
<path style="fill:#fff;stroke:none;fill-opacity:.678" id="path3886" d="m 22.0654,76.6857 -7.0654,7.3143 14,-.1355 -6.9346,-7.1788 z "/>
<g id="g4292" transform="translate(-80.75,21.5)">
<g id="g4294" transform="translate(117.75,41.5)">
<g style="stroke:none" id="g4296">
<rect width="21" x="0.5" y="0.5" rx="2.5" height="21.5" ry="2.5" style="opacity:.3;fill:url(#linearGradient4320)" id="rect4298"/>
<rect width="20" x="1" y="2" rx="2.3809524" height="20" ry="2.3255813" style="opacity:.5" id="rect4300"/>
</g>
<rect width="20" x="1" y="1" rx="2" height="20" ry="2" style="fill:url(#linearGradient4322);fill-rule:evenodd;stroke:none" id="rect4302"/>
</g>
<g id="g4304" transform="translate(117.75,41.5)">
<rect width="16" x="3" y="3" rx="2" height="16" ry="2" style="opacity:.15;fill:#fff;filter:url(#filter3194-1);stroke:none;clip-path:url(#clipPath2849-2)" id="rect4306"/>
</g>
<g style="stroke:none">
<path style="fill:url(#linearGradient4324);clip-path:url(#clipPath6183)" id="path4308" d="m 4.75,-3.6562 -.4688,1 l -.0312,.4688 .0312,.5312 -1.125,.2188 -.0938,-.4688 -.2812,-.4375 -.7812,-.7812 -.5938,.25 -.0625,1.125 .1562,.4688 .25,.4375 -.9688,.625 -.3125,-.375 -.375,-.3125 -1.0625,-.375 -.4688,.4375 .4375,1.0312 .2812,.4062 .4062,.3125 -.6562,.9375 -.4062,-.25 -.4688,-.0938 h -1.125 l -.2812,.5938 .7812,.8125 .4375,.25 .5,.1562 -.25,1.0938 -.5,-.0625 -.5,.0625 -1,.4375 v 0.65625 l 1,.4688 .5,.0312 .5,-.0312 .25,1.125 -.5,.1562 -.4375,.2188 -.7812,.8125 .2812,.5938 1.125,.0312 .4688,-.125 .4062,-.2812 .6562,.9688 -.4062,.3125 -.2812,.4062 -.4375,1.0312 .4688,.4688 1.0625,-.4375 .375,-.25 .3125,-.4375 .9688,.6562 -.25,.4375 -.1562,.5 .0625,1.0625 .5938,.2812 .7812,-.7812 .2812,-.4062 .0938,-.5312 1.125,.25 -.0312,.5 .0312,.5 .4688,1 h 0.65625 l .4375,-1 .0625,-.5 -.0312,-.5 1.125,-.25 .0938,.5312 .2812,.4062 .7812,.7812 .625,-.2812 .0312,-1.0625 -.1562,-.5 -.25,-.4375 .9688,-.6562 .3125,.4375 .4062,.25 1.0312,.4375 .4688,-.4688 -.4375,-1.0312 -.3125,-.4062 -.375,-.3125 .625,-.9688 .4688,.2812 .4375,.125 1.125,-.0312 .25,-.5938 -.75,-.8125 -.4062,-.2188 -.5312,-.1562 .25,-1.125 .5,.0312 .4688,-.0312 1.0312,-.4688 v -0.65625 l -1.0312,-.4375 -.4688,-.0625 -.5,.0625 -.25,-1.0938 .5312,-.1562 .4062,-.25 .75,-.8125 -.25,-.5938 h -1.125 l -.4375,.0938 -.4688,.25 -.625,-.9375 .375,-.3125 .3125,-.4062 .4375,-1.0312 -.4688,-.4375 -1.0312,.375 -.4062,.3125 -.3125,.375 -.9688,-.625 .25,-.4375 .1562,-.4688 -.0312,-1.125 -.625,-.25 -.7812,.7812 -.2812,.4375 -.0938,.4688 -1.125,-.2188 .0312,-.5312 -.0625,-.4688 -.4375,-1 h -0.65625 z  m .3125,3.9062 c 2.72686,0 4.9375,2.21064 4.9375,4.9375 0,2.72686 -2.21064,4.9375 -4.9375,4.9375 -2.72686,1e-06 -4.9375,-2.21064 -4.9375,-4.9375 1.2e-07,-2.72686 2.21064,-4.9375 4.9375,-4.9375 z  m -.0312,1.0625 c -2.12166,0 -3.84375,1.72209 -3.84375,3.84375 0,2.12166 1.72209,3.84375 3.84375,3.84375 2.12166,0 3.84375,-1.72209 3.84375,-3.84375 0,-2.12166 -1.72209,-3.84375 -3.84375,-3.84375 z  m 0,1.7188 c 1.24195,0 2.25,0.952047 2.25,2.125 0,1.17295 -1.00805,2.125 -2.25,2.125 -1.24195,0 -2.25,-0.952047 -2.25,-2.125 0,-1.17295 1.00805,-2.125 2.25,-2.125 z  m 13.5312,4.6562 -.6562,.9688 -.1875,.5 l -.0312,.5312 -1.2188,.0312 -.0625,-.5625 -.1562,-.4688 -.6875,-.9688 -.6875,.125 -.25,1.1562 .0312,.5312 .1875,.5312 -1.125,.4688 -.2812,-.5 -.3438,-.375 -1,-.625 -.5625,.375 .2188,1.1875 .2188,.4688 .3438,.4062 -.8438,.875 -.4062,-.3438 -.5,-.25 -1.1562,-.1875 -.375,.5938 .625,1 .4062,.3125 .5,.25 -.4688,1.1562 -.5312,-.1875 h -0.5 l -1.1562,.25 -.1562,.6875 1,.6562 .5,.1875 .5312,.0312 v 1.21875 l -.5312,.0625 -.5,.1562 -.9688,.6875 .1562,.6875 1.1562,.25 .5,-.0312 .5312,-.1875 .4688,1.1562 -.4688,.25 -.4062,.3438 -.625,1 .4062,.5625 1.1562,-.1875 .4688,-.25 .4062,-.3438 .875,.8438 -.3438,.4375 -.2188,.4688 -.2188,1.1562 .5938,.375 1,-.625 .3438,-.4062 .25,-.5 1.125,.4688 -.1562,.5312 -.0312,.5 .25,1.1875 .6875,.125 .6875,-1 .1562,-.4688 .0312,-.5625 h 1.25 l .0312,.5312 .1875,.5 .6875,.9688 .6875,-.1562 .25,-1.1562 -.0625,-.5 -.1562,-.5312 1.125,-.4688 .25,.4688 .3438,.4062 1,.625 .5938,-.4062 -.2188,-1.1562 -.25,-.4688 -.3438,-.4062 .875,-.875 .4062,.3438 .4688,.2188 1.1875,.2188 .375,-.5938 -.6562,-1 -.4062,-.3438 -.4688,-.25 .4688,-1.125 .5,.1562 .5312,.0312 1.1562,-.25 .125,-.6875 -.9688,-.6875 -.5,-.1562 -.5312,-.0312 -.0312,-1.25 .5625,-.0312 .4688,-.1875 .9688,-.6875 -.125,-.6875 -1.1562,-.2188 -.5312,.0312 -.5,.1562 -.5,-1.125 .5,-.25 .375,-.3438 .625,-1 -.375,-.5938 -1.1875,.2188 -.4375,.25 -.4375,.3438 -.875,-.875 .3438,-.4062 .25,-.4688 .1875,-1.1562 -.5938,-.4062 -.9688,.6562 -.3438,.4062 -.25,.4688 -1.1562,-.4688 .1875,-.5 .0312,-.5312 -.2812,-1.1562 -.6875,-.125 z  m -1.4375,3.7188 c 0.729584,0 1.42228,0.154083 2.0625,0.40625 l -1.2188,2.375 c -0.268638,-0.07869 -0.549774,-0.125 -0.84375,-0.125 -0.582905,0 -1.13261,0.150264 -1.59375,0.4375 l -1.8125,-1.9375 c 0.946343,-0.714581 2.13002,-1.15625 3.40625,-1.15625 z  m 3.0938,.9375 c 1.5392,1.00853 2.5625,2.74185 2.5625,4.71875 0,0.14764 -0.02011,0.292694 -0.03125,0.4375 l -2.625,-.4688 c -0.01121,-0.940347 -0.439258,-1.76802 -1.125,-2.3125 l 1.2188,-2.375 z  m -7.3438,1 1.8125,1.9375 c -0.363304,0.49738 -0.5625,1.11859 -0.5625,1.78125 0,0.244633 0.0073,0.490994 0.0625,0.71875 l -2.4062,1.0938 c -0.194943,-0.571623 -0.3125,-1.17532 -0.3125,-1.8125 0,-1.42616 0.532764,-2.72481 1.40625,-3.71875 z  m 4.25,2.75 c 0.535035,0 0.96875,0.433715 0.96875,0.96875 0,0.535035 -0.433715,0.96875 -0.96875,0.96875 -0.535035,0 -0.96875,-0.433715 -0.96875,-0.96875 0,-0.535035 0.433715,-0.96875 0.96875,-0.96875 z  m 2.8125,2.0625 2.625,.4688 c -0.559934,1.93686 -2.15384,3.46299 -4.125,3.9375 l -.3438,-2.6562 c 0.841382,-0.285354 1.52171,-0.926218 1.84375,-1.75 z  m -5.25,.6562 c 0.514507,0.714654 1.31624,1.19607 2.25,1.25 l .375,2.6562 c -0.05979,0.0019 -0.12725,-1e-06 -0.1875,0 -2.07148,1e-06 -3.89188,-1.11635 -4.875,-2.78125 l 2.4375,-1.125 z " transform="translate(117.75,41.5)"/>
<path style="opacity:.2" id="path4310" d="m 128.4375,42.7188 -.2188,.1875 .625,.9375 .4688,-.25 .4375,-.0938 1.125,0 .0937,.25 .1562,-.1562 -.25,-.5938 -1.125,0 -.4375,.0938 -.4688,.25 -.4062,-.625 z  m -5.6562,.0938 c -2.12167,0 -3.84375,1.72208 -3.84375,3.84375 0,0.08492 0.0258,0.166448 0.0312,0.25 0.1303,-2.00401 1.77575,-3.59375 3.8125,-3.59375 2.03675,0 3.6822,1.58974 3.8125,3.59375 0.005,-0.08355 0.0312,-0.165083 0.0312,-0.25 0,-2.12167 -1.72208,-3.84375 -3.84375,-3.84375 z  m 6.75,2.4688 -.0937,.0312 .25,1.0938 .5,-.0625 .4688,.0625 1.0312,.4375 0,-.5 -1.0312,-.4375 -.4688,-.0625 -.5,.0625 -.1562,-.625 z  m -8.9688,1.625 c -0.0101,0.08156 -0.0312,0.165899 -0.0312,0.25 0,1.17295 1.00805,2.125 2.25,2.125 1.24195,0 2.25,-0.952047 2.25,-2.125 0,-0.0841 -0.0212,-0.168439 -0.0312,-0.25 -0.1305,1.05595 -1.06585,1.875 -2.21875,1.875 -1.1529,0 -2.08825,-0.819045 -2.21875,-1.875 z  m 7.1875,.0312 c -0.13175,2.60925 -2.29552,4.6875 -4.9375,4.6875 -1.69203,1e-06 -3.17092,-0.857841 -4.0625,-2.15625 v 0.5 c 0.89033,1.29312 2.37386,2.15625 4.0625,2.15625 2.72686,0 4.9375,-2.21064 4.9375,-4.9375 0,-0.08488 0.004,-0.166169 0,-0.25 z  m 1.7812,1.6875 -.0937,.4688 .5312,.1562 .4062,.2188 .5938,.6562 .1562,-.3438 -.75,-.8125 -.4062,-.2188 -.4375,-.125 z  m 6.7812,.5625 -.6562,.9688 -.1875,.5 -.0312,.5312 -1.2188,.0312 -.0625,-.5625 l -.1563,-.4688 -.6875,-.9688 -.6875,.125 -.25,1.1562 .0312,.4062 .2188,-1.0625 .6875,-.125 .6875,.9688 .1562,.4688 .0625,.5625 1.2188,-.0312 .0312,-.5312 .1875,-.5 .6562,-.9688 .6875,.125 .25,1.0625 .0312,-.4062 -.2811,-1.1562 -.6875,-.125 z  m -6.875,1.625 -.1562,.0938 .0937,.4375 .4688,-.3125 1,.625 .3438,.375 .2812,.5 1.125,-.4688 -.1562,-.4375 -.9688,.4062 -.2812,-.5 -.3438,-.375 -.4375,-.2812 -.6562,.0312 -.3125,-.0938 z  m -1,.3438 -.2188,.3125 .375,.3125 .3125,.4062 .2812,.6875 .1562,-.1562 -.4375,-1.0312 -.3125,-.4062 -.1562,-.125 z  m 10.3125,0 -.2812,.3438 -.25,.4688 -1,-.4062 -.1562,.4375 1.1562,.4688 .25,-.4688 .2812,-.3438 0,-.5 z  m -11.5938,1.9062 -.375,.5938 .1562,.25 .2188,-.3438 1.1562,.1875 .5,.25 .4062,.3438 .8438,-.875 -.2188,-.2812 -.625,.6562 -.2812,-.2188 -.0625,.0625 -1.0312,-.4375 -.1562,-.0938 -.5312,-.0938 z  m -7.875,.0312 -.0312,.0625 -.1562,.5 .0312,.4062 .125,-.4062 .25,-.4375 -.2188,-.125 z  m 7.0938,0 -.2188,.125 .25,.4375 .1562,.4688 0,-.4688 -.1562,-.5 -.0312,-.0625 z  m 10.3437,.6562 -1,1.9375 c -0.26864,-0.07869 -0.54977,-0.125 -0.84375,-0.125 -0.58291,0 -1.13261,0.150264 -1.59375,0.4375 l -1.5312,-1.625 c -0.0946,0.06312 -0.19087,0.119253 -0.28125,0.1875 l 1.8125,1.9375 c 0.46114,-0.287236 1.01084,-0.4375 1.59375,-0.4375 0.29398,0 0.57511,0.04631 0.84375,0.125 l 1.2188,-2.375 c -0.0695,-0.02737 -0.14804,-0.03751 -0.21875,-0.0625 z  m -14.7188,.2812 v 0.25 l .0312,-.25 h -0.0312 z  m 1.625,0 0,.1562 .0312,-.1562 -.0312,0 z  m 4.5312,1.5938 -.3125,.75 -.5312,-.1875 -.5,0 -1.1562,.25 -.1562,.6875 .0937,.0625 .0625,-.25 1.1562,-.25 .5,0 .5312,.1875 .4688,-1.1562 -.1562,-.0938 z  m 8.75,.75 -.1562,.3438 c 0.68574,0.544483 1.11379,1.37215 1.125,2.3125 l .875,.1562 v -0.5 l -.875,-.1562 c -0.0103,-0.861985 -0.38054,-1.61496 -0.96875,-2.15625 z  m -4.6562,.7188 c -0.24217,0.438222 -0.375,0.932651 -0.375,1.46875 0,0.122317 -0.009,0.254361 0,0.375 0.0231,-0.616264 0.22181,-1.18984 0.5625,-1.65625 l -.1875,-.1875 z  m -3,1.7188 c -0.004,0.08572 -0.0312,0.1633 -0.0312,0.25 0,0.637183 0.11756,1.24088 0.3125,1.8125 l 2.4062,-1.0938 c -0.0368,-0.151837 -0.0563,-0.306399 -0.0625,-0.46875 l -2.3438,1.0625 c -0.16894,-0.495218 -0.2547,-1.01822 -0.2813,-1.5625 z  m 4.6875,0 c -0.0223,0.08151 -0.0312,0.16143 -0.0312,0.25 0,0.535035 0.43371,0.96875 0.96875,0.96875 0.53503,0 0.96875,-0.433715 0.96875,-0.96875 0,-0.08857 -0.009,-0.168491 -0.0312,-0.25 -0.11222,0.410872 -0.49104,0.71875 -0.9375,0.71875 -0.44647,0 -0.82528,-0.307878 -0.9375,-0.71875 z  m -6.4062,.4062 -.5312,.0625 -.5,.1562 -.9688,.6875 .0937,.4375 .875,-.625 .5,-.1562 .5312,-.0625 0,-.5 z  m 2.7187,2.5938 -.25,.125 c 0.11547,0.195548 0.23738,0.383007 0.375,0.5625 h 0.4375 c -0.20566,-0.212244 -0.39189,-0.445475 -0.5625,-0.6875 z  m 5.6562,.0625 c -0.0221,0.0081 -0.0401,0.02366 -0.0625,0.03125 l .0625,.5938 h 0.0937 l -.0937,-.625 z  m -7.7188,.2188 -.3125,.1562 -.2812,.25 .75,0 -.1562,-.4062 z "/>
<path style="opacity:.5;fill:#fff;filter:url(#filter3743);clip-path:url(#clipPath3739)" id="path4312" d="m 37.6562,1 c 1.40006,0.871472 2.34375,2.41701 2.34375,4.1875 0,2.72686 -2.21064,4.9375 -4.9375,4.9375 -1.68864,1e-06 -3.17217,-0.863135 -4.0625,-2.15625 v 2.75 l .75,.5 -.25,.4375 -.1562,.5 .0625,1.0625 .5938,.2812 .7812,-.7812 .2812,-.4062 .0938,-.5312 1.125,.25 -.0312,.5 .0312,.5 .4688,1 h 0.65625 l .4375,-1 .0625,-.5 -.0312,-.5 1.125,-.25 .0938,.5312 .2812,.4062 .7812,.7812 .625,-.2812 .0312,-1.0625 -.1562,-.5 -.25,-.4375 .9688,-.6562 .3125,.4375 .4062,.25 1.0312,.4375 .4688,-.4688 -.4375,-1.0312 -.3125,-.4062 -.375,-.3125 .625,-.9688 .4688,.2812 .4375,.125 1.125,-.0312 .25,-.5938 -.75,-.8125 -.4062,-.2188 -.5312,-.1562 .25,-1.125 .5,.0312 .4688,-.0312 1.0312,-.4688 v -0.65625 l -1.0312,-.4375 -.4688,-.0625 -.5,.0625 -.25,-1.0938 .5312,-.1562 .4062,-.25 .75,-.8125 -.25,-.5938 h -1.125 l -.4375,.0938 -.4688,.25 -.5625,-.8438 h -2.875 z  m -5.4375,.1562 c -0.457524,0.192874 -0.823137,0.550837 -1.03125,1 0.294989,-0.375743 0.64102,-0.723348 1.03125,-1 z  m 2.8125,.1562 c -2.12167,0 -3.84375,1.72209 -3.84375,3.84375 0,2.12166 1.72208,3.84375 3.84375,3.84375 2.12167,0 3.84375,-1.72209 3.84375,-3.84375 0,-2.12166 -1.72208,-3.84375 -3.84375,-3.84375 z  m 0,1.7188 c 1.24195,0 2.25,0.952047 2.25,2.125 0,1.17295 -1.00805,2.125 -2.25,2.125 -1.24195,0 -2.25,-0.952047 -2.25,-2.125 0,-1.17295 1.00805,-2.125 2.25,-2.125 z  m 13.5312,4.6562 -.6562,.9688 -.1875,.5 l -.0312,.5312 -1.2188,.0312 -.0625,-.5625 -.1562,-.4688 -.6875,-.9688 -.6875,.125 -.25,1.1562 .0312,.5312 .1875,.5312 -1.125,.4688 -.2812,-.5 -.3438,-.375 -1,-.625 -.5625,.375 .2188,1.1875 .2188,.4688 .3438,.4062 -.8438,.875 -.4062,-.3438 -.5,-.25 -1.1562,-.1875 -.375,.5938 .625,1 .4062,.3125 .5,.25 -.4688,1.1562 -.5312,-.1875 h -0.5 l -1.1562,.25 -.1562,.6875 1,.6562 .5,.1875 .5312,.0312 v 1.21875 l -.5312,.0625 -.5,.1562 -.9688,.6875 .1562,.6875 1.1562,.25 .5,-.0312 .5312,-.1875 .4688,1.1562 -.4688,.25 -.2812,.25 h 3.21875 c -0.314959,-0.3227 -0.582021,-0.672187 -0.8125,-1.0625 l 2.4375,-1.125 c 0.514507,0.714654 1.31624,1.19607 2.25,1.25 l .125,.9375 h 1.1875 l -.1562,-1.0938 c 0.841382,-0.285354 1.52171,-0.926218 1.84375,-1.75 l 1.0625,.1875 v -1.15625 l -.875,-.1562 c -0.01121,-0.940347 -0.439258,-1.76802 -1.125,-2.3125 l 1.2188,-2.375 c 0.279199,0.18294 0.539028,0.397236 0.78125,0.625 v -3.3125 l -.2812,.3438 -.25,.4688 -1.1562,-.4688 .1875,-.5 .0312,-.5312 -.2812,-1.1562 -.6875,-.125 z  m -1.4375,3.7188 c 0.729584,0 1.42228,0.154083 2.0625,0.40625 l -1.2188,2.375 c -0.268638,-0.07869 -0.549774,-0.125 -0.84375,-0.125 -0.582905,0 -1.13261,0.150264 -1.59375,0.4375 l -1.8125,-1.9375 c 0.946343,-0.714581 2.13002,-1.15625 3.40625,-1.15625 z  m -4.25,1.9375 1.8125,1.9375 c -0.363304,0.49738 -0.5625,1.11859 -0.5625,1.78125 0,0.244633 0.0073,0.490994 0.0625,0.71875 l -2.4062,1.0938 c -0.194943,-0.571623 -0.3125,-1.17532 -0.3125,-1.8125 0,-1.42616 0.532764,-2.72481 1.40625,-3.71875 z  m 4.25,2.75 c 0.535035,0 0.96875,0.433715 0.96875,0.96875 0,0.535035 -0.433715,0.96875 -0.96875,0.96875 -0.535035,0 -0.96875,-0.433715 -0.96875,-0.96875 0,-0.535035 0.433715,-0.96875 0.96875,-0.96875 z " transform="translate(87.75,41.5)"/>
<g style="fill-rule:evenodd" id="g4314" transform="translate(117.75,41.5)">
<path style="opacity:.4;fill:#fff" id="path4316" d="m 3,1 c -1.108,0 -2,0.892 -2,2 v 1 c 0,-1.108 0.892,-2 2,-2 h 16 c 1.108,0 2,0.892 2,2 v -1 c 0,-1.108 -0.892,-2 -2,-2 h -16 z "/>
<path style="opacity:.15" id="path4318" d="m 3,21 c -1.108,0 -2,-0.891999 -2,-2 v -1 c 0,1.108 0.892,2 2,2 h 16 c 1.108,0 2,-0.892 2,-2 v 1 c 0,1.108 -0.892,2 -2,2 h -16 z "/>
</g>
</g>
</g>
<g id="g4326" transform="translate(-54.75,21.5)">
<g id="g4328" transform="translate(117.75,41.5)">
<g style="stroke:none" id="g4330">
<rect width="21" x="0.5" y="0.5" rx="2.5" height="21.5" ry="2.5" style="opacity:.3;fill:url(#linearGradient4354)" id="rect4332"/>
<rect width="20" x="1" y="2" rx="2.3809524" height="20" ry="2.3255813" style="opacity:.5" id="rect4334"/>
</g>
<rect width="20" x="1" y="1" rx="2" height="20" ry="2" style="fill:url(#linearGradient4356);fill-rule:evenodd;stroke:none" id="rect4336"/>
</g>
<g id="g4338" transform="translate(117.75,41.5)">
<rect width="16" x="3" y="3" rx="2" height="16" ry="2" style="opacity:.15;fill:#fff;filter:url(#filter3194-1);stroke:none;clip-path:url(#clipPath2849-2)" id="rect4340"/>
</g>
<g style="stroke:none">
<path style="fill:url(#linearGradient4358);clip-path:url(#clipPath6183)" id="path4342" d="m 4.75,-3.6562 -.4688,1 l -.0312,.4688 .0312,.5312 -1.125,.2188 -.0938,-.4688 -.2812,-.4375 -.7812,-.7812 -.5938,.25 -.0625,1.125 .1562,.4688 .25,.4375 -.9688,.625 -.3125,-.375 -.375,-.3125 -1.0625,-.375 -.4688,.4375 .4375,1.0312 .2812,.4062 .4062,.3125 -.6562,.9375 -.4062,-.25 -.4688,-.0938 h -1.125 l -.2812,.5938 .7812,.8125 .4375,.25 .5,.1562 -.25,1.0938 -.5,-.0625 -.5,.0625 -1,.4375 v 0.65625 l 1,.4688 .5,.0312 .5,-.0312 .25,1.125 -.5,.1562 -.4375,.2188 -.7812,.8125 .2812,.5938 1.125,.0312 .4688,-.125 .4062,-.2812 .6562,.9688 -.4062,.3125 -.2812,.4062 -.4375,1.0312 .4688,.4688 1.0625,-.4375 .375,-.25 .3125,-.4375 .9688,.6562 -.25,.4375 -.1562,.5 .0625,1.0625 .5938,.2812 .7812,-.7812 .2812,-.4062 .0938,-.5312 1.125,.25 -.0312,.5 .0312,.5 .4688,1 h 0.65625 l .4375,-1 .0625,-.5 -.0312,-.5 1.125,-.25 .0938,.5312 .2812,.4062 .7812,.7812 .625,-.2812 .0312,-1.0625 -.1562,-.5 -.25,-.4375 .9688,-.6562 .3125,.4375 .4062,.25 1.0312,.4375 .4688,-.4688 -.4375,-1.0312 -.3125,-.4062 -.375,-.3125 .625,-.9688 .4688,.2812 .4375,.125 1.125,-.0312 .25,-.5938 -.75,-.8125 -.4062,-.2188 -.5312,-.1562 .25,-1.125 .5,.0312 .4688,-.0312 1.0312,-.4688 v -0.65625 l -1.0312,-.4375 -.4688,-.0625 -.5,.0625 -.25,-1.0938 .5312,-.1562 .4062,-.25 .75,-.8125 -.25,-.5938 h -1.125 l -.4375,.0938 -.4688,.25 -.625,-.9375 .375,-.3125 .3125,-.4062 .4375,-1.0312 -.4688,-.4375 -1.0312,.375 -.4062,.3125 -.3125,.375 -.9688,-.625 .25,-.4375 .1562,-.4688 -.0312,-1.125 -.625,-.25 -.7812,.7812 -.2812,.4375 -.0938,.4688 -1.125,-.2188 .0312,-.5312 -.0625,-.4688 -.4375,-1 h -0.65625 z  m .3125,3.9062 c 2.72686,0 4.9375,2.21064 4.9375,4.9375 0,2.72686 -2.21064,4.9375 -4.9375,4.9375 -2.72686,1e-06 -4.9375,-2.21064 -4.9375,-4.9375 1.2e-07,-2.72686 2.21064,-4.9375 4.9375,-4.9375 z  m -.0312,1.0625 c -2.12166,0 -3.84375,1.72209 -3.84375,3.84375 0,2.12166 1.72209,3.84375 3.84375,3.84375 2.12166,0 3.84375,-1.72209 3.84375,-3.84375 0,-2.12166 -1.72209,-3.84375 -3.84375,-3.84375 z  m 0,1.7188 c 1.24195,0 2.25,0.952047 2.25,2.125 0,1.17295 -1.00805,2.125 -2.25,2.125 -1.24195,0 -2.25,-0.952047 -2.25,-2.125 0,-1.17295 1.00805,-2.125 2.25,-2.125 z  m 13.5312,4.6562 -.6562,.9688 -.1875,.5 l -.0312,.5312 -1.2188,.0312 -.0625,-.5625 -.1562,-.4688 -.6875,-.9688 -.6875,.125 -.25,1.1562 .0312,.5312 .1875,.5312 -1.125,.4688 -.2812,-.5 -.3438,-.375 -1,-.625 -.5625,.375 .2188,1.1875 .2188,.4688 .3438,.4062 -.8438,.875 -.4062,-.3438 -.5,-.25 -1.1562,-.1875 -.375,.5938 .625,1 .4062,.3125 .5,.25 -.4688,1.1562 -.5312,-.1875 h -0.5 l -1.1562,.25 -.1562,.6875 1,.6562 .5,.1875 .5312,.0312 v 1.21875 l -.5312,.0625 -.5,.1562 -.9688,.6875 .1562,.6875 1.1562,.25 .5,-.0312 .5312,-.1875 .4688,1.1562 -.4688,.25 -.4062,.3438 -.625,1 .4062,.5625 1.1562,-.1875 .4688,-.25 .4062,-.3438 .875,.8438 -.3438,.4375 -.2188,.4688 -.2188,1.1562 .5938,.375 1,-.625 .3438,-.4062 .25,-.5 1.125,.4688 -.1562,.5312 -.0312,.5 .25,1.1875 .6875,.125 .6875,-1 .1562,-.4688 .0312,-.5625 h 1.25 l .0312,.5312 .1875,.5 .6875,.9688 .6875,-.1562 .25,-1.1562 -.0625,-.5 -.1562,-.5312 1.125,-.4688 .25,.4688 .3438,.4062 1,.625 .5938,-.4062 -.2188,-1.1562 -.25,-.4688 -.3438,-.4062 .875,-.875 .4062,.3438 .4688,.2188 1.1875,.2188 .375,-.5938 -.6562,-1 -.4062,-.3438 -.4688,-.25 .4688,-1.125 .5,.1562 .5312,.0312 1.1562,-.25 .125,-.6875 -.9688,-.6875 -.5,-.1562 -.5312,-.0312 -.0312,-1.25 .5625,-.0312 .4688,-.1875 .9688,-.6875 -.125,-.6875 -1.1562,-.2188 -.5312,.0312 -.5,.1562 -.5,-1.125 .5,-.25 .375,-.3438 .625,-1 -.375,-.5938 -1.1875,.2188 -.4375,.25 -.4375,.3438 -.875,-.875 .3438,-.4062 .25,-.4688 .1875,-1.1562 -.5938,-.4062 -.9688,.6562 -.3438,.4062 -.25,.4688 -1.1562,-.4688 .1875,-.5 .0312,-.5312 -.2812,-1.1562 -.6875,-.125 z  m -1.4375,3.7188 c 0.729584,0 1.42228,0.154083 2.0625,0.40625 l -1.2188,2.375 c -0.268638,-0.07869 -0.549774,-0.125 -0.84375,-0.125 -0.582905,0 -1.13261,0.150264 -1.59375,0.4375 l -1.8125,-1.9375 c 0.946343,-0.714581 2.13002,-1.15625 3.40625,-1.15625 z  m 3.0938,.9375 c 1.5392,1.00853 2.5625,2.74185 2.5625,4.71875 0,0.14764 -0.02011,0.292694 -0.03125,0.4375 l -2.625,-.4688 c -0.01121,-0.940347 -0.439258,-1.76802 -1.125,-2.3125 l 1.2188,-2.375 z  m -7.3438,1 1.8125,1.9375 c -0.363304,0.49738 -0.5625,1.11859 -0.5625,1.78125 0,0.244633 0.0073,0.490994 0.0625,0.71875 l -2.4062,1.0938 c -0.194943,-0.571623 -0.3125,-1.17532 -0.3125,-1.8125 0,-1.42616 0.532764,-2.72481 1.40625,-3.71875 z  m 4.25,2.75 c 0.535035,0 0.96875,0.433715 0.96875,0.96875 0,0.535035 -0.433715,0.96875 -0.96875,0.96875 -0.535035,0 -0.96875,-0.433715 -0.96875,-0.96875 0,-0.535035 0.433715,-0.96875 0.96875,-0.96875 z  m 2.8125,2.0625 2.625,.4688 c -0.559934,1.93686 -2.15384,3.46299 -4.125,3.9375 l -.3438,-2.6562 c 0.841382,-0.285354 1.52171,-0.926218 1.84375,-1.75 z  m -5.25,.6562 c 0.514507,0.714654 1.31624,1.19607 2.25,1.25 l .375,2.6562 c -0.05979,0.0019 -0.12725,-1e-06 -0.1875,0 -2.07148,1e-06 -3.89188,-1.11635 -4.875,-2.78125 l 2.4375,-1.125 z " transform="translate(117.75,41.5)"/>
<path style="opacity:.2" id="path4344" d="m 128.4375,42.7188 -.2188,.1875 .625,.9375 .4688,-.25 .4375,-.0938 1.125,0 .0937,.25 .1562,-.1562 -.25,-.5938 -1.125,0 -.4375,.0938 -.4688,.25 -.4062,-.625 z  m -5.6562,.0938 c -2.12167,0 -3.84375,1.72208 -3.84375,3.84375 0,0.08492 0.0258,0.166448 0.0312,0.25 0.1303,-2.00401 1.77575,-3.59375 3.8125,-3.59375 2.03675,0 3.6822,1.58974 3.8125,3.59375 0.005,-0.08355 0.0312,-0.165083 0.0312,-0.25 0,-2.12167 -1.72208,-3.84375 -3.84375,-3.84375 z  m 6.75,2.4688 -.0937,.0312 .25,1.0938 .5,-.0625 .4688,.0625 1.0312,.4375 0,-.5 -1.0312,-.4375 -.4688,-.0625 -.5,.0625 -.1562,-.625 z  m -8.9688,1.625 c -0.0101,0.08156 -0.0312,0.165899 -0.0312,0.25 0,1.17295 1.00805,2.125 2.25,2.125 1.24195,0 2.25,-0.952047 2.25,-2.125 0,-0.0841 -0.0212,-0.168439 -0.0312,-0.25 -0.1305,1.05595 -1.06585,1.875 -2.21875,1.875 -1.1529,0 -2.08825,-0.819045 -2.21875,-1.875 z  m 7.1875,.0312 c -0.13175,2.60925 -2.29552,4.6875 -4.9375,4.6875 -1.69203,1e-06 -3.17092,-0.857841 -4.0625,-2.15625 v 0.5 c 0.89033,1.29312 2.37386,2.15625 4.0625,2.15625 2.72686,0 4.9375,-2.21064 4.9375,-4.9375 0,-0.08488 0.004,-0.166169 0,-0.25 z  m 1.7812,1.6875 -.0937,.4688 .5312,.1562 .4062,.2188 .5938,.6562 .1562,-.3438 -.75,-.8125 -.4062,-.2188 -.4375,-.125 z  m 6.7812,.5625 -.6562,.9688 -.1875,.5 -.0312,.5312 -1.2188,.0312 -.0625,-.5625 l -.1563,-.4688 -.6875,-.9688 -.6875,.125 -.25,1.1562 .0312,.4062 .2188,-1.0625 .6875,-.125 .6875,.9688 .1562,.4688 .0625,.5625 1.2188,-.0312 .0312,-.5312 .1875,-.5 .6562,-.9688 .6875,.125 .25,1.0625 .0312,-.4062 -.2811,-1.1562 -.6875,-.125 z  m -6.875,1.625 -.1562,.0938 .0937,.4375 .4688,-.3125 1,.625 .3438,.375 .2812,.5 1.125,-.4688 -.1562,-.4375 -.9688,.4062 -.2812,-.5 -.3438,-.375 -.4375,-.2812 -.6562,.0312 -.3125,-.0938 z  m -1,.3438 -.2188,.3125 .375,.3125 .3125,.4062 .2812,.6875 .1562,-.1562 -.4375,-1.0312 -.3125,-.4062 -.1562,-.125 z  m 10.3125,0 -.2812,.3438 -.25,.4688 -1,-.4062 -.1562,.4375 1.1562,.4688 .25,-.4688 .2812,-.3438 0,-.5 z  m -11.5938,1.9062 -.375,.5938 .1562,.25 .2188,-.3438 1.1562,.1875 .5,.25 .4062,.3438 .8438,-.875 -.2188,-.2812 -.625,.6562 -.2812,-.2188 -.0625,.0625 -1.0312,-.4375 -.1562,-.0938 -.5312,-.0938 z  m -7.875,.0312 -.0312,.0625 -.1562,.5 .0312,.4062 .125,-.4062 .25,-.4375 -.2188,-.125 z  m 7.0938,0 -.2188,.125 .25,.4375 .1562,.4688 0,-.4688 -.1562,-.5 -.0312,-.0625 z  m 10.3437,.6562 -1,1.9375 c -0.26864,-0.07869 -0.54977,-0.125 -0.84375,-0.125 -0.58291,0 -1.13261,0.150264 -1.59375,0.4375 l -1.5312,-1.625 c -0.0946,0.06312 -0.19087,0.119253 -0.28125,0.1875 l 1.8125,1.9375 c 0.46114,-0.287236 1.01084,-0.4375 1.59375,-0.4375 0.29398,0 0.57511,0.04631 0.84375,0.125 l 1.2188,-2.375 c -0.0695,-0.02737 -0.14804,-0.03751 -0.21875,-0.0625 z  m -14.7188,.2812 v 0.25 l .0312,-.25 h -0.0312 z  m 1.625,0 0,.1562 .0312,-.1562 -.0312,0 z  m 4.5312,1.5938 -.3125,.75 -.5312,-.1875 -.5,0 -1.1562,.25 -.1562,.6875 .0937,.0625 .0625,-.25 1.1562,-.25 .5,0 .5312,.1875 .4688,-1.1562 -.1562,-.0938 z  m 8.75,.75 -.1562,.3438 c 0.68574,0.544483 1.11379,1.37215 1.125,2.3125 l .875,.1562 v -0.5 l -.875,-.1562 c -0.0103,-0.861985 -0.38054,-1.61496 -0.96875,-2.15625 z  m -4.6562,.7188 c -0.24217,0.438222 -0.375,0.932651 -0.375,1.46875 0,0.122317 -0.009,0.254361 0,0.375 0.0231,-0.616264 0.22181,-1.18984 0.5625,-1.65625 l -.1875,-.1875 z  m -3,1.7188 c -0.004,0.08572 -0.0312,0.1633 -0.0312,0.25 0,0.637183 0.11756,1.24088 0.3125,1.8125 l 2.4062,-1.0938 c -0.0368,-0.151837 -0.0563,-0.306399 -0.0625,-0.46875 l -2.3438,1.0625 c -0.16894,-0.495218 -0.2547,-1.01822 -0.2813,-1.5625 z  m 4.6875,0 c -0.0223,0.08151 -0.0312,0.16143 -0.0312,0.25 0,0.535035 0.43371,0.96875 0.96875,0.96875 0.53503,0 0.96875,-0.433715 0.96875,-0.96875 0,-0.08857 -0.009,-0.168491 -0.0312,-0.25 -0.11222,0.410872 -0.49104,0.71875 -0.9375,0.71875 -0.44647,0 -0.82528,-0.307878 -0.9375,-0.71875 z  m -6.4062,.4062 -.5312,.0625 -.5,.1562 -.9688,.6875 .0937,.4375 .875,-.625 .5,-.1562 .5312,-.0625 0,-.5 z  m 2.7187,2.5938 -.25,.125 c 0.11547,0.195548 0.23738,0.383007 0.375,0.5625 h 0.4375 c -0.20566,-0.212244 -0.39189,-0.445475 -0.5625,-0.6875 z  m 5.6562,.0625 c -0.0221,0.0081 -0.0401,0.02366 -0.0625,0.03125 l .0625,.5938 h 0.0937 l -.0937,-.625 z  m -7.7188,.2188 -.3125,.1562 -.2812,.25 .75,0 -.1562,-.4062 z "/>
<path style="opacity:.5;fill:#fff;filter:url(#filter3743);clip-path:url(#clipPath3739)" id="path4346" d="m 37.6562,1 c 1.40006,0.871472 2.34375,2.41701 2.34375,4.1875 0,2.72686 -2.21064,4.9375 -4.9375,4.9375 -1.68864,1e-06 -3.17217,-0.863135 -4.0625,-2.15625 v 2.75 l .75,.5 -.25,.4375 -.1562,.5 .0625,1.0625 .5938,.2812 .7812,-.7812 .2812,-.4062 .0938,-.5312 1.125,.25 -.0312,.5 .0312,.5 .4688,1 h 0.65625 l .4375,-1 .0625,-.5 -.0312,-.5 1.125,-.25 .0938,.5312 .2812,.4062 .7812,.7812 .625,-.2812 .0312,-1.0625 -.1562,-.5 -.25,-.4375 .9688,-.6562 .3125,.4375 .4062,.25 1.0312,.4375 .4688,-.4688 -.4375,-1.0312 -.3125,-.4062 -.375,-.3125 .625,-.9688 .4688,.2812 .4375,.125 1.125,-.0312 .25,-.5938 -.75,-.8125 -.4062,-.2188 -.5312,-.1562 .25,-1.125 .5,.0312 .4688,-.0312 1.0312,-.4688 v -0.65625 l -1.0312,-.4375 -.4688,-.0625 -.5,.0625 -.25,-1.0938 .5312,-.1562 .4062,-.25 .75,-.8125 -.25,-.5938 h -1.125 l -.4375,.0938 -.4688,.25 -.5625,-.8438 h -2.875 z  m -5.4375,.1562 c -0.457524,0.192874 -0.823137,0.550837 -1.03125,1 0.294989,-0.375743 0.64102,-0.723348 1.03125,-1 z  m 2.8125,.1562 c -2.12167,0 -3.84375,1.72209 -3.84375,3.84375 0,2.12166 1.72208,3.84375 3.84375,3.84375 2.12167,0 3.84375,-1.72209 3.84375,-3.84375 0,-2.12166 -1.72208,-3.84375 -3.84375,-3.84375 z  m 0,1.7188 c 1.24195,0 2.25,0.952047 2.25,2.125 0,1.17295 -1.00805,2.125 -2.25,2.125 -1.24195,0 -2.25,-0.952047 -2.25,-2.125 0,-1.17295 1.00805,-2.125 2.25,-2.125 z  m 13.5312,4.6562 -.6562,.9688 -.1875,.5 l -.0312,.5312 -1.2188,.0312 -.0625,-.5625 -.1562,-.4688 -.6875,-.9688 -.6875,.125 -.25,1.1562 .0312,.5312 .1875,.5312 -1.125,.4688 -.2812,-.5 -.3438,-.375 -1,-.625 -.5625,.375 .2188,1.1875 .2188,.4688 .3438,.4062 -.8438,.875 -.4062,-.3438 -.5,-.25 -1.1562,-.1875 -.375,.5938 .625,1 .4062,.3125 .5,.25 -.4688,1.1562 -.5312,-.1875 h -0.5 l -1.1562,.25 -.1562,.6875 1,.6562 .5,.1875 .5312,.0312 v 1.21875 l -.5312,.0625 -.5,.1562 -.9688,.6875 .1562,.6875 1.1562,.25 .5,-.0312 .5312,-.1875 .4688,1.1562 -.4688,.25 -.2812,.25 h 3.21875 c -0.314959,-0.3227 -0.582021,-0.672187 -0.8125,-1.0625 l 2.4375,-1.125 c 0.514507,0.714654 1.31624,1.19607 2.25,1.25 l .125,.9375 h 1.1875 l -.1562,-1.0938 c 0.841382,-0.285354 1.52171,-0.926218 1.84375,-1.75 l 1.0625,.1875 v -1.15625 l -.875,-.1562 c -0.01121,-0.940347 -0.439258,-1.76802 -1.125,-2.3125 l 1.2188,-2.375 c 0.279199,0.18294 0.539028,0.397236 0.78125,0.625 v -3.3125 l -.2812,.3438 -.25,.4688 -1.1562,-.4688 .1875,-.5 .0312,-.5312 -.2812,-1.1562 -.6875,-.125 z  m -1.4375,3.7188 c 0.729584,0 1.42228,0.154083 2.0625,0.40625 l -1.2188,2.375 c -0.268638,-0.07869 -0.549774,-0.125 -0.84375,-0.125 -0.582905,0 -1.13261,0.150264 -1.59375,0.4375 l -1.8125,-1.9375 c 0.946343,-0.714581 2.13002,-1.15625 3.40625,-1.15625 z  m -4.25,1.9375 1.8125,1.9375 c -0.363304,0.49738 -0.5625,1.11859 -0.5625,1.78125 0,0.244633 0.0073,0.490994 0.0625,0.71875 l -2.4062,1.0938 c -0.194943,-0.571623 -0.3125,-1.17532 -0.3125,-1.8125 0,-1.42616 0.532764,-2.72481 1.40625,-3.71875 z  m 4.25,2.75 c 0.535035,0 0.96875,0.433715 0.96875,0.96875 0,0.535035 -0.433715,0.96875 -0.96875,0.96875 -0.535035,0 -0.96875,-0.433715 -0.96875,-0.96875 0,-0.535035 0.433715,-0.96875 0.96875,-0.96875 z " transform="translate(87.75,41.5)"/>
<g style="fill-rule:evenodd" id="g4348" transform="translate(117.75,41.5)">
<path style="opacity:.4;fill:#fff" id="path4350" d="m 3,1 c -1.108,0 -2,0.892 -2,2 v 1 c 0,-1.108 0.892,-2 2,-2 h 16 c 1.108,0 2,0.892 2,2 v -1 c 0,-1.108 -0.892,-2 -2,-2 h -16 z "/>
<path style="opacity:.15" id="path4352" d="m 3,21 c -1.108,0 -2,-0.891999 -2,-2 v -1 c 0,1.108 0.892,2 2,2 h 16 c 1.108,0 2,-0.892 2,-2 v 1 c 0,1.108 -0.892,2 -2,2 h -16 z "/>
</g>
</g>
</g>
<rect width="24" x="10" y="42" rx="1" height="6" ry="1" style="opacity:.4;stroke:none" id="rect4360"/>
<g id="g3129" transform="translate(11,51)">
<g id="layer1-1">
<g style="stroke:none">
<g id="g3337">
<rect width="21" x="0.5" y="0.5" rx="2.5" height="21.5" ry="2.5" style="opacity:.3;fill:url(#linearGradient3335)" id="rect3371"/>
<rect width="20" x="1" y="2" rx="2.3809524" height="20" ry="2.3255813" style="opacity:.5" id="rect2553"/>
</g>
<g style="fill-rule:evenodd">
<rect width="20" x="0.99999952" y="1" rx="2" height="20" ry="2" style="fill:url(#linearGradient3181)" id="rect3173"/>
<path style="fill:#ececec" id="rect3183" d="m 3,1 c -1.108,0 -2,0.892 -2,2 v 1 c 0,-1.108 0.892,-2 2,-2 h 16 c 1.108,0 2,0.892 2,2 v -1 c 0,-1.108 -0.892,-2 -2,-2 h -16 z "/>
<path style="fill:#8b8b8b" id="path3188" d="m 3,21 c -1.108,0 -2,-0.892 -2,-2 v -1 c 0,1.108 0.892,2 2,2 h 16 c 1.108,0 2,-0.892 2,-2 v 1 c 0,1.108 -0.892,2 -2,2 h -16 z "/>
</g>
</g>
</g>
<g id="layer2-0">
<path style="fill:url(#linearGradient3274);fill-rule:evenodd;stroke:url(#linearGradient3266);stroke-linejoin:round;stroke-width:.5" id="rect3250" d="m 4.1468,3.7509 .7959,0 c 0.220454,0 0.397931,0.161554 0.397931,0.362229 v 13.7647 c 0,0.200675 -0.177477,0.362229 -0.397931,0.362229 h -0.795864 c -0.220454,0 -0.397931,-0.161554 -0.397931,-0.362229 v -13.7647 c 0,-0.200675 0.177477,-0.362229 0.397931,-0.362229 z  m 5.9694,.0043 .7959,0 c 0.220454,0 0.397932,0.161554 0.397932,0.362229 v 13.7647 c 0,0.200675 -0.177478,0.362228 -0.397932,0.362228 h -0.795864 c -0.220454,0 -0.397931,-0.161553 -0.397931,-0.362228 v -13.7647 c 0,-0.200675 0.177477,-0.362229 0.397931,-0.362229 z  m 6.0135,-.0043 .7959,0 c 0.220454,0 0.397931,0.161554 0.397931,0.362229 v 13.7647 c 0,0.200675 -0.177477,0.362229 -0.397931,0.362229 h -0.795863 c -0.220454,0 -0.397932,-0.161554 -0.397932,-0.362229 v -13.7647 c 0,-0.200675 0.177478,-0.362229 0.397932,-0.362229 z "/>
<g style="stroke-width:3.586" id="g3624" transform="matrix(0.2855208,0,0,0.2722949,-4.6901085,5.020316)">
<rect width="14" x="46.201412" y="20.159012" rx="2" height="22" ry="2" style="fill:url(#linearGradient3629);fill-rule:evenodd;stroke:url(#linearGradient3639);stroke-linejoin:round" id="rect3630"/>
<path style="opacity:.1;fill:none;stroke:#000" id="path3688" d="m 47.9479,31.5406 10.5071,0"/>
</g>
<g style="stroke-width:3.586" id="g3641" transform="matrix(0.2855208,0,0,0.2722949,-10.690108,0.0143844)">
<rect width="14" x="46.201412" y="20.159012" rx="2" height="22" ry="2" style="fill:url(#linearGradient3647);fill-rule:evenodd;stroke:url(#linearGradient3649);stroke-linejoin:round" id="rect3643"/>
<path style="opacity:.1;fill:none;stroke:#000" id="path3645" d="m 47.9479,31.5406 10.5071,0"/>
</g>
<g style="stroke-width:3.586" id="g3651" transform="matrix(0.2855208,0,0,0.2722949,1.3098915,2.0143844)">
<rect width="14" x="46.201412" y="20.159012" rx="2" height="22" ry="2" style="fill:url(#linearGradient3657);fill-rule:evenodd;stroke:url(#linearGradient3659);stroke-linejoin:round" id="rect3653"/>
<path style="opacity:.1;fill:none;stroke:#000" id="path3655" d="m 47.9479,31.5406 10.5071,0"/>
</g>
</g>
</g>
<g style="fill:#fff;font-family:Liberation Sans;text-align:start;stroke:none;line-height:125%;font-weight:bold;font-size:2.8883791px" id="text3149">
<path id="path3154" d="m 14.4552,45.8092 -.1763,-.5077 -.7574,0 -.1763,.5077 -.4161,0 .7249,-1.9872 .4908,0 .7221,1.9872 -.4118,0 m -.4654,-1.392 c -0.01128,-0.03291 -0.02257,-0.06581 -0.03385,-0.09872 -0.01034,-0.03385 -0.01975,-0.0644 -0.02821,-0.09167 -0.0075,-0.0282 -0.0141,-0.05124 -0.01974,-0.06911 -0.0047,-0.01786 -0.0075,-0.02773 -0.0085,-0.02962 -0.000941,0.0028 -0.0038,0.01317 -0.0085,0.03103 -0.0047,0.01787 -0.01128,0.04043 -0.01974,0.0677 -0.0075,0.02727 -0.01693,0.05783 -0.02821,0.09167 -0.01034,0.03291 -0.02116,0.06582 -0.03244,0.09872 l -.196,.5712 h 0.571188 l -.196,-.5712"/>
<path id="path3156" d="m 16.7456,45.8092 -.4189,0 -.2426,-.9308 c -0.0075,-0.02915 -0.01505,-0.06158 -0.02257,-0.09731 -0.0075,-0.03667 -0.01457,-0.07099 -0.02116,-0.102955 l -.0226,-.1128 c -0.0085,0.03761 -0.01693,0.07522 -0.02539,0.112827 -0.0075,0.03197 -0.01551,0.06629 -0.02398,0.102955 -0.0085,0.03667 -0.01646,0.07005 -0.02398,0.100134 l -.2454,.928 h -0.418871 l -.3949,-1.526 h 0.37233 l .1932,.897 c 0.0056,0.02539 0.01175,0.05406 0.01834,0.08603 0.0066,0.03103 0.01269,0.06018 0.01833,0.08744 0.0066,0.03197 0.01363,0.06394 0.02115,0.0959 0.0066,-0.03573 0.01316,-0.07052 0.01975,-0.104365 0.0056,-0.02915 0.01175,-0.05876 0.01834,-0.08885 0.0066,-0.03009 0.01222,-0.05547 0.01692,-0.07616 l .2398,-.897 h 0.424512 l .2341,.897 c 0.0066,0.02445 0.01316,0.05218 0.01975,0.08321 0.0066,0.03103 0.01269,0.06018 0.01833,0.08744 0.0066,0.03197 0.01316,0.06488 0.01975,0.09872 0.0075,-0.03385 0.01457,-0.06676 0.02116,-0.09872 0.0056,-0.02727 0.01175,-0.05641 0.01834,-0.08744 0.0066,-0.03103 0.01269,-0.05876 0.01833,-0.08321 l .2017,-.897 h 0.366689 l -.4005,1.526"/>
<path id="path3158" d="m 18.3294,45.8092 0,-.8561 c -1e-06,-0.05923 -0.0047,-0.113297 -0.0141,-0.16219 -0.0094,-0.04983 -0.02492,-0.09214 -0.04654,-0.12693 -0.02163,-0.03573 -0.04983,-0.06346 -0.08462,-0.08321 -0.03479,-0.01974 -0.0771,-0.02962 -0.126931,-0.02962 -0.04795,2e-06 -0.09167,0.01081 -0.131161,0.03244 -0.03855,0.02069 -0.07193,0.05077 -0.100135,0.09026 -0.02821,0.03855 -0.0503,0.08509 -0.06629,0.139624 -0.01504,0.05359 -0.02257,0.112828 -0.02257,0.177703 v 0.817998 h -0.396306 v -1.18469 c 0,-0.03291 -0.00047,-0.06676 -0.0014,-0.101544 -1e-06,-0.03479 -0.000941,-0.0677 -0.0028,-0.09872 -0.00094,-0.03197 -0.0019,-0.06017 -0.0028,-0.08462 -0.00094,-0.02538 -0.0024,-0.04419 -0.0042,-0.05641 h 0.377972 c 0.0019,0.01128 0.0038,0.02962 0.0056,0.055 0.0019,0.02445 0.0038,0.05171 0.0056,0.0818 0.0019,0.03009 0.0033,0.06018 0.0042,0.09026 0.0019,0.03009 0.0028,0.05548 0.0028,0.07616 h 0.0056 c 0.05359,-0.116587 0.120818,-0.201207 0.201678,-0.253862 0.08086,-0.05265 0.177232,-0.07898 0.28912,-0.07898 0.09214,2e-06 0.16971,0.01505 0.232707,0.04513 0.06393,0.03009 0.115646,0.07146 0.155137,0.12411 0.04043,0.05265 0.06958,0.114709 0.08744,0.186165 0.01786,0.07146 0.02679,0.148557 0.0268,0.231296 v 0.968905 h -0.394896"/>
<path id="path3160" d="m 21.5196,45.2366 c -2e-06,0.09026 -0.01646,0.172532 -0.04936,0.24681 -0.03291,0.07334 -0.08415,0.136333 -0.153727,0.188986 -0.06864,0.05265 -0.157019,0.09355 -0.265144,0.122699 -0.107187,0.02821 -0.235058,0.04231 -0.383613,0.04231 -0.131633,0 -0.247751,-0.01175 -0.348354,-0.03526 -0.100605,-0.02351 -0.187106,-0.05829 -0.259503,-0.104365 -0.07146,-0.04607 -0.129752,-0.102955 -0.174882,-0.170651 -0.04419,-0.06864 -0.07616,-0.147146 -0.0959,-0.235527 l .4019,-.0663 c 0.01128,0.04419 0.02774,0.08462 0.04936,0.121289 0.02162,0.03667 0.05124,0.06864 0.08885,0.0959 0.03855,0.02633 0.08603,0.04701 0.142445,0.06206 0.05735,0.0141 0.126459,0.02116 0.20732,0.02115 0.141033,1e-06 0.248689,-0.02115 0.322968,-0.06346 0.07522,-0.04325 0.112826,-0.110476 0.112827,-0.201679 -1e-06,-0.05453 -0.01505,-0.09919 -0.04513,-0.133982 -0.03009,-0.03479 -0.07005,-0.06347 -0.119879,-0.08603 -0.04983,-0.02257 -0.107187,-0.04137 -0.172061,-0.05641 -0.06488,-0.01504 -0.132573,-0.02962 -0.203089,-0.04372 -0.05642,-0.01316 -0.112829,-0.0268 -0.169241,-0.0409 -0.05642,-0.0141 -0.110478,-0.03103 -0.16219,-0.05077 -0.05077,-0.01974 -0.09825,-0.04325 -0.142444,-0.07052 -0.04419,-0.02726 -0.08274,-0.06064 -0.115648,-0.100134 -0.03197,-0.04043 -0.05735,-0.08744 -0.07616,-0.141034 -0.01786,-0.05359 -0.0268,-0.116587 -0.0268,-0.188986 0,-0.09872 0.01974,-0.183343 0.05923,-0.253861 0.03949,-0.07052 0.09402,-0.127869 0.1636,-0.172062 0.07052,-0.04513 0.154197,-0.07804 0.251041,-0.09872 0.09684,-0.02068 0.202618,-0.03102 0.317326,-0.03103 0.129751,2e-06 0.240697,0.01034 0.332841,0.03103 0.09308,0.01975 0.17065,0.0503 0.232706,0.09167 0.06299,0.04137 0.112356,0.09355 0.148086,0.156548 0.03667,0.06206 0.06346,0.134925 0.08039,0.218603 l -.4034,.055 c -0.02069,-0.08556 -0.063,-0.149965 -0.126931,-0.193217 -0.063,-0.04325 -0.153728,-0.06487 -0.272196,-0.06488 -0.07334,2e-06 -0.134453,0.0066 -0.183344,0.01975 -0.04795,0.01222 -0.0865,0.02915 -0.115648,0.05077 -0.02821,0.02163 -0.04842,0.04701 -0.06065,0.07616 -0.01222,0.02821 -0.01834,0.0583 -0.01833,0.09026 -1e-06,0.04889 0.01175,0.08932 0.03526,0.12129 0.02351,0.03103 0.05641,0.05736 0.09872,0.07898 0.04231,0.02069 0.09261,0.03855 0.150907,0.05359 0.05923,0.0141 0.124109,0.02868 0.194627,0.04372 0.06205,0.01317 0.123639,0.02727 0.184755,0.04231 0.06111,0.0141 0.119407,0.03103 0.174882,0.05077 0.05547,0.01975 0.107184,0.04372 0.155138,0.07193 0.04795,0.02821 0.08932,0.063 0.12411,0.104366 0.03573,0.04043 0.06346,0.08885 0.08321,0.145265 0.02068,0.05641 0.03102,0.12317 0.03103,0.200268"/>
<path id="path3162" d="m 22.4617,45.8374 c -0.110007,0 -0.209201,-0.01598 -0.297582,-0.04795 -0.08744,-0.03291 -0.162189,-0.08227 -0.224244,-0.148086 -0.06205,-0.06676 -0.109537,-0.149966 -0.142444,-0.24963 -0.03291,-0.100604 -0.04936,-0.218132 -0.04936,-0.352586 -1e-06,-0.145734 0.01927,-0.268433 0.05782,-0.368099 0.03949,-0.09966 0.09214,-0.180052 0.157958,-0.241168 0.06676,-0.06205 0.143384,-0.106714 0.229885,-0.133982 0.0865,-0.02726 0.177703,-0.0409 0.273607,-0.0409 0.120348,1e-06 0.222833,0.02116 0.307454,0.06347 0.08556,0.04137 0.155606,0.09967 0.210141,0.174882 0.05453,0.07522 0.09449,0.165482 0.119879,0.270786 0.02538,0.104366 0.03808,0.220014 0.03808,0.346944 v 0.01128 h -0.978777 c 0,0.06394 0.0056,0.12364 0.01692,0.179113 0.01128,0.05453 0.02962,0.102015 0.055,0.142444 0.02538,0.03949 0.05829,0.07099 0.09872,0.09449 0.04043,0.02257 0.08932,0.03385 0.146675,0.03385 0.06958,1e-06 0.12646,-0.01457 0.170651,-0.04372 0.04419,-0.03009 0.07569,-0.07616 0.09449,-0.138214 l .3737,.0324 c -0.01693,0.04325 -0.0409,0.08932 -0.07193,0.138214 -0.03009,0.04889 -0.07052,0.09402 -0.121289,0.135393 -0.05077,0.04043 -0.114239,0.07428 -0.190396,0.101544 -0.07522,0.02633 -0.166891,0.03949 -0.275017,0.03949 m 0,-1.3328 c -0.04043,1e-06 -0.07851,0.0071 -0.114237,0.02116 -0.03479,0.01317 -0.06535,0.03479 -0.09167,0.06488 -0.02539,0.02915 -0.04607,0.06723 -0.06206,0.114238 -0.01598,0.04701 -0.02492,0.103426 -0.0268,0.169241 h 0.592343 c -0.0075,-0.123169 -0.03714,-0.215311 -0.08885,-0.276427 -0.05171,-0.06205 -0.12129,-0.09308 -0.208731,-0.09308"/>
<path id="path3164" d="m 23.8354,45.8346 c -0.116589,0 -0.206381,-0.0315 -0.269376,-0.09449 -0.063,-0.06394 -0.09449,-0.160308 -0.09449,-0.28912 v -0.899798 h -0.193217 v -0.267965 h 0.212961 l .1241,-.3582 h 0.248221 v 0.358226 h 0.289119 v 0.267965 h -0.289119 v 0.792612 c -1e-06,0.07428 0.0141,0.129282 0.04231,0.16501 0.02821,0.03479 0.07193,0.05218 0.131162,0.05218 0.02445,0 0.04654,-0.0019 0.06629,-0.0056 0.01974,-0.0038 0.04184,-0.0085 0.06629,-0.0141 v 0.245399 c -0.04889,0.01598 -0.100606,0.02774 -0.155138,0.03526 -0.05453,0.0085 -0.114238,0.01269 -0.179113,0.01269"/>
<path id="path3166" d="m 24.8001,45.8346 c -0.116589,0 -0.206381,-0.0315 -0.269375,-0.09449 -0.063,-0.06394 -0.09449,-0.160308 -0.09449,-0.28912 v -0.899798 h -0.193217 v -0.267965 h 0.212961 l .1241,-.3582 h 0.248221 v 0.358226 h 0.28912 v 0.267965 h -0.28912 v 0.792612 c -1e-06,0.07428 0.0141,0.129282 0.04231,0.16501 0.02821,0.03479 0.07193,0.05218 0.131162,0.05218 0.02445,0 0.04654,-0.0019 0.06629,-0.0056 0.01974,-0.0038 0.04184,-0.0085 0.06629,-0.0141 v 0.245399 c -0.04889,0.01598 -0.100606,0.02774 -0.155138,0.03526 -0.05453,0.0085 -0.114238,0.01269 -0.179113,0.01269"/>
<path id="path3168" d="m 25.3741,44.0082 0,-.2919 .3963,0 0,.2919 -.3963,0 m 0,1.801 0,-1.526 .3963,0 0,1.526 -.3963,0"/>
<path id="path3170" d="m 27.1638,45.8092 0,-.8561 c -1e-06,-0.05923 -0.0047,-0.113297 -0.0141,-0.16219 -0.0094,-0.04983 -0.02492,-0.09214 -0.04654,-0.12693 -0.02163,-0.03573 -0.04983,-0.06346 -0.08462,-0.08321 -0.03479,-0.01974 -0.0771,-0.02962 -0.12693,-0.02962 -0.04795,2e-06 -0.09167,0.01081 -0.131162,0.03244 -0.03855,0.02069 -0.07193,0.05077 -0.100134,0.09026 -0.02821,0.03855 -0.0503,0.08509 -0.06629,0.139624 -0.01505,0.05359 -0.02257,0.112828 -0.02257,0.177703 v 0.817998 h -0.396306 v -1.18469 c 0,-0.03291 -0.00047,-0.06676 -0.0014,-0.101544 0,-0.03479 -0.000941,-0.0677 -0.0028,-0.09872 -0.00094,-0.03197 -0.0019,-0.06017 -0.0028,-0.08462 -0.00094,-0.02538 -0.0023,-0.04419 -0.0042,-0.05641 h 0.377972 c 0.0019,0.01128 0.0038,0.02962 0.0056,0.055 0.0019,0.02445 0.0038,0.05171 0.0056,0.0818 0.0019,0.03009 0.0033,0.06018 0.0042,0.09026 0.0019,0.03009 0.0028,0.05548 0.0028,0.07616 h 0.0056 c 0.05359,-0.116587 0.120818,-0.201207 0.201679,-0.253862 0.08086,-0.05265 0.177231,-0.07898 0.28912,-0.07898 0.09214,2e-06 0.169709,0.01505 0.232706,0.04513 0.06393,0.03009 0.115646,0.07146 0.155137,0.12411 0.04043,0.05265 0.06958,0.114709 0.08744,0.186165 0.01786,0.07146 0.02679,0.148557 0.0268,0.231296 v 0.968905 h -0.394896"/>
<path id="path3172" d="m 28.5798,46.4213 c -0.100605,-1e-06 -0.189457,-0.01034 -0.266555,-0.03103 -0.07616,-0.01975 -0.141504,-0.04795 -0.196037,-0.08462 -0.05359,-0.03573 -0.09684,-0.07898 -0.129751,-0.129751 -0.03197,-0.04983 -0.05406,-0.104836 -0.06629,-0.16501 l .3963,-.0465 c 0.0141,0.06112 0.04419,0.109067 0.09026,0.143855 0.04701,0.03479 0.108126,0.05218 0.183345,0.05218 0.04701,-1e-06 0.08979,-0.0066 0.128341,-0.01975 0.03949,-0.01316 0.07287,-0.03573 0.100134,-0.0677 0.02821,-0.03103 0.04983,-0.0724 0.06488,-0.12411 0.01598,-0.05171 0.02397,-0.115648 0.02398,-0.191807 -1e-06,-0.02633 -1e-06,-0.05312 0,-0.08039 -1e-06,-0.02727 0.000469,-0.05218 0.0014,-0.07475 0.000939,-0.02633 0.0014,-0.05171 0.0014,-0.07616 h -0.0028 c -0.04607,0.09872 -0.110947,0.170182 -0.194627,0.214372 -0.08274,0.04419 -0.181464,0.06629 -0.296171,0.06629 -0.09684,0 -0.180525,-0.0188 -0.251041,-0.05641 -0.06958,-0.03855 -0.127401,-0.09167 -0.173472,-0.159369 -0.04607,-0.06864 -0.08039,-0.149966 -0.102955,-0.243989 -0.02163,-0.09496 -0.03244,-0.199328 -0.03244,-0.313096 0,-0.117527 0.01175,-0.223773 0.03526,-0.318737 0.02351,-0.0959 0.05923,-0.178172 0.107186,-0.24681 0.04889,-0.06864 0.110006,-0.121288 0.183344,-0.157958 0.07428,-0.03761 0.162189,-0.05641 0.263734,-0.05641 0.101544,2e-06 0.192275,0.02163 0.272196,0.06488 0.08086,0.04325 0.143853,0.113299 0.188985,0.210141 h 0.0071 c -1e-06,-0.01974 0.000469,-0.04231 0.0014,-0.0677 0.0019,-0.02632 0.0038,-0.05124 0.0056,-0.07475 0.0019,-0.02444 0.0038,-0.04607 0.0056,-0.06488 0.0028,-0.0188 0.0052,-0.0315 0.0071,-0.03808 h 0.375151 c -0.0019,0.03385 -0.0038,0.08133 -0.0056,0.142445 -0.0019,0.06112 -0.0028,0.131163 -0.0028,0.210141 v 1.12686 c -2e-06,0.110946 -0.01599,0.20732 -0.04795,0.28912 -0.03197,0.08274 -0.07898,0.151376 -0.141034,0.205909 -0.06112,0.05453 -0.136804,0.09543 -0.227065,0.1227 -0.08932,0.02727 -0.191337,0.0409 -0.306044,0.0409 m .3314,-1.3962 c -1e-06,-0.0959 -0.0094,-0.175822 -0.02821,-0.239758 -0.01881,-0.06393 -0.04325,-0.115177 -0.07334,-0.153727 -0.03009,-0.03855 -0.06488,-0.06582 -0.104366,-0.0818 -0.03855,-0.01598 -0.07757,-0.02398 -0.117058,-0.02398 -0.05077,1e-06 -0.0959,0.0099 -0.135393,0.02962 -0.03855,0.01975 -0.07146,0.0503 -0.09872,0.09167 -0.02727,0.04137 -0.04795,0.09402 -0.06206,0.157958 -0.0141,0.06394 -0.02116,0.140095 -0.02116,0.228475 0,0.164541 0.02633,0.28865 0.07898,0.37233 0.05265,0.08368 0.131161,0.125521 0.235527,0.125521 0.03949,0 0.07851,-0.0075 0.117059,-0.02257 0.03949,-0.01598 0.07475,-0.04325 0.105775,-0.0818 0.03103,-0.03949 0.05594,-0.09167 0.07475,-0.156548 0.0188,-0.06488 0.02821,-0.146674 0.02821,-0.245399"/>
<path id="path3174" d="m 30.9929,45.3635 c -2e-06,0.07334 -0.01552,0.139154 -0.04654,0.197448 -0.03009,0.05829 -0.07428,0.108126 -0.132572,0.149496 -0.05829,0.04043 -0.129752,0.07193 -0.214372,0.09449 -0.08462,0.02163 -0.180994,0.03244 -0.28912,0.03244 -0.09684,0 -0.184285,-0.0071 -0.262323,-0.02116 -0.07804,-0.0141 -0.146676,-0.03714 -0.20591,-0.06911 -0.05829,-0.03291 -0.107186,-0.07522 -0.146675,-0.126931 -0.03949,-0.05171 -0.06911,-0.115648 -0.08885,-0.191806 l .3484,-.0522 c 0.01128,0.04231 0.0268,0.07663 0.04654,0.102955 0.01974,0.02633 0.04419,0.04654 0.07334,0.06065 0.02915,0.0141 0.063,0.02351 0.101545,0.02821 0.03949,0.0047 0.08415,0.0071 0.133982,0.0071 0.04513,0 0.08697,-0.0023 0.125521,-0.0071 0.03949,-0.0056 0.07334,-0.01457 0.101544,-0.0268 0.02915,-0.01316 0.05171,-0.03103 0.0677,-0.05359 0.01598,-0.02351 0.02397,-0.05265 0.02398,-0.08744 -2e-06,-0.03949 -0.01175,-0.07052 -0.03526,-0.09308 -0.02257,-0.02351 -0.05406,-0.04231 -0.09449,-0.05641 -0.03949,-0.01504 -0.0865,-0.02774 -0.141034,-0.03808 -0.05359,-0.01128 -0.110948,-0.02398 -0.172062,-0.03808 -0.06394,-0.0141 -0.126931,-0.03103 -0.188985,-0.05077 -0.06206,-0.01974 -0.117529,-0.04654 -0.166421,-0.08039 -0.04889,-0.03385 -0.08838,-0.07663 -0.118468,-0.128341 -0.03009,-0.05265 -0.04513,-0.118937 -0.04513,-0.198858 0,-0.0724 0.0141,-0.136802 0.04231,-0.193216 0.02821,-0.05735 0.06958,-0.105775 0.12411,-0.145266 0.05453,-0.04043 0.121759,-0.07099 0.201679,-0.09167 0.08086,-0.02162 0.173471,-0.03244 0.277837,-0.03244 0.08274,2e-06 0.159838,0.008 0.231296,0.02398 0.07146,0.01505 0.135392,0.03949 0.191807,0.07334 0.05641,0.03291 0.103423,0.07522 0.141034,0.126931 0.03855,0.05171 0.06534,0.114238 0.08039,0.187575 l -.3512,.0367 c -0.0066,-0.03667 -0.01834,-0.06675 -0.03526,-0.09026 -0.01693,-0.02445 -0.03808,-0.04372 -0.06347,-0.05782 -0.02445,-0.0141 -0.05312,-0.0235 -0.08603,-0.02821 -0.03291,-0.0056 -0.06911,-0.0085 -0.108596,-0.0085 -0.09402,1e-06 -0.16454,0.01222 -0.211551,0.03667 -0.04701,0.02351 -0.07052,0.06347 -0.07052,0.119879 -1e-06,0.03479 0.0094,0.06253 0.02821,0.08321 0.01974,0.02069 0.04701,0.03808 0.0818,0.05218 0.03573,0.01316 0.07757,0.02492 0.125521,0.03526 0.04889,0.0094 0.102014,0.02116 0.159368,0.03526 0.07052,0.01504 0.139623,0.03291 0.207321,0.05359 0.06863,0.01975 0.12928,0.04748 0.181934,0.08321 0.05359,0.03479 0.09637,0.07992 0.128341,0.135393 0.03291,0.05547 0.04936,0.125991 0.04936,0.211551"/>
</g>
</g>
</svg>
