<svg width="128" version="1.0" xmlns="http://www.w3.org/2000/svg" height="128" xmlns:xlink="http://www.w3.org/1999/xlink">
<defs id="defs3451">
<clipPath id="clipPath3271-8">
<rect width="118" x="5" y="160.00336" height="59" style="fill:#fff;fill-rule:evenodd;stroke:none" id="rect3273-9"/>
</clipPath>
<clipPath id="clipPath3594">
<rect width="118" x="5" y="160.00336" height="59" style="fill:#fff;fill-rule:evenodd;stroke:none" id="rect3596"/>
</clipPath>
<filter id="filter3998">
<feGaussianBlur stdDeviation="0.39334961" id="feGaussianBlur4000"/>
</filter>
<linearGradient gradientTransform="matrix(-0.9850397,0.171492,-0.171492,-0.9850397,138.01803,271.06706)" xlink:href="#linearGradient3236-2" id="linearGradient3509" y1="64" x1="5" y2="64" gradientUnits="userSpaceOnUse" x2="123"/>
<linearGradient gradientTransform="matrix(-0.881451,-0.4719713,0.4719713,-0.881451,90.206697,305.61903)" xlink:href="#linearGradient3247-3" id="linearGradient3513" y1="64" x1="5" y2="64" gradientUnits="userSpaceOnUse" x2="123"/>
<linearGradient id="linearGradient3247-3">
<stop offset="0" style="stop-color:#fff;stop-opacity:0" id="stop3249-0"/>
<stop offset="0.30000001" style="stop-color:#d5d5d5;stop-opacity:0" id="stop3293-6"/>
<stop offset="0.5" style="stop-color:#eb8888;stop-opacity:.258" id="stop3251-4"/>
<stop offset="0.69999999" style="stop-color:#e28f25;stop-opacity:0" id="stop3295-6"/>
<stop offset="1" style="stop-color:#fff;stop-opacity:0" id="stop3253-6"/>
</linearGradient>
<linearGradient gradientTransform="matrix(-0.8529965,0.5216416,-0.5216416,-0.8529964,151.97682,240.20671)" xlink:href="#linearGradient3265-4" id="linearGradient3511" y1="64" x1="5" y2="64" gradientUnits="userSpaceOnUse" x2="123"/>
<linearGradient id="linearGradient3330">
<stop offset="0" style="stop-color:#fff;stop-opacity:.203" id="stop3332"/>
<stop offset="1" style="stop-color:#fff;stop-opacity:.68" id="stop3334"/>
</linearGradient>
<linearGradient gradientTransform="matrix(0,0.19648429,-0.23487021,0,78.673771,52.659751)" xlink:href="#linearGradient3362" id="linearGradient3220" y1="61.92226" x1="25.220379" y2="61.92226" gradientUnits="userSpaceOnUse" x2="94.567612"/>
<linearGradient id="linearGradient4244">
<stop offset="0" style="stop-color:#7e7e7e" id="stop4246"/>
<stop offset="0.49117556" style="stop-color:#fff9fb" id="stop4250"/>
<stop offset="1" style="stop-color:#7e7e7e" id="stop4248"/>
</linearGradient>
<linearGradient gradientTransform="matrix(1.585777,0,0,1.914448,-30.84844,-54.118971)" xlink:href="#ButtonColor-3-1" id="linearGradient3217" y1="89.130737" x1="73.015572" y2="34.606899" gradientUnits="userSpaceOnUse" x2="73.015572"/>
<linearGradient gradientTransform="matrix(0,0.44568149,-0.53275196,0,97.119292,37.734333)" xlink:href="#linearGradient3330" id="linearGradient3200" y1="61.92226" x1="26.180153" y2="61.92226" gradientUnits="userSpaceOnUse" x2="93.607834"/>
<linearGradient gradientTransform="matrix(1.0673216,0,0,1.0672965,-5.135141,-3.8266587)" id="linearGradient3682" xlink:href="#linearGradient4244" y1="43.102104" y2="84.618584" x1="29.404743" x2="29.363132" gradientUnits="userSpaceOnUse"/>
<linearGradient gradientTransform="matrix(0.76080967,0.44143409,-0.43925368,0.76458629,43.550492,-12.44536)" xlink:href="#linearGradient3233-0" id="linearGradient3214" y1="64" x1="5" y2="64" gradientUnits="userSpaceOnUse" x2="123"/>
<linearGradient gradientTransform="matrix(-0.881451,-0.4719713,0.4719713,-0.881451,90.206697,305.61903)" xlink:href="#linearGradient3247-3" id="linearGradient3507" y1="64" x1="5" y2="64" gradientUnits="userSpaceOnUse" x2="123"/>
<linearGradient id="linearGradient3342">
<stop offset="0" style="stop-opacity:0" id="stop3344"/>
<stop offset="0.85000002" style="stop-opacity:0" id="stop3350"/>
<stop offset="1" id="stop3346"/>
</linearGradient>
<linearGradient gradientTransform="matrix(1.0095551,0,0,1.0056748,17.095365,17.598094)" xlink:href="#linearGradient9647" id="linearGradient3550" y1="102.10169" x1="48.24577" y2="-21.966103" gradientUnits="userSpaceOnUse" x2="17.000467"/>
<linearGradient id="linearGradient4059">
<stop offset="0" style="stop-color:#4a4c37" id="stop4061"/>
<stop offset="0.31291944" style="stop-color:#2a2c1d" id="stop4063"/>
<stop offset="0.66048187" style="stop-color:#090908" id="stop4065"/>
<stop offset="1" style="stop-color:#1d240d" id="stop4067"/>
</linearGradient>
<linearGradient id="linearGradient9647">
<stop offset="0" style="stop-color:#151414" id="stop9649"/>
<stop offset="1" style="stop-color:#5c5a5a" id="stop9651"/>
</linearGradient>
<linearGradient id="linearGradient4357">
<stop offset="0" style="stop-color:#0d0e09" id="stop4359"/>
<stop offset="1" style="stop-color:#abaeab;stop-opacity:0" id="stop4361"/>
</linearGradient>
<linearGradient id="linearGradient3362">
<stop offset="0" style="stop-color:#4d4d4d" id="stop3364"/>
<stop offset="1" style="stop-color:#fff" id="stop3366"/>
</linearGradient>
<linearGradient id="linearGradient3265-4">
<stop offset="0" style="stop-color:#fff;stop-opacity:0" id="stop3267-4"/>
<stop offset="0.2" style="stop-color:#afcff3;stop-opacity:0" id="stop3252-1"/>
<stop offset="0.34999999" style="stop-color:#60a0e7;stop-opacity:.148" id="stop3269-3"/>
<stop offset="0.5" style="stop-color:#db8ef1;stop-opacity:.211" id="stop3271-1"/>
<stop offset="0.64999998" style="stop-color:#fff;stop-opacity:0" id="stop3273-6"/>
<stop offset="1" style="stop-color:#fff;stop-opacity:0" id="stop3275-8"/>
</linearGradient>
<linearGradient gradientTransform="matrix(-0.8529965,0.5216416,-0.5216416,-0.8529964,151.97682,240.20671)" xlink:href="#linearGradient3265-4" id="linearGradient3505" y1="64" x1="5" y2="64" gradientUnits="userSpaceOnUse" x2="123"/>
<linearGradient gradientTransform="matrix(1.0172414,0,0,1.0172414,-1.1034483,-1.1034483)" id="ButtonColor-3-1" y1="122" x1="58.650177" y2="5.4252338" x2="58.650177" gradientUnits="userSpaceOnUse">
<stop offset="0" style="stop-color:#b8abbd" id="stop3189-5-4"/>
<stop offset="1" style="stop-color:#dddbde" id="stop3191-7-9"/>
</linearGradient>
<linearGradient id="linearGradient3236-2">
<stop offset="0" style="stop-color:#fff;stop-opacity:0" id="stop3238-0"/>
<stop offset="0.34999999" style="stop-color:#fffc2b;stop-opacity:.234" id="stop3240-4"/>
<stop offset="0.5" style="stop-color:#46d15d;stop-opacity:.219" id="stop3242-5"/>
<stop offset="0.64999998" style="stop-color:#46d1aa;stop-opacity:0" id="stop3244-5"/>
<stop offset="1" style="stop-color:#fff;stop-opacity:0" id="stop3246-7"/>
</linearGradient>
<linearGradient gradientTransform="matrix(-0.9850397,0.171492,-0.171492,-0.9850397,138.01803,271.06706)" xlink:href="#linearGradient3236-2" id="linearGradient3503" y1="64" x1="5" y2="64" gradientUnits="userSpaceOnUse" x2="123"/>
<linearGradient id="linearGradient3233-0">
<stop offset="0" style="stop-color:#fff;stop-opacity:0" id="stop3235-1"/>
<stop offset="0.15000001" style="stop-color:#fff;stop-opacity:0" id="stop3297-9"/>
<stop offset="0.5" style="stop-color:#fff" id="stop3241-3"/>
<stop offset="0.85000002" style="stop-color:#fff;stop-opacity:0" id="stop3299-6"/>
<stop offset="1" style="stop-color:#fff;stop-opacity:0" id="stop3237-2"/>
</linearGradient>
<radialGradient fx="59.893993" fy="61.92226" cx="59.893993" cy="61.92226" gradientTransform="matrix(0,0.42128852,-0.42178145,0,90.247747,39.195325)" xlink:href="#linearGradient3342" id="radialGradient3223" r="33.71384" gradientUnits="userSpaceOnUse"/>
<radialGradient fx="119.33224" fy="123.7699" cx="119.33224" cy="123.7699" gradientTransform="matrix(1.5061894,-1.3596981,1.4332084,1.5843492,-189.57118,-108.61184)" xlink:href="#linearGradient4357" id="radialGradient3096" r="42.606647" gradientUnits="userSpaceOnUse"/>
<radialGradient fx="128.6185" fy="-5.0455413" cx="128.6185" cy="-5.0455413" gradientTransform="matrix(4.0072397e-4,2.2081308,-2.7670616,4.5911225e-4,17.162722,-249.92558)" xlink:href="#linearGradient4059" id="radialGradient3548" r="45" gradientUnits="userSpaceOnUse"/>
<radialGradient fx="119.33224" fy="123.7699" cx="119.33224" cy="123.7699" gradientTransform="matrix(1.5061894,-1.3596981,1.4332084,1.5843492,-220.40215,108.57983)" xlink:href="#linearGradient4357" id="radialGradient3311" r="42.606647" gradientUnits="userSpaceOnUse"/>
</defs>
<g id="g3543" transform="translate(3.790242e-4,-3.7784454e-4)">
<g id="g3544" transform="matrix(1.331741,0,0,1.3368307,-23.735345,-23.823136)">
<rect width="84.802628" x="23.974026" y="-108.29631" rx="6.0573306" ry="6.0340486" height="84.476677" style="opacity:.763;fill:#090909;stroke:none" id="rect9752" transform="scale(1,-1)"/>
<rect width="84.802628" x="23.563358" y="23.632143" rx="6.0573306" ry="6.0340486" height="84.476677" style="fill:url(#radialGradient3548);stroke:url(#linearGradient3550);stroke-width:6.046" id="rect9754"/>
</g>
<rect width="19.731224" x="204.90082" y="-7.8415213" height="140.14229" style="opacity:.547;fill:#c2c2c2" id="rect3926"/>
<rect width="105.12648" x="42.578007" y="-205.80263" rx="3.9773624" height="105.09324" ry="4.9261341" style="opacity:.7;fill:url(#radialGradient3096);stroke:none" id="rect3094"/>
<rect width="19.731224" x="249.42256" y="7.5893092" height="140.14229" style="opacity:.547;fill:#c2c2c2" id="rect3096"/>
<g style="stroke:none;fill-rule:evenodd">
<path style="opacity:.05" id="path3964-9" d="m 64.1309,9.4443 c -31.0139,0 -56.3022,25.4116 -56.3022,56.5795 0,31.1678 25.2883,56.5795 56.3022,56.5795 31.014,0 56.3022,-25.4116 56.3022,-56.5795 0,-31.1678 -25.2883,-56.5795 -56.3022,-56.5795 z  m 0,42.5209 c 7.79948,-2e-06 13.9897,6.22027 13.9897,14.0585 0,7.83826 -6.19018,14.0585 -13.9897,14.0585 -7.79948,0 -13.9897,-6.22028 -13.9897,-14.0585 0,-7.83827 6.19018,-14.0585 13.9897,-14.0585 z "/>
<path style="opacity:.08" id="path3960-2" d="m 64.1309,11.0721 c -30.1338,0 -54.6824,24.6682 -54.6824,54.9516 0,30.2834 24.5486,54.9516 54.6824,54.9516 30.1339,0 54.6824,-24.6682 54.6824,-54.9516 0,-30.2834 -24.5485,-54.9516 -54.6824,-54.9516 z  m 0,39.2653 c 8.66525,-2e-06 15.6095,6.97805 15.6095,15.6864 0,8.70831 -6.94426,15.6864 -15.6095,15.6864 -8.66525,0 -15.6095,-6.97806 -15.6095,-15.6864 0,-8.70832 6.94426,-15.6864 15.6095,-15.6864 z "/>
<path style="opacity:.15" id="path3956-5" d="m 64.1309,12.6506 c -29.2942,0 -53.1116,23.9335 -53.1116,53.3731 0,29.4396 23.8174,53.3731 53.1116,53.3731 29.2943,0 53.1116,-23.9335 53.1116,-53.3731 0,-29.4396 -23.8174,-53.3731 -53.1116,-53.3731 z  m 0,36.1082 c 9.50009,-1e-06 17.1803,7.7176 17.1803,17.2649 0,9.54727 -7.68019,17.2649 -17.1803,17.2649 -9.50009,0 -17.1803,-7.7176 -17.1803,-17.2649 0,-9.54727 7.68019,-17.2649 17.1803,-17.2649 z "/>
<path style="opacity:.3" id="path3950-1" d="m 64.1301,13.9173 c -28.6112,0 -51.8319,23.336 -51.8319,52.0892 0,28.7533 23.2207,52.0892 51.8319,52.0892 28.6112,0 51.8319,-23.336 51.8319,-52.0892 0,-28.7533 -23.2207,-52.0892 -51.8319,-52.0892 z  m 0,33.549 c 10.1837,-2e-06 18.4486,8.30602 18.4486,18.5402 0,10.2342 -8.26499,18.5402 -18.4486,18.5402 -10.1837,0 -18.4486,-8.30602 -18.4486,-18.5402 0,-10.2342 8.26499,-18.5402 18.4486,-18.5402 z "/>
<path style="opacity:.3;fill:#fff" id="path3307" d="m 64.1301,40.3698 c -13.2128,0 -23.9393,10.7797 -23.9393,24.0582 0,13.2784 10.7265,24.0582 23.9393,24.0582 13.2128,0 23.9393,-10.7797 23.9393,-24.0582 0,-13.2784 -10.7265,-24.0582 -23.9393,-24.0582 z  m 0,16.9952 c 3.87949,-2e-06 7.02806,3.1642 7.02806,7.06294 0,3.89875 -3.14857,7.06293 -7.02806,7.06293 -3.8795,0 -7.02806,-3.16419 -7.02806,-7.06293 0,-3.89875 3.14857,-7.06294 7.02806,-7.06294 z "/>
<path style="opacity:.3;fill:url(#radialGradient3223)" id="path3328" d="m 64.1301,78.198 a 13.702,13.77 0 1,1 0,-27.5401 13.702,13.77 0 1,1 0,27.5401 z "/>
</g>
<path style="opacity:.6;fill:none;stroke:url(#linearGradient3220);stroke-linecap:round;stroke-width:1.575" id="path3352" d="m 64.1301,70.8502 a 6.39046,6.42219 0 1,1 0,-12.8444 6.39046,6.42219 0 1,1 0,12.8444 z "/>
<g style="stroke:none;fill-rule:evenodd">
<path style="fill:url(#linearGradient3217)" id="path3170-2" d="m 64.1301,12.3388 c -28.6112,0 -51.8319,23.336 -51.8319,52.0892 0,28.7533 23.2207,52.0892 51.8319,52.0892 28.6112,0 51.8319,-23.336 51.8319,-52.0892 0,-28.7532 -23.2207,-52.0892 -51.8319,-52.0892 z  m 0,33.549 c 10.1837,-2e-06 18.4486,8.30602 18.4486,18.5402 0,10.2342 -8.26499,18.5402 -18.4486,18.5402 -10.1837,0 -18.4487,-8.30602 -18.4487,-18.5402 0,-10.2342 8.265,-18.5402 18.4487,-18.5402 z "/>
<path style="opacity:.8;fill:url(#linearGradient3214)" id="path3230-6" d="m 90.046,19.6294 c -24.7781,-14.3766 -56.4981,-5.83507 -70.8037,19.066 -14.3056,24.901 -5.80624,56.7786 18.9718,71.1552 24.778,14.3766 56.4981,5.83506 70.8038,-19.066 14.3056,-24.901 5.80624,-56.7786 -18.9718,-71.1552 z  m -16.6916,29.0543 c 8.81931,5.11711 11.8445,16.4633 6.75268,25.3264 -5.09184,8.86309 -16.382,11.9033 -25.2013,6.78619 -8.81931,-5.11709 -11.8445,-16.4633 -6.75268,-25.3264 5.09182,-8.86308 16.382,-11.9033 25.2013,-6.7862 z "/>
</g>
<path style="opacity:.15;fill:none;stroke:#000;stroke-linecap:round;stroke-width:4.724" id="path3304" d="m 87.2828,64.5858 a 23.1527,23.2676 0 0,1 -46.3054,0 23.1527,23.2676 0 1,1 46.3054,0 z "/>
<g id="g3289" transform="matrix(0.53961472,-0.69668808,0.69324684,0.5422933,-122.22748,-9.7456465)">
<g style="clip-path:url(#clipPath3271-8)" id="g3266">
<path style="fill:url(#linearGradient3503);fill-rule:evenodd;stroke:none" id="path3259" d="m 74.118,277.1173 c 32.0808,-5.58515 53.5845,-36.1546 47.9993,-68.2354 -5.58514,-32.0808 -36.1546,-53.5845 -68.2354,-47.9993 -32.0808,5.58515 -53.5845,36.1546 -47.9993,68.2354 5.58515,32.0808 36.1546,53.5845 68.2354,47.9993 z  m -6.5167,-37.4315 c -11.4186,1.98793 -22.2992,-5.66593 -24.2872,-17.0845 -1.98794,-11.4186 5.66592,-22.2992 17.0845,-24.2872 11.4186,-1.98793 22.2992,5.66593 24.2872,17.0845 1.98792,11.4186 -5.66593,22.2992 -17.0845,24.2872 z "/>
<path style="fill:url(#linearGradient3505);fill-rule:evenodd;stroke:none" id="path3231" d="m 94.7769,269.3268 c 27.7804,-16.9888 36.5388,-53.3233 19.5499,-81.1036 -16.9888,-27.7804 -53.3232,-36.5387 -81.1036,-19.5499 -27.7804,16.9888 -36.5388,53.3233 -19.5499,81.1036 16.9888,27.7804 53.3232,36.5388 81.1036,19.5499 z  m -19.8224,-32.4139 c -9.88793,6.04687 -22.8205,2.92947 -28.8674,-6.95846 -6.04686,-9.88793 -2.92948,-22.8205 6.95845,-28.8674 9.88794,-6.04686 22.8205,-2.92949 28.8674,6.95845 6.04685,9.88793 2.92948,22.8205 -6.95846,28.8674 z "/>
<path style="fill:url(#linearGradient3507);fill-rule:evenodd;stroke:none" id="path3243" d="m 36.1537,271.0056 c 28.7071,15.3712 64.4808,4.54779 79.8519,-24.1593 15.3712,-28.7071 4.5478,-64.4807 -24.1593,-79.8519 -28.7071,-15.3712 -64.4807,-4.5478 -79.8519,24.1593 -15.3712,28.7071 -4.54781,64.4807 24.1593,79.8519 z  m 17.9349,-33.4951 c -10.2178,-5.4711 -14.0702,-18.2041 -8.59906,-28.4219 5.47108,-10.2178 18.2041,-14.0702 28.4219,-8.59906 10.2178,5.47108 14.0702,18.2041 8.59907,28.4219 -5.47108,10.2178 -18.2041,14.0702 -28.4219,8.59909 z "/>
</g>
<g style="clip-path:url(#clipPath3271-8)" id="g3275" transform="matrix(1,0,0,-1,0,438.00336)">
<path style="fill:url(#linearGradient3509);fill-rule:evenodd;stroke:none" id="path3277" d="m 74.118,277.1173 c 32.0808,-5.58515 53.5845,-36.1546 47.9993,-68.2354 -5.58514,-32.0808 -36.1546,-53.5845 -68.2354,-47.9993 -32.0808,5.58515 -53.5845,36.1546 -47.9993,68.2354 5.58515,32.0808 36.1546,53.5845 68.2354,47.9993 z  m -6.5167,-37.4315 c -11.4186,1.98793 -22.2992,-5.66593 -24.2872,-17.0845 -1.98794,-11.4186 5.66592,-22.2992 17.0845,-24.2872 11.4186,-1.98793 22.2992,5.66593 24.2872,17.0845 1.98792,11.4186 -5.66593,22.2992 -17.0845,24.2872 z "/>
<path style="fill:url(#linearGradient3511);fill-rule:evenodd;stroke:none" id="path3279" d="m 94.7769,269.3268 c 27.7804,-16.9888 36.5388,-53.3233 19.5499,-81.1036 -16.9888,-27.7804 -53.3232,-36.5387 -81.1036,-19.5499 -27.7804,16.9888 -36.5388,53.3233 -19.5499,81.1036 16.9888,27.7804 53.3232,36.5388 81.1036,19.5499 z  m -19.8224,-32.4139 c -9.88793,6.04687 -22.8205,2.92947 -28.8674,-6.95846 -6.04686,-9.88793 -2.92948,-22.8205 6.95845,-28.8674 9.88794,-6.04686 22.8205,-2.92949 28.8674,6.95845 6.04685,9.88793 2.92948,22.8205 -6.95846,28.8674 z "/>
<path style="fill:url(#linearGradient3513);fill-rule:evenodd;stroke:none" id="path3281" d="m 36.1537,271.0056 c 28.7071,15.3712 64.4808,4.54779 79.8519,-24.1593 15.3712,-28.7071 4.5478,-64.4807 -24.1593,-79.8519 -28.7071,-15.3712 -64.4807,-4.5478 -79.8519,24.1593 -15.3712,28.7071 -4.54781,64.4807 24.1593,79.8519 z  m 17.9349,-33.4951 c -10.2178,-5.4711 -14.0702,-18.2041 -8.59906,-28.4219 5.47108,-10.2178 18.2041,-14.0702 28.4219,-8.59906 10.2178,5.47108 14.0702,18.2041 8.59907,28.4219 -5.47108,10.2178 -18.2041,14.0702 -28.4219,8.59909 z "/>
</g>
</g>
<g style="stroke:none">
<path style="opacity:.8;fill:#fff;filter:url(#filter3998);fill-rule:evenodd" id="path3933-7" d="m 64.1309,12.3546 c -28.6112,0 -51.8354,23.3373 -51.8354,52.0906 0,0.532593 0.03327,1.04974 0.04909,1.5785 0.82344,-28.0311 23.6954,-50.5121 51.7863,-50.5121 28.0909,0 50.9629,22.481 51.7863,50.5121 0.0158,-0.528763 0.0491,-1.04591 0.0491,-1.5785 0,-28.7532 -23.2241,-52.0906 -51.8354,-52.0906 z "/>
<path style="font-family:Abandoned Bitplane;opacity:.5;text-transform:none;text-indent:0;text-align:start;color:#000;stroke-width:3.231;line-height:normal;fill:url(#linearGradient3200)" id="path3942" d="m 79.4885,64.4334 c 0,-8.36928 -6.80214,-15.2924 -15.3666,-15.2924 -8.56443,0 -15.3499,6.92317 -15.3499,15.2924 0,8.36928 6.78549,15.2785 15.3499,15.2785 8.56442,0 15.3666,-6.90924 15.3666,-15.2785 z  m -1.7314,0 c 0,7.72135 -6.1884,13.844 -13.6351,13.844 -7.44672,0 -13.6185,-6.12263 -13.6185,-13.844 0,-7.72135 6.17175,-13.8579 13.6185,-13.8579 7.44672,0 13.6351,6.13656 13.6351,13.8579 z "/>
<path id="path3492" d="m 236.8277,-142.098 a 38.2788,27.5464 0 1,1 -76.5576,0 38.2788,27.5464 0 1,1 76.5576,0 z " transform="matrix(0.49734651,0,0,0.67204234,-34.710848,159.49163)"/>
</g>
<path style="fill:url(#linearGradient3682);stroke:#5b5b5b;stroke-width:1.067" id="path4262" d="m 4.2206,48.5663 .001,34.3208 39.4957,-0 c 0.21316,0.0072 -58.8742,0.202489 11.0285,0 0.2149,-0.000629 6.15795,0.0072 6.3711,0 h 4.27269 l .2387,-.0004 c 9.57733,-0.800949 17.1105,-8.82691 17.1105,-18.611 0,-9.78367 -7.53375,-17.8095 -17.1105,-18.611 l -.5847,.0004 -60.8229,-.0004 z  m 59.6732,2.4015 c 7.36832,0 13.3415,5.97306 13.3415,13.3412 0,7.36814 -5.9732,13.3412 -13.3415,13.3412 -7.36832,0 -13.3415,-5.97306 -13.3415,-13.3412 0,-7.36815 5.97321,-13.3412 13.3415,-13.3412 z "/>
<rect width="105.12648" x="11.747038" y="11.389041" rx="3.9773624" ry="4.9261341" height="105.09324" style="opacity:.7;fill:url(#radialGradient3311);stroke:none" id="rect3309"/>
</g>
</svg>
