<svg width="96" version="1.0" xmlns="http://www.w3.org/2000/svg" height="96" xmlns:xlink="http://www.w3.org/1999/xlink">
<defs id="defs2410">
<clipPath id="clipPath3613">
<rect width="84" x="6" y="6" rx="6" height="84" ry="6" style="fill:#fff;stroke:none" id="rect3615"/>
</clipPath>
<clipPath id="clipPath3271">
<rect width="118" x="5" y="160.00336" height="59" style="fill:#fff;fill-rule:evenodd;stroke:none" id="rect3273"/>
</clipPath>
<filter style="color-interpolation-filters:sRGB" id="filter3174">
<feGaussianBlur stdDeviation="1.71" id="feGaussianBlur3176"/>
</filter>
<filter width="1.3839999" x="-0.192" y="-0.192" height="1.3839999" style="color-interpolation-filters:sRGB" id="filter3794">
<feGaussianBlur stdDeviation="5.28" id="feGaussianBlur3796"/>
</filter>
<linearGradient gradientTransform="matrix(-0.881451,-0.4719713,0.4719713,-0.881451,90.206697,305.61903)" id="linearGradient3921" xlink:href="#linearGradient3247" y1="64" x1="5" y2="64" x2="123" gradientUnits="userSpaceOnUse"/>
<linearGradient gradientTransform="matrix(-0.8529965,0.5216416,-0.5216416,-0.8529964,151.97682,240.20671)" id="linearGradient3919" xlink:href="#linearGradient3265" y1="64" x1="5" y2="64" x2="123" gradientUnits="userSpaceOnUse"/>
<linearGradient gradientTransform="matrix(-0.9850397,0.171492,-0.171492,-0.9850397,138.01803,271.06706)" id="linearGradient3917" xlink:href="#linearGradient3236" y1="64" x1="5" y2="64" x2="123" gradientUnits="userSpaceOnUse"/>
<linearGradient gradientTransform="matrix(-0.9850397,0.171492,-0.171492,-0.9850397,138.01803,271.06706)" id="linearGradient3923" xlink:href="#linearGradient3236" y1="64" x1="5" y2="64" x2="123" gradientUnits="userSpaceOnUse"/>
<linearGradient id="linearGradient3362">
<stop offset="0" style="stop-color:#4d4d4d" id="stop3364"/>
<stop offset="1" style="stop-color:#fff" id="stop3366"/>
</linearGradient>
<linearGradient id="linearGradient3330">
<stop offset="0" style="stop-color:#fff;stop-opacity:.203" id="stop3332"/>
<stop offset="1" style="stop-color:#fff;stop-opacity:.68" id="stop3334"/>
</linearGradient>
<linearGradient id="linearGradient3342">
<stop offset="0" style="stop-opacity:0" id="stop3344"/>
<stop offset="0.85000002" style="stop-opacity:0" id="stop3350"/>
<stop offset="1" id="stop3346"/>
</linearGradient>
<linearGradient gradientTransform="matrix(-0.881451,-0.4719713,0.4719713,-0.881451,90.206697,305.61903)" id="linearGradient3927" xlink:href="#linearGradient3247" y1="64" x1="5" y2="64" x2="123" gradientUnits="userSpaceOnUse"/>
<linearGradient gradientTransform="matrix(-0.8529965,0.5216416,-0.5216416,-0.8529964,151.97682,240.20671)" id="linearGradient3925" xlink:href="#linearGradient3265" y1="64" x1="5" y2="64" x2="123" gradientUnits="userSpaceOnUse"/>
<linearGradient gradientTransform="matrix(1.0238095,0,0,1.0119048,-1.1428571,-98.071429)" id="linearGradient3772" xlink:href="#ButtonShadow-0" y1="6.1317081" x1="32.251034" y2="90.238609" x2="32.251034" gradientUnits="userSpaceOnUse"/>
<linearGradient gradientTransform="translate(0,-97)" id="linearGradient3721" xlink:href="#ButtonShadow-0" y1="6.1317081" x1="32.251034" y2="90.238609" x2="32.251034" gradientUnits="userSpaceOnUse"/>
<linearGradient gradientTransform="matrix(1.0238095,0,0,1.0119048,-1.1428571,-98.071429)" id="linearGradient3725" xlink:href="#ButtonShadow-0" y1="6.1317081" x1="32.251034" y2="90.238609" x2="32.251034" gradientUnits="userSpaceOnUse"/>
<linearGradient gradientTransform="matrix(1.0238095,0,0,1.0119048,-1.1428571,-98.071429)" id="linearGradient3780" xlink:href="#ButtonShadow-0" y1="6.1317081" x1="32.251034" y2="90.238609" x2="32.251034" gradientUnits="userSpaceOnUse"/>
<linearGradient gradientTransform="matrix(1.0058652,0,0,0.994169,100,0)" id="ButtonShadow-0" y1="92.539597" x1="45.447727" y2="7.0165396" x2="45.447727" gradientUnits="userSpaceOnUse">
<stop offset="0" id="stop3750-8"/>
<stop offset="1" style="stop-opacity:.588" id="stop3752-5"/>
</linearGradient>
<linearGradient id="linearGradient3368" xlink:href="#linearGradient3362" y1="61.92226" x1="25.220379" y2="61.92226" x2="94.567612" gradientUnits="userSpaceOnUse"/>
<linearGradient gradientTransform="matrix(0,0.28234448,-0.33916637,0,69.001413,30.890837)" id="linearGradient3948" xlink:href="#linearGradient3330" y1="61.92226" x1="26.180153" y2="61.92226" x2="93.607834" gradientUnits="userSpaceOnUse"/>
<linearGradient gradientTransform="matrix(1.0095547,0,0,1.2128254,77.533198,-27.299316)" id="linearGradient3931" xlink:href="#ButtonColor-3" y1="89.130737" x1="73.015572" y2="34.606899" x2="73.015572" gradientUnits="userSpaceOnUse"/>
<linearGradient gradientTransform="matrix(1.0095547,0,0,1.2128254,-12.466802,-27.299316)" id="linearGradient3178" xlink:href="#ButtonColor-3" y1="89.130737" x1="73.015572" y2="34.606899" x2="73.015572" gradientUnits="userSpaceOnUse"/>
<linearGradient id="linearGradient3308">
<stop offset="0" style="stop-color:#fc0000" id="stop3310"/>
<stop offset="1" style="stop-color:#fc0000;stop-opacity:0" id="stop3312"/>
</linearGradient>
<linearGradient id="ButtonColor" y1="21" x1="10.31979" y2="0.99929649" x2="10.31979" gradientUnits="userSpaceOnUse">
<stop offset="0" style="stop-color:#861616" id="stop3189"/>
<stop offset="1" style="stop-color:#d64800" id="stop3191"/>
</linearGradient>
<linearGradient id="linearGradient3293">
<stop offset="0" style="stop-color:#ffc64e" id="stop3296"/>
<stop offset="0.30000001" style="stop-color:#f30000;stop-opacity:.831" id="stop3839"/>
<stop offset="0.43782738" style="stop-color:#fb0000;stop-opacity:.476" id="stop3302"/>
<stop offset="1" style="stop-color:#ffb56f;stop-opacity:0" id="stop3298"/>
</linearGradient>
<linearGradient id="linearGradient3617" xlink:href="#ButtonColor" y1="90" x1="48" y2="5.9877172" x2="48" gradientUnits="userSpaceOnUse"/>
<linearGradient id="linearGradient3613" xlink:href="#linearGradient3737" y1="20.220806" x1="48" y2="138.66119" x2="48" gradientUnits="userSpaceOnUse"/>
<linearGradient gradientTransform="scale(1.0058652,0.994169)" id="ButtonShadow" y1="92.539597" x1="45.447727" y2="7.0165396" x2="45.447727" gradientUnits="userSpaceOnUse">
<stop offset="0" id="stop3750"/>
<stop offset="1" style="stop-opacity:.588" id="stop3752"/>
</linearGradient>
<linearGradient id="linearGradient3188" xlink:href="#linearGradient3737" y1="6" x1="36.357143" y2="63.893143" x2="36.357143" gradientUnits="userSpaceOnUse"/>
<linearGradient id="linearGradient3737">
<stop offset="0" style="stop-color:#fff" id="stop3739"/>
<stop offset="1" style="stop-color:#fff;stop-opacity:0" id="stop3741"/>
</linearGradient>
<linearGradient gradientTransform="matrix(1.0172414,0,0,1.0172414,-1.1034483,-1.1034483)" id="ButtonColor-3" y1="122" x1="58.650177" y2="5.4252338" x2="58.650177" gradientUnits="userSpaceOnUse">
<stop offset="0" style="stop-color:#b8abbd" id="stop3189-5"/>
<stop offset="1" style="stop-color:#dddbde" id="stop3191-7"/>
</linearGradient>
<linearGradient gradientTransform="matrix(1.0238095,0,0,1.0119048,-1.1428571,-98.071429)" id="linearGradient3059" xlink:href="#ButtonShadow-0" y1="6.1317081" x1="32.251034" y2="90.238609" x2="32.251034" gradientUnits="userSpaceOnUse"/>
<linearGradient id="linearGradient3233">
<stop offset="0" style="stop-color:#fff;stop-opacity:0" id="stop3235"/>
<stop offset="0.15000001" style="stop-color:#fff;stop-opacity:0" id="stop3297"/>
<stop offset="0.5" style="stop-color:#fff" id="stop3241"/>
<stop offset="0.85000002" style="stop-color:#fff;stop-opacity:0" id="stop3299"/>
<stop offset="1" style="stop-color:#fff;stop-opacity:0" id="stop3237"/>
</linearGradient>
<linearGradient id="linearGradient3247">
<stop offset="0" style="stop-color:#fff;stop-opacity:0" id="stop3249"/>
<stop offset="0.30000001" style="stop-color:#d5d5d5;stop-opacity:0" id="stop3293"/>
<stop offset="0.5" style="stop-color:#eb8888;stop-opacity:.258" id="stop3251"/>
<stop offset="0.69999999" style="stop-color:#e28f25;stop-opacity:0" id="stop3295"/>
<stop offset="1" style="stop-color:#fff;stop-opacity:0" id="stop3253"/>
</linearGradient>
<linearGradient gradientTransform="matrix(0.48435496,0.27965371,-0.27964247,0.48437444,34.897859,-0.89859081)" id="linearGradient3239" xlink:href="#linearGradient3233" y1="64" x1="5" y2="64" x2="123" gradientUnits="userSpaceOnUse"/>
<linearGradient id="linearGradient2988" xlink:href="#linearGradient3308" y1="11.446488" x1="21.310946" y2="11.788887" x2="6.589735" gradientUnits="userSpaceOnUse"/>
<linearGradient id="linearGradient3236">
<stop offset="0" style="stop-color:#fff;stop-opacity:0" id="stop3238"/>
<stop offset="0.34999999" style="stop-color:#fffc2b;stop-opacity:.234" id="stop3240"/>
<stop offset="0.5" style="stop-color:#46d15d;stop-opacity:.219" id="stop3242"/>
<stop offset="0.64999998" style="stop-color:#46d1aa;stop-opacity:0" id="stop3244"/>
<stop offset="1" style="stop-color:#fff;stop-opacity:0" id="stop3246"/>
</linearGradient>
<linearGradient id="linearGradient3265">
<stop offset="0" style="stop-color:#fff;stop-opacity:0" id="stop3267"/>
<stop offset="0.2" style="stop-color:#afcff3;stop-opacity:0" id="stop3252"/>
<stop offset="0.34999999" style="stop-color:#60a0e7;stop-opacity:.148" id="stop3269"/>
<stop offset="0.5" style="stop-color:#db8ef1;stop-opacity:.211" id="stop3271"/>
<stop offset="0.64999998" style="stop-color:#fff;stop-opacity:0" id="stop3273"/>
<stop offset="1" style="stop-color:#fff;stop-opacity:0" id="stop3275"/>
</linearGradient>
<radialGradient fx="5.9628973" fy="10.957597" cx="5.9628973" cy="10.957597" r="1.5017668" id="radialGradient3300" xlink:href="#linearGradient3293" gradientUnits="userSpaceOnUse"/>
<radialGradient fx="59.893993" fy="61.92226" cx="59.893993" cy="61.92226" gradientTransform="matrix(1,0,0,0.8375435,0,10.059672)" r="33.71384" id="radialGradient3348" xlink:href="#linearGradient3342" gradientUnits="userSpaceOnUse"/>
<radialGradient fx="48" fy="90.171875" cx="48" cy="90.171875" gradientTransform="matrix(1.1573129,0,0,0.99590774,-7.5510206,0.19713193)" r="42" id="radialGradient3619" xlink:href="#linearGradient3737" gradientUnits="userSpaceOnUse"/>
</defs>
<g style="display:none" id="layer2">
<rect width="86" x="5" y="7" rx="6" height="85" ry="6" style="opacity:.9;fill:url(#ButtonShadow);filter:url(#filter3174);stroke:none" id="rect3745"/>
</g>
<g style="stroke:none" id="layer6">
<path style="opacity:.08;fill:url(#linearGradient3059)" id="path3786" d="m 12,-95.0312 c -5.51109,0 -10.0312,4.52016 -10.0312,10.0312 v 71 c 0,5.51109 4.52016,10.0312 10.0312,10.0312 h 72 c 5.51109,0 10.0312,-4.52016 10.0312,-10.0312 v -71 c 0,-5.51109 -4.52016,-10.0312 -10.0312,-10.0312 h -72 z " transform="scale(1,-1)"/>
<path style="opacity:.1;fill:url(#linearGradient3780)" id="path3778" d="m 12,-94.0312 c -4.97163,0 -9.03125,4.05962 -9.03125,9.03125 v 71 c 0,4.97163 4.05962,9.03125 9.03125,9.03125 h 72 c 4.97163,0 9.03125,-4.05962 9.03125,-9.03125 v -71 c 0,-4.97163 -4.05962,-9.03125 -9.03125,-9.03125 h -72 z " transform="scale(1,-1)"/>
<path style="opacity:.2;fill:url(#linearGradient3772)" id="path3770" d="m 12,-93 c -4.40913,0 -8,3.59087 -8,8 v 71 c 0,4.40913 3.59087,8 8,8 h 72 c 4.40913,0 8,-3.59087 8,-8 v -71 c 0,-4.40913 -3.59087,-8 -8,-8 h -72 z " transform="scale(1,-1)"/>
<rect width="86" x="5" y="-92" rx="7" height="85" ry="7" style="opacity:.3;fill:url(#linearGradient3725)" id="rect3723" transform="scale(1,-1)"/>
<rect width="84" x="6" y="-91" rx="6" height="84" ry="6" style="opacity:.45;fill:url(#linearGradient3721)" id="rect3716" transform="scale(1,-1)"/>
</g>
<g style="stroke:none" id="layer1">
<rect width="84" x="6" y="6" rx="6" height="84" ry="6" style="fill:url(#linearGradient3617)" id="rect2419"/>
<path style="opacity:.4;fill:url(#linearGradient3188)" id="rect3728" d="m 12,6 c -3.324,0 -6,2.676 -6,6 v 2 68 2 c 0,0.334721 0.04135,0.6507 0.09375,0.96875 0.0487,0.295596 0.09704,0.596915 0.1875,0.875 0.00988,0.03038 0.020892,0.0636 0.03125,0.09375 0.098865,0.287771 0.23488,0.547452 0.375,0.8125 0.144592,0.273507 0.315616,0.535615 0.5,0.78125 0.184384,0.245635 0.373776,0.473472 0.59375,0.6875 0.439947,0.428056 0.94291,0.814526 1.5,1.09375 0.278545,0.139612 0.573473,0.246947 0.875,0.34375 -0.256202,-0.100222 -0.486711,-0.236272 -0.71875,-0.375 -0.00741,-0.0044 -0.023866,0.0045 -0.03125,0 -0.031933,-0.0193 -0.062293,-0.04251 -0.09375,-0.0625 -0.120395,-0.0767 -0.231023,-0.163513 -0.34375,-0.25 -0.106173,-0.0808 -0.213281,-0.161112 -0.3125,-0.25 -0.17793,-0.161433 -0.34746,-0.345388 -0.5,-0.53125 -0.107579,-0.130255 -0.218394,-0.265285 -0.3125,-0.40625 -0.025089,-0.03838 -0.038446,-0.08587 -0.0625,-0.125 -0.064763,-0.103032 -0.130228,-0.204517 -0.1875,-0.3125 -0.101008,-0.194706 -0.205675,-0.415701 -0.28125,-0.625 -0.00796,-0.02181 -0.023589,-0.04055 -0.03125,-0.0625 -0.0318251,-0.09195 -0.0358045,-0.186831 -0.0625,-0.28125 -0.0303323,-0.106618 -0.0703894,-0.203031 -0.09375,-0.3125 -0.0728786,-0.341512 -0.125,-0.698205 -0.125,-1.0625 v -2 -68 -2 c 0,-2.78185 2.21815,-5 5,-5 h 2 68 2 c 2.78185,0 5,2.21815 5,5 v 2 68 2 c 0,0.364295 -0.05212,0.720988 -0.125,1.0625 -0.04415,0.206893 -0.08838,0.397658 -0.15625,0.59375 -0.0077,0.02195 -0.0233,0.04069 -0.03125,0.0625 -0.06274,0.173739 -0.138383,0.367449 -0.21875,0.53125 -0.04158,0.0828 -0.07904,0.169954 -0.125,0.25 -0.0546,0.09721 -0.126774,0.18835 -0.1875,0.28125 -0.09411,0.140965 -0.204921,0.275995 -0.3125,0.40625 -0.143174,0.17445 -0.303141,0.346998 -0.46875,0.5 -0.01117,0.0102 -0.01998,0.02115 -0.03125,0.03125 -0.138386,0.125556 -0.285091,0.234436 -0.4375,0.34375 -0.102571,0.07315 -0.204318,0.153364 -0.3125,0.21875 -0.0074,0.0045 -0.02384,-0.0044 -0.03125,0 -0.232039,0.138728 -0.462548,0.274778 -0.71875,0.375 0.301527,-0.0968 0.596455,-0.204138 0.875,-0.34375 0.55709,-0.279224 1.06005,-0.665694 1.5,-1.09375 0.219973,-0.214028 0.409366,-0.441865 0.59375,-0.6875 0.184384,-0.245635 0.355408,-0.507743 0.5,-0.78125 0.14012,-0.265048 0.276135,-0.524729 0.375,-0.8125 0.01041,-0.03078 0.02133,-0.06274 0.03125,-0.09375 0.09046,-0.278085 0.1388,-0.579404 0.1875,-0.875 0.0524,-0.31805 0.09375,-0.634029 0.09375,-0.96875 v -2 -68 -2 c 0,-3.324 -2.676,-6 -6,-6 h -72 z "/>
<path style="opacity:.2;fill:url(#radialGradient3619)" id="path3615" d="M 12,90 C 8.676,90 6,87.324 6,84 L 6,82 6,14 6,12 c 0,-0.334721 0.04135,-0.6507 0.09375,-0.96875 0.0487,-0.295596 0.09704,-0.596915 0.1875,-0.875 C 6.29113,10.12587 6.302142,10.09265 6.3125,10.0625 6.411365,9.774729 6.5473802,9.515048 6.6875,9.25 6.8320918,8.976493 7.0031161,8.714385 7.1875,8.46875 7.3718839,8.223115 7.5612765,7.995278 7.78125,7.78125 8.221197,7.353194 8.72416,6.966724 9.28125,6.6875 9.559795,6.547888 9.8547231,6.440553 10.15625,6.34375 9.9000482,6.443972 9.6695391,6.580022 9.4375,6.71875 c -0.00741,0.0044 -0.023866,-0.0045 -0.03125,0 -0.031933,0.0193 -0.062293,0.04251 -0.09375,0.0625 -0.120395,0.0767 -0.2310226,0.163513 -0.34375,0.25 -0.1061728,0.0808 -0.2132809,0.161112 -0.3125,0.25 C 8.4783201,7.442683 8.3087904,7.626638 8.15625,7.8125 8.0486711,7.942755 7.9378561,8.077785 7.84375,8.21875 7.818661,8.25713 7.805304,8.30462 7.78125,8.34375 7.716487,8.446782 7.6510225,8.548267 7.59375,8.65625 7.4927417,8.850956 7.3880752,9.071951 7.3125,9.28125 7.30454,9.30306 7.288911,9.3218 7.28125,9.34375 7.2494249,9.4357 7.2454455,9.530581 7.21875,9.625 7.1884177,9.731618 7.1483606,9.828031 7.125,9.9375 7.0521214,10.279012 7,10.635705 7,11 l 0,2 0,68 0,2 c 0,2.781848 2.2181517,5 5,5 l 2,0 68,0 2,0 c 2.781848,0 5,-2.218152 5,-5 l 0,-2 0,-68 0,-2 C 89,10.635705 88.94788,10.279012 88.875,9.9375 88.83085,9.730607 88.78662,9.539842 88.71875,9.34375 88.71105,9.3218 88.69545,9.30306 88.6875,9.28125 88.62476,9.107511 88.549117,8.913801 88.46875,8.75 88.42717,8.6672 88.38971,8.580046 88.34375,8.5 88.28915,8.40279 88.216976,8.31165 88.15625,8.21875 88.06214,8.077785 87.951329,7.942755 87.84375,7.8125 87.700576,7.63805 87.540609,7.465502 87.375,7.3125 87.36383,7.3023 87.35502,7.29135 87.34375,7.28125 87.205364,7.155694 87.058659,7.046814 86.90625,6.9375 86.803679,6.86435 86.701932,6.784136 86.59375,6.71875 c -0.0074,-0.0045 -0.02384,0.0044 -0.03125,0 -0.232039,-0.138728 -0.462548,-0.274778 -0.71875,-0.375 0.301527,0.0968 0.596455,0.204138 0.875,0.34375 0.55709,0.279224 1.060053,0.665694 1.5,1.09375 0.219973,0.214028 0.409366,0.441865 0.59375,0.6875 0.184384,0.245635 0.355408,0.507743 0.5,0.78125 0.14012,0.265048 0.276135,0.524729 0.375,0.8125 0.01041,0.03078 0.02133,0.06274 0.03125,0.09375 0.09046,0.278085 0.1388,0.579404 0.1875,0.875 C 89.95865,11.3493 90,11.665279 90,12 l 0,2 0,68 0,2 c 0,3.324 -2.676,6 -6,6 l -72,0 z"/>
</g>
<g id="layer5">
<rect width="66" x="15" y="15" rx="12" height="66" ry="12" style="opacity:.1;fill:url(#linearGradient3613);filter:url(#filter3794);stroke:#fff;stroke-linecap:round;stroke-width:.5;clip-path:url(#clipPath3613)" id="rect3171"/>
</g>
<g id="layer3">
<g style="stroke:none;fill-rule:evenodd">
<path style="opacity:.05" id="path3964" d="m 48,12.9688 c -19.7444,0 -35.8438,16.0986 -35.8438,35.8438 0,19.7452 16.0993,35.8438 35.8438,35.8438 19.7444,0 35.8438,-16.0986 35.8438,-35.8438 0,-19.7452 -16.0993,-35.8438 -35.8438,-35.8438 z  m 0,26.9375 c 4.96539,-1e-06 8.90625,3.94062 8.90625,8.90625 0,4.96563 -3.94086,8.90625 -8.90625,8.90625 -4.96539,0 -8.90625,-3.94062 -8.90625,-8.90625 0,-4.96563 3.94086,-8.90625 8.90625,-8.90625 z "/>
<path style="opacity:.08" id="path3960" d="m 48,14 c -19.1841,0 -34.8125,15.6276 -34.8125,34.8125 0,19.1849 15.6284,34.8125 34.8125,34.8125 19.1841,0 34.8125,-15.6276 34.8125,-34.8125 0,-19.1849 -15.6284,-34.8125 -34.8125,-34.8125 z  m 0,24.875 c 5.51657,-1e-06 9.9375,4.42068 9.9375,9.9375 0,5.51682 -4.42093,9.9375 -9.9375,9.9375 -5.51657,0 -9.9375,-4.42068 -9.9375,-9.9375 0,-5.51682 4.42093,-9.9375 9.9375,-9.9375 z "/>
<path style="opacity:.15" id="path3956" d="m 48,15 c -18.6496,0 -33.8125,15.1621 -33.8125,33.8125 0,18.6504 15.1629,33.8125 33.8125,33.8125 18.6496,0 33.8125,-15.1621 33.8125,-33.8125 0,-18.6504 -15.1629,-33.8125 -33.8125,-33.8125 z  m 0,22.875 c 6.04805,-1e-06 10.9375,4.88919 10.9375,10.9375 0,6.04831 -4.88945,10.9375 -10.9375,10.9375 -6.04805,0 -10.9375,-4.88919 -10.9375,-10.9375 0,-6.04831 4.88945,-10.9375 10.9375,-10.9375 z "/>
<path style="opacity:.3" id="path3950" d="m 47.9995,15.8024 c -18.2148,0 -32.9978,14.7836 -32.9978,32.9991 0,18.2155 14.783,32.9991 32.9978,32.9991 18.2148,0 32.9978,-14.7836 32.9978,-32.9991 0,-18.2155 -14.783,-32.9991 -32.9978,-32.9991 z  m 0,21.2537 c 6.48323,-1e-06 11.745,5.26196 11.745,11.7455 0,6.48349 -5.26175,11.7454 -11.745,11.7454 -6.48323,0 -11.745,-5.26196 -11.745,-11.7454 0,-6.48349 5.26175,-11.7455 11.745,-11.7455 z "/>
<path style="opacity:.3;fill:#fff" id="path3307" d="m 47.9995,32.5604 c -8.41169,0 -15.2405,6.8291 -15.2405,15.2411 0,8.41203 6.82882,15.2411 15.2405,15.2411 8.41169,0 15.2405,-6.82909 15.2405,-15.2411 0,-8.41203 -6.82883,-15.2411 -15.2405,-15.2411 z  m 0,10.7667 c 2.4698,-1e-06 4.47428,2.00456 4.47428,4.47446 0,2.4699 -2.00448,4.47445 -4.47428,4.47445 -2.46981,0 -4.47428,-2.00455 -4.47428,-4.47445 0,-2.4699 2.00448,-4.47446 4.47428,-4.47446 z "/>
<path style="opacity:.3;fill:url(#radialGradient3348)" id="path3328" d="m 92.5795,61.9223 a 32.6855,27.2085 0 1,1 -65.371,0 32.6855,27.2085 0 1,1 65.371,0 z " transform="matrix(0,0.26689125,-0.32060318,0,67.851938,31.816392)"/>
</g>
<path style="opacity:.6;fill:none;stroke:url(#linearGradient3368);stroke-linecap:round;stroke-width:7.33" id="path3352" d="m 92.5795,61.9223 a 32.6855,27.2085 0 1,1 -65.371,0 32.6855,27.2085 0 1,1 65.371,0 z " transform="matrix(0,0.12447512,-0.14952564,0,57.258424,40.346265)"/>
<g style="stroke:none;fill-rule:evenodd">
<path style="fill:url(#linearGradient3178)" id="path3170" d="m 47.9995,14.8024 c -18.2148,0 -32.9978,14.7836 -32.9978,32.9991 0,18.2155 14.783,32.9991 32.9978,32.9991 18.2148,0 32.9978,-14.7836 32.9978,-32.9991 0,-18.2155 -14.783,-32.9991 -32.9978,-32.9991 z  m 0,21.2537 c 6.48323,-1e-06 11.745,5.26196 11.745,11.7455 0,6.48349 -5.26175,11.7454 -11.745,11.7454 -6.48323,0 -11.745,-5.26196 -11.745,-11.7454 0,-6.48349 5.26175,-11.7455 11.745,-11.7455 z "/>
<path style="opacity:.8;fill:url(#linearGradient3239)" id="path3230" d="m 64.4984,19.4211 c -15.7745,-9.10776 -35.9685,-3.69658 -45.0759,12.0785 -9.1074,15.7751 -3.69644,35.9699 12.078,45.0777 15.7745,9.10776 35.9685,3.69657 45.0759,-12.0785 9.1074,-15.7751 3.69643,-35.9699 -12.078,-45.0777 z  m -10.6264,18.4062 c 5.61465,3.24175 7.54058,10.4297 4.29896,16.0446 -3.24162,5.61487 -10.4293,7.54088 -16.0439,4.29913 -5.61464,-3.24174 -7.54058,-10.4297 -4.29896,-16.0446 3.24161,-5.61487 10.4293,-7.54088 16.0439,-4.29914 z "/>
</g>
<path style="opacity:.15;fill:none;stroke:#000;stroke-linecap:round;stroke-width:6.07" id="path3304" d="m 92.5795,61.9223 a 32.6855,27.2085 0 1,1 -65.371,0 32.6855,27.2085 0 1,1 65.371,0 z " transform="matrix(0.45095579,0,0,0.54175426,20.989915,14.354928)"/>
<g id="g3289" transform="matrix(0.34353541,-0.44136012,0.44134237,0.34354921,-70.641524,0.81170919)">
<g style="clip-path:url(#clipPath3271)" id="g3266">
<path style="fill:url(#linearGradient3917);fill-rule:evenodd;stroke:none" id="path3259" d="m 74.118,277.1173 c 32.0808,-5.58515 53.5845,-36.1546 47.9993,-68.2354 -5.58514,-32.0808 -36.1546,-53.5845 -68.2354,-47.9993 -32.0808,5.58515 -53.5845,36.1546 -47.9993,68.2354 5.58515,32.0808 36.1546,53.5845 68.2354,47.9993 z  m -6.5167,-37.4315 c -11.4186,1.98793 -22.2992,-5.66593 -24.2872,-17.0845 -1.98794,-11.4186 5.66592,-22.2992 17.0845,-24.2872 11.4186,-1.98793 22.2992,5.66593 24.2872,17.0845 1.98792,11.4186 -5.66593,22.2992 -17.0845,24.2872 z "/>
<path style="fill:url(#linearGradient3919);fill-rule:evenodd;stroke:none" id="path3231" d="m 94.7769,269.3268 c 27.7804,-16.9888 36.5388,-53.3233 19.5499,-81.1036 -16.9888,-27.7804 -53.3232,-36.5387 -81.1036,-19.5499 -27.7804,16.9888 -36.5388,53.3233 -19.5499,81.1036 16.9888,27.7804 53.3232,36.5388 81.1036,19.5499 z  m -19.8224,-32.4139 c -9.88793,6.04687 -22.8205,2.92947 -28.8674,-6.95846 -6.04686,-9.88793 -2.92948,-22.8205 6.95845,-28.8674 9.88794,-6.04686 22.8205,-2.92949 28.8674,6.95845 6.04685,9.88793 2.92948,22.8205 -6.95846,28.8674 z "/>
<path style="fill:url(#linearGradient3921);fill-rule:evenodd;stroke:none" id="path3243" d="m 36.1537,271.0056 c 28.7071,15.3712 64.4808,4.54779 79.8519,-24.1593 15.3712,-28.7071 4.5478,-64.4807 -24.1593,-79.8519 -28.7071,-15.3712 -64.4807,-4.5478 -79.8519,24.1593 -15.3712,28.7071 -4.54781,64.4807 24.1593,79.8519 z  m 17.9349,-33.4951 c -10.2178,-5.4711 -14.0702,-18.2041 -8.59906,-28.4219 5.47108,-10.2178 18.2041,-14.0702 28.4219,-8.59906 10.2178,5.47108 14.0702,18.2041 8.59907,28.4219 -5.47108,10.2178 -18.2041,14.0702 -28.4219,8.59909 z "/>
</g>
<g style="clip-path:url(#clipPath3271)" id="g3275" transform="matrix(1,0,0,-1,0,438.00336)">
<path style="fill:url(#linearGradient3923);fill-rule:evenodd;stroke:none" id="path3277" d="m 74.118,277.1173 c 32.0808,-5.58515 53.5845,-36.1546 47.9993,-68.2354 -5.58514,-32.0808 -36.1546,-53.5845 -68.2354,-47.9993 -32.0808,5.58515 -53.5845,36.1546 -47.9993,68.2354 5.58515,32.0808 36.1546,53.5845 68.2354,47.9993 z  m -6.5167,-37.4315 c -11.4186,1.98793 -22.2992,-5.66593 -24.2872,-17.0845 -1.98794,-11.4186 5.66592,-22.2992 17.0845,-24.2872 11.4186,-1.98793 22.2992,5.66593 24.2872,17.0845 1.98792,11.4186 -5.66593,22.2992 -17.0845,24.2872 z "/>
<path style="fill:url(#linearGradient3925);fill-rule:evenodd;stroke:none" id="path3279" d="m 94.7769,269.3268 c 27.7804,-16.9888 36.5388,-53.3233 19.5499,-81.1036 -16.9888,-27.7804 -53.3232,-36.5387 -81.1036,-19.5499 -27.7804,16.9888 -36.5388,53.3233 -19.5499,81.1036 16.9888,27.7804 53.3232,36.5388 81.1036,19.5499 z  m -19.8224,-32.4139 c -9.88793,6.04687 -22.8205,2.92947 -28.8674,-6.95846 -6.04686,-9.88793 -2.92948,-22.8205 6.95845,-28.8674 9.88794,-6.04686 22.8205,-2.92949 28.8674,6.95845 6.04685,9.88793 2.92948,22.8205 -6.95846,28.8674 z "/>
<path style="fill:url(#linearGradient3927);fill-rule:evenodd;stroke:none" id="path3281" d="m 36.1537,271.0056 c 28.7071,15.3712 64.4808,4.54779 79.8519,-24.1593 15.3712,-28.7071 4.5478,-64.4807 -24.1593,-79.8519 -28.7071,-15.3712 -64.4807,-4.5478 -79.8519,24.1593 -15.3712,28.7071 -4.54781,64.4807 24.1593,79.8519 z  m 17.9349,-33.4951 c -10.2178,-5.4711 -14.0702,-18.2041 -8.59906,-28.4219 5.47108,-10.2178 18.2041,-14.0702 28.4219,-8.59906 10.2178,5.47108 14.0702,18.2041 8.59907,28.4219 -5.47108,10.2178 -18.2041,14.0702 -28.4219,8.59909 z "/>
</g>
</g>
<g style="stroke:none">
<g style="fill-rule:evenodd">
<path style="fill:url(#linearGradient3931)" id="path3929" d="m 137.9995,14.8024 c -18.2148,0 -32.9978,14.7836 -32.9978,32.9991 0,18.2155 14.783,32.9991 32.9978,32.9991 18.2148,0 32.9978,-14.7836 32.9978,-32.9991 0,-18.2155 -14.783,-32.9991 -32.9978,-32.9991 z  m 0,21.2537 c 6.48323,-1e-06 11.745,5.26196 11.745,11.7455 0,6.48349 -5.26175,11.7454 -11.745,11.7454 -6.48323,0 -11.745,-5.26196 -11.745,-11.7454 0,-6.48349 5.26175,-11.7455 11.745,-11.7455 z "/>
<path style="opacity:.8;fill:#fff" id="path3933" d="m 48,14.8125 c -18.2148,0 -33,14.7845 -33,33 0,0.337404 0.02118,0.665023 0.03125,1 0.524228,-17.758 15.0852,-32 32.9688,-32 17.8835,0 32.4445,14.242 32.9688,32 0.01007,-0.334977 0.03125,-0.662596 0.03125,-1 0,-18.2155 -14.7852,-33 -33,-33 z "/>
</g>
<path style="font-family:Abandoned Bitplane;opacity:.5;text-transform:none;text-indent:0;text-align:start;color:#000;stroke-width:3.231;line-height:normal;fill:url(#linearGradient3948)" id="path3942" d="m 57.7771,47.805 c 0,-5.30204 -4.33045,-9.68794 -9.78283,-9.68794 -5.45238,0 -9.77223,4.38591 -9.77223,9.68794 0,5.30204 4.31985,9.67912 9.77223,9.67912 5.45238,0 9.78283,-4.37709 9.78283,-9.67912 z  m -1.1023,0 c 0,4.89157 -3.93973,8.77032 -8.68054,8.77032 -4.74081,0 -8.66994,-3.87876 -8.66994,-8.77032 0,-4.89157 3.92913,-8.77915 8.66994,-8.77915 4.74081,0 8.68054,3.88758 8.68054,8.77915 z "/>
</g>
</g>
<g id="layer4">
<path style="fill:none;stroke:url(#linearGradient2988);stroke-linejoin:round;stroke-width:.711" id="path3306" d="M 16.25795,11 A 5.2579503,5.2579503 0 0 1 6.2999401,13.357006" transform="matrix(-4.2195487,-0.09814187,0.09814187,-4.2195487,92.45671,93.680773)"/>
<path style="fill:url(#radialGradient3300);stroke:none" id="path3290" d="m 7.4647,10.9576 a 1.50177,1.50177 0 1,1 -3.00353,0 1.50177,1.50177 0 1,1 3.00353,0 z " transform="matrix(6.5929274,-0.57183006,0.57183006,6.5929274,-21.206951,-20.832876)"/>
</g>
</svg>
