<svg width="96" version="1.0" xmlns="http://www.w3.org/2000/svg" height="96" xmlns:xlink="http://www.w3.org/1999/xlink">
<defs id="defs2410">
<filter width="1.4674321" x="-0.23371603" y="-0.03558654" height="1.0711731" style="color-interpolation-filters:sRGB" id="filter3499">
<feGaussianBlur stdDeviation="1.236517" id="feGaussianBlur3501"/>
</filter>
<filter width="1.5020055" x="-0.25100267" y="-0.026537415" height="1.0530748" style="color-interpolation-filters:sRGB" id="filter3513">
<feGaussianBlur stdDeviation="0.78924581" id="feGaussianBlur3515"/>
</filter>
<filter width="1.6174986" x="-0.30874929" y="-0.027863683" height="1.0557274" style="color-interpolation-filters:sRGB" id="filter3525">
<feGaussianBlur stdDeviation="1.0871431" id="feGaussianBlur3527"/>
</filter>
<filter width="1.5008323" x="-0.25041613" y="-0.031692162" height="1.0633843" style="color-interpolation-filters:sRGB" id="filter3503">
<feGaussianBlur stdDeviation="1.236517" id="feGaussianBlur3505"/>
</filter>
<filter style="color-interpolation-filters:sRGB" id="filter3174">
<feGaussianBlur stdDeviation="1.71" id="feGaussianBlur3176"/>
</filter>
<filter style="color-interpolation-filters:sRGB" id="filter4689">
<feGaussianBlur stdDeviation="0.65275495" id="feGaussianBlur4691"/>
</filter>
<linearGradient gradientTransform="matrix(0.71186441,0,0,0.71186441,2.440678,2.4406779)" spreadMethod="reflect" id="linearGradient3901" xlink:href="#linearGradient4459-2" y1="25.296875" x1="64" y2="25.296875" x2="148.75374" gradientUnits="userSpaceOnUse"/>
<linearGradient id="linearGradient4621">
<stop offset="0" style="stop-color:#595959" id="stop4629"/>
<stop offset="1" id="stop4625"/>
</linearGradient>
<linearGradient id="linearGradient4459-2">
<stop offset="0" style="stop-color:#fff" id="stop4461-7"/>
<stop offset="0.5" style="stop-color:#fff;stop-opacity:.341" id="stop3483-0"/>
<stop offset="1" style="stop-color:#fff;stop-opacity:0" id="stop4463-3"/>
</linearGradient>
<linearGradient gradientTransform="matrix(0.68945914,0,0,0.68945914,5.458219,5.1965253)" id="linearGradient4599" xlink:href="#linearGradient4593" y1="74.24736" x1="63.189781" y2="74.24736" x2="57.662792" gradientUnits="userSpaceOnUse"/>
<linearGradient id="linearGradient4593">
<stop offset="0" id="stop4595"/>
<stop offset="1" style="stop-opacity:0" id="stop4597"/>
</linearGradient>
<linearGradient gradientTransform="matrix(1.0172414,0,0,1.0172414,-1.1034483,-1.1034483)" id="ButtonColor" y1="122" x1="58.650177" y2="5.4252338" x2="58.650177" gradientUnits="userSpaceOnUse">
<stop offset="0" style="stop-color:#ff0a0a" id="stop3189"/>
<stop offset="0.5" style="stop-color:#c70404" id="stop4551"/>
<stop offset="1" style="stop-color:#7c0000" id="stop3191"/>
</linearGradient>
<linearGradient gradientTransform="scale(1.0058652,0.994169)" id="ButtonShadow" y1="92.539597" x1="45.447727" y2="7.0165396" x2="45.447727" gradientUnits="userSpaceOnUse">
<stop offset="0" id="stop3750"/>
<stop offset="1" style="stop-opacity:.588" id="stop3752"/>
</linearGradient>
<linearGradient gradientTransform="matrix(1.0238095,0,0,1.0119048,-1.1428571,-98.071429)" id="linearGradient3780" xlink:href="#ButtonShadow-0" y1="6.1317081" x1="32.251034" y2="90.238609" x2="32.251034" gradientUnits="userSpaceOnUse"/>
<linearGradient gradientTransform="translate(0,-96)" id="linearGradient3617" xlink:href="#ButtonColor" y1="90" x1="48" y2="5.9877172" x2="48" gradientUnits="userSpaceOnUse"/>
<linearGradient id="linearGradient3737">
<stop offset="0" style="stop-color:#fff" id="stop3739"/>
<stop offset="1" style="stop-color:#fff;stop-opacity:0" id="stop3741"/>
</linearGradient>
<linearGradient id="linearGradient3188" xlink:href="#linearGradient3737" y1="6" x1="36.357143" y2="63.893143" x2="36.357143" gradientUnits="userSpaceOnUse"/>
<linearGradient gradientTransform="matrix(1.0058652,0,0,0.994169,100,0)" id="ButtonShadow-0" y1="92.539597" x1="45.447727" y2="7.0165396" x2="45.447727" gradientUnits="userSpaceOnUse">
<stop offset="0" id="stop3750-8"/>
<stop offset="1" style="stop-opacity:.588" id="stop3752-5"/>
</linearGradient>
<linearGradient id="linearGradient4459">
<stop offset="0" style="stop-color:#fff" id="stop4461"/>
<stop offset="0.5" style="stop-color:#fff;stop-opacity:.341" id="stop3483"/>
<stop offset="1" style="stop-color:#fff;stop-opacity:0" id="stop4463"/>
</linearGradient>
<linearGradient gradientTransform="matrix(1.0238095,0,0,1.0119048,-1.1428571,-98.071429)" id="linearGradient3026" xlink:href="#ButtonShadow-0" y1="6.1317081" x1="32.251034" y2="90.238609" x2="32.251034" gradientUnits="userSpaceOnUse"/>
<linearGradient gradientTransform="translate(0,-97)" id="linearGradient3721" xlink:href="#ButtonShadow-0" y1="6.1317081" x1="32.251034" y2="90.238609" x2="32.251034" gradientUnits="userSpaceOnUse"/>
<linearGradient gradientTransform="matrix(1.0238095,0,0,1.0119048,-1.1428571,-98.071429)" id="linearGradient3772" xlink:href="#ButtonShadow-0" y1="6.1317081" x1="32.251034" y2="90.238609" x2="32.251034" gradientUnits="userSpaceOnUse"/>
<linearGradient gradientTransform="matrix(1.0238095,0,0,1.0119048,-1.1428571,-98.071429)" id="linearGradient3725" xlink:href="#ButtonShadow-0" y1="6.1317081" x1="32.251034" y2="90.238609" x2="32.251034" gradientUnits="userSpaceOnUse"/>
<radialGradient fx="-26.369297" fy="6.7088585" cx="-26.369297" cy="6.7088585" gradientTransform="matrix(0.57987578,0,8.2928146e-8,0.31600466,52.085283,12.0672)" r="59" id="radialGradient3904" xlink:href="#linearGradient4621" gradientUnits="userSpaceOnUse"/>
<radialGradient fx="46.289753" fy="54.148411" cx="46.289753" cy="54.148411" r="13.780919" id="radialGradient3889" xlink:href="#linearGradient4459-2" gradientUnits="userSpaceOnUse"/>
<radialGradient fx="48" fy="90.171875" cx="48" cy="90.171875" gradientTransform="matrix(1.1573129,0,0,0.99590774,-7.5510206,0.19713193)" r="42" id="radialGradient3619" xlink:href="#linearGradient3737" gradientUnits="userSpaceOnUse"/>
<radialGradient fx="46.289753" fy="54.148411" cx="46.289753" cy="54.148411" r="13.780919" id="radialGradient3784" xlink:href="#linearGradient4459" gradientUnits="userSpaceOnUse"/>
</defs>
<g style="display:none" id="layer2">
<rect width="86" x="5" y="7" rx="6" height="85" ry="6" style="opacity:.9;fill:url(#ButtonShadow);filter:url(#filter3174);stroke:none" id="rect3745"/>
</g>
<g style="stroke:none" id="layer3">
<path style="opacity:.08;fill:url(#linearGradient3026)" id="path3786" d="m 12,-95.0312 c -5.51109,0 -10.0312,4.52016 -10.0312,10.0312 v 71 c 0,5.51109 4.52016,10.0312 10.0312,10.0312 h 72 c 5.51109,0 10.0312,-4.52016 10.0312,-10.0312 v -71 c 0,-5.51109 -4.52016,-10.0312 -10.0312,-10.0312 h -72 z " transform="scale(1,-1)"/>
<path style="opacity:.1;fill:url(#linearGradient3780)" id="path3778" d="m 12,-94.0312 c -4.97163,0 -9.03125,4.05962 -9.03125,9.03125 v 71 c 0,4.97163 4.05962,9.03125 9.03125,9.03125 h 72 c 4.97163,0 9.03125,-4.05962 9.03125,-9.03125 v -71 c 0,-4.97163 -4.05962,-9.03125 -9.03125,-9.03125 h -72 z " transform="scale(1,-1)"/>
<path style="opacity:.2;fill:url(#linearGradient3772)" id="path3770" d="m 12,-93 c -4.40913,0 -8,3.59087 -8,8 v 71 c 0,4.40913 3.59087,8 8,8 h 72 c 4.40913,0 8,-3.59087 8,-8 v -71 c 0,-4.40913 -3.59087,-8 -8,-8 h -72 z " transform="scale(1,-1)"/>
<rect width="86" x="5" y="-92" rx="7" height="85" ry="7" style="opacity:.3;fill:url(#linearGradient3725)" id="rect3723" transform="scale(1,-1)"/>
<rect width="84" x="6" y="-91" rx="6" height="84" ry="6" style="opacity:.45;fill:url(#linearGradient3721)" id="rect3716" transform="scale(1,-1)"/>
</g>
<g id="layer1">
<g style="stroke:none">
<rect width="84" x="6" y="-90" rx="6" height="84" ry="6" style="fill:url(#linearGradient3617)" id="rect2419" transform="scale(1,-1)"/>
<g style="fill-rule:evenodd;fill-opacity:.75">
<g id="g3529" transform="matrix(0.71186443,0,0,0.70954345,2.4406816,2.45228)">
<g style="fill:#680000">
<path style="opacity:.3;filter:url(#filter3503)" id="path3489" d="m 29.682,23.053 c 0,0 -10.3862,51.3399 3.53357,93.6396 -10.2474,-65.7244 4.59364,-92.2261 4.59364,-92.2261 l -8.1272,-1.4134 z "/>
<path style="opacity:.3;filter:url(#filter3499)" id="path3487" d="m 15.5477,19.8728 c 0,0 -10.7395,41.4459 0.706714,83.3922 -6.36042,-60.424 7.42049,-81.9788 7.42049,-81.9788 l -8.1272,-1.4134 z "/>
</g>
<g style="fill:#f55">
<path style="opacity:.3;filter:url(#filter3513)" id="path3517" d="m 21.5548,103.6184 c 0,0 -4.24028,-38.1625 3.53357,-71.3781 -6.49746,16.7306 -11.3074,38.1625 -3.53357,71.3781 z " transform="matrix(0.9996438,-0.02985683,0.02668893,1.1182989,22.576257,6.0343587)"/>
<path style="opacity:.3;filter:url(#filter3513)" id="path3507" d="m 21.5548,103.6184 c 0,0 -4.24028,-38.1625 3.53357,-71.3781 -6.49746,16.7306 -11.3074,38.1625 -3.53357,71.3781 z " transform="matrix(0.9996438,-0.02668893,0.02668893,0.9996438,-1.4520112,6.2467845)"/>
</g>
<path style="opacity:.3;fill:#680000;filter:url(#filter3525)" id="path3519" d="m 52.2968,23.053 c 0,0 -1.90562,49.7577 3.53357,93.6396 -2.12014,-64.6696 4.59364,-92.2261 4.59364,-92.2261 l -8.1272,-1.4134 z " transform="matrix(1,0,0,0.6700005,0,7.6074785)"/>
</g>
<g id="g3536" transform="matrix(-0.71186443,0,0,0.70954345,94.556869,2.45228)">
<g style="fill:#680000">
<path style="opacity:.3;filter:url(#filter3503)" id="path3538" d="m 29.682,23.053 c 0,0 -10.3862,51.3399 3.53357,93.6396 -10.2474,-65.7244 4.59364,-92.2261 4.59364,-92.2261 l -8.1272,-1.4134 z "/>
<path style="opacity:.3;filter:url(#filter3499)" id="path3540" d="m 15.5477,19.8728 c 0,0 -10.7395,41.4459 0.706714,83.3922 -6.36042,-60.424 7.42049,-81.9788 7.42049,-81.9788 l -8.1272,-1.4134 z "/>
</g>
<g style="fill:#f55">
<path style="opacity:.3;filter:url(#filter3513)" id="path3542" d="m 21.5548,103.6184 c 0,0 -4.24028,-38.1625 3.53357,-71.3781 -6.49746,16.7306 -11.3074,38.1625 -3.53357,71.3781 z " transform="matrix(0.9996438,-0.02985683,0.02668893,1.1182989,22.576257,6.0343587)"/>
<path style="opacity:.3;filter:url(#filter3513)" id="path3544" d="m 21.5548,103.6184 c 0,0 -4.24028,-38.1625 3.53357,-71.3781 -6.49746,16.7306 -11.3074,38.1625 -3.53357,71.3781 z " transform="matrix(0.9996438,-0.02668893,0.02668893,0.9996438,-1.4520112,6.2467845)"/>
</g>
<path style="opacity:.3;fill:#680000;filter:url(#filter3525)" id="path3546" d="m 52.2968,23.053 c 0,0 -1.90562,49.7577 3.53357,93.6396 -2.12014,-64.6696 4.59364,-92.2261 4.59364,-92.2261 l -8.1272,-1.4134 z " transform="matrix(1,0,0,0.6700005,0,7.6074785)"/>
</g>
</g>
<path style="opacity:.8;fill:#ffd903;filter:url(#filter4689)" id="path4669" d="m 89.4503,33.8984 a 25.4858,9.89841 0 1,1 -50.9717,0 25.4858,9.89841 0 1,1 50.9717,0 z " transform="matrix(0.66936904,0,0,1.0212275,5.1588718,-9.4603187)"/>
<g style="fill-rule:evenodd">
<path style="fill-opacity:.75" id="path4655" d="m 39.7292,22.8454 c 2.00751,0.02339 2.66654,2.45789 1.92105,4.01799 -0.456953,2.16599 -2.53509,3.35161 -3.34635,5.30668 -1.04638,2.63406 -0.146779,5.5251 1.16593,7.88681 1.06017,2.21835 2.36955,4.8546 4.96124,5.51786 1.52531,0.484265 2.78619,-0.914146 4.28284,-0.586599 1.89214,0.32011 3.78991,1.99264 5.73054,0.929911 1.29796,-0.948997 2.06801,-2.44349 2.91363,-3.77675 1.8954,-3.28229 1.25801,-7.53453 -0.890172,-10.5373 -0.847304,-1.38056 -2.15701,-2.46224 -2.86392,-3.91589 -0.519732,-2.03413 0.668263,-4.17267 -0.188096,-6.15975 -1.20847,-1.49352 -3.3856,-0.875019 -4.98042,-0.489697 -2.26769,0.706473 -4.66851,2.0183 -7.08044,1.16167 -0.604751,-0.07335 -1.24053,0.171811 -1.62583,0.645084 z "/>
<g style="fill-opacity:.706">
<path id="path2678" d="m 18.7909,41.3744 c 0,0.334296 0,0.334296 0,0 0,-4.48986 -8.48058,5.76655 -7.54626,9.02599 1.14323,3.98828 0.377501,5.01444 4.7793,5.01444 2.63635,0 4.08018,-2.16312 5.28238,-3.76083 1.76001,-2.33903 2.26388,-3.52934 2.26388,-6.01733 0,-0.792301 -1.65622,-2.89272 -2.26388,-3.44994 -0.893418,-0.819269 -0.615236,-0.433542 -2.51542,-0.812339 z "/>
<path id="path2684" d="m 76.6424,41.8101 c -2.28131,-1.56647 -6.59607,-2.03382 -6.25828,1.14904 0.433048,4.08041 1.78532,5.30701 3.28968,7.29668 0.537422,0.710805 3.317,3.24048 4.31283,3.6422 2.37967,0.959958 3.6871,-0.646814 4.8687,-2.1032 1.73543,-2.13901 -1.95486,-7.59326 -3.25877,-9.31784 -1.09187,-1.44412 -0.933276,-1.36049 -2.03187,-1.80366 -0.453194,-0.18282 -0.614844,0.757843 -0.922277,1.13676 z "/>
<path id="path3456" d="m 36.5556,57.415 c -0.584526,-0.463047 -2.70894,-0.869748 -3.72907,-0.946637 -0.615749,-0.04641 -2.95534,2.01339 -3.60329,2.65693 -1.16262,1.1547 -2.37146,2.73136 -3.45221,4.19913 -0.728231,0.988997 -1.21132,2.24026 -1.80601,3.99043 -0.692615,2.03833 -0.330988,2.96095 -0.907363,4.65717 -0.576724,1.69727 0.300634,2.41672 1.17986,3.15056 0.461352,0.385055 2.51955,0.447601 3.33433,0.783768 0.767774,0.316776 1.77372,1.02779 2.67497,1.39965 0.787714,0.325006 1.37122,0.290097 2.75692,-0.934327 1.25661,-1.11037 1.97224,0.326645 4.24794,-1.799 1.03156,-0.963539 2.30027,-4.12043 2.72998,-5.38505 0.779086,-2.29281 0.366155,-4.20736 0.227049,-4.64189 -0.458334,-1.43177 -0.624511,-3.55622 -1.15454,-5.21192 -0.581949,-1.81792 -1.00661,-0.811859 -2.49857,-1.91881 z "/>
<path id="path3458" d="m 59.1843,58.3327 c 0.536717,-1.68255 3.38978,-1.01657 5.14758,-0.230876 1.94686,0.870201 2.13942,1.24614 3.56004,3.11993 1.9732,2.60263 2.60207,2.52935 3.17144,5.23362 0.57199,2.71676 -1.05664,3.90155 -1.60818,5.63057 -0.289786,0.908464 -1.65616,2.04782 -2.17227,2.68598 -0.611249,0.755813 -1.88508,1.09476 -2.81512,1.75566 -1.39362,0.990324 -3.29619,-0.867885 -4.22401,-1.48617 -1.59799,-1.06487 -1.93838,-3.36833 -2.16013,-4.42152 -0.334356,-1.58807 -1.6092,-2.60498 -2.47785,-4.60372 -0.570139,-1.31188 -1.51972,-4.299 -1.64045,-4.8724 -0.241222,-1.14571 1.15273,-1.80871 1.75356,-2.55164 0.428386,-0.529692 1.27749,-0.978169 2.5048,-1.37195 0.767618,-0.246286 0.34645,-0.300584 0.960583,1.11252 z "/>
<path id="path3460" d="m 20.304,81.6107 c -1.0954,-0.04144 -2.41264,0.13304 -3.51483,0.13304 -1.64797,0 -5.29449,3.17513 -5.29449,4.76725 0,0.708976 0.101469,1.8751 0.222458,3.1486 0.263561,0.03207 0.528317,0.06648 0.800847,0.06648 h 13.6811 c 0.05766,-0.672654 -0.04065,-1.34495 -0.355932,-1.97342 -0.735484,-1.46617 -1.71572,-2.98369 -2.26907,-3.25947 -0.0823,-0.04101 -1.08401,-2.45418 -2.26907,-2.74948 -0.295815,-0.07371 -0.63593,-0.119217 -1.00106,-0.133039 z "/>
<path id="path3462" d="m 77.0752,80.4577 c -0.420356,0.005 -0.831693,0.09042 -1.17902,0.288252 -1.78819,1.01849 -5.53919,5.13925 -5.53919,6.00895 0,0.648743 0.114988,1.75462 0.311441,2.97121 h 12.8136 c 0.396815,0 0.779897,-0.04378 1.15678,-0.110866 -0.04983,-0.783889 -0.246426,-1.55901 -0.444916,-2.35036 -0.344684,-1.37423 -1.21031,-2.86743 -2.02436,-4.52334 -0.746646,-1.51881 -1.44228,-1.54012 -3.27013,-1.99559 -0.422107,-0.105183 -1.12356,-0.297008 -1.82415,-0.288252 z "/>
</g>
</g>
<path style="opacity:.7;fill:url(#radialGradient3784)" id="path4457" d="m 60.0707,54.1484 a 13.7809,13.7809 0 1,1 -27.5618,0 13.7809,13.7809 0 1,1 27.5618,0 z " transform="matrix(1.2594524,0,0,1.2553461,-29.447136,-27.352788)"/>
</g>
</g>
<g style="stroke:none" id="layer4">
<path style="font-family:Abandoned Bitplane;opacity:.2;text-transform:none;text-indent:0;text-align:start;color:#000;line-height:normal;fill:#fc0" id="path4553" d="m 48.5938,14.9062 -.9688,.2188 c 5.0389,25.0628 -1.88451,49.5035 1.96875,74.875 l 1,-.125 c -3.81205,-25.1002 3.09817,-49.6111 -2,-74.9688 z "/>
<path style="opacity:.4;fill:url(#linearGradient4599)" id="path4591" d="m 44.2188,16.2279 0,73.7721 5.4941,0 c -3.70953,-24.9413 2.87594,-49.0618 -1.72365,-73.7721 l -3.7705,-0 z "/>
</g>
<g style="stroke:none" id="layer6">
<path style="opacity:.1" id="path3926" d="m 12,9 c -3.324,0 -6,2.676 -6,6 v 0.53125 3.46875 1.90625 c 9.26963,4.41446 24.6196,7.3125 42,7.3125 17.3804,0 32.7304,-2.89804 42,-7.3125 v -1.90625 -3.46875 -0.53125 c 0,-3.324 -2.676,-6 -6,-6 h -0.53125 -70.9375 -0.53125 z "/>
<path style="opacity:.15" id="path3924" d="m 12,8 c -3.324,0 -6,2.676 -6,6 v 0.53125 3.46875 1.90625 c 9.26963,4.41446 24.6196,7.3125 42,7.3125 17.3804,0 32.7304,-2.89804 42,-7.3125 v -1.90625 -3.46875 -0.53125 c 0,-3.324 -2.676,-6 -6,-6 h -0.53125 -70.9375 -0.53125 z "/>
<path style="opacity:.3" id="path3920" d="m 12,7 c -3.324,0 -6,2.676 -6,6 v 0.53125 3.46875 1.90625 c 9.26963,4.41446 24.6196,7.3125 42,7.3125 17.3804,0 32.7304,-2.89804 42,-7.3125 v -1.90625 -3.46875 -0.53125 c 0,-3.324 -2.676,-6 -6,-6 h -0.53125 -70.9375 -0.53125 z "/>
<path style="fill:url(#radialGradient3904)" id="path4612" d="m 12,6 c -3.324,0 -6,2.676 -6,6 v 0.53125 3.46875 1.90625 c 9.26963,4.41446 24.6196,7.3125 42,7.3125 17.3804,0 32.7304,-2.89804 42,-7.3125 v -1.90625 -3.46875 -0.53125 c 0,-3.324 -2.676,-6 -6,-6 h -0.53125 -70.9375 -0.53125 z "/>
<path style="opacity:.2;fill:url(#linearGradient3901)" id="path4617" d="m 6,15.6769 0,2.2246 c 9.26963,4.41446 24.6196,7.31886 42,7.31886 17.3804,0 32.7304,-2.9044 42,-7.31886 v -2.22458 c -9.26968,4.04669 -24.6198,6.69597 -42,6.69597 -17.3802,0 -32.7303,-2.64929 -42,-6.69597 z "/>
<path style="opacity:.7;fill:url(#radialGradient3889)" id="path3477" d="m 60.0707,54.1484 a 13.7809,13.7809 0 1,1 -27.5618,0 13.7809,13.7809 0 1,1 27.5618,0 z " transform="matrix(0.4745763,0,0,0.4745763,14.179314,-11.021861)"/>
</g>
<g style="stroke:none" id="layer5">
<path style="opacity:.2;fill:url(#radialGradient3619)" id="path3615" d="M 12,90 C 8.676,90 6,87.324 6,84 L 6,82 6,14 6,12 c 0,-0.334721 0.04135,-0.6507 0.09375,-0.96875 0.0487,-0.295596 0.09704,-0.596915 0.1875,-0.875 C 6.29113,10.12587 6.302142,10.09265 6.3125,10.0625 6.411365,9.774729 6.5473802,9.515048 6.6875,9.25 6.8320918,8.976493 7.0031161,8.714385 7.1875,8.46875 7.3718839,8.223115 7.5612765,7.995278 7.78125,7.78125 8.221197,7.353194 8.72416,6.966724 9.28125,6.6875 9.559795,6.547888 9.8547231,6.440553 10.15625,6.34375 9.9000482,6.443972 9.6695391,6.580022 9.4375,6.71875 c -0.00741,0.0044 -0.023866,-0.0045 -0.03125,0 -0.031933,0.0193 -0.062293,0.04251 -0.09375,0.0625 -0.120395,0.0767 -0.2310226,0.163513 -0.34375,0.25 -0.1061728,0.0808 -0.2132809,0.161112 -0.3125,0.25 C 8.4783201,7.442683 8.3087904,7.626638 8.15625,7.8125 8.0486711,7.942755 7.9378561,8.077785 7.84375,8.21875 7.818661,8.25713 7.805304,8.30462 7.78125,8.34375 7.716487,8.446782 7.6510225,8.548267 7.59375,8.65625 7.4927417,8.850956 7.3880752,9.071951 7.3125,9.28125 7.30454,9.30306 7.288911,9.3218 7.28125,9.34375 7.2494249,9.4357 7.2454455,9.530581 7.21875,9.625 7.1884177,9.731618 7.1483606,9.828031 7.125,9.9375 7.0521214,10.279012 7,10.635705 7,11 l 0,2 0,68 0,2 c 0,2.781848 2.2181517,5 5,5 l 2,0 68,0 2,0 c 2.781848,0 5,-2.218152 5,-5 l 0,-2 0,-68 0,-2 C 89,10.635705 88.94788,10.279012 88.875,9.9375 88.83085,9.730607 88.78662,9.539842 88.71875,9.34375 88.71105,9.3218 88.69545,9.30306 88.6875,9.28125 88.62476,9.107511 88.549117,8.913801 88.46875,8.75 88.42717,8.6672 88.38971,8.580046 88.34375,8.5 88.28915,8.40279 88.216976,8.31165 88.15625,8.21875 88.06214,8.077785 87.951329,7.942755 87.84375,7.8125 87.700576,7.63805 87.540609,7.465502 87.375,7.3125 87.36383,7.3023 87.35502,7.29135 87.34375,7.28125 87.205364,7.155694 87.058659,7.046814 86.90625,6.9375 86.803679,6.86435 86.701932,6.784136 86.59375,6.71875 c -0.0074,-0.0045 -0.02384,0.0044 -0.03125,0 -0.232039,-0.138728 -0.462548,-0.274778 -0.71875,-0.375 0.301527,0.0968 0.596455,0.204138 0.875,0.34375 0.55709,0.279224 1.060053,0.665694 1.5,1.09375 0.219973,0.214028 0.409366,0.441865 0.59375,0.6875 0.184384,0.245635 0.355408,0.507743 0.5,0.78125 0.14012,0.265048 0.276135,0.524729 0.375,0.8125 0.01041,0.03078 0.02133,0.06274 0.03125,0.09375 0.09046,0.278085 0.1388,0.579404 0.1875,0.875 C 89.95865,11.3493 90,11.665279 90,12 l 0,2 0,68 0,2 c 0,3.324 -2.676,6 -6,6 l -72,0 z"/>
<path style="opacity:.3;fill:url(#linearGradient3188)" id="rect3728" d="m 12,6 c -3.324,0 -6,2.676 -6,6 v 2 68 2 c 0,0.334721 0.04135,0.6507 0.09375,0.96875 0.0487,0.295596 0.09704,0.596915 0.1875,0.875 0.00988,0.03038 0.020892,0.0636 0.03125,0.09375 0.098865,0.287771 0.23488,0.547452 0.375,0.8125 0.144592,0.273507 0.315616,0.535615 0.5,0.78125 0.184384,0.245635 0.373776,0.473472 0.59375,0.6875 0.439947,0.428056 0.94291,0.814526 1.5,1.09375 0.278545,0.139612 0.573473,0.246947 0.875,0.34375 -0.256202,-0.100222 -0.486711,-0.236272 -0.71875,-0.375 -0.00741,-0.0044 -0.023866,0.0045 -0.03125,0 -0.031933,-0.0193 -0.062293,-0.04251 -0.09375,-0.0625 -0.120395,-0.0767 -0.231023,-0.163513 -0.34375,-0.25 -0.106173,-0.0808 -0.213281,-0.161112 -0.3125,-0.25 -0.17793,-0.161433 -0.34746,-0.345388 -0.5,-0.53125 -0.107579,-0.130255 -0.218394,-0.265285 -0.3125,-0.40625 -0.025089,-0.03838 -0.038446,-0.08587 -0.0625,-0.125 -0.064763,-0.103032 -0.130228,-0.204517 -0.1875,-0.3125 -0.101008,-0.194706 -0.205675,-0.415701 -0.28125,-0.625 -0.00796,-0.02181 -0.023589,-0.04055 -0.03125,-0.0625 -0.0318251,-0.09195 -0.0358045,-0.186831 -0.0625,-0.28125 -0.0303323,-0.106618 -0.0703894,-0.203031 -0.09375,-0.3125 -0.0728786,-0.341512 -0.125,-0.698205 -0.125,-1.0625 v -2 -68 -2 c 0,-2.78185 2.21815,-5 5,-5 h 2 68 2 c 2.78185,0 5,2.21815 5,5 v 2 68 2 c 0,0.364295 -0.05212,0.720988 -0.125,1.0625 -0.04415,0.206893 -0.08838,0.397658 -0.15625,0.59375 -0.0077,0.02195 -0.0233,0.04069 -0.03125,0.0625 -0.06274,0.173739 -0.138383,0.367449 -0.21875,0.53125 -0.04158,0.0828 -0.07904,0.169954 -0.125,0.25 -0.0546,0.09721 -0.126774,0.18835 -0.1875,0.28125 -0.09411,0.140965 -0.204921,0.275995 -0.3125,0.40625 -0.143174,0.17445 -0.303141,0.346998 -0.46875,0.5 -0.01117,0.0102 -0.01998,0.02115 -0.03125,0.03125 -0.138386,0.125556 -0.285091,0.234436 -0.4375,0.34375 -0.102571,0.07315 -0.204318,0.153364 -0.3125,0.21875 -0.0074,0.0045 -0.02384,-0.0044 -0.03125,0 -0.232039,0.138728 -0.462548,0.274778 -0.71875,0.375 0.301527,-0.0968 0.596455,-0.204138 0.875,-0.34375 0.55709,-0.279224 1.06005,-0.665694 1.5,-1.09375 0.219973,-0.214028 0.409366,-0.441865 0.59375,-0.6875 0.184384,-0.245635 0.355408,-0.507743 0.5,-0.78125 0.14012,-0.265048 0.276135,-0.524729 0.375,-0.8125 0.01041,-0.03078 0.02133,-0.06274 0.03125,-0.09375 0.09046,-0.278085 0.1388,-0.579404 0.1875,-0.875 0.0524,-0.31805 0.09375,-0.634029 0.09375,-0.96875 v -2 -68 -2 c 0,-3.324 -2.676,-6 -6,-6 h -72 z "/>
</g>
</svg>
