<svg width="96" version="1.0" xmlns="http://www.w3.org/2000/svg" height="96" xmlns:xlink="http://www.w3.org/1999/xlink">
<defs id="defs2410">
<clipPath id="clipPath3613">
<rect width="84" x="6" y="6" rx="6" height="84" ry="6" style="fill:#fff;stroke:none" id="rect3615"/>
</clipPath>
<filter width="1.3839999" x="-0.192" y="-0.192" height="1.3839999" style="color-interpolation-filters:sRGB" id="filter3794">
<feGaussianBlur stdDeviation="5.28" id="feGaussianBlur3796"/>
</filter>
<filter style="color-interpolation-filters:sRGB" id="filter3174">
<feGaussianBlur stdDeviation="1.71" id="feGaussianBlur3176"/>
</filter>
<linearGradient id="linearGradient3722" xlink:href="#linearGradient3707" y1="47.979362" x1="48.077351" y2="47.979362" x2="65.11248" gradientUnits="userSpaceOnUse"/>
<linearGradient id="linearGradient3713" xlink:href="#linearGradient3707" y1="47.979362" x1="31" y2="47.979362" x2="48.03513" gradientUnits="userSpaceOnUse"/>
<linearGradient gradientTransform="matrix(1.0238095,0,0,1.0119048,-1.1428571,-98.071429)" id="linearGradient3725" xlink:href="#ButtonShadow-0" y1="6.1317081" x1="32.251034" y2="90.238609" x2="32.251034" gradientUnits="userSpaceOnUse"/>
<linearGradient gradientTransform="matrix(1.0238095,0,0,1.0119048,-1.1428571,-98.071429)" id="linearGradient3026" xlink:href="#ButtonShadow-0" y1="6.1317081" x1="32.251034" y2="90.238609" x2="32.251034" gradientUnits="userSpaceOnUse"/>
<linearGradient gradientTransform="translate(0,-97)" id="linearGradient3721" xlink:href="#ButtonShadow-0" y1="6.1317081" x1="32.251034" y2="90.238609" x2="32.251034" gradientUnits="userSpaceOnUse"/>
<linearGradient gradientTransform="matrix(1.0238095,0,0,1.0119048,-1.1428571,-98.071429)" id="linearGradient3772" xlink:href="#ButtonShadow-0" y1="6.1317081" x1="32.251034" y2="90.238609" x2="32.251034" gradientUnits="userSpaceOnUse"/>
<linearGradient id="linearGradient3730" xlink:href="#linearGradient3724" y1="59.064777" x1="27.3953" y2="59.064777" x2="48.11248" gradientUnits="userSpaceOnUse"/>
<linearGradient id="linearGradient3738" xlink:href="#linearGradient3724" y1="59.064777" x1="48" y2="59.064777" x2="69.017853" gradientUnits="userSpaceOnUse"/>
<linearGradient id="linearGradient3739" xlink:href="#linearGradient3731" y1="77.264755" x1="53.245571" y2="21.94384" x2="53.245571" gradientUnits="userSpaceOnUse"/>
<linearGradient id="linearGradient3774" xlink:href="#linearGradient3731" y1="77.264755" x1="53.245571" y2="21.94384" x2="53.245571" gradientUnits="userSpaceOnUse"/>
<linearGradient id="linearGradient3764" xlink:href="#linearGradient3731" y1="77.264755" x1="53.245571" y2="21.94384" x2="53.245571" gradientUnits="userSpaceOnUse"/>
<linearGradient id="linearGradient3799" xlink:href="#linearGradient3801" y1="59.064777" x1="48" y2="59.064777" x2="69.017853" gradientUnits="userSpaceOnUse"/>
<linearGradient id="linearGradient3746" xlink:href="#linearGradient3740" y1="33.304859" x1="47.916752" y2="33.304859" x2="76.623817" gradientUnits="userSpaceOnUse"/>
<linearGradient id="linearGradient3790" xlink:href="#linearGradient3784" y1="59.064777" x1="31.085375" y2="59.064777" x2="48.11248" gradientUnits="userSpaceOnUse"/>
<linearGradient id="linearGradient3755" xlink:href="#linearGradient3748" y1="33.25" x1="19.288221" y2="33.25" x2="47.995289" gradientUnits="userSpaceOnUse"/>
<linearGradient id="linearGradient3773" xlink:href="#linearGradient3757" y1="53.649677" x1="47.916729" y2="53.649677" x2="76.733521" gradientUnits="userSpaceOnUse"/>
<linearGradient id="linearGradient3763" xlink:href="#linearGradient3757" y1="53.649677" x1="19.068768" y2="53.649677" x2="47.885559" gradientUnits="userSpaceOnUse"/>
<linearGradient gradientTransform="matrix(1.0238095,0,0,1.0119048,-1.1428571,-98.071429)" id="linearGradient3780" xlink:href="#ButtonShadow-0" y1="6.1317081" x1="32.251034" y2="90.238609" x2="32.251034" gradientUnits="userSpaceOnUse"/>
<linearGradient id="linearGradient3740">
<stop offset="0" style="stop-color:#5cacf5" id="stop3742"/>
<stop offset="1" style="stop-color:#abd4f4" id="stop3744"/>
</linearGradient>
<linearGradient id="linearGradient3748">
<stop offset="0" style="stop-color:#5aabf2" id="stop3751"/>
<stop offset="1" style="stop-color:#badaf5" id="stop3753"/>
</linearGradient>
<linearGradient id="linearGradient3782" xlink:href="#linearGradient3731" y1="74.687927" x1="47.835155" y2="28.007326" x2="48.321796" gradientUnits="userSpaceOnUse"/>
<linearGradient id="linearGradient3757">
<stop offset="0" style="stop-color:#389bed" id="stop3759"/>
<stop offset="1" style="stop-color:#c2e5fc" id="stop3761"/>
</linearGradient>
<linearGradient id="linearGradient3784">
<stop offset="0" style="stop-color:#1b8cee" id="stop3786"/>
<stop offset="1" style="stop-color:#79b8e8" id="stop3788"/>
</linearGradient>
<linearGradient id="linearGradient3731">
<stop offset="0" style="stop-color:#520" id="stop3733"/>
<stop offset="1" style="stop-color:#520;stop-opacity:0" id="stop3735"/>
</linearGradient>
<linearGradient id="linearGradient3801">
<stop offset="0" style="stop-color:#107cd9" id="stop3803"/>
<stop offset="1" style="stop-color:#79b8e8" id="stop3805"/>
</linearGradient>
<linearGradient id="linearGradient3708">
<stop offset="0" style="stop-color:#803300" id="stop3710"/>
<stop offset="0.5" style="stop-color:#803300" id="stop3716"/>
<stop offset="0.75" style="stop-color:#803300;stop-opacity:.736" id="stop3718"/>
<stop offset="1" style="stop-color:#803300;stop-opacity:0" id="stop3712"/>
</linearGradient>
<linearGradient id="linearGradient3724">
<stop offset="0" style="stop-color:#0d82e4" id="stop3726"/>
<stop offset="1" style="stop-color:#bcdbf7" id="stop3728"/>
</linearGradient>
<linearGradient gradientTransform="matrix(1.0058652,0,0,0.994169,100,0)" id="ButtonShadow-0" y1="92.539597" x1="45.447727" y2="7.0165396" x2="45.447727" gradientUnits="userSpaceOnUse">
<stop offset="0" id="stop3750-8"/>
<stop offset="1" style="stop-opacity:.588" id="stop3752-5"/>
</linearGradient>
<linearGradient id="linearGradient3617" xlink:href="#linearGradient3700" y1="90" x1="48" y2="5.9877172" x2="48" gradientUnits="userSpaceOnUse"/>
<linearGradient id="linearGradient3613" xlink:href="#linearGradient3737" y1="20.220806" x1="48" y2="138.66119" x2="48" gradientUnits="userSpaceOnUse"/>
<linearGradient id="linearGradient3707">
<stop offset="0" style="stop-color:#a8d4fb" id="stop3709"/>
<stop offset="1" style="stop-color:#dff0fa" id="stop3711"/>
</linearGradient>
<linearGradient gradientTransform="scale(1.0058652,0.994169)" id="ButtonShadow" y1="92.539597" x1="45.447727" y2="7.0165396" x2="45.447727" gradientUnits="userSpaceOnUse">
<stop offset="0" id="stop3750"/>
<stop offset="1" style="stop-opacity:.588" id="stop3752"/>
</linearGradient>
<linearGradient id="linearGradient3188" xlink:href="#linearGradient3737" y1="6" x1="36.357143" y2="63.893143" x2="36.357143" gradientUnits="userSpaceOnUse"/>
<linearGradient id="linearGradient3737">
<stop offset="0" style="stop-color:#fff" id="stop3739"/>
<stop offset="1" style="stop-color:#fff;stop-opacity:0" id="stop3741"/>
</linearGradient>
<linearGradient id="linearGradient3700">
<stop offset="0" style="stop-color:#eec00f" id="stop3702"/>
<stop offset="1" style="stop-color:#fff8a0" id="stop3704"/>
</linearGradient>
<radialGradient fx="48.073509" fy="63.818562" cx="48.073509" cy="63.818562" gradientTransform="matrix(1,0,0,0.618034,0,24.376521)" r="22.071104" id="radialGradient3714" xlink:href="#linearGradient3708" gradientUnits="userSpaceOnUse"/>
<radialGradient fx="48" fy="90.171875" cx="48" cy="90.171875" gradientTransform="matrix(1.1573129,0,0,0.99590774,-7.5510206,0.19713193)" r="42" id="radialGradient3619" xlink:href="#linearGradient3737" gradientUnits="userSpaceOnUse"/>
</defs>
<g style="display:none" id="layer2">
<rect width="86" x="5" y="7" rx="6" height="85" ry="6" style="opacity:.9;fill:url(#ButtonShadow);filter:url(#filter3174);stroke:none" id="rect3745"/>
</g>
<g style="stroke:none" id="layer3">
<path style="opacity:.08;fill:url(#linearGradient3026)" id="path3786" d="m 12,-95.0312 c -5.51109,0 -10.0312,4.52016 -10.0312,10.0312 v 71 c 0,5.51109 4.52016,10.0312 10.0312,10.0312 h 72 c 5.51109,0 10.0312,-4.52016 10.0312,-10.0312 v -71 c 0,-5.51109 -4.52016,-10.0312 -10.0312,-10.0312 h -72 z " transform="scale(1,-1)"/>
<path style="opacity:.1;fill:url(#linearGradient3780)" id="path3778" d="m 12,-94.0312 c -4.97163,0 -9.03125,4.05962 -9.03125,9.03125 v 71 c 0,4.97163 4.05962,9.03125 9.03125,9.03125 h 72 c 4.97163,0 9.03125,-4.05962 9.03125,-9.03125 v -71 c 0,-4.97163 -4.05962,-9.03125 -9.03125,-9.03125 h -72 z " transform="scale(1,-1)"/>
<path style="opacity:.2;fill:url(#linearGradient3772)" id="path3770" d="m 12,-93 c -4.40913,0 -8,3.59087 -8,8 v 71 c 0,4.40913 3.59087,8 8,8 h 72 c 4.40913,0 8,-3.59087 8,-8 v -71 c 0,-4.40913 -3.59087,-8 -8,-8 h -72 z " transform="scale(1,-1)"/>
<rect width="86" x="5" y="-92" rx="7" height="85" ry="7" style="opacity:.3;fill:url(#linearGradient3725)" id="rect3723" transform="scale(1,-1)"/>
<rect width="84" x="6" y="-91" rx="6" height="84" ry="6" style="opacity:.45;fill:url(#linearGradient3721)" id="rect3716" transform="scale(1,-1)"/>
</g>
<g style="stroke:none" id="layer1">
<rect width="84" x="6" y="6" rx="6" height="84" ry="6" style="fill:url(#linearGradient3617)" id="rect2419"/>
<path style="opacity:.5;fill:url(#linearGradient3188)" id="rect3728" d="m 12,6 c -3.324,0 -6,2.676 -6,6 v 2 68 2 c 0,0.334721 0.04135,0.6507 0.09375,0.96875 0.0487,0.295596 0.09704,0.596915 0.1875,0.875 0.00988,0.03038 0.020892,0.0636 0.03125,0.09375 0.098865,0.287771 0.23488,0.547452 0.375,0.8125 0.144592,0.273507 0.315616,0.535615 0.5,0.78125 0.184384,0.245635 0.373776,0.473472 0.59375,0.6875 0.439947,0.428056 0.94291,0.814526 1.5,1.09375 0.278545,0.139612 0.573473,0.246947 0.875,0.34375 -0.256202,-0.100222 -0.486711,-0.236272 -0.71875,-0.375 -0.00741,-0.0044 -0.023866,0.0045 -0.03125,0 -0.031933,-0.0193 -0.062293,-0.04251 -0.09375,-0.0625 -0.120395,-0.0767 -0.231023,-0.163513 -0.34375,-0.25 -0.106173,-0.0808 -0.213281,-0.161112 -0.3125,-0.25 -0.17793,-0.161433 -0.34746,-0.345388 -0.5,-0.53125 -0.107579,-0.130255 -0.218394,-0.265285 -0.3125,-0.40625 -0.025089,-0.03838 -0.038446,-0.08587 -0.0625,-0.125 -0.064763,-0.103032 -0.130228,-0.204517 -0.1875,-0.3125 -0.101008,-0.194706 -0.205675,-0.415701 -0.28125,-0.625 -0.00796,-0.02181 -0.023589,-0.04055 -0.03125,-0.0625 -0.0318251,-0.09195 -0.0358045,-0.186831 -0.0625,-0.28125 -0.0303323,-0.106618 -0.0703894,-0.203031 -0.09375,-0.3125 -0.0728786,-0.341512 -0.125,-0.698205 -0.125,-1.0625 v -2 -68 -2 c 0,-2.78185 2.21815,-5 5,-5 h 2 68 2 c 2.78185,0 5,2.21815 5,5 v 2 68 2 c 0,0.364295 -0.05212,0.720988 -0.125,1.0625 -0.04415,0.206893 -0.08838,0.397658 -0.15625,0.59375 -0.0077,0.02195 -0.0233,0.04069 -0.03125,0.0625 -0.06274,0.173739 -0.138383,0.367449 -0.21875,0.53125 -0.04158,0.0828 -0.07904,0.169954 -0.125,0.25 -0.0546,0.09721 -0.126774,0.18835 -0.1875,0.28125 -0.09411,0.140965 -0.204921,0.275995 -0.3125,0.40625 -0.143174,0.17445 -0.303141,0.346998 -0.46875,0.5 -0.01117,0.0102 -0.01998,0.02115 -0.03125,0.03125 -0.138386,0.125556 -0.285091,0.234436 -0.4375,0.34375 -0.102571,0.07315 -0.204318,0.153364 -0.3125,0.21875 -0.0074,0.0045 -0.02384,-0.0044 -0.03125,0 -0.232039,0.138728 -0.462548,0.274778 -0.71875,0.375 0.301527,-0.0968 0.596455,-0.204138 0.875,-0.34375 0.55709,-0.279224 1.06005,-0.665694 1.5,-1.09375 0.219973,-0.214028 0.409366,-0.441865 0.59375,-0.6875 0.184384,-0.245635 0.355408,-0.507743 0.5,-0.78125 0.14012,-0.265048 0.276135,-0.524729 0.375,-0.8125 0.01041,-0.03078 0.02133,-0.06274 0.03125,-0.09375 0.09046,-0.278085 0.1388,-0.579404 0.1875,-0.875 0.0524,-0.31805 0.09375,-0.634029 0.09375,-0.96875 v -2 -68 -2 c 0,-3.324 -2.676,-6 -6,-6 h -72 z "/>
<path style="opacity:.2;fill:url(#radialGradient3619)" id="path3615" d="M 12,90 C 8.676,90 6,87.324 6,84 L 6,82 6,14 6,12 c 0,-0.334721 0.04135,-0.6507 0.09375,-0.96875 0.0487,-0.295596 0.09704,-0.596915 0.1875,-0.875 C 6.29113,10.12587 6.302142,10.09265 6.3125,10.0625 6.411365,9.774729 6.5473802,9.515048 6.6875,9.25 6.8320918,8.976493 7.0031161,8.714385 7.1875,8.46875 7.3718839,8.223115 7.5612765,7.995278 7.78125,7.78125 8.221197,7.353194 8.72416,6.966724 9.28125,6.6875 9.559795,6.547888 9.8547231,6.440553 10.15625,6.34375 9.9000482,6.443972 9.6695391,6.580022 9.4375,6.71875 c -0.00741,0.0044 -0.023866,-0.0045 -0.03125,0 -0.031933,0.0193 -0.062293,0.04251 -0.09375,0.0625 -0.120395,0.0767 -0.2310226,0.163513 -0.34375,0.25 -0.1061728,0.0808 -0.2132809,0.161112 -0.3125,0.25 C 8.4783201,7.442683 8.3087904,7.626638 8.15625,7.8125 8.0486711,7.942755 7.9378561,8.077785 7.84375,8.21875 7.818661,8.25713 7.805304,8.30462 7.78125,8.34375 7.716487,8.446782 7.6510225,8.548267 7.59375,8.65625 7.4927417,8.850956 7.3880752,9.071951 7.3125,9.28125 7.30454,9.30306 7.288911,9.3218 7.28125,9.34375 7.2494249,9.4357 7.2454455,9.530581 7.21875,9.625 7.1884177,9.731618 7.1483606,9.828031 7.125,9.9375 7.0521214,10.279012 7,10.635705 7,11 l 0,2 0,68 0,2 c 0,2.781848 2.2181517,5 5,5 l 2,0 68,0 2,0 c 2.781848,0 5,-2.218152 5,-5 l 0,-2 0,-68 0,-2 C 89,10.635705 88.94788,10.279012 88.875,9.9375 88.83085,9.730607 88.78662,9.539842 88.71875,9.34375 88.71105,9.3218 88.69545,9.30306 88.6875,9.28125 88.62476,9.107511 88.549117,8.913801 88.46875,8.75 88.42717,8.6672 88.38971,8.580046 88.34375,8.5 88.28915,8.40279 88.216976,8.31165 88.15625,8.21875 88.06214,8.077785 87.951329,7.942755 87.84375,7.8125 87.700576,7.63805 87.540609,7.465502 87.375,7.3125 87.36383,7.3023 87.35502,7.29135 87.34375,7.28125 87.205364,7.155694 87.058659,7.046814 86.90625,6.9375 86.803679,6.86435 86.701932,6.784136 86.59375,6.71875 c -0.0074,-0.0045 -0.02384,0.0044 -0.03125,0 -0.232039,-0.138728 -0.462548,-0.274778 -0.71875,-0.375 0.301527,0.0968 0.596455,0.204138 0.875,0.34375 0.55709,0.279224 1.060053,0.665694 1.5,1.09375 0.219973,0.214028 0.409366,0.441865 0.59375,0.6875 0.184384,0.245635 0.355408,0.507743 0.5,0.78125 0.14012,0.265048 0.276135,0.524729 0.375,0.8125 0.01041,0.03078 0.02133,0.06274 0.03125,0.09375 0.09046,0.278085 0.1388,0.579404 0.1875,0.875 C 89.95865,11.3493 90,11.665279 90,12 l 0,2 0,68 0,2 c 0,3.324 -2.676,6 -6,6 l -72,0 z"/>
</g>
<g id="layer5">
<rect width="66" x="15" y="15" rx="12" height="66" ry="12" style="opacity:.1;fill:url(#linearGradient3613);filter:url(#filter3794);stroke:#fff;stroke-linecap:round;stroke-width:.5;clip-path:url(#clipPath3613)" id="rect3171"/>
</g>
<g style="stroke:none" id="layer4">
<g style="color:#000">
<path style="opacity:.05;fill:url(#linearGradient3774)" id="path3771" d="m 36.0625,20.5312 a 1.05664,1.05664 0 0,0 -0.375,0.09375 c -3.23685,1.54755 -6.05989,3.67115 -9,5.3125 a 1.05664,1.05664 0 0,0 -0.0625,0.03125 c -3.18787,2.02748 -6.65486,3.86387 -9.84375,6.15625 a 1.05664,1.05664 0 0,0 -0.1875,0.1875 c -0.548347,0.672318 -0.843795,1.41818 -0.84375,2.15625 4.5e-05,0.738067 0.273534,1.39749 0.625,1.9375 0.666884,1.02463 1.59993,1.73221 2.3125,2.3125 0.0357,0.0421 0.08814,0.08334 0.125,0.125 1.12209,1.26801 2.75173,2.31671 4.15625,3.375 1.24355,0.936997 1.90644,1.77773 2.1875,2.3125 -2.92618,2.39554 -6.05891,4.64433 -8.90625,7.3125 a 1.05664,1.05664 0 0,0 -0.21875,0.28125 c -0.459359,0.84228 -0.593073,1.71922 -0.40625,2.5 0.186823,0.780777 0.645536,1.39124 1.15625,1.875 1.02143,0.967519 2.3166,1.57991 3.09375,2.09375 a 1.05664,1.05664 0 0,0 0.03125,0 c 2.54667,1.6286 5.09053,3.22467 7.59375,4.875 -0.0587,1.18582 0.251147,2.28763 0.9375,3.0625 0.825551,0.932024 1.91665,1.5479 2.84375,2.03125 v 0.03125 c 0.03759,0.02635 0.08741,0.03613 0.125,0.0625 5.01415,3.51744 9.97326,7.18776 15.125,10.5625 a 1.05664,1.05664 0 0,0 0.3125,0.15625 c 1.51314,0.423542 2.85485,-0.21468 3.84375,-0.90625 0.988902,-0.69157 1.81878,-1.45675 2.5,-1.8125 a 1.05664,1.05664 0 0,0 0.125,-0.09375 c 4.67167,-3.38712 9.54982,-6.5333 14.2188,-10.0625 a 1.05664,1.05664 0 0,0 0.3125,-0.375 c 0.567218,-1.1389 0.675647,-2.19077 0.90625,-2.8125 0.230603,-0.621728 0.362012,-0.856583 1.375,-1.125 a 1.05664,1.05664 0 0,0 0.3125,-0.15625 c 2.90902,-1.92415 6.08098,-3.64356 8.96875,-5.875 a 1.05664,1.05664 0 0,0 0.21875,-0.25 c 0.869327,-1.26354 0.668078,-2.78063 0.03125,-3.8125 -0.594996,-0.96409 -1.49574,-1.61652 -2.3125,-2.125 l .0312,-.0312 c -0.05337,-0.04801 -0.133313,-0.07706 -0.1875,-0.125 -2.19917,-1.94554 -4.86342,-3.81642 -6.53125,-5.5 2.90696,-2.5217 6.00443,-4.94834 8.8125,-7.6875 a 1.05664,1.05664 0 0,0 0.1875,-0.28125 c 0.480281,-0.93358 0.587678,-1.89469 0.3125,-2.71875 -0.275178,-0.824062 -0.836009,-1.4529 -1.4375,-1.9375 -1.20298,-0.969195 -2.71936,-1.59725 -3.46875,-2.125 a 1.05664,1.05664 0 0,0 -0.0625,-0.03125 c -4.80036,-2.88286 -9.53156,-5.89847 -14.4375,-8.6875 a 1.05664,1.05664 0 0,0 -0.3125,-0.125 c -1.61349,-0.34663 -2.94162,0.454024 -3.875,1.28125 -0.933383,0.827226 -1.68778,1.70583 -2.34375,2.09375 a 1.05664,1.05664 0 0,0 -0.0625,0.03125 c -1.26766,0.882218 -2.43439,2.09886 -3.5625,3.125 -0.988775,0.8994 -1.90364,1.47068 -2.65625,1.78125 -3.21186,-2.63417 -6.2603,-5.64822 -9.75,-8.15625 a 1.05664,1.05664 0 0,0 -0.21875,-0.125 c -0.685546,-0.277774 -1.28184,-0.216781 -1.625,-0.21875 a 1.05664,1.05664 0 0,0 -0.09375,0 z "/>
<path style="opacity:.1;fill:url(#linearGradient3764)" id="path3746" d="m 36.1562,21.5938 c -3.11202,1.48787 -5.94727,3.587 -8.96867,5.27372 -3.23813,2.05945 -6.67365,3.86728 -9.78133,6.10128 -1.71802,2.10643 0.615013,3.83389 2.09633,5.05496 1.89773,2.23817 6.70905,4.47438 7.04658,6.71494 -3.16527,2.65509 -6.57596,5.07096 -9.58041,7.88636 -1.45963,2.67637 1.74974,3.93146 3.5048,5.09187 2.67929,1.71341 5.37604,3.40001 8.02645,5.15813 -0.711335,2.37674 1.56576,3.91405 3.375,4.84375 5.06509,3.55063 10.0918,7.24604 15.25,10.625 2.261,0.632875 3.77062,-1.68276 5.55478,-2.61449 4.70262,-3.40956 9.59929,-6.57537 14.2265,-10.073 0.930009,-1.86733 0.38408,-3.81677 2.93415,-4.49248 2.95857,-1.95693 6.11023,-3.68813 8.9096,-5.85127 1.28805,-1.87214 -0.574843,-3.68945 -2.09375,-4.59375 -2.37853,-2.13953 -5.81114,-4.27297 -7.5625,-6.40625 3.18905,-2.82385 6.59187,-5.47881 9.625,-8.4375 1.53236,-2.97863 -2.40605,-4.13004 -4.24293,-5.42364 -4.81633,-2.89245 -9.56952,-5.92988 -14.4446,-8.70136 -2.41775,-0.519413 -3.67588,2.18396 -5.47771,3.24951 -2.28418,1.58965 -4.63849,4.71699 -6.90477,5.32749 -3.48008,-2.78484 -6.6797,-6.02521 -10.2738,-8.60824 -0.392542,-0.159053 -0.808917,-0.122648 -1.21875,-0.125 z "/>
<path style="opacity:.15;fill:url(#linearGradient3739)" id="path3728" d="m 36.3125,22.5312 a 0.807743,0.807743 0 0,0 -0.3125,0.125 c -5.86479,3.52615 -11.8445,7.1417 -17.6875,10.75 a 0.807743,0.807743 0 0,0 -0.21875,0.21875 c -0.279021,0.385356 -0.401754,0.921024 -0.28125,1.34375 0.120504,0.422726 0.388311,0.683668 0.625,0.90625 0.473377,0.445164 1.00818,0.778161 1.125,0.90625 a 0.807743,0.807743 0 0,0 0.0625,0.09375 c 2.95867,2.53831 5.98496,4.98046 8.875,7.53125 -0.02031,0.01581 -0.0067,0.01411 -0.03125,0.03125 -0.232119,0.161903 -0.636516,0.425729 -1,0.8125 l -.0312,-.0312 c -3.14791,2.55226 -6.33195,5.06142 -9.46875,7.65625 a 0.807743,0.807743 0 0,0 -0.1875,0.21875 c -0.219363,0.383366 -0.296981,0.889951 -0.15625,1.28125 0.140731,0.391299 0.38662,0.654858 0.625,0.84375 0.47676,0.377784 1.01722,0.596198 1.1875,0.71875 a 0.807743,0.807743 0 0,0 0.03125,0.03125 c 3.33204,2.15324 6.70812,4.19498 9.96875,6.375 0.06811,0.426712 -0.09472,1.0598 -0.03125,1.96875 a 0.807743,0.807743 0 0,0 0.125,0.375 c 0.819403,1.2284 2.23627,1.68712 2.90625,2.28125 a 0.807743,0.807743 0 0,0 0.0625,0.0625 c 4.92014,3.4347 9.84248,6.95976 14.7812,10.3438 a 0.807743,0.807743 0 0,0 0.34375,0.125 c 0.822244,0.136774 1.4639,-0.298514 1.90625,-0.65625 0.442345,-0.357736 0.790046,-0.657431 1,-0.75 a 0.807743,0.807743 0 0,0 0.15625,-0.09375 c 5.08402,-3.64467 10.3027,-7.22419 15.375,-10.8125 a 0.807743,0.807743 0 0,0 0.125,-0.125 c 0.319835,-0.349054 0.437226,-0.78979 0.46875,-1.15625 0.03152,-0.36646 0.000202,-0.659642 -0.03125,-0.9375 -0.05872,-0.518709 -0.02865,-0.770646 0.03125,-0.875 3.68354,-2.37788 7.47048,-4.69112 11.125,-7.15625 a 0.807743,0.807743 0 0,0 0.3125,-0.34375 c 0.17911,-0.436276 0.149161,-0.969293 -0.03125,-1.34375 -0.180411,-0.374457 -0.439012,-0.616079 -0.6875,-0.8125 -0.496977,-0.392842 -0.993535,-0.694816 -1.09375,-0.8125 a 0.807743,0.807743 0 0,0 -0.125,-0.09375 c -2.9265,-2.39589 -5.89916,-4.71364 -8.75,-7.125 0.01889,-0.01522 0.0088,-0.01485 0.03125,-0.03125 0.232781,-0.170322 0.643176,-0.403401 1,-0.8125 l .0312,.0312 c 3.08466,-2.66299 6.2611,-5.30451 9.3125,-8.03125 a 0.807743,0.807743 0 0,0 0.1875,-0.25 c 0.190709,-0.410459 0.209833,-0.932534 0.03125,-1.3125 -0.178583,-0.379966 -0.464922,-0.607658 -0.71875,-0.78125 -0.507657,-0.347184 -1.01931,-0.58294 -1.15625,-0.6875 a 0.807743,0.807743 0 0,0 -0.09375,-0.03125 c -5.36046,-3.2265 -10.7152,-6.57802 -16.0938,-9.75 a 0.807743,0.807743 0 0,0 -0.28125,-0.125 c -0.844755,-0.121184 -1.45979,0.410057 -1.875,0.8125 -0.41521,0.402443 -0.779328,0.797274 -0.96875,0.90625 a 0.807743,0.807743 0 0,0 -0.125,0.0625 c -2.92826,2.48203 -5.78577,5.03099 -8.71875,7.4375 -0.08758,-0.042 -0.137757,-0.04278 -0.3125,-0.21875 -0.238795,-0.240476 -0.549763,-0.61283 -1,-0.90625 -0.03934,-0.03327 -0.08567,-0.06043 -0.125,-0.09375 -3.06387,-2.59537 -6.12847,-5.33978 -9.25,-7.875 a 0.807743,0.807743 0 0,0 -0.28125,-0.15625 c -0.263252,-0.07915 -0.470236,-0.06797 -0.625,-0.0625 a 0.807743,0.807743 0 0,0 -0.0625,0 z "/>
<path style="opacity:.3;fill:url(#linearGradient3782)" id="path3720" d="m 36.40625,22.34375 c -0.03257,0.0074 8.38e-4,0.02199 -0.03125,0.03125 -0.03209,0.0093 -0.03101,-0.01112 -0.0625,0 -0.03149,0.01112 -4.57e-4,0.01832 -0.03125,0.03125 -0.03079,0.01293 -0.0013,-0.0147 -0.03125,0 -0.02999,0.0147 -0.0022,0.01483 -0.03125,0.03125 -0.02908,0.01642 -0.0032,-0.01809 -0.03125,0 a 0.49998753,0.49998753 0 0 1 -0.03125,0.03125 l -17.25,10.5 c -0.02886,0.01761 -0.0035,-0.01928 -0.03125,0 -0.02777,0.01928 -0.0047,0.01037 -0.03125,0.03125 -0.02658,0.02088 -0.0059,0.0088 -0.03125,0.03125 -0.02531,0.02241 -0.0073,0.0074 -0.03125,0.03125 -0.02394,0.02387 -0.0088,0.006 -0.03125,0.03125 -0.02249,0.02524 -0.01028,0.0047 -0.03125,0.03125 -0.02097,0.02652 -0.01188,0.0035 -0.03125,0.03125 -0.01937,0.02771 0.0177,0.0024 0,0.03125 -0.0177,0.0288 -0.01528,0.0015 -0.03125,0.03125 -0.01597,0.02979 -0.01706,0.03182 -0.03125,0.0625 -0.01419,0.03068 0.01235,-2.17e-4 0,0.03125 -0.01235,0.03147 -0.02077,-8.9e-4 -0.03125,0.03125 -0.01048,0.03214 0.0086,-0.0015 0,0.03125 -0.0086,0.0327 0.0066,0.02935 0,0.0625 -0.0066,0.03315 0.0047,-0.0022 0,0.03125 -0.0047,0.03348 -0.02858,-0.0024 -0.03125,0.03125 -0.0027,0.0337 6.83e-4,0.0287 0,0.0625 -6.83e-4,0.0338 -0.0013,-0.0025 0,0.03125 0.0013,0.03378 -0.0033,0.02886 0,0.0625 0.0033,0.03364 0.02597,-0.0021 0.03125,0.03125 0.0053,0.03339 -0.0072,-0.0018 0,0.03125 0.0072,0.03302 -0.0092,0.02996 0,0.0625 0.0092,0.03254 0.02018,-6.9e-4 0.03125,0.03125 0.01107,0.03194 -0.01293,1.8e-5 0,0.03125 0.01293,0.03123 0.0165,8.35e-4 0.03125,0.03125 0.01475,0.03041 -0.01652,0.03301 0,0.0625 0.01652,0.02949 0.01302,0.0028 0.03125,0.03125 0.01823,0.02847 0.01137,0.0039 0.03125,0.03125 0.01988,0.02734 0.0098,0.0051 0.03125,0.03125 0.02145,0.02612 -0.02296,0.0064 0,0.03125 0.02296,0.02481 0.0069,0.0078 0.03125,0.03125 0.02438,0.02342 0.0055,0.0093 0.03125,0.03125 l 10.5,8.875 a 0.49998753,0.49998753 0 0 1 0,0.75 L 18.625,52.34375 c -0.02626,0.02113 -0.0063,0.0086 -0.03125,0.03125 -0.02498,0.02263 -0.0076,0.0072 -0.03125,0.03125 -0.0236,0.02406 -0.0091,0.0058 -0.03125,0.03125 -0.02215,0.02541 -0.01064,0.0046 -0.03125,0.03125 -0.02061,0.02667 -0.01224,0.0034 -0.03125,0.03125 -0.01901,0.02783 0.01734,0.0336 0,0.0625 -0.01734,0.0289 -0.01563,0.0014 -0.03125,0.03125 -0.01562,0.02987 -0.01742,5.13e-4 -0.03125,0.03125 -0.01383,0.03074 0.012,-2.46e-4 0,0.03125 -0.012,0.0315 -0.02112,-8.97e-4 -0.03125,0.03125 -0.01013,0.03215 0.0082,0.02981 0,0.0625 -0.0082,0.03269 0.0063,-0.0019 0,0.03125 -0.0063,0.03311 0.0043,-0.0022 0,0.03125 -0.0043,0.03343 -0.02889,0.02888 -0.03125,0.0625 -0.0024,0.03362 3.78e-4,-0.0025 0,0.03125 -3.78e-4,0.0337 -0.0016,0.02883 0,0.0625 0.0016,0.03367 0.02767,-0.0023 0.03125,0.03125 0.0036,0.03352 -0.0055,-0.002 0,0.03125 0.0055,0.03325 -0.0075,0.02964 0,0.0625 0.0075,0.03286 -0.0094,-0.0011 0,0.03125 0.0094,0.03237 0.01996,-5.08e-4 0.03125,0.03125 0.01129,0.03176 -0.01314,2.11e-4 0,0.03125 0.01314,0.03104 0.01631,0.03229 0.03125,0.0625 0.01494,0.03021 -0.01669,0.002 0,0.03125 0.01669,0.02928 0.01287,0.003 0.03125,0.03125 0.01838,0.02825 0.01124,0.0041 0.03125,0.03125 0.02001,0.02712 0.0097,0.0054 0.03125,0.03125 0.02157,0.0259 0.0082,0.0067 0.03125,0.03125 0.02306,0.02459 0.0068,0.0081 0.03125,0.03125 0.02446,0.02319 0.0055,0.0095 0.03125,0.03125 0.02578,0.02171 0.0042,0.01109 0.03125,0.03125 0.01351,0.01008 0.02949,-0.0012 0.03125,0 l 11.40625,7.25 a 0.49998753,0.49998753 0 0 1 0.21875,0.4375 l -0.03125,1.375 A 0.49998753,0.49998753 0 0 1 30.25,62.75 c -0.0093,0.02251 -0.02296,0.0084 -0.03125,0.03125 -0.0083,0.02288 0.0073,0.008 0,0.03125 -0.0073,0.02322 0.0063,0.0077 0,0.03125 -0.0063,0.0235 0.0053,0.0075 0,0.03125 -0.0053,0.02375 -0.02695,0.0073 -0.03125,0.03125 -0.0043,0.02396 0.0033,0.0071 0,0.03125 -0.0033,0.02412 0.0023,0.007 0,0.03125 -0.0023,0.02423 0.0012,0.0069 0,0.03125 -0.0012,0.02431 1.88e-4,0.0069 0,0.03125 -1.88e-4,0.02434 -8.45e-4,0.0069 0,0.03125 8.45e-4,0.02432 -0.0019,0.007 0,0.03125 0.0019,0.02426 -0.0029,0.0071 0,0.03125 0.0029,0.02416 -0.0039,0.0072 0,0.03125 0.0039,0.02402 0.02631,0.0074 0.03125,0.03125 0.006,0.0236 -0.0069,0.0079 0,0.03125 0.0069,0.02332 -0.0079,0.0082 0,0.03125 0.0079,0.02301 0.02235,0.0086 0.03125,0.03125 0.0089,0.02265 -0.0099,0.009 0,0.03125 0.0099,0.02225 -0.01079,0.0094 0,0.03125 0.01079,0.02181 0.01954,0.0099 0.03125,0.03125 0.01171,0.02134 -0.0126,0.01043 0,0.03125 0.0126,0.02082 0.01778,0.01098 0.03125,0.03125 0.01432,0.01968 0.0161,0.0122 0.03125,0.03125 0.01515,0.01905 0.01531,0.01286 0.03125,0.03125 0.01594,0.01839 -0.01671,0.01355 0,0.03125 0.01671,0.0177 0.01381,-0.01697 0.03125,0 0.01744,0.01697 0.0131,0.01503 0.03125,0.03125 0.01815,0.01622 -0.01882,0.01582 0,0.03125 0.01882,0.01543 0.01179,-0.01462 0.03125,0 0.01946,0.01462 0.01119,0.01747 0.03125,0.03125 l 17.0625,12 c 0.01799,0.01269 0.01279,-0.01199 0.03125,0 0.01846,0.01199 0.01234,0.01998 0.03125,0.03125 0.01933,0.01054 0.01153,0.02146 0.03125,0.03125 0.01972,0.0098 0.01117,-0.009 0.03125,0 0.02008,0.009 0.01084,-0.0082 0.03125,0 0.02041,0.0082 0.01054,0.02379 0.03125,0.03125 0.02071,0.0075 0.01027,-0.0067 0.03125,0 0.02122,0.0058 0.0098,0.02622 0.03125,0.03125 0.02143,0.005 0.0096,-0.0042 0.03125,0 0.02161,0.0042 0.0095,-0.0034 0.03125,0 0.02175,0.0034 0.0094,-0.0025 0.03125,0 0.02187,0.0025 0.0093,-0.0017 0.03125,0 0.02195,0.0017 0.0093,-8.45e-4 0.03125,0 0.022,8.45e-4 0.0092,0 0.03125,0 0.022,-8.45e-4 0.0093,0.0017 0.03125,0 0.02195,-0.0017 0.0094,0.0025 0.03125,0 0.02187,-0.0025 0.0095,0.0034 0.03125,0 0.02175,-0.0034 0.0096,0.0042 0.03125,0 0.02161,-0.0042 0.0098,0.005 0.03125,0 0.02143,-0.005 0.01003,-0.0254 0.03125,-0.03125 0.02098,-0.0067 0.01054,0.0075 0.03125,0 0.02071,-0.0075 0.01084,-0.023 0.03125,-0.03125 0.02041,-0.0082 0.01117,0.009 0.03125,0 0.02008,-0.009 0.01153,0.0098 0.03125,0 0.01972,-0.0098 0.01192,-0.02071 0.03125,-0.03125 0.01891,-0.01127 0.01279,-0.01926 0.03125,-0.03125 0.01846,-0.01199 0.01326,0.01269 0.03125,0 L 59,68.125 a 0.49998753,0.49998753 0 0 1 0.03125,0 0.49998753,0.49998753 0 0 1 0.0625,-0.0625 0.49998753,0.49998753 0 0 1 0.03125,0 l 0.0625,-0.03125 6.15625,-4.3125 A 0.49998753,0.49998753 0 0 1 65.375,63.6875 c 0.02269,-0.01366 0.0092,0.01469 0.03125,0 0.02204,-0.01469 0.0099,-0.01555 0.03125,-0.03125 A 0.49998753,0.49998753 0 0 1 65.46875,63.625 c 0.01829,-0.01034 0.01335,0.011 0.03125,0 0.0089,-0.0055 0.03012,7.24e-4 0.03125,0 0.0011,-7.24e-4 -0.0087,-0.02543 0,-0.03125 0.01704,-0.01228 0.01467,-0.01835 0.03125,-0.03125 A 0.49998753,0.49998753 0 0 1 65.625,63.5 0.49998753,0.49998753 0 0 1 65.65625,63.46875 c 0.01847,-0.01903 -0.01757,-0.01139 0,-0.03125 0.01757,-0.01986 0.01462,-0.0106 0.03125,-0.03125 0.01663,-0.02065 0.0156,-0.0098 0.03125,-0.03125 0.01465,-0.0221 0.01764,-0.0085 0.03125,-0.03125 0.01361,-0.02276 -0.01254,-0.0079 0,-0.03125 0.01254,-0.02336 0.0198,-0.0073 0.03125,-0.03125 0.01145,-0.02392 -0.01033,-0.0068 0,-0.03125 0.01033,-0.02442 0.02206,-0.0064 0.03125,-0.03125 0.0092,-0.02487 -0.008,-0.006 0,-0.03125 0.008,-0.02527 -0.0069,-0.0056 0,-0.03125 0.0069,-0.02562 -0.0057,-0.0053 0,-0.03125 0.0057,-0.0259 0.02679,-0.0051 0.03125,-0.03125 0.0045,-0.02614 -0.0032,-0.0049 0,-0.03125 0.0032,-0.02632 -0.002,-0.0048 0,-0.03125 0.002,-0.02644 -7.99e-4,-0.0047 0,-0.03125 L 65.8125,60.96875 a 0.49998753,0.49998753 0 0 1 0.21875,-0.4375 L 77.09375,53.5 c 0.0018,-0.0012 0.01774,0.01008 0.03125,0 0.02701,-0.02016 0.0055,-0.0095 0.03125,-0.03125 0.02578,-0.02171 0.0068,-0.0081 0.03125,-0.03125 0.02446,-0.02319 0.0082,-0.0067 0.03125,-0.03125 0.02306,-0.02459 0.0097,-0.0054 0.03125,-0.03125 0.02157,-0.0259 0.01124,-0.0041 0.03125,-0.03125 0.02001,-0.02712 0.01287,-0.003 0.03125,-0.03125 0.01838,-0.02825 0.01456,-0.002 0.03125,-0.03125 0.01669,-0.02928 -0.01494,-0.001 0,-0.03125 0.01494,-0.03021 0.01811,-0.03146 0.03125,-0.0625 0.01314,-0.03104 -0.01129,5.08e-4 0,-0.03125 0.01129,-0.03176 0.02184,0.0011 0.03125,-0.03125 0.0094,-0.03237 -0.0075,0.0016 0,-0.03125 0.0075,-0.03286 -0.0055,-0.02925 0,-0.0625 0.0055,-0.03325 -0.0036,0.0023 0,-0.03125 0.0036,-0.03352 0.02965,0.0024 0.03125,-0.03125 0.0016,-0.03367 3.78e-4,-0.0288 0,-0.0625 -3.78e-4,-0.0337 0.0024,0.0024 0,-0.03125 -0.0024,-0.03362 -0.02692,-0.02907 -0.03125,-0.0625 -0.0043,-0.03343 0.0063,0.0019 0,-0.03125 -0.0063,-0.03311 0.0082,0.0014 0,-0.03125 -0.0082,-0.03269 0.01013,-0.03035 0,-0.0625 -0.01013,-0.03215 -0.01925,2.46e-4 -0.03125,-0.03125 -0.012,-0.0315 0.01383,-5.13e-4 0,-0.03125 -0.01383,-0.03074 -0.01564,-0.0014 -0.03125,-0.03125 -0.01561,-0.02987 -0.01391,-0.0023 -0.03125,-0.03125 -0.01734,-0.0289 0.01901,-0.03467 0,-0.0625 -0.01901,-0.02783 -0.01063,-0.0046 -0.03125,-0.03125 -0.02062,-0.02667 -0.0091,-0.0058 -0.03125,-0.03125 -0.02215,-0.02541 -0.0076,-0.0072 -0.03125,-0.03125 -0.0236,-0.02406 -0.0063,-0.0086 -0.03125,-0.03125 -0.02497,-0.02263 -0.005,-0.01012 -0.03125,-0.03125 l -10.5625,-8.5 a 0.49998753,0.49998753 0 0 1 0,-0.75 l 10.5,-8.9375 c 0.02572,-0.02194 0.0069,-0.0078 0.03125,-0.03125 0.02438,-0.02342 0.0083,-0.0064 0.03125,-0.03125 0.02296,-0.02481 -0.02145,-0.0051 0,-0.03125 0.02145,-0.02612 0.01137,-0.0039 0.03125,-0.03125 0.01988,-0.02734 0.01302,-0.0028 0.03125,-0.03125 0.01823,-0.02847 0.01473,-0.0018 0.03125,-0.03125 0.01652,-0.02949 -0.01475,-0.03209 0,-0.0625 0.01475,-0.03041 0.01832,-1.8e-5 0.03125,-0.03125 0.01293,-0.03123 -0.01107,6.9e-4 0,-0.03125 0.01107,-0.03194 0.02208,0.0013 0.03125,-0.03125 0.0092,-0.03254 -0.0072,-0.02948 0,-0.0625 0.0072,-0.03302 -0.0053,0.0021 0,-0.03125 0.0053,-0.03339 0.02795,0.0024 0.03125,-0.03125 0.0033,-0.03364 -0.0013,-0.02872 0,-0.0625 0.0013,-0.03378 6.83e-4,0.0025 0,-0.03125 -6.83e-4,-0.0338 0.0027,-0.0288 0,-0.0625 -0.0027,-0.0337 -0.02659,0.0022 -0.03125,-0.03125 -0.0047,-0.03348 0.0066,0.0019 0,-0.03125 -0.0066,-0.03315 0.0086,-0.0298 0,-0.0625 -0.0086,-0.0327 0.01048,8.9e-4 0,-0.03125 -0.01048,-0.03214 -0.0189,2.17e-4 -0.03125,-0.03125 -0.01235,-0.03147 0.01419,-5.66e-4 0,-0.03125 -0.01419,-0.03068 -0.01528,-0.03271 -0.03125,-0.0625 -0.01597,-0.02979 -0.01355,-0.0024 -0.03125,-0.03125 -0.0177,-0.0288 0.01937,-0.0035 0,-0.03125 -0.01937,-0.02771 -0.01028,-0.0047 -0.03125,-0.03125 -0.02097,-0.02652 -0.0088,-0.006 -0.03125,-0.03125 -0.02249,-0.02524 -0.0073,-0.0074 -0.03125,-0.03125 -0.02394,-0.02387 -0.0059,-0.0088 -0.03125,-0.03125 -0.02531,-0.02241 -0.0047,-0.01037 -0.03125,-0.03125 -0.02658,-0.02088 -0.0035,-0.01197 -0.03125,-0.03125 -0.02777,-0.01928 -0.0024,0.01761 -0.03125,0 L 59.75,22.53125 c -0.01882,-0.01153 -0.012,-0.02046 -0.03125,-0.03125 -0.01925,-0.01079 -0.0116,0.01004 -0.03125,0 -0.01965,-0.01004 -0.01123,-0.02197 -0.03125,-0.03125 -0.02002,-0.0093 -0.01088,0.0085 -0.03125,0 -0.02068,-0.0077 -0.01029,-0.02434 -0.03125,-0.03125 -0.02096,-0.0069 -0.01004,0.0061 -0.03125,0 -0.02121,-0.0061 -0.0098,0.0053 -0.03125,0 -0.02143,-0.0053 -0.0096,0.0044 -0.03125,0 -0.02162,-0.0044 -0.0095,0.0036 -0.03125,0 -0.02177,-0.0036 0.02189,-0.02848 0,-0.03125 -0.02189,-0.0028 -0.0093,0.0019 -0.03125,0 -0.02199,-0.0019 -0.0092,0.0011 -0.03125,0 -0.02204,-0.0011 -0.0092,2.3e-4 -0.03125,0 -0.02207,-2.3e-4 -0.0092,-6.19e-4 -0.03125,0 -0.02206,6.19e-4 -0.0092,-0.0015 -0.03125,0 -0.02202,0.0015 -0.0093,-0.0023 -0.03125,0 -0.02195,0.0023 -0.0094,-0.0032 -0.03125,0 -0.02184,0.0032 -0.0095,0.02725 -0.03125,0.03125 -0.02153,0.0048 -0.0099,-0.0057 -0.03125,0 -0.02133,0.0057 -0.01015,-0.0065 -0.03125,0 -0.0211,0.0065 -0.01042,0.02397 -0.03125,0.03125 -0.02083,0.0073 -0.01071,-0.0081 -0.03125,0 -0.02054,0.0081 -0.01104,-0.0089 -0.03125,0 -0.02021,0.0089 0.01986,0.02162 0,0.03125 -0.01986,0.0096 -0.01178,-0.01039 -0.03125,0 -0.01947,0.01039 -0.01219,-0.01113 -0.03125,0 -0.01906,0.01113 -0.01264,0.01939 -0.03125,0.03125 -0.01814,0.01256 -0.0136,0.018 -0.03125,0.03125 -0.01765,0.01325 -0.01413,-0.01392 -0.03125,0 l -10.59375,9.125 a 0.49998753,0.49998753 0 0 1 -0.625,0 L 37,22.5 c -0.02122,-0.01778 -0.0092,0.01673 -0.03125,0 -0.02205,-0.01673 -0.0084,-0.0156 -0.03125,-0.03125 -0.02283,-0.01565 -0.0077,-0.01672 -0.03125,-0.03125 -0.02356,-0.01453 -0.007,0.01337 -0.03125,0 -0.02424,-0.01337 -0.0064,-0.01906 -0.03125,-0.03125 -0.02485,-0.01219 -0.0058,0.01097 -0.03125,0 -0.02541,-0.01097 -0.0053,-0.02152 -0.03125,-0.03125 -0.02591,-0.0097 -0.0049,0.0085 -0.03125,0 -0.02635,-0.0085 -0.0045,0.0072 -0.03125,0 -0.02673,-0.0072 -0.0042,-0.02536 -0.03125,-0.03125 -0.02705,-0.0059 -0.004,0.0046 -0.03125,0 -0.0273,-0.0046 -0.0038,0.0033 -0.03125,0 -0.02749,-0.0033 -0.0036,0.0019 -0.03125,0 -0.02761,-0.0019 -0.03482,5.87e-4 -0.0625,0 -0.02768,-5.87e-4 -0.0036,-7.49e-4 -0.03125,0 -0.0166,0.0018 -0.02913,-2.88e-4 -0.03125,0 -0.0021,2.88e-4 -0.01478,-0.0027 -0.03125,0 -0.03295,0.0055 0.0013,-0.0074 -0.03125,0 z" transform="translate(0,1)"/>
<path style="opacity:.3;fill:url(#radialGradient3714)" id="path3693" d="m 70.1446,63.8186 a 22.0711,13.6407 0 1,1 -44.1422,0 22.0711,13.6407 0 1,1 44.1422,0 z " transform="matrix(1,0,0,1.1262136,80,-7.7764107)"/>
<path style="fill:#0b5a9a" id="path2919" d="m 36.40625,22.34375 c -0.03257,0.0074 8.38e-4,0.02199 -0.03125,0.03125 -0.03209,0.0093 -0.03101,-0.01112 -0.0625,0 -0.03149,0.01112 -4.57e-4,0.01832 -0.03125,0.03125 -0.03079,0.01293 -0.0013,-0.0147 -0.03125,0 -0.02999,0.0147 -0.0022,0.01483 -0.03125,0.03125 -0.02908,0.01642 -0.0032,-0.01809 -0.03125,0 a 0.49998753,0.49998753 0 0 1 -0.03125,0.03125 l -17.25,10.5 c -0.02886,0.01761 -0.0035,-0.01928 -0.03125,0 -0.02777,0.01928 -0.0047,0.01037 -0.03125,0.03125 -0.02658,0.02088 -0.0059,0.0088 -0.03125,0.03125 -0.02531,0.02241 -0.0073,0.0074 -0.03125,0.03125 -0.02394,0.02387 -0.0088,0.006 -0.03125,0.03125 -0.02249,0.02524 -0.01028,0.0047 -0.03125,0.03125 -0.02097,0.02652 -0.01188,0.0035 -0.03125,0.03125 -0.01937,0.02771 0.0177,0.0024 0,0.03125 -0.0177,0.0288 -0.01528,0.0015 -0.03125,0.03125 -0.01597,0.02979 -0.01706,0.03182 -0.03125,0.0625 -0.01419,0.03068 0.01235,-2.17e-4 0,0.03125 -0.01235,0.03147 -0.02077,-8.9e-4 -0.03125,0.03125 -0.01048,0.03214 0.0086,-0.0015 0,0.03125 -0.0086,0.0327 0.0066,0.02935 0,0.0625 -0.0066,0.03315 0.0047,-0.0022 0,0.03125 -0.0047,0.03348 -0.02858,-0.0024 -0.03125,0.03125 -0.0027,0.0337 6.83e-4,0.0287 0,0.0625 -6.83e-4,0.0338 -0.0013,-0.0025 0,0.03125 0.0013,0.03378 -0.0033,0.02886 0,0.0625 0.0033,0.03364 0.02597,-0.0021 0.03125,0.03125 0.0053,0.03339 -0.0072,-0.0018 0,0.03125 0.0072,0.03302 -0.0092,0.02996 0,0.0625 0.0092,0.03254 0.02018,-6.9e-4 0.03125,0.03125 0.01107,0.03194 -0.01293,1.8e-5 0,0.03125 0.01293,0.03123 0.0165,8.35e-4 0.03125,0.03125 0.01475,0.03041 -0.01652,0.03301 0,0.0625 0.01652,0.02949 0.01302,0.0028 0.03125,0.03125 0.01823,0.02847 0.01137,0.0039 0.03125,0.03125 0.01988,0.02734 0.0098,0.0051 0.03125,0.03125 0.02145,0.02612 -0.02296,0.0064 0,0.03125 0.02296,0.02481 0.0069,0.0078 0.03125,0.03125 0.02438,0.02342 0.0055,0.0093 0.03125,0.03125 l 10.5,8.875 a 0.49998753,0.49998753 0 0 1 0,0.75 L 18.625,52.34375 c -0.02626,0.02113 -0.0063,0.0086 -0.03125,0.03125 -0.02498,0.02263 -0.0076,0.0072 -0.03125,0.03125 -0.0236,0.02406 -0.0091,0.0058 -0.03125,0.03125 -0.02215,0.02541 -0.01064,0.0046 -0.03125,0.03125 -0.02061,0.02667 -0.01224,0.0034 -0.03125,0.03125 -0.01901,0.02783 0.01734,0.0336 0,0.0625 -0.01734,0.0289 -0.01563,0.0014 -0.03125,0.03125 -0.01562,0.02987 -0.01742,5.13e-4 -0.03125,0.03125 -0.01383,0.03074 0.012,-2.46e-4 0,0.03125 -0.012,0.0315 -0.02112,-8.97e-4 -0.03125,0.03125 -0.01013,0.03215 0.0082,0.02981 0,0.0625 -0.0082,0.03269 0.0063,-0.0019 0,0.03125 -0.0063,0.03311 0.0043,-0.0022 0,0.03125 -0.0043,0.03343 -0.02889,0.02888 -0.03125,0.0625 -0.0024,0.03362 3.78e-4,-0.0025 0,0.03125 -3.78e-4,0.0337 -0.0016,0.02883 0,0.0625 0.0016,0.03367 0.02767,-0.0023 0.03125,0.03125 0.0036,0.03352 -0.0055,-0.002 0,0.03125 0.0055,0.03325 -0.0075,0.02964 0,0.0625 0.0075,0.03286 -0.0094,-0.0011 0,0.03125 0.0094,0.03237 0.01996,-5.08e-4 0.03125,0.03125 0.01129,0.03176 -0.01314,2.11e-4 0,0.03125 0.01314,0.03104 0.01631,0.03229 0.03125,0.0625 0.01494,0.03021 -0.01669,0.002 0,0.03125 0.01669,0.02928 0.01287,0.003 0.03125,0.03125 0.01838,0.02825 0.01124,0.0041 0.03125,0.03125 0.02001,0.02712 0.0097,0.0054 0.03125,0.03125 0.02157,0.0259 0.0082,0.0067 0.03125,0.03125 0.02306,0.02459 0.0068,0.0081 0.03125,0.03125 0.02446,0.02319 0.0055,0.0095 0.03125,0.03125 0.02578,0.02171 0.0042,0.01109 0.03125,0.03125 0.01351,0.01008 0.02949,-0.0012 0.03125,0 l 11.40625,7.25 a 0.49998753,0.49998753 0 0 1 0.21875,0.4375 l -0.03125,1.375 A 0.49998753,0.49998753 0 0 1 30.25,62.75 c -0.0093,0.02251 -0.02296,0.0084 -0.03125,0.03125 -0.0083,0.02288 0.0073,0.008 0,0.03125 -0.0073,0.02322 0.0063,0.0077 0,0.03125 -0.0063,0.0235 0.0053,0.0075 0,0.03125 -0.0053,0.02375 -0.02695,0.0073 -0.03125,0.03125 -0.0043,0.02396 0.0033,0.0071 0,0.03125 -0.0033,0.02412 0.0023,0.007 0,0.03125 -0.0023,0.02423 0.0012,0.0069 0,0.03125 -0.0012,0.02431 1.88e-4,0.0069 0,0.03125 -1.88e-4,0.02434 -8.45e-4,0.0069 0,0.03125 8.45e-4,0.02432 -0.0019,0.007 0,0.03125 0.0019,0.02426 -0.0029,0.0071 0,0.03125 0.0029,0.02416 -0.0039,0.0072 0,0.03125 0.0039,0.02402 0.02631,0.0074 0.03125,0.03125 0.006,0.0236 -0.0069,0.0079 0,0.03125 0.0069,0.02332 -0.0079,0.0082 0,0.03125 0.0079,0.02301 0.02235,0.0086 0.03125,0.03125 0.0089,0.02265 -0.0099,0.009 0,0.03125 0.0099,0.02225 -0.01079,0.0094 0,0.03125 0.01079,0.02181 0.01954,0.0099 0.03125,0.03125 0.01171,0.02134 -0.0126,0.01043 0,0.03125 0.0126,0.02082 0.01778,0.01098 0.03125,0.03125 0.01432,0.01968 0.0161,0.0122 0.03125,0.03125 0.01515,0.01905 0.01531,0.01286 0.03125,0.03125 0.01594,0.01839 -0.01671,0.01355 0,0.03125 0.01671,0.0177 0.01381,-0.01697 0.03125,0 0.01744,0.01697 0.0131,0.01503 0.03125,0.03125 0.01815,0.01622 -0.01882,0.01582 0,0.03125 0.01882,0.01543 0.01179,-0.01462 0.03125,0 0.01946,0.01462 0.01119,0.01747 0.03125,0.03125 l 17.0625,12 c 0.01799,0.01269 0.01279,-0.01199 0.03125,0 0.01846,0.01199 0.01234,0.01998 0.03125,0.03125 0.01933,0.01054 0.01153,0.02146 0.03125,0.03125 0.01972,0.0098 0.01117,-0.009 0.03125,0 0.02008,0.009 0.01084,-0.0082 0.03125,0 0.02041,0.0082 0.01054,0.02379 0.03125,0.03125 0.02071,0.0075 0.01027,-0.0067 0.03125,0 0.02122,0.0058 0.0098,0.02622 0.03125,0.03125 0.02143,0.005 0.0096,-0.0042 0.03125,0 0.02161,0.0042 0.0095,-0.0034 0.03125,0 0.02175,0.0034 0.0094,-0.0025 0.03125,0 0.02187,0.0025 0.0093,-0.0017 0.03125,0 0.02195,0.0017 0.0093,-8.45e-4 0.03125,0 0.022,8.45e-4 0.0092,0 0.03125,0 0.022,-8.45e-4 0.0093,0.0017 0.03125,0 0.02195,-0.0017 0.0094,0.0025 0.03125,0 0.02187,-0.0025 0.0095,0.0034 0.03125,0 0.02175,-0.0034 0.0096,0.0042 0.03125,0 0.02161,-0.0042 0.0098,0.005 0.03125,0 0.02143,-0.005 0.01003,-0.0254 0.03125,-0.03125 0.02098,-0.0067 0.01054,0.0075 0.03125,0 0.02071,-0.0075 0.01084,-0.023 0.03125,-0.03125 0.02041,-0.0082 0.01117,0.009 0.03125,0 0.02008,-0.009 0.01153,0.0098 0.03125,0 0.01972,-0.0098 0.01192,-0.02071 0.03125,-0.03125 0.01891,-0.01127 0.01279,-0.01926 0.03125,-0.03125 0.01846,-0.01199 0.01326,0.01269 0.03125,0 L 59,68.125 a 0.49998753,0.49998753 0 0 1 0.03125,0 0.49998753,0.49998753 0 0 1 0.0625,-0.0625 0.49998753,0.49998753 0 0 1 0.03125,0 l 0.0625,-0.03125 6.15625,-4.3125 A 0.49998753,0.49998753 0 0 1 65.375,63.6875 c 0.02269,-0.01366 0.0092,0.01469 0.03125,0 0.02204,-0.01469 0.0099,-0.01555 0.03125,-0.03125 A 0.49998753,0.49998753 0 0 1 65.46875,63.625 c 0.01829,-0.01034 0.01335,0.011 0.03125,0 0.0089,-0.0055 0.03012,7.24e-4 0.03125,0 0.0011,-7.24e-4 -0.0087,-0.02543 0,-0.03125 0.01704,-0.01228 0.01467,-0.01835 0.03125,-0.03125 A 0.49998753,0.49998753 0 0 1 65.625,63.5 0.49998753,0.49998753 0 0 1 65.65625,63.46875 c 0.01847,-0.01903 -0.01757,-0.01139 0,-0.03125 0.01757,-0.01986 0.01462,-0.0106 0.03125,-0.03125 0.01663,-0.02065 0.0156,-0.0098 0.03125,-0.03125 0.01465,-0.0221 0.01764,-0.0085 0.03125,-0.03125 0.01361,-0.02276 -0.01254,-0.0079 0,-0.03125 0.01254,-0.02336 0.0198,-0.0073 0.03125,-0.03125 0.01145,-0.02392 -0.01033,-0.0068 0,-0.03125 0.01033,-0.02442 0.02206,-0.0064 0.03125,-0.03125 0.0092,-0.02487 -0.008,-0.006 0,-0.03125 0.008,-0.02527 -0.0069,-0.0056 0,-0.03125 0.0069,-0.02562 -0.0057,-0.0053 0,-0.03125 0.0057,-0.0259 0.02679,-0.0051 0.03125,-0.03125 0.0045,-0.02614 -0.0032,-0.0049 0,-0.03125 0.0032,-0.02632 -0.002,-0.0048 0,-0.03125 0.002,-0.02644 -7.99e-4,-0.0047 0,-0.03125 L 65.8125,60.96875 a 0.49998753,0.49998753 0 0 1 0.21875,-0.4375 L 77.09375,53.5 c 0.0018,-0.0012 0.01774,0.01008 0.03125,0 0.02701,-0.02016 0.0055,-0.0095 0.03125,-0.03125 0.02578,-0.02171 0.0068,-0.0081 0.03125,-0.03125 0.02446,-0.02319 0.0082,-0.0067 0.03125,-0.03125 0.02306,-0.02459 0.0097,-0.0054 0.03125,-0.03125 0.02157,-0.0259 0.01124,-0.0041 0.03125,-0.03125 0.02001,-0.02712 0.01287,-0.003 0.03125,-0.03125 0.01838,-0.02825 0.01456,-0.002 0.03125,-0.03125 0.01669,-0.02928 -0.01494,-0.001 0,-0.03125 0.01494,-0.03021 0.01811,-0.03146 0.03125,-0.0625 0.01314,-0.03104 -0.01129,5.08e-4 0,-0.03125 0.01129,-0.03176 0.02184,0.0011 0.03125,-0.03125 0.0094,-0.03237 -0.0075,0.0016 0,-0.03125 0.0075,-0.03286 -0.0055,-0.02925 0,-0.0625 0.0055,-0.03325 -0.0036,0.0023 0,-0.03125 0.0036,-0.03352 0.02965,0.0024 0.03125,-0.03125 0.0016,-0.03367 3.78e-4,-0.0288 0,-0.0625 -3.78e-4,-0.0337 0.0024,0.0024 0,-0.03125 -0.0024,-0.03362 -0.02692,-0.02907 -0.03125,-0.0625 -0.0043,-0.03343 0.0063,0.0019 0,-0.03125 -0.0063,-0.03311 0.0082,0.0014 0,-0.03125 -0.0082,-0.03269 0.01013,-0.03035 0,-0.0625 -0.01013,-0.03215 -0.01925,2.46e-4 -0.03125,-0.03125 -0.012,-0.0315 0.01383,-5.13e-4 0,-0.03125 -0.01383,-0.03074 -0.01564,-0.0014 -0.03125,-0.03125 -0.01561,-0.02987 -0.01391,-0.0023 -0.03125,-0.03125 -0.01734,-0.0289 0.01901,-0.03467 0,-0.0625 -0.01901,-0.02783 -0.01063,-0.0046 -0.03125,-0.03125 -0.02062,-0.02667 -0.0091,-0.0058 -0.03125,-0.03125 -0.02215,-0.02541 -0.0076,-0.0072 -0.03125,-0.03125 -0.0236,-0.02406 -0.0063,-0.0086 -0.03125,-0.03125 -0.02497,-0.02263 -0.005,-0.01012 -0.03125,-0.03125 l -10.5625,-8.5 a 0.49998753,0.49998753 0 0 1 0,-0.75 l 10.5,-8.9375 c 0.02572,-0.02194 0.0069,-0.0078 0.03125,-0.03125 0.02438,-0.02342 0.0083,-0.0064 0.03125,-0.03125 0.02296,-0.02481 -0.02145,-0.0051 0,-0.03125 0.02145,-0.02612 0.01137,-0.0039 0.03125,-0.03125 0.01988,-0.02734 0.01302,-0.0028 0.03125,-0.03125 0.01823,-0.02847 0.01473,-0.0018 0.03125,-0.03125 0.01652,-0.02949 -0.01475,-0.03209 0,-0.0625 0.01475,-0.03041 0.01832,-1.8e-5 0.03125,-0.03125 0.01293,-0.03123 -0.01107,6.9e-4 0,-0.03125 0.01107,-0.03194 0.02208,0.0013 0.03125,-0.03125 0.0092,-0.03254 -0.0072,-0.02948 0,-0.0625 0.0072,-0.03302 -0.0053,0.0021 0,-0.03125 0.0053,-0.03339 0.02795,0.0024 0.03125,-0.03125 0.0033,-0.03364 -0.0013,-0.02872 0,-0.0625 0.0013,-0.03378 6.83e-4,0.0025 0,-0.03125 -6.83e-4,-0.0338 0.0027,-0.0288 0,-0.0625 -0.0027,-0.0337 -0.02659,0.0022 -0.03125,-0.03125 -0.0047,-0.03348 0.0066,0.0019 0,-0.03125 -0.0066,-0.03315 0.0086,-0.0298 0,-0.0625 -0.0086,-0.0327 0.01048,8.9e-4 0,-0.03125 -0.01048,-0.03214 -0.0189,2.17e-4 -0.03125,-0.03125 -0.01235,-0.03147 0.01419,-5.66e-4 0,-0.03125 -0.01419,-0.03068 -0.01528,-0.03271 -0.03125,-0.0625 -0.01597,-0.02979 -0.01355,-0.0024 -0.03125,-0.03125 -0.0177,-0.0288 0.01937,-0.0035 0,-0.03125 -0.01937,-0.02771 -0.01028,-0.0047 -0.03125,-0.03125 -0.02097,-0.02652 -0.0088,-0.006 -0.03125,-0.03125 -0.02249,-0.02524 -0.0073,-0.0074 -0.03125,-0.03125 -0.02394,-0.02387 -0.0059,-0.0088 -0.03125,-0.03125 -0.02531,-0.02241 -0.0047,-0.01037 -0.03125,-0.03125 -0.02658,-0.02088 -0.0035,-0.01197 -0.03125,-0.03125 -0.02777,-0.01928 -0.0024,0.01761 -0.03125,0 L 59.75,22.53125 c -0.01882,-0.01153 -0.012,-0.02046 -0.03125,-0.03125 -0.01925,-0.01079 -0.0116,0.01004 -0.03125,0 -0.01965,-0.01004 -0.01123,-0.02197 -0.03125,-0.03125 -0.02002,-0.0093 -0.01088,0.0085 -0.03125,0 -0.02068,-0.0077 -0.01029,-0.02434 -0.03125,-0.03125 -0.02096,-0.0069 -0.01004,0.0061 -0.03125,0 -0.02121,-0.0061 -0.0098,0.0053 -0.03125,0 -0.02143,-0.0053 -0.0096,0.0044 -0.03125,0 -0.02162,-0.0044 -0.0095,0.0036 -0.03125,0 -0.02177,-0.0036 0.02189,-0.02848 0,-0.03125 -0.02189,-0.0028 -0.0093,0.0019 -0.03125,0 -0.02199,-0.0019 -0.0092,0.0011 -0.03125,0 -0.02204,-0.0011 -0.0092,2.3e-4 -0.03125,0 -0.02207,-2.3e-4 -0.0092,-6.19e-4 -0.03125,0 -0.02206,6.19e-4 -0.0092,-0.0015 -0.03125,0 -0.02202,0.0015 -0.0093,-0.0023 -0.03125,0 -0.02195,0.0023 -0.0094,-0.0032 -0.03125,0 -0.02184,0.0032 -0.0095,0.02725 -0.03125,0.03125 -0.02153,0.0048 -0.0099,-0.0057 -0.03125,0 -0.02133,0.0057 -0.01015,-0.0065 -0.03125,0 -0.0211,0.0065 -0.01042,0.02397 -0.03125,0.03125 -0.02083,0.0073 -0.01071,-0.0081 -0.03125,0 -0.02054,0.0081 -0.01104,-0.0089 -0.03125,0 -0.02021,0.0089 0.01986,0.02162 0,0.03125 -0.01986,0.0096 -0.01178,-0.01039 -0.03125,0 -0.01947,0.01039 -0.01219,-0.01113 -0.03125,0 -0.01906,0.01113 -0.01264,0.01939 -0.03125,0.03125 -0.01814,0.01256 -0.0136,0.018 -0.03125,0.03125 -0.01765,0.01325 -0.01413,-0.01392 -0.03125,0 l -10.59375,9.125 a 0.49998753,0.49998753 0 0 1 -0.625,0 L 37,22.5 c -0.02122,-0.01778 -0.0092,0.01673 -0.03125,0 -0.02205,-0.01673 -0.0084,-0.0156 -0.03125,-0.03125 -0.02283,-0.01565 -0.0077,-0.01672 -0.03125,-0.03125 -0.02356,-0.01453 -0.007,0.01337 -0.03125,0 -0.02424,-0.01337 -0.0064,-0.01906 -0.03125,-0.03125 -0.02485,-0.01219 -0.0058,0.01097 -0.03125,0 -0.02541,-0.01097 -0.0053,-0.02152 -0.03125,-0.03125 -0.02591,-0.0097 -0.0049,0.0085 -0.03125,0 -0.02635,-0.0085 -0.0045,0.0072 -0.03125,0 -0.02673,-0.0072 -0.0042,-0.02536 -0.03125,-0.03125 -0.02705,-0.0059 -0.004,0.0046 -0.03125,0 -0.0273,-0.0046 -0.0038,0.0033 -0.03125,0 -0.02749,-0.0033 -0.0036,0.0019 -0.03125,0 -0.02761,-0.0019 -0.03482,5.87e-4 -0.0625,0 -0.02768,-5.87e-4 -0.0036,-7.49e-4 -0.03125,0 -0.0166,0.0018 -0.02913,-2.88e-4 -0.03125,0 -0.0021,2.88e-4 -0.01478,-0.0027 -0.03125,0 -0.03295,0.0055 0.0013,-0.0074 -0.03125,0 z"/>
<path style="fill:#fdfffe" id="rect3683" d="m 47.9584,51 17.0416,12.0208 -17.0416,12.0208 -17.0416,-12.0208 17.0416,-12.0208 z "/>
<rect width="20.01667" x="106.60309" y="-43.693573" height="20.01667" style="opacity:.3" id="rect3685" transform="matrix(0.85137181,0.52456271,-0.85137181,0.52456271,0,0)"/>
<path style="fill:url(#linearGradient3746)" id="rect3688" d="m 59.384,23.1097 17.2398,10.4937 -11.6654,9.8965 -17.0416,-10.5 11.4673,-9.8903 z "/>
<path style="fill:url(#linearGradient3755)" id="path3691" d="m 36.528,23.0549 -17.2398,10.4937 11.6654,9.8965 17.0416,-10.5 -11.4673,-9.8903 z "/>
</g>
<path style="fill:url(#linearGradient3713)" id="path3698" d="m 31,63 0.172556,-19.753556 16.862573,-10.287716 0,18.022842 L 31,63 z"/>
<path style="opacity:.6;fill:url(#linearGradient3730)" id="path3700" d="m 47.9578,74.8058 .1547,-20.8848 -17.0173,-10.5971 v 19.7246 l 16.8626,11.7574 z "/>
<path style="fill:url(#linearGradient3722)" id="path3702" d="m 65.0028,63 -.0628,-19.7536 -16.9174,-10.3426 v 18.2971 l 16.9803,11.799 z "/>
<path style="opacity:.6;fill:url(#linearGradient3738)" id="path3704" d="m 48.1547,74.8058 -.1547,-20.8848 17.0173,-10.5971 v 19.7246 l -16.8626,11.7574 z "/>
<g style="color:#000">
<path style="fill:url(#linearGradient3773)" id="rect3693" d="m 64.9583,43.4514 11.7752,9.4577 -17.1514,10.9389 -11.6654,-9.8965 17.0416,-10.5 z "/>
<path style="fill:url(#linearGradient3763)" id="path3696" d="m 30.8439,43.4514 -11.7752,9.4577 17.1513,10.9389 11.6654,-9.8965 -17.0416,-10.5 z "/>
<path style="opacity:.2;fill:#fdfffe" id="path3775" d="m 47.9584,51 17.0416,12.0208 -17.0416,12.0208 -17.0416,-12.0208 17.0416,-12.0208 z "/>
</g>
<path style="opacity:.6;fill:url(#linearGradient3790)" id="path3777" d="m 31.0938,43.5938 0,16.9688 5.125,3.2812 l 11.6562,-9.9062 -16.7812,-10.3438 z "/>
<path style="opacity:.6;fill:url(#linearGradient3799)" id="path3792" d="m 64.9688,43.4375 -12.9688,8 -4,2.4688 0,.125 11.5938,9.8125 5.4375,-3.4688 0,-16.875 -.0625,-.0625 z "/>
</g>
</svg>
