<svg width="96" version="1.0" xmlns="http://www.w3.org/2000/svg" height="96" xmlns:xlink="http://www.w3.org/1999/xlink">
<defs id="defs2410">
<clipPath id="clipPath3613">
<rect width="84" x="6" y="6" rx="6" height="84" ry="6" style="fill:#fff;stroke:none" id="rect3615"/>
</clipPath>
<filter width="1.3839999" x="-0.192" y="-0.192" height="1.3839999" style="color-interpolation-filters:sRGB" id="filter3794">
<feGaussianBlur stdDeviation="5.28" id="feGaussianBlur3796"/>
</filter>
<filter style="color-interpolation-filters:sRGB" id="filter3174">
<feGaussianBlur stdDeviation="1.71" id="feGaussianBlur3176"/>
</filter>
<filter style="color-interpolation-filters:sRGB" id="filter4039">
<feGaussianBlur stdDeviation="2.4" id="feGaussianBlur4041"/>
</filter>
<linearGradient gradientTransform="matrix(1.0238095,0,0,1.0119048,-1.1428571,-98.071429)" id="linearGradient3725" xlink:href="#ButtonShadow-0" y1="6.1317081" x1="32.251034" y2="90.238609" x2="32.251034" gradientUnits="userSpaceOnUse"/>
<linearGradient id="linearGradient4014">
<stop offset="0" style="stop-color:#8c7bbd" id="stop4018"/>
<stop offset="1" style="stop-color:#150641" id="stop4024"/>
</linearGradient>
<linearGradient gradientTransform="matrix(1.0058652,0,0,0.994169,100,0)" id="linearGradient3015" y1="92.539597" x1="45.447727" y2="7.0165396" x2="45.447727" gradientUnits="userSpaceOnUse">
<stop offset="0" id="stop3017"/>
<stop offset="1" style="stop-opacity:0" id="stop3019"/>
</linearGradient>
<linearGradient gradientTransform="matrix(1.0238095,0,0,1.0119048,-1.1428571,-98.071429)" id="linearGradient3026" xlink:href="#ButtonShadow-0" y1="6.1317081" x1="32.251034" y2="90.238609" x2="32.251034" gradientUnits="userSpaceOnUse"/>
<linearGradient gradientTransform="matrix(0.93299188,0,0,0.84906201,3.4844221,3.9060077)" id="linearGradient3963" xlink:href="#linearGradient3737" y1="19.252991" x1="52" y2="52.815491" x2="52" gradientUnits="userSpaceOnUse"/>
<linearGradient gradientTransform="matrix(1.0238095,0,0,1.0119048,-1.1428571,-98.071429)" id="linearGradient3772" xlink:href="#ButtonShadow-0" y1="6.1317081" x1="32.251034" y2="90.238609" x2="32.251034" gradientUnits="userSpaceOnUse"/>
<linearGradient gradientTransform="translate(0,2)" id="linearGradient3953" xlink:href="#linearGradient3015" y1="48" x1="6" y2="48" x2="56.039986" gradientUnits="userSpaceOnUse"/>
<linearGradient id="linearGradient4281">
<stop offset="0" style="stop-color:#f6e5ed" id="stop4283"/>
<stop offset="1" style="stop-color:#9f275f" id="stop4285"/>
</linearGradient>
<linearGradient id="linearGradient4244">
<stop offset="0" style="stop-color:#fff" id="stop4246"/>
<stop offset="0.17570542" style="stop-color:#afa7c6" id="stop4267"/>
<stop offset="0.60860282" style="stop-color:#43477f" id="stop4261"/>
<stop offset="0.85355651" style="stop-color:#1a2351" id="stop4270"/>
<stop offset="1" style="stop-color:#000b2f" id="stop4248"/>
</linearGradient>
<linearGradient id="linearGradient3925" xlink:href="#linearGradient3919" y1="48" x1="6" y2="48" x2="90" gradientUnits="userSpaceOnUse"/>
<linearGradient gradientTransform="translate(0,-97)" id="linearGradient3721" xlink:href="#ButtonShadow-0" y1="6.1317081" x1="32.251034" y2="90.238609" x2="32.251034" gradientUnits="userSpaceOnUse"/>
<linearGradient gradientTransform="scale(1.0058652,0.994169)" id="ButtonShadow" y1="92.539597" x1="45.447727" y2="7.0165396" x2="45.447727" gradientUnits="userSpaceOnUse">
<stop offset="0" id="stop3750"/>
<stop offset="1" style="stop-opacity:.588" id="stop3752"/>
</linearGradient>
<linearGradient id="linearGradient3737">
<stop offset="0" style="stop-color:#fff" id="stop3739"/>
<stop offset="1" style="stop-color:#fff;stop-opacity:0" id="stop3741"/>
</linearGradient>
<linearGradient id="linearGradient3791">
<stop offset="0" style="stop-color:#36326c" id="stop3793"/>
<stop offset="1" style="stop-color:#6d6aaf" id="stop3795"/>
</linearGradient>
<linearGradient id="linearGradient3919">
<stop offset="0" style="stop-color:#aaf" id="stop3921"/>
<stop offset="1" style="stop-color:#aaf;stop-opacity:0" id="stop3923"/>
</linearGradient>
<linearGradient id="linearGradient3864">
<stop offset="0" style="stop-color:#fff" id="stop3866"/>
<stop offset="0.24046054" style="stop-color:#fff;stop-opacity:.574" id="stop3872"/>
<stop offset="0.68723786" style="stop-color:#fff;stop-opacity:.147" id="stop3874"/>
<stop offset="0.74210525" style="stop-color:#fff;stop-opacity:.109" id="stop3878"/>
<stop offset="1" style="stop-color:#fff;stop-opacity:0" id="stop3868"/>
</linearGradient>
<linearGradient gradientTransform="matrix(1.0238095,0,0,1.0119048,-1.1428571,-98.071429)" id="linearGradient3780" xlink:href="#ButtonShadow-0" y1="6.1317081" x1="32.251034" y2="90.238609" x2="32.251034" gradientUnits="userSpaceOnUse"/>
<linearGradient gradientTransform="matrix(1.0058652,0,0,0.994169,100,0)" id="ButtonShadow-0" y1="92.539597" x1="45.447727" y2="7.0165396" x2="45.447727" gradientUnits="userSpaceOnUse">
<stop offset="0" id="stop3750-8"/>
<stop offset="1" style="stop-opacity:.588" id="stop3752-5"/>
</linearGradient>
<linearGradient id="linearGradient3617" xlink:href="#linearGradient3791" y1="90" x1="48" y2="5.9877172" x2="48" gradientUnits="userSpaceOnUse"/>
<linearGradient id="linearGradient3188" xlink:href="#linearGradient3737" y1="6" x1="36.357143" y2="63.893143" x2="36.357143" gradientUnits="userSpaceOnUse"/>
<linearGradient id="linearGradient3613" xlink:href="#linearGradient3737" y1="20.220806" x1="48" y2="138.66119" x2="48" gradientUnits="userSpaceOnUse"/>
<radialGradient fx="26.785715" fy="27.25" cx="26.785715" cy="27.25" r="16.964285" id="radialGradient3965" xlink:href="#linearGradient3864" gradientUnits="userSpaceOnUse"/>
<radialGradient fx="8.0648556" fy="11.953024" cx="10.367113" cy="12.515939" gradientTransform="matrix(2.1784001,2.08572,-1.4668792,1.620855,25.183057,-103.81429)" r="20.571428" id="radialGradient3988" xlink:href="#linearGradient4244" gradientUnits="userSpaceOnUse"/>
<radialGradient fx="52" fy="66.104958" cx="52" cy="66.104958" gradientTransform="matrix(1.092874,-6.8394169e-8,7.6055756e-8,1.2152989,-4.8294542,-14.232317)" r="30.000002" id="radialGradient4026" xlink:href="#linearGradient4014" gradientUnits="userSpaceOnUse"/>
<radialGradient fx="7.0280466" fy="12.7878" cx="9.3303061" cy="13.350715" gradientTransform="matrix(1.9321,1.82407,-1.01344,1.07346,126.22221,3.554102)" r="20.571428" id="radialGradient3802" xlink:href="#linearGradient4281" gradientUnits="userSpaceOnUse"/>
<radialGradient fx="8.0648556" fy="11.953024" cx="10.367113" cy="12.515939" gradientTransform="matrix(1.49376,1.39048,-1.00586,1.08057,5.61124,-17.4)" r="20.571428" id="radialGradient3837" xlink:href="#linearGradient4244" gradientUnits="userSpaceOnUse"/>
<radialGradient fx="8.0648556" fy="11.953024" cx="10.367113" cy="12.515939" gradientTransform="matrix(1.49376,1.39048,-1.00586,1.08057,5.61124,-17.4)" r="20.571428" id="radialGradient3009" xlink:href="#linearGradient4244" gradientUnits="userSpaceOnUse"/>
<radialGradient fx="11.912163" fy="21.022171" cx="11.912163" cy="21.022171" gradientTransform="matrix(2.5419477,2.5419475,-1.5699299,1.56993,26.019003,54.954664)" r="20.571428" id="radialGradient3839" xlink:href="#linearGradient4281" gradientUnits="userSpaceOnUse"/>
<radialGradient fx="48" fy="90.171875" cx="48" cy="90.171875" gradientTransform="matrix(1.1573129,0,0,0.99590774,-7.5510206,0.19713193)" r="42" id="radialGradient3619" xlink:href="#linearGradient3737" gradientUnits="userSpaceOnUse"/>
<radialGradient fx="8.0648556" fy="11.953024" cx="10.367113" cy="12.515939" gradientTransform="matrix(2.1784001,2.08572,-1.4668792,1.620855,17.183057,-13.814288)" r="20.571428" id="radialGradient3842" xlink:href="#linearGradient4281" gradientUnits="userSpaceOnUse"/>
</defs>
<g style="display:none" id="layer2">
<rect width="86" x="5" y="7" rx="6" height="85" ry="6" style="opacity:.9;fill:url(#ButtonShadow);filter:url(#filter3174);stroke:none" id="rect3745"/>
</g>
<g style="stroke:none" id="layer3">
<path style="opacity:.08;fill:url(#linearGradient3026)" id="path3786" d="m 12,-95.0312 c -5.51109,0 -10.0312,4.52016 -10.0312,10.0312 v 71 c 0,5.51109 4.52016,10.0312 10.0312,10.0312 h 72 c 5.51109,0 10.0312,-4.52016 10.0312,-10.0312 v -71 c 0,-5.51109 -4.52016,-10.0312 -10.0312,-10.0312 h -72 z " transform="scale(1,-1)"/>
<path style="opacity:.1;fill:url(#linearGradient3780)" id="path3778" d="m 12,-94.0312 c -4.97163,0 -9.03125,4.05962 -9.03125,9.03125 v 71 c 0,4.97163 4.05962,9.03125 9.03125,9.03125 h 72 c 4.97163,0 9.03125,-4.05962 9.03125,-9.03125 v -71 c 0,-4.97163 -4.05962,-9.03125 -9.03125,-9.03125 h -72 z " transform="scale(1,-1)"/>
<path style="opacity:.2;fill:url(#linearGradient3772)" id="path3770" d="m 12,-93 c -4.40913,0 -8,3.59087 -8,8 v 71 c 0,4.40913 3.59087,8 8,8 h 72 c 4.40913,0 8,-3.59087 8,-8 v -71 c 0,-4.40913 -3.59087,-8 -8,-8 h -72 z " transform="scale(1,-1)"/>
<rect width="86" x="5" y="-92" rx="7" height="85" ry="7" style="opacity:.3;fill:url(#linearGradient3725)" id="rect3723" transform="scale(1,-1)"/>
<rect width="84" x="6" y="-91" rx="6" height="84" ry="6" style="opacity:.45;fill:url(#linearGradient3721)" id="rect3716" transform="scale(1,-1)"/>
</g>
<g id="layer1">
<rect width="84" x="6" y="6" rx="6" height="84" ry="6" style="fill:url(#linearGradient3617);stroke:none" id="rect2419"/>
<path style="fill:url(#radialGradient3842);filter:url(#filter4039)" id="path3015" d="m 74,48 a 30,30 0 0,1 -60,0 30,30 0 1,1 60,0 z "/>
<path style="fill:url(#radialGradient3842)" id="path4043" d="m 74,48 a 30,30 0 0,1 -60,0 30,30 0 1,1 60,0 z "/>
<g style="stroke:none">
<path style="opacity:.35;fill:url(#linearGradient3188)" id="rect3728" d="m 12,6 c -3.324,0 -6,2.676 -6,6 v 2 68 2 c 0,0.334721 0.04135,0.6507 0.09375,0.96875 0.0487,0.295596 0.09704,0.596915 0.1875,0.875 0.00988,0.03038 0.020892,0.0636 0.03125,0.09375 0.098865,0.287771 0.23488,0.547452 0.375,0.8125 0.144592,0.273507 0.315616,0.535615 0.5,0.78125 0.184384,0.245635 0.373776,0.473472 0.59375,0.6875 0.439947,0.428056 0.94291,0.814526 1.5,1.09375 0.278545,0.139612 0.573473,0.246947 0.875,0.34375 -0.256202,-0.100222 -0.486711,-0.236272 -0.71875,-0.375 -0.00741,-0.0044 -0.023866,0.0045 -0.03125,0 -0.031933,-0.0193 -0.062293,-0.04251 -0.09375,-0.0625 -0.120395,-0.0767 -0.231023,-0.163513 -0.34375,-0.25 -0.106173,-0.0808 -0.213281,-0.161112 -0.3125,-0.25 -0.17793,-0.161433 -0.34746,-0.345388 -0.5,-0.53125 -0.107579,-0.130255 -0.218394,-0.265285 -0.3125,-0.40625 -0.025089,-0.03838 -0.038446,-0.08587 -0.0625,-0.125 -0.064763,-0.103032 -0.130228,-0.204517 -0.1875,-0.3125 -0.101008,-0.194706 -0.205675,-0.415701 -0.28125,-0.625 -0.00796,-0.02181 -0.023589,-0.04055 -0.03125,-0.0625 -0.0318251,-0.09195 -0.0358045,-0.186831 -0.0625,-0.28125 -0.0303323,-0.106618 -0.0703894,-0.203031 -0.09375,-0.3125 -0.0728786,-0.341512 -0.125,-0.698205 -0.125,-1.0625 v -2 -68 -2 c 0,-2.78185 2.21815,-5 5,-5 h 2 68 2 c 2.78185,0 5,2.21815 5,5 v 2 68 2 c 0,0.364295 -0.05212,0.720988 -0.125,1.0625 -0.04415,0.206893 -0.08838,0.397658 -0.15625,0.59375 -0.0077,0.02195 -0.0233,0.04069 -0.03125,0.0625 -0.06274,0.173739 -0.138383,0.367449 -0.21875,0.53125 -0.04158,0.0828 -0.07904,0.169954 -0.125,0.25 -0.0546,0.09721 -0.126774,0.18835 -0.1875,0.28125 -0.09411,0.140965 -0.204921,0.275995 -0.3125,0.40625 -0.143174,0.17445 -0.303141,0.346998 -0.46875,0.5 -0.01117,0.0102 -0.01998,0.02115 -0.03125,0.03125 -0.138386,0.125556 -0.285091,0.234436 -0.4375,0.34375 -0.102571,0.07315 -0.204318,0.153364 -0.3125,0.21875 -0.0074,0.0045 -0.02384,-0.0044 -0.03125,0 -0.232039,0.138728 -0.462548,0.274778 -0.71875,0.375 0.301527,-0.0968 0.596455,-0.204138 0.875,-0.34375 0.55709,-0.279224 1.06005,-0.665694 1.5,-1.09375 0.219973,-0.214028 0.409366,-0.441865 0.59375,-0.6875 0.184384,-0.245635 0.355408,-0.507743 0.5,-0.78125 0.14012,-0.265048 0.276135,-0.524729 0.375,-0.8125 0.01041,-0.03078 0.02133,-0.06274 0.03125,-0.09375 0.09046,-0.278085 0.1388,-0.579404 0.1875,-0.875 0.0524,-0.31805 0.09375,-0.634029 0.09375,-0.96875 v -2 -68 -2 c 0,-3.324 -2.676,-6 -6,-6 h -72 z "/>
<path style="opacity:.15;fill:url(#radialGradient3619)" id="path3615" d="M 12,90 C 8.676,90 6,87.324 6,84 L 6,82 6,14 6,12 c 0,-0.334721 0.04135,-0.6507 0.09375,-0.96875 0.0487,-0.295596 0.09704,-0.596915 0.1875,-0.875 C 6.29113,10.12587 6.302142,10.09265 6.3125,10.0625 6.411365,9.774729 6.5473802,9.515048 6.6875,9.25 6.8320918,8.976493 7.0031161,8.714385 7.1875,8.46875 7.3718839,8.223115 7.5612765,7.995278 7.78125,7.78125 8.221197,7.353194 8.72416,6.966724 9.28125,6.6875 9.559795,6.547888 9.8547231,6.440553 10.15625,6.34375 9.9000482,6.443972 9.6695391,6.580022 9.4375,6.71875 c -0.00741,0.0044 -0.023866,-0.0045 -0.03125,0 -0.031933,0.0193 -0.062293,0.04251 -0.09375,0.0625 -0.120395,0.0767 -0.2310226,0.163513 -0.34375,0.25 -0.1061728,0.0808 -0.2132809,0.161112 -0.3125,0.25 C 8.4783201,7.442683 8.3087904,7.626638 8.15625,7.8125 8.0486711,7.942755 7.9378561,8.077785 7.84375,8.21875 7.818661,8.25713 7.805304,8.30462 7.78125,8.34375 7.716487,8.446782 7.6510225,8.548267 7.59375,8.65625 7.4927417,8.850956 7.3880752,9.071951 7.3125,9.28125 7.30454,9.30306 7.288911,9.3218 7.28125,9.34375 7.2494249,9.4357 7.2454455,9.530581 7.21875,9.625 7.1884177,9.731618 7.1483606,9.828031 7.125,9.9375 7.0521214,10.279012 7,10.635705 7,11 l 0,2 0,68 0,2 c 0,2.781848 2.2181517,5 5,5 l 2,0 68,0 2,0 c 2.781848,0 5,-2.218152 5,-5 l 0,-2 0,-68 0,-2 C 89,10.635705 88.94788,10.279012 88.875,9.9375 88.83085,9.730607 88.78662,9.539842 88.71875,9.34375 88.71105,9.3218 88.69545,9.30306 88.6875,9.28125 88.62476,9.107511 88.549117,8.913801 88.46875,8.75 88.42717,8.6672 88.38971,8.580046 88.34375,8.5 88.28915,8.40279 88.216976,8.31165 88.15625,8.21875 88.06214,8.077785 87.951329,7.942755 87.84375,7.8125 87.700576,7.63805 87.540609,7.465502 87.375,7.3125 87.36383,7.3023 87.35502,7.29135 87.34375,7.28125 87.205364,7.155694 87.058659,7.046814 86.90625,6.9375 86.803679,6.86435 86.701932,6.784136 86.59375,6.71875 c -0.0074,-0.0045 -0.02384,0.0044 -0.03125,0 -0.232039,-0.138728 -0.462548,-0.274778 -0.71875,-0.375 0.301527,0.0968 0.596455,0.204138 0.875,0.34375 0.55709,0.279224 1.060053,0.665694 1.5,1.09375 0.219973,0.214028 0.409366,0.441865 0.59375,0.6875 0.184384,0.245635 0.355408,0.507743 0.5,0.78125 0.14012,0.265048 0.276135,0.524729 0.375,0.8125 0.01041,0.03078 0.02133,0.06274 0.03125,0.09375 0.09046,0.278085 0.1388,0.579404 0.1875,0.875 C 89.95865,11.3493 90,11.665279 90,12 l 0,2 0,68 0,2 c 0,3.324 -2.676,6 -6,6 l -72,0 z"/>
</g>
<path style="fill:url(#radialGradient3802)" id="path4277" d="m 168.4334,47.9841 a 20.5714,20 0 0,1 -41.1429,0 20.5714,20 0 1,1 41.1429,0 z "/>
<g id="layer2-1" transform="translate(125.75088,24.238094)">
<path style="fill:url(#radialGradient3009)" id="path4242" d="m 44.5714,23.8095 a 20.5714,20 0 1,1 -41.1429,0 20.5714,20 0 1,1 41.1429,0 z " transform="translate(1.01587,0.253968)"/>
</g>
<g style="fill-rule:evenodd;stroke:#acbde1;fill:#acbde1" id="layer4" transform="translate(125.75088,24.238094)">
<path style="stroke-width:.718" id="path6086" d="m 4.8726,19.6201 41.7636,0"/>
<g style="stroke-width:.722">
<path id="path6109" d="m 4.4804,22.6575 42.1542,0"/>
<path id="path6111" d="m 4.4938,25.6692 42.1542,0"/>
</g>
<path style="stroke-width:.718" id="path6113" d="m 4.8983,28.6724 41.7725,0"/>
</g>
<path style="fill:url(#radialGradient3965);stroke:none;color:#000" id="path3862" d="m 43.75,27.25 a 16.9643,16.9643 0 1,1 -33.9286,0 16.9643,16.9643 0 1,1 33.9286,0 z "/>
<path style="opacity:.1" id="path3908" d="m 48.9375,16.875 c -1.00575,-0.02935 -2.18091,-0.0089 -3.1875,0.0625 -1.00538,0.07136 -2.22442,0.203418 -3.21875,0.375 -0.975855,0.168395 -2.13686,0.413064 -3.125,0.6875 -0.987144,0.274159 -2.10724,0.671876 -3.03125,1.03125 -0.924968,0.359748 -2.05647,0.816752 -2.96875,1.28125 -0.910032,0.463356 -1.94395,1.08716 -2.78125,1.625 -0.849229,0.545499 -1.80478,1.24865 -2.59375,1.875 -0.776958,0.616815 -1.70324,1.3803 -2.4375,2.09375 -0.722983,0.702493 -1.53771,1.60314 -2.1875,2.375 -0.649359,0.771344 -1.36889,1.73087 -1.9375,2.5625 -0.570029,0.833707 -1.20508,1.86631 -1.6875,2.75 -0.487617,0.893219 -1.01739,1.98568 -1.40625,2.90625 -0.39135,0.926474 -0.795742,2.03542 -1.09375,3 -0.294036,0.951727 -0.610312,2.09439 -0.8125,3.09375 -0.204222,1.00941 -0.339292,2.23598 -0.4375,3.21875 -0.100008,1.00078 -0.156679,2.17772 -0.15625,3.1875 0.00025,0.970166 0.02602,2.12255 0.125,3.125 0.09862,0.998833 0.278072,2.19877 0.46875,3.15625 0.189611,0.952117 0.457131,2.09777 0.75,3.0625 0.28982,0.954689 0.687629,2.03298 1.0625,2.9375 0.378213,0.912588 0.906883,1.99959 1.375,2.875 0.468362,0.87587 1.04703,1.86956 1.59375,2.6875 0.543639,0.81333 1.23964,1.78855 1.875,2.5625 0.635826,0.774527 1.46548,1.6219 2.15625,2.3125 0.690353,0.690175 1.53735,1.52025 2.3125,2.15625 0.773656,0.634776 1.74853,1.33124 2.5625,1.875 0.81759,0.546181 1.81099,1.12534 2.6875,1.59375 0.893352,0.477414 1.9819,0.973881 2.875,1.34375 0.904074,0.374411 1.98217,0.772755 2.9375,1.0625 0.942641,0.285897 2.08707,0.587256 3.0625,0.78125 0.979628,0.194828 2.18016,0.341379 3.15625,0.4375 0.978527,0.09636 2.13066,0.15625 3.125,0.15625 0.994341,0 2.14647,-0.05989 3.125,-0.15625 0.976093,-0.09612 2.17662,-0.242672 3.15625,-0.4375 0.975435,-0.193994 2.11986,-0.495353 3.0625,-0.78125 0.955327,-0.289745 2.03343,-0.688089 2.9375,-1.0625 0.893105,-0.369869 1.98165,-0.866336 2.875,-1.34375 0.876509,-0.468413 1.86991,-1.04757 2.6875,-1.59375 0.813966,-0.543761 1.78884,-1.24022 2.5625,-1.875 0.775151,-0.636003 1.62215,-1.46608 2.3125,-2.15625 0.690774,-0.690595 1.52042,-1.53797 2.15625,-2.3125 0.635355,-0.773952 1.33136,-1.74917 1.875,-2.5625 0.54672,-0.817938 1.12539,-1.81163 1.59375,-2.6875 0.468117,-0.875413 0.996787,-1.96241 1.375,-2.875 0.374871,-0.904522 0.77268,-1.98281 1.0625,-2.9375 0.292869,-0.964732 0.560389,-2.11038 0.75,-3.0625 0.190678,-0.957476 0.370129,-2.15742 0.46875,-3.15625 0.098978,-1.00245 0.12475,-2.15483 0.125,-3.125 0.000407,-0.957578 -0.030555,-2.11248 -0.125,-3.09375 -0.09379,-0.974432 -0.253611,-2.11821 -0.4375,-3.0625 -0.185643,-0.953296 -0.472752,-2.09778 -0.75,-3.03125 -0.272991,-0.91914 -0.630938,-1.99571 -1,-2.90625 -0.371217,-0.915854 -0.90134,-1.96574 -1.34375,-2.8125 -0.444178,-0.850141 -0.993919,-1.86349 -1.53125,-2.6875 -0.533653,-0.81837 -1.21045,-1.71539 -1.8125,-2.46875 -0.612903,-0.766944 -1.39226,-1.65338 -2.0625,-2.34375 -0.658531,-0.678316 -1.49023,-1.48008 -2.25,-2.125 -0.746947,-0.634035 -1.64717,-1.32563 -2.4375,-1.875 -0.803742,-0.558693 -1.81398,-1.18395 -2.65625,-1.65625 -0.835796,-0.468675 -1.8501,-0.978854 -2.75,-1.375 -0.900644,-0.396473 -1.99483,-0.824679 -2.90625,-1.125 -0.932452,-0.307252 -2.03241,-0.56997 -2.96875,-0.78125 -0.93565,-0.211124 -2.08732,-0.43942 -3.0625,-0.5625 -0.974715,-0.123022 -2.13283,-0.190711 -3.09375,-0.21875 z " transform="translate(4,0)"/>
<g id="g3831" transform="matrix(1.4583334,0,0,1.5,11.518521,101.90476)">
<path style="fill:url(#radialGradient3837)" id="path3833" d="m 44.5714,23.8095 a 20.5714,20 0 1,1 -41.1429,0 20.5714,20 0 1,1 41.1429,0 z " transform="translate(1.01587,0.253968)"/>
</g>
<path style="fill:url(#radialGradient3839)" id="path3835" d="m 48.875,108 c -7.99856,-0.23339 -16.0422,2.89501 -21.7811,8.47134 -5.73898,5.57634 -9.09727,13.5267 -9.09387,21.5287 0.01674,8.07285 3.45758,16.0832 9.3011,21.6532 5.84352,5.56997 14.0095,8.6231 22.0739,8.25308 -6.70657,-0.46082 -13.2162,-3.88504 -17.823,-9.3753 -4.60677,-5.49026 -7.26234,-12.9889 -7.27079,-20.5309 0.0033,-7.56926 2.67371,-15.0968 7.30674,-20.5967 4.63303,-5.49993 11.1794,-8.91373 17.912,-9.34082 -0.208108,-0.023 -0.416456,-0.0439 -0.625,-0.0625 z "/>
<path style="opacity:.3" id="path3898" d="m 82,49 a 30,30 0 0,1 -60,0 30,30 0 1,1 60,0 z "/>
<path style="opacity:.15" id="path3904" d="m 48.9062,17.9375 c -0.963996,-0.02813 -2.13176,-0.0058 -3.09375,0.0625 -0.961986,0.06827 -2.14339,0.211005 -3.09375,0.375 -0.95036,0.163995 -2.10202,0.398174 -3.03125,0.65625 -0.929234,0.258076 -2.03868,0.650422 -2.9375,1 -0.898818,0.349578 -1.98433,0.812415 -2.84375,1.25 -0.859418,0.437585 -1.87607,1.04128 -2.6875,1.5625 -0.811426,0.521217 -1.77593,1.21286 -2.53125,1.8125 -0.755323,0.599639 -1.65208,1.35918 -2.34375,2.03125 -0.691669,0.672067 -1.5039,1.54347 -2.125,2.28125 -0.6211,0.737776 -1.33068,1.67264 -1.875,2.46875 -0.544323,0.79611 -1.16289,1.80976 -1.625,2.65625 -0.462105,0.846486 -0.968483,1.9241 -1.34375,2.8125 -0.375267,0.8884 -0.777823,1.98482 -1.0625,2.90625 -0.284677,0.921433 -0.590008,2.05475 -0.78125,3 -0.191242,0.945254 -0.341605,2.13412 -0.4375,3.09375 -0.09589,0.959627 -0.15666,2.12934 -0.15625,3.09375 0.000244,0.946416 0.03201,2.08941 0.125,3.03125 0.09299,0.941836 0.283904,2.10306 0.46875,3.03125 0.184846,0.928189 0.44383,2.06314 0.71875,2.96875 0.27492,0.905606 0.668903,1.96945 1.03125,2.84375 0.362347,0.874304 0.866215,1.94667 1.3125,2.78125 0.446285,0.834585 1.03657,1.80692 1.5625,2.59375 0.525927,0.786831 1.21199,1.73725 1.8125,2.46875 0.600506,0.731502 1.3932,1.58087 2.0625,2.25 0.669303,0.66913 1.51834,1.46218 2.25,2.0625 0.731657,0.600317 1.68178,1.28678 2.46875,1.8125 0.786967,0.525724 1.75905,1.11643 2.59375,1.5625 0.8347,0.44607 1.90685,0.919129 2.78125,1.28125 0.874397,0.362121 1.93807,0.756564 2.84375,1.03125 0.905677,0.274686 2.04051,0.565393 2.96875,0.75 0.928236,0.184607 2.08939,0.34475 3.03125,0.4375 0.94186,0.09275 2.08483,0.15625 3.03125,0.15625 0.946416,0 2.08939,-0.0635 3.03125,-0.15625 0.94186,-0.09275 2.10301,-0.252893 3.03125,-0.4375 0.928236,-0.184607 2.06307,-0.475314 2.96875,-0.75 0.905677,-0.274686 1.96935,-0.669129 2.84375,-1.03125 0.874397,-0.362121 1.94655,-0.83518 2.78125,-1.28125 0.8347,-0.44607 1.80678,-1.03678 2.59375,-1.5625 0.786967,-0.525724 1.73709,-1.21218 2.46875,-1.8125 0.731657,-0.600317 1.5807,-1.39337 2.25,-2.0625 0.669303,-0.66913 1.46199,-1.5185 2.0625,-2.25 0.600506,-0.731502 1.28657,-1.68192 1.8125,-2.46875 0.525927,-0.786831 1.11621,-1.75916 1.5625,-2.59375 0.446285,-0.834585 0.950153,-1.90695 1.3125,-2.78125 0.362347,-0.874304 0.75633,-1.93814 1.03125,-2.84375 0.27492,-0.905606 0.533904,-2.04056 0.71875,-2.96875 0.184846,-0.928189 0.375757,-2.08941 0.46875,-3.03125 0.09299,-0.941836 0.124756,-2.08483 0.125,-3.03125 0.000395,-0.929249 -0.03597,-2.07502 -0.125,-3 -0.089027,-0.924975 -0.259876,-2.02538 -0.4375,-2.9375 -0.177624,-0.912115 -0.454179,-2.04671 -0.71875,-2.9375 -0.264571,-0.89079 -0.619687,-1.9513 -0.96875,-2.8125 -0.349063,-0.861196 -0.850935,-1.89514 -1.28125,-2.71875 -0.430315,-0.823609 -0.992426,-1.81537 -1.5,-2.59375 -0.507574,-0.778378 -1.16988,-1.68033 -1.75,-2.40625 -0.580121,-0.725923 -1.35272,-1.58327 -2,-2.25 -0.647283,-0.66673 -1.44781,-1.46115 -2.15625,-2.0625 -0.708438,-0.601348 -1.61198,-1.28212 -2.375,-1.8125 -0.763018,-0.530385 -1.75198,-1.13925 -2.5625,-1.59375 -0.810515,-0.454499 -1.80576,-0.969355 -2.65625,-1.34375 -0.85049,-0.374395 -1.92993,-0.771685 -2.8125,-1.0625 -0.88257,-0.290815 -1.96854,-0.576713 -2.875,-0.78125 -0.906459,-0.204537 -2.01557,-0.41489 -2.9375,-0.53125 -0.921935,-0.11636 -2.07115,-0.191647 -3,-0.21875 z " transform="translate(4,0)"/>
<path style="fill:url(#radialGradient4026)" id="path3880" d="m 82,48 a 30,30 0 0,1 -60,0 30,30 0 1,1 60,0 z "/>
<path style="opacity:.15;fill:#fff" id="path4028" d="m 79.1875,46.7188 a 27.2138,27.2138 0 0,1 -54.375,0.46875 27.2138,27.2138 0 0,0 -0.03125,0.8125 27.2188,27.2187 0 0,0 54.4375,0 27.2138,27.2138 0 0,0 -0.03125,-1.28125 z "/>
<path style="opacity:.8;fill:url(#linearGradient3963)" id="path3955" d="m 73.1604,34.5043 a 21.1604,14.2483 0 0,1 -42.3209,0 21.1604,14.2483 0 1,1 42.3209,0 z "/>
<path style="fill:url(#radialGradient3988)" id="path3986" d="m 82,-42 a 30,30 0 0,1 -60,0 30,30 0 1,1 60,0 z "/>
<path style="fill:#251650" id="path4001" d="m 52.875,18 a 30,30 0 0,0 -30.875,30 30,30 0 0,0 60,0 30,30 0 0,0 -29.125,-30 z  m -.0312,1.25 a 28.7411,28.7411 0 0,1 27.9062,28.75 28.75,28.75 0 0,1 -57.5,0 28.7411,28.7411 0 0,1 29.5938,-28.75 z "/>
<g style="stroke:none;color:#000;stroke-width:2">
<path style="opacity:.2;fill:url(#linearGradient3953)" id="path3927" d="m 6,38 0,1 84,0 0,-1 -84,0 z m 0,2 0,1 84,0 0,-1 -84,0 z m 0,4 0,1 84,0 0,-1 -84,0 z m 0,2 0,1 84,0 0,-1 -84,0 z m 0,4 0,1 84,0 0,-1 -84,0 z m 0,2 0,1 84,0 0,-1 -84,0 z m 0,4 0,1 84,0 0,-1 -84,0 z m 0,2 0,1 84,0 0,-1 -84,0 z"/>
<path style="fill:url(#linearGradient3925)" id="rect3910" d="m 6,39 0,1 84,0 0,-1 -84,0 z m 0,6 0,1 84,0 0,-1 -84,0 z m 0,6 0,1 84,0 0,-1 -84,0 z m 0,6 0,1 84,0 0,-1 -84,0 z"/>
</g>
</g>
<g id="layer5">
<rect width="66" x="15" y="15" rx="12" height="66" ry="12" style="opacity:.1;fill:url(#linearGradient3613);filter:url(#filter3794);stroke:#fff;stroke-linecap:round;stroke-width:.5;clip-path:url(#clipPath3613)" id="rect3171"/>
</g>
</svg>
