<svg width="96" version="1.0" xmlns="http://www.w3.org/2000/svg" height="96" xmlns:xlink="http://www.w3.org/1999/xlink">
<defs id="defs2410">
<clipPath id="clipPath4713">
<path style="stroke-dashoffset:8.6;opacity:.6;color:#000;stroke-linecap:round;fill:#f0f;stroke:#f0f" id="path4715" d="m 12.4375,22.4688 c -1.108,0 -2,0.892 -2,2 v 41.75 c 0,1.108 0.892,2 2,2 h 70 c 1.108,0 2,-0.892 2,-2 v -41.75 c 0,-1.108 -0.892,-2 -2,-2 h -70 z  m 10.9375,26.6875 24.8125,0 l -3.4688,8.8438 -.0938,.2188 -.2188,.0938 c 0,0 -2.75383,0.78502 -6.25,1.125 -3.49617,0.33998 -7.77173,0.246498 -10.8438,-1.625 l -.125,-.0625 -.0625,-.1562 c -0.32773,-0.794793 -0.37487,-1.94806 -0.34375,-3.1875 -0.275422,0.05906 -0.468409,0.13113 -1,0.15625 -0.406238,0.0192 -0.834811,0.02175 -1.25,-0.09375 -0.415189,-0.115499 -0.871601,-0.368201 -1.09375,-0.8125 l -.0312,-.0938 v -0.09375 c -0.130868,-1.55587 -0.13497,-2.98824 -0.03125,-4.3125 z "/>
</clipPath>
<clipPath id="clipPath3613">
<rect width="84" x="6" y="6" rx="6" height="84" ry="6" style="fill:#fff;stroke:none" id="rect3615"/>
</clipPath>
<filter width="1.388211" x="-0.19410552" y="-0.19410552" height="1.388211" style="color-interpolation-filters:sRGB" id="filter4055">
<feGaussianBlur stdDeviation="5.3379019" id="feGaussianBlur4057"/>
</filter>
<filter style="color-interpolation-filters:sRGB" id="filter4920">
<feGaussianBlur stdDeviation="0.4564276" id="feGaussianBlur4922"/>
</filter>
<filter style="color-interpolation-filters:sRGB" id="filter3174">
<feGaussianBlur stdDeviation="1.71" id="feGaussianBlur3176"/>
</filter>
<linearGradient id="linearGradient4719" xlink:href="#linearGradient4363" y1="53.947376" x1="69.537895" y2="37.499023" x2="42.846367" gradientUnits="userSpaceOnUse"/>
<linearGradient gradientTransform="translate(-30,0)" id="linearGradient4717" xlink:href="#linearGradient4341" y1="47.439873" x1="72.557053" y2="49.746658" x2="98.41127" gradientUnits="userSpaceOnUse"/>
<linearGradient gradientTransform="translate(-1,1)" id="linearGradient4031" xlink:href="#ButtonShadow" y1="90.868095" x1="48" y2="5.9877172" x2="48" gradientUnits="userSpaceOnUse"/>
<linearGradient gradientTransform="translate(0,1)" id="linearGradient3989" xlink:href="#ButtonShadow" y1="90" x1="48" y2="5.9877172" x2="48" gradientUnits="userSpaceOnUse"/>
<linearGradient id="linearGradient3967" xlink:href="#linearGradient3737" y1="6" x1="44" y2="64.215118" x2="44" gradientUnits="userSpaceOnUse"/>
<linearGradient gradientTransform="translate(-1,1)" id="linearGradient4001" xlink:href="#ButtonShadow" y1="90.868095" x1="48" y2="5.9877172" x2="48" gradientUnits="userSpaceOnUse"/>
<linearGradient gradientTransform="translate(-1,1)" id="linearGradient4023" xlink:href="#ButtonShadow" y1="90.868095" x1="48" y2="5.9877172" x2="48" gradientUnits="userSpaceOnUse"/>
<linearGradient id="linearGradient4912">
<stop offset="0" style="stop-color:#f9a842" id="stop4914"/>
<stop offset="1" style="stop-color:#f9be42" id="stop4916"/>
</linearGradient>
<linearGradient id="linearGradient4721" xlink:href="#linearGradient4355" y1="59.935955" x1="55.475563" y2="39.576107" x2="54.16576" gradientUnits="userSpaceOnUse"/>
<linearGradient id="linearGradient4894" xlink:href="#linearGradient4888" y1="59.359638" x1="34.553753" y2="33.541145" x2="34.553753" gradientUnits="userSpaceOnUse"/>
<linearGradient id="linearGradient4731" xlink:href="#linearGradient4466" y1="33.646538" x1="70.929146" y2="20.141127" x2="57.423737" gradientUnits="userSpaceOnUse"/>
<linearGradient id="linearGradient4902" xlink:href="#linearGradient4888" y1="59.359638" x1="34.553753" y2="33.541145" x2="34.553753" gradientUnits="userSpaceOnUse"/>
<linearGradient id="linearGradient4918" xlink:href="#linearGradient4912" y1="47.671322" x1="19.017595" y2="47.671322" x2="76.788734" gradientUnits="userSpaceOnUse"/>
<linearGradient id="linearGradient4910" xlink:href="#linearGradient4888" y1="59.359638" x1="34.553753" y2="33.541145" x2="34.553753" gradientUnits="userSpaceOnUse"/>
<linearGradient id="linearGradient4841" xlink:href="#linearGradient4813" y1="64.709518" x1="60.798229" y2="33.729588" x2="60.798229" gradientUnits="userSpaceOnUse"/>
<linearGradient id="linearGradient4733" xlink:href="#linearGradient4383" y1="32.917397" x1="71.872765" y2="20.280247" x2="58.630184" gradientUnits="userSpaceOnUse"/>
<linearGradient id="linearGradient4827" xlink:href="#linearGradient4813" y1="64.709518" x1="60.798229" y2="33.729588" x2="60.798229" gradientUnits="userSpaceOnUse"/>
<linearGradient id="linearGradient4735" xlink:href="#linearGradient4537" y1="46.910316" x1="23.29822" y2="48.890137" x2="48.157101" gradientUnits="userSpaceOnUse"/>
<linearGradient id="linearGradient4749" xlink:href="#linearGradient4521" y1="33.534683" x1="42.437229" y2="23.087629" x2="31.990175" gradientUnits="userSpaceOnUse"/>
<linearGradient id="linearGradient4819" xlink:href="#linearGradient4813" y1="64.709518" x1="60.798229" y2="33.729588" x2="60.798229" gradientUnits="userSpaceOnUse"/>
<linearGradient id="linearGradient4737" xlink:href="#linearGradient4529" y1="55.112427" x1="45.076241" y2="34.607147" x2="29.773056" gradientUnits="userSpaceOnUse"/>
<linearGradient gradientTransform="translate(-1,1)" id="linearGradient4009" xlink:href="#ButtonShadow" y1="90.868095" x1="48" y2="5.9877172" x2="48" gradientUnits="userSpaceOnUse"/>
<linearGradient id="linearGradient4504">
<stop offset="0" style="stop-color:#c7fbb5" id="stop4506"/>
<stop offset="0.40000001" style="stop-color:#7dd067" id="stop4512"/>
<stop offset="1" style="stop-color:#387633" id="stop4508"/>
</linearGradient>
<linearGradient id="linearGradient4355">
<stop offset="0" style="stop-color:#1a4a7f" id="stop4357"/>
<stop offset="1" style="stop-color:#1a4a7f;stop-opacity:0" id="stop4359"/>
</linearGradient>
<linearGradient id="linearGradient4466">
<stop offset="0" style="stop-color:#1f669e" id="stop4468"/>
<stop offset="1" style="stop-color:#1f669e;stop-opacity:0" id="stop4470"/>
</linearGradient>
<linearGradient id="linearGradient4383">
<stop offset="0" style="stop-color:#1b528b" id="stop4385"/>
<stop offset="1" style="stop-color:#267bc4;stop-opacity:.225" id="stop4387"/>
</linearGradient>
<linearGradient id="linearGradient4391">
<stop offset="0" style="stop-color:#fff" id="stop4393"/>
<stop offset="1" style="stop-color:#fff;stop-opacity:0" id="stop4395"/>
</linearGradient>
<linearGradient id="linearGradient4521">
<stop offset="0" style="stop-color:#2b6028" id="stop4523"/>
<stop offset="1" style="stop-color:#2b6028;stop-opacity:0" id="stop4525"/>
</linearGradient>
<linearGradient id="linearGradient4888">
<stop offset="0" style="stop-color:#2c6128" id="stop4890"/>
<stop offset="1" style="stop-color:#2c6128;stop-opacity:0" id="stop4892"/>
</linearGradient>
<linearGradient id="linearGradient4529">
<stop offset="0" style="stop-color:#2b6128" id="stop4531"/>
<stop offset="1" style="stop-color:#59a24c" id="stop4533"/>
</linearGradient>
<linearGradient id="linearGradient4813">
<stop offset="0" style="stop-color:#1b538d" id="stop4815"/>
<stop offset="1" style="stop-color:#1b538d;stop-opacity:0" id="stop4817"/>
</linearGradient>
<linearGradient id="linearGradient4537">
<stop offset="0" style="stop-color:#59af3f" id="stop4539"/>
<stop offset="0.28080305" style="stop-color:#7dd06e" id="stop4547"/>
<stop offset="0.42996103" style="stop-color:#95db83" id="stop4545"/>
<stop offset="0.60335064" style="stop-color:#73b661" id="stop4549"/>
<stop offset="1" style="stop-color:#2f7829" id="stop4541"/>
</linearGradient>
<linearGradient id="linearGradient4581">
<stop offset="0" style="stop-color:#2b6028" id="stop4583"/>
<stop offset="1" style="stop-color:#2b6028;stop-opacity:0" id="stop4585"/>
</linearGradient>
<linearGradient id="linearGradient4363">
<stop offset="0" style="stop-color:#1c508a" id="stop4365"/>
<stop offset="1" style="stop-color:#438dc6" id="stop4367"/>
</linearGradient>
<linearGradient gradientTransform="scale(1.0058652,0.994169)" id="ButtonShadow" y1="92.539597" x1="45.447727" y2="7.0165396" x2="45.447727" gradientUnits="userSpaceOnUse">
<stop offset="0" id="stop3750"/>
<stop offset="1" style="stop-opacity:.588" id="stop3752"/>
</linearGradient>
<linearGradient id="linearGradient3737">
<stop offset="0" style="stop-color:#fff" id="stop3739"/>
<stop offset="1" style="stop-color:#fff;stop-opacity:0" id="stop3741"/>
</linearGradient>
<linearGradient gradientTransform="translate(-110,0)" id="linearGradient3151" xlink:href="#linearGradient3700" y1="90" x1="48" y2="5.9877172" x2="48" gradientUnits="userSpaceOnUse"/>
<linearGradient id="linearGradient3700">
<stop offset="0" style="stop-color:#2276c5" id="stop3702"/>
<stop offset="1" style="stop-color:#68baf4" id="stop3704"/>
</linearGradient>
<linearGradient id="linearGradient3613" xlink:href="#linearGradient3737" y1="20.220806" x1="48" y2="138.66119" x2="48" gradientUnits="userSpaceOnUse"/>
<linearGradient id="linearGradient4295">
<stop offset="0" style="stop-color:#d8effd" id="stop4297"/>
<stop offset="0.40000001" style="stop-color:#80bee7" id="stop4303"/>
<stop offset="1" style="stop-color:#276296" id="stop4299"/>
</linearGradient>
<linearGradient id="linearGradient3948" xlink:href="#ButtonColor" y1="90" x1="48" y2="5.9877172" x2="48" gradientUnits="userSpaceOnUse"/>
<linearGradient gradientTransform="translate(-110,0)" id="linearGradient3153" xlink:href="#linearGradient3737" y1="6" x1="36.357143" y2="63.893143" x2="36.357143" gradientUnits="userSpaceOnUse"/>
<linearGradient id="ButtonColor" y1="21" x1="10.31979" y2="0.99929649" x2="10.31979" gradientUnits="userSpaceOnUse">
<stop offset="0" style="stop-color:#95c2e6" id="stop3189"/>
<stop offset="1" style="stop-color:#d9ecfd" id="stop3191"/>
</linearGradient>
<linearGradient id="linearGradient4341">
<stop offset="0" style="stop-color:#5aa6c8" id="stop4343"/>
<stop offset="0.21075311" style="stop-color:#8bcae9" id="stop4351"/>
<stop offset="0.40000001" style="stop-color:#8ad2eb" id="stop4349"/>
<stop offset="0.63987231" style="stop-color:#4e91bb" id="stop4353"/>
<stop offset="1" style="stop-color:#27649a" id="stop4345"/>
</linearGradient>
<radialGradient fx="48" fy="90.171875" cx="48" cy="90.171875" gradientTransform="matrix(1.1573129,0,0,0.99590774,-117.55102,0.19713193)" r="42" id="radialGradient3155" xlink:href="#linearGradient3737" gradientUnits="userSpaceOnUse"/>
<radialGradient fx="36.155109" fy="38.148655" cx="36.155109" cy="38.148655" gradientTransform="matrix(-1.1448236,0,0,-1.4739932,75.161918,95.096158)" r="11.34092" id="radialGradient4745" xlink:href="#linearGradient4391" gradientUnits="userSpaceOnUse"/>
<radialGradient fx="35.381287" fy="26.461763" cx="35.381287" cy="26.461763" gradientTransform="matrix(1.173057,7.7333582e-8,-7.8642098e-8,1.1929056,-6.1229775,-5.1046256)" r="7.2122016" id="radialGradient4747" xlink:href="#linearGradient4504" gradientUnits="userSpaceOnUse"/>
<radialGradient fx="51.742218" fy="24.501904" cx="51.742218" cy="24.501904" gradientTransform="matrix(1.1980038,-2.1543406e-8,2.1342168e-8,1.1868132,-10.245158,-4.5772777)" r="9.5280094" id="radialGradient4729" xlink:href="#linearGradient4295" gradientUnits="userSpaceOnUse"/>
<radialGradient fx="56.270916" fy="42.18652" cx="56.270916" cy="42.18652" gradientTransform="matrix(1.2075346e-7,2.2032292,-2.0090302,1.2802398e-7,141.0249,-84.46424)" r="9.7675409" id="radialGradient4725" xlink:href="#linearGradient4391" gradientUnits="userSpaceOnUse"/>
<radialGradient fx="56.270916" fy="42.18652" cx="56.270916" cy="42.18652" gradientTransform="matrix(1.2075346e-7,2.2032292,-2.0090302,1.2802398e-7,141.0249,-84.46424)" r="9.7675409" id="radialGradient4727" xlink:href="#linearGradient4391" gradientUnits="userSpaceOnUse"/>
<radialGradient fx="48" fy="72" cx="48" cy="72" gradientTransform="matrix(1.1428571,0,0,0.95238095,-6.8571426,3.4285712)" r="42" id="radialGradient3982" xlink:href="#linearGradient3737" gradientUnits="userSpaceOnUse"/>
<radialGradient fx="44.895283" fy="57.701195" cx="44.895283" cy="57.701195" gradientTransform="matrix(0.60710614,0,0,0.90525968,18.741147,4.4589757)" r="13.272889" id="radialGradient4739" xlink:href="#linearGradient4581" gradientUnits="userSpaceOnUse"/>
<radialGradient fx="56.270916" fy="42.18652" cx="56.270916" cy="42.18652" gradientTransform="matrix(1.2075346e-7,2.2032292,-2.0090302,1.2802398e-7,141.0249,-84.46424)" r="9.7675409" id="radialGradient4723" xlink:href="#linearGradient4391" gradientUnits="userSpaceOnUse"/>
<radialGradient fx="36.155109" fy="38.148655" cx="36.155109" cy="38.148655" gradientTransform="matrix(-1.1448236,0,0,-1.4739932,75.161918,95.096158)" r="11.34092" id="radialGradient4741" xlink:href="#linearGradient4391" gradientUnits="userSpaceOnUse"/>
<radialGradient fx="36.155109" fy="38.148655" cx="36.155109" cy="38.148655" gradientTransform="matrix(-1.1448236,0,0,-1.4739932,75.161918,95.096158)" r="11.34092" id="radialGradient4743" xlink:href="#linearGradient4391" gradientUnits="userSpaceOnUse"/>
</defs>
<g style="display:none" id="layer2">
<rect width="86" x="5" y="7" rx="6" height="85" ry="6" style="opacity:.9;fill:url(#ButtonShadow);filter:url(#filter3174);stroke:none" id="rect3745"/>
</g>
<g style="stroke:none" id="layer3">
<path style="opacity:.08;fill:url(#linearGradient4031)" id="path4029" d="m 12,4.0312 c -6.07016,-0.161741 -10.6912,5.68951 -9.96875,11.5 7.16e-05,0.04167 -7.01e-05,0.08333 0,0.125 0.030431,18.0862 -0.077787,36.1534 0.03125,54.25 a 0.932327,0.932327 0 0,0 0,0.0625 c 0.429771,5.83152 6.21689,9.67468 11.7188,9 0.0418,-0.0051 0.08323,0.0056 0.125,0 h 5.3125 c -0.679778,4.4285 -1.59684,8.89523 -2.0625,13.4062 a 0.932327,0.932327 0 0,0 0.03125,0.28125 c 0.279995,1.2942 1.37173,2.1088 2.46875,2.25 1.02388,0.131791 2.06555,-0.225148 2.84375,-1 v 0.03125 l 22.8438,-14.9688 c 13.1851,-0.02898 26.3628,0.07707 39.5625,-0.03125 a 0.932327,0.932327 0 0,0 0.0625,0 c 5.83152,-0.429771 9.67468,-6.21689 9,-11.7188 -0.0051,-0.0418 0.0056,-0.08323 0,-0.125 -0.03043,-18.0018 0.07779,-35.9879 -0.03125,-54 a 0.932327,0.932327 0 0,0 0,-0.0625 c -0.429771,-5.83152 -6.21689,-9.67468 -11.7188,-9 h -0.125 -70.0625 -0.03125 z "/>
<path style="opacity:.1;fill:url(#linearGradient4023)" id="path4015" d="m 12,4.9688 c -5.50178,-0.165639 -9.7593,5.26156 -9.03125,10.5515 0.031153,18.1328 -0.06237,36.2687 0.046873,54.3995 0.389112,5.27983 5.73019,8.79147 10.758,8.11155 2.17964,0 4.35928,0 6.53892,0 -0.693629,4.81117 -1.72321,9.63704 -2.21875,14.4375 0.399566,1.84689 2.79006,1.97636 3.91016,0.694482 7.69661,-5.04399 15.3932,-10.088 23.0898,-15.132 13.2749,-0.03092 26.553,0.06205 39.826,-0.04687 5.27983,-0.389113 8.79147,-5.73019 8.11155,-10.758 -0.031152,-18.0483 0.062369,-36.0998 -0.046873,-54.1461 -0.389113,-5.27983 -5.73019,-8.79147 -10.758,-8.11155 -23.4088,0 -46.8176,0 -70.2264,0 z "/>
<path style="opacity:.15;fill:url(#linearGradient4009)" id="path4007" d="m 12,6 c -4.40785,0 -8,3.59215 -8,8 v 55 c 0,4.40785 3.59215,8 8,8 h 9.5 l -2.4062,14.9062 a 0.987335,0.987335 0 0,0 1.5,0.96875 l 24.2188,-15.875 h 39.1875 c 4.40785,0 8,-3.59215 8,-8 v -55 c 0,-4.40785 -3.59215,-8 -8,-8 h -72 z "/>
<path style="opacity:.3;fill:url(#linearGradient4001)" id="rect3991" d="M 12,7 C 8.122,7 5,10.122 5,14 l 0,55 c 0,3.878 3.122,7 7,7 L 22.65625,76 20.0625,92.0625 44.5625,76 84,76 c 3.878,0 7,-3.122 7,-7 L 91,14 C 91,10.122 87.878,7 84,7 L 12,7 z"/>
<path style="opacity:.45;fill:url(#linearGradient3989)" id="path3984" d="m 12,7 c -3.324,0 -6,2.676 -6,6 v 56 c 0,3.324 2.676,6 6,6 h 12 l -3,16 23,-16 h 40 c 3.324,0 6,-2.676 6,-6 v -56 c 0,-3.324 -2.676,-6 -6,-6 h -72 z "/>
</g>
<g style="stroke:none" id="layer1">
<path style="fill:url(#linearGradient3948)" id="rect2419" d="m 12,6 c -3.324,0 -6,2.676 -6,6 v 56 c 0,3.324 2.676,6 6,6 h 12 l -3,16 23,-16 h 40 c 3.324,0 6,-2.676 6,-6 v -56 c 0,-3.324 -2.676,-6 -6,-6 h -72 z "/>
<rect width="84" x="-104" y="6" rx="6" height="84" ry="6" style="fill:url(#linearGradient3151)" id="rect3145"/>
<path style="opacity:.5;fill:url(#linearGradient3153)" id="path3147" d="m -98,6 c -3.324,0 -6,2.676 -6,6 v 2 68 2 c 0,0.334721 0.0413,0.6507 0.0937,0.96875 0.0487,0.295596 0.097,0.596915 0.1875,0.875 0.01,0.03038 0.0209,0.0636 0.0312,0.09375 0.0989,0.287771 0.23488,0.547452 0.375,0.8125 0.14459,0.273507 0.31562,0.535615 0.5,0.78125 0.18438,0.245635 0.37378,0.473472 0.59375,0.6875 0.43995,0.428056 0.94291,0.814526 1.5,1.09375 0.27854,0.139612 0.57347,0.246947 0.875,0.34375 -0.2562,-0.100222 -0.48671,-0.236272 -0.71875,-0.375 -0.007,-0.0044 -0.0239,0.0045 -0.0312,0 -0.0319,-0.0193 -0.0623,-0.04251 -0.0937,-0.0625 -0.1204,-0.0767 -0.23102,-0.163513 -0.34375,-0.25 -0.10617,-0.0808 -0.21328,-0.161112 -0.3125,-0.25 -0.17793,-0.161433 -0.34746,-0.345388 -0.5,-0.53125 -0.10758,-0.130255 -0.21839,-0.265285 -0.3125,-0.40625 -0.0251,-0.03838 -0.0384,-0.08587 -0.0625,-0.125 -0.0648,-0.103032 -0.13023,-0.204517 -0.1875,-0.3125 -0.10101,-0.194706 -0.20568,-0.415701 -0.28125,-0.625 -0.008,-0.02181 -0.0236,-0.04055 -0.0312,-0.0625 -0.0318,-0.09195 -0.0358,-0.186831 -0.0625,-0.28125 -0.0303,-0.106618 -0.0704,-0.203031 -0.0937,-0.3125 -0.07298,-0.341512 -0.1251,-0.698205 -0.1251,-1.0625 v -2 -68 -2 c 0,-2.78185 2.21815,-5 5,-5 h 2 68 2 c 2.78185,0 5,2.21815 5,5 v 2 68 2 c 0,0.364295 -0.05212,0.720988 -0.125,1.0625 -0.04415,0.206893 -0.08838,0.397658 -0.15625,0.59375 -0.0077,0.02195 -0.0233,0.04069 -0.03125,0.0625 -0.06274,0.173739 -0.138383,0.367449 -0.21875,0.53125 -0.04158,0.0828 -0.07904,0.169954 -0.125,0.25 -0.0546,0.09721 -0.126774,0.18835 -0.1875,0.28125 -0.09411,0.140965 -0.204921,0.275995 -0.3125,0.40625 -0.143174,0.17445 -0.303141,0.346998 -0.46875,0.5 -0.01117,0.0102 -0.01998,0.02115 -0.03125,0.03125 -0.138386,0.125556 -0.285091,0.234436 -0.4375,0.34375 -0.102571,0.07315 -0.204318,0.153364 -0.3125,0.21875 -0.0074,0.0045 -0.02384,-0.0044 -0.03125,0 -0.232039,0.138728 -0.462548,0.274778 -0.71875,0.375 0.301527,-0.0968 0.596455,-0.204138 0.875,-0.34375 0.55709,-0.279224 1.06005,-0.665694 1.5,-1.09375 0.219973,-0.214028 0.409366,-0.441865 0.59375,-0.6875 0.184384,-0.245635 0.355408,-0.507743 0.5,-0.78125 0.14012,-0.265048 0.276135,-0.524729 0.375,-0.8125 0.01041,-0.03078 0.02133,-0.06274 0.03125,-0.09375 0.09046,-0.278085 0.1388,-0.579404 0.1875,-0.875 0.0524,-0.31805 0.09375,-0.634029 0.09375,-0.96875 v -2 -68 -2 c 0,-3.324 -2.676,-6 -6,-6 h -72 z "/>
<path style="opacity:.2;fill:url(#radialGradient3155)" id="path3149" d="m -98,90 c -3.324,0 -6,-2.676 -6,-6 v -2 -68 -2 c 0,-0.334721 0.0413,-0.6507 0.0937,-0.96875 0.0487,-0.295596 0.097,-0.596915 0.1875,-0.875 0.01,-0.03038 0.0209,-0.0636 0.0312,-0.09375 0.0989,-0.287771 0.23488,-0.547452 0.375,-0.8125 0.14459,-0.273507 0.31562,-0.535615 0.5,-0.78125 0.18438,-0.245635 0.37378,-0.473472 0.59375,-0.6875 0.43995,-0.428056 0.94291,-0.814526 1.5,-1.09375 0.27854,-0.139612 0.57347,-0.246947 0.875,-0.34375 -0.2562,0.100222 -0.48671,0.236272 -0.71875,0.375 -0.007,0.0044 -0.0239,-0.0045 -0.0312,0 -0.0319,0.0193 -0.0623,0.04251 -0.0937,0.0625 -0.1204,0.0767 -0.23102,0.163513 -0.34375,0.25 -0.10617,0.0808 -0.21328,0.161112 -0.3125,0.25 -0.17793,0.161433 -0.34746,0.345388 -0.5,0.53125 -0.10758,0.130255 -0.21839,0.265285 -0.3125,0.40625 -0.0251,0.03838 -0.0384,0.08587 -0.0625,0.125 -0.0648,0.103032 -0.13023,0.204517 -0.1875,0.3125 -0.10101,0.194706 -0.20568,0.415701 -0.28125,0.625 -0.008,0.02181 -0.0236,0.04055 -0.0312,0.0625 -0.0318,0.09195 -0.0358,0.186831 -0.0625,0.28125 -0.0303,0.106618 -0.0704,0.203031 -0.0937,0.3125 -0.07298,0.341512 -0.1251,0.698205 -0.1251,1.0625 v 2 68 2 c 0,2.78185 2.21815,5 5,5 h 2 68 2 c 2.78185,0 5,-2.21815 5,-5 v -2 -68 -2 c 0,-0.364295 -0.05212,-0.720988 -0.125,-1.0625 -0.04415,-0.206893 -0.08838,-0.397658 -0.15625,-0.59375 -0.0077,-0.02195 -0.0233,-0.04069 -0.03125,-0.0625 -0.06274,-0.173739 -0.138383,-0.367449 -0.21875,-0.53125 -0.04158,-0.0828 -0.07904,-0.169954 -0.125,-0.25 -0.0546,-0.09721 -0.126774,-0.18835 -0.1875,-0.28125 -0.09411,-0.140965 -0.204921,-0.275995 -0.3125,-0.40625 -0.143174,-0.17445 -0.303141,-0.346998 -0.46875,-0.5 -0.01117,-0.0102 -0.01998,-0.02115 -0.03125,-0.03125 -0.138386,-0.125556 -0.285091,-0.234436 -0.4375,-0.34375 -0.102571,-0.07315 -0.204318,-0.153364 -0.3125,-0.21875 -0.0074,-0.0045 -0.02384,0.0044 -0.03125,0 -0.232039,-0.138728 -0.462548,-0.274778 -0.71875,-0.375 0.301527,0.0968 0.596455,0.204138 0.875,0.34375 0.55709,0.279224 1.06005,0.665694 1.5,1.09375 0.219973,0.214028 0.409366,0.441865 0.59375,0.6875 0.184384,0.245635 0.355408,0.507743 0.5,0.78125 0.14012,0.265048 0.276135,0.524729 0.375,0.8125 0.01041,0.03078 0.02133,0.06274 0.03125,0.09375 0.09046,0.278085 0.1388,0.579404 0.1875,0.875 0.0524,0.31805 0.09375,0.634029 0.09375,0.96875 v 2 68 2 c 0,3.324 -2.676,6 -6,6 h -72 z "/>
<path style="opacity:.4;fill:url(#linearGradient3967)" id="path3953" d="m 12,6 c -3.324,0 -6,2.676 -6,6 v 56 c 0,2.9085 2.04223,5.31735 4.78125,5.875 -2.20214,-0.53769 -3.8125,-2.49722 -3.8125,-4.875 v -56 c 0,-2.79739 2.23386,-5.03125 5.03125,-5.03125 h 72 c 2.79739,0 5.03125,2.23386 5.03125,5.03125 v 56 c 0,2.37778 -1.61037,4.33731 -3.8125,4.875 2.73902,-0.557648 4.78125,-2.9665 4.78125,-5.875 v -56 c 0,-3.324 -2.676,-6 -6,-6 h -72 z  m 12,68.0312 -3,15.9688 22.9688,-15.9688 a 0.981296,0.981296 0 0,0 -0.53125,0.15625 l -21.0312,14.625 2.5625,-13.625 a 0.981296,0.981296 0 0,0 -0.96875,-1.15625 z "/>
<path style="opacity:.2;fill:url(#radialGradient3982)" id="path3969" d="m 12,6 c -3.324,0 -6,2.676 -6,6 v 56 c 0,3.324 2.676,6 6,6 h 12 l -3,16 23,-16 h 40 c 3.324,0 6,-2.676 6,-6 v -56 c 0,-3.324 -2.676,-6 -6,-6 h -72 z  m 0,2 72,0 c 2.25147,0 4,1.74853 4,4 v 56 c 0,2.25147 -1.74853,4 -4,4 h -40 a 1.99857,1.99857 0 0,0 -1.15625,0.375 l -18.9688,13.1875 2.0938,-11.1875 a 1.99857,1.99857 0 0,0 -1.96875,-2.375 h -12 c -2.25147,0 -4,-1.74853 -4,-4 v -56 c 0,-2.25147 1.74853,-4 4,-4 z "/>
</g>
<g id="layer5">
<rect width="66" x="15" y="15" rx="12" height="66" ry="12" style="opacity:.1;fill:url(#linearGradient3613);filter:url(#filter4055);stroke:#fff;stroke-linecap:round;stroke-width:.58;clip-path:url(#clipPath3613)" id="rect3171" transform="matrix(1,0,0,0.74384496,0,3.8423256)"/>
</g>
<g id="layer4">
<g style="stroke:none">
<path style="opacity:.05;fill:url(#linearGradient4910)" id="path4908" d="m 33.2188,32.125 c 0.0051,-0.000846 -0.161232,0.0325 -0.15625,0.03125 0.0035,-0.000872 -0.05211,0.01912 -0.09375,0.03125 -0.01785,0.0052 -0.03271,0.03174 -0.03125,0.03125 -0.06021,0.01822 -3.44182,1.04722 -6.5,4.1875 -3.08605,3.1689 -5.87198,8.60008 -5.1875,16.8438 0.000941,0.01134 -0.000954,0.0199 0,0.03125 0.0025,0.03234 0.000269,0.06501 0,0.0625 -0.000403,-0.0038 0.03187,0.09749 0.03125,0.09375 -0.000624,-0.0037 0.000842,0.128698 0,0.125 -0.000842,-0.0037 0.03231,0.09739 0.03125,0.09375 a 1.00496,1.00496 0 0,0 0,0.03125 l .0312,.0938 .0312,.0938 a 1.00496,1.00496 0 0,0 0.03125,0.0625 c -0.0021,-0.0052 0.06499,0.129983 0.0625,0.125 -0.000953,-0.0019 0.01707,0.03701 0.03125,0.0625 0.01835,0.0367 0.0431,0.05837 0.0625,0.09375 0.518645,0.945856 1.39356,1.45278 2.125,1.65625 0.46618,0.129684 0.816106,0.08843 1.1875,0.09375 0.04201,0.66431 0.0063,1.33315 0.28125,2 l .0625,.125 c -0.000358,-0.000941 -0.004,0.02179 0,0.03125 0.01295,0.03076 0.03261,0.09673 0.03125,0.09375 -0.0018,-0.0039 0.06454,0.09751 0.0625,0.09375 -0.002,-0.0038 0.06478,0.128621 0.0625,0.125 -0.0023,-0.0036 0.06502,0.09721 0.0625,0.09375 -0.0025,-0.0035 0.09649,0.09704 0.09375,0.09375 -0.0027,-0.0033 0.06545,0.09685 0.0625,0.09375 -0.003,-0.0031 0.0969,0.09665 0.09375,0.09375 -0.0032,-0.0029 0.09709,0.06518 0.09375,0.0625 a 1.00496,1.00496 0 0,0 0.03125,0.03125 l .125,.0938 a 1.00496,1.00496 0 0,0 0.09375,0.0625 c -0.000839,-0.000466 0.02448,-0.0034 0.03125,0 0.04007,0.02441 0.08471,0.03862 0.125,0.0625 3.70724,2.19733 8.36371,2.20039 12.0312,1.84375 3.72919,-0.362638 6.65625,-1.21875 6.65625,-1.21875 l .2188,-.0625 c -0.0035,0.000977 0.09721,-0.03242 0.09375,-0.03125 -0.0035,0.0012 0.09713,-0.03262 0.09375,-0.03125 -0.0034,0.0014 0.09705,-0.03281 0.09375,-0.03125 -0.0033,0.0016 0.09696,-0.06424 0.09375,-0.0625 -0.0032,0.0017 0.09685,-0.06442 0.09375,-0.0625 -0.0031,0.0019 0.06549,-0.03334 0.0625,-0.03125 -0.003,0.0021 0.09662,-0.06476 0.09375,-0.0625 -0.0029,0.0023 0.06524,-0.06491 0.0625,-0.0625 -0.0027,0.0024 0.09634,-0.09631 0.09375,-0.09375 -0.0026,0.0026 0.06495,-0.06521 0.0625,-0.0625 -0.0024,0.0027 0.06479,-0.09659 0.0625,-0.09375 -0.0023,0.0028 0.06463,-0.06547 0.0625,-0.0625 -0.0021,0.003 0.06446,-0.09683 0.0625,-0.09375 -0.002,0.0031 0.06428,-0.09694 0.0625,-0.09375 -0.0018,0.0032 0.03285,-0.09703 0.03125,-0.09375 -0.000981,0.002 0.01855,-0.03441 0.03125,-0.0625 h 0.03125 c 0.0035,-0.0077 0.000325,-0.03203 0,-0.03125 l .0938,-.1875 a 1.00496,1.00496 0 0,0 0,-0.0625 l .0312,-.0312 a 1.00496,1.00496 0 0,0 0,-0.09375 l 6.0938,-15.5312 c -0.0022,0.004 0.04616,-0.0926 0.0625,-0.125 0.0034,-0.0067 0.000392,-0.03213 0,-0.03125 a 1.00496,1.00496 0 0,0 0.0625,-0.125 l .0938,-.3125 c -0.0011,0.0038 0.03214,-0.09762 0.03125,-0.09375 -0.000886,0.0039 0.000646,-0.128918 0,-0.125 -0.000646,0.0039 0.03165,-0.0977 0.03125,-0.09375 -0.000404,0.004 0.000161,-0.128968 0,-0.125 -0.000161,0.004 -8.3e-05,-0.12897 0,-0.125 8.3e-05,0.004 -0.000327,-0.09771 0,-0.09375 0.000327,0.004 -0.000569,-0.12893 0,-0.125 0.000569,0.0039 -0.03206,-0.09764 -0.03125,-0.09375 0.00081,0.0039 -0.0323,-0.12883 -0.03125,-0.125 0.001,0.0038 -0.03253,-0.09751 -0.03125,-0.09375 0.0013,0.0038 -0.03276,-0.09742 -0.03125,-0.09375 0.0015,0.0037 -0.06423,-0.128573 -0.0625,-0.125 0.0017,0.0036 -0.0332,-0.09721 -0.03125,-0.09375 0.0019,0.0035 -0.06466,-0.09708 -0.0625,-0.09375 0.0022,0.0033 -0.06486,-0.09694 -0.0625,-0.09375 0.0024,0.0032 -0.06505,-0.09679 -0.0625,-0.09375 a 1.00496,1.00496 0 0,0 -0.03125,0 l -.1875,-.2188 a 1.00496,1.00496 0 0,0 -0.03125,0 1.00496,1.00496 0 0,0 -0.1875,-0.1875 1.00496,1.00496 0 0,0 -0.09375,-0.0625 c -0.211953,-0.237999 -1.5568,-1.79739 -3.625,-3.5625 -1.11947,-0.955409 -2.38475,-1.90407 -3.6875,-2.65625 -1.27234,-0.734627 -2.68493,-1.36782 -4.28125,-1.34375 h -0.03125 -0.03125 l -6.5,-.2812 c 0.0017,3.2e-05 -0.04122,1.1e-05 -0.0625,0 h -0.03125 -0.03125 -0.03125 c 0.0025,0.000144 -0.03058,0.000947 -0.0625,0 -0.01596,-0.000474 -0.03249,0 -0.03125,0 0.0037,0 -0.128728,0.000216 -0.125,0 a 1.00496,1.00496 0 0,0 -0.09375,0 z "/>
<path style="opacity:.15;fill:url(#linearGradient4902)" id="path4900" d="m 33.375,33.125 a 0.8111,0.8111 0 0,0 -0.125,0.03125 c 0,0 -3.18994,0.955733 -6.09375,3.9375 -2.90563,2.98364 -5.57963,8.08795 -4.90625,16.0938 a 0.8111,0.8111 0 0,0 0.03125,0.1875 l .0312,.0938 .0312,.0938 a 0.8111,0.8111 0 0,0 0.0625,0.125 c 0.351305,0.702611 0.991805,1.05999 1.5625,1.21875 0.568181,0.158059 1.09653,0.145541 1.53125,0.125 0.114016,-0.0054 0.123181,-0.02187 0.21875,-0.03125 0.01086,0.925148 0.05857,1.82634 0.375,2.59375 l .0625,.1562 a 0.8111,0.8111 0 0,0 0.25,0.34375 l .125,.0938 a 0.8111,0.8111 0 0,0 0.0625,0.03125 c 3.39226,2.06659 7.91048,2.1021 11.5312,1.75 3.6275,-0.35275 6.46875,-1.1875 6.46875,-1.1875 l .2188,-.0625 a 0.8111,0.8111 0 0,0 0.53125,-0.46875 l .0938,-.2188 a 0.8111,0.8111 0 0,0 0,-0.03125 l 6.1875,-15.7812 a 0.8111,0.8111 0 0,0 0.03125,-0.0625 l .0938,-.3125 a 0.8111,0.8111 0 0,0 -0.15625,-0.75 l -.1875,-.2188 a 0.8111,0.8111 0 0,0 -0.03125,0 c 0,0 -1.65487,-1.87732 -3.8125,-3.71875 -1.08081,-0.922416 -2.29688,-1.81855 -3.53125,-2.53125 -1.20394,-0.695132 -2.47282,-1.23848 -3.78125,-1.21875 h -0.03125 -0.03125 l -6.5312,-.2812 a 0.8111,0.8111 0 0,0 -0.03125,0 h -0.0625 -0.09375 a 0.8111,0.8111 0 0,0 -0.09375,0 z "/>
<path style="opacity:.3;fill:url(#linearGradient4894)" id="path4571-7" d="m 33.4688,33.9375 c 0,0 -2.95818,0.884066 -5.71875,3.71875 -2.76057,2.83468 -5.34364,7.66798 -4.6875,15.4688 l .0312,.0938 .0312,.0938 c 0.224211,0.448422 0.642448,0.695648 1.0625,0.8125 0.420052,0.116852 0.869559,0.113203 1.28125,0.09375 0.544291,-0.02572 0.753732,-0.09643 1.03125,-0.15625 -0.03178,1.25882 0.0117,2.41347 0.34375,3.21875 l .0625,.1562 .125,.0938 c 3.11426,1.89723 7.45358,1.96987 11,1.625 3.54642,-0.344866 6.34375,-1.15625 6.34375,-1.15625 l .2188,-.0625 .0938,-.2188 6.1875,-15.7812 .0938,-.3125 -.1875,-.2188 c 0,0 -1.64026,-1.82444 -3.75,-3.625 -1.05487,-0.900279 -2.2351,-1.79255 -3.40625,-2.46875 -1.15005,-0.664016 -2.29438,-1.11717 -3.375,-1.09375 h -0.0625 l -6.5625,-.2812 h -0.0625 -0.09375 z "/>
<g id="g4640" transform="matrix(1.0145772,0,0,1.0145772,-0.67476771,-2.1349405)">
<g style="fill:#f9ac42">
<path style="opacity:.1" id="path4638" d="m 76.28125,33.5625 c 0.0032,-1.83e-4 -0.128207,0.03161 -0.125,0.03125 -0.007,-3.1e-5 -0.03211,4.3e-5 -0.03125,0 a 1.1088747,1.1088747 0 0 0 -0.1875,0 c 0.0059,-0.0014 -0.193261,0.06447 -0.1875,0.0625 0.0058,-0.002 -0.224281,0.09629 -0.21875,0.09375 0.0055,-0.0025 -0.161493,0.09684 -0.15625,0.09375 0.0052,-0.0031 -0.192401,0.09736 -0.1875,0.09375 0.0049,-0.0036 -0.160758,0.160341 -0.15625,0.15625 0.0045,-0.0041 -0.160318,0.129529 -0.15625,0.125 0.0041,-0.0045 -0.128586,0.19242 -0.125,0.1875 0.0028,-0.0038 -0.06316,0.07845 -0.09375,0.125 -0.0086,0.01309 -0.03192,0.0324 -0.03125,0.03125 -3.633905,5.602688 -8.84375,7.5 -8.84375,7.5 0.0057,-0.0021 -0.192998,0.06517 -0.1875,0.0625 0.0055,-0.0027 -0.192696,0.09697 -0.1875,0.09375 0.0052,-0.0032 -0.19234,0.128733 -0.1875,0.125 0.0048,-0.0037 -0.160683,0.160458 -0.15625,0.15625 0.0044,-0.0042 -0.128979,0.129639 -0.125,0.125 0.004,-0.0046 -0.128485,0.192522 -0.125,0.1875 0.0035,-0.005 -0.127953,0.161601 -0.125,0.15625 0.003,-0.0054 -0.09614,0.193125 -0.09375,0.1875 0.0024,-0.0056 -0.0643,0.22459 -0.0625,0.21875 0.0018,-0.0058 -0.0637,0.193494 -0.0625,0.1875 0.0012,-0.006 -0.03183,0.224835 -0.03125,0.21875 5.78e-4,-0.0061 4.7e-5,0.193612 0,0.1875 -4.7e-5,-0.0061 6.71e-4,0.224825 0,0.21875 -6.71e-4,-0.0061 0.03254,0.224725 0.03125,0.21875 -0.0013,-0.006 0.06439,0.193312 0.0625,0.1875 -0.0019,-0.0058 0.09623,0.193088 0.09375,0.1875 l -0.03125,0 0.84375,1.96875 c -0.0025,-0.0057 0.128083,0.192951 0.125,0.1875 -0.0031,-0.0055 0.09739,0.192598 0.09375,0.1875 -0.0036,-0.0051 0.129151,0.160939 0.125,0.15625 -0.0042,-0.0047 0.160869,0.160479 0.15625,0.15625 -0.0046,-0.0042 0.192536,0.159972 0.1875,0.15625 -0.005,-0.0037 0.161648,0.09692 0.15625,0.09375 -0.0054,-0.0032 0.193201,0.127591 0.1875,0.125 -0.0057,-0.0026 0.224691,0.06448 0.21875,0.0625 -0.0059,-0.002 0.193616,0.06385 0.1875,0.0625 -0.0061,-0.0013 0.224973,0.03195 0.21875,0.03125 -0.0062,-7e-4 0.225012,4.4e-5 0.21875,0 -0.0063,-4.4e-5 0.224982,-6.12e-4 0.21875,0 -0.0062,6.12e-4 0.193634,-0.03251 0.1875,-0.03125 -0.0061,0.0013 0.224718,-0.0644 0.21875,-0.0625 -0.006,0.0019 0.193237,-0.06501 0.1875,-0.0625 -0.0057,0.0025 0.224193,-0.09685 0.21875,-0.09375 0,0 2.341228,-1.348899 4.75,-3.40625 2.386881,-2.038654 5.157367,-4.887575 5.3125,-8.59375 4.45e-4,-0.01063 -4.02e-4,-0.02061 0,-0.03125 6.1e-4,-0.03051 0.03124,-0.09622 0.03125,-0.09375 1.9e-5,0.0032 -0.03144,-0.09697 -0.03125,-0.09375 1.93e-4,0.0032 -3.67e-4,-0.128206 0,-0.125 3.67e-4,0.0032 -5.4e-4,-0.09693 0,-0.09375 5.4e-4,0.0032 -0.03196,-0.128148 -0.03125,-0.125 7.11e-4,0.0031 -0.03213,-0.09685 -0.03125,-0.09375 8.8e-4,0.0031 -0.0323,-0.128053 -0.03125,-0.125 0.001,0.0031 -0.03246,-0.09674 -0.03125,-0.09375 0.0012,0.003 -0.06387,-0.09667 -0.0625,-0.09375 0.0014,0.0029 -0.03278,-0.09659 -0.03125,-0.09375 0.0015,0.0028 -0.06418,-0.09651 -0.0625,-0.09375 0.0017,0.0028 -0.06432,-0.09641 -0.0625,-0.09375 0.0018,0.0027 -0.06446,-0.09631 -0.0625,-0.09375 0.002,0.0026 -0.0646,-0.0962 -0.0625,-0.09375 0.0021,0.0025 -0.09598,-0.06483 -0.09375,-0.0625 0.0022,0.0023 -0.06485,-0.09596 -0.0625,-0.09375 0.0024,0.0022 -0.09622,-0.06458 -0.09375,-0.0625 0.0025,0.0021 -0.06508,-0.09569 -0.0625,-0.09375 0.0026,0.0019 -0.09643,-0.0643 -0.09375,-0.0625 0.0027,0.0018 -0.09652,-0.0329 -0.09375,-0.03125 0.0028,0.0017 -0.09661,-0.064 -0.09375,-0.0625 0.0029,0.0015 -0.127933,-0.06385 -0.125,-0.0625 0.0029,0.0013 -0.09675,-0.03243 -0.09375,-0.03125 0.003,0.0012 -0.09681,-0.03227 -0.09375,-0.03125 0.0031,0.001 -0.09686,-0.0321 -0.09375,-0.03125 0.0031,8.54e-4 -0.128154,-0.03193 -0.125,-0.03125 0.0032,6.84e-4 -0.09694,-0.03176 -0.09375,-0.03125 0.0032,5.13e-4 -0.128209,-3.4e-4 -0.125,0 0.0032,3.4e-4 -0.09697,-0.03142 -0.09375,-0.03125 0.0032,1.66e-4 -0.128227,8e-6 -0.125,0 0.0032,-8e-6 -0.09697,1.83e-4 -0.09375,0 z"/>
<path style="opacity:.3" id="path4634" d="m 76.2812,34.6875 a 0.929662,0.929662 0 0,0 -0.6875,0.4375 c -3.83924,5.95082 -9.4375,7.96875 -9.4375,7.96875 a 0.929662,0.929662 0 0,0 -0.53125,1.25 l .8438,1.9688 a 0.929662,0.929662 0 0,0 1.3125,0.4375 c 0,0 2.275,-1.30079 4.59375,-3.28125 2.31875,-1.98046 4.81817,-4.65018 4.9375,-7.8125 a 0.929662,0.929662 0 0,0 -1.03125,-0.96875 z "/>
<path id="path4620" d="m 76.3645,35.6155 c -4.01179,6.21828 -9.8991,8.34353 -9.8991,8.34353 l .8485,1.9798 c 0,0 8.85002,-5.00772 9.05061,-10.3233 z "/>
</g>
<path style="fill:#fcd298" id="path4630" d="m 73.4375,40.0938 c -2.72989,2.58165 -5.19459,3.77763 -6.15625,4.1875 l .3125,.75 c 0.659359,-0.395821 2.0684,-1.25579 3.78125,-2.71875 0.76129,-0.650223 1.40109,-1.44797 2.0625,-2.21875 z "/>
</g>
<path style="fill:#000080" id="path4326" d="m 116.0625,35 c -0.48077,-0.0204 -0.98285,0.003 -1.5,0.03125 -13.6401,-0.702064 -11.9375,21.1562 -11.9375,21.1562 0,0.702064 1.21875,0.6875 1.21875,0.6875 l .1875,-.1562 c -0.0168,1.96675 0.14488,3.77206 0.59375,5.09375 3.8112,4.81415 20.7732,2.59965 21.375,0.59375 0.3731,-0.932742 0.12836,-2.00595 0.0937,-2.15625 1.10756,-0.03352 2.19502,-0.324772 2.59375,-1.34375 0,0 2.279,-23.2739 -12.625,-23.9062 z "/>
</g>
<g id="g4607" transform="matrix(1.0145772,0,0,1.0145772,-0.67476771,-2.1349405)">
<path style="fill:url(#linearGradient4735);stroke:url(#linearGradient4737);stroke-width:.986" id="path4494" d="m 27.1749,53.8581 c 0,0 -2.70997,0.707079 -3.27563,-0.424247 -1.27274,-15.1315 9.8991,-18.384 9.8991,-18.384 l 6.5051,.2828 c 3.67681,-0.141416 10.0405,6.92937 10.0405,6.92937 l -6.0809,15.5557 c 0,0 -10.892,3.10613 -16.6871,-0.424247 -1.22661,-2.97474 1.27274,-13.5759 1.27274,-13.5759"/>
<g style="stroke:none;color:#000">
<path style="fill:url(#radialGradient4739)" id="path4571" d="m 27.1749,53.8581 c 0,0 -2.70997,0.707079 -3.27563,-0.424247 -1.27274,-15.1315 9.8991,-18.384 9.8991,-18.384 l 6.5051,.2828 c 3.67681,-0.141416 10.0405,6.92937 10.0405,6.92937 l -6.0809,15.5557 c 0,0 -10.892,3.10613 -16.6871,-0.424247 -1.22661,-2.97474 1.27274,-13.5759 1.27274,-13.5759"/>
<path style="opacity:.3;fill:url(#radialGradient4741)" id="path4551" d="m 26.3033,52.5854 -1.4142,-.1414 c -0.848494,-12.0203 8.34353,-16.2628 8.34353,-16.2628 2.12124,-0.848494 7.91928,0.282831 7.91928,0.282831 1.13133,0 6.36371,4.10106 6.36371,4.10106 l -1.9798,2.4041 c 0,0 -8.90919,-4.24247 -8.48494,13.2931 -3.81822,0.98991 -6.64654,-0.707078 -6.64654,-0.707078 -1.8384,-6.08087 0.282832,-13.0102 -1.27274,-13.1517 -2.40407,1.69699 -2.82831,10.1819 -2.82831,10.1819 z "/>
<path style="opacity:.3;fill:url(#radialGradient4743)" id="path4565" d="m 35.375,36.4375 c -0.808532,0.01273 -1.53555,0.120469 -1.9375,0.28125 -0.0573,0.02657 -2.19424,1.00016 -4.28125,3.4375 -2.05389,2.39867 -3.98529,6.19924 -3.71875,11.7812 l .375,.0312 c 0.02641,-0.46083 0.08152,-1.87322 0.4375,-3.9375 0.20481,-1.18768 0.511536,-2.41493 0.90625,-3.5 0.394714,-1.08507 0.880617,-2.04624 1.65625,-2.59375 a 0.563221,0.563221 0 0,1 0.375,-0.09375 c 0.406795,0.03698 0.731615,0.361932 0.875,0.6875 0.143385,0.325568 0.191999,0.679587 0.21875,1.09375 0.0535,0.828327 -0.01074,1.90554 -0.0625,3.15625 -0.100292,2.42325 -0.14461,5.4936 0.65625,8.34375 0.24315,0.137111 2.4454,1.3088 5.65625,0.625 -0.05386,-4.12382 0.381244,-7.08662 1.15625,-9.15625 0.810669,-2.16486 1.9683,-3.4286 3.1875,-4.0625 2.06705,-1.07473 3.85159,-0.424054 4.4375,-0.1875 l 1.4062,-1.6875 c -0.339689,-0.262523 -1.08752,-0.8463 -2.28125,-1.6875 -0.719132,-0.506761 -1.46613,-1.00482 -2.09375,-1.375 -0.313811,-0.185092 -0.592164,-0.339492 -0.8125,-0.4375 -0.220336,-0.09801 -0.403404,-0.125 -0.375,-0.125 a 0.563221,0.563221 0 0,1 -0.09375,0 c 0,0 -3.26366,-0.63192 -5.6875,-0.59375 z "/>
<path style="opacity:.3;fill:url(#radialGradient4745)" id="path4569" d="m 35.4062,37.7812 c -0.697926,0.01099 -1.27263,0.144846 -1.40625,0.1875 -0.0011,0.000501 -0.06007,-0.0011 -0.0625,0 -0.12032,0.05632 -1.81002,0.910835 -3.625,2.96875 0.463991,0.310557 0.843272,0.706635 1,1.0625 0.260401,0.591264 0.280831,1.04094 0.3125,1.53125 0.06334,0.980617 -0.01123,2.07363 -0.0625,3.3125 -0.09254,2.23601 -0.02075,4.8897 0.5625,7.34375 0.590518,0.254038 1.50661,0.499243 3.09375,0.375 0.04962,-3.56393 0.420264,-6.41987 1.1875,-8.46875 0.898654,-2.39982 2.3023,-3.94855 3.84375,-4.75 1.54145,-0.801451 3.07793,-0.8333 4.21875,-0.65625 -0.370111,-0.273145 -0.388262,-0.294796 -0.8125,-0.59375 -0.702224,-0.494846 -1.42781,-1.00626 -2,-1.34375 -0.286094,-0.168744 -0.542428,-0.27922 -0.6875,-0.34375 -0.145072,-0.06453 -0.249025,-0.03125 0.1875,-0.03125 a 1.91679,1.91679 0 0,1 -0.375,-0.03125 c 0,0 -3.19572,-0.596819 -5.375,-0.5625 z "/>
<path style="fill:url(#radialGradient4747)" id="path4492" d="m 43.9803,28.4033 a 7.2122,7.2122 0 1,1 -3.7e-05,-0.02301" transform="matrix(1.0197252,0,0,1.0197252,-0.58299605,-0.48912965)"/>
<path style="opacity:.2;fill:#2b6128" id="path4597" d="m 33.8125,35.0625 c 0,0 -0.914232,0.262271 -2.15625,0.96875 1.41391,1.1147 3.23417,1.8125 5.25,1.8125 2.13751,0 4.08793,-0.76254 5.53125,-2 -0.761488,-0.341958 -1.48002,-0.524807 -2.125,-0.5 l -6.5,-.2812 z "/>
<path style="fill:url(#linearGradient4749)" id="path4514" d="m 36.9062,21.125 c -4.06176,0 -7.34375,3.28199 -7.34375,7.34375 0,4.06176 3.28199,7.375 7.34375,7.375 4.06176,0 7.34375,-3.31324 7.34375,-7.375 v -0.03125 c -0.012931,-4.05258 -3.29115,-7.3125 -7.34375,-7.3125 z  m .0312,.9062 c 3.5488,0 6.39491,2.85387 6.40625,6.40625 v 0.03125 c 0,3.5605 -2.85064,6.4375 -6.40625,6.4375 -3.55561,0 -6.4375,-2.88189 -6.4375,-6.4375 0,-3.55561 2.88189,-6.4375 6.4375,-6.4375 z "/>
<g style="fill:#336c2e">
<path style="opacity:.2" id="path4589" d="m 26.1823,53.9267 c 0,0 0.706266,-9.73638 2.82506,-10.8967 1.36209,0.40358 -0.958503,10.4931 0.807162,15.2856 l -2.4719,-1.1603 -.2018,-3.2286 h -0.958504 z "/>
<path style="opacity:.2" id="path4591" d="m 26.4345,53.9267 c 0,0 1.16029,-9.48415 2.57283,-10.8967 1.10985,0.353132 -1.61432,10.4931 0.151343,15.2856 l -1.8161,-1.1603 -.2018,-3.2286 h -0.706266 z "/>
</g>
<path style="opacity:.4;fill:#2b6128" id="path4593" d="m 33.8125,35.0625 c 0,0 -0.479145,0.160568 -1.09375,0.4375 1.1914,0.831268 2.62459,1.34375 4.1875,1.34375 1.60555,0 3.10315,-0.533151 4.3125,-1.40625 -0.316496,-0.0705 -0.618356,-0.104823 -0.90625,-0.09375 l -6.5,-.2812 z "/>
</g>
</g>
<g style="stroke:none">
<path style="opacity:.15;fill:url(#linearGradient4827)" id="path4825" d="m 56.1875,32.9375 c -0.516742,-0.01822 -1.01961,0.0054 -1.5,0.03125 -0.01,0.000539 -0.02126,-0.000541 -0.03125,0 0.07719,-0.004 0.05959,-0.007 -0.0625,0 -3.76192,-0.147159 -6.68673,1.31207 -8.6875,3.53125 -2.0203,2.24084 -3.1915,5.15869 -3.875,8.03125 -1.3467,5.65983 -0.916388,11.2158 -0.90625,11.3438 9e-05,0.0011 -2.1e-05,0.06223 0,0.0625 0.02125,0.631292 0.3435,1.11774 0.71875,1.4375 0.292113,0.248918 0.563151,0.357786 0.8125,0.4375 0.04339,1.50705 0.170772,3.00455 0.59375,4.25 a 0.928231,0.928231 0 0,0 0.03125,0.09375 l .0312,.0625 a 0.928231,0.928231 0 0,0 0.1875,0.21875 0.928231,0.928231 0 0,0 0,0.03125 l .0625,.0625 .0312,-.0312 c 1.31402,1.59556 3.36745,2.43678 5.65625,2.90625 2.33243,0.478422 4.95126,0.606431 7.46875,0.5 2.51366,-0.106269 4.93073,-0.425304 6.8125,-0.875 0.933393,-0.223056 1.72879,-0.469804 2.40625,-0.78125 0.482949,-0.222024 0.956518,-0.597449 1.3125,-1.09375 0.0037,-0.0052 0.02754,0.0053 0.03125,0 a 0.928231,0.928231 0 0,0 0.28125,-0.375 0.928231,0.928231 0 0,0 0.03125,-0.0625 0.928231,0.928231 0 0,0 0.03125,-0.03125 c 7.9e-05,-0.000221 -0.0048,-0.04323 0,-0.0625 0.06325,-0.238894 0.03239,-0.462961 0.03125,-0.46875 0.08864,-0.376902 0.09234,-0.655083 0.09375,-0.96875 0.260913,-0.04333 0.482529,-0.05482 0.78125,-0.1875 0.730504,-0.324452 1.42155,-0.919669 1.78125,-1.78125 0.0095,-0.02267 0.02224,-0.03946 0.03125,-0.0625 a 0.928231,0.928231 0 0,0 0.09375,-0.375 0.928231,0.928231 0 0,0 0,-0.03125 v -0.0625 c 0.01497,-0.145771 0.606752,-6.06291 -0.75,-12.25 -0.687053,-3.13312 -1.88063,-6.34928 -4,-8.90625 -2.12668,-2.56579 -5.27933,-4.41731 -9.4375,-4.59375 -0.09521,-0.004 -0.111725,-0.0017 -0.0625,0 z "/>
<path style="opacity:.05;fill:url(#linearGradient4841)" id="path4833" d="m 56.0625,31.9375 c -2.75093,-0.04703 -5.63101,0.113112 -8.04329,1.59302 -4.41114,2.53718 -6.43635,7.63576 -7.3017,12.4169 -0.596532,3.52554 -0.900141,7.15767 -0.483901,10.7159 0.474215,1.40889 2.02962,1.81623 1.63944,3.50793 0.181541,0.969121 0.193683,2.03924 0.75195,2.79753 0.41042,0.516824 1.11653,0.799429 1.59182,1.33083 3.22758,2.39006 7.45098,2.59673 11.3186,2.63917 3.71351,-0.119273 7.54303,-0.399718 10.9941,-1.87774 0.742914,-0.579893 1.39548,-1.04587 1.90123,-1.76848 0.07198,-1.18336 0.671048,-1.54241 1.66871,-2.13365 0.95174,-0.824349 1.45656,-1.96027 1.39743,-3.21118 0.299615,-6.0107 -0.263104,-12.2579 -2.89503,-17.7461 -2.00961,-4.28794 -6.14916,-7.57811 -10.9013,-8.13793 -0.542883,-0.06924 -1.09023,-0.128364 -1.63812,-0.126143 z "/>
<path style="opacity:.3;fill:url(#linearGradient4819)" id="path4331-5" d="m 56.1562,33.875 c -0.477605,-0.01684 -0.952562,0.005 -1.4375,0.03125 -0.02108,0.0011 -0.04142,-0.0012 -0.0625,0 -3.55877,-0.16524 -6.20538,1.1589 -8.0625,3.21875 -1.86862,2.07261 -2.99552,4.84814 -3.65625,7.625 -1.31555,5.52892 -0.878896,11.0753 -0.875,11.125 0,0.01049 -0.000351,0.02082 0,0.03125 0.01045,0.310486 0.180927,0.584625 0.375,0.75 0.200594,0.170932 0.427439,0.257958 0.625,0.3125 0.263414,0.07272 0.363422,0.05722 0.5,0.0625 0.02273,1.75362 0.131252,3.44895 0.5625,4.71875 l .0312,.0625 .0625,.0625 c 1.0903,1.37722 2.99335,2.16853 5.21875,2.625 2.2254,0.456469 4.78885,0.572799 7.25,0.46875 2.46115,-0.104049 4.82394,-0.413343 6.625,-0.84375 0.900531,-0.215203 1.66528,-0.449938 2.25,-0.71875 0.553209,-0.254324 0.969246,-0.539149 1.15625,-1.03125 h 0.03125 c 0.0024,-0.0067 -0.0023,-0.02442 0,-0.03125 0.0041,-0.01071 -0.004,-0.02054 0,-0.03125 0.290208,-0.774149 0.257492,-1.44291 0.1875,-1.90625 0.420689,-0.0467 0.830386,-0.07751 1.21875,-0.25 0.556734,-0.247272 1.05991,-0.698244 1.3125,-1.34375 l .0312,-.0625 v -0.0625 c 0,0 0.614672,-5.98179 -0.71875,-12.0625 -0.666711,-3.04035 -1.82799,-6.10573 -3.8125,-8.5 -1.98451,-2.39427 -4.83937,-4.08407 -8.75,-4.25 -0.02074,-0.00088 -0.04174,0.000732 -0.0625,0 z "/>
</g>
<g id="g4474" transform="matrix(1.0145772,0,0,1.0145772,-0.67476771,-2.1349405)">
<g style="stroke:none">
<path style="fill:url(#linearGradient4717)" id="path4331" d="m 56.0625,35 c -0.48077,-0.0204 -0.98285,0.003 -1.5,0.03125 -13.6401,-0.702064 -11.9375,21.1562 -11.9375,21.1562 0,0.702064 1.21875,0.6875 1.21875,0.6875 l .1875,-.1562 c -0.0168,1.96675 0.14488,3.77206 0.59375,5.09375 3.8112,4.81415 20.7732,2.59965 21.375,0.59375 0.3731,-0.932742 0.12836,-2.00595 0.0937,-2.15625 1.10756,-0.03352 2.19502,-0.324772 2.59375,-1.34375 0,0 2.279,-23.2739 -12.625,-23.9062 z "/>
<g style="fill:#1a4a7f">
<path style="opacity:.15" id="path4464" d="m 65.994,62.6018 c 0.401179,-0.300885 0.40118,-2.50737 0.40118,-2.50737 l -3.1091,-.4012 c 0,0 -1.19998,-11.3461 -3.00885,-15.646 -3.12977,-3.12977 1.93121,13.9623 -3.42496,20.6735 l 9.1418,-2.119 z "/>
<path style="opacity:.2" id="path4458" d="m 65.994,62.6018 c 0.401179,-0.300885 0.40118,-2.50737 0.40118,-2.50737 l -3.1091,-.4012 c 0,0 -0.702064,-11.1327 -3.00885,-15.646 0,0 1.50442,16.9498 -1.50442,20.4601 l 7.2212,-1.9056 z "/>
</g>
</g>
<g style="stroke-width:.986;fill:none">
<path style="stroke:url(#linearGradient4719)" id="path4291" d="m 43.8288,56.885 c 0,0 -1.20354,0 -1.20354,-0.702064 0,0 -1.70501,-21.8643 11.9351,-21.1622 16.5486,-0.902654 14.1416,23.8702 14.1416,23.8702 -0.902654,2.30678 -5.41592,1.00295 -5.41592,1.00295 -0.20059,-10.8318 -3.41002,-16.3481 -3.41002,-16.3481"/>
<path style="stroke:url(#linearGradient4721)" id="path4293" d="m 45.7344,43.3452 c 0,0 -2.90855,13.1386 -1.10324,18.4542 3.8112,4.81415 20.761,2.60767 21.3628,0.601769 0.401179,-1.00295 0.100295,-2.20649 0.100295,-2.20649"/>
</g>
<g style="stroke:none;color:#000">
<path style="opacity:.3;fill:url(#radialGradient4723)" id="path4371" d="m 51.4513,37.0266 c -4.81415,0.601769 -3.61061,24.9734 -3.61061,24.9734 4.01179,2.10619 5.71681,0.300885 5.71681,0.300885 1.80531,-1.60472 1.60472,-23.3687 5.11504,-21.4631 4.01179,-0.401179 6.11798,17.5516 6.11798,17.5516 2.30678,0.902654 2.40708,-2.20649 2.40708,-2.20649 0,0 1.00295,-14.3422 -6.51917,-18.4542 -1.80531,-1.20354 -5.91739,-1.30383 -9.22712,-0.702065 z "/>
<path style="opacity:.3;fill:url(#radialGradient4725)" id="path4403" d="m 56.5625,37.4688 c -1.58802,-0.09552 -3.40391,0.05355 -5,0.34375 a 0.781778,0.781778 0 0,1 -0.03125,0 c -0.277615,0.0347 -0.607571,0.263223 -0.96875,0.875 -0.361179,0.611777 -0.697996,1.54735 -0.96875,2.6875 -0.541508,2.2803 -0.821627,5.34795 -0.96875,8.40625 -0.273727,5.69008 -0.06644,10.8965 -0.03125,11.6562 1.64006,0.77521 2.79128,0.885134 3.46875,0.75 0.367918,-0.07339 0.596427,-0.187988 0.75,-0.28125 0.153573,-0.09326 0.1875,-0.125 0.1875,-0.125 a 0.781778,0.781778 0 0,1 0.03125,-0.0625 c -0.10486,0.09321 0.211731,-0.333759 0.375,-1.03125 0.163269,-0.697491 0.293708,-1.67541 0.4375,-2.78125 0.287583,-2.21168 0.565181,-5.00391 0.875,-7.71875 0.309819,-2.71484 0.657048,-5.32629 1.1875,-7.21875 0.265226,-0.94623 0.565811,-1.73321 1.03125,-2.3125 0.23272,-0.289645 0.508149,-0.541804 0.90625,-0.65625 0.254929,-0.07329 0.521762,0.03006 0.78125,0.09375 v -0.03125 c 0.79167,-0.07917 1.49103,0.321211 2.03125,0.875 0.540217,0.553789 0.973389,1.29693 1.375,2.15625 0.803221,1.71864 1.45134,3.94312 1.96875,6.1875 0.966739,4.19342 1.40457,7.86982 1.46875,8.40625 0.08846,-0.0042 0.261063,0.05634 0.3125,0.03125 0.118172,-0.05764 0.265659,-0.207202 0.375,-0.4375 0.218681,-0.460596 0.25,-1.125 0.25,-1.125 a 0.781778,0.781778 0 0,1 0,-0.03125 c 0,0 0.261106,-3.50097 -0.40625,-7.5 -0.667356,-3.99903 -2.27549,-8.35352 -5.6875,-10.2188 a 0.781778,0.781778 0 0,1 -0.0625,-0.03125 c -0.681238,-0.454159 -2.09452,-0.810432 -3.6875,-0.90625 z "/>
<path style="opacity:.3;fill:url(#radialGradient4727)" id="path4407" d="m 56.5312,38.3438 c -1.49983,-0.09022 -3.28172,0.03417 -4.8125,0.3125 a 1.65041,1.65041 0 0,1 -0.0625,0 c 0.08255,-0.01032 -0.0561,-0.01848 -0.34375,0.46875 -0.287646,0.487225 -0.615951,1.34664 -0.875,2.4375 -0.518097,2.18172 -0.822974,5.21969 -0.96875,8.25 -0.265939,5.52817 -0.01053,10.1061 0.03125,11.0312 1.14902,0.446369 1.96143,0.551243 2.375,0.46875 0.211808,-0.04225 0.319474,-0.07881 0.40625,-0.125 0.06118,-0.122906 0.205809,-0.396463 0.28125,-0.71875 0.150882,-0.644573 0.295523,-1.56436 0.4375,-2.65625 0.283955,-2.18377 0.532353,-5.02133 0.84375,-7.75 0.311397,-2.72867 0.658881,-5.34634 1.21875,-7.34375 0.279935,-0.998706 0.57631,-1.83306 1.1875,-2.59375 0.305595,-0.380346 0.74776,-0.788431 1.375,-0.96875 0.3084,-0.08866 0.58812,0.08295 0.90625,0.125 v -0.09375 c 1.1141,-0.11141 2.0994,0.489304 2.75,1.15625 0.650601,0.666946 1.10526,1.46352 1.53125,2.375 0.851976,1.82296 1.50669,4.09962 2.03125,6.375 0.446865,1.93836 0.399737,2.28936 0.65625,3.875 -0.04522,-1.2342 -0.108686,-2.59165 -0.375,-4.1875 -0.648046,-3.88332 -2.19456,-7.97177 -5.21875,-9.625 a 1.65041,1.65041 0 0,1 -0.125,-0.0625 c -0.435226,-0.290151 -1.73971,-0.659155 -3.25,-0.75 z "/>
<g style="fill:#1a4a7f">
<path style="opacity:.2" id="path4450" d="m 56.0625,35 c -0.48077,-0.0204 -0.98285,0.003 -1.5,0.03125 -2.31016,-0.118905 -4.17473,0.415428 -5.6875,1.375 1.65994,1.07103 3.67759,1.71875 5.875,1.71875 2.30644,0 4.45345,-0.705425 6.15625,-1.875 -1.37238,-0.708315 -2.96347,-1.17022 -4.84375,-1.25 z "/>
<path style="opacity:.4" id="path4289-2" d="m 56.0625,35 c -0.48077,-0.0204 -0.98285,0.003 -1.5,0.03125 -1.74653,-0.08989 -3.25203,0.19338 -4.53125,0.75 1.38148,0.841117 2.98309,1.34375 4.71875,1.34375 1.80056,0 3.492,-0.537454 4.90625,-1.4375 -1.07196,-0.3859 -2.26084,-0.630943 -3.59375,-0.6875 z "/>
</g>
<g id="g4319" transform="translate(-10,0)">
<path style="fill:url(#radialGradient4729)" id="path4289" d="m 63.8878,26.596 a 9.52801,9.52801 0 1,1 -4.9e-05,-0.0304" transform="matrix(0.95789474,0,0,0.95789474,12.690013,1.5210098)"/>
<path style="opacity:.2;fill:url(#linearGradient4731)" id="path4311" d="m 64.7812,17.875 c -5.04061,0 -9.125,4.08439 -9.125,9.125 0,5.04061 4.08439,9.125 9.125,9.125 5.04061,0 9.09375,-4.08439 9.09375,-9.125 v -0.03125 c -0.016048,-5.02921 -4.06451,-9.09375 -9.09375,-9.09375 z  m 0,1.9062 c 3.99924,0 7.17472,3.18092 7.1875,7.1875 v 0.03125 c 0,4.01581 -3.17924,7.21875 -7.1875,7.21875 -4.00826,0 -7.21875,-3.21049 -7.21875,-7.21875 0,-4.00826 3.21049,-7.21875 7.21875,-7.21875 z "/>
<path style="fill:url(#linearGradient4733)" id="path4305" d="m 64.75,17.875 c -5.04061,0 -9.125,4.08439 -9.125,9.125 0,5.04061 4.08439,9.125 9.125,9.125 5.04061,0 9.125,-4.08439 9.125,-9.125 v -0.03125 c -0.016048,-5.02921 -4.09576,-9.09375 -9.125,-9.09375 z  m .0312,.9688 c 4.489,0 8.07941,3.63216 8.09375,8.125 v 0.03125 c 0,4.5031 -3.59461,8.125 -8.09375,8.125 -4.49914,0 -8.15625,-3.62586 -8.15625,-8.125 0,-4.49914 3.65711,-8.15625 8.15625,-8.15625 z "/>
</g>
<g style="fill:#1a4a7f">
<path style="opacity:.3" id="path4460" d="m 65.994,62.6018 c 0.401179,-0.300885 0.40118,-2.50737 0.40118,-2.50737 l -3.1091,-.4012 c 0,0 0.578296,-7.6473 -1.72848,-12.1606 0,0 1.36216,13.5355 -1.64669,17.0459 l 6.0831,-1.9767 z "/>
<path style="opacity:.3" id="path4462" d="m 65.994,62.6018 c 0.401179,-0.300885 0.40118,-2.50737 0.40118,-2.50737 l -3.1091,-.4012 c 0,0 0.578296,-7.6473 -1.72848,-12.1606 0,0 3.14044,15.6695 0.131591,16.5479 l 4.3049,-1.4788 z "/>
</g>
</g>
</g>
<g style="clip-path:url(#clipPath4713);stroke:none" id="g4656" transform="matrix(1.0145772,0,0,1.0145772,-0.67476771,-2.1349405)">
<g style="fill:#f9ac42">
<path style="opacity:.1" id="path4652" d="m 32.375,38.125 c -4.35424,-0.01804 -9.34592,0.0013 -12.7781,3.09397 -3.22025,3.237 -3.2486,9.2735 0.118189,12.425 1.45945,1.17726 3.6201,2.02963 5.47239,1.38725 1.22194,-0.711723 0.978731,-2.29489 1.09375,-3.5 -0.103377,-1.09688 -1.24133,-1.73079 -2.27032,-1.62662 -2.21329,-0.323656 -2.50389,-3.31387 -0.898919,-4.55161 2.58595,-1.68773 5.89203,-1.36111 8.83719,-1.19828 6.5727,0.660489 11.6703,5.29479 17.4858,7.93465 8.57142,4.17717 18.2933,5.35998 27.7213,5.09812 1.58792,-0.178559 2.04884,-2.54036 0.65625,-3.3125 -1.42733,-0.621117 -3.09588,-0.495825 -4.59948,-0.912901 -9.4843,-1.68111 -18.6729,-4.95818 -27.0324,-9.75233 -4.2991,-2.35802 -8.74752,-5.02315 -13.8056,-5.08477 z "/>
<path style="opacity:.3" id="path4648" d="m 32.3438,39.0312 c -5.24824,-0.123557 -8.72777,0.51063 -11,1.9375 -2.27223,1.42687 -3.1613,3.69667 -3.21875,6.15625 -0.0833,3.56601 1.46823,5.58735 3.0625,6.46875 1.59427,0.8814 3.1875,0.75 3.1875,0.75 a 0.908299,0.908299 0 0,0 0.84375,-0.8125 l .1562,-1.6875 a 0.908299,0.908299 0 0,0 -1.03125,-1 c -0.588397,0.08406 -1.59034,-0.264589 -2.28125,-1 -0.690914,-0.735411 -1.08131,-1.72283 -0.8125,-2.84375 0.310308,-1.29399 0.825066,-2.20841 2.15625,-2.90625 1.33118,-0.697843 3.62824,-1.12891 7.40625,-0.9375 6.67077,0.334894 10.5112,3.59704 16.625,6.90625 6.11379,3.30921 14.3451,6.50117 29.3438,6.25 a 0.908403,0.908403 0 0,0 0.125,-1.8125 c -14.0151,-2.11814 -22.3878,-5.84546 -28.625,-9.125 -6.23717,-3.27954 -10.4019,-6.21343 -15.9375,-6.34375 z "/>
</g>
<path style="fill:url(#linearGradient4918)" id="path4622" d="m 24.3235,53.4339 c 0,0 -5.45771,0.349763 -5.30267,-6.2875 0.106253,-4.54873 2.97466,-7.46028 13.2965,-7.21728 10.4446,0.245892 16.2324,11.2167 44.4714,15.4846 -29.7328,0.497918 -32.0613,-12.4539 -45.9601,-13.1517 -7.72291,-0.391286 -9.77182,1.63571 -10.4648,4.5253 -0.692946,2.88959 2.10938,5.23407 4.10106,4.94955 l -.1414,1.697 z "/>
<path style="fill:#fde3c0;filter:url(#filter4920)" id="path4626" d="m 32.2812,40.6562 c -5.0903,-0.119839 -8.25219,0.581948 -10.0625,1.71875 -1.30112,0.817051 -1.82745,1.94897 -2.125,3.25 0.470455,-1.17169 1.1677,-2.28519 2.53125,-3 1.75439,-0.919703 4.32109,-1.29281 8.25,-1.09375 7.17466,0.360191 11.3807,3.86615 17.3438,7.09375 4.51937,2.44619 10.1341,4.76914 19,5.65625 -8.81775,-2.15047 -14.9137,-4.95868 -19.6875,-7.46875 -6.31776,-3.32191 -10.281,-6.03927 -15.25,-6.15625 z  m -12.2812,8.8125 c 0.382168,1.47063 1.17463,2.24847 1.96875,2.6875 0.664801,0.367538 1.24333,0.455674 1.6875,0.5 l .0312,-.3125 c -1.02986,-0.125038 -2.03575,-0.548227 -2.8125,-1.375 -0.387036,-0.411962 -0.637817,-0.955644 -0.875,-1.5 z "/>
</g>
</g>
</svg>
