<svg width="96" version="1.0" xmlns="http://www.w3.org/2000/svg" height="96" xmlns:xlink="http://www.w3.org/1999/xlink">
<defs id="defs2410">
<clipPath id="clipPath3613">
<rect width="84" x="6" y="6" rx="6" height="84" ry="6" style="fill:#fff;stroke:none" id="rect3615"/>
</clipPath>
<filter style="color-interpolation-filters:sRGB" id="filter3174">
<feGaussianBlur stdDeviation="1.71" id="feGaussianBlur3176"/>
</filter>
<filter width="1.3839999" x="-0.192" y="-0.192" height="1.3839999" style="color-interpolation-filters:sRGB" id="filter3794">
<feGaussianBlur stdDeviation="5.28" id="feGaussianBlur3796"/>
</filter>
<linearGradient gradientTransform="matrix(1.0238095,0,0,1.0119048,-1.1428571,-98.071429)" id="linearGradient3725" xlink:href="#ButtonShadow-0" y1="6.1317081" x1="32.251034" y2="90.238609" x2="32.251034" gradientUnits="userSpaceOnUse"/>
<linearGradient gradientTransform="matrix(1.0238095,0,0,1.0119048,-1.1428571,-98.071429)" id="linearGradient3772" xlink:href="#ButtonShadow-0" y1="6.1317081" x1="32.251034" y2="90.238609" x2="32.251034" gradientUnits="userSpaceOnUse"/>
<linearGradient gradientTransform="translate(0,-97)" id="linearGradient3721" xlink:href="#ButtonShadow-0" y1="6.1317081" x1="32.251034" y2="90.238609" x2="32.251034" gradientUnits="userSpaceOnUse"/>
<linearGradient gradientTransform="matrix(1.0238095,0,0,1.0119048,-1.1428571,-98.071429)" id="linearGradient3780" xlink:href="#ButtonShadow-0" y1="6.1317081" x1="32.251034" y2="90.238609" x2="32.251034" gradientUnits="userSpaceOnUse"/>
<linearGradient id="linearGradient4598">
<stop offset="0" style="stop-color:#e6eef7" id="stop4600"/>
<stop offset="1" style="stop-color:#8ab0d8" id="stop4602"/>
</linearGradient>
<linearGradient gradientTransform="matrix(1.0238095,0,0,1.0119048,-1.1428571,-98.071429)" id="linearGradient3026" xlink:href="#ButtonShadow-0" y1="6.1317081" x1="32.251034" y2="90.238609" x2="32.251034" gradientUnits="userSpaceOnUse"/>
<linearGradient id="linearGradient4590">
<stop offset="0" style="stop-color:#c00" id="stop4592"/>
<stop offset="1" style="stop-color:#ffa2a2" id="stop4594"/>
</linearGradient>
<linearGradient gradientTransform="matrix(1.0058652,0,0,0.994169,100,0)" id="ButtonShadow-0" y1="92.539597" x1="45.447727" y2="7.0165396" x2="45.447727" gradientUnits="userSpaceOnUse">
<stop offset="0" id="stop3750-8"/>
<stop offset="1" style="stop-opacity:.588" id="stop3752-5"/>
</linearGradient>
<linearGradient gradientTransform="scale(1.0058652,0.994169)" id="ButtonShadow" y1="92.539597" x1="45.447727" y2="7.0165396" x2="45.447727" gradientUnits="userSpaceOnUse">
<stop offset="0" id="stop3750"/>
<stop offset="1" style="stop-opacity:.588" id="stop3752"/>
</linearGradient>
<linearGradient id="linearGradient3737">
<stop offset="0" style="stop-color:#fff" id="stop3739"/>
<stop offset="1" style="stop-color:#fff;stop-opacity:0" id="stop3741"/>
</linearGradient>
<linearGradient gradientTransform="matrix(2.2852239,0,0,2.3028703,-8.4202215,-7.4370825)" id="linearGradient3799" xlink:href="#linearGradient4590" y1="24.109001" x1="24.689142" y2="24.109001" x2="53.568085" gradientUnits="userSpaceOnUse"/>
<linearGradient id="linearGradient3188" xlink:href="#linearGradient3737" y1="6" x1="36.357143" y2="63.893143" x2="36.357143" gradientUnits="userSpaceOnUse"/>
<linearGradient id="linearGradient3613" xlink:href="#linearGradient3737" y1="20.220806" x1="48" y2="138.66119" x2="48" gradientUnits="userSpaceOnUse"/>
<linearGradient gradientTransform="translate(0,-96)" id="linearGradient3617" xlink:href="#linearGradient4598" y1="90" x1="48" y2="5.9877172" x2="48" gradientUnits="userSpaceOnUse"/>
<radialGradient fx="48" fy="90.171875" cx="48" cy="90.171875" gradientTransform="matrix(1.1573129,0,0,0.99590774,-7.5510206,0.19713193)" r="42" id="radialGradient3619" xlink:href="#linearGradient3737" gradientUnits="userSpaceOnUse"/>
</defs>
<g style="display:none" id="layer2">
<rect width="86" x="5" y="7" rx="6" height="85" ry="6" style="opacity:.9;fill:url(#ButtonShadow);filter:url(#filter3174);stroke:none" id="rect3745"/>
</g>
<g style="stroke:none" id="layer3">
<path style="opacity:.08;fill:url(#linearGradient3026)" id="path3786" d="m 12,-95.0312 c -5.51109,0 -10.0312,4.52016 -10.0312,10.0312 v 71 c 0,5.51109 4.52016,10.0312 10.0312,10.0312 h 72 c 5.51109,0 10.0312,-4.52016 10.0312,-10.0312 v -71 c 0,-5.51109 -4.52016,-10.0312 -10.0312,-10.0312 h -72 z " transform="scale(1,-1)"/>
<path style="opacity:.1;fill:url(#linearGradient3780)" id="path3778" d="m 12,-94.0312 c -4.97163,0 -9.03125,4.05962 -9.03125,9.03125 v 71 c 0,4.97163 4.05962,9.03125 9.03125,9.03125 h 72 c 4.97163,0 9.03125,-4.05962 9.03125,-9.03125 v -71 c 0,-4.97163 -4.05962,-9.03125 -9.03125,-9.03125 h -72 z " transform="scale(1,-1)"/>
<path style="opacity:.2;fill:url(#linearGradient3772)" id="path3770" d="m 12,-93 c -4.40913,0 -8,3.59087 -8,8 v 71 c 0,4.40913 3.59087,8 8,8 h 72 c 4.40913,0 8,-3.59087 8,-8 v -71 c 0,-4.40913 -3.59087,-8 -8,-8 h -72 z " transform="scale(1,-1)"/>
<rect width="86" x="5" y="-92" rx="7" height="85" ry="7" style="opacity:.3;fill:url(#linearGradient3725)" id="rect3723" transform="scale(1,-1)"/>
<rect width="84" x="6" y="-91" rx="6" height="84" ry="6" style="opacity:.45;fill:url(#linearGradient3721)" id="rect3716" transform="scale(1,-1)"/>
</g>
<g style="stroke:none" id="layer1">
<rect width="84" x="6" y="-90" rx="6" height="84" ry="6" style="fill:url(#linearGradient3617)" id="rect2419" transform="scale(1,-1)"/>
<path style="opacity:.5;fill:url(#linearGradient3188)" id="rect3728" d="m 12,6 c -3.324,0 -6,2.676 -6,6 v 2 68 2 c 0,0.334721 0.04135,0.6507 0.09375,0.96875 0.0487,0.295596 0.09704,0.596915 0.1875,0.875 0.00988,0.03038 0.020892,0.0636 0.03125,0.09375 0.098865,0.287771 0.23488,0.547452 0.375,0.8125 0.144592,0.273507 0.315616,0.535615 0.5,0.78125 0.184384,0.245635 0.373776,0.473472 0.59375,0.6875 0.439947,0.428056 0.94291,0.814526 1.5,1.09375 0.278545,0.139612 0.573473,0.246947 0.875,0.34375 -0.256202,-0.100222 -0.486711,-0.236272 -0.71875,-0.375 -0.00741,-0.0044 -0.023866,0.0045 -0.03125,0 -0.031933,-0.0193 -0.062293,-0.04251 -0.09375,-0.0625 -0.120395,-0.0767 -0.231023,-0.163513 -0.34375,-0.25 -0.106173,-0.0808 -0.213281,-0.161112 -0.3125,-0.25 -0.17793,-0.161433 -0.34746,-0.345388 -0.5,-0.53125 -0.107579,-0.130255 -0.218394,-0.265285 -0.3125,-0.40625 -0.025089,-0.03838 -0.038446,-0.08587 -0.0625,-0.125 -0.064763,-0.103032 -0.130228,-0.204517 -0.1875,-0.3125 -0.101008,-0.194706 -0.205675,-0.415701 -0.28125,-0.625 -0.00796,-0.02181 -0.023589,-0.04055 -0.03125,-0.0625 -0.0318251,-0.09195 -0.0358045,-0.186831 -0.0625,-0.28125 -0.0303323,-0.106618 -0.0703894,-0.203031 -0.09375,-0.3125 -0.0728786,-0.341512 -0.125,-0.698205 -0.125,-1.0625 v -2 -68 -2 c 0,-2.78185 2.21815,-5 5,-5 h 2 68 2 c 2.78185,0 5,2.21815 5,5 v 2 68 2 c 0,0.364295 -0.05212,0.720988 -0.125,1.0625 -0.04415,0.206893 -0.08838,0.397658 -0.15625,0.59375 -0.0077,0.02195 -0.0233,0.04069 -0.03125,0.0625 -0.06274,0.173739 -0.138383,0.367449 -0.21875,0.53125 -0.04158,0.0828 -0.07904,0.169954 -0.125,0.25 -0.0546,0.09721 -0.126774,0.18835 -0.1875,0.28125 -0.09411,0.140965 -0.204921,0.275995 -0.3125,0.40625 -0.143174,0.17445 -0.303141,0.346998 -0.46875,0.5 -0.01117,0.0102 -0.01998,0.02115 -0.03125,0.03125 -0.138386,0.125556 -0.285091,0.234436 -0.4375,0.34375 -0.102571,0.07315 -0.204318,0.153364 -0.3125,0.21875 -0.0074,0.0045 -0.02384,-0.0044 -0.03125,0 -0.232039,0.138728 -0.462548,0.274778 -0.71875,0.375 0.301527,-0.0968 0.596455,-0.204138 0.875,-0.34375 0.55709,-0.279224 1.06005,-0.665694 1.5,-1.09375 0.219973,-0.214028 0.409366,-0.441865 0.59375,-0.6875 0.184384,-0.245635 0.355408,-0.507743 0.5,-0.78125 0.14012,-0.265048 0.276135,-0.524729 0.375,-0.8125 0.01041,-0.03078 0.02133,-0.06274 0.03125,-0.09375 0.09046,-0.278085 0.1388,-0.579404 0.1875,-0.875 0.0524,-0.31805 0.09375,-0.634029 0.09375,-0.96875 v -2 -68 -2 c 0,-3.324 -2.676,-6 -6,-6 h -72 z "/>
<path style="opacity:.2;fill:url(#radialGradient3619)" id="path3615" d="M 12,90 C 8.676,90 6,87.324 6,84 L 6,82 6,14 6,12 c 0,-0.334721 0.04135,-0.6507 0.09375,-0.96875 0.0487,-0.295596 0.09704,-0.596915 0.1875,-0.875 C 6.29113,10.12587 6.302142,10.09265 6.3125,10.0625 6.411365,9.774729 6.5473802,9.515048 6.6875,9.25 6.8320918,8.976493 7.0031161,8.714385 7.1875,8.46875 7.3718839,8.223115 7.5612765,7.995278 7.78125,7.78125 8.221197,7.353194 8.72416,6.966724 9.28125,6.6875 9.559795,6.547888 9.8547231,6.440553 10.15625,6.34375 9.9000482,6.443972 9.6695391,6.580022 9.4375,6.71875 c -0.00741,0.0044 -0.023866,-0.0045 -0.03125,0 -0.031933,0.0193 -0.062293,0.04251 -0.09375,0.0625 -0.120395,0.0767 -0.2310226,0.163513 -0.34375,0.25 -0.1061728,0.0808 -0.2132809,0.161112 -0.3125,0.25 C 8.4783201,7.442683 8.3087904,7.626638 8.15625,7.8125 8.0486711,7.942755 7.9378561,8.077785 7.84375,8.21875 7.818661,8.25713 7.805304,8.30462 7.78125,8.34375 7.716487,8.446782 7.6510225,8.548267 7.59375,8.65625 7.4927417,8.850956 7.3880752,9.071951 7.3125,9.28125 7.30454,9.30306 7.288911,9.3218 7.28125,9.34375 7.2494249,9.4357 7.2454455,9.530581 7.21875,9.625 7.1884177,9.731618 7.1483606,9.828031 7.125,9.9375 7.0521214,10.279012 7,10.635705 7,11 l 0,2 0,68 0,2 c 0,2.781848 2.2181517,5 5,5 l 2,0 68,0 2,0 c 2.781848,0 5,-2.218152 5,-5 l 0,-2 0,-68 0,-2 C 89,10.635705 88.94788,10.279012 88.875,9.9375 88.83085,9.730607 88.78662,9.539842 88.71875,9.34375 88.71105,9.3218 88.69545,9.30306 88.6875,9.28125 88.62476,9.107511 88.549117,8.913801 88.46875,8.75 88.42717,8.6672 88.38971,8.580046 88.34375,8.5 88.28915,8.40279 88.216976,8.31165 88.15625,8.21875 88.06214,8.077785 87.951329,7.942755 87.84375,7.8125 87.700576,7.63805 87.540609,7.465502 87.375,7.3125 87.36383,7.3023 87.35502,7.29135 87.34375,7.28125 87.205364,7.155694 87.058659,7.046814 86.90625,6.9375 86.803679,6.86435 86.701932,6.784136 86.59375,6.71875 c -0.0074,-0.0045 -0.02384,0.0044 -0.03125,0 -0.232039,-0.138728 -0.462548,-0.274778 -0.71875,-0.375 0.301527,0.0968 0.596455,0.204138 0.875,0.34375 0.55709,0.279224 1.060053,0.665694 1.5,1.09375 0.219973,0.214028 0.409366,0.441865 0.59375,0.6875 0.184384,0.245635 0.355408,0.507743 0.5,0.78125 0.14012,0.265048 0.276135,0.524729 0.375,0.8125 0.01041,0.03078 0.02133,0.06274 0.03125,0.09375 0.09046,0.278085 0.1388,0.579404 0.1875,0.875 C 89.95865,11.3493 90,11.665279 90,12 l 0,2 0,68 0,2 c 0,3.324 -2.676,6 -6,6 l -72,0 z"/>
</g>
<g id="layer5">
<rect width="66" x="15" y="15" rx="12" height="66" ry="12" style="opacity:.1;fill:url(#linearGradient3613);filter:url(#filter3794);stroke:#fff;stroke-linecap:round;stroke-width:.5;clip-path:url(#clipPath3613)" id="rect3171"/>
</g>
<g style="stroke:none;color:#000" id="layer4">
<path style="fill:url(#linearGradient3799)" id="path3792" d="m 6,78 c 10.603,-9.33908 56.3348,-51.9142 44.8136,-52.8535 -5.97762,-0.487342 -19.9799,3.39346 -26.2268,15.175 -11.6967,22.0597 14.6722,25.2949 25.6207,23.9593 17.9387,-2.81624 39.7925,-14.5556 39.7925,-14.5556 l -.0128,11.979 c -38.4474,10.9574 -62.8799,9.50056 -76.2782,-3.61937 -13.0347,-12.7639 18.098,-41.5716 43.3255,-38.9211 26.0474,2.73664 -51.0345,58.8362 -51.0345,58.8362 z "/>
<path style="opacity:.2" id="path3801" d="m 54.6562,18 c -20.8372,-0.596015 -44.5564,18.7404 -44,32.25 0.625865,-13.9703 25.5148,-33.2854 46.375,-31.0938 3.52145,0.369977 5.14687,1.73108 5.34375,3.78125 0.278255,-2.61565 -1.27384,-4.35365 -5.34375,-4.78125 -0.788361,-0.082828 -1.57663,-0.133414 -2.375,-0.15625 z  m -2.0312,8.4062 c -0.83991,5.41636 -14.1132,19.5355 -26.5938,31.7812 -2.47398,-2.00486 -4.1396,-4.67141 -4.34375,-8.1875 -0.07612,4.01173 1.64141,6.99759 4.34375,9.1875 13.324,-13.0734 27.5539,-28.3157 26.5938,-32.7812 z  m 37.375,22.3125 c 0,0 -21.8426,11.7463 -39.7812,14.5625 -5.4503,0.664844 -14.724,0.171497 -21.2188,-3.1875 -0.254771,0.209358 -0.496486,0.386299 -0.75,0.59375 6.51261,3.7306 16.3039,4.28476 21.9688,3.59375 17.9386,-2.81624 39.7812,-14.5625 39.7812,-14.5625 v -1 z  m -69.25,14.625 c -6.2791,6.00877 -11.8449,11.0975 -14.75,13.6562 0,0 2.47572,-1.79892 6.28125,-4.6875 2.69632,-2.48549 5.80193,-5.40531 9.15625,-8.625 -0.225779,-0.12049 -0.465692,-0.219196 -0.6875,-0.34375 z "/>
<path style="opacity:.6;fill:#fff" id="path3810" d="m 62.375,23.9375 c -0.848737,7.97829 -18.7266,24.1495 -34.125,36.75 0.246638,0.141281 0.494355,0.274035 0.75,0.40625 15.9036,-13.0688 34.0883,-29.7285 33.375,-37.1562 z  m -12.7812,1.1562 c -6.48662,0.06795 -19.1435,4.17354 -25,15.2188 -2.23414,4.21354 -3.07691,7.74819 -2.90625,10.6875 0.05183,-2.73124 0.918795,-5.9392 2.90625,-9.6875 6.24692,-11.7816 20.2411,-15.6436 26.2188,-15.1562 1.06565,0.08688 1.65339,0.509945 1.8125,1.25 0.205371,-1.32438 -0.339751,-2.12993 -1.8125,-2.25 -0.373601,-0.03046 -0.786309,-0.06703 -1.21875,-0.0625 z  m -38.9375,26.2188 c -0.114922,2.90051 0.822155,5.58746 3.0625,7.78125 2.07733,2.03416 4.41233,3.77937 7.03125,5.25 0.227295,-0.21751 0.458364,-0.436311 0.6875,-0.65625 -2.89159,-1.54314 -5.46549,-3.38731 -7.71875,-5.59375 -1.97974,-1.9386 -2.94505,-4.26887 -3.0625,-6.78125 z  m 79.3438,10.4062 c -30.5518,8.70718 -52.2457,9.53136 -66.5938,2.9375 -4.28267,3.41855 -8.11559,6.37196 -11.125,8.65625 -2.57611,2.37468 -4.81045,4.39203 -6.28125,5.6875 0,0 7.70797,-5.6023 17.4062,-13.3438 14.348,6.59386 36.042,5.76968 66.5938,-2.9375 v -1 z "/>
<g style="fill:#500">
<path style="opacity:.2" id="path3828" d="m 52.3125,19 c -24.1791,0.977389 -50.8265,27.1151 -38.5938,39.0938 2.25326,2.20644 4.82716,4.05061 7.71875,5.59375 -6.5591,6.29584 -12.4273,11.6611 -15.4375,14.3125 0,0 7.70797,-5.6023 17.4062,-13.3438 14.348,6.59386 36.042,5.76968 66.5938,-2.9375 v -1.84375 l -2.4062,.4375 c -0.0099,0.0027 -0.02137,-0.0027 -0.03125,0 -29.3458,8.13141 -49.9948,8.5906 -63.3125,2.4375 a 1.9744,1.9744 0 0,0 -1.0625,-0.15625 1.9744,1.9744 0 0,0 -0.78125,-0.78125 c -2.76364,-1.4822 -5.25905,-3.11422 -7.3125,-5.125 -2.54326,-2.49041 -3.01722,-5.40454 -2,-9.0625 1.01722,-3.65796 3.75509,-7.87961 7.65625,-11.7812 7.80232,-7.80328 20.1914,-14.3587 31.5938,-14.8438 0.766337,-0.0326 1.50716,-0.05145 2.25,-0.03125 0.742841,0.0202 1.4877,0.07944 2.21875,0.15625 1.80766,0.189919 2.79318,0.651775 3.1875,1.03125 0.394319,0.379475 0.516337,0.718722 0.40625,1.625 -0.220174,1.81256 -2.15873,5.30282 -5.40625,9.21875 -4.09323,4.9357 -10.1792,10.636 -16.5938,16.3125 3.87409,-4.07423 7.44124,-8.02248 10.2188,-11.5 2.64237,-3.30833 4.61272,-6.10715 5.53125,-8.5625 0.459264,-1.22768 0.754777,-2.46688 0.21875,-3.8125 -0.536027,-1.34562 -2.04864,-2.13932 -3.40625,-2.25 -3.53413,-0.28813 -8.67981,0.640124 -14,3.15625 -5.32019,2.51613 -10.7575,6.68031 -14.125,13.0312 -2.57058,4.84806 -3.46594,9.03496 -2.96875,12.625 0.497185,3.59004 2.43591,6.45297 4.96875,8.53125 a 1.9744,1.9744 0 0,0 1.53125,0.40625 1.9744,1.9744 0 0,0 0.96875,1.40625 c 7.16719,4.10706 17.05,4.6473 23.125,3.90625 a 1.9744,1.9744 0 0,0 0.0625,-0.03125 c 16.459,-2.58394 33.4178,-11.2255 37.4688,-13.3438 v -0.03125 h 0.03125 l 1.9688,-1.0625 v -2.0625 c 0,0 -21.8426,11.7463 -39.7812,14.5625 -5.66484,0.691013 -15.4561,0.136853 -21.9688,-3.59375 20.4467,-16.7316 45.2653,-39.7994 28.7812,-41.5312 -0.788361,-0.08283 -1.57663,-0.133414 -2.375,-0.15625 -0.773417,-0.02212 -1.56378,-0.03153 -2.34375,0 z  m -2.7188,6.0938 c 0.432441,-0.0045 0.845149,0.03204 1.21875,0.0625 7.49589,0.611129 -9.24907,18.7913 -24.7812,34.0312 -4.54213,-3.68084 -6.34419,-9.62108 -1.4375,-18.875 5.85649,-11.0452 18.5134,-15.1508 25,-15.2188 z "/>
<path style="opacity:.4" id="path3819" d="m 54.6562,19 c -20.8372,-0.596015 -44.5564,18.7404 -44,32.25 0.625865,-13.9703 25.5148,-33.2854 46.375,-31.0938 3.52145,0.369977 5.14687,1.73108 5.34375,3.78125 0.278255,-2.61565 -1.27384,-4.35365 -5.34375,-4.78125 -0.788361,-0.082828 -1.57663,-0.133414 -2.375,-0.15625 z  m -2.0312,8.4062 c -0.83991,5.41636 -14.1132,19.5355 -26.5938,31.7812 -2.47398,-2.00486 -4.1396,-4.67141 -4.34375,-8.1875 -0.07612,4.01173 1.64141,6.99759 4.34375,9.1875 13.324,-13.0734 27.5539,-28.3157 26.5938,-32.7812 z  m 37.375,22.3125 c 0,0 -21.8426,11.7463 -39.7812,14.5625 -5.4503,0.664844 -14.724,0.171497 -21.2188,-3.1875 -0.254771,0.209358 -0.496486,0.386299 -0.75,0.59375 6.51261,3.7306 16.3039,4.28476 21.9688,3.59375 17.9386,-2.81624 39.7812,-14.5625 39.7812,-14.5625 v -1 z  m -69.25,14.625 c -6.2791,6.00877 -11.8449,11.0975 -14.75,13.6562 0,0 2.47572,-1.79892 6.28125,-4.6875 2.69632,-2.48549 5.80193,-5.40531 9.15625,-8.625 -0.225779,-0.12049 -0.465692,-0.219196 -0.6875,-0.34375 z "/>
</g>
</g>
</svg>
