<svg width="96" version="1.0" xmlns="http://www.w3.org/2000/svg" height="96" xmlns:xlink="http://www.w3.org/1999/xlink">
<defs id="defs2410">
<clipPath id="clipPath2880">
<path style="fill:#fff;stroke:none" id="path2882" d="m 12,6 c -3.1577,0 -5.7192,2.40872 -5.96875,5.5 2.4694,0.017094 4.46875,2.02659 4.46875,4.5 0,2.484 -2.016,4.5 -4.5,4.5 v 7 c 2.484,0 4.5,2.016 4.5,4.5 0,2.484 -2.016,4.5 -4.5,4.5 v 7 c 2.484,0 4.5,2.016 4.5,4.5 0,2.484 -2.016,4.5 -4.5,4.5 v 7 c 2.484,0 4.5,2.016 4.5,4.5 0,2.484 -2.016,4.5 -4.5,4.5 v 7 c 2.484,-4e-06 4.5,2.016 4.5,4.5 0,2.4734 -1.99935,4.48291 -4.46875,4.5 0.249548,3.09128 2.81105,5.5 5.96875,5.5 0,-2.484 2.016,-4.5 4.5,-4.5 2.484,0 4.5,2.016 4.5,4.5 h 7 c 0,-2.484 2.016,-4.5 4.5,-4.5 2.484,0 4.5,2.016 4.5,4.5 h 7 c 0,-2.484 2.016,-4.5 4.5,-4.5 2.484,0 4.5,2.016 4.5,4.5 h 7 c 0,-2.484 2.016,-4.5 4.5,-4.5 2.484,0 4.5,2.016 4.5,4.5 h 7 c -4e-06,-2.484 2.016,-4.5 4.5,-4.5 2.45222,0 4.44932,1.9661 4.5,4.40625 2.68854,-0.445117 4.746,-2.64698 4.96875,-5.40625 -2.4694,-0.017097 -4.46875,-2.02659 -4.46875,-4.5 0,-2.484 2.016,-4.5 4.5,-4.5 v -7 c -2.484,1e-06 -4.5,-2.016 -4.5,-4.5 0,-2.484 2.016,-4.5 4.5,-4.5 v -7 c -2.484,1e-06 -4.5,-2.016 -4.5,-4.5 0,-2.484 2.016,-4.5 4.5,-4.5 v -7 c -2.484,1e-06 -4.5,-2.016 -4.5,-4.5 0,-2.484 2.016,-4.5 4.5,-4.5 v -7 c -2.484,1e-06 -4.5,-2.016 -4.5,-4.5 0,-2.47341 1.99935,-4.48291 4.46875,-4.5 -0.222746,-2.75927 -2.28021,-4.96113 -4.96875,-5.40625 -0.050679,2.44015 -2.04778,4.40625 -4.5,4.40625 -2.484,0 -4.5,-2.016 -4.5,-4.5 h -7 c 1e-06,2.484 -2.016,4.5 -4.5,4.5 -2.484,0 -4.5,-2.016 -4.5,-4.5 h -7 c 1e-06,2.484 -2.016,4.5 -4.5,4.5 -2.484,0 -4.5,-2.016 -4.5,-4.5 h -7 c 1e-06,2.484 -2.016,4.5 -4.5,4.5 -2.484,0 -4.5,-2.016 -4.5,-4.5 h -7 c 1e-06,2.484 -2.016,4.5 -4.5,4.5 -2.484,0 -4.5,-2.016 -4.5,-4.5 z "/>
</clipPath>
<filter style="color-interpolation-filters:sRGB" id="filter3174">
<feGaussianBlur stdDeviation="1.71" id="feGaussianBlur3176"/>
</filter>
<filter width="1.3839999" x="-0.192" y="-0.192" height="1.3839999" style="color-interpolation-filters:sRGB" id="filter3794">
<feGaussianBlur stdDeviation="5.28" id="feGaussianBlur3796"/>
</filter>
<linearGradient gradientTransform="matrix(1.0238095,0,0,1.0119048,-1.142857,-0.08333333)" id="linearGradient3682" xlink:href="#ButtonShadow" y1="91.15094" x1="40.716122" y2="7.2913489" x2="40.716122" gradientUnits="userSpaceOnUse"/>
<linearGradient id="linearGradient3643" xlink:href="#ButtonShadow" y1="91.15094" x1="40.716122" y2="7.2913489" x2="40.716122" gradientUnits="userSpaceOnUse"/>
<linearGradient gradientTransform="matrix(1.0238095,0,0,1.0119048,-1.142857,-0.08333333)" id="linearGradient3652" xlink:href="#ButtonShadow" y1="91.15094" x1="40.716122" y2="7.2913489" x2="40.716122" gradientUnits="userSpaceOnUse"/>
<linearGradient gradientTransform="matrix(1.0238095,0,0,1.0119048,-1.142857,-0.08333333)" id="linearGradient3660" xlink:href="#ButtonShadow" y1="91.15094" x1="40.716122" y2="7.2913489" x2="40.716122" gradientUnits="userSpaceOnUse"/>
<linearGradient gradientTransform="matrix(1.0238095,0,0,1.0119048,-1.142857,-0.08333333)" id="linearGradient3674" xlink:href="#ButtonShadow" y1="91.15094" x1="40.716122" y2="7.2913489" x2="40.716122" gradientUnits="userSpaceOnUse"/>
<linearGradient id="linearGradient2885" xlink:href="#linearGradient3737-0" y1="20.220806" x1="48" y2="138.66119" x2="48" gradientUnits="userSpaceOnUse"/>
<linearGradient id="ButtonColor" y1="122" x1="58.650177" y2="5.4252338" x2="58.650177" gradientUnits="userSpaceOnUse">
<stop offset="0" style="stop-color:#a00000" id="stop3189"/>
<stop offset="1" style="stop-color:#ff0505" id="stop3191"/>
</linearGradient>
<linearGradient gradientTransform="scale(1.0058652,0.994169)" id="ButtonShadow" y1="92.539597" x1="45.447727" y2="7.0165396" x2="45.447727" gradientUnits="userSpaceOnUse">
<stop offset="0" id="stop3750"/>
<stop offset="1" style="stop-opacity:.588" id="stop3752"/>
</linearGradient>
<linearGradient id="linearGradient3737-0">
<stop offset="0" style="stop-color:#fdff98" id="stop3739-3"/>
<stop offset="1" style="stop-color:#fff;stop-opacity:0" id="stop3741-0"/>
</linearGradient>
<linearGradient id="linearGradient3737">
<stop offset="0" style="stop-color:#fff" id="stop3739"/>
<stop offset="1" style="stop-color:#fff;stop-opacity:0" id="stop3741"/>
</linearGradient>
<linearGradient id="linearGradient3434" xlink:href="#linearGradient3737" y1="6" x1="31.714285" y2="74.09301" x2="31.714285" gradientUnits="userSpaceOnUse"/>
<linearGradient id="linearGradient3441" xlink:href="#ButtonColor" y1="90" x1="48" y2="5.9877172" x2="48" gradientUnits="userSpaceOnUse"/>
<radialGradient fx="47.967342" fy="89.688721" cx="47.967342" cy="89.688721" gradientTransform="matrix(1.3341109,0,0,0.95758929,-16.026413,2.1112584)" r="42" id="radialGradient3684" xlink:href="#linearGradient3737" gradientUnits="userSpaceOnUse"/>
</defs>
<g style="display:none" id="layer2">
<path style="opacity:.9;fill:url(#ButtonShadow);filter:url(#filter3174);stroke:none" id="rect3745" d="m 11,7 c -2.88409,0 -5.26001,2.01429 -5.84375,4.71875 2.50855,0.0336 4.53125,2.07727 4.53125,4.59375 0,2.53742 -2.05633,4.59375 -4.59375,4.59375 -0.031404,0 -0.062496,0.000628 -0.09375,0 v 7.15625 c 0.031254,-0.000628 0.062346,0 0.09375,0 2.53742,0 4.59375,2.05633 4.59375,4.59375 0,2.53742 -2.05633,4.59375 -4.59375,4.59375 -0.031404,0 -0.062496,0.000628 -0.09375,0 v 7.15625 c 0.031254,-0.000628 0.062346,0 0.09375,0 2.53742,0 4.59375,2.05633 4.59375,4.59375 0,2.53742 -2.05633,4.59375 -4.59375,4.59375 -0.031404,0 -0.062496,0.000628 -0.09375,0 v 7.15625 c 0.031254,-0.000628 0.062346,0 0.09375,0 2.53742,0 4.59375,2.05633 4.59375,4.59375 0,2.53742 -2.05633,4.59375 -4.59375,4.59375 -0.031404,0 -0.062496,0.000628 -0.09375,0 v 7.15625 c 0.031254,-0.000628 0.062346,0 0.09375,0 2.53742,-4e-06 4.59375,2.05633 4.59375,4.59375 0,2.53742 -2.05633,4.59375 -4.59375,4.59375 -0.031404,0 -0.062496,0.000628 -0.09375,0 0.144386,3.19385 2.76925,5.71875 6,5.71875 h 0.21875 c -0.000628,-0.03125 0,-0.06235 0,-0.09375 0,-2.53742 2.05633,-4.59375 4.59375,-4.59375 2.53742,0 4.59375,2.05633 4.59375,4.59375 0,0.0314 0.000628,0.0625 0,0.09375 h 7.15625 c -0.000628,-0.03125 0,-0.06235 0,-0.09375 0,-2.53742 2.05633,-4.59375 4.59375,-4.59375 2.53742,0 4.59375,2.05633 4.59375,4.59375 0,0.0314 0.000628,0.0625 0,0.09375 h 7.15625 c -0.000628,-0.03125 0,-0.06235 0,-0.09375 0,-2.53742 2.05633,-4.59375 4.59375,-4.59375 2.53742,0 4.59375,2.05633 4.59375,4.59375 0,0.0314 0.000628,0.0625 0,0.09375 h 7.15625 c -0.000628,-0.03125 0,-0.06235 0,-0.09375 0,-2.53742 2.05633,-4.59375 4.59375,-4.59375 2.53742,0 4.59375,2.05633 4.59375,4.59375 0,0.0314 0.000628,0.0625 0,0.09375 h 7.15625 c -0.000628,-0.03125 0,-0.06235 0,-0.09375 -5e-06,-2.53742 2.05633,-4.59375 4.59375,-4.59375 2.53742,0 4.59375,2.05633 4.59375,4.59375 0,0.01047 7e-05,0.0208 0,0.03125 2.86517,-0.366463 5.08611,-2.72217 5.21875,-5.65625 -0.03125,0.000628 -0.06235,0 -0.09375,0 -2.53742,-3e-06 -4.59375,-2.05633 -4.59375,-4.59375 0,-2.53742 2.05633,-4.59375 4.59375,-4.59375 0.0314,0 0.0625,-0.000628 0.09375,0 v -7.15625 c -0.03125,0.000628 -0.06235,0 -0.09375,0 -2.53742,1e-06 -4.59375,-2.05633 -4.59375,-4.59375 0,-2.53742 2.05633,-4.59375 4.59375,-4.59375 0.0314,0 0.0625,-0.000628 0.09375,0 v -7.15625 c -0.03125,0.000628 -0.06235,0 -0.09375,0 -2.53742,1e-06 -4.59375,-2.05633 -4.59375,-4.59375 0,-2.53742 2.05633,-4.59375 4.59375,-4.59375 0.0314,0 0.0625,-0.000628 0.09375,0 v -7.15625 c -0.03125,0.000628 -0.06235,0 -0.09375,0 -2.53742,1e-06 -4.59375,-2.05633 -4.59375,-4.59375 0,-2.53742 2.05633,-4.59375 4.59375,-4.59375 0.0314,0 0.0625,-0.000628 0.09375,0 v -7.15625 c -0.03125,0.000628 -0.06235,0 -0.09375,0 -2.53742,1e-06 -4.59375,-2.05633 -4.59375,-4.59375 0,-2.51648 2.02269,-4.56015 4.53125,-4.59375 -0.537373,-2.48964 -2.58028,-4.40058 -5.15625,-4.6875 -0.428865,2.09405 -2.27975,3.65625 -4.5,3.65625 -2.23071,0 -4.08264,-1.5787 -4.5,-3.6875 h -7.34375 c -0.417358,2.1088 -2.26929,3.6875 -4.5,3.6875 -2.23071,0 -4.08264,-1.5787 -4.5,-3.6875 h -7.34375 c -0.417359,2.1088 -2.26929,3.6875 -4.5,3.6875 -2.23071,0 -4.08264,-1.5787 -4.5,-3.6875 h -7.34375 c -0.417359,2.1088 -2.26929,3.6875 -4.5,3.6875 -2.23071,0 -4.08264,-1.5787 -4.5,-3.6875 h -7.34375 c -0.417359,2.1088 -2.26929,3.6875 -4.5,3.6875 -2.23071,0 -4.08264,-1.5787 -4.5,-3.6875 h -0.3125 z "/>
</g>
<g style="stroke:none" id="layer5">
<path style="opacity:.08;fill:url(#linearGradient3682)" id="path3680" d="m 43.0938,3.9688 c -1.14101,0.0143455 -2.18286,0.19865 -2.78125,0.09375 a 1.02816,1.02816 0 0,0 -0.34375,-0.03125 c -0.556903,0.0805586 -1.63547,-0.0679264 -2.78125,-0.03125 -0.57289,0.018338 -1.18712,0.076135 -1.78125,0.375 -0.594133,0.298865 -1.15066,0.870502 -1.4375,1.59375 a 1.02816,1.02816 0 0,0 -0.0625,0.4375 c 0.05783,0.780872 -0.428666,1.56218 -1.0625,1.9375 -0.625762,0.370535 -1.20964,0.426734 -1.875,-0.21875 -0.161613,-0.17175 -0.316745,-0.83717 -0.5625,-1.71875 -0.122878,-0.44079 -0.28374,-0.946121 -0.65625,-1.40625 -0.37251,-0.460129 -0.993423,-0.831678 -1.6875,-0.9375 a 1.02816,1.02816 0 0,0 -0.125,0 c -2.67125,-0.0758136 -5.34811,-0.0095778 -7.96875,-0.03125 a 1.02816,1.02816 0 0,0 -0.1875,0.03125 c -0.833144,0.149672 -1.49204,0.673435 -1.84375,1.25 -0.351714,0.576565 -0.482136,1.13947 -0.59375,1.625 -0.111614,0.485535 -0.223385,0.871285 -0.34375,1.09375 -0.120365,0.222464 -0.170767,0.294263 -0.46875,0.375 a 1.02816,1.02816 0 0,0 -0.125,0.0625 c -0.470378,0.198302 -0.749966,0.182048 -0.96875,0.125 -0.218784,-0.0570484 -0.406161,-0.181253 -0.625,-0.4375 -0.437677,-0.512494 -0.825323,-1.52749 -1.03125,-2.40625 a 1.02816,1.02816 0 0,0 -0.1875,-0.375 c -0.549471,-0.697534 -1.33322,-1.12359 -2.09375,-1.25 -0.760526,-0.12641 -1.49986,-0.0234772 -2.1875,0.1875 -1.37527,0.421954 -2.57979,1.25255 -3.40625,1.8125 a 1.02816,1.02816 0 0,0 -0.125,0.09375 c -0.874525,0.799432 -1.93881,1.86552 -2.6875,3.15625 -0.748692,1.29073 -1.21268,2.88419 -0.625,4.46875 a 1.02816,1.02816 0 0,0 0.0625,0.15625 c 0.377189,0.673751 1.01349,1.09105 1.5625,1.3125 0.549007,0.221449 1.0353,0.299955 1.4375,0.40625 0.402204,0.106295 0.691911,0.240589 0.8125,0.34375 0.120589,0.103161 0.187743,0.155108 0.21875,0.59375 a 1.02816,1.02816 0 0,0 0.03125,0.15625 c 0.199552,0.894642 0.017971,1.06207 -0.5,1.40625 -0.517971,0.344183 -1.46809,0.591055 -2.34375,0.8125 a 1.02816,1.02816 0 0,0 -0.34375,0.15625 c -1.21826,0.852373 -1.46072,2.26437 -1.4375,3.375 0.023217,1.11063 0.198496,2.12946 0.09375,2.71875 a 1.02816,1.02816 0 0,0 -0.03125,0.3125 c 0.0723765,0.565621 -0.0889327,1.68854 -0.03125,2.84375 0.028841,0.577604 0.11137,1.19287 0.4375,1.78125 0.32613,0.588377 0.942025,1.09503 1.6875,1.34375 a 1.02816,1.02816 0 0,0 0.46875,0.0625 c 1.06263,-0.151497 1.69964,0.543187 1.90625,1.40625 0.103305,0.431532 0.0419587,0.854356 -0.125,1.15625 -0.166959,0.301894 -0.435263,0.561037 -1.0625,0.6875 v 0.03125 c -1.05464,-0.02393 -2.03959,0.41056 -2.625,1.15625 -0.619575,0.789206 -0.842266,1.82537 -0.625,2.875 h -0.03125 c 0.152844,2.10571 -0.365077,4.61548 0.25,7.15625 a 1.02816,1.02816 0 0,0 0.09375,0.21875 c 0.374195,0.707847 1.02096,1.15147 1.59375,1.375 0.572794,0.22353 1.10919,0.307694 1.53125,0.40625 0.422058,0.09856 0.686173,0.209539 0.8125,0.3125 0.126327,0.102961 0.214414,0.191587 0.25,0.65625 a 1.02816,1.02816 0 0,0 0.03125,0.125 c 0.203065,0.896445 0.017796,1.06262 -0.5,1.40625 -0.517796,0.343628 -1.46615,0.591779 -2.34375,0.8125 a 1.02816,1.02816 0 0,0 -0.34375,0.15625 c -1.21826,0.852373 -1.46072,2.26437 -1.4375,3.375 0.023217,1.11063 0.198496,2.12946 0.09375,2.71875 a 1.02816,1.02816 0 0,0 -0.03125,0.3125 c 0.0723765,0.565621 -0.0889327,1.68854 -0.03125,2.84375 0.028841,0.577604 0.11137,1.19287 0.4375,1.78125 0.32613,0.588377 0.942025,1.09503 1.6875,1.34375 a 1.02816,1.02816 0 0,0 0.46875,0.0625 c 1.06263,-0.151496 1.69964,0.543186 1.90625,1.40625 0.103305,0.431532 0.0419587,0.854356 -0.125,1.15625 -0.166959,0.301894 -0.435263,0.561037 -1.0625,0.6875 v 0.03125 c -1.05464,-0.02393 -2.03959,0.410559 -2.625,1.15625 -0.619575,0.789206 -0.842266,1.82537 -0.625,2.875 h -0.03125 c 0.152844,2.10571 -0.365077,4.61548 0.25,7.15625 a 1.02816,1.02816 0 0,0 0.09375,0.21875 c 0.374195,0.707847 1.02096,1.15147 1.59375,1.375 0.572794,0.22353 1.10919,0.307694 1.53125,0.40625 0.422058,0.09856 0.686173,0.209539 0.8125,0.3125 0.126327,0.102961 0.214414,0.191587 0.25,0.65625 a 1.02816,1.02816 0 0,0 0.03125,0.125 c 0.107985,0.467806 0.04831,0.707729 -0.03125,0.875 -0.07956,0.167271 -0.211804,0.321931 -0.5,0.5 -0.576393,0.356138 -1.63087,0.628244 -2.59375,1.0625 a 1.02816,1.02816 0 0,0 -0.28125,0.1875 c -0.629246,0.613303 -0.949788,1.42613 -1,2.1875 -0.050212,0.761369 0.135588,1.46823 0.40625,2.125 0.541325,1.31353 1.43124,2.45117 2.03125,3.21875 a 1.02816,1.02816 0 0,0 0.09375,0.125 c 0.884513,0.82949 2.10028,1.80017 3.5,2.4375 1.39972,0.637329 3.12058,0.951834 4.65625,0.09375 a 1.02816,1.02816 0 0,0 0.1875,-0.125 c 1.03958,-0.930618 1.08356,-2.20246 1.28125,-2.90625 0.09884,-0.351896 0.213734,-0.552184 0.3125,-0.65625 0.09877,-0.104066 0.222333,-0.18502 0.65625,-0.21875 a 1.02816,1.02816 0 0,0 0.125,-0.03125 c 0.873509,-0.204383 1.05352,-0.01428 1.40625,0.5 0.352729,0.514276 0.619295,1.44064 0.84375,2.3125 a 1.02816,1.02816 0 0,0 0.15625,0.34375 c 0.852373,1.21826 2.26437,1.46072 3.375,1.4375 1.11063,-0.02322 2.12946,-0.198496 2.71875,-0.09375 a 1.02816,1.02816 0 0,0 0.34375,0.03125 c 0.558817,-0.08213 1.66169,0.06587 2.8125,0.03125 0.575406,-0.01731 1.18426,-0.07664 1.78125,-0.375 0.596991,-0.298356 1.1484,-0.868111 1.4375,-1.59375 a 1.02816,1.02816 0 0,0 0.0625,-0.46875 c -0.07824,-0.877365 0.485092,-1.63368 1.1875,-1.96875 0.676357,-0.322642 1.28945,-0.313873 1.875,0.46875 0.141771,0.470961 0.252796,1.22869 0.59375,2.03125 0.186389,0.438737 0.465887,0.880292 0.90625,1.25 0.440363,0.369708 1.0602,0.615664 1.71875,0.625 a 1.02816,1.02816 0 0,0 0.0625,0 c 2.53329,-0.141759 5.35504,0.29659 8.21875,-0.21875 a 1.02816,1.02816 0 0,0 0.21875,-0.0625 c 0.693375,-0.311193 1.16842,-0.894337 1.40625,-1.4375 0.237825,-0.543163 0.320651,-1.05223 0.40625,-1.46875 0.0856,-0.416524 0.184775,-0.746082 0.28125,-0.90625 0.09647,-0.160168 0.128196,-0.202921 0.4375,-0.28125 a 1.02816,1.02816 0 0,0 0.15625,-0.0625 c 0.833963,-0.355345 1.20674,-0.174321 1.65625,0.28125 0.449514,0.455571 0.797029,1.32753 0.84375,2.09375 a 1.02816,1.02816 0 0,0 0.125,0.4375 c 0.366282,0.659938 0.93549,1.12958 1.53125,1.375 0.59576,0.245417 1.19159,0.310391 1.75,0.3125 1.11682,0.0042 2.17778,-0.186475 2.75,-0.09375 a 1.02816,1.02816 0 0,0 0.3125,0 c 0.578715,-0.09628 1.6489,0.09405 2.78125,0.09375 0.566173,-0.00015 1.17769,-0.06885 1.78125,-0.3125 0.603563,-0.243653 1.18859,-0.710071 1.5625,-1.375 a 1.02816,1.02816 0 0,0 0.125,-0.4375 c 0.04672,-0.76622 0.394236,-1.63818 0.84375,-2.09375 0.449514,-0.455571 0.822287,-0.636595 1.65625,-0.28125 a 1.02816,1.02816 0 0,0 0.15625,0.0625 c 0.266536,0.06883 0.3119,0.107055 0.4375,0.34375 0.1256,0.236695 0.220533,0.686299 0.34375,1.1875 0.123217,0.501201 0.272615,1.08082 0.65625,1.65625 0.383635,0.575426 1.11161,1.06768 1.96875,1.15625 a 1.02816,1.02816 0 0,0 0.125,0 c 2.61684,-0.05044 5.46721,0.274271 8.3125,-0.125 a 1.02816,1.02816 0 0,0 0.21875,-0.0625 c 0.729908,-0.274141 1.23774,-0.85419 1.5,-1.40625 0.26226,-0.55206 0.345305,-1.06878 0.4375,-1.5 0.0922,-0.43122 0.179265,-0.767217 0.28125,-0.9375 0.101985,-0.170283 0.15586,-0.236196 0.46875,-0.3125 a 1.02816,1.02816 0 0,0 0.15625,-0.0625 c 0.510206,-0.218756 0.75453,-0.180087 0.9375,-0.125 0.18297,0.05509 0.375042,0.18252 0.59375,0.46875 0.437416,0.572461 0.837118,1.64908 1.34375,2.625 a 1.02816,1.02816 0 0,0 0.1875,0.25 c 0.585259,0.586223 1.34349,0.896447 2.0625,0.9375 0.719008,0.04105 1.39144,-0.147273 2,-0.40625 1.21712,-0.517953 2.2316,-1.34652 2.9375,-1.90625 a 1.02816,1.02816 0 0,0 0.125,-0.125 c 0.704789,-0.777484 1.66088,-1.83428 2.3125,-3.09375 0.651623,-1.25947 1.02658,-2.88041 0.21875,-4.34375 a 1.02816,1.02816 0 0,0 -0.09375,-0.125 c -0.863837,-1.14859 -2.14139,-1.23246 -2.875,-1.4375 -0.366805,-0.102521 -0.610275,-0.213591 -0.71875,-0.3125 -0.108475,-0.098909 -0.186817,-0.171803 -0.21875,-0.59375 a 1.02816,1.02816 0 0,0 -0.03125,-0.15625 c -0.199551,-0.894643 -0.01797,-1.06207 0.5,-1.40625 0.517971,-0.344183 1.46809,-0.591055 2.34375,-0.8125 a 1.02816,1.02816 0 0,0 0.34375,-0.15625 c 1.21826,-0.852373 1.46072,-2.26437 1.4375,-3.375 -0.02322,-1.11063 -0.198496,-2.12946 -0.09375,-2.71875 a 1.02816,1.02816 0 0,0 0.03125,-0.3125 c -0.072376,-0.565621 0.088933,-1.68854 0.03125,-2.84375 -0.028841,-0.577604 -0.11137,-1.19287 -0.4375,-1.78125 -0.32613,-0.588377 -0.942025,-1.09503 -1.6875,-1.34375 a 1.02816,1.02816 0 0,0 -0.46875,-0.0625 c -1.06263,0.151496 -1.69964,-0.543187 -1.90625,-1.40625 -0.103305,-0.431531 -0.04196,-0.854356 0.125,-1.15625 0.166959,-0.301894 0.435263,-0.561037 1.0625,-0.6875 v -0.03125 c 1.05464,0.02393 2.03959,-0.41056 2.625,-1.15625 0.619575,-0.789206 0.842266,-1.82537 0.625,-2.875 h 0.03125 c -0.152845,-2.10571 0.365077,-4.61548 -0.25,-7.15625 a 1.02816,1.02816 0 0,0 -0.09375,-0.21875 c -0.374196,-0.707846 -1.02096,-1.15147 -1.59375,-1.375 -0.572794,-0.22353 -1.10919,-0.307694 -1.53125,-0.40625 -0.422058,-0.09856 -0.686173,-0.209539 -0.8125,-0.3125 -0.126327,-0.102961 -0.214414,-0.191587 -0.25,-0.65625 a 1.02816,1.02816 0 0,0 -0.03125,-0.125 c -0.203064,-0.896442 -0.0178,-1.06262 0.5,-1.40625 0.517797,-0.343629 1.46615,-0.591779 2.34375,-0.8125 a 1.02816,1.02816 0 0,0 0.34375,-0.15625 c 1.21826,-0.852373 1.46072,-2.26437 1.4375,-3.375 -0.02322,-1.11063 -0.198496,-2.12946 -0.09375,-2.71875 a 1.02816,1.02816 0 0,0 0.03125,-0.3125 c -0.072376,-0.565621 0.088933,-1.68854 0.03125,-2.84375 -0.028841,-0.577604 -0.11137,-1.19287 -0.4375,-1.78125 -0.32613,-0.588377 -0.942025,-1.09503 -1.6875,-1.34375 a 1.02816,1.02816 0 0,0 -0.46875,-0.0625 c -1.06263,0.151495 -1.69964,-0.543187 -1.90625,-1.40625 -0.103305,-0.431531 -0.04196,-0.854356 0.125,-1.15625 0.166959,-0.301894 0.435263,-0.561037 1.0625,-0.6875 v -0.03125 c 1.05464,0.02393 2.03959,-0.41056 2.625,-1.15625 0.619575,-0.789206 0.842266,-1.82537 0.625,-2.875 h 0.03125 c -0.152845,-2.10571 0.365077,-4.61548 -0.25,-7.15625 a 1.02816,1.02816 0 0,0 -0.09375,-0.21875 c -0.374196,-0.707846 -1.02096,-1.15147 -1.59375,-1.375 -0.572794,-0.22353 -1.10919,-0.307694 -1.53125,-0.40625 -0.422058,-0.09856 -0.686173,-0.209539 -0.8125,-0.3125 -0.126327,-0.102961 -0.214414,-0.191587 -0.25,-0.65625 a 1.02816,1.02816 0 0,0 -0.03125,-0.125 c -0.107986,-0.467806 -0.04831,-0.707729 0.03125,-0.875 0.07956,-0.167271 0.211804,-0.321931 0.5,-0.5 0.576393,-0.356138 1.63086,-0.628243 2.59375,-1.0625 a 1.02816,1.02816 0 0,0 0.28125,-0.1875 c 0.602852,-0.565592 0.92704,-1.31629 1,-2.03125 0.07296,-0.714959 -0.085,-1.38082 -0.3125,-2 -0.455009,-1.23836 -1.23887,-2.32579 -1.75,-3.0625 a 1.02816,1.02816 0 0,0 -0.09375,-0.125 c -0.744466,-0.761133 -1.77286,-1.7583 -3,-2.46875 -1.22714,-0.710451 -2.8106,-1.16072 -4.3125,-0.4375 a 1.02816,1.02816 0 0,0 -0.125,0.09375 c -1.18539,0.79984 -1.36616,2.07852 -1.59375,2.8125 -0.113794,0.366991 -0.209277,0.605348 -0.3125,0.71875 -0.103223,0.113402 -0.203502,0.187831 -0.59375,0.21875 a 1.02816,1.02816 0 0,0 -0.125,0.03125 c -0.821581,0.185135 -1.0752,-0.020962 -1.4375,-0.5 -0.362301,-0.479038 -0.628149,-1.33244 -0.75,-2.125 a 1.02816,1.02816 0 0,0 -0.15625,-0.375 c -0.404973,-0.647748 -1.01383,-1.11807 -1.625,-1.34375 -0.611174,-0.225676 -1.21203,-0.257176 -1.78125,-0.25 -1.13845,0.0143512 -2.1848,0.198309 -2.78125,0.09375 a 1.02816,1.02816 0 0,0 -0.34375,-0.03125 c -0.556903,0.0805586 -1.63547,-0.0679264 -2.78125,-0.03125 -0.57289,0.018338 -1.18712,0.076135 -1.78125,0.375 -0.594133,0.298865 -1.15066,0.870502 -1.4375,1.59375 a 1.02816,1.02816 0 0,0 -0.0625,0.46875 c 0.07824,0.877365 -0.485092,1.63368 -1.1875,1.96875 -0.676357,0.322642 -1.28945,0.313873 -1.875,-0.46875 -0.141771,-0.470961 -0.252796,-1.22869 -0.59375,-2.03125 -0.186389,-0.438737 -0.465887,-0.880292 -0.90625,-1.25 -0.440363,-0.369708 -1.0602,-0.615663 -1.71875,-0.625 a 1.02816,1.02816 0 0,0 -0.0625,0 c -2.53329,0.141758 -5.35504,-0.296591 -8.21875,0.21875 a 1.02816,1.02816 0 0,0 -0.25,0.0625 c -0.690514,0.31449 -1.13603,0.896138 -1.375,1.4375 -0.238969,0.541362 -0.317675,1.05359 -0.40625,1.46875 -0.08857,0.415162 -0.182442,0.714331 -0.28125,0.875 -0.09881,0.160669 -0.154089,0.233827 -0.46875,0.3125 a 1.02816,1.02816 0 0,0 -0.15625,0.0625 c -0.875515,0.375536 -1.18793,0.192803 -1.625,-0.28125 -0.437068,-0.474053 -0.778316,-1.40679 -0.875,-2.21875 a 1.02816,1.02816 0 0,0 -0.15625,-0.40625 c -0.406421,-0.650064 -1.01171,-1.11877 -1.625,-1.34375 -0.613294,-0.224977 -1.21079,-0.257172 -1.78125,-0.25 z "/>
<path style="opacity:.2;fill:url(#linearGradient3660)" id="path3658" d="m 20.1562,6 a 1.00867,1.00867 0 0,0 -0.8125,1 c 0,1.96503 -1.59233,3.5625 -3.59375,3.5625 -1.98386,0 -3.56658,-1.55971 -3.59375,-3.5 a 1.00867,1.00867 0 0,0 -1.125,-1 c -3.42313,0.409609 -6.18203,2.95119 -6.875,6.28125 a 1.00867,1.00867 0 0,0 0.96875,1.21875 c 1.9396,0.0644 3.46875,1.63826 3.46875,3.5625 0,1.96503 -1.59232,3.5625 -3.59375,3.5625 a 1.00867,1.00867 0 0,0 -1,1 v 7.0625 a 1.00867,1.00867 0 0,0 1,1 c 2.00143,0 3.59375,1.59747 3.59375,3.5625 0,1.96503 -1.59232,3.5625 -3.59375,3.5625 a 1.00867,1.00867 0 0,0 -1,1 v 7.0625 a 1.00867,1.00867 0 0,0 1,1 c 2.00143,0 3.59375,1.59747 3.59375,3.5625 0,1.96503 -1.59232,3.5625 -3.59375,3.5625 a 1.00867,1.00867 0 0,0 -1,1 v 7.0625 a 1.00867,1.00867 0 0,0 1,1 c 2.00143,0 3.59375,1.59747 3.59375,3.5625 0,1.96504 -1.59232,3.5625 -3.59375,3.5625 a 1.00867,1.00867 0 0,0 -1,1 v 7.0625 a 1.00867,1.00867 0 0,0 1,1 c 2.00142,-3e-06 3.59375,1.59747 3.59375,3.5625 0,1.92424 -1.52914,3.49809 -3.46875,3.5625 a 1.00867,1.00867 0 0,0 -0.96875,1.21875 c 0.69297,3.33006 3.45187,5.87164 6.875,6.28125 a 1.00867,1.00867 0 0,0 1.125,-1 c 0.02717,-1.94029 1.60989,-3.5 3.59375,-3.5 2.00142,0 3.59375,1.59747 3.59375,3.5625 a 1.00867,1.00867 0 0,0 1,1 h 7.1875 a 1.00867,1.00867 0 0,0 1,-1 c 0,-1.96503 1.59233,-3.5625 3.59375,-3.5625 2.00144,0 3.625,1.60582 3.625,3.5625 a 1.00867,1.00867 0 0,0 1,1 h 7.15625 a 1.00867,1.00867 0 0,0 1,-1 c 0,-1.96503 1.59233,-3.5625 3.59375,-3.5625 2.00144,0 3.625,1.60582 3.625,3.5625 a 1.00867,1.00867 0 0,0 1,1 h 7.15625 a 1.00867,1.00867 0 0,0 1,-1 c 0,-1.95668 1.62356,-3.5625 3.625,-3.5625 2.00142,0 3.59375,1.59747 3.59375,3.5625 a 1.00867,1.00867 0 0,0 1,1 h 7.15625 a 1.00867,1.00867 0 0,0 1,-1 c -8e-06,-1.95667 1.62358,-3.5625 3.625,-3.5625 1.93081,0 3.45695,1.50152 3.5625,3.375 a 1.00867,1.00867 0 0,0 1.25,0.90625 c 2.88836,-0.781055 5.13603,-3.11204 5.75,-6.0625 a 1.00867,1.00867 0 0,0 -0.96875,-1.21875 c -1.93961,-0.06441 -3.46875,-1.63826 -3.46875,-3.5625 0,-1.96504 1.59233,-3.5625 3.59375,-3.5625 a 1.00867,1.00867 0 0,0 1,-1 v -7.0625 a 1.00867,1.00867 0 0,0 -1,-1 c -2.00142,1e-06 -3.59375,-1.59747 -3.59375,-3.5625 0,-1.96503 1.59233,-3.5625 3.59375,-3.5625 a 1.00867,1.00867 0 0,0 1,-1 v -7.0625 a 1.00867,1.00867 0 0,0 -1,-1 c -2.00142,1e-06 -3.59375,-1.59747 -3.59375,-3.5625 0,-1.96503 1.59233,-3.5625 3.59375,-3.5625 a 1.00867,1.00867 0 0,0 1,-1 v -7.0625 a 1.00867,1.00867 0 0,0 -1,-1 c -2.00142,1e-06 -3.59375,-1.59747 -3.59375,-3.5625 0,-1.96503 1.59233,-3.5625 3.59375,-3.5625 a 1.00867,1.00867 0 0,0 1,-1 v -7.0625 a 1.00867,1.00867 0 0,0 -1,-1 c -2.00142,1e-06 -3.59375,-1.59747 -3.59375,-3.5625 0,-1.92424 1.52914,-3.49809 3.46875,-3.5625 a 1.00867,1.00867 0 0,0 0.96875,-1.21875 c -0.613971,-2.95046 -2.86164,-5.28144 -5.75,-6.0625 a 1.00867,1.00867 0 0,0 -1.25,0.90625 c -0.105571,1.87349 -1.63169,3.375 -3.5625,3.375 -2.00144,0 -3.625,-1.60582 -3.625,-3.5625 a 1.00867,1.00867 0 0,0 -1,-1 h -7.15625 a 1.00867,1.00867 0 0,0 -1,1 c 0,1.96503 -1.59233,3.5625 -3.59375,3.5625 -2.00144,0 -3.625,-1.60582 -3.625,-3.5625 a 1.00867,1.00867 0 0,0 -1,-1 h -7.15625 a 1.00867,1.00867 0 0,0 -1,1 c 0,1.95668 -1.62356,3.5625 -3.625,3.5625 -2.00142,0 -3.59375,-1.59747 -3.59375,-3.5625 a 1.00867,1.00867 0 0,0 -1,-1 h -7.15625 a 1.00867,1.00867 0 0,0 -1,1 c 8e-06,1.95667 -1.62358,3.5625 -3.625,3.5625 -2.00142,0 -3.59375,-1.59747 -3.59375,-3.5625 a 1.00867,1.00867 0 0,0 -1,-1 h -7.1875 a 1.00867,1.00867 0 0,0 -0.1875,0 z "/>
<path style="opacity:.45;fill:url(#linearGradient3643)" id="path2860" d="m 12,7 c -3.1577,0 -5.7192,2.40872 -5.96875,5.5 2.4694,0.017094 4.46875,2.02659 4.46875,4.5 0,2.484 -2.016,4.5 -4.5,4.5 v 7 c 2.484,0 4.5,2.016 4.5,4.5 0,2.484 -2.016,4.5 -4.5,4.5 v 7 c 2.484,0 4.5,2.016 4.5,4.5 0,2.484 -2.016,4.5 -4.5,4.5 v 7 c 2.484,0 4.5,2.016 4.5,4.5 0,2.484 -2.016,4.5 -4.5,4.5 v 7 c 2.484,-4e-06 4.5,2.016 4.5,4.5 0,2.4734 -1.99935,4.48291 -4.46875,4.5 0.249548,3.09128 2.81105,5.5 5.96875,5.5 0,-2.484 2.016,-4.5 4.5,-4.5 2.484,0 4.5,2.016 4.5,4.5 h 7 c 0,-2.484 2.016,-4.5 4.5,-4.5 2.484,0 4.5,2.016 4.5,4.5 h 7 c 0,-2.484 2.016,-4.5 4.5,-4.5 2.484,0 4.5,2.016 4.5,4.5 h 7 c 0,-2.484 2.016,-4.5 4.5,-4.5 2.484,0 4.5,2.016 4.5,4.5 h 7 c -4e-06,-2.484 2.016,-4.5 4.5,-4.5 2.45222,0 4.44932,1.9661 4.5,4.40625 2.68854,-0.445117 4.746,-2.64698 4.96875,-5.40625 -2.4694,-0.017097 -4.46875,-2.02659 -4.46875,-4.5 0,-2.484 2.016,-4.5 4.5,-4.5 v -7 c -2.484,1e-06 -4.5,-2.016 -4.5,-4.5 0,-2.484 2.016,-4.5 4.5,-4.5 v -7 c -2.484,1e-06 -4.5,-2.016 -4.5,-4.5 0,-2.484 2.016,-4.5 4.5,-4.5 v -7 c -2.484,1e-06 -4.5,-2.016 -4.5,-4.5 0,-2.484 2.016,-4.5 4.5,-4.5 v -7 c -2.484,1e-06 -4.5,-2.016 -4.5,-4.5 0,-2.47341 1.99935,-4.48291 4.46875,-4.5 -0.222746,-2.75927 -2.28021,-4.96113 -4.96875,-5.40625 -0.050679,2.44015 -2.04778,4.40625 -4.5,4.40625 -2.484,0 -4.5,-2.016 -4.5,-4.5 h -7 c 1e-06,2.484 -2.016,4.5 -4.5,4.5 -2.484,0 -4.5,-2.016 -4.5,-4.5 h -7 c 1e-06,2.484 -2.016,4.5 -4.5,4.5 -2.484,0 -4.5,-2.016 -4.5,-4.5 h -7 c 1e-06,2.484 -2.016,4.5 -4.5,4.5 -2.484,0 -4.5,-2.016 -4.5,-4.5 h -7 c 1e-06,2.484 -2.016,4.5 -4.5,4.5 -2.484,0 -4.5,-2.016 -4.5,-4.5 z "/>
<path style="opacity:.3;fill:url(#linearGradient3652)" id="path3645" d="m 20.3438,7 c 0,2.51357 -2.05061,4.5625 -4.59375,4.5625 -2.52145,0 -4.55896,-2.01599 -4.59375,-4.5 -2.99614,0.358516 -5.39426,2.58914 -6,5.5 2.47044,0.08203 4.4375,2.10095 4.4375,4.5625 0,2.51357 -2.05061,4.5625 -4.59375,4.5625 v 7.0625 c 2.54314,0 4.59375,2.04893 4.59375,4.5625 0,2.51357 -2.05061,4.5625 -4.59375,4.5625 v 7.0625 c 2.54314,0 4.59375,2.04893 4.59375,4.5625 0,2.51357 -2.05061,4.5625 -4.59375,4.5625 v 7.0625 c 2.54314,0 4.59375,2.04893 4.59375,4.5625 0,2.51357 -2.05061,4.5625 -4.59375,4.5625 v 7.0625 c 2.54314,-4e-06 4.59375,2.04893 4.59375,4.5625 0,2.46155 -1.96706,4.48046 -4.4375,4.5625 0.605736,2.91086 3.00386,5.14148 6,5.5 0.03479,-2.48401 2.0723,-4.5 4.59375,-4.5 2.54314,0 4.59375,2.04893 4.59375,4.5625 h 7.1875 c 0,-2.51357 2.05061,-4.5625 4.59375,-4.5625 2.54315,0 4.625,2.04893 4.625,4.5625 h 7.15625 c 0,-2.51357 2.05061,-4.5625 4.59375,-4.5625 2.54315,0 4.625,2.04893 4.625,4.5625 h 7.15625 c 0,-2.51357 2.08185,-4.5625 4.625,-4.5625 2.54314,0 4.59375,2.04893 4.59375,4.5625 h 7.15625 c -1e-05,-2.51357 2.08186,-4.5625 4.625,-4.5625 2.45596,0 4.4276,1.91817 4.5625,4.3125 2.52264,-0.682158 4.46306,-2.73222 5,-5.3125 -2.47044,-0.08204 -4.4375,-2.10095 -4.4375,-4.5625 0,-2.51358 2.05061,-4.5625 4.59375,-4.5625 v -7.0625 c -2.54314,1e-06 -4.59375,-2.04893 -4.59375,-4.5625 0,-2.51357 2.05061,-4.5625 4.59375,-4.5625 v -7.0625 c -2.54314,1e-06 -4.59375,-2.04893 -4.59375,-4.5625 0,-2.51357 2.05061,-4.5625 4.59375,-4.5625 v -7.0625 c -2.54314,1e-06 -4.59375,-2.04893 -4.59375,-4.5625 0,-2.51357 2.05061,-4.5625 4.59375,-4.5625 v -7.0625 c -2.54314,1e-06 -4.59375,-2.04893 -4.59375,-4.5625 0,-2.46155 1.96706,-4.48046 4.4375,-4.5625 -0.53694,-2.58028 -2.47736,-4.63034 -5,-5.3125 -0.13492,2.39433 -2.10654,4.3125 -4.5625,4.3125 -2.54315,0 -4.625,-2.04893 -4.625,-4.5625 h -7.15625 c 0,2.51357 -2.05061,4.5625 -4.59375,4.5625 -2.54315,0 -4.625,-2.04893 -4.625,-4.5625 h -7.15625 c 0,2.51357 -2.08185,4.5625 -4.625,4.5625 -2.54314,0 -4.59375,-2.04893 -4.59375,-4.5625 h -7.15625 c 1e-05,2.51357 -2.08186,4.5625 -4.625,4.5625 -2.54314,0 -4.59375,-2.04893 -4.59375,-4.5625 h -7.1875 z "/>
<path style="opacity:.1;fill:url(#linearGradient3674)" id="path3666" d="m 19.9688,5.0625 c -2.3303,0.418632 -0.950962,3.75581 -3.17057,4.3572 -2.52096,1.06279 -3.56915,-1.50891 -4.01693,-3.4197 -1.60675,-2.03972 -4.71559,-0.118691 -6.32507,0.971775 -1.66133,1.51868 -3.91372,4.11492 -3.01868,6.52822 0.962983,1.72012 3.98614,0.531711 4.16803,3.10482 0.546116,2.44838 -1.87508,2.98881 -3.60553,3.42643 -1.72863,1.20946 -0.625742,3.69428 -0.9375,5.4482 0.213227,1.66636 -0.768884,4.39902 1.375,5.1143 3.2092,-0.457528 4.59881,4.5868 1.10752,5.29071 -1.69772,-0.250075 -2.90267,1.41362 -2.48252,3.00173 0.167129,2.3025 -0.32294,4.71994 0.21875,6.95756 0.966509,1.8283 4.11707,0.443917 4.32242,3.12521 0.555306,2.45144 -1.86917,3.00106 -3.60367,3.43729 -1.72863,1.20946 -0.625742,3.69428 -0.9375,5.4482 0.213227,1.66636 -0.768884,4.39902 1.375,5.1143 3.2092,-0.457528 4.59881,4.5868 1.10752,5.29071 -1.69772,-0.250075 -2.90267,1.41362 -2.48252,3.00173 0.167129,2.3025 -0.32294,4.71994 0.21875,6.95756 0.966509,1.8283 4.11707,0.443917 4.32242,3.12521 0.587066,2.54324 -2.04775,2.84955 -3.69742,3.59354 -1.83742,1.79086 0.353388,4.63955 1.54589,6.1651 1.66871,1.56491 4.58307,3.67354 6.92286,2.36615 1.33057,-1.1911 0.352699,-3.84968 2.83369,-4.04254 2.41031,-0.563963 3.03026,1.83145 3.47881,3.57379 1.20946,1.72863 3.69428,0.625742 5.4482,0.9375 1.68507,-0.247643 4.38078,0.795171 5.20805,-1.28125 -0.239447,-2.68514 3.28993,-4.61545 5.01343,-2.11796 0.437479,1.22199 0.475583,3.37336 2.29907,3.39921 2.68369,-0.150175 5.46253,0.286003 8.09375,-0.1875 1.79819,-0.807044 0.555747,-3.62622 2.70182,-4.1697 2.32841,-0.992119 3.80159,1.26943 3.92318,3.26345 1.04378,1.88061 3.57727,0.816348 5.28915,1.09375 1.73405,-0.288484 4.3004,0.803154 5.3671,-1.09375 0.121588,-1.99402 1.59476,-4.25557 3.92318,-3.26345 2.16926,0.560156 0.855076,4.077 3.26432,4.32595 2.70698,-0.05218 5.51566,0.249931 8.1875,-0.125 1.91649,-0.719801 0.637248,-3.66501 2.82304,-4.19806 2.66728,-1.14362 3.28838,1.73641 4.17696,3.44806 1.67799,1.68076 4.24987,-0.341504 5.66051,-1.46004 1.38703,-1.53009 3.56453,-4.09624 2.37074,-6.25871 -1.08902,-1.44801 -3.85628,-0.449706 -4.04303,-2.91732 -0.546116,-2.44839 1.87508,-2.98881 3.60553,-3.42643 1.72863,-1.20946 0.625742,-3.69428 0.9375,-5.4482 -0.213227,-1.66636 0.768884,-4.39902 -1.375,-5.1143 -3.2092,0.457525 -4.59881,-4.5868 -1.10752,-5.29071 1.69772,0.250074 2.90267,-1.41362 2.48252,-3.00173 -0.167129,-2.3025 0.32294,-4.71994 -0.21875,-6.95756 -0.966509,-1.82829 -4.11707,-0.443918 -4.32242,-3.12521 -0.555305,-2.45143 1.86917,-3.00106 3.60367,-3.43729 1.72863,-1.20946 0.625742,-3.69428 0.9375,-5.4482 -0.213227,-1.66636 0.768884,-4.39902 -1.375,-5.1143 -3.2092,0.457525 -4.59881,-4.5868 -1.10752,-5.29071 1.69772,0.250074 2.90267,-1.41362 2.48252,-3.00173 -0.167129,-2.3025 0.32294,-4.71994 -0.21875,-6.95756 -0.966509,-1.8283 -4.11707,-0.443918 -4.32242,-3.12521 -0.587068,-2.54324 2.04775,-2.84955 3.69742,-3.59354 1.73783,-1.63042 -0.158963,-4.2635 -1.19311,-5.75406 -1.45245,-1.48497 -3.89287,-3.75559 -6.11939,-2.68344 -1.50126,1.01298 -0.60947,3.76221 -2.97612,3.94972 -2.30635,0.519714 -3.15679,-1.70306 -3.43013,-3.48097 -1.15835,-1.85276 -3.7343,-0.719842 -5.5107,-1.03125 -1.67606,0.24245 -4.35671,-0.786599 -5.1768,1.28125 0.239447,2.68514 -3.28993,4.61546 -5.01343,2.11796 -0.437479,-1.22199 -0.475583,-3.37336 -2.29907,-3.39921 -2.68369,0.150175 -5.46253,-0.286003 -8.09375,0.1875 -1.79423,0.817171 -0.569955,3.62692 -2.72929,4.16681 -2.40032,1.02957 -3.69224,-1.35186 -3.92696,-3.32306 -1.15835,-1.85276 -3.7343,-0.719842 -5.5107,-1.03125 -1.67606,0.24245 -4.35671,-0.786599 -5.1768,1.28125 0.179641,2.42568 -2.7375,4.47127 -4.70341,2.51503 -0.995678,-1.05813 -0.412905,-3.47307 -2.32784,-3.76503 -2.63465,-0.0747748 -5.2942,-0.0093905 -7.9375,-0.03125 z "/>
</g>
<g style="stroke:none" id="layer1">
<path style="fill:url(#linearGradient3441)" id="rect2419" d="m 12,6 c -3.1577,0 -5.7192,2.40872 -5.96875,5.5 2.4694,0.017094 4.46875,2.02659 4.46875,4.5 0,2.484 -2.016,4.5 -4.5,4.5 v 7 c 2.484,0 4.5,2.016 4.5,4.5 0,2.484 -2.016,4.5 -4.5,4.5 v 7 c 2.484,0 4.5,2.016 4.5,4.5 0,2.484 -2.016,4.5 -4.5,4.5 v 7 c 2.484,0 4.5,2.016 4.5,4.5 0,2.484 -2.016,4.5 -4.5,4.5 v 7 c 2.484,-4e-06 4.5,2.016 4.5,4.5 0,2.4734 -1.99935,4.48291 -4.46875,4.5 0.249548,3.09128 2.81105,5.5 5.96875,5.5 0,-2.484 2.016,-4.5 4.5,-4.5 2.484,0 4.5,2.016 4.5,4.5 h 7 c 0,-2.484 2.016,-4.5 4.5,-4.5 2.484,0 4.5,2.016 4.5,4.5 h 7 c 0,-2.484 2.016,-4.5 4.5,-4.5 2.484,0 4.5,2.016 4.5,4.5 h 7 c 0,-2.484 2.016,-4.5 4.5,-4.5 2.484,0 4.5,2.016 4.5,4.5 h 7 c -4e-06,-2.484 2.016,-4.5 4.5,-4.5 2.45222,0 4.44932,1.9661 4.5,4.40625 2.68854,-0.445117 4.746,-2.64698 4.96875,-5.40625 -2.4694,-0.017097 -4.46875,-2.02659 -4.46875,-4.5 0,-2.484 2.016,-4.5 4.5,-4.5 v -7 c -2.484,1e-06 -4.5,-2.016 -4.5,-4.5 0,-2.484 2.016,-4.5 4.5,-4.5 v -7 c -2.484,1e-06 -4.5,-2.016 -4.5,-4.5 0,-2.484 2.016,-4.5 4.5,-4.5 v -7 c -2.484,1e-06 -4.5,-2.016 -4.5,-4.5 0,-2.484 2.016,-4.5 4.5,-4.5 v -7 c -2.484,1e-06 -4.5,-2.016 -4.5,-4.5 0,-2.47341 1.99935,-4.48291 4.46875,-4.5 -0.222746,-2.75927 -2.28021,-4.96113 -4.96875,-5.40625 -0.050679,2.44015 -2.04778,4.40625 -4.5,4.40625 -2.484,0 -4.5,-2.016 -4.5,-4.5 h -7 c 1e-06,2.484 -2.016,4.5 -4.5,4.5 -2.484,0 -4.5,-2.016 -4.5,-4.5 h -7 c 1e-06,2.484 -2.016,4.5 -4.5,4.5 -2.484,0 -4.5,-2.016 -4.5,-4.5 h -7 c 1e-06,2.484 -2.016,4.5 -4.5,4.5 -2.484,0 -4.5,-2.016 -4.5,-4.5 h -7 c 1e-06,2.484 -2.016,4.5 -4.5,4.5 -2.484,0 -4.5,-2.016 -4.5,-4.5 z "/>
<path style="opacity:.5;fill:url(#linearGradient3434)" id="path3421" d="m 12,6 c -3.1577,0 -5.7192,2.40872 -5.96875,5.5 0.387559,0.0027 0.766509,0.06132 1.125,0.15625 0.506089,-1.94794 2.09125,-3.36475 4.125,-3.65625 0.513582,2.45814 2.61358,4.375 5.21875,4.375 2.65006,0 4.78674,-1.97891 5.25,-4.5 h 5.5 c 0.463258,2.52109 2.59994,4.5 5.25,4.5 2.65006,0 4.78674,-1.97891 5.25,-4.5 h 5.5 c 0.463258,2.52109 2.59994,4.5 5.25,4.5 2.65006,0 4.78674,-1.97891 5.25,-4.5 h 5.5 c 0.463258,2.52109 2.59994,4.5 5.25,4.5 2.65006,0 4.78674,-1.97891 5.25,-4.5 h 5.5 c 0.463258,2.52108 2.59994,4.5 5.25,4.5 2.53375,0 4.59924,-1.79759 5.1875,-4.15625 1.56515,0.552394 2.73468,1.81268 3.15625,3.4375 0.358491,-0.09493 0.737441,-0.153567 1.125,-0.15625 -0.222746,-2.75927 -2.28021,-4.96113 -4.96875,-5.40625 -0.050679,2.44015 -2.04778,4.40625 -4.5,4.40625 -2.484,0 -4.5,-2.016 -4.5,-4.5 h -7 c 1e-06,2.484 -2.016,4.5 -4.5,4.5 -2.484,0 -4.5,-2.016 -4.5,-4.5 h -7 c 1e-06,2.484 -2.016,4.5 -4.5,4.5 -2.484,0 -4.5,-2.016 -4.5,-4.5 h -7 c 1e-06,2.484 -2.016,4.5 -4.5,4.5 -2.484,0 -4.5,-2.016 -4.5,-4.5 h -7 c 1e-06,2.484 -2.016,4.5 -4.5,4.5 -2.484,0 -4.5,-2.016 -4.5,-4.5 z  m -3.9688,6 c 1.46523,0.742423 2.46875,2.24621 2.46875,4 0,2.484 -2.016,4.5 -4.5,4.5 v 7 c 0.321072,0 0.635409,0.02973 0.9375,0.09375 v -5.40625 c 2.52109,-0.463258 4.5,-2.59994 4.5,-5.25 0,-2.25131 -1.43207,-4.13363 -3.40625,-4.9375 z  m 79.9375,0 c -1.97418,0.803868 -3.40625,2.68619 -3.40625,4.9375 0,2.65006 1.97891,4.78674 4.5,5.25 v 5.40625 c 0.302091,-0.06402 0.616428,-0.09375 0.9375,-0.09375 v -7 c -2.484,1e-06 -4.5,-2.016 -4.5,-4.5 0,-1.75379 1.00352,-3.25758 2.46875,-4 z  m -79.7812,16.0938 c 1.36919,0.771924 2.3125,2.22344 2.3125,3.90625 0,2.484 -2.016,4.5 -4.5,4.5 v 7 c 0.321072,0 0.635409,0.02973 0.9375,0.09375 v -5.40625 c 2.52109,-0.463258 4.5,-2.59994 4.5,-5.25 0,-2.18915 -1.35909,-4.00919 -3.25,-4.84375 z  m 79.625,0 c -1.89091,0.834556 -3.25,2.6546 -3.25,4.84375 0,2.65006 1.97891,4.78674 4.5,5.25 v 5.40625 c 0.302091,-0.06402 0.616428,-0.09375 0.9375,-0.09375 v -7 c -2.484,1e-06 -4.5,-2.016 -4.5,-4.5 0,-1.68281 0.943308,-3.13433 2.3125,-3.90625 z  m -79.625,16 c 1.36919,0.771924 2.3125,2.22344 2.3125,3.90625 0,2.484 -2.016,4.5 -4.5,4.5 v 7 c 0.321072,0 0.635409,0.02973 0.9375,0.09375 v -5.40625 c 2.52109,-0.463258 4.5,-2.59994 4.5,-5.25 0,-2.18915 -1.35909,-4.00919 -3.25,-4.84375 z  m 79.625,0 c -1.89091,0.834556 -3.25,2.6546 -3.25,4.84375 0,2.65006 1.97891,4.78674 4.5,5.25 v 5.40625 c 0.302091,-0.06402 0.616428,-0.09375 0.9375,-0.09375 v -7 c -2.484,1e-06 -4.5,-2.016 -4.5,-4.5 0,-1.68281 0.943308,-3.13433 2.3125,-3.90625 z  m -79.625,16 c 1.36919,0.771924 2.3125,2.22344 2.3125,3.90625 0,2.484 -2.016,4.5 -4.5,4.5 v 7 c 0.321072,-1e-06 0.635409,0.02973 0.9375,0.09375 v -5.40625 c 2.52109,-0.463258 4.5,-2.59994 4.5,-5.25 0,-2.18915 -1.35909,-4.00919 -3.25,-4.84375 z  m 79.625,0 c -1.89091,0.834556 -3.25,2.6546 -3.25,4.84375 0,2.65006 1.97891,4.78674 4.5,5.25 v 5.40625 c 0.302091,-0.06402 0.616428,-0.09375 0.9375,-0.09375 v -7 c -2.484,1e-06 -4.5,-2.016 -4.5,-4.5 0,-1.68281 0.943308,-3.13433 2.3125,-3.90625 z  m -79.625,16 c 1.36919,0.771924 2.3125,2.22344 2.3125,3.90625 0,2.4734 -1.99935,4.48291 -4.46875,4.5 0.249548,3.09128 2.81105,5.5 5.96875,5.5 0,-2.16293 1.52744,-3.97497 3.5625,-4.40625 -2.15423,0.400506 -3.83187,2.13038 -4.28125,4.28125 -2.05418,-0.294425 -3.63549,-1.74059 -4.125,-3.71875 2.41314,-0.548077 4.28125,-2.64583 4.28125,-5.21875 0,-2.18915 -1.35909,-4.0092 -3.25,-4.84375 z  m 79.625,0 c -1.89091,0.834555 -3.25,2.6546 -3.25,4.84375 0,2.57292 1.86811,4.67067 4.28125,5.21875 -0.408658,1.6533 -1.57215,2.94092 -3.15625,3.5 -0.514722,-2.06383 -2.14919,-3.68618 -4.25,-4.0625 2.01065,0.421213 3.51838,2.18809 3.5625,4.3125 2.68854,-0.445117 4.746,-2.64698 4.96875,-5.40625 -2.4694,-0.017097 -4.46875,-2.02659 -4.46875,-4.5 0,-1.68282 0.943308,-3.13433 2.3125,-3.90625 z  m -70.3438,9.5 c 2.02016,0.442538 3.53125,2.25389 3.53125,4.40625 h 0.75 c -0.405351,-2.20595 -2.09061,-3.993 -4.28125,-4.40625 z  m 14.0625,0 c -2.19064,0.413245 -3.8759,2.2003 -4.28125,4.40625 h 0.75 c 0,-2.15236 1.51109,-3.96371 3.53125,-4.40625 z  m 1.9375,0 c 2.02016,0.442538 3.53125,2.25389 3.53125,4.40625 h 0.75 c -0.405351,-2.20595 -2.09061,-3.993 -4.28125,-4.40625 z  m 14.0625,0 c -2.19064,0.413245 -3.8759,2.2003 -4.28125,4.40625 h 0.75 c 0,-2.15236 1.51109,-3.96371 3.53125,-4.40625 z  m 1.9375,0 c 2.02016,0.442538 3.53125,2.25389 3.53125,4.40625 h 0.75 c -0.405351,-2.20595 -2.09061,-3.993 -4.28125,-4.40625 z  m 14.0625,0 c -2.19064,0.413245 -3.8759,2.2003 -4.28125,4.40625 h 0.75 c 0,-2.15236 1.51109,-3.96371 3.53125,-4.40625 z  m 1.9375,0 c 2.02016,0.442538 3.53125,2.25389 3.53125,4.40625 h 0.75 c -0.405351,-2.20595 -2.09061,-3.993 -4.28125,-4.40625 z  m 14.0625,0 c -2.19064,0.413244 -3.8759,2.2003 -4.28125,4.40625 h 0.75 c -3e-06,-2.15236 1.51108,-3.96371 3.53125,-4.40625 z "/>
<path style="opacity:.3;fill:url(#radialGradient3684)" id="path2901" d="m 6.5312,9.5625 c -0.266043,0.601761 -0.444414,1.24893 -0.5,1.9375 2.12608,0.01472 3.89056,1.50696 4.34375,3.5 0.07377,-0.323096 0.125,-0.654652 0.125,-1 0,-2.30245 -1.73731,-4.172 -3.96875,-4.4375 z  m 82.9375,0 c -2.23144,0.2655 -3.96875,2.13505 -3.96875,4.4375 0,0.345348 0.05123,0.676904 0.125,1 0.453193,-1.99303 2.21766,-3.48528 4.34375,-3.5 -0.05569,-0.689818 -0.23378,-1.3361 -0.5,-1.9375 z  m -83.4688,15.9375 v 2 c 2.13865,0 3.91813,1.49915 4.375,3.5 0.07377,-0.323096 0.125,-0.654652 0.125,-1 0,-2.484 -2.016,-4.5 -4.5,-4.5 z  m 84,0 c -2.484,0 -4.5,2.016 -4.5,4.5 0,0.345348 0.05123,0.676904 0.125,1 0.456869,-2.00085 2.23635,-3.5 4.375,-3.5 v -2 z  m -84,16 0,2 c 2.13865,0 3.91813,1.49915 4.375,3.5 0.07377,-0.323096 0.125,-0.654652 0.125,-1 0,-2.484 -2.016,-4.5 -4.5,-4.5 z  m 84,0 c -2.484,0 -4.5,2.016 -4.5,4.5 0,0.345348 0.05123,0.676904 0.125,1 0.456869,-2.00085 2.23635,-3.5 4.375,-3.5 v -2 z  m -84,16 0,2 c 2.13865,0 3.91813,1.49915 4.375,3.5 0.07377,-0.323096 0.125,-0.654652 0.125,-1 0,-2.484 -2.016,-4.5 -4.5,-4.5 z  m 84,0 c -2.484,0 -4.5,2.016 -4.5,4.5 0,0.345348 0.05123,0.676904 0.125,1 0.456869,-2.00085 2.23635,-3.5 4.375,-3.5 v -2 z  m -84,16 0,2 c 2.13865,-3e-06 3.91813,1.49915 4.375,3.5 0.07318,-0.321834 0.125,-0.656125 0.125,-1 0,-2.484 -2.016,-4.5 -4.5,-4.5 z  m 84,0 c -2.484,0 -4.5,2.016 -4.5,4.5 0,0.343875 0.05182,0.678166 0.125,1 0.456869,-2.00085 2.23635,-3.5 4.375,-3.5 v -2 z  m -73.5,10 c -2.484,0 -4.5,2.016 -4.5,4.5 -2.45433,0 -4.54042,-1.4627 -5.46875,-3.5625 -0.165683,0.019713 -0.329321,0.061319 -0.5,0.0625 0.249548,3.09128 2.81105,5.5 5.96875,5.5 0,-2.484 2.016,-4.5 4.5,-4.5 2.484,0 4.5,2.016 4.5,4.5 h 7 c 0,-2.484 2.016,-4.5 4.5,-4.5 2.484,0 4.5,2.016 4.5,4.5 h 7 c 0,-2.484 2.016,-4.5 4.5,-4.5 2.484,0 4.5,2.016 4.5,4.5 h 7 c 0,-2.484 2.016,-4.5 4.5,-4.5 2.484,0 4.5,2.016 4.5,4.5 h 7 c -4e-06,-2.484 2.016,-4.5 4.5,-4.5 2.45222,0 4.44932,1.9661 4.5,4.40625 2.68854,-0.445117 4.746,-2.64698 4.96875,-5.40625 -0.170679,-0.0012 -0.334317,-0.04279 -0.5,-0.0625 -0.798659,1.80421 -2.45235,3.13491 -4.46875,3.46875 -0.050676,-2.44015 -2.04778,-4.40625 -4.5,-4.40625 -2.484,0 -4.5,2.016 -4.5,4.5 h -7 c 0,-2.484 -2.016,-4.5 -4.5,-4.5 -2.484,0 -4.5,2.016 -4.5,4.5 h -7 c 0,-2.484 -2.016,-4.5 -4.5,-4.5 -2.484,0 -4.5,2.016 -4.5,4.5 h -7 c 0,-2.484 -2.016,-4.5 -4.5,-4.5 -2.484,0 -4.5,2.016 -4.5,4.5 h -7 c 0,-2.484 -2.016,-4.5 -4.5,-4.5 z "/>
</g>
<g id="layer4">
<rect width="66" x="15" y="15" rx="12" height="66" ry="12" style="opacity:.15;fill:url(#linearGradient2885);filter:url(#filter3794);stroke:#fff;stroke-linecap:round;stroke-width:.5;clip-path:url(#clipPath2880)" id="rect3171"/>
</g>
<g style="stroke:none" id="layer3">
<g style="fill:#300000">
<path style="opacity:.05" id="path3661" d="m 31.8438,19.0938 c -1.03207,-0.02432 -1.90745,0.553315 -2.4375,1.25 -0.499961,0.657137 -0.735955,1.44131 -0.8125,2.21875 h -0.03125 c -0.01175,0.05177 -0.0195,0.104479 -0.03125,0.15625 -3.5961,15.8429 -7.24623,31.6823 -10.8125,47.5312 a 0.986442,0.986442 0 0,0 0,0.0625 c -0.176418,1.17961 0.373569,2.26452 1.1875,2.875 0.764119,0.573122 1.74508,0.801701 2.71875,0.65625 v 0.03125 c 2.85207,-0.04031 5.80862,0.08534 8.75,-0.0625 a 0.986442,0.986442 0 0,0 0.21875,-0.0625 c 1.32998,-0.398197 2.0174,-1.53129 2.3125,-2.53125 0.295103,-0.999958 0.387657,-2.00058 0.59375,-2.59375 a 0.986442,0.986442 0 0,0 0.03125,-0.09375 l 3.9062,-16.3438 h 13.6875 c -5.61539,4.9933 -11.2673,9.97845 -16.8438,15.0312 a 0.986442,0.986442 0 0,0 -0.0625,0.0625 c -0.815524,0.88021 -0.907414,2.08751 -0.59375,3 0.300432,0.873996 0.874152,1.55359 1.46875,2.09375 0.02439,0.02645 0.03816,0.06721 0.0625,0.09375 1.82568,1.99081 3.51679,4.24634 5.59375,6.21875 a 0.986442,0.986442 0 0,0 0.21875,0.15625 c 1.1882,0.655385 2.45663,0.346501 3.375,-0.09375 0.918367,-0.440251 1.68025,-0.974215 2.25,-1.1875 a 0.986442,0.986442 0 0,0 0.15625,-0.09375 c 2.34444,-1.42494 5.22394,-1.8361 7.71875,-0.78125 a 0.986442,0.986442 0 0,0 0.0625,0.03125 c 4.9856,1.7295 10.6542,2.89695 16,0.875 a 0.986442,0.986442 0 0,0 0,-0.03125 c 2.10546,-0.809649 4.55339,-1.585 6.5,-3.25 a 0.986442,0.986442 0 0,0 0.125,-0.15625 c 0.744262,-1.01112 0.717274,-2.19121 0.53125,-3.125 -0.186024,-0.933792 -0.490332,-1.7642 -0.53125,-2.34375 a 0.986442,0.986442 0 0,0 0,-0.1875 c -0.47898,-1.89245 -0.572451,-4.09762 -1.4375,-6.25 a 0.986442,0.986442 0 0,0 -0.09375,-0.1875 c -0.656215,-0.9327 -1.74937,-1.33983 -2.71875,-1.28125 -0.91741,0.05544 -1.77261,0.466562 -2.4375,1.09375 -2.26333,1.65836 -5.10544,2.54479 -7.625,1.5 a 0.986442,0.986442 0 0,0 -0.09375,-0.03125 c -0.606827,-0.174445 -1.04977,-0.330077 -1.53125,-0.46875 4.74592,-4.02111 9.59567,-7.96446 14.3125,-12.0625 a 0.986442,0.986442 0 0,0 0.25,-0.375 c 0.898507,-2.09036 1.12821,-4.26183 1.6875,-6.15625 a 0.986442,0.986442 0 0,0 0.03125,-0.15625 c 0.06669,-0.577671 0.371018,-1.3831 0.59375,-2.28125 0.222732,-0.898154 0.341665,-2.01633 -0.28125,-3.0625 a 0.986442,0.986442 0 0,0 -0.0625,-0.09375 c -0.808613,-1.06134 -2.05439,-1.35441 -3.0625,-1.375 -1.00811,-0.02059 -1.91453,0.13644 -2.53125,0.0625 a 0.986442,0.986442 0 0,0 -0.125,-0.03125 h -31.625 l .9375,-3.625 c 7.76439,-0.01509 15.5359,0.03932 23.3125,-0.03125 a 0.986442,0.986442 0 0,0 0.1875,-0.03125 c 1.37331,-0.256075 2.14819,-1.37785 2.46875,-2.375 0.320562,-0.997145 0.391255,-2.00542 0.5625,-2.625 a 0.986442,0.986442 0 0,0 0.03125,-0.09375 c 0.35226,-2.0401 1.06608,-4.17682 1.25,-6.5 a 0.986442,0.986442 0 0,0 0,-0.125 c -0.09073,-1.15545 -0.855058,-2.05294 -1.71875,-2.46875 -0.813022,-0.391416 -1.69889,-0.4241 -2.53125,-0.3125 v -0.0625 h -33.0312 -0.03125 z "/>
<path style="opacity:.1" id="path3655" d="m 31.8438,20.0938 c -1.39443,-0.0492 -2.23339,1.40161 -2.31391,2.68546 -3.60796,15.8967 -7.26513,31.792 -10.8423,47.6895 -0.243685,1.62939 1.47826,2.70763 2.95122,2.40625 2.88946,-0.04084 5.79376,0.08226 8.67378,-0.0625 1.93324,-0.578812 1.71165,-2.92861 2.25306,-4.48686 1.36357,-5.71271 2.72713,-11.4254 4.09069,-17.1381 5.69792,0 11.3958,0 17.0938,0 -6.26198,5.59181 -12.5946,11.116 -18.8125,16.75 -1.1512,1.24252 -0.174287,2.85422 0.871154,3.77555 1.89925,2.05961 3.60498,4.33372 5.62885,6.2557 1.71223,0.944427 3.28593,-0.769746 4.82194,-1.34475 2.57797,-1.56688 5.77122,-2.03608 8.59703,-0.841281 4.89323,1.69746 10.3175,2.75732 15.3271,0.862534 2.13286,-0.820187 4.44182,-1.58627 6.19141,-3.08275 1.05449,-1.43258 -0.0626,-3.22337 -0.173794,-4.79829 -0.513641,-2.0294 -0.609051,-4.19931 -1.38871,-6.13921 -0.915696,-1.30151 -2.75405,-1.00606 -3.76322,0.02104 -2.44658,1.79264 -5.6449,2.85067 -8.58436,1.63176 -1.69049,-0.485967 -4.40628,-0.806753 -1.88478,-2.16466 4.75445,-4.02834 9.59263,-7.96529 14.2949,-12.0506 0.820495,-1.90887 1.05481,-4.06887 1.64742,-6.07615 0.179143,-1.55184 1.33564,-3.21153 0.446331,-4.7051 -1.16847,-1.53367 -3.30832,-0.740421 -4.95212,-0.9375 -10.9639,0 -21.9278,0 -32.8916,0 0.479167,-1.875 0.958333,-3.75 1.4375,-5.625 8.03039,-0.02078 16.0677,0.04159 24.0938,-0.03125 1.99928,-0.372797 1.86999,-2.7306 2.29664,-4.27427 0.3698,-2.14168 1.06365,-4.25374 1.23461,-6.41324 -0.125484,-1.59814 -1.91633,-2.13355 -3.2817,-1.90625 -11.0207,0 -22.0414,0 -33.062,0 z "/>
<path style="opacity:.15" id="path3651" d="m 31.8438,21.2188 a 1.0168,1.0168 0 0,0 -1,0.8125 l -11.0312,48.4688 a 1.0168,1.0168 0 0,0 1,1.25 h 8.96875 a 1.0168,1.0168 0 0,0 1,-0.78125 l 5,-20.9062 h 20.9375 l -20.875,18.5312 a 1.0168,1.0168 0 0,0 -0.0625,1.40625 l 5.9688,6.8125 a 1.0168,1.0168 0 0,0 1.21875,0.25 l 3.0312,-1.5625 c 2.76722,-1.41045 4.56272,-1.65706 6.25,-1.46875 1.68728,0.18831 3.32953,0.877081 5.59375,1.5 4.24188,1.16701 8.86595,2.45606 17.375,-2.40625 a 1.0168,1.0168 0 0,0 0.5,-1.0625 l -1.6562,-8.375 a 1.0168,1.0168 0 0,0 -1.59375,-0.65625 c -4.38162,3.08839 -6.89731,3.17195 -9.34375,2.5625 -1.85941,-0.463209 -3.88097,-1.32963 -6.21875,-1.84375 l 16.9062,-14.1875 a 1.0168,1.0168 0 0,0 0.34375,-0.53125 l 2.0312,-8.2812 a 1.0168,1.0168 0 0,0 -1,-1.28125 h -37.4688 l 2,-7.875 h 24.5938 a 1.0168,1.0168 0 0,0 1,-0.8125 l 1.75,-8.3125 a 1.0168,1.0168 0 0,0 -1,-1.25 h -34.2188 z "/>
<path style="opacity:.3" id="path3459" d="m 31.8383,22.2639 -11.0184,48.4531 8.9524,0 5.2004,-21.6833 24.4379,0 -22.886,20.3091 5.9661,6.8102 3.0559,-1.561 c 5.77887,-2.9455 8.20257,-1.22321 12.587,-0.01699 4.26537,1.17347 8.27523,2.42938 16.5945,-2.32449 l -1.6521,-8.3906 c -9.07925,6.39951 -11.9516,0.689889 -18.4181,0.463254 l 18.5133,-15.5296 2.0088,-8.2901 h -38.7795 l 2.4963,-9.9496 h 25.418 l 1.7431,-8.2901 h -34.2198 z "/>
</g>
<path style="fill:#fff" id="path3307" d="m 31.8383,21.2634 -11.0184,48.4531 8.9524,0 5.2004,-21.6833 24.4379,0 -22.886,20.3091 5.9661,6.8102 3.0559,-1.561 c 5.77887,-2.9455 8.20257,-1.22321 12.587,-0.01699 4.26537,1.17347 8.27523,2.42938 16.5945,-2.32449 l -1.6521,-8.3906 c -9.07925,6.39951 -11.9516,0.689889 -18.4181,0.463254 l 18.5133,-15.5296 2.0088,-8.2901 h -38.7795 l 2.4963,-9.9496 h 25.418 l 1.7431,-8.2901 h -34.2198 z "/>
</g>
</svg>
