<svg width="96" version="1.0" xmlns="http://www.w3.org/2000/svg" height="96" xmlns:xlink="http://www.w3.org/1999/xlink">
<defs id="defs2410">
<clipPath id="clipPath3613">
<rect width="84" x="6" y="6" rx="6" height="84" ry="6" style="fill:#fff;stroke:none" id="rect3615"/>
</clipPath>
<clipPath id="clipPath2920">
<path style="fill:#f0f;fill-rule:evenodd;stroke:none" id="path2922" d="m 34.3125,6 c -2.8756,0.00634 -5.80714,0.026275 -8.8125,0.0625 -24.6822,28.4969 -0.18233,46.8422 20.4375,51.2812 -21.8237,-14.1505 -4.06283,-40.5398 14.25,-51.3125 -9.01648,0.0442935 -17.2482,-0.0502635 -25.875,-0.03125 z  m 16.5938,32.4688 c 21.8237,14.1505 2.495,41.9588 -25.3438,51.3125 12.022,-0.05906 37.9161,0.0824 49.9375,-0.0625 16.8883,-29.7385 -3.97392,-46.811 -24.5938,-51.25 z "/>
</clipPath>
<filter width="1.1928995" x="-0.096449763" y="-0.10544351" height="1.210887" style="color-interpolation-filters:sRGB" id="filter3790">
<feGaussianBlur stdDeviation="2.2552138" id="feGaussianBlur3792"/>
</filter>
<filter width="1.3839999" x="-0.192" y="-0.192" height="1.3839999" style="color-interpolation-filters:sRGB" id="filter3794">
<feGaussianBlur stdDeviation="5.28" id="feGaussianBlur3796"/>
</filter>
<filter width="1.2402869" x="-0.12014347" y="-0.1054435" height="1.210887" style="color-interpolation-filters:sRGB" id="filter3795">
<feGaussianBlur stdDeviation="2.2552138" id="feGaussianBlur3797"/>
</filter>
<filter style="color-interpolation-filters:sRGB" id="filter3174">
<feGaussianBlur stdDeviation="1.71" id="feGaussianBlur3176"/>
</filter>
<linearGradient spreadMethod="reflect" id="linearGradient2916" xlink:href="#linearGradient3319" y1="31.704529" x1="28.274937" y2="5.8127055" x2="30.996277" gradientUnits="userSpaceOnUse"/>
<linearGradient spreadMethod="reflect" id="linearGradient2918" xlink:href="#linearGradient3319" y1="64.098991" x1="68.954239" y2="89.625511" x2="66.271294" gradientUnits="userSpaceOnUse"/>
<linearGradient gradientTransform="translate(0,-97)" id="linearGradient3721" xlink:href="#ButtonShadow-0" y1="6.1317081" x1="32.251034" y2="90.238609" x2="32.251034" gradientUnits="userSpaceOnUse"/>
<linearGradient gradientTransform="matrix(1.0238095,0,0,1.0119048,-1.1428571,-98.071429)" id="linearGradient3780-7" xlink:href="#ButtonShadow-0" y1="6.1317081" x1="32.251034" y2="90.238609" x2="32.251034" gradientUnits="userSpaceOnUse"/>
<linearGradient gradientTransform="matrix(1.0238095,0,0,1.0119048,-1.1428571,-98.071429)" id="linearGradient3772" xlink:href="#ButtonShadow-0" y1="6.1317081" x1="32.251034" y2="90.238609" x2="32.251034" gradientUnits="userSpaceOnUse"/>
<linearGradient gradientTransform="matrix(1.0058652,0,0,0.994169,100,0)" id="ButtonShadow-0" y1="92.539597" x1="45.447727" y2="7.0165396" x2="45.447727" gradientUnits="userSpaceOnUse">
<stop offset="0" id="stop3750-8"/>
<stop offset="1" style="stop-opacity:.588" id="stop3752-5"/>
</linearGradient>
<linearGradient gradientTransform="matrix(1.0238095,0,0,1.0119048,-1.1428571,-98.071429)" id="linearGradient3725" xlink:href="#ButtonShadow-0" y1="6.1317081" x1="32.251034" y2="90.238609" x2="32.251034" gradientUnits="userSpaceOnUse"/>
<linearGradient gradientTransform="matrix(1.0238095,0,0,1.0119048,-1.1428571,-98.071429)" id="linearGradient2969" xlink:href="#ButtonShadow-0" y1="6.1317081" x1="32.251034" y2="90.238609" x2="32.251034" gradientUnits="userSpaceOnUse"/>
<linearGradient gradientTransform="scale(1.0058652,0.994169)" id="ButtonShadow" y1="92.539597" x1="45.447727" y2="7.0165396" x2="45.447727" gradientUnits="userSpaceOnUse">
<stop offset="0" id="stop3750"/>
<stop offset="1" style="stop-opacity:.588" id="stop3752"/>
</linearGradient>
<linearGradient id="linearGradient3737">
<stop offset="0" style="stop-color:#fff" id="stop3739"/>
<stop offset="1" style="stop-color:#fff;stop-opacity:0" id="stop3741"/>
</linearGradient>
<linearGradient id="linearGradient3188" xlink:href="#linearGradient3737" y1="6" x1="36.357143" y2="63.893143" x2="36.357143" gradientUnits="userSpaceOnUse"/>
<linearGradient id="linearGradient3613" xlink:href="#linearGradient3737" y1="20.220806" x1="48" y2="138.66119" x2="48" gradientUnits="userSpaceOnUse"/>
<linearGradient id="linearGradient3387">
<stop offset="0" style="stop-color:#fdb377" id="stop3389"/>
<stop offset="0.82258064" style="stop-color:#fdb377;stop-opacity:.469" id="stop3391"/>
<stop offset="1" style="stop-color:#fdb377;stop-opacity:0" id="stop3393"/>
</linearGradient>
<linearGradient gradientTransform="matrix(1.0172414,0,0,1.0172414,-1.1034483,-1.1034483)" id="ButtonColor" y1="122" x1="58.650177" y2="5.4252338" x2="58.650177" gradientUnits="userSpaceOnUse">
<stop offset="0" style="stop-color:#242424" id="stop3189"/>
<stop offset="1" style="stop-color:#505050" id="stop3191"/>
</linearGradient>
<linearGradient id="linearGradient3319">
<stop offset="0" style="stop-color:#fdb377" id="stop3321"/>
<stop offset="1" style="stop-color:#fdb377;stop-opacity:0" id="stop3323"/>
</linearGradient>
<linearGradient id="linearGradient3617" xlink:href="#ButtonColor" y1="90" x1="48" y2="5.9877172" x2="48" gradientUnits="userSpaceOnUse"/>
<radialGradient fx="48" fy="90.171875" cx="48" cy="90.171875" gradientTransform="matrix(1.1573129,0,0,0.99590774,-7.5510206,0.19713193)" r="42" id="radialGradient3619" xlink:href="#linearGradient3737" gradientUnits="userSpaceOnUse"/>
<radialGradient fx="99.94442" fy="67.783485" cx="99.94442" cy="67.783485" gradientTransform="matrix(1,0,0,0.6034483,0,26.879657)" r="14.491941" id="radialGradient3744" xlink:href="#linearGradient3387" gradientUnits="userSpaceOnUse"/>
</defs>
<g style="display:none" id="layer2">
<rect width="86" x="5" y="7" rx="6" height="85" ry="6" style="opacity:.9;fill:url(#ButtonShadow);filter:url(#filter3174);stroke:none" id="rect3745"/>
</g>
<g style="stroke:none" id="layer4">
<path style="opacity:.08;fill:url(#linearGradient2969)" id="path3786" d="m 12,-95.0312 c -5.51109,0 -10.0312,4.52016 -10.0312,10.0312 v 71 c 0,5.51109 4.52016,10.0312 10.0312,10.0312 h 72 c 5.51109,0 10.0312,-4.52016 10.0312,-10.0312 v -71 c 0,-5.51109 -4.52016,-10.0312 -10.0312,-10.0312 h -72 z " transform="scale(1,-1)"/>
<path style="opacity:.1;fill:url(#linearGradient3780-7)" id="path3778" d="m 12,-94.0312 c -4.97163,0 -9.03125,4.05962 -9.03125,9.03125 v 71 c 0,4.97163 4.05962,9.03125 9.03125,9.03125 h 72 c 4.97163,0 9.03125,-4.05962 9.03125,-9.03125 v -71 c 0,-4.97163 -4.05962,-9.03125 -9.03125,-9.03125 h -72 z " transform="scale(1,-1)"/>
<path style="opacity:.2;fill:url(#linearGradient3772)" id="path3770" d="m 12,-93 c -4.40913,0 -8,3.59087 -8,8 v 71 c 0,4.40913 3.59087,8 8,8 h 72 c 4.40913,0 8,-3.59087 8,-8 v -71 c 0,-4.40913 -3.59087,-8 -8,-8 h -72 z " transform="scale(1,-1)"/>
<rect width="86" x="5" y="-92" rx="7" height="85" ry="7" style="opacity:.3;fill:url(#linearGradient3725)" id="rect3723" transform="scale(1,-1)"/>
<rect width="84" x="6" y="-91" rx="6" height="84" ry="6" style="opacity:.45;fill:url(#linearGradient3721)" id="rect3716" transform="scale(1,-1)"/>
</g>
<g style="stroke:none" id="layer1">
<rect width="84" x="6" y="6" rx="6" height="84" ry="6" style="fill:url(#linearGradient3617)" id="rect2419"/>
<path style="opacity:.1;fill:#c8c8c8;fill-rule:evenodd" id="path3449" d="m 12.5312,6 c -3.61055,0 -6.53125,2.9207 -6.53125,6.53125 v 36.9375 c 4.86957,-2.84176 8.57415,-3.08449 12.4688,1.03125 2.08904,2.20766 6.65771,1.52301 9.75,-0.15625 5.83315,-1.55382 5.66293,-1.45626 10.3125,0.71875 2.75024,1.4305 3.55463,0.728377 4.28125,-0.8125 2.61023,-0.202045 12.5452,6.50178 13.5312,3.03125 1.25499,-3.10803 2.24372,-1.65513 4.8125,-0.375 4.40121,3.06423 12.0786,-0.841574 17.5938,1.34375 3.87103,2.22158 9.42347,0.03455 11.2188,-4.8125 0.0141,-0.02252 0.01715,-0.03996 0.03125,-0.0625 v -36.8438 c 0,-3.61055 -2.92071,-6.53125 -6.53125,-6.53125 h -70.9375 z "/>
</g>
<g id="layer3">
<g style="stroke:none;fill-rule:evenodd">
<path id="path3427" d="m 50.8043,37.8587 c -0.238861,0.04576 -0.428904,0.244023 -0.476561,0.488057 -0.04766,0.244034 0.05664,0.484835 0.259942,0.621163 5.34795,3.4676 8.11197,7.70269 8.90302,12.268 0.791047,4.56528 -0.399313,9.5198 -3.14097,14.3755 -5.48331,9.71139 -17.1843,18.9479 -30.9764,23.582 -0.239511,0.09727 -0.381379,0.34066 -0.368251,0.598978 h 51.1436 c 8.37492,-14.8946 7.39761,-26.8549 1.62464,-35.5394 -5.80429,-8.73166 -16.3099,-14.1509 -26.7307,-16.3943 -0.07861,-0.01645 -0.159666,-0.01645 -0.23828,0 z "/>
<path id="path3309" d="m 24.7017,6.0241 c -6.00843,7.04013 -9.08259,13.5217 -9.94279,19.367 -0.875827,5.95145 0.565448,11.2236 3.44423,15.6844 5.75757,8.92162 17.1666,14.6368 27.5972,16.8823 0.28575,0.04394 0.563316,-0.124927 0.671518,-0.399319 0.108201,-0.27439 0.01878,-0.582661 -0.216619,-0.754269 -5.34947,-3.46859 -8.1943,-7.62591 -9.27127,-12.0905 -1.07697,-4.46459 -0.36054,-9.27762 1.60298,-14.0427 3.92703,-9.53022 12.8591,-18.7737 21.9001,-24.0923 0.199582,-0.114207 0.323343,-0.328757 0.324928,-0.55461 h -36.1103 z "/>
<path style="fill:#e72121" id="path3299" d="m 25.5032,6.0685 c -24.6822,28.4969 -0.192708,46.8291 20.4271,51.2682 -21.8237,-14.1505 -4.05934,-40.5398 14.2535,-51.3125 -12.022,0.059058 -22.6592,-0.10053 -34.6806,0.0443688 z "/>
</g>
<path style="fill:#e00;stroke:#000;stroke-linejoin:round;stroke-linecap:square;stroke-width:1.426" id="path3301" d="m 114.4364,67.7835 a 14.4919,8.74514 0 1,1 -28.9839,0 14.4919,8.74514 0 1,1 28.9839,0 z " transform="matrix(0.49015172,0.50197571,-0.49015172,0.50197571,32.614386,-36.287054)"/>
<g style="stroke:none">
<g style="fill-rule:evenodd">
<path style="opacity:.3;fill:#fff" id="path3351" d="m 41.8578,51.7011 c -12.8476,-10.0038 1.90425,-35.7415 16.7784,-42.5188 -21.5958,15.3787 -25.0374,35.0655 -16.7784,42.5188 z "/>
<path style="opacity:.3" id="path3353" d="m 49.1448,39.3468 c -9.44399,-5.45472 -11.2896,-1.28227 -9.85882,5.76951 -0.371674,-3.64606 -0.04749,-9.27637 9.85882,-5.76951 z "/>
<path style="opacity:.3;fill:#fff" id="path3355" d="m 47.6726,56.4128 c 9.44399,5.45472 11.2896,1.28227 9.85882,-5.76951 0.371674,3.64606 0.04748,9.27637 -9.85882,5.76951 z "/>
<path style="opacity:.3" id="path3357" d="m 31.9593,53.302 c -18.8201,-5.56172 -28.7372,-26.6167 -11.8234,-42.7639 -14.8754,20.7392 -2.80693,36.3584 11.8234,42.7639 z "/>
</g>
<path style="fill:url(#radialGradient3744)" id="path3367" d="m 114.4364,67.7835 a 14.4919,8.74514 0 1,1 -28.9839,0 14.4919,8.74514 0 1,1 28.9839,0 z " transform="matrix(0.49738705,0.50938559,-0.49738705,0.50938559,32.38169,-37.5299)"/>
<g style="fill-rule:evenodd">
<path style="fill:#e72121" id="path3399" d="m 75.5074,89.7297 c 16.8883,-29.7385 -3.96637,-46.8291 -24.5862,-51.2681 21.8237,14.1505 2.49438,41.9588 -25.3444,51.3125 12.022,-0.05906 37.9091,0.100529 49.9306,-0.04437 z "/>
<path style="opacity:.3" id="path3405" d="m 54.9937,44.097 c 12.8476,10.0038 -3.28984,33.613 -21.2815,40.5677 22.8082,-13.4275 30.4065,-31.1633 21.2815,-40.5677 z "/>
<path style="opacity:.2;fill:#fff" id="path3407" d="m 64.8923,42.4961 c 18.8201,5.56172 25.966,28.5678 13.209,45.6019 11.931,-21.8035 1.42134,-39.1964 -13.209,-45.6019 z "/>
<g style="opacity:.8;clip-path:url(#clipPath2920)" id="g2912">
<path style="fill:url(#linearGradient2916);filter:url(#filter3795)" id="path2907" d="m 52.4062,8.4688 c -8.57577,-0.0127561 -16.8921,-0.0606759 -25.7188,0.03125 -5.45319,6.52074 -8.14116,12.3504 -8.875,17.3438 -0.766103,5.21289 0.432799,9.63326 2.96875,13.5625 3.42153,5.30137 9.49409,9.44899 16.0625,12.3125 -1.29605,-2.00206 -2.31723,-4.09918 -2.84375,-6.28125 -1.26938,-5.26067 -0.39256,-10.7368 1.75,-15.9375 3.29485,-7.99775 9.56967,-15.4352 16.6562,-21.0312 z "/>
<path style="fill:url(#linearGradient2918);filter:url(#filter3790)" id="path2903" d="m 59.0938,43.3125 c 1.60382,2.32946 2.64215,4.86265 3.09375,7.46875 0.927705,5.35359 -0.500792,10.9309 -3.46875,16.1875 -4.54252,8.04539 -12.7423,15.4699 -22.7812,20.6875 12.7205,0.0024 28.5073,0.03673 38.2188,-0.0625 7.50956,-13.8361 6.45727,-24.1266 1.34375,-31.8125 -3.69312,-5.55094 -9.72879,-9.70871 -16.4062,-12.4688 z "/>
</g>
</g>
</g>
</g>
<g id="layer5">
<rect width="66" x="15" y="15" rx="12" height="66" ry="12" style="opacity:.1;fill:url(#linearGradient3613);filter:url(#filter3794);stroke:#fff;stroke-linecap:round;stroke-width:.5;clip-path:url(#clipPath3613)" id="rect3171"/>
<g style="stroke:none">
<path style="opacity:.2;fill:url(#radialGradient3619)" id="path3615" d="M 12,90 C 8.676,90 6,87.324 6,84 L 6,82 6,14 6,12 c 0,-0.334721 0.04135,-0.6507 0.09375,-0.96875 0.0487,-0.295596 0.09704,-0.596915 0.1875,-0.875 C 6.29113,10.12587 6.302142,10.09265 6.3125,10.0625 6.411365,9.774729 6.5473802,9.515048 6.6875,9.25 6.8320918,8.976493 7.0031161,8.714385 7.1875,8.46875 7.3718839,8.223115 7.5612765,7.995278 7.78125,7.78125 8.221197,7.353194 8.72416,6.966724 9.28125,6.6875 9.559795,6.547888 9.8547231,6.440553 10.15625,6.34375 9.9000482,6.443972 9.6695391,6.580022 9.4375,6.71875 c -0.00741,0.0044 -0.023866,-0.0045 -0.03125,0 -0.031933,0.0193 -0.062293,0.04251 -0.09375,0.0625 -0.120395,0.0767 -0.2310226,0.163513 -0.34375,0.25 -0.1061728,0.0808 -0.2132809,0.161112 -0.3125,0.25 C 8.4783201,7.442683 8.3087904,7.626638 8.15625,7.8125 8.0486711,7.942755 7.9378561,8.077785 7.84375,8.21875 7.818661,8.25713 7.805304,8.30462 7.78125,8.34375 7.716487,8.446782 7.6510225,8.548267 7.59375,8.65625 7.4927417,8.850956 7.3880752,9.071951 7.3125,9.28125 7.30454,9.30306 7.288911,9.3218 7.28125,9.34375 7.2494249,9.4357 7.2454455,9.530581 7.21875,9.625 7.1884177,9.731618 7.1483606,9.828031 7.125,9.9375 7.0521214,10.279012 7,10.635705 7,11 l 0,2 0,68 0,2 c 0,2.781848 2.2181517,5 5,5 l 2,0 68,0 2,0 c 2.781848,0 5,-2.218152 5,-5 l 0,-2 0,-68 0,-2 C 89,10.635705 88.94788,10.279012 88.875,9.9375 88.83085,9.730607 88.78662,9.539842 88.71875,9.34375 88.71105,9.3218 88.69545,9.30306 88.6875,9.28125 88.62476,9.107511 88.549117,8.913801 88.46875,8.75 88.42717,8.6672 88.38971,8.580046 88.34375,8.5 88.28915,8.40279 88.216976,8.31165 88.15625,8.21875 88.06214,8.077785 87.951329,7.942755 87.84375,7.8125 87.700576,7.63805 87.540609,7.465502 87.375,7.3125 87.36383,7.3023 87.35502,7.29135 87.34375,7.28125 87.205364,7.155694 87.058659,7.046814 86.90625,6.9375 86.803679,6.86435 86.701932,6.784136 86.59375,6.71875 c -0.0074,-0.0045 -0.02384,0.0044 -0.03125,0 -0.232039,-0.138728 -0.462548,-0.274778 -0.71875,-0.375 0.301527,0.0968 0.596455,0.204138 0.875,0.34375 0.55709,0.279224 1.060053,0.665694 1.5,1.09375 0.219973,0.214028 0.409366,0.441865 0.59375,0.6875 0.184384,0.245635 0.355408,0.507743 0.5,0.78125 0.14012,0.265048 0.276135,0.524729 0.375,0.8125 0.01041,0.03078 0.02133,0.06274 0.03125,0.09375 0.09046,0.278085 0.1388,0.579404 0.1875,0.875 C 89.95865,11.3493 90,11.665279 90,12 l 0,2 0,68 0,2 c 0,3.324 -2.676,6 -6,6 l -72,0 z"/>
<path style="opacity:.3;fill:url(#linearGradient3188)" id="rect3728" d="m 12,6 c -3.324,0 -6,2.676 -6,6 v 2 68 2 c 0,0.334721 0.04135,0.6507 0.09375,0.96875 0.0487,0.295596 0.09704,0.596915 0.1875,0.875 0.00988,0.03038 0.020892,0.0636 0.03125,0.09375 0.098865,0.287771 0.23488,0.547452 0.375,0.8125 0.144592,0.273507 0.315616,0.535615 0.5,0.78125 0.184384,0.245635 0.373776,0.473472 0.59375,0.6875 0.439947,0.428056 0.94291,0.814526 1.5,1.09375 0.278545,0.139612 0.573473,0.246947 0.875,0.34375 -0.256202,-0.100222 -0.486711,-0.236272 -0.71875,-0.375 -0.00741,-0.0044 -0.023866,0.0045 -0.03125,0 -0.031933,-0.0193 -0.062293,-0.04251 -0.09375,-0.0625 -0.120395,-0.0767 -0.231023,-0.163513 -0.34375,-0.25 -0.106173,-0.0808 -0.213281,-0.161112 -0.3125,-0.25 -0.17793,-0.161433 -0.34746,-0.345388 -0.5,-0.53125 -0.107579,-0.130255 -0.218394,-0.265285 -0.3125,-0.40625 -0.025089,-0.03838 -0.038446,-0.08587 -0.0625,-0.125 -0.064763,-0.103032 -0.130228,-0.204517 -0.1875,-0.3125 -0.101008,-0.194706 -0.205675,-0.415701 -0.28125,-0.625 -0.00796,-0.02181 -0.023589,-0.04055 -0.03125,-0.0625 -0.0318251,-0.09195 -0.0358045,-0.186831 -0.0625,-0.28125 -0.0303323,-0.106618 -0.0703894,-0.203031 -0.09375,-0.3125 -0.0728786,-0.341512 -0.125,-0.698205 -0.125,-1.0625 v -2 -68 -2 c 0,-2.78185 2.21815,-5 5,-5 h 2 68 2 c 2.78185,0 5,2.21815 5,5 v 2 68 2 c 0,0.364295 -0.05212,0.720988 -0.125,1.0625 -0.04415,0.206893 -0.08838,0.397658 -0.15625,0.59375 -0.0077,0.02195 -0.0233,0.04069 -0.03125,0.0625 -0.06274,0.173739 -0.138383,0.367449 -0.21875,0.53125 -0.04158,0.0828 -0.07904,0.169954 -0.125,0.25 -0.0546,0.09721 -0.126774,0.18835 -0.1875,0.28125 -0.09411,0.140965 -0.204921,0.275995 -0.3125,0.40625 -0.143174,0.17445 -0.303141,0.346998 -0.46875,0.5 -0.01117,0.0102 -0.01998,0.02115 -0.03125,0.03125 -0.138386,0.125556 -0.285091,0.234436 -0.4375,0.34375 -0.102571,0.07315 -0.204318,0.153364 -0.3125,0.21875 -0.0074,0.0045 -0.02384,-0.0044 -0.03125,0 -0.232039,0.138728 -0.462548,0.274778 -0.71875,0.375 0.301527,-0.0968 0.596455,-0.204138 0.875,-0.34375 0.55709,-0.279224 1.06005,-0.665694 1.5,-1.09375 0.219973,-0.214028 0.409366,-0.441865 0.59375,-0.6875 0.184384,-0.245635 0.355408,-0.507743 0.5,-0.78125 0.14012,-0.265048 0.276135,-0.524729 0.375,-0.8125 0.01041,-0.03078 0.02133,-0.06274 0.03125,-0.09375 0.09046,-0.278085 0.1388,-0.579404 0.1875,-0.875 0.0524,-0.31805 0.09375,-0.634029 0.09375,-0.96875 v -2 -68 -2 c 0,-3.324 -2.676,-6 -6,-6 h -72 z "/>
</g>
</g>
</svg>
