<svg width="96" version="1.0" xmlns="http://www.w3.org/2000/svg" height="96" xmlns:xlink="http://www.w3.org/1999/xlink">
<defs id="defs2410">
<clipPath id="clipPath3613">
<rect width="84" x="6" y="6" rx="6" height="84" ry="6" style="fill:#fff;stroke:none" id="rect3615"/>
</clipPath>
<filter style="color-interpolation-filters:sRGB" id="filter3174">
<feGaussianBlur stdDeviation="1.71" id="feGaussianBlur3176"/>
</filter>
<filter width="1.3839999" x="-0.192" y="-0.192" height="1.3839999" style="color-interpolation-filters:sRGB" id="filter3794">
<feGaussianBlur stdDeviation="5.28" id="feGaussianBlur3796"/>
</filter>
<linearGradient gradientTransform="matrix(1.0058652,0,0,0.994169,100,0)" id="ButtonShadow-0" y1="92.539597" x1="45.447727" y2="7.0165396" x2="45.447727" gradientUnits="userSpaceOnUse">
<stop offset="0" id="stop3750-8"/>
<stop offset="1" style="stop-opacity:.588" id="stop3752-5"/>
</linearGradient>
<linearGradient gradientTransform="matrix(1.0238095,0,0,1.0119048,-1.1428571,-98.071429)" id="linearGradient3780" xlink:href="#ButtonShadow-0" y1="6.1317081" x1="32.251034" y2="90.238609" x2="32.251034" gradientUnits="userSpaceOnUse"/>
<linearGradient gradientTransform="matrix(1.0238095,0,0,1.0119048,-1.1428571,-98.071429)" id="linearGradient3772" xlink:href="#ButtonShadow-0" y1="6.1317081" x1="32.251034" y2="90.238609" x2="32.251034" gradientUnits="userSpaceOnUse"/>
<linearGradient gradientTransform="matrix(1.0238095,0,0,1.0119048,-1.1428571,-98.071429)" id="linearGradient3725" xlink:href="#ButtonShadow-0" y1="6.1317081" x1="32.251034" y2="90.238609" x2="32.251034" gradientUnits="userSpaceOnUse"/>
<linearGradient gradientTransform="translate(0,-97)" id="linearGradient3721" xlink:href="#ButtonShadow-0" y1="6.1317081" x1="32.251034" y2="90.238609" x2="32.251034" gradientUnits="userSpaceOnUse"/>
<linearGradient id="linearGradient3617" xlink:href="#linearGradient3692" y1="90" x1="48" y2="5.9877172" x2="48" gradientUnits="userSpaceOnUse"/>
<linearGradient id="linearGradient3692">
<stop offset="0" style="stop-color:#2f7d9e" id="stop3694"/>
<stop offset="1" style="stop-color:#54a8cc" id="stop3696"/>
</linearGradient>
<linearGradient gradientTransform="scale(1.0058652,0.994169)" id="ButtonShadow" y1="92.539597" x1="45.447727" y2="7.0165396" x2="45.447727" gradientUnits="userSpaceOnUse">
<stop offset="0" id="stop3750"/>
<stop offset="1" style="stop-opacity:.588" id="stop3752"/>
</linearGradient>
<linearGradient id="linearGradient3188" xlink:href="#linearGradient3737" y1="6" x1="36.357143" y2="63.893143" x2="36.357143" gradientUnits="userSpaceOnUse"/>
<linearGradient id="linearGradient3737">
<stop offset="0" style="stop-color:#fff" id="stop3739"/>
<stop offset="1" style="stop-color:#fff;stop-opacity:0" id="stop3741"/>
</linearGradient>
<linearGradient id="linearGradient3613" xlink:href="#linearGradient3737" y1="20.220806" x1="48" y2="138.66119" x2="48" gradientUnits="userSpaceOnUse"/>
<linearGradient gradientTransform="matrix(1.0238095,0,0,1.0119048,-1.1428571,-98.071429)" id="linearGradient3026" xlink:href="#ButtonShadow-0" y1="6.1317081" x1="32.251034" y2="90.238609" x2="32.251034" gradientUnits="userSpaceOnUse"/>
<radialGradient fx="48" fy="90.171875" cx="48" cy="90.171875" gradientTransform="matrix(1.1573129,0,0,0.99590774,-7.5510206,0.19713193)" r="42" id="radialGradient3619" xlink:href="#linearGradient3737" gradientUnits="userSpaceOnUse"/>
</defs>
<g style="display:none" id="layer2">
<rect width="86" x="5" y="7" rx="6" height="85" ry="6" style="opacity:.9;fill:url(#ButtonShadow);filter:url(#filter3174);stroke:none" id="rect3745"/>
</g>
<g style="stroke:none" id="layer3">
<path style="opacity:.08;fill:url(#linearGradient3026)" id="path3786" d="m 12,-95.0312 c -5.51109,0 -10.0312,4.52016 -10.0312,10.0312 v 71 c 0,5.51109 4.52016,10.0312 10.0312,10.0312 h 72 c 5.51109,0 10.0312,-4.52016 10.0312,-10.0312 v -71 c 0,-5.51109 -4.52016,-10.0312 -10.0312,-10.0312 h -72 z " transform="scale(1,-1)"/>
<path style="opacity:.1;fill:url(#linearGradient3780)" id="path3778" d="m 12,-94.0312 c -4.97163,0 -9.03125,4.05962 -9.03125,9.03125 v 71 c 0,4.97163 4.05962,9.03125 9.03125,9.03125 h 72 c 4.97163,0 9.03125,-4.05962 9.03125,-9.03125 v -71 c 0,-4.97163 -4.05962,-9.03125 -9.03125,-9.03125 h -72 z " transform="scale(1,-1)"/>
<path style="opacity:.2;fill:url(#linearGradient3772)" id="path3770" d="m 12,-93 c -4.40913,0 -8,3.59087 -8,8 v 71 c 0,4.40913 3.59087,8 8,8 h 72 c 4.40913,0 8,-3.59087 8,-8 v -71 c 0,-4.40913 -3.59087,-8 -8,-8 h -72 z " transform="scale(1,-1)"/>
<rect width="86" x="5" y="-92" rx="7" height="85" ry="7" style="opacity:.3;fill:url(#linearGradient3725)" id="rect3723" transform="scale(1,-1)"/>
<rect width="84" x="6" y="-91" rx="6" height="84" ry="6" style="opacity:.45;fill:url(#linearGradient3721)" id="rect3716" transform="scale(1,-1)"/>
</g>
<g style="stroke:none" id="layer1">
<rect width="84" x="6" y="6" rx="6" height="84" ry="6" style="fill:url(#linearGradient3617)" id="rect2419"/>
<path style="opacity:.4;fill:url(#linearGradient3188)" id="rect3728" d="m 12,6 c -3.324,0 -6,2.676 -6,6 v 2 68 2 c 0,0.334721 0.04135,0.6507 0.09375,0.96875 0.0487,0.295596 0.09704,0.596915 0.1875,0.875 0.00988,0.03038 0.020892,0.0636 0.03125,0.09375 0.098865,0.287771 0.23488,0.547452 0.375,0.8125 0.144592,0.273507 0.315616,0.535615 0.5,0.78125 0.184384,0.245635 0.373776,0.473472 0.59375,0.6875 0.439947,0.428056 0.94291,0.814526 1.5,1.09375 0.278545,0.139612 0.573473,0.246947 0.875,0.34375 -0.256202,-0.100222 -0.486711,-0.236272 -0.71875,-0.375 -0.00741,-0.0044 -0.023866,0.0045 -0.03125,0 -0.031933,-0.0193 -0.062293,-0.04251 -0.09375,-0.0625 -0.120395,-0.0767 -0.231023,-0.163513 -0.34375,-0.25 -0.106173,-0.0808 -0.213281,-0.161112 -0.3125,-0.25 -0.17793,-0.161433 -0.34746,-0.345388 -0.5,-0.53125 -0.107579,-0.130255 -0.218394,-0.265285 -0.3125,-0.40625 -0.025089,-0.03838 -0.038446,-0.08587 -0.0625,-0.125 -0.064763,-0.103032 -0.130228,-0.204517 -0.1875,-0.3125 -0.101008,-0.194706 -0.205675,-0.415701 -0.28125,-0.625 -0.00796,-0.02181 -0.023589,-0.04055 -0.03125,-0.0625 -0.0318251,-0.09195 -0.0358045,-0.186831 -0.0625,-0.28125 -0.0303323,-0.106618 -0.0703894,-0.203031 -0.09375,-0.3125 -0.0728786,-0.341512 -0.125,-0.698205 -0.125,-1.0625 v -2 -68 -2 c 0,-2.78185 2.21815,-5 5,-5 h 2 68 2 c 2.78185,0 5,2.21815 5,5 v 2 68 2 c 0,0.364295 -0.05212,0.720988 -0.125,1.0625 -0.04415,0.206893 -0.08838,0.397658 -0.15625,0.59375 -0.0077,0.02195 -0.0233,0.04069 -0.03125,0.0625 -0.06274,0.173739 -0.138383,0.367449 -0.21875,0.53125 -0.04158,0.0828 -0.07904,0.169954 -0.125,0.25 -0.0546,0.09721 -0.126774,0.18835 -0.1875,0.28125 -0.09411,0.140965 -0.204921,0.275995 -0.3125,0.40625 -0.143174,0.17445 -0.303141,0.346998 -0.46875,0.5 -0.01117,0.0102 -0.01998,0.02115 -0.03125,0.03125 -0.138386,0.125556 -0.285091,0.234436 -0.4375,0.34375 -0.102571,0.07315 -0.204318,0.153364 -0.3125,0.21875 -0.0074,0.0045 -0.02384,-0.0044 -0.03125,0 -0.232039,0.138728 -0.462548,0.274778 -0.71875,0.375 0.301527,-0.0968 0.596455,-0.204138 0.875,-0.34375 0.55709,-0.279224 1.06005,-0.665694 1.5,-1.09375 0.219973,-0.214028 0.409366,-0.441865 0.59375,-0.6875 0.184384,-0.245635 0.355408,-0.507743 0.5,-0.78125 0.14012,-0.265048 0.276135,-0.524729 0.375,-0.8125 0.01041,-0.03078 0.02133,-0.06274 0.03125,-0.09375 0.09046,-0.278085 0.1388,-0.579404 0.1875,-0.875 0.0524,-0.31805 0.09375,-0.634029 0.09375,-0.96875 v -2 -68 -2 c 0,-3.324 -2.676,-6 -6,-6 h -72 z "/>
<path style="opacity:.2;fill:url(#radialGradient3619)" id="path3615" d="M 12,90 C 8.676,90 6,87.324 6,84 L 6,82 6,14 6,12 c 0,-0.334721 0.04135,-0.6507 0.09375,-0.96875 0.0487,-0.295596 0.09704,-0.596915 0.1875,-0.875 C 6.29113,10.12587 6.302142,10.09265 6.3125,10.0625 6.411365,9.774729 6.5473802,9.515048 6.6875,9.25 6.8320918,8.976493 7.0031161,8.714385 7.1875,8.46875 7.3718839,8.223115 7.5612765,7.995278 7.78125,7.78125 8.221197,7.353194 8.72416,6.966724 9.28125,6.6875 9.559795,6.547888 9.8547231,6.440553 10.15625,6.34375 9.9000482,6.443972 9.6695391,6.580022 9.4375,6.71875 c -0.00741,0.0044 -0.023866,-0.0045 -0.03125,0 -0.031933,0.0193 -0.062293,0.04251 -0.09375,0.0625 -0.120395,0.0767 -0.2310226,0.163513 -0.34375,0.25 -0.1061728,0.0808 -0.2132809,0.161112 -0.3125,0.25 C 8.4783201,7.442683 8.3087904,7.626638 8.15625,7.8125 8.0486711,7.942755 7.9378561,8.077785 7.84375,8.21875 7.818661,8.25713 7.805304,8.30462 7.78125,8.34375 7.716487,8.446782 7.6510225,8.548267 7.59375,8.65625 7.4927417,8.850956 7.3880752,9.071951 7.3125,9.28125 7.30454,9.30306 7.288911,9.3218 7.28125,9.34375 7.2494249,9.4357 7.2454455,9.530581 7.21875,9.625 7.1884177,9.731618 7.1483606,9.828031 7.125,9.9375 7.0521214,10.279012 7,10.635705 7,11 l 0,2 0,68 0,2 c 0,2.781848 2.2181517,5 5,5 l 2,0 68,0 2,0 c 2.781848,0 5,-2.218152 5,-5 l 0,-2 0,-68 0,-2 C 89,10.635705 88.94788,10.279012 88.875,9.9375 88.83085,9.730607 88.78662,9.539842 88.71875,9.34375 88.71105,9.3218 88.69545,9.30306 88.6875,9.28125 88.62476,9.107511 88.549117,8.913801 88.46875,8.75 88.42717,8.6672 88.38971,8.580046 88.34375,8.5 88.28915,8.40279 88.216976,8.31165 88.15625,8.21875 88.06214,8.077785 87.951329,7.942755 87.84375,7.8125 87.700576,7.63805 87.540609,7.465502 87.375,7.3125 87.36383,7.3023 87.35502,7.29135 87.34375,7.28125 87.205364,7.155694 87.058659,7.046814 86.90625,6.9375 86.803679,6.86435 86.701932,6.784136 86.59375,6.71875 c -0.0074,-0.0045 -0.02384,0.0044 -0.03125,0 -0.232039,-0.138728 -0.462548,-0.274778 -0.71875,-0.375 0.301527,0.0968 0.596455,0.204138 0.875,0.34375 0.55709,0.279224 1.060053,0.665694 1.5,1.09375 0.219973,0.214028 0.409366,0.441865 0.59375,0.6875 0.184384,0.245635 0.355408,0.507743 0.5,0.78125 0.14012,0.265048 0.276135,0.524729 0.375,0.8125 0.01041,0.03078 0.02133,0.06274 0.03125,0.09375 0.09046,0.278085 0.1388,0.579404 0.1875,0.875 C 89.95865,11.3493 90,11.665279 90,12 l 0,2 0,68 0,2 c 0,3.324 -2.676,6 -6,6 l -72,0 z"/>
</g>
<g id="layer5">
<rect width="66" x="15" y="15" rx="12" height="66" ry="12" style="opacity:.1;fill:url(#linearGradient3613);filter:url(#filter3794);stroke:#fff;stroke-linecap:round;stroke-width:.5;clip-path:url(#clipPath3613)" id="rect3171"/>
</g>
<g id="layer4">
<path style="opacity:.05" id="path3759" d="m 42.8125,15.9688 a 1.08975,1.08975 0 0,0 -0.15625,0.03125 c 0.0048,-0.001 -0.160936,0.03262 -0.15625,0.03125 0.0047,-0.0014 -0.129571,0.06421 -0.125,0.0625 0.0046,-0.0017 -0.16068,0.0333 -0.15625,0.03125 0.0012,-0.000574 -0.01606,0.02348 -0.03125,0.03125 -1.95882,0.840944 -4.29411,0.80357 -7.40625,1.59375 -0.01134,0.0029 -0.01989,-0.0029 -0.03125,0 -0.01676,0.0035 -0.01387,-0.0045 -0.03125,0 -9.59402,2.21474 -18.1474,9.20422 -21.125,18.875 a 1.08975,1.08975 0 0,0 -0.1875,0.375 c -0.820272,2.99947 -1.86023,6.90659 0.125,10.5938 -0.155917,-0.289573 -0.133396,-0.259333 0.0625,0.09375 a 1.08975,1.08975 0 0,0 0.1875,0.25 c 2.26558,4.77731 7.0365,8.29096 12.4688,8.4375 -0.05616,-0.0015 0.108064,-0.0054 0.09375,0 -0.04453,0.01689 -0.08656,0.06358 0.28125,0.0625 a 1.08975,1.08975 0 0,0 0.21875,-0.03125 c 0.455337,0.05738 0.901218,0.102649 1.3125,0.03125 0.335996,2.10339 1.2615,3.97191 2.6875,5.3125 1.64607,1.54748 3.73769,2.54952 5.8125,3.0625 0.0093,0.0023 0.02199,-0.0023 0.03125,0 0.0075,0.0027 0.03477,0.02222 0.0625,0.03125 0.01232,0.004 0.01487,-0.0051 0.03125,0 2.59561,0.806956 5.21489,0.864633 7.75,0.71875 0.07699,0.230109 0.102486,0.541223 0.1875,0.71875 0.218216,0.455681 0.436932,0.870861 0.625,1.1875 0.179616,0.302408 0.325415,0.521977 0.3125,0.46875 -0.000608,-0.0025 0.0013,0.03528 0,0.03125 0.0022,0.0091 0.000223,0.03207 0,0.03125 -0.00095,-0.0035 0.03239,0.09717 0.03125,0.09375 -0.0011,-0.0034 0.03258,0.0971 0.03125,0.09375 -0.0013,-0.0034 0.03276,0.128275 0.03125,0.125 a 1.08975,1.08975 0 0,0 0.0625,0.09375 c 0.391082,0.648481 0.782408,1.63059 1.34375,2.6875 0.493371,0.928931 1.28845,1.83402 2.34375,2.5625 0.01789,0.01235 0.01316,0.05029 0.03125,0.0625 a 1.08975,1.08975 0 0,0 0.03125,0.03125 1.08975,1.08975 0 0,0 0.21875,0.25 c 0.655315,0.49274 1.23989,0.831509 1.5,1.0625 0.309131,0.274521 0.281891,0.274586 0.3125,0.5 a 1.08975,1.08975 0 0,0 0.03125,0 c -0.000624,-0.0041 0.000885,0.12906 0,0.125 -0.000885,-0.0041 0.03239,0.128995 0.03125,0.125 -0.0011,-0.004 0.03264,0.128914 0.03125,0.125 -0.0011,-0.0031 0.05078,0.0637 0.0625,0.09375 0.0032,0.0076 -0.0032,0.02362 0,0.03125 0.558298,1.34337 1.0175,3.03893 1.90625,4.75 -0.000412,-0.000845 -0.0043,0.02321 0,0.03125 0.01722,0.03214 0.06439,0.097 0.0625,0.09375 -0.0024,-0.0041 0.06514,0.128883 0.0625,0.125 -0.0026,-0.0039 0.09667,0.128683 0.09375,0.125 -0.0029,-0.0037 0.09692,0.09721 0.09375,0.09375 -0.0032,-0.0035 0.09717,0.128225 0.09375,0.125 -0.0034,-0.0032 0.128639,0.09672 0.125,0.09375 -0.0036,-0.003 0.09759,0.0652 0.09375,0.0625 -0.0038,-0.0027 0.129028,0.09617 0.125,0.09375 a 1.08975,1.08975 0 0,0 0.03125,0 c 1.361,0.779043 2.78803,0.473836 3.6875,0.125 0.792022,-0.307166 1.39729,-0.630131 1.5625,-0.6875 -0.0029,0.00029 0.05116,-0.02542 0.09375,-0.03125 0.0017,-0.000433 0.02987,0.000271 0.03125,0 0.0084,-0.0011 0.03214,-0.000156 0.03125,0 -0.0046,0.000809 0.16082,-0.03239 0.15625,-0.03125 -0.0046,0.0011 0.129475,-0.03272 0.125,-0.03125 -0.0045,0.0015 0.129357,-0.06429 0.125,-0.0625 a 1.08975,1.08975 0 0,0 0.0625,-0.03125 c 0.314377,-0.155066 1.03194,-0.334057 1.84375,-0.59375 0.840054,-0.268729 1.9168,-0.720835 2.75,-1.71875 -0.0023,0.0028 0.06466,-0.09668 0.0625,-0.09375 -0.0022,0.0029 0.0645,-0.06555 0.0625,-0.0625 -0.002,0.003 0.06432,-0.0969 0.0625,-0.09375 -0.0018,0.0032 0.06414,-0.128248 0.0625,-0.125 -0.0016,0.0032 0.03271,-0.09709 0.03125,-0.09375 -0.0015,0.0033 0.03252,-0.09716 0.03125,-0.09375 -0.0013,0.0034 0.06358,-0.09723 0.0625,-0.09375 -0.0011,0.0035 0.03213,-0.128532 0.03125,-0.125 -0.000883,0.0035 0.000684,-0.09732 0,-0.09375 -0.000684,0.0036 0.03173,-0.128608 0.03125,-0.125 -0.000484,0.0036 0.000281,-0.09738 0,-0.09375 -0.000281,0.0036 7.8e-05,-0.12864 0,-0.125 -7.8e-05,0.0036 -0.000125,-0.09739 0,-0.09375 0.000125,0.0036 -0.000328,-0.128626 0,-0.125 0.000328,0.0036 -0.00053,-0.128602 0,-0.125 0.00053,0.0036 -0.03198,-0.09732 -0.03125,-0.09375 -0.341835,-1.60457 -0.999485,-3.05075 -1.71875,-4.40625 1.88757,0.111032 3.72569,0.01846 5.375,-0.21875 a 1.08975,1.08975 0 0,0 0.09375,0 1.08975,1.08975 0 0,0 0.09375,-0.03125 c 4.86536,-0.9338 9.49863,-4.45046 10.5312,-9.71875 -0.0035,0.0065 -0.0038,-0.05647 0,-0.0625 0.01013,-0.01763 0.04484,-0.08626 0.0625,-0.125 0.0049,-0.01702 -0.0046,-0.01115 0,-0.03125 -0.000984,-0.01171 0.03016,-0.208374 0,-0.03125 0.02678,-0.06896 0.0454,-0.07504 0.0625,-0.1875 a 1.08975,1.08975 0 0,0 0,-0.3125 1.08975,1.08975 0 0,0 0,-0.125 c 0.249395,-1.2964 0.0483,-2.45582 -0.0625,-3.15625 -0.0666,-0.420986 -0.06603,-0.73551 -0.0625,-0.78125 0.00014,-0.0018 -0.000154,-0.03035 0,-0.03125 0.02554,-0.02094 0.06408,-0.03263 0.0625,-0.03125 -0.0032,0.0028 0.09673,-0.09672 0.09375,-0.09375 -0.003,0.003 0.09653,-0.0969 0.09375,-0.09375 -0.0028,0.0032 0.09632,-0.09707 0.09375,-0.09375 -0.0026,0.0033 0.06485,-0.09723 0.0625,-0.09375 -0.0024,0.0035 0.06462,-0.128626 0.0625,-0.125 -0.0021,0.0036 0.06438,-0.09751 0.0625,-0.09375 -0.0019,0.0038 0.06414,-0.128869 0.0625,-0.125 -0.0016,0.0039 0.06388,-0.128967 0.0625,-0.125 -0.0014,0.004 0.03238,-0.129048 0.03125,-0.125 -0.0011,0.004 0.03211,-0.129112 0.03125,-0.125 -0.000863,0.0041 0.000596,-0.129159 0,-0.125 -0.00028,0.002 -0.0034,-0.03172 0,-0.0625 0.02306,-0.006 0.03843,0.0059 0.0625,0 0.379931,-0.09346 1.27551,-0.245495 2.03125,-0.9375 0.695156,-0.636531 0.873942,-1.50762 0.90625,-2.375 a 1.08975,1.08975 0 0,0 0,-0.03125 1.08975,1.08975 0 0,0 0.09375,-0.40625 c 0.000511,0.0119 -0.0013,-0.06165 0,-0.0625 0.01218,-0.09522 -0.01017,-0.156848 0,-0.25 0.230119,-2.10757 -0.01276,-3.73063 0,-5.65625 a 1.08975,1.08975 0 0,0 -0.03125,-0.21875 c -0.0021,-0.0196 0.0021,-0.04287 0,-0.0625 0.000948,0.0035 -0.03239,-0.128417 -0.03125,-0.125 -0.338807,-3.10301 -0.848443,-6.58809 -1.9375,-9.53125 0.000319,0.000923 0.0039,-0.02119 0,-0.03125 -0.01255,-0.03269 -0.03248,-0.09668 -0.03125,-0.09375 0.0016,0.0038 -0.06434,-0.128717 -0.0625,-0.125 0.0018,0.0037 -0.06458,-0.09734 -0.0625,-0.09375 0.0021,0.0036 -0.0648,-0.128452 -0.0625,-0.125 0.0023,0.0035 -0.09627,-0.09705 -0.09375,-0.09375 0.0025,0.0033 -0.06522,-0.09688 -0.0625,-0.09375 0.0027,0.0031 -0.09667,-0.0967 -0.09375,-0.09375 0.0029,0.003 -0.09685,-0.09651 -0.09375,-0.09375 a 1.08975,1.08975 0 0,0 0,-0.03125 c -0.62917,-0.536503 -0.967989,-1.22743 -1.40625,-2.34375 -0.423037,-1.07755 -1.0022,-2.50048 -2.25,-3.75 l .0312,-.0312 c -0.118275,-0.139697 -0.12955,-0.1084 -0.09375,-0.0625 0.0072,0.0092 -0.01377,-0.04736 0,-0.03125 -5.06805,-5.92981 -12.0981,-9.46779 -19.0938,-11.8125 a 1.08975,1.08975 0 0,0 -0.0625,0 1.08975,1.08975 0 0,0 -0.25,-0.0625 c -0.02974,-0.0084 -0.06401,0.0083 -0.09375,0 -4.82498,-1.35407 -9.77908,-1.87987 -14.6875,-1.8125 -0.03113,0.000427 -0.06263,-0.000471 -0.09375,0 0.0034,0 -0.128412,0.000179 -0.125,0 z  m -.5625,28.2812 l .1562,.1562 c -0.01711,-0.000446 -0.0364,0.0023 -0.0625,0 -0.0261,-0.0023 -0.04798,-0.02262 -0.09375,-0.03125 -0.03195,-0.006 -0.105921,-0.01531 -0.15625,-0.03125 0.01335,0.0042 -0.03739,-0.0017 -0.03125,0 0.0038,0.0011 -0.0014,-0.03141 0,-0.03125 l .1875,-.0625 z  m 10.6875,18 c 0.08202,0.01865 0.253516,0.04191 0.5,0.09375 l .125,.2812 c -0.01653,0.0029 -0.03114,-0.03208 -0.0625,-0.03125 -0.05973,0.0016 -0.02093,0.03171 -0.125,0 -0.262779,-0.08006 -0.561051,-0.327205 -0.21875,-0.0625 -0.190468,-0.147291 -0.218815,-0.249893 -0.1875,-0.1875 -0.02903,-0.05785 -0.02603,-0.04512 -0.03125,-0.0625 -0.0025,-0.0015 0.0022,-0.02994 0,-0.03125 z "/>
<path style="opacity:.1" id="path3755" d="m 42.9688,17.0625 a 0.894193,0.894193 0 0,0 -0.34375,0.09375 c -2.23919,0.961312 -4.61364,0.895188 -7.59375,1.65625 -0.01105,0.0028 -0.02019,-0.0028 -0.03125,0 -9.36656,2.15254 -17.7494,9.03853 -20.5,18.4688 a 0.894193,0.894193 0 0,0 -0.03125,0 c -0.816709,2.98645 -1.72379,6.52162 0.03125,9.78125 0.01645,0.03056 0.01432,0.06324 0.03125,0.09375 h 0.03125 c 2.02225,4.59321 6.6106,7.9872 11.7188,8.125 0.118061,0.0032 0.225179,0.06285 0.34375,0.0625 v -0.03125 c 0.880416,0.226785 1.70396,0.03668 2.40625,-0.28125 a 0.894193,0.894193 0 0,0 -0.0625,0.21875 c 0.02445,2.31201 1.09993,4.28502 2.625,5.71875 1.50096,1.41106 3.45939,2.34466 5.40625,2.8125 0.03144,0.01 0.06228,0.02147 0.09375,0.03125 2.7032,0.840406 5.51377,0.871939 8.25,0.65625 -0.0064,0.522496 0.157859,0.95557 0.34375,1.34375 0.379909,0.79333 0.891021,1.49375 1,1.84375 a 0.894193,0.894193 0 0,0 0.0625,0.1875 c 0.466653,0.77379 0.851764,1.76484 1.375,2.75 0.50481,0.95047 1.22773,1.87692 2.34375,2.5 l -.0312,.0312 c 0.589811,0.443487 1.16362,0.770776 1.5625,1.125 0.398883,0.354224 0.621439,0.669751 0.6875,1.15625 a 0.894193,0.894193 0 0,0 0.0625,0.21875 c 0.609002,1.45751 1.04365,3.12714 1.875,4.71875 a 0.894193,0.894193 0 0,0 0.34375,0.375 c 0.963954,0.551773 1.9826,0.328866 2.75,0.03125 0.767397,-0.297616 1.42619,-0.662176 1.875,-0.75 a 0.894193,0.894193 0 0,0 0.25,-0.0625 c 0.504325,-0.248758 1.20719,-0.412632 1.96875,-0.65625 0.761555,-0.243618 1.61205,-0.610931 2.25,-1.375 a 0.894193,0.894193 0 0,0 0.1875,-0.75 c -0.449127,-2.10819 -1.50313,-4.0267 -2.5625,-5.84375 2.41559,0.523374 4.95387,0.233669 7.21875,-0.09375 a 0.894193,0.894193 0 0,0 0.03125,0 c 4.55231,-0.873717 8.89408,-4.18849 9.75,-9.03125 0.0035,-0.01998 -0.0034,-0.04247 0,-0.0625 0.0097,-0.057 0.05377,-0.09883 0.0625,-0.15625 h -0.03125 c 0.407907,-1.20703 0.1116,-2.37823 -0.03125,-3.28125 -0.07585,-0.479449 -0.110201,-0.877295 -0.0625,-1.15625 0.0477,-0.278955 0.115404,-0.424843 0.375,-0.625 a 0.894193,0.894193 0 0,0 0.34375,-0.8125 c -0.05301,-0.472178 -0.0052,-0.415469 0.0625,-0.46875 0.06774,-0.05328 0.379217,-0.174668 0.8125,-0.28125 0.433283,-0.106582 1.0152,-0.214973 1.53125,-0.6875 0.470665,-0.430972 0.659257,-1.15841 0.625,-1.96875 h 0.03125 c -0.0033,-0.07733 0.0086,-0.139786 0,-0.21875 0.266783,-2.08519 -0.01399,-3.67029 0,-5.78125 a 0.894193,0.894193 0 0,0 -0.03125,-0.09375 c -0.336464,-3.12586 -0.851571,-6.66251 -1.90625,-9.5 a 0.894193,0.894193 0 0,0 -0.25,-0.375 c -0.850895,-0.725571 -1.24323,-1.64962 -1.6875,-2.78125 -0.431288,-1.09856 -0.94282,-2.38343 -2.0625,-3.46875 -0.02888,-0.03411 -0.06474,-0.0598 -0.09375,-0.09375 -4.88433,-5.71484 -11.7051,-9.19115 -18.5938,-11.5 a 0.894193,0.894193 0 0,0 -0.03125,0 c -4.83641,-1.40033 -9.80925,-1.88768 -14.7812,-1.8125 z  m -.5625,26.25 c 0.05533,-0.0067 0.04698,0.0026 0.03125,0 0.03432,0.01089 0.139465,0.02992 0.28125,0.3125 0.07462,0.148727 0.09013,0.400554 0.03125,0.59375 -0.05888,0.193196 -0.159248,0.292975 -0.21875,0.34375 l -.25,-.8125 -.4375,.6875 c -0.01689,-0.03409 -0.01555,-0.03949 -0.03125,-0.09375 -0.04485,-0.155035 -0.05452,-0.455979 0.0625,-0.65625 0.234038,-0.400542 0.475923,-0.368263 0.53125,-0.375 z  m 10.875,18.3125 c 0.409779,-0.163471 0.473426,-0.01347 0.53125,0.03125 0.02891,0.02236 0.06496,0.06787 0.125,0.1875 0.06004,0.119629 0.131252,0.444995 -0.03125,0.71875 -0.102113,0.172022 -0.190666,0.147719 -0.28125,0.1875 l .0938,-.75 -.875,.1875 c 0.01291,0.05919 -0.0043,0.03981 0.03125,-0.09375 0.03559,-0.133563 0.20136,-0.387015 0.40625,-0.46875 z "/>
<path style="opacity:.15" id="path3749" d="m 42.9688,17.9688 c -2.45734,1.05497 -4.88599,0.982613 -7.75,1.71875 -9.08494,2.07805 -17.2265,8.76352 -19.875,17.8438 -0.821537,3.0041 -1.64212,6.27275 -0.01897,9.19825 1.90479,4.42791 6.42165,7.725 11.3038,7.71065 1.56901,0.625041 3.71208,-1.10631 3.62146,-1.37765 -0.885274,1.64719 0.178837,0.327148 -0.375,2.1875 0.04327,4.09085 3.73814,6.83691 7.41233,7.69056 3.02928,0.961712 6.2683,0.961837 9.40017,0.59069 -1.23302,1.16018 0.457465,2.60348 0.839039,3.82895 1.05337,1.74666 1.49845,4.02729 3.43968,5.03699 1.0682,0.803195 2.38633,1.41598 2.58531,2.8814 0.641558,1.53543 1.08305,3.17282 1.85132,4.64367 1.29792,0.742939 2.70326,-0.526229 4.03321,-0.78648 1.28328,-0.63298 2.99781,-0.677069 3.93296,-1.79708 -0.567461,-2.66365 -2.30538,-5.27283 -3.65027,-7.65119 2.72647,1.35988 6.09425,1.09738 9.07289,0.66678 4.31315,-0.827815 8.39796,-4.00311 9.08336,-8.51053 0.758916,-1.81709 -1.13091,-4.31564 0.589879,-5.64242 -0.297722,-2.65183 3.37834,-0.700013 3.0584,-3.63957 0.301469,-2.04363 -0.04474,-3.57828 -0.0296,-5.86242 -0.333141,-3.09499 -0.873922,-6.59469 -1.8774,-9.29444 -2.0748,-1.76922 -1.79276,-4.49077 -3.83826,-6.3853 -4.73768,-5.59573 -11.4466,-9.00629 -18.2887,-11.2996 -4.72893,-1.36921 -9.61277,-1.8255 -14.5205,-1.75129 z  m -1.375,3.4688 c 0.358767,0.01382 0.05282,0.06915 0,0 z  m 2.375,10.2812 c 0.06896,-0.02139 -0.02139,0.06896 0,0 z  m -4.0625,3.4062 c 0.07163,0.105346 -0.213211,0.122273 0,0 z  m 15.5625,.9688 c 0.343168,-0.09769 0.03165,0.349617 0,0 z  m -.1875,.0312 c 0.45951,0.03667 -0.815214,0.229232 0,0 z  m 5.5938,1.8125 c 0.03744,0.07204 -0.189599,0.09392 0,0 z  m -.1875,.0938 c 0.183253,0.03856 -0.414302,0.228935 0,0 z  m -.1562,.2188 c 0.02497,0.111689 -0.09815,0.155426 0,0 z  m 2.9688,.8125 c 0.173312,-0.05909 0.106541,0.172293 0,0 z  m -25.6562,4 c 0.06896,-0.02139 -0.02139,0.06896 0,0 z  m 4.4375,.6875 c 1.31672,0.823276 -1.30861,0.39355 0,0 z  m 23.5,.6875 c 1.05972,1.12411 0.947146,1.7714 0,0 z  m -29.9062,1.4688 c 0.301432,-0.02915 -0.23829,0.0883 0,0 z  m 30.8125,.0625 c 1.41492,2.29088 1.1306,5.10296 0.431194,7.57873 0.03676,0.86574 -1.38203,1.791 -0.383361,0.125777 0.785854,-2.51138 0.987751,-5.2714 -0.04783,-7.70451 z  m -34.0938,2.3125 c 0.07236,-0.02041 -0.009,0.04544 0,0 z  m -.0625,.0625 c 0.11814,-0.145577 -0.01388,0.08478 0,0 z  m -11.4688,2.3125 c 0.05222,-0.02799 0.03699,0.08826 0,0 z  m 8.1562,1.4688 c 0.481102,0.02679 1.16365,0.657534 0,0 z  m 24.5,9.875 c 0.252926,1.15915 -1.46692,-0.170838 0,0 z  m 19.8438,3.75 c 0.08478,-0.01392 -0.09537,0.107916 0,0 z  m -17.7812,1.3438 c 1.15173,0.891845 -0.0159,0.52934 0,0 z  m 15.0625,.5312 c 0.08478,-0.01392 -0.09537,0.107916 0,0 z "/>
<path style="opacity:.3" id="path3745" d="m 43.0312,19 c -0.322977,0.01909 -0.655838,0.06599 -0.96875,0.125 a 0.222394,0.222394 0 0,1 -0.03125,0 c -0.161269,0.0062 -0.261434,0.05916 -0.3125,0.09375 -0.05107,0.03459 -0.03101,0.05288 -0.03125,0.0625 -0.000235,0.0096 -0.02101,0.01894 0.03125,0.0625 0.05226,0.04356 0.158305,0.100654 0.3125,0.125 a 0.222394,0.222394 0 0,1 0.03125,0 0.222394,0.222394 0 0,1 0.03125,0 c 1.61037,0.700899 3.32165,1.29581 4.875,2.21875 0.01204,0.0072 0.01923,0.02406 0.03125,0.03125 0.996736,0.450446 1.8194,1.203 2.4375,2.0625 0.716047,1.07822 0.761476,2.55014 0.3125,3.71875 a 0.222394,0.222394 0 0,1 -0.03125,0 c -0.768418,1.54175 -1.42272,3.24078 -2.625,4.59375 -0.0096,0.01082 -0.02157,0.02047 -0.03125,0.03125 -0.744073,1.06674 -1.94395,1.54093 -2.84375,2.25 -0.01092,0.0094 -0.02028,0.0219 -0.03125,0.03125 -0.688695,0.587193 -1.49225,1.09959 -2.03125,1.71875 -0.298683,0.517818 -0.626399,0.942551 -0.625,1.46875 a 0.222394,0.222394 0 0,1 0,0.03125 0.222394,0.222394 0 0,1 0,0.03125 c -0.263396,1.0242 -0.09446,2.10539 0.25,3.125 0.240955,1.0326 0.810499,1.97377 1.59375,2.6875 0.0094,0.0028 0.02179,-0.0026 0.03125,0 0.504696,0.140617 1.14999,-0.02402 1.75,-0.1875 0.257532,-0.421169 0.562635,-0.772133 0.875,-1.125 0.451426,-0.532549 1.09788,-0.90067 1.75,-1.125 0.009,-0.0044 0.02226,0.0043 0.03125,0 v -0.03125 c 1.66085,-0.793395 3.46887,-0.574811 5.09375,-0.9375 0.458279,-0.155258 0.907079,-0.325871 1.21875,-0.625 0.008,-0.0098 0.02343,-0.02122 0.03125,-0.03125 0.220791,-0.283049 0.364899,-0.675013 0.53125,-1.0625 0.172245,-0.401215 0.378508,-0.814461 0.71875,-1.15625 a 0.222394,0.222394 0 0,1 0.125,-0.0625 0.222394,0.222394 0 0,1 0.03125,0 c 0.608692,-0.01534 1.09937,0.267893 1.53125,0.59375 0.400305,0.302034 0.761685,0.635024 1.125,0.875 0.007,-0.03094 0.02702,-0.02472 0.03125,-0.0625 0.01402,-0.125153 0.0225,-0.261712 0.03125,-0.40625 0.0087,-0.144538 -0.0041,-0.284637 0.03125,-0.40625 a 0.222394,0.222394 0 0,1 0.03125,-0.03125 c 0.274417,-0.534583 0.607011,-1.19412 1.1875,-1.59375 0.011,-0.0094 0.02012,-0.02206 0.03125,-0.03125 0.787797,-0.650159 1.90513,-0.76212 2.8125,-0.28125 v -0.03125 c 0.484751,0.197881 0.866038,0.561239 1.25,0.84375 0.383962,0.282511 0.764028,0.49676 1.1875,0.53125 0.382033,0.07231 0.731789,-0.03352 1.0625,-0.21875 0.330711,-0.185233 0.634427,-0.443641 0.9375,-0.71875 0.277905,-0.229137 0.599523,-0.614755 0.96875,-0.90625 0.362291,-0.286019 0.849253,-0.496045 1.375,-0.3125 0.0093,0.0029 0.02205,-0.003 0.03125,0 1.10777,0.357718 1.79295,1.29604 2.53125,2 0.0102,0.0097 0.02103,0.02161 0.03125,0.03125 0.796879,0.515889 1.56203,1.11512 2.4375,0.96875 a 0.222394,0.222394 0 0,1 0.03125,0 0.222394,0.222394 0 0,1 0.03125,0 c 1.17596,0.126021 2.34347,-0.590508 2.90625,-1.625 0.220872,-0.405248 0.16291,-0.857844 -0.125,-1.25 a 0.222394,0.222394 0 0,1 -0.03125,-0.0625 0.222394,0.222394 0 0,1 0,-0.03125 c -0.07667,-0.529672 -0.539343,-0.965822 -0.78125,-1.59375 -0.0088,-0.0229 -0.02303,-0.03903 -0.03125,-0.0625 -1.4292,-2.35103 -3.60668,-4.16607 -5.71875,-5.96875 -0.01117,-0.0095 -0.02008,-0.02172 -0.03125,-0.03125 -0.909888,-0.573061 -1.71601,-1.26621 -2.59375,-1.8125 -0.008,-0.0044 -0.02325,0.0044 -0.03125,0 -1.48895,-0.818659 -2.8817,-1.7288 -4.4375,-2.3125 a 0.222394,0.222394 0 0,1 -0.0625,-0.03125 c -1.06284,-0.612628 -2.2155,-1.08078 -3.375,-1.53125 -0.0097,-0.0026 -0.02154,0.0026 -0.03125,0 -1.09048,-0.291353 -2.09073,-0.779589 -3.125,-1.0625 -1.5393,-0.368746 -3.07308,-0.698486 -4.625,-1.03125 -2.0117,-0.383474 -4.08211,-0.383398 -6.15625,-0.53125 -0.0104,4e-05 -0.02085,-2.1e-05 -0.03125,0 -0.987985,0.002 -1.97866,-0.08793 -2.9375,-0.03125 z  m -3.1562,.875 c -1.46932,0.08031 -2.95308,0.469049 -4.4375,0.8125 a 0.378991,0.378991 0 0,1 -0.03125,0 c -2.00767,0.365214 -3.93343,1.16394 -5.78125,2.09375 -2.52188,1.16401 -4.85013,2.72603 -6.84375,4.65625 -1.38478,1.17651 -2.5164,2.64901 -3.53125,4.1875 -1.09911,1.49647 -1.84059,3.24167 -2.5625,5 -0.0089,0.02166 -0.02236,0.04084 -0.03125,0.0625 l -.3125,1.125 c -0.418662,1.78871 -0.929688,3.51256 -0.96875,5.28125 0.0017,0.01001 -0.0017,0.02124 0,0.03125 -0.000197,0.01035 0.000165,0.02089 0,0.03125 0.294202,1.74844 0.852742,3.48905 1.875,4.90625 0.832341,1.29444 1.83252,2.48334 3.09375,3.3125 a 0.378991,0.378991 0 0,1 0.03125,0.03125 c 0.818163,0.687677 1.92146,0.963784 3,1.53125 0.01014,0.0022 0.02111,-0.0022 0.03125,0 0.02128,0.01129 0.04125,0.01972 0.0625,0.03125 1.87896,0.399576 3.82147,0.665033 5.625,0.1875 a 0.378991,0.378991 0 0,1 0.125,0 c -0.02482,-0.002 0.105254,-0.01591 0.25,-0.0625 0.144746,-0.04659 0.33295,-0.107765 0.5,-0.15625 0.08353,-0.02424 0.157059,-0.05204 0.25,-0.0625 0.05056,-0.0057 0.122998,0.02345 0.1875,0.03125 0.93324,-1.26458 1.81923,-2.62064 2.875,-3.84375 a 0.378991,0.378991 0 0,1 0.03125,-0.03125 c 0.827297,-0.774867 1.70422,-1.5493 2.75,-2.09375 a 0.378991,0.378991 0 0,1 0.09375,-0.03125 c 0.59835,-0.147235 1.06334,-0.523025 1.40625,-1.0625 a 0.378991,0.378991 0 0,1 0.03125,-0.03125 c 0.196572,-0.209142 0.297516,-0.518704 0.40625,-0.875 0.108734,-0.356296 0.226657,-0.761536 0.5625,-1.125 a 0.378991,0.378991 0 0,1 0.03125,-0.03125 c 0.769986,-0.64165 1.87164,-0.793077 2.8125,-0.5 a 0.378991,0.378991 0 0,1 -0.03125,-0.03125 c -0.762563,-0.952153 -1.37467,-2.06871 -1.59375,-3.3125 -0.267219,-1.32071 -0.04101,-2.70111 0.625,-3.875 a 0.378991,0.378991 0 0,1 0.09375,-0.09375 c 0.203832,-0.192445 0.389182,-0.484218 0.625,-0.78125 0.210234,-0.264807 0.480485,-0.517776 0.84375,-0.6875 0.926779,-0.764048 2.02565,-1.25473 2.71875,-2.03125 a 0.378991,0.378991 0 0,1 0.03125,-0.03125 c 1.23556,-1.06481 2.10037,-2.49131 2.90625,-3.96875 0.0037,-0.009 -0.0037,-0.02219 0,-0.03125 0.320764,-0.786592 0.54636,-1.66796 0.6875,-2.53125 -0.000508,-0.01058 0.000539,-0.02067 0,-0.03125 -0.04005,-0.786118 -0.187003,-1.5546 -0.6875,-2.0625 a 0.378991,0.378991 0 0,1 -0.03125,-0.0625 c -0.414793,-0.611816 -1.10382,-1.04148 -1.8125,-1.5 -0.02174,-0.0095 -0.04083,-0.02171 -0.0625,-0.03125 -1.3134,-0.578436 -2.5037,-1.30122 -3.78125,-1.75 a 0.378991,0.378991 0 0,1 -0.09375,-0.03125 c -0.51701,-0.33972 -1.16314,-0.384364 -1.90625,-0.5625 -0.02099,-0.005 -0.04137,0.0053 -0.0625,0 z  m 28.9062,16.4375 c -0.575686,0.301846 -1.05195,0.772372 -1.5625,1.28125 h -0.03125 c -0.457893,0.51893 -1.073,0.878941 -1.78125,0.9375 a 0.383963,0.383963 0 0,1 -0.03125,0 c -0.566871,-0.0022 -1.08149,-0.230227 -1.5,-0.40625 a 0.383963,0.383963 0 0,1 -0.125,-0.0625 c -0.39623,-0.391659 -0.890746,-0.692735 -1.4375,-0.9375 a 0.383963,0.383963 0 0,1 -0.09375,-0.0625 c -0.299676,-0.248735 -0.686287,-0.318551 -1.125,-0.28125 -0.368912,0.04335 -0.695845,0.16147 -0.84375,0.34375 a 0.383963,0.383963 0 0,1 -0.125,0.09375 c -0.306848,0.166642 -0.492725,0.345583 -0.53125,0.625 a 0.383963,0.383963 0 0,1 -0.03125,0.09375 c -0.154481,0.324703 -0.163772,0.71643 -0.15625,1.125 0.716073,0.59304 1.45811,1.1508 2.25,1.65625 0.0083,0.0036 0.0229,-0.0035 0.03125,0 0.01238,0.0079 0.01885,0.02338 0.03125,0.03125 0.612914,0.255963 1.31116,0.437769 2,0.75 0.0094,0.0043 0.02182,-0.0043 0.03125,0 1.05296,0.336171 1.67422,1.17789 2.3125,1.78125 0.01,0.0094 0.0213,0.02197 0.03125,0.03125 0.440099,0.322195 0.850735,0.709546 1.125,1.21875 a 0.383963,0.383963 0 0,1 0,0.03125 c 0.419439,0.889626 0.798746,1.80175 1.15625,2.71875 a 0.383963,0.383963 0 0,1 0.03125,0 c 0.391215,1.2133 0.327129,2.45671 0.3125,3.625 a 0.383963,0.383963 0 0,1 0,0.0625 c -0.114034,0.878266 -0.3888,1.63045 -0.59375,2.40625 0.374375,-0.03468 0.75494,-0.07577 1.125,-0.0625 0.02055,-0.0012 0.04194,0.0012 0.0625,0 1.62847,-0.09717 3.3057,-0.204102 4.96875,-0.09375 1.68338,0.150169 3.43698,0.09135 5.1875,0.3125 0.02499,-0.00056 0.03788,-0.000165 0.0625,0 0.233857,0.0016 0.453702,0.01266 0.59375,0 0.07739,-0.007 0.111578,-0.02267 0.125,-0.03125 0.01342,-0.0086 0.01593,0.02132 0.03125,-0.03125 a 0.383963,0.383963 0 0,1 0,-0.03125 c 0.274123,-0.894986 0.362327,-1.87366 0.34375,-2.84375 -0.0028,-0.02101 0.0027,-0.0415 0,-0.0625 -0.138564,-1.08298 -0.130211,-2.16531 -0.125,-3.21875 5.1e-05,-0.01021 -4.9e-05,-0.02104 0,-0.03125 -0.08718,-1.34841 -0.24395,-2.71387 -0.5,-4.03125 -0.345398,-1.71042 -0.598316,-3.39358 -1.125,-5 -0.01385,-0.02298 -0.0183,-0.03944 -0.03125,-0.0625 -0.152974,-0.272424 -0.232862,-0.557026 -0.34375,-0.75 -0.0939,-0.163402 -0.197098,-0.206819 -0.3125,-0.25 -0.20964,0.144287 -0.382751,0.42455 -0.71875,0.71875 h -0.03125 c -0.495891,0.489239 -1.04299,1.16808 -1.90625,1.40625 -0.0238,0.0066 -0.03821,0.02537 -0.0625,0.03125 -0.529677,0.206417 -1.05038,0.163554 -1.5,0.15625 a 0.383963,0.383963 0 0,1 -0.0625,0 c -0.759326,-0.106012 -1.41111,-0.531414 -1.9375,-0.96875 -0.819371,-0.7596 -1.48314,-1.60318 -2.34375,-2.0625 a 0.383963,0.383963 0 0,1 -0.0625,-0.03125 c -0.161039,-0.126228 -0.42426,-0.131005 -0.78125,-0.125 z  m -12.5,2.625 c -0.493785,0.65953 -1.03892,1.24888 -1.6875,1.75 -0.848855,0.521964 -1.76208,0.985704 -2.78125,1.03125 -0.979537,0.150921 -2.00346,0.329873 -2.9375,0.625 -0.741411,0.43595 -1.58459,0.663566 -2.21875,1.28125 -1.11398,0.892556 -2.52599,1.34861 -3.90625,1.59375 -0.984712,-0.256376 -2.05736,-0.364392 -3.0625,-0.15625 -0.561486,0.581344 -0.866433,1.33511 -1.1875,2.0625 -0.275756,0.484385 -0.782697,0.731313 -1.15625,1.125 -0.781536,0.262059 -1.3474,0.906711 -2.125,1.1875 -1.66984,1.26046 -2.69262,3.13072 -3.96875,4.75 -0.640678,0.539708 -0.236176,1.40053 -0.15625,2.09375 0.113822,1.43375 1.15004,2.71033 2.125,3.5625 1.66398,1.42183 3.83929,1.97677 5.90625,2.53125 1.25607,0.180923 2.5054,0.43566 3.78125,0.34375 1.50147,0.01634 2.98637,0.0277 4.46875,-0.25 1.32276,-0.110414 2.60273,-0.417238 3.875,-0.78125 2.20264,-0.477717 4.32214,-1.26618 6.4375,-2.03125 1.41536,-0.507373 2.9071,-0.881997 4.15625,-1.75 1.13746,-0.382951 2.01304,-1.25377 2.78125,-2.125 0.254991,-0.577307 0.791615,-1.01492 0.875,-1.65625 0.364902,-0.680169 0.41957,-1.48969 0.65625,-2.21875 0.204663,-1.25549 0.384874,-2.52282 0.09375,-3.78125 -0.09901,-1.30933 -0.770361,-2.46518 -1.53125,-3.5 -0.85266,-1.52293 -2.6534,-2.06929 -4.125,-2.8125 -0.562354,-0.321628 -1.26408,-0.334067 -1.71875,-0.875 -0.77174,-0.759352 -1.63399,-1.47823 -2.59375,-2 z  m 17.4375,15.5312 c -0.219751,0.000467 -0.440254,0.01188 -0.65625,0.03125 a 0.441036,0.441036 0 0,1 -0.03125,0 c -1.83025,0.01485 -3.67158,0.257686 -5.53125,0.4375 -0.53998,0.873433 -1.18996,1.64919 -1.90625,2.34375 -0.0099,0.0121 -0.02123,0.01937 -0.03125,0.03125 -0.59456,0.705228 -1.39085,1.02238 -2,1.40625 -0.02271,0.02322 -0.03934,0.04097 -0.0625,0.0625 -0.436706,0.40598 -0.955126,0.51001 -1.34375,0.65625 v 0.03125 c -0.906136,0.471344 -1.85637,0.719697 -2.6875,1.09375 a 0.441036,0.441036 0 0,1 -0.0625,0.03125 c -1.06855,0.294259 -2.13866,0.541026 -3.125,0.9375 a 0.441036,0.441036 0 0,1 -0.03125,0 c -0.572152,0.179083 -1.0621,0.404424 -1.53125,0.6875 v 1.1875 0.03125 c 0.16596,0.558642 0.298865,1.08877 0.53125,1.5 0.506495,0.964198 1.21816,1.8366 2.09375,2.46875 v -0.03125 c 1.12686,0.750536 2.28089,1.45131 3.53125,1.75 a 0.441036,0.441036 0 0,1 0.03125,0 c 0.912701,0.275919 1.88727,0.422597 2.875,0.53125 0.02078,0.0023 0.04169,-0.0023 0.0625,0 1.20921,0.01222 2.4596,-0.127398 3.75,-0.09375 1.40788,-0.293828 2.80726,-0.51707 3.96875,-1.1875 a 0.441036,0.441036 0 0,1 0.03125,-0.03125 c 0.989766,-0.430006 1.90191,-1.07774 2.6875,-1.84375 a 0.441036,0.441036 0 0,1 0.03125,-0.03125 c 0.464653,-0.37093 0.778682,-0.994703 1.375,-1.5625 0.01147,-0.02607 0.01945,-0.03709 0.03125,-0.0625 0.273846,-0.589682 0.617493,-1.04918 0.6875,-1.46875 a 0.441036,0.441036 0 0,1 0.03125,-0.125 c 0.261555,-0.538623 0.477383,-1.13055 0.46875,-1.65625 a 0.441036,0.441036 0 0,1 0,-0.0625 c 0.07458,-0.480245 0.129614,-0.930034 0.09375,-1.375 a 0.441036,0.441036 0 0,1 0,-0.0625 c 0.07646,-0.886018 -0.197253,-1.80544 -0.46875,-2.75 a 0.441036,0.441036 0 0,1 0.09375,-0.40625 c 0.216181,-0.2708 0.340178,-0.812447 0.90625,-1.21875 a 0.441036,0.441036 0 0,1 0,-0.03125 c 0.204191,-0.138815 0.294542,-0.41829 0.40625,-0.78125 -0.0052,-0.01252 0.01521,-0.02238 -0.03125,-0.0625 -0.06291,-0.05433 -0.199478,-0.09576 -0.3125,-0.15625 -0.612622,-0.05723 -1.22079,-0.132952 -1.78125,-0.09375 a 0.441036,0.441036 0 0,1 -0.0625,0 c -0.697934,-0.05399 -1.372,-0.126401 -2.03125,-0.125 z  m -20.75,8.7812 -5.7812,1.1875 3.1875,6.2812 3.5312,2.5938 2.25,5.9062 6.2812,-2.25 c -0.53227,-1.05139 -1.02438,-2.1099 -1.625,-3.125 -0.539164,-0.852299 -0.883053,-1.79741 -1.28125,-2.71875 -0.08702,-0.344535 -0.339382,-0.611742 -0.59375,-0.84375 -0.472442,-0.538051 -1.07142,-0.918725 -1.71875,-1.21875 -0.648147,-0.288393 -1.3096,-0.549899 -2,-0.71875 l -2.25,-5.0938 z "/>
<path style="fill:#fff" id="path3736" d="m 43.0312,18 c -0.322977,0.01909 -0.655838,0.06599 -0.96875,0.125 a 0.222394,0.222394 0 0,1 -0.03125,0 c -0.161269,0.0062 -0.261434,0.05916 -0.3125,0.09375 -0.05107,0.03459 -0.03101,0.05288 -0.03125,0.0625 -0.000235,0.0096 -0.02101,0.01894 0.03125,0.0625 0.05226,0.04356 0.158305,0.100654 0.3125,0.125 a 0.222394,0.222394 0 0,1 0.03125,0 0.222394,0.222394 0 0,1 0.03125,0 c 1.61037,0.700899 3.32165,1.29581 4.875,2.21875 0.01204,0.0072 0.01923,0.02406 0.03125,0.03125 0.996736,0.450446 1.8194,1.203 2.4375,2.0625 0.716047,1.07822 0.761476,2.55014 0.3125,3.71875 a 0.222394,0.222394 0 0,1 -0.03125,0 c -0.768418,1.54175 -1.42272,3.24078 -2.625,4.59375 -0.0096,0.01082 -0.02157,0.02047 -0.03125,0.03125 -0.744073,1.06674 -1.94395,1.54093 -2.84375,2.25 -0.01092,0.0094 -0.02028,0.0219 -0.03125,0.03125 -0.688695,0.587193 -1.49225,1.09959 -2.03125,1.71875 -0.298683,0.517818 -0.626399,0.942551 -0.625,1.46875 a 0.222394,0.222394 0 0,1 0,0.03125 0.222394,0.222394 0 0,1 0,0.03125 c -0.263396,1.0242 -0.09446,2.10539 0.25,3.125 0.240955,1.0326 0.810499,1.97377 1.59375,2.6875 0.0094,0.0028 0.02179,-0.0026 0.03125,0 0.504696,0.140617 1.14999,-0.02402 1.75,-0.1875 0.257532,-0.421169 0.562635,-0.772133 0.875,-1.125 0.451426,-0.532549 1.09788,-0.90067 1.75,-1.125 0.009,-0.0044 0.02226,0.0043 0.03125,0 v -0.03125 c 1.66085,-0.793395 3.46887,-0.574811 5.09375,-0.9375 0.458279,-0.155258 0.907079,-0.325871 1.21875,-0.625 0.008,-0.0098 0.02343,-0.02122 0.03125,-0.03125 0.220791,-0.283049 0.364899,-0.675013 0.53125,-1.0625 0.172245,-0.401215 0.378508,-0.814461 0.71875,-1.15625 a 0.222394,0.222394 0 0,1 0.125,-0.0625 0.222394,0.222394 0 0,1 0.03125,0 c 0.608692,-0.01534 1.09937,0.267893 1.53125,0.59375 0.400305,0.302034 0.761685,0.635024 1.125,0.875 0.007,-0.03094 0.02702,-0.02472 0.03125,-0.0625 0.01402,-0.125153 0.0225,-0.261712 0.03125,-0.40625 0.0087,-0.144538 -0.0041,-0.284637 0.03125,-0.40625 a 0.222394,0.222394 0 0,1 0.03125,-0.03125 c 0.274417,-0.534583 0.607011,-1.19412 1.1875,-1.59375 0.011,-0.0094 0.02012,-0.02206 0.03125,-0.03125 0.787797,-0.650159 1.90513,-0.76212 2.8125,-0.28125 v -0.03125 c 0.484751,0.197881 0.866038,0.561239 1.25,0.84375 0.383962,0.282511 0.764028,0.49676 1.1875,0.53125 0.382033,0.07231 0.731789,-0.03352 1.0625,-0.21875 0.330711,-0.185233 0.634427,-0.443641 0.9375,-0.71875 0.277905,-0.229137 0.599523,-0.614755 0.96875,-0.90625 0.362291,-0.286019 0.849253,-0.496045 1.375,-0.3125 0.0093,0.0029 0.02205,-0.003 0.03125,0 1.10777,0.357718 1.79295,1.29604 2.53125,2 0.0102,0.0097 0.02103,0.02161 0.03125,0.03125 0.796879,0.515889 1.56203,1.11512 2.4375,0.96875 a 0.222394,0.222394 0 0,1 0.03125,0 0.222394,0.222394 0 0,1 0.03125,0 c 1.17596,0.126021 2.34347,-0.590508 2.90625,-1.625 0.220872,-0.405248 0.16291,-0.857844 -0.125,-1.25 a 0.222394,0.222394 0 0,1 -0.03125,-0.0625 0.222394,0.222394 0 0,1 0,-0.03125 c -0.07667,-0.529672 -0.539343,-0.965822 -0.78125,-1.59375 -0.0088,-0.0229 -0.02303,-0.03903 -0.03125,-0.0625 -1.4292,-2.35103 -3.60668,-4.16607 -5.71875,-5.96875 -0.01117,-0.0095 -0.02008,-0.02172 -0.03125,-0.03125 -0.909888,-0.573061 -1.71601,-1.26621 -2.59375,-1.8125 -0.008,-0.0044 -0.02325,0.0044 -0.03125,0 -1.48895,-0.818659 -2.8817,-1.7288 -4.4375,-2.3125 a 0.222394,0.222394 0 0,1 -0.0625,-0.03125 c -1.06284,-0.612628 -2.2155,-1.08078 -3.375,-1.53125 -0.0097,-0.0026 -0.02154,0.0026 -0.03125,0 -1.09048,-0.291353 -2.09073,-0.779589 -3.125,-1.0625 -1.5393,-0.368746 -3.07308,-0.698486 -4.625,-1.03125 -2.0117,-0.383474 -4.08211,-0.383398 -6.15625,-0.53125 -0.0104,4e-05 -0.02085,-2.1e-05 -0.03125,0 -0.987985,0.002 -1.97866,-0.08793 -2.9375,-0.03125 z  m -3.1562,.875 c -1.46932,0.08031 -2.95308,0.469049 -4.4375,0.8125 a 0.378991,0.378991 0 0,1 -0.03125,0 c -2.00767,0.365214 -3.93343,1.16394 -5.78125,2.09375 -2.52188,1.16401 -4.85013,2.72603 -6.84375,4.65625 -1.38478,1.17651 -2.5164,2.64901 -3.53125,4.1875 -1.09911,1.49647 -1.84059,3.24167 -2.5625,5 -0.0089,0.02166 -0.02236,0.04084 -0.03125,0.0625 l -.3125,1.125 c -0.418662,1.78871 -0.929688,3.51256 -0.96875,5.28125 0.0017,0.01001 -0.0017,0.02124 0,0.03125 -0.000197,0.01035 0.000165,0.02089 0,0.03125 0.294202,1.74844 0.852742,3.48905 1.875,4.90625 0.832341,1.29444 1.83252,2.48334 3.09375,3.3125 a 0.378991,0.378991 0 0,1 0.03125,0.03125 c 0.818163,0.687677 1.92146,0.963784 3,1.53125 0.01014,0.0022 0.02111,-0.0022 0.03125,0 0.02128,0.01129 0.04125,0.01972 0.0625,0.03125 1.87896,0.399576 3.82147,0.665033 5.625,0.1875 a 0.378991,0.378991 0 0,1 0.125,0 c -0.02482,-0.002 0.105254,-0.01591 0.25,-0.0625 0.144746,-0.04659 0.33295,-0.107765 0.5,-0.15625 0.08353,-0.02424 0.157059,-0.05204 0.25,-0.0625 0.05056,-0.0057 0.122998,0.02345 0.1875,0.03125 0.93324,-1.26458 1.81923,-2.62064 2.875,-3.84375 a 0.378991,0.378991 0 0,1 0.03125,-0.03125 c 0.827297,-0.774867 1.70422,-1.5493 2.75,-2.09375 a 0.378991,0.378991 0 0,1 0.09375,-0.03125 c 0.59835,-0.147235 1.06334,-0.523025 1.40625,-1.0625 a 0.378991,0.378991 0 0,1 0.03125,-0.03125 c 0.196572,-0.209142 0.297516,-0.518704 0.40625,-0.875 0.108734,-0.356296 0.226657,-0.761536 0.5625,-1.125 a 0.378991,0.378991 0 0,1 0.03125,-0.03125 c 0.769986,-0.64165 1.87164,-0.793077 2.8125,-0.5 a 0.378991,0.378991 0 0,1 -0.03125,-0.03125 c -0.762563,-0.952153 -1.37467,-2.06871 -1.59375,-3.3125 -0.267219,-1.32071 -0.04101,-2.70111 0.625,-3.875 a 0.378991,0.378991 0 0,1 0.09375,-0.09375 c 0.203832,-0.192445 0.389182,-0.484218 0.625,-0.78125 0.210234,-0.264807 0.480485,-0.517776 0.84375,-0.6875 0.926779,-0.764048 2.02565,-1.25473 2.71875,-2.03125 a 0.378991,0.378991 0 0,1 0.03125,-0.03125 c 1.23556,-1.06481 2.10037,-2.49131 2.90625,-3.96875 0.0037,-0.009 -0.0037,-0.02219 0,-0.03125 0.320764,-0.786592 0.54636,-1.66796 0.6875,-2.53125 -0.000508,-0.01058 0.000539,-0.02067 0,-0.03125 -0.04005,-0.786118 -0.187003,-1.5546 -0.6875,-2.0625 a 0.378991,0.378991 0 0,1 -0.03125,-0.0625 c -0.414793,-0.611816 -1.10382,-1.04148 -1.8125,-1.5 -0.02174,-0.0095 -0.04083,-0.02171 -0.0625,-0.03125 -1.3134,-0.578436 -2.5037,-1.30122 -3.78125,-1.75 a 0.378991,0.378991 0 0,1 -0.09375,-0.03125 c -0.51701,-0.33972 -1.16314,-0.384364 -1.90625,-0.5625 -0.02099,-0.005 -0.04137,0.0053 -0.0625,0 z  m 28.9062,16.4375 c -0.575686,0.301846 -1.05195,0.772372 -1.5625,1.28125 h -0.03125 c -0.457893,0.51893 -1.073,0.878941 -1.78125,0.9375 a 0.383963,0.383963 0 0,1 -0.03125,0 c -0.566871,-0.0022 -1.08149,-0.230227 -1.5,-0.40625 a 0.383963,0.383963 0 0,1 -0.125,-0.0625 c -0.39623,-0.391659 -0.890746,-0.692735 -1.4375,-0.9375 a 0.383963,0.383963 0 0,1 -0.09375,-0.0625 c -0.299676,-0.248735 -0.686287,-0.318551 -1.125,-0.28125 -0.368912,0.04335 -0.695845,0.16147 -0.84375,0.34375 a 0.383963,0.383963 0 0,1 -0.125,0.09375 c -0.306848,0.166642 -0.492725,0.345583 -0.53125,0.625 a 0.383963,0.383963 0 0,1 -0.03125,0.09375 c -0.154481,0.324703 -0.163772,0.71643 -0.15625,1.125 0.716073,0.59304 1.45811,1.1508 2.25,1.65625 0.0083,0.0036 0.0229,-0.0035 0.03125,0 0.01238,0.0079 0.01885,0.02338 0.03125,0.03125 0.612914,0.255963 1.31116,0.437769 2,0.75 0.0094,0.0043 0.02182,-0.0043 0.03125,0 1.05296,0.336171 1.67422,1.17789 2.3125,1.78125 0.01,0.0094 0.0213,0.02197 0.03125,0.03125 0.440099,0.322195 0.850735,0.709546 1.125,1.21875 a 0.383963,0.383963 0 0,1 0,0.03125 c 0.419439,0.889626 0.798746,1.80175 1.15625,2.71875 a 0.383963,0.383963 0 0,1 0.03125,0 c 0.391215,1.2133 0.327129,2.45671 0.3125,3.625 a 0.383963,0.383963 0 0,1 0,0.0625 c -0.114034,0.878266 -0.3888,1.63045 -0.59375,2.40625 0.374375,-0.03468 0.75494,-0.07577 1.125,-0.0625 0.02055,-0.0012 0.04194,0.0012 0.0625,0 1.62847,-0.09717 3.3057,-0.204102 4.96875,-0.09375 1.68338,0.150169 3.43698,0.09135 5.1875,0.3125 0.02499,-0.00056 0.03788,-0.000165 0.0625,0 0.233857,0.0016 0.453702,0.01266 0.59375,0 0.07739,-0.007 0.111578,-0.02267 0.125,-0.03125 0.01342,-0.0086 0.01593,0.02132 0.03125,-0.03125 a 0.383963,0.383963 0 0,1 0,-0.03125 c 0.274123,-0.894986 0.362327,-1.87366 0.34375,-2.84375 -0.0028,-0.02101 0.0027,-0.0415 0,-0.0625 -0.138564,-1.08298 -0.130211,-2.16531 -0.125,-3.21875 5.1e-05,-0.01021 -4.9e-05,-0.02104 0,-0.03125 -0.08718,-1.34841 -0.24395,-2.71387 -0.5,-4.03125 -0.345398,-1.71042 -0.598316,-3.39358 -1.125,-5 -0.01385,-0.02298 -0.0183,-0.03944 -0.03125,-0.0625 -0.152974,-0.272424 -0.232862,-0.557026 -0.34375,-0.75 -0.0939,-0.163402 -0.197098,-0.206819 -0.3125,-0.25 -0.20964,0.144287 -0.382751,0.42455 -0.71875,0.71875 h -0.03125 c -0.495891,0.489239 -1.04299,1.16808 -1.90625,1.40625 -0.0238,0.0066 -0.03821,0.02537 -0.0625,0.03125 -0.529677,0.206417 -1.05038,0.163554 -1.5,0.15625 a 0.383963,0.383963 0 0,1 -0.0625,0 c -0.759326,-0.106012 -1.41111,-0.531414 -1.9375,-0.96875 -0.819371,-0.7596 -1.48314,-1.60318 -2.34375,-2.0625 a 0.383963,0.383963 0 0,1 -0.0625,-0.03125 c -0.161039,-0.126228 -0.42426,-0.131005 -0.78125,-0.125 z  m -12.5,2.625 c -0.493785,0.65953 -1.03892,1.24888 -1.6875,1.75 -0.848855,0.521964 -1.76208,0.985704 -2.78125,1.03125 -0.979537,0.150921 -2.00346,0.329873 -2.9375,0.625 -0.741411,0.43595 -1.58459,0.663566 -2.21875,1.28125 -1.11398,0.892556 -2.52599,1.34861 -3.90625,1.59375 -0.984712,-0.256376 -2.05736,-0.364392 -3.0625,-0.15625 -0.561486,0.581344 -0.866433,1.33511 -1.1875,2.0625 -0.275756,0.484385 -0.782697,0.731313 -1.15625,1.125 -0.781536,0.262059 -1.3474,0.906711 -2.125,1.1875 -1.66984,1.26046 -2.69262,3.13072 -3.96875,4.75 -0.640678,0.539708 -0.236176,1.40053 -0.15625,2.09375 0.113822,1.43375 1.15004,2.71033 2.125,3.5625 1.66398,1.42183 3.83929,1.97677 5.90625,2.53125 1.25607,0.180923 2.5054,0.43566 3.78125,0.34375 1.50147,0.01634 2.98637,0.0277 4.46875,-0.25 1.32276,-0.110414 2.60273,-0.417238 3.875,-0.78125 2.20264,-0.477717 4.32214,-1.26618 6.4375,-2.03125 1.41536,-0.507373 2.9071,-0.881997 4.15625,-1.75 1.13746,-0.382951 2.01304,-1.25377 2.78125,-2.125 0.254991,-0.577307 0.791615,-1.01492 0.875,-1.65625 0.364902,-0.680169 0.41957,-1.48969 0.65625,-2.21875 0.204663,-1.25549 0.384874,-2.52282 0.09375,-3.78125 -0.09901,-1.30933 -0.770361,-2.46518 -1.53125,-3.5 -0.85266,-1.52293 -2.6534,-2.06929 -4.125,-2.8125 -0.562354,-0.321628 -1.26408,-0.334067 -1.71875,-0.875 -0.77174,-0.759352 -1.63399,-1.47823 -2.59375,-2 z  m 17.4375,15.5312 c -0.219751,0.000467 -0.440254,0.01188 -0.65625,0.03125 a 0.441036,0.441036 0 0,1 -0.03125,0 c -1.83025,0.01485 -3.67158,0.257686 -5.53125,0.4375 -0.53998,0.873433 -1.18996,1.64919 -1.90625,2.34375 -0.0099,0.0121 -0.02123,0.01937 -0.03125,0.03125 -0.59456,0.705228 -1.39085,1.02238 -2,1.40625 -0.02271,0.02322 -0.03934,0.04097 -0.0625,0.0625 -0.436706,0.40598 -0.955126,0.51001 -1.34375,0.65625 v 0.03125 c -0.906136,0.471344 -1.85637,0.719697 -2.6875,1.09375 a 0.441036,0.441036 0 0,1 -0.0625,0.03125 c -1.06855,0.294259 -2.13866,0.541026 -3.125,0.9375 a 0.441036,0.441036 0 0,1 -0.03125,0 c -0.572152,0.179083 -1.0621,0.404424 -1.53125,0.6875 v 1.1875 0.03125 c 0.16596,0.558642 0.298865,1.08877 0.53125,1.5 0.506495,0.964198 1.21816,1.8366 2.09375,2.46875 v -0.03125 c 1.12686,0.750536 2.28089,1.45131 3.53125,1.75 a 0.441036,0.441036 0 0,1 0.03125,0 c 0.912701,0.275919 1.88727,0.422597 2.875,0.53125 0.02078,0.0023 0.04169,-0.0023 0.0625,0 1.20921,0.01222 2.4596,-0.127398 3.75,-0.09375 1.40788,-0.293828 2.80726,-0.51707 3.96875,-1.1875 a 0.441036,0.441036 0 0,1 0.03125,-0.03125 c 0.989766,-0.430006 1.90191,-1.07774 2.6875,-1.84375 a 0.441036,0.441036 0 0,1 0.03125,-0.03125 c 0.464653,-0.37093 0.778682,-0.994703 1.375,-1.5625 0.01147,-0.02607 0.01945,-0.03709 0.03125,-0.0625 0.273846,-0.589682 0.617493,-1.04918 0.6875,-1.46875 a 0.441036,0.441036 0 0,1 0.03125,-0.125 c 0.261555,-0.538623 0.477383,-1.13055 0.46875,-1.65625 a 0.441036,0.441036 0 0,1 0,-0.0625 c 0.07458,-0.480245 0.129614,-0.930034 0.09375,-1.375 a 0.441036,0.441036 0 0,1 0,-0.0625 c 0.07646,-0.886018 -0.197253,-1.80544 -0.46875,-2.75 a 0.441036,0.441036 0 0,1 0.09375,-0.40625 c 0.216181,-0.2708 0.340178,-0.812447 0.90625,-1.21875 a 0.441036,0.441036 0 0,1 0,-0.03125 c 0.204191,-0.138815 0.294542,-0.41829 0.40625,-0.78125 -0.0052,-0.01252 0.01521,-0.02238 -0.03125,-0.0625 -0.06291,-0.05433 -0.199478,-0.09576 -0.3125,-0.15625 -0.612622,-0.05723 -1.22079,-0.132952 -1.78125,-0.09375 a 0.441036,0.441036 0 0,1 -0.0625,0 c -0.697934,-0.05399 -1.372,-0.126401 -2.03125,-0.125 z  m -20.75,8.7812 -5.7812,1.1875 3.1875,6.2812 3.5312,2.5938 2.25,5.9062 6.2812,-2.25 c -0.53227,-1.05139 -1.02438,-2.1099 -1.625,-3.125 -0.539164,-0.852299 -0.883053,-1.79741 -1.28125,-2.71875 -0.08702,-0.344535 -0.339382,-0.611742 -0.59375,-0.84375 -0.472442,-0.538051 -1.07142,-0.918725 -1.71875,-1.21875 -0.648147,-0.288393 -1.3096,-0.549899 -2,-0.71875 l -2.25,-5.0938 z "/>
</g>
</svg>
