<svg width="96" version="1.0" xmlns="http://www.w3.org/2000/svg" height="96" xmlns:xlink="http://www.w3.org/1999/xlink">
<defs id="defs2410">
<clipPath id="clipPath3807">
<rect width="84" x="6" y="6" rx="6" height="84" ry="6" style="fill:url(#linearGradient3811);stroke:none" id="rect3809"/>
</clipPath>
<clipPath id="clipPath3613">
<rect width="84" x="6" y="6" rx="6" height="84" ry="6" style="fill:#fff;stroke:none" id="rect3615"/>
</clipPath>
<filter style="color-interpolation-filters:sRGB" id="filter3174">
<feGaussianBlur stdDeviation="1.71" id="feGaussianBlur3176"/>
</filter>
<filter width="1.3189354" x="-0.15946768" y="-0.20660099" height="1.413202" style="color-interpolation-filters:sRGB" id="filter3795">
<feGaussianBlur stdDeviation="3.1205357" id="feGaussianBlur3797"/>
</filter>
<filter width="1.3839999" x="-0.192" y="-0.192" height="1.3839999" style="color-interpolation-filters:sRGB" id="filter3794">
<feGaussianBlur stdDeviation="5.28" id="feGaussianBlur3796"/>
</filter>
<filter width="1.2986956" x="-0.14934783" y="-0.22648352" height="1.452967" style="color-interpolation-filters:sRGB" id="filter3791">
<feGaussianBlur stdDeviation="3.0669643" id="feGaussianBlur3793"/>
</filter>
<linearGradient id="linearGradient3775" xlink:href="#linearGradient3769" y1="66.089287" x1="59.464283" y2="89.125" x2="78.214287" gradientUnits="userSpaceOnUse"/>
<linearGradient id="linearGradient3732" xlink:href="#linearGradient3673" y1="37.444744" x1="40.068321" y2="69.788857" x2="40.068321" gradientUnits="userSpaceOnUse"/>
<linearGradient gradientTransform="translate(0,-0.3788072)" id="linearGradient3750" xlink:href="#linearGradient3744" y1="34.443829" x1="34.783657" y2="52.121498" x2="41.723381" gradientUnits="userSpaceOnUse"/>
<linearGradient id="linearGradient3682" xlink:href="#linearGradient3737" y1="39.072807" x1="47.34201" y2="80.766785" x2="47.34201" gradientUnits="userSpaceOnUse"/>
<linearGradient id="linearGradient3749" xlink:href="#linearGradient3681" y1="37.726826" x1="59.030788" y2="66.137367" x2="59.030788" gradientUnits="userSpaceOnUse"/>
<linearGradient id="linearGradient3690" xlink:href="#linearGradient3737" y1="41.125" x1="49.125" y2="30.6875" x2="76.014435" gradientUnits="userSpaceOnUse"/>
<linearGradient id="linearGradient3757" xlink:href="#linearGradient3663" y1="15.625977" x1="64.371582" y2="48.08448" x2="96.830086" gradientUnits="userSpaceOnUse"/>
<linearGradient gradientTransform="matrix(1.0238095,0,0,1.0119048,-1.1428571,-98.071429)" id="linearGradient3780" xlink:href="#ButtonShadow-0" y1="6.1317081" x1="32.251034" y2="90.238609" x2="32.251034" gradientUnits="userSpaceOnUse"/>
<linearGradient gradientTransform="matrix(-1,0,0,1,96.178577,-0.17857143)" id="linearGradient3779" xlink:href="#linearGradient3781" y1="66.089287" x1="59.464283" y2="89.125" x2="77.5" gradientUnits="userSpaceOnUse"/>
<linearGradient gradientTransform="matrix(1.0058652,0,0,0.994169,100,0)" id="ButtonShadow-0" y1="92.539597" x1="45.447727" y2="7.0165396" x2="45.447727" gradientUnits="userSpaceOnUse">
<stop offset="0" id="stop3750-8"/>
<stop offset="1" style="stop-opacity:.588" id="stop3752-5"/>
</linearGradient>
<linearGradient gradientTransform="matrix(1.0238095,0,0,1.0119048,-1.1428571,-98.071429)" id="linearGradient3772" xlink:href="#ButtonShadow-0" y1="6.1317081" x1="32.251034" y2="90.238609" x2="32.251034" gradientUnits="userSpaceOnUse"/>
<linearGradient gradientTransform="matrix(1.0238095,0,0,1.0119048,-1.1428571,-98.071429)" id="linearGradient3725-3" xlink:href="#ButtonShadow-0" y1="6.1317081" x1="32.251034" y2="90.238609" x2="32.251034" gradientUnits="userSpaceOnUse"/>
<linearGradient gradientTransform="translate(0,-97)" id="linearGradient3721" xlink:href="#ButtonShadow-0" y1="6.1317081" x1="32.251034" y2="90.238609" x2="32.251034" gradientUnits="userSpaceOnUse"/>
<linearGradient id="linearGradient3187">
<stop offset="0" style="stop-color:#3c393e" id="stop3189"/>
<stop offset="1" style="stop-color:#79727e" id="stop3191"/>
</linearGradient>
<linearGradient gradientTransform="translate(0,-0.3788072)" id="linearGradient3735" xlink:href="#linearGradient3738" y1="32.676064" x1="39.071732" y2="52.121498" x2="41.723381" gradientUnits="userSpaceOnUse"/>
<linearGradient gradientTransform="matrix(1.0323529,0,0,1.0568182,-0.86659662,-4.1659904)" id="linearGradient3821" xlink:href="#linearGradient3815" y1="90.523804" x1="47.773705" y2="47.968628" x2="59.446556" gradientUnits="userSpaceOnUse"/>
<linearGradient id="linearGradient3811" xlink:href="#linearGradient3700" y1="90" x1="48" y2="5.9877172" x2="48" gradientUnits="userSpaceOnUse"/>
<linearGradient gradientTransform="translate(-80,0)" id="linearGradient3725" xlink:href="#linearGradient3701" y1="30.340084" x1="137.63329" y2="47.638947" x2="133.59268" gradientUnits="userSpaceOnUse"/>
<linearGradient gradientTransform="matrix(1.0238095,0,0,1.0119048,-1.1428571,-98.071429)" id="linearGradient2969" xlink:href="#ButtonShadow-0" y1="6.1317081" x1="32.251034" y2="90.238609" x2="32.251034" gradientUnits="userSpaceOnUse"/>
<linearGradient id="linearGradient3701">
<stop offset="0" style="stop-color:#fff" id="stop3703"/>
<stop offset="1" style="stop-color:#fff;stop-opacity:0" id="stop3705"/>
</linearGradient>
<linearGradient gradientTransform="scale(1.0058652,0.994169)" id="ButtonShadow" y1="92.539597" x1="45.447727" y2="7.0165396" x2="45.447727" gradientUnits="userSpaceOnUse">
<stop offset="0" id="stop3750"/>
<stop offset="1" style="stop-opacity:.588" id="stop3752"/>
</linearGradient>
<linearGradient id="linearGradient3691">
<stop offset="0" id="stop3693"/>
<stop offset="1" style="stop-opacity:0" id="stop3695"/>
</linearGradient>
<linearGradient id="linearGradient3738">
<stop offset="0" style="stop-opacity:0" id="stop3740"/>
<stop offset="1" style="stop-opacity:0" id="stop3742"/>
</linearGradient>
<linearGradient id="linearGradient3744">
<stop offset="0" id="stop3746"/>
<stop offset="1" style="stop-opacity:0" id="stop3748"/>
</linearGradient>
<linearGradient id="linearGradient3815">
<stop offset="0" id="stop3817"/>
<stop offset="1" style="stop-opacity:0" id="stop3819"/>
</linearGradient>
<linearGradient id="linearGradient3769">
<stop offset="0" style="stop-color:#6f0" id="stop3771"/>
<stop offset="1" style="stop-color:#6f0;stop-opacity:0" id="stop3773"/>
</linearGradient>
<linearGradient id="linearGradient3781">
<stop offset="0" style="stop-color:#ff4a00" id="stop3783"/>
<stop offset="1" style="stop-color:#ff4a00;stop-opacity:0" id="stop3785"/>
</linearGradient>
<linearGradient id="linearGradient3737">
<stop offset="0" style="stop-color:#fff" id="stop3739"/>
<stop offset="1" style="stop-color:#fff;stop-opacity:0" id="stop3741"/>
</linearGradient>
<linearGradient id="linearGradient3700">
<stop offset="0" style="stop-color:#333" id="stop3702"/>
<stop offset="1" style="stop-color:#545454" id="stop3704"/>
</linearGradient>
<linearGradient id="linearGradient3673">
<stop offset="0" style="stop-color:#f70000" id="stop3675"/>
<stop offset="1" style="stop-color:#ff6e2a;stop-opacity:.839" id="stop3677"/>
</linearGradient>
<linearGradient gradientTransform="translate(-80,0)" id="linearGradient3707" xlink:href="#linearGradient3701" y1="38.074066" x1="113.77351" y2="54.953613" x2="113.77351" gradientUnits="userSpaceOnUse"/>
<linearGradient id="linearGradient3697" xlink:href="#linearGradient3691" y1="58.322441" x1="36.280766" y2="74.737419" x2="61.960495" gradientUnits="userSpaceOnUse"/>
<linearGradient id="linearGradient3681">
<stop offset="0" style="stop-color:#28c809" id="stop3683"/>
<stop offset="1" style="stop-color:#88f342;stop-opacity:.758" id="stop3685"/>
</linearGradient>
<linearGradient id="linearGradient3188" xlink:href="#linearGradient3737" y1="6" x1="36.357143" y2="63.893143" x2="36.357143" gradientUnits="userSpaceOnUse"/>
<linearGradient id="linearGradient3663">
<stop offset="0" style="stop-color:#6ecbf8" id="stop3665"/>
<stop offset="1" style="stop-color:#0077b9" id="stop3667"/>
</linearGradient>
<linearGradient id="linearGradient3613" xlink:href="#linearGradient3737" y1="20.220806" x1="48" y2="138.66119" x2="48" gradientUnits="userSpaceOnUse"/>
<linearGradient id="linearGradient3617" xlink:href="#linearGradient3187" y1="90" x1="48" y2="5.9877172" x2="48" gradientUnits="userSpaceOnUse"/>
<radialGradient fx="48" fy="90.171875" cx="48" cy="90.171875" gradientTransform="matrix(1.1573129,0,0,0.99590774,-7.5510206,0.19713193)" r="42" id="radialGradient3619" xlink:href="#linearGradient3737" gradientUnits="userSpaceOnUse"/>
</defs>
<g style="display:none" id="layer2">
<rect width="86" x="5" y="7" rx="6" height="85" ry="6" style="opacity:.9;fill:url(#ButtonShadow);filter:url(#filter3174);stroke:none" id="rect3745"/>
</g>
<g style="stroke:none" id="layer4">
<path style="opacity:.08;fill:url(#linearGradient2969)" id="path3786" d="m 12,-95.0312 c -5.51109,0 -10.0312,4.52016 -10.0312,10.0312 v 71 c 0,5.51109 4.52016,10.0312 10.0312,10.0312 h 72 c 5.51109,0 10.0312,-4.52016 10.0312,-10.0312 v -71 c 0,-5.51109 -4.52016,-10.0312 -10.0312,-10.0312 h -72 z " transform="scale(1,-1)"/>
<path style="opacity:.1;fill:url(#linearGradient3780)" id="path3778" d="m 12,-94.0312 c -4.97163,0 -9.03125,4.05962 -9.03125,9.03125 v 71 c 0,4.97163 4.05962,9.03125 9.03125,9.03125 h 72 c 4.97163,0 9.03125,-4.05962 9.03125,-9.03125 v -71 c 0,-4.97163 -4.05962,-9.03125 -9.03125,-9.03125 h -72 z " transform="scale(1,-1)"/>
<path style="opacity:.2;fill:url(#linearGradient3772)" id="path3770" d="m 12,-93 c -4.40913,0 -8,3.59087 -8,8 v 71 c 0,4.40913 3.59087,8 8,8 h 72 c 4.40913,0 8,-3.59087 8,-8 v -71 c 0,-4.40913 -3.59087,-8 -8,-8 h -72 z " transform="scale(1,-1)"/>
<rect width="86" x="5" y="-92" rx="7" height="85" ry="7" style="opacity:.3;fill:url(#linearGradient3725-3)" id="rect3723" transform="scale(1,-1)"/>
<rect width="84" x="6" y="-91" rx="6" height="84" ry="6" style="opacity:.45;fill:url(#linearGradient3721)" id="rect3716" transform="scale(1,-1)"/>
</g>
<g style="stroke:none" id="layer1">
<rect width="84" x="6" y="6" rx="6" height="84" ry="6" style="fill:url(#linearGradient3617)" id="rect2419"/>
<path style="opacity:.3;fill:url(#linearGradient3188)" id="rect3728" d="m 12,6 c -3.324,0 -6,2.676 -6,6 v 2 68 2 c 0,0.334721 0.04135,0.6507 0.09375,0.96875 0.0487,0.295596 0.09704,0.596915 0.1875,0.875 0.00988,0.03038 0.020892,0.0636 0.03125,0.09375 0.098865,0.287771 0.23488,0.547452 0.375,0.8125 0.144592,0.273507 0.315616,0.535615 0.5,0.78125 0.184384,0.245635 0.373776,0.473472 0.59375,0.6875 0.439947,0.428056 0.94291,0.814526 1.5,1.09375 0.278545,0.139612 0.573473,0.246947 0.875,0.34375 -0.256202,-0.100222 -0.486711,-0.236272 -0.71875,-0.375 -0.00741,-0.0044 -0.023866,0.0045 -0.03125,0 -0.031933,-0.0193 -0.062293,-0.04251 -0.09375,-0.0625 -0.120395,-0.0767 -0.231023,-0.163513 -0.34375,-0.25 -0.106173,-0.0808 -0.213281,-0.161112 -0.3125,-0.25 -0.17793,-0.161433 -0.34746,-0.345388 -0.5,-0.53125 -0.107579,-0.130255 -0.218394,-0.265285 -0.3125,-0.40625 -0.025089,-0.03838 -0.038446,-0.08587 -0.0625,-0.125 -0.064763,-0.103032 -0.130228,-0.204517 -0.1875,-0.3125 -0.101008,-0.194706 -0.205675,-0.415701 -0.28125,-0.625 -0.00796,-0.02181 -0.023589,-0.04055 -0.03125,-0.0625 -0.0318251,-0.09195 -0.0358045,-0.186831 -0.0625,-0.28125 -0.0303323,-0.106618 -0.0703894,-0.203031 -0.09375,-0.3125 -0.0728786,-0.341512 -0.125,-0.698205 -0.125,-1.0625 v -2 -68 -2 c 0,-2.78185 2.21815,-5 5,-5 h 2 68 2 c 2.78185,0 5,2.21815 5,5 v 2 68 2 c 0,0.364295 -0.05212,0.720988 -0.125,1.0625 -0.04415,0.206893 -0.08838,0.397658 -0.15625,0.59375 -0.0077,0.02195 -0.0233,0.04069 -0.03125,0.0625 -0.06274,0.173739 -0.138383,0.367449 -0.21875,0.53125 -0.04158,0.0828 -0.07904,0.169954 -0.125,0.25 -0.0546,0.09721 -0.126774,0.18835 -0.1875,0.28125 -0.09411,0.140965 -0.204921,0.275995 -0.3125,0.40625 -0.143174,0.17445 -0.303141,0.346998 -0.46875,0.5 -0.01117,0.0102 -0.01998,0.02115 -0.03125,0.03125 -0.138386,0.125556 -0.285091,0.234436 -0.4375,0.34375 -0.102571,0.07315 -0.204318,0.153364 -0.3125,0.21875 -0.0074,0.0045 -0.02384,-0.0044 -0.03125,0 -0.232039,0.138728 -0.462548,0.274778 -0.71875,0.375 0.301527,-0.0968 0.596455,-0.204138 0.875,-0.34375 0.55709,-0.279224 1.06005,-0.665694 1.5,-1.09375 0.219973,-0.214028 0.409366,-0.441865 0.59375,-0.6875 0.184384,-0.245635 0.355408,-0.507743 0.5,-0.78125 0.14012,-0.265048 0.276135,-0.524729 0.375,-0.8125 0.01041,-0.03078 0.02133,-0.06274 0.03125,-0.09375 0.09046,-0.278085 0.1388,-0.579404 0.1875,-0.875 0.0524,-0.31805 0.09375,-0.634029 0.09375,-0.96875 v -2 -68 -2 c 0,-3.324 -2.676,-6 -6,-6 h -72 z "/>
<path style="opacity:.2;fill:url(#radialGradient3619)" id="path3615" d="M 12,90 C 8.676,90 6,87.324 6,84 L 6,82 6,14 6,12 c 0,-0.334721 0.04135,-0.6507 0.09375,-0.96875 0.0487,-0.295596 0.09704,-0.596915 0.1875,-0.875 C 6.29113,10.12587 6.302142,10.09265 6.3125,10.0625 6.411365,9.774729 6.5473802,9.515048 6.6875,9.25 6.8320918,8.976493 7.0031161,8.714385 7.1875,8.46875 7.3718839,8.223115 7.5612765,7.995278 7.78125,7.78125 8.221197,7.353194 8.72416,6.966724 9.28125,6.6875 9.559795,6.547888 9.8547231,6.440553 10.15625,6.34375 9.9000482,6.443972 9.6695391,6.580022 9.4375,6.71875 c -0.00741,0.0044 -0.023866,-0.0045 -0.03125,0 -0.031933,0.0193 -0.062293,0.04251 -0.09375,0.0625 -0.120395,0.0767 -0.2310226,0.163513 -0.34375,0.25 -0.1061728,0.0808 -0.2132809,0.161112 -0.3125,0.25 C 8.4783201,7.442683 8.3087904,7.626638 8.15625,7.8125 8.0486711,7.942755 7.9378561,8.077785 7.84375,8.21875 7.818661,8.25713 7.805304,8.30462 7.78125,8.34375 7.716487,8.446782 7.6510225,8.548267 7.59375,8.65625 7.4927417,8.850956 7.3880752,9.071951 7.3125,9.28125 7.30454,9.30306 7.288911,9.3218 7.28125,9.34375 7.2494249,9.4357 7.2454455,9.530581 7.21875,9.625 7.1884177,9.731618 7.1483606,9.828031 7.125,9.9375 7.0521214,10.279012 7,10.635705 7,11 l 0,2 0,68 0,2 c 0,2.781848 2.2181517,5 5,5 l 2,0 68,0 2,0 c 2.781848,0 5,-2.218152 5,-5 l 0,-2 0,-68 0,-2 C 89,10.635705 88.94788,10.279012 88.875,9.9375 88.83085,9.730607 88.78662,9.539842 88.71875,9.34375 88.71105,9.3218 88.69545,9.30306 88.6875,9.28125 88.62476,9.107511 88.549117,8.913801 88.46875,8.75 88.42717,8.6672 88.38971,8.580046 88.34375,8.5 88.28915,8.40279 88.216976,8.31165 88.15625,8.21875 88.06214,8.077785 87.951329,7.942755 87.84375,7.8125 87.700576,7.63805 87.540609,7.465502 87.375,7.3125 87.36383,7.3023 87.35502,7.29135 87.34375,7.28125 87.205364,7.155694 87.058659,7.046814 86.90625,6.9375 86.803679,6.86435 86.701932,6.784136 86.59375,6.71875 c -0.0074,-0.0045 -0.02384,0.0044 -0.03125,0 -0.232039,-0.138728 -0.462548,-0.274778 -0.71875,-0.375 0.301527,0.0968 0.596455,0.204138 0.875,0.34375 0.55709,0.279224 1.060053,0.665694 1.5,1.09375 0.219973,0.214028 0.409366,0.441865 0.59375,0.6875 0.184384,0.245635 0.355408,0.507743 0.5,0.78125 0.14012,0.265048 0.276135,0.524729 0.375,0.8125 0.01041,0.03078 0.02133,0.06274 0.03125,0.09375 0.09046,0.278085 0.1388,0.579404 0.1875,0.875 C 89.95865,11.3493 90,11.665279 90,12 l 0,2 0,68 0,2 c 0,3.324 -2.676,6 -6,6 l -72,0 z"/>
</g>
<g id="layer5">
<rect width="66" x="15" y="15" rx="12" height="66" ry="12" style="opacity:.1;fill:url(#linearGradient3613);filter:url(#filter3794);stroke:#fff;stroke-linecap:round;stroke-width:.5;clip-path:url(#clipPath3613)" id="rect3171"/>
</g>
<g id="layer3">
<g style="stroke:none">
<path style="fill:url(#linearGradient3821)" id="path3813" d="m 50.5667,73.3214 38.8976,-19.6307 -32.4685,-19.8336 -30.2101,28.5187 23.781,10.9456 z "/>
<g style="clip-path:url(#clipPath3807)" id="g3803">
<path style="opacity:.2;fill:url(#linearGradient3779);filter:url(#filter3791)" id="path3777" d="m 49.2143,73.1429 0,22.8571 -49.2857,0 .1786,-20.8929 26.9643,-11.6071 22.1429,9.6429 z "/>
<path style="opacity:.2;fill:url(#linearGradient3775);filter:url(#filter3795)" id="path3759" d="m 49.2857,73.3214 0,22.8571 46.9643,0 0,-27.5 -27.1429,-8.75 -19.8214,13.3929 z "/>
</g>
<path style="opacity:.8;fill:#045" id="path3717" d="m 47.25,28.5312 -20.75,5.4375 0,.5625 .5,-.0625 20,-5.25 21.75,3.375 .875,.125 0,-.5625 -22.375,-3.625 z "/>
<path style="opacity:.8;fill:url(#linearGradient3757)" id="rect3659" d="m 77.6234,28.7427 17.4584,-5.1593 3.5506,23.6943 -21.8494,1.4249 .8404,-19.9599 z " transform="matrix(0.96152395,0.27472113,-0.96152395,0.27472113,0,0)"/>
<path style="fill:url(#linearGradient3697)" id="rect3661" d="m 47.1263,52.8422 20.0113,6.2221 -17.7903,11.7463 -20.5163,-9.0947 18.2954,-8.8737 z "/>
<path style="opacity:.8;fill:url(#linearGradient3749)" id="path3679" d="m 49.3712,40.0628 0,32.5774 19.3192,-13.0057 0,-27.0216 -19.3192,7.4499 z "/>
<path style="opacity:.8;fill:url(#linearGradient3732)" id="path3681" d="m 49.3712,40.0628 0,32.5774 -22.1864,-9.9306 -.1001,-28.2342 22.2865,5.5874 z "/>
</g>
<path style="opacity:.2;fill:url(#linearGradient3750);stroke:url(#linearGradient3735)" id="path3727" d="m 29.7278,35.1383 17.4251,-4.7982 -.2525,20.9607 -17.1726,9.0914 0,-25.2538 z "/>
<g style="stroke:none;font-family:Abandoned Bitplane">
<path style="opacity:.8;fill:#00aad4" id="path3683" d="m 47,109.221 21.7475,3.3788 -19.3687,7.4848 -22.3788,-5.611 20,-5.2525 z "/>
<path style="opacity:.8;fill:#800000" id="path3685" d="m 47.1263,132.8422 21.5265,6.7272 -19.2424,13.0722 -22.2841,-9.9154 20,-9.8839 z "/>
<path style="opacity:.8;fill:#55d400" id="path3687" d="m 49.3712,120.0628 0,32.5774 19.3192,-13.0057 0,-27.0216 -19.3192,7.4499 z "/>
<path style="opacity:.8;fill:#f00" id="path3689" d="m 49.3712,120.0628 0,32.5774 -22.1864,-9.9306 -.1001,-28.2342 22.2865,5.5874 z "/>
<path style="opacity:.6;fill:url(#linearGradient3707)" id="path3699" d="m 28.402,36.7167 18.751,4.9876 -14.4578,21.7183 l -4.3563,-1.9572 .0631,-24.7487 h 4e-05 z "/>
<path style="opacity:.4;fill:url(#linearGradient3725)" id="path3709" d="m 48.2894,30.3401 0,21.592 18.6878,5.6821 0,-24.4962 -18.6878,-2.7779 z "/>
<g style="color:#000;text-transform:none;text-align:start;stroke-width:2;text-indent:0;line-height:normal">
<path style="opacity:.7;fill:url(#linearGradient3682)" id="path2889" d="m 29.125,33.9062 -2.125,.5625 .0938,.0312 v 0.96875 l 21.2188,5.6875 v 31 l 1.0625,.4688 .9375,-.625 v -31.625 -0.78125 l -.7188,-.1875 -20.4688,-5.5 z "/>
<path style="opacity:.7;fill:url(#linearGradient3690)" id="path2891" d="m 66.7188,32.2812 -17.5938,6.9688 l .75,1.875 18.8125,-7.5 v -1 l .0625,-.0312 -2.0312,-.3125 z "/>
</g>
<path style="fill:#800000" id="path3704" d="m 26.5,34.4688 .0938,29 22.7812,10.1875 0,-1.0312 l -22.1875,-9.9062 -.0938,-28.2674 -.5938,.0174 z "/>
<path style="opacity:.8;fill:#250" id="path3710" d="m 69.6875,32.7197 -1,-.1459 0,27.0512 -19.3125,13 0,1.1562 20.3125,-13.375 0,-27.6865 z "/>
</g>
</g>
</svg>
