<svg width="96" version="1.0" xmlns="http://www.w3.org/2000/svg" height="96" xmlns:xlink="http://www.w3.org/1999/xlink">
<defs id="defs2410">
<filter style="color-interpolation-filters:sRGB" id="filter7725">
<feGaussianBlur stdDeviation="1.71" id="feGaussianBlur7727"/>
</filter>
<linearGradient gradientTransform="matrix(0.5,0,0,0.5,45.000008,-93)" id="linearGradient3975" xlink:href="#linearGradient4941" y1="90" x1="48" y2="5.9877172" x2="48" gradientUnits="userSpaceOnUse"/>
<linearGradient id="linearGradient3197" xlink:href="#ButtonShadow" y1="91" x1="32" y2="7.9458008" x2="32" gradientUnits="userSpaceOnUse"/>
<linearGradient gradientTransform="matrix(0.5,0,0,0.5,45.000008,-50.999998)" id="linearGradient8096" xlink:href="#linearGradient3977" y1="90" x1="48" y2="5.9877172" x2="48" gradientUnits="userSpaceOnUse"/>
<linearGradient gradientTransform="matrix(0.5,0,0,0.5,3.000008,-92.999998)" id="linearGradient3987" xlink:href="#linearGradient3977" y1="90" x1="48" y2="5.9877172" x2="48" gradientUnits="userSpaceOnUse"/>
<linearGradient gradientTransform="translate(0,-42)" id="linearGradient4011" xlink:href="#linearGradient3997" y1="48" x1="24" y2="88" x2="24" gradientUnits="userSpaceOnUse"/>
<linearGradient gradientTransform="translate(42,-42)" id="linearGradient4007" xlink:href="#linearGradient3997" y1="48" x1="24" y2="88" x2="24" gradientUnits="userSpaceOnUse"/>
<linearGradient gradientTransform="matrix(0.5,0,0,0.5,3.000008,-51)" id="linearGradient3993" xlink:href="#linearGradient4941" y1="90" x1="48" y2="5.9877172" x2="48" gradientUnits="userSpaceOnUse"/>
<linearGradient id="linearGradient4003" xlink:href="#linearGradient3997" y1="48" x1="24" y2="88" x2="24" gradientUnits="userSpaceOnUse"/>
<linearGradient gradientTransform="translate(100,0)" id="linearGradient7959" xlink:href="#ButtonShadow" y1="92.08268" x1="-34.399559" y2="7" x2="-34.399559" gradientUnits="userSpaceOnUse"/>
<linearGradient gradientTransform="translate(42,0)" id="linearGradient4015" xlink:href="#linearGradient3997" y1="48" x1="24" y2="88" x2="24" gradientUnits="userSpaceOnUse"/>
<linearGradient id="linearGradient4941">
<stop offset="0" style="stop-color:#2a2a2a" id="stop4943"/>
<stop offset="1" style="stop-color:#4b4b4b" id="stop4945"/>
</linearGradient>
<linearGradient id="linearGradient3997">
<stop offset="0" style="stop-color:#fff" id="stop3999"/>
<stop offset="1" style="stop-color:#fff;stop-opacity:0" id="stop4001"/>
</linearGradient>
<linearGradient id="linearGradient3977">
<stop offset="0" style="stop-color:#366598" id="stop3979"/>
<stop offset="1" style="stop-color:#6593c3" id="stop3981"/>
</linearGradient>
<linearGradient gradientTransform="scale(1.0058652,0.994169)" id="ButtonShadow" y1="92.539597" x1="45.447727" y2="7.0165396" x2="45.447727" gradientUnits="userSpaceOnUse">
<stop offset="0" id="stop3750"/>
<stop offset="1" style="stop-opacity:.588" id="stop3752"/>
</linearGradient>
<linearGradient id="linearGradient3737">
<stop offset="0" style="stop-color:#fff" id="stop3739"/>
<stop offset="1" style="stop-color:#fff;stop-opacity:0" id="stop3741"/>
</linearGradient>
<linearGradient id="linearGradient3188" xlink:href="#linearGradient3737" y1="6" x1="36.357143" y2="63.893143" x2="36.357143" gradientUnits="userSpaceOnUse"/>
<linearGradient id="linearGradient3700">
<stop offset="0" style="stop-color:#2276c5" id="stop3702"/>
<stop offset="1" style="stop-color:#69a9e6" id="stop3704"/>
</linearGradient>
<linearGradient id="linearGradient3706" xlink:href="#linearGradient3700" y1="90" x1="48" y2="5.9877172" x2="48" gradientUnits="userSpaceOnUse"/>
</defs>
<g style="display:none" id="layer5">
<path style="opacity:.9;fill:url(#linearGradient7959);filter:url(#filter7725);stroke:none" id="rect7705" d="M 11.28125,7 C 7.7989644,7 5,9.7531077 5,13.15625 l 0,30.6875 C 5,46.372474 6.5571633,48.555702 8.78125,49.5 6.5571633,50.444298 5,52.627526 5,55.15625 l 0,30.6875 C 5,89.246893 7.7989644,92 11.28125,92 l 31.4375,0 C 44.936751,92 46.881799,90.87394 48,89.1875 49.118201,90.873939 51.06325,92 53.28125,92 l 31.4375,0 C 88.201036,92 91,89.246896 91,85.84375 l 0,-30.6875 C 91,51.753107 88.201035,49 84.71875,49 l -31.4375,0 C 51.063249,49 49.118201,50.126061 48,51.8125 47.332888,50.80638 46.356133,49.982908 45.21875,49.5 47.442837,48.555702 49,46.372474 49,43.84375 l 0,-30.6875 C 49,9.7531072 46.201035,7 42.71875,7 l -31.4375,0 z"/>
</g>
<g style="stroke:none" id="layer2">
<path style="opacity:.08" id="path3846" d="M 12,4 C 6.511945,4 2,8.5119452 2,14 l 0,29 c 0,2.498542 1.137525,4.586599 2.65625,6.25 C 3.228832,50.799061 2.288351,52.771646 2.0625,54.96875 2.019497,55.302973 2,55.649272 2,56 l 0,29 c 0,5.488055 4.511945,10 10,10 l 30,0 c 2.37739,0 4.366863,-1.047966 6,-2.40625 0.204142,0.169786 0.409661,0.341353 0.625,0.5 C 50.132375,94.204281 51.919784,95 54,95 l 30,0 c 0.686007,0 1.351403,-0.08466 2,-0.21875 1.945793,-0.402277 3.702005,-1.358255 5.0625,-2.71875 C 92.876493,90.248507 94,87.744028 94,85 L 94,56 C 94,55.649272 93.9805,55.302973 93.9375,54.96875 93.711649,52.771646 92.771168,50.799061 91.34375,49.25 92.862475,47.586599 94,45.498542 94,43 L 94,14 C 94,8.5119452 89.488055,4 84,4 L 54,4 C 51.750418,4 49.678041,4.75856 48,6.03125 46.321959,4.75856 44.249582,4 42,4 L 12,4 z"/>
<path style="opacity:.1" id="path3842" d="m 12,5 c -4.95097,0 -9,4.04903 -9,9 v 29 c 0,2.57245 1.25693,4.73167 3,6.34375 -1.82804,1.6501 -3,4.01405 -3,6.65625 v 29 c 0,4.95097 4.04903,9 9,9 h 30 c 2.38867,0 4.4143,-1.08079 6,-2.59375 0.198212,0.18912 0.41319,0.356902 0.625,0.53125 1.48267,1.22044 3.28491,2.0625 5.375,2.0625 h 30 c 0.309436,0 0.604629,-0.000385 0.90625,-0.03125 0.301621,-0.03087 0.61398,-0.09606 0.90625,-0.15625 1.16908,-0.240771 2.26076,-0.695197 3.21875,-1.34375 0.239497,-0.162138 0.465038,-0.347467 0.6875,-0.53125 2.00216,-1.65405 3.28125,-4.15258 3.28125,-6.9375 v -29 c 0,-2.6422 -1.17196,-5.00615 -3,-6.65625 1.74307,-1.61208 3,-3.7713 3,-6.34375 v -29 c 0,-4.95097 -4.04903,-9 -9,-9 h -30 c -2.30877,0 -4.40264,0.901878 -6,2.34375 -1.59736,-1.44187 -3.69123,-2.34375 -6,-2.34375 h -30 z  m 36,44.3125 c 0.0434,0.04032 0.08101,0.08533 0.125,0.125 -0.04357,0.03986 -0.08363,0.08311 -0.125,0.125 -0.04137,-0.04189 -0.08143,-0.08514 -0.125,-0.125 0.04399,-0.03967 0.0816,-0.08468 0.125,-0.125 z "/>
<path style="opacity:.2" id="path3184" d="M 12,6 C 7.593306,6 4,9.593306 4,14 l 0,29 c 0,2.689622 1.365461,5.027239 3.40625,6.46875 C 6.125989,50.371093 5.139494,51.645521 4.5625,53.125 4.4696,53.363215 4.382538,53.595206 4.3125,53.84375 4.28239,53.947689 4.24457,54.050525 4.21875,54.15625 4.152592,54.433155 4.098882,54.712918 4.0625,55 4.020613,55.330518 4,55.658412 4,56 l 0,29 c 0,4.406694 3.593306,8 8,8 l 30,0 c 2.422034,0 4.538346,-1.140945 6,-2.84375 0.182707,0.212851 0.391267,0.430839 0.59375,0.625 C 50.011133,92.14038 51.88072,93 54,93 l 30,0 c 0.275418,0 0.544115,-0.0039 0.8125,-0.03125 2.147081,-0.219152 4.037725,-1.293557 5.34375,-2.875 C 91.299022,88.709987 92,86.927929 92,85 L 92,56 C 92,55.658412 91.97939,55.330518 91.9375,55 91.90112,54.712918 91.84741,54.433155 91.78125,54.15625 91.75656,54.052898 91.71618,53.945522 91.6875,53.84375 91.61648,53.598588 91.531404,53.359471 91.4375,53.125 90.860506,51.645521 89.874011,50.371093 88.59375,49.46875 90.634539,48.027239 92,45.689622 92,43 L 92,14 C 92,9.593306 88.406694,6 84,6 L 54,6 C 51.610508,6 49.467967,7.0489117 48,8.71875 46.532033,7.0489117 44.389492,6 42,6 L 12,6 z M 48,48.21875 C 48.431235,48.701176 48.935293,49.129678 49.46875,49.5 48.929507,49.890594 48.432856,50.339005 48,50.84375 47.567144,50.339005 47.070493,49.890594 46.53125,49.5 47.064707,49.129678 47.568765,48.701176 48,48.21875 z"/>
<path style="opacity:.3" id="rect3816" d="M 12,7 C 8.122,7 5,10.122 5,14 l 0,29 c 0,2.969094 1.839232,5.479063 4.4375,6.5 -0.332335,0.130584 -0.663773,0.259894 -0.96875,0.4375 -0.887064,0.51659 -1.636611,1.252826 -2.21875,2.09375 -0.01606,0.0232 -0.04671,0.03909 -0.0625,0.0625 -0.156349,0.231807 -0.278093,0.468149 -0.40625,0.71875 -0.01741,0.03377 -0.04563,0.05966 -0.0625,0.09375 -0.05915,0.120321 -0.103919,0.250863 -0.15625,0.375 -0.08328,0.19619 -0.184678,0.388674 -0.25,0.59375 -0.003,0.0094 0.0029,0.02179 0,0.03125 -0.0446,0.142202 -0.05816,0.291439 -0.09375,0.4375 -0.02992,0.123715 -0.07046,0.248773 -0.09375,0.375 -0.01537,0.08324 -0.01885,0.16572 -0.03125,0.25 C 5.043826,55.307344 5,55.647102 5,56 l 0,29 c 0,3.878 3.122,7 7,7 l 30,0 c 2.557737,0 4.77882,-1.368894 6,-3.40625 0.152648,0.25467 0.317401,0.486338 0.5,0.71875 C 49.778193,90.939384 51.76198,92 54,92 l 30,0 c 0.242375,0 0.482859,-0.0074 0.71875,-0.03125 2.358911,-0.23813 4.362378,-1.640972 5.4375,-3.625 C 90.693811,87.351736 91,86.211875 91,85 l 0,-29 c 0,-0.352898 -0.04383,-0.692656 -0.09375,-1.03125 -0.01234,-0.08372 -0.01599,-0.167292 -0.03125,-0.25 -0.02378,-0.128765 -0.06303,-0.248898 -0.09375,-0.375 C 90.651126,53.805756 90.464631,53.2933 90.21875,52.8125 90.090593,52.561899 89.968849,52.325557 89.8125,52.09375 89.79671,52.07034 89.76606,52.05445 89.75,52.03125 89.167861,51.190326 88.418314,50.45409 87.53125,49.9375 87.52385,49.9332 87.5074,49.9418 87.5,49.9375 87.202153,49.765607 86.886256,49.627213 86.5625,49.5 89.160768,48.479063 91,45.969094 91,43 L 91,14 C 91,10.122 87.878,7 84,7 L 54,7 C 51.442263,7 49.22118,8.3688935 48,10.40625 46.77882,8.3688935 44.557737,7 42,7 L 12,7 z m 36,39.5625 c 0.78946,1.318846 1.987022,2.367564 3.4375,2.9375 -0.319429,0.127033 -0.643482,0.266722 -0.9375,0.4375 -0.03211,0.01865 -0.06197,0.04335 -0.09375,0.0625 -0.333179,0.200712 -0.643646,0.435798 -0.9375,0.6875 -0.219536,0.188044 -0.430255,0.380248 -0.625,0.59375 -0.111162,0.120925 -0.210045,0.246348 -0.3125,0.375 -0.192914,0.242484 -0.371196,0.482974 -0.53125,0.75 -0.160054,-0.267026 -0.338336,-0.507516 -0.53125,-0.75 -0.102455,-0.128652 -0.201338,-0.254075 -0.3125,-0.375 -0.194745,-0.213502 -0.405464,-0.405706 -0.625,-0.59375 C 46.237396,50.435798 45.926929,50.200712 45.59375,50 45.56177,49.98087 45.53232,49.95614 45.5,49.9375 45.205982,49.766722 44.881929,49.627033 44.5625,49.5 46.012978,48.930064 47.21054,47.881346 48,46.5625 z"/>
<path style="opacity:.45;fill:url(#linearGradient3197)" id="rect3037" d="M 12,7 C 8.676,7 6,9.676 6,13 l 0,30 c 0,3.324 2.676,6 6,6 -3.324,0 -6,2.676 -6,6 l 0,30 c 0,3.324 2.676,6 6,6 l 30,0 c 3.324,0 6,-2.676 6,-6 0,0.20775 0.01084,0.422808 0.03125,0.625 C 48.337417,88.657886 50.88375,91 54,91 l 30,0 c 3.324,0 6,-2.676 6,-6 l 0,-30 c 0,-3.324 -2.676,-6 -6,-6 3.324,0 6,-2.676 6,-6 L 90,13 C 90,9.676 87.324,7 84,7 L 54,7 C 50.676,7 48,9.676 48,13 48,9.676 45.324,7 42,7 L 12,7 z m 36,36 c 0,3.324 2.676,6 6,6 -3.11625,0 -5.662583,2.342114 -5.96875,5.375 C 48.010839,54.577192 48,54.79225 48,55 c 0,-3.324 -2.676,-6 -6,-6 3.324,0 6,-2.676 6,-6 z"/>
</g>
<g style="display:none;stroke:none" id="layer1">
<rect width="84" x="6" y="6" rx="6" height="84" ry="6" style="fill:url(#linearGradient3706)" id="rect2419"/>
<path style="opacity:.5;fill:url(#linearGradient3188)" id="rect3728" d="m 12,6 c -3.324,0 -6,2.676 -6,6 v 2 68 2 c 0,0.334721 0.04135,0.6507 0.09375,0.96875 0.0487,0.295596 0.09704,0.596915 0.1875,0.875 0.00988,0.03038 0.020892,0.0636 0.03125,0.09375 0.098865,0.287771 0.23488,0.547452 0.375,0.8125 0.144592,0.273507 0.315616,0.535615 0.5,0.78125 0.184384,0.245635 0.373776,0.473472 0.59375,0.6875 0.439947,0.428056 0.94291,0.814526 1.5,1.09375 0.278545,0.139612 0.573473,0.246947 0.875,0.34375 -0.256202,-0.100222 -0.486711,-0.236272 -0.71875,-0.375 -0.00741,-0.0044 -0.023866,0.0045 -0.03125,0 -0.031933,-0.0193 -0.062293,-0.04251 -0.09375,-0.0625 -0.120395,-0.0767 -0.231023,-0.163513 -0.34375,-0.25 -0.106173,-0.0808 -0.213281,-0.161112 -0.3125,-0.25 -0.17793,-0.161433 -0.34746,-0.345388 -0.5,-0.53125 -0.107579,-0.130255 -0.218394,-0.265285 -0.3125,-0.40625 -0.025089,-0.03838 -0.038446,-0.08587 -0.0625,-0.125 -0.064763,-0.103032 -0.130228,-0.204517 -0.1875,-0.3125 -0.101008,-0.194706 -0.205675,-0.415701 -0.28125,-0.625 -0.00796,-0.02181 -0.023589,-0.04055 -0.03125,-0.0625 -0.0318251,-0.09195 -0.0358045,-0.186831 -0.0625,-0.28125 -0.0303323,-0.106618 -0.0703894,-0.203031 -0.09375,-0.3125 -0.0728786,-0.341512 -0.125,-0.698205 -0.125,-1.0625 v -2 -68 -2 c 0,-2.78185 2.21815,-5 5,-5 h 2 68 2 c 2.78185,0 5,2.21815 5,5 v 2 68 2 c 0,0.364295 -0.05212,0.720988 -0.125,1.0625 -0.04415,0.206893 -0.08838,0.397658 -0.15625,0.59375 -0.0077,0.02195 -0.0233,0.04069 -0.03125,0.0625 -0.06274,0.173739 -0.138383,0.367449 -0.21875,0.53125 -0.04158,0.0828 -0.07904,0.169954 -0.125,0.25 -0.0546,0.09721 -0.126774,0.18835 -0.1875,0.28125 -0.09411,0.140965 -0.204921,0.275995 -0.3125,0.40625 -0.143174,0.17445 -0.303141,0.346998 -0.46875,0.5 -0.01117,0.0102 -0.01998,0.02115 -0.03125,0.03125 -0.138386,0.125556 -0.285091,0.234436 -0.4375,0.34375 -0.102571,0.07315 -0.204318,0.153364 -0.3125,0.21875 -0.0074,0.0045 -0.02384,-0.0044 -0.03125,0 -0.232039,0.138728 -0.462548,0.274778 -0.71875,0.375 0.301527,-0.0968 0.596455,-0.204138 0.875,-0.34375 0.55709,-0.279224 1.06005,-0.665694 1.5,-1.09375 0.219973,-0.214028 0.409366,-0.441865 0.59375,-0.6875 0.184384,-0.245635 0.355408,-0.507743 0.5,-0.78125 0.14012,-0.265048 0.276135,-0.524729 0.375,-0.8125 0.01041,-0.03078 0.02133,-0.06274 0.03125,-0.09375 0.09046,-0.278085 0.1388,-0.579404 0.1875,-0.875 0.0524,-0.31805 0.09375,-0.634029 0.09375,-0.96875 v -2 -68 -2 c 0,-3.324 -2.676,-6 -6,-6 h -72 z "/>
</g>
<g style="stroke:none" id="layer3">
<rect width="42" x="48.000004" y="-47.999996" rx="6" height="42" ry="6" style="fill:url(#linearGradient8096)" id="rect8039" transform="matrix(0,1,-1,0,0,0)"/>
<path style="opacity:.3;fill:#fff" id="rect8166" d="m 12,48 c -3.324,0 -6,2.676 -6,6 v 30 c 0,3.324 2.676,6 6,6 h 30 c 3.324,0 6,-2.676 6,-6 v -30 c 0,-3.324 -2.676,-6 -6,-6 h -30 z  m 0,1 30,0 c 2.77892,0 5,2.22108 5,5 v 30 c 0,2.77893 -2.22107,5 -5,5 h -30 c -2.77892,3e-06 -5,-2.22108 -5,-5 v -30 c 0,-2.77892 2.22108,-5 5,-5 z "/>
<path style="fill:#f00" id="rect8160" d="m -68,48 c -3.324,0 -6,2.676 -6,6 v 30 c 0,2.98486 2.15283,5.43487 5,5.90625 -2.28679,-0.463119 -4,-2.47469 -4,-4.90625 v -30 c 0,-2.77892 2.22108,-5 5,-5 h 30 c 2.77892,0 5,2.22108 5,5 v 30 c 0,2.43156 -1.71321,4.44313 -4,4.90625 2.84717,-0.47138 5,-2.92138 5,-5.90625 v -30 c 0,-3.324 -2.676,-6 -6,-6 h -30 z "/>
<rect width="42" x="48.000004" y="-90" rx="6" height="42" ry="6" style="fill:url(#linearGradient3975)" id="rect3971" transform="matrix(0,1,-1,0,0,0)"/>
<path style="opacity:.2;fill:#fff" id="path3973" d="m 54,48 c -3.324,0 -6,2.676 -6,6 v 30 c 0,3.324 2.676,6 6,6 h 30 c 3.324,0 6,-2.676 6,-6 v -30 c 0,-3.324 -2.676,-6 -6,-6 h -30 z  m 0,1 30,0 c 2.77892,0 5,2.22108 5,5 v 30 c 0,2.77893 -2.22107,5 -5,5 h -30 c -2.77892,3e-06 -5,-2.22108 -5,-5 v -30 c 0,-2.77892 2.22108,-5 5,-5 z "/>
<rect width="42" x="6.0000038" y="-90" rx="6" height="42" ry="6" style="fill:url(#linearGradient3987)" id="rect3983" transform="matrix(0,1,-1,0,0,0)"/>
<path style="opacity:.3;fill:#fff" id="path3985" d="m 54,6 c -3.324,0 -6,2.676 -6,6 v 30 c 0,3.324 2.676,6 6,6 h 30 c 3.324,0 6,-2.676 6,-6 v -30 c 0,-3.324 -2.676,-6 -6,-6 h -30 z  m 0,1 30,0 c 2.77892,0 5,2.22108 5,5 v 30 c 0,2.77893 -2.22107,5 -5,5 h -30 c -2.77892,3e-06 -5,-2.22108 -5,-5 v -30 c 0,-2.77892 2.22108,-5 5,-5 z "/>
<rect width="42" x="6.0000038" y="-48" rx="6" height="42" ry="6" style="fill:url(#linearGradient3993)" id="rect3989" transform="matrix(0,1,-1,0,0,0)"/>
<path style="opacity:.2;fill:#fff" id="path3991" d="m 12,6 c -3.324,0 -6,2.676 -6,6 v 30 c 0,3.324 2.676,6 6,6 h 30 c 3.324,0 6,-2.676 6,-6 v -30 c 0,-3.324 -2.676,-6 -6,-6 h -30 z  m 0,1 30,0 c 2.77892,0 5,2.22108 5,5 v 30 c 0,2.77893 -2.22107,5 -5,5 h -30 c -2.77892,3e-06 -5,-2.22108 -5,-5 v -30 c 0,-2.77892 2.22108,-5 5,-5 z "/>
<path style="opacity:.1;fill:url(#linearGradient4003)" id="path3995" d="m 12,48 c -3.324,0 -6,2.676 -6,6 v 30 c 0,2.98486 2.15283,5.43487 5,5.90625 -2.28679,-0.463119 -4,-2.47469 -4,-4.90625 v -30 c 0,-2.77892 2.22108,-5 5,-5 h 30 c 2.77892,0 5,2.22108 5,5 v 30 c 0,2.43156 -1.71321,4.44313 -4,4.90625 2.84717,-0.47138 5,-2.92138 5,-5.90625 v -30 c 0,-3.324 -2.676,-6 -6,-6 h -30 z "/>
<path style="opacity:.1;fill:url(#linearGradient4007)" id="path4005" d="m 54,6 c -3.324,0 -6,2.676 -6,6 v 30 c 0,2.98486 2.15283,5.43487 5,5.90625 -2.28679,-0.463119 -4,-2.47469 -4,-4.90625 v -30 c 0,-2.77892 2.22108,-5 5,-5 h 30 c 2.77892,0 5,2.22108 5,5 v 30 c 0,2.43156 -1.71321,4.44313 -4,4.90625 2.84717,-0.47138 5,-2.92138 5,-5.90625 v -30 c 0,-3.324 -2.676,-6 -6,-6 h -30 z "/>
<path style="opacity:.1;fill:url(#linearGradient4011)" id="path4009" d="m 12,6 c -3.324,0 -6,2.676 -6,6 v 30 c 0,2.98486 2.15283,5.43487 5,5.90625 -2.28679,-0.463119 -4,-2.47469 -4,-4.90625 v -30 c 0,-2.77892 2.22108,-5 5,-5 h 30 c 2.77892,0 5,2.22108 5,5 v 30 c 0,2.43156 -1.71321,4.44313 -4,4.90625 2.84717,-0.47138 5,-2.92138 5,-5.90625 v -30 c 0,-3.324 -2.676,-6 -6,-6 h -30 z "/>
<path style="opacity:.1;fill:url(#linearGradient4015)" id="path4013" d="m 54,48 c -3.324,0 -6,2.676 -6,6 v 30 c 0,2.98486 2.15283,5.43487 5,5.90625 -2.28679,-0.463119 -4,-2.47469 -4,-4.90625 v -30 c 0,-2.77892 2.22108,-5 5,-5 h 30 c 2.77892,0 5,2.22108 5,5 v 30 c 0,2.43156 -1.71321,4.44313 -4,4.90625 2.84717,-0.47138 5,-2.92138 5,-5.90625 v -30 c 0,-3.324 -2.676,-6 -6,-6 h -30 z "/>
</g>
</svg>
