<svg width="96" version="1.0" xmlns="http://www.w3.org/2000/svg" height="96" xmlns:xlink="http://www.w3.org/1999/xlink">
<defs id="defs2410">
<clipPath id="clipPath3613">
<rect width="84" x="6" y="6" rx="6" height="84" ry="6" style="fill:#fff;stroke:none" id="rect3615"/>
</clipPath>
<filter width="1.3839999" x="-0.192" y="-0.192" height="1.3839999" style="color-interpolation-filters:sRGB" id="filter3794">
<feGaussianBlur stdDeviation="5.28" id="feGaussianBlur3796"/>
</filter>
<filter style="color-interpolation-filters:sRGB" id="filter3174">
<feGaussianBlur stdDeviation="1.71" id="feGaussianBlur3176"/>
</filter>
<linearGradient gradientTransform="matrix(1.0058652,0,0,0.994169,100,0)" id="ButtonShadow-0" y1="92.539597" x1="45.447727" y2="7.0165396" x2="45.447727" gradientUnits="userSpaceOnUse">
<stop offset="0" id="stop3750-8"/>
<stop offset="1" style="stop-opacity:.588" id="stop3752-5"/>
</linearGradient>
<linearGradient gradientTransform="translate(-1,-1)" id="linearGradient3789" xlink:href="#ButtonShadow-0" y1="91" x1="50" y2="7" x2="50" gradientUnits="userSpaceOnUse"/>
<linearGradient id="linearGradient3858" xlink:href="#ButtonShadow-0" y1="92.00457" x1="46.46909" y2="6.8641505" x2="46.46909" gradientUnits="userSpaceOnUse"/>
<linearGradient gradientTransform="translate(-1,-1)" id="linearGradient3884" xlink:href="#linearGradient3737" y1="6.1566963" x1="45.530357" y2="71.926834" x2="45.530357" gradientUnits="userSpaceOnUse"/>
<linearGradient gradientTransform="translate(-1,-1)" id="linearGradient3834" xlink:href="#ButtonShadow-0" y1="92.00457" x1="46.46909" y2="6.8641505" x2="46.46909" gradientUnits="userSpaceOnUse"/>
<linearGradient id="linearGradient3850" xlink:href="#ButtonShadow-0" y1="92.00457" x1="46.46909" y2="6.8641505" x2="46.46909" gradientUnits="userSpaceOnUse"/>
<linearGradient gradientTransform="translate(100,0)" id="linearGradient3617" xlink:href="#linearGradient3700" y1="90" x1="48" y2="5.9877172" x2="48" gradientUnits="userSpaceOnUse"/>
<linearGradient id="linearGradient3842" xlink:href="#ButtonShadow-0" y1="92.00457" x1="46.46909" y2="6.8641505" x2="46.46909" gradientUnits="userSpaceOnUse"/>
<linearGradient id="linearGradient3738">
<stop offset="0" style="stop-color:#a27a47" id="stop3740"/>
<stop offset="1" style="stop-color:#d5aa65" id="stop3742"/>
</linearGradient>
<linearGradient id="linearGradient3709">
<stop offset="0" style="stop-color:#d9bf83" id="stop3711"/>
<stop offset="1" style="stop-color:#ebe5bd" id="stop3713"/>
</linearGradient>
<linearGradient gradientTransform="scale(1.0058652,0.994169)" id="ButtonShadow" y1="92.539597" x1="45.447727" y2="7.0165396" x2="45.447727" gradientUnits="userSpaceOnUse">
<stop offset="0" id="stop3750"/>
<stop offset="1" style="stop-opacity:.588" id="stop3752"/>
</linearGradient>
<linearGradient id="linearGradient3700">
<stop offset="0" style="stop-color:#2276c5" id="stop3702"/>
<stop offset="1" style="stop-color:#68baf4" id="stop3704"/>
</linearGradient>
<linearGradient id="linearGradient3737">
<stop offset="0" style="stop-color:#fff" id="stop3739"/>
<stop offset="1" style="stop-color:#fff;stop-opacity:0" id="stop3741"/>
</linearGradient>
<linearGradient id="linearGradient3613" xlink:href="#linearGradient3737" y1="20.220806" x1="48" y2="138.66119" x2="48" gradientUnits="userSpaceOnUse"/>
<linearGradient id="linearGradient4292" xlink:href="#linearGradient3738" y1="90" x1="19" y2="47.988098" x2="19" gradientUnits="userSpaceOnUse"/>
<linearGradient gradientTransform="translate(100,0)" id="linearGradient3188" xlink:href="#linearGradient3737" y1="6" x1="36.357143" y2="63.893143" x2="36.357143" gradientUnits="userSpaceOnUse"/>
<radialGradient fx="20" fy="69" cx="20" cy="69" gradientTransform="matrix(1,0,0,1.5,1,-33.5)" r="14" id="radialGradient4290" xlink:href="#linearGradient3709" gradientUnits="userSpaceOnUse"/>
<radialGradient fx="48" fy="90.171875" cx="48" cy="90.171875" gradientTransform="matrix(1.1573129,0,0,0.99590774,92.448979,0.19713193)" r="42" id="radialGradient3619" xlink:href="#linearGradient3737" gradientUnits="userSpaceOnUse"/>
</defs>
<g style="display:none" id="layer2">
<rect width="86" x="5" y="7" rx="6" height="85" ry="6" style="opacity:.9;fill:url(#ButtonShadow);filter:url(#filter3174);stroke:none" id="rect3745"/>
</g>
<g style="stroke:none;color:#000;stroke-width:1.5" id="layer3">
<path style="opacity:.08;fill:url(#linearGradient3858)" id="path3856" d="m 12,4.0625 c -5.47942,0 -9.9375,4.45808 -9.9375,9.9375 v 29 c 0,2.56634 1.12643,4.76376 2.71875,6.5 -1.59232,1.73624 -2.71875,3.93366 -2.71875,6.5 v 29 c 0,5.47942 4.45808,9.9375 9.9375,9.9375 h 16 c 2.36114,0 4.35413,-0.99274 6,-2.34375 1.64587,1.35101 3.63887,2.34375 6,2.34375 h 16 c 2.36113,0 4.35413,-0.99274 6,-2.34375 1.64587,1.35101 3.63886,2.34375 6,2.34375 h 16 c 5.47942,0 9.9375,-4.45808 9.9375,-9.9375 v -29 c 0,-2.56634 -1.12643,-4.76376 -2.71875,-6.5 1.59232,-1.73624 2.71875,-3.93366 2.71875,-6.5 v -29 c 0,-5.47942 -4.45808,-9.9375 -9.9375,-9.9375 h -16 c -2.36114,0 -4.35413,0.99274 -6,2.34375 -1.64587,-1.35101 -3.63887,-2.34375 -6,-2.34375 h -16 c -2.36113,0 -4.35413,0.99274 -6,2.34375 -1.64587,-1.35101 -3.63886,-2.34375 -6,-2.34375 h -16 z " transform="translate(-1,-1)"/>
<path style="opacity:.1;fill:url(#linearGradient3850)" id="path3848" d="m 12,5.125 c -4.89524,0 -8.875,3.97976 -8.875,8.875 v 29 c 0,2.60711 1.1753,4.88457 2.96875,6.5 -1.79345,1.61543 -2.96875,3.89289 -2.96875,6.5 v 29 c 0,4.89524 3.97976,8.875 8.875,8.875 h 16 c 2.37588,0 4.41945,-1.04536 6,-2.5625 1.58055,1.51714 3.62412,2.5625 6,2.5625 h 16 c 2.37588,0 4.41945,-1.04536 6,-2.5625 1.58055,1.51714 3.62412,2.5625 6,2.5625 h 16 c 4.89524,0 8.875,-3.97976 8.875,-8.875 v -29 c 0,-2.60711 -1.1753,-4.88457 -2.96875,-6.5 1.79345,-1.61543 2.96875,-3.89289 2.96875,-6.5 v -29 c 0,-4.89524 -3.97976,-8.875 -8.875,-8.875 h -16 c -2.37588,0 -4.41945,1.04536 -6,2.5625 -1.58055,-1.51714 -3.62412,-2.5625 -6,-2.5625 h -16 c -2.37588,0 -4.41945,1.04536 -6,2.5625 -1.58055,-1.51714 -3.62412,-2.5625 -6,-2.5625 h -16 z  m 22,44.2188 c 0.058325,0.05555 0.127557,0.102241 0.1875,0.15625 -0.059943,0.054009 -0.129175,0.1007 -0.1875,0.15625 -0.058325,-0.05555 -0.127557,-0.102241 -0.1875,-0.15625 0.059943,-0.054009 0.129175,-0.1007 0.1875,-0.15625 z  m 28,0 c 0.058325,0.05555 0.127557,0.102241 0.1875,0.15625 -0.059943,0.054009 -0.129175,0.1007 -0.1875,0.15625 -0.058325,-0.05555 -0.127557,-0.102241 -0.1875,-0.15625 0.059943,-0.054009 0.129175,-0.1007 0.1875,-0.15625 z " transform="translate(-1,-1)"/>
<path style="opacity:.15;fill:url(#linearGradient3842)" id="path3840" d="m 12,5.9375 c -4.45648,0 -8.0625,3.60602 -8.0625,8.0625 v 29 c 0,2.69134 1.3169,5.03652 3.34375,6.5 -2.02685,1.46348 -3.34375,3.80866 -3.34375,6.5 v 29 c 0,4.45648 3.60602,8.0625 8.0625,8.0625 h 16 c 2.40686,0 4.52264,-1.07915 6,-2.75 1.47736,1.67085 3.59314,2.75 6,2.75 h 16 c 2.40686,0 4.52264,-1.07915 6,-2.75 1.47736,1.67085 3.59314,2.75 6,2.75 h 16 c 4.45648,0 8.0625,-3.60602 8.0625,-8.0625 v -29 c 0,-2.69134 -1.3169,-5.03652 -3.34375,-6.5 2.02685,-1.46348 3.34375,-3.80866 3.34375,-6.5 v -29 c 0,-4.45648 -3.60602,-8.0625 -8.0625,-8.0625 h -16 c -2.40686,0 -4.52264,1.07915 -6,2.75 -1.47736,-1.67085 -3.59314,-2.75 -6,-2.75 h -16 c -2.40686,0 -4.52264,1.07915 -6,2.75 -1.47736,-1.67085 -3.59314,-2.75 -6,-2.75 h -16 z  m 22,42.3125 c 0.415186,0.472712 0.861085,0.884615 1.375,1.25 -0.513915,0.365385 -0.959814,0.777288 -1.375,1.25 -0.415186,-0.472712 -0.861085,-0.884615 -1.375,-1.25 0.513915,-0.365385 0.959814,-0.777288 1.375,-1.25 z  m 28,0 c 0.415186,0.472712 0.861085,0.884615 1.375,1.25 -0.513915,0.365385 -0.959814,0.777288 -1.375,1.25 -0.415186,-0.472712 -0.861085,-0.884615 -1.375,-1.25 0.513915,-0.365385 0.959814,-0.777288 1.375,-1.25 z " transform="translate(-1,-1)"/>
<path style="opacity:.3;fill:url(#linearGradient3834)" id="path3798" d="M 11,6 C 7.122,6 4,9.122 4,13 l 0,29 c 0,2.969094 1.8392316,5.479063 4.4375,6.5 C 5.8392316,49.520937 4,52.030906 4,55 l 0,29 c 0,3.878 3.122,7 7,7 l 16,0 c 2.557737,0 4.77882,-1.368894 6,-3.40625 C 34.22118,89.631106 36.442263,91 39,91 l 16,0 c 2.557737,0 4.77882,-1.368894 6,-3.40625 C 62.22118,89.631106 64.442263,91 67,91 l 16,0 c 3.878,0 7,-3.122 7,-7 L 90,55 C 90,52.030906 88.160768,49.520937 85.5625,48.5 88.160768,47.479063 90,44.969094 90,42 L 90,13 C 90,9.122 86.878,6 83,6 L 67,6 C 64.442263,6 62.22118,7.368894 61,9.40625 59.77882,7.368894 57.557737,6 55,6 L 39,6 C 36.442263,6 34.22118,7.368894 33,9.40625 31.77882,7.368894 29.557737,6 27,6 L 11,6 z M 33,45.59375 C 33.780198,46.895394 34.982736,47.92672 36.40625,48.5 34.982736,49.07328 33.780198,50.104606 33,51.40625 32.219802,50.104606 31.017264,49.07328 29.59375,48.5 31.017264,47.92672 32.219802,46.895394 33,45.59375 z m 28,0 C 61.780198,46.895394 62.982736,47.92672 64.40625,48.5 62.982736,49.07328 61.780198,50.104606 61,51.40625 60.219802,50.104606 59.017264,49.07328 57.59375,48.5 59.017264,47.92672 60.219802,46.895394 61,45.59375 z"/>
<path style="opacity:.45;fill:url(#linearGradient3789)" id="rect3768" d="m 11,6 c -3.324,0 -6,2.676 -6,6 v 30 c 0,3.324 2.676,6 6,6 -3.324,0 -6,2.676 -6,6 v 30 c 0,3.324 2.676,6 6,6 h 16 c 3.324,0 6,-2.676 6,-6 0,3.324 2.676,6 6,6 h 16 c 3.324,0 6,-2.676 6,-6 0,3.324 2.676,6 6,6 h 16 c 3.324,0 6,-2.676 6,-6 v -30 c 0,-3.324 -2.676,-6 -6,-6 3.324,0 6,-2.676 6,-6 v -30 c 0,-3.324 -2.676,-6 -6,-6 h -16 c -3.324,0 -6,2.676 -6,6 0,-3.324 -2.676,-6 -6,-6 h -16 c -3.324,0 -6,2.676 -6,6 0,-3.324 -2.676,-6 -6,-6 h -16 z  m 22,36 c 0,3.324 2.676,6 6,6 -3.324,0 -6,2.676 -6,6 0,-3.324 -2.676,-6 -6,-6 3.324,0 6,-2.676 6,-6 z  m 28,0 c 0,3.324 2.676,6 6,6 -3.324,0 -6,2.676 -6,6 0,-3.324 -2.676,-6 -6,-6 3.324,0 6,-2.676 6,-6 z "/>
</g>
<g id="layer1">
<use width="96" x="0" y="0" height="96" id="use3756" xlink:href="#g3746"/>
<g style="stroke:none;color:#000">
<rect width="84" x="106" y="6" rx="6" height="84" ry="6" style="fill:url(#linearGradient3617)" id="rect2419"/>
<path style="opacity:.5;fill:url(#linearGradient3188)" id="rect3728" d="m 112,6 c -3.324,0 -6,2.676 -6,6 v 2 68 2 c 0,0.334721 0.0413,0.6507 0.0937,0.96875 0.0487,0.295596 0.097,0.596915 0.1875,0.875 0.01,0.03038 0.0209,0.0636 0.0312,0.09375 0.0989,0.287771 0.23488,0.547452 0.375,0.8125 0.14459,0.273507 0.31562,0.535615 0.5,0.78125 0.18438,0.245635 0.37378,0.473472 0.59375,0.6875 0.43995,0.428056 0.94291,0.814526 1.5,1.09375 0.27854,0.139612 0.57347,0.246947 0.875,0.34375 -0.2562,-0.100222 -0.48671,-0.236272 -0.71875,-0.375 -0.007,-0.0044 -0.0239,0.0045 -0.0312,0 -0.0319,-0.0193 -0.0623,-0.04251 -0.0937,-0.0625 -0.1204,-0.0767 -0.23102,-0.163513 -0.34375,-0.25 -0.10617,-0.0808 -0.21328,-0.161112 -0.3125,-0.25 -0.17793,-0.161433 -0.34746,-0.345388 -0.5,-0.53125 -0.10758,-0.130255 -0.21839,-0.265285 -0.3125,-0.40625 -0.0251,-0.03838 -0.0384,-0.08587 -0.0625,-0.125 -0.0648,-0.103032 -0.13023,-0.204517 -0.1875,-0.3125 -0.10101,-0.194706 -0.20567,-0.415701 -0.28125,-0.625 -0.008,-0.02181 -0.0236,-0.04055 -0.0312,-0.0625 -0.0318,-0.09195 -0.0358,-0.186831 -0.0625,-0.28125 -0.0303,-0.106618 -0.0704,-0.203031 -0.0937,-0.3125 -0.07298,-0.341512 -0.1251,-0.698205 -0.1251,-1.0625 v -2 -68 -2 c 0,-2.78185 2.21815,-5 5,-5 h 2 68 2 c 2.78185,0 5,2.21815 5,5 v 2 68 2 c 0,0.364295 -0.0521,0.720988 -0.125,1.0625 -0.0442,0.206893 -0.0884,0.397658 -0.15625,0.59375 -0.008,0.02195 -0.0233,0.04069 -0.0312,0.0625 -0.0627,0.173739 -0.13838,0.367449 -0.21875,0.53125 -0.0416,0.0828 -0.079,0.169954 -0.125,0.25 -0.0546,0.09721 -0.12677,0.18835 -0.1875,0.28125 -0.0941,0.140965 -0.20492,0.275995 -0.3125,0.40625 -0.14317,0.17445 -0.30314,0.346998 -0.46875,0.5 -0.0112,0.0102 -0.02,0.02115 -0.0312,0.03125 -0.13839,0.125556 -0.28509,0.234436 -0.4375,0.34375 -0.10257,0.07315 -0.20432,0.153364 -0.3125,0.21875 -0.007,0.0045 -0.0238,-0.0044 -0.0312,0 -0.23204,0.138728 -0.46255,0.274778 -0.71875,0.375 0.30153,-0.0968 0.59646,-0.204138 0.875,-0.34375 0.55709,-0.279224 1.06005,-0.665694 1.5,-1.09375 0.21997,-0.214028 0.40937,-0.441865 0.59375,-0.6875 0.18438,-0.245635 0.35541,-0.507743 0.5,-0.78125 0.14012,-0.265048 0.27613,-0.524729 0.375,-0.8125 0.0104,-0.03078 0.0213,-0.06274 0.0312,-0.09375 0.0905,-0.278085 0.1388,-0.579404 0.1875,-0.875 0.0523,-0.31805 0.09365,-0.634029 0.09365,-0.96875 v -2 -68 -2 c 0,-3.324 -2.676,-6 -6,-6 h -72 z "/>
<path style="opacity:.2;fill:url(#radialGradient3619)" id="path3615" d="m 112,90 c -3.324,0 -6,-2.676 -6,-6 v -2 -68 -2 c 0,-0.334721 0.0413,-0.6507 0.0937,-0.96875 0.0487,-0.295596 0.097,-0.596915 0.1875,-0.875 0.01,-0.03038 0.0209,-0.0636 0.0312,-0.09375 0.0989,-0.287771 0.23488,-0.547452 0.375,-0.8125 0.14459,-0.273507 0.31562,-0.535615 0.5,-0.78125 0.18438,-0.245635 0.37378,-0.473472 0.59375,-0.6875 0.43995,-0.428056 0.94291,-0.814526 1.5,-1.09375 0.27854,-0.139612 0.57347,-0.246947 0.875,-0.34375 -0.2562,0.100222 -0.48671,0.236272 -0.71875,0.375 -0.007,0.0044 -0.0239,-0.0045 -0.0312,0 -0.0319,0.0193 -0.0623,0.04251 -0.0937,0.0625 -0.1204,0.0767 -0.23102,0.163513 -0.34375,0.25 -0.10617,0.0808 -0.21328,0.161112 -0.3125,0.25 -0.17793,0.161433 -0.34746,0.345388 -0.5,0.53125 -0.10758,0.130255 -0.21839,0.265285 -0.3125,0.40625 -0.0251,0.03838 -0.0384,0.08587 -0.0625,0.125 -0.0648,0.103032 -0.13023,0.204517 -0.1875,0.3125 -0.10101,0.194706 -0.20567,0.415701 -0.28125,0.625 -0.008,0.02181 -0.0236,0.04055 -0.0312,0.0625 -0.0318,0.09195 -0.0358,0.186831 -0.0625,0.28125 -0.0303,0.106618 -0.0704,0.203031 -0.0937,0.3125 -0.07298,0.341512 -0.1251,0.698205 -0.1251,1.0625 v 2 68 2 c 0,2.78185 2.21815,5 5,5 h 2 68 2 c 2.78185,0 5,-2.21815 5,-5 v -2 -68 -2 c 0,-0.364295 -0.0521,-0.720988 -0.125,-1.0625 -0.0442,-0.206893 -0.0884,-0.397658 -0.15625,-0.59375 -0.008,-0.02195 -0.0233,-0.04069 -0.0312,-0.0625 -0.0627,-0.173739 -0.13838,-0.367449 -0.21875,-0.53125 -0.0416,-0.0828 -0.079,-0.169954 -0.125,-0.25 -0.0546,-0.09721 -0.12677,-0.18835 -0.1875,-0.28125 -0.0941,-0.140965 -0.20492,-0.275995 -0.3125,-0.40625 -0.14317,-0.17445 -0.30314,-0.346998 -0.46875,-0.5 -0.0112,-0.0102 -0.02,-0.02115 -0.0312,-0.03125 -0.13839,-0.125556 -0.28509,-0.234436 -0.4375,-0.34375 -0.10257,-0.07315 -0.20432,-0.153364 -0.3125,-0.21875 -0.007,-0.0045 -0.0238,0.0044 -0.0312,0 -0.23204,-0.138728 -0.46255,-0.274778 -0.71875,-0.375 0.30153,0.0968 0.59646,0.204138 0.875,0.34375 0.55709,0.279224 1.06005,0.665694 1.5,1.09375 0.21997,0.214028 0.40937,0.441865 0.59375,0.6875 0.18438,0.245635 0.35541,0.507743 0.5,0.78125 0.14012,0.265048 0.27613,0.524729 0.375,0.8125 0.0104,0.03078 0.0213,0.06274 0.0312,0.09375 0.0905,0.278085 0.1388,0.579404 0.1875,0.875 0.0523,0.31805 0.09365,0.634029 0.09365,0.96875 v 2 68 2 c 0,3.324 -2.676,6 -6,6 h -72 z "/>
<g style="fill:#215c26;stroke-width:1.5">
<rect width="28" x="-94" y="48" rx="6" height="42" ry="6" style="opacity:.8" id="rect2890"/>
<rect width="28" x="-66" y="48" rx="6" height="42" ry="6" style="opacity:.8" id="rect2894"/>
<rect width="28" x="-38" y="48" rx="6" height="42" ry="6" style="opacity:.8" id="rect2896"/>
<rect width="28" x="-94" y="6" rx="6" height="42" ry="6" style="opacity:.8" id="rect2898"/>
<rect width="28" x="-66" y="6" rx="6" height="42" ry="6" style="opacity:.8" id="rect2900"/>
<rect width="28" x="-38" y="6" rx="6" height="42" ry="6" style="opacity:.8" id="rect2902"/>
</g>
</g>
<g style="color:#000;stroke-width:1.5;stroke:none" id="g3746" transform="translate(-1,-43)">
<rect width="26" x="7" y="49" rx="5" height="40" ry="5" style="fill:url(#radialGradient4290)" id="rect2904"/>
<path style="opacity:.1;fill:#a05a2c" id="path3728" d="m 12,48 c -3.324,0 -6,2.676 -6,6 v 30 c 0,3.324 2.676,6 6,6 h 16 c 3.324,0 6,-2.676 6,-6 v -30 c 0,-3.324 -2.676,-6 -6,-6 h -16 z  m 0,3.1562 16,0 c 1.63677,0 2.84375,1.20699 2.84375,2.84375 v 30 c 0,1.63676 -1.20698,2.84375 -2.84375,2.84375 h -16 c -1.63677,0 -2.84375,-1.20699 -2.84375,-2.84375 v -30 c 0,-1.63676 1.20698,-2.84375 2.84375,-2.84375 z "/>
<path style="opacity:.2;fill:#c87137" id="rect3717" d="m 12,48 c -3.324,0 -6,2.676 -6,6 v 30 c 0,3.324 2.676,6 6,6 h 16 c 3.324,0 6,-2.676 6,-6 v -30 c 0,-3.324 -2.676,-6 -6,-6 h -16 z  m 0,1.9688 16,0 c 2.26345,0 4.03125,1.7678 4.03125,4.03125 v 30 c 0,2.26345 -1.7678,4.03125 -4.03125,4.03125 h -16 c -2.26345,0 -4.03125,-1.7678 -4.03125,-4.03125 v -30 c 0,-2.26345 1.7678,-4.03125 4.03125,-4.03125 z "/>
<path style="fill:url(#linearGradient4292)" id="rect3702" d="m 12,48 c -3.324,0 -6,2.676 -6,6 v 30 c 0,3.324 2.676,6 6,6 h 16 c 3.324,0 6,-2.676 6,-6 v -30 c 0,-3.324 -2.676,-6 -6,-6 h -16 z  m 0,1.0625 16,0 c 2.74552,0 4.9375,2.19198 4.9375,4.9375 v 30 c 0,2.74552 -2.19198,4.9375 -4.9375,4.9375 h -16 c -2.74552,0 -4.9375,-2.19198 -4.9375,-4.9375 v -30 c 0,-2.74552 2.19198,-4.9375 4.9375,-4.9375 z "/>
</g>
<use width="96" x="0" y="0" height="96" id="use3758" xlink:href="#g3746" transform="translate(0,42)"/>
<use width="96" x="0" y="0" height="96" id="use3760" xlink:href="#g3746" transform="translate(28,0)"/>
<use width="96" x="0" y="0" height="96" id="use3762" xlink:href="#g3746" transform="translate(28,42)"/>
<use width="96" x="0" y="0" height="96" id="use3764" xlink:href="#g3746" transform="translate(56,0)"/>
<use width="96" x="0" y="0" height="96" id="use3766" xlink:href="#g3746" transform="translate(56,42)"/>
<g style="stroke:none;stroke-width:1.5;color:#000">
<path style="opacity:.2;fill:url(#linearGradient3884)" id="rect3860" d="M 11,5 C 7.676,5 5,7.676 5,11 l 0,30 c 0,2.974194 2.13669,5.422392 4.96875,5.90625 C 7.67488,46.44576 6,44.44451 6,42 L 6,12 C 6,9.206274 8.20627,7 11,7 l 16,0 c 2.79373,0 5,2.206274 5,5 l 2,0 c 0,-2.793726 2.20627,-5 5,-5 l 16,0 c 2.79373,0 5,2.206274 5,5 l 2,0 c 0,-2.793726 2.20627,-5 5,-5 l 16,0 c 2.79373,0 5,2.206274 5,5 l 0,30 c 0,2.44451 -1.67488,4.44576 -3.96875,4.90625 C 86.86331,46.422392 89,43.974194 89,41 L 89,11 C 89,7.676 86.324,5 83,5 L 67,5 C 63.676,5 61,7.676 61,11 61,7.676 58.324,5 55,5 L 39,5 C 35.676,5 33,7.676 33,11 33,7.676 30.324,5 27,5 L 11,5 z m 21,37 c 0,2.44451 -1.67488,4.44576 -3.96875,4.90625 C 30.54038,46.477565 32.49011,44.5135 32.90625,42 L 32,42 z m 1.09375,0 c 0.41614,2.5135 2.36587,4.477565 4.875,4.90625 C 35.67488,46.44576 34,44.44451 34,42 l -0.90625,0 z M 60,42 c 0,2.44451 -1.67488,4.44576 -3.96875,4.90625 C 58.54038,46.477565 60.49011,44.5135 60.90625,42 L 60,42 z m 1.09375,0 c 0.41614,2.5135 2.36587,4.477565 4.875,4.90625 C 63.67488,46.44576 62,44.44451 62,42 l -0.90625,0 z M 11,47 c -3.324,0 -6,2.676 -6,6 l 0,30 c 0,2.974194 2.13669,5.422392 4.96875,5.90625 C 7.67488,88.44576 6,86.44451 6,84 L 6,54 c 0,-2.793726 2.20627,-5 5,-5 l 0,-2 z m 16,0 0,2 c 2.79373,0 5,2.206274 5,5 l 2,0 c 0,-2.793726 2.20627,-5 5,-5 l 0,-2 c -3.324,0 -6,2.676 -6,6 0,-3.324 -2.676,-6 -6,-6 z m 28,0 0,2 c 2.79373,0 5,2.206274 5,5 l 2,0 c 0,-2.793726 2.20627,-5 5,-5 l 0,-2 c -3.324,0 -6,2.676 -6,6 0,-3.324 -2.676,-6 -6,-6 z m 28,0 0,2 c 2.79373,0 5,2.206274 5,5 l 0,30 c 0,2.44451 -1.67488,4.44576 -3.96875,4.90625 C 86.86331,88.422392 89,85.974194 89,83 l 0,-30 c 0,-3.324 -2.676,-6 -6,-6 z M 32,84 c 0,2.44451 -1.67488,4.44576 -3.96875,4.90625 C 30.54038,88.477565 32.49011,86.5135 32.90625,84 L 32,84 z m 1.09375,0 c 0.41614,2.5135 2.36587,4.477565 4.875,4.90625 C 35.67488,88.44576 34,86.44451 34,84 l -0.90625,0 z M 60,84 c 0,2.44451 -1.67488,4.44576 -3.96875,4.90625 C 58.54038,88.477565 60.49011,86.5135 60.90625,84 L 60,84 z m 1.09375,0 c 0.41614,2.5135 2.36587,4.477565 4.875,4.90625 C 63.67488,88.44576 62,86.44451 62,84 l -0.90625,0 z"/>
<path style="opacity:.2" id="rect2950" d="m 11,5 c -3.324,0 -6,2.676 -6,6 v 30 c 0,3.324 2.676,6 6,6 -3.324,0 -6,2.676 -6,6 v 30 c 0,3.324 2.676,6 6,6 h 1 c -3.324,0 -6,-2.676 -6,-6 v -30 c 0,-3.324 2.676,-6 6,-6 -3.324,0 -6,-2.676 -6,-6 v -30 c 0,-3.324 2.676,-6 6,-6 h -1 z "/>
<path style="opacity:.2" id="path3731" d="m 83,5 c 3.324,0 6,2.676 6,6 v 30 c 0,3.324 -2.676,6 -6,6 3.324,0 6,2.676 6,6 v 30 c 0,3.324 -2.676,6 -6,6 h -1 c 3.324,0 6,-2.676 6,-6 v -30 c 0,-3.324 -2.676,-6 -6,-6 3.324,0 6,-2.676 6,-6 v -30 c 0,-3.324 -2.676,-6 -6,-6 h 1 z "/>
</g>
</g>
<g style="display:none" id="layer5">
<rect width="66" x="15" y="15" rx="12" height="66" ry="12" style="opacity:.1;fill:url(#linearGradient3613);filter:url(#filter3794);stroke:#fff;stroke-linecap:round;stroke-width:.5;clip-path:url(#clipPath3613)" id="rect3171"/>
</g>
<g id="layer4">
<g style="fill:#fff">
<path style="opacity:.4" id="path4115" d="m 76.125,59.125 -.0938,.2812 -1.1875,3 -.75,.7188 -1.9375,-2.2188 -.0625,0 c -0.300219,0 -1.864,0.0362 -2.25,0.59375 -0.04289,0.04289 -0.03125,0.113362 -0.03125,0.15625 v 0.09375 c 0.04289,0.214442 0.309477,0.297196 0.78125,0.46875 0.214442,0.08578 0.496334,0.226723 0.625,0.3125 -0.471773,0.986434 -0.993312,1.89223 -1.59375,2.75 -0.300219,-0.171553 -1.75,-1.09375 -1.75,-1.09375 l -.25,.3438 c 0,0 1.19181,1.34806 1.40625,1.5625 -1.20088,1.5011 -2.66743,2.81874 -4.46875,4.0625 l .1875,.375 c 5.48972,-1.41532 9.38297,-6.93383 9.46875,-7.0625 l 1,.9375 c -1.37243,0.857768 -2.65625,1.625 -2.65625,1.625 l .2188,.4062 c 0.857769,-0.343107 2.04912,-0.840727 3.25,-1.3125 l 4.75,4.6562 4.6562,-1.625 -.0625,-.4375 c -2.18731,-0.08578 -5.15644,-1.90515 -7.34375,-3.40625 1.24376,-0.428884 2.27823,-0.730388 2.75,-0.6875 0.300219,0 0.394612,-0.101723 0.4375,-0.1875 0.171554,-0.471773 -1.48681,-1.91441 -4.875,-4.1875 l -.2188,-.125 z  m 1.1562,2.625 c 0.214442,0.128665 0.762281,0.473058 1.0625,0.6875 -0.171553,0.08578 -0.821758,0.485339 -1.59375,1 -0.08578,-0.08578 -0.152584,-0.195473 -0.28125,-0.28125 0.300219,-0.514661 0.683834,-1.2347 0.8125,-1.40625 z  m -3.7812,4.7188 l -.4688,.3125 -2.6562,1.5 .125,.375 c 0,0 0.481031,-0.03125 0.78125,-0.03125 -0.08578,0.300219 -0.254308,0.774562 -0.46875,1.375 -0.25733,0 -2.15625,-0.09375 -2.15625,-0.09375 l .3438,.375 c 0.128665,0.128665 0.684477,0.75 1.15625,0.75 0,0 0.121335,-0.0625 0.25,-0.0625 -0.343107,0.857769 -0.739004,1.5987 -1.125,2.15625 l .3125,.2812 c 0.643327,-0.514661 1.37628,-1.4321 2.0625,-2.71875 l .5,-.1875 -.0312,-.4375 h -0.15625 c 0.771992,-1.54398 1.3125,-3.03125 1.3125,-3.03125 l .2188,-.5625 z  m .6562,.7812 0,.2188 c 0,0 -0.243312,2.09999 -0.84375,3.34375 l -.125,.2812 .3125,.0625 c 0.771991,0.04289 1.49267,-1.5834 1.75,-2.3125 0.171554,0 0.617669,0.03125 0.875,0.03125 -0.128665,0.514661 -0.3125,1.19612 -0.3125,1.625 0,0.171554 0.008,0.289223 0.09375,0.375 l .2188,.1562 c 0.343107,0.04289 2.20775,-0.113365 2.59375,-0.15625 v -0.40625 c -0.643326,-0.08578 -1.41422,-0.316808 -1.5,-0.53125 -0.08578,-0.257331 0.270254,-1.26723 0.65625,-2.125 l .125,-.3125 -3.8438,-.25 z  m -1.7188,4.0938 -.2188,.75 c 0,0.04289 -0.600628,2.17348 -2.1875,3.03125 -0.214442,-0.257331 -1.34375,-1.78125 -1.34375,-1.78125 l -.375,.1875 1.875,4.9062 .4375,-.0938 c 0,-0.943546 0.4737,-1.49331 1.03125,-2.09375 0.771992,-0.900657 1.64333,-1.92605 1,-4.15625 l -.2188,-.75 z  m 7.0625,.2188 -6.3125,.1875 c 0,0 2.09806,2.71142 2.3125,2.96875 -1.1151,1.02932 -2.09934,1.79784 -3,2.3125 l -.25,.1562 .25,.2188 c 0.600438,0.471773 1.80041,-0.09697 3.6875,-1.8125 0.986434,1.37243 1.62931,2.36831 1.84375,2.96875 l .0938,.3125 1.1562,-.9688 v -0.0625 -0.125 c 0,-0.214442 0.01576,-0.926051 -2,-3.15625 1.28665,-1.32954 2.40625,-2.55086 2.40625,-2.59375 l .2812,-.4062 h -0.46875 z  m -2,1.2188 c -0.343108,0.385996 -0.734697,0.754308 -0.90625,0.96875 l -.8125,-.8125 c 0.471773,-0.08578 1.1612,-0.113361 1.71875,-0.15625 z "/>
<path style="opacity:.4" id="path4100" d="m 47.0938,53.7812 -.0625,.1875 c -0.04675,0.09349 -0.172513,0.611545 -0.40625,1.40625 h -2.09375 c 0,-0.18699 -0.0625,-0.625 -0.0625,-0.625 -0.654462,-1.07519 -3.45402,-0.296748 -3.78125,-0.25 l -.1875,.0312 .0938,.1875 c 0.09349,0.186989 0.203253,0.422513 0.25,0.65625 h -1.78125 l .875,1.6875 1.125,-.1875 v 0.3125 c 0,2.89833 -1.25,6.6095 -1.25,6.65625 l .2812,.125 c 0.140242,-0.186989 3.68929,-4.43068 4.34375,-7.65625 0.0935,0 1.12755,-0.203508 2.0625,-0.34375 -0.560968,2.19712 -1.23144,5.67532 -0.15625,6.9375 1.58941,1.86989 7.76626,1.71849 8,1.625 l .125,-.0312 -1.5938,-4.3125 c 0,0 -1.34401,1.50026 -1.4375,1.59375 -1.49591,0.327231 -3.93801,0.560457 -4.125,-0.1875 -0.233736,-0.8882 1.61129,-4.87909 2.3125,-6.375 l .0938,-.125 -2.625,-1.3125 z  m .4688,14.5312 -.0938,.0625 c 0,0 -2.03644,1.57851 -2.21875,1.71875 -0.149592,-0.154266 -1.5,-1.53125 -1.5,-1.53125 l 1.0312,4.1562 h 0.28125 c 0.350605,-2.22517 2.04188,-3.11616 2.5,-3.3125 0.06545,0.0935 0.125,0.203508 0.125,0.34375 0,0.04207 -0.02665,0.07825 -0.03125,0.125 -0.09817,0.78068 -1.11954,2.17359 -3.125,3.375 l -.125,.0938 .375,.4688 .0938,-.0312 c 0.02805,-0.0093 3.08138,-0.959146 4.84375,-0.875 l .5312,.0312 -.4688,-.3125 c -0.0374,-0.02337 -0.886903,-0.571594 -1.8125,-0.46875 0.130892,-0.294508 1.05398,-1.18954 1.9375,-1.9375 l .125,-.125 -2.4688,-1.7812 z  m 2.6875,5.25 -.0938,.0312 c -2.38879,0.406702 -6.11225,0.96382 -6.59375,0.875 l -.1562,-.0312 -.0625,.1562 c -0.09349,0.261785 0.153815,2.29686 0.40625,3.4375 -2.14103,0.186989 -4.6875,0.40625 -4.6875,0.40625 l .125,.2812 .3125,.5938 .1562,-.0625 c 0.804054,-0.238411 1.18391,-0.264024 2.15625,-0.25 0.08882,0.229062 1.21875,3.1875 1.21875,3.1875 l .375,-.0938 c 0,0 -0.323578,-2.6745 -0.375,-3.0625 0.364629,0.0093 3.71464,0.106301 4.5,0.125 -0.509546,0.430075 -1.65625,1.40625 -1.65625,1.40625 l .1875,.3438 c 0,0 2.40971,-0.832927 2.53125,-0.875 0.116869,0.04675 2,0.78125 2,0.78125 0,0 -0.994619,-1.2151 -1.3125,-1.59375 1.76705,0.09349 2.22221,0.194158 2.34375,0.34375 0.154267,0.182314 0.25,0.450817 0.25,0.75 0,0.542269 -0.273433,1.20773 -0.84375,1.75 -0.850801,-0.215038 -2.4188,-1.0844 -2.4375,-1.09375 l -.25,.2812 2.375,2.9688 .125,-.0312 c 1.78575,-0.364629 3.94243,-3.97073 4.03125,-4.125 l .0625,-.125 -.0938,-.0938 c -0.07947,-0.07947 -1.96119,-2.00249 -2.625,-2.34375 -0.247761,-0.126217 -0.798908,-0.09644 -2.6875,0.0625 0,0 -0.09721,0.01725 -0.21875,0.03125 0.556293,-1.30425 1.29015,-2.75518 1.6875,-2.9375 l .25,-.0938 -1,-1 z  m -1.25,1.6875 c -0.02337,0.126218 -0.06423,0.432374 -0.125,0.84375 -0.570317,0.0748 -1.29431,0.190701 -1.5,0.21875 v -0.9375 c 0.757307,-0.06077 1.44736,-0.106301 1.625,-0.125 z  m -2.4375,.1875 c 0.0093,0.392678 0.02658,0.823834 0.03125,0.96875 -0.659137,0.0748 -1.21215,0.106301 -1.65625,0.125 0.04675,-0.289833 0.104828,-0.599446 0.15625,-0.96875 0.112193,-0.0093 0.730142,-0.06423 1.46875,-0.125 z  m 1.3438,1.5312 c 0.136736,6e-06 0.234758,0.0172 0.375,0.03125 l .4688,.0312 c -0.03272,0.215037 -0.06571,0.423987 -0.09375,0.625 -0.509545,0.0374 -1.09893,0.07973 -1.28125,0.09375 v -0.75 c 0.229062,-0.02338 0.394514,-0.03126 0.53125,-0.03125 z  m -1.2812,.125 c 0.0047,0.224387 -0.0047,0.522412 0,0.71875 -0.116869,0.0047 -0.895035,0.06743 -1.9375,0.15625 0.0374,-0.163616 0.08293,-0.338113 0.125,-0.5625 0.607715,-0.112193 1.21413,-0.233029 1.8125,-0.3125 z "/>
<g style="opacity:.4" id="g4092" transform="matrix(0.43092847,0,0,0.43092847,86.922024,53.562757)">
<path id="path4094" d="m -161.7528,9.2732 c 0.4,0.5 0.9,2.3 0.9,8.6 0,0.9 0,1.8 0,2.8 -3.4,0.5 -6.3,1 -6.8,1.2 l -.6,.2 2.8,2.7 .2,-.1 c 1.1,-0.3 2.6,-0.5 4.2,-0.7 0,0.7 -0.4,7.3 -0.4,7.9 -4.9,0.4 -9.2,1.1 -12.7,1.9 -3,0.8 -4.8,2.6 -5.2,5.4 -0.1,0.4 -0.1,0.9 -0.1,1.4 0,7.1 6.9,16.9 7,16.9 l .8,.5 -.3,-.9 c 0,-0.1 -2.8,-9.4 -2.8,-15.6 0,-1.8 0.2,-3.3 0.8,-4.3 0.4,-0.6 0.8,-0.9 1.4,-1 1.3,-0.2 2.7,-0.4 4,-0.6 0,0 3.1,4 3.7,4.7 -0.5,0.1 -1.4,0.3 -1.4,0.3 v 0.3 l .2,2.2 .4,-.1 c 0.6,-0.2 1.8,-0.5 3.2,-0.7 0,0.6 0.1,2.4 0.2,2.9 -1.7,0.5 -3.2,1.1 -3.8,1.4 l -.4,.2 1.5,1.6 .2,-.1 c 0.7,-0.3 1.7,-0.6 2.7,-0.9 0,0.7 0.3,5.6 0.3,5.6 h 0.7 c 0,0 1.1,-5.5 1.2,-6 1.8,-0.2 3.5,-0.1 4.8,0.2 l .4,.1 v -3 l -.2,-.1 c -0.8,-0.4 -2.3,-0.4 -4.5,0.1 0.1,-0.7 0.4,-2.1 0.5,-2.5 1.6,-0.1 2.9,-0.2 3.8,-0.1 l .5,.1 -.7,-2.6 c 0,0 -0.9,0 -1.4,0.1 0.8,-0.9 3.5,-4.4 3.7,-4.6 0.3,0 3.9,0.1 3.9,0.1 1.6,0.1 3,0.7 4.1,2 1.3,1.5 2,3.9 2,6.3 0,0.5 0,1.1 -0.1,1.6 l -.1,.7 c -0.7,5.1 -1.3,8.8 -3.1,9.6 -1.2,0.5 -3.1,-0.3 -5.9,-2.4 l -.5,.5 5.5,9.6 .3,-.1 c 6.7,-2.4 7.7,-3.8 10.4,-15.4 1.2,-5.1 0.8,-9.1 -1.3,-11.8 -2.5,-3.3 -6.3,-3.7 -6.5,-3.7 -0.1,0 -6.7,-0.3 -14.6,0.2 0.2,-0.8 2,-7.5 2.1,-7.9 2.5,0 4.7,0.1 5.7,0.5 l .4,.1 .4,-4.7 h -0.4 c -1.1,0 -2.8,0.1 -5.1,0.3 1.3,-4.4 1.9,-5.8 2.1,-6.2 l .2,-.3 -8.1,-4.7 -.2,.3 z  m 4.4,25.3 c -0.1,0.7 -0.7,4.3 -0.7,4.7 0,0 -0.1,0 -0.1,0 0,-0.1 0.1,-0.4 0.1,-0.4 l -4.4,.4 c 0,0 0,0.5 0,0.6 -0.4,0.1 -1,0.2 -1.4,0.2 0,-0.7 0,-5 0,-5.1 2.2,-0.1 4.3,-0.3 6.5,-0.4 z "/>
</g>
<path style="opacity:.4" id="path4060" d="m 69.8438,12.2935 c -2.55036,0 -4.625,2.07464 -4.625,4.625 0,2.55036 2.07464,4.625 4.625,4.625 2.55036,0 4.65625,-2.07464 4.65625,-4.625 0,-2.55036 -2.10589,-4.625 -4.65625,-4.625 z  m 0,.5312 c 2.26756,0 4.125,1.82619 4.125,4.09375 0,2.26756 -1.85744,4.125 -4.125,4.125 -2.26756,0 -4.09375,-1.85744 -4.09375,-4.125 0,-2.26756 1.82619,-4.09375 4.09375,-4.09375 z  m 0,.2188 c -2.1493,0 -3.875,1.7257 -3.875,3.875 0,2.1493 1.7257,3.90625 3.875,3.90625 2.1493,0 3.90625,-1.75695 3.90625,-3.90625 0,-2.1493 -1.75695,-3.875 -3.90625,-3.875 z  m 0,.75 c 0.699293,0 1.30381,0.498091 1.4375,1.15625 -0.401065,-0.282803 -0.907888,-0.46875 -1.4375,-0.46875 -0.529612,0 -1.00518,0.185947 -1.40625,0.46875 0.133689,-0.658159 0.706957,-1.15625 1.40625,-1.15625 z  m -1.3438,.0312 c -0.308512,0.30337 -0.505939,0.740158 -0.5625,1.1875 -0.452484,0.05656 -0.85288,0.222738 -1.15625,0.53125 0.339363,-0.760995 0.957755,-1.37939 1.71875,-1.71875 z  m 2.7188,0 c 0.760995,0.339363 1.37939,0.957755 1.71875,1.71875 -0.303369,-0.308512 -0.708908,-0.479831 -1.15625,-0.53125 -0.05656,-0.452484 -0.253989,-0.88413 -0.5625,-1.1875 z  m -1.375,1.1875 c 0.293086,0 0.59694,0.06924 0.84375,0.1875 -0.344505,0.174823 -0.653501,0.441887 -0.84375,0.78125 -0.190249,-0.339363 -0.467995,-0.606427 -0.8125,-0.78125 0.246809,-0.118263 0.519414,-0.1875 0.8125,-0.1875 z  m -1.9688,.5 c -0.282803,0.401065 -0.46875,0.876638 -0.46875,1.40625 0,0.529612 0.185947,1.03644 0.46875,1.4375 -0.658159,-0.133689 -1.15625,-0.738207 -1.15625,-1.4375 0,-0.699293 0.498091,-1.27256 1.15625,-1.40625 z  m 3.9688,0 c 0.658158,0.133689 1.15625,0.706957 1.15625,1.40625 0,0.699293 -0.498092,1.30381 -1.15625,1.4375 0.287944,-0.401065 0.46875,-0.907888 0.46875,-1.4375 0,-0.529612 -0.185947,-1.00519 -0.46875,-1.40625 z  m -3.3125,.0312 c 0.52447,0.138831 0.923271,0.553854 1.03125,1.09375 -0.534754,-0.113121 -0.954919,-0.50678 -1.09375,-1.03125 l .0625,-.0625 z  m 2.6562,0 c 0.02057,0.02571 0.04193,0.04193 0.0625,0.0625 -0.13883,0.52447 -0.558996,0.923271 -1.09375,1.03125 0.107979,-0.539896 0.50678,-0.949778 1.03125,-1.09375 z  m -3.0625,.5625 c 0.174823,0.344505 0.441887,0.622251 0.78125,0.8125 -0.339363,0.190249 -0.606427,0.499245 -0.78125,0.84375 -0.118263,-0.24681 -0.1875,-0.550664 -0.1875,-0.84375 0,-0.293086 0.06924,-0.565691 0.1875,-0.8125 z  m 3.4688,0 c 0.118263,0.246809 0.1875,0.519414 0.1875,0.8125 0,0.293086 -0.06924,0.59694 -0.1875,0.84375 -0.174823,-0.344505 -0.441887,-0.653501 -0.78125,-0.84375 0.339363,-0.190249 0.606427,-0.467995 0.78125,-0.8125 z  m -2.0312,1.125 c -0.10798,0.534754 -0.50678,0.95492 -1.03125,1.09375 -0.02571,-0.02057 -0.04193,-0.04193 -0.0625,-0.0625 0.138831,-0.52447 0.553854,-0.923271 1.09375,-1.03125 z  m .5938,0 c 0.534754,0.107979 0.95492,0.50678 1.09375,1.03125 l -.0625,.0625 c -0.52447,-0.13883 -0.923271,-0.558996 -1.03125,-1.09375 z  m -.3125,.6562 c 0.190249,0.339363 0.499245,0.606427 0.84375,0.78125 -0.251951,0.118263 -0.550664,0.1875 -0.84375,0.1875 -0.293086,0 -0.565691,-0.06924 -0.8125,-0.1875 0.344505,-0.174823 0.622251,-0.441887 0.8125,-0.78125 z  m -3.0625,.4062 c 0.30337,0.308511 0.708908,0.511081 1.15625,0.5625 0.05656,0.452483 0.253988,0.852881 0.5625,1.15625 -0.760995,-0.339362 -1.37939,-0.957755 -1.71875,-1.71875 z  m 6.1562,0 c -0.339362,0.760995 -0.957755,1.37939 -1.71875,1.71875 0.308511,-0.303369 0.511081,-0.708908 0.5625,-1.15625 0.452483,-0.05656 0.852881,-0.253989 1.15625,-0.5625 z  m -4.5,.625 c 0.401065,0.287944 0.876638,0.46875 1.40625,0.46875 0.529612,0 1.03643,-0.185947 1.4375,-0.46875 -0.133689,0.658158 -0.738207,1.15625 -1.4375,1.15625 -0.699293,0 -1.27256,-0.498092 -1.40625,-1.15625 z  m 6.5625,3.1562 c -2.55036,0 -4.625,2.07464 -4.625,4.625 0,2.55036 2.07464,4.625 4.625,4.625 2.55036,0 4.625,-2.07464 4.625,-4.625 0,-2.55036 -2.07464,-4.625 -4.625,-4.625 z  m 0,.5 c 2.26756,0 4.125,1.85744 4.125,4.125 0,2.26756 -1.85744,4.125 -4.125,4.125 -2.26756,0 -4.125,-1.85744 -4.125,-4.125 0,-2.26756 1.85744,-4.125 4.125,-4.125 z  m 0,.2188 c -2.1493,0 -3.90625,1.75695 -3.90625,3.90625 0,2.1493 1.75695,3.90625 3.90625,3.90625 2.1493,0 3.90625,-1.75695 3.90625,-3.90625 0,-2.1493 -1.75695,-3.90625 -3.90625,-3.90625 z  m 0,.75 c 0.699293,0 1.27256,0.498091 1.40625,1.15625 -0.401065,-0.282803 -0.876638,-0.4375 -1.40625,-0.4375 -0.529612,0 -1.00518,0.154697 -1.40625,0.4375 0.133689,-0.658159 0.706957,-1.15625 1.40625,-1.15625 z  m -1.375,.0625 c -0.308512,0.30337 -0.505939,0.708908 -0.5625,1.15625 -0.452484,0.05656 -0.85288,0.253988 -1.15625,0.5625 0.339363,-0.760995 0.957755,-1.37939 1.71875,-1.71875 z  m 2.75,0 c 0.760995,0.339363 1.37939,0.957755 1.71875,1.71875 -0.303369,-0.308512 -0.708908,-0.511081 -1.15625,-0.5625 -0.05656,-0.452484 -0.253989,-0.85288 -0.5625,-1.15625 z  m -1.375,1.1562 c 0.293086,0 0.56569,0.06924 0.8125,0.1875 -0.344505,0.174823 -0.622251,0.473137 -0.8125,0.8125 -0.190249,-0.339363 -0.467995,-0.637677 -0.8125,-0.8125 0.246809,-0.118263 0.519414,-0.1875 0.8125,-0.1875 z  m -2,.5312 c -0.282803,0.401065 -0.4375,0.876638 -0.4375,1.40625 0,0.529612 0.154697,1.00519 0.4375,1.40625 -0.658159,-0.133689 -1.15625,-0.706957 -1.15625,-1.40625 0,-0.699293 0.498091,-1.27256 1.15625,-1.40625 z  m 3.3438,0 c 0.02057,0.02571 0.01068,0.04193 0.03125,0.0625 -0.13883,0.52447 -0.558996,0.954521 -1.09375,1.0625 0.107979,-0.539896 0.53803,-0.981028 1.0625,-1.125 z  m .6562,0 c 0.658158,0.133689 1.15625,0.706957 1.15625,1.40625 0,0.699293 -0.498092,1.27256 -1.15625,1.40625 0.287944,-0.401065 0.4375,-0.876638 0.4375,-1.40625 0,-0.529612 -0.154697,-1.00519 -0.4375,-1.40625 z  m -3.3438,.0312 c 0.52447,0.138831 0.954521,0.553854 1.0625,1.09375 -0.534754,-0.113121 -0.954919,-0.53803 -1.09375,-1.0625 l .0312,-.0312 z  m -.4062,.5625 c 0.174823,0.344505 0.473137,0.622251 0.8125,0.8125 -0.339363,0.190249 -0.637677,0.467995 -0.8125,0.8125 -0.118263,-0.24681 -0.1875,-0.519414 -0.1875,-0.8125 0,-0.293086 0.06924,-0.565691 0.1875,-0.8125 z  m 3.5,0 c 0.118263,0.246809 0.1875,0.519414 0.1875,0.8125 0,0.293086 -0.06924,0.56569 -0.1875,0.8125 -0.174823,-0.344505 -0.473137,-0.622251 -0.8125,-0.8125 0.339363,-0.190249 0.637677,-0.467995 0.8125,-0.8125 z  m -2.0312,1.0938 c -0.10798,0.534754 -0.50678,0.95492 -1.03125,1.09375 -0.02571,-0.02057 -0.04193,-0.01068 -0.0625,-0.03125 0.138831,-0.52447 0.553854,-0.954521 1.09375,-1.0625 z  m .5625,0 c 0.534754,0.107979 0.95492,0.53803 1.09375,1.0625 l -.0312,.0312 c -0.52447,-0.13883 -0.954521,-0.558996 -1.0625,-1.09375 z  m -.2812,.6562 c 0.190249,0.339363 0.467995,0.637677 0.8125,0.8125 -0.251951,0.118263 -0.519414,0.1875 -0.8125,0.1875 -0.293086,0 -0.565691,-0.06924 -0.8125,-0.1875 0.344505,-0.174823 0.622251,-0.473137 0.8125,-0.8125 z  m -3.0938,.4375 c 0.30337,0.308511 0.708908,0.511081 1.15625,0.5625 0.05656,0.452483 0.253988,0.852881 0.5625,1.15625 -0.760995,-0.339362 -1.37939,-0.957755 -1.71875,-1.71875 z  m 6.1875,0 c -0.339362,0.760995 -0.957755,1.37939 -1.71875,1.71875 0.308511,-0.303369 0.511081,-0.708908 0.5625,-1.15625 0.452483,-0.05656 0.852881,-0.253989 1.15625,-0.5625 z  m -4.5,.625 c 0.401065,0.287944 0.876638,0.4375 1.40625,0.4375 0.529612,0 1.00518,-0.154697 1.40625,-0.4375 -0.133689,0.658158 -0.706957,1.15625 -1.40625,1.15625 -0.699293,0 -1.27256,-0.498092 -1.40625,-1.15625 z  m 6.5625,3.1562 c -2.55036,0 -4.65625,2.07464 -4.65625,4.625 0,2.55036 2.10589,4.625 4.65625,4.625 2.55036,0 4.625,-2.07464 4.625,-4.625 0,-2.55036 -2.07464,-4.625 -4.625,-4.625 z  m 0,.5 c 2.26756,0 4.09375,1.85744 4.09375,4.125 0,2.26756 -1.82619,4.09375 -4.09375,4.09375 -2.26756,0 -4.125,-1.82619 -4.125,-4.09375 0,-2.26756 1.85744,-4.125 4.125,-4.125 z  m 0,.2188 c -2.1493,0 -3.90625,1.75695 -3.90625,3.90625 0,2.1493 1.75695,3.875 3.90625,3.875 2.1493,0 3.875,-1.7257 3.875,-3.875 0,-2.1493 -1.7257,-3.90625 -3.875,-3.90625 z  m 0,.75 c 0.699293,0 1.27256,0.498091 1.40625,1.15625 -0.401065,-0.282803 -0.876638,-0.46875 -1.40625,-0.46875 -0.529612,0 -1.03643,0.185947 -1.4375,0.46875 0.133689,-0.658159 0.738207,-1.15625 1.4375,-1.15625 z  m -1.375,.0625 c -0.308512,0.30337 -0.505939,0.708908 -0.5625,1.15625 -0.452484,0.05656 -0.85288,0.253988 -1.15625,0.5625 0.339363,-0.760995 0.957755,-1.37939 1.71875,-1.71875 z  m 2.7188,0 c 0.760995,0.339363 1.37939,0.957755 1.71875,1.71875 -0.303369,-0.308512 -0.708908,-0.511081 -1.15625,-0.5625 -0.05656,-0.452484 -0.253989,-0.85288 -0.5625,-1.15625 z  m -1.3438,1.1562 c 0.293086,0 0.56569,0.06924 0.8125,0.1875 -0.344505,0.174823 -0.622251,0.441887 -0.8125,0.78125 -0.190249,-0.339363 -0.499245,-0.606427 -0.84375,-0.78125 0.246809,-0.118263 0.550664,-0.1875 0.84375,-0.1875 z  m -2,.5 c -0.282803,0.401065 -0.46875,0.907888 -0.46875,1.4375 0,0.529612 0.185947,1.00518 0.46875,1.40625 -0.658159,-0.133689 -1.15625,-0.706957 -1.15625,-1.40625 0,-0.699293 0.498091,-1.30381 1.15625,-1.4375 z  m 3.9688,0 c 0.658158,0.133689 1.15625,0.738207 1.15625,1.4375 0,0.699293 -0.498092,1.27256 -1.15625,1.40625 0.287944,-0.401065 0.46875,-0.876638 0.46875,-1.40625 0,-0.529612 -0.185947,-1.03643 -0.46875,-1.4375 z  m -3.3125,.0312 c 0.52447,0.138831 0.923271,0.585104 1.03125,1.125 -0.534754,-0.113121 -0.954919,-0.53803 -1.09375,-1.0625 l .0625,-.0625 z  m 2.6562,0 c 0.02057,0.02571 0.04193,0.04193 0.0625,0.0625 -0.13883,0.52447 -0.558996,0.923271 -1.09375,1.03125 0.107979,-0.539896 0.50678,-0.949778 1.03125,-1.09375 z  m -3.0625,.5625 c 0.174823,0.344505 0.441887,0.653501 0.78125,0.84375 -0.339363,0.190249 -0.606427,0.467995 -0.78125,0.8125 -0.118263,-0.24681 -0.1875,-0.519414 -0.1875,-0.8125 0,-0.293086 0.06924,-0.596941 0.1875,-0.84375 z  m 3.4688,0 c 0.118263,0.246809 0.1875,0.550664 0.1875,0.84375 0,0.293086 -0.06924,0.56569 -0.1875,0.8125 -0.174823,-0.344505 -0.441887,-0.622251 -0.78125,-0.8125 0.339363,-0.190249 0.606427,-0.499245 0.78125,-0.84375 z  m -2.0312,1.125 c -0.10798,0.534754 -0.50678,0.95492 -1.03125,1.09375 -0.02571,-0.02057 -0.04194,-0.04193 -0.0625,-0.0625 0.138831,-0.52447 0.553854,-0.923271 1.09375,-1.03125 z  m .5938,0 c 0.534754,0.107979 0.95492,0.50678 1.09375,1.03125 l -.0625,.0625 c -0.52447,-0.13883 -0.923271,-0.558996 -1.03125,-1.09375 z  m -.2812,.6562 c 0.190249,0.339363 0.467995,0.606427 0.8125,0.78125 -0.251951,0.118263 -0.519414,0.1875 -0.8125,0.1875 -0.293086,0 -0.596941,-0.06924 -0.84375,-0.1875 0.344505,-0.174823 0.653501,-0.441887 0.84375,-0.78125 z  m -3.0938,.4375 c 0.30337,0.308511 0.708908,0.479831 1.15625,0.53125 0.05656,0.452483 0.253988,0.884131 0.5625,1.1875 -0.760995,-0.339362 -1.37939,-0.957755 -1.71875,-1.71875 z  m 6.1562,0 c -0.339362,0.760995 -0.957755,1.37939 -1.71875,1.71875 0.308511,-0.303369 0.511081,-0.740158 0.5625,-1.1875 0.452483,-0.05656 0.852881,-0.222739 1.15625,-0.53125 z  m -4.5,.5938 c 0.401065,0.287944 0.907888,0.46875 1.4375,0.46875 0.529612,0 1.00518,-0.185947 1.40625,-0.46875 -0.133689,0.658158 -0.706957,1.15625 -1.40625,1.15625 -0.699293,0 -1.30381,-0.498092 -1.4375,-1.15625 z "/>
<path style="opacity:.4" id="path4054" d="m 44.8849,12.5905 c -0.179438,0.179439 -0.224298,0.448598 -0.224298,0.762616 0,0.583177 0.179439,1.30093 0.269158,1.57009 0,0 0.13458,3.14019 0.179439,3.49907 -0.403737,0.04486 -1.12149,0.08972 -1.39065,0.179438 h -0.358878 c -0.762616,0.04486 -1.48037,0.08972 -1.79439,0.403738 l -.1346,.1346 .1346,.1794 c 0.224298,0.269158 0.314017,1.03177 0.403737,1.83925 0.224298,1.65981 0.493457,3.72336 1.83925,4.53083 l .2692,.1346 v -0.314018 c 0,0 0.04486,-0.13458 0.04486,-0.314018 0,-0.13458 -0.04486,-0.358879 -0.08972,-0.672897 0.358878,0.04486 1.12149,0.13458 1.39065,0.13458 0.04486,0.358877 1.21121,14.9832 1.21121,14.9832 h 0.448598 c 0,0 0.493457,-14.4448 0.493457,-14.8934 0.314018,0 1.70467,0.04486 2.10841,0.08972 -0.08972,0.269158 -0.448598,1.39065 -0.448598,1.39065 l .628,-.5832 c 0.179439,-0.134579 4.08224,-3.6785 3.54392,-6.01121 -0.179439,-0.762616 -0.807475,-1.30093 -1.83925,-1.57009 h -0.04486 -0.04486 c -0.583177,0 -2.37757,0.04486 -3.72336,0.134579 0.04486,-1.16635 0.04486,-1.79439 0.04486,-2.10841 0,-0.269158 0,-0.314018 0,-0.358878 0,0 0,-0.04485 0,-0.04485 0,-0.2243 0.224298,-0.538318 0.403738,-0.762617 0.179439,-0.269158 0.403737,-0.493457 0.403737,-0.762615 0,-0.08972 -0.04486,-0.17944 -0.08972,-0.269158 -0.269158,-0.403738 -2.24299,-1.43551 -3.09532,-1.52523 -0.269158,0.04486 -0.448597,0.08972 -0.538317,0.224299 z  m .0449,7.357 c 0,0 0.08972,0 0.224299,0 0,0.403737 0.134579,3.2299 0.179439,3.63364 -0.358878,-0.04486 -1.21121,-0.134578 -1.48037,-0.134578 -0.134579,-0.583177 -0.179439,-1.21121 -0.224299,-1.83925 -0.04485,-0.538317 -0.08972,-1.07663 -0.179439,-1.57009 0.403738,0 1.48037,-0.08972 1.48037,-0.08972 z  m 2.7364,1.3907 c 0,0 0.04485,-1.07663 0.04485,-1.43551 0.583177,0.08972 1.34579,0.134579 2.06355,0.134579 0,0 0.538317,0 0.807476,0 0,0.17944 -0.04486,0.403738 -0.04486,0.403738 -0.08972,0.986915 -0.224299,2.15327 -0.628036,3.31962 -0.269159,0 -1.92897,-0.08972 -2.28785,-0.13458 0,-0.314018 0.04486,-2.28785 0.04486,-2.28785 z "/>
</g>
<path style="fill:#a31717" id="path4352" d="m 44.8849,11.5905 c -0.179438,0.179439 -0.224298,0.448598 -0.224298,0.762616 0,0.583177 0.179439,1.30093 0.269158,1.57009 0,0 0.13458,3.14019 0.179439,3.49907 -0.403737,0.04486 -1.12149,0.08972 -1.39065,0.179438 h -0.358878 c -0.762616,0.04486 -1.48037,0.08972 -1.79439,0.403738 l -.1346,.1346 .1346,.1794 c 0.224298,0.269158 0.314017,1.03177 0.403737,1.83925 0.224298,1.65981 0.493457,3.72336 1.83925,4.53083 l .2692,.1346 v -0.314018 c 0,0 0.04486,-0.13458 0.04486,-0.314018 0,-0.13458 -0.04486,-0.358879 -0.08972,-0.672897 0.358878,0.04486 1.12149,0.13458 1.39065,0.13458 0.04486,0.358877 1.21121,14.9832 1.21121,14.9832 h 0.448598 c 0,0 0.493457,-14.4448 0.493457,-14.8934 0.314018,0 1.70467,0.04486 2.10841,0.08972 -0.08972,0.269158 -0.448598,1.39065 -0.448598,1.39065 l .628,-.5832 c 0.179439,-0.134579 4.08224,-3.6785 3.54392,-6.01121 -0.179439,-0.762616 -0.807475,-1.30093 -1.83925,-1.57009 h -0.04486 -0.04486 c -0.583177,0 -2.37757,0.04486 -3.72336,0.134579 0.04486,-1.16635 0.04486,-1.79439 0.04486,-2.10841 0,-0.269158 0,-0.314018 0,-0.358878 0,0 0,-0.04485 0,-0.04485 0,-0.2243 0.224298,-0.538318 0.403738,-0.762617 0.179439,-0.269158 0.403737,-0.493457 0.403737,-0.762615 0,-0.08972 -0.04486,-0.17944 -0.08972,-0.269158 -0.269158,-0.403738 -2.24299,-1.43551 -3.09532,-1.52523 -0.269158,0.04486 -0.448597,0.08972 -0.538317,0.224299 z  m .0449,7.357 c 0,0 0.08972,0 0.224299,0 0,0.403737 0.134579,3.2299 0.179439,3.63364 -0.358878,-0.04486 -1.21121,-0.134578 -1.48037,-0.134578 -0.134579,-0.583177 -0.179439,-1.21121 -0.224299,-1.83925 -0.04485,-0.538317 -0.08972,-1.07663 -0.179439,-1.57009 0.403738,0 1.48037,-0.08972 1.48037,-0.08972 z  m 2.7364,1.3907 c 0,0 0.04485,-1.07663 0.04485,-1.43551 0.583177,0.08972 1.34579,0.134579 2.06355,0.134579 0,0 0.538317,0 0.807476,0 0,0.17944 -0.04486,0.403738 -0.04486,0.403738 -0.08972,0.986915 -0.224299,2.15327 -0.628036,3.31962 -0.269159,0 -1.92897,-0.08972 -2.28785,-0.13458 0,-0.314018 0.04486,-2.28785 0.04486,-2.28785 z "/>
<g style="fill:#004c00" id="g4024" transform="matrix(0.42888433,0,0,0.42888433,44.17547,12.034425)">
<path id="path4356" d="m 65.3714,137.6911 c 0,0.1 -1.4,5.1 -5.1,7.1 -0.5,-0.6 -3.1,-4.2 -3.1,-4.2 l -.9,.5 4.4,11.4 1,-.2 c 0,-2.2 1.1,-3.5 2.4,-4.9 1.8,-2.1 3.8,-4.5 2.3,-9.7 l -.5,-1.7 -.5,1.7 z "/>
<path id="path4358" d="m 69.8714,126.8911 c 0,0 -0.5,4.9 -1.9,7.8 l -.3,.7 .7,.1 c 1.8,0.1 3.5,-3.7 4.1,-5.4 0.4,0 1.4,0.1 2,0.1 -0.3,1.2 -0.7,2.8 -0.7,3.8 0,0.4 0,0.7 0.2,0.9 l .5,.3 c 0.8,0.1 5.2,-0.2 6.1,-0.3 v -1 c -1.5,-0.2 -3.3,-0.7 -3.5,-1.2 -0.2,-0.6 0.6,-3 1.5,-5 l .3,-.7 -9,-.6 v 0.5 z "/>
<path id="path4360" d="m 82.3714,136.4911 -14.7,.4 c 0,0 4.9,6.3 5.4,6.9 -2.6,2.4 -4.9,4.2 -7,5.4 l -.6,.4 .6,.5 c 1.4,1.1 4.2,-0.2 8.6,-4.2 2.3,3.2 3.8,5.5 4.3,6.9 l .2,.7 2.7,-2.2 v -0.2 -0.3 c 0,-0.5 0,-2.1 -4.7,-7.3 3,-3.1 5.6,-6 5.6,-6.1 l .7,-.9 h -1.1 z  m -4.7,2.8 c -0.8,0.9 -1.7,1.8 -2.1,2.3 -0.4,-0.4 -1.2,-1.2 -1.9,-1.9 1.1,-0.2 2.7,-0.3 4,-0.4 z "/>
<path id="path4362" d="m 71.4714,115.0911 -1.7,1.7 -4.5,-5.2 -.2,0 c -0.7,0 -4.3,0.1 -5.2,1.4 -0.1,0.1 -0.1,0.3 -0.1,0.4 0,0.1 0,0.1 0,0.2 0.1,0.5 0.7,0.7 1.8,1.1 0.5,0.2 1.2,0.5 1.5,0.7 -1.1,2.3 -2.3,4.4 -3.7,6.4 -0.7,-0.4 -4.1,-2.5 -4.1,-2.5 l -.6,.8 c 0,0 2.8,3.1 3.3,3.6 -2.8,3.5 -6.2,6.6 -10.4,9.5 l .4,.9 c 12.8,-3.3 21.9,-16.2 22.1,-16.5 l 2.3,2.2 c -3.2,2 -6.2,3.8 -6.2,3.8 l .5,.9 c 2,-0.8 4.8,-1.9 7.6,-3 l 11.1,10.8 10.8,-3.8 -.1,-1 c -5.1,-0.2 -12,-4.4 -17.1,-7.9 2.9,-1 5.3,-1.7 6.4,-1.6 0.7,0 0.9,-0.3 1,-0.5 0.4,-1.1 -3.5,-4.4 -11.4,-9.7 l -.5,-.3 -.2,.6 m 1,8.8 c 0.7,-1.2 1.6,-2.9 1.9,-3.3 0.5,0.3 1.8,1.1 2.5,1.6 -0.4,0.2 -1.9,1.1 -3.7,2.3 -0.2,-0.2 -0.4,-0.4 -0.7,-0.6 z "/>
<path id="path4364" d="m 67.2714,125.2911 -6.2,3.5 .3,.9 c 0,0 1.1,-0.1 1.8,-0.1 -0.2,0.7 -0.6,1.8 -1.1,3.2 -0.6,0 -5,-0.2 -5,-0.2 l .8,.9 c 0.3,0.3 1.6,1.7 2.7,1.7 0,0 0.3,-0.1 0.6,-0.1 -0.8,2 -1.7,3.7 -2.6,5 l .7,.7 c 1.5,-1.2 3.2,-3.4 4.8,-6.4 0.3,-0.1 1.2,-0.4 1.2,-0.4 l -.1,-1 c 0,0 -0.2,0 -0.4,0 1.8,-3.6 3.1,-7.1 3.1,-7.1 l .5,-1.3 -1.1,.7 z "/>
</g>
<g id="g4021" transform="matrix(0.43092847,0,0,0.43092847,86.922024,52.562757)">
<path style="fill:#2c2c51" id="path4308" d="m -161.7528,9.2732 c 0.4,0.5 0.9,2.3 0.9,8.6 0,0.9 0,1.8 0,2.8 -3.4,0.5 -6.3,1 -6.8,1.2 l -.6,.2 2.8,2.7 .2,-.1 c 1.1,-0.3 2.6,-0.5 4.2,-0.7 0,0.7 -0.4,7.3 -0.4,7.9 -4.9,0.4 -9.2,1.1 -12.7,1.9 -3,0.8 -4.8,2.6 -5.2,5.4 -0.1,0.4 -0.1,0.9 -0.1,1.4 0,7.1 6.9,16.9 7,16.9 l .8,.5 -.3,-.9 c 0,-0.1 -2.8,-9.4 -2.8,-15.6 0,-1.8 0.2,-3.3 0.8,-4.3 0.4,-0.6 0.8,-0.9 1.4,-1 1.3,-0.2 2.7,-0.4 4,-0.6 0,0 3.1,4 3.7,4.7 -0.5,0.1 -1.4,0.3 -1.4,0.3 v 0.3 l .2,2.2 .4,-.1 c 0.6,-0.2 1.8,-0.5 3.2,-0.7 0,0.6 0.1,2.4 0.2,2.9 -1.7,0.5 -3.2,1.1 -3.8,1.4 l -.4,.2 1.5,1.6 .2,-.1 c 0.7,-0.3 1.7,-0.6 2.7,-0.9 0,0.7 0.3,5.6 0.3,5.6 h 0.7 c 0,0 1.1,-5.5 1.2,-6 1.8,-0.2 3.5,-0.1 4.8,0.2 l .4,.1 v -3 l -.2,-.1 c -0.8,-0.4 -2.3,-0.4 -4.5,0.1 0.1,-0.7 0.4,-2.1 0.5,-2.5 1.6,-0.1 2.9,-0.2 3.8,-0.1 l .5,.1 -.7,-2.6 c 0,0 -0.9,0 -1.4,0.1 0.8,-0.9 3.5,-4.4 3.7,-4.6 0.3,0 3.9,0.1 3.9,0.1 1.6,0.1 3,0.7 4.1,2 1.3,1.5 2,3.9 2,6.3 0,0.5 0,1.1 -0.1,1.6 l -.1,.7 c -0.7,5.1 -1.3,8.8 -3.1,9.6 -1.2,0.5 -3.1,-0.3 -5.9,-2.4 l -.5,.5 5.5,9.6 .3,-.1 c 6.7,-2.4 7.7,-3.8 10.4,-15.4 1.2,-5.1 0.8,-9.1 -1.3,-11.8 -2.5,-3.3 -6.3,-3.7 -6.5,-3.7 -0.1,0 -6.7,-0.3 -14.6,0.2 0.2,-0.8 2,-7.5 2.1,-7.9 2.5,0 4.7,0.1 5.7,0.5 l .4,.1 .4,-4.7 h -0.4 c -1.1,0 -2.8,0.1 -5.1,0.3 1.3,-4.4 1.9,-5.8 2.1,-6.2 l .2,-.3 -8.1,-4.7 -.2,.3 z  m 4.4,25.3 c -0.1,0.7 -0.7,4.3 -0.7,4.7 0,0 -0.1,0 -0.1,0 0,-0.1 0.1,-0.4 0.1,-0.4 l -4.4,.4 c 0,0 0,0.5 0,0.6 -0.4,0.1 -1,0.2 -1.4,0.2 0,-0.7 0,-5 0,-5.1 2.2,-0.1 4.3,-0.3 6.5,-0.4 z "/>
</g>
<g id="g4026" transform="matrix(0.46747322,0,0,0.46747322,30.447149,-8.3248855)">
<g style="fill:#a81212" id="use3830" transform="translate(18.409196,161.82114)">
<path id="path3574" d="m 18.01,.14 c 0,0 -4.39,3.33 -4.78,3.63 -0.32,-0.33 -3.2,-3.27 -3.2,-3.27 l 2.22,8.92 .6,-.03 c 0.75,-4.76 4.35,-6.63 5.33,-7.05 0.14,0.2 0.26,0.42 0.26,0.72 0,0.09 -0.01,0.18 -0.02,0.28 -0.21,1.67 -2.39,4.64 -6.68,7.21 l -.31,.18 .81,1.01 .2,-.06 c 0.06,-0.02 6.59,-2.06 10.36,-1.88 l 1.14,.05 -.96,-.63 c -0.08,-0.05 -1.95,-1.25 -3.93,-1.03 0.28,-0.63 2.26,-2.56 4.15,-4.16 l .31,-.26 -5.32,-3.77 -.18,.14 z "/>
<path id="path3576" d="m 33.78,24.64 c -0.17,-0.17 -4.21,-4.28 -5.63,-5.01 -0.53,-0.27 -1.71,-0.18 -5.75,0.16 0,0 -0.17,0.01 -0.43,0.04 1.19,-2.79 2.72,-5.86 3.57,-6.25 l .55,-.25 -2.13,-2.09 -.21,.03 c -5.11,0.87 -13.08,2.09 -14.11,1.9 l -.35,-.07 -.12,.33 c -0.2,0.56 0.32,4.93 0.86,7.37 -4.58,0.4 -10.03,0.86 -10.03,0.86 l .3,.56 .68,1.27 .32,-.09 c 1.72,-0.51 2.52,-0.57 4.6,-0.54 0.19,0.49 2.6,6.77 2.6,6.77 l .79,-.2 c 0,0 -0.69,-5.69 -0.8,-6.52 0.78,0.02 7.99,0.22 9.67,0.26 -1.09,0.92 -3.56,3.02 -3.56,3.02 l .4,.71 c 0,0 5.15,-1.76 5.41,-1.85 0.25,0.1 4.3,1.65 4.3,1.65 0,0 -2.13,-2.57 -2.81,-3.38 3.78,0.2 4.75,0.42 5.01,0.74 0.33,0.39 0.5,0.96 0.5,1.6 0,1.16 -0.58,2.57 -1.8,3.73 -1.82,-0.46 -5.17,-2.34 -5.21,-2.36 l -.52,.62 5.08,6.35 .24,-.05 c 3.82,-0.78 8.44,-8.48 8.63,-8.81 l .17,-.27 -.22,-.23 z  m -12.76,-7.99 c -1.22,0.16 -2.77,0.37 -3.21,0.43 0,-0.33 0,-1.17 0,-2 1.62,-0.13 3.11,-0.25 3.49,-0.29 -0.05,0.27 -0.15,0.98 -0.28,1.86 z  m -4.93,-1.43 c 0.02,0.84 0.04,1.75 0.05,2.06 -1.41,0.16 -2.6,0.26 -3.55,0.3 0.1,-0.62 0.19,-1.31 0.3,-2.1 0.24,-0.02 1.62,-0.13 3.2,-0.26 z  m -4.06,5.43 c 0.08,-0.35 0.17,-0.76 0.26,-1.24 1.3,-0.24 2.61,-0.46 3.89,-0.63 0.01,0.48 0.03,1.1 0.04,1.52 -0.25,0.01 -1.96,0.16 -4.19,0.35 z  m 5.77,-.48 c 0,-0.48 0,-1.18 0,-1.6 0.98,-0.1 1.36,-0.08 1.96,-0.02 l .96,.06 c -0.07,0.46 -0.14,0.92 -0.2,1.35 -1.09,0.08 -2.33,0.18 -2.72,0.21 z "/>
</g>
<path style="fill:#3d3d6f" id="path4268" d="m 48.0092,144.4211 c 0,0 -2.9,3.2 -3.1,3.4 -3.2,0.7 -8.4,1.2 -8.8,-0.4 -0.5,-1.9 3.4,-10.4 4.9,-13.6 l .2,-.3 -5.6,-2.8 -.1,.4 c -0.1,0.2 -0.4,1.3 -0.9,3 -2,0 -4.2,0 -4.5,0 0,-0.4 -0.1,-1.3 -0.1,-1.3 -1.4,-2.3 -7.4,-0.7 -8.1,-0.6 l -.4,.1 .2,.4 c 0.2,0.4 0.4,0.9 0.5,1.4 -0.8,0 -3.8,0 -3.8,0 l 1.9,3.6 c 0,0 1.8,-0.3 2.4,-0.4 0,0.2 0,0.5 0,0.7 0,6.2 -2.7,14.1 -2.7,14.2 l .6,.3 c 0.3,-0.4 7.9,-9.5 9.3,-16.4 0.2,0 2.4,-0.4 4.4,-0.7 -1.2,4.7 -2.6,12.1 -0.3,14.8 3.4,4 16.6,3.7 17.1,3.5 l .3,-.1 -3.4,-9.2 z "/>
</g>
<path style="opacity:.4;fill:#fff" id="path4038" d="m 13.125,12.7065 c -1.3005,0 -2.34375,0.465947 -2.34375,1.03125 0,0.400061 0.538188,0.741007 1.3125,0.90625 v 3.03125 c -0.774312,0.165242 -1.3125,0.50619 -1.3125,0.90625 0,0.400061 0.538188,0.741007 1.3125,0.90625 v 3.03125 c -0.774312,0.169591 -1.3125,0.50619 -1.3125,0.90625 0,0.565303 1.04325,1.03125 2.34375,1.03125 1.3005,0 2.34375,-0.465947 2.34375,-1.03125 0,-0.40006 -0.538188,-0.741008 -1.3125,-0.90625 v -3.03125 c 0.774312,-0.169591 1.3125,-0.506189 1.3125,-0.90625 0,-0.40006 -0.538188,-0.741008 -1.3125,-0.90625 v -3.03125 c 0.774312,-0.165243 1.3125,-0.506189 1.3125,-0.90625 0,-0.565303 -1.04325,-1.03125 -2.34375,-1.03125 z  m 11.75,0 c -1.3005,0 -2.34375,0.465947 -2.34375,1.03125 0,0.400061 0.538188,0.741007 1.3125,0.90625 v 3.03125 c -0.774312,0.165242 -1.3125,0.50619 -1.3125,0.90625 0,0.400061 0.538188,0.741007 1.3125,0.90625 v 3.03125 c -0.774312,0.169591 -1.3125,0.50619 -1.3125,0.90625 0,0.565303 1.04325,1.03125 2.34375,1.03125 1.3005,0 2.34375,-0.465947 2.34375,-1.03125 0,-0.40006 -0.538187,-0.741008 -1.3125,-0.90625 v -3.03125 c 0.774313,-0.169591 1.3125,-0.506189 1.3125,-0.90625 0,-0.40006 -0.538187,-0.741008 -1.3125,-0.90625 v -3.03125 c 0.774313,-0.165243 1.3125,-0.506189 1.3125,-0.90625 0,-0.565303 -1.04325,-1.03125 -2.34375,-1.03125 z  m -11.75,.625 c 0.577526,0 1.03125,0.193175 1.03125,0.40625 0,0.178288 -0.332064,0.300265 -0.78125,0.34375 v 2.59375 c 0,0.20003 -0.108827,0.375 -0.25,0.375 -0.141173,0 -0.25,-0.17497 -0.25,-0.375 v -2.59375 c -0.449186,-0.04349 -0.78125,-0.165462 -0.78125,-0.34375 0,-0.213075 0.453725,-0.40625 1.03125,-0.40625 z  m 11.75,0 c 0.577526,0 1.03125,0.193175 1.03125,0.40625 0,0.178288 -0.332063,0.300265 -0.78125,0.34375 v 2.59375 c 0,0.20003 -0.108827,0.375 -0.25,0.375 -0.141173,0 -0.25,-0.17497 -0.25,-0.375 v -2.59375 c -0.449187,-0.04349 -0.78125,-0.165462 -0.78125,-0.34375 0,-0.213075 0.453724,-0.40625 1.03125,-0.40625 z  m -11.75,4.8438 c 0.795703,0 1.4375,0.193174 1.4375,0.40625 0,0.213076 -0.641797,0.375 -1.4375,0.375 -0.795702,0 -1.4375,-0.161924 -1.4375,-0.375 0,-0.213076 0.641798,-0.40625 1.4375,-0.40625 z  m 11.75,0 c 0.795702,0 1.4375,0.193174 1.4375,0.40625 0,0.213076 -0.641798,0.375 -1.4375,0.375 -0.795702,0 -1.4375,-0.161924 -1.4375,-0.375 0,-0.213076 0.641798,-0.40625 1.4375,-0.40625 z  m -11.75,1.9375 c 0.141173,0 0.25,0.143719 0.25,0.34375 v 2.59375 c 0.449186,0.04349 0.78125,0.196712 0.78125,0.375 0,0.213076 -0.453724,0.375 -1.03125,0.375 -0.577525,0 -1.03125,-0.161924 -1.03125,-0.375 0,-0.178288 0.332064,-0.331515 0.78125,-0.375 v -2.59375 c 0,-0.200031 0.108827,-0.34375 0.25,-0.34375 z  m 11.75,0 c 0.141173,0 0.25,0.143719 0.25,0.34375 v 2.59375 c 0.449187,0.04349 0.78125,0.196712 0.78125,0.375 0,0.213076 -0.453724,0.375 -1.03125,0.375 -0.577526,0 -1.03125,-0.161924 -1.03125,-0.375 0,-0.178288 0.332063,-0.331515 0.78125,-0.375 v -2.59375 c 0,-0.200031 0.108827,-0.34375 0.25,-0.34375 z  m -5.875,.8125 c -1.3005,0 -2.34375,0.465947 -2.34375,1.03125 0,0.400061 0.538188,0.741008 1.3125,0.90625 v 3.03125 c -0.774312,0.165242 -1.3125,0.506189 -1.3125,0.90625 0,0.400061 0.538188,0.741008 1.3125,0.90625 v 3.03125 c -0.774312,0.169591 -1.3125,0.506189 -1.3125,0.90625 0,0.565303 1.04325,1.03125 2.34375,1.03125 1.3005,0 2.34375,-0.465947 2.34375,-1.03125 0,-0.400061 -0.538187,-0.741008 -1.3125,-0.90625 v -3.03125 c 0.774313,-0.169591 1.3125,-0.506189 1.3125,-0.90625 0,-0.400061 -0.538187,-0.741008 -1.3125,-0.90625 v -3.03125 c 0.774313,-0.165242 1.3125,-0.506189 1.3125,-0.90625 0,-0.565303 -1.04325,-1.03125 -2.34375,-1.03125 z  m 0,.6562 c 0.577526,0 1.03125,0.161924 1.03125,0.375 0,0.178288 -0.332063,0.331515 -0.78125,0.375 v 2.5625 c 0,0.20003 -0.108827,0.375 -0.25,0.375 -0.141173,0 -0.25,-0.17497 -0.25,-0.375 v -2.5625 c -0.449187,-0.04348 -0.78125,-0.196712 -0.78125,-0.375 0,-0.213076 0.453724,-0.375 1.03125,-0.375 z  m 0,4.8438 c 0.795702,0 1.4375,0.161924 1.4375,0.375 0,0.213076 -0.641798,0.375 -1.4375,0.375 -0.795703,0 -1.4375,-0.161924 -1.4375,-0.375 0,-0.213076 0.641797,-0.375 1.4375,-0.375 z  m 0,1.9062 c 0.141173,0 0.25,0.174969 0.25,0.375 v 2.5625 c 0.449187,0.04348 0.78125,0.196712 0.78125,0.375 0,0.213076 -0.453724,0.375 -1.03125,0.375 -0.577526,0 -1.03125,-0.161924 -1.03125,-0.375 0,-0.178288 0.332063,-0.331515 0.78125,-0.375 v -2.5625 c 0,-0.200031 0.108827,-0.375 0.25,-0.375 z  m -5.875,.8125 c -1.3005,0 -2.34375,0.465947 -2.34375,1.03125 0,0.40006 0.538188,0.741008 1.3125,0.90625 v 3.03125 c -0.774312,0.165243 -1.3125,0.506189 -1.3125,0.90625 0,0.40006 0.538188,0.741008 1.3125,0.90625 v 3.03125 c -0.774312,0.169591 -1.3125,0.506189 -1.3125,0.90625 0,0.565303 1.04325,1.03125 2.34375,1.03125 1.3005,0 2.34375,-0.465947 2.34375,-1.03125 0,-0.400061 -0.538188,-0.741007 -1.3125,-0.90625 v -3.03125 c 0.774312,-0.169591 1.3125,-0.50619 1.3125,-0.90625 0,-0.400061 -0.538188,-0.741007 -1.3125,-0.90625 v -3.03125 c 0.774312,-0.165242 1.3125,-0.50619 1.3125,-0.90625 0,-0.565303 -1.04325,-1.03125 -2.34375,-1.03125 z  m 11.75,0 c -1.3005,0 -2.34375,0.465947 -2.34375,1.03125 0,0.40006 0.538188,0.741008 1.3125,0.90625 v 3.03125 c -0.774312,0.165243 -1.3125,0.506189 -1.3125,0.90625 0,0.40006 0.538188,0.741008 1.3125,0.90625 v 3.03125 c -0.774312,0.169591 -1.3125,0.506189 -1.3125,0.90625 0,0.565303 1.04325,1.03125 2.34375,1.03125 1.3005,0 2.34375,-0.465947 2.34375,-1.03125 0,-0.400061 -0.538187,-0.741007 -1.3125,-0.90625 v -3.03125 c 0.774313,-0.169591 1.3125,-0.50619 1.3125,-0.90625 0,-0.400061 -0.538187,-0.741007 -1.3125,-0.90625 v -3.03125 c 0.774313,-0.165242 1.3125,-0.50619 1.3125,-0.90625 0,-0.565303 -1.04325,-1.03125 -2.34375,-1.03125 z  m -11.75,.6562 c 0.577526,0 1.03125,0.161924 1.03125,0.375 0,0.178288 -0.332064,0.331515 -0.78125,0.375 v 2.59375 c 0,0.200031 -0.108827,0.34375 -0.25,0.34375 -0.141173,0 -0.25,-0.143719 -0.25,-0.34375 v -2.59375 c -0.449186,-0.04349 -0.78125,-0.196712 -0.78125,-0.375 0,-0.213076 0.453725,-0.375 1.03125,-0.375 z  m 11.75,0 c 0.577526,0 1.03125,0.161924 1.03125,0.375 0,0.178288 -0.332063,0.331515 -0.78125,0.375 v 2.59375 c 0,0.200031 -0.108827,0.34375 -0.25,0.34375 -0.141173,0 -0.25,-0.143719 -0.25,-0.34375 v -2.59375 c -0.449187,-0.04349 -0.78125,-0.196712 -0.78125,-0.375 0,-0.213076 0.453724,-0.375 1.03125,-0.375 z  m -11.75,4.8438 c 0.795703,0 1.4375,0.161924 1.4375,0.375 0,0.213076 -0.641797,0.40625 -1.4375,0.40625 -0.795702,0 -1.4375,-0.193174 -1.4375,-0.40625 0,-0.213076 0.641798,-0.375 1.4375,-0.375 z  m 11.75,0 c 0.795702,0 1.4375,0.161924 1.4375,0.375 0,0.213076 -0.641798,0.40625 -1.4375,0.40625 -0.795702,0 -1.4375,-0.193174 -1.4375,-0.40625 0,-0.213076 0.641798,-0.375 1.4375,-0.375 z  m -11.75,1.9062 c 0.141173,0 0.25,0.17497 0.25,0.375 v 2.59375 c 0.449186,0.04348 0.78125,0.165462 0.78125,0.34375 0,0.213075 -0.453724,0.40625 -1.03125,0.40625 -0.577525,0 -1.03125,-0.193175 -1.03125,-0.40625 0,-0.178288 0.332064,-0.300265 0.78125,-0.34375 v -2.59375 c 0,-0.20003 0.108827,-0.375 0.25,-0.375 z  m 11.75,0 c 0.141173,0 0.25,0.17497 0.25,0.375 v 2.59375 c 0.449187,0.04348 0.78125,0.165462 0.78125,0.34375 0,0.213075 -0.453724,0.40625 -1.03125,0.40625 -0.577526,0 -1.03125,-0.193175 -1.03125,-0.40625 0,-0.178288 0.332063,-0.300265 0.78125,-0.34375 v -2.59375 c 0,-0.20003 0.108827,-0.375 0.25,-0.375 z "/>
<g id="g4008" transform="matrix(0.4701065,0,0,0.4701065,-103.76834,-42.356663)">
<g style="fill:#0c6c0c">
<path id="use4098" d="m 253.6551,127.9068 c 0,-0.851 -1.1375,-1.58175 -2.7846,-1.93325 v -6.44725 c 1.6471,-0.3515 2.7846,-1.08225 2.7846,-1.93325 0,-1.2025 -2.2386,-2.17375 -5.005,-2.17375 -2.7664,0 -5.005,0.97125 -5.005,2.17375 0,0.851 1.1375,1.58175 2.7846,1.93325 v 6.44725 c -1.6471,0.3515 -2.7846,1.08225 -2.7846,1.93325 0,0.851 1.1375,1.58175 2.7846,1.93325 v 6.438 c -1.6471,0.36075 -2.7846,1.0915 -2.7846,1.9425 0,1.2025 2.2386,2.17375 5.005,2.17375 2.7664,0 5.005,-0.97125 5.005,-2.17375 0,-0.851 -1.1375,-1.58175 -2.7846,-1.93325 v -6.438 c 1.6471,-0.36075 2.7846,-1.0915 2.7846,-1.9425 z  m -5.005,-11.1278 c 1.2285,0 2.2204,0.36075 2.2204,0.814 0,0.37925 -0.7098,0.69375 -1.6653,0.78625 v 5.4945 c 0,0.4255 -0.2548,0.777 -0.5551,0.777 -0.3003,0 -0.5551,-0.3515 -0.5551,-0.777 v -5.4945 c -0.9555,-0.0925 -1.6653,-0.407 -1.6653,-0.78625 0,-0.45325 0.9919,-0.814 2.2204,-0.814 z  m 0,22.2555 c -1.2285,0 -2.2204,-0.36075 -2.2204,-0.814 0,-0.37925 0.7098,-0.69375 1.6653,-0.78625 v -5.4945 c 0,-0.4255 0.2548,-0.777 0.5551,-0.777 0.3003,0 0.5551,0.3515 0.5551,0.777 v 5.4945 c 0.9555,0.0925 1.6653,0.407 1.6653,0.78625 0,0.45325 -0.9919,0.814 -2.2204,0.814 z  m 0,-10.3137 c -1.6926,0 -3.0576,-0.36075 -3.0576,-0.814 0,-0.45325 1.365,-0.814 3.0576,-0.814 1.6926,0 3.0576,0.36075 3.0576,0.814 0,0.45325 -1.365,0.814 -3.0576,0.814 z "/>
<path id="use4100" d="m 253.6551,162.9068 c 0,-0.851 -1.1375,-1.58175 -2.7846,-1.93325 v -6.44725 c 1.6471,-0.3515 2.7846,-1.08225 2.7846,-1.93325 0,-1.2025 -2.2386,-2.17375 -5.005,-2.17375 -2.7664,0 -5.005,0.97125 -5.005,2.17375 0,0.851 1.1375,1.58175 2.7846,1.93325 v 6.44725 c -1.6471,0.3515 -2.7846,1.08225 -2.7846,1.93325 0,0.851 1.1375,1.58175 2.7846,1.93325 v 6.438 c -1.6471,0.36075 -2.7846,1.0915 -2.7846,1.9425 0,1.2025 2.2386,2.17375 5.005,2.17375 2.7664,0 5.005,-0.97125 5.005,-2.17375 0,-0.851 -1.1375,-1.58175 -2.7846,-1.93325 v -6.438 c 1.6471,-0.36075 2.7846,-1.0915 2.7846,-1.9425 z  m -5.005,-11.1277 c 1.2285,0 2.2204,0.36075 2.2204,0.814 0,0.37925 -0.7098,0.69375 -1.6653,0.78625 v 5.4945 c 0,0.4255 -0.2548,0.777 -0.5551,0.777 -0.3003,0 -0.5551,-0.3515 -0.5551,-0.777 v -5.4945 c -0.9555,-0.0925 -1.6653,-0.407 -1.6653,-0.78625 0,-0.45325 0.9919,-0.814 2.2204,-0.814 z  m 0,22.2555 c -1.2285,0 -2.2204,-0.36075 -2.2204,-0.814 0,-0.37925 0.7098,-0.69375 1.6653,-0.78625 v -5.4945 c 0,-0.4255 0.2548,-0.777 0.5551,-0.777 0.3003,0 0.5551,0.3515 0.5551,0.777 v 5.4945 c 0.9555,0.0925 1.6653,0.407 1.6653,0.78625 0,0.45325 -0.9919,0.814 -2.2204,0.814 z  m 0,-10.3137 c -1.6926,0 -3.0576,-0.36075 -3.0576,-0.814 0,-0.45325 1.365,-0.814 3.0576,-0.814 1.6926,0 3.0576,0.36075 3.0576,0.814 0,0.45325 -1.365,0.814 -3.0576,0.814 z "/>
</g>
<path style="fill:#9c0000" id="use4108" d="m 266.1551,145.4068 c 0,-0.851 -1.1375,-1.58175 -2.7846,-1.93325 v -6.44725 c 1.6471,-0.3515 2.7846,-1.08225 2.7846,-1.93325 0,-1.2025 -2.2386,-2.17375 -5.005,-2.17375 -2.7664,0 -5.005,0.97125 -5.005,2.17375 0,0.851 1.1375,1.58175 2.7846,1.93325 v 6.44725 c -1.6471,0.3515 -2.7846,1.08225 -2.7846,1.93325 0,0.851 1.1375,1.58175 2.7846,1.93325 v 6.438 c -1.6471,0.36075 -2.7846,1.0915 -2.7846,1.9425 0,1.2025 2.2386,2.17375 5.005,2.17375 2.7664,0 5.005,-0.97125 5.005,-2.17375 0,-0.851 -1.1375,-1.58175 -2.7846,-1.93325 v -6.438 c 1.6471,-0.36075 2.7846,-1.0915 2.7846,-1.9425 z  m -5.005,-11.1277 c 1.2285,0 2.2204,0.36075 2.2204,0.814 0,0.37925 -0.7098,0.69375 -1.6653,0.78625 v 5.4945 c 0,0.4255 -0.2548,0.777 -0.5551,0.777 -0.3003,0 -0.5551,-0.3515 -0.5551,-0.777 v -5.4945 c -0.9555,-0.0925 -1.6653,-0.407 -1.6653,-0.78625 0,-0.45325 0.9919,-0.814 2.2204,-0.814 z  m 0,22.2555 c -1.2285,0 -2.2204,-0.36075 -2.2204,-0.814 0,-0.37925 0.7098,-0.69375 1.6653,-0.78625 v -5.4945 c 0,-0.4255 0.2548,-0.777 0.5551,-0.777 0.3003,0 0.5551,0.3515 0.5551,0.777 v 5.4945 c 0.9555,0.0925 1.6653,0.407 1.6653,0.78625 0,0.45325 -0.9919,0.814 -2.2204,0.814 z  m 0,-10.3137 c -1.6926,0 -3.0576,-0.36075 -3.0576,-0.814 0,-0.45325 1.365,-0.814 3.0576,-0.814 1.6926,0 3.0576,0.36075 3.0576,0.814 0,0.45325 -1.365,0.814 -3.0576,0.814 z "/>
<g style="fill:#0c6c0c">
<path id="use4110" d="m 278.6551,127.9068 c 0,-0.851 -1.1375,-1.58175 -2.7846,-1.93325 v -6.44725 c 1.6471,-0.3515 2.7846,-1.08225 2.7846,-1.93325 0,-1.2025 -2.2386,-2.17375 -5.005,-2.17375 -2.7664,0 -5.005,0.97125 -5.005,2.17375 0,0.851 1.1375,1.58175 2.7846,1.93325 v 6.44725 c -1.6471,0.3515 -2.7846,1.08225 -2.7846,1.93325 0,0.851 1.1375,1.58175 2.7846,1.93325 v 6.438 c -1.6471,0.36075 -2.7846,1.0915 -2.7846,1.9425 0,1.2025 2.2386,2.17375 5.005,2.17375 2.7664,0 5.005,-0.97125 5.005,-2.17375 0,-0.851 -1.1375,-1.58175 -2.7846,-1.93325 v -6.438 c 1.6471,-0.36075 2.7846,-1.0915 2.7846,-1.9425 z  m -5.005,-11.1278 c 1.2285,0 2.2204,0.36075 2.2204,0.814 0,0.37925 -0.7098,0.69375 -1.6653,0.78625 v 5.4945 c 0,0.4255 -0.2548,0.777 -0.5551,0.777 -0.3003,0 -0.5551,-0.3515 -0.5551,-0.777 v -5.4945 c -0.9555,-0.0925 -1.6653,-0.407 -1.6653,-0.78625 0,-0.45325 0.9919,-0.814 2.2204,-0.814 z  m 0,22.2555 c -1.2285,0 -2.2204,-0.36075 -2.2204,-0.814 0,-0.37925 0.7098,-0.69375 1.6653,-0.78625 v -5.4945 c 0,-0.4255 0.2548,-0.777 0.5551,-0.777 0.3003,0 0.5551,0.3515 0.5551,0.777 v 5.4945 c 0.9555,0.0925 1.6653,0.407 1.6653,0.78625 0,0.45325 -0.9919,0.814 -2.2204,0.814 z  m 0,-10.3137 c -1.6926,0 -3.0576,-0.36075 -3.0576,-0.814 0,-0.45325 1.365,-0.814 3.0576,-0.814 1.6926,0 3.0576,0.36075 3.0576,0.814 0,0.45325 -1.365,0.814 -3.0576,0.814 z "/>
<path id="use4112" d="m 278.6551,162.9068 c 0,-0.851 -1.1375,-1.58175 -2.7846,-1.93325 v -6.44725 c 1.6471,-0.3515 2.7846,-1.08225 2.7846,-1.93325 0,-1.2025 -2.2386,-2.17375 -5.005,-2.17375 -2.7664,0 -5.005,0.97125 -5.005,2.17375 0,0.851 1.1375,1.58175 2.7846,1.93325 v 6.44725 c -1.6471,0.3515 -2.7846,1.08225 -2.7846,1.93325 0,0.851 1.1375,1.58175 2.7846,1.93325 v 6.438 c -1.6471,0.36075 -2.7846,1.0915 -2.7846,1.9425 0,1.2025 2.2386,2.17375 5.005,2.17375 2.7664,0 5.005,-0.97125 5.005,-2.17375 0,-0.851 -1.1375,-1.58175 -2.7846,-1.93325 v -6.438 c 1.6471,-0.36075 2.7846,-1.0915 2.7846,-1.9425 z  m -5.005,-11.1277 c 1.2285,0 2.2204,0.36075 2.2204,0.814 0,0.37925 -0.7098,0.69375 -1.6653,0.78625 v 5.4945 c 0,0.4255 -0.2548,0.777 -0.5551,0.777 -0.3003,0 -0.5551,-0.3515 -0.5551,-0.777 v -5.4945 c -0.9555,-0.0925 -1.6653,-0.407 -1.6653,-0.78625 0,-0.45325 0.9919,-0.814 2.2204,-0.814 z  m 0,22.2555 c -1.2285,0 -2.2204,-0.36075 -2.2204,-0.814 0,-0.37925 0.7098,-0.69375 1.6653,-0.78625 v -5.4945 c 0,-0.4255 0.2548,-0.777 0.5551,-0.777 0.3003,0 0.5551,0.3515 0.5551,0.777 v 5.4945 c 0.9555,0.0925 1.6653,0.407 1.6653,0.78625 0,0.45325 -0.9919,0.814 -2.2204,0.814 z  m 0,-10.3137 c -1.6926,0 -3.0576,-0.36075 -3.0576,-0.814 0,-0.45325 1.365,-0.814 3.0576,-0.814 1.6926,0 3.0576,0.36075 3.0576,0.814 0,0.45325 -1.365,0.814 -3.0576,0.814 z "/>
</g>
</g>
<g id="g4015" transform="matrix(0.5141861,0,0,0.5141861,113.83225,-56.387422)">
<g id="use3890" transform="translate(-94.521781,132.2288)">
<path style="fill:#10106c" id="path3728-4" d="m 9,1.42 c -4.18,0 -7.58,3.4 -7.58,7.58 0,4.18 3.4,7.58 7.58,7.58 4.18,0 7.58,-3.4 7.58,-7.58 0,-4.18 -3.4,-7.58 -7.58,-7.58 z m 0,13.69 c -1.36,0 -2.49,-0.97 -2.75,-2.25 0.78,0.56 1.72,0.89 2.75,0.89 1.03,0 1.97,-0.34 2.75,-0.89 -0.26,1.28 -1.39,2.25 -2.75,2.25 z M 9,2.89 c 1.36,0 2.49,0.97 2.75,2.25 C 10.97,4.59 10.03,4.25 9,4.25 7.97,4.25 7.03,4.59 6.25,5.14 6.51,3.86 7.64,2.89 9,2.89 z M 12.75,9 c 0,0.57 -0.14,1.11 -0.37,1.59 C 12.04,9.92 11.51,9.37 10.85,9 11.51,8.63 12.04,8.08 12.38,7.41 12.61,7.89 12.75,8.43 12.75,9 z M 5.25,9 C 5.25,8.43 5.39,7.89 5.62,7.41 5.96,8.08 6.49,8.63 7.15,9 6.49,9.37 5.96,9.92 5.62,10.59 5.39,10.11 5.25,9.57 5.25,9 z m 6.34,2.7 C 10.57,11.43 9.77,10.6 9.56,9.56 c 1.04,0.21 1.87,1.01 2.14,2.03 -0.04,0.04 -0.07,0.07 -0.11,0.11 z M 6.3,11.59 C 6.57,10.57 7.4,9.77 8.45,9.56 8.24,10.6 7.44,11.43 6.42,11.7 6.37,11.66 6.34,11.63 6.3,11.59 z M 6.41,6.3 C 7.43,6.57 8.23,7.4 8.44,8.45 7.4,8.23 6.57,7.43 6.3,6.41 6.34,6.37 6.37,6.34 6.41,6.3 z M 11.7,6.41 C 11.43,7.43 10.6,8.23 9.56,8.44 9.77,7.39 10.57,6.57 11.59,6.29 11.63,6.34 11.66,6.37 11.7,6.41 z M 9,7.15 C 8.63,6.49 8.08,5.96 7.41,5.62 7.89,5.39 8.43,5.25 9,5.25 c 0.57,0 1.11,0.14 1.59,0.37 C 9.92,5.96 9.37,6.49 9,7.15 z m 0,3.7 c 0.37,0.66 0.92,1.19 1.59,1.53 C 10.1,12.61 9.57,12.75 9,12.75 8.43,12.75 7.89,12.61 7.41,12.38 8.08,12.04 8.63,11.51 9,10.85 z m -3.86,0.9 C 3.86,11.49 2.89,10.36 2.89,9 2.89,7.64 3.86,6.51 5.14,6.25 4.59,7.03 4.25,7.97 4.25,9 c 0,1.03 0.34,1.97 0.89,2.75 z m 7.72,-5.5 c 1.28,0.26 2.25,1.39 2.25,2.75 0,1.36 -0.97,2.49 -2.25,2.75 0.56,-0.78 0.89,-1.72 0.89,-2.75 0,-1.03 -0.34,-1.97 -0.89,-2.75 z m 2.15,0.08 C 14.42,5.73 13.63,5.34 12.76,5.24 12.65,4.36 12.27,3.58 11.67,2.99 c 1.48,0.66 2.68,1.86 3.34,3.34 z M 6.33,2.99 C 5.73,3.58 5.35,4.37 5.24,5.24 4.36,5.35 3.58,5.73 2.99,6.33 3.65,4.85 4.85,3.65 6.33,2.99 z m -3.34,8.68 c 0.59,0.6 1.38,0.99 2.25,1.09 0.11,0.88 0.49,1.66 1.09,2.25 C 4.85,14.35 3.65,13.15 2.99,11.67 z m 8.68,3.34 c 0.6,-0.59 0.99,-1.38 1.09,-2.25 0.88,-0.11 1.66,-0.49 2.25,-1.09 -0.66,1.48 -1.86,2.68 -3.34,3.34 z"/>
<path style="fill:#2d2d4f" id="path3730" d="M 9,0 C 4.04,0 0,4.04 0,9 c 0,4.96 4.04,9 9,9 4.96,0 9,-4.04 9,-9 C 18,4.04 13.96,0 9,0 z M 9,17 C 4.59,17 1,13.41 1,9 1,4.59 4.59,1 9,1 c 4.41,0 8,3.59 8,8 0,4.41 -3.59,8 -8,8 z"/>
</g>
<g style="fill:#9c0000" id="use3894" transform="translate(-84.521781,151.2288)">
<path id="path3722" d="m 9,1.42 c -4.18,0 -7.58,3.4 -7.58,7.58 0,4.18 3.4,7.58 7.58,7.58 4.18,0 7.58,-3.4 7.58,-7.58 0,-4.18 -3.4,-7.58 -7.58,-7.58 z m 0,13.69 c -1.36,0 -2.49,-0.97 -2.75,-2.25 0.78,0.56 1.72,0.89 2.75,0.89 1.03,0 1.97,-0.34 2.75,-0.89 -0.26,1.28 -1.39,2.25 -2.75,2.25 z M 9,2.89 c 1.36,0 2.49,0.97 2.75,2.25 C 10.97,4.59 10.03,4.25 9,4.25 7.97,4.25 7.03,4.59 6.25,5.14 6.51,3.86 7.64,2.89 9,2.89 z M 12.75,9 c 0,0.57 -0.14,1.11 -0.37,1.59 C 12.04,9.92 11.51,9.37 10.85,9 11.51,8.63 12.04,8.08 12.38,7.41 12.61,7.89 12.75,8.43 12.75,9 z M 5.25,9 C 5.25,8.43 5.39,7.89 5.62,7.41 5.96,8.08 6.49,8.63 7.15,9 6.49,9.37 5.96,9.92 5.62,10.59 5.39,10.11 5.25,9.57 5.25,9 z m 6.34,2.7 C 10.57,11.43 9.77,10.6 9.56,9.56 c 1.04,0.21 1.87,1.01 2.14,2.03 -0.04,0.04 -0.07,0.07 -0.11,0.11 z M 6.3,11.59 C 6.57,10.57 7.4,9.77 8.45,9.56 8.24,10.6 7.44,11.43 6.42,11.7 6.37,11.66 6.34,11.63 6.3,11.59 z M 6.41,6.3 C 7.43,6.57 8.23,7.4 8.44,8.45 7.4,8.23 6.57,7.43 6.3,6.41 6.34,6.37 6.37,6.34 6.41,6.3 z M 11.7,6.41 C 11.43,7.43 10.6,8.23 9.56,8.44 9.77,7.39 10.57,6.57 11.59,6.29 11.63,6.34 11.66,6.37 11.7,6.41 z M 9,7.15 C 8.63,6.49 8.08,5.96 7.41,5.62 7.89,5.39 8.43,5.25 9,5.25 c 0.57,0 1.11,0.14 1.59,0.37 C 9.92,5.96 9.37,6.49 9,7.15 z m 0,3.7 c 0.37,0.66 0.92,1.19 1.59,1.53 C 10.1,12.61 9.57,12.75 9,12.75 8.43,12.75 7.89,12.61 7.41,12.38 8.08,12.04 8.63,11.51 9,10.85 z m -3.86,0.9 C 3.86,11.49 2.89,10.36 2.89,9 2.89,7.64 3.86,6.51 5.14,6.25 4.59,7.03 4.25,7.97 4.25,9 c 0,1.03 0.34,1.97 0.89,2.75 z m 7.72,-5.5 c 1.28,0.26 2.25,1.39 2.25,2.75 0,1.36 -0.97,2.49 -2.25,2.75 0.56,-0.78 0.89,-1.72 0.89,-2.75 0,-1.03 -0.34,-1.97 -0.89,-2.75 z m 2.15,0.08 C 14.42,5.73 13.63,5.34 12.76,5.24 12.65,4.36 12.27,3.58 11.67,2.99 c 1.48,0.66 2.68,1.86 3.34,3.34 z M 6.33,2.99 C 5.73,3.58 5.35,4.37 5.24,5.24 4.36,5.35 3.58,5.73 2.99,6.33 3.65,4.85 4.85,3.65 6.33,2.99 z m -3.34,8.68 c 0.59,0.6 1.38,0.99 2.25,1.09 0.11,0.88 0.49,1.66 1.09,2.25 C 4.85,14.35 3.65,13.15 2.99,11.67 z m 8.68,3.34 c 0.6,-0.59 0.99,-1.38 1.09,-2.25 0.88,-0.11 1.66,-0.49 2.25,-1.09 -0.66,1.48 -1.86,2.68 -3.34,3.34 z"/>
<path id="path3724" d="M 9,0 C 4.04,0 0,4.04 0,9 c 0,4.96 4.04,9 9,9 4.96,0 9,-4.04 9,-9 C 18,4.04 13.96,0 9,0 z M 9,17 C 4.59,17 1,13.41 1,9 1,4.59 4.59,1 9,1 c 4.41,0 8,3.59 8,8 0,4.41 -3.59,8 -8,8 z"/>
</g>
<g id="use3898" transform="translate(-74.521781,170.2288)">
<path style="fill:#2c2c50" id="path3716" d="m 9,1.42 c -4.18,0 -7.58,3.4 -7.58,7.58 0,4.18 3.4,7.58 7.58,7.58 4.18,0 7.58,-3.4 7.58,-7.58 0,-4.18 -3.4,-7.58 -7.58,-7.58 z m 0,13.69 c -1.36,0 -2.49,-0.97 -2.75,-2.25 0.78,0.56 1.72,0.89 2.75,0.89 1.03,0 1.97,-0.34 2.75,-0.89 -0.26,1.28 -1.39,2.25 -2.75,2.25 z M 9,2.89 c 1.36,0 2.49,0.97 2.75,2.25 C 10.97,4.59 10.03,4.25 9,4.25 7.97,4.25 7.03,4.59 6.25,5.14 6.51,3.86 7.64,2.89 9,2.89 z M 12.75,9 c 0,0.57 -0.14,1.11 -0.37,1.59 C 12.04,9.92 11.51,9.37 10.85,9 11.51,8.63 12.04,8.08 12.38,7.41 12.61,7.89 12.75,8.43 12.75,9 z M 5.25,9 C 5.25,8.43 5.39,7.89 5.62,7.41 5.96,8.08 6.49,8.63 7.15,9 6.49,9.37 5.96,9.92 5.62,10.59 5.39,10.11 5.25,9.57 5.25,9 z m 6.34,2.7 C 10.57,11.43 9.77,10.6 9.56,9.56 c 1.04,0.21 1.87,1.01 2.14,2.03 -0.04,0.04 -0.07,0.07 -0.11,0.11 z M 6.3,11.59 C 6.57,10.57 7.4,9.77 8.45,9.56 8.24,10.6 7.44,11.43 6.42,11.7 6.37,11.66 6.34,11.63 6.3,11.59 z M 6.41,6.3 C 7.43,6.57 8.23,7.4 8.44,8.45 7.4,8.23 6.57,7.43 6.3,6.41 6.34,6.37 6.37,6.34 6.41,6.3 z M 11.7,6.41 C 11.43,7.43 10.6,8.23 9.56,8.44 9.77,7.39 10.57,6.57 11.59,6.29 11.63,6.34 11.66,6.37 11.7,6.41 z M 9,7.15 C 8.63,6.49 8.08,5.96 7.41,5.62 7.89,5.39 8.43,5.25 9,5.25 c 0.57,0 1.11,0.14 1.59,0.37 C 9.92,5.96 9.37,6.49 9,7.15 z m 0,3.7 c 0.37,0.66 0.92,1.19 1.59,1.53 C 10.1,12.61 9.57,12.75 9,12.75 8.43,12.75 7.89,12.61 7.41,12.38 8.08,12.04 8.63,11.51 9,10.85 z m -3.86,0.9 C 3.86,11.49 2.89,10.36 2.89,9 2.89,7.64 3.86,6.51 5.14,6.25 4.59,7.03 4.25,7.97 4.25,9 c 0,1.03 0.34,1.97 0.89,2.75 z m 7.72,-5.5 c 1.28,0.26 2.25,1.39 2.25,2.75 0,1.36 -0.97,2.49 -2.25,2.75 0.56,-0.78 0.89,-1.72 0.89,-2.75 0,-1.03 -0.34,-1.97 -0.89,-2.75 z m 2.15,0.08 C 14.42,5.73 13.63,5.34 12.76,5.24 12.65,4.36 12.27,3.58 11.67,2.99 c 1.48,0.66 2.68,1.86 3.34,3.34 z M 6.33,2.99 C 5.73,3.58 5.35,4.37 5.24,5.24 4.36,5.35 3.58,5.73 2.99,6.33 3.65,4.85 4.85,3.65 6.33,2.99 z m -3.34,8.68 c 0.59,0.6 1.38,0.99 2.25,1.09 0.11,0.88 0.49,1.66 1.09,2.25 C 4.85,14.35 3.65,13.15 2.99,11.67 z m 8.68,3.34 c 0.6,-0.59 0.99,-1.38 1.09,-2.25 0.88,-0.11 1.66,-0.49 2.25,-1.09 -0.66,1.48 -1.86,2.68 -3.34,3.34 z"/>
<path style="fill:#10106c" id="path3718" d="M 9,0 C 4.04,0 0,4.04 0,9 c 0,4.96 4.04,9 9,9 4.96,0 9,-4.04 9,-9 C 18,4.04 13.96,0 9,0 z M 9,17 C 4.59,17 1,13.41 1,9 1,4.59 4.59,1 9,1 c 4.41,0 8,3.59 8,8 0,4.41 -3.59,8 -8,8 z"/>
</g>
</g>
</g>
</svg>
