<svg width="96" version="1.0" xmlns="http://www.w3.org/2000/svg" height="96" xmlns:xlink="http://www.w3.org/1999/xlink">
<defs id="defs2410">
<clipPath id="clipPath3613">
<rect width="84" x="6" y="6" rx="6" height="84" ry="6" style="fill:#fff;stroke:none" id="rect3615"/>
</clipPath>
<filter width="1.3839999" x="-0.192" y="-0.192" height="1.3839999" style="color-interpolation-filters:sRGB" id="filter3794">
<feGaussianBlur stdDeviation="5.28" id="feGaussianBlur3796"/>
</filter>
<filter style="color-interpolation-filters:sRGB" id="filter3291">
<feGaussianBlur stdDeviation="0.400625" id="feGaussianBlur3293"/>
</filter>
<filter style="color-interpolation-filters:sRGB" id="filter3573">
<feGaussianBlur stdDeviation="1.6284922" id="feGaussianBlur3575"/>
</filter>
<filter style="color-interpolation-filters:sRGB" id="filter3174">
<feGaussianBlur stdDeviation="1.71" id="feGaussianBlur3176"/>
</filter>
<filter style="color-interpolation-filters:sRGB" id="filter3546">
<feGaussianBlur stdDeviation="0.15992437" id="feGaussianBlur3548"/>
</filter>
<linearGradient id="linearGradient3312">
<stop offset="0" style="stop-color:#c7f994" id="stop3314"/>
<stop offset="1" style="stop-color:#87cf3e" id="stop3316"/>
</linearGradient>
<linearGradient gradientTransform="matrix(0.4552109,0,0,-0.4552109,196.32389,-91.311008)" xlink:href="#linearGradient7450-6" id="linearGradient3426" y1="67.187523" x1="99.142372" y2="-112.17552" gradientUnits="userSpaceOnUse" x2="99.142372"/>
<linearGradient gradientTransform="matrix(2.7085493,0,0,2.7085493,543.08426,-420.26637)" xlink:href="#linearGradient3312" id="linearGradient3048" y1="362.14285" x1="61.42857" y2="408.57144" gradientUnits="userSpaceOnUse" x2="116.42857"/>
<linearGradient id="linearGradient3914" xlink:href="#linearGradient3737-9" y1="20.220806" x1="48" y2="138.66119" x2="48" gradientUnits="userSpaceOnUse"/>
<linearGradient gradientTransform="matrix(1,0,0,1.1254126,-3.8319328,-9.8657153)" xlink:href="#linearGradient4220" id="linearGradient4218" y1="101.86796" x1="22.588234" y2="35.775845" gradientUnits="userSpaceOnUse" x2="22.991598"/>
<linearGradient gradientTransform="translate(0,80)" xlink:href="#linearGradient3431" id="linearGradient3050" y1="416.38858" x1="70.491508" y2="375.87961" gradientUnits="userSpaceOnUse" x2="113.64215"/>
<linearGradient gradientTransform="matrix(0.4552109,0,0,-0.4552109,-152.02905,-86.874033)" xlink:href="#linearGradient7450-6" id="linearGradient3429" y1="67.187523" x1="99.142372" y2="-112.17552" gradientUnits="userSpaceOnUse" x2="99.142372"/>
<linearGradient id="linearGradient3431">
<stop offset="0" style="stop-color:#3d3d3d" id="stop3433"/>
<stop offset="1" style="stop-opacity:.114" id="stop3435"/>
</linearGradient>
<linearGradient gradientTransform="matrix(0.4552109,0,0,-0.4552109,-270.65089,10.739411)" xlink:href="#linearGradient7450-6" id="linearGradient3423" y1="67.187523" x1="99.142372" y2="-112.17552" gradientUnits="userSpaceOnUse" x2="99.142372"/>
<linearGradient gradientTransform="matrix(1,0,0,0.82178217,51.025209,14.592895)" xlink:href="#ButtonShadow" id="linearGradient4212" y1="123.73109" x1="22.789915" y2="35.596638" gradientUnits="userSpaceOnUse" x2="22.789917"/>
<linearGradient gradientTransform="matrix(1,0,0,0.63696369,32.672268,29.726267)" xlink:href="#linearGradient4204" id="linearGradient4202" y1="123.73109" x1="22.789915" y2="35.596638" gradientUnits="userSpaceOnUse" x2="22.789917"/>
<linearGradient gradientTransform="scale(1.0058652,0.994169)" id="linearGradient4220" y1="92.539597" x1="45.447727" y2="7.0165396" x2="45.447727" gradientUnits="userSpaceOnUse">
<stop offset="0" style="stop-color:#937e3c" id="stop4222"/>
<stop offset="0.712394" style="stop-color:#e5ba19" id="stop4226"/>
<stop offset="1" style="stop-color:#f7c80e" id="stop4224"/>
</linearGradient>
<linearGradient id="linearGradient3188" xlink:href="#linearGradient3737" y1="6" x1="36.357143" y2="63.893143" x2="36.357143" gradientUnits="userSpaceOnUse"/>
<linearGradient id="linearGradient3706" xlink:href="#linearGradient3700" y1="90" x1="48" y2="5.9877172" x2="48" gradientUnits="userSpaceOnUse"/>
<linearGradient gradientTransform="translate(14.521008,0.40336134)" xlink:href="#ButtonShadow" id="linearGradient4228" y1="123.73109" x1="22.789915" y2="35.596638" gradientUnits="userSpaceOnUse" x2="22.789917"/>
<linearGradient id="linearGradient3700">
<stop offset="0" style="stop-color:#e1e1e1" id="stop3702"/>
<stop offset="1" style="stop-color:#f5f5f5" id="stop3704"/>
</linearGradient>
<linearGradient gradientTransform="scale(1.0058652,0.994169)" id="ButtonShadow" y1="92.539597" x1="45.447727" y2="7.0165396" x2="45.447727" gradientUnits="userSpaceOnUse">
<stop offset="0" id="stop3750"/>
<stop offset="1" style="stop-opacity:.588" id="stop3752"/>
</linearGradient>
<linearGradient gradientTransform="scale(1.0058652,0.994169)" id="linearGradient4204" y1="92.539597" y2="7.0165396" x1="45.447727" gradientUnits="userSpaceOnUse" x2="45.447727">
<stop offset="0" style="stop-color:#937e3c" id="stop4206"/>
<stop offset="1" style="stop-color:#ebbf15" id="stop4208"/>
</linearGradient>
<linearGradient id="linearGradient3737">
<stop offset="0" style="stop-color:#fff" id="stop3739"/>
<stop offset="1" style="stop-color:#fff;stop-opacity:0" id="stop3741"/>
</linearGradient>
<linearGradient gradientTransform="matrix(1.0058652,0,0,0.994169,100,0)" id="ButtonShadow-0" y1="92.539597" x1="45.447727" y2="7.0165396" x2="45.447727" gradientUnits="userSpaceOnUse">
<stop offset="0" id="stop3750-8"/>
<stop offset="1" style="stop-opacity:.588" id="stop3752-5"/>
</linearGradient>
<linearGradient id="linearGradient3737-9">
<stop offset="0" style="stop-color:#fff" id="stop3739-2"/>
<stop offset="1" style="stop-color:#fff;stop-opacity:0" id="stop3741-1"/>
</linearGradient>
<linearGradient id="linearGradient7450-6">
<stop offset="0" style="stop-color:#f0f0f0" id="stop7452-1"/>
<stop offset="1" style="stop-color:#b4b4b4" id="stop7454-0"/>
</linearGradient>
<linearGradient gradientTransform="matrix(1.0238095,0,0,1.0119048,-1.1428571,-98.071429)" id="linearGradient3780" xlink:href="#ButtonShadow-0" y1="6.1317081" x1="32.251034" y2="90.238609" x2="32.251034" gradientUnits="userSpaceOnUse"/>
<linearGradient gradientTransform="matrix(1.0238095,0,0,1.0119048,-1.1428571,-98.071429)" id="linearGradient3760" xlink:href="#ButtonShadow-0" y1="6.1317081" x1="32.251034" y2="90.238609" x2="32.251034" gradientUnits="userSpaceOnUse"/>
<linearGradient gradientTransform="matrix(1.0238095,0,0,1.0119048,-1.1428571,-98.071429)" id="linearGradient3725" xlink:href="#ButtonShadow-0" y1="6.1317081" x1="32.251034" y2="90.238609" x2="32.251034" gradientUnits="userSpaceOnUse"/>
<linearGradient gradientTransform="matrix(1.0238095,0,0,1.0119048,-1.1428571,-98.071429)" id="linearGradient3772" xlink:href="#ButtonShadow-0" y1="6.1317081" x1="32.251034" y2="90.238609" x2="32.251034" gradientUnits="userSpaceOnUse"/>
<linearGradient gradientTransform="translate(0,-97)" id="linearGradient3721" xlink:href="#ButtonShadow-0" y1="6.1317081" x1="32.251034" y2="90.238609" x2="32.251034" gradientUnits="userSpaceOnUse"/>
</defs>
<g style="display:none" id="layer2">
<rect width="86" x="5" y="7" rx="6" height="85" ry="6" style="opacity:.9;fill:url(#ButtonShadow);filter:url(#filter3174);stroke:none" id="rect3745"/>
</g>
<g style="stroke:none" id="layer6">
<path style="opacity:.08;fill:url(#linearGradient3760)" id="path3786-3" d="m 12,-95.0312 c -5.51109,0 -10.0312,4.52016 -10.0312,10.0312 v 71 c 0,5.51109 4.52016,10.0312 10.0312,10.0312 h 72 c 5.51109,0 10.0312,-4.52016 10.0312,-10.0312 v -71 c 0,-5.51109 -4.52016,-10.0312 -10.0312,-10.0312 h -72 z " transform="scale(1,-1)"/>
<path style="opacity:.1;fill:url(#linearGradient3780)" id="path3778" d="m 12,-94.0312 c -4.97163,0 -9.03125,4.05962 -9.03125,9.03125 v 71 c 0,4.97163 4.05962,9.03125 9.03125,9.03125 h 72 c 4.97163,0 9.03125,-4.05962 9.03125,-9.03125 v -71 c 0,-4.97163 -4.05962,-9.03125 -9.03125,-9.03125 h -72 z " transform="scale(1,-1)"/>
<path style="opacity:.2;fill:url(#linearGradient3772)" id="path3770" d="m 12,-93 c -4.40913,0 -8,3.59087 -8,8 v 71 c 0,4.40913 3.59087,8 8,8 h 72 c 4.40913,0 8,-3.59087 8,-8 v -71 c 0,-4.40913 -3.59087,-8 -8,-8 h -72 z " transform="scale(1,-1)"/>
<rect width="86" x="5" y="-92" rx="7" height="85" ry="7" style="opacity:.3;fill:url(#linearGradient3725)" id="rect3723" transform="scale(1,-1)"/>
<rect width="84" x="6" y="-91" rx="6" height="84" ry="6" style="opacity:.45;fill:url(#linearGradient3721)" id="rect3716" transform="scale(1,-1)"/>
</g>
<g id="layer1">
<rect width="84" x="6" y="6" rx="6" height="84" ry="6" style="fill:url(#linearGradient3706);stroke:none" id="rect2419"/>
</g>
<g id="layer7">
<rect width="66" x="15" y="15" rx="12" height="66" ry="12" style="opacity:.5;fill:url(#linearGradient3914);filter:url(#filter3794);stroke:#fff;stroke-linecap:round;stroke-width:.5;clip-path:url(#clipPath3613)" id="rect3171"/>
</g>
<g style="stroke:none">
<rect width="84" x="222.08403" y="38.672268" rx="6" ry="6" height="84" style="fill:#f0f" id="rect3800" transform="scale(1,-1)"/>
<path style="opacity:.7;fill:url(#linearGradient3429)" id="path3726" d="m -91.9877,-118.2353 -.6875,1.2188 1.8125,2.4062 1.5938,1.3125 .6562,.3125 -1.1562,2.8125 -.7188,-.25 -2,-.2188 -3,.4062 -.5312,1.9062 2.4062,1.8438 1.8438,.8438 .75,.125 -.4062,3.0312 -.75,-.0937 -2,.3438 -2.8125,1.1875 0,1.9375 2.8125,1.1875 2,.3125 .75,-.0625 .4062,3.0312 -.75,.125 -1.8438,.8438 -2.4062,1.8438 .5312,1.875 3,.4375 2,-.2188 .7188,-.25 1.1562,2.8125 -.6562,.3125 -1.5938,1.2812 -1.8125,2.4062 .9688,1.7188 3,-.375 1.9062,-.75 .625,-.4062 1.8438,2.4062 -.5938,.5 -1.1562,1.6562 -1.1562,2.7812 1.375,1.375 2.8125,-1.125 1.6562,-1.1875 .4688,-.5938 2.4062,1.8438 -.4062,.6562 -.7188,1.875 -.4062,3 1.7188,1 2.4062,-1.8438 1.2812,-1.5625 .3125,-.6875 2.8125,1.1562 -.25,.7188 -.1875,2.0312 .4062,3 1.875,.5 1.8438,-2.4062 .8438,-1.8438 .125,-.75 3.0312,.4062 -.0625,.75 .3438,2 1.1562,2.8125 1.9688,0 1.1562,-2.8125 .3438,-2 -.0625,-.75 3,-.4062 .125,.75 .8438,1.8438 1.875,2.4062 1.875,-.5 .4062,-3 -.1875,-2.0312 -.25,-.7188 2.7812,-1.1562 .3438,.6875 1.2812,1.5625 2.4062,1.8438 1.7188,-1 -.4062,-3 -.7188,-1.875 -.4375,-.6562 2.0625,-1.5938 0,-6.6562 c -1.54348,1.78596 -3.33037,3.3575 -5.3125,4.65625 l -5.4688,-10.5938 c 3.07178,-2.43902 5.07481,-6.19395 5.125,-10.4062 l 5.6562,-1.0312 v -5.21875 l -6.5938,1.1875 c -1.44258,-3.69016 -4.44976,-6.59676 -8.21875,-7.875 l .7188,-5.375 h -5.21875 l -.625,4.6875 c -4.1828,0.24157 -7.8515,2.39244 -10.1562,5.59375 l -10.8438,-4.9688 c 1.15446,-1.95506 2.56895,-3.74051 4.1875,-5.3125 h -6.34375 l -.8125,1.0625 -.625,-.4375 -1.6562,-.625 h -3.53125 z  m -18.0313,9.4688 -.9375,2.0625 -.0625,.75 .1875,1.25 -2.2188,.5938 -.4688,-1.1875 -.4375,-.5938 -1.8438,-1.3125 -1.0625,.625 .25,2.25 .3125,.6875 .7812,.9688 -1.625,1.625 -1,-.7812 -.6562,-.2812 -2.25,-.2188 -.625,1.0625 1.3125,1.8437 .625,.4062 1.1562,.4688 -.5625,2.2188 -1.25,-.1875 -.75,.0938 -2.0625,.9375 0,1.2188 2.0625,.9375 .75,.0625 1.25,-.1875 .5938,2.2188 -1.1562,.4688 -.625,.4375 -1.3125,1.8438 .625,1.0625 2.25,-.25 .6875,-.3125 .9688,-.7812 1.625,1.625 -.7812,1 -.2812,.6562 -.2188,2.25 1.0625,.625 1.8438,-1.3438 .4062,-.5938 .4688,-1.1562 2.2188,.5625 -.1875,1.25 .0937,.75 .9375,2.0625 1.2188,0 .9375,-2.0625 .0625,-.75 -.1875,-1.25 2.2188,-.5938 .4688,1.1562 .4375,.625 1.8438,1.3125 1.0625,-.625 -.25,-2.25 -.2812,-.6875 -.8125,-.9688 1.625,-1.625 1,.7812 .6563,.2812 2.2812,.2188 .5938,-1.0625 -1.3125,-1.8438 -.625,-.4062 -1.1563,-.4688 .5938,-2.2188 1.25,.1875 .7188,-.0938 2.0625,-.9375 0,-1.2188 -2.0625,-.9375 -.75,-.0625 -1.25,.1875 -.5938,-2.2188 1.1875,-.4688 .5938,-.4375 1.3125,-1.8437 -.625,-1.0625 -2.25,.25 -.6875,.2812 -.9688,.8125 -1.625,-1.625 .7812,-1 .2812,-.6562 .2188,-2.2812 -1.0625,-.5938 -1.8438,1.3125 -.4062,.625 -.4688,1.1562 -2.2188,-.5938 .1875,-1.25 -.0937,-.7188 -.9375,-2.0625 -1.2188,0 z  m 24.6563,.5312 10.8438,4.9688 c -0.24709,1.02023 -0.375,2.09166 -0.375,3.1875 0,2.96838 0.935072,5.70947 2.5625,7.9375 l -8.0938,8.75 c -3.9128,-4.45235 -6.28125,-10.299 -6.28125,-16.6875 0,-2.85428 0.470501,-5.59565 1.34375,-8.15625 z  m 16.8438,19.5937 c 2.06567,1.28668 4.48261,2.03125 7.09375,2.03125 1.31687,0 2.60913,-0.178741 3.8125,-0.53125 l 5.4688,10.5938 c -2.86787,1.12959 -6.01306,1.75 -9.28125,1.75 -5.7169,0 -10.9796,-1.89277 -15.2188,-5.09375 l 8.125,-8.75 z  m -39.25,7.6562 -1.0625,2.5312 -.2812,1.8125 .0312,.6875 -2.7188,.3438 -.125,-.6562 -.75,-1.6875 -1.6562,-2.1562 -1.7188,.4375 -.375,2.7188 .1562,1.8125 .25,.6875 -2.5312,1.0312 -.2812,-.5938 -1.1875,-1.4375 -2.1562,-1.6562 -1.5312,.875 .3438,2.6875 .625,1.75 .4062,.5625 -2.1875,1.6562 -.4375,-.5 -1.3125,-.9688 0,10.3125 c 4.00016,-6.50932 11.1793,-10.875 19.375,-10.875 12.5493,0 22.7188,10.2007 22.7188,22.75 0,5.57669 -2.00771,10.6686 -5.34375,14.625 h 10.375 l -1.1562,-1.5 -1.4062,-1.1562 -.625,-.3125 1.0625,-2.5625 .625,.25 1.8438,.1875 2.6875,-.375 .4688,-1.6875 -2.1562,-1.6875 -1.6875,-.75 -.6875,-.125 .375,-2.7188 .6875,.0625 1.8125,-.3125 2.5,-1.0625 v -1.75 l -2.5,-1.0625 -1.8125,-.3125 -.6875,.0625 -.375,-2.7188 .6875,-.125 1.6875,-.75 2.1562,-1.6875 -.4688,-1.6875 -2.6875,-.375 -1.8438,.1562 -.625,.25 -1.0625,-2.5625 .625,-.25 1.4062,-1.1875 1.6562,-2.1875 -.875,-1.5312 -2.7188,.375 -1.7188,.625 -.5625,.4062 -1.6875,-2.1875 .5312,-.4375 1.0625,-1.5 1.0312,-2.5312 -1.2188,-1.25 -2.5625,1.0312 -1.4688,1.0938 -.4375,.5 -2.1875,-1.6562 .375,-.5625 .6562,-1.75 .3438,-2.6875 -1.5312,-.875 -2.1562,1.6562 -1.1562,1.4375 -.3125,.5938 -2.5312,-1.0312 .2188,-.6875 .1875,-1.8125 -.3438,-2.7188 -1.7188,-.4375 -1.6875,2.1562 -.75,1.6875 -.125,.6562 -2.7188,-.3438 .0625,-.6875 -.3125,-1.8125 -1.0312,-2.5312 h -1.78125 z "/>
<path style="opacity:.7;fill:url(#linearGradient3426)" id="path3782-4" d="m 285.959,-140.0785 -1.1562,2.7812 -.3438,2.0312 .0625,.75 -3.0312,.4062 -.125,-.75 -.8438,-1.875 -1.8438,-2.375 -1.875,.5 -.4062,3 .1875,2.0312 .25,.7188 -2.8125,1.1562 -.3125,-.6875 -1.2812,-1.5938 -2.4062,-1.8125 -1.7188,.9688 .4062,3 .7188,1.9062 .4062,.625 -2.4062,1.8438 -.4688,-.5625 -1.6562,-1.1875 -2.8125,-1.1562 -1.375,1.375 1.1562,2.8125 1.1562,1.6562 .5938,.5 -1.8438,2.4062 -.625,-.4375 -1.9062,-.7188 -3,-.375 -.9688,1.6875 1.8125,2.4062 1.5938,1.3125 .6562,.3125 -1.1562,2.8125 -.7188,-.25 -2,-.2188 -3,.4062 -.5312,1.9062 2.4062,1.8438 1.8438,.8438 .75,.125 -.4062,3.0312 -.75,-.0937 -2,.3438 -2.8125,1.1875 0,1.9375 2.8125,1.1875 2,.3125 .75,-.0625 .4062,3.0313 -.75,.125 -1.8438,.8438 -2.4062,1.8438 .5312,1.875 3,.4375 2,-.2188 .7188,-.25 1.1562,2.8125 -.6562,.3125 -1.5938,1.2812 -1.8125,2.4062 .9688,1.7188 3,-.375 1.9062,-.75 .625,-.4062 1.8438,2.4062 -.5938,.5 -1.1562,1.6562 -1.1562,2.7812 1.375,1.375 2.8125,-1.125 1.6562,-1.1875 .4688,-.5938 2.4062,1.8438 -.4062,.6562 -.7188,1.875 -.4062,3 1.7188,1 2.4062,-1.8438 1.2812,-1.5625 .3125,-.6875 2.8125,1.1562 -.25,.7188 -.1875,2.0312 .4062,3 1.875,.5 1.8438,-2.4062 .8438,-1.8438 .125,-.75 3.0312,.4062 -.0625,.75 .3438,2 1.1562,2.8125 1.9688,0 1.1562,-2.8125 .3438,-2 -.0625,-.75 3,-.4062 .125,.75 .8438,1.8438 1.875,2.4062 1.875,-.5 .4062,-3 -.1875,-2.0312 -.25,-.7188 2.7812,-1.1562 .3438,.6875 1.2812,1.5625 2.4062,1.8438 1.7188,-1 -.4062,-3 -.7188,-1.875 -.4375,-.6562 2.4062,-1.8438 .5,.5938 1.6562,1.1875 2.8125,1.125 1.375,-1.375 -1.1562,-2.7812 -1.1875,-1.6562 -.5625,-.5 1.8438,-2.4062 .625,.4062 1.9062,.75 3,.375 .9688,-1.7188 -1.8125,-2.4062 -1.5938,-1.2812 -.6875,-.3125 1.1875,-2.8125 .6875,.25 2.0312,.2188 3,-.4375 .5312,-1.875 -2.4062,-1.8438 -1.875,-.8438 -.7188,-.125 .375,-3.0313 .7812,.0625 2,-.3125 2.7812,-1.1875 0,-1.9375 -2.7812,-1.1875 -2,-.3438 -.7812,.0937 -.375,-3.0312 .7188,-.125 1.875,-.8438 2.4062,-1.8438 -.5312,-1.9062 -3,-.4062 -2.0312,.2188 -.6875,.25 -1.1875,-2.8125 .6875,-.3125 1.5938,-1.3125 1.8125,-2.4062 -.9688,-1.6875 -3,.375 -1.9062,.7188 -.625,.4375 -1.8438,-2.4062 .5625,-.5 1.1875,-1.6562 1.1562,-2.8125 -1.375,-1.375 -2.8125,1.1562 -1.6562,1.1875 -.5,.5625 -2.4062,-1.8438 .4375,-.625 .7188,-1.9062 .4062,-3 -1.7188,-.9688 -2.4062,1.8125 -1.2812,1.5938 -.3438,.6875 -2.7812,-1.1562 .25,-.7188 .1875,-2.0312 -.4062,-3 -1.875,-.5 -1.875,2.375 -.8438,1.875 -.125,.75 -3,-.4062 .0625,-.75 -.3438,-2.0312 -1.1562,-2.7812 -1.9688,0 z  m .9688,10.25 c 0.26989,0 0.54465,0.0229 0.8125,0.0312 l -1.5938,11.8125 c -4.1828,0.24157 -7.8515,2.39244 -10.1562,5.59375 l -10.8438,-4.9688 c 4.40392,-7.45797 12.502,-12.4688 21.7812,-12.4688 z  m 5.9375,.7188 c 8.82984,2.12558 15.8668,8.88631 18.375,17.5625 l -11.75,2.125 c -1.44258,-3.69015 -4.44976,-6.59676 -8.21875,-7.875 l 1.5938,-11.8125 z  m -54.5312,15.9062 -.9375,2.0625 -.0625,.75 .1875,1.25 -2.2188,.5938 -.4688,-1.1875 -.4375,-.5938 -1.8438,-1.3125 -1.0625,.625 .25,2.25 .3125,.6875 .7812,.9688 -1.625,1.625 -1,-.7812 -.6562,-.2812 -2.25,-.2188 -.625,1.0625 1.3125,1.8438 .625,.4062 1.1562,.4688 -.5625,2.2188 -1.25,-.1875 -.75,.0937 -2.0625,.9375 0,1.2188 2.0625,.9375 .75,.0625 1.25,-.1875 .5938,2.2188 -1.1562,.4688 -.625,.4375 -1.3125,1.8438 .625,1.0625 2.25,-.25 .6875,-.3125 .9688,-.7812 1.625,1.625 -.7812,1 -.2812,.6562 -.2188,2.25 1.0625,.625 1.8438,-1.3438 .4062,-.5938 .4688,-1.1562 2.2188,.5625 -.1875,1.25 .0937,.75 .9375,2.0625 1.2188,0 .9375,-2.0625 .0625,-.75 -.1875,-1.25 2.2188,-.5938 .4688,1.1562 .4375,.625 1.8438,1.3125 1.0625,-.625 -.25,-2.25 -.2812,-.6875 -.8125,-.9688 1.625,-1.625 1,.7812 .6562,.2812 2.2812,.2188 .5938,-1.0625 -1.3125,-1.8438 -.625,-.4062 -1.1562,-.4688 .5938,-2.2188 1.25,.1875 .7188,-.0938 2.0625,-.9375 0,-1.2188 -2.0625,-.9375 -.75,-.0625 -1.25,.1875 -.5938,-2.2188 1.1875,-.4688 .5938,-.4375 1.3125,-1.8438 -.625,-1.0625 -2.25,.25 -.6875,.2812 -.9688,.8125 -1.625,-1.625 .7812,-1 .2812,-.6562 .2188,-2.2812 -1.0625,-.5938 -1.8438,1.3125 -.4062,.625 -.4688,1.1562 -2.2188,-.5938 .1875,-1.25 -.0937,-.7188 -.9375,-2.0625 -1.2188,0 z  m 24.6562,.5312 10.8438,4.9688 c -0.24709,1.02024 -0.375,2.09167 -0.375,3.1875 0,2.96839 0.93507,5.70948 2.5625,7.9375 l -8.0938,8.75 c -3.9128,-4.45235 -6.28125,-10.299 -6.28125,-16.6875 0,-2.85427 0.4705,-5.59565 1.34375,-8.15625 z  m 23.9688,1 c 3.97835,0 7.1875,3.20915 7.1875,7.1875 0,3.97835 -3.20915,7.21875 -7.1875,7.21875 -3.97835,0 -7.21875,-3.2404 -7.21875,-7.21875 0,-3.97835 3.2404,-7.1875 7.21875,-7.1875 z  m 25.1875,5.1875 c 0.0499,0.64866 0.0937,1.3074 0.0937,1.96875 0,8.85555 -4.57389,16.6385 -11.4688,21.1563 l -5.4688,-10.5938 c 3.07179,-2.43902 5.07481,-6.19394 5.125,-10.4063 l 11.7188,-2.125 z  m -73.0625,3.4688 c 1.97228,0 3.5625,1.59022 3.5625,3.5625 0,1.97228 -1.59022,3.59375 -3.5625,3.59375 -1.97228,0 -3.5625,-1.62147 -3.5625,-3.59375 0,-1.97228 1.59022,-3.5625 3.5625,-3.5625 z  m 40.75,9.9375 c 2.06567,1.28668 4.48261,2.03125 7.09375,2.03125 1.31687,0 2.60913,-0.178741 3.8125,-0.53125 l 5.4688,10.5938 c -2.86787,1.12959 -6.01306,1.75 -9.28125,1.75 -5.7169,0 -10.9796,-1.89277 -15.2188,-5.09375 l 8.125,-8.75 z  m -39.25,7.6562 -1.0625,2.5312 -.2812,1.8125 .0312,.6875 -2.7188,.3438 -.125,-.6562 -.75,-1.6875 -1.6562,-2.1562 -1.7188,.4375 -.375,2.7188 .1562,1.8125 .25,.6875 -2.5312,1.0312 -.2812,-.5938 -1.1875,-1.4375 -2.1562,-1.6562 -1.5312,.875 .3438,2.6875 .625,1.75 .4062,.5625 -2.1875,1.6562 -.4375,-.5 -1.5,-1.0938 -2.5312,-1.0312 -1.25,1.25 1.0312,2.5312 1.0938,1.5 .5,.4375 -1.6562,2.1875 -.5625,-.4062 -1.7188,-.625 -2.7188,-.375 -.875,1.5312 1.6562,2.1875 1.4375,1.1875 .5938,.25 -1.0312,2.5625 -.6562,-.25 -1.8438,-.1562 -2.7188,.375 -.4375,1.6875 2.1562,1.6875 1.6875,.75 .6562,.125 -.3438,2.7188 -.6875,-.0625 -1.8125,.3125 -2.5312,1.0625 0,1.75 2.5312,1.0625 1.8125,.3125 .6875,-.0625 .3438,2.7188 -.6562,.125 -1.6875,.75 -2.1562,1.6875 .4375,1.6875 2.7188,.375 1.8438,-.1875 .6562,-.25 1.0312,2.5625 -.5938,.3125 -1.4375,1.1562 -1.6562,2.1562 .875,1.5312 2.7188,-.3438 1.7188,-.6562 .5625,-.375 1.6562,2.1562 -.5,.4375 -1.0938,1.5 -1.0312,2.5625 1.25,1.2188 2.5312,-1.0312 1.5,-1.0625 .4375,-.5312 2.1875,1.6875 -.4062,.5625 -.625,1.7188 -.3438,2.7188 1.5312,.875 2.1562,-1.6562 1.1875,-1.4062 .2812,-.625 2.5312,1.0625 -.25,.625 -.1562,1.8438 .375,2.6875 1.7188,.4688 1.6562,-2.1875 .75,-1.6562 .125,-.6875 2.7188,.375 -.0312,.6875 .2812,1.8125 1.0625,2.5 1.7812,0 1.0312,-2.5 .3125,-1.8125 -.0625,-.6875 2.7188,-.375 .125,.6875 .75,1.6562 1.6875,2.1875 1.7188,-.4688 .3438,-2.6875 -.1875,-1.8438 -.2188,-.625 2.5312,-1.0625 .3125,.625 1.1562,1.4062 2.1562,1.6562 1.5312,-.875 -.3438,-2.7188 -.6562,-1.7188 -.375,-.5625 2.1875,-1.6875 .4375,.5312 1.4688,1.0625 2.5625,1.0312 1.2188,-1.2188 -1.0312,-2.5625 -1.0625,-1.5 -.5312,-.4375 1.6875,-2.1562 .5625,.375 1.7188,.6562 2.7188,.3438 .875,-1.5312 -1.6562,-2.1562 -1.4062,-1.1562 -.625,-.3125 1.0625,-2.5625 .625,.25 1.8438,.1875 2.6875,-.375 .4688,-1.6875 -2.1562,-1.6875 -1.6875,-.75 -.6875,-.125 .375,-2.7188 .6875,.0625 1.8125,-.3125 2.5,-1.0625 0,-1.75 -2.5,-1.0625 -1.8125,-.3125 -.6875,.0625 -.375,-2.7188 .6875,-.125 1.6875,-.75 2.1562,-1.6875 -.4688,-1.6875 -2.6875,-.375 -1.8438,.1562 -.625,.25 -1.0625,-2.5625 .625,-.25 1.4062,-1.1875 1.6562,-2.1875 -.875,-1.5312 -2.7188,.375 -1.7188,.625 -.5625,.4062 -1.6875,-2.1875 .5312,-.4375 1.0625,-1.5 1.0312,-2.5312 -1.2188,-1.25 -2.5625,1.0312 -1.4688,1.0938 -.4375,.5 -2.1875,-1.6562 .375,-.5625 .6562,-1.75 .3438,-2.6875 -1.5312,-.875 -2.1562,1.6562 -1.1562,1.4375 -.3125,.5938 -2.5312,-1.0312 .2188,-.6875 .1875,-1.8125 -.3438,-2.7188 -1.7188,-.4375 -1.6875,2.1562 -.75,1.6875 -.125,.6562 -2.7188,-.3438 .0625,-.6875 -.3125,-1.8125 -1.0312,-2.5312 -1.7812,0 z  m .875,9.375 c 12.5493,0 22.7188,10.2007 22.7188,22.75 0,12.5493 -10.1694,22.7188 -22.7188,22.7188 -12.5493,0 -22.75,-10.1694 -22.75,-22.7188 0,-12.5493 10.2007,-22.75 22.75,-22.75 z  m 0,4.0625 c -10.3142,0 -18.6875,8.34206 -18.6875,18.6562 0,10.3142 8.37331,18.6875 18.6875,18.6875 10.3142,0 18.6875,-8.37331 18.6875,-18.6875 0,-10.3142 -8.37331,-18.6562 -18.6875,-18.6562 z  m 0,4.0312 c 8.08247,0 14.625,6.54253 14.625,14.625 0,8.08247 -6.54253,14.6562 -14.625,14.6562 -8.08247,0 -14.625,-6.57378 -14.625,-14.6562 0,-8.08247 6.54253,-14.625 14.625,-14.625 z "/>
<path style="opacity:.7;fill:url(#linearGradient3423)" id="path3874" d="m -210.6095,-20.6218 -.6875,1.2188 1.8125,2.4062 1.5938,1.3125 .6562,.3125 -1.1562,2.8125 -.7188,-.25 -2,-.2188 -3,.4062 -.5312,1.9062 2.4062,1.8437 1.8438,.8438 .75,.125 -.4062,3.0312 -.75,-.0938 -2,.3438 -2.8125,1.1875 0,1.9375 2.8125,1.1875 2,.3125 .75,-.0625 .4062,3.0312 -.75,.125 -1.8438,.8438 -2.4062,1.8438 .5312,1.875 3,.4375 2,-.2188 .7188,-.25 1.1562,2.8125 -.6562,.3125 -1.5938,1.2812 -1.8125,2.4062 .9688,1.7188 3,-.375 1.9062,-.75 .625,-.4062 1.8438,2.4062 -.5938,.5 -1.1562,1.6562 -1.1562,2.7812 1.375,1.375 2.8125,-1.125 1.6562,-1.1875 .4688,-.5938 2.4062,1.8438 -.4062,.6562 -.7188,1.875 -.4062,3 1.7188,1 2.4062,-1.8438 1.2812,-1.5625 .3125,-.6875 2.8125,1.1562 -.25,.7188 -.1875,2.0312 .4062,3 1.875,.5 1.8438,-2.4062 .8438,-1.8438 .125,-.75 3.0312,.4062 -.0625,.75 .3438,2 1.1562,2.8125 1.9688,0 1.1562,-2.8125 .3438,-2 -.0625,-.75 3,-.4062 .125,.75 .8438,1.8438 1.875,2.4062 1.875,-.5 .4062,-3 -.1875,-2.0312 -.25,-.7188 2.7812,-1.1562 .3438,.6875 1.2812,1.5625 2.4062,1.8438 1.7188,-1 -.4062,-3 -.7188,-1.875 -.4375,-.6562 2.0625,-1.5938 0,-6.6562 c -1.54497,1.78637 -3.33037,3.3575 -5.3125,4.65625 l -5.4688,-10.5938 c 3.07179,-2.43902 5.07481,-6.19395 5.125,-10.4062 l 5.6562,-1.0312 v -5.21875 l -6.5938,1.1875 c -1.44258,-3.69015 -4.44976,-6.59676 -8.21875,-7.875 l .7188,-5.375 h -5.21875 l -.625,4.6875 c -4.1828,0.241572 -7.8515,2.39244 -10.1562,5.59375 l -10.8438,-4.9688 c 1.15446,-1.95506 2.57059,-3.73996 4.1875,-5.3125 h -6.34375 l -.8125,1.0625 -.625,-.4375 -1.6562,-.625 h -3.53125 z  m -18.0312,9.4688 -.9375,2.0625 -.0625,.75 .1875,1.25 -2.2188,.5938 -.4688,-1.1875 -.4375,-.5938 -1.8438,-1.3125 -1.0625,.625 .25,2.25 .3125,.6875 .7812,.9688 -1.625,1.625 -1,-.7812 -.6562,-.2812 -2.25,-.2188 -.625,1.0625 1.3125,1.8438 .625,.4062 1.1562,.4688 -.5625,2.2187 -1.25,-.1875 -.75,.0938 -2.0625,.9375 0,1.2188 2.0625,.9375 .75,.0625 1.25,-.1875 .5938,2.2188 -1.1562,.4688 -.625,.4375 -1.3125,1.8438 .625,1.0625 2.25,-.25 .6875,-.3125 .9688,-.7812 1.625,1.625 -.7812,1 -.2812,.6562 -.2188,2.25 1.0625,.625 1.8438,-1.3438 .4062,-.5938 .4688,-1.1562 2.2188,.5625 -.1875,1.25 .0937,.75 .9375,2.0625 1.2188,0 .9375,-2.0625 .0625,-.75 -.1875,-1.25 2.2188,-.5938 .4688,1.1562 .4375,.625 1.8438,1.3125 1.0625,-.625 -.25,-2.25 -.2812,-.6875 -.8125,-.9688 1.625,-1.625 1,.7812 .6562,.2812 2.2812,.2188 .5938,-1.0625 -1.3125,-1.8438 -.625,-.4062 -1.1562,-.4688 .5938,-2.2188 1.25,.1875 .7188,-.0938 2.0625,-.9375 0,-1.2188 -2.0625,-.9375 -.75,-.0625 -1.25,.1875 -.5938,-2.2187 1.1875,-.4688 .5938,-.4375 1.3125,-1.8438 -.625,-1.0625 -2.25,.25 -.6875,.2812 -.9688,.8125 -1.625,-1.625 .7812,-1 .2812,-.6562 .2188,-2.2812 -1.0625,-.5938 -1.8438,1.3125 -.4062,.625 -.4688,1.1562 -2.2188,-.5938 .1875,-1.25 -.0937,-.7188 -.9375,-2.0625 -1.2188,0 z  m 24.6562,.5312 10.8438,4.9687 c -0.24709,1.02023 -0.375,2.09166 -0.375,3.1875 0,2.96838 0.93507,5.70948 2.5625,7.9375 l -8.0938,8.75 c -3.9128,-4.45235 -6.28125,-10.299 -6.28125,-16.6875 0,-2.85427 0.4705,-5.59565 1.34375,-8.15625 z  m 23.9688,1 c 3.97835,0 7.1875,3.20915 7.1875,7.1875 0,3.97835 -3.20915,7.21875 -7.1875,7.21875 -3.97835,0 -7.21875,-3.2404 -7.21875,-7.21875 0,-3.97835 3.2404,-7.1875 7.21875,-7.1875 z  m -47.875,8.6563 c 1.97228,0 3.5625,1.59022 3.5625,3.5625 0,1.97228 -1.59022,3.59375 -3.5625,3.59375 -1.97228,0 -3.5625,-1.62147 -3.5625,-3.59375 0,-1.97228 1.59022,-3.5625 3.5625,-3.5625 z  m 40.75,9.9375 c 2.06567,1.28668 4.48261,2.03125 7.09375,2.03125 1.31687,0 2.60913,-0.178741 3.8125,-0.53125 l 5.4688,10.5938 c -2.86787,1.12959 -6.01306,1.75 -9.28125,1.75 -5.7169,0 -10.9796,-1.89277 -15.2188,-5.09375 l 8.125,-8.75 z  m -39.25,7.6563 -1.0625,2.5312 -.2812,1.8125 .0312,.6875 -2.7188,.3438 -.125,-.6562 -.75,-1.6875 -1.6562,-2.1562 -1.7188,.4375 -.375,2.7188 .1562,1.8125 .25,.6875 -2.5312,1.0312 -.2812,-.5938 -1.1875,-1.4375 -2.1562,-1.6562 -1.5312,.875 .3438,2.6875 .625,1.75 .4062,.5625 -2.1875,1.6562 -.4375,-.5 -1.3125,-.9688 0,10.3125 c 4.00526,-6.51351 11.1799,-10.875 19.375,-10.875 12.5493,0 22.7188,10.2007 22.7188,22.75 0,5.57669 -2.01091,10.6718 -5.34375,14.625 h 10.375 l -1.1562,-1.5 -1.4062,-1.1562 -.625,-.3125 1.0625,-2.5625 .625,.25 1.8438,.1875 2.6875,-.375 .4688,-1.6875 -2.1562,-1.6875 -1.6875,-.75 -.6875,-.125 .375,-2.7188 .6875,.0625 1.8125,-.3125 2.5,-1.0625 v -1.75 l -2.5,-1.0625 -1.8125,-.3125 -.6875,.0625 -.375,-2.7188 .6875,-.125 1.6875,-.75 2.1562,-1.6875 -.4688,-1.6875 -2.6875,-.375 -1.8438,.1562 -.625,.25 -1.0625,-2.5625 .625,-.25 1.4062,-1.1875 1.6562,-2.1875 -.875,-1.5312 -2.7188,.375 -1.7188,.625 -.5625,.4062 -1.6875,-2.1875 .5312,-.4375 1.0625,-1.5 1.0312,-2.5312 -1.2188,-1.25 -2.5625,1.0312 -1.4688,1.0938 -.4375,.5 -2.1875,-1.6562 .375,-.5625 .6562,-1.75 .3438,-2.6875 -1.5312,-.875 -2.1562,1.6562 -1.1562,1.4375 -.3125,.5938 -2.5312,-1.0312 .2188,-.6875 .1875,-1.8125 -.3438,-2.7188 -1.7188,-.4375 -1.6875,2.1562 -.75,1.6875 -.125,.6562 -2.7188,-.3438 .0625,-.6875 -.3125,-1.8125 -1.0312,-2.5312 h -1.78125 z  m .875,13.4375 c -10.3142,0 -18.6875,8.34206 -18.6875,18.6562 0,5.95339 2.81386,11.2331 7.15625,14.6562 h 11.5312 c -8.08247,0 -14.625,-6.57378 -14.625,-14.6562 0,-8.08247 6.54253,-14.625 14.625,-14.625 8.08247,0 14.625,6.54253 14.625,14.625 0,8.08247 -6.54253,14.6562 -14.625,14.6562 h 11.5312 c 4.34239,-3.42315 7.15625,-8.70286 7.15625,-14.6562 0,-10.3142 -8.37331,-18.6562 -18.6875,-18.6562 z "/>
<path style="opacity:.1" id="path3881" d="m -182.7776,.3529 -.6875,1.2188 .3125,.4375 .375,-.6562 3.5312,0 1.6562,.625 .625,.4375 .8125,-1.0625 5.375,0 c 0.31342,-0.339078 0.63801,-0.678332 0.96875,-1 h -6.34375 l -.8125,1.0625 -.625,-.4375 -1.6562,-.625 h -3.53125 z  m 30.4062,0 -.625,4.6875 c -4.1828,0.241572 -7.8515,2.39244 -10.1562,5.59375 l -10.3438,-4.75 c -0.16712,0.260335 -0.34247,0.514471 -0.5,0.78125 l 10.8438,4.9687 c 2.30475,-3.20131 5.97345,-5.35218 10.1562,-5.59375 l .625,-4.6875 h 5.09375 l .125,-1 h -5.21875 z  m 4.625,5.4375 -.125,.9375 c 3.76899,1.27824 6.77617,4.18485 8.21875,7.875 l 6.5938,-1.1875 v -1 l -6.5938,1.1875 c -1.42566,-3.64688 -4.38672,-6.51162 -8.09375,-7.8125 z  m -32,.6562 -.8125,1.9688 -.7188,-.25 -2,-.2188 -3,.4062 -.5312,1.9062 .2188,.1875 .3125,-1.0937 3,-.4062 2,.2188 .7188,.25 1.1562,-2.8125 -.3438,-.1562 z  m -21.0625,3.375 -.9375,2.0625 -.0625,.75 .0625,.3438 0,-.0938 .9375,-2.0625 1.2188,0 .9375,2.0625 .0312,.1875 .0625,-.4688 -.0937,-.7188 -.9375,-2.0625 -1.2188,0 z  m 7,1.5312 -1.8438,1.3125 -.4062,.625 -.4688,1.1562 -2.0625,-.5625 -.1562,.9688 2.2188,.5938 .4688,-1.1562 .4062,-.625 1.8438,-1.3125 .9688,.5312 .0937,-.9375 -1.0625,-.5938 z  m -12.7812,.0312 -1.0625,.625 .0937,.9375 .9688,-.5625 1.8438,1.3125 .4375,.5938 .4688,1.1875 2.2188,-.5938 -.1562,-.9688 -2.0625,.5625 -.4688,-1.1875 -.4375,-.5938 -1.8438,-1.3125 z  m 24.6562,2.6562 -.2812,2.0625 -.75,-.0938 -2,.3438 -2.8125,1.1875 0,1 2.8125,-1.1875 2,-.3438 .75,.0938 .4062,-3.0312 -.125,-.0312 z  m -6.5625,2.125 -2.25,.25 -.6875,.2812 -.9688,.8125 -1.1875,-1.1875 -.4375,.5625 1.625,1.625 .9688,-.8125 .6875,-.2812 2.25,-.25 .3125,.5 .3125,-.4375 -.625,-1.0625 z  m -23.3438,.0938 -.625,1.0625 .3125,.4375 .3125,-.5 2.25,.2188 .6562,.2812 1,.7812 1.625,-1.625 -.4375,-.5625 -1.1875,1.1875 -1,-.7812 -.6562,-.2812 -2.25,-.2188 z  m 46.375,0 c -0.1226,0.734667 -0.21875,1.48215 -0.21875,2.25 0,0.22275 0.0208,0.436181 0.0312,0.65625 0.0241,-0.974815 0.12284,-1.93163 0.34375,-2.84375 l -.1562,-.0625 z  m 6.0938,2.7812 c -0.0111,0.163056 -0.0312,0.334092 -0.0312,0.5 0,3.97835 3.2404,7.21875 7.21875,7.21875 3.97835,0 7.1875,-3.2404 7.1875,-7.21875 0,-0.165908 -0.0203,-0.336944 -0.0312,-0.5 -0.25243,3.74929 -3.34381,6.71875 -7.15625,6.71875 -3.81244,0 -6.93267,-2.96946 -7.1875,-6.71875 z  m -18.0938,.0938 c -0.002,0.125694 -0.0312,0.248859 -0.0312,0.375 0,6.38851 2.36845,12.2351 6.28125,16.6875 l 8.0938,-8.75 c -0.14084,-0.19281 -0.24469,-0.393441 -0.375,-0.59375 l -7.7188,8.3438 c -3.78401,-4.3058 -6.10008,-9.91966 -6.25,-16.0625 z  m -13.25,1.75 -.25,.0938 .5938,2.2188 1.25,-.1875 .75,.0625 2.0625,.9375 0,-1 -2.0625,-.9375 -.75,-.0625 -1.25,.1875 -.3438,-1.3125 z  m -18.875,.0625 -.3438,1.3125 -1.25,-.1875 -.75,.0938 -2.0625,.9375 0,1 2.0625,-.9375 .75,-.0938 1.25,.1875 .5625,-2.2188 -.2188,-.0938 z  m 27.6562,3.0312 -.625,.0938 -1.8438,.8438 -2.4062,1.8438 .2188,.8125 2.1875,-1.6562 1.8438,-.8438 .75,-.125 -.125,-.9688 z  m -21.6562,.0938 c -0.0232,0.164598 -0.0312,0.32886 -0.0312,0.5 0,1.97228 1.59022,3.59375 3.5625,3.59375 1.97228,0 3.5625,-1.62147 3.5625,-3.59375 0,-0.17114 -0.008,-0.335402 -0.0312,-0.5 -0.24372,1.7368 -1.73011,3.09375 -3.53125,3.09375 -1.80114,0 -3.28753,-1.35695 -3.53125,-3.09375 z  m 12.9062,3.3125 -.25,.9062 1.1562,.4688 .625,.4062 1,1.4062 .3125,-.5625 -1.3125,-1.8438 -.625,-.4062 -.9062,-.375 z  m -18.9062,.0625 -.9062,.375 -.625,.4375 -1.3125,1.8438 .3125,.5625 1,-1.4062 .625,-.4375 1.1562,-.4688 -.25,-.9062 z  m 66.0938,2.3125 c -0.11865,0.101033 -0.22167,0.215569 -0.34375,0.3125 l 5.4688,10.5938 c 1.98213,-1.29875 3.76753,-2.86988 5.3125,-4.65625 v -1 c -1.54497,1.78637 -3.33037,3.3575 -5.3125,4.65625 l -5.125,-9.9062 z  m -36.25,1.8125 -.3125,.1562 -1.5938,1.2812 -1.8125,2.4062 .3125,.5625 1.5,-1.9688 1.5938,-1.2812 .6562,-.3125 -.3438,-.8438 z  m -13.7812,.375 -.4688,.4688 .8125,.9688 .2812,.6875 .1562,1.3125 .0937,-.0625 -.25,-2.25 -.2812,-.6875 -.3438,-.4375 z  m -13.1875,.0625 -.3438,.4375 -.2812,.6562 -.2188,2.25 .0937,.0625 .125,-1.3125 .2813,-.6562 .7812,-1 -.4375,-.4375 z  m 5,2.4062 -.0312,.2812 .0625,.5312 .125,-.7812 -.1562,-.0312 z  m 3.1875,0 -.1562,.0312 .125,.9062 .0625,-.6562 -.0312,-.2812 z  m -.0312,3.1875 -1.0625,2.5312 -.2812,1.8125 .0312,.6875 .25,-1.5 1.0625,-2.5312 1.7812,0 1.0312,2.5312 .25,1.4688 .0625,-.6562 -.3125,-1.8125 -1.0312,-2.5312 -1.7812,0 z  m -1.3125,5.0312 -2.7188,.3438 -.125,-.6562 -.75,-1.6875 -1.6562,-2.1562 -1.7188,.4375 -.375,2.7188 .0625,.625 .3125,-2.3438 1.7188,-.4375 1.6562,2.1562 .75,1.6875 .125,.6562 2.7188,-.3438 -.0312,-.6875 .0312,-.3125 z  m 24.2812,-4.2188 -.125,.0938 -1.1562,1.6562 -1.1562,2.7812 .2812,.2812 .875,-2.0625 1.1562,-1.6562 .5938,-.5 -.4688,-.5938 z  m -14.625,.0625 -1.6875,2.1562 -.75,1.6875 -.125,.6562 -2.7188,-.3438 .0625,.3125 -.0625,.6875 2.7188,.3438 .125,-.6562 .75,-1.6875 1.6875,-2.1562 1.7188,.4375 .2812,2.2812 .0625,-.5625 -.3438,-2.7188 -1.7188,-.4375 z  m 23.3438,.625 -.5625,.5938 c 4.23916,3.20098 9.50185,5.09375 15.2188,5.09375 3.26819,0 6.41338,-0.62041 9.28125,-1.75 l -.4375,-.8438 c -2.75101,1.02495 -5.73821,1.59375 -8.84375,1.59375 -5.46607,0 -10.5183,-1.7378 -14.6562,-4.6875 z  m -46.0938,2.375 -1.5312,.875 .125,.9375 1.4062,-.8125 2.1562,1.6562 1.1875,1.4375 .2812,.5938 2.5312,-1.0312 -.25,-.6875 -.0312,-.2188 -2.25,.9375 -.2812,-.5938 -1.1875,-1.4375 -2.1562,-1.6562 z  m 30.5625,0 -2.1562,1.6562 -1.1562,1.4375 -.3125,.5938 -2.2812,-.9375 -.0312,.2188 -.2188,.6875 2.5312,1.0312 .3125,-.5938 1.1562,-1.4375 2.1562,-1.6562 1.4062,.8125 .125,-.9375 -1.5312,-.875 z  m 47.7188,2.4375 -.4375,.3438 .4375,.6562 .7188,1.875 .2812,2.0625 .125,-.0625 -.4062,-3 -.7188,-1.875 z  m -35.0313,.0312 -.7188,1.8438 -.4062,3 .125,.0625 .2812,-2.0625 .7188,-1.875 .4062,-.6562 -.4062,-.3125 z  m -5.875,2.4375 -2.5625,1.0312 -1.4688,1.0938 -.4375,.5 -1.7812,-1.3438 -.0312,.125 -.375,.5625 2.1875,1.6562 .4375,-.5 1.4688,-1.0938 2.5625,-1.0312 .9375,.9688 .2812,-.7188 -1.2188,-1.25 z  m -41.4688,1.1562 0,1 1.3125,.9688 .4375,.5 2.1875,-1.6562 -.4062,-.5625 -.0312,-.0938 -1.75,1.3125 -.4375,-.5 -1.3125,-.9688 z  m 75.25,.1875 -.2812,.125 .25,.7188 .125,1.4375 .0625,-.4062 -.1562,-1.875 z  m -20.7812,.0312 -.1562,1.8438 .0625,.4062 .125,-1.4375 .25,-.7188 -.2812,-.0938 z  m 7.9375,1.75 .0312,.0625 0,-.0625 -.0312,0 z  m 4.875,0 0,.0625 .0312,-.0625 -.0312,0 z  m -47.9062,1.5312 c -10.3142,0 -18.6875,8.34206 -18.6875,18.6562 0,0.212751 0.0241,0.414024 0.0312,0.625 0.20274,-10.1382 8.46909,-18.2812 18.6562,-18.2812 10.1872,0 18.4535,8.14302 18.6562,18.2812 0.007,-0.210976 0.0312,-0.412249 0.0312,-0.625 0,-10.3142 -8.37331,-18.6562 -18.6875,-18.6562 z  m 21.1562,1.6875 -.4688,.375 1.6875,2.1875 .5625,-.4062 1.7188,-.625 2.7188,-.375 .5625,.9688 .3125,-.4375 -.875,-1.5312 -2.7188,.375 -1.7188,.625 -.5625,.4062 -1.2188,-1.5625 z  m 3.75,6.1562 -.3438,.1562 1.0625,2.5625 .625,-.25 1.8438,-.1562 2.6875,.375 .25,.875 .2188,-.1875 -.4688,-1.6875 -2.6875,-.375 -1.8438,.1562 -.625,.25 -.7188,-1.7188 z  m 1.9375,6.9062 -.125,.0312 .375,2.7188 .6875,-.0625 1.8125,.3125 2.5,1.0625 0,-1 -2.5,-1.0625 -1.8125,-.3125 -.6875,.0625 -.25,-1.75 z  m -4.1562,4.3125 c -0.0891,5.42797 -2.05554,10.3868 -5.3125,14.25 h 0.78125 c 2.85707,-3.79717 4.5625,-8.50482 4.5625,-13.625 0,-0.212114 -0.0255,-0.414266 -0.0312,-0.625 z  m -37.2812,.0938 c -0.006,0.167146 -0.0312,0.331469 -0.0312,0.5 0,6.2152 3.88102,11.5284 9.34375,13.6562 h 5.28125 c -7.91394,0 -14.3287,-6.30608 -14.5938,-14.1562 z  m 14.5938,14.1562 5.2812,0 c 5.46273,-2.12783 9.34375,-7.44105 9.34375,-13.6562 0,-0.168531 -0.0256,-0.332854 -0.0312,-0.5 -0.26502,7.85017 -6.67981,14.1562 -14.5938,14.1562 z  m 26.8438,-9.6875 -.125,.9688 .6875,.125 1.6875,.75 1.9375,1.5 .2188,-.8125 -2.1562,-1.6875 -1.6875,-.75 -.5625,-.0938 z  m -1.9375,6.875 -.3438,.8438 .625,.3125 1.4062,1.1562 .375,.5 .7812,0 -1.1562,-1.5 -1.4062,-1.1562 -.2812,-.1562 z "/>
<path style="opacity:.7;fill:#fff" id="path3890" d="m -153.8364,-10.3445 c -1.2188,1.31857 -2.30044,2.75736 -3.21875,4.3125 l .5,.2188 c 1.05762,-1.6475 2.29123,-3.17329 3.6875,-4.53125 h -0.96875 z  m 23.5,0 -.5938,4.375 c 0.0442,0.01499 0.081,0.04706 0.125,0.0625 l .5938,-4.4375 h -0.125 z  m -35.875,.6563 -.3125,.5625 1.8125,2.4062 1.5938,1.3125 .3125,.1562 .3438,-.8438 -.6562,-.3125 -1.5938,-1.3125 -1.5,-1.9688 z  m 7,8.3438 c -0.87325,2.5606 -1.34375,5.30197 -1.34375,8.15625 0,0.210279 0.0262,0.415925 0.0312,0.625 0.0396,-2.71847 0.47784,-5.33381 1.3125,-7.78125 l 10.6875,4.9062 c 0.0524,-0.313813 0.0823,-0.632141 0.15625,-0.9375 l -10.8437,-4.9688 z  m -10.4375,.0938 -.2188,.8125 2.4062,1.8437 1.8438,.8438 .625,.0938 .125,-.9688 -.75,-.125 -1.8438,-.8437 -2.1875,-1.6563 z  m 34.4062,.9063 c -3.97835,0 -7.21875,3.20915 -7.21875,7.1875 0,0.165908 0.0202,0.33684 0.0312,0.5 0.25483,-3.74689 3.37506,-6.6875 7.1875,-6.6875 3.81244,0 6.90382,2.94061 7.15625,6.6875 0.011,-0.16316 0.0312,-0.334092 0.0312,-0.5 0,-3.97835 -3.20915,-7.1875 -7.1875,-7.1875 z  m -40.6562,1.5312 -.125,1.3438 -.2812,.6562 -.7812,1 .4375,.4375 .3438,-.4375 .2812,-.6562 .2188,-2.2812 -.0937,-.0625 z  m -14.7188,.0625 -.0937,.0625 .25,2.25 .3125,.6875 .3438,.4062 .4375,-.4375 -.7813,-.9688 -.3125,-.6875 -.1562,-1.3125 z  m 5.8125,.0312 -.0625,.6562 .0312,.2812 .1562,-.0312 -.125,-.9062 z  m 3.125,.0938 -.125,.7812 .1562,.0312 .0312,-.2812 -.0625,-.5312 z  m 65.5625,4.5625 -5.6562,1.0312 c -0.0502,4.2123 -2.05321,7.96723 -5.125,10.4062 l .3438,.6875 c 2.8668,-2.44123 4.73305,-6.04885 4.78125,-10.0937 l 5.6562,-1.0312 v -1 z  m -55.125,.0312 -1,1.4062 -.5938,.4375 -1.1875,.4688 .25,.9062 .9375,-.375 .5938,-.4375 1.3125,-1.8438 -.3125,-.5625 z  m -23.9688,.0938 -.3125,.5625 1.3125,1.8438 .625,.4062 .9375,.375 .2188,-.9062 -1.1562,-.4688 -.625,-.4062 -1,-1.4062 z  m 46.5,1.4062 c -0.003,0.115547 -0.0312,0.227623 -0.0312,0.34375 0,2.7115 0.81203,5.22937 2.1875,7.34375 l .375,-.4062 c -1.50531,-2.06083 -2.40271,-4.56866 -2.53125,-7.28125 z  m -22.125,.3125 0,1 2.8125,1.1875 2,.3125 .75,-.0625 .2812,2.0625 .125,-.0312 -.4062,-3.0312 -.75,.0625 -2,-.3125 -2.8125,-1.1875 z  m -12.2812,.5312 c -1.97228,0 -3.5625,1.59022 -3.5625,3.5625 0,0.17114 0.008,0.334973 0.0312,0.5 0.24372,-1.73228 1.73011,-3.0625 3.53125,-3.0625 1.80114,0 3.28753,1.33022 3.53125,3.0625 0.0232,-0.165027 0.0312,-0.32886 0.0312,-0.5 0,-1.97228 -1.59022,-3.5625 -3.5625,-3.5625 z  m 13.75,4.2187 -2.0625,.9375 -.7188,.0938 -1.25,-.1875 -.5938,2.2188 .25,.0938 .3438,-1.3125 1.25,.1875 .7188,-.0938 2.0625,-.9375 0,-1 z  m -27.6875,.0938 0,1 2.0625,.9375 .75,.0625 1.25,-.1875 .3438,1.3125 .25,-.0938 -.5938,-2.2188 -1.25,.1875 -.75,-.0625 -2.0625,-.9375 z  m 27.4062,3.25 -.2188,.1875 .5312,1.875 3,.4375 2,-.2188 .7188,-.25 .8125,1.9688 .3438,-.1562 -1.1562,-2.8125 -.7188,.25 -2,.2188 -3,-.4375 -.3125,-1.0625 z  m -5.7812,2.2188 -1.625,1.625 .4688,.5312 1.1562,-1.1562 1,.7812 .6562,.2812 2.2812,.2188 .5938,-1.0625 -.3125,-.4375 -.2812,.5 -2.2812,-.2188 -.6562,-.2812 -1,-.7812 z  m -15.5312,.0312 -.9688,.7812 -.6875,.3125 -2.25,.25 -.3125,-.5 -.3125,.4375 .625,1.0625 2.25,-.25 .6875,-.3125 .9688,-.7812 1.1875,1.1875 .4375,-.5625 -1.625,-1.625 z  m 48.5938,.125 -8.125,8.75 c 0.18599,0.140443 0.37261,0.270893 0.5625,0.40625 l 7.5625,-8.1562 c 2.06567,1.28668 4.48261,2.03125 7.09375,2.03125 1.31687,0 2.60913,-0.178741 3.8125,-0.53125 l 5.0312,9.75 c 0.14408,-0.05368 0.29478,-0.100034 0.4375,-0.15625 l -5.4688,-10.5938 c -1.20337,0.352509 -2.49563,0.53125 -3.8125,0.53125 -2.61114,0 -5.02808,-0.744567 -7.09375,-2.03125 z  m -37.1562,2.9062 -2.2188,.5938 .1562,.9688 2.0625,-.5625 .4688,1.1562 .4375,.625 1.8438,1.3125 1.0625,-.625 -.0937,-.9375 -.9688,.5625 -1.8438,-1.3125 -.4375,-.625 -.4688,-1.1562 z  m -7.3125,.0312 -.4688,1.1562 -.4062,.5938 -1.8438,1.3438 -.9688,-.5625 -.0937,.9375 1.0625,.625 1.8438,-1.3438 .4062,-.5938 .4688,-1.1562 2.0625,.5312 .1562,-.9688 -2.2188,-.5625 z  m 2.0938,2.3438 -.0625,.4688 .0937,.75 .9375,2.0625 1.2188,0 .9375,-2.0625 .0625,-.75 -.0625,-.25 -.9375,2.0625 -1.2188,0 -.9375,-2.0625 -.0312,-.2188 z  m 24.7188,.375 -.625,.4062 -1.9062,.75 -3,.375 -.6562,-1.1562 -.3125,.4375 .9688,1.7188 3,-.375 1.9062,-.75 .625,-.4062 1.375,1.8125 .4688,-.4062 -1.8438,-2.4062 z  m 5.25,5.8125 -.4688,.5938 -1.6562,1.1875 -2.8125,1.125 -1.0938,-1.0938 -.2812,.7188 1.375,1.375 2.8125,-1.125 1.6562,-1.1875 .4688,-.5938 2,1.5312 0,-.0312 .4062,-.6562 -2.4062,-1.8438 z  m 38.6562,.25 -2.0625,1.5938 .4375,.6562 1.625,-1.25 0,-1 z  m -55.1562,.5312 -.125,1.25 -.2188,.6875 .25,.0938 .1562,-1.5938 -.0625,-.4375 z  m -18.9375,.0625 -.0625,.375 .125,1.5938 .2812,-.0938 -.25,-.6875 -.0937,-1.1875 z  m -7.2188,1.0312 -.125,.0625 .3438,2.6875 .5938,1.6562 .4375,-.3438 -.4062,-.5625 -.625,-1.75 -.2188,-1.75 z  m 33.375,0 -.2188,1.75 -.6562,1.75 -.375,.5625 .4062,.3125 .625,-1.625 .3438,-2.6875 -.125,-.0625 z  m 15.875,2.4062 -.3125,.6875 -1.2812,1.5625 -2.4062,1.8438 -1.5938,-.9375 -.125,.9375 1.7188,1 2.4062,-1.8438 1.2812,-1.5625 .3125,-.6875 2.5312,1.0625 .0312,-.1875 .25,-.7188 -2.8125,-1.1562 z  m 25.8125,0 -2.7812,1.1562 .25,.7188 .0312,.1562 2.5,-1.0312 .3438,.6875 1.2812,1.5625 2.4062,1.8438 1.7188,-1 -.125,-.9375 -1.5938,.9375 -2.4062,-1.8438 -1.2812,-1.5625 -.3438,-.6875 z  m -58.375,1.2812 c -8.19513,-1e-06 -15.3697,4.36149 -19.375,10.875 v 1 c 4.00526,-6.51351 11.1799,-10.875 19.375,-10.875 12.3372,0 22.3517,9.86803 22.6875,22.125 0.002,-0.126454 0.0312,-0.248039 0.0312,-0.375 0,-12.5493 -10.1694,-22.75 -22.7188,-22.75 z  m 40.0312,1.125 -.125,.75 -.8438,1.8438 -1.8438,2.4062 -1.875,-.5 -.3438,-2.5938 -.0625,.5938 .4062,3 1.875,.5 1.8438,-2.4062 .8438,-1.8438 .125,-.75 3,.4062 -.0312,-.25 .0625,-.75 -3.0312,-.4062 z  m 10.875,0 -3,.4062 .0625,.75 -.0312,.25 2.9688,-.4062 .125,.75 .8438,1.8438 1.875,2.4062 1.875,-.5 .4062,-3 -.0625,-.5938 -.3438,2.5938 -1.875,.5 -1.875,-2.4062 -.8438,-1.8438 -.125,-.75 z  m -27.875,.25 -.75,1.8125 -1.0625,1.5 -.5312,.4375 .4688,.625 .0625,-.0625 1.0625,-1.5 1.0312,-2.5312 -.2812,-.2812 z  m 20.0312,1.2188 -.0625,.6875 .3438,2 1.1562,2.8125 1.9688,0 1.1562,-2.8125 .3438,-2 -.0625,-.6875 -.2812,1.6875 -1.1562,2.8125 -1.9688,0 -1.1562,-2.8125 -.2812,-1.6875 z  m -15.125,5.2812 -1.3438,1.75 -1.4062,1.1875 -.625,.25 .3438,.8438 .2812,-.0938 1.4062,-1.1875 1.6562,-2.1875 -.3125,-.5625 z  m -27.9375,.2188 c -8.08247,0 -14.625,6.54253 -14.625,14.625 0,0.168531 0.0256,0.332827 0.0312,0.5 0.26502,-7.84893 6.67981,-14.125 14.5938,-14.125 7.91394,0 14.3287,6.27607 14.5938,14.125 0.006,-0.167173 0.0312,-0.331469 0.0312,-0.5 0,-8.08247 -6.54253,-14.625 -14.625,-14.625 z  m 31.0312,7.375 -1.9375,1.5 -1.6875,.75 -.6875,.125 .125,.9688 .5625,-.0938 1.6875,-.75 2.1562,-1.6875 -.2188,-.8125 z  m -49.6875,7.875 c -0.003,0.126416 -0.0312,0.247974 -0.0312,0.375 0,5.403 2.32553,10.2472 6,13.6562 h 1.15625 c -4.18721,-3.30082 -6.93266,-8.3385 -7.125,-14.0312 z  m 37.3125,0 c -0.19234,5.69275 -2.93779,10.7304 -7.125,14.0312 h 1.15625 c 3.67447,-3.40904 6,-8.25325 6,-13.6562 0,-0.127026 -0.0287,-0.248584 -0.0312,-0.375 z  m 13.4375,.2812 -2.5,1.0625 -1.8125,.3125 -.6875,-.0625 -.375,2.7188 .125,.0312 .25,-1.75 .6875,.0625 1.8125,-.3125 2.5,-1.0625 0,-1 z  m -1.0625,7.4062 -.25,.875 -2.6875,.375 -1.8438,-.1875 -.625,-.25 -1.0625,2.5625 .3438,.1562 .7188,-1.7188 .625,.25 1.8438,.1875 2.6875,-.375 .4688,-1.6875 -.2188,-.1875 z "/>
</g>
<g id="layer5">
<path style="opacity:.5;fill:url(#linearGradient3188);stroke:none" id="rect3728" d="m 12,6 c -3.324,0 -6,2.676 -6,6 v 2 68 2 c 0,0.334721 0.04135,0.6507 0.09375,0.96875 0.0487,0.295596 0.09704,0.596915 0.1875,0.875 0.00988,0.03038 0.020892,0.0636 0.03125,0.09375 0.098865,0.287771 0.23488,0.547452 0.375,0.8125 0.144592,0.273507 0.315616,0.535615 0.5,0.78125 0.184384,0.245635 0.373776,0.473472 0.59375,0.6875 0.439947,0.428056 0.94291,0.814526 1.5,1.09375 0.278545,0.139612 0.573473,0.246947 0.875,0.34375 -0.256202,-0.100222 -0.486711,-0.236272 -0.71875,-0.375 -0.00741,-0.0044 -0.023866,0.0045 -0.03125,0 -0.031933,-0.0193 -0.062293,-0.04251 -0.09375,-0.0625 -0.120395,-0.0767 -0.231023,-0.163513 -0.34375,-0.25 -0.106173,-0.0808 -0.213281,-0.161112 -0.3125,-0.25 -0.17793,-0.161433 -0.34746,-0.345388 -0.5,-0.53125 -0.107579,-0.130255 -0.218394,-0.265285 -0.3125,-0.40625 -0.025089,-0.03838 -0.038446,-0.08587 -0.0625,-0.125 -0.064763,-0.103032 -0.130228,-0.204517 -0.1875,-0.3125 -0.101008,-0.194706 -0.205675,-0.415701 -0.28125,-0.625 -0.00796,-0.02181 -0.023589,-0.04055 -0.03125,-0.0625 -0.0318251,-0.09195 -0.0358045,-0.186831 -0.0625,-0.28125 -0.0303323,-0.106618 -0.0703894,-0.203031 -0.09375,-0.3125 -0.0728786,-0.341512 -0.125,-0.698205 -0.125,-1.0625 v -2 -68 -2 c 0,-2.78185 2.21815,-5 5,-5 h 2 68 2 c 2.78185,0 5,2.21815 5,5 v 2 68 2 c 0,0.364295 -0.05212,0.720988 -0.125,1.0625 -0.04415,0.206893 -0.08838,0.397658 -0.15625,0.59375 -0.0077,0.02195 -0.0233,0.04069 -0.03125,0.0625 -0.06274,0.173739 -0.138383,0.367449 -0.21875,0.53125 -0.04158,0.0828 -0.07904,0.169954 -0.125,0.25 -0.0546,0.09721 -0.126774,0.18835 -0.1875,0.28125 -0.09411,0.140965 -0.204921,0.275995 -0.3125,0.40625 -0.143174,0.17445 -0.303141,0.346998 -0.46875,0.5 -0.01117,0.0102 -0.01998,0.02115 -0.03125,0.03125 -0.138386,0.125556 -0.285091,0.234436 -0.4375,0.34375 -0.102571,0.07315 -0.204318,0.153364 -0.3125,0.21875 -0.0074,0.0045 -0.02384,-0.0044 -0.03125,0 -0.232039,0.138728 -0.462548,0.274778 -0.71875,0.375 0.301527,-0.0968 0.596455,-0.204138 0.875,-0.34375 0.55709,-0.279224 1.06005,-0.665694 1.5,-1.09375 0.219973,-0.214028 0.409366,-0.441865 0.59375,-0.6875 0.184384,-0.245635 0.355408,-0.507743 0.5,-0.78125 0.14012,-0.265048 0.276135,-0.524729 0.375,-0.8125 0.01041,-0.03078 0.02133,-0.06274 0.03125,-0.09375 0.09046,-0.278085 0.1388,-0.579404 0.1875,-0.875 0.0524,-0.31805 0.09375,-0.634029 0.09375,-0.96875 v -2 -68 -2 c 0,-3.324 -2.676,-6 -6,-6 h -72 z "/>
</g>
<g id="g3039" transform="matrix(0.16220366,0,0,0.16220366,150.96852,-88.585256)">
<g style="fill-rule:evenodd">
<path style="opacity:.26;filter:url(#filter3573);stroke:none;color:#000" id="path3543" d="m 331.7904,510.9335 c -21.2901,0 -39.7658,-16.1399 -39.7658,-37.411 l -.0191,-21.9923 v -6.58604 h -13.4978 v -36.6513 l 56.9204,.2681 17.8056,.0383 c 21.3093,0 39.7658,16.1207 39.7658,37.4109 v 64.9233 h -61.209 l 0,0 z " transform="matrix(2.5885888,0,0,2.5885888,-60.556632,-548.81593)"/>
<path style="fill:url(#linearGradient3048)" id="path2576" d="m 936.4233,730.1312 c 0,-36.5362 0,-122.725 0,-122.725 0,-41.0009 -35.9563,-74.2372 -80.3206,-74.2372 h -46.0459 v -0.099 l -124.5366,-.5442 v 44.7782 c 0,0 10.1685,0 19.1171,0 13.3442,0 15.7016,9.21173 15.7016,21.9618 l .099,79.1629 c 0,41.0009 35.9564,74.2372 80.2712,74.2372 h 109.413 c 14.0269,0 26.301,-8.88309 26.301,-22.535 z "/>
</g>
<path style="opacity:.175;fill:url(#linearGradient3050);filter:url(#filter3291)" id="path3419" d="m 142.9375,500.5312 c -10.7518,-7.40935 -18.3668,-15.9203 -24.7812,-27.1875 -12.6444,-23.3581 -9.68791,-34.9533 -41,-37.6875 -9.03629,0 -15.0512,-2 -24.5625,-2 v 3.3125 c 1e-06,1e-05 3.75868,1.90749 7.0625,1.90749 4.9267,1e-05 5.78125,3.41765 5.78125,8.125 l .0312,29.155 c -3e-06,15.1376 13.2952,27.4062 29.6562,27.4062 h 40.375 c 2.96358,0 5.62572,-1.16787 7.4375,-3.03125 z " transform="matrix(2.602414,0,0,2.602414,553.58151,-562.09023)"/>
<g style="fill-rule:evenodd;color:#000;stroke:none">
<path style="filter:url(#filter3546);fill-opacity:.08;stroke-width:4.767" id="path2620" d="m 105.5184,438.5401 c -3.83671,0 -7.24574,1.42445 -9.98484,4.1914 -2.73772,2.76548 -4.1752,6.21796 -4.17519,10.1142 v 19.6947 h 8.93296 v -19.6947 c 0,-1.49338 0.48728,-2.66108 1.55355,-3.73818 1.06977,-1.08055 2.2026,-1.56971 3.67352,-1.56971 1.50175,0 2.61758,0.4867 3.68969,1.56971 1.06628,1.0771 1.55356,2.2448 1.55356,3.73818 v 19.6947 h 8.93297 v -19.6947 c 0,-1.49338 0.48728,-2.66108 1.55356,-3.73818 1.07211,-1.08301 2.18794,-1.56971 3.68971,-1.56971 1.47093,0 2.60373,0.48916 3.6735,1.56971 1.06627,1.0771 1.55356,2.2448 1.55356,3.73818 l .0486,23.0122 c 0,4.90894 -4.67486,9.04618 -10.6807,9.04618 l -28.8055,-.1133 c -4.63471,0 -8.59313,-4.51117 -8.59313,-10.3085 v -43.3353 h -8.44746 v 45.0021 c 0,4.77471 1.74718,8.96178 5.14616,12.3476 2.90519,2.8676 6.39907,4.56445 10.3247,4.98427 v 0.16191 h 32.0745 c 4.92872,0 9.25884,-1.83265 12.7521,-5.38904 h 0.0162 c 2.97102,-3.05245 4.70787,-6.70998 5.12997,-10.8262 l -.0324,-24.5819 c 0,-3.89625 -1.43744,-7.34873 -4.17521,-10.1142 -2.73906,-2.76695 -6.14812,-4.1914 -9.98482,-4.1914 -3.76604,0 -7.06133,1.40042 -9.72593,3.96479 -2.65681,-2.56014 -5.92908,-3.96479 -9.69356,-3.96479 z " transform="matrix(2.602414,0,0,2.602414,553.58151,-562.09023)"/>
<path style="fill:#fff" id="path4130" d="m 826.3277,579.7829 c -9.98471,0 -18.8564,3.707 -25.9847,10.9078 -7.12471,7.19691 -10.8656,16.1817 -10.8656,26.3214 v 51.2537 h 23.2473 v -51.2537 c 0,-3.88638 1.26809,-6.92523 4.04296,-9.7283 2.784,-2.81202 5.73209,-4.08503 9.56003,-4.08503 3.90817,0 6.81203,1.26661 9.60211,4.08503 2.77489,2.80307 4.04301,5.84192 4.04301,9.7283 v 51.2537 h 23.2473 v -51.2537 c 0,-3.88638 1.26812,-6.92523 4.04304,-9.7283 2.79005,-2.81842 5.69391,-4.08503 9.60215,-4.08503 3.82797,0 6.77599,1.27301 9.55994,4.08503 2.77489,2.80307 4.04301,5.84192 4.04301,9.7283 l .1263,59.8873 c 0,12.7751 -12.1659,23.5419 -27.7956,23.5419 l -74.9639,-.2947 c -12.0614,0 -22.3629,-11.7399 -22.3629,-26.827 v -112.776 h -21.9838 v 117.114 c 0,12.4258 4.54689,23.3223 13.3924,32.1336 7.56051,7.46266 16.6531,12.3001 26.8691,13.3927 l 83.4711,-.0002 c 12.8266,0 24.0953,-4.76931 33.1863,-14.0245 h 0.0422 c 7.73179,-7.94376 12.2518,-17.4621 13.3503,-28.1744 l -.0841,-63.9724 c 0,-10.1396 -3.74078,-19.1244 -10.8656,-26.3214 -7.12818,-7.20076 -16,-10.9078 -25.9846,-10.9078 -9.8008,0 -18.3765,3.64447 -25.3109,10.318 -6.91413,-6.66255 -15.4299,-10.318 -25.2266,-10.318 z "/>
<path style="opacity:.3;fill:#52a800" id="path4132" d="m 812.6567,700.2244 0,22.9588 54.6048,0 c 12.8265,0 24.0287,-4.78383 33.1196,-14.039 h 0.0777 c 7.73181,-7.94378 12.2425,-17.4434 13.3409,-28.1556 v -13.0307 h -23.1915 v 8.91982 c 0,12.7752 -12.1381,23.5018 -27.7678,23.5018 l -50.1836,-.1551 z "/>
<path style="fill:#fff" id="path6141" d="m 799.9816,769.6611 c -52.8428,0 -98.7001,-40.0599 -98.7001,-92.8554 l -.0474,-64.1051 v -16.3468 h -33.5019 v -81.4504 l 141.2784,.6653 44.1941,.0951 c 52.8903,0 98.7001,40.0122 98.7001,92.8551 v 161.142 h -151.923 l 0,0 z  m 130.3962,-43.2263 c 0,-35.1045 0,-117.916 0,-117.916 0,-39.3943 -34.5473,-71.3282 -77.1732,-71.3282 h -44.2416 v -0.0951 l -119.6566,-.5228 v 38.2541 c 0,0 4.80599,0 13.4039,0 9.10014,0 20.0504,8.55178 20.0504,21.1012 l .0951,80.8304 c 0,39.3943 34.5475,71.3282 77.1258,71.3282 h 105.126 c 13.4772,0 25.2704,-8.535 25.2704,-21.652 z "/>
</g>
</g>
<g style="stroke:none">
<rect width="17.949579" x="30.050419" y="21.17647" rx="1.8151261" height="61.109241" ry="2.3435235" style="fill:url(#linearGradient4228)" id="rect3422"/>
<rect width="17.949579" x="48.201679" y="42.957985" rx="1.8151261" ry="1.4927394" height="38.924366" style="fill:url(#linearGradient4202)" id="rect4200"/>
<rect width="17.949579" x="66.554626" y="31.663864" rx="1.8151261" ry="1.925866" height="50.218487" style="fill:url(#linearGradient4212)" id="rect4210"/>
<rect width="17.949579" x="11.697478" y="13.512609" rx="1.8151261" height="68.773102" ry="2.6374307" style="fill:url(#linearGradient4218)" id="rect4216"/>
</g>
</svg>
