<svg width="96" version="1.0" xmlns="http://www.w3.org/2000/svg" height="96" xmlns:xlink="http://www.w3.org/1999/xlink">
<defs id="defs2410">
<clipPath id="clipPath3613">
<rect width="84" x="6" y="6" rx="6" height="84" ry="6" style="fill:#fff;stroke:none" id="rect3615"/>
</clipPath>
<filter width="1.3839999" x="-0.192" y="-0.192" height="1.3839999" style="color-interpolation-filters:sRGB" id="filter3794">
<feGaussianBlur stdDeviation="5.28" id="feGaussianBlur3796"/>
</filter>
<filter style="color-interpolation-filters:sRGB" id="filter3174">
<feGaussianBlur stdDeviation="1.71" id="feGaussianBlur3176"/>
</filter>
<linearGradient id="linearGradient8627-3">
<stop offset="0" style="stop-color:#666" id="stop8629-1"/>
<stop offset="1" style="stop-color:#666;stop-opacity:.5" id="stop8631-8"/>
</linearGradient>
<linearGradient id="linearGradient8635-3-3">
<stop offset="0" style="stop-color:#808080" id="stop8637-5-5"/>
<stop offset="1" style="stop-color:#666" id="stop8639-8-2"/>
</linearGradient>
<linearGradient id="linearGradient9153-7">
<stop offset="0" style="stop-color:#0369a3" id="stop9155-2"/>
<stop offset="1" style="stop-color:#047fc6" id="stop9157-5"/>
</linearGradient>
<linearGradient id="linearGradient8635-4">
<stop offset="0" style="stop-color:#808080" id="stop8637-3"/>
<stop offset="1" style="stop-color:#666" id="stop8639-0"/>
</linearGradient>
<linearGradient id="linearGradient8548-3">
<stop offset="0" style="stop-color:#fff" id="stop8550-7"/>
<stop offset="1" style="stop-color:#00a8ff;stop-opacity:0" id="stop8552-3"/>
</linearGradient>
<linearGradient id="linearGradient8627-6-9">
<stop offset="0" style="stop-color:#666" id="stop8629-7-7"/>
<stop offset="1" style="stop-color:#666;stop-opacity:.5" id="stop8631-0-3"/>
</linearGradient>
<linearGradient id="linearGradient9334-46-2">
<stop offset="0" style="stop-color:#0369a3" id="stop9336-9-3"/>
<stop offset="1" style="stop-color:#023f62" id="stop9338-9-5"/>
</linearGradient>
<linearGradient id="linearGradient13214-7-2">
<stop offset="0" style="stop-color:#18a303" id="stop13216-6-7"/>
<stop offset="1" style="stop-color:#106802" id="stop13218-4-1"/>
</linearGradient>
<linearGradient id="linearGradient19846-4">
<stop offset="0" style="stop-color:#259dd2" id="stop19848-5"/>
<stop offset="1" style="stop-color:#065d8d" id="stop19850-1"/>
</linearGradient>
<linearGradient gradientTransform="matrix(1.00399,0,0,1.00959,-1.49914,-9.36636)" id="linearGradient4676" xlink:href="#linearGradient9334-5" y1="-1409.7456" x1="168.82439" y2="-1156.1785" x2="168.82439" gradientUnits="userSpaceOnUse"/>
<linearGradient id="linearGradient19846-7-7">
<stop offset="0" style="stop-color:#259dd2" id="stop19848-1-0"/>
<stop offset="1" style="stop-color:#025583" id="stop19850-7-8"/>
</linearGradient>
<linearGradient id="linearGradient8642-9-0">
<stop offset="0" style="stop-color:#000061" id="stop8644-6-2"/>
<stop offset="1" style="stop-color:#006f86;stop-opacity:0" id="stop8646-5-9"/>
</linearGradient>
<linearGradient id="linearGradient19796-3">
<stop offset="0" style="stop-color:#44adeb" id="stop19798-9"/>
<stop offset="1" style="stop-color:#aadcf7" id="stop19800-3"/>
</linearGradient>
<linearGradient id="linearGradient8655-6">
<stop offset="0" style="stop-color:#666" id="stop8657-0"/>
<stop offset="1" style="stop-color:#1a1a1a" id="stop8659-7"/>
</linearGradient>
<linearGradient id="linearGradient10292-4">
<stop offset="0" style="stop-color:#666" id="stop10294-5"/>
<stop offset="1" style="stop-color:#333" id="stop10296-7"/>
</linearGradient>
<linearGradient id="linearGradient8674-2">
<stop offset="0" style="stop-color:#fff" id="stop8676-0"/>
<stop offset="1" style="stop-color:#fff;stop-opacity:0" id="stop8678-5"/>
</linearGradient>
<linearGradient gradientTransform="matrix(-0.5,0,0,0.60714286,286,-53.679907)" id="linearGradient5338" xlink:href="#linearGradient8642-9-0" y1="192.9848" x1="516.04974" y2="192.9848" x2="495.66605" gradientUnits="userSpaceOnUse"/>
<linearGradient gradientTransform="translate(-301,1261.64)" id="linearGradient5517" xlink:href="#linearGradient8627-6-9" y1="-1311.3585" x1="337.37491" y2="-1299.649" x2="337.37491" gradientUnits="userSpaceOnUse"/>
<linearGradient gradientTransform="translate(-301,1261.64)" id="linearGradient5519" xlink:href="#linearGradient8635-4" y1="-1308.946" x1="349.55026" y2="-1302.7262" x2="349.55026" gradientUnits="userSpaceOnUse"/>
<linearGradient id="linearGradient10755-9">
<stop offset="0" style="stop-color:#e9b913" id="stop10757-8"/>
<stop offset="1" style="stop-color:#ff0" id="stop10759-3"/>
</linearGradient>
<linearGradient gradientTransform="translate(-301,1261.64)" id="linearGradient5521" xlink:href="#linearGradient8635-3-3" y1="-1307.696" x1="349.55026" y2="-1301.2262" x2="349.55026" gradientUnits="userSpaceOnUse"/>
<linearGradient gradientTransform="translate(-301,1261.64)" id="linearGradient5523" xlink:href="#linearGradient9153-7" y1="-1293.6378" x1="337.375" y2="-1287.5115" x2="337.375" gradientUnits="userSpaceOnUse"/>
<linearGradient gradientTransform="matrix(0.5,0,0,0.64285715,-190,-61.072843)" id="linearGradient5672" xlink:href="#linearGradient8642-9-0" y1="192.9848" x1="516.04974" y2="192.9848" x2="495.66605" gradientUnits="userSpaceOnUse"/>
<linearGradient id="linearGradient5525" xlink:href="#linearGradient10755-9" y1="1103.5776" x1="445.69522" y2="1099.8198" x2="441.38797" gradientUnits="userSpaceOnUse"/>
<linearGradient gradientTransform="matrix(0.32258065,0,0,0.4,-56.387096,678.65508)" id="linearGradient5641" xlink:href="#linearGradient19846-4" y1="-1601.6377" x1="297.25" y2="-1516.6377" x2="297.25" gradientUnits="userSpaceOnUse"/>
<linearGradient gradientTransform="translate(-301,1261.64)" id="linearGradient5513" xlink:href="#linearGradient8627-3" y1="-1311.3585" x1="337.37491" y2="-1304.4017" x2="337.37491" gradientUnits="userSpaceOnUse"/>
<linearGradient gradientTransform="matrix(0.5,0,0,0.64285715,-190,-61.072843)" id="linearGradient5682" xlink:href="#linearGradient8642-9-0" y1="192.9848" x1="516.04974" y2="192.9848" x2="495.66605" gradientUnits="userSpaceOnUse"/>
<linearGradient gradientTransform="matrix(0.28571429,0,0,0.28571433,-44.285714,493.89655)" id="linearGradient5353" xlink:href="#linearGradient19846-7-7" y1="-1587.6377" x1="298" y2="-1507.6377" x2="298" gradientUnits="userSpaceOnUse"/>
<linearGradient gradientTransform="matrix(8.86632,0,0,8.1065,-3046.88,-9572.96)" id="linearGradient5511" xlink:href="#linearGradient9334-46-2" y1="1173" x1="345" y2="1178" x2="345" gradientUnits="userSpaceOnUse"/>
<linearGradient gradientTransform="matrix(9.81802,0,0,8,-2168.87,4579.1)" id="linearGradient5501" xlink:href="#linearGradient19796-3" y1="-581.63782" x1="230" y2="-577.57336" x2="230" gradientUnits="userSpaceOnUse"/>
<linearGradient gradientTransform="matrix(-8.86632,0,0,8.1065,3146.88,-9585.56)" id="linearGradient5503" xlink:href="#linearGradient10292-4" y1="1173" x1="345" y2="1178" x2="345" gradientUnits="userSpaceOnUse"/>
<linearGradient gradientTransform="matrix(2.53328,0,0,2.53328,-699.851,1569.0522)" id="linearGradient5509" xlink:href="#linearGradient13214-7-2" y1="-631.14911" x1="298.1875" y2="-634.26807" x2="298.1875" gradientUnits="userSpaceOnUse"/>
<linearGradient gradientTransform="translate(-301,1261.64)" id="linearGradient5505" xlink:href="#linearGradient8674-2" y1="-1313.5192" x1="346.69568" y2="-1303.7965" x2="361.36813" gradientUnits="userSpaceOnUse"/>
<linearGradient gradientTransform="matrix(8.86632,0,0,8.1065,-3046.88,-9583.06)" id="linearGradient5507" xlink:href="#linearGradient8655-6" y1="1173.9109" x1="345" y2="1178" x2="345" gradientUnits="userSpaceOnUse"/>
<linearGradient gradientTransform="matrix(1.00399,0,0,1.00959,-1.49914,-9.36636)" id="linearGradient4674" xlink:href="#linearGradient9334-5" y1="-1409.7456" x1="168.82439" y2="-1156.1785" x2="168.82439" gradientUnits="userSpaceOnUse"/>
<linearGradient id="linearGradient3700">
<stop offset="0" style="stop-color:#2276c5" id="stop3702"/>
<stop offset="1" style="stop-color:#68baf4" id="stop3704"/>
</linearGradient>
<linearGradient id="linearGradient3613" xlink:href="#linearGradient3737" y1="20.220806" x1="48" y2="138.66119" x2="48" gradientUnits="userSpaceOnUse"/>
<linearGradient id="linearGradient3885" xlink:href="#linearGradient3737" y1="6" x1="36.357143" y2="63.893143" x2="36.357143" gradientUnits="userSpaceOnUse"/>
<linearGradient gradientTransform="matrix(1.0058652,0,0,0.994169,100,0)" id="ButtonShadow-0" y1="92.539597" x1="45.447727" y2="7.0165396" x2="45.447727" gradientUnits="userSpaceOnUse">
<stop offset="0" id="stop3750-8"/>
<stop offset="1" style="stop-opacity:.588" id="stop3752-5"/>
</linearGradient>
<linearGradient id="linearGradient3074" xlink:href="#linearGradient4239" y1="8" x1="72" y2="88" x2="72" gradientUnits="userSpaceOnUse"/>
<linearGradient gradientTransform="matrix(1.00399,0,0,1.00959,-1.49914,-9.36636)" id="linearGradient4672" xlink:href="#linearGradient9334-5" y1="-1409.7456" x1="168.82439" y2="-1156.1785" x2="168.82439" gradientUnits="userSpaceOnUse"/>
<linearGradient gradientTransform="translate(100,0)" id="linearGradient3047" xlink:href="#linearGradient3700" y1="90" x1="48" y2="5.9877172" x2="48" gradientUnits="userSpaceOnUse"/>
<linearGradient id="linearGradient3737">
<stop offset="0" style="stop-color:#fff" id="stop3739"/>
<stop offset="1" style="stop-color:#fff;stop-opacity:0" id="stop3741"/>
</linearGradient>
<linearGradient id="linearGradient5531">
<stop offset="0" id="stop5533"/>
<stop offset="1" style="stop-opacity:0" id="stop5535"/>
</linearGradient>
<linearGradient id="linearGradient4239">
<stop offset="0" style="stop-color:#1d77ab" id="stop4241"/>
<stop offset="1" style="stop-color:#0f557d" id="stop4243"/>
</linearGradient>
<linearGradient gradientTransform="scale(1.0058652,0.994169)" id="ButtonShadow" y1="92.539597" x1="45.447727" y2="7.0165396" x2="45.447727" gradientUnits="userSpaceOnUse">
<stop offset="0" id="stop3750"/>
<stop offset="1" style="stop-opacity:.588" id="stop3752"/>
</linearGradient>
<linearGradient id="linearGradient4036">
<stop offset="0" style="stop-color:#b1d5ac" id="stop4038"/>
<stop offset="1" style="stop-color:#f1faef" id="stop4040"/>
</linearGradient>
<linearGradient id="linearGradient4030">
<stop offset="0" style="stop-color:#97c08f" id="stop4032"/>
<stop offset="1" style="stop-color:#b4d6af" id="stop4034"/>
</linearGradient>
<linearGradient id="linearGradient3856">
<stop offset="0" style="stop-color:#b3b3b3" id="stop3858"/>
<stop offset="1" style="stop-color:#e6e6e6" id="stop3860"/>
</linearGradient>
<linearGradient id="linearGradient3914">
<stop offset="0" id="stop3916"/>
<stop offset="1" style="stop-opacity:0" id="stop3918"/>
</linearGradient>
<linearGradient id="linearGradient3873">
<stop offset="0" style="stop-color:#dfdfdf" id="stop3875"/>
<stop offset="1" style="stop-color:#fefefe" id="stop3877"/>
</linearGradient>
<linearGradient id="linearGradient3872" xlink:href="#linearGradient4239" y1="6" x1="32" y2="90" x2="32" gradientUnits="userSpaceOnUse"/>
<linearGradient id="linearGradient3949" xlink:href="#linearGradient3856" y1="88" x1="32" y2="8" x2="32" gradientUnits="userSpaceOnUse"/>
<linearGradient gradientTransform="matrix(0.0458673,0,0,1,-271.91178,3045.2778)" id="linearGradient5188" xlink:href="#linearGradient8074-2" y1="-1194.6378" x1="-17" y2="-1194.6378" x2="144" gradientUnits="userSpaceOnUse"/>
<linearGradient gradientTransform="matrix(0.07453431,0,0,1,-655.73308,2938.2756)" id="linearGradient5193" xlink:href="#linearGradient8074-2" y1="-1194.6378" x1="-17" y2="-1194.6378" x2="144" gradientUnits="userSpaceOnUse"/>
<linearGradient id="linearGradient4022" xlink:href="#linearGradient4030" y1="88" x1="32" y2="8" x2="32" gradientUnits="userSpaceOnUse"/>
<linearGradient id="linearGradient8074-2">
<stop offset="0" style="stop-opacity:0" id="stop8076-1"/>
<stop offset="0.49305555" id="stop8078-94"/>
<stop offset="1" style="stop-opacity:0" id="stop8080-0"/>
</linearGradient>
<linearGradient id="linearGradient4018" xlink:href="#linearGradient4036" y1="80" x1="48" y2="16" x2="48" gradientUnits="userSpaceOnUse"/>
<linearGradient id="linearGradient3940" xlink:href="#ButtonShadow-0" y1="93" x1="47" y2="6" x2="47" gradientUnits="userSpaceOnUse"/>
<linearGradient gradientTransform="translate(0,-20)" id="linearGradient3901" xlink:href="#linearGradient3737" y1="26" x1="32" y2="84" x2="32" gradientUnits="userSpaceOnUse"/>
<linearGradient id="linearGradient3879" xlink:href="#linearGradient3873" y1="80" x1="48" y2="16" x2="48" gradientUnits="userSpaceOnUse"/>
<linearGradient id="linearGradient9334-5">
<stop offset="0" style="stop-color:#0369a3" id="stop9336-3"/>
<stop offset="1" style="stop-color:#023f62" id="stop9338-4"/>
</linearGradient>
<linearGradient id="linearGradient3933" xlink:href="#ButtonShadow-0" y1="92" x1="50" y2="7" x2="50" gradientUnits="userSpaceOnUse"/>
<linearGradient id="linearGradient3927" xlink:href="#ButtonShadow-0" y1="94" x1="38" y2="5" x2="38" gradientUnits="userSpaceOnUse"/>
<linearGradient id="linearGradient3929" xlink:href="#ButtonShadow-0" y1="95" x1="45" y2="4" x2="45" gradientUnits="userSpaceOnUse"/>
<linearGradient id="linearGradient3920" xlink:href="#ButtonShadow-0" y1="91" x1="49" y2="7" x2="49" gradientUnits="userSpaceOnUse"/>
<radialGradient fx="58" fy="44.923077" cx="58" cy="44.923077" gradientTransform="matrix(1.4285714,0,0,0.76190473,-22.857143,11.772895)" r="10.5" id="radialGradient5537" xlink:href="#linearGradient5531" gradientUnits="userSpaceOnUse"/>
<radialGradient fx="-1535.3044" fy="-842.90808" cx="-1535.3044" cy="-842.90808" gradientTransform="matrix(-3.31574,0,0,-7.58441,-5016.37,-6481.31)" r="10" id="radialGradient5515" xlink:href="#linearGradient8548-3" gradientUnits="userSpaceOnUse"/>
<radialGradient fx="48" fy="90.171875" cx="48" cy="90.171875" gradientTransform="matrix(1.1573129,0,0,0.99590774,-7.551021,0.19713193)" r="42" id="radialGradient3879" xlink:href="#linearGradient3737" gradientUnits="userSpaceOnUse"/>
<radialGradient fx="47.999981" fy="47.999424" cx="47.999981" cy="47.999424" gradientTransform="matrix(1.3452582,-3.8835319e-8,3.3050848e-8,1.1448837,-16.572388,-6.9543292)" r="34.937546" id="radialGradient3920" xlink:href="#linearGradient3914" gradientUnits="userSpaceOnUse"/>
<radialGradient fx="47.999981" fy="47.999424" cx="47.999981" cy="47.999424" gradientTransform="matrix(1.3452582,-3.8835319e-8,3.3050848e-8,1.1448837,-16.572388,-6.9543292)" r="34.937546" id="radialGradient4020" xlink:href="#linearGradient3914" gradientUnits="userSpaceOnUse"/>
</defs>
<g style="display:none" id="layer2">
<rect width="86" x="5" y="7" rx="6" height="85" ry="6" style="opacity:.9;fill:url(#ButtonShadow);filter:url(#filter3174);stroke:none" id="rect3745"/>
</g>
<g style="stroke:none" id="layer3">
<path style="opacity:.08;fill:url(#linearGradient3929)" id="path3911" d="m 55.1875,4.0312 c -1.58689,0.01273 -3.1348,0.183481 -4.5,0.0625 a 0.864174,0.864174 0 0,0 -0.0625,0 h -38.9375 c -3.41584,0.013813 -6.21449,2.06861 -7.90625,4.75 -1.17029,1.85487 -1.92207,4.09865 -1.65625,6.4375 h -0.03125 c 0.020721,23.5443 -0.041587,47.0762 0.03125,70.625 a 0.864174,0.864174 0 0,0 0,0.0625 c 0.129911,1.45786 0.642783,2.79124 1.34375,3.96875 6.85e-05,0.000154 -0.021457,-0.07213 -0.03125,-0.125 0.029603,0.08798 0.0497,0.149646 0.0625,0.1875 0.00647,0.01101 0.022369,0.01648 0.03125,0.03125 0.00759,0.01244 0.023609,0.01885 0.03125,0.03125 a 0.864174,0.864174 0 0,0 0.0625,0.09375 c 0.01166,0.01455 0.021588,0.02031 0.03125,0.03125 0.0058,0.0066 -0.00442,0.02694 0,0.03125 0.00352,0.0055 0.027722,-0.0055 0.03125,0 a 0.864174,0.864174 0 0,0 0.03125,0.03125 c 0.011239,0.009 0.021767,0.02426 0.03125,0.03125 1.93897,2.96031 5.35978,4.946 9.03125,4.625 0.03167,-0.0028 0.06205,0.0031 0.09375,0 24.0039,-0.02052 48.0231,0.04148 72.0312,-0.03125 a 0.864174,0.864174 0 0,0 0.0625,0 c 5.23269,-0.424353 9.36364,-5.34888 8.9375,-10.625 -0.0026,-0.03164 0.0029,-0.06208 0,-0.09375 v -43.8125 a 0.864174,0.864174 0 0,0 -0.0625,-0.25 c -0.719482,-2.37576 -2.2897,-4.16664 -3.96875,-5.75 -0.0898,-0.08468 -0.159649,-0.16622 -0.25,-0.25 2.21794,-0.09 4.34555,-1.87861 4.25,-4.3125 -0.00096,-0.02446 0.03266,-0.03792 0.03125,-0.0625 -0.07568,-5.67394 0.162469,-11.4144 -0.125,-17.1562 a 0.864174,0.864174 0 0,0 -0.03125,-0.0625 c -0.679074,-5.34934 -6.00802,-9.05514 -11.2812,-8.375 v -0.03125 h -14.875 a 0.864174,0.864174 0 0,0 -0.03125,0 c -2.43157,0.09487 -3.93398,2.36719 -3.875,4.5625 -1.18296,-1.15199 -2.34086,-2.32457 -3.53125,-3.46875 a 0.864174,0.864174 0 0,0 -0.15625,-0.125 c -1.55238,-0.890707 -3.23143,-1.04393 -4.8125,-1.03125 z  m -51.75,85.3438 c -0.011805,0.08495 -0.021775,0.15025 -0.03125,0.21875 -0.00282,-0.01512 3.1e-06,-0.06256 0,-0.0625 -9.2e-06,0.000178 0.00988,-0.07797 0.03125,-0.15625 z "/>
<path style="opacity:.1;fill:url(#linearGradient3927)" id="path3904" d="m 11.6875,4.9688 c -5.25543,0.0212519 -9.38439,5.1638 -8.71875,10.2979 0.0207228,23.5464 -0.0415773,47.0941 0.03125,70.6396 0.42997,4.82511 5.00259,8.59446 9.79456,8.125 24.0371,-0.02076 48.0755,0.04156 72.1117,-0.03125 4.75515,-0.385626 8.56319,-4.94691 8.125,-9.75999 0,-14.6321 0,-29.2642 0,-43.8963 -1.30325,-4.30336 -5.82883,-6.63982 -8.59097,-10.0247 -8.30204,-8.15132 -16.4879,-16.431 -24.8735,-24.4911 -2.70571,-1.55245 -5.95617,-0.595542 -8.93126,-0.859189 -12.9827,0 -25.9654,0 -38.948,0 z  m 55.9062,0 c -2.75917,0.107652 -4.21594,3.91814 -2.21875,5.8125 7.42882,7.28443 14.7592,14.7093 22.25,21.9062 2.14699,1.60078 5.56046,-0.220208 5.40625,-2.90625 -0.0787,-5.72616 0.160862,-11.4778 -0.125,-17.1875 -0.617749,-4.86626 -5.59301,-8.31304 -10.4262,-7.625 -4.96209,0 -9.92419,0 -14.8863,0 z  m -62.9688,4.25 c -0.664712,0.701583 -0.2456,-0.131182 0,0 z  m -.375,80.3438 c 0.89304,0.481702 0.104348,0.183981 0,0 z "/>
<path style="opacity:.2;fill:url(#linearGradient3940)" id="path3899" d="m 11.7188,6.0312 c -4.67493,0.016024 -8.33591,4.64959 -7.6875,9.20536 0.020755,23.5251 -0.041623,47.0518 0.03125,70.5759 0.078659,2.31096 1.99913,4.95902 3.5,5.8125 3.32511,2.20027 7.4995,1.05993 11.2446,1.34375 22.0016,-0.02075 44.0048,0.04153 66.0054,-0.03125 4.47154,-0.328201 7.72929,-4.80283 7.15625,-9.17411 0,-14.4315 0,-28.8631 0,-43.2946 -1.43331,-3.95496 -5.65942,-6.19157 -8.27784,-9.39907 -8.25118,-8.11498 -16.4129,-16.329 -24.7309,-24.3712 -2.48361,-1.25729 -5.41628,-0.428981 -8.11184,-0.667243 -13.0432,0 -26.0863,0 -39.1295,0 z  m 55.9688,0 c -2.20519,0.107539 -2.96628,3.27281 -1.11696,4.44148 7.23986,7.09655 14.3732,14.3261 21.6795,21.3398 1.83649,1.3232 4.24848,-0.713747 3.71875,-2.77321 -0.09408,-5.54138 0.194785,-11.1094 -0.15625,-16.633 -0.734258,-4.23962 -5.14624,-6.94456 -9.29643,-6.375 -4.94286,0 -9.88571,0 -14.8286,0 z "/>
<path style="opacity:.3;fill:url(#linearGradient3933)" id="path3883" d="m 11.75,7 c -4.16698,0.0345334 -7.35035,4.169 -6.75,8.2092 0.0208047,23.503 -0.0417012,47.0077 0.03125,70.5096 0.305206,3.97763 4.30152,6.81532 8.16979,6.28125 23.839,-0.020761 47.6798,0.041565 71.5177,-0.03125 3.99484,-0.299314 6.81024,-4.31576 6.28125,-8.17795 0,-14.4094 1e-06,-28.8189 0,-43.2283 -1.61305,-3.59521 -5.48779,-5.77905 -7.99601,-8.80475 -8.20444,-8.08132 -16.3435,-16.2354 -24.5998,-24.2603 -2.30027,-0.985392 -4.95833,-0.288199 -7.41898,-0.497501 -13.0784,0 -26.1568,0 -39.2353,0 z  m 56.0312,0 c -1.584,0.121874 -1.65926,2.31059 -0.359006,2.94753 7.16444,7.02428 14.2253,14.1753 21.4542,21.1207 1.3987,0.747222 2.54336,-0.938528 2.12354,-2.22308 -0.094791,-5.41372 0.196057,-10.8578 -0.15625,-16.2514 -0.632604,-3.79506 -4.62029,-6.11498 -8.29479,-5.59375 -4.92257,0 -9.84514,0 -14.7677,0 z "/>
<path style="opacity:.45;fill:url(#linearGradient3920)" id="path3873" d="m 12,7 c -3.324,0 -6,2.676 -6,6 v 11 50 11 c 0,3.324 2.676,6 6,6 h 7 65 c 3.324,0 6,-2.676 6,-6 v -0.71875 -10.2812 -33.5625 c 0.0048,-0.09367 0.0048,-0.187581 0,-0.28125 -0.06619,-0.633386 -0.358634,-1.24077 -0.8125,-1.6875 -9.5355,-9.56872 -21.1041,-21.1041 -30.6562,-30.6562 -0.454532,-0.460211 -1.07463,-0.753347 -1.71875,-0.8125 h -44.0938 -0.71875 z  m 55.3125,0 a 1.40991,1.40991 0 0,0 -0.84375,2.40625 l 21.125,21.125 a 1.40991,1.40991 0 0,0 2.40625,-0.90625 1.40991,1.40991 0 0,0 0,-0.09375 v -12.5312 -3.71875 -0.28125 c 0,-3.324 -2.676,-6 -6,-6 h -16.6875 z "/>
</g>
<g id="layer1">
<g style="stroke:none">
<path style="fill:url(#linearGradient3872)" id="path3054" d="m 12,6 c -3.324,0 -6,2.676 -6,6 v 11 50 11 c 0,3.324 2.676,6 6,6 h 7 65 c 3.324,0 6,-2.676 6,-6 v -0.71875 -10.2812 -33.5625 c 0.0048,-0.09367 0.0048,-0.187581 0,-0.28125 -0.06619,-0.633386 -0.358634,-1.24077 -0.8125,-1.6875 -9.5355,-9.56872 -21.1041,-21.1041 -30.6562,-30.6562 -0.454532,-0.460211 -1.07463,-0.753347 -1.71875,-0.8125 h -44.0938 z "/>
<path style="fill:url(#linearGradient3074)" id="rect2419" d="m 67.3125,6 a 1.40991,1.40991 0 0,0 -0.84375,2.40625 l 21.125,21.125 a 1.40991,1.40991 0 0,0 2.40625,-0.90625 1.40991,1.40991 0 0,0 0,-0.09375 v -12.5312 -3.71875 -0.28125 c 0,-3.324 -2.676,-6 -6,-6 h -16.6875 z "/>
<path style="opacity:.2;fill:url(#radialGradient3879)" id="path3615" d="M 10.15625,6.34375 C 9.854723,6.440553 9.559795,6.547888 9.28125,6.6875 8.72416,6.966724 8.221197,7.353194 7.78125,7.78125 7.561276,7.995278 7.371884,8.223115 7.1875,8.46875 7.003116,8.714385 6.832092,8.976493 6.6875,9.25 6.573695,9.4652707 6.465683,9.6801347 6.375,9.90625 6.35403,9.958535 6.33107,10.008455 6.3125,10.0625 c -0.01036,0.03015 -0.02135,0.06337 -0.03125,0.09375 -0.006,0.01873 0.0058,0.04369 0,0.0625 -0.02154,0.07131 -0.04532,0.145178 -0.0625,0.21875 -0.04593,0.196664 -0.09198,0.393321 -0.125,0.59375 C 6.04135,11.3493 6,11.665279 6,12 l 0,2 0,9 0,50 0,9 0,2 c 0,3.324 2.676,6 6,6 l 7,0 65,0 c 3.324,0 6,-2.676 6,-6 L 90,83.28125 90,82 90,73 90,37.4375 a 2.772031,2.772031 0 0 0 0,-0.28125 2.772031,2.772031 0 0 0 -0.8125,-1.6875 L 89,35.28125 89,81 l 0,2 c 0,2.781848 -2.218152,5 -5,5 l -2,0 -68,0 -2,0 C 9.218152,88 7,85.781848 7,83 L 7,81 7,13 7,11 C 7,10.635705 7.05212,10.279012 7.125,9.9375 7.14836,9.828031 7.18842,9.731618 7.21875,9.625 7.24545,9.530581 7.24943,9.4357 7.28125,9.34375 7.28895,9.3218 7.3045,9.30306 7.3125,9.28125 7.38808,9.071951 7.492742,8.850956 7.59375,8.65625 7.65102,8.548267 7.71649,8.446782 7.78125,8.34375 7.8053,8.30462 7.81866,8.25713 7.84375,8.21875 7.93786,8.077785 8.048671,7.942755 8.15625,7.8125 c 0.15254,-0.185862 0.32207,-0.369817 0.5,-0.53125 0.09922,-0.088888 0.206327,-0.1692 0.3125,-0.25 0.112727,-0.086487 0.223355,-0.1733 0.34375,-0.25 0.03146,-0.01999 0.06182,-0.0432 0.09375,-0.0625 0.0074,-0.0045 0.02385,0.0044 0.03125,0 0.232039,-0.138728 0.462548,-0.274778 0.71875,-0.375 z"/>
<rect width="84" x="106" y="6" rx="6" height="84" ry="6" style="fill:url(#linearGradient3047)" id="rect3045"/>
<path style="fill:#f0f" id="path3049" d="m 114,6 26,26 0,4 -30,-30 z"/>
<path style="opacity:.3;fill:url(#linearGradient3885)" id="path3881" d="m 67.3125,6 a 1.40991,1.40991 0 0,0 -1.125,2 h 15.8125 2 c 2.78185,0 5,2.21815 5,5 v 2 14.875 a 1.40991,1.40991 0 0,0 1,-1.125 1.40991,1.40991 0 0,0 0,-0.125 1.40991,1.40991 0 0,0 0,-0.09375 v -12.5312 -2 -1.71875 -0.28125 c 0,-3.324 -2.676,-6 -6,-6 h -16.6875 z "/>
<path style="opacity:.3;fill:url(#linearGradient3901)" id="path3888" d="m 12,6 c -3.324,0 -6,2.676 -6,6 v 11 50 11 c 0,2.9085 2.04223,5.31735 4.78125,5.875 -2.20512,-0.53621 -3.8125,-2.49084 -3.8125,-4.875 v -11 -50 -11 c 0,-2.80489 2.22636,-5.03125 5.03125,-5.03125 h 0.71875 44 0.09375 c 0.01105,0.0018 0.01709,0.02303 0.0625,0.03125 0.107322,0.01943 0.05104,0.0025 0.15625,0.03125 0.105213,0.02873 0.05395,-0.0066 0.15625,0.03125 0.1023,0.03782 0.05765,0.01589 0.15625,0.0625 0.0986,0.04661 0.03085,0.0074 0.125,0.0625 0.09415,0.05505 0.03602,0.03068 0.125,0.09375 0.08898,0.06307 0.04187,0.02315 0.125,0.09375 0.08313,0.0706 0.04836,0.0474 0.125,0.125 9.56871,9.5355 21.1041,21.1041 30.6562,30.6562 0.07653,0.07532 0.05524,0.04337 0.125,0.125 0.06976,0.08163 0.03127,0.03767 0.09375,0.125 0.06248,0.08733 0.0078,0.03262 0.0625,0.125 0.05473,0.09238 0.04717,0.02825 0.09375,0.125 0.04658,0.09675 0.02441,0.05585 0.0625,0.15625 0.03809,0.100399 0.0019,0.0217 0.03125,0.125 0.02931,0.103304 0.01094,0.05081 0.03125,0.15625 0.0164,0.08517 0.02694,0.08025 0.03125,0.125 0.0011,0.02106 -0.000344,0.02472 0,0.03125 0.000689,0.01307 0,0.02033 0,0.0625 0,0.06326 0.0032,-0.000676 0,0.0625 -0.000673,0.02083 -0.000673,0.04167 0,0.0625 v 33.5625 10.2812 0.71875 c 0,2.38416 -1.60738,4.33879 -3.8125,4.875 2.73902,-0.55765 4.78125,-2.9665 4.78125,-5.875 v -0.71875 -10.2812 -33.5625 c 0.0048,-0.09367 0.0048,-0.187581 0,-0.28125 -0.06619,-0.633386 -0.358634,-1.24077 -0.8125,-1.6875 -9.5355,-9.56872 -21.1041,-21.1041 -30.6562,-30.6562 -0.454532,-0.460211 -1.07463,-0.753347 -1.71875,-0.8125 h -44.0938 z "/>
</g>
<g id="g21358" transform="matrix(0.31004945,0,0,0.31004945,-198.87008,526.39665)">
<g style="fill:url(#linearGradient4676);stroke:none;color:#000;stroke-width:15.997;text-align:start;line-height:normal;text-indent:0;font-family:Andale Mono;text-transform:none" id="g8106" transform="matrix(1.00001,0,0,0.999844,266.994,-261.184)">
<path style="fill:url(#linearGradient4672)" id="path8108" d="m -39.9934,-1184.5675 c 0,3.8673 3.62244,7.9298 7.75687,7.9298 h 191.987 c 4.62705,0 8.24949,-3.8705 8.24949,-7.7455 v -149.214 c 0,-4.2249 -0.51199,-6.1833 -3.49989,-9.171 l -85.3239,-85.2984 c -2.98822,-2.9873 -5.27368,-4.5274 -9.49962,-4.5307 l -101.7359,-.08 c -4.13346,0 -7.93366,3.6832 -7.93366,8.1221 z "/>
<path style="fill:url(#linearGradient4674)" id="path8110" d="m 103.2599,-1421.8904 53.1903,53.4419 c 4.33857,4.3589 11.5535,3.3243 11.5535,-3.5507 v -52.4417 c 0,-4.2273 -3.82644,-8.1968 -8.03174,-8.1968 h -53.1903 c -6.83754,0 -7.13737,7.1146 -3.52181,10.7473 z "/>
</g>
<use width="5033" x="0" y="0" height="1085" id="use14646" xlink:href="#use9311" transform="translate(267,0)"/>
<use width="5033" x="0" y="0" height="1085" id="use14648" xlink:href="#path6866" transform="translate(267,0)"/>
<use width="5033" x="0" y="0" height="1085" id="use14650" xlink:href="#path6868" transform="translate(267,0)"/>
<use width="5033" x="0" y="0" height="1085" id="use14652" xlink:href="#path6960" transform="translate(267,0)"/>
<use width="5033" x="0" y="0" height="1085" id="use14654" xlink:href="#rect7927" transform="translate(267,0)"/>
<use width="5033" x="0" y="0" height="1085" id="use14656" xlink:href="#rect8070" transform="translate(267,0)"/>
<use width="5033" x="0" y="0" height="1085" id="use14658" xlink:href="#rect8098" transform="translate(267,0)"/>
<use width="5033" x="0" y="0" height="1085" id="use14660" xlink:href="#rect7221" transform="translate(267,0)"/>
<use width="5033" x="0" y="0" height="1085" id="use14662" xlink:href="#rect7225" transform="translate(267,0)"/>
<use width="5033" x="0" y="0" height="1085" id="use14664" xlink:href="#path7319" transform="translate(267,0)"/>
<use width="5033" x="0" y="0" height="1085" id="use14666" xlink:href="#path7323" transform="translate(267,0)"/>
<use width="5033" x="0" y="0" height="1085" id="use14668" xlink:href="#rect7436" transform="translate(267,0)"/>
<use width="5033" x="0" y="0" height="1085" id="use14670" xlink:href="#rect7438" transform="translate(267,0)"/>
<use width="5033" x="0" y="0" height="1085" id="use14672" xlink:href="#rect7440" transform="translate(267,0)"/>
<use width="5033" x="0" y="0" height="1085" id="use14674" xlink:href="#rect9509" transform="translate(267,0)"/>
<use width="5033" x="0" y="0" height="1085" id="use14676" xlink:href="#rect9521" transform="translate(267,0)"/>
<use width="5033" x="0" y="0" height="1085" id="use14678" xlink:href="#use14642" transform="translate(267,0)"/>
<use width="5033" x="0" y="0" height="1085" id="use14680" xlink:href="#use14644" transform="translate(267,0)"/>
</g>
</g>
<g style="stroke:none" id="layer6">
<path style="fill:url(#linearGradient3949)" id="path3846" d="m 14,12.0312 c -1.15593,0 -1.96875,0.812823 -1.96875,1.96875 v 9 33 17 8.28125 0.71875 c 0,1.07773 0.717552,1.83697 1.75,1.9375 0.07491,0.0073 0.140555,0.03125 0.21875,0.03125 h 5 58 5 c 0.07224,0 0.1493,-0.0086 0.21875,-0.03125 1.03245,-0.100527 1.75,-0.859768 1.75,-1.9375 v -0.71875 -8.28125 -17 -16.0625 c -9.31607,-9.28832 -18.6042,-18.6042 -27.9062,-27.9062 h -41.3438 -0.71875 z "/>
<path style="opacity:.6;fill:url(#radialGradient3920)" id="path3910" d="m 17.9062,17.0625 c -0.459951,0.04302 -0.84925,0.475575 -0.84375,0.9375 v 9 42 9 c -0.0037,0.491884 0.445616,0.941233 0.9375,0.9375 h 5 55 c 0.491884,0.0037 0.941233,-0.445616 0.9375,-0.9375 v -9 -27.4062 c -0.0027,-0.244241 -0.10626,-0.48584 -0.28125,-0.65625 l -23.5938,-23.5938 c -0.17041,-0.17499 -0.412009,-0.278532 -0.65625,-0.28125 h -36.4062 c -0.03122,-0.0016 -0.06253,-0.0016 -0.09375,0 z "/>
<path style="fill:url(#linearGradient3879)" id="path3868" d="m 18,18 0,9 0,42 0,9 5,0 55,0 0,-9 L 78,41.59375 54.40625,18 z"/>
<path style="opacity:.7;fill:#fff" id="path3882" d="m 18,18 0,9 0,42 0,9 5,0 55,0 0,-9 L 78,41.59375 54.40625,18 z m 1,1 35.03125,0 L 77,41.96875 77,69 l 0,8 -54,0 -4,0 0,-8 0,-42 z"/>
<path style="opacity:.1" id="path3952" d="m 14,12.0312 c -1.15593,0 -1.96875,0.812823 -1.96875,1.96875 v 9 33 17 8.28125 0.71875 c 0,1.07773 0.717552,1.83697 1.75,1.9375 0.07491,0.0073 0.140555,0.03125 0.21875,0.03125 h 5 58 5 c 0.07224,0 0.1493,-0.0086 0.21875,-0.03125 1.03245,-0.100527 1.75,-0.859768 1.75,-1.9375 v -0.71875 -8.28125 -17 -16.0625 c -9.31607,-9.28832 -18.6042,-18.6042 -27.9062,-27.9062 h -41.3438 -0.71875 z  m 0,.9688 h 0.71875 40.9375 c 9.11359,9.11413 18.2147,18.2408 27.3438,27.3438 v 15.6562 17 8.28125 0.71875 c 0,0.648416 -0.267049,0.909555 -0.875,0.96875 a 0.967318,0.967318 0 0,0 -0.125,0.03125 h -5 -58 -5 c 0.119302,0 0.09888,-0.0094 -0.125,-0.03125 -0.607951,-0.059195 -0.875,-0.320334 -0.875,-0.96875 v -0.71875 -8.28125 -17 -33 -9 c 0,-0.702508 0.297492,-1 1,-1 z "/>
<path style="opacity:.2" id="path3851" d="m 14,12.0312 c -1.15593,0 -1.96875,0.812823 -1.96875,1.96875 v 1 c 0,-1.15593 0.812823,-1.96875 1.96875,-1.96875 h 0.71875 41.3438 c 9.30201,9.30201 18.5902,18.6179 27.9062,27.9062 v -1 c -9.31607,-9.28832 -18.6042,-18.6042 -27.9062,-27.9062 h -41.3438 -0.71875 z "/>
<path style="fill:url(#linearGradient3949)" id="path3982" d="m 14,12.0312 c -1.15593,0 -1.96875,0.812823 -1.96875,1.96875 v 9 33 17 8.28125 0.71875 c 0,1.07773 0.717552,1.83697 1.75,1.9375 0.07491,0.0073 0.140555,0.03125 0.21875,0.03125 h 5 58 5 c 0.07224,0 0.1493,-0.0086 0.21875,-0.03125 1.03245,-0.100527 1.75,-0.859768 1.75,-1.9375 v -0.71875 -8.28125 -17 -16.0625 c -9.31607,-9.28832 -18.6042,-18.6042 -27.9062,-27.9062 h -41.3438 -0.71875 z "/>
<path style="opacity:.6;fill:url(#radialGradient3920)" id="path3984" d="m 17.9062,17.0625 c -0.459951,0.04302 -0.84925,0.475575 -0.84375,0.9375 v 9 42 9 c -0.0037,0.491884 0.445616,0.941233 0.9375,0.9375 h 5 55 c 0.491884,0.0037 0.941233,-0.445616 0.9375,-0.9375 v -9 -27.4062 c -0.0027,-0.244241 -0.10626,-0.48584 -0.28125,-0.65625 l -23.5938,-23.5938 c -0.17041,-0.17499 -0.412009,-0.278532 -0.65625,-0.28125 h -36.4062 c -0.03122,-0.0016 -0.06253,-0.0016 -0.09375,0 z "/>
<path style="fill:url(#linearGradient3879)" id="path3986" d="m 18,18 0,9 0,42 0,9 5,0 55,0 0,-9 L 78,41.59375 54.40625,18 z"/>
<path style="opacity:.7;fill:#fff" id="path3988" d="m 18,18 0,9 0,42 0,9 5,0 55,0 0,-9 L 78,41.59375 54.40625,18 z m 1,1 35.03125,0 L 77,41.96875 77,69 l 0,8 -54,0 -4,0 0,-8 0,-42 z"/>
<path style="opacity:.1" id="path3990" d="m 14,12.0312 c -1.15593,0 -1.96875,0.812823 -1.96875,1.96875 v 9 33 17 8.28125 0.71875 c 0,1.07773 0.717552,1.83697 1.75,1.9375 0.07491,0.0073 0.140555,0.03125 0.21875,0.03125 h 5 58 5 c 0.07224,0 0.1493,-0.0086 0.21875,-0.03125 1.03245,-0.100527 1.75,-0.859768 1.75,-1.9375 v -0.71875 -8.28125 -17 -16.0625 c -9.31607,-9.28832 -18.6042,-18.6042 -27.9062,-27.9062 h -41.3438 -0.71875 z  m 0,.9688 h 0.71875 40.9375 c 9.11359,9.11413 18.2147,18.2408 27.3438,27.3438 v 15.6562 17 8.28125 0.71875 c 0,0.648416 -0.267049,0.909555 -0.875,0.96875 a 0.967318,0.967318 0 0,0 -0.125,0.03125 h -5 -58 -5 c 0.119302,0 0.09888,-0.0094 -0.125,-0.03125 -0.607951,-0.059195 -0.875,-0.320334 -0.875,-0.96875 v -0.71875 -8.28125 -17 -33 -9 c 0,-0.702508 0.297492,-1 1,-1 z "/>
<path style="opacity:.2" id="path3992" d="m 14,12.0312 c -1.15593,0 -1.96875,0.812823 -1.96875,1.96875 v 1 c 0,-1.15593 0.812823,-1.96875 1.96875,-1.96875 h 0.71875 41.3438 c 9.30201,9.30201 18.5902,18.6179 27.9062,27.9062 v -1 c -9.31607,-9.28832 -18.6042,-18.6042 -27.9062,-27.9062 h -41.3438 -0.71875 z "/>
<path style="fill:url(#linearGradient3949)" id="path3994" d="m 14,12.0312 c -1.15593,0 -1.96875,0.812823 -1.96875,1.96875 v 9 33 17 8.28125 0.71875 c 0,1.07773 0.717552,1.83697 1.75,1.9375 0.07491,0.0073 0.140555,0.03125 0.21875,0.03125 h 5 58 5 c 0.07224,0 0.1493,-0.0086 0.21875,-0.03125 1.03245,-0.100527 1.75,-0.859768 1.75,-1.9375 v -0.71875 -8.28125 -17 -16.0625 c -9.31607,-9.28832 -18.6042,-18.6042 -27.9062,-27.9062 h -41.3438 -0.71875 z "/>
<path style="opacity:.6;fill:url(#radialGradient3920)" id="path3996" d="m 17.9062,17.0625 c -0.459951,0.04302 -0.84925,0.475575 -0.84375,0.9375 v 9 42 9 c -0.0037,0.491884 0.445616,0.941233 0.9375,0.9375 h 5 55 c 0.491884,0.0037 0.941233,-0.445616 0.9375,-0.9375 v -9 -27.4062 c -0.0027,-0.244241 -0.10626,-0.48584 -0.28125,-0.65625 l -23.5938,-23.5938 c -0.17041,-0.17499 -0.412009,-0.278532 -0.65625,-0.28125 h -36.4062 c -0.03122,-0.0016 -0.06253,-0.0016 -0.09375,0 z "/>
<path style="fill:url(#linearGradient3879)" id="path3998" d="m 18,18 0,9 0,42 0,9 5,0 55,0 0,-9 L 78,41.59375 54.40625,18 z"/>
<path style="opacity:.7;fill:#fff" id="path4000" d="m 18,18 0,9 0,42 0,9 5,0 55,0 0,-9 L 78,41.59375 54.40625,18 z m 1,1 35.03125,0 L 77,41.96875 77,69 l 0,8 -54,0 -4,0 0,-8 0,-42 z"/>
<path style="opacity:.1" id="path4002" d="m 14,12.0312 c -1.15593,0 -1.96875,0.812823 -1.96875,1.96875 v 9 33 17 8.28125 0.71875 c 0,1.07773 0.717552,1.83697 1.75,1.9375 0.07491,0.0073 0.140555,0.03125 0.21875,0.03125 h 5 58 5 c 0.07224,0 0.1493,-0.0086 0.21875,-0.03125 1.03245,-0.100527 1.75,-0.859768 1.75,-1.9375 v -0.71875 -8.28125 -17 -16.0625 c -9.31607,-9.28832 -18.6042,-18.6042 -27.9062,-27.9062 h -41.3438 -0.71875 z  m 0,.9688 h 0.71875 40.9375 c 9.11359,9.11413 18.2147,18.2408 27.3438,27.3438 v 15.6562 17 8.28125 0.71875 c 0,0.648416 -0.267049,0.909555 -0.875,0.96875 a 0.967318,0.967318 0 0,0 -0.125,0.03125 h -5 -58 -5 c 0.119302,0 0.09888,-0.0094 -0.125,-0.03125 -0.607951,-0.059195 -0.875,-0.320334 -0.875,-0.96875 v -0.71875 -8.28125 -17 -33 -9 c 0,-0.702508 0.297492,-1 1,-1 z "/>
<path style="opacity:.2" id="path4004" d="m 14,12.0312 c -1.15593,0 -1.96875,0.812823 -1.96875,1.96875 v 1 c 0,-1.15593 0.812823,-1.96875 1.96875,-1.96875 h 0.71875 41.3438 c 9.30201,9.30201 18.5902,18.6179 27.9062,27.9062 v -1 c -9.31607,-9.28832 -18.6042,-18.6042 -27.9062,-27.9062 h -41.3438 -0.71875 z "/>
</g>
<g style="display:inline;stroke:none" id="layer7">
<path style="fill:url(#linearGradient4022)" id="path4006" d="m 14,12.0312 c -1.15593,0 -1.96875,0.812823 -1.96875,1.96875 v 9 33 17 8.28125 0.71875 c 0,1.07773 0.717552,1.83697 1.75,1.9375 0.07491,0.0073 0.140555,0.03125 0.21875,0.03125 h 5 58 5 c 0.07224,0 0.1493,-0.0086 0.21875,-0.03125 1.03245,-0.100527 1.75,-0.859768 1.75,-1.9375 v -0.71875 -8.28125 -17 -16.0625 c -9.31607,-9.28832 -18.6042,-18.6042 -27.9062,-27.9062 h -41.3438 -0.71875 z "/>
<path style="opacity:.6;fill:url(#radialGradient4020)" id="path4008" d="m 17.9062,17.0625 c -0.459951,0.04302 -0.84925,0.475575 -0.84375,0.9375 v 9 42 9 c -0.0037,0.491884 0.445616,0.941233 0.9375,0.9375 h 5 55 c 0.491884,0.0037 0.941233,-0.445616 0.9375,-0.9375 v -9 -27.4062 c -0.0027,-0.244241 -0.10626,-0.48584 -0.28125,-0.65625 l -23.5938,-23.5938 c -0.17041,-0.17499 -0.412009,-0.278532 -0.65625,-0.28125 h -36.4062 c -0.03122,-0.0016 -0.06253,-0.0016 -0.09375,0 z "/>
<path style="fill:url(#linearGradient4018)" id="path4010" d="m 18,18 0,9 0,42 0,9 5,0 55,0 0,-9 L 78,41.59375 54.40625,18 z"/>
<path style="opacity:.5;fill:#fff" id="path4012" d="m 18,18 0,9 0,42 0,9 5,0 55,0 0,-9 L 78,41.59375 54.40625,18 z m 1,1 35.03125,0 L 77,41.96875 77,69 l 0,8 -54,0 -4,0 0,-8 0,-42 z"/>
<path style="opacity:.1" id="path4014" d="m 14,12.0312 c -1.15593,0 -1.96875,0.812823 -1.96875,1.96875 v 9 33 17 8.28125 0.71875 c 0,1.07773 0.717552,1.83697 1.75,1.9375 0.07491,0.0073 0.140555,0.03125 0.21875,0.03125 h 5 58 5 c 0.07224,0 0.1493,-0.0086 0.21875,-0.03125 1.03245,-0.100527 1.75,-0.859768 1.75,-1.9375 v -0.71875 -8.28125 -17 -16.0625 c -9.31607,-9.28832 -18.6042,-18.6042 -27.9062,-27.9062 h -41.3438 -0.71875 z  m 0,.9688 h 0.71875 40.9375 c 9.11359,9.11413 18.2147,18.2408 27.3438,27.3438 v 15.6562 17 8.28125 0.71875 c 0,0.648416 -0.267049,0.909555 -0.875,0.96875 a 0.967318,0.967318 0 0,0 -0.125,0.03125 h -5 -58 -5 c 0.119302,0 0.09888,-0.0094 -0.125,-0.03125 -0.607951,-0.059195 -0.875,-0.320334 -0.875,-0.96875 v -0.71875 -8.28125 -17 -33 -9 c 0,-0.702508 0.297492,-1 1,-1 z "/>
<path style="opacity:.2;fill:#117002" id="path4016" d="m 14,12.0312 c -1.15593,0 -1.96875,0.812823 -1.96875,1.96875 v 1 c 0,-1.15593 0.812823,-1.96875 1.96875,-1.96875 h 0.71875 41.3438 c 9.30201,9.30201 18.5902,18.6179 27.9062,27.9062 v -1 c -9.31607,-9.28832 -18.6042,-18.6042 -27.9062,-27.9062 h -41.3438 -0.71875 z "/>
</g>
<g style="display:none" id="layer5">
<rect width="66" x="15" y="15" rx="12" height="66" ry="12" style="opacity:.1;fill:url(#linearGradient3613);filter:url(#filter3794);stroke:#fff;stroke-linecap:round;stroke-width:.5;clip-path:url(#clipPath3613)" id="rect3171"/>
</g>
<g id="layer4">
<g style="stroke:none;color:#000">
<rect width="12" x="-657" y="1743.6378" height="1.0000159" style="opacity:.5;fill:url(#linearGradient5193)" id="use9342"/>
<rect width="7.3846202" x="-272.69141" y="1850.64" height="1.0000159" style="opacity:.5;fill:url(#linearGradient5188)" id="use9314" transform="matrix(0,1,-1,0,0,0)"/>
<rect width="24" x="44" y="36" height="16" style="fill:url(#linearGradient5353);stroke-width:5.011" id="rect8348"/>
<path style="opacity:.5;fill:url(#linearGradient5682)" id="path5677" d="m 58,36 0,16 10,0 0,-16 -10,0 z"/>
<path style="fill:url(#linearGradient5641);stroke-width:5.011" id="path5633" d="m 32,38 0,2 10,0 0,-2 z m -4,4 0,2 14,0 0,-2 z m 0,4 0,2 14,0 0,-2 z m 0,4 0,2 14,0 0,-2 z m 0,4 0,2 40,0 0,-2 z m 0,4 0,2 40,0 0,-2 z m 0,4 0,2 40,0 0,-2 z m 0,4 0,2 40,0 0,-2 z m 0,4 0,2 26,0 0,-2 z"/>
<path style="opacity:.5;fill:url(#linearGradient5338)" id="path5668" d="m 32,38 0,2 6,0 0,-2 -6,0 z m -4,4 0,2 10,0 0,-2 -10,0 z m 0,4 0,2 10,0 0,-2 -10,0 z m 0,4 0,2 10,0 0,-2 -10,0 z m 0,4 0,2 10,0 0,-2 -10,0 z m 0,4 0,2 10,0 0,-2 -10,0 z m 0,4 0,2 10,0 0,-2 -10,0 z m 0,4 0,2 10,0 0,-2 -10,0 z m 0,4 0,2 10,0 0,-2 -10,0 z"/>
<rect width="21" x="46" y="38" height="13" style="opacity:.5;fill:url(#radialGradient5537);stroke-width:5.011" id="rect5527"/>
<g id="g5473" transform="matrix(0.2631452,0,0,0.24957588,42.842258,56.488349)">
<g style="color:#000;stroke-width:2">
<rect width="75.998436" x="12.001465" y="-73.997818" height="48" style="fill:url(#linearGradient5501)" id="rect8350"/>
<path style="opacity:.5;fill:#fff" id="path9005" d="m 67.3438,-59.86 c -15.0645,6.008 -29.7788,14.2205 -39.7812,27.25 20.4792,0 39.9554,-0.9876 60.4346,-0.9876 l .003,-9.0436 c -5.06837,-4.3947 -14.4017,-15.0328 -20.6561,-17.2188 z "/>
<path style="fill:url(#linearGradient5503)" id="path8352" d="m 67.7336,-58.9303 c 5.06659,2.5332 13.8717,11.3551 20.2634,17.733 v 7.5997 h -58.2641 c 10.1346,-12.6662 25.3343,-20.2661 38.0007,-25.3327 z "/>
</g>
<path style="fill:#333" id="path8354" d="m 49.1299,-44.2056 c 0,0 0.44272,-3.5773 0.44272,-3.5773 0,0 6.65294,-2.8463 6.65294,-2.8463 0,0 3.74161,-3.4959 3.74161,-3.4959 0,0 6.57905,-2.6676 6.57905,-2.6676 0,0 -1.71689,4.3216 -1.71689,4.3216 0,0 -2.56482,4.493 -2.56482,4.493 0,0 -1.52666,4.8826 -1.52666,4.8826 0,0 -1.05581,2.8131 -1.05581,2.8131 0,0 -10.5521,-3.9232 -10.5521,-3.9232 z "/>
<g style="color:#000;stroke-width:2">
<path style="opacity:.5;fill:url(#linearGradient5505)" id="path8661" d="m 31.4375,-67.0788 c -6.44898,9.7171 -11.8593,18.5139 -19.436,27.2131 l .0676,7.0347 c 16.7812,0 44.4935,0.221 61.2747,0.221 -14.0571,-10.2048 -29.3751,-19.5806 -38.0938,-35.0312 -1.2011,1.0694 -3.04104,-0.519 -3.8125,0.5624 z "/>
<path style="fill:url(#linearGradient5507)" id="path8356" d="m 51.2674,-47.5306 c -7.58307,-6.2914 -11.3998,-11.3997 -16.4663,-18.9996 -1.48156,0.4474 -1.42497,0.2772 -2.53328,0 0,0 -6.77802,10.0696 -10.1331,15.1997 -3.3551,5.1301 -10.1346,12.6664 -10.1346,12.6664 v 5.0665 h 58.2641 c 0,0 -13.9195,-10.0546 -18.9968,-13.933 z "/>
<path style="fill:url(#linearGradient5509)" id="path8358" d="m 87.9999,-38.6641 c 0,0 -3.26563,0 -3.26563,0 0,0 -14.4673,2.5333 -14.4673,2.5333 0,0 -14.2963,-3.7999 -16.447,-3.7999 -2.11303,0 -8.88582,1.2666 -10.1532,1.2666 -0.88823,0 -6.33248,-2.5332 -7.61991,-2.5332 -2.12419,0 -4.57202,2.6915 -10.9052,3.7998 0,0 -1.81956,-4.0372 -3.00704,-3.7998 -7.59985,2.9292 -10.1346,2.5332 -10.1346,2.5332 v 12.6664 h 75.9971 c 0,0 0.002,-12.6664 0.002,-12.6664 h 0.00028 z "/>
<path style="fill:url(#linearGradient5511)" id="path8360" d="m 12.0015,-36.1308 -.001,10.1331 65.8668,0 c 0,0 2.53328,-2.5333 2.53328,-2.5333 0,0 -2.53328,-2.5332 -2.53328,-2.5332 0,0 -5.06657,-2.5334 -5.06657,-2.5334 0,0 -12.6664,-2.5332 -12.6664,-2.5332 0,0 -12.6664,-1.2667 -12.6664,-1.2667 0,0 -11.3998,1.2667 -11.3998,1.2667 0,0 -15.1997,0 -15.1997,0 0,0 -8.86648,0 -8.86648,0 z "/>
</g>
<path style="fill:#333" id="path8362" d="m 17.068,-41.1973 c 0,0 3.60932,-5.7939 3.60932,-5.7939 0,0 4.27798,-5.063 4.27798,-5.063 0,0 3.2666,-5.9502 3.2666,-5.9502 0,0 4.0458,-5.9926 4.0458,-5.9926 0,0 -2.74602,7.5677 -2.74602,7.5677 0,0 -2.01069,6.2344 -2.01069,6.2344 0,0 -0.97249,3.9328 -0.97249,3.9328 0,0 -1.81468,4.19 -1.81468,4.19 -0.73049,-0.5328 -1.65402,-0.5525 -2.4869,-0.8228 0,0 -2.37836,0.9322 -2.37836,0.9322 0,0 -2.79056,0.7654 -2.79056,0.7654 z "/>
<path style="fill:url(#linearGradient5513)" id="path8366" d="m 26.3615,-41.0854 2.7237,-6.8784 1.3284,-7.1007 1.9213,-4.3839 1.1995,-4.5486 1.665,4.6804 .473,4.4696 2.0141,3.9818 1.9966,4.5749 .3732,3.2315 -3.3537,.9414 -3.1858,-1.2421 -3.5217,2.2848 -3.6336,0 z "/>
<path style="fill:#808080" id="path8368" d="m 59.0127,-39.9261 c 0,0 -4.43728,-3.1983 -4.43728,-3.1983 0,0 -2.8341,-2.261 -2.8341,-2.261 0,0 2.75251,4.2894 2.75251,4.2894 0,0 4.51887,1.1699 4.51887,1.1699 z "/>
<g style="color:#000">
<rect width="32" x="41.997818" y="-88" height="76" style="fill:url(#radialGradient5515);stroke-width:15.997" id="rect8544" transform="matrix(0,-1,-1,0,0,0)"/>
<path style="opacity:.5;fill:#e9b913" id="path8372" d="m 448.772,1099.6875 a 7.58453,4.6875 0 0,1 -7.58453,4.6875 v -4.6875 z " transform="matrix(0,1.97771,-3.2,0,3607,-946.62)"/>
<path style="fill:url(#linearGradient5517)" id="path8374" d="m 62.7303,-42.9765 c 0,0 1.56591,-5.0425 1.56591,-5.0425 0,0 1.92131,-4.3839 1.92131,-4.3839 0,0 1.19949,-4.5482 1.19949,-4.5482 0,0 1.66502,4.6803 1.66502,4.6803 0,0 2.13549,3.9947 2.13549,3.9947 0,0 1.5391,3.9818 1.5391,3.9818 0,0 -0.2199,4.2582 -0.2199,4.2582 0,0 2.11487,2.1231 2.11487,2.1231 0,0 -4.35374,-0.2356 -4.35374,-0.2356 0,0 -8.78699,-1.8183 -8.78699,-1.8183 0,0 1.21952,-3.0101 1.21952,-3.0101 z "/>
</g>
<path style="fill:url(#linearGradient5519)" id="path8376" d="m 52.534,-41.1973 c 0,0 -3.68849,-5.5898 -3.68849,-5.5898 0,0 -6.54106,-7.1331 -6.54106,-7.1331 0,0 -5.41174,-7.1153 -5.41174,-7.1153 0,0 -2.09167,-2.9615 -2.09167,-2.9615 0,0 2.267,7.6889 2.267,7.6889 0,0 2.48629,4.611 2.48629,4.611 0,0 2.2055,7.0438 2.2055,7.0438 0,0 0.64107,3.456 0.64107,3.456 0,0 2.27708,0.763 2.27708,0.763 0,0 3.48079,-0.8064 3.48079,-0.8064 1.46126,-0.1444 2.92258,0.026 4.37523,0.044 z "/>
<g style="color:#000">
<path style="fill:url(#linearGradient5521)" id="path8378" d="m 86.9708,-40.1684 c 0,0 -2.97601,-1.7897 -2.97601,-1.7897 0,0 -4.16611,-5.7083 -4.16611,-5.7083 0,0 -6.12423,-5.2942 -6.12423,-5.2942 0,0 -4.78328,-3.9905 -4.78328,-3.9905 0,0 0.92119,3.3345 0.92119,3.3345 0,0 4.22793,6.6695 4.22793,6.6695 0,0 0.46386,6.0147 0.46386,6.0147 0,0 2.54103,1.9517 2.54103,1.9517 0,0 5.69988,-1.1083 5.69988,-1.1083 l 4.1957,-.078 z "/>
<g style="stroke-width:2">
<path style="fill:url(#linearGradient5523)" id="path8380" d="m 12.0272,-33.5313 -.0257,7.5336 63.332,0 0,-2.5333 -2.5333,-2.5332 -12.6664,-2.5334 -12.6664,-1.2665 -12.6664,1.2665 -13.7091,.3778 z "/>
<path style="fill:#0088b7" id="path9073" d="m 47.5017,-36.0647 -12.7204,1.4419 -13.569,1.0378 -8.2752,.029 8.1567,.3393 13.9839,-.021 12.3911,-1.2813 12.6875,1.209 5.6441,1.101 6.9496,1.6177 2.2812,2.1875 .3125,2.4063 1.1562,0 .2051,-2.7873 -3.4111,-3.2617 -13.2001,-2.4813 z "/>
</g>
</g>
<path style="opacity:.5;fill:#1c99e0" id="path8382" d="m 39.8676,-28.531 c 0,0 2.5333,-2.5332 2.5333,-2.5332 0,0 10.1331,0 10.1331,0 0,0 7.59984,2.5332 7.59984,2.5332 0,0 2.53329,2.5333 2.53329,2.5333 0,0 -5.06655,0 -5.06655,0 0,0 -17.733,-2.5333 -17.733,-2.5333 z "/>
<path style="opacity:.4;fill:#fff" id="path8616" d="m 34.8125,-63.9978 1.5625,5.9062 c 1.28434,2.3781 3.8039,3.3846 5.88388,5.4107 3.00348,2.9257 6.33881,6.3819 7.61612,7.4956 l -1.0312,-1.5938 -6.5312,-7.1562 -5.4062,-7.0938 z "/>
<path style="opacity:.25" id="path8644" d="m 32.2812,-63.9978 -3.2696,7.6132 -3.2616,9.1368 -3.5736,4.3728 c 0.51396,0.1149 2.10574,0.4962 2.54235,0.8147 l 1.8125,-4.1875 .9688,-3.9375 2.0312,-6.25 z "/>
<path style="opacity:.35;fill:#ff0" id="path8669" d="m 36.0312,-41.1853 c -2.06881,0 -4.43308,2.5305 -10.4062,3.6875 l -.2188,.125 c 0.10772,0.037 0.48667,0.1051 1.8125,-0.094 1.76776,-0.2652 8.0599,-2.9322 9.5625,-2.8437 1.5026,0.088 5.99111,2.6508 6.875,2.5625 0.88388,-0.089 9.37776,-1.3224 10.9688,-0.9688 1.59099,0.3535 16.1875,3.625 16.1875,3.625 l 13.9375,-2.5625 3.25,.094 v -1.0938 h -3.28125 l -14.4375,2.5313 c 0,0 -14.3181,-3.8125 -16.4688,-3.8125 -2.11303,0 -8.88888,1.2812 -10.1562,1.2812 -0.88823,0 -6.33757,-2.5312 -7.625,-2.5312 z "/>
<g style="color:#000">
<path style="opacity:.74;fill:url(#linearGradient5525)" id="path9046" d="m 448.772,1099.6875 a 7.58453,4.6875 0 0,1 -7.58453,4.6875 v -4.6875 z " transform="matrix(0,1.71401,-2.77333,0,3137.8,-830.2)"/>
<path style="opacity:.5;fill:#fff" id="path9050" d="m 72,-73.9978 c 0,8.8432 7.15662,16 16,16 v -0.9884 c -8.29749,0 -15.0116,-6.7142 -15.0116,-15.0116 h -0.98842 z "/>
</g>
<g style="fill:#fff">
<path style="opacity:.4" id="path9064" d="m 68.9062,-56.9666 .9375,3.3438 4.2188,6.6875 .4688,6 2.5312,1.9687 .4375,-.094 -2.25,-2.25 -.4375,-5.75 -2.4129,-3.709 6.4754,3.459 5.125,5.3437 -4.1562,-5.6875 -6.125,-5.3125 z  m 15.0938,15 .25,.2813 -.0625,-.1563 z "/>
<path style="opacity:.35;color:#000;stroke-width:2" id="rect9059" d="m 12,-73.9978 0,48 76,0 0,-48 -76,0 z m 1,1 74,0 0,46 -74,0 0,-46 z"/>
</g>
</g>
<path style="opacity:.5;fill:url(#linearGradient5672)" id="path5670" d="m 58,54 0,2 10,0 0,-2 -10,0 z m 0,4 0,2 10,0 0,-2 -10,0 z m 0,4 0,2 10,0 0,-2 -10,0 z m 0,4 0,2 10,0 0,-2 -10,0 z"/>
</g>
</g>
</svg>
