<svg width="96" version="1.0" xmlns="http://www.w3.org/2000/svg" height="96" xmlns:xlink="http://www.w3.org/1999/xlink">
<defs id="defs2410">
<clipPath id="clipPath3613">
<rect width="84" x="6" y="6" rx="6" height="84" ry="6" style="fill:#fff;stroke:none" id="rect3615"/>
</clipPath>
<filter width="1.3839999" x="-0.192" y="-0.192" height="1.3839999" style="color-interpolation-filters:sRGB" id="filter3794">
<feGaussianBlur stdDeviation="5.28" id="feGaussianBlur3796"/>
</filter>
<filter style="color-interpolation-filters:sRGB" id="filter3174">
<feGaussianBlur stdDeviation="1.71" id="feGaussianBlur3176"/>
</filter>
<linearGradient id="linearGradient8984">
<stop offset="0" style="stop-color:#fff" id="stop8986"/>
<stop offset="1" style="stop-color:#fff;stop-opacity:0" id="stop8988"/>
</linearGradient>
<linearGradient id="linearGradient8663">
<stop offset="0" style="stop-color:#9207a7" id="stop8665"/>
<stop offset="0.27254906" style="stop-color:#c658bc" id="stop8667"/>
<stop offset="0.50966245" style="stop-color:#a42eb6" id="stop8669"/>
<stop offset="0.83376038" style="stop-color:#b415cd" id="stop8671"/>
<stop offset="1" style="stop-color:#950ba8" id="stop8673"/>
</linearGradient>
<linearGradient gradientTransform="matrix(15.9995,0,0,15.9955,-279.247,-17311.2)" id="linearGradient21863" xlink:href="#linearGradient14486-9" y1="992.62183" x1="26.993208" y2="1008.6921" x2="26.993208" gradientUnits="userSpaceOnUse"/>
<linearGradient id="linearGradient14494">
<stop offset="0" style="stop-color:#dc85e9" id="stop14496"/>
<stop offset="1" style="stop-color:#f2cbf8" id="stop14498"/>
</linearGradient>
<linearGradient id="linearGradient8964">
<stop offset="0" style="stop-color:#e196fb" id="stop8966"/>
<stop offset="0.13010512" style="stop-color:#f4c7fa" id="stop8968"/>
<stop offset="0.31360075" style="stop-color:#e091f3" id="stop8970"/>
<stop offset="0.44078669" style="stop-color:#d764e9" id="stop8972"/>
<stop offset="0.68364757" style="stop-color:#e7adf0" id="stop8974"/>
<stop offset="0.75620717" style="stop-color:#e6a9f8" id="stop8976"/>
<stop offset="0.88021636" style="stop-color:#e595f2" id="stop8978"/>
<stop offset="1" style="stop-color:#f2cbf8" id="stop8980"/>
</linearGradient>
<linearGradient id="linearGradient4022" xlink:href="#linearGradient4030" y1="88" x1="32" y2="8" x2="32" gradientUnits="userSpaceOnUse"/>
<linearGradient id="linearGradient8074-2">
<stop offset="0" style="stop-opacity:0" id="stop8076-1"/>
<stop offset="0.49305555" id="stop8078-94"/>
<stop offset="1" style="stop-opacity:0" id="stop8080-0"/>
</linearGradient>
<linearGradient id="linearGradient8717">
<stop offset="0" style="stop-color:#800080" id="stop8719"/>
<stop offset="0.7268371" style="stop-color:#800080" id="stop8723"/>
<stop offset="1" style="stop-color:#f0f;stop-opacity:0" id="stop8721"/>
</linearGradient>
<linearGradient gradientTransform="matrix(0.0458673,0,0,1,-271.91178,3045.2778)" id="linearGradient5188" xlink:href="#linearGradient8074-2" y1="-1194.6378" x1="-17" y2="-1194.6378" x2="144" gradientUnits="userSpaceOnUse"/>
<linearGradient id="linearGradient8754">
<stop offset="0" style="stop-color:#dc85e9" id="stop8756"/>
<stop offset="1" style="stop-color:#f8dcfb" id="stop8758"/>
</linearGradient>
<linearGradient id="linearGradient8742">
<stop offset="0" style="stop-color:#9200ff" id="stop8744"/>
<stop offset="1" style="stop-color:#f0f;stop-opacity:0" id="stop8746"/>
</linearGradient>
<linearGradient gradientTransform="matrix(0.07453431,0,0,1,-655.73308,2938.2756)" id="linearGradient5193" xlink:href="#linearGradient8074-2" y1="-1194.6378" x1="-17" y2="-1194.6378" x2="144" gradientUnits="userSpaceOnUse"/>
<linearGradient gradientTransform="matrix(15.9995,0,0,15.9955,-279.247,-17311.2)" id="linearGradient21859" xlink:href="#linearGradient14486-9" y1="992.62183" x1="26.993208" y2="1008.6921" x2="26.993208" gradientUnits="userSpaceOnUse"/>
<linearGradient gradientTransform="matrix(0.59554669,0,0,0.59554669,-207.49419,-525.5514)" id="linearGradient4462" xlink:href="#linearGradient8964" y1="970.5" x1="453.50003" y2="970.5" x2="404.49997" gradientUnits="userSpaceOnUse"/>
<linearGradient id="linearGradient14486-9">
<stop offset="0" style="stop-color:#8e03a3" id="stop14488-1"/>
<stop offset="1" style="stop-color:#530260" id="stop14490-5"/>
</linearGradient>
<linearGradient gradientTransform="matrix(0.59554669,0,0,0.59554669,-207.49419,-526.17287)" id="linearGradient4482" xlink:href="#linearGradient8663" y1="970.5" x1="453.50003" y2="970.5" x2="404.49997" gradientUnits="userSpaceOnUse"/>
<linearGradient id="linearGradient4514" xlink:href="#linearGradient4508" y1="50.26075" x1="34" y2="50.26075" x2="62" gradientUnits="userSpaceOnUse"/>
<linearGradient gradientTransform="translate(0,6)" id="linearGradient4518" xlink:href="#linearGradient4508" y1="50.26075" x1="34" y2="50.26075" x2="62" gradientUnits="userSpaceOnUse"/>
<linearGradient gradientTransform="matrix(0.39211044,0,0,0.30769216,-538.81119,-9.3084927)" id="linearGradient4488" xlink:href="#linearGradient8984" y1="169.00002" x1="1510.4767" y2="193.9996" x2="1485.8766" gradientUnits="userSpaceOnUse"/>
<linearGradient gradientTransform="matrix(0.59554669,0,0,0.59554669,-207.49419,-524.91132)" id="linearGradient4460" xlink:href="#linearGradient8964" y1="970.5" x1="453.50003" y2="970.5" x2="404.49997" gradientUnits="userSpaceOnUse"/>
<linearGradient gradientTransform="translate(0,12)" id="linearGradient4522" xlink:href="#linearGradient4508" y1="50.26075" x1="34" y2="50.26075" x2="62" gradientUnits="userSpaceOnUse"/>
<linearGradient gradientTransform="matrix(0.59554669,0,0,0.59554669,-207.49419,-524.27124)" id="linearGradient4448" xlink:href="#linearGradient8964" y1="970.5" x1="453.50003" y2="970.5" x2="404.49997" gradientUnits="userSpaceOnUse"/>
<linearGradient gradientTransform="matrix(15.9995,0,0,15.9955,-279.247,-17311.2)" id="linearGradient21861" xlink:href="#linearGradient14486-9" y1="992.62183" x1="26.993208" y2="1008.6921" x2="26.993208" gradientUnits="userSpaceOnUse"/>
<linearGradient gradientTransform="matrix(0.53333333,0,0,4.25,-762.93333,-952.25935)" id="linearGradient4323" xlink:href="#linearGradient8742" y1="184" x1="1559.5" y2="184" x2="1542.0002" gradientUnits="userSpaceOnUse"/>
<linearGradient gradientTransform="matrix(-0.53333333,0,0,4.25,858.93333,-952.25935)" id="linearGradient4328" xlink:href="#linearGradient8742" y1="184" x1="1559.5" y2="184" x2="1542.0002" gradientUnits="userSpaceOnUse"/>
<linearGradient gradientTransform="matrix(0.85714285,0,0,0.66667325,-990.28584,794.43123)" id="linearGradient4301" xlink:href="#linearGradient8754" y1="-1083.6361" x1="1199.2002" y2="-1131.6356" x2="1199.2002" gradientUnits="userSpaceOnUse"/>
<linearGradient id="linearGradient4018" xlink:href="#linearGradient4036" y1="80" x1="48" y2="16" x2="48" gradientUnits="userSpaceOnUse"/>
<linearGradient gradientTransform="scale(1.0058652,0.994169)" id="ButtonShadow" y1="92.539597" x1="45.447727" y2="7.0165396" x2="45.447727" gradientUnits="userSpaceOnUse">
<stop offset="0" id="stop3750"/>
<stop offset="1" style="stop-opacity:.588" id="stop3752"/>
</linearGradient>
<linearGradient gradientTransform="translate(100,0)" id="linearGradient3047" xlink:href="#linearGradient3700" y1="90" x1="48" y2="5.9877172" x2="48" gradientUnits="userSpaceOnUse"/>
<linearGradient id="linearGradient3737">
<stop offset="0" style="stop-color:#fff" id="stop3739"/>
<stop offset="1" style="stop-color:#fff;stop-opacity:0" id="stop3741"/>
</linearGradient>
<linearGradient id="linearGradient3613" xlink:href="#linearGradient3737" y1="20.220806" x1="48" y2="138.66119" x2="48" gradientUnits="userSpaceOnUse"/>
<linearGradient id="linearGradient3700">
<stop offset="0" style="stop-color:#2276c5" id="stop3702"/>
<stop offset="1" style="stop-color:#68baf4" id="stop3704"/>
</linearGradient>
<linearGradient id="linearGradient3856">
<stop offset="0" style="stop-color:#b3b3b3" id="stop3858"/>
<stop offset="1" style="stop-color:#e6e6e6" id="stop3860"/>
</linearGradient>
<linearGradient id="linearGradient4508">
<stop offset="0" style="stop-color:#fff" id="stop4510"/>
<stop offset="1" style="stop-color:#fff;stop-opacity:0" id="stop4512"/>
</linearGradient>
<linearGradient id="linearGradient3873">
<stop offset="0" style="stop-color:#dfdfdf" id="stop3875"/>
<stop offset="1" style="stop-color:#fefefe" id="stop3877"/>
</linearGradient>
<linearGradient id="linearGradient4110">
<stop offset="0" style="stop-color:#a240b0" id="stop4112"/>
<stop offset="1" style="stop-color:#70247c" id="stop4114"/>
</linearGradient>
<linearGradient id="linearGradient4030">
<stop offset="0" style="stop-color:#97c08f" id="stop4032"/>
<stop offset="1" style="stop-color:#b4d6af" id="stop4034"/>
</linearGradient>
<linearGradient id="linearGradient3914">
<stop offset="0" id="stop3916"/>
<stop offset="1" style="stop-opacity:0" id="stop3918"/>
</linearGradient>
<linearGradient id="linearGradient4036">
<stop offset="0" style="stop-color:#b1d5ac" id="stop4038"/>
<stop offset="1" style="stop-color:#f1faef" id="stop4040"/>
</linearGradient>
<linearGradient gradientTransform="matrix(1.0058652,0,0,0.994169,100,0)" id="ButtonShadow-0" y1="92.539597" x1="45.447727" y2="7.0165396" x2="45.447727" gradientUnits="userSpaceOnUse">
<stop offset="0" id="stop3750-8"/>
<stop offset="1" style="stop-opacity:.588" id="stop3752-5"/>
</linearGradient>
<linearGradient id="linearGradient3927" xlink:href="#ButtonShadow-0" y1="94" x1="38" y2="5" x2="38" gradientUnits="userSpaceOnUse"/>
<linearGradient id="linearGradient3074" xlink:href="#linearGradient4110" y1="8" x1="72" y2="88" x2="72" gradientUnits="userSpaceOnUse"/>
<linearGradient id="linearGradient3929" xlink:href="#ButtonShadow-0" y1="95" x1="45" y2="4" x2="45" gradientUnits="userSpaceOnUse"/>
<linearGradient id="linearGradient3940" xlink:href="#ButtonShadow-0" y1="93" x1="47" y2="6" x2="47" gradientUnits="userSpaceOnUse"/>
<linearGradient id="linearGradient3949" xlink:href="#linearGradient3856" y1="88" x1="32" y2="8" x2="32" gradientUnits="userSpaceOnUse"/>
<linearGradient id="linearGradient3933" xlink:href="#ButtonShadow-0" y1="92" x1="50" y2="7" x2="50" gradientUnits="userSpaceOnUse"/>
<linearGradient id="linearGradient3920" xlink:href="#ButtonShadow-0" y1="91" x1="49" y2="7" x2="49" gradientUnits="userSpaceOnUse"/>
<linearGradient id="linearGradient3872" xlink:href="#linearGradient4110" y1="6" x1="32" y2="90" x2="32" gradientUnits="userSpaceOnUse"/>
<linearGradient id="linearGradient3885" xlink:href="#linearGradient3737" y1="6" x1="36.357143" y2="63.893143" x2="36.357143" gradientUnits="userSpaceOnUse"/>
<linearGradient gradientTransform="translate(0,-20)" id="linearGradient3901" xlink:href="#linearGradient3737" y1="26" x1="32" y2="84" x2="32" gradientUnits="userSpaceOnUse"/>
<linearGradient id="linearGradient3879" xlink:href="#linearGradient3873" y1="80" x1="48" y2="16" x2="48" gradientUnits="userSpaceOnUse"/>
<radialGradient fx="47.999981" fy="47.999424" cx="47.999981" cy="47.999424" gradientTransform="matrix(1.3452582,-3.8835319e-8,3.3050848e-8,1.1448837,-16.572388,-6.9543292)" r="34.937546" id="radialGradient4020" xlink:href="#linearGradient3914" gradientUnits="userSpaceOnUse"/>
<radialGradient fx="47.995335" fy="46.440277" cx="47.995335" cy="46.440277" gradientTransform="matrix(1,0,0,0.25495832,0,34.599943)" r="13.995334" id="radialGradient4484" xlink:href="#linearGradient14494" gradientUnits="userSpaceOnUse"/>
<radialGradient fx="47.999981" fy="47.999424" cx="47.999981" cy="47.999424" gradientTransform="matrix(1.3452582,-3.8835319e-8,3.3050848e-8,1.1448837,-16.572388,-6.9543292)" r="34.937546" id="radialGradient3920" xlink:href="#linearGradient3914" gradientUnits="userSpaceOnUse"/>
<radialGradient fx="152.3331" fy="-754.6377" cx="152.3331" cy="-754.6377" gradientTransform="matrix(1.2696438e-6,0.47379733,-1.3366718,0,-960.75315,-7.278409)" r="15" id="radialGradient4155" xlink:href="#linearGradient8717" gradientUnits="userSpaceOnUse"/>
<radialGradient fx="48" fy="90.171875" cx="48" cy="90.171875" gradientTransform="matrix(1.1573129,0,0,0.99590774,-7.551021,0.19713193)" r="42" id="radialGradient3879" xlink:href="#linearGradient3737" gradientUnits="userSpaceOnUse"/>
</defs>
<g style="display:none" id="layer2">
<rect width="86" x="5" y="7" rx="6" height="85" ry="6" style="opacity:.9;fill:url(#ButtonShadow);filter:url(#filter3174);stroke:none" id="rect3745"/>
</g>
<g style="stroke:none" id="layer3">
<path style="opacity:.08;fill:url(#linearGradient3929)" id="path3911" d="m 55.1875,4.0312 c -1.58689,0.01273 -3.1348,0.183481 -4.5,0.0625 a 0.864174,0.864174 0 0,0 -0.0625,0 h -38.9375 c -3.41584,0.013813 -6.21449,2.06861 -7.90625,4.75 -1.17029,1.85487 -1.92207,4.09865 -1.65625,6.4375 h -0.03125 c 0.020721,23.5443 -0.041587,47.0762 0.03125,70.625 a 0.864174,0.864174 0 0,0 0,0.0625 c 0.129911,1.45786 0.642783,2.79124 1.34375,3.96875 6.85e-05,0.000154 -0.021457,-0.07213 -0.03125,-0.125 0.029603,0.08798 0.0497,0.149646 0.0625,0.1875 0.00647,0.01101 0.022369,0.01648 0.03125,0.03125 0.00759,0.01244 0.023609,0.01885 0.03125,0.03125 a 0.864174,0.864174 0 0,0 0.0625,0.09375 c 0.01166,0.01455 0.021588,0.02031 0.03125,0.03125 0.0058,0.0066 -0.00442,0.02694 0,0.03125 0.00352,0.0055 0.027722,-0.0055 0.03125,0 a 0.864174,0.864174 0 0,0 0.03125,0.03125 c 0.011239,0.009 0.021767,0.02426 0.03125,0.03125 1.93897,2.96031 5.35978,4.946 9.03125,4.625 0.03167,-0.0028 0.06205,0.0031 0.09375,0 24.0039,-0.02052 48.0231,0.04148 72.0312,-0.03125 a 0.864174,0.864174 0 0,0 0.0625,0 c 5.23269,-0.424353 9.36364,-5.34888 8.9375,-10.625 -0.0026,-0.03164 0.0029,-0.06208 0,-0.09375 v -43.8125 a 0.864174,0.864174 0 0,0 -0.0625,-0.25 c -0.719482,-2.37576 -2.2897,-4.16664 -3.96875,-5.75 -0.0898,-0.08468 -0.159649,-0.16622 -0.25,-0.25 2.21794,-0.09 4.34555,-1.87861 4.25,-4.3125 -0.00096,-0.02446 0.03266,-0.03792 0.03125,-0.0625 -0.07568,-5.67394 0.162469,-11.4144 -0.125,-17.1562 a 0.864174,0.864174 0 0,0 -0.03125,-0.0625 c -0.679074,-5.34934 -6.00802,-9.05514 -11.2812,-8.375 v -0.03125 h -14.875 a 0.864174,0.864174 0 0,0 -0.03125,0 c -2.43157,0.09487 -3.93398,2.36719 -3.875,4.5625 -1.18296,-1.15199 -2.34086,-2.32457 -3.53125,-3.46875 a 0.864174,0.864174 0 0,0 -0.15625,-0.125 c -1.55238,-0.890707 -3.23143,-1.04393 -4.8125,-1.03125 z  m -51.75,85.3438 c -0.011805,0.08495 -0.021775,0.15025 -0.03125,0.21875 -0.00282,-0.01512 3.1e-06,-0.06256 0,-0.0625 -9.2e-06,0.000178 0.00988,-0.07797 0.03125,-0.15625 z "/>
<path style="opacity:.1;fill:url(#linearGradient3927)" id="path3904" d="m 11.6875,4.9688 c -5.25543,0.0212519 -9.38439,5.1638 -8.71875,10.2979 0.0207228,23.5464 -0.0415773,47.0941 0.03125,70.6396 0.42997,4.82511 5.00259,8.59446 9.79456,8.125 24.0371,-0.02076 48.0755,0.04156 72.1117,-0.03125 4.75515,-0.385626 8.56319,-4.94691 8.125,-9.75999 0,-14.6321 0,-29.2642 0,-43.8963 -1.30325,-4.30336 -5.82883,-6.63982 -8.59097,-10.0247 -8.30204,-8.15132 -16.4879,-16.431 -24.8735,-24.4911 -2.70571,-1.55245 -5.95617,-0.595542 -8.93126,-0.859189 -12.9827,0 -25.9654,0 -38.948,0 z  m 55.9062,0 c -2.75917,0.107652 -4.21594,3.91814 -2.21875,5.8125 7.42882,7.28443 14.7592,14.7093 22.25,21.9062 2.14699,1.60078 5.56046,-0.220208 5.40625,-2.90625 -0.0787,-5.72616 0.160862,-11.4778 -0.125,-17.1875 -0.617749,-4.86626 -5.59301,-8.31304 -10.4262,-7.625 -4.96209,0 -9.92419,0 -14.8863,0 z  m -62.9688,4.25 c -0.664712,0.701583 -0.2456,-0.131182 0,0 z  m -.375,80.3438 c 0.89304,0.481702 0.104348,0.183981 0,0 z "/>
<path style="opacity:.2;fill:url(#linearGradient3940)" id="path3899" d="m 11.7188,6.0312 c -4.67493,0.016024 -8.33591,4.64959 -7.6875,9.20536 0.020755,23.5251 -0.041623,47.0518 0.03125,70.5759 0.078659,2.31096 1.99913,4.95902 3.5,5.8125 3.32511,2.20027 7.4995,1.05993 11.2446,1.34375 22.0016,-0.02075 44.0048,0.04153 66.0054,-0.03125 4.47154,-0.328201 7.72929,-4.80283 7.15625,-9.17411 0,-14.4315 0,-28.8631 0,-43.2946 -1.43331,-3.95496 -5.65942,-6.19157 -8.27784,-9.39907 -8.25118,-8.11498 -16.4129,-16.329 -24.7309,-24.3712 -2.48361,-1.25729 -5.41628,-0.428981 -8.11184,-0.667243 -13.0432,0 -26.0863,0 -39.1295,0 z  m 55.9688,0 c -2.20519,0.107539 -2.96628,3.27281 -1.11696,4.44148 7.23986,7.09655 14.3732,14.3261 21.6795,21.3398 1.83649,1.3232 4.24848,-0.713747 3.71875,-2.77321 -0.09408,-5.54138 0.194785,-11.1094 -0.15625,-16.633 -0.734258,-4.23962 -5.14624,-6.94456 -9.29643,-6.375 -4.94286,0 -9.88571,0 -14.8286,0 z "/>
<path style="opacity:.3;fill:url(#linearGradient3933)" id="path3883" d="m 11.75,7 c -4.16698,0.0345334 -7.35035,4.169 -6.75,8.2092 0.0208047,23.503 -0.0417012,47.0077 0.03125,70.5096 0.305206,3.97763 4.30152,6.81532 8.16979,6.28125 23.839,-0.020761 47.6798,0.041565 71.5177,-0.03125 3.99484,-0.299314 6.81024,-4.31576 6.28125,-8.17795 0,-14.4094 1e-06,-28.8189 0,-43.2283 -1.61305,-3.59521 -5.48779,-5.77905 -7.99601,-8.80475 -8.20444,-8.08132 -16.3435,-16.2354 -24.5998,-24.2603 -2.30027,-0.985392 -4.95833,-0.288199 -7.41898,-0.497501 -13.0784,0 -26.1568,0 -39.2353,0 z  m 56.0312,0 c -1.584,0.121874 -1.65926,2.31059 -0.359006,2.94753 7.16444,7.02428 14.2253,14.1753 21.4542,21.1207 1.3987,0.747222 2.54336,-0.938528 2.12354,-2.22308 -0.094791,-5.41372 0.196057,-10.8578 -0.15625,-16.2514 -0.632604,-3.79506 -4.62029,-6.11498 -8.29479,-5.59375 -4.92257,0 -9.84514,0 -14.7677,0 z "/>
<path style="opacity:.45;fill:url(#linearGradient3920)" id="path3873" d="m 12,7 c -3.324,0 -6,2.676 -6,6 v 11 50 11 c 0,3.324 2.676,6 6,6 h 7 65 c 3.324,0 6,-2.676 6,-6 v -0.71875 -10.2812 -33.5625 c 0.0048,-0.09367 0.0048,-0.187581 0,-0.28125 -0.06619,-0.633386 -0.358634,-1.24077 -0.8125,-1.6875 -9.5355,-9.56872 -21.1041,-21.1041 -30.6562,-30.6562 -0.454532,-0.460211 -1.07463,-0.753347 -1.71875,-0.8125 h -44.0938 -0.71875 z  m 55.3125,0 a 1.40991,1.40991 0 0,0 -0.84375,2.40625 l 21.125,21.125 a 1.40991,1.40991 0 0,0 2.40625,-0.90625 1.40991,1.40991 0 0,0 0,-0.09375 v -12.5312 -3.71875 -0.28125 c 0,-3.324 -2.676,-6 -6,-6 h -16.6875 z "/>
</g>
<g style="stroke:none" id="layer1">
<path style="fill:url(#linearGradient3872)" id="path3054" d="m 12,6 c -3.324,0 -6,2.676 -6,6 v 11 50 11 c 0,3.324 2.676,6 6,6 h 7 65 c 3.324,0 6,-2.676 6,-6 v -0.71875 -10.2812 -33.5625 c 0.0048,-0.09367 0.0048,-0.187581 0,-0.28125 -0.06619,-0.633386 -0.358634,-1.24077 -0.8125,-1.6875 -9.5355,-9.56872 -21.1041,-21.1041 -30.6562,-30.6562 -0.454532,-0.460211 -1.07463,-0.753347 -1.71875,-0.8125 h -44.0938 z "/>
<path style="fill:url(#linearGradient3074)" id="rect2419" d="m 67.3125,6 a 1.40991,1.40991 0 0,0 -0.84375,2.40625 l 21.125,21.125 a 1.40991,1.40991 0 0,0 2.40625,-0.90625 1.40991,1.40991 0 0,0 0,-0.09375 v -12.5312 -3.71875 -0.28125 c 0,-3.324 -2.676,-6 -6,-6 h -16.6875 z "/>
<path style="opacity:.2;fill:url(#radialGradient3879)" id="path3615" d="M 10.15625,6.34375 C 9.854723,6.440553 9.559795,6.547888 9.28125,6.6875 8.72416,6.966724 8.221197,7.353194 7.78125,7.78125 7.561276,7.995278 7.371884,8.223115 7.1875,8.46875 7.003116,8.714385 6.832092,8.976493 6.6875,9.25 6.573695,9.4652707 6.465683,9.6801347 6.375,9.90625 6.35403,9.958535 6.33107,10.008455 6.3125,10.0625 c -0.01036,0.03015 -0.02135,0.06337 -0.03125,0.09375 -0.006,0.01873 0.0058,0.04369 0,0.0625 -0.02154,0.07131 -0.04532,0.145178 -0.0625,0.21875 -0.04593,0.196664 -0.09198,0.393321 -0.125,0.59375 C 6.04135,11.3493 6,11.665279 6,12 l 0,2 0,9 0,50 0,9 0,2 c 0,3.324 2.676,6 6,6 l 7,0 65,0 c 3.324,0 6,-2.676 6,-6 L 90,83.28125 90,82 90,73 90,37.4375 a 2.772031,2.772031 0 0 0 0,-0.28125 2.772031,2.772031 0 0 0 -0.8125,-1.6875 L 89,35.28125 89,81 l 0,2 c 0,2.781848 -2.218152,5 -5,5 l -2,0 -68,0 -2,0 C 9.218152,88 7,85.781848 7,83 L 7,81 7,13 7,11 C 7,10.635705 7.05212,10.279012 7.125,9.9375 7.14836,9.828031 7.18842,9.731618 7.21875,9.625 7.24545,9.530581 7.24943,9.4357 7.28125,9.34375 7.28895,9.3218 7.3045,9.30306 7.3125,9.28125 7.38808,9.071951 7.492742,8.850956 7.59375,8.65625 7.65102,8.548267 7.71649,8.446782 7.78125,8.34375 7.8053,8.30462 7.81866,8.25713 7.84375,8.21875 7.93786,8.077785 8.048671,7.942755 8.15625,7.8125 c 0.15254,-0.185862 0.32207,-0.369817 0.5,-0.53125 0.09922,-0.088888 0.206327,-0.1692 0.3125,-0.25 0.112727,-0.086487 0.223355,-0.1733 0.34375,-0.25 0.03146,-0.01999 0.06182,-0.0432 0.09375,-0.0625 0.0074,-0.0045 0.02385,0.0044 0.03125,0 0.232039,-0.138728 0.462548,-0.274778 0.71875,-0.375 z"/>
<rect width="84" x="106" y="6" rx="6" height="84" ry="6" style="fill:url(#linearGradient3047)" id="rect3045"/>
<path style="fill:#f0f" id="path3049" d="m 114,6 26,26 0,4 -30,-30 z"/>
<path style="opacity:.3;fill:url(#linearGradient3885)" id="path3881" d="m 67.3125,6 a 1.40991,1.40991 0 0,0 -1.125,2 h 15.8125 2 c 2.78185,0 5,2.21815 5,5 v 2 14.875 a 1.40991,1.40991 0 0,0 1,-1.125 1.40991,1.40991 0 0,0 0,-0.125 1.40991,1.40991 0 0,0 0,-0.09375 v -12.5312 -2 -1.71875 -0.28125 c 0,-3.324 -2.676,-6 -6,-6 h -16.6875 z "/>
<path style="opacity:.3;fill:url(#linearGradient3901)" id="path3888" d="m 12,6 c -3.324,0 -6,2.676 -6,6 v 11 50 11 c 0,2.9085 2.04223,5.31735 4.78125,5.875 -2.20512,-0.53621 -3.8125,-2.49084 -3.8125,-4.875 v -11 -50 -11 c 0,-2.80489 2.22636,-5.03125 5.03125,-5.03125 h 0.71875 44 0.09375 c 0.01105,0.0018 0.01709,0.02303 0.0625,0.03125 0.107322,0.01943 0.05104,0.0025 0.15625,0.03125 0.105213,0.02873 0.05395,-0.0066 0.15625,0.03125 0.1023,0.03782 0.05765,0.01589 0.15625,0.0625 0.0986,0.04661 0.03085,0.0074 0.125,0.0625 0.09415,0.05505 0.03602,0.03068 0.125,0.09375 0.08898,0.06307 0.04187,0.02315 0.125,0.09375 0.08313,0.0706 0.04836,0.0474 0.125,0.125 9.56871,9.5355 21.1041,21.1041 30.6562,30.6562 0.07653,0.07532 0.05524,0.04337 0.125,0.125 0.06976,0.08163 0.03127,0.03767 0.09375,0.125 0.06248,0.08733 0.0078,0.03262 0.0625,0.125 0.05473,0.09238 0.04717,0.02825 0.09375,0.125 0.04658,0.09675 0.02441,0.05585 0.0625,0.15625 0.03809,0.100399 0.0019,0.0217 0.03125,0.125 0.02931,0.103304 0.01094,0.05081 0.03125,0.15625 0.0164,0.08517 0.02694,0.08025 0.03125,0.125 0.0011,0.02106 -0.000344,0.02472 0,0.03125 0.000689,0.01307 0,0.02033 0,0.0625 0,0.06326 0.0032,-0.000676 0,0.0625 -0.000673,0.02083 -0.000673,0.04167 0,0.0625 v 33.5625 10.2812 0.71875 c 0,2.38416 -1.60738,4.33879 -3.8125,4.875 2.73902,-0.55765 4.78125,-2.9665 4.78125,-5.875 v -0.71875 -10.2812 -33.5625 c 0.0048,-0.09367 0.0048,-0.187581 0,-0.28125 -0.06619,-0.633386 -0.358634,-1.24077 -0.8125,-1.6875 -9.5355,-9.56872 -21.1041,-21.1041 -30.6562,-30.6562 -0.454532,-0.460211 -1.07463,-0.753347 -1.71875,-0.8125 h -44.0938 z "/>
<g style="fill:url(#linearGradient21863);color:#000;stroke-width:2" id="g9313" transform="matrix(0.24614186,0,0,0.246101,-89.351756,392.1997)">
<path style="font-family:Andale Mono;text-transform:none;text-indent:0;text-align:start;fill:url(#linearGradient21859);line-height:normal" id="path9315" d="m -39.9934,-1184.5675 c 0,3.8673 3.62244,7.9298 7.75687,7.9298 h 191.987 c 4.62705,0 8.24949,-3.8705 8.24949,-7.7455 v -149.214 c 0,-4.2249 -0.51199,-6.1833 -3.49989,-9.171 l -85.3239,-85.2984 c -2.98822,-2.9873 -5.27368,-4.5274 -9.49962,-4.5307 l -101.7359,-.08 c -4.13346,0 -7.93366,3.6832 -7.93366,8.1221 z "/>
<path style="font-family:Andale Mono;text-transform:none;text-indent:0;text-align:start;fill:url(#linearGradient21861);line-height:normal" id="path9317" d="m 103.2599,-1421.8904 53.1903,53.4419 c 4.33857,4.3589 11.5535,3.3243 11.5535,-3.5507 v -52.4417 c 0,-4.2273 -3.82644,-8.1968 -8.03174,-8.1968 h -53.1903 c -6.83754,0 -7.13737,7.1146 -3.52181,10.7473 z "/>
</g>
</g>
<g style="stroke:none" id="layer6">
<path style="fill:url(#linearGradient3949)" id="path3846" d="m 14,12.0312 c -1.15593,0 -1.96875,0.812823 -1.96875,1.96875 v 9 33 17 8.28125 0.71875 c 0,1.07773 0.717552,1.83697 1.75,1.9375 0.07491,0.0073 0.140555,0.03125 0.21875,0.03125 h 5 58 5 c 0.07224,0 0.1493,-0.0086 0.21875,-0.03125 1.03245,-0.100527 1.75,-0.859768 1.75,-1.9375 v -0.71875 -8.28125 -17 -16.0625 c -9.31607,-9.28832 -18.6042,-18.6042 -27.9062,-27.9062 h -41.3438 -0.71875 z "/>
<path style="opacity:.6;fill:url(#radialGradient3920)" id="path3910" d="m 17.9062,17.0625 c -0.459951,0.04302 -0.84925,0.475575 -0.84375,0.9375 v 9 42 9 c -0.0037,0.491884 0.445616,0.941233 0.9375,0.9375 h 5 55 c 0.491884,0.0037 0.941233,-0.445616 0.9375,-0.9375 v -9 -27.4062 c -0.0027,-0.244241 -0.10626,-0.48584 -0.28125,-0.65625 l -23.5938,-23.5938 c -0.17041,-0.17499 -0.412009,-0.278532 -0.65625,-0.28125 h -36.4062 c -0.03122,-0.0016 -0.06253,-0.0016 -0.09375,0 z "/>
<path style="fill:url(#linearGradient3879)" id="path3868" d="m 18,18 0,9 0,42 0,9 5,0 55,0 0,-9 L 78,41.59375 54.40625,18 z"/>
<path style="opacity:.7;fill:#fff" id="path3882" d="m 18,18 0,9 0,42 0,9 5,0 55,0 0,-9 L 78,41.59375 54.40625,18 z m 1,1 35.03125,0 L 77,41.96875 77,69 l 0,8 -54,0 -4,0 0,-8 0,-42 z"/>
<path style="opacity:.1" id="path3952" d="m 14,12.0312 c -1.15593,0 -1.96875,0.812823 -1.96875,1.96875 v 9 33 17 8.28125 0.71875 c 0,1.07773 0.717552,1.83697 1.75,1.9375 0.07491,0.0073 0.140555,0.03125 0.21875,0.03125 h 5 58 5 c 0.07224,0 0.1493,-0.0086 0.21875,-0.03125 1.03245,-0.100527 1.75,-0.859768 1.75,-1.9375 v -0.71875 -8.28125 -17 -16.0625 c -9.31607,-9.28832 -18.6042,-18.6042 -27.9062,-27.9062 h -41.3438 -0.71875 z  m 0,.9688 h 0.71875 40.9375 c 9.11359,9.11413 18.2147,18.2408 27.3438,27.3438 v 15.6562 17 8.28125 0.71875 c 0,0.648416 -0.267049,0.909555 -0.875,0.96875 a 0.967318,0.967318 0 0,0 -0.125,0.03125 h -5 -58 -5 c 0.119302,0 0.09888,-0.0094 -0.125,-0.03125 -0.607951,-0.059195 -0.875,-0.320334 -0.875,-0.96875 v -0.71875 -8.28125 -17 -33 -9 c 0,-0.702508 0.297492,-1 1,-1 z "/>
<path style="opacity:.2" id="path3851" d="m 14,12.0312 c -1.15593,0 -1.96875,0.812823 -1.96875,1.96875 v 1 c 0,-1.15593 0.812823,-1.96875 1.96875,-1.96875 h 0.71875 41.3438 c 9.30201,9.30201 18.5902,18.6179 27.9062,27.9062 v -1 c -9.31607,-9.28832 -18.6042,-18.6042 -27.9062,-27.9062 h -41.3438 -0.71875 z "/>
<path style="fill:url(#linearGradient3949)" id="path3982" d="m 14,12.0312 c -1.15593,0 -1.96875,0.812823 -1.96875,1.96875 v 9 33 17 8.28125 0.71875 c 0,1.07773 0.717552,1.83697 1.75,1.9375 0.07491,0.0073 0.140555,0.03125 0.21875,0.03125 h 5 58 5 c 0.07224,0 0.1493,-0.0086 0.21875,-0.03125 1.03245,-0.100527 1.75,-0.859768 1.75,-1.9375 v -0.71875 -8.28125 -17 -16.0625 c -9.31607,-9.28832 -18.6042,-18.6042 -27.9062,-27.9062 h -41.3438 -0.71875 z "/>
<path style="opacity:.6;fill:url(#radialGradient3920)" id="path3984" d="m 17.9062,17.0625 c -0.459951,0.04302 -0.84925,0.475575 -0.84375,0.9375 v 9 42 9 c -0.0037,0.491884 0.445616,0.941233 0.9375,0.9375 h 5 55 c 0.491884,0.0037 0.941233,-0.445616 0.9375,-0.9375 v -9 -27.4062 c -0.0027,-0.244241 -0.10626,-0.48584 -0.28125,-0.65625 l -23.5938,-23.5938 c -0.17041,-0.17499 -0.412009,-0.278532 -0.65625,-0.28125 h -36.4062 c -0.03122,-0.0016 -0.06253,-0.0016 -0.09375,0 z "/>
<path style="fill:url(#linearGradient3879)" id="path3986" d="m 18,18 0,9 0,42 0,9 5,0 55,0 0,-9 L 78,41.59375 54.40625,18 z"/>
<path style="opacity:.7;fill:#fff" id="path3988" d="m 18,18 0,9 0,42 0,9 5,0 55,0 0,-9 L 78,41.59375 54.40625,18 z m 1,1 35.03125,0 L 77,41.96875 77,69 l 0,8 -54,0 -4,0 0,-8 0,-42 z"/>
<path style="opacity:.1" id="path3990" d="m 14,12.0312 c -1.15593,0 -1.96875,0.812823 -1.96875,1.96875 v 9 33 17 8.28125 0.71875 c 0,1.07773 0.717552,1.83697 1.75,1.9375 0.07491,0.0073 0.140555,0.03125 0.21875,0.03125 h 5 58 5 c 0.07224,0 0.1493,-0.0086 0.21875,-0.03125 1.03245,-0.100527 1.75,-0.859768 1.75,-1.9375 v -0.71875 -8.28125 -17 -16.0625 c -9.31607,-9.28832 -18.6042,-18.6042 -27.9062,-27.9062 h -41.3438 -0.71875 z  m 0,.9688 h 0.71875 40.9375 c 9.11359,9.11413 18.2147,18.2408 27.3438,27.3438 v 15.6562 17 8.28125 0.71875 c 0,0.648416 -0.267049,0.909555 -0.875,0.96875 a 0.967318,0.967318 0 0,0 -0.125,0.03125 h -5 -58 -5 c 0.119302,0 0.09888,-0.0094 -0.125,-0.03125 -0.607951,-0.059195 -0.875,-0.320334 -0.875,-0.96875 v -0.71875 -8.28125 -17 -33 -9 c 0,-0.702508 0.297492,-1 1,-1 z "/>
<path style="opacity:.2" id="path3992" d="m 14,12.0312 c -1.15593,0 -1.96875,0.812823 -1.96875,1.96875 v 1 c 0,-1.15593 0.812823,-1.96875 1.96875,-1.96875 h 0.71875 41.3438 c 9.30201,9.30201 18.5902,18.6179 27.9062,27.9062 v -1 c -9.31607,-9.28832 -18.6042,-18.6042 -27.9062,-27.9062 h -41.3438 -0.71875 z "/>
<path style="fill:url(#linearGradient3949)" id="path3994" d="m 14,12.0312 c -1.15593,0 -1.96875,0.812823 -1.96875,1.96875 v 9 33 17 8.28125 0.71875 c 0,1.07773 0.717552,1.83697 1.75,1.9375 0.07491,0.0073 0.140555,0.03125 0.21875,0.03125 h 5 58 5 c 0.07224,0 0.1493,-0.0086 0.21875,-0.03125 1.03245,-0.100527 1.75,-0.859768 1.75,-1.9375 v -0.71875 -8.28125 -17 -16.0625 c -9.31607,-9.28832 -18.6042,-18.6042 -27.9062,-27.9062 h -41.3438 -0.71875 z "/>
<path style="opacity:.6;fill:url(#radialGradient3920)" id="path3996" d="m 17.9062,17.0625 c -0.459951,0.04302 -0.84925,0.475575 -0.84375,0.9375 v 9 42 9 c -0.0037,0.491884 0.445616,0.941233 0.9375,0.9375 h 5 55 c 0.491884,0.0037 0.941233,-0.445616 0.9375,-0.9375 v -9 -27.4062 c -0.0027,-0.244241 -0.10626,-0.48584 -0.28125,-0.65625 l -23.5938,-23.5938 c -0.17041,-0.17499 -0.412009,-0.278532 -0.65625,-0.28125 h -36.4062 c -0.03122,-0.0016 -0.06253,-0.0016 -0.09375,0 z "/>
<path style="fill:url(#linearGradient3879)" id="path3998" d="m 18,18 0,9 0,42 0,9 5,0 55,0 0,-9 L 78,41.59375 54.40625,18 z"/>
<path style="opacity:.7;fill:#fff" id="path4000" d="m 18,18 0,9 0,42 0,9 5,0 55,0 0,-9 L 78,41.59375 54.40625,18 z m 1,1 35.03125,0 L 77,41.96875 77,69 l 0,8 -54,0 -4,0 0,-8 0,-42 z"/>
<path style="opacity:.1" id="path4002" d="m 14,12.0312 c -1.15593,0 -1.96875,0.812823 -1.96875,1.96875 v 9 33 17 8.28125 0.71875 c 0,1.07773 0.717552,1.83697 1.75,1.9375 0.07491,0.0073 0.140555,0.03125 0.21875,0.03125 h 5 58 5 c 0.07224,0 0.1493,-0.0086 0.21875,-0.03125 1.03245,-0.100527 1.75,-0.859768 1.75,-1.9375 v -0.71875 -8.28125 -17 -16.0625 c -9.31607,-9.28832 -18.6042,-18.6042 -27.9062,-27.9062 h -41.3438 -0.71875 z  m 0,.9688 h 0.71875 40.9375 c 9.11359,9.11413 18.2147,18.2408 27.3438,27.3438 v 15.6562 17 8.28125 0.71875 c 0,0.648416 -0.267049,0.909555 -0.875,0.96875 a 0.967318,0.967318 0 0,0 -0.125,0.03125 h -5 -58 -5 c 0.119302,0 0.09888,-0.0094 -0.125,-0.03125 -0.607951,-0.059195 -0.875,-0.320334 -0.875,-0.96875 v -0.71875 -8.28125 -17 -33 -9 c 0,-0.702508 0.297492,-1 1,-1 z "/>
<path style="opacity:.2" id="path4004" d="m 14,12.0312 c -1.15593,0 -1.96875,0.812823 -1.96875,1.96875 v 1 c 0,-1.15593 0.812823,-1.96875 1.96875,-1.96875 h 0.71875 41.3438 c 9.30201,9.30201 18.5902,18.6179 27.9062,27.9062 v -1 c -9.31607,-9.28832 -18.6042,-18.6042 -27.9062,-27.9062 h -41.3438 -0.71875 z "/>
</g>
<g style="display:inline;stroke:none" id="layer7">
<path style="fill:url(#linearGradient4022)" id="path4006" d="m 14,12.0312 c -1.15593,0 -1.96875,0.812823 -1.96875,1.96875 v 9 33 17 8.28125 0.71875 c 0,1.07773 0.717552,1.83697 1.75,1.9375 0.07491,0.0073 0.140555,0.03125 0.21875,0.03125 h 5 58 5 c 0.07224,0 0.1493,-0.0086 0.21875,-0.03125 1.03245,-0.100527 1.75,-0.859768 1.75,-1.9375 v -0.71875 -8.28125 -17 -16.0625 c -9.31607,-9.28832 -18.6042,-18.6042 -27.9062,-27.9062 h -41.3438 -0.71875 z "/>
<path style="opacity:.6;fill:url(#radialGradient4020)" id="path4008" d="m 17.9062,17.0625 c -0.459951,0.04302 -0.84925,0.475575 -0.84375,0.9375 v 9 42 9 c -0.0037,0.491884 0.445616,0.941233 0.9375,0.9375 h 5 55 c 0.491884,0.0037 0.941233,-0.445616 0.9375,-0.9375 v -9 -27.4062 c -0.0027,-0.244241 -0.10626,-0.48584 -0.28125,-0.65625 l -23.5938,-23.5938 c -0.17041,-0.17499 -0.412009,-0.278532 -0.65625,-0.28125 h -36.4062 c -0.03122,-0.0016 -0.06253,-0.0016 -0.09375,0 z "/>
<path style="fill:url(#linearGradient4018)" id="path4010" d="m 18,18 0,9 0,42 0,9 5,0 55,0 0,-9 L 78,41.59375 54.40625,18 z"/>
<path style="opacity:.5;fill:#fff" id="path4012" d="m 18,18 0,9 0,42 0,9 5,0 55,0 0,-9 L 78,41.59375 54.40625,18 z m 1,1 35.03125,0 L 77,41.96875 77,69 l 0,8 -54,0 -4,0 0,-8 0,-42 z"/>
<path style="opacity:.1" id="path4014" d="m 14,12.0312 c -1.15593,0 -1.96875,0.812823 -1.96875,1.96875 v 9 33 17 8.28125 0.71875 c 0,1.07773 0.717552,1.83697 1.75,1.9375 0.07491,0.0073 0.140555,0.03125 0.21875,0.03125 h 5 58 5 c 0.07224,0 0.1493,-0.0086 0.21875,-0.03125 1.03245,-0.100527 1.75,-0.859768 1.75,-1.9375 v -0.71875 -8.28125 -17 -16.0625 c -9.31607,-9.28832 -18.6042,-18.6042 -27.9062,-27.9062 h -41.3438 -0.71875 z  m 0,.9688 h 0.71875 40.9375 c 9.11359,9.11413 18.2147,18.2408 27.3438,27.3438 v 15.6562 17 8.28125 0.71875 c 0,0.648416 -0.267049,0.909555 -0.875,0.96875 a 0.967318,0.967318 0 0,0 -0.125,0.03125 h -5 -58 -5 c 0.119302,0 0.09888,-0.0094 -0.125,-0.03125 -0.607951,-0.059195 -0.875,-0.320334 -0.875,-0.96875 v -0.71875 -8.28125 -17 -33 -9 c 0,-0.702508 0.297492,-1 1,-1 z "/>
<path style="opacity:.2;fill:#117002" id="path4016" d="m 14,12.0312 c -1.15593,0 -1.96875,0.812823 -1.96875,1.96875 v 1 c 0,-1.15593 0.812823,-1.96875 1.96875,-1.96875 h 0.71875 41.3438 c 9.30201,9.30201 18.5902,18.6179 27.9062,27.9062 v -1 c -9.31607,-9.28832 -18.6042,-18.6042 -27.9062,-27.9062 h -41.3438 -0.71875 z "/>
</g>
<g style="display:none" id="layer5">
<rect width="66" x="15" y="15" rx="12" height="66" ry="12" style="opacity:.1;fill:url(#linearGradient3613);filter:url(#filter3794);stroke:#fff;stroke-linecap:round;stroke-width:.5;clip-path:url(#clipPath3613)" id="rect3171"/>
</g>
<g id="layer4">
<g style="stroke:none;color:#000">
<rect width="12" x="-657" y="1743.6378" height="1.0000159" style="opacity:.5;fill:url(#linearGradient5193)" id="use9342"/>
<rect width="7.3846202" x="-272.69141" y="1850.64" height="1.0000159" style="opacity:.5;fill:url(#linearGradient5188)" id="use9314" transform="matrix(0,1,-1,0,0,0)"/>
</g>
<use width="5033" x="0" y="0" height="1085" id="use14790" xlink:href="#use9311" transform="translate(-230,1516.64)"/>
<use width="5033" x="0" y="0" height="1085" id="use14792" xlink:href="#path6866" transform="translate(-230,1516.64)"/>
<use width="5033" x="0" y="0" height="1085" id="use14794" xlink:href="#path6868" transform="translate(-230,1516.64)"/>
<use width="5033" x="0" y="0" height="1085" id="use14796" xlink:href="#path6960" transform="translate(-230,1516.64)"/>
<use width="5033" x="0" y="0" height="1085" id="use14798" xlink:href="#rect7927" transform="translate(-230,1516.64)"/>
<use width="5033" x="0" y="0" height="1085" id="use14800" xlink:href="#rect8070" transform="translate(-230,1516.64)"/>
<use width="5033" x="0" y="0" height="1085" id="use14802" xlink:href="#rect8098" transform="translate(-230,1516.64)"/>
<use width="5033" x="0" y="0" height="1085" id="use14804" xlink:href="#rect7221" transform="translate(-230,1516.64)"/>
<use width="5033" x="0" y="0" height="1085" id="use14806" xlink:href="#rect7225" transform="translate(-230,1516.64)"/>
<use width="5033" x="0" y="0" height="1085" id="use14808" xlink:href="#path7319" transform="translate(-230,1516.64)"/>
<use width="5033" x="0" y="0" height="1085" id="use14810" xlink:href="#path7323" transform="translate(-230,1516.64)"/>
<use width="5033" x="0" y="0" height="1085" id="use14812" xlink:href="#rect7436" transform="translate(-230,1516.64)"/>
<use width="5033" x="0" y="0" height="1085" id="use14814" xlink:href="#rect7438" transform="translate(-230,1516.64)"/>
<use width="5033" x="0" y="0" height="1085" id="use14816" xlink:href="#rect7440" transform="translate(-230,1516.64)"/>
<use width="5033" x="0" y="0" height="1085" id="use14818" xlink:href="#rect9509" transform="translate(-230,1516.64)"/>
<use width="5033" x="0" y="0" height="1085" id="use14820" xlink:href="#rect9521" transform="translate(-230,1516.64)"/>
<use width="5033" x="0" y="0" height="1085" id="use14822" xlink:href="#use14642" transform="translate(-230,1516.64)"/>
<use width="5033" x="0" y="0" height="1085" id="use14824" xlink:href="#use14644" transform="translate(-230,1516.64)"/>
<g style="stroke:none;color:#000">
<path style="opacity:.8;fill:url(#linearGradient4301);stroke-width:2" id="path4246" d="m 28,38 0,2 12,0 0,-2 -12,0 z m 14,0 0,2 12,0 0,-2 -12,0 z m 14,0 0,2 12,0 0,-2 -12,0 z m -28,4 0,2 12,0 0,-2 -12,0 z m 14,0 0,2 12,0 0,-2 -12,0 z m 14,0 0,2 12,0 0,-2 -12,0 z m -28,4 0,2 12,0 0,-2 -12,0 z m 14,0 0,2 12,0 0,-2 -12,0 z m 14,0 0,2 12,0 0,-2 -12,0 z m -28,4 0,2 12,0 0,-2 -12,0 z m 14,0 0,2 12,0 0,-2 -12,0 z m 14,0 0,2 12,0 0,-2 -12,0 z m -28,4 0,2 12,0 0,-2 -12,0 z m 14,0 0,2 12,0 0,-2 -12,0 z m 14,0 0,2 12,0 0,-2 -12,0 z m -28,4 0,2 12,0 0,-2 -12,0 z m 14,0 0,2 12,0 0,-2 -12,0 z m 14,0 0,2 12,0 0,-2 -12,0 z m -28,4 0,2 12,0 0,-2 -12,0 z m 14,0 0,2 12,0 0,-2 -12,0 z m 14,0 0,2 12,0 0,-2 -12,0 z m -28,4 0,2 12,0 0,-2 -12,0 z m 14,0 0,2 12,0 0,-2 -12,0 z m 14,0 0,2 12,0 0,-2 -12,0 z m -28,4 0,2 12,0 0,-2 -12,0 z m 14,0 0,2 12,0 0,-2 -12,0 z m 14,0 0,2 12,0 0,-2 -12,0 z"/>
<rect width="40" x="28" y="58" height="14" style="opacity:.5;fill:url(#radialGradient4155)" id="rect8713"/>
<path style="opacity:.2;fill:url(#linearGradient4323)" id="path4307" d="m 60,38 0,2 8,0 0,-2 -8,0 z m 0,4 0,2 8,0 0,-2 -8,0 z m 0,4 0,2 8,0 0,-2 -8,0 z m 0,4 0,2 8,0 0,-2 -8,0 z m 0,4 0,2 8,0 0,-2 -8,0 z m 0,4 0,2 8,0 0,-2 -8,0 z m 0,4 0,2 8,0 0,-2 -8,0 z m 0,4 0,2 8,0 0,-2 -8,0 z m 0,4 0,2 8,0 0,-2 -8,0 z"/>
<g style="stroke-width:2">
<path style="fill:url(#linearGradient4482)" id="path4480" d="m 48,40.875 c -0.465389,0 -0.838647,0.02474 -1.15625,0.03125 a 2.01452,2.01452 0 0,0 -0.03125,0 c -2.83413,0.0805 -6.02689,0.397912 -9.28125,1.125 -1.55216,0.346781 -2.77221,0.95391 -3.625,1.5 -0.548893,0.351446 -1.06311,0.71232 -1.5,1.4375 a 2.01452,2.01452 0 0,0 -0.09375,0.15625 c -0.04476,0.06807 -0.03786,-0.000313 -0.125,0.21875 -0.137566,0.345853 -0.1875,0.810167 -0.1875,1.09375 0,-0.126651 -0.05114,-0.03664 0,0.375 a 2.01452,2.01452 0 0,0 0,0.03125 c 0.0067,0.05174 -0.01252,-0.01573 0,0.0625 a 2.01452,2.01452 0 0,0 0.0625,0.1875 c 0.02903,0.114408 0.08738,0.178131 0.125,0.28125 a 2.01452,2.01452 0 0,0 0,0.03125 2.01452,2.01452 0 0,0 -0.1875,0.875 v 3.84375 c 0,0.04995 -0.09532,0.431579 0.09375,1.09375 0.0248,0.08684 0.09504,0.107998 0.125,0.1875 a 2.01452,2.01452 0 0,0 -0.21875,0.90625 c 0,1.36392 -0.01057,2.73054 0,4.125 0.0017,0.227136 0.0091,0.445664 0.125,0.8125 0.01638,0.05199 0.07502,0.07471 0.09375,0.125 a 2.01452,2.01452 0 0,0 -0.21875,0.9375 v 4.125 c 0,1.49317 0.96121,2.3324 1.90625,2.9375 0.966948,0.619166 2.13176,1.0585 3.53125,1.4375 2.80009,0.758363 6.4887,1.1875 10.5625,1.1875 4.07378,0 7.76242,-0.429182 10.5625,-1.1875 1.39936,-0.379006 2.56417,-0.818209 3.53125,-1.4375 0.945107,-0.605097 1.90625,-1.44433 1.90625,-2.9375 v -0.3125 -3.8125 a 2.01452,2.01452 0 0,0 -0.21875,-0.9375 c 0.03183,-0.09224 0.130296,-0.11729 0.15625,-0.21875 0.0027,-0.01044 -0.0026,-0.02071 0,-0.03125 0.141092,-0.592124 0.0625,-0.87685 0.0625,-1 v -3.8125 a 2.01452,2.01452 0 0,0 -0.21875,-0.9375 c 0.03089,-0.08968 0.131343,-0.121385 0.15625,-0.21875 0.0026,-0.01002 -0.0025,-0.02115 0,-0.03125 0.141095,-0.592132 0.0625,-0.876851 0.0625,-1 v -3.84375 a 2.01452,2.01452 0 0,0 -0.1875,-0.84375 c 0.0065,-0.01708 0.02486,-0.01387 0.03125,-0.03125 a 2.01452,2.01452 0 0,0 0.0625,-0.15625 c 1.7e-05,-6.1e-05 -0.000667,-0.0279 0,-0.03125 0.003,-0.01124 -0.0028,-0.02013 0,-0.03125 0.01376,-0.06985 0.05735,-0.270756 0.0625,-0.34375 0.0013,-0.01005 -0.0011,-0.02127 0,-0.03125 0.0039,-0.06385 0.00047,-0.09124 0,-0.125 -0.000365,-0.0205 0.000532,-0.01693 0,-0.03125 -0.0016,-0.0724 -0.000308,-0.0981 0,-0.09375 0.0014,-0.03946 0.03125,-0.08596 0.03125,-0.125 0,-0.271988 -0.125414,-0.402089 -0.1875,-0.625 0.0038,0.08556 0.03591,0.183711 0.03125,0.25 0.01764,-0.259876 -0.09178,-0.748221 -0.3125,-1.15625 l .0312,-.0312 c -0.05129,-0.08561 -0.02143,-0.03443 -0.0625,-0.09375 -0.01474,-0.02253 -0.01533,-0.04056 -0.03125,-0.0625 l -.0312,.0312 c -0.05733,-0.07487 -0.05835,-0.125239 -0.09375,-0.15625 -0.01002,-0.01245 -0.02115,-0.01901 -0.03125,-0.03125 -0.36012,-0.436693 -0.755467,-0.754595 -1.1875,-1.03125 -0.954159,-0.61096 -2.14076,-1.08369 -3.5625,-1.46875 -1.73199,-0.469085 -3.83929,-0.8331 -6.15625,-1.03125 -0.103372,-0.0089 0.0079,0.0024 -0.03125,0 -0.07829,-0.0049 -0.234232,-0.01401 -0.0625,0 -0.399934,-0.03176 -0.844986,-0.06812 -1.3125,-0.09375 -0.134781,-0.0074 -0.0202,-0.000253 -0.03125,0 -0.01105,0.000253 -0.147597,-0.0064 -0.03125,0 a 2.01452,2.01452 0 0,0 -0.03125,0 c -0.527482,-0.02756 -0.960281,-0.02028 -1.375,-0.03125 -0.131632,-0.0035 -0.141885,-0.0029 -0.03125,0 -0.451918,-0.011719 -0.963956,-0.03125 -1.5,-0.03125 z "/>
<path style="fill:url(#radialGradient4484)" id="path4458" d="m 47.9953,42.8721 c -0.382723,0 -0.760296,0.01092 -1.13526,0.01861 -2.71827,0.07721 -5.77933,0.413104 -8.88667,1.10735 -1.29055,0.288333 -2.30347,0.771977 -2.98704,1.2097 -0.42725,0.27356 -0.721502,0.54596 -0.87471,0.800265 -0.01226,0.02539 -0.02706,0.0489 -0.03722,0.07444 -0.047782,0.120128 -0.074445,0.239574 -0.074445,0.362916 0,0.03827 0.0046,0.07384 0.0093,0.111666 0.0013,0.006 -0.0014,0.01263 0,0.01861 0.000894,0.0063 -0.001,0.01236 0,0.01861 0.160536,0.632637 0.956074,1.11478 1.554,1.41442 0.7168,0.359203 1.44231,0.628435 2.27983,0.846792 3.60928,0.926373 7.52484,1.2079 11.4736,1.14457 2.85383,-0.07316 5.82163,-0.354515 8.79362,-1.12596 0.870452,-0.225951 1.83551,-0.572931 2.64274,-1.0329 0.429979,-0.245041 1.00895,-0.614672 1.2004,-1.13526 0.0018,-0.0065 0.0076,-0.01202 0.0093,-0.01861 0.02156,-0.08053 0.0279,-0.159507 0.0279,-0.241941 0,-0.174548 -0.04487,-0.343944 -0.139581,-0.511797 -0.0062,-0.009 -0.01206,-0.01896 -0.01861,-0.02792 -0.0117,-0.01953 -0.0336,-0.0364 -0.04653,-0.05583 -0.167855,-0.208599 -0.42126,-0.423211 -0.763044,-0.642074 -0.683569,-0.437698 -1.71069,-0.864019 -2.98704,-1.2097 -1.59545,-0.432106 -3.583,-0.770028 -5.80658,-0.958457 -0.02446,-0.0021 -0.04992,-0.0073 -0.07444,-0.0093 -0.420047,-0.03336 -0.848166,-0.06049 -1.28415,-0.08375 -0.01823,-0.001 -0.03758,0.001 -0.05583,0 -0.446375,-0.02332 -0.897837,-0.04364 -1.35859,-0.05583 -0.0091,-0.000244 -0.01872,0.00024 -0.02792,0 -0.470453,-0.0122 -0.949916,-0.01861 -1.43301,-0.01861 z "/>
<path style="fill:url(#linearGradient4462)" id="path4456" d="m 34.0093,48.2951 0,3.8338 c 0,0.177681 -0.01093,0.343169 0.03722,0.511798 0.05318,0.186258 0.174852,0.403259 0.390827,0.604852 0.938016,0.865627 2.23887,1.2191 3.53606,1.62845 3.02297,0.790916 6.61998,1.09975 10.0312,1.12596 3.16104,-0.0045 6.64024,-0.300841 9.98471,-1.11665 0.941232,-0.254448 2.00583,-0.60323 2.97773,-1.17248 0.588102,-0.344464 0.914328,-0.740994 0.99568,-1.07012 0.037223,-0.148261 0.037223,-0.338524 0.037223,-0.511798 v -3.83383 c -0.976369,0.952071 -2.44441,1.42409 -3.82453,1.81456 -2.78894,0.78901 -5.82906,1.01226 -8.84015,1.10735 -3.72431,0.109133 -7.5992,-0.202145 -11.5015,-1.10735 -0.969014,-0.236314 -2.16556,-0.680368 -3.14523,-1.27484 -0.264632,-0.16059 -0.490805,-0.350628 -0.679296,-0.539715 z "/>
<path style="fill:url(#linearGradient4460)" id="path4454" d="m 34.0093,54.3044 c 0,1.3741 -0.01042,2.74822 0,4.1223 0.000477,0.06438 0.01489,0.143273 0.03722,0.214024 0.05821,0.184769 0.173096,0.405166 0.390827,0.604853 0.321357,0.294735 0.721565,0.572096 1.15387,0.772349 2.53655,1.1645 5.19612,1.43941 8.18877,1.80525 1.33283,0.125601 2.75187,0.176802 4.22466,0.176802 2.9119,-0.0042 5.74661,-0.237117 8.84015,-0.837487 1.3312,-0.289317 2.8453,-0.702477 4.1223,-1.45164 0.578157,-0.360901 0.914328,-0.740994 0.99568,-1.07012 0.037223,-0.148262 0.037223,-0.338523 0.037223,-0.511798 v -3.82453 c -0.130305,0.120241 -0.664363,0.553471 -1.00498,0.725822 -0.895285,0.452973 -2.07929,0.875409 -3.18245,1.16318 -3.1156,0.799879 -6.42717,0.972885 -9.80791,1.04221 -3.36073,-0.0065 -6.389,-0.266179 -9.80791,-1.04221 -1.236,-0.307182 -2.6553,-0.765352 -3.79661,-1.554 -0.142217,-0.107348 -0.275261,-0.22065 -0.390828,-0.334995 z "/>
<path style="fill:url(#linearGradient4448)" id="path11957" d="m 34.0093,60.3044 0,4.1223 c 0,0.385944 0.304593,0.819696 0.986375,1.25623 0.681781,0.436565 1.70291,0.845855 2.97773,1.19109 2.54966,0.690537 6.10608,1.12596 10.0312,1.12596 3.92513,0 7.48156,-0.435449 10.0312,-1.12596 1.2748,-0.345268 2.29595,-0.754498 2.97773,-1.19109 0.681783,-0.436506 0.986375,-0.870287 0.986375,-1.25623 v -0.297773 -3.82453 c -0.218953,0.203111 -0.438367,0.39315 -0.716517,0.558325 -1.03822,0.613086 -2.2147,0.989545 -3.47092,1.33067 -3.12314,0.77826 -6.42261,0.987476 -9.80791,1.04221 -1.36181,0.000388 -2.80165,-0.05606 -4.27119,-0.176803 -2.43641,-0.204927 -5.49374,-0.640986 -8.0771,-1.7122 -0.563804,-0.23679 -1.18086,-0.583338 -1.64706,-1.04221 z "/>
</g>
<path style="opacity:.2;fill:url(#linearGradient4328)" id="path4326" d="m 28,38 0,2 8,0 0,-2 -8,0 z m 0,4 0,2 8,0 0,-2 -8,0 z m 0,4 0,2 8,0 0,-2 -8,0 z m 0,4 0,2 8,0 0,-2 -8,0 z m 0,4 0,2 8,0 0,-2 -8,0 z m 0,4 0,2 8,0 0,-2 -8,0 z m 0,4 0,2 8,0 0,-2 -8,0 z m 0,4 0,2 8,0 0,-2 -8,0 z m 0,4 0,2 8,0 0,-2 -8,0 z"/>
<path style="opacity:.3;fill:url(#linearGradient4488)" id="path4486" d="m 42.1875,43.2812 c -1.37736,0.177275 -2.79329,0.400274 -4.21875,0.71875 -0.582196,0.130074 -1.09805,0.281327 -1.5625,0.46875 l 11.375,1.9375 -5.5938,-3.125 z  m 5.5938,3.125 5.875,3.2812 .0312,0 c 1.46023,-0.175898 2.96177,-0.429443 4.4375,-0.8125 0.477748,-0.124013 0.975741,-0.304399 1.46875,-0.5 l -11.8125,-1.9688 z "/>
<g style="stroke-width:2">
<path style="opacity:.5;fill:url(#linearGradient4514)" id="path4499" d="m 34,48.2812 0,1 c 0.188491,0.189087 0.422868,0.40191 0.6875,0.5625 0.979674,0.594474 2.18724,1.04494 3.15625,1.28125 3.90229,0.9052 7.77569,1.20288 11.5,1.09375 3.01108,-0.09508 6.05481,-0.30474 8.84375,-1.09375 1.38012,-0.390471 2.83613,-0.891679 3.8125,-1.84375 v -1 c -0.976369,0.952071 -2.43238,1.45328 -3.8125,1.84375 -2.78894,0.78901 -5.83267,0.99867 -8.84375,1.09375 -3.72431,0.109133 -7.59771,-0.18855 -11.5,-1.09375 -0.969014,-0.236314 -2.17658,-0.686776 -3.15625,-1.28125 -0.264632,-0.16059 -0.499009,-0.373413 -0.6875,-0.5625 z "/>
<path style="opacity:.5;fill:url(#linearGradient4518)" id="path4516" d="m 34,54.2812 0,1 c 0.188491,0.189087 0.422868,0.40191 0.6875,0.5625 0.979674,0.594474 2.18724,1.04494 3.15625,1.28125 3.90229,0.9052 7.77569,1.20288 11.5,1.09375 3.01108,-0.09508 6.05481,-0.30474 8.84375,-1.09375 1.38012,-0.390471 2.83613,-0.891679 3.8125,-1.84375 v -1 c -0.976369,0.952071 -2.43238,1.45328 -3.8125,1.84375 -2.78894,0.78901 -5.83267,0.99867 -8.84375,1.09375 -3.72431,0.109133 -7.59771,-0.18855 -11.5,-1.09375 -0.969014,-0.236314 -2.17658,-0.686776 -3.15625,-1.28125 -0.264632,-0.16059 -0.499009,-0.373413 -0.6875,-0.5625 z "/>
<path style="opacity:.5;fill:url(#linearGradient4522)" id="path4520" d="m 34,60.2812 0,1 c 0.188491,0.189087 0.422868,0.40191 0.6875,0.5625 0.979674,0.594474 2.18724,1.04494 3.15625,1.28125 3.90229,0.9052 7.77569,1.20288 11.5,1.09375 3.01108,-0.09508 6.05481,-0.30474 8.84375,-1.09375 1.38012,-0.390471 2.83613,-0.891679 3.8125,-1.84375 v -1 c -0.976369,0.952071 -2.43238,1.45328 -3.8125,1.84375 -2.78894,0.78901 -5.83267,0.99867 -8.84375,1.09375 -3.72431,0.109133 -7.59771,-0.18855 -11.5,-1.09375 -0.969014,-0.236314 -2.17658,-0.686776 -3.15625,-1.28125 -0.264632,-0.16059 -0.499009,-0.373413 -0.6875,-0.5625 z "/>
<path style="opacity:.2;fill:#fff" id="path4524" d="m 48,41.875 c -0.382723,0 -0.750035,0.02356 -1.125,0.03125 C 44.156728,41.98346 41.076089,42.305759 37.96875,43 36.678201,43.288333 35.683567,43.781023 35,44.21875 34.57275,44.49231 34.278208,44.745695 34.125,45 34.11274,45.02539 34.07266,45.06821 34.0625,45.09375 34.014718,45.213878 34,45.314158 34,45.4375 c 0,0.03827 -0.0047,0.08717 0,0.125 8.94e-4,0.0063 -10e-4,0.025 0,0.03125 0.03173,0.125031 0.112594,0.230722 0.1875,0.34375 C 34.349976,45.703281 34.611273,45.467645 35,45.21875 35.683567,44.781023 36.678201,44.288333 37.96875,44 41.076089,43.305759 44.156728,42.98346 46.875,42.90625 47.249965,42.89856 47.617277,42.875 48,42.875 c 0.483089,0 0.967047,0.01905 1.4375,0.03125 0.0092,2.4e-4 0.02215,-2.44e-4 0.03125,0 0.460754,0.01219 0.897375,0.0079 1.34375,0.03125 0.01825,10e-4 0.04427,-10e-4 0.0625,0 0.435981,0.02326 0.861203,0.06039 1.28125,0.09375 0.02452,0.002 0.03804,-0.0021 0.0625,0 2.223578,0.188429 4.217048,0.536644 5.8125,0.96875 1.276345,0.345686 2.316431,0.781052 3,1.21875 0.341784,0.218863 0.582145,0.416401 0.75,0.625 0.01293,0.01943 0.0508,0.04297 0.0625,0.0625 0.03986,-0.06626 0.09853,-0.115536 0.125,-0.1875 0.0018,-0.0065 -0.0017,-0.02466 0,-0.03125 C 61.99031,45.60697 62,45.519934 62,45.4375 c 0,-0.174548 -0.06154,-0.332147 -0.15625,-0.5 -0.0062,-0.009 0.0065,-0.02229 0,-0.03125 -0.0117,-0.01953 -0.04957,-0.04307 -0.0625,-0.0625 -0.167855,-0.208599 -0.408216,-0.406137 -0.75,-0.625 -0.683569,-0.437698 -1.723655,-0.873064 -3,-1.21875 -1.595452,-0.432106 -3.588922,-0.780321 -5.8125,-0.96875 -0.02446,-0.0021 -0.03798,0.002 -0.0625,0 -0.420047,-0.03336 -0.845269,-0.07049 -1.28125,-0.09375 -0.01823,-10e-4 -0.04425,10e-4 -0.0625,0 -0.446375,-0.02332 -0.882996,-0.01906 -1.34375,-0.03125 -0.0091,-2.44e-4 -0.02205,2.4e-4 -0.03125,0 C 48.967047,41.89405 48.483089,41.875 48,41.875 z"/>
</g>
</g>
</g>
</svg>
