<svg width="96" version="1.0" xmlns="http://www.w3.org/2000/svg" height="96" xmlns:xlink="http://www.w3.org/1999/xlink">
<defs id="defs2410">
<clipPath id="clipPath3613">
<rect width="84" x="6" y="6" rx="6" height="84" ry="6" style="fill:#fff;stroke:none" id="rect3615"/>
</clipPath>
<filter width="1.3839999" x="-0.192" y="-0.192" height="1.3839999" style="color-interpolation-filters:sRGB" id="filter3794">
<feGaussianBlur stdDeviation="5.28" id="feGaussianBlur3796"/>
</filter>
<filter style="color-interpolation-filters:sRGB" id="filter3174">
<feGaussianBlur stdDeviation="1.71" id="feGaussianBlur3176"/>
</filter>
<linearGradient id="linearGradient3879" xlink:href="#linearGradient3873" y1="80" x1="48" y2="16" x2="48" gradientUnits="userSpaceOnUse"/>
<linearGradient id="linearGradient3927" xlink:href="#ButtonShadow-0" y1="94" x1="38" y2="5" x2="38" gradientUnits="userSpaceOnUse"/>
<linearGradient id="linearGradient3920" xlink:href="#ButtonShadow-0" y1="91" x1="49" y2="7" x2="49" gradientUnits="userSpaceOnUse"/>
<linearGradient id="linearGradient4240" xlink:href="#linearGradient10292" y1="6" x1="39" y2="90" x2="39" gradientUnits="userSpaceOnUse"/>
<linearGradient id="linearGradient10292">
<stop offset="0" style="stop-color:#666" id="stop10294"/>
<stop offset="1" style="stop-color:#333" id="stop10296"/>
</linearGradient>
<linearGradient gradientTransform="translate(0,-20)" id="linearGradient3901" xlink:href="#linearGradient3737" y1="26" x1="32" y2="84" x2="32" gradientUnits="userSpaceOnUse"/>
<linearGradient id="linearGradient3949" xlink:href="#linearGradient3856" y1="88" x1="32" y2="8" x2="32" gradientUnits="userSpaceOnUse"/>
<linearGradient id="linearGradient3933" xlink:href="#ButtonShadow-0" y1="92" x1="50" y2="7" x2="50" gradientUnits="userSpaceOnUse"/>
<linearGradient id="linearGradient3929" xlink:href="#ButtonShadow-0" y1="95" x1="45" y2="4" x2="45" gradientUnits="userSpaceOnUse"/>
<linearGradient id="linearGradient3940" xlink:href="#ButtonShadow-0" y1="93" x1="47" y2="6" x2="47" gradientUnits="userSpaceOnUse"/>
<linearGradient id="linearGradient3885" xlink:href="#linearGradient3737" y1="6" x1="36.357143" y2="63.893143" x2="36.357143" gradientUnits="userSpaceOnUse"/>
<linearGradient gradientTransform="scale(1.0058652,0.994169)" id="ButtonShadow" y1="92.539597" x1="45.447727" y2="7.0165396" x2="45.447727" gradientUnits="userSpaceOnUse">
<stop offset="0" id="stop3750"/>
<stop offset="1" style="stop-opacity:.588" id="stop3752"/>
</linearGradient>
<linearGradient id="linearGradient3700">
<stop offset="0" style="stop-color:#2276c5" id="stop3702"/>
<stop offset="1" style="stop-color:#68baf4" id="stop3704"/>
</linearGradient>
<linearGradient id="linearGradient3856">
<stop offset="0" style="stop-color:#b3b3b3" id="stop3858"/>
<stop offset="1" style="stop-color:#e6e6e6" id="stop3860"/>
</linearGradient>
<linearGradient id="linearGradient3914">
<stop offset="0" id="stop3916"/>
<stop offset="1" style="stop-opacity:0" id="stop3918"/>
</linearGradient>
<linearGradient id="linearGradient3873">
<stop offset="0" style="stop-color:#dfdfdf" id="stop3875"/>
<stop offset="1" style="stop-color:#fefefe" id="stop3877"/>
</linearGradient>
<linearGradient id="linearGradient3737">
<stop offset="0" style="stop-color:#fff" id="stop3739"/>
<stop offset="1" style="stop-color:#fff;stop-opacity:0" id="stop3741"/>
</linearGradient>
<linearGradient gradientTransform="matrix(4.4806049,0,0,4.4787412,-651.59679,-4376.6526)" id="linearGradient4320" xlink:href="#linearGradient10292" y1="976.37823" x1="121.30617" y2="992.4245" x2="121.30617" gradientUnits="userSpaceOnUse"/>
<linearGradient gradientTransform="translate(100,0)" id="linearGradient3047" xlink:href="#linearGradient3700" y1="90" x1="48" y2="5.9877172" x2="48" gradientUnits="userSpaceOnUse"/>
<linearGradient id="linearGradient3613" xlink:href="#linearGradient3737" y1="20.220806" x1="48" y2="138.66119" x2="48" gradientUnits="userSpaceOnUse"/>
<linearGradient gradientTransform="matrix(1.0058652,0,0,0.994169,100,0)" id="ButtonShadow-0" y1="92.539597" x1="45.447727" y2="7.0165396" x2="45.447727" gradientUnits="userSpaceOnUse">
<stop offset="0" id="stop3750-8"/>
<stop offset="1" style="stop-opacity:.588" id="stop3752-5"/>
</linearGradient>
<radialGradient fx="47.999981" fy="47.999424" cx="47.999981" cy="47.999424" gradientTransform="matrix(1.3452582,-3.8835319e-8,3.3050848e-8,1.1448837,-16.572388,-6.9543292)" r="34.937546" id="radialGradient3920" xlink:href="#linearGradient3914" gradientUnits="userSpaceOnUse"/>
<radialGradient fx="48" fy="90.171875" cx="48" cy="90.171875" gradientTransform="matrix(1.1573129,0,0,0.99590774,-7.551021,0.19713193)" r="42" id="radialGradient3879" xlink:href="#linearGradient3737" gradientUnits="userSpaceOnUse"/>
</defs>
<g style="display:none" id="layer2">
<rect width="86" x="5" y="7" rx="6" height="85" ry="6" style="opacity:.9;fill:url(#ButtonShadow);filter:url(#filter3174);stroke:none" id="rect3745"/>
</g>
<g style="stroke:none" id="layer3">
<path style="opacity:.08;fill:url(#linearGradient3929)" id="path3911" d="m 55.1875,4.0312 c -1.58689,0.01273 -3.1348,0.183481 -4.5,0.0625 a 0.864174,0.864174 0 0,0 -0.0625,0 h -38.9375 c -3.41584,0.013813 -6.21449,2.06861 -7.90625,4.75 -1.17029,1.85487 -1.92207,4.09865 -1.65625,6.4375 h -0.03125 c 0.020721,23.5443 -0.041587,47.0762 0.03125,70.625 a 0.864174,0.864174 0 0,0 0,0.0625 c 0.129911,1.45786 0.642783,2.79124 1.34375,3.96875 6.85e-05,0.000154 -0.021457,-0.07213 -0.03125,-0.125 0.029603,0.08798 0.0497,0.149646 0.0625,0.1875 0.00647,0.01101 0.022369,0.01648 0.03125,0.03125 0.00759,0.01244 0.023609,0.01885 0.03125,0.03125 a 0.864174,0.864174 0 0,0 0.0625,0.09375 c 0.01166,0.01455 0.021588,0.02031 0.03125,0.03125 0.0058,0.0066 -0.00442,0.02694 0,0.03125 0.00352,0.0055 0.027722,-0.0055 0.03125,0 a 0.864174,0.864174 0 0,0 0.03125,0.03125 c 0.011239,0.009 0.021767,0.02426 0.03125,0.03125 1.93897,2.96031 5.35978,4.946 9.03125,4.625 0.03167,-0.0028 0.06205,0.0031 0.09375,0 24.0039,-0.02052 48.0231,0.04148 72.0312,-0.03125 a 0.864174,0.864174 0 0,0 0.0625,0 c 5.23269,-0.424353 9.36364,-5.34888 8.9375,-10.625 -0.0026,-0.03164 0.0029,-0.06208 0,-0.09375 v -43.8125 a 0.864174,0.864174 0 0,0 -0.0625,-0.25 c -0.719482,-2.37576 -2.2897,-4.16664 -3.96875,-5.75 -0.0898,-0.08468 -0.159649,-0.16622 -0.25,-0.25 2.21794,-0.09 4.34555,-1.87861 4.25,-4.3125 -0.00096,-0.02446 0.03266,-0.03792 0.03125,-0.0625 -0.07568,-5.67394 0.162469,-11.4144 -0.125,-17.1562 a 0.864174,0.864174 0 0,0 -0.03125,-0.0625 c -0.679074,-5.34934 -6.00802,-9.05514 -11.2812,-8.375 v -0.03125 h -14.875 a 0.864174,0.864174 0 0,0 -0.03125,0 c -2.43157,0.09487 -3.93398,2.36719 -3.875,4.5625 -1.18296,-1.15199 -2.34086,-2.32457 -3.53125,-3.46875 a 0.864174,0.864174 0 0,0 -0.15625,-0.125 c -1.55238,-0.890707 -3.23143,-1.04393 -4.8125,-1.03125 z  m -51.75,85.3438 c -0.011805,0.08495 -0.021775,0.15025 -0.03125,0.21875 -0.00282,-0.01512 3.1e-06,-0.06256 0,-0.0625 -9.2e-06,0.000178 0.00988,-0.07797 0.03125,-0.15625 z "/>
<path style="opacity:.1;fill:url(#linearGradient3927)" id="path3904" d="m 11.6875,4.9688 c -5.25543,0.0212519 -9.38439,5.1638 -8.71875,10.2979 0.0207228,23.5464 -0.0415773,47.0941 0.03125,70.6396 0.42997,4.82511 5.00259,8.59446 9.79456,8.125 24.0371,-0.02076 48.0755,0.04156 72.1117,-0.03125 4.75515,-0.385626 8.56319,-4.94691 8.125,-9.75999 0,-14.6321 0,-29.2642 0,-43.8963 -1.30325,-4.30336 -5.82883,-6.63982 -8.59097,-10.0247 -8.30204,-8.15132 -16.4879,-16.431 -24.8735,-24.4911 -2.70571,-1.55245 -5.95617,-0.595542 -8.93126,-0.859189 -12.9827,0 -25.9654,0 -38.948,0 z  m 55.9062,0 c -2.75917,0.107652 -4.21594,3.91814 -2.21875,5.8125 7.42882,7.28443 14.7592,14.7093 22.25,21.9062 2.14699,1.60078 5.56046,-0.220208 5.40625,-2.90625 -0.0787,-5.72616 0.160862,-11.4778 -0.125,-17.1875 -0.617749,-4.86626 -5.59301,-8.31304 -10.4262,-7.625 -4.96209,0 -9.92419,0 -14.8863,0 z  m -62.9688,4.25 c -0.664712,0.701583 -0.2456,-0.131182 0,0 z  m -.375,80.3438 c 0.89304,0.481702 0.104348,0.183981 0,0 z "/>
<path style="opacity:.2;fill:url(#linearGradient3940)" id="path3899" d="m 11.7188,6.0312 c -4.67493,0.016024 -8.33591,4.64959 -7.6875,9.20536 0.020755,23.5251 -0.041623,47.0518 0.03125,70.5759 0.078659,2.31096 1.99913,4.95902 3.5,5.8125 3.32511,2.20027 7.4995,1.05993 11.2446,1.34375 22.0016,-0.02075 44.0048,0.04153 66.0054,-0.03125 4.47154,-0.328201 7.72929,-4.80283 7.15625,-9.17411 0,-14.4315 0,-28.8631 0,-43.2946 -1.43331,-3.95496 -5.65942,-6.19157 -8.27784,-9.39907 -8.25118,-8.11498 -16.4129,-16.329 -24.7309,-24.3712 -2.48361,-1.25729 -5.41628,-0.428981 -8.11184,-0.667243 -13.0432,0 -26.0863,0 -39.1295,0 z  m 55.9688,0 c -2.20519,0.107539 -2.96628,3.27281 -1.11696,4.44148 7.23986,7.09655 14.3732,14.3261 21.6795,21.3398 1.83649,1.3232 4.24848,-0.713747 3.71875,-2.77321 -0.09408,-5.54138 0.194785,-11.1094 -0.15625,-16.633 -0.734258,-4.23962 -5.14624,-6.94456 -9.29643,-6.375 -4.94286,0 -9.88571,0 -14.8286,0 z "/>
<path style="opacity:.3;fill:url(#linearGradient3933)" id="path3883" d="m 11.75,7 c -4.16698,0.0345334 -7.35035,4.169 -6.75,8.2092 0.0208047,23.503 -0.0417012,47.0077 0.03125,70.5096 0.305206,3.97763 4.30152,6.81532 8.16979,6.28125 23.839,-0.020761 47.6798,0.041565 71.5177,-0.03125 3.99484,-0.299314 6.81024,-4.31576 6.28125,-8.17795 0,-14.4094 1e-06,-28.8189 0,-43.2283 -1.61305,-3.59521 -5.48779,-5.77905 -7.99601,-8.80475 -8.20444,-8.08132 -16.3435,-16.2354 -24.5998,-24.2603 -2.30027,-0.985392 -4.95833,-0.288199 -7.41898,-0.497501 -13.0784,0 -26.1568,0 -39.2353,0 z  m 56.0312,0 c -1.584,0.121874 -1.65926,2.31059 -0.359006,2.94753 7.16444,7.02428 14.2253,14.1753 21.4542,21.1207 1.3987,0.747222 2.54336,-0.938528 2.12354,-2.22308 -0.094791,-5.41372 0.196057,-10.8578 -0.15625,-16.2514 -0.632604,-3.79506 -4.62029,-6.11498 -8.29479,-5.59375 -4.92257,0 -9.84514,0 -14.7677,0 z "/>
<path style="opacity:.45;fill:url(#linearGradient3920)" id="path3873" d="m 12,7 c -3.324,0 -6,2.676 -6,6 v 11 50 11 c 0,3.324 2.676,6 6,6 h 7 65 c 3.324,0 6,-2.676 6,-6 v -0.71875 -10.2812 -33.5625 c 0.0048,-0.09367 0.0048,-0.187581 0,-0.28125 -0.06619,-0.633386 -0.358634,-1.24077 -0.8125,-1.6875 -9.5355,-9.56872 -21.1041,-21.1041 -30.6562,-30.6562 -0.454532,-0.460211 -1.07463,-0.753347 -1.71875,-0.8125 h -44.0938 -0.71875 z  m 55.3125,0 a 1.40991,1.40991 0 0,0 -0.84375,2.40625 l 21.125,21.125 a 1.40991,1.40991 0 0,0 2.40625,-0.90625 1.40991,1.40991 0 0,0 0,-0.09375 v -12.5312 -3.71875 -0.28125 c 0,-3.324 -2.676,-6 -6,-6 h -16.6875 z "/>
</g>
<g style="stroke:none" id="layer1">
<path style="fill:url(#linearGradient4240)" id="path3054" d="m 12,6 c -3.324,0 -6,2.676 -6,6 v 11 50 11 c 0,3.324 2.676,6 6,6 h 7 65 c 3.324,0 6,-2.676 6,-6 v -0.71875 -10.2812 -33.5625 c 0.0048,-0.09367 0.0048,-0.187581 0,-0.28125 -0.06619,-0.633386 -0.358634,-1.24077 -0.8125,-1.6875 -9.5355,-9.56872 -21.1041,-21.1041 -30.6562,-30.6562 -0.454532,-0.460211 -1.07463,-0.753347 -1.71875,-0.8125 h -44.0938 -0.71875 z  m 55.3125,0 a 1.40991,1.40991 0 0,0 -0.84375,2.40625 l 21.125,21.125 a 1.40991,1.40991 0 0,0 2.40625,-0.90625 1.40991,1.40991 0 0,0 0,-0.09375 v -12.5312 -3.71875 -0.28125 c 0,-3.324 -2.676,-6 -6,-6 h -16.6875 z "/>
<path style="opacity:.15;fill:url(#radialGradient3879)" id="path3615" d="M 10.15625,6.34375 C 9.854723,6.440553 9.559795,6.547888 9.28125,6.6875 8.72416,6.966724 8.221197,7.353194 7.78125,7.78125 7.561276,7.995278 7.371884,8.223115 7.1875,8.46875 7.003116,8.714385 6.832092,8.976493 6.6875,9.25 6.573695,9.4652707 6.465683,9.6801347 6.375,9.90625 6.35403,9.958535 6.33107,10.008455 6.3125,10.0625 c -0.01036,0.03015 -0.02135,0.06337 -0.03125,0.09375 -0.006,0.01873 0.0058,0.04369 0,0.0625 -0.02154,0.07131 -0.04532,0.145178 -0.0625,0.21875 -0.04593,0.196664 -0.09198,0.393321 -0.125,0.59375 C 6.04135,11.3493 6,11.665279 6,12 l 0,2 0,9 0,50 0,9 0,2 c 0,3.324 2.676,6 6,6 l 7,0 65,0 c 3.324,0 6,-2.676 6,-6 L 90,83.28125 90,82 90,73 90,37.4375 a 2.772031,2.772031 0 0 0 0,-0.28125 2.772031,2.772031 0 0 0 -0.8125,-1.6875 L 89,35.28125 89,81 l 0,2 c 0,2.781848 -2.218152,5 -5,5 l -2,0 -68,0 -2,0 C 9.218152,88 7,85.781848 7,83 L 7,81 7,13 7,11 C 7,10.635705 7.05212,10.279012 7.125,9.9375 7.14836,9.828031 7.18842,9.731618 7.21875,9.625 7.24545,9.530581 7.24943,9.4357 7.28125,9.34375 7.28895,9.3218 7.3045,9.30306 7.3125,9.28125 7.38808,9.071951 7.492742,8.850956 7.59375,8.65625 7.65102,8.548267 7.71649,8.446782 7.78125,8.34375 7.8053,8.30462 7.81866,8.25713 7.84375,8.21875 7.93786,8.077785 8.048671,7.942755 8.15625,7.8125 c 0.15254,-0.185862 0.32207,-0.369817 0.5,-0.53125 0.09922,-0.088888 0.206327,-0.1692 0.3125,-0.25 0.112727,-0.086487 0.223355,-0.1733 0.34375,-0.25 0.03146,-0.01999 0.06182,-0.0432 0.09375,-0.0625 0.0074,-0.0045 0.02385,0.0044 0.03125,0 0.232039,-0.138728 0.462548,-0.274778 0.71875,-0.375 z"/>
<rect width="84" x="106" y="6" rx="6" height="84" ry="6" style="fill:url(#linearGradient3047)" id="rect3045"/>
<path style="fill:#f0f" id="path3049" d="m 114,6 26,26 0,4 -30,-30 z"/>
<path style="opacity:.2;fill:url(#linearGradient3885)" id="path3881" d="m 67.3125,6 a 1.40991,1.40991 0 0,0 -1.125,2 h 15.8125 2 c 2.78185,0 5,2.21815 5,5 v 2 14.875 a 1.40991,1.40991 0 0,0 1,-1.125 1.40991,1.40991 0 0,0 0,-0.125 1.40991,1.40991 0 0,0 0,-0.09375 v -12.5312 -2 -1.71875 -0.28125 c 0,-3.324 -2.676,-6 -6,-6 h -16.6875 z "/>
<path style="opacity:.2;fill:url(#linearGradient3901)" id="path3888" d="m 12,6 c -3.324,0 -6,2.676 -6,6 v 11 50 11 c 0,2.9085 2.04223,5.31735 4.78125,5.875 -2.20512,-0.53621 -3.8125,-2.49084 -3.8125,-4.875 v -11 -50 -11 c 0,-2.80489 2.22636,-5.03125 5.03125,-5.03125 h 0.71875 44 0.09375 c 0.01105,0.0018 0.01709,0.02303 0.0625,0.03125 0.107322,0.01943 0.05104,0.0025 0.15625,0.03125 0.105213,0.02873 0.05395,-0.0066 0.15625,0.03125 0.1023,0.03782 0.05765,0.01589 0.15625,0.0625 0.0986,0.04661 0.03085,0.0074 0.125,0.0625 0.09415,0.05505 0.03602,0.03068 0.125,0.09375 0.08898,0.06307 0.04187,0.02315 0.125,0.09375 0.08313,0.0706 0.04836,0.0474 0.125,0.125 9.56871,9.5355 21.1041,21.1041 30.6562,30.6562 0.07653,0.07532 0.05524,0.04337 0.125,0.125 0.06976,0.08163 0.03127,0.03767 0.09375,0.125 0.06248,0.08733 0.0078,0.03262 0.0625,0.125 0.05473,0.09238 0.04717,0.02825 0.09375,0.125 0.04658,0.09675 0.02441,0.05585 0.0625,0.15625 0.03809,0.100399 0.0019,0.0217 0.03125,0.125 0.02931,0.103304 0.01094,0.05081 0.03125,0.15625 0.0164,0.08517 0.02694,0.08025 0.03125,0.125 0.0011,0.02106 -0.000344,0.02472 0,0.03125 0.000689,0.01307 0,0.02033 0,0.0625 0,0.06326 0.0032,-0.000676 0,0.0625 -0.000673,0.02083 -0.000673,0.04167 0,0.0625 v 33.5625 10.2812 0.71875 c 0,2.38416 -1.60738,4.33879 -3.8125,4.875 2.73902,-0.55765 4.78125,-2.9665 4.78125,-5.875 v -0.71875 -10.2812 -33.5625 c 0.0048,-0.09367 0.0048,-0.187581 0,-0.28125 -0.06619,-0.633386 -0.358634,-1.24077 -0.8125,-1.6875 -9.5355,-9.56872 -21.1041,-21.1041 -30.6562,-30.6562 -0.454532,-0.460211 -1.07463,-0.753347 -1.71875,-0.8125 h -44.0938 z "/>
<path style="font-family:Andale Mono;text-transform:none;text-indent:0;text-align:start;color:#000;stroke-width:2;fill:url(#linearGradient4320);line-height:normal" id="path6862" d="m -152.0263,-3.7418 c -1.15757,0 -2.22285,1.02371 -2.22285,2.2666 v 67.2017 c 0,1.08285 1.01251,2.22285 2.17034,2.22285 h 53.7684 c 1.29579,0 2.31036,-1.08534 2.31036,-2.17034 l -0,-41.779 c 0,-1.18297 -0.1434,-1.73635 -0.98015,-2.5729 l -23.9,-23.8825 c -0.83684,-0.836446 -1.47695,-1.26803 -2.66041,-1.26895 l -28.4857,-.0175 z  m 38.8823,.0087 c -1.91483,0 -2.00143,1.99331 -0.9889,3.01047 l 14.8948,14.9648 c 1.215,1.22051 3.238,0.927359 3.238,-0.997642 v -14.6848 c 0,-1.18364 -1.07142,-2.29286 -2.2491,-2.29286 h -14.8948 z "/>
</g>
<g style="stroke:none" id="layer6">
<path style="fill:url(#linearGradient3949)" id="path3846" d="m 14,12.0312 c -1.15593,0 -1.96875,0.812823 -1.96875,1.96875 v 9 33 17 8.28125 0.71875 c 0,1.07773 0.717552,1.83697 1.75,1.9375 0.07491,0.0073 0.140555,0.03125 0.21875,0.03125 h 5 58 5 c 0.07224,0 0.1493,-0.0086 0.21875,-0.03125 1.03245,-0.100527 1.75,-0.859768 1.75,-1.9375 v -0.71875 -8.28125 -17 -16.0625 c -9.31607,-9.28832 -18.6042,-18.6042 -27.9062,-27.9062 h -41.3438 -0.71875 z "/>
<path style="opacity:.6;fill:url(#radialGradient3920)" id="path3910" d="m 17.9062,17.0625 c -0.459951,0.04302 -0.84925,0.475575 -0.84375,0.9375 v 9 42 9 c -0.0037,0.491884 0.445616,0.941233 0.9375,0.9375 h 5 55 c 0.491884,0.0037 0.941233,-0.445616 0.9375,-0.9375 v -9 -27.4062 c -0.0027,-0.244241 -0.10626,-0.48584 -0.28125,-0.65625 l -23.5938,-23.5938 c -0.17041,-0.17499 -0.412009,-0.278532 -0.65625,-0.28125 h -36.4062 c -0.03122,-0.0016 -0.06253,-0.0016 -0.09375,0 z "/>
<path style="fill:url(#linearGradient3879)" id="path3868" d="m 18,18 0,9 0,42 0,9 5,0 55,0 0,-9 L 78,41.59375 54.40625,18 z"/>
<path style="opacity:.7;fill:#fff" id="path3882" d="m 18,18 0,9 0,42 0,9 5,0 55,0 0,-9 L 78,41.59375 54.40625,18 z m 1,1 35.03125,0 L 77,41.96875 77,69 l 0,8 -54,0 -4,0 0,-8 0,-42 z"/>
<path style="opacity:.1" id="path3952" d="m 14,12.0312 c -1.15593,0 -1.96875,0.812823 -1.96875,1.96875 v 9 33 17 8.28125 0.71875 c 0,1.07773 0.717552,1.83697 1.75,1.9375 0.07491,0.0073 0.140555,0.03125 0.21875,0.03125 h 5 58 5 c 0.07224,0 0.1493,-0.0086 0.21875,-0.03125 1.03245,-0.100527 1.75,-0.859768 1.75,-1.9375 v -0.71875 -8.28125 -17 -16.0625 c -9.31607,-9.28832 -18.6042,-18.6042 -27.9062,-27.9062 h -41.3438 -0.71875 z  m 0,.9688 h 0.71875 40.9375 c 9.11359,9.11413 18.2147,18.2408 27.3438,27.3438 v 15.6562 17 8.28125 0.71875 c 0,0.648416 -0.267049,0.909555 -0.875,0.96875 a 0.967318,0.967318 0 0,0 -0.125,0.03125 h -5 -58 -5 c 0.119302,0 0.09888,-0.0094 -0.125,-0.03125 -0.607951,-0.059195 -0.875,-0.320334 -0.875,-0.96875 v -0.71875 -8.28125 -17 -33 -9 c 0,-0.702508 0.297492,-1 1,-1 z "/>
<path style="opacity:.2" id="path3851" d="m 14,12.0312 c -1.15593,0 -1.96875,0.812823 -1.96875,1.96875 v 1 c 0,-1.15593 0.812823,-1.96875 1.96875,-1.96875 h 0.71875 41.3438 c 9.30201,9.30201 18.5902,18.6179 27.9062,27.9062 v -1 c -9.31607,-9.28832 -18.6042,-18.6042 -27.9062,-27.9062 h -41.3438 -0.71875 z "/>
<path style="fill:url(#linearGradient3949)" id="path3982" d="m 14,12.0312 c -1.15593,0 -1.96875,0.812823 -1.96875,1.96875 v 9 33 17 8.28125 0.71875 c 0,1.07773 0.717552,1.83697 1.75,1.9375 0.07491,0.0073 0.140555,0.03125 0.21875,0.03125 h 5 58 5 c 0.07224,0 0.1493,-0.0086 0.21875,-0.03125 1.03245,-0.100527 1.75,-0.859768 1.75,-1.9375 v -0.71875 -8.28125 -17 -16.0625 c -9.31607,-9.28832 -18.6042,-18.6042 -27.9062,-27.9062 h -41.3438 -0.71875 z "/>
<path style="opacity:.6;fill:url(#radialGradient3920)" id="path3984" d="m 17.9062,17.0625 c -0.459951,0.04302 -0.84925,0.475575 -0.84375,0.9375 v 9 42 9 c -0.0037,0.491884 0.445616,0.941233 0.9375,0.9375 h 5 55 c 0.491884,0.0037 0.941233,-0.445616 0.9375,-0.9375 v -9 -27.4062 c -0.0027,-0.244241 -0.10626,-0.48584 -0.28125,-0.65625 l -23.5938,-23.5938 c -0.17041,-0.17499 -0.412009,-0.278532 -0.65625,-0.28125 h -36.4062 c -0.03122,-0.0016 -0.06253,-0.0016 -0.09375,0 z "/>
<path style="fill:url(#linearGradient3879)" id="path3986" d="m 18,18 0,9 0,42 0,9 5,0 55,0 0,-9 L 78,41.59375 54.40625,18 z"/>
<path style="opacity:.7;fill:#fff" id="path3988" d="m 18,18 0,9 0,42 0,9 5,0 55,0 0,-9 L 78,41.59375 54.40625,18 z m 1,1 35.03125,0 L 77,41.96875 77,69 l 0,8 -54,0 -4,0 0,-8 0,-42 z"/>
<path style="opacity:.1" id="path3990" d="m 14,12.0312 c -1.15593,0 -1.96875,0.812823 -1.96875,1.96875 v 9 33 17 8.28125 0.71875 c 0,1.07773 0.717552,1.83697 1.75,1.9375 0.07491,0.0073 0.140555,0.03125 0.21875,0.03125 h 5 58 5 c 0.07224,0 0.1493,-0.0086 0.21875,-0.03125 1.03245,-0.100527 1.75,-0.859768 1.75,-1.9375 v -0.71875 -8.28125 -17 -16.0625 c -9.31607,-9.28832 -18.6042,-18.6042 -27.9062,-27.9062 h -41.3438 -0.71875 z  m 0,.9688 h 0.71875 40.9375 c 9.11359,9.11413 18.2147,18.2408 27.3438,27.3438 v 15.6562 17 8.28125 0.71875 c 0,0.648416 -0.267049,0.909555 -0.875,0.96875 a 0.967318,0.967318 0 0,0 -0.125,0.03125 h -5 -58 -5 c 0.119302,0 0.09888,-0.0094 -0.125,-0.03125 -0.607951,-0.059195 -0.875,-0.320334 -0.875,-0.96875 v -0.71875 -8.28125 -17 -33 -9 c 0,-0.702508 0.297492,-1 1,-1 z "/>
<path style="opacity:.2" id="path3992" d="m 14,12.0312 c -1.15593,0 -1.96875,0.812823 -1.96875,1.96875 v 1 c 0,-1.15593 0.812823,-1.96875 1.96875,-1.96875 h 0.71875 41.3438 c 9.30201,9.30201 18.5902,18.6179 27.9062,27.9062 v -1 c -9.31607,-9.28832 -18.6042,-18.6042 -27.9062,-27.9062 h -41.3438 -0.71875 z "/>
<path style="fill:url(#linearGradient3949)" id="path3994" d="m 14,12.0312 c -1.15593,0 -1.96875,0.812823 -1.96875,1.96875 v 9 33 17 8.28125 0.71875 c 0,1.07773 0.717552,1.83697 1.75,1.9375 0.07491,0.0073 0.140555,0.03125 0.21875,0.03125 h 5 58 5 c 0.07224,0 0.1493,-0.0086 0.21875,-0.03125 1.03245,-0.100527 1.75,-0.859768 1.75,-1.9375 v -0.71875 -8.28125 -17 -16.0625 c -9.31607,-9.28832 -18.6042,-18.6042 -27.9062,-27.9062 h -41.3438 -0.71875 z "/>
<path style="opacity:.6;fill:url(#radialGradient3920)" id="path3996" d="m 17.9062,17.0625 c -0.459951,0.04302 -0.84925,0.475575 -0.84375,0.9375 v 9 42 9 c -0.0037,0.491884 0.445616,0.941233 0.9375,0.9375 h 5 55 c 0.491884,0.0037 0.941233,-0.445616 0.9375,-0.9375 v -9 -27.4062 c -0.0027,-0.244241 -0.10626,-0.48584 -0.28125,-0.65625 l -23.5938,-23.5938 c -0.17041,-0.17499 -0.412009,-0.278532 -0.65625,-0.28125 h -36.4062 c -0.03122,-0.0016 -0.06253,-0.0016 -0.09375,0 z "/>
<path style="fill:url(#linearGradient3879)" id="path3998" d="m 18,18 0,9 0,42 0,9 5,0 55,0 0,-9 L 78,41.59375 54.40625,18 z"/>
<path style="opacity:.7;fill:#fff" id="path4000" d="m 18,18 0,9 0,42 0,9 5,0 55,0 0,-9 L 78,41.59375 54.40625,18 z m 1,1 35.03125,0 L 77,41.96875 77,69 l 0,8 -54,0 -4,0 0,-8 0,-42 z"/>
<path style="opacity:.1" id="path4002" d="m 14,12.0312 c -1.15593,0 -1.96875,0.812823 -1.96875,1.96875 v 9 33 17 8.28125 0.71875 c 0,1.07773 0.717552,1.83697 1.75,1.9375 0.07491,0.0073 0.140555,0.03125 0.21875,0.03125 h 5 58 5 c 0.07224,0 0.1493,-0.0086 0.21875,-0.03125 1.03245,-0.100527 1.75,-0.859768 1.75,-1.9375 v -0.71875 -8.28125 -17 -16.0625 c -9.31607,-9.28832 -18.6042,-18.6042 -27.9062,-27.9062 h -41.3438 -0.71875 z  m 0,.9688 h 0.71875 40.9375 c 9.11359,9.11413 18.2147,18.2408 27.3438,27.3438 v 15.6562 17 8.28125 0.71875 c 0,0.648416 -0.267049,0.909555 -0.875,0.96875 a 0.967318,0.967318 0 0,0 -0.125,0.03125 h -5 -58 -5 c 0.119302,0 0.09888,-0.0094 -0.125,-0.03125 -0.607951,-0.059195 -0.875,-0.320334 -0.875,-0.96875 v -0.71875 -8.28125 -17 -33 -9 c 0,-0.702508 0.297492,-1 1,-1 z "/>
<path style="opacity:.2" id="path4004" d="m 14,12.0312 c -1.15593,0 -1.96875,0.812823 -1.96875,1.96875 v 1 c 0,-1.15593 0.812823,-1.96875 1.96875,-1.96875 h 0.71875 41.3438 c 9.30201,9.30201 18.5902,18.6179 27.9062,27.9062 v -1 c -9.31607,-9.28832 -18.6042,-18.6042 -27.9062,-27.9062 h -41.3438 -0.71875 z "/>
</g>
<g style="display:none" id="layer5">
<rect width="66" x="15" y="15" rx="12" height="66" ry="12" style="opacity:.1;fill:url(#linearGradient3613);filter:url(#filter3794);stroke:#fff;stroke-linecap:round;stroke-width:.5;clip-path:url(#clipPath3613)" id="rect3171"/>
</g>
</svg>
