<svg width="96" version="1.0" xmlns="http://www.w3.org/2000/svg" height="96" xmlns:xlink="http://www.w3.org/1999/xlink">
<defs id="defs2410">
<clipPath id="clipPath3613">
<rect width="84" x="6" y="6" rx="6" height="84" ry="6" style="fill:#fff;stroke:none" id="rect3615"/>
</clipPath>
<clipPath id="clipPath4403">
<path style="fill:url(#linearGradient4407);display:block;stroke:none" id="path4405" d="m 30.9162,135.971 c -0.937266,0.54113 -1.2283,1.74752 -0.677924,2.7008 l 1.9375,3.3559 c -1.41809,1.4141 -2.62227,3.01198 -3.59545,4.71 l -3.7836,-.9909 c -0.531629,-0.14245 -1.03793,-0.11751 -1.47622,0.13061 -0.438159,0.24835 -0.796545,0.66758 -0.936598,1.19027 l -1.9788,7.3851 c -0.280102,1.04538 0.365953,2.06538 1.42913,2.35032 l 3.7722,1.0336 c -0.0062,1.95711 0.237711,3.94301 0.758755,5.87671 l -3.3558,1.9375 c -0.95328,0.55037 -1.30443,1.74066 -0.763301,2.67792 l 3.8125,6.6034 c 0.54113,0.93727 1.74752,1.2283 2.7008,0.67793 l 3.3558,-1.9375 c 1.41411,1.41808 3.01198,2.62227 4.70999,3.59545 l -.9909,3.7836 c -0.284894,1.06325 0.275431,2.13275 1.32087,2.41282 l 7.3851,1.9788 c 1.04537,0.28011 2.06542,-0.36588 2.35032,-1.42913 l 1.0336,-3.7722 c 1.95712,0.006 3.94302,-0.23771 5.8767,-0.75876 l 1.9375,3.3559 c 0.550375,0.95328 1.74066,1.30443 2.67792,0.7633 l 6.6034,-3.8125 c 0.937258,-0.54113 1.2283,-1.74752 0.677924,-2.7008 l -1.9375,-3.3559 c 1.41809,-1.4141 2.62227,-3.01197 3.59545,-4.70999 l 3.7836,.9909 c 1.06324,0.2849 2.13271,-0.27549 2.41282,-1.32087 l 1.9788,-7.3851 c 0.280102,-1.04537 -0.365953,-2.06538 -1.42913,-2.35032 l -3.7722,-1.0336 c 0.0062,-1.95711 -0.237701,-3.94301 -0.758754,-5.8767 l 3.3558,-1.9375 c 0.953272,-0.55037 1.30443,-1.74066 0.763301,-2.67793 l -3.8125,-6.6034 c -0.54113,-0.93726 -1.74753,-1.2283 -2.7008,-0.67792 l -3.3558,1.9375 c -1.41409,-1.4181 -3.01198,-2.62228 -4.70999,-3.59546 l .9909,-3.7836 c 0.284894,-1.06324 -0.275422,-2.13275 -1.32087,-2.41282 l -7.3851,-1.9788 c -1.04538,-0.28011 -2.06543,0.36588 -2.35032,1.42912 l -1.0336,3.7722 c -1.95712,-0.006 -3.94302,0.2377 -5.8767,0.75875 l -1.9375,-3.3559 c -0.55038,-0.95328 -1.74067,-1.30442 -2.67792,-0.7633 l -6.6034,3.8125 z  m 10.0517,9.7851 c 6.6961,-3.866 15.2584,-1.57175 19.1244,5.12435 3.86599,6.6961 1.57174,15.2584 -5.12436,19.1244 -6.6961,3.86599 -15.2584,1.57174 -19.1244,-5.12436 -3.86599,-6.6961 -1.57174,-15.2584 5.12436,-19.1243 z "/>
</clipPath>
<clipPath id="clipPath3613-6">
<rect width="84" x="6" y="6" rx="6" height="84" ry="6" style="fill:#fff;stroke:none" id="rect3615-5"/>
</clipPath>
<filter style="color-interpolation-filters:sRGB" id="filter3174">
<feGaussianBlur stdDeviation="1.71" id="feGaussianBlur3176"/>
</filter>
<filter width="1.3839999" x="-0.192" y="-0.192" height="1.3839999" style="color-interpolation-filters:sRGB" id="filter3794-6">
<feGaussianBlur stdDeviation="5.28" id="feGaussianBlur3796-9"/>
</filter>
<linearGradient id="linearGradient3737-5">
<stop offset="0" style="stop-color:#fff" id="stop3739-8"/>
<stop offset="1" style="stop-color:#fff;stop-opacity:0" id="stop3741-1"/>
</linearGradient>
<linearGradient id="linearGradient3697">
<stop offset="0" style="stop-color:#fff" id="stop3699"/>
<stop offset="1" style="stop-color:#fff;stop-opacity:0" id="stop3701"/>
</linearGradient>
<linearGradient xlink:href="#linearGradient3737-5" id="linearGradient9473" y1="20.220806" x1="48" y2="138.66119" gradientUnits="userSpaceOnUse" x2="48"/>
<linearGradient id="linearGradient9829">
<stop offset="0" style="stop-color:#440d14" id="stop9831"/>
<stop offset="1" style="stop-color:#ad1608" id="stop9833"/>
</linearGradient>
<linearGradient gradientTransform="scale(1.0058652,0.994169)" id="ButtonShadow" y1="92.539597" x1="45.447727" y2="7.0165396" x2="45.447727" gradientUnits="userSpaceOnUse">
<stop offset="0" id="stop3750"/>
<stop offset="1" style="stop-opacity:.588" id="stop3752"/>
</linearGradient>
<linearGradient gradientTransform="matrix(-1.0714811,0,0,1.2937566,99.836908,-4.9180144)" id="linearGradient8668" xlink:href="#linearGradient3697" y1="11.108812" y2="66.667923" x1="129.16827" x2="6.9054751" gradientUnits="userSpaceOnUse"/>
<linearGradient id="linearGradient9811">
<stop offset="0" style="stop-color:#c71d0a" id="stop9813"/>
<stop offset="1" style="stop-color:#532025" id="stop9815"/>
</linearGradient>
<linearGradient xlink:href="#linearGradient9829" id="linearGradient9827" y1="102.10169" x1="48.24577" y2="-21.966103" x2="17.000467" gradientUnits="userSpaceOnUse"/>
<radialGradient fx="17.084749" fy="19.525423" cx="17.084749" cy="19.525423" gradientTransform="matrix(1.4053622,1.788939,-5.1653533,4.0578193,93.930196,-90.268788)" xlink:href="#linearGradient9811" id="radialGradient9887" r="45" gradientUnits="userSpaceOnUse"/>
</defs>
<g style="display:none" id="layer2">
<rect width="86" x="5" y="7" rx="6" height="85" ry="6" style="opacity:.9;fill:url(#ButtonShadow);filter:url(#filter3174);stroke:none" id="rect3745"/>
</g>
<g id="g8605" transform="translate(4.117e-4,-9.5367432e-7)">
<rect width="84" x="6.8135633" y="-90.18644" rx="6" height="84" ry="6" style="opacity:.763;fill:#090909;stroke:none" id="rect3716" transform="scale(1,-1)"/>
<rect width="84" x="6.4067855" y="6.000001" rx="6" height="84" ry="6" style="fill:url(#radialGradient9887);stroke:url(#linearGradient9827);stroke-width:6" id="rect2419"/>
<path style="fill:#fff;stroke:#fff;stroke-width:.245" id="path4426" d="m 30.1989,55.9455 2.119,-.3928 2.1694,-.2455 2.7244,-.0491 2.8253,.0982 2.119,.1964 2.5731,.4419 2.8758,.6383 2.8253,.8347 2.1065,.8496 1.8641,.8758 1.5792,.8277 2.3713,1.3747 2.119,1.522 2.1694,1.8166 1.1099,1.031 1.2109,1.3747 .9586,-.9329 .6559,-.5892 1.009,-.9329 1.1074,-.9448 -1.1517,-1.1317 -1.1858,-1.0991 -1.0637,-.9427 -1.1517,-.9448 -1.697,-1.3569 -1.5744,-1.0621 -.9326,-.5624 -1.0069,-.5522 -1.2847,-.5425 -1.6221,-.5857 -1.4534,-.4384 -1.564,-.3928 -1.8667,-.4419 -1.7658,-.2946 -1.6909,-.2167 -1.9921,-.127 -3.128,.0491 -2.1694,.0982 -2.4217,.3437 -1.9885,.3844 -1.6822,.3868 -1.2847,.4359 -1.4988,.5748 z "/>
<g style="stroke:none">
<path style="fill:#fff6f6" id="path4428" d="m 67.4812,77.5206 -.2333,-.7829 -.1997,-.8574 -.1589,-1.0262 -.0257,-1.1742 .0724,-.8505 .1758,-1.0598 .2558,-1.0781 .4663,-1.096 .427,-.7617 .5799,-.84 .6763,-.9191 .795,-.6863 .8056,-.6299 .7255,-.5302 .6778,-.4513 .9276,-.4513 .9383,-.3159 .8455,-.2048 1.0009,-.1865 .8186,-.0912 1.0333,.0313 1.0002,.1076 .8562,.1736 .9276,.3819 .8018,.3797 .7322,.3841 .8562,.5555 .7849,.6596 .6778,.6943 .8919,1.0415 .9989,1.4234 -.7849,-1.8053 -.4995,-.9374 -.6065,-.9026 -.7135,-.8332 -.6778,-.6249 -.8562,-.6249 -.9276,-.486 -.9276,-.3472 -.9278,-.2903 -.9273,-.1957 -.9632,-.1042 -1.1416,-.0347 -1.0326,.0552 -.8939,.1531 -1.0346,.243 -1.2486,.4513 -1.213,.5555 -.9047,.5735 -.633,.4545 -.7812,.6384 -.8205,.9026 -.7135,.8679 -.6065,.8679 -.5078,.8994 -.3127,.6976 -.316,.8285 -.3262,1.0462 -.2097,1.1115 -.0757,1.0757 0,1.2151 .107,1.3887 .1784,1.1804 .2497,1.1457 .2141,.9026 2.6756,.0694 -.5178,-.9113 z "/>
<g style="fill:#fff">
<path id="path4430" d="m 16.601,64.285 1.5407,-.32 1.365,-.1957 1.2473,-.1463 1.1114,.0339 1.1578,.145 1.0777,.314 .7589,.2783 c 0.245996,0.09047 0.608582,0.283094 0.833457,0.434541 l .5741,.3761 .6604,.4712 .7067,.6937 .8049,1.0169 .6115,.8458 .5724,1.012 .5098,1.3181 .4015,1.3069 .1473,1.1504 .0089,1.4749 -.1773,1.4991 -.4591,1.5847 -.7319,1.8396 6.6525,-.1215 .2112,-3.0593 .0155,-1.5394 -.0642,-1.4084 -.1633,-1.3562 -.3465,-1.4052 -.4715,-1.3272 -.5865,-1.0716 -.4776,-.7928 -.8193,-1.0945 -.9403,-.9455 -1.078,-.9379 -1.255,-.8779 -.8646,-.5692 -.9775,-.4362 -1.1797,-.381 -1.4985,-.3391 -1.6308,-.1244 -1.369,.0393 -1.5408,.1911 -1.5193,.4183 -1.5028,.6016 -1.3907,.717 -1.1872,.7058 -.9793,.552 z "/>
<path id="path4432" d="m 66.8099,77.528 .4036,1.9148 -36.6788,-.0491 1.7658,-3.8296 z "/>
</g>
</g>
<path style="fill:none;stroke:#fff;stroke-width:1.224" id="path4434" d="m 51.6927,57.4823 0,8.957 13.1284,.2083"/>
<g style="stroke:none;fill:#fff">
<path id="path4436" d="m 133.1102,577.8051 c -4.42857,3.59519 -9.19865,-2.35737 -10.6543,-13.2954 -1.12029,-8.4183 0.0365,-17.6659 2.88411,-23.0563" transform="matrix(0.54533338,0.05231619,-0.11115363,0.25666964,43.533487,-88.362245)"/>
<path id="path4438" d="m 25.906,379.3704 c -12.1776,4.42264 -25.5435,-2.12149 -29.8537,-14.6167 -4.3102,-12.4952 2.06756,-26.2099 14.2451,-30.6325 12.1776,-4.42263 25.5435,2.1215 29.8537,14.6167 4.24755,12.3136 -1.88209,25.8517 -13.7926,30.4628" transform="matrix(0.34753231,0,0,0.32933896,13.705999,-43.27215)"/>
</g>
<path style="fill:#fffcfc;stroke:#fff" id="path4440" d="m 25.906,379.3704 c -12.1776,4.42264 -25.5435,-2.12149 -29.8537,-14.6167 -4.3102,-12.4952 2.06756,-26.2099 14.2451,-30.6325 12.1776,-4.42263 25.5435,2.1215 29.8537,14.6167 4.24755,12.3136 -1.88209,25.8517 -13.7926,30.4628" transform="matrix(0.34753231,0,0,0.32933896,71.3744,-43.503347)"/>
<g style="fill:#fff">
<path style="stroke:none" id="path4442" d="m 30.1831,55.8869 5.1461,13.8286 -5.3479,-3.1422 -5.9534,-3.1422 -5.3479,-.1964 -4.3511,1.583 -3.7212,-9.635 z "/>
<path style="stroke:#fff;stroke-width:.698" id="path9468" d="m 29.2069,19.6944 .7081,.4055 .6965,.628 .3015,.5742 .133,.5337 -.2234,.7737 -.7963,1.694 -.7837,1.9448 -.5438,.7869 -.9086,.5108 -.8356,.0887 -1.1166,-.2991 -8.207,-4.6852 -.217,.958 -.1441,1.3325 .2227,1.6001 .5228,1.726 .5713,1.2704 .9258,1.4386 1.0194,1.3429 1.4501,1.3259 1.479,1.0602 1.4232,.6816 1.7216,.5342 1.6357,.3708 2.337,.2254 1.3811,-.039 1.3146,-.1834 1.1902,-.3781 1.3009,-.5608 1.3453,-.8803 1.5513,-1.1649 33.9317,17.658 .6808,.2163 .9059,.1342 .7335,-.0135 .5493,-.0882 .5449,-.1536 .54,-.2725 .6312,-.3838 .4217,-.384 .1969,-.2548 .292,-.4619 .7175,-1.553 .5319,-1.7243 .1152,-.9512 -.0543,-.5035 -.0938,-.3865 -.265,-.6236 -.2912,-.5045 -.2755,-.4137 -.2677,-.3266 -.2502,-.2381 -.3204,-.2528 -.5463,-.324 -1.9427,-.9578 -33.3982,-14.071 .0276,-1.534 -.1141,-1.7537 -.3087,-1.5692 -.7446,-1.7482 -1.0859,-1.6788 -.9735,-1.2394 -1.1232,-1.1401 -1.3484,-.9873 -1.4345,-.8361 -1.6502,-.7301 -1.5548,-.4389 -2.1009,-.2778 -1.6954,.0207 -1.673,.3183 -1.6613,.6869 -1.2507,.6765 -1.2498,.8844 -.6907,.7394 z "/>
</g>
<path style="fill:#8d3232;stroke:none" id="path8698" d="m 74.7161,48.6108 c -1.56149,0.552679 -3.27537,-0.265113 -3.82805,-1.82659 -0.552685,-1.56148 0.265119,-3.27534 1.8266,-3.82802 1.56149,-0.55268 3.27537,0.265117 3.82805,1.82659 0.547771,1.54761 -0.250513,3.24801 -1.79111,3.8152"/>
<rect width="66" x="15" y="15" rx="12" height="66" ry="12" style="opacity:.1;fill:url(#linearGradient9473);filter:url(#filter3794-6);stroke:#fff;stroke-linecap:round;stroke-width:.5;clip-path:url(#clipPath3613-6)" id="rect9471" transform="matrix(0.98553639,0,0,0.9904963,1.0797099,0.35887149)"/>
<path style="opacity:.4;fill:url(#linearGradient8668);stroke:none" id="path9475" d="m 86.9791,2.8445 c 3.56161,0 6.42889,3.46209 6.42889,7.76254 v 60.6448 c -18.8672,-14.9067 -47.3903,-24.4196 -79.2896,-24.4196 -3.61946,0 -7.19181,0.12536 -10.7148,0.36387 v -36.5891 c 0,-4.30045 2.86729,-7.76254 6.4289,-7.76254 h 77.1466 z "/>
</g>
</svg>
