<svg width="96" version="1.0" xmlns="http://www.w3.org/2000/svg" height="96" xmlns:xlink="http://www.w3.org/1999/xlink">
<defs id="defs2410">
<clipPath id="clipPath3672">
<rect width="111.24031" x="11.498101" y="11.194011" rx="7.9457364" height="111.20501" ry="7.9432149" style="fill:#fff;stroke:none" id="rect3674"/>
</clipPath>
<clipPath id="clipPath3613">
<rect width="84" x="6" y="6" rx="6" height="84" ry="6" style="fill:#fff;stroke:none" id="rect3615"/>
</clipPath>
<filter style="color-interpolation-filters:sRGB" id="filter3666">
<feGaussianBlur stdDeviation="1.83514" id="feGaussianBlur3668"/>
</filter>
<filter style="color-interpolation-filters:sRGB" id="filter8041">
<feGaussianBlur stdDeviation="0.78995058" id="feGaussianBlur8043"/>
</filter>
<filter style="color-interpolation-filters:sRGB" id="filter8047">
<feGaussianBlur stdDeviation="0.22026213" id="feGaussianBlur8049"/>
</filter>
<filter width="1.0757447" x="-0.037872378" y="-0.1443238" height="1.2886477" style="color-interpolation-filters:sRGB" id="filter8019">
<feGaussianBlur stdDeviation="0.37938072" id="feGaussianBlur8021"/>
</filter>
<filter width="1.3839999" x="-0.192" y="-0.192" height="1.3839999" style="color-interpolation-filters:sRGB" id="filter3794-9">
<feGaussianBlur stdDeviation="5.28" id="feGaussianBlur3796-4"/>
</filter>
<filter style="color-interpolation-filters:sRGB" id="filter3174">
<feGaussianBlur stdDeviation="1.71" id="feGaussianBlur3176"/>
</filter>
<linearGradient id="linearGradient2908" xlink:href="#linearGradient3737-6" y1="20.220806" x1="48" y2="138.66119" x2="48" gradientUnits="userSpaceOnUse"/>
<linearGradient gradientTransform="matrix(1.0058652,0,0,0.994169,100,0)" id="ButtonShadow-0" y1="92.539597" x1="45.447727" y2="7.0165396" x2="45.447727" gradientUnits="userSpaceOnUse">
<stop offset="0" id="stop3750-8"/>
<stop offset="1" style="stop-opacity:.588" id="stop3752-5"/>
</linearGradient>
<linearGradient id="linearGradient3737-6">
<stop offset="0" style="stop-color:#fff" id="stop3739-1"/>
<stop offset="1" style="stop-color:#fff;stop-opacity:0" id="stop3741-5"/>
</linearGradient>
<linearGradient gradientTransform="matrix(1.0238095,0,0,1.0119048,-1.1428571,-98.071429)" id="linearGradient3780" xlink:href="#ButtonShadow-0" y1="6.1317081" x1="32.251034" y2="90.238609" x2="32.251034" gradientUnits="userSpaceOnUse"/>
<linearGradient id="linearGradient3781" xlink:href="#linearGradient3770" y1="87" x1="48" y2="-17" x2="48" gradientUnits="userSpaceOnUse"/>
<linearGradient id="linearGradient3778" xlink:href="#linearGradient3770" y1="88" x1="48" y2="-16" x2="48" gradientUnits="userSpaceOnUse"/>
<linearGradient gradientTransform="matrix(0.76488859,0,0,0.76488859,1.7349463,1.5614309)" id="linearGradient3811" xlink:href="#linearGradient8005" y1="16.687328" x1="46.80846" y2="87.928337" x2="65.76947" gradientUnits="userSpaceOnUse"/>
<linearGradient id="linearGradient3776" xlink:href="#linearGradient3770" y1="88" x1="48" y2="-16" x2="48" gradientUnits="userSpaceOnUse"/>
<linearGradient gradientTransform="matrix(1.0238095,0,0,1.0119048,-1.1428571,-98.071429)" id="linearGradient3071" xlink:href="#ButtonShadow-0" y1="6.1317081" x1="32.251034" y2="90.238609" x2="32.251034" gradientUnits="userSpaceOnUse"/>
<linearGradient gradientTransform="matrix(1.0238095,0,0,1.0119048,-1.1428571,-98.071429)" id="linearGradient3772" xlink:href="#ButtonShadow-0" y1="6.1317081" x1="32.251034" y2="90.238609" x2="32.251034" gradientUnits="userSpaceOnUse"/>
<linearGradient gradientTransform="translate(0,-97)" id="linearGradient3721" xlink:href="#ButtonShadow-0" y1="6.1317081" x1="32.251034" y2="90.238609" x2="32.251034" gradientUnits="userSpaceOnUse"/>
<linearGradient gradientTransform="matrix(1.0238095,0,0,1.0119048,-1.1428571,-98.071429)" id="linearGradient3725" xlink:href="#ButtonShadow-0" y1="6.1317081" x1="32.251034" y2="90.238609" x2="32.251034" gradientUnits="userSpaceOnUse"/>
<linearGradient id="linearGradient3783" xlink:href="#linearGradient3770" y1="87" x1="48" y2="-17" x2="48" gradientUnits="userSpaceOnUse"/>
<linearGradient id="linearGradient3188" xlink:href="#linearGradient3737" y1="6" x1="36.357143" y2="63.893143" x2="36.357143" gradientUnits="userSpaceOnUse"/>
<linearGradient id="linearGradient8005">
<stop offset="0" style="stop-color:#2f70b4" id="stop8007"/>
<stop offset="1" style="stop-color:#4588ce" id="stop8009"/>
</linearGradient>
<linearGradient id="linearGradient3706" xlink:href="#linearGradient3187" y1="90" x1="48" y2="5.9877172" x2="48" gradientUnits="userSpaceOnUse"/>
<linearGradient id="linearGradient3737">
<stop offset="0" style="stop-color:#fff" id="stop3739"/>
<stop offset="1" style="stop-color:#fff;stop-opacity:0" id="stop3741"/>
</linearGradient>
<linearGradient id="linearGradient8033">
<stop offset="0" style="stop-color:#fff" id="stop8035"/>
<stop offset="1" style="stop-color:#fff;stop-opacity:0" id="stop8037"/>
</linearGradient>
<linearGradient id="linearGradient3187">
<stop offset="0" style="stop-color:#e0880b" id="stop3189"/>
<stop offset="1" style="stop-color:#f7ce50" id="stop3191"/>
</linearGradient>
<linearGradient id="linearGradient8053">
<stop offset="0" style="stop-color:#fff" id="stop8055"/>
<stop offset="1" style="stop-color:#fff;stop-opacity:0" id="stop8057"/>
</linearGradient>
<linearGradient id="linearGradient3770">
<stop offset="0" id="stop3772"/>
<stop offset="1" style="stop-opacity:0" id="stop3774"/>
</linearGradient>
<linearGradient id="linearGradient7985">
<stop offset="0" style="stop-color:#fff" id="stop7987"/>
<stop offset="0.1" style="stop-color:#fff" id="stop7997"/>
<stop offset="0.30000001" style="stop-color:#e6e6e6" id="stop7993"/>
<stop offset="0.80000001" style="stop-color:#bebebe" id="stop7995"/>
<stop offset="1" style="stop-color:#e6e6e6" id="stop7989"/>
</linearGradient>
<linearGradient gradientTransform="scale(1.0058652,0.994169)" id="ButtonShadow" y1="92.539597" x1="45.447727" y2="7.0165396" x2="45.447727" gradientUnits="userSpaceOnUse">
<stop offset="0" id="stop3750"/>
<stop offset="1" style="stop-opacity:.588" id="stop3752"/>
</linearGradient>
<radialGradient fx="76.367531" fy="78" cx="76.367531" cy="78" r="2.767844" id="radialGradient3800" xlink:href="#linearGradient8053" gradientUnits="userSpaceOnUse"/>
<radialGradient fx="48" fy="90.171875" cx="48" cy="90.171875" gradientTransform="matrix(1.1573129,0,0,0.99590774,-7.5510206,0.19713193)" r="42" id="radialGradient3619" xlink:href="#linearGradient3737" gradientUnits="userSpaceOnUse"/>
<radialGradient fx="48.17165" fy="77.798073" cx="48.17165" cy="77.798073" gradientTransform="matrix(1.6338787,1.7473377e-7,-3.0351881e-7,2.8381058,-30.534959,-134.76277)" r="15.495689" id="radialGradient3798" xlink:href="#linearGradient8033" gradientUnits="userSpaceOnUse"/>
<radialGradient fx="76.367531" fy="78" cx="76.367531" cy="78" r="2.767844" id="radialGradient3802" xlink:href="#linearGradient8053" gradientUnits="userSpaceOnUse"/>
<radialGradient fx="63.75" fy="57.679382" cx="63.75" cy="57.679382" gradientTransform="matrix(-1.5581724,1.4064304e-7,-1.2408086e-7,-1.3643811,163.0835,137.55769)" r="34" id="radialGradient3777" xlink:href="#linearGradient7985" gradientUnits="userSpaceOnUse"/>
</defs>
<g style="display:none" id="layer2">
<rect width="86" x="5" y="7" rx="6" height="85" ry="6" style="opacity:.9;fill:url(#ButtonShadow);filter:url(#filter3174);stroke:none" id="rect3745"/>
</g>
<g style="stroke:none" id="layer4">
<path style="opacity:.08;fill:url(#linearGradient3071)" id="path3786" d="m 12,-95.0312 c -5.51109,0 -10.0312,4.52016 -10.0312,10.0312 v 71 c 0,5.51109 4.52016,10.0312 10.0312,10.0312 h 72 c 5.51109,0 10.0312,-4.52016 10.0312,-10.0312 v -71 c 0,-5.51109 -4.52016,-10.0312 -10.0312,-10.0312 h -72 z " transform="scale(1,-1)"/>
<path style="opacity:.1;fill:url(#linearGradient3780)" id="path3778" d="m 12,-94.0312 c -4.97163,0 -9.03125,4.05962 -9.03125,9.03125 v 71 c 0,4.97163 4.05962,9.03125 9.03125,9.03125 h 72 c 4.97163,0 9.03125,-4.05962 9.03125,-9.03125 v -71 c 0,-4.97163 -4.05962,-9.03125 -9.03125,-9.03125 h -72 z " transform="scale(1,-1)"/>
<path style="opacity:.2;fill:url(#linearGradient3772)" id="path3770" d="m 12,-93 c -4.40913,0 -8,3.59087 -8,8 v 71 c 0,4.40913 3.59087,8 8,8 h 72 c 4.40913,0 8,-3.59087 8,-8 v -71 c 0,-4.40913 -3.59087,-8 -8,-8 h -72 z " transform="scale(1,-1)"/>
<rect width="86" x="5" y="-92" rx="7" height="85" ry="7" style="opacity:.3;fill:url(#linearGradient3725)" id="rect3723" transform="scale(1,-1)"/>
<rect width="84" x="6" y="-91" rx="6" height="84" ry="6" style="opacity:.45;fill:url(#linearGradient3721)" id="rect3716" transform="scale(1,-1)"/>
</g>
<g id="layer1">
<rect width="84" x="6" y="6" rx="6" height="84" ry="6" style="fill:url(#linearGradient3706);stroke:none" id="rect2419"/>
<path style="opacity:.2;fill:none;filter:url(#filter3666);stroke:#fff;stroke-width:5.388;clip-path:url(#clipPath3672)" id="path6999" d="m 3.2716,125.0013 c 36.5987,-2.97448 74.2074,0.75124 109.808,-10.0802 17.0532,-3.93639 33.9848,-17.9211 41.7916,-38.3112 m -153.8539,41.7852 c 36.042,-4.24752 73.2745,-2.08361 108.256,-13.7963 16.872,-4.54806 33.5185,-18.4965 41.5297,-38.5835 m -152.0401,45.7735 c 35.4852,-5.52056 72.3416,-4.91847 106.704,-17.5123 16.6907,-5.15972 33.0523,-19.0718 41.2678,-38.8558 m -150.2262,49.7619 c 34.9285,-6.79361 71.4087,-7.75333 105.152,-21.2284 16.5094,-5.77139 32.586,-19.6471 41.0059,-39.1281 m -148.4123,53.7502 c 34.3717,-8.06665 70.4757,-10.5882 103.6,-24.9445 16.3281,-6.38305 32.1198,-20.2225 40.7441,-39.4004 m -146.5984,57.7386 c 33.8149,-9.33969 69.5428,-13.423 102.048,-28.6606 16.1469,-6.99472 31.6535,-20.7978 40.4822,-39.6727 m -144.7845,61.727 c 33.2582,-10.6127 68.6099,-16.2579 100.496,-32.3766 15.9656,-7.60638 31.1873,-21.3731 40.2203,-39.945 m -142.9707,65.7153 c 32.7014,-11.8858 67.677,-19.0927 98.9441,-36.0927 15.7843,-8.21805 30.721,-21.9485 39.9584,-40.2172 m -141.1568,69.7037 c 32.1447,-13.1588 66.744,-21.9276 97.3921,-39.8088 15.603,-8.82972 30.2548,-22.5238 39.6965,-40.4895 m -139.3429,73.6921 c 31.5879,-14.4319 65.8111,-24.7625 95.8401,-43.5249 15.4218,-9.44138 29.7885,-23.0992 39.4346,-40.7618 m -137.529,77.6804 c 31.0312,-15.7049 64.8782,-27.5973 94.2881,-47.2409 15.2405,-10.053 29.3222,-23.6745 39.1727,-41.0341 m -135.7151,81.6688 c 30.4744,-16.9779 63.9453,-30.4322 92.7361,-50.957 15.0592,-10.6647 28.856,-24.2498 38.9108,-41.3064 m -133.9013,85.6572 c 29.9176,-18.251 63.0124,-33.267 91.1841,-54.6731 14.8779,-11.2764 28.3898,-24.8252 38.6489,-41.5787 m -132.0874,89.6455 c 29.3609,-19.524 62.0794,-36.1019 89.6321,-58.3892 14.6966,-11.888 27.9235,-25.4005 38.3871,-41.851" transform="matrix(0.75512196,0,0,0.75536166,-2.682469,-2.4555262)"/>
<g style="stroke:none">
<path style="opacity:.5;fill:url(#linearGradient3188)" id="rect3728" d="m 12,6 c -3.324,0 -6,2.676 -6,6 v 2 68 2 c 0,0.334721 0.04135,0.6507 0.09375,0.96875 0.0487,0.295596 0.09704,0.596915 0.1875,0.875 0.00988,0.03038 0.020892,0.0636 0.03125,0.09375 0.098865,0.287771 0.23488,0.547452 0.375,0.8125 0.144592,0.273507 0.315616,0.535615 0.5,0.78125 0.184384,0.245635 0.373776,0.473472 0.59375,0.6875 0.439947,0.428056 0.94291,0.814526 1.5,1.09375 0.278545,0.139612 0.573473,0.246947 0.875,0.34375 -0.256202,-0.100222 -0.486711,-0.236272 -0.71875,-0.375 -0.00741,-0.0044 -0.023866,0.0045 -0.03125,0 -0.031933,-0.0193 -0.062293,-0.04251 -0.09375,-0.0625 -0.120395,-0.0767 -0.231023,-0.163513 -0.34375,-0.25 -0.106173,-0.0808 -0.213281,-0.161112 -0.3125,-0.25 -0.17793,-0.161433 -0.34746,-0.345388 -0.5,-0.53125 -0.107579,-0.130255 -0.218394,-0.265285 -0.3125,-0.40625 -0.025089,-0.03838 -0.038446,-0.08587 -0.0625,-0.125 -0.064763,-0.103032 -0.130228,-0.204517 -0.1875,-0.3125 -0.101008,-0.194706 -0.205675,-0.415701 -0.28125,-0.625 -0.00796,-0.02181 -0.023589,-0.04055 -0.03125,-0.0625 -0.0318251,-0.09195 -0.0358045,-0.186831 -0.0625,-0.28125 -0.0303323,-0.106618 -0.0703894,-0.203031 -0.09375,-0.3125 -0.0728786,-0.341512 -0.125,-0.698205 -0.125,-1.0625 v -2 -68 -2 c 0,-2.78185 2.21815,-5 5,-5 h 2 68 2 c 2.78185,0 5,2.21815 5,5 v 2 68 2 c 0,0.364295 -0.05212,0.720988 -0.125,1.0625 -0.04415,0.206893 -0.08838,0.397658 -0.15625,0.59375 -0.0077,0.02195 -0.0233,0.04069 -0.03125,0.0625 -0.06274,0.173739 -0.138383,0.367449 -0.21875,0.53125 -0.04158,0.0828 -0.07904,0.169954 -0.125,0.25 -0.0546,0.09721 -0.126774,0.18835 -0.1875,0.28125 -0.09411,0.140965 -0.204921,0.275995 -0.3125,0.40625 -0.143174,0.17445 -0.303141,0.346998 -0.46875,0.5 -0.01117,0.0102 -0.01998,0.02115 -0.03125,0.03125 -0.138386,0.125556 -0.285091,0.234436 -0.4375,0.34375 -0.102571,0.07315 -0.204318,0.153364 -0.3125,0.21875 -0.0074,0.0045 -0.02384,-0.0044 -0.03125,0 -0.232039,0.138728 -0.462548,0.274778 -0.71875,0.375 0.301527,-0.0968 0.596455,-0.204138 0.875,-0.34375 0.55709,-0.279224 1.06005,-0.665694 1.5,-1.09375 0.219973,-0.214028 0.409366,-0.441865 0.59375,-0.6875 0.184384,-0.245635 0.355408,-0.507743 0.5,-0.78125 0.14012,-0.265048 0.276135,-0.524729 0.375,-0.8125 0.01041,-0.03078 0.02133,-0.06274 0.03125,-0.09375 0.09046,-0.278085 0.1388,-0.579404 0.1875,-0.875 0.0524,-0.31805 0.09375,-0.634029 0.09375,-0.96875 v -2 -68 -2 c 0,-3.324 -2.676,-6 -6,-6 h -72 z "/>
<path style="opacity:.2;fill:url(#radialGradient3619)" id="path3615" d="M 12,90 C 8.676,90 6,87.324 6,84 L 6,82 6,14 6,12 c 0,-0.334721 0.04135,-0.6507 0.09375,-0.96875 0.0487,-0.295596 0.09704,-0.596915 0.1875,-0.875 C 6.29113,10.12587 6.302142,10.09265 6.3125,10.0625 6.411365,9.774729 6.5473802,9.515048 6.6875,9.25 6.8320918,8.976493 7.0031161,8.714385 7.1875,8.46875 7.3718839,8.223115 7.5612765,7.995278 7.78125,7.78125 8.221197,7.353194 8.72416,6.966724 9.28125,6.6875 9.559795,6.547888 9.8547231,6.440553 10.15625,6.34375 9.9000482,6.443972 9.6695391,6.580022 9.4375,6.71875 c -0.00741,0.0044 -0.023866,-0.0045 -0.03125,0 -0.031933,0.0193 -0.062293,0.04251 -0.09375,0.0625 -0.120395,0.0767 -0.2310226,0.163513 -0.34375,0.25 -0.1061728,0.0808 -0.2132809,0.161112 -0.3125,0.25 C 8.4783201,7.442683 8.3087904,7.626638 8.15625,7.8125 8.0486711,7.942755 7.9378561,8.077785 7.84375,8.21875 7.818661,8.25713 7.805304,8.30462 7.78125,8.34375 7.716487,8.446782 7.6510225,8.548267 7.59375,8.65625 7.4927417,8.850956 7.3880752,9.071951 7.3125,9.28125 7.30454,9.30306 7.288911,9.3218 7.28125,9.34375 7.2494249,9.4357 7.2454455,9.530581 7.21875,9.625 7.1884177,9.731618 7.1483606,9.828031 7.125,9.9375 7.0521214,10.279012 7,10.635705 7,11 l 0,2 0,68 0,2 c 0,2.781848 2.2181517,5 5,5 l 2,0 68,0 2,0 c 2.781848,0 5,-2.218152 5,-5 l 0,-2 0,-68 0,-2 C 89,10.635705 88.94788,10.279012 88.875,9.9375 88.83085,9.730607 88.78662,9.539842 88.71875,9.34375 88.71105,9.3218 88.69545,9.30306 88.6875,9.28125 88.62476,9.107511 88.549117,8.913801 88.46875,8.75 88.42717,8.6672 88.38971,8.580046 88.34375,8.5 88.28915,8.40279 88.216976,8.31165 88.15625,8.21875 88.06214,8.077785 87.951329,7.942755 87.84375,7.8125 87.700576,7.63805 87.540609,7.465502 87.375,7.3125 87.36383,7.3023 87.35502,7.29135 87.34375,7.28125 87.205364,7.155694 87.058659,7.046814 86.90625,6.9375 86.803679,6.86435 86.701932,6.784136 86.59375,6.71875 c -0.0074,-0.0045 -0.02384,0.0044 -0.03125,0 -0.232039,-0.138728 -0.462548,-0.274778 -0.71875,-0.375 0.301527,0.0968 0.596455,0.204138 0.875,0.34375 0.55709,0.279224 1.060053,0.665694 1.5,1.09375 0.219973,0.214028 0.409366,0.441865 0.59375,0.6875 0.184384,0.245635 0.355408,0.507743 0.5,0.78125 0.14012,0.265048 0.276135,0.524729 0.375,0.8125 0.01041,0.03078 0.02133,0.06274 0.03125,0.09375 0.09046,0.278085 0.1388,0.579404 0.1875,0.875 C 89.95865,11.3493 90,11.665279 90,12 l 0,2 0,68 0,2 c 0,3.324 -2.676,6 -6,6 l -72,0 z"/>
</g>
</g>
<g id="layer5">
<rect width="66" x="15" y="15" rx="12" height="66" ry="12" style="opacity:.15;fill:url(#linearGradient2908);filter:url(#filter3794-9);stroke:#fff;stroke-linecap:round;stroke-width:.5;clip-path:url(#clipPath3613)" id="rect3171"/>
</g>
<g id="layer3">
<g style="stroke:none;line-height:normal">
<g style="fill-rule:evenodd;color:#000;stroke-width:2;text-align:start;text-transform:none;font-family:Abandoned Bitplane;text-indent:0">
<path style="opacity:.05;fill:url(#linearGradient3783)" id="path3768" d="m 45.4062,11.2812 c -7.39874,0.09251 -15.7738,1.47107 -21.0625,7.625 a 1.00934,1.00934 0 0,0 -0.03125,0 c -2.76855,3.34359 -6.04125,6.22115 -9.78125,8.375 l .0312,.0312 c -1.20877,0.511269 -1.88966,1.7033 -1.875,2.84375 0.01545,1.20189 0.80962,2.52954 2.21875,2.84375 a 1.00934,1.00934 0 0,0 0.125,0 c 5.49829,0.595233 11.4715,0.0988 16.3438,-3.21875 a 1.00934,1.00934 0 0,0 0.03125,-0.03125 c 0.756738,-0.541487 1.42569,-0.766582 1.6875,-0.84375 0.0066,0.144191 0.04089,0.251143 -0.0625,0.6875 a 1.00934,1.00934 0 0,0 -0.03125,0.21875 v 9.125 c -8.24767,6.44341 -12.2992,17.8901 -9.03125,28 0.0028,0.0094 -0.0028,0.02188 0,0.03125 3.77351,12.7141 17.2543,20.8068 30.1875,19.6562 0.01032,-0.000545 0.02093,0.000557 0.03125,0 12.6083,-0.679817 24.5255,-10.224 26.5,-23 0.0016,-0.01014 -0.0016,-0.02111 0,-0.03125 2.02334,-11.2137 -4.37606,-22.7265 -14.3438,-27.8125 -5.41152,-2.85661 -11.7418,-4.12626 -17.875,-3.1875 -0.02345,-6.23634 0.07724,-12.5134 -0.0625,-18.7812 a 1.00934,1.00934 0 0,0 0,-0.15625 c -0.271754,-1.42199 -1.55769,-2.38742 -2.96875,-2.375 -0.01038,9.1e-05 -0.02085,-0.000198 -0.03125,0 z " transform="translate(0,1)"/>
<path style="opacity:.1;fill:url(#linearGradient3778)" id="path3762" d="m 45.4375,13.2812 c -7.28793,0.08767 -15.3392,1.48085 -20.337,7.2963 -2.83766,3.42706 -6.20368,6.35289 -10.058,8.57254 -1.77374,0.601013 -1.79304,3.4317 0.082492,3.84991 5.35796,0.580041 11.0958,0.06399 15.6875,-3.0625 1.87729,-1.3433 3.88131,-2.05396 3.1875,0.87416 0,3.1982 0,6.39639 0,9.59459 -8.19241,6.12317 -12.2471,17.4029 -9.05392,27.2366 3.61073,12.2185 16.6695,20.0921 29.1392,18.9684 12.1516,-0.641128 23.7097,-9.89924 25.5892,-22.1637 1.95165,-10.7336 -4.22823,-21.8818 -13.8094,-26.7706 -5.57683,-2.94387 -12.1704,-4.22171 -18.3964,-2.9582 -0.04285,-6.6233 0.08499,-13.2597 -0.0625,-19.875 -0.173448,-0.907593 -1.0491,-1.58004 -1.96875,-1.5625 z "/>
<path style="opacity:.15;fill:url(#linearGradient3781)" id="path3757" d="m 45.4688,13.2812 -1.0312,.0312 c -9.19455,0.338062 -13.7653,2.45584 -16.9688,5.34375 -3.18156,2.86821 -4.87092,5.8915 -9.5625,8.84375 l -2.7812,1.7812 a 0.984228,0.984228 0 0,0 0.5,1.8125 l 3.2812,.0938 c 5.43698,0.155978 8.8549,-1.55512 11.375,-3.09375 1.80525,-1.10218 3.15262,-1.85957 4.71875,-2.21875 v 13.9375 c -6.14455,4.61825 -10.125,11.6697 -10.125,19.625 0,13.9775 12.1519,25.25 27.0625,25.25 14.9106,0 27.0625,-11.2725 27.0625,-25.25 0,-13.9775 -12.1533,-25.2188 -27.0625,-25.2188 -1.87933,0 -3.68447,0.256409 -5.46875,0.59375 v -19.5312 -1.03125 a 0.984228,0.984228 0 0,0 -1,-0.96875 z " transform="translate(0,1)"/>
<path style="opacity:.3;fill:url(#linearGradient3776)" id="path3813" d="m 45.5,15.25 -1.0312,.0312 c -9.06009,0.333118 -13.2998,2.3496 -16.3438,5.09375 -3.04395,2.74415 -4.82859,5.9112 -9.6875,8.96875 l -2.7812,1.7812 3.2812,.0938 c 5.22347,0.149853 8.37534,-1.46168 10.8438,-2.96875 2.1794,-1.33061 3.8059,-2.45187 6.1875,-2.625 v 15.625 c -6.16854,4.43974 -10.125,11.3723 -10.125,19.1875 0,13.406 11.6781,24.2812 26.0938,24.2812 14.4156,0 26.0938,-10.8753 26.0938,-24.2812 0,-13.406 -11.6781,-24.25 -26.0938,-24.25 -2.21787,0 -4.38146,0.234598 -6.4375,0.71875 v -20.625 -1.03125 z "/>
</g>
<path style="fill:url(#radialGradient3777)" id="path7975" d="m 97.75,73.75 a 34,31.5 0 1 1 -68,0 34,31.5 0 1 1 68,0 z" transform="matrix(0.76770063,0,0,0.77059305,2.9898417,1.6187846)"/>
</g>
<g id="g3817">
<g style="fill-rule:evenodd">
<path style="fill:url(#linearGradient3811);stroke:#28609b;stroke-width:2" id="path8000" d="m 44.5013,14.2763 c -17.8582,0.656604 -15.4768,7.60008 -25.5339,13.9287 10.0334,0.287843 11.4243,-5.90376 17.9898,-5.64111 v 46.0807 c 9.93502,0.928579 34.302,1.23094 31.546,-14.834 -2.11142,-12.3077 -24.0019,-3.55181 -24.0019,-3.55181 v -35.9824 z  m 10.1439,38.1182 c 2.74155,0.01475 5.0779,0.606677 5.5014,3.34288 1.28641,8.31138 -15.7846,8.35721 -15.7846,8.35721 v -9.65722 c 0,0 5.71395,-2.06746 10.2832,-2.04287 z "/>
<path style="opacity:.4;fill:#fff;filter:url(#filter8019);stroke:none" id="path8013" d="m 55.1543,65.5978 c 22.1855,-7.77817 26.163,-2.59783 26.163,-2.59783 0,0 -9.69336,-2.61709 -26.0746,5.0727 l -.0884,-2.4749 z " transform="matrix(0.76488859,0,0,0.76488859,1.7349463,1.5614309)"/>
</g>
<path style="opacity:.5;fill:none;filter:url(#filter8041);stroke:url(#radialGradient3798);stroke-width:2.615" id="path8023" d="m 48.702,39.7884 0,45.6968 c 0,0 13.7886,1.76777 28.9914,-3.18198" transform="matrix(0.76488859,0,0,0.76488859,1.7349463,1.5614309)"/>
<g style="stroke:none">
<path style="opacity:.4;fill:#fff;filter:url(#filter8047);fill-rule:evenodd" id="path8045" d="m 77.2638,78.9585 c -5.58863,4.29895 -11.1783,3.14599 -11.1783,3.14599 0,0 6.48776,-0.586458 10.3109,-5.46557 0,0 3.16549,0.551814 0.867387,2.31958 z " transform="matrix(0.76488859,0,0,0.76488859,1.7349463,1.5614309)"/>
<path style="fill:url(#radialGradient3800)" id="path8051" d="m 79.1354,78 a 2.76784,2.76784 0 1,1 -5.53569,0 2.76784,2.76784 0 1,1 5.53569,0 z " transform="matrix(1.1259937,-0.74675346,0.54425166,0.82065096,-67.832995,54.307293)"/>
<path style="opacity:.4;fill:#fff;filter:url(#filter8019);fill-rule:evenodd" id="path8061" d="m 27.9043,29.9728 c 17.8681,-8.33834 16.9926,-2.37488 29.919,-0.807605 -8.13802,0.63063 -15.3736,-7.03836 -29.8306,3.28248 l -.0884,-2.4749 z " transform="matrix(-0.65020701,0.40284663,0.40284663,0.65020701,48.406966,-15.249414)"/>
<path style="opacity:.8;fill:url(#radialGradient3802)" id="path8063" d="m 79.1354,78 a 2.76784,2.76784 0 1,1 -5.53569,0 2.76784,2.76784 0 1,1 5.53569,0 z " transform="matrix(0.81502459,-0.5405203,0.39394401,0.59400927,-63.243429,14.645007)"/>
</g>
</g>
</g>
</svg>
