<svg width="128" version="1.0" xmlns="http://www.w3.org/2000/svg" height="128" xmlns:xlink="http://www.w3.org/1999/xlink">
<defs id="defs3451">
<linearGradient gradientTransform="translate(0.23641789,-0.77183621)" xlink:href="#linearGradient3187-2" id="linearGradient3141" y1="142.95851" x1="73.132851" y2="-5.7845745" gradientUnits="userSpaceOnUse" x2="72.201363"/>
<linearGradient gradientTransform="translate(0.23641789,-0.77183621)" xlink:href="#linearGradient3187-2" id="linearGradient3143" y1="136.88736" x1="38.223763" y2="-38.669949" gradientUnits="userSpaceOnUse" x2="37.292282"/>
<linearGradient gradientTransform="matrix(0.27729783,0,0,0.28092139,-666.5273,165.1555)" xlink:href="#linearGradient3825-9-3" id="linearGradient3917" y1="-562.74548" x1="2876.5884" y2="-110.18357" gradientUnits="userSpaceOnUse" x2="2430.1592"/>
<linearGradient id="linearGradient3187-2">
<stop offset="0" style="stop-color:#4d1d01" id="stop3189-5"/>
<stop offset="1" style="stop-color:#965128" id="stop3191-1"/>
</linearGradient>
<linearGradient id="linearGradient3825-9-3">
<stop offset="0" style="stop-color:#a8a8a8" id="stop3827-4-7"/>
<stop offset="1" style="stop-color:#f0ecec" id="stop3829-6-1"/>
</linearGradient>
</defs>
<rect width="112.93097" x="8.0902033" y="6.7975869" rx="8.0664988" ry="8.0663118" height="112.92838" style="fill:url(#linearGradient3141);stroke:url(#linearGradient3143);stroke-width:8.066" id="rect2419"/>
<g style="stroke:none">
<path style="opacity:.591" id="path2987" d="m 9.2081,5.3747 c -0.789581,0.08614 -1.15193,0.227116 -1.1875,2 l .4688,8.4063 c 0.276367,3.4973 0.288813,6.37524 0.28125,9.25 v 50.2812 l .7188,-21.8438 .1801,-30.9062 c -0.227383,-4.82357 -0.286923,-11.7517 -0.53125,-15.375 -0.051,-0.756392 0.654638,-1.48197 0.069911,-1.8125 z  m 5.1845,3.8103 c -0.214231,0 -0.122036,0.678392 -0.122036,1.28347 v 6.28125 c 0,0.605081 0.160769,1.09375 0.375,1.09375 0.214231,0 -0.04849,-0.490838 -0.09968,-1.09375 -0.177778,-2.09375 0.225011,-4.44533 -0.126483,-6.02829 -0.131162,-0.590694 0.187429,-1.53644 -0.0268,-1.53644 z  m -1.997,12.346 c -0.214231,0 -0.40625,0.835257 -0.40625,1.875 v 10.75 c 0,1.06238 0.07732,2.7207 0.153286,2.44417 0.05675,-0.206578 0.242304,-0.875337 0.185274,-2.57065 -0.04403,-1.30913 -0.05644,-7.93802 0.06324,-10.6235 0.0463,-1.03871 0.218678,-1.875 0.0044,-1.875 z  m 3.8438,3.5312 c -0.154686,0 -0.282547,3.30906 -0.359296,7.59435 -0.04991,2.78673 0.330126,8.7098 0.301247,9.68287 l -.3794,12.7853 c -0.07329,2.46942 0.182222,4.4375 0.4375,4.4375 0.255278,0 0.46875,-1.96699 0.46875,-4.4375 v -25.5938 c 0,-2.4705 -0.213472,-4.46875 -0.468754,-4.46875 z  m -11.2813,2.2812 c -0.189391,0 -0.34375,5.46488 -0.34375,12.2812 v 41.1562 c 0,6.81637 0.154359,12.3125 0.34375,12.3125 0.189391,0 0.34375,-5.49613 0.34375,-12.3125 v -41.1562 c 0,-6.81637 -0.154359,-12.2812 -0.34375,-12.2812 z  m 7.5313,25.5312 c -0.288486,0 -0.53125,5.46488 -0.53125,12.2812 v 41.1562 c 0,6.81637 0.242764,12.3125 0.53125,12.3125 0.288486,0 -0.101161,-5.87558 -0.101161,-12.692 v -40.7768 c 0,-6.81637 0.389647,-12.2812 0.101161,-12.2812 z  m 5.4688,12.9062 c -0.354373,0 -0.186981,2.71443 -0.193723,4.51482 l -.0276,7.359 -.0555,10.0324 c -0.01,1.80037 -0.07757,3.25 0.276803,3.25 0.354373,0 0.04025,-2.08264 -0.0074,-3.88241 -0.08888,-3.3561 0.06685,-4.96545 0.04216,-8.51043 -0.01045,-1.49975 0.258348,-3.34593 -0.04216,-5.81739 -0.150867,-1.24077 0.127085,-4.40086 0.189723,-5.27705 0.05261,-0.735933 0.172061,-1.66897 -0.182323,-1.66897 z  m -3,22.5938 c -0.284302,0 -0.5,1.10301 -0.5,2.46875 v 14.125 c 0,1.36574 0.215698,2.46875 0.5,2.46875 0.284302,0 -0.0217,-1.28198 -0.0054,-2.64762 l .168,-14.0726 c 0.01631,-1.36564 0.121643,-2.34227 -0.162654,-2.34227 z  m -6.875,5.5 c -0.354373,0 -0.643185,1.44969 -0.625,3.25 l .1897,18.7827 c 0.018185,1.80031 0.080903,3.12352 0.435277,3.12352 0.354373,0 -0.00741,-1.51285 -0.00741,-3.31324 v -18.846 c 0,-1.8004 0.361784,-2.99704 0.00741,-2.99704 z "/>
<path style="opacity:.591" id="rect3759" d="m 28.0939,16.8747 c -0.24376,0 -0.4375,5.49613 -0.4375,12.3125 l -.5059,63.018 .5059,7.5757 c 0.454206,6.80122 0.19374,12.3125 0.4375,12.3125 0.24376,0 0.4375,-5.49613 0.4375,-12.3125 l -.5059,-11.6231 c 0.168643,-3.19854 -1.21609,4.17529 -0.03069,-5.12378 0.0463,0.205619 -0.486879,-3.28293 -0.433319,-3.28293 0.214231,0 0.489056,-4.45607 0.362848,-6.70964 -0.252964,-4.51695 0.632411,-5.69055 0.379447,-9.42119 l -.1265,-12.689 c -0.0225,-2.25699 0.156737,-3.40895 -0.05749,-3.40895 -0.05356,0 0.100173,-1.82947 0.05387,-1.62385 l .1789,-17.7845 c 0.06855,-6.81602 -0.01487,-11.2393 -0.258628,-11.2393 z  m 3.4062,21.8125 c -0.08038,-0.260158 -0.46875,3.51682 -0.46875,7.90625 l .1789,5.5642 -.1789,39.9046 c -0.01967,4.38939 0.196459,7.9375 0.46875,7.9375 0.272291,0 0.5,-3.54807 0.5,-7.9375 l -.6454,-23.5098 c 0.276208,-4.74786 0.19467,-9.67459 0.470878,-14.4224 l -.0021,-5.5527 .2814,-1.8509 c -0.257577,-0.468088 -0.03432,-0.03662 -0.251006,-1.38133 -0.115941,-0.7195 0.332957,-1.63402 0.325117,-2.68675 -0.0077,-1.03923 0.09328,-1.47173 -0.678868,-3.97105 z  m -7.2812,29.4375 c -0.214231,0 0.02334,1.19315 0.04093,2.23275 0.05849,3.45728 0.57804,5.48099 0,10.4235 -0.120778,1.0327 -0.255163,1.875 -0.04093,1.875 0.214231,0 0.375,-0.835257 0.375,-1.875 v -10.7812 c 0,-1.03974 -0.160769,-1.875 -0.374998,-1.875 z  m -2.375,15.6875 c -0.173021,0 -0.3125,2.33615 -0.3125,5.25 v 30.1875 c 0,2.91385 0.936367,0.46867 0.3125,5.25 -0.02239,0.17157 0.3125,-2.33615 0.3125,-5.25 v -30.1875 c 0,-2.91385 -0.139479,-5.25 -0.3125,-5.25 z "/>
<path style="opacity:.509" id="path3781" d="m 48.0786,56.2455 c 0.0952,-0.184399 0.2743,-0.244008 0.35705,-0.232067 0.20855,0.03011 0.2618,0.210169 0.34281,0.455388 0.1992,0.602989 -0.10445,2.13129 0.0398,3.70771 -0.9839,8.01278 0.0959,8.43734 -0.19175,12.2725 l -.5753,13.6148 c -0.14307,1.04091 -0.34771,1.89715 -0.67115,2.39697 -0.96843,2.00371 -2.0556,0.600945 -2.22748,-0.632436 0.705687,-4.86678 -0.16569,-5.38677 0.006,-7.57144 0.46438,-2.38335 1.21275,-2.62089 1.95048,-3.82752 0.13121,-0.435844 0.20784,-0.722875 0.22076,-1.17532 l .5356,-17.9008 c 0.0141,-0.823408 0.11412,-0.795525 0.21338,-1.10784 z "/>
<path style="opacity:.591" id="rect2987" d="m 113.5206,8.7497 c -0.15914,0 -0.28125,6.07084 -0.28125,13.625 l -.4983,15.1155 .3194,38.0997 .6843,7.8896 -.5054,17.1452 c -0.22258,7.55088 0.12211,13.625 0.28125,13.625 0.15914,0 0.33106,-6.07086 0.3125,-13.625 l -.0531,-52.6694 c 0.096,-1.04534 -0.57523,-2.78233 -0.24708,-3.13114 l -.2163,-4.4744 .3376,-12.5195 c 0.0215,-0.796123 0.44396,-7.45034 0.44309,-8.31689 -0.007,-7.3529 -0.43434,-10.7637 -0.5767,-10.7637 z  m -4.5,.625 c 0.004,0.21418 -0.0971,1.90804 -0.12204,3.81695 l -.253,19.4018 c -0.0249,1.9089 0.16077,3.4375 0.375,3.4375 0.21423,0 -0.10531,-1.70759 -0.0722,-3.61637 l .0796,-4.5892 .4041,-6.3936 c 0.0127,-1.47225 0.0324,-2.08202 -0.009,-3.037 0.0726,-0.617354 0.15699,-1.03192 0.13248,-1.65854 l -.0127,-1.5824 c -0.0389,-0.392819 0.0532,-1.14087 -0.0588,-1.54928 0.10019,-1.01023 0.0629,-1.3169 0.0645,-2.21321 l .1559,-1.9018 -.0552,-5.9739 c 0.25401,-0.931353 -0.76533,-0.736703 -0.75447,-0.212203 z  m 11.9688,3.9375 c -0.24814,0 -0.46875,2.87536 -0.46875,6.46875 l .2468,21.5792 .2591,4.0467 c -0.2918,-2.12856 0.0596,2.71736 -0.0757,3.4215 -0.43113,2.24426 -0.66639,4.81497 -0.43023,8.17138 0.25221,3.58453 0.22061,6.5 0.46875,6.5 0.24814,0 -0.49862,-4.89649 -0.0991,-8.4676 1.43198,-12.7997 0.78916,-6.53247 1.09431,-10.6931 l -.8761,-13.1005 .0654,-8.9779 .253,-2.4796 c 0.10229,-1.00268 -0.18936,-6.46875 -0.4375,-6.46875 z  m -14.25,3.4062 c -0.21423,0 -0.375,0.835257 -0.375,1.875 v 10.7812 c 0,1.03974 0.16077,1.875 0.375,1.875 0.21423,0 0.0173,-0.835257 0.0173,-1.875 l .1048,-5.4699 .0741,-5.3114 c 0.0145,-1.03964 0.0181,-1.875 -0.19613,-1.875 z  m 10.375,12.4063 c -0.21423,0 -0.375,1.4496 -0.375,3.25 v 18.625 c 0,1.8004 0.16077,3.25 0.375,3.25 0.21423,0 0.375,-1.4496 0.375,-3.25 v -18.625 c 0,-1.8004 -0.16077,-3.25 -0.375,-3.25 z  m -5.8125,11.125 c -0.21423,0 -0.40625,1.52843 -0.40625,3.4375 v 19.7812 c 0,1.90907 0.19202,3.4375 0.40625,3.4375 0.21423,0 0.375,-1.52843 0.375,-3.4375 v -19.7812 c 0,-1.90907 -0.16077,-3.4375 -0.375,-3.4375 z  m -2.625,10.0938 c -0.24814,0 -0.44101,2.87546 -0.46875,6.46875 -0.0139,1.79995 0.1346,2.62557 0.26283,3.57278 0.0343,0.252943 0.004,1.14697 0.0317,1.43812 -0.0593,9.65934 -0.0553,6.21265 -0.11458,9.82902 l -.2805,6.7121 .4583,15.7562 c 0.0231,3.59332 -0.13714,6.41056 0.111,6.41056 0.24814,0 0.16919,-2.9066 0.16919,-6.5 v -10.4812 l .3476,-16.8132 -.0793,-9.9244 c -0.0287,-3.59328 -0.18936,-6.46875 -0.4375,-6.46875 z  m 12.4688,19.25 c -0.20573,0 -0.375,1.4496 -0.375,3.25 v 18.625 c 0,1.8004 0.16927,3.25 0.375,3.25 0.20573,0 0.10669,-1.53903 0.10669,-3.33944 l -.0532,-3.5749 c -0.0945,-6.35342 -0.22298,-4.13087 -0.18443,-5.71746 l .2376,-9.7798 c 0.0437,-1.79987 0.099,-2.71338 -0.10669,-2.71338 z  m -3.75,7.8125 c -0.17807,0 -0.32114,1.69108 -0.3125,3.78125 l .0894,21.625 c 0.009,2.09017 0.045,3.78125 0.22306,3.78125 0.17807,0 0.3125,-1.69106 0.3125,-3.78125 v -21.625 c 0,-2.09019 -0.13443,-3.78125 -0.3125,-3.78125 z  m -7.4375,28.6562 c -0.21423,0 -0.375,0.86651 -0.375,1.90625 v 10.75 c 0,1.03974 0.16077,1.875 0.375,1.875 0.21423,0 0.375,-0.83526 0.375,-1.875 v -10.75 c 0,-1.03974 -0.16077,-1.90625 -0.375,-1.90625 z "/>
<rect width="1.0804375" x="59.550392" y="76.340393" rx=".5402" height="44.902649" ry="5.8028717" style="opacity:.591" id="rect2989"/>
<rect width="0.89581168" x="54.690651" y="6.5535107" rx=".4479" ry="15.029376" height="116.29738" style="opacity:.591" id="rect2991"/>
<path style="opacity:.591" id="rect2993" d="m 64.4689,5.1559 c -0.288886,0 -0.53125,3.51682 -0.53125,7.90625 l .003,25.9483 .2477,11.1808 .0176,5.0966 -.0894,5.8367 c -0.05156,3.36498 0.09424,5.47354 0.352377,5.34384 0.275796,-0.138568 0.05683,-3.11916 0.114391,-5.2751 0.03461,-1.29651 0.397603,-1.72387 0.385609,-2.6624 l -.4472,-34.993 .4472,-10.4758 c 0.187203,-4.38544 -0.211114,-7.90625 -0.5,-7.90625 z  m -3.5625,12.875 c -0.480516,-3.41956 -1.71613,-5.02124 -0.25,4.375 l .3865,2.4771 .1169,3.9287 c 0.133553,1.72362 0.403359,3.17473 -0.14565,6.26347 l -.3577,12.3619 c -0.06987,2.41433 0.101256,4.34375 0.25,4.34375 0.148744,0 0.207626,-1.92953 0.28125,-4.34375 0.200213,-6.56524 0.759731,-13.1305 0.536619,-19.6957 l -.5366,-5.3355 c -0.241703,-2.40322 -0.260552,-4.2277 -0.28125,-4.375 z "/>
<path style="opacity:.591" id="rect2995" d="m 103.2706,5.7497 c -0.24973,0 -0.46875,4.79762 -0.46875,10.75 v 61.6562 c 0,5.95238 0.21902,10.75 0.46875,10.75 0.24973,0 0.4375,-4.79762 0.4375,-10.75 l -.3636,-17.1907 .1632,-10.2854 -.3054,-21.4627 .5059,-12.7174 c 0.23661,-5.94767 -0.18777,-10.75 -0.4375,-10.75 z  m 1.9688,29.5313 c -0.29334,0 -0.53125,4.79762 -0.53125,10.75 l .3795,28.9727 .336,32.3258 c 0.0619,5.95206 -0.47758,11.1077 -0.18424,11.1077 0.29334,0 0.53125,-4.79762 0.53125,-10.75 l -.1555,-25.2175 .535,-6.8336 c -0.0433,-2.48261 -0.18633,-4.76558 -0.56557,-6.57623 l -.5294,-23.0289 c -0.13679,-5.95081 0.47758,-10.75 0.18424,-10.75 z "/>
<path style="opacity:.591" id="rect3767" d="m 86.9253,2.9071 c -0.194454,0 0.04329,8.04257 -0.206417,15.5926 -0.454166,13.7319 0.442285,27.4556 0.5625,41.1875 0.108129,12.3514 -0.580338,24.7111 -0.5625,37.0625 0.01091,7.55415 0.149296,13.625 0.34375,13.625 0.194454,0 0.365598,-6.07087 0.34375,-13.625 -0.03121,-10.7927 0.696157,-23.2687 0.59375,-34.1562 -0.09369,-9.96121 -0.451916,-20.8035 -0.607746,-30.361 -0.04205,-2.57881 -0.338884,-5.49351 -0.241373,-7.80924 0.09227,-2.1914 0.24819,-5.06 0.301104,-4.52734 0.07187,0.723466 4.1346,4.77734 4.10726,7.51061 -0.02389,2.38858 -2.7716,24.8166 -2.40299,24.5932 0.426301,-0.258374 1.43395,-9.83666 2.12121,-16.4952 0.627815,-6.08258 0.987959,-7.62106 0.628786,-9.19234 -0.345222,-1.51023 -4.5121,-7.44531 -4.5,-7.8125 0.104647,-3.17708 -0.120403,-7.51852 -0.07629,-10.8818 0.02577,-1.96461 0.124756,-4.59371 0.0049,-4.59194 -0.457538,0.00679 -0.344894,-0.118895 -0.409723,-0.118895 z  m -15.1126,2.1864 c -0.316925,0 -0.415199,1.57538 -0.21875,3.5625 l .8514,10.2664 1.1799,10.3273 c 0.196449,1.98712 0.620575,3.59375 0.9375,3.59375 0.316925,0 -0.12142,-1.60663 -0.317869,-3.59375 l -1.2848,-8.5737 c -0.07385,-1.71451 -0.351171,-3.70841 -0.326546,-4.10755 0.03918,-0.547163 -0.149202,-0.739342 0.16869,-0.980568 0.27088,-0.364983 0.57081,0.595839 0.874709,1.52634 0.178974,0.548 0.237583,2.00088 0.194648,1.5086 -0.01355,-0.155388 0.138286,2.6887 0.267795,3.40058 0.08347,0.458772 0.13566,0.58832 0.133046,-1.74958 -0.111588,-1.14241 -0.131879,-1.03344 -0.220034,-1.86977 -0.04235,-0.590116 -0.09171,-1.18023 -0.251094,-1.77035 -0.289332,-0.875087 -0.33483,-1.4758 -1.22026,-1.69549 l -.5778,-4.3168 .0833,-1.9655 c -0.196449,-1.98712 0.04309,-3.5625 -0.273839,-3.5625 z  m 3.5923,-2.2078 c -0.05984,-0.439059 0.06805,3.39801 -0.0096,4.01446 -0.120466,0.956616 0.06585,0.63627 0.08308,3.09164 l .1167,1.5095 -.0503,1.6412 c -0.01852,0.604798 0.116051,1.13847 0.330282,1.13847 0.214231,0 0.152764,0.10272 0.06197,-1.13847 -0.076162,-1.04123 -0.000241,-2.02361 -0.05368,-3.37906 -0.100995,-2.5617 -0.012323,-5.56748 0.112448,-6.663 0.068471,-0.601194 -0.551664,0.0732994 -0.590919,-0.21473 z  m 4.9077,5.739 c -0.284302,0 0.132411,1.4496 0.132411,3.25 v 6.08548 l -.1265,12.5708 c -0.01811,1.80031 -0.290231,3.25 -0.0059,3.25 0.284302,0 0.53125,-1.4496 0.53125,-3.25 l .2529,-16.2388 -.253,-2.4175 c -0.187369,-1.79063 -0.246948,-3.25 -0.53125,-3.25 z  m -12.0312,7.5938 c -0.214231,0 -0.375,0.488669 -0.375,1.09375 v 6.25 c 0,0.605081 0.160769,1.09375 0.375,1.09375 0.214231,0 0.40625,-0.488669 0.40625,-1.09375 v -6.25 c 0,-0.605081 -0.192019,-1.09375 -0.40625,-1.09375 z  m 3.2812,8.8438 c -0.214231,0 -0.375,1.11615 -0.375,2.5 v 14.3438 c 0,1.38385 0.160769,2.5 0.375,2.5 0.214231,0 0.40625,-1.11615 0.40625,-2.5 v -14.3438 c 0,-1.38385 -0.192019,-2.5 -0.40625,-2.5 z  m -3.9688,4.8438 c -0.284302,0 -0.5,1.4496 -0.5,3.25 v 18.6562 c 0,1.8004 0.215698,3.25 0.5,3.25 0.284302,0 -0.137525,-1.57645 -0.101161,-3.37648 l .3794,-18.7827 c 0.03636,-1.80003 0.006,-2.99704 -0.278286,-2.99704 z  m 25.4688,3.4688 c -0.195812,0.07361 -0.369906,0.58182 -0.46875,1.125 -0.139632,0.767321 0.206627,3.72326 0.15625,3.0625 l -.0625,7.7188 -.2188,10 .2188,14.2812 .0312,22.6562 c 0.105821,3.32922 -0.441207,4.26256 0.34375,9.96875 0.372179,2.53448 1.00754,5.56221 0.4375,-7.4375 l -.1875,-13.1562 -.5366,-18.8286 .2812,-20.7673 c 0.36467,-8.11905 0.436156,-8.78483 0.0054,-8.62289 z  m -19.0312,.6562 c -0.298883,0 -0.53125,2.17398 -0.53125,4.875 v 27.9688 c 0,2.70102 0.232367,4.90625 0.53125,4.90625 0.298883,0 0.04384,-3.21712 0.05657,-5.91811 l .1265,-26.8304 c 0.01273,-2.70099 0.11583,-5.00148 -0.183052,-5.00148 z  m 10.125,.5312 c -0.194454,0 -0.375,4.51239 -0.375,10.125 v 58.1562 c 0,5.61261 0.180546,10.125 0.375,10.125 0.194454,0 0.34375,-4.51239 0.34375,-10.125 v -58.1562 c 0,-5.61261 -0.149296,-10.125 -0.34375,-10.125 z  m -2.4375,6.4375 c -0.214231,0 -0.40625,1.86188 -0.40625,4.1875 v 24.0938 c 0,2.32562 0.192019,4.1875 0.40625,4.1875 0.214231,0 0.375,-1.86188 0.375,-4.1875 v -24.0938 c 0,-2.32562 -0.160769,-4.1875 -0.375,-4.1875 z  m -4.5625,3.0312 c -0.214231,0 -0.375,0.835257 -0.375,1.875 l .25,2.9062 -.25,7.875 c -0.03342,1.03921 0.160769,1.875 0.375,1.875 0.214231,0 0.375,-0.835257 0.375,-1.875 l -.125,-5.7188 .5625,-2.0312 -.4375,-3.0312 c -0.148488,-1.02909 -0.160769,-1.875 -0.375,-1.875 z  m -6.2812,11.375 c -0.255278,0 -0.44992,0.976337 -0.46875,2.1875 l -.1265,8.1356 c -0.01883,1.21116 0.339954,6.61438 0.595232,6.61438 0.255278,0 0.342268,1.30049 0.342268,0.08918 v -12.5625 c 0,-1.21131 -0.08699,-4.46418 -0.342268,-4.46418 z  m -2.8125,15.625 c -0.248139,0 -0.46875,2.87536 -0.46875,6.46875 v 37.2187 c 0,3.59339 0.220611,6.5 0.46875,6.5 0.248139,0 0.4375,-2.90661 0.4375,-6.5 v -37.2187 c 0,-3.59339 -0.189361,-6.46875 -0.4375,-6.46875 z  m 11.125,.3125 c -0.354373,0 -0.65625,1.4496 -0.65625,3.25 v 18.6562 c 0,1.8004 0.301877,3.25 0.65625,3.25 0.354373,0 0.112537,-1.62863 0.08838,-3.42887 -0.08344,-6.21875 0.197912,-17.2671 0,-19.5506 -0.155454,-1.79368 0.265993,-2.17676 -0.08838,-2.17676 z  m -4.3125,6.5938 c -0.214231,0 -0.40625,0.488669 -0.40625,1.09375 v 8.75422 c 0,0.605081 -0.165727,3.06135 0.0485,3.06135 0.214231,0 0.732746,-2.45627 0.732746,-3.06135 v -8.75422 c 0,-0.605081 -0.160769,-1.09375 -0.374996,-1.09375 z  m -1.2812,16.6875 c -0.214231,0 -0.375,1.11615 -0.375,2.5 v 14.3437 c 0,1.38385 0.160769,2.5 0.375,2.5 0.214231,0 0.40625,-1.11615 0.40625,-2.5 v -14.3437 c 0,-1.38385 -0.192019,-2.5 -0.40625,-2.5 z  m 5.2188,7.0312 c -0.286919,-0.0272 -0.470378,1.17439 -0.4375,2.71875 l .3438,16 c 0.03288,1.54436 0.275581,2.81652 0.5625,2.84375 0.286919,0.0272 0.501628,-1.20564 0.46875,-2.75 l -.3438,-16 c -0.03288,-1.54436 -0.306831,-2.78527 -0.59375,-2.8125 z "/>
<path style="opacity:.453" id="path3769" d="m 42.3338,80.9315 .3127,1.7731 1.7948,18.4458 .4437,19.1406 c -0.156918,1.29314 -0.405562,2.02887 -0.665528,2.69586 -0.286822,0.77805 -1.12267,0.6666 -1.33105,0 -0.104145,-0.78705 -0.116563,-1.46265 -0.117651,-2.12447 l .1177,-14.455 c 0.09216,-4.08053 -0.152957,-5.90683 -0.343161,-8.10012 l -.877,-10.3665 c -0.02732,-3.69883 0.43034,-4.74578 0.665527,-7.00923 z "/>
<path style="opacity:.591" id="rect3775" d="m 90.9689,58.4997 c -0.248139,0 -0.46875,2.90661 -0.46875,6.5 v 37.2187 c 0,3.59339 0.220611,6.46875 0.46875,6.46875 0.248139,0 0.4375,-2.87536 0.4375,-6.46875 l -.375,-23.5312 .375,-13.6875 c 0.09969,-3.59201 -0.189361,-6.5 -0.4375,-6.5 z  m 6.75,13.8438 c -0.248139,0 -0.4375,2.87536 -0.4375,6.46875 l .25,12.625 -.125,15.0937 -.3438,4.125 .2188,5.375 c 0.135031,3.59085 0.189361,6.5 0.4375,6.5 0.248139,0 0.46875,-2.90661 0.46875,-6.5 l -.3577,-32.3836 -.0539,-2.875 .25,-5.7521 c 0.215692,-3.58691 -0.058993,-2.67676 -0.307134,-2.67676 z  m -8.25,38.0937 c -0.304826,0 -0.115318,0.87852 -0.115318,1.77262 l .21,6.5682 -.0311,2.6236 c -0.192662,0.8731 -0.05217,1.56755 0.252646,1.56755 0.304826,0 0.246294,-0.76289 0.246294,-1.65699 l .0261,-2.317 .0677,-1.7143 -.2188,-2.8125 -.0647,-2.817 c 0.04638,-0.8929 -0.06795,-1.2143 -0.372772,-1.2143 z "/>
<path style="opacity:.576" id="path3788" d="m 55.6139,6.9256 -.1464,1.2303 -.0862,1.4831 .6373,14.3083 .3849,5.5546 .8548,7.3399 c 0.168728,1.28556 0.372502,2.20997 0.408471,4.86345 l .4737,28.4746 .7369,-30.7119 c 0.08216,-1.98592 -0.153798,-3.56211 -0.339933,-5.20247 l -.818,-5.8484 c -0.4183,-2.58066 -0.396639,-4.02796 -0.565865,-5.967 l -.5921,-14.9144 c -0.219192,-2.35711 -0.779475,-1.28354 -0.947427,-0.610169 z "/>
<rect width="0.89581043" x="64.111351" y="80.082207" rx=".4479" ry="5.4454556" height="42.136959" style="opacity:.356" id="rect3794"/>
<path style="opacity:.591" id="rect3004" d="m 42.5465,3.1172 c -0.221646,0.111561 0.09912,4.66409 0.09912,8.25748 l .1789,16.6351 -.1789,20.5837 c -0.03123,3.59326 0.189361,6.5 0.4375,6.5 0.248139,0 0.420985,-2.90664 0.4375,-6.5 0.02666,-5.80091 -0.558204,-12.1746 -0.09047,-16.1336 l -.1101,-13.5546 -.0677,-7.7094 c -0.0249,-2.83436 0.09972,-6.58695 0.07217,-8.05659 0,0 -0.10677,-0.359856 -0.77798,-0.022016 z  m -2.6509,2.0387 c -0.248139,0 -0.4375,2.90661 -0.4375,6.5 l .5366,19.2158 -.5366,18.003 c -0.107062,3.5918 0.189361,6.46875 0.4375,6.46875 0.248139,0 0.4375,-2.87536 0.4375,-6.46875 v -37.2188 c 0,-3.59339 -0.189361,-6.5 -0.4375,-6.5 z "/>
<path style="opacity:.561" id="path3009" d="m 37.1944,122.6197 c -0.133786,-0.46127 -0.290201,-0.66317 -0.360262,-1.85478 l -.1253,-5.4344 c 0.102527,-0.22515 0.07836,-2.47499 0.759665,-3.23632 0.197301,-0.56353 0.484233,-0.27106 0.56022,-1.99316 l -.128,-6.321 v -1.1506 c 0.04107,-0.88792 0.08759,-1.87875 0.609917,-0.93475 0.139124,0.3012 0.244355,0.7535 0.247783,1.65949 l .1558,4.7636 v 6.47534 l -.2617,7.3105 c -0.02726,0.66443 -0.06139,0.73041 -0.130275,0.97496 -0.224407,1.15078 -0.942854,1.37215 -1.32791,-0.25882 z "/>
<path style="opacity:.481" id="rect3811" d="m 98.6101,3.1258 c -0.14032,0 -0.653039,-0.814222 -0.792388,-0.108969 -0.124962,0.632438 0.03095,4.69959 -0.04705,5.63907 l -.1295,4.0566 -.3374,4.3112 -.5592,5.0194 -.2453,7.2065 c -0.164977,1.98712 -0.525832,3.59375 -0.259682,3.59375 0.266153,0 0.616273,-1.60663 0.78125,-3.59375 l .5649,-10.1681 .8543,-11.8567 c 0.164977,-1.98712 0.436395,-4.09912 0.170245,-4.09912 z  m -9.0582,3.7176 c -0.214231,0 -0.40625,0.488669 -0.40625,1.09375 v 6.28125 c 0,0.605081 0.192019,1.09375 0.40625,1.09375 0.214231,0 0.06845,-0.551987 0.05879,-1.15699 l -.0415,-2.6017 .0415,-3.7428 c 0.0067,-0.605044 0.155437,-0.967268 -0.05879,-0.967268 z  m 3.5312,1.2812 c -0.214231,0 -0.03502,0.846171 -0.185277,1.875 l .1003,1.9115 -.1128,4.2938 c 0.09199,1.44311 0.01454,1.66243 0.317921,3.73972 0.150256,1.02883 -0.33431,2.67993 -0.120083,2.67993 0.214231,0 0.375,-0.835257 0.375,-1.875 l -.1789,-5.1716 .1789,-5.5784 c 0.03332,-1.03921 -0.160769,-1.875 -0.374996,-1.875 z  m 6.4375,4.1563 c -0.21423,0 -0.3093,0.835257 -0.21875,1.875 l .9375,10.7812 c 0.0905,1.03974 0.34827,1.875 0.5625,1.875 0.21423,0 -0.13788,-0.835257 -0.22843,-1.875 l -.2143,-2.2553 -.2074,-2.7626 -.2858,-3.1172 -.1406,-3.2722 c -0.0905,-1.03974 0.0095,-1.24894 -0.204753,-1.24894 z "/>
</g>
<a id="a3200" transform="matrix(0.86018195,0,0,1,4.1028914,-0.74848983)">
<rect width="0.69116104" x="35.351463" y="7.5987091" rx=".3456" height="34.506817" ry="4.4593954" style="opacity:.481;fill:#4e2717;stroke:none" id="rect3158"/>
</a>
<g style="stroke:none;fill:#4e2717">
<path style="opacity:.481" id="rect3932" d="m 48.3172,12.5218 c -0.08453,0.196849 -0.192774,1.7864 -0.153286,2.39019 l .0894,1.3675 c -0.03637,-0.05467 -0.08484,0.621741 -0.03557,1.42667 0.01309,0.21383 -0.0636,1.10446 -0.106692,2.14331 l -.4472,10.7812 c -0.04309,1.03885 0.160769,1.875 0.375,1.875 0.214231,0 0.39666,-0.835301 0.40625,-1.875 l .0632,-6.8565 c 0.03699,0.03303 0.119304,-2.23686 0.125001,-2.27742 0.15099,-1.0751 0.185277,-2.13294 0.185277,-2.73802 v -6.25 c 0,-0.02524 -0.287254,-0.485898 -0.501478,0.01297 z "/>
<rect width="0.77339715" x="51.713161" y="11.403579" rx=".3867" ry="1.0922043" height="8.4514809" style="opacity:.481" id="rect3934"/>
</g>
<a id="a3203" transform="matrix(1,0,0,0.78740525,0.93086976,46.653515)">
<rect width="0.56383449" x="35.351463" y="7.5987091" rx=".2819" ry="4.4593954" height="34.506817" style="opacity:.481;fill:#4e2717;stroke:none" id="rect3205"/>
</a>
<g style="stroke:none">
<rect width="0.77339715" x="42.536266" y="59.27874" rx=".3867" ry="1.8767926" height="14.522627" style="opacity:.481;fill:#311409" id="rect3938-9"/>
<rect width="1.0263616" x="50.448341" y="93.364052" rx=".5132" height="25.147133" ry="3.2498219" style="opacity:.481;fill:#371c11" id="rect3997"/>
<rect width="1.279326" x="32.740829" y="103.98856" rx=".6397" ry="2.3998513" height="18.570059" style="opacity:.481;fill:#311910" id="rect3999"/>
</g>
<a id="a4019" transform="matrix(1,0,0,0.78740525,61.64233,34.005294)">
<rect width="0.74270737" x="35.351463" y="7.5987091" rx=".3714" height="34.506817" ry="4.4593954" style="opacity:.481;fill:#4e2717;stroke:none" id="rect4021"/>
</a>
<a style="fill:#100b05" id="a3186" transform="matrix(0.42444226,0,0,0.59567168,4.3027342,46.042953)">
<rect width="1.279326" x="35.351463" y="7.5987091" rx=".6397" ry="4.4593954" height="34.506817" style="opacity:.481;stroke:none" id="rect3188"/>
</a>
<g style="stroke:none">
<path style="opacity:.481;fill:#4e2717" id="rect3928" d="m 24.0206,4.8122 c -0.20573,0 -0.375,1.4496 -0.375,3.25 l -.3794,5.3446 .3794,13.3116 c 0.0513,1.79967 0.16927,3.25 0.375,3.25 0.20573,0 0.34375,-1.4496 0.34375,-3.25 l -.253,-10.2761 .253,-8.3802 c 0.05432,-1.79958 -0.13802,-3.25 -0.34375,-3.25 z  m 6.9397,-1.8875 c -0.214231,0 -0.564807,4.40881 -0.564724,5.23123 7.9e-05,0.782697 -0.384253,2.34556 -0.56917,4.36549 0.02997,2.00498 -0.275058,3.08406 -0.06324,3.75506 0.510362,1.61674 1.1181,5.19778 1.43948,6.28083 0.600966,2.02522 0.773746,3.55039 0.453305,0.215215 -0.02049,-0.213249 -0.741679,-5.38205 -1.11154,-6.1166 -0.672697,-1.33601 -0.07716,-3.55739 -0.126482,-4.8934 0.954932,-3.49364 0.749889,-6.88244 1.13834,-8.15996 0.239252,-0.786842 -0.381743,-0.677866 -0.595974,-0.677866 z  m -4.9268,25.4715 c -0.214231,0 -0.137941,0.935851 -0.137941,1.54093 v 6.28125 c 0,0.605081 0.192019,1.09375 0.40625,1.09375 0.214231,0 0.134798,-0.489323 0.106691,-1.09375 -0.129253,-2.77953 -0.09304,-4.86371 -0.08943,-6.639 0.0012,-0.605081 -0.07134,-1.18319 -0.285567,-1.18319 z  m -.4817,14.1347 c -0.214231,0 -0.40625,0.835257 -0.40625,1.875 v 10.75 c 0,1.03974 0.192019,1.875 0.40625,1.875 0.214231,0 0.453648,-0.838236 0.375,-1.875 -0.691459,-9.11501 -0.282212,-9.42436 0,-10.75 0.216496,-1.01695 -0.160769,-1.875 -0.375,-1.875 z "/>
<path style="opacity:.69;fill:#281401" id="path3151" d="m 16.1788,7.6596 2.3834,4.7525 .7889,5.6897 .4054,3.9134 .6328,5.7134 c -0.333405,1.95182 0.235156,4.1732 0.415975,6.63924 l .1568,3.0709 c -0.414923,6.25396 0.930735,9.56987 0.457787,10.1084 -0.262253,-0.755927 -0.358827,-1.7184 -0.58669,-2.79162 -0.127098,-0.598623 -0.469304,-0.534655 -0.484427,-2.16638 -0.149964,-4.77356 -0.2141,-7.95391 -0.237432,-10.3769 l -1.0936,-8.3603 -.8033,-8.0664 -.8159,-3.7895 -1.2927,-3.3926 c -1.13225,-2.95713 -1.33645,-4.1128 -1.84946,-5.86792 l .4871,.1492"/>
<path style="opacity:.618" id="path3122" d="m 33.7095,53.4097 -.439,11.4895 .0753,16.6289 .1869,9.256 .1225,4.5685 c 0.424515,5.08415 0.209268,3.38849 0.468308,0.450015 l -.2258,-13.0848 .0132,-10.5281 .0997,-2.307 c -0.691401,-3.25615 0.125638,-5.52626 0.06823,-8.33038 l .3794,-11.1805 c -0.216955,-4.3221 -0.921271,-5.59589 -0.748729,3.03799 z "/>
<path style="opacity:.618;fill:#492912" id="path3894" d="m 37.8834,18.3338 .0081,2.4052 -.1483,3.9282 -.0367,1.4904 .1225,.9563 c 0.132732,1.84239 0.635555,1.74078 0.378872,0.0942 l -.1364,-2.7391 .0132,-2.2039 .0997,-1.109 c -0.154782,0.03386 0.125638,-0.530797 0.06823,-1.11781 l .1111,-1.8933 c -0.216955,-0.904777 -0.652962,-1.61861 -0.48042,0.188783 z "/>
<path style="opacity:.618;fill:#241305" id="path3896" d="m 25.4814,41.0753 -.439,7.0108 .0753,10.1469 .1869,5.648 .1225,2.7877 c 0.424515,3.10233 0.209268,2.06764 0.468308,0.274598 l -.2258,-7.9843 .0132,-6.4242 .0997,-1.4078 c -0.691401,-1.98689 0.125638,-3.3721 0.06823,-5.08317 l .3794,-6.8223 c -0.216955,-2.63733 -0.921271,-3.41459 -0.748729,1.85377 z "/>
<rect width="0.39395052" x="25.784311" y="8.7474527" rx=".197" height="8.4514809" ry="1.0922043" style="opacity:.481;fill:#2c150c" id="rect3898"/>
<path style="opacity:.618;fill:#492912" id="path3901" d="m 29.7294,28.2657 .3812,1.5958 .0753,3.4811 .1869,1.9376 .1225,.9563 c 0.424515,1.0643 0.209268,0.709337 0.468308,0.0942 l -.2258,-2.7391 .0132,-2.2039 -.09,-.8624 c -0.248713,-0.808115 -0.06409,-0.777405 -0.121494,-1.36441 -0.09329,-0.533458 -0.194779,-0.645603 -0.314349,-1.17783 -0.216955,-0.904777 -0.921271,-2.3341 -0.748729,-0.526709 z "/>
<rect width="0.53806472" x="34.418457" y="59.690697" rx=".269" height="42.136959" ry="5.4454556" style="opacity:.356" id="rect3132"/>
<rect width="0.35629958" x="-29.946636" y="40.014683" rx=".1781" ry="7.6183734" height="58.951008" style="opacity:.356" id="rect3134" transform="scale(-1,1)"/>
</g>
<a id="a3174" transform="matrix(1,0,0,0.56969,64.504296,30.830082)">
<rect width="0.74270737" x="35.351463" y="7.5987091" rx=".3714" ry="4.4593954" height="34.506817" style="opacity:.481;fill:#4e2717;stroke:none" id="rect3176"/>
</a>
<g style="stroke:none">
<rect width="0.41565141" x="38.243317" y="59.636482" rx=".2078" height="8.0832043" ry="1.0446112" style="opacity:.481;fill:#160700" id="rect3178"/>
<g style="fill:#241305">
<path style="opacity:.618" id="path3948" d="m 14.3509,70.5451 -.0596,1.4973 -.0512,2.385 -.066,1.1939 .1225,.6205 c 0.424515,0.690537 0.209268,0.460229 0.468308,0.06112 l -.2258,-1.7772 .0132,-1.4299 .1891,-.7605 c 0.02409,-0.621127 0.0362,-0.3034 -0.02121,-0.68426 l .5583,-3.4862 c -0.216955,-0.587033 -0.652962,-1.20722 -0.48042,-0.03456 z "/>
<path style="opacity:.618" id="path3950" d="m 51.0308,37.826 -.439,5.5376 .0753,8.0147 .1869,4.4611 .1225,2.2019 c 0.424515,2.45043 0.209268,1.63316 0.468308,0.216887 l -.2258,-6.3065 .0132,-5.0743 .0997,-1.1119 c -0.691401,-1.56937 0.125638,-2.6635 0.06823,-4.01502 l .1265,-5.5152 c -0.216955,-2.08314 -0.794789,-7.37691 -0.622247,-3.21561 z "/>
</g>
<g style="fill:#160700">
<path style="opacity:.602" id="path3952" d="m 45.4704,24.0316 -.4879,9.6126 -.0813,8.6008 c 0.198948,-0.590511 0.152554,6.91526 0.65048,-3.5415 l .2801,-8.3478 c 0.153582,2.361 0.180692,-1.98155 0.207792,-2.1502 0.288403,-12.7955 -0.21759,-5.45809 -0.56917,-4.17391 z "/>
<path style="opacity:.326" id="path3954" d="m 23.469,46.5696 -.4879,9.6126 -.0813,8.6008 c 0.198948,-0.590511 0.152554,6.91527 0.65048,-3.5415 l .2801,-8.3478 c 0.153582,2.361 0.180692,-1.98155 0.207792,-2.1502 0.288403,-12.7955 -0.21759,-5.45808 -0.56917,-4.17391 z "/>
</g>
<path style="opacity:.618;fill:#241305" id="path3956" d="m 39.3451,73.0494 .126,1.3816 .2378,2.4374 -.1869,1.2572 -.1225,.6205 c -0.424515,0.690537 -0.209268,0.460229 -0.468308,0.06112 l .2258,-1.7772 -.0132,-1.4299 -.055,-.4475 c -0.02409,-0.397535 -0.170358,-0.616427 -0.11295,-0.997287 l -.3794,-1.5186 c 0.216955,-0.587033 0.384652,-0.581167 0.614574,0.09959 z "/>
<rect width="0.41565141" x="49.834995" y="2.8176811" rx=".2078" height="8.4514809" ry="1.0922043" style="opacity:.481;fill:#4e2717" id="rect3136"/>
<path style="opacity:.326;fill:#160700" id="path3087" d="m 115.9463,9.5312 -.4879,6.4091 -.0813,5.7344 c 0.19894,-0.393712 0.15255,4.61063 0.65048,-2.36123 l .2801,-5.5658 c 0.15359,1.57415 0.1807,-1.32117 0.2078,-1.43361 0.2884,-8.53114 -0.21759,-3.63908 -0.56917,-2.78288 z "/>
<path style="fill:#2f0d0d" id="path3861" d="m 120.2846,102.3241 -.3162,5.3755 .253,5.249 0,3.0988 c -0.0629,1.14046 0.76898,0.9801 0.62005,0.13699 -0.12479,-0.70649 -0.0119,-2.60851 -0.0509,-3.48877 l -.1265,-4.3004 c 0.0574,-2.10742 0.0943,-5.31213 0.1341,-6.45039 0.073,-2.08721 -0.17684,-1.88665 -0.51353,0.37924 z "/>
<path style="fill:url(#linearGradient3917)" id="path3915" d="m 69.2652,21.2447 c -21.0095,0.20072 -31.4126,15.8224 -31.4127,33.2453 0,7.5257 3.46008,13.2809 8.05031,18.7954 l -24.4628,20.0332 c 5.68693,5.26161 9.81992,8.70658 20.8753,12.8872 11.0795,4.50181 26.5389,3.36887 36.7506,-0.0351 2.90792,-0.90701 7.6808,-3.41981 11.5252,-6.42606 3.2822,-2.5666 4.8489,-4.52951 6.75914,-6.71574 3.48493,-3.98862 5.22851,-7.0201 6.63777,-10.1219 0.74991,-1.43507 2.38549,-5.42733 2.91164,-7.29518 1.35611,-4.81392 1.87573,-7.99189 1.61182,-14.2041 0,-0.82533 -0.1897,-2.56316 -0.41595,-3.95045 -0.14781,-0.78684 -0.23439,-1.64721 -0.51126,-2.96725 -4.02882,-19.2066 -16.9869,-30.7795 -32.1059,-32.6747 -1.69886,-0.21295 -2.79943,-0.49427 -4.14211,-0.54429 -0.69978,-0.0259 -1.39333,-0.0329 -2.07108,-0.0263 z  m -1.8631,20.8409 c 0.2886,-0.003 0.57717,-0.003 0.8752,0.009 0.57174,0.0217 1.04433,0.14432 1.76777,0.23703 6.43818,0.82546 11.9587,5.86464 13.6743,14.2304 0.11792,0.57494 0.15365,0.95654 0.21663,1.29927 0.0964,0.60424 0.17332,1.36115 0.17332,1.72063 0.11225,2.1664 0.006,3.41224 -0.57175,5.6169 -0.22407,0.81358 -1.03268,2.43845 -1.35201,3.06351 -0.60009,1.35106 -1.34094,2.43199 -2.82497,4.16932 -0.81342,0.95225 -1.82648,1.69973 -3.22415,2.81766 -1.63709,1.30944 -3.55359,2.40538 -4.79187,2.80045 -4.34847,1.48269 -9.99389,1.93692 -16.1014,0.12333 -4.58631,-1.94402 -6.50623,-3.81557 -9.10518,-5.92757 l 10.7488,-8.8683 c -1.95467,-2.40192 -2.86435,-3.53714 -2.86435,-6.81509 0,-7.58883 4.43303,-14.3888 13.3796,-14.4762 z  m -1.2519,7.2452 c -3.71389,0.46999 -5.49044,3.22655 -5.49044,6.77723 0,1.5337 0.3509,2.56069 1.27326,3.68451 l -4.5184,3.7389 c 1.14275,1.07228 2.01537,1.52178 4.23687,2.3738 2.82812,0.61228 4.09436,0.44215 6.14634,-0.25154 0.58425,-0.18485 1.98868,-0.97858 2.76119,-1.59125 0.65952,-0.52306 1.40908,-1.23547 1.83057,-1.81451 0.44796,-0.64776 0.57941,-0.78533 0.91899,-1.41746 0.15074,-0.29246 0.49004,-1.05684 0.61776,-1.84207 0.10328,-0.69499 0.13885,-1.05983 0.14229,-1.58205 0.0377,-0.39704 -0.007,-0.9393 -0.0523,-1.52716 -0.0297,-0.16036 -0.0975,-0.70147 -0.36214,-1.52873 -0.81434,-2.6355 -2.45635,-3.88504 -4.02745,-4.58595 -0.51064,-0.18641 -1.11465,-0.36937 -1.38441,-0.37951 -0.1405,-0.005 -0.7311,-0.0962 -0.86729,-0.0947 -0.38596,-0.009 -0.7096,-0.0243 -1.22477,0.0405 z  m .5148,4.1882 c 0.40787,0.10337 0.88979,0.26147 1.11047,0.44341 0.30189,0.1904 0.47532,0.42708 0.67798,0.67319 0.49178,0.76417 0.56233,1.51382 0.56998,2.26666 -0.006,0.33547 -0.0217,0.67537 -0.10836,1.0106 -0.0813,0.31216 -0.18577,0.56022 -0.31271,0.78414 -0.14872,0.30079 -0.22445,0.38685 -0.38652,0.57486 -0.13975,0.19362 -0.34269,0.39152 -0.57021,0.55016 -0.27888,0.20728 -0.49036,0.32843 -0.80362,0.46417 -0.30371,0.13338 -0.52444,0.18527 -0.99124,0.26354 -0.31295,0.0135 -0.42953,0.0309 -0.6838,0.0326 -0.28627,-0.012 -0.41974,-0.005 -0.8299,-0.0809 -0.40817,-0.0941 -0.70673,-0.1886 -0.93741,-0.3126 l .7947,-2.2485 c 0.77672,0.59762 2.00047,0.41168 2.56667,0.0902 0.26888,-0.15267 0.50794,-0.41005 0.64691,-0.69277 0.0994,-0.20203 0.1579,-0.45086 0.18626,-0.70155 0.026,-0.22986 0.003,-0.30335 -0.003,-0.4601 0,-0.16603 -0.0495,-0.42111 -0.0865,-0.56267 -0.19766,-0.75523 -0.91903,-1.2116 -1.78728,-1.10683 -1.34128,0.16182 -1.71905,1.41057 -1.4964,2.65363 -0.0401,-0.15453 -0.42434,-0.36776 -0.46425,-1.14958 -0.0694,-1.35806 0.984,-2.27069 1.77996,-2.44868 0.44165,-0.0837 0.79624,-0.10142 1.1284,-0.0429 z "/>
</g>
</svg>
