<svg width="96" version="1.0" xmlns="http://www.w3.org/2000/svg" height="96" xmlns:xlink="http://www.w3.org/1999/xlink">
<defs id="defs2410">
<clipPath id="clipPath3805">
<rect width="80.307129" x="7.8286824" y="28.31978" rx="6" height="41.668793" ry="4.4196429" style="fill:#fff;stroke:none" id="rect3807"/>
</clipPath>
<clipPath id="clipPath3613">
<rect width="84" x="6" y="6" rx="6" height="84" ry="6" style="fill:#fff;stroke:none" id="rect3615"/>
</clipPath>
<filter width="1.3839999" x="-0.192" y="-0.192" height="1.3839999" style="color-interpolation-filters:sRGB" id="filter3794">
<feGaussianBlur stdDeviation="5.28" id="feGaussianBlur3796"/>
</filter>
<filter style="color-interpolation-filters:sRGB" id="filter3174">
<feGaussianBlur stdDeviation="1.71" id="feGaussianBlur3176"/>
</filter>
<filter style="color-interpolation-filters:sRGB" id="filter3795">
<feGaussianBlur stdDeviation="1.215" id="feGaussianBlur3797"/>
</filter>
<linearGradient gradientTransform="matrix(1.0238095,0,0,1.0119048,-1.1428571,-98.071429)" id="linearGradient3780" xlink:href="#ButtonShadow-0" y1="6.1317081" x1="32.251034" y2="90.238609" x2="32.251034" gradientUnits="userSpaceOnUse"/>
<linearGradient id="linearGradient3868" xlink:href="#linearGradient3737" y1="6" x1="36.357143" y2="63.893143" x2="36.357143" gradientUnits="userSpaceOnUse"/>
<linearGradient gradientTransform="matrix(0.66666667,0,0,1,-13.666667,0)" id="linearGradient3825" xlink:href="#linearGradient3819" y1="48" x1="-41" y2="48" x2="-35" gradientUnits="userSpaceOnUse"/>
<linearGradient gradientTransform="matrix(0.50000001,0,0,1,61.499999,0)" id="linearGradient3829" xlink:href="#linearGradient3737" y1="48" x1="-41" y2="48" x2="-35" gradientUnits="userSpaceOnUse"/>
<linearGradient gradientTransform="translate(0,-97)" id="linearGradient3721" xlink:href="#ButtonShadow-0" y1="6.1317081" x1="32.251034" y2="90.238609" x2="32.251034" gradientUnits="userSpaceOnUse"/>
<linearGradient id="linearGradient3875" xlink:href="#linearGradient3737" y1="6" x1="36.357143" y2="63.893143" x2="36.357143" gradientUnits="userSpaceOnUse"/>
<linearGradient gradientTransform="matrix(1.0238095,0,0,1.0119048,-1.1428571,-98.071429)" id="linearGradient3772" xlink:href="#ButtonShadow-0" y1="6.1317081" x1="32.251034" y2="90.238609" x2="32.251034" gradientUnits="userSpaceOnUse"/>
<linearGradient gradientTransform="matrix(1.0058652,0,0,0.994169,100,0)" id="ButtonShadow-0" y1="92.539597" x1="45.447727" y2="7.0165396" x2="45.447727" gradientUnits="userSpaceOnUse">
<stop offset="0" id="stop3750-8"/>
<stop offset="1" style="stop-opacity:.588" id="stop3752-5"/>
</linearGradient>
<linearGradient gradientTransform="matrix(1.0238095,0,0,1.0119048,-1.1428571,-98.071429)" id="linearGradient3725" xlink:href="#ButtonShadow-0" y1="6.1317081" x1="32.251034" y2="90.238609" x2="32.251034" gradientUnits="userSpaceOnUse"/>
<linearGradient id="linearGradient3819">
<stop offset="0" id="stop3821"/>
<stop offset="1" style="stop-opacity:0" id="stop3823"/>
</linearGradient>
<linearGradient gradientTransform="matrix(1.0238095,0,0,1.0119048,-1.1428571,-98.071429)" id="linearGradient3071" xlink:href="#ButtonShadow-0" y1="6.1317081" x1="32.251034" y2="90.238609" x2="32.251034" gradientUnits="userSpaceOnUse"/>
<linearGradient id="linearGradient3737">
<stop offset="0" style="stop-color:#fff" id="stop3739"/>
<stop offset="1" style="stop-color:#fff;stop-opacity:0" id="stop3741"/>
</linearGradient>
<linearGradient id="linearGradient3756">
<stop offset="0" style="stop-color:#dbff9a" id="stop3758"/>
<stop offset="0.17644246" style="stop-color:#dfffa7" id="stop3772"/>
<stop offset="0.29336214" style="stop-color:#c1ff53" id="stop3774"/>
<stop offset="0.49318853" style="stop-color:#82c50c" id="stop3776"/>
<stop offset="0.75466347" style="stop-color:#609501" id="stop3764"/>
<stop offset="1" style="stop-color:#7cbf06" id="stop3760"/>
</linearGradient>
<linearGradient gradientTransform="scale(1.0058652,0.994169)" id="ButtonShadow" y1="92.539597" x1="45.447727" y2="7.0165396" x2="45.447727" gradientUnits="userSpaceOnUse">
<stop offset="0" id="stop3750"/>
<stop offset="1" style="stop-opacity:.588" id="stop3752"/>
</linearGradient>
<linearGradient id="linearGradient3700">
<stop offset="0" style="stop-color:#222" id="stop3702"/>
<stop offset="1" style="stop-color:#333" id="stop3704"/>
</linearGradient>
<linearGradient id="linearGradient3617" xlink:href="#linearGradient3700" y1="90" x1="48" y2="5.9877172" x2="48" gradientUnits="userSpaceOnUse"/>
<linearGradient id="linearGradient3762" xlink:href="#linearGradient3756" y1="6" x1="65.928574" y2="90.001488" x2="65.928574" gradientUnits="userSpaceOnUse"/>
<linearGradient id="linearGradient3613" xlink:href="#linearGradient3737" y1="20.220806" x1="48" y2="138.66119" x2="48" gradientUnits="userSpaceOnUse"/>
<radialGradient fx="48" fy="90.171875" cx="48" cy="90.171875" gradientTransform="matrix(1.1573129,0,0,0.99590774,-7.5510206,0.19713193)" r="42" id="radialGradient3619" xlink:href="#linearGradient3737" gradientUnits="userSpaceOnUse"/>
</defs>
<g style="display:none" id="layer2">
<rect width="86" x="5" y="7" rx="6" height="85" ry="6" style="opacity:.9;fill:url(#ButtonShadow);filter:url(#filter3174);stroke:none" id="rect3745"/>
</g>
<g style="stroke:none" id="layer4">
<path style="opacity:.08;fill:url(#linearGradient3071)" id="path3786" d="m 12,-95.0312 c -5.51109,0 -10.0312,4.52016 -10.0312,10.0312 v 71 c 0,5.51109 4.52016,10.0312 10.0312,10.0312 h 72 c 5.51109,0 10.0312,-4.52016 10.0312,-10.0312 v -71 c 0,-5.51109 -4.52016,-10.0312 -10.0312,-10.0312 h -72 z " transform="scale(1,-1)"/>
<path style="opacity:.1;fill:url(#linearGradient3780)" id="path3778" d="m 12,-94.0312 c -4.97163,0 -9.03125,4.05962 -9.03125,9.03125 v 71 c 0,4.97163 4.05962,9.03125 9.03125,9.03125 h 72 c 4.97163,0 9.03125,-4.05962 9.03125,-9.03125 v -71 c 0,-4.97163 -4.05962,-9.03125 -9.03125,-9.03125 h -72 z " transform="scale(1,-1)"/>
<path style="opacity:.2;fill:url(#linearGradient3772)" id="path3770" d="m 12,-93 c -4.40913,0 -8,3.59087 -8,8 v 71 c 0,4.40913 3.59087,8 8,8 h 72 c 4.40913,0 8,-3.59087 8,-8 v -71 c 0,-4.40913 -3.59087,-8 -8,-8 h -72 z " transform="scale(1,-1)"/>
<rect width="86" x="5" y="-92" rx="7" height="85" ry="7" style="opacity:.3;fill:url(#linearGradient3725)" id="rect3723" transform="scale(1,-1)"/>
<rect width="84" x="6" y="-91" rx="6" height="84" ry="6" style="opacity:.45;fill:url(#linearGradient3721)" id="rect3716" transform="scale(1,-1)"/>
</g>
<g id="layer1">
<rect width="84" x="6" y="6" rx="6" height="84" ry="6" style="fill:url(#linearGradient3617);stroke:none" id="rect2419"/>
</g>
<g id="layer3">
<g style="stroke-width:0;stroke-miterlimit:10">
<path style="filter:url(#filter3795);clip-path:url(#clipPath3805)" id="path3782" d="m 41.0938,7 0,23.1562 c 0.45785,-0.03541 0.91464,-0.07808 1.375,-0.09375 17.7317,-0.597617 29.2812,14.5625 29.2812,14.5625 0,0 -13.2693,16.125 -27.0938,16.125 -1.26699,0 -2.44843,-0.115384 -3.5625,-0.3125 v 4.3125 c 0.95268,0.120965 1.93805,0.1875 2.96875,0.1875 12.8646,0 22.1791,-6.56784 31.1875,-14.3438 1.49357,1.19617 7.61803,4.10079 8.875,5.375 -8.56532,7.17109 -28.5266,12.9688 -39.8438,12.9688 -1.09088,0 -2.15773,-0.08816 -3.1875,-0.1875 v 22.25 h 42.9062 c 3.324,0 6,-2.676 6,-6 v -72 c 0,-3.324 -2.676,-6 -6,-6 h -42.9062 z  m 0,61.75 0,-4 c -15.7436,-1.98088 -21.125,-19.3438 -21.125,-19.3438 0,0 7.04388,-10.3926 21.125,-11.4688 v -3.78125 c -15.5966,1.25258 -29.0938,14.4688 -29.0938,14.4688 0,0 7.64066,22.1002 29.0938,24.125 z  m 0,-34.8125 0,4.6562 c 0.83391,-0.08932 1.70531,-0.15625 2.59375,-0.15625 8.16763,0 13,6.34375 13,6.34375 l -6.625,5.625 c -2.98432,-4.97492 -4.0048,-7.18144 -8.96875,-7.78125 v 14.125 c 1.12504,0.37825 2.38702,0.625 3.78125,0.625 9.68785,0 18.7188,-12.5625 18.7188,-12.5625 0,0 -8.37418,-11.338 -21.125,-10.9375 -0.46631,0.01473 -0.92185,0.03085 -1.375,0.0625 z  m 0,22.8125 c -6.70822,-2.25383 -8.875,-10.0625 -8.875,-10.0625 0,0 3.89507,-4.66012 8.875,-4.0625 v -4.03125 c -9.48822,1.02601 -15.1875,7.34375 -15.1875,7.34375 0,0 3.28907,12.3787 15.1875,14.5 v -3.6875 z "/>
<path style="fill:url(#linearGradient3762)" id="path21" d="m 41.0938,6 0,23.1562 c 0.45785,-0.03541 0.91464,-0.07808 1.375,-0.09375 17.7317,-0.597617 29.2812,14.5625 29.2812,14.5625 0,0 -13.2693,16.125 -27.0938,16.125 -1.26699,0 -2.44843,-0.115384 -3.5625,-0.3125 v 4.3125 c 0.95268,0.120965 1.93805,0.1875 2.96875,0.1875 12.8646,0 22.1791,-6.56784 31.1875,-14.3438 1.49357,1.19617 7.61803,4.10079 8.875,5.375 -8.56532,7.17109 -28.5266,12.9688 -39.8438,12.9688 -1.09088,0 -2.15773,-0.08816 -3.1875,-0.1875 v 22.25 h 42.9062 c 3.324,0 6,-2.676 6,-6 v -72 c 0,-3.324 -2.676,-6 -6,-6 h -42.9062 z  m 0,61.75 0,-4 c -15.7436,-1.98088 -21.125,-19.3438 -21.125,-19.3438 0,0 7.04388,-10.3926 21.125,-11.4688 v -3.78125 c -15.5966,1.25258 -29.0938,14.4688 -29.0938,14.4688 0,0 7.64066,22.1002 29.0938,24.125 z  m 0,-34.8125 0,4.6562 c 0.83391,-0.08932 1.70531,-0.15625 2.59375,-0.15625 8.16763,0 13,6.34375 13,6.34375 l -6.625,5.625 c -2.98432,-4.97492 -4.0048,-7.18144 -8.96875,-7.78125 v 14.125 c 1.12504,0.37825 2.38702,0.625 3.78125,0.625 9.68785,0 18.7188,-12.5625 18.7188,-12.5625 0,0 -8.37418,-11.338 -21.125,-10.9375 -0.46631,0.01473 -0.92185,0.03085 -1.375,0.0625 z  m 0,22.8125 c -6.70822,-2.25383 -8.875,-10.0625 -8.875,-10.0625 0,0 3.89507,-4.66012 8.875,-4.0625 v -4.03125 c -9.48822,1.02601 -15.1875,7.34375 -15.1875,7.34375 0,0 3.28907,12.3787 15.1875,14.5 v -3.6875 z "/>
<path style="opacity:.6;fill:#fff" id="path3766" d="m 41.0938,29.1562 c -15.5966,1.25258 -29.0938,14.4688 -29.0938,14.4688 0,0 0.133774,0.377176 0.28125,0.75 1.3919,-1.32151 14.0883,-13.0362 28.8125,-14.2188 v -1 z  m 1.375,3.7188 c -0.46631,0.01473 -0.92185,0.03085 -1.375,0.0625 v 1 c 0.45315,-0.03165 0.90869,-0.04777 1.375,-0.0625 11.157,-0.350437 18.9728,8.27281 20.75,10.4375 0.233108,-0.302786 0.375,-0.5 0.375,-0.5 0,0 -8.37418,-11.338 -21.125,-10.9375 z  m -1.375,4.7188 c -9.48822,1.02601 -15.1875,7.34375 -15.1875,7.34375 0,0 0.06756,0.30706 0.21875,0.75 1.09829,-1.11465 6.52751,-6.18096 14.9688,-7.09375 v -1 z  m 0,4.0312 0,1 c 4.96395,0.59981 5.98443,2.80633 8.96875,7.78125 l 6.625,-5.625 c 0,0 -0.198936,-0.260014 -0.5,-0.59375 l -6.125,5.2188 c -2.98432,-4.97492 -4.0048,-7.18144 -8.96875,-7.78125 z  m 30.25,2.4688 c -1.98713,2.30284 -14.043,15.6562 -26.6875,15.6562 -1.26699,0 -2.44843,-0.115384 -3.5625,-0.3125 v 1 c 1.11407,0.197116 2.29551,0.3125 3.5625,0.3125 13.8245,0 27.0938,-16.125 27.0938,-16.125 0,0 -0.185185,-0.264221 -0.40625,-0.53125 z  m -51.1562,1 c -0.103144,0.139838 -0.21875,0.3125 -0.21875,0.3125 0,0 5.38139,17.3629 21.125,19.3438 v -1 c -13.9479,-1.75493 -19.7612,-15.5246 -20.9062,-18.6562 z  m 12.2812,1.3438 c -0.05952,0.06661 -0.25,0.25 -0.25,0.25 0,0 2.16678,7.80867 8.875,10.0625 v -1 c -5.49314,-1.84559 -7.91843,-7.35511 -8.625,-9.3125 z  m 51.0312,9 c -8.86176,6.94892 -28.1543,12.5 -39.2188,12.5 -1.09088,0 -2.15773,-0.08816 -3.1875,-0.1875 v 1 c 1.02977,0.09934 2.09662,0.1875 3.1875,0.1875 11.3171,0 31.2784,-5.79766 39.8438,-12.9688 -0.145065,-0.147054 -0.364874,-0.345897 -0.625,-0.53125 z "/>
</g>
<g style="stroke:none">
<path style="opacity:.6;fill:url(#linearGradient3829)" id="rect3827" d="m 41.0938,6 0,23.1562 c 0.45785,-0.03541 0.91464,-0.07808 1.375,-0.09375 0.512295,-0.01727 1.0294,-0.0083 1.53125,0 v -23.0625 h -2.90625 z  m 0,23.1562 c -0.03076,0.0025 -0.063,-0.0026 -0.09375,0 v 3.78125 c 0.03108,-0.0025 0.0626,0.0024 0.09375,0 v -3.78125 z  m 0,3.7812 0,4.6562 c 0.83391,-0.08932 1.70531,-0.15625 2.59375,-0.15625 0.106165,0 0.207465,-0.0021 0.3125,0 v -4.53125 c -0.502494,-0.02084 -1.01409,-0.04749 -1.53125,-0.03125 -0.46631,0.01473 -0.92185,0.03085 -1.375,0.0625 z  m 0,4.6562 c -0.03168,0.0034 -0.06216,-0.0035 -0.09375,0 v 4.03125 c 0.03196,0.0034 0.06171,-0.0038 0.09375,0 v -4.03125 z  m 0,4.0312 0,14.125 c 0.886356,0.298002 1.85219,0.51535 2.90625,0.59375 v -14 c -0.808246,-0.334122 -1.73837,-0.577631 -2.90625,-0.71875 z  m 0,14.125 c -0.03138,-0.010543 -0.062569,-0.020465 -0.09375,-0.03125 v 3.6875 c 0.03256,0.006 0.06106,0.02542 0.09375,0.03125 v -3.6875 z  m 0,3.6875 0,4.3125 c 0.932867,0.118449 1.89883,0.184795 2.90625,0.1875 v -4.21875 c -1.01699,-0.03288 -1.99041,-0.119208 -2.90625,-0.28125 z  m 0,4.3125 c -0.03136,-0.0039 -0.06247,0.0041 -0.09375,0 v 4 c 0.03136,0.0031 0.06233,-0.003 0.09375,0 v -4 z  m 0,4 0,22.25 h 2.90625 v -22.0625 c -0.992733,-0.01339 -1.96546,-0.09674 -2.90625,-0.1875 z "/>
<rect width="4" x="-41" y="6" height="84" style="opacity:.6;fill:url(#linearGradient3825)" id="rect3809" transform="scale(-1,1)"/>
</g>
</g>
<g id="layer5">
<rect width="66" x="15" y="15" rx="12" height="66" ry="12" style="opacity:.1;fill:url(#linearGradient3613);filter:url(#filter3794);stroke:#fff;stroke-linecap:round;stroke-width:.5;clip-path:url(#clipPath3613)" id="rect3171"/>
<g style="stroke:none">
<path style="opacity:.2;fill:url(#linearGradient3868)" id="rect3728" d="M 12,6 C 8.676,6 6,8.676 6,12 l 0,2 0,68 0,2 c 0,0.334721 0.04135,0.6507 0.09375,0.96875 0.0487,0.295596 0.09704,0.596915 0.1875,0.875 0.0099,0.03038 0.02089,0.0636 0.03125,0.09375 0.09886,0.287771 0.23488,0.547452 0.375,0.8125 0.144592,0.273507 0.315616,0.535615 0.5,0.78125 0.184384,0.245635 0.373776,0.473472 0.59375,0.6875 0.439947,0.428056 0.94291,0.814526 1.5,1.09375 0.278545,0.139612 0.573473,0.246947 0.875,0.34375 -0.256202,-0.100222 -0.486711,-0.236272 -0.71875,-0.375 -0.0074,-0.0044 -0.02387,0.0045 -0.03125,0 -0.03193,-0.0193 -0.06229,-0.04251 -0.09375,-0.0625 -0.120395,-0.0767 -0.231023,-0.163513 -0.34375,-0.25 -0.106173,-0.0808 -0.213281,-0.161112 -0.3125,-0.25 C 8.47832,88.557317 8.30879,88.373362 8.15625,88.1875 8.048671,88.057245 7.937856,87.922215 7.84375,87.78125 7.81866,87.74287 7.8053,87.69538 7.78125,87.65625 7.71649,87.553218 7.651022,87.451733 7.59375,87.34375 7.492742,87.149044 7.388075,86.928049 7.3125,86.71875 7.3045,86.69694 7.28891,86.6782 7.28125,86.65625 7.24942,86.5643 7.24545,86.469419 7.21875,86.375 7.188418,86.268382 7.148361,86.171969 7.125,86.0625 7.052121,85.720988 7,85.364295 7,85 L 7,83 7,15 7,13 C 7,10.218152 9.218152,8 12,8 l 2,0 68,0 2,0 c 2.781848,0 5,2.218152 5,5 l 0,2 0,68 0,2 c 0,0.364295 -0.05212,0.720988 -0.125,1.0625 -0.04415,0.206893 -0.08838,0.397658 -0.15625,0.59375 -0.0077,0.02195 -0.0233,0.04069 -0.03125,0.0625 -0.06274,0.173739 -0.138383,0.367449 -0.21875,0.53125 -0.04158,0.0828 -0.07904,0.169954 -0.125,0.25 -0.0546,0.09721 -0.126774,0.18835 -0.1875,0.28125 -0.09411,0.140965 -0.204921,0.275995 -0.3125,0.40625 -0.143174,0.17445 -0.303141,0.346998 -0.46875,0.5 -0.01117,0.0102 -0.01998,0.02115 -0.03125,0.03125 -0.138386,0.125556 -0.285091,0.234436 -0.4375,0.34375 -0.102571,0.07315 -0.204318,0.153364 -0.3125,0.21875 -0.0074,0.0045 -0.02384,-0.0044 -0.03125,0 -0.232039,0.138728 -0.462548,0.274778 -0.71875,0.375 0.301527,-0.0968 0.596455,-0.204138 0.875,-0.34375 0.55709,-0.279224 1.060053,-0.665694 1.5,-1.09375 0.219973,-0.214028 0.409366,-0.441865 0.59375,-0.6875 0.184384,-0.245635 0.355408,-0.507743 0.5,-0.78125 0.14012,-0.265048 0.276135,-0.524729 0.375,-0.8125 0.01041,-0.03078 0.02133,-0.06274 0.03125,-0.09375 0.09046,-0.278085 0.1388,-0.579404 0.1875,-0.875 C 89.95865,84.6507 90,84.334721 90,84 l 0,-2 0,-68 0,-2 C 90,8.676 87.324,6 84,6 L 12,6 z"/>
<path style="opacity:.2;fill:url(#radialGradient3619)" id="path3615" d="M 12,90 C 8.676,90 6,87.324 6,84 L 6,82 6,14 6,12 c 0,-0.334721 0.04135,-0.6507 0.09375,-0.96875 0.0487,-0.295596 0.09704,-0.596915 0.1875,-0.875 C 6.29113,10.12587 6.302142,10.09265 6.3125,10.0625 6.411365,9.774729 6.5473802,9.515048 6.6875,9.25 6.8320918,8.976493 7.0031161,8.714385 7.1875,8.46875 7.3718839,8.223115 7.5612765,7.995278 7.78125,7.78125 8.221197,7.353194 8.72416,6.966724 9.28125,6.6875 9.559795,6.547888 9.8547231,6.440553 10.15625,6.34375 9.9000482,6.443972 9.6695391,6.580022 9.4375,6.71875 c -0.00741,0.0044 -0.023866,-0.0045 -0.03125,0 -0.031933,0.0193 -0.062293,0.04251 -0.09375,0.0625 -0.120395,0.0767 -0.2310226,0.163513 -0.34375,0.25 -0.1061728,0.0808 -0.2132809,0.161112 -0.3125,0.25 C 8.4783201,7.442683 8.3087904,7.626638 8.15625,7.8125 8.0486711,7.942755 7.9378561,8.077785 7.84375,8.21875 7.818661,8.25713 7.805304,8.30462 7.78125,8.34375 7.716487,8.446782 7.6510225,8.548267 7.59375,8.65625 7.4927417,8.850956 7.3880752,9.071951 7.3125,9.28125 7.30454,9.30306 7.288911,9.3218 7.28125,9.34375 7.2494249,9.4357 7.2454455,9.530581 7.21875,9.625 7.1884177,9.731618 7.1483606,9.828031 7.125,9.9375 7.0521214,10.279012 7,10.635705 7,11 l 0,2 0,68 0,2 c 0,2.781848 2.2181517,5 5,5 l 2,0 68,0 2,0 c 2.781848,0 5,-2.218152 5,-5 l 0,-2 0,-68 0,-2 C 89,10.635705 88.94788,10.279012 88.875,9.9375 88.83085,9.730607 88.78662,9.539842 88.71875,9.34375 88.71105,9.3218 88.69545,9.30306 88.6875,9.28125 88.62476,9.107511 88.549117,8.913801 88.46875,8.75 88.42717,8.6672 88.38971,8.580046 88.34375,8.5 88.28915,8.40279 88.216976,8.31165 88.15625,8.21875 88.06214,8.077785 87.951329,7.942755 87.84375,7.8125 87.700576,7.63805 87.540609,7.465502 87.375,7.3125 87.36383,7.3023 87.35502,7.29135 87.34375,7.28125 87.205364,7.155694 87.058659,7.046814 86.90625,6.9375 86.803679,6.86435 86.701932,6.784136 86.59375,6.71875 c -0.0074,-0.0045 -0.02384,0.0044 -0.03125,0 -0.232039,-0.138728 -0.462548,-0.274778 -0.71875,-0.375 0.301527,0.0968 0.596455,0.204138 0.875,0.34375 0.55709,0.279224 1.060053,0.665694 1.5,1.09375 0.219973,0.214028 0.409366,0.441865 0.59375,0.6875 0.184384,0.245635 0.355408,0.507743 0.5,0.78125 0.14012,0.265048 0.276135,0.524729 0.375,0.8125 0.01041,0.03078 0.02133,0.06274 0.03125,0.09375 0.09046,0.278085 0.1388,0.579404 0.1875,0.875 C 89.95865,11.3493 90,11.665279 90,12 l 0,2 0,68 0,2 c 0,3.324 -2.676,6 -6,6 l -72,0 z"/>
<path style="opacity:.5;fill:url(#linearGradient3875)" id="path3872" d="m 41,6 0,2 41,0 2,0 c 2.78185,0 5,2.21815 5,5 v 2 68 2 c 0,0.364295 -0.05212,0.720988 -0.125,1.0625 -0.04415,0.206893 -0.08838,0.397658 -0.15625,0.59375 -0.0077,0.02195 -0.0233,0.04069 -0.03125,0.0625 -0.06274,0.173739 -0.138383,0.367449 -0.21875,0.53125 -0.04158,0.0828 -0.07904,0.169954 -0.125,0.25 -0.0546,0.09721 -0.126774,0.18835 -0.1875,0.28125 -0.09411,0.140965 -0.204921,0.275995 -0.3125,0.40625 -0.143174,0.17445 -0.303141,0.346998 -0.46875,0.5 -0.01117,0.0102 -0.01998,0.02115 -0.03125,0.03125 -0.138386,0.125556 -0.285091,0.234436 -0.4375,0.34375 -0.102571,0.07315 -0.204318,0.153364 -0.3125,0.21875 -0.0074,0.0045 -0.02384,-0.0044 -0.03125,0 -0.232039,0.138728 -0.462548,0.274778 -0.71875,0.375 0.301527,-0.0968 0.596455,-0.204138 0.875,-0.34375 0.55709,-0.279224 1.06005,-0.665694 1.5,-1.09375 0.219973,-0.214028 0.409366,-0.441865 0.59375,-0.6875 0.184384,-0.245635 0.355408,-0.507743 0.5,-0.78125 0.14012,-0.265048 0.276135,-0.524729 0.375,-0.8125 0.01041,-0.03078 0.02133,-0.06274 0.03125,-0.09375 0.09046,-0.278085 0.1388,-0.579404 0.1875,-0.875 0.0524,-0.31805 0.09375,-0.634029 0.09375,-0.96875 v -2 -68 -2 c 0,-3.324 -2.676,-6 -6,-6 h -43 z "/>
</g>
</g>
</svg>
