<svg width="96" version="1.0" xmlns="http://www.w3.org/2000/svg" height="96" xmlns:xlink="http://www.w3.org/1999/xlink">
<defs id="defs2410">
<clipPath id="clipPath3613">
<rect width="84" x="6" y="6" rx="6" height="84" ry="6" style="fill:#fff;stroke:none" id="rect3615"/>
</clipPath>
<filter style="color-interpolation-filters:sRGB" id="filter3174">
<feGaussianBlur stdDeviation="1.71" id="feGaussianBlur3176"/>
</filter>
<filter width="1.3839999" x="-0.192" y="-0.192" height="1.3839999" style="color-interpolation-filters:sRGB" id="filter3794">
<feGaussianBlur stdDeviation="5.28" id="feGaussianBlur3796"/>
</filter>
<linearGradient gradientTransform="matrix(0.63596149,0,0,0.63596149,120.71985,-34.901551)" id="linearGradient3959" xlink:href="#h" y1="216.1572" x1="128.29739" y2="25.653799" x2="128.2973" gradientUnits="userSpaceOnUse"/>
<linearGradient gradientTransform="matrix(0.63596149,0,0,0.63596149,120.71985,-34.901551)" id="linearGradient3957" xlink:href="#g" y1="217.54201" x1="126.9907" y2="24.047701" x2="129.35651" gradientUnits="userSpaceOnUse"/>
<linearGradient gradientTransform="matrix(2.238168,0,0,2.238168,-43.442841,-25.089863)" id="f" y1="216.71001" x1="127.7759" y2="239.29491" x2="127.7759" gradientUnits="userSpaceOnUse">
<stop offset="0" style="stop-color:#fff;stop-opacity:0" id="stop31"/>
<stop offset="1" style="stop-color:#fff" id="stop37"/>
</linearGradient>
<linearGradient gradientTransform="matrix(0.63596149,0,0,0.63596149,120.71985,-34.901551)" id="linearGradient3955" xlink:href="#f" y1="216.71001" x1="127.7759" y2="239.29491" x2="127.7759" gradientUnits="userSpaceOnUse"/>
<linearGradient gradientTransform="matrix(2.238168,0,0,2.238168,-43.442841,-25.089863)" id="g" y1="217.54201" x1="126.9907" y2="24.047701" x2="129.35651" gradientUnits="userSpaceOnUse">
<stop offset="0" style="stop-color:#fff" id="stop40"/>
<stop offset="0.98110002" style="stop-color:#aeaeae" id="stop44"/>
<stop offset="1" style="stop-color:#bf2926" id="stop46"/>
</linearGradient>
<linearGradient id="e" y1="15" x1="109" y2="242" x2="149" gradientUnits="userSpaceOnUse">
<stop offset="0" style="stop-color:#fff" id="stop18"/>
<stop offset="0.40000001" style="stop-color:#ddd" id="stop20"/>
<stop offset="0.4461" style="stop-color:#d5d5d5" id="stop22"/>
<stop offset="0.76069999" style="stop-color:#b4b4b4" id="stop28"/>
</linearGradient>
<linearGradient gradientTransform="matrix(0.63596149,0,0,0.63596149,120.71985,-34.901551)" id="linearGradient3953" xlink:href="#e" y1="15" x1="109" y2="242" x2="149" gradientUnits="userSpaceOnUse"/>
<linearGradient gradientTransform="translate(0,-97)" id="linearGradient3721" xlink:href="#ButtonShadow-0" y1="6.1317081" x1="32.251034" y2="90.238609" x2="32.251034" gradientUnits="userSpaceOnUse"/>
<linearGradient gradientTransform="matrix(1.0238095,0,0,1.0119048,-1.1428571,-98.071429)" id="linearGradient3725" xlink:href="#ButtonShadow-0" y1="6.1317081" x1="32.251034" y2="90.238609" x2="32.251034" gradientUnits="userSpaceOnUse"/>
<linearGradient gradientTransform="matrix(1.0238095,0,0,1.0119048,-1.1428571,-98.071429)" id="linearGradient3772" xlink:href="#ButtonShadow-0" y1="6.1317081" x1="32.251034" y2="90.238609" x2="32.251034" gradientUnits="userSpaceOnUse"/>
<linearGradient gradientTransform="matrix(2.238168,0,0,2.238168,-43.442841,-25.089863)" id="h" y1="216.1572" x1="128.29739" y2="25.653799" x2="128.2973" gradientUnits="userSpaceOnUse">
<stop offset="0" style="stop-color:#e7e7e7" id="stop49"/>
<stop offset="1" style="stop-color:#a0a0a0" id="stop51"/>
</linearGradient>
<linearGradient gradientTransform="matrix(1.0238095,0,0,1.0119048,-1.1428571,-98.071429)" id="linearGradient3780" xlink:href="#ButtonShadow-0" y1="6.1317081" x1="32.251034" y2="90.238609" x2="32.251034" gradientUnits="userSpaceOnUse"/>
<linearGradient gradientTransform="matrix(1.0058652,0,0,0.994169,100,0)" id="ButtonShadow-0" y1="92.539597" x1="45.447727" y2="7.0165396" x2="45.447727" gradientUnits="userSpaceOnUse">
<stop offset="0" id="stop3750-8"/>
<stop offset="1" style="stop-opacity:.588" id="stop3752-5"/>
</linearGradient>
<linearGradient gradientTransform="matrix(0.63596149,0,0,0.63596149,120.71985,-34.901551)" id="linearGradient3961" xlink:href="#i" y1="120.3198" x1="128.146" y2="32.435501" x2="128.146" gradientUnits="userSpaceOnUse"/>
<linearGradient gradientTransform="matrix(0.63596149,0,0,0.63596149,120.71985,-34.901551)" id="linearGradient3965" xlink:href="#L" y1="104.6548" x1="128.2612" y2="1.6424" x2="128.2612" gradientUnits="userSpaceOnUse"/>
<linearGradient gradientTransform="matrix(0.63596149,0,0,0.63596149,120.71985,-34.901551)" id="linearGradient3963" xlink:href="#j" y1="215.33009" x1="128.0513" y2="127.4658" x2="128.0513" gradientUnits="userSpaceOnUse"/>
<linearGradient gradientTransform="matrix(2.238168,0,0,2.238168,-43.442841,-25.089863)" id="i" y1="120.3198" x1="128.146" y2="32.435501" x2="128.146" gradientUnits="userSpaceOnUse">
<stop offset="0" style="stop-opacity:0" id="stop54"/>
<stop offset="1" id="stop62"/>
</linearGradient>
<linearGradient id="linearGradient3737-1">
<stop offset="0" style="stop-color:#fff" id="stop3739-7"/>
<stop offset="1" style="stop-color:#fff;stop-opacity:0" id="stop3741-2"/>
</linearGradient>
<linearGradient id="linearGradient3188" xlink:href="#linearGradient3737" y1="6" x1="36.357143" y2="63.893143" x2="36.357143" gradientUnits="userSpaceOnUse"/>
<linearGradient id="linearGradient3737-6">
<stop offset="0" style="stop-color:#fff" id="stop3739-73"/>
<stop offset="1" style="stop-color:#fff;stop-opacity:0" id="stop3741-6"/>
</linearGradient>
<linearGradient id="linearGradient3706" xlink:href="#linearGradient3187" y1="90" x1="48" y2="5.9877172" x2="48" gradientUnits="userSpaceOnUse"/>
<linearGradient gradientTransform="scale(1.0058652,0.994169)" id="ButtonShadow" y1="92.539597" x1="45.447727" y2="7.0165396" x2="45.447727" gradientUnits="userSpaceOnUse">
<stop offset="0" id="stop3750"/>
<stop offset="1" style="stop-opacity:.588" id="stop3752"/>
</linearGradient>
<linearGradient id="linearGradient3671">
<stop offset="0" style="stop-color:#ff8080" id="stop3673"/>
<stop offset="1" style="stop-color:#ff8080;stop-opacity:0" id="stop3675"/>
</linearGradient>
<linearGradient id="linearGradient3737">
<stop offset="0" style="stop-color:#fff" id="stop3739"/>
<stop offset="1" style="stop-color:#fff;stop-opacity:0" id="stop3741"/>
</linearGradient>
<linearGradient gradientTransform="matrix(1.0238095,0,0,1.0119048,-1.1428571,-98.071429)" id="linearGradient3071" xlink:href="#ButtonShadow-0" y1="6.1317081" x1="32.251034" y2="90.238609" x2="32.251034" gradientUnits="userSpaceOnUse"/>
<linearGradient gradientTransform="matrix(2.238168,0,0,2.238168,-43.442841,-25.089863)" id="j" y1="215.33009" x1="128.0513" y2="127.4658" x2="128.0513" gradientUnits="userSpaceOnUse">
<stop offset="0" id="stop65"/>
<stop offset="1" style="stop-opacity:0" id="stop73"/>
</linearGradient>
<linearGradient gradientTransform="matrix(2.238168,0,0,2.238168,-43.442841,-25.089863)" id="L" y1="104.6548" x1="128.2612" y2="1.6424" x2="128.2612" gradientUnits="userSpaceOnUse">
<stop offset="0" style="stop-color:#fff;stop-opacity:0" id="stop81"/>
<stop offset="1" style="stop-color:#fff" id="stop83"/>
</linearGradient>
<linearGradient id="linearGradient3545">
<stop offset="0" style="stop-color:#fafafa" id="stop3547"/>
<stop offset="0.5" style="stop-color:#dcdcdc" id="stop3671"/>
<stop offset="0.5" style="stop-color:#c8c8c8" id="stop3674"/>
<stop offset="1" style="stop-color:#ebebeb" id="stop3549"/>
</linearGradient>
<linearGradient gradientTransform="matrix(0.79256963,0,0,0.79256963,-12.631578,-6.79876)" id="linearGradient3147" xlink:href="#linearGradient3545" y1="32.1875" x1="68.46875" y2="106.10139" x2="68.46875" gradientUnits="userSpaceOnUse"/>
<linearGradient id="linearGradient2885" xlink:href="#linearGradient3737-6" y1="20.220806" x1="48" y2="138.66119" x2="48" gradientUnits="userSpaceOnUse"/>
<linearGradient id="linearGradient3187">
<stop offset="0" style="stop-color:#780000" id="stop3189"/>
<stop offset="1" style="stop-color:#e62929" id="stop3191"/>
</linearGradient>
<radialGradient fx="48" fy="90.171875" cx="48" cy="90.171875" gradientTransform="matrix(1.1573129,0,0,0.99590774,-7.551021,0.1971319)" r="42" id="radialGradient2855" xlink:href="#linearGradient3737-1" gradientUnits="userSpaceOnUse"/>
<radialGradient fx="48" fy="46.582424" cx="48" cy="46.582424" gradientTransform="matrix(1.7146179,6.6254866e-8,-4.2857144e-8,1.1091053,-34.301659,-5.0823943)" r="42" id="radialGradient3677" xlink:href="#linearGradient3671" gradientUnits="userSpaceOnUse"/>
</defs>
<g style="display:none" id="layer2">
<rect width="86" x="5" y="7" rx="6" height="85" ry="6" style="opacity:.9;fill:url(#ButtonShadow);filter:url(#filter3174);stroke:none" id="rect3745"/>
</g>
<g style="stroke:none" id="layer5">
<path style="opacity:.08;fill:url(#linearGradient3071)" id="path3786" d="m 12,-95.0312 c -5.51109,0 -10.0312,4.52016 -10.0312,10.0312 v 71 c 0,5.51109 4.52016,10.0312 10.0312,10.0312 h 72 c 5.51109,0 10.0312,-4.52016 10.0312,-10.0312 v -71 c 0,-5.51109 -4.52016,-10.0312 -10.0312,-10.0312 h -72 z " transform="scale(1,-1)"/>
<path style="opacity:.1;fill:url(#linearGradient3780)" id="path3778" d="m 12,-94.0312 c -4.97163,0 -9.03125,4.05962 -9.03125,9.03125 v 71 c 0,4.97163 4.05962,9.03125 9.03125,9.03125 h 72 c 4.97163,0 9.03125,-4.05962 9.03125,-9.03125 v -71 c 0,-4.97163 -4.05962,-9.03125 -9.03125,-9.03125 h -72 z " transform="scale(1,-1)"/>
<path style="opacity:.2;fill:url(#linearGradient3772)" id="path3770" d="m 12,-93 c -4.40913,0 -8,3.59087 -8,8 v 71 c 0,4.40913 3.59087,8 8,8 h 72 c 4.40913,0 8,-3.59087 8,-8 v -71 c 0,-4.40913 -3.59087,-8 -8,-8 h -72 z " transform="scale(1,-1)"/>
<rect width="86" x="5" y="-92" rx="7" height="85" ry="7" style="opacity:.3;fill:url(#linearGradient3725)" id="rect3723" transform="scale(1,-1)"/>
<rect width="84" x="6" y="-91" rx="6" height="84" ry="6" style="opacity:.45;fill:url(#linearGradient3721)" id="rect3716" transform="scale(1,-1)"/>
</g>
<g style="stroke:none" id="layer1">
<rect width="84" x="6" y="6" rx="6" height="84" ry="6" style="fill:url(#linearGradient3706)" id="rect2419"/>
<path style="opacity:.7;fill:url(#radialGradient3677)" id="path3522" d="m 36.2739,6.0817 c 1.65012,2.21669 0.112581,5.91834 2.60147,5.88159 1.2119,1.71402 -2.41546,0.511296 0.203594,1.83234 1.5061,1.18658 -1.59339,1.86454 0.27179,2.92937 -2.14969,1.10967 0.348443,5.80399 1.94512,6.97885 2.62795,2.21316 1.1622,-4.68572 4.0945,-5.0446 1.59336,-1.8197 4.39185,-2.98781 6.37927,-4.81838 -1.9423,-0.15774 -3.07646,-1.36713 -1.23703,-2.1163 3.38546,3.47039 0.848905,-1.64353 -1.02513,-2.45324 1.81336,-0.577046 3.57698,-0.154481 3.32536,-1.65137 1.91633,-1.40252 -1.84226,-1.85534 -3.18393,-1.53826 -4.45834,0 -8.91668,0 -13.375,0 z  m -27.8019,1.4478 c -2.44976,0.698195 -2.62064,6.55488 -0.158351,3.30274 0.604343,-1.33537 3.39708,-2.94467 0.158351,-3.30274 z  m 11.4465,.2036 c -1.41226,2.21534 0.204915,3.9915 1.37991,1.28943 0.831709,-1.12834 -0.617926,-1.24808 -1.37991,-1.28943 z  m 3.529,.4977 c -2.72875,1.26521 -0.672602,4.21556 -0.605059,4.87174 2.87456,0.994829 4.47323,-0.650437 5.56069,2.16149 2.73516,1.57694 -0.05382,4.31706 -1.08054,5.03067 1.84934,-1.61119 5.40416,4.38048 4.47225,1.21492 -1.11178,-0.812076 2.98516,1.30456 0.859619,-1.33467 -1.95606,-3.15266 0.155272,-1.41141 0.979953,-0.675608 2.80489,-2.5161 -3.17359,-2.82021 -1.68122,-5.40958 -1.30776,-1.05958 -3.02289,-4.26949 -5.33868,-3.64206 -1.55024,2.00556 -0.214153,-4.36996 -2.4886,-1.17956 -0.117891,1.78342 -0.04285,4.04646 -0.705711,0.956824 -0.444071,-0.540872 0.764001,-1.7983 0.0273,-1.99417 z  m -5.5649,.0226 c -1.8316,0.610853 -1.73323,3.08651 0.518957,3.35191 0.771435,-0.879633 0.306491,-3.18534 -0.518957,-3.35191 z  m -7.1484,.7918 c -2.37908,0.563878 -1.40799,2.48287 -0.679573,3.02332 -2.94492,0.737923 4.49569,0.943126 0.792681,1.41049 -3.08079,1.23084 2.96666,2.68094 3.95877,1.22156 3.80439,0.930735 0.136908,-3.04655 -0.19704,-5.20253 -1.61275,-1.73148 -0.06366,3.99153 -1.52187,0.184408 -0.508786,1.13054 -2.12653,0.166598 -2.35297,-0.637252 z  m 75.6011,.2488 c -3.19245,1.24986 1.98418,5.96643 0.697641,1.67549 -0.128164,-0.518125 0.288199,-1.88711 -0.697641,-1.67549 z  m -66.6656,1.9002 c -2.29408,2.15671 2.91599,3.9402 -0.658895,5.54691 -0.536018,-2.00294 -1.45827,1.00211 -3.50346,-0.615417 -3.5159,1.46447 -5.31387,-0.762828 -8.25754,-2.28957 -1.76803,-0.220164 -1.10378,1.68053 -1.22088,3.46019 0,4.91831 0,9.83661 0,14.7549 1.73349,1.82448 0.676329,0.804976 0,0.301752 0.951467,3.24164 -0.419572,7.98023 3.33085,9.86583 0.637564,1.18303 3.31288,6.22308 3.43622,4.71505 -1.34122,-1.40507 -2.71735,-5.61739 -0.447896,-1.86302 2.03275,3.5688 4.77475,5.88351 8.78048,6.73276 2.19006,0.745225 3.99117,3.30696 5.91712,2.74332 1.08905,2.87197 -3.22742,5.62989 0.144912,8.3086 1.76052,2.7118 4.71618,4.4904 3.11596,8.29758 -1.11907,3.71826 -0.639926,7.76974 -1.60779,11.2341 -0.300394,2.10873 2.93804,7.46101 2.65747,3.17511 0.945569,-2.9784 0.92064,-6.25562 3.14758,-8.36483 3.04711,0.02413 0.582377,-3.27775 3.60701,-2.84642 1.84564,-2.42007 2.38023,-5.30712 5.49491,-6.26809 0.372042,-2.9376 5.17882,-7.43659 0.213139,-8.58032 -1.34961,-0.665451 -4.8245,-0.904732 -4.55895,-1.23308 0.538034,-2.91488 -4.49347,-3.7447 -6.63423,-4.93727 -2.81076,-1.99585 -7.03424,3.31559 -8.02452,-1.26103 -0.590876,-1.43995 -2.75133,-1.4633 -1.75843,-3.68521 -1.78939,1.78033 -5.28934,1.23924 -4.37303,-2.19892 1.39157,-2.8956 6.73564,-3.0326 7.64626,0.450282 -1.26435,-3.8412 2.44394,-6.83143 4.50253,-9.56422 0.419165,-1.3062 2.90974,-2.42842 2.05268,-0.692421 1.46015,-0.05269 3.67329,-2.68864 1.07941,-1.47201 -0.03668,-2.4039 -2.27298,-1.72027 -2.99799,-1.37893 1.34377,-2.13357 8.24499,-0.967127 5.3551,-4.45459 -2.23931,-0.907679 -2.05302,-6.20445 -4.318,-3.2536 0.190595,-1.81815 -4.61001,-5.37714 -4.50525,-2.32832 0.585986,2.72813 0.107133,5.87087 -1.13993,7.65911 -0.260245,-3.99762 -7.07568,-3.11408 -6.19942,-7.374 1.26944,-2.03029 2.75285,-4.83791 2.89418,-4.58534 2.27505,-0.868941 4.10459,-3.39651 1.46783,-5.05812 -0.140917,1.4482 -1.98303,4.43614 -1.72366,0.822325 -1.70579,2.02318 -1.3162,-3.21941 -2.91375,-3.76312 z  m 54.45,1.4025 c -3.99594,0.977838 -5.58007,4.79584 -7.55682,7.95816 -2.91385,1.31424 -2.80294,6.95832 0.452411,5.15567 0.87128,1.52228 -0.609505,3.92167 1.92831,1.93122 2.04699,-2.7099 0.357939,-7.09276 3.84142,-8.80151 0.253727,1.32865 -3.21333,6.28987 0.836994,5.47441 3.66156,0.138209 -2.66185,0.364969 -0.881001,2.70473 -1.85026,-1.09821 -0.888827,2.99933 -3.30398,2.04579 -2.09233,1.13853 -3.46434,-0.528629 -2.98503,-2.35496 -1.64596,0.960573 0.517696,3.67045 -2.33958,3.83331 -0.640044,2.27366 -5.90338,1.93096 -2.91021,4.24616 1.3289,3.44536 -4.95153,0.215986 -3.16853,4.35053 1.52545,4.08844 4.72239,-1.35472 6.01943,-2.40635 2.50247,-1.94187 6.21066,3.31109 3.95876,3.50633 2.52508,-0.338912 2.00619,-2.74125 -0.01696,-3.6713 -1.09268,-2.83493 3.45904,1.39032 3.2066,2.81168 1.60594,3.00835 0.944615,-3.08009 2.57885,-0.384565 -0.190808,2.84338 6.57418,0.668556 3.34439,4.29241 -2.77688,0.559513 -5.51013,-0.716143 -7.90083,0.100926 -2.22511,-0.01969 -2.11347,-2.39796 -2.92359,-2.99354 -2.83037,0.23004 -6.32793,0.204027 -8.22277,2.4914 -2.04902,2.81234 -5.00383,6.74379 -2.77053,10.3348 2.23488,5.32146 7.77718,0.276028 10.963,3.41877 0.946936,1.31038 -0.820594,2.86803 1.29671,4.28742 0.796704,3.02353 -0.904488,5.89433 1.05226,8.78464 1.01184,2.7182 1.63978,6.78664 5.40576,4.30281 3.98577,-2.39945 2.92416,-6.8227 6.21294,-9.27265 -2.60227,-5.03806 3.18363,-7.2471 4.62722,-11.3371 -3.15394,0.461909 -5.96377,-2.68376 -6.72579,-5.84994 -1.32494,-1.53789 -0.983676,-3.8055 0.496326,-0.916468 2.03426,1.9719 2.07822,7.82306 5.84127,4.81302 1.72035,-0.719835 6.41861,-3.46572 2.67511,-4.71532 -2.41304,1.7484 -5.07525,-5.22426 -1.53182,-1.17997 2.57604,1.0933 4.37998,1.74471 4.37998,-1.88015 0,-9.76613 0,-19.6646 0,-29.4969 -0.802399,0.82028 -2.8638,2.33524 -3.90428,1.32857 -1.79037,0.249406 -4.15389,3.73429 -3.59125,0.365539 -1.55624,-0.103093 -0.278581,3.02053 -2.41664,3.10789 -0.215289,1.60589 -2.15987,0.297377 -1.42943,1.82237 -1.50065,-1.06488 -2.77067,-4.42704 0.186146,-2.31673 4.39102,-1.31784 -2.89561,-4.2904 -3.45804,-5.00891 0.945455,-0.226615 -1.02861,-1.21225 -1.26681,-0.88224 z  m -36.2397,.8822 c -1.46151,1.2182 2.77853,1.44761 0,0 z  m -19.5224,.656 c -1.63465,1.7105 2.60328,1.57245 0,0 z  m 9.4784,1.6966 c -1.23787,2.02858 1.82903,0.748943 0,0 z  m 27.1006,2.3979 c -1.44924,1.66908 -3.36205,-0.439263 -3.39323,0.995347 0.262642,0.433474 1.31467,3.52729 3.61944,1.24418 1.23698,-0.52171 0.749963,-1.83688 -0.226209,-2.23953 z  m -30.8558,.9953 c -2.74881,2.40148 4.6683,2.62274 0.582324,0.275426 l -.5823,-.2754 z  m 36.2623,6.6507 c -1.97908,1.29104 0.949434,4.03281 -0.04308,5.32072 -1.2401,2.16146 4.60833,-0.152255 1.48461,-1.87676 -0.222564,-1.48162 -1.83002,-3.28936 -1.44154,-3.44396 z  m -1.3347,2.6015 c -2.75739,0.779858 -0.625964,4.80624 0.350657,1.014 0.05497,-0.219858 0.12936,-1.02135 -0.350657,-1.014 z  m -22.0786,2.9182 c -2.56522,1.74983 -0.39843,3.49644 1.48156,2.70912 -0.385959,-1.05576 -1.46417,-1.72096 -1.48156,-2.70912 z  m 48.4553,2.9408 c 1.27995,0.646198 -2.34554,1.75008 -0.04983,2.88736 1.33598,1.57167 0.832312,4.94546 -1.3392,2.55764 0.403442,-2.66599 -2.94356,-4.65698 1.38903,-5.445 z  m -6.5829,.0226 c -0.173666,1.71279 3.69395,4.37514 -0.475048,3.50633 -2.20474,0.258725 -5.50697,-0.06739 -2.72942,-2.81568 0.87765,-0.527085 3.18206,1.8185 1.98291,-0.373952 0.42514,-0.02713 0.821079,-0.187672 1.22156,-0.316701 z  m -12.7359,3.7099 c -1.60812,1.03641 1.11198,1.83112 0,0 z  m -40.3794,9.6594 c -0.271103,0.904805 5.08599,1.82176 1.3893,0.372149 l -.5511,-.194 -.8382,-.1781 z  m 4.1624,1.2894 c -1.62492,1.65021 3.34781,0.493017 0,0 z  m 54.3369,15.1338 c -3.53073,0.09113 -3.06133,9.20159 -0.600138,3.81083 0.233406,-1.16979 1.1689,-2.71377 0.600138,-3.81083 z "/>
<path style="opacity:.4;fill:url(#linearGradient3188)" id="rect3728" d="m 12,6 c -3.324,0 -6,2.676 -6,6 v 2 68 2 c 0,0.334721 0.04135,0.6507 0.09375,0.96875 0.0487,0.295596 0.09704,0.596915 0.1875,0.875 0.00988,0.03038 0.020892,0.0636 0.03125,0.09375 0.098865,0.287771 0.23488,0.547452 0.375,0.8125 0.144592,0.273507 0.315616,0.535615 0.5,0.78125 0.184384,0.245635 0.373776,0.473472 0.59375,0.6875 0.439947,0.428056 0.94291,0.814526 1.5,1.09375 0.278545,0.139612 0.573473,0.246947 0.875,0.34375 -0.256202,-0.100222 -0.486711,-0.236272 -0.71875,-0.375 -0.00741,-0.0044 -0.023866,0.0045 -0.03125,0 -0.031933,-0.0193 -0.062293,-0.04251 -0.09375,-0.0625 -0.120395,-0.0767 -0.231023,-0.163513 -0.34375,-0.25 -0.106173,-0.0808 -0.213281,-0.161112 -0.3125,-0.25 -0.17793,-0.161433 -0.34746,-0.345388 -0.5,-0.53125 -0.107579,-0.130255 -0.218394,-0.265285 -0.3125,-0.40625 -0.025089,-0.03838 -0.038446,-0.08587 -0.0625,-0.125 -0.064763,-0.103032 -0.130228,-0.204517 -0.1875,-0.3125 -0.101008,-0.194706 -0.205675,-0.415701 -0.28125,-0.625 -0.00796,-0.02181 -0.023589,-0.04055 -0.03125,-0.0625 -0.0318251,-0.09195 -0.0358045,-0.186831 -0.0625,-0.28125 -0.0303323,-0.106618 -0.0703894,-0.203031 -0.09375,-0.3125 -0.0728786,-0.341512 -0.125,-0.698205 -0.125,-1.0625 v -2 -68 -2 c 0,-2.78185 2.21815,-5 5,-5 h 2 68 2 c 2.78185,0 5,2.21815 5,5 v 2 68 2 c 0,0.364295 -0.05212,0.720988 -0.125,1.0625 -0.04415,0.206893 -0.08838,0.397658 -0.15625,0.59375 -0.0077,0.02195 -0.0233,0.04069 -0.03125,0.0625 -0.06274,0.173739 -0.138383,0.367449 -0.21875,0.53125 -0.04158,0.0828 -0.07904,0.169954 -0.125,0.25 -0.0546,0.09721 -0.126774,0.18835 -0.1875,0.28125 -0.09411,0.140965 -0.204921,0.275995 -0.3125,0.40625 -0.143174,0.17445 -0.303141,0.346998 -0.46875,0.5 -0.01117,0.0102 -0.01998,0.02115 -0.03125,0.03125 -0.138386,0.125556 -0.285091,0.234436 -0.4375,0.34375 -0.102571,0.07315 -0.204318,0.153364 -0.3125,0.21875 -0.0074,0.0045 -0.02384,-0.0044 -0.03125,0 -0.232039,0.138728 -0.462548,0.274778 -0.71875,0.375 0.301527,-0.0968 0.596455,-0.204138 0.875,-0.34375 0.55709,-0.279224 1.06005,-0.665694 1.5,-1.09375 0.219973,-0.214028 0.409366,-0.441865 0.59375,-0.6875 0.184384,-0.245635 0.355408,-0.507743 0.5,-0.78125 0.14012,-0.265048 0.276135,-0.524729 0.375,-0.8125 0.01041,-0.03078 0.02133,-0.06274 0.03125,-0.09375 0.09046,-0.278085 0.1388,-0.579404 0.1875,-0.875 0.0524,-0.31805 0.09375,-0.634029 0.09375,-0.96875 v -2 -68 -2 c 0,-3.324 -2.676,-6 -6,-6 h -72 z "/>
<path style="opacity:.2;fill:url(#radialGradient2855)" id="path3615" d="M 12,90 C 8.676,90 6,87.324 6,84 L 6,82 6,14 6,12 c 0,-0.334721 0.04135,-0.6507 0.09375,-0.96875 0.0487,-0.295596 0.09704,-0.596915 0.1875,-0.875 C 6.29113,10.12587 6.302142,10.09265 6.3125,10.0625 6.411365,9.774729 6.5473802,9.515048 6.6875,9.25 6.8320918,8.976493 7.0031161,8.714385 7.1875,8.46875 7.3718839,8.223115 7.5612765,7.995278 7.78125,7.78125 8.221197,7.353194 8.72416,6.966724 9.28125,6.6875 9.559795,6.547888 9.8547231,6.440553 10.15625,6.34375 9.9000482,6.443972 9.6695391,6.580022 9.4375,6.71875 c -0.00741,0.0044 -0.023866,-0.0045 -0.03125,0 -0.031933,0.0193 -0.062293,0.04251 -0.09375,0.0625 -0.120395,0.0767 -0.2310226,0.163513 -0.34375,0.25 -0.1061728,0.0808 -0.2132809,0.161112 -0.3125,0.25 C 8.4783201,7.442683 8.3087904,7.626638 8.15625,7.8125 8.0486711,7.942755 7.9378561,8.077785 7.84375,8.21875 7.818661,8.25713 7.805304,8.30462 7.78125,8.34375 7.716487,8.446782 7.6510225,8.548267 7.59375,8.65625 7.4927417,8.850956 7.3880752,9.071951 7.3125,9.28125 7.30454,9.30306 7.288911,9.3218 7.28125,9.34375 7.2494249,9.4357 7.2454455,9.530581 7.21875,9.625 7.1884177,9.731618 7.1483606,9.828031 7.125,9.9375 7.0521214,10.279012 7,10.635705 7,11 l 0,2 0,68 0,2 c 0,2.781848 2.2181517,5 5,5 l 2,0 68,0 2,0 c 2.781848,0 5,-2.218152 5,-5 l 0,-2 0,-68 0,-2 C 89,10.635705 88.94788,10.279012 88.875,9.9375 88.83085,9.730607 88.78662,9.539842 88.71875,9.34375 88.71105,9.3218 88.69545,9.30306 88.6875,9.28125 88.62476,9.107511 88.549117,8.913801 88.46875,8.75 88.42717,8.6672 88.38971,8.580046 88.34375,8.5 88.28915,8.40279 88.216976,8.31165 88.15625,8.21875 88.06214,8.077785 87.951329,7.942755 87.84375,7.8125 87.700576,7.63805 87.540609,7.465502 87.375,7.3125 87.36383,7.3023 87.35502,7.29135 87.34375,7.28125 87.205364,7.155694 87.058659,7.046814 86.90625,6.9375 86.803679,6.86435 86.701932,6.784136 86.59375,6.71875 c -0.0074,-0.0045 -0.02384,0.0044 -0.03125,0 -0.232039,-0.138728 -0.462548,-0.274778 -0.71875,-0.375 0.301527,0.0968 0.596455,0.204138 0.875,0.34375 0.55709,0.279224 1.060053,0.665694 1.5,1.09375 0.219973,0.214028 0.409366,0.441865 0.59375,0.6875 0.184384,0.245635 0.355408,0.507743 0.5,0.78125 0.14012,0.265048 0.276135,0.524729 0.375,0.8125 0.01041,0.03078 0.02133,0.06274 0.03125,0.09375 0.09046,0.278085 0.1388,0.579404 0.1875,0.875 C 89.95865,11.3493 90,11.665279 90,12 l 0,2 0,68 0,2 c 0,3.324 -2.676,6 -6,6 l -72,0 z"/>
</g>
<g id="layer4">
<rect width="66" x="15" y="15" rx="12" height="66" ry="12" style="opacity:.15;fill:url(#linearGradient2885);filter:url(#filter3794);stroke:#fff;stroke-linecap:round;stroke-width:.5;clip-path:url(#clipPath3613)" id="rect3171"/>
</g>
<g id="layer3">
<g style="fill-rule:evenodd">
<path style="opacity:.05" id="path4063" d="m 47.875,12.5312 c -19.6652,0 -34.3438,14.9994 -34.3438,36.1562 0,19.1189 14.0298,36.7812 34.3438,36.7812 20.4744,0 34.5938,-17.6491 34.5938,-36.7812 0,-21.3475 -15.0958,-36.1562 -34.5938,-36.1562 z  m 0,12.3125 c 1.7564,0 2.59966,0.393867 3.65625,1.40625 1.00029,0.958438 1.97977,2.62071 2.71875,4.8125 1.48096,4.39246 2,10.8673 2,17.0938 0,5.46199 -0.249389,12.1864 -1.65625,17.0312 -0.702526,2.4193 -1.71915,4.34056 -2.78125,5.46875 -1.11749,1.18702 -2.02072,1.65625 -3.9375,1.65625 -1.87803,0 -2.6816,-0.428906 -3.78125,-1.625 -1.04424,-1.13582 -2.06817,-3.08163 -2.75,-5.5 -1.37227,-4.86728 -1.59424,-11.6116 -1.59375,-17.0312 0,-5.79939 0.434058,-12.2819 1.875,-16.8125 0.715858,-2.25079 1.71656,-4.01195 2.71875,-5.03125 1.0631,-1.08125 1.83031,-1.46875 3.53125,-1.46875 z " transform="translate(90,0)"/>
<path style="opacity:.1" id="path4059" d="m 47.875,13.8125 c -19.0246,0 -33.0625,14.2996 -33.0625,34.875 0,18.4975 13.4888,35.5 33.0625,35.5 19.7408,0 33.3125,-16.9928 33.3125,-35.5 0,-20.7541 -14.4526,-34.875 -33.3125,-34.875 z  m 0,9.75 c 1.99896,0 3.29863,0.568955 4.53125,1.75 1.21962,1.1686 2.2778,3.01638 3.0625,5.34375 1.57099,4.6595 2.0625,11.207 2.0625,17.5 0,5.4988 -0.23756,12.2742 -1.71875,17.375 -0.740277,2.5493 -1.78843,4.64665 -3.0625,6 -1.28643,1.36647 -2.68712,2.0625 -4.875,2.0625 -2.14042,0 -3.45717,-0.659031 -4.71875,-2.03125 -1.24781,-1.35724 -2.3104,-3.47449 -3.03125,-6.03125 -1.44358,-5.12022 -1.65674,-11.922 -1.65625,-17.375 0,-5.85974 0.414963,-12.4004 1.9375,-17.1875 0.759321,-2.38745 1.81957,-4.33013 3.03125,-5.5625 1.22498,-1.2459 2.47673,-1.84375 4.4375,-1.84375 z " transform="translate(90,0)"/>
<path style="opacity:.15" id="path4055" d="m 47.875,14.9062 c -18.4898,0 -31.9688,13.6904 -31.9688,33.7812 0,17.9742 13.0214,34.4062 31.9688,34.4062 19.1204,0 32.2188,-16.4252 32.2188,-34.4062 0,-20.2588 -13.8918,-33.7812 -32.2188,-33.7812 z  m 0,7.5625 c 2.23242,0 3.88178,0.721585 5.28125,2.0625 1.39947,1.34091 2.52108,3.34124 3.34375,5.78125 1.64534,4.88002 2.125,11.4961 2.125,17.8438 0,5.53001 -0.238889,12.3761 -1.78125,17.6875 -0.771181,2.65572 -1.86455,4.89945 -3.3125,6.4375 -1.44795,1.53805 -3.21183,2.40625 -5.65625,2.40625 -2.39999,0 -4.11196,-0.862485 -5.53125,-2.40625 -1.41929,-1.54376 -2.49901,-3.80509 -3.25,-6.46875 -1.50197,-5.32732 -1.71925,-12.1745 -1.71875,-17.6562 0,-5.90985 0.410011,-12.532 2,-17.5312 0.794994,-2.49961 1.90009,-4.56401 3.28125,-5.96875 1.38116,-1.40474 3.00283,-2.1875 5.21875,-2.1875 z " transform="translate(90,0)"/>
<path style="opacity:.3" id="path3969" d="m 137.8771,75.7948 c 10.8737,0 11.8534,-16.5304 11.8534,-27.6534 0,-12.8024 -1.90853,-26.7684 -11.8534,-26.7684 -9.94311,0 -11.6084,14.8487 -11.6084,26.7684 -0.001,11.021 0.88976,27.6542 11.6084,27.6542 z  m -.0027,-59.7956 c 17.803,0 31.1256,12.9213 31.1256,32.6935 0,17.4589 -12.6212,33.3065 -31.1227,33.3065 -18.3223,0 -30.8773,-15.8517 -30.8773,-33.3065 0,-19.6155 12.9101,-32.6935 30.8744,-32.6935 z "/>
</g>
<g style="stroke:none">
<path style="opacity:.08" id="path3748" d="m 48,16.8438 c -15.1112,1e-06 -26.8437,14.6929 -26.8438,32.125 0,17.4318 11.7243,32.1875 26.8438,32.1875 15.1194,0 26.8438,-14.7557 26.8438,-32.1875 0,-17.4321 -11.7325,-32.125 -26.8438,-32.125 z  m 0,9.4375 c 2.26633,0 3.62573,0.521716 4.75,1.40625 1.10921,0.872687 1.99032,2.21902 2.6875,4.1875 1.38612,3.91367 1.75,10.1222 1.75,17.0938 2e-06,6.94864 -0.439727,13.1566 -1.875,17.0938 -0.716859,1.96645 -1.63909,3.33247 -2.75,4.21875 -1.12378,0.896548 -2.41592,1.40625 -4.5625,1.40625 -2.20174,0 -3.53576,-0.517109 -4.65625,-1.40625 -1.10502,-0.876863 -2.00979,-2.24673 -2.71875,-4.21875 -1.41286,-3.92995 -1.8125,-10.1337 -1.8125,-17.0938 1e-06,-6.96012 0.404093,-13.1728 1.8125,-17.0938 0.70502,-1.96275 1.60381,-3.30563 2.71875,-4.1875 1.12759,-0.891884 2.44453,-1.40625 4.65625,-1.40625 z "/>
<path style="opacity:.1" id="path3744" d="m 48,17.75 c -14.5136,1e-06 -25.9375,14.1966 -25.9375,31.2188 0,17.022 11.4181,31.2812 25.9375,31.2812 14.5194,0 25.9375,-14.2592 25.9375,-31.2812 0,-17.0221 -11.4239,-31.2188 -25.9375,-31.2188 z  m 0,7.625 c 2.41421,0 4.02953,0.584354 5.3125,1.59375 1.27927,1.00649 2.26358,2.51447 3,4.59375 1.46933,4.14862 1.78125,10.4075 1.78125,17.4062 2e-06,6.98251 -0.387046,13.2388 -1.90625,17.4062 -0.758909,2.0818 -1.78983,3.60967 -3.0625,4.625 -1.27491,1.01712 -2.82523,1.59375 -5.125,1.59375 -2.35248,0 -3.94172,-0.580391 -5.21875,-1.59375 -1.27341,-1.01048 -2.28203,-2.541 -3.03125,-4.625 -1.49644,-4.16245 -1.84375,-10.4158 -1.84375,-17.4062 1e-06,-6.99086 0.351774,-13.2526 1.84375,-17.4062 0.746058,-2.077 1.75278,-3.58253 3.03125,-4.59375 1.28084,-1.0131 2.85683,-1.59375 5.21875,-1.59375 z "/>
<path style="opacity:.15" id="path3740" d="m 48,18.6562 c -13.9176,1e-06 -25.0312,13.6955 -25.0312,30.3125 0,16.617 11.1104,30.375 25.0312,30.375 13.9208,0 25.0312,-13.758 25.0312,-30.375 0,-16.617 -11.1136,-30.3125 -25.0312,-30.3125 z  m 0,5.8125 c 2.56545,0 4.42521,0.640604 5.875,1.78125 1.44979,1.14065 2.50666,2.81296 3.28125,5 1.54918,4.37408 1.84375,10.6946 1.84375,17.7188 2e-06,7.01436 -0.368875,13.3301 -1.96875,17.7188 -0.799938,2.19435 -1.90833,3.88607 -3.34375,5.03125 -1.43542,1.14518 -3.2309,1.78125 -5.6875,1.78125 -2.5064,0 -4.33919,-0.636936 -5.78125,-1.78125 -1.44206,-1.14431 -2.52414,-2.83837 -3.3125,-5.03125 -1.57673,-4.38577 -1.90625,-10.6999 -1.90625,-17.7188 1e-06,-7.01968 0.334023,-13.3417 1.90625,-17.7188 0.786114,-2.18851 1.86936,-3.85853 3.3125,-5 1.44314,-1.14147 3.26531,-1.78125 5.78125,-1.78125 z "/>
<path style="opacity:.3" id="path3734" d="m 48,19.7031 c -13.2433,0 -24,13.1095 -24,29.2734 0,16.164 10.7567,29.3203 24,29.3203 13.2433,0 24,-13.1564 24,-29.3203 0,-16.164 -10.7567,-29.2734 -24,-29.2734 z  m 0,3.75 c 10.9712,0 12.0234,11.4239 12.0234,25.5234 5e-06,14.0995 -1.45837,25.5469 -12.0234,25.5469 -10.7515,0 -12.0234,-11.4474 -12.0234,-25.5469 2e-06,-14.0995 1.23806,-25.5234 12.0234,-25.5234 z "/>
<path style="fill:url(#linearGradient3147)" id="path3539" d="m 48,18.7031 c -13.2433,0 -24,13.1095 -24,29.2734 0,16.164 10.7567,29.3203 24,29.3203 13.2433,0 24,-13.1564 24,-29.3203 0,-16.164 -10.7567,-29.2734 -24,-29.2734 z  m 0,3.75 c 10.9712,0 12.0234,11.4239 12.0234,25.5234 5e-06,14.0995 -1.45837,25.5469 -12.0234,25.5469 -10.7515,0 -12.0234,-11.4474 -12.0234,-25.5469 2e-06,-14.0995 1.23806,-25.5234 12.0234,-25.5234 z "/>
<path style="opacity:.15" id="path3716" d="m 48,21.4375 c -10.7854,0 -12.0312,11.4317 -12.0312,25.5312 0,0.17085 -0.000388,0.32995 0,0.5 0.03104,-13.8619 1.37735,-25.0312 12.0312,-25.0312 9.5998,0 11.6173,8.77406 11.9688,20.4062 -0.271161,-12.117 -2.10139,-21.4062 -11.9688,-21.4062 z  m -24,26.0312 c -0.0023,0.16763 0,0.3317 0,0.5 0,16.164 10.7567,29.3438 24,29.3438 13.2433,0 24,-13.1798 24,-29.3438 0,-0.1683 0.0023,-0.33237 0,-0.5 -0.220782,15.9326 -10.8946,28.8438 -24,28.8438 -13.1054,0 -23.7792,-12.9112 -24,-28.8438 z "/>
<path style="opacity:.75;fill:#fff" id="path3725" d="m 48,18.6875 c -13.2433,0 -24,13.1173 -24,29.2812 0,0.1683 -0.0023,0.33236 0,0.5 0.220783,-15.9316 10.8946,-28.7812 24,-28.7812 13.1054,0 23.7792,12.8496 24,28.7812 0.0023,-0.16764 0,-0.3317 0,-0.5 0,-16.164 -10.7567,-29.2812 -24,-29.2812 z  m -12.0312,29.7812 c -0.000383,0.17108 0,0.32811 0,0.5 0,14.0995 1.27979,25.5625 12.0312,25.5625 10.1563,0 11.8805,-10.5935 12,-23.9375 -0.198908,12.8753 -2.09525,22.9375 -12,22.9375 -10.6212,0 -11.9996,-11.1986 -12.0312,-25.0625 z "/>
</g>
<g style="fill-rule:evenodd" id="g3943" transform="matrix(0.4488498,0,0,0.45047258,47.27416,27.510714)">
<path style="fill:url(#linearGradient3953)" id="path3137" d="m 201.8558,104.9655 c 24.2257,0 26.4083,-36.6956 26.4083,-61.3875 0,-28.4198 -4.25203,-59.423 -26.4083,-59.423 -22.1524,0 -25.8626,32.9625 -25.8626,59.423 -0.003,24.4654 1.98229,61.3894 25.8626,61.3894 z  m -.006,-132.7379 c 39.6636,0 69.3452,28.6838 69.3452,72.5759 0,38.7568 -28.119,73.9369 -69.3389,73.9369 -40.8205,0 -68.792,-35.189 -68.792,-73.9369 0,-43.5443 28.7626,-72.5759 68.7856,-72.5759 z "/>
<path style="opacity:.5;fill:url(#linearGradient3955)" id="path3139" d="m 242.8181,102.8668 c -10.3172,9.10634 -23.935,14.2793 -40.9629,14.2793 -16.8765,0 -30.4257,-5.17291 -40.7149,-14.2793 l 34.9111,-.084 c 1.78896,0.49415 3.71974,0.75362 5.80379,0.75362 2.11393,0 4.07015,-0.17235 5.8801,-0.66649 h 35.0796 z "/>
<path style="opacity:.8;fill:url(#linearGradient3957)" id="path3141" d="m 201.8431,103.172 c -24.6957,0 -25.724,-35.079 -25.724,-59.671 0,-28.8472 2.79314,-56.5529 25.724,-56.5529 22.9334,0 26.4223,28.0542 26.4223,56.5243 -0.006,24.6371 -1.38004,59.6977 -26.4242,59.6977 z  m .006,-119.8724 c -26.9756,0 -29.6727,36.0221 -29.6727,60.1848 0,27.3559 5.38023,62.8839 29.6727,62.8839 25.8747,0 30.4066,-35.5782 30.4066,-62.8839 0,-23.778 -2.87455,-60.1861 -30.4053,-60.1861 z "/>
<path style="fill:url(#linearGradient3959)" id="path3143" d="m 201.8558,102.2944 c -23.8651,0 -24.8159,-34.5149 -24.8159,-58.705 0,-28.383 2.65641,-55.5945 24.8159,-55.5945 22.1613,0 25.5065,27.5562 25.5065,55.5659 -0.006,24.2301 -1.30372,58.731 -25.5084,58.731 z  m .006,-118.009 c -26.5597,0 -28.4472,35.7137 -28.4472,59.2869 0,26.9126 4.48225,61.8663 28.4472,61.8663 25.0022,0 29.3452,-35.0033 29.3452,-61.8663 0,-23.1948 -2.74099,-59.2875 -29.3433,-59.2875 z "/>
<path style="opacity:.5;fill:url(#linearGradient3961)" id="path3145" d="m 175.9111,42.9465 c 0,-25.4028 3.40176,-54.9464 25.9409,-54.9464 22.541,0 26.6684,30.8537 26.6684,54.5464 0,-21.4014 -2.90126,-55.4902 -26.6347,-55.4902 -23.6819,-0.003 -25.9701,34.1162 -25.9701,55.8908 z "/>
<path style="opacity:.15;fill:url(#linearGradient3963)" id="path3147" d="m 227.5677,47.4873 c 0,25.4028 -3.73501,54.9337 -25.5389,54.9337 -21.8065,0 -25.2903,-29.2313 -25.2903,-54.5331 0,23.0129 2.29772,55.4775 25.2566,55.4775 22.9201,0.006 25.572,-34.1066 25.572,-55.8756 z "/>
<path style="opacity:.8;fill:#fff" id="path3149" d="m 134.9329,44.352 c 0,37.4893 25.5485,73.1801 67.0749,73.1801 41.8278,0 67.7871,-36.7077 67.7871,-73.1801 0,36.143 -26.5641,72.595 -67.7871,72.595 -40.9139,-0.006 -67.0749,-35.4549 -67.0749,-72.595 z "/>
<path style="opacity:.65;fill:url(#linearGradient3965)" id="path3151" d="m 135.1797,42.6476 c 0,-30.8619 21.1724,-68.8874 66.6742,-68.8874 37.9001,0 67.5455,29.3967 67.5455,68.8874 0,-39.8824 -27.0869,-70.3183 -67.5455,-70.3183 -40.7747,-0.004 -66.6742,29.604 -66.6742,70.3183 z "/>
</g>
</g>
</svg>
