<svg width="96" version="1.0" xmlns="http://www.w3.org/2000/svg" height="96" xmlns:xlink="http://www.w3.org/1999/xlink">
<defs id="defs2410">
<clipPath id="clipPath3613">
<rect width="84" x="6" y="6" rx="6" height="84" ry="6" style="fill:#fff;stroke:none" id="rect3615"/>
</clipPath>
<filter style="color-interpolation-filters:sRGB" id="filter3174">
<feGaussianBlur stdDeviation="1.71" id="feGaussianBlur3176"/>
</filter>
<filter width="1.3839999" x="-0.192" y="-0.192" height="1.3839999" style="color-interpolation-filters:sRGB" id="filter3794">
<feGaussianBlur stdDeviation="5.28" id="feGaussianBlur3796"/>
</filter>
<linearGradient gradientTransform="matrix(0.67083322,0,0,0.7083333,5.0666738,2.6666673)" id="linearGradient2947" xlink:href="#linearGradient8650" y1="16" x1="48.800022" y2="56.874668" x2="59.752357" gradientUnits="userSpaceOnUse"/>
<linearGradient id="linearGradient3703" xlink:href="#linearGradient3687" y1="6.8540382" x1="35.102802" y2="34.885773" x2="35.102802" gradientUnits="userSpaceOnUse"/>
<linearGradient id="linearGradient3725" xlink:href="#linearGradient3687" y1="48" x1="62.339497" y2="-6.5482373" x2="62.339497" gradientUnits="userSpaceOnUse"/>
<linearGradient gradientTransform="matrix(-0.67083322,0,0,-0.7083333,90.936318,93.33333)" id="linearGradient2943" xlink:href="#linearGradient3374" y1="16" x1="48.800022" y2="56.874668" x2="59.752357" gradientUnits="userSpaceOnUse"/>
<linearGradient gradientTransform="translate(0,-97)" id="linearGradient3721" xlink:href="#ButtonShadow-0" y1="6.1317081" x1="32.251034" y2="90.238609" x2="32.251034" gradientUnits="userSpaceOnUse"/>
<linearGradient gradientTransform="matrix(1.0238095,0,0,1.0119048,-1.1428571,-98.071429)" id="linearGradient3725-0" xlink:href="#ButtonShadow-0" y1="6.1317081" x1="32.251034" y2="90.238609" x2="32.251034" gradientUnits="userSpaceOnUse"/>
<linearGradient gradientTransform="translate(0,-100)" id="linearGradient3839" xlink:href="#ButtonColor" y1="90" x1="48" y2="5.9877172" x2="48" gradientUnits="userSpaceOnUse"/>
<linearGradient gradientTransform="matrix(1.0238095,0,0,1.0119048,-1.1428571,-98.071429)" id="linearGradient3772" xlink:href="#ButtonShadow-0" y1="6.1317081" x1="32.251034" y2="90.238609" x2="32.251034" gradientUnits="userSpaceOnUse"/>
<linearGradient gradientTransform="matrix(1.0058652,0,0,0.994169,100,0)" id="ButtonShadow-0" y1="92.539597" x1="45.447727" y2="7.0165396" x2="45.447727" gradientUnits="userSpaceOnUse">
<stop offset="0" id="stop3750-8"/>
<stop offset="1" style="stop-opacity:.588" id="stop3752-5"/>
</linearGradient>
<linearGradient gradientTransform="matrix(1.0238095,0,0,1.0119048,-1.1428571,-98.071429)" id="linearGradient3780" xlink:href="#ButtonShadow-0" y1="6.1317081" x1="32.251034" y2="90.238609" x2="32.251034" gradientUnits="userSpaceOnUse"/>
<linearGradient id="linearGradient8650">
<stop offset="0" style="stop-color:#fff" id="stop8652"/>
<stop offset="1" style="stop-color:#fff;stop-opacity:0" id="stop8654"/>
</linearGradient>
<linearGradient id="linearGradient3737">
<stop offset="0" style="stop-color:#fff" id="stop3739"/>
<stop offset="1" style="stop-color:#fff;stop-opacity:0" id="stop3741"/>
</linearGradient>
<linearGradient gradientTransform="matrix(1.0238095,0,0,1.0119048,-1.1428571,-98.071429)" id="linearGradient3122" xlink:href="#ButtonShadow-0" y1="6.1317081" x1="32.251034" y2="90.238609" x2="32.251034" gradientUnits="userSpaceOnUse"/>
<linearGradient gradientTransform="scale(1.0058652,0.994169)" id="ButtonShadow" y1="92.539597" x1="45.447727" y2="7.0165396" x2="45.447727" gradientUnits="userSpaceOnUse">
<stop offset="0" id="stop3750"/>
<stop offset="1" style="stop-opacity:.588" id="stop3752"/>
</linearGradient>
<linearGradient id="linearGradient3687">
<stop offset="0" style="stop-color:#fff" id="stop3689"/>
<stop offset="1" style="stop-color:#fff;stop-opacity:0" id="stop3691"/>
</linearGradient>
<linearGradient gradientTransform="matrix(1.0172414,0,0,1.0172414,-1.1034483,-1.1034483)" id="linearGradient3677" y1="122" x1="58.650177" y2="5.4252338" x2="58.650177" gradientUnits="userSpaceOnUse">
<stop offset="0" style="stop-color:#2782e9" id="stop3679"/>
<stop offset="1" style="stop-color:#193693" id="stop3681"/>
</linearGradient>
<linearGradient id="linearGradient3188" xlink:href="#linearGradient3737" y1="6" x1="36.357143" y2="63.893143" x2="36.357143" gradientUnits="userSpaceOnUse"/>
<linearGradient id="linearGradient3374">
<stop offset="0" id="stop3376"/>
<stop offset="1" style="stop-opacity:0" id="stop3378"/>
</linearGradient>
<linearGradient id="linearGradient3617" xlink:href="#ButtonColor" y1="90" x1="48" y2="5.9877172" x2="48" gradientUnits="userSpaceOnUse"/>
<linearGradient gradientTransform="matrix(1.0172414,0,0,1.0172414,-1.1034483,-1.1034483)" id="ButtonColor" y1="122" x1="58.650177" y2="5.4252338" x2="58.650177" gradientUnits="userSpaceOnUse">
<stop offset="0" style="stop-color:#183288" id="stop3189"/>
<stop offset="1" style="stop-color:#5072e1" id="stop3191"/>
</linearGradient>
<linearGradient id="linearGradient3613" xlink:href="#linearGradient3737" y1="20.220806" x1="48" y2="138.66119" x2="48" gradientUnits="userSpaceOnUse"/>
<radialGradient fx="48" fy="90.171875" cx="48" cy="90.171875" gradientTransform="matrix(1.1573129,0,0,0.99590774,-7.5510206,0.19713193)" r="42" id="radialGradient3619" xlink:href="#linearGradient3737" gradientUnits="userSpaceOnUse"/>
<radialGradient fx="48" fy="66.450142" cx="48" cy="66.450142" gradientTransform="matrix(1.3301229,-7.4935036e-8,9.5652174e-8,1.6978593,-15.845903,-37.548861)" r="23" id="radialGradient3683" xlink:href="#linearGradient3677" gradientUnits="userSpaceOnUse"/>
</defs>
<g style="display:none" id="layer2">
<rect width="86" x="5" y="7" rx="6" height="85" ry="6" style="opacity:.9;fill:url(#ButtonShadow);filter:url(#filter3174);stroke:none" id="rect3745"/>
</g>
<g style="stroke:none" id="layer4">
<path style="opacity:.08;fill:url(#linearGradient3122)" id="path3786" d="m 12,-95.0312 c -5.51109,0 -10.0312,4.52016 -10.0312,10.0312 v 71 c 0,5.51109 4.52016,10.0312 10.0312,10.0312 h 72 c 5.51109,0 10.0312,-4.52016 10.0312,-10.0312 v -71 c 0,-5.51109 -4.52016,-10.0312 -10.0312,-10.0312 h -72 z " transform="scale(1,-1)"/>
<path style="opacity:.1;fill:url(#linearGradient3780)" id="path3778" d="m 12,-94.0312 c -4.97163,0 -9.03125,4.05962 -9.03125,9.03125 v 71 c 0,4.97163 4.05962,9.03125 9.03125,9.03125 h 72 c 4.97163,0 9.03125,-4.05962 9.03125,-9.03125 v -71 c 0,-4.97163 -4.05962,-9.03125 -9.03125,-9.03125 h -72 z " transform="scale(1,-1)"/>
<path style="opacity:.2;fill:url(#linearGradient3772)" id="path3770" d="m 12,-93 c -4.40913,0 -8,3.59087 -8,8 v 71 c 0,4.40913 3.59087,8 8,8 h 72 c 4.40913,0 8,-3.59087 8,-8 v -71 c 0,-4.40913 -3.59087,-8 -8,-8 h -72 z " transform="scale(1,-1)"/>
<rect width="86" x="5" y="-92" rx="7" height="85" ry="7" style="opacity:.3;fill:url(#linearGradient3725-0)" id="rect3723" transform="scale(1,-1)"/>
<rect width="84" x="6" y="-91" rx="6" height="84" ry="6" style="opacity:.45;fill:url(#linearGradient3721)" id="rect3716" transform="scale(1,-1)"/>
</g>
<g style="stroke:none" id="layer1">
<rect width="84" x="6" y="6" rx="6" height="84" ry="6" style="fill:url(#linearGradient3617)" id="rect2419"/>
<path style="opacity:.3;fill:url(#linearGradient3188)" id="rect3728" d="m 12,6 c -3.324,0 -6,2.676 -6,6 v 2 68 2 c 0,0.334721 0.04135,0.6507 0.09375,0.96875 0.0487,0.295596 0.09704,0.596915 0.1875,0.875 0.00988,0.03038 0.020892,0.0636 0.03125,0.09375 0.098865,0.287771 0.23488,0.547452 0.375,0.8125 0.144592,0.273507 0.315616,0.535615 0.5,0.78125 0.184384,0.245635 0.373776,0.473472 0.59375,0.6875 0.439947,0.428056 0.94291,0.814526 1.5,1.09375 0.278545,0.139612 0.573473,0.246947 0.875,0.34375 -0.256202,-0.100222 -0.486711,-0.236272 -0.71875,-0.375 -0.00741,-0.0044 -0.023866,0.0045 -0.03125,0 -0.031933,-0.0193 -0.062293,-0.04251 -0.09375,-0.0625 -0.120395,-0.0767 -0.231023,-0.163513 -0.34375,-0.25 -0.106173,-0.0808 -0.213281,-0.161112 -0.3125,-0.25 -0.17793,-0.161433 -0.34746,-0.345388 -0.5,-0.53125 -0.107579,-0.130255 -0.218394,-0.265285 -0.3125,-0.40625 -0.025089,-0.03838 -0.038446,-0.08587 -0.0625,-0.125 -0.064763,-0.103032 -0.130228,-0.204517 -0.1875,-0.3125 -0.101008,-0.194706 -0.205675,-0.415701 -0.28125,-0.625 -0.00796,-0.02181 -0.023589,-0.04055 -0.03125,-0.0625 -0.0318251,-0.09195 -0.0358045,-0.186831 -0.0625,-0.28125 -0.0303323,-0.106618 -0.0703894,-0.203031 -0.09375,-0.3125 -0.0728786,-0.341512 -0.125,-0.698205 -0.125,-1.0625 v -2 -68 -2 c 0,-2.78185 2.21815,-5 5,-5 h 2 68 2 c 2.78185,0 5,2.21815 5,5 v 2 68 2 c 0,0.364295 -0.05212,0.720988 -0.125,1.0625 -0.04415,0.206893 -0.08838,0.397658 -0.15625,0.59375 -0.0077,0.02195 -0.0233,0.04069 -0.03125,0.0625 -0.06274,0.173739 -0.138383,0.367449 -0.21875,0.53125 -0.04158,0.0828 -0.07904,0.169954 -0.125,0.25 -0.0546,0.09721 -0.126774,0.18835 -0.1875,0.28125 -0.09411,0.140965 -0.204921,0.275995 -0.3125,0.40625 -0.143174,0.17445 -0.303141,0.346998 -0.46875,0.5 -0.01117,0.0102 -0.01998,0.02115 -0.03125,0.03125 -0.138386,0.125556 -0.285091,0.234436 -0.4375,0.34375 -0.102571,0.07315 -0.204318,0.153364 -0.3125,0.21875 -0.0074,0.0045 -0.02384,-0.0044 -0.03125,0 -0.232039,0.138728 -0.462548,0.274778 -0.71875,0.375 0.301527,-0.0968 0.596455,-0.204138 0.875,-0.34375 0.55709,-0.279224 1.06005,-0.665694 1.5,-1.09375 0.219973,-0.214028 0.409366,-0.441865 0.59375,-0.6875 0.184384,-0.245635 0.355408,-0.507743 0.5,-0.78125 0.14012,-0.265048 0.276135,-0.524729 0.375,-0.8125 0.01041,-0.03078 0.02133,-0.06274 0.03125,-0.09375 0.09046,-0.278085 0.1388,-0.579404 0.1875,-0.875 0.0524,-0.31805 0.09375,-0.634029 0.09375,-0.96875 v -2 -68 -2 c 0,-3.324 -2.676,-6 -6,-6 h -72 z "/>
<path style="opacity:.2;fill:url(#radialGradient3619)" id="path3615" d="M 12,90 C 8.676,90 6,87.324 6,84 L 6,82 6,14 6,12 c 0,-0.334721 0.04135,-0.6507 0.09375,-0.96875 0.0487,-0.295596 0.09704,-0.596915 0.1875,-0.875 C 6.29113,10.12587 6.302142,10.09265 6.3125,10.0625 6.411365,9.774729 6.5473802,9.515048 6.6875,9.25 6.8320918,8.976493 7.0031161,8.714385 7.1875,8.46875 7.3718839,8.223115 7.5612765,7.995278 7.78125,7.78125 8.221197,7.353194 8.72416,6.966724 9.28125,6.6875 9.559795,6.547888 9.8547231,6.440553 10.15625,6.34375 9.9000482,6.443972 9.6695391,6.580022 9.4375,6.71875 c -0.00741,0.0044 -0.023866,-0.0045 -0.03125,0 -0.031933,0.0193 -0.062293,0.04251 -0.09375,0.0625 -0.120395,0.0767 -0.2310226,0.163513 -0.34375,0.25 -0.1061728,0.0808 -0.2132809,0.161112 -0.3125,0.25 C 8.4783201,7.442683 8.3087904,7.626638 8.15625,7.8125 8.0486711,7.942755 7.9378561,8.077785 7.84375,8.21875 7.818661,8.25713 7.805304,8.30462 7.78125,8.34375 7.716487,8.446782 7.6510225,8.548267 7.59375,8.65625 7.4927417,8.850956 7.3880752,9.071951 7.3125,9.28125 7.30454,9.30306 7.288911,9.3218 7.28125,9.34375 7.2494249,9.4357 7.2454455,9.530581 7.21875,9.625 7.1884177,9.731618 7.1483606,9.828031 7.125,9.9375 7.0521214,10.279012 7,10.635705 7,11 l 0,2 0,68 0,2 c 0,2.781848 2.2181517,5 5,5 l 2,0 68,0 2,0 c 2.781848,0 5,-2.218152 5,-5 l 0,-2 0,-68 0,-2 C 89,10.635705 88.94788,10.279012 88.875,9.9375 88.83085,9.730607 88.78662,9.539842 88.71875,9.34375 88.71105,9.3218 88.69545,9.30306 88.6875,9.28125 88.62476,9.107511 88.549117,8.913801 88.46875,8.75 88.42717,8.6672 88.38971,8.580046 88.34375,8.5 88.28915,8.40279 88.216976,8.31165 88.15625,8.21875 88.06214,8.077785 87.951329,7.942755 87.84375,7.8125 87.700576,7.63805 87.540609,7.465502 87.375,7.3125 87.36383,7.3023 87.35502,7.29135 87.34375,7.28125 87.205364,7.155694 87.058659,7.046814 86.90625,6.9375 86.803679,6.86435 86.701932,6.784136 86.59375,6.71875 c -0.0074,-0.0045 -0.02384,0.0044 -0.03125,0 -0.232039,-0.138728 -0.462548,-0.274778 -0.71875,-0.375 0.301527,0.0968 0.596455,0.204138 0.875,0.34375 0.55709,0.279224 1.060053,0.665694 1.5,1.09375 0.219973,0.214028 0.409366,0.441865 0.59375,0.6875 0.184384,0.245635 0.355408,0.507743 0.5,0.78125 0.14012,0.265048 0.276135,0.524729 0.375,0.8125 0.01041,0.03078 0.02133,0.06274 0.03125,0.09375 0.09046,0.278085 0.1388,0.579404 0.1875,0.875 C 89.95865,11.3493 90,11.665279 90,12 l 0,2 0,68 0,2 c 0,3.324 -2.676,6 -6,6 l -72,0 z"/>
</g>
<g id="layer5">
<rect width="66" x="15" y="15" rx="12" height="66" ry="12" style="opacity:.1;fill:url(#linearGradient3613);filter:url(#filter3794);stroke:#fff;stroke-linecap:round;stroke-width:.5;clip-path:url(#clipPath3613)" id="rect3171"/>
</g>
<g id="layer3">
<g style="stroke:none">
<path style="opacity:.1" id="path3732" d="m 48,12.9375 c -6.6157,0 -13.2,1.29551 -17.875,6.75 -4.66895,5.44746 -7.1875,14.4975 -7.1875,29.3125 0,14.815 2.51855,23.865 7.1875,29.3125 4.67498,5.45449 11.2593,6.75 17.875,6.75 6.6157,0 13.2,-1.29551 17.875,-6.75 4.66895,-5.44746 7.1875,-14.4975 7.1875,-29.3125 0,-14.815 -2.51855,-23.865 -7.1875,-29.3125 -4.67498,-5.45449 -11.2593,-6.75 -17.875,-6.75 z "/>
<path style="opacity:.2" id="path3728" d="m 48,14.0625 c -6.46952,0 -12.6059,1.24824 -17,6.375 -4.39408,5.12676 -6.9375,13.8788 -6.9375,28.5625 0,14.6837 2.54342,23.4357 6.9375,28.5625 4.39408,5.12676 10.5305,6.375 17,6.375 6.46952,0 12.6059,-1.24824 17,-6.375 4.39409,-5.12676 6.9375,-13.8788 6.9375,-28.5625 0,-14.6837 -2.54341,-23.4357 -6.9375,-28.5625 -4.39408,-5.12676 -10.5305,-6.375 -17,-6.375 z "/>
<path style="opacity:.4" id="path2952" d="m 71,49 c 0,29.1429 -10.304,34 -23,34 -12.696,0 -23,-4.85714 -23,-34 0,-29.1429 10.304,-34 23,-34 12.696,0 23,4.85714 23,34 z "/>
<path style="fill:url(#radialGradient3683)" id="path2902" d="m 71,48 c 0,29.1429 -10.304,34 -23,34 -12.696,0 -23,-4.85714 -23,-34 0,-29.1429 10.304,-34 23,-34 12.696,0 23,4.85714 23,34 z "/>
<path style="opacity:.871;fill:#103876" id="path3705" d="m 48,14 c -12.696,0 -23,4.85714 -23,34 0,29.1429 10.304,34 23,34 12.696,0 23,-4.85714 23,-34 0,-29.1429 -10.304,-34 -23,-34 z  m 0,1.4688 c 6.15904,0 11.3213,1.1246 15.125,5.5625 3.80367,4.4379 6.40625,12.572 6.40625,26.9688 0,14.3968 -2.60258,22.5308 -6.40625,26.9688 -3.80367,4.4379 -8.96596,5.5625 -15.125,5.5625 -6.15904,0 -11.3213,-1.1246 -15.125,-5.5625 -3.80367,-4.4379 -6.40625,-12.572 -6.40625,-26.9688 0,-14.3968 2.60258,-22.5308 6.40625,-26.9688 3.80367,-4.4379 8.96596,-5.5625 15.125,-5.5625 z "/>
<path style="opacity:.2;fill:url(#linearGradient2943)" id="path2908" d="m 48.003,82 c 12.696,0 22.997,-4.85714 22.997,-34 0,-11.8393 -1.69999,-19.6659 -4.57005,-24.7917 2.04726,5.05122 3.22838,12.1109 3.22838,21.9583 0,29.1429 -10.301,34 -22.997,34 -7.53825,0 -14.2323,-1.71688 -18.427,-9.20834 4.0115,9.89758 11.3626,12.0417 19.7686,12.0417 z "/>
<rect width="84" x="6" y="-94" rx="6" height="84" ry="6" style="fill:url(#linearGradient3839)" id="rect3831"/>
</g>
<path style="fill:url(#linearGradient3725);fill-rule:evenodd" id="path3740" d="m 46.1395,21 0,21.6 -9.121,-9.121 -3.2672,3.3126 11.163,11.163 -11.2538,11.2538 3.3126,3.2672 9.1664,-9.1664 0,21.6908 l 16.2,-16.2 -10.9815,-10.9815 10.9361,-10.8908 -16.1546,-15.9277 z  m 4.2202,10.3462 5.5815,5.6723 -5.5815,5.5815 0,-11.2538 z  m 0,21.5546 5.5815,5.7176 -5.5815,5.5815 0,-11.2992 z "/>
<g style="stroke:none">
<path style="opacity:.9;fill:url(#linearGradient3703)" id="path3695" d="m 52.7805,24.5317 a 17.6777,17.6777 0 1,1 -35.3553,0 17.6777,17.6777 0 1,1 35.3553,0 z " transform="matrix(1.0571429,0,0,1,11.126109,9.5097917)"/>
<path style="opacity:.25;fill:#fff" id="path3714" d="m 27.5,47 c -0.003,0.336575 0,0.656046 0,1 0,14.2762 2.6008,22.1642 6.15625,26.3125 3.55545,4.14829 8.31525,5.1875 14.3438,5.1875 6.0285,0 10.7883,-1.03921 14.3438,-5.1875 3.55545,-4.14829 6.15625,-12.0363 6.15625,-26.3125 0,-0.343954 0.003,-0.663425 0,-1 -0.12137,13.6333 -2.68646,21.2642 -6.15625,25.3125 -3.55545,4.14829 -8.31525,5.1875 -14.3438,5.1875 -6.0285,0 -10.7883,-1.03921 -14.3438,-5.1875 -3.46979,-4.04834 -6.03488,-11.6792 -6.15625,-25.3125 z "/>
<path style="opacity:0;fill:url(#linearGradient2947)" id="path2904" d="m 48,14 c -12.696,0 -22.997,4.85714 -22.997,34 0,11.8393 1.69999,19.6659 4.57005,24.7917 -2.04727,-5.05123 -3.22838,-12.1109 -3.22838,-21.9583 0,-29.1429 10.301,-34 22.997,-34 7.53825,0 14.2322,1.71688 18.427,9.20833 -4.0115,-9.89758 -11.3626,-12.0417 -19.7686,-12.0417 z "/>
</g>
</g>
</svg>
