<svg width="96" version="1.0" xmlns="http://www.w3.org/2000/svg" height="96" xmlns:xlink="http://www.w3.org/1999/xlink">
<defs id="defs2410">
<clipPath id="clipPath4133">
<path style="fill:#65c808;fill-rule:evenodd;color:#000" id="path4135" d="m 538.47,738.73 c -22.064,0 -39.951,-12.861 -39.951,-12.861 0,0 17.887,-12.861 39.951,-12.861 22.064,0 39.951,12.861 39.951,12.861 0,0 -17.887,12.861 -39.951,12.861 z"/>
</clipPath>
<clipPath id="clipPath4083">
<path style="fill:#729fcf;fill-rule:evenodd;color:#000" id="path4085" d="m 515.87,745.01 c 15.602,15.625 19.169,37.385 19.169,37.385 0,0 -21.729,-3.5724 -37.33,-19.197 -15.602,-15.625 -19.169,-37.385 -19.169,-37.385 0,0 21.729,3.5724 37.33,19.197 z"/>
</clipPath>
<clipPath id="clipPath4071">
<path style="fill:#afea2c;fill-rule:evenodd;color:#000" id="path4073" d="m 515.87,706.72 c -15.602,15.625 -37.33,19.197 -37.33,19.197 0,0 3.5672,-21.76 19.169,-37.385 15.6018,-15.625 37.33,-19.197 37.33,-19.197 0,0 -3.5672,21.76 -19.169,37.385 z"/>
</clipPath>
<clipPath id="clipPath4197">
<path style="fill:#75507b;fill-rule:evenodd;color:#000" id="path4199" d="m 299.47,763.2 c -15.602,15.625 -37.33,19.197 -37.33,19.197 0,0 3.5672,-21.76 19.169,-37.385 15.6018,-15.625 37.33,-19.197 37.33,-19.197 0,0 -3.5672,21.76 -19.169,37.385 z"/>
</clipPath>
<clipPath id="clipPath3613">
<rect width="84" x="6" y="6" rx="6" height="84" ry="6" style="fill:#fff;stroke:none" id="rect3615"/>
</clipPath>
<clipPath id="clipPath4181">
<path style="fill:#ef2929;fill-rule:evenodd;color:#000" id="path4183" d="m 348.71,698.73 c -22.064,0 -39.951,-12.861 -39.951,-12.861 0,0 17.887,-12.861 39.951,-12.861 22.064,0 39.951,12.861 39.951,12.861 0,0 -17.887,12.861 -39.951,12.861 z"/>
</clipPath>
<clipPath id="clipPath3983">
<path style="fill:#eeeeec;fill-rule:evenodd;color:#000" id="path3985" d="m 184.12,701.5 a 2.2363,2.2363 0 0 0 -1.4688,0.90625 c 0,0 -3.328,4.7671 -4.0312,11.156 -5.0181,-4.0229 -10.75,-5.0625 -10.75,-5.0625 a 2.2363,2.2363 0 0 0 -2.5938,2.5625 c 0,0 1.034,5.7649 5.0625,10.781 -6.3978,0.70283 -11.188,4.0312 -11.188,4.0312 a 2.2363,2.2363 0 0 0 0,3.625 c 0,0 4.7948,3.3031 11.188,4 -4.0285,5.0164 -5.0625,10.781 -5.0625,10.781 a 2.2363,2.2363 0 0 0 2.5938,2.5625 c 0,0 5.7319,-1.0396 10.75,-5.0625 0.70267,6.3934 4.0312,11.188 4.0312,11.188 a 2.2363,2.2363 0 0 0 3.625,0 c 0,0 3.3111,-4.8145 4,-11.219 5.0262,4.0467 10.781,5.0938 10.781,5.0938 a 2.2363,2.2363 0 0 0 2.5938,-2.5938 c 0,0 -1.0624,-5.7373 -5.0938,-10.75 6.397,-0.69632 11.219,-4 11.219,-4 a 2.2363,2.2363 0 0 0 0,-3.625 c 0,0 -4.8167,-3.329 -11.219,-4.0312 4.0313,-5.0127 5.0938,-10.75 5.0938,-10.75 a 2.2363,2.2363 0 0 0 -2.59,-2.6 c 0,0 -5.755,1.047 -10.781,5.0938 -0.69265,-6.3936 -4,-11.188 -4,-11.188 a 2.2363,2.2363 0 0 0 -2.16,-0.91 z"/>
</clipPath>
<clipPath id="clipPath4157">
<path style="fill:#f57900;fill-rule:evenodd;color:#000" id="path4159" d="m 269.47,688.53 c 15.602,15.625 19.169,37.385 19.169,37.385 0,0 -21.729,-3.5724 -37.33,-19.197 -15.602,-15.625 -19.169,-37.385 -19.169,-37.385 0,0 21.729,3.5724 37.33,19.197 z"/>
</clipPath>
<clipPath id="clipPath4169">
<path style="fill:#edd400;fill-rule:evenodd;color:#000" id="path4171" d="m 471.43,685.93 c 0,22.097 -12.842,40.01 -12.842,40.01 0,0 -12.842,-17.913 -12.842,-40.01 0,-22.097 12.842,-40.01 12.842,-40.01 0,0 12.842,17.913 12.842,40.01 z"/>
</clipPath>
<clipPath id="clipPath4145">
<path style="fill:#3465a4;fill-rule:evenodd;color:#000" id="path4147" d="m 401.43,865.8 c 0,22.097 -12.842,40.01 -12.842,40.01 0,0 -12.842,-17.913 -12.842,-40.01 0,-22.097 12.842,-40.01 12.842,-40.01 0,0 12.842,17.913 12.842,40.01 z"/>
</clipPath>
<filter width="1.4938999" x="-0.24693" y="-0.079258002" height="1.1585" style="color-interpolation-filters:sRGB" id="filter4149">
<feGaussianBlur stdDeviation="2.642588" id="feGaussianBlur4151"/>
</filter>
<filter width="1.1586" x="-0.079314999" y="-0.24639" height="1.4928" style="color-interpolation-filters:sRGB" id="filter4189">
<feGaussianBlur stdDeviation="2.6406013" id="feGaussianBlur4191"/>
</filter>
<filter width="1.1586" x="-0.079314999" y="-0.24639" height="1.4928" style="color-interpolation-filters:sRGB" id="filter4137">
<feGaussianBlur stdDeviation="2.6406015" id="feGaussianBlur4139"/>
</filter>
<filter width="1.2402" x="-0.12009" y="-0.11991" height="1.2398" style="color-interpolation-filters:sRGB" id="filter4161">
<feGaussianBlur stdDeviation="2.8270453" id="feGaussianBlur4163"/>
</filter>
<filter width="1.2402" x="-0.12009" y="-0.11991" height="1.2398" style="color-interpolation-filters:sRGB" id="filter4087">
<feGaussianBlur stdDeviation="2.8270455" id="feGaussianBlur4089"/>
</filter>
<filter width="1.2402" x="-0.12009" y="-0.11991" height="1.2398" style="color-interpolation-filters:sRGB" id="filter4201">
<feGaussianBlur stdDeviation="2.8270453" id="feGaussianBlur4203"/>
</filter>
<filter style="color-interpolation-filters:sRGB" id="filter3174">
<feGaussianBlur stdDeviation="1.71" id="feGaussianBlur3176"/>
</filter>
<filter width="1.2402" x="-0.12009" y="-0.11991" height="1.2398" style="color-interpolation-filters:sRGB" id="filter4075">
<feGaussianBlur stdDeviation="2.8270455" id="feGaussianBlur4077"/>
</filter>
<filter width="1.4938999" x="-0.24693" y="-0.079258002" height="1.1585" style="color-interpolation-filters:sRGB" id="filter4173">
<feGaussianBlur stdDeviation="2.642588" id="feGaussianBlur4175"/>
</filter>
<filter width="1.3839999" x="-0.192" y="-0.192" height="1.3839999" style="color-interpolation-filters:sRGB" id="filter3794">
<feGaussianBlur stdDeviation="5.28" id="feGaussianBlur3796"/>
</filter>
<linearGradient id="linearGradient3977">
<stop offset="0" style="stop-color:#f9f9f9" id="stop3979"/>
<stop offset="1" style="stop-color:#f9f9f9;stop-opacity:0" id="stop3981"/>
</linearGradient>
<linearGradient id="linearGradient3613" xlink:href="#linearGradient3737" y1="20.220806" x1="48" y2="138.66119" x2="48" gradientUnits="userSpaceOnUse"/>
<linearGradient id="linearGradient3617" xlink:href="#linearGradient3700" y1="90" x1="48" y2="5.9877172" x2="48" gradientUnits="userSpaceOnUse"/>
<linearGradient id="linearGradient3188" xlink:href="#linearGradient3737" y1="6" x1="36.357143" y2="63.893143" x2="36.357143" gradientUnits="userSpaceOnUse"/>
<linearGradient id="linearGradient3737">
<stop offset="0" style="stop-color:#fff" id="stop3739"/>
<stop offset="1" style="stop-color:#fff;stop-opacity:0" id="stop3741"/>
</linearGradient>
<linearGradient gradientTransform="scale(1.0058652,0.994169)" id="ButtonShadow" y1="92.539597" x1="45.447727" y2="7.0165396" x2="45.447727" gradientUnits="userSpaceOnUse">
<stop offset="0" id="stop3750"/>
<stop offset="1" style="stop-opacity:.588" id="stop3752"/>
</linearGradient>
<linearGradient id="linearGradient3700">
<stop offset="0" style="stop-color:#b4b4b4" id="stop3702"/>
<stop offset="1" style="stop-color:#e6e6e6" id="stop3704"/>
</linearGradient>
<linearGradient id="linearGradient3983" xlink:href="#linearGradient3977" y1="711.15393" x1="184.46346" y2="804.79529" x2="184.46346" gradientUnits="userSpaceOnUse"/>
<linearGradient gradientTransform="matrix(1.0238095,0,0,1.0119048,-1.1428571,-98.071429)" id="linearGradient3026" xlink:href="#ButtonShadow-0" y1="6.1317081" x1="32.251034" y2="90.238609" x2="32.251034" gradientUnits="userSpaceOnUse"/>
<linearGradient gradientTransform="translate(0,-97)" id="linearGradient3721" xlink:href="#ButtonShadow-0" y1="6.1317081" x1="32.251034" y2="90.238609" x2="32.251034" gradientUnits="userSpaceOnUse"/>
<linearGradient gradientTransform="matrix(1.0238095,0,0,1.0119048,-1.1428571,-98.071429)" id="linearGradient3725" xlink:href="#ButtonShadow-0" y1="6.1317081" x1="32.251034" y2="90.238609" x2="32.251034" gradientUnits="userSpaceOnUse"/>
<linearGradient gradientTransform="matrix(1.0238095,0,0,1.0119048,-1.1428571,-98.071429)" id="linearGradient3780" xlink:href="#ButtonShadow-0" y1="6.1317081" x1="32.251034" y2="90.238609" x2="32.251034" gradientUnits="userSpaceOnUse"/>
<linearGradient gradientTransform="matrix(1.0058652,0,0,0.994169,100,0)" id="ButtonShadow-0" y1="92.539597" x1="45.447727" y2="7.0165396" x2="45.447727" gradientUnits="userSpaceOnUse">
<stop offset="0" id="stop3750-8"/>
<stop offset="1" style="stop-opacity:.588" id="stop3752-5"/>
</linearGradient>
<linearGradient gradientTransform="matrix(1.0238095,0,0,1.0119048,-1.1428571,-98.071429)" id="linearGradient3772" xlink:href="#ButtonShadow-0" y1="6.1317081" x1="32.251034" y2="90.238609" x2="32.251034" gradientUnits="userSpaceOnUse"/>
<radialGradient fx="48" fy="90.171875" cx="48" cy="90.171875" gradientTransform="matrix(1.1573129,0,0,0.99590774,-7.5510206,0.19713193)" r="42" id="radialGradient3619" xlink:href="#linearGradient3737" gradientUnits="userSpaceOnUse"/>
</defs>
<g style="display:none" id="layer2">
<rect width="86" x="5" y="7" rx="6" height="85" ry="6" style="opacity:.9;fill:url(#ButtonShadow);filter:url(#filter3174);stroke:none" id="rect3745"/>
</g>
<g style="stroke:none" id="layer3">
<path style="opacity:.08;fill:url(#linearGradient3026)" id="path3786" d="m 12,-95.0312 c -5.51109,0 -10.0312,4.52016 -10.0312,10.0312 v 71 c 0,5.51109 4.52016,10.0312 10.0312,10.0312 h 72 c 5.51109,0 10.0312,-4.52016 10.0312,-10.0312 v -71 c 0,-5.51109 -4.52016,-10.0312 -10.0312,-10.0312 h -72 z " transform="scale(1,-1)"/>
<path style="opacity:.1;fill:url(#linearGradient3780)" id="path3778" d="m 12,-94.0312 c -4.97163,0 -9.03125,4.05962 -9.03125,9.03125 v 71 c 0,4.97163 4.05962,9.03125 9.03125,9.03125 h 72 c 4.97163,0 9.03125,-4.05962 9.03125,-9.03125 v -71 c 0,-4.97163 -4.05962,-9.03125 -9.03125,-9.03125 h -72 z " transform="scale(1,-1)"/>
<path style="opacity:.2;fill:url(#linearGradient3772)" id="path3770" d="m 12,-93 c -4.40913,0 -8,3.59087 -8,8 v 71 c 0,4.40913 3.59087,8 8,8 h 72 c 4.40913,0 8,-3.59087 8,-8 v -71 c 0,-4.40913 -3.59087,-8 -8,-8 h -72 z " transform="scale(1,-1)"/>
<rect width="86" x="5" y="-92" rx="7" height="85" ry="7" style="opacity:.3;fill:url(#linearGradient3725)" id="rect3723" transform="scale(1,-1)"/>
<rect width="84" x="6" y="-91" rx="6" height="84" ry="6" style="opacity:.45;fill:url(#linearGradient3721)" id="rect3716" transform="scale(1,-1)"/>
</g>
<g style="stroke:none" id="layer1">
<rect width="84" x="6" y="6" rx="6" height="84" ry="6" style="fill:url(#linearGradient3617)" id="rect2419"/>
<path style="opacity:.4;fill:url(#linearGradient3188)" id="rect3728" d="m 12,6 c -3.324,0 -6,2.676 -6,6 v 2 68 2 c 0,0.334721 0.04135,0.6507 0.09375,0.96875 0.0487,0.295596 0.09704,0.596915 0.1875,0.875 0.00988,0.03038 0.020892,0.0636 0.03125,0.09375 0.098865,0.287771 0.23488,0.547452 0.375,0.8125 0.144592,0.273507 0.315616,0.535615 0.5,0.78125 0.184384,0.245635 0.373776,0.473472 0.59375,0.6875 0.439947,0.428056 0.94291,0.814526 1.5,1.09375 0.278545,0.139612 0.573473,0.246947 0.875,0.34375 -0.256202,-0.100222 -0.486711,-0.236272 -0.71875,-0.375 -0.00741,-0.0044 -0.023866,0.0045 -0.03125,0 -0.031933,-0.0193 -0.062293,-0.04251 -0.09375,-0.0625 -0.120395,-0.0767 -0.231023,-0.163513 -0.34375,-0.25 -0.106173,-0.0808 -0.213281,-0.161112 -0.3125,-0.25 -0.17793,-0.161433 -0.34746,-0.345388 -0.5,-0.53125 -0.107579,-0.130255 -0.218394,-0.265285 -0.3125,-0.40625 -0.025089,-0.03838 -0.038446,-0.08587 -0.0625,-0.125 -0.064763,-0.103032 -0.130228,-0.204517 -0.1875,-0.3125 -0.101008,-0.194706 -0.205675,-0.415701 -0.28125,-0.625 -0.00796,-0.02181 -0.023589,-0.04055 -0.03125,-0.0625 -0.0318251,-0.09195 -0.0358045,-0.186831 -0.0625,-0.28125 -0.0303323,-0.106618 -0.0703894,-0.203031 -0.09375,-0.3125 -0.0728786,-0.341512 -0.125,-0.698205 -0.125,-1.0625 v -2 -68 -2 c 0,-2.78185 2.21815,-5 5,-5 h 2 68 2 c 2.78185,0 5,2.21815 5,5 v 2 68 2 c 0,0.364295 -0.05212,0.720988 -0.125,1.0625 -0.04415,0.206893 -0.08838,0.397658 -0.15625,0.59375 -0.0077,0.02195 -0.0233,0.04069 -0.03125,0.0625 -0.06274,0.173739 -0.138383,0.367449 -0.21875,0.53125 -0.04158,0.0828 -0.07904,0.169954 -0.125,0.25 -0.0546,0.09721 -0.126774,0.18835 -0.1875,0.28125 -0.09411,0.140965 -0.204921,0.275995 -0.3125,0.40625 -0.143174,0.17445 -0.303141,0.346998 -0.46875,0.5 -0.01117,0.0102 -0.01998,0.02115 -0.03125,0.03125 -0.138386,0.125556 -0.285091,0.234436 -0.4375,0.34375 -0.102571,0.07315 -0.204318,0.153364 -0.3125,0.21875 -0.0074,0.0045 -0.02384,-0.0044 -0.03125,0 -0.232039,0.138728 -0.462548,0.274778 -0.71875,0.375 0.301527,-0.0968 0.596455,-0.204138 0.875,-0.34375 0.55709,-0.279224 1.06005,-0.665694 1.5,-1.09375 0.219973,-0.214028 0.409366,-0.441865 0.59375,-0.6875 0.184384,-0.245635 0.355408,-0.507743 0.5,-0.78125 0.14012,-0.265048 0.276135,-0.524729 0.375,-0.8125 0.01041,-0.03078 0.02133,-0.06274 0.03125,-0.09375 0.09046,-0.278085 0.1388,-0.579404 0.1875,-0.875 0.0524,-0.31805 0.09375,-0.634029 0.09375,-0.96875 v -2 -68 -2 c 0,-3.324 -2.676,-6 -6,-6 h -72 z "/>
<path style="opacity:.2;fill:url(#radialGradient3619)" id="path3615" d="M 12,90 C 8.676,90 6,87.324 6,84 L 6,82 6,14 6,12 c 0,-0.334721 0.04135,-0.6507 0.09375,-0.96875 0.0487,-0.295596 0.09704,-0.596915 0.1875,-0.875 C 6.29113,10.12587 6.302142,10.09265 6.3125,10.0625 6.411365,9.774729 6.5473802,9.515048 6.6875,9.25 6.8320918,8.976493 7.0031161,8.714385 7.1875,8.46875 7.3718839,8.223115 7.5612765,7.995278 7.78125,7.78125 8.221197,7.353194 8.72416,6.966724 9.28125,6.6875 9.559795,6.547888 9.8547231,6.440553 10.15625,6.34375 9.9000482,6.443972 9.6695391,6.580022 9.4375,6.71875 c -0.00741,0.0044 -0.023866,-0.0045 -0.03125,0 -0.031933,0.0193 -0.062293,0.04251 -0.09375,0.0625 -0.120395,0.0767 -0.2310226,0.163513 -0.34375,0.25 -0.1061728,0.0808 -0.2132809,0.161112 -0.3125,0.25 C 8.4783201,7.442683 8.3087904,7.626638 8.15625,7.8125 8.0486711,7.942755 7.9378561,8.077785 7.84375,8.21875 7.818661,8.25713 7.805304,8.30462 7.78125,8.34375 7.716487,8.446782 7.6510225,8.548267 7.59375,8.65625 7.4927417,8.850956 7.3880752,9.071951 7.3125,9.28125 7.30454,9.30306 7.288911,9.3218 7.28125,9.34375 7.2494249,9.4357 7.2454455,9.530581 7.21875,9.625 7.1884177,9.731618 7.1483606,9.828031 7.125,9.9375 7.0521214,10.279012 7,10.635705 7,11 l 0,2 0,68 0,2 c 0,2.781848 2.2181517,5 5,5 l 2,0 68,0 2,0 c 2.781848,0 5,-2.218152 5,-5 l 0,-2 0,-68 0,-2 C 89,10.635705 88.94788,10.279012 88.875,9.9375 88.83085,9.730607 88.78662,9.539842 88.71875,9.34375 88.71105,9.3218 88.69545,9.30306 88.6875,9.28125 88.62476,9.107511 88.549117,8.913801 88.46875,8.75 88.42717,8.6672 88.38971,8.580046 88.34375,8.5 88.28915,8.40279 88.216976,8.31165 88.15625,8.21875 88.06214,8.077785 87.951329,7.942755 87.84375,7.8125 87.700576,7.63805 87.540609,7.465502 87.375,7.3125 87.36383,7.3023 87.35502,7.29135 87.34375,7.28125 87.205364,7.155694 87.058659,7.046814 86.90625,6.9375 86.803679,6.86435 86.701932,6.784136 86.59375,6.71875 c -0.0074,-0.0045 -0.02384,0.0044 -0.03125,0 -0.232039,-0.138728 -0.462548,-0.274778 -0.71875,-0.375 0.301527,0.0968 0.596455,0.204138 0.875,0.34375 0.55709,0.279224 1.060053,0.665694 1.5,1.09375 0.219973,0.214028 0.409366,0.441865 0.59375,0.6875 0.184384,0.245635 0.355408,0.507743 0.5,0.78125 0.14012,0.265048 0.276135,0.524729 0.375,0.8125 0.01041,0.03078 0.02133,0.06274 0.03125,0.09375 0.09046,0.278085 0.1388,0.579404 0.1875,0.875 C 89.95865,11.3493 90,11.665279 90,12 l 0,2 0,68 0,2 c 0,3.324 -2.676,6 -6,6 l -72,0 z"/>
</g>
<g id="layer5">
<rect width="66" x="15" y="15" rx="12" height="66" ry="12" style="opacity:.1;fill:url(#linearGradient3613);filter:url(#filter3794);stroke:#fff;stroke-linecap:round;stroke-width:.5;clip-path:url(#clipPath3613)" id="rect3171"/>
</g>
<g style="color:#000;fill-rule:evenodd" id="layer4">
<g style="fill:#f9f9f9">
<path style="opacity:.1" id="path3975" d="m 184.21875,700.03125 c -0.10928,0.0101 -0.10454,0.0236 -0.125,0.0312 -0.005,0.002 -0.0282,-0.002 -0.0312,0 0.002,9e-5 -0.0103,6.9e-4 -0.0312,0 -0.01,-4.2e-4 -0.0181,0.0309 -0.0312,0.0312 -0.005,-4.3e-4 -0.0229,-0.0314 -0.0312,-0.0312 -0.0131,3.6e-4 -0.0323,0.0276 -0.0625,0.0312 -0.0134,0.002 -0.0221,-0.001 -0.0312,0 -0.009,0.001 -0.0311,-3e-5 -0.0312,0 -0.0488,0.01 -0.10119,0.0249 -0.125,0.0312 -0.0972,0.0203 -0.12897,0.0241 -0.15625,0.0312 0.0887,-0.0232 0.004,-0.006 -0.0312,0 -0.0352,0.006 0.006,-0.0198 -0.15625,0.0312 -0.2077,0.0655 -0.19113,0.0789 -0.21875,0.0937 -0.0258,0.0106 -0.021,0.0256 -0.0312,0.0312 0.0284,-0.006 0.0915,-0.048 -0.0937,0.0312 -0.0224,-0.001 -0.007,-0.0104 -0.15625,0.0625 -0.14004,0.0683 -0.0899,0.0409 -0.125,0.0625 -0.0351,0.0216 -0.12068,0.0633 -0.0625,0.0312 -0.0695,0.0382 -0.0771,0.0814 -0.0937,0.0937 0.0284,-0.0133 0.073,-0.0643 -0.0312,0 -0.0182,0.005 -0.0199,6e-5 -0.15625,0.0937 -0.10545,0.0725 -0.13517,0.0777 -0.15625,0.0937 0.0101,-0.008 -0.0343,0.0416 -0.0625,0.0625 -0.0282,0.0209 -0.0253,0.005 -0.0937,0.0625 -0.0842,0.0711 -0.073,0.0724 -0.0937,0.0937 -0.0207,0.0213 -0.064,0.0618 -0.0312,0.0312 -0.0665,0.062 -0.0973,0.0965 -0.125,0.125 -0.13625,0.14038 -0.10451,0.12773 -0.125,0.15625 -0.0215,0.0206 -9.4e-4,0.008 -0.0937,0.125 -0.0538,0.0678 -0.0856,0.10131 -0.125,0.15625 0,0 -2.66769,4.06783 -3.8125,9.6875 -4.7831,-3.17058 -9.53125,-4.1875 -9.53125,-4.1875 a 0.77145112,0.77145112 0 0 0 -0.0312,0 c -0.0276,-0.005 -0.0603,-0.0443 -0.21875,-0.0625 -0.14556,-0.0167 -0.15242,-7.4e-4 -0.1875,0 -0.0351,7.4e-4 -0.1008,-0.004 -0.0312,0 -0.16839,-0.009 -0.20239,-8e-5 -0.21875,0 0.0123,-6e-5 -0.0529,-0.0107 -0.21875,0 -0.15674,0.0101 -0.11421,0.0236 -0.15625,0.0312 -0.0168,0.003 -0.0153,-0.003 -0.0312,0 -0.0351,-0.001 -0.0194,-0.0116 -0.25,0.0312 -0.21998,0.0408 -0.14559,0.0476 -0.1875,0.0625 -0.0419,0.0149 -0.15459,0.0306 -0.0312,0 0.0577,-0.0143 0.004,-0.006 -0.0312,0 -0.0352,0.006 -0.0246,-0.01 -0.15625,0.0312 -0.10276,0.0321 -0.12136,0.0481 -0.15625,0.0625 -0.0349,0.0144 -0.0857,0.0401 -0.0625,0.0312 -0.0478,0.0181 -0.0825,0.0154 -0.1875,0.0625 0.0519,-0.0233 0.004,0.0178 -0.0312,0.0312 -0.0353,0.0135 -0.0324,-0.002 -0.15625,0.0625 -0.15649,0.0818 -0.21663,0.12373 -0.21875,0.125 4.1e-4,-2.4e-4 -0.0273,0.0104 -0.0625,0.0312 -0.0352,0.0208 -0.0505,0.0427 -0.125,0.0937 -0.0914,0.0626 -0.12183,0.0983 -0.15625,0.125 -0.14339,0.11134 -0.12878,0.0964 -0.15625,0.125 -0.0719,0.063 -0.0972,0.0967 -0.125,0.125 -0.0278,0.0283 -0.0371,0.037 -0.0312,0.0312 -0.0127,0.0125 -0.0519,0.0714 -0.15625,0.1875 0.0517,-0.0575 -0.003,-0.0276 -0.0312,0 -0.0285,0.0276 -0.0228,0.0278 -0.125,0.15625 -0.0465,0.0584 -0.0793,0.0912 -0.125,0.15625 -0.0624,0.0888 -0.073,0.0897 -0.0937,0.125 -0.0207,0.0353 -0.0412,0.0786 -0.0312,0.0625 -0.0205,0.0332 -0.0582,0.0634 -0.125,0.1875 -0.0739,0.13746 -0.0491,0.15218 -0.0625,0.1875 -0.0134,0.0353 -0.0309,0.0979 0,0.0312 -0.0169,0.0178 -0.0443,-0.018 -0.125,0.1875 -0.0844,0.21469 -0.0567,0.21467 -0.0625,0.25 -0.0118,0.021 -0.0254,0.014 -0.0625,0.15625 -0.0384,0.14707 -0.0302,0.18233 -0.0312,0.1875 -0.0186,0.094 -0.0188,0.15943 -0.0312,0.25 0.0108,-0.079 -0.0235,-0.0349 -0.0312,0 -0.008,0.0349 -0.0191,0.0301 -0.0312,0.1875 -0.009,0.11789 -4e-4,0.11412 0,0.15625 4e-4,0.0421 -4.4e-4,0.11948 0,0.0937 -7.5e-4,0.0442 -0.005,0.0779 0,0.1875 -0.003,-0.0649 6.1e-4,0.0204 0,0.0625 -6.1e-4,0.0421 -0.016,0.0312 0,0.1875 0.0103,0.10037 0.0248,0.10192 0.0312,0.125 0.002,0.005 -0.001,0.0245 0,0.0312 a 0.77145112,0.77145112 0 0 0 0.0312,0.0312 0.77145112,0.77145112 0 0 0 0,0.0625 c 0,0 1.01234,4.77276 4.1875,9.5625 -5.63209,1.14346 -9.71875,3.8125 -9.71875,3.8125 0.10398,-0.0752 0.004,-0.0202 -0.0312,0 -0.0356,0.0202 -0.0191,-0.0125 -0.1875,0.125 -0.11403,0.0931 -0.0974,0.0965 -0.125,0.125 -0.0276,0.0285 -0.0756,0.0721 -0.0312,0.0312 -0.0897,0.0826 -0.11972,0.1184 -0.15625,0.15625 -0.11151,0.11554 -0.10463,0.12771 -0.125,0.15625 -0.0287,0.0274 -0.0363,-0.002 -0.15625,0.15625 -0.0102,0.0134 -0.0486,0.0422 -0.125,0.15625 -0.0848,0.12643 -0.0798,0.16382 -0.0937,0.1875 0.007,-0.0112 -0.0412,0.0588 -0.0625,0.0937 -0.0213,0.0349 -0.0158,0.0336 -0.0625,0.125 -0.0584,0.11435 -0.049,0.121 -0.0625,0.15625 -0.0135,0.0353 -0.0496,0.073 -0.0312,0.0312 -0.0372,0.0848 -0.037,0.11873 -0.0625,0.1875 0.0125,-0.0338 -0.0168,0.0276 -0.0312,0.0625 -0.0145,0.0349 -0.0279,0.0425 -0.0625,0.15625 -0.0376,0.12366 -0.0248,0.12108 -0.0312,0.15625 -0.006,0.0352 -0.0119,0.0807 0,0.0312 -0.0262,0.10897 -0.0246,0.11404 -0.0312,0.15625 -0.007,0.0422 -0.003,0.11189 0,0.0937 0.005,-0.026 -0.0238,-0.004 -0.0312,0.0312 -0.007,0.035 -0.0189,0.0521 -0.0312,0.15625 0.009,-0.0732 0.008,0.0204 0,0.0625 -0.008,0.0421 -0.0214,0.0207 -0.0312,0.1875 -0.009,0.15289 0,0.18674 0,0.1875 0,7.6e-4 -0.009,0.0346 0,0.1875 0.01,0.16682 0.0236,0.14545 0.0312,0.1875 0.008,0.0421 0.009,0.13565 0,0.0625 0.0124,0.10412 0.0238,0.12128 0.0312,0.15625 0.007,0.035 0.0359,0.0573 0.0312,0.0312 -0.003,-0.0181 -0.007,0.0515 0,0.0937 0.007,0.0422 0.005,0.0473 0.0312,0.15625 -0.0119,-0.0494 -0.006,-0.004 0,0.0312 0.006,0.0352 -0.006,0.0326 0.0312,0.15625 0.0346,0.11376 0.048,0.12137 0.0625,0.15625 0.0145,0.0349 0.0437,0.0963 0.0312,0.0625 0.0255,0.0688 0.0253,0.10265 0.0625,0.1875 -0.0183,-0.0418 0.0177,-0.004 0.0312,0.0312 0.0135,0.0353 0.004,0.0419 0.0625,0.15625 0.0467,0.0914 0.0412,0.0901 0.0625,0.125 0.0213,0.0349 0.0691,0.10499 0.0625,0.0937 0.0139,0.0237 0.009,0.0611 0.0937,0.1875 0.0764,0.11402 0.1148,0.14283 0.125,0.15625 0.11994,0.15786 0.12756,0.12882 0.15625,0.15625 0.0204,0.0285 0.0135,0.0407 0.125,0.15625 0.0365,0.0379 0.0665,0.0737 0.15625,0.15625 -0.0444,-0.0408 0.004,0.003 0.0312,0.0312 0.0276,0.0285 0.011,0.0319 0.125,0.125 0.16841,0.13754 0.15191,0.10477 0.1875,0.125 0.0356,0.0202 0.13523,0.0752 0.0312,0 a 0.77145112,0.77145112 0 0 0 0,0.0312 c 0,0 4.09155,2.6159 9.71875,3.75 C 164.88736,739.22737 163.875,744 163.875,744 a 0.77145112,0.77145112 0 0 0 0,0.0625 0.77145112,0.77145112 0 0 0 -0.0312,0.0625 c -0.006,0.0231 -0.021,0.0246 -0.0312,0.125 -0.016,0.15629 -6.1e-4,0.14538 0,0.1875 6.1e-4,0.0421 -0.003,0.12741 0,0.0625 -0.005,0.1096 -7.5e-4,0.14331 0,0.1875 -4.4e-4,-0.0257 4e-4,0.0516 0,0.0937 -4e-4,0.0421 -0.009,0.0384 0,0.15625 0.0121,0.15743 0.0235,0.15261 0.0312,0.1875 0.008,0.0349 0.0421,0.079 0.0312,0 0.0124,0.0906 0.0126,0.15598 0.0312,0.25 0.001,0.005 -0.007,0.0404 0.0312,0.1875 0.0437,0.1673 0.0477,0.15276 0.0625,0.1875 0.0148,0.0347 0.0592,0.11714 0.0312,0.0312 -0.002,0.0211 -0.0308,0.0296 0.0312,0.1875 0.0905,0.23028 0.10296,0.18425 0.125,0.21875 0.0134,0.0353 -0.0114,0.05 0.0625,0.1875 0.0668,0.12411 0.10447,0.15425 0.125,0.1875 -0.01,-0.0161 0.0105,0.0272 0.0312,0.0625 0.0207,0.0353 0.0313,0.0362 0.0937,0.125 0.0457,0.065 0.0785,0.0979 0.125,0.15625 0.10221,0.1284 0.0965,0.1287 0.125,0.15625 0.0285,0.0276 0.0829,0.0575 0.0312,0 0.10431,0.11612 0.14357,0.17496 0.15625,0.1875 -0.006,-0.006 0.003,0.003 0.0312,0.0312 0.0278,0.0283 0.0531,0.062 0.125,0.125 0.0275,0.0286 0.0129,0.0137 0.15625,0.125 0.0344,0.0267 0.0649,0.0624 0.15625,0.125 0.0745,0.051 0.0898,0.0729 0.125,0.0937 0.0352,0.0208 0.0629,0.0315 0.0625,0.0312 0.002,0.001 0.0623,0.0432 0.21875,0.125 0.12389,0.0648 0.12097,0.049 0.15625,0.0625 0.0353,0.0135 0.0832,0.0545 0.0312,0.0312 0.10501,0.0471 0.13973,0.0444 0.1875,0.0625 -0.0232,-0.009 0.0276,0.0168 0.0625,0.0312 0.0349,0.0144 0.0535,0.0304 0.15625,0.0625 0.13163,0.0411 0.12105,0.0249 0.15625,0.0312 0.0352,0.006 0.089,0.0143 0.0312,0 -0.12334,-0.0306 -0.0107,-0.0149 0.0312,0 0.0419,0.0149 -0.0325,0.0217 0.1875,0.0625 0.23061,0.0428 0.21493,0.0326 0.25,0.0312 0.016,0.003 0.0144,-0.003 0.0312,0 0.042,0.008 -4.9e-4,0.0211 0.15625,0.0312 0.16584,0.0107 0.23105,6e-5 0.21875,0 0.0164,8e-5 0.0504,0.009 0.21875,0 -0.0695,0.004 -0.004,-7.4e-4 0.0312,0 0.0351,7.4e-4 0.0419,0.0167 0.1875,0 0.15847,-0.0182 0.19118,-0.0577 0.21875,-0.0625 a 0.77145112,0.77145112 0 0 0 0.0312,0 c 0,0 4.74815,-1.01692 9.53125,-4.1875 1.14337,5.62978 3.8125,9.71875 3.8125,9.71875 -0.0752,-0.10398 -0.0202,-0.004 0,0.0312 0.0202,0.0356 -0.0125,0.0191 0.125,0.1875 0.0931,0.11403 0.0965,0.0974 0.125,0.125 0.0285,0.0276 0.0721,0.0756 0.0312,0.0312 0.0826,0.0897 0.1184,0.11972 0.15625,0.15625 0.11554,0.11151 0.12771,0.10463 0.15625,0.125 0.0274,0.0287 -0.002,0.0363 0.15625,0.15625 0.0134,0.0102 0.0422,0.0485 0.15625,0.125 0.12643,0.0848 0.16382,0.0798 0.1875,0.0937 -0.0112,-0.007 0.0588,0.0412 0.0937,0.0625 0.0349,0.0213 0.0336,0.0158 0.125,0.0625 0.11435,0.0584 0.121,0.049 0.15625,0.0625 0.0352,0.0135 0.073,0.0496 0.0312,0.0312 0.0848,0.0372 0.11873,0.0371 0.1875,0.0625 -0.0337,-0.0125 0.0276,0.0168 0.0625,0.0312 0.0349,0.0145 0.0425,0.0279 0.15625,0.0625 0.12366,0.0376 0.12108,0.0248 0.15625,0.0312 0.0352,0.006 0.0807,0.0119 0.0312,0 0.10897,0.0262 0.11404,0.0246 0.15625,0.0312 0.0422,0.007 0.11189,0.003 0.0937,0 -0.026,-0.005 -0.004,0.0238 0.0312,0.0312 0.035,0.007 0.0521,0.0189 0.15625,0.0312 -0.0731,-0.009 0.0205,-0.008 0.0625,0 0.042,0.008 0.0207,0.0214 0.1875,0.0312 0.15289,0.009 0.18674,0 0.1875,0 7.6e-4,0 0.0346,0.009 0.1875,0 0.16682,-0.01 0.14545,-0.0236 0.1875,-0.0312 0.042,-0.008 0.13565,-0.009 0.0625,0 0.10412,-0.0124 0.12128,-0.0238 0.15625,-0.0312 0.035,-0.007 0.0573,-0.0359 0.0312,-0.0312 -0.0181,0.003 0.0515,0.007 0.0937,0 0.0422,-0.007 0.0473,-0.005 0.15625,-0.0312 -0.0494,0.0119 -0.004,0.006 0.0312,0 0.0352,-0.006 0.0326,0.006 0.15625,-0.0312 0.11376,-0.0346 0.12137,-0.048 0.15625,-0.0625 0.0349,-0.0145 0.0962,-0.0437 0.0625,-0.0312 0.0688,-0.0254 0.10265,-0.0253 0.1875,-0.0625 -0.0418,0.0183 -0.004,-0.0177 0.0312,-0.0312 0.0352,-0.0135 0.0419,-0.004 0.15625,-0.0625 0.0914,-0.0467 0.0901,-0.0412 0.125,-0.0625 0.0349,-0.0213 0.10499,-0.0691 0.0937,-0.0625 0.0237,-0.0139 0.0611,-0.009 0.1875,-0.0937 0.11402,-0.0765 0.14283,-0.1148 0.15625,-0.125 0.15786,-0.11994 0.12882,-0.12756 0.15625,-0.15625 0.0285,-0.0204 0.0407,-0.0135 0.15625,-0.125 0.0378,-0.0365 0.0737,-0.0665 0.15625,-0.15625 -0.0409,0.0444 0.003,-0.004 0.0312,-0.0312 0.0285,-0.0276 0.0319,-0.011 0.125,-0.125 0.13754,-0.16841 0.10477,-0.15191 0.125,-0.1875 0.0202,-0.0356 0.0752,-0.13523 0,-0.0312 a 0.77145112,0.77145112 0 0 0 0.0312,0 c 0,0 2.62043,-4.11041 3.75,-9.75 4.7954,3.19314 9.5625,4.21875 9.5625,4.21875 a 0.77145112,0.77145112 0 0 0 0.0312,0 c 0.0343,0.006 0.0673,0.0448 0.21875,0.0625 0.1466,0.0171 0.15242,7.6e-4 0.1875,0 0.0351,-7.6e-4 0.10193,0.004 0.0312,0 0.17124,0.01 0.2055,5e-5 0.21875,0 -0.01,4e-5 0.0551,0.0105 0.21875,0 0.15577,-0.01 0.11422,-0.0236 0.15625,-0.0312 0.0168,-0.003 0.0154,0.003 0.0312,0 0.0421,0.001 0.006,0.02 0.28125,-0.0312 0.20096,-0.0375 0.17382,-0.0481 0.1875,-0.0625 -0.0588,0.0147 -0.004,0.006 0.0312,0 0.0352,-0.006 0.0236,0.0105 0.15625,-0.0312 0.0532,-0.0167 0.12061,-0.0444 0.25,-0.0937 0.0413,-0.0158 0.0763,-0.0434 0.1875,-0.0937 -0.055,0.0249 -0.004,0.0134 0.0312,0 0.0353,-0.0134 0.061,0.004 0.1875,-0.0625 0.14621,-0.077 0.1751,-0.11748 0.1875,-0.125 0.10713,-0.065 0.0973,-0.0722 0.125,-0.0937 0.0277,-0.0215 0.0711,-0.0588 0.0312,-0.0312 0.0935,-0.0647 0.09,-0.0654 0.125,-0.0937 0.035,-0.0284 0.0744,-0.0719 0.0625,-0.0625 -0.0214,0.0168 0.0342,-0.0106 0.0625,-0.0312 0.0283,-0.0207 0.0157,-0.0245 0.0937,-0.0937 0.1296,-0.11492 0.1557,-0.1557 0.15625,-0.15625 5.5e-4,-5.5e-4 0.0413,-0.0267 0.15625,-0.15625 0.0692,-0.0781 0.0731,-0.0654 0.0937,-0.0937 0.0207,-0.0284 0.0481,-0.0839 0.0312,-0.0625 -0.009,0.0119 0.0341,-0.0276 0.0625,-0.0625 0.0284,-0.0349 0.0291,-0.0315 0.0937,-0.125 -0.0276,0.0399 0.01,-0.004 0.0312,-0.0312 0.0215,-0.0277 0.0288,-0.0179 0.0937,-0.125 0.008,-0.0124 0.048,-0.0413 0.125,-0.1875 0.0667,-0.12654 0.0491,-0.15222 0.0625,-0.1875 0.0134,-0.0353 0.0249,-0.0862 0,-0.0312 0.0503,-0.1112 0.078,-0.14619 0.0937,-0.1875 0.0494,-0.12939 0.077,-0.19675 0.0937,-0.25 0.0337,-0.10717 0.0288,-0.10134 0.0312,-0.125 -0.008,0.0173 7.6e-4,-0.0372 0,-0.0312 0.006,-0.0352 0.0147,-0.0901 0,-0.0312 0.0144,-0.0137 0.025,0.0135 0.0625,-0.1875 0.0513,-0.27513 0.0326,-0.23912 0.0312,-0.28125 0.003,-0.0159 -0.003,-0.0144 0,-0.0312 0.008,-0.042 0.0212,-4.8e-4 0.0312,-0.15625 0.0105,-0.16364 4e-5,-0.22851 0,-0.21875 5e-5,-0.0132 0.01,-0.0475 0,-0.21875 0.004,0.0707 -7.6e-4,0.004 0,-0.0312 7.6e-4,-0.0351 0.0171,-0.0409 0,-0.1875 -0.0177,-0.15142 -0.0564,-0.18446 -0.0625,-0.21875 a 0.77145112,0.77145112 0 0 0 0,-0.0312 c 0,0 -1.0367,-4.75141 -4.21875,-9.53125 5.63424,-1.13351 9.75,-3.75 9.75,-3.75 a 0.77145112,0.77145112 0 0 0 0,-0.0312 c -0.10398,0.0752 -0.004,0.0202 0.0312,0 0.0356,-0.0202 0.0191,0.0125 0.1875,-0.125 0.11403,-0.0931 0.0974,-0.0965 0.125,-0.125 0.0276,-0.0285 0.0756,-0.0721 0.0312,-0.0312 0.0897,-0.0826 0.11972,-0.1184 0.15625,-0.15625 0.11151,-0.11554 0.10463,-0.12771 0.125,-0.15625 0.0287,-0.0274 0.0363,0.002 0.15625,-0.15625 0.0102,-0.0134 0.0486,-0.0422 0.125,-0.15625 0.0848,-0.12643 0.0798,-0.16382 0.0937,-0.1875 -0.007,0.0112 0.0412,-0.0588 0.0625,-0.0937 0.0213,-0.0349 0.0158,-0.0336 0.0625,-0.125 0.0584,-0.11435 0.049,-0.121 0.0625,-0.15625 0.0135,-0.0353 0.0496,-0.073 0.0312,-0.0312 0.0372,-0.0848 0.037,-0.11873 0.0625,-0.1875 -0.0125,0.0338 0.0168,-0.0276 0.0312,-0.0625 0.0145,-0.0349 0.0279,-0.0425 0.0625,-0.15625 0.0376,-0.12366 0.0248,-0.12108 0.0312,-0.15625 0.006,-0.0352 0.0119,-0.0807 0,-0.0312 0.0262,-0.10897 0.0246,-0.11404 0.0312,-0.15625 0.007,-0.0422 0.003,-0.11189 0,-0.0937 -0.005,0.026 0.0238,0.004 0.0312,-0.0312 0.007,-0.035 0.0189,-0.0521 0.0312,-0.15625 -0.009,0.0732 -0.008,-0.0204 0,-0.0625 0.008,-0.0421 0.0214,-0.0207 0.0312,-0.1875 0.009,-0.15289 0,-0.18674 0,-0.1875 0,-7.6e-4 0.009,-0.0346 0,-0.1875 -0.01,-0.16682 -0.0236,-0.14545 -0.0312,-0.1875 -0.008,-0.0421 -0.009,-0.13565 0,-0.0625 -0.0124,-0.10412 -0.0238,-0.12128 -0.0312,-0.15625 -0.007,-0.035 -0.0359,-0.0573 -0.0312,-0.0312 0.003,0.0181 0.007,-0.0515 0,-0.0937 -0.007,-0.0422 -0.005,-0.0473 -0.0312,-0.15625 0.0119,0.0494 0.006,0.004 0,-0.0312 -0.006,-0.0352 0.006,-0.0326 -0.0312,-0.15625 -0.0346,-0.11376 -0.048,-0.12137 -0.0625,-0.15625 -0.0145,-0.0349 -0.0437,-0.0963 -0.0312,-0.0625 -0.0255,-0.0688 -0.0253,-0.10265 -0.0625,-0.1875 0.0183,0.0418 -0.0177,0.004 -0.0312,-0.0312 -0.0135,-0.0353 -0.004,-0.0419 -0.0625,-0.15625 -0.0467,-0.0914 -0.0412,-0.0901 -0.0625,-0.125 -0.0213,-0.0349 -0.0691,-0.10499 -0.0625,-0.0937 -0.0139,-0.0237 -0.009,-0.0611 -0.0937,-0.1875 -0.0764,-0.11402 -0.1148,-0.14283 -0.125,-0.15625 -0.11994,-0.15786 -0.12756,-0.12882 -0.15625,-0.15625 -0.0204,-0.0285 -0.0135,-0.0407 -0.125,-0.15625 -0.0365,-0.0379 -0.0665,-0.0737 -0.15625,-0.15625 0.0444,0.0408 -0.004,-0.003 -0.0312,-0.0312 -0.0276,-0.0285 -0.011,-0.0319 -0.125,-0.125 -0.16841,-0.13754 -0.15191,-0.10477 -0.1875,-0.125 -0.0356,-0.0202 -0.13523,-0.0752 -0.0312,0 a 0.77145112,0.77145112 0 0 0 0,-0.0312 c 0,0 -4.11049,-2.63841 -9.75,-3.78125 3.18199,-4.77983 4.21875,-9.53125 4.21875,-9.53125 a 0.77145112,0.77145112 0 0 0 0,-0.0312 c 0.006,-0.0343 0.0448,-0.0673 0.0625,-0.21875 0.0171,-0.1466 7.6e-4,-0.15242 0,-0.1875 -7.6e-4,-0.0351 0.004,-0.10193 0,-0.0312 0.01,-0.17124 5e-5,-0.2055 0,-0.21875 4e-5,0.01 0.0105,-0.0551 0,-0.21875 -0.01,-0.15577 -0.0236,-0.11422 -0.0312,-0.15625 -0.003,-0.0168 0.003,-0.0154 0,-0.0312 0.001,-0.0421 0.02,-0.006 -0.0312,-0.28125 -0.0375,-0.20096 -0.0481,-0.17382 -0.0625,-0.1875 -0.0224,-0.0899 -7.6e-4,-0.0372 0,-0.0312 -0.006,-0.0352 0.0105,-0.0236 -0.0312,-0.15625 -0.0167,-0.0533 -0.0444,-0.12061 -0.0937,-0.25 -0.0158,-0.0413 -0.0434,-0.0763 -0.0937,-0.1875 0.0249,0.055 0.0134,0.004 0,-0.0312 -0.0134,-0.0353 0.004,-0.061 -0.0625,-0.1875 -0.077,-0.14621 -0.11748,-0.1751 -0.125,-0.1875 -0.065,-0.10713 -0.0722,-0.0973 -0.0937,-0.125 -0.0215,-0.0277 -0.0588,-0.0711 -0.0312,-0.0312 -0.0647,-0.0935 -0.0654,-0.0901 -0.0937,-0.125 -0.0284,-0.0349 -0.0719,-0.0744 -0.0625,-0.0625 0.0168,0.0214 -0.0106,-0.0341 -0.0312,-0.0625 -0.0207,-0.0284 -0.0245,-0.0157 -0.0937,-0.0937 -0.11492,-0.1296 -0.1557,-0.1557 -0.15625,-0.15625 -5.5e-4,-5.5e-4 -0.0266,-0.0413 -0.15625,-0.15625 -0.0781,-0.0692 -0.0654,-0.0731 -0.0937,-0.0937 -0.0283,-0.0207 -0.0839,-0.0481 -0.0625,-0.0312 0.0119,0.009 -0.0275,-0.0341 -0.0625,-0.0625 -0.035,-0.0284 -0.0315,-0.0291 -0.125,-0.0937 0.0399,0.0276 -0.004,-0.01 -0.0312,-0.0312 -0.0277,-0.0215 -0.0179,-0.0288 -0.125,-0.0937 -0.0124,-0.008 -0.0413,-0.048 -0.1875,-0.125 -0.12654,-0.0667 -0.15222,-0.0491 -0.1875,-0.0625 -0.0353,-0.0134 -0.0862,-0.0249 -0.0312,0 -0.1112,-0.0503 -0.14619,-0.078 -0.1875,-0.0937 -0.12939,-0.0494 -0.19675,-0.077 -0.25,-0.0937 -0.10717,-0.0337 -0.10134,-0.0288 -0.125,-0.0312 0.0345,0.0154 0.11734,0.0449 -0.0625,0 -0.0137,-0.0144 0.0135,-0.025 -0.1875,-0.0625 -0.27513,-0.0513 -0.23912,-0.0326 -0.28125,-0.0312 -0.0159,-0.003 -0.0144,0.003 -0.0312,0 -0.042,-0.008 -4.8e-4,-0.0212 -0.15625,-0.0312 -0.16364,-0.0105 -0.22851,-4e-5 -0.21875,0 -0.0132,-5e-5 -0.0475,-0.01 -0.21875,0 0.0707,-0.004 0.004,7.6e-4 -0.0312,0 -0.0351,-7.6e-4 -0.0409,-0.0171 -0.1875,0 -0.15142,0.0177 -0.18446,0.0564 -0.21875,0.0625 a 0.77145112,0.77145112 0 0 0 -0.0312,0 c 0,0 -4.76718,1.02552 -9.5625,4.21875 -1.13184,-5.62819 -3.75,-9.71875 -3.75,-9.71875 a 0.77145112,0.77145112 0 0 0 -0.0312,0 c 0.0635,0.0893 0.0202,0.004 0,-0.0312 -0.0202,-0.0356 1.1e-4,-0.033 -0.125,-0.1875 -0.0908,-0.11216 -0.0965,-0.0974 -0.125,-0.125 -0.0285,-0.0276 -0.07,-0.0734 -0.0312,-0.0312 -0.0784,-0.0852 -0.11397,-0.11571 -0.15625,-0.15625 -0.10101,-0.0969 -0.0896,-0.0661 -0.125,-0.0937 -0.0354,-0.0277 -0.0941,-0.0892 -0.0625,-0.0625 -0.0273,-0.0288 0.005,-0.0361 -0.15625,-0.15625 -0.11239,-0.0835 -0.12088,-0.0732 -0.15625,-0.0937 -0.0354,-0.0205 -0.10464,-0.0586 -0.0625,-0.0312 -0.0855,-0.0556 -0.11999,-0.0869 -0.1875,-0.125 0.0331,0.0186 -0.0277,-0.01 -0.0625,-0.0312 -0.0348,-0.0215 -0.0102,-0.007 -0.125,-0.0625 -0.0831,-0.0402 -0.12105,-0.0488 -0.15625,-0.0625 -0.0352,-0.0137 -0.0711,-0.0348 -0.0625,-0.0312 -0.0945,-0.0386 -0.0828,-0.0175 -0.125,-0.0312 -0.0422,-0.0137 -0.0983,-0.0328 -0.0937,-0.0312 0.0684,0.0231 0.004,-0.0165 -0.0312,-0.0312 -0.0348,-0.0148 -0.0379,-0.0223 -0.1875,-0.0625 -0.13921,-0.0374 -0.11406,-0.0248 -0.15625,-0.0312 -0.0422,-0.006 -0.11199,-0.01 -0.0625,0 -0.10039,-0.0203 -0.16594,-0.0197 -0.25,-0.0312 0.0741,0.0102 0.0349,-0.0234 0,-0.0312 -0.0349,-0.008 -0.0347,-0.0199 -0.1875,-0.0312 -0.10809,-0.008 -0.11417,-3.8e-4 -0.15625,0 -0.0421,3.8e-4 -0.10976,-1.8e-4 -0.0937,0 -0.0239,-2.7e-4 -0.0843,-9.4e-4 -0.15625,0 0.001,3e-5 -0.042,10e-6 -0.0625,0 -0.0103,0 -0.0318,10e-6 -0.0312,0 a 0.77145112,0.77145112 0 0 0 -0.0312,0 z" transform="matrix(1.4426658,0,0,1.4467808,-218.11907,-1004.7918)"/>
<path style="opacity:.2" id="path3971" d="m 184.2812,700.8125 c -0.0259,0.002 -0.0993,0.0276 -0.125,0.0312 -0.0206,0.003 -0.0881,-0.007 -0.125,0 -0.009,0.002 -0.0262,-0.00099 -0.0312,0 -0.0368,0.006 -0.10441,0.0269 -0.125,0.0312 -0.0255,0.005 -0.0998,0.0247 -0.125,0.0312 -0.0252,0.007 -0.13141,0.0234 -0.15625,0.0312 -0.0248,0.008 -0.10058,0.0534 -0.125,0.0625 -0.0244,0.009 -0.10106,0.0523 -0.125,0.0625 -0.0239,0.0102 -0.10159,0.0198 -0.125,0.0312 -0.0234,0.0114 -0.13344,0.0812 -0.15625,0.0937 -0.0228,0.0126 -0.0716,0.0488 -0.0937,0.0625 -0.0222,0.0137 -0.10354,0.0477 -0.125,0.0625 -0.0215,0.0148 -0.1043,0.0779 -0.125,0.0937 -0.0207,0.0158 -0.10511,0.077 -0.125,0.0937 -0.0199,0.0168 -0.0747,0.076 -0.0937,0.0937 -0.019,0.0178 -0.0756,0.0751 -0.0937,0.0937 -0.0181,0.0187 -0.0766,0.10544 -0.0937,0.125 -0.0172,0.0196 -0.0776,0.0734 -0.0937,0.0937 -0.0162,0.0204 -0.0786,0.10383 -0.0937,0.125 0,0 -2.99081,4.43641 -3.9375,10.4688 -4.94069,-3.60499 -10.1878,-4.6557 -10.1878,-4.6557 -0.0308,-0.005 -0.15638,-0.0277 -0.1875,-0.0312 -0.0311,-0.004 -0.12497,0.002 -0.15625,0 -0.0313,-0.002 -0.15617,-0.00016 -0.1875,0 -0.0313,0.00016 -0.12499,-0.002 -0.15625,0 -0.0313,0.002 -0.15641,0.0274 -0.1875,0.0312 -0.0311,0.004 -0.12545,-0.006 -0.15625,0 -0.0308,0.006 -0.1571,0.055 -0.1875,0.0625 -0.0304,0.008 -0.12635,0.0219 -0.15625,0.0312 -0.0299,0.009 -0.12696,0.0514 -0.15625,0.0625 -0.0293,0.0111 -0.12767,0.0497 -0.15625,0.0625 -0.0286,0.0128 -0.12849,0.048 -0.15625,0.0625 -0.0278,0.0145 -0.1294,0.0776 -0.15625,0.0937 -0.0268,0.0161 -0.13041,0.0761 -0.15625,0.0937 -0.0258,0.0177 -0.10026,0.0745 -0.125,0.0937 -0.0247,0.0192 -0.10144,0.10435 -0.125,0.125 -0.0236,0.0207 -0.10272,0.10298 -0.125,0.125 -0.0223,0.022 -0.10407,0.1017 -0.125,0.125 -0.0209,0.0233 -0.10549,0.10049 -0.125,0.125 -0.0195,0.0245 -0.0757,0.0994 -0.0937,0.125 -0.018,0.0256 -0.0773,0.1296 -0.0937,0.15625 -0.0165,0.0267 -0.0789,0.12866 -0.0937,0.15625 -0.0148,0.0276 -0.0493,0.12783 -0.0625,0.15625 -0.0132,0.0284 -0.0823,0.12709 -0.0937,0.15625 -0.0115,0.0292 -0.0215,0.12646 -0.0312,0.15625 -0.01,0.0298 -0.0546,0.12594 -0.0625,0.15625 -0.008,0.0303 -0.0252,0.12552 -0.0312,0.15625 -0.006,0.0307 -0.027,0.15646 -0.0312,0.1875 -0.004,0.031 -0.0289,0.12502 -0.0312,0.15625 -0.002,0.0312 0.00053,0.15618 0,0.1875 -0.00053,0.0313 -0.001,0.12495 0,0.15625 0.001,0.0313 -0.003,0.15634 0,0.1875 0.003,0.0312 0.0262,0.12533 0.0312,0.15625 a 0.658696,0.658696 0 0,0 0,0.0312 c 0,0 1.04544,5.27563 4.65625,10.2188 -6.04524,0.94503 -10.5,3.9375 -10.5,3.9375 -0.0252,0.0182 -0.13219,0.0741 -0.15625,0.0937 -0.0241,0.0196 -0.10215,0.10397 -0.125,0.125 -0.0229,0.021 -0.10343,0.10265 -0.125,0.125 -0.0216,0.0223 -0.0735,0.10142 -0.0937,0.125 -0.0202,0.0236 -0.10621,0.10027 -0.125,0.125 -0.0188,0.0247 -0.0764,0.0992 -0.0937,0.125 -0.0173,0.0258 -0.078,0.12948 -0.0937,0.15625 -0.0157,0.0268 -0.0796,0.12859 -0.0937,0.15625 -0.0141,0.0277 -0.05,0.12781 -0.0625,0.15625 -0.0125,0.0284 -0.0517,0.12712 -0.0625,0.15625 -0.0108,0.0291 -0.0535,0.12653 -0.0625,0.15625 -0.009,0.0297 -0.024,0.12605 -0.0312,0.15625 -0.007,0.0302 -0.0258,0.15693 -0.0312,0.1875 -0.005,0.0306 -0.0276,0.12541 -0.0312,0.15625 -0.004,0.0308 -0.0294,0.15649 -0.0312,0.1875 -0.002,0.031 0,0.12519 0,0.15625 0,0.0311 -0.002,0.12524 0,0.15625 0.002,0.031 0.0276,0.15666 0.0312,0.1875 0.004,0.0308 0.0258,0.12568 0.0312,0.15625 0.005,0.0306 0.024,0.1573 0.0312,0.1875 0.007,0.0302 0.0222,0.12653 0.0312,0.15625 0.009,0.0297 0.0517,0.12712 0.0625,0.15625 0.0108,0.0291 0.05,0.12781 0.0625,0.15625 0.0125,0.0284 0.0484,0.12859 0.0625,0.15625 0.0141,0.0277 0.078,0.12948 0.0937,0.15625 0.0157,0.0268 0.0764,0.13045 0.0937,0.15625 0.0173,0.0258 0.075,0.10027 0.0937,0.125 0.0188,0.0247 0.10478,0.10142 0.125,0.125 0.0202,0.0236 0.0722,0.10265 0.0937,0.125 0.0216,0.0223 0.10215,0.10397 0.125,0.125 0.0229,0.021 0.10094,0.10535 0.125,0.125 0.0241,0.0196 0.13108,0.0756 0.15625,0.0937 0,0 4.46,2.96882 10.5,3.90625 -3.61079,4.94332 -4.65625,10.2188 -4.65625,10.2188 a 0.658696,0.658696 0 0,0 0,0.0312 c -0.005,0.0309 -0.0281,0.12509 -0.0312,0.15625 -0.003,0.0312 0.001,0.1562 0,0.1875 -0.001,0.0313 -0.00053,0.12493 0,0.15625 0.00053,0.0313 -0.002,0.15627 0,0.1875 0.002,0.0312 0.027,0.12521 0.0312,0.15625 0.004,0.031 0.0252,0.15677 0.0312,0.1875 0.006,0.0307 0.0233,0.12594 0.0312,0.15625 0.008,0.0303 0.0528,0.12646 0.0625,0.15625 0.01,0.0298 0.0198,0.12709 0.0312,0.15625 0.0115,0.0292 0.0806,0.12783 0.0937,0.15625 0.0132,0.0284 0.0477,0.12866 0.0625,0.15625 0.0148,0.0276 0.0773,0.1296 0.0937,0.15625 0.0165,0.0267 0.0757,0.13062 0.0937,0.15625 0.018,0.0256 0.0742,0.10049 0.0937,0.125 0.0195,0.0245 0.10407,0.1017 0.125,0.125 0.0209,0.0233 0.10272,0.10298 0.125,0.125 0.0223,0.022 0.10144,0.10435 0.125,0.125 0.0236,0.0207 0.10026,0.10579 0.125,0.125 0.0247,0.0192 0.0992,0.0761 0.125,0.0937 0.0258,0.0177 0.1294,0.0776 0.15625,0.0937 0.0268,0.0161 0.12849,0.0792 0.15625,0.0937 0.0278,0.0145 0.12767,0.0497 0.15625,0.0625 0.0286,0.0128 0.12696,0.0514 0.15625,0.0625 0.0293,0.0111 0.12635,0.0532 0.15625,0.0625 0.0299,0.009 0.12585,0.0237 0.15625,0.0312 0.0304,0.008 0.1567,0.0568 0.1875,0.0625 0.0308,0.006 0.12516,-0.004 0.15625,0 0.0311,0.004 0.15624,0.0292 0.1875,0.0312 0.0313,0.002 0.12492,-0.00016 0.15625,0 0.0313,0.00016 0.15622,0.002 0.1875,0 0.0313,-0.002 0.12513,0.004 0.15625,0 0.0311,-0.004 0.15665,-0.0258 0.1875,-0.0312 0,0 5.24716,-1.05071 10.1875,-4.65625 0.94491,6.04199 3.9375,10.5 3.9375,10.5 0.0182,0.0252 0.0741,0.13219 0.0937,0.15625 0.0197,0.0241 0.10397,0.10215 0.125,0.125 0.021,0.0228 0.10265,0.10343 0.125,0.125 0.0223,0.0216 0.10142,0.0735 0.125,0.0937 0.0236,0.0202 0.10027,0.10621 0.125,0.125 0.0247,0.0188 0.0992,0.0765 0.125,0.0937 0.0258,0.0173 0.12948,0.078 0.15625,0.0937 0.0268,0.0157 0.12859,0.0796 0.15625,0.0937 0.0277,0.0141 0.12781,0.05 0.15625,0.0625 0.0284,0.0125 0.12712,0.0517 0.15625,0.0625 0.0291,0.0108 0.12653,0.0535 0.15625,0.0625 0.0297,0.009 0.12605,0.024 0.15625,0.0312 0.0302,0.007 0.15693,0.0258 0.1875,0.0312 0.0306,0.005 0.12541,0.0276 0.15625,0.0312 0.0308,0.004 0.15649,0.0294 0.1875,0.0312 0.031,0.002 0.12519,0 0.15625,0 0.0311,0 0.12524,0.002 0.15625,0 0.031,-0.002 0.15666,-0.0276 0.1875,-0.0312 0.0308,-0.004 0.12568,-0.0258 0.15625,-0.0312 0.0306,-0.005 0.1573,-0.024 0.1875,-0.0312 0.0302,-0.007 0.12653,-0.0222 0.15625,-0.0312 0.0297,-0.009 0.12712,-0.0517 0.15625,-0.0625 0.0291,-0.0108 0.12781,-0.05 0.15625,-0.0625 0.0284,-0.0125 0.12859,-0.0484 0.15625,-0.0625 0.0277,-0.0141 0.12948,-0.078 0.15625,-0.0937 0.0268,-0.0157 0.13045,-0.0765 0.15625,-0.0937 0.0258,-0.0173 0.10027,-0.075 0.125,-0.0937 0.0247,-0.0188 0.10142,-0.10478 0.125,-0.125 0.0236,-0.0202 0.10265,-0.0722 0.125,-0.0937 0.0223,-0.0216 0.10397,-0.10215 0.125,-0.125 0.021,-0.0228 0.10535,-0.10094 0.125,-0.125 0.0197,-0.0241 0.0756,-0.13108 0.0937,-0.15625 0,0 2.97497,-4.47925 3.90625,-10.5312 4.95063,3.62891 10.2188,4.6875 10.2188,4.6875 0.0311,0.006 0.15611,0.0276 0.1875,0.0312 0.0314,0.004 0.12469,-0.002 0.15625,0 0.0316,0.002 0.15589,0.00013 0.1875,0 0.0316,-0.00013 0.12471,0.002 0.15625,0 0.0315,-0.002 0.15614,-0.0273 0.1875,-0.0312 0.0314,-0.004 0.15643,0.006 0.1875,0 0.0311,-0.006 0.12558,-0.0548 0.15625,-0.0625 0.0307,-0.008 0.1261,-0.0218 0.15625,-0.0312 0.0301,-0.009 0.15797,-0.0512 0.1875,-0.0625 0.0295,-0.0113 0.12745,-0.0495 0.15625,-0.0625 0.0288,-0.013 0.12829,-0.0478 0.15625,-0.0625 0.028,-0.0147 0.12922,-0.0774 0.15625,-0.0937 0.027,-0.0164 0.099,-0.0758 0.125,-0.0937 0.026,-0.018 0.13138,-0.10549 0.15625,-0.125 0.0249,-0.0195 0.10135,-0.0728 0.125,-0.0937 0.0237,-0.021 0.10265,-0.10265 0.125,-0.125 0.0223,-0.0223 0.10403,-0.10135 0.125,-0.125 0.021,-0.0236 0.0742,-0.10013 0.0937,-0.125 0.0195,-0.0249 0.10702,-0.13025 0.125,-0.15625 0.018,-0.026 0.0774,-0.098 0.0937,-0.125 0.0164,-0.027 0.079,-0.12829 0.0937,-0.15625 0.0147,-0.028 0.0495,-0.12745 0.0625,-0.15625 0.013,-0.0288 0.0512,-0.12672 0.0625,-0.15625 0.0113,-0.0295 0.053,-0.15735 0.0625,-0.1875 0.009,-0.0302 0.0236,-0.12558 0.0312,-0.15625 0.008,-0.0307 0.0567,-0.12518 0.0625,-0.15625 0.006,-0.0311 -0.004,-0.15614 0,-0.1875 0.004,-0.0314 0.0292,-0.15596 0.0312,-0.1875 0.002,-0.0315 -0.00013,-0.12464 0,-0.15625 0.00013,-0.0316 0.002,-0.15594 0,-0.1875 -0.002,-0.0316 0.004,-0.12486 0,-0.15625 -0.004,-0.0314 -0.0257,-0.15638 -0.0312,-0.1875 0,0 -1.07072,-5.25087 -4.6875,-10.1875 6.0456,-0.93686 10.5312,-3.90625 10.5312,-3.90625 0.0252,-0.0182 0.13219,-0.0741 0.15625,-0.0937 0.0241,-0.0196 0.10215,-0.10397 0.125,-0.125 0.0229,-0.021 0.10343,-0.10265 0.125,-0.125 0.0216,-0.0223 0.0735,-0.10142 0.0937,-0.125 0.0202,-0.0236 0.10621,-0.10027 0.125,-0.125 0.0188,-0.0247 0.0764,-0.0992 0.0937,-0.125 0.0173,-0.0258 0.078,-0.12948 0.0937,-0.15625 0.0157,-0.0268 0.0796,-0.12859 0.0937,-0.15625 0.0141,-0.0277 0.05,-0.12781 0.0625,-0.15625 0.0125,-0.0284 0.0517,-0.12712 0.0625,-0.15625 0.0108,-0.0291 0.0535,-0.12653 0.0625,-0.15625 0.009,-0.0297 0.024,-0.12605 0.0312,-0.15625 0.007,-0.0302 0.0258,-0.15693 0.0312,-0.1875 0.005,-0.0306 0.0276,-0.12541 0.0312,-0.15625 0.004,-0.0308 0.0294,-0.15649 0.0312,-0.1875 0.002,-0.031 0,-0.12519 0,-0.15625 0,-0.0311 0.002,-0.12524 0,-0.15625 -0.002,-0.031 -0.0276,-0.15666 -0.0312,-0.1875 -0.004,-0.0308 -0.0258,-0.12568 -0.0312,-0.15625 -0.005,-0.0306 -0.024,-0.1573 -0.0312,-0.1875 -0.007,-0.0302 -0.0222,-0.12653 -0.0312,-0.15625 -0.009,-0.0297 -0.0517,-0.12712 -0.0625,-0.15625 -0.0108,-0.0291 -0.05,-0.12781 -0.0625,-0.15625 -0.0125,-0.0284 -0.0484,-0.12859 -0.0625,-0.15625 -0.0141,-0.0277 -0.078,-0.12948 -0.0937,-0.15625 -0.0157,-0.0268 -0.0764,-0.13045 -0.0937,-0.15625 -0.0173,-0.0258 -0.075,-0.10027 -0.0937,-0.125 -0.0188,-0.0247 -0.10478,-0.10142 -0.125,-0.125 -0.0202,-0.0236 -0.0722,-0.10265 -0.0937,-0.125 -0.0216,-0.0223 -0.10215,-0.10397 -0.125,-0.125 -0.0229,-0.021 -0.10094,-0.10535 -0.125,-0.125 -0.0241,-0.0196 -0.13108,-0.0756 -0.15625,-0.0937 0,0 -4.47988,-2.99307 -10.5312,-3.9375 3.6167,-4.93662 4.6875,-10.1875 4.6875,-10.1875 0.006,-0.0311 0.0276,-0.15611 0.0312,-0.1875 0.004,-0.0314 -0.002,-0.12469 0,-0.15625 0.002,-0.0316 0.00013,-0.15589 0,-0.1875 -0.00013,-0.0316 0.002,-0.12471 0,-0.15625 -0.002,-0.0315 -0.0273,-0.15614 -0.0312,-0.1875 -0.004,-0.0314 0.006,-0.15643 0,-0.1875 -0.006,-0.0311 -0.0548,-0.12558 -0.0625,-0.15625 -0.008,-0.0307 -0.0218,-0.1261 -0.0312,-0.15625 -0.009,-0.0302 -0.0512,-0.15797 -0.0625,-0.1875 -0.0113,-0.0295 -0.0495,-0.12745 -0.0625,-0.15625 -0.013,-0.0288 -0.0478,-0.12829 -0.0625,-0.15625 -0.0147,-0.028 -0.0774,-0.12922 -0.0937,-0.15625 -0.0164,-0.027 -0.0758,-0.099 -0.0937,-0.125 -0.018,-0.026 -0.10549,-0.13138 -0.125,-0.15625 -0.0195,-0.0249 -0.0728,-0.10135 -0.0937,-0.125 -0.021,-0.0236 -0.10265,-0.10265 -0.125,-0.125 -0.0223,-0.0223 -0.10135,-0.10403 -0.125,-0.125 -0.0237,-0.021 -0.10013,-0.0742 -0.125,-0.0937 -0.0249,-0.0195 -0.13025,-0.10702 -0.15625,-0.125 -0.026,-0.018 -0.098,-0.0774 -0.125,-0.0937 -0.027,-0.0164 -0.12829,-0.079 -0.15625,-0.0937 -0.028,-0.0147 -0.12745,-0.0495 -0.15625,-0.0625 -0.0288,-0.013 -0.12672,-0.0512 -0.15625,-0.0625 -0.0295,-0.0113 -0.15735,-0.053 -0.1875,-0.0625 -0.0301,-0.009 -0.12558,-0.0236 -0.15625,-0.0312 -0.0307,-0.008 -0.12518,-0.0567 -0.15625,-0.0625 -0.0311,-0.006 -0.15614,0.004 -0.1875,0 -0.0314,-0.004 -0.15596,-0.0292 -0.1875,-0.0312 -0.0315,-0.002 -0.12464,0.00013 -0.15625,0 -0.0316,-0.00013 -0.15594,-0.002 -0.1875,0 -0.0316,0.002 -0.12486,-0.004 -0.15625,0 -0.0314,0.004 -0.15638,0.0257 -0.1875,0.0312 0,0 -5.26825,1.05849 -10.2188,4.6875 -0.93423,-6.04077 -3.90625,-10.5 -3.90625,-10.5 -0.0191,-0.0269 -0.073,-0.1306 -0.0937,-0.15625 -0.0208,-0.0257 -0.10266,-0.10071 -0.125,-0.125 -0.0223,-0.0243 -0.10118,-0.10216 -0.125,-0.125 -0.0238,-0.0228 -0.13104,-0.1037 -0.15625,-0.125 -0.0252,-0.0213 -0.0985,-0.10532 -0.125,-0.125 -0.0265,-0.0197 -0.12857,-0.0758 -0.15625,-0.0937 -0.0277,-0.018 -0.1275,-0.0775 -0.15625,-0.0937 -0.0288,-0.0162 -0.12654,-0.0794 -0.15625,-0.0937 -0.0297,-0.0144 -0.1257,-0.05 -0.15625,-0.0625 -0.0306,-0.0125 -0.15623,-0.052 -0.1875,-0.0625 -0.0313,-0.0105 -0.12438,-0.0539 -0.15625,-0.0625 -0.0319,-0.009 -0.15515,-0.0247 -0.1875,-0.0312 -0.0324,-0.007 -0.1548,-0.0267 -0.1875,-0.0312 -0.0327,-0.005 -0.12334,-0.0288 -0.15625,-0.0312 -0.0329,-0.002 -0.1545,0.00037 -0.1875,0 -0.033,-0.00037 -0.15454,-0.002 -0.1875,0 a 0.658696,0.658696 0 0,0 -0.0312,0 z " transform="matrix(1.4426658,0,0,1.4467808,-218.11907,-1004.7918)"/>
</g>
<path style="fill:url(#linearGradient3983);clip-path:url(#clipPath3983)" id="path3979" d="m 184.12,701.5 a 2.2363,2.2363 0 0 0 -1.4688,0.90625 c 0,0 -3.328,4.7671 -4.0312,11.156 -5.0181,-4.0229 -10.75,-5.0625 -10.75,-5.0625 a 2.2363,2.2363 0 0 0 -2.5938,2.5625 c 0,0 1.034,5.7649 5.0625,10.781 -6.3978,0.70283 -11.188,4.0312 -11.188,4.0312 a 2.2363,2.2363 0 0 0 0,3.625 c 0,0 4.7948,3.3031 11.188,4 -4.0285,5.0164 -5.0625,10.781 -5.0625,10.781 a 2.2363,2.2363 0 0 0 2.5938,2.5625 c 0,0 5.7319,-1.0396 10.75,-5.0625 0.70267,6.3934 4.0312,11.188 4.0312,11.188 a 2.2363,2.2363 0 0 0 3.625,0 c 0,0 3.3111,-4.8145 4,-11.219 5.0262,4.0467 10.781,5.0938 10.781,5.0938 a 2.2363,2.2363 0 0 0 2.5938,-2.5938 c 0,0 -1.0624,-5.7373 -5.0938,-10.75 6.397,-0.69632 11.219,-4 11.219,-4 a 2.2363,2.2363 0 0 0 0,-3.625 c 0,0 -4.8167,-3.329 -11.219,-4.0312 4.0313,-5.0127 5.0938,-10.75 5.0938,-10.75 a 2.2363,2.2363 0 0 0 -2.59,-2.6 c 0,0 -5.755,1.047 -10.781,5.0938 -0.69265,-6.3936 -4,-11.188 -4,-11.188 a 2.2363,2.2363 0 0 0 -2.16,-0.91 z" transform="matrix(1.4426658,0,0,1.4467808,-218.11907,-1004.7918)"/>
<path style="fill:#d5be00" id="path3689" d="m 53.5704,30.685 c 0,9.58488 -5.56993,17.355 -5.56993,17.355 0,0 -5.56993,-7.77008 -5.56993,-17.355 0,-9.58488 5.56993,-17.355 5.56993,-17.355 0,0 5.56993,7.77008 5.56993,17.355 z "/>
<path style="fill:#edd400;filter:url(#filter4173);clip-path:url(#clipPath4169)" id="path4165" d="m 471.43,685.93 c 0,22.097 -12.842,40.01 -12.842,40.01 0,0 -12.842,-17.913 -12.842,-40.01 0,-22.097 12.842,-40.01 12.842,-40.01 0,0 12.842,17.913 12.842,40.01 z" transform="matrix(0.43371689,0,0,0.43378663,-150.90115,-266.84888)"/>
<path style="fill:#23446e" id="path3691" d="m 53.5704,65.3315 c 0,9.58487 -5.56993,17.355 -5.56993,17.355 0,0 -5.56993,-7.77008 -5.56993,-17.355 0,-9.58488 5.56993,-17.355 5.56993,-17.355 0,0 5.56993,7.77008 5.56993,17.355 z "/>
<path style="fill:#56aa07" id="path3693" d="m 65.2947,53.5897 c -9.56988,0 -17.3278,-5.57865 -17.3278,-5.57865 0,0 7.75787,-5.57865 17.3278,-5.57865 9.56988,0 17.3278,5.57865 17.3278,5.57865 0,0 -7.75787,5.57865 -17.3278,5.57865 z "/>
<path style="fill:#ca0f0f" id="path3695" d="m 30.7027,53.5897 c -9.56988,0 -17.3278,-5.57865 -17.3278,-5.57865 0,0 7.75787,-5.57865 17.3278,-5.57865 9.56988,0 17.3278,5.57865 17.3278,5.57865 0,0 -7.75787,5.57865 -17.3278,5.57865 z "/>
<path style="fill:#85b912" id="path3697" d="m 64.1683,39.7032 c -6.76678,6.77759 -16.1912,8.327 -16.1912,8.327 0,0 1.54718,-9.43911 8.3141,-16.2167 6.76692,-6.77759 16.1912,-8.32735 16.1912,-8.32735 0,0 -1.54718,9.43911 -8.3141,16.2167 z "/>
<path style="fill:#3465a4;filter:url(#filter4149);clip-path:url(#clipPath4145)" id="path4141" d="m 401.43,865.8 c 0,22.097 -12.842,40.01 -12.842,40.01 0,0 -12.842,-17.913 -12.842,-40.01 0,-22.097 12.842,-40.01 12.842,-40.01 0,0 12.842,17.913 12.842,40.01 z" transform="matrix(0.43371689,0,0,0.43378663,-120.54063,-310.22755)"/>
<path style="fill:#ef2929;filter:url(#filter4189);clip-path:url(#clipPath4181)" id="path4177" d="m 348.71,698.73 c -22.064,0 -39.951,-12.861 -39.951,-12.861 0,0 17.887,-12.861 39.951,-12.861 22.064,0 39.951,12.861 39.951,12.861 0,0 -17.887,12.861 -39.951,12.861 z" transform="matrix(0.43371689,0,0,0.43378663,-120.54063,-249.49951)"/>
<path style="fill:#593d5e" id="path3699" d="m 39.7083,64.2051 c -6.76678,6.77759 -16.1912,8.327 -16.1912,8.327 0,0 1.54718,-9.43911 8.3141,-16.2167 6.76692,-6.77759 16.1912,-8.32735 16.1912,-8.32735 0,0 -1.54718,9.4391 -8.3141,16.2167 z "/>
<path style="fill:#c96300" id="path3701" d="m 39.7083,31.8149 c 6.76678,6.77759 8.3141,16.2167 8.3141,16.2167 0,0 -9.42411,-1.54959 -16.1912,-8.327 -6.76783,-6.77584 -8.31515,-16.215 -8.31515,-16.215 0,0 9.42411,1.54962 16.1912,8.32735 z "/>
<path style="fill:#75507b;filter:url(#filter4201);clip-path:url(#clipPath4197)" id="path4193" d="m 299.47,763.2 c -15.602,15.625 -37.33,19.197 -37.33,19.197 0,0 3.5672,-21.76 19.169,-37.385 15.6018,-15.625 37.33,-19.197 37.33,-19.197 0,0 -3.5672,21.76 -19.169,37.385 z" transform="matrix(0.43371689,0,0,0.43378663,-90.18009,-266.84888)"/>
<path style="fill:#3f7bba" id="path3703" d="m 64.1683,56.3133 c 6.76678,6.77759 8.3141,16.2167 8.3141,16.2167 0,0 -9.42411,-1.54959 -16.1912,-8.327 -6.76678,-6.77759 -8.3141,-16.2167 -8.3141,-16.2167 0,0 9.42411,1.54962 16.1912,8.32735 z "/>
<path style="fill:#65c808;filter:url(#filter4137);clip-path:url(#clipPath4133)" id="path4129" d="m 538.47,738.73 c -22.064,0 -39.951,-12.861 -39.951,-12.861 0,0 17.887,-12.861 39.951,-12.861 22.064,0 39.951,12.861 39.951,12.861 0,0 -17.887,12.861 -39.951,12.861 z" transform="matrix(0.43371689,0,0,0.43378663,-168.25053,-266.84888)"/>
<path style="fill:#afea2c;filter:url(#filter4075);clip-path:url(#clipPath4071)" id="path4067" d="m 515.87,706.72 c -15.602,15.625 -37.33,19.197 -37.33,19.197 0,0 3.5672,-21.76 19.169,-37.385 15.6018,-15.625 37.33,-19.197 37.33,-19.197 0,0 -3.5672,21.76 -19.169,37.385 z" transform="matrix(0.43371689,0,0,0.43378663,-159.57757,-266.84888)"/>
<path style="fill:#729fcf;filter:url(#filter4087);clip-path:url(#clipPath4083)" id="path4079" d="m 515.87,745.01 c 15.602,15.625 19.169,37.385 19.169,37.385 0,0 -21.729,-3.5724 -37.33,-19.197 -15.602,-15.625 -19.169,-37.385 -19.169,-37.385 0,0 21.729,3.5724 37.33,19.197 z" transform="matrix(0.43371689,0,0,0.43378663,-159.57757,-266.84888)"/>
<path style="fill:#f57900;filter:url(#filter4161);clip-path:url(#clipPath4157)" id="path4153" d="m 269.47,688.53 c 15.602,15.625 19.169,37.385 19.169,37.385 0,0 -21.729,-3.5724 -37.33,-19.197 -15.602,-15.625 -19.169,-37.385 -19.169,-37.385 0,0 21.729,3.5724 37.33,19.197 z" transform="matrix(0.43371689,0,0,0.43378663,-77.168931,-266.84888)"/>
<g style="fill:#fff">
<path style="opacity:.1" id="path3705" d="m 55.3927,47.9121 c 0,4.26865 -3.45036,7.72891 -7.70678,7.72891 -4.25643,0 -7.70678,-3.46026 -7.70678,-7.72891 0,-4.26865 3.45036,-7.72891 7.70678,-7.72891 4.25643,0 7.70678,3.46026 7.70678,7.72891 z "/>
<path style="opacity:.1" id="path3707" d="m 64.27,47.8164 c 0,9.18889 -7.42764,16.6376 -16.5905,16.6376 -9.16289,0 -16.5905,-7.44872 -16.5905,-16.6376 0,-9.18889 7.42764,-16.6376 16.5905,-16.6376 9.16289,0 16.5905,7.44872 16.5905,16.6376 z "/>
<path style="opacity:.1" id="path3906" d="m 47.6908,23 c -1.44734,0 -2.85973,0.132344 -4.23918,0.370526 -0.602678,2.22306 -1.0244,4.69776 -1.0244,7.31254 0,1.75757 0.184523,3.45777 0.490385,5.0566 -0.912594,-1.34746 -1.97375,-2.68017 -3.21488,-3.92323 -1.87321,-1.87614 -3.94868,-3.34799 -5.97202,-4.50072 -2.50671,1.71216 -4.68381,3.87127 -6.41875,6.36434 1.15479,2.04074 2.63627,4.13735 4.52269,6.02642 1.23883,1.24075 2.55864,2.30197 3.9016,3.21488 -1.5928,-0.305004 -3.28439,-0.490385 -5.03498,-0.490385 -2.67055,0 -5.19505,0.441492 -7.45413,1.06799 -0.256226,1.43496 -0.403202,2.91567 -0.403202,4.4247 0,1.57783 0.156288,3.11333 0.435913,4.60988 2.25071,0.62158 4.76402,1.05707 7.42135,1.05707 1.74655,0 3.4342,-0.186596 5.02382,-0.490386 -1.33881,0.91113 -2.65531,1.97772 -3.89044,3.21488 -1.85654,1.85943 -3.32142,3.91834 -4.46794,5.92843 1.75862,2.5057 3.96682,4.66672 6.50593,6.37515 1.97758,-1.14046 4.00169,-2.582 5.83044,-4.41354 1.2411,-1.24305 2.30225,-2.57576 3.21488,-3.92323 -0.305879,1.59883 -0.490385,3.29903 -0.490385,5.0566 0,2.53747 0.395983,4.94431 0.969891,7.11621 1.39677,0.244404 2.82723,0.381442 4.29358,0.381442 1.6889,0 3.34245,-0.179258 4.93664,-0.501301 0.55654,-2.14034 0.937214,-4.50596 0.937214,-6.99624 0,-1.75764 -0.184496,-3.45774 -0.490385,-5.0566 0.912699,1.34767 1.97357,2.67996 3.21488,3.92323 1.72573,1.72842 3.62122,3.11905 5.49251,4.22837 2.5864,-1.78955 4.82225,-4.04982 6.57149,-6.66948 -1.10227,-1.85581 -2.47616,-3.7377 -4.18477,-5.44892 -1.23521,-1.23716 -2.56262,-2.30372 -3.9016,-3.21488 1.5928,0.305003 3.27347,0.490384 5.02382,0.490384 2.40945,0 4.70438,-0.353438 6.78945,-0.882707 0.301321,-1.55095 0.457709,-3.14479 0.457709,-4.78424 0,-1.57041 -0.147959,-3.10908 -0.425033,-4.59907 -2.09382,-0.534047 -4.39959,-0.893624 -6.82188,-0.893624 -1.75816,0 -3.44672,0.183 -5.04579,0.490387 1.34534,-0.914025 2.68213,-1.9718 3.92323,-3.21488 1.73839,-1.74114 3.12746,-3.65993 4.23918,-5.54692 -1.72395,-2.60509 -3.92253,-4.86585 -6.47315,-6.65867 -1.92053,1.12396 -3.87231,2.54005 -5.64526,4.31555 -1.24131,1.24323 -2.30218,2.57555 -3.21488,3.92323 0.305907,-1.59886 0.490386,-3.29896 0.490386,-5.0566 0,-2.56753 -0.406586,-5.00045 -0.991721,-7.19258 -1.57755,-0.315007 -3.21237,-0.490387 -4.88224,-0.490387 z "/>
</g>
</g>
</svg>
