<svg width="96" version="1.0" xmlns="http://www.w3.org/2000/svg" height="96" xmlns:xlink="http://www.w3.org/1999/xlink">
<defs id="defs2410">
<clipPath id="clipPath3613">
<rect width="84" x="6" y="6" rx="6" height="84" ry="6" style="fill:#fff;stroke:none" id="rect3615"/>
</clipPath>
<filter style="color-interpolation-filters:sRGB" id="filter3174">
<feGaussianBlur stdDeviation="1.71" id="feGaussianBlur3176"/>
</filter>
<filter width="1.3839999" x="-0.192" y="-0.192" height="1.3839999" style="color-interpolation-filters:sRGB" id="filter3794">
<feGaussianBlur stdDeviation="5.28" id="feGaussianBlur3796"/>
</filter>
<linearGradient id="linearGradient10392" xlink:href="#linearGradient10386" y1="68.171875" x1="58.651787" y2="57.993305" x2="47.450871" gradientUnits="userSpaceOnUse"/>
<linearGradient gradientTransform="translate(0,100)" id="linearGradient9632" xlink:href="#linearGradient3715" y1="90" x1="48" y2="5.9877172" x2="48" gradientUnits="userSpaceOnUse"/>
<linearGradient gradientTransform="translate(0.75761441,1.767767)" id="linearGradient8202" xlink:href="#linearGradient8204" y1="81.5" x1="39.479939" y2="6.2799916" x2="39.479939" gradientUnits="userSpaceOnUse"/>
<linearGradient id="linearGradient10400" xlink:href="#linearGradient10394" y1="35.60585" x1="60.899021" y2="39.53442" x2="68.2229" gradientUnits="userSpaceOnUse"/>
<linearGradient gradientTransform="translate(0,-97)" id="linearGradient3721" xlink:href="#ButtonShadow-0" y1="6.1317081" x1="32.251034" y2="90.238609" x2="32.251034" gradientUnits="userSpaceOnUse"/>
<linearGradient gradientTransform="matrix(1.0238095,0,0,1.0119048,-1.1428571,-98.071429)" id="linearGradient3725" xlink:href="#ButtonShadow-0" y1="6.1317081" x1="32.251034" y2="90.238609" x2="32.251034" gradientUnits="userSpaceOnUse"/>
<linearGradient gradientTransform="matrix(1.0238095,0,0,1.0119048,-1.1428571,-98.071429)" id="linearGradient3772" xlink:href="#ButtonShadow-0" y1="6.1317081" x1="32.251034" y2="90.238609" x2="32.251034" gradientUnits="userSpaceOnUse"/>
<linearGradient gradientTransform="matrix(0.72549189,-0.19431313,0.19481343,0.72674756,26.254071,18.267752)" id="linearGradient8183" xlink:href="#linearGradient6531" y1="77.502068" x1="24.248737" y2="67.6745" x2="13.405647" gradientUnits="userSpaceOnUse"/>
<linearGradient gradientTransform="matrix(1.0238095,0,0,1.0119048,-1.1428571,-98.071429)" id="linearGradient3780" xlink:href="#ButtonShadow-0" y1="6.1317081" x1="32.251034" y2="90.238609" x2="32.251034" gradientUnits="userSpaceOnUse"/>
<linearGradient gradientTransform="matrix(1.0642506,0.22253363,-0.33932139,0.69795647,25.389673,15.671146)" id="linearGradient10458" xlink:href="#linearGradient11508" y1="82.473648" x1="43.700191" y2="16.211916" x2="77.923637" gradientUnits="userSpaceOnUse"/>
<linearGradient gradientTransform="matrix(1.037083,0.14898509,-0.15896024,0.97200342,11.601829,-3.9991772)" id="linearGradient10454" xlink:href="#linearGradient11508" y1="82.473648" x1="43.700191" y2="6.208179" x2="87.732079" gradientUnits="userSpaceOnUse"/>
<linearGradient gradientTransform="matrix(1.0058652,0,0,0.994169,100,0)" id="ButtonShadow-0" y1="92.539597" x1="45.447727" y2="7.0165396" x2="45.447727" gradientUnits="userSpaceOnUse">
<stop offset="0" id="stop3750-8"/>
<stop offset="1" style="stop-opacity:.588" id="stop3752-5"/>
</linearGradient>
<linearGradient id="linearGradient6531">
<stop offset="0" style="stop-color:#c38125" id="stop6533"/>
<stop offset="0.62962961" style="stop-color:#c68d31" id="stop10377"/>
<stop offset="1" style="stop-color:#fffce6" id="stop6535"/>
</linearGradient>
<linearGradient id="linearGradient3715">
<stop offset="0" style="stop-color:#3767a3" id="stop3717"/>
<stop offset="1" style="stop-color:#6593c6" id="stop3719"/>
</linearGradient>
<linearGradient gradientTransform="matrix(1.0238095,0,0,1.0119048,-1.1428571,-98.071429)" id="linearGradient3122" xlink:href="#ButtonShadow-0" y1="6.1317081" x1="32.251034" y2="90.238609" x2="32.251034" gradientUnits="userSpaceOnUse"/>
<linearGradient id="linearGradient8204">
<stop offset="0" style="stop-color:#fff" id="stop8206"/>
<stop offset="1" style="stop-color:#50caff;stop-opacity:0" id="stop8208"/>
</linearGradient>
<linearGradient id="linearGradient10394">
<stop offset="0" style="stop-color:#1a1a1a" id="stop10396"/>
<stop offset="0.35185185" style="stop-color:#636363" id="stop10404"/>
<stop offset="0.5" style="stop-color:#c7c7c7" id="stop10402"/>
<stop offset="0.64999998" style="stop-color:#636363" id="stop10406"/>
<stop offset="1" id="stop10398"/>
</linearGradient>
<linearGradient id="linearGradient10410">
<stop offset="0" style="stop-color:#fff" id="stop10412"/>
<stop offset="1" style="stop-color:#fff;stop-opacity:0" id="stop10414"/>
</linearGradient>
<linearGradient id="linearGradient10386">
<stop offset="0" style="stop-color:#fff" id="stop10388"/>
<stop offset="1" style="stop-color:#fff;stop-opacity:0" id="stop10390"/>
</linearGradient>
<linearGradient gradientTransform="scale(1.0058652,0.994169)" id="ButtonShadow" y1="92.539597" x1="45.447727" y2="7.0165396" x2="45.447727" gradientUnits="userSpaceOnUse">
<stop offset="0" id="stop3750"/>
<stop offset="1" style="stop-opacity:.588" id="stop3752"/>
</linearGradient>
<linearGradient id="linearGradient11508">
<stop offset="0" id="stop11510"/>
<stop offset="1" style="stop-opacity:0" id="stop11512"/>
</linearGradient>
<linearGradient id="linearGradient3617" xlink:href="#linearGradient3715" y1="90" x1="48" y2="5.9877172" x2="48" gradientUnits="userSpaceOnUse"/>
<linearGradient id="linearGradient3613" xlink:href="#linearGradient3737" y1="20.220806" x1="48" y2="138.66119" x2="48" gradientUnits="userSpaceOnUse"/>
<linearGradient id="linearGradient3737">
<stop offset="0" style="stop-color:#fff" id="stop3739"/>
<stop offset="1" style="stop-color:#fff;stop-opacity:0" id="stop3741"/>
</linearGradient>
<linearGradient id="linearGradient3188" xlink:href="#linearGradient3737" y1="6" x1="36.357143" y2="63.893143" x2="36.357143" gradientUnits="userSpaceOnUse"/>
<radialGradient fx="48" fy="90.171875" cx="48" cy="90.171875" gradientTransform="matrix(1.1573129,0,0,0.99590774,-7.5510206,0.19713193)" r="42" id="radialGradient3619" xlink:href="#linearGradient3737" gradientUnits="userSpaceOnUse"/>
<radialGradient fx="59.85154" fy="41.7043" cx="59.85154" cy="41.7043" gradientTransform="matrix(1,0,0,0.125,0,36.491262)" r="18.182745" id="radialGradient10416" xlink:href="#linearGradient10410" gradientUnits="userSpaceOnUse"/>
</defs>
<g style="display:none" id="layer2">
<rect width="86" x="5" y="7" rx="6" height="85" ry="6" style="opacity:.9;fill:url(#ButtonShadow);filter:url(#filter3174);stroke:none" id="rect3745"/>
</g>
<g style="stroke:none" id="layer3">
<path style="opacity:.08;fill:url(#linearGradient3122)" id="path3786" d="m 12,-95.0312 c -5.51109,0 -10.0312,4.52016 -10.0312,10.0312 v 71 c 0,5.51109 4.52016,10.0312 10.0312,10.0312 h 72 c 5.51109,0 10.0312,-4.52016 10.0312,-10.0312 v -71 c 0,-5.51109 -4.52016,-10.0312 -10.0312,-10.0312 h -72 z " transform="scale(1,-1)"/>
<path style="opacity:.1;fill:url(#linearGradient3780)" id="path3778" d="m 12,-94.0312 c -4.97163,0 -9.03125,4.05962 -9.03125,9.03125 v 71 c 0,4.97163 4.05962,9.03125 9.03125,9.03125 h 72 c 4.97163,0 9.03125,-4.05962 9.03125,-9.03125 v -71 c 0,-4.97163 -4.05962,-9.03125 -9.03125,-9.03125 h -72 z " transform="scale(1,-1)"/>
<path style="opacity:.2;fill:url(#linearGradient3772)" id="path3770" d="m 12,-93 c -4.40913,0 -8,3.59087 -8,8 v 71 c 0,4.40913 3.59087,8 8,8 h 72 c 4.40913,0 8,-3.59087 8,-8 v -71 c 0,-4.40913 -3.59087,-8 -8,-8 h -72 z " transform="scale(1,-1)"/>
<rect width="86" x="5" y="-92" rx="7" height="85" ry="7" style="opacity:.3;fill:url(#linearGradient3725)" id="rect3723" transform="scale(1,-1)"/>
<rect width="84" x="6" y="-91" rx="6" height="84" ry="6" style="opacity:.45;fill:url(#linearGradient3721)" id="rect3716" transform="scale(1,-1)"/>
</g>
<g style="stroke:none" id="layer1">
<rect width="84" x="6" y="6" rx="6" height="84" ry="6" style="fill:url(#linearGradient3617)" id="rect2419"/>
<path style="opacity:.35;fill:url(#linearGradient3188)" id="rect3728" d="m 12,6 c -3.324,0 -6,2.676 -6,6 v 2 68 2 c 0,0.334721 0.04135,0.6507 0.09375,0.96875 0.0487,0.295596 0.09704,0.596915 0.1875,0.875 0.00988,0.03038 0.020892,0.0636 0.03125,0.09375 0.098865,0.287771 0.23488,0.547452 0.375,0.8125 0.144592,0.273507 0.315616,0.535615 0.5,0.78125 0.184384,0.245635 0.373776,0.473472 0.59375,0.6875 0.439947,0.428056 0.94291,0.814526 1.5,1.09375 0.278545,0.139612 0.573473,0.246947 0.875,0.34375 -0.256202,-0.100222 -0.486711,-0.236272 -0.71875,-0.375 -0.00741,-0.0044 -0.023866,0.0045 -0.03125,0 -0.031933,-0.0193 -0.062293,-0.04251 -0.09375,-0.0625 -0.120395,-0.0767 -0.231023,-0.163513 -0.34375,-0.25 -0.106173,-0.0808 -0.213281,-0.161112 -0.3125,-0.25 -0.17793,-0.161433 -0.34746,-0.345388 -0.5,-0.53125 -0.107579,-0.130255 -0.218394,-0.265285 -0.3125,-0.40625 -0.025089,-0.03838 -0.038446,-0.08587 -0.0625,-0.125 -0.064763,-0.103032 -0.130228,-0.204517 -0.1875,-0.3125 -0.101008,-0.194706 -0.205675,-0.415701 -0.28125,-0.625 -0.00796,-0.02181 -0.023589,-0.04055 -0.03125,-0.0625 -0.0318251,-0.09195 -0.0358045,-0.186831 -0.0625,-0.28125 -0.0303323,-0.106618 -0.0703894,-0.203031 -0.09375,-0.3125 -0.0728786,-0.341512 -0.125,-0.698205 -0.125,-1.0625 v -2 -68 -2 c 0,-2.78185 2.21815,-5 5,-5 h 2 68 2 c 2.78185,0 5,2.21815 5,5 v 2 68 2 c 0,0.364295 -0.05212,0.720988 -0.125,1.0625 -0.04415,0.206893 -0.08838,0.397658 -0.15625,0.59375 -0.0077,0.02195 -0.0233,0.04069 -0.03125,0.0625 -0.06274,0.173739 -0.138383,0.367449 -0.21875,0.53125 -0.04158,0.0828 -0.07904,0.169954 -0.125,0.25 -0.0546,0.09721 -0.126774,0.18835 -0.1875,0.28125 -0.09411,0.140965 -0.204921,0.275995 -0.3125,0.40625 -0.143174,0.17445 -0.303141,0.346998 -0.46875,0.5 -0.01117,0.0102 -0.01998,0.02115 -0.03125,0.03125 -0.138386,0.125556 -0.285091,0.234436 -0.4375,0.34375 -0.102571,0.07315 -0.204318,0.153364 -0.3125,0.21875 -0.0074,0.0045 -0.02384,-0.0044 -0.03125,0 -0.232039,0.138728 -0.462548,0.274778 -0.71875,0.375 0.301527,-0.0968 0.596455,-0.204138 0.875,-0.34375 0.55709,-0.279224 1.06005,-0.665694 1.5,-1.09375 0.219973,-0.214028 0.409366,-0.441865 0.59375,-0.6875 0.184384,-0.245635 0.355408,-0.507743 0.5,-0.78125 0.14012,-0.265048 0.276135,-0.524729 0.375,-0.8125 0.01041,-0.03078 0.02133,-0.06274 0.03125,-0.09375 0.09046,-0.278085 0.1388,-0.579404 0.1875,-0.875 0.0524,-0.31805 0.09375,-0.634029 0.09375,-0.96875 v -2 -68 -2 c 0,-3.324 -2.676,-6 -6,-6 h -72 z "/>
<path style="opacity:.2;fill:url(#radialGradient3619)" id="path3615" d="M 12,90 C 8.676,90 6,87.324 6,84 L 6,82 6,14 6,12 c 0,-0.334721 0.04135,-0.6507 0.09375,-0.96875 0.0487,-0.295596 0.09704,-0.596915 0.1875,-0.875 C 6.29113,10.12587 6.302142,10.09265 6.3125,10.0625 6.411365,9.774729 6.5473802,9.515048 6.6875,9.25 6.8320918,8.976493 7.0031161,8.714385 7.1875,8.46875 7.3718839,8.223115 7.5612765,7.995278 7.78125,7.78125 8.221197,7.353194 8.72416,6.966724 9.28125,6.6875 9.559795,6.547888 9.8547231,6.440553 10.15625,6.34375 9.9000482,6.443972 9.6695391,6.580022 9.4375,6.71875 c -0.00741,0.0044 -0.023866,-0.0045 -0.03125,0 -0.031933,0.0193 -0.062293,0.04251 -0.09375,0.0625 -0.120395,0.0767 -0.2310226,0.163513 -0.34375,0.25 -0.1061728,0.0808 -0.2132809,0.161112 -0.3125,0.25 C 8.4783201,7.442683 8.3087904,7.626638 8.15625,7.8125 8.0486711,7.942755 7.9378561,8.077785 7.84375,8.21875 7.818661,8.25713 7.805304,8.30462 7.78125,8.34375 7.716487,8.446782 7.6510225,8.548267 7.59375,8.65625 7.4927417,8.850956 7.3880752,9.071951 7.3125,9.28125 7.30454,9.30306 7.288911,9.3218 7.28125,9.34375 7.2494249,9.4357 7.2454455,9.530581 7.21875,9.625 7.1884177,9.731618 7.1483606,9.828031 7.125,9.9375 7.0521214,10.279012 7,10.635705 7,11 l 0,2 0,68 0,2 c 0,2.781848 2.2181517,5 5,5 l 2,0 68,0 2,0 c 2.781848,0 5,-2.218152 5,-5 l 0,-2 0,-68 0,-2 C 89,10.635705 88.94788,10.279012 88.875,9.9375 88.83085,9.730607 88.78662,9.539842 88.71875,9.34375 88.71105,9.3218 88.69545,9.30306 88.6875,9.28125 88.62476,9.107511 88.549117,8.913801 88.46875,8.75 88.42717,8.6672 88.38971,8.580046 88.34375,8.5 88.28915,8.40279 88.216976,8.31165 88.15625,8.21875 88.06214,8.077785 87.951329,7.942755 87.84375,7.8125 87.700576,7.63805 87.540609,7.465502 87.375,7.3125 87.36383,7.3023 87.35502,7.29135 87.34375,7.28125 87.205364,7.155694 87.058659,7.046814 86.90625,6.9375 86.803679,6.86435 86.701932,6.784136 86.59375,6.71875 c -0.0074,-0.0045 -0.02384,0.0044 -0.03125,0 -0.232039,-0.138728 -0.462548,-0.274778 -0.71875,-0.375 0.301527,0.0968 0.596455,0.204138 0.875,0.34375 0.55709,0.279224 1.060053,0.665694 1.5,1.09375 0.219973,0.214028 0.409366,0.441865 0.59375,0.6875 0.184384,0.245635 0.355408,0.507743 0.5,0.78125 0.14012,0.265048 0.276135,0.524729 0.375,0.8125 0.01041,0.03078 0.02133,0.06274 0.03125,0.09375 0.09046,0.278085 0.1388,0.579404 0.1875,0.875 C 89.95865,11.3493 90,11.665279 90,12 l 0,2 0,68 0,2 c 0,3.324 -2.676,6 -6,6 l -72,0 z"/>
<rect width="84" x="6" y="106" rx="6" height="84" ry="6" style="fill:url(#linearGradient9632)" id="rect9628"/>
</g>
<g id="layer5">
<rect width="66" x="15" y="15" rx="12" height="66" ry="12" style="opacity:.1;fill:url(#linearGradient3613);filter:url(#filter3794);stroke:#fff;stroke-linecap:round;stroke-width:.5;clip-path:url(#clipPath3613)" id="rect3171"/>
</g>
<g id="g3802">
<g style="stroke:none">
<path style="opacity:.3;fill:url(#linearGradient10458)" id="path10456" d="m 90,46.8438 c -4.52666,2.45708 -8.94671,4.89826 -12.9375,7.625 -5.36092,3.66289 -9.11827,7.33052 -10.8438,10.125 -0.0078,0.01278 -0.02345,0.01851 -0.03125,0.03125 -1.05037,0.629696 -8.58142,5.17354 -12.4062,7.8125 -4.17568,2.88103 -11.2188,10.25 -11.2188,10.25 l .8125,.5 c 6.92139,-3.22716 20.8438,-6.4375 20.8438,-6.4375 l .4688,-.125 -.125,-.3125 c 0,0 -0.06096,-0.130401 0,-0.53125 0.06098,-0.400847 0.267268,-1.03136 0.78125,-1.875 1.11683,-1.83317 3.93852,-3.76786 5.84375,-4.9375 4.39419,-1.08472 10.6107,-3.97765 16.4062,-7.9375 0.823172,-0.562439 1.61285,-1.13655 2.40625,-1.71875 v -12.4688 z "/>
<path style="opacity:.2;fill:url(#linearGradient10454)" id="path10430" d="m 90,15.625 c -7.15985,8.93153 -15.4478,16.1538 -21.8125,24.7188 -4.15583,5.59249 -6.8044,10.9954 -7.78125,14.9375 -0.0044,0.01801 -0.02686,0.04455 -0.03125,0.0625 -0.833902,0.97909 -6.79068,7.97599 -9.75,12 -3.23078,4.39314 -8.125,15.125 -8.125,15.125 l .875,.5625 c 5.7009,-5.22894 17.875,-11.375 17.875,-11.375 l .4062,-.2188 -.1562,-.4062 c 0,0 -0.09207,-0.178891 -0.125,-0.71875 -0.03294,-0.539858 -0.0072,-1.4046 0.28125,-2.59375 0.62682,-2.58391 2.8373,-5.5314 4.34375,-7.34375 3.83462,-2.04138 8.94476,-6.70411 13.4375,-12.75 3.86181,-5.19683 7.0818,-10.8411 10.5625,-16.6562 v -15.3438 z "/>
<path style="fill:url(#linearGradient8202)" id="path8185" d="m 24.1562,6 c 16.0289,21.143 -17.5827,35.3802 -13.0625,52.25 4.40056,16.4231 24.2733,15.5956 31.4375,24.5312 -4.94512,-9.60335 -11.7084,-9.11799 -14.375,-18.125 -6.78046,-22.9025 63.7034,-34.3438 40.8125,-58.6562 h -44.8125 z "/>
</g>
<path style="fill:url(#linearGradient10400);stroke:#000" id="path10375" d="m 71.4409,41.8722 c -4.97351,10.1334 -11.9917,17.3399 -14.5468,15.9672 -2.72539,-1.46425 -1.40781,-10.8033 3.69539,-21.2009 5.102,-10.3952 13.0519,-19.4049 18.277,-31.0113 0.995766,-2.2119 2.9241,-5.47972 5.66183,-4.09173 2.83771,1.43868 2.06781,4.13085 0.568563,7.18882 -5.78979,11.8092 -8.6824,23.0145 -13.6559,33.1479 z "/>
<path style="fill:none;stroke:#2e3436;stroke-linecap:round;stroke-width:3.538" id="path4343" d="m 60.4576,78.052 a 5.48008,7.77817 0 1,1 -10.9602,0 5.48008,7.77817 0 1,1 10.9602,0 z " transform="matrix(0.63302987,-0.16954844,0.23046163,0.42762767,6.3123362,29.06751)"/>
<g style="stroke:#c17d11">
<path style="fill:url(#linearGradient8183);fill-rule:evenodd" id="path4341" d="m 42.944,82.5807 c 0,0 2.9568,-11.5322 5.25815,-16.2795 2.30135,-4.74726 7.74242,-14.1909 7.74242,-14.1909 0,0 1.56986,-2.34821 4.104,-1.0992 2.53414,1.24901 1.80266,3.64806 1.80266,3.64806 0,0 -3.82162,5.75564 -4.13956,10.1967 -0.183273,2.55997 0.416839,3.60614 0.416839,3.60614 0,0 -10.5248,7.91367 -15.1845,14.1188 z "/>
<path style="fill-opacity:.6;stroke-linecap:round;stroke-width:.639" id="path6537" d="m -27.9307,71.8649 a 1.23744,3.0052 0 1,1 -2.47487,0 1.23744,3.0052 0 1,1 2.47487,0 z " transform="matrix(0.49816294,0.21338024,-0.22864746,0.45310119,80.994343,39.610695)"/>
<path style="fill:#c17d11;fill-rule:evenodd;stroke-width:.343" id="path8007" d="m 43.0034,82.2894 c 2.0864,-5.37817 3.5755,-9.90788 6.18441,-14.8752"/>
</g>
<g style="stroke:none">
<rect width="84" x="6" y="106" rx="6" height="84" ry="6" style="fill:url(#linearGradient9632)" id="rect10342"/>
<path id="path10372" d="m 145.6483,103.6487 c 0,22.5437 -4.0671,41.5963 -7.83928,41.3438 -4.02362,-0.26937 -7.83929,-18.2122 -7.83929,-41.3438 0,-23.1261 3.57086,-46.2225 3.57086,-71.6425 0,-11.3817 -0.60662,-12.4148 4.26843,-12.2727 4.87505,0.142053 4.80612,1.12614 4.7863,12.4384 -0.046,26.2659 3.05298,48.933 3.05298,71.4767 z "/>
<path style="fill:url(#linearGradient10392);fill-rule:evenodd" id="path10381" d="m 59.6875,52.6562 c -0.218866,0.177715 -0.364551,0.362516 -0.375,0.375 -6.1e-05,0.000107 -0.03118,-0.000123 -0.03125,0 -0.07544,0.130951 -5.41,9.43086 -7.625,14 -0.754704,1.55682 -1.65246,4.0696 -2.46875,6.65625 3.37661,-3.03934 6.27352,-5.21746 7.0625,-5.8125 -0.150656,-0.740855 -0.255031,-1.77647 -0.15625,-3.15625 0.188582,-2.63412 1.30599,-5.29034 2.34375,-7.375 0.939337,-1.88695 1.67893,-2.9971 1.84375,-3.25 0.011,-0.04406 0.05429,-0.211139 0,-0.53125 -0.05032,-0.296727 -0.105839,-0.58654 -0.59375,-0.90625 z "/>
<path style="fill:url(#radialGradient10416)" id="path10408" d="m 78.0343,41.7043 a 18.1827,2.27284 0 1,1 -36.3655,0 18.1827,2.27284 0 1,1 36.3655,0 z " transform="matrix(0.46309937,-0.88630637,0.88630637,0.46309937,0.97991999,69.376951)"/>
<path style="opacity:.6;fill:#fff" id="path10418" d="m 66.6562,29.3438 c -0.77115,0 -1.52294,0.133966 -2.25,0.34375 -0.34567,0.578188 -0.664891,1.16833 -1,1.75 0.410501,-0.06213 0.827002,-0.09375 1.25,-0.09375 3.56154,0 6.75709,2.358 8.84375,6.03125 0.439471,-1.02777 0.86359,-2.07807 1.28125,-3.125 -2.06573,-3.01957 -4.94249,-4.90625 -8.125,-4.90625 z "/>
<path style="opacity:.3" id="path10464" d="m 182.8501,34.1272 c -0.4215,-0.09045 -0.87404,-0.08218 -1.29127,0.01834 -0.41724,0.10052 -0.78965,0.280361 -1.20404,0.517148 -0.82877,0.473572 -1.81398,1.20612 -3.32238,2.23676 -9.7898,6.68895 -20.9564,11.4066 -29.9748,17.5685 -5.36092,3.66289 -9.10058,7.34045 -10.8261,10.1349 -0.008,0.01278 -0.0467,0.02393 -0.0545,0.03667 -1.05037,0.629696 -8.5716,5.14922 -12.3964,7.78818 -4.17565,2.88103 -11.2102,10.2468 -11.2102,10.2468 l .816,.507 c 6.9214,-3.22716 20.8246,-6.43434 20.8246,-6.43434 l .4613,-.1198 -.1056,-.3104 c 0,0 -0.0499,-0.149487 0.0111,-0.550336 0.061,-0.400847 0.2437,-1.01631 0.75769,-1.85995 1.11682,-1.83317 3.94618,-3.78213 5.85141,-4.95177 4.39419,-1.08472 10.6169,-3.94973 16.4124,-7.90958 8.78601,-6.00311 15.6299,-13.2018 25.7843,-20.1026 2.19559,-1.4921 3.46177,-2.26063 3.82367,-3.1171 0.18098,-0.428227 0.0608,-0.869316 -0.30126,-1.26441 -0.36205,-0.395095 -0.9376,-0.780208 -1.6923,-1.26694 -0.94662,-0.610505 -1.60709,-1.00468 -2.36372,-1.16705 z "/>
</g>
</g>
</svg>
