<svg width="96" version="1.0" xmlns="http://www.w3.org/2000/svg" height="96" xmlns:xlink="http://www.w3.org/1999/xlink">
<defs id="defs2410">
<clipPath id="clipPath2521">
<rect width="131.18726" x="-17.694021" y="-17.09572" rx="9.3705187" height="131.18726" ry="9.3705187" style="fill:#fff;stroke:none" id="rect2523"/>
</clipPath>
<clipPath id="clipPath3733">
<rect width="74.696693" x="10.399113" y="11.328045" rx="6" height="73.388969" ry="6" style="fill:#fff;stroke:none" id="rect3735"/>
</clipPath>
<filter style="color-interpolation-filters:sRGB" id="filter3174">
<feGaussianBlur stdDeviation="1.71" id="feGaussianBlur3176"/>
</filter>
<linearGradient gradientTransform="matrix(1.0777455,0,0,1.0777455,-5.3852936,-3.7077624)" id="linearGradient4571" xlink:href="#linearGradient4321" y1="24.14736" x1="48.916553" y2="24.14736" x2="97.732262" gradientUnits="userSpaceOnUse"/>
<linearGradient id="linearGradient3294" xlink:href="#linearGradient3287" y1="21.75379" x1="47.855976" y2="52.816315" x2="47.855976" gradientUnits="userSpaceOnUse"/>
<linearGradient id="linearGradient3255" xlink:href="#linearGradient3257" y1="90" x1="48" y2="5.9877172" x2="48" gradientUnits="userSpaceOnUse"/>
<linearGradient gradientTransform="matrix(1.0238095,0,0,1.0119048,-1.1428571,-98.071429)" id="linearGradient2969" xlink:href="#ButtonShadow-0" y1="6.1317081" x1="32.251034" y2="90.238609" x2="32.251034" gradientUnits="userSpaceOnUse"/>
<linearGradient gradientTransform="matrix(0,1.0777456,-1.0777456,0,101.3184,-7.3440125)" id="linearGradient4549" xlink:href="#linearGradient4341" y1="22.625397" x1="56.270466" y2="23.509279" x2="53.392128" gradientUnits="userSpaceOnUse"/>
<linearGradient gradientTransform="matrix(1.0777455,0,0,1.0777455,-5.3852936,-3.7077624)" id="linearGradient4567" xlink:href="#linearGradient4341" y1="22.625397" x1="56.270466" y2="23.509279" x2="53.392128" gradientUnits="userSpaceOnUse"/>
<linearGradient gradientTransform="matrix(0,1.0777456,-1.0777456,0,101.3184,-7.3440125)" id="linearGradient4553" xlink:href="#linearGradient4321" y1="24.14736" x1="48.916553" y2="24.14736" x2="97.732262" gradientUnits="userSpaceOnUse"/>
<linearGradient gradientTransform="matrix(0.7620812,0.7620812,-0.7620812,0.7620812,48.272417,-29.567134)" id="linearGradient4560" xlink:href="#linearGradient4321" y1="24.14736" x1="48.916553" y2="24.14736" x2="97.732262" gradientUnits="userSpaceOnUse"/>
<linearGradient gradientTransform="matrix(0.7620812,0.7620812,-0.7620812,0.7620812,48.272417,-29.567134)" id="linearGradient4556" xlink:href="#linearGradient4341" y1="22.625397" x1="56.270466" y2="23.509279" x2="53.392128" gradientUnits="userSpaceOnUse"/>
<linearGradient id="linearGradient3298" xlink:href="#linearGradient3287" y1="21.75379" x1="47.855976" y2="52.816315" x2="47.855976" gradientUnits="userSpaceOnUse"/>
<linearGradient gradientTransform="matrix(-0.7620812,0.7620812,-0.7620812,-0.7620812,123.30024,45.94078)" id="linearGradient4542" xlink:href="#linearGradient4341" y1="22.625397" x1="56.270466" y2="23.509279" x2="53.392128" gradientUnits="userSpaceOnUse"/>
<linearGradient gradientTransform="matrix(1.0238095,0,0,1.0119048,-1.1428571,-98.071429)" id="linearGradient3725" xlink:href="#ButtonShadow-0" y1="6.1317081" x1="32.251034" y2="90.238609" x2="32.251034" gradientUnits="userSpaceOnUse"/>
<linearGradient gradientTransform="matrix(1.0238095,0,0,1.0119048,-1.1428571,-98.071429)" id="linearGradient3780" xlink:href="#ButtonShadow-0" y1="6.1317081" x1="32.251034" y2="90.238609" x2="32.251034" gradientUnits="userSpaceOnUse"/>
<linearGradient gradientTransform="matrix(1.0238095,0,0,1.0119048,-1.1428571,-98.071429)" id="linearGradient3772" xlink:href="#ButtonShadow-0" y1="6.1317081" x1="32.251034" y2="90.238609" x2="32.251034" gradientUnits="userSpaceOnUse"/>
<linearGradient gradientTransform="matrix(1.0058652,0,0,0.994169,100,0)" id="ButtonShadow-0" y1="92.539597" x1="45.447727" y2="7.0165396" x2="45.447727" gradientUnits="userSpaceOnUse">
<stop offset="0" id="stop3750-8"/>
<stop offset="1" style="stop-opacity:.588" id="stop3752-5"/>
</linearGradient>
<linearGradient id="linearGradient3310" xlink:href="#linearGradient3304" y1="47.405834" x1="51.98505" y2="7.7924976" x2="51.98505" gradientUnits="userSpaceOnUse"/>
<linearGradient gradientTransform="translate(0,-97)" id="linearGradient3721" xlink:href="#ButtonShadow-0" y1="6.1317081" x1="32.251034" y2="90.238609" x2="32.251034" gradientUnits="userSpaceOnUse"/>
<linearGradient id="linearGradient3432" xlink:href="#linearGradient3260" y1="47.260139" x1="14.647209" y2="47.260139" x2="84.0952" gradientUnits="userSpaceOnUse"/>
<linearGradient id="linearGradient3737-5">
<stop offset="0" style="stop-color:#fff" id="stop3739-9"/>
<stop offset="1" style="stop-color:#fff;stop-opacity:0" id="stop3741-4"/>
</linearGradient>
<linearGradient id="linearGradient3301" xlink:href="#linearGradient3268" y1="46.186852" x1="10.480331" y2="46.186852" x2="81.064743" gradientUnits="userSpaceOnUse"/>
<linearGradient gradientTransform="matrix(-0.7620812,0.7620812,-0.7620812,-0.7620812,123.30024,45.94078)" id="linearGradient4546" xlink:href="#linearGradient4321" y1="24.14736" x1="48.916553" y2="24.14736" x2="97.732262" gradientUnits="userSpaceOnUse"/>
<linearGradient id="linearGradient3257">
<stop offset="0" style="stop-color:#aaa" id="stop3259"/>
<stop offset="1" style="stop-color:#d2d2d2" id="stop3261"/>
</linearGradient>
<linearGradient gradientTransform="scale(1.0058652,0.994169)" id="ButtonShadow" y1="92.539597" x1="45.447727" y2="7.0165396" x2="45.447727" gradientUnits="userSpaceOnUse">
<stop offset="0" id="stop3750"/>
<stop offset="1" style="stop-opacity:.588" id="stop3752"/>
</linearGradient>
<linearGradient id="linearGradient4692">
<stop offset="0" style="stop-opacity:0" id="stop4694"/>
<stop offset="0.53445506" style="stop-opacity:0" id="stop3355"/>
<stop offset="0.88368797" style="stop-opacity:.504" id="stop3289"/>
<stop offset="1" style="stop-opacity:.862" id="stop4696"/>
</linearGradient>
<linearGradient id="linearGradient4321">
<stop offset="0" style="stop-color:#959595" id="stop4323"/>
<stop offset="1" style="stop-color:#5d5d5d" id="stop4325"/>
</linearGradient>
<linearGradient id="linearGradient4341">
<stop offset="0" id="stop4343"/>
<stop offset="1" style="stop-opacity:0" id="stop4345"/>
</linearGradient>
<linearGradient id="linearGradient3268">
<stop offset="0" style="stop-color:#e4e4e4" id="stop3270"/>
<stop offset="1" style="stop-color:#7a7a7a" id="stop3272"/>
</linearGradient>
<linearGradient id="linearGradient3303">
<stop offset="0" style="stop-color:#f1b9ff" id="stop3305"/>
<stop offset="1" style="stop-color:#fff;stop-opacity:0" id="stop3307"/>
</linearGradient>
<linearGradient id="linearGradient3260">
<stop offset="0" id="stop3262"/>
<stop offset="1" style="stop-opacity:0" id="stop3264"/>
</linearGradient>
<linearGradient id="linearGradient3383">
<stop offset="0" style="stop-color:#fff;stop-opacity:0" id="stop3385"/>
<stop offset="0.6557377" style="stop-color:#fff;stop-opacity:0" id="stop3389"/>
<stop offset="1" style="stop-color:#fff" id="stop3387"/>
</linearGradient>
<linearGradient id="linearGradient3287">
<stop offset="0" style="stop-color:#71c837" id="stop3290"/>
<stop offset="1" style="stop-color:#71c837;stop-opacity:0" id="stop3292"/>
</linearGradient>
<linearGradient id="linearGradient3304">
<stop offset="0" style="stop-color:#d42aff" id="stop3306"/>
<stop offset="1" style="stop-color:#d42aff;stop-opacity:0" id="stop3308"/>
</linearGradient>
<linearGradient gradientTransform="matrix(-1.0777456,0,0,-1.0777456,102.59234,101.76469)" id="linearGradient4539" xlink:href="#linearGradient4321" y1="24.14736" x1="48.916553" y2="24.14736" x2="97.732262" gradientUnits="userSpaceOnUse"/>
<linearGradient gradientTransform="matrix(0,-1.0777456,1.0777456,0,-6.7688925,100.51326)" id="linearGradient4521" xlink:href="#linearGradient4341" y1="22.625397" x1="56.270466" y2="23.509279" x2="53.392128" gradientUnits="userSpaceOnUse"/>
<linearGradient id="linearGradient3737">
<stop offset="0" style="stop-color:#fff" id="stop3739"/>
<stop offset="1" style="stop-color:#fff;stop-opacity:0" id="stop3741"/>
</linearGradient>
<linearGradient gradientTransform="matrix(0,-1.0777456,1.0777456,0,-6.7688925,100.51326)" id="linearGradient4525" xlink:href="#linearGradient4321" y1="24.14736" x1="48.916553" y2="24.14736" x2="97.732262" gradientUnits="userSpaceOnUse"/>
<linearGradient gradientTransform="matrix(-0.7620812,-0.7620812,0.7620812,-0.7620812,48.297395,122.98892)" id="linearGradient4532" xlink:href="#linearGradient4321" y1="24.14736" x1="48.916553" y2="24.14736" x2="97.732262" gradientUnits="userSpaceOnUse"/>
<linearGradient gradientTransform="matrix(-1.0777456,0,0,-1.0777456,102.59234,101.76469)" id="linearGradient4535" xlink:href="#linearGradient4341" y1="22.625397" x1="56.270466" y2="23.509279" x2="53.392128" gradientUnits="userSpaceOnUse"/>
<linearGradient gradientTransform="matrix(-0.7620812,-0.7620812,0.7620812,-0.7620812,48.297395,122.98892)" id="linearGradient4528" xlink:href="#linearGradient4341" y1="22.625397" x1="56.270466" y2="23.509279" x2="53.392128" gradientUnits="userSpaceOnUse"/>
<linearGradient gradientTransform="matrix(0.7620812,-0.7620812,0.7620812,0.7620812,-27.993121,47.228467)" id="linearGradient4518" xlink:href="#linearGradient4321" y1="24.14736" x1="48.916553" y2="24.14736" x2="97.732262" gradientUnits="userSpaceOnUse"/>
<linearGradient id="linearGradient3700">
<stop offset="0" style="stop-color:#212121" id="stop3702"/>
<stop offset="1" style="stop-color:#444" id="stop3704"/>
</linearGradient>
<linearGradient id="linearGradient3706" xlink:href="#linearGradient3700" y1="90" x1="48" y2="5.9877172" x2="48" gradientUnits="userSpaceOnUse"/>
<linearGradient gradientTransform="matrix(0.7620812,-0.7620812,0.7620812,0.7620812,-27.993121,47.228467)" id="linearGradient4514" xlink:href="#linearGradient4341" y1="22.625397" x1="56.270466" y2="23.509279" x2="53.392128" gradientUnits="userSpaceOnUse"/>
<linearGradient id="linearGradient3188" xlink:href="#linearGradient3737" y1="6" x1="36.357143" y2="63.893143" x2="36.357143" gradientUnits="userSpaceOnUse"/>
<radialGradient fx="62.716835" fy="76.334625" cx="62.716835" cy="76.334625" gradientTransform="matrix(1.1492741,-0.6635339,0.7166993,1.2413593,-64.070967,19.19584)" r="27.757055" id="radialGradient3301" xlink:href="#linearGradient3303" gradientUnits="userSpaceOnUse"/>
<radialGradient fx="48.453125" fy="55.808502" cx="48.453125" cy="55.808502" gradientTransform="matrix(0.3961226,-1.5008363,1.5791805,0.4168003,-60.154838,95.678538)" r="18.109375" id="radialGradient3430" xlink:href="#linearGradient3383" gradientUnits="userSpaceOnUse"/>
<radialGradient fx="48" fy="90.171875" cx="48" cy="90.171875" gradientTransform="matrix(1.1573129,0,0,0.99590774,-7.551021,0.1971319)" r="42" id="radialGradient2874" xlink:href="#linearGradient3737-5" gradientUnits="userSpaceOnUse"/>
<radialGradient fx="48" fy="48" cx="48" cy="48" gradientTransform="matrix(0.8105965,0,0,0.80759,9.0913691,9.2356809)" r="42" id="radialGradient3287" xlink:href="#linearGradient4692" gradientUnits="userSpaceOnUse"/>
</defs>
<g style="display:none" id="layer2">
<rect width="86" x="5" y="7" rx="6" height="85" ry="6" style="opacity:.9;fill:url(#ButtonShadow);filter:url(#filter3174);stroke:none" id="rect3745"/>
</g>
<g style="stroke:none" id="layer8">
<path style="opacity:.08;fill:url(#linearGradient2969)" id="path3786" d="m 12,-95.0312 c -5.51109,0 -10.0312,4.52016 -10.0312,10.0312 v 71 c 0,5.51109 4.52016,10.0312 10.0312,10.0312 h 72 c 5.51109,0 10.0312,-4.52016 10.0312,-10.0312 v -71 c 0,-5.51109 -4.52016,-10.0312 -10.0312,-10.0312 h -72 z " transform="scale(1,-1)"/>
<path style="opacity:.1;fill:url(#linearGradient3780)" id="path3778" d="m 12,-94.0312 c -4.97163,0 -9.03125,4.05962 -9.03125,9.03125 v 71 c 0,4.97163 4.05962,9.03125 9.03125,9.03125 h 72 c 4.97163,0 9.03125,-4.05962 9.03125,-9.03125 v -71 c 0,-4.97163 -4.05962,-9.03125 -9.03125,-9.03125 h -72 z " transform="scale(1,-1)"/>
<path style="opacity:.2;fill:url(#linearGradient3772)" id="path3770" d="m 12,-93 c -4.40913,0 -8,3.59087 -8,8 v 71 c 0,4.40913 3.59087,8 8,8 h 72 c 4.40913,0 8,-3.59087 8,-8 v -71 c 0,-4.40913 -3.59087,-8 -8,-8 h -72 z " transform="scale(1,-1)"/>
<rect width="86" x="5" y="-92" rx="7" height="85" ry="7" style="opacity:.3;fill:url(#linearGradient3725)" id="rect3723" transform="scale(1,-1)"/>
<rect width="84" x="6" y="-91" rx="6" height="84" ry="6" style="opacity:.45;fill:url(#linearGradient3721)" id="rect3716" transform="scale(1,-1)"/>
</g>
<g style="display:none" id="layer1">
<rect width="84" x="6" y="6" rx="6" height="84" ry="6" style="fill:url(#linearGradient3706);stroke:none" id="rect2419"/>
</g>
<g id="layer4">
<path style="fill:#333;stroke:none" id="path2955" d="m 64,48 a 16,16 0 1 1 -32,0 16,16 0 1 1 32,0 z"/>
<g style="clip-path:url(#clipPath2521)" id="g4592" transform="matrix(0.5888293,0,0,0.5888293,19.082378,20.054087)">
<path style="fill:url(#linearGradient4571);fill-rule:evenodd;stroke:none" id="path4319" d="m 63.7464,52.9423 -18.2316,-65.7996 54.4305,4.549 0,60.1619 -36.1989,1.0887 z "/>
<path style="opacity:.4;fill:#fff;fill-rule:evenodd;stroke:none" id="path4329" d="m 45.8794,-13.7048 17.8794,66.6461 1.5326,-.6402 -17.8794,-66.6124 -1.5326,.6065 z "/>
<path style="fill:url(#linearGradient4560);fill-rule:evenodd;stroke:none" id="path4424" d="m 57.0983,59.3739 31.7056,-54.9158 37.2015,37.2015 -42.5409,42.5409 -26.3663,-24.8266 z "/>
<path style="opacity:.4;fill:#fff;fill-rule:evenodd;stroke:none" id="path4426" d="m 88.8056,4.4407 -31.6978,54.9413 1.6957,.5384 31.674,-54.9175 -1.6719,-.5623 z "/>
<path style="opacity:.6;fill:url(#linearGradient4556);fill-rule:evenodd;stroke:none" id="path4428" d="m 85.3024,1.0891 -31.2429,55.2446 3.1198,2.9293 31.6264,-54.8222 -3.5032,-3.3516 z "/>
<path style="fill:url(#linearGradient4553);fill-rule:evenodd;stroke:none" id="path4436" d="m 44.6684,61.7876 61.2506,-16.4121 v 52.6109 h -60.1619 l -1.0887,-36.1989 z "/>
<path style="opacity:.4;fill:#fff;fill-rule:evenodd;stroke:none" id="path4438" d="m 105.9325,45.3645 -61.2631,16.4356 .0337,1.8359 61.2294,-16.4356 0,-1.8359 z "/>
<path style="opacity:.6;fill:url(#linearGradient4549);fill-rule:evenodd;stroke:none" id="path4440" d="m 105.9325,41.0535 -61.2631,16.4356 .1347,4.2773 61.1284,-16.4019 0,-4.311 z "/>
<path style="fill:url(#linearGradient4546);fill-rule:evenodd;stroke:none" id="path4448" d="m 34.3592,54.7666 54.9158,31.7056 -37.2015,37.2015 -42.5409,-42.5409 24.8266,-26.3663 z "/>
<path style="opacity:.4;fill:#fff;fill-rule:evenodd;stroke:none" id="path4450" d="m 89.2924,86.474 -54.9413,-31.6978 -1.0976,1.3924 54.9175,31.674 1.1214,-1.3686 z "/>
<path style="opacity:.6;fill:url(#linearGradient4542);fill-rule:evenodd;stroke:none" id="path4452" d="m 92.3407,83.4256 -54.9413,-31.6978 l -2.9293,3.1198 54.8222,31.6264 3.0483,-3.0483 z "/>
<path style="fill:url(#linearGradient4539);fill-rule:evenodd;stroke:none" id="path4460" d="m 33.4607,45.1147 16.4121,61.2506 -52.6109,0 0,-60.1619 36.1989,-1.0887 z "/>
<path style="opacity:.4;fill:#fff;fill-rule:evenodd;stroke:none" id="path4462" d="m 49.8838,106.3788 -16.4356,-61.2631 -1.6843,.4886 16.4356,61.2294 1.6843,-.4549 z "/>
<path style="opacity:.6;fill:url(#linearGradient4535);fill-rule:evenodd;stroke:none" id="path4464" d="m 54.1948,106.3788 -16.4356,-61.2631 -4.2773,.1347 16.4019,61.1284 4.311,0 z "/>
<path style="fill:url(#linearGradient4532);fill-rule:evenodd;stroke:none" id="path4472" d="m 39.4715,34.0478 -31.7056,54.9158 -37.2015,-37.2015 42.5409,-42.5409 26.3663,24.8266 z "/>
<path style="opacity:.4;fill:#fff;fill-rule:evenodd;stroke:none" id="path4474" d="m 7.7642,88.981 31.6978,-54.9413 -1.3924,-1.1932 -31.674,54.9175 1.3686,1.217 z "/>
<path style="opacity:.6;fill:url(#linearGradient4528);fill-rule:evenodd;stroke:none" id="path4476" d="m 10.8125,92.0294 31.6978,-54.9413 -3.1198,-2.9292 -31.6264,54.8222 3.0483,3.0483 z "/>
<path style="fill:url(#linearGradient4525);fill-rule:evenodd;stroke:none" id="path4484" d="m -11.375,-4.8125 0,52.5938 61.25,-16.4062 -1.0312,-34.0938 -.5625,-2.0938 -59.6562,0 z "/>
<path style="opacity:.4;fill:#fff;fill-rule:evenodd;stroke:none" id="path4486" d="m -11.383,47.8048 61.2631,-16.4356 -.4886,-1.6843 -61.2294,16.4356 .4549,1.6843 z "/>
<path style="opacity:.6;fill:url(#linearGradient4521);fill-rule:evenodd;stroke:none" id="path4488" d="m -11.383,52.1157 61.2631,-16.4356 -.1347,-4.2773 -61.1284,16.4019 0,4.311 z "/>
<path style="fill:url(#linearGradient4518);fill-rule:evenodd;stroke:none" id="path4496" d="m 43.2188,-30.5 -37.1875,37.1875 53.625,30.9688 -13.2775,-49.2926 18.0938,0 l -21.2538,-18.8637 z "/>
<path style="opacity:.4;fill:#fff;fill-rule:evenodd;stroke:none" id="path4498" d="m 6.6532,5.1793 -.6532,1.5082 53.6562,30.9688 -.503,-2.2269 -52.5,-30.25 z "/>
<path style="opacity:.6;fill:url(#linearGradient4514);fill-rule:evenodd;stroke:none" id="path4500" d="M 6,6.6875 2.96875,9.75 57.90625,41.4375 60.0625,39.15625 59.65625,37.625 6,6.6875 z"/>
<path style="opacity:.6;fill:url(#linearGradient4567);fill-rule:evenodd;stroke:none" id="path4334" d="m 41.6353,-13.5438 17.8022,66.4813 l 1.4062,-.0312 1.9688,-3.4375 -16.8647,-63.0126 h -4.3125 z "/>
</g>
</g>
<g id="layer6">
<rect width="84" x="6" y="6" rx="6" height="84" ry="6" style="fill:url(#radialGradient3287);stroke:none;clip-path:url(#clipPath3733)" id="rect3277"/>
</g>
<g id="layer7">
<g style="stroke:none">
<path style="opacity:.936;fill:url(#linearGradient3432)" id="path3258" d="m 84.0952,47.2601 a 34.724,34.3452 0 1,1 -69.448,0 34.724,34.3452 0 1,1 69.448,0 z " transform="matrix(0,-1.0367471,1.0481818,0,-1.5372167,99.185452)"/>
<path style="opacity:.6;fill:url(#radialGradient3301)" id="path3272" d="m 21.9241,61.6477 c 0.189649,0.36216 0.376024,0.713791 0.582312,1.07109 8.12379,14.0708 26.1416,18.8987 40.2124,10.7749 14.0708,-8.12379 18.8987,-26.1416 10.7749,-40.2124 -0.206289,-0.357302 -0.417623,-0.694523 -0.636438,-1.03984 7.08932,13.8567 2.11766,31.0007 -11.5134,38.8706 -13.6311,7.86992 -30.9641,3.60348 -39.4197,-9.4644 z "/>
<path style="opacity:.2;fill:url(#linearGradient3298)" id="path3296" d="m 75.0038,31.0977 a 27.1478,16.1624 0 1,1 -54.2957,0 27.1478,16.1624 0 1,1 54.2957,0 z " transform="matrix(1.3162791,0,0,1.3162791,-15.135843,-9.8355515)"/>
<path style="opacity:.4;fill:url(#linearGradient3294)" id="path3277" d="m 75.0038,31.0977 a 27.1478,16.1624 0 1,1 -54.2957,0 27.1478,16.1624 0 1,1 54.2957,0 z " transform="matrix(0.7488372,0,0,0.7488372,12.01964,5.5377418)"/>
<path style="opacity:.2;fill:url(#linearGradient3310)" id="path3300" d="m 75.0038,31.0977 a 27.1478,16.1624 0 1,1 -54.2957,0 27.1478,16.1624 0 1,1 54.2957,0 z " transform="matrix(0.5613372,0,0,0.5613372,20.992635,51.269586)"/>
</g>
<g style="stroke-linecap:square">
<g style="stroke:#e67cff;fill-opacity:.376;fill:#e064ff">
<path style="opacity:.4;stroke-width:1.125" id="path3312" d="m 40.3571,62.875 a 4.01786,4.01786 0 1,1 -8.03571,0 4.01786,4.01786 0 1,1 8.03571,0 z " transform="matrix(0.8888888,0,0,0.8888888,29.591271,5.9682595)"/>
<path style="opacity:.3;stroke-width:2.045" id="path3322" d="m 40.3571,62.875 a 4.01786,4.01786 0 1,1 -8.03571,0 4.01786,4.01786 0 1,1 8.03571,0 z " transform="matrix(0.4888888,0,0,0.4888888,37.698415,25.261117)"/>
</g>
<path style="opacity:.4;fill:#b1e88b;stroke:#8de951;fill-opacity:.5;stroke-width:1.324" id="path3324" d="m 40.3571,62.875 a 4.01786,4.01786 0 1,1 -8.03571,0 4.01786,4.01786 0 1,1 8.03571,0 z " transform="matrix(0.7555555,0,0,0.7555555,32.115081,-19.041264)"/>
</g>
<path style="fill:url(#radialGradient3430);stroke:none" id="path3416" d="m 18.3992,39.3852 c -0.599211,2.36383 -0.924741,4.83549 -0.915178,7.386 l 11.4538,-.0474 c -0.0045,-1.54822 0.147996,-3.13229 0.561708,-4.69977 0.25368,-0.961147 0.561423,-1.87503 0.953169,-2.7542 l -10.3608,-4.7061 c -0.693913,1.54401 -1.26932,3.15124 -1.6927,4.82142 z  m 3.9989,-9.0284 9.4912,6.2865 c 0.954365,-1.44147 2.10163,-2.72953 3.40026,-3.82129 0.649316,-0.545884 1.32612,-1.0476 2.0434,-1.49685 0.717271,-0.44925 1.47838,-0.836873 2.25153,-1.18335 l -.0222,-.0382 c 0.984814,-0.438199 2.00548,-0.777429 3.05308,-1.03643 l -.008,.0302 c 0.354928,-0.0892 0.703877,-0.167651 1.06427,-0.236225 1.08118,-0.20572 2.19473,-0.317187 3.3166,-0.320479 l -.0473,-11.4538 c -1.67942,0.0063 -3.32749,0.165122 -4.93272,0.443372 l -.0222,-.0382 c -0.23335,0.04091 -0.452153,0.09616 -0.684054,0.142655 -0.609162,0.122144 -1.19648,0.271371 -1.79449,0.431336 -1.67848,0.448984 -3.31969,1.01891 -4.88913,1.74768 -0.917642,0.426825 -1.80811,0.911926 -2.67163,1.42799 -0.113445,0.0678 -0.231257,0.130885 -0.343712,0.200164 -0.19431,0.118882 -0.389297,0.240508 -0.580827,0.363822 -0.105458,0.06839 -0.208969,0.138445 -0.313496,0.208139 -0.407693,0.269834 -0.7996,0.558707 -1.19355,0.848505 -0.054,0.03972 -0.107004,0.07908 -0.160735,0.119177 -0.190805,0.143358 -0.37937,0.284391 -0.566562,0.432227 -0.345159,0.270873 -0.693612,0.541594 -1.02653,0.827948 -0.102801,0.08889 -0.19767,0.186267 -0.29923,0.276545 -1.92964,1.71526 -3.63485,3.67955 -5.06389,5.83854 z "/>
</g>
<g id="layer3">
<g style="stroke:none;line-height:120.00000477%">
<path style="fill:url(#linearGradient3255)" id="rect2476" d="m 12,6 c -3.324,0 -6,2.676 -6,6 v 72 c 0,3.324 2.676,6 6,6 h 72 c 3.324,0 6,-2.676 6,-6 v -72 c 0,-3.324 -2.676,-6 -6,-6 h -72 z  m 36,7 c 19.32,0 35,15.68 35,35 0,19.32 -15.68,35 -35,35 -19.32,1e-06 -35,-15.68 -35,-35 0,-19.32 15.68,-35 35,-35 z "/>
<g style="font-size:6px;text-align:start;fill:#666;font-family:Forgotten Futurist">
<path style="font-weight:bold" id="text3309" d="m 126.5753,16.6915 1.2083,-.7276 -.5022,-.834 -.6629,.3992 -.338,-.5614 .6629,-.3992 -.8467,-1.4061 .5507,-.3316 2.025,3.3628 -1.7589,1.0592 -.338,-.5614 m -1.435,-1.1358 .9537,-.6284 .364,.5524 -.9537,.6284 -.364,-.5524 m -1.0932,3.0146 .9405,-.7014 c 0.23679,-0.176607 0.25942,-0.393308 0.0679,-0.650107 -0.20481,-0.267656 -0.40018,-0.334748 -0.58609,-0.201276 l -.3202,.2388 c -0.54028,0.402949 -1.02434,0.317609 -1.45217,-0.256022 l -.0821,-.1101 c -0.4328,-0.580305 -0.33403,-1.10551 0.29629,-1.57563 l .9755,-.7276 .3918,.5253 -1.0656,.7947 c -0.23012,0.171628 -0.25315,0.38084 -0.0691,0.627638 l .0112,.015 c 0.20148,0.270139 0.4006,0.331833 0.59737,0.185081 l .3452,-.2574 c 0.51609,-0.379721 0.99551,-0.272758 1.43826,0.320888 l .0858,.1151 c 0.41539,0.556956 0.30959,1.06925 -0.31741,1.53688 l -.8654,.6455 -.3918,-.5253 m -.877,.7068 -.7754,-.8971 -.5571,.4816 c -0.17627,0.152355 -0.17734,0.329258 -0.003,0.530712 l .2693,.3116 c 0.16324,0.188856 0.333,0.207108 0.50927,0.05476 l .5571,-.4816 m -1.2039,-1.3928 -.9346,-1.0812 .4816,-.4163 2.5669,2.9698 -1.0482,.906 c -0.49648,0.418123 -0.96373,0.3738 -1.40176,-0.132971 l -.2653,-.3069 c -0.46796,-0.541401 -0.45641,-1.02431 0.0346,-1.44873 l .5666,-.4897 m -1.7071,3.8771 c 0.0823,0.08246 0.17202,0.07521 0.26921,-0.02176 l .5434,-.5422 c 0.0913,-0.0911 0.0958,-0.177879 0.0135,-0.260345 l -1.5648,-1.5684 c -0.0558,-0.05596 -0.11023,-0.08397 -0.16318,-0.08403 -0.0529,-6.1e-05 -0.0956,0.01607 -0.12803,0.0484 l -.592,.5906 c -0.0324,0.03232 -0.0413,0.0735 -0.0266,0.123531 0.0117,0.05297 0.0396,0.101539 0.0837,0.14572 l 1.5648,1.5684 m -2.108,-1.2115 c -0.35262,-0.35932 -0.35958,-0.707946 -0.0209,-1.04588 l .7024,-.7008 c 0.34165,-0.340873 0.68438,-0.339009 1.02819,0.0056 l 1.7543,1.7583 c 0.33793,0.338705 0.34785,0.66674 0.0298,0.984106 l -.7422,.7405 c -0.33871,0.337927 -0.67703,0.33754 -1.01496,-0.0012 l -1.7367,-1.7407 m .311,3.4923 .526,-.6012 -2.4753,-2.1656 .4192,-.4791 2.4753,2.1656 .4808,-.5495 .4932,.4315 -1.4259,1.6298 -.4932,-.4315"/>
<path id="text3313" d="m 160.7422,86.8589 -1.1775,.3535 c -0.56185,0.168697 -0.9349,-0.05378 -1.11915,-0.667436 l -.5169,-1.7214 c -0.18105,-0.588545 0.0438,-0.975344 0.6746,-1.1604 l 1.0819,-.3248 .1166,.3885 -1.2014,.3607 c -0.30284,0.09093 -0.4076,0.291802 -0.31428,0.60261 l .5384,1.7931 c 0.0969,0.322766 0.28085,0.44347 0.55181,0.362112 l .8727,-.262 -.3553,-1.1835 -.7651,.2297 -.1184,-.3945 1.1416,-.3428 .5904,1.9665 m 2.3365,-.8547 -.357,.1321 -.6279,-1.6974 c -0.10825,-0.292655 -0.3009,-0.387741 -0.57795,-0.285263 l -.4097,.1516 c -0.31217,0.115475 -0.40547,0.342952 -0.27989,0.682433 l .6019,1.6272 -.3629,.1342 -.931,-2.5169 .3629,-.1342 .1126,.3044 c 0.0132,-0.240006 0.14546,-0.404249 0.39664,-0.492728 l .4683,-.1732 c 0.44874,-0.165988 0.76693,0.0047 0.95458,0.51192 l .6495,1.7559 m 2.0679,-1.8274 c 0.22499,0.514653 0.11141,0.872817 -0.34075,1.0745 l -.5985,.2669 c -0.45215,0.201679 -0.79263,0.04604 -1.02143,-0.466914 l -.4144,-.929 c -0.22371,-0.501554 -0.10949,-0.853172 0.34267,-1.05486 l .5985,-.2669 c 0.45216,-0.201676 0.792,-0.05259 1.01951,0.447272 l .4144,.929 m -.3915,.0721 -.3356,-.7523 c -0.14067,-0.315369 -0.3459,-0.41289 -0.61567,-0.292562 l -.4446,.1983 c -0.26598,0.118638 -0.33053,0.336489 -0.19366,0.653554 l .3356,.7523 c 0.14025,0.324668 0.34717,0.425987 0.62075,0.303962 l .4446,-.1983 c 0.26977,-0.120329 0.33263,-0.34198 0.18858,-0.664952 m 4.4635,-1.3016 -.3386,.1872 -.8395,-1.5183 c -0.17516,-0.316759 -0.39199,-0.40367 -0.65049,-0.260733 l -.3168,.1752 c -0.29856,0.165091 -0.35379,0.404816 -0.1657,0.719177 l .8365,1.5128 -.3386,.1872 -.8577,-1.551 c -0.16307,-0.294915 -0.37568,-0.369895 -0.63783,-0.224943 l -.2785,.154 c -0.29855,0.16509 -0.35704,0.416124 -0.17546,0.753103 l .8244,1.491 -.3386,.1872 -1.2986,-2.3484 .3386,-.1872 .1782,.3222 c -0.046,-0.255078 0.0585,-0.453083 0.31335,-0.594013 l .3878,-.2144 c 0.29492,-0.163071 0.524,-0.139984 0.68725,0.06926 -0.0504,-0.271655 0.061,-0.482981 0.33404,-0.633979 l .426,-.2356 c 0.40779,-0.225482 0.75463,-0.07972 1.04051,0.437295 l .8697,1.5729 m 1.4835,-2.3851 -1.4004,.9371 .1753,.2732 c 0.15387,0.222435 0.3328,0.265391 0.5368,0.128868 l 1.0165,-.6803 .2291,.3423 -1.0114,.6768 c -0.42415,0.278843 -0.78143,0.197546 -1.07185,-0.243893 l -.6022,-.8886 c -0.30081,-0.449495 -0.23281,-0.822907 0.204,-1.12024 l .4651,-.3037 c 0.40109,-0.268412 0.74857,-0.18306 1.04244,0.256061 l .4165,.6224 m -1.626,.6 1.0943,-.7324 -.1857,-.2662 c -0.14695,-0.227059 -0.31724,-0.2758 -0.51087,-0.146223 l -.4823,.3228 c -0.22129,0.148094 -0.25155,0.331042 -0.0908,0.548848 l .1753,.2732 m 2.7319,-1.7888 .8884,1.1194 -.3031,.2405 -2.2851,-2.8792 .9874,-.7837 c 0.4458,-0.348485 0.85233,-0.291347 1.21959,0.171412 l .2522,.3177 c 0.39313,0.495355 0.36808,0.918905 -0.0751,1.27065 l -.6844,.5431 m -1.1445,-1.4421 .8923,1.1243 .6746,-.5354 c 0.24767,-0.196563 0.26288,-0.431719 0.0456,-0.705468 l -.2561,-.3226 c -0.2069,-0.260708 -0.4342,-0.292782 -0.68188,-0.09622 l -.6746,.5354 m 5.1206,-.0691 -.2834,.2542 -1.2086,-1.3471 c -0.20838,-0.232261 -0.4225,-0.249761 -0.64238,-0.0525 l -.3252,.2917 c -0.24775,0.22227 -0.25077,0.468118 -0.009,0.737542 l 1.1586,1.2914 -.288,.2584 -2.463,-2.7454 .288,-.2584 .8877,.9894 c -0.076,-0.228034 -0.0135,-0.42941 0.18743,-0.604131 l .3716,-.3334 c 0.35614,-0.319508 0.7148,-0.277967 1.07599,0.124621 l 1.2503,1.3936 m 1.1809,-2.3929 c 0.3982,0.396142 0.42401,0.770997 0.0774,1.12457 l -.4587,.468 c -0.34657,0.353572 -0.72041,0.333772 -1.12152,-0.0594 l -.7264,-.7121 c -0.3922,-0.384432 -0.41501,-0.753433 -0.0684,-1.10701 l .4587,-.468 c 0.34657,-0.353567 0.71741,-0.339622 1.11252,0.04184 l .7264,.7121 m -.3377,.2108 -.5883,-.5766 c -0.24661,-0.241723 -0.4733,-0.257109 -0.68008,-0.04616 l -.3408,.3476 c -0.20386,0.207985 -0.18395,0.434324 0.0597,0.67902 l .5883,.5766 c 0.24963,0.250523 0.4793,0.268821 0.68899,0.0549 l .3407,-.3476 c 0.20678,-0.210952 0.18389,-0.440204 -0.0687,-0.687757 m 1.9028,-.7102 -.0457,.0512 c -0.40418,0.45345 -0.83299,0.478086 -1.28644,0.07391 l -2.0638,-1.8396 .2575,-.2888 .7407,.6602 .3945,-.4426 .3028,.2699 -.3945,.4426 1.0296,.9177 c 0.24536,0.218699 0.49953,0.180523 0.76253,-0.114531 l .3028,.2699 m .8518,-2.3647 c 0.43386,0.356726 0.49499,0.727464 0.1834,1.11221 l -.4124,.5092 c -0.31159,0.384749 -0.68563,0.400378 -1.12211,0.04689 l -.7905,-.6402 c -0.42677,-0.345634 -0.48437,-0.710826 -0.17277,-1.09558 l .4124,-.5092 c 0.3116,-0.384745 0.68209,-0.405919 1.11149,-0.06352 l .7905,.6402 m -.3163,.2418 -.6402,-.5185 c -0.26835,-0.217329 -0.49548,-0.211216 -0.68139,0.01834 l -.3064,.3783 c -0.18329,0.226324 -0.14207,0.449768 0.12366,0.670331 l .6402,.5185 c 0.2722,0.225802 0.50256,0.222307 0.69109,-0.01048 l .3064,-.3783 c 0.18591,-0.229555 0.14146,-0.455617 -0.13336,-0.678187 m 3.2078,-2.9277 -.2152,.3215 -2.5516,-1.7078 .6237,.6277 1.5461,1.6506 -.243,.363 -2.0877,-.7966 -.8371,-.3425 2.5465,1.7044 -.2187,.3267 -3.0547,-2.0446 .3263,-.4875 2.7933,1.1111 .3788,.1634 -.2834,-.2723 -2.1042,-2.1744 .3263,-.4875 3.0547,2.0446 m 1.2396,-2.1469 -.674,1.1746 c -0.24435,0.425809 -0.59721,0.50154 -1.05857,0.227192 -0.42942,-0.246422 -0.51781,-0.589755 -0.26517,-1.03 l .4628,-.8065 -.2142,-.1157 c -0.27733,-0.168735 -0.49261,-0.119589 -0.64585,0.147441 l -.5405,.9418 -.3518,-.2019 .5428,-.9333 c 0.30434,-0.496912 0.71038,-0.59009 1.21812,-0.279537 l 1.5264,.8759 m -.5444,.1337 -.6387,-.3665 -.497,.8661 c -0.10407,0.189717 -0.0496,0.345663 0.16325,0.467837 0.2093,0.120106 0.36882,0.08453 0.47857,-0.106721 l .4939,-.8606 m 1.7374,-2.5126 -.1682,.3415 -1.6236,-.7997 c -0.27992,-0.137873 -0.48515,-0.07431 -0.61567,0.190681 l -.193,.3919 c -0.14707,0.298589 -0.0582,0.527849 0.26646,0.687782 l 1.5564,.7666 -.171,.3471 -2.4074,-1.1857 .171,-.3471 .2911,.1434 c -0.15553,-0.183273 -0.1726,-0.393426 -0.0512,-0.63046 l .2206,-.4479 c 0.21142,-0.429215 0.55972,-0.524334 1.04492,-0.285353 l 1.6796,.8273 m .9664,-2.2875 -.5202,1.2503 c -0.18859,0.453271 -0.52905,0.572976 -1.02138,0.359117 -0.45711,-0.190192 -0.58817,-0.519606 -0.39319,-0.988241 l .3572,-.8585 -.2271,-.0877 c -0.29642,-0.132345 -0.50376,-0.05639 -0.62204,0.227861 l -.4171,1.0026 -.3745,-.1558 .4205,-.9944 c 0.23913,-0.531381 0.63014,-0.675115 1.17305,-0.431202 l 1.6249,.6761 m -.5232,.2014 -.6799,-.2829 -.3836,.9219 c -0.0793,0.201344 -0.006,0.349166 0.22105,0.443462 0.22279,0.0927 0.37654,0.03726 0.46125,-0.166332 l .3812,-.9161 m 1.7998,-.8267 -.4012,-.1384 .2789,-.8082 c 0.0624,-0.180913 0.015,-0.298514 -0.14233,-0.352803 l -.2891,-.0998 -.3522,1.0206 c -0.13287,0.37227 -0.40123,0.49312 -0.8051,0.362552 l -1.3392,-.4621 c -0.39722,-0.137076 -0.52994,-0.402939 -0.39816,-0.797589 l .4723,-1.3687 2.8199,.9731 c 0.4352,0.154584 0.58833,0.418688 0.4594,0.792313 l -.3033,.879 m -2.7128,-2.1443 -.3298,.9557 c -0.0611,0.176983 0.0106,0.30076 0.21515,0.371333 l 1.0973,.3787 c 0.24777,0.0855 0.40572,0.01678 0.47386,-0.206182 l .3074,-.8908 -1.7639,-.6087 m 1.8764,-2.391 -.4489,1.6241 .3111,.0925 c 0.26176,0.06804 0.42535,-0.01624 0.49074,-0.252838 l .3259,-1.179 .397,.1097 -.3242,1.173 c -0.13924,0.488128 -0.46295,0.6598 -0.97113,0.515016 l -1.0363,-.28 c -0.52132,-0.144097 -0.71359,-0.471343 -0.57683,-0.981739 l .154,-.5337 c 0.12858,-0.465171 0.44751,-0.627372 0.9568,-0.486602 l .7218,.1995 m -.8399,1.516 .3508,-1.2692 -.3145,-.0804 c -0.25954,-0.07606 -0.42036,-0.0018 -0.48243,0.222762 l -.1546,.5594 c -0.0709,0.256649 0.0256,0.414982 0.28957,0.475 l .3111,.0925 m .1259,-3.5639 -.1143,.5244 c -0.0735,0.337401 0.0771,0.544826 0.45199,0.622277 l 1.6646,.3628 -.0824,.3781 -2.622,-.5715 .0824,-.378 .3354,.0731 c -0.21205,-0.101602 -0.27821,-0.335318 -0.19846,-0.701175 l .0864,-.3963 .3963,.0864"/>
</g>
</g>
<path style="fill:none;stroke:url(#linearGradient3301);stroke-linecap:square;stroke-width:1.943" id="path2522" d="m 81.0647,46.1869 a 35.2922,32.7668 0 1,1 -70.5844,0 35.2922,32.7668 0 1,1 70.5844,0 z " transform="matrix(0,-0.9917204,1.0681536,0,-1.3346511,93.393559)"/>
<g style="stroke:none;line-height:125%">
<path style="fill:#f00" id="path2993" d="m 81.0647,46.1869 a 35.2922,32.7668 0 1,1 -70.5844,0 35.2922,32.7668 0 1,1 70.5844,0 z " transform="matrix(0,-1.076725,1.1597096,0,-93.563336,97.284435)"/>
<g style="text-align:start;font-family:Droid Sans">
<g style="opacity:.4;font-weight:bold;font-size:4px" id="text2997" transform="matrix(0.52651755,-0.85016426,0.85016426,0.52651755,27.395239,-10.940939)">
<path id="path3021" d="m -38.0551,9.2452 c -0.0035,0.127558 -0.0287,0.242151 -0.07574,0.34378 -0.0457,0.100363 -0.111843,0.185844 -0.198419,0.256443 -0.08524,0.069333 -0.189567,0.121868 -0.312973,0.157604 -0.122108,0.03577 -0.261908,0.05152 -0.419402,0.04726 -0.137971,-0.0037 -0.270998,-0.02166 -0.399081,-0.053788 -0.126783,-0.032089 -0.244066,-0.078248 -0.35185,-0.138478 l .0152,-.5623 c 0.06167,0.031629 0.124001,0.062624 0.187005,0.092985 0.06304,0.029061 0.126798,0.055535 0.19128,0.079424 0.06578,0.023925 0.131038,0.043276 0.195767,0.058053 0.06603,0.014814 0.131583,0.023101 0.196664,0.024862 0.06638,0.0018 0.123195,-0.00383 0.170442,-0.016878 0.04858,-0.014315 0.08754,-0.034101 0.116883,-0.059359 0.03068,-0.026523 0.05301,-0.057831 0.06702,-0.093924 0.01534,-0.037358 0.02361,-0.078165 0.02481,-0.12242 0.0014,-0.053365 -0.009,-0.10054 -0.03134,-0.141525 -0.021,-0.04225 -0.05185,-0.08151 -0.09255,-0.117782 -0.03936,-0.037536 -0.08787,-0.074019 -0.145529,-0.109447 -0.05636,-0.035391 -0.119816,-0.072929 -0.190381,-0.112615 -0.05903,-0.032858 -0.12504,-0.072419 -0.198033,-0.118684 -0.07299,-0.046262 -0.141801,-0.102832 -0.206421,-0.169711 -0.06328,-0.068142 -0.115801,-0.14902 -0.157554,-0.242634 -0.04172,-0.094912 -0.06082,-0.207449 -0.05729,-0.337612 0.0035,-0.127555 0.02736,-0.240882 0.07173,-0.33998 0.0457,-0.10036 0.108533,-0.183977 0.188498,-0.25085 0.08,-0.06817 0.175809,-0.118981 0.287433,-0.152434 0.112924,-0.033412 0.238371,-0.048252 0.376343,-0.044519 0.06898,0.00187 0.135893,0.00824 0.200728,0.019111 0.06613,0.010911 0.130862,0.025689 0.194184,0.044334 0.06462,0.018686 0.129137,0.041273 0.193549,0.067762 0.06441,0.026495 0.130667,0.056945 0.198773,0.09135 l -.208,.4652 c -0.05783,-0.028917 -0.111849,-0.054477 -0.162047,-0.076679 -0.0502,-0.022198 -0.09919,-0.041108 -0.146956,-0.056732 -0.04777,-0.015619 -0.095,-0.027318 -0.14168,-0.035097 -0.04535,-0.00904 -0.09145,-0.014196 -0.138304,-0.015467 -0.101526,-0.00275 -0.180362,0.022474 -0.236509,0.075659 -0.05481,0.051923 -0.08343,0.122789 -0.08586,0.212598 -0.0013,0.048161 0.0053,0.091326 0.01994,0.129493 0.01593,0.036905 0.04103,0.072102 0.07529,0.105592 0.03556,0.033529 0.08087,0.06797 0.135926,0.103326 0.05635,0.035394 0.124299,0.075659 0.203837,0.120795 0.09621,0.054709 0.184575,0.110506 0.265098,0.167391 0.08056,0.055587 0.149221,0.117364 0.205998,0.18533 0.05811,0.066702 0.102309,0.142145 0.132596,0.226327 0.03028,0.084185 0.04391,0.182246 0.04088,0.294183"/>
<path id="path3023" d="m -35.3767,10.2628 -.601,-.0555 .1133,-1.2272 -.9666,-.0893 -.1133,1.2272 -.6029,-.0557 .2626,-2.8434 .6029,.0557 -.1029,1.1144 .9666,.0893 .1029,-1.1144 .601,.0555 -.2626,2.8434"/>
<path id="path3025" d="m -32.0239,9.3525 c -0.03689,0.216939 -0.09618,0.410256 -0.177863,0.579953 -0.08041,0.169916 -0.1834,0.309574 -0.308983,0.418976 -0.125588,0.109402 -0.273861,0.185228 -0.44482,0.227479 -0.169678,0.04247 -0.362344,0.04537 -0.577996,0.0087 -0.215656,-0.03667 -0.397177,-0.103198 -0.544562,-0.199581 -0.146104,-0.09617 -0.260339,-0.21663 -0.342705,-0.361392 -0.08108,-0.144544 -0.132128,-0.310396 -0.153133,-0.497556 -0.0195,-0.188224 -0.0107,-0.391447 0.0264,-0.60967 0.03711,-0.21822 0.09575,-0.411647 0.175938,-0.580281 0.08169,-0.169695 0.185213,-0.308603 0.310581,-0.416723 0.125366,-0.108116 0.272779,-0.182767 0.442239,-0.223956 0.170959,-0.042248 0.364908,-0.04493 0.581848,-0.00804 0.215652,0.036673 0.39653,0.103091 0.542636,0.199254 0.146318,0.094884 0.26002,0.214597 0.341106,0.359139 0.08258,0.143481 0.133736,0.308691 0.153461,0.49563 0.02122,0.185877 0.01317,0.388568 -0.02415,0.608072 m -1.9101,-.3248 c -0.0251,0.147622 -0.03486,0.282663 -0.02927,0.405124 0.0058,0.121179 0.02804,0.22732 0.06671,0.318423 0.04016,0.090039 0.09697,0.163755 0.170417,0.221151 0.07345,0.057397 0.166011,0.095588 0.27769,0.114579 0.114244,0.01943 0.215513,0.01419 0.303806,-0.0157 0.08957,-0.02967 0.16691,-0.080581 0.23201,-0.152721 0.0666,-0.073204 0.122024,-0.166139 0.166279,-0.278806 0.04575,-0.11373 0.08118,-0.244406 0.106284,-0.392027 0.0251,-0.147619 0.03475,-0.282019 0.02894,-0.403198 -0.0043,-0.122242 -0.0258,-0.228916 -0.06445,-0.320021 -0.03738,-0.090883 -0.09279,-0.165024 -0.166238,-0.222421 -0.07345,-0.057394 -0.166656,-0.095696 -0.279616,-0.114906 -0.11168,-0.018988 -0.212307,-0.013646 -0.301881,0.016027 -0.08958,0.029677 -0.168306,0.081007 -0.236188,0.153992 -0.0666,0.073207 -0.122778,0.166674 -0.168531,0.280404 -0.04554,0.112449 -0.08086,0.242483 -0.105957,0.390102"/>
<path id="path3027" d="m -30.7921,11.122 -.5868,-.1411 .5496,-2.2864 -.6969,-.1675 .1178,-.49 1.9788,.4757 -.1178,.49 -.695,-.1671 -.5496,2.2864"/>
<path id="path3029" d="m -27.138,12.2128 -.6538,-.2125 .1009,-1.4479 c 0.0011,-0.02018 0.0033,-0.0482 0.0068,-0.08405 0.0047,-0.03545 0.0095,-0.07563 0.01453,-0.120552 0.005,-0.04492 0.01063,-0.0917 0.01685,-0.140333 0.0062,-0.04864 0.01266,-0.09583 0.01931,-0.141588 0.0067,-0.04575 0.01272,-0.087595 0.0182,-0.12552 0.0071,-0.038758 0.01306,-0.069686 0.01783,-0.092782 -0.0097,0.021487 -0.02371,0.049798 -0.04198,0.084935 -0.01663,0.034303 -0.0357,0.071918 -0.05721,0.112843 -0.02112,0.03969 -0.04345,0.08104 -0.06701,0.124036 -0.02232,0.0434 -0.04466,0.08475 -0.06701,0.124035 -0.02111,0.03969 -0.04102,0.07566 -0.05972,0.107922 -0.0187,0.03226 -0.03374,0.05749 -0.04514,0.07569 l -.7647,1.2281 -.6557,-.2131 .2287,-2.9282 .5665,.1841 -.1734,1.5825 c -0.0027,0.02102 -0.0072,0.05173 -0.01351,0.09213 -0.0046,0.03957 -0.01028,0.08428 -0.0169,0.134158 -0.0066,0.04987 -0.01405,0.102224 -0.02229,0.157051 -0.007,0.05523 -0.01421,0.10902 -0.02164,0.16137 -0.0074,0.05235 -0.01447,0.101404 -0.02113,0.14716 -0.0063,0.04452 -0.01195,0.081 -0.01709,0.109453 0.01257,-0.02604 0.02879,-0.0591 0.04866,-0.09919 0.02111,-0.03969 0.04303,-0.08185 0.06575,-0.126497 0.02312,-0.04588 0.04727,-0.0928 0.07244,-0.140753 0.02641,-0.04755 0.05036,-0.09179 0.07188,-0.132719 0.02192,-0.04217 0.0414,-0.07896 0.05846,-0.110383 0.0187,-0.03226 0.03232,-0.05521 0.04086,-0.06887 l .8715,-1.3988 .5052,.1642 -.1173,1.6438 c -0.0011,0.01607 -0.0042,0.04244 -0.0093,0.07913 -0.0034,0.03585 -0.0087,0.07727 -0.01574,0.124267 -0.0054,0.04616 -0.01204,0.09603 -0.01987,0.149621 -0.0078,0.05359 -0.01588,0.105738 -0.02414,0.156448 -0.0066,0.04987 -0.01368,0.09687 -0.02117,0.140983 -0.0063,0.04452 -0.01195,0.081 -0.01709,0.109453 0.01257,-0.02604 0.02879,-0.0591 0.04866,-0.09919 0.02151,-0.04093 0.04465,-0.08475 0.06942,-0.131465 0.02476,-0.04672 0.04993,-0.09467 0.0755,-0.143865 0.0268,-0.04879 0.05219,-0.0953 0.07615,-0.139545 0.02396,-0.04424 0.04507,-0.08393 0.06334,-0.119067 0.0199,-0.03597 0.03493,-0.06326 0.04509,-0.08187 l .79,-1.3821 .5665,.1841 -1.5364,2.5032"/>
<path id="path3031" d="m -24.6379,13.2219 -1.5191,-.63 1.0938,-2.6377 1.5191,.63 -.19,.4583 -.9598,-.398 -.2402,.5791 .8931,.3703 -.19,.4583 -.8931,-.3703 -.2821,.6802 .9598,.398 -.1915,.4619"/>
<path id="path3033" d="m -24.0945,13.4715 1.2448,-2.5698 .5449,.264 -1.0269,2.1199 .9351,.453 -.218,.45 -1.48,-.7169"/>
<path id="path3035" d="m -22.1768,14.423 1.388,-2.4954 .5291,.2943 -1.1449,2.0585 .9081,.5051 -.243,.437 -1.4372,-.7994"/>
</g>
<g style="opacity:.4;font-weight:bold;font-size:4.18658829px" id="text3001" transform="matrix(-0.37871508,0.92551331,-0.92551331,-0.37871508,76.821009,102.93302)">
<path id="path3038" d="m -38.9389,8.431 .1246,.004 c 0.178434,0.00578 0.313748,-0.025292 0.405942,-0.093213 0.09355,-0.067873 0.14291,-0.181494 0.148071,-0.340862 0.0048,-0.148468 -0.03251,-0.25944 -0.111939,-0.332918 -0.07807,-0.073429 -0.203602,-0.112945 -0.376588,-0.118548 l -.1614,-.0052 -.0287,.8867 m 1.3209,-.4317 c -0.0042,0.130764 -0.02804,0.255439 -0.07142,0.374024 -0.04339,0.118588 -0.112183,0.222034 -0.206397,0.31034 -0.09286,0.088352 -0.2144,0.157366 -0.364632,0.207042 -0.148873,0.049723 -0.332277,0.071055 -0.550213,0.063998 l -.1451,-.0047 -.0344,1.0624 -.6334,-.0205 .0967,-2.9871 .8295,.0269 c 0.192055,0.00622 0.356846,0.033373 0.494371,0.081456 0.138928,0.046771 0.252042,0.111792 0.339341,0.195064 0.0887,0.08196 0.152972,0.181533 0.192813,0.298721 0.03988,0.115831 0.05746,0.246617 0.05275,0.392361"/>
<path id="path3040" d="m -35.1989,10.2873 -.6204,-.0618 .1322,-1.3283 c 0.01633,-0.164089 0.0028,-0.289383 -0.04065,-0.375881 -0.04194,-0.087716 -0.115804,-0.136839 -0.22158,-0.14737 -0.08001,-0.00796 -0.14876,0.00163 -0.206243,0.028775 -0.05749,0.027149 -0.105674,0.070972 -0.144563,0.131468 -0.03889,0.060499 -0.06978,0.13686 -0.09265,0.229081 -0.02288,0.092224 -0.04032,0.198682 -0.05233,0.319376 l -.1065,1.07 -.6204,-.0617 .3151,-3.1652 .6204,.0618 -.0642,.6448 c -0.0057,0.056959 -0.01303,0.117172 -0.02209,0.180637 -0.0089,0.062114 -0.01805,0.119411 -0.02738,0.171893 -0.01163,0.061844 -0.02246,0.122397 -0.03246,0.181659 l .0326,.0032 c 0.07819,-0.111366 0.171387,-0.187687 0.279582,-0.228963 0.108328,-0.042628 0.227587,-0.057463 0.357776,-0.044507 0.112556,0.011206 0.212645,0.037603 0.300268,0.079192 0.08911,0.040372 0.162837,0.097699 0.221184,0.171982 0.05834,0.074287 0.09988,0.166073 0.124612,0.275358 0.02486,0.107932 0.03001,0.235128 0.01543,0.381588 l -.1476,1.4829"/>
<path id="path3042" d="m -33.86,9.3299 c -0.03778,0.224435 -0.0347,0.399084 0.0092,0.523948 0.04416,0.123521 0.13747,0.197271 0.279926,0.221249 0.14111,0.02375 0.252862,-0.01617 0.335255,-0.119774 0.08239,-0.103601 0.142362,-0.266946 0.179914,-0.490037 0.03778,-0.224433 0.03436,-0.397066 -0.01026,-0.517901 -0.04439,-0.122175 -0.138484,-0.195366 -0.282282,-0.219572 -0.141112,-0.02375 -0.252638,0.01483 -0.334576,0.115742 -0.08037,0.099797 -0.139443,0.261912 -0.177219,0.486344 m 1.4313,.2409 c -0.03167,0.188149 -0.08391,0.350723 -0.156721,0.487721 -0.07147,0.137226 -0.160595,0.247986 -0.267374,0.33228 -0.10544,0.08452 -0.227078,0.142128 -0.364915,0.172825 -0.136269,0.02958 -0.284366,0.03091 -0.444291,0.004 -0.149176,-0.02511 -0.281957,-0.07372 -0.398345,-0.145823 -0.116162,-0.07345 -0.211567,-0.167592 -0.286213,-0.282424 -0.0733,-0.114605 -0.123274,-0.248778 -0.149912,-0.402517 -0.02664,-0.153738 -0.02412,-0.324682 0.0075,-0.512831 0.03144,-0.186803 0.0829,-0.348818 0.154366,-0.486045 0.07281,-0.136998 0.161822,-0.247085 0.267035,-0.330263 0.106781,-0.084292 0.228306,-0.141228 0.364575,-0.170809 0.136267,-0.029577 0.285036,-0.030794 0.446307,-0.00365 0.149173,0.025111 0.281954,0.073719 0.398345,0.145823 0.116386,0.072108 0.211231,0.165464 0.284537,0.280068 0.07487,0.11349 0.125626,0.247103 0.152267,0.400841 0.02663,0.15374 0.02423,0.324012 -0.0072,0.510815"/>
<path id="path3044" d="m -31.0861,10.5806 c 0.05981,0.01355 0.117803,0.01971 0.173981,0.01847 0.0575,-0.000942 0.116428,-0.0051 0.176771,-0.01234 l -.1026,.4526 c -0.06378,0.01629 -0.14031,0.0241 -0.229589,0.02343 -0.08825,0.00096 -0.182222,-0.0099 -0.281905,-0.03245 -0.09703,-0.02199 -0.184846,-0.05377 -0.263459,-0.09534 -0.07861,-0.04157 -0.142165,-0.0972 -0.190653,-0.166876 -0.04819,-0.07101 -0.07953,-0.157762 -0.09403,-0.260262 -0.01287,-0.103528 -0.003,-0.227064 0.02949,-0.370609 l .2435,-1.0746 -.2911,-.066 .0583,-.2572 .381,-.1274 .2821,-.4307 .3888,.0881 -.1075,.4745 .5423,.1229 -.1035,.4566 -.5423,-.1229 -.2435,1.0746 c -0.01958,0.08639 -0.01277,0.15501 0.02042,0.205851 0.03319,0.05084 0.08435,0.08409 0.153462,0.09976"/>
<path id="path3046" d="m -29.5875,10.2512 c -0.0627,0.218785 -0.07922,0.392678 -0.04956,0.521681 0.03003,0.127694 0.114486,0.21144 0.253356,0.251238 0.137557,0.03942 0.25308,0.01228 0.346569,-0.08143 0.09349,-0.09371 0.171393,-0.249301 0.233722,-0.466775 0.0627,-0.218783 0.07866,-0.390711 0.04787,-0.515786 -0.03041,-0.126382 -0.115708,-0.209661 -0.255884,-0.249836 -0.137561,-0.039422 -0.252708,-0.013588 -0.345444,0.0775 -0.09105,0.090157 -0.167929,0.244626 -0.230629,0.463409 m 1.3952,.3999 c -0.05257,0.183412 -0.122706,0.339104 -0.210416,0.467076 -0.0864,0.128347 -0.187385,0.228416 -0.302942,0.300207 -0.114252,0.07217 -0.241582,0.115772 -0.381991,0.130822 -0.138726,0.01411 -0.286038,-0.0012 -0.441937,-0.04585 -0.14542,-0.04168 -0.271914,-0.104864 -0.379484,-0.189565 -0.107195,-0.08601 -0.191443,-0.190255 -0.252744,-0.312732 -0.05999,-0.122102 -0.0946,-0.26103 -0.103838,-0.416787 -0.0092,-0.155756 0.01243,-0.325339 0.065,-0.508752 0.05219,-0.1821 0.121483,-0.337324 0.207886,-0.465674 0.08771,-0.127971 0.188505,-0.227384 0.30238,-0.298242 0.115558,-0.071788 0.242701,-0.114741 0.381427,-0.128857 0.138724,-0.014113 0.286691,0.00136 0.443902,0.046411 0.145417,0.041678 0.271912,0.104866 0.379484,0.189565 0.107568,0.084702 0.191349,0.188104 0.251343,0.310204 0.06167,0.121168 0.09713,0.25963 0.106365,0.415386 0.0092,0.155757 -0.01225,0.324686 -0.06443,0.506786"/>
<path id="path3048" d="m -25.8037,12.7389 .2892,-2.4176 -.017,-.007 c -0.04034,0.118997 -0.08037,0.233693 -0.120103,0.344088 -0.01674,0.04764 -0.03464,0.09628 -0.05368,0.145923 -0.01778,0.05016 -0.03594,0.09943 -0.05446,0.147812 -0.01726,0.0489 -0.03501,0.09539 -0.05323,0.139475 -0.01696,0.0446 -0.03273,0.08454 -0.04731,0.119801 l -.531,1.2847 -.5233,-.2163 1.1416,-2.762 .7972,.3295 -.276,2.3589 .0113,.0047 1.5078,-1.8498 .7972,.3295 -1.1416,2.762 -.546,-.2257 .5404,-1.3073 c 0.01353,-0.03275 0.02889,-0.0699 0.04607,-0.111463 0.01844,-0.04104 0.03792,-0.0846 0.05844,-0.130684 0.02052,-0.04608 0.0413,-0.09279 0.06234,-0.140129 0.0223,-0.04682 0.04345,-0.09264 0.06345,-0.137459 0.04876,-0.103713 0.09872,-0.212095 0.149877,-0.325146 l -.0151,-.0062 -1.5478,1.893 -.5384,-.2225"/>
<path id="path3050" d="m -22.2651,14.3807 .0346,-.3315 -.0164,-.0084 c -0.06802,0.03401 -0.132305,0.06075 -0.192853,0.08022 -0.05993,0.01825 -0.120068,0.02797 -0.180421,0.02915 -0.06035,0.0012 -0.123347,-0.0074 -0.188976,-0.02579 -0.06442,-0.01776 -0.135423,-0.04655 -0.213013,-0.08639 -0.08244,-0.04233 -0.152283,-0.09427 -0.209527,-0.155837 -0.05662,-0.06278 -0.09762,-0.133612 -0.122981,-0.21251 -0.02353,-0.07949 -0.0293,-0.166709 -0.01731,-0.261664 0.01261,-0.09617 0.04724,-0.199412 0.103882,-0.309737 0.1108,-0.215799 0.261449,-0.339136 0.451946,-0.370012 0.191118,-0.03209 0.427081,0.01706 0.707889,0.147454 l .3293,.1553 .0784,-.1528 c 0.04295,-0.08365 0.05045,-0.157931 0.0225,-0.222839 -0.02795,-0.06491 -0.08558,-0.119768 -0.172863,-0.164588 -0.08729,-0.04482 -0.179298,-0.07597 -0.276021,-0.09346 -0.09551,-0.01687 -0.195989,-0.02556 -0.301427,-0.02608 l .0086,-.4598 c 0.131092,-0.0047 0.266873,0.0083 0.407342,0.0391 0.140465,0.03076 0.27859,0.081 0.414376,0.150715 0.25338,0.130099 0.416855,0.289101 0.490427,0.477005 0.07478,0.188529 0.04992,0.404029 -0.07457,0.646499 l -.6956,1.3548 -.3873,-.1989 m .32,-1.026 -.1874,-.087 c -0.0752,-0.03555 -0.142616,-0.0579 -0.202248,-0.06708 -0.05964,-0.0092 -0.112682,-0.0073 -0.159141,0.0056 -0.04463,0.01232 -0.08449,0.03475 -0.119574,0.06729 -0.03326,0.03195 -0.06233,0.07217 -0.08723,0.120664 -0.04358,0.08487 -0.05409,0.156065 -0.03154,0.213599 0.02317,0.05632 0.06809,0.101602 0.134772,0.135838 0.05092,0.02614 0.102557,0.04193 0.154917,0.04737 0.05298,0.0042 0.103947,-0.0025 0.152899,-0.02031 0.05078,-0.01835 0.09803,-0.04771 0.141739,-0.08808 0.04433,-0.04158 0.0833,-0.09511 0.116914,-0.160573 l .0859,-.1673"/>
<path id="path3052" d="m -19.6146,15.9096 -.5346,-.3209 .687,-1.1445 c 0.08487,-0.141384 0.126731,-0.260106 0.125585,-0.356166 0.000719,-0.09653 -0.04566,-0.172846 -0.139133,-0.22896 -0.07011,-0.04208 -0.13695,-0.06313 -0.20052,-0.06315 -0.06357,-1.3e-05 -0.125865,0.01902 -0.186873,0.0571 -0.05984,0.03879 -0.119804,0.09498 -0.179885,0.168593 -0.06008,0.07361 -0.121338,0.162411 -0.183762,0.266404 l -.5534,.9219 -.5346,-.3209 1.1763,-1.9595 .4084,.2451 -.0786,.2938 .0298,.0179 c 0.0582,-0.03341 0.11804,-0.0563 0.179513,-0.06868 0.06264,-0.01167 0.124925,-0.01481 0.186863,-0.0094 0.06193,0.0054 0.122931,0.01896 0.182995,0.04071 0.06076,0.02058 0.119186,0.04771 0.175275,0.08137 0.09581,0.05752 0.174444,0.123794 0.2359,0.198831 0.06215,0.07387 0.103736,0.156851 0.124754,0.248941 0.02101,0.09209 0.01936,0.192825 -0.005,0.302201 -0.02363,0.108209 -0.07332,0.22541 -0.149073,0.351603 l -.767,1.2777"/>
<path id="path3054" d="m -17.9873,17.0182 .0781,-.324 -.0151,-.0105 c -0.07192,0.02474 -0.139167,0.04276 -0.201755,0.05406 -0.06181,0.01018 -0.12271,0.01188 -0.182691,0.0051 -0.05998,-0.0068 -0.121289,-0.02363 -0.183918,-0.05051 -0.06151,-0.0261 -0.128093,-0.06402 -0.199745,-0.113752 -0.07613,-0.05284 -0.138507,-0.113551 -0.187124,-0.182131 -0.04784,-0.0697 -0.07912,-0.145328 -0.09385,-0.226884 -0.01283,-0.0819 -0.007,-0.169118 0.01738,-0.26166 0.02519,-0.09366 0.07315,-0.191432 0.143858,-0.293314 0.138316,-0.199285 0.303926,-0.301658 0.496832,-0.307119 0.193681,-0.0066 0.421092,0.07329 0.682232,0.239605 l .3059,.1974 .0979,-.1411 c 0.05362,-0.07725 0.07085,-0.14989 0.05172,-0.21792 -0.01914,-0.06803 -0.06902,-0.130016 -0.149625,-0.185965 -0.08061,-0.05595 -0.167702,-0.09897 -0.261269,-0.129081 -0.09245,-0.02933 -0.190901,-0.05121 -0.295347,-0.06564 l .0692,-.4546 c 0.130565,0.01265 0.263437,0.0435 0.398617,0.09253 0.135175,0.04903 0.265461,0.117063 0.390856,0.204093 0.23399,0.162406 0.375047,0.341595 0.423172,0.537566 0.04924,0.196751 -0.0038,0.407083 -0.159256,0.630999 l -.8684,1.2511 -.3577,-.2483 m .4526,-.9748 -.1743,-.111 c -0.06985,-0.04516 -0.133725,-0.07622 -0.191625,-0.09319 -0.0579,-0.01696 -0.110733,-0.02211 -0.15849,-0.01544 -0.04586,0.0063 -0.08833,0.0233 -0.127409,0.05092 -0.03718,0.02728 -0.07131,0.06331 -0.102396,0.108093 -0.05439,0.07837 -0.07421,0.14756 -0.05946,0.207568 0.01553,0.05889 0.05408,0.1097 0.115662,0.152439 0.04702,0.03264 0.09612,0.0551 0.147309,0.0674 0.05196,0.01118 0.103374,0.0112 0.154242,5.4e-05 0.05276,-0.01149 0.10347,-0.03436 0.152124,-0.0686 0.04943,-0.03537 0.09512,-0.08328 0.137088,-0.143736 l .1072,-.1545"/>
<path id="path3056" d="m -14.2166,17.0323 -.2104,.2663 -.3261,-.1247 c -0.0073,0.05326 -0.02236,0.103047 -0.04505,0.149373 -0.02186,0.04526 -0.05053,0.09034 -0.08601,0.135257 -0.07181,0.0909 -0.152139,0.162908 -0.240991,0.216026 -0.08801,0.05205 -0.181474,0.08242 -0.28039,0.09112 -0.09892,0.0087 -0.202981,-0.0058 -0.312185,-0.04341 -0.108363,-0.03871 -0.219222,-0.102838 -0.332577,-0.192385 -0.0246,-0.01943 -0.05049,-0.04162 -0.07767,-0.06657 -0.02634,-0.02602 -0.04519,-0.04612 -0.05656,-0.06031 -0.03575,0.0013 -0.06807,0.007 -0.09695,0.0172 -0.02697,0.01 -0.05144,0.02884 -0.0734,0.05664 -0.01774,0.02246 -0.02515,0.04613 -0.02223,0.07101 0.0038,0.02381 0.0135,0.04887 0.0292,0.07517 0.01654,0.02523 0.03852,0.05127 0.06593,0.07813 0.02825,0.02579 0.05842,0.05136 0.0905,0.0767 l .2791,.2205 c 0.08662,0.06843 0.156126,0.139834 0.208519,0.214219 0.05323,0.07332 0.08733,0.148877 0.102281,0.226685 0.01602,0.07865 0.01194,0.159663 -0.01223,0.243034 -0.02333,0.0823 -0.06921,0.166759 -0.137639,0.253382 -0.08026,0.101592 -0.172804,0.176975 -0.277644,0.226149 -0.105687,0.05024 -0.221554,0.0716 -0.347601,0.06408 -0.125824,-0.0056 -0.260449,-0.04076 -0.403876,-0.105427 -0.144272,-0.0636 -0.295009,-0.157498 -0.45221,-0.28168 -0.121912,-0.09631 -0.219025,-0.192127 -0.291339,-0.287459 -0.07316,-0.09427 -0.122897,-0.187397 -0.149217,-0.279394 -0.02716,-0.09093 -0.03218,-0.179121 -0.01504,-0.264575 0.01821,-0.08461 0.05773,-0.165414 0.118551,-0.24241 0.05153,-0.06523 0.107535,-0.113042 0.168007,-0.143425 0.06047,-0.03038 0.12294,-0.0479 0.187403,-0.05255 0.06446,-0.0047 0.128667,0.000911 0.192617,0.01669 0.06502,0.01663 0.127305,0.03891 0.18686,0.06685 -0.01486,-0.02737 -0.02675,-0.05847 -0.03569,-0.09332 -0.0079,-0.03401 -0.01203,-0.06942 -0.01247,-0.106238 0.00063,-0.03597 0.0056,-0.07197 0.01498,-0.108002 0.01127,-0.03625 0.02873,-0.06935 0.05239,-0.09929 0.02703,-0.03422 0.05634,-0.06143 0.08793,-0.08163 0.03266,-0.01936 0.0679,-0.03319 0.105739,-0.04152 0.03868,-0.0094 0.0809,-0.01337 0.126673,-0.01195 0.04577,0.0014 0.0957,0.0053 0.149805,0.01153 -0.06201,-0.114978 -0.08533,-0.239346 -0.06998,-0.373106 0.01642,-0.132913 0.07278,-0.260325 0.169092,-0.382238 0.07603,-0.09625 0.159006,-0.170505 0.248931,-0.222779 0.08992,-0.05227 0.184454,-0.0818 0.283598,-0.08858 0.09999,-0.0079 0.203737,0.0081 0.311255,0.04789 0.107514,0.03978 0.216881,0.103597 0.328101,0.191454 0.02139,0.0169 0.04418,0.03751 0.06838,0.06183 0.02504,0.02326 0.04871,0.04716 0.071,0.07172 0.0242,0.02433 0.04584,0.0475 0.06492,0.06952 0.01908,0.02202 0.03376,0.0397 0.04406,0.05305 l .6096,.4815 m -2.8977,1.0299 c -0.02112,0.02673 -0.03605,0.05662 -0.04478,0.08967 -0.0085,0.03496 -0.0075,0.0722 0.0029,0.111724 0.01046,0.03952 0.03232,0.0811 0.06558,0.124747 0.03241,0.04471 0.0791,0.09114 0.140055,0.139294 0.166826,0.131786 0.311066,0.207521 0.43272,0.227207 0.121652,0.01968 0.213736,-0.01004 0.276251,-0.08918 0.05322,-0.06737 0.0625,-0.132985 0.02784,-0.196836 -0.03466,-0.06385 -0.107065,-0.139285 -0.217213,-0.226297 l -.2262,-.1787 c -0.02887,-0.02281 -0.06242,-0.0441 -0.100641,-0.06387 -0.03907,-0.0187 -0.07926,-0.03048 -0.120579,-0.03533 -0.04132,-0.0049 -0.08259,-0.000982 -0.123802,0.01162 -0.04099,0.01451 -0.07838,0.04316 -0.112171,0.08593 m 1.3296,-1.3203 c -0.07688,0.09732 -0.118255,0.18707 -0.124133,0.269262 -0.0059,0.08219 0.02807,0.152435 0.101864,0.210725 0.077,0.06083 0.153723,0.07802 0.230185,0.05158 0.07646,-0.02644 0.153126,-0.08831 0.230004,-0.185628 0.07603,-0.09625 0.11932,-0.186225 0.129875,-0.269937 0.01162,-0.08287 -0.0216,-0.155133 -0.09967,-0.216804 -0.14651,-0.115734 -0.302553,-0.0688 -0.468129,0.140801"/>
<path id="path3058" d="m -13.3639,18.3125 c -0.0822,-0.07368 -0.176629,-0.106153 -0.283276,-0.09743 -0.105636,0.0096 -0.217998,0.07272 -0.337088,0.189255 l .5922,.5308 c 0.04537,-0.05267 0.08153,-0.106276 0.108466,-0.160829 0.02693,-0.05455 0.04232,-0.108475 0.04617,-0.161766 0.0047,-0.0543 -0.003,-0.106964 -0.02312,-0.157978 -0.02016,-0.05101 -0.0546,-0.09835 -0.10331,-0.142011 m -1.2259,1.4872 c -0.121781,-0.109153 -0.218003,-0.227425 -0.288664,-0.354814 -0.07066,-0.12739 -0.111199,-0.259805 -0.121609,-0.397245 -0.0095,-0.138455 0.01361,-0.280623 0.06933,-0.426504 0.05764,-0.145987 0.152412,-0.292556 0.284306,-0.439708 0.133712,-0.14918 0.269371,-0.262759 0.406978,-0.340736 0.137604,-0.07798 0.273098,-0.123988 0.40648,-0.138038 0.135303,-0.01415 0.266973,0.0023 0.395011,0.04933 0.129048,0.04795 0.251418,0.12378 0.367112,0.227475 0.112645,0.100967 0.198665,0.20918 0.258061,0.324639 0.06132,0.115355 0.09387,0.234212 0.09767,0.356572 0.0048,0.12327 -0.01925,0.248118 -0.07217,0.374544 -0.051,0.126322 -0.131987,0.251387 -0.242956,0.375198 l -.2019,.2253 -1.0382,-.9305 c -0.05619,0.06677 -0.09879,0.134726 -0.127827,0.20387 -0.02711,0.06904 -0.04029,0.136834 -0.03955,0.203386 0.0027,0.06645 0.01921,0.130685 0.04962,0.192719 0.03143,0.06294 0.0781,0.122157 0.140002,0.177644 0.05175,0.04639 0.102742,0.08751 0.152959,0.123372 0.05214,0.03575 0.10503,0.0676 0.158676,0.09556 0.05364,0.02795 0.109052,0.05291 0.166231,0.07487 0.05808,0.02095 0.11946,0.04027 0.184126,0.05797 l -.322,.3593 c -0.0597,-0.01507 -0.11717,-0.03365 -0.172421,-0.05572 -0.05333,-0.02218 -0.107376,-0.04866 -0.162138,-0.07944 -0.05476,-0.03078 -0.110352,-0.0678 -0.166761,-0.111037 -0.05732,-0.04223 -0.11744,-0.09154 -0.180359,-0.147932"/>
<path id="path3060" d="m -11.0236,19.9443 c 0.01155,0.01158 0.02358,0.0246 0.0361,0.03906 0.01444,0.01447 0.02695,0.02894 0.03754,0.0434 0.01251,0.01447 0.0231,0.02797 0.03176,0.0405 0.01059,0.01254 0.0178,0.02266 0.02165,0.03038 l -.4138,.413 c -0.0058,-0.0096 -0.01444,-0.02218 -0.02598,-0.03761 -0.01155,-0.01543 -0.02454,-0.03134 -0.03898,-0.04774 -0.01251,-0.01639 -0.02599,-0.03183 -0.04043,-0.0463 -0.01348,-0.01543 -0.02503,-0.02797 -0.03465,-0.03762 -0.0568,-0.05691 -0.116505,-0.102263 -0.179108,-0.136052 -0.06164,-0.03282 -0.126192,-0.05023 -0.193644,-0.05223 -0.06553,-0.002 -0.134446,0.01384 -0.206752,0.0475 -0.07038,0.03366 -0.143674,0.08852 -0.219876,0.16457 l -.8233,.8217 -.4404,-.4413 1.6176,-1.6145 .3336,.3342 -.1781,.3077 .0217,.0217 c 0.06458,-0.01825 0.127231,-0.03071 0.187951,-0.0374 0.06072,-0.0067 0.119015,-0.0052 0.1749,0.0045 0.05781,0.0097 0.113681,0.02902 0.16762,0.05798 0.05586,0.02896 0.110749,0.07046 0.164664,0.124474"/>
</g>
</g>
</g>
</g>
<g style="stroke:none" id="layer5">
<path style="opacity:.5;fill:url(#linearGradient3188)" id="rect3728" d="m 12,6 c -3.324,0 -6,2.676 -6,6 v 2 68 2 c 0,0.334721 0.04135,0.6507 0.09375,0.96875 0.0487,0.295596 0.09704,0.596915 0.1875,0.875 0.00988,0.03038 0.020892,0.0636 0.03125,0.09375 0.098865,0.287771 0.23488,0.547452 0.375,0.8125 0.144592,0.273507 0.315616,0.535615 0.5,0.78125 0.184384,0.245635 0.373776,0.473472 0.59375,0.6875 0.439947,0.428056 0.94291,0.814526 1.5,1.09375 0.278545,0.139612 0.573473,0.246947 0.875,0.34375 -0.256202,-0.100222 -0.486711,-0.236272 -0.71875,-0.375 -0.00741,-0.0044 -0.023866,0.0045 -0.03125,0 -0.031933,-0.0193 -0.062293,-0.04251 -0.09375,-0.0625 -0.120395,-0.0767 -0.231023,-0.163513 -0.34375,-0.25 -0.106173,-0.0808 -0.213281,-0.161112 -0.3125,-0.25 -0.17793,-0.161433 -0.34746,-0.345388 -0.5,-0.53125 -0.107579,-0.130255 -0.218394,-0.265285 -0.3125,-0.40625 -0.025089,-0.03838 -0.038446,-0.08587 -0.0625,-0.125 -0.064763,-0.103032 -0.130228,-0.204517 -0.1875,-0.3125 -0.101008,-0.194706 -0.205675,-0.415701 -0.28125,-0.625 -0.00796,-0.02181 -0.023589,-0.04055 -0.03125,-0.0625 -0.0318251,-0.09195 -0.0358045,-0.186831 -0.0625,-0.28125 -0.0303323,-0.106618 -0.0703894,-0.203031 -0.09375,-0.3125 -0.0728786,-0.341512 -0.125,-0.698205 -0.125,-1.0625 v -2 -68 -2 c 0,-2.78185 2.21815,-5 5,-5 h 2 68 2 c 2.78185,0 5,2.21815 5,5 v 2 68 2 c 0,0.364295 -0.05212,0.720988 -0.125,1.0625 -0.04415,0.206893 -0.08838,0.397658 -0.15625,0.59375 -0.0077,0.02195 -0.0233,0.04069 -0.03125,0.0625 -0.06274,0.173739 -0.138383,0.367449 -0.21875,0.53125 -0.04158,0.0828 -0.07904,0.169954 -0.125,0.25 -0.0546,0.09721 -0.126774,0.18835 -0.1875,0.28125 -0.09411,0.140965 -0.204921,0.275995 -0.3125,0.40625 -0.143174,0.17445 -0.303141,0.346998 -0.46875,0.5 -0.01117,0.0102 -0.01998,0.02115 -0.03125,0.03125 -0.138386,0.125556 -0.285091,0.234436 -0.4375,0.34375 -0.102571,0.07315 -0.204318,0.153364 -0.3125,0.21875 -0.0074,0.0045 -0.02384,-0.0044 -0.03125,0 -0.232039,0.138728 -0.462548,0.274778 -0.71875,0.375 0.301527,-0.0968 0.596455,-0.204138 0.875,-0.34375 0.55709,-0.279224 1.06005,-0.665694 1.5,-1.09375 0.219973,-0.214028 0.409366,-0.441865 0.59375,-0.6875 0.184384,-0.245635 0.355408,-0.507743 0.5,-0.78125 0.14012,-0.265048 0.276135,-0.524729 0.375,-0.8125 0.01041,-0.03078 0.02133,-0.06274 0.03125,-0.09375 0.09046,-0.278085 0.1388,-0.579404 0.1875,-0.875 0.0524,-0.31805 0.09375,-0.634029 0.09375,-0.96875 v -2 -68 -2 c 0,-3.324 -2.676,-6 -6,-6 h -72 z "/>
<path style="opacity:.45;fill:url(#radialGradient2874)" id="path3615" d="M 12,90 C 8.676,90 6,87.324 6,84 L 6,82 6,14 6,12 c 0,-0.334721 0.04135,-0.6507 0.09375,-0.96875 0.0487,-0.295596 0.09704,-0.596915 0.1875,-0.875 C 6.29113,10.12587 6.302142,10.09265 6.3125,10.0625 6.411365,9.774729 6.5473802,9.515048 6.6875,9.25 6.8320918,8.976493 7.0031161,8.714385 7.1875,8.46875 7.3718839,8.223115 7.5612765,7.995278 7.78125,7.78125 8.221197,7.353194 8.72416,6.966724 9.28125,6.6875 9.559795,6.547888 9.8547231,6.440553 10.15625,6.34375 9.9000482,6.443972 9.6695391,6.580022 9.4375,6.71875 c -0.00741,0.0044 -0.023866,-0.0045 -0.03125,0 -0.031933,0.0193 -0.062293,0.04251 -0.09375,0.0625 -0.120395,0.0767 -0.2310226,0.163513 -0.34375,0.25 -0.1061728,0.0808 -0.2132809,0.161112 -0.3125,0.25 C 8.4783201,7.442683 8.3087904,7.626638 8.15625,7.8125 8.0486711,7.942755 7.9378561,8.077785 7.84375,8.21875 7.818661,8.25713 7.805304,8.30462 7.78125,8.34375 7.716487,8.446782 7.6510225,8.548267 7.59375,8.65625 7.4927417,8.850956 7.3880752,9.071951 7.3125,9.28125 7.30454,9.30306 7.288911,9.3218 7.28125,9.34375 7.2494249,9.4357 7.2454455,9.530581 7.21875,9.625 7.1884177,9.731618 7.1483606,9.828031 7.125,9.9375 7.0521214,10.279012 7,10.635705 7,11 l 0,2 0,68 0,2 c 0,2.781848 2.2181517,5 5,5 l 2,0 68,0 2,0 c 2.781848,0 5,-2.218152 5,-5 l 0,-2 0,-68 0,-2 C 89,10.635705 88.94788,10.279012 88.875,9.9375 88.83085,9.730607 88.78662,9.539842 88.71875,9.34375 88.71105,9.3218 88.69545,9.30306 88.6875,9.28125 88.62476,9.107511 88.549117,8.913801 88.46875,8.75 88.42717,8.6672 88.38971,8.580046 88.34375,8.5 88.28915,8.40279 88.216976,8.31165 88.15625,8.21875 88.06214,8.077785 87.951329,7.942755 87.84375,7.8125 87.700576,7.63805 87.540609,7.465502 87.375,7.3125 87.36383,7.3023 87.35502,7.29135 87.34375,7.28125 87.205364,7.155694 87.058659,7.046814 86.90625,6.9375 86.803679,6.86435 86.701932,6.784136 86.59375,6.71875 c -0.0074,-0.0045 -0.02384,0.0044 -0.03125,0 -0.232039,-0.138728 -0.462548,-0.274778 -0.71875,-0.375 0.301527,0.0968 0.596455,0.204138 0.875,0.34375 0.55709,0.279224 1.060053,0.665694 1.5,1.09375 0.219973,0.214028 0.409366,0.441865 0.59375,0.6875 0.184384,0.245635 0.355408,0.507743 0.5,0.78125 0.14012,0.265048 0.276135,0.524729 0.375,0.8125 0.01041,0.03078 0.02133,0.06274 0.03125,0.09375 0.09046,0.278085 0.1388,0.579404 0.1875,0.875 C 89.95865,11.3493 90,11.665279 90,12 l 0,2 0,68 0,2 c 0,3.324 -2.676,6 -6,6 l -72,0 z"/>
</g>
</svg>
