<svg width="96" version="1.0" xmlns="http://www.w3.org/2000/svg" height="96" xmlns:xlink="http://www.w3.org/1999/xlink">
<defs id="defs2410">
<clipPath id="clipPath3871">
<path style="fill:#fff;stroke:none" id="path3873" d="m 0,96 0,60 h 96 v -60 h -96 z  m 68,20 c 9.94112,0 18,8.05888 18,18 0,9.94112 -8.05888,18 -18,18 -9.94112,0 -18,-8.05888 -18,-18 0,-9.94112 8.05888,-18 18,-18 z "/>
</clipPath>
<clipPath id="clipPath3823">
<path style="fill:#fff;stroke:none" id="path3825" d="M 108.8125,58 C 107.25437,58 106,59.254375 106,60.8125 l 0,24.375 C 106,86.745625 107.25437,88 108.8125,88 l 24.375,0 C 134.74562,88 136,86.745625 136,85.1875 l 0,-24.375 C 136,59.254375 134.74562,58 133.1875,58 l -24.375,0 z m 7.1875,4.5 10,0 0,8.75 5,0 -10,13.75 -10,-13.75 5,0 0,-8.75 z"/>
</clipPath>
<filter width="1.6231135" x="-0.31155673" y="-0.42628157" height="1.8525631" style="color-interpolation-filters:sRGB" id="filter4362">
<feGaussianBlur stdDeviation="6.2124381" id="feGaussianBlur4364"/>
</filter>
<filter style="color-interpolation-filters:sRGB" id="filter3806">
<feGaussianBlur stdDeviation="1.2" id="feGaussianBlur3808"/>
</filter>
<filter style="color-interpolation-filters:sRGB" id="filter3174">
<feGaussianBlur stdDeviation="1.71" id="feGaussianBlur3176"/>
</filter>
<filter style="color-interpolation-filters:sRGB" id="filter3831">
<feGaussianBlur stdDeviation="0.6375" id="feGaussianBlur3833"/>
</filter>
<linearGradient gradientTransform="translate(0,4)" id="linearGradient3788" xlink:href="#linearGradient3737" y1="54" x1="70" y2="75.095024" x2="70" gradientUnits="userSpaceOnUse"/>
<linearGradient id="linearGradient4420" xlink:href="#linearGradient4414" y1="44.040279" x1="8.9651041" y2="52.263294" x2="8.9651041" gradientUnits="userSpaceOnUse"/>
<linearGradient gradientTransform="matrix(0.625,0,0,0.625,78.5,32.25)" id="linearGradient3812" xlink:href="#linearGradient5010" y1="64.205269" x1="65.262688" y2="50.068527" x2="65.262688" gradientUnits="userSpaceOnUse"/>
<linearGradient gradientTransform="matrix(-1,0,0,1,96.086934,0)" id="linearGradient4424" xlink:href="#linearGradient4414" y1="44.040279" x1="8.9651041" y2="52.263294" x2="8.9651041" gradientUnits="userSpaceOnUse"/>
<linearGradient id="linearGradient3737-4">
<stop offset="0" style="stop-color:#fff" id="stop3739-1"/>
<stop offset="1" style="stop-color:#fff;stop-opacity:0" id="stop3741-8"/>
</linearGradient>
<linearGradient gradientTransform="matrix(0.9375,0,0,0.9375,-140.5,3.5)" id="linearGradient3773" xlink:href="#linearGradient3778" y1="72" x1="56" y2="72" x2="88" gradientUnits="userSpaceOnUse"/>
<linearGradient gradientTransform="matrix(0.625,0,0,0.625,28.5,31.25)" id="linearGradient3832" xlink:href="#linearGradient3737" y1="64.205269" x1="65.262688" y2="50.068527" x2="65.262688" gradientUnits="userSpaceOnUse"/>
<linearGradient id="linearGradient3934" xlink:href="#linearGradient3928" y1="61.990967" x1="48.40115" y2="4.6666145" x2="48.40115" gradientUnits="userSpaceOnUse"/>
<linearGradient id="linearGradient3942" xlink:href="#linearGradient3928" y1="60.307007" x1="46.795631" y2="6.0179305" x2="46.795631" gradientUnits="userSpaceOnUse"/>
<linearGradient gradientTransform="matrix(1.0238095,0,0,1.0119048,-1.1428571,-98.071429)" id="linearGradient3725" xlink:href="#ButtonShadow-0" y1="6.1317081" x1="32.251034" y2="90.238609" x2="32.251034" gradientUnits="userSpaceOnUse"/>
<linearGradient gradientTransform="matrix(1.0238095,0,0,1.0119048,-1.1428571,-98.071429)" id="linearGradient2918" xlink:href="#ButtonShadow-0" y1="6.1317081" x1="32.251034" y2="90.238609" x2="32.251034" gradientUnits="userSpaceOnUse"/>
<linearGradient gradientTransform="translate(0,-97)" id="linearGradient3721" xlink:href="#ButtonShadow-0" y1="6.1317081" x1="32.251034" y2="90.238609" x2="32.251034" gradientUnits="userSpaceOnUse"/>
<linearGradient gradientTransform="matrix(1.0238095,0,0,1.0119048,-1.1428571,-98.071429)" id="linearGradient3772" xlink:href="#ButtonShadow-0" y1="6.1317081" x1="32.251034" y2="90.238609" x2="32.251034" gradientUnits="userSpaceOnUse"/>
<linearGradient id="linearGradient3844" xlink:href="#linearGradient3157" y1="72.785713" x1="51.42857" y2="72.785713" x2="90.714287" gradientUnits="userSpaceOnUse"/>
<linearGradient gradientTransform="matrix(1.0238095,0,0,1.0119048,-1.1428571,-98.071429)" id="linearGradient3780" xlink:href="#ButtonShadow-0" y1="6.1317081" x1="32.251034" y2="90.238609" x2="32.251034" gradientUnits="userSpaceOnUse"/>
<linearGradient gradientTransform="translate(-2,0)" id="linearGradient3857-6" xlink:href="#linearGradient3737-1" y1="55.310268" x1="64.321426" y2="84.889679" x2="64.321426" gradientUnits="userSpaceOnUse"/>
<linearGradient gradientTransform="matrix(1.0058652,0,0,0.994169,100,0)" id="ButtonShadow-0" y1="92.539597" x1="45.447727" y2="7.0165396" x2="45.447727" gradientUnits="userSpaceOnUse">
<stop offset="0" id="stop3750-8"/>
<stop offset="1" style="stop-opacity:.588" id="stop3752-5"/>
</linearGradient>
<linearGradient id="linearGradient3737-1">
<stop offset="0" style="stop-color:#fff" id="stop3739-5"/>
<stop offset="1" style="stop-color:#fff;stop-opacity:0" id="stop3741-9"/>
</linearGradient>
<linearGradient gradientTransform="matrix(-1,0,0,1,96,0)" id="linearGradient4402" xlink:href="#linearGradient3737" y1="40.263424" x1="10" y2="89.666374" x2="10" gradientUnits="userSpaceOnUse"/>
<linearGradient id="linearGradient4309" y1="47.247101" x1="52.25" y2="0.2393" x2="52.25" gradientUnits="userSpaceOnUse">
<stop offset="0" style="stop-color:#d8cab2" id="stop4311"/>
<stop offset="0.45710954" style="stop-color:#d2b98c" id="stop4321"/>
<stop offset="0.48590001" style="stop-color:#f9f7ef" id="stop4323"/>
<stop offset="0.49110001" style="stop-color:#fff" id="stop4325"/>
<stop offset="0.49180001" style="stop-color:#fbf9f4" id="stop4327"/>
<stop offset="0.4946" style="stop-color:#efe7d0" id="stop4329"/>
<stop offset="0.49770001" style="stop-color:#e4d6b0" id="stop4331"/>
<stop offset="0.5011" style="stop-color:#dac894" id="stop4333"/>
<stop offset="0.50489998" style="stop-color:#c7a572" id="stop4335"/>
<stop offset="1" style="stop-color:#d7c198" id="stop4347"/>
</linearGradient>
<linearGradient gradientTransform="matrix(-1,0,0,1,96,0)" id="linearGradient4400" xlink:href="#linearGradient4370" y1="38.127232" x1="8" y2="87.029526" x2="8" gradientUnits="userSpaceOnUse"/>
<linearGradient id="linearGradient4295">
<stop offset="0" style="stop-color:#b88f56" id="stop4297"/>
<stop offset="1" style="stop-color:#d9bd98" id="stop4299"/>
</linearGradient>
<linearGradient id="linearGradient5092">
<stop offset="0" style="stop-color:#be9f6a" id="stop5094"/>
<stop offset="1" style="stop-color:#e5d2b2" id="stop5096"/>
</linearGradient>
<linearGradient id="linearGradient4289">
<stop offset="0" style="stop-color:#996c3b" id="stop4291"/>
<stop offset="1" style="stop-color:#c19e6d" id="stop4293"/>
</linearGradient>
<linearGradient id="linearGradient4370">
<stop offset="0" style="stop-color:#8a5b30" id="stop4372"/>
<stop offset="1" style="stop-color:#8a5b30;stop-opacity:0" id="stop4374"/>
</linearGradient>
<linearGradient id="linearGradient3928">
<stop offset="0" style="stop-color:#3a240f" id="stop3930"/>
<stop offset="1" style="stop-color:#3a240f;stop-opacity:0" id="stop3932"/>
</linearGradient>
<linearGradient id="linearGradient4414">
<stop offset="0" style="stop-color:#dac3a2" id="stop4416"/>
<stop offset="1" style="stop-color:#dac3a2;stop-opacity:0" id="stop4418"/>
</linearGradient>
<linearGradient id="linearGradient3157">
<stop offset="0" style="stop-color:#de6010" id="stop3159"/>
<stop offset="1" style="stop-color:#f3bd49" id="stop3161"/>
</linearGradient>
<linearGradient id="linearGradient4426">
<stop offset="0" style="stop-color:#71461e" id="stop4428"/>
<stop offset="1" style="stop-color:#71461e;stop-opacity:0" id="stop4430"/>
</linearGradient>
<linearGradient id="linearGradient3778">
<stop offset="0" style="stop-color:#499119" id="stop3780"/>
<stop offset="1" style="stop-color:#8fd625" id="stop3782"/>
</linearGradient>
<linearGradient id="linearGradient5010">
<stop offset="0" id="stop5012"/>
<stop offset="1" style="stop-opacity:0" id="stop5014"/>
</linearGradient>
<linearGradient gradientTransform="scale(1.0058652,0.994169)" id="ButtonShadow" y1="92.539597" x1="45.447727" y2="7.0165396" x2="45.447727" gradientUnits="userSpaceOnUse">
<stop offset="0" id="stop3750"/>
<stop offset="1" style="stop-opacity:.588" id="stop3752"/>
</linearGradient>
<linearGradient id="linearGradient3285" xlink:href="#linearGradient3737" y1="42" x1="23.142857" y2="6" x2="66.964287" gradientUnits="userSpaceOnUse"/>
<linearGradient id="linearGradient4394" xlink:href="#linearGradient3737" y1="40.263424" x1="10" y2="89.666374" x2="10" gradientUnits="userSpaceOnUse"/>
<linearGradient id="linearGradient4376" xlink:href="#linearGradient4370" y1="38.127232" x1="8" y2="71.877235" x2="8" gradientUnits="userSpaceOnUse"/>
<linearGradient id="linearGradient3277" xlink:href="#linearGradient4309" y1="19.881863" x1="50.499405" y2="47.295406" x2="50.499405" gradientUnits="userSpaceOnUse"/>
<linearGradient id="linearGradient3737">
<stop offset="0" style="stop-color:#fff" id="stop3739"/>
<stop offset="1" style="stop-color:#fff;stop-opacity:0" id="stop3741"/>
</linearGradient>
<linearGradient id="linearGradient3706" xlink:href="#linearGradient4289" y1="90" x1="54.187183" y2="39.852562" x2="54.187183" gradientUnits="userSpaceOnUse"/>
<linearGradient id="linearGradient5100" xlink:href="#linearGradient5092" y1="32.782871" x1="47.079498" y2="9.4098616" x2="6.5962563" gradientUnits="userSpaceOnUse"/>
<linearGradient gradientTransform="matrix(-1,0,0,1,96,0)" id="linearGradient3264" xlink:href="#linearGradient4295" y1="29.039698" x1="47.226776" y2="18.081558" x2="6.3304405" gradientUnits="userSpaceOnUse"/>
<linearGradient id="linearGradient2489" xlink:href="#linearGradient4295" y1="42" x1="48" y2="18.202358" x2="6.7812738" gradientUnits="userSpaceOnUse"/>
<radialGradient fx="48" fy="73.14563" cx="48" cy="73.14563" gradientTransform="matrix(0.867765,0,0,0.09523809,6.3472804,36.190476)" r="42" id="radialGradient4432" xlink:href="#linearGradient4426" gradientUnits="userSpaceOnUse"/>
<radialGradient fx="48" fy="90.171875" cx="48" cy="90.171875" gradientTransform="matrix(1.1573129,0,0,0.99590774,-7.551021,0.1971319)" r="42" id="radialGradient2858" xlink:href="#linearGradient3737-4" gradientUnits="userSpaceOnUse"/>
</defs>
<g style="display:none" id="layer2">
<path style="opacity:.9;fill:url(#ButtonShadow);filter:url(#filter3174);stroke:none" id="rect3745" d="M 11,7 48,5 85,7 c 3.324,0 6,2.676 6,6 l 0,73 c 0,3.324 -2.676,6 -6,6 L 11,92 C 7.676,92 5,89.324 5,86 L 5,13 C 5,9.676 7.676,7 11,7 z"/>
</g>
<g style="stroke:none" id="layer3">
<path style="opacity:.08;fill:url(#linearGradient2918)" id="path3786" d="m 12,-95.0312 c -5.51109,0 -10.0312,4.52016 -10.0312,10.0312 v 71 c 0,5.51109 4.52016,10.0312 10.0312,10.0312 h 72 c 5.51109,0 10.0312,-4.52016 10.0312,-10.0312 v -71 c 0,-5.51109 -4.52016,-10.0312 -10.0312,-10.0312 h -72 z " transform="scale(1,-1)"/>
<path style="opacity:.1;fill:url(#linearGradient3780)" id="path3778" d="m 12,-94.0312 c -4.97163,0 -9.03125,4.05962 -9.03125,9.03125 v 71 c 0,4.97163 4.05962,9.03125 9.03125,9.03125 h 72 c 4.97163,0 9.03125,-4.05962 9.03125,-9.03125 v -71 c 0,-4.97163 -4.05962,-9.03125 -9.03125,-9.03125 h -72 z " transform="scale(1,-1)"/>
<path style="opacity:.2;fill:url(#linearGradient3772)" id="path3770" d="m 12,-93 c -4.40913,0 -8,3.59087 -8,8 v 71 c 0,4.40913 3.59087,8 8,8 h 72 c 4.40913,0 8,-3.59087 8,-8 v -71 c 0,-4.40913 -3.59087,-8 -8,-8 h -72 z " transform="scale(1,-1)"/>
<rect width="86" x="5" y="-92" rx="7" height="85" ry="7" style="opacity:.3;fill:url(#linearGradient3725)" id="rect3723" transform="scale(1,-1)"/>
<rect width="84" x="6" y="-91" rx="6" height="84" ry="6" style="opacity:.45;fill:url(#linearGradient3721)" id="rect3716" transform="scale(1,-1)"/>
</g>
<g id="layer1">
<g style="stroke:none">
<path style="fill:url(#linearGradient4376)" id="rect5138" d="m 6,36 0,48 c 0,1.781762 0.7745675,3.371709 2,4.46875 L 8,36 6,36 z"/>
<rect width="84" x="6" y="6" rx="6" height="84" ry="6" style="fill:url(#linearGradient3706)" id="rect2419"/>
<path style="fill:url(#radialGradient4432)" id="path3287" d="m 6,36 0,2 c 0,3.324 2.676,6 6,6 h 72 c 3.324,0 6,-2.676 6,-6 v -2 c 0,3.324 -2.676,6 -6,6 h -72 c -3.324,0 -6,-2.676 -6,-6 z "/>
<path style="fill:url(#linearGradient4400)" id="path4396" d="m 90,36 0,48 c 0,1.78176 -0.774567,3.37171 -2,4.46875 v -52.4688 h 2 z "/>
<rect width="84" x="6" y="18" rx="6" height="24" ry="6" style="fill:#3c2510" id="rect2483"/>
<path style="opacity:.3;fill:url(#linearGradient4402)" id="path4398" d="m 88,36 0,52.4688 c -0.576856,0.516417 -1.25492,0.923089 -2,1.1875 v -53.6562 h 2 z "/>
<path style="opacity:.3;fill:url(#linearGradient4394)" id="path4378" d="m 8,36 0,52.46875 c 0.5768558,0.516417 1.254924,0.923089 2,1.1875 L 10,36 8,36 z"/>
<path style="fill:url(#linearGradient5100)" id="path5055" d="m 12,6 c -3.22658,0 -6,2.2593 -6,7 v 2 20.6562 l 42,.0344 v -29.6907 h -34 -2 z "/>
<rect width="47.855976" x="12.753176" y="41.956837" rx="6" height="34.976532" ry="6" style="opacity:.3;fill:#dac7a8;filter:url(#filter4362)" id="rect4356" transform="matrix(1,0,0,0.8555957,10,8.5841304)"/>
<path style="fill:url(#linearGradient2489)" id="rect2481" d="M 12,6 C 8.676,6 6,8.676 6,12 l 0,24 c 0,3.324 2.676,6 6,6 L 48,40 48,4 12,6 z"/>
</g>
<path style="opacity:.5;fill:#3a240f" id="path5008" d="m 54.1204,7 -12.1204,0 .0602,24.0622 .1346,28.9378 l 5.6868,-.4947 6.0439,-.5253 .0326,-5.5512 .102,-22.3665 .0602,-24.0622 z "/>
<path style="fill:url(#linearGradient3264);stroke:none" id="path3262" d="m 84,6 c 3.324,0 6,2.676 6,6 l 0,24 c 0,3.324 -2.676,6 -6,6 L 48,40 48,4 84,6 z"/>
<path style="opacity:.1;fill:url(#linearGradient3934)" id="path3926" d="m 41.6875,5.125 c 0.0042,-7.112e-4 -0.191651,0.032337 -0.1875,0.03125 0.0042,-0.00109 -0.160287,0.063954 -0.15625,0.0625 0.004,-0.00145 -0.160141,0.064309 -0.15625,0.0625 0.0039,-0.00181 -0.128713,0.06465 -0.125,0.0625 0.0037,-0.00215 -0.159756,0.096223 -0.15625,0.09375 0.0035,-0.00247 -0.128271,0.1277772 -0.125,0.125 0.0033,-0.00278 -0.128009,0.096809 -0.125,0.09375 0.003,-0.00306 -0.127724,0.1283156 -0.125,0.125 0.0027,-0.00332 -0.09617,0.1597959 -0.09375,0.15625 0.0024,-0.00355 -0.09584,0.1287479 -0.09375,0.125 0.0021,-0.00375 -0.06424,0.1601697 -0.0625,0.15625 0.0017,-0.00392 -0.06389,0.1603101 -0.0625,0.15625 0.0014,-0.00406 -0.03227,0.160418 -0.03125,0.15625 0.001,-0.00417 -0.06314,0.1604925 -0.0625,0.15625 6.42e-4,-0.00424 -2.6e-4,0.1917829 0,0.1875 2.08e-4,-0.00343 7.69e-4,0.08233 0,0.125 l 0,0.03125 L 40.1875,31.0625 40.3125,60 a 1.0057838,1.0057838 0 0 0 0,0.03125 c -4.2e-5,-0.0025 1.68e-4,0.0962 0,0.09375 -1.68e-4,-0.0025 2.94e-4,0.09619 0,0.09375 -2.94e-4,-0.0024 0.03167,0.09617 0.03125,0.09375 -4.19e-4,-0.0024 5.42e-4,0.09615 0,0.09375 -5.42e-4,-0.0024 0.03191,0.09611 0.03125,0.09375 -6.64e-4,-0.0024 0.03204,0.09608 0.03125,0.09375 -7.85e-4,-0.0023 0.03215,0.06479 0.03125,0.0625 -9.03e-4,-0.0023 0.03227,0.09599 0.03125,0.09375 -0.001,-0.0022 0.06363,0.09593 0.0625,0.09375 -0.0011,-0.0022 0.03249,0.09587 0.03125,0.09375 -0.0012,-0.0021 0.06385,0.06455 0.0625,0.0625 -0.0014,-0.0021 0.0327,0.09573 0.03125,0.09375 -0.0015,-0.002 0.06405,0.0644 0.0625,0.0625 -0.0016,-0.0019 0.06415,0.09557 0.0625,0.09375 -0.0016,-0.0018 0.06424,0.06423 0.0625,0.0625 -0.0017,-0.0017 0.09558,0.06414 0.09375,0.0625 -0.0018,-0.0016 0.06441,0.06405 0.0625,0.0625 -0.0019,-0.0015 0.06448,0.06395 0.0625,0.0625 -0.002,-0.0014 0.09581,0.06384 0.09375,0.0625 -0.0021,-0.0013 0.06462,0.03249 0.0625,0.03125 -0.0021,-0.0012 0.09593,0.06363 0.09375,0.0625 -0.0022,-0.0011 0.09599,0.03226 0.09375,0.03125 -0.0022,-0.001 0.09604,0.03215 0.09375,0.03125 -0.0023,-8.97e-4 0.09608,0.03203 0.09375,0.03125 -0.0023,-7.79e-4 0.09612,0.03191 0.09375,0.03125 -0.0024,-6.58e-4 0.09615,0.03179 0.09375,0.03125 -0.0024,-5.36e-4 0.09617,4.12e-4 0.09375,0 -0.0024,-4.12e-4 0.09619,0.03154 0.09375,0.03125 -0.0024,-2.88e-4 0.0962,1.62e-4 0.09375,0 -0.0025,-1.62e-4 0.09621,3.6e-5 0.09375,0 -0.0025,-3.6e-5 0.0962,-9e-5 0.09375,0 -0.0025,9e-5 0.0962,-2.16e-4 0.09375,0 l 5.6875,-0.5 6.03125,-0.53125 c -8.93e-4,5.1e-5 0.02019,0.0012 0.03125,0 0.04424,-0.0047 0.128538,-5.37e-4 0.125,0 -0.0044,6.71e-4 0.19184,-0.06358 0.1875,-0.0625 -0.0043,0.0011 0.160471,-0.03273 0.15625,-0.03125 -0.0042,0.0015 0.160314,-0.06437 0.15625,-0.0625 -0.0041,0.0019 0.160122,-0.09599 0.15625,-0.09375 -0.0039,0.0022 0.159897,-0.09634 0.15625,-0.09375 -0.0036,0.0026 0.128389,-0.09667 0.125,-0.09375 -0.0034,0.0029 0.128103,-0.128222 0.125,-0.125 -0.0031,0.0032 0.127789,-0.128497 0.125,-0.125 -0.0028,0.0035 0.0962,-0.159992 0.09375,-0.15625 -0.0025,0.0037 0.09584,-0.160204 0.09375,-0.15625 -0.0021,0.004 0.09546,-0.160382 0.09375,-0.15625 -0.0017,0.0041 0.06382,-0.160524 0.0625,-0.15625 -0.0013,0.0043 0.03217,-0.160628 0.03125,-0.15625 -9.16e-4,0.0044 0.03175,-0.191944 0.03125,-0.1875 -5.04e-4,0.0044 8.7e-5,-0.160722 0,-0.15625 a 1.0057838,1.0057838 0 0 0 0,-0.03125 L 55.84375,53.4375 55.9375,31.0625 56,7 c -7.3e-5,0.00479 -4.06e-4,-0.1610265 0,-0.15625 4.06e-4,0.00478 -0.03213,-0.1922121 -0.03125,-0.1875 8.81e-4,0.00471 -0.0326,-0.1921004 -0.03125,-0.1875 0.0013,0.0046 -0.0643,-0.1919427 -0.0625,-0.1875 0.0018,0.00444 -0.09599,-0.1604906 -0.09375,-0.15625 0.0022,0.00424 -0.0964,-0.160246 -0.09375,-0.15625 0.0026,0.004 -0.09678,-0.1599614 -0.09375,-0.15625 0.003,0.00371 -0.12839,-0.1596397 -0.125,-0.15625 0.0034,0.00339 -0.159961,-0.1280341 -0.15625,-0.125 0.0037,0.00303 -0.160246,-0.096398 -0.15625,-0.09375 0.004,0.00265 -0.160491,-0.095986 -0.15625,-0.09375 0.0042,0.00224 -0.160693,-0.095551 -0.15625,-0.09375 0.0044,0.0018 -0.1921,-0.063848 -0.1875,-0.0625 0.0046,0.00135 -0.192212,-0.032132 -0.1875,-0.03125 0.0047,8.815e-4 -0.192277,-0.031656 -0.1875,-0.03125 0.0048,4.063e-4 -0.161043,7.3e-5 -0.15625,0 l -12.03125,0 c 0.0026,2.364e-4 -0.04386,0.00229 -0.09375,0 -0.03326,-0.00153 -0.06424,0 -0.0625,0 0.0043,0 -0.19183,3.94e-4 -0.1875,0 a 1.0057838,1.0057838 0 0 0 -0.0625,0 z"/>
<path style="opacity:.2;fill:url(#linearGradient3942)" id="path3922" d="M 42,6.125 A 0.8619805,0.8619805 0 0 0 41.125,7 L 41.1875,31.0625 41.3125,60 a 0.8619805,0.8619805 0 0 0 0.9375,0.84375 l 5.6875,-0.5 L 54,59.8125 a 0.8619805,0.8619805 0 0 0 0.8125,-0.84375 L 54.84375,53.4375 54.9375,31.0625 55,7 A 0.8619805,0.8619805 0 0 0 54.125,6.125 L 42,6.125 z"/>
<path style="fill:url(#linearGradient3277)" id="polygon120" d="m 58.191,-1.3603 -5.941,-.4333 -5.941,.4333 .059,25.1883 .132,28.3687 l 5.575,-.485 5.925,-.515 .032,-5.442 .1,-21.9267 .059,-25.1883 z " transform="matrix(1.0200612,0,0,1.0200612,-5.2981977,5.7562055)"/>
<g style="stroke:none">
<path style="opacity:.3;fill:url(#linearGradient3285)" id="rect3266" d="m 12,6 c -3.324,0 -6,2.676 -6,6 v 24 c 0,3.324 2.676,6 6,6 l 36,-2 36,2 c 3.324,0 6,-2.676 6,-6 v -24 c 0,-3.324 -2.676,-6 -6,-6 l -36,-2 -36,2 z  m 0,2 36,-2 36,2 c 2.2458,0 4,1.7542 4,4 v 24 c 0,2.2458 -1.7542,4 -4,4 l -36,-2 -36,2 c -2.2458,0 -4,-1.7542 -4,-4 v -24 c 0,-2.2458 1.7542,-4 4,-4 z "/>
<rect width="1" x="47" y="4.1250005" height="35.714287" style="opacity:.2;fill:#8d6137" id="rect4363"/>
<rect width="1" x="48" y="4.1250005" height="35.714287" style="opacity:.2;fill:#fff" id="rect4365"/>
<g style="fill-rule:evenodd">
<path style="fill:url(#linearGradient4420)" id="path4404" d="m 6.1872,37.2849 c 2.39911,5.55584 1.89404,16.0362 1.89404,16.0362 l 1.8309,-.2525 c -0.252538,-8.20749 0.441941,-11.2379 4.98763,-11.3642 -7.16899,-1.19483 -8.71257,-4.41942 -8.71257,-4.41942 z "/>
<path style="fill:url(#linearGradient4424)" id="path4422" d="m 89.8997,37.2849 c -2.39911,5.55584 -1.89404,16.0362 -1.89404,16.0362 l -1.8309,-.2525 c 0.252538,-8.20749 -0.441942,-11.2379 -4.98763,-11.3642 7.16899,-1.19483 8.71257,-4.41942 8.71257,-4.41942 z "/>
</g>
<path style="opacity:.2;fill:url(#radialGradient2858)" id="path3615" d="M 12,90 C 8.676,90 6,87.324 6,84 L 6,82 6,14 6,12 c 0,-0.334721 0.04135,-0.6507 0.09375,-0.96875 0.0487,-0.295596 0.09704,-0.596915 0.1875,-0.875 C 6.29113,10.12587 6.302142,10.09265 6.3125,10.0625 6.411365,9.774729 6.5473802,9.515048 6.6875,9.25 6.8320918,8.976493 7.0031161,8.714385 7.1875,8.46875 7.3718839,8.223115 7.5612765,7.995278 7.78125,7.78125 8.221197,7.353194 8.72416,6.966724 9.28125,6.6875 9.559795,6.547888 9.8547231,6.440553 10.15625,6.34375 9.9000482,6.443972 9.6695391,6.580022 9.4375,6.71875 c -0.00741,0.0044 -0.023866,-0.0045 -0.03125,0 -0.031933,0.0193 -0.062293,0.04251 -0.09375,0.0625 -0.120395,0.0767 -0.2310226,0.163513 -0.34375,0.25 -0.1061728,0.0808 -0.2132809,0.161112 -0.3125,0.25 C 8.4783201,7.442683 8.3087904,7.626638 8.15625,7.8125 8.0486711,7.942755 7.9378561,8.077785 7.84375,8.21875 7.818661,8.25713 7.805304,8.30462 7.78125,8.34375 7.716487,8.446782 7.6510225,8.548267 7.59375,8.65625 7.4927417,8.850956 7.3880752,9.071951 7.3125,9.28125 7.30454,9.30306 7.288911,9.3218 7.28125,9.34375 7.2494249,9.4357 7.2454455,9.530581 7.21875,9.625 7.1884177,9.731618 7.1483606,9.828031 7.125,9.9375 7.0521214,10.279012 7,10.635705 7,11 l 0,2 0,68 0,2 c 0,2.781848 2.2181517,5 5,5 l 2,0 68,0 2,0 c 2.781848,0 5,-2.218152 5,-5 l 0,-2 0,-68 0,-2 C 89,10.635705 88.94788,10.279012 88.875,9.9375 88.83085,9.730607 88.78662,9.539842 88.71875,9.34375 88.71105,9.3218 88.69545,9.30306 88.6875,9.28125 88.62476,9.107511 88.549117,8.913801 88.46875,8.75 88.42717,8.6672 88.38971,8.580046 88.34375,8.5 88.28915,8.40279 88.216976,8.31165 88.15625,8.21875 88.06214,8.077785 87.951329,7.942755 87.84375,7.8125 87.700576,7.63805 87.540609,7.465502 87.375,7.3125 87.36383,7.3023 87.35502,7.29135 87.34375,7.28125 87.205364,7.155694 87.058659,7.046814 86.90625,6.9375 86.803679,6.86435 86.701932,6.784136 86.59375,6.71875 c -0.0074,-0.0045 -0.02384,0.0044 -0.03125,0 -0.232039,-0.138728 -0.462548,-0.274778 -0.71875,-0.375 0.301527,0.0968 0.596455,0.204138 0.875,0.34375 0.55709,0.279224 1.060053,0.665694 1.5,1.09375 0.219973,0.214028 0.409366,0.441865 0.59375,0.6875 0.184384,0.245635 0.355408,0.507743 0.5,0.78125 0.14012,0.265048 0.276135,0.524729 0.375,0.8125 0.01041,0.03078 0.02133,0.06274 0.03125,0.09375 0.09046,0.278085 0.1388,0.579404 0.1875,0.875 C 89.95865,11.3493 90,11.665279 90,12 l 0,2 0,68 0,2 c 0,3.324 -2.676,6 -6,6 l -72,0 z"/>
</g>
</g>
<g id="layer5">
<g id="g3745" transform="translate(0,-2)">
<rect width="14" x="15.5" y="49.5" rx="1.8666667" height="19" ry="2" style="fill:none;stroke:#825023" id="rect3739"/>
<g style="fill:#825023;stroke:none">
<path id="path3741" d="m 18.25,66 0,-9.25 -1.25,0 2.5,-4.75 2.5,4.75 -1.25,0 0,9.25 -2.5,0 z"/>
<path id="path3743" d="m 24.25,66 0,-9.25 -1.25,0 2.5,-4.75 2.5,4.75 -1.25,0 0,9.25 -2.5,0 z"/>
</g>
</g>
<g style="stroke:none;text-align:start;line-height:125%;fill:#553417;font-family:Arial Black">
<g style="font-weight:bold;font-size:2px" id="text3750">
<path id="path3137" d="m 15.1484,74.0823 1.0937,0 0,.3076 -.6494,0 0,.25 .5547,0 0,.2891 -.5547,0 0,.585 -.4443,0 0,-1.4316"/>
<path id="path3139" d="m 17.1758,75.2776 -.5039,0 -.0693,.2363 -.4521,0 .5381,-1.4316 .4824,0 .5381,1.4316 -.4629,0 -.0703,-.2363 m -.0928,-.3096 -.1582,-.5146 -.1572,.5146 .3154,0"/>
<path id="path3141" d="m 17.8486,74.0823 1.1855,0 0,.3057 -.7422,0 0,.2275 .6885,0 0,.292 -.6885,0 0,.2822 .7637,0 0,.3242 -1.207,0 0,-1.4316"/>
<path id="path3143" d="m 19.2979,74.0823 .4131,0 .5391,.792 0,-.792 .417,0 0,1.4316 -.417,0 -.5361,-.7861 0,.7861 -.416,0 0,-1.4316"/>
<path id="path3145" d="m 20.9268,74.0823 1.252,0 0,.2861 -.8027,.8379 .832,0 0,.3076 -1.3584,0 0,-.2969 .7939,-.8291 -.7168,0 0,-.3057"/>
<path id="path3147" d="m 23.2891,75.2776 -.5039,0 -.0693,.2363 -.4521,0 .5381,-1.4316 .4824,0 .5381,1.4316 -.4629,0 -.0703,-.2363 m -.0928,-.3096 -.1582,-.5146 -.1572,.5146 .3154,0"/>
</g>
<g style="font-size:1.5px">
<g style="font-family:Arial" id="text3754">
<path id="path3037" d="m 15.1099,81.514 0,-1.0737 .1421,0 0,.5325 .5332,-.5325 .1926,0 -.4504,.4351 .4702,.6387 -.1875,0 -.3823,-.5435 -.1758,.1714 0,.3721 -.1421,0"/>
<path id="path3039" d="m 16.6333,81.2635 .1362,.0169 c -0.02149,0.07959 -0.06128,0.141357 -0.119385,0.185302 -0.05811,0.04395 -0.132324,0.06592 -0.222656,0.06592 -0.11377,0 -0.204102,-0.03491 -0.270996,-0.104736 -0.06641,-0.07031 -0.09961,-0.168701 -0.09961,-0.295166 0,-0.130859 0.03369,-0.232421 0.101074,-0.304688 0.06738,-0.07226 0.154785,-0.108397 0.262207,-0.108398 0.104003,1e-06 0.188964,0.0354 0.254883,0.106201 0.06592,0.0708 0.09888,0.170411 0.09888,0.298828 -1e-06,0.0078 -0.000245,0.01953 -0.000733,0.03516 h -0.580078 c 0.0049,0.08545 0.02905,0.150879 0.07251,0.196289 0.04346,0.04541 0.09766,0.06812 0.162598,0.06812 0.04834,0 0.0896,-0.0127 0.123779,-0.03809 0.03418,-0.02539 0.06128,-0.06592 0.0813,-0.121582 m -.4329,-.2131 .4343,0 c -0.0059,-0.06543 -0.02246,-0.114501 -0.0498,-0.147217 -0.04199,-0.05078 -0.09644,-0.07617 -0.16333,-0.07617 -0.06055,1e-06 -0.111573,0.02026 -0.153076,0.06079 -0.04102,0.04053 -0.06372,0.09473 -0.06812,0.162598"/>
<path id="path3041" d="m 17.4683,81.2635 .1362,.0169 c -0.02149,0.07959 -0.06128,0.141357 -0.119385,0.185302 -0.05811,0.04395 -0.132324,0.06592 -0.222656,0.06592 -0.11377,0 -0.204102,-0.03491 -0.270996,-0.104736 -0.06641,-0.07031 -0.09961,-0.168701 -0.09961,-0.295166 0,-0.130859 0.03369,-0.232421 0.101074,-0.304688 0.06738,-0.07226 0.154785,-0.108397 0.262207,-0.108398 0.104003,1e-06 0.188964,0.0354 0.254883,0.106201 0.06592,0.0708 0.09888,0.170411 0.09888,0.298828 -1e-06,0.0078 -0.000245,0.01953 -0.000733,0.03516 h -0.580078 c 0.0049,0.08545 0.02905,0.150879 0.07251,0.196289 0.04346,0.04541 0.09766,0.06812 0.162598,0.06812 0.04834,0 0.0896,-0.0127 0.123779,-0.03809 0.03418,-0.02539 0.06128,-0.06592 0.0813,-0.121582 m -.4329,-.2131 .4343,0 c -0.0059,-0.06543 -0.02246,-0.114501 -0.0498,-0.147217 -0.04199,-0.05078 -0.09644,-0.07617 -0.16333,-0.07617 -0.06055,1e-06 -0.111573,0.02026 -0.153076,0.06079 -0.04102,0.04053 -0.06372,0.09473 -0.06812,0.162598"/>
<path id="path3043" d="m 17.7708,81.812 0,-1.0759 .1201,0 0,.1011 c 0.02832,-0.03955 0.0603,-0.06909 0.09595,-0.08862 0.03564,-0.02002 0.07886,-0.03003 0.129639,-0.03003 0.06641,1e-06 0.125,0.01709 0.175781,0.05127 0.05078,0.03418 0.08911,0.08252 0.114991,0.145019 0.02588,0.06201 0.03882,0.130127 0.03882,0.204346 -1e-06,0.07959 -0.01441,0.151367 -0.04321,0.215332 -0.02832,0.06348 -0.06983,0.112305 -0.124512,0.146484 -0.0542,0.03369 -0.111328,0.05054 -0.171386,0.05054 -0.04395,0 -0.0835,-0.0093 -0.118653,-0.02783 -0.03467,-0.01855 -0.06323,-0.04199 -0.08569,-0.07031 v 0.378662 h -0.131836 m .1194,-.6826 c 0,0.100098 0.02026,0.174072 0.06079,0.221924 0.04053,0.04785 0.0896,0.07178 0.147217,0.07178 0.05859,0 0.108642,-0.02466 0.150146,-0.07398 0.04199,-0.0498 0.06299,-0.126708 0.06299,-0.230713 0,-0.09912 -0.02051,-0.173339 -0.06152,-0.222656 -0.04053,-0.04932 -0.08911,-0.07397 -0.145752,-0.07398 -0.05615,1e-06 -0.105957,0.02637 -0.149414,0.0791 -0.04297,0.05225 -0.06445,0.128419 -0.06445,0.228516"/>
<path id="path3045" d="m 19.0225,80.5918 0,-.1516 .1318,0 0,.1516 -.1318,0 m 0,.9221 0,-.7778 .1318,0 0,.7778 -.1318,0"/>
<path id="path3047" d="m 19.3557,81.514 0,-.7778 .1187,0 0,.1106 c 0.05713,-0.08545 0.139648,-0.128173 0.247559,-0.128174 0.04687,1e-06 0.08984,0.0085 0.128906,0.02564 0.03955,0.0166 0.06909,0.03857 0.08862,0.06592 0.01953,0.02734 0.0332,0.05982 0.04102,0.09741 0.0049,0.02441 0.0073,0.06714 0.0073,0.128174 v 0.478271 h -0.131836 v -0.473144 c -1e-06,-0.05371 -0.0051,-0.09375 -0.01538,-0.120118 -0.01025,-0.02685 -0.02857,-0.0481 -0.05493,-0.06372 -0.02588,-0.01611 -0.0564,-0.02417 -0.09155,-0.02417 -0.05615,0 -0.104737,0.01782 -0.145752,0.05347 -0.04053,0.03565 -0.06079,0.103272 -0.06079,0.20288 v 0.424805 h -0.131836"/>
<path id="path3049" d="m 21.1143,81.418 c -0.04883,0.0415 -0.09595,0.0708 -0.141358,0.08789 -0.04492,0.01709 -0.09326,0.02563 -0.145019,0.02563 -0.08545,0 -0.151123,-0.02075 -0.197022,-0.06226 -0.0459,-0.04199 -0.06885,-0.09546 -0.06885,-0.1604 0,-0.03809 0.0085,-0.07275 0.02563,-0.104004 0.01758,-0.03174 0.04028,-0.05713 0.06812,-0.07617 0.02832,-0.01904 0.06006,-0.03345 0.09521,-0.04321 0.02588,-0.0068 0.06494,-0.01343 0.117187,-0.01977 0.106445,-0.0127 0.184814,-0.02783 0.235107,-0.04541 0.000488,-0.01807 0.000732,-0.02954 0.000733,-0.03442 -1e-06,-0.05371 -0.01245,-0.09155 -0.03735,-0.113525 -0.03369,-0.02979 -0.08374,-0.04468 -0.150146,-0.04468 -0.06201,1e-06 -0.107911,0.01099 -0.137695,0.03296 -0.0293,0.02148 -0.05103,0.05982 -0.06519,0.11499 l -.1289,-.0176 c 0.01172,-0.05517 0.03101,-0.09961 0.05786,-0.133301 0.02686,-0.03418 0.06567,-0.0603 0.116455,-0.07837 0.05078,-0.01855 0.109619,-0.02783 0.176514,-0.02783 0.06641,1e-06 0.120361,0.0078 0.161865,0.02344 0.0415,0.01563 0.07202,0.0354 0.09155,0.05933 0.01953,0.02344 0.0332,0.05322 0.04102,0.08935 0.0044,0.02246 0.0066,0.06299 0.0066,0.121582 v 0.175781 c 0,0.122559 0.0027,0.200196 0.0081,0.232911 0.0059,0.03223 0.01709,0.06323 0.03369,0.09302 h -0.137695 c -0.01367,-0.02734 -0.02246,-0.05933 -0.02637,-0.09595 m -.011,-.2944 c -0.04785,0.01953 -0.119629,0.03613 -0.215332,0.04981 -0.0542,0.0078 -0.09253,0.0166 -0.11499,0.02637 -0.02246,0.0098 -0.0398,0.02417 -0.052,0.04321 -0.01221,0.01855 -0.01831,0.03931 -0.01831,0.06226 0,0.03516 0.01318,0.06445 0.03955,0.08789 0.02686,0.02344 0.06592,0.03516 0.117188,0.03516 0.05078,0 0.09595,-0.01099 0.135498,-0.03296 0.03955,-0.02246 0.0686,-0.05298 0.08716,-0.09155 0.01416,-0.02978 0.02124,-0.07373 0.02124,-0.131836 v -0.04834"/>
<path id="path3051" d="m 21.8049,81.2818 .1304,-.0205 c 0.0073,0.05225 0.02759,0.09229 0.06079,0.120117 0.03369,0.02783 0.08057,0.04175 0.140625,0.04175 0.06055,0 0.105468,-0.01221 0.134765,-0.03662 0.0293,-0.0249 0.04395,-0.05395 0.04395,-0.08716 -1e-06,-0.02979 -0.01294,-0.05322 -0.03882,-0.07031 -0.01807,-0.01172 -0.06299,-0.02661 -0.134765,-0.04468 -0.09668,-0.02441 -0.163819,-0.04541 -0.201416,-0.06299 -0.03711,-0.01807 -0.06543,-0.04272 -0.08496,-0.07398 -0.01904,-0.03174 -0.02857,-0.06665 -0.02857,-0.104736 0,-0.03467 0.0078,-0.06665 0.02344,-0.09595 0.01611,-0.02978 0.03784,-0.05444 0.06518,-0.07397 0.02051,-0.01514 0.04834,-0.02783 0.0835,-0.03809 0.03564,-0.01074 0.07373,-0.01611 0.114258,-0.01611 0.06104,1e-06 0.114502,0.0088 0.160401,0.02637 0.04639,0.01758 0.08057,0.04151 0.102539,0.07178 0.02197,0.02979 0.03711,0.06982 0.04541,0.120117 l -.1289,.0176 c -0.0059,-0.04004 -0.02295,-0.07129 -0.05127,-0.09375 -0.02783,-0.02246 -0.06738,-0.03369 -0.118652,-0.03369 -0.06055,1e-06 -0.10376,0.01001 -0.129639,0.03003 -0.02588,0.02002 -0.03882,0.04346 -0.03882,0.07031 0,0.01709 0.0054,0.03247 0.01611,0.04614 0.01074,0.01416 0.02759,0.02588 0.05054,0.03516 0.01318,0.0049 0.052,0.01611 0.116455,0.03369 0.09326,0.0249 0.158203,0.04541 0.194824,0.06152 0.03711,0.01563 0.06616,0.03858 0.08716,0.06885 0.021,0.03027 0.03149,0.06787 0.03149,0.112793 -1e-06,0.04395 -0.01294,0.08545 -0.03882,0.124511 -0.02539,0.03858 -0.06226,0.0686 -0.110595,0.09009 -0.04834,0.021 -0.103028,0.03149 -0.164063,0.03149 -0.101074,0 -0.178223,-0.021 -0.231445,-0.06299 -0.05274,-0.04199 -0.08643,-0.104248 -0.101074,-0.186768"/>
<path id="path3053" d="m 23.1152,81.418 c -0.04883,0.0415 -0.09595,0.0708 -0.141357,0.08789 -0.04492,0.01709 -0.09326,0.02563 -0.14502,0.02563 -0.08545,0 -0.151123,-0.02075 -0.197021,-0.06226 -0.0459,-0.04199 -0.06885,-0.09546 -0.06885,-0.1604 0,-0.03809 0.0085,-0.07275 0.02563,-0.104004 0.01758,-0.03174 0.04028,-0.05713 0.06812,-0.07617 0.02832,-0.01904 0.06006,-0.03345 0.09521,-0.04321 0.02588,-0.0068 0.06494,-0.01343 0.117188,-0.01977 0.106444,-0.0127 0.184814,-0.02783 0.235107,-0.04541 0.000488,-0.01807 0.000732,-0.02954 0.000732,-0.03442 0,-0.05371 -0.01245,-0.09155 -0.03735,-0.113525 -0.03369,-0.02979 -0.08374,-0.04468 -0.150147,-0.04468 -0.06201,1e-06 -0.10791,0.01099 -0.137695,0.03296 -0.0293,0.02148 -0.05102,0.05982 -0.06518,0.11499 l -.1289,-.0176 c 0.01172,-0.05517 0.03101,-0.09961 0.05786,-0.133301 0.02686,-0.03418 0.06567,-0.0603 0.116455,-0.07837 0.05078,-0.01855 0.109619,-0.02783 0.176513,-0.02783 0.06641,1e-06 0.120361,0.0078 0.161866,0.02344 0.0415,0.01563 0.07202,0.0354 0.09155,0.05933 0.01953,0.02344 0.0332,0.05322 0.04102,0.08935 0.0044,0.02246 0.0066,0.06299 0.0066,0.121582 v 0.175781 c -1e-06,0.122559 0.0027,0.200196 0.0081,0.232911 0.0059,0.03223 0.01709,0.06323 0.03369,0.09302 h -0.137695 c -0.01367,-0.02734 -0.02246,-0.05933 -0.02637,-0.09595 m -.011,-.2944 c -0.04785,0.01953 -0.119629,0.03613 -0.215332,0.04981 -0.0542,0.0078 -0.09253,0.0166 -0.11499,0.02637 -0.02246,0.0098 -0.03979,0.02417 -0.052,0.04321 -0.01221,0.01855 -0.01831,0.03931 -0.01831,0.06226 0,0.03516 0.01318,0.06445 0.03955,0.08789 0.02686,0.02344 0.06592,0.03516 0.117188,0.03516 0.05078,0 0.09595,-0.01099 0.135498,-0.03296 0.03955,-0.02246 0.0686,-0.05298 0.08716,-0.09155 0.01416,-0.02978 0.02124,-0.07373 0.02124,-0.131836 v -0.04834"/>
<path id="path3055" d="m 23.4741,81.514 0,-.6753 -.1165,0 0,-.1025 .1165,0 0,-.0828 c 0,-0.05224 0.0046,-0.09106 0.01392,-0.116455 0.0127,-0.03418 0.03491,-0.06177 0.06665,-0.08276 0.03223,-0.02148 0.07715,-0.03223 0.134766,-0.03223 0.03711,1e-06 0.07813,0.0044 0.123047,0.01318 l -.0198,.115 c -0.02735,-0.0049 -0.05322,-0.0073 -0.07764,-0.0073 -0.04004,1e-06 -0.06836,0.0085 -0.08496,0.02564 -0.0166,0.01709 -0.0249,0.04907 -0.0249,0.09595 v 0.07178 h 0.151611 v 0.102539 h -0.151611 v 0.675293 h -0.131104"/>
<path id="path3057" d="m 24.3911,81.2635 .1362,.0169 c -0.02148,0.07959 -0.06128,0.141357 -0.119385,0.185302 -0.05811,0.04395 -0.132325,0.06592 -0.222656,0.06592 -0.11377,0 -0.204102,-0.03491 -0.270996,-0.104736 -0.06641,-0.07031 -0.09961,-0.168701 -0.09961,-0.295166 0,-0.130859 0.03369,-0.232421 0.101074,-0.304688 0.06738,-0.07226 0.154785,-0.108397 0.262208,-0.108398 0.104003,1e-06 0.188964,0.0354 0.254882,0.106201 0.06592,0.0708 0.09888,0.170411 0.09888,0.298828 0,0.0078 -0.000245,0.01953 -0.000732,0.03516 h -0.580078 c 0.0049,0.08545 0.02905,0.150879 0.07251,0.196289 0.04346,0.04541 0.09766,0.06812 0.162598,0.06812 0.04834,0 0.0896,-0.0127 0.123779,-0.03809 0.03418,-0.02539 0.06128,-0.06592 0.0813,-0.121582 m -.4329,-.2131 .4343,0 c -0.0059,-0.06543 -0.02246,-0.114501 -0.0498,-0.147217 -0.04199,-0.05078 -0.09644,-0.07617 -0.16333,-0.07617 -0.06055,1e-06 -0.111572,0.02026 -0.153076,0.06079 -0.04102,0.04053 -0.06372,0.09473 -0.06811,0.162598"/>
<path id="path3059" d="m 25.1096,81.812 0,-1.0759 .1201,0 0,.1011 c 0.02832,-0.03955 0.0603,-0.06909 0.09595,-0.08862 0.03564,-0.02002 0.07886,-0.03003 0.129638,-0.03003 0.06641,1e-06 0.125,0.01709 0.175782,0.05127 0.05078,0.03418 0.08911,0.08252 0.11499,0.145019 0.02588,0.06201 0.03882,0.130127 0.03882,0.204346 -1e-06,0.07959 -0.01441,0.151367 -0.04321,0.215332 -0.02832,0.06348 -0.06983,0.112305 -0.124512,0.146484 -0.0542,0.03369 -0.111328,0.05054 -0.171386,0.05054 -0.04395,0 -0.0835,-0.0093 -0.118653,-0.02783 -0.03467,-0.01855 -0.06323,-0.04199 -0.08569,-0.07031 v 0.378662 h -0.131836 m .1194,-.6826 c 0,0.100098 0.02026,0.174072 0.06079,0.221924 0.04053,0.04785 0.0896,0.07178 0.147217,0.07178 0.05859,0 0.108642,-0.02466 0.150146,-0.07398 0.04199,-0.0498 0.06299,-0.126708 0.06299,-0.230713 0,-0.09912 -0.02051,-0.173339 -0.06152,-0.222656 -0.04053,-0.04932 -0.08911,-0.07397 -0.145752,-0.07398 -0.05615,1e-06 -0.105957,0.02637 -0.149414,0.0791 -0.04297,0.05225 -0.06445,0.128419 -0.06445,0.228516"/>
<path id="path3061" d="m 25.9416,81.514 0,-1.0737 .1318,0 0,1.0737 -.1318,0"/>
<path id="path3063" d="m 26.7861,81.418 c -0.04883,0.0415 -0.09595,0.0708 -0.141358,0.08789 -0.04492,0.01709 -0.09326,0.02563 -0.145019,0.02563 -0.08545,0 -0.151123,-0.02075 -0.197022,-0.06226 -0.0459,-0.04199 -0.06885,-0.09546 -0.06885,-0.1604 0,-0.03809 0.0085,-0.07275 0.02563,-0.104004 0.01758,-0.03174 0.04028,-0.05713 0.06812,-0.07617 0.02832,-0.01904 0.06006,-0.03345 0.09521,-0.04321 0.02588,-0.0068 0.06494,-0.01343 0.117187,-0.01977 0.106445,-0.0127 0.184814,-0.02783 0.235107,-0.04541 0.000488,-0.01807 0.000732,-0.02954 0.000733,-0.03442 -1e-06,-0.05371 -0.01245,-0.09155 -0.03735,-0.113525 -0.03369,-0.02979 -0.08374,-0.04468 -0.150146,-0.04468 -0.06201,1e-06 -0.107911,0.01099 -0.137695,0.03296 -0.0293,0.02148 -0.05103,0.05982 -0.06519,0.11499 l -.1289,-.0176 c 0.01172,-0.05517 0.03101,-0.09961 0.05786,-0.133301 0.02686,-0.03418 0.06567,-0.0603 0.116455,-0.07837 0.05078,-0.01855 0.109619,-0.02783 0.176514,-0.02783 0.06641,1e-06 0.120361,0.0078 0.161865,0.02344 0.0415,0.01563 0.07202,0.0354 0.09155,0.05933 0.01953,0.02344 0.0332,0.05322 0.04102,0.08935 0.0044,0.02246 0.0066,0.06299 0.0066,0.121582 v 0.175781 c 0,0.122559 0.0027,0.200196 0.0081,0.232911 0.0059,0.03223 0.01709,0.06323 0.03369,0.09302 h -0.137695 c -0.01367,-0.02734 -0.02246,-0.05933 -0.02637,-0.09595 m -.011,-.2944 c -0.04785,0.01953 -0.119629,0.03613 -0.215332,0.04981 -0.0542,0.0078 -0.09253,0.0166 -0.11499,0.02637 -0.02246,0.0098 -0.0398,0.02417 -0.052,0.04321 -0.01221,0.01855 -0.01831,0.03931 -0.01831,0.06226 0,0.03516 0.01318,0.06445 0.03955,0.08789 0.02686,0.02344 0.06592,0.03516 0.117188,0.03516 0.05078,0 0.09595,-0.01099 0.135498,-0.03296 0.03955,-0.02246 0.0686,-0.05298 0.08716,-0.09155 0.01416,-0.02978 0.02124,-0.07373 0.02124,-0.131836 v -0.04834"/>
<path id="path3065" d="m 27.6211,81.229 .1296,.0169 c -0.01416,0.08936 -0.05054,0.159424 -0.10913,0.210205 -0.05811,0.05029 -0.12964,0.07544 -0.2146,0.07544 -0.106446,0 -0.192139,-0.03467 -0.25708,-0.104004 -0.06445,-0.06982 -0.09668,-0.169677 -0.09668,-0.29956 0,-0.08398 0.01392,-0.15747 0.04175,-0.220459 0.02783,-0.06299 0.07007,-0.110107 0.126709,-0.141358 0.05713,-0.03174 0.11914,-0.04761 0.186035,-0.04761 0.08447,1e-06 0.153564,0.02149 0.207276,0.06445 0.05371,0.04248 0.08813,0.103028 0.103271,0.181641 l -.1282,.0198 c -0.01221,-0.05224 -0.03394,-0.09155 -0.06518,-0.11792 -0.03076,-0.02637 -0.06812,-0.03955 -0.112061,-0.03955 -0.06641,1e-06 -0.120361,0.02393 -0.161865,0.07178 -0.0415,0.04736 -0.06226,0.122559 -0.06226,0.225586 0,0.104492 0.02002,0.18042 0.06006,0.227783 0.04004,0.04736 0.09229,0.07104 0.156738,0.07104 0.05176,0 0.09497,-0.01587 0.129639,-0.04761 0.03467,-0.03174 0.05664,-0.08057 0.06592,-0.146484"/>
<path id="path3067" d="m 28.396,81.2635 .1362,.0169 c -0.02149,0.07959 -0.06128,0.141357 -0.119385,0.185302 -0.05811,0.04395 -0.132325,0.06592 -0.222656,0.06592 -0.11377,0 -0.204102,-0.03491 -0.270997,-0.104736 -0.06641,-0.07031 -0.09961,-0.168701 -0.09961,-0.295166 0,-0.130859 0.03369,-0.232421 0.101074,-0.304688 0.06738,-0.07226 0.154785,-0.108397 0.262207,-0.108398 0.104004,1e-06 0.188965,0.0354 0.254883,0.106201 0.06592,0.0708 0.09888,0.170411 0.09888,0.298828 -1e-06,0.0078 -0.000245,0.01953 -0.000732,0.03516 h -0.580078 c 0.0049,0.08545 0.02905,0.150879 0.07251,0.196289 0.04346,0.04541 0.09766,0.06812 0.162598,0.06812 0.04834,0 0.0896,-0.0127 0.123779,-0.03809 0.03418,-0.02539 0.06128,-0.06592 0.0813,-0.121582 m -.4329,-.2131 .4343,0 c -0.0059,-0.06543 -0.02246,-0.114501 -0.0498,-0.147217 -0.04199,-0.05078 -0.09644,-0.07617 -0.16333,-0.07617 -0.06055,1e-06 -0.111572,0.02026 -0.153076,0.06079 -0.04102,0.04053 -0.06372,0.09473 -0.06811,0.162598"/>
<path style="font-weight:bold" id="path3069" d="m 16.0774,83.389 -.2358,0 -.0938,-.2439 -.4292,0 -.0886,.2439 -.23,0 .4182,-1.0737 .2292,0 .4299,1.0737 m -.3992,-.4248 -.1479,-.3984 -.145,.3984 .293,0"/>
<path style="font-weight:bold" id="path3071" d="m 16.905,83.389 -.1912,0 0,-.1143 c -0.03174,0.04443 -0.06934,0.07764 -0.112793,0.09961 -0.04297,0.02148 -0.08643,0.03223 -0.130371,0.03223 -0.08936,0 -0.166016,-0.03589 -0.22998,-0.107666 -0.06348,-0.07227 -0.09521,-0.172851 -0.09521,-0.301758 0,-0.131835 0.03101,-0.231933 0.09302,-0.300293 0.06201,-0.06885 0.140381,-0.10327 0.235108,-0.103271 0.08691,1e-06 0.162109,0.03613 0.225586,0.108398 v -0.386718 h 0.20581 v 1.07373 m -.5493,-.4058 c 0,0.08301 0.01147,0.143067 0.03442,0.180176 0.0332,0.05371 0.07959,0.08057 0.13916,0.08057 0.04736,0 0.08765,-0.02002 0.120849,-0.06006 0.0332,-0.04053 0.0498,-0.10083 0.0498,-0.180908 0,-0.08935 -0.01611,-0.153564 -0.04834,-0.192627 -0.03223,-0.03955 -0.07349,-0.05933 -0.123779,-0.05933 -0.04883,0 -0.08984,0.01953 -0.123047,0.05859 -0.03271,0.03858 -0.04907,0.09644 -0.04907,0.173584"/>
<path style="font-weight:bold" id="path3073" d="m 17.0933,82.6111 .1897,0 0,.1062 c 0.06787,-0.08252 0.148681,-0.123778 0.242432,-0.123779 0.0498,1e-06 0.09302,0.01026 0.129638,0.03076 0.03662,0.02051 0.06665,0.05151 0.09009,0.09302 0.03418,-0.0415 0.07104,-0.07251 0.110596,-0.09302 0.03955,-0.02051 0.08179,-0.03076 0.126709,-0.03076 0.05713,1e-06 0.105468,0.01172 0.145019,0.03516 0.03955,0.02295 0.06909,0.05689 0.08862,0.101807 0.01416,0.0332 0.02124,0.08691 0.02124,0.161133 v 0.497314 h -0.205811 v -0.44458 c -1e-06,-0.07715 -0.0071,-0.126952 -0.02124,-0.149414 -0.01904,-0.0293 -0.04834,-0.04395 -0.08789,-0.04395 -0.02881,0 -0.05591,0.0088 -0.0813,0.02637 -0.02539,0.01758 -0.0437,0.04346 -0.05493,0.07764 -0.01123,0.03369 -0.01685,0.08716 -0.01685,0.1604 v 0.373535 h -0.20581 v -0.426269 c -1e-06,-0.07568 -0.0037,-0.124512 -0.01099,-0.146485 -0.0073,-0.02197 -0.0188,-0.03833 -0.03442,-0.04907 -0.01514,-0.01074 -0.03589,-0.01611 -0.06226,-0.01611 -0.03174,0 -0.0603,0.0085 -0.08569,0.02563 -0.02539,0.01709 -0.0437,0.04175 -0.05493,0.07397 -0.01074,0.03223 -0.01611,0.08569 -0.01611,0.1604 v 0.37793 h -0.20581 v -0.777832"/>
<path style="font-weight:bold" id="path3075" d="m 18.4416,82.5057 0,-.1904 .2058,0 0,.1904 -.2058,0 m 0,.8833 0,-.7778 .2058,0 0,.7778 -.2058,0"/>
<path style="font-weight:bold" id="path3077" d="m 19.5652,83.389 -.2058,0 0,-.397 c -1e-06,-0.08398 -0.0044,-0.138184 -0.01318,-0.162598 -0.0088,-0.0249 -0.02319,-0.04419 -0.04321,-0.05786 -0.01953,-0.01367 -0.04321,-0.02051 -0.07105,-0.02051 -0.03564,0 -0.06763,0.0098 -0.09595,0.0293 -0.02832,0.01953 -0.04785,0.04541 -0.05859,0.07764 -0.01026,0.03223 -0.01538,0.0918 -0.01538,0.178711 v 0.352295 h -0.205811 v -0.777832 h 0.191162 v 0.114258 c 0.06787,-0.08789 0.15332,-0.131835 0.256348,-0.131836 0.04541,1e-06 0.08691,0.0083 0.124512,0.0249 0.0376,0.01611 0.06592,0.03687 0.08496,0.06226 0.01953,0.02539 0.03296,0.0542 0.04028,0.08643 0.0078,0.03223 0.01172,0.07837 0.01172,0.138428 v 0.483398"/>
<path style="font-weight:bold" id="path3079" d="m 19.7747,82.5057 0,-.1904 .2058,0 0,.1904 -.2058,0 m 0,.8833 0,-.7778 .2058,0 0,.7778 -.2058,0"/>
<path style="font-weight:bold" id="path3081" d="m 20.1182,83.167 .2065,-.0315 c 0.0088,0.04004 0.02661,0.07056 0.05347,0.09155 0.02685,0.02051 0.06445,0.03076 0.112793,0.03076 0.05322,0 0.09326,-0.0098 0.120117,-0.0293 0.01807,-0.01367 0.0271,-0.03198 0.0271,-0.05493 -1e-06,-0.01563 -0.0049,-0.02856 -0.01465,-0.03882 -0.01025,-0.0098 -0.0332,-0.0188 -0.06885,-0.0271 -0.166015,-0.03662 -0.27124,-0.07007 -0.315673,-0.100342 -0.06152,-0.04199 -0.09229,-0.100341 -0.09229,-0.175048 -1e-06,-0.06738 0.02661,-0.124023 0.07983,-0.169922 0.05322,-0.0459 0.135742,-0.06885 0.247559,-0.06885 0.106445,1e-06 0.185546,0.01734 0.237305,0.052 0.05176,0.03467 0.0874,0.08594 0.106933,0.153809 l -.1941,.0359 c -0.0083,-0.03027 -0.02417,-0.05347 -0.04761,-0.06958 -0.02295,-0.01611 -0.05591,-0.02417 -0.09888,-0.02417 -0.0542,1e-06 -0.09302,0.0076 -0.116455,0.0227 -0.01563,0.01074 -0.02344,0.02466 -0.02344,0.04175 -1e-06,0.01465 0.0068,0.0271 0.02051,0.03735 0.01855,0.01367 0.08252,0.03296 0.191895,0.05786 0.109863,0.0249 0.186523,0.05542 0.22998,0.09155 0.04297,0.03662 0.06445,0.08765 0.06445,0.153076 -1e-06,0.07129 -0.02979,0.132569 -0.08936,0.183838 -0.05957,0.05127 -0.147706,0.0769 -0.264404,0.0769 -0.105958,0 -0.189942,-0.02148 -0.251953,-0.06445 -0.06152,-0.04297 -0.101807,-0.101318 -0.12085,-0.175049"/>
<path style="font-weight:bold" id="path3083" d="m 21.3823,82.6111 0,.1641 -.1406,0 0,.3135 c 0,0.06348 0.0012,0.100586 0.0037,0.111328 0.0029,0.01025 0.009,0.0188 0.01831,0.02563 0.0098,0.0068 0.02148,0.01025 0.03516,0.01025 0.01904,0 0.04663,-0.0066 0.08276,-0.01977 l .0176,.1597 c -0.04785,0.02051 -0.102051,0.03076 -0.162598,0.03076 -0.03711,0 -0.07056,-0.0061 -0.100342,-0.01831 -0.02979,-0.0127 -0.05176,-0.02881 -0.06592,-0.04834 -0.01367,-0.02002 -0.02319,-0.04687 -0.02856,-0.08057 -0.0044,-0.02393 -0.0066,-0.07227 -0.0066,-0.145019 v -0.339111 h -0.09448 v -0.164063 h 0.09448 v -0.154541 l .2065,-.1201 v 0.274658 h 0.140625"/>
<path style="font-weight:bold" id="path3085" d="m 21.7236,83.389 -.2058,0 0,-.7778 .1912,0 0,.1106 c 0.03271,-0.05225 0.06201,-0.08667 0.08789,-0.103272 0.02637,-0.0166 0.05615,-0.0249 0.08936,-0.0249 0.04687,1e-06 0.09204,0.01294 0.135499,0.03882 l -.0637,.1794 c -0.03467,-0.02246 -0.06689,-0.03369 -0.09668,-0.03369 -0.02881,1e-06 -0.05322,0.0081 -0.07324,0.02417 -0.02002,0.01563 -0.03589,0.04419 -0.04761,0.08569 -0.01123,0.0415 -0.01685,0.128418 -0.01685,0.260742 v 0.240234"/>
<path style="font-weight:bold" id="path3087" d="m 22.2634,82.8484 -.1868,-.0337 c 0.021,-0.07519 0.05713,-0.130858 0.108399,-0.166992 0.05127,-0.03613 0.127441,-0.0542 0.228515,-0.0542 0.0918,1e-06 0.160156,0.01099 0.205078,0.03296 0.04492,0.02148 0.07642,0.04907 0.09448,0.08276 0.01855,0.0332 0.02783,0.09448 0.02783,0.183838 l -.0022,.2402 c -1e-06,0.06836 0.0032,0.118897 0.0095,0.151611 0.0068,0.03223 0.01929,0.0669 0.03735,0.104004 h -0.203614 c -0.0054,-0.01367 -0.01196,-0.03393 -0.01977,-0.06079 -0.0034,-0.01221 -0.0059,-0.02026 -0.0073,-0.02417 -0.03516,0.03418 -0.07276,0.05982 -0.112793,0.0769 -0.04004,0.01709 -0.08276,0.02563 -0.128174,0.02563 -0.08008,0 -0.143311,-0.02173 -0.189697,-0.06518 -0.0459,-0.04346 -0.06885,-0.09839 -0.06885,-0.164795 0,-0.04395 0.0105,-0.08301 0.03149,-0.117188 0.021,-0.03467 0.05029,-0.06103 0.08789,-0.0791 0.03809,-0.01855 0.09277,-0.03467 0.164062,-0.04834 0.09619,-0.01807 0.162841,-0.03491 0.199951,-0.05054 v -0.02051 c 0,-0.03955 -0.0098,-0.06763 -0.0293,-0.08423 -0.01953,-0.01709 -0.0564,-0.02563 -0.110595,-0.02563 -0.03662,0 -0.06519,0.0073 -0.08569,0.02197 -0.02051,0.01416 -0.03711,0.03931 -0.0498,0.07544 m .2754,.167 c -0.02637,0.0088 -0.06811,0.01929 -0.125244,0.03149 -0.05713,0.01221 -0.09448,0.02417 -0.11206,0.03589 -0.02686,0.01904 -0.04028,0.04321 -0.04028,0.07251 0,0.02881 0.01074,0.05371 0.03223,0.07471 0.02148,0.021 0.04883,0.03149 0.08203,0.03149 0.03711,0 0.07251,-0.01221 0.106201,-0.03662 0.0249,-0.01855 0.04126,-0.04126 0.04907,-0.06812 0.0054,-0.01758 0.0081,-0.05102 0.0081,-0.100341 v -0.04102"/>
<path style="font-weight:bold" id="path3089" d="m 23.3013,82.6111 0,.1641 -.1406,0 0,.3135 c -1e-06,0.06348 0.0012,0.100586 0.0037,0.111328 0.0029,0.01025 0.009,0.0188 0.01831,0.02563 0.0098,0.0068 0.02148,0.01025 0.03516,0.01025 0.01904,0 0.04663,-0.0066 0.08276,-0.01977 l .0176,.1597 c -0.04785,0.02051 -0.102051,0.03076 -0.162597,0.03076 -0.03711,0 -0.07056,-0.0061 -0.100342,-0.01831 -0.02979,-0.0127 -0.05176,-0.02881 -0.06592,-0.04834 -0.01367,-0.02002 -0.02319,-0.04687 -0.02857,-0.08057 -0.0044,-0.02393 -0.0066,-0.07227 -0.0066,-0.145019 v -0.339111 h -0.09448 v -0.164063 h 0.09448 v -0.154541 l .2065,-.1201 v 0.274658 h 0.140625"/>
<path style="font-weight:bold" id="path3091" d="m 23.3979,82.9891 c 0,-0.06836 0.01685,-0.134521 0.05054,-0.198487 0.03369,-0.06396 0.0813,-0.112792 0.142823,-0.146484 0.06201,-0.03369 0.131103,-0.05054 0.207275,-0.05054 0.117675,1e-06 0.214111,0.03833 0.289307,0.11499 0.07519,0.07617 0.112792,0.172608 0.112793,0.289307 -1e-06,0.117676 -0.03809,0.215332 -0.114258,0.292969 -0.07568,0.07715 -0.171143,0.115722 -0.286377,0.115722 -0.07129,0 -0.139405,-0.01611 -0.204346,-0.04834 -0.06445,-0.03223 -0.113525,-0.07935 -0.147217,-0.141357 -0.03369,-0.0625 -0.05054,-0.138427 -0.05054,-0.227783 m .2109,.011 c -1e-06,0.07715 0.01831,0.136231 0.05493,0.177246 0.03662,0.04102 0.08179,0.06152 0.135498,0.06152 0.05371,0 0.09863,-0.02051 0.134766,-0.06152 0.03662,-0.04102 0.05493,-0.100585 0.05493,-0.178711 -1e-06,-0.07617 -0.01831,-0.134765 -0.05493,-0.175781 -0.03613,-0.04102 -0.08105,-0.06152 -0.134766,-0.06152 -0.05371,0 -0.09888,0.02051 -0.135498,0.06152 -0.03662,0.04102 -0.05493,0.100098 -0.05493,0.177246"/>
<path style="font-weight:bold" id="path3093" d="m 24.5596,83.389 -.2058,0 0,-.7778 .1912,0 0,.1106 c 0.03271,-0.05225 0.06201,-0.08667 0.08789,-0.103272 0.02637,-0.0166 0.05615,-0.0249 0.08936,-0.0249 0.04687,1e-06 0.09204,0.01294 0.135498,0.03882 l -.0637,.1794 c -0.03467,-0.02246 -0.0669,-0.03369 -0.09668,-0.03369 -0.02881,1e-06 -0.05322,0.0081 -0.07324,0.02417 -0.02002,0.01563 -0.03589,0.04419 -0.04761,0.08569 -0.01123,0.0415 -0.01685,0.128418 -0.01685,0.260742 v 0.240234"/>
<path style="font-weight:bold" id="path3095" d="m 24.873,83.167 .2065,-.0315 c 0.0088,0.04004 0.02661,0.07056 0.05347,0.09155 0.02685,0.02051 0.06445,0.03076 0.112793,0.03076 0.05322,0 0.09326,-0.0098 0.120117,-0.0293 0.01807,-0.01367 0.0271,-0.03198 0.0271,-0.05493 0,-0.01563 -0.0049,-0.02856 -0.01465,-0.03882 -0.01025,-0.0098 -0.0332,-0.0188 -0.06885,-0.0271 -0.166016,-0.03662 -0.27124,-0.07007 -0.315674,-0.100342 -0.06152,-0.04199 -0.09229,-0.100341 -0.09229,-0.175048 0,-0.06738 0.02661,-0.124023 0.07983,-0.169922 0.05322,-0.0459 0.135742,-0.06885 0.247559,-0.06885 0.106445,1e-06 0.185546,0.01734 0.237305,0.052 0.05176,0.03467 0.0874,0.08594 0.106933,0.153809 l -.1941,.0359 c -0.0083,-0.03027 -0.02417,-0.05347 -0.04761,-0.06958 -0.02295,-0.01611 -0.05591,-0.02417 -0.09888,-0.02417 -0.0542,1e-06 -0.09302,0.0076 -0.116455,0.0227 -0.01563,0.01074 -0.02344,0.02466 -0.02344,0.04175 0,0.01465 0.0068,0.0271 0.02051,0.03735 0.01855,0.01367 0.08252,0.03296 0.191895,0.05786 0.109862,0.0249 0.186523,0.05542 0.22998,0.09155 0.04297,0.03662 0.06445,0.08765 0.06445,0.153076 0,0.07129 -0.02979,0.132569 -0.08936,0.183838 -0.05957,0.05127 -0.147706,0.0769 -0.264404,0.0769 -0.105958,0 -0.189942,-0.02148 -0.251954,-0.06445 -0.06152,-0.04297 -0.101806,-0.101318 -0.120849,-0.175049"/>
<path style="font-weight:bold" id="path3097" d="m 26.1489,82.9891 c 0,-0.06836 0.01685,-0.134521 0.05054,-0.198487 0.03369,-0.06396 0.0813,-0.112792 0.142822,-0.146484 0.06201,-0.03369 0.131103,-0.05054 0.207276,-0.05054 0.117675,1e-06 0.21411,0.03833 0.289306,0.11499 0.0752,0.07617 0.112792,0.172608 0.112793,0.289307 -1e-06,0.117676 -0.03809,0.215332 -0.114258,0.292969 -0.07568,0.07715 -0.171143,0.115722 -0.286377,0.115722 -0.07129,0 -0.139404,-0.01611 -0.204345,-0.04834 -0.06445,-0.03223 -0.113526,-0.07935 -0.147217,-0.141357 -0.03369,-0.0625 -0.05054,-0.138427 -0.05054,-0.227783 m .2109,.011 c 0,0.07715 0.01831,0.136231 0.05493,0.177246 0.03662,0.04102 0.08179,0.06152 0.135498,0.06152 0.05371,0 0.09863,-0.02051 0.134766,-0.06152 0.03662,-0.04102 0.05493,-0.100585 0.05493,-0.178711 0,-0.07617 -0.01831,-0.134765 -0.05493,-0.175781 -0.03613,-0.04102 -0.08106,-0.06152 -0.134766,-0.06152 -0.05371,0 -0.09888,0.02051 -0.135498,0.06152 -0.03662,0.04102 -0.05493,0.100098 -0.05493,0.177246"/>
<path style="font-weight:bold" id="path3099" d="m 27.821,83.389 -.2058,0 0,-.397 c 0,-0.08398 -0.0044,-0.138184 -0.01318,-0.162598 -0.0088,-0.0249 -0.02319,-0.04419 -0.04321,-0.05786 -0.01953,-0.01367 -0.04321,-0.02051 -0.07105,-0.02051 -0.03564,0 -0.06763,0.0098 -0.09595,0.0293 -0.02832,0.01953 -0.04785,0.04541 -0.05859,0.07764 -0.01025,0.03223 -0.01538,0.0918 -0.01538,0.178711 v 0.352295 h -0.20581 v -0.777832 h 0.191162 v 0.114258 c 0.06787,-0.08789 0.15332,-0.131835 0.256347,-0.131836 0.04541,1e-06 0.08691,0.0083 0.124512,0.0249 0.0376,0.01611 0.06592,0.03687 0.08496,0.06226 0.01953,0.02539 0.03296,0.0542 0.04028,0.08643 0.0078,0.03223 0.01172,0.07837 0.01172,0.138428 v 0.483398"/>
<path style="font-weight:bold" id="path3101" d="m 28.0305,83.389 0,-1.0737 .2058,0 0,1.0737 -.2058,0"/>
<path style="font-weight:bold" id="path3103" d="m 28.3491,82.6111 .219,0 .186,.5522 .1816,-.5522 .2131,0 -.2747,.7485 -.0491,.1355 c -0.01807,0.04541 -0.0354,0.08008 -0.052,0.104004 -0.01611,0.02393 -0.03491,0.04321 -0.0564,0.05786 -0.021,0.01514 -0.04712,0.02685 -0.07837,0.03516 -0.03076,0.0083 -0.06567,0.01245 -0.104737,0.01245 -0.03955,0 -0.07837,-0.0042 -0.116455,-0.01245 l -.0183,-.1611 c 0.03223,0.0063 0.06128,0.0095 0.08716,0.0095 0.04785,0 0.08325,-0.01416 0.106201,-0.04248 0.02295,-0.02783 0.04053,-0.06348 0.05273,-0.106934 l -.2959,-.78"/>
</g>
<g style="font-weight:bold" id="text3762">
<path id="path3106" d="m 15.052,78.1587 .3157,-.0198 c 0.0068,0.05127 0.02075,0.09033 0.04175,0.117188 0.03418,0.04346 0.08301,0.06518 0.146484,0.06518 0.04736,0 0.08374,-0.01099 0.109131,-0.03296 0.02588,-0.02246 0.03882,-0.04834 0.03882,-0.07764 0,-0.02783 -0.01221,-0.05273 -0.03662,-0.07471 -0.02441,-0.02197 -0.08106,-0.04272 -0.169922,-0.06226 -0.145508,-0.03271 -0.249267,-0.07617 -0.311279,-0.130371 -0.0625,-0.0542 -0.09375,-0.123291 -0.09375,-0.207276 0,-0.05517 0.01587,-0.107177 0.04761,-0.156006 0.03223,-0.04932 0.08032,-0.08789 0.144287,-0.115722 0.06445,-0.02832 0.152587,-0.04248 0.264404,-0.04248 0.137206,1e-06 0.241698,0.02564 0.313477,0.0769 0.07226,0.05078 0.115233,0.131837 0.128906,0.243165 l -.3127,.0183 c -0.0083,-0.04834 -0.02588,-0.0835 -0.05273,-0.105469 -0.02637,-0.02197 -0.06299,-0.03296 -0.109863,-0.03296 -0.03857,1e-06 -0.06763,0.0083 -0.08716,0.0249 -0.01953,0.01611 -0.0293,0.03589 -0.0293,0.05933 0,0.01709 0.0081,0.03247 0.02417,0.04614 0.01562,0.01416 0.05273,0.02734 0.111328,0.03955 0.145019,0.03125 0.248778,0.06299 0.311279,0.09521 0.06299,0.03174 0.108642,0.07129 0.136963,0.118652 0.02881,0.04736 0.04321,0.100343 0.04321,0.158936 -1e-06,0.06885 -0.01904,0.132324 -0.05713,0.19043 -0.03809,0.0581 -0.09131,0.102295 -0.159668,0.132568 -0.06836,0.02978 -0.154541,0.04468 -0.258545,0.04468 -0.182617,0 -0.309082,-0.03516 -0.379394,-0.105469 -0.07031,-0.07031 -0.110108,-0.159668 -0.119385,-0.268066"/>
<path id="path3108" d="m 16.1375,78.1272 c 0,-0.118651 0.04004,-0.216308 0.120117,-0.292968 0.08008,-0.07715 0.188232,-0.115722 0.324463,-0.115723 0.155761,1e-06 0.273437,0.04517 0.353028,0.135498 0.06396,0.07275 0.09595,0.162354 0.09595,0.268799 -1e-06,0.119629 -0.0398,0.217773 -0.119385,0.294433 -0.0791,0.07617 -0.188721,0.114258 -0.328857,0.114258 -0.125001,0 -0.226075,-0.03174 -0.303223,-0.09521 -0.09473,-0.07861 -0.14209,-0.18164 -0.14209,-0.309082 m .2988,-.0007 c 0,0.06934 0.01392,0.120606 0.04175,0.153809 0.02832,0.0332 0.06372,0.0498 0.106202,0.0498 0.04297,0 0.07812,-0.01636 0.105468,-0.04907 0.02783,-0.03271 0.04175,-0.0852 0.04175,-0.157471 0,-0.06738 -0.01392,-0.117431 -0.04175,-0.150146 -0.02783,-0.0332 -0.06226,-0.0498 -0.103271,-0.04981 -0.04346,1e-06 -0.07935,0.01685 -0.107666,0.05054 -0.02832,0.0332 -0.04248,0.08398 -0.04248,0.152344"/>
<path id="path3110" d="m 17.5078,77.7361 .1421,0 0,.2183 -.1421,0 0,.5596 -.2988,0 0,-.5596 -.1113,0 0,-.2183 .1113,0 0,-.0352 c 0,-0.03174 0.0034,-0.06665 0.01025,-0.104736 0.0068,-0.03809 0.01953,-0.06909 0.03809,-0.09302 0.01904,-0.02441 0.04541,-0.04394 0.0791,-0.05859 0.03418,-0.01514 0.08398,-0.0227 0.149414,-0.02271 0.05224,1e-06 0.128173,0.0061 0.227783,0.01831 l -.033,.1802 c -0.03564,-0.0059 -0.06445,-0.0088 -0.08643,-0.0088 -0.02686,1e-06 -0.04614,0.0046 -0.05786,0.01392 -0.01172,0.0088 -0.02002,0.02295 -0.0249,0.04248 -0.0024,0.01074 -0.0037,0.03345 -0.0037,0.06811"/>
<path id="path3112" d="m 18.1187,77.4402 0,.2959 .1641,0 0,.2175 -.1641,0 0,.2761 c 0,0.0332 0.0032,0.05518 0.0095,0.06592 0.0098,0.0166 0.02685,0.0249 0.05127,0.0249 0.02197,0 0.05273,-0.0063 0.09229,-0.01904 l .022,.2058 c -0.07373,0.01611 -0.142578,0.02417 -0.206543,0.02417 -0.07422,0 -0.128906,-0.0095 -0.164062,-0.02856 -0.03516,-0.01904 -0.06128,-0.04785 -0.07837,-0.08643 -0.0166,-0.03906 -0.0249,-0.102051 -0.0249,-0.188965 v -0.273926 h -0.109863 v -0.217529 h 0.109863 v -0.142822 l .2988,-.1531"/>
<path id="path3114" d="m 18.3362,77.7361 .2886,0 .1252,.49 .1582,-.49 .2688,0 .1641,.49 .1252,-.49 .2864,0 -.2864,.7778 -.2651,0 -.1575,-.468 -.1523,.468 -.2666,0 -.2886,-.7778"/>
<path id="path3116" d="m 20.0933,77.9881 -.2849,-.03 c 0.01074,-0.0498 0.02612,-0.08887 0.04614,-0.117188 0.02051,-0.02881 0.0498,-0.05371 0.08789,-0.07471 0.02734,-0.01514 0.06494,-0.02685 0.112793,-0.03516 0.04785,-0.0083 0.09961,-0.01245 0.155273,-0.01245 0.08936,1e-06 0.161132,0.0051 0.215332,0.01538 0.0542,0.0098 0.09936,0.03052 0.135498,0.06226 0.02539,0.02197 0.04541,0.05322 0.06006,0.09375 0.01465,0.04004 0.02197,0.07837 0.02197,0.11499 v 0.343506 c -1e-06,0.03662 0.0022,0.06543 0.0066,0.08643 0.0049,0.02051 0.01514,0.04687 0.03076,0.0791 h -0.279785 c -0.01123,-0.02002 -0.01855,-0.03516 -0.02197,-0.04541 -0.0034,-0.01074 -0.0068,-0.02734 -0.01025,-0.0498 -0.03906,0.0376 -0.07788,0.06445 -0.116455,0.08057 -0.05273,0.02148 -0.114014,0.03223 -0.183838,0.03223 -0.09277,0 -0.16333,-0.02148 -0.21167,-0.06445 -0.04785,-0.04297 -0.07178,-0.09595 -0.07178,-0.158935 0,-0.05908 0.01733,-0.107666 0.052,-0.145752 0.03467,-0.03809 0.09863,-0.06641 0.191895,-0.08496 0.111816,-0.02246 0.184325,-0.03809 0.217529,-0.04687 0.0332,-0.0093 0.06836,-0.02124 0.105469,-0.03589 -1e-06,-0.03662 -0.0076,-0.06226 -0.02271,-0.0769 -0.01514,-0.01465 -0.04175,-0.02197 -0.07983,-0.02197 -0.04883,1e-06 -0.08545,0.0078 -0.109864,0.02344 -0.01904,0.01221 -0.03442,0.03516 -0.04614,0.06885 m .2585,.1567 c -0.04102,0.01465 -0.08374,0.02759 -0.128174,0.03882 -0.06055,0.01611 -0.09888,0.03198 -0.11499,0.04761 -0.0166,0.01611 -0.0249,0.03442 -0.0249,0.05493 0,0.02344 0.0081,0.04273 0.02417,0.05786 0.0166,0.01465 0.04077,0.02197 0.07251,0.02197 0.0332,0 0.06396,-0.0081 0.09228,-0.02417 0.02881,-0.01611 0.04907,-0.03564 0.06079,-0.05859 0.01221,-0.02344 0.01831,-0.05371 0.01831,-0.09082 v -0.04761"/>
<path id="path3118" d="m 20.8264,77.7361 .2791,0 0,.1274 c 0.02686,-0.05518 0.05444,-0.09302 0.08276,-0.113526 0.02881,-0.02099 0.06421,-0.03149 0.106202,-0.03149 0.04394,1e-06 0.09204,0.01367 0.144287,0.04102 l -.0923,.2124 c -0.03516,-0.01465 -0.06299,-0.02197 -0.0835,-0.02197 -0.03906,1e-06 -0.06934,0.01611 -0.09082,0.04834 -0.03076,0.04541 -0.04614,0.130372 -0.04614,0.254883 v 0.260742 h -0.299561 v -0.777832"/>
<path id="path3120" d="m 22.3755,78.199 -.5977,0 c 0.0054,0.04785 0.01831,0.0835 0.03882,0.106933 0.02881,0.03369 0.06641,0.05054 0.112793,0.05054 0.0293,1e-06 0.05713,-0.0073 0.0835,-0.02197 0.01611,-0.0093 0.03345,-0.02564 0.052,-0.04907 l .2937,.0271 c -0.04492,0.07813 -0.09912,0.134278 -0.162598,0.168457 -0.06348,0.03369 -0.154542,0.05054 -0.273193,0.05054 -0.103028,0 -0.184083,-0.0144 -0.243165,-0.04321 -0.05908,-0.0293 -0.108154,-0.07544 -0.147216,-0.138427 -0.03858,-0.06348 -0.05786,-0.137939 -0.05786,-0.223389 0,-0.121582 0.03882,-0.21997 0.116455,-0.295166 0.07813,-0.0752 0.185791,-0.112792 0.322998,-0.112793 0.111328,1e-06 0.199219,0.01685 0.263672,0.05054 0.06445,0.03369 0.113525,0.08252 0.147217,0.146484 0.03369,0.06397 0.05054,0.147218 0.05054,0.249756 v 0.03369 m -.3032,-.1428 c -0.0059,-0.05762 -0.02148,-0.09888 -0.04687,-0.123779 -0.0249,-0.0249 -0.05786,-0.03735 -0.09888,-0.03735 -0.04736,0 -0.08521,0.0188 -0.113526,0.0564 -0.01807,0.02344 -0.02954,0.05835 -0.03442,0.104736 h 0.293702"/>
<path id="path3122" d="m 23.0171,77.7361 .2783,0 0,.1135 c 0.04004,-0.04736 0.08032,-0.08105 0.12085,-0.101075 0.04101,-0.02002 0.09033,-0.03003 0.147949,-0.03003 0.06201,1e-06 0.111083,0.01099 0.147217,0.03296 0.03613,0.02197 0.06567,0.05469 0.08862,0.09815 0.04687,-0.05078 0.0896,-0.08521 0.128174,-0.103272 0.03857,-0.01855 0.08618,-0.02783 0.142822,-0.02783 0.08349,1e-06 0.14868,0.0249 0.195557,0.07471 0.04687,0.04932 0.07031,0.12671 0.07031,0.232178 v 0.488525 h -0.298828 v -0.443115 c -1e-06,-0.03516 -0.0068,-0.06128 -0.02051,-0.07837 -0.02002,-0.02685 -0.04492,-0.04028 -0.07471,-0.04028 -0.03516,0 -0.06348,0.0127 -0.08496,0.03809 -0.02149,0.02539 -0.03223,0.06616 -0.03223,0.122314 v 0.401367 h -0.298829 v -0.428467 c 0,-0.03418 -0.002,-0.05737 -0.0059,-0.06958 -0.0063,-0.01953 -0.01733,-0.03516 -0.03296,-0.04687 -0.01563,-0.01221 -0.03394,-0.01831 -0.05493,-0.01831 -0.03418,0 -0.06226,0.01294 -0.08423,0.03882 -0.02197,0.02588 -0.03296,0.06836 -0.03296,0.127442 v 0.396972 h -0.298828 v -0.777832"/>
<path id="path3124" d="m 24.7866,77.9881 -.2849,-.03 c 0.01074,-0.0498 0.02612,-0.08887 0.04614,-0.117188 0.02051,-0.02881 0.0498,-0.05371 0.08789,-0.07471 0.02734,-0.01514 0.06494,-0.02685 0.112793,-0.03516 0.04785,-0.0083 0.09961,-0.01245 0.155274,-0.01245 0.08935,1e-06 0.161132,0.0051 0.215332,0.01538 0.0542,0.0098 0.09936,0.03052 0.135498,0.06226 0.02539,0.02197 0.04541,0.05322 0.06006,0.09375 0.01465,0.04004 0.02197,0.07837 0.02197,0.11499 v 0.343506 c -1e-06,0.03662 0.0022,0.06543 0.0066,0.08643 0.0049,0.02051 0.01514,0.04687 0.03076,0.0791 h -0.279785 c -0.01123,-0.02002 -0.01855,-0.03516 -0.02197,-0.04541 -0.0034,-0.01074 -0.0068,-0.02734 -0.01025,-0.0498 -0.03906,0.0376 -0.07788,0.06445 -0.116455,0.08057 -0.05274,0.02148 -0.114014,0.03223 -0.183838,0.03223 -0.09277,0 -0.163331,-0.02148 -0.21167,-0.06445 -0.04785,-0.04297 -0.07178,-0.09595 -0.07178,-0.158935 0,-0.05908 0.01733,-0.107666 0.052,-0.145752 0.03467,-0.03809 0.09863,-0.06641 0.191895,-0.08496 0.111816,-0.02246 0.184326,-0.03809 0.217529,-0.04687 0.0332,-0.0093 0.06836,-0.02124 0.105469,-0.03589 -1e-06,-0.03662 -0.0076,-0.06226 -0.0227,-0.0769 -0.01514,-0.01465 -0.04175,-0.02197 -0.07983,-0.02197 -0.04883,1e-06 -0.08545,0.0078 -0.109863,0.02344 -0.01904,0.01221 -0.03443,0.03516 -0.04614,0.06885 m .2585,.1567 c -0.04102,0.01465 -0.08374,0.02759 -0.128174,0.03882 -0.06055,0.01611 -0.09888,0.03198 -0.11499,0.04761 -0.0166,0.01611 -0.0249,0.03442 -0.0249,0.05493 -1e-06,0.02344 0.0081,0.04273 0.02417,0.05786 0.0166,0.01465 0.04077,0.02197 0.07251,0.02197 0.0332,0 0.06396,-0.0081 0.09229,-0.02417 0.02881,-0.01611 0.04907,-0.03564 0.06079,-0.05859 0.01221,-0.02344 0.01831,-0.05371 0.01831,-0.09082 v -0.04761"/>
<path id="path3126" d="m 25.5168,77.7361 .2776,0 0,.1267 c 0.0415,-0.05176 0.0835,-0.08862 0.125976,-0.110596 0.04248,-0.02246 0.09424,-0.03369 0.155274,-0.03369 0.08252,1e-06 0.146971,0.02466 0.193359,0.07398 0.04687,0.04883 0.07031,0.124512 0.07031,0.22705 v 0.494385 h -0.29956 v -0.427734 c -1e-06,-0.04883 -0.009,-0.08325 -0.0271,-0.103272 -0.01807,-0.02051 -0.04346,-0.03076 -0.07617,-0.03076 -0.03613,0 -0.06543,0.01367 -0.08789,0.04102 -0.02246,0.02734 -0.03369,0.07642 -0.03369,0.147217 v 0.373535 h -0.298095 v -0.777832"/>
<path id="path3128" d="m 26.7905,77.9881 -.2849,-.03 c 0.01074,-0.0498 0.02612,-0.08887 0.04614,-0.117188 0.02051,-0.02881 0.0498,-0.05371 0.08789,-0.07471 0.02734,-0.01514 0.06494,-0.02685 0.112793,-0.03516 0.04785,-0.0083 0.09961,-0.01245 0.155274,-0.01245 0.08936,1e-06 0.161132,0.0051 0.215332,0.01538 0.0542,0.0098 0.09936,0.03052 0.135498,0.06226 0.02539,0.02197 0.04541,0.05322 0.06006,0.09375 0.01465,0.04004 0.02197,0.07837 0.02197,0.11499 v 0.343506 c -1e-06,0.03662 0.0022,0.06543 0.0066,0.08643 0.0049,0.02051 0.01514,0.04687 0.03076,0.0791 h -0.279785 c -0.01123,-0.02002 -0.01856,-0.03516 -0.02197,-0.04541 -0.0034,-0.01074 -0.0068,-0.02734 -0.01025,-0.0498 -0.03906,0.0376 -0.07788,0.06445 -0.116455,0.08057 -0.05274,0.02148 -0.114014,0.03223 -0.183838,0.03223 -0.09277,0 -0.16333,-0.02148 -0.21167,-0.06445 -0.04785,-0.04297 -0.07178,-0.09595 -0.07178,-0.158935 0,-0.05908 0.01733,-0.107666 0.052,-0.145752 0.03467,-0.03809 0.09863,-0.06641 0.191894,-0.08496 0.111816,-0.02246 0.184326,-0.03809 0.21753,-0.04687 0.0332,-0.0093 0.06836,-0.02124 0.105468,-0.03589 0,-0.03662 -0.0076,-0.06226 -0.0227,-0.0769 -0.01514,-0.01465 -0.04175,-0.02197 -0.07983,-0.02197 -0.04883,1e-06 -0.08545,0.0078 -0.109863,0.02344 -0.01904,0.01221 -0.03442,0.03516 -0.04614,0.06885 m .2585,.1567 c -0.04102,0.01465 -0.08374,0.02759 -0.128174,0.03882 -0.06055,0.01611 -0.09888,0.03198 -0.11499,0.04761 -0.0166,0.01611 -0.0249,0.03442 -0.0249,0.05493 0,0.02344 0.0081,0.04273 0.02417,0.05786 0.0166,0.01465 0.04077,0.02197 0.07251,0.02197 0.0332,0 0.06396,-0.0081 0.09229,-0.02417 0.02881,-0.01611 0.04907,-0.03564 0.06079,-0.05859 0.01221,-0.02344 0.01831,-0.05371 0.01831,-0.09082 v -0.04761"/>
<path id="path3130" d="m 28.0854,77.7361 .2791,0 0,.7346 .0007,.0344 c -1e-06,0.04883 -0.0105,0.09521 -0.03149,0.13916 -0.02051,0.04443 -0.0481,0.08032 -0.08276,0.107666 -0.03418,0.02734 -0.07788,0.04712 -0.131104,0.05933 -0.05273,0.01221 -0.113282,0.01831 -0.181641,0.01831 -0.15625,0 -0.263672,-0.02344 -0.322265,-0.07031 -0.05811,-0.04687 -0.08716,-0.109619 -0.08716,-0.188232 0,-0.0098 0.000488,-0.02295 0.0015,-0.03955 l .2893,.033 c 0.0073,0.02686 0.01855,0.04541 0.03369,0.05566 0.02197,0.01514 0.04956,0.02271 0.08276,0.02271 0.04297,0 0.07495,-0.01147 0.09595,-0.03442 0.02148,-0.02295 0.03223,-0.06299 0.03223,-0.120118 v -0.11792 c -0.0293,0.03467 -0.05859,0.05982 -0.08789,0.07544 -0.0459,0.02441 -0.09546,0.03662 -0.148681,0.03662 -0.104004,0 -0.187989,-0.04541 -0.251953,-0.13623 -0.04541,-0.06445 -0.06812,-0.149658 -0.06812,-0.255616 0,-0.121093 0.0293,-0.213378 0.08789,-0.276855 0.05859,-0.06348 0.135254,-0.09521 0.22998,-0.09522 0.06055,1e-06 0.110352,0.01026 0.149415,0.03076 0.03955,0.02051 0.07642,0.05444 0.110595,0.101806 v -0.11499 m -.2805,.3772 c -1e-06,0.05615 0.01196,0.0979 0.03589,0.125245 0.02393,0.02685 0.05542,0.04028 0.09448,0.04028 0.03711,0 0.06811,-0.01392 0.09302,-0.04175 0.02539,-0.02832 0.03809,-0.0708 0.03809,-0.127442 0,-0.05664 -0.01318,-0.09985 -0.03955,-0.129638 -0.02637,-0.03027 -0.05859,-0.04541 -0.09668,-0.04541 -0.03809,1e-06 -0.0686,0.01392 -0.09155,0.04175 -0.02246,0.02734 -0.03369,0.073 -0.03369,0.136962"/>
<path id="path3132" d="m 29.4097,78.199 -.5977,0 c 0.0054,0.04785 0.01831,0.0835 0.03882,0.106933 0.02881,0.03369 0.06641,0.05054 0.112793,0.05054 0.0293,1e-06 0.05713,-0.0073 0.0835,-0.02197 0.01611,-0.0093 0.03345,-0.02564 0.052,-0.04907 l .2937,.0271 c -0.04492,0.07813 -0.09912,0.134278 -0.162597,0.168457 -0.06348,0.03369 -0.154542,0.05054 -0.273194,0.05054 -0.103027,0 -0.184082,-0.0144 -0.243164,-0.04321 -0.05908,-0.0293 -0.108154,-0.07544 -0.147217,-0.138427 -0.03857,-0.06348 -0.05786,-0.137939 -0.05786,-0.223389 0,-0.121582 0.03882,-0.21997 0.116455,-0.295166 0.07813,-0.0752 0.185791,-0.112792 0.322998,-0.112793 0.111328,1e-06 0.199218,0.01685 0.263672,0.05054 0.06445,0.03369 0.113525,0.08252 0.147217,0.146484 0.03369,0.06397 0.05054,0.147218 0.05054,0.249756 v 0.03369 m -.3032,-.1428 c -0.0059,-0.05762 -0.02149,-0.09888 -0.04687,-0.123779 -0.0249,-0.0249 -0.05786,-0.03735 -0.09888,-0.03735 -0.04736,0 -0.0852,0.0188 -0.113525,0.0564 -0.01807,0.02344 -0.02954,0.05835 -0.03442,0.104736 h 0.293701"/>
<path id="path3134" d="m 29.551,77.7361 .2791,0 0,.1274 c 0.02686,-0.05518 0.05444,-0.09302 0.08276,-0.113526 0.02881,-0.02099 0.06421,-0.03149 0.106201,-0.03149 0.04395,1e-06 0.09204,0.01367 0.144287,0.04102 l -.0923,.2124 c -0.03516,-0.01465 -0.06299,-0.02197 -0.0835,-0.02197 -0.03906,1e-06 -0.06934,0.01611 -0.09082,0.04834 -0.03076,0.04541 -0.04614,0.130372 -0.04614,0.254883 v 0.260742 h -0.299561 v -0.777832"/>
</g>
</g>
</g>
</g>
<g style="display:none;stroke:none" id="layer4">
<rect width="30" x="-86" y="56" rx="2.8125" height="30" ry="2.8125" style="opacity:.6;filter:url(#filter3806)" id="rect3790" transform="matrix(0,-1,1,0,0,4)"/>
<rect width="30" x="-88" y="56" rx="2.8125" height="30" ry="2.8125" style="fill:url(#linearGradient3773)" id="rect2993" transform="matrix(0,-1,1,0,0,0)"/>
<path style="opacity:.5;fill:url(#linearGradient3788)" id="rect3775" d="M 58.8125,58 C 57.254375,58 56,59.254375 56,60.8125 l 0,24.375 c 0,0.873066 0.410816,1.641163 1.03125,2.15625 C 57.02841,87.289908 57,87.242129 57,87.1875 l 0,-24.375 C 57,61.254375 58.17075,60 59.625,60 l 22.75,0 C 83.82925,60 85,61.254375 85,62.8125 l 0,24.375 c 0,0.05463 -0.02841,0.102408 -0.03125,0.15625 C 85.589184,86.828663 86,86.060566 86,85.1875 l 0,-24.375 C 86,59.254375 84.745625,58 83.1875,58 l -24.375,0 z"/>
<g style="display:inline">
<path style="opacity:.6;fill:url(#linearGradient3812);filter:url(#filter3831);clip-path:url(#clipPath3823)" id="path3810" d="m 116,63.5 0,8.75 -5,0 10,13.75 10,-13.75 -5,0 0,-8.75 -10,0 z" transform="translate(-50,0)"/>
<path style="fill:url(#linearGradient3832)" id="path4278" d="m 66,62.5 0,8.75 -5,0 10,13.75 10,-13.75 -5,0 0,-8.75 -10,0 z"/>
</g>
</g>
<g id="layer6">
<g style="stroke:none">
<path style="opacity:.05" id="path3950" d="m 68,116 c -11.0601,0 -20,8.93989 -20,20 0,11.0601 8.9399,20 20,20 11.0601,0 20,-8.93989 20,-20 0,-11.0601 -8.9399,-20 -20,-20 z " transform="translate(1.373291e-7,-61)"/>
<path style="opacity:.15" id="path3946" d="m 68,117 c -10.5155,0 -19,8.48447 -19,19 0,10.5155 8.48447,19 19,19 10.5155,0 19,-8.48447 19,-19 0,-10.5155 -8.48447,-19 -19,-19 z " transform="translate(1.373291e-7,-61)"/>
<rect width="36" x="50" y="118" rx="18" height="36" ry="18" style="opacity:.31;clip-path:url(#clipPath3871)" id="rect3859" transform="translate(1.373291e-7,-61)"/>
<path style="fill:url(#linearGradient3844)" id="path3836" d="m 90.7143,72.7857 a 19.6429,19.6429 0 1,1 -39.2857,0 19.6429,19.6429 0 1,1 39.2857,0 z " transform="matrix(0,-0.91636366,0.91636366,0,1.3018175,139.12727)"/>
<g id="g4106">
<path style="opacity:.2;fill:url(#linearGradient3857-6)" id="path3846" d="m 68,56 c -9.941125,0 -18,8.058875 -18,18 0,3.6617 1.09067,7.063961 2.96875,9.90625 C 51.722125,81.541769 51,78.858787 51,76 c 0,-9.388841 7.611159,-17 17,-17 9.388841,0 17,7.611159 17,17 0,2.858787 -0.722125,5.541769 -1.96875,7.90625 C 84.90933,81.063961 86,77.6617 86,74 86,64.058875 77.941125,56 68,56 z"/>
<path style="opacity:.3;fill:#fff" id="path4097" d="m 68,56 c -9.94112,0 -18,8.05887 -18,18 0,0.168593 0.02664,0.33252 0.03125,0.5 C 50.298212,64.79197 58.227473,57 68,57 c 9.73052,0 17.63723,7.725255 17.96875,17.375 l 0,-1 C 85.63723,63.725255 77.73052,56 68,56 z"/>
</g>
<g style="fill-rule:evenodd">
<path style="opacity:.05" id="path3963" d="m 73.7812,61.2812 c -1.70504,0 -3.13326,1.03468 -3.78125,2.5 -0.677732,-0.131745 -1.35259,-0.28125 -2.09375,-0.28125 -1.75371,0 -3.4024,0.401456 -4.875,1.09375 0.0047,-0.0022 -0.129558,0.06505 -0.125,0.0625 0.0046,-0.0025 -0.129375,0.06535 -0.125,0.0625 0.0044,-0.0029 -0.09792,0.09689 -0.09375,0.09375 0.0042,-0.0031 -0.128951,0.06592 -0.125,0.0625 0.004,-0.0034 -0.09746,0.09742 -0.09375,0.09375 0.0037,-0.0037 -0.09721,0.09767 -0.09375,0.09375 0.0028,-0.0031 -0.04073,0.06746 -0.0625,0.09375 0.0052,-0.000719 -0.130157,0.03232 -0.125,0.03125 0.0052,-0.0011 -0.130072,0.03267 -0.125,0.03125 0.0051,-0.0014 -0.129964,0.03301 -0.125,0.03125 0.005,-0.0018 -0.129833,0.0646 -0.125,0.0625 0.0048,-0.0021 -0.129679,0.06492 -0.125,0.0625 0.0047,-0.0024 -0.129503,0.06523 -0.125,0.0625 0.0045,-0.0027 -0.09806,0.06553 -0.09375,0.0625 -1.87861,1.26951 -3.26252,3.07614 -4.125,5.1875 -0.280584,-0.06347 -0.502251,-0.21875 -0.8125,-0.21875 -2.49491,0 -4.53125,2.03634 -4.53125,4.53125 0,2.49491 2.03634,4.53125 4.53125,4.53125 0.300086,0 0.510796,-0.127776 0.78125,-0.1875 0.871662,2.07469 2.28124,3.82358 4.0625,5.0625 -0.0042,-0.0028 0.129373,0.09631 0.125,0.09375 -0.0044,-0.0026 0.09828,0.06477 0.09375,0.0625 -0.0045,-0.0023 0.12967,0.03322 0.125,0.03125 -0.0047,-0.002 0.129789,0.06416 0.125,0.0625 -0.0048,-0.0017 0.129887,0.03259 0.125,0.03125 -0.0049,-0.0013 0.129965,0.03227 0.125,0.03125 -0.0023,-0.000479 0.03129,-0.0053 0.0625,0 0.005,0.0073 0.000643,0.03212 0,0.03125 -0.0032,-0.0043 0.09726,0.09784 0.09375,0.09375 -0.0035,-0.0041 0.09754,0.09759 0.09375,0.09375 -0.0038,-0.0038 0.09779,0.09732 0.09375,0.09375 -0.004,-0.0036 0.09803,0.09703 0.09375,0.09375 -0.0043,-0.0033 0.1295,0.09672 0.125,0.09375 -0.0045,-0.003 0.129696,0.06515 0.125,0.0625 -0.0038,-0.0021 0.06251,0.04619 0.09375,0.0625 0.0078,0.0041 0.03222,0.000463 0.03125,0 1.50423,0.730752 3.19757,1.15625 5,1.15625 0.741161,0 1.41602,-0.149504 2.09375,-0.28125 0.647996,1.46532 2.07621,2.5 3.78125,2.5 2.31192,0 4.15625,-1.90544 4.15625,-4.1875 0,-0.989345 -0.423335,-1.80951 -1,-2.5 1.34087,-1.73567 2.25842,-3.84362 2.4375,-6.15625 a 1.10861,1.10861 0 0,0 0,-0.03125 c -0.000348,0.005 0.03127,-0.13 0.03125,-0.125 -2.5e-05,0.005 -0.03155,-0.129991 -0.03125,-0.125 0.000298,0.005 -0.00062,-0.129962 0,-0.125 0.00062,0.005 -0.03219,-0.129911 -0.03125,-0.125 0.000939,0.0049 -0.0013,-0.12984 0,-0.125 0.0013,0.0048 -0.06406,-0.129749 -0.0625,-0.125 0.000828,0.0025 -0.01918,-0.02949 -0.03125,-0.0625 -0.000879,0.0022 -0.01073,-0.03315 0,-0.0625 0.01207,-0.03301 0.03208,-0.06501 0.03125,-0.0625 -0.0016,0.0047 0.06376,-0.12984 0.0625,-0.125 -0.0013,0.0048 0.000939,-0.129911 0,-0.125 -0.000939,0.0049 0.03187,-0.129962 0.03125,-0.125 -0.00062,0.005 0.000298,-0.129991 0,-0.125 -0.000298,0.005 0.03123,-0.13 0.03125,-0.125 2.5e-05,0.005 -0.0316,-0.129988 -0.03125,-0.125 a 1.10861,1.10861 0 0,0 0,-0.03125 c -0.179078,-2.31263 -1.09663,-4.42058 -2.4375,-6.15625 0.578718,-0.697378 1,-1.5095 1,-2.5 0,-2.28205 -1.84433,-4.1875 -4.15625,-4.1875 z  m -5.875,10.5625 c 1.6012,0 2.89694,1.17454 3.125,2.6875 -0.000133,-0.0011 -0.0011,0.02493 0,0.03125 0.007,0.03883 0.03273,0.194023 0.03125,0.1875 -0.0017,-0.0076 0.06497,0.194873 0.0625,0.1875 -0.000866,-0.0026 0.01924,0.03202 0.03125,0.0625 -0.01201,0.03048 -0.03212,0.06508 -0.03125,0.0625 0.0025,-0.0074 -0.06422,0.195084 -0.0625,0.1875 0.0015,-0.0065 -0.02422,0.148675 -0.03125,0.1875 -0.0011,0.0063 -0.000133,0.03233 0,0.03125 -0.228057,1.51296 -1.5238,2.6875 -3.125,2.6875 -0.456185,0 -0.934114,-0.104828 -1.21875,-0.21875 0.0038,0.0015 -0.09762,-0.03256 -0.09375,-0.03125 0.0039,0.0013 -0.09769,-0.03236 -0.09375,-0.03125 0.0039,0.0011 -0.09774,-0.03215 -0.09375,-0.03125 0.0031,0.000685 -0.06518,-0.02558 -0.09375,-0.03125 -0.0048,-0.0068 -0.02772,0.0049 -0.03125,0 -0.0053,-0.0074 -0.000601,-0.03204 0,-0.03125 0.0026,0.0034 -0.09654,-0.09703 -0.09375,-0.09375 0.0028,0.0033 -0.06547,-0.06562 -0.0625,-0.0625 0.003,0.0031 -0.09689,-0.0967 -0.09375,-0.09375 0.0031,0.0029 -0.0658,-0.06527 -0.0625,-0.0625 a 1.10861,1.10861 0 0,0 -0.03125,-0.03125 c -0.725881,-0.583816 -1.1875,-1.42561 -1.1875,-2.4375 0,-1.05481 0.509027,-1.96566 1.25,-2.53125 0.02679,-0.02263 0.130023,-0.129627 0.125,-0.125 -0.0057,0.0053 0.161412,-0.130817 0.15625,-0.125 -0.00063,0.000709 -0.003,-0.02743 0,-0.03125 0.0024,-0.0031 0.02708,0.0052 0.03125,0 0.03167,-0.0045 0.06519,-0.000456 0.0625,0 -0.004,0.000684 0.12899,-0.03215 0.125,-0.03125 -0.004,0.000896 0.09769,-0.03236 0.09375,-0.03125 -0.0039,0.0011 0.09762,-0.03256 0.09375,-0.03125 -0.0039,0.0013 0.09755,-0.03276 0.09375,-0.03125 0.342563,-0.130451 0.740547,-0.21875 1.125,-0.21875 z "/>
<path style="opacity:.15" id="path3959" d="m 73.7812,62.375 c -1.56481,0 -2.83586,1.20344 -3.03125,2.71875 a 0.876432,0.876432 0 0,0 -0.375,-0.1875 c -0.777039,-0.188517 -1.61455,-0.3125 -2.46875,-0.3125 -1.58025,0 -3.06814,0.37093 -4.40625,1 a 0.876432,0.876432 0 0,0 -0.5,0.75 0.876432,0.876432 0 0,0 -0.90625,0.0625 c -1.81664,1.22764 -3.18047,2.97403 -3.9375,5.0625 a 0.876432,0.876432 0 0,0 -0.03125,0.53125 c -0.480177,-0.25598 -1.01503,-0.4375 -1.59375,-0.4375 -1.8894,0 -3.4375,1.5481 -3.4375,3.4375 0,1.8894 1.5481,3.4375 3.4375,3.4375 0.553678,0 1.0664,-0.17057 1.53125,-0.40625 a 0.876432,0.876432 0 0,0 0.03125,0.5 c 0.752222,2.05701 2.15816,3.7529 3.90625,4.96875 a 0.876432,0.876432 0 0,0 0.875,0.0625 0.876432,0.876432 0 0,0 0.5,0.78125 c 1.3732,0.671179 2.89518,1.0625 4.53125,1.0625 0.854199,0 1.69171,-0.12398 2.46875,-0.3125 a 0.876432,0.876432 0 0,0 0.375,-0.1875 c 0.195393,1.51531 1.46645,2.71875 3.03125,2.71875 1.69764,0 3.0625,-1.41113 3.0625,-3.09375 0,-1.08434 -0.610508,-1.98624 -1.46875,-2.53125 a 0.876432,0.876432 0 0,0 0.46875,-0.28125 c 1.36314,-1.62331 2.26429,-3.70059 2.4375,-5.9375 a 0.876432,0.876432 0 0,0 -0.375,-0.78125 0.876432,0.876432 0 0,0 0.375,-0.78125 c -0.173215,-2.23691 -1.07436,-4.31419 -2.4375,-5.9375 a 0.876432,0.876432 0 0,0 -0.4375,-0.28125 c 0.846019,-0.547354 1.4375,-1.45621 1.4375,-2.53125 0,-1.68261 -1.36486,-3.09375 -3.0625,-3.09375 z  m -5.875,8.375 c 2.15691,0 3.92683,1.59238 4.21875,3.65625 a 0.876432,0.876432 0 0,0 0.34375,0.59375 0.876432,0.876432 0 0,0 -0.34375,0.59375 c -0.291924,2.06387 -2.06184,3.65625 -4.21875,3.65625 -0.579683,0 -1.16433,-0.09687 -1.625,-0.28125 a 0.876432,0.876432 0 0,0 -0.71875,0.03125 0.876432,0.876432 0 0,0 -0.3125,-0.6875 c -0.970263,-0.780369 -1.59375,-1.95995 -1.59375,-3.3125 0,-1.39487 0.641888,-2.63198 1.65625,-3.40625 a 0.876432,0.876432 0 0,0 0.34375,-0.59375 0.876432,0.876432 0 0,0 0.71875,0.03125 c 0.471936,-0.179717 1.00438,-0.28125 1.53125,-0.28125 z "/>
<path style="opacity:.3" id="path3954" d="m 67.9082,65.4624 c -1.44781,0 -2.80559,0.339044 -4.03513,0.917075 l 2.201,3.8517 c 0.567361,-0.216056 1.19125,-0.36683 1.83415,-0.36683 2.58888,0 4.73728,1.90989 5.08977,4.40197 h 4.40197 c -0.158637,-2.04864 -0.954451,-3.92631 -2.20098,-5.41075 -0.43882,0.185709 -0.915242,0.275123 -1.42147,0.275123 -1.9295,0 -3.47756,-1.50061 -3.62245,-3.39318 -0.719734,-0.174614 -1.47316,-0.275124 -2.24684,-0.275124 z  m -5.319,1.6507 c -1.665,1.12516 -2.92788,2.76091 -3.62245,4.67709 0.968855,0.737259 1.60488,1.89925 1.60488,3.20977 0,1.323 -0.666083,2.47375 -1.65074,3.20977 0.683935,1.87027 1.96235,3.46262 3.5766,4.58538 l 2.201,-3.8059 c -1.17067,-0.941553 -1.92586,-2.37115 -1.92586,-3.98928 0,-1.66517 0.787961,-3.14242 2.01757,-4.08099 l -2.201,-3.8059 z  m 10.4088,8.6205 c -0.352491,2.49208 -2.50089,4.40197 -5.08977,4.40197 -0.673281,0 -1.3365,-0.130945 -1.92586,-0.36683 l -2.2468,3.8059 c 1.26244,0.617043 2.67371,0.962931 4.1727,0.962931 0.773676,0 1.5271,-0.100508 2.24684,-0.275124 0.144894,-1.89257 1.69295,-3.39318 3.62245,-3.39318 0.506227,0 0.982649,0.08941 1.42147,0.275124 1.24653,-1.48444 2.04235,-3.36211 2.20098,-5.41075 h -4.40197 z  m 2.9805,-10.2713 c 0,1.21494 -0.98604,2.20098 -2.20098,2.20098 -1.21494,0 -2.20098,-0.986041 -2.20098,-2.20098 0,-1.21494 0.986039,-2.20098 2.20098,-2.20098 1.21494,0 2.20098,0.98604 2.20098,2.20098 z  m 0,19.0752 c 0,1.21494 -0.98604,2.20098 -2.20098,2.20098 -1.21494,0 -2.20098,-0.98604 -2.20098,-2.20098 0,-1.21494 0.986039,-2.20099 2.20098,-2.20099 1.21494,0 2.20098,0.986041 2.20098,2.20099 z  m -16.8742,-9.5376 c 0,1.41743 -1.15038,2.56781 -2.56782,2.56781 -1.41743,0 -2.56781,-1.15038 -2.56781,-2.56781 0,-1.41743 1.15038,-2.56781 2.56781,-2.56781 1.41743,0 2.56782,1.15038 2.56782,2.56781 z "/>
<path style="fill:#fff" id="path3342" d="m 67.9082,64.4624 c -1.44781,0 -2.80559,0.339044 -4.03513,0.917075 l 2.201,3.8517 c 0.567361,-0.216056 1.19125,-0.36683 1.83415,-0.36683 2.58888,0 4.73728,1.90989 5.08977,4.40197 h 4.40197 c -0.158637,-2.04864 -0.954451,-3.92631 -2.20098,-5.41075 -0.43882,0.185709 -0.915242,0.275123 -1.42147,0.275123 -1.9295,0 -3.47756,-1.50061 -3.62245,-3.39318 -0.719734,-0.174614 -1.47316,-0.275124 -2.24684,-0.275124 z  m -5.319,1.6507 c -1.665,1.12516 -2.92788,2.76091 -3.62245,4.67709 0.968855,0.737259 1.60488,1.89925 1.60488,3.20977 0,1.323 -0.666083,2.47375 -1.65074,3.20977 0.683935,1.87027 1.96235,3.46262 3.5766,4.58538 l 2.201,-3.8059 c -1.17067,-0.941553 -1.92586,-2.37115 -1.92586,-3.98928 0,-1.66517 0.787961,-3.14242 2.01757,-4.08099 l -2.201,-3.8059 z  m 10.4088,8.6205 c -0.352491,2.49208 -2.50089,4.40197 -5.08977,4.40197 -0.673281,0 -1.3365,-0.130945 -1.92586,-0.36683 l -2.2468,3.8059 c 1.26244,0.617043 2.67371,0.962931 4.1727,0.962931 0.773676,0 1.5271,-0.100508 2.24684,-0.275124 0.144894,-1.89257 1.69295,-3.39318 3.62245,-3.39318 0.506227,0 0.982649,0.08941 1.42147,0.275124 1.24653,-1.48444 2.04235,-3.36211 2.20098,-5.41075 h -4.40197 z  m 2.9805,-10.2713 c 0,1.21494 -0.98604,2.20098 -2.20098,2.20098 -1.21494,0 -2.20098,-0.986041 -2.20098,-2.20098 0,-1.21494 0.986039,-2.20098 2.20098,-2.20098 1.21494,0 2.20098,0.98604 2.20098,2.20098 z  m 0,19.0752 c 0,1.21494 -0.98604,2.20098 -2.20098,2.20098 -1.21494,0 -2.20098,-0.98604 -2.20098,-2.20098 0,-1.21494 0.986039,-2.20099 2.20098,-2.20099 1.21494,0 2.20098,0.986041 2.20098,2.20099 z  m -16.8742,-9.5376 c 0,1.41743 -1.15038,2.56781 -2.56782,2.56781 -1.41743,0 -2.56781,-1.15038 -2.56781,-2.56781 0,-1.41743 1.15038,-2.56781 2.56781,-2.56781 1.41743,0 2.56782,1.15038 2.56782,2.56781 z "/>
</g>
</g>
</g>
</svg>
