<svg width="96" version="1.0" xmlns="http://www.w3.org/2000/svg" height="96" xmlns:xlink="http://www.w3.org/1999/xlink">
<defs id="defs2410">
<clipPath id="clipPath3613">
<rect width="84" x="6" y="6" rx="6" height="84" ry="6" style="fill:#fff;stroke:none" id="rect3615"/>
</clipPath>
<filter width="1.3839999" x="-0.192" y="-0.192" height="1.3839999" style="color-interpolation-filters:sRGB" id="filter3794-6">
<feGaussianBlur stdDeviation="5.28" id="feGaussianBlur3796-7"/>
</filter>
<filter style="color-interpolation-filters:sRGB" id="filter3174">
<feGaussianBlur stdDeviation="1.71" id="feGaussianBlur3176"/>
</filter>
<linearGradient id="linearGradient2908" xlink:href="#linearGradient3737-9" y1="20.220806" x1="48" y2="138.66119" x2="48" gradientUnits="userSpaceOnUse"/>
<linearGradient gradientTransform="matrix(1.0238095,0,0,1.0119048,-1.1428571,-98.071429)" id="linearGradient3725" xlink:href="#ButtonShadow-0" y1="6.1317081" x1="32.251034" y2="90.238609" x2="32.251034" gradientUnits="userSpaceOnUse"/>
<linearGradient gradientTransform="matrix(1.0058652,0,0,0.994169,100,0)" id="ButtonShadow-0" y1="92.539597" x1="45.447727" y2="7.0165396" x2="45.447727" gradientUnits="userSpaceOnUse">
<stop offset="0" id="stop3750-8"/>
<stop offset="1" style="stop-opacity:.588" id="stop3752-5"/>
</linearGradient>
<linearGradient gradientTransform="translate(0,-97)" id="linearGradient3721" xlink:href="#ButtonShadow-0" y1="6.1317081" x1="32.251034" y2="90.238609" x2="32.251034" gradientUnits="userSpaceOnUse"/>
<linearGradient gradientTransform="matrix(1.0238095,0,0,1.0119048,-1.1428571,-98.071429)" id="linearGradient3772" xlink:href="#ButtonShadow-0" y1="6.1317081" x1="32.251034" y2="90.238609" x2="32.251034" gradientUnits="userSpaceOnUse"/>
<linearGradient gradientTransform="matrix(1.0238095,0,0,1.0119048,-1.1428571,-98.071429)" id="linearGradient3780" xlink:href="#ButtonShadow-0" y1="6.1317081" x1="32.251034" y2="90.238609" x2="32.251034" gradientUnits="userSpaceOnUse"/>
<linearGradient gradientTransform="scale(1.0058652,0.994169)" id="ButtonShadow" y1="92.539597" x1="45.447727" y2="7.0165396" x2="45.447727" gradientUnits="userSpaceOnUse">
<stop offset="0" id="stop3750"/>
<stop offset="1" style="stop-opacity:.588" id="stop3752"/>
</linearGradient>
<linearGradient id="linearGradient3737">
<stop offset="0" style="stop-color:#fff" id="stop3739"/>
<stop offset="1" style="stop-color:#fff;stop-opacity:0" id="stop3741"/>
</linearGradient>
<linearGradient id="linearGradient3700">
<stop offset="0" style="stop-color:#7fb718" id="stop3702"/>
<stop offset="1" style="stop-color:#7fb718" id="stop3704"/>
</linearGradient>
<linearGradient gradientTransform="matrix(1.0238095,0,0,1.0119048,-1.1428571,-98.071429)" id="linearGradient3020" xlink:href="#ButtonShadow-0" y1="6.1317081" x1="32.251034" y2="90.238609" x2="32.251034" gradientUnits="userSpaceOnUse"/>
<linearGradient id="linearGradient3706" xlink:href="#linearGradient3700" y1="90" x1="48" y2="5.9877172" x2="48" gradientUnits="userSpaceOnUse"/>
<linearGradient id="linearGradient3188" xlink:href="#linearGradient3737" y1="6" x1="36.357143" y2="63.893143" x2="36.357143" gradientUnits="userSpaceOnUse"/>
<linearGradient id="linearGradient3737-9">
<stop offset="0" style="stop-color:#fff" id="stop3739-7"/>
<stop offset="1" style="stop-color:#fff;stop-opacity:0" id="stop3741-7"/>
</linearGradient>
<linearGradient id="linearGradient3737-6">
<stop offset="0" style="stop-color:#fff" id="stop3739-1"/>
<stop offset="1" style="stop-color:#fff;stop-opacity:0" id="stop3741-0"/>
</linearGradient>
<radialGradient fx="48" fy="90.171875" cx="48" cy="90.171875" gradientTransform="matrix(1.1573129,0,0,0.99590774,-7.551021,0.1971319)" r="42" id="radialGradient2874" xlink:href="#linearGradient3737-6" gradientUnits="userSpaceOnUse"/>
</defs>
<g style="display:none" id="layer2">
<rect width="86" x="5" y="7" rx="6" height="85" ry="6" style="opacity:.9;fill:url(#ButtonShadow);filter:url(#filter3174);stroke:none" id="rect3745"/>
</g>
<g style="stroke:none" id="layer4">
<path style="opacity:.08;fill:url(#linearGradient3020)" id="path3786" d="m 12,-95.0312 c -5.51109,0 -10.0312,4.52016 -10.0312,10.0312 v 71 c 0,5.51109 4.52016,10.0312 10.0312,10.0312 h 72 c 5.51109,0 10.0312,-4.52016 10.0312,-10.0312 v -71 c 0,-5.51109 -4.52016,-10.0312 -10.0312,-10.0312 h -72 z " transform="scale(1,-1)"/>
<path style="opacity:.1;fill:url(#linearGradient3780)" id="path3778" d="m 12,-94.0312 c -4.97163,0 -9.03125,4.05962 -9.03125,9.03125 v 71 c 0,4.97163 4.05962,9.03125 9.03125,9.03125 h 72 c 4.97163,0 9.03125,-4.05962 9.03125,-9.03125 v -71 c 0,-4.97163 -4.05962,-9.03125 -9.03125,-9.03125 h -72 z " transform="scale(1,-1)"/>
<path style="opacity:.2;fill:url(#linearGradient3772)" id="path3770" d="m 12,-93 c -4.40913,0 -8,3.59087 -8,8 v 71 c 0,4.40913 3.59087,8 8,8 h 72 c 4.40913,0 8,-3.59087 8,-8 v -71 c 0,-4.40913 -3.59087,-8 -8,-8 h -72 z " transform="scale(1,-1)"/>
<rect width="86" x="5" y="-92" rx="7" height="85" ry="7" style="opacity:.3;fill:url(#linearGradient3725)" id="rect3723" transform="scale(1,-1)"/>
<rect width="84" x="6" y="-91" rx="6" height="84" ry="6" style="opacity:.45;fill:url(#linearGradient3721)" id="rect3716" transform="scale(1,-1)"/>
</g>
<g style="stroke:none" id="layer1">
<rect width="84" x="6" y="6" rx="6" height="84" ry="6" style="fill:url(#linearGradient3706)" id="rect2419"/>
<path style="opacity:.5;fill:url(#linearGradient3188)" id="rect3728" d="m 12,6 c -3.324,0 -6,2.676 -6,6 v 2 68 2 c 0,0.334721 0.04135,0.6507 0.09375,0.96875 0.0487,0.295596 0.09704,0.596915 0.1875,0.875 0.00988,0.03038 0.020892,0.0636 0.03125,0.09375 0.098865,0.287771 0.23488,0.547452 0.375,0.8125 0.144592,0.273507 0.315616,0.535615 0.5,0.78125 0.184384,0.245635 0.373776,0.473472 0.59375,0.6875 0.439947,0.428056 0.94291,0.814526 1.5,1.09375 0.278545,0.139612 0.573473,0.246947 0.875,0.34375 -0.256202,-0.100222 -0.486711,-0.236272 -0.71875,-0.375 -0.00741,-0.0044 -0.023866,0.0045 -0.03125,0 -0.031933,-0.0193 -0.062293,-0.04251 -0.09375,-0.0625 -0.120395,-0.0767 -0.231023,-0.163513 -0.34375,-0.25 -0.106173,-0.0808 -0.213281,-0.161112 -0.3125,-0.25 -0.17793,-0.161433 -0.34746,-0.345388 -0.5,-0.53125 -0.107579,-0.130255 -0.218394,-0.265285 -0.3125,-0.40625 -0.025089,-0.03838 -0.038446,-0.08587 -0.0625,-0.125 -0.064763,-0.103032 -0.130228,-0.204517 -0.1875,-0.3125 -0.101008,-0.194706 -0.205675,-0.415701 -0.28125,-0.625 -0.00796,-0.02181 -0.023589,-0.04055 -0.03125,-0.0625 -0.0318251,-0.09195 -0.0358045,-0.186831 -0.0625,-0.28125 -0.0303323,-0.106618 -0.0703894,-0.203031 -0.09375,-0.3125 -0.0728786,-0.341512 -0.125,-0.698205 -0.125,-1.0625 v -2 -68 -2 c 0,-2.78185 2.21815,-5 5,-5 h 2 68 2 c 2.78185,0 5,2.21815 5,5 v 2 68 2 c 0,0.364295 -0.05212,0.720988 -0.125,1.0625 -0.04415,0.206893 -0.08838,0.397658 -0.15625,0.59375 -0.0077,0.02195 -0.0233,0.04069 -0.03125,0.0625 -0.06274,0.173739 -0.138383,0.367449 -0.21875,0.53125 -0.04158,0.0828 -0.07904,0.169954 -0.125,0.25 -0.0546,0.09721 -0.126774,0.18835 -0.1875,0.28125 -0.09411,0.140965 -0.204921,0.275995 -0.3125,0.40625 -0.143174,0.17445 -0.303141,0.346998 -0.46875,0.5 -0.01117,0.0102 -0.01998,0.02115 -0.03125,0.03125 -0.138386,0.125556 -0.285091,0.234436 -0.4375,0.34375 -0.102571,0.07315 -0.204318,0.153364 -0.3125,0.21875 -0.0074,0.0045 -0.02384,-0.0044 -0.03125,0 -0.232039,0.138728 -0.462548,0.274778 -0.71875,0.375 0.301527,-0.0968 0.596455,-0.204138 0.875,-0.34375 0.55709,-0.279224 1.06005,-0.665694 1.5,-1.09375 0.219973,-0.214028 0.409366,-0.441865 0.59375,-0.6875 0.184384,-0.245635 0.355408,-0.507743 0.5,-0.78125 0.14012,-0.265048 0.276135,-0.524729 0.375,-0.8125 0.01041,-0.03078 0.02133,-0.06274 0.03125,-0.09375 0.09046,-0.278085 0.1388,-0.579404 0.1875,-0.875 0.0524,-0.31805 0.09375,-0.634029 0.09375,-0.96875 v -2 -68 -2 c 0,-3.324 -2.676,-6 -6,-6 h -72 z "/>
<path style="opacity:.25;fill:url(#radialGradient2874)" id="path3615" d="M 12,90 C 8.676,90 6,87.324 6,84 L 6,82 6,14 6,12 c 0,-0.334721 0.04135,-0.6507 0.09375,-0.96875 0.0487,-0.295596 0.09704,-0.596915 0.1875,-0.875 C 6.29113,10.12587 6.302142,10.09265 6.3125,10.0625 6.411365,9.774729 6.5473802,9.515048 6.6875,9.25 6.8320918,8.976493 7.0031161,8.714385 7.1875,8.46875 7.3718839,8.223115 7.5612765,7.995278 7.78125,7.78125 8.221197,7.353194 8.72416,6.966724 9.28125,6.6875 9.559795,6.547888 9.8547231,6.440553 10.15625,6.34375 9.9000482,6.443972 9.6695391,6.580022 9.4375,6.71875 c -0.00741,0.0044 -0.023866,-0.0045 -0.03125,0 -0.031933,0.0193 -0.062293,0.04251 -0.09375,0.0625 -0.120395,0.0767 -0.2310226,0.163513 -0.34375,0.25 -0.1061728,0.0808 -0.2132809,0.161112 -0.3125,0.25 C 8.4783201,7.442683 8.3087904,7.626638 8.15625,7.8125 8.0486711,7.942755 7.9378561,8.077785 7.84375,8.21875 7.818661,8.25713 7.805304,8.30462 7.78125,8.34375 7.716487,8.446782 7.6510225,8.548267 7.59375,8.65625 7.4927417,8.850956 7.3880752,9.071951 7.3125,9.28125 7.30454,9.30306 7.288911,9.3218 7.28125,9.34375 7.2494249,9.4357 7.2454455,9.530581 7.21875,9.625 7.1884177,9.731618 7.1483606,9.828031 7.125,9.9375 7.0521214,10.279012 7,10.635705 7,11 l 0,2 0,68 0,2 c 0,2.781848 2.2181517,5 5,5 l 2,0 68,0 2,0 c 2.781848,0 5,-2.218152 5,-5 l 0,-2 0,-68 0,-2 C 89,10.635705 88.94788,10.279012 88.875,9.9375 88.83085,9.730607 88.78662,9.539842 88.71875,9.34375 88.71105,9.3218 88.69545,9.30306 88.6875,9.28125 88.62476,9.107511 88.549117,8.913801 88.46875,8.75 88.42717,8.6672 88.38971,8.580046 88.34375,8.5 88.28915,8.40279 88.216976,8.31165 88.15625,8.21875 88.06214,8.077785 87.951329,7.942755 87.84375,7.8125 87.700576,7.63805 87.540609,7.465502 87.375,7.3125 87.36383,7.3023 87.35502,7.29135 87.34375,7.28125 87.205364,7.155694 87.058659,7.046814 86.90625,6.9375 86.803679,6.86435 86.701932,6.784136 86.59375,6.71875 c -0.0074,-0.0045 -0.02384,0.0044 -0.03125,0 -0.232039,-0.138728 -0.462548,-0.274778 -0.71875,-0.375 0.301527,0.0968 0.596455,0.204138 0.875,0.34375 0.55709,0.279224 1.060053,0.665694 1.5,1.09375 0.219973,0.214028 0.409366,0.441865 0.59375,0.6875 0.184384,0.245635 0.355408,0.507743 0.5,0.78125 0.14012,0.265048 0.276135,0.524729 0.375,0.8125 0.01041,0.03078 0.02133,0.06274 0.03125,0.09375 0.09046,0.278085 0.1388,0.579404 0.1875,0.875 C 89.95865,11.3493 90,11.665279 90,12 l 0,2 0,68 0,2 c 0,3.324 -2.676,6 -6,6 l -72,0 z"/>
</g>
<g id="layer5">
<rect width="66" x="15" y="15" rx="12" height="66" ry="12" style="opacity:.15;fill:url(#linearGradient2908);filter:url(#filter3794-6);stroke:#fff;stroke-linecap:round;stroke-width:.5;clip-path:url(#clipPath3613)" id="rect3171"/>
</g>
<g id="layer3">
<path style="fill:#599227" id="path3757" d="m 70.7812,58.5312 -1.8125,.0312 a 1.42438,1.42438 0 0,0 -0.03125,0 c -0.855093,0.0351 -1.37479,0.0635 -1.96875,0.25 -0.59396,0.186498 -1.08381,0.635292 -1.34375,0.9375 -0.272715,0.317048 -0.584296,0.826677 -0.71875,1.375 -0.134454,0.548323 -0.15625,1.0535 -0.15625,1.8125 v 0.25 h -0.46875 a 1.42438,1.42438 0 0,0 -0.21875,0.03125 v -0.90625 -1.0625 a 1.42438,1.42438 0 0,0 -1.4375,-1.4375 h -1.15625 -1.15625 a 1.42438,1.42438 0 0,0 -1.4375,1.4375 v 0.9375 c 0,0.283236 -0.004,0.532297 0.0625,0.875 0.0068,0.03484 0.05279,0.08727 0.0625,0.125 a 1.42438,1.42438 0 0,0 -0.4375,0.09375 1.42438,1.42438 0 0,0 -0.4375,-0.09375 h -1.21875 v -0.25 -1.6875 a 1.42438,1.42438 0 0,0 -1.4375,-1.4375 h -1.15625 -1.15625 a 1.42438,1.42438 0 0,0 -1.4375,1.5 l .0625,1.5625 v 0.0625 0.28125 c -0.04154,0.0053 -0.08006,-0.0072 -0.125,0 -0.06277,0.01 -0.199255,0.107189 -0.28125,0.125 -1.12944,-2.14552 -3.28326,-3.52645 -5.8125,-3.5625 -3.06532,-0.04372 -5.6983,1.8935 -6.625,4.90625 -0.0032,0.01038 0.0032,0.02086 0,0.03125 -1.03782,-1.04924 -2.42674,-1.74907 -4,-1.75 -0.965526,-0.000583 -1.82373,0.254851 -2.59375,0.625 a 1.42438,1.42438 0 0,0 -1,-0.40625 h -1.8125 -1.1875 v -1.0625 a 1.42438,1.42438 0 0,0 -1.4375,-1.46875 h -0.9375 c -0.468266,0 -0.797156,-0.189736 -1.59375,0.3125 -0.114557,0.07223 -0.125636,0.206652 -0.21875,0.3125 -1.10301,-0.621433 -2.31531,-0.993008 -3.53125,-0.9375 -1.85862,0.08488 -3.68209,0.936012 -4.875,2.5 -0.633992,0.8312 -0.903586,1.82249 -0.96875,2.8125 -0.06516,0.990013 0.06082,2.01538 0.53125,2.9375 0.495294,0.970864 1.28475,1.8196 2.3125,2.34375 1.02775,0.524146 2.21275,0.765201 3.8125,0.96875 0.443296,0.0564 0.935743,0.140661 1.3125,0.21875 0.376757,0.07809 0.727624,0.21039 0.5625,0.125 0.36055,0.186447 0.438968,0.395612 0.46875,0.53125 0.02978,0.135638 0.0399,0.292249 -0.1875,0.5625 -0.359745,0.427534 -0.96274,0.607861 -1.75,0.46875 -0.78726,-0.139111 -1.61862,-0.637479 -2.09375,-1.40625 -0.236573,-0.382762 -0.515629,-0.853419 -1.125,-1.15625 -0.609371,-0.302831 -1.08996,-0.28125 -1.59375,-0.28125 h -1.03125 a 1.42438,1.42438 0 0,0 -1.4375,1.4375 v 2.40625 c 0,0.703361 0.05041,1.37472 0.09375,1.9375 0.02167,0.281388 0.02823,0.554627 0.0625,0.78125 0.03427,0.226623 -0.009,0.328581 0.25,0.8125 0.517904,0.967672 1.2615,1.0622 1.90625,1.125 0.322374,0.0314 0.666705,0.04093 1.03125,-0.0625 0.364545,-0.103429 0.802404,-0.307493 1.125,-0.8125 0.220866,-0.345751 0.211719,-0.475206 0.25,-0.625 0.01102,-0.04311 0.02177,-0.08253 0.03125,-0.125 1.038,0.60941 2.14194,1.03125 3.40625,1.03125 1.448,0 2.70444,-0.511641 3.78125,-1.28125 -0.206367,0.505767 -0.1875,0.846078 -0.1875,1.21875 v 0.9375 a 1.42438,1.42438 0 0,0 1.4375,1.4375 h 2.53125 2.53125 a 1.42438,1.42438 0 0,0 1.40625,-1.53125 l -.0625,-.9062 c -0.02385,-0.329768 -0.121396,-0.728952 -0.3125,-1.15625 2.20226,0.412271 4.63632,-0.470039 5.9375,-2.53125 0.480469,-0.761112 0.730878,-1.59105 0.90625,-2.5 0.768809,0.80856 1.67806,1.47153 2.8125,1.84375 0.872783,0.286371 1.6635,0.22407 2.53125,0.125 0.867752,-0.09907 1.70647,-0.236158 2.46875,-0.625 1.59511,-0.813769 2.67942,-2.27447 3.28125,-3.9375 v 0.40625 c 0.04301,2.18843 0.05305,3.38203 0.34375,4.4375 0.2907,1.05547 1.2202,1.84822 1.96875,2.21875 0.873864,0.432566 1.78998,0.556048 2.65625,0.5625 0.433133,0.0032 0.842664,-0.02692 1.28125,-0.15625 0.06545,-0.0193 0.150318,-0.06833 0.21875,-0.09375 a 1.42438,1.42438 0 0,0 0.8125,0.25 h 2.40625 2.4375 a 1.42438,1.42438 0 0,0 0.5,-0.09375 1.42438,1.42438 0 0,0 0.5625,0.125 l 2.4688,-.0625 2.4688,-.0625 a 1.42438,1.42438 0 0,0 1.375,-1.34375 l .0625,-.9062 .0625,-.875 a 1.42438,1.42438 0 0,0 -1.40625,-1.53125 h -0.03125 v -2.46875 -2.40625 h 0.375 l 1.5,4 1.625,4.375 -.0938,.2188 c -0.01068,0.02183 0.0088,0.01369 0,0.03125 0.01012,-0.01544 0.06844,-0.05138 -0.28125,-0.03125 a 1.42438,1.42438 0 0,0 -0.03125,0.03125 l -1.125,.0938 a 1.42438,1.42438 0 0,0 -1.3125,1.40625 v 0.9375 0.96875 a 1.42438,1.42438 0 0,0 1.5,1.4375 l 1.7188,-.0938 c 0.686723,-0.03121 1.1703,-0.0809 1.65625,-0.1875 0.485949,-0.106598 1.01729,-0.392294 1.34375,-0.71875 0.294559,-0.294567 0.326787,-0.379839 0.40625,-0.53125 0.07946,-0.151411 0.136055,-0.311167 0.21875,-0.5 0.16539,-0.377666 0.370444,-0.877895 0.59375,-1.46875 0.446611,-1.18171 0.99458,-2.79472 1.625,-4.6875 0.933611,-2.80308 1.46386,-4.35695 1.78125,-5.125 0.158695,-0.384026 0.301627,-0.558371 0.28125,-0.53125 -0.02038,0.02712 -0.367776,0.250319 -0.5,0.28125 0.206947,-0.04841 0.494071,-0.325642 0.78125,-0.53125 0.286641,0.196131 0.62951,0.375 0.90625,0.375 0.187924,0 0.321129,-0.149003 0.5,-0.21875 0.04071,0.02425 0.04545,0.03951 0.09375,0.0625 0.268338,0.127693 0.709408,0.200015 1.0625,0.09375 0.02432,-0.0073 0.0082,-0.0234 0.03125,-0.03125 0.119406,0.03326 0.131989,0.09375 0.3125,0.09375 0.08381,0 0.107832,-0.07855 0.1875,-0.09375 0.317112,0.129407 0.598846,0.324618 0.96875,0.1875 0.585896,-0.217183 0.750665,-0.559245 0.84375,-0.75 0.18617,-0.381509 0.163016,-0.559376 0.1875,-0.78125 0.02448,-0.221874 0.0625,-0.45246 0.0625,-0.71875 0,-0.481023 -0.05609,-0.907323 -0.28125,-1.375 -0.112578,-0.233838 -0.275909,-0.486908 -0.625,-0.71875 -0.349091,-0.231842 -0.932371,-0.335726 -1.375,-0.1875 -0.04426,0.01482 -0.05274,0.04596 -0.09375,0.0625 -0.321833,-0.123418 -0.76878,-0.200019 -1.125,-0.0625 -0.02676,0.01033 -0.0372,0.0203 -0.0625,0.03125 -0.243571,-0.04419 -0.512936,-0.125 -0.71875,-0.125 -0.20863,0 -0.492726,0.107202 -0.75,0.15625 a 1.42438,1.42438 0 0,0 -0.03125,0 1.42438,1.42438 0 0,0 -0.5625,-0.15625 h -2.21875 -2.21875 a 1.42438,1.42438 0 0,0 -1.25,0.75 1.42438,1.42438 0 0,0 -1.25,-0.75 h -3.0625 -1.65625 c 0.0049,-0.02937 -0.00047,-0.0517 0,-0.0625 0.06717,-0.003 0.06707,0 0.15625,0 0.192961,0 0.35173,0.0099 0.625,-0.03125 0.27327,-0.04114 0.789198,-0.196761 1.125,-0.59375 0.335802,-0.396989 0.380682,-0.786807 0.40625,-1.03125 0.025568,-0.244443 0.03125,-0.440618 0.03125,-0.65625 v -0.84375 a 1.42438,1.42438 0 0,0 -1.46875,-1.4375 z  m -25.4688,6.0625 c 0.647193,0 0.909141,0.115754 1.09375,0.28125 0.184609,0.165496 0.386953,0.489116 0.53125,1.25 0.169007,0.891153 -0.229394,2.71168 -0.46875,3.0625 -0.02716,0.03981 -0.295131,0.306412 -0.59375,0.46875 -0.298619,0.162338 -0.648532,0.218666 -0.625,0.21875 0.331944,0.0011 -0.240499,-0.05619 -0.3125,-0.09375 -0.83149,-0.433724 -1.03125,-0.806193 -1.03125,-2.34375 0,-1.4212 0.237716,-2.08147 0.75,-2.59375 0.48416,-0.484167 -0.01488,-0.25 0.65625,-0.25 z  m -24.0625,.7188 c 0.928399,0 1.75006,0.446093 2.1875,1.1875 0.07107,0.120448 0.256718,0.244034 0.34375,0.375 -0.75579,-0.183044 -1.52058,-0.334051 -2.4375,-0.4375 -0.795248,-0.08972 -1.30387,-0.431881 -1.46875,-0.59375 0.305915,-0.450996 0.439215,-0.53125 1.375,-0.53125 z  m 54.5625,.9375 c 0.0053,0.219059 -0.07381,0.363348 0.125,0.75 0.106753,0.207613 0.346744,0.310054 0.5625,0.46875 -0.150857,0.499648 -0.330804,1.07442 -0.53125,1.71875 -0.259186,-0.685587 -0.502682,-1.33751 -0.71875,-1.96875 0.130069,-0.11162 0.289542,-0.104976 0.375,-0.25 0.168918,-0.286655 0.147321,-0.49115 0.1875,-0.71875 z  m -16.9375,1.3438 0,2.6875 0,2.75 c -0.07484,0.0255 -0.135626,0.115202 -0.21875,0.15625 -0.01313,-0.0091 -0.01785,-0.02264 -0.03125,-0.03125 -0.679655,-0.436851 -1.07385,-0.3125 -1.46875,-0.3125 -0.30576,0 -0.347921,-0.06667 -0.25,0.03125 -0.07019,-0.07019 0.105661,0.311905 0.0625,-0.0625 -0.04316,-0.374405 -0.0625,-1.25839 -0.0625,-2.84375 v -2.03125 h 1.0625 a 1.42438,1.42438 0 0,0 0.90625,-0.34375 z  m 5.2188,0 c 0.14915,0.05888 0.325692,0.197323 0.4375,0.21875 0.08375,0.01605 0.145571,0.02207 0.21875,0.03125 v 2.5625 2.625 c -0.09417,0.03138 -0.175084,0.131555 -0.28125,0.1875 -0.113738,-0.07965 -0.208511,-0.208257 -0.3125,-0.25 l -.0625,-3.5625 v -0.03125 -1.78125 z  m -36.6562,.0625 c 0.04685,0.0201 0.08155,0.07895 0.125,0.09375 v 1.28125 c -0.211916,-0.251326 -0.327078,-0.573335 -0.59375,-0.78125 -0.212804,-0.165916 -0.514051,-0.236071 -0.75,-0.375 l .75,-.0938 a 1.42438,1.42438 0 0,0 0.46875,-0.125 z  m 6.7812,.0625 c 0.382503,-0.03724 0.712172,0.113156 0.6875,0.09375 0.04839,0.03806 0.514114,0.80207 0.65625,1.75 0.142136,0.94793 0.04786,2.05303 -0.1875,2.625 -0.195087,0.474108 -0.485634,0.687553 -0.75,0.78125 -0.264366,0.0937 -0.526028,0.08826 -0.84375,-0.125 -0.702634,-0.471622 -0.90625,-0.909405 -0.90625,-2.5625 0,-1.51922 0.329207,-2.10231 0.84375,-2.40625 0.08059,-0.04761 0.32684,-0.139392 0.5,-0.15625 z " transform="translate(0,2)"/>
<path style="fill:#fff" id="rect2974" d="m 70.8165,61.9599 -1.8028,.0523 c -1.67243,0.06865 -1.8292,0.132838 -2.29926,0.679327 -0.443917,0.516081 -0.52256,0.785763 -0.52256,2.24701 v 1.67219 h -0.940608 -0.966735 l .0523,.8884 c 0.06429,0.888443 0.07826,0.902457 0.966735,0.966735 l .8884,.0523 v 3.89307 3.86694 h -0.627071 c -0.607508,0 -0.627073,0.02291 -0.627073,0.940607 v 0.966736 l 2.456,-.0523 2.4822,-.0783 .0523,-.8884 .0783,-.8884 h -0.757712 -0.731584 v -3.89307 -3.89307 l 1.4109,.0261 h 1.41091 l 1.8551,4.9382 1.829,4.9643 -.3658,.7577 c -0.350684,0.717203 -0.427362,0.776465 -1.46317,0.836096 l -1.1235,.0783 v 0.940608 0.966735 l 1.6983,-.0783 c 1.3376,-0.06079 1.75043,-0.156626 2.09024,-0.496432 0.258873,-0.25888 1.23,-2.85089 2.48216,-6.61038 1.8702,-5.61512 2.12114,-6.21407 2.58667,-6.32297 0.428742,-0.10029 0.520795,-0.253212 0.574816,-0.992864 l .0523,-.8884 h -2.22088 -2.22088 v 0.940608 c 0,0.868277 0.04021,0.940608 0.52256,0.940608 0.288846,0 0.548688,0.104537 0.548688,0.209024 0,0.156859 -1.65826,5.46455 -2.03798,6.532 -0.08623,0.242427 -1.72767,-3.90986 -2.50829,-6.3491 -0.07985,-0.249599 0.02399,-0.369571 0.365791,-0.418048 0.403467,-0.05719 0.494602,-0.21909 0.548689,-0.966735 l .0783,-.8884 h -3.05698 -3.05697 v -1.25414 c 0,-1.41915 0.228538,-1.67219 1.54155,-1.67219 0.73696,0 0.757712,-0.0143 0.757712,-0.862224 v -0.862223 z  m -25.2919,1.2541 c -2.53787,-0.0362 -4.42184,1.36497 -5.19947,3.89307 -1.08152,3.51602 0.459193,6.91052 3.60566,7.94291 0.875559,0.287282 2.98394,0.05903 3.9192,-0.418048 2.5449,-1.29831 3.73201,-5.01235 2.58667,-8.07355 -0.784792,-2.09754 -2.57696,-3.3111 -4.91206,-3.34438 z  m 7.6294,.0261 .0523,1.6461 .0261,1.6199 -.8622,.0783 c -0.850268,0.06296 -0.871028,0.07391 -0.757712,0.731584 0.192218,1.1156 0.270828,1.17576 0.91448,1.17576 h 0.627071 l .0523,3.8408 c 0.08564,4.3571 0.199636,4.75719 1.51542,5.4085 1.14304,0.56581 3.20948,0.595592 3.31826,0.05226 0.04047,-0.202185 0.04515,-0.622874 0,-0.940608 -0.07341,-0.517033 -0.157638,-0.574815 -0.888351,-0.574815 -0.536337,0 -0.978147,-0.142044 -1.25414,-0.418049 -0.386181,-0.386175 -0.418048,-0.70706 -0.418048,-3.89307 v -3.47502 h 1.25414 1.22801 l .0783,-.9406 .0783,-.9406 h -1.3064 -1.33253 v -1.67219 -1.69832 h -1.17576 -1.14963 z  m 7.1591,0 0,.9406 c 0,1.0376 0.108851,1.12544 1.41091,1.14963 l .9145,.0261 v -1.04512 -1.07125 h -1.17576 -1.14963 z  m -39.61,.5487 c -1.46658,0.06698 -2.90118,0.735798 -3.81469,1.93347 -0.786928,1.03171 -0.917944,2.97066 -0.287408,4.20661 0.803932,1.57585 1.95284,2.17072 5.01657,2.56054 0.954462,0.121443 2.01322,0.347615 2.35152,0.522559 1.34946,0.697831 1.67209,2.12215 0.731584,3.23987 -1.48099,1.76006 -4.75529,1.18554 -6.16621,-1.09737 -0.433482,-0.701351 -0.555986,-0.75767 -1.51542,-0.75767 h -1.01899 v 2.4299 c 0,1.33626 0.08943,2.59834 0.209024,2.82182 0.248675,0.464634 1.35263,0.575225 1.61994,0.156768 0.09226,-0.144427 0.202294,-0.770329 0.26128,-1.38478 l .1045,-1.1235 .8884,.7577 c 1.1913,1.02209 2.11883,1.38478 3.63179,1.38478 1.505,0 2.56712,-0.409537 3.52728,-1.33253 0.926955,-0.891069 1.3064,-1.82529 1.3064,-3.29213 0,-3.07036 -1.76603,-4.4443 -6.37523,-4.96432 -2.1212,-0.239324 -3.35113,-1.52447 -2.58667,-2.69118 0.59362,-0.905985 1.36228,-1.28027 2.66506,-1.28027 1.4126,0 2.69695,0.721459 3.39664,1.90734 0.396837,0.672581 0.512511,0.737344 1.3064,0.679327 l .8622,-.0783 .0523,-2.1425 .0523,-2.1425 h -0.940607 c -0.918452,0 -0.966737,0.01956 -0.966737,0.627072 0,0.346612 -0.04574,0.627071 -0.104511,0.627071 -0.05878,0 -0.477328,-0.265352 -0.940608,-0.600944 -0.968292,-0.701426 -2.12532,-1.01881 -3.266,-0.966735 z  m 24.6126,1.3587 c 1.74578,0 2.67265,0.828504 3.03085,2.71731 0.254792,1.34349 -0.0573,3.21652 -0.679328,4.12822 -0.460146,0.674444 -1.67053,1.33523 -2.4299,1.33253 -0.199852,-0.000636 -0.619973,-0.120156 -0.940608,-0.287408 -1.26353,-0.659087 -1.82896,-1.78225 -1.82896,-3.60566 0,-1.63108 0.374922,-2.75258 1.20189,-3.57953 0.584297,-0.584306 0.851598,-0.705456 1.64606,-0.705456 z  m -10.3727,1.2541 c -1.38569,-0.000836 -2.17823,0.278955 -2.84795,1.01899 -0.548145,0.605693 -0.757712,0.559758 -0.757712,-0.182896 v -0.627072 h -1.80283 -1.7767 v 0.940608 c 0,0.910291 0.0202,0.940607 0.627072,0.940607 h 0.627073 v 5.6959 5.66977 h -0.627073 c -0.606863,0 -0.627072,0.03035 -0.627072,0.940608 v 0.940608 h 2.53442 2.53442 l -.0784,-.8883 c -0.06045,-0.835736 -0.0894,-0.907907 -0.679329,-0.914479 h -0.627071 l -.0784,-1.6199 c -0.03378,-0.891545 -0.02429,-1.61993 0.02612,-1.61993 0.05042,0 0.414544,0.282089 0.78384,0.627071 1.82476,1.70458 4.97611,1.19737 6.37523,-1.01899 0.710439,-1.12541 0.965382,-2.20009 0.966737,-4.07597 0.0026,-3.61388 -1.73367,-5.82486 -4.5724,-5.82654 z  m 24.1161,.209 0,.8361 c 0,0.79358 0.03194,0.836095 0.627072,0.836095 h 0.627072 v 3.99758 3.99758 h -0.627072 c -0.606864,0 -0.627072,0.03035 -0.627072,0.940608 v 0.940607 h 2.40378 2.4299 v -0.91448 c 0,-0.859849 -0.04147,-0.957622 -0.574816,-1.01899 l -.5748,-.0523 -.0783,-4.7814 -.0523,-4.7814 h -1.7767 -1.7767 z  m 23.8549,0 c -0.57852,0 -0.702313,0.07549 -0.600945,0.339664 0.103551,0.269867 0.155873,0.279532 0.313537,0.05226 0.129904,-0.187244 0.1817,-0.03001 0.130639,0.496432 -0.05284,0.545276 -0.0059,0.783838 0.182896,0.783838 0.174753,0 0.285352,-0.279423 0.287408,-0.783838 0.0026,-0.585954 0.05753,-0.704688 0.209024,-0.470305 0.174026,0.269281 0.180145,0.261899 0.182896,-0.05226 0.0026,-0.280075 -0.150329,-0.365792 -0.705455,-0.365792 z  m 2.4299,0 c -0.122312,0.04097 -0.243938,0.215044 -0.339663,0.574816 l -.1568,.5748 -.209,-.5748 c -0.301137,-0.8626 -0.679328,-0.715622 -0.679328,0.26128 0,0.868277 0.288269,1.20587 0.313536,0.365792 l .0261,-.4703 .2352,.4703 c 0.125373,0.259959 0.294039,0.470303 0.39192,0.470303 0.09789,0 0.173774,-0.210344 0.182896,-0.470303 0.01563,-0.44568 0.06087,-0.392865 0.313536,0.418048 0.167989,0.539273 0.313536,0.235912 0.313536,-0.679328 0,-0.679043 -0.188063,-1.00888 -0.39192,-0.940608 z  m -51.2631,1.6983 c 0.641531,-0.06246 1.28902,0.06998 1.69832,0.391919 1.19438,0.939496 1.68383,4.13975 0.914479,6.00944 -0.665624,1.61763 -2.34774,2.20336 -3.68405,1.3064 -1.10477,-0.741542 -1.56768,-1.8525 -1.56768,-3.7363 0,-1.79449 0.525428,-3.01612 1.56768,-3.63179 0.304435,-0.179837 0.68633,-0.30219 1.07125,-0.339664 z "/>
<g style="stroke-linecap:round">
<path style="fill:#59962e;stroke:#59962e" id="path3767" d="m 43.4037,60.0319 c 3.88393,-0.669643 6.60714,0.848215 6.60714,0.848215"/>
<path style="fill:#4b8123;stroke:#4b8123;stroke-width:1.4" id="path37" d="m 42.9126,57.7673 c 4.73214,-1.02679 8.125,1.07143 8.125,1.07143"/>
<path style="fill:#3c721e;stroke:#3b6f1d;stroke-width:1.8" id="path39" d="m 42.574,54.9962 c 5.26786,-1.29464 9.55357,1.02679 9.55357,1.02679"/>
</g>
<path style="fill:#4b8123;stroke:none" id="path3891" d="m 47.2999,14.4791 c -1.30599,0.03816 -2.61741,0.180887 -3.93758,0.492197 a 1.49252,1.49252 0 0,0 0.683609,2.8985 c 8.99806,-2.12184 18.0036,3.41627 20.1254,12.4143 0.570447,2.41908 0.579752,4.98098 0.05469,7.41031 a 1.48619,1.48619 0 1,0 2.8985,0.57423 c 0.61846,-2.86141 0.617209,-5.79147 -0.05469,-8.6408 -2.17918,-9.24123 -10.628,-15.4159 -19.7699,-15.1488 z  m .4375,6.3986 c -0.65948,0.0058 -1.32027,0.05169 -1.99614,0.164066 a 1.49477,1.49477 0 1,0 0.464854,2.95319 c 5.62479,-0.935339 10.9047,2.82461 11.8401,8.44939 0.166982,1.00418 0.188049,2.02602 0.05469,3.03522 a 1.49077,1.49077 0 1,0 2.95318,0.410164 c 0.171877,-1.3006 0.160509,-2.64344 -0.05469,-3.93758 -1.04897,-6.3081 -6.44804,-10.8414 -12.6057,-11.0744 -0.219916,-0.0083 -0.436439,-0.0019 -0.656264,0 z  m -8.6955,3.7462 a 1.48619,1.48619 0 0,0 -0.875019,0.492198 c -4.75665,5.1405 -4.68315,13.1561 0.164067,18.2113 5.05807,5.27508 13.4558,5.44089 18.7309,0.382819 a 1.49067,1.49067 0 0,0 -2.02348,-2.1602 c -4.11571,3.94639 -10.6281,3.81492 -14.5745,-0.300787 -3.77903,-3.94118 -3.8178,-10.102 -0.109372,-14.1097 a 1.48619,1.48619 0 0,0 -1.14846,-2.51568 1.48619,1.48619 0 0,0 -0.164065,0 z  m 8.8596,5.086 c -2.43533,0 -4.40243,1.99445 -4.40243,4.42978 0,2.43533 1.9671,4.40243 4.40243,4.40243 2.43533,0 4.40243,-1.96711 4.40243,-4.40243 0,-2.43533 -1.9671,-4.42978 -4.40243,-4.42978 z "/>
</g>
</svg>
