<svg width="96" version="1.0" xmlns="http://www.w3.org/2000/svg" height="96" xmlns:xlink="http://www.w3.org/1999/xlink">
<defs id="defs2410">
<clipPath id="clipPath3613">
<rect width="84" x="6" y="6" rx="6" height="84" ry="6" style="fill:#fff;stroke:none" id="rect3615"/>
</clipPath>
<filter width="1.3839999" x="-0.192" y="-0.192" height="1.3839999" style="color-interpolation-filters:sRGB" id="filter3794">
<feGaussianBlur stdDeviation="5.28" id="feGaussianBlur3796"/>
</filter>
<filter style="color-interpolation-filters:sRGB" id="filter3174">
<feGaussianBlur stdDeviation="1.71" id="feGaussianBlur3176"/>
</filter>
<linearGradient gradientTransform="matrix(1.523368,0,0,1.523368,11.439168,10.946779)" id="linearGradient4338" xlink:href="#linearGradient2928" y1="34.004391" x1="17.80616" y2="34.578915" x2="25.709398" gradientUnits="userSpaceOnUse"/>
<linearGradient gradientTransform="matrix(1.523368,0,0,1.523368,11.439168,10.946779)" id="linearGradient4341" xlink:href="#linearGradient2888" y1="42.07798" x1="19.445436" y2="34.034641" x2="29.433319" gradientUnits="userSpaceOnUse"/>
<linearGradient gradientTransform="matrix(1.5211591,-0.07736135,-0.08200762,-1.4349746,11.924619,38.648373)" id="linearGradient4353" xlink:href="#linearGradient2415" y1="6.0466475" x1="23.906006" y2="21.63644" x2="24.746471" gradientUnits="userSpaceOnUse"/>
<linearGradient gradientTransform="matrix(1.523368,0,0,1.523368,11.439168,10.946779)" id="linearGradient4336" xlink:href="#linearGradient2806" y1="32.236626" x1="22.667521" y2="31.44113" x2="27.388777" gradientUnits="userSpaceOnUse"/>
<linearGradient gradientTransform="matrix(-1.5160299,-0.0190116,-0.0890815,1.3278788,85.606228,11.221376)" id="linearGradient4350" xlink:href="#linearGradient2415" y1="14.820889" x1="12.254768" y2="8.1485271" x2="20.264099" gradientUnits="userSpaceOnUse"/>
<linearGradient gradientTransform="matrix(1.5044066,-0.23960751,0.23960751,1.5044066,-1.4759217,17.554518)" id="linearGradient4344" xlink:href="#linearGradient2950" y1="39.6875" x1="9.375" y2="35" x2="13.3125" gradientUnits="userSpaceOnUse"/>
<linearGradient gradientTransform="matrix(1.5160299,-0.0190116,0.0890815,1.3278788,10.124487,11.276744)" id="linearGradient4347" xlink:href="#linearGradient2415" y1="12.908146" x1="12.900058" y2="9.7130737" x2="18.573477" gradientUnits="userSpaceOnUse"/>
<linearGradient gradientTransform="matrix(1.523368,0,0,1.523368,11.439168,10.946779)" id="linearGradient4333" xlink:href="#linearGradient2928" y1="29.933746" x1="18.68116" y2="29.933746" x2="29.906544" gradientUnits="userSpaceOnUse"/>
<linearGradient gradientTransform="matrix(1.523368,0,0,1.523368,11.439168,10.946779)" id="linearGradient4316" xlink:href="#linearGradient2898" y1="2.1974521" x1="6.5407376" y2="2.1974521" x2="32.084969" gradientUnits="userSpaceOnUse"/>
<linearGradient gradientTransform="matrix(1.523368,0,0,1.523368,11.439168,10.946779)" id="linearGradient4319" xlink:href="#linearGradient2908" y1="23.825788" x1="11.357903" y2="17.771187" x2="9.3691654" gradientUnits="userSpaceOnUse"/>
<linearGradient gradientTransform="matrix(1.523368,0,0,1.523368,9.9157998,10.946779)" id="linearGradient4356" xlink:href="#linearGradient2432" y1="18" x1="36.819733" y2="11.375" x2="36.819733" gradientUnits="userSpaceOnUse"/>
<linearGradient gradientTransform="matrix(1.523368,0,0,1.523368,11.439168,10.946779)" id="linearGradient4322" xlink:href="#linearGradient2898" y1="17.550215" x1="4.7729707" y2="8.0926609" x2="7.8665633" gradientUnits="userSpaceOnUse"/>
<linearGradient gradientTransform="matrix(1.523368,0,0,1.523368,11.439168,10.946779)" id="linearGradient4328" xlink:href="#linearGradient2950" y1="27.071722" x1="19.625" y2="27.071722" x2="28.5" gradientUnits="userSpaceOnUse"/>
<linearGradient gradientTransform="matrix(1.523368,0,0,1.523368,11.439168,10.946779)" id="linearGradient4331" xlink:href="#linearGradient2806" y1="32.055065" x1="23.277353" y2="31.966679" x2="29.111048" gradientUnits="userSpaceOnUse"/>
<linearGradient gradientTransform="matrix(1.523368,0,0,1.523368,11.439168,10.946779)" id="linearGradient4325" xlink:href="#linearGradient2950" y1="31.338797" x1="18.826717" y2="31.250408" x2="23.334524" gradientUnits="userSpaceOnUse"/>
<linearGradient gradientTransform="matrix(1.5044066,-0.23960751,0.23960751,1.5044066,-1.4759217,17.554518)" id="linearGradient4364" xlink:href="#linearGradient2970" y1="31.905155" x1="32.877865" y2="36.030155" x2="39.863144" gradientUnits="userSpaceOnUse"/>
<linearGradient gradientTransform="matrix(1.5044066,-0.23960751,0.23960751,1.5044066,-1.4759217,17.554518)" id="linearGradient4392" xlink:href="#linearGradient2928" y1="37.761219" x1="7.2249999" y2="37.761219" x2="42.108513" gradientUnits="userSpaceOnUse"/>
<linearGradient gradientTransform="matrix(1.0058652,0,0,0.994169,100,0)" id="ButtonShadow-0" y1="92.539597" x1="45.447727" y2="7.0165396" x2="45.447727" gradientUnits="userSpaceOnUse">
<stop offset="0" id="stop3750-8"/>
<stop offset="1" style="stop-opacity:.588" id="stop3752-5"/>
</linearGradient>
<linearGradient id="linearGradient4243" xlink:href="#linearGradient2531" y1="31.764088" x1="19.348167" y2="33" x2="29.712492" gradientUnits="userSpaceOnUse"/>
<linearGradient gradientTransform="matrix(1.0238095,0,0,1.0119048,-1.1428571,-98.071429)" id="linearGradient3780" xlink:href="#ButtonShadow-0" y1="6.1317081" x1="32.251034" y2="90.238609" x2="32.251034" gradientUnits="userSpaceOnUse"/>
<linearGradient gradientTransform="matrix(1.0238095,0,0,1.0119048,-1.1428571,-98.071429)" id="linearGradient3725" xlink:href="#ButtonShadow-0" y1="6.1317081" x1="32.251034" y2="90.238609" x2="32.251034" gradientUnits="userSpaceOnUse"/>
<linearGradient gradientTransform="translate(0,-97)" id="linearGradient3721" xlink:href="#ButtonShadow-0" y1="6.1317081" x1="32.251034" y2="90.238609" x2="32.251034" gradientUnits="userSpaceOnUse"/>
<linearGradient gradientTransform="matrix(1.0238095,0,0,1.0119048,-1.1428571,-98.071429)" id="linearGradient3772" xlink:href="#ButtonShadow-0" y1="6.1317081" x1="32.251034" y2="90.238609" x2="32.251034" gradientUnits="userSpaceOnUse"/>
<linearGradient gradientTransform="matrix(1.5044066,-0.23960751,0.23960751,1.5044066,-1.4759217,17.554518)" id="linearGradient4390" xlink:href="#linearGradient2806" y1="37.761219" x1="7.2249999" y2="37.761219" x2="42.108513" gradientUnits="userSpaceOnUse"/>
<linearGradient gradientTransform="matrix(1.5044066,-0.23960751,0.23960751,1.5044066,-1.4759217,17.554518)" id="linearGradient4367" xlink:href="#linearGradient2998" y1="37.699108" x1="36.125" y2="41.324108" x2="35.65625" gradientUnits="userSpaceOnUse"/>
<linearGradient gradientTransform="matrix(1.523368,0,0,1.523368,9.9157998,10.946779)" id="linearGradient4370" xlink:href="#linearGradient2404" y1="7.2467284" x1="18.995815" y2="23.841942" x2="20.007339" gradientUnits="userSpaceOnUse"/>
<linearGradient gradientTransform="matrix(1.5044066,-0.23960751,0.23960751,1.5044066,2.8328134,16.881277)" id="linearGradient4387" xlink:href="#linearGradient2998" y1="38.40625" x1="20.375" y2="37.71875" x2="11.5625" gradientUnits="userSpaceOnUse"/>
<linearGradient gradientTransform="matrix(1.523368,0,0,1.523368,9.9157998,10.946779)" id="linearGradient4376" xlink:href="#linearGradient2396" y1="23.841942" x1="31.116503" y2="-1.7747182" x2="26.548079" gradientUnits="userSpaceOnUse"/>
<linearGradient gradientTransform="matrix(1.5044066,-0.23960751,0.23960751,1.5044066,-1.4759217,17.554518)" id="linearGradient4382" xlink:href="#linearGradient2806" y1="35.893593" x1="25.4125" y2="35.893593" x2="41.900002" gradientUnits="userSpaceOnUse"/>
<linearGradient gradientTransform="matrix(1.5044066,-0.23960751,0.23960751,1.5044066,-1.4759217,17.554518)" id="linearGradient4384" xlink:href="#linearGradient2928" y1="32.262184" x1="30.0375" y2="39.525002" x2="41.212502" gradientUnits="userSpaceOnUse"/>
<linearGradient gradientTransform="matrix(1.523368,0,0,1.523368,9.9157998,10.946779)" id="linearGradient4379" xlink:href="#linearGradient2440" y1="-1.3035535" x1="22.674999" y2="23.544195" x2="27.513184" gradientUnits="userSpaceOnUse"/>
<linearGradient gradientTransform="matrix(1.0238095,0,0,1.0119048,-1.1428571,-98.071429)" id="linearGradient3071" xlink:href="#ButtonShadow-0" y1="6.1317081" x1="32.251034" y2="90.238609" x2="32.251034" gradientUnits="userSpaceOnUse"/>
<linearGradient id="linearGradient2531">
<stop offset="0" style="stop-color:#f1d09e" id="stop2533"/>
<stop offset="1" style="stop-color:#8f5902" id="stop2535"/>
</linearGradient>
<linearGradient id="linearGradient2396">
<stop offset="0" style="stop-color:#e1e2df" id="stop2398"/>
<stop offset="1" style="stop-color:#888a85" id="stop2400"/>
</linearGradient>
<linearGradient id="linearGradient2998">
<stop offset="0" style="stop-color:#310000" id="stop3000"/>
<stop offset="1" style="stop-color:#310000;stop-opacity:0" id="stop3002"/>
</linearGradient>
<linearGradient id="linearGradient2440">
<stop offset="0" style="stop-color:#60625e" id="stop2442"/>
<stop offset="1" style="stop-color:#1d2122" id="stop2444"/>
</linearGradient>
<linearGradient id="linearGradient2416">
<stop offset="0" style="stop-color:#30312f" id="stop2418"/>
<stop offset="1" style="stop-color:#555753;stop-opacity:0" id="stop2420"/>
</linearGradient>
<linearGradient id="linearGradient2404">
<stop offset="0" style="stop-color:#d3d7cf" id="stop2406"/>
<stop offset="1" style="stop-color:#555856" id="stop2408"/>
</linearGradient>
<linearGradient id="linearGradient2551">
<stop offset="0" style="stop-color:#5f3a00" id="stop2553"/>
<stop offset="1" style="stop-color:#5f3a00;stop-opacity:0" id="stop2555"/>
</linearGradient>
<linearGradient id="linearGradient2970">
<stop offset="0" style="stop-color:#fcaf3e" id="stop2972"/>
<stop offset="1" style="stop-color:#fcaf3e;stop-opacity:0" id="stop2974"/>
</linearGradient>
<linearGradient id="linearGradient2521">
<stop offset="0" style="stop-color:#7f4e01" id="stop2523"/>
<stop offset="1" style="stop-color:#402700" id="stop2525"/>
</linearGradient>
<linearGradient id="linearGradient2928">
<stop offset="0" style="stop-color:#a40000" id="stop2930"/>
<stop offset="1" style="stop-color:#300000" id="stop2932"/>
</linearGradient>
<linearGradient id="linearGradient2806">
<stop offset="0" style="stop-color:#ef2929" id="stop2808"/>
<stop offset="1" style="stop-color:#c00" id="stop2810"/>
</linearGradient>
<linearGradient id="linearGradient3737">
<stop offset="0" style="stop-color:#fff" id="stop3739"/>
<stop offset="1" style="stop-color:#fff;stop-opacity:0" id="stop3741"/>
</linearGradient>
<linearGradient id="linearGradient3614">
<stop offset="0" style="stop-color:#c83737" id="stop3616"/>
<stop offset="1" style="stop-color:#de8787" id="stop3618"/>
</linearGradient>
<linearGradient gradientTransform="scale(1.0058652,0.994169)" id="ButtonShadow" y1="92.539597" x1="45.447727" y2="7.0165396" x2="45.447727" gradientUnits="userSpaceOnUse">
<stop offset="0" id="stop3750"/>
<stop offset="1" style="stop-opacity:.588" id="stop3752"/>
</linearGradient>
<linearGradient id="linearGradient3188" xlink:href="#linearGradient3737" y1="6" x1="36.357143" y2="63.893143" x2="36.357143" gradientUnits="userSpaceOnUse"/>
<linearGradient id="linearGradient3613" xlink:href="#linearGradient3737" y1="20.220806" x1="48" y2="138.66119" x2="48" gradientUnits="userSpaceOnUse"/>
<linearGradient id="linearGradient4478" xlink:href="#linearGradient3737-2" y1="6" x1="48" y2="109.10714" x2="48" gradientUnits="userSpaceOnUse"/>
<linearGradient id="linearGradient3617" xlink:href="#linearGradient3614" y1="90" x1="48" y2="5.9877172" x2="48" gradientUnits="userSpaceOnUse"/>
<linearGradient id="linearGradient3737-2">
<stop offset="0" style="stop-color:#fff" id="stop3739-1"/>
<stop offset="1" style="stop-color:#fff;stop-opacity:0" id="stop3741-7"/>
</linearGradient>
<linearGradient id="linearGradient2505">
<stop offset="0" style="stop-color:#e9b96e" id="stop2507"/>
<stop offset="1" style="stop-color:#774a01" id="stop2509"/>
</linearGradient>
<linearGradient id="linearGradient4750">
<stop offset="0" style="stop-color:#fff" id="stop4752"/>
<stop offset="0.37931034" style="stop-color:#fefefe" id="stop4758"/>
<stop offset="1" style="stop-color:#1d1d1d" id="stop4754"/>
</linearGradient>
<linearGradient id="linearGradient2908">
<stop offset="0" style="stop-color:#252829" id="stop2910"/>
<stop offset="1" style="stop-color:#252829;stop-opacity:0" id="stop2912"/>
</linearGradient>
<linearGradient gradientTransform="matrix(0.901767,0,0,1,1.455816,0)" id="linearGradient4237" xlink:href="#linearGradient2521" y1="17.6" x1="32.400002" y2="42.369164" x2="32.400002" gradientUnits="userSpaceOnUse"/>
<linearGradient id="linearGradient4241" xlink:href="#linearGradient2551" y1="40" x1="24" y2="48.449749" x2="24.922859" gradientUnits="userSpaceOnUse"/>
<linearGradient gradientTransform="matrix(0.901767,0,0,1,1.455816,0)" id="linearGradient4239" xlink:href="#linearGradient2505" y1="48.400002" x1="17.6" y2="48.400002" x2="32.400002" gradientUnits="userSpaceOnUse"/>
<linearGradient id="linearGradient2432">
<stop offset="0" style="stop-color:#eeeeec" id="stop2434"/>
<stop offset="1" style="stop-color:#eeeeec;stop-opacity:0" id="stop2436"/>
</linearGradient>
<linearGradient id="linearGradient2415">
<stop offset="0" style="stop-color:#eeeeec" id="stop2417"/>
<stop offset="1" style="stop-color:#eeeeec;stop-opacity:0" id="stop2419"/>
</linearGradient>
<linearGradient id="linearGradient2898">
<stop offset="0" style="stop-color:#f5f5f4" id="stop2900"/>
<stop offset="1" style="stop-color:#f5f5f4;stop-opacity:0" id="stop2902"/>
</linearGradient>
<linearGradient id="linearGradient2950">
<stop offset="0" style="stop-color:#fcaf3e" id="stop2952"/>
<stop offset="1" style="stop-color:#f57900;stop-opacity:0" id="stop2954"/>
</linearGradient>
<linearGradient id="linearGradient2888">
<stop offset="0" style="stop-color:#ffd79a" id="stop2890"/>
<stop offset="1" style="stop-color:#eeb660;stop-opacity:0" id="stop2892"/>
</linearGradient>
<radialGradient fx="18.934305" fy="17.810213" cx="18.63378" cy="17.486208" gradientTransform="scale(1.036822,0.964486)" r="40.692665" id="radialGradient4283" xlink:href="#linearGradient4750" gradientUnits="userSpaceOnUse"/>
<radialGradient fx="18.934305" fy="17.810213" cx="18.63378" cy="17.486208" gradientTransform="scale(1.036822,0.964486)" r="40.692665" id="radialGradient4281" xlink:href="#linearGradient4750" gradientUnits="userSpaceOnUse"/>
<radialGradient fx="18.934305" fy="17.810213" cx="18.63378" cy="17.486208" gradientTransform="scale(1.036822,0.964486)" r="40.692665" id="radialGradient4279" xlink:href="#linearGradient4750" gradientUnits="userSpaceOnUse"/>
<radialGradient fx="18.934305" fy="17.810213" cx="18.63378" cy="17.486208" gradientTransform="scale(1.036822,0.964486)" r="40.692665" id="radialGradient4277" xlink:href="#linearGradient4750" gradientUnits="userSpaceOnUse"/>
<radialGradient fx="25" fy="-14.44571" cx="25" cy="-14.44571" gradientTransform="matrix(-3.4086029,0,0,-1.5387479,133.21507,8.7506037)" r="20" id="radialGradient4373" xlink:href="#linearGradient2416" gradientUnits="userSpaceOnUse"/>
<radialGradient fx="48" fy="90.171875" cx="48" cy="90.171875" gradientTransform="matrix(1.1573129,0,0,0.99590774,-7.5510206,0.19713193)" r="42" id="radialGradient3619" xlink:href="#linearGradient3737" gradientUnits="userSpaceOnUse"/>
<radialGradient fx="18.934305" fy="17.810213" cx="18.63378" cy="17.486208" gradientTransform="scale(1.036822,0.964486)" r="40.692665" id="radialGradient4275" xlink:href="#linearGradient4750" gradientUnits="userSpaceOnUse"/>
<radialGradient fx="18.934305" fy="17.810213" cx="18.63378" cy="17.486208" gradientTransform="scale(1.036822,0.964486)" r="40.692665" id="radialGradient4285" xlink:href="#linearGradient4750" gradientUnits="userSpaceOnUse"/>
<radialGradient fx="18.934305" fy="17.810213" cx="18.63378" cy="17.486208" gradientTransform="scale(1.036822,0.964486)" r="40.692665" id="radialGradient4293" xlink:href="#linearGradient4750" gradientUnits="userSpaceOnUse"/>
<radialGradient fx="18.934305" fy="17.810213" cx="18.63378" cy="17.486208" gradientTransform="scale(1.036822,0.964486)" r="40.692665" id="radialGradient4289" xlink:href="#linearGradient4750" gradientUnits="userSpaceOnUse"/>
<radialGradient fx="18.934305" fy="17.810213" cx="18.63378" cy="17.486208" gradientTransform="scale(1.036822,0.964486)" r="40.692665" id="radialGradient4287" xlink:href="#linearGradient4750" gradientUnits="userSpaceOnUse"/>
<radialGradient fx="18.934305" fy="17.810213" cx="18.63378" cy="17.486208" gradientTransform="scale(1.036822,0.964486)" r="40.692665" id="radialGradient4291" xlink:href="#linearGradient4750" gradientUnits="userSpaceOnUse"/>
</defs>
<g style="display:none" id="layer2">
<rect width="86" x="5" y="7" rx="6" height="85" ry="6" style="opacity:.9;fill:url(#ButtonShadow);filter:url(#filter3174);stroke:none" id="rect3745"/>
</g>
<g style="stroke:none" id="layer4">
<path style="opacity:.08;fill:url(#linearGradient3071)" id="path3786" d="m 12,-95.0312 c -5.51109,0 -10.0312,4.52016 -10.0312,10.0312 v 71 c 0,5.51109 4.52016,10.0312 10.0312,10.0312 h 72 c 5.51109,0 10.0312,-4.52016 10.0312,-10.0312 v -71 c 0,-5.51109 -4.52016,-10.0312 -10.0312,-10.0312 h -72 z " transform="scale(1,-1)"/>
<path style="opacity:.1;fill:url(#linearGradient3780)" id="path3778" d="m 12,-94.0312 c -4.97163,0 -9.03125,4.05962 -9.03125,9.03125 v 71 c 0,4.97163 4.05962,9.03125 9.03125,9.03125 h 72 c 4.97163,0 9.03125,-4.05962 9.03125,-9.03125 v -71 c 0,-4.97163 -4.05962,-9.03125 -9.03125,-9.03125 h -72 z " transform="scale(1,-1)"/>
<path style="opacity:.2;fill:url(#linearGradient3772)" id="path3770" d="m 12,-93 c -4.40913,0 -8,3.59087 -8,8 v 71 c 0,4.40913 3.59087,8 8,8 h 72 c 4.40913,0 8,-3.59087 8,-8 v -71 c 0,-4.40913 -3.59087,-8 -8,-8 h -72 z " transform="scale(1,-1)"/>
<rect width="86" x="5" y="-92" rx="7" height="85" ry="7" style="opacity:.3;fill:url(#linearGradient3725)" id="rect3723" transform="scale(1,-1)"/>
<rect width="84" x="6" y="-91" rx="6" height="84" ry="6" style="opacity:.45;fill:url(#linearGradient3721)" id="rect3716" transform="scale(1,-1)"/>
</g>
<g style="stroke:none" id="layer1">
<rect width="84" x="6" y="6" rx="6" height="84" ry="6" style="fill:url(#linearGradient3617)" id="rect2419"/>
<path style="opacity:.5;fill:url(#linearGradient3188)" id="rect3728" d="m 12,6 c -3.324,0 -6,2.676 -6,6 v 2 68 2 c 0,0.334721 0.04135,0.6507 0.09375,0.96875 0.0487,0.295596 0.09704,0.596915 0.1875,0.875 0.00988,0.03038 0.020892,0.0636 0.03125,0.09375 0.098865,0.287771 0.23488,0.547452 0.375,0.8125 0.144592,0.273507 0.315616,0.535615 0.5,0.78125 0.184384,0.245635 0.373776,0.473472 0.59375,0.6875 0.439947,0.428056 0.94291,0.814526 1.5,1.09375 0.278545,0.139612 0.573473,0.246947 0.875,0.34375 -0.256202,-0.100222 -0.486711,-0.236272 -0.71875,-0.375 -0.00741,-0.0044 -0.023866,0.0045 -0.03125,0 -0.031933,-0.0193 -0.062293,-0.04251 -0.09375,-0.0625 -0.120395,-0.0767 -0.231023,-0.163513 -0.34375,-0.25 -0.106173,-0.0808 -0.213281,-0.161112 -0.3125,-0.25 -0.17793,-0.161433 -0.34746,-0.345388 -0.5,-0.53125 -0.107579,-0.130255 -0.218394,-0.265285 -0.3125,-0.40625 -0.025089,-0.03838 -0.038446,-0.08587 -0.0625,-0.125 -0.064763,-0.103032 -0.130228,-0.204517 -0.1875,-0.3125 -0.101008,-0.194706 -0.205675,-0.415701 -0.28125,-0.625 -0.00796,-0.02181 -0.023589,-0.04055 -0.03125,-0.0625 -0.0318251,-0.09195 -0.0358045,-0.186831 -0.0625,-0.28125 -0.0303323,-0.106618 -0.0703894,-0.203031 -0.09375,-0.3125 -0.0728786,-0.341512 -0.125,-0.698205 -0.125,-1.0625 v -2 -68 -2 c 0,-2.78185 2.21815,-5 5,-5 h 2 68 2 c 2.78185,0 5,2.21815 5,5 v 2 68 2 c 0,0.364295 -0.05212,0.720988 -0.125,1.0625 -0.04415,0.206893 -0.08838,0.397658 -0.15625,0.59375 -0.0077,0.02195 -0.0233,0.04069 -0.03125,0.0625 -0.06274,0.173739 -0.138383,0.367449 -0.21875,0.53125 -0.04158,0.0828 -0.07904,0.169954 -0.125,0.25 -0.0546,0.09721 -0.126774,0.18835 -0.1875,0.28125 -0.09411,0.140965 -0.204921,0.275995 -0.3125,0.40625 -0.143174,0.17445 -0.303141,0.346998 -0.46875,0.5 -0.01117,0.0102 -0.01998,0.02115 -0.03125,0.03125 -0.138386,0.125556 -0.285091,0.234436 -0.4375,0.34375 -0.102571,0.07315 -0.204318,0.153364 -0.3125,0.21875 -0.0074,0.0045 -0.02384,-0.0044 -0.03125,0 -0.232039,0.138728 -0.462548,0.274778 -0.71875,0.375 0.301527,-0.0968 0.596455,-0.204138 0.875,-0.34375 0.55709,-0.279224 1.06005,-0.665694 1.5,-1.09375 0.219973,-0.214028 0.409366,-0.441865 0.59375,-0.6875 0.184384,-0.245635 0.355408,-0.507743 0.5,-0.78125 0.14012,-0.265048 0.276135,-0.524729 0.375,-0.8125 0.01041,-0.03078 0.02133,-0.06274 0.03125,-0.09375 0.09046,-0.278085 0.1388,-0.579404 0.1875,-0.875 0.0524,-0.31805 0.09375,-0.634029 0.09375,-0.96875 v -2 -68 -2 c 0,-3.324 -2.676,-6 -6,-6 h -72 z "/>
<path style="opacity:.2;fill:url(#radialGradient3619)" id="path3615" d="M 12,90 C 8.676,90 6,87.324 6,84 L 6,82 6,14 6,12 c 0,-0.334721 0.04135,-0.6507 0.09375,-0.96875 0.0487,-0.295596 0.09704,-0.596915 0.1875,-0.875 C 6.29113,10.12587 6.302142,10.09265 6.3125,10.0625 6.411365,9.774729 6.5473802,9.515048 6.6875,9.25 6.8320918,8.976493 7.0031161,8.714385 7.1875,8.46875 7.3718839,8.223115 7.5612765,7.995278 7.78125,7.78125 8.221197,7.353194 8.72416,6.966724 9.28125,6.6875 9.559795,6.547888 9.8547231,6.440553 10.15625,6.34375 9.9000482,6.443972 9.6695391,6.580022 9.4375,6.71875 c -0.00741,0.0044 -0.023866,-0.0045 -0.03125,0 -0.031933,0.0193 -0.062293,0.04251 -0.09375,0.0625 -0.120395,0.0767 -0.2310226,0.163513 -0.34375,0.25 -0.1061728,0.0808 -0.2132809,0.161112 -0.3125,0.25 C 8.4783201,7.442683 8.3087904,7.626638 8.15625,7.8125 8.0486711,7.942755 7.9378561,8.077785 7.84375,8.21875 7.818661,8.25713 7.805304,8.30462 7.78125,8.34375 7.716487,8.446782 7.6510225,8.548267 7.59375,8.65625 7.4927417,8.850956 7.3880752,9.071951 7.3125,9.28125 7.30454,9.30306 7.288911,9.3218 7.28125,9.34375 7.2494249,9.4357 7.2454455,9.530581 7.21875,9.625 7.1884177,9.731618 7.1483606,9.828031 7.125,9.9375 7.0521214,10.279012 7,10.635705 7,11 l 0,2 0,68 0,2 c 0,2.781848 2.2181517,5 5,5 l 2,0 68,0 2,0 c 2.781848,0 5,-2.218152 5,-5 l 0,-2 0,-68 0,-2 C 89,10.635705 88.94788,10.279012 88.875,9.9375 88.83085,9.730607 88.78662,9.539842 88.71875,9.34375 88.71105,9.3218 88.69545,9.30306 88.6875,9.28125 88.62476,9.107511 88.549117,8.913801 88.46875,8.75 88.42717,8.6672 88.38971,8.580046 88.34375,8.5 88.28915,8.40279 88.216976,8.31165 88.15625,8.21875 88.06214,8.077785 87.951329,7.942755 87.84375,7.8125 87.700576,7.63805 87.540609,7.465502 87.375,7.3125 87.36383,7.3023 87.35502,7.29135 87.34375,7.28125 87.205364,7.155694 87.058659,7.046814 86.90625,6.9375 86.803679,6.86435 86.701932,6.784136 86.59375,6.71875 c -0.0074,-0.0045 -0.02384,0.0044 -0.03125,0 -0.232039,-0.138728 -0.462548,-0.274778 -0.71875,-0.375 0.301527,0.0968 0.596455,0.204138 0.875,0.34375 0.55709,0.279224 1.060053,0.665694 1.5,1.09375 0.219973,0.214028 0.409366,0.441865 0.59375,0.6875 0.184384,0.245635 0.355408,0.507743 0.5,0.78125 0.14012,0.265048 0.276135,0.524729 0.375,0.8125 0.01041,0.03078 0.02133,0.06274 0.03125,0.09375 0.09046,0.278085 0.1388,0.579404 0.1875,0.875 C 89.95865,11.3493 90,11.665279 90,12 l 0,2 0,68 0,2 c 0,3.324 -2.676,6 -6,6 l -72,0 z"/>
<path style="opacity:.45;fill:url(#linearGradient4478)" id="path4141" d="M 20.875,6 46.65625,46.65625 6,20.5 6,39 46.21875,48 6,56.75 6,75.125 46.65625,49.34375 20.5,90 39,90 48,49.78125 56.75,90 75.125,90 49.34375,49.34375 90,75.5 90,57 49.78125,48 90,39.25 90,20.875 49.34375,46.65625 75.5,6 57,6 48,46.21875 39.25,6 20.875,6 z"/>
</g>
<g id="layer5">
<rect width="66" x="15" y="15" rx="12" height="66" ry="12" style="opacity:.1;fill:url(#linearGradient3613);filter:url(#filter3794);stroke:#fff;stroke-linecap:round;stroke-width:.5;clip-path:url(#clipPath3613)" id="rect3171"/>
</g>
<g id="layer3">
<g style="stroke:none;color:#000;line-height:normal;stroke-width:2.4;text-align:start;text-transform:none;font-family:Abandoned Bitplane;text-indent:0">
<path style="opacity:.05" id="path3903" d="m 46.4688,10.2812 c -8.56013,0.0675 -17.1745,0.114363 -25.75,0.65625 a 0.931586,0.931586 0 0,0 -0.1875,0.03125 c -1.38156,0.368494 -2.02907,1.59354 -2.34375,2.625 -0.314677,1.03146 -0.48987,2.04969 -0.75,2.5625 a 0.931586,0.931586 0 0,0 -0.0625,0.15625 c -1.84409,6.59043 -3.33841,13.3415 -4.03125,20.1875 a 0.931586,0.931586 0 0,0 0.0625,0.375 c 1.44361,4.48565 3.3511,8.91811 5.59375,13.0625 a 0.931586,0.931586 0 0,0 0.1875,0.25 c 0.959842,0.897361 2.16597,1.00504 3.1875,1 1.02153,-0.005 1.94857,-0.08395 2.5625,0.0625 a 0.931586,0.931586 0 0,0 0.1875,0.03125 c 4.22939,0.166159 8.44805,0.311773 12.6875,0.40625 -0.290817,4.21665 -0.620559,8.42037 -1,12.625 -4.07913,0.767246 -8.37105,0.412402 -12.6562,0.125 a 0.931586,0.931586 0 0,0 -0.28125,0.03125 c -1.17259,0.294132 -1.86081,1.2075 -2.3125,2 -0.451689,0.792495 -0.797946,1.55019 -1.15625,1.96875 a 0.931586,0.931586 0 0,0 -0.09375,0.125 c -1.3668,2.40045 -3.11229,4.74366 -4.375,7.40625 a 0.931586,0.931586 0 0,0 -0.0625,0.21875 c -0.22555,1.19943 0.354476,2.31777 1.1875,2.90625 0.782023,0.55245 1.76329,0.73538 2.71875,0.59375 v 0.03125 c 5.41201,-0.03622 10.8388,-0.370263 16.2188,-1.03125 0.312739,2.52479 1.61165,4.70957 3.46875,6.25 2.08397,1.72861 4.8103,2.69793 7.53125,2.71875 0.0018,1.4e-05 -0.0018,0.03124 0,0.03125 0.0307,0.0029 0.06301,-0.0027 0.09375,0 2.72535,0.241613 5.6068,-0.372672 8,-1.78125 2.35805,-1.38789 4.21951,-3.61012 4.78125,-6.53125 0.0148,-0.07698 0.04954,-0.140798 0.0625,-0.21875 h -0.03125 c 0.567382,-1.54945 0.202018,-3.22525 0.21875,-4.21875 0.0088,-0.520049 0.110877,-0.6594 0.0625,-0.625 -0.04838,0.0344 0.234057,-0.110084 1.125,0.21875 a 0.931586,0.931586 0 0,0 0.34375,0.0625 c 3.59523,-0.139039 8.03073,-0.09131 11.25,-2.875 a 0.931586,0.931586 0 0,0 0.0625,-0.0625 c 1.07028,-1.10017 1.3084,-2.5613 1.0625,-3.8125 -0.241068,-1.2266 -0.85669,-2.30786 -1.53125,-3.1875 -0.01137,-0.01794 -0.01985,-0.04443 -0.03125,-0.0625 -0.999754,-1.58514 -2.12172,-3.61885 -3.625,-5 -1.22524,-2.401 -3.69756,-3.15048 -5.875,-3.4375 -1.9731,-0.260086 -3.66871,-0.315248 -4.53125,-0.5625 -0.0921,-1.31885 -0.335032,-2.74796 -0.25,-3.53125 0.05193,-0.47835 0.14965,-0.584906 0.28125,-0.65625 0.1316,-0.07134 0.608922,-0.151069 1.625,0.15625 a 0.931586,0.931586 0 0,0 0.3125,0.03125 c 4.95581,-0.244135 10.0382,-0.10076 15.0938,-0.59375 a 0.931586,0.931586 0 0,0 0.375,-0.125 c 1.13606,-0.655476 1.70514,-1.7378 2.125,-2.71875 0.419857,-0.980953 0.739011,-1.9329 1.15625,-2.5625 a 0.931586,0.931586 0 0,0 0.09375,-0.15625 c 1.14203,-2.79537 2.69469,-5.69161 3.375,-8.875 a 0.931586,0.931586 0 0,0 0.03125,-0.3125 c -0.990827,-8.07882 -2.64497,-16.1875 -5.34375,-23.9062 a 0.931586,0.931586 0 0,0 -0.15625,-0.28125 c -0.865204,-1.08141 -2.1637,-1.27553 -3.21875,-1.28125 -1.05505,-0.0057 -2.02542,0.101958 -2.625,-0.03125 a 0.931586,0.931586 0 0,0 -0.15625,-0.03125 c -8.21448,-0.224773 -16.46,-0.413278 -24.6875,-0.4375 z "/>
<path style="opacity:.1" id="path3897" d="m 46.4688,11.2188 c -8.56148,0.06751 -17.1476,0.116617 -25.6875,0.65625 -1.99971,0.533367 -1.74535,3.18646 -2.50528,4.68456 -1.83473,6.55701 -3.3092,13.2606 -3.99472,20.0342 1.42494,4.42762 3.31549,8.81156 5.53125,12.9062 1.4106,1.31878 3.64153,0.4454 5.34386,0.851496 4.55082,0.178787 9.1026,0.338861 13.6561,0.429754 -0.326117,4.79529 -0.684559,9.58873 -1.125,14.375 -4.47203,0.994549 -9.09524,0.520459 -13.5938,0.21875 -1.67174,0.41934 -1.95896,2.47516 -2.96722,3.65297 -1.40488,2.46733 -3.13592,4.79694 -4.34528,7.34703 -0.31927,1.69782 1.51256,2.7046 3.00174,2.40712 5.6915,-0.03809 11.3847,-0.389699 17.0295,-1.12587 0.03707,5.35248 5.22822,9.10568 10.2739,9.10056 5.10494,0.488994 11.0485,-2.27215 11.9588,-7.74935 0.994188,-2.29628 -1.44397,-6.83857 2.58299,-5.35227 3.61911,-0.139962 7.80359,-0.145806 10.6878,-2.63975 1.69881,-1.74625 0.66386,-4.26544 -0.584426,-5.87212 -1.09631,-1.72945 -2.30803,-3.92669 -3.73156,-5.11206 -2.07265,-4.06159 -8.16484,-2.57659 -10.4306,-3.64771 0.0084,-2.74467 -1.7284,-7.10999 2.79597,-5.74156 5.00366,-0.246492 10.0629,-0.09405 15.0409,-0.579477 1.74448,-1.00652 1.92736,-3.39251 2.97347,-4.97105 1.16789,-2.85866 2.69686,-5.71155 3.33903,-8.71645 -0.984905,-8.03053 -2.6109,-16.0813 -5.28125,-23.7188 -1.26443,-1.58041 -3.62652,-0.615086 -5.32808,-0.993119 -8.21171,-0.224697 -16.4256,-0.420196 -24.6407,-0.444381 z "/>
<path style="opacity:.15" id="path3893" d="m 46.4688,12.3125 c -12.2492,0 -24.4375,0.53125 -24.4375,0.53125 a 0.929402,0.929402 0 0,0 -0.03125,0 l -.8438,.0625 a 0.929402,0.929402 0 0,0 -0.8125,0.65625 l -.25,.7812 c 0,0 -3.13698,9.28335 -4.6875,21.6875 a 0.929402,0.929402 0 0,0 0,0.03125 l -.0312,.2812 a 0.929402,0.929402 0 0,0 0.0625,0.40625 l .0938,.2188 c 0,0 -6e-05,0.03107 0,0.03125 0.0136,0.04119 1.55867,4.74233 4.65625,10.9375 l .3125,.625 a 0.929402,0.929402 0 0,0 0.8125,0.53125 l .6562,.0312 h 0.03125 c 0.0274,0.0015 8.53437,0.426841 18,0.59375 -0.453442,6.8817 -0.903436,12.3731 -1.28125,16.375 -5.7945,1.55414 -13.8125,0.40625 -13.8125,0.40625 a 0.929402,0.929402 0 0,0 -0.0625,-0.03125 l -.2812,-.0312 a 0.929402,0.929402 0 0,0 -0.90625,0.46875 l -.125,.2188 h 0.03125 l -5.1875,8.5 v 0.03125 l -.375,.5625 a 0.929402,0.929402 0 0,0 0.75,1.4375 l .6875,.0312 c 0,0 8.94367,0.158142 18.375,-1.21875 -0.0058,0.935192 0.01134,2.87611 1.1875,4.90625 1.36708,2.35968 4.33273,4.3125 9,4.3125 4.66726,0 7.63292,-1.95282 9,-4.3125 1.34705,-2.3251 1.21875,-4.79999 1.21875,-5.4375 0,-0.639743 -0.06809,-1.44485 -0.21875,-2.84375 -0.02102,-0.195169 -0.06378,-0.556873 -0.09375,-0.875 1.98912,0.108768 3.87587,0.56802 6.71875,0.21875 2.69609,-0.331234 4.58699,-0.683163 5.9375,-1.4375 0.67003,-0.374249 1.32647,-0.931069 1.53125,-1.8125 0.164516,-0.70814 -0.06375,-1.37291 -0.375,-1.96875 a 0.929402,0.929402 0 0,0 -0.03125,-0.125 c -0.01144,-0.02044 -0.01952,-0.04228 -0.03125,-0.0625 a 0.929402,0.929402 0 0,0 -0.09375,-0.1875 0.929402,0.929402 0 0,0 -0.0625,-0.09375 v -0.03125 a 0.929402,0.929402 0 0,0 -0.09375,-0.0625 l -.2188,-.3125 c -0.88197,-1.57296 -1.7572,-2.85881 -2.40625,-3.75 -0.615339,-0.844897 -0.924121,-1.21556 -1.09375,-1.40625 -0.02765,-0.0446 -0.03529,-0.02947 -0.0625,-0.0625 -0.02378,-0.03703 -0.0092,-0.03623 -0.03125,-0.0625 h -0.03125 c -1.04304,-1.57688 -2.60081,-2.54398 -4.3125,-2.9375 -0.890013,-0.204617 -1.83033,-0.266423 -2.75,-0.25 -0.934327,0.01669 -1.86426,0.145544 -2.8125,0.3125 -0.359427,0.06328 -0.707354,0.138465 -1.0625,0.21875 -0.200572,-2.57299 -0.417767,-5.48776 -0.625,-8.75 9.224,-0.187498 17.9688,-0.53125 17.9688,-0.53125 l .7188,-.0312 a 0.929402,0.929402 0 0,0 0.8125,-0.53125 l .3125,-.625 c 3.09758,-6.19517 4.64265,-10.8963 4.65625,-10.9375 6e-05,-0.000181 0,-0.03125 0,-0.03125 l .0938,-.2188 a 0.929402,0.929402 0 0,0 0.0625,-0.40625 l -.0312,-.2812 a 0.929402,0.929402 0 0,0 0,-0.03125 c -1.55052,-12.4042 -4.6875,-21.6875 -4.6875,-21.6875 l -.25,-.8125 a 0.929402,0.929402 0 0,0 -0.84375,-0.65625 l -.8438,-.0312 c 0,0 -7.67194,-0.248371 -16.5,-0.40625 -3.61262,-0.06459 -7.43893,-0.125 -11,-0.125 z "/>
<path style="opacity:.31" id="path4394" d="m 46.4688,13.25 c -12.2223,0 -24.4062,0.53125 -24.4062,0.53125 l -.8438,.0625 -.25,.7812 c 0,0 -3.08637,9.22218 -4.625,21.5312 l -.0312,.2812 .0938,.25 c 0,0 1.54249,4.67872 4.625,10.8438 l .3125,.625 .6875,.0312 c 0,0 8.82221,0.482327 18.9688,0.625 -0.50073,7.77693 -0.995463,13.7755 -1.40625,18.0625 -0.11256,0.03063 -0.301607,0.06422 -0.40625,0.09375 -6.13515,1.73137 -14.4375,0.4375 -14.4375,0.4375 l -.2812,-.0312 -.125,.2188 -5.1875,8.5312 -.375,.5938 .6875,.0312 c 0,0 9.55496,0.236089 19.2812,-1.3125 -0.0073,0.161897 -0.03125,0.371025 -0.03125,0.5 0,0.722391 -0.09897,2.91003 1.09375,4.96875 1.19272,2.05872 3.77061,3.84375 8.1875,3.84375 4.41689,0 6.99478,-1.78503 8.1875,-3.84375 1.19272,-2.05872 1.09375,-4.24636 1.09375,-4.96875 0,-0.564093 -0.06888,-1.35839 -0.21875,-2.75 -0.04859,-0.451151 -0.124691,-1.33883 -0.1875,-1.90625 0.35743,-0.0026 0.731519,-0.0175 1.0625,0 2.10271,0.111184 3.85164,0.5518 6.5625,0.21875 2.6637,-0.327255 4.48555,-0.693508 5.59375,-1.3125 0.5541,-0.309496 0.973078,-0.699333 1.09375,-1.21875 0.120672,-0.519417 -0.0528,-1.07122 -0.40625,-1.625 v -0.03125 h -0.03125 l -.3125,-.4062 c -1.7795,-3.20607 -3.45002,-5.12965 -3.53125,-5.21875 -0.01655,-0.02669 -0.04563,-0.03623 -0.0625,-0.0625 -0.90239,-1.40564 -2.26538,-2.23806 -3.8125,-2.59375 -0.788017,-0.181168 -1.62877,-0.234308 -2.5,-0.21875 -0.871226,0.01556 -1.77432,0.120467 -2.6875,0.28125 -0.695875,0.122522 -1.39512,0.287141 -2.09375,0.46875 -0.250231,-3.08328 -0.490634,-6.68531 -0.75,-10.8125 9.79753,-0.1777 18.9375,-0.5625 18.9375,-0.5625 l .7188,-.0312 .3125,-.625 c 3.08251,-6.16503 4.625,-10.8438 4.625,-10.8438 l .0938,-.25 -.0312,-.2812 c -1.53863,-12.3091 -4.625,-21.5312 -4.625,-21.5312 l -.25,-.8125 -.8438,-.0312 c 0,0 -7.67975,-0.248511 -16.5,-0.40625 -3.61131,-0.06457 -7.41822,-0.125 -10.9688,-0.125 z "/>
</g>
<g id="g4713">
<g style="fill-rule:evenodd">
<path style="fill:url(#linearGradient4390);stroke:url(#linearGradient4392);stroke-width:.8;stroke-miterlimit:10" id="path2968" d="m 24.6853,66.7993 c 0,0 8.32695,1.31277 14.6009,-0.457768 6.27392,-1.77054 26.9692,-5.48824 26.9692,-5.48824 l 4.1852,5.6965 c 1.28469,2.01283 -0.694016,2.90644 -5.98939,3.55702 -5.29537,0.650576 -6.81783,-1.72854 -15.6379,1.47174 -11.6076,4.2117 -29.3237,3.7611 -29.3237,3.7611 l 5.1957,-8.5404 z "/>
<path style="fill:url(#linearGradient4387);stroke:none" id="path3006" d="m 34.1956,67.7215 -1.8817,4.7209 6.148,-.5247 .4031,-4.9535 -4.6693,.7573 z "/>
<path style="fill:url(#linearGradient4382);stroke:url(#linearGradient4384);stroke-width:.8" id="path2956" d="m 47.903,61.848 c 5.22884,-2.27896 15.2763,-6.3859 18.6494,-0.945683 0,0 1.89481,2.06027 3.77919,5.56836 -8.18691,-6.45712 -16.1,1.2145 -23.6154,3.66482 l 1.1867,-8.2875 z "/>
</g>
<path style="fill:none;stroke:url(#linearGradient4379);stroke-width:2.4;stroke-miterlimit:100" id="path2190" d="m 22.1027,13.9935 c 0,0 12.1869,-0.538591 24.3739,-0.538591 3.54026,0 7.33762,0.04546 10.944,0.109941 8.80809,0.157521 16.4767,0.428646 16.4767,0.428646 0,0 3.04674,9.14021 4.5701,21.3272 0,0 -1.52337,4.5701 -4.5701,10.6636 0,0 -15.2337,0.67324 -27.4206,0.67324 -12.1869,0 -24.3739,-0.67324 -24.3739,-0.67324 -3.04674,-6.09347 -4.5701,-10.6636 -4.5701,-10.6636 1.52337,-12.1869 4.5701,-21.3272 4.5701,-21.3272 z "/>
<g style="fill-rule:evenodd;stroke:none">
<path style="fill:url(#linearGradient4376)" id="path1315" d="m 22.1027,13.9935 c 0,0 12.1869,-0.538591 24.3739,-0.538591 12.1869,0 27.4206,0.538591 27.4206,0.538591 0,0 3.04674,9.14021 4.5701,21.3272 0,0 -1.52337,4.5701 -4.5701,10.6636 0,0 -15.2337,0.673241 -27.4206,0.673241 -12.1869,0 -24.3739,-0.673241 -24.3739,-0.673241 -3.04674,-6.09347 -4.5701,-10.6636 -4.5701,-10.6636 1.52337,-12.1869 4.5701,-21.3272 4.5701,-21.3272 z "/>
<path style="fill:url(#radialGradient4373)" id="path2414" d="m 39.6691,34.8446 c -13.98,0.110429 -22.1364,0.476052 -22.1364,0.476052 l 4.5701,10.6636 c 0,0 25.6728,0.942536 51.7945,0 l 4.5701,-10.6636 c 0,0 -2.97052,-0.187726 -10.9968,-0.333236 l -5.7602,5.6174 3.2792,-8.0415 c -3.04674,1.61858 -4.08704,2.37652 -4.08704,2.37652 -4.27022,-0.063707 -7.12179,-0.09521 -12.9024,-0.09521 -2.97533,0 -5.74203,-0.02044 -8.33092,0 z "/>
</g>
<path style="fill:none;stroke:url(#linearGradient4370);stroke-width:.8;stroke-miterlimit:100" id="path2412" d="m 22.1027,13.9935 c 0,0 12.1869,-0.538591 24.3739,-0.538591 12.1869,0 27.4206,0.538591 27.4206,0.538591 0,0 3.04674,9.14021 4.5701,21.3272 0,0 -1.52337,4.5701 -4.5701,10.6636 0,0 -15.2337,0.673241 -27.4206,0.673241 -12.1869,0 -24.3739,-0.673241 -24.3739,-0.673241 -3.04674,-6.09347 -4.5701,-10.6636 -4.5701,-10.6636 1.52337,-12.1869 4.5701,-21.3272 4.5701,-21.3272 z "/>
<g style="fill-rule:evenodd;stroke:none">
<path style="fill:url(#linearGradient4367)" id="path2988" d="m 53.0392,68.0679 c 0,0 5.29683,-0.424502 9.48405,0.224863 2.99028,0.463741 7.44298,-1.08903 7.44298,-1.08903 0,0 -1.48147,-2.79075 -6.61664,-2.80259 -4.50811,-0.01036 -10.2014,3.74581 -10.3104,3.66676 z "/>
<path style="fill:url(#linearGradient4364)" id="path3016" d="m 53.5247,63.5733 1.0583,2.0529 c 0,0 7.96308,-4.14857 12.8077,-1.76719 -3.8243,-4.96401 -13.866,-0.285707 -13.866,-0.285707 z "/>
</g>
<g id="g2515" transform="matrix(1.523368,0,0,1.523368,11.439168,10.946779)">
<path style="fill:none;stroke:url(#linearGradient4237);stroke-width:1.575;stroke-miterlimit:100" id="path2529" d="m 20.3929,21 c 0,0 1.12721,-2 3.60707,-2 2.47986,0 3.60707,2 3.60707,2 0.789047,14.125 1.7053,20 1.7053,21 0,1 0.09823,5 -5.31237,5 -5.41061,0 -5.31237,-4 -5.31237,-5 0,-1 0.916256,-7.25 1.7053,-21 z "/>
<g style="stroke:none;fill-rule:evenodd">
<path style="fill:url(#linearGradient4239)" id="path2495" d="m 20.3929,21 c 0,0 1.12721,-2 3.60707,-2 2.47986,0 3.60707,2 3.60707,2 0.789047,14.125 1.7053,20 1.7053,21 0,1 0.09823,5 -5.31237,5 -5.41061,0 -5.31237,-4 -5.31237,-5 0,-1 0.916256,-7.25 1.7053,-21 z "/>
<path style="fill:url(#linearGradient4241)" id="path2541" d="m 19,43 c 0,0 0.75,-2 5,-2 4.25,0 5,2 5,2 0,0 2,4 -5,4 -7,0 -5,-4 -5,-4 z"/>
</g>
<path style="fill:none;stroke:url(#linearGradient4243);stroke-width:.525;stroke-miterlimit:100" id="path2539" d="m 20.3929,21 c 0,0 1.12721,-2 3.60707,-2 2.47986,0 3.60707,2 3.60707,2 0.789047,14.125 1.7053,20 1.7053,21 0,1 0.09823,5 -5.31237,5 -5.41061,0 -5.31237,-4 -5.31237,-5 0,-1 0.916256,-7.25 1.7053,-21 z "/>
</g>
<g style="fill-rule:evenodd">
<g style="stroke:none">
<path style="fill:url(#linearGradient4356)" id="path2430" d="m 61.8055,40.462 c 0,0 1.42816,-4.28447 3.33237,-7.80726 0,0 2.47547,0.761684 2.18984,2.38026 l -5.5222,5.427 z "/>
<path style="fill:url(#linearGradient4353)" id="path1540" d="m 48.4757,33.6863 -.8016,-.6788 c -0.707115,-0.598808 -2.42751,-1.64424 -3.57753,-3.37095 -0.725014,-1.08858 -0.966794,-2.57326 -0.861431,-4.22865 -1.946,-0.550303 -3.52474,-1.3678 -4.52966,-2.51301 -1.68308,-1.91804 -2.43744,-4.16418 -3.65813,-5.61552 l -1.0225,-1.2073 1.6239,.0523 c 2.76348,0.09058 5.74864,0.01356 8.52551,0.690751 0.721153,0.175852 1.38403,0.458651 2.04778,0.795323 -0.789845,0.506097 -1.28156,1.0225 -1.58689,1.4299 -0.0062,0.0084 -0.849417,-0.403714 -1.31679,-0.517685 -2.0348,-0.496185 -3.00583,-0.02879 -5.29702,-0.0904 0.926049,1.46426 0.771825,2.29465 1.87135,3.54767 0.834795,0.951336 2.84687,1.54143 4.65177,2.14701 1.8049,0.605575 4.48843,0.279003 4.82679,0.204258 l -.058,1.4871 c -0.447279,0.101259 -0.952868,0.18338 -1.51347,0.21189 -1.68181,0.08554 -2.62749,-0.30673 -2.73775,-0.355473 -0.06433,1.2814 0.234373,2.38526 0.805051,3.24211 0.713102,1.0707 2.38375,1.80563 2.58721,1.89222 0.803144,-1.19975 1.53984,-1.49655 2.083,-2.75936 0.329289,-0.765578 0.941418,-1.91447 0.0688,-4.63575 -0.543507,-1.69493 -1.24302,-2.1063 -1.95758,-2.55387 l 1.3247,-1.0118 c 0.427171,0.286519 0.914165,0.692227 1.3077,1.19275 0.98778,1.25632 0.918944,2.38312 0.906655,2.51737 0,0 1.86189,-1.41889 2.6264,-2.42721 0.991474,-1.30767 1.35433,-2.15944 2.27455,-3.57862 -2.04202,0.125038 -3.37164,-0.343499 -5.55918,0.327696 -0.591561,0.181506 -1.82433,0.926657 -3.28947,2.19296 -1.46513,1.26631 -2.19089,2.04664 -2.57106,2.87226 l -1.8847,-.4438 c 0.02191,-0.05274 2.20001,-3.85315 4.38442,-4.84564 2.18441,-0.992491 9.25807,-1.6947 11.5398,-1.81075 l 1.8539,-.0943 -1.2143,1.276 c -1.26955,1.33411 -2.24428,3.04441 -3.7638,5.04853 -0.906075,1.19504 -2.3985,2.13418 -4.26967,2.87057 0,0 0.197034,2.11466 -0.4528,3.75581 -0.696476,1.75894 -2.38455,2.80934 -2.96197,4.06331 l -.4241,.921 z "/>
<path style="fill:url(#linearGradient4350)" id="path2461" d="m 51.9893,16.8634 c 1.94324,2.48878 6.78687,5.12097 9.18856,5.80499 0.04159,0.01188 0.102035,-0.0088 0.14213,0.0018 0.01021,-0.000498 0.03711,0.0012 0.04738,0.000594 0.605911,-0.03464 1.23423,-0.244999 1.98974,-0.681078 2.21303,-1.27735 1.31363,-0.93724 3.72862,-1.86367 0.0252,-0.0096 0.07137,-0.03152 0.09754,-0.04031 1.51606,-0.476296 4.54977,0.439867 5.08041,0.603614 -0.51411,0.06377 -2.68368,0.415058 -4.19403,1.73324 -0.0096,0.0084 -0.04032,0.03264 -0.05016,0.0409 -0.01005,0.0081 -0.03987,0.03287 -0.05016,0.0409 -0.441884,0.332215 -1.12012,0.573375 -1.89777,0.723763 1.17134,0.08604 2.39255,0.215255 3.67027,0.419805 2.38517,0.381843 3.86084,1.21073 4.53989,2.29961 0.67905,1.08888 0.455208,2.42213 -0.459584,3.31673 -2.65479,2.59618 -9.75513,1.26437 -9.72608,-1.32637 0.0015,-0.04409 0.0055,-0.121184 0.01112,-0.165985 0.0084,-0.05623 0.04608,-0.14961 0.0613,-0.206886 0.0166,-0.05749 0.03766,-0.148406 0.0613,-0.206887 0.01005,-0.02348 0.04176,-0.05877 0.05294,-0.0824 1.40922,-2.9767 4.8237,-1.18233 5.9638,0.157849 -1.22551,-0.718425 -2.93276,-0.856505 -3.53092,-0.376527 -0.01127,0.0096 -0.03971,0.03076 -0.05017,0.0409 -0.01508,0.01557 -0.03996,0.06573 -0.05294,0.0824 -0.0038,0.0058 -0.04654,0.03498 -0.05016,0.0409 -0.0034,0.0061 0.000362,0.03533 -0.0027,0.0415 -0.0029,0.0062 -0.000133,0.03508 -0.0027,0.0415 -0.0072,0.01959 -0.04806,0.0617 -0.05294,0.0824 -0.0014,0.007 -0.0017,0.03435 -0.0027,0.0415 -0.000829,0.0073 -0.0023,0.03411 -0.0027,0.0415 -0.000284,0.0075 -0.0027,0.03385 -0.0027,0.0415 -0.002,2.1402 5.70254,2.16774 6.19233,0.285308 0.11899,-0.457345 0.110581,-0.85031 0.03057,-1.16249 -0.0093,-0.03297 -0.02776,-0.09357 -0.03903,-0.125083 -0.01188,-0.03106 -0.02515,-0.09541 -0.03903,-0.125084 -0.0097,-0.01948 -0.03129,-0.0647 -0.04182,-0.08359 -0.481111,-0.818649 -1.77382,-1.09482 -3.2302,-1.32797 -2.98378,-0.477673 -6.17254,-0.01112 -8.798,-0.317983 -3.97202,-0.464329 -5.72808,-1.01254 -7.9009,-3.79535 l -.6805,-3.9955 z "/>
<path style="fill:url(#linearGradient4347)" id="path2530" d="m 43.7414,16.9187 c -1.94324,2.48878 -6.78687,5.12097 -9.18856,5.80499 -0.04159,0.01188 -0.102035,-0.0088 -0.14213,0.0018 -0.01021,-0.000499 -0.03711,0.0012 -0.04738,0.000594 -0.605907,-0.03464 -1.23422,-0.244999 -1.98973,-0.681078 -2.21303,-1.27736 -1.31363,-0.93724 -3.72862,-1.86368 -0.0252,-0.0096 -0.07137,-0.03152 -0.09754,-0.04031 -1.51606,-0.476295 -4.54977,0.439866 -5.08041,0.603613 0.514109,0.06377 2.68368,0.41506 4.19403,1.73325 0.0096,0.0084 0.04032,0.03265 0.05016,0.0409 0.01005,0.0081 0.03987,0.03287 0.05016,0.0409 0.441883,0.332215 1.12011,0.573375 1.89777,0.723763 -1.17134,0.08604 -2.39255,0.215255 -3.67027,0.419805 -2.38517,0.381843 -3.86084,1.21073 -4.53989,2.29961 -0.67905,1.08888 -0.455208,2.42213 0.459583,3.31673 2.6548,2.59618 9.75512,1.26437 9.72608,-1.32637 -0.0015,-0.04409 -0.0055,-0.121184 -0.01112,-0.165985 -0.0084,-0.05623 -0.04608,-0.14961 -0.0613,-0.206885 -0.01661,-0.05749 -0.03766,-0.148407 -0.0613,-0.206887 -0.01005,-0.02347 -0.04176,-0.05877 -0.05294,-0.0824 -1.40921,-2.9767 -4.8237,-1.18233 -5.9638,0.157848 1.22551,-0.718425 2.93276,-0.856504 3.53092,-0.376528 0.01127,0.0096 0.03971,0.03077 0.05016,0.0409 0.01508,0.01557 0.03996,0.06573 0.05294,0.0824 0.0038,0.0058 0.04654,0.03498 0.05016,0.0409 0.0034,0.0061 -0.000362,0.03533 0.0027,0.0415 0.0029,0.0062 0.000133,0.03508 0.0027,0.0415 0.0072,0.01959 0.04806,0.0617 0.05294,0.0824 0.0014,0.007 0.0017,0.03435 0.0027,0.0415 0.000828,0.0073 0.0023,0.03411 0.0027,0.0415 0.000283,0.0075 0.0027,0.03385 0.0027,0.0415 0.002,2.1402 -5.70254,2.16774 -6.19233,0.285308 -0.118991,-0.457345 -0.110582,-0.850312 -0.03057,-1.16249 0.0093,-0.03297 0.02776,-0.09355 0.03903,-0.125084 0.01188,-0.03106 0.02515,-0.09541 0.03903,-0.125084 0.0096,-0.01948 0.03129,-0.0647 0.0418,-0.08359 0.480923,-0.818647 1.77363,-1.09482 3.23002,-1.32797 2.98378,-0.477673 6.17254,-0.01112 8.798,-0.317983 3.97202,-0.464329 5.72808,-1.01254 7.9009,-3.79535 l .6803,-3.9955 z "/>
<path style="fill:url(#linearGradient4344)" id="path3034" d="m 20.543,74.6898 4.5142,-7.3713 c 0,0 -1.11259,4.51568 -0.287222,7.27654 l -4.227,.0948 z "/>
<path style="fill:url(#linearGradient4341)" id="path2886" d="m 40.1192,75.9896 c 5.23444,-3.92162 13.4648,-1.88507 13.4648,-1.88507 -6.80731,-3.57015 -5.92451,-10.3679 -5.92451,-10.3679 l -3.4642,6.5284 -.7099,-27.8028 c 0,0 -2.94542,26.6771 -3.3662,33.5273 z "/>
</g>
<g style="stroke-miterlimit:10;stroke-width:.8">
<path style="fill:url(#linearGradient4336);stroke:url(#linearGradient4338)" id="path2804" d="m 54.3823,55.7872 .8637,5.5871 c -10.0986,-3.50085 -16.0721,9.26761 -16.0721,9.26761 l .7916,-9.4226 c 4.98197,-9.69465 14.4169,-5.43212 14.4169,-5.43212 z "/>
<path style="fill:url(#linearGradient4331);stroke:url(#linearGradient4333)" id="path2584" d="m 40.8944,49.3129 -.3876,5.8727 c 10.0986,-3.50085 15.8817,9.36282 15.8817,9.36282 l -.8868,-9.4226 c -4.98197,-9.69466 -14.6073,-5.81297 -14.6073,-5.81297 z "/>
</g>
<g style="stroke:none">
<path style="fill:url(#linearGradient4328)" id="path2850" d="m 41.5651,49.6975 -.2299,2.7611 c 9.94249,-3.11884 13.5199,2.76111 13.5199,2.76111 -4.18926,-8.62472 -13.29,-5.52221 -13.29,-5.52221 z "/>
<path style="fill:url(#linearGradient4325)" id="path2876" d="m 40.5231,61.4476 -.4039,4.1741 c 0,0 2.28901,-6.59775 9.42536,-8.61747 l -2.4237,-1.4811 c -4.44338,1.75042 -6.59775,5.92451 -6.59775,5.92451 z "/>
<path style="fill:url(#linearGradient4322)" id="path2896" d="m 17.0944,35.3259 c 0,0 0.03367,-2.49099 0.942535,-5.78986 1.44747,3.97211 13.1113,2.44049 37.0282,5.25127 -17.9587,0.387114 -37.9707,0.538591 -37.9707,0.538591 z "/>
<path style="fill:url(#linearGradient4319)" id="path2906" d="m 28.0009,47.7135 c -2.01972,-4.44338 -1.61578,-9.15606 -1.61578,-9.15606 0,0 4.62027,6.40733 7.04394,9.23494 l -5.4282,-.0789 z "/>
<path style="fill:url(#linearGradient4316)" id="path3044" d="m 21.8071,13.2436 -1.2118,3.7701 c 8.34817,-2.28901 53.7245,-3.50085 53.7245,-3.50085 0,0 -34.3352,-1.21183 -52.5127,-0.269297 z "/>
</g>
</g>
</g>
<g style="stroke:none;color:#000">
<g style="fill-opacity:.713">
<g id="g4202" transform="matrix(1.4965125,0,0,1.4965125,-133.41148,1.4211684)">
<g style="opacity:.75" id="g4204"/>
<g id="g4208"/>
</g>
<g id="g4212" transform="matrix(1.4965125,0,0,1.4965125,-133.41148,1.4211684)">
<g style="opacity:.75" id="g4214"/>
<g id="g4218"/>
</g>
</g>
<g style="stroke-width:1.018">
<g style="fill:url(#radialGradient4283)" id="g3282" transform="matrix(1.4965125,0,0,1.4965125,-133.71924,1.1134008)">
<g style="opacity:.75;fill:url(#radialGradient4277)" id="g3284"/>
<g style="fill:url(#radialGradient4281)" id="g3288"/>
</g>
<g style="fill:url(#radialGradient4293)" id="g3292" transform="matrix(1.4965125,0,0,1.4965125,-133.71924,1.1134008)">
<g style="opacity:.75;fill:url(#radialGradient4287)" id="g3294"/>
<g style="fill:url(#radialGradient4291)" id="g3298"/>
</g>
</g>
</g>
</g>
</svg>
