<svg width="96" version="1.0" xmlns="http://www.w3.org/2000/svg" height="96" xmlns:xlink="http://www.w3.org/1999/xlink">
<defs id="defs2410">
<clipPath id="clipPath3613">
<rect width="84" x="6" y="6" rx="6" height="84" ry="6" style="fill:#fff;stroke:none" id="rect3615"/>
</clipPath>
<filter width="1.3839999" x="-0.192" y="-0.192" height="1.3839999" style="color-interpolation-filters:sRGB" id="filter3794">
<feGaussianBlur stdDeviation="5.28" id="feGaussianBlur3796"/>
</filter>
<filter style="color-interpolation-filters:sRGB" id="filter3174">
<feGaussianBlur stdDeviation="1.71" id="feGaussianBlur3176"/>
</filter>
<linearGradient gradientTransform="translate(30,28)" spreadMethod="repeat" id="linearGradient3723" xlink:href="#linearGradient3703" y1="35.92857" x1="31.607143" y2="42.015106" x2="31.607143" gradientUnits="userSpaceOnUse"/>
<linearGradient gradientTransform="matrix(1.0238095,0,0,1.0119048,-1.1428571,-98.071429)" id="linearGradient3725" xlink:href="#ButtonShadow-0" y1="6.1317081" x1="32.251034" y2="90.238609" x2="32.251034" gradientUnits="userSpaceOnUse"/>
<linearGradient spreadMethod="repeat" id="linearGradient3719" xlink:href="#linearGradient3703" y1="35.92857" x1="31.607143" y2="42.015106" x2="31.607143" gradientUnits="userSpaceOnUse"/>
<linearGradient id="linearGradient2908" xlink:href="#linearGradient3737-4" y1="20.220806" x1="48" y2="138.66119" x2="48" gradientUnits="userSpaceOnUse"/>
<linearGradient spreadMethod="repeat" id="linearGradient3709" xlink:href="#linearGradient3703" y1="19.75" x1="39.285713" y2="25.84864" x2="39.285713" gradientUnits="userSpaceOnUse"/>
<linearGradient spreadMethod="repeat" id="linearGradient3731" xlink:href="#linearGradient3703" y1="36.035713" x1="61.785713" y2="48.041718" x2="61.785713" gradientUnits="userSpaceOnUse"/>
<linearGradient gradientTransform="matrix(1.0238095,0,0,1.0119048,-1.1428571,-98.071429)" id="linearGradient3772" xlink:href="#ButtonShadow-0" y1="6.1317081" x1="32.251034" y2="90.238609" x2="32.251034" gradientUnits="userSpaceOnUse"/>
<linearGradient gradientTransform="translate(0,-97)" id="linearGradient3721" xlink:href="#ButtonShadow-0" y1="6.1317081" x1="32.251034" y2="90.238609" x2="32.251034" gradientUnits="userSpaceOnUse"/>
<linearGradient gradientTransform="matrix(1.0238095,0,0,1.0119048,-1.1428571,-98.071429)" id="linearGradient3780" xlink:href="#ButtonShadow-0" y1="6.1317081" x1="32.251034" y2="90.238609" x2="32.251034" gradientUnits="userSpaceOnUse"/>
<linearGradient id="linearGradient3895" xlink:href="#linearGradient3224" y1="82.362946" x1="44.758911" y2="13.924098" x2="44.758911" gradientUnits="userSpaceOnUse"/>
<linearGradient gradientTransform="matrix(1.0058652,0,0,0.994169,100,0)" id="ButtonShadow-0" y1="92.539597" x1="45.447727" y2="7.0165396" x2="45.447727" gradientUnits="userSpaceOnUse">
<stop offset="0" id="stop3750-8"/>
<stop offset="1" style="stop-opacity:.588" id="stop3752-5"/>
</linearGradient>
<linearGradient id="linearGradient3741">
<stop offset="0" style="stop-color:#1a1a1a" id="stop3743"/>
<stop offset="0.85000002" style="stop-color:#0f0f0f" id="stop3749"/>
<stop offset="1" id="stop3745"/>
</linearGradient>
<linearGradient gradientTransform="scale(1.0058652,0.994169)" id="ButtonShadow" y1="92.539597" x1="45.447727" y2="7.0165396" x2="45.447727" gradientUnits="userSpaceOnUse">
<stop offset="0" id="stop3750"/>
<stop offset="1" style="stop-opacity:.588" id="stop3752"/>
</linearGradient>
<linearGradient gradientTransform="matrix(1.0238095,0,0,1.0119048,-1.1428571,-98.071429)" id="linearGradient3173" xlink:href="#ButtonShadow-0" y1="6.1317081" x1="32.251034" y2="90.238609" x2="32.251034" gradientUnits="userSpaceOnUse"/>
<linearGradient id="linearGradient3187">
<stop offset="0" style="stop-color:#b4b4b4" id="stop3189"/>
<stop offset="1" style="stop-color:#e6e6e6" id="stop3191"/>
</linearGradient>
<linearGradient id="linearGradient3224">
<stop offset="0" style="stop-color:#282828" id="stop3226"/>
<stop offset="1" style="stop-color:#464646" id="stop3228"/>
</linearGradient>
<linearGradient id="linearGradient3703">
<stop offset="0" style="stop-color:#1a1a1a" id="stop3705"/>
<stop offset="0.34999999" style="stop-color:#1e1e1e" id="stop3711"/>
<stop offset="1" style="stop-color:#0a0a0a" id="stop3707"/>
</linearGradient>
<linearGradient id="linearGradient3465">
<stop offset="0" style="stop-color:#919191" id="stop3467"/>
<stop offset="1" style="stop-color:#fdfdfd" id="stop3469"/>
</linearGradient>
<linearGradient id="linearGradient3737">
<stop offset="0" style="stop-color:#fff" id="stop3739"/>
<stop offset="1" style="stop-color:#fff;stop-opacity:0" id="stop3741"/>
</linearGradient>
<linearGradient id="linearGradient3737-4">
<stop offset="0" style="stop-color:#fff" id="stop3739-8"/>
<stop offset="1" style="stop-color:#fff;stop-opacity:0" id="stop3741-71"/>
</linearGradient>
<linearGradient gradientTransform="matrix(1.0294118,0,0,1.0294118,-1.4117647,-1.411765)" id="linearGradient3279" xlink:href="#linearGradient3465" y1="13" x1="43.17857" y2="83.294571" x2="43.17857" gradientUnits="userSpaceOnUse"/>
<linearGradient id="linearGradient3737-7">
<stop offset="0" style="stop-color:#fff" id="stop3739-2"/>
<stop offset="1" style="stop-color:#fff;stop-opacity:0" id="stop3741-7"/>
</linearGradient>
<linearGradient id="linearGradient3188" xlink:href="#linearGradient3737" y1="6" x1="36.357143" y2="63.893143" x2="36.357143" gradientUnits="userSpaceOnUse"/>
<linearGradient id="linearGradient3427" xlink:href="#linearGradient3187" y1="90" x1="48" y2="5.9877172" x2="48" gradientUnits="userSpaceOnUse"/>
<radialGradient fx="32.410713" fy="65.73214" cx="32.410713" cy="65.73214" r="12.053572" id="radialGradient3747" xlink:href="#linearGradient3741" gradientUnits="userSpaceOnUse"/>
<radialGradient fx="48" fy="90.171875" cx="48" cy="90.171875" gradientTransform="matrix(1.1573129,0,0,0.99590774,-7.551021,0.1971319)" r="42" id="radialGradient2874" xlink:href="#linearGradient3737-7" gradientUnits="userSpaceOnUse"/>
</defs>
<g style="display:none" id="layer2">
<rect width="86" x="5" y="7" rx="6" height="85" ry="6" style="opacity:.9;fill:url(#ButtonShadow);filter:url(#filter3174);stroke:none" id="rect3745"/>
</g>
<g style="stroke:none" id="layer4">
<path style="opacity:.08;fill:url(#linearGradient3173)" id="path3786" d="m 12,-95.0312 c -5.51109,0 -10.0312,4.52016 -10.0312,10.0312 v 71 c 0,5.51109 4.52016,10.0312 10.0312,10.0312 h 72 c 5.51109,0 10.0312,-4.52016 10.0312,-10.0312 v -71 c 0,-5.51109 -4.52016,-10.0312 -10.0312,-10.0312 h -72 z " transform="scale(1,-1)"/>
<path style="opacity:.1;fill:url(#linearGradient3780)" id="path3778" d="m 12,-94.0312 c -4.97163,0 -9.03125,4.05962 -9.03125,9.03125 v 71 c 0,4.97163 4.05962,9.03125 9.03125,9.03125 h 72 c 4.97163,0 9.03125,-4.05962 9.03125,-9.03125 v -71 c 0,-4.97163 -4.05962,-9.03125 -9.03125,-9.03125 h -72 z " transform="scale(1,-1)"/>
<path style="opacity:.2;fill:url(#linearGradient3772)" id="path3770" d="m 12,-93 c -4.40913,0 -8,3.59087 -8,8 v 71 c 0,4.40913 3.59087,8 8,8 h 72 c 4.40913,0 8,-3.59087 8,-8 v -71 c 0,-4.40913 -3.59087,-8 -8,-8 h -72 z " transform="scale(1,-1)"/>
<rect width="86" x="5" y="-92" rx="7" height="85" ry="7" style="opacity:.3;fill:url(#linearGradient3725)" id="rect3723" transform="scale(1,-1)"/>
<rect width="84" x="6" y="-91" rx="6" height="84" ry="6" style="opacity:.45;fill:url(#linearGradient3721)" id="rect3716" transform="scale(1,-1)"/>
</g>
<g id="layer3">
<g style="stroke:none;text-align:start">
<rect width="77.914963" x="8.1408806" y="8.2544327" rx="5.8527675" height="78.516495" ry="6.1732869" style="fill:url(#linearGradient3895)" id="rect3461"/>
<rect width="56" x="20" y="20" rx="3" height="12" ry="3" style="fill:url(#linearGradient3709)" id="rect3661"/>
<rect width="26" x="20" y="36" rx="3" height="12" ry="3" style="fill:url(#linearGradient3719)" id="rect3663"/>
<rect width="26" x="50" y="36" rx="3" height="24" ry="3" style="fill:url(#linearGradient3731)" id="rect3665"/>
<path style="fill:url(#radialGradient3747)" id="path3669" d="m 44.4643,65.7321 a 12.0536,12.0536 0 1,1 -24.1071,0 12.0536,12.0536 0 1,1 24.1071,0 z " transform="matrix(0.99555553,0,0,0.99555553,-0.26666479,-1.439995)"/>
<path style="opacity:.8" id="rect3671" d="m 23,19 c -1.662,0 -3,1.338 -3,3 v 1 c 0,-1.662 1.338,-3 3,-3 h 50 c 1.662,0 3,1.338 3,3 v -1 c 0,-1.662 -1.338,-3 -3,-3 h -50 z "/>
<path style="opacity:.3;fill:#fff" id="rect3676" d="m 20,29 0,1 c 0,1.662 1.338,3 3,3 h 50 c 1.662,0 3,-1.338 3,-3 v -1 c 0,1.662 -1.338,3 -3,3 h -50 c -1.662,0 -3,-1.338 -3,-3 z "/>
<path style="opacity:.8" id="path3681" d="m 23,35 c -1.662,0 -3,1.338 -3,3 v 1 c 0,-1.662 1.338,-3 3,-3 h 20 c 1.662,0 3,1.338 3,3 v -1 c 0,-1.662 -1.338,-3 -3,-3 h -20 z "/>
<path style="opacity:.3;fill:#fff" id="path3683" d="m 20,45 0,1 c 0,1.662 1.338,3 3,3 h 20 c 1.662,0 3,-1.338 3,-3 v -1 c 0,1.662 -1.338,3 -3,3 h -20 c -1.662,0 -3,-1.338 -3,-3 z "/>
<path style="opacity:.8" id="path3685" d="m 53,35 c -1.662,0 -3,1.338 -3,3 v 1 c 0,-1.662 1.338,-3 3,-3 h 20 c 1.662,0 3,1.338 3,3 v -1 c 0,-1.662 -1.338,-3 -3,-3 h -20 z "/>
<path style="opacity:.3;fill:#fff" id="path3687" d="m 50,57 0,1 c 0,1.662 1.338,3 3,3 h 20 c 1.662,0 3,-1.338 3,-3 v -1 c 0,1.662 -1.338,3 -3,3 h -20 c -1.662,0 -3,-1.338 -3,-3 z "/>
<path style="opacity:.8" id="path3689" d="m 53,63 c -1.662,0 -3,1.338 -3,3 v 1 c 0,-1.662 1.338,-3 3,-3 h 20 c 1.662,0 3,1.338 3,3 v -1 c 0,-1.662 -1.338,-3 -3,-3 h -20 z "/>
<path style="opacity:.3;fill:#fff" id="path3691" d="m 50,73 0,1 c 0,1.662 1.338,3 3,3 h 20 c 1.662,0 3,-1.338 3,-3 v -1 c 0,1.662 -1.338,3 -3,3 h -20 c -1.662,0 -3,-1.338 -3,-3 z "/>
<path style="opacity:.6" id="path3693" d="m 32,51 c -6.627417,0 -12,5.372583 -12,12 0,0.170031 0.02425,0.33169 0.03125,0.5 C 20.297212,57.107991 25.542614,52 32,52 38.457386,52 43.702788,57.107991 43.96875,63.5 43.975753,63.33169 44,63.170031 44,63 44,56.372583 38.627417,51 32,51 z"/>
<path style="opacity:.3;fill:#fff" id="path3698" d="M 20.03125,64.5 C 20.024247,64.66831 20,64.829969 20,65 c 0,6.627417 5.372583,12 12,12 6.627417,0 12,-5.372583 12,-12 0,-0.170031 -0.02425,-0.33169 -0.03125,-0.5 C 43.702788,70.892009 38.457386,76 32,76 25.542614,76 20.297212,70.892009 20.03125,64.5 z"/>
<rect width="26" x="50" y="64" rx="3" height="12" ry="3" style="fill:url(#linearGradient3723)" id="rect3721"/>
<g style="fill:#f2f2f2;font-family:Liberation Sans;line-height:125%;font-weight:bold;font-size:11.29931068px" id="text3751">
<path id="path3856" d="m 35.829,29.8897 0,-1.0759 c 0.176551,-0.386205 0.391723,-0.733791 0.645517,-1.04276 0.253792,-0.312641 0.518619,-0.597698 0.794483,-0.855172 0.279538,-0.261146 0.5554,-0.502066 0.827586,-0.722759 0.275859,-0.224364 0.522296,-0.439536 0.73931,-0.645517 0.220686,-0.209651 0.399077,-0.419306 0.535173,-0.628966 0.136088,-0.20965 0.204134,-0.432178 0.204138,-0.667586 -4e-06,-0.345741 -0.08644,-0.601373 -0.259311,-0.766896 -0.172877,-0.165511 -0.42667,-0.24827 -0.761379,-0.248276 -0.331037,6e-06 -0.58483,0.09012 -0.761379,0.270345 -0.172876,0.176558 -0.28506,0.443224 -0.336552,0.8 l -1.5614,-.0883 c 0.03678,-0.305282 0.112183,-0.592178 0.226207,-0.86069 0.114022,-0.268499 0.275861,-0.503901 0.485517,-0.706207 0.213332,-0.202291 0.478159,-0.360452 0.794483,-0.474483 0.319997,-0.117693 0.700687,-0.176543 1.14207,-0.176551 0.419306,8e-06 0.7908,0.04966 1.11448,0.148965 0.323674,0.09564 0.595858,0.237249 0.816552,0.424828 0.220685,0.187593 0.388041,0.417478 0.502069,0.689655 0.114017,0.268512 0.171029,0.575638 0.171035,0.921379 -6e-06,0.364144 -0.07173,0.693339 -0.215173,0.987587 -0.143453,0.294257 -0.327361,0.56644 -0.551724,0.816551 -0.224373,0.246441 -0.474487,0.478165 -0.750345,0.695173 -0.272188,0.217014 -0.537015,0.428508 -0.794483,0.634483 -0.257474,0.205979 -0.492876,0.413795 -0.706207,0.623448 -0.209657,0.209657 -0.365979,0.434024 -0.468965,0.673103 h 3.60828 v 1.27448 h -5.44"/>
<path id="path3858" d="m 47.5476,26 c -6e-06,0.742991 -0.06805,1.37012 -0.204138,1.88138 -0.136098,0.507588 -0.325523,0.919541 -0.568276,1.23586 -0.239085,0.312644 -0.524143,0.538851 -0.855173,0.678621 -0.32736,0.136092 -0.68598,0.204138 -1.07586,0.204138 -0.389888,0 -0.748508,-0.06805 -1.07586,-0.204138 -0.327358,-0.136092 -0.608737,-0.360459 -0.844138,-0.673104 -0.235403,-0.31632 -0.419311,-0.728274 -0.551724,-1.23586 -0.132414,-0.511261 -0.198621,-1.14023 -0.198621,-1.8869 0,-0.783444 0.06437,-1.4308 0.193104,-1.94207 0.132413,-0.514936 0.31816,-0.925051 0.557241,-1.23034 0.239079,-0.30528 0.524136,-0.518613 0.855173,-0.64 0.33471,-0.12505 0.704365,-0.187578 1.10896,-0.187586 0.378847,8e-06 0.730111,0.06254 1.05379,0.187586 0.327352,0.121387 0.608731,0.33472 0.844138,0.64 0.239075,0.305294 0.424822,0.715409 0.557242,1.23034 0.136086,0.511269 0.204132,1.15863 0.204138,1.94207 m -1.5559,0 c -5e-06,-0.548042 -0.02023,-1.00045 -0.06069,-1.35724 -0.04046,-0.360454 -0.104832,-0.645511 -0.193104,-0.855172 -0.08828,-0.213327 -0.204141,-0.362292 -0.347586,-0.446897 -0.139773,-0.08459 -0.310808,-0.12689 -0.513103,-0.126896 -0.217015,6e-06 -0.399083,0.04414 -0.546207,0.132414 -0.147129,0.0846 -0.266669,0.233569 -0.358621,0.446896 -0.08828,0.213339 -0.152646,0.500236 -0.193103,0.86069 -0.03678,0.356786 -0.05518,0.805522 -0.05517,1.34621 -2e-06,0.533336 0.02023,0.978394 0.06069,1.33517 0.04046,0.356784 0.104825,0.64368 0.193103,0.86069 0.08827,0.213335 0.204136,0.364139 0.347587,0.452414 0.143445,0.08828 0.319997,0.132415 0.529655,0.132414 0.202295,1e-06 0.375169,-0.04414 0.51862,-0.132414 0.143445,-0.08827 0.261146,-0.239079 0.353104,-0.452414 0.09195,-0.21701 0.158157,-0.503906 0.198621,-0.86069 0.04413,-0.356778 0.0662,-0.801836 0.06621,-1.33517"/>
<path id="path3860" d="m 53.8372,26 c -6e-06,0.742991 -0.06805,1.37012 -0.204138,1.88138 -0.136098,0.507588 -0.325523,0.919541 -0.568276,1.23586 -0.239085,0.312644 -0.524142,0.538851 -0.855172,0.678621 -0.327361,0.136092 -0.685981,0.204138 -1.07586,0.204138 -0.389887,0 -0.748508,-0.06805 -1.07586,-0.204138 -0.327358,-0.136092 -0.608737,-0.360459 -0.844138,-0.673104 -0.235403,-0.31632 -0.419311,-0.728274 -0.551724,-1.23586 -0.132414,-0.511261 -0.198621,-1.14023 -0.19862,-1.8869 -1e-06,-0.783444 0.06437,-1.4308 0.193103,-1.94207 0.132413,-0.514936 0.31816,-0.925051 0.557241,-1.23034 0.239079,-0.30528 0.524137,-0.518613 0.855173,-0.64 0.33471,-0.12505 0.704365,-0.187578 1.10896,-0.187586 0.378847,8e-06 0.730111,0.06254 1.05379,0.187586 0.327351,0.121387 0.60873,0.33472 0.844138,0.64 0.239075,0.305294 0.424822,0.715409 0.557241,1.23034 0.136086,0.511269 0.204132,1.15863 0.204138,1.94207 m -1.5559,0 c -5e-06,-0.548042 -0.02023,-1.00045 -0.06069,-1.35724 -0.04046,-0.360454 -0.104832,-0.645511 -0.193103,-0.855172 -0.08828,-0.213327 -0.204142,-0.362292 -0.347587,-0.446897 -0.139773,-0.08459 -0.310808,-0.12689 -0.513103,-0.126896 -0.217014,6e-06 -0.399083,0.04414 -0.546207,0.132414 -0.147129,0.0846 -0.266669,0.233569 -0.358621,0.446896 -0.08828,0.213339 -0.152645,0.500236 -0.193103,0.86069 -0.03678,0.356786 -0.05517,0.805522 -0.05517,1.34621 -2e-06,0.533336 0.02023,0.978394 0.06069,1.33517 0.04046,0.356784 0.104826,0.64368 0.193104,0.86069 0.08827,0.213335 0.204135,0.364139 0.347586,0.452414 0.143445,0.08828 0.319997,0.132415 0.529655,0.132414 0.202295,1e-06 0.375169,-0.04414 0.518621,-0.132414 0.143444,-0.08827 0.261145,-0.239079 0.353103,-0.452414 0.09195,-0.21701 0.158157,-0.503906 0.198621,-0.86069 0.04413,-0.356778 0.0662,-0.801836 0.06621,-1.33517"/>
<path id="path3862" d="m 60.0938,23.3462 c -0.349431,0.55173 -0.680465,1.0869 -0.993103,1.60552 -0.30897,0.518625 -0.579315,1.04092 -0.811035,1.5669 -0.231728,0.522302 -0.415636,1.06115 -0.551724,1.61655 -0.132417,0.551726 -0.198624,1.13655 -0.198621,1.75448 h -1.61655 c -2e-06,-0.614252 0.07172,-1.19724 0.215172,-1.74897 0.147124,-0.5554 0.345745,-1.09609 0.595862,-1.62207 0.250112,-0.525973 0.540687,-1.04459 0.871724,-1.55586 0.331031,-0.514937 0.680456,-1.03907 1.04828,-1.57241 h -3.86207 v -1.27448 h 5.30207 v 1.23034"/>
</g>
<rect width="56" x="20" y="25.5" height="0.5" style="opacity:.8" id="rect3755"/>
<g style="fill:#f2f2f2;font-family:Liberation Sans;line-height:125%;font-weight:bold;font-size:11.29931068px" id="text3771">
<path id="path3870" d="m 29.6041,43.6497 c -7e-06,0.353105 -0.06438,0.674944 -0.193103,0.965517 -0.128743,0.286898 -0.329202,0.533334 -0.60138,0.739311 -0.268511,0.205977 -0.614258,0.365977 -1.03724,0.48 -0.419315,0.110344 -0.919545,0.165517 -1.50069,0.165517 -0.514946,0 -0.969198,-0.04598 -1.36276,-0.137931 -0.393566,-0.09195 -0.731956,-0.228046 -1.01517,-0.408276 -0.279541,-0.180229 -0.507587,-0.402758 -0.684138,-0.667586 -0.172874,-0.268505 -0.297931,-0.575631 -0.375172,-0.92138 l 1.5724,-.2593 c 0.04414,0.172876 0.108503,0.331037 0.193103,0.474483 0.0846,0.14345 0.200458,0.268507 0.347586,0.375172 0.150802,0.10299 0.336549,0.18391 0.557242,0.242759 0.224364,0.05517 0.494709,0.08276 0.811034,0.08276 0.55172,1e-06 0.972869,-0.08276 1.26345,-0.248276 0.294247,-0.169194 0.441373,-0.432182 0.441379,-0.788966 -6e-06,-0.213331 -0.05886,-0.388043 -0.176552,-0.524138 -0.117706,-0.136089 -0.274028,-0.248273 -0.468965,-0.336552 -0.194948,-0.08827 -0.419315,-0.161835 -0.673104,-0.220689 -0.253797,-0.05885 -0.518624,-0.115859 -0.794483,-0.171035 -0.220693,-0.05149 -0.441382,-0.104824 -0.662069,-0.16 -0.220692,-0.05517 -0.432186,-0.121375 -0.634482,-0.19862 -0.198623,-0.07724 -0.38437,-0.169192 -0.557242,-0.275863 -0.172875,-0.106662 -0.323679,-0.237237 -0.452414,-0.391724 -0.125058,-0.158156 -0.224368,-0.342064 -0.297931,-0.551724 -0.06988,-0.20965 -0.104828,-0.456086 -0.104827,-0.73931 -1e-06,-0.386201 0.07724,-0.717235 0.231724,-0.993104 0.154482,-0.275855 0.367815,-0.500222 0.64,-0.673103 0.27586,-0.176544 0.603216,-0.30528 0.982069,-0.386207 0.378848,-0.08091 0.79264,-0.121371 1.24138,-0.121379 0.507582,8e-06 0.941605,0.04047 1.30207,0.121379 0.364133,0.07725 0.667581,0.196789 0.910345,0.358621 0.246431,0.161846 0.439534,0.365984 0.57931,0.612413 0.143442,0.242766 0.24827,0.527823 0.314483,0.855173 l -1.5779,.2152 c -0.08093,-0.334706 -0.246442,-0.58666 -0.496552,-0.755862 -0.246441,-0.169189 -0.601383,-0.253786 -1.06483,-0.253793 -0.2869,7e-06 -0.52598,0.02575 -0.717242,0.07724 -0.187589,0.04782 -0.338393,0.114029 -0.452413,0.19862 -0.110348,0.0846 -0.189428,0.183915 -0.237242,0.297931 -0.04782,0.110351 -0.07173,0.228052 -0.07172,0.353104 -2e-06,0.19127 0.04598,0.34943 0.137931,0.474482 0.09195,0.121385 0.220687,0.224373 0.386207,0.308966 0.165514,0.08093 0.362296,0.150809 0.590345,0.209655 0.23172,0.05518 0.485513,0.112189 0.761379,0.171035 0.242754,0.0515 0.483674,0.106671 0.722759,0.165517 0.239075,0.05518 0.467121,0.121384 0.684138,0.198621 0.217006,0.07724 0.419304,0.171038 0.606896,0.281379 0.18758,0.110349 0.349419,0.24644 0.485518,0.408276 0.139763,0.158164 0.248269,0.347589 0.325517,0.568276 0.08091,0.220692 0.121372,0.481841 0.121379,0.783448"/>
<path id="path3872" d="m 32.3076,39.92 0,3.349 c -3e-06,0.231727 0.01839,0.44506 0.05517,0.64 0.03678,0.191267 0.09747,0.356784 0.182069,0.496552 0.0846,0.136093 0.193101,0.24276 0.325517,0.32 0.136089,0.07724 0.301606,0.115863 0.496552,0.115862 0.187583,1e-06 0.356778,-0.04046 0.507586,-0.121379 0.154479,-0.0846 0.286893,-0.202298 0.397242,-0.353104 0.11034,-0.154481 0.194938,-0.336549 0.253793,-0.546207 0.06252,-0.213331 0.09379,-0.446894 0.09379,-0.700689 v -3.2 h 1.55035 v 4.63448 c -7e-06,0.125058 -7e-06,0.257472 0,0.397241 0.0037,0.136093 0.0074,0.266667 0.01103,0.391724 0.0074,0.12138 0.01287,0.231725 0.01655,0.331035 0.0074,0.09563 0.01287,0.167356 0.01655,0.215172 h -1.47862 c -0.0037,-0.04414 -0.01104,-0.114023 -0.02207,-0.209655 -0.0074,-0.09931 -0.01472,-0.207816 -0.02207,-0.325517 -0.0037,-0.117701 -0.0092,-0.235402 -0.01655,-0.353104 -0.0037,-0.1177 -0.0055,-0.21701 -0.0055,-0.297931 h -0.02759 c -0.205982,0.452415 -0.46897,0.78161 -0.788966,0.987586 -0.316325,0.205977 -0.693336,0.308966 -1.13103,0.308966 -0.356784,0 -0.660232,-0.05885 -0.910345,-0.176552 -0.250117,-0.117701 -0.454254,-0.277701 -0.612414,-0.48 -0.154484,-0.205976 -0.266668,-0.448734 -0.336552,-0.728276 -0.06989,-0.279538 -0.104828,-0.581147 -0.104827,-0.904827 v -3.79035 h 1.55034"/>
<path id="path3874" d="m 41.6207,45.8897 0,-3.349 c -5e-06,-0.23172 -0.0184,-0.443214 -0.05517,-0.634482 -0.03679,-0.194939 -0.09748,-0.360456 -0.182068,-0.496552 -0.0846,-0.139766 -0.194947,-0.248271 -0.331035,-0.325517 -0.136096,-0.07724 -0.301613,-0.115857 -0.496552,-0.115862 -0.187589,5e-06 -0.358624,0.0423 -0.513103,0.126896 -0.150808,0.08092 -0.281382,0.198625 -0.391724,0.353104 -0.110348,0.150809 -0.196784,0.332877 -0.259311,0.546207 -0.05885,0.209658 -0.08828,0.441382 -0.08828,0.695172 v 3.2 h -1.55034 v -4.63448 c -1e-06,-0.128731 -0.0018,-0.261144 -0.0055,-0.397241 0,-0.136087 -0.0037,-0.264823 -0.01103,-0.386207 -0.0037,-0.125052 -0.0074,-0.235397 -0.01103,-0.331035 -0.0037,-0.0993 -0.0092,-0.172867 -0.01655,-0.220689 h 1.47862 c 0.0074,0.04414 0.01471,0.115868 0.02207,0.215172 0.0074,0.09564 0.01471,0.202305 0.02207,0.32 0.0074,0.117707 0.01287,0.235408 0.01655,0.353104 0.0074,0.117706 0.01103,0.217016 0.01103,0.297931 h 0.02207 c 0.209653,-0.456087 0.472641,-0.787121 0.788966,-0.993104 0.316318,-0.205971 0.69333,-0.308959 1.13103,-0.308965 0.360455,6e-06 0.663903,0.05886 0.910344,0.176551 0.25011,0.117707 0.452409,0.279546 0.606897,0.485518 0.158155,0.205982 0.272178,0.44874 0.342069,0.728276 0.06988,0.279544 0.104821,0.581153 0.104828,0.904827 v 3.79035 h -1.54483"/>
</g>
<rect width="26" x="20" y="41.5" height="0.5" style="opacity:.8" id="rect3757"/>
<g style="fill:#f2f2f2;font-family:Liberation Sans;line-height:125%;font-weight:bold;font-size:21.56086349px" id="text3763" transform="scale(0.95407876,1.0481315)">
<path id="path3865" d="m 65.1006,45.7958 c -1.1e-05,1.41774 -0.129853,2.6144 -0.389527,3.58997 -0.259695,0.968557 -0.621148,1.75463 -1.08436,2.35822 -0.456212,0.596574 -1.00015,1.02821 -1.6318,1.29492 -0.624655,0.259685 -1.30896,0.389527 -2.05291,0.389528 -0.743967,-1e-06 -1.42827,-0.129843 -2.05291,-0.389528 -0.624651,-0.259684 -1.16157,-0.687813 -1.61075,-1.28439 -0.449187,-0.60359 -0.800112,-1.38966 -1.05278,-2.35822 -0.252667,-0.975569 -0.379,-2.17573 -0.378999,-3.6005 -1e-06,-1.49493 0.122823,-2.73019 0.368472,-3.70577 0.252665,-0.982579 0.607099,-1.76514 1.0633,-2.34769 0.4562,-0.582523 1.00013,-0.989596 1.6318,-1.22122 0.638679,-0.238615 1.34404,-0.357929 2.11608,-0.357944 0.7229,1.5e-05 1.39317,0.119329 2.0108,0.357944 0.624638,0.231625 1.16155,0.638698 1.61075,1.22122 0.456193,0.582549 0.810627,1.36511 1.0633,2.34769 0.259674,0.975583 0.389516,2.21084 0.389527,3.70577 m -2.9688,0 c -8e-06,-1.04575 -0.03861,-1.90903 -0.115805,-2.58983 -0.07721,-0.687803 -0.200035,-1.23174 -0.368472,-1.6318 -0.168451,-0.407062 -0.389534,-0.691311 -0.663249,-0.852749 -0.26671,-0.161413 -0.59307,-0.242126 -0.979082,-0.242139 -0.414098,1.3e-05 -0.761514,0.08423 -1.04225,0.252667 -0.280745,0.161438 -0.508846,0.445687 -0.684305,0.852749 -0.168448,0.407084 -0.291272,0.954528 -0.368471,1.64233 -0.07019,0.680805 -0.105282,1.53706 -0.105278,2.56878 -4e-06,1.01769 0.0386,1.86693 0.115805,2.54772 0.0772,0.6808 0.200024,1.22824 0.368472,1.64233 0.16844,0.407077 0.389523,0.694835 0.663249,0.863277 0.273717,0.168447 0.610605,0.252669 1.01067,0.252667 0.386012,2e-06 0.715881,-0.08422 0.98961,-0.252667 0.273714,-0.168442 0.498307,-0.4562 0.673777,-0.863277 0.175455,-0.414088 0.301788,-0.961531 0.378999,-1.64233 0.08421,-0.68079 0.126325,-1.53003 0.126333,-2.54772"/>
<path id="path3867" d="m 67.3535,53.2179 0,-2.2003 3.6742,0 0,-10.1172 -3.5584,2.2214 0,-2.3266 3.7163,-2.4109 2.8004,0 0,12.6333 3.4005,0 0,2.2003 -10.033,0"/>
</g>
<rect width="26" x="50" y="47.5" height="0.5" style="opacity:.8" id="rect3759"/>
<g style="fill:#f2f2f2;font-family:Liberation Sans;line-height:125%;font-weight:bold;font-size:11.29931068px" id="text3767">
<path id="path3849" d="m 54.4621,73.9972 c -0.389888,0 -0.737473,-0.04046 -1.04276,-0.121379 -0.305289,-0.08092 -0.570116,-0.209655 -0.794482,-0.386207 -0.224369,-0.176551 -0.410116,-0.404597 -0.557242,-0.684138 -0.143448,-0.283217 -0.251954,-0.625286 -0.325517,-1.02621 l 1.6166,-.2372 c 0.03678,0.217013 0.08827,0.400921 0.154483,0.551724 0.0662,0.147128 0.145285,0.268507 0.237241,0.364138 0.09563,0.09196 0.204135,0.160001 0.325517,0.204138 0.121377,0.04046 0.25379,0.06069 0.397242,0.06069 0.323674,1e-06 0.568272,-0.108504 0.733793,-0.325517 0.169191,-0.21701 0.253789,-0.527814 0.253793,-0.932414 v -4.07724 h -1.55035 v -1.27448 h 3.17241 v 5.3131 c -6e-06,0.393566 -0.05702,0.750347 -0.171035,1.07035 -0.114028,0.316323 -0.283223,0.586668 -0.507586,0.811035 -0.220694,0.22069 -0.494717,0.391724 -0.822069,0.513103 -0.323682,0.117701 -0.697015,0.176552 -1.12,0.176552"/>
<path id="path3851" d="m 64.1117,73.8869 -.6897,-1.9862 -2.9628,0 -.6897,1.9862 -1.6276,0 2.8359,-7.7738 1.92,0 2.8248,7.7738 -1.611,0 m -1.8207,-5.4455 c -0.04414,-0.12873 -0.08828,-0.257466 -0.132414,-0.386207 -0.04046,-0.132408 -0.07725,-0.251948 -0.110345,-0.358621 -0.02943,-0.110338 -0.05518,-0.200453 -0.07724,-0.270345 -0.0184,-0.06988 -0.02943,-0.108499 -0.0331,-0.115862 -0.0037,0.01104 -0.01472,0.0515 -0.0331,0.12138 -0.01839,0.06989 -0.04414,0.158167 -0.07724,0.264827 -0.02943,0.106673 -0.06621,0.226213 -0.110344,0.358621 -0.04046,0.128741 -0.08276,0.257477 -0.126897,0.386207 l -.7669,2.2345 h 2.23448 l -.7669,-2.2345"/>
<path id="path3853" d="m 71.5159,73.8869 -3.3876,-5.9862 c 0.01839,0.161845 0.03494,0.323684 0.04966,0.485517 0.01471,0.139776 0.02575,0.29058 0.0331,0.452414 0.01103,0.161844 0.01655,0.316327 0.01655,0.463449 v 4.58483 h -1.44552 v -7.77379 h 1.85931 l 3.4372,6.0359 c -0.0184,-0.154481 -0.03495,-0.31632 -0.04966,-0.485517 -0.01472,-0.143446 -0.02759,-0.305285 -0.03862,-0.485517 -0.0074,-0.180227 -0.01104,-0.362296 -0.01103,-0.546207 v -4.51862 h 1.44552 v 7.77379 h -1.90897"/>
</g>
<rect width="26" x="50" y="69.5" height="0.5" style="opacity:.8" id="rect3761"/>
<g style="opacity:.3;fill:#f2f2f2" id="g3823">
<rect width="1" x="32" y="53" height="3" id="rect3799"/>
<rect width="1" x="59.784241" y="28.406487" height="3" id="rect3801" transform="matrix(0.8660254,0.5,-0.5,0.8660254,0,0)"/>
<rect width="1" x="71.549339" y="-6.7842417" height="3" id="rect3803" transform="matrix(0.5,0.8660254,-0.8660254,0.5,0,0)"/>
<rect width="1" x="64.142853" y="-43.142857" height="3" id="rect3805" transform="matrix(0,1,-1,0,0,0)"/>
<rect width="1" x="39.549339" y="-70.927101" height="3" id="rect3807" transform="matrix(-0.5,0.8660254,-0.8660254,-0.5,0,0)"/>
<rect width="1" x="4.3586111" y="-82.6922" height="3" id="rect3809" transform="matrix(-0.8660254,0.5,-0.5,-0.8660254,0,0)"/>
<rect width="1" x="-32.000004" y="-75.285713" height="3" id="rect3811" transform="scale(-1,-1)"/>
<rect width="1" x="-59.784245" y="-50.6922" height="3" id="rect3813" transform="matrix(-0.8660254,-0.5,0.5,-0.8660254,0,0)"/>
<rect width="1" x="-71.549347" y="-15.501472" height="3" id="rect3815" transform="matrix(-0.5,-0.8660254,0.8660254,-0.5,0,0)"/>
<rect width="1" x="-64.14286" y="20.857143" height="3" id="rect3817" transform="matrix(0,-1,1,0,0,0)"/>
<rect width="1" x="-39.549347" y="48.641384" height="3" id="rect3819" transform="matrix(0.5,-0.8660254,0.8660254,0.5,0,0)"/>
<rect width="1" x="-4.3586187" y="60.406487" height="3" id="rect3821" transform="matrix(0.8660254,-0.5,0.5,0.8660254,0,0)"/>
</g>
<rect width="1" x="-14.845207" y="-81.101463" height="11" style="fill:#d40000" id="rect3844" transform="matrix(-0.96592583,0.25881905,-0.25881905,-0.96592583,0,0)"/>
<g style="fill:#f2f2f2">
<path id="path3837" d="m 33.8401,64.0539 a 1.89404,1.89404 0 1,1 -3.78807,0 1.89404,1.89404 0 1,1 3.78807,0 z " transform="matrix(1.0559461,0,0,1.0559461,-1.7333318,-3.6374918)"/>
<path id="rect3839" d="m 25.9485,58.7378 .8115,-.8115 6.3265,4.9872 -2.1731,2.1731 -4.9649,-6.3488 z "/>
<path id="path3842" d="m 40.3812,58.5167 .5738,.9939 -8.1867,5.8201 -1.5366,-2.6615 9.1495,-4.1525 z "/>
</g>
<path id="path3846" d="m 33.8401,64.0539 a 1.89404,1.89404 0 1,1 -3.78807,0 1.89404,1.89404 0 1,1 3.78807,0 z " transform="matrix(0.52261278,0,0,0.52261278,15.304574,30.524601)"/>
<g style="color:#000">
<path style="font-family:Abandoned Bitplane;opacity:.15;text-transform:none;text-indent:0;stroke-width:4;line-height:normal" id="rect3222-3" d="m 19,13 c -3.28941,0 -6,2.71059 -6,6 v 58 c 0,3.28941 2.71059,6 6,6 h 58 c 3.28941,0 6,-2.71059 6,-6 v -58 c 0,-3.28941 -2.71059,-6 -6,-6 h -58 z  m 0,4 58,0 c 1.14259,0 2,0.857406 2,2 v 58 c 0,1.14259 -0.857406,2 -2,2 h -58 c -1.14259,0 -2,-0.857406 -2,-2 v -58 c 0,-1.14259 0.857406,-2 2,-2 z "/>
<path style="opacity:.3" id="rect3981" d="m 17,14 c -1.662,0 -3,1.338 -3,3 v 62 c 0,1.662 1.338,3 3,3 h 62 c 1.662,0 3,-1.338 3,-3 v -62 c 0,-1.662 -1.338,-3 -3,-3 h -62 z  m 0,1.9375 62,0 c 0.618163,0 1.0625,0.444337 1.0625,1.0625 v 62 c 0,0.618163 -0.444337,1.0625 -1.0625,1.0625 h -62 c -0.618163,0 -1.0625,-0.444337 -1.0625,-1.0625 v -62 c 0,-0.618163 0.444337,-1.0625 1.0625,-1.0625 z "/>
<path style="opacity:.6" id="rect3977" d="m 17,14 c -1.662,0 -3,1.338 -3,3 v 62 c 0,1.662 1.338,3 3,3 h 62 c 1.662,0 3,-1.338 3,-3 v -62 c 0,-1.662 -1.338,-3 -3,-3 h -62 z  m 0,.9688 62,0 c 1.14008,0 2.03125,0.891169 2.03125,2.03125 v 62 c 0,1.14008 -0.891169,2.03125 -2.03125,2.03125 h -62 c -1.14008,0 -2.03125,-0.891169 -2.03125,-2.03125 v -62 c 0,-1.14008 0.891169,-2.03125 2.03125,-2.03125 z "/>
</g>
</g>
</g>
<g id="layer1">
<g style="stroke:none">
<path style="fill:url(#linearGradient3427)" id="rect2419" d="m 12,6 c -3.324,0 -6,2.676 -6,6 v 72 c 0,3.324 2.676,6 6,6 h 72 c 3.324,0 6,-2.676 6,-6 v -72 c 0,-3.324 -2.676,-6 -6,-6 h -72 z  m 5,7 62,0 c 2.216,0 4,1.784 4,4 v 62 c 1e-06,2.216 -1.784,4 -4,4 h -62 c -2.216,1e-06 -4,-1.784 -4,-4 v -62 c 0,-2.216 1.784,-4 4,-4 z "/>
<path style="opacity:.5;fill:url(#linearGradient3188)" id="rect3728" d="m 12,6 c -3.324,0 -6,2.676 -6,6 v 2 68 2 c 0,0.334721 0.04135,0.6507 0.09375,0.96875 0.0487,0.295596 0.09704,0.596915 0.1875,0.875 0.00988,0.03038 0.020892,0.0636 0.03125,0.09375 0.098865,0.287771 0.23488,0.547452 0.375,0.8125 0.144592,0.273507 0.315616,0.535615 0.5,0.78125 0.184384,0.245635 0.373776,0.473472 0.59375,0.6875 0.439947,0.428056 0.94291,0.814526 1.5,1.09375 0.278545,0.139612 0.573473,0.246947 0.875,0.34375 -0.256202,-0.100222 -0.486711,-0.236272 -0.71875,-0.375 -0.00741,-0.0044 -0.023866,0.0045 -0.03125,0 -0.031933,-0.0193 -0.062293,-0.04251 -0.09375,-0.0625 -0.120395,-0.0767 -0.231023,-0.163513 -0.34375,-0.25 -0.106173,-0.0808 -0.213281,-0.161112 -0.3125,-0.25 -0.17793,-0.161433 -0.34746,-0.345388 -0.5,-0.53125 -0.107579,-0.130255 -0.218394,-0.265285 -0.3125,-0.40625 -0.025089,-0.03838 -0.038446,-0.08587 -0.0625,-0.125 -0.064763,-0.103032 -0.130228,-0.204517 -0.1875,-0.3125 -0.101008,-0.194706 -0.205675,-0.415701 -0.28125,-0.625 -0.00796,-0.02181 -0.023589,-0.04055 -0.03125,-0.0625 -0.0318251,-0.09195 -0.0358045,-0.186831 -0.0625,-0.28125 -0.0303323,-0.106618 -0.0703894,-0.203031 -0.09375,-0.3125 -0.0728786,-0.341512 -0.125,-0.698205 -0.125,-1.0625 v -2 -68 -2 c 0,-2.78185 2.21815,-5 5,-5 h 2 68 2 c 2.78185,0 5,2.21815 5,5 v 2 68 2 c 0,0.364295 -0.05212,0.720988 -0.125,1.0625 -0.04415,0.206893 -0.08838,0.397658 -0.15625,0.59375 -0.0077,0.02195 -0.0233,0.04069 -0.03125,0.0625 -0.06274,0.173739 -0.138383,0.367449 -0.21875,0.53125 -0.04158,0.0828 -0.07904,0.169954 -0.125,0.25 -0.0546,0.09721 -0.126774,0.18835 -0.1875,0.28125 -0.09411,0.140965 -0.204921,0.275995 -0.3125,0.40625 -0.143174,0.17445 -0.303141,0.346998 -0.46875,0.5 -0.01117,0.0102 -0.01998,0.02115 -0.03125,0.03125 -0.138386,0.125556 -0.285091,0.234436 -0.4375,0.34375 -0.102571,0.07315 -0.204318,0.153364 -0.3125,0.21875 -0.0074,0.0045 -0.02384,-0.0044 -0.03125,0 -0.232039,0.138728 -0.462548,0.274778 -0.71875,0.375 0.301527,-0.0968 0.596455,-0.204138 0.875,-0.34375 0.55709,-0.279224 1.06005,-0.665694 1.5,-1.09375 0.219973,-0.214028 0.409366,-0.441865 0.59375,-0.6875 0.184384,-0.245635 0.355408,-0.507743 0.5,-0.78125 0.14012,-0.265048 0.276135,-0.524729 0.375,-0.8125 0.01041,-0.03078 0.02133,-0.06274 0.03125,-0.09375 0.09046,-0.278085 0.1388,-0.579404 0.1875,-0.875 0.0524,-0.31805 0.09375,-0.634029 0.09375,-0.96875 v -2 -68 -2 c 0,-3.324 -2.676,-6 -6,-6 h -72 z "/>
<path style="fill:url(#linearGradient3279)" id="rect3425" d="m 17,12 c -2.7527,0 -5,2.2473 -5,5 v 62 c 0,2.7527 2.2473,5 5,5 h 62 c 2.7527,0 5,-2.2473 5,-5 v -62 c 0,-2.7527 -2.2473,-5 -5,-5 h -62 z  m 0,2 62,0 c 1.6793,0 3,1.3207 3,3 v 62 c 1e-06,1.6793 -1.3207,3 -3,3 h -62 c -1.6793,0 -3,-1.3207 -3,-3 v -62 c 0,-1.6793 1.3207,-3 3,-3 z "/>
<path style="opacity:.4;fill:url(#radialGradient2874)" id="path3615" d="M 12,90 C 8.676,90 6,87.324 6,84 L 6,82 6,14 6,12 c 0,-0.334721 0.04135,-0.6507 0.09375,-0.96875 0.0487,-0.295596 0.09704,-0.596915 0.1875,-0.875 C 6.29113,10.12587 6.302142,10.09265 6.3125,10.0625 6.411365,9.774729 6.5473802,9.515048 6.6875,9.25 6.8320918,8.976493 7.0031161,8.714385 7.1875,8.46875 7.3718839,8.223115 7.5612765,7.995278 7.78125,7.78125 8.221197,7.353194 8.72416,6.966724 9.28125,6.6875 9.559795,6.547888 9.8547231,6.440553 10.15625,6.34375 9.9000482,6.443972 9.6695391,6.580022 9.4375,6.71875 c -0.00741,0.0044 -0.023866,-0.0045 -0.03125,0 -0.031933,0.0193 -0.062293,0.04251 -0.09375,0.0625 -0.120395,0.0767 -0.2310226,0.163513 -0.34375,0.25 -0.1061728,0.0808 -0.2132809,0.161112 -0.3125,0.25 C 8.4783201,7.442683 8.3087904,7.626638 8.15625,7.8125 8.0486711,7.942755 7.9378561,8.077785 7.84375,8.21875 7.818661,8.25713 7.805304,8.30462 7.78125,8.34375 7.716487,8.446782 7.6510225,8.548267 7.59375,8.65625 7.4927417,8.850956 7.3880752,9.071951 7.3125,9.28125 7.30454,9.30306 7.288911,9.3218 7.28125,9.34375 7.2494249,9.4357 7.2454455,9.530581 7.21875,9.625 7.1884177,9.731618 7.1483606,9.828031 7.125,9.9375 7.0521214,10.279012 7,10.635705 7,11 l 0,2 0,68 0,2 c 0,2.781848 2.2181517,5 5,5 l 2,0 68,0 2,0 c 2.781848,0 5,-2.218152 5,-5 l 0,-2 0,-68 0,-2 C 89,10.635705 88.94788,10.279012 88.875,9.9375 88.83085,9.730607 88.78662,9.539842 88.71875,9.34375 88.71105,9.3218 88.69545,9.30306 88.6875,9.28125 88.62476,9.107511 88.549117,8.913801 88.46875,8.75 88.42717,8.6672 88.38971,8.580046 88.34375,8.5 88.28915,8.40279 88.216976,8.31165 88.15625,8.21875 88.06214,8.077785 87.951329,7.942755 87.84375,7.8125 87.700576,7.63805 87.540609,7.465502 87.375,7.3125 87.36383,7.3023 87.35502,7.29135 87.34375,7.28125 87.205364,7.155694 87.058659,7.046814 86.90625,6.9375 86.803679,6.86435 86.701932,6.784136 86.59375,6.71875 c -0.0074,-0.0045 -0.02384,0.0044 -0.03125,0 -0.232039,-0.138728 -0.462548,-0.274778 -0.71875,-0.375 0.301527,0.0968 0.596455,0.204138 0.875,0.34375 0.55709,0.279224 1.060053,0.665694 1.5,1.09375 0.219973,0.214028 0.409366,0.441865 0.59375,0.6875 0.184384,0.245635 0.355408,0.507743 0.5,0.78125 0.14012,0.265048 0.276135,0.524729 0.375,0.8125 0.01041,0.03078 0.02133,0.06274 0.03125,0.09375 0.09046,0.278085 0.1388,0.579404 0.1875,0.875 C 89.95865,11.3493 90,11.665279 90,12 l 0,2 0,68 0,2 c 0,3.324 -2.676,6 -6,6 l -72,0 z"/>
</g>
<rect width="66" x="15" y="15" rx="12" height="66" ry="12" style="opacity:.1;fill:url(#linearGradient2908);filter:url(#filter3794);stroke:#fff;stroke-linecap:round;stroke-width:.5;clip-path:url(#clipPath3613)" id="rect3171"/>
</g>
</svg>
