<svg width="96" version="1.0" xmlns="http://www.w3.org/2000/svg" height="96" xmlns:xlink="http://www.w3.org/1999/xlink">
<defs id="defs2410">
<clipPath id="clipPath3613">
<rect width="84" x="6" y="6" rx="6" height="84" ry="6" style="fill:#fff;stroke:none" id="rect3615"/>
</clipPath>
<filter width="1.3839999" x="-0.192" y="-0.192" height="1.3839999" style="color-interpolation-filters:sRGB" id="filter3794">
<feGaussianBlur stdDeviation="5.28" id="feGaussianBlur3796"/>
</filter>
<filter style="color-interpolation-filters:sRGB" id="filter3174">
<feGaussianBlur stdDeviation="1.71" id="feGaussianBlur3176"/>
</filter>
<linearGradient gradientTransform="matrix(1.0058652,0,0,0.994169,100,0)" id="ButtonShadow-0" y1="92.539597" x1="45.447727" y2="7.0165396" x2="45.447727" gradientUnits="userSpaceOnUse">
<stop offset="0" id="stop3750-8"/>
<stop offset="1" style="stop-opacity:.588" id="stop3752-5"/>
</linearGradient>
<linearGradient gradientTransform="matrix(1.0238095,0,0,1.0119048,-1.1428571,-98.071429)" id="linearGradient3780" xlink:href="#ButtonShadow-0" y1="6.1317081" x1="32.251034" y2="90.238609" x2="32.251034" gradientUnits="userSpaceOnUse"/>
<linearGradient gradientTransform="matrix(1.0238095,0,0,1.0119048,-1.1428571,-98.071429)" id="linearGradient3026" xlink:href="#ButtonShadow-0" y1="6.1317081" x1="32.251034" y2="90.238609" x2="32.251034" gradientUnits="userSpaceOnUse"/>
<linearGradient gradientTransform="matrix(0,-1,1,0,0,96)" id="linearGradient3709" xlink:href="#linearGradient3703" y1="48" x1="12.75" y2="48" x2="83.25" gradientUnits="userSpaceOnUse"/>
<linearGradient gradientTransform="matrix(1.0238095,0,0,1.0119048,-1.1428571,-98.071429)" id="linearGradient3772" xlink:href="#ButtonShadow-0" y1="6.1317081" x1="32.251034" y2="90.238609" x2="32.251034" gradientUnits="userSpaceOnUse"/>
<linearGradient gradientTransform="translate(0,-97)" id="linearGradient3721" xlink:href="#ButtonShadow-0" y1="6.1317081" x1="32.251034" y2="90.238609" x2="32.251034" gradientUnits="userSpaceOnUse"/>
<linearGradient id="linearGradient3617" xlink:href="#linearGradient3676" y1="90" x1="48" y2="5.9877172" x2="48" gradientUnits="userSpaceOnUse"/>
<linearGradient gradientTransform="matrix(1.0238095,0,0,1.0119048,-1.1428571,-98.071429)" id="linearGradient3725" xlink:href="#ButtonShadow-0" y1="6.1317081" x1="32.251034" y2="90.238609" x2="32.251034" gradientUnits="userSpaceOnUse"/>
<linearGradient id="linearGradient3767">
<stop offset="0" style="stop-color:#6bd107" id="stop3769"/>
<stop offset="1" style="stop-color:#6bd107;stop-opacity:0" id="stop3771"/>
</linearGradient>
<linearGradient id="linearGradient3703">
<stop offset="0" style="stop-color:#a8e66c" id="stop3705"/>
<stop offset="1" style="stop-color:#dbfabd" id="stop3707"/>
</linearGradient>
<linearGradient id="linearGradient3676">
<stop offset="0" style="stop-color:#68d003" id="stop3678"/>
<stop offset="1" style="stop-color:#c0f988" id="stop3680"/>
</linearGradient>
<linearGradient id="linearGradient3737">
<stop offset="0" style="stop-color:#fff" id="stop3739"/>
<stop offset="1" style="stop-color:#fff;stop-opacity:0" id="stop3741"/>
</linearGradient>
<linearGradient id="linearGradient3613" xlink:href="#linearGradient3737" y1="20.220806" x1="48" y2="138.66119" x2="48" gradientUnits="userSpaceOnUse"/>
<linearGradient gradientTransform="scale(1.0058652,0.994169)" id="ButtonShadow" y1="92.539597" x1="45.447727" y2="7.0165396" x2="45.447727" gradientUnits="userSpaceOnUse">
<stop offset="0" id="stop3750"/>
<stop offset="1" style="stop-opacity:.588" id="stop3752"/>
</linearGradient>
<linearGradient id="linearGradient3188" xlink:href="#linearGradient3737" y1="6" x1="36.357143" y2="63.893143" x2="36.357143" gradientUnits="userSpaceOnUse"/>
<radialGradient fx="48" fy="90.171875" cx="48" cy="90.171875" gradientTransform="matrix(1.1573129,0,0,0.99590774,-7.5510206,0.19713193)" r="42" id="radialGradient3619" xlink:href="#linearGradient3737" gradientUnits="userSpaceOnUse"/>
<radialGradient fx="48" fy="48" cx="48" cy="48" r="35.25" id="radialGradient3773" xlink:href="#linearGradient3767" gradientUnits="userSpaceOnUse"/>
</defs>
<g style="display:none" id="layer2">
<rect width="86" x="5" y="7" rx="6" height="85" ry="6" style="opacity:.9;fill:url(#ButtonShadow);filter:url(#filter3174);stroke:none" id="rect3745"/>
</g>
<g style="stroke:none" id="layer3">
<path style="opacity:.08;fill:url(#linearGradient3026)" id="path3786" d="m 12,-95.0312 c -5.51109,0 -10.0312,4.52016 -10.0312,10.0312 v 71 c 0,5.51109 4.52016,10.0312 10.0312,10.0312 h 72 c 5.51109,0 10.0312,-4.52016 10.0312,-10.0312 v -71 c 0,-5.51109 -4.52016,-10.0312 -10.0312,-10.0312 h -72 z " transform="scale(1,-1)"/>
<path style="opacity:.1;fill:url(#linearGradient3780)" id="path3778" d="m 12,-94.0312 c -4.97163,0 -9.03125,4.05962 -9.03125,9.03125 v 71 c 0,4.97163 4.05962,9.03125 9.03125,9.03125 h 72 c 4.97163,0 9.03125,-4.05962 9.03125,-9.03125 v -71 c 0,-4.97163 -4.05962,-9.03125 -9.03125,-9.03125 h -72 z " transform="scale(1,-1)"/>
<path style="opacity:.2;fill:url(#linearGradient3772)" id="path3770" d="m 12,-93 c -4.40913,0 -8,3.59087 -8,8 v 71 c 0,4.40913 3.59087,8 8,8 h 72 c 4.40913,0 8,-3.59087 8,-8 v -71 c 0,-4.40913 -3.59087,-8 -8,-8 h -72 z " transform="scale(1,-1)"/>
<rect width="86" x="5" y="-92" rx="7" height="85" ry="7" style="opacity:.3;fill:url(#linearGradient3725)" id="rect3723" transform="scale(1,-1)"/>
<rect width="84" x="6" y="-91" rx="6" height="84" ry="6" style="opacity:.45;fill:url(#linearGradient3721)" id="rect3716" transform="scale(1,-1)"/>
</g>
<g style="stroke:none" id="layer1">
<rect width="84" x="6" y="6" rx="6" height="84" ry="6" style="fill:url(#linearGradient3617)" id="rect2419"/>
<path style="opacity:.5;fill:url(#linearGradient3188)" id="rect3728" d="m 12,6 c -3.324,0 -6,2.676 -6,6 v 2 68 2 c 0,0.334721 0.04135,0.6507 0.09375,0.96875 0.0487,0.295596 0.09704,0.596915 0.1875,0.875 0.00988,0.03038 0.020892,0.0636 0.03125,0.09375 0.098865,0.287771 0.23488,0.547452 0.375,0.8125 0.144592,0.273507 0.315616,0.535615 0.5,0.78125 0.184384,0.245635 0.373776,0.473472 0.59375,0.6875 0.439947,0.428056 0.94291,0.814526 1.5,1.09375 0.278545,0.139612 0.573473,0.246947 0.875,0.34375 -0.256202,-0.100222 -0.486711,-0.236272 -0.71875,-0.375 -0.00741,-0.0044 -0.023866,0.0045 -0.03125,0 -0.031933,-0.0193 -0.062293,-0.04251 -0.09375,-0.0625 -0.120395,-0.0767 -0.231023,-0.163513 -0.34375,-0.25 -0.106173,-0.0808 -0.213281,-0.161112 -0.3125,-0.25 -0.17793,-0.161433 -0.34746,-0.345388 -0.5,-0.53125 -0.107579,-0.130255 -0.218394,-0.265285 -0.3125,-0.40625 -0.025089,-0.03838 -0.038446,-0.08587 -0.0625,-0.125 -0.064763,-0.103032 -0.130228,-0.204517 -0.1875,-0.3125 -0.101008,-0.194706 -0.205675,-0.415701 -0.28125,-0.625 -0.00796,-0.02181 -0.023589,-0.04055 -0.03125,-0.0625 -0.0318251,-0.09195 -0.0358045,-0.186831 -0.0625,-0.28125 -0.0303323,-0.106618 -0.0703894,-0.203031 -0.09375,-0.3125 -0.0728786,-0.341512 -0.125,-0.698205 -0.125,-1.0625 v -2 -68 -2 c 0,-2.78185 2.21815,-5 5,-5 h 2 68 2 c 2.78185,0 5,2.21815 5,5 v 2 68 2 c 0,0.364295 -0.05212,0.720988 -0.125,1.0625 -0.04415,0.206893 -0.08838,0.397658 -0.15625,0.59375 -0.0077,0.02195 -0.0233,0.04069 -0.03125,0.0625 -0.06274,0.173739 -0.138383,0.367449 -0.21875,0.53125 -0.04158,0.0828 -0.07904,0.169954 -0.125,0.25 -0.0546,0.09721 -0.126774,0.18835 -0.1875,0.28125 -0.09411,0.140965 -0.204921,0.275995 -0.3125,0.40625 -0.143174,0.17445 -0.303141,0.346998 -0.46875,0.5 -0.01117,0.0102 -0.01998,0.02115 -0.03125,0.03125 -0.138386,0.125556 -0.285091,0.234436 -0.4375,0.34375 -0.102571,0.07315 -0.204318,0.153364 -0.3125,0.21875 -0.0074,0.0045 -0.02384,-0.0044 -0.03125,0 -0.232039,0.138728 -0.462548,0.274778 -0.71875,0.375 0.301527,-0.0968 0.596455,-0.204138 0.875,-0.34375 0.55709,-0.279224 1.06005,-0.665694 1.5,-1.09375 0.219973,-0.214028 0.409366,-0.441865 0.59375,-0.6875 0.184384,-0.245635 0.355408,-0.507743 0.5,-0.78125 0.14012,-0.265048 0.276135,-0.524729 0.375,-0.8125 0.01041,-0.03078 0.02133,-0.06274 0.03125,-0.09375 0.09046,-0.278085 0.1388,-0.579404 0.1875,-0.875 0.0524,-0.31805 0.09375,-0.634029 0.09375,-0.96875 v -2 -68 -2 c 0,-3.324 -2.676,-6 -6,-6 h -72 z "/>
<path style="opacity:.3;fill:url(#radialGradient3619)" id="path3615" d="M 12,90 C 8.676,90 6,87.324 6,84 L 6,82 6,14 6,12 c 0,-0.334721 0.04135,-0.6507 0.09375,-0.96875 0.0487,-0.295596 0.09704,-0.596915 0.1875,-0.875 C 6.29113,10.12587 6.302142,10.09265 6.3125,10.0625 6.411365,9.774729 6.5473802,9.515048 6.6875,9.25 6.8320918,8.976493 7.0031161,8.714385 7.1875,8.46875 7.3718839,8.223115 7.5612765,7.995278 7.78125,7.78125 8.221197,7.353194 8.72416,6.966724 9.28125,6.6875 9.559795,6.547888 9.8547231,6.440553 10.15625,6.34375 9.9000482,6.443972 9.6695391,6.580022 9.4375,6.71875 c -0.00741,0.0044 -0.023866,-0.0045 -0.03125,0 -0.031933,0.0193 -0.062293,0.04251 -0.09375,0.0625 -0.120395,0.0767 -0.2310226,0.163513 -0.34375,0.25 -0.1061728,0.0808 -0.2132809,0.161112 -0.3125,0.25 C 8.4783201,7.442683 8.3087904,7.626638 8.15625,7.8125 8.0486711,7.942755 7.9378561,8.077785 7.84375,8.21875 7.818661,8.25713 7.805304,8.30462 7.78125,8.34375 7.716487,8.446782 7.6510225,8.548267 7.59375,8.65625 7.4927417,8.850956 7.3880752,9.071951 7.3125,9.28125 7.30454,9.30306 7.288911,9.3218 7.28125,9.34375 7.2494249,9.4357 7.2454455,9.530581 7.21875,9.625 7.1884177,9.731618 7.1483606,9.828031 7.125,9.9375 7.0521214,10.279012 7,10.635705 7,11 l 0,2 0,68 0,2 c 0,2.781848 2.2181517,5 5,5 l 2,0 68,0 2,0 c 2.781848,0 5,-2.218152 5,-5 l 0,-2 0,-68 0,-2 C 89,10.635705 88.94788,10.279012 88.875,9.9375 88.83085,9.730607 88.78662,9.539842 88.71875,9.34375 88.71105,9.3218 88.69545,9.30306 88.6875,9.28125 88.62476,9.107511 88.549117,8.913801 88.46875,8.75 88.42717,8.6672 88.38971,8.580046 88.34375,8.5 88.28915,8.40279 88.216976,8.31165 88.15625,8.21875 88.06214,8.077785 87.951329,7.942755 87.84375,7.8125 87.700576,7.63805 87.540609,7.465502 87.375,7.3125 87.36383,7.3023 87.35502,7.29135 87.34375,7.28125 87.205364,7.155694 87.058659,7.046814 86.90625,6.9375 86.803679,6.86435 86.701932,6.784136 86.59375,6.71875 c -0.0074,-0.0045 -0.02384,0.0044 -0.03125,0 -0.232039,-0.138728 -0.462548,-0.274778 -0.71875,-0.375 0.301527,0.0968 0.596455,0.204138 0.875,0.34375 0.55709,0.279224 1.060053,0.665694 1.5,1.09375 0.219973,0.214028 0.409366,0.441865 0.59375,0.6875 0.184384,0.245635 0.355408,0.507743 0.5,0.78125 0.14012,0.265048 0.276135,0.524729 0.375,0.8125 0.01041,0.03078 0.02133,0.06274 0.03125,0.09375 0.09046,0.278085 0.1388,0.579404 0.1875,0.875 C 89.95865,11.3493 90,11.665279 90,12 l 0,2 0,68 0,2 c 0,3.324 -2.676,6 -6,6 l -72,0 z"/>
</g>
<g id="layer5">
<rect width="66" x="15" y="15" rx="12" height="66" ry="12" style="opacity:.1;fill:url(#linearGradient3613);filter:url(#filter3794);stroke:#fff;stroke-linecap:round;stroke-width:.5;clip-path:url(#clipPath3613)" id="rect3171"/>
</g>
<g id="layer4">
<g style="stroke:none;color:#000">
<path style="opacity:.05" id="path3752" d="m 40.4062,10.9688 c -5.05461,1.08313 -9.96993,3.0449 -14.1875,6.0625 -0.971439,3.48274 -1.36413,8.34139 -5.91704,9.1425 -4.80759,-0.435986 -6.41806,4.3489 -8.07959,7.97586 -1.09388,3.63634 -4.08252,7.86754 -0.299766,10.7442 2.39709,3.00364 1.28873,7.50086 -1.4536,9.88743 -1.16404,4.40434 1.88836,8.91035 3.60322,12.8888 1.15487,5.3854 7.61296,2.61384 10.0274,6.69585 1.83011,3.3626 1.08996,7.96724 5.93709,8.92893 3.87269,1.48608 8.55016,4.93757 12.6298,2.87296 2.81001,-3.50827 8.39335,-2.92333 11.115,0.363417 3.12648,1.15036 6.40091,-0.941658 9.38627,-1.88324 2.65487,-1.55639 6.96427,-2.35798 7.36752,-5.9257 -0.376357,-4.25231 3.70881,-7.3956 7.69158,-7.29785 4.16798,-1.61111 5.08299,-7.35495 6.88905,-11.1343 3.01079,-4.50039 -2.38444,-7.06212 -2.3575,-11.2856 -0.378885,-3.92414 5.0282,-6.06695 2.67211,-10.0623 -1.17385,-4.19979 -2.97659,-8.2889 -5.55528,-11.8173 -3.71657,-0.72702 -8.5717,-1.65364 -9.20189,-6.30998 0.464271,-4.92447 -5.09567,-6.16961 -8.61525,-7.92847 -3.3269,-1.30532 -5.59547,-1.78566 -7.70395,-1.7065 -2.6646,2.77946 -7.10008,4.29633 -10.4773,1.71348 -1.15972,-0.707796 -1.90397,-2.14247 -3.47037,-1.92479 z  m 7.5938,32.8125 c 5.3537,-0.411982 7.26932,8.06247 2.22374,10.0055 -4.40861,2.16049 -9.48274,-3.24538 -6.75214,-7.41422 0.913794,-1.57664 2.68183,-2.67282 4.5284,-2.59126 z "/>
<path style="opacity:.1" id="path3748" d="m 40.59375,11.9375 c -0.0024,4.2e-5 -0.09134,0.03107 -0.09375,0.03125 a 0.83025681,0.83025681 0 0 0 -0.09375,0 c -0.0028,5.06e-4 -0.09097,0.03056 -0.09375,0.03125 -6.53e-4,1.63e-4 -0.0215,-0.0028 -0.03125,0 -0.03168,0.009 -0.09167,0.03058 -0.09375,0.03125 -4.662205,0.984631 -9.029436,2.853993 -12.875,5.375 -0.0076,0.005 -0.02361,-0.005 -0.03125,0 -0.02595,0.01793 -0.06079,0.06123 -0.0625,0.0625 -0.0022,0.0016 -0.09164,0.06072 -0.09375,0.0625 -0.0021,0.0018 -0.09176,0.09183 -0.09375,0.09375 -0.002,0.0019 -0.09189,0.06046 -0.09375,0.0625 -0.0019,0.002 -0.06078,0.09159 -0.0625,0.09375 -0.0017,0.0022 -0.06092,0.09148 -0.0625,0.09375 -0.0016,0.0023 -0.06107,0.09139 -0.0625,0.09375 -0.0014,0.0024 -0.06123,0.0913 -0.0625,0.09375 -0.0013,0.0024 -0.06139,0.122473 -0.0625,0.125 -0.0011,0.0025 -0.03031,0.09116 -0.03125,0.09375 -9.43e-4,0.0026 -0.03048,0.12235 -0.03125,0.125 -7.72e-4,0.0026 -0.03065,0.09106 -0.03125,0.09375 -5.99e-4,0.0027 -0.03083,0.122273 -0.03125,0.125 -4.23e-4,0.0027 2.45e-4,0.122251 0,0.125 -2.45e-4,0.0027 -0.03118,0.09099 -0.03125,0.09375 -6.6e-5,0.0028 -1.13e-4,0.122242 0,0.125 0.08905,2.22648 -0.679664,4.429664 -2.375,6.125 -1.695336,1.695336 -3.89852,2.464054 -6.125,2.375 -0.0028,-1.13e-4 -0.122241,-6.6e-5 -0.125,0 -0.0028,6.6e-5 -0.091,0.03101 -0.09375,0.03125 -0.0027,2.45e-4 -0.122273,-4.23e-4 -0.125,0 -0.0027,4.23e-4 -0.122306,0.03065 -0.125,0.03125 -0.0027,5.99e-4 -0.0911,0.03048 -0.09375,0.03125 -0.0026,7.72e-4 -0.122406,0.03031 -0.125,0.03125 -0.0026,9.43e-4 -0.09122,0.03014 -0.09375,0.03125 -0.0025,0.0011 -0.12255,0.06123 -0.125,0.0625 -0.0024,0.0013 -0.09139,0.06107 -0.09375,0.0625 -0.0024,0.0014 -0.09148,0.06092 -0.09375,0.0625 -0.0023,0.0016 -0.09159,0.06078 -0.09375,0.0625 -0.0022,0.0017 -0.09171,0.06064 -0.09375,0.0625 -0.002,0.0019 -0.06058,0.09176 -0.0625,0.09375 -0.0019,0.002 -0.09197,0.09164 -0.09375,0.09375 -0.0018,0.0021 -0.06086,0.09153 -0.0625,0.09375 -0.0013,0.0017 -0.04457,0.03655 -0.0625,0.0625 -0.0054,0.0078 3.45e-4,0.03072 0,0.03125 C 13.872952,32.176814 11.980861,36.561962 11,41.25 c -0.0021,0.0098 0.0021,0.02141 0,0.03125 -0.0059,0.03115 -0.03093,0.09167 -0.03125,0.09375 -4.19e-4,0.0027 2.42e-4,0.122256 0,0.125 -2.42e-4,0.0027 6.3e-5,0.091 0,0.09375 -6.3e-5,0.0028 -1.15e-4,0.122247 0,0.125 1.15e-4,0.0028 -2.93e-4,0.122261 0,0.125 2.93e-4,0.0027 0.03078,0.09103 0.03125,0.09375 4.7e-4,0.0027 -6.45e-4,0.122322 0,0.125 6.45e-4,0.0027 0.03043,0.122369 0.03125,0.125 8.17e-4,0.0026 0.03026,0.09118 0.03125,0.09375 9.85e-4,0.0026 0.06135,0.09125 0.0625,0.09375 0.0012,0.0025 0.06119,0.122576 0.0625,0.125 0.0013,0.0024 0.02979,0.09142 0.03125,0.09375 0.0015,0.0023 0.09214,0.09152 0.09375,0.09375 0.0016,0.0022 0.06075,0.09163 0.0625,0.09375 0.0018,0.0021 0.06061,0.09174 0.0625,0.09375 0.0019,0.002 0.09174,0.06062 0.09375,0.0625 a 0.83025681,0.83025681 0 0 0 0,0.03125 c 1.646151,1.506276 2.65625,3.618858 2.65625,6.03125 0,2.412392 -1.010099,4.524974 -2.65625,6.03125 a 0.83025681,0.83025681 0 0 0 0,0.03125 c -0.002,0.0019 -0.09186,0.06049 -0.09375,0.0625 -0.0019,0.002 -0.06075,0.09163 -0.0625,0.09375 -0.0018,0.0021 -0.06089,0.09152 -0.0625,0.09375 -0.0016,0.0022 -0.09229,0.09142 -0.09375,0.09375 -0.0015,0.0023 -0.02994,0.09133 -0.03125,0.09375 -0.0013,0.0024 -0.06135,0.122496 -0.0625,0.125 -0.0012,0.0025 -0.06151,0.09118 -0.0625,0.09375 -9.85e-4,0.0026 -0.03043,0.09112 -0.03125,0.09375 -8.17e-4,0.0026 -0.0306,0.122322 -0.03125,0.125 -6.45e-4,0.0027 4.7e-4,0.122285 0,0.125 -4.7e-4,0.0027 -0.03096,0.09101 -0.03125,0.09375 -2.93e-4,0.0027 1.15e-4,0.122247 0,0.125 -1.15e-4,0.0028 -6.3e-5,0.122246 0,0.125 6.3e-5,0.0028 -2.42e-4,0.09101 0,0.09375 2.42e-4,0.0027 -4.19e-4,0.122277 0,0.125 3.2e-4,0.0021 0.02538,0.0626 0.03125,0.09375 0.0021,0.0098 -0.0021,0.02141 0,0.03125 0.980861,4.688038 2.872952,9.073186 5.40625,12.9375 3.45e-4,5.35e-4 -0.0054,0.02346 0,0.03125 0.01793,0.02595 0.06123,0.06079 0.0625,0.0625 0.0016,0.0022 0.06072,0.09164 0.0625,0.09375 0.0018,0.0021 0.09183,0.09176 0.09375,0.09375 0.0019,0.002 0.06046,0.09189 0.0625,0.09375 0.002,0.0019 0.09159,0.06078 0.09375,0.0625 0.0022,0.0017 0.09148,0.06092 0.09375,0.0625 0.0023,0.0016 0.09139,0.06107 0.09375,0.0625 0.0024,0.0014 0.0913,0.06123 0.09375,0.0625 0.0024,0.0013 0.122473,0.06139 0.125,0.0625 0.0025,0.0011 0.09116,0.03031 0.09375,0.03125 0.0026,9.43e-4 0.12235,0.03048 0.125,0.03125 0.0026,7.72e-4 0.09106,0.03065 0.09375,0.03125 0.0027,5.99e-4 0.122273,0.03083 0.125,0.03125 0.0027,4.23e-4 0.122251,-2.45e-4 0.125,0 0.0027,2.45e-4 0.09099,0.03118 0.09375,0.03125 0.0028,6.6e-5 0.122242,1.13e-4 0.125,0 2.22648,-0.08905 4.429664,0.679664 6.125,2.375 1.695336,1.695336 2.464054,3.89852 2.375,6.125 -1.13e-4,0.0028 -6.6e-5,0.122241 0,0.125 6.6e-5,0.0028 0.03101,0.091 0.03125,0.09375 2.45e-4,0.0027 -4.23e-4,0.122273 0,0.125 4.23e-4,0.0027 0.03065,0.122306 0.03125,0.125 5.99e-4,0.0027 0.03048,0.0911 0.03125,0.09375 7.72e-4,0.0027 0.03031,0.122406 0.03125,0.125 9.43e-4,0.0026 0.03014,0.09122 0.03125,0.09375 0.0011,0.0025 0.06123,0.12255 0.0625,0.125 0.0013,0.0024 0.06107,0.09139 0.0625,0.09375 0.0014,0.0024 0.06092,0.09149 0.0625,0.09375 0.0016,0.0023 0.06078,0.09159 0.0625,0.09375 0.0017,0.0022 0.06064,0.09171 0.0625,0.09375 0.0019,0.002 0.09176,0.06058 0.09375,0.0625 0.002,0.0019 0.09164,0.09197 0.09375,0.09375 0.0021,0.0018 0.09153,0.06086 0.09375,0.0625 0.0017,0.0013 0.03655,0.04457 0.0625,0.0625 0.0078,0.0054 0.03072,-3.45e-4 0.03125,0 3.864314,2.533298 8.249462,4.425389 12.9375,5.40625 0.0098,0.0021 0.02141,-0.0021 0.03125,0 0.03115,0.0059 0.09167,0.03093 0.09375,0.03125 0.0027,4.19e-4 0.122256,-2.42e-4 0.125,0 0.0027,2.42e-4 0.091,-6.3e-5 0.09375,0 0.0028,6.3e-5 0.122247,1.15e-4 0.125,0 0.0028,-1.15e-4 0.122261,2.93e-4 0.125,0 0.0027,-2.93e-4 0.09103,-0.03078 0.09375,-0.03125 0.0027,-4.7e-4 0.122322,6.45e-4 0.125,0 0.0027,-6.45e-4 0.122369,-0.03043 0.125,-0.03125 0.0026,-8.17e-4 0.09118,-0.03026 0.09375,-0.03125 0.0026,-9.85e-4 0.09125,-0.06135 0.09375,-0.0625 0.0025,-0.0011 0.122576,-0.06119 0.125,-0.0625 0.0024,-0.0013 0.09142,-0.02979 0.09375,-0.03125 0.0023,-0.0015 0.09152,-0.09214 0.09375,-0.09375 0.0022,-0.0016 0.09163,-0.06075 0.09375,-0.0625 0.0021,-0.0018 0.09174,-0.06061 0.09375,-0.0625 0.002,-0.0019 0.06062,-0.09174 0.0625,-0.09375 a 0.83025681,0.83025681 0 0 0 0.03125,0 C 43.475026,83.822599 45.587608,82.8125 48,82.8125 c 2.412392,0 4.524974,1.010099 6.03125,2.65625 a 0.83025681,0.83025681 0 0 0 0.03125,0 c 0.0019,0.002 0.06049,0.09186 0.0625,0.09375 0.002,0.0019 0.09163,0.06075 0.09375,0.0625 0.0021,0.0018 0.09152,0.06089 0.09375,0.0625 0.0022,0.0016 0.09142,0.09229 0.09375,0.09375 0.0023,0.0015 0.09133,0.02994 0.09375,0.03125 0.0024,0.0013 0.122496,0.06135 0.125,0.0625 0.0025,0.0011 0.09118,0.06151 0.09375,0.0625 0.0026,9.85e-4 0.09112,0.03043 0.09375,0.03125 0.0026,8.17e-4 0.122322,0.0306 0.125,0.03125 0.0027,6.45e-4 0.122285,-4.7e-4 0.125,0 0.0027,4.7e-4 0.09101,0.03096 0.09375,0.03125 0.0027,2.93e-4 0.122247,-1.15e-4 0.125,0 0.0028,1.15e-4 0.122246,6.3e-5 0.125,0 0.0028,-6.3e-5 0.09101,2.42e-4 0.09375,0 0.0027,-2.42e-4 0.122277,4.19e-4 0.125,0 0.0021,-3.2e-4 0.0626,-0.02538 0.09375,-0.03125 0.0099,-0.0021 0.02138,0.0021 0.03125,0 4.670756,-0.977222 9.049293,-2.853121 12.90625,-5.375 5.35e-4,-3.45e-4 0.02346,0.0054 0.03125,0 0.02595,-0.01793 0.06079,-0.06123 0.0625,-0.0625 0.0022,-0.0016 0.09164,-0.06072 0.09375,-0.0625 0.0021,-0.0018 0.09176,-0.09183 0.09375,-0.09375 0.002,-0.0019 0.09189,-0.06046 0.09375,-0.0625 0.0019,-0.002 0.06078,-0.09159 0.0625,-0.09375 0.0017,-0.0022 0.06092,-0.09149 0.0625,-0.09375 0.0016,-0.0023 0.06107,-0.09139 0.0625,-0.09375 0.0014,-0.0024 0.06123,-0.0913 0.0625,-0.09375 0.0013,-0.0024 0.06139,-0.122473 0.0625,-0.125 0.0011,-0.0025 0.03031,-0.09116 0.03125,-0.09375 9.43e-4,-0.0026 0.03048,-0.12235 0.03125,-0.125 7.72e-4,-0.0027 0.03065,-0.09106 0.03125,-0.09375 5.99e-4,-0.0027 0.03083,-0.122273 0.03125,-0.125 4.23e-4,-0.0027 -2.45e-4,-0.122251 0,-0.125 2.45e-4,-0.0027 0.03118,-0.09099 0.03125,-0.09375 6.6e-5,-0.0028 1.13e-4,-0.122242 0,-0.125 -0.001,-0.0238 0,-0.190476 0,-0.375 0,-2.101906 0.789836,-4.164836 2.40625,-5.78125 1.695336,-1.695336 3.89852,-2.464054 6.125,-2.375 0.0028,1.13e-4 0.122241,6.6e-5 0.125,0 0.0028,-6.6e-5 0.091,-0.031 0.09375,-0.03125 0.0027,-2.45e-4 0.122273,4.23e-4 0.125,0 0.0027,-4.23e-4 0.122306,-0.03065 0.125,-0.03125 0.0027,-5.99e-4 0.0911,-0.03048 0.09375,-0.03125 0.0027,-7.72e-4 0.122406,-0.03031 0.125,-0.03125 0.0026,-9.43e-4 0.09122,-0.03014 0.09375,-0.03125 0.0025,-0.0011 0.12255,-0.06123 0.125,-0.0625 0.0024,-0.0013 0.09139,-0.06107 0.09375,-0.0625 0.0024,-0.0014 0.09149,-0.06092 0.09375,-0.0625 0.0023,-0.0016 0.09159,-0.06078 0.09375,-0.0625 0.0022,-0.0017 0.09171,-0.06064 0.09375,-0.0625 0.002,-0.0019 0.06058,-0.09176 0.0625,-0.09375 0.0019,-0.002 0.09197,-0.09164 0.09375,-0.09375 0.0018,-0.0021 0.06086,-0.09153 0.0625,-0.09375 0.0013,-0.0017 0.04457,-0.03655 0.0625,-0.0625 0.0054,-0.0078 -3.45e-4,-0.03072 0,-0.03125 C 82.127048,65.823186 84.019139,61.438038 85,56.75 c 0.0021,-0.0098 -0.0021,-0.02141 0,-0.03125 0.0059,-0.03115 0.03093,-0.09167 0.03125,-0.09375 4.19e-4,-0.0027 -2.42e-4,-0.122256 0,-0.125 2.42e-4,-0.0027 -6.3e-5,-0.091 0,-0.09375 6.3e-5,-0.0028 1.15e-4,-0.122247 0,-0.125 -1.15e-4,-0.0028 2.93e-4,-0.122261 0,-0.125 -2.93e-4,-0.0027 -0.03078,-0.09103 -0.03125,-0.09375 -4.7e-4,-0.0027 6.45e-4,-0.122322 0,-0.125 -6.45e-4,-0.0027 -0.03043,-0.122369 -0.03125,-0.125 -8.17e-4,-0.0026 -0.03026,-0.09118 -0.03125,-0.09375 -9.85e-4,-0.0026 -0.06135,-0.09125 -0.0625,-0.09375 -0.0011,-0.0025 -0.06119,-0.122576 -0.0625,-0.125 -0.0013,-0.0024 -0.02979,-0.09142 -0.03125,-0.09375 -0.0015,-0.0023 -0.09214,-0.09152 -0.09375,-0.09375 -0.0016,-0.0022 -0.06075,-0.09163 -0.0625,-0.09375 -0.0018,-0.0021 -0.06061,-0.09174 -0.0625,-0.09375 -0.0019,-0.002 -0.09174,-0.06062 -0.09375,-0.0625 a 0.83025681,0.83025681 0 0 0 0,-0.03125 C 82.822599,53.524974 81.8125,51.412392 81.8125,49 c 0,-2.412392 1.010099,-4.524974 2.65625,-6.03125 a 0.83025681,0.83025681 0 0 0 0,-0.03125 c 0.002,-0.0019 0.09186,-0.06049 0.09375,-0.0625 0.0019,-0.002 0.06075,-0.09163 0.0625,-0.09375 0.0018,-0.0021 0.06089,-0.09152 0.0625,-0.09375 0.0016,-0.0022 0.09229,-0.09142 0.09375,-0.09375 0.0015,-0.0023 0.02994,-0.09133 0.03125,-0.09375 0.0013,-0.0024 0.06135,-0.122496 0.0625,-0.125 0.0011,-0.0025 0.06151,-0.09118 0.0625,-0.09375 9.85e-4,-0.0026 0.03043,-0.09112 0.03125,-0.09375 8.17e-4,-0.0026 0.0306,-0.122322 0.03125,-0.125 6.45e-4,-0.0027 -4.7e-4,-0.122285 0,-0.125 4.7e-4,-0.0027 0.03096,-0.09101 0.03125,-0.09375 2.93e-4,-0.0027 -1.15e-4,-0.122247 0,-0.125 1.15e-4,-0.0028 6.3e-5,-0.122246 0,-0.125 -6.3e-5,-0.0028 2.42e-4,-0.09101 0,-0.09375 -2.42e-4,-0.0027 4.19e-4,-0.122277 0,-0.125 -3.2e-4,-0.0021 -0.02538,-0.0626 -0.03125,-0.09375 -0.0021,-0.0098 0.0021,-0.02141 0,-0.03125 -0.980861,-4.688038 -2.872952,-9.073186 -5.40625,-12.9375 -3.45e-4,-5.35e-4 0.0054,-0.02346 0,-0.03125 -0.01793,-0.02595 -0.06123,-0.06079 -0.0625,-0.0625 -0.0016,-0.0022 -0.06072,-0.09164 -0.0625,-0.09375 -0.0018,-0.0021 -0.09183,-0.09176 -0.09375,-0.09375 -0.0019,-0.002 -0.06046,-0.09189 -0.0625,-0.09375 -0.002,-0.0019 -0.09159,-0.06078 -0.09375,-0.0625 -0.0022,-0.0017 -0.09149,-0.06092 -0.09375,-0.0625 -0.0023,-0.0016 -0.09139,-0.06107 -0.09375,-0.0625 -0.0024,-0.0014 -0.0913,-0.06123 -0.09375,-0.0625 -0.0024,-0.0013 -0.122473,-0.06139 -0.125,-0.0625 -0.0025,-0.0011 -0.09116,-0.03031 -0.09375,-0.03125 -0.0026,-9.43e-4 -0.12235,-0.03048 -0.125,-0.03125 -0.0027,-7.72e-4 -0.09106,-0.03065 -0.09375,-0.03125 -0.0027,-5.99e-4 -0.122273,-0.03083 -0.125,-0.03125 -0.0027,-4.23e-4 -0.122251,2.45e-4 -0.125,0 -0.0027,-2.45e-4 -0.09099,-0.03118 -0.09375,-0.03125 -0.0028,-6.6e-5 -0.122242,-1.13e-4 -0.125,0 -2.22648,0.08905 -4.429664,-0.679664 -6.125,-2.375 C 70.289836,23.477336 69.5,21.414406 69.5,19.3125 c 0,-0.184524 -0.001,-0.351205 0,-0.375 1.13e-4,-0.0028 6.6e-5,-0.122241 0,-0.125 -6.6e-5,-0.0028 -0.031,-0.091 -0.03125,-0.09375 -2.45e-4,-0.0027 4.23e-4,-0.122273 0,-0.125 -4.23e-4,-0.0027 -0.03065,-0.122306 -0.03125,-0.125 -5.99e-4,-0.0027 -0.03048,-0.0911 -0.03125,-0.09375 -7.72e-4,-0.0026 -0.03031,-0.122406 -0.03125,-0.125 -9.43e-4,-0.0026 -0.03014,-0.09122 -0.03125,-0.09375 -0.0011,-0.0025 -0.06123,-0.12255 -0.0625,-0.125 -0.0013,-0.0024 -0.06107,-0.09139 -0.0625,-0.09375 -0.0014,-0.0024 -0.06092,-0.09148 -0.0625,-0.09375 -0.0016,-0.0023 -0.06078,-0.09159 -0.0625,-0.09375 -0.0017,-0.0022 -0.06064,-0.09171 -0.0625,-0.09375 -0.0019,-0.002 -0.09176,-0.06058 -0.09375,-0.0625 -0.002,-0.0019 -0.09164,-0.09197 -0.09375,-0.09375 -0.0021,-0.0018 -0.09153,-0.06086 -0.09375,-0.0625 -0.0017,-0.0013 -0.03655,-0.04457 -0.0625,-0.0625 -0.0076,-0.005 -0.02362,0.005 -0.03125,0 C 64.799293,14.853121 60.420756,12.977222 55.75,12 c -6.33e-4,-1.4e-4 -0.02166,0.0018 -0.03125,0 -0.03115,-0.0059 -0.09167,-0.03093 -0.09375,-0.03125 -0.0027,-4.19e-4 -0.122256,2.42e-4 -0.125,0 -0.0027,-2.42e-4 -0.091,6.3e-5 -0.09375,0 -0.0028,-6.3e-5 -0.122247,-1.15e-4 -0.125,0 -0.0028,1.15e-4 -0.122261,-2.93e-4 -0.125,0 -0.0027,2.93e-4 -0.09103,0.03078 -0.09375,0.03125 -0.0027,4.7e-4 -0.122322,-6.45e-4 -0.125,0 -0.0027,6.45e-4 -0.122369,0.03043 -0.125,0.03125 -0.0026,8.17e-4 -0.09118,0.03026 -0.09375,0.03125 -0.0026,9.85e-4 -0.09125,0.06135 -0.09375,0.0625 -0.0025,0.0012 -0.122576,0.06119 -0.125,0.0625 -0.0024,0.0013 -0.09142,0.02979 -0.09375,0.03125 -0.0023,0.0015 -0.09152,0.09214 -0.09375,0.09375 -0.0022,0.0016 -0.09163,0.06075 -0.09375,0.0625 -0.0021,0.0018 -0.09174,0.06061 -0.09375,0.0625 -0.002,0.0019 -0.06062,0.09174 -0.0625,0.09375 a 0.83025681,0.83025681 0 0 0 -0.03125,0 C 52.524974,14.177401 50.412392,15.1875 48,15.1875 c -2.412392,0 -4.524974,-1.010099 -6.03125,-2.65625 -0.0016,-0.0018 -0.09203,-0.0608 -0.09375,-0.0625 -0.0017,-0.0017 -0.06068,-0.0609 -0.0625,-0.0625 -0.0018,-0.0016 -0.0606,-0.06101 -0.0625,-0.0625 -0.0019,-0.0015 -0.09177,-0.06112 -0.09375,-0.0625 -0.002,-0.0014 -0.09169,-0.06123 -0.09375,-0.0625 -0.0021,-0.0013 -0.09162,-0.06135 -0.09375,-0.0625 -0.0021,-0.0011 -0.06031,-0.03023 -0.0625,-0.03125 -0.0022,-0.001 -0.0915,-0.0616 -0.09375,-0.0625 -0.0022,-8.98e-4 -0.122708,-0.03048 -0.125,-0.03125 -0.0023,-7.69e-4 -0.09142,-0.03061 -0.09375,-0.03125 -0.0023,-6.37e-4 -0.09139,5.04e-4 -0.09375,0 -0.0024,-5.04e-4 -0.09136,-0.03088 -0.09375,-0.03125 -0.0024,-3.69e-4 -0.09134,2.32e-4 -0.09375,0 -0.0024,-2.32e-4 -0.09133,-0.03116 -0.09375,-0.03125 -0.0024,-9.5e-5 -0.122583,-4.2e-5 -0.125,0 z M 48,42.8125 c 3.456552,0 6.1875,2.730948 6.1875,6.1875 0,3.456552 -2.730948,6.1875 -6.1875,6.1875 -3.456552,0 -6.1875,-2.730948 -6.1875,-6.1875 0,-3.456552 2.730948,-6.1875 6.1875,-6.1875 z"/>
<path style="opacity:.15" id="path3744" d="m 40.5625,12.7812 a 0.95775,0.95775 0 0,0 -0.125,0.03125 c -4.6028,0.959109 -8.89346,2.79014 -12.6875,5.28125 a 0.95775,0.95775 0 0,0 -0.4375,0.84375 c 0.09772,2.44313 -0.763174,4.88817 -2.625,6.75 -1.86183,1.86183 -4.30687,2.72272 -6.75,2.625 a 0.95775,0.95775 0 0,0 -0.84375,0.4375 c -2.49111,3.79404 -4.32214,8.0847 -5.28125,12.6875 a 0.95775,0.95775 0 0,0 0.28125,0.90625 c 1.80837,1.65471 2.9375,4.00789 2.9375,6.65625 0,2.64836 -1.12913,5.00154 -2.9375,6.65625 a 0.95775,0.95775 0 0,0 -0.28125,0.90625 c 0.959109,4.6028 2.79014,8.89346 5.28125,12.6875 a 0.95775,0.95775 0 0,0 0.84375,0.4375 c 2.44313,-0.09772 4.88817,0.763174 6.75,2.625 1.86183,1.86183 2.72272,4.30687 2.625,6.75 a 0.95775,0.95775 0 0,0 0.4375,0.84375 c 3.79404,2.49111 8.0847,4.32214 12.6875,5.28125 a 0.95775,0.95775 0 0,0 0.90625,-0.28125 c 1.65471,-1.80837 4.00789,-2.9375 6.65625,-2.9375 2.64836,0 5.00154,1.12913 6.65625,2.9375 a 0.95775,0.95775 0 0,0 0.90625,0.28125 c 4.58676,-0.955769 8.87028,-2.77063 12.6562,-5.25 a 0.95775,0.95775 0 0,0 0.4375,-0.84375 c -0.0038,-0.08792 0,-0.234059 0,-0.40625 0,-2.31353 0.884631,-4.60338 2.65625,-6.375 1.86183,-1.86183 4.30687,-2.72272 6.75,-2.625 a 0.95775,0.95775 0 0,0 0.84375,-0.4375 c 2.49111,-3.79404 4.32214,-8.0847 5.28125,-12.6875 a 0.95775,0.95775 0 0,0 -0.28125,-0.90625 c -1.80837,-1.65471 -2.9375,-4.00789 -2.9375,-6.65625 0,-2.64836 1.12913,-5.00154 2.9375,-6.65625 a 0.95775,0.95775 0 0,0 0.28125,-0.90625 c -0.959109,-4.6028 -2.79014,-8.89346 -5.28125,-12.6875 a 0.95775,0.95775 0 0,0 -0.84375,-0.4375 c -2.44313,0.09772 -4.88817,-0.763174 -6.75,-2.625 -1.77162,-1.77162 -2.65625,-4.06147 -2.65625,-6.375 0,-0.172191 -0.0038,-0.318333 0,-0.40625 a 0.95775,0.95775 0 0,0 -0.4375,-0.84375 c -3.78597,-2.47937 -8.06949,-4.29423 -12.6562,-5.25 a 0.95775,0.95775 0 0,0 -0.90625,0.28125 c -1.65471,1.80837 -4.00789,2.9375 -6.65625,2.9375 -2.64836,0 -5.00154,-1.12913 -6.65625,-2.9375 a 0.95775,0.95775 0 0,0 -0.78125,-0.3125 z  m 7.4375,29.1875 c 3.90072,0 7.03125,3.13053 7.03125,7.03125 0,3.90072 -3.13053,7.03125 -7.03125,7.03125 -3.90072,0 -7.03125,-3.13053 -7.03125,-7.03125 0,-3.90072 3.13053,-7.03125 7.03125,-7.03125 z "/>
<path style="opacity:.3" id="path3738" d="m 40.625,13.75 c -4.47894,0.933301 -8.64457,2.72742 -12.3438,5.15625 0.107811,2.69543 -0.851192,5.41369 -2.90625,7.46875 -2.05506,2.05506 -4.77332,3.01406 -7.46875,2.90625 -2.42883,3.69918 -4.22295,7.86481 -5.15625,12.3438 1.99816,1.82837 3.25,4.45311 3.25,7.375 0,2.92189 -1.25184,5.54663 -3.25,7.375 0.933301,4.47894 2.72742,8.64457 5.15625,12.3438 2.69543,-0.107811 5.41369,0.851192 7.46875,2.90625 2.05506,2.05506 3.01406,4.77332 2.90625,7.46875 3.69918,2.42883 7.86481,4.22295 12.3438,5.15625 1.82837,-1.99816 4.45311,-3.25 7.375,-3.25 2.92189,0 5.54663,1.25184 7.375,3.25 4.46445,-0.930281 8.62223,-2.70831 12.3125,-5.125 -0.0063,-0.144349 0,-0.293178 0,-0.4375 0,-2.55922 0.984879,-5.10988 2.9375,-7.0625 2.05506,-2.05506 4.77332,-3.01406 7.46875,-2.90625 2.42883,-3.69918 4.22295,-7.86481 5.15625,-12.3438 -1.99816,-1.82837 -3.25,-4.45311 -3.25,-7.375 0,-2.92189 1.25184,-5.54663 3.25,-7.375 -0.933301,-4.47894 -2.72742,-8.64457 -5.15625,-12.3438 -2.69543,0.107811 -5.41369,-0.851192 -7.46875,-2.90625 -1.95262,-1.95262 -2.9375,-4.50328 -2.9375,-7.0625 0,-0.144322 -0.0063,-0.293151 0,-0.4375 -3.69027,-2.41669 -7.84805,-4.19472 -12.3125,-5.125 -1.82837,1.99816 -4.45311,3.25 -7.375,3.25 -2.92189,0 -5.54663,-1.25184 -7.375,-3.25 z  m 7.375,27.25 c 4.41828,0 8,3.58172 8,8 0,4.41828 -3.58172,8 -8,8 -4.41828,0 -8,-3.58172 -8,-8 0,-4.41828 3.58172,-8 8,-8 z "/>
<path style="fill:url(#linearGradient3709)" id="path3683" d="m 40.625,12.75 c -4.47894,0.933301 -8.64457,2.72742 -12.3438,5.15625 0.107811,2.69543 -0.851192,5.41369 -2.90625,7.46875 -2.05506,2.05506 -4.77332,3.01406 -7.46875,2.90625 -2.42883,3.69918 -4.22295,7.86481 -5.15625,12.3438 1.99816,1.82837 3.25,4.45311 3.25,7.375 0,2.92189 -1.25184,5.54663 -3.25,7.375 0.933301,4.47894 2.72742,8.64457 5.15625,12.3438 2.69543,-0.107811 5.41369,0.851192 7.46875,2.90625 2.05506,2.05506 3.01406,4.77332 2.90625,7.46875 3.69918,2.42883 7.86481,4.22295 12.3438,5.15625 1.82837,-1.99816 4.45311,-3.25 7.375,-3.25 2.92189,0 5.54663,1.25184 7.375,3.25 4.46445,-0.930281 8.62223,-2.70831 12.3125,-5.125 -0.0063,-0.144349 0,-0.293178 0,-0.4375 0,-2.55922 0.984879,-5.10988 2.9375,-7.0625 2.05506,-2.05506 4.77332,-3.01406 7.46875,-2.90625 2.42883,-3.69918 4.22295,-7.86481 5.15625,-12.3438 -1.99816,-1.82837 -3.25,-4.45311 -3.25,-7.375 0,-2.92189 1.25184,-5.54663 3.25,-7.375 -0.933301,-4.47894 -2.72742,-8.64457 -5.15625,-12.3438 -2.69543,0.107811 -5.41369,-0.851192 -7.46875,-2.90625 -1.95262,-1.95262 -2.9375,-4.50328 -2.9375,-7.0625 0,-0.144322 -0.0063,-0.293151 0,-0.4375 -3.69027,-2.41669 -7.84805,-4.19472 -12.3125,-5.125 -1.82837,1.99816 -4.45311,3.25 -7.375,3.25 -2.92189,0 -5.54663,-1.25184 -7.375,-3.25 z  m 7.375,27.25 c 4.41828,0 8,3.58172 8,8 0,4.41828 -3.58172,8 -8,8 -4.41828,0 -8,-3.58172 -8,-8 0,-4.41828 3.58172,-8 8,-8 z "/>
<path style="fill:url(#radialGradient3773)" id="path3765" d="m 40.625,12.75 c -4.47894,0.933301 -8.64457,2.72742 -12.3438,5.15625 0.107811,2.69543 -0.851192,5.41369 -2.90625,7.46875 -2.05506,2.05506 -4.77332,3.01406 -7.46875,2.90625 -2.42883,3.69918 -4.22295,7.86481 -5.15625,12.3438 1.99816,1.82837 3.25,4.45311 3.25,7.375 0,2.92189 -1.25184,5.54663 -3.25,7.375 0.933301,4.47894 2.72742,8.64457 5.15625,12.3438 2.69543,-0.107811 5.41369,0.851192 7.46875,2.90625 2.05506,2.05506 3.01406,4.77332 2.90625,7.46875 3.69918,2.42883 7.86481,4.22295 12.3438,5.15625 1.82837,-1.99816 4.45311,-3.25 7.375,-3.25 2.92189,0 5.54663,1.25184 7.375,3.25 4.46445,-0.930281 8.62223,-2.70831 12.3125,-5.125 -0.0063,-0.144349 0,-0.293178 0,-0.4375 0,-2.55922 0.984879,-5.10988 2.9375,-7.0625 2.05506,-2.05506 4.77332,-3.01406 7.46875,-2.90625 2.42883,-3.69918 4.22295,-7.86481 5.15625,-12.3438 -1.99816,-1.82837 -3.25,-4.45311 -3.25,-7.375 0,-2.92189 1.25184,-5.54663 3.25,-7.375 -0.933301,-4.47894 -2.72742,-8.64457 -5.15625,-12.3438 -2.69543,0.107811 -5.41369,-0.851192 -7.46875,-2.90625 -1.95262,-1.95262 -2.9375,-4.50328 -2.9375,-7.0625 0,-0.144322 -0.0063,-0.293151 0,-0.4375 -3.69027,-2.41669 -7.84805,-4.19472 -12.3125,-5.125 -1.82837,1.99816 -4.45311,3.25 -7.375,3.25 -2.92189,0 -5.54663,-1.25184 -7.375,-3.25 z  m 7.375,27.25 c 4.41828,0 8,3.58172 8,8 0,4.41828 -3.58172,8 -8,8 -4.41828,0 -8,-3.58172 -8,-8 0,-4.41828 3.58172,-8 8,-8 z "/>
</g>
<path id="path3324" d="m 58.1933,25.1272 c -2.62508,0 -4.75069,2.13721 -4.75069,4.77192 0,2.6347 2.12561,4.77192 4.75069,4.77192 2.62508,0 4.75069,-2.13721 4.75069,-4.77192 0,-2.6347 -2.12561,-4.77192 -4.75069,-4.77192 z  m -10.0329,3.7374 c -2.92977,0.000382 -5.90015,0.74311 -8.57118,2.06894 -0.09498,0.04732 -0.154222,0.13131 -0.182719,0.233591 -0.02887,0.10228 -0.023,0.210262 0.03323,0.30033 l 3.8537,6.1234 c 0.09764,0.15571 0.296027,0.221533 0.465103,0.150164 1.42632,-0.605668 2.90639,-0.90099 4.40186,-0.90099 5.50087,0 10.3,4.09444 11.1625,9.52715 0.02887,0.182427 0.181923,0.317018 0.365437,0.317018 h 7.24231 c 0.105624,0 0.211333,-0.03817 0.282383,-0.116796 0.07105,-0.07862 0.109543,-0.177548 0.09967,-0.283647 -0.390586,-4.03093 -2.10622,-7.93371 -4.81713,-10.9621 -0.122342,-0.137392 -0.327075,-0.150427 -0.481715,-0.05006 -1.09311,0.709095 -2.33335,1.08453 -3.58793,1.08453 -3.66003,0 -6.62733,-2.98678 -6.62771,-6.64064 0.00038,-0.0019 0,-0.127373 0,-0.13348 0,-0.182044 -0.135889,-0.352461 -0.315604,-0.383756 -1.1444,-0.199219 -2.25527,-0.333701 -3.32216,-0.333701 z  m -11.6276,4.0044 c -0.05015,0.01236 -0.108273,0.03449 -0.149496,0.06673 -3.1414,2.43031 -5.49726,5.84822 -6.64432,9.62726 -0.04483,0.147697 -0.0049,0.304267 0.116276,0.400441 1.57868,1.25599 2.52484,3.18933 2.52484,5.17236 0,1.98302 -0.945784,3.91637 -2.52484,5.17236 -0.120443,0.0958 -0.161109,0.252364 -0.116276,0.400442 1.13794,3.74737 3.47524,7.15224 6.57788,9.5772 0.08321,0.06526 0.178279,0.101747 0.282384,0.08342 0.103726,-0.01793 0.192549,-0.09461 0.249162,-0.183534 l 3.8869,-6.1067 c 0.09916,-0.156092 0.07224,-0.361358 -0.06645,-0.483866 -2.43508,-2.15209 -3.8371,-5.23785 -3.8371,-8.45931 0,-3.2455 1.40978,-6.33982 3.87032,-8.49268 0.138681,-0.121746 0.181459,-0.327012 0.08305,-0.483867 l -3.8537,-6.1234 c -0.05623,-0.08931 -0.145437,-0.148532 -0.249163,-0.166851 -0.05186,-0.0092 -0.09934,-0.01236 -0.149496,0 z  m -10.714,10.4782 c -2.68657,0 -4.86697,2.19204 -4.86697,4.88871 0,2.69667 2.1804,4.87203 4.86697,4.87203 2.68656,0 4.86697,-2.17536 4.86697,-4.87203 0,-2.69667 -2.1804,-4.88871 -4.86697,-4.88871 z  m 41.1117,6.3069 -7.2423,.0167 c -0.182753,0.000382 -0.352793,0.136116 -0.382049,0.317015 -0.874257,5.39225 -5.66018,9.46041 -11.1459,9.46041 -1.51295,0 -3.00942,-0.313809 -4.4517,-0.934362 -0.168697,-0.07213 -0.365937,-0.02108 -0.465102,0.133479 l -3.8869,6.1234 c -0.05661,0.08969 -0.06133,0.197669 -0.03323,0.30033 0.0281,0.102282 0.08811,0.186267 0.182718,0.233592 2.69192,1.35369 5.69065,2.06894 8.65423,2.06894 1.09918,0 2.24676,-0.110545 3.40521,-0.317015 0.162618,-0.02862 0.279618,-0.152528 0.298995,-0.317015 0.386026,-3.34893 3.20558,-5.87313 6.56127,-5.87313 1.04029,0 2.11097,0.263741 3.073,0.767511 0.14628,0.07671 0.315997,0.05195 0.431881,-0.06674 3.03388,-3.10773 4.9518,-7.20505 5.3819,-11.5127 0.01064,-0.105717 -0.02824,-0.204644 -0.09966,-0.283645 -0.07144,-0.079 -0.176759,-0.117177 -0.282383,-0.116797 z  m -8.5546,12.8975 c -2.68657,0 -4.86697,2.17258 -4.86697,4.85534 0,2.68276 2.1804,4.85534 4.86697,4.85534 2.68657,0 4.86697,-2.17258 4.86697,-4.85534 0,-2.68276 -2.1804,-4.85534 -4.86697,-4.85534 z "/>
<g style="stroke:none;fill:#fff">
<path style="opacity:.4;color:#000" id="path3711" d="m 40.625,12.75 c -4.47894,0.933301 -8.64457,2.72742 -12.3438,5.15625 0.107811,2.69543 -0.851192,5.41369 -2.90625,7.46875 -2.05506,2.05506 -4.77332,3.01406 -7.46875,2.90625 -2.42883,3.69918 -4.22295,7.86481 -5.15625,12.3438 1.99816,1.82837 3.25,4.45311 3.25,7.375 0,2.92189 -1.25184,5.54663 -3.25,7.375 0.933301,4.47894 2.72742,8.64457 5.15625,12.3438 2.69543,-0.107811 5.41369,0.851192 7.46875,2.90625 2.05506,2.05506 3.01406,4.77332 2.90625,7.46875 3.69918,2.42883 7.86481,4.22295 12.3438,5.15625 1.82837,-1.99816 4.45311,-3.25 7.375,-3.25 2.92189,0 5.54663,1.25184 7.375,3.25 4.46445,-0.930281 8.62223,-2.70831 12.3125,-5.125 -0.0063,-0.144349 0,-0.293178 0,-0.4375 0,-2.55922 0.984879,-5.10988 2.9375,-7.0625 2.05506,-2.05506 4.77332,-3.01406 7.46875,-2.90625 2.42883,-3.69918 4.22295,-7.86481 5.15625,-12.3438 -1.99816,-1.82837 -3.25,-4.45311 -3.25,-7.375 0,-2.92189 1.25184,-5.54663 3.25,-7.375 -0.933301,-4.47894 -2.72742,-8.64457 -5.15625,-12.3438 -2.69543,0.107811 -5.41369,-0.851192 -7.46875,-2.90625 -1.95262,-1.95262 -2.9375,-4.50328 -2.9375,-7.0625 0,-0.144322 -0.0063,-0.293151 0,-0.4375 -3.69027,-2.41669 -7.84805,-4.19472 -12.3125,-5.125 -1.82837,1.99816 -4.45311,3.25 -7.375,3.25 -2.92189,0 -5.54663,-1.25184 -7.375,-3.25 z  m -.1562,1.1562 c 1.9784,1.87706 4.59355,3.125 7.53125,3.125 2.9377,0 5.55285,-1.24794 7.53125,-3.125 4.02061,0.887442 7.78205,2.48007 11.1562,4.625 0.05544,2.75148 1.09454,5.50079 3.1875,7.59375 2.07834,2.07834 4.80499,2.99281 7.53125,3.0625 2.18367,3.40496 3.78969,7.21544 4.6875,11.2812 -1.87706,1.9784 -3.125,4.59355 -3.125,7.53125 0,2.9377 1.24794,5.55285 3.125,7.53125 -0.897809,4.06581 -2.50383,7.87629 -4.6875,11.2812 -2.72626,0.06969 -5.45291,0.98416 -7.53125,3.0625 -2.09296,2.09296 -3.13206,4.84227 -3.1875,7.59375 -3.3742,2.14493 -7.13564,3.73756 -11.1562,4.625 -1.9784,-1.87706 -4.59355,-3.125 -7.53125,-3.125 -2.9377,0 -5.55285,1.24794 -7.53125,3.125 -4.06581,-0.897809 -7.87629,-2.50383 -11.2812,-4.6875 -0.06969,-2.72626 -0.98416,-5.45291 -3.0625,-7.53125 -2.07834,-2.07834 -4.80499,-2.99281 -7.53125,-3.0625 -2.18367,-3.40496 -3.78969,-7.21544 -4.6875,-11.2812 1.87706,-1.9784 3.125,-4.59355 3.125,-7.53125 0,-2.9377 -1.24794,-5.55285 -3.125,-7.53125 0.897809,-4.06581 2.50383,-7.87629 4.6875,-11.2812 2.72626,-0.06969 5.45291,-0.98416 7.53125,-3.0625 2.07834,-2.07834 2.99281,-4.80499 3.0625,-7.53125 3.40496,-2.18367 7.21544,-3.78969 11.2812,-4.6875 z  m 7.5312,25.0938 c -4.97056,0 -9,4.02944 -9,9 0,4.97056 4.02944,9 9,9 4.97056,0 9,-4.02944 9,-9 0,-4.97056 -4.02944,-9 -9,-9 z  m 0,1 c 4.41828,0 8,3.58172 8,8 0,4.41828 -3.58172,8 -8,8 -4.41828,0 -8,-3.58172 -8,-8 0,-4.41828 3.58172,-8 8,-8 z "/>
<path style="opacity:.2" id="rect3756" d="M 12,6 C 8.676,6 6,8.676 6,12 l 0,72 c 0,3.324 2.676,6 6,6 L 29.625,90 40.875,6 12,6 z"/>
</g>
</g>
</svg>
