<svg width="96" version="1.0" xmlns="http://www.w3.org/2000/svg" height="96" xmlns:xlink="http://www.w3.org/1999/xlink">
<defs id="defs2410">
<clipPath id="clipPath3613">
<rect width="84" x="6" y="6" rx="6" height="84" ry="6" style="fill:#fff;stroke:none" id="rect3615"/>
</clipPath>
<filter style="color-interpolation-filters:sRGB" id="filter3174">
<feGaussianBlur stdDeviation="1.71" id="feGaussianBlur3176"/>
</filter>
<filter width="1.3839999" x="-0.192" y="-0.192" height="1.3839999" style="color-interpolation-filters:sRGB" id="filter3794">
<feGaussianBlur stdDeviation="5.28" id="feGaussianBlur3796"/>
</filter>
<linearGradient gradientTransform="matrix(1.0058652,0,0,0.994169,100,0)" id="ButtonShadow-0" y1="92.539597" x1="45.447727" y2="7.0165396" x2="45.447727" gradientUnits="userSpaceOnUse">
<stop offset="0" id="stop3750-8"/>
<stop offset="1" style="stop-opacity:.588" id="stop3752-5"/>
</linearGradient>
<linearGradient gradientTransform="matrix(1.0238095,0,0,1.0119048,-1.1428571,-98.071429)" id="linearGradient3780" xlink:href="#ButtonShadow-0" y1="6.1317081" x1="32.251034" y2="90.238609" x2="32.251034" gradientUnits="userSpaceOnUse"/>
<linearGradient gradientTransform="matrix(1.0238095,0,0,1.0119048,-1.1428571,-98.071429)" id="linearGradient3772" xlink:href="#ButtonShadow-0" y1="6.1317081" x1="32.251034" y2="90.238609" x2="32.251034" gradientUnits="userSpaceOnUse"/>
<linearGradient gradientTransform="matrix(1.0238095,0,0,1.0119048,-1.1428571,-98.071429)" id="linearGradient3725" xlink:href="#ButtonShadow-0" y1="6.1317081" x1="32.251034" y2="90.238609" x2="32.251034" gradientUnits="userSpaceOnUse"/>
<linearGradient gradientTransform="translate(0,-97)" id="linearGradient3721" xlink:href="#ButtonShadow-0" y1="6.1317081" x1="32.251034" y2="90.238609" x2="32.251034" gradientUnits="userSpaceOnUse"/>
<linearGradient id="linearGradient3617" xlink:href="#linearGradient3700" y1="90" x1="48" y2="5.9877172" x2="48" gradientUnits="userSpaceOnUse"/>
<linearGradient gradientTransform="scale(1.0058652,0.994169)" id="ButtonShadow" y1="92.539597" x1="45.447727" y2="7.0165396" x2="45.447727" gradientUnits="userSpaceOnUse">
<stop offset="0" id="stop3750"/>
<stop offset="1" style="stop-opacity:.588" id="stop3752"/>
</linearGradient>
<linearGradient id="linearGradient3737">
<stop offset="0" style="stop-color:#fff" id="stop3739"/>
<stop offset="1" style="stop-color:#fff;stop-opacity:0" id="stop3741"/>
</linearGradient>
<linearGradient id="linearGradient3188" xlink:href="#linearGradient3737" y1="6" x1="36.357143" y2="63.893143" x2="36.357143" gradientUnits="userSpaceOnUse"/>
<linearGradient id="linearGradient3700">
<stop offset="0" style="stop-color:#2295c5" id="stop3702"/>
<stop offset="1" style="stop-color:#68d8f4" id="stop3704"/>
</linearGradient>
<linearGradient id="linearGradient3613" xlink:href="#linearGradient3737" y1="20.220806" x1="48" y2="138.66119" x2="48" gradientUnits="userSpaceOnUse"/>
<linearGradient gradientTransform="matrix(1.0238095,0,0,1.0119048,-1.1428571,-98.071429)" id="linearGradient3122" xlink:href="#ButtonShadow-0" y1="6.1317081" x1="32.251034" y2="90.238609" x2="32.251034" gradientUnits="userSpaceOnUse"/>
<radialGradient fx="48" fy="90.171875" cx="48" cy="90.171875" gradientTransform="matrix(1.1573129,0,0,0.99590774,-7.5510206,0.19713193)" r="42" id="radialGradient3619" xlink:href="#linearGradient3737" gradientUnits="userSpaceOnUse"/>
</defs>
<g style="display:none" id="layer2">
<rect width="86" x="5" y="7" rx="6" height="85" ry="6" style="opacity:.9;fill:url(#ButtonShadow);filter:url(#filter3174);stroke:none" id="rect3745"/>
</g>
<g style="stroke:none" id="layer3">
<path style="opacity:.08;fill:url(#linearGradient3122)" id="path3786" d="m 12,-95.0312 c -5.51109,0 -10.0312,4.52016 -10.0312,10.0312 v 71 c 0,5.51109 4.52016,10.0312 10.0312,10.0312 h 72 c 5.51109,0 10.0312,-4.52016 10.0312,-10.0312 v -71 c 0,-5.51109 -4.52016,-10.0312 -10.0312,-10.0312 h -72 z " transform="scale(1,-1)"/>
<path style="opacity:.1;fill:url(#linearGradient3780)" id="path3778" d="m 12,-94.0312 c -4.97163,0 -9.03125,4.05962 -9.03125,9.03125 v 71 c 0,4.97163 4.05962,9.03125 9.03125,9.03125 h 72 c 4.97163,0 9.03125,-4.05962 9.03125,-9.03125 v -71 c 0,-4.97163 -4.05962,-9.03125 -9.03125,-9.03125 h -72 z " transform="scale(1,-1)"/>
<path style="opacity:.2;fill:url(#linearGradient3772)" id="path3770" d="m 12,-93 c -4.40913,0 -8,3.59087 -8,8 v 71 c 0,4.40913 3.59087,8 8,8 h 72 c 4.40913,0 8,-3.59087 8,-8 v -71 c 0,-4.40913 -3.59087,-8 -8,-8 h -72 z " transform="scale(1,-1)"/>
<rect width="86" x="5" y="-92" rx="7" height="85" ry="7" style="opacity:.3;fill:url(#linearGradient3725)" id="rect3723" transform="scale(1,-1)"/>
<rect width="84" x="6" y="-91" rx="6" height="84" ry="6" style="opacity:.45;fill:url(#linearGradient3721)" id="rect3716" transform="scale(1,-1)"/>
</g>
<g style="stroke:none" id="layer1">
<rect width="84" x="6" y="6" rx="6" height="84" ry="6" style="fill:url(#linearGradient3617)" id="rect2419"/>
<path style="opacity:.5;fill:url(#linearGradient3188)" id="rect3728" d="m 12,6 c -3.324,0 -6,2.676 -6,6 v 2 68 2 c 0,0.334721 0.04135,0.6507 0.09375,0.96875 0.0487,0.295596 0.09704,0.596915 0.1875,0.875 0.00988,0.03038 0.020892,0.0636 0.03125,0.09375 0.098865,0.287771 0.23488,0.547452 0.375,0.8125 0.144592,0.273507 0.315616,0.535615 0.5,0.78125 0.184384,0.245635 0.373776,0.473472 0.59375,0.6875 0.439947,0.428056 0.94291,0.814526 1.5,1.09375 0.278545,0.139612 0.573473,0.246947 0.875,0.34375 -0.256202,-0.100222 -0.486711,-0.236272 -0.71875,-0.375 -0.00741,-0.0044 -0.023866,0.0045 -0.03125,0 -0.031933,-0.0193 -0.062293,-0.04251 -0.09375,-0.0625 -0.120395,-0.0767 -0.231023,-0.163513 -0.34375,-0.25 -0.106173,-0.0808 -0.213281,-0.161112 -0.3125,-0.25 -0.17793,-0.161433 -0.34746,-0.345388 -0.5,-0.53125 -0.107579,-0.130255 -0.218394,-0.265285 -0.3125,-0.40625 -0.025089,-0.03838 -0.038446,-0.08587 -0.0625,-0.125 -0.064763,-0.103032 -0.130228,-0.204517 -0.1875,-0.3125 -0.101008,-0.194706 -0.205675,-0.415701 -0.28125,-0.625 -0.00796,-0.02181 -0.023589,-0.04055 -0.03125,-0.0625 -0.0318251,-0.09195 -0.0358045,-0.186831 -0.0625,-0.28125 -0.0303323,-0.106618 -0.0703894,-0.203031 -0.09375,-0.3125 -0.0728786,-0.341512 -0.125,-0.698205 -0.125,-1.0625 v -2 -68 -2 c 0,-2.78185 2.21815,-5 5,-5 h 2 68 2 c 2.78185,0 5,2.21815 5,5 v 2 68 2 c 0,0.364295 -0.05212,0.720988 -0.125,1.0625 -0.04415,0.206893 -0.08838,0.397658 -0.15625,0.59375 -0.0077,0.02195 -0.0233,0.04069 -0.03125,0.0625 -0.06274,0.173739 -0.138383,0.367449 -0.21875,0.53125 -0.04158,0.0828 -0.07904,0.169954 -0.125,0.25 -0.0546,0.09721 -0.126774,0.18835 -0.1875,0.28125 -0.09411,0.140965 -0.204921,0.275995 -0.3125,0.40625 -0.143174,0.17445 -0.303141,0.346998 -0.46875,0.5 -0.01117,0.0102 -0.01998,0.02115 -0.03125,0.03125 -0.138386,0.125556 -0.285091,0.234436 -0.4375,0.34375 -0.102571,0.07315 -0.204318,0.153364 -0.3125,0.21875 -0.0074,0.0045 -0.02384,-0.0044 -0.03125,0 -0.232039,0.138728 -0.462548,0.274778 -0.71875,0.375 0.301527,-0.0968 0.596455,-0.204138 0.875,-0.34375 0.55709,-0.279224 1.06005,-0.665694 1.5,-1.09375 0.219973,-0.214028 0.409366,-0.441865 0.59375,-0.6875 0.184384,-0.245635 0.355408,-0.507743 0.5,-0.78125 0.14012,-0.265048 0.276135,-0.524729 0.375,-0.8125 0.01041,-0.03078 0.02133,-0.06274 0.03125,-0.09375 0.09046,-0.278085 0.1388,-0.579404 0.1875,-0.875 0.0524,-0.31805 0.09375,-0.634029 0.09375,-0.96875 v -2 -68 -2 c 0,-3.324 -2.676,-6 -6,-6 h -72 z "/>
<path style="opacity:.2;fill:url(#radialGradient3619)" id="path3615" d="M 12,90 C 8.676,90 6,87.324 6,84 L 6,82 6,14 6,12 c 0,-0.334721 0.04135,-0.6507 0.09375,-0.96875 0.0487,-0.295596 0.09704,-0.596915 0.1875,-0.875 C 6.29113,10.12587 6.302142,10.09265 6.3125,10.0625 6.411365,9.774729 6.5473802,9.515048 6.6875,9.25 6.8320918,8.976493 7.0031161,8.714385 7.1875,8.46875 7.3718839,8.223115 7.5612765,7.995278 7.78125,7.78125 8.221197,7.353194 8.72416,6.966724 9.28125,6.6875 9.559795,6.547888 9.8547231,6.440553 10.15625,6.34375 9.9000482,6.443972 9.6695391,6.580022 9.4375,6.71875 c -0.00741,0.0044 -0.023866,-0.0045 -0.03125,0 -0.031933,0.0193 -0.062293,0.04251 -0.09375,0.0625 -0.120395,0.0767 -0.2310226,0.163513 -0.34375,0.25 -0.1061728,0.0808 -0.2132809,0.161112 -0.3125,0.25 C 8.4783201,7.442683 8.3087904,7.626638 8.15625,7.8125 8.0486711,7.942755 7.9378561,8.077785 7.84375,8.21875 7.818661,8.25713 7.805304,8.30462 7.78125,8.34375 7.716487,8.446782 7.6510225,8.548267 7.59375,8.65625 7.4927417,8.850956 7.3880752,9.071951 7.3125,9.28125 7.30454,9.30306 7.288911,9.3218 7.28125,9.34375 7.2494249,9.4357 7.2454455,9.530581 7.21875,9.625 7.1884177,9.731618 7.1483606,9.828031 7.125,9.9375 7.0521214,10.279012 7,10.635705 7,11 l 0,2 0,68 0,2 c 0,2.781848 2.2181517,5 5,5 l 2,0 68,0 2,0 c 2.781848,0 5,-2.218152 5,-5 l 0,-2 0,-68 0,-2 C 89,10.635705 88.94788,10.279012 88.875,9.9375 88.83085,9.730607 88.78662,9.539842 88.71875,9.34375 88.71105,9.3218 88.69545,9.30306 88.6875,9.28125 88.62476,9.107511 88.549117,8.913801 88.46875,8.75 88.42717,8.6672 88.38971,8.580046 88.34375,8.5 88.28915,8.40279 88.216976,8.31165 88.15625,8.21875 88.06214,8.077785 87.951329,7.942755 87.84375,7.8125 87.700576,7.63805 87.540609,7.465502 87.375,7.3125 87.36383,7.3023 87.35502,7.29135 87.34375,7.28125 87.205364,7.155694 87.058659,7.046814 86.90625,6.9375 86.803679,6.86435 86.701932,6.784136 86.59375,6.71875 c -0.0074,-0.0045 -0.02384,0.0044 -0.03125,0 -0.232039,-0.138728 -0.462548,-0.274778 -0.71875,-0.375 0.301527,0.0968 0.596455,0.204138 0.875,0.34375 0.55709,0.279224 1.060053,0.665694 1.5,1.09375 0.219973,0.214028 0.409366,0.441865 0.59375,0.6875 0.184384,0.245635 0.355408,0.507743 0.5,0.78125 0.14012,0.265048 0.276135,0.524729 0.375,0.8125 0.01041,0.03078 0.02133,0.06274 0.03125,0.09375 0.09046,0.278085 0.1388,0.579404 0.1875,0.875 C 89.95865,11.3493 90,11.665279 90,12 l 0,2 0,68 0,2 c 0,3.324 -2.676,6 -6,6 l -72,0 z"/>
<g style="fill:#005a80">
<path style="opacity:.05" id="path3695" d="m 11.625,9 c -0.682055,0.0766125 -1.2633,0.354718 -1.6875,0.78125 -0.4242,0.426532 -0.677199,0.962075 -0.8125,1.46875 -0.264532,0.990624 -0.175907,1.96889 -0.125,2.71875 1.85e-05,0.02083 -1.84e-05,0.04167 0,0.0625 0.020683,23.4557 -0.041638,46.9169 0.03125,70.375 a 0.981296,0.981296 0 0,0 0.03125,0.25 c 0.19312,0.760046 0.605378,1.36997 1.15625,1.75 0.550872,0.380033 1.17373,0.531161 1.75,0.59375 1.15254,0.125178 2.29456,-0.05058 2.96875,0 a 0.981296,0.981296 0 0,0 0.0625,0 c 23.1283,-0.02085 46.2754,0.0417 69.4062,-0.03125 a 0.981296,0.981296 0 0,0 0.25,-0.03125 c 0.760046,-0.19312 1.36997,-0.605378 1.75,-1.15625 0.380033,-0.550872 0.531161,-1.17373 0.59375,-1.75 0.125178,-1.15254 -0.05058,-2.29456 0,-2.96875 a 0.981296,0.981296 0 0,0 0,-0.0625 c -0.02084,-23.1283 0.0417,-46.2754 -0.03125,-69.4062 a 0.981296,0.981296 0 0,0 -0.03125,-0.25 c -0.19312,-0.760046 -0.605378,-1.36997 -1.15625,-1.75 -0.550872,-0.380033 -1.17373,-0.531161 -1.75,-0.59375 -1.15254,-0.125178 -2.29456,0.0505767 -2.96875,0 a 0.981296,0.981296 0 0,0 -0.0625,0 h -69.25 a 0.981296,0.981296 0 0,0 -0.125,0 z  m 9.375,12 20.9062,0 c -0.151571,0.371763 -0.292857,0.735753 -0.375,1.09375 -0.226111,0.985442 -0.337308,1.9157 -0.59375,2.53125 a 0.981296,0.981296 0 0,0 -0.03125,0.125 c -1.81194,6.95907 -3.64239,13.9165 -5.46875,20.875 -0.935086,-3.16587 -1.81909,-6.37335 -2.9375,-9.5 a 0.981296,0.981296 0 0,0 -0.125,-0.21875 c -0.807796,-1.19187 -2.16789,-1.4679 -3.25,-1.46875 -1.08211,-0.000852 -2.06548,0.156677 -2.6875,0.0625 a 0.981296,0.981296 0 0,0 -0.15625,0 h -5.28125 v -13.5 z  m 26.5625,0 9.3438,0 c -0.151918,0.277089 -0.319395,0.542014 -0.375,0.875 l -.0625,-.0312 c -1.45661,4.16465 -2.92005,8.33332 -4.375,12.5 -1.48308,-4.43468 -2.91623,-8.92237 -4.53125,-13.3438 z  m 14.6562,0 12.7812,0 v 29.5 h -3.03125 c -3.2522,-9.82448 -6.40618,-19.6882 -9.75,-29.5 z  m -41.2188,24.5 h 2.90625 c 2.96746,9.82395 5.95815,19.7371 8.90625,29.5 h -11.8125 v -29.5 z  m 38.3125,1.6562 c 1.38786,4.2312 2.7349,8.47964 4.21875,12.6875 a 0.981296,0.981296 0 0,0 0.125,0.25 c 0.802476,1.18902 2.14162,1.46662 3.21875,1.46875 1.07713,0.0021 2.06901,-0.155436 2.6875,-0.0625 a 0.981296,0.981296 0 0,0 0.15625,0 h 5.28125 v 13.5 h -35.875 c 2.23472,-8.36776 4.42959,-16.7484 6.625,-25.125 1.17532,3.58112 2.29903,7.19705 3.65625,10.75 a 0.981296,0.981296 0 0,0 0.09375,0.21875 c 1.53251,2.2028 5.00404,1.1308 5.4375,-1.375 l .0625,.0312 c 1.45725,-4.1081 2.87994,-8.22779 4.3125,-12.3438 z "/>
<path style="opacity:.1" id="path3685" d="m 11.75,9.9688 c -1.98319,0.222764 -1.88167,2.51175 -1.78125,3.99874 0.0208516,23.4788 -0.0416911,46.9636 0.03125,70.4388 0.580543,2.28479 3.29009,1.49583 5.01192,1.625 23.1307,-0.02085 46.2673,0.04169 69.3943,-0.03125 2.28479,-0.580543 1.49583,-3.29009 1.625,-5.01192 -0.020847,-23.1307 0.041685,-46.2673 -0.03125,-69.3943 -0.580543,-2.28479 -3.29009,-1.49583 -5.01192,-1.625 -23.0794,0 -46.1587,0 -69.2381,0 z  m 8.2812,10.0625 c 7.91667,0 15.8333,0 23.75,0 -1.54412,1.09918 -1.27079,3.3476 -1.94508,4.96613 -2.10027,8.06646 -4.22484,16.1266 -6.33617,24.1901 -1.32798,-4.23329 -2.45332,-8.56956 -3.9375,-12.7188 -1.17322,-1.73104 -3.54697,-0.737063 -5.2836,-1 -2.08255,0 -4.1651,0 -6.24765,0 0,-5.14583 0,-10.2917 0,-15.4375 z  m 25.7188,0 c 10.0729,0 20.1458,0 30.2188,0 0,10.4792 0,20.9583 0,31.4375 -1.57292,0 -3.14583,0 -4.71875,0 -3.34548,-10.089 -6.57057,-20.2236 -10,-30.2812 -0.999607,-1.67592 -3.66931,-0.888528 -3.83809,0.98422 -1.77251,5.06784 -3.54533,10.1356 -5.31816,15.2033 -1.93528,-5.57684 -3.63597,-11.2608 -5.6875,-16.7812 -0.160069,-0.243691 -0.417255,-0.406952 -0.65625,-0.5625 z  m 13.5938,24.0625 c 1.72379,5.13662 3.3286,10.3433 5.125,15.4375 1.16448,1.72541 3.52491,0.740431 5.25235,1 2.08255,0 4.1651,0 6.24765,0 0,5.14583 0,10.2917 0,15.4375 -12.6979,0 -25.3958,0 -38.0938,0 2.62929,-9.81298 5.16223,-19.6692 7.75,-29.5 1.58345,4.59357 2.95808,9.28518 4.6875,13.8125 1.07216,1.5411 3.57438,0.684141 3.74606,-1.10862 1.78062,-5.01969 3.53308,-10.0492 5.28519,-15.0789 z  m -39.3125,.4375 c 1.53125,0 3.0625,0 4.59375,0 3.16074,10.4647 6.36293,21.047 9.5,31.4375 -4.69792,0 -9.39583,0 -14.0938,0 0,-10.4792 0,-20.9583 0,-31.4375 z "/>
<path style="opacity:.3" id="path3681" d="m 11.9062,11.0625 a 0.932327,0.932327 0 0,0 -0.84375,0.9375 v 72 a 0.932327,0.932327 0 0,0 0.9375,0.9375 h 72 a 0.932327,0.932327 0 0,0 0.9375,-0.9375 v -72 a 0.932327,0.932327 0 0,0 -0.9375,-0.9375 h -72 a 0.932327,0.932327 0 0,0 -0.09375,0 z  m 7.0312,7.875 58.125,0 0,33.625 -6.5938,0 -7.75,-23.5938 -2.3125,-7 a 0.932327,0.932327 0 0,0 -1.75,-0.03125 l -2.4375,6.9688 -4.1562,11.8438 -3.75,-11.25 -2.6562,-8 a 0.932327,0.932327 0 0,0 -1.78125,0.03125 l -2.125,8.1562 -6.1562,23.5312 -4.2812,-14.2188 a 0.932327,0.932327 0 0,0 -0.03125,0 l -.5625,-1.7812 a 0.932327,0.932327 0 0,0 -0.875,-0.65625 h -1.84375 -9.0625 v -17.625 z  m 40.4375,21.75 5.375,16.375 .5625,1.7188 a 0.932327,0.932327 0 0,0 0.875,0.65625 h 1.8125 9.0625 v 17.625 h -58.125 v -33.625 h 6.46875 l 7.125,23.5312 2.5625,8.5 a 0.932327,0.932327 0 0,0 1.8125,-0.03125 l 2.25,-8.5938 6.3438,-24.2188 3.25,9.8125 2.3125,6.9375 a 0.932327,0.932327 0 0,0 1.75,0.03125 l 2.4375,-6.9062 4.125,-11.8125 z "/>
</g>
<path style="fill:#fff" id="path3618" d="m 12,12 0,72 72,0 0,-72 -72,0 z  m 6,6 60,0 0,35.5 -8.1875,0 -7.9688,-24.25 -2.3125,-7 -2.4375,6.9688 -5.0312,14.375 -4.625,-13.8125 -2.6562,-8 -2.125,8.1562 -7,26.7812 -5.25,-17.4375 l -.5625,-1.7812 h -1.84375 -10 v -19.5 z  m 41.4062,19.8125 6.2188,18.9688 .5625,1.7188 1.8125,0 h 10 v 19.5 h -60 v -35.5 h 8.125 l 7.3125,24.1875 2.5625,8.5 2.25,-8.5938 7.125,-27.2188 4.25,12.7812 2.3125,6.9375 2.4375,-6.9062 5.0312,-14.375 z "/>
</g>
<g id="layer5">
<rect width="66" x="15" y="15" rx="12" height="66" ry="12" style="opacity:.1;fill:url(#linearGradient3613);filter:url(#filter3794);stroke:#fff;stroke-linecap:round;stroke-width:.5;clip-path:url(#clipPath3613)" id="rect3171"/>
</g>
</svg>
