<svg width="96" version="1.0" xmlns="http://www.w3.org/2000/svg" height="96" xmlns:xlink="http://www.w3.org/1999/xlink">
<defs id="defs2410">
<clipPath id="ClipBallRelief">
<path style="opacity:.5;fill-rule:evenodd;stroke:none" id="ClipBallReliefPath" d="m 0,0 0,512 512,0 0,-512 -512,0 z  m 258.75,58.4375 c 18.8494,-0.169318 38.1688,3.34451 49.0312,7.6875 19.1821,7.66934 48.4708,16.6938 28.4062,46.0625 -20.1805,29.5383 -30.7168,88.1616 -13.4688,120.531 17.3284,32.5205 23.7731,38.4969 48.2188,50.3125 24.4457,11.8156 55.193,11.7215 78.125,8.84375 22.9744,-2.88312 11.4174,34.9251 4.5625,51.0938 -17.4616,44.4941 -60.121,77.0695 -101.812,94.9688 -42.0011,18.0322 -154.25,19.916 -183.812,5.125 -29.8555,-14.9378 -51.8868,-26.5934 -72.7188,-47.6562 -20.8371,-21.0681 -31.8231,-43.9426 -38.4688,-69.2188 -6.73572,-25.6187 21.5731,-10.0057 54.6562,-4.40625 33.0832,5.59942 69.6217,-20.349 84.3125,-37.375 14.6908,-17.026 36.1993,-68.1188 37.5,-100 1.30075,-31.8812 2.51453,-54.6689 -9.59375,-71.5625 -12.1083,-16.8936 -26.2832,-32.3918 -3.8125,-45.9688 9.83095,-5.9399 24.2144,-8.30581 38.875,-8.4375 z "/>
</clipPath>
<clipPath id="clipPath3613">
<rect width="84" x="6" y="6" rx="6" height="84" ry="6" style="fill:#fff;stroke:none" id="rect3615"/>
</clipPath>
<clipPath id="ClipLeftRelief">
<path style="opacity:.2;fill-rule:evenodd;stroke:#000" id="ClipLeftReliefPath" d="m 20.5,232.75 c 0,0 45.2766,54.9984 82.75,52.75 37.5,-2.25 61.75,-7.5 85.75,-45 24,-37.5 12.5,-88.5 6.5,-105.5 -5.84334,-16.5561 -28,-46 -60,-58.5 -32,-12.5 -32,-12.5 -32,-12.5 l 23.5,-5.5 87,26 17.5,113 -63,155.5 -139.5,-17.5 -17,-97 8.5,-5.75 z "/>
</clipPath>
<clipPath id="ClipRightRelief">
<path style="opacity:.2;fill-rule:evenodd;stroke:none" id="ClipRightReliefPath" d="m 386,90.5 c 0,0 -28,28.5 -34.5,50 -5.0228,16.6139 -9,51.5 13,79.5 19.4516,24.7565 56.5,45 87.5,34 31.8897,-11.3157 42.0774,-41.7178 45,-66.5 2.91627,-24.729 3.5,-28 3.5,-28 l 11.5,6 21.5,101 -71.5,46 -123.5,-56.5 -12.5,-128.5 33.5,-59 111,1.5 .5,13.5 -85,7 z "/>
</clipPath>
<clipPath id="ClipBallReflect">
<path id="ClipBallReflectPath" d="m 255.0312,37.8438 c -78.6553,2.08151 -157.931,40.9885 -202.595,106.654 -30.4768,45.9175 -35.5767,103.972 -29.1065,157.405 14.1138,84.8854 85.3917,154.245 168.827,171.728 60.2763,13.3269 124.989,6.99678 181.788,-16.9767 53.4704,-24.3764 93.5942,-75.067 104.633,-132.86 13.3181,-56.3772 15.4132,-119.511 -15.6031,-170.769 -41.3862,-73.2552 -124.786,-116.143 -207.945,-115.181 z "/>
</clipPath>
<clipPath id="clipPath2973">
<rect width="84" x="6" y="6" rx="6" height="84" ry="6" style="fill:url(#linearGradient2977);stroke:none" id="rect2975"/>
</clipPath>
<filter width="1.3839999" x="-0.192" y="-0.192" height="1.3839999" style="color-interpolation-filters:sRGB" id="filter3794">
<feGaussianBlur stdDeviation="5.28" id="feGaussianBlur3796"/>
</filter>
<filter style="color-interpolation-filters:sRGB" id="filter3174">
<feGaussianBlur stdDeviation="1.71" id="feGaussianBlur3176"/>
</filter>
<linearGradient id="WhiteGradient">
<stop offset="0" style="stop-color:#fff" id="WhiteStop1"/>
<stop offset="0.67378622" style="stop-color:#fff" id="WhiteStop2"/>
<stop offset="1" style="stop-color:#989898" id="WhiteStop3"/>
</linearGradient>
<linearGradient id="Gray">
<stop offset="0" style="stop-color:#434343" id="GrayStop1"/>
<stop offset="0.62869149" style="stop-color:#434343" id="GrayStop2"/>
<stop offset="1" style="stop-color:#252525" id="GrayStop3"/>
</linearGradient>
<linearGradient gradientTransform="matrix(1.0238095,0,0,1.0119048,-1.1428571,-98.071429)" id="linearGradient3725" xlink:href="#ButtonShadow-0" y1="6.1317081" x1="32.251034" y2="90.238609" x2="32.251034" gradientUnits="userSpaceOnUse"/>
<linearGradient gradientTransform="translate(0,-97)" id="linearGradient3721" xlink:href="#ButtonShadow-0" y1="6.1317081" x1="32.251034" y2="90.238609" x2="32.251034" gradientUnits="userSpaceOnUse"/>
<linearGradient gradientTransform="matrix(1.0238095,0,0,1.0119048,-1.1428571,-98.071429)" id="linearGradient3772" xlink:href="#ButtonShadow-0" y1="6.1317081" x1="32.251034" y2="90.238609" x2="32.251034" gradientUnits="userSpaceOnUse"/>
<linearGradient gradientTransform="matrix(1.0058652,0,0,0.994169,100,0)" id="ButtonShadow-0" y1="92.539597" x1="45.447727" y2="7.0165396" x2="45.447727" gradientUnits="userSpaceOnUse">
<stop offset="0" id="stop3750-8"/>
<stop offset="1" style="stop-opacity:.588" id="stop3752-5"/>
</linearGradient>
<linearGradient gradientTransform="matrix(1.0238095,0,0,1.0119048,-1.1428571,-98.071429)" id="linearGradient3780" xlink:href="#ButtonShadow-0" y1="6.1317081" x1="32.251034" y2="90.238609" x2="32.251034" gradientUnits="userSpaceOnUse"/>
<linearGradient id="linearGradient3708" xlink:href="#ButtonColor" y1="90" x1="48" y2="5.9877172" x2="48" gradientUnits="userSpaceOnUse"/>
<linearGradient id="linearGradient3613" xlink:href="#linearGradient3737" y1="20.220806" x1="48" y2="138.66119" x2="48" gradientUnits="userSpaceOnUse"/>
<linearGradient gradientTransform="matrix(1.0238095,0,0,1.0119048,-1.1428571,-98.071429)" id="linearGradient2918" xlink:href="#ButtonShadow-0" y1="6.1317081" x1="32.251034" y2="90.238609" x2="32.251034" gradientUnits="userSpaceOnUse"/>
<linearGradient id="linearGradient3188" xlink:href="#linearGradient3737" y1="6" x1="36.357143" y2="63.893143" x2="36.357143" gradientUnits="userSpaceOnUse"/>
<linearGradient id="linearGradient3737">
<stop offset="0" style="stop-color:#fff" id="stop3739"/>
<stop offset="1" style="stop-color:#fff;stop-opacity:0" id="stop3741"/>
</linearGradient>
<linearGradient gradientTransform="scale(1.0058652,0.994169)" id="ButtonShadow" y1="92.539597" x1="45.447727" y2="7.0165396" x2="45.447727" gradientUnits="userSpaceOnUse">
<stop offset="0" id="stop3750"/>
<stop offset="1" style="stop-opacity:.588" id="stop3752"/>
</linearGradient>
<linearGradient id="linearGradient3700">
<stop offset="0" style="stop-color:#70a83e" id="stop3702"/>
<stop offset="1" style="stop-color:#9fd058" id="stop3704"/>
</linearGradient>
<linearGradient id="linearGradient3617" xlink:href="#linearGradient3700" y1="90" x1="48" y2="5.9877172" x2="48" gradientUnits="userSpaceOnUse"/>
<linearGradient id="linearGradient3878" xlink:href="#linearGradient3700" y1="90" x1="48" y2="5.9877172" x2="48" gradientUnits="userSpaceOnUse"/>
<linearGradient id="linearGradient2977" xlink:href="#linearGradient3700-4" y1="90" x1="48" y2="5.9877172" x2="48" gradientUnits="userSpaceOnUse"/>
<linearGradient id="linearGradient3700-4">
<stop offset="0" style="stop-color:#70a83e" id="stop3702-4"/>
<stop offset="1" style="stop-color:#9fd058" id="stop3704-4"/>
</linearGradient>
<linearGradient gradientTransform="matrix(1.0172414,0,0,1.0172414,-1.1034483,-1.1034483)" id="ButtonColor" y1="122" x1="58.650177" y2="5.4252338" x2="58.650177" gradientUnits="userSpaceOnUse">
<stop offset="0" style="stop-color:#722284" id="stop3189"/>
<stop offset="1" style="stop-color:#c06fd5" id="stop3191"/>
</linearGradient>
<radialGradient fx="418.69232" fy="181.85207" cx="418.69232" cy="181.85207" gradientTransform="matrix(0.9455142,-0.4039922,0.5142982,1.2036775,-69.781991,131.20609)" r="81.905167" id="RightWhite" xlink:href="#WhiteGradient" gradientUnits="userSpaceOnUse"/>
<radialGradient fx="254.63956" fy="253.88263" cx="254.63956" cy="253.88263" gradientTransform="matrix(1.0607551,-0.06751127,0.06227048,0.9784103,-31.589703,22.765255)" r="233.46906" id="RadialGray" xlink:href="#Gray" gradientUnits="userSpaceOnUse"/>
<radialGradient fx="48" fy="90.171875" cx="48" cy="90.171875" gradientTransform="matrix(1.1573129,0,0,0.99590774,-7.5510206,0.19713193)" r="42" id="radialGradient3619" xlink:href="#linearGradient3737" gradientUnits="userSpaceOnUse"/>
<radialGradient fx="112.06695" fy="178.6734" cx="112.06695" cy="178.6734" gradientTransform="matrix(0.8321994,0.3616023,-0.5071926,1.1672632,114.88409,-60.50035)" r="102.05867" id="LeftWhite" xlink:href="#WhiteGradient" gradientUnits="userSpaceOnUse"/>
</defs>
<g style="display:none" id="layer2">
<rect width="86" x="5" y="7" rx="6" height="85" ry="6" style="opacity:.9;fill:url(#ButtonShadow);filter:url(#filter3174);stroke:none" id="rect3745"/>
</g>
<g style="stroke:none" id="layer3">
<path style="opacity:.08;fill:url(#linearGradient2918)" id="path3786" d="m 12,-95.0312 c -5.51109,0 -10.0312,4.52016 -10.0312,10.0312 v 71 c 0,5.51109 4.52016,10.0312 10.0312,10.0312 h 72 c 5.51109,0 10.0312,-4.52016 10.0312,-10.0312 v -71 c 0,-5.51109 -4.52016,-10.0312 -10.0312,-10.0312 h -72 z " transform="scale(1,-1)"/>
<path style="opacity:.1;fill:url(#linearGradient3780)" id="path3778" d="m 12,-94.0312 c -4.97163,0 -9.03125,4.05962 -9.03125,9.03125 v 71 c 0,4.97163 4.05962,9.03125 9.03125,9.03125 h 72 c 4.97163,0 9.03125,-4.05962 9.03125,-9.03125 v -71 c 0,-4.97163 -4.05962,-9.03125 -9.03125,-9.03125 h -72 z " transform="scale(1,-1)"/>
<path style="opacity:.2;fill:url(#linearGradient3772)" id="path3770" d="m 12,-93 c -4.40913,0 -8,3.59087 -8,8 v 71 c 0,4.40913 3.59087,8 8,8 h 72 c 4.40913,0 8,-3.59087 8,-8 v -71 c 0,-4.40913 -3.59087,-8 -8,-8 h -72 z " transform="scale(1,-1)"/>
<rect width="86" x="5" y="-92" rx="7" height="85" ry="7" style="opacity:.3;fill:url(#linearGradient3725)" id="rect3723" transform="scale(1,-1)"/>
<rect width="84" x="6" y="-91" rx="6" height="84" ry="6" style="opacity:.45;fill:url(#linearGradient3721)" id="rect3716" transform="scale(1,-1)"/>
</g>
<g style="stroke:none" id="layer1">
<rect width="84" x="6" y="6" rx="6" height="84" ry="6" style="fill:url(#linearGradient3708)" id="rect2419"/>
<path style="opacity:.4;fill:url(#linearGradient3188)" id="rect3728" d="m 12,6 c -3.324,0 -6,2.676 -6,6 v 2 68 2 c 0,0.334721 0.04135,0.6507 0.09375,0.96875 0.0487,0.295596 0.09704,0.596915 0.1875,0.875 0.00988,0.03038 0.020892,0.0636 0.03125,0.09375 0.098865,0.287771 0.23488,0.547452 0.375,0.8125 0.144592,0.273507 0.315616,0.535615 0.5,0.78125 0.184384,0.245635 0.373776,0.473472 0.59375,0.6875 0.439947,0.428056 0.94291,0.814526 1.5,1.09375 0.278545,0.139612 0.573473,0.246947 0.875,0.34375 -0.256202,-0.100222 -0.486711,-0.236272 -0.71875,-0.375 -0.00741,-0.0044 -0.023866,0.0045 -0.03125,0 -0.031933,-0.0193 -0.062293,-0.04251 -0.09375,-0.0625 -0.120395,-0.0767 -0.231023,-0.163513 -0.34375,-0.25 -0.106173,-0.0808 -0.213281,-0.161112 -0.3125,-0.25 -0.17793,-0.161433 -0.34746,-0.345388 -0.5,-0.53125 -0.107579,-0.130255 -0.218394,-0.265285 -0.3125,-0.40625 -0.025089,-0.03838 -0.038446,-0.08587 -0.0625,-0.125 -0.064763,-0.103032 -0.130228,-0.204517 -0.1875,-0.3125 -0.101008,-0.194706 -0.205675,-0.415701 -0.28125,-0.625 -0.00796,-0.02181 -0.023589,-0.04055 -0.03125,-0.0625 -0.0318251,-0.09195 -0.0358045,-0.186831 -0.0625,-0.28125 -0.0303323,-0.106618 -0.0703894,-0.203031 -0.09375,-0.3125 -0.0728786,-0.341512 -0.125,-0.698205 -0.125,-1.0625 v -2 -68 -2 c 0,-2.78185 2.21815,-5 5,-5 h 2 68 2 c 2.78185,0 5,2.21815 5,5 v 2 68 2 c 0,0.364295 -0.05212,0.720988 -0.125,1.0625 -0.04415,0.206893 -0.08838,0.397658 -0.15625,0.59375 -0.0077,0.02195 -0.0233,0.04069 -0.03125,0.0625 -0.06274,0.173739 -0.138383,0.367449 -0.21875,0.53125 -0.04158,0.0828 -0.07904,0.169954 -0.125,0.25 -0.0546,0.09721 -0.126774,0.18835 -0.1875,0.28125 -0.09411,0.140965 -0.204921,0.275995 -0.3125,0.40625 -0.143174,0.17445 -0.303141,0.346998 -0.46875,0.5 -0.01117,0.0102 -0.01998,0.02115 -0.03125,0.03125 -0.138386,0.125556 -0.285091,0.234436 -0.4375,0.34375 -0.102571,0.07315 -0.204318,0.153364 -0.3125,0.21875 -0.0074,0.0045 -0.02384,-0.0044 -0.03125,0 -0.232039,0.138728 -0.462548,0.274778 -0.71875,0.375 0.301527,-0.0968 0.596455,-0.204138 0.875,-0.34375 0.55709,-0.279224 1.06005,-0.665694 1.5,-1.09375 0.219973,-0.214028 0.409366,-0.441865 0.59375,-0.6875 0.184384,-0.245635 0.355408,-0.507743 0.5,-0.78125 0.14012,-0.265048 0.276135,-0.524729 0.375,-0.8125 0.01041,-0.03078 0.02133,-0.06274 0.03125,-0.09375 0.09046,-0.278085 0.1388,-0.579404 0.1875,-0.875 0.0524,-0.31805 0.09375,-0.634029 0.09375,-0.96875 v -2 -68 -2 c 0,-3.324 -2.676,-6 -6,-6 h -72 z "/>
<path style="opacity:.2;fill:url(#radialGradient3619)" id="path3615" d="M 12,90 C 8.676,90 6,87.324 6,84 L 6,82 6,14 6,12 c 0,-0.334721 0.04135,-0.6507 0.09375,-0.96875 0.0487,-0.295596 0.09704,-0.596915 0.1875,-0.875 C 6.29113,10.12587 6.302142,10.09265 6.3125,10.0625 6.411365,9.774729 6.5473802,9.515048 6.6875,9.25 6.8320918,8.976493 7.0031161,8.714385 7.1875,8.46875 7.3718839,8.223115 7.5612765,7.995278 7.78125,7.78125 8.221197,7.353194 8.72416,6.966724 9.28125,6.6875 9.559795,6.547888 9.8547231,6.440553 10.15625,6.34375 9.9000482,6.443972 9.6695391,6.580022 9.4375,6.71875 c -0.00741,0.0044 -0.023866,-0.0045 -0.03125,0 -0.031933,0.0193 -0.062293,0.04251 -0.09375,0.0625 -0.120395,0.0767 -0.2310226,0.163513 -0.34375,0.25 -0.1061728,0.0808 -0.2132809,0.161112 -0.3125,0.25 C 8.4783201,7.442683 8.3087904,7.626638 8.15625,7.8125 8.0486711,7.942755 7.9378561,8.077785 7.84375,8.21875 7.818661,8.25713 7.805304,8.30462 7.78125,8.34375 7.716487,8.446782 7.6510225,8.548267 7.59375,8.65625 7.4927417,8.850956 7.3880752,9.071951 7.3125,9.28125 7.30454,9.30306 7.288911,9.3218 7.28125,9.34375 7.2494249,9.4357 7.2454455,9.530581 7.21875,9.625 7.1884177,9.731618 7.1483606,9.828031 7.125,9.9375 7.0521214,10.279012 7,10.635705 7,11 l 0,2 0,68 0,2 c 0,2.781848 2.2181517,5 5,5 l 2,0 68,0 2,0 c 2.781848,0 5,-2.218152 5,-5 l 0,-2 0,-68 0,-2 C 89,10.635705 88.94788,10.279012 88.875,9.9375 88.83085,9.730607 88.78662,9.539842 88.71875,9.34375 88.71105,9.3218 88.69545,9.30306 88.6875,9.28125 88.62476,9.107511 88.549117,8.913801 88.46875,8.75 88.42717,8.6672 88.38971,8.580046 88.34375,8.5 88.28915,8.40279 88.216976,8.31165 88.15625,8.21875 88.06214,8.077785 87.951329,7.942755 87.84375,7.8125 87.700576,7.63805 87.540609,7.465502 87.375,7.3125 87.36383,7.3023 87.35502,7.29135 87.34375,7.28125 87.205364,7.155694 87.058659,7.046814 86.90625,6.9375 86.803679,6.86435 86.701932,6.784136 86.59375,6.71875 c -0.0074,-0.0045 -0.02384,0.0044 -0.03125,0 -0.232039,-0.138728 -0.462548,-0.274778 -0.71875,-0.375 0.301527,0.0968 0.596455,0.204138 0.875,0.34375 0.55709,0.279224 1.060053,0.665694 1.5,1.09375 0.219973,0.214028 0.409366,0.441865 0.59375,0.6875 0.184384,0.245635 0.355408,0.507743 0.5,0.78125 0.14012,0.265048 0.276135,0.524729 0.375,0.8125 0.01041,0.03078 0.02133,0.06274 0.03125,0.09375 0.09046,0.278085 0.1388,0.579404 0.1875,0.875 C 89.95865,11.3493 90,11.665279 90,12 l 0,2 0,68 0,2 c 0,3.324 -2.676,6 -6,6 l -72,0 z"/>
</g>
<g id="layer7">
<g style="stroke:none;display:none">
<g style="opacity:.9;fill:#ddafe9;clip-path:url(#clipPath2973)" id="g3855">
<path style="opacity:.15" id="path3819" d="M 48,48 72,-8 88,-8 48,48 z"/>
<path style="opacity:.15" id="path3821" d="M 48,48 103.25122,73.67688 102.769,89.669611 48,48 z"/>
<path style="opacity:.15" id="path3823" d="m 48,48 -59.8279,11.5159 -8.9688,-13.2499 68.7968,1.734 z "/>
<path style="opacity:.15" id="path3825" d="M 48,48 -1.3111997,12.217252 2.2248524,-3.3871168 48,48 z"/>
<path style="opacity:.15" id="path3827" d="M 48,48 65.519239,-14.073153 95.955194,-1.3588835 48,48 z"/>
<path style="opacity:.15" id="path3829" d="M 48,48 109.6356,28.998609 115.4895,61.459846 48,48 z"/>
<path style="opacity:.15" id="path3831" d="M 48,48 16.754067,104.42421 -9.9692451,85.088633 48,48 z"/>
<path style="opacity:.15" id="path3833" d="M 48,48 -14.811967,33.348835 -3.5083336,2.3612922 48,48 z"/>
<path style="opacity:.15" id="path3835" d="M 48,48 93.809637,93.403493 90.117903,102.42501 48,48 z"/>
<path style="opacity:.15" id="path3837" d="m 48,48 -2.970052,64.42964 -9.168463,3.30998 L 48,48 z"/>
<path style="opacity:.15" id="path3839" d="M 48,48 3.1405789,94.342551 -5.923902,90.757601 48,48 z"/>
<path style="opacity:.15" id="path3841" d="m 48,48 -62.1161,17.3662 -6.0159,-7.6698 68.1321,-9.6964 z "/>
<path style="opacity:.15" id="path3843" d="m 48,48 -29.1466,-57.5367 6.3493,-7.3962 22.7974,64.9329 z "/>
<path style="opacity:.15" id="path3845" d="m 48,48 59.4817,-24.9385 6.921,6.8641 -66.4027,18.0744 z "/>
<path style="opacity:.15" id="path3849" d="m 48,48 40.1867,45.7933 -6.8963,14.4375 -33.2904,-60.2308 z "/>
<path style="opacity:.15" id="path3851" d="m 48,48 -35.958,-49.1836 8.1521,-13.7675 27.8059,62.951 z "/>
</g>
<rect width="84" x="6" y="6" rx="6" height="84" ry="6" style="fill:url(#linearGradient3617)" id="rect3873"/>
<rect width="84" x="6" y="6" rx="6" height="84" ry="6" style="fill:url(#linearGradient3878)" id="rect3880"/>
</g>
</g>
<g id="layer5">
<rect width="66" x="15" y="15" rx="12" height="66" ry="12" style="opacity:.1;fill:url(#linearGradient3613);filter:url(#filter3794);stroke:#fff;stroke-linecap:round;stroke-width:.5;clip-path:url(#clipPath3613)" id="rect3171"/>
</g>
<g id="layer6">
<path style="opacity:.05" id="path3887" d="m 47.4688,18.6875 c -5.44722,0.144154 -10.7851,1.72896 -15.5938,4.28125 -0.09565,-0.0074 -0.187503,-0.0262 -0.3125,-0.03125 v 0.15625 c -0.0085,0.0046 -0.02276,-0.0046 -0.03125,0 0.00021,-0.02048 -9.3e-05,-0.15625 0,-0.15625 -0.0087,2e-06 -0.01947,0 -0.03125,0 -0.01178,0 -0.05383,2e-06 -0.0625,0 a 1.08117,1.08117 0 0,0 -0.03125,0 c -5.51781,0.09175 -9.99195,3.60394 -12.75,7.65625 -0.0036,0.0053 -0.02762,-0.0053 -0.03125,0 0.0013,-0.0013 0,0.03125 0,0.03125 -0.02415,0.03564 -0.06987,0.05802 -0.09375,0.09375 h -0.03125 c -0.0061,0.0051 0.124828,-0.156479 0,0.03125 -0.01656,0.01656 -0.03171,0.03173 -0.03125,0.03125 a 1.08117,1.08117 0 0,0 -0.0625,0.09375 c 0.242913,-0.371834 0.22747,-0.366771 -0.03125,0.03125 a 1.08117,1.08117 0 0,0 -0.03125,0.0625 c -1.87719,2.97182 -3.16639,6.42002 -3.34375,10.0938 a 1.08117,1.08117 0 0,0 0,0.03125 c 1e-05,-0.000623 3e-06,0.04294 0,0.0625 1e-06,0.0041 0,0.02467 0,0.03125 -1e-06,0.01316 2e-06,0.02148 0,0.03125 -0.000193,-0.01646 -0.000517,-0.0072 0,0.03125 0.000582,0.04322 0.03036,0.0818 0.03125,0.125 0.03603,1.75583 0.334507,3.50017 0.78125,5.15625 -0.19352,2.61653 -0.09827,5.23921 0.1875,7.75 0.0012,0.01012 -0.0012,0.02114 0,0.03125 a 1.08117,1.08117 0 0,0 -0.03125,0.03125 c 5e-06,0.0025 -4e-06,0.02558 0,0.03125 a 1.08117,1.08117 0 0,0 0,0.03125 1.08117,1.08117 0 0,0 0,0.03125 c -4e-06,0.0057 5e-06,0.02878 0,0.03125 3e-06,0.01956 1e-05,0.06312 0,0.0625 a 1.08117,1.08117 0 0,0 0.03125,0.03125 1.08117,1.08117 0 0,0 0,0.0625 1.08117,1.08117 0 0,0 0.03125,0.15625 c -0.000794,-0.0028 0.06357,0.221503 0.0625,0.21875 2.04969,11.7036 11.6657,20.9803 23.0938,23.375 8.06811,1.78384 16.6028,0.951339 24.1875,-2.25 a 1.08117,1.08117 0 0,0 0.03125,-0.03125 c -0.000786,0.000359 0.03593,-0.01796 0.0625,-0.03125 0.06394,-0.02915 0.07494,-0.02109 0.09375,-0.03125 0.01328,-0.0072 0.07086,-0.03512 0.0625,-0.03125 a 1.08117,1.08117 0 0,0 0.125,-0.0625 c -0.002,0.0013 0.12687,-0.09515 0.125,-0.09375 -0.0019,0.0014 0.126754,-0.0953 0.125,-0.09375 6.95534,-3.37952 12.0272,-9.87203 13.75,-17.4062 -0.002,0.003 0.05063,-0.07691 0.0625,-0.09375 a 1.08117,1.08117 0 0,0 0,-0.0625 c 0.0029,-0.01301 0.02839,-0.01823 0.03125,-0.03125 a 1.08117,1.08117 0 0,0 0,-0.03125 h 0.03125 c 0.0021,-0.0044 -0.0053,-0.02063 0,-0.03125 a 1.08117,1.08117 0 0,0 0,-0.03125 c 0.0077,-0.02314 0.02143,-0.03305 0.03125,-0.0625 0.0098,-0.02945 0.02679,-0.04921 0.03125,-0.0625 0.002,-0.0058 0.000105,-0.03163 0,-0.03125 0.0068,-0.01643 0.03146,-0.03181 0.03125,-0.03125 -0.000703,0.0019 0.06307,-0.126917 0.0625,-0.125 -0.000575,0.0019 0.03169,-0.126951 0.03125,-0.125 a 1.08117,1.08117 0 0,0 0,-0.03125 c 0.0024,-0.01248 -0.0019,-0.02173 0,-0.03125 0.006,-0.03094 0.02554,-0.05936 0.03125,-0.09375 0.0046,-0.01976 -0.0046,-0.04273 0,-0.0625 0.000239,-0.0045 8.3e-05,-0.02064 0,-0.03125 0.000573,-0.0048 -0.000821,-0.02351 0,-0.03125 -0.000273,-0.01339 0.000331,-0.0184 0,-0.03125 0.668431,-2.92245 1.07159,-5.98571 1.09375,-9.09375 0.0082,-0.01265 0.02363,-0.01885 0.03125,-0.03125 a 1.08117,1.08117 0 0,0 0.03125,-0.03125 c -0.001,0.0018 0.06337,-0.15815 0.0625,-0.15625 -0.04294,0.07207 -0.09361,0.09366 -0.125,0.125 0.000342,-0.07394 0.03135,-0.144766 0.03125,-0.21875 a 1.08117,1.08117 0 0,0 0.0625,0 h 0.03125 a 1.08117,1.08117 0 0,0 0.03125,0 c -0.0064,0.01507 0.01265,0.006 0,0.03125 a 1.08117,1.08117 0 0,0 0.03125,-0.03125 c 0.01501,-0.03032 0.01649,-0.06337 0.03125,-0.09375 a 1.08117,1.08117 0 0,0 0,-0.03125 c 1.64079,-3.39446 1.7667,-7.11239 1.15625,-10.5 0.0034,5.7e-05 0.0625,-3.7e-05 0.0625,0 -2e-06,-0.0087 0,-0.01947 0,-0.03125 0,-0.01178 -2e-06,-0.05383 0,-0.0625 h -0.0625 c -0.0037,-0.02005 0.0037,-0.04248 0,-0.0625 h 0.03125 c -7.6e-05,0.0016 -1.1e-05,-0.06942 0,-0.125 8e-06,-0.04169 -5.7e-05,-0.09495 0,-0.09375 a 1.08117,1.08117 0 0,0 -0.03125,-0.03125 c 0.00018,0.000719 0.0068,-0.03862 0,-0.0625 a 1.08117,1.08117 0 0,0 0,-0.09375 c -0.584304,-2.32249 -1.61652,-4.60267 -3.09375,-6.59375 -0.276708,-0.372962 -0.568651,-0.774356 -0.96875,-1.21875 -1.81207,-2.0149 -4.27543,-3.10005 -6.75,-3.5625 -0.0894,-0.06147 -0.05605,-0.01065 -0.09375,-0.03125 -0.08027,-0.04387 -0.1875,-0.09375 -0.1875,-0.09375 a 1.08117,1.08117 0 0,0 -0.09375,-0.03125 l -.3125,-.0938 a 1.08117,1.08117 0 0,0 -0.21875,-0.03125 1.08117,1.08117 0 0,0 -0.03125,0 1.08117,1.08117 0 0,0 -0.125,0 c -0.05052,-0.0064 -0.07549,0.0057 -0.125,0 -0.01238,-0.0014 -0.01894,0.0014 -0.03125,0 -0.595448,-0.06709 -1.12649,-0.106807 -1.5,-0.125 -5.63406,-4.01979 -12.4622,-6.32363 -19.4375,-6.25 h -0.03125 c -0.0098,2e-06 -0.01809,-1e-06 -0.03125,0 -0.0066,0 -0.02714,1e-06 -0.03125,0 0,0 0,1.09375 0,1.09375 l -.0312,-1.0938 z  m -15.9375,4.5312 .0312,.0625 -.0312,.75 c 0.0027,-0.401424 -0.0015,-0.632627 0,-0.8125 z  m -12.6875,7.75 .375,.25 c 0.05261,0.05245 0.15625,0.15625 0.15625,0.15625 l -.5312,-.4062 z  m 61.2188,6.125 .375,.0312 -.4062,.0625 -.5,0 .5312,-.0938 z  m -1.625,.1562 c 0,0 0.553151,0.02766 1.09375,0.03125 h -0.03125 l -1.0625,-.0312 z  m .0312,10.2812 .0312,0 a 1.08117,1.08117 0 0,0 0.40625,0.3125 h -0.40625 c -0.02737,-0.133064 -0.0504,-0.222429 -0.0625,-0.28125 0.0056,-0.001 0.02376,-0.02986 0.03125,-0.03125 z  m .0938,.7188 .25,.1875 c -0.03429,0.01441 -0.06252,0.03126 -0.0625,0.03125 0,0 -0.125,0.03125 -0.125,0.03125 0,0 -0.04379,-0.159015 -0.0625,-0.25 z  m -2.2812,8.2812 c 0.05133,0.052 0.589128,0.587832 0.6875,0.6875 -0.05911,-0.05245 -0.659643,-0.603802 -0.71875,-0.65625 0.01342,-0.01411 0.02287,-0.02244 0.03125,-0.03125 z "/>
<path style="opacity:.1" id="path3883" d="m 47.5,19.7812 c -5.40672,0.143082 -10.733,1.6803 -15.5,4.28125 -0.153711,-0.0086 -0.315939,-0.02508 -0.46875,-0.03125 0.000982,1.7e-05 -0.09473,1.7e-05 -0.09375,0 -5.12856,0.08528 -9.39787,3.38756 -12,7.28125 -0.008,0.01193 -0.02331,0.01931 -0.03125,0.03125 -0.01661,0.01661 -0.03173,0.03175 -0.03125,0.03125 a 0.992097,0.992097 0 0,0 -0.0625,0.09375 c -0.0078,0.01198 -0.02345,0.01926 -0.03125,0.03125 a 0.992097,0.992097 0 0,0 -0.03125,0.03125 c -1.79118,2.83566 -2.98931,6.13577 -3.15625,9.59375 a 0.992097,0.992097 0 0,0 0,0.03125 c 1.1e-05,-0.000655 4e-06,0.04289 0,0.0625 0.000121,0.01033 -0.000139,0.02092 0,0.03125 0.02363,1.75343 0.315931,3.51248 0.78125,5.1875 -0.210883,2.66003 -0.114706,5.33995 0.1875,7.90625 6.8e-05,-0.002 6.8e-05,0.126964 0,0.125 a 0.992097,0.992097 0 0,0 0,0.03125 0.992097,0.992097 0 0,0 0.03125,0.09375 c 1.88407,11.3314 11.2443,20.3995 22.3125,22.7188 7.84118,1.73366 16.1851,0.926315 23.5625,-2.1875 a 0.992097,0.992097 0 0,0 0.0625,-0.03125 c 0.04249,-0.01937 0.08264,-0.04288 0.125,-0.0625 a 0.992097,0.992097 0 0,0 0.125,-0.09375 c 6.87964,-3.24104 11.9345,-9.68591 13.5312,-17.125 a 0.992097,0.992097 0 0,0 0.03125,-0.03125 c 0.0048,-0.02271 0.02648,-0.03977 0.03125,-0.0625 a 0.992097,0.992097 0 0,0 0.03125,-0.09375 0.992097,0.992097 0 0,0 0.09375,-0.25 c 0.0392,-0.202305 0.000992,-0.02009 0,-0.03125 -0.000992,-0.01116 0.03473,-0.213088 0,-0.03125 0.712712,-3.04175 1.13457,-6.24133 1.125,-9.46875 0.0732,-0.08342 0.09748,-0.07217 0.1875,-0.21875 a 0.992097,0.992097 0 0,0 0.03125,-0.0625 c -0.00074,0.0013 0.01181,-0.05492 0.03125,-0.09375 0.0083,-0.01664 0.03152,-0.03185 0.03125,-0.03125 1.59153,-3.21552 1.71742,-6.85072 1.09375,-10.1562 h 0.03125 c -1.7e-05,0.000982 -1.7e-05,-0.09473 0,-0.09375 a 0.992097,0.992097 0 0,0 -0.03125,-0.125 0.992097,0.992097 0 0,0 0,-0.09375 c -0.551653,-2.19271 -1.51928,-4.31807 -2.90625,-6.1875 -0.286117,-0.385643 -0.556681,-0.76798 -0.90625,-1.15625 -1.73255,-1.92647 -4.13203,-3.00977 -6.5625,-3.375 -0.01806,-0.01242 -0.06249,-0.03125 -0.0625,-0.03125 -4e-05,-2e-05 -0.312456,-0.09374 -0.3125,-0.09375 v 0.03125 c -0.0121,0.000875 -0.152445,-0.01782 -0.03125,0 -0.78374,-0.115223 -1.47382,-0.127224 -1.96875,-0.15625 -0.0071,-0.0052 -0.02411,0.0052 -0.03125,0 -5.50478,-4.01926 -12.2728,-6.29108 -19.125,-6.21875 0.000327,6e-06 -0.02144,-2e-06 -0.03125,0 -0.01961,4e-06 -0.06316,1.1e-05 -0.0625,0 z "/>
<path style="opacity:.15" id="path3879" d="m 47.5312,20.7812 c -5.36055,0.14186 -10.6979,1.64755 -15.4062,4.28125 -0.195598,-0.017539 -0.39087,-0.021796 -0.625,-0.03125 a 0.906503,0.906503 0 0,0 -0.03125,0 c -4.79025,0.07965 -8.89445,3.23191 -11.3438,7 a 0.906503,0.906503 0 0,0 -0.03125,0.03125 c -1.71083,2.70845 -2.84262,5.86502 -3,9.125 a 0.906503,0.906503 0 0,0 0,0.03125 c 0.0203,1.72657 0.303936,3.46011 0.78125,5.125 -0.228557,2.69515 -0.129358,5.41452 0.1875,8.03125 a 0.906503,0.906503 0 0,0 0,0.0625 c 1.81015,10.8869 10.8942,19.6708 21.5625,21.9062 7.63296,1.68763 15.7828,0.908008 22.9688,-2.125 a 0.906503,0.906503 0 0,0 0.03125,-0.03125 c 6.85593,-3.12552 11.9367,-9.59378 13.375,-17 h 0.03125 c 0.0038,-0.0196 -0.0037,-0.04289 0,-0.0625 0.729463,-3.10451 1.17093,-6.39037 1.125,-9.65625 0.09205,-0.109915 0.193427,-0.181102 0.3125,-0.375 a 0.906503,0.906503 0 0,0 0.03125,-0.0625 c 1.51788,-3.04281 1.67185,-6.57497 1.03125,-9.78125 a 0.906503,0.906503 0 0,0 0,-0.03125 c -0.523263,-2.07986 -1.41835,-4.091 -2.71875,-5.84375 -0.280643,-0.378265 -0.560253,-0.744157 -0.875,-1.09375 -1.63418,-1.81709 -3.96034,-2.84598 -6.3125,-3.125 -0.0028,-0.000338 0.0028,-0.03091 0,-0.03125 -0.02289,-0.0036 -0.03974,0.0033 -0.0625,0 -0.697021,-0.102474 -1.34779,-0.090314 -1.90625,-0.125 a 0.906503,0.906503 0 0,0 -0.09375,0 c -0.03233,0.0017 -0.0346,-0.0022 -0.0625,0 -5.39528,-4.0558 -12.155,-6.29724 -18.9375,-6.21875 a 0.906503,0.906503 0 0,0 -0.03125,0 z "/>
<path style="opacity:.3" id="path3798" d="m 47.5625,21.6875 c -5.311,0.140549 -10.6362,1.65505 -15.2812,4.3125 -0.27103,-0.02037 -0.540829,-0.05153 -0.8125,-0.0625 -4.39382,0.07306 -8.27156,3.0212 -10.5938,6.59375 -1.63803,2.5932 -2.72653,5.61211 -2.875,8.6875 0.02014,1.71275 0.288333,3.44516 0.78125,5.09375 -0.235833,2.65761 -0.128193,5.36164 0.1875,7.96875 1.74222,10.4783 10.5444,19.0294 20.8438,21.1875 7.44054,1.64508 15.4262,0.865553 22.4375,-2.09375 6.60042,-3.00904 11.5436,-9.27227 12.9062,-16.4062 0.749652,-3.17336 1.20765,-6.51037 1.125,-9.8125 0.135015,-0.17984 0.287456,-0.337807 0.40625,-0.53125 1.40402,-2.81456 1.57807,-6.13779 0.96875,-9.1875 -0.497693,-1.97823 -1.3428,-3.88726 -2.5625,-5.53125 -0.263174,-0.35472 -0.548419,-0.703223 -0.84375,-1.03125 -1.47818,-1.64363 -3.60033,-2.5986 -5.78125,-2.84375 -0.620295,-0.09752 -1.24982,-0.08617 -1.875,-0.125 -0.102952,0.0053 -0.209154,0.02382 -0.3125,0.03125 -5.27864,-4.08323 -12.0087,-6.32765 -18.7188,-6.25 z "/>
<g id="Logo" transform="matrix(0.12344073,0,0,0.12344073,16.090909,16.009372)">
<g id="GooBall">
<path style="fill:url(#RadialGray)" id="Ball" d="m 255.0312,37.8438 c -78.6553,2.08151 -157.931,40.9885 -202.595,106.654 -30.4768,45.9175 -35.5767,103.972 -29.1065,157.405 14.1138,84.8854 85.3917,154.245 168.827,171.728 60.2763,13.3269 124.989,6.99678 181.788,-16.9767 53.4704,-24.3764 93.5942,-75.067 104.633,-132.86 13.3181,-56.3772 15.4132,-119.511 -15.6031,-170.769 -41.3862,-73.2552 -124.786,-116.143 -207.945,-115.181 z "/>
<path style="opacity:.15;clip-path:url(#ClipBallRelief)" id="BallRelief" d="m 255.0312,37.8438 c -78.6553,2.08151 -157.931,40.9885 -202.595,106.654 -30.4768,45.9175 -35.5767,103.972 -29.1065,157.405 14.1138,84.8854 85.3917,154.245 168.827,171.728 60.2763,13.3269 124.989,6.99678 181.788,-16.9767 53.4704,-24.3764 93.5942,-75.067 104.633,-132.86 13.3181,-56.3772 15.4132,-119.511 -15.6031,-170.769 -41.3862,-73.2552 -124.786,-116.143 -207.945,-115.181 z "/>
<path style="opacity:.05;fill-rule:evenodd;stroke:none;clip-path:url(#ClipBallReflect)" id="BallReflect" d="m 73,413 c 98.7124,-23.7031 195.405,-65.9299 271.054,-134.852 50.7388,-46.0177 86.519,-108.826 95.9729,-176.987 13.2536,-65.4004 24.1764,-131.451 41.9348,-195.823 3.91488,-7.95649 5.26138,12.1466 7.96671,16.2638 23.024,76.1325 46.0479,152.265 69.0719,228.398 -10.3333,118.333 -20.6667,236.667 -31,355 -156.333,3.66667 -312.667,7.33333 -469,11 -0.333333,-33.3333 -0.666667,-66.6667 -1,-100 5,-1 10,-2 15,-3 z "/>
<path style="opacity:.02;fill:#fff;fill-rule:evenodd;stroke:none" id="Lights" d="m 271.9375,131 c -3.39013,0.18518 -6.66452,3.36938 -6.3125,7 0.36347,3.74885 1.63454,7 7,7 5.364,0 6.62393,-2.62358 7,-7 0.375,-4.364 -3.26101,-6.75 -7,-7 -0.22591,-0.0151 -0.46149,-0.0123 -0.6875,0 z m -22.375,25.5 c -1.73496,-0.11664 -3.01907,1.51858 -3.0625,3.0625 -0.0399,1.41901 1.09992,2.84699 3.0625,3.09375 1.83946,0.23128 3.13388,-1.2658 3.09375,-3.09375 -0.0402,-1.82948 -1.23437,-2.9375 -3.09375,-3.0625 z"/>
</g>
<g id="RightEye">
<path style="fill:url(#RightWhite);fill-rule:evenodd;stroke:none" id="RightEyeball" d="m 409.1936,88.1875 c -15.3603,0.795193 -31.3988,4.32076 -42.7752,15.4138 -15.9485,15.1504 -22.1437,37.36 -26.7101,58.1857 -6.64716,30.3513 3.69727,63.3356 25.982,84.8724 18.7493,19.2797 46.5653,31.0543 73.5503,25.7957 20.3622,-3.88436 40.6488,-14.5019 51.7356,-32.5556 11.3741,-22.8009 12.7962,-49.7056 7.86013,-74.4114 -4.03184,-16.0257 -11.0925,-31.4942 -20.9734,-44.8122 -2.13199,-2.87361 -4.39528,-5.6471 -6.78777,-8.30447 -11.9748,-13.3151 -29.0308,-21.1599 -46.6986,-23.1459 -5.02504,-0.790012 -10.1186,-0.723485 -15.1832,-1.0381 z "/>
<path style="fill:#070402;fill-rule:evenodd;stroke:none" id="RightPupil" d="m 448.1633,153.8074 c -5.73901,0.0561 -11.541,2.01618 -15.6788,6.09634 -9.09735,8.83551 -11.0482,24.189 -4.33552,34.9717 4.95216,7.89872 15.11,11.9538 24.1677,9.9503 6.38423,-1.35193 12.7527,-4.53428 16.2727,-10.2529 6.192,-9.88887 4.6141,-23.4947 -2.5154,-32.4799 -4.23353,-5.42451 -11.0108,-8.66901 -17.9107,-8.28548 z "/>
<path style="opacity:.08;fill-rule:evenodd;stroke:none;clip-path:url(#ClipRightRelief)" id="RightRelief" d="m 409.1936,88.1875 c -15.3603,0.795193 -31.3988,4.32076 -42.7752,15.4138 -15.9485,15.1504 -22.1437,37.36 -26.7101,58.1857 -6.64716,30.3513 3.69727,63.3356 25.982,84.8724 18.7493,19.2797 46.5653,31.0543 73.5503,25.7957 20.3622,-3.88436 40.6488,-14.5019 51.7356,-32.5556 11.3741,-22.8009 12.7962,-49.7056 7.86013,-74.4114 -4.03184,-16.0257 -11.0925,-31.4942 -20.9734,-44.8122 -2.13199,-2.87361 -4.39528,-5.6471 -6.78777,-8.30447 -11.9748,-13.3151 -29.0308,-21.1599 -46.6986,-23.1459 -5.02504,-0.790012 -10.1186,-0.723485 -15.1832,-1.0381 z "/>
<path style="fill:#070402;fill-rule:evenodd;stroke:none" id="path3747" d="m 448.1633,153.8074 c -5.73901,0.0561 -11.541,2.01618 -15.6788,6.09634 -9.09735,8.83551 -11.0482,24.189 -4.33552,34.9717 4.95216,7.89872 15.11,11.9538 24.1677,9.9503 6.38423,-1.35193 12.7527,-4.53428 16.2727,-10.2529 6.192,-9.88887 4.6141,-23.4947 -2.5154,-32.4799 -4.23353,-5.42451 -11.0108,-8.66901 -17.9107,-8.28548 z "/>
</g>
<g id="LeftEye">
<path style="fill:url(#LeftWhite);fill-rule:evenodd;stroke:none" id="LeftEyeball" d="m 124.5923,72.375 c -35.5946,0.591907 -66.9551,24.4243 -85.7673,53.3658 -13.2697,21.0076 -22.1566,45.3656 -23.3593,70.2794 0.249391,21.214 4.9479,42.6752 14.1293,61.7759 14.0282,21.5659 35.5541,39.8439 61.1115,45.4657 21.1226,3.82527 43.6983,0.56293 62.087,-10.8808 45.505,-25.1865 69.5578,-79.0969 66.5355,-129.897 -1.52115,-23.7884 -7.69362,-49.992 -27.6007,-65.2388 -17.075,-13.4836 -38.2717,-21.8054 -59.7785,-24.5087 -2.44965,-0.173644 -4.90407,-0.2622 -7.35749,-0.361333 z "/>
<path style="opacity:.08;fill-rule:evenodd;stroke:none;clip-path:url(#ClipLeftRelief)" id="LeftRelief" d="m 124.5923,72.375 c -35.5946,0.591907 -66.9551,24.4243 -85.7673,53.3658 -13.2697,21.0076 -22.1566,45.3656 -23.3593,70.2794 0.249391,21.214 4.9479,42.6752 14.1293,61.7759 14.0282,21.5659 35.5541,39.8439 61.1115,45.4657 21.1226,3.82527 43.6983,0.56293 62.087,-10.8808 45.505,-25.1865 69.5578,-79.0969 66.5355,-129.897 -1.52115,-23.7884 -7.69362,-49.992 -27.6007,-65.2388 -17.075,-13.4836 -38.2717,-21.8054 -59.7785,-24.5087 -2.44965,-0.173644 -4.90407,-0.2622 -7.35749,-0.361333 z "/>
<path style="fill:#070402;fill-rule:evenodd;stroke:none" id="LeftPupil" d="m 90.5071,153.1824 c -5.74599,-0.1256 -11.2275,2.31775 -15.9601,5.37289 -9.10594,6.39737 -12.4326,18.7114 -10.0202,29.256 1.85452,9.0925 8.49588,17.4383 17.6568,19.8845 8.67816,2.58768 18.66,0.33409 25.1984,-5.98216 6.74951,-5.22726 9.88982,-14.2146 8.65206,-22.5629 -1.45605,-10.9858 -8.87972,-21.6479 -19.7059,-25.0478 -1.88629,-0.57036 -3.85048,-0.88518 -5.82116,-0.92052 z "/>
</g>
</g>
</g>
</svg>
