<svg width="128" version="1.0" xmlns="http://www.w3.org/2000/svg" height="128" xmlns:xlink="http://www.w3.org/1999/xlink">
<defs id="defs3451">
<linearGradient gradientTransform="matrix(0.13519836,0,0,0.10281891,82.165644,89.520749)" xlink:href="#linearGradient3427" id="linearGradient3321" y1="-366.55753" x1="97.807747" y2="-460.48889" gradientUnits="userSpaceOnUse" x2="98.301147"/>
<linearGradient gradientTransform="translate(-13.882774,0.86440879)" xlink:href="#linearGradient4999" id="linearGradient3346" y1="39.645123" x1="122.9873" y2="30.74682" gradientUnits="userSpaceOnUse" x2="122.8284"/>
<linearGradient gradientTransform="matrix(0.42527221,0,0,0.65230167,54.733081,320.02352)" xlink:href="#linearGradient4200" id="linearGradient3388" y1="-365.65866" x1="70.39238" y2="-460.03946" gradientUnits="userSpaceOnUse" x2="71.335213"/>
<linearGradient gradientTransform="matrix(0.42527221,0,0,0.65230167,54.733081,320.02352)" xlink:href="#linearGradient4192" id="linearGradient3386" y1="-366.55753" x1="97.807747" y2="-460.48889" gradientUnits="userSpaceOnUse" x2="98.301147"/>
<linearGradient gradientTransform="translate(14.381833,0.8644126)" xlink:href="#linearGradient4991" id="linearGradient3344" y1="39.962917" x1="109.32204" y2="31.382408" gradientUnits="userSpaceOnUse" x2="109.00424"/>
<linearGradient gradientTransform="translate(0,0.70551139)" xlink:href="#linearGradient4983" id="linearGradient3342" y1="39.645123" x1="93.908897" y2="31.541309" gradientUnits="userSpaceOnUse" x2="93.75"/>
<linearGradient xlink:href="#linearGradient4067" id="linearGradient3275" y1="91.79834" x1="41.88818" y2="124.8978" gradientUnits="userSpaceOnUse" x2="41.749607"/>
<linearGradient xlink:href="#linearGradient5062" id="linearGradient3280" y1="116.6331" x1="54.817078" y2="103.93664" gradientUnits="userSpaceOnUse" x2="54.741489"/>
<linearGradient xlink:href="#linearGradient4849" id="linearGradient3278" y1="123.03089" x1="50.53944" y2="100.24631" gradientUnits="userSpaceOnUse" x2="50.677559"/>
<linearGradient gradientTransform="matrix(0.13519836,0,0,0.10281891,110.92931,89.520749)" xlink:href="#linearGradient3427" id="linearGradient3299" y1="-366.55753" x1="97.807747" y2="-460.48889" gradientUnits="userSpaceOnUse" x2="98.301147"/>
<linearGradient gradientTransform="matrix(0.13519836,0,0,0.10281891,96.547477,89.520749)" xlink:href="#linearGradient3427" id="linearGradient3301" y1="-366.55753" x1="97.807747" y2="-460.48889" gradientUnits="userSpaceOnUse" x2="98.301147"/>
<linearGradient gradientTransform="matrix(0.13519836,0,0,0.10281891,82.165644,89.520749)" xlink:href="#linearGradient3427" id="linearGradient3315" y1="-366.55753" x1="97.807747" y2="-460.48889" gradientUnits="userSpaceOnUse" x2="98.301147"/>
<linearGradient gradientTransform="matrix(0.13519836,0,0,0.10281891,96.547477,89.520749)" xlink:href="#linearGradient3427" id="linearGradient3319" y1="-366.55753" x1="97.807747" y2="-460.48889" gradientUnits="userSpaceOnUse" x2="98.301147"/>
<linearGradient gradientTransform="matrix(0.13519836,0,0,0.10281891,110.92931,89.520749)" xlink:href="#linearGradient3427" id="linearGradient3317" y1="-366.55753" x1="97.807747" y2="-460.48889" gradientUnits="userSpaceOnUse" x2="98.301147"/>
<linearGradient gradientTransform="matrix(0.13519836,0,0,0.10281891,96.547477,89.520749)" xlink:href="#linearGradient3427" id="linearGradient3313" y1="-366.55753" x1="97.807747" y2="-460.48889" gradientUnits="userSpaceOnUse" x2="98.301147"/>
<linearGradient gradientTransform="matrix(0.13519836,0,0,0.10281891,82.165644,89.520749)" xlink:href="#linearGradient3427" id="linearGradient3303" y1="-366.55753" x1="97.807747" y2="-460.48889" gradientUnits="userSpaceOnUse" x2="98.301147"/>
<linearGradient gradientTransform="matrix(0.13519836,0,0,0.10281891,110.92931,89.520749)" xlink:href="#linearGradient3427" id="linearGradient3311" y1="-366.55753" x1="97.807747" y2="-460.48889" gradientUnits="userSpaceOnUse" x2="98.301147"/>
<linearGradient gradientTransform="matrix(0.13519836,0,0,0.10281891,110.92931,89.520749)" xlink:href="#linearGradient3427" id="linearGradient3305" y1="-366.55753" x1="97.807747" y2="-460.48889" gradientUnits="userSpaceOnUse" x2="98.301147"/>
<linearGradient gradientTransform="matrix(0.13519836,0,0,0.10281891,82.165644,89.520749)" xlink:href="#linearGradient3427" id="linearGradient3309" y1="-366.55753" x1="97.807747" y2="-460.48889" gradientUnits="userSpaceOnUse" x2="98.301147"/>
<linearGradient gradientTransform="matrix(0.13519836,0,0,0.10281891,96.547477,89.520749)" xlink:href="#linearGradient3427" id="linearGradient3307" y1="-366.55753" x1="97.807747" y2="-460.48889" gradientUnits="userSpaceOnUse" x2="98.301147"/>
<linearGradient xlink:href="#linearGradient4057" id="linearGradient3273" y1="103.10918" x1="67.079544" y2="56.244789" gradientUnits="userSpaceOnUse" x2="67.530212"/>
<linearGradient xlink:href="#linearGradient5726" id="linearGradient3271" y1="71.047157" x1="73.358902" y2="85.714851" gradientUnits="userSpaceOnUse" x2="73.380737"/>
<linearGradient id="linearGradient4067">
<stop offset="0" style="stop-color:#5e5e5e" id="stop4069"/>
<stop offset="1" id="stop4071"/>
</linearGradient>
<linearGradient id="linearGradient5062">
<stop offset="0" id="stop5064"/>
<stop offset="1" style="stop-color:#4f4f4f" id="stop5066"/>
</linearGradient>
<linearGradient id="linearGradient4849">
<stop offset="0" style="stop-color:#a9a9a9" id="stop4851"/>
<stop offset="1" style="stop-color:#f5f5f5" id="stop4853"/>
</linearGradient>
<linearGradient id="linearGradient5726">
<stop offset="0" style="stop-color:#f3f3f3" id="stop5728"/>
<stop offset="1" style="stop-color:#999" id="stop5730"/>
</linearGradient>
<linearGradient id="linearGradient4271">
<stop offset="0" id="stop4273"/>
<stop offset="1" style="stop-color:#5d5d5d" id="stop4275"/>
</linearGradient>
<linearGradient id="linearGradient4057">
<stop offset="0" id="stop4059"/>
<stop offset="1" style="stop-color:#565656" id="stop4061"/>
</linearGradient>
<linearGradient id="linearGradient4083">
<stop offset="0" style="stop-color:#cdd6da" id="stop4085"/>
<stop offset="1" style="stop-color:#fcfeff" id="stop4087"/>
</linearGradient>
<linearGradient id="linearGradient3253">
<stop offset="0" id="stop3255"/>
<stop offset="1" style="stop-color:#515151" id="stop3257"/>
</linearGradient>
<linearGradient id="linearGradient4231">
<stop offset="0" id="stop4233"/>
<stop offset="0.36711401" style="stop-color:#a7a7a7" id="stop4235"/>
<stop offset="0.4347488" style="stop-color:#d3d3d3" id="stop4237"/>
<stop offset="0.61940116" style="stop-color:#c8c8c8" id="stop4239"/>
<stop offset="1" style="stop-color:#606060" id="stop4241"/>
</linearGradient>
<linearGradient id="linearGradient4192">
<stop offset="0" style="stop-color:#191a1a" id="stop4194"/>
<stop offset="1" style="stop-color:#5b5e5e" id="stop4196"/>
</linearGradient>
<linearGradient gradientTransform="matrix(0.82440315,0,0,0.84009814,1.0543095,1.382238)" xlink:href="#linearGradient4271" id="linearGradient3185" y1="159.2487" x1="113.48294" y2="-2.9060044" gradientUnits="userSpaceOnUse" x2="113.92846"/>
<linearGradient id="linearGradient4200">
<stop offset="0" id="stop4202"/>
<stop offset="1" style="stop-color:#3e4040" id="stop4204"/>
</linearGradient>
<linearGradient gradientTransform="matrix(0.49703982,0,0,0.49607148,-14.496583,529.90927)" xlink:href="#linearGradient4057" id="linearGradient3269" y1="-910.54108" x1="115.11494" y2="-1028.1257" gradientUnits="userSpaceOnUse" x2="115.93856"/>
<linearGradient gradientTransform="matrix(0.49703982,0,0,0.49607148,-13.864753,375.41243)" xlink:href="#linearGradient3253" id="linearGradient3267" y1="-601.51324" x1="131.88031" y2="-711.62415" gradientUnits="userSpaceOnUse" x2="131.00407"/>
<linearGradient gradientTransform="matrix(0.79293336,0,0,1.5696462,4.0589204,-14.444764)" xlink:href="#linearGradient4083" id="linearGradient3263" y1="81.156723" x1="130.69667" y2="15.539609" gradientUnits="userSpaceOnUse" x2="129.77031"/>
<linearGradient id="linearGradient4983">
<stop offset="0" style="stop-color:#157512" id="stop4985"/>
<stop offset="1" style="stop-color:#00fd17" id="stop4987"/>
</linearGradient>
<linearGradient id="linearGradient3427">
<stop offset="0" style="stop-color:#a8a8a8" id="stop3429"/>
<stop offset="1" style="stop-color:#fff" id="stop3431"/>
</linearGradient>
<linearGradient id="linearGradient4991">
<stop offset="0" style="stop-color:#8d0000" id="stop4993"/>
<stop offset="1" style="stop-color:#ff4200" id="stop4995"/>
</linearGradient>
<linearGradient id="linearGradient4999">
<stop offset="0" style="stop-color:#ff7a07" id="stop5001"/>
<stop offset="1" style="stop-color:#ffc400" id="stop5003"/>
</linearGradient>
<radialGradient fx="74.354507" fy="84.603951" cx="74.354507" cy="84.603951" gradientTransform="matrix(1.1998309,0.00255463,-0.00277049,0.99286707,-14.192346,0.60291463)" xlink:href="#linearGradient4231" id="radialGradient3265" r="32.359123" gradientUnits="userSpaceOnUse"/>
</defs>
<rect width="116.32468" x="5.9872136" y="6.5922837" rx="10.21876" height="115.3355" ry="10.677539" style="fill:url(#linearGradient3185);stroke:#939797;stroke-width:1.664" id="rect4269"/>
<rect width="98.17588" x="15.116701" y="15.036559" rx="7.1539259" height="97.049065" ry="6.442471" style="fill:url(#linearGradient3263);stroke:#9a9e9e;stroke-width:2.231" id="rect4281"/>
<g id="g3885" transform="matrix(0.82440315,0,0,0.84009814,0.26833186,3.7849323)">
<path style="fill:url(#radialGradient3265);fill-rule:evenodd;stroke:none" id="path4287" d="m 106.066,84.1582 c 0,15.1411 -14.4877,27.4154 -32.3591,27.4154 -17.8714,0 -32.3591,-12.2743 -32.3591,-27.4154 0,-15.1411 14.4877,-27.4154 32.3591,-27.4154 17.8714,0 32.3591,12.2743 32.3591,27.4154 z " transform="matrix(0.70136444,0,0,0.83436167,-1.4900588,-21.862506)"/>
<path style="fill:url(#linearGradient3267);stroke:url(#linearGradient3269)" id="path4289" d="m 50.9884,21.7771 c -15.0677,0 -27.2906,12.2703 -27.2906,27.4235 0,15.1531 12.2229,27.439 27.2906,27.439 15.0677,0 27.2751,-12.2858 27.2751,-27.439 0,-15.1531 -12.2074,-27.4235 -27.2751,-27.4235 z  m -2.7027,6.1854 0,18.2617 -18.7477,.0155 c 1.39536,-9.57328 9.08724,-17.1005 18.7477,-18.2772 z  m 5.3742,0 c 9.60239,1.21091 17.246,8.70905 18.6545,18.2307 l -18.6545,.0155 v -18.2461 z  m 18.7788,23.5944 c -1.00899,9.98727 -8.84662,17.9703 -18.7788,19.2228 v -19.2073 l 18.7788,-.0155 z  m -24.153,.031 0,19.1918 c -9.96016,-1.21312 -17.8405,-9.17998 -18.872,-19.1763 l 18.872,-.0155 z "/>
<path style="fill:url(#linearGradient3271);fill-rule:evenodd;stroke:url(#linearGradient3273);stroke-width:1.824" id="path4291" d="m 82.0214,78.6526 c 0,3.78527 -3.87344,6.85384 -8.65157,6.85384 -4.77813,0 -8.65157,-3.06857 -8.65157,-6.85384 0,-3.78527 3.87344,-6.85384 8.65157,-6.85384 4.77813,0 8.65157,3.06857 8.65157,6.85384 z " transform="matrix(0.97666386,0,0,1.2312085,-20.714322,-48.124679)"/>
</g>
<g id="g4285" transform="matrix(0.82440315,0,0,0.84009814,0.55844476,-0.61631375)">
<g id="g5025" transform="translate(-0.18616095,2.93728)">
<path style="fill:url(#linearGradient3275);stroke:none" id="path4064" d="m 53.3898,109.0042 c 0,6.84505 -5.33559,12.3941 -11.9174,12.3941 -6.58178,0 -11.9174,-5.54901 -11.9174,-12.3941 0,-6.84506 5.33559,-12.3941 11.9174,-12.3941 6.58178,0 11.9174,5.54901 11.9174,12.3941 z " transform="matrix(1.4684445,0,0,1.4119658,-10.031358,-46.516188)"/>
<path style="fill:url(#linearGradient3278);stroke:none" id="path4847" d="m 57.9979,111.1494 c 0,5.13379 -4.01948,9.29555 -8.97776,9.29555 -4.95828,0 -8.97775,-4.16176 -8.97775,-9.29555 0,-5.13379 4.01948,-9.29555 8.97775,-9.29555 4.95828,0 8.97776,4.16176 8.97776,9.29555 z " transform="matrix(1.3923303,0,0,1.3447293,-17.457717,-41.997586)"/>
</g>
<path style="fill:url(#linearGradient3280);stroke:none" id="path5055" d="m 55.6347,105.841 c -1.88825,0 -3.51976,1.16373 -4.1875,2.8125 h -10.5625 v 3.59375 h 10.6875 c 0.7209,1.52381 2.26484,2.59375 4.0625,2.59375 2.48528,0 4.5,-2.01472 4.5,-4.5 0,-2.48528 -2.01472,-4.5 -4.5,-4.5 z "/>
</g>
<rect width="36.954819" x="71.361481" y="22.677769" rx="3.9614301" height="55.500874" ry="3.538589" style="fill:url(#linearGradient3386);stroke:url(#linearGradient3388);stroke-width:1.124" id="rect4283"/>
<g id="g3543" transform="matrix(0.82440315,0,0,0.84009814,1.0543095,-1.2072453)">
<rect width="11.599576" x="87.552963" y="33.43856" rx="1.3094435" ry="1.1930449" height="5.5614409" style="fill:url(#linearGradient3342);stroke:none" id="rect4945"/>
<rect width="11.599576" x="116.39455" y="33.43856" rx="1.3094435" height="5.5614409" ry="1.1930449" style="fill:url(#linearGradient3344);stroke:none" id="rect4947"/>
<rect width="11.599576" x="102.113" y="33.43856" rx="1.3094435" ry="1.1930449" height="5.5614409" style="fill:url(#linearGradient3346);stroke:none" id="rect4949"/>
</g>
<g id="g3281" transform="translate(0,-0.99999988)">
<g id="g4385" transform="matrix(0.82440315,0,0,0.84009814,1.0543095,11.818955)">
<rect width="11.748313" x="116.21564" y="42.651688" rx="1.2593789" ry="1.7435514" height="8.748313" style="fill:url(#linearGradient3299);stroke:none" id="rect3602"/>
<rect width="11.748313" x="101.8338" y="42.651688" rx="1.2593789" height="8.748313" ry="1.7435514" style="fill:url(#linearGradient3301);stroke:none" id="rect4377"/>
<rect width="11.748313" x="87.451965" y="42.651688" rx="1.2593789" ry="1.7435514" height="8.748313" style="fill:url(#linearGradient3303);stroke:none" id="rect4381"/>
</g>
<g id="g4390" transform="matrix(0.82440315,0,0,0.84009814,0.97189778,21.818955)">
<rect width="11.748313" x="116.21564" y="42.651688" rx="1.2593789" height="8.748313" ry="1.7435514" style="fill:url(#linearGradient3305);stroke:none" id="rect4392"/>
<rect width="11.748313" x="101.8338" y="42.651688" rx="1.2593789" ry="1.7435514" height="8.748313" style="fill:url(#linearGradient3307);stroke:none" id="rect4394"/>
<rect width="11.748313" x="87.451965" y="42.651688" rx="1.2593789" height="8.748313" ry="1.7435514" style="fill:url(#linearGradient3309);stroke:none" id="rect4396"/>
</g>
<g id="g4404" transform="matrix(0.82440315,0,0,0.84009814,1.2395662,31.818955)">
<rect width="11.748313" x="116.21564" y="42.651688" rx="1.2593789" ry="1.7435514" height="8.748313" style="fill:url(#linearGradient3311);stroke:none" id="rect4406"/>
<rect width="11.748313" x="101.8338" y="42.651688" rx="1.2593789" height="8.748313" ry="1.7435514" style="fill:url(#linearGradient3313);stroke:none" id="rect4408"/>
<rect width="11.748313" x="87.451965" y="42.651688" rx="1.2593789" ry="1.7435514" height="8.748313" style="fill:url(#linearGradient3315);stroke:none" id="rect4410"/>
</g>
<g id="g3390" transform="matrix(0.82440315,0,0,0.84009814,1.0543243,1.8189551)">
<rect width="11.748313" x="116.21564" y="42.651688" rx="1.2593789" height="8.748313" ry="1.7435514" style="fill:url(#linearGradient3317);stroke:none" id="rect3392"/>
<rect width="11.748313" x="101.8338" y="42.651688" rx="1.2593789" ry="1.7435514" height="8.748313" style="fill:url(#linearGradient3319);stroke:none" id="rect3394"/>
<rect width="11.748313" x="87.451965" y="42.651688" rx="1.2593789" height="8.748313" ry="1.7435514" style="fill:url(#linearGradient3321);stroke:none" id="rect3396"/>
</g>
</g>
</svg>
