<svg xmlns="http://www.w3.org/2000/svg" viewBox="0 0 96 96" xmlns:xlink="http://www.w3.org/1999/xlink">
<defs>
<clipPath id="clipPath3613">
<path fill="#fff" d="m12,6h72a6,6 0 0,1 6,6v72a6,6 0 0,1 -6,6h-72a6,6 0 0,1 -6-6v-72a6,6 0 0,1 6-6"/>
</clipPath>
<filter width="1.384" x="-.192" y="-.192" height="1.384" color-interpolation-filters="sRGB" id="filter3794">
<feGaussianBlur stdDeviation="5.28"/>
</filter>
<linearGradient id="linearGradient3641" xlink:href="#linearGradient3737" y1="78" x1="67.071" y2="14" x2="48" gradientUnits="userSpaceOnUse"/>
<linearGradient gradientTransform="translate(-2 -94)" id="linearGradient3628" xlink:href="#linearGradient3622" x1="16" x2="80" gradientUnits="userSpaceOnUse"/>
<linearGradient gradientTransform="matrix(1.02381 0 0 1.0119 -1.14286 -98.07143)" id="linearGradient3780" xlink:href="#ButtonShadow-0" y1="6.132" y2="90.239" x2="0" gradientUnits="userSpaceOnUse"/>
<linearGradient id="linearGradient3656" xlink:href="#linearGradient3650" y1="48" x1="6" y2="81.071" x2="48" gradientUnits="userSpaceOnUse"/>
<linearGradient gradientTransform="matrix(-1 0 0 1 96 0)" id="linearGradient3666" xlink:href="#linearGradient3650" y1="48" x1="6" y2="81.071" x2="48" gradientUnits="userSpaceOnUse"/>
<linearGradient gradientTransform="matrix(1.00587 0 0 .99417 100 0)" id="ButtonShadow-0" y1="92.54" y2="7.017" x2="0" gradientUnits="userSpaceOnUse">
<stop offset="0"/>
<stop offset="1" stop-opacity=".588"/>
</linearGradient>
<linearGradient gradientTransform="matrix(1 0 0 -1 0 96)" id="linearGradient3670" xlink:href="#linearGradient3672" y1="48" x1="13.321" y2="84.286" x2="48" gradientUnits="userSpaceOnUse"/>
<linearGradient gradientTransform="matrix(-1 0 0 -1 96 96)" id="linearGradient3686" xlink:href="#linearGradient3672" y1="48" x1="13.321" y2="84.286" x2="48" gradientUnits="userSpaceOnUse"/>
<linearGradient id="linearGradient3617" xlink:href="#linearGradient3614" y1="90" x1="63.536" y2="6" x2="32.071" gradientUnits="userSpaceOnUse"/>
<linearGradient id="linearGradient3672">
<stop offset="0" stop-color="#fff" stop-opacity="0"/>
<stop offset=".3" stop-color="#fff" stop-opacity="0"/>
<stop offset=".5" stop-color="#fff" stop-opacity=".484"/>
<stop offset=".753" stop-color="#fff" stop-opacity="0"/>
<stop offset="1" stop-color="#fff" stop-opacity="0"/>
</linearGradient>
<linearGradient id="linearGradient3650">
<stop offset="0" stop-opacity="0"/>
<stop offset=".3" stop-opacity="0"/>
<stop offset=".5" stop-opacity=".118"/>
<stop offset=".7" stop-opacity="0"/>
<stop offset="1" stop-opacity="0"/>
</linearGradient>
<linearGradient id="linearGradient3622">
<stop offset="0" stop-color="#d6d6d6"/>
<stop offset="1" stop-color="#eaeaea"/>
</linearGradient>
<linearGradient id="linearGradient3614">
<stop offset="0" stop-color="#b3b3b3"/>
<stop offset="1" stop-color="#d2d2d2"/>
</linearGradient>
<linearGradient gradientTransform="translate(0 -97)" id="linearGradient3721" xlink:href="#ButtonShadow-0" y1="6.132" y2="90.239" x2="0" gradientUnits="userSpaceOnUse"/>
<linearGradient id="linearGradient3613" xlink:href="#linearGradient3737" y1="20.221" y2="138.661" x2="0" gradientUnits="userSpaceOnUse"/>
<linearGradient id="linearGradient3188" xlink:href="#linearGradient3737" y1="6" y2="63.893" x2="0" gradientUnits="userSpaceOnUse"/>
<linearGradient id="linearGradient3737">
<stop offset="0" stop-color="#fff"/>
<stop offset="1" stop-color="#fff" stop-opacity="0"/>
</linearGradient>
<radialGradient cx="48" cy="90.172" gradientTransform="matrix(1.15731 0 0 .99591 -7.55102 .19713)" r="42" id="radialGradient3619" xlink:href="#linearGradient3737" gradientUnits="userSpaceOnUse"/>
</defs>
<path opacity=".08" fill="url(#linearGradient3780)" d="m12-95.0312c-5.5111,0-10.0312,4.5202-10.0312,10.0312v71c0,5.5111 4.5202,10.0312 10.0312,10.0312h72c5.5111,0 10.0312-4.5202 10.0312-10.0312v-71c0-5.5111-4.5202-10.0312-10.0312-10.0312h-72z" transform="scale(1 -1)"/>
<path opacity=".1" fill="url(#linearGradient3780)" d="m12-94.0312c-4.9716,0-9.0312,4.0596-9.0312,9.0312v71c0,4.9716 4.0596,9.0312 9.0312,9.0312h72c4.9716,0 9.0312-4.0596 9.0312-9.0312v-71c0-4.9716-4.0596-9.0312-9.0312-9.0312h-72z" transform="scale(1 -1)"/>
<path opacity=".2" fill="url(#linearGradient3780)" d="m12-93c-4.4091,0-8,3.5909-8,8v71c0,4.4091 3.5909,8 8,8h72c4.4091,0 8-3.5909 8-8v-71c0-4.4091-3.5909-8-8-8h-72z" transform="scale(1 -1)"/>
<path opacity=".3" fill="url(#linearGradient3780)" d="m12-92h72a7,7 0 0,1 7,7v71a7,7 0 0,1 -7,7h-72a7,7 0 0,1 -7-7v-71a7,7 0 0,1 7-7" transform="scale(1 -1)"/>
<path opacity=".45" fill="url(#linearGradient3721)" d="m12-91h72a6,6 0 0,1 6,6v72a6,6 0 0,1 -6,6h-72a6,6 0 0,1 -6-6v-72a6,6 0 0,1 6-6" transform="scale(1 -1)"/>
<path fill="url(#linearGradient3617)" d="m12,6h72a6,6 0 0,1 6,6v72a6,6 0 0,1 -6,6h-72a6,6 0 0,1 -6-6v-72a6,6 0 0,1 6-6"/>
<path fill="url(#linearGradient3686)" d="m90,48 0-36c0-3.324-2.676-6-6-6h-36v42h42z"/>
<path fill="url(#linearGradient3670)" d="m6,48 0-36c0-3.324 2.676-6 6-6h36v42h-42z"/>
<path fill="url(#linearGradient3656)" d="m6,48 0,36c0,3.324 2.676,6 6,6h36v-42h-42z"/>
<path opacity=".5" fill="url(#linearGradient3188)" d="m12,6c-3.324,0-6,2.676-6,6v2 68 2c0,.3347 .0413,.6507 .0938,.9688 .0487,.2956 .097,.5969 .1875,.875 .0099,.0304 .0209,.0636 .0312,.0938 .0989,.2878 .2349,.5475 .375,.8125 .1446,.2735 .3156,.5356 .5,.7812 .1844,.2456 .3738,.4735 .5938,.6875 .4399,.4281 .9429,.8145 1.5,1.0938 .2785,.1396 .5735,.2469 .875,.3438-.2562-.1002-.4867-.2363-.7188-.375-.0074-.0044-.0239,.0045-.0312,0-.0319-.0193-.0623-.0425-.0938-.0625-.1204-.0767-.231-.1635-.3438-.25-.1062-.0808-.2133-.1611-.3125-.25-.1779-.1614-.3475-.3454-.5-.5312-.1076-.1303-.2184-.2653-.3125-.4062-.0251-.0384-.0384-.0859-.0625-.125-.0648-.103-.1302-.2045-.1875-.3125-.101-.1947-.2057-.4157-.2812-.625-.008-.0218-.0236-.0405-.0312-.0625-.0318-.0919-.0358-.1868-.0625-.2812-.0303-.1066-.0704-.203-.0938-.3125-.0729-.3415-.125-.6982-.125-1.0625v-2-68-2c0-2.7818 2.2182-5 5-5h2 68 2c2.7818,0 5,2.2182 5,5v2 68 2c0,.3643-.0521,.721-.125,1.0625-.0442,.2069-.0884,.3977-.1562,.5938-.0077,.022-.0233,.0407-.0312,.0625-.0627,.1737-.1384,.3674-.2188,.5312-.0416,.0828-.079,.17-.125,.25-.0546,.0972-.1268,.1883-.1875,.2812-.0941,.141-.2049,.276-.3125,.4062-.1432,.1744-.3031,.347-.4688,.5-.0112,.0102-.02,.0212-.0312,.0312-.1384,.1256-.2851,.2344-.4375,.3438-.1026,.0731-.2043,.1534-.3125,.2188-.0074,.0045-.0238-.0044-.0312,0-.232,.1387-.4625,.2748-.7188,.375 .3015-.0968 .5965-.2041 .875-.3438 .5571-.2792 1.0601-.6657 1.5-1.0938 .22-.214 .4094-.4419 .5938-.6875 .1844-.2456 .3554-.5077 .5-.7812 .1401-.265 .2761-.5247 .375-.8125 .0104-.0308 .0213-.0627 .0312-.0938 .0905-.2781 .1388-.5794 .1875-.875 .0524-.318 .0938-.634 .0938-.9688v-2-68-2c0-3.324-2.676-6-6-6h-72z"/>
<path fill="url(#linearGradient3666)" d="m90,48 0,36c0,3.324-2.676,6-6,6h-36v-42h42z"/>
<path opacity=".2" fill="url(#radialGradient3619)" d="m12,90c-3.324,0-6-2.676-6-6v-2-68-2c0-.3347 .0413-.6507 .0938-.9688 .0487-.2956 .097-.5969 .1875-.875 .0099-.0304 .0209-.0636 .0312-.0938 .0989-.2878 .2349-.5475 .375-.8125 .1446-.2735 .3156-.5356 .5-.7812 .1844-.2456 .3738-.4735 .5938-.6875 .4399-.4281 .9429-.8145 1.5-1.0938 .2785-.1396 .5735-.2469 .875-.3438-.2562,.1002-.4867,.2363-.7188,.375-.0074,.0044-.0239-.0045-.0312,0-.0319,.0193-.0623,.0425-.0938,.0625-.1204,.0767-.231,.1635-.3438,.25-.1062,.0808-.2133,.1611-.3125,.25-.1779,.1614-.3475,.3454-.5,.5312-.1076,.1303-.2184,.2653-.3125,.4062-.0251,.0384-.0384,.0859-.0625,.125-.0648,.103-.1302,.2045-.1875,.3125-.101,.1947-.2057,.4157-.2812,.625-.008,.0218-.0236,.0405-.0312,.0625-.0318,.092-.0358,.1868-.0625,.2812-.0303,.1066-.0704,.203-.0938,.3125-.0729,.3415-.125,.6982-.125,1.0625v2 68 2c0,2.7818 2.2182,5 5,5h2 68 2c2.7818,0 5-2.2182 5-5v-2-68-2c0-.3643-.0521-.721-.125-1.0625-.0442-.2069-.0884-.3977-.1562-.5938-.0077-.022-.0233-.0407-.0312-.0625-.0627-.1737-.1384-.3674-.2188-.5312-.0416-.0828-.079-.17-.125-.25-.0546-.0972-.1268-.1883-.1875-.2812-.0941-.141-.2049-.276-.3125-.4062-.1432-.1745-.3031-.347-.4688-.5-.0112-.0102-.02-.0211-.0312-.0312-.1384-.1256-.2851-.2344-.4375-.3438-.1026-.0732-.2043-.1534-.3125-.2188-.0074-.0045-.0238,.0044-.0312,0-.232-.1387-.4625-.2748-.7188-.375 .3015,.0968 .5965,.2041 .875,.3438 .5571,.2792 1.0601,.6657 1.5,1.0938 .22,.214 .4094,.4419 .5938,.6875 .1844,.2456 .3554,.5077 .5,.7812 .1401,.265 .2761,.5247 .375,.8125 .0104,.0308 .0213,.0627 .0312,.0938 .0905,.2781 .1388,.5794 .1875,.875 .0524,.318 .0938,.634 .0938,.9688v2 68 2c0,3.324-2.676,6-6,6h-72z"/>
<path fill="url(#linearGradient3628)" d="m19.8182-80h52.3636a5.8182,5.8182 0 0,1 5.8182,5.8182v52.3636a5.8182,5.8182 0 0,1 -5.8182,5.8182h-52.3636a5.8182,5.8182 0 0,1 -5.8182-5.8182v-52.3636a5.8182,5.8182 0 0,1 5.8182-5.8182" transform="rotate(90)"/>
<path fill="url(#linearGradient3641)" d="m21.8125,14c-3.2233,0-5.8125,2.5892-5.8125,5.8125v52.375c0,3.2233 2.5892,5.8125 5.8125,5.8125h52.375c3.2233,0 5.8125-2.5892 5.8125-5.8125v-52.375c0-3.2233-2.5892-5.8125-5.8125-5.8125h-52.375zm1.1875,2 50,0c2.77,0 5,2.23 5,5v50c0,2.77-2.23,5-5,5h-50c-2.77,0-5-2.23-5-5v-50c0-2.77 2.23-5 5-5z"/>
<g opacity=".9" line-height="125%">
<path d="m50.6707,53.0846c-3.7457,0-6.3407,.4283-7.7852,1.2849-1.4445,.8566-2.1668,2.3179-2.1668,4.3839-0,1.6461 .5375,2.9562 1.6125,3.9304 1.0918,.9574 2.5699,1.4361 4.4343,1.4361 2.5699,0 4.6275-.907 6.1728-2.7211 1.5621-1.8308 2.3431-4.2579 2.3431-7.2813v-1.033h-4.6107m9.2466-1.9148 0,16.0996-4.6359,0 0-4.2831c-1.0582,1.7133-2.3767,2.9814-3.9556,3.8044-1.5789,.8062-3.5105,1.2094-5.7948,1.2094-2.889-0-5.1902-.8062-6.9034-2.4187-1.6965-1.6293-2.5447-3.8044-2.5447-6.5255-0-3.1746 1.0582-5.5681 3.1746-7.1806 2.1332-1.6125 5.3077-2.4187 9.5237-2.4187h6.5003v-.4535c-0-2.1332-.7055-3.7792-2.1164-4.9382-1.3941-1.1757-3.3593-1.7636-5.8956-1.7636-1.6125,0-3.183,.1932-4.7115,.5795-1.5285,.3863-2.9982,.9658-4.4091,1.7385v-4.2831c1.6965-.655 3.3425-1.1421 4.9382-1.4613 1.5957-.3359 3.1494-.5039 4.6611-.5039 4.0816,0 7.1302,1.0582 9.1458,3.1746 2.0156,2.1164 3.0234,5.3246 3.0234,9.6245m-15.6209-25.1698 7.105,9.4229-3.8548,0-8.2136-9.4229 4.9634,0"/>
</g>
<path opacity=".1" fill="url(#linearGradient3613)" filter="url(#filter3794)" stroke="#fff" stroke-linecap="round" stroke-width=".5" d="m27,15h42a12,12 0 0,1 12,12v42a12,12 0 0,1 -12,12h-42a12,12 0 0,1 -12-12v-42a12,12 0 0,1 12-12" clip-path="url(#clipPath3613)"/>
</svg>
