<svg xmlns="http://www.w3.org/2000/svg" viewBox="0 0 96 96" xmlns:xlink="http://www.w3.org/1999/xlink">
<defs>
<filter width="1.501" x="-.25" y="-.032" height="1.063" color-interpolation-filters="sRGB" id="filter3503">
<feGaussianBlur stdDeviation="1.23652"/>
</filter>
<filter color-interpolation-filters="sRGB" id="filter4689">
<feGaussianBlur stdDeviation=".65275"/>
</filter>
<filter width="1.617" x="-.309" y="-.028" height="1.056" color-interpolation-filters="sRGB" id="filter3525">
<feGaussianBlur stdDeviation="1.08714"/>
</filter>
<filter width="1.467" x="-.234" y="-.036" height="1.071" color-interpolation-filters="sRGB" id="filter3499">
<feGaussianBlur stdDeviation="1.23652"/>
</filter>
<filter width="1.502" x="-.251" y="-.027" height="1.053" color-interpolation-filters="sRGB" id="filter3513">
<feGaussianBlur stdDeviation=".78925"/>
</filter>
<linearGradient id="linearGradient4593">
<stop offset="0"/>
<stop offset="1" stop-opacity="0"/>
</linearGradient>
<linearGradient gradientTransform="matrix(.71186 0 0 .71186 2.44068 2.44068)" spreadMethod="reflect" id="linearGradient3901" xlink:href="#linearGradient4459-2" x1="64" x2="148.754" gradientUnits="userSpaceOnUse"/>
<linearGradient gradientTransform="matrix(1.01724 0 0 1.01724 -1.10345 -1.10345)" id="ButtonColor" y1="122" y2="5.425" x2="0" gradientUnits="userSpaceOnUse">
<stop offset="0" stop-color="#ff0a0a"/>
<stop offset=".5" stop-color="#c70404"/>
<stop offset="1" stop-color="#7c0000"/>
</linearGradient>
<linearGradient gradientTransform="matrix(.68946 0 0 .68946 5.45822 5.19653)" id="linearGradient4599" xlink:href="#linearGradient4593" x1="63.19" x2="57.663" gradientUnits="userSpaceOnUse"/>
<linearGradient id="linearGradient4459-2">
<stop offset="0" stop-color="#fff"/>
<stop offset=".5" stop-color="#fff" stop-opacity=".341"/>
<stop offset="1" stop-color="#fff" stop-opacity="0"/>
</linearGradient>
<linearGradient id="linearGradient3737">
<stop offset="0" stop-color="#fff"/>
<stop offset="1" stop-color="#fff" stop-opacity="0"/>
</linearGradient>
<linearGradient id="linearGradient3188" xlink:href="#linearGradient3737" y1="6" y2="63.893" x2="0" gradientUnits="userSpaceOnUse"/>
<linearGradient gradientTransform="matrix(1.00587 0 0 .99417 100 0)" id="ButtonShadow-0" y1="92.54" y2="7.017" x2="0" gradientUnits="userSpaceOnUse">
<stop offset="0"/>
<stop offset="1" stop-opacity=".588"/>
</linearGradient>
<linearGradient gradientTransform="translate(0 -96)" id="linearGradient3617" xlink:href="#ButtonColor" y1="90" y2="5.988" x2="0" gradientUnits="userSpaceOnUse"/>
<linearGradient gradientTransform="matrix(1.02381 0 0 1.0119 -1.14286 -98.07143)" id="linearGradient3780" xlink:href="#ButtonShadow-0" y1="6.132" y2="90.239" x2="0" gradientUnits="userSpaceOnUse"/>
<linearGradient gradientTransform="translate(0 -97)" id="linearGradient3721" xlink:href="#ButtonShadow-0" y1="6.132" y2="90.239" x2="0" gradientUnits="userSpaceOnUse"/>
<radialGradient cx="46.29" cy="54.148" r="13.781" id="radialGradient3784" gradientUnits="userSpaceOnUse">
<stop offset="0" stop-color="#fff"/>
<stop offset=".5" stop-color="#fff" stop-opacity=".341"/>
<stop offset="1" stop-color="#fff" stop-opacity="0"/>
</radialGradient>
<radialGradient cx="46.29" cy="54.148" r="13.781" id="radialGradient3889" xlink:href="#linearGradient4459-2" gradientUnits="userSpaceOnUse"/>
<radialGradient cx="-26.369" cy="6.709" gradientTransform="matrix(.57988 0 0 .316 52.08528 12.0672)" r="59" id="radialGradient3904" gradientUnits="userSpaceOnUse">
<stop offset="0" stop-color="#595959"/>
<stop offset="1"/>
</radialGradient>
<radialGradient cx="48" cy="90.172" gradientTransform="matrix(1.15731 0 0 .99591 -7.55102 .19713)" r="42" id="radialGradient3619" xlink:href="#linearGradient3737" gradientUnits="userSpaceOnUse"/>
</defs>
<path opacity=".08" fill="url(#linearGradient3780)" d="m12-95.0312c-5.5111,0-10.0312,4.5202-10.0312,10.0312v71c0,5.5111 4.5202,10.0312 10.0312,10.0312h72c5.5111,0 10.0312-4.5202 10.0312-10.0312v-71c0-5.5111-4.5202-10.0312-10.0312-10.0312h-72z" transform="scale(1 -1)"/>
<path opacity=".1" fill="url(#linearGradient3780)" d="m12-94.0312c-4.9716,0-9.0312,4.0596-9.0312,9.0312v71c0,4.9716 4.0596,9.0312 9.0312,9.0312h72c4.9716,0 9.0312-4.0596 9.0312-9.0312v-71c0-4.9716-4.0596-9.0312-9.0312-9.0312h-72z" transform="scale(1 -1)"/>
<path opacity=".2" fill="url(#linearGradient3780)" d="m12-93c-4.4091,0-8,3.5909-8,8v71c0,4.4091 3.5909,8 8,8h72c4.4091,0 8-3.5909 8-8v-71c0-4.4091-3.5909-8-8-8h-72z" transform="scale(1 -1)"/>
<path opacity=".3" fill="url(#linearGradient3780)" d="m12-92h72a7,7 0 0,1 7,7v71a7,7 0 0,1 -7,7h-72a7,7 0 0,1 -7-7v-71a7,7 0 0,1 7-7" transform="scale(1 -1)"/>
<path opacity=".45" fill="url(#linearGradient3721)" d="m12-91h72a6,6 0 0,1 6,6v72a6,6 0 0,1 -6,6h-72a6,6 0 0,1 -6-6v-72a6,6 0 0,1 6-6" transform="scale(1 -1)"/>
<path fill="url(#linearGradient3617)" d="m12-90h72a6,6 0 0,1 6,6v72a6,6 0 0,1 -6,6h-72a6,6 0 0,1 -6-6v-72a6,6 0 0,1 6-6" transform="scale(1 -1)"/>
<g fill-rule="evenodd" fill-opacity=".75">
<g transform="matrix(.71186 0 0 .70954 2.44068 2.45228)">
<g fill="#680000">
<path opacity=".3" filter="url(#filter3503)" d="m29.682,23.053c0,0-10.3862,51.3399 3.5336,93.6396-10.2474-65.7244 4.5936-92.2261 4.5936-92.2261l-8.1272-1.4134z"/>
<path opacity=".3" filter="url(#filter3499)" d="m15.5477,19.8728c0,0-10.7395,41.4459 .7067,83.3922-6.3604-60.424 7.4205-81.9788 7.4205-81.9788l-8.1272-1.4134z"/>
</g>
<g fill="#f55">
<path opacity=".3" filter="url(#filter3513)" d="m21.5548,103.6184c0,0-4.2403-38.1625 3.5336-71.3781-6.4975,16.7306-11.3074,38.1625-3.5336,71.3781z" transform="matrix(.99964 -.02986 .02669 1.1183 22.57626 6.03436)"/>
<path opacity=".3" filter="url(#filter3513)" d="m21.5548,103.6184c0,0-4.2403-38.1625 3.5336-71.3781-6.4975,16.7306-11.3074,38.1625-3.5336,71.3781z" transform="matrix(.99964 -.02669 .02669 .99964 -1.45201 6.24678)"/>
</g>
<path opacity=".3" fill="#680000" filter="url(#filter3525)" d="m52.2968,23.053c0,0-1.9056,49.7577 3.5336,93.6396-2.1201-64.6696 4.5936-92.2261 4.5936-92.2261l-8.1272-1.4134z" transform="matrix(1 0 0 .67 0 7.60748)"/>
</g>
<g transform="matrix(-.71186 0 0 .70954 94.55687 2.45228)">
<g fill="#680000">
<path opacity=".3" filter="url(#filter3503)" d="m29.682,23.053c0,0-10.3862,51.3399 3.5336,93.6396-10.2474-65.7244 4.5936-92.2261 4.5936-92.2261l-8.1272-1.4134z"/>
<path opacity=".3" filter="url(#filter3499)" d="m15.5477,19.8728c0,0-10.7395,41.4459 .7067,83.3922-6.3604-60.424 7.4205-81.9788 7.4205-81.9788l-8.1272-1.4134z"/>
</g>
<g fill="#f55">
<path opacity=".3" filter="url(#filter3513)" d="m21.5548,103.6184c0,0-4.2403-38.1625 3.5336-71.3781-6.4975,16.7306-11.3074,38.1625-3.5336,71.3781z" transform="matrix(.99964 -.02986 .02669 1.1183 22.57626 6.03436)"/>
<path opacity=".3" filter="url(#filter3513)" d="m21.5548,103.6184c0,0-4.2403-38.1625 3.5336-71.3781-6.4975,16.7306-11.3074,38.1625-3.5336,71.3781z" transform="matrix(.99964 -.02669 .02669 .99964 -1.45201 6.24678)"/>
</g>
<path opacity=".3" fill="#680000" filter="url(#filter3525)" d="m52.2968,23.053c0,0-1.9056,49.7577 3.5336,93.6396-2.1201-64.6696 4.5936-92.2261 4.5936-92.2261l-8.1272-1.4134z" transform="matrix(1 0 0 .67 0 7.60748)"/>
</g>
</g>
<path opacity=".8" fill="#ffd903" filter="url(#filter4689)" d="m89.4503,33.8984a25.4858,9.8984 0 1,1 -50.9717,0 25.4858,9.8984 0 1,1 50.9717,0z" transform="matrix(.66937 0 0 1.02123 5.15887 -9.46032)"/>
<g fill-rule="evenodd">
<path fill-opacity=".75" d="m39.7292,22.8454c2.0075,.0234 2.6665,2.4579 1.9211,4.018-.457,2.166-2.5351,3.3516-3.3464,5.3067-1.0464,2.6341-.1468,5.5251 1.1659,7.8868 1.0602,2.2183 2.3696,4.8546 4.9612,5.5179 1.5253,.4843 2.7862-.9141 4.2828-.5866 1.8921,.3201 3.7899,1.9926 5.7305,.9299 1.298-.949 2.068-2.4435 2.9136-3.7767 1.8954-3.2823 1.258-7.5345-.8902-10.5373-.8473-1.3806-2.157-2.4622-2.8639-3.9159-.5197-2.0341 .6683-4.1727-.1881-6.1597-1.2085-1.4935-3.3856-.875-4.9804-.4897-2.2677,.7065-4.6685,2.0183-7.0804,1.1617-.6048-.0734-1.2405,.1718-1.6258,.6451z"/>
<g fill-opacity=".706">
<path d="m18.7909,41.3744c0,.3343 0,.3343 0,0 0-4.4899-8.4806,5.7666-7.5463,9.026 1.1432,3.9883 .3775,5.0144 4.7793,5.0144 2.6364,0 4.0802-2.1631 5.2824-3.7608 1.76-2.339 2.2639-3.5293 2.2639-6.0173 0-.7923-1.6562-2.8927-2.2639-3.4499-.8934-.8193-.6152-.4335-2.5154-.8123z"/>
<path d="m76.6424,41.8101c-2.2813-1.5665-6.5961-2.0338-6.2583,1.149 .433,4.0804 1.7853,5.307 3.2897,7.2967 .5374,.7108 3.317,3.2405 4.3128,3.6422 2.3797,.96 3.6871-.6468 4.8687-2.1032 1.7354-2.139-1.9549-7.5933-3.2588-9.3178-1.0919-1.4441-.9333-1.3605-2.0319-1.8037-.4532-.1828-.6148,.7578-.9223,1.1368z"/>
<path d="m36.5556,57.415c-.5845-.463-2.7089-.8697-3.7291-.9466-.6157-.0464-2.9553,2.0134-3.6033,2.6569-1.1626,1.1547-2.3715,2.7314-3.4522,4.1991-.7282,.989-1.2113,2.2403-1.806,3.9904-.6926,2.0383-.331,2.9609-.9074,4.6572-.5767,1.6973 .3006,2.4167 1.1799,3.1506 .4614,.3851 2.5196,.4476 3.3343,.7838 .7678,.3168 1.7737,1.0278 2.675,1.3996 .7877,.325 1.3712,.2901 2.7569-.9343 1.2566-1.1104 1.9722,.3266 4.2479-1.799 1.0316-.9635 2.3003-4.1204 2.73-5.3851 .7791-2.2928 .3662-4.2074 .227-4.6419-.4583-1.4318-.6245-3.5562-1.1545-5.2119-.5819-1.8179-1.0066-.8119-2.4986-1.9188z"/>
<path d="m59.1843,58.3327c.5367-1.6826 3.3898-1.0166 5.1476-.2309 1.9469,.8702 2.1394,1.2461 3.56,3.1199 1.9732,2.6026 2.6021,2.5294 3.1714,5.2336 .572,2.7168-1.0566,3.9016-1.6082,5.6306-.2898,.9085-1.6562,2.0478-2.1723,2.686-.6112,.7558-1.8851,1.0948-2.8151,1.7557-1.3936,.9903-3.2962-.8679-4.224-1.4862-1.598-1.0649-1.9384-3.3683-2.1601-4.4215-.3344-1.5881-1.6092-2.605-2.4779-4.6037-.5701-1.3119-1.5197-4.299-1.6404-4.8724-.2412-1.1457 1.1527-1.8087 1.7536-2.5516 .4284-.5297 1.2775-.9782 2.5048-1.372 .7676-.2463 .3464-.3006 .9606,1.1125z"/>
<path d="m20.304,81.6107c-1.0954-.0414-2.4126,.133-3.5148,.133-1.648,0-5.2945,3.1751-5.2945,4.7672 0,.709 .1015,1.8751 .2225,3.1486 .2636,.0321 .5283,.0665 .8008,.0665h13.6811c.0577-.6727-.0406-1.345-.3559-1.9734-.7355-1.4662-1.7157-2.9837-2.2691-3.2595-.0823-.041-1.084-2.4542-2.2691-2.7495-.2958-.0737-.6359-.1192-1.0011-.133z"/>
<path d="m77.0752,80.4577c-.4204,.005-.8317,.0904-1.179,.2883-1.7882,1.0185-5.5392,5.1393-5.5392,6.0089 0,.6487 .115,1.7546 .3114,2.9712h12.8136c.3968,0 .7799-.0438 1.1568-.1109-.0498-.7839-.2464-1.559-.4449-2.3504-.3447-1.3742-1.2103-2.8674-2.0244-4.5233-.7466-1.5188-1.4423-1.5401-3.2701-1.9956-.4221-.1052-1.1236-.297-1.8242-.2883z"/>
</g>
</g>
<path opacity=".7" fill="url(#radialGradient3784)" d="m60.0707,54.1484a13.7809,13.7809 0 1,1 -27.5618,0 13.7809,13.7809 0 1,1 27.5618,0z" transform="matrix(1.25945 0 0 1.25535 -29.44714 -27.35279)"/>
<path opacity=".2" fill="#fc0" line-height="normal" color="#000" d="m48.5938,14.9062-.9688,.2188c5.0389,25.0628-1.8845,49.5035 1.9688,74.875l1-.125c-3.8121-25.1002 3.0982-49.6111-2-74.9688z"/>
<path opacity=".4" fill="url(#linearGradient4599)" d="m44.2188,16.2279 0,73.7721 5.4941,0c-3.7095-24.9413 2.8759-49.0618-1.7236-73.7721l-3.7705-0z"/>
<path opacity=".1" d="m12,9c-3.324,0-6,2.676-6,6v.5312 3.4688 1.9062c9.2696,4.4145 24.6196,7.3125 42,7.3125 17.3804,0 32.7304-2.898 42-7.3125v-1.9062-3.4688-.5312c0-3.324-2.676-6-6-6h-.5312-70.9375-.5312z"/>
<path opacity=".15" d="m12,8c-3.324,0-6,2.676-6,6v.5312 3.4688 1.9062c9.2696,4.4145 24.6196,7.3125 42,7.3125 17.3804,0 32.7304-2.898 42-7.3125v-1.9062-3.4688-.5312c0-3.324-2.676-6-6-6h-.5312-70.9375-.5312z"/>
<path opacity=".3" d="m12,7c-3.324,0-6,2.676-6,6v.5312 3.4688 1.9062c9.2696,4.4145 24.6196,7.3125 42,7.3125 17.3804,0 32.7304-2.898 42-7.3125v-1.9062-3.4688-.5312c0-3.324-2.676-6-6-6h-.5312-70.9375-.5312z"/>
<path fill="url(#radialGradient3904)" d="m12,6c-3.324,0-6,2.676-6,6v.5312 3.4688 1.9062c9.2696,4.4145 24.6196,7.3125 42,7.3125 17.3804,0 32.7304-2.898 42-7.3125v-1.9062-3.4688-.5312c0-3.324-2.676-6-6-6h-.5312-70.9375-.5312z"/>
<path opacity=".2" fill="url(#linearGradient3901)" d="m6,15.6769 0,2.2246c9.2696,4.4145 24.6196,7.3189 42,7.3189 17.3804,0 32.7304-2.9044 42-7.3189v-2.2246c-9.2697,4.0467-24.6198,6.696-42,6.696-17.3802,0-32.7303-2.6493-42-6.696z"/>
<path opacity=".7" fill="url(#radialGradient3889)" d="m60.0707,54.1484a13.7809,13.7809 0 1,1 -27.5618,0 13.7809,13.7809 0 1,1 27.5618,0z" transform="matrix(.47458 0 0 .47458 14.17931 -11.02186)"/>
<path opacity=".2" fill="url(#radialGradient3619)" d="m12,90c-3.324,0-6-2.676-6-6v-2-68-2c0-.3347 .0413-.6507 .0938-.9688 .0487-.2956 .097-.5969 .1875-.875 .0099-.0304 .0209-.0636 .0312-.0938 .0989-.2878 .2349-.5475 .375-.8125 .1446-.2735 .3156-.5356 .5-.7812 .1844-.2456 .3738-.4735 .5938-.6875 .4399-.4281 .9429-.8145 1.5-1.0938 .2785-.1396 .5735-.2469 .875-.3438-.2562,.1002-.4867,.2363-.7188,.375-.0074,.0044-.0239-.0045-.0312,0-.0319,.0193-.0623,.0425-.0938,.0625-.1204,.0767-.231,.1635-.3438,.25-.1062,.0808-.2133,.1611-.3125,.25-.1779,.1614-.3475,.3454-.5,.5312-.1076,.1303-.2184,.2653-.3125,.4062-.0251,.0384-.0384,.0859-.0625,.125-.0648,.103-.1302,.2045-.1875,.3125-.101,.1947-.2057,.4157-.2812,.625-.008,.0218-.0236,.0405-.0312,.0625-.0318,.092-.0358,.1868-.0625,.2812-.0303,.1066-.0704,.203-.0938,.3125-.0729,.3415-.125,.6982-.125,1.0625v2 68 2c0,2.7818 2.2182,5 5,5h2 68 2c2.7818,0 5-2.2182 5-5v-2-68-2c0-.3643-.0521-.721-.125-1.0625-.0442-.2069-.0884-.3977-.1562-.5938-.0077-.022-.0233-.0407-.0312-.0625-.0627-.1737-.1384-.3674-.2188-.5312-.0416-.0828-.079-.17-.125-.25-.0546-.0972-.1268-.1883-.1875-.2812-.0941-.141-.2049-.276-.3125-.4062-.1432-.1745-.3031-.347-.4688-.5-.0112-.0102-.02-.0211-.0312-.0312-.1384-.1256-.2851-.2344-.4375-.3438-.1026-.0732-.2043-.1534-.3125-.2188-.0074-.0045-.0238,.0044-.0312,0-.232-.1387-.4625-.2748-.7188-.375 .3015,.0968 .5965,.2041 .875,.3438 .5571,.2792 1.0601,.6657 1.5,1.0938 .22,.214 .4094,.4419 .5938,.6875 .1844,.2456 .3554,.5077 .5,.7812 .1401,.265 .2761,.5247 .375,.8125 .0104,.0308 .0213,.0627 .0312,.0938 .0905,.2781 .1388,.5794 .1875,.875 .0524,.318 .0938,.634 .0938,.9688v2 68 2c0,3.324-2.676,6-6,6h-72z"/>
<path opacity=".3" fill="url(#linearGradient3188)" d="m12,6c-3.324,0-6,2.676-6,6v2 68 2c0,.3347 .0413,.6507 .0938,.9688 .0487,.2956 .097,.5969 .1875,.875 .0099,.0304 .0209,.0636 .0312,.0938 .0989,.2878 .2349,.5475 .375,.8125 .1446,.2735 .3156,.5356 .5,.7812 .1844,.2456 .3738,.4735 .5938,.6875 .4399,.4281 .9429,.8145 1.5,1.0938 .2785,.1396 .5735,.2469 .875,.3438-.2562-.1002-.4867-.2363-.7188-.375-.0074-.0044-.0239,.0045-.0312,0-.0319-.0193-.0623-.0425-.0938-.0625-.1204-.0767-.231-.1635-.3438-.25-.1062-.0808-.2133-.1611-.3125-.25-.1779-.1614-.3475-.3454-.5-.5312-.1076-.1303-.2184-.2653-.3125-.4062-.0251-.0384-.0384-.0859-.0625-.125-.0648-.103-.1302-.2045-.1875-.3125-.101-.1947-.2057-.4157-.2812-.625-.008-.0218-.0236-.0405-.0312-.0625-.0318-.0919-.0358-.1868-.0625-.2812-.0303-.1066-.0704-.203-.0938-.3125-.0729-.3415-.125-.6982-.125-1.0625v-2-68-2c0-2.7818 2.2182-5 5-5h2 68 2c2.7818,0 5,2.2182 5,5v2 68 2c0,.3643-.0521,.721-.125,1.0625-.0442,.2069-.0884,.3977-.1562,.5938-.0077,.022-.0233,.0407-.0312,.0625-.0627,.1737-.1384,.3674-.2188,.5312-.0416,.0828-.079,.17-.125,.25-.0546,.0972-.1268,.1883-.1875,.2812-.0941,.141-.2049,.276-.3125,.4062-.1432,.1744-.3031,.347-.4688,.5-.0112,.0102-.02,.0212-.0312,.0312-.1384,.1256-.2851,.2344-.4375,.3438-.1026,.0731-.2043,.1534-.3125,.2188-.0074,.0045-.0238-.0044-.0312,0-.232,.1387-.4625,.2748-.7188,.375 .3015-.0968 .5965-.2041 .875-.3438 .5571-.2792 1.0601-.6657 1.5-1.0938 .22-.214 .4094-.4419 .5938-.6875 .1844-.2456 .3554-.5077 .5-.7812 .1401-.265 .2761-.5247 .375-.8125 .0104-.0308 .0213-.0627 .0312-.0938 .0905-.2781 .1388-.5794 .1875-.875 .0524-.318 .0938-.634 .0938-.9688v-2-68-2c0-3.324-2.676-6-6-6h-72z"/>
</svg>
