<svg xmlns="http://www.w3.org/2000/svg" viewBox="0 0 96 96" xmlns:xlink="http://www.w3.org/1999/xlink">
<defs>
<clipPath id="clipPath4165">
<path fill="#ff2a2a" d="m12,6h72a6,6 0 0,1 6,6v72a6,6 0 0,1 -6,6h-72a6,6 0 0,1 -6-6v-72a6,6 0 0,1 6-6"/>
</clipPath>
<clipPath id="clipPath3613">
<path fill="#fff" d="m12,6h72a6,6 0 0,1 6,6v72a6,6 0 0,1 -6,6h-72a6,6 0 0,1 -6-6v-72a6,6 0 0,1 6-6"/>
</clipPath>
<filter width="1.384" x="-.192" y="-.192" height="1.384" color-interpolation-filters="sRGB" id="filter3794">
<feGaussianBlur stdDeviation="5.28"/>
</filter>
<linearGradient id="linearGradient3617" xlink:href="#linearGradient2841" y1="90" y2="5.988" x2="0" gradientUnits="userSpaceOnUse"/>
<linearGradient gradientTransform="matrix(1.00587 0 0 .99417 100 0)" id="ButtonShadow-0" y1="92.54" y2="7.017" x2="0" gradientUnits="userSpaceOnUse">
<stop offset="0"/>
<stop offset="1" stop-opacity=".588"/>
</linearGradient>
<linearGradient gradientTransform="matrix(1.02381 0 0 1.0119 -1.14286 -98.07143)" id="linearGradient3780" xlink:href="#ButtonShadow-0" y1="6.132" y2="90.239" x2="0" gradientUnits="userSpaceOnUse"/>
<linearGradient gradientTransform="translate(0 -97)" id="linearGradient3721" xlink:href="#ButtonShadow-0" y1="6.132" y2="90.239" x2="0" gradientUnits="userSpaceOnUse"/>
<linearGradient id="linearGradient3698">
<stop offset="0" stop-color="#f0a801" stop-opacity=".186"/>
<stop offset=".5" stop-color="#f0a801" stop-opacity=".357"/>
<stop offset=".75" stop-color="#e8a301" stop-opacity=".837"/>
<stop offset="1" stop-color="#e09201"/>
</linearGradient>
<linearGradient id="linearGradient3853">
<stop offset="0" stop-color="#e88d01" stop-opacity=".184"/>
<stop offset=".5" stop-color="#e58907" stop-opacity=".411"/>
<stop offset=".75" stop-color="#e48a0a" stop-opacity=".682"/>
<stop offset="1" stop-color="#e4870a"/>
</linearGradient>
<linearGradient id="linearGradient2841">
<stop offset="0" stop-color="#f0bf39"/>
<stop offset="1" stop-color="#f8e699"/>
</linearGradient>
<linearGradient id="linearGradient3613" xlink:href="#linearGradient3737" y1="20.221" y2="138.661" x2="0" gradientUnits="userSpaceOnUse"/>
<linearGradient id="linearGradient3737">
<stop offset="0" stop-color="#fff"/>
<stop offset="1" stop-color="#fff" stop-opacity="0"/>
</linearGradient>
<linearGradient id="linearGradient3188" xlink:href="#linearGradient3737" y1="6" y2="63.893" x2="0" gradientUnits="userSpaceOnUse"/>
<radialGradient cx="24.821" cy="26.357" r="8.036" id="radialGradient4393" xlink:href="#linearGradient3853" gradientUnits="userSpaceOnUse"/>
<radialGradient cx="78.237" cy="79.565" r="2.143" id="radialGradient4105" xlink:href="#linearGradient3853" gradientUnits="userSpaceOnUse"/>
<radialGradient cx="82.598" cy="69.737" r="4.821" id="radialGradient4102" xlink:href="#linearGradient3698" gradientUnits="userSpaceOnUse"/>
<radialGradient cx="3.023" cy="17.705" gradientTransform="matrix(1 0 0 .975 0 .37768)" r="7.143" id="radialGradient4119" xlink:href="#linearGradient3698" gradientUnits="userSpaceOnUse"/>
<radialGradient cx="12.211" cy="77.455" r="7.857" id="radialGradient4125" xlink:href="#linearGradient3853" gradientUnits="userSpaceOnUse"/>
<radialGradient cx="60.239" cy="7.869" r="2.768" id="radialGradient4077" xlink:href="#linearGradient3698" gradientUnits="userSpaceOnUse"/>
<radialGradient cx="12.649" cy="34.283" r="3.214" id="radialGradient4121" xlink:href="#linearGradient3698" gradientUnits="userSpaceOnUse"/>
<radialGradient cx="80.714" cy="25.643" r="9.286" id="radialGradient4065" xlink:href="#linearGradient3698" gradientUnits="userSpaceOnUse"/>
<radialGradient cx="30.529" cy="62.283" r="6.607" id="radialGradient4051" xlink:href="#linearGradient3698" gradientUnits="userSpaceOnUse"/>
<radialGradient cx="34.688" cy="5.043" r="6.071" id="radialGradient4073" xlink:href="#linearGradient3698" gradientUnits="userSpaceOnUse"/>
<radialGradient cx="62.679" cy="37.607" r="5.357" id="radialGradient4049" xlink:href="#linearGradient3698" gradientUnits="userSpaceOnUse"/>
<radialGradient cx="43.393" cy="30.464" r="4.107" id="radialGradient4045" xlink:href="#linearGradient3853" gradientUnits="userSpaceOnUse"/>
<radialGradient cx="53.542" cy="24.64" r="2.143" id="radialGradient4047" xlink:href="#linearGradient3698" gradientUnits="userSpaceOnUse"/>
<radialGradient cx="65.731" cy="71.637" r="8.214" id="radialGradient4053" xlink:href="#linearGradient3853" gradientUnits="userSpaceOnUse"/>
<radialGradient cx="48" cy="90.172" gradientTransform="matrix(1.15731 0 0 .99591 -7.55102 .19713)" r="42" id="radialGradient3619" xlink:href="#linearGradient3737" gradientUnits="userSpaceOnUse"/>
<radialGradient cx="48.796" cy="56.426" r="3.393" id="radialGradient4055" xlink:href="#linearGradient3698" gradientUnits="userSpaceOnUse"/>
<radialGradient cx="73.393" cy="13.679" r="3.571" id="radialGradient4063" xlink:href="#linearGradient3853" gradientUnits="userSpaceOnUse"/>
<radialGradient cx="33.899" cy="87.036" r="4.107" id="radialGradient4059" xlink:href="#linearGradient3698" gradientUnits="userSpaceOnUse"/>
<radialGradient cx="50.864" cy="86.754" r="5.357" id="radialGradient4061" xlink:href="#linearGradient3698" gradientUnits="userSpaceOnUse"/>
</defs>
<path opacity=".08" fill="url(#linearGradient3780)" d="m12-95.0312c-5.5111,0-10.0312,4.5202-10.0312,10.0312v71c0,5.5111 4.5202,10.0312 10.0312,10.0312h72c5.5111,0 10.0312-4.5202 10.0312-10.0312v-71c0-5.5111-4.5202-10.0312-10.0312-10.0312h-72z" transform="scale(1 -1)"/>
<path opacity=".1" fill="url(#linearGradient3780)" d="m12-94.0312c-4.9716,0-9.0312,4.0596-9.0312,9.0312v71c0,4.9716 4.0596,9.0312 9.0312,9.0312h72c4.9716,0 9.0312-4.0596 9.0312-9.0312v-71c0-4.9716-4.0596-9.0312-9.0312-9.0312h-72z" transform="scale(1 -1)"/>
<path opacity=".2" fill="url(#linearGradient3780)" d="m12-93c-4.4091,0-8,3.5909-8,8v71c0,4.4091 3.5909,8 8,8h72c4.4091,0 8-3.5909 8-8v-71c0-4.4091-3.5909-8-8-8h-72z" transform="scale(1 -1)"/>
<path opacity=".3" fill="url(#linearGradient3780)" d="m12-92h72a7,7 0 0,1 7,7v71a7,7 0 0,1 -7,7h-72a7,7 0 0,1 -7-7v-71a7,7 0 0,1 7-7" transform="scale(1 -1)"/>
<path opacity=".45" fill="url(#linearGradient3721)" d="m12-91h72a6,6 0 0,1 6,6v72a6,6 0 0,1 -6,6h-72a6,6 0 0,1 -6-6v-72a6,6 0 0,1 6-6" transform="scale(1 -1)"/>
<path fill="url(#linearGradient3617)" d="m12,6h72a6,6 0 0,1 6,6v72a6,6 0 0,1 -6,6h-72a6,6 0 0,1 -6-6v-72a6,6 0 0,1 6-6"/>
<path opacity=".5" fill="url(#linearGradient3188)" d="m12,6c-3.324,0-6,2.676-6,6v2 68 2c0,.3347 .0413,.6507 .0938,.9688 .0487,.2956 .097,.5969 .1875,.875 .0099,.0304 .0209,.0636 .0312,.0938 .0989,.2878 .2349,.5475 .375,.8125 .1446,.2735 .3156,.5356 .5,.7812 .1844,.2456 .3738,.4735 .5938,.6875 .4399,.4281 .9429,.8145 1.5,1.0938 .2785,.1396 .5735,.2469 .875,.3438-.2562-.1002-.4867-.2363-.7188-.375-.0074-.0044-.0239,.0045-.0312,0-.0319-.0193-.0623-.0425-.0938-.0625-.1204-.0767-.231-.1635-.3438-.25-.1062-.0808-.2133-.1611-.3125-.25-.1779-.1614-.3475-.3454-.5-.5312-.1076-.1303-.2184-.2653-.3125-.4062-.0251-.0384-.0384-.0859-.0625-.125-.0648-.103-.1302-.2045-.1875-.3125-.101-.1947-.2057-.4157-.2812-.625-.008-.0218-.0236-.0405-.0312-.0625-.0318-.0919-.0358-.1868-.0625-.2812-.0303-.1066-.0704-.203-.0938-.3125-.0729-.3415-.125-.6982-.125-1.0625v-2-68-2c0-2.7818 2.2182-5 5-5h2 68 2c2.7818,0 5,2.2182 5,5v2 68 2c0,.3643-.0521,.721-.125,1.0625-.0442,.2069-.0884,.3977-.1562,.5938-.0077,.022-.0233,.0407-.0312,.0625-.0627,.1737-.1384,.3674-.2188,.5312-.0416,.0828-.079,.17-.125,.25-.0546,.0972-.1268,.1883-.1875,.2812-.0941,.141-.2049,.276-.3125,.4062-.1432,.1744-.3031,.347-.4688,.5-.0112,.0102-.02,.0212-.0312,.0312-.1384,.1256-.2851,.2344-.4375,.3438-.1026,.0731-.2043,.1534-.3125,.2188-.0074,.0045-.0238-.0044-.0312,0-.232,.1387-.4625,.2748-.7188,.375 .3015-.0968 .5965-.2041 .875-.3438 .5571-.2792 1.0601-.6657 1.5-1.0938 .22-.214 .4094-.4419 .5938-.6875 .1844-.2456 .3554-.5077 .5-.7812 .1401-.265 .2761-.5247 .375-.8125 .0104-.0308 .0213-.0627 .0312-.0938 .0905-.2781 .1388-.5794 .1875-.875 .0524-.318 .0938-.634 .0938-.9688v-2-68-2c0-3.324-2.676-6-6-6h-72z"/>
<path opacity=".2" fill="url(#radialGradient3619)" d="m12,90c-3.324,0-6-2.676-6-6v-2-68-2c0-.3347 .0413-.6507 .0938-.9688 .0487-.2956 .097-.5969 .1875-.875 .0099-.0304 .0209-.0636 .0312-.0938 .0989-.2878 .2349-.5475 .375-.8125 .1446-.2735 .3156-.5356 .5-.7812 .1844-.2456 .3738-.4735 .5938-.6875 .4399-.4281 .9429-.8145 1.5-1.0938 .2785-.1396 .5735-.2469 .875-.3438-.2562,.1002-.4867,.2363-.7188,.375-.0074,.0044-.0239-.0045-.0312,0-.0319,.0193-.0623,.0425-.0938,.0625-.1204,.0767-.231,.1635-.3438,.25-.1062,.0808-.2133,.1611-.3125,.25-.1779,.1614-.3475,.3454-.5,.5312-.1076,.1303-.2184,.2653-.3125,.4062-.0251,.0384-.0384,.0859-.0625,.125-.0648,.103-.1302,.2045-.1875,.3125-.101,.1947-.2057,.4157-.2812,.625-.008,.0218-.0236,.0405-.0312,.0625-.0318,.092-.0358,.1868-.0625,.2812-.0303,.1066-.0704,.203-.0938,.3125-.0729,.3415-.125,.6982-.125,1.0625v2 68 2c0,2.7818 2.2182,5 5,5h2 68 2c2.7818,0 5-2.2182 5-5v-2-68-2c0-.3643-.0521-.721-.125-1.0625-.0442-.2069-.0884-.3977-.1562-.5938-.0077-.022-.0233-.0407-.0312-.0625-.0627-.1737-.1384-.3674-.2188-.5312-.0416-.0828-.079-.17-.125-.25-.0546-.0972-.1268-.1883-.1875-.2812-.0941-.141-.2049-.276-.3125-.4062-.1432-.1745-.3031-.347-.4688-.5-.0112-.0102-.02-.0211-.0312-.0312-.1384-.1256-.2851-.2344-.4375-.3438-.1026-.0732-.2043-.1534-.3125-.2188-.0074-.0045-.0238,.0044-.0312,0-.232-.1387-.4625-.2748-.7188-.375 .3015,.0968 .5965,.2041 .875,.3438 .5571,.2792 1.0601,.6657 1.5,1.0938 .22,.214 .4094,.4419 .5938,.6875 .1844,.2456 .3554,.5077 .5,.7812 .1401,.265 .2761,.5247 .375,.8125 .0104,.0308 .0213,.0627 .0312,.0938 .0905,.2781 .1388,.5794 .1875,.875 .0524,.318 .0938,.634 .0938,.9688v2 68 2c0,3.324-2.676,6-6,6h-72z"/>
<g clip-path="url(#clipPath4165)">
<path fill="url(#radialGradient4393)" d="m31.25,22.6071a8.0357,8.0357 0 1,1 -16.0714,0 8.0357,8.0357 0 1,1 16.0714,0z" transform="translate(2)"/>
<path fill="url(#radialGradient4045)" d="m46.7857,28.6786a4.1071,4.1071 0 1,1 -8.2143,0 4.1071,4.1071 0 1,1 8.2143,0z"/>
<path fill="url(#radialGradient4047)" d="m55.1786,23.5a2.1429,2.1429 0 1,1 -4.2857,0 2.1429,2.1429 0 1,1 4.2857,0z"/>
<path fill="url(#radialGradient4049)" d="m67.3214,35.8214a5.3571,5.3571 0 1,1 -10.7143,0 5.3571,5.3571 0 1,1 10.7143,0z"/>
<path fill="url(#radialGradient4051)" d="m36.25,59.75a6.6071,6.6071 0 1,1 -13.2143,0 6.6071,6.6071 0 1,1 13.2143,0z"/>
<path fill="url(#radialGradient4053)" d="m72.6786,67.9643a8.2143,8.2143 0 1,1 -16.4286,0 8.2143,8.2143 0 1,1 16.4286,0z" transform="matrix(1.17391 0 0 1.17391 -12.63975 -13.24845)"/>
<path fill="url(#radialGradient4055)" d="m51.4286,55.2857a3.3929,3.3929 0 1,1 -6.7857,0 3.3929,3.3929 0 1,1 6.7857,0z"/>
<path fill="url(#radialGradient4125)" d="m18.9286,74.0357a7.8571,7.8571 0 1,1 -15.7143,0 7.8571,7.8571 0 1,1 15.7143,0z" transform="translate(-1)"/>
<path fill="url(#radialGradient4059)" d="m37.5,85.6429a4.1071,4.1071 0 1,1 -8.2143,0 4.1071,4.1071 0 1,1 8.2143,0z" transform="translate(-1.42857 -2.14286)"/>
<path fill="url(#radialGradient4061)" d="m55.7143,85.1071a5.3571,5.3571 0 1,1 -10.7143,0 5.3571,5.3571 0 1,1 10.7143,0z" transform="translate(1.42857 3.03571)"/>
<path fill="url(#radialGradient4063)" d="m76.4286,12.7857a3.5714,3.5714 0 1,1 -7.1429,0 3.5714,3.5714 0 1,1 7.1429,0z"/>
<path fill="url(#radialGradient4065)" d="m88.9286,22.0714a9.2857,9.2857 0 1,1 -18.5714,0 9.2857,9.2857 0 1,1 18.5714,0z" transform="translate(3.57143 6.60714)"/>
<path fill="url(#radialGradient4105)" d="m77.8572,76.5357h-.0001a2.1429,2.1429 0 0,1 2.1429,2.1429v-.0001a2.1429,2.1429 0 0,1 -2.1429,2.1429h.0001a2.1429,2.1429 0 0,1 -2.1429-2.1429v.0001a2.1429,2.1429 0 0,1 2.1429-2.1429"/>
<path fill="url(#radialGradient4102)" d="m81.9643,63.1429a4.8214,4.2857 0 0,1 4.8214,4.2857v1.0714a4.8214,4.2857 0 0,1 -4.8214,4.2857 4.8214,4.2857 0 0,1 -4.8214-4.2857v-1.0714a4.8214,4.2857 0 0,1 4.8214-4.2857"/>
<path fill="url(#radialGradient4121)" d="m15.3571,33.1429a3.2143,3.2143 0 1,1 -6.4286,0 3.2143,3.2143 0 1,1 6.4286,0z" transform="translate(2)"/>
<path fill="url(#radialGradient4073)" d="m40,3.1429a6.0714,6.0714 0 1,1 -12.1429,0 6.0714,6.0714 0 1,1 12.1429,0z"/>
<path fill="url(#radialGradient4119)" d="m8.3929,15.1071a7.1429,6.9643 0 1,1 -14.2857,0 7.1429,6.9643 0 1,1 14.2857,0z" transform="translate(2 3.39286)"/>
<path fill="url(#radialGradient4077)" d="m62.5,6.9821a2.7679,2.7679 0 1,1 -5.5357,0 2.7679,2.7679 0 1,1 5.5357,0z" transform="translate(5 -.71429)"/>
<path opacity=".5" fill="#fff" d="m27.875,3.7812c-.0076,.1241-.0312,.249-.0312,.375 0,3.3532 2.7406,6.0625 6.0938,6.0625 3.3532,0 6.0625-2.7093 6.0625-6.0625 0-.126-.0237-.2509-.0312-.375-.3099,3.0606-2.8877,5.4375-6.0312,5.4375-3.1436,0-5.7491-2.3769-6.0625-5.4375z"/>
<path opacity=".5" fill="#fff" d="m62.0312,6.8438c-.0224,.143-.0625,.2884-.0625,.4375 0,1.5286 1.2214,2.75 2.75,2.75 1.5286,0 2.7812-1.2214 2.7812-2.75 0-.1491-.0396-.2945-.0625-.4375-.2607,1.2578-1.3812,2.1875-2.7188,2.1875-1.3376,0-2.4328-.9297-2.6875-2.1875z"/>
<path opacity=".5" fill="#fff" d="m69.3125,13.2812c-.0232,.1646-.0312,.3288-.0312,.5 0,1.9724 1.5901,3.5625 3.5625,3.5625 1.9724,0 3.5938-1.5901 3.5938-3.5625 0-.1712-.0077-.3354-.0312-.5-.2482,1.7324-1.7612,3.0625-3.5625,3.0625-1.8013,0-3.2876-1.3301-3.5312-3.0625z"/>
<path opacity=".5" fill="#fff" d="m-3.875,19c-.012,.1644-.0312,.3326-.0312,.5 0,3.8463 3.2114,6.9688 7.1562,6.9688 3.9449,0 7.1562-3.1225 7.1562-6.9688 0-.1674-.0193-.3356-.0312-.5-.2628,3.6143-3.3518,6.4688-7.125,6.4688-3.7732,0-6.8622-2.8544-7.125-6.4688z"/>
<path opacity=".5" fill="#fff" d="m17.2188,23.0938c-.0105,.1682-.0312,.3291-.0312,.5 0,4.438 3.5932,8.0625 8.0312,8.0625 4.438,0 8.0312-3.6245 8.0312-8.0625 0-.1709-.0208-.3318-.0312-.5-.2621,4.2029-3.7328,7.5625-8,7.5625-4.2672,0-7.7379-3.3596-8-7.5625z"/>
<path opacity=".5" fill="#fff" d="m50.9688,24c-.0376,.1607-.0625,.3281-.0625,.5 0,1.1835 .9415,2.1562 2.125,2.1562 1.1835,0 2.1562-.9728 2.1562-2.1562 0-.1719-.0238-.3393-.0625-.5-.2278,.9455-1.0822,1.6562-2.0938,1.6562-1.0115,0-1.8413-.7108-2.0625-1.6562z"/>
<path opacity=".5" fill="#fff" d="m38.625,29.1875c-.0198,.1632-.0625,.3317-.0625,.5 0,2.2683 1.8567,4.0938 4.125,4.0938 2.2683,0 4.0938-1.8254 4.0938-4.0938 0-.1683-.043-.3368-.0625-.5-.2519,2.0231-1.9376,3.5938-4.0312,3.5938-2.0936,0-3.8065-1.5706-4.0625-3.5938z"/>
<path opacity=".5" fill="#fff" d="m73.9688,29.1875c-.0091,.1686-.0312,.3291-.0312,.5 0,5.1284 4.1529,9.2812 9.2812,9.2812 5.1284,0 9.2812-4.1529 9.2812-9.2812 0-.1709-.0221-.3314-.0312-.5-.2641,4.8912-4.2925,8.7812-9.25,8.7812-4.9575,0-8.9859-3.89-9.25-8.7812z"/>
<path opacity=".5" fill="#fff" d="m11,33.6562c-.0254,.1625-.0625,.3305-.0625,.5 0,1.7752 1.4435,3.1875 3.2188,3.1875 1.7752,0 3.1875-1.4123 3.1875-3.1875 0-.1695-.0376-.3375-.0625-.5-.2353,1.5343-1.5193,2.6875-3.125,2.6875-1.6057,0-2.916-1.1532-3.1562-2.6875z"/>
<path opacity=".5" fill="#fff" d="m56.625,36.375c-.0112,.141-.0312,.2935-.0312,.4375 0,2.9587 2.4163,5.375 5.375,5.375 2.9587,0 5.3438-2.4163 5.3438-5.375 0-.144-.0202-.2965-.0312-.4375-.2729,2.7033-2.5387,4.8125-5.3125,4.8125-2.7738,0-5.0674-2.1092-5.3438-4.8125z"/>
<path opacity=".5" fill="#fff" d="m44.6875,55.7812c-.0239,.1629-.0312,.3301-.0312,.5 0,1.8738 1.5012,3.4062 3.375,3.4062 1.8738,0 3.4062-1.5324 3.4062-3.4062 0-.1699-.0069-.3371-.0312-.5-.2438,1.6387-1.6711,2.9062-3.375,2.9062-1.7039,0-3.1046-1.2675-3.3438-2.9062z"/>
<path opacity=".5" fill="#fff" d="m23.0625,60.25c-.0121,.1629-.0312,.334-.0312,.5 0,3.649 2.976,6.5938 6.625,6.5938 3.649,0 6.5938-2.9447 6.5938-6.5938 0-.166-.0193-.3371-.0312-.5-.2513,3.4174-3.0795,6.0938-6.5625,6.0938-3.483,0-6.3399-2.6763-6.5938-6.0938z"/>
<path opacity=".5" fill="#fff" d="m77.1562,68.5 0,1c0,2.3743 2.1414,4.2812 4.8125,4.2812 2.6711,0 4.8125-1.907 4.8125-4.2812v-1c0,2.3743-2.1414,4.2812-4.8125,4.2812-2.6711,0-4.8125-1.907-4.8125-4.2812z"/>
<path opacity=".5" fill="#fff" d="m2.25,74.5312c-.0102,.1644-.0312,.3329-.0312,.5 0,4.3394 3.5044,7.875 7.8438,7.875 4.3394,0 7.875-3.5356 7.875-7.875 0-.1671-.0209-.3356-.0312-.5-.2578,4.1089-3.6714,7.375-7.8438,7.375-4.1723,0-7.5569-3.2661-7.8125-7.375z"/>
<path opacity=".5" fill="#fff" d="m75.7812,79.1875c-.0375,.161-.0625,.3275-.0625,.5 0,1.1871 .9379,2.125 2.125,2.125 1.1871,0 2.1562-.9379 2.1562-2.125 0-.1725-.0239-.339-.0625-.5-.2271,.9404-1.0791,1.625-2.0938,1.625-1.0147,0-1.842-.6846-2.0625-1.625z"/>
<path opacity=".5" fill="#fff" d="m27.9062,84c-.0214,.1688-.0625,.3253-.0625,.5 0,2.2683 1.8567,4.0938 4.125,4.0938 2.2683,0 4.0938-1.8254 4.0938-4.0938 0-.1747-.0415-.3312-.0625-.5-.2519,2.0231-1.9376,3.5938-4.0312,3.5938-2.0936,0-3.8065-1.5706-4.0625-3.5938z"/>
<path opacity=".5" fill="#fff" d="m46.4688,88.7188c-.0111,.1412-.0312,.2935-.0312,.4375 0,2.9587 2.3851,5.3438 5.3438,5.3438 2.9587,0 5.375-2.3851 5.375-5.3438 0-.144-.02-.2963-.0312-.4375-.2763,2.6999-2.57,4.7812-5.3438,4.7812-2.7738,0-5.0396-2.0814-5.3125-4.7812z"/>
<path opacity=".5" fill="#fff" d="m53.4375,67.0312c-.0089,.1697-.0312,.328-.0312,.5 0,5.3256 4.2994,9.6562 9.625,9.6562 5.3256,0 9.6562-4.3306 9.6562-9.6562 0-.1718-.0224-.3304-.0312-.5-.2583,5.095-4.4658,9.1562-9.625,9.1562-5.159,0-9.3352-4.0615-9.5938-9.1562z"/>
</g>
<path opacity=".1" fill="url(#linearGradient3613)" filter="url(#filter3794)" stroke="#fff" stroke-linecap="round" stroke-width=".5" d="m27,15h42a12,12 0 0,1 12,12v42a12,12 0 0,1 -12,12h-42a12,12 0 0,1 -12-12v-42a12,12 0 0,1 12-12" clip-path="url(#clipPath3613)"/>
</svg>
