<svg xmlns="http://www.w3.org/2000/svg" viewBox="0 0 96 96" xmlns:xlink="http://www.w3.org/1999/xlink">
<defs>
<clipPath id="clipPath3613">
<path fill="#fff" d="m12,6h72a6,6 0 0,1 6,6v72a6,6 0 0,1 -6,6h-72a6,6 0 0,1 -6-6v-72a6,6 0 0,1 6-6"/>
</clipPath>
<clipPath id="clipPath3846">
<path fill="url(#linearGradient3851)" d="m102,6c-3.324,0-6,2.676-6,6v72c0,3.324 2.676,6 6,6h72c3.324,0 6-2.676 6-6v-72c0-3.324-2.676-6-6-6h-72zm36,21c4.2757,0 7.7501,3.225 7.75,7.2188-.017,.5019-.053,1.069-.0937,1.6562 .5842,.4388 .6357,1.7422 .0625,3.0938-.2069,.4878-.4697,.9072-.75,1.25-.0907,.424-.1333,.7562-.25,1.25-.3176,.9535-1.5822,2.8161-2.5312,4.2812-.0612,.9744-.0577,1.9482 .0625,2.9375 1.5978,1.3905 4.5578,2.4514 6.9688,3.4688 .9995-.4157 1.9192-.8408 2.5625-1.375 .1571-.9165 .1406-1.7255 .0625-2.5312-.7829-1.0445-1.6599-2.2603-1.875-2.9062-.0694-.3181-.0988-.5305-.1562-.8125-.008-.0088-.0232-.0222-.0312-.0312-.2406-.2709-.4817-.6197-.6562-1.0312-.4527-1.0674-.3825-2.1043 .125-2.375-.0357-.427-.0545-.813-.0625-1.1562 0-2.9953 2.6057-5.4375 5.8125-5.4375 3.2068,0 5.8125,2.4422 5.8125,5.4375-.0127,.3764-.0632,.7783-.0937,1.2188 .4382,.3291 .4924,1.2988 .0625,2.3125-.1552,.3659-.3523,.6804-.5625,.9375-.068,.318-.1,.5672-.1875,.9375-.2382,.7151-1.1632,2.1199-1.875,3.2188-.0459,.7308-.0589,1.4768 .0312,2.2188 2.2258,1.937 8.0222,2.9672 8.0312,4.625l.7812,5.0625c0,1.0173-1.5144,1.9251-3.9062,2.5625l-.4375,1.4375a.8432,.8438 0 0,1 -.5,.5312c-.1088,.0421-.1705,.1321-.4688,.2188-1.5711,.4565-3.9976,.7812-6.6875,.7812-2.5124,0-4.746-.2789-6.3125-.6875l-.4688,1.6562a1.1242,1.1251 0 0,1 -.6562,.7188c-.1451,.0562-.2586,.1657-.6562,.2812-2.0948,.6086-5.3197,1.0312-8.9062,1.0312-3.5865,0-6.7802-.4226-8.875-1.0312-.3977-.1155-.5111-.225-.6562-.2812a1.1242,1.1251 0 0,1 -.6875-.75l-.4062-1.6562c-1.5706,.4145-3.8404,.7188-6.375,.7188-2.6899,0-5.0852-.3248-6.6562-.7812-.2982-.0867-.3599-.1766-.4688-.2188a.8432,.8438 0 0,1 -.5312-.5625l-.3438-1.375c-2.4518-.6384-4-1.5619-4-2.5938l.7812-5.0625c-.009-1.937 5.7466-2.754 8-4.625 .1571-.9165 .1406-1.7255 .0625-2.5312-.7829-1.0445-1.6599-2.2603-1.875-2.9062-.0695-.3181-.0988-.5305-.1562-.8125-.008-.0088-.0233-.0222-.0312-.0312-.2406-.2709-.4817-.6197-.6562-1.0312-.4527-1.0674-.3825-2.1043 .125-2.375-.0357-.427-.0545-.813-.0625-1.1562 0-2.9953 2.6057-5.4375 5.8125-5.4375 3.2068,0 5.8125,2.4422 5.8125,5.4375-.0127,.3764-.0631,.7783-.0937,1.2188 .4381,.3291 .4924,1.2988 .0625,2.3125-.1552,.3659-.3523,.6804-.5625,.9375-.068,.318-.1,.5672-.1875,.9375-.2382,.7151-1.1632,2.1199-1.875,3.2188-.0459,.7308-.0589,1.4768 .0312,2.2188 .57,.496 1.3688,.9386 2.25,1.3438 2.4497-1.0395 5.5898-2.0331 7.2812-3.4375 .2094-1.222 .1978-2.2694 .0937-3.3438-1.0439-1.3927-2.2444-3.0137-2.5312-3.875-.0926-.4242-.1421-.7177-.2188-1.0938-.0107-.0118-.0205-.0192-.0312-.0312-.3208-.3612-.6423-.8262-.875-1.375-.6036-1.4232-.5204-2.8265 .1562-3.1875-.0476-.5693-.0521-1.1048-.0625-1.5625-0-3.9938 3.4742-7.2188 7.75-7.2188z"/>
</clipPath>
<filter width="1.414" x="-.207" y="-.286" height="1.571" color-interpolation-filters="sRGB" id="filter3842">
<feGaussianBlur stdDeviation="5"/>
</filter>
<filter width="1.384" x="-.192" y="-.192" height="1.384" color-interpolation-filters="sRGB" id="filter3794">
<feGaussianBlur stdDeviation="5.28"/>
</filter>
<linearGradient gradientTransform="translate(-69.82143 42.85714)" id="linearGradient2963" xlink:href="#linearGradient3785" y1="5" y2="44.679" x2="0" gradientUnits="userSpaceOnUse"/>
<linearGradient gradientTransform="translate(-69.82143 42.85714)" id="linearGradient2955" xlink:href="#linearGradient5060" y1="39" x1="38" y2="38.6" x2="43" gradientUnits="userSpaceOnUse"/>
<linearGradient gradientTransform="translate(-65.69638 3.35714)" id="linearGradient2966" xlink:href="#linearGradient3341" y1="53.869" x1="24.787" y2="83.5" x2="24.875" gradientUnits="userSpaceOnUse"/>
<linearGradient gradientTransform="translate(-69.82143 42.85714)" id="linearGradient2958" xlink:href="#linearGradient5060" y1="39" x1="22" y2="37.438" x2="17" gradientUnits="userSpaceOnUse"/>
<linearGradient gradientTransform="matrix(1.02381 0 0 1.0119 -1.14286 -98.07143)" id="linearGradient3780" xlink:href="#ButtonShadow-0" y1="6.132" y2="90.239" x2="0" gradientUnits="userSpaceOnUse"/>
<linearGradient gradientTransform="matrix(1.00587 0 0 .99417 100 0)" id="ButtonShadow-0" y1="92.54" y2="7.017" x2="0" gradientUnits="userSpaceOnUse">
<stop offset="0"/>
<stop offset="1" stop-opacity=".588"/>
</linearGradient>
<linearGradient gradientTransform="translate(-69.82143 42.85714)" id="linearGradient2971" xlink:href="#linearGradient3785" y1="25.085" y2="45" x2="0" gradientUnits="userSpaceOnUse"/>
<linearGradient id="linearGradient3859" xlink:href="#linearGradient3853" y1="27" y2="69" x2="0" gradientUnits="userSpaceOnUse"/>
<linearGradient gradientTransform="matrix(.85509 0 0 1.17872 -69.95703 42.80578)" id="linearGradient2949" xlink:href="#linearGradient2895" x1="27.056" x2="43.429" gradientUnits="userSpaceOnUse"/>
<linearGradient gradientTransform="translate(90)" id="linearGradient3851" xlink:href="#linearGradient3700" y1="90" y2="5.988" x2="0" gradientUnits="userSpaceOnUse"/>
<linearGradient gradientTransform="translate(0 -97)" id="linearGradient3721" xlink:href="#ButtonShadow-0" y1="6.132" y2="90.239" x2="0" gradientUnits="userSpaceOnUse"/>
<linearGradient id="linearGradient3737">
<stop offset="0" stop-color="#fff"/>
<stop offset="1" stop-color="#fff" stop-opacity="0"/>
</linearGradient>
<linearGradient id="linearGradient3613" xlink:href="#linearGradient3737" y1="20.221" y2="138.661" x2="0" gradientUnits="userSpaceOnUse"/>
<linearGradient id="linearGradient3617" xlink:href="#linearGradient3700" y1="90" y2="5.988" x2="0" gradientUnits="userSpaceOnUse"/>
<linearGradient id="linearGradient3188" xlink:href="#linearGradient3737" y1="6" y2="63.893" x2="0" gradientUnits="userSpaceOnUse"/>
<linearGradient id="linearGradient3700">
<stop offset="0" stop-color="#da8714"/>
<stop offset="1" stop-color="#f4d468"/>
</linearGradient>
<linearGradient id="linearGradient5060">
<stop offset="0"/>
<stop offset="1" stop-opacity="0"/>
</linearGradient>
<linearGradient id="linearGradient2895">
<stop offset="0"/>
<stop offset="1" stop-opacity="0"/>
</linearGradient>
<linearGradient id="linearGradient6954">
<stop offset="0" stop-color="#f5f5f5"/>
<stop offset="1" stop-color="#d2d2d2"/>
</linearGradient>
<linearGradient id="linearGradient3341">
<stop offset="0" stop-color="#fff"/>
<stop offset="1" stop-color="#fff" stop-opacity="0"/>
</linearGradient>
<linearGradient id="linearGradient3853">
<stop offset="0"/>
<stop offset="1" stop-color="#313131"/>
</linearGradient>
<linearGradient id="linearGradient3785">
<stop offset="0" stop-color="#bdbdbd"/>
<stop offset="1" stop-color="#8c8c8c"/>
</linearGradient>
<radialGradient cx="32" cy="41.5" gradientTransform="matrix(.85714 0 0 .28571 -67.25 72)" r="21" id="radialGradient2974" xlink:href="#linearGradient5060" gradientUnits="userSpaceOnUse"/>
<radialGradient cx="48" cy="90.172" gradientTransform="matrix(1.15731 0 0 .99591 -7.55102 .19713)" r="42" id="radialGradient3619" xlink:href="#linearGradient3737" gradientUnits="userSpaceOnUse"/>
<radialGradient cx="26.376" cy="12.313" gradientTransform="matrix(1.64017 -.13258 .12811 1.58488 -88.21778 37.62972)" r="8" id="radialGradient2961" xlink:href="#linearGradient6954" gradientUnits="userSpaceOnUse"/>
<radialGradient cx="30" cy="33.188" gradientTransform="matrix(1.52797 -0 0 .46087 -85.66063 57.56216)" r="4.688" id="radialGradient2952" xlink:href="#linearGradient5060" gradientUnits="userSpaceOnUse"/>
<radialGradient cx="25" cy="28.66" gradientTransform="matrix(1.3125 0 0 .37327 -77.63393 63.15931)" r="16" id="radialGradient2969" xlink:href="#linearGradient6954" gradientUnits="userSpaceOnUse"/>
</defs>
<path opacity=".08" fill="url(#linearGradient3780)" d="m12-95.0312c-5.5111,0-10.0312,4.5202-10.0312,10.0312v71c0,5.5111 4.5202,10.0312 10.0312,10.0312h72c5.5111,0 10.0312-4.5202 10.0312-10.0312v-71c0-5.5111-4.5202-10.0312-10.0312-10.0312h-72z" transform="scale(1 -1)"/>
<path opacity=".1" fill="url(#linearGradient3780)" d="m12-94.0312c-4.9716,0-9.0312,4.0596-9.0312,9.0312v71c0,4.9716 4.0596,9.0312 9.0312,9.0312h72c4.9716,0 9.0312-4.0596 9.0312-9.0312v-71c0-4.9716-4.0596-9.0312-9.0312-9.0312h-72z" transform="scale(1 -1)"/>
<path opacity=".2" fill="url(#linearGradient3780)" d="m12-93c-4.4091,0-8,3.5909-8,8v71c0,4.4091 3.5909,8 8,8h72c4.4091,0 8-3.5909 8-8v-71c0-4.4091-3.5909-8-8-8h-72z" transform="scale(1 -1)"/>
<path opacity=".3" fill="url(#linearGradient3780)" d="m12-92h72a7,7 0 0,1 7,7v71a7,7 0 0,1 -7,7h-72a7,7 0 0,1 -7-7v-71a7,7 0 0,1 7-7" transform="scale(1 -1)"/>
<path opacity=".45" fill="url(#linearGradient3721)" d="m12-91h72a6,6 0 0,1 6,6v72a6,6 0 0,1 -6,6h-72a6,6 0 0,1 -6-6v-72a6,6 0 0,1 6-6" transform="scale(1 -1)"/>
<path fill="url(#linearGradient3617)" d="m12,6h72a6,6 0 0,1 6,6v72a6,6 0 0,1 -6,6h-72a6,6 0 0,1 -6-6v-72a6,6 0 0,1 6-6"/>
<path opacity=".5" fill="url(#linearGradient3188)" d="m12,6c-3.324,0-6,2.676-6,6v2 68 2c0,.3347 .0413,.6507 .0938,.9688 .0487,.2956 .097,.5969 .1875,.875 .0099,.0304 .0209,.0636 .0312,.0938 .0989,.2878 .2349,.5475 .375,.8125 .1446,.2735 .3156,.5356 .5,.7812 .1844,.2456 .3738,.4735 .5938,.6875 .4399,.4281 .9429,.8145 1.5,1.0938 .2785,.1396 .5735,.2469 .875,.3438-.2562-.1002-.4867-.2363-.7188-.375-.0074-.0044-.0239,.0045-.0312,0-.0319-.0193-.0623-.0425-.0938-.0625-.1204-.0767-.231-.1635-.3438-.25-.1062-.0808-.2133-.1611-.3125-.25-.1779-.1614-.3475-.3454-.5-.5312-.1076-.1303-.2184-.2653-.3125-.4062-.0251-.0384-.0384-.0859-.0625-.125-.0648-.103-.1302-.2045-.1875-.3125-.101-.1947-.2057-.4157-.2812-.625-.008-.0218-.0236-.0405-.0312-.0625-.0318-.0919-.0358-.1868-.0625-.2812-.0303-.1066-.0704-.203-.0938-.3125-.0729-.3415-.125-.6982-.125-1.0625v-2-68-2c0-2.7818 2.2182-5 5-5h2 68 2c2.7818,0 5,2.2182 5,5v2 68 2c0,.3643-.0521,.721-.125,1.0625-.0442,.2069-.0884,.3977-.1562,.5938-.0077,.022-.0233,.0407-.0312,.0625-.0627,.1737-.1384,.3674-.2188,.5312-.0416,.0828-.079,.17-.125,.25-.0546,.0972-.1268,.1883-.1875,.2812-.0941,.141-.2049,.276-.3125,.4062-.1432,.1744-.3031,.347-.4688,.5-.0112,.0102-.02,.0212-.0312,.0312-.1384,.1256-.2851,.2344-.4375,.3438-.1026,.0731-.2043,.1534-.3125,.2188-.0074,.0045-.0238-.0044-.0312,0-.232,.1387-.4625,.2748-.7188,.375 .3015-.0968 .5965-.2041 .875-.3438 .5571-.2792 1.0601-.6657 1.5-1.0938 .22-.214 .4094-.4419 .5938-.6875 .1844-.2456 .3554-.5077 .5-.7812 .1401-.265 .2761-.5247 .375-.8125 .0104-.0308 .0213-.0627 .0312-.0938 .0905-.2781 .1388-.5794 .1875-.875 .0524-.318 .0938-.634 .0938-.9688v-2-68-2c0-3.324-2.676-6-6-6h-72z"/>
<path opacity=".2" fill="url(#radialGradient3619)" d="m12,90c-3.324,0-6-2.676-6-6v-2-68-2c0-.3347 .0413-.6507 .0938-.9688 .0487-.2956 .097-.5969 .1875-.875 .0099-.0304 .0209-.0636 .0312-.0938 .0989-.2878 .2349-.5475 .375-.8125 .1446-.2735 .3156-.5356 .5-.7812 .1844-.2456 .3738-.4735 .5938-.6875 .4399-.4281 .9429-.8145 1.5-1.0938 .2785-.1396 .5735-.2469 .875-.3438-.2562,.1002-.4867,.2363-.7188,.375-.0074,.0044-.0239-.0045-.0312,0-.0319,.0193-.0623,.0425-.0938,.0625-.1204,.0767-.231,.1635-.3438,.25-.1062,.0808-.2133,.1611-.3125,.25-.1779,.1614-.3475,.3454-.5,.5312-.1076,.1303-.2184,.2653-.3125,.4062-.0251,.0384-.0384,.0859-.0625,.125-.0648,.103-.1302,.2045-.1875,.3125-.101,.1947-.2057,.4157-.2812,.625-.008,.0218-.0236,.0405-.0312,.0625-.0318,.092-.0358,.1868-.0625,.2812-.0303,.1066-.0704,.203-.0938,.3125-.0729,.3415-.125,.6982-.125,1.0625v2 68 2c0,2.7818 2.2182,5 5,5h2 68 2c2.7818,0 5-2.2182 5-5v-2-68-2c0-.3643-.0521-.721-.125-1.0625-.0442-.2069-.0884-.3977-.1562-.5938-.0077-.022-.0233-.0407-.0312-.0625-.0627-.1737-.1384-.3674-.2188-.5312-.0416-.0828-.079-.17-.125-.25-.0546-.0972-.1268-.1883-.1875-.2812-.0941-.141-.2049-.276-.3125-.4062-.1432-.1745-.3031-.347-.4688-.5-.0112-.0102-.02-.0211-.0312-.0312-.1384-.1256-.2851-.2344-.4375-.3438-.1026-.0732-.2043-.1534-.3125-.2188-.0074-.0045-.0238,.0044-.0312,0-.232-.1387-.4625-.2748-.7188-.375 .3015,.0968 .5965,.2041 .875,.3438 .5571,.2792 1.0601,.6657 1.5,1.0938 .22,.214 .4094,.4419 .5938,.6875 .1844,.2456 .3554,.5077 .5,.7812 .1401,.265 .2761,.5247 .375,.8125 .0104,.0308 .0213,.0627 .0312,.0938 .0905,.2781 .1388,.5794 .1875,.875 .0524,.318 .0938,.634 .0938,.9688v2 68 2c0,3.324-2.676,6-6,6h-72z"/>
<path opacity=".1" fill="url(#linearGradient3613)" filter="url(#filter3794)" stroke="#fff" stroke-linecap="round" stroke-width=".5" d="m27,15h42a12,12 0 0,1 12,12v42a12,12 0 0,1 -12,12h-42a12,12 0 0,1 -12-12v-42a12,12 0 0,1 12-12" clip-path="url(#clipPath3613)"/>
<path opacity=".7" fill="url(#radialGradient2974)" d="m-21.8214,83.8571a18,6 0 0,1 -36,0 18,6 0 1,1 36,0z"/>
<path fill="url(#radialGradient2969)" stroke="url(#linearGradient2971)" d="m-44.3214,63.3571c.4602,2.1767 .7171,3.8233 .3438,6-2.9107,2.4149-10.3549,3.5-10.3438,6l-1,7.5c0,2.4853 6.9396,4.5 15.5,4.5 8.5604,0 15.5-2.0147 15.5-4.5l-1-7.5c-.0119-2.1397-7.5-3.5-10.375-6-.2456-2.0203-.0501-3.9797 .375-6h-9z"/>
<path fill="none" stroke="url(#linearGradient2966)" d="m-43.1651,64.3571c.3046,1.6903 .5108,3.2715 .1875,5.1562a1.0027,1.0027 0 0,1 -.375,.625c-1.7218,1.4285-4.3454,2.2543-6.5312,3.125-1.0929,.4353-2.0659,.8698-2.6875,1.2812-.6216,.4115-.7506,.6854-.75,.8125a1.0027,1.0027 0 0,1 0,.125l-1,7.375c0,.003-.0001,.0281 0,.0312 .0055,.1583 .1501,.473 .7812,.9062 .6438,.4419 1.6943,.8931 3.0312,1.2812 2.6738,.7763 6.486,1.2812 10.6875,1.2812 4.2015,0 8.0137-.505 10.6875-1.2812 1.3369-.3881 2.3874-.8393 3.0312-1.2812 .6312-.4332 .7757-.7479 .7812-.9062v-.0312l-1-7.375a1.0027,1.0027 0 0,1 0-.125c.0001,.0246 .0157,.0028-.0938-.125-.1095-.1278-.3344-.299-.6562-.5-.6437-.402-1.6457-.8575-2.75-1.3125-2.2087-.9101-4.8364-1.8388-6.5312-3.3125a1.0027,1.0027 0 0,1 -.3438-.625c-.2119-1.7432-.0575-3.4407 .2188-5.125h-6.6875z"/>
<path fill="url(#radialGradient2961)" stroke="url(#linearGradient2963)" d="m-39.8214,48.3571c-4.1421,0-7.5,3.134-7.5,7 .0325,1.4307 .1546,3.1304 1,7 .5,1.5 4.9598,5.5 5,6 .9697,.5 2.5,.5 3.5,0 0-.5 4-4.5 4.5-6 .9514-4.0217 .949-5.5 1-7 0-3.866-3.3579-7-7.5-7z"/>
<path opacity=".3" fill="url(#linearGradient2958)" d="m-48.8214,86.0571c-2.3623-1.9822-1.2359-6.3829-1-9.2-1,2-1,8-3,8 1.3626,.4586 2.7496,.9658 4,1.2z"/>
<path opacity=".3" fill="url(#linearGradient2955)" d="m-30.8214,86.0571c2.35-1.7437 1.1567-6.4859 1-9.2 1,2 1,8 3,8-1.3626,.4586-2.7496,.9658-4,1.2z"/>
<path opacity=".2" fill="url(#radialGradient2952)" d="m-44.5089,69.8571c.6863,1.7448 2.5189,3 4.6875,3 2.1686,0 4.0012-1.2552 4.6875-3h-9.375z"/>
<path opacity=".7" fill="none" stroke="url(#linearGradient2949)" stroke-width="1.004" d="m-39.8214,49.3591c-3.63,0-6.4796,2.6881-6.498,5.9576 .0001,.0063-.0001,.0251 0,.0314 .032,1.3785 .1571,2.9915 .9731,6.7415 .0408,.097 .3363,.5849 .7848,1.1288 .4628,.5612 1.0445,1.1979 1.6323,1.8186 .5879,.6207 1.1826,1.2366 1.6323,1.7246 .2249,.244 .4072,.4592 .565,.6585 .0143,.0181 .0176,.0449 .0314,.0627 .5825,.2287 1.5971,.2312 2.2288,0 .1409-.2043 .3015-.4442 .5023-.6898 .4016-.4912 .9149-1.0714 1.444-1.6932 .5291-.6218 1.0837-1.2865 1.5068-1.85 .4021-.5355 .6606-.98 .722-1.1288 .0033-.0139-.0033-.0175 0-.0314 .9267-3.9225 .9224-5.2299 .9731-6.7415 0-.0106 .0001-.0208 0-.0314-.0184-3.2695-2.868-5.9576-6.498-5.9576z"/>
<path d="m-84.3214,63.3571c.4602,2.1767 .7171,3.8233 .3438,6-2.9107,2.4149-10.3549,3.5-10.3438,6l-1,6.5c0,2.4853 6.9396,4.5 15.5,4.5 8.5604,0 15.5-2.0147 15.5-4.5l-1-6.5c-.0119-2.1397-7.5-3.5-10.375-6-.2456-2.0203-.0501-3.9797 .375-6h-9z"/>
<path d="m-9.75,73.0938c-3.7664,.1211-7.4681,1.3864-11.4062,3.25a1.2533,1.2533 0 0,0 -.6875,1.4375l.625,2.5312a1.2533,1.2533 0 0,0 .7812,.8438c.1618,.0626 .2754,.1838 .7188,.3125 2.3353,.678 5.908,1.1562 9.9062,1.1562 3.9983,0 7.571-.4783 9.9062-1.1562 .4433-.1287 .557-.2499 .7188-.3125a1.2533,1.2533 0 0,0 .7812-.8125l.6562-2.3125a1.2533,1.2533 0 0,0 -.5312-1.375c-3.9239-2.6139-7.7023-3.6836-11.4688-3.5625z" transform="matrix(.86898 0 0 .86898 -71.28325 17.20063)"/>
<path d="m-102.471,18.2403a1.389,2.7779 0 0,1 1.389,2.7779v.0001a1.389,2.7779 0 0,1 -1.389,2.7779 1.389,2.7779 0 0,1 -1.389-2.7779v-.0001a1.389,2.7779 0 0,1 1.389-2.7779" transform="matrix(.92052 -.39069 .39069 .92052 0 0)"/>
<path d="m44.5697,80.6472h-.0001a1.389,2.7779 0 0,1 1.389,2.7779 1.389,2.7779 0 0,1 -1.389,2.7779h.0001a1.389,2.7779 0 0,1 -1.389-2.7779 1.389,2.7779 0 0,1 1.389-2.7779" transform="matrix(-.92052 -.39069 -.39069 .92052 0 0)"/>
<path d="m-79.8214,48.3571c-4.1421,0-7.5,3.134-7.5,7 .0325,1.4307 .1546,3.1304 1,7 .5,1.5 3.9598,5.5 4,6 .9697,.5 4.5,.5 5.5,0 0-.5 3-4.5 3.5-6 .9514-4.0217 .949-5.5 1-7 0-3.866-3.3579-7-7.5-7z"/>
<path d="m48-70c-5.6119,0-10.1613,4.3168-10.1613,9.6418 .0136,.6103 .0223,1.307 .0847,2.0661-.8881,.4813-1.0039,2.3637-.2117,4.2613 .3055,.7317 .7221,1.3263 1.1431,1.8078 .014,.016 .0282,.0273 .0423,.043 .1005,.5014 .1748,.8979 .2964,1.4635 .3765,1.1483 1.9324,3.3084 3.3024,5.1653 .1366,1.4324 .1479,2.8472-.127,4.4766-3.9435,3.3263-14.0292,4.8209-14.0141,8.2644l-1.3548,8.9531c0,1.8343 2.6953,3.5139 6.9859,4.6487l.5927,2.4535a1.4756,1.5001 0 0,0 .9315,.99c.1904,.0749 .3248,.2333 .8468,.3874 2.7494,.8115 6.9359,1.3774 11.6431,1.3774 4.7073,0 8.9361-.5659 11.6855-1.3774 .5219-.1541 .6563-.3125 .8468-.3874a1.4756,1.5001 0 0,0 .8891-.947l.7198-2.5826c4.1857-1.1331 6.8589-2.7541 6.8589-4.5626l-1.3548-8.9531c-.0161-2.9472-10.1613-4.8209-14.0565-8.2644-.1577-1.3191-.165-2.6178-.0847-3.917 1.2456-1.9535 2.8856-4.4535 3.3024-5.7248 .1532-.6584 .2197-1.1134 .3387-1.6787 .3678-.4571 .7023-.9852 .9738-1.6357 .7523-1.8021 .6821-3.5471-.0847-4.1322 .0536-.783 .1046-1.526 .127-2.1952 0-5.325-4.5494-9.6418-10.1613-9.6418z"/>
<path fill="#fea" filter="url(#filter3842)" d="m138,27c-4.2757,0-7.75,3.225-7.75,7.2188 .0104,.4577 .0149,.9932 .0625,1.5625-.6767,.361-.7598,1.7643-.1562,3.1875 .2327,.5488 .5542,1.0138 .875,1.375 .0107,.012 .0205,.0194 .0312,.0312 .0766,.376 .1261,.6696 .2188,1.0938 .2869,.8613 1.4874,2.4823 2.5312,3.875 .1041,1.0743 .1157,2.1217-.0937,3.3438-1.6914,1.4044-4.8316,2.398-7.2812,3.4375-.8812-.4052-1.68-.8478-2.25-1.3438-.0901-.742-.0771-1.4879-.0312-2.2188 .7118-1.0988 1.6368-2.5037 1.875-3.2188 .0875-.3703 .1195-.6195 .1875-.9375 .2102-.2571 .4073-.5716 .5625-.9375 .4299-1.0137 .3756-1.9834-.0625-2.3125 .0306-.4404 .081-.8423 .0937-1.2188 0-2.9953-2.6057-5.4375-5.8125-5.4375-3.2068,0-5.8125,2.4422-5.8125,5.4375 .008,.3433 .0268,.7293 .0625,1.1562-.5075,.2707-.5777,1.3076-.125,2.375 .1746,.4116 .4157,.7604 .6562,1.0312 .008,.009 .0232,.0224 .0312,.0312 .0574,.282 .0868,.4944 .1562,.8125 .2151,.6459 1.0921,1.8618 1.875,2.9062 .0781,.8058 .0946,1.6147-.0625,2.5312-2.2534,1.871-8.0086,2.688-8,4.625l-.7812,5.0625c0,1.0318 1.5482,1.9554 4,2.5938l.3438,1.375a.8432,.8438 0 0,0 .5312,.5625c.1088,.0421 .1705,.1321 .4688,.2188 1.5711,.4565 3.9664,.7812 6.6562,.7812 2.5346,0 4.8044-.3042 6.375-.7188l.4062,1.6562a1.1242,1.1251 0 0,0 .6875,.75c.1451,.0562 .2586,.1657 .6562,.2812 2.0948,.6086 5.2885,1.0312 8.875,1.0312 3.5865,0 6.8115-.4226 8.9062-1.0312 .3977-.1155 .5111-.2251 .6562-.2812a1.1242,1.1251 0 0,0 .6562-.7188l.4688-1.6562c1.5665,.4086 3.8001,.6875 6.3125,.6875 2.6899,0 5.1164-.3248 6.6875-.7812 .2982-.0867 .3599-.1766 .4688-.2188a.8432,.8438 0 0,0 .5-.5312l.4375-1.4375c2.3918-.6374 3.9062-1.5452 3.9062-2.5625l-.7812-5.0625c-.009-1.6578-5.8054-2.688-8.0312-4.625-.0901-.742-.0771-1.4879-.0312-2.2188 .7118-1.0988 1.6368-2.5037 1.875-3.2188 .0875-.3703 .1195-.6195 .1875-.9375 .2102-.2571 .4073-.5716 .5625-.9375 .4299-1.0137 .3757-1.9834-.0625-2.3125 .0306-.4404 .081-.8423 .0937-1.2188 0-2.9953-2.6057-5.4375-5.8125-5.4375-3.2068,0-5.8125,2.4422-5.8125,5.4375 .008,.3433 .0268,.7293 .0625,1.1562-.5075,.2707-.5777,1.3076-.125,2.375 .1746,.4116 .4157,.7604 .6562,1.0312 .008,.009 .0232,.0224 .0312,.0312 .0574,.282 .0868,.4944 .1562,.8125 .2151,.6459 1.0921,1.8618 1.875,2.9062 .0781,.8058 .0946,1.6147-.0625,2.5312-.6433,.5342-1.563,.9593-2.5625,1.375-2.4109-1.0173-5.3709-2.0783-6.9688-3.4688-.1202-.9893-.1237-1.9631-.0625-2.9375 .9491-1.4651 2.2137-3.3278 2.5312-4.2812 .1167-.4938 .1593-.826 .25-1.25 .2803-.3428 .5431-.7622 .75-1.25 .5732-1.3516 .5217-2.6549-.0625-3.0938 .0408-.5873 .0767-1.1543 .0937-1.6562 .0001-3.9938-3.4742-7.2188-7.7499-7.2188z" clip-path="url(#clipPath3846)" transform="translate(-90)"/>
<path fill="url(#linearGradient3859)" d="m48,27c-4.2758,0-7.75,3.225-7.75,7.2188 .0104,.4577 .0149,.9932 .0625,1.5625-.6767,.361-.7598,1.7643-.1562,3.1875 .2327,.5488 .5542,1.0138 .875,1.375 .0107,.012 .0205,.0194 .0312,.0312 .0766,.376 .1262,.6696 .2188,1.0938 .2869,.8613 1.4874,2.4823 2.5312,3.875 .1041,1.0743 .1157,2.1217-.0938,3.3438-1.6914,1.4044-4.8316,2.398-7.2812,3.4375-.8812-.4052-1.68-.8478-2.25-1.3438-.0901-.742-.0771-1.4879-.0312-2.2188 .7118-1.0988 1.6368-2.5037 1.875-3.2188 .0875-.3703 .1195-.6195 .1875-.9375 .2102-.2571 .4073-.5716 .5625-.9375 .4299-1.0137 .3756-1.9834-.0625-2.3125 .0306-.4404 .081-.8423 .0938-1.2188 0-2.9953-2.6057-5.4375-5.8125-5.4375-3.2068,0-5.8125,2.4422-5.8125,5.4375 .0078,.3433 .0268,.7293 .0625,1.1562-.5075,.2707-.5777,1.3076-.125,2.375 .1746,.4116 .4157,.7604 .6562,1.0312 .008,.009 .0232,.0224 .0312,.0312 .0574,.282 .0868,.4944 .1562,.8125 .2151,.6459 1.0921,1.8618 1.875,2.9062 .0781,.8058 .0946,1.6147-.0625,2.5312-2.2534,1.871-8.0086,2.688-8,4.625l-.7812,5.0625c0,1.0318 1.5483,1.9554 4,2.5938l.3438,1.375a.8432,.8438 0 0,0 .5312,.5625c.1088,.0421 .1705,.1321 .4688,.2188 1.5711,.4565 3.9664,.7812 6.6562,.7812 2.5346,0 4.8044-.3042 6.375-.7188l.4062,1.6562a1.1242,1.1251 0 0,0 .6875,.75c.1451,.0562 .2586,.1657 .6562,.2812 2.0948,.6086 5.2885,1.0312 8.875,1.0312 3.5865,0 6.8115-.4226 8.9062-1.0312 .3977-.1155 .5112-.2251 .6562-.2812a1.1242,1.1251 0 0,0 .6562-.7188l.4688-1.6562c1.5665,.4086 3.8001,.6875 6.3125,.6875 2.6899,0 5.1164-.3248 6.6875-.7812 .2982-.0867 .3599-.1766 .4688-.2188a.8432,.8438 0 0,0 .5-.5312l.4375-1.4375c2.3918-.6374 3.9062-1.5452 3.9062-2.5625l-.7812-5.0625c-.0092-1.6578-5.8054-2.688-8.0312-4.625-.0901-.742-.0771-1.4879-.0312-2.2188 .7118-1.0988 1.6368-2.5037 1.875-3.2188 .0875-.3703 .1195-.6195 .1875-.9375 .2102-.2571 .4073-.5716 .5625-.9375 .4299-1.0137 .3756-1.9834-.0625-2.3125 .0306-.4404 .081-.8423 .0938-1.2188 0-2.9953-2.6057-5.4375-5.8125-5.4375-3.2068,0-5.8125,2.4422-5.8125,5.4375 .0078,.3433 .0268,.7293 .0625,1.1562-.5075,.2707-.5777,1.3076-.125,2.375 .1746,.4116 .4157,.7604 .6562,1.0312 .008,.009 .0232,.0224 .0312,.0312 .0574,.282 .0868,.4944 .1562,.8125 .2151,.6459 1.0921,1.8618 1.875,2.9062 .0781,.8058 .0946,1.6147-.0625,2.5312-.6433,.5342-1.563,.9593-2.5625,1.375-2.4109-1.0173-5.3709-2.0783-6.9688-3.4688-.1202-.9893-.1237-1.9631-.0625-2.9375 .9491-1.4651 2.2137-3.3278 2.5312-4.2812 .1167-.4938 .1594-.826 .25-1.25 .2803-.3428 .5431-.7622 .75-1.25 .5732-1.3516 .5217-2.6549-.0625-3.0938 .0408-.5873 .0767-1.1543 .0938-1.6562 0-3.9938-3.4742-7.2188-7.75-7.2188z"/>
<path d="m26-65.6667c-2.6723,0-4.8387,2.0556-4.8387,4.5913 .0065,.2906 .0106,.6224 .0403,.9839-.4229,.2292-.478,1.1256-.1008,2.0292 .1455,.3484 .3439,.6316 .5444,.8609 .0067,.0076 .0134,.013 .0202,.0205 .0479,.2388 .0832,.4276 .1411,.6969 .1793,.5468 .9202,1.5754 1.5726,2.4596 .0651,.6821 .0704,1.3558-.0605,2.1317-1.8779,1.5839-6.6806,2.2957-6.6734,3.9354l-.6452,4.2634c0,.8735 1.2835,1.6733 3.3266,2.2137l.2823,1.1683a.7026,.7143 0 0,0 .4435,.4714c.0907,.0356 .1547,.1111 .4032,.1845 1.3092,.3864 3.3028,.6559 5.5444,.6559 2.2416,0 4.2553-.2695 5.5645-.6559 .2485-.0734 .3125-.1488 .4032-.1845a.7026,.7143 0 0,0 .4234-.4509l.3427-1.2298c1.9932-.5396 3.2661-1.3115 3.2661-2.1727l-.6452-4.2634c-.0077-1.4034-4.8387-2.2957-6.6935-3.9354-.0751-.6281-.0786-1.2466-.0403-1.8652 .5932-.9302 1.3741-2.1207 1.5726-2.7261 .0729-.3135 .1046-.5302 .1613-.7994 .1752-.2177 .3344-.4692 .4637-.7789 .3582-.8581 .3248-1.6891-.0403-1.9677 .0255-.3729 .0498-.7267 .0605-1.0453 0-2.5357-2.1664-4.5913-4.8387-4.5913z"/>
<path d="m70-65.6667c-2.6723,0-4.8387,2.0556-4.8387,4.5913 .0065,.2906 .0106,.6224 .0403,.9839-.4229,.2292-.478,1.1256-.1008,2.0292 .1455,.3484 .3439,.6316 .5444,.8609 .0067,.0076 .0134,.013 .0202,.0205 .0478,.2388 .0833,.4276 .1411,.6969 .1793,.5468 .9202,1.5754 1.5726,2.4596 .0651,.6821 .0704,1.3558-.0605,2.1317-1.8779,1.5839-6.6806,2.2957-6.6734,3.9354l-.6452,4.2634c0,.8735 1.2835,1.6733 3.3266,2.2137l.2823,1.1683a.7026,.7143 0 0,0 .4435,.4714c.0907,.0356 .1547,.1111 .4032,.1845 1.3092,.3864 3.3028,.6559 5.5444,.6559 2.2416,0 4.2553-.2695 5.5645-.6559 .2485-.0734 .3125-.1488 .4032-.1845a.7026,.7143 0 0,0 .4234-.4509l.3427-1.2298c1.9932-.5396 3.2661-1.3115 3.2661-2.1727l-.6452-4.2634c-.0077-1.4034-4.8387-2.2957-6.6935-3.9354-.0751-.6281-.0786-1.2466-.0403-1.8652 .5932-.9302 1.3741-2.1207 1.5726-2.7261 .073-.3135 .1046-.5302 .1613-.7994 .1752-.2177 .3344-.4692 .4637-.7789 .3582-.8581 .3248-1.6891-.0403-1.9677 .0255-.3729 .0498-.7267 .0605-1.0453 0-2.5357-2.1664-4.5913-4.8387-4.5913z"/>
<path d="m48,117c-4.2758,0-7.7419,3.2376-7.7419,7.2314 .0104,.4577 .017,.9803 .0645,1.5496-.6767,.361-.7649,1.7728-.1613,3.196 .2327,.5488 .5502,.9947 .871,1.3559 .0107,.012 .0215,.0205 .0323,.0323 .0766,.376 .1332,.6735 .2258,1.0976 .2869,.8613 1.4723,2.4813 2.5161,3.874 .1041,1.0743 .1127,2.1354-.0968,3.3574-3.0046,2.4947-10.6889,3.6157-10.6774,6.1983l-1.0323,6.7148c0,1.3758 2.0536,2.6354 5.3226,3.4865l.4516,1.8401a1.1242,1.1251 0 0,0 .7097,.7425c.1451,.0562 .2475,.175 .6452,.2905 2.0948,.6086 5.2845,1.0331 8.871,1.0331 3.5865,0 6.8084-.4244 8.9032-1.0331 .3977-.1155 .5001-.2344 .6452-.2905a1.1242,1.1251 0 0,0 .6774-.7102l.5484-1.937c3.1891-.8498 5.2258-2.0656 5.2258-3.422l-1.0323-6.7148c-.0123-2.2104-7.7419-3.6157-10.7097-6.1983-.1202-.9893-.1257-1.9633-.0645-2.9377 .9491-1.4651 2.1985-3.3401 2.5161-4.2936 .1167-.4938 .1674-.835 .2581-1.259 .2803-.3428 .5351-.7389 .7419-1.2268 .5732-1.3516 .5197-2.6603-.0645-3.0991 .0408-.5873 .0797-1.1445 .0968-1.6464 0-3.9938-3.4662-7.2314-7.7419-7.2314z"/>
<path d="m31,124.5c-3.2068,0-5.8065,2.4282-5.8065,5.4235 .0078,.3433 .0127,.7352 .0484,1.1622-.5075,.2707-.5737,1.3296-.121,2.397 .1746,.4116 .4126,.746 .6532,1.0169 .008,.009 .0161,.0154 .0242,.0242 .0574,.282 .0999,.5051 .1694,.8232 .2151,.6459 1.1042,1.861 1.8871,2.9055 .0781,.8057 .0845,1.6015-.0726,2.5181-2.2534,1.871-8.0167,2.7118-8.0081,4.6487l-.7742,5.0361c0,1.0318 1.5402,1.9766 3.9919,2.6149l.3387,1.3801a.8432,.8438 0 0,0 .5323,.5569c.1088,.0421 .1856,.1313 .4839,.2179 1.5711,.4565 3.9633,.7748 6.6532,.7748 2.6899,0 5.1063-.3183 6.6774-.7748 .2982-.0867 .375-.1758 .4839-.2179a.8432,.8438 0 0,0 .5081-.5327l.4113-1.4527c2.3918-.6374 3.9194-1.5492 3.9194-2.5665l-.7742-5.0361c-.0092-1.6578-5.8065-2.7118-8.0323-4.6487-.0901-.742-.0943-1.4725-.0484-2.2033 .7118-1.0988 1.6489-2.5051 1.8871-3.2202 .0875-.3703 .1256-.6263 .1935-.9443 .2102-.2571 .4013-.5542 .5565-.9201 .4299-1.0137 .3898-1.9952-.0484-2.3244 .0306-.4404 .0598-.8584 .0726-1.2348 0-2.9953-2.5996-5.4235-5.8065-5.4235z"/>
<path d="m65,124.5c-3.2068,0-5.8065,2.4282-5.8065,5.4235 .0078,.3433 .0127,.7352 .0484,1.1622-.5075,.2707-.5737,1.3296-.121,2.397 .1746,.4116 .4126,.746 .6532,1.0169 .008,.009 .0161,.0154 .0242,.0242 .0574,.282 .0999,.5051 .1694,.8232 .2151,.6459 1.1042,1.861 1.8871,2.9055 .0781,.8057 .0845,1.6015-.0726,2.5181-2.2534,1.871-8.0167,2.7118-8.0081,4.6487l-.7742,5.0361c0,1.0318 1.5402,1.9766 3.9919,2.6149l.3387,1.3801a.8432,.8438 0 0,0 .5323,.5569c.1088,.0421 .1856,.1313 .4839,.2179 1.5711,.4565 3.9633,.7748 6.6532,.7748 2.6899,0 5.1063-.3183 6.6774-.7748 .2982-.0867 .375-.1758 .4839-.2179a.8432,.8438 0 0,0 .5081-.5327l.4113-1.4527c2.3918-.6374 3.9194-1.5492 3.9194-2.5665l-.7742-5.0361c-.0092-1.6578-5.8065-2.7118-8.0323-4.6487-.0901-.742-.0943-1.4725-.0484-2.2033 .7118-1.0988 1.6489-2.5051 1.8871-3.2202 .0875-.3703 .1256-.6263 .1935-.9443 .2102-.2571 .4013-.5542 .5565-.9201 .4299-1.0137 .3898-1.9952-.0484-2.3244 .0306-.4404 .0598-.8584 .0726-1.2348 0-2.9953-2.5996-5.4235-5.8065-5.4235z"/>
<path opacity=".2" d="m48,27c-4.2758,0-7.75,3.225-7.75,7.2188 .0104,.4577 .0149,.9932 .0625,1.5625-.6767,.361-.7598,1.7643-.1562,3.1875 .2327,.5488 .5542,1.0138 .875,1.375 .0107,.012 .0205,.0194 .0312,.0312 .0766,.376 .1262,.6696 .2188,1.0938 .2869,.8613 1.4874,2.4823 2.5312,3.875 .1041,1.0743 .1157,2.1217-.0938,3.3438-1.6914,1.4044-4.8316,2.398-7.2812,3.4375-.8812-.4052-1.68-.8478-2.25-1.3438-.0901-.742-.0771-1.4879-.0312-2.2188 .7118-1.0988 1.6368-2.5037 1.875-3.2188 .0875-.3703 .1195-.6195 .1875-.9375 .2102-.2571 .4073-.5716 .5625-.9375 .4299-1.0137 .3756-1.9834-.0625-2.3125 .0306-.4404 .081-.8423 .0938-1.2188 0-2.9953-2.6057-5.4375-5.8125-5.4375-3.2068,0-5.8125,2.4422-5.8125,5.4375 .0078,.3433 .0268,.7293 .0625,1.1562-.5075,.2707-.5777,1.3076-.125,2.375 .1746,.4116 .4157,.7604 .6562,1.0312 .008,.009 .0232,.0224 .0312,.0312 .0574,.282 .0868,.4944 .1562,.8125 .2151,.6459 1.0921,1.8618 1.875,2.9062 .0781,.8058 .0946,1.6147-.0625,2.5312-2.2534,1.871-8.0086,2.688-8,4.625l-.7812,5.0625c0,1.0318 1.5483,1.9554 4,2.5938l.3438,1.375a.8432,.8438 0 0,0 .5312,.5625c.1088,.0421 .1705,.1321 .4688,.2188 1.5711,.4565 3.9664,.7812 6.6562,.7812 2.5346,0 4.8044-.3042 6.375-.7188l.4062,1.6562a1.1242,1.1251 0 0,0 .6875,.75c.1451,.0562 .2586,.1657 .6562,.2812 2.0948,.6086 5.2885,1.0312 8.875,1.0312 3.5865,0 6.8115-.4226 8.9062-1.0312 .3977-.1155 .5112-.2251 .6562-.2812a1.1242,1.1251 0 0,0 .6562-.7188l.4688-1.6562c1.5665,.4086 3.8001,.6875 6.3125,.6875 2.6899,0 5.1164-.3248 6.6875-.7812 .2982-.0867 .3599-.1766 .4688-.2188a.8432,.8438 0 0,0 .5-.5312l.4375-1.4375c2.3918-.6374 3.9062-1.5452 3.9062-2.5625l-.7812-5.0625c-.0092-1.6578-5.8054-2.688-8.0312-4.625-.0901-.742-.0771-1.4879-.0312-2.2188 .7118-1.0988 1.6368-2.5037 1.875-3.2188 .0875-.3703 .1195-.6195 .1875-.9375 .2102-.2571 .4073-.5716 .5625-.9375 .4299-1.0137 .3756-1.9834-.0625-2.3125 .0306-.4404 .081-.8423 .0938-1.2188 0-2.9953-2.6057-5.4375-5.8125-5.4375-3.2068,0-5.8125,2.4422-5.8125,5.4375 .0078,.3433 .0268,.7293 .0625,1.1562-.5075,.2707-.5777,1.3076-.125,2.375 .1746,.4116 .4157,.7604 .6562,1.0312 .008,.009 .0232,.0224 .0312,.0312 .0574,.282 .0868,.4944 .1562,.8125 .2151,.6459 1.0921,1.8618 1.875,2.9062 .0781,.8058 .0946,1.6147-.0625,2.5312-.6433,.5342-1.563,.9593-2.5625,1.375-2.4109-1.0173-5.3709-2.0783-6.9688-3.4688-.1202-.9893-.1237-1.9631-.0625-2.9375 .9491-1.4651 2.2137-3.3278 2.5312-4.2812 .1167-.4938 .1594-.826 .25-1.25 .2803-.3428 .5431-.7622 .75-1.25 .5732-1.3516 .5217-2.6549-.0625-3.0938 .0408-.5873 .0767-1.1543 .0938-1.6562 0-3.9938-3.4742-7.2188-7.75-7.2188zm0,2.0312c3.2256,0 5.6824,2.3421 5.7188,5.125 .0003,.0209 0,.0416 0,.0625-.0163,.4457-.0551,.944-.0938,1.5a2.0405,2.0405 0 0,0 .4688,1.4375c.0011,.1919-.0692,.6049-.25,1.0312-.1284,.3029-.3089,.5544-.4688,.75a2.0405,2.0405 0 0,0 -.4062,.8438c-.0976,.4565-.1431,.7496-.2188,1.0938-.0517,.1285-.3514,.773-.7812,1.4688-.4479,.725-1.0152,1.564-1.5,2.3125a2.0405,2.0405 0 0,0 -.3125,.9688c-.0668,1.0641-.0764,2.1688 .0625,3.3125a2.0405,2.0405 0 0,0 .6875,1.2812c2.1514,1.8722 5.2033,2.8302 7.5312,3.8125a2.0405,2.0405 0 0,0 1.5625,0c1.0452-.4347 2.1245-.8828 3.0938-1.6875a2.0405,2.0405 0 0,0 .6875-1.2188c.1949-1.137 .1818-2.1538 .0938-3.0625a2.0405,2.0405 0 0,0 -.4062-1.0312c-.3829-.5108-.788-1.0733-1.0938-1.5312-.283-.4239-.4355-.7696-.4375-.75-.0002,.0016-.0338-.07-.0312-.0625-.0315-.1667-.0435-.3157-.0938-.5625a2.0405,2.0405 0 0,0 -.5-.9688c-.1126-.1267-.2399-.2975-.3125-.4688-.0816-.1925-.0799-.3001-.0938-.4062a2.0405,2.0405 0 0,0 .375-1.3438c-.0312-.3737-.0552-.7041-.0625-1-.0002-.0092 .0002-.0221 0-.0312 .0185-1.7988 1.623-3.375 3.7812-3.375 2.1457,0 3.7446,1.5582 3.7812,3.3438-.0005,.0135 .0007,.0481 0,.0625-.0117,.2461-.0603,.5814-.0938,1.0625a2.0405,2.0405 0 0,0 .3125,1.25c-.01,.094-.0071,.2332-.0938,.4375-.0767,.1809-.1915,.3277-.2812,.4375a2.0405,2.0405 0 0,0 -.4062,.8438c-.0742,.3471-.1074,.5526-.1562,.7812-.0231,.0452-.2269,.4975-.5312,1-.3231,.5335-.7343,1.1638-1.0938,1.7188a2.0405,2.0405 0 0,0 -.3125,.9688c-.0498,.7935-.0814,1.666 .0312,2.5938a2.0405,2.0405 0 0,0 .6875,1.2812c1.6394,1.4266 3.7267,2.0944 5.4062,2.7812 .8397,.3434 1.5726,.6795 1.9375,.9062 .0505,.0314 .0281,.006 .0625,.0312l.625,4.125c-.0234,.0164 .0005,.011-.0312,.0312-.3911,.2504-1.2147,.5908-2.2812,.875a2.0405,2.0405 0 0,0 -1.4062,1.375l-.25,.8438c-1.3041,.3551-3.4711,.6875-5.9062,.6875-2.3614,0-4.4849-.2787-5.8125-.625a2.0405,2.0405 0 0,0 -2.4688,1.4062l-.3438,1.25c-.0064,.002-.0222-.0026-.0312,0-1.799,.5227-4.9175,.9688-8.3438,.9688-3.4262,0-6.5083-.4445-8.3125-.9688-.0224-.0065-.0543-.0281-.0625-.0312l-.2812-1.1875a2.0405,2.0405 0 0,0 -2.5-1.4688c-1.3397,.3536-3.4724,.6562-5.8438,.6562-2.4219,0-4.5334-.3332-5.8438-.6875l-.1875-.7188a2.0405,2.0405 0 0,0 -1.4688-1.4688c-1.095-.2851-1.9066-.649-2.3125-.9062-.0521-.033-.0308-.0081-.0625-.0312l.6562-4.2812c.0163-.0104-.0194,.0228 .0625-.0312 .3278-.2161 1.0222-.55 1.8438-.875 1.643-.65 3.735-1.2374 5.4062-2.625a2.0405,2.0405 0 0,0 .6875-1.2188c.1949-1.137 .1818-2.1538 .0938-3.0625a2.0405,2.0405 0 0,0 -.4062-1.0312c-.3829-.5108-.788-1.0733-1.0938-1.5312-.283-.4239-.4355-.7696-.4375-.75-.0002,.0016-.0338-.07-.0312-.0625-.0315-.1667-.0435-.3157-.0938-.5625a2.0405,2.0405 0 0,0 -.5-.9688c-.1126-.1267-.2399-.2975-.3125-.4688-.0816-.1925-.0799-.3001-.0938-.4062a2.0405,2.0405 0 0,0 .375-1.3438c-.0312-.3737-.0552-.7041-.0625-1-.0002-.0092 .0002-.0221 0-.0312 .0185-1.7988 1.623-3.375 3.7812-3.375 2.1457,0 3.7446,1.5582 3.7812,3.3438-.0005,.0135 .0007,.0481 0,.0625-.0117,.2461-.0603,.5814-.0938,1.0625a2.0405,2.0405 0 0,0 .3125,1.25c-.01,.094-.0071,.2332-.0938,.4375-.0767,.1809-.1915,.3277-.2812,.4375a2.0405,2.0405 0 0,0 -.4062,.8438c-.0742,.3471-.1074,.5526-.1562,.7812-.0231,.0452-.2269,.4975-.5312,1-.3231,.5335-.7343,1.1638-1.0938,1.7188a2.0405,2.0405 0 0,0 -.3125,.9688c-.0498,.7935-.0814,1.666 .0312,2.5938a2.0405,2.0405 0 0,0 .6875,1.2812c.8288,.7212 1.7817,1.211 2.75,1.6562a2.0405,2.0405 0 0,0 1.6562,.0312c2.3029-.9772 5.4989-1.8549 7.7812-3.75a2.0405,2.0405 0 0,0 .6875-1.2188c.2443-1.4257 .24-2.6884 .125-3.875a2.0405,2.0405 0 0,0 -.4062-1.0312c-.5192-.6927-1.0712-1.431-1.5-2.0625-.408-.6009-.6636-1.1446-.6875-1.1875-.0012-.0022-.0315-.0632-.0312-.0625-.0561-.2743-.0901-.5189-.1562-.8438a2.0405,2.0405 0 0,0 -.5-.9688c-.1928-.217-.4004-.504-.5312-.8125-.1775-.4185-.2161-.7945-.2188-1a2.0405,2.0405 0 0,0 .5312-1.5625c-.0388-.4641-.0521-.9364-.0625-1.4062 0-.0105-.0001-.0208 0-.0312 .0183-2.7967 2.4811-5.1562 5.7188-5.1562z"/>
<path opacity=".4" d="m48,27c-4.2758,0-7.75,3.225-7.75,7.2188 .0104,.4577 .0149,.9932 .0625,1.5625-.6767,.361-.7598,1.7643-.1562,3.1875 .2327,.5488 .5542,1.0138 .875,1.375 .0107,.012 .0205,.0194 .0312,.0312 .0766,.376 .1262,.6696 .2188,1.0938 .2869,.8613 1.4874,2.4823 2.5312,3.875 .1041,1.0743 .1157,2.1217-.0938,3.3438-1.6914,1.4044-4.8316,2.398-7.2812,3.4375-.8812-.4052-1.68-.8478-2.25-1.3438-.0901-.742-.0771-1.4879-.0312-2.2188 .7118-1.0988 1.6368-2.5037 1.875-3.2188 .0875-.3703 .1195-.6195 .1875-.9375 .2102-.2571 .4073-.5716 .5625-.9375 .4299-1.0137 .3756-1.9834-.0625-2.3125 .0306-.4404 .081-.8423 .0938-1.2188 0-2.9953-2.6057-5.4375-5.8125-5.4375-3.2068,0-5.8125,2.4422-5.8125,5.4375 .0078,.3433 .0268,.7293 .0625,1.1562-.5075,.2707-.5777,1.3076-.125,2.375 .1746,.4116 .4157,.7604 .6562,1.0312 .008,.009 .0232,.0224 .0312,.0312 .0574,.282 .0868,.4944 .1562,.8125 .2151,.6459 1.0921,1.8618 1.875,2.9062 .0781,.8058 .0946,1.6147-.0625,2.5312-2.2534,1.871-8.0086,2.688-8,4.625l-.7812,5.0625c0,1.0318 1.5483,1.9554 4,2.5938l.3438,1.375a.8432,.8438 0 0,0 .5312,.5625c.1088,.0421 .1705,.1321 .4688,.2188 1.5711,.4565 3.9664,.7812 6.6562,.7812 2.5346,0 4.8044-.3042 6.375-.7188l.4062,1.6562a1.1242,1.1251 0 0,0 .6875,.75c.1451,.0562 .2586,.1657 .6562,.2812 2.0948,.6086 5.2885,1.0312 8.875,1.0312 3.5865,0 6.8115-.4226 8.9062-1.0312 .3977-.1155 .5112-.2251 .6562-.2812a1.1242,1.1251 0 0,0 .6562-.7188l.4688-1.6562c1.5665,.4086 3.8001,.6875 6.3125,.6875 2.6899,0 5.1164-.3248 6.6875-.7812 .2982-.0867 .3599-.1766 .4688-.2188a.8432,.8438 0 0,0 .5-.5312l.4375-1.4375c2.3918-.6374 3.9062-1.5452 3.9062-2.5625l-.7812-5.0625c-.0092-1.6578-5.8054-2.688-8.0312-4.625-.0901-.742-.0771-1.4879-.0312-2.2188 .7118-1.0988 1.6368-2.5037 1.875-3.2188 .0875-.3703 .1195-.6195 .1875-.9375 .2102-.2571 .4073-.5716 .5625-.9375 .4299-1.0137 .3756-1.9834-.0625-2.3125 .0306-.4404 .081-.8423 .0938-1.2188 0-2.9953-2.6057-5.4375-5.8125-5.4375-3.2068,0-5.8125,2.4422-5.8125,5.4375 .0078,.3433 .0268,.7293 .0625,1.1562-.5075,.2707-.5777,1.3076-.125,2.375 .1746,.4116 .4157,.7604 .6562,1.0312 .008,.009 .0232,.0224 .0312,.0312 .0574,.282 .0868,.4944 .1562,.8125 .2151,.6459 1.0921,1.8618 1.875,2.9062 .0781,.8058 .0946,1.6147-.0625,2.5312-.6433,.5342-1.563,.9593-2.5625,1.375-2.4109-1.0173-5.3709-2.0783-6.9688-3.4688-.1202-.9893-.1237-1.9631-.0625-2.9375 .9491-1.4651 2.2137-3.3278 2.5312-4.2812 .1167-.4938 .1594-.826 .25-1.25 .2803-.3428 .5431-.7622 .75-1.25 .5732-1.3516 .5217-2.6549-.0625-3.0938 .0408-.5873 .0767-1.1543 .0938-1.6562 0-3.9938-3.4742-7.2188-7.75-7.2188zm0,1.1562c3.6794,0 6.5755,2.7261 6.5938,6.0312 .0001,.0105 0,.0207 0,.0312-.0166,.4701-.054,.9913-.0938,1.5625a1.1629,1.1629 0 0,0 .4062,1c-.0213-.0066 .0559,.0875 .0625,.3438 .0089,.3416-.0832,.8344-.3125,1.375-.1622,.3824-.3821,.7098-.5938,.9688a1.1629,1.1629 0 0,0 -.2188,.5c-.0931,.4353-.1313,.7353-.2188,1.125-.0075,.0334-.023,.0589-.0312,.0938-.1067,.2825-.4697,.9184-.9062,1.625-.4593,.7435-.9883,1.5709-1.4688,2.3125a1.1629,1.1629 0 0,0 -.1875,.5625c-.0644,1.0255-.0683,2.0477 .0625,3.125a1.1629,1.1629 0 0,0 .4062,.75c1.9133,1.665 4.9176,2.6589 7.2812,3.6562a1.1629,1.1629 0 0,0 .875,0c1.0256-.4265 2.0459-.8429 2.875-1.5312a1.1629,1.1629 0 0,0 .4062-.7188c.1786-1.0422 .1463-1.9793 .0625-2.8438a1.1629,1.1629 0 0,0 -.2188-.5625c-.3866-.5157-.8028-1.0799-1.125-1.5625-.3149-.4716-.558-.904-.5938-1-.0008-.0022 .0006-.0294 0-.0312-.0436-.2169-.0707-.3897-.125-.6562a1.1629,1.1629 0 0,0 -.2812-.5625c-.0117-.0127 .0088-.0208 0-.0312-.1676-.1887-.3523-.4441-.4688-.7188-.1651-.3892-.1989-.7384-.1875-.9375 .0019-.0324 .0072-.0546 0-.0625a1.1629,1.1629 0 0,0 .4062-1c-.0327-.3918-.0549-.7492-.0625-1.0625 0-.0104-.0001-.0209 0-.0312 .0181-2.3072 2.0515-4.25 4.6562-4.25 2.6047,0 4.6381,1.9427 4.6562,4.25 .0001,.0104 0,.0208 0,.0312-.0119,.298-.0613,.6583-.0938,1.125a1.1629,1.1629 0 0,0 .3438,.9062c-.007-.0061-.0036,.025 0,.125 .0071,.1999-.0315,.5383-.1875,.9062-.1105,.2605-.2647,.4831-.4062,.6562a1.1629,1.1629 0 0,0 -.2188,.5c-.0701,.3277-.0969,.5427-.1562,.8125-.007,.032-.0233,.06-.0312,.0938-.0728,.1839-.3134,.6418-.625,1.1562-.3347,.5526-.7358,1.1662-1.0938,1.7188a1.1629,1.1629 0 0,0 -.1875,.5625c-.0481,.7665-.0717,1.5584 .0312,2.4062a1.1629,1.1629 0 0,0 .4062,.75c1.4129,1.2296 3.4557,1.9295 5.1562,2.625 .8503,.3477 1.6053,.6847 2.0625,.9688 .2101,.1305 .3499,.2221 .4062,.2812a1.1629,1.1629 0 0,0 0,.0625l.75,4.9062c-.0026-.0343-.0186,.098-.5,.4062-.5143,.3293-1.4091,.701-2.5312,1a1.1629,1.1629 0 0,0 -.8125,.7812l-.4062,1.3125c-.0155,.0181-.1212,.0745-.1875,.0938-1.405,.4082-3.7787,.75-6.375,.75-2.4263,0-4.6009-.2832-6.0312-.6562a1.1629,1.1629 0 0,0 -1.4062,.8125l-.4375,1.5938v.0312h-.0312c-.2784,.1177-.2646,.1504-.5,.2188-1.9262,.5597-5.0986,1-8.5938,1-3.4952,0-6.6333-.4395-8.5625-1-.2478-.072-.1973-.0828-.5312-.2188-.0074-.003 .0078-.0281 0-.0312l-.4062-1.5938a1.1629,1.1629 0 0,0 -1.4062-.8438c-1.439,.3798-3.6522,.6875-6.0938,.6875-2.5963,0-4.9348-.3406-6.3438-.75-.0794-.0231-.1719-.0923-.2188-.125l-.3125-1.1875a1.1629,1.1629 0 0,0 -.8438-.8438c-1.1513-.2998-2.0329-.6643-2.5625-1-.4978-.3156-.5283-.4705-.5312-.4375l.75-4.9062a1.1629,1.1629 0 0,0 0-.1562c.0127-.008 .0811-.1294 .4062-.3438 .4335-.2859 1.1933-.606 2.0312-.9375 1.6759-.663 3.7192-1.2756 5.1562-2.4688a1.1629,1.1629 0 0,0 .4062-.7188c.1786-1.0422 .1463-1.9793 .0625-2.8438a1.1629,1.1629 0 0,0 -.2188-.5625c-.3866-.5157-.8028-1.0799-1.125-1.5625-.3149-.4716-.558-.904-.5938-1-.0008-.0022 .0006-.0294 0-.0312-.0435-.2169-.0707-.3897-.125-.6562a1.1629,1.1629 0 0,0 -.2812-.5625c-.0116-.0127 .0088-.0208 0-.0312-.1676-.1887-.3523-.4441-.4688-.7188-.1651-.3892-.1989-.7384-.1875-.9375 .0019-.0324 .0072-.0546 0-.0625a1.1629,1.1629 0 0,0 .4062-1c-.0327-.3918-.0548-.7492-.0625-1.0625 0-.0104-.0001-.0209 0-.0312 .0181-2.3072 2.0515-4.25 4.6562-4.25 2.6047,0 4.6381,1.9427 4.6562,4.25 .0001,.0104 0,.0208 0,.0312-.0119,.298-.0613,.6583-.0938,1.125a1.1629,1.1629 0 0,0 .3438,.9062c-.007-.0061-.0036,.025 0,.125 .0071,.1999-.0314,.5383-.1875,.9062-.1105,.2605-.2647,.4831-.4062,.6562a1.1629,1.1629 0 0,0 -.2188,.5c-.0701,.3277-.0969,.5427-.1562,.8125-.007,.032-.0233,.06-.0312,.0938-.0728,.1839-.3134,.6418-.625,1.1562-.3347,.5526-.7358,1.1662-1.0938,1.7188a1.1629,1.1629 0 0,0 -.1875,.5625c-.0481,.7665-.0717,1.5584 .0312,2.4062a1.1629,1.1629 0 0,0 .4062,.75c.7174,.6243 1.5692,1.1033 2.5,1.5312a1.1629,1.1629 0 0,0 .9688,0c2.366-1.004 5.5343-1.9097 7.5625-3.5938a1.1629,1.1629 0 0,0 .4062-.7188c.2293-1.3381 .204-2.518 .0938-3.6562a1.1629,1.1629 0 0,0 -.2188-.5625c-.5204-.6943-1.0863-1.4384-1.5312-2.0938-.445-.6554-.7849-1.292-.8438-1.4688-.0695-.3304-.1165-.5887-.1875-.9375a1.1629,1.1629 0 0,0 -.25-.5625c-.0838-.092-.0966-.1046-.0312-.0312-.2478-.279-.5128-.6506-.6875-1.0625-.2407-.5675-.3307-1.1195-.3125-1.4688 .0091-.1746 .0481-.2571 .0625-.2812a1.1629,1.1629 0 0,0 .5-1.0625c-.0421-.5045-.0523-1.0066-.0625-1.4688 0-.0105-.0001-.0207 0-.0312 .0183-3.3052 2.9144-6.0312 6.5938-6.0312z"/>
<path opacity=".5" fill="#fff" d="m55.7188,34.6562c-.0192,.3923-.0325,.7867-.0625,1.2188 .0223,.0168 .0417,.0432 .0625,.0625 .0133-.2385 .0239-.5011 .0312-.7188 0-.1873-.0162-.3788-.0312-.5625zm-15.4375,.0625c-.0119,.1637-.0312,.3334-.0312,.5 .0039,.174 .0263,.3997 .0312,.5938 .0125-.0077 .0183-.0243 .0312-.0312-.0323-.387-.0233-.7206-.0312-1.0625zm15.7812,2.9062c-.0538,.4175-.1482,.8827-.3438,1.3438-.2069,.4878-.4697,.9072-.75,1.25-.0906,.424-.1333,.7562-.25,1.25-.3176,.9535-1.5822,2.8161-2.5312,4.2812-.0358,.5705-.0189,1.1455 0,1.7188 .0065-.2385-.015-.4804 0-.7188 .9491-1.4651 2.2137-3.3278 2.5312-4.2812 .1167-.4938 .1594-.826 .25-1.25 .2803-.3428 .5431-.7622 .75-1.25 .372-.8772 .4729-1.7303 .3438-2.3438zm-16.2812,.0312c-.1078,.6175 .0156,1.4651 .375,2.3125 .2327,.5488 .5542,1.0138 .875,1.375 .0107,.012 .0205,.0194 .0312,.0312 .0766,.376 .1262,.6696 .2188,1.0938 .2869,.8613 1.4874,2.4823 2.5312,3.875 .02,.207 .0502,.4186 .0625,.625 .0103-.5489-.0104-1.0878-.0625-1.625-1.0439-1.3927-2.2444-3.0137-2.5312-3.875-.0926-.4242-.1422-.7177-.2188-1.0938-.0108-.0118-.0206-.0192-.0312-.0312-.3208-.3612-.6423-.8262-.875-1.375-.1915-.4516-.3188-.8976-.375-1.3125zm-3,2.7188c-.0207,.2541-.0429,.4988-.0625,.7812 .0219,.0165 .0425,.0429 .0625,.0625 .0063-.09 .0283-.1942 .0312-.2812 0-.1872-.0114-.3801-.0312-.5625zm34,0c-.0208,.2541-.0429,.4988-.0625,.7812 .0219,.0165 .0425,.0429 .0625,.0625 .0063-.09 .0283-.1942 .0312-.2812 0-.1872-.0114-.3801-.0312-.5625zm-45.5625,.0625c-.0158,.1627-.0312,.3335-.0312,.5 .0013,.0555-.0019,.1298 0,.1875 .0201-.0143 .0408-.0197 .0625-.0312-.0202-.2422-.0207-.4407-.0312-.6562zm34,0c-.0157,.1627-.0312,.3335-.0312,.5 .0013,.0555-.0019,.1298 0,.1875 .0201-.0143 .0408-.0197 .0625-.0312-.0202-.2422-.0207-.4407-.0312-.6562zm-34.3438,2.25c-.1047,.4637-.0329,1.1141 .25,1.7812 .1746,.4116 .4157,.7604 .6562,1.0312 .008,.009 .0232,.0224 .0312,.0312 .0574,.282 .0868,.4944 .1562,.8125 .2151,.6459 1.0921,1.8618 1.875,2.9062 .024,.2478 .0221,.4986 .0312,.75 .0448-.6054 .0236-1.184-.0312-1.75-.7829-1.0445-1.6599-2.2603-1.875-2.9062-.0695-.3181-.0988-.5305-.1562-.8125-.0081-.0088-.0233-.0222-.0312-.0312-.2406-.2709-.4817-.6197-.6562-1.0312-.1132-.2669-.2008-.5297-.25-.7812zm34,0c-.1047,.4637-.0329,1.1141 .25,1.7812 .1746,.4116 .4157,.7604 .6562,1.0312 .008,.009 .0232,.0224 .0312,.0312 .0574,.282 .0868,.4944 .1562,.8125 .2151,.6459 1.0921,1.8618 1.875,2.9062 .024,.2478 .0221,.4986 .0312,.75 .0448-.6054 .0236-1.184-.0312-1.75-.7829-1.0445-1.6599-2.2603-1.875-2.9062-.0695-.3181-.0988-.5305-.1562-.8125-.0081-.0088-.0232-.0222-.0312-.0312-.2406-.2709-.4817-.6197-.6562-1.0312-.1132-.2669-.2009-.5297-.25-.7812zm-21.875,.0312c-.0485,.2386-.1113,.4966-.2188,.75-.1552,.3659-.3523,.6804-.5625,.9375-.068,.318-.1,.5672-.1875,.9375-.2382,.7151-1.1632,2.1199-1.875,3.2188-.03,.4773-.0177,.9526 0,1.4375 .006-.1471-.0092-.2915 0-.4375 .7118-1.0988 1.6368-2.5037 1.875-3.2188 .0875-.3703 .1195-.6195 .1875-.9375 .2102-.2571 .4073-.5716 .5625-.9375 .2808-.6621 .3231-1.2917 .2188-1.75zm34,0c-.0485,.2386-.1113,.4966-.2188,.75-.1552,.3659-.3523,.6804-.5625,.9375-.068,.318-.1,.5672-.1875,.9375-.2382,.7151-1.1632,2.1199-1.875,3.2188-.03,.4773-.0177,.9526 0,1.4375 .006-.1471-.0092-.2915 0-.4375 .7118-1.0988 1.6368-2.5037 1.875-3.2188 .0875-.3703 .1195-.6195 .1875-.9375 .2102-.2571 .4073-.5716 .5625-.9375 .2808-.6621 .3231-1.2917 .2188-1.75zm-51.9062,18.1562-.0938,.5938c0,1.0318 1.5483,1.9554 4,2.5938l.3438,1.375a.8432,.8438 0 0,0 .5312,.5625c.1088,.0421 .1705,.1321 .4688,.2188 1.5711,.4565 3.9664,.7812 6.6562,.7812 2.5346,0 4.8044-.3042 6.375-.7188l.4062,1.6562a1.1242,1.1251 0 0,0 .6875,.75c.1451,.0562 .2586,.1657 .6562,.2812 2.0948,.6086 5.2885,1.0312 8.875,1.0312 3.5865,0 6.8115-.4226 8.9062-1.0312 .3977-.1155 .5112-.2251 .6562-.2812a1.1242,1.1251 0 0,0 .6562-.7188l.4688-1.6562c1.5665,.4086 3.8001,.6875 6.3125,.6875 2.6899,0 5.1164-.3248 6.6875-.7812 .2982-.0867 .3599-.1766 .4688-.2188a.8432,.8438 0 0,0 .5-.5312l.4375-1.4375c2.3918-.6374 3.9062-1.5452 3.9062-2.5625l-.0938-.5938c-.3484,.8491-1.7491,1.6064-3.8125,2.1562l-.4375,1.4375a.8432,.8438 0 0,1 -.5,.5312c-.1088,.0421-.1705,.1321-.4688,.2188-1.5711,.4565-3.9976,.7812-6.6875,.7812-2.5124,0-4.746-.2789-6.3125-.6875l-.4688,1.6562a1.1242,1.1251 0 0,1 -.6562,.7188c-.1451,.0562-.2586,.1657-.6562,.2812-2.0948,.6086-5.3197,1.0312-8.9062,1.0312-3.5865,0-6.7802-.4226-8.875-1.0312-.3977-.1155-.5112-.225-.6562-.2812a1.1242,1.1251 0 0,1 -.6875-.75l-.4062-1.6562c-1.5706,.4145-3.8404,.7188-6.375,.7188-2.6899,0-5.0852-.3248-6.6562-.7812-.2982-.0867-.3599-.1766-.4688-.2188a.8432,.8438 0 0,1 -.5312-.5625l-.3438-1.375c-2.1151-.5507-3.5499-1.3259-3.9062-2.1875z"/>
</svg>
