<svg xmlns="http://www.w3.org/2000/svg" viewBox="0 0 96 96" xmlns:xlink="http://www.w3.org/1999/xlink">
<defs>
<clipPath id="clipPath3613">
<path fill="#fff" d="m12,6h72a6,6 0 0,1 6,6v72a6,6 0 0,1 -6,6h-72a6,6 0 0,1 -6-6v-72a6,6 0 0,1 6-6"/>
</clipPath>
<filter width="1.384" x="-.192" y="-.192" height="1.384" color-interpolation-filters="sRGB" id="filter3794">
<feGaussianBlur stdDeviation="5.28"/>
</filter>
<linearGradient gradientTransform="matrix(1 0 0 -1 0 97)" id="linearGradient3721" xlink:href="#ButtonShadow-0" y1="6.132" y2="90.239" x2="0" gradientUnits="userSpaceOnUse"/>
<linearGradient gradientTransform="translate(90)" id="linearGradient3711" xlink:href="#linearGradient3705" y1="80" x1="72" y2="8" x2="32" gradientUnits="userSpaceOnUse"/>
<linearGradient gradientTransform="matrix(.97368 0 0 .97368 1.26316 1.2633)" id="linearGradient3686" xlink:href="#linearGradient3680" y1="69.246" y2="13.155" x2="0" gradientUnits="userSpaceOnUse"/>
<linearGradient gradientTransform="translate(90)" id="linearGradient3719" xlink:href="#linearGradient3705" y1="80" x1="72" y2="16" x2="32" gradientUnits="userSpaceOnUse"/>
<linearGradient gradientTransform="matrix(.97368 0 0 .97368 1.26316 1.2633)" id="linearGradient3791" xlink:href="#linearGradient3785" y1="40" x1="48" y2="87.004" x2="60.595" gradientUnits="userSpaceOnUse"/>
<linearGradient gradientTransform="translate(100)" id="linearGradient4205" xlink:href="#linearGradient4199" y1="51.297" x1="47.475" y2="-22.609" x2="45.963" gradientUnits="userSpaceOnUse"/>
<linearGradient gradientTransform="matrix(1.00587 0 0 .99417 100 0)" id="ButtonShadow-0" y1="92.54" y2="7.017" x2="0" gradientUnits="userSpaceOnUse">
<stop offset="0"/>
<stop offset="1" stop-opacity=".588"/>
</linearGradient>
<linearGradient gradientTransform="matrix(1.02381 0 0 -1.0119 -1.14286 98.07143)" id="linearGradient3847" xlink:href="#ButtonShadow-0" y1="6.132" y2="90.239" x2="0" gradientUnits="userSpaceOnUse"/>
<linearGradient gradientTransform="matrix(0 -1 -1 0 33 33)" id="linearGradient3822" xlink:href="#linearGradient3816" x1="10" x2="23" gradientUnits="userSpaceOnUse"/>
<linearGradient id="linearGradient3812" xlink:href="#linearGradient3953" y1="90" y2="5.988" x2="0" gradientUnits="userSpaceOnUse"/>
<linearGradient gradientTransform="matrix(0 1 -1 0 33 0)" id="linearGradient3830" xlink:href="#linearGradient3816" x1="10" x2="23" gradientUnits="userSpaceOnUse"/>
<linearGradient id="linearGradient4432">
<stop offset="0" stop-color="#e7b67d" stop-opacity=".714"/>
<stop offset="1" stop-color="#e2ac6e"/>
</linearGradient>
<linearGradient id="linearGradient3785">
<stop offset="0" stop-color="#b77223"/>
<stop offset="1" stop-color="#b27024"/>
</linearGradient>
<linearGradient id="linearGradient3816">
<stop offset="0" stop-color="#e9e9e9"/>
<stop offset="1" stop-color="#828282"/>
</linearGradient>
<linearGradient id="linearGradient4199">
<stop offset="0" stop-color="#fff"/>
<stop offset="1" stop-color="#fff" stop-opacity="0"/>
</linearGradient>
<linearGradient id="linearGradient3953">
<stop offset="0" stop-color="#d78a26"/>
<stop offset="1" stop-color="#eaac5e"/>
</linearGradient>
<linearGradient id="linearGradient3705">
<stop offset="0" stop-color="#305388"/>
<stop offset="1" stop-color="#7e9fd2"/>
</linearGradient>
<linearGradient gradientTransform="matrix(.97368 0 0 .97368 1.26316 1.2633)" id="linearGradient4430" xlink:href="#linearGradient4432" y1="9.966" y2="85.237" x2="0" gradientUnits="userSpaceOnUse"/>
<linearGradient id="linearGradient3188" xlink:href="#linearGradient3737" y1="6" y2="63.893" x2="0" gradientUnits="userSpaceOnUse"/>
<linearGradient id="linearGradient3613" xlink:href="#linearGradient3737" y1="20.221" y2="138.661" x2="0" gradientUnits="userSpaceOnUse"/>
<linearGradient id="linearGradient3737">
<stop offset="0" stop-color="#fff"/>
<stop offset="1" stop-color="#fff" stop-opacity="0"/>
</linearGradient>
<linearGradient id="linearGradient3680">
<stop offset="0" stop-color="#ebebeb"/>
<stop offset="1" stop-color="#fff"/>
</linearGradient>
<radialGradient cx="48" cy="90.172" gradientTransform="matrix(1.15731 0 0 .99591 -7.55102 .19713)" r="42" id="radialGradient3619" xlink:href="#linearGradient3737" gradientUnits="userSpaceOnUse"/>
</defs>
<path opacity=".08" fill="url(#linearGradient3847)" d="m12,3.9375c-5.5276,0-10.0625,4.5349-10.0625,10.0625v71c0,5.5276 4.5349,10.0625 10.0625,10.0625h72c5.5276,0 10.0625-4.5349 10.0625-10.0625v-71c0-5.5276-4.5349-10.0625-10.0625-10.0625h-72zm3.75,12.1875c.9535,0 1.5312,.6007 1.5312,1.5 0,.8993-.5778,1.5-1.5312,1.5-.9535,0-1.5312-.6007-1.5312-1.5 0-.8993 .5778-1.5 1.5312-1.5z"/>
<path opacity=".1" fill="url(#linearGradient3847)" d="m12,5.0938c-4.9036,0-8.9062,4.0027-8.9062,8.9062v71c0,4.9036 4.0027,8.9062 8.9062,8.9062h72c4.9036,0 8.9062-4.0027 8.9062-8.9062v-71c0-4.9036-4.0027-8.9062-8.9062-8.9062h-72zm3.75,9.875c1.5343,0 2.6875,1.1655 2.6875,2.6562 0,1.4907-1.1532,2.6562-2.6875,2.6562-1.5343,0-2.6875-1.1655-2.6875-2.6562 0-1.4907 1.1532-2.6562 2.6875-2.6562z"/>
<path opacity=".2" fill="url(#linearGradient3847)" d="m12,5.9375c-4.444,0-8.0625,3.6185-8.0625,8.0625v71c0,4.444 3.6185,8.0625 8.0625,8.0625h72c4.444,0 8.0625-3.6185 8.0625-8.0625v-71c0-4.444-3.6185-8.0625-8.0625-8.0625h-72zm3.75,8.1875c1.9787,0 3.5312,1.558 3.5312,3.5 0,1.942-1.5526,3.5-3.5312,3.5-1.9787,0-3.5312-1.558-3.5312-3.5 0-1.942 1.5526-3.5 3.5312-3.5z"/>
<path opacity=".3" fill="url(#linearGradient3847)" d="m12,7c-3.878,0-7,3.122-7,7v71c0,3.878 3.122,7 7,7h72c3.878,0 7-3.122 7-7v-71c0-3.878-3.122-7-7-7h-72zm3.75,6.0625c2.5445,0 4.5938,2.0476 4.5938,4.5625 0,2.5149-2.0493,4.5625-4.5938,4.5625-2.5445,0-4.5938-2.0476-4.5938-4.5625 0-2.5149 2.0493-4.5625 4.5938-4.5625z"/>
<path opacity=".45" fill="url(#linearGradient3721)" d="m12,7c-3.324,0-6,2.676-6,6v72c0,3.324 2.676,6 6,6h72c3.324,0 6-2.676 6-6v-72c0-3.324-2.676-6-6-6h-72zm4.5,6c2.4853,0 4.5,2.0147 4.5,4.5 0,2.4853-2.0147,4.5-4.5,4.5-2.4853,0-4.5-2.0147-4.5-4.5 0-2.4853 2.0147-4.5 4.5-4.5z"/>
<path fill="url(#linearGradient3812)" d="m12,6c-3.324,0-6,2.676-6,6v72c0,3.324 2.676,6 6,6h72c3.324,0 6-2.676 6-6v-72c0-3.324-2.676-6-6-6h-72zm4.5,4c3.5899,0 6.5,2.9101 6.5,6.5 0,3.5899-2.9101,6.5-6.5,6.5-3.5899,0-6.5-2.9101-6.5-6.5 0-3.5899 2.9101-6.5 6.5-6.5z"/>
<path opacity=".4" fill="url(#linearGradient3188)" d="m12,6c-3.324,0-6,2.676-6,6v2 68 2c0,.3347 .0413,.6507 .0938,.9688 .0487,.2956 .097,.5969 .1875,.875 .0099,.0304 .0209,.0636 .0312,.0938 .0989,.2878 .2349,.5475 .375,.8125 .1446,.2735 .3156,.5356 .5,.7812 .1844,.2456 .3738,.4735 .5938,.6875 .4399,.4281 .9429,.8145 1.5,1.0938 .2785,.1396 .5735,.2469 .875,.3438-.2562-.1002-.4867-.2363-.7188-.375-.0074-.0044-.0239,.0045-.0312,0-.0319-.0193-.0623-.0425-.0938-.0625-.1204-.0767-.231-.1635-.3438-.25-.1062-.0808-.2133-.1611-.3125-.25-.1779-.1614-.3475-.3454-.5-.5312-.1076-.1303-.2184-.2653-.3125-.4062-.0251-.0384-.0384-.0859-.0625-.125-.0648-.103-.1302-.2045-.1875-.3125-.101-.1947-.2057-.4157-.2812-.625-.008-.0218-.0236-.0405-.0312-.0625-.0318-.0919-.0358-.1868-.0625-.2812-.0303-.1066-.0704-.203-.0938-.3125-.0729-.3415-.125-.6982-.125-1.0625v-2-68-2c0-2.7818 2.2182-5 5-5h2 68 2c2.7818,0 5,2.2182 5,5v2 68 2c0,.3643-.0521,.721-.125,1.0625-.0442,.2069-.0884,.3977-.1562,.5938-.0077,.022-.0233,.0407-.0312,.0625-.0627,.1737-.1384,.3674-.2188,.5312-.0416,.0828-.079,.17-.125,.25-.0546,.0972-.1268,.1883-.1875,.2812-.0941,.141-.2049,.276-.3125,.4062-.1432,.1744-.3031,.347-.4688,.5-.0112,.0102-.02,.0212-.0312,.0312-.1384,.1256-.2851,.2344-.4375,.3438-.1026,.0731-.2043,.1534-.3125,.2188-.0074,.0045-.0238-.0044-.0312,0-.232,.1387-.4625,.2748-.7188,.375 .3015-.0968 .5965-.2041 .875-.3438 .5571-.2792 1.0601-.6657 1.5-1.0938 .22-.214 .4094-.4419 .5938-.6875 .1844-.2456 .3554-.5077 .5-.7812 .1401-.265 .2761-.5247 .375-.8125 .0104-.0308 .0213-.0627 .0312-.0938 .0905-.2781 .1388-.5794 .1875-.875 .0524-.318 .0938-.634 .0938-.9688v-2-68-2c0-3.324-2.676-6-6-6h-72z"/>
<path opacity=".2" fill="url(#radialGradient3619)" d="m12,90c-3.324,0-6-2.676-6-6v-2-68-2c0-.3347 .0413-.6507 .0938-.9688 .0487-.2956 .097-.5969 .1875-.875 .0099-.0304 .0209-.0636 .0312-.0938 .0989-.2878 .2349-.5475 .375-.8125 .1446-.2735 .3156-.5356 .5-.7812 .1844-.2456 .3738-.4735 .5938-.6875 .4399-.4281 .9429-.8145 1.5-1.0938 .2785-.1396 .5735-.2469 .875-.3438-.2562,.1002-.4867,.2363-.7188,.375-.0074,.0044-.0239-.0045-.0312,0-.0319,.0193-.0623,.0425-.0938,.0625-.1204,.0767-.231,.1635-.3438,.25-.1062,.0808-.2133,.1611-.3125,.25-.1779,.1614-.3475,.3454-.5,.5312-.1076,.1303-.2184,.2653-.3125,.4062-.0251,.0384-.0384,.0859-.0625,.125-.0648,.103-.1302,.2045-.1875,.3125-.101,.1947-.2057,.4157-.2812,.625-.008,.0218-.0236,.0405-.0312,.0625-.0318,.092-.0358,.1868-.0625,.2812-.0303,.1066-.0704,.203-.0938,.3125-.0729,.3415-.125,.6982-.125,1.0625v2 68 2c0,2.7818 2.2182,5 5,5h2 68 2c2.7818,0 5-2.2182 5-5v-2-68-2c0-.3643-.0521-.721-.125-1.0625-.0442-.2069-.0884-.3977-.1562-.5938-.0077-.022-.0233-.0407-.0312-.0625-.0627-.1737-.1384-.3674-.2188-.5312-.0416-.0828-.079-.17-.125-.25-.0546-.0972-.1268-.1883-.1875-.2812-.0941-.141-.2049-.276-.3125-.4062-.1432-.1745-.3031-.347-.4688-.5-.0112-.0102-.02-.0211-.0312-.0312-.1384-.1256-.2851-.2344-.4375-.3438-.1026-.0732-.2043-.1534-.3125-.2188-.0074-.0045-.0238,.0044-.0312,0-.232-.1387-.4625-.2748-.7188-.375 .3015,.0968 .5965,.2041 .875,.3438 .5571,.2792 1.0601,.6657 1.5,1.0938 .22,.214 .4094,.4419 .5938,.6875 .1844,.2456 .3554,.5077 .5,.7812 .1401,.265 .2761,.5247 .375,.8125 .0104,.0308 .0213,.0627 .0312,.0938 .0905,.2781 .1388,.5794 .1875,.875 .0524,.318 .0938,.634 .0938,.9688v2 68 2c0,3.324-2.676,6-6,6h-72z"/>
<g color="#000">
<path fill="url(#linearGradient3686)" d="m28.5263,12.9475 0,3.8947c0,5.9153-4.7953,10.7105-10.7105,10.7105h-4.8684v51.6052c0,2.1577 1.7371,3.8947 3.8947,3.8947h62.3158c2.1577,0 3.8947-1.737 3.8947-3.8947v-62.3157c0-2.1577-1.7371-3.8947-3.8947-3.8947h-50.6316z"/>
<path opacity=".4" d="m116,12h64a4,4 0 0,1 4,4v64a4,4 0 0,1 -4,4h-64a4,4 0 0,1 -4-4v-64a4,4 0 0,1 4-4"/>
<path opacity=".4" d="m112,1 0,5.1875c-2.386,1.2184-4.2351,3.2981-5.2188,5.8125h-5.7812v15h16c6.0751,0 11-4.9249 11-11v-15h-16z"/>
<path opacity=".4" d="m184,1 0,5.1875c2.386,1.2184 4.2351,3.2981 5.2188,5.8125h5.7812v15h-16c-6.0751,0-11-4.9249-11-11v-15h16z"/>
<path opacity=".4" d="m112,95 0-5.1875c-2.386-1.2184-4.2351-3.2981-5.2188-5.8125h-5.7812v-15h16c6.0751,0 11,4.9249 11,11v15h-16z"/>
<path opacity=".4" d="m184,95 0-5.1875c2.386-1.2184 4.2351-3.2981 5.2188-5.8125h5.7812v-15h-16c-6.0751,0-11,4.9249-11,11v15h16z"/>
<path opacity=".8" fill="url(#linearGradient3711)" d="m119.9688,13.9688 0,2.0312c0,7.1466-5.8221,12.9688-12.9688,12.9688h-3.0312v51.0312c0,1.1519 .8793,2.0312 2.0312,2.0312h64c1.1519,0 2.0312-.8793 2.0312-2.0312v-64c0-1.1519-.8793-2.0312-2.0312-2.0312h-50.0312zm2.0312,2.0312h48v64h-64v-49h1c8.2372,0 15-6.7628 15-15z"/>
<path fill="url(#linearGradient3719)" d="m123.75,17.9375c-.9448,8.0826-7.6004,14.4422-15.8125,14.9062v45.2188h60.125v-60.125h-44.3125zm.875,1.0938 42.3438,0 0,57.9375-57.9375,0 0-43.1875c7.9191-.916 14.2381-6.9635 15.5938-14.75z"/>
<path opacity=".6" fill="url(#linearGradient4205)" d="m128,12 0,4c0,6.0751-4.9249,11-11,11h-5v34.0312c13.5599-10.1569 34.4484-16.6562 57.875-16.6562 4.8355,0 9.5482,.2518 14.125,.7812v-29.1562c0-2.216-1.784-4-4-4h-52z"/>
<g fill="#a06e2c">
<path opacity=".1" d="m28.5263,12.9475 0,3.8947c0,5.9153-4.7953,10.7105-10.7105,10.7105h-4.8684v51.6052c0,2.1577 1.7371,3.8947 3.8947,3.8947h62.3158c2.1577,0 3.8947-1.737 3.8947-3.8947v-62.3157c0-2.1577-1.7371-3.8947-3.8947-3.8947h-50.6316zm2.0387,2.0386 48.5929,0c1.0555,0 1.8561,.8006 1.8561,1.8561v62.3157c0,1.0555-.8006,1.8561-1.8561,1.8561h-62.3158c-1.0555,0-1.8561-.8006-1.8561-1.8561v-49.5665h2.8298c7.0251,0 12.7492-5.724 12.7492-12.7492v-1.8561z"/>
<path opacity=".3" d="m28.5263,12.9475 0,3.8947c0,5.9153-4.7953,10.7105-10.7105,10.7105h-4.8684v51.6052c0,2.1577 1.7371,3.8947 3.8947,3.8947h62.3158c2.1577,0 3.8947-1.737 3.8947-3.8947v-62.3157c0-2.1577-1.7371-3.8947-3.8947-3.8947h-50.6316zm.9433,.9433 49.6883,0c1.6433,0 2.9515,1.3082 2.9515,2.9515v62.3157c0,1.6433-1.3082,2.9515-2.9515,2.9515h-62.3158c-1.6433,0-2.9515-1.3082-2.9515-2.9515v-50.6619h3.9252c6.4332,0 11.6538-5.2206 11.6538-11.6538v-2.9515z"/>
</g>
<path fill="url(#linearGradient4430)" d="m28.3438,11.0001a1.9573,1.9573 0 0,0 -1.7648,1.9474v3.8947c0,4.8576-3.9056,8.7631-8.7632,8.7631h-4.8684a1.9573,1.9573 0 0,0 -1.9474,1.9474v51.6052c0,3.2081 2.634,5.8421 5.8421,5.8421h62.3158c3.2081,0 5.8421-2.634 5.8421-5.8421v-62.3157c0-3.2081-2.634-5.8421-5.8421-5.8421h-50.6316a1.9573,1.9573 0 0,0 -.1826,0zm.1217,1.8865a.0661,.0661 0 0,1 .0304,0 .0661,.0661 0 0,1 .0304,0h50.6316c2.1931,0 3.9556,1.7625 3.9556,3.9556v62.3157c0,2.1931-1.7625,3.9556-3.9556,3.9556h-62.3158c-2.1931,0-3.9556-1.7625-3.9556-3.9556v-51.6052a.0661,.0661 0 0,1 0-.0304 .0661,.0661 0 0,1 .0304-.0304 .0661,.0661 0 0,1 .0304,0h4.8684c5.8796,0 10.6497-4.7701 10.6497-10.6497v-3.8947a.0661,.0661 0 0,1 0-.0304 .0661,.0661 0 0,1 0-.0304z"/>
<path fill="url(#linearGradient3791)" d="m28.3438,12.0347a.9158,.9158 0 0,0 -.7303,.9128v3.8947c0,5.4204-4.3773,9.7977-9.7977,9.7977h-4.8684a.9158,.9158 0 0,0 -.9128,.9128v51.6052c0,2.6491 2.1584,4.8076 4.8076,4.8076h62.3158c2.6491,0 4.8076-2.1584 4.8076-4.8076v-62.3157c0-2.6491-2.1584-4.8076-4.8076-4.8076h-50.6316a.9158,.9158 0 0,0 -.0913,0 .9158,.9158 0 0,0 -.0913,0zm.1826,.9128 50.6316,0c2.1577,0 3.8947,1.737 3.8947,3.8947v62.3157c0,2.1577-1.7371,3.8947-3.8947,3.8947h-62.3158c-2.1577,0-3.8947-1.737-3.8947-3.8947v-51.6052h4.8684c5.9153,0 10.7105-4.7953 10.7105-10.7105v-3.8947z"/>
<path opacity=".4" d="m21,16a5,5 0 1,1 -10,0 5,5 0 1,1 10,0z" transform="matrix(1.3 0 0 1.3 -34.3 -4.3)"/>
<path opacity=".3" fill="#ba782c" d="m23.9913,16.5c0-4.1373-3.354-7.4913-7.4913-7.4913-4.1373,0-7.4913,3.354-7.4913,7.4913 0,4.1373 3.354,7.4913 7.4913,7.4913 4.1373,0 7.4913-3.354 7.4913-7.4913zm-1.1525,0c0,3.5008-2.838,6.3388-6.3388,6.3388-3.5008,0-6.3388-2.838-6.3388-6.3388 0-3.5008 2.838-6.3388 6.3388-6.3388 3.5008,0 6.3388,2.838 6.3388,6.3388z"/>
<path fill="url(#linearGradient3822)" d="m23,16.5c0,3.5899-2.9101,6.5-6.5,6.5-3.5899,0-6.5-2.9101-6.5-6.5 0-3.5899 2.9101-6.5 6.5-6.5 3.5899,0 6.5,2.9101 6.5,6.5zm-2,0c0-2.4853-2.0147-4.5-4.5-4.5-2.4853,0-4.5,2.0147-4.5,4.5 0,2.4853 2.0147,4.5 4.5,4.5 2.4853,0 4.5-2.0147 4.5-4.5z"/>
<path fill="url(#linearGradient3830)" d="m23,16.5c0-3.5899-2.9101-6.5-6.5-6.5-3.5899,0-6.5,2.9101-6.5,6.5 0,3.5899 2.9101,6.5 6.5,6.5 3.5899,0 6.5-2.9101 6.5-6.5zm-1,0c0,3.0376-2.4624,5.5-5.5,5.5-3.0376,0-5.5-2.4624-5.5-5.5 0-3.0376 2.4624-5.5 5.5-5.5 3.0376,0 5.5,2.4624 5.5,5.5z"/>
<path fill="#ba772b" d="m10.0312,17.1562c-.0062,.1162-.0312,.226-.0312,.3438 0,3.5899 2.9101,6.5 6.5,6.5 3.5899,0 6.5-2.9101 6.5-6.5 0-.1178-.0251-.2275-.0312-.3438-.3329,3.2777-3.1033,5.8438-6.4688,5.8438-3.3655,0-6.1359-2.5661-6.4688-5.8438z"/>
</g>
<path fill="#333" d="m20.0625,42.6875c-.3662-.0022-.5608,.1466-.5625,.4375-.0004,.1163 .0466,.2018 .125,.2812 .0784,.0795 .1678,.1243 .2812,.125 .0962,.0005 .2038-.0086 .3438-.0312 .0612-.0152 .1588-.0321 .2812-.0312 .4459,.0023 .6598,.323 .6562,.9375l-.0312,4.9688c-.004,.6228-.2104,.9401-.6562,.9375-.0874-.0004-.1853-.0063-.2812-.0312-.1922-.0175-.2999-.0309-.3438-.0312-.271-.0015-.4046,.1399-.4062,.4062-.0018,.3002 .1635,.4352 .5312,.4375 .0088,.0001 .0501-.0001 .0938,0 .0438-.0105 .0899-.0002 .125,0 .788-.0437 1.5833-.0675 2.4062-.0625 .5426,.0033 1.1934,.0102 1.9375,.0312 .7438,.0217 1.0614,.0318 1,.0312 .2801,.0017 .4886,.0222 .5938,.0312 .21,.0178 .3723,.0305 .4688,.0312 .4025,.0025 .5913-.2033 .5938-.5938 .0009-.1163 .0093-.303 0-.5312-.0095-.2285-.0322-.3832-.0312-.5 .001-.1491 .0186-.3801 .0312-.6875 .0127-.3071-.0007-.5379 0-.6875 .0023-.3819-.1394-.5604-.4688-.5625-.312-.0019-.4666,.1581-.4688,.5312-.0008,.1248-.0135,.3177 0,.5625 .0138,.2448 .032,.4379 .0312,.5625-.0022,.3982-.1189,.6689-.3125,.8125-.1936,.1444-.546,.2218-1.0625,.2188l-1.7812-.0312c-.3592-.0022-.5917-.035-.6875-.0938-.131-.0835-.1805-.2617-.1875-.5938 .0007-.0913-.0242-.2885-.0312-.5625-.0073-.2242-.0006-.3984 0-.5312v-.7812c.0014-.2734 .0365-.449 .0938-.5312 .0573-.0828 .215-.1266 .4688-.125h.5938c.4985,.003 .7521,.2051 .75,.5625-.0007,.0915-.0088,.2002-.0312,.375-.0227,.1746-.0308,.3147-.0312,.4062-.0023,.3492 .1311,.5294 .4375,.5312 .3151,.0019 .467-.1378 .4688-.4375 .0006-.1081-.0063-.2543-.0312-.4375-.0336-.2248-.0542-.3708-.0625-.4375-.0343-.4246-.0322-.7399-.0312-.9062 .0017-.2912 .0109-.618 .0625-1 .0601-.449 .0936-.7144 .0938-.7812 .0021-.3577-.1577-.5296-.4688-.5312-.3107-.0021-.4667,.1676-.4688,.5-.0008,.1246 .0107,.2479 .0312,.4062 .0204,.1576 .0317,.3067 .0312,.4062-.0018,.3574-.2689,.5344-.8125,.5312h-.5312c-.1467-.0008-.2523-.0143-.3125-.0312-.1553-.0507-.2207-.2624-.2188-.5938v-.1562c.0003-.0498-.0006-.1342 0-.25 .0009-.116-.0004-.1837 0-.25v-.5625c.0024-.4087 .1858-.6609 .5625-.75 .1137-.0245 .4722-.0348 1.0938-.0312 .9446,.0058 1.5542,.0322 1.7812,.125 .3051,.1268 .4418,.5519 .4375,1.25v.6562c-.0024,.4407 .1577,.6544 .4688,.6562 .311,.0018 .4669-.1531 .4688-.4688 .0007-.1166-.0356-.2899-.0625-.5312-.0136-.1163-.0017-.3341 0-.625 .001-.2241 .0115-.4529 .0312-.7188 .0266-.3567 .0311-.59 .0312-.6562 .0021-.3827-.2029-.5599-.6562-.5625-.1132-.0004-.2667-.0072-.4062,0-.3924,.0214-.5952,.0318-.6562,.0312l-3.1562,.0625h-.125c.0874,.0004-.5363-.0344-1.8438-.125-.1221-.0093-.179,.0001-.1875,0zm51.5312,.0625c-1.1948-.0071-2.1322,.4007-2.8438,1.2188-.7114,.8188-1.0854,1.9331-1.0938,3.3125-.0079,1.2876 .3449,2.3233 1.0312,3.125 .6864,.8019 1.5895,1.2122 2.7188,1.2188 .901,.0055 1.6149-.2274 2.125-.6562 .1145-.0988 .2653-.2751 .4688-.5312-.0106,.1824-.0217,.3316-.0312,.4062l-.0312,.2812c-.0016,.2901 .1624,.4357 .4688,.4375 .3159,.0019 .4665-.1619 .4688-.5 .0007-.099-.0162-.2331-.0312-.4062-.0151-.1732-.0326-.3792-.0312-.5938l.0312-.9688c.005-.8082 .1788-1.2209 .5625-1.2188 .0266,.0001 .0811-.0001 .125,0 .0431,0 .0762,0 .0938,0 .0524,.0002 .114-.0006 .2188,0 .122,.0008 .2198-.0424 .3125-.125 .0916-.0826 .1558-.1647 .1562-.2812 .0015-.2749-.1818-.4355-.5312-.4375-.1315-.0005-.2384,.0154-.3438,.0312-.481,.0726-.9464,.1273-1.375,.125-.3324-.0021-.7619-.0475-1.3125-.125-.14-.0189-.2618-.0308-.375-.0312-.3587-.0022-.5606,.1466-.5625,.4375-.0016,.2826 .2044,.4038 .625,.4062 .0701,.0004 .1814,.007 .3125,0 .1316-.0075 .2426-.0001 .3125,0 .2533,.0013 .4311,.0432 .5312,.1562 .1002,.1135 .1269,.3106 .125,.5938-.0039,.6924-.1924,1.2206-.5625,1.5938-.3696,.3729-.8881,.5663-1.5625,.5625-.8755-.0055-1.5406-.318-2.0312-.9688-.4906-.6513-.7569-1.5634-.75-2.7188 .0062-1.0888 .2653-1.9417 .75-2.5625 .4837-.6206 1.1528-.9425 2-.9375 .6731,.0043 1.1982,.1957 1.5938,.5312 .3955,.3353 .597,.7694 .5938,1.3438v.375c-.0024,.4075 .1611,.6232 .4688,.625 .3254,.0021 .4664-.1881 .4688-.5625-.0005-.0746 0-.125 0-.125-.0393-.5157-.0633-.8419-.0625-1 .0007-.1994 .0313-.388 .0625-.5625l.0938-.5938c.0096-.0581 .0303-.1335 .0312-.25 .0016-.3575-.1528-.5606-.4688-.5625-.2896-.0018-.4357,.1316-.4375,.4062 .0003,.0168 .0162,.1148 .0312,.2812-.0002,.0168-.0057,.102 .0312,.2188-.7074-.628-1.4971-.9639-2.375-.9688zm-20.9062,.125c-.3319-.0018-.4977,.1511-.5,.5 .0004-.0665 .0053,.122 .0312,.5625 .0134,.2247 .0013,.4487 0,.6562-.0003,.1081-.0073,.3513-.0312,.75-.0233,.2659-.0307,.4547-.0312,.5625-.0026,.3824 .1764,.5917 .5,.5938 .3412,.002 .497-.2577 .5-.7812 .0008-.1331 .0088-.2376 0-.3125l-.0625-.4688c-.0083-.0749-.0011-.2294 0-.4375 .0036-.5813 .3077-.8787 .9375-.875l.4062,.0312c.6377,.004 .9721,.285 .9688,.875l-.0312,2.0312v1.0625 1.0938 .875c-.004,.623-.2509,.9402-.6875,.9375-.0702-.0002-.1724-.0098-.3125-.0312-.1399-.0209-.2426-.0308-.3125-.0312-.2796-.0016-.4042,.1086-.4062,.375-.0017,.2906 .1775,.4355 .5625,.4375 .0175,.0002 .0502,.0309 .0938,.0312 .0347-.0083 .0672-.0316 .0938-.0312l.6562-.0938c.2541-.0322 .5423-.0333 .875-.0312 .3061,.0015 .5991,.0275 .8438,.0625l.625,.0938c.0175,.0002 .0495-.0089 .0938,0 .0346,.0002 .0762-.0002 .0938,0 .394,.0024 .5919-.1466 .5938-.4375 .0003-.1081-.0423-.2015-.125-.2812-.083-.0793-.199-.1243-.3125-.125-.0704-.0002-.1723,.0117-.3125,.0312-.1405,.0198-.2426,.0319-.3125,.0312-.4466-.0029-.66-.3142-.6562-.9375l.0312-4.2188 .0625-.875c.019-.2992 .0782-.5281 .2188-.6562 .1406-.1279 .3954-.1895 .7188-.1875h.3438c.6899,.0039 1.0344,.2989 1.0312,.875-.0011,.1503-.0047,.3599-.0312,.6562-.0263,.2963-.0301,.5372-.0312,.6875-.0026,.4178 .1379,.623 .4688,.625 .3399,.0021 .5294-.1593 .5312-.5 .0008-.0828-.0318-.3068-.0625-.6562-.0251-.266-.0318-.4689-.0312-.5938v-.125c.0269-.2573 .0711-.4941 .0938-.7188 .0231-.2238 .0307-.3855 .0312-.4688v-.0312c.0022-.3404-.2197-.4973-.6562-.5-.2009-.0011-.4858,.0115-.8438,.0312-.4016,.0198-.6779,.0321-.8438,.0312-.7595,.0101-1.2314,.001-1.4062,0h-1.5c-.672-.0364-1.0187-.0622-1.0625-.0625-.4452-.0293-.7218-.0304-.8438-.0312zm11.8438,0c-.4108-.0023-.6704,.1819-.8125,.5312l-2.5,6.2812c-.1243,.3246-.1975,.4961-.25,.5625-.124,.1742-.2948,.2826-.5312,.2812h-.1875c-.0351-.0322-.0856-.062-.1562-.0625-.3319-.0021-.4981,.1474-.5,.4375-.0017,.2731 .1591,.404 .5,.4062 .1137,.0007 .3174-.0061 .5625-.0312l.5312-.0625c.1217-.0126 .3499-.0018 .6562,0 .2798,.0019 .4713-.0153 .5938,0l.6562,.0938c.1218,.0168 .2109,.0308 .2812,.0312 .3941,.0022 .5915-.1332 .5938-.4062 .0013-.2896-.1725-.4353-.5312-.4375-.0787-.0005-.1819-.0151-.3438,0-.1618,.0151-.2878,.0319-.375,.0312-.3414-.0022-.5331-.1407-.5312-.4062 .0006-.083 .0265-.1592 .0625-.25l.4062-.9688c.1063-.257 .1844-.4111 .25-.4688 .0661-.0579 .1689-.0951 .3438-.0938l2.3438,.0312c.1746,.0013 .2871,.0287 .3438,.0625 .0559,.0335 .105,.117 .1562,.25l.4688,1.2188c.0691,.1825 .1258,.2806 .125,.3125-.0012,.2241-.1495,.3458-.4375,.3438-.0789-.0003-.1907-.014-.3438-.0312-.1533-.0168-.2963-.0307-.375-.0312-.3848-.002-.561,.1249-.5625,.4062-.0015,.2814 .1813,.4354 .5312,.4375 .0957,.0007 .2223-.0164 .4062-.0312 .727-.0597 1.2698-.0642 1.5938-.0625 .2716,.0016 .6683,.0277 1.2188,.0938 .1573,.0183 .2788,.0307 .375,.0312 .3334,.0019 .4986-.1474 .5-.4375 .0011-.2729-.1671-.4044-.5-.4062l-.3438,.0312c-.0348,.0109-.1179,.0004-.1875,0-.2277-.0012-.378-.0621-.5-.1875-.1212-.1256-.2596-.3899-.4062-.7812l-2.3125-6.1875c-.1295-.3497-.41-.5288-.8125-.5312zm-.0625,1.0312 1.1875,3.4375c.0166,.05 .0002,.0772 0,.0938-.0007,.0662-.0515,.0941-.1562,.0938h-2.0625c-.131-.001-.219-.0502-.2188-.125 .0006-.0085 .0134-.0124 .0312-.0625l1.2188-3.4375zm-31.0625,.75c-.6911-.0043-1.2626,.1709-1.75,.5-.4877,.3293-.7471,.7223-.75,1.1875-.0012,.2159 .0663,.4122 .2188,.5625 .1525,.1501 .3663,.2172 .5938,.2188 .1926,.0013 .3413-.0494 .4688-.1562 .128-.1074 .1866-.2397 .1875-.4062 .001-.1988-.0653-.3539-.1875-.4375-.0787-.0503-.0938-.092-.0938-.125 .0004-.0913 .0559-.1677 .1875-.25 .3422-.2054 .7002-.3146 1.0938-.3125 .4459,.0028 .8143,.1158 1.0625,.3125 .2479,.1967 .346,.4409 .3438,.7812-.0021,.3574-.0886,.6186-.3125,.75-.2236,.1314-.7026,.2423-1.4375,.3125-.5166,.0553-.8607,.0888-1.0312,.125-.1709,.0367-.388,.127-.625,.25-.623,.3203-.9334,.8112-.9375,1.5-.0033,.5563 .2023,1.009 .625,1.3438 .4224,.3344 .9786,.4957 1.6875,.5 .9534,.0057 1.675-.2876 2.125-.9062 .1627,.5902 .5951,.8706 1.3125,.875 .8752,.0055 1.3215-.3906 1.3438-1.1875v-.7188-.0625c.0025-.3982-.1215-.5922-.4062-.5938-.2672-.0018-.4049,.1437-.4062,.4062v.5938c-.0031,.5253-.1621,.7831-.4688,.7812-.2452-.0015-.418-.1475-.4688-.4375-.0168-.0745-.0024-.2904 0-.6875v-2.5312c.0087-1.4483-.7831-2.178-2.375-2.1875zm9.0312,0c-.1578,.0571-.2175,.2056-.2188,.4375v.0625c-.3907-.2911-.8844-.434-1.4688-.4375-.7414-.0046-1.348,.1732-1.8125,.5312-.4645,.3581-.7152,.8258-.7188,1.4062-.0036,.6135 .2475,1.0338 .7188,1.2812 .4713,.2477 1.1611,.4346 2.0625,.5312 .945,.0969 1.4096,.405 1.4062,.9688-.0019,.3149-.1561,.5758-.4375,.7812-.2811,.2059-.6336,.3151-1.0625,.3125-.5955-.0036-1.0849-.1179-1.4688-.3438-.3839-.2254-.5872-.5193-.5938-.875-.0068-.356-.0149-.5731-.0625-.6562-.0479-.0832-.1601-.1239-.3438-.125-.2803-.0019-.4358,.1466-.4375,.4375-.0007,.0995 .0287,.2315 .0625,.4062 .0338,.1748 .0324,.3632 .0312,.5625-.0007,.1166-.0133,.2271-.0312,.3438-.0555,.49-.0628,.7145-.0625,.6562-.002,.3412 .1446,.498 .4688,.5 .2981,.0019 .4669-.1376 .4688-.4375 .0005-.075-.0006-.1355 0-.2188 .5298,.3915 1.1508,.5896 1.875,.5938 .7762,.0048 1.3929-.1964 1.875-.5625 .4821-.3661 .7468-.8405 .75-1.4375 .0059-.9784-.7629-1.5817-2.25-1.7812l-.75-.0938c-.7701-.1041-1.1596-.4068-1.1562-.9375 .0016-.2904 .1648-.5569 .4375-.75 .2727-.1934 .5972-.2835 1-.2812 .394,.0024 .739,.1017 1.0312,.2812 .2922,.1798 .4302,.408 .4375,.6562v.4062c.0067,.2649 .1621,.3734 .4375,.375 .2839,.0017 .4046-.1523 .4062-.4688 .0008-.1 .0202-.2459 0-.4375-.0205-.1914-.032-.338-.0312-.4375 .0009-.1666 .0014-.3339 .0312-.5 .0155-.1996 .031-.3252 .0312-.375 .0017-.2664-.1489-.3732-.4375-.375-.0699-.0004-.1349-.019-.1875,0zm2,.2812c-.4026-.0023-.5922,.153-.5938,.4375-.0015,.2677 .1624,.4047 .4688,.4062 .0436,.0006 .1143-.0096 .25-.0312 .1357-.0217 .2286-.0314 .2812-.0312 .1926,.0013 .3534,.1881 .5,.5625l.1562,.375 1.4375,3.4688c.2331,.5664 .3451,.9802 .3438,1.1875-.0026,.4067-.1891,.7678-.5625,1.0938-.3739,.3257-.7866,.4716-1.25,.4688-.3675-.0023-.6203-.0983-.75-.2812 .2563-.0731 .3734-.2346 .375-.5 .0009-.1656-.0568-.2939-.1875-.4062-.1309-.1129-.2981-.1863-.5-.1875-.254-.0016-.4665,.0886-.625,.25-.1584,.1611-.2169,.3671-.2188,.625-.0019,.366 .1703,.6772 .5312,.9375 .3615,.2599 .8102,.4031 1.3438,.4062 .8918,.0054 1.6198-.3429 2.2188-1.0625 .3525-.4222 .7263-1.1254 1.125-2.0625l1.8125-4.2188c.1776-.4229 .3649-.6259 .5312-.625 .0436,.0003 .1052,.0034 .2188,.0312 .0433,.0186 .1313,.0309 .2188,.0312 .2886,.002 .4357-.1345 .4375-.4062 .0017-.2803-.1863-.4351-.5625-.4375-.1486-.0007-.3673,.0264-.6562,.0625-.2889,.0354-.5077,.0632-.6562,.0625-.14-.0008-.2839-.0139-.4062-.0312l-.4688-.0625c-.1223-.0173-.1974-.0311-.25-.0312-.3765-.0027-.5922,.153-.5938,.4375-.0018,.2679 .1474,.3734 .4375,.375 .0436,.0003 .1407,.0177 .2812,0 .0617-.0182 .1445-.0319 .25-.0312 .2019,.0014 .3132,.0774 .3125,.2188-.0007,.0668-.018,.1335-.0625,.25l-1.625,4.1562-1.5-4.2188c-.0346-.1003-.0624-.1832-.0625-.25 .001-.1168 .0645-.1884 .1875-.1875 .0526,.0002 .1361,.0119 .25,.0312 .1139,.0191 .1974,.0311 .25,.0312 .3332,.0019 .4984-.1301 .5-.4062 .0016-.2757-.1638-.404-.5312-.4062-.0877-.0004-.26,.0044-.5312,.0312-.3594,.0357-.7158,.0641-1.0312,.0625-.0436-.0003-.095-.0224-.1562-.0312-.0609-.0003-.0853,.0001-.0938,0l-.5312-.0625c-.0705-.01-.181-.0303-.3125-.0312zm-9.6875,2.9688 0,.875c-.0117,.5298-.1924,.9492-.5312,1.25-.3388,.3001-.8203,.4721-1.4062,.4688-.4111-.0024-.7295-.0973-.9688-.2812-.2391-.1834-.3453-.4354-.3438-.75 .0035-.6047 .5065-.9462 1.5-1.0312 .5493-.0465 .9111-.1225 1.125-.1875 .2137-.0648 .4323-.1794 .625-.3438zm-6.3438,10.7188c-.2016-.0009-.2803,.0654-.2812,.2188-.0006,.0615 .0219,.1142 .0625,.1562 .0407,.0414 .0653,.062 .125,.0625 .0503,.0001 .1142,.0132 .1875,0 .0321-.0085 .092-.0317 .1562-.0312 .2341,.0012 .3454,.1772 .3438,.5v2.625c-.002,.327-.1416,.4703-.375,.4688-.0458-.0002-.0743,.0145-.125,0-.1004-.009-.1648-.0314-.1875-.0312-.1418-.0012-.218,.0783-.2188,.2188-.0012,.1575 .0846,.2491 .2812,.25 .0136-.0001 .0394-.0003 .0625,0 .023-.0042 .0531-.0316 .0625-.0312l.3125-.0312c.1508-.0212 .3075-.0326 .5-.0312 .1327,.0008 .2557,.0132 .375,.0312l.375,.0625c.0136-.0001 .0134-.0048 .0312,0 .0231,.0003 .0527-0 .0625,0 .2012,.0013 .3116-.0928 .3125-.25 .001-.1401-.0769-.1867-.2188-.1875-.037-.0002-.1002-.0133-.1875,0-.0597,.0089-.1199,.0318-.1562,.0312-.2341-.0012-.3457-.1727-.3438-.5l.0312-2.625c.0017-.3228 .1104-.4703 .3438-.4688 .0643,.0001 .0932-.0093 .125,0 .0773,.0136 .1421,.0308 .1875,.0312 .0597,.0005 .1145-.0215 .1562-.0625 .0411-.0414 .0622-.0948 .0625-.1562 .0009-.1534-.0797-.2491-.2812-.25-.0273,.0001-.0571,.0269-.0938,.0312l-.3125,.0312c-.1696,.0206-.3269,.0317-.4688,.0312-.1467-.0012-.3004-.0126-.4375-.0312l-.375-.0625c-.037-.0055-.0665,.0002-.0938,0zm2.6562,.0312c-.2065-.0009-.3117,.0671-.3125,.2188-.0013,.1387 .0769,.1867 .2188,.1875 .0412,.0005 .1056,.0116 .1875,0 .0554-.0076 .0838-.0002 .125,0 .2341,.0015 .3457,.1414 .3438,.4688v2.625c-.002,.327-.11,.5015-.3438,.5-.0639-.0008-.1244-.0217-.1562-.0312-.0734-.0144-.1372,.0001-.1875,0-.0601-.0005-.1148,.0211-.1562,.0625-.0411,.0418-.0623,.0951-.0625,.1562-.0006,.1534 .1155,.2178 .3125,.2188 .014-0 .0082-.0003 .0312,0 .023-.0043 .0534,0 .0625,0l.3438-.0625c.0963-.0123 .1921-.0008 .3438,0 .1743,.0011 .3392,.0172 .5,.0312l.5,.0312c.1052,.0094 .2115-.0007 .3125,0 .4996,.0032 .9268-.0867 1.2812-.2812 .295-.1594 .5164-.4087 .6875-.75 .1725-.3412 .2471-.7287 .25-1.1562 .0021-.4839-.1014-.914-.3125-1.2812-.2114-.3676-.4779-.5995-.8438-.75-.2793-.1149-.645-.1849-1.0625-.1875-.1422-.0005-.2565-.0084-.3438,0l-.4375,.0625c-.1288,.0127-.2468,.0005-.375,0-.1565-.0012-.3317-.0126-.4688-.0312l-.3438-.0312c-.037-.0051-.071,.0002-.0938,0zm5.5625,.0312c-.1824-.0006-.298,.0031-.3438,.0312-.0461,.0281-.0617,.1007-.0625,.2188-.0001,.0741 .0006,.1576 0,.2188 .0001,.0615 .0008,.159 0,.2812-.0003,.0528 .0077,.112 0,.2188-.0081,.1071-.031,.1976-.0312,.25-.001,.1876 .0942,.2801 .25,.2812 .16,.0011 .2174-.116 .2188-.3438 .0004-.044 .0086-.104 0-.1875-.0087-.0831-0-.1438 0-.1875 .0007-.1359 .0416-.2153 .1562-.25 .0599-.0215 .1961-.0322 .375-.0312h1.5938l-1.4375,1.3438c-.0739,.0695-.1251,.1351-.125,.1875-.0009,.1135 .0466,.1553 .1562,.1562 .0371-.0001 .0831,.0089 .125,0 .1926-.0395 .3836-.0632 .5625-.0625 .6788,.0043 1.0029,.2764 1,.8438-.002,.3221-.0993,.6068-.3438,.8125-.2441,.2057-.5571,.2839-.9375,.2812-.3399-.0018-.6572-.0613-.9062-.2188-.2493-.1578-.3451-.3501-.3438-.5625v-.0625h.0625c.2693,.0016 .4049-.0952 .4062-.3125 .0005-.109-.0506-.1821-.125-.25-.0755-.0677-.1621-.1241-.2812-.125-.1831-.001-.344,.0785-.4688,.2188-.1245,.1406-.186,.3269-.1875,.5312-.002,.3567 .1886,.6356 .5312,.875 .3427,.2387 .7677,.3721 1.2812,.375 .5597,.0034 1.0178-.1477 1.375-.4375 .3575-.2901 .5282-.6628 .5312-1.125 .0016-.3707-.1267-.6671-.375-.9062-.2483-.2392-.548-.3727-.9375-.375-.0182,.0001-.0529,.0002-.0938,0-.0454-.0005-.0977,.0002-.125,0l1.2812-1.1562c.1151-.1032 .1553-.1817 .1562-.2812 .0008-.1565-.1049-.2487-.375-.25-.146-.0011-.2963-.0025-.4062,0-.2196,.0065-.3772,.0007-.4688,0h-1.6875zm15.7812,.0312c-.2299-.0016-.343,.0731-.3438,.2188-.0008,.1411 .0802,.1864 .25,.1875 .0367-.0001 .0892,.0144 .1562,0 .0667-.0137 .1196-.0318 .1562-.0312 .1058,.0007 .1651,.0836 .1875,.2188 .0097,.0398 .0011,.1382 0,.3125v.6562c-.2227-.3369-.5455-.4972-1-.5-.4674-.0027-.8436,.1539-1.125,.4688-.2817,.3145-.4351,.7228-.4375,1.25-.0035,.5226 .1242,.9568 .4062,1.2812 .2821,.3237 .6579,.4661 1.125,.4688 .4625,.003 .8184-.1308 1.0625-.4375v.0938 .0312c-.0012,.1575 .0638,.2495 .1875,.25 .0416,.0002 .1001-.0182 .1562-.0312 .0915-.0081 .1426-.0003 .1562,0 .0454,.0001 .1242,.0199 .2188,.0312 .0935,.0117 .1411-.0006 .1875,0 .2068,.001 .3113-.071 .3125-.2188 .0002-.1429-.0767-.2178-.25-.2188-.0286-.0003-.0799,.0245-.1562,.0312-.0323,.0071-.0954,.0002-.1562,0-.0894-.0005-.1334-.0236-.1562-.0938-.0236-.0699-.0284-.2743-.0312-.5625v-1.0938-.625c.0005-.1139 .0196-.2814 .0312-.5 .0164-.3099 .0314-.4738 .0312-.5 .005-.2184-.0037-.3307 0-.3438v-.0938c.0014-.1746-.0586-.2487-.1875-.25-.0416-.0002-.1088-.0104-.1875,0-.078,.01-.1459,.0315-.1875,.0312-.0045-.0003-.0714-.0196-.2188-.0312-.096-.0115-.1508,.0002-.1875,0zm-19.4062,.375c.2844,.0017 .5171,.0362 .7188,.0938 .3158,.0889 .5706,.2598 .75,.5625 .1797,.3038 .2837,.69 .2812,1.125-.0035,.5558-.1683,1.0065-.4688,1.3438-.2489,.2812-.6369,.4096-1.1875,.4062-.3169-.0019-.5251-.0137-.5938-.0312-.2061-.0446-.314-.1752-.3125-.375l.0312-2.75c.0009-.1824 .0446-.2736 .125-.3125 .0811-.0382 .2936-.0646 .6562-.0625zm10.4688,.625c-.3626-.0021-.6505,.0769-.9062,.25-.2554,.1734-.4051,.3808-.4062,.625-.0009,.1135 .0447,.2336 .125,.3125 .0796,.0788 .1927,.0928 .3125,.0938 .1014-0 .183-.0065 .25-.0625 .067-.057 .0934-.1314 .0938-.2188 .0006-.1048-.0291-.1749-.0938-.2188-.0411-.0264-.0631-.0451-.0625-.0625-0-.0482 .0249-.113 .0938-.1562 .1801-.1083 .3873-.1576 .5938-.1562 .2334,.0011 .4014,.0528 .5312,.1562 .1299,.1031 .2195,.2583 .2188,.4375-.0016,.1872-.0699,.3056-.1875,.375-.1168,.0688-.3639,.1191-.75,.1562-.2705,.0287-.4727,.0438-.5625,.0625-.0895,.0194-.1883,.0602-.3125,.125-.3263,.1679-.4976,.4506-.5,.8125-.0016,.2924 .1219,.5121 .3438,.6875 .2215,.1757 .5033,.2792 .875,.2812 .5006,.003 .8891-.1759 1.125-.5 .0855,.3113 .3109,.4667 .6875,.4688 .459,.0031 .6769-.1758 .6875-.5938l.0312-.375v-.0312c.0015-.2092-.1001-.3428-.25-.3438-.1408-.0007-.1866,.0808-.1875,.2188v.3125c-.0017,.2756-.089,.4074-.25,.4062-.1289-.0006-.2236-.0662-.25-.2188-.0087-.0391-.0011-.1657 0-.375v-1.3125c.0043-.7612-.4154-1.1512-1.25-1.1562zm4.5625,.0312c-.4597-.0032-.8151,.1699-1.0938,.5v-.1875c.0006-.1342-.086-.2179-.2188-.2188-.0045-.0003-.0686,.0206-.1875,.0312-.055,.0117-.1145,.0004-.1875,0l-.25-.0312c-.0182-.0048-.0342-.0001-.0625,0-.2054-.0016-.3114,.0731-.3125,.2188-.0004,.1412 .0823,.2178 .25,.2188 .0328,.0003 .0925-.0198 .1562-.0312 .063-.0108 .0918,0 .125,0 .0744,.0008 .1263,.0076 .1562,.0625 .0299,.0553 .054,.164 .0625,.3125v.25 .7812 .7188c-.0064,.2526-.079,.376-.2188,.375-.0608-.0002-.1241,.0126-.1875,0-.0634-.0123-.102-.031-.125-.0312-.1499-.001-.249,.0797-.25,.2188-.0009,.1478 .1193,.2174 .3125,.2188 .0273,.0002 .1416-.0102 .3438-.0312 .1602-.0167 .2782-.0316 .375-.0312 .1237,.0009 .2427,.0173 .3438,.0312 .2017,.0279 .3071,.0311 .3438,.0312 .1834,.0014 .2801-.0776 .2812-.2188 .0011-.1457-.0766-.2179-.2188-.2188-.0409-.0001-.092,.017-.1562,.0312-.0643,.0139-.1195,.0311-.1562,.0312-.0734-.0004-.0982-.0553-.125-.125-.0274-.0701-.0638-.1832-.0625-.375v-.875c.0023-.4091 .0767-.7058 .1875-.875 .1612-.2473 .4151-.377 .7812-.375 .1918,.0013 .3813,.0552 .5312,.1562 .137,.0924 .2106,.2402 .25,.4062 .023,.0873 .0333,.2379 .0312,.4688v.5 .375 .3438c-.0107,.2397-.0761,.3757-.1875,.375-.0234,.0001-.0676-.0147-.1562-.0312-.0462-.0086-.088-.0307-.125-.0312-.159-.0007-.249,.0839-.25,.2188-.0008,.152 .0985,.2178 .2812,.2188 .0143-0 .1144-.0055 .3438-.0312 .0778-.0084 .193-.0009 .3125,0 .1286,.0005 .2594,.0126 .4062,.0312 .1461,.0186 .2482-.0001 .3125,0 .0772,.0003 .1636-.0193 .2188-.0625 .0548-.0425 .0624-.0913 .0625-.1562 .0006-.0566-.0189-.0851-.0625-.125-.043-.0391-.0969-.062-.1562-.0625-.0273,.0001-.0583-.0095-.125,0-.0668,.0098-.1154,.0314-.1562,.0312-.1003-.0006-.1654-.1016-.1875-.25-.0044-.0353-.0326-.1249-.0312-.3125l.0312-1.25c.0013-.24-.0308-.4449-.0938-.5938-.0772-.1793-.249-.3161-.4688-.4375-.2205-.1211-.4391-.186-.6875-.1875zm10.125,.0625c-.2205-.0009-.3835,.0226-.5312,.0938-.1474,.0708-.3022,.2194-.4688,.4062v-.1875c.0004-.1258-.0782-.1869-.1875-.1875h-.1875c-.0049-0-.004,.0002-.0312,0-.0272-.0002-.0707-.0001-.0938,0-.0639-.0004-.1313,.0081-.2188,0-.0868-.0076-.1369-.0307-.1875-.0312-.1883-.001-.2807,.071-.2812,.2188-.001,.1394 .0802,.2176 .25,.2188 .028-.0001 .0474,.0085 .0938,0 .1096-.0228 .169-.0315 .1875-.0312 .0915,.0007 .1682,.0338 .1875,.125 .0206,.092 .0329,.3171 .0312,.6875l-.0312,1v.375c-.0109,.2135-.0621,.3135-.1875,.3125-.0143,0-.0266,.0038-.0312,0l-.1875-.0312c-.0094-.0003-.013,.0041-.0312,0-.0185,.0001-.0219-0-.0312,0-.1775-.0009-.2794,.0506-.2812,.1875-.0014,.1502 .0985,.249 .2812,.25 .0419,.0002 .1472-.0147 .3438-.0312 .1477-.012 .2573-.0317 .3125-.0312 .1097,.0006 .25,.0123 .4062,.0312 .1143,.0138 .2027,.0305 .2812,.0312 .2061,.0009 .311-.0777 .3125-.2188 0-.1454-.1024-.2174-.2812-.2188-.0136,.0001-.0127-.0001-.0312,0-.0182,.0057-.0538,.0003-.0625,0-.0733,.023-.102,.0628-.125,.0625-.0821-.0007-.139-.1013-.1562-.25-.0037-.0303-.0004-.1378 0-.3125v-.8438c.002-.4238 .0849-.7366 .2188-.9062 .1612-.2085 .3853-.3141 .6875-.3125 .276,.0018 .4552,.0691 .5625,.2188 .1067,.1489 .1585,.4324 .1562,.8125v.5312c.0004,.0042 .0008,.0461 0,.125-.0003,.0915 .0007,.1848 0,.2812l-.0312,.3125c-.0059,.2226-.0466,.3443-.1562,.3438-.0322,.0001-.0918-.0133-.1562-.0312-.0264-.0113-.0744-.0307-.125-.0312-.1373-.0008-.187,.0818-.1875,.2188-.001,.1499 .0936,.2178 .2812,.2188 .0874,.0004 .1668-.0144 .2812-.0312 .1145-.0173 .247-.0007 .3438,0 .0681,.0004 .1473-.0184 .2812,0 .1353,.0185 .2437,.0308 .3125,.0312 .2156,.0012 .3122-.0748 .3125-.2188 .0009-.0604-.019-.0838-.0625-.125-.0435-.0412-.092-.062-.1562-.0625-.0273,.0001-.0726-.0095-.125,0-.0528,.0102-.0665,.0006-.0938,0-.0873-.0004-.1676-.0226-.1875-.125-.0198-.1031-.0023-.3718 0-.7812v-.4688c.0026-.4231 .0553-.7058 .1562-.875 .1293-.2126 .3313-.3143 .6562-.3125 .1684,.001 .3364,.0143 .4688,.0938 .1316,.0794 .2338,.2065 .2812,.3438 .0474,.1376 .0643,.3558 .0625,.6562v.4375 .375c-.0064,.2963-.0414,.4885-.0625,.5625-.0211,.074-.0783,.1254-.1562,.125-.0454-.0001-.0672-.0209-.0938-.0312-.073-.0105-.1065,.0003-.125,0-.1453-.0007-.2179,.0544-.2188,.1875-.001,.1537 .0887,.2178 .2812,.2188 .0779,.0007 .1952,.0144 .3438,0 .1493-.0151 .2658-.0316 .3438-.0312 .0737,.0001 .1732,.0149 .3125,.0312 .14,.0168 .2437,.0305 .3125,.0312 .1834,.0007 .2796-.096 .2812-.25 .0005-.1324-.0897-.1864-.25-.1875-.0321-.0002-.0916,.0174-.1562,.0312-.0636,.0142-.0929,.0002-.125,0-.0957-.0006-.1653-.0616-.1875-.2188-.0038-.0394-.0014-.1646 0-.3438v-.4688-.6562c.0018-.3102-.0041-.5435-.0625-.6875-.0862-.2142-.2716-.3811-.5-.5-.2066-.1058-.4255-.1544-.6875-.1562-.2526-.0015-.4649,.0516-.625,.125-.1608,.0733-.3116,.1924-.4688,.375-.208-.3331-.5511-.4973-1-.5zm5.9375,.0312c-.4912-.0026-.8627,.1548-1.1562,.4688-.2939,.3143-.4341,.7499-.4375,1.2812-.0025,.5321 .1192,.9322 .4062,1.25 .2874,.3175 .6745,.4973 1.1562,.5 .4954,.0033 .8864-.1785 1.1875-.5 .3003-.3208 .4659-.7183 .4688-1.25 .0045-.532-.1493-.9703-.4375-1.2812-.2868-.3112-.6865-.4657-1.1875-.4688zm4.1562,.0312c-.3986-.0022-.6975,.1513-.9375,.4688v-.1875c.0017-.125-.0689-.1891-.1875-.1875-.0503-.0008-.0878,.0196-.125,.0312-.0829,.0111-.1508,.0002-.1875,0-.0458-.0002-.1267,.0126-.2188,0-.0921-.0119-.1417-.0311-.1875-.0312-.1974-.001-.3124,.0671-.3125,.2188-.0009,.1383 .0678,.218 .2188,.2188 .037,.0002 .0905-.0203 .1562-.0312 .0637-.0108 .1196-.0002 .1562,0 .1233,.0005 .2073,.1176 .2188,.375v1.5 .3438c-.0106,.2005-.0722,.2819-.1875,.2812-.0189-.0003-.0472,.009-.0938,0l-.0938-.0312c-.0231-.0048-.0785-.0001-.125,0-.1761-.0012-.2497,.0526-.25,.1875-.0012,.1523 .0923,.2489 .2812,.25l.375-.0312c.1048-.0088 .2548-.0326 .4375-.0312 .0695,.0005 .1739,.0149 .3125,.0312 .14,.0164 .2437,.0312 .3125,.0312h.0312c.189,.0011 .2812-.0688 .2812-.2188 .0008-.1369-.0706-.2178-.2188-.2188-.0367-.0002-.0743,.0206-.125,.0312-.0643,.0145-.1274,.0005-.1875,0-.1202-.0006-.1965-.1263-.2188-.375-.0034-.0352-.0019-.1771 0-.4688v-.4375c.0019-.3794 .0194-.6569 .0938-.8438 .1216-.3047 .3621-.4708 .7188-.4688 .1747,.0011 .3208,.0369 .4375,.125 .1156,.0877 .1886,.2177 .1875,.3438-.0004,.0437-.003,.0732-.0312,.125-.0455-.0141-.0801-.031-.0938-.0312-.0744-.0001-.1638,.0397-.2188,.0938-.0563,.0543-.0623,.1176-.0625,.1875-.0003,.087 .021,.1569 .0938,.2188 .0735,.0612 .1754,.0931 .2812,.0938 .1656,.0008 .3047-.0683 .4062-.1875 .1023-.1191 .156-.2456 .1562-.4375 .002-.27-.1143-.5142-.3125-.6875-.1982-.1733-.4592-.248-.7812-.25zm3.0312,0c-.4873-.0031-.8824,.1708-1.1875,.5-.3045,.3299-.4652,.7496-.4688,1.2812-.0025,.5185 .1554,.9413 .4375,1.25 .2828,.3091 .6432,.4661 1.125,.4688 .3857,.002 .7275-.0943 1.0312-.3125 .3051-.2177 .4668-.467 .4688-.75 .0004-.1656-.0802-.2489-.25-.25-.1195-.0006-.1868,.052-.2188,.1562l-.0625,.1875c-.0512,.1613-.1752,.2715-.3438,.375-.1686,.1035-.3606,.1576-.5625,.1562-.3074-.0016-.544-.0925-.75-.3125-.2046-.2199-.3138-.5157-.3125-.8438 .0004-.0349 .0131-.0477 .0312-.0625 .0189-.0155 .0649-.0318 .125-.0312l2.1875,.0312c.1104,.0006 .1642-.0254 .1875-.0625 .0226-.0368 .0302-.1469 .0312-.3125 .0032-.422-.1284-.756-.4062-1.0312-.2785-.276-.6314-.435-1.0625-.4375zm-19.4375,.3125c.24,.0013 .4408,.1056 .625,.25 .1564,.1235 .272,.2814 .3125,.5 .0225,.1051 .0331,.3017 .0312,.5938-.0014,.2271-.0121,.4185-.0312,.5625-.0293,.2268-.1148,.3944-.2812,.5312-.1675,.1364-.3752,.2204-.625,.2188-.328-.002-.593-.1356-.7812-.375-.1883-.2387-.2837-.5541-.2812-.9688 .0017-.4014 .0972-.7388 .2812-.9688 .1837-.23 .4258-.3458 .75-.3438zm12.2812,.0938c.6973,.0036 1.0374,.4402 1.0312,1.3125-.002,.4144-.0897,.7365-.2812,.9688-.1929,.2321-.4462,.3456-.7812,.3438-.3263-.0019-.6011-.1095-.7812-.3438-.1798-.2346-.2524-.5586-.25-.9688 .0006-.0566 0-.0938 0-.0938 .02-.3921 .1273-.6935 .3125-.9062 .1845-.2128 .4286-.3144 .75-.3125zm7.1562,.0312c.2484,.0015 .4732,.0788 .6562,.25 .182,.1708 .2829,.3941 .2812,.625-.0002,.0611-.0602,.0944-.1562,.0938l-1.6562-.0312c-.1017-.0007-.1565-.0326-.1562-.0938 .0014-.2176 .1309-.3881 .3438-.5625 .2119-.1755 .4304-.2828 .6875-.2812zm-27.0938,1.125 0,.4688c-.0062,.2792-.1038,.4985-.2812,.6562-.1774,.1574-.4117,.2206-.7188,.2188-.2159-.0013-.4054-.0598-.5312-.1562-.1258-.0968-.1883-.209-.1875-.375 .002-.3179 .2604-.5177 .7812-.5625 .2876-.0243 .4819-.0592 .5938-.0938 .1125-.0338 .2428-.0699 .3438-.1562z"/>
<g color="#000">
<path opacity=".15" d="m20,38.9119h56v1.0881h-56z"/>
<path opacity=".15" d="m20,50.9119h56v1.0881h-56z"/>
<path opacity=".15" d="m20,62.9119h56v1.0881h-56z"/>
<path opacity=".15" d="m20,74.9119h56v1.0881h-56z"/>
<path opacity=".15" d="M 32.022,26.9119 H76 V28 H32.022 z"/>
</g>
<path opacity=".1" fill="url(#linearGradient3613)" filter="url(#filter3794)" stroke="#fff" stroke-linecap="round" stroke-width=".5" d="m27,15h42a12,12 0 0,1 12,12v42a12,12 0 0,1 -12,12h-42a12,12 0 0,1 -12-12v-42a12,12 0 0,1 12-12" clip-path="url(#clipPath3613)"/>
</svg>
