<svg xmlns="http://www.w3.org/2000/svg" viewBox="0 0 96 96" xmlns:xlink="http://www.w3.org/1999/xlink">
<defs>
<clipPath id="clipPath2920">
<path fill="#f0f" fill-rule="evenodd" d="m34.3125,6c-2.8756,.0063-5.8071,.0263-8.8125,.0625-24.6822,28.4969-.1823,46.8422 20.4375,51.2812-21.8237-14.1505-4.0628-40.5398 14.25-51.3125-9.0165,.0443-17.2482-.0503-25.875-.0312zm16.5938,32.4688c21.8237,14.1505 2.495,41.9588-25.3438,51.3125 12.022-.0591 37.9161,.0824 49.9375-.0625 16.8883-29.7385-3.9739-46.811-24.5938-51.25z"/>
</clipPath>
<clipPath id="clipPath3613">
<path fill="#fff" d="m12,6h72a6,6 0 0,1 6,6v72a6,6 0 0,1 -6,6h-72a6,6 0 0,1 -6-6v-72a6,6 0 0,1 6-6"/>
</clipPath>
<filter width="1.24" x="-.12" y="-.105" height="1.211" color-interpolation-filters="sRGB" id="filter3795">
<feGaussianBlur stdDeviation="2.25521"/>
</filter>
<filter width="1.193" x="-.096" y="-.105" height="1.211" color-interpolation-filters="sRGB" id="filter3790">
<feGaussianBlur stdDeviation="2.25521"/>
</filter>
<filter width="1.384" x="-.192" y="-.192" height="1.384" color-interpolation-filters="sRGB" id="filter3794">
<feGaussianBlur stdDeviation="5.28"/>
</filter>
<linearGradient spreadMethod="reflect" id="linearGradient2916" xlink:href="#linearGradient3319" y1="31.705" x1="28.275" y2="5.813" x2="30.996" gradientUnits="userSpaceOnUse"/>
<linearGradient spreadMethod="reflect" id="linearGradient2918" xlink:href="#linearGradient3319" y1="64.099" x1="68.954" y2="89.626" x2="66.271" gradientUnits="userSpaceOnUse"/>
<linearGradient gradientTransform="translate(0 -97)" id="linearGradient3721" xlink:href="#ButtonShadow-0" y1="6.132" y2="90.239" x2="0" gradientUnits="userSpaceOnUse"/>
<linearGradient gradientTransform="matrix(1.00587 0 0 .99417 100 0)" id="ButtonShadow-0" y1="92.54" y2="7.017" x2="0" gradientUnits="userSpaceOnUse">
<stop offset="0"/>
<stop offset="1" stop-opacity=".588"/>
</linearGradient>
<linearGradient gradientTransform="matrix(1.02381 0 0 1.0119 -1.14286 -98.07143)" id="linearGradient3725" xlink:href="#ButtonShadow-0" y1="6.132" y2="90.239" x2="0" gradientUnits="userSpaceOnUse"/>
<linearGradient id="linearGradient3737">
<stop offset="0" stop-color="#fff"/>
<stop offset="1" stop-color="#fff" stop-opacity="0"/>
</linearGradient>
<linearGradient id="linearGradient3188" xlink:href="#linearGradient3737" y1="6" y2="63.893" x2="0" gradientUnits="userSpaceOnUse"/>
<linearGradient id="linearGradient3613" xlink:href="#linearGradient3737" y1="20.221" y2="138.661" x2="0" gradientUnits="userSpaceOnUse"/>
<linearGradient id="linearGradient3319">
<stop offset="0" stop-color="#fdb377"/>
<stop offset="1" stop-color="#fdb377" stop-opacity="0"/>
</linearGradient>
<linearGradient gradientTransform="matrix(1.01724 0 0 1.01724 -1.10345 -1.10345)" id="ButtonColor" y1="122" y2="5.425" x2="0" gradientUnits="userSpaceOnUse">
<stop offset="0" stop-color="#242424"/>
<stop offset="1" stop-color="#505050"/>
</linearGradient>
<linearGradient id="linearGradient3617" xlink:href="#ButtonColor" y1="90" y2="5.988" x2="0" gradientUnits="userSpaceOnUse"/>
<radialGradient cx="48" cy="90.172" gradientTransform="matrix(1.15731 0 0 .99591 -7.55102 .19713)" r="42" id="radialGradient3619" xlink:href="#linearGradient3737" gradientUnits="userSpaceOnUse"/>
<radialGradient cx="99.944" cy="67.783" gradientTransform="matrix(1 0 0 .60345 0 26.87966)" r="14.492" id="radialGradient3744" gradientUnits="userSpaceOnUse">
<stop offset="0" stop-color="#fdb377"/>
<stop offset=".823" stop-color="#fdb377" stop-opacity=".469"/>
<stop offset="1" stop-color="#fdb377" stop-opacity="0"/>
</radialGradient>
</defs>
<path opacity=".08" fill="url(#linearGradient3725)" d="m12-95.0312c-5.5111,0-10.0312,4.5202-10.0312,10.0312v71c0,5.5111 4.5202,10.0312 10.0312,10.0312h72c5.5111,0 10.0312-4.5202 10.0312-10.0312v-71c0-5.5111-4.5202-10.0312-10.0312-10.0312h-72z" transform="scale(1 -1)"/>
<path opacity=".1" fill="url(#linearGradient3725)" d="m12-94.0312c-4.9716,0-9.0312,4.0596-9.0312,9.0312v71c0,4.9716 4.0596,9.0312 9.0312,9.0312h72c4.9716,0 9.0312-4.0596 9.0312-9.0312v-71c0-4.9716-4.0596-9.0312-9.0312-9.0312h-72z" transform="scale(1 -1)"/>
<path opacity=".2" fill="url(#linearGradient3725)" d="m12-93c-4.4091,0-8,3.5909-8,8v71c0,4.4091 3.5909,8 8,8h72c4.4091,0 8-3.5909 8-8v-71c0-4.4091-3.5909-8-8-8h-72z" transform="scale(1 -1)"/>
<path opacity=".3" fill="url(#linearGradient3725)" d="m12-92h72a7,7 0 0,1 7,7v71a7,7 0 0,1 -7,7h-72a7,7 0 0,1 -7-7v-71a7,7 0 0,1 7-7" transform="scale(1 -1)"/>
<path opacity=".45" fill="url(#linearGradient3721)" d="m12-91h72a6,6 0 0,1 6,6v72a6,6 0 0,1 -6,6h-72a6,6 0 0,1 -6-6v-72a6,6 0 0,1 6-6" transform="scale(1 -1)"/>
<path fill="url(#linearGradient3617)" d="m12,6h72a6,6 0 0,1 6,6v72a6,6 0 0,1 -6,6h-72a6,6 0 0,1 -6-6v-72a6,6 0 0,1 6-6"/>
<g fill-rule="evenodd">
<path opacity=".1" fill="#c8c8c8" d="m12.5312,6c-3.6106,0-6.5312,2.9207-6.5312,6.5312v36.9375c4.8696-2.8418 8.5742-3.0845 12.4688,1.0312 2.089,2.2077 6.6577,1.523 9.75-.1562 5.8332-1.5538 5.6629-1.4563 10.3125,.7188 2.7502,1.4305 3.5546,.7284 4.2812-.8125 2.6102-.202 12.5452,6.5018 13.5312,3.0312 1.255-3.108 2.2437-1.6551 4.8125-.375 4.4012,3.0642 12.0786-.8416 17.5938,1.3438 3.871,2.2216 9.4235,.0346 11.2188-4.8125 .0141-.0225 .0172-.04 .0312-.0625v-36.8438c0-3.6106-2.9207-6.5312-6.5312-6.5312h-70.9375z"/>
<path d="m50.8043,37.8587c-.2389,.0458-.4289,.244-.4766,.4881-.0477,.244 .0566,.4848 .2599,.6212 5.3479,3.4676 8.112,7.7027 8.903,12.268 .791,4.5653-.3993,9.5198-3.141,14.3755-5.4833,9.7114-17.1843,18.9479-30.9764,23.582-.2395,.0973-.3814,.3407-.3683,.599h51.1436c8.3749-14.8946 7.3976-26.8549 1.6246-35.5394-5.8043-8.7317-16.3099-14.1509-26.7307-16.3943-.0786-.0164-.1597-.0164-.2383,0z"/>
<path d="m24.7017,6.0241c-6.0084,7.0401-9.0826,13.5217-9.9428,19.367-.8758,5.9515 .5654,11.2236 3.4442,15.6844 5.7576,8.9216 17.1666,14.6368 27.5972,16.8823 .2858,.0439 .5633-.1249 .6715-.3993 .1082-.2744 .0188-.5827-.2166-.7543-5.3495-3.4686-8.1943-7.6259-9.2713-12.0905-1.077-4.4646-.3605-9.2776 1.603-14.0427 3.927-9.5302 12.8591-18.7737 21.9001-24.0923 .1996-.1142 .3233-.3288 .3249-.5546h-36.1103z"/>
<path fill="#e72121" d="m25.5032,6.0685c-24.6822,28.4969-.1927,46.8291 20.4271,51.2682-21.8237-14.1505-4.0593-40.5398 14.2535-51.3125-12.022,.0591-22.6592-.1005-34.6806,.0444z"/>
</g>
<path fill="#e00" stroke="#000" stroke-linejoin="round" stroke-linecap="square" stroke-width="1.426" d="m114.4364,67.7835a14.4919,8.7451 0 1,1 -28.9839,0 14.4919,8.7451 0 1,1 28.9839,0z" transform="matrix(.49015 .50198 -.49015 .50198 32.61439 -36.28705)"/>
<g fill-rule="evenodd">
<path opacity=".3" fill="#fff" d="m41.8578,51.7011c-12.8476-10.0038 1.9043-35.7415 16.7784-42.5188-21.5958,15.3787-25.0374,35.0655-16.7784,42.5188z"/>
<path opacity=".3" d="m49.1448,39.3468c-9.444-5.4547-11.2896-1.2823-9.8588,5.7695-.3717-3.6461-.0475-9.2764 9.8588-5.7695z"/>
<path opacity=".3" fill="#fff" d="m47.6726,56.4128c9.444,5.4547 11.2896,1.2823 9.8588-5.7695 .3717,3.6461 .0475,9.2764-9.8588,5.7695z"/>
<path opacity=".3" d="m31.9593,53.302c-18.8201-5.5617-28.7372-26.6167-11.8234-42.7639-14.8754,20.7392-2.8069,36.3584 11.8234,42.7639z"/>
</g>
<path fill="url(#radialGradient3744)" d="m114.4364,67.7835a14.4919,8.7451 0 1,1 -28.9839,0 14.4919,8.7451 0 1,1 28.9839,0z" transform="matrix(.49739 .50939 -.49739 .50939 32.38169 -37.5299)"/>
<g fill-rule="evenodd">
<path fill="#e72121" d="m75.5074,89.7297c16.8883-29.7385-3.9664-46.8291-24.5862-51.2681 21.8237,14.1505 2.4944,41.9588-25.3444,51.3125 12.022-.0591 37.9091,.1005 49.9306-.0444z"/>
<path opacity=".3" d="m54.9937,44.097c12.8476,10.0038-3.2898,33.613-21.2815,40.5677 22.8082-13.4275 30.4065-31.1633 21.2815-40.5677z"/>
<path opacity=".2" fill="#fff" d="m64.8923,42.4961c18.8201,5.5617 25.966,28.5678 13.209,45.6019 11.931-21.8035 1.4213-39.1964-13.209-45.6019z"/>
<g opacity=".8" clip-path="url(#clipPath2920)">
<path fill="url(#linearGradient2916)" filter="url(#filter3795)" d="m52.4062,8.4688c-8.5758-.0128-16.8921-.0607-25.7188,.0312-5.4532,6.5207-8.1412,12.3504-8.875,17.3438-.7661,5.2129 .4328,9.6333 2.9688,13.5625 3.4215,5.3014 9.4941,9.449 16.0625,12.3125-1.296-2.0021-2.3172-4.0992-2.8438-6.2812-1.2694-5.2607-.3926-10.7368 1.75-15.9375 3.2948-7.9977 9.5697-15.4352 16.6562-21.0312z"/>
<path fill="url(#linearGradient2918)" filter="url(#filter3790)" d="m59.0938,43.3125c1.6038,2.3295 2.6421,4.8626 3.0938,7.4688 .9277,5.3536-.5008,10.9309-3.4688,16.1875-4.5425,8.0454-12.7423,15.4699-22.7812,20.6875 12.7205,.0024 28.5073,.0367 38.2188-.0625 7.5096-13.8361 6.4573-24.1266 1.3438-31.8125-3.6931-5.5509-9.7288-9.7087-16.4062-12.4688z"/>
</g>
</g>
<path opacity=".1" fill="url(#linearGradient3613)" filter="url(#filter3794)" stroke="#fff" stroke-linecap="round" stroke-width=".5" d="m27,15h42a12,12 0 0,1 12,12v42a12,12 0 0,1 -12,12h-42a12,12 0 0,1 -12-12v-42a12,12 0 0,1 12-12" clip-path="url(#clipPath3613)"/>
<path opacity=".2" fill="url(#radialGradient3619)" d="m12,90c-3.324,0-6-2.676-6-6v-2-68-2c0-.3347 .0413-.6507 .0938-.9688 .0487-.2956 .097-.5969 .1875-.875 .0099-.0304 .0209-.0636 .0312-.0938 .0989-.2878 .2349-.5475 .375-.8125 .1446-.2735 .3156-.5356 .5-.7812 .1844-.2456 .3738-.4735 .5938-.6875 .4399-.4281 .9429-.8145 1.5-1.0938 .2785-.1396 .5735-.2469 .875-.3438-.2562,.1002-.4867,.2363-.7188,.375-.0074,.0044-.0239-.0045-.0312,0-.0319,.0193-.0623,.0425-.0938,.0625-.1204,.0767-.231,.1635-.3438,.25-.1062,.0808-.2133,.1611-.3125,.25-.1779,.1614-.3475,.3454-.5,.5312-.1076,.1303-.2184,.2653-.3125,.4062-.0251,.0384-.0384,.0859-.0625,.125-.0648,.103-.1302,.2045-.1875,.3125-.101,.1947-.2057,.4157-.2812,.625-.008,.0218-.0236,.0405-.0312,.0625-.0318,.092-.0358,.1868-.0625,.2812-.0303,.1066-.0704,.203-.0938,.3125-.0729,.3415-.125,.6982-.125,1.0625v2 68 2c0,2.7818 2.2182,5 5,5h2 68 2c2.7818,0 5-2.2182 5-5v-2-68-2c0-.3643-.0521-.721-.125-1.0625-.0442-.2069-.0884-.3977-.1562-.5938-.0077-.022-.0233-.0407-.0312-.0625-.0627-.1737-.1384-.3674-.2188-.5312-.0416-.0828-.079-.17-.125-.25-.0546-.0972-.1268-.1883-.1875-.2812-.0941-.141-.2049-.276-.3125-.4062-.1432-.1745-.3031-.347-.4688-.5-.0112-.0102-.02-.0211-.0312-.0312-.1384-.1256-.2851-.2344-.4375-.3438-.1026-.0732-.2043-.1534-.3125-.2188-.0074-.0045-.0238,.0044-.0312,0-.232-.1387-.4625-.2748-.7188-.375 .3015,.0968 .5965,.2041 .875,.3438 .5571,.2792 1.0601,.6657 1.5,1.0938 .22,.214 .4094,.4419 .5938,.6875 .1844,.2456 .3554,.5077 .5,.7812 .1401,.265 .2761,.5247 .375,.8125 .0104,.0308 .0213,.0627 .0312,.0938 .0905,.2781 .1388,.5794 .1875,.875 .0524,.318 .0938,.634 .0938,.9688v2 68 2c0,3.324-2.676,6-6,6h-72z"/>
<path opacity=".3" fill="url(#linearGradient3188)" d="m12,6c-3.324,0-6,2.676-6,6v2 68 2c0,.3347 .0413,.6507 .0938,.9688 .0487,.2956 .097,.5969 .1875,.875 .0099,.0304 .0209,.0636 .0312,.0938 .0989,.2878 .2349,.5475 .375,.8125 .1446,.2735 .3156,.5356 .5,.7812 .1844,.2456 .3738,.4735 .5938,.6875 .4399,.4281 .9429,.8145 1.5,1.0938 .2785,.1396 .5735,.2469 .875,.3438-.2562-.1002-.4867-.2363-.7188-.375-.0074-.0044-.0239,.0045-.0312,0-.0319-.0193-.0623-.0425-.0938-.0625-.1204-.0767-.231-.1635-.3438-.25-.1062-.0808-.2133-.1611-.3125-.25-.1779-.1614-.3475-.3454-.5-.5312-.1076-.1303-.2184-.2653-.3125-.4062-.0251-.0384-.0384-.0859-.0625-.125-.0648-.103-.1302-.2045-.1875-.3125-.101-.1947-.2057-.4157-.2812-.625-.008-.0218-.0236-.0405-.0312-.0625-.0318-.0919-.0358-.1868-.0625-.2812-.0303-.1066-.0704-.203-.0938-.3125-.0729-.3415-.125-.6982-.125-1.0625v-2-68-2c0-2.7818 2.2182-5 5-5h2 68 2c2.7818,0 5,2.2182 5,5v2 68 2c0,.3643-.0521,.721-.125,1.0625-.0442,.2069-.0884,.3977-.1562,.5938-.0077,.022-.0233,.0407-.0312,.0625-.0627,.1737-.1384,.3674-.2188,.5312-.0416,.0828-.079,.17-.125,.25-.0546,.0972-.1268,.1883-.1875,.2812-.0941,.141-.2049,.276-.3125,.4062-.1432,.1744-.3031,.347-.4688,.5-.0112,.0102-.02,.0212-.0312,.0312-.1384,.1256-.2851,.2344-.4375,.3438-.1026,.0731-.2043,.1534-.3125,.2188-.0074,.0045-.0238-.0044-.0312,0-.232,.1387-.4625,.2748-.7188,.375 .3015-.0968 .5965-.2041 .875-.3438 .5571-.2792 1.0601-.6657 1.5-1.0938 .22-.214 .4094-.4419 .5938-.6875 .1844-.2456 .3554-.5077 .5-.7812 .1401-.265 .2761-.5247 .375-.8125 .0104-.0308 .0213-.0627 .0312-.0938 .0905-.2781 .1388-.5794 .1875-.875 .0524-.318 .0938-.634 .0938-.9688v-2-68-2c0-3.324-2.676-6-6-6h-72z"/>
</svg>
