<svg xmlns="http://www.w3.org/2000/svg" viewBox="0 0 96 96" xmlns:xlink="http://www.w3.org/1999/xlink">
<defs>
<clipPath id="clipPath3613">
<path fill="#fff" d="m12,6h72a6,6 0 0,1 6,6v72a6,6 0 0,1 -6,6h-72a6,6 0 0,1 -6-6v-72a6,6 0 0,1 6-6"/>
</clipPath>
<clipPath>
<path fill="url(#linearGradient3851)" d="m102,6c-3.324,0-6,2.676-6,6v72c0,3.324 2.676,6 6,6h72c3.324,0 6-2.676 6-6v-72c0-3.324-2.676-6-6-6h-72zm36,21c4.2757,0 7.7501,3.225 7.75,7.2188-.017,.5019-.053,1.069-.0937,1.6562 .5842,.4388 .6357,1.7422 .0625,3.0938-.2069,.4878-.4697,.9072-.75,1.25-.0907,.424-.1333,.7562-.25,1.25-.3176,.9535-1.5822,2.8161-2.5312,4.2812-.0612,.9744-.0577,1.9482 .0625,2.9375 1.5978,1.3905 4.5578,2.4514 6.9688,3.4688 .9995-.4157 1.9192-.8408 2.5625-1.375 .1571-.9165 .1406-1.7255 .0625-2.5312-.7829-1.0445-1.6599-2.2603-1.875-2.9062-.0694-.3181-.0988-.5305-.1562-.8125-.008-.0088-.0232-.0222-.0312-.0312-.2406-.2709-.4817-.6197-.6562-1.0312-.4527-1.0674-.3825-2.1043 .125-2.375-.0357-.427-.0545-.813-.0625-1.1562 0-2.9953 2.6057-5.4375 5.8125-5.4375 3.2068,0 5.8125,2.4422 5.8125,5.4375-.0127,.3764-.0632,.7783-.0937,1.2188 .4382,.3291 .4924,1.2988 .0625,2.3125-.1552,.3659-.3523,.6804-.5625,.9375-.068,.318-.1,.5672-.1875,.9375-.2382,.7151-1.1632,2.1199-1.875,3.2188-.0459,.7308-.0589,1.4768 .0312,2.2188 2.2258,1.937 8.0222,2.9672 8.0312,4.625l.7812,5.0625c0,1.0173-1.5144,1.9251-3.9062,2.5625l-.4375,1.4375a.8432,.8438 0 0,1 -.5,.5312c-.1088,.0421-.1705,.1321-.4688,.2188-1.5711,.4565-3.9976,.7812-6.6875,.7812-2.5124,0-4.746-.2789-6.3125-.6875l-.4688,1.6562a1.1242,1.1251 0 0,1 -.6562,.7188c-.1451,.0562-.2586,.1657-.6562,.2812-2.0948,.6086-5.3197,1.0312-8.9062,1.0312-3.5865,0-6.7802-.4226-8.875-1.0312-.3977-.1155-.5111-.225-.6562-.2812a1.1242,1.1251 0 0,1 -.6875-.75l-.4062-1.6562c-1.5706,.4145-3.8404,.7188-6.375,.7188-2.6899,0-5.0852-.3248-6.6562-.7812-.2982-.0867-.3599-.1766-.4688-.2188a.8432,.8438 0 0,1 -.5312-.5625l-.3438-1.375c-2.4518-.6384-4-1.5619-4-2.5938l.7812-5.0625c-.009-1.937 5.7466-2.754 8-4.625 .1571-.9165 .1406-1.7255 .0625-2.5312-.7829-1.0445-1.6599-2.2603-1.875-2.9062-.0695-.3181-.0988-.5305-.1562-.8125-.008-.0088-.0233-.0222-.0312-.0312-.2406-.2709-.4817-.6197-.6562-1.0312-.4527-1.0674-.3825-2.1043 .125-2.375-.0357-.427-.0545-.813-.0625-1.1562 0-2.9953 2.6057-5.4375 5.8125-5.4375 3.2068,0 5.8125,2.4422 5.8125,5.4375-.0127,.3764-.0631,.7783-.0937,1.2188 .4381,.3291 .4924,1.2988 .0625,2.3125-.1552,.3659-.3523,.6804-.5625,.9375-.068,.318-.1,.5672-.1875,.9375-.2382,.7151-1.1632,2.1199-1.875,3.2188-.0459,.7308-.0589,1.4768 .0312,2.2188 .57,.496 1.3688,.9386 2.25,1.3438 2.4497-1.0395 5.5898-2.0331 7.2812-3.4375 .2094-1.222 .1978-2.2694 .0937-3.3438-1.0439-1.3927-2.2444-3.0137-2.5312-3.875-.0926-.4242-.1421-.7177-.2188-1.0938-.0107-.0118-.0205-.0192-.0312-.0312-.3208-.3612-.6423-.8262-.875-1.375-.6036-1.4232-.5204-2.8265 .1562-3.1875-.0476-.5693-.0521-1.1048-.0625-1.5625-0-3.9938 3.4742-7.2188 7.75-7.2188z"/>
</clipPath>
<filter width="1.384" x="-.192" y="-.192" height="1.384" color-interpolation-filters="sRGB" id="filter3794">
<feGaussianBlur stdDeviation="5.28"/>
</filter>
<linearGradient gradientTransform="matrix(1.00587 0 0 .99417 100 0)" id="ButtonShadow-0" y1="92.54" y2="7.017" x2="0" gradientUnits="userSpaceOnUse">
<stop offset="0"/>
<stop offset="1" stop-opacity=".588"/>
</linearGradient>
<linearGradient gradientTransform="matrix(1.02381 0 0 1.0119 -1.14286 -98.07143)" id="linearGradient3780" xlink:href="#ButtonShadow-0" y1="6.132" y2="90.239" x2="0" gradientUnits="userSpaceOnUse"/>
<linearGradient gradientTransform="translate(0 -97)" id="linearGradient3721" xlink:href="#ButtonShadow-0" y1="6.132" y2="90.239" x2="0" gradientUnits="userSpaceOnUse"/>
<linearGradient gradientTransform="translate(-150.60551 6.01414)" xlink:href="#linearGradient4045" id="linearGradient3337" y1="122" y2="53.998" gradientUnits="userSpaceOnUse" x2="0"/>
<linearGradient id="linearGradient4045">
<stop offset="0" stop-color="#7f825f"/>
<stop offset=".262" stop-color="#51543c"/>
<stop offset=".661" stop-color="#1d2110"/>
<stop offset="1" stop-color="#1d240d"/>
</linearGradient>
<linearGradient gradientTransform="matrix(1.00577 0 0 .99392 -151.11324 6.34437)" xlink:href="#linearGradient4071" id="linearGradient3339" y1="54" x1="83.217" y2="131.886" gradientUnits="userSpaceOnUse" x2="82.505"/>
<linearGradient gradientTransform="translate(90)" id="linearGradient3851" xlink:href="#linearGradient3700" y1="90" y2="5.988" x2="0" gradientUnits="userSpaceOnUse"/>
<linearGradient id="linearGradient3737">
<stop offset="0" stop-color="#fff"/>
<stop offset="1" stop-color="#fff" stop-opacity="0"/>
</linearGradient>
<linearGradient id="linearGradient3700">
<stop offset="0" stop-color="#da8714"/>
<stop offset="1" stop-color="#f4d468"/>
</linearGradient>
<linearGradient id="linearGradient4071">
<stop offset="0" stop-color="#34432e"/>
<stop offset="1" stop-color="#090909"/>
</linearGradient>
<linearGradient id="linearGradient3188" xlink:href="#linearGradient3737" y1="6" y2="63.893" x2="0" gradientUnits="userSpaceOnUse"/>
<linearGradient id="linearGradient3617" xlink:href="#linearGradient3700" y1="90" y2="5.988" x2="0" gradientUnits="userSpaceOnUse"/>
<linearGradient id="linearGradient3613" xlink:href="#linearGradient3737" y1="20.221" y2="138.661" x2="0" gradientUnits="userSpaceOnUse"/>
<radialGradient cx="69.448" cy="51.695" gradientTransform="matrix(0 2.38788 -2.61896 0 64.64451 -97.51189)" id="radialGradient3334" r="31" gradientUnits="userSpaceOnUse">
<stop offset="0" stop-color="#7f825f"/>
<stop offset=".262" stop-color="#464832"/>
<stop offset=".661" stop-color="#090908"/>
<stop offset="1" stop-color="#1d240d"/>
</radialGradient>
<radialGradient cx="48" cy="90.172" gradientTransform="matrix(1.15731 0 0 .99591 -7.55102 .19713)" r="42" id="radialGradient3619" xlink:href="#linearGradient3737" gradientUnits="userSpaceOnUse"/>
</defs>
<path opacity=".08" fill="url(#linearGradient3780)" d="m12-95.0312c-5.5111,0-10.0312,4.5202-10.0312,10.0312v71c0,5.5111 4.5202,10.0312 10.0312,10.0312h72c5.5111,0 10.0312-4.5202 10.0312-10.0312v-71c0-5.5111-4.5202-10.0312-10.0312-10.0312h-72z" transform="scale(1 -1)"/>
<path opacity=".1" fill="url(#linearGradient3780)" d="m12-94.0312c-4.9716,0-9.0312,4.0596-9.0312,9.0312v71c0,4.9716 4.0596,9.0312 9.0312,9.0312h72c4.9716,0 9.0312-4.0596 9.0312-9.0312v-71c0-4.9716-4.0596-9.0312-9.0312-9.0312h-72z" transform="scale(1 -1)"/>
<path opacity=".2" fill="url(#linearGradient3780)" d="m12-93c-4.4091,0-8,3.5909-8,8v71c0,4.4091 3.5909,8 8,8h72c4.4091,0 8-3.5909 8-8v-71c0-4.4091-3.5909-8-8-8h-72z" transform="scale(1 -1)"/>
<path opacity=".3" fill="url(#linearGradient3780)" d="m12-92h72a7,7 0 0,1 7,7v71a7,7 0 0,1 -7,7h-72a7,7 0 0,1 -7-7v-71a7,7 0 0,1 7-7" transform="scale(1 -1)"/>
<path opacity=".45" fill="url(#linearGradient3721)" d="m12-91h72a6,6 0 0,1 6,6v72a6,6 0 0,1 -6,6h-72a6,6 0 0,1 -6-6v-72a6,6 0 0,1 6-6" transform="scale(1 -1)"/>
<path fill="url(#linearGradient3617)" d="m12,6h72a6,6 0 0,1 6,6v72a6,6 0 0,1 -6,6h-72a6,6 0 0,1 -6-6v-72a6,6 0 0,1 6-6"/>
<path opacity=".5" fill="url(#linearGradient3188)" d="m12,6c-3.324,0-6,2.676-6,6v2 68 2c0,.3347 .0413,.6507 .0938,.9688 .0487,.2956 .097,.5969 .1875,.875 .0099,.0304 .0209,.0636 .0312,.0938 .0989,.2878 .2349,.5475 .375,.8125 .1446,.2735 .3156,.5356 .5,.7812 .1844,.2456 .3738,.4735 .5938,.6875 .4399,.4281 .9429,.8145 1.5,1.0938 .2785,.1396 .5735,.2469 .875,.3438-.2562-.1002-.4867-.2363-.7188-.375-.0074-.0044-.0239,.0045-.0312,0-.0319-.0193-.0623-.0425-.0938-.0625-.1204-.0767-.231-.1635-.3438-.25-.1062-.0808-.2133-.1611-.3125-.25-.1779-.1614-.3475-.3454-.5-.5312-.1076-.1303-.2184-.2653-.3125-.4062-.0251-.0384-.0384-.0859-.0625-.125-.0648-.103-.1302-.2045-.1875-.3125-.101-.1947-.2057-.4157-.2812-.625-.008-.0218-.0236-.0405-.0312-.0625-.0318-.0919-.0358-.1868-.0625-.2812-.0303-.1066-.0704-.203-.0938-.3125-.0729-.3415-.125-.6982-.125-1.0625v-2-68-2c0-2.7818 2.2182-5 5-5h2 68 2c2.7818,0 5,2.2182 5,5v2 68 2c0,.3643-.0521,.721-.125,1.0625-.0442,.2069-.0884,.3977-.1562,.5938-.0077,.022-.0233,.0407-.0312,.0625-.0627,.1737-.1384,.3674-.2188,.5312-.0416,.0828-.079,.17-.125,.25-.0546,.0972-.1268,.1883-.1875,.2812-.0941,.141-.2049,.276-.3125,.4062-.1432,.1744-.3031,.347-.4688,.5-.0112,.0102-.02,.0212-.0312,.0312-.1384,.1256-.2851,.2344-.4375,.3438-.1026,.0731-.2043,.1534-.3125,.2188-.0074,.0045-.0238-.0044-.0312,0-.232,.1387-.4625,.2748-.7188,.375 .3015-.0968 .5965-.2041 .875-.3438 .5571-.2792 1.0601-.6657 1.5-1.0938 .22-.214 .4094-.4419 .5938-.6875 .1844-.2456 .3554-.5077 .5-.7812 .1401-.265 .2761-.5247 .375-.8125 .0104-.0308 .0213-.0627 .0312-.0938 .0905-.2781 .1388-.5794 .1875-.875 .0524-.318 .0938-.634 .0938-.9688v-2-68-2c0-3.324-2.676-6-6-6h-72z"/>
<path opacity=".2" fill="url(#radialGradient3619)" d="m12,90c-3.324,0-6-2.676-6-6v-2-68-2c0-.3347 .0413-.6507 .0938-.9688 .0487-.2956 .097-.5969 .1875-.875 .0099-.0304 .0209-.0636 .0312-.0938 .0989-.2878 .2349-.5475 .375-.8125 .1446-.2735 .3156-.5356 .5-.7812 .1844-.2456 .3738-.4735 .5938-.6875 .4399-.4281 .9429-.8145 1.5-1.0938 .2785-.1396 .5735-.2469 .875-.3438-.2562,.1002-.4867,.2363-.7188,.375-.0074,.0044-.0239-.0045-.0312,0-.0319,.0193-.0623,.0425-.0938,.0625-.1204,.0767-.231,.1635-.3438,.25-.1062,.0808-.2133,.1611-.3125,.25-.1779,.1614-.3475,.3454-.5,.5312-.1076,.1303-.2184,.2653-.3125,.4062-.0251,.0384-.0384,.0859-.0625,.125-.0648,.103-.1302,.2045-.1875,.3125-.101,.1947-.2057,.4157-.2812,.625-.008,.0218-.0236,.0405-.0312,.0625-.0318,.092-.0358,.1868-.0625,.2812-.0303,.1066-.0704,.203-.0938,.3125-.0729,.3415-.125,.6982-.125,1.0625v2 68 2c0,2.7818 2.2182,5 5,5h2 68 2c2.7818,0 5-2.2182 5-5v-2-68-2c0-.3643-.0521-.721-.125-1.0625-.0442-.2069-.0884-.3977-.1562-.5938-.0077-.022-.0233-.0407-.0312-.0625-.0627-.1737-.1384-.3674-.2188-.5312-.0416-.0828-.079-.17-.125-.25-.0546-.0972-.1268-.1883-.1875-.2812-.0941-.141-.2049-.276-.3125-.4062-.1432-.1745-.3031-.347-.4688-.5-.0112-.0102-.02-.0211-.0312-.0312-.1384-.1256-.2851-.2344-.4375-.3438-.1026-.0732-.2043-.1534-.3125-.2188-.0074-.0045-.0238,.0044-.0312,0-.232-.1387-.4625-.2748-.7188-.375 .3015,.0968 .5965,.2041 .875,.3438 .5571,.2792 1.0601,.6657 1.5,1.0938 .22,.214 .4094,.4419 .5938,.6875 .1844,.2456 .3554,.5077 .5,.7812 .1401,.265 .2761,.5247 .375,.8125 .0104,.0308 .0213,.0627 .0312,.0938 .0905,.2781 .1388,.5794 .1875,.875 .0524,.318 .0938,.634 .0938,.9688v2 68 2c0,3.324-2.676,6-6,6h-72z"/>
<g transform="matrix(.89039 0 0 .94056 104.32764 -37.82484)">
<path fill="url(#radialGradient3334)" stroke="url(#linearGradient3337)" stroke-linejoin="round" stroke-linecap="round" stroke-width=".985" d="m-32.0982,90.5141-30.5839,37.0073-30.4306-37.0073 14.0073,0 0-30.0073 33,0 0,30.0073 14.0073,0z"/>
<path opacity=".4" fill="none" stroke="url(#linearGradient3339)" stroke-linejoin="round" stroke-linecap="round" stroke-width=".985" d="m-78.1055,61.5141c0,0 0,30 0,30 0,0-13.0073,0-13.0073,0 0,0 28.4444,34 28.4444,34 0,0 28.5701-34 28.5701-34 0,0-13.0073,0-13.0073,0 0,0 0-30 0-30 0,0-31,0-31,0z"/>
</g>
<g transform="translate(-.22293 .37509)">
<path opacity=".1" fill="url(#linearGradient3613)" filter="url(#filter3794)" stroke="#fff" stroke-linecap="round" stroke-width=".5" d="m27,15h42a12,12 0 0,1 12,12v42a12,12 0 0,1 -12,12h-42a12,12 0 0,1 -12-12v-42a12,12 0 0,1 12-12" clip-path="url(#clipPath3613)"/>
</g>
</svg>
