<svg xmlns="http://www.w3.org/2000/svg" viewBox="0 0 96 96" xmlns:xlink="http://www.w3.org/1999/xlink">
<defs>
<clipPath id="clipPath3662">
<path fill="#f00" stroke="#000" d="m17,14h62a3,3 0 0,1 3,3v62a3,3 0 0,1 -3,3h-62a3,3 0 0,1 -3-3v-62a3,3 0 0,1 3-3"/>
</clipPath>
<clipPath id="clipPath3613">
<path fill="#fff" d="m12,6h72a6,6 0 0,1 6,6v72a6,6 0 0,1 -6,6h-72a6,6 0 0,1 -6-6v-72a6,6 0 0,1 6-6"/>
</clipPath>
<filter color-interpolation-filters="sRGB" id="filter3674">
<feGaussianBlur stdDeviation="1.02"/>
</filter>
<filter width="1.384" x="-.192" y="-.192" height="1.384" color-interpolation-filters="sRGB" id="filter3794">
<feGaussianBlur stdDeviation="5.28"/>
</filter>
<linearGradient gradientTransform="matrix(1.00587 0 0 .99417 100 0)" id="ButtonShadow-0" y1="92.54" y2="7.017" x2="0" gradientUnits="userSpaceOnUse">
<stop offset="0"/>
<stop offset="1" stop-opacity=".588"/>
</linearGradient>
<linearGradient xlink:href="#linearGradient3700" id="linearGradient3076" y1="90" y2="5.988" gradientUnits="userSpaceOnUse" x2="0"/>
<linearGradient gradientTransform="matrix(-1 0 0 -1 96 96)" id="linearGradient3703" xlink:href="#linearGradient3737" y1="13" x1="83" y2="9" x2="87" gradientUnits="userSpaceOnUse"/>
<linearGradient gradientTransform="translate(-172 -133.42373)" xlink:href="#linearGradient3700" id="linearGradient3066" y1="90" y2="5.988" gradientUnits="userSpaceOnUse" x2="0"/>
<linearGradient gradientTransform="matrix(1.02381 0 0 1.0119 -1.14286 -98.07143)" id="linearGradient3780" xlink:href="#ButtonShadow-0" y1="6.132" y2="90.239" x2="0" gradientUnits="userSpaceOnUse"/>
<linearGradient gradientTransform="translate(0 -97)" id="linearGradient3721" xlink:href="#ButtonShadow-0" y1="6.132" y2="90.239" x2="0" gradientUnits="userSpaceOnUse"/>
<linearGradient gradientTransform="matrix(-1 0 0 1 96 0)" id="linearGradient3695" xlink:href="#linearGradient3737" y1="13" x1="83" y2="9" x2="87" gradientUnits="userSpaceOnUse"/>
<linearGradient id="linearGradient3737">
<stop offset="0" stop-color="#fff"/>
<stop offset="1" stop-color="#fff" stop-opacity="0"/>
</linearGradient>
<linearGradient id="linearGradient3700">
<stop offset="0" stop-color="#2276c5"/>
<stop offset="1" stop-color="#68baf4"/>
</linearGradient>
<linearGradient gradientTransform="matrix(1 0 0 -1 0 96)" id="linearGradient3701" xlink:href="#linearGradient3737" y1="13" x1="83" y2="9" x2="87" gradientUnits="userSpaceOnUse"/>
<linearGradient id="linearGradient3613" xlink:href="#linearGradient3737" y1="20.221" y2="138.661" x2="0" gradientUnits="userSpaceOnUse"/>
<linearGradient id="linearGradient3691" xlink:href="#linearGradient3737" y1="13" x1="83" y2="9" x2="87" gradientUnits="userSpaceOnUse"/>
<linearGradient gradientTransform="translate(-.20339 -.20339)" xlink:href="#linearGradient3737" id="linearGradient3871" y1="6" y2="63.893" gradientUnits="userSpaceOnUse" x2="0"/>
<radialGradient cx="48" cy="90.172" gradientTransform="matrix(1.15731 0 0 .99591 -7.55102 .19713)" r="42" id="radialGradient3619" xlink:href="#linearGradient3737" gradientUnits="userSpaceOnUse"/>
</defs>
<path opacity=".08" fill="url(#linearGradient3780)" d="m12-95.0312c-5.5111,0-10.0312,4.5202-10.0312,10.0312v71c0,5.5111 4.5202,10.0312 10.0312,10.0312h72c5.5111,0 10.0312-4.5202 10.0312-10.0312v-71c0-5.5111-4.5202-10.0312-10.0312-10.0312h-72z" transform="scale(1 -1)"/>
<path opacity=".1" fill="url(#linearGradient3780)" d="m12-94.0312c-4.9716,0-9.0312,4.0596-9.0312,9.0312v71c0,4.9716 4.0596,9.0312 9.0312,9.0312h72c4.9716,0 9.0312-4.0596 9.0312-9.0312v-71c0-4.9716-4.0596-9.0312-9.0312-9.0312h-72z" transform="scale(1 -1)"/>
<path opacity=".2" fill="url(#linearGradient3780)" d="m12-93c-4.4091,0-8,3.5909-8,8v71c0,4.4091 3.5909,8 8,8h72c4.4091,0 8-3.5909 8-8v-71c0-4.4091-3.5909-8-8-8h-72z" transform="scale(1 -1)"/>
<path opacity=".3" fill="url(#linearGradient3780)" d="m12-92h72a7,7 0 0,1 7,7v71a7,7 0 0,1 -7,7h-72a7,7 0 0,1 -7-7v-71a7,7 0 0,1 7-7" transform="scale(1 -1)"/>
<path opacity=".45" fill="url(#linearGradient3721)" d="m12-91h72a6,6 0 0,1 6,6v72a6,6 0 0,1 -6,6h-72a6,6 0 0,1 -6-6v-72a6,6 0 0,1 6-6" transform="scale(1 -1)"/>
<path fill="url(#linearGradient3076)" d="m12,6h72a6,6 0 0,1 6,6v72a6,6 0 0,1 -6,6h-72a6,6 0 0,1 -6-6v-72a6,6 0 0,1 6-6"/>
<path opacity=".4" fill="#d7d7f4" d="m12,6c-3.324,0-6,2.676-6,6v72c0,3.324 2.676,6 6,6h72c3.324,0 6-2.676 6-6v-72c0-3.324-2.676-6-6-6h-72zm5,8 62,0c1.662,0 3,1.338 3,3v62c0,1.662-1.338,3-3,3h-62c-1.662,0-3-1.338-3-3v-62c0-1.662 1.338-3 3-3z"/>
<path opacity=".5" fill="url(#linearGradient3871)" d="m11.7966,5.7966c-3.324,0-6,2.676-6,6v2 68 2c0,.3347 .0414,.6507 .0938,.9688 .0487,.2956 .097,.5969 .1875,.875 .0099,.0304 .0209,.0636 .0312,.0938 .0989,.2878 .2349,.5475 .375,.8125 .1446,.2735 .3156,.5356 .5,.7812 .1844,.2456 .3738,.4735 .5938,.6875 .4399,.4281 .9429,.8145 1.5,1.0938 .2785,.1396 .5735,.2469 .875,.3438-.2562-.1002-.4867-.2363-.7188-.375-.0074-.0044-.0239,.0045-.0312,0-.0319-.0193-.0623-.0425-.0938-.0625-.1204-.0767-.231-.1635-.3438-.25-.1062-.0808-.2133-.1611-.3125-.25-.1779-.1614-.3475-.3454-.5-.5312-.1076-.1303-.2184-.2653-.3125-.4062-.0251-.0384-.0384-.0859-.0625-.125-.0648-.103-.1302-.2045-.1875-.3125-.101-.1947-.2057-.4157-.2812-.625-.008-.0218-.0236-.0405-.0312-.0625-.0318-.0919-.0358-.1868-.0625-.2812-.0303-.1066-.0704-.203-.0938-.3125-.0729-.3415-.125-.6982-.125-1.0625v-2-68-2c0-2.7818 2.2182-5 5-5h2 68 2c2.7818,0 5,2.2182 5,5v2 68 2c0,.3643-.0521,.721-.125,1.0625-.0442,.2069-.0884,.3977-.1562,.5938-.0077,.022-.0233,.0407-.0312,.0625-.0627,.1737-.1384,.3674-.2188,.5312-.0416,.0828-.079,.17-.125,.25-.0546,.0972-.1268,.1883-.1875,.2812-.0941,.141-.2049,.276-.3125,.4062-.1432,.1744-.3031,.347-.4688,.5-.0112,.0102-.02,.0212-.0312,.0312-.1384,.1256-.2851,.2344-.4375,.3438-.1026,.0731-.2043,.1534-.3125,.2188-.0074,.0045-.0238-.0044-.0312,0-.232,.1387-.4625,.2748-.7188,.375 .3015-.0968 .5965-.2041 .875-.3438 .5571-.2792 1.0601-.6657 1.5-1.0938 .22-.214 .4094-.4419 .5938-.6875 .1844-.2456 .3554-.5077 .5-.7812 .1401-.265 .2761-.5247 .375-.8125 .0104-.0308 .0213-.0627 .0312-.0938 .0905-.2781 .1388-.5794 .1875-.875 .0524-.318 .0938-.634 .0938-.9688v-2-68-2c0-3.324-2.676-6-6-6h-72z"/>
<path opacity=".2" fill="url(#radialGradient3619)" d="m12,90c-3.324,0-6-2.676-6-6v-2-68-2c0-.3347 .0413-.6507 .0938-.9688 .0487-.2956 .097-.5969 .1875-.875 .0099-.0304 .0209-.0636 .0312-.0938 .0989-.2878 .2349-.5475 .375-.8125 .1446-.2735 .3156-.5356 .5-.7812 .1844-.2456 .3738-.4735 .5938-.6875 .4399-.4281 .9429-.8145 1.5-1.0938 .2785-.1396 .5735-.2469 .875-.3438-.2562,.1002-.4867,.2363-.7188,.375-.0074,.0044-.0239-.0045-.0312,0-.0319,.0193-.0623,.0425-.0938,.0625-.1204,.0767-.231,.1635-.3438,.25-.1062,.0808-.2133,.1611-.3125,.25-.1779,.1614-.3475,.3454-.5,.5312-.1076,.1303-.2184,.2653-.3125,.4062-.0251,.0384-.0384,.0859-.0625,.125-.0648,.103-.1302,.2045-.1875,.3125-.101,.1947-.2057,.4157-.2812,.625-.008,.0218-.0236,.0405-.0312,.0625-.0318,.092-.0358,.1868-.0625,.2812-.0303,.1066-.0704,.203-.0938,.3125-.0729,.3415-.125,.6982-.125,1.0625v2 68 2c0,2.7818 2.2182,5 5,5h2 68 2c2.7818,0 5-2.2182 5-5v-2-68-2c0-.3643-.0521-.721-.125-1.0625-.0442-.2069-.0884-.3977-.1562-.5938-.0077-.022-.0233-.0407-.0312-.0625-.0627-.1737-.1384-.3674-.2188-.5312-.0416-.0828-.079-.17-.125-.25-.0546-.0972-.1268-.1883-.1875-.2812-.0941-.141-.2049-.276-.3125-.4062-.1432-.1745-.3031-.347-.4688-.5-.0112-.0102-.02-.0211-.0312-.0312-.1384-.1256-.2851-.2344-.4375-.3438-.1026-.0732-.2043-.1534-.3125-.2188-.0074-.0045-.0238,.0044-.0312,0-.232-.1387-.4625-.2748-.7188-.375 .3015,.0968 .5965,.2041 .875,.3438 .5571,.2792 1.0601,.6657 1.5,1.0938 .22,.214 .4094,.4419 .5938,.6875 .1844,.2456 .3554,.5077 .5,.7812 .1401,.265 .2761,.5247 .375,.8125 .0104,.0308 .0213,.0627 .0312,.0938 .0905,.2781 .1388,.5794 .1875,.875 .0524,.318 .0938,.634 .0938,.9688v2 68 2c0,3.324-2.676,6-6,6h-72z"/>
<path fill="url(#linearGradient3066)" d="m-160-127.424h72a6,6 0 0,1 6,6v72.0003a6,6 0 0,1 -6,6h-72a6,6 0 0,1 -6-6v-72.0003a6,6 0 0,1 6-6"/>
<path fill="#f00" d="m-155-119.424h62a3,3 0 0,1 3,3v62.0003a3,3 0 0,1 -3,3h-62a3,3 0 0,1 -3-3v-62.0003a3,3 0 0,1 3-3"/>
<path opacity=".2" fill="none" filter="url(#filter3674)" stroke="#000" stroke-width="2" d="m17,14h62a3,3 0 0,1 3,3v62a3,3 0 0,1 -3,3h-62a3,3 0 0,1 -3-3v-62a3,3 0 0,1 3-3" clip-path="url(#clipPath3662)" transform="translate(154.91525 -121.62712)"/>
<g opacity=".3" transform="translate(.40678 -.40678)">
<path fill="#fff" d="m16,12c-2.216,0-4,1.784-4,4v64c0,2.216 1.784,4 4,4h64c2.216,0 4-1.784 4-4v-64c0-2.216-1.784-4-4-4h-64zm1,2 62,0c1.662,0 3,1.338 3,3v62c0,1.662-1.338,3-3,3h-62c-1.662,0-3-1.338-3-3v-62c0-1.662 1.338-3 3-3z"/>
<path fill="url(#linearGradient3691)" d="m81,13 5-5 2,2-5,5-2-2z"/>
<path fill="url(#linearGradient3695)" d="m15,13-5-5-2,2 5,5 2-2z"/>
<path fill="url(#linearGradient3701)" d="m81,83 5,5 2-2-5-5-2,2z"/>
<path fill="url(#linearGradient3703)" d="m15,83-5,5-2-2 5-5 2,2z"/>
</g>
<path opacity=".05" d="m17,14c-1.662,0-3,1.338-3,3v62c0,1.662 1.338,3 3,3h62c1.662,0 3-1.338 3-3v-62c0-1.662-1.338-3-3-3h-62zm-.0625,2.9375c.0048-.0048 .0191,0 .0625,0h62c.0869,0 .0625-.0244 .0625,.0625v62c0,.0869 .0244,.0625-.0625,.0625h-62c-.0869,0-.0625,.0244-.0625-.0625v-62c0-.0434-.0048-.0577 0-.0625z"/>
<path opacity=".12" d="m17,14c-1.662,0-3,1.338-3,3v62c0,1.662 1.338,3 3,3h62c1.662,0 3-1.338 3-3v-62c0-1.662-1.338-3-3-3h-62zm0,1.8438 62,0c.6703,0 1.1562,.486 1.1562,1.1562v62c0,.6703-.486,1.1562-1.1562,1.1562h-62c-.6703,0-1.1562-.486-1.1562-1.1562v-62c0-.6703 .486-1.1562 1.1562-1.1562z"/>
<path opacity=".15" d="m17,14c-1.662,0-3,1.338-3,3v62c0,1.662 1.338,3 3,3h62c1.662,0 3-1.338 3-3v-62c0-1.662-1.338-3-3-3h-62zm0,.9688 62,0c1.137,0 2.0312,.8943 2.0312,2.0312v62c0,1.137-.8943,2.0312-2.0312,2.0312h-62c-1.137,0-2.0312-.8943-2.0312-2.0312v-62c0-1.137 .8943-2.0312 2.0312-2.0312z"/>
<g transform="translate(-.40678 .40678)">
<path opacity=".1" fill="url(#linearGradient3613)" filter="url(#filter3794)" stroke="#fff" stroke-linecap="round" stroke-width=".5" d="m27,15h42a12,12 0 0,1 12,12v42a12,12 0 0,1 -12,12h-42a12,12 0 0,1 -12-12v-42a12,12 0 0,1 12-12" clip-path="url(#clipPath3613)"/>
</g>
<path opacity=".08" d="m47,23.0938c-4.9031,0-8.9062,4.0031-8.9062,8.9062 0,4.9031 4.0031,8.9062 8.9062,8.9062 4.9031,0 8.9062-4.0031 8.9062-8.9062 0-4.9032-4.0031-8.9062-8.9062-8.9062zm-11.375,18c-.0005,.0001-.1557,.0624-.1562,.0625-.0005,.0002-.1557,.0311-.1562,.0312-.0005,.0002-.1558,.0623-.1562,.0625-.0005,.0002-.1558,.0935-.1562,.0938-.0005,.0003-.1246,.0934-.125,.0938-.0004,.0003-.1246,.0934-.125,.0938-.0004,.0004-.1246,.1246-.125,.125-.0004,.0004-.1247,.1246-.125,.125-.0003,.0004-.0934,.1245-.0938,.125-.0003,.0005-.0935,.1558-.0938,.1562-.0003,.0005-.0623,.1557-.0625,.1562-.0002,.0005-.0623,.1557-.0625,.1562-.0002,.0005-.0624,.1557-.0625,.1562-.0001,.0005-.0312,.1557-.0312,.1562-.0001,.0005 0,.1557 0,.1562-0,.0005 .0009,.1174 0,.1562-.0002,.0078-0,.0312 0,.0312v5.9688c-0,.0003-0,.0934 0,.0938 0,.0003-0,.0934 0,.0938 0,.0003-0,.0934 0,.0938 0,.0003 .0312,.0934 .0312,.0938 .0001,.0003-.0001,.0934 0,.0938 .0001,.0003 .0312,.0934 .0312,.0938 .0001,.0003 .0311,.0935 .0312,.0938 .0001,.0003 .0311,.0622 .0312,.0625 .0001,.0003 .0624,.0935 .0625,.0938 .0001,.0003 .0311,.0935 .0312,.0938 .0001,.0003 .0311,.0935 .0312,.0938 .0002,.0003 .0623,.0622 .0625,.0625 .0002,.0003 .0623,.0935 .0625,.0938 .0002,.0002 .0623,.0623 .0625,.0625 .0002,.0002 .0623,.0623 .0625,.0625 .0002,.0002 .0623,.0623 .0625,.0625 .0002,.0002 .0623,.0623 .0625,.0625 .0002,.0002 .0623,.0623 .0625,.0625 .0002,.0002 .0622,.0623 .0625,.0625 .0002,.0002 .0935,.0623 .0938,.0625 .0003,.0002 .0622,.0623 .0625,.0625 .0003,.0002 .0935,.0311 .0938,.0312 .0003,.0001 .0935,.0311 .0938,.0312 .0003,.0001 .0935,.0624 .0938,.0625 .0003,.0001 .0622,.0311 .0625,.0312 .0003,.0001 .0934,.0312 .0938,.0312 .0003,.0001 .0934,.0312 .0938,.0312 .0003,.0001 .0934-.0001 .0938,0 .0003,.0001 .0934,.0312 .0938,.0312 .0003,0 .0934-0 .0938,0 .0003,0 .0934-0 .0938,0 .0003,0 .0934,0 .0938,0h4.0938v14.1875h-4.0938c-.0003-0-.0934-0-.0938,0-.0003,0-.0934-0-.0938,0-.0003,0-.0934-0-.0938,0-.0003,0-.0934,.0312-.0938,.0312-.0003,.0001-.0934-.0001-.0938,0-.0003,.0001-.0934,.0312-.0938,.0312-.0003,.0001-.0935,.0311-.0938,.0312-.0003,.0001-.0622,.0311-.0625,.0312-.0003,.0001-.0935,.0624-.0938,.0625-.0003,.0001-.0935,.0311-.0938,.0312-.0003,.0001-.0935,.0311-.0938,.0312-.0003,.0002-.0622,.0623-.0625,.0625-.0003,.0002-.0935,.0623-.0938,.0625-.0002,.0002-.0623,.0623-.0625,.0625-.0002,.0002-.0623,.0623-.0625,.0625-.0002,.0002-.0623,.0623-.0625,.0625-.0002,.0002-.0623,.0623-.0625,.0625-.0002,.0002-.0623,.0623-.0625,.0625-.0002,.0002-.0623,.0623-.0625,.0625-.0002,.0002-.0623,.0935-.0625,.0938-.0002,.0003-.0623,.0622-.0625,.0625-.0002,.0003-.0311,.0935-.0312,.0938-.0001,.0003-.0311,.0935-.0312,.0938-.0001,.0003-.0624,.0935-.0625,.0938-.0001,.0003-.0311,.0622-.0312,.0625-.0001,.0003-.0312,.0935-.0312,.0938-.0001,.0003-.0312,.0935-.0312,.0938-.0001,.0003 .0001,.0935 0,.0938-.0001,.0003-.0312,.0934-.0312,.0938-0,.0003 0,.0934 0,.0938-0,.0003 0,.0934 0,.0938-0,.0003-0,.0934 0,.0938v6c-0,.0003-0,.0934 0,.0938 0,.0003-0,.0934 0,.0938 0,.0003-0,.0934 0,.0938 0,.0003 .0312,.0935 .0312,.0938 .0001,.0003-.0001,.0935 0,.0938 .0001,.0003 .0312,.0935 .0312,.0938 .0001,.0003 .0311,.0935 .0312,.0938 .0001,.0003 .0311,.0622 .0312,.0625 .0001,.0003 .0624,.0935 .0625,.0938 .0001,.0003 .0311,.0935 .0312,.0938 .0001,.0003 .0311,.0935 .0312,.0938 .0002,.0003 .0623,.0622 .0625,.0625 .0002,.0003 .0623,.0935 .0625,.0938 .0002,.0002 .0623,.0623 .0625,.0625 .0002,.0002 .0623,.0623 .0625,.0625 .0002,.0002 .0623,.0623 .0625,.0625 .0002,.0002 .0623,.0623 .0625,.0625 .0002,.0002 .0623,.0623 .0625,.0625 .0002,.0002 .0622,.0623 .0625,.0625 .0002,.0002 .0935,.0623 .0938,.0625 .0003,.0002 .0622,.0623 .0625,.0625 .0003,.0002 .0935,.0311 .0938,.0312 .0003,.0001 .0935,.0311 .0938,.0312 .0003,.0001 .0935,.0624 .0938,.0625 .0003,.0001 .0622,.0311 .0625,.0312 .0003,.0001 .0934,.0312 .0938,.0312 .0003,.0001 .0934,.0312 .0938,.0312 .0003,.0001 .0934-.0001 .0938,0 .0003,.0001 .0934,.0312 .0938,.0312 .0003,0 .0934-0 .0938,0 .0003,0 .0934-0 .0938,0 .0003,0 .0934,0 .0938,0h24c.0003,0 .0934,0 .0938,0 .0003-0 .0934,0 .0938,0 .0003-0 .0934,0 .0938,0 .0003-0 .0934-.0312 .0938-.0312 .0003-.0001 .0934,.0001 .0938,0 .0003-.0001 .0934-.0312 .0938-.0312 .0003-.0001 .0935-.0311 .0938-.0312 .0003-.0001 .0622-.0311 .0625-.0312 .0003-.0001 .0935-.0624 .0938-.0625 .0003-.0001 .0935-.0311 .0938-.0312 .0003-.0001 .0935-.0311 .0938-.0312 .0003-.0002 .0622-.0623 .0625-.0625 .0003-.0002 .0935-.0623 .0938-.0625 .0002-.0002 .0623-.0623 .0625-.0625 .0002-.0002 .0623-.0623 .0625-.0625 .0002-.0002 .0623-.0623 .0625-.0625 .0002-.0002 .0623-.0623 .0625-.0625 .0002-.0002 .0623-.0623 .0625-.0625 .0002-.0002 .0623-.0623 .0625-.0625 .0002-.0002 .0623-.0935 .0625-.0938 .0002-.0003 .0623-.0622 .0625-.0625 .0002-.0003 .0311-.0935 .0312-.0938 .0001-.0003 .0311-.0935 .0312-.0938 .0001-.0003 .0624-.0935 .0625-.0938 .0001-.0003 .0311-.0622 .0312-.0625 .0001-.0003 .0312-.0935 .0312-.0938 .0001-.0003 .0312-.0935 .0312-.0938 .0001-.0003-.0001-.0935 0-.0938 .0001-.0003 .0312-.0934 .0312-.0938 0-.0003-0-.0934 0-.0938 0-.0003-0-.0934 0-.0938 0-.0003 0-.0934 0-.0938v-6c0-.0003 0-.0934 0-.0938-0-.0003 0-.0934 0-.0938-0-.0003 0-.0934 0-.0938-0-.0003-.0312-.0935-.0312-.0938-.0001-.0003 .0001-.0935 0-.0938-.0001-.0003-.0312-.0935-.0312-.0938-.0001-.0003-.0311-.0935-.0312-.0938-.0001-.0003-.0311-.0622-.0312-.0625-.0001-.0003-.0624-.0935-.0625-.0938-.0001-.0003-.0311-.0935-.0312-.0938-.0001-.0003-.0311-.0935-.0312-.0938-.0002-.0003-.0623-.0622-.0625-.0625-.0002-.0003-.0623-.0935-.0625-.0938-.0002-.0002-.0623-.0623-.0625-.0625-.0002-.0002-.0623-.0623-.0625-.0625-.0002-.0002-.0623-.0623-.0625-.0625-.0002-.0002-.0623-.0623-.0625-.0625-.0002-.0002-.0623-.0623-.0625-.0625-.0002-.0002-.0622-.0623-.0625-.0625-.0002-.0002-.0935-.0623-.0938-.0625-.0003-.0002-.0622-.0623-.0625-.0625-.0003-.0002-.0935-.0311-.0938-.0312-.0003-.0001-.0935-.0311-.0938-.0312-.0003-.0001-.0935-.0624-.0938-.0625-.0003-.0001-.0622-.0311-.0625-.0312-.0003-.0001-.0934-.0312-.0938-.0312-.0003-.0001-.0934-.0312-.0938-.0312-.0003-.0001-.0934,.0001-.0938,0-.0003-.0001-.0934-.0312-.0938-.0312-.0003-0-.0934,0-.0938,0-.0003-0-.0934,0-.0938,0-.0003-0-.0934-0-.0938,0h-4.0938v-22.0938c0-.0003 0-.0934 0-.0938-0-.0003 0-.0934 0-.0938-0-.0003 0-.0934 0-.0938-0-.0003-.0312-.0934-.0312-.0938-.0001-.0003 .0001-.0934 0-.0938-.0001-.0003-.0312-.0934-.0312-.0938-.0001-.0003-.0311-.0935-.0312-.0938-.0001-.0003-.0311-.0622-.0312-.0625-.0001-.0003-.0624-.0935-.0625-.0938-.0001-.0003-.0311-.0935-.0312-.0938-.0001-.0003-.0311-.0935-.0312-.0938-.0002-.0003-.0623-.0622-.0625-.0625-.0002-.0003-.0623-.0935-.0625-.0938-.0002-.0002-.0623-.0623-.0625-.0625-.0002-.0002-.0623-.0623-.0625-.0625-.0002-.0002-.0623-.0623-.0625-.0625-.0002-.0002-.0623-.0623-.0625-.0625-.0002-.0002-.0623-.0623-.0625-.0625-.0002-.0002-.0622-.0623-.0625-.0625-.0002-.0002-.0935-.0623-.0938-.0625-.0003-.0002-.0622-.0623-.0625-.0625-.0003-.0002-.0935-.0311-.0938-.0312-.0003-.0001-.0935-.0311-.0938-.0312-.0003-.0001-.0935-.0624-.0938-.0625-.0003-.0001-.0622-.0311-.0625-.0312-.0003-.0001-.0934-.0312-.0938-.0312-.0003-.0001-.0934-.0312-.0938-.0312-.0003-.0001-.0934,.0001-.0938,0-.0003-.0001-.0934-.0312-.0938-.0312-.0003-0-.0934,0-.0938,0-.0003-0-.0934,0-.0938,0-.0003-0-.0934-0-.0938,0h-17.9688c-.0001-0-.0194,0-.0312,0-.0238-0-.027-0-.0625,0-.0002-0-.027,0-.0625,0-.0533-0-.0934-0-.0938,0a.9471,.9471 0 0,0 -.1562,0z"/>
<path opacity=".15" d="m47,24.0312c-4.3879,0-7.9688,3.5808-7.9688,7.9688 0,4.3879 3.5808,7.9688 7.9688,7.9688 4.3879,0 7.9688-3.5808 7.9688-7.9688 0-4.3879-3.5808-7.9688-7.9688-7.9688zm-11.0938,18a.9659,.9659 0 0,0 -.875,.9688v6a.9659,.9659 0 0,0 .9688,.9688h5.0312v16.0625h-5.0312a.9659,.9659 0 0,0 -.9688,.9688v6a.9659,.9659 0 0,0 .9688,.9688h24a.9659,.9659 0 0,0 .9688-.9688v-6a.9659,.9659 0 0,0 -.9688-.9688h-5.0312v-23.0312a.9659,.9659 0 0,0 -.9688-.9688h-18a.9659,.9659 0 0,0 -.0938,0z"/>
<path opacity=".4" d="m47,25c-3.866,0-7,3.134-7,7 0,3.866 3.134,7 7,7 3.866,0 7-3.134 7-7 0-3.866-3.134-7-7-7zm-11,18 0,6 6,0 0,18-6,0 0,6 24,0 0-6-6,0 0-24-18,0z"/>
<path fill="#fff" d="m47,24c-3.866,0-7,3.134-7,7 0,3.866 3.134,7 7,7 3.866,0 7-3.134 7-7 0-3.866-3.134-7-7-7zm-11,18 0,6 6,0 0,18-6,0 0,6 24,0 0-6-6,0 0-24-18,0z"/>
</svg>
