<svg xmlns="http://www.w3.org/2000/svg" viewBox="0 0 96 96" xmlns:xlink="http://www.w3.org/1999/xlink">
<defs>
<clipPath id="clipPath3613">
<path fill="#fff" d="m12,6h72a6,6 0 0,1 6,6v72a6,6 0 0,1 -6,6h-72a6,6 0 0,1 -6-6v-72a6,6 0 0,1 6-6"/>
</clipPath>
<filter width="1.384" x="-.192" y="-.192" height="1.384" color-interpolation-filters="sRGB" id="filter3794">
<feGaussianBlur stdDeviation="5.28"/>
</filter>
<linearGradient gradientTransform="translate(0 -97)" id="linearGradient3721" xlink:href="#ButtonShadow-0" y1="6.132" y2="90.239" x2="0" gradientUnits="userSpaceOnUse"/>
<linearGradient gradientTransform="matrix(1.00587 0 0 .99417 100 0)" id="ButtonShadow-0" y1="92.54" y2="7.017" x2="0" gradientUnits="userSpaceOnUse">
<stop offset="0"/>
<stop offset="1" stop-opacity=".588"/>
</linearGradient>
<linearGradient gradientTransform="matrix(1.02381 0 0 1.0119 -1.14286 -98.07143)" id="linearGradient3780" xlink:href="#ButtonShadow-0" y1="6.132" y2="90.239" x2="0" gradientUnits="userSpaceOnUse"/>
<linearGradient id="linearGradient3617" xlink:href="#linearGradient3614" y1="90" y2="5.988" x2="0" gradientUnits="userSpaceOnUse"/>
<linearGradient id="linearGradient3614">
<stop offset="0" stop-color="#65a31b"/>
<stop offset="1" stop-color="#a0de42"/>
</linearGradient>
<linearGradient id="linearGradient3737">
<stop offset="0" stop-color="#fff"/>
<stop offset="1" stop-color="#fff" stop-opacity="0"/>
</linearGradient>
<linearGradient id="linearGradient3188" xlink:href="#linearGradient3737" y1="6" y2="63.893" x2="0" gradientUnits="userSpaceOnUse"/>
<linearGradient id="linearGradient3613" xlink:href="#linearGradient3737" y1="20.221" y2="138.661" x2="0" gradientUnits="userSpaceOnUse"/>
<linearGradient gradientTransform="matrix(1.02381 0 0 -1.0119 -1.14286 98.07143)" xlink:href="#ButtonShadow-0" id="linearGradient3093" y1="6.132" y2="90.239" gradientUnits="userSpaceOnUse" x2="0"/>
<radialGradient cx="48" cy="90.172" gradientTransform="matrix(1.15731 0 0 .99591 -7.55102 .19713)" r="42" id="radialGradient3619" xlink:href="#linearGradient3737" gradientUnits="userSpaceOnUse"/>
</defs>
<path opacity=".08" fill="url(#linearGradient3093)" d="m12,95.0312c-5.5111,0-10.0312-4.5202-10.0312-10.0312v-71c0-5.5111 4.5202-10.0312 10.0312-10.0312h72c5.5111,0 10.0312,4.5202 10.0312,10.0312v71c0,5.5111-4.5202,10.0312-10.0312,10.0312h-72z"/>
<path opacity=".1" fill="url(#linearGradient3093)" d="m12,94.0312c-4.9716,0-9.0312-4.0596-9.0312-9.0312v-71c0-4.9716 4.0596-9.0312 9.0312-9.0312h72c4.9716,0 9.0312,4.0596 9.0312,9.0312v71c0,4.9716-4.0596,9.0312-9.0312,9.0312h-72z"/>
<path opacity=".2" fill="url(#linearGradient3093)" d="m12,93c-4.4091,0-8-3.5909-8-8v-71c0-4.4091 3.5909-8 8-8h72c4.4091,0 8,3.5909 8,8v71c0,4.4091-3.5909,8-8,8h-72z"/>
<path opacity=".3" fill="url(#linearGradient3780)" d="m12-92h72a7,7 0 0,1 7,7v71a7,7 0 0,1 -7,7h-72a7,7 0 0,1 -7-7v-71a7,7 0 0,1 7-7" transform="scale(1 -1)"/>
<path opacity=".45" fill="url(#linearGradient3721)" d="m12-91h72a6,6 0 0,1 6,6v72a6,6 0 0,1 -6,6h-72a6,6 0 0,1 -6-6v-72a6,6 0 0,1 6-6" transform="scale(1 -1)"/>
<path fill="url(#linearGradient3617)" d="m12,6h72a6,6 0 0,1 6,6v72a6,6 0 0,1 -6,6h-72a6,6 0 0,1 -6-6v-72a6,6 0 0,1 6-6"/>
<path opacity=".4" fill="url(#linearGradient3188)" d="m12,6c-3.324,0-6,2.676-6,6v2 68 2c0,.3347 .0413,.6507 .0938,.9688 .0487,.2956 .097,.5969 .1875,.875 .0099,.0304 .0209,.0636 .0312,.0938 .0989,.2878 .2349,.5475 .375,.8125 .1446,.2735 .3156,.5356 .5,.7812 .1844,.2456 .3738,.4735 .5938,.6875 .4399,.4281 .9429,.8145 1.5,1.0938 .2785,.1396 .5735,.2469 .875,.3438-.2562-.1002-.4867-.2363-.7188-.375-.0074-.0044-.0239,.0045-.0312,0-.0319-.0193-.0623-.0425-.0938-.0625-.1204-.0767-.231-.1635-.3438-.25-.1062-.0808-.2133-.1611-.3125-.25-.1779-.1614-.3475-.3454-.5-.5312-.1076-.1303-.2184-.2653-.3125-.4062-.0251-.0384-.0384-.0859-.0625-.125-.0648-.103-.1302-.2045-.1875-.3125-.101-.1947-.2057-.4157-.2812-.625-.008-.0218-.0236-.0405-.0312-.0625-.0318-.0919-.0358-.1868-.0625-.2812-.0303-.1066-.0704-.203-.0938-.3125-.0729-.3415-.125-.6982-.125-1.0625v-2-68-2c0-2.7818 2.2182-5 5-5h2 68 2c2.7818,0 5,2.2182 5,5v2 68 2c0,.3643-.0521,.721-.125,1.0625-.0442,.2069-.0884,.3977-.1562,.5938-.0077,.022-.0233,.0407-.0312,.0625-.0627,.1737-.1384,.3674-.2188,.5312-.0416,.0828-.079,.17-.125,.25-.0546,.0972-.1268,.1883-.1875,.2812-.0941,.141-.2049,.276-.3125,.4062-.1432,.1744-.3031,.347-.4688,.5-.0112,.0102-.02,.0212-.0312,.0312-.1384,.1256-.2851,.2344-.4375,.3438-.1026,.0731-.2043,.1534-.3125,.2188-.0074,.0045-.0238-.0044-.0312,0-.232,.1387-.4625,.2748-.7188,.375 .3015-.0968 .5965-.2041 .875-.3438 .5571-.2792 1.0601-.6657 1.5-1.0938 .22-.214 .4094-.4419 .5938-.6875 .1844-.2456 .3554-.5077 .5-.7812 .1401-.265 .2761-.5247 .375-.8125 .0104-.0308 .0213-.0627 .0312-.0938 .0905-.2781 .1388-.5794 .1875-.875 .0524-.318 .0938-.634 .0938-.9688v-2-68-2c0-3.324-2.676-6-6-6h-72z"/>
<path opacity=".2" fill="url(#radialGradient3619)" d="m12,90c-3.324,0-6-2.676-6-6v-2-68-2c0-.3347 .0413-.6507 .0938-.9688 .0487-.2956 .097-.5969 .1875-.875 .0099-.0304 .0209-.0636 .0312-.0938 .0989-.2878 .2349-.5475 .375-.8125 .1446-.2735 .3156-.5356 .5-.7812 .1844-.2456 .3738-.4735 .5938-.6875 .4399-.4281 .9429-.8145 1.5-1.0938 .2785-.1396 .5735-.2469 .875-.3438-.2562,.1002-.4867,.2363-.7188,.375-.0074,.0044-.0239-.0045-.0312,0-.0319,.0193-.0623,.0425-.0938,.0625-.1204,.0767-.231,.1635-.3438,.25-.1062,.0808-.2133,.1611-.3125,.25-.1779,.1614-.3475,.3454-.5,.5312-.1076,.1303-.2184,.2653-.3125,.4062-.0251,.0384-.0384,.0859-.0625,.125-.0648,.103-.1302,.2045-.1875,.3125-.101,.1947-.2057,.4157-.2812,.625-.008,.0218-.0236,.0405-.0312,.0625-.0318,.092-.0358,.1868-.0625,.2812-.0303,.1066-.0704,.203-.0938,.3125-.0729,.3415-.125,.6982-.125,1.0625v2 68 2c0,2.7818 2.2182,5 5,5h2 68 2c2.7818,0 5-2.2182 5-5v-2-68-2c0-.3643-.0521-.721-.125-1.0625-.0442-.2069-.0884-.3977-.1562-.5938-.0077-.022-.0233-.0407-.0312-.0625-.0627-.1737-.1384-.3674-.2188-.5312-.0416-.0828-.079-.17-.125-.25-.0546-.0972-.1268-.1883-.1875-.2812-.0941-.141-.2049-.276-.3125-.4062-.1432-.1745-.3031-.347-.4688-.5-.0112-.0102-.02-.0211-.0312-.0312-.1384-.1256-.2851-.2344-.4375-.3438-.1026-.0732-.2043-.1534-.3125-.2188-.0074-.0045-.0238,.0044-.0312,0-.232-.1387-.4625-.2748-.7188-.375 .3015,.0968 .5965,.2041 .875,.3438 .5571,.2792 1.0601,.6657 1.5,1.0938 .22,.214 .4094,.4419 .5938,.6875 .1844,.2456 .3554,.5077 .5,.7812 .1401,.265 .2761,.5247 .375,.8125 .0104,.0308 .0213,.0627 .0312,.0938 .0905,.2781 .1388,.5794 .1875,.875 .0524,.318 .0938,.634 .0938,.9688v2 68 2c0,3.324-2.676,6-6,6h-72z"/>
<path opacity=".1" fill="url(#linearGradient3613)" filter="url(#filter3794)" stroke="#fff" stroke-linecap="round" stroke-width=".5" d="m27,15h42a12,12 0 0,1 12,12v42a12,12 0 0,1 -12,12h-42a12,12 0 0,1 -12-12v-42a12,12 0 0,1 12-12" clip-path="url(#clipPath3613)"/>
<g stroke="#000">
<path fill="#fff" stroke-width="8.232" d="m-497.3822,99.8945a47.1864,61.4237 0 1,1 .001-.006" transform="matrix(.34835 0 0 .38128 255.63419 19.5112)"/>
<path fill="none" stroke-width="2.5" d="m52.7536,53.4101 2.5803-1.0924 1.5257-.5984 2.7214-1.0368 1.6885-.5334 1.6961-.4719 2.053-.4781 1.8015-.3664 1.5051-.2009 1.6146-.1875 1.609-.0783 2.4639-.0831 1.8567,.0088 2.2495,.0563 2.3589,.1269 2.1227,.1142"/>
<path fill="#fff" stroke-width="6.945" d="m-497.3822,99.8945a47.1864,61.4237 0 1,1 .001-.006" transform="matrix(.41507 0 0 .44957 258.91014 14.94764)"/>
<path fill="none" stroke-width="2.5" d="m14.0513,56.5952 6.5515-2.6337 2.5583-.909 2.743-.8779 2.2589-.5726 2.8476-.5909 2.2485-.3161 2.296-.1592 3.4735-.002 3.0087,.2311 2.9029,.4358 2.7292,.5753 4.6162,.9945"/>
<path fill="#080808" stroke-width="4.299" d="m-399.9509,122.3455a20.9492,14.6441 0 1,1 -40.7251-6.8596l20.2692,3.7005z" transform="matrix(.23909 -.12666 .06462 .69115 128.35501 -84.01125)"/>
<path fill="none" stroke-width="2.834" d="m-399.9509,122.3455a20.9492,14.6441 0 0,1 -41.0046-6.0088" transform="matrix(.43009 -.20216 .11624 1.10318 202.56646 -164.71561)"/>
</g>
<path fill="#fff" d="m-427.9467,129.1223a4.3729,7.1186 0 1,1 .0003-.005l-4.3586-.5746z" transform="matrix(.32646 0 0 .34367 173.76024 16.53508)"/>
<g stroke="#000">
<path fill="#010101" d="m-224.4187,113.8844a18.6964,11.2178 0 0,1 -37.3291-1.0554l18.6949,.1415z" transform="matrix(.25985 -.05767 .02478 .60482 128.23141 -32.79529)"/>
<path fill="none" stroke-width="2.743" d="m-224.5417,114.5451a18.6964,11.2178 0 0,1 -37.2076-1.5355" transform="matrix(.42101 -.11933 .04014 1.25147 165.67391 -121.69471)"/>
</g>
<path fill="#fff" d="m-427.9467,129.1223a4.3729,7.1186 0 1,1 .0003-.005l-4.3586-.5746z" transform="matrix(.29542 0 0 .29505 192.96411 18.02415)"/>
<g fill="#010101">
<path d="m37.8577,10.184 .6752,6.952-3.2261,.9427-3.1511,1.2372-3.5262,1.5318-3.6012,1.6496-3.4512,1.9442-2.7759,2.0031-2.8968,2.4259-1.8298,1.7571-3.6012,3.1225 2.1007-4.0652 1.5755-2.4745 2.1172-2.6658 2.4593-2.4598 2.6259-2.5334 3.5262-2.769 3.4512-2.3566 3.6762-1.9442 2.8206-1.179z"/>
<path d="m60.5157,18.144 2.0679-7.021 2.6325,1.0443 2.2321,.9328 2.4341,1.2028 1.8149,1.0167c.2104,.1581 .9329,.6568 1.1977,.815 .3079,.184 1.4166,.9579 1.6313,1.1369l1.4545,1.2199 1.217,1.0425 1.3641,1.3018 1.5086,1.6639 1.0469,1.5766 1.1835,2.0476 1.066,2.4071 .8773,2.2165-3.2-3.1947-2.2195-1.9721-2.0311-1.5989-2.2295-1.4175-2.2619-1.118-2.0552-.7927-2.527-.814-2.5519-.6836z"/>
</g>
</svg>
