<svg xmlns="http://www.w3.org/2000/svg" viewBox="0 0 96 96" xmlns:xlink="http://www.w3.org/1999/xlink">
<defs>
<clipPath>
<path fill="#f0f" d="m0,0 0,16 0,64 0,16 96,0 0-16 0-64 0-16-96,0zm12.2188,6.2812 71.5625,0c3.3025,0 5.9375,2.635 5.9375,5.9375v3.7812h-1.7188v64h1.7188v3.7812c0,3.3025-2.635,5.9375-5.9375,5.9375h-71.5625c-3.3025,0-5.9375-2.635-5.9375-5.9375v-3.7812h1.7188v-64h-1.7188v-3.7812c0-3.3025 2.635-5.9375 5.9375-5.9375z"/>
</clipPath>
<linearGradient gradientTransform="matrix(.57143 0 0 1 50.85714 0)" id="linearGradient3843" xlink:href="#linearGradient3833" y1="6" y2="72.022" x2="0" gradientUnits="userSpaceOnUse"/>
<linearGradient gradientTransform="translate(-2)" id="linearGradient3839" xlink:href="#linearGradient3833" y1="6" y2="120.018" x2="0" gradientUnits="userSpaceOnUse"/>
<linearGradient id="linearGradient3794" xlink:href="#ButtonShadow" y1="91" y2="3.307" x2="0" gradientUnits="userSpaceOnUse"/>
<linearGradient gradientTransform="matrix(0 1 1 0 0 96)" id="linearGradient3767" xlink:href="#linearGradient3675" y1="8" y2="88" x2="0" gradientUnits="userSpaceOnUse"/>
<linearGradient gradientTransform="matrix(.2381 0 0 1 47.19048 -96.00001)" id="linearGradient3873" xlink:href="#linearGradient3833" y1="6" y2="72.022" x2="0" gradientUnits="userSpaceOnUse"/>
<linearGradient gradientTransform="matrix(-1 0 0 1 96 0)" id="linearGradient3897" xlink:href="#linearGradient3858" x1="6" x2="32.019" gradientUnits="userSpaceOnUse"/>
<linearGradient gradientTransform="translate(4)" id="linearGradient3976" xlink:href="#linearGradient3833" x1="64" x2="82.835" gradientUnits="userSpaceOnUse"/>
<linearGradient gradientTransform="matrix(1 0 0 -1 96 96)" id="linearGradient3925" xlink:href="#linearGradient3614" x1="-90" x2="-6" gradientUnits="userSpaceOnUse"/>
<linearGradient gradientTransform="scale(1.00587 .99417)" id="linearGradient3938" xlink:href="#ButtonShadow" y1="92.54" y2="7.017" x2="0" gradientUnits="userSpaceOnUse"/>
<linearGradient id="linearGradient3777" xlink:href="#linearGradient3788" x1="32" x2="64" gradientUnits="userSpaceOnUse"/>
<linearGradient id="linearGradient3833">
<stop offset="0" stop-color="#fff"/>
<stop offset="1" stop-color="#fff" stop-opacity="0"/>
</linearGradient>
<linearGradient id="linearGradient3858">
<stop offset="0" stop-color="#250"/>
<stop offset="1" stop-color="#250" stop-opacity="0"/>
</linearGradient>
<linearGradient id="linearGradient3788">
<stop offset="0" stop-color="#d9d9d9"/>
<stop offset=".25" stop-color="#c6c6c6"/>
<stop offset="1" stop-color="#696969"/>
</linearGradient>
<linearGradient id="linearGradient3675">
<stop offset="0" stop-color="#666"/>
<stop offset=".25" stop-color="#e6e6e6"/>
<stop offset=".513" stop-color="#808080"/>
<stop offset="1" stop-color="#474747"/>
</linearGradient>
<linearGradient id="linearGradient3614">
<stop offset="0" stop-color="#fff" stop-opacity=".481"/>
<stop offset="1" stop-color="#fff" stop-opacity=".124"/>
</linearGradient>
<linearGradient gradientTransform="scale(1.00587 .99417)" id="ButtonShadow" y1="92.54" y2="7.017" x2="0" gradientUnits="userSpaceOnUse">
<stop offset="0"/>
<stop offset="1" stop-opacity=".588"/>
</linearGradient>
<linearGradient gradientTransform="matrix(0 -1 1 0 0 0)" id="linearGradient3761" xlink:href="#linearGradient3675" y1="8" y2="88" x2="0" gradientUnits="userSpaceOnUse"/>
<linearGradient id="linearGradient3737">
<stop offset="0" stop-color="#fff"/>
<stop offset="1" stop-color="#fff" stop-opacity="0"/>
</linearGradient>
<linearGradient id="linearGradient3188" xlink:href="#linearGradient3737" y1="6" y2="63.893" x2="0" gradientUnits="userSpaceOnUse"/>
<radialGradient cx="48" cy="90.2" gradientTransform="matrix(1.33333 0 -0 .95238 -16 -5.90476)" r="42" id="radialGradient3901" gradientUnits="userSpaceOnUse">
<stop offset="0" stop-color="#88ff02"/>
<stop offset="1" stop-color="#1f8000"/>
</radialGradient>
<radialGradient cx="48" cy="90.172" gradientTransform="matrix(1.15731 0 0 .99591 -7.55102 .19713)" r="42" id="radialGradient3619" xlink:href="#linearGradient3737" gradientUnits="userSpaceOnUse"/>
</defs>
<path opacity=".08" fill="url(#linearGradient3938)" d="m61.1875,0c-.3975,.0083-.7858,.0286-1.1562,.0625-.0292,.0027-.0647-.0028-.0938,0h-26.7188-.0938c-1.1688-.0843-2.1448,.3026-2.8125,.875-.6868,.5888-1.0969,1.3061-1.4688,1.9062-.3718,.6001-.7221,1.0499-1.0312,1.25-.3091,.2001-.6147,.3148-1.4375,.0312a.8646,.8646 0 0,0 -.3125-.0625c-5.2558,.0972-10.5797-.2163-15.9375,.1875a.8646,.8646 0 0,0 -.0938,.0312c-5.3389,.943-8.4565,6.2879-7.9375,11.375 .0086,.0839-.0106,.1663 0,.25-.0994,.808-.0459,1.6719 .3438,2.4375 .307,.6033 .9199,1.0462 1.625,1.3125v58.75c-.3766,.1408-.8038,.2037-1.0625,.4688-.4553,.4663-.6877,1.0584-.8125,1.625-.2496,1.1332-.1455,2.3232-.125,3.125h.0312c-.7324,6.0642 4.4632,11.9018 10.6875,11.3125 .032-.003 .0617,.0034 .0938,0 24.0144-.0309 48.043,.0469 72.0625-.0625a.8646,.8646 0 0,0 .0625,0c5.8012-.4242 9.5489-6.1575 8.9062-11.625h.0312c.0643-.8253 .1431-1.9428-.1562-3-.1497-.5286-.423-1.0513-.875-1.4688-.2408-.2224-.6387-.2529-.9688-.375v-58.8125c.3766-.1408 .8038-.2037 1.0625-.4688 .4553-.4663 .6877-1.0584 .8125-1.625 .2422-1.0992 .1505-2.2317 .125-3.0312-.0003-.0082 .0002-.0231 0-.0312 .0015-.0214-.0013-.0411 0-.0625 .3877-6.1852-5.5513-11.05-11.5-10.2812v-.0312h-14.7188c-.2399-1.1922-.7722-2.2005-1.625-2.8125-1.0664-.7653-2.4027-1.1083-3.6875-1.2188-.4146-.0357-.8213-.0395-1.2188-.0312zm-27.1875,2 28,0c1.108,0 2,.892 2,2v1 1h8 12c3.324,0 6,2.676 6,6v2 2h-2v2 18 42 2h2v2 2c0,3.324-2.676,6-6,6h-72c-3.324,0-6-2.676-6-6v-2-2h2v-42-2-18-2h-2v-4c0-3.324 2.676-6 6-6h20v-1-1c0-1.108 .892-2 2-2z"/>
<path opacity=".1" fill="url(#linearGradient3938)" d="m61.1562,.875c-.3899,.0053-.7614,.0274-1.125,.0625h-26.9062c-4.0673-.383-3.0749,5.3636-7.0312,4-5.3001,.098-10.6252-.2105-15.9062,.1875-4.9158,.8682-7.8479,5.9519-7.25,10.6875-.2485,1.398 .3328,3.2201 2,3.25v59.875c-2.3992,.1494-2.0434,2.9565-2,4.6562-.7697,5.5857 4.1171,11.0707 9.8438,10.4688 24.0482-.0312 48.11,.047 72.1562-.0625 5.3179-.3889 8.8139-5.7576 8.125-10.8125 .1252-1.6073 .2016-4.1502-2-4.25v-59.875c2.3992-.1494 2.0434-2.9565 2-4.6562 .4155-5.6802-5.1516-10.2494-10.625-9.4688h-15.375c-.049-3.2901-3.1771-4.0994-5.9062-4.0625zm-27.1562,1.125 28,0c1.108,0 2,.892 2,2v1 1h8 12c3.324,0 6,2.676 6,6v2 2h-2v2 18 42 2h2v2 2c0,3.324-2.676,6-6,6h-72c-3.324,0-6-2.676-6-6v-2-2h2v-42-2-18-2h-2v-4c0-3.324 2.676-6 6-6h20v-1-1c0-1.108 .892-2 2-2z"/>
<path opacity=".2" fill="url(#linearGradient3938)" d="m33.125,2c-1.685,0-3.125,1.3188-3.125,3v1h2v-1-1c0-1.108 .892-2 2-2h-.875zm28.875,0c1.108,0 2,.892 2,2v1 1h2v-1c0-1.6812-1.44-3-3.125-3h-.875zm-50.8125,4.0312c-4.0335,.4098-7.1875,3.8274-7.1875,7.9688v3a1.0053,1.0053 0 0,0 1,1h1v62h2v-42-2-18-2h-2v-4c0-3.1163 2.3421-5.6626 5.375-5.9688-.0624,.0049-.1255-.0063-.1875,0zm-5.1875,73.9688-1,0a1.0053,1.0053 0 0,0 -1,1v4c0,4.4175 3.5825,8 8,8h72c4.4175,0 8-3.5825 8-8v-4a1.0053,1.0053 0 0,0 -1-1h-1v2 2c0,3.324-2.676,6-6,6h-72c-3.324,0-6-2.676-6-6v-2-2zm84,0 0-62 1,0a1.0053,1.0053 0 0,0 1-1v-3c0-4.205-3.2525-7.6468-7.375-7.9688 3.0329,.3062 5.375,2.8525 5.375,5.9688v2 2h-2v2 18 42 2h2z"/>
<path opacity=".3" fill="url(#linearGradient3938)" d="m32.1562,3.2188c-.6911,.3293-1.1562,.9997-1.1562,1.7812v1h1v-1-1c0-.277 .0553-.5418 .1562-.7812zm31.6875,0c.1009,.2394 .1562,.5042 .1562,.7812v1 1h1v-1c0-.7816-.4652-1.4519-1.1562-1.7812zm-57.4062,6.5312c-.8995,1.1774-1.4375,2.6473-1.4375,4.25v3h2v63h1v-42-2-18-2h-2v-4c0-.7964 .1582-1.5559 .4375-2.25zm83.125,0c.2793,.6941 .4375,1.4536 .4375,2.25v2 2h-2v2 18 42 2h1v-63h2v-3c0-1.6027-.538-3.0726-1.4375-4.25zm-84.5625,71.25 0,4c0,3.878 3.122,7 7,7h72c3.878,0 7-3.122 7-7v-4h-1v1 2c0,3.324-2.676,6-6,6h-72c-3.324,0-6-2.676-6-6v-2-1h-1z"/>
<path fill="#f0f" d="m-110,0 0,16 0,64 0,16 96,0 0-16 0-64 0-16-96,0zm12.2188,6.2812 71.5625,0c3.3025,0 5.9375,2.635 5.9375,5.9375v3.7812h-1.7188v64h1.7188v3.7812c0,3.3025-2.635,5.9375-5.9375,5.9375h-71.5625c-3.3025,0-5.9375-2.635-5.9375-5.9375v-3.7812h1.7188v-64h-1.7188v-3.7812c0-3.3025 2.635-5.9375 5.9375-5.9375z"/>
<path opacity=".45" fill="url(#linearGradient3794)" d="m6,16 0,1 2,0 0-1-2,0zm82,0 0,1 2,0 0-1-2,0zm-82,68 0,1c0,3.324 2.676,6 6,6h72c3.324,0 6-2.676 6-6v-1c0,3.324-2.676,6-6,6h-72c-3.324,0-6-2.676-6-6z"/>
<path fill="#f00" d="m-76,2c-1.108,0-2,.892-2,2v1 1h-20c-3.324,0-6,2.676-6,6v4h2v2 18 2 42h-2v2 2c0,3.324 2.676,6 6,6h72c3.324,0 6-2.676 6-6v-2-2h-2v-2-42-18-2h2v-2-2c0-3.324-2.676-6-6-6h-12-8v-1-1c0-1.108-.892-2-2-2h-28z"/>
<path fill="url(#radialGradient3901)" d="m8,36 0,44 80,0 0-44-80,0z"/>
<path opacity=".6" fill="#338000" d="m8,78 0,2 80,0 0-2-80,0z"/>
<path fill="url(#linearGradient3897)" d="m48,36 0,44 40,0 0-44-40,0z"/>
<g fill="#aad400">
<path opacity=".4" d="m8,36 0,2 80,0 0-2-80,0z"/>
<path opacity=".3" d="m8,36 0,44 2,0 0-44-2,0zm78,0 0,44 2,0 0-44-2,0z"/>
</g>
<path fill="url(#linearGradient3777)" d="m34,2h28a2,2 0 0,1 2,2v4.1a2,2 0 0,1 -2,2h-28a2,2 0 0,1 -2-2v-4.1a2,2 0 0,1 2-2"/>
<path fill="url(#linearGradient3925)" d="m8,16 0,64 80,0 0-64-80,0z"/>
<path fill="url(#linearGradient3761)" d="m12,6c-3.324,0-6,2.676-6,6v4h84v-4c0-3.324-2.676-6-6-6h-72z"/>
<path fill="url(#linearGradient3767)" d="m12,90c-3.324,0-6-2.676-6-6v-4h84v4c0,3.324-2.676,6-6,6h-72z"/>
<path opacity=".5" fill="#fff" d="m34,2c-1.108,0-2,.892-2,2v1c0-1.108 .892-2 2-2h28c1.108,0 2,.892 2,2v-1c0-1.108-.892-2-2-2h-28z"/>
<path opacity=".2" d="m32,5h32v1h-32z"/>
<path opacity=".4" fill="url(#linearGradient3839)" d="m14,6h21v84h-21z"/>
<path opacity=".2" fill="url(#linearGradient3843)" d="m60,6h12v84h-12z"/>
<path opacity=".29" fill="#fff" d="m6,80h84v2h-84z"/>
<path opacity=".1" d="m6,14h84v2h-84z"/>
<path opacity=".1" d="m8,16 0,2 80,0 0-2-80,0z"/>
<path opacity=".1" fill="url(#linearGradient3873)" d="m51-90h5v84h-5z" transform="scale(1 -1)"/>
<path fill="#f0f" d="m122-90h72a6,6 0 0,1 6,6v72a6,6 0 0,1 -6,6h-72a6,6 0 0,1 -6-6v-72a6,6 0 0,1 6-6" transform="scale(1 -1)"/>
<g fill="#fff">
<path opacity=".4" d="m8,16h2v20h-2z"/>
<path opacity=".3" d="m86,16h2v20h-2z"/>
</g>
<path opacity=".2" fill="url(#radialGradient3619)" d="m10.1562,6.3438c-.3015,.0968-.5965,.2041-.875,.3438-.5571,.2792-1.0601,.6657-1.5,1.0938-.22,.214-.4094,.4419-.5938,.6875-.1844,.2456-.3554,.5077-.5,.7812-.1401,.265-.2761,.5247-.375,.8125-.0104,.0302-.0214,.0634-.0312,.0938-.0905,.2781-.1388,.5794-.1875,.875-.0524,.318-.0938,.634-.0938,.9688v2 2h1v-3-2c0-.3643 .0521-.721 .125-1.0625 .0234-.1095 .0634-.2059 .0938-.3125 .0267-.0944 .0307-.1893 .0625-.2812 .0077-.022 .0233-.0407 .0312-.0625 .0756-.2093 .1802-.4303 .2812-.625 .0573-.108 .1227-.2095 .1875-.3125 .0241-.0391 .0374-.0866 .0625-.125 .0941-.141 .2049-.276 .3125-.4062 .1525-.1859 .3221-.3698 .5-.5312 .0992-.0889 .2063-.1692 .3125-.25 .1127-.0865 .2234-.1733 .3438-.25 .0315-.02 .0618-.0432 .0938-.0625 .0074-.0045 .0238,.0044 .0312,0 .232-.1387 .4625-.2748 .7188-.375zm75.6875,0c.2562,.1002 .4867,.2363 .7188,.375 .0074,.0044 .0238-.0045 .0312,0 .1082,.0654 .2099,.1456 .3125,.2188 .1524,.1093 .2991,.2182 .4375,.3438 .0113,.0101 .0201,.021 .0312,.0312 .1656,.153 .3256,.3255 .4688,.5 .1076,.1303 .2184,.2653 .3125,.4062 .0607,.0929 .1329,.184 .1875,.2812 .046,.08 .0834,.1672 .125,.25 .0804,.1638 .156,.3575 .2188,.5312 .0079,.0218 .0236,.0405 .0312,.0625 .0679,.1961 .1121,.3869 .1562,.5938 .0729,.3415 .125,.6982 .125,1.0625v2 3h1v-2-2c0-.3347-.0413-.6507-.0938-.9688-.0487-.2956-.097-.5969-.1875-.875-.0099-.031-.0208-.063-.0312-.0938-.0989-.2878-.2349-.5475-.375-.8125-.1446-.2735-.3156-.5356-.5-.7812-.1844-.2456-.3738-.4735-.5938-.6875-.4399-.4281-.9429-.8145-1.5-1.0938-.2785-.1396-.5735-.247-.875-.3438zm-79.8438,73.6562v2 2c0,3.324 2.676,6 6,6h72c3.324,0 6-2.676 6-6v-2-2h-1v1 2c0,2.7818-2.2182,5-5,5h-2-68-2c-2.7818,0-5-2.2182-5-5v-2-1h-1z"/>
<path opacity=".2" fill="url(#linearGradient3188)" d="m12,6c-3.324,0-6,2.676-6,6v2 2h1v-1-2c0-2.7818 2.2182-5 5-5h2 68 2c2.7818,0 5,2.2182 5,5v2 1h1v-2-2c0-3.324-2.676-6-6-6h-72zm-6,74 0,2 0,2c0,.3347 .0413,.6507 .0938,.9688 .0487,.2956 .097,.5969 .1875,.875 .0099,.0304 .0209,.0636 .0312,.0938 .0989,.2878 .2349,.5475 .375,.8125 .1446,.2735 .3156,.5356 .5,.7812 .1844,.2456 .3738,.4735 .5938,.6875 .4399,.4281 .9429,.8145 1.5,1.0938 .2785,.1396 .5735,.2469 .875,.3438-.2562-.1002-.4867-.2363-.7188-.375-.0074-.0044-.0239,.0045-.0312,0-.0319-.0193-.0623-.0425-.0938-.0625-.1204-.0767-.231-.1635-.3438-.25-.1062-.0808-.2133-.1611-.3125-.25-.1779-.1614-.3475-.3454-.5-.5312-.1076-.1303-.2184-.2653-.3125-.4062-.0251-.0384-.0384-.0859-.0625-.125-.0648-.103-.1302-.2045-.1875-.3125-.101-.1947-.2057-.4157-.2812-.625-.008-.0218-.0236-.0405-.0312-.0625-.0318-.0919-.0358-.1868-.0625-.2812-.0303-.1066-.0704-.203-.0938-.3125-.0729-.3415-.125-.6982-.125-1.0625v-2-3h-1zm83,0 0,3 0,2c0,.3643-.0521,.721-.125,1.0625-.0442,.2069-.0884,.3977-.1562,.5938-.0077,.022-.0233,.0407-.0312,.0625-.0627,.1737-.1384,.3674-.2188,.5312-.0416,.0828-.079,.17-.125,.25-.0546,.0972-.1268,.1883-.1875,.2812-.0941,.141-.2049,.276-.3125,.4062-.1432,.1744-.3031,.347-.4688,.5-.0112,.0102-.02,.0212-.0312,.0312-.1384,.1256-.2851,.2344-.4375,.3438-.1026,.0731-.2043,.1534-.3125,.2188-.0074,.0045-.0238-.0044-.0312,0-.232,.1387-.4625,.2748-.7188,.375 .3015-.0968 .5965-.2041 .875-.3438 .5571-.2792 1.0601-.6657 1.5-1.0938 .22-.214 .4094-.4419 .5938-.6875 .1844-.2456 .3554-.5077 .5-.7812 .1401-.265 .2761-.5247 .375-.8125 .0104-.0308 .0213-.0627 .0312-.0938 .0905-.2781 .1388-.5794 .1875-.875 .0524-.318 .0938-.634 .0938-.9688v-2-2h-1z"/>
<path opacity=".8" fill="url(#linearGradient3976)" d="m68,22 0,2 16,0 0-2-16,0zm0,8 0,2 16,0 0-2-16,0zm0,8 0,2 16,0 0-2-16,0zm0,8 0,2 16,0 0-2-16,0zm0,8 0,2 16,0 0-2-16,0zm0,8 0,2 16,0 0-2-16,0zm0,8 0,2 16,0 0-2-16,0z"/>
<path opacity=".8" fill="#fff" d="m57.9808,44 0,12h6.0192l-6.0192,16v-12h-6.0192l6.0192-16z"/>
</svg>
