<svg xmlns="http://www.w3.org/2000/svg" viewBox="0 0 96 96" xmlns:xlink="http://www.w3.org/1999/xlink">
<defs>
<clipPath id="clipPath3613">
<path fill="#fff" d="m12,6h72a6,6 0 0,1 6,6v72a6,6 0 0,1 -6,6h-72a6,6 0 0,1 -6-6v-72a6,6 0 0,1 6-6"/>
</clipPath>
<filter width="1.384" x="-.192" y="-.192" height="1.384" color-interpolation-filters="sRGB" id="filter3794">
<feGaussianBlur stdDeviation="5.28"/>
</filter>
<linearGradient gradientTransform="matrix(1.02381 0 0 1.0119 -1.14286 -98.07143)" id="linearGradient3780" xlink:href="#ButtonShadow-0" y1="6.132" y2="90.239" x2="0" gradientUnits="userSpaceOnUse"/>
<linearGradient id="linearGradient2955">
<stop offset="0" stop-color="#d0d0d0"/>
<stop offset=".4" stop-color="#fff"/>
<stop offset=".7" stop-color="#fff"/>
<stop offset="1" stop-color="#d0d0d0"/>
</linearGradient>
<linearGradient gradientTransform="translate(0 -97)" id="linearGradient3721" xlink:href="#ButtonShadow-0" y1="6.132" y2="90.239" x2="0" gradientUnits="userSpaceOnUse"/>
<linearGradient id="linearGradient3714">
<stop offset="0" stop-color="#d0d0d0"/>
<stop offset="1" stop-color="#b0b0b0" stop-opacity="0"/>
</linearGradient>
<linearGradient id="linearGradient8606">
<stop offset="0" stop-color="#eeeeec"/>
<stop offset="1" stop-color="#eeeeec" stop-opacity="0"/>
</linearGradient>
<linearGradient gradientTransform="matrix(1.24842 0 0 1.24842 23.34476 15.9667)" id="linearGradient3134" xlink:href="#linearGradient8606" y1="4.936" x1=".861" y2="25.572" x2="45.034" gradientUnits="userSpaceOnUse"/>
<linearGradient gradientTransform="matrix(.14716 0 0 .14716 -.09809 -26.67795)" id="linearGradient3121" xlink:href="#linearGradient3714" y1="483.007" x1="301.556" y2="497.391" x2="308.307" gradientUnits="userSpaceOnUse"/>
<linearGradient gradientTransform="matrix(.14716 0 0 .14716 -.09809 -26.67795)" id="linearGradient3128" xlink:href="#linearGradient2955" y1="499.116" x1="222.587" y2="473.957" x2="337.486" gradientUnits="userSpaceOnUse"/>
<linearGradient gradientTransform="matrix(1.00587 0 0 .99417 100 0)" id="ButtonShadow-0" y1="92.54" y2="7.017" x2="0" gradientUnits="userSpaceOnUse">
<stop offset="0"/>
<stop offset="1" stop-opacity=".588"/>
</linearGradient>
<linearGradient id="linearGradient3927">
<stop offset="0" stop-color="#5c8947"/>
<stop offset="1" stop-color="#99c376"/>
</linearGradient>
<linearGradient id="linearGradient4208">
<stop offset="0" stop-color="#f3840c"/>
<stop offset="1" stop-color="#f2b80c"/>
</linearGradient>
<linearGradient id="linearGradient3188" xlink:href="#linearGradient3737" y1="6" y2="63.893" x2="0" gradientUnits="userSpaceOnUse"/>
<linearGradient id="linearGradient3737">
<stop offset="0" stop-color="#fff"/>
<stop offset="1" stop-color="#fff" stop-opacity="0"/>
</linearGradient>
<linearGradient id="linearGradient4206" xlink:href="#linearGradient3927" y1="90" y2="5.988" x2="0" gradientUnits="userSpaceOnUse"/>
<linearGradient id="linearGradient4214" xlink:href="#linearGradient4208" y1="90" y2="5.988" x2="0" gradientUnits="userSpaceOnUse"/>
<linearGradient id="linearGradient3613" xlink:href="#linearGradient3737" y1="20.221" y2="138.661" x2="0" gradientUnits="userSpaceOnUse"/>
<radialGradient cx="48" cy="48" gradientTransform="matrix(1.71615 0 0 1.73876 -34.37521 -35.46048)" r="42" id="radialGradient3988" gradientUnits="userSpaceOnUse">
<stop offset="0" stop-color="#e9ddaf"/>
<stop offset="1" stop-color="#e9ddaf" stop-opacity="0"/>
</radialGradient>
<radialGradient cx="40" cy="40.301" gradientTransform="matrix(1 0 0 1.03911 0 -1.87743)" r="26.876" id="radialGradient3925" gradientUnits="userSpaceOnUse">
<stop offset="0" stop-color="#f4d7d7"/>
<stop offset="1" stop-color="#e9afaf"/>
</radialGradient>
<radialGradient cx="48" cy="90.172" gradientTransform="matrix(1.15731 0 0 .99591 -7.55102 .19713)" r="42" id="radialGradient3619" xlink:href="#linearGradient3737" gradientUnits="userSpaceOnUse"/>
</defs>
<path opacity=".08" fill="url(#linearGradient3780)" d="m12-95.0312c-5.5111,0-10.0312,4.5202-10.0312,10.0312v71c0,5.5111 4.5202,10.0312 10.0312,10.0312h72c5.5111,0 10.0312-4.5202 10.0312-10.0312v-71c0-5.5111-4.5202-10.0312-10.0312-10.0312h-72z" transform="scale(1 -1)"/>
<path opacity=".1" fill="url(#linearGradient3780)" d="m12-94.0312c-4.9716,0-9.0312,4.0596-9.0312,9.0312v71c0,4.9716 4.0596,9.0312 9.0312,9.0312h72c4.9716,0 9.0312-4.0596 9.0312-9.0312v-71c0-4.9716-4.0596-9.0312-9.0312-9.0312h-72z" transform="scale(1 -1)"/>
<path opacity=".2" fill="url(#linearGradient3780)" d="m12-93c-4.4091,0-8,3.5909-8,8v71c0,4.4091 3.5909,8 8,8h72c4.4091,0 8-3.5909 8-8v-71c0-4.4091-3.5909-8-8-8h-72z" transform="scale(1 -1)"/>
<path opacity=".3" fill="url(#linearGradient3780)" d="m12-92h72a7,7 0 0,1 7,7v71a7,7 0 0,1 -7,7h-72a7,7 0 0,1 -7-7v-71a7,7 0 0,1 7-7" transform="scale(1 -1)"/>
<path opacity=".45" fill="url(#linearGradient3721)" d="m12-91h72a6,6 0 0,1 6,6v72a6,6 0 0,1 -6,6h-72a6,6 0 0,1 -6-6v-72a6,6 0 0,1 6-6" transform="scale(1 -1)"/>
<path fill="url(#linearGradient4214)" d="m12,6h72a6,6 0 0,1 6,6v72a6,6 0 0,1 -6,6h-72a6,6 0 0,1 -6-6v-72a6,6 0 0,1 6-6"/>
<path fill="url(#linearGradient4206)" d="m12,6h72a6,6 0 0,1 6,6v72a6,6 0 0,1 -6,6h-72a6,6 0 0,1 -6-6v-72a6,6 0 0,1 6-6"/>
<path opacity=".5" fill="url(#linearGradient3188)" d="m12,6c-3.324,0-6,2.676-6,6v2 68 2c0,.3347 .0413,.6507 .0938,.9688 .0487,.2956 .097,.5969 .1875,.875 .0099,.0304 .0209,.0636 .0312,.0938 .0989,.2878 .2349,.5475 .375,.8125 .1446,.2735 .3156,.5356 .5,.7812 .1844,.2456 .3738,.4735 .5938,.6875 .4399,.4281 .9429,.8145 1.5,1.0938 .2785,.1396 .5735,.2469 .875,.3438-.2562-.1002-.4867-.2363-.7188-.375-.0074-.0044-.0239,.0045-.0312,0-.0319-.0193-.0623-.0425-.0938-.0625-.1204-.0767-.231-.1635-.3438-.25-.1062-.0808-.2133-.1611-.3125-.25-.1779-.1614-.3475-.3454-.5-.5312-.1076-.1303-.2184-.2653-.3125-.4062-.0251-.0384-.0384-.0859-.0625-.125-.0648-.103-.1302-.2045-.1875-.3125-.101-.1947-.2057-.4157-.2812-.625-.008-.0218-.0236-.0405-.0312-.0625-.0318-.0919-.0358-.1868-.0625-.2812-.0303-.1066-.0704-.203-.0938-.3125-.0729-.3415-.125-.6982-.125-1.0625v-2-68-2c0-2.7818 2.2182-5 5-5h2 68 2c2.7818,0 5,2.2182 5,5v2 68 2c0,.3643-.0521,.721-.125,1.0625-.0442,.2069-.0884,.3977-.1562,.5938-.0077,.022-.0233,.0407-.0312,.0625-.0627,.1737-.1384,.3674-.2188,.5312-.0416,.0828-.079,.17-.125,.25-.0546,.0972-.1268,.1883-.1875,.2812-.0941,.141-.2049,.276-.3125,.4062-.1432,.1744-.3031,.347-.4688,.5-.0112,.0102-.02,.0212-.0312,.0312-.1384,.1256-.2851,.2344-.4375,.3438-.1026,.0731-.2043,.1534-.3125,.2188-.0074,.0045-.0238-.0044-.0312,0-.232,.1387-.4625,.2748-.7188,.375 .3015-.0968 .5965-.2041 .875-.3438 .5571-.2792 1.0601-.6657 1.5-1.0938 .22-.214 .4094-.4419 .5938-.6875 .1844-.2456 .3554-.5077 .5-.7812 .1401-.265 .2761-.5247 .375-.8125 .0104-.0308 .0213-.0627 .0312-.0938 .0905-.2781 .1388-.5794 .1875-.875 .0524-.318 .0938-.634 .0938-.9688v-2-68-2c0-3.324-2.676-6-6-6h-72z"/>
<path opacity=".2" fill="url(#radialGradient3619)" d="m12,90c-3.324,0-6-2.676-6-6v-2-68-2c0-.3347 .0413-.6507 .0938-.9688 .0487-.2956 .097-.5969 .1875-.875 .0099-.0304 .0209-.0636 .0312-.0938 .0989-.2878 .2349-.5475 .375-.8125 .1446-.2735 .3156-.5356 .5-.7812 .1844-.2456 .3738-.4735 .5938-.6875 .4399-.4281 .9429-.8145 1.5-1.0938 .2785-.1396 .5735-.2469 .875-.3438-.2562,.1002-.4867,.2363-.7188,.375-.0074,.0044-.0239-.0045-.0312,0-.0319,.0193-.0623,.0425-.0938,.0625-.1204,.0767-.231,.1635-.3438,.25-.1062,.0808-.2133,.1611-.3125,.25-.1779,.1614-.3475,.3454-.5,.5312-.1076,.1303-.2184,.2653-.3125,.4062-.0251,.0384-.0384,.0859-.0625,.125-.0648,.103-.1302,.2045-.1875,.3125-.101,.1947-.2057,.4157-.2812,.625-.008,.0218-.0236,.0405-.0312,.0625-.0318,.092-.0358,.1868-.0625,.2812-.0303,.1066-.0704,.203-.0938,.3125-.0729,.3415-.125,.6982-.125,1.0625v2 68 2c0,2.7818 2.2182,5 5,5h2 68 2c2.7818,0 5-2.2182 5-5v-2-68-2c0-.3643-.0521-.721-.125-1.0625-.0442-.2069-.0884-.3977-.1562-.5938-.0077-.022-.0233-.0407-.0312-.0625-.0627-.1737-.1384-.3674-.2188-.5312-.0416-.0828-.079-.17-.125-.25-.0546-.0972-.1268-.1883-.1875-.2812-.0941-.141-.2049-.276-.3125-.4062-.1432-.1745-.3031-.347-.4688-.5-.0112-.0102-.02-.0211-.0312-.0312-.1384-.1256-.2851-.2344-.4375-.3438-.1026-.0732-.2043-.1534-.3125-.2188-.0074-.0045-.0238,.0044-.0312,0-.232-.1387-.4625-.2748-.7188-.375 .3015,.0968 .5965,.2041 .875,.3438 .5571,.2792 1.0601,.6657 1.5,1.0938 .22,.214 .4094,.4419 .5938,.6875 .1844,.2456 .3554,.5077 .5,.7812 .1401,.265 .2761,.5247 .375,.8125 .0104,.0308 .0213,.0627 .0312,.0938 .0905,.2781 .1388,.5794 .1875,.875 .0524,.318 .0938,.634 .0938,.9688v2 68 2c0,3.324-2.676,6-6,6h-72z"/>
<path opacity=".45" fill="url(#radialGradient3988)" d="M 20.875,6 46.65625,46.65625 6,20.5 6,39 46.21875,48 6,56.75 6,75.125 46.65625,49.34375 20.5,90 39,90 48,49.78125 56.75,90 75.125,90 49.34375,49.34375 90,75.5 90,57 49.78125,48 90,39.25 90,20.875 49.34375,46.65625 75.5,6 57,6 48,46.21875 39.25,6 20.875,6 z"/>
<path opacity=".1" fill="url(#linearGradient3613)" filter="url(#filter3794)" stroke="#fff" stroke-linecap="round" stroke-width=".5" d="m27,15h42a12,12 0 0,1 12,12v42a12,12 0 0,1 -12,12h-42a12,12 0 0,1 -12-12v-42a12,12 0 0,1 12-12" clip-path="url(#clipPath3613)"/>
<g fill-rule="evenodd">
<path opacity=".05" d="m42.5625,17.9375c-9.1897-.0805-18.3683,7.4009-18.4688,17a1.0566,1.0566 0 0,0 0,.0312c.1388,6.3512 2.0507,12.5467 3.9062,18.4375a1.0566,1.0566 0 0,0 0,.0312c2.7274,7.8145 5.7478,15.871 11.0312,22.5938a1.0566,1.0566 0 0,0 .0312,0c1.6703,2.088 4.3674,4.1836 7.4375,3.8125v.0312c.0545,.0006 .1019-.0309 .1562-.0312 3.3805-.0247 6.3688-1.9149 8.2812-4.5312h.0312c.0046-.0063-.0046-.025 0-.0312 1.9666-2.5293 3.5006-5.2234 5.1562-7.7812 2.6348,4.9403 6.3079,10.1665 12.5,11.2188a1.0566,1.0566 0 0,0 .0312,0c1.8625,.2765 4.011,.2908 6-.3125 1.9551-.593 3.7759-1.8665 4.7188-3.9688h.0312c.011-.0213 .0206-.0411 .0312-.0625 .0048-.0096-.0047-.0216 0-.0312 .8111-1.6483 .6818-3.5085-.0625-5-.7543-1.5116-2.1002-2.7342-3.75-3.3125-.0088-.0032-.0225,.0032-.0312,0-2.6289-.9748-4.97-2.6462-5.75-5.2188-1.7187-5.5029-3.5648-11.9357-8.875-15.7188a1.0566,1.0566 0 0,0 -.0938-.0312c-.7476-.4461-1.7006-.9314-2.7812-1.1562-1.011-.2104-2.2071-.1126-3.1875,.5938l-.0312-.0312c-.0479,.0259-.0776,.0674-.125,.0938-.0194,.0156-.0433,.0151-.0625,.0312-3.1549,1.778-5.1436,4.5634-6.9062,7.4062 2.3371-5.4995 5.5706-11.2724 4.5625-17.9375h.0312c-.0007-.0516-.0301-.1045-.0312-.1562-.1316-5.9805-2.9948-12.7522-9.1875-15.0312-1.4742-.5696-3.0275-.8286-4.5312-.9375a1.0566,1.0566 0 0,0 -.0625,0z"/>
<path opacity=".1" d="m42.5625,19c-8.6025-.0754-17.3187,7.015-17.412,15.932 .1345,6.1543 1.9939,12.2818 3.8471,18.1652 2.7212,7.7966 5.7194,15.7267 10.8703,22.2808 1.5555,1.9445 4.1011,3.8111 6.6321,3.4344 3.0522,.0328 5.8505-1.7129 7.6221-4.155 2.2587-2.9001 3.972-6.1737 6.0654-9.1888 2.6282,5.2638 6.3455,11.137 12.6295,12.2049 3.4788,.5164 8.0641-.0356 9.6432-3.7282 1.3933-2.6974-.4464-5.9633-3.2068-6.9175-2.8186-1.0394-5.5024-2.9033-6.4162-5.917-1.7213-5.5111-3.5496-11.6184-8.4888-15.1371-1.3715-.8183-3.5696-1.7514-4.9735-.5675-4.724,2.5544-6.8363,7.8177-9.7875,12.0207-.9741,.5122 .0682-3.1672 .5318-4.2463 2.377-6.1311 6.3017-12.2544 5.1933-19.1182-.0798-5.6885-2.842-12.104-8.5375-14.2001-1.3444-.5194-2.7807-.7588-4.2125-.8624zm2.2188,59.3125c.7241,.6438 .0798,.2674 0,0z"/>
<path opacity=".15" d="m42.5312,20.0938c-1.3136-.0326-2.6464,.1375-3.9375,.4688-3.4476,.8846-6.7192,2.9363-9.0625,5.7188-2.3284,2.7647-3.7207,6.3532-3.2812,10.1562-.0119-.1584-.0133-.1445 0,.0312 .0007,.009-.0007,.0222 0,.0312 .4807,6.2899 3.3946,16.3045 7.0312,24.9375 1.8246,4.3314 3.8479,8.2694 5.875,11.2188 1.0136,1.4747 2.0199,2.7119 3.0938,3.625 1.0325,.8779 2.1819,1.4744 3.4375,1.5 .043,.0049 .0115,.0311 .0625,.0312 .0547,.0068 .0273,.0326 .0938,.0312a.9611,.9611 0 0,0 .375-.0938c1.7882,.1081 3.438-.4297 4.7812-1.4688 1.4897-1.1523 2.694-2.734 3.8125-4.4375 1.922-2.9273 3.6419-6.1206 5.4375-8.4375 .0654,.1147 .0863,.1217 .1562,.25 .6634,1.2164 1.5593,3.0411 2.7188,4.9375 1.1597,1.8968 2.5819,3.8849 4.4375,5.4375 1.8441,1.543 4.179,2.6692 6.9062,2.6875 .0108,.0001 .0205-0 .0312,0 .0105,.0007 .0207-.0007 .0312,0 1.6013,.1016 3.2367-.0913 4.625-.7812 1.4502-.7207 2.6166-2.16 2.6875-4a.9611,.9611 0 0,0 0-.0312c.0151-1.5214-.9063-2.6705-1.9375-3.3125-.9701-.6039-1.9907-.937-3.0312-1.4688-2.1026-1.0745-4.3035-2.6288-5.75-7.7812-1.2111-4.3141-2.8496-7.5715-4.5938-9.8125-1.7351-2.2292-3.6763-3.6116-5.75-3.5625h-.0312-.0625a.9611,.9611 0 0,0 -.4062,.0938 .9611,.9611 0 0,0 -.0312,0l-.0625,.0312v.0312c-1.4724,.5702-2.6745,1.7449-3.8438,3.1562-1.1994,1.4478-2.3515,3.1912-3.4375,4.9062-1.0835,1.711-2.1087,3.3893-2.9688,4.7188-.3931,.6077-.5892,.8037-.875,1.1562-.6872-1.0153-1.0411-2.0621-.9375-3.3438 .1505-1.8612 .9762-4.1281 2.0625-6.5938 2.1085-4.7861 5.0621-10.3159 4.0625-16.0625-.0018-.0105 .0019-.0207 0-.0312a.9611,.9611 0 0,0 0-.0938 .9611,.9611 0 0,0 .0312-.25c-.4648-5.6352-2.5515-9.4471-5.5312-11.5625-1.4823-1.0523-3.1627-1.6778-4.9062-1.9062-.4345-.0569-.8738-.1141-1.3125-.125z"/>
<path opacity=".3" d="m42.5,21.0625c-1.2156-.0301-2.4411,.1257-3.6562,.4375-3.2403,.8314-6.3545,2.7845-8.5625,5.4062-2.2014,2.6139-3.4888,5.9422-3.0625,9.4688 .0007,.0089-.0007,.0223 0,.0312 .4578,6.0668 3.3289,16.09 6.9375,24.6562 1.807,4.2895 3.8128,8.1984 5.7812,11.0625 .9842,1.432 1.9639,2.6097 2.9375,3.4375 .9516,.8092 1.8969,1.2779 2.875,1.2812 .0226,.0001 .0399,.0317 .0625,.0312v-.0312c1.7346,.2514 3.2669-.2862 4.5938-1.3125 1.3438-1.0394 2.4992-2.5517 3.5938-4.2188 2.1368-3.2544 4.0639-7.1412 6.2812-9.5938 .0384,.0324 .0659,.0238 .125,.0938 .2185,.2587 .5017,.7478 .8438,1.375 .6842,1.2545 1.5583,3.0593 2.6875,4.9062 1.1292,1.847 2.5159,3.7366 4.25,5.1875 1.7265,1.4446 3.8316,2.4601 6.3125,2.4688 .0108,0 .0204,0 .0312,0 1.4946,.1023 2.992-.0934 4.1875-.6875 1.2039-.5983 2.0997-1.688 2.1562-3.1562 .0115-1.1612-.6333-1.9798-1.4688-2.5-.8355-.5202-1.8578-.8698-2.9688-1.4375-2.2219-1.1354-4.7438-3.0099-6.25-8.375-1.1846-4.2197-2.7623-7.3566-4.4062-9.4688-1.644-2.1122-3.3797-3.2371-5-3.1875h-.0938l-.0625,.0312c-1.226,.4454-2.3761,1.5432-3.5312,2.9375-1.1552,1.3943-2.2998,3.0833-3.375,4.7812-1.0752,1.6979-2.094,3.3979-2.9688,4.75-.7414,1.146-1.3182,1.8355-1.75,2.25-1.4644-1.4929-1.9973-3.1325-1.8438-5.0312 .1678-2.0755 1.0579-4.413 2.1562-6.9062 2.1885-4.9676 5.1307-10.5052 3.9688-15.9688h.0312c-.4486-5.4395-2.4166-8.9523-5.125-10.875-1.3542-.9614-2.8743-1.5411-4.4688-1.75-.3986-.0522-.8136-.0837-1.2188-.0938z"/>
<path fill="url(#radialGradient3925)" stroke="#d87070" d="m27.7045,35.3317c.8848,11.8903 11.546,40.1627 18.1118,40.0306 6.4696,1.0129 9.5041-10.1287 14.2562-15.1931 1.6484-.9886 5.0086,14.0768 14.4574,14.0768 2.8734,.2048 5.7468-.7794 5.8457-3.3489 .0398-4.0119-7.6043-1.2087-10.6809-12.1678-2.3424-8.3436-6.1628-12.3836-8.8974-12.2999-4.2491,1.5438-9.555,13.5245-11.8224,15.0683-7.7067-6.7843 6.1213-18.1926 3.8313-28.676-1.7615-21.3585-26.7751-11.0095-25.1017,2.5102z"/>
</g>
<path fill="none" stroke="url(#linearGradient3134)" d="m29.0257,35.1996c.8848,11.8903 11.6782,38.7094 16.7906,38.7094 6.4696,1.0129 8.9757-12.5068 14.2562-15.1931 3.3659-1.385 4.8765,14.0768 14.3253,14.0768 2.8734,.2048 4.5577-.1188 4.5246-1.7635 .4361-2.5587-6.8153-1.3698-10.4167-12.1678-2.7387-8.2115-4.9738-11.0624-7.7084-10.9788-4.2491,1.5438-7.8376,12.7318-11.8224,15.3325-10.4811-8.8981 4.8001-19.7779 2.5102-30.2614-1.101-18.5841-23.208-11.1416-22.4594,2.2459z"/>
<path fill="#571e00" fill-opacity=".322" d="m50.726,36.9785c-.5325,.2319-1.0643,.6323-1.5572,.9383-4.14,2.5706-10.9991,5.7134-16.036,7.2799-.5057,.1573-.5693,.6584-.4921,.9979 .2766,1.2159 1.2041,2.797 2.4328,4.1021 1.2286,1.3051 3.0417,2.308 5.5783,2.3362 1.107,.0124 2.1932-.5356 3.2559-1.3704 1.0628-.8348 2.105-1.9879 3.0398-3.3295 1.8696-2.6834 3.3149-5.909 3.3571-9.3907 .0056-.4637 .2674-1.1234 .4212-1.5637zm-2.017,2.9526c-.3572,2.4576-1.515,5.0774-2.9662,7.1603-.8658,1.2427-1.8293,2.2962-2.7409,3.0122-.9115,.716-1.7693,1.064-2.3362,1.0577-2.1732-.0242-3.5141-.8026-4.5206-1.8717-.8059-.8561-1.3385-1.9071-1.7935-2.9156 4.7725-1.3786 10.3444-4.0224 14.3574-6.4429z"/>
<path d="m38.2343,26.5708c-2.1581,.0726-4.1621,.4586-5.5984,1.0002-.8937,1.2402-1.6512,2.7528-2.0564,4.6251-.7372-2.4404-.5699-4.7638 .5749-6.8082 2.5969-.536 5.4265,.2232 7.0799,1.1829z"/>
<path d="m47.82,25.6389c-1.8215-1.1597-3.693-1.9737-5.184-2.3385-1.4382,.5181-2.9179,1.338-4.3103,2.6536 .7709-2.43 2.2219-4.2523 4.3217-5.2919 2.4453,1.0254 4.3508,3.2507 5.1726,4.9768z"/>
<path fill="url(#linearGradient3128)" d="m33.3205,45.9093c5.3166-1.392 12.0716-4.6809 16.2464-7.3737-.0616,6.0867-5.5593,13.3995-8.9072,13.3622-4.7098-.0524-6.3111-3.561-7.3392-5.9885z"/>
<g fill="#571e00" fill-opacity=".322">
<path d="m39.3577,36.1335c.4499-5.6804-2.242,3.3863-4.1279,5.8885-1.3254-.0562-3.1193-2.7392-3.1193-5.8885 0-3.1493 1.6234-5.7053 3.6236-5.7053 2.0002,0 3.6236,2.556 3.6236,5.7053z"/>
<path d="m46.4695,32.664c0,2.9365-1.7616,5.3198-3.932,5.3198-2.1705,0-3.932-2.3833-3.932-5.3198 0-2.9365 1.7615-5.3198 3.932-5.3198 2.1705,0 3.932,2.3833 3.932,5.3198z"/>
</g>
<path fill="#fff" d="m42.8896,27.6893c-1.9058,.1936-3.4047,2.7361-3.6468,5.9279-.8055-1.7291-2.0201-2.8213-3.2605-2.6903-1.9035,.201-3.1377,3.1802-2.7547,6.6499 .2219,2.0102 .947,3.7257 1.8809,4.7919 1.327-1.0716 3.0097-1.9896 4.9391-2.6581 .0384-.238 .0754-.4798 .0966-.7312 .1036,.217 .2323,.3903 .3495,.584 .8935-.286 1.8303-.5248 2.8099-.6944 1.049-.1816 2.0768-.2712 3.0766-.2943 .4954-1.2368 .775-2.7516 .7128-4.3827-.1452-3.8095-2.0303-6.7234-4.2033-6.5027z"/>
<path d="m43.7895,34.5213a.9482,1.8286 0 0,1 -1.8964,0 .9482,1.8286 0 1,1 1.8964,0z"/>
<path fill="url(#linearGradient3121)" d="m49.0585,41.8165c-.9777,1.4015-3.0314,2.4677-6.4521,4.1251 3.9009-.9021 3.8253-.0289 3.9504,1.2739 .853-1.2937 1.9745-3.3183 2.5017-5.399zm-8.218,4.8655c-3.6183,1.1645-5.2103,1.4354-6.7234,.9428 .7728,1.6066 2.0151,2.9413 3.4261,3.5963-.592-1.3156-.5897-2.5068 3.2973-4.539z"/>
<path d="m37.7253,36.08a.9482,1.8286 0 0,1 -1.8964,0 .9482,1.8286 0 1,1 1.8964,0z"/>
<g fill="#d35f5f">
<path opacity=".15" d="m60.5938,56.1562c-.1837-.0009-.3915,.0288-.5938,.0625-4.99,1.3486-8.0692,14.0312-12.25,14.0312-7.5908,.9448-12.8125-10.9375-12.8125-10.9375l-.375,.4062c3.6074,8.5952 7.9508,15.7226 11.25,15.6562 6.4696,1.0129 9.4979-10.1544 14.25-15.2188 1.6484-.9886 5.0199,14.0938 14.4688,14.0938 2.6121,.1862 5.2222-.6108 5.75-2.6875l-.7188-2.4062c-16.07,3.1356-13.2734-12.9714-18.9688-13z"/>
<path opacity=".3" d="m60.5938,58.1562c-.1837-.0009-.3915,.0288-.5938,.0625-4.99,1.3486-8.0692,14.0312-12.25,14.0312-4.6911,.5839-8.4793-3.7118-10.6875-7.0938 2.9877,5.9472 6.1853,10.2704 8.75,10.2188 6.4696,1.0129 9.4979-10.1544 14.25-15.2188 1.6484-.9886 5.0199,14.0938 14.4688,14.0938 2.2427,.1599 4.4827-.3977 5.4062-1.875l-.375-1.2188c-16.07,3.1356-13.2734-12.9714-18.9688-13z"/>
</g>
</svg>
