<svg xmlns="http://www.w3.org/2000/svg" viewBox="0 0 96 96" xmlns:xlink="http://www.w3.org/1999/xlink">
<defs>
<clipPath id="clipPath3613">
<path fill="#fff" d="m12,6h72a6,6 0 0,1 6,6v72a6,6 0 0,1 -6,6h-72a6,6 0 0,1 -6-6v-72a6,6 0 0,1 6-6"/>
</clipPath>
<filter width="1.379" x="-.19" y="-.116" height="1.232" color-interpolation-filters="sRGB" id="filter3789">
<feGaussianBlur stdDeviation="1.84777"/>
</filter>
<filter color-interpolation-filters="sRGB" id="filter3573-0">
<feGaussianBlur stdDeviation="1.62849"/>
</filter>
<filter color-interpolation-filters="sRGB" id="filter3546-2">
<feGaussianBlur stdDeviation=".15992"/>
</filter>
<filter width="1.384" x="-.192" y="-.192" height="1.384" color-interpolation-filters="sRGB" id="filter3794">
<feGaussianBlur stdDeviation="5.28"/>
</filter>
<filter color-interpolation-filters="sRGB" id="filter3291-5">
<feGaussianBlur stdDeviation=".40063"/>
</filter>
<linearGradient gradientTransform="translate(0 80)" xlink:href="#linearGradient3431-7" id="linearGradient3167" y1="416.389" x1="70.492" y2="375.88" gradientUnits="userSpaceOnUse" x2="113.642"/>
<linearGradient gradientTransform="matrix(.11484 0 0 .11008 -36.97375 94.9853)" xlink:href="#linearGradient3958" id="linearGradient3165" y1="362.143" x1="61.429" y2="408.571" gradientUnits="userSpaceOnUse" x2="116.429"/>
<linearGradient gradientTransform="matrix(1.05452 0 0 1.04474 -2.11406 -2.2135)" xlink:href="#linearGradient3737" id="linearGradient3199" y1="6" y2="63.893" gradientUnits="userSpaceOnUse" x2="0"/>
<linearGradient gradientTransform="matrix(1.03258 0 0 1.03297 -1.08081 -97.06602)" xlink:href="#ButtonShadow-0" id="linearGradient3154" y1="6.132" y2="90.239" gradientUnits="userSpaceOnUse" x2="0"/>
<linearGradient gradientTransform="matrix(.9897 0 0 1 .46032 0)" xlink:href="#linearGradient3714" id="linearGradient3926" y1="117.402" x1="45.15" y2="9.97" x2="44.562" gradientUnits="userSpaceOnUse"/>
<linearGradient gradientTransform="matrix(1.95261 0 0 -2.75773 4.8352 156.0675)" xlink:href="#linearGradient3958" id="linearGradient3226" y1="7.001" y2="14" gradientUnits="userSpaceOnUse" x2="0"/>
<linearGradient gradientTransform="matrix(1.59107 0 0 -1.81907 .42334 147.14906)" xlink:href="#linearGradient2446-733-45" id="linearGradient3224" y1="5.709" y2="16.323" gradientUnits="userSpaceOnUse" x2="0"/>
<linearGradient gradientTransform="matrix(1.05452 0 0 1.04474 -2.11406 -2.2135)" xlink:href="#linearGradient3972" id="linearGradient3202" y1="90" y2="5.988" gradientUnits="userSpaceOnUse" x2="0"/>
<linearGradient gradientTransform="matrix(1.14219 0 0 1.21828 11.8888 4.17189)" xlink:href="#linearGradient2446-733-45-5" id="linearGradient3186" y1="5.709" y2="16.323" gradientUnits="userSpaceOnUse" x2="0"/>
<linearGradient id="linearGradient3972">
<stop offset="0" stop-color="#245f24"/>
<stop offset="1" stop-color="#5aa431"/>
</linearGradient>
<linearGradient gradientTransform="matrix(1.00587 0 0 .99417 100 0)" id="ButtonShadow-0" y1="92.54" y2="7.017" x2="0" gradientUnits="userSpaceOnUse">
<stop offset="0"/>
<stop offset="1" stop-opacity=".588"/>
</linearGradient>
<linearGradient id="linearGradient2446-733-45">
<stop offset="0" stop-color="#fafafa"/>
<stop offset="1" stop-color="#c5c5c5"/>
</linearGradient>
<linearGradient id="linearGradient3613" xlink:href="#linearGradient3737" y1="20.221" y2="138.661" x2="0" gradientUnits="userSpaceOnUse"/>
<linearGradient id="linearGradient3714">
<stop offset="0" stop-color="#d7d7d7"/>
<stop offset="1" stop-color="#c8c8c8"/>
</linearGradient>
<linearGradient id="linearGradient3737">
<stop offset="0" stop-color="#fff"/>
<stop offset="1" stop-color="#fff" stop-opacity="0"/>
</linearGradient>
<linearGradient gradientTransform="matrix(1.05716 0 0 1.04526 -2.26089 -98.17277)" xlink:href="#ButtonShadow-0" id="linearGradient3157" y1="6.132" y2="90.239" gradientUnits="userSpaceOnUse" x2="0"/>
<linearGradient id="linearGradient3431-7">
<stop offset="0" stop-color="#3d3d3d"/>
<stop offset="1" stop-opacity=".114"/>
</linearGradient>
<linearGradient id="linearGradient2446-733-45-5">
<stop offset="0" stop-color="#fafafa"/>
<stop offset="1" stop-color="#c5c5c5"/>
</linearGradient>
<linearGradient id="linearGradient3958">
<stop offset="0" stop-color="#a1a1a1"/>
<stop offset="1" stop-color="#4d4d4d"/>
</linearGradient>
<linearGradient id="linearGradient3697">
<stop offset="0" stop-color="#dcdcdc"/>
<stop offset="1" stop-color="#f0f0f0"/>
</linearGradient>
<linearGradient xlink:href="#linearGradient3697" id="linearGradient3134" y1="63.048" y2="24.84" gradientUnits="userSpaceOnUse" x2="0"/>
<radialGradient cx="48" cy="90.172" gradientTransform="matrix(1.22041 0 0 1.04046 -10.07678 -2.00755)" xlink:href="#linearGradient3737" id="radialGradient3196" r="42" gradientUnits="userSpaceOnUse"/>
<radialGradient cx="3.811" cy="121.672" gradientTransform="matrix(1.18952 -.02604 .00871 .41857 35.30991 76.23111)" xlink:href="#linearGradient2446-733-45" id="radialGradient3206" r="28.116" gradientUnits="userSpaceOnUse"/>
<radialGradient cx="3.811" cy="121.672" gradientTransform="matrix(1.18952 -.02604 .00871 .41857 70.38246 76.23111)" xlink:href="#linearGradient2446-733-45" id="radialGradient3195" r="28.116" gradientUnits="userSpaceOnUse"/>
</defs>
<path opacity=".3" fill="url(#linearGradient3157)" d="m11.3101-91.9012h74.3454a7.228,7.2308 0 0,1 7.228,7.2308v73.3407a7.228,7.2308 0 0,1 -7.228,7.2307h-74.3454a7.228,7.2308 0 0,1 -7.228-7.2307v-73.3407a7.228,7.2308 0 0,1 7.228-7.2308" transform="scale(1 -1)"/>
<path opacity=".45" fill="url(#linearGradient3154)" d="m11.3101-90.8682h74.3454a6.1955,6.1978 0 0,1 6.1955,6.1978v74.3736a6.1955,6.1978 0 0,1 -6.1955,6.1978h-74.3454a6.1955,6.1978 0 0,1 -6.1955-6.1978v-74.3736a6.1955,6.1978 0 0,1 6.1955-6.1978" transform="scale(1 -1)"/>
<path fill="url(#linearGradient3202)" d="m10.5402,4.0549h75.9256a6.3271,6.2684 0 0,1 6.3271,6.2685v75.2213a6.3271,6.2684 0 0,1 -6.3271,6.2684h-75.9256a6.3271,6.2684 0 0,1 -6.3271-6.2684v-75.2213a6.3271,6.2684 0 0,1 6.3271-6.2685"/>
<path opacity=".4" fill="url(#linearGradient3199)" d="m10.5402,4.0549c-3.5052,0-6.3271,2.7957-6.3271,6.2684v2.0895 71.0423 2.0895c0,.3497 .0436,.6798 .0989,1.0121 .0514,.3088 .1023,.6236 .1977,.9141 .0104,.0317 .022,.0665 .033,.0979 .1043,.3006 .2477,.5719 .3954,.8489 .1525,.2857 .3328,.5596 .5273,.8162 .1944,.2566 .3942,.4947 .6261,.7183 .4639,.4472 .9943,.851 1.5818,1.1427 .2937,.1459 .6047,.258 .9227,.3591-.2702-.1047-.5132-.2468-.7579-.3918-.0078-.0047-.0252,.0048-.033,0-.0337-.0202-.0657-.0444-.0989-.0653-.127-.0801-.2436-.1708-.3625-.2612-.112-.0844-.2249-.1683-.3295-.2612-.1876-.1687-.3664-.3608-.5273-.555-.1134-.1361-.2303-.2772-.3295-.4244-.0265-.0401-.0405-.0897-.0659-.1306-.0683-.1076-.1373-.2137-.1977-.3265-.1065-.2034-.2169-.4343-.2966-.653-.0084-.0228-.0249-.0424-.033-.0653-.0336-.0961-.0378-.1952-.0659-.2938-.032-.1114-.0742-.2121-.0989-.3265-.0769-.3568-.1318-.7294-.1318-1.11v-2.0895-71.0423-2.0895c0-2.9063 2.3391-5.2237 5.2726-5.2237h2.109 71.7075 2.109c2.9335,0 5.2726,2.3174 5.2726,5.2237v2.0895 71.0423 2.0895c0,.3806-.055,.7532-.1318,1.11-.0466,.2161-.0932,.4154-.1648,.6203-.0082,.0229-.0246,.0425-.0329,.0653-.0661,.1815-.1459,.3839-.2307,.555-.0439,.0865-.0833,.1776-.1318,.2612-.0576,.1016-.1337,.1968-.1977,.2938-.0992,.1473-.2161,.2883-.3295,.4244-.151,.1823-.3197,.3625-.4943,.5224-.0118,.0107-.0211,.0221-.0329,.0327-.1459,.1312-.3006,.2449-.4614,.3591-.1082,.0764-.2155,.1602-.3295,.2285-.0079,.0048-.0251-.0047-.0329,0-.2447,.1449-.4878,.2871-.7579,.3918 .318-.1011 .629-.2133 .9227-.3591 .5875-.2917 1.1178-.6955 1.5818-1.1427 .232-.2236 .4317-.4616 .6261-.7183 .1944-.2566 .3748-.5305 .5273-.8162 .1478-.2769 .2912-.5482 .3954-.8489 .011-.0322 .0225-.0656 .0329-.0979 .0954-.2905 .1464-.6053 .1977-.9141 .0553-.3323 .0989-.6624 .0989-1.0121v-2.0895-71.0423-2.0895c0-3.4727-2.8219-6.2684-6.3271-6.2684h-75.9256z"/>
<path opacity=".2" fill="url(#radialGradient3196)" d="m10.5402,91.8131c-3.5052,0-6.3271-2.7957-6.3271-6.2684v-2.0895-71.0423-2.0895c0-.3497 .0436-.6798 .0989-1.0121 .0514-.3088 .1023-.6236 .1977-.9141 .0104-.0317 .022-.0665 .033-.0979 .1043-.3006 .2477-.5719 .3954-.8488 .1525-.2857 .3328-.5596 .5273-.8162 .1944-.2566 .3942-.4947 .6261-.7183 .4639-.4472 .9943-.851 1.5818-1.1427 .2937-.1459 .6047-.258 .9227-.3591-.2702,.1047-.5132,.2468-.7579,.3918-.0078,.0046-.0252-.0047-.033,0-.0337,.0202-.0657,.0444-.0989,.0653-.127,.0801-.2436,.1708-.3625,.2612-.112,.0844-.2249,.1683-.3295,.2612-.1876,.1687-.3664,.3608-.5273,.555-.1134,.1361-.2303,.2772-.3295,.4244-.0265,.0401-.0405,.0897-.0659,.1306-.0683,.1076-.1373,.2137-.1977,.3265-.1065,.2034-.2169,.4343-.2966,.653-.0084,.0228-.0249,.0424-.033,.0653-.0336,.0961-.0378,.1952-.0659,.2938-.032,.1114-.0742,.2121-.0989,.3265-.0769,.3568-.1318,.7294-.1318,1.11v2.0895 71.0423 2.0895c0,2.9063 2.3391,5.2237 5.2726,5.2237h2.109 71.7075 2.109c2.9335,0 5.2726-2.3174 5.2726-5.2237v-2.0895-71.0423-2.0895c0-.3806-.055-.7532-.1318-1.11-.0465-.2161-.0932-.4154-.1648-.6203-.0082-.0229-.0246-.0425-.0329-.0653-.0662-.1815-.1459-.3839-.2307-.555-.0438-.0865-.0833-.1776-.1318-.2612-.0576-.1016-.1337-.1968-.1977-.2938-.0992-.1473-.2161-.2883-.3295-.4244-.151-.1823-.3197-.3625-.4943-.5224-.0118-.0107-.0211-.0221-.033-.0326-.1459-.1312-.3006-.2449-.4614-.3591-.1082-.0764-.2155-.1602-.3295-.2285-.0079-.0047-.0251,.0046-.0329,0-.2447-.1449-.4878-.2871-.7579-.3918 .318,.1011 .629,.2133 .9227,.3591 .5875,.2917 1.1178,.6955 1.5818,1.1427 .232,.2236 .4317,.4616 .6261,.7183 .1944,.2566 .3748,.5305 .5273,.8162 .1478,.2769 .2912,.5482 .3954,.8489 .011,.0322 .0225,.0655 .0329,.0979 .0954,.2905 .1464,.6053 .1977,.9141 .0553,.3323 .0989,.6624 .0989,1.0121v2.0895 71.0423 2.0895c0,3.4727-2.8219,6.2684-6.3271,6.2684h-75.9256z"/>
<g transform="matrix(1.05551 0 0 1.04224 -2.09448 -2.13696)">
<path opacity=".1" fill="url(#linearGradient3613)" filter="url(#filter3794)" stroke="#fff" stroke-linecap="round" stroke-width=".5" d="m27,15h42a12,12 0 0,1 12,12v42a12,12 0 0,1 -12,12h-42a12,12 0 0,1 -12-12v-42a12,12 0 0,1 12-12" clip-path="url(#clipPath3613)"/>
</g>
<path fill="none" stroke="#fff" stroke-width="2.938" d="m18.3974,19.8229h60.6793v45.8628h-60.6793z"/>
<path fill="url(#linearGradient3186)" fill-rule="evenodd" stroke="url(#linearGradient3926)" stroke-width=".68" d="m21.3637,12.0521c0,0 55.1385,.0158 55.1385,.0158 2.1936,0 3.7339,2.3293 3.7339,4.9069 0,0 0,6.1576 0,6.1576 0,0-63.0776,0-63.0776,0 0,0 0-6.1576 0-6.1576 0-2.7474 1.6944-4.9228 4.2052-4.9228z"/>
<g transform="matrix(.99933 0 0 1 -3.08802 -43.04673)">
<path fill="url(#linearGradient3224)" fill-rule="evenodd" stroke="url(#linearGradient3226)" stroke-width=".867" d="m13.6219,135.3827c0,0 76.8081-.0237 76.8081-.0237 3.0557,0 5.2013-3.478 5.2013-7.3267 0,0 0-9.1943 0-9.1943 0,0-87.8672,0-87.8672,0 0,0 0,9.1943 0,9.1943 0,4.1022 2.3603,7.3504 5.8578,7.3504z"/>
<path fill="url(#radialGradient3206)" stroke="#5d5d5d" stroke-width=".928" d="m29.3402,122.17h23.1249a4.0051,4.0051 0 0,1 4.0052,4.005v1.77a4.0051,4.0051 0 0,1 -4.0052,4.005h-23.1249a4.0051,4.0051 0 0,1 -4.0051-4.005v-1.77a4.0051,4.0051 0 0,1 4.0051-4.005"/>
</g>
<g transform="matrix(1.03188 0 0 1.03297 39.30119 -58.77722)">
<path opacity=".26" filter="url(#filter3573-0)" fill-rule="evenodd" color="#000" d="m331.7904,510.9335c-21.2901,0-39.7658-16.1399-39.7658-37.411l-.0191-21.9923v-6.586h-13.4978v-36.6513l56.9204,.2681 17.8056,.0383c21.3093,0 39.7658,16.1207 39.7658,37.4109v64.9233h-61.209l0,0z" transform="matrix(.10975 0 0 .1052 -62.5674 89.76102)"/>
<path fill="url(#linearGradient3165)" fill-rule="evenodd" d="m-20.2966,141.7377c0-1.4848 0-4.9876 0-4.9876 0-1.6663-1.5245-3.017-3.4055-3.017h-1.9523v-.004l-5.2802-.0221v1.8198c0,0 .4311,0 .8105,0 .5658,0 .6657,.3744 .6657,.8925l.0042,3.2172c0,1.6663 1.5245,3.017 3.4034,3.017h4.639c.5947,0 1.1151-.361 1.1151-.9158z"/>
<path opacity=".175" fill="url(#linearGradient3167)" filter="url(#filter3291-5)" d="m142.9375,500.5312c-10.7518-7.4094-18.3668-15.9203-24.7812-27.1875-12.6444-23.3581-9.6879-34.9533-41-37.6875-9.0363,0-15.0512-2-24.5625-2v3.3125c0,0 3.7587,1.9075 7.0625,1.9075 4.9267,0 5.7812,3.4176 5.7812,8.125l.0312,29.155c-0,15.1376 13.2952,27.4062 29.6562,27.4062h40.375c2.9636,0 5.6257-1.1679 7.4375-3.0312z" transform="matrix(.11034 0 0 .10576 -36.52868 89.22155)"/>
<path filter="url(#filter3546-2)" fill-rule="evenodd" fill-opacity=".08" color="#000" d="m105.5184,438.5401c-3.8367,0-7.2457,1.4244-9.9848,4.1914-2.7377,2.7655-4.1752,6.218-4.1752,10.1142v19.6947h8.933v-19.6947c0-1.4934 .4873-2.6611 1.5536-3.7382 1.0698-1.0806 2.2026-1.5697 3.6735-1.5697 1.5018,0 2.6176,.4867 3.6897,1.5697 1.0663,1.0771 1.5536,2.2448 1.5536,3.7382v19.6947h8.933v-19.6947c0-1.4934 .4873-2.6611 1.5536-3.7382 1.0721-1.083 2.1879-1.5697 3.6897-1.5697 1.4709,0 2.6037,.4892 3.6735,1.5697 1.0663,1.0771 1.5536,2.2448 1.5536,3.7382l.0486,23.0122c0,4.9089-4.6749,9.0462-10.6807,9.0462l-28.8055-.1133c-4.6347,0-8.5931-4.5112-8.5931-10.3085v-43.3353h-8.4475v45.0021c0,4.7747 1.7472,8.9618 5.1462,12.3476 2.9052,2.8676 6.3991,4.5645 10.3247,4.9843v.1619h32.0745c4.9287,0 9.2588-1.8327 12.7521-5.389h.0162c2.971-3.0525 4.7079-6.71 5.13-10.8262l-.0324-24.5819c0-3.8963-1.4374-7.3487-4.1752-10.1142-2.7391-2.767-6.1481-4.1914-9.9848-4.1914-3.766,0-7.0613,1.4004-9.7259,3.9648-2.6568-2.5601-5.9291-3.9648-9.6936-3.9648z" transform="matrix(.11034 0 0 .10576 -36.6725 89.14964)"/>
<path fill="#fff" fill-rule="evenodd" color="#000" d="m-25.1084,135.5556c-.4233,0-.7995,.1507-1.1017,.4433-.3021,.2925-.4607,.6576-.4607,1.0697v2.083h.9857v-2.083c0-.1579 .0538-.2814 .1714-.3954 .118-.1143 .243-.166 .4053-.166 .1657,0 .2888,.0515 .4071,.166 .1177,.1139 .1714,.2374 .1714,.3954v2.083h.9857v-2.083c0-.1579 .0538-.2814 .1714-.3954 .1183-.1145 .2414-.166 .4071-.166 .1623,0 .2873,.0517 .4053,.166 .1177,.1139 .1714,.2374 .1714,.3954l.0054,2.4338c0,.5192-.5158,.9567-1.1785,.9567l-3.1784-.012c-.5114,0-.9482-.4771-.9482-1.0903v-4.5832h-.9321v4.7595c0,.505 .1928,.9478 .5678,1.3059 .3206,.3033 .7061,.4999 1.1392,.5443h3.5391c.5438,0 1.0216-.1938 1.4071-.57h.0018c.3278-.3228 .5195-.7097 .566-1.145l-.0036-2.5999c0-.4121-.1586-.7772-.4607-1.0697-.3022-.2926-.6784-.4433-1.1017-.4433-.4155,0-.7791,.1481-1.0732,.4193-.2932-.2708-.6542-.4193-1.0696-.4193z"/>
<path opacity=".3" fill="#010101" fill-rule="evenodd" color="#000" d="m-25.688,140.4504 0,.9331 2.3152,0c.5438,0 1.0188-.1944 1.4042-.5705h.0033c.3278-.3228 .5191-.7089 .5656-1.1442v-.5296h-.9833v.3625c0,.5192-.5146,.9551-1.1773,.9551l-2.1277-.006z"/>
<path fill="#fff" fill-rule="evenodd" color="#000" d="m-26.0816,143.3442c-2.2405,0-4.1848-1.6281-4.1848-3.7737l-.002-2.6052v-.6643h-1.4204v-3.3102l5.99,.027 1.8738,.004c2.2425,0 4.1848,1.6261 4.1848,3.7737v6.5488h-6.4414l0,0zm5.5286-1.7567c0-1.4266 0-4.7921 0-4.7921 0-1.601-1.4648-2.8988-3.2721-2.8988h-1.8758v-.004l-5.0733-.0213v1.5547c0,0 .2038,0 .5683,0 .3858,0 .8501,.3476 .8501,.8576l.004,3.285c0,1.601 1.4648,2.8988 3.27,2.8988h4.4572c.5714,0 1.0714-.3469 1.0714-.8799z"/>
</g>
<g transform="matrix(.99933 0 0 1 -3.08802 -43.04673)">
<path fill="url(#radialGradient3195)" stroke="#5d5d5d" stroke-width=".928" d="m64.4128,122.17h23.1249a4.0051,4.0051 0 0,1 4.0051,4.005v1.77a4.0051,4.0051 0 0,1 -4.0051,4.005h-23.1249a4.0051,4.0051 0 0,1 -4.0051-4.005v-1.77a4.0051,4.0051 0 0,1 4.0051-4.005"/>
</g>
<g transform="matrix(.96555 0 0 1.00546 2.10846 -1.74618)">
<g opacity=".8" filter="url(#filter3789)" line-height="125%" transform="matrix(.94114 0 0 .94221 4.59008 4.59538)">
<path d="m57.813,34.8241c-0,2.4-.736,4.464-2.208,6.192-.448,.576-1.792,1.744-4.032,3.504-1.472,1.184-2.208,2.288-2.208,3.312v1.68h-8.88v-2.736c-0-1.824 .704-3.52 2.112-5.088 .032-.064 1.328-1.248 3.888-3.552 1.408-1.248 2.112-2.4 2.112-3.456-0-.704-.272-1.28-.816-1.728-.544-.48-1.184-.72-1.92-.72-.96,0-1.68,.352-2.16,1.056-.48,.704-.704,1.552-.672,2.544h-8.592v-.768c0-3.168 1.168-5.696 3.504-7.584 2.144-1.76 4.832-2.64 8.064-2.64 3.2,0 5.92,.848 8.16,2.544 2.432,1.856 3.648,4.336 3.648,7.44m-7.872,23.328c-0,1.44-.464,2.608-1.392,3.504-.896,.928-2.064,1.392-3.504,1.392-1.44-0-2.624-.464-3.552-1.392-.896-.896-1.344-2.064-1.344-3.504-0-1.44 .448-2.624 1.344-3.552 .928-.928 2.112-1.392 3.552-1.392 1.44,0 2.608,.464 3.504,1.392 .928,.928 1.392,2.112 1.392,3.552"/>
</g>
</g>
<g fill="url(#linearGradient3134)" line-height="125%" transform="matrix(.90872 0 0 .94735 6.54043 1.86882)">
<path d="m57.813,34.8241c-0,2.4-.736,4.464-2.208,6.192-.448,.576-1.792,1.744-4.032,3.504-1.472,1.184-2.208,2.288-2.208,3.312v1.68h-8.88v-2.736c-0-1.824 .704-3.52 2.112-5.088 .032-.064 1.328-1.248 3.888-3.552 1.408-1.248 2.112-2.4 2.112-3.456-0-.704-.272-1.28-.816-1.728-.544-.48-1.184-.72-1.92-.72-.96,0-1.68,.352-2.16,1.056-.48,.704-.704,1.552-.672,2.544h-8.592v-.768c0-3.168 1.168-5.696 3.504-7.584 2.144-1.76 4.832-2.64 8.064-2.64 3.2,0 5.92,.848 8.16,2.544 2.432,1.856 3.648,4.336 3.648,7.44m-7.872,23.328c-0,1.44-.464,2.608-1.392,3.504-.896,.928-2.064,1.392-3.504,1.392-1.44-0-2.624-.464-3.552-1.392-.896-.896-1.344-2.064-1.344-3.504-0-1.44 .448-2.624 1.344-3.552 .928-.928 2.112-1.392 3.552-1.392 1.44,0 2.608,.464 3.504,1.392 .928,.928 1.392,2.112 1.392,3.552"/>
</g>
<g transform="matrix(.96555 0 0 1.00546 2.10846 -1.74618)">
<path fill="#fff" line-height="125%" d="m47.875,27c-3.0418,0-5.5447,.8417-7.5625,2.5-2.1985,1.7789-3.3125,4.1401-3.3125,7.125v.7188h.0938c.28-2.3875 1.3451-4.3277 3.2188-5.8438 2.0178-1.6583 4.5207-2.5 7.5625-2.5 3.0116,0 5.5793,.8083 7.6875,2.4062 2.0363,1.5558 3.1496,3.5778 3.375,6.0625 .0348-.3462 .0625-.7005 .0625-1.0625-0-2.9246-1.1487-5.2512-3.4375-7-2.1082-1.598-4.6759-2.4062-7.6875-2.4062zm2.2188,10.3125c-.2896,.7001-.8689,1.4369-1.75,2.2188-2.4093,2.1709-3.6261,3.2835-3.6562,3.3438-1.3251,1.4774-2,3.0627-2,4.7812v2c-0-1.7186 .6749-3.3038 2-4.7812 .0301-.0603 1.2469-1.1729 3.6562-3.3438 1.3251-1.1759 1.9687-2.255 1.9688-3.25-0-.3583-.0742-.6817-.2188-.9688zm-3.125,16.4062c-1.3552,0-2.4391,.4381-3.3125,1.3125-.8433,.8744-1.2813,1.987-1.2812,3.3438-0,.3392 .0395,.6606 .0938,.9688 .1696-.8996 .5692-1.6714 1.1875-2.3125 .8734-.8744 1.9573-1.3125 3.3125-1.3125 1.3552,0 2.4692,.4381 3.3125,1.3125 .6406,.6413 1.0473,1.4125 1.2188,2.3125 .0548-.3082 .0938-.6296 .0938-.9688-0-1.3568-.4391-2.4694-1.3125-3.3438-.8433-.8744-1.9573-1.3125-3.3125-1.3125z"/>
</g>
</svg>
