<svg xmlns="http://www.w3.org/2000/svg" viewBox="0 0 96 96" xmlns:xlink="http://www.w3.org/1999/xlink">
<defs>
<clipPath id="clipPath2973">
<path fill="url(#linearGradient2977)" d="m12,6h72a6,6 0 0,1 6,6v72a6,6 0 0,1 -6,6h-72a6,6 0 0,1 -6-6v-72a6,6 0 0,1 6-6"/>
</clipPath>
<clipPath id="clipPath3613">
<path fill="#fff" d="m12,6h72a6,6 0 0,1 6,6v72a6,6 0 0,1 -6,6h-72a6,6 0 0,1 -6-6v-72a6,6 0 0,1 6-6"/>
</clipPath>
<filter width="1.384" x="-.192" y="-.192" height="1.384" color-interpolation-filters="sRGB" id="filter3794">
<feGaussianBlur stdDeviation="5.28"/>
</filter>
<linearGradient gradientTransform="translate(0 -97)" id="linearGradient3721" xlink:href="#ButtonShadow" y1="6.132" y2="90.239" x2="0" gradientUnits="userSpaceOnUse"/>
<linearGradient id="linearGradient2977" xlink:href="#linearGradient3700-4" y1="90" y2="5.988" x2="0" gradientUnits="userSpaceOnUse"/>
<linearGradient gradientTransform="matrix(1.02381 0 0 1.0119 -1.14286 -98.07143)" id="linearGradient3725" xlink:href="#ButtonShadow" y1="6.132" y2="90.239" x2="0" gradientUnits="userSpaceOnUse"/>
<linearGradient gradientTransform="matrix(1 0 0 -1 -0 96)" id="linearGradient4308" xlink:href="#linearGradient3802" x1="45" x2="51" gradientUnits="userSpaceOnUse"/>
<linearGradient id="linearGradient4330" xlink:href="#linearGradient4152" x1="45" x2="51" gradientUnits="userSpaceOnUse"/>
<linearGradient gradientTransform="matrix(0 1 -1 0 95.92711 .07289)" id="linearGradient4300" xlink:href="#linearGradient3802" x1="45" x2="51" gradientUnits="userSpaceOnUse"/>
<linearGradient id="linearGradient4294" xlink:href="#linearGradient3802" x1="45" x2="51" gradientUnits="userSpaceOnUse"/>
<linearGradient gradientTransform="matrix(1 0 0 -1 -0 96)" id="linearGradient4298" xlink:href="#linearGradient3802" x1="45" x2="51" gradientUnits="userSpaceOnUse"/>
<linearGradient id="linearGradient3708" xlink:href="#linearGradient3770" y1="90" y2="5.988" x2="0" gradientUnits="userSpaceOnUse"/>
<linearGradient id="linearGradient3737">
<stop offset="0" stop-color="#fff"/>
<stop offset="1" stop-color="#fff" stop-opacity="0"/>
</linearGradient>
<linearGradient id="linearGradient3770">
<stop offset="0" stop-color="#ff7612"/>
<stop offset="1" stop-color="#ffc149"/>
</linearGradient>
<linearGradient id="linearGradient3802">
<stop offset="0" stop-color="#676767"/>
<stop offset="1" stop-color="#282828"/>
</linearGradient>
<linearGradient id="linearGradient4152">
<stop offset="0" stop-color="#fff"/>
<stop offset=".5" stop-color="#fff" stop-opacity="0"/>
<stop offset="1" stop-color="#fff" stop-opacity="0"/>
</linearGradient>
<linearGradient gradientTransform="matrix(1.00587 0 0 .99417 100 0)" id="ButtonShadow" y1="92.54" y2="7.017" x2="0" gradientUnits="userSpaceOnUse">
<stop offset="0"/>
<stop offset="1" stop-opacity=".588"/>
</linearGradient>
<linearGradient id="linearGradient3188" xlink:href="#linearGradient3737" y1="6" y2="63.893" x2="0" gradientUnits="userSpaceOnUse"/>
<linearGradient id="linearGradient3613" xlink:href="#linearGradient3737" y1="20.221" y2="138.661" x2="0" gradientUnits="userSpaceOnUse"/>
<linearGradient id="linearGradient3700-4">
<stop offset="0" stop-color="#70a83e"/>
<stop offset="1" stop-color="#9fd058"/>
</linearGradient>
<radialGradient cx="35.355" cy="47.746" gradientTransform="matrix(-0 -2.5088 1.82617 -0 -39.67779 152.12729)" r="3.532" id="radialGradient4339" xlink:href="#linearGradient3802" gradientUnits="userSpaceOnUse"/>
<radialGradient cx="35.355" cy="47.746" gradientTransform="matrix(2.00704 -0 0 1.46094 -35.34899 -22.26227)" r="3.532" id="radialGradient4322" xlink:href="#linearGradient3802" gradientUnits="userSpaceOnUse"/>
<radialGradient cx="37.5" cy="37.5" r="8" id="radialGradient4302" gradientUnits="userSpaceOnUse">
<stop offset="0" stop-color="#fff"/>
<stop offset=".263" stop-color="#828282"/>
<stop offset=".495" stop-color="#555"/>
<stop offset=".747" stop-color="#3d3d3d"/>
<stop offset="1" stop-color="#242424"/>
</radialGradient>
<radialGradient cx="48" cy="90.172" gradientTransform="matrix(1.15731 0 0 .99591 -7.55102 .19713)" r="42" id="radialGradient3619" xlink:href="#linearGradient3737" gradientUnits="userSpaceOnUse"/>
<radialGradient cx="35.355" cy="47.746" gradientTransform="matrix(-2.5088 -0 -0 1.82617 152.27735 -39.82784)" r="3.532" id="radialGradient4346" xlink:href="#linearGradient3802" gradientUnits="userSpaceOnUse"/>
<radialGradient cx="48" cy="48" r="3" id="radialGradient4320" xlink:href="#linearGradient3802" gradientUnits="userSpaceOnUse"/>
</defs>
<path opacity=".08" fill="url(#linearGradient3725)" d="m12-95.0312c-5.5111,0-10.0312,4.5202-10.0312,10.0312v71c0,5.5111 4.5202,10.0312 10.0312,10.0312h72c5.5111,0 10.0312-4.5202 10.0312-10.0312v-71c0-5.5111-4.5202-10.0312-10.0312-10.0312h-72z" transform="scale(1 -1)"/>
<path opacity=".1" fill="url(#linearGradient3725)" d="m12-94.0312c-4.9716,0-9.0312,4.0596-9.0312,9.0312v71c0,4.9716 4.0596,9.0312 9.0312,9.0312h72c4.9716,0 9.0312-4.0596 9.0312-9.0312v-71c0-4.9716-4.0596-9.0312-9.0312-9.0312h-72z" transform="scale(1 -1)"/>
<path opacity=".2" fill="url(#linearGradient3725)" d="m12-93c-4.4091,0-8,3.5909-8,8v71c0,4.4091 3.5909,8 8,8h72c4.4091,0 8-3.5909 8-8v-71c0-4.4091-3.5909-8-8-8h-72z" transform="scale(1 -1)"/>
<path opacity=".3" fill="url(#linearGradient3725)" d="m12-92h72a7,7 0 0,1 7,7v71a7,7 0 0,1 -7,7h-72a7,7 0 0,1 -7-7v-71a7,7 0 0,1 7-7" transform="scale(1 -1)"/>
<path opacity=".45" fill="url(#linearGradient3721)" d="m12-91h72a6,6 0 0,1 6,6v72a6,6 0 0,1 -6,6h-72a6,6 0 0,1 -6-6v-72a6,6 0 0,1 6-6" transform="scale(1 -1)"/>
<path fill="url(#linearGradient3708)" d="m12,6h72a6,6 0 0,1 6,6v72a6,6 0 0,1 -6,6h-72a6,6 0 0,1 -6-6v-72a6,6 0 0,1 6-6"/>
<path opacity=".4" fill="url(#linearGradient3188)" d="m12,6c-3.324,0-6,2.676-6,6v2 68 2c0,.3347 .0413,.6507 .0938,.9688 .0487,.2956 .097,.5969 .1875,.875 .0099,.0304 .0209,.0636 .0312,.0938 .0989,.2878 .2349,.5475 .375,.8125 .1446,.2735 .3156,.5356 .5,.7812 .1844,.2456 .3738,.4735 .5938,.6875 .4399,.4281 .9429,.8145 1.5,1.0938 .2785,.1396 .5735,.2469 .875,.3438-.2562-.1002-.4867-.2363-.7188-.375-.0074-.0044-.0239,.0045-.0312,0-.0319-.0193-.0623-.0425-.0938-.0625-.1204-.0767-.231-.1635-.3438-.25-.1062-.0808-.2133-.1611-.3125-.25-.1779-.1614-.3475-.3454-.5-.5312-.1076-.1303-.2184-.2653-.3125-.4062-.0251-.0384-.0384-.0859-.0625-.125-.0648-.103-.1302-.2045-.1875-.3125-.101-.1947-.2057-.4157-.2812-.625-.008-.0218-.0236-.0405-.0312-.0625-.0318-.0919-.0358-.1868-.0625-.2812-.0303-.1066-.0704-.203-.0938-.3125-.0729-.3415-.125-.6982-.125-1.0625v-2-68-2c0-2.7818 2.2182-5 5-5h2 68 2c2.7818,0 5,2.2182 5,5v2 68 2c0,.3643-.0521,.721-.125,1.0625-.0442,.2069-.0884,.3977-.1562,.5938-.0077,.022-.0233,.0407-.0312,.0625-.0627,.1737-.1384,.3674-.2188,.5312-.0416,.0828-.079,.17-.125,.25-.0546,.0972-.1268,.1883-.1875,.2812-.0941,.141-.2049,.276-.3125,.4062-.1432,.1744-.3031,.347-.4688,.5-.0112,.0102-.02,.0212-.0312,.0312-.1384,.1256-.2851,.2344-.4375,.3438-.1026,.0731-.2043,.1534-.3125,.2188-.0074,.0045-.0238-.0044-.0312,0-.232,.1387-.4625,.2748-.7188,.375 .3015-.0968 .5965-.2041 .875-.3438 .5571-.2792 1.0601-.6657 1.5-1.0938 .22-.214 .4094-.4419 .5938-.6875 .1844-.2456 .3554-.5077 .5-.7812 .1401-.265 .2761-.5247 .375-.8125 .0104-.0308 .0213-.0627 .0312-.0938 .0905-.2781 .1388-.5794 .1875-.875 .0524-.318 .0938-.634 .0938-.9688v-2-68-2c0-3.324-2.676-6-6-6h-72z"/>
<path opacity=".2" fill="url(#radialGradient3619)" d="m12,90c-3.324,0-6-2.676-6-6v-2-68-2c0-.3347 .0413-.6507 .0938-.9688 .0487-.2956 .097-.5969 .1875-.875 .0099-.0304 .0209-.0636 .0312-.0938 .0989-.2878 .2349-.5475 .375-.8125 .1446-.2735 .3156-.5356 .5-.7812 .1844-.2456 .3738-.4735 .5938-.6875 .4399-.4281 .9429-.8145 1.5-1.0938 .2785-.1396 .5735-.2469 .875-.3438-.2562,.1002-.4867,.2363-.7188,.375-.0074,.0044-.0239-.0045-.0312,0-.0319,.0193-.0623,.0425-.0938,.0625-.1204,.0767-.231,.1635-.3438,.25-.1062,.0808-.2133,.1611-.3125,.25-.1779,.1614-.3475,.3454-.5,.5312-.1076,.1303-.2184,.2653-.3125,.4062-.0251,.0384-.0384,.0859-.0625,.125-.0648,.103-.1302,.2045-.1875,.3125-.101,.1947-.2057,.4157-.2812,.625-.008,.0218-.0236,.0405-.0312,.0625-.0318,.092-.0358,.1868-.0625,.2812-.0303,.1066-.0704,.203-.0938,.3125-.0729,.3415-.125,.6982-.125,1.0625v2 68 2c0,2.7818 2.2182,5 5,5h2 68 2c2.7818,0 5-2.2182 5-5v-2-68-2c0-.3643-.0521-.721-.125-1.0625-.0442-.2069-.0884-.3977-.1562-.5938-.0077-.022-.0233-.0407-.0312-.0625-.0627-.1737-.1384-.3674-.2188-.5312-.0416-.0828-.079-.17-.125-.25-.0546-.0972-.1268-.1883-.1875-.2812-.0941-.141-.2049-.276-.3125-.4062-.1432-.1745-.3031-.347-.4688-.5-.0112-.0102-.02-.0211-.0312-.0312-.1384-.1256-.2851-.2344-.4375-.3438-.1026-.0732-.2043-.1534-.3125-.2188-.0074-.0045-.0238,.0044-.0312,0-.232-.1387-.4625-.2748-.7188-.375 .3015,.0968 .5965,.2041 .875,.3438 .5571,.2792 1.0601,.6657 1.5,1.0938 .22,.214 .4094,.4419 .5938,.6875 .1844,.2456 .3554,.5077 .5,.7812 .1401,.265 .2761,.5247 .375,.8125 .0104,.0308 .0213,.0627 .0312,.0938 .0905,.2781 .1388,.5794 .1875,.875 .0524,.318 .0938,.634 .0938,.9688v2 68 2c0,3.324-2.676,6-6,6h-72z"/>
<g opacity=".9" fill="#f00" clip-path="url(#clipPath2973)">
<path opacity=".15" d="m48,48 24-56 16,0-40,56z"/>
<path opacity=".15" d="m48,48 55.2512,25.6769-.4822,15.9927-54.769-41.6696z"/>
<path opacity=".15" d="m48,48-59.8279,11.5159-8.9688-13.2499 68.7968,1.734z"/>
<path opacity=".15" d="m48,48-49.3112-35.7827 3.5361-15.6044 45.7751,51.3871z"/>
<path opacity=".15" d="m48,48 17.5192-62.0732 30.436,12.7143-47.9552,49.3589z"/>
<path opacity=".15" d="M 48,48 109.6356,28.998609 115.4895,61.459846 48,48 z"/>
<path opacity=".15" d="m48,48-31.2459,56.4242-26.7233-19.3356 57.9692-37.0886z"/>
<path opacity=".15" d="m48,48-62.812-14.6512 11.3036-30.9875 51.5083,45.6387z"/>
<path opacity=".15" d="m48,48 45.8096,45.4035-3.6917,9.0215-42.1179-54.425z"/>
<path opacity=".15" d="m48,48-2.9701,64.4296-9.1685,3.31l12.1385-67.7396z"/>
<path opacity=".15" d="m48,48-44.8594,46.3426-9.0645-3.585 53.9239-42.7576z"/>
<path opacity=".15" d="m48,48-62.1161,17.3662-6.0159-7.6698 68.1321-9.6964z"/>
<path opacity=".15" d="m48,48-29.1466-57.5367 6.3493-7.3962 22.7974,64.9329z"/>
<path opacity=".15" d="m48,48 59.4817-24.9385 6.921,6.8641-66.4027,18.0744z"/>
<path opacity=".15" d="m48,48 40.1867,45.7933-6.8963,14.4375-33.2904-60.2308z"/>
<path opacity=".15" d="m48,48-35.958-49.1836 8.1521-13.7675 27.8059,62.951z"/>
</g>
<path opacity=".1" fill="url(#linearGradient3613)" filter="url(#filter3794)" stroke="#fff" stroke-linecap="round" stroke-width=".5" d="m27,15h42a12,12 0 0,1 12,12v42a12,12 0 0,1 -12,12h-42a12,12 0 0,1 -12-12v-42a12,12 0 0,1 12-12" clip-path="url(#clipPath3613)"/>
<g color="#000">
<path opacity=".05" d="m47.625,16.0312c-1.3427,.2623-2.0877,1.3638-2.4375,2.3125-.3498,.9487-.5066,1.8627-.75,2.375a.9852,.9852 0 0,0 -.0625,.125l-2.0312,6.0938c-1.0258,.2619-2.0181,.6883-2.6875,.9062-.4198,.1367-.7181,.1384-.9062,.0938-.1881-.0446-.3463-.1203-.625-.5625a.9852,.9852 0 0,0 -.2812-.2812c-.5448-.3859-1.0898-1.0029-1.75-1.625-.6602-.6221-1.4752-1.2699-2.5625-1.5312a.9852,.9852 0 0,0 -.0938,0c-1.2001-.1352-2.2798,.5229-2.8125,1.4062-.4957,.8219-.5824,1.8483-.2188,2.8125h-.0312l.0625,.2188 1.0312,5.125c-.2407,.4642-.4536,.5569-.8125,.5938-.4245,.0436-1.1443-.0944-1.9688-.3125a.9852,.9852 0 0,0 -.125-.0312c-.5869-.0786-1.503-.4299-2.5312-.5312-.5141-.0507-1.0917-.0268-1.6562,.1875-.5646,.2143-1.0847,.6463-1.4375,1.25a.9852,.9852 0 0,0 -.0312,.0312c-.3308,.6178-.4207,1.311-.3125,1.9062 .1082,.5952 .3816,1.0775 .6875,1.5 .6118,.845 1.378,1.4886 1.75,1.9688a.9852,.9852 0 0,0 .1562,.1562c.6884,.5669 1.0662,1.1008 1.1875,1.5625 .104,.3958-.0526,.8838-.375,1.5-3.094,1.0688-6.2912,2.0387-9.4062,3.25a.9852,.9852 0 0,0 -.1562,.0625c-2.3139,1.39-1.3774,4.9857 1.1562,5.4062l-.0312,.0625 8.5312,2.8125c.2586,.9789 .624,1.9285 .8125,2.5625 .1185,.3986 .1419,.6621 .0938,.8438-.0481,.1817-.1355,.3553-.5625,.625a.9852,.9852 0 0,0 -.2812,.2812c-.7879,1.1156-2.6484,2.1635-3.1875,4.3438a.9852,.9852 0 0,0 0,.125c-.1351,1.2 .5229,2.2801 1.4062,2.8125 .8219,.4954 1.8485,.5814 2.8125,.2188v.0312l.2188-.0625 5.1562-1.0312c.4079,.2086 .5082,.3713 .5312,.7188 .0279,.42-.1778,1.1747-.375,2a.9852,.9852 0 0,0 0,.0938c-.0786,.5869-.4299,1.503-.5312,2.5312-.0507,.5141-.0268,1.0917 .1875,1.6562 .2143,.5646 .6463,1.0847 1.25,1.4375a.9852,.9852 0 0,0 .0312,.0312c.6158,.3294 1.3126,.4171 1.9062,.3125 .5937-.1046 1.0774-.3856 1.5-.6875 .8453-.6039 1.4853-1.3488 1.9688-1.7188a.9852,.9852 0 0,0 .1562-.1562c.5674-.7004 1.093-1.0779 1.5625-1.1875 .4052-.0946 .927,.096 1.5625,.4375 1.0586,3.0617 2.0161,6.2282 3.2188,9.3125a.9852,.9852 0 0,0 .0625,.1562c1.3902,2.3132 4.9829,1.3755 5.4062-1.1562l.0625,.0312 2.8125-8.375c1.0114-.2647 1.9935-.6905 2.6562-.9062 .4201-.1368 .7186-.1384 .9062-.0938 .1876,.0446 .3471,.1198 .625,.5625a.9852,.9852 0 0,0 .2812,.2812c.5215,.3546 1.0822,1.0047 1.7812,1.6562 .699,.6515 1.6455,1.3231 2.875,1.375a.9852,.9852 0 0,0 .0625,0c1.1681-.0509 2.0981-.8157 2.5-1.7188 .3709-.8334 .3893-1.7815 .0625-2.6562l-.0625-.2188-.9375-4.6875c.2375-.4152 .4488-.5348 .8125-.5625 .4375-.0333 1.1434,.1718 1.9688,.375a.9852,.9852 0 0,0 .0938,0c.5865,.0871 1.4992,.3966 2.5,.4688 .5004,.0361 1.0508,.003 1.5938-.2188 .543-.2218 1.0394-.6318 1.375-1.2188a.9852,.9852 0 0,0 .0312-.0312c.3309-.6178 .4202-1.3108 .3125-1.9062-.1077-.5954-.3816-1.0771-.6875-1.5-.6118-.8457-1.3755-1.4882-1.75-1.9688a.9852,.9852 0 0,0 -.0938-.0938c-.5389-.5341-.9825-1.0332-1.125-1.3438-.1425-.3105-.2036-.3927 .2188-.9375a.9852,.9852 0 0,0 .2188-.5938c-.0002-.213-.003-.2128 .0312-.25 .0342-.0372 .1759-.1074 .4062-.1875 .4333-.1506 1.1772-.2607 1.9375-.625v.0312c.0414-.0154 .0834-.0473 .125-.0625 2.2246-.8153 4.6758-1.3835 7-2.4688a.9852,.9852 0 0,0 .1562-.0938c2.1267-1.5033 1.0924-4.8646-1.3438-5.2812l.0312-.0625-8.25-2.75c-.2418-1.0855-.6737-2.0381-.9062-2.75-.1429-.4375-.1703-.7668-.125-.9688 .0453-.2019 .116-.371 .5625-.6562a.9852,.9852 0 0,0 .2812-.2812c.3492-.5172 .9868-1.0851 1.625-1.7812 .6382-.6961 1.296-1.6277 1.3438-2.8438a.9852,.9852 0 0,0 0-.0625c-.0509-1.1681-.8156-2.0977-1.7188-2.5-.8335-.3713-1.7811-.3904-2.6562-.0625-.0732,.0274-.1468,.03-.2188,.0625l-4.6562,.9375c-.4643-.2497-.5865-.4484-.625-.8125-.0455-.4306 .0924-1.1754 .3125-2a.9852,.9852 0 0,0 .0312-.0938c.0855-.5861 .4151-1.5211 .5-2.5312 .0424-.5051 .0312-1.0427-.1875-1.5938-.2187-.5511-.6568-1.0649-1.25-1.4062a.9852,.9852 0 0,0 -.0312-.0312c-.6178-.3307-1.3112-.421-1.9062-.3125-.595,.1085-1.0778,.3816-1.5,.6875-.8444,.6118-1.4889,1.3797-1.9688,1.75a.9852,.9852 0 0,0 -.1875,.1875c-.529,.6977-.973,.9576-1.4375,1.0312-.3956,.0627-.9543-.126-1.5938-.4375-1.0904-3.1077-1.9964-6.3542-3.3125-9.5a.9852,.9852 0 0,0 -.125-.2188c-.6473-.8675-1.7025-1.2746-2.75-1.1562a.9852,.9852 0 0,0 -.0625,0z"/>
<path opacity=".1" d="m47.8125,17a.9943,.9943 0 0,0 -.0625,.0312c-.0002,0-.1248,.0312-.125,.0312-.0002,0-.1248,.0312-.125,.0312-.0002,.0001-.1248,.0312-.125,.0312-.0002,.0001-.1249,.0624-.125,.0625-.0001,.0001-.1249,.0624-.125,.0625-.0001,.0001-.1249,.0624-.125,.0625-.0001,.0001-.0936,.0937-.0938,.0938-.0001,.0001-.1249,.0936-.125,.0938-.0001,.0001-.0936,.0936-.0938,.0938-.0001,.0001-.0936,.0936-.0938,.0938-.0001,.0001-.0624,.0936-.0625,.0938-.0001,.0001-.0937,.1249-.0938,.125-.0001,.0001-.0624,.1249-.0625,.125-.0001,.0001-.0624,.0936-.0625,.0938-.0001,.0001-.0624,.1248-.0625,.125-0,.0001-.02,.0927-.0312,.125-.0027,.0077 0,.0312 0,.0312l-3.0938,9.2812c-1.5133,.3575-2.9759,.883-4.3438,1.5312l-4.3438-3.8438a.9943,.9943 0 0,0 -.0312-.0312c-.0001-.0001-.1249-.0624-.125-.0625-.0001-.0001-.1248-.0937-.125-.0938-.0002-.0001-.1248-.0624-.125-.0625-.0002-.0001-.1248-.0624-.125-.0625-.0002-.0001-.1561-.0624-.1562-.0625-.0002-.0001-.1561-.0312-.1562-.0312-.0002-0-.1248-.0312-.125-.0312-.0002-0-.1561-.0312-.1562-.0312-.0002-0-.1561,0-.1562,0-.0002-0-.1561-0-.1562,0-.0002,0-.1561,.0312-.1562,.0312-.0002,0-.1248-0-.125,0-.0002,0-.1561,.0624-.1562,.0625-.0002,.0001-.1561,.0312-.1562,.0312-.0002,.0001-.1248,.0624-.125,.0625-.0002,.0001-.1248,.0624-.125,.0625-.0002,.0001-.1249,.0937-.125,.0938-.0001,.0001-.1249,.0936-.125,.0938-.0001,.0001-.1249,.0936-.125,.0938-.0001,.0001-.0936,.0936-.0938,.0938-.0001,.0001-.1249,.1249-.125,.125-.0001,.0001-.0624,.1248-.0625,.125-.0001,.0002-.0937,.1248-.0938,.125-.0001,.0002-.0624,.1248-.0625,.125-.0001,.0002-.0624,.1561-.0625,.1562-.0001,.0002-.0624,.1561-.0625,.1562-.0001,.0002-.0312,.1248-.0312,.125-0,.0002-.0312,.1561-.0312,.1562-0,.0002 0,.1561 0,.1562-0,.0002-0,.1561 0,.1562 0,.0002-0,.1248 0,.125 0,.0002 .0312,.1561 .0312,.1562a.9943,.9943 0 0,0 0,.0312l1.3125,6.4062c-.4964,.5023-.958,1.043-1.4062,1.5938l-5.2188-1.0625a.9943,.9943 0 0,0 -.0312,0c-.0002-0-.1561-.0312-.1562-.0312-.0002-0-.1248,0-.125,0-.0002-0-.1561-0-.1562,0-.0002,0-.1561-0-.1562,0-.0002,0-.1561,.0312-.1562,.0312-.0002,0-.1248,.0312-.125,.0312-.0002,.0001-.1561,.0624-.1562,.0625-.0002,.0001-.1561,.0624-.1562,.0625-.0002,.0001-.1248,.0624-.125,.0625-.0002,.0001-.1248,.0936-.125,.0938-.0002,.0001-.1249,.0624-.125,.0625-.0001,.0001-.1249,.1249-.125,.125-.0001,.0001-.0936,.0936-.0938,.0938-.0001,.0001-.0936,.1249-.0938,.125-.0001,.0001-.0937,.1249-.0938,.125-.0001,.0001-.0937,.1248-.0938,.125-.0001,.0002-.0624,.1248-.0625,.125-.0001,.0002-.0624,.1248-.0625,.125-.0001,.0002-.0312,.1561-.0312,.1562-.0001,.0002-.0625,.1561-.0625,.1562-0,.0002 0,.1248 0,.125-0,.0002-.0312,.1561-.0312,.1562-0,.0002-0,.1561 0,.1562 0,.0002-0,.1561 0,.1562 0,.0002 .0312,.1561 .0312,.1562 0,.0002 .0312,.1248 .0312,.125 0,.0002 .0312,.1561 .0312,.1562 .0001,.0002 .0624,.1561 .0625,.1562 .0001,.0002 .0624,.1248 .0625,.125 .0001,.0002 .0624,.1248 .0625,.125 .0001,.0002 .0937,.1249 .0938,.125 .0001,.0001 .0624,.1249 .0625,.125a.9943,.9943 0 0,0 .0312,.0312l3.5625,4c-.3163,.8426-.5666,1.7254-.7812,2.625l-9.4062,3.1562a.9943,.9943 0 0,0 -.0312,0c-.0002,.0001-.1561,.0624-.1562,.0625-.0002,.0001-.1248,.0624-.125,.0625-.0002,.0001-.1248,.0936-.125,.0938-.0002,.0001-.1249,.0936-.125,.0938-.0001,.0001-.1249,.0936-.125,.0938-.0001,.0001-.0936,.0936-.0938,.0938-.0001,.0001-.0936,.1249-.0938,.125-.0001,.0001-.0937,.1249-.0938,.125-.0001,.0001-.0937,.1248-.0938,.125-.0001,.0002-.0624,.1248-.0625,.125-.0001,.0002-.0624,.1248-.0625,.125-.0001,.0002-.0624,.1561-.0625,.1562-.0001,.0002-.0312,.1561-.0312,.1562-0,.0002-.0312,.1248-.0312,.125-0,.0002 0,.1561 0,.1562-0,.0002-.0312,.1561-.0312,.1562 0,.0002 .0312,.1561 .0312,.1562 0,.0002-0,.1561 0,.1562 0,.0002 .0312,.1248 .0312,.125 0,.0002 .0312,.1561 .0312,.1562 .0001,.0002 .0624,.1561 .0625,.1562 .0001,.0002 .0624,.1248 .0625,.125 .0001,.0002 .0624,.1248 .0625,.125 .0001,.0002 .0937,.1249 .0938,.125 .0001,.0001 .0936,.1249 .0938,.125 .0001,.0001 .0936,.1249 .0938,.125 .0001,.0001 .0936,.0936 .0938,.0938 .0001,.0001 .1249,.0936 .125,.0938 .0001,.0001 .1248,.0936 .125,.0938 .0002,.0001 .1248,.0937 .125,.0938 .0002,.0001 .1248,.0624 .125,.0625 .0002,.0001 .1561,.0624 .1562,.0625a.9943,.9943 0 0,0 .0312,0l9.4688,3.125c.3433,1.4415 .823,2.8339 1.4375,4.1562l-3.875,4.4062a.9943,.9943 0 0,0 -.0312,.0312c-.0001,.0001-.0624,.1249-.0625,.125-.0001,.0001-.0937,.1248-.0938,.125-.0001,.0002-.0624,.1248-.0625,.125-.0001,.0002-.0624,.1248-.0625,.125-.0001,.0002-.0624,.1561-.0625,.1562-.0001,.0002-.0312,.1561-.0312,.1562-0,.0002-.0312,.1248-.0312,.125-0,.0002-.0312,.1561-.0312,.1562-0,.0002 0,.1561 0,.1562-0,.0002-0,.1561 0,.1562 0,.0002 .0312,.1561 .0312,.1562 0,.0002-0,.1248 0,.125 0,.0002 .0624,.1561 .0625,.1562 .0001,.0002 .0312,.1561 .0312,.1562 .0001,.0002 .0624,.1248 .0625,.125 .0001,.0002 .0624,.1248 .0625,.125 .0001,.0002 .0937,.1248 .0938,.125 .0001,.0002 .0936,.1249 .0938,.125 .0001,.0001 .0936,.1249 .0938,.125 .0001,.0001 .0936,.0936 .0938,.0938 .0001,.0001 .1249,.1249 .125,.125 .0001,.0001 .1248,.0624 .125,.0625 .0002,.0001 .1248,.0937 .125,.0938 .0002,.0001 .1248,.0624 .125,.0625 .0002,.0001 .1561,.0624 .1562,.0625 .0002,.0001 .1561,.0624 .1562,.0625 .0002,.0001 .1248,.0312 .125,.0312 .0002,0 .1561,.0312 .1562,.0312 .0002,0 .1561-0 .1562,0 .0002,0 .1561,0 .1562,0 .0002-0 .1248,0 .125,0 .0002-0 .1561-.0312 .1562-.0312a.9943,.9943 0 0,0 .0312,0l6.4375-1.3125c.4754,.4649 .988,.8952 1.5,1.3125l-1.0625,5.2188a.9943,.9943 0 0,0 0,.0312c-0,.0002-.0312,.1561-.0312,.1562-0,.0002 0,.1248 0,.125-0,.0002-0,.1561 0,.1562 0,.0002-0,.1561 0,.1562 0,.0002 .0312,.1561 .0312,.1562 0,.0002 .0312,.1248 .0312,.125 .0001,.0002 .0624,.1561 .0625,.1562 .0001,.0002 .0624,.1561 .0625,.1562 .0001,.0002 .0624,.1248 .0625,.125 .0001,.0002 .0936,.1248 .0938,.125 .0001,.0002 .0624,.1249 .0625,.125 .0001,.0001 .1249,.1249 .125,.125 .0001,.0001 .0936,.0936 .0938,.0938 .0001,.0001 .1249,.0936 .125,.0938 .0001,.0001 .1249,.0936 .125,.0938 .0001,.0001 .1248,.0937 .125,.0938 .0002,.0001 .1248,.0624 .125,.0625 .0002,.0001 .1248,.0624 .125,.0625 .0002,.0001 .1561,.0312 .1562,.0312 .0002,.0001 .1561,.0625 .1562,.0625 .0002,0 .1248-0 .125,0 .0002,0 .1561,.0312 .1562,.0312 .0002,0 .1561,0 .1562,0 .0002-0 .1561,0 .1562,0 .0002-0 .1561-.0312 .1562-.0312 .0002-0 .1248-.0312 .125-.0312 .0002-0 .1561-.0312 .1562-.0312 .0002-.0001 .1561-.0624 .1562-.0625 .0002-.0001 .1248-.0624 .125-.0625 .0002-.0001 .1248-.0624 .125-.0625 .0002-.0001 .1249-.0936 .125-.0938 .0001-.0001 .1249-.0624 .125-.0625a.9943,.9943 0 0,0 .0312-.0312l4-3.5312c.8655,.3307 1.7647,.622 2.6875,.8438l3.125,9.3125a.9943,.9943 0 0,0 0,.0312c.0001,.0002 .0624,.1561 .0625,.1562 .0001,.0002 .0624,.1248 .0625,.125 .0001,.0002 .0936,.1248 .0938,.125 .0001,.0002 .0936,.1249 .0938,.125 .0001,.0001 .0936,.1249 .0938,.125 .0001,.0001 .0936,.0936 .0938,.0938 .0001,.0001 .1249,.0936 .125,.0938 .0001,.0001 .1249,.0936 .125,.0938 .0001,.0001 .1248,.0937 .125,.0938 .0002,.0001 .1248,.0624 .125,.0625 .0002,.0001 .1248,.0624 .125,.0625 .0002,.0001 .1561,.0624 .1562,.0625 .0002,.0001 .1561,.0312 .1562,.0312 .0002,0 .1248,.0312 .125,.0312 .0002,0 .1561-0 .1562,0 .0002,0 .1561,.0312 .1562,.0312 .0002,0 .1561-.0312 .1562-.0312 .0002-0 .1561,0 .1562,0 .0002-0 .1248-.0312 .125-.0312 .0002-0 .1561-.0312 .1562-.0312 .0002-.0001 .1561-.0624 .1562-.0625 .0002-.0001 .1248-.0624 .125-.0625 .0002-.0001 .1248-.0624 .125-.0625 .0002-.0001 .1249-.0936 .125-.0938 .0001-.0001 .1249-.0936 .125-.0938 .0001-.0001 .1249-.0936 .125-.0938 .0001-.0001 .0936-.0936 .0938-.0938 .0001-.0001 .0936-.1249 .0938-.125 .0001-.0001 .0936-.1248 .0938-.125 .0001-.0002 .0937-.1248 .0938-.125 .0001-.0002 .0624-.1248 .0625-.125 .0001-.0002 .0624-.1561 .0625-.1562a.9943,.9943 0 0,0 0-.0312l3.0938-9.3125c1.5132-.3614 2.9801-.882 4.3438-1.5312l4.1875,3.7188a.9943,.9943 0 0,0 .0312,.0312c.0001,.0001 .1249,.0624 .125,.0625 .0001,.0001 .1248,.0937 .125,.0938 .0002,.0001 .1248,.0624 .125,.0625 .0002,.0001 .1248,.0624 .125,.0625 .0002,.0001 .1561,.0624 .1562,.0625 .0002,.0001 .1561,.0312 .1562,.0312 .0002,0 .1248,.0312 .125,.0312 .0002,0 .1561,.0312 .1562,.0312 .0002,0 .1561-0 .1562,0 .0002,0 .1561,0 .1562,0 .0002-0 .1561-.0312 .1562-.0312 .0002-0 .1248,0 .125,0 .0002-0 .1561-.0624 .1562-.0625 .0002-.0001 .1561-.0312 .1562-.0312 .0002-.0001 .1248-.0624 .125-.0625 .0002-.0001 .1248-.0624 .125-.0625 .0002-.0001 .1249-.0936 .125-.0938 .0002-.0001 .1249-.0936 .125-.0938 .0001-.0001 .1249-.0936 .125-.0938 .0001-.0001 .0936-.0936 .0938-.0938 .0001-.0001 .1249-.1249 .125-.125 .0001-.0001 .0624-.1248 .0625-.125 .0001-.0002 .0937-.1248 .0938-.125 .0001-.0002 .0624-.1248 .0625-.125 .0001-.0002 .0624-.1561 .0625-.1562 .0001-.0002 .0624-.1561 .0625-.1562 .0001-.0002 .0312-.1248 .0312-.125 0-.0002 .0312-.1561 .0312-.1562 0-.0002-0-.1561 0-.1562 0-.0002 0-.1561 0-.1562-0-.0002 0-.1248 0-.125-0-.0002-.0312-.1561-.0312-.1562a.9943,.9943 0 0,0 0-.0312l-1.25-6.1562c.4848-.4807 .9607-.9685 1.4062-1.5l5.0312,1a.9943,.9943 0 0,0 .0312,0c.0002,0 .1561,.0312 .1562,.0312 .0002,0 .1248-0 .125,0 .0002,0 .1561,0 .1562,0 .0002-0 .1561,0 .1562,0 .0002-0 .1561-.0312 .1562-.0312 .0002-0 .1248-.0312 .125-.0312 .0002-.0001 .1561-.0624 .1562-.0625 .0002-.0001 .1561-.0624 .1562-.0625 .0002-.0001 .1248-.0624 .125-.0625 .0002-.0001 .1248-.0936 .125-.0938 .0002-.0001 .1249-.0624 .125-.0625 .0001-.0001 .1249-.1249 .125-.125 .0001-.0001 .0936-.0936 .0938-.0938 .0001-.0001 .0936-.1249 .0938-.125 .0001-.0001 .0936-.1249 .0938-.125 .0001-.0001 .0937-.1248 .0938-.125 .0001-.0002 .0624-.1248 .0625-.125 .0001-.0002 .0624-.1248 .0625-.125 .0001-.0002 .0312-.1561 .0312-.1562 .0001-.0002 .0625-.1561 .0625-.1562 0-.0002-0-.1248 0-.125 0-.0002 .0312-.1561 .0312-.1562 0-.0002 0-.1561 0-.1562-0-.0002 0-.1561 0-.1562-0-.0002-.0312-.1561-.0312-.1562-0-.0002-.0312-.1248-.0312-.125-0-.0002-.0312-.1561-.0312-.1562-.0001-.0002-.0624-.1561-.0625-.1562-.0001-.0002-.0624-.1248-.0625-.125-.0001-.0002-.0624-.1248-.0625-.125-.0001-.0002-.0936-.1249-.0938-.125-.0001-.0001-.0624-.1249-.0625-.125a.9943,.9943 0 0,0 -.0312-.0312l-3.4375-3.8438c.3563-.9079 .6715-1.8424 .9062-2.8125l9.25-3.0938a.9943,.9943 0 0,0 .0312,0c.0002-.0001 .1561-.0624 .1562-.0625 .0002-.0001 .1248-.0624 .125-.0625 .0002-.0001 .1248-.0936 .125-.0938 .0002-.0001 .1249-.0936 .125-.0938 .0001-.0001 .1249-.0936 .125-.0938 .0001-.0001 .0936-.0936 .0938-.0938 .0001-.0001 .0936-.1249 .0938-.125 .0001-.0001 .0936-.1249 .0938-.125 .0001-.0001 .0937-.1248 .0938-.125 .0001-.0002 .0624-.1248 .0625-.125 .0001-.0002 .0624-.1248 .0625-.125 .0001-.0002 .0624-.1561 .0625-.1562 .0001-.0002 .0312-.1561 .0312-.1562 0-.0002 .0312-.1248 .0312-.125 0-.0002-0-.1561 0-.1562 0-.0002 .0312-.1561 .0312-.1562 0-.0002-.0312-.1561-.0312-.1562-0-.0002 0-.1561 0-.1562-0-.0002-.0312-.1248-.0312-.125-0-.0002-.0312-.1561-.0312-.1562-.0001-.0002-.0624-.1561-.0625-.1562-.0001-.0002-.0624-.1248-.0625-.125-.0001-.0002-.0624-.1248-.0625-.125-.0001-.0002-.0936-.1249-.0938-.125-.0001-.0001-.0936-.1249-.0938-.125-.0001-.0001-.0936-.1249-.0938-.125-.0001-.0001-.0936-.0936-.0938-.0938-.0001-.0001-.1249-.0936-.125-.0938-.0001-.0001-.1248-.0936-.125-.0938-.0002-.0001-.1248-.0937-.125-.0938-.0002-.0001-.1248-.0624-.125-.0625-.0002-.0001-.1561-.0624-.1562-.0625a.9943,.9943 0 0,0 -.0312,0l-9.2188-3.0625c-.3526-1.5592-.864-3.0771-1.5312-4.5l3.6562-4.1562a.9943,.9943 0 0,0 .0312-.0312c.0001-.0001 .0624-.1249 .0625-.125 .0001-.0001 .0937-.1248 .0938-.125 .0001-.0002 .0624-.1248 .0625-.125 .0001-.0002 .0624-.1248 .0625-.125 .0001-.0002 .0624-.1561 .0625-.1562 .0001-.0002 .0312-.1561 .0312-.1562 0-.0002 .0312-.1248 .0312-.125 0-.0002 .0312-.1561 .0312-.1562 0-.0002-0-.1561 0-.1562 0-.0002 0-.1561 0-.1562-0-.0002-.0312-.1561-.0312-.1562-0-.0002 0-.1248 0-.125-0-.0002-.0624-.1561-.0625-.1562-.0001-.0002-.0312-.1561-.0312-.1562-.0001-.0002-.0624-.1248-.0625-.125-.0001-.0002-.0624-.1248-.0625-.125-.0001-.0002-.0936-.1249-.0938-.125-.0001-.0001-.0936-.1249-.0938-.125-.0001-.0001-.0936-.1249-.0938-.125-.0001-.0001-.0936-.0936-.0938-.0938-.0001-.0001-.1249-.1249-.125-.125-.0001-.0001-.1248-.0624-.125-.0625-.0002-.0001-.1248-.0937-.125-.0938-.0002-.0001-.1248-.0624-.125-.0625-.0002-.0001-.1561-.0624-.1562-.0625-.0002-.0001-.1561-.0624-.1562-.0625-.0002-.0001-.1248-.0312-.125-.0312-.0002-0-.1561-.0312-.1562-.0312-.0002-0-.1561,0-.1562,0-.0002-0-.1561-0-.1562,0-.0002,0-.1248-0-.125,0-.0002,0-.1561,.0312-.1562,.0312a.9943,.9943 0 0,0 -.0312,0l-6.125,1.25c-.5013-.503-1.0389-.979-1.5938-1.4375l1.0312-5.0938a.9943,.9943 0 0,0 0-.0312c0-.0002 .0312-.1561 .0312-.1562 0-.0002-0-.1248 0-.125 0-.0002 0-.1561 0-.1562-0-.0002 0-.1561 0-.1562-0-.0002-.0312-.1561-.0312-.1562-0-.0002-.0312-.1248-.0312-.125-.0001-.0002-.0624-.1561-.0625-.1562-.0001-.0002-.0624-.1561-.0625-.1562-.0001-.0002-.0624-.1248-.0625-.125-.0001-.0002-.0936-.1248-.0938-.125-.0001-.0002-.0624-.1249-.0625-.125-.0001-.0001-.1249-.1249-.125-.125-.0001-.0001-.0936-.0936-.0938-.0938-.0001-.0001-.1249-.0936-.125-.0938-.0001-.0001-.1249-.0937-.125-.0938-.0001-.0001-.1248-.0937-.125-.0938-.0002-.0001-.1248-.0624-.125-.0625-.0002-.0001-.1248-.0624-.125-.0625-.0002-.0001-.1561-.0312-.1562-.0312-.0002-.0001-.1561-.0625-.1562-.0625-.0002-0-.1248,0-.125,0-.0002-0-.1561-.0312-.1562-.0312-.0002-0-.1561-0-.1562,0-.0002,0-.1561-0-.1562,0-.0002,0-.1561,.0312-.1562,.0312-.0002,0-.1248,.0312-.125,.0312-.0002,0-.1561,.0312-.1562,.0312-.0002,.0001-.1561,.0624-.1562,.0625-.0002,.0001-.1248,.0624-.125,.0625-.0002,.0001-.1248,.0624-.125,.0625-.0002,.0001-.1249,.0937-.125,.0938-.0001,.0001-.1249,.0624-.125,.0625a.9943,.9943 0 0,0 -.0312,.0312l-3.9062,3.4688c-.8794-.3415-1.7734-.645-2.7188-.875l-3.125-9.3125c-.0001-.0002-.0624-.1561-.0625-.1562-.0001-.0002-.0624-.1561-.0625-.1562-.0001-.0002-.0936-.1561-.0938-.1562-.0001-.0002-.0936-.1248-.0938-.125-.0001-.0002-.1249-.1561-.125-.1562-.0001-.0002-.1248-.1249-.125-.125-.0002-.0001-.1248-.0936-.125-.0938-.0002-.0001-.1561-.0936-.1562-.0938-.0002-.0001-.1248-.0937-.125-.0938-.0002-.0001-.1561-.0624-.1562-.0625-.0002-.0001-.1873-.0624-.1875-.0625-.0002-.0001-.156-.0625-.1562-.0625-.0002-0-.1873-.0312-.1875-.0312-.0002-0-.156,0-.1562,0-.0002-0-.1873-0-.1875,0-.0002,0-.156-0-.1562,0z"/>
<path opacity=".15" d="m47.9375,18a1.0013,1.0013 0 0,0 -.7812,.6875l-3.25,9.75c-1.8968,.3868-3.7058,1.0472-5.375,1.9062l-4.75-4.2188a1.0013,1.0013 0 0,0 -1.625,.9375l1.4062,6.875c-.7663,.7371-1.4741,1.5252-2.125,2.375l-5.75-1.1562a1.0013,1.0013 0 0,0 -.9375,1.625l3.9375,4.4062c-.4711,1.1698-.8694,2.3951-1.125,3.6562l-9.875,3.3125a1.0013,1.0013 0 0,0 0,1.875l9.9062,3.2812c.3787,1.8218 .9906,3.5637 1.8125,5.1875l-4.25,4.8125a1.0013,1.0013 0 0,0 .9375,1.625l6.9062-1.4062c.7119,.7353 1.4746,1.4097 2.2812,2.0312l-1.1562,5.75a1.0013,1.0013 0 0,0 1.625,.9375l4.4062-3.875c1.1851,.4901 2.4292,.8887 3.7188,1.1562l3.2812,9.7812a1.0013,1.0013 0 0,0 1.875,0l3.25-9.75c1.8855-.3883 3.6864-1.0538 5.3438-1.9062l4.625,4.0938a1.0013,1.0013 0 0,0 1.625-.9375l-1.3438-6.6562c.7432-.7065 1.4556-1.4679 2.0938-2.2812l5.5938,1.125a1.0013,1.0013 0 0,0 .9375-1.625l-3.7812-4.25c.5219-1.2332 .939-2.5032 1.2188-3.8438l9.7188-3.25a1.0013,1.0013 0 0,0 0-1.875l-9.6562-3.2188c-.3832-1.9448-1.0245-3.8153-1.9062-5.5312l4.0312-4.5625a1.0013,1.0013 0 0,0 -.9375-1.625l-6.625,1.3438c-.7416-.7735-1.5267-1.5061-2.375-2.1562l1.1562-5.625a1.0013,1.0013 0 0,0 -1.625-.9375l-4.3125,3.8125c-1.192-.4983-2.4465-.9135-3.75-1.1875l-3.2812-9.7812a1.0013,1.0013 0 0,0 -1.0938-.6875z"/>
<path opacity=".3" d="m48.0938,19-3.4375,10.2812c-2.2616,.3905-4.3791,1.1679-6.3125,2.25l-5.2188-4.6562 1.5,7.375c-1.0414,.9517-1.9911,2.0051-2.8125,3.1562l-6.3125-1.2812 4.2812,4.8125c-.6513,1.4757-1.1271,3.0503-1.4062,4.6875l-10.375,3.4688 10.4375,3.4688c.3939,2.1829 1.1155,4.2501 2.1562,6.125l-4.6875,5.2812 7.4062-1.5c.9202,1.009 1.9548,1.9151 3.0625,2.7188l-1.2812,6.3125 4.8125-4.25c1.5004,.6749 3.0804,1.1805 4.75,1.4688l3.4375,10.2812 3.4375-10.2812c2.2457-.3899 4.3592-1.1777 6.2812-2.25l5.0938,4.5312-1.4375-7.1562c1.0215-.9222 1.9677-1.9491 2.7812-3.0625l6.1562,1.25-4.1562-4.6562c.7079-1.5306 1.2284-3.1647 1.5312-4.875l10.2188-3.4062-10.1875-3.4062c-.3849-2.2991-1.1518-4.4753-2.25-6.4375l4.4688-5.0625-7.0938,1.4375c-.9564-1.0615-2.0255-2.0069-3.1875-2.8438l1.2812-6.1875-4.7188,4.1875c-1.5059-.6812-3.1042-1.2088-4.7812-1.5l-3.4375-10.2812z"/>
</g>
<g transform="matrix(.93557 .54015 -.54015 .93557 29.0819 -22.78917)">
<path opacity=".3" color="#000" d="m51.846,33.0957a3.9189,1.1036 0 1,1 -7.8377,0 3.9189,1.1036 0 1,1 7.8377,0z"/>
<path fill="url(#linearGradient4294)" d="m45,33 3-9 3,9c0,0-3.1343,1.7015-6,0z"/>
<g fill="#fff">
<path opacity=".15" d="m48,24-2.3172,9.3625c.5004,.1764 1.1541,.3671 2.0086,.4016l.3086-9.7641z"/>
<path opacity=".3" d="m48,24-1.75,9.5312c.2965,.0858 .5869,.153 .875,.1875l.875-9.7188z"/>
</g>
</g>
<g transform="matrix(-.54015 .93557 .93557 .54015 28.97434 -22.76035)">
<path opacity=".3" color="#000" d="m51.846,33.0957a3.9189,1.1036 0 1,1 -7.8377,0 3.9189,1.1036 0 1,1 7.8377,0z"/>
<path fill="url(#linearGradient4294)" d="m45,33 3-9 3,9c0,0-3.1343,1.7015-6,0z"/>
<g fill="#fff">
<path opacity=".15" d="m48,24-2.3172,9.3625c.5004,.1764 1.1541,.3671 2.0086,.4016l.3086-9.7641z"/>
<path opacity=".3" d="m48,24-1.75,9.5312c.2965,.0858 .5869,.153 .875,.1875l.875-9.7188z"/>
</g>
</g>
<g transform="matrix(.93557 .54015 -.54015 .93557 29.0819 -22.78917)">
<path opacity=".3" color="#000" d="m51.846,33.0957a3.9189,1.1036 0 1,1 -7.8377,0 3.9189,1.1036 0 1,1 7.8377,0z" transform="matrix(1 0 0 -1 -0 96)"/>
<path fill="url(#linearGradient4298)" d="m45,63 3,9 3-9c0,0-3.1343-1.7015-6,0z"/>
<g fill="#fff">
<path opacity=".15" d="m48,72-2.3172-9.3625c.5004-.1764 1.1541-.3671 2.0086-.4016l.3086,9.7641z"/>
<path opacity=".3" d="m48,72-1.75-9.5312c.2965-.0858 .5869-.153 .875-.1875l.875,9.7188z"/>
</g>
<path opacity=".3" d="m45,63 3,9 3-9c0,0-3.1343-1.7015-6,0z"/>
</g>
<g transform="matrix(.93557 .54015 -.54015 .93557 29.0819 -22.78917)">
<path opacity=".3" color="#000" d="m51.846,33.0957a3.9189,1.1036 0 1,1 -7.8377,0 3.9189,1.1036 0 1,1 7.8377,0z" transform="matrix(0 1 -1 0 95.92711 .07289)"/>
<path fill="url(#linearGradient4300)" d="m62.9271,45.0729 9,3-9,3c0,0-1.7015-3.1343 0-6z"/>
<g fill="#fff">
<path opacity=".15" d="m71.9271,48.0729-9.3625-2.3172c-.1764,.5004-.3671,1.1541-.4016,2.0086l9.7641,.3086z"/>
<path opacity=".3" d="m71.9271,48.0729-9.5312-1.75c-.0858,.2965-.153,.5869-.1875,.875l9.7188,.875z"/>
</g>
<path opacity=".5" d="m62.9271,45.0729 9,3-9,3c0,0-1.7015-3.1343 0-6z"/>
</g>
<path fill="url(#radialGradient4302)" color="#000" d="m48,40a8,8 0 1,1 -16,0 8,8 0 1,1 16,0z" transform="matrix(2.5 0 0 2.5 -51.90889 -52)"/>
<g transform="matrix(1.25 0 0 1.25 -11.90889 -12)">
<path opacity=".3" color="#000" d="m51.846,33.0957a3.9189,1.1036 0 1,1 -7.8377,0 3.9189,1.1036 0 1,1 7.8377,0z"/>
<path fill="url(#linearGradient4294)" d="m45,33 3-9 3,9c0,0-3.1343,1.7015-6,0z"/>
<g fill="#fff">
<path opacity=".15" d="m48,24-2.3172,9.3625c.5004,.1764 1.1541,.3671 2.0086,.4016l.3086-9.7641z"/>
<path opacity=".3" d="m48,24-1.75,9.5312c.2965,.0858 .5869,.153 .875,.1875l.875-9.7188z"/>
</g>
</g>
<g transform="matrix(0 1.25 1.25 0 -12 -11.90889)">
<path opacity=".3" color="#000" d="m51.846,33.0957a3.9189,1.1036 0 1,1 -7.8377,0 3.9189,1.1036 0 1,1 7.8377,0z"/>
<path fill="url(#linearGradient4294)" d="m45,33 3-9 3,9c0,0-3.1343,1.7015-6,0z"/>
<g fill="#fff">
<path opacity=".15" d="m48,24-2.3172,9.3625c.5004,.1764 1.1541,.3671 2.0086,.4016l.3086-9.7641z"/>
<path opacity=".3" d="m48,24-1.75,9.5312c.2965,.0858 .5869,.153 .875,.1875l.875-9.7188z"/>
</g>
</g>
<g transform="matrix(1.25 0 0 1.25 -11.90889 -12)">
<path opacity=".3" color="#000" d="m51.846,33.0957a3.9189,1.1036 0 1,1 -7.8377,0 3.9189,1.1036 0 1,1 7.8377,0z" transform="matrix(1 0 0 -1 -0 96)"/>
<path fill="url(#linearGradient4308)" d="m45,63 3,9 3-9c0,0-3.1343-1.7015-6,0z"/>
<g fill="#fff">
<path opacity=".15" d="m48,72-2.3172-9.3625c.5004-.1764 1.1541-.3671 2.0086-.4016l.3086,9.7641z"/>
<path opacity=".3" d="m48,72-1.75-9.5312c.2965-.0858 .5869-.153 .875-.1875l.875,9.7188z"/>
</g>
<path opacity=".3" d="m45,63 3,9 3-9c0,0-3.1343-1.7015-6,0z"/>
</g>
<g transform="matrix(1.25 0 0 1.25 -11.90889 -12)">
<path opacity=".3" color="#000" d="m51.846,33.0957a3.9189,1.1036 0 1,1 -7.8377,0 3.9189,1.1036 0 1,1 7.8377,0z" transform="matrix(0 1 -1 0 95.92711 .07289)"/>
<path fill="url(#linearGradient4300)" d="m62.9271,45.0729 9,3-9,3c0,0-1.7015-3.1343 0-6z"/>
<g fill="#fff">
<path opacity=".15" d="m71.9271,48.0729-9.3625-2.3172c-.1764,.5004-.3671,1.1541-.4016,2.0086l9.7641,.3086z"/>
<path opacity=".3" d="m71.9271,48.0729-9.5312-1.75c-.0858,.2965-.153,.5869-.1875,.875l9.7188,.875z"/>
</g>
<path opacity=".5" d="m62.9271,45.0729 9,3-9,3c0,0-1.7015-3.1343 0-6z"/>
</g>
<g transform="matrix(1.07552 -.62095 .62095 1.07552 -33.41839 29.88305)">
<path opacity=".3" color="#000" d="m51.846,33.0957a3.9189,1.1036 0 1,1 -7.8377,0 3.9189,1.1036 0 1,1 7.8377,0z"/>
<path fill="url(#linearGradient4294)" d="m45,33 3-9 3,9c0,0-3.1343,1.7015-6,0z"/>
<g fill="#fff">
<path opacity=".15" d="m48,24-2.3172,9.3625c.5004,.1764 1.1541,.3671 2.0086,.4016l.3086-9.7641z"/>
<path opacity=".3" d="m48,24-1.75,9.5312c.2965,.0858 .5869,.153 .875,.1875l.875-9.7188z"/>
</g>
</g>
<g transform="matrix(.62095 1.07552 1.07552 -.62095 -29.70153 26.2567)">
<path opacity=".3" color="#000" d="m51.846,33.0957a3.9189,1.1036 0 1,1 -7.8377,0 3.9189,1.1036 0 1,1 7.8377,0z"/>
<path fill="url(#linearGradient4294)" d="m45,33 3-9 3,9c0,0-3.1343,1.7015-6,0z"/>
<g fill="#fff">
<path opacity=".15" d="m48,24-2.3172,9.3625c.5004,.1764 1.1541,.3671 2.0086,.4016l.3086-9.7641z"/>
<path opacity=".3" d="m48,24-1.75,9.5312c.2965,.0858 .5869,.153 .875,.1875l.875-9.7188z"/>
</g>
</g>
<g transform="matrix(1.07552 -.62095 .62095 1.07552 -33.41839 22.38305)">
<path opacity=".3" color="#000" d="m51.846,33.0957a3.9189,1.1036 0 1,1 -7.8377,0 3.9189,1.1036 0 1,1 7.8377,0z" transform="matrix(1 0 0 -1 -0 96)"/>
<path fill="url(#linearGradient4298)" d="m45,63 3,9 3-9c0,0-3.1343-1.7015-6,0z"/>
<g fill="#fff">
<path opacity=".15" d="m48,72-2.3172-9.3625c.5004-.1764 1.1541-.3671 2.0086-.4016l.3086,9.7641z"/>
<path opacity=".3" d="m48,72-1.75-9.5312c.2965-.0858 .5869-.153 .875-.1875l.875,9.7188z"/>
</g>
<path opacity=".5" d="m45,63 3,9 3-9c0,0-3.1343-1.7015-6,0z"/>
</g>
<g transform="matrix(1.07552 -.62095 .62095 1.07552 -37.16839 26.13305)">
<path opacity=".3" color="#000" d="m51.846,33.0957a3.9189,1.1036 0 1,1 -7.8377,0 3.9189,1.1036 0 1,1 7.8377,0z" transform="matrix(0 1 -1 0 95.92711 .07289)"/>
<path fill="url(#linearGradient4300)" d="m62.9271,45.0729 9,3-9,3c0,0-1.7015-3.1343 0-6z"/>
<g fill="#fff">
<path opacity=".15" d="m71.9271,48.0729-9.3625-2.3172c-.1764,.5004-.3671,1.1541-.4016,2.0086l9.7641,.3086z"/>
<path opacity=".3" d="m71.9271,48.0729-9.5312-1.75c-.0858,.2965-.153,.5869-.1875,.875l9.7188,.875z"/>
</g>
<path opacity=".3" d="m62.9271,45.0729 9,3-9,3c0,0-1.7015-3.1343 0-6z"/>
</g>
<g color="#000">
<path opacity=".5" d="m51,48a3,3 0 1,1 -6,0 3,3 0 1,1 6,0z" transform="matrix(1.49775 0 0 1.49775 -23.80089 -23.892)"/>
<path fill="url(#radialGradient4320)" d="m51,48a3,3 0 1,1 -6,0 3,3 0 1,1 6,0z" transform="matrix(1.25 0 0 1.25 -11.90889 -12)"/>
</g>
<g transform="matrix(1.25 0 0 1.25 -11.90889 -12)">
<path opacity=".5" color="#000" d="m42.5533,47.9528a3.3662,3.652 0 1,1 -6.7323,0 3.3662,3.652 0 1,1 6.7323,0z"/>
<path fill="url(#radialGradient4322)" d="m34.9363,48.0729c0,0 2.2529-3.0729 4.0637-3.0729 4,0 4,6 0,6-1.6216-.045-4.0637-2.9271-4.0637-2.9271z"/>
<g fill="#fff">
<path opacity=".15" d="m40.3438,45.2812-5.3438,2.7188 6.9688-.1875c-.0586-1.0466-.5893-2.0583-1.625-2.5312z"/>
<path opacity=".3" d="m40.875,45.625-5.8125,2.4375 6.6875-1.25c-.182-.4588-.474-.8734-.875-1.1875z"/>
</g>
</g>
<g transform="matrix(0 1.25 1.25 0 -11.84994 -12.05895)">
<path opacity=".5" color="#000" d="m42.5533,47.9528a3.3662,3.652 0 1,1 -6.7323,0 3.3662,3.652 0 1,1 6.7323,0z"/>
<path fill="url(#radialGradient4322)" d="m34.9363,48.0729c0,0 2.2529-3.0729 4.0637-3.0729 4,0 4,6 0,6-1.6216-.045-4.0637-2.9271-4.0637-2.9271z"/>
<g fill="#fff">
<path opacity=".15" d="m40.3438,45.2812-5.3438,2.7188 6.9688-.1875c-.0586-1.0466-.5893-2.0583-1.625-2.5312z"/>
<path opacity=".3" d="m40.875,45.625-5.8125,2.4375 6.6875-1.25c-.182-.4588-.474-.8734-.875-1.1875z"/>
</g>
</g>
<path opacity=".5" color="#000" d="m42.5533,47.9528a3.3662,3.652 0 1,1 -6.7323,0 3.3662,3.652 0 1,1 6.7323,0z" transform="matrix(-1.25 0 0 1.25 108.09111 -12)"/>
<path fill="url(#radialGradient4346)" d="m64.4207,48.0911c0,0-2.8162-3.8411-5.0796-3.8411-5,0-5,7.5 0,7.5 2.027-.0563 5.0796-3.6589 5.0796-3.6589z"/>
<g fill="#fff">
<path opacity=".15" d="m57.6614,44.6016 6.6797,3.3984-8.7109-.2344c.0733-1.3082 .7367-2.5729 2.0312-3.1641z"/>
<path opacity=".3" d="m56.9974,45.0312 7.2656,3.0469-8.3594-1.5625c.2275-.5735 .5926-1.0917 1.0938-1.4844z"/>
</g>
<path opacity=".4" d="m64.4207,48.0911c0,0-2.8162-3.8411-5.0796-3.8411-5,0-5,7.5 0,7.5 2.027-.0563 5.0796-3.6589 5.0796-3.6589z"/>
<path opacity=".5" color="#000" d="m42.5533,47.9528a3.3662,3.652 0 1,1 -6.7323,0 3.3662,3.652 0 1,1 6.7323,0z" transform="matrix(0 -1.25 1.25 0 -11.84994 107.94105)"/>
<path fill="url(#radialGradient4339)" d="m48.2412,64.2707c0,0-3.8411-2.8162-3.8411-5.0796 0-5 7.5-5 7.5,0-.0563,2.027-3.6589,5.0796-3.6589,5.0796z"/>
<g fill="#fff">
<path opacity=".15" d="m44.7516,57.5114 3.3984,6.6797-.2344-8.7109c-1.3082,.0733-2.5729,.7367-3.1641,2.0312z"/>
<path opacity=".3" d="m45.1813,56.8473 3.0469,7.2656-1.5625-8.3594c-.5735,.2275-1.0917,.5926-1.4844,1.0938z"/>
</g>
<path opacity=".2" d="m48.2412,64.2707c0,0-3.8411-2.8162-3.8411-5.0796 0-5 7.5-5 7.5,0-.0563,2.027-3.6589,5.0796-3.6589,5.0796z"/>
<g fill="#fff">
<path opacity=".3" d="m46.2942,44.7188c-.6106,.3354-1.1018,.8398-1.4453,1.4453l3.2031,1.7578-1.7578-3.2031z"/>
<path opacity=".15" d="m47.1536,44.4062c-1.2588,.3328-2.2443,1.297-2.6172,2.5391l3.6719,.9375-1.0547-3.4766z"/>
</g>
<path opacity=".5" fill="url(#linearGradient4330)" color="#000" d="m51,48a3,3 0 1,1 -6,0 3,3 0 1,1 6,0z" transform="matrix(.88388 .88388 -.88388 .88388 48.09111 -36.85281)"/>
</svg>
