<svg xmlns="http://www.w3.org/2000/svg" viewBox="0 0 128 128" xmlns:xlink="http://www.w3.org/1999/xlink">
<defs>
<linearGradient gradientTransform="matrix(.84803 0 0 .82455 21.74263 12.94871)" xlink:href="#linearGradient4081-61" id="linearGradient4490" y1="114.497" x1="57.884" y2="20.664" gradientUnits="userSpaceOnUse" x2="43.884"/>
<linearGradient gradientTransform="matrix(-1 0 0 1 676.1953 0)" xlink:href="#linearGradient4081-61" id="linearGradient4498" y1="167.938" x1="589.572" y2="14.239" gradientUnits="userSpaceOnUse" x2="591.043"/>
<linearGradient id="linearGradient4081-61">
<stop offset="0" stop-color="#aaa"/>
<stop offset="1" stop-color="#f0f0f0"/>
</linearGradient>
<linearGradient gradientTransform="matrix(.77646 0 0 .68637 -5.47478 21.39875)" xlink:href="#linearGradient4081-61" id="linearGradient4494" y1="127.139" x1="109.888" y2="3.37" gradientUnits="userSpaceOnUse" x2="108.352"/>
<linearGradient gradientTransform="matrix(1.00956 0 0 1.00567 17.09537 17.59809)" xlink:href="#linearGradient9647" id="linearGradient3550" y1="102.102" x1="48.246" y2="-21.966" gradientUnits="userSpaceOnUse" x2="17"/>
<linearGradient id="linearGradient9647">
<stop offset="0" stop-color="#151414"/>
<stop offset="1" stop-color="#5c5a5a"/>
</linearGradient>
<linearGradient gradientTransform="matrix(.84803 0 0 .82455 21.74263 12.94871)" xlink:href="#linearGradient4081-61" id="linearGradient4486" y1="147.076" x1="50.884" y2="27.436" gradientUnits="userSpaceOnUse" x2="51.489"/>
<radialGradient cx="128.619" cy="-5.046" gradientTransform="matrix(.0004 2.20813 -2.76706 .00046 17.16272 -249.92558)" id="radialGradient3548" r="45" gradientUnits="userSpaceOnUse">
<stop offset="0" stop-color="#4a4c37"/>
<stop offset=".313" stop-color="#2a2c1d"/>
<stop offset=".66" stop-color="#090908"/>
<stop offset="1" stop-color="#1d240d"/>
</radialGradient>
<radialGradient cx="119.332" cy="123.77" gradientTransform="matrix(1.50216 -1.35746 1.42937 1.58174 -219.94387 108.73215)" id="radialGradient3522" r="42.607" gradientUnits="userSpaceOnUse">
<stop offset="0" stop-color="#0d0e09"/>
<stop offset="1" stop-color="#abaeab" stop-opacity="0"/>
</radialGradient>
</defs>
<g transform="matrix(1.33174 0 0 1.33683 -23.73497 -23.82351)">
<path opacity=".763" fill="#090909" d="m30.0314-108.296h72.6876a6.0573,6.034 0 0,1 6.058,6.034v72.4083a6.0573,6.034 0 0,1 -6.058,6.0341h-72.6876a6.0573,6.034 0 0,1 -6.0574-6.0341v-72.4083a6.0573,6.034 0 0,1 6.0574-6.034" transform="scale(1 -1)"/>
<path fill="url(#radialGradient3548)" stroke="url(#linearGradient3550)" stroke-width="6.046" d="m29.6207,23.6321h72.6883a6.0573,6.034 0 0,1 6.057,6.0341v72.4088a6.0573,6.034 0 0,1 -6.057,6.034h-72.6883a6.0573,6.034 0 0,1 -6.0573-6.034v-72.4088a6.0573,6.034 0 0,1 6.0573-6.0341"/>
</g>
<g transform="translate(.00038 -.00038)">
<path opacity=".7" fill="url(#radialGradient3522)" d="m15.5503,11.7017h96.9117a3.9667,4.918 0 0,1 3.967,4.918v95.0843a3.9667,4.918 0 0,1 -3.967,4.918h-96.9117a3.9667,4.918 0 0,1 -3.9667-4.918v-95.0843a3.9667,4.918 0 0,1 3.9667-4.918"/>
<path opacity=".2" d="m75.8297,50.9643c-.2912,.1057-.4814,.3569-.4814,.6349 0,0 0,6.3963 0,7.5501-1.49,0-27.9525,0-27.9525,0-.4294,0-.7765,.3075-.7765,.6864v11.5997c0,.3796 .3471,.6864 .7765,.6864 0,0 26.4625,0 27.9525,0 0,1.1538 0,7.5501 0,7.5501 0,.2732 .184,.5216 .469,.6301 .285,.1084 .6142,.0576 .8401-.1297l16.2404-13.5222c.1514-.1277 .2407-.3027 .2438-.488 .004-.1846-.0769-.3624-.2236-.4942l-16.2404-14.5504c-.2213-.1984-.5559-.2588-.8479-.1531z"/>
<path opacity=".2" d="m75.5355,50.3287c-.5855,.2121-.9636,.7111-.9636,1.2705 0,0 0,5.7292 0,6.8637-1.476,0-27.176,0-27.176,0-.8564,0-1.5529,.6157-1.5529,1.3727v11.5997c0,.7578 .6965,1.3728 1.5529,1.3728 0,0 25.7,0 27.176,0 0,1.1339 0,6.8637 0,6.8637 0,.5484 .368,1.0433 .9372,1.2602 .5676,.2169 1.2268,.1153 1.6787-.2594 .002-.0005 16.242-13.5236 16.242-13.5236 .3036-.2533 .4806-.6081 .4884-.9747 .008-.3672-.1553-.7282-.4472-.9891l-16.2404-14.5497c-.4449-.3981-1.1096-.5182-1.695-.3068z"/>
<path fill="url(#linearGradient4494)" d="m75.8297,50.2779c-.2912,.1057-.4814,.3569-.4814,.6349 0,0 0,6.3963 0,7.5501-1.49,0-27.9525,0-27.9525,0-.4294,0-.7765,.3075-.7765,.6864v11.5997c0,.3796 .3471,.6864 .7765,.6864 0,0 26.4625,0 27.9525,0 0,1.1538 0,7.5501 0,7.5501 0,.2732 .184,.5216 .469,.6301 .285,.1084 .6142,.0576 .8401-.1297l16.2404-13.5229c.1514-.127 .2407-.302 .2438-.4873 .004-.1846-.0769-.3631-.2236-.4949l-16.2404-14.5504c-.2213-.1977-.5559-.2581-.8479-.1524z"/>
<path fill="url(#linearGradient4498)" d="m68.092,55 37,0 0-12 20.916,21.199-20.916,19.701 0-12-37,0z" transform="matrix(.77646 0 0 .68637 -5.46742 21.31252)"/>
<path fill="url(#linearGradient4490)" d="m22.5907,64.8952c0,22.7328 19.0214,41.2274 42.4017,41.2274 16.6944,0 31.8869-9.6093 38.7051-24.4825 .1179-.2556 .0933-.55-.0627-.785-.1569-.2333-.424-.3752-.7115-.3752h-15.6547c-.2654,0-.5148,.1204-.675,.3257-5.1255,6.5584-13.2013,10.475-21.6011,10.475-14.9635,0-27.1371-11.8364-27.1371-26.3855 0-14.5491 12.1735-26.3855 27.1371-26.3855 8.7644,0 17.0429,4.1854 22.1439,11.1957 .1594,.2185 .4172,.348 .6928,.348h15.4215c.2841,0 .5495-.1385 .7073-.3694 .1569-.23 .1849-.5219 .0738-.7767-6.5714-15.0966-22.26-25.2394-39.0392-25.2394-23.3803,0-42.4016,18.4946-42.4016,41.2274z"/>
<path opacity=".2" d="m22.5907,65.7197c0,22.7328 19.0214,41.2274 42.4017,41.2274 16.6944,0 31.8869-9.6093 38.7051-24.4825 .1179-.2556 .0933-.55-.0627-.785-.1569-.2333-.424-.3752-.7115-.3752h-15.6547c-.2654,0-.5148,.1204-.675,.3257-5.1255,6.5584-13.2013,10.475-21.6011,10.475-14.9635,0-27.1371-11.8364-27.1371-26.3855 0-14.5491 12.1735-26.3855 27.1371-26.3855 8.7644,0 17.0429,4.1854 22.1439,11.1957 .1594,.2185 .4172,.348 .6928,.348h15.4215c.2841,0 .5495-.1385 .7073-.3694 .1569-.23 .1849-.5219 .0738-.7767-6.5714-15.0966-22.26-25.2394-39.0392-25.2394-23.3803,0-42.4016,18.4946-42.4016,41.2274z"/>
<path fill="url(#linearGradient4486)" d="m23.4387,64.8952c0,22.2784 18.6406,40.4028 41.5536,40.4028 16.4985,0 31.2331-9.3858 37.9308-23.9943-2.1922,0-14.9568,0-15.6547,0-5.2841,6.7629-13.566,10.8016-22.2761,10.8016-15.4308,0-27.9851-12.2066-27.9851-27.2101 0-15.0035 12.5543-27.2101 27.9851-27.2101 9.0875,0 17.578,4.3173 22.8367,11.5437 .7259,0 13.2717,0 15.4215,0-6.4586-14.8369-21.6579-24.7364-38.2582-24.7364-22.913,0-41.5536,18.1244-41.5536,40.4028z"/>
</g>
</svg>
