<svg xmlns="http://www.w3.org/2000/svg" viewBox="0 0 96 96" xmlns:xlink="http://www.w3.org/1999/xlink">
<defs>
<clipPath id="clipPath4279">
<path d="m183.878,405.657 122.998,0 0-63.499-122.998,0 0,63.499z"/>
</clipPath>
<clipPath id="clipPath3613-2">
<path d="m15.7295,436.901 90.2455,0 0-265.368-90.2455,0 0,265.368z"/>
</clipPath>
<clipPath id="clipPath4275">
<path d="m183.878,378.374 122.998,0 0-36.216-122.998,0 0,36.216z"/>
</clipPath>
<clipPath id="clipPath3597">
<path d="m30.2681,421.533 102.5029,0 0-332.1658-102.5029,0 0,332.1658z"/>
</clipPath>
<clipPath id="clipPath3617">
<path d="m11.8755,436.902 94.1005,0 0-265.369-94.1005,0 0,265.369z"/>
</clipPath>
<clipPath id="clipPath4259">
<path d="m299.771,343.158 25.346,0 0-86-25.346,0 0,86z"/>
</clipPath>
<clipPath id="clipPath3681">
<path d="m33.937,174.185 232.557,0 0-143.1938-232.557,0 0,143.1938z"/>
</clipPath>
<clipPath id="clipPath3661">
<path d="m15.7295,436.901 90.2455,0 0-265.368-90.2455,0 0,265.368z"/>
</clipPath>
<clipPath id="clipPath3677">
<path d="m33.937,174.185 232.557,0 0-140.5141-232.557,0 0,140.5141z"/>
</clipPath>
<clipPath id="clipPath3553">
<path d="m27.084,421.533 107.625,0 0-334.2976-107.625,0 0,334.2976z"/>
</clipPath>
<clipPath id="clipPath3549">
<path d="m30.2681,421.533 102.5029,0 0-332.1658-102.5029,0 0,332.1658z"/>
</clipPath>
<clipPath id="clipPath3437">
<path d="m130.994,201.783 130.687,0 0-162.9197-130.687,0 0,162.9197z"/>
</clipPath>
<clipPath id="clipPath3405">
<path d="m105.362,442.441 29.4,0 0-85.329-29.4,0 0,85.329z"/>
</clipPath>
<clipPath id="clipPath3421">
<path d="m149.165,329.522 72.476,0 0-127.739-72.476,0 0,127.739z"/>
</clipPath>
<clipPath id="clipPath3453">
<path d="m197.178,61.6895 58.71,0 0-19.9483-58.71,0 0,19.9483z"/>
</clipPath>
<clipPath id="clipPath3469">
<path d="m132.725,114.152 98.651,0 0-73.3317-98.651,0 0,73.3317z"/>
</clipPath>
<clipPath id="clipPath3533">
<path d="m78.7988,411.741 44.8122,0 0-50.749-44.8122,0 0,50.749z"/>
</clipPath>
<clipPath id="clipPath3501">
<path d="m103.229,442.453 31.533,0 0-85.341-31.533,0 0,85.341z"/>
</clipPath>
<clipPath id="clipPath3517">
<path d="m134.084,343.039 87.166,0 0-152.101-87.166,0 0,152.101z"/>
</clipPath>
<clipPath id="clipPath4243">
<path d="m298.146,343.158 32.091,0 0-88.875-32.091,0 0,88.875z"/>
</clipPath>
<clipPath id="clipPath3725">
<path d="m33.937,174.185 232.557,0 0-140.5141-232.557,0 0,140.5141z"/>
</clipPath>
<clipPath id="clipPath4163">
<path d="m284.348,343.158 54.967,0 0-117.722-54.967,0 0,117.722z"/>
</clipPath>
<clipPath id="clipPath3967">
<path d="m161.77,381.625 187.25,0 0-173.124-187.25,0 0,173.124z"/>
</clipPath>
<clipPath id="clipPath4167">
<path d="m284.348,343.158 103.695,0 0-117.722-103.695,0 0,117.722z"/>
</clipPath>
<clipPath id="clipPath4015">
<path d="m163.456,379.817 183.02,0 0-169.151-183.02,0 0,169.151z"/>
</clipPath>
<clipPath id="clipPath4147">
<path d="m175.361,320.471 12.723,0 0-49.063-12.723,0 0,49.063z"/>
</clipPath>
<clipPath id="clipPath4131">
<path d="m182.737,275.494 89.972,0 0-43.239-89.972,0 0,43.239z"/>
</clipPath>
<clipPath id="clipPath4051">
<path d="m174.219,320.471 98.49,0 0-98.87-98.49,0 0,98.87z"/>
</clipPath>
<clipPath id="clipPath4055">
<path d="m164.334,320.471 108.375,0 0-103.563-108.375,0 0,103.563z"/>
</clipPath>
<clipPath id="clipPath3963">
<path d="m163.456,379.817 183.02,0 0-169.151-183.02,0 0,169.151z"/>
</clipPath>
<clipPath id="clipPath3947">
<path d="m179.709,379.678 162.75,0 0-66.77-162.75,0 0,66.77z"/>
</clipPath>
<clipPath id="clipPath4211">
<path d="m284.348,343.158 54.967,0 0-117.722-54.967,0 0,117.722z"/>
</clipPath>
<clipPath id="clipPath3769">
<path d="m189.21,356.075 33,0 0-76.898-33,0 0,76.898z"/>
</clipPath>
<clipPath id="clipPath3773">
<path d="m189.129,356.075 33.081,0 0-77.999-33.081,0 0,77.999z"/>
</clipPath>
<clipPath id="clipPath3817">
<path d="m189.21,356.075 33,0 0-76.898-33,0 0,76.898z"/>
</clipPath>
<clipPath id="clipPath3901">
<path d="m179.709,385.408 162.75,0 0-72.5-162.75,0 0,72.5z"/>
</clipPath>
<clipPath id="clipPath3833">
<path d="m214.236,363.64 45.16,0 0-22.858-45.16,0 0,22.858z"/>
</clipPath>
<clipPath id="clipPath3897">
<path d="m179.709,379.678 162.75,0 0-66.77-162.75,0 0,66.77z"/>
</clipPath>
<clipPath id="clipPath3837">
<path d="m212.584,365.283 46.812,0 0-25.562-46.812,0 0,25.562z"/>
</clipPath>
<clipPath id="clipPath3881">
<path d="m214.236,363.64 45.16,0 0-22.858-45.16,0 0,22.858z"/>
</clipPath>
<clipPath id="clipPath3485">
<path d="m239.188,40.3613 27.306,0 0-4.248-27.306,0 0,4.248z"/>
</clipPath>
<clipPath id="clipPath3357">
<path d="m160.318,399.978 304.709,0 0-77.01-304.709,0 0,77.01z"/>
</clipPath>
<clipPath id="clipPath3051">
<path d="m456.298,370.215 22.026,0 0-62.807-22.026,0 0,62.807z"/>
</clipPath>
<clipPath id="clipPath4339">
<path d="m211.71,369.561 67.416,0 0-12.07-67.416,0 0,12.07z"/>
</clipPath>
<clipPath id="clipPath3067">
<path d="m353.305,328.46 115.917,0 0-44.905-115.917,0 0,44.905z"/>
</clipPath>
<clipPath id="clipPath3099">
<path d="m208.204,233.913 279.458,0 0-195.537-279.458,0 0,195.537z"/>
</clipPath>
<clipPath id="clipPath3103">
<path d="m208.204,233.913 279.458,0 0-196.8173-279.458,0 0,196.8173z"/>
</clipPath>
<clipPath id="clipPath3083">
<path d="m159.348,331.413 218.036,0 0-291.3222-218.036,0 0,291.3222z"/>
</clipPath>
<clipPath id="clipPath3019">
<path d="m361.646,268.408 125.211,0 0-202.9119-125.211,0 0,202.9119z"/>
</clipPath>
<clipPath id="clipPath4099">
<path d="m174.219,320.471 98.49,0 0-98.87-98.49,0 0,98.87z"/>
</clipPath>
<clipPath id="clipPath3613">
<path fill="#fff" d="m12,6h72a6,6 0 0,1 6,6v72a6,6 0 0,1 -6,6h-72a6,6 0 0,1 -6-6v-72a6,6 0 0,1 6-6"/>
</clipPath>
<clipPath id="clipPath3003">
<path d="m281.646,96.1582 64.208,0 0-53.8369-64.208,0 0,53.8369z"/>
</clipPath>
<clipPath id="clipPath2907">
<path d="m122.214,421.622 186.265,0 0-306.113-186.265,0 0,306.113z"/>
</clipPath>
<clipPath id="clipPath2939">
<path d="m336.673,333.388 116.547,0 0-38.477-116.547,0 0,38.477z"/>
</clipPath>
<clipPath id="clipPath2987">
<path d="m284.084,95.0332 60.846,0 0-52.4941-60.846,0 0,52.4941z"/>
</clipPath>
<clipPath id="clipPath2923">
<path d="m451.423,324.121 6.413,0 0-23.464-6.413,0 0,23.464z"/>
</clipPath>
<clipPath id="clipPath3035">
<path d="m358.834,270.554 128.828,0 0-205.4251-128.828,0 0,205.4251z"/>
</clipPath>
<clipPath id="clipPath4323">
<path d="m183.878,378.374 122.998,0 0-36.216-122.998,0 0,36.216z"/>
</clipPath>
<clipPath id="clipPath3195">
<path d="m442.744,389.332 38.38,0 0-106.63-38.38,0 0,106.63z"/>
</clipPath>
<clipPath id="clipPath3245">
<path d="m128.235,454.491 337.805,0 0-128.314-337.805,0 0,128.314z"/>
</clipPath>
<clipPath id="clipPath3293">
<path d="m128.268,480.049 263.941,0 0-62.391-263.941,0 0,62.391z"/>
</clipPath>
<clipPath id="clipPath3297">
<path d="m128.268,481.075 263.941,0 0-63.417-263.941,0 0,63.417z"/>
</clipPath>
<clipPath id="clipPath3277">
<path d="m145.473,452.822 30.715,0 0-25.322-30.715,0 0,25.322z"/>
</clipPath>
<clipPath id="clipPath3261">
<path d="m131.21,432.158 13.943,0 0-31.252-13.943,0 0,31.252z"/>
</clipPath>
<clipPath id="clipPath3147">
<path d="m208.204,233.913 279.458,0 0-195.537-279.458,0 0,195.537z"/>
</clipPath>
<clipPath id="clipPath3179">
<path d="m451.423,372.208 25.457,0 0-87.924-25.457,0 0,87.924z"/>
</clipPath>
<clipPath id="clipPath3341">
<path d="m128.268,480.049 263.941,0 0-62.391-263.941,0 0,62.391z"/>
</clipPath>
<clipPath id="clipPath3163">
<path d="m336.357,331.413 23.353,0 0-94.68-23.353,0 0,94.68z"/>
</clipPath>
<filter width="1.384" x="-.192" y="-.192" height="1.384" color-interpolation-filters="sRGB" id="filter3794">
<feGaussianBlur stdDeviation="5.28"/>
</filter>
<linearGradient gradientTransform="matrix(1.02381 0 0 1.0119 -1.14286 -98.07143)" id="linearGradient3780" xlink:href="#ButtonShadow-0" y1="6.132" y2="90.239" x2="0" gradientUnits="userSpaceOnUse"/>
<linearGradient gradientTransform="matrix(1.00587 0 0 .99417 100 0)" id="ButtonShadow-0" y1="92.54" y2="7.017" x2="0" gradientUnits="userSpaceOnUse">
<stop offset="0"/>
<stop offset="1" stop-opacity=".588"/>
</linearGradient>
<linearGradient id="linearGradient3617" xlink:href="#linearGradient3700" y1="90" y2="5.988" x2="0" gradientUnits="userSpaceOnUse"/>
<linearGradient gradientTransform="matrix(-30.28182 78.32507 78.32507 30.28182 315.58105 253.38281)" id="linearGradient6428" xlink:href="#linearGradient4219" x1="0" x2="1" gradientUnits="userSpaceOnUse"/>
<linearGradient id="linearGradient3188" xlink:href="#linearGradient3737" y1="6" y2="63.893" x2="0" gradientUnits="userSpaceOnUse"/>
<linearGradient gradientTransform="matrix(63.89108 -57.33025 -57.33025 -63.89108 176.02295 292.76611)" id="linearGradient4107" x1="0" x2="1" gradientUnits="userSpaceOnUse">
<stop offset="0" stop-color="#fff"/>
<stop offset="1" stop-color="#231f20"/>
</linearGradient>
<linearGradient gradientTransform="matrix(-7.66356 86.08717 86.08717 7.66356 311.97852 258.04639)" id="linearGradient4175" x1="0" x2="1" gradientUnits="userSpaceOnUse">
<stop offset="0" stop-color="#808285"/>
<stop offset="1" stop-color="#a7a9ac"/>
</linearGradient>
<linearGradient id="linearGradient3700">
<stop offset="0" stop-color="#2a85da"/>
<stop offset="1" stop-color="#68baf4"/>
</linearGradient>
<linearGradient id="linearGradient3613" xlink:href="#linearGradient3737" y1="20.221" y2="138.661" x2="0" gradientUnits="userSpaceOnUse"/>
<linearGradient gradientTransform="matrix(90.24561 0 0 -90.24561 15.72949 304.21729)" id="linearGradient3625" x1="0" x2="1" gradientUnits="userSpaceOnUse">
<stop offset="0" stop-color="#414042"/>
<stop offset="1" stop-color="#58595b"/>
</linearGradient>
<linearGradient gradientTransform="matrix(13.95761 29.90239 29.90239 -13.95761 199.79492 311.26221)" id="linearGradient3781" x1="0" x2="1" gradientUnits="userSpaceOnUse">
<stop offset="0" stop-color="#353435"/>
<stop offset="1" stop-color="#7d7e81"/>
</linearGradient>
<linearGradient gradientTransform="matrix(162.75 0 0 -162.75 179.70898 346.29297)" id="linearGradient3909" x1="0" x2="1" gradientUnits="userSpaceOnUse">
<stop offset="0" stop-color="#696a6d"/>
<stop offset=".479" stop-color="#a3a5a8"/>
<stop offset="1" stop-color="#4d4d4f"/>
</linearGradient>
<linearGradient gradientTransform="matrix(-30.28182 78.32507 78.32507 30.28182 315.58105 253.38281)" id="linearGradient4219" x1="0" x2="1" gradientUnits="userSpaceOnUse">
<stop offset="0" stop-color="#231f20"/>
<stop offset="1" stop-color="#fff"/>
</linearGradient>
<linearGradient gradientTransform="matrix(102.50244 0 0 -102.50244 30.26807 255.45117)" id="linearGradient3561" x1="0" x2="1" gradientUnits="userSpaceOnUse">
<stop offset="0" stop-color="#58595b"/>
<stop offset="1" stop-color="#333132"/>
</linearGradient>
<linearGradient gradientTransform="matrix(279.45801 0 0 -279.45801 208.2041 136.14453)" id="linearGradient3111" x1="0" x2="1" gradientUnits="userSpaceOnUse">
<stop offset="0" stop-color="#58595b"/>
<stop offset="1" stop-color="#333132"/>
</linearGradient>
<linearGradient gradientTransform="matrix(232.55713 0 0 -232.55713 33.93701 103.92773)" id="linearGradient3689" x1="0" x2="1" gradientUnits="userSpaceOnUse">
<stop offset="0" stop-color="#333132"/>
<stop offset="1" stop-color="#58595b"/>
</linearGradient>
<linearGradient id="linearGradient3737">
<stop offset="0" stop-color="#fff"/>
<stop offset="1" stop-color="#fff" stop-opacity="0"/>
</linearGradient>
<linearGradient gradientTransform="translate(0 -97)" id="linearGradient3721" xlink:href="#ButtonShadow-0" y1="6.132" y2="90.239" x2="0" gradientUnits="userSpaceOnUse"/>
<linearGradient gradientTransform="matrix(263.94141 0 0 -263.94141 128.26758 448.85352)" id="linearGradient3305" x1="0" x2="1" gradientUnits="userSpaceOnUse">
<stop offset="0" stop-color="#58595b"/>
<stop offset="1" stop-color="#231f20"/>
</linearGradient>
<linearGradient gradientTransform="matrix(63.89108 -57.33025 -57.33025 -63.89108 176.02295 292.76611)" id="linearGradient6426" xlink:href="#linearGradient4107" x1="0" x2="1" gradientUnits="userSpaceOnUse"/>
<linearGradient gradientTransform="matrix(41.03274 18.86144 18.86144 -41.03274 216.08203 346.61426)" id="linearGradient3845" x1="0" x2="1" gradientUnits="userSpaceOnUse">
<stop offset="0" stop-color="#7d7e81"/>
<stop offset="1" stop-color="#231f20"/>
</linearGradient>
<mask id="mask4181">
<g>
<g clip-path="url(#clipPath4163)">
<path d="m284.348,343.158 103.695,0 0-117.723-103.695,0 0,117.723z"/>
<g>
<g>
<g clip-path="url(#clipPath4167)">
<g>
<g>
<g>
<g>
<path fill="url(#linearGradient4175)" d="m310.584,343.158c0,0 35.125-45-10.813-86 0,0-13.062-7.75-15.423-31.722 0,0 103.695,48.722 26.236,117.722"/>
</g>
</g>
</g>
</g>
</g>
</g>
</g>
</g>
</g>
</mask>
<mask id="mask4293">
<g>
<g clip-path="url(#clipPath4275)">
<path d="m183.878,405.657 122.998,0 0-63.5-122.998,0 0,63.5z"/>
<g>
<g>
<g clip-path="url(#clipPath4279)">
<g>
<g>
<g>
<g>
<path fill="url(#radialGradient4287)" d="m306.876,364.491c0,0-6.917,1-15.5-3.166 0,0-8.167-1.917-12.25,.583 0,0-30.75,17.916-67.416-4.417 0,0-18.916-7.666-27.832-15.333 0,0 46.664,63.499 122.998,22.333"/>
</g>
</g>
</g>
</g>
</g>
</g>
</g>
</g>
</g>
</mask>
<mask id="mask3631">
<g>
<g clip-path="url(#clipPath3613-2)">
<path d="m11.875,436.902 94.1,0 0-265.369-94.1,0 0,265.369z"/>
<g>
<g>
<g clip-path="url(#clipPath3617)">
<g>
<g>
<g>
<g>
<path fill="url(#linearGradient3625)" d="m20.875,246.283c0,0-5.146,31.5 6.75,69.5 0,0 16.5,62.75 60.5,102.75 0,0 8.474,6.775 17.85,18.368 .001,.001-53.184-30.281-82.85-120.118 0,0-11.25-26.25-6-70.75 0,0 2.5-39.75 20.625-74.5 0,0-10.973,26.628-16.875,74.75"/>
</g>
</g>
</g>
</g>
</g>
</g>
</g>
</g>
</g>
</mask>
<mask id="mask3787">
<g>
<g clip-path="url(#clipPath3769)">
<path d="m189.129,356.075 33.081,0 0-77.999-33.081,0 0,77.999z"/>
<g>
<g>
<g clip-path="url(#clipPath3773)">
<g>
<g>
<g>
<g>
<path fill="url(#linearGradient3781)" d="m222.21,356.075c0,0-29.5-4.584-33-54.333 0,0-.081-18.999 6.833-22.499 0,0 3.834-1.167 3.417,6.333 0,0-1.083,10.501 .917,28.418 0,0 2.083,26.666 21.833,42.081"/>
</g>
</g>
</g>
</g>
</g>
</g>
</g>
</g>
</g>
</mask>
<mask id="mask3851">
<g>
<g clip-path="url(#clipPath3833)">
<path d="m212.584,365.283 46.813,0 0-25.563-46.813,0 0,25.563z"/>
<g>
<g>
<g clip-path="url(#clipPath3837)">
<g>
<g>
<g>
<g>
<path fill="url(#linearGradient3845)" d="m259.396,363.346c0,0-18.312,1.937-29.687-4.125 0,0-9.313-5.188-15.063-14.125 0,0-2.062-5.375 3.063-4.125 0,0 8,7.312 17.125,12.875 0,0 10.062,6.187 24.562,9.5"/>
</g>
</g>
</g>
</g>
</g>
</g>
</g>
</g>
</g>
</mask>
<mask id="mask3695">
<g>
<g clip-path="url(#clipPath3677)">
<path d="m33.937,174.185 232.557,0 0-143.193-232.557,0 0,143.193z"/>
<g>
<g>
<g clip-path="url(#clipPath3681)">
<g>
<g>
<g>
<g>
<path fill="url(#linearGradient3689)" d="m33.937,174.185c0,0 19.959-51.527 65.609-87.589 0,0 44.475-40 120.363-51.773 0,0 26.921-3.331 34.835,1.335 0,0 8.584,.583 11.75,3.333 0,0-2.065,.331-4.813,.87 0,0-27.303-9.37-67.785,16.11 0,0-14.685,8.353-29.537,23.164 0,0-67.213,10.461-130.422,94.55"/>
</g>
</g>
</g>
</g>
</g>
</g>
</g>
</g>
</g>
</mask>
<mask id="mask3311">
<g>
<g clip-path="url(#clipPath3293)">
<path d="m128.268,481.075 263.941,0 0-63.417-263.941,0 0,63.417z"/>
<g>
<g>
<g clip-path="url(#clipPath3297)">
<g>
<g>
<g>
<g>
<path fill="url(#linearGradient3305)" d="m128.513,435.58c0,0-.245,1.955-.245,3.91 0,0 55.366,37.667 103.273,40 0,0 19.501,1.585 40.334-.582 0,0 100.419-9.749 120.334-61.25 0,0-46.745,46.001-117.748,53.919 0,0-19.843,2.416-47.604-.002 0,0-47.723-4.168-98.344-35.995"/>
</g>
</g>
</g>
</g>
</g>
</g>
</g>
</g>
</g>
</mask>
<mask id="mask3567">
<g>
<g clip-path="url(#clipPath3549)">
<path d="m27.084,421.533 107.625,0 0-334.298-107.625,0 0,334.298z"/>
<g>
<g>
<g clip-path="url(#clipPath3553)">
<g>
<g>
<g>
<g>
<path fill="url(#linearGradient3561)" d="m100.334,421.533c0,0-50.625-40.375-66.125-117.75 0,0-7.125-36.5-2.215-66.875 0,0 10.965-90.25 89.715-145.75 0,0 5.833-3.923 9.613-.155 0,0 3.387,4.03-.197,7.905 0,0-5.291,6.375-26.083,21.077 0,0-58.583,46.798-67.084,132.346 0,0-2.374,26.077 1.001,47.452 0,0 6.5,68.125 61.375,121.75"/>
</g>
</g>
</g>
</g>
</g>
</g>
</g>
</g>
</g>
</mask>
<mask id="mask3117">
<g>
<g clip-path="url(#clipPath3099)">
<path d="m208.204,233.913 279.458,0 0-196.817-279.458,0 0,196.817z"/>
<g>
<g>
<g clip-path="url(#clipPath3103)">
<g>
<g>
<g>
<g>
<path fill="url(#linearGradient3111)" d="m208.204,66.201c0,0 25.817-18.793 54.966-26.11 0,0 1.664-.402 3.324-.6 0,0 16.684-2.395 28.666-.166 0,0 167.584,21.083 192.502,194.588 0,0-77.287-190.422-279.458-167.712"/>
</g>
</g>
</g>
</g>
</g>
</g>
</g>
</g>
</g>
</mask>
<mask id="mask4069">
<g>
<g clip-path="url(#clipPath4051)">
<path d="m164.334,320.471 108.375,0 0-103.563-108.375,0 0,103.563z"/>
<g>
<g>
<g clip-path="url(#clipPath4055)">
<g>
<g>
<g>
<g>
<path fill="url(#radialGradient4063)" d="m176.834,320.471c0,0-5.875-37.75 11.25-49.063 0,0 16.5-53.125 84.625-27.812 0,0-11-11.313-12.75-21.063 0,0-34.75-5.625-59.25,10.75 0,0-36.375,24.625-23.875,87.188"/>
</g>
</g>
</g>
</g>
</g>
</g>
</g>
</g>
</g>
</mask>
<mask id="mask3985">
<g>
<g clip-path="url(#clipPath3963)">
<path d="m161.77,381.625 187.25,0 0-173.125-187.25,0 0,173.125z"/>
<g>
<g>
<g clip-path="url(#clipPath3967)">
<g>
<g>
<g>
<g>
<path fill="url(#radialGradient3975)" d="m185.145,240.751c0,0 24.25-30.086 70.166-30.041 0,0 34.084-2.209 64.177,24.603 0,0 26.91,21.188 26.91,59.98 0,0 2.622,28.832-22.753,55.957 0,0-25,28.567-69.079,28.545 0,0-36.046,1.83-67.046-27.42 0,0-24.064-21.75-24.036-57.791 0,0-1.714-28.958 21.661-53.833"/>
</g>
</g>
</g>
</g>
</g>
</g>
</g>
</g>
</g>
</mask>
<mask id="mask3917">
<g>
<g clip-path="url(#clipPath3897)">
<path d="m179.709,385.408 162.75,0 0-72.5-162.75,0 0,72.5z"/>
<g>
<g>
<g clip-path="url(#clipPath3901)">
<g>
<g>
<g>
<g>
<path fill="url(#linearGradient3909)" d="m342.459,312.908c0,0-12.5,61-81.375,66.5 0,0-49.375,6-81.375-38.626 0,0 27.833,33.543 76.834,34.958 0,0 65.333,2.918 85.916-62.832"/>
</g>
</g>
</g>
</g>
</g>
</g>
</g>
</g>
</g>
</mask>
<radialGradient cx="0" cy="0" gradientTransform="matrix(11.84473 198.37062 355.44763 -21.22382 267.38867 289.70752)" r="1" id="radialGradient6418" xlink:href="#radialGradient3219" gradientUnits="userSpaceOnUse"/>
<radialGradient fx="-.009" fy=".001" cx="0" cy="0" gradientTransform="matrix(-199.02205 -83.13937 -114.44565 273.96414 212.81348 310.07324)" r="1" id="radialGradient6420" xlink:href="#radialGradient3381" gradientUnits="userSpaceOnUse"/>
<radialGradient cx="48" cy="90.172" gradientTransform="matrix(1.15731 0 0 .99591 -7.55102 .19713)" r="42" id="radialGradient3619" xlink:href="#linearGradient3737" gradientUnits="userSpaceOnUse"/>
<radialGradient fx=".216" fy="-.005" cx="0" cy="0" gradientTransform="matrix(-.40784 -139.25677 -139.25677 .40784 257.96582 347.2417)" r="1" id="radialGradient6422" xlink:href="#radialGradient3749" gradientUnits="userSpaceOnUse"/>
<radialGradient fx=".124" cx="0" cy="0" gradientTransform="matrix(.58949 -114.41545 -97.24033 -.50101 258.46582 338.7417)" r="1" id="radialGradient6424" xlink:href="#radialGradient4023" gradientUnits="userSpaceOnUse"/>
<radialGradient cx="0" cy="0" gradientTransform="matrix(154.71136 -104.55475 -154.62616 -228.80284 302.98437 249.18652)" r="1" id="radialGradient2963" gradientUnits="userSpaceOnUse">
<stop offset="0" stop-color="#fff055"/>
<stop offset=".618" stop-color="#f4cf12"/>
<stop offset=".618" stop-color="#f4cf12"/>
<stop offset="1" stop-color="#d0ae1a"/>
</radialGradient>
<radialGradient fx="-.009" fy=".001" cx="0" cy="0" gradientTransform="matrix(-199.02205 -83.13937 -114.44565 273.96414 212.81348 310.07324)" r="1" id="radialGradient3381" gradientUnits="userSpaceOnUse">
<stop offset="0" stop-color="#91dd96"/>
<stop offset=".681" stop-color="#00ad00"/>
<stop offset=".681" stop-color="#00ad00"/>
<stop offset="1" stop-color="#008008"/>
</radialGradient>
<radialGradient fx=".124" cx="0" cy="0" gradientTransform="matrix(.58949 -114.41545 -97.24033 -.50101 258.46582 338.7417)" r="1" id="radialGradient4023" gradientUnits="userSpaceOnUse">
<stop offset="0" stop-color="#fff"/>
<stop offset=".983"/>
<stop offset=".983"/>
<stop offset="1"/>
</radialGradient>
<radialGradient fx=".109" fy=".001" cx="0" cy="0" gradientTransform="matrix(-.47232 -110.46269 -96.73715 .41364 258.46582 335.2417)" r="1" id="radialGradient3975" gradientUnits="userSpaceOnUse">
<stop offset="0"/>
<stop offset=".983" stop-color="#fff"/>
<stop offset=".983" stop-color="#fff"/>
<stop offset="1" stop-color="#fff"/>
</radialGradient>
<radialGradient cx="0" cy="0" gradientTransform="matrix(11.84473 198.37062 355.44763 -21.22382 267.38867 289.70752)" r="1" id="radialGradient3219" gradientUnits="userSpaceOnUse">
<stop offset="0" stop-color="#f7010b"/>
<stop offset=".721" stop-color="#d90000"/>
<stop offset=".721" stop-color="#d90000"/>
<stop offset=".83" stop-color="#be0201"/>
<stop offset="1" stop-color="#e2817d"/>
</radialGradient>
<radialGradient fx=".216" fy="-.005" cx="0" cy="0" gradientTransform="matrix(-.40784 -139.25677 -139.25677 .40784 257.96582 347.2417)" r="1" id="radialGradient3749" gradientUnits="userSpaceOnUse">
<stop offset="0" stop-color="#b0ddf3"/>
<stop offset="1" stop-color="#005edb"/>
</radialGradient>
<radialGradient cx="0" cy="0" gradientTransform="matrix(52.87071 0 0 -52.87071 213.46387 243.66016)" r="1" id="radialGradient4063" gradientUnits="userSpaceOnUse">
<stop offset="0" stop-color="#545456"/>
<stop offset="1" stop-color="#888a8c"/>
</radialGradient>
<radialGradient cx="0" cy="0" gradientTransform="matrix(44.33203 0 0 -44.33203 246.87695 373.76562)" r="1" id="radialGradient4287" gradientUnits="userSpaceOnUse">
<stop offset="0" stop-color="#414042"/>
<stop offset="1" stop-color="#9d9fa2"/>
</radialGradient>
<radialGradient cx="0" cy="0" gradientTransform="matrix(154.71136 -104.55475 -154.62616 -228.80284 302.98437 249.18652)" r="1" id="radialGradient6733" xlink:href="#radialGradient2963" gradientUnits="userSpaceOnUse"/>
</defs>
<path opacity=".08" fill="url(#linearGradient3780)" d="m12-95.0312c-5.5111,0-10.0312,4.5202-10.0312,10.0312v71c0,5.5111 4.5202,10.0312 10.0312,10.0312h72c5.5111,0 10.0312-4.5202 10.0312-10.0312v-71c0-5.5111-4.5202-10.0312-10.0312-10.0312h-72z" transform="scale(1 -1)"/>
<path opacity=".1" fill="url(#linearGradient3780)" d="m12-94.0312c-4.9716,0-9.0312,4.0596-9.0312,9.0312v71c0,4.9716 4.0596,9.0312 9.0312,9.0312h72c4.9716,0 9.0312-4.0596 9.0312-9.0312v-71c0-4.9716-4.0596-9.0312-9.0312-9.0312h-72z" transform="scale(1 -1)"/>
<path opacity=".2" fill="url(#linearGradient3780)" d="m12-93c-4.4091,0-8,3.5909-8,8v71c0,4.4091 3.5909,8 8,8h72c4.4091,0 8-3.5909 8-8v-71c0-4.4091-3.5909-8-8-8h-72z" transform="scale(1 -1)"/>
<path opacity=".3" fill="url(#linearGradient3780)" d="m12-92h72a7,7 0 0,1 7,7v71a7,7 0 0,1 -7,7h-72a7,7 0 0,1 -7-7v-71a7,7 0 0,1 7-7" transform="scale(1 -1)"/>
<path opacity=".45" fill="url(#linearGradient3721)" d="m12-91h72a6,6 0 0,1 6,6v72a6,6 0 0,1 -6,6h-72a6,6 0 0,1 -6-6v-72a6,6 0 0,1 6-6" transform="scale(1 -1)"/>
<path d="m48.1059,11.0111c-1.2831,0-2.8038,.0442-4.4866,.1863 0,0-7.7514,.4791-15.6751,5.1041 0,0-.3379,.4455-.3379,2.105 0,0-.2672-.149-.826-.149-.2594,0-.5851,.0463-.9762,.1304 0,0-1.4958,.3263-3.1726,1.7138 0,0-12.2074,8.8274-13.4411,24.2537 0,0-.4113,3.5132 0,7.0228 0,0 1.9879,28.1031 33.4902,33.4374 0,0 4.4423,.5381 5.7444-.2235 0,0 1.4128-.0915 1.9336-.5402 0,0 2.7408,.3828 4.7119,.0186 0,0 27.5702-3.4382 31.6693-31.7609 0,0 .4963-2.9262 .1126-7.1159 0,0-.6558-10.4456-7.2087-18.1996 0,0-.1632-.0558-.3004-.0558 0,0-7.0888-13.641-26.9386-15.7221 0,0-1.6519-.2049-4.2989-.2049zm.5819,72.6867c.2421,.0611 .4859,.115 .7321,.1676-.2121-.0457-.4578-.0975-.7321-.1676z"/>
<path fill="url(#linearGradient3617)" d="m12,6h72a6,6 0 0,1 6,6v72a6,6 0 0,1 -6,6h-72a6,6 0 0,1 -6-6v-72a6,6 0 0,1 6-6"/>
<path opacity=".5" fill="url(#linearGradient3188)" d="m12,6c-3.324,0-6,2.676-6,6v2 68 2c0,.3347 .0413,.6507 .0938,.9688 .0487,.2956 .097,.5969 .1875,.875 .0099,.0304 .0209,.0636 .0312,.0938 .0989,.2878 .2349,.5475 .375,.8125 .1446,.2735 .3156,.5356 .5,.7812 .1844,.2456 .3738,.4735 .5938,.6875 .4399,.4281 .9429,.8145 1.5,1.0938 .2785,.1396 .5735,.2469 .875,.3438-.2562-.1002-.4867-.2363-.7188-.375-.0074-.0044-.0239,.0045-.0312,0-.0319-.0193-.0623-.0425-.0938-.0625-.1204-.0767-.231-.1635-.3438-.25-.1062-.0808-.2133-.1611-.3125-.25-.1779-.1614-.3475-.3454-.5-.5312-.1076-.1303-.2184-.2653-.3125-.4062-.0251-.0384-.0384-.0859-.0625-.125-.0648-.103-.1302-.2045-.1875-.3125-.101-.1947-.2057-.4157-.2812-.625-.008-.0218-.0236-.0405-.0312-.0625-.0318-.0919-.0358-.1868-.0625-.2812-.0303-.1066-.0704-.203-.0938-.3125-.0729-.3415-.125-.6982-.125-1.0625v-2-68-2c0-2.7818 2.2182-5 5-5h2 68 2c2.7818,0 5,2.2182 5,5v2 68 2c0,.3643-.0521,.721-.125,1.0625-.0442,.2069-.0884,.3977-.1562,.5938-.0077,.022-.0233,.0407-.0312,.0625-.0627,.1737-.1384,.3674-.2188,.5312-.0416,.0828-.079,.17-.125,.25-.0546,.0972-.1268,.1883-.1875,.2812-.0941,.141-.2049,.276-.3125,.4062-.1432,.1744-.3031,.347-.4688,.5-.0112,.0102-.02,.0212-.0312,.0312-.1384,.1256-.2851,.2344-.4375,.3438-.1026,.0731-.2043,.1534-.3125,.2188-.0074,.0045-.0238-.0044-.0312,0-.232,.1387-.4625,.2748-.7188,.375 .3015-.0968 .5965-.2041 .875-.3438 .5571-.2792 1.0601-.6657 1.5-1.0938 .22-.214 .4094-.4419 .5938-.6875 .1844-.2456 .3554-.5077 .5-.7812 .1401-.265 .2761-.5247 .375-.8125 .0104-.0308 .0213-.0627 .0312-.0938 .0905-.2781 .1388-.5794 .1875-.875 .0524-.318 .0938-.634 .0938-.9688v-2-68-2c0-3.324-2.676-6-6-6h-72z"/>
<path opacity=".2" fill="url(#radialGradient3619)" d="m12,90c-3.324,0-6-2.676-6-6v-2-68-2c0-.3347 .0413-.6507 .0938-.9688 .0487-.2956 .097-.5969 .1875-.875 .0099-.0304 .0209-.0636 .0312-.0938 .0989-.2878 .2349-.5475 .375-.8125 .1446-.2735 .3156-.5356 .5-.7812 .1844-.2456 .3738-.4735 .5938-.6875 .4399-.4281 .9429-.8145 1.5-1.0938 .2785-.1396 .5735-.2469 .875-.3438-.2562,.1002-.4867,.2363-.7188,.375-.0074,.0044-.0239-.0045-.0312,0-.0319,.0193-.0623,.0425-.0938,.0625-.1204,.0767-.231,.1635-.3438,.25-.1062,.0808-.2133,.1611-.3125,.25-.1779,.1614-.3475,.3454-.5,.5312-.1076,.1303-.2184,.2653-.3125,.4062-.0251,.0384-.0384,.0859-.0625,.125-.0648,.103-.1302,.2045-.1875,.3125-.101,.1947-.2057,.4157-.2812,.625-.008,.0218-.0236,.0405-.0312,.0625-.0318,.092-.0358,.1868-.0625,.2812-.0303,.1066-.0704,.203-.0938,.3125-.0729,.3415-.125,.6982-.125,1.0625v2 68 2c0,2.7818 2.2182,5 5,5h2 68 2c2.7818,0 5-2.2182 5-5v-2-68-2c0-.3643-.0521-.721-.125-1.0625-.0442-.2069-.0884-.3977-.1562-.5938-.0077-.022-.0233-.0407-.0312-.0625-.0627-.1737-.1384-.3674-.2188-.5312-.0416-.0828-.079-.17-.125-.25-.0546-.0972-.1268-.1883-.1875-.2812-.0941-.141-.2049-.276-.3125-.4062-.1432-.1745-.3031-.347-.4688-.5-.0112-.0102-.02-.0211-.0312-.0312-.1384-.1256-.2851-.2344-.4375-.3438-.1026-.0732-.2043-.1534-.3125-.2188-.0074-.0045-.0238,.0044-.0312,0-.232-.1387-.4625-.2748-.7188-.375 .3015,.0968 .5965,.2041 .875,.3438 .5571,.2792 1.0601,.6657 1.5,1.0938 .22,.214 .4094,.4419 .5938,.6875 .1844,.2456 .3554,.5077 .5,.7812 .1401,.265 .2761,.5247 .375,.8125 .0104,.0308 .0213,.0627 .0312,.0938 .0905,.2781 .1388,.5794 .1875,.875 .0524,.318 .0938,.634 .0938,.9688v2 68 2c0,3.324-2.676,6-6,6h-72z"/>
<path opacity=".1" fill="url(#linearGradient3613)" filter="url(#filter3794)" stroke="#fff" stroke-linecap="round" stroke-width=".5" d="m27,15h42a12,12 0 0,1 12,12v42a12,12 0 0,1 -12,12h-42a12,12 0 0,1 -12-12v-42a12,12 0 0,1 12-12" clip-path="url(#clipPath3613)"/>
<path opacity=".1" d="m50,9.9688c-1.5301-.0571-3.7014,.0301-6.1562,.2188a1.0165,1.0165 0 0,0 -.0312,0 1.0165,1.0165 0 0,0 -.3125-.0312c0,0-8.177,.5117-16.5312,5.375-.0129,.0075-.0183,.0237-.0312,.0312-.0478,.0278-.1249,.0625-.125,.0625-.0001,0-.1874,.1249-.1875,.125-.0001,.0001-.1562,.1249-.1562,.125-.0001,.0001-.1249,.1562-.125,.1562a1.0165,1.0165 0 0,0 -.0938,.125c0,0-.0876,.1685-.1875,.375-.0796,.1646-.1733,.3742-.25,.6562-.0185,.0679-.0209,.1006-.0312,.1562-.1568,.0139-.2206-.0104-.4062,.0312a1.0165,1.0165 0 0,0 -.0312,0c0,0-1.8426,.4955-3.8125,2.0312-.0525,.0231-.0875,.0486-.1562,.0938-.0264,.0174-.0374,.0107-.0625,.0312-.3646,.2647-12.8591,9.4067-14.1562,25.625a1.0165,1.0165 0 0,0 0,.2188 1.0165,1.0165 0 0,0 0,.0938c-.0629,.5677-.2928,3.3698 .0312,6.6875 .0011,.0115-.0011,.0197 0,.0312a1.0165,1.0165 0 0,0 -.0312,.3125c0,0 .5465,7.4937 5.2188,15.5938 4.6747,8.1042 13.673,16.954 30,19.7188a1.0165,1.0165 0 0,0 .0625,0 1.0165,1.0165 0 0,0 .0312,0 1.0165,1.0165 0 0,0 .0625,.0312c0,0 .0312,0 .0312,0v-.0312c.1072,.0133 1.1279,.1768 2.4375,.2188 .6731,.0215 1.4146,.0073 2.1562-.0625 .4821-.0454 .864-.2093 1.25-.3438 .009-.0031 .0223,.0032 .0312,0a1.0165,1.0165 0 0,0 .125,0c0,0 .4586-.0259 1-.125 .4592-.084 .7288-.2428 1-.375 .6552,.0989 2.6541,.3774 4.8125-.0625-.3638,.0742-.3089,.094 .125,0a1.0165,1.0165 0 0,0 .25-.0938 1.0165,1.0165 0 0,0 .0312-.0312c.3061-.0412 1.7784-.2069 4.3125-.9375 2.7559-.7946 6.4644-2.1514 10.3125-4.4375 7.7768-4.62 16.1642-13.1338 18.3125-27.9062 .0425-.2923 .0392-.3019 0-.0312 .0243-.1421 .1377-.8479 .2188-2.1875 .0754-1.2467 .0622-3.0329-.0938-5.0312a1.0165,1.0165 0 0,0 0-.0312 1.0165,1.0165 0 0,0 .0312-.3125c0,0-.5668-10.9861-7.6562-19.375-0-0-.0937-.0937-.0938-.0938-0-0-.0937-.0937-.0938-.0938-0-0-.0937-.0937-.0938-.0938-0-0-.0937-.0625-.0938-.0625-.0001-0-.1249-.0937-.125-.0938-0-0-.0636-.0452-.0938-.0625-.0015-.0026-.0297,.0027-.0312,0-1.178-2.0133-8.8809-13.9436-27.9375-15.9688a1.0165,1.0165 0 0,0 -.0312,0c.042,.0058-.0477-.0245-.0938-.0312-.0436-.0064-.0319,.0085-.0938,0-.1272-.0175-.3041-.038-.5312-.0625-.4543-.0489-1.1038-.1263-1.9062-.1562z"/>
<path opacity=".15" d="m49.9688,11c-1.5757-.0588-3.7966-.031-6.4062,.1875v-.0312c0,0-7.9786,.5262-16.125,5.2812a1.0192,1.0192 0 0,0 -.3125,.25c0,0-.0939,.1524-.1562,.2812-.0623,.1288-.1297,.2875-.1875,.5-.0503,.185-.058,.5796-.0938,.8438-.3396-.0035-.636-.0402-1.0938,.0625 0,0-1.704,.4098-3.5625,1.9062-.022,.0177-.0405,.0132-.0625,.0312-.1628,.118-12.5469,9.1139-13.8125,24.9375h.0312c-.0057,.0482-.4134,3.5703 0,7.1875h-.0312c0,0 .5389,7.2597 5.0938,15.1562 4.5549,7.8965 13.2432,16.5029 29.2812,19.2188a1.0192,1.0192 0 0,0 .0312,0c0,0 1.1481,.1452 2.4688,.1875 .6603,.0211 1.3668,.0313 2.0312-.0312 .5062-.0477 .949-.197 1.4062-.375v.0312c0,0 .4188-.0358 .9062-.125 .3083-.0564 .6729-.2501 1.0312-.4062 .3235,.0521 2.6683,.3994 4.7812-.0312 .0315-.0064 .0625,.0068 .0938,0v-.0312c.1489-.0189 7.0842-.8825 14.5938-5.3438 7.5849-4.506 15.7414-12.7312 17.8438-27.1875 .0015-.0106-.0015-.0207 0-.0312 .0077-.0449 .5107-3.0813 .125-7.3438h.0312c0,0-.6146-10.7078-7.4375-18.7812a1.0192,1.0192 0 0,0 -.4375-.3125c0,0-.0304,.0005-.0312,0-.6975-1.2422-8.1517-13.7664-27.4062-15.8125 0,0-.0614,.0002-.0625,0-.0457-.0063-.9784-.1608-2.5312-.2188z"/>
<g opacity=".3" transform="matrix(.1645 0 0 -.16324 22.63103 21.09328)">
<path d="m0,0c0,0-74.25-54.123-81.75-148.625 0,0-2.5-21.58 0-43.08 0,0 12.167-172.076 203.664-204.755 0,0 26.92-3.332 34.836,1.335 0,0 8.583,.583 11.75,3.333 0,0 16.833-2.75 28.666-.166 0,0 167.584,21.083 192.501,194.588 0,0 3.083,17.911 .75,43.577 0,0-4,64.003-43.834,111.504 0,0-1,.338-1.833,.338 0,0-43.168,83.659-163.833,96.409 0,0-22.003,2.75-53.336,.084 0,0-47.168-3.001-95.335-31.334 0,0-2-2.667-2-12.833 0,0-3.719,1.75-10.907,.125-0-0-8.874-1.874-19.339-10.5"/>
</g>
<g transform="matrix(.1645 0 0 -.16324 22.63103 20.09328)">
<path fill="#4d4a49" d="m0,0c0,0-74.25-54.123-81.75-148.625 0,0-2.5-21.58 0-43.08 0,0 12.167-172.076 203.664-204.755 0,0 26.92-3.332 34.836,1.335 0,0 8.583,.583 11.75,3.333 0,0 16.833-2.75 28.666-.166 0,0 167.584,21.083 192.501,194.588 0,0 3.083,17.911 .75,43.577 0,0-4,64.003-43.834,111.504 0,0-1,.338-1.833,.338 0,0-43.168,83.659-163.833,96.409 0,0-22.003,2.75-53.336,.084 0,0-47.168-3.001-95.335-31.334 0,0-2-2.667-2-12.833 0,0-3.719,1.75-10.907,.125-0-0-8.874-1.874-19.339-10.5"/>
</g>
<g transform="matrix(.1645 0 0 -.16324 6.51046 90.49529)">
<g opacity=".3" clip-path="url(#clipPath2907)">
<g transform="translate(168.5435 131.6211)">
<path fill="#fff" d="m0,0c0,0-2.834,9.287 5.166,16.162 0,0 44,35 79.5,61.875 0,0 31.138-2.5 55.269,17.158 0,0-24.131-16.033-52.024-16.144 0,0-88.495-.006-92.998,85.267 0,0 .753,20.719 8.935,35.474 0,0 1.828,4.495-5.107,13.002 0,0-29.103,80.243-36.644,77.118 0,0-11.645-5.625-7.556-28.875 0,0 1.673-21.792 19.625-39.75 0,0 15-17.875 19.375-32.437 0,0-1.767-11.813-1.875-25.229 0,0-1.125-63.584 66.125-84.576 0,0-2.871-1.883-4.693-3.883 0,0-82.307-54.875-76.525-70.183 0,0 5.093-12.692 14.247-21.066 0,0 16.221-1.382 9.18,16.087"/>
</g>
</g>
</g>
<g transform="matrix(.1645 0 0 -.16324 6.51046 90.49529)">
<g opacity=".3" clip-path="url(#clipPath2923)">
<g transform="translate(457.5693 300.6567)">
<path fill="#fff" d="m0,0c0,0-3.61,12.751-6.146,22.311 0,0 1.161,2.565 3.763,.043 0,0 3.648-9.853 2.383-22.354"/>
</g>
</g>
</g>
<g transform="matrix(.1645 0 0 -.16324 6.51046 90.49529)">
<g opacity=".3" clip-path="url(#clipPath2939)">
<g transform="translate(440.7783 326.1772)">
<path fill="#fff" d="m0,0c0,0 1.966-5.894 2.556-10.644 0,0 .375-6.625-5.75-4.625 0,0-28.5,17.552-100.911,22.48 0,0 1.036-10.42 15.098-13.673 0,0 99.652-29.932 101.448-24.035 0,0-1.26,14.978-6.307,28.094 0,0-5.203,7.638-6.134,2.403"/>
</g>
</g>
</g>
<g transform="matrix(.1645 0 0 -.16324 6.51046 90.49529)">
<path fill="url(#radialGradient6733)" d="m465.456,333.45c0,0 2.065-6.354-4.33-8.622 0,0-2.754-1.165-6.004-1.248 0,0 1.987-17.384 3.167-30.499 0,0-34.166,18.999-84.167,28.166 0,0-18.667,2.082-21.084,10.165 0,0-3.169-5.832-2.168-9.666 0,0 2.749-4.082 4.082-20.082 0,0 .667-6.578 0-16.245 0,0-4.91-83.761-98.837-85.836 0,0-43.742-33.925-89.242-69.259 0,0-13.666-9.998-4.166-24.332 0,0 42.499-56.333 103.787-66.501 0,0 16.684-2.396 28.666-.165 0,0 167.584,21.082 192.502,194.587 0,0 3.082,17.911 .75,43.577 0,0-4,64.003-43.834,111.504 0,0-1,.338-1.834,.338 0,0 13.048-21.506 22.712-55.882"/>
</g>
<g transform="matrix(.1645 0 0 -.16324 6.51046 90.49529)">
<g opacity=".6" clip-path="url(#clipPath2987)">
<g transform="translate(311.3018 42.5391)">
<path fill="#fff" d="m0,0c0,0-18.155,7.994-27.218,36.619 0,0 32.5,4.875 49,15.875 0,0 15.375-23.75 11.093-42.043 0,0-.576-.225-1.117-.435 0,0 4.149,15.166-9.851,40.478 0,0-13.062-10.562-47.25-14.687 0,0 6.125-23.75 26.373-35.554 0-0-.578-.143-1.03-.253"/>
</g>
</g>
</g>
<g transform="matrix(.1645 0 0 -.16324 6.51046 90.49529)">
<g opacity=".2" clip-path="url(#clipPath3003)">
<g transform="translate(310.4023 42.3213)">
<path d="m0,0c0,0-23.256,13.087-28.756,38.712 0,0 39.813,6.75 51,15.125 0,0 14.625-17.938 13.096-42.548 0,0-.813-.322-1.349-.535 0,0 2.128,20.833-12.059,40.02 0,0-14.688-8.062-48.125-13.562 0,0 3.375-21.063 27.592-36.872-0-0-.876-.214-1.399-.34"/>
</g>
</g>
</g>
<g transform="matrix(.1645 0 0 -.16324 6.51046 90.49529)">
<g opacity=".6" clip-path="url(#clipPath3019)">
<g transform="translate(371.3496 65.4961)">
<path fill="#fff" d="m0,0c0,0 15.422,11.537-9.703,44.662 0,0 98.062,41.75 100.812,158.25 0,0 24.399,0 24.399-39.733 0,0-.142-.872-.364-2.19 0,0-.952,37.673-23.118,40.256 0,0 7.333-101.083-99.334-157.333 0,0 23.792-28.875 9.887-42.518 0-0-1.252-.682-2.579-1.394"/>
</g>
</g>
</g>
<g transform="matrix(.1645 0 0 -.16324 6.51046 90.49529)">
<g opacity=".2" clip-path="url(#clipPath3035)">
<g transform="translate(370.6582 65.1289)">
<path d="m0,0c0,0 13.551,12.654-11.824,43.904 0,0 101.5,42.5 102.5,161.5 0,0 23.5,2.125 26.328-36.62 0,0-.217-1.48-.569-3.776 0,0-.634,35.021-23.884,38.646 0,0 5-107.125-102.125-160.25 0,0 22.187-25.75 11.303-42.481-0,0-.788-.423-1.729-.923"/>
</g>
</g>
</g>
<g transform="matrix(.1645 0 0 -.16324 6.51046 90.49529)">
<g opacity=".4" clip-path="url(#clipPath3051)">
<g transform="translate(478.3242 307.4082)">
<path fill="#fff" d="m0,0c0,0-7.353,36.896-22.026,62.807 0,0 17.673-25.159 22.026-62.807"/>
</g>
</g>
</g>
<g transform="matrix(.1645 0 0 -.16324 6.51046 90.49529)">
<g opacity=".4" clip-path="url(#clipPath3067)">
<g transform="translate(353.3047 328.4604)">
<path fill="#fff" d="m0,0c0,0 8.329-11.576 37.831-15.409 0,0 4-.25 12.086-1.581 0,0 25.415-3.002 66-27.916 0,0-31.253,23.914-65.419,29.248 0,0-38,6.582-50.498,15.658"/>
</g>
</g>
</g>
<g transform="matrix(.1645 0 0 -.16324 6.51046 90.49529)">
<g opacity=".6" clip-path="url(#clipPath3083)">
<g transform="translate(374.1221 321.2466)">
<path fill="#fff" d="m0,0c0,0-18.667,2.083-21.084,10.166 0,0-.36-1.958 .505-3.419 0,0 4.541-6.71 6.167-30.834 0,0 .833-36.167-23.353-60.426 0,0-8.856-12.867-23.794-22.024 0,0-20.434-14.591-56.448-15.127 0,0-43.742-33.925-89.242-69.258 0,0-13.666-9.999-4.166-24.332 0,0 40.968-54.303 100.463-65.902 0,0-55.04,11.143-98.794,68.502 0,0-3.496,5.215 1.083,11.399 0,0 39.419,32.744 72.667,59.363 0,0 70.837-13.298 116.674,48.203 0,0 22.749,28.165 22.583,67.498 0,0 .001,18.085-3.261,26.191"/>
</g>
</g>
</g>
<g transform="matrix(.1645 0 0 -.16324 6.51046 90.49529)">
<g mask="url(#mask3117)">
<g>
<g clip-path="url(#clipPath3147)">
<g transform="translate(208.2041 66.2012)">
<path fill="#fff" d="m0,0c0,0 25.817-18.793 54.966-26.11 0,0 1.664-.402 3.324-.6 0,0 16.684-2.395 28.666-.166 0,0 167.584,21.083 192.502,194.588 0,0-77.287-190.422-279.458-167.712"/>
</g>
</g>
</g>
</g>
</g>
<g transform="matrix(.1645 0 0 -.16324 6.51046 90.49529)">
<g opacity=".25" clip-path="url(#clipPath3163)">
<g transform="translate(353.0381 331.4126)">
<path d="m0,0c0,0-3.169-5.833-2.169-9.666 0,0 2.75-4.083 4.083-20.083 0,0 .667-6.578 0-16.245 0,0-1.494-25.483-18.595-48.685 0,0 22.52,19.927 23.353,60.426 0,0-1.167,22-6.167,30.834 0,0-.834,1.165-.505,3.419"/>
</g>
</g>
</g>
<g transform="matrix(.1645 0 0 -.16324 6.51046 90.49529)">
<g opacity=".5" clip-path="url(#clipPath3179)">
<g transform="translate(451.4229 372.2085)">
<path d="m0,0c0,0 9.161-20.332 14.033-38.758 0,0 2.081-6.37-4.33-8.623 0,0-2.754-1.164-6.004-1.248 0,0 1.988-17.383 3.167-30.499 0,0 6.171-3.38 13.296-8.797 0,0 5.468,.672 5.291,7.628 0,0-4.416,45.664-25.453,80.297"/>
</g>
</g>
</g>
<g transform="matrix(.1645 0 0 -.16324 6.51046 90.49529)">
<g opacity=".25" clip-path="url(#clipPath3195)">
<g transform="translate(479.6689 300.1797)">
<path d="m0,0c0,0-9.126,58.98-36.925,89.152 0,0 3.886-6.264 8.679-17.123 0,0 19.099-28.55 25.453-80.298 0,0 .583-6.393-5.291-7.627 0,0 6.789-5.14 9.539,3.11 0,0 0,5.766-1.455,12.786"/>
</g>
</g>
</g>
<g transform="matrix(.1645 0 0 -.16324 6.51046 90.49529)">
<path fill="url(#radialGradient6418)" d="m225.602,485.784c0,0-47.194-2.96-95.361-31.293 0,0-2.001-2.667-2.001-12.833 0,0-.922-29.876 21.581-69.538 0,0 12.913-17.756 10.497-26.588 0,0 2.583-1.668 6.249-2.084 0,0 26.584,38.333 61.167,45.833 0,0 16.415,5.167 40.164,.667 0,0 23.25-1.918 47.416-20.501 0,0 8.92-6.832 17.087-18.082 0,0 7.003-10.005 24.003-10.005 0,0 36.088-1.836 74.67-12.503 0,0 10.588-2.416 15.838-5.083 0,0 9.25-2.584 16.834,1.499 0,0 3.75,1.834 1.667,9.584 0,0-8.027,30.457-22.669,54.475 0,0-43.14,83.618-163.804,96.367 0,0-9.986,1.248-26.077,1.248-7.8,0-17.031-.293-27.261-1.163"/>
</g>
<g transform="matrix(.1645 0 0 -.16324 6.51046 90.49529)">
<g opacity=".6" clip-path="url(#clipPath3245)">
<g transform="translate(130.2407 454.4907)">
<path fill="#fff" d="m0,0c0,0-2-2.667-2-12.833 0,0-.923-29.875 21.581-69.538 0,0 12.913-17.755 10.496-26.588 0,0 25.141,46.709 77.891,53.501 0,0 15.084,2.125 31.125,0 0,0 40.125-2.375 69.982-43.375 0,0 2.331-4.562 13.268-5.375 0,0 33.75-1.125 72.125-10.875 0,0 18.035-4.062 31.375-12 0,0 3.625-2.062 8.944-.847 0,0 1.994,2.504 .384,8.296 0,0-8.025,30.458-22.668,54.475 0,0-1.999,3.875-6.339,10.084 0,0 13.969-21.042 25.529-62.258 0,0 3.094-9.228-3.726-7.667 0,0-36.829,16.802-94.499,22.721 0,0-28.165,56.446-92.166,61.613 0,0-17.5,3.166-33.666-.334 0,0-49.833-4.333-81.167-48.5 0,0-21.948,34.786-25.5,67.167 0,0-1.5,10.284-.969,22.333"/>
</g>
</g>
</g>
<g transform="matrix(.1645 0 0 -.16324 6.51046 90.49529)">
<g opacity=".2" clip-path="url(#clipPath3261)">
<g transform="translate(143.3755 403.8237)">
<path fill="#fff" d="m0,0c0,0 4,10 0,20 0,0-2.562,8.334-12.166,8.334 0,0 4.314-20.417 9.604-29.667 0,0 2.562-4.334 2.562,1.333"/>
</g>
</g>
</g>
<g transform="matrix(.1645 0 0 -.16324 6.51046 90.49529)">
<g opacity=".2" clip-path="url(#clipPath3277)">
<g transform="translate(172.709 442.4414)">
<path fill="#fff" d="m0,0c0,0 2.122,1.261 2.903,3.594 0,.001 1.511,3-.364,5.875 0,0-1.875,1.875-7.539,.247 0,0-8.361-1.667-18.544-9 0,0-2.167-1.082-3.208-4.248 0,0-1.084-2.125-.006-6.752 0,0 1.922-8.373 10.758-2.667"/>
</g>
</g>
</g>
<g transform="matrix(.1645 0 0 -.16324 6.51046 90.49529)">
<g mask="url(#mask3311)">
<g>
<g clip-path="url(#clipPath3341)">
<g transform="translate(128.5127 435.5801)">
<path fill="#fff" d="m0,0c0,0-.245,1.955-.245,3.91 0,0 55.367,37.667 103.273,40 0,0 19.502,1.585 40.334-.582 0,0 100.419-9.749 120.334-61.25 0,0-46.745,46.001-117.748,53.919 0,0-19.843,2.416-47.604-.002-0,0-47.723-4.168-98.344-35.995"/>
</g>
</g>
</g>
</g>
</g>
<g transform="matrix(.1645 0 0 -.16324 6.51046 90.49529)">
<g opacity=".25" clip-path="url(#clipPath3357)">
<g transform="translate(160.3179 345.5313)">
<path d="m0,0c0,0 2.583-1.667 6.25-2.083 0,0 27.185,38.023 61.167,45.833 0,0 17.683,5.002 40.164,.667 0,0 23.25-1.918 47.416-20.5 0,0 8.92-6.834 17.086-18.084 0,0 7.003-10.004 24.003-10.004 0,0 36.088-1.836 74.67-12.503 0,0 10.588-2.417 15.838-5.083 0,0 9.578-2.585 16.834,1.5 0,0 .744,.431 1.281,1.286 0,0-4.459-1.324-8.943,.848 0,0-14.5,8.125-31.375,12 0,0-36.5,9.5-72.125,10.875 0,0-10.125,.375-13.268,5.375 0,0-26.357,38.5-69.982,43.375 0,0-11.625,2.125-31.125,0 0,0-46.875-3-77.891-53.502"/>
</g>
</g>
</g>
<g transform="matrix(.1645 0 0 -.16324 6.51046 90.49529)">
<path fill="url(#radialGradient6420)" d="m117.334,441.783c0,0-9.146-1.999-19.339-10.499 0,0-74.25-54.124-81.75-148.626 0,0-2.5-21.58 0-43.08 0,0 12.166-172.077 203.664-204.755 0,0 26.92-3.331 34.835,1.335 0,0 8.584,.584 11.75,3.333 0,0-21.575,2.747-46.133,16.917 0,0-13.402,.5-23.184,5.282 0,0-30.437,18.968-55.426,54.64 0,0-3.209,6.493-.001,14.703 1,1.625 5.625,17.625 79.5,70.751 0,0 .627,3.035 .293,7.868 0,0-49.999,13.168-62.043,67.631 0,0-4.539,25.085-2.789,41.21 0,0-8.292,20.915-30.001,49.832 0,0-8.333,9.001-14.332,31.502 0,0-4.167,16.833-2.378,25.331 0,0 1.544,8.669 8.125,11 0,0 4.282,1.914 10.408-.586l-.293,6.086c0,0-1.588,.816-4.985,.816-1.577,0-3.544-.176-5.921-.691"/>
</g>
<g transform="matrix(.1645 0 0 -.16324 6.51046 90.49529)">
<g opacity=".25" clip-path="url(#clipPath3405)">
<g transform="translate(134.7617 357.1118)">
<path d="m0,0c0,0-4.532,6.713-8.051,11.213 0,0-8.669,9.625-14.333,31.502 0,0-4.167,16.834-2.378,25.331 0,0 1.544,8.669 8.125,11 0,0 4.283,1.914 10.408-.586l-.292,6.086c0,0-4.407,2.125-10.907-.625 0,0-8.859-3.703-11.25-14.875 0,0-1.625-6.25 0-13.375 0,0 6.125-37.125 28.678-55.671"/>
</g>
</g>
</g>
<g transform="matrix(.1645 0 0 -.16324 6.51046 90.49529)">
<g opacity=".25" clip-path="url(#clipPath3421)">
<g transform="translate(221.25 201.7832)">
<path d="m0,0c0,0 .627,3.036 .293,7.869 0,0-50,13.168-62.043,67.631 0,0-4.539,25.084-2.789,41.209 0,0-1.913,4.448-5.254,11.03 0,0-5.913-28.533 1.254-53.529 0,0 10.498-50.835 68.539-74.21"/>
</g>
</g>
</g>
<g transform="matrix(.1645 0 0 -.16324 6.51046 90.49529)">
<g opacity=".25" clip-path="url(#clipPath3437)">
<g transform="translate(221.25 201.7832)">
<path d="m0,0c-73.875-53.125-78.5-69.125-79.5-70.75-3.208-8.21 0-14.703 0-14.703 24.99-35.672 55.428-54.641 55.428-54.641 14.281-10.943 31.813-15.843 31.813-15.843 15.801-4.6 26.897-4.105 26.897-4.105 3.118-.864 5.793-1.38 5.793-1.38 0,0-27.16-8.766-67.785,16.109 0,0-33.062,18.188-60.875,61.563 0,0-4.562,6.25 0,12.25 0,0 14.313,24.875 88.229,71.5"/>
</g>
</g>
</g>
<g transform="matrix(.1645 0 0 -.16324 6.51046 90.49529)">
<g opacity=".5" clip-path="url(#clipPath3453)">
<g transform="translate(255.8877 41.7412)">
<path d="m0,0c0,0-16.804,3.911-35.527,14.666 0,0-13.402,.501-23.183,5.282 0,0 24.969-19.948 58.71-19.948"/>
</g>
</g>
</g>
<g transform="matrix(.1645 0 0 -.16324 6.51046 90.49529)">
<g opacity=".6" clip-path="url(#clipPath3469)">
<g transform="translate(231.376 40.8203)">
<path fill="#fff" d="m0,0c0,0-51.666,7.005-97.166,73.172 0,0-7.667,3.169 11.833-18.664 0,0 45.333-51.334 85.333-54.508"/>
</g>
</g>
</g>
<g transform="matrix(.1645 0 0 -.16324 6.51046 90.49529)">
<g opacity=".5" clip-path="url(#clipPath3485)">
<g transform="translate(239.1875 39.4785)">
<path fill="#fff" d="m0,0c0,0 9.557-3.82 15.557-3.32 0,0 10.417,1.153 11.75,3.333 0,0-2.164,.293-4.814,.87 0,0-8.84-2.703-22.493-.883"/>
</g>
</g>
</g>
<g transform="matrix(.1645 0 0 -.16324 6.51046 90.49529)">
<g opacity=".6" clip-path="url(#clipPath3501)">
<g transform="translate(119.811 442.2246)">
<path fill="#fff" d="m0,0c0,0 1.757,.293 3.897,.215-3.171,.062-6.374-1.406-6.374-1.406-9.672-4.75-11.25-14.875-11.25-14.875-.797-3.344-.721-6.75-.721-6.75 .002-3.782 .721-6.625 .721-6.625 8.062-41.125 28.678-55.671 28.678-55.672 0,0-28.72,22.838-31.463,63.23 0,0-.387,5.504 .66,8.567 0,0 4.203,11.64 15.852,13.316"/>
</g>
</g>
</g>
<g transform="matrix(.1645 0 0 -.16324 6.51046 90.49529)">
<g opacity=".6" clip-path="url(#clipPath3517)">
<g transform="translate(164.6641 248.5342)">
<path fill="#fff" d="m0,0c0,0 16.482-30.876 56.586-46.751 0,0-9.697-6.344-16.728-10.845 0,0-58.813,21.97-69.438,90.22 0,0-2.25,13 0,30.875 0,0 1.75,15.625 8.759,31.005 0,0 4.098-7.015 7.613-13.516 0,0-1.435-7.708-1.881-14.678 0,0-.616-5.623-.272-16.061 0,0-.532-25.437 15.361-50.249"/>
</g>
</g>
</g>
<g transform="matrix(.1645 0 0 -.16324 6.51046 90.49529)">
<g opacity=".2" clip-path="url(#clipPath3533)">
<g transform="translate(101.9595 411.7412)">
<path fill="#fff" d="m0,0c0,0-7.833-.833-19.917-19.833 0,0-5.416-10.083-2.25-23.417 0,0 .334-6.916 10.084-7.5 0,0 1.253,0 2.333,1.75 0,0 3.5,4.667 11.25,6.5 0,0 3,.917 6.167,.167 0,0 2.032-.75 2-2.5 0,0-.417-2.5 5.583-4.25 0,0 2-.75 5.083-1.083 0,0 3.917,.25-1.75,5.75 0,0-17.999,16.835-17.999,37.416 0,0 .916,7-.584,7"/>
</g>
</g>
</g>
<g transform="matrix(.1645 0 0 -.16324 6.51046 90.49529)">
<g mask="url(#mask3567)">
<g>
<g clip-path="url(#clipPath3597)">
<g transform="translate(100.334 421.5332)">
<path fill="#fff" d="m0,0c0,0-50.625-40.375-66.125-117.75 0,0-7.125-36.5-2.215-66.875 0,0 10.965-90.25 89.715-145.75 0,0 5.833-3.923 9.613-.155 0,0 3.387,4.03-.196,7.905 0,0-5.292,6.375-26.084,21.077 0,0-58.583,46.798-67.083,132.346 0,0-2.375,26.077 1,47.452 0,0 6.5,68.125 61.375,121.75"/>
</g>
</g>
</g>
</g>
</g>
<g transform="matrix(.1645 0 0 -.16324 6.51046 90.49529)">
<g mask="url(#mask3631)">
<g>
<g clip-path="url(#clipPath3661)">
<g transform="translate(20.8755 246.2832)">
<path fill="#fff" d="m0,0c0,0-5.146,31.5 6.75,69.5 0,0 16.5,62.75 60.5,102.75 0,0 8.474,6.775 17.85,18.368 0,.001-53.184-30.282-82.85-120.118 0,0-11.25-26.25-6-70.75 0,0 2.5-39.75 20.625-74.5 0,0-10.974,26.628-16.875,74.75"/>
</g>
</g>
</g>
</g>
</g>
<g transform="matrix(.1645 0 0 -.16324 6.51046 90.49529)">
<g mask="url(#mask3695)">
<g>
<g clip-path="url(#clipPath3725)">
<g transform="translate(33.937 174.1846)">
<path fill="#fff" d="m0,0c0,0 19.959-51.526 65.609-87.589 0,0 44.475-40 120.363-51.772 0,0 26.921-3.331 34.835,1.335 0,0 8.584,.583 11.75,3.333 0,0-2.065,.331-4.813,.87 0,0-27.303-9.37-67.785,16.109 0,0-14.685,8.354-29.537,23.164 0,0-67.213,10.461-130.422,94.55"/>
</g>
</g>
</g>
</g>
</g>
<g transform="matrix(.1645 0 0 -.16324 6.51046 90.49529)">
<path fill="url(#radialGradient6422)" d="m187.52,352.375c0,0-24.064-21.749-24.036-57.791 0,0-1.714-28.958 21.66-53.833 0,0 24.251-30.086 70.166-30.041 0,0 34.084-2.209 64.178,24.603 0,0 26.91,21.188 26.91,59.98 0,0 2.621,28.832-22.753,55.957 0,0-25.001,28.567-69.078,28.545 0,0-.447,.022-1.282,.022-6.674,0-38.213-1.445-65.765-27.442"/>
</g>
<g transform="matrix(.1645 0 0 -.16324 6.51046 90.49529)">
<g mask="url(#mask3787)">
<g>
<g clip-path="url(#clipPath3817)">
<g transform="translate(222.21 356.0747)">
<path fill="#fff" d="m0,0c0,0-29.5-4.583-33-54.333 0,0-.081-18.999 6.833-22.499 0,0 3.834-1.167 3.417,6.333 0,0-1.083,10.501 .917,28.418 0,0 2.083,26.666 21.833,42.081"/>
</g>
</g>
</g>
</g>
</g>
<g transform="matrix(.1645 0 0 -.16324 6.51046 90.49529)">
<g mask="url(#mask3851)">
<g>
<g clip-path="url(#clipPath3881)">
<g transform="translate(259.3965 363.3457)">
<path fill="#fff" d="m0,0c0,0-18.313,1.938-29.688-4.125 0,0-9.312-5.188-15.062-14.125 0,0-2.063-5.375 3.062-4.125 0,0 8,7.312 17.125,12.875 0,0 10.063,6.187 24.563,9.5"/>
</g>
</g>
</g>
</g>
</g>
<g transform="matrix(.1645 0 0 -.16324 6.51046 90.49529)">
<g mask="url(#mask3917)">
<g>
<g clip-path="url(#clipPath3947)">
<g transform="translate(342.459 312.9082)">
<path fill="#fff" d="m0,0c0,0-12.5,61-81.375,66.5 0,0-49.375,6-81.375-38.626 0,0 27.833,33.543 76.834,34.958 0,0 65.333,2.918 85.916-62.832"/>
</g>
</g>
</g>
</g>
</g>
<g opacity=".3" transform="matrix(.1645 0 0 -.16324 6.51046 90.49529)">
<g mask="url(#mask3985)">
<g>
<g clip-path="url(#clipPath4015)">
<g>
<g>
<g>
<g>
<path fill="url(#radialGradient6424)" d="m185.145,240.751c0,0 24.25-30.086 70.166-30.041 0,0 34.084-2.209 64.177,24.603 0,0 26.91,21.188 26.91,59.98 0,0 2.622,28.832-22.753,55.957 0,0-25,28.567-69.079,28.545 0,0-36.046,1.83-67.046-27.42 0,0-24.064-21.75-24.036-57.791 0,0-1.714-28.958 21.661-53.833"/>
</g>
</g>
</g>
</g>
</g>
</g>
</g>
</g>
<g transform="matrix(.1645 0 0 -.16324 6.51046 90.49529)">
<g mask="url(#mask4069)">
<g>
<g clip-path="url(#clipPath4099)">
<g>
<g>
<g>
<g>
<path opacity=".5" fill="url(#linearGradient6426)" d="m176.834,320.471c0,0-5.875-37.75 11.25-49.063 0,0 16.5-53.125 84.625-27.812 0,0-11-11.313-12.75-21.063 0,0-34.75-5.625-59.25,10.75 0,0-36.375,24.625-23.875,87.188"/>
</g>
</g>
</g>
</g>
</g>
</g>
</g>
</g>
<g transform="matrix(.1645 0 0 -.16324 6.51046 90.49529)">
<g opacity=".15" clip-path="url(#clipPath4131)">
<g transform="translate(182.7368 275.4937)">
<path fill="#fff" d="m0,0c0,0 2.597-3.117 5.347-4.085 0,0 16.5-53.125 84.625-27.813 0,0-2.623-2.697-5.511-6.593 0,0-66.989-24.677-84.461,38.491"/>
</g>
</g>
</g>
<g transform="matrix(.1645 0 0 -.16324 6.51046 90.49529)">
<g opacity=".4" clip-path="url(#clipPath4147)">
<g transform="translate(176.834 320.4707)">
<path fill="#fff" d="m0,0c0,0-5.875-37.75 11.25-49.063 0,0-17.875,5.5-11.25,49.063"/>
</g>
</g>
</g>
<g mask="url(#mask4181)" transform="matrix(.1645 0 0 -.16324 6.51046 90.49529)">
<g>
<g clip-path="url(#clipPath4211)">
<g>
<g>
<g>
<g>
<path opacity=".5" fill="url(#linearGradient6428)" d="m310.584,343.158c0,0 35.125-45-10.813-86 0,0-13.062-7.75-15.423-31.722 0,0 103.695,48.722 26.236,117.722"/>
</g>
</g>
</g>
</g>
</g>
</g>
</g>
<g transform="matrix(.1645 0 0 -.16324 6.51046 90.49529)">
<g opacity=".15" clip-path="url(#clipPath4243)">
<g transform="translate(326.7637 325.7793)">
<path fill="#fff" d="m0,0c0,0-5.93,8.316-16.18,17.379 0,0 41.25-45.188-12.437-88.875 0,0 44.645,5.458 28.617,71.496"/>
</g>
</g>
</g>
<g transform="matrix(.1645 0 0 -.16324 6.51046 90.49529)">
<g opacity=".4" clip-path="url(#clipPath4259)">
<g transform="translate(310.584 343.1582)">
<path fill="#fff" d="m0,0c0,0 35.125-45-10.813-86 0,0 48.938,35.25 10.813,86"/>
</g>
</g>
</g>
<g transform="matrix(.1645 0 0 -.16324 6.51046 90.49529)">
<g mask="url(#mask4293)">
<g>
<g clip-path="url(#clipPath4323)">
<g transform="translate(306.876 364.4912)">
<path opacity=".5" d="m0,0c0,0-6.917,1-15.5-3.167 0,0-8.167-1.916-12.25,.584 0,0-30.75,17.916-67.416-4.417 0,0-18.916-7.667-27.832-15.333 0,0 46.664,63.499 122.998,22.333"/>
</g>
</g>
</g>
</g>
</g>
<g transform="matrix(.1645 0 0 -.16324 6.51046 90.49529)">
<g opacity=".4" clip-path="url(#clipPath4339)">
<g transform="translate(279.126 361.9077)">
<path fill="#fff" d="m0,0c0,0-30.75,17.917-67.416-4.417 0,0 31.249,23.917 67.416,4.417"/>
</g>
</g>
</g>
</svg>
