<svg xmlns="http://www.w3.org/2000/svg" viewBox="0 0 96 96" xmlns:xlink="http://www.w3.org/1999/xlink">
<defs>
<clipPath id="clipPath2977">
<path fill="#fff" d="m-28,6c-3.324,0-6,2.676-6,6v33.2188c2.1857,.1226 4.5637,.2381 5.75,.4375 .6456,.1085-.1083,.2421-1.125,.3438-1.0167,.1017-2.3136,.1974-2.8125,.2812-.6077,.1022-1.2007,.1551-1.8125,.25v1.0312c.3715,.0356 .6922,.0312 .9062,.0312 .79,0 1.1323,.2198 1.2812,.5625 .149,.3427 .0938,.8151 .0938,1.375 0,.4198-.9158,.6714-1.125,1.375-.0748,.2515-.618,.5109-1.1562,.75v2.1875c.7185,.0247 1.4116,.0597 1.8125,.3125 .2752,.1735-.7686,.3763-1.8125,.5625v7.5c1.1115,.1782 3.2316,.896 3.875,1.0312 1.0648,.2238 1.1853,.336 .8438,.4375-.3416,.1015-1.1303,.1768-1.9375,.3125-.9553,.1606-1.8942,.4569-2.7812,.6562v19.3438c0,3.324 2.676,6 6,6h12.5625c.0932-.4331 .1533-.9059 .25-1.4062 .1371-.7091 .2265-1.3446 .3438-1.5938 .0293-.0623 .059-.1142 .0938-.125 .1043-.0325 .2436,.1989 .4688,.7812 .2973,.7687 .5123,1.6241 .6562,2.3438h.75c.2697-.4879 .5527-1.1108 .7812-1.4062 .0968-.1251 .2812,.1031 .5312,.3438 .2501,.2406 .5658,.4851 .9062,.375 .6335-.2048 1.5815-.6982 2-.9688 .1366-.0883 .2714-.1583 .375-.1875 .1036-.0292 .1761-.0175 .25,0 .1478,.0351 .2348,.1462 .3438,.2812 .2179,.2702 .4494,.625 1.0312,.625 .4672,0 .6601-.0314 .7812,.0625 .1212,.0939 .1707,.3211 .375,.875h8.6875c-.0467-.5869 1.0134-2.131 1.1875-3.0312 .1865-.9645 .2156-1.2091 .2812-1.0312 .0656,.1778 .1677,.771 .4375,1.4688 .1079,.279 .2162,.3573 .3125,.2812 .0963-.0761 .1708-.2971 .25-.5625 .1584-.5308 .287-1.269 .3438-1.5625 .1281-.6624 .0973-1.7611 .0938-2.25-.0009-.1222-.0058-.2182 0-.25 .0174-.0954 .0853,.2959 .2812,1.5625 .16,1.0345 .5517,2.667 .7188,3.5312 .1658,.8578 .2694,1.2974 .375,1.8438h27.5625c.0379-.4891 .0358-1.0721 .0625-1.4688 .02-.2975 .0686-.4868 .1562-.4688 .0292,.006 .0518,.0395 .0938,.0938 .228,.2948 .6072,1.142 .9375,1.8438h7.7188c3.324,0 6-2.676 6-6v-7.0625c-.1655,.0045-.295,0-.5,0-1.2994,0-2.5756,0-3.875,0-1.198,0-1.996-.0017-2.1875-.0625-.1915-.0608 .2305-.1869 1.4375-.5 .6398-.166 3.2618-.9017 5.125-1.3125v-37.9688c-.6376-.2632-1.1884-.4936-1.7188-.9062-.1392-.1083-.4297-.3632-.9375-.5312-.5078-.168-1.2351-.2539-2.2188-.0625-1.4978,.2914-1.6442,.282-1.2188,.1562 .4255-.1257 1.4243-.3828 2.1875-.5312 1.1259-.219 2.6582-1.1805 3.9062-1.8125v-4.5312c-.6821-.2549-1.3986-.533-1.7188-1.0312-.2048-.3188-.2902-.5143-.2812-.625 .0089-.1107 .1045-.1496 .2188-.1875 .1143-.0379 .2637-.0557 .375-.1562 .1113-.1006 .1875-.2952 .1875-.5938 0-.3191 .082-.8619 .0625-1.375-.0097-.2565-.0377-.4995-.125-.6875-.0873-.188-.2242-.3335-.4375-.375-.5612-.1092-.8182-.235-.875-.3438-.0568-.1088 .0769-.1905 .2812-.2812 .4086-.1816 1.1011-.3082 1.0938-.3125-.6531-.3812-5.1164-.9218-4.875-.9688 .3248-.0632 .6439-.1243 .9688-.1875 1.0233-.1991 2.3697-.3122 3.6562-.5625 .5599-.1089 .8855-.2528 1.0938-.4375 .2083-.1847 .2961-.3944 .375-.5938v-8.1562c0-3.324-2.676-6-6-6h-50.0312c.0943,1.3811 .1947,2.919-.0938,2.1562-.2055-.5435-.3257-1.1128-.5312-1.6562-.052-.1375-.0975-.3315-.1562-.5h-1.9688c-.2351,.4865-.4573,.9734-.7812,1.1875-.4951,.3273-.7603,.4623-1,.375-.2397-.0873-.4541-.4012-.8125-.875-.1599-.2115-.4419-.4345-.75-.6875h-6.6562l-1.2812,5.5-1.6875-5.5h-.2188l-1.7188,8.8438-1.375-8.8438h-2.9375z"/>
</clipPath>
<filter width="2.327" x="-.664" y="-.038" height="1.076" color-interpolation-filters="sRGB" id="filter3526">
<feGaussianBlur stdDeviation=".98809"/>
</filter>
<filter color-interpolation-filters="sRGB" id="filter3325">
<feGaussianBlur stdDeviation="2.32"/>
</filter>
<filter width="1.384" x="-.192" y="-.192" height="1.384" color-interpolation-filters="sRGB" id="filter3794">
<feGaussianBlur stdDeviation="5.28"/>
</filter>
<filter color-interpolation-filters="sRGB" id="filter3751">
<feGaussianBlur stdDeviation=".7938"/>
</filter>
<filter color-interpolation-filters="sRGB" id="filter3905">
<feGaussianBlur stdDeviation=".59518"/>
</filter>
<linearGradient gradientTransform="matrix(1 0 0 1.11607 .0625 -9.99867)" id="linearGradient3969" xlink:href="#linearGradient3581" y1="95.799" y2="108.343" x2="0" gradientUnits="userSpaceOnUse"/>
<linearGradient id="linearGradient3977" xlink:href="#linearGradient3509" x1="131.291" x2="153.85" gradientUnits="userSpaceOnUse"/>
<linearGradient id="linearGradient3975" xlink:href="#linearGradient3501" x1="131.291" x2="153.85" gradientUnits="userSpaceOnUse"/>
<linearGradient id="linearGradient3979" xlink:href="#linearGradient3411" x1="140" x2="150" gradientUnits="userSpaceOnUse"/>
<linearGradient gradientTransform="matrix(-1 0 0 1.11607 289.71406 -9.99867)" id="linearGradient3971" xlink:href="#linearGradient3581" y1="95.799" y2="108.343" x2="0" gradientUnits="userSpaceOnUse"/>
<linearGradient id="linearGradient3973" xlink:href="#BlackTransparent" y1="97.697" y2="99.775" x2="0" gradientUnits="userSpaceOnUse"/>
<linearGradient gradientTransform="matrix(1.24721 0 0 1 -35.86218 0)" id="linearGradient3983" xlink:href="#BlackTransparent" x1="141" x2="149" gradientUnits="userSpaceOnUse"/>
<linearGradient gradientTransform="translate(0 1)" id="linearGradient2946" xlink:href="#ButtonShadow" y1="90" y2="5.988" x2="0" gradientUnits="userSpaceOnUse"/>
<linearGradient id="linearGradient2969" xlink:href="#linearGradient3187" y1="90" y2="5.988" x2="0" gradientUnits="userSpaceOnUse"/>
<linearGradient gradientTransform="scale(.70711 1.41421)" id="linearGradient3981" xlink:href="#linearGradient3737" x1="197.99" x2="212.132" gradientUnits="userSpaceOnUse"/>
<linearGradient gradientTransform="translate(-40)" id="linearGradient2908" xlink:href="#linearGradient3737-0" y1="20.221" y2="138.661" x2="0" gradientUnits="userSpaceOnUse"/>
<linearGradient gradientTransform="matrix(1.24721 0 0 -1 -35.86218 164.98438)" id="linearGradient3985" xlink:href="#linearGradient3581" x1="141" x2="149" gradientUnits="userSpaceOnUse"/>
<linearGradient gradientTransform="matrix(.93219 -.36196 .36196 .93219 -40.79504 -6.69518)" id="linearGradient3873" xlink:href="#linearGradient3674" y1="106.709" x1="57.901" y2="49.359" x2="114.439" gradientUnits="userSpaceOnUse"/>
<linearGradient id="linearGradient3737-0">
<stop offset="0" stop-color="#fff"/>
<stop offset="1" stop-color="#fff" stop-opacity="0"/>
</linearGradient>
<linearGradient gradientTransform="matrix(.3857 .79852 .88419 -.16515 -36.61256 11.16589)" id="linearGradient3707" xlink:href="#linearGradient3599" y1="96.263" x1="62.75" y2="82.75" x2="49" gradientUnits="userSpaceOnUse"/>
<linearGradient gradientTransform="matrix(1.02381 0 0 1.0119 -1.14286 .92857)" id="linearGradient3727" xlink:href="#ButtonShadow" y1="90" y2="5.988" x2="0" gradientUnits="userSpaceOnUse"/>
<linearGradient id="linearGradient3581">
<stop offset="0" stop-color="#fff"/>
<stop offset="1" stop-color="#fff" stop-opacity="0"/>
</linearGradient>
<linearGradient id="linearGradient3187">
<stop offset="0" stop-color="#bd9c5b"/>
<stop offset="1" stop-color="#fadd96"/>
</linearGradient>
<linearGradient id="BlackTransparent" gradientUnits="userSpaceOnUse">
<stop offset="0"/>
<stop offset="1" stop-opacity="0"/>
</linearGradient>
<linearGradient id="linearGradient3501">
<stop offset="0" stop-color="#9a3030"/>
<stop offset="1" stop-color="#5b1c1c"/>
</linearGradient>
<linearGradient id="linearGradient3674">
<stop offset="0"/>
<stop offset="1" stop-opacity="0"/>
</linearGradient>
<linearGradient id="linearGradient3509">
<stop offset="0" stop-color="#ad1616"/>
<stop offset="1" stop-color="#4d0a0a"/>
</linearGradient>
<linearGradient id="linearGradient3411">
<stop offset="0" stop-color="#797979"/>
<stop offset=".219" stop-color="#a1a1a1"/>
<stop offset=".35" stop-color="#cdcdcd"/>
<stop offset=".472" stop-color="#9b9b9b"/>
<stop offset="1" stop-color="#373737"/>
</linearGradient>
<linearGradient id="linearGradient3599">
<stop offset="0" stop-opacity=".42"/>
<stop offset="1" stop-color="#98713b" stop-opacity="0"/>
</linearGradient>
<linearGradient gradientTransform="scale(1.00587 .99417)" id="ButtonShadow" y1="92.54" y2="7.017" x2="0" gradientUnits="userSpaceOnUse">
<stop offset="0"/>
<stop offset="1" stop-opacity=".588"/>
</linearGradient>
<linearGradient gradientTransform="matrix(.76699 0 0 .76699 -.81451 -3.73927)" id="linearGradient3701" xlink:href="#linearGradient3599" y1="65.389" x1="41.531" y2="68.389" x2="62.394" gradientUnits="userSpaceOnUse"/>
<linearGradient gradientTransform="matrix(.76699 0 0 .76699 -.81451 -3.73927)" id="linearGradient3705" xlink:href="#linearGradient3599" y1="96.263" x1="62.75" y2="82.75" x2="49" gradientUnits="userSpaceOnUse"/>
<linearGradient gradientTransform="matrix(.76699 0 0 .76699 -.81451 -3.73927)" id="linearGradient3703" xlink:href="#linearGradient3581" y1="23.205" x1="59.71" y2="43.248" x2="74.153" gradientUnits="userSpaceOnUse"/>
<linearGradient gradientTransform="matrix(.76699 0 0 .76699 -.81451 -3.73927)" id="linearGradient3698" xlink:href="#linearGradient3599" y1="62.345" x1="66.3" y2="117.095" x2="83.324" gradientUnits="userSpaceOnUse"/>
<linearGradient id="linearGradient3651" xlink:href="#linearGradient3737" y1="6" y2="76.945" x2="0" gradientUnits="userSpaceOnUse"/>
<linearGradient id="linearGradient3737">
<stop offset="0" stop-color="#fff"/>
<stop offset="1" stop-color="#fff" stop-opacity="0"/>
</linearGradient>
<linearGradient gradientTransform="matrix(.70962 0 0 .70962 -.82103 .13622)" id="linearGradient3743" xlink:href="#linearGradient3674" y1="132.692" x1="35.29" y2="71.475" x2="122.401" gradientUnits="userSpaceOnUse"/>
<radialGradient cx="48" cy="90.172" gradientTransform="matrix(1.15731 0 0 .99591 -7.55102 .19713)" r="42" id="radialGradient3720" gradientUnits="userSpaceOnUse">
<stop offset="0" stop-color="#fff"/>
<stop offset="1" stop-color="#fff" stop-opacity="0"/>
</radialGradient>
</defs>
<path opacity=".08" fill="url(#linearGradient3727)" d="m23.8438,4c-1.2986-.0201-2.628,.004-4,.1875a.9989,.9989 0 0,0 -.0312,.0312c.0027-.0005-.1589,.0007-.1562,0 .0018-.0005-.0546,.02-.0938,.0312-.0168,.0048-.032,.0315-.0312,.0312-.2486,.0784-.3405,.2692-.5312,.4062-.2764-.1948-.4744-.463-.8438-.5625-.7603-.2048-1.5296-.092-2.2188,.25 .0017-.0008-.0642,.0321-.0625,.0312 .0017-.0009-.0954,.0635-.0938,.0625 .0016-.001-.0953,.0636-.0938,.0625-.3696-.2261-.7961-.3998-1.25-.4688a.9989,.9989 0 0,0 -.0938,0c.0026,.0002-.1276,0-.125,0 .0013,0-.0286-.0012-.0625,0h-.0625-2.0625-.0312c-6.1282-.1594-10.6129,5.6464-9.9375,11.4375 .0049,.0423-.0055,.0827 0,.125 .0357,10.4036-.0646,20.8119 .0625,31.25 .0005,.0418-.0005,.0832 0,.125 .0001-.0023 0,.1273 0,.125 0-.0023 .0001,.096 0,.0938 0-.0009-.0002,.0092 0,.0312-.0007,.0104 .0012,.0149 0,.0312 .0027,.0296 .0001,.0636 0,.0625-.005,.0635-.0232,.1204-.0312,.2188-.0206,.252-.0439,.5929-.0625,.9688-.0221,.4484-.0011,1.0434 .25,1.6562 .1489,.3634 .561,.534 .8438,.8125-.0213,.0139-.0321,.0318-.0312,.0312 .0016-.0011-.0953,.0324-.0938,.0312 .0015-.0012-.064,.0638-.0625,.0625 .0015-.0013-.0952,.0951-.0938,.0938 .0014-.0014-.0638,.0639-.0625,.0625 .0013-.0014-.0638,.064-.0625,.0625 .0013-.0015-.0637,.0953-.0625,.0938 .0012-.0016-.0636,.0641-.0625,.0625 .0011-.0016-.0635,.0954-.0625,.0938 .001-.0017-.0322,.0955-.0312,.0938 .0009-.0017-.0633,.0955-.0625,.0938 .0008-.0018-.032,.0956-.0312,.0938 .0007-.0018-.0319,.0956-.0312,.0938-.7568,2.3587-.1746,4.4957-.3125,5.625a.9989,.9989 0 0,0 0,.0312c.0003-.0033 0,.1908 0,.1875 0-.0026-.0018,.0826 0,.125 .0005,.0106 .0001,.0319 0,.0312 .1152,1.8557-.3492,4.284 .2188,6.9062-.0006-.0026 .032,.1588 .0312,.1562-.0004-.0013 .0191,.0281 .0312,.0625-.012,.0293-.0317,.0637-.0312,.0625 .001-.0029-.032,.1279-.0312,.125 .0008-.0029-.0318,.1592-.0312,.1562a.9989,.9989 0 0,0 -.0312,.0625c-.4415,3.1091-.0453,6.1189-.1562,8.7188 .0001-.0026 .0001,.1276 0,.125 .1505,4.1719-.4097,8.7118 .375,13.375a.9989,.9989 0 0,0 .0312,.0938c-.0004-.0015 .0229,.066 .0312,.0938 .0026,.0086 .0002,.0317 0,.0312-.0007-.002 .032,.0957 .0312,.0938h.0312c1.4885,5.1038 6.8091,7.4236 11.5312,6.9062 .0103-.0011 .021,.0012 .0312,0 .0197-.0005 .0428,.0005 .0625,0 3.3161-.0773 6.8865,.1913 10.5-.125-.0007,0 .0142,.0015 .0312,0 .0342-.003 .064-.0002 .0625,0-.0022,.0003 .1272-.0316 .125-.0312-.0012,.0002 .0325-.0249 .0625-.0312 .0945,.0446 .1363,.0866 .25,.125 .3429,.1158 .7045,.008 1.0625-.0312a.9989,.9989 0 0,0 .6875,0c.0322-.0105 .0425-.0245 .0625-.0312 .0086-.0029 .0216,.0032 .0312,0 1.5648-.5191 2.0762-.8336 3.5938-1.0938-.0021,.0003 .1271-.0317 .125-.0312-.0021,.0005 .0958-.0318 .0938-.0312-.0021,.0006 .0958-.032 .0938-.0312-.002,.0007 .127-.0321 .125-.0312-.002,.0008 .0957-.0634 .0938-.0625-.0019,.0009 .0956-.0323 .0938-.0312-.0019,.001 .0955-.0636 .0938-.0625 .0025,.0016 .0286-.0017 .0312,0 .2324,.1497 .8618,.7817 1.8125,1.2812a.9989,.9989 0 0,0 .0312,.0312c-.0021-.0011 .0959,.0322 .0938,.0312-.0022-.0009 .1272,.0633 .125,.0625-.0022-.0008 .096,.0319 .0938,.0312-.0023-.0006 .1273,.0318 .125,.0312-.0023-.0005 .1273,.0003 .125,0-.0023-.0003 .1274,.0315 .125,.0312-.0024-.0002 .1274,0 .125,0-.0024-0 .0961-.0001 .0938,0 2.995-.0806 6.2149,.2184 9.5625-.125-.0006,0 .0221,.001 .0312,0 .0386-.004 .1274-.0316 .125-.0312-.003,.0004 .1592-.0319 .1562-.0312-.003,.0007 .1592-.0322 .1562-.0312-.0029,.0009 .1278-.0637 .125-.0625-.0028,.0012 .159-.0639 .1562-.0625-.0027,.0014 .1276-.0641 .125-.0625-.0026,.0016 .1275-.0956 .125-.0938-.0025,.0018 .1273-.0958 .125-.0938a.9989,.9989 0 0,0 .0312-.0312c.2069-.1964 .2627-.3903 .4062-.5938 .2286,.3061 .3874,.6425 .7812,.875 .4918,.2904 .9845,.2281 1.4688,.2188a.9989,.9989 0 0,0 .4375,.125c.065-.0003 .1382,.0003 .2188,0 9.2324-.0346 18.4779,.0653 27.75-.0625-.0013-.0001 .0286-.0012 .0625,0 .0339,.0012 .0638,0 .0625,0-.0026,0 .1276-.0002 .125,0a.9989,.9989 0 0,0 .0938,0c-.0598,.0091 .3609,.017 .875,.0625 .5141,.0455 1.1848,.0883 1.9062,0 .0451-.0004 .1106,.0002 .1562,0 1.7711-.007 3.883,.179 6.0625-.125 2.2686-.3165 4.6773-1.2853 6.375-3.5h.0312c.0044-.0058-.0044-.0254 0-.0312h.0312c1.6682-2.0594 2.1449-4.4555 2.25-6.6562 .1057-2.212-.1311-4.339-.0625-6.0938-.0001,.0019-0-.0956 0-.0938 0,.0019-.0001-.0956 0-.0938 .0001,.0019-.0002-.0956 0-.0938 .0002,.0019-.0315-.0956-.0312-.0938 .0003,.0019-.0004-.0956 0-.0938 .0004,.0018-.0317-.0956-.0312-.0938 .0005,.0018-.0318-.0955-.0312-.0938 .0006,.0018-.0319-.0955-.0312-.0938 .0007,.0018-.032-.0955-.0312-.0938 .0005,.001-.0193-.0058-.0312-.0312 .0822-.1889 .1391-.181 .1875-.4375a.9989,.9989 0 0,0 .0312-.0938c-.0003,.0033 0-.1908 0-.1875 0,.0013 .0014-.0301 0-.0625-.0001-.0312 .0001-.0625 0-.0938-.0293-12.8521 .0733-25.7155-.0312-38.5938-0,.0006 .0001-.0217 0-.0312-.0004-.0382-.0001-.1273 0-.125 .0001,.0029-.0316-.1592-.0312-.1562 .0004,.0029-.0006-.1279 0-.125 .0006,.0029-.0321-.1591-.0312-.1562 .0008,.0028-.0636-.1277-.0625-.125 .0011,.0027-.0638-.1589-.0625-.1562 .0013,.0027-.064-.1275-.0625-.125 .0015,.0025-.0954-.1274-.0938-.125a.9989,.9989 0 0,0 0-.0312c-.1265-.169-.2415-.2073-.375-.3438 .0302-.0393 .0952-.0959 .0938-.0938-.002,.0028 .0954-.1592 .0938-.1562 .6854-1.1976 .6722-2.4565 .625-3.375-.0474-.922-.1151-1.6819-.0625-2.0312a.9989,.9989 0 0,0 -.0312-.375 .9989,.9989 0 0,0 0-.0312c.0998-.5713 .109-1.1536-.25-1.75-.3832-.6366-.8898-.9741-1.1562-1.1562 .2208-1.6481-.2174-3.0916-.375-3.625-.0975-.3299-.0173-.2309-.125,0-.1274,.2731-.1852,.0922 .4688-.1562a.9989,.9989 0 0,0 .0312,0c-.0021,.0008 .0958-.0635 .0938-.0625-.002,.001 .1269-.0636 .125-.0625-.0019,.0011 .0956-.0324 .0938-.0312-.0019,.0012 .0956-.0638 .0938-.0625-.0018,.0013 .0955-.0952 .0938-.0938-.0017,.0014 .0641-.064 .0625-.0625-.0016,.0015 .0953-.0954 .0938-.0938-.0015,.0016 .0639-.0642 .0625-.0625-.0014,.0017 .0951-.0955 .0938-.0938-.0013,.0018 .0637-.0956 .0625-.0938-.0012,.0019 .0636-.0957 .0625-.0938-.0011,.0019 .0323-.0957 .0312-.0938-.001,.002 .0634-.127 .0625-.125-.0009,.002 .032-.0958 .0312-.0938-.0008,.0021 .0319-.0959 .0312-.0938-.0005,.0016 .0233-.0635 .0312-.0938 .0024-.0093 .0001-.0318 0-.0312 .7258-2.7054 .184-5.2129 .3125-7.0312 .0123-.1747 .0109-.2042 0-.0625 .7778-6.042-4.2071-11.9253-10.5-11.4375 .0315-.0024-.0426,.0017-.0312,0 .0342-.0052 .0535-.0131-.0938,0-17.5924,.0297-35.2261-.0755-52.8125,.0312 .0019,0-.0957,.0001-.0938,0 .0019-.0001-.0957,.0002-.0938,0 .0019-.0002-.0956,.0315-.0938,.0312 .0019-.0003-.0956,.0004-.0938,0 .0019-.0004-.0956,.0317-.0938,.0312 .0019-.0005-.0956,.0318-.0938,.0312 .0018-.0006-.0955,.0319-.0938,.0312 .0018-.0007-.0955,.032-.0938,.0312 .0018-.0008-.0955,.0321-.0938,.0312 .0017-.0008-.0954,.0634-.0938,.0625 .0017-.0009-.0641,.0323-.0625,.0312 .0016-.001-.0953,.0636-.0938,.0625 .0016-.0011-.064,.0637-.0625,.0625 .0015-.0012-.0952,.0638-.0938,.0625 .0014-.0013-.0639,.0638-.0625,.0625 .0014-.0013-.0638,.0639-.0625,.0625-.0182,.0197-.0135,.0124-.0312,.0312-.1043-.0809-.1509-.1077-.2812-.2188a.9989,.9989 0 0,0 -.0312-.0312c.0026,.002-.159-.0956-.1562-.0938 .0028,.0018-.1279-.0953-.125-.0938 .0029,.0015-.1593-.0638-.1562-.0625 .0031,.0013-.1594-.0635-.1562-.0625 .0032,.001-.1907-.0632-.1875-.0625 .0032,.0007-.1595-.0317-.1562-.0312 .0033,.0004-.1596-.0001-.1562,0 .0028,.0001-.1176-.0002-.1562,0-.0097,.0003-.0216-.0003-.0312,0-1.1327,.0328-2.3648-.0425-3.6562-.0625z"/>
<path opacity=".1" fill="url(#linearGradient3727)" d="m23.8438,5c-1.2707-.0197-2.5734,.0134-3.875,.1875a.8876,.8876 0 0,0 -.125,.0312c-.4024,.1166-.6377,.3574-.8125,.625-.2683-.3258-.6424-.62-1.125-.75-.4826-.13-1.0396-.0564-1.5312,.1875a.8876,.8876 0 0,0 -.1562,.0938c-.2143,.1707-.2989,.39-.4375,.5938-.3077-.4532-.8699-.8106-1.5-.9062a.8876,.8876 0 0,0 -.125,0h-2.125-.0312c-5.532-.1625-9.6186,5.1857-8.9375,10.4375 .0001,.0417-.0001,.0833 0,.125 .0358,10.4541-.0667,20.9097 .0625,31.375a.8876,.8876 0 0,0 0,.2188c.0106,.0416-.0584,.6589-.0938,1.375-.0177,.3581 .0099,.7854 .1875,1.2188 .1776,.4333 .5651,.8459 1.0625,1.0625a.8876,.8876 0 0,0 .375,.0625c.146-.0047 .056-.0104 .1562,0-.3286,.3112-.757,.7144-1,.8125a.8876,.8876 0 0,0 -.5,.5312c-.6471,2.0169-.0686,3.9512-.25,5.4375a.8876,.8876 0 0,0 0,.1562c.1346,2.0574-.3284,4.3993 .1875,6.7812a.8876,.8876 0 0,0 .25,.4375 .8876,.8876 0 0,0 0,.0312 .8876,.8876 0 0,0 -.2812,.5c-.4165,2.9332-.04,5.9024-.1562,8.625a.8876,.8876 0 0,0 0,.0625c.1543,4.2798-.3787,8.7705 .375,13.25a.8876,.8876 0 0,0 .0312,.0938c1.2821,4.6661 6.1536,6.7724 10.5312,6.2812 .0207-.0023 .0418,.0024 .0625,0 3.4221-.0863 7.0158,.1889 10.5625-.125a.8876,.8876 0 0,0 .4062-.125c.1285,.0846 .2576,.1681 .5,.25 .3077,.1039 .73,.0958 1.125-.0625v.0312c.0389-.0127 .056-.0187 .0938-.0312 1.4993-.4974 2.1254-.8777 3.75-1.1562a.8876,.8876 0 0,0 .375-.1562c.2452-.1798 .3495-.1922 .4688-.1875 .1193,.0047 .3054,.0514 .5312,.1875 .4518,.2722 1.0131,.8612 1.8125,1.2812a.8876,.8876 0 0,0 .4375,.0938c3.0867-.0831 6.2991,.2106 9.5312-.125a.8876,.8876 0 0,0 .5312-.2188c.7413-.7036 .8867-1.5443 1.0625-1.9062 .0563-.1158 .0935-.1221 .125-.1562 .0754,.3902 .0721,.7275 .2812,1.1562 .1872,.3837 .455,.7648 .9062,1.0312 .3904,.2305 .909,.2608 1.4062,.1875v.0312c.0729-.0003 .1459,.0003 .2188,0 9.263-.0347 18.536,.0663 27.8125-.0625a.8876,.8876 0 0,0 .125,0c.4834-.0731 1.5946,.2115 2.8125,.0625 .0541-.0066 .0704,.0085 .125,0 1.8702-.0181 4.0077,.166 6.0938-.125 2.1153-.2951 4.2422-1.1355 5.75-3.125 .0095-.0116 .0218-.0196 .0312-.0312 1.4877-1.8367 1.9313-4.0008 2.0312-6.0938 .1006-2.1062-.1355-4.1947-.0625-6.0625a.8876,.8876 0 0,0 -.25-.6562c-.0385-.037-.0161-.0126-.0312-.0312 .0652-.1096 .2231-.307 .3125-.7812a.8876,.8876 0 0,0 0-.1562c-.0301-12.9005 .0739-25.8096-.0312-38.7188a.8876,.8876 0 0,0 -.1562-.5312c-.3706-.495-.8179-.8125-1.1875-1.0625-.0184-.0124-.0132-.0191-.0312-.0312 .1912-.087 .1617-.079 .4688-.1875a.8876,.8876 0 0,0 .5-.4062c.5343-.9335 .5448-1.9414 .5-2.8125-.0448-.8711-.1519-1.6563-.0625-2.25h-.0625c.1576-.5309 .1755-1.1047-.0625-1.5-.2726-.4529-.6296-.685-.9062-.875-.2075-.1425-.301-.225-.375-.2812 .525-1.6336-.1369-3.0381-.375-3.8438-.124-.4195-.1151-.606-.0625-.7188 .0526-.1127 .2567-.362 1.0312-.6562a.8876,.8876 0 0,0 .5312-.625c.6603-2.4282 .1364-4.8257 .2812-6.875 .0014-.0193-.0015-.0432 0-.0625 .7362-5.4377-3.792-10.8126-9.4375-10.375-.0319,.0025-.0618-.0028-.0938,0-17.6286,.0302-35.2967-.0757-52.9062,.0312a.8876,.8876 0 0,0 -.6562,.2812c-.2988,.323-.5022,.5325-.625,.625-.1228,.0925-.0904,.0604-.0312,.0625 .1184,.0043-.2815-.1741-1.0312-.8125a.8876,.8876 0 0,0 -.5938-.1875c-1.2059,.037-2.448-.0428-3.7188-.0625z"/>
<path opacity=".2" fill="url(#linearGradient3727)" d="m12,5.9375c-4.9901-.1657-8.7505,4.7868-8.0625,9.5496 .0371,10.5036-.0741,21.023 .0554,31.5168 .2224,.8716-.6238,2.5071 .6362,3.0558 2.9823-.0955 .6743,2.0281-.4795,2.4941-.5375,1.6754 0,3.508-.2121,5.2458 .1446,2.2097-.2776,4.5374 .187,6.6824 1.2321,.9063 1.1126,.3352-.0262,1.2831-.3937,2.7727-.0403,5.6862-.1609,8.5098 .1576,4.3702-.3636,8.809 .3623,13.1233 1.1514,4.1904 5.644,6.141 9.683,5.6643 3.5027-.0928 7.0659,.1803 10.5336-.1266 .5129-.8446 1.0059,.5411 1.8543,.1266 1.5182-.4947 2.222-.9017 3.9852-1.204 1.4876-1.0907 2.5017,.556 3.7243,1.1984 3.1559-.0849 6.3792,.1934 9.4963-.1302 1.0264-.9742 .5562-2.6047 2.4234-2.4266 .1383,.9669 .3855,2.9551 1.9644,2.5625 9.3445-.0372 18.7048,.0742 28.0394-.0554 .8491-.1285 1.9622,.2087 2.9477,.0554 3.9116-.0541 8.581,.661 11.2705-2.9332 2.7029-3.3002 1.6514-7.7482 1.8047-11.6672-.6886-.662-.111-.8085 .0358-1.5871-.0301-12.9067 .0601-25.8247-.045-38.7243-1.1024-1.4725-3.5584-1.492-.2862-2.6483 .793-1.3855 .099-3.2072 .3312-4.7493 .6771-1.5306-1.9932-1.6685-1.3654-2.6653 1.0293-2.6965-2.4176-4.5967 1.1188-5.9402 .5894-2.1672 .0733-4.54 .2466-6.7836 .7032-4.921-3.4587-9.8805-8.5582-9.4266-17.6643,.0308-35.3761-.0613-53.0097,.0457-1.2336,1.3333-1.3808,1.2514-2.8905-.0342-2.4966,.0765-5.0664-.2034-7.5242,.1253-.9107,.2638-.611,3.0395-1.0756,1.9851-.1303-1.094-.8502-2.6706-2.2085-1.9966-1.0495,.8361-.6608,2.4952-1.1083,3.6559-.4786-1.1862 .1711-3.5227-1.5312-3.7812-.7188,0-1.4375,0-2.1562,0z"/>
<path opacity=".45" fill="url(#linearGradient2946)" d="m12,7c-3.324,0-6,2.676-6,6v33.2188c2.1857,.1226 4.5637,.2381 5.75,.4375 .6456,.1085-.1083,.2421-1.125,.3438-1.0167,.1017-2.3136,.1974-2.8125,.2812-.6077,.1022-1.2007,.1551-1.8125,.25v1.0312c.3715,.0356 .6922,.0312 .9062,.0312 .79,0 1.1323,.2198 1.2812,.5625 .149,.3427 .0938,.8151 .0938,1.375 0,.4198-.9158,.6714-1.125,1.375-.0748,.2515-.618,.5109-1.1562,.75v2.1875c.7185,.0247 1.4116,.0597 1.8125,.3125 .2752,.1735-.7686,.3763-1.8125,.5625v7.5c1.1115,.1782 3.2316,.896 3.875,1.0312 1.0648,.2238 1.1853,.336 .8438,.4375-.3416,.1015-1.1303,.1768-1.9375,.3125-.9553,.1606-1.8942,.4569-2.7812,.6562v19.3438c0,3.324 2.676,6 6,6h12.5625c.0932-.4331 .1533-.9059 .25-1.4062 .1371-.7091 .2265-1.3446 .3438-1.5938 .0293-.0623 .059-.1142 .0938-.125 .1043-.0325 .2436,.1989 .4688,.7812 .2973,.7687 .5124,1.6241 .6562,2.3438h.75c.2697-.4879 .5527-1.1108 .7812-1.4062 .0968-.1251 .2812,.1031 .5312,.3438 .2501,.2406 .5658,.4851 .9062,.375 .6335-.2048 1.5815-.6982 2-.9688 .1366-.0883 .2714-.1583 .375-.1875 .1036-.0292 .1761-.0175 .25,0 .1478,.0351 .2348,.1462 .3438,.2812 .2179,.2702 .4494,.625 1.0312,.625 .4672,0 .6601-.0314 .7812,.0625 .1212,.0939 .1707,.3211 .375,.875h8.6875c-.0467-.5869 1.0134-2.131 1.1875-3.0312 .1865-.9645 .2156-1.2091 .2812-1.0312 .0656,.1778 .1677,.771 .4375,1.4688 .1079,.279 .2162,.3573 .3125,.2812 .0963-.0761 .1708-.2971 .25-.5625 .1584-.5308 .287-1.269 .3438-1.5625 .1281-.6624 .0973-1.7611 .0938-2.25-.0009-.1222-.0058-.2182 0-.25 .0174-.0954 .0853,.2959 .2812,1.5625 .16,1.0345 .5517,2.667 .7188,3.5312 .1658,.8578 .2694,1.2974 .375,1.8438h27.5625c.0379-.4891 .0358-1.0721 .0625-1.4688 .02-.2975 .0686-.4868 .1562-.4688 .0292,.006 .0518,.0395 .0938,.0938 .228,.2948 .6072,1.142 .9375,1.8438h7.7188c3.324,0 6-2.676 6-6v-7.0625c-.1655,.0045-.295,0-.5,0-1.2994,0-2.5756,0-3.875,0-1.198,0-1.996-.0017-2.1875-.0625-.1915-.0608 .2305-.1869 1.4375-.5 .6398-.166 3.2618-.9017 5.125-1.3125v-37.9688c-.6376-.2632-1.1884-.4936-1.7188-.9062-.1392-.1083-.4297-.3632-.9375-.5312-.5078-.168-1.2351-.2539-2.2188-.0625-1.4978,.2914-1.6442,.282-1.2188,.1562 .4255-.1257 1.4243-.3828 2.1875-.5312 1.1259-.219 2.6582-1.1805 3.9062-1.8125v-4.5312c-.6821-.2549-1.3986-.533-1.7188-1.0312-.2048-.3188-.2902-.5143-.2812-.625 .0089-.1107 .1045-.1496 .2188-.1875 .1143-.0379 .2637-.0557 .375-.1562 .1113-.1006 .1875-.2952 .1875-.5938 0-.3191 .082-.8619 .0625-1.375-.0097-.2565-.0377-.4995-.125-.6875-.0873-.188-.2242-.3335-.4375-.375-.5612-.1092-.8182-.235-.875-.3438-.0568-.1088 .0769-.1905 .2812-.2812 .4086-.1816 1.1011-.3082 1.0938-.3125-.6531-.3812-5.1164-.9218-4.875-.9688 .3248-.0632 .6439-.1243 .9688-.1875 1.0233-.1991 2.3697-.3122 3.6562-.5625 .5599-.1089 .8855-.2528 1.0938-.4375 .2083-.1847 .2961-.3944 .375-.5938v-8.1562c0-3.324-2.676-6-6-6h-50.0312c.0943,1.3811 .1947,2.919-.0938,2.1562-.2055-.5435-.3257-1.1128-.5312-1.6562-.052-.1375-.0975-.3315-.1562-.5h-1.9688c-.2351,.4865-.4574,.9734-.7812,1.1875-.4951,.3273-.7603,.4623-1,.375-.2397-.0873-.4541-.4012-.8125-.875-.1599-.2115-.4419-.4345-.75-.6875h-6.6562l-1.2812,5.5-1.6875-5.5h-.2188l-1.7188,8.8438-1.375-8.8438h-2.9375z"/>
<path opacity=".3" fill="url(#linearGradient3727)" d="m12,7c-3.878,0-7,3.122-7,7v32.6875c2.2378,.124 4.6605,.2357 5.875,.4375 .6609,.1098-.0841,.2408-1.125,.3438-1.0409,.1029-2.3955,.1964-2.9062,.2812-.6221,.1034-1.2173,.154-1.8438,.25v1.0625c.3804,.0361 .7184,.0312 .9375,.0312 .8088,0 1.16,.2157 1.3125,.5625 .1525,.3468 .0938,.8397 .0938,1.4062 0,.4248-.942,.663-1.1562,1.375-.0766,.2545-.6364,.508-1.1875,.75v2.2188c.7356,.025 1.4333,.0567 1.8438,.3125 .2817,.1756-.775,.4053-1.8438,.5938v7.5625c1.138,.1803 3.3101,.9257 3.9688,1.0625 1.0902,.2264 1.2247,.3348 .875,.4375-.3497,.1027-1.1736,.1752-2,.3125-.9781,.1625-1.9356,.4545-2.8438,.6562v18.6562c0,3.878 3.122,7 7,7h12c.0954-.4382 .151-.9312 .25-1.4375 .1404-.7175 .255-1.3416 .375-1.5938 .03-.063 .0582-.1141 .0938-.125 .1068-.0328 .2382,.192 .4688,.7812 .3043,.7779 .5402,1.6468 .6875,2.375h.75c.2762-.4937 .5785-1.1385 .8125-1.4375 .0991-.1266 .2752,.1315 .5312,.375 .256,.2435 .5889,.4864 .9375,.375 .6486-.2072 1.6028-.7262 2.0312-1 .1399-.0894 .3002-.158 .4062-.1875 .1061-.0295 .1743-.0177 .25,0 .1513,.0355 .2322,.1446 .3438,.2812 .2231,.2734 .4668,.6562 1.0625,.6562 .4783,0 .6572-.0325 .7812,.0625 .1241,.095 .1971,.3146 .4062,.875h8.875c-.0478-.5939 1.0405-2.1515 1.2188-3.0625 .1909-.976 .2141-1.2424 .2812-1.0625 .0672,.1799 .1925,.7939 .4688,1.5 .1104,.2823 .2139,.3582 .3125,.2812 .0986-.077 .1689-.2939 .25-.5625 .1622-.5371 .2856-1.2967 .3438-1.5938 .1311-.6703 .1287-1.7865 .125-2.2812-.0009-.1237-.0059-.2178 0-.25 .0178-.0966 .0807,.3121 .2812,1.5938 .1638,1.0468 .5477,2.6879 .7188,3.5625 .1698,.868 .2981,1.3221 .4062,1.875h28.2188c.0388-.495 .0352-1.0986 .0625-1.5 .0205-.3011 .0665-.487 .1562-.4688 .0299,.0061 .0508,.0388 .0938,.0938 .2334,.2983 .6306,1.1649 .9688,1.875h7.0312c3.878,0 7-3.122 7-7v-6.2188c-.1694,.0046-.2901,0-.5,0h-3.9688c-1.2266,0-2.0539-.001-2.25-.0625-.1961-.0615 .233-.1832 1.4688-.5 .655-.1679 3.3425-.9281 5.25-1.3438v-38.4062c-.6527-.2663-1.207-.4887-1.75-.9062-.1425-.1096-.4488-.3925-.9688-.5625-.5199-.17-1.2741-.2561-2.2812-.0625-1.5335,.2949-1.6856,.2835-1.25,.1562 .4356-.1272 1.4686-.381 2.25-.5312 1.1527-.2216 2.7222-1.2042 4-1.8438v-4.5625c-.6983-.258-1.4222-.5583-1.75-1.0625-.2097-.3226-.3216-.513-.3125-.625 .0091-.112 .133-.1491 .25-.1875 .117-.0384 .261-.0545 .375-.1562 .114-.1018 .1875-.2916 .1875-.5938 0-.3229 .0825-.8871 .0625-1.4062-.0099-.2596-.0356-.4972-.125-.6875-.0894-.1903-.2191-.333-.4375-.375-.5746-.1105-.8481-.2337-.9062-.3438-.0581-.1101 .0721-.1894 .2812-.2812 .4183-.1838 1.1325-.3394 1.125-.3438-.6687-.3857-5.2472-.9212-5-.9688 .3326-.0639 .6674-.1236 1-.1875 1.0476-.2014 2.4328-.3092 3.75-.5625 .5733-.1102 .9118-.2506 1.125-.4375 .2132-.1869 .2942-.4233 .375-.625v-7.3125c0-3.878-3.122-7-7-7h-50.375c.0966,1.3976 .2016,2.9594-.0938,2.1875-.2104-.55-.3208-1.1375-.5312-1.6875-.0532-.1391-.0961-.3295-.1562-.5h-2.0312c-.2407,.4923-.4496,.9708-.7812,1.1875-.5069,.3312-.7858,.4946-1.0312,.4062-.2454-.0884-.4768-.4268-.8438-.9062-.1637-.214-.4345-.4315-.75-.6875h-6.8125l-1.3125,5.5625-1.75-5.5625h-.2188l-1.75,8.9375-1.4062-8.9375h-2.1562z"/>
<path fill="url(#linearGradient2969)" d="m12,6c-3.324,0-6,2.676-6,6v33.2188c2.1857,.1226 4.5637,.2381 5.75,.4375 .6456,.1085-.1083,.2421-1.125,.3438-1.0167,.1017-2.3136,.1974-2.8125,.2812-.6077,.1022-1.2007,.1551-1.8125,.25v1.0312c.3715,.0356 .6922,.0312 .9062,.0312 .79,0 1.1323,.2198 1.2812,.5625 .149,.3427 .0938,.8151 .0938,1.375 0,.4198-.9158,.6714-1.125,1.375-.0748,.2515-.618,.5109-1.1562,.75v2.1875c.7185,.0247 1.4116,.0597 1.8125,.3125 .2752,.1735-.7686,.3763-1.8125,.5625v7.5c1.1115,.1782 3.2316,.896 3.875,1.0312 1.0648,.2238 1.1853,.336 .8438,.4375-.3416,.1015-1.1303,.1768-1.9375,.3125-.9553,.1606-1.8942,.4569-2.7812,.6562v19.3438c0,3.324 2.676,6 6,6h12.5625c.0932-.4331 .1533-.9059 .25-1.4062 .1371-.7091 .2265-1.3446 .3438-1.5938 .0293-.0623 .059-.1142 .0938-.125 .1043-.0325 .2436,.1989 .4688,.7812 .2973,.7687 .5124,1.6241 .6562,2.3438h.75c.2697-.4879 .5527-1.1108 .7812-1.4062 .0968-.1251 .2812,.1031 .5312,.3438 .2501,.2406 .5658,.4851 .9062,.375 .6335-.2048 1.5815-.6982 2-.9688 .1366-.0883 .2714-.1583 .375-.1875 .1036-.0292 .1761-.0175 .25,0 .1478,.0351 .2348,.1462 .3438,.2812 .2179,.2702 .4494,.625 1.0312,.625 .4672,0 .6601-.0314 .7812,.0625 .1212,.0939 .1707,.3211 .375,.875h8.6875c-.0467-.5869 1.0134-2.131 1.1875-3.0312 .1865-.9645 .2156-1.2091 .2812-1.0312 .0656,.1778 .1677,.771 .4375,1.4688 .1079,.279 .2162,.3573 .3125,.2812 .0963-.0761 .1708-.2971 .25-.5625 .1584-.5308 .287-1.269 .3438-1.5625 .1281-.6624 .0973-1.7611 .0938-2.25-.0009-.1222-.0058-.2182 0-.25 .0174-.0954 .0853,.2959 .2812,1.5625 .16,1.0345 .5517,2.667 .7188,3.5312 .1658,.8578 .2694,1.2974 .375,1.8438h27.5625c.0379-.4891 .0358-1.0721 .0625-1.4688 .02-.2975 .0686-.4868 .1562-.4688 .0292,.006 .0518,.0395 .0938,.0938 .228,.2948 .6072,1.142 .9375,1.8438h7.7188c3.324,0 6-2.676 6-6v-7.0625c-.1655,.0045-.295,0-.5,0-1.2994,0-2.5756,0-3.875,0-1.198,0-1.996-.0017-2.1875-.0625-.1915-.0608 .2305-.1869 1.4375-.5 .6398-.166 3.2618-.9017 5.125-1.3125v-37.9688c-.6376-.2632-1.1884-.4936-1.7188-.9062-.1392-.1083-.4297-.3632-.9375-.5312-.5078-.168-1.2351-.2539-2.2188-.0625-1.4978,.2914-1.6442,.282-1.2188,.1562 .4255-.1257 1.4243-.3828 2.1875-.5312 1.1259-.219 2.6582-1.1805 3.9062-1.8125v-4.5312c-.6821-.2549-1.3986-.533-1.7188-1.0312-.2048-.3188-.2902-.5143-.2812-.625 .0089-.1107 .1045-.1496 .2188-.1875 .1143-.0379 .2637-.0557 .375-.1562 .1113-.1006 .1875-.2952 .1875-.5938 0-.3191 .082-.8619 .0625-1.375-.0097-.2565-.0377-.4995-.125-.6875-.0873-.188-.2242-.3335-.4375-.375-.5612-.1092-.8182-.235-.875-.3438-.0568-.1088 .0769-.1905 .2812-.2812 .4086-.1816 1.1011-.3082 1.0938-.3125-.6531-.3812-5.1164-.9218-4.875-.9688 .3248-.0632 .6439-.1243 .9688-.1875 1.0233-.1991 2.3697-.3122 3.6562-.5625 .5599-.1089 .8855-.2528 1.0938-.4375 .2083-.1847 .2961-.3944 .375-.5938v-8.1562c0-3.324-2.676-6-6-6h-50.0312c.0943,1.3811 .1947,2.919-.0938,2.1562-.2055-.5435-.3257-1.1128-.5312-1.6562-.052-.1375-.0975-.3315-.1562-.5h-1.9688c-.2351,.4865-.4574,.9734-.7812,1.1875-.4951,.3273-.7603,.4623-1,.375-.2397-.0873-.4541-.4012-.8125-.875-.1599-.2115-.4419-.4345-.75-.6875h-6.6562l-1.2812,5.5-1.6875-5.5h-.2188l-1.7188,8.8438-1.375-8.8438h-2.9375z"/>
<path opacity=".35" fill="#ac7535" filter="url(#filter3325)" d="m30.9688-18.3125c2.4906,2.2021 5.12,4.3298 8.1562,6.7812-2.8658,1.1219-7.6101,2.3863-10.8125,4.875-1.1161-2.0868-2.3918-4.0992-3.7812-6-.2529,.0493-.5191,.0781-.7812,.0938-.441,.9994-1.1486,1.8074-2,2.4062 1.5191,2.0377 2.8624,4.2068 4.0312,6.4688-.0454,.0895-.1147,.1583-.1562,.25-.6238,1.3755-.6021,3.0625-.25,4.5312 .4103,1.7114 1.3298,3.3199 2.4375,4.6875 .4399,.5431 .8884,1.0256 1.3125,1.4688-1.3812,.6501-2.7449,1.3661-4.1562,2.1562-3.5965-.3482-7.1626-.935-10.75-1.375-.3087-.0699-.5733-.1209-.875-.1875 3.0532-1.3502 6.265-3.1536 8.0625-5.1563 1.8441-2.0546 2.9177-4.907 2.375-7.6875-.249-1.276-1.121-2.3298-1.6875-3.5-.4484-.3488-.8778-.7204-1.3125-1.0938-.9203,.413-1.9474,.6097-3,.5-2.3653-.2465-4.2942-1.909-4.9688-4.1562-.9278-.2072-1.8609-.3716-2.8125-.5v3.5c1.5883,.47 3.0974,1.0915 4.4375,1.9062 1.1592,.7047 2.0202,1.8143 3.0312,2.7188 .4782,1.1262 1.2527,2.1655 1.4375,3.375 .6367,4.1661-2.5789,8.3991-6.2812,9.9375-.0629-.0137-.1249-.0177-.1875-.0312-.2548-.1476-.4136-.7587-.75-.7812-.5581-.0374-1.123-.0183-1.6875,0v2.2812c.1593-.0562 .3048-.0964 .4688-.1562 .6416,.1143 1.2334,.2183 1.9062,.3438 3.5269,.3995 7.03,.9085 10.5625,1.25-.126,.0752-.2484,.1425-.375,.2188-4.2977,1.8127-8.3688,3.998-11.9688,7.5312-.2088,.2049-.3953,.4176-.5938,.625v3.9062c1.8222-4.881 6.7162-8.7266 11.125-11.1562-3.6212,2.4003-7.0376,5.7386-7.4062,10.375-.1557,1.9587 .8873,3.8389 1.3438,5.75 .6723,.6799 1.3005,1.4031 1.9375,2.125-.3898,.2181-.7956,.4085-1.1875,.625 .0658,.1199 .1272,.2425 .1875,.375 .4398-.2215 .8779-.4588 1.3125-.6875 .8083,.902 1.6363,1.7813 2.625,2.4688 .304,.2113 .6171,.4242 .9375,.625-.7696,1.2372-1.4787,2.4802-1.8438,3.875-.3672,1.403-.486,2.8035-.4062,4.1562-1.4177-.9538-2.8026-1.9774-4-3.1875-.077-.0779-.1425-.1712-.2188-.25-.4078,.3523-.7416,.5484-1,.6875-.6017,.3238-.8146,.3725-1.0625,.4375-.0388,.2777-.098,.5318-.1562,.7812 2.1488,1.7334 4.5773,3.165 6.9688,4.6562 .0064,.0223 .0248,.0403 .0312,.0625-2.419,1.265-4.8254,2.6603-7.0625,4.1875-.5024-.1648-.9759-.3083-1.4688-.4688-.2256,.2317-.4481,.4076-.6562,.5625v1.5625c.5369,.0844 .9326,.0072 2.1562,.7812 .2396,.0837 .4782,.1661 .7188,.25-.0443,.0397-.0824,.0843-.125,.125 .0507,.036 .0719,.0553 .125,.0938 .1703,.1233 .3736,.3024 .5938,.5 .1552-.1162 .3193-.2207 .4688-.3438 3.4194,1.232 6.7955,2.6152 9.7812,4.0938 1.3385,.6628 2.5962,1.4451 3.875,2.2188-3.7451-.5709-7.3417-1.5835-11.6562-3.8125-.4741-.2449-.9474-.5068-1.4062-.7812 .1107,.1976 .2389,.3837 .3438,.625 .2808,.6462 .3939,1.4924 .375,2.3438 5.4881,2.1276 9.8225,2.7296 14.9062,3.1562 .4459,.2701 .8935,.5503 1.3438,.8125 1.6438,1.3716 3.4244,2.5856 4.9688,4.0625-7.7358-.6149-15.4749-1.6214-22.9375-3.625-.0282,.0321-.0661,.0634-.0938,.0938 7.5211,2.0169 15.3347,3.0116 23.125,3.625 .0641,.0622 .1244,.1243 .1875,.1875-2.8732,.8787-5.6371,1.7986-7.9375,2.7188-4.5899,1.836-9.0865,3.8998-13.4688,6.1875-1.0309,.5381-2.0455,1.0892-3.0625,1.6562-.2161-.1223-.4446-.2154-.6562-.3438-.5446-.3303-1.0926-.6818-1.625-1.0625v4.4375c3.7753,1.8581 7.9961,2.9463 12.125,3.4062 .4676,.0521 .9367,.0726 1.4062,.0938-.085,.2241-.1612,.4526-.2188,.6875-.2667,1.0885-.287,2.2434-.125,3.375h2.25c.0978-.1886 .0115-.1348 .1562-.375 .3115-.5169 .8905-1.3899 1.9688-2.0625-.0389-.5268-.0428-1.0673 0-1.5938 .5343-.0078 1.0604-.0389 1.5938-.0312 1.5496-.5698 4.7481-1.4546 7.8438-2.6875 .3527,1.6822 .8642,3.3331 1.5,4.9375 .7414-.149 1.575-.2217 2.5-.0625 .3191,.0549 .6256,.1227 .9062,.2188-.9018-2.0745-1.5815-4.2283-2-6.4375 1.5792-.801 2.9759-1.6832 3.875-2.6875 .9125-1.0193 1.5777-2.3863 1.6875-3.75 .016-.1988 .0052-.3932 0-.5938 1.4803-.1369 2.9553-.2609 4.4375-.25 2.5928,1.7912 5.5802,3.0332 8.3125,4.625 1.5122,.4224 2.5992,.7585 3.8438,1.125-.217,.8989-.4571,1.79-.7188,2.6875 .6373,.2075 1.2808,.406 1.2812,.4062 .0009,.0005 .9841,.7382 1.25,1.0312 .0383,.0422 .0593,.054 .0938,.0938 .4027-1.1141 .7636-2.2371 1.0938-3.375 3.1212,.9092 5.6626,1.5788 8.6562,1.9688 1.0988,.4162 2.2197,.8005 3.3438,1.1562 1.4606,1.8837 3.2128,3.5853 4.375,5.6562h4.5c-.2452-.5672-.5372-1.1321-.8438-1.6875-.4554-.8251-1.0188-1.5587-1.625-2.2812 5.7581,1.2005 11.6895,1.6459 17.5,1.3125 3.2184-.1847 6.501-.4343 9.5938-1.3438 .8841-.26 1.7345-.5763 2.5938-.9062 .3841,.1836 .7708,.355 1.1562,.5312v-4c-.021-.01-.0415-.0213-.0625-.0312-1.1784-.919-2.4237-1.7648-3.5938-2.6875-.652-.3184-1.5691-.8724-2.2812-2.0938-.0577-.0989-.1021-.205-.1562-.3125-.035,.0192-.0585,.0433-.0937,.0625-.1436-.1546-.2985-.3114-.4375-.4688 .088-.0665 .1628-.1509 .25-.2188-.0615-.1637-.1351-.3194-.1875-.5-.1214-.4182-.1634-.8246-.1875-1.2188-.2432,.2918-.4889,.5643-.75,.8438-.4018-.5128-.7753-1.0233-1.125-1.5625 .6799-.3534 1.3538-.7109 2.0312-1.0625 .0761-.2986 .1435-.582 .25-.8438-.3537,.2942-.6842,.5786-1.0625,.9062-.5153,.1802-1.0454,.3365-1.5625,.5-1.0478-1.727-1.8407-3.6097-2.25-5.5938 2.6533,.0237 5.3551-.1311 8.125-.5625 .0526-.0082 .1036-.0229 .1562-.0312-.0449,.1983-.0716,.397-.125,.5938-.0866,.3192-.1812,.6243-.2812,.9375 .0776-.0221 .1478-.03 .2188-.0625 .7406-.3394 1.195-.4608 1.875-.6875 .0749-.025 .9467-.3004 1.25-.4062v-12.3438c-.1207-.2404-.2431-.4675-.375-.6875 .1284-.0729 .248-.1454 .375-.2188v-.0938c-.1395,.081-.2643,.1688-.4062,.25-.3648-.5983-.7934-1.1012-1.25-1.5938 .5638-.0025 1.1046,.0133 1.6562,.0625v-3.2188c-.8638,.0954-1.6895,.2782-2.375,.5625-.4809,.1994-.934,.4362-1.4062,.6562-.87-.712-1.8399-1.4862-2.9375-2.4375-2.3193-.9412-4.5304-2.2473-6.9688-2.8125-2.5801-.598-5.2623-.7798-7.9063-.625-1.7066,.0999-3.3195,.328-4.875,.6875 2.0262-2.3573 3.7044-4.9466 4.7812-7.6562 .2295-.5775 .4029-1.1764 .5312-1.7812 4.0749,.2563 7.9333,.6976 12.1875,1.75 .3368,.241 .6745,.4927 1,.75 3.1907,2.522 6.0701,5.6573 7.9688,9.2188v-5.4062c-.8548-.92-1.7683-1.8046-2.7188-2.625 .9207,.3416 1.8249,.7136 2.7188,1.125v-1.875c-.7508-.2249-1.4968-.4265-2.25-.625-1.0801-.2847-2.1293-.5556-3.1562-.7812-.1747-.1258-.3557-.2526-.5312-.375-3.3477-2.3332-7.1614-3.8702-10.75-5.8125-.4823-.1564-.9572-.3365-1.4375-.5 .2654-.34 .4905-.6877 .6875-1.0312 .1207-.2106 .2499-.4193 .3438-.625 2.5295,.2983 5.1333,.7274 7.8125,1.2812 3.0242,.6252 6.1862,1.4686 9.2812,2.5625v-1.3125c-2.7742-.8191-5.5484-1.4889-8.2188-2-2.6103-.4996-5.5538-.955-8.5938-1.2812 .8946-2.8712-.7967-5.2281-3.4375-6.8438-1.3989-.8558-2.9823-1.3279-4.5625-1.8125-.7425-.8231-1.5472-1.6087-2.4062-2.3125 .0206-.0107 .0419-.0206 .0625-.0312 4.532,1.2813 9.1266,2.2745 13.7813,2.9375 .0315,.0201 .0621,.0426 .0937,.0625 1.9134,1.2052 4.1027,1.8656 6.1562,2.8125 .6876,.1491 1.4969,.3676 2.2812,.5625-.0506-.0647-.7498-.9684-.75-.9688-.0005-.0008-.8749-2.6866-.875-2.6875-0-.0003 .055-.3919 .0937-.6562-1.1023-.4469-2.184-.929-3.1875-1.5625-2.1216-1.3394-3.9489-3.0233-5.375-4.9688 3.85-1.0632 7.6678-1.7443 12.0313-1.9062 .4339-.0161 .8778-.0314 1.3125-.0312-.2054-.4074-.3909-.9352-.4375-1.8438-2.657,.2508-5.2672,.6773-7.6875,1.2188-2.1068,.4713-4.0697,.9768-5.9375,1.5625-.7155-1.1375-1.3021-2.3432-1.7188-3.625 1.8544,.2915 3.7186,.5129 5.5938,.625 3.2448,.1941 6.5688,.2575 9.75-.4062 .002-.145-.008-.2766 0-.4375 .0141-.2703 .1736-.6247 .25-.9375-.1422-.0298-.1988-.0115-.9062-.3125-.0104-.0044-.0205-.0267-.0312-.0312-2.0773,.2253-4.208,.3529-6.5625,.2812-2.8838-.0878-5.7507-.4001-8.5938-.9062-.2108-1.1931-.2973-2.412-.2188-3.6875 .1799-2.9212 .7712-4.8925 1.7188-6.7188 1.4019,.5424 2.8808,1.0826 4.9688,1.7812 1.3305,.4452 2.647,1.4474 4.0312,1.2188 .6646-.1098 1.3242-.2722 1.9688-.4688 .0489-.0524 .1017-.1064 .1562-.1562 .013-.0268 .0937-.1562 .0937-.1562 .0002-.0003 1.0309-1.0934 1.0312-1.0938 .0004-.0003 .6-.4253 .8438-.5625 .2438-.1372 .4442-.2376 .625-.3125 .3616-.1498 .636-.2293 .8438-.2812 .3333-.0833 .6666-.1667 1-.25 .3649-.0912 .4885-.089 .8125-.1562v-1.3125c-.5058-.2997-1.1084-.4984-1.625-.7812-.9382-.2863-1.8747-.587-2.8125-.875-1.6917-1.4529-3.5342-2.9095-5.6562-4.4375 2.3631-.4628 4.7655-.8007 7.2188-.9688 .7333-.0502 1.4535-.0707 2.1875-.0625-.4611-.5722-1.137-.9426-1.9375-1.0625-2.4208,.2662-4.8392,.6702-7.25,1.2188 .4654-.476 .8912-.8685 1.3125-1.2812h-2.0938c-.0785,.064-.1729,.1235-.25,.1875-.3032,.2518-.585,.515-.875,.7812-.4489-.3104-.9625-.6492-1.4375-.9688h-.25c.5275,.354 1.096,.7182 1.5938,1.0625-.3521,.3264-.6927,.6588-1.0312,1-2.5188,.6883-5.0099,1.4803-7.4375,2.4062-3.2147-1.3248-6.3766-2.8052-9.4375-4.4688h-9.6875c.8603,1.907 1.5574,3.8705 1.9688,5.8438-1.3402,.2258-2.6783,.469-4,.7812-1.6706,.3947-3.307,.9288-4.9375,1.4688-1.8086-1.371-3.584-2.8054-5.4062-4.1562-1.2737-1.3357-2.608-2.6229-3.9062-3.9375h-3.9375c1.6046,1.5749 3.3763,3.1978 5.5938,5.3438 1.6477,1.1814 3.2767,2.4476 4.9062,3.6562-.3027,.1039-.6034,.2094-.9062,.3125-4.9854-1.4828-11.4448-2.6214-16.3438-2.9062-2.7277-.1586-5.4559,.0964-8.1875,.1562-.0189,.008-.0434,.0232-.0625,.0312-2.8124-2.3803-5.2804-4.4513-7.5937-6.5938h-1.0625zm77.9375,12.5312c-.0198,.0212-.0439,.041-.0625,.0625-.01,.0112 .004,.0248 0,.0312 .0321-.018 .088-.0771 .1562-.125-.0319,.0079-.0622,.0216-.0937,.0312zm-29.2813-10.75c1.9943,1.0406 4.0225,2.0509 6.0625,3-.6452,.0507-1.2977,.0918-1.9375,.1562-1.0955,.1103-2.1873,.2066-3.2812,.3438-.06-.4464-.1173-.8724-.2188-1.3125-.1685-.7314-.3908-1.4729-.625-2.1875zm24.4375,.4062c2.0567,1.4794 3.8525,2.9071 5.5,4.3125-.3916-.1152-.7891-.2541-1.1875-.3438-2.3821-.5359-4.8191-.9131-7.2812-1.1875 .1923-.3 .3618-.52 .5625-.8438 .7077-.7044 1.186-1.2043 1.75-1.7812 .2211-.0464 .4344-.1122 .6562-.1562zm-3.5625,.8125c-.5578,.5874-1.13,1.1624-1.6875,1.75-1.146-.092-2.2873-.1462-3.4375-.1875 1.6888-.5751 3.4012-1.1161 5.125-1.5625zm-13.4063,3.4375c.716-.0017 1.4174,.0161 2.125,.0312-.5811,.2622-1.1791,.5087-1.75,.7812-2.1815,1.0413-4.4294,2.227-6.6875,3.5-.0602-1.3431-.0998-2.6923-.1875-4.0312 2.163-.1815 4.3521-.2762 6.5-.2812zm2.7188,.2188c.3784,.1649 .7458,.3374 1.125,.5 2.0418,.841 3.35,1.3769 4.7188,1.9375-1.9575,2.9607-3.2729,5.2461-3.5625,9.7812-.0126,.1978 .0056,.3984 0,.5938-4.1754-1.0473-8.2735-2.5175-12.1875-4.3125 .2859-1.1624 .5622-2.3615 .9062-3.5-.0146-.197-.0207-.3962-.0312-.5938 1.8547-1.0471 3.6859-2.0154 5.4688-2.8438 1.1798-.5481 2.3726-1.0626 3.5625-1.5625zm-12.8125,.4375c.218,1.9032 .1137,3.8559 .1562,5.7812-.2782,.1696-.5663,.3278-.8438,.5-1.5881-.8337-3.1394-1.6879-4.6562-2.625-.987-.6098-1.9397-1.2827-2.875-1.9688 .6554-.1874 1.3046-.4067 1.9688-.5625 2.0288-.4759 4.1248-.8425 6.25-1.125zm-32.2188,1.5625c4.6976,.0749 10.4444,.9495 15.2812,2.375-3.0329,1.6089-5.7127,2.9751-8.1875,4.375-2.9937-1.9615-5.9326-4.0258-8.9375-5.9688-.2986-.2598-.5221-.437-.8125-.6875 .888-.0638 1.7659-.108 2.6562-.0938zm-3.1875,.125c.3705,.3034 .6468,.5261 1.0312,.8438 3.0216,1.9298 5.9882,3.9601 9,5.9062-2.7467,1.5681-5.3093,3.2408-7.875,5.5938-3.7034,.569-7.0606,1.4109-10.2812,2.5938-.3266-.3406-.6394-.6984-.9375-1.0625-.6565-2.7457-1.5911-5.4193-2.75-8 .3165-2.1957 1.5998-4.2071 4.0938-5.5938 .6613-.3677 1.5291,.1683 2.2812,.25 1.8181-.1395 3.6197-.3803 5.4375-.5312zm24.4062,.8438c.2429,.1764 .474,.3576 .7188,.5312-.3731-.1317-.8374-.3116-1.125-.4062 .1344-.0453 .2717-.0802 .4062-.125zm-4.9688,1.6875c.5232,.1673 1.0366,.319 1.5312,.5 2.2238,.8139 6.3285,2.5572 8.4062,5.0938-1.8699,1.3022-3.6851,2.6617-5.4062,4.0312-1.6548-.1382-3.3158-.2859-4.9688-.4375-1.0232-.5368-2.0558-1.0656-3.0625-1.625-1.8092-1.0053-3.5464-2.1206-5.2812-3.25 2.0951-1.1887 4.4241-2.2676 7.5-3.875 .4317-.1376 .8514-.2933 1.2812-.4375zm16.125,1.9062c.0038,.1139-.0053,.2301 0,.3438-.0269,.0823-.0366,.1673-.0625,.25-.1591-.0811-.3103-.1678-.4688-.25 .1784-.1128 .3524-.2323 .5312-.3438zm-1,2.5c.1126,.0561 .2309,.1006 .3438,.1562-.0216,.0831-.0409,.1669-.0625,.25-.0755-.1372-.188-.2719-.2812-.4062zm-24.1562,.0625c1.7437,1.1201 3.504,2.207 5.3125,3.2188 .8775,.4909 1.7675,.9614 2.6562,1.4375-.2802-.0269-.5638-.0335-.8438-.0625-4.437,.1567-8.9051-.0665-13.3125,.4688-.1614,.0196-.3088,.0419-.4688,.0625 2.3782-2.3738 4.399-3.8228 6.6562-5.125zm19.1875,1.4375c.365,.4966 .6647,1.0083 .8438,1.5625 .2878,.8907-.1593,1.8283-.5,2.75-1.7293-.2393-3.4773-.3806-5.2188-.5312 1.5242-1.2669 3.1773-2.5506 4.875-3.7812zm8.1562,0c4.1306,1.8433 8.4207,3.3331 12.8125,4.375 .2232,2.1316 .8852,4.0894 1.875,5.875-5.7663-2.1689-11.8537-3.9081-17.7812-5.0938 .9027-1.0881 1.7064-2.2686 2.375-3.5313 .2776-.5242 .5238-1.0669 .7188-1.625zm-21.6875,4.25c1.6122,.1377 3.2266,.2146 4.8438,.3125 .4118,.2112 .836,.4173 1.25,.625-.2953,.2478-.5868,.5012-.875,.75-5.2022-.5798-10.536-.6942-15.1875-.4062-1.5286,.0946-3.0468,.2801-4.5625,.5 .2923-.3284 .5643-.6048 .8438-.9062 3.2129-.4277 6.4208-.4046 13.6875-.875zm16.5625,.1562c-.0662,.1042-.119,.209-.1875,.3125-.062-.011-.1256-.0204-.1875-.0312 .1202-.099 .2565-.1797 .375-.2813zm-11.0312,.2188c.3963,.0242 .7914,.0371 1.1875,.0625-.127,.1046-.2492,.2077-.375,.3125-.2686-.1318-.5449-.2416-.8125-.375zm2.0312,.125c1.9251,.1311 3.8407,.3029 5.75,.5625-.6835,.5051-1.3465,1.0595-2.0312,1.5625-.56-.1083-1.1172-.2166-1.6875-.3125-.8962-.4106-1.7704-.852-2.6562-1.2812 .2028-.1791 .4173-.3519 .625-.5312zm-23,.6562c-.2798,.2845-.5614,.572-.8438,.875-2.328,.3785-4.6377,.8073-6.9687,1.1562-.0051-.0047 .0051-.0266 0-.0312 3.4073-1.0074 5.8176-1.6307 7.8125-2zm22.125,.0938c.5975,.2966 1.2105,.586 1.8125,.875-.8001-.1223-1.5945-.2448-2.4062-.3438 .1233-.1138 .2501-.2315 .375-.3438 .0699-.0628 .1482-.1247 .2188-.1875zm8.3438,.0938c.2152,.0357 .4404,.0563 .6562,.0938-.4634,.6203-.9649,1.2301-1.5,1.8125-.6618-.1612-1.3481-.2957-2.0312-.4375 .7015-.3331 1.4022-.6822 2.0938-1.0312 .2658-.1342 .5326-.2763 .7812-.4375zm2.75,.5c5.7927,1.1384 11.7519,2.8345 17.3438,5.0312-1.8247,.7822-3.6231,1.6708-5.4688,2.6562-.6009-.1571-1.1828-.3329-1.7812-.5-3.3998-2.3783-7.3743-3.9931-11.1875-5.125-.2609-.0775-.5467-.1448-.8125-.2188 .6715-.5824 1.303-1.1927 1.9062-1.8438zm-25.4062,.2812c3.7651-.075 7.7479,.1189 11.6562,.625-.6898,.6301-1.374,1.2732-2.0312,1.9375-2.4856,.4831-4.9552,1.0224-7.4688,1.3125-4.0119,.4629-8.1393,.71-12.2812,.7812-.1374-.0666-.2693-.1514-.4062-.2188 .8516-1.3067 1.7681-2.5727 2.7812-3.7812 1.3567-.2105 2.6927-.4008 4.0625-.5 1.193-.0864 2.4325-.1313 3.6875-.1562zm12.5625,.75c1.528,.218 3.0563,.4617 4.5312,.7812-1.1924,.4409-2.5514,.2079-3.8125,.4062-.7424,.1168-1.4795,.2377-2.2188,.375 .4949-.5302 .986-1.0517 1.5-1.5625zm-22.1562,.2188c-.0199,.0226-.0426,.0398-.0625,.0625-.7824,.8933-1.4962,1.7976-2.1875,2.75-.6844-.3714-1.3388-.7919-1.9687-1.25-.2758-.2005-.5452-.4108-.8125-.625 1.6744-.3194 3.3543-.6394 5.0312-.9375zm27.1875,.6875c1.0112,.2286 2.0001,.4706 2.9688,.75-2.1884,2.0668-4.7406,3.7938-7.3125,4.875-1.4308,.6014-3.0745,.399-4.625,.4688-1.1592,.0522-1.6899,.056-2.5312,.0938 .9679-1.0646 1.9213-2.1396 2.875-3.2188 .4145-.0886 .809-.2018 1.2188-.3125 2.5305-.6837 4.9974-1.6027 7.4062-2.6562zm-37.9375,.8438c.0537,.0517 .1026,.1058 .1562,.1562 .0038,.0199-.0038,.0426 0,.0625-1.255,.4594-2.4892,.9122-3.7188,1.375 1.1141-.672 2.3257-1.1622 3.5625-1.5938zm42.3125,.3125c.1858,.06 .3789,.1254 .5625,.1875 4.0179,1.3581 7.888,3.2952 11.0625,6.0625-2.0738-.335-4.1558-.6525-6.25-.7812-5.337-.3282-11.4891-.1387-17.25,.5 2.3369-.8391 4.6114-1.8645 6.8438-2.9375 1.7526-.8423 3.4561-1.8556 5.0312-3.0312zm-42.0625,.3438c.0807,.4483 .1534,.8925 .2188,1.3438-1.2195-.0612-2.4235-.1285-3.625-.2188-.0938-.007-.1874-.0238-.2812-.0312 1.2144-.379 2.4586-.7501 3.6875-1.0938zm27.4687,1.75c-.9185,.9909-1.8324,2.0081-2.75,3-.3607,.0137-1.007,.0549-1.3125,.0625-3.7081,.0921-3.7997-.2985-10.7188-1.9688-.0289-.0155-.0648-.0158-.0938-.0312 2.4346-.0641 4.8782-.1885 7.3438-.375 2.5069-.1896 5.0482-.2991 7.5312-.6875zm36.5938,.3438c.4133,.1692 .8103,.3568 1.2188,.5312 1.1166,1.505 2.5054,2.8492 4.0625,4.0312-3.7679-.5269-7.5223-1.28-11.2188-2.2188 1.3575-.6392 2.7489-1.1747 4.1562-1.6875 .6028-.2196 1.1931-.4509 1.7812-.6562zm-69.8125,.1562c.2191,.0185 .4369,.0456 .6562,.0625 1.8331,.1416 3.6546,.2556 5.4688,.3438 .0509,.4618 .0907,.9421 .125,1.4062 .4035,5.4637-.0578,8.2614-1.0312,11.7812-1.2854,.4053-2.5405,.8446-3.7188,1.3125-1.7081,.6783-3.3417,1.4878-4.9688,2.3438-.6031-.8164-1.2003-1.6307-1.8438-2.4062-.3086-1.8995-1.1447-3.8092-.9062-5.7188 .5012-4.0138 3.1306-6.8949 6.2188-9.125zm9.4062,.5312c.3757,.0112 .7496,.0226 1.125,.0312 .4854,.2477 1.0047,.5266 1.5312,.7812-1.0349,1.7416-1.9444,3.5367-2.6875,5.4062 .1659-1.7291 .2059-3.6695 .0312-6.2188zm4.125,1.5312c.5454,.2655 1.0234,.5045 1.625,.8125 3.6904,.8711 7.1014,1.9363 10.6875,2.1875-2.7349,.5999-5.4652,1.3204-8.0625,2.3438-2.6244,1.034-5.1679,2.2514-7.6562,3.5938 .7512-3.1033 1.9042-6.1011 3.4062-8.9375zm29.7188,2.0938c2.6699-.0335 5.3092,.0545 7.7812,.2812 2.0394,.187 4.0578,.625 6.0625,1.0625-2.2378,1.5114-4.2832,3.3022-6.4375,4.9375-6.9575-.9795-14.0352-1.2717-21-.9375-.704,.0338-1.453,.1052-2.1875,.1562 .7683-1.3712 1.6472-2.7883 2.5625-4.3438 4.2077-.7011 8.7689-1.1005 13.2188-1.1562zm-15.3438,1.5312c-.8978,1.4608-1.7836,2.8204-2.5938,4.125-4.9827,.4471-10.4143,1.2859-15.5,2.5312 .0467-.2288 .1053-.4597 .1562-.6875 4.8604-2.6801 13.593-5.0819 17.4687-5.875 .1543-.0316 .3131-.063 .4688-.0938zm30.3125,.0625c.6683,.1433 1.3291,.2813 2,.4062 .812,.4146 1.7084,.7618 2.5938,1.1562 .3794,.5242 .7286,1.056 1.0625,1.625 .7399,1.2609 1.1631,2.6871 1.5,4.125-.7837-.0261-1.566-.056-2.3438-.0625-.9591-.2875-1.9316-.5492-2.9062-.7812-2.4351-.5797-4.8901-1.0682-7.375-1.4688 .4129-.5204 .8132-1.067 1.25-1.6562 1.427-1.077 2.8068-2.2445 4.2188-3.3438zm-22.4688,4.2188c4.7886,.0304 9.5588,.4044 14.2812,1.125-1.1111,1.4318-2.165,2.6689-3.0938,3.875-2.1123,.6248-4.1897,1.3808-6.2812,2.0938 1.949-.5031 3.887-1.0075 5.8438-1.4688-1.2349,1.6946-2.1589,3.4332-2.5,5.7188-1.6911,.1253-3.3782,.27-5.0625,.4688-3.1344,.3699-6.6156,.8751-10.1875,1.5 2.5965-1.8369 5.6173-3.2554 9.375-5.4062-.5187,.1667-1.0413,.3442-1.5625,.5-3.5573,2.0675-6.4996,3.4984-9.0938,5.125-.9322,.1696-1.8723,.3453-2.8125,.5312-.0904-.57-.1436-1.157-.1875-1.75-.3838-5.1818 .7818-8.5327 2.6562-12 2.8624-.221 5.7519-.3307 8.625-.3125zm2.375,7.9062c.8405-.2702 1.6943-.5272 2.5312-.8125-.652,.1683-1.3139,.3471-1.9688,.5-.1968,.1145-.3698,.2022-.5625,.3125zm-13.2188-7.4062c-2.4021,3.9601-4.0613,7.6876-3.4688,13.4688 .0253,.2465 .0575,.504 .0938,.75-2.6014,.5636-5.163,1.1926-7.6562,1.875-1.4381-.3428-2.9207-.7618-4.4062-1.25-.5913-4.0893-.5302-8.1593 .1875-12.125 1.211-.3246 2.4001-.6112 3.625-.875 3.8172-.8221 7.7172-1.4572 11.625-1.8438zm63.3125,.1875c.6453,.538 1.295,1.0933 1.9062,1.6562v-1.5312c-.219,.0584-.238,.2603-1.9062-.125zm-36.0625,.8125c2.3309,.4097 4.6495,.8843 6.9375,1.4688 .1363,.0348 .2704,.0887 .4062,.125-2.6599,.0923-5.2355,.317-7.5625,.7188-.6066,.1047-1.213,.2402-1.8125,.375 .6006-.8732 1.2811-1.7513 2.0312-2.6875zm9.9688,2.375c1.2479,.4123 2.4882,.8742 3.7188,1.3438 .1146,.476 .233,.9423 .375,1.4062-.1537,.9845-.227,1.9972-.3125,3-.4273,.3955-.8498,.7849-1.2812,1.125-2.3798-.0618-4.8481-.0868-7.5312-.1875-3.0291,.207-6.0612,.3302-9.0938,.5-.0729,.0041-.1459-.0041-.2188,0 .0969-2.5777 .7795-4.4065 1.8125-6.0938 .3573-.06 .7032-.1074 1.0625-.1562 3.9991-.5437 7.7749-.8657 11.4688-.9375zm-58.4687,1.1875c-1.7616,1.431-3.3337,3.1088-5.0312,4.625-.6606-.5946-1.2385-1.2863-1.7812-2 .8785-.4319 1.7701-.846 2.6875-1.1875 1.3572-.5052 2.7509-.9733 4.125-1.4375zm.875,.9688c-.3756,1.2594-.7582,2.5644-1.2188,4.2188-.3456,.6624-.6718,1.3275-1,2-.6336-.3608-1.255-.724-1.8438-1.125 .5985-.9739 1.2173-1.9376 1.75-2.9375 .7861-.6959 1.5546-1.4238 2.3125-2.1562zm2.375,1c-.2431,2.4447-.2777,4.9249-.0312,7.4062-.9448-.3731-1.8454-.8084-2.75-1.25 .6603-1.2928 1.3468-2.6616 2.25-4.375 .1975-.7011 .3484-1.163 .5312-1.7812zm64.0937,.125c.3268,.1203 .6407,.2588 .9688,.375 2.4334,1.4748 5.0259,2.775 7.4375,4.2812-3.5199-.5083-6.8878-.7678-10.375-.9062 .1386-.7344 .2459-1.4649 .3125-2.2188 .6116-.4934 1.1506-1.0172 1.6562-1.5312zm-14,3.4688c2.6508,.153 5.0409,.246 7.3438,.3438-.2231,.1715-.445,.3441-.6562,.5-2.5895,1.9107-13.5088,4.7808-13.8125,4.875-.4078,.0631-.8115,.1508-1.2188,.2188-.5132-1.3643-.8393-2.836-.875-4.4062-.0081-.3574-.0113-.6998 0-1.0312 3.0641-.168 6.1586-.2907 9.2188-.5zm8.75,.5312c-.1404,1.2164-.341,2.4266-.7812,3.5625-.9292,2.3978-2.3304,4.6304-3.9375,6.6562-1.4613,.4845-2.8581,1.1198-4.25,1.8125-1.1816-1.3024-3.6186-1.8631-5.4375-2.0938-.8558-1.0173-1.5764-2.1006-2.1562-3.2812 2.6236-.6255 5.2979-1.1225 7.7812-2.1562 1.8806-.7829 5.4438-2.4442 8.7812-4.5zm-21.7812,.25c-.1261,.8775-.1541,1.8338-.0938,2.9062 .0564,1.0026 .2517,1.9971 .5625,2.9688-2.0024,.347-4.0083,.6669-6.0312,.8438-2.8843,.2521-5.7342,.372-8.5938,.3438-1.3196-.013-2.6529-.0457-3.9688-.125-.2407-.6103-.4415-1.2334-.625-1.875 1.0465-1.1739 2.1341-2.1468 3.3125-3 3.2867-.6095 6.6754-1.1457 10.2812-1.5938 1.7139-.213 3.4341-.3409 5.1562-.4688zm-16.8125,2.3125c-.7785,.4992-1.5319,1.0242-2.25,1.5938-.0804-.3607-.1571-.7235-.2188-1.0938 .8158-.1745 1.6426-.3386 2.4688-.5zm-28.1562,.2812c.6597,.3335 1.337,.6386 2.0312,.9375-.7002,1.4109-1.4619,2.8014-2.3125,4.125-.094,.1462-.1855,.2916-.2812,.4375-.16-1.6037-.0776-3.2642 .375-4.9375 .0525-.1942 .1218-.3735 .1875-.5625zm22.5625,.9375c.1535,.9577 .3811,1.9135 .6875,2.8438-.0638,.0709-.1241,.1464-.1875,.2188-2.1682-.2427-4.336-.5818-6.5-1.0312-.2868-.0596-.5827-.1222-.875-.1875 2.2988-.6776 4.5782-1.2957 6.875-1.8438zm-18.75,.7188c1.4626,.5543 2.9477,1.0467 4.4375,1.4688 .0018,.0102-.0018,.021 0,.0312 .0776,.4459 .1445,.9048 .25,1.3438-.7485,.2587-1.4773,.5419-2.1875,.8125-2.0573,.784-4.2271,1.681-6.4062,2.6875-.0175-.063-.0458-.1243-.0625-.1875 1.6988-2.1669 2.8172-4.0031 3.9688-6.1562zm7.875,2.3438c.9054,.2054 1.8041,.4023 2.6562,.5625 2.5096,.4719 4.9807,.7953 7.4375,1.0312-.7665,1.0467-1.5147,2.2192-2.25,3.5938-1.2023,2.2477-1.9703,4.6993-2.2812,7.1875-.4397-.0999-.9049-.2105-1.3125-.3125-.6261-1.0379-1.2725-2.0538-1.9375-3.0625-.9281-2.9419-2.1783-5.8069-2.9688-8.7812 .2198-.0728 .4372-.1473 .6562-.2188zm34.25,.625c.3239,.7406 .6929,1.4576 1.125,2.125 .0653,.1009 .1509,.1821 .2188,.2812-3.7673,.3252-7.6121,1.3692-10.9062,2.9062-1.4628,.6825-2.8864,1.4363-4.2812,2.25-1.8209-1.8539-3.3838-3.9054-4.5312-6.2188 3.1883,.086 6.4183-.0146 9.7188-.25 2.9042-.2071 5.7748-.6626 8.6562-1.0938zm-37.2812,.4062c.826,3.1289 2.2561,6.1088 3.2812,9.1875 .1826,.2696 .3529,.5396 .5312,.8125-3.4275-1.1475-6.5031-2.6269-11.8125-4.9375-.2427-.5674-.4774-1.1317-.6562-1.7188 1.6322-.7315 3.3028-1.3869 5.0312-2.0312 1.2302-.4586 2.4293-.8959 3.625-1.3125zm15.125,.75c.0942,.0067 .1871-.0064 .2812,0 .4808,1.0543 1.0437,2.0884 1.6875,3.0312 1.1812,1.7298 2.6062,3.2842 4.1875,4.6875-1.3935,.8452-2.8055,1.6929-4.2188,2.5-.6611,.6181-1.1866,1.0921-1.7812,1.625-.2835-.0459-.4816-.0752-.7812-.125-1.0596-.1761-1.971-.3607-2.875-.5312 .099-3.2283 .8965-6.4449 2.375-9.25 .3683-.6989 .7522-1.3338 1.125-1.9375zm44.2188,2.5c1.8933-.058 3.8679,.123 6.1562,.6562 2.3693,.5521 4.5066,1.8716 6.75,2.8125 .8261,.755 1.7237,1.4402 2.5938,2.1562-1.0498,.6218-2.117,1.2562-3.125,1.9375-.8618,.5824-1.5044,1.3914-2.1875,2.1875-1.3774-.1522-3.1573-.3426-5.875-.5938-3.0137-.9221-6.1373-1.502-9.0312-2.75-1.5392-.6637-3.1325-1.4522-4.6562-2.375 1.2745-.989 2.5266-2.0531 3.7188-3.2188 1.951-.4575 3.763-.7545 5.6562-.8125zm-23.25,1.3125c.7146-.0108 1.4611,.0041 2.2188,.0625 .771,.0595 2.0762,.2466 3.3125,.6875 .75,.6713 1.5105,1.3144 2.3125,1.9062-.4616,.3089-.9421,.6106-1.4062,.9375-1.7486,1.2316-3.2951,2.811-4.4375,4.625-.3908-.0788-.7703-.1111-1.1562-.0938-.0238,.0011-.0388-.0011-.0625,0 .0314-1.1098 .026-2.257-.0312-3.4375-.065-1.3394-.1312-2.6889-.5312-3.9688-.0649-.2075-.1423-.4669-.2188-.7188zm15.3438,.0625c-.5921,.6232-1.2405,1.1983-1.875,1.7812 .1379-.4401 .2075-.8672 .0938-1.2812 .0542-.0158 .1016-.0473 .1562-.0625 .5636-.1572 1.094-.2948 1.625-.4375zm-64.375,.875c-1.2825,1.5575-2.6689,3.0677-4.125,4.5-.5973-.208-1.1886-.4266-1.7812-.625 1.8701-1.4769 3.8481-2.7368 5.9062-3.875zm40.625,.6875c-.5919,.5296-1.1651,1.1161-1.8438,1.75-.2054,.3115-.4397,.6013-.6562,.9062-.4423-.3848-.8633-.7811-1.2812-1.1875 .2877-.1404 .5771-.2878 .875-.4062 .9927-.3948 1.9616-.7376 2.9062-1.0625zm-39.75,.4375c1.1192,2.7002 2.9358,5.1438 5,7.25-2.7065-1.1895-5.7395-2.3709-8.8125-3.4688 1.2716-1.1587 2.4938-2.3616 3.6562-3.625 .0544-.0592 .1027-.0977 .1562-.1562zm41.875,.625c.2375,.3822 .9644,.6989 1.1562,1.1562 .4651,1.1088 .7551,2.3115 .9375,3.5 .0589,.3836 .0806,.731 .125,1.0938-.3021,.0257-.5966,.0367-.875,.0625-1.2066-.7092-2.3715-1.4603-3.5-2.2812 .3207-.6923 .6984-1.3887 1.0938-2.0625 .3081-.5252 .689-.9866 1.0625-1.4688zm-36.3125,.6875c2.28,1.0189 4.5747,2.0435 6.9375,2.8438 1.5682,.5311 3.1674,1.0212 4.7812,1.4688 1.1543,1.8529 2.3166,3.7026 3.625,5.4375 .0782,.3829 .1477,.7776 .25,1.1562-.1368,.1893-.2423,.3949-.375,.5938-1.2143-.4296-2.4147-.8889-3.5625-1.4688-2.2687-1.1462-4.4578-2.4927-6.4062-4.125-1.9821-1.6605-3.8253-3.675-5.25-5.9062zm51.1562,.0938c.1781,.8717-.6514,1.6688-.9688,2.5-.6655,.4275-1.29,.9404-1.9375,1.4062 .1212-.2828 .2768-.5474 .4375-.8125 .7295-1.203 1.5543-2.2136 2.4688-3.0938zm-22.9375,.8125c.739,.6331 1.5303,1.2098 2.3125,1.7812-.0719,.1247-.1525,.247-.2188,.375-.4297,.8299-.8076,1.6574-1.125,2.5-1.5052-.087-3.3984-.3065-5.9062-.6875 1.0864-.9577 2.2739-1.9821 3.625-3.2188 .4447-.2386 .8759-.4941 1.3125-.75zm25.4688,.5c4.3519,2.5528 7.9284,3.2713 13.6562,5.0625 2.4073,.2885 4.8146,.6869 7.2188,.9375-1.1209,2.1854-1.7657,3.3973-1.75,6.6562 .0006,.1252 .0278,.2506 .0312,.375-2.6801-.1704-5.4625-.5677-10.2188-1.1875 2.8133-.7726 5.5668-1.744 8.3125-2.75-2.7783,1.0097-5.5893,1.9519-8.4375,2.7188-1.3381-.1741-2.734-.3584-4.4375-.5625-3.6089-1.1031-7.3336-1.9222-10.9062-3.125-.0556-.2849-.0839-.5657-.1562-.8438 .3732-1.2125 .5673-2.505 .9375-3.7188 1.9898-.8933 3.6679-2.0439 5.75-3.5625zm28.5625,.3438c.5239,.4847 1.0224,.9814 1.4375,1.5625 .3183,.4455 .611,.931 .875,1.4062-.0505,.0292-.1055,.0644-.1562,.0938-2.2085,.3411-3.804,.5375-5,.5312-.0196-.0001-.0429,.0002-.0625,0 .293-.5158 .5671-1.0636 .9375-1.75 .6556-.6191 1.3131-1.2247 1.9688-1.8438zm-48.8125,2.9062c.4012,.251 .7918,.5181 1.1875,.75-.4962,.0489-.9754,.0904-1.4375,.125 .0783-.2931 .1542-.5873 .25-.875zm-15.3125,1.1562c.6543,.132 1.3119,.2571 1.9688,.375-.6148,.5518-1.204,1.0966-1.75,1.625-.1018-.6609-.1818-1.3305-.2188-2zm3.4375,.625c2.359,.3841 4.7064,.6813 7.0625,.875-.271,1.0739-.4194,2.1543-.4062,3.3125-.1101,.0191-.2353,.0443-.3438,.0625-2.7153,.4556-5.4635,.5941-8.2188,.7188-.2365-.2596-.4562-.5479-.6875-.8125-.0915-.2964-.1731-.6054-.25-.9062 .8643-1.2078 1.7855-2.2403 2.8438-3.25zm63.875,.1875c.867,2.2873 1.1686,4.7827 .8438,7.2188-3.7839,.3471-6.5286,.548-8.7188,.625-.115-.9169-.1692-1.8761-.125-2.8438 .0833-1.8237 .3252-2.949 .7188-3.9688 .187,.0028 .3755,.0007 .5625,0 .009-.0033 .022,.0033 .0312,0 2.1025-.0105 4.2317-.2618 6.3438-.9062 .108-.033 .2325-.09 .3438-.125zm-41.75,.25c-.1136,.3849-.2302,.7894-.3125,1.1875-.0641-.0281-.1234-.0654-.1875-.0938 .0234-.3002 .0423-.6062 .0625-.9062 .1446-.063 .293-.1232 .4375-.1875zm-4.9688,.6562c.0085,.0039 .0227-.0039 .0312,0 .0073,.147-.0054,.292 0,.4375-2.0376,.6497-4.0588,1.2252-6,1.6875-.0066-.1471-.0284-.2893-.0312-.4375-.0107-.5541 .037-1.094 .0938-1.625 1.9781,.1125 3.96,.1854 5.9062-.0625zm.0625,1.2812c.0175,1.1486 .0116,2.2908-.0312,3.5-1.5741-.0321-3.8051,.165-5.5938,.3438-.1626-.7006-.2739-1.4248-.3438-2.1562 2.0654-.4864 4.0464-1.0307 5.9688-1.6875zm4.2812,.4375c.0309,.0109 .0628,.0204 .0938,.0312-.0354,.1898-.0873,.3736-.125,.5625 .0182-.1977 .0138-.3972 .0312-.5938zm4.3125,1.4062c2.9786,.8733 6.1292,1.6848 9.6562,2.7188 1.0294,.1399 2.0187,.2881 3.0312,.4375-3.4965,.8148-7.0023,1.4923-10.5,2.0312-.4079-.5066-.8005-1.0365-1.125-1.5938-.6324-1.086-.8513-2.3342-1.0625-3.5938zm-19.0938,.75c.0046,.0628-.0056,.1243 0,.1875 .0457,.5189 .0966,1.0336 .1875,1.5312-1.1185,.1563-2.2368,.3396-3.3438,.5625-.3003,.0605-.6267,.1219-.9375,.1875-.7689-.1496-1.7178-.334-2.6562-.5312-.3487-.3453-.692-.6761-1.0312-1.0312 2.0092-.1127 4.013-.2837 6-.5938 .6141-.0958 1.1864-.2082 1.7812-.3125zm14.5938,.0312c.504,1.7215 .7244,3.5975 1.6875,5.0938-.759,.0898-1.5217,.1721-2.2812,.25 .1299-1.0214 .244-2.0662 .4062-3.2812 .0622-.7144 .1228-1.3785 .1875-2.0625zm17.3438,2.4062c4.2914,.6345 8.4919,1.2816 12.6875,1.625 .2327,2.5512 1.0389,4.9328 2.2813,7.0938-1.857,.3712-3.7166,.6396-5.5938,.7188-3.1393,.1324-6.3093-.2086-9.5-1.0938-2.4941-.6919-4.9546-1.6992-7.0938-3.1562-1.2597-.8581-2.4031-1.9334-3.375-3.125 3.5489-.5495 7.0681-1.2274 10.5938-2.0625zm-21.5312,.1562c-.0182,.5108-.0479,.977-.0625,1.5312-.0542,.526-.079,1.0667-.125,1.5938-1.1529,.0887-2.3139,.1561-3.4688,.2188-.1485-.2541-.2714-.5219-.4062-.7812 1.4294-.7202 2.8043-1.5777 4.0625-2.5625zm-22.875,1.3125c.4543,.112 .7582,.1803 1.1562,.2812-.3337,.0888-.6649,.1898-1,.2812-.0927-.0836-.1871-.1681-.2812-.25 .0337-.0918 .059-.1897 .0938-.2812 .0051-.0135 .0261-.0178 .0312-.0312zm2.3125,1.125c.2214,.3337 .4474,.6468 .6875,.9688-.4664-.0197-.9392-.0392-1.4062-.0625-.1855-.2119-.3673-.4241-.5625-.625 .425-.0977 .8534-.1891 1.2812-.2812zm26.4688,.1562c.0077,.0116 .0235,.0197 .0312,.0312 2.7289,4.0618 7.8816,6.5376 12.375,7.75 4.9682,1.3405 12.1977,1.7374 17.1875,.1562 .6269-.1987 1.2349-.4114 1.8438-.6562 .5973,.8783 1.28,1.7015 2,2.5-.3525,.2552-.7016,.5173-1.0625,.75-1.4431,.9306-3.2477,1.1082-4.875,1.6562-3.4297,.461-6.8207,1.3745-10.2812,1.375-3.0352,.0005-6.0691-.3277-9.0625-.875-1.8221-1.2462-3.6065-2.5536-5.5938-3.5-1.8451-.8787-3.8662-1.604-5.9375-2.25 .4477-2.2308 .7583-4.298 1.0625-6.6875 .7693-.079 1.5441-.1588 2.3125-.25zm-22.0938,.5625c.1522,.1305 .3152,.2461 .4688,.375-.0519-.001-.1043,.001-.1562,0-.102-.1247-.213-.2483-.3125-.375zm15.9688,.0625c-.1168,1.3457-.2148,2.6912-.375,4.0312-.5226-.5078-1.0142-1.0237-1.4688-1.5938-.5741-.7201-1.0776-1.4818-1.5312-2.25 1.1268-.0619 2.25-.1009 3.375-.1875zm-12.3438,.1875c.7255,.0545 1.493,.0848 2.4375,.125 .1932,.0082 .3973,.0159 .5938,.0312-.303,.0053-.6031,.0277-.9062,.0312-.6271,.0074-1.247-.0004-1.875,0-.0815-.0635-.1688-.1235-.25-.1875zm-8.6562,.0312c.4678,.0228 .9387,.0432 1.4062,.0625 .9236,1.2258 2.0006,2.3635 3.125,3.4062-.7654,.0394-1.5266,.1036-2.2812,.2188-.1726-.498-.3729-.9883-.625-1.4375-.4695-.8367-1.0292-1.5591-1.625-2.25zm5.4062,.1875c.0623,.0012 .1252-.0011 .1875,0 1.4402,1.2035 2.9205,2.344 4.4688,3.4062-.4445-.0278-.8972-.0399-1.3438-.0625-.2013-.1654-.3999-.3249-.5938-.5-.9637-.8703-1.8831-1.831-2.7188-2.8438zm6.9375,0c.0727,.006 .1461-.0055 .2188,0 .7184,1.3926 1.631,2.7014 2.7188,3.9375-.2309-.0348-.4575-.0619-.6875-.0938-1.9434-1.1707-3.8349-2.4217-5.625-3.8125 1.1256-.0018 2.251-.0067 3.375-.0312zm-17.7187,.3125c.029,.0324 .065,.0611 .0938,.0938-.5531,1.8002-.8754,3.6559-1.0312,5.5-3.6643,1.4779-5.8666,3.2838-10.3438,6.4062-.3268,.5846-.7112,1.1248-1.0938,1.6875-4.267-.4067-8.6761-1.5819-12.4688-3.6562 4.5528-2.732 8.9556-4.6393 14.4688-6.6562 3.478-1.2724 6.915-2.4022 10.375-3.375zm2.2187,3.0938c.2038,.3813 .4027,.7563 .5625,1.1562 .0083,.0208 .0231,.0416 .0312,.0625-.2647,.0733-.5001,.1449-.75,.2188 .0425-.4789 .0883-.9604 .1562-1.4375zm15.5,2.375c.6784,.0867 1.3535,.1975 2.0312,.3125 1.7529,1.0023 3.535,1.9169 5.375,2.75-.0386,.1875-.0847,.3742-.125,.5625-.7546-.2515-1.5209-.5228-2.2812-.75-1.6234-1.0224-3.3325-1.9108-5-2.875zm-14.5,.2812c.1693,.9035 .1678,1.8327 0,2.7188-.1557,.822-.5141,1.6155-1,2.3438-.2251-1.6654-.291-3.3507-.2188-5.0312 .408-.0003 .8173-.0094 1.2188-.0312zm-4.2187,.375c-.158,2.4528 .0174,4.9056 .5,7.3125-.7271,.4621-1.4987,.8251-2.25,1.0312-.0817,.0224-.171,.0361-.25,.0312-.5532-.0336-1.0315-.674-1.5625-.9375-1.5607,.0403-3.1266,.172-4.6875,.2188 .6291-1.3399 1.6811-2.4955 2.4375-3.7812 1.871-1.2695 3.5373-2.9443 5.625-3.8125 .0628-.0261 .1239-.0396 .1875-.0625zm67.375,2.8125c.0202,.0212 .0422,.0413 .0625,.0625-.2829,.1103-.5579,.2408-.8438,.3438 .2619-.129 .5222-.2719 .7812-.4062zm.3438,.3438c.3604,.3659 .7122,.7471 1.0938,1.0938 1.6719,1.5193 3.6459,2.6656 5.4688,4 .1994,.0887 .3954,.19 .5938,.2812-2.5046,.5247-5.0205,.9534-7.6875,1.1562-1.2292,.0935-2.4791,.1359-3.7188,.1562-5.5785,.0917-11.2353-.5482-16.6562-1.9688 .4621,.0315 .9125,.0777 1.375,.0938 3.3331,.1158 6.6504-.666 9.9688-1 .8747-.4141 1.7653-.8031 2.6562-1.1875 2.2743-.7036 4.5914-1.5872 6.9063-2.625zm-38.5938,.5312c.3175,.1253 .6494,.2234 .9688,.3438 .3539,.2004 .7078,.3952 1.0625,.5938-.7039-.2142-1.3945-.4226-2.0938-.6562 .0266-.0968 .0367-.1859 .0625-.2812zm48.6875,8.0312c-1.3547,.8131-2.6816,1.6775-3.9688,2.5938h.875c1.644,0 2.85-1.0588 3.0938-2.5938z" transform="matrix(.72858 0 0 .72858 2.7142 23.34212)"/>
<path opacity=".3" fill="url(#radialGradient3720)" d="m10.1562,6.3438c-.3015,.0968-.5965,.2041-.875,.3438-.5571,.2792-1.0601,.6657-1.5,1.0938-.22,.214-.4094,.4419-.5938,.6875-.1844,.2456-.3554,.5077-.5,.7812-.1138,.2153-.2218,.4301-.3125,.6562-.021,.0523-.0439,.1022-.0625,.1562-.0104,.0302-.0213,.0634-.0312,.0938-.006,.0187 .0058,.0437 0,.0625-.0215,.0713-.0453,.1452-.0625,.2188-.0459,.1967-.092,.3933-.125,.5938-.0524,.318-.0938,.634-.0938,.9688v2 31.2188c.3364,.0189 .6596,.0436 1,.0625v-32.2812-2c0-.3643 .0521-.721 .125-1.0625 .0234-.1095 .0634-.2059 .0938-.3125 .0267-.0944 .0307-.1893 .0625-.2812 .0077-.022 .0232-.0407 .0312-.0625 .0756-.2093 .1802-.4303 .2812-.625 .0573-.108 .1227-.2095 .1875-.3125 .024-.0391 .0374-.0866 .0625-.125 .0941-.141 .2049-.276 .3125-.4062 .1525-.1859 .3221-.3698 .5-.5312 .0992-.0889 .2063-.1692 .3125-.25 .1127-.0865 .2234-.1733 .3438-.25 .0315-.02 .0618-.0432 .0938-.0625 .0074-.0045 .0238,.0044 .0312,0 .232-.1387 .4625-.2748 .7188-.375zm75.6875,0c.2562,.1002 .4867,.2363 .7188,.375 .0074,.0044 .0238-.0045 .0312,0 .1082,.0654 .2099,.1456 .3125,.2188 .1524,.1093 .2991,.2182 .4375,.3438 .0113,.0101 .0201,.021 .0312,.0312 .1656,.153 .3256,.3255 .4688,.5 .1076,.1303 .2184,.2653 .3125,.4062 .0607,.0929 .1329,.184 .1875,.2812 .046,.08 .0834,.1672 .125,.25 .0804,.1638 .156,.3575 .2188,.5312 .008,.0218 .0236,.0405 .0312,.0625 .0679,.1961 .1121,.3869 .1562,.5938 .0729,.3415 .125,.6982 .125,1.0625v2 8.0625c.273-.088 .4876-.1906 .625-.3125 .2083-.1847 .2961-.3944 .375-.5938v-6.1562-2c0-.3347-.0413-.6507-.0938-.9688-.033-.2004-.0791-.3971-.125-.5938-.0251-.0936-.0331-.1895-.0625-.2812-.0099-.031-.0208-.063-.0312-.0938-.0186-.054-.0415-.104-.0625-.1562-.0907-.2261-.1987-.441-.3125-.6562-.1446-.2735-.3156-.5356-.5-.7812-.1844-.2456-.3738-.4735-.5938-.6875-.4399-.4281-.9429-.8145-1.5-1.0938-.2785-.1396-.5735-.247-.875-.3438zm3.1562,22.0938v5.5c.3368-.1824 .688-.3733 1-.5312v-4.5312c-.341-.1275-.6956-.2738-1-.4375zm0,8.1875 0,38.6875c.3365-.0815 .6925-.1822 1-.25v-37.9688c-.3575-.1476-.6853-.3039-1-.4688zm-82,9.7812c-.3311,.0421-.663,.0727-1,.125v1.0312c.3715,.0356 .6922,.0312 .9062,.0312 .0369,0 .0588-.0009 .0938,0v-1.1875zm0,4.7188c-.2164,.1821-.6136,.3596-1,.5312v2.1875c.3484,.012 .694,.022 1,.0625v-2.7812zm0,3.4062c-.3114,.0682-.6297,.1215-1,.1875v7.5c.2849,.0457 .6245,.1211 1,.2188v-7.9062zm0,9.875c-.3346,.0869-.6774,.1775-1,.25v17.3438 2c0,3.324 2.676,6 6,6h12.5625c.0932-.4331 .1533-.9059 .25-1.4062 .0421-.218 .0897-.3988 .125-.5938h-10.9375-2c-2.7818,0-5-2.2182-5-5v-2-16.5938zm82,12.5312 0,4.0625v2c0,2.7818-2.2182,5-5,5h-2-34.9375c.0086,.043 .0236,.1164 .0312,.1562 .1658,.8578 .2694,1.2974 .375,1.8438h27.5625c.0379-.4891 .0358-1.0721 .0625-1.4688 .02-.2975 .0686-.4868 .1562-.4688 .0292,.006 .0518,.0395 .0938,.0938 .228,.2948 .6072,1.142 .9375,1.8438h7.7188c3.324,0 6-2.676 6-6v-2-5.0625c-.1655,.0045-.295,0-.5,0h-.5zm-63.1875,11.0625c.2348,.6762 .4392,1.3832 .5625,2h.75c.2697-.4879 .5527-1.1108 .7812-1.4062 .0968-.1251 .2812,.1031 .5312,.3438 .2501,.2406 .5658,.4851 .9062,.375 .6335-.2048 1.5815-.6982 2-.9688 .1366-.0883 .2714-.1583 .375-.1875 .1036-.0292 .1761-.0175 .25,0 .1478,.0351 .2348,.1462 .3438,.2812 .2179,.2702 .4494,.625 1.0312,.625 .4672,0 .6601-.0314 .7812,.0625 .1212,.0939 .1707,.3211 .375,.875h8.6875c-.0316-.397 .448-1.2225 .8125-2h-18.1875z"/>
<g transform="matrix(.90234 0 0 .88119 4.01988 7.04328)">
<g fill-rule="evenodd">
<path opacity=".7" fill="url(#linearGradient3698)" d="m40.0277,33.4598c-3.7293,.8201-8.1459,1.3826-11.6338,2.9148-3.0068,1.3208-7.9298,4.2834-10.1461,6.8528-.9023,4.5419 13.3699,5.5216 17.3037,6.3648 4.5159,.7732 9.6176,.2272 13.4499,3.1943 2.0058,1.9473 2.8144,5.2524 1.8165,7.871-1.3275,3.1633-4.9693,1.0451-7.2561,2.4415-2.2086,1.4652-1.6406,4.8624-.6489,6.9057 1.3806,1.9953 4.202,2.2172 4.7322,4.9257 2.5832,2.0376 5.1453-2.1326 5.7932-3.9883 2.1147-3.1001 5.1528-4.3628 8.6631-3.8119 2.9183,.1145 4.7263-4.427 1.621-5.6765-1.9501-1.1794-3.7216-2.221-3.8797-4.8616-.4346-3.2173 5.646-4.2666 7.2221-6.6893 2.6177-4.8685-3.5591-11.9307-6.6263-16.0988-1.7701-2.706-4.2293-.1491-6.2408,1.5326-3.4917-.7681-4.3471,.614-6.3477,3.2285-2.8172-.2012-3.4863-3.6813-5.9608-4.5261-.5925-.2712-1.2196-.4676-1.8617-.5792z"/>
<path fill="url(#linearGradient3701)" d="m40.603,41.8967c-2.0817,3.8746-10.6663,1.1438-9.4454,7.3598 2.3731,3.5999 8.2844,4.4094 12.1166,3.0004 3.781-2.065 6.7358-7.8075 3.0067-11.3057-1.6876-1.8756-4.4762-.9849-5.6779,.9456z"/>
<path opacity=".7" fill="url(#linearGradient3703)" d="m46.1384,14.7369c-6.5852,2.9947-8.9528,7.6159-13.4723,12.8111-5.8473,6.968 2.864,3.1174 6.1255,.3866 1.2476-1.058 2.4121-2.2838 3.943-2.9351 1.4429-.0024 2.7861,1.6108 4.2206,.5265 1.0888-.9854 2.4738-1.0792 3.8478-1.2289 1.4579-.2224 1.5922-2.3121 3.2973-1.9443 1.4586,.2884 2.5377-1.2399 1.6214-2.4685-.8346-1.3457-2.2645-2.1496-3.3421-3.2784-2.7518-2.5051-2.5364-3.2329-6.2412-1.869z"/>
</g>
<path opacity=".8" d="m81.0153,40.4471c.2858,.3631 2.9103,2.8313 .3373,.5659-5.9612-4.8948-16.7747-13.3684-21.9683-19.1096 1.4722,1.4858 3.1815,3.1481 .6979,.742-2.7507-2.595-5.3152-5.3772-7.8704-8.1622 1.2744,1.1866 3.5097,3.6984 1.0174,1.0187-2.6675-3.2976-7.7622-2.5137-10.1588,.6718-4.2198,3.8075-8.0871,8.0049-11.3953,12.6179-3.3272,3.8105-7.7175,6.4256-11.3595,9.875-2.0222,2.7823-6.4248,6.5008-3.8389,10.1166-1.2164-1.0479-4.2134-4.0417-.7554-1.85 4.6809,1.565 10.7986,1.739 13.6234,6.4116 1.4379,3.7169-3.479,5.0294-5.269,7.4034-.3899,3.0301-4.6663-2.5589-1.7949-.6733 4.9272,1.073 9.7508,2.728 14.39,4.6735 4.2459,1.4233 5.6103,6.6939 1.3977,9.0083-.6887,2.1366-1.3263,1.2386-2.2995-.3426 2.6097,1.6738 5.5297,.1863 8.3315,.5236 3.1505,.5114 4.3971,7.337 3.1946,7.8611-1.979-1.5896-1.4254-1.6507 .661-1.1891 5.7242,.634 3.9924,.3157 7.2521-.4217-2.5842,1.4631-5.7546,3.5122-8.7729,2.1688-2.3632-.9967-3.0245-7.7372-2.4467-7.4398 3.9084,2.8708-3.3751,1.497-5.202,1.7003-3.0609-.9519-6.2298-4.2638-2.3487-6.5832 2.1726-.8288 .4776-5.7592 2.722-2.4119 2.0902,1.8143-2.2644-1.5286-3.4722-1.4715-3.9576-1.452-8.0847-2.353-12.18-3.3177-5.0435-2.7232 .398-7.0224 2.7364-9.2611 1.5122-1.4426-1.4777-4.1578 .5893-1.7928 1.2954,1.3116 2.8621,2.5343 .2329,.8718-4.1704-1.8081-9.6562-1.3819-12.7786-5.0861-2.6482-4.1085 .4298-8.7102 3.2315-11.7792 3.3235-3.1383 7.213-5.6305 10.3249-9.0202 3.3598-3.2873 6.0007-7.2333 9.5015-10.4029 2.7862-2.6553 5.536-6.6039 9.8847-6.1643 4.279,1.8586 7.3086,5.8698 10.5052,9.1727 1.3695,1.679-3.6791-3.7286-.6984-.6645 1.7029,1.7154 6.008,5.9023 5.9837,6.0448-3.2222-3.1986 3.426,3.1537 4.6224,3.8477 4.1317,3.3158 13.0741,10.2585 16.56,14.2859-1.0626-.8125-2.1252-1.6251-3.1878-2.4376z"/>
<path opacity=".8" d="m63.2025,30.8788c-1.021-.6775-2.0135-1.3989-3.0061-2.1175-.7772-.5135-1.4585-1.1824-2.2748-1.636-.4478-.2227-.7451,.0236-1.0193,.3747-.2148,.4347-.357,.9128-.4832,1.3824-.1956,.4238-.334,.8693-.5628,1.277-.2437,.4887-.7471,.7794-1.1868,1.0761-.5069,.3298-1.0165,.3829-1.5562,.1156-.0799-.0585-.169-.106-.2396-.1754-1.0048-.9891-1.999-1.989-2.984-2.9978-.1779-.1822-.1995-.3061-.3391-.5143-.0871-.13-.2584-.3224-.3599-.4407 .8585,.869 1.7169,1.738 2.5754,2.6069-.1007-.0773-.2597-.2934-.4157-.2751-.1421,.0167-.2713,.1901-.3513,.2697-.3973,.6395-.7539,1.3032-1.1777,1.9261-.3007,.4557-.6011,.9086-.8783,1.3792-.2893,.4438-.7487,.5942-1.2451,.6784-.6853,.0749-1.2295-.2951-1.732-.7125-1.7147-1.5666-3.2362-2.5131-3.5221-4.6472-.1358-.5415-.1518-1.0916-.58-1.4894 .8703,.885 1.7482,1.7625 2.6108,2.655 .0508,.0526-.1114-.0956-.1739-.1336-.2621-.1593-.5754-.199-.8749-.2075-.4116,.0445-.8242,.1086-1.1953,.2992-.3329,.2398-.6824,.4788-.9182,.8199-.2489,.337-.4956,.6689-.8015,.9571-1.7774,1.193-4.057,1.5103-6.0985,1.9781-4.5224,1.0046-8.828,2.7375-13.1254,4.4268l-1.9366-2.096c4.1847-1.8 8.36-3.6644 12.7603-4.8889 1.903-.5743 3.9653-1.0231 5.5729-2.2569 .2808-.2794 .5158-.593 .7531-.9093 .2874-.3756 .6649-.6559 1.0378-.9425 .4113-.2449 .865-.335 1.3333-.4126 1.9704-.2715 3.0255,1.7591 4.2566,3.1056 .2642,.5069 .3353,1.0752 .4509,1.6298 .3767,1.7905 2.4446,3.1684-1.8865-1.0841 .386,.4138 .8493,.8273 1.4313,.9045 .3857-.0391 .7619-.0804 .9867-.4362 .2938-.4649 .6059-.9149 .9178-1.3674 .4334-.6419 .8164-1.314 1.2173-1.9756 .2636-.2946 .5772-.6859 1.0217-.5269 .0758,.0271 .1584,.0518 .2161,.108 1.007,.9808 1.9795,1.9963 2.9692,2.9945 .1745,.2322 .3294,.4795 .5116,.7058 .0638,.0792 .2725,.3016 .1997,.2307-.8043-.7839-3.6031-3.56-2.396-2.3689 .4186,.3793 .6791,.4801 1.1997,.1866 .3951-.2516 .8352-.5018 1.0429-.9397 .2-.3908 .3324-.8116 .5063-1.2143 .1587-.5095 .3067-1.0376 .5963-1.4895 .3566-.441 .8002-.8617 1.4129-.7252 .9298,.3447 1.5946,1.1728 2.422,1.6944 .937,.6917 1.9104,1.3322 2.8485,2.02l2.4698,3.179z"/>
<path opacity=".8" d="m24.4714,68.96c-.3658,.3464-.6219,.7595-.7787,1.2352-.0797,.362-.1566,.7803 .0274,1.1283 .0571,.1079 .1391,.2006 .2087,.301 .4392,.5803 .9495,1.0986 1.5384,1.5255 .3894,.2954 .8273,.4608 1.3067,.5282 .3975,.0367 .7964,.021 1.1865-.0627 .9023-.3959 1.6821-1.0327 2.4711-1.6155l1.4935-2.2858c-.7467,.5739-1.5034,1.1469-2.327,1.6053-.3649,.0993-.7286,.1459-1.1091,.1212-.4439-.031-.8504-.1511-1.2142-.4191-.5746-.3813-1.0729-.8637-1.4579-1.4383-.2383-.4839-.2129-.7657-.037-1.2684 .2086-.4578 .5327-.8231 .8419-1.2147l-2.1504,1.8599z"/>
<path opacity=".8" d="m35.6154,55.1122c.2082,.2504 .7591,.7768 .7685,.8407-.6171-.5673-1.226-1.1442-1.8665-1.6854 .8262,.8773 1.9327,1.4446 3.1044,1.6966 1.0925,.28 2.177,.5924 3.2562,.9154 1.6375,.3531 3.3159,.4569 4.981,.598 .7286-.0081 1.924,.1819 2.0991-.7894 .147-.8395-.482-1.4931-.9689-2.0847 .652,.5825 1.2726,1.2014 1.9278,1.7814-.6309-.5738-1.433-.916-2.2433-1.1516-.6249-.7084-1.2498-1.4167-1.8747-2.1251 1.0993,.2994 2.1567,.8036 2.9762,1.6096 .7835,.7058 1.6405,1.3918 2.1689,2.3195 .3677,.6955 .4216,1.7594-.3374,2.2163-.7963,.4559-1.7507,.2433-2.6195,.2273-1.8308-.1936-3.7007-.2611-5.4612-.8474-1.4541-.5097-3.0474-.6601-4.379-1.4829-.7907-.5093-1.305-1.3299-2.0363-1.9135-.4774-.4156-1.0219-.7386-1.4394-1.2208-.5192-.6692 .5459,.2013 .8109,.341 .3777,.2517 .7555,.5033 1.1332,.755z"/>
<g fill-rule="evenodd">
<path fill="url(#linearGradient3705)" d="m36.768,59.7292c1.9758,1.2628 4.4165,1.1994 6.6708,1.154 2.1691-.0382 4.5258-.1194 6.4234,1.1082 .6174,.4335 1.3213,.9227 1.4384,1.7272 .4392,1.7416-.5902,3.4777-1.8895,4.5664-1.5214,1.2775-3.6017,2.1346-5.6019,1.6902-1.2709-.2787-2.2566-1.3329-2.6307-2.555-1.5763-2.5012-3.0032-5.0924-4.4106-7.6911z"/>
<path fill="url(#linearGradient3707)" d="m55.453,36.6273c2.4493,1.7852 3.6036,4.3398 4.6849,6.6966 1.0467,2.2665 2.1383,4.7376 4.5077,6.4489 .8102,.5494 1.7281,1.1769 2.7145,1.1256 2.2286,.0822 3.7123-1.3633 4.314-2.9504 .7076-1.8591 .6496-4.2094-.8686-6.1962-.9603-1.2632-2.6714-2.0624-4.2682-2.1887-3.676-1.1026-7.3807-2.0302-11.0842-2.9358z"/>
</g>
</g>
<path opacity=".5" fill="url(#linearGradient3651)" d="m12,6c-3.324,0-6,2.676-6,6v33.2188c.3364,.0189 .6596,.0436 1,.0625v-32.2812c0-2.7818 2.2182-5 5-5h2.0625l1.25,8c.0633,.4988 .4972,.8671 1,.875 .5028,.0079 .9212-.3472 1-.8438l1.0312-5.2812 .625,2.0312c.1402,.4257 .552,.702 1,.6875 .448-.0145 .825-.3161 .9375-.75l1.0938-4.7188h5.4688c.1308,.1154 .3314,.265 .3438,.2812 .3458,.4573 .4922,.9313 1.2812,1.2188 .3897,.1419 .8345,.0859 1.125-.0312 .2905-.1171 .5178-.2633 .7812-.4375 .4731-.3127 .5473-.6784 .7188-1.0312h.75c.1457,.4248 .2501,.9218 .4688,1.5 .0525,.1388 .0617,.2487 .2812,.5 .1098,.1257 .3687,.4189 .875,.375 .5063-.0439 .7622-.433 .8438-.5938 .1632-.3216 .1144-.4058 .125-.5312 .0106-.1254 .0002-.2423 0-.375-.0004-.2396-.0154-.5769-.0312-.875h48.9688c2.7818,0 5,2.2182 5,5v7.9375c-.0065,.0082-.0225,.0547-.0312,.0625-.0121,.0107-.1566,.0964-.625,.1875-1.2129,.236-2.5404,.3454-3.6562,.5625-.3229,.0628-.642,.1239-.9688,.1875-.0309,.006-.0701,.0134-.125,.0312-.0549,.0178-.2492,.1245-.25,.125-.0004,.0002-.1873,.156-.1875,.1562-.0002,.0003-.2186,.3435-.2188,.3438-.0001,.0003-.0313,.4685-.0312,.4688 0,.0003 .1248,.3747 .125,.375 .0002,.0003 .1559,.2184 .1562,.2188 .0003,.0003 .0599,.0684 .0938,.0938 .0678,.0507 .1193,.075 .1562,.0938 .0738,.0375 .124,.0516 .1562,.0625 .1291,.0437 .153,.0494 .2188,.0625 .1314,.0263 .2984,.0615 .5,.0938 .4031,.0646 .9542,.1255 1.5312,.2188 .2182,.0353 .4077,.0876 .625,.125-.0026,.2034-.0443,.4178 .0312,.5625 .2438,.4672 .5418,.5257 .7812,.625 .1559,.0647 .3466,.1108 .5312,.1562 .0075,.0424 .026,.0483 .0312,.1875 .0127,.3347-.0486,.7586-.0625,1.1875-.0794,.0266-.1629,.0485-.3125,.1562-.2094,.1509-.4419,.5099-.4688,.8438-.058,.7198 .2001,.8805 .4375,1.25 .4271,.6648 1.0062,.9373 1.5625,1.1562v3.2188c-1.1699,.6119-2.453,1.3441-3.0938,1.4688-.8156,.1587-1.8026,.4211-2.2812,.5625-.0624,.0184-.1293,.0423-.1875,.0625-.0582,.0202-.0611,.0085-.25,.125-.0472,.0291-.1101,.0384-.2188,.1562-.0272,.0295-.0935,.1247-.0938,.125-.0002,.0003-.0936,.1872-.0938,.1875-.0001,.0003-.0937,.281-.0938,.2812-0,.0003 .0312,.3435 .0312,.3438 .0001,.0003 .1248,.3122 .125,.3125 .0002,.0003 .1872,.2185 .1875,.2188 .0003,.0002 .1559,.1248 .1562,.125 .0004,.0002 .0882,.0478 .125,.0625 .1472,.059 .2263,.0564 .2812,.0625 .2198,.0244 .2444,.0073 .3125,0 .2726-.0293 .6493-.1027 1.4062-.25 .8365-.1627 1.3866-.0787 1.7188,.0312 .3276,.1084 .4172,.2133 .625,.375 .4485,.349 .8982,.5194 1.3438,.7188v36.5625c-.8184,.197-1.2574,.3296-2.0312,.5312 .9684-.256 2.0997-.5446 3.0312-.75v-37.9688c-.6376-.2632-1.1884-.4936-1.7188-.9062-.1392-.1083-.4297-.3632-.9375-.5312-.5078-.168-1.2351-.2539-2.2188-.0625-1.4978,.2914-1.6442,.282-1.2188,.1562 .4255-.1257 1.4243-.3828 2.1875-.5312 1.1259-.219 2.6582-1.1805 3.9062-1.8125v-4.5312c-.6821-.2549-1.3986-.533-1.7188-1.0312-.2048-.3188-.2902-.5143-.2812-.625 .0089-.1107 .1045-.1496 .2188-.1875 .1143-.0379 .2637-.0557 .375-.1562 .1113-.1006 .1875-.2952 .1875-.5938 0-.3191 .082-.8619 .0625-1.375-.0097-.2565-.0377-.4995-.125-.6875-.0873-.188-.2242-.3335-.4375-.375-.5612-.1092-.8182-.235-.875-.3438-.0568-.1088 .0769-.1905 .2812-.2812 .4086-.1816 1.1011-.3082 1.0938-.3125-.6531-.3812-5.1164-.9218-4.875-.9688 .3248-.0632 .6439-.1243 .9688-.1875 1.0233-.1991 2.3697-.3122 3.6562-.5625 .5599-.1089 .8855-.2528 1.0938-.4375 .2083-.1847 .2961-.3944 .375-.5938v-8.1562c0-3.324-2.676-6-6-6h-50.0312c.0943,1.3811 .1947,2.919-.0938,2.1562-.2055-.5435-.3257-1.1128-.5312-1.6562-.052-.1375-.0975-.3315-.1562-.5h-1.9688c-.2351,.4865-.4574,.9734-.7812,1.1875-.4951,.3273-.7603,.4623-1,.375-.2397-.0873-.4541-.4012-.8125-.875-.1599-.2115-.4419-.4345-.75-.6875h-6.6562l-1.2812,5.5-1.6875-5.5h-.2188l-1.7188,8.8438-1.375-8.8438h-2.9375zm74.9688,69.8125c-.8912,.2323-2.0775,.5247-2.3438,.5938-.6077,.1576-1.0127,.2428-1.3125,.3438-.1499,.0505-.2265,.0367-.5312,.2812-.0762,.0611-.1775,.1353-.2812,.3438-.1038,.2085-.1552,.5986-.0312,.875 .2479,.5527 .5333,.5547 .6562,.5938 .2395,.076 .3501,.0517 .5,.0625 .1499,.0108 .3041,.027 .5,.0312 .3918,.0084 .9005,0 1.5,0 1.1317,0 2.2478,0 3.375,0v6.0625c0,2.4341-1.7118,4.4436-4,4.9062 2.8472-.4714 5-2.9214 5-5.9062v-7.0625c-.1655,.0045-.295,0-.5,0-1.2994,0-2.5756,0-3.875,0-1.198,0-1.996-.0017-2.1875-.0625-.1915-.0608 .2305-.1869 1.4375-.5 .3199-.083 1.1254-.3065 2.0938-.5625zm-77.25-30.375c.8084,.0605 1.5368,.1356 2.0312,.2188 .6456,.1085-.1083,.2421-1.125,.3438-1.0167,.1017-2.3136,.1974-2.8125,.2812-.6077,.1022-1.2007,.1551-1.8125,.25v1.0312c.3715,.0356 .6922,.0312 .9062,.0312 .79,0 1.1323,.2198 1.2812,.5625 .149,.3427 .0938,.8151 .0938,1.375 0,.4198-.9158,.6714-1.125,1.375-.0748,.2515-.618,.5109-1.1562,.75v2.1875c.7185,.0247 1.4116,.0597 1.8125,.3125 .2752,.1735-.7686,.3763-1.8125,.5625v7.5c.2849,.0457 .6245,.1211 1,.2188v-5.9062c.2214-.0451 .4652-.0738 .6562-.125 .2147-.0575 .3773-.0788 .6562-.25 .1395-.0856 .4309-.2176 .5312-.75 .0502-.2662-.0348-.595-.1562-.7812-.1215-.1862-.2468-.2514-.3438-.3125-.461-.2906-.9065-.3979-1.3438-.4375v-.5625c.0948-.0486 .1876-.1007 .2812-.1562 .2849-.1692 .6429-.2934 .8438-.9688-.0008,.0026 .0759-.0926 .3125-.2812 .1183-.0943 .2634-.1921 .4375-.375 .1741-.1829 .4062-.5278 .4062-1 0-.4934 .1644-1.0436-.1562-1.7812-.0913-.2101-.3406-.3524-.5312-.5312 .5693-.0607 1.3221-.1384 2.125-.2188 .5273-.0527 .9689-.0923 1.3438-.1875 .0937-.0238 .164-.0525 .3125-.125 .0742-.0363 .1747-.0804 .3125-.2188 .1378-.1384 .3694-.4796 .3125-.875-.0569-.3954-.3059-.5926-.4375-.6875-.1316-.0949-.2087-.1299-.2812-.1562-.145-.0527-.2618-.0747-.375-.0938-.563-.0947-1.3328-.1612-2.1875-.2188zm-2.7188,17c1.0897,.2834 2.3965,.7119 2.875,.8125 1.0648,.2238 1.1853,.336 .8438,.4375-.3416,.1015-1.1303,.1768-1.9375,.3125-.9553,.1606-1.8942,.4569-2.7812,.6562v19.3438c0,2.9849 2.1528,5.4349 5,5.9062-2.2882-.4626-4-2.4721-4-4.9062v-18.5312c.6616-.1696 1.3233-.3655 1.9375-.4688 .7613-.128 1.4445-.1601 2.0625-.3438 .1496-.0445 .3504,.0498 .7188-.4688 .1842-.2592 .1978-.8419 .0312-1.125-.1666-.2831-.3296-.376-.4375-.4375-.4317-.2461-.6606-.2577-1.2188-.375-.1881-.0395-.9288-.2474-1.6875-.4688-.4736-.1382-.9398-.2305-1.4062-.3438zm39.0625,20.5938c-.0004,0-.5308,.1872-.5312,.1875-.0004,.0003-.2496,.2495-.25,.25-.0004,.0005-.0724,.1094-.0938,.1562-.0213,.0468-.0526,.0941-.0625,.125-.0197,.0618-.0254,.0928-.0312,.125-.0439,.2414-.0008,.2275 0,.2812 .0008,.0537-.0004,.1067 0,.1562 .0031,.4255-.0182,1.1704-.0625,1.6875-.0891-.0473-.119-.105-.25-.125-.0523-.008-.1037-.0018-.1562,0 .0149-.013 .0149,.0181 .0312,.0625 .0656,.1778 .1677,.771 .4375,1.4688 .1079,.279 .2162,.3573 .3125,.2812 .0963-.0761 .1708-.2971 .25-.5625 .1584-.5308 .287-1.269 .3438-1.5625 .1281-.6624 .0973-1.7611 .0938-2.25-.0009-.1222-.0058-.2182 0-.25 .0174-.0954 .0853,.2959 .2812,1.5625 .16,1.0345 .5517,2.667 .7188,3.5312 .1658,.8578 .2694,1.2974 .375,1.8438h.8438c-.0652-.3105-.1273-.5584-.2188-1.0312-.1779-.9203-.5723-2.553-.7188-3.5-.0983-.6352-.1713-1.0469-.2188-1.3125-.0237-.1328-.0286-.2209-.0625-.3438-.0085-.0307-.0089-.0673-.0312-.125-.0112-.0289-.035-.0418-.0625-.0938-.0138-.026-.037-.0559-.0625-.0938-.0255-.0378-.0933-.1557-.0938-.1562-.0005-.0005-.2808-.1873-.2812-.1875-.0005-.0002-.4996-.125-.5-.125zm-1.4375,2.8438c-.2838,.0098-.5604,.1389-.6875,.25-.3013,.2632-.2823,.3853-.3125,.4688-.0302,.0834-.0169,.1286-.0312,.1875-.0573,.2355-.1267,.5237-.2188,1-.0349,.1805-.3093,.796-.5938,1.375-.138,.281-.2912,.5569-.4062,.8438h.8125c-.0467-.5869 1.0134-2.131 1.1875-3.0312 .1399-.7234 .2054-1.0548 .25-1.0938zm-19.375,1c.1043-.0325 .2436,.1989 .4688,.7812 .2973,.7687 .5124,1.6241 .6562,2.3438h.75c.2697-.4879 .5527-1.1108 .7812-1.4062 .0097-.0125 .0198-.0255 .0312-.0312-.3118,.0409-.6862,.2025-.8438,.4062-.074,.0956-.093,.1826-.1562,.2812-.0971-.33-.1551-.6425-.2812-.9688-.1216-.3145-.2053-.5506-.3438-.7812-.0692-.1153-.1326-.224-.3125-.375-.1349-.1133-.4354-.2419-.75-.25zc-.1049-.0027-.2095-.0008-.3125,.0312-.3769,.1173-.4864,.3285-.5625,.4375-.0761,.109-.1004,.1665-.125,.2188-.1573,.3344-.192,.5765-.25,.875-.058,.2985-.1219,.6292-.1875,.9688-.0449,.2323-.0599,.389-.0938,.5938h.8438c.0932-.4331 .1533-.9059 .25-1.4062 .1371-.7091 .2265-1.3446 .3438-1.5938 .0293-.0623 .059-.1142 .0938-.125zm49.9062,1.1875c-.3035,.048-.5902,.2265-.7188,.375-.1715,.198-.2142,.3225-.25,.4375-.0716,.23-.081,.4047-.0938,.5938-.0113,.1688-.0255,.3475-.0312,.5312h.9688c.0379-.4891 .0358-1.0721 .0625-1.4688 .02-.2975 .0686-.4868 .1562-.4688-.0302,.002-.0634-.0048-.0938,0zm.0938,0c.0292,.006 .0518,.0395 .0938,.0938 .228,.2948 .6072,1.142 .9375,1.8438h.6562c-.0846-.1805-.1655-.3585-.25-.5312-.1732-.3539-.2966-.6341-.5312-.9375-.0131-.0169-.0494-.0423-.125-.125-.0756-.0827-.2359-.2765-.5625-.3438-.0668-.0137-.1482-.0046-.2188,0zm-43.5625,.0938c-.085,.005-.167,.0079-.25,.0312-.2894,.0815-.4696,.1919-.6562,.3125-.2762,.1785-1.094,.5589-1.5938,.75-.0248-.0207-.0332-.0031-.0625-.0312-.0995-.0957-.1764-.2163-.375-.375-.0993-.0794-.214-.2123-.5312-.2812-.0617-.0134-.1408-.0057-.2188,0 .1044,.0227 .25,.1945 .4375,.375 .2501,.2406 .5658,.4851 .9062,.375 .6335-.2048 1.5815-.6982 2-.9688 .1275-.0824 .2433-.1553 .3438-.1875zm.3125,0c.1307,.042 .2108,.1552 .3125,.2812 .2135,.2647 .4437,.6111 1,.625-.0125-.0097-.0838-.0828-.2188-.25-.1039-.1289-.3787-.4999-.9062-.625-.0364-.0086-.1185-.0225-.1875-.0312zm1.9062,.9062c.0988,.0061 .1653,.0211 .2188,.0625 .1212,.0939 .1707,.3211 .375,.875h.6875c-.0697-.1829-.1337-.4522-.4375-.6875-.3088-.2392-.6496-.2438-.8438-.25z"/>
<path opacity=".1" fill="url(#linearGradient2908)" filter="url(#filter3794)" stroke="#fff" stroke-linecap="round" stroke-width=".5" d="m-13,15h42a12,12 0 0,1 12,12v42a12,12 0 0,1 -12,12h-42a12,12 0 0,1 -12-12v-42a12,12 0 0,1 12-12" clip-path="url(#clipPath2977)" transform="translate(40)"/>
<g fill-rule="evenodd">
<path opacity=".3" fill="url(#linearGradient3873)" filter="url(#filter3751)" d="m89.5888-19.8984c-.5555-.2448-2.5528,2.6603-5.2726,7.2385-2.7198,4.5782-6.1719,10.859-9.77,17.7554-3.5981,6.8964-7.3003,14.3551-10.5143,21.1497-2.99,6.321-5.5299,12.0253-7.1411,16.2843-.1308,.0356-.2574,.1074-.3102,.239l-1.1593,2.6309c-.0551,.1202-.0535,.2587 .0044,.3776 .12,.2625 .1283,.5613-.0005,.8535-.1287,.2922-.3549,.4877-.6296,.5763-.1268,.0375-.2301,.1298-.2816,.2516l-1.5121,3.4316c-.0551,.1202-.0535,.2587 .0044,.3776 .12,.2625 .1283,.5613-.0005,.8535-.1287,.2922-.3549,.4877-.6296,.5763-.1268,.0375-.2301,.1298-.2816,.2516l-1.5121,3.4316c-.0551,.1202-.0535,.2587 .0044,.3776 .12,.2625 .1283,.5613-.0005,.8535-.1288,.2922-.3549,.4877-.6296,.5763-.1268,.0375-.2301,.1298-.2816,.2516l-.756,1.7158c-.0902,.2105-.0022,.4557 .1953,.5642-.4989,.4249-.9534,1.0011-1.2858,1.7556-7.1293,16.1799-4.4225,15.7676-10.1522,24.2803 8.9573-5.0944 13.0314-6.0143 19.4292-20.5341 .2736-.6208 .359-1.2473 .3019-1.8476 .2133,.0726 .4537-.0279 .5482-.2365l.756-1.7158c.0551-.1202 .0535-.2587-.0044-.3776-.12-.2625-.1283-.5613 .0005-.8535 .1287-.2922 .3549-.4877 .6296-.5763 .1268-.0375 .2301-.1298 .2816-.2516l1.5121-3.4316c.0551-.1202 .0535-.2587-.0044-.3776-.12-.2625-.1283-.5613 .0005-.8535 .1288-.2922 .3549-.4877 .6296-.5763 .1268-.0375 .2301-.1298 .2816-.2516l1.5121-3.4316c.0551-.1202 .0535-.2587-.0044-.3776-.12-.2625-.1283-.5613 .0004-.8535 .1288-.2922 .3549-.4877 .6296-.5763 .1268-.0375 .2301-.1298 .2816-.2516l1.1593-2.6309c.053-.1236 .051-.2656-.0044-.3776 2.0559-4.0632 4.5524-9.7864 7.1983-16.2591 2.8441-6.9576 5.8529-14.7219 8.5126-22.0317 2.6596-7.3099 4.968-14.0948 6.51-19.1919 1.542-5.097 2.3106-8.5436 1.7552-8.7884z" transform="matrix(.70778 .05115 -.05115 .70778 30.32748 16.34591)"/>
<g transform="matrix(.68544 .18366 -.18366 .68544 -18.34578 -31.86947)">
<path d="m136.4922,126.382c8.2631-7.8022 3.5078-8.6381 3.5078-26.3191 0-6.448 10-5.5288 10-.3125 0,15.8668-2.769,19.8605-13.5078,26.6316z"/>
<path opacity=".3" fill="url(#linearGradient3969)" d="m140.4232,97.1223c.5238,3.8352 .8394,5.9463 .9917,14.065 .2435-3.4276 .1945-12.238 .8516-13.0293 .1535,4.5321 0,9.3178 0,13.9504 0,3.1828 .7057-8.3044 .7057-8.5503 0-1.6076 .1007-3.2139 .1007-4.8216 0-.9583 .3543,1.8777 .4608,2.8286 .5249,4.6864 .1767,9.3516-.3456,14.0147-.7221,6.4475 .1747,2.0343 .4608-1.4786 .2452-3.0105 .9216-5.703 .9216-8.7431 0-2.626-.5066-9.5902 .1152-6.8145 1.2037,5.3735 1.1575,11.4064 .3456,16.8434-.0675,.4519-.1536,.9-.2304,1.35-.1409,.8253 .1459-1.6724 .2304-2.5072 .496-4.9026 .576-8.7278 .576-13.629 1.4636-4.948 1.1742,11.7863 .8064,14.0147 .6524-4.5563 .6795-7.6596 .864-11.5075 0-2.0455-.7505-7.2406-.2304-5.4644 .5745,1.9621 1.1383,7.2963 1.1383,11.186 0,5.6661 0-4.2316 0-4.8216 0-.1109 0-11.4458 0-5.8502 0,3.6901 1.0773,.7233 .3702,13.1291 .8578-3.9304 .7955-11.0567 .7955-13.2577 0-.5478 .0535-.9023-.4032-1.1572-3.1803-.7793-5.8794-2.276-8.525,.2501z"/>
<path opacity=".405" fill="url(#linearGradient3971)" d="m145.8125,95.8125c-.1707,.0052-.3581,.012-.5312,.0312-1.1398,.1266-2.3217,.5456-3.5938,.9062 0,.3023 0,1.144 0,2.1875 0,2.1465 0,5.0073 0,5.0625 0,.0328 0,.4451 0,.5312 .2067-2.8355 .5548-5.5994 .9375-6.9062 .0329-.1125 .0689-.1865 .0937-.25 .0248-.0635 .044-.1148 .0937-.1562 .0124-.0104 .004-.0283 .0312-.0312 .0276-.003 .0762,.0165 .0937,.0312 .035,.0296 .0256,.0712 .0312,.0938 .0113,.0452 .0302,.0867 .0312,.1562 .004,.2783-.0339,.8054-.0937,1.4688-.1198,1.3267-.3125,3.1444-.3125,4.1562 .4374,5.2435 .2965,11.4944 .4062,1.8125 .0292-1.9258 .1079-3.6072 .2812-4.5312 .0433-.231 .0972-.4306 .1562-.5625 .0295-.0659 .0517-.1143 .0937-.1562 .042-.042 .0932-.0679 .1562-.0625 .0631,.0054 .1114,.0469 .1562,.0938 .0448,.0469 .0835,.1085 .125,.1875 .0829,.158 .1889,.3751 .2812,.6875 .002,.0103 .002,.0209 0,.0312 0,.9556 .0431,1.8486 .0937,2.7188 .1164-1.6327 .3099-3.2661 .6562-4.8125 .0392-.1748 .0934-.302 .125-.4062 .0316-.1042 .0284-.1667 .0625-.2188 .017-.026 .0434-.0502 .0937-.0625 .0252-.0062 .0719-.0119 .0937,0 .0218,.0119 .0218,.0174 .0312,.0312 .0376,.0554 .0516,.107 .0625,.1875 .0434,.3222 .0233,1.013 0,1.875-.0465,1.7239-.1562,4.1302-.1562,5.4375 2.978,20.5152-.3489,11.7317 .8438-3.7812 .0534-.4769 .1771-1.4191 .2812-2.125 .0521-.3529 .0872-.6591 .125-.8125 .009-.0384 .0195-.067 .0312-.0938 .006-.0134 .006-.0094 .0312-.0312 .003-.0027 .0309-.031 .0312-.0312 .0007-.0003 .0618-.0001 .0625,0 .0007,.0001 .0306-.0004 .0312,0 .0003,.0002-.0003,.031 0,.0312 .0003,.0003 .0285-.0034 .0312,0 .0217,.0274 .0281,.0473 .0312,.0625 .003,.0152-.002,.0131 0,.0312 .003,.0362 0,.0949 0,.1562 .2363,3.4824 .1478,6.8958-.5348,10.3438 .2336,7.1713 1.1113-10.1595 1.1285-10.9375-.002-.0103-.002-.0209 0-.0312 .008-.0128 .0184-.0236 .0312-.0312 .008-.0128 .0184-.0236 .0312-.0312 .0103-.0018 .0209-.0018 .0312,0 .0103-.0018 .0209-.0018 .0312,0 .0128,.0077 .0236,.0184 .0312,.0312 .1086,.1308 .1864,.3592 .25,.6875 .7006,3.2857-.3932,6.5808-.1759,9.8717 .7389-5.8654 1.1549-8.14 1.6134-11.4967-1.131-1.0654-2.2545-1.3801-3.4375-1.3438zm-4.3115,.9688c-.214,.0593-.4054,.1337-.625,.1875-.2116,.1181-.2726,.2369-.3125,.4062-.0399,.1694-.0313,.3796-.0312,.6562 0,1.9495 .4839,7.701 1.0616,11.7176-.7153-3.8759-.2156-7.7228-.0928-11.5926 0-.6995 0-1.1495 0-1.375z" transform="matrix(1 0 0 1.36587 0 -35.05392)"/>
<path fill="url(#linearGradient3973)" d="m136.4922,126.382c8.2631-7.8022 3.5078-8.6381 3.5078-26.3191 0-6.448 10-5.5288 10-.3125 0,15.8668-2.769,19.8605-13.5078,26.6316z"/>
</g>
<g transform="matrix(.68544 .18366 -.18366 .68544 -18.34578 -31.86947)">
<path fill="url(#linearGradient3975)" stroke="url(#linearGradient3977)" stroke-linecap="square" stroke-width=".758" d="m142.5704,66.302c5.2447,0 13.1117,13.6261 10.4894,18.1682-2.6224,4.542-18.3564,4.542-20.9788-0-2.6224-4.542 5.2447-18.1682 10.4894-18.1682z" transform="matrix(.42277 0 0 3.89203 84.72575 -249.77347)"/>
<path opacity=".5" fill="#ff8b49" filter="url(#filter3526)" d="m143.6744,22.3982c-.0922,0-.3225,1.8216-.5685,5.9438-.246,4.1221-.5064,10.1187-.7168,16.6205-.2104,6.5018-.374,13.5116-.4511,19.3723-.0771,5.8606-.0462,10.353 0,11.7775 .0461,1.4216 .2449,4.0962 .5685,5.8337 .3237,1.7375 .7525,2.7517 1.1742,2.7517 .4216,0 .8443-1.0142 1.168-2.7517 .3237-1.7375 .5225-4.4121 .5685-5.8337 .046-1.4193 .0776-5.9174 0-11.7775-.0776-5.8601-.2461-12.8696-.4573-19.3723-.2112-6.5027-.4702-12.4965-.7168-16.6205-.2466-4.124-.4763-5.9438-.5685-5.9438z"/>
</g>
</g>
<g transform="matrix(.74236 .19892 -.18366 .68544 -26.29253 -34.08098)">
<path fill="url(#linearGradient3979)" fill-rule="evenodd" stroke="url(#linearGradient3981)" stroke-linecap="square" stroke-width="1.354" d="m140.5,78.5 0,2.875c.3089,.2748 .5,.6793 .5,1.125 0,.4457-.1911,.8502-.5,1.125v3.75c.3089,.2748 .5,.6793 .5,1.125 0,.4457-.1911,.8502-.5,1.125v3.75c.3089,.2748 .5,.6793 .5,1.125 0,.4457-.1911,.8502-.5,1.125v1.875h9v-1.875c-.3089-.2748-.5-.6793-.5-1.125 0-.4457 .1911-.8502 .5-1.125v-3.75c-.3089-.2748-.5-.6793-.5-1.125 0-.4457 .1911-.8502 .5-1.125v-3.75c-.3089-.2748-.5-.6793-.5-1.125 0-.4457 .1911-.8502 .5-1.125v-2.875h-9z"/>
<g fill-rule="evenodd" id="g3493">
<path opacity=".2" fill="url(#linearGradient3983)" d="m139.9946,81 0,.5797c.338,.3222 .4646,.4203 .5076,.9203h8.9949c.0372-.489 .1275-.5785 .4986-.9062v-.5938h-10.0011z"/>
<path opacity=".3" fill="url(#linearGradient3985)" d="m139.9946,83.9844 0-.5797c.338-.3222 .4646-.4203 .5076-.9203h8.9949c.0372,.489 .1275,.5785 .4986,.9062v.5938h-10.0011z"/>
</g>
<use width="128" height="128" xlink:href="#g3493" transform="translate(0 6)"/>
<use width="128" height="128" xlink:href="#g3493" transform="translate(0 12)"/>
</g>
<path opacity=".8" fill="url(#linearGradient3743)" filter="url(#filter3905)" fill-rule="evenodd" d="m115.5986,22.4583c-.3046-.3046-2.372,1.1041-5.3471,3.434-2.9751,2.3299-6.8719,5.598-11.0235,9.2359-4.1515,3.6378-8.5164,7.6209-12.3877,11.29-3.6015,3.4134-6.7468,6.5345-8.9066,8.9379-.0956-.01-.1979,.0049-.2666,.0784l-1.4426,1.4426c-.0673,.0654-.1018,.1574-.0941,.2509 .0119,.2044-.0593,.4043-.2195,.5645-.1602,.1602-.3601,.2315-.5645,.2195-.0935-.0077-.1855,.0268-.2509,.0941l-1.8817,1.8817c-.0673,.0654-.1018,.1574-.0941,.2509 .0119,.2044-.0593,.4043-.2195,.5645-.1602,.1602-.3601,.2315-.5645,.2195-.0935-.0077-.1855,.0268-.2509,.0941l-1.8817,1.8817c-.0673,.0654-.1018,.1574-.0941,.2509 .0119,.2044-.0593,.4043-.2195,.5645-.1602,.1602-.3601,.2315-.5645,.2195-.0935-.0077-.1855,.0268-.2509,.0941l-.9408,.9408c-.1138,.1161-.1185,.3009-.0157,.4234-.4391,.1529-.8878,.4174-1.3015,.8311-8.8719,8.8719-6.9754,9.2944-12.9522,13.4539 7.2338-1.0693 10.1651-.6313 18.1268-8.593 .3404-.3404 .5579-.7329 .6743-1.1447 .1225,.1028 .3073,.0981 .4234-.0157l.9408-.9408c.0673-.0653 .1018-.1574 .0941-.2509-.0119-.2044 .0593-.4043 .2195-.5645 .1602-.1602 .3601-.2315 .5645-.2195 .0935,.0077 .1855-.0268 .2509-.0941l1.8817-1.8817c.0673-.0653 .1018-.1574 .0941-.2509-.0119-.2044 .0593-.4043 .2195-.5645 .1602-.1602 .3601-.2315 .5645-.2195 .0935,.0077 .1855-.0268 .2509-.0941l1.8817-1.8817c.0673-.0654 .1018-.1574 .0941-.2509-.0119-.2045 .0593-.4043 .2195-.5645 .1602-.1602 .3601-.2315 .5645-.2195 .0935,.0077 .1855-.0268 .2509-.0941l1.4426-1.4426c.0668-.0682 .1019-.1626 .0941-.2509 2.4037-2.1598 5.5251-5.3045 8.9379-8.9066 3.6685-3.872 7.6531-8.2353 11.29-12.3877 3.6369-4.1524 6.9066-8.0478 9.2359-11.0235 2.3292-2.9757 3.723-5.0582 3.4184-5.3628z" transform="matrix(.99046 .13781 -.13781 .99046 10.18629 -6.66278)"/>
</svg>
