<svg xmlns="http://www.w3.org/2000/svg" viewBox="0 0 96 96" xmlns:xlink="http://www.w3.org/1999/xlink">
<defs>
<clipPath>
<path fill="#fff" d="m12,6h72a6,6 0 0,1 6,6v72a6,6 0 0,1 -6,6h-72a6,6 0 0,1 -6-6v-72a6,6 0 0,1 6-6"/>
</clipPath>
<clipPath>
<path fill="url(#linearGradient4407)" display="block" d="m30.9162,135.971c-.9373,.5411-1.2283,1.7475-.6779,2.7008l1.9375,3.3559c-1.4181,1.4141-2.6223,3.012-3.5955,4.71l-3.7836-.9909c-.5316-.1424-1.0379-.1175-1.4762,.1306-.4382,.2483-.7965,.6676-.9366,1.1903l-1.9788,7.3851c-.2801,1.0454 .366,2.0654 1.4291,2.3503l3.7722,1.0336c-.0062,1.9571 .2377,3.943 .7588,5.8767l-3.3558,1.9375c-.9533,.5504-1.3044,1.7407-.7633,2.6779l3.8125,6.6034c.5411,.9373 1.7475,1.2283 2.7008,.6779l3.3558-1.9375c1.4141,1.4181 3.012,2.6223 4.71,3.5954l-.9909,3.7836c-.2849,1.0633 .2754,2.1327 1.3209,2.4128l7.3851,1.9788c1.0454,.2801 2.0654-.3659 2.3503-1.4291l1.0336-3.7722c1.9571,.006 3.943-.2377 5.8767-.7588l1.9375,3.3559c.5504,.9533 1.7407,1.3044 2.6779,.7633l6.6034-3.8125c.9373-.5411 1.2283-1.7475 .6779-2.7008l-1.9375-3.3559c1.4181-1.4141 2.6223-3.012 3.5955-4.71l3.7836,.9909c1.0632,.2849 2.1327-.2755 2.4128-1.3209l1.9788-7.3851c.2801-1.0454-.366-2.0654-1.4291-2.3503l-3.7722-1.0336c.0062-1.9571-.2377-3.943-.7588-5.8767l3.3558-1.9375c.9533-.5504 1.3044-1.7407 .7633-2.6779l-3.8125-6.6034c-.5411-.9373-1.7475-1.2283-2.7008-.6779l-3.3558,1.9375c-1.4141-1.4181-3.012-2.6223-4.71-3.5955l.9909-3.7836c.2849-1.0632-.2754-2.1327-1.3209-2.4128l-7.3851-1.9788c-1.0454-.2801-2.0654,.3659-2.3503,1.4291l-1.0336,3.7722c-1.9571-.006-3.943,.2377-5.8767,.7587l-1.9375-3.3559c-.5504-.9533-1.7407-1.3044-2.6779-.7633l-6.6034,3.8125zm10.0517,9.7851c6.6961-3.866 15.2584-1.5718 19.1244,5.1243 3.866,6.6961 1.5717,15.2584-5.1244,19.1244-6.6961,3.866-15.2584,1.5717-19.1244-5.1244-3.866-6.6961-1.5717-15.2584 5.1244-19.1243z"/>
</clipPath>
<clipPath id="clipPath3613-6">
<path fill="#fff" d="m12,6h72a6,6 0 0,1 6,6v72a6,6 0 0,1 -6,6h-72a6,6 0 0,1 -6-6v-72a6,6 0 0,1 6-6"/>
</clipPath>
<filter width="1.384" x="-.192" y="-.192" height="1.384" color-interpolation-filters="sRGB" id="filter3794-6">
<feGaussianBlur stdDeviation="5.28"/>
</filter>
<linearGradient gradientTransform="matrix(-1.07148 0 0 1.29376 99.83691 -4.91801)" xlink:href="#linearGradient3697" id="linearGradient9477" y1="11.109" x1="129.168" y2="66.668" gradientUnits="userSpaceOnUse" x2="6.905"/>
<linearGradient id="linearGradient3737-5">
<stop offset="0" stop-color="#fff"/>
<stop offset="1" stop-color="#fff" stop-opacity="0"/>
</linearGradient>
<linearGradient xlink:href="#linearGradient3737-5" id="linearGradient9473" y1="20.221" y2="138.661" gradientUnits="userSpaceOnUse" x2="0"/>
<linearGradient xlink:href="#linearGradient9829" id="linearGradient9827" y1="102.102" x1="48.246" y2="-21.966" x2="17" gradientUnits="userSpaceOnUse"/>
<linearGradient id="linearGradient3697">
<stop offset="0" stop-color="#fff"/>
<stop offset="1" stop-color="#fff" stop-opacity="0"/>
</linearGradient>
<linearGradient id="linearGradient9829">
<stop offset="0" stop-color="#440d14"/>
<stop offset="1" stop-color="#ad1608"/>
</linearGradient>
<radialGradient cx="17.085" cy="19.525" gradientTransform="matrix(1.40536 1.78894 -5.16535 4.05782 93.9302 -90.26879)" id="radialGradient9887" r="45" gradientUnits="userSpaceOnUse">
<stop offset="0" stop-color="#c71d0a"/>
<stop offset="1" stop-color="#532025"/>
</radialGradient>
</defs>
<g transform="translate(.00041)">
<path opacity=".763" fill="#090909" d="m12.8136-90.1864h72a6,6 0 0,1 6,6v72a6,6 0 0,1 -6,6h-72a6,6 0 0,1 -6-6v-72a6,6 0 0,1 6-6" transform="scale(1 -1)"/>
<path fill="url(#radialGradient9887)" stroke="url(#linearGradient9827)" stroke-width="6" d="m12.4068,6h72a6,6 0 0,1 6,6v72a6,6 0 0,1 -6,6h-72a6,6 0 0,1 -6-6v-72a6,6 0 0,1 6-6"/>
<path fill="#fff" stroke="#fff" stroke-width=".245" d="m30.1989,55.9455 2.119-.3928 2.1694-.2455 2.7244-.0491 2.8253,.0982 2.119,.1964 2.5731,.4419 2.8758,.6383 2.8253,.8347 2.1065,.8496 1.8641,.8758 1.5792,.8277 2.3713,1.3747 2.119,1.522 2.1694,1.8166 1.1099,1.031 1.2109,1.3747 .9586-.9329 .6559-.5892 1.009-.9329 1.1074-.9448-1.1517-1.1317-1.1858-1.0991-1.0637-.9427-1.1517-.9448-1.697-1.3569-1.5744-1.0621-.9326-.5624-1.0069-.5522-1.2847-.5425-1.6221-.5857-1.4534-.4384-1.564-.3928-1.8667-.4419-1.7658-.2946-1.6909-.2167-1.9921-.127-3.128,.0491-2.1694,.0982-2.4217,.3437-1.9885,.3844-1.6822,.3868-1.2847,.4359-1.4988,.5748z"/>
<path fill="#fff6f6" d="m67.4812,77.5206-.2333-.7829-.1997-.8574-.1589-1.0262-.0257-1.1742 .0724-.8505 .1758-1.0598 .2558-1.0781 .4663-1.096 .427-.7617 .5799-.84 .6763-.9191 .795-.6863 .8056-.6299 .7255-.5302 .6778-.4513 .9276-.4513 .9383-.3159 .8455-.2048 1.0009-.1865 .8186-.0912 1.0333,.0313 1.0002,.1076 .8562,.1736 .9276,.3819 .8018,.3797 .7322,.3841 .8562,.5555 .7849,.6596 .6778,.6943 .8919,1.0415 .9989,1.4234-.7849-1.8053-.4995-.9374-.6065-.9026-.7135-.8332-.6778-.6249-.8562-.6249-.9276-.486-.9276-.3472-.9278-.2903-.9273-.1957-.9632-.1042-1.1416-.0347-1.0326,.0552-.8939,.1531-1.0346,.243-1.2486,.4513-1.213,.5555-.9047,.5735-.633,.4545-.7812,.6384-.8205,.9026-.7135,.8679-.6065,.8679-.5078,.8994-.3127,.6976-.316,.8285-.3262,1.0462-.2097,1.1115-.0757,1.0757 0,1.2151 .107,1.3887 .1784,1.1804 .2497,1.1457 .2141,.9026 2.6756,.0694-.5178-.9113z"/>
<g fill="#fff">
<path d="m16.601,64.285 1.5407-.32 1.365-.1957 1.2473-.1463 1.1114,.0339 1.1578,.145 1.0777,.314 .7589,.2783c.246,.0905 .6086,.2831 .8335,.4345l.5741,.3761 .6604,.4712 .7067,.6937 .8049,1.0169 .6115,.8458 .5724,1.012 .5098,1.3181 .4015,1.3069 .1473,1.1504 .0089,1.4749-.1773,1.4991-.4591,1.5847-.7319,1.8396 6.6525-.1215 .2112-3.0593 .0155-1.5394-.0642-1.4084-.1633-1.3562-.3465-1.4052-.4715-1.3272-.5865-1.0716-.4776-.7928-.8193-1.0945-.9403-.9455-1.078-.9379-1.255-.8779-.8646-.5692-.9775-.4362-1.1797-.381-1.4985-.3391-1.6308-.1244-1.369,.0393-1.5408,.1911-1.5193,.4183-1.5028,.6016-1.3907,.717-1.1872,.7058-.9793,.552z"/>
<path d="m66.8099,77.528 .4036,1.9148-36.6788-.0491 1.7658-3.8296z"/>
</g>
<path fill="none" stroke="#fff" stroke-width="1.224" d="m51.6927,57.4823 0,8.957 13.1284,.2083"/>
<g fill="#fff">
<path d="m133.1102,577.8051c-4.4286,3.5952-9.1987-2.3574-10.6543-13.2954-1.1203-8.4183 .0365-17.6659 2.8841-23.0563" transform="matrix(.54533 .05232 -.11115 .25667 43.53349 -88.36225)"/>
<path d="m25.906,379.3704c-12.1776,4.4226-25.5435-2.1215-29.8537-14.6167-4.3102-12.4952 2.0676-26.2099 14.2451-30.6325 12.1776-4.4226 25.5435,2.1215 29.8537,14.6167 4.2476,12.3136-1.8821,25.8517-13.7926,30.4628" transform="matrix(.34753 0 0 .32934 13.706 -43.27215)"/>
</g>
<path fill="#fffcfc" stroke="#fff" d="m25.906,379.3704c-12.1776,4.4226-25.5435-2.1215-29.8537-14.6167-4.3102-12.4952 2.0676-26.2099 14.2451-30.6325 12.1776-4.4226 25.5435,2.1215 29.8537,14.6167 4.2476,12.3136-1.8821,25.8517-13.7926,30.4628" transform="matrix(.34753 0 0 .32934 71.3744 -43.50335)"/>
<g fill="#fff">
<path d="m30.1831,55.8869 5.1461,13.8286-5.3479-3.1422-5.9534-3.1422-5.3479-.1964-4.3511,1.583-3.7212-9.635z"/>
<path stroke="#fff" stroke-width=".698" d="m29.2069,19.6944 .7081,.4055 .6965,.628 .3015,.5742 .133,.5337-.2234,.7737-.7963,1.694-.7837,1.9448-.5438,.7869-.9086,.5108-.8356,.0887-1.1166-.2991-8.207-4.6852-.217,.958-.1441,1.3325 .2227,1.6001 .5228,1.726 .5713,1.2704 .9258,1.4386 1.0194,1.3429 1.4501,1.3259 1.479,1.0602 1.4232,.6816 1.7216,.5342 1.6357,.3708 2.337,.2254 1.3811-.039 1.3146-.1834 1.1902-.3781 1.3009-.5608 1.3453-.8803 1.5513-1.1649 33.9317,17.658 .6808,.2163 .9059,.1342 .7335-.0135 .5493-.0882 .5449-.1536 .54-.2725 .6312-.3838 .4217-.384 .1969-.2548 .292-.4619 .7175-1.553 .5319-1.7243 .1152-.9512-.0543-.5035-.0938-.3865-.265-.6236-.2912-.5045-.2755-.4137-.2677-.3266-.2502-.2381-.3204-.2528-.5463-.324-1.9427-.9578-33.3982-14.071 .0276-1.534-.1141-1.7537-.3087-1.5692-.7446-1.7482-1.0859-1.6788-.9735-1.2394-1.1232-1.1401-1.3484-.9873-1.4345-.8361-1.6502-.7301-1.5548-.4389-2.1009-.2778-1.6954,.0207-1.673,.3183-1.6613,.6869-1.2507,.6765-1.2498,.8844-.6907,.7394z"/>
</g>
<path fill="#8d3232" d="m74.7161,48.6108c-1.5615,.5527-3.2754-.2651-3.828-1.8266-.5527-1.5615 .2651-3.2753 1.8266-3.828 1.5615-.5527 3.2754,.2651 3.828,1.8266 .5478,1.5476-.2505,3.248-1.7911,3.8152"/>
<path opacity=".1" fill="url(#linearGradient9473)" filter="url(#filter3794-6)" stroke="#fff" stroke-linecap="round" stroke-width=".5" d="m27,15h42a12,12 0 0,1 12,12v42a12,12 0 0,1 -12,12h-42a12,12 0 0,1 -12-12v-42a12,12 0 0,1 12-12" clip-path="url(#clipPath3613-6)" transform="matrix(.98554 0 0 .9905 1.07971 .35887)"/>
<path opacity=".4" fill="url(#linearGradient9477)" d="m86.9791,2.8445c3.5616,0 6.4289,3.4621 6.4289,7.7625v60.6448c-18.8672-14.9067-47.3903-24.4196-79.2896-24.4196-3.6195,0-7.1918,.1254-10.7148,.3639v-36.5891c0-4.3004 2.8673-7.7625 6.4289-7.7625h77.1466z"/>
</g>
</svg>
