<svg xmlns="http://www.w3.org/2000/svg" viewBox="0 0 96 96" xmlns:xlink="http://www.w3.org/1999/xlink">
<defs>
<clipPath id="clipPath3613">
<path fill="#fff" d="m12,6h72a6,6 0 0,1 6,6v72a6,6 0 0,1 -6,6h-72a6,6 0 0,1 -6-6v-72a6,6 0 0,1 6-6"/>
</clipPath>
<filter width="1.384" x="-.192" y="-.192" height="1.384" color-interpolation-filters="sRGB" id="filter3794">
<feGaussianBlur stdDeviation="5.28"/>
</filter>
<linearGradient id="linearGradient3963" xlink:href="#linearGradient3737" y1="21" y2="71" x2="0" gradientUnits="userSpaceOnUse"/>
<linearGradient id="linearGradient3947" xlink:href="#linearGradient3700" y1="21" y2="75.083" x2="0" gradientUnits="userSpaceOnUse"/>
<linearGradient gradientTransform="matrix(.84615 0 0 .84375 17.38462 7.49995)" id="linearGradient2905" xlink:href="#ButtonShadow" y1="19.556" y2="76.444" x2="0" gradientUnits="userSpaceOnUse"/>
<linearGradient id="linearGradient3972" xlink:href="#linearGradient3990" y1="76" y2="-.236" x2="0" gradientUnits="userSpaceOnUse"/>
<linearGradient gradientTransform="matrix(1.02381 0 0 1.0119 -1.14286 -98.07143)" id="linearGradient3780" xlink:href="#ButtonShadow-0" y1="6.132" y2="90.239" x2="0" gradientUnits="userSpaceOnUse"/>
<linearGradient id="linearGradient3617" xlink:href="#linearGradient3614" y1="90" y2="5.988" x2="0" gradientUnits="userSpaceOnUse"/>
<linearGradient gradientTransform="matrix(1.00587 0 0 .99417 100 0)" id="ButtonShadow-0" y1="92.54" y2="7.017" x2="0" gradientUnits="userSpaceOnUse">
<stop offset="0"/>
<stop offset="1" stop-opacity=".588"/>
</linearGradient>
<linearGradient id="linearGradient3980" xlink:href="#linearGradient3742" y1="76" y2="23.962" x2="0" gradientUnits="userSpaceOnUse"/>
<linearGradient id="linearGradient4008" xlink:href="#linearGradient3954" y1="42" y2="52" x2="0" gradientUnits="userSpaceOnUse"/>
<linearGradient id="linearGradient3990">
<stop offset="0" stop-color="#5d5d5d"/>
<stop offset="1" stop-color="#909090"/>
</linearGradient>
<linearGradient id="linearGradient3737">
<stop offset="0" stop-color="#fff"/>
<stop offset="1" stop-color="#fff" stop-opacity="0"/>
</linearGradient>
<linearGradient id="linearGradient3614">
<stop offset="0" stop-color="#b9b9b9"/>
<stop offset="1" stop-color="#dedede"/>
</linearGradient>
<linearGradient id="linearGradient3742">
<stop offset="0"/>
<stop offset="1" stop-opacity="0"/>
</linearGradient>
<linearGradient id="linearGradient3954">
<stop offset="0" stop-color="#1a1a1a"/>
<stop offset="1" stop-color="#3a3a3a"/>
</linearGradient>
<linearGradient gradientTransform="scale(1.00587 .99417)" id="ButtonShadow" y1="92.54" y2="7.017" x2="0" gradientUnits="userSpaceOnUse">
<stop offset="0"/>
<stop offset="1" stop-opacity=".588"/>
</linearGradient>
<linearGradient gradientTransform="translate(0 -97)" id="linearGradient3721" xlink:href="#ButtonShadow-0" y1="6.132" y2="90.239" x2="0" gradientUnits="userSpaceOnUse"/>
<linearGradient id="linearGradient3613" xlink:href="#linearGradient3737" y1="20.221" y2="138.661" x2="0" gradientUnits="userSpaceOnUse"/>
<linearGradient id="linearGradient3188" xlink:href="#linearGradient3737" y1="6" y2="63.893" x2="0" gradientUnits="userSpaceOnUse"/>
<linearGradient id="linearGradient3700">
<stop offset="0" stop-color="#ebebeb"/>
<stop offset="1" stop-color="#c8c8c8"/>
</linearGradient>
<radialGradient cx="48" cy="90.172" gradientTransform="matrix(1.15731 0 0 .99591 -7.55102 .19713)" r="42" id="radialGradient3619" xlink:href="#linearGradient3737" gradientUnits="userSpaceOnUse"/>
</defs>
<path opacity=".08" fill="url(#linearGradient3780)" d="m12-95.0312c-5.5111,0-10.0312,4.5202-10.0312,10.0312v71c0,5.5111 4.5202,10.0312 10.0312,10.0312h72c5.5111,0 10.0312-4.5202 10.0312-10.0312v-71c0-5.5111-4.5202-10.0312-10.0312-10.0312h-72z" transform="scale(1 -1)"/>
<path opacity=".1" fill="url(#linearGradient3780)" d="m12-94.0312c-4.9716,0-9.0312,4.0596-9.0312,9.0312v71c0,4.9716 4.0596,9.0312 9.0312,9.0312h72c4.9716,0 9.0312-4.0596 9.0312-9.0312v-71c0-4.9716-4.0596-9.0312-9.0312-9.0312h-72z" transform="scale(1 -1)"/>
<path opacity=".2" fill="url(#linearGradient3780)" d="m12-93c-4.4091,0-8,3.5909-8,8v71c0,4.4091 3.5909,8 8,8h72c4.4091,0 8-3.5909 8-8v-71c0-4.4091-3.5909-8-8-8h-72z" transform="scale(1 -1)"/>
<path opacity=".3" fill="url(#linearGradient3780)" d="m12-92h72a7,7 0 0,1 7,7v71a7,7 0 0,1 -7,7h-72a7,7 0 0,1 -7-7v-71a7,7 0 0,1 7-7" transform="scale(1 -1)"/>
<path opacity=".45" fill="url(#linearGradient3721)" d="m12-91h72a6,6 0 0,1 6,6v72a6,6 0 0,1 -6,6h-72a6,6 0 0,1 -6-6v-72a6,6 0 0,1 6-6" transform="scale(1 -1)"/>
<path fill="url(#linearGradient3617)" d="m12,6h72a6,6 0 0,1 6,6v72a6,6 0 0,1 -6,6h-72a6,6 0 0,1 -6-6v-72a6,6 0 0,1 6-6"/>
<path opacity=".5" fill="url(#linearGradient3188)" d="m12,6c-3.324,0-6,2.676-6,6v2 68 2c0,.3347 .0413,.6507 .0938,.9688 .0487,.2956 .097,.5969 .1875,.875 .0099,.0304 .0209,.0636 .0312,.0938 .0989,.2878 .2349,.5475 .375,.8125 .1446,.2735 .3156,.5356 .5,.7812 .1844,.2456 .3738,.4735 .5938,.6875 .4399,.4281 .9429,.8145 1.5,1.0938 .2785,.1396 .5735,.2469 .875,.3438-.2562-.1002-.4867-.2363-.7188-.375-.0074-.0044-.0239,.0045-.0312,0-.0319-.0193-.0623-.0425-.0938-.0625-.1204-.0767-.231-.1635-.3438-.25-.1062-.0808-.2133-.1611-.3125-.25-.1779-.1614-.3475-.3454-.5-.5312-.1076-.1303-.2184-.2653-.3125-.4062-.0251-.0384-.0384-.0859-.0625-.125-.0648-.103-.1302-.2045-.1875-.3125-.101-.1947-.2057-.4157-.2812-.625-.008-.0218-.0236-.0405-.0312-.0625-.0318-.0919-.0358-.1868-.0625-.2812-.0303-.1066-.0704-.203-.0938-.3125-.0729-.3415-.125-.6982-.125-1.0625v-2-68-2c0-2.7818 2.2182-5 5-5h2 68 2c2.7818,0 5,2.2182 5,5v2 68 2c0,.3643-.0521,.721-.125,1.0625-.0442,.2069-.0884,.3977-.1562,.5938-.0077,.022-.0233,.0407-.0312,.0625-.0627,.1737-.1384,.3674-.2188,.5312-.0416,.0828-.079,.17-.125,.25-.0546,.0972-.1268,.1883-.1875,.2812-.0941,.141-.2049,.276-.3125,.4062-.1432,.1744-.3031,.347-.4688,.5-.0112,.0102-.02,.0212-.0312,.0312-.1384,.1256-.2851,.2344-.4375,.3438-.1026,.0731-.2043,.1534-.3125,.2188-.0074,.0045-.0238-.0044-.0312,0-.232,.1387-.4625,.2748-.7188,.375 .3015-.0968 .5965-.2041 .875-.3438 .5571-.2792 1.0601-.6657 1.5-1.0938 .22-.214 .4094-.4419 .5938-.6875 .1844-.2456 .3554-.5077 .5-.7812 .1401-.265 .2761-.5247 .375-.8125 .0104-.0308 .0213-.0627 .0312-.0938 .0905-.2781 .1388-.5794 .1875-.875 .0524-.318 .0938-.634 .0938-.9688v-2-68-2c0-3.324-2.676-6-6-6h-72z"/>
<path opacity=".25" fill="url(#radialGradient3619)" d="m12,90c-3.324,0-6-2.676-6-6v-2-68-2c0-.3347 .0413-.6507 .0938-.9688 .0487-.2956 .097-.5969 .1875-.875 .0099-.0304 .0209-.0636 .0312-.0938 .0989-.2878 .2349-.5475 .375-.8125 .1446-.2735 .3156-.5356 .5-.7812 .1844-.2456 .3738-.4735 .5938-.6875 .4399-.4281 .9429-.8145 1.5-1.0938 .2785-.1396 .5735-.2469 .875-.3438-.2562,.1002-.4867,.2363-.7188,.375-.0074,.0044-.0239-.0045-.0312,0-.0319,.0193-.0623,.0425-.0938,.0625-.1204,.0767-.231,.1635-.3438,.25-.1062,.0808-.2133,.1611-.3125,.25-.1779,.1614-.3475,.3454-.5,.5312-.1076,.1303-.2184,.2653-.3125,.4062-.0251,.0384-.0384,.0859-.0625,.125-.0648,.103-.1302,.2045-.1875,.3125-.101,.1947-.2057,.4157-.2812,.625-.008,.0218-.0236,.0405-.0312,.0625-.0318,.092-.0358,.1868-.0625,.2812-.0303,.1066-.0704,.203-.0938,.3125-.0729,.3415-.125,.6982-.125,1.0625v2 68 2c0,2.7818 2.2182,5 5,5h2 68 2c2.7818,0 5-2.2182 5-5v-2-68-2c0-.3643-.0521-.721-.125-1.0625-.0442-.2069-.0884-.3977-.1562-.5938-.0077-.022-.0233-.0407-.0312-.0625-.0627-.1737-.1384-.3674-.2188-.5312-.0416-.0828-.079-.17-.125-.25-.0546-.0972-.1268-.1883-.1875-.2812-.0941-.141-.2049-.276-.3125-.4062-.1432-.1745-.3031-.347-.4688-.5-.0112-.0102-.02-.0211-.0312-.0312-.1384-.1256-.2851-.2344-.4375-.3438-.1026-.0732-.2043-.1534-.3125-.2188-.0074-.0045-.0238,.0044-.0312,0-.232-.1387-.4625-.2748-.7188-.375 .3015,.0968 .5965,.2041 .875,.3438 .5571,.2792 1.0601,.6657 1.5,1.0938 .22,.214 .4094,.4419 .5938,.6875 .1844,.2456 .3554,.5077 .5,.7812 .1401,.265 .2761,.5247 .375,.8125 .0104,.0308 .0213,.0627 .0312,.0938 .0905,.2781 .1388,.5794 .1875,.875 .0524,.318 .0938,.634 .0938,.9688v2 68 2c0,3.324-2.676,6-6,6h-72z"/>
<path opacity=".1" fill="url(#linearGradient3613)" filter="url(#filter3794)" stroke="#fff" stroke-linecap="round" stroke-width=".5" d="m27,15h42a12,12 0 0,1 12,12v42a12,12 0 0,1 -12,12h-42a12,12 0 0,1 -12-12v-42a12,12 0 0,1 12-12" clip-path="url(#clipPath3613)"/>
<g color="#000">
<path opacity=".05" fill="url(#linearGradient3980)" d="m19,15c-2.753,0-5,2.247-5,5v56c0,2.753 2.247,5 5,5h8c2.753,0 5-2.247 5-5v-56c0-2.753-2.247-5-5-5h-8z"/>
<path opacity=".1" fill="url(#linearGradient3980)" d="m19,15.9688c-2.2208,0-4.0312,1.8104-4.0312,4.0312v56c0,2.2208 1.8104,4.0312 4.0312,4.0312h8c2.2208,0 4.0312-1.8104 4.0312-4.0312v-56c0-2.2208-1.8104-4.0312-4.0312-4.0312h-8z"/>
</g>
<path opacity=".8" fill="url(#linearGradient2905)" d="m55.2171,74.5051c-2.5958-.8638-4.1052-1.7212-6.6542-3.7798-6.8416-5.5255-10.4028-13.6719-8.4643-19.3628 .8008-2.3511 1.7136-3.8409 3.3651-5.4923 2.8675-2.8674 7.3391-4.9824 12.928-6.1148 8.6782-1.7584 15.5123,.4343 16.0467,5.1485 .388,3.4227-2.2455,6.5381-9.8375,11.6379-5.3893,3.6202-7.4886,5.5492-7.4886,6.8812 0,1.9146 2.3295,3.8344 4.6528,3.8344 1.466,0 2.219-.7897 2.8673-3.0071 .8584-2.9357 2.6126-3.9711 6.7935-4.0097 2.9287-.027 3.8383,.6496 3.9727,2.9554 .0787,1.3504-.0869,2.0316-.8868,3.6471-1.3112,2.6481-4.3846,5.6887-7.0874,7.0117-1.8443,.9028-2.4137,1.0236-5.2725,1.119-2.4938,.0832-3.5888-.0207-4.9348-.4687zm-16.7943-32.2787c-2.2117-1.9308-3.1633-5.7856-1.7701-7.1708 2.1235-2.1113 4.8174-.5561 5.6736,3.2756 .9024,4.0382-1.2637,6.1997-3.9035,3.8952zm7.4557-5.3806c-1.5849-1.6606-2.1129-2.9751-2.1278-5.298-.0127-1.9696-.0151-2.5127 1.0218-3.5437 2.0576-2.0459 4.6423-.5248 5.4388,3.7594 .3917,2.1069-.0504,4.0157-1.2134,5.2386-1.0736,1.1289-1.9338,1.0858-3.1194-.1564zm21.2996,.006c-1.024-.535-2.1433-2.2213-2.409-3.6293-.5153-2.7309 1.4519-7.6804 3.8191-9.609 3.864-3.1481 9.566-3.526 11.02-.7303 1.183,2.2745-.3763,6.3248-3.8384,9.9706-3.2049,3.3749-6.6849,4.9943-8.5918,3.998zm-11.5618-2.183c-1.2246-.5876-2.1084-2.9109-2.116-5.5626-.0112-3.8724 1.5329-5.9378 4.4408-5.9404 1.7739-.0015 2.806,1.1913 3.1077,3.5917 .3686,2.9331-1.4845,7.296-3.3774,7.9521-1.1428,.3961-1.1445,.3961-2.055-.0408z"/>
<path opacity=".5" d="m75.7812,21c-2.2534-.054-5.014,.8542-7.1875,2.625-2.2629,1.8437-4.1624,6.4311-3.875,9.2188 .1554-2.7867 1.863-6.5795 3.875-8.2188 3.864-3.1481 9.546-3.5457 11-.75 .1913,.3678 .3236,.7986 .375,1.25 .0743-.8539-.0481-1.6214-.375-2.25-.6361-1.2231-2.0598-1.833-3.8125-1.875zm-17.8438,2.1562c-2.9079,.0026-4.4487,2.0651-4.4375,5.9375 .0006,.1969 .0212,.401 .0312,.5938 .1022-3.5939 1.6084-5.5287 4.4062-5.5312 1.7739-.0015 2.8234,1.1933 3.125,3.5938 .0115,.0914-.0072,.1873 0,.2812 .0278-.4447 .0508-.8774 0-1.2812-.3016-2.4005-1.3511-3.5953-3.125-3.5938zm-11.1562,3.9375c-.6753-.0328-1.357,.2669-2,.9062-.985,.9794-1.0399,1.5723-1.0312,3.3125 .0426-1.032 .2536-1.5393 1.0312-2.3125 2.0576-2.0459 4.6409-.5343 5.4375,3.75 .0646,.3475 .074,.6967 .0938,1.0312 .0494-.6373 .0361-1.3326-.0938-2.0312-.5476-2.9454-1.9519-4.5841-3.4375-4.6562zm-8.0312,7c-.7015-.0139-1.4302,.309-2.0938,.9688-.5224,.5194-.7048,1.3927-.625,2.375 .0784-.56 .2889-1.0408 .625-1.375 2.1235-2.1113 4.8-.5504 5.6562,3.2812 .0973,.4355 .1583,.8302 .1875,1.2188 .0536-.6529-.0004-1.3814-.1875-2.2188-.5887-2.6342-2.0192-4.2194-3.5625-4.25zm23.75,5.0625c-1.8694-.032-3.9242,.1542-6.0938,.5938-5.5889,1.1324-10.07,3.2576-12.9375,6.125-1.6515,1.6514-2.5742,3.1489-3.375,5.5-.4038,1.1856-.5535,2.4596-.5,3.8125 .0428-.9897 .1971-1.9233 .5-2.8125 .8008-2.3511 1.7235-3.8486 3.375-5.5 2.8675-2.8674 7.3486-4.9926 12.9375-6.125 8.6782-1.7584 15.4968,.442 16.0312,5.1562 .0221-.3326 .0381-.6636 0-1-.4008-3.5357-4.3292-5.6541-9.9375-5.75zm6.9375,21.0938c-4.1809,.0386-5.9541,1.0643-6.8125,4-.6483,2.2174-1.409,3-2.875,3-2.0731,0-4.139-1.5293-4.5625-3.2188-.0391,.1386-.0625,.2794-.0625,.4062 0,1.9146 2.3017,3.8125 4.625,3.8125 1.466,0 2.2267-.7826 2.875-3 .8584-2.9357 2.6316-3.9614 6.8125-4 2.8854-.0266 3.8134,.6194 3.9688,2.8438 .017-.279 .0197-.5687 0-.9062-.1344-2.3057-1.04-2.9645-3.9688-2.9375z"/>
<path opacity=".5" fill="#fff" d="m79.9688,25.125c-.1944,2.2357-1.6822,5.0806-4.1875,7.7188-3.2049,3.3749-6.6868,4.9963-8.5938,4-1.024-.535-2.1406-2.217-2.4062-3.625-.0227-.1203-.0493-.2466-.0625-.375-.0275,.492-.0148,.9652 .0625,1.375 .2657,1.408 1.3822,3.09 2.4062,3.625 1.9069,.9963 5.3888-.6251 8.5938-4 2.9023-3.0563 4.4542-6.3784 4.1875-8.7188zm-18.9062,2.9062c-.1741,2.7848-1.7739,6.1217-3.4062,6.6875-1.1428,.3961-1.1208,.3744-2.0312-.0625-1.1337-.544-1.9689-2.5663-2.0938-4.9688-.004,.1414-.0317,.2597-.0312,.4062 .0076,2.6518 .9004,4.9749 2.125,5.5625 .9105,.4369 .8884,.4586 2.0312,.0625 1.834-.6357 3.6313-4.7643 3.4062-7.6875zm-17.3125,3.5312c-.0065,.2951-.0025,.6061 0,1 .0149,2.3229 .5401,3.6207 2.125,5.2812 1.1856,1.2421 2.0514,1.2851 3.125,.1562 .9712-1.0212 1.4125-2.525 1.3125-4.2188-.0995,1.2846-.5351,2.4014-1.3125,3.2188-1.0736,1.1289-1.9394,1.0859-3.125-.1562-1.5849-1.6606-2.1101-2.9583-2.125-5.2812zm-7.7188,5.9375c-.2164,1.759 .7474,4.2706 2.4062,5.7188 2.3551,2.056 4.3041,.5585 4.0625-2.6562-.205,2.4957-1.9701,3.4829-4.0625,1.6562-1.3655-1.192-2.2566-3.0939-2.4062-4.7188zm36.4062,8.6875c-.3479,2.959-3.2007,5.8814-9.8438,10.3438-5.3893,3.6202-7.4688,5.5743-7.4688,6.9062 0,.2062 .0114,.3898 .0625,.5938 .3715-1.317 2.5301-3.2245 7.4062-6.5 7.3791-4.9568 10.0546-8.0321 9.8438-11.3438zm-32.8438,9c-.2312,5.3446 3.1961,11.8691 8.9688,16.5312 2.549,2.0586 4.0605,2.9174 6.6562,3.7812 1.346,.448 2.4437,.552 4.9375,.4688 2.8589-.0954 3.4369-.2222 5.2812-1.125 2.7028-1.323 5.7513-4.3519 7.0625-7 .7999-1.6155 .985-2.3059 .9062-3.6562-.0631,.7956-.3289,1.4901-.9062,2.6562-1.3112,2.6481-4.3597,5.677-7.0625,7-1.8443,.9028-2.4224,1.0296-5.2812,1.125-2.4938,.0832-3.5915-.0208-4.9375-.4688-2.5958-.8638-4.1073-1.7226-6.6562-3.7812-5.4163-4.3743-8.7655-10.3904-8.9688-15.5312z"/>
<g color="#000">
<path fill="url(#linearGradient3972)" d="m19,17 8,0c1.662,0 3,1.338 3,3v56c0,1.662-1.338,3-3,3h-8c-1.662,0-3-1.338-3-3v-56c0-1.662 1.338-3 3-3z"/>
<path fill="url(#linearGradient3947)" d="m19,17.9688c-1.1365,0-2.0312,.8948-2.0312,2.0312v56c0,1.1365 .8948,2.0312 2.0312,2.0312h8c1.1365,0 2.0312-.8948 2.0312-2.0312v-56c0-1.1365-.8948-2.0312-2.0312-2.0312h-8z"/>
<path opacity=".8" fill="url(#linearGradient3963)" d="m19,17.9688c-1.1365,0-2.0312,.8948-2.0312,2.0312v56c0,1.1365 .8948,2.0312 2.0312,2.0312h8c1.1365,0 2.0312-.8948 2.0312-2.0312v-56c0-1.1365-.8948-2.0312-2.0312-2.0312h-8zm0,1.0625 8,0c.5757,0 .9688,.393 .9688,.9688v56c0,.5757-.393,.9688-.9688,.9688h-8c-.5757,0-.9688-.393-.9688-.9688v-56c0-.5757 .393-.9688 .9688-.9688z"/>
</g>
<path opacity=".8" fill="url(#linearGradient4008)" d="m19,47 7,5 0-10-7,5z"/>
<path opacity=".5" d="m26,42-7,5 .6875,.5l6.3125-4.5v-1z"/>
<path opacity=".5" fill="#fff" d="m19.6875,47.5-.6875,.5l7,5v-1l-6.3125-4.5z"/>
</svg>
