<svg xmlns="http://www.w3.org/2000/svg" viewBox="0 0 96 96" xmlns:xlink="http://www.w3.org/1999/xlink">
<defs>
<clipPath id="clipPath3613-6-8">
<path fill="#fff" d="m12,6h72a6,6 0 0,1 6,6v72a6,6 0 0,1 -6,6h-72a6,6 0 0,1 -6-6v-72a6,6 0 0,1 6-6"/>
</clipPath>
<clipPath>
<path fill="#fff" d="m12,6h72a6,6 0 0,1 6,6v72a6,6 0 0,1 -6,6h-72a6,6 0 0,1 -6-6v-72a6,6 0 0,1 6-6"/>
</clipPath>
<clipPath>
<path fill="url(#linearGradient4407)" display="block" d="m30.9162,135.971c-.9373,.5411-1.2283,1.7475-.6779,2.7008l1.9375,3.3559c-1.4181,1.4141-2.6223,3.012-3.5955,4.71l-3.7836-.9909c-.5316-.1424-1.0379-.1175-1.4762,.1306-.4382,.2483-.7965,.6676-.9366,1.1903l-1.9788,7.3851c-.2801,1.0454 .366,2.0654 1.4291,2.3503l3.7722,1.0336c-.0062,1.9571 .2377,3.943 .7588,5.8767l-3.3558,1.9375c-.9533,.5504-1.3044,1.7407-.7633,2.6779l3.8125,6.6034c.5411,.9373 1.7475,1.2283 2.7008,.6779l3.3558-1.9375c1.4141,1.4181 3.012,2.6223 4.71,3.5954l-.9909,3.7836c-.2849,1.0633 .2754,2.1327 1.3209,2.4128l7.3851,1.9788c1.0454,.2801 2.0654-.3659 2.3503-1.4291l1.0336-3.7722c1.9571,.006 3.943-.2377 5.8767-.7588l1.9375,3.3559c.5504,.9533 1.7407,1.3044 2.6779,.7633l6.6034-3.8125c.9373-.5411 1.2283-1.7475 .6779-2.7008l-1.9375-3.3559c1.4181-1.4141 2.6223-3.012 3.5955-4.71l3.7836,.9909c1.0632,.2849 2.1327-.2755 2.4128-1.3209l1.9788-7.3851c.2801-1.0454-.366-2.0654-1.4291-2.3503l-3.7722-1.0336c.0062-1.9571-.2377-3.943-.7588-5.8767l3.3558-1.9375c.9533-.5504 1.3044-1.7407 .7633-2.6779l-3.8125-6.6034c-.5411-.9373-1.7475-1.2283-2.7008-.6779l-3.3558,1.9375c-1.4141-1.4181-3.012-2.6223-4.71-3.5955l.9909-3.7836c.2849-1.0632-.2754-2.1327-1.3209-2.4128l-7.3851-1.9788c-1.0454-.2801-2.0654,.3659-2.3503,1.4291l-1.0336,3.7722c-1.9571-.006-3.943,.2377-5.8767,.7587l-1.9375-3.3559c-.5504-.9533-1.7407-1.3044-2.6779-.7633l-6.6034,3.8125zm10.0517,9.7851c6.6961-3.866 15.2584-1.5718 19.1244,5.1243 3.866,6.6961 1.5717,15.2584-5.1244,19.1244-6.6961,3.866-15.2584,1.5717-19.1244-5.1244-3.866-6.6961-1.5717-15.2584 5.1244-19.1243z"/>
</clipPath>
<clipPath>
<path fill="#fff" d="m12,6h72a6,6 0 0,1 6,6v72a6,6 0 0,1 -6,6h-72a6,6 0 0,1 -6-6v-72a6,6 0 0,1 6-6"/>
</clipPath>
<filter width="1.384" x="-.192" y="-.192" height="1.384" color-interpolation-filters="sRGB" id="filter3794-6-9">
<feGaussianBlur stdDeviation="5.28"/>
</filter>
<filter color-interpolation-filters="sRGB" id="filter9971">
<feGaussianBlur stdDeviation=".1678"/>
</filter>
<linearGradient id="linearGradient3737-7">
<stop offset="0" stop-color="#fff"/>
<stop offset="1" stop-color="#fff" stop-opacity="0"/>
</linearGradient>
<linearGradient id="linearGradient9829">
<stop offset="0" stop-color="#440d14"/>
<stop offset="1" stop-color="#ad1608"/>
</linearGradient>
<linearGradient xlink:href="#linearGradient3737-7" id="linearGradient9625" y1="20.221" y2="138.661" gradientUnits="userSpaceOnUse" x2="0"/>
<linearGradient xlink:href="#linearGradient9829" id="linearGradient9827" y1="102.102" x1="48.246" y2="-21.966" x2="17" gradientUnits="userSpaceOnUse"/>
<linearGradient id="linearGradient3697">
<stop offset="0" stop-color="#fff"/>
<stop offset="1" stop-color="#fff" stop-opacity="0"/>
</linearGradient>
<linearGradient gradientTransform="matrix(-1.07533 0 0 1.29376 100.68273 -4.86195)" xlink:href="#linearGradient3697" id="linearGradient9604" y1="11.109" x1="129.168" y2="66.668" gradientUnits="userSpaceOnUse" x2="6.905"/>
<radialGradient cx="17.085" cy="19.525" gradientTransform="matrix(1.40536 1.78894 -5.16535 4.05782 93.9302 -90.26879)" id="radialGradient9887" r="45" gradientUnits="userSpaceOnUse">
<stop offset="0" stop-color="#c71d0a"/>
<stop offset="1" stop-color="#532025"/>
</radialGradient>
</defs>
<g transform="translate(.00021)">
<path opacity=".763" fill="#090909" d="m12.8136-90.1864h72a6,6 0 0,1 6,6v72a6,6 0 0,1 -6,6h-72a6,6 0 0,1 -6-6v-72a6,6 0 0,1 6-6" transform="scale(1 -1)"/>
<path fill="url(#radialGradient9887)" stroke="url(#linearGradient9827)" stroke-width="6" d="m12.4068,6h72a6,6 0 0,1 6,6v72a6,6 0 0,1 -6,6h-72a6,6 0 0,1 -6-6v-72a6,6 0 0,1 6-6"/>
<g fill="none">
<g stroke="#fff">
<g stroke-width="3">
<path filter="url(#filter9971)" d="m291.9325,114.6378-.5085-1.1186-.9153-1.322-1.3051-1.4544-1.7458-1.4948-1.7288-1.2203-2.7458-1.5254-2.7458-1.2203-2.5424-.8136-2.657-.5261-3.2413-.0841-2.6141,.1883-3.1826,.727-2.339,.6102-2.4407,.9153-1.3831,.6915-1.6678,.9356-1.8091,1.2585-1.3434,1.3856-1.0648,1.5374-.8674,1.7168-.4896,1.9683-.1206,1.7944 .2579,1.9997 .6574,2.1698 .8762,1.721 1.1577,1.3298 1.8383,1.5645 1.9244,1.4863 1.9322,1.1186 2.2879,.952 2.5935,.8785 2.7566,.4613 3.04,.0471 3.1058-.4118 3.4026-.7069 2.0339-.6102 2.416-.9262 2.5309-1.2975 2.4769-1.6407 2.339-2.2373 1.4237-1.8305 .6102-1.4237" transform="matrix(1.16533 0 0 1.02109 -273.89269 -69.39387)"/>
<path filter="url(#filter9971)" d="m291.9325,114.6378-.5085-1.1186-.9153-1.322-1.3051-1.4544-1.7458-1.4948-1.7288-1.2203-2.7458-1.5254-2.7458-1.2203-2.5424-.8136-2.657-.5261-3.2413-.0841-2.6141,.1883-3.1826,.727-2.339,.6102-2.4407,.9153-1.3831,.6915-1.6678,.9356-1.8091,1.2585-1.3434,1.3856-1.0648,1.5374-.8674,1.7168-.4896,1.9683-.1206,1.7944 .2579,1.9997 .6574,2.1698 .8762,1.721 1.1577,1.3298 1.8383,1.5645 1.9244,1.4863 1.9322,1.1186 2.2879,.952 2.5935,.8785 2.7566,.4613 3.04,.0471 3.1058-.4118 3.4026-.7069 2.0339-.6102 2.416-.9262 2.5309-1.2975 2.4769-1.6407 2.339-2.2373 1.4237-1.8305 .6102-1.4237" transform="matrix(1.16533 0 0 1.02109 -273.89269 -69.39387)"/>
<path d="m291.9325,114.6378-.5085-1.1186-.9153-1.322-1.3051-1.4544-1.7458-1.4948-1.7288-1.2203-2.7458-1.5254-2.7458-1.2203-2.5424-.8136-2.657-.5261-3.2413-.0841-2.6141,.1883-3.1826,.727-2.339,.6102-2.4407,.9153-1.3831,.6915-1.6678,.9356-1.8091,1.2585-1.3434,1.3856-1.0648,1.5374-.8674,1.7168-.4896,1.9683-.1206,1.7944 .2579,1.9997 .6574,2.1698 .8762,1.721 1.1577,1.3298 1.8383,1.5645 1.9244,1.4863 1.9322,1.1186 2.2879,.952 2.5935,.8785 2.7566,.4613 3.04,.0471 3.1058-.4118 3.4026-.7069 2.0339-.6102 2.416-.9262 2.5309-1.2975 2.4769-1.6407 2.339-2.2373 1.4237-1.8305 .6102-1.4237" transform="matrix(1.16533 0 0 1.02109 -273.89269 -69.39387)"/>
</g>
<g stroke-width="3.083">
<path d="m66.2432,48.2563-.032-1.1034 .208-1.5353 .5279-2.1111 .5252-1.7502 .4854-1.298 .6455-1.2984 1.2171-2.0855 1.314-1.7874 1.1-1.5018 1.6401-1.9958 1.7831-1.8435 2.0719-1.6123-1.3043,4.8741-.8696,5.1843-.3389,2.9999-.2532,2.7092-.0596,2.2413 .0176,1.7553-.0538,1.6742 .1601,2.7529"/>
<path d="m74.9989,52.2366 .0619,2.2754 .1385,2.3468 .2225,2.7118 .3053,3.0034 .8115,5.1935 1.2496,4.8881-2.0537-1.6348-1.7623-1.8629-1.6176-2.0136-1.0831-1.5137-1.2939-1.8016-1.1937-2.0986-.6309-1.3053-.4708-1.3032-.5056-1.7558-.5043-2.1167-.1908-1.5374 .0443-1.1029"/>
</g>
<g stroke-width="1.843">
<path d="m71.5688,306.5382c-.6607,1.4625-2.5512,2.1795-4.2226,1.6014-1.6714-.5781-2.4908-2.2323-1.8302-3.6948 .6607-1.4625 2.5512-2.1795 4.2226-1.6014 1.6701,.5776 2.4898,2.2298 1.8315,3.6918" transform="matrix(1.39775 0 0 1.38978 -62.21285 -377.86971)"/>
<path d="m71.5688,306.5382c-.6607,1.4625-2.5512,2.1795-4.2226,1.6014-1.6714-.5781-2.4908-2.2323-1.8302-3.6948 .6607-1.4625 2.5512-2.1795 4.2226-1.6014 1.6701,.5776 2.4898,2.2298 1.8315,3.6918" transform="matrix(-1.39775 0 0 1.38978 129.54227 -377.94097)"/>
</g>
</g>
<g stroke="#fbfbfb" stroke-width="3.083">
<path d="m36.0317,37.3962 1.1048-2.552 1.2797-2.8286 1.4352-2.396 1.9011-2.4482 1.7166-1.7038 2.1021-1.9634 2.1928-1.8543 5.7852-4.2771-1.9,4.5069-.8571,2.3897-.542,2.7345-.3655,2.14-.1558,2.2814 .0113,2.3819 .5629,4.6346"/>
<path d="m42.6965,63.9066 .7418,1.2098 .8592,1.3409 .9636,1.1358 1.2765,1.1606 1.1526,.8077 1.4114,.9308 1.4723,.879 3.8844,2.0275-1.2757-2.1365-.5755-1.1328-.3639-1.2963-.2454-1.0145-.1046-1.0815 .0072-1.1291 .378-2.197"/>
</g>
</g>
<path opacity=".4" fill="url(#linearGradient9604)" d="m87.7787,2.9006c3.5744,0 6.452,3.4621 6.452,7.7625v60.6448c-18.9351-14.9067-47.5606-24.4196-79.5747-24.4196-3.6325,0-7.2177,.1254-10.7533,.3639v-36.5891c0-4.3005 2.8776-7.7625 6.452-7.7625h77.424z"/>
<path opacity=".1" fill="url(#linearGradient9625)" filter="url(#filter3794-6-9)" stroke="#fff" stroke-linecap="round" stroke-width=".5" d="m27,15h42a12,12 0 0,1 12,12v42a12,12 0 0,1 -12,12h-42a12,12 0 0,1 -12-12v-42a12,12 0 0,1 12-12" clip-path="url(#clipPath3613-6-8)" transform="matrix(.98554 0 0 .9905 1.24832 .26144)"/>
</g>
</svg>
