<svg xmlns="http://www.w3.org/2000/svg" viewBox="0 0 96 96" xmlns:xlink="http://www.w3.org/1999/xlink">
<defs>
<clipPath id="clipPath3613">
<path fill="#fff" d="m12,6h72a6,6 0 0,1 6,6v72a6,6 0 0,1 -6,6h-72a6,6 0 0,1 -6-6v-72a6,6 0 0,1 6-6"/>
</clipPath>
<filter width="1.367" x="-.183" y="-.177" height="1.353" color-interpolation-filters="sRGB" id="filter3509">
<feGaussianBlur stdDeviation=".65925"/>
</filter>
<filter width="1.857" x="-.429" y="-.167" height="1.333" color-interpolation-filters="sRGB" id="filter3495">
<feGaussianBlur stdDeviation=".55243"/>
</filter>
<filter width="1.384" x="-.192" y="-.192" height="1.384" color-interpolation-filters="sRGB" id="filter3794">
<feGaussianBlur stdDeviation="5.28"/>
</filter>
<filter width="3.07" x="-1.035" y="-.136" height="1.271" color-interpolation-filters="sRGB" id="filter3451">
<feGaussianBlur stdDeviation=".94982"/>
</filter>
<filter color-interpolation-filters="sRGB" id="filter3963">
<feGaussianBlur stdDeviation=".91606"/>
</filter>
<filter width="1.863" x="-.432" y="-.114" height="1.227" color-interpolation-filters="sRGB" id="filter3382">
<feGaussianBlur stdDeviation=".73915"/>
</filter>
<filter width="2.867" x="-.933" y="-.138" height="1.275" color-interpolation-filters="sRGB" id="filter3457">
<feGaussianBlur stdDeviation=".92808"/>
</filter>
<filter width="2.22" x="-.61" y="-.149" height="1.299" color-interpolation-filters="sRGB" id="filter3390">
<feGaussianBlur stdDeviation=".77813"/>
</filter>
<linearGradient id="linearGradient3461">
<stop offset="0" stop-color="#444542"/>
<stop offset="1" stop-color="#71746e"/>
</linearGradient>
<linearGradient id="linearGradient3355">
<stop offset="0" stop-color="#fff"/>
<stop offset=".7" stop-color="#fff" stop-opacity=".498"/>
<stop offset="1" stop-color="#fff" stop-opacity="0"/>
</linearGradient>
<linearGradient gradientTransform="translate(.04225 2.54944)" spreadMethod="reflect" id="linearGradient3544" xlink:href="#linearGradient3355" x1="142.958" x2="148.958" gradientUnits="userSpaceOnUse"/>
<linearGradient gradientTransform="translate(.04225 1.54944)" spreadMethod="reflect" id="linearGradient3542" xlink:href="#linearGradient3339" x1="142.958" x2="148.958" gradientUnits="userSpaceOnUse"/>
<linearGradient gradientTransform="matrix(1 0 0 1.26535 -23.73343 -54.36417)" id="linearGradient3534" xlink:href="#linearGradient5452" y1="118.94" x1="146.106" y2="66" x2="146.076" gradientUnits="userSpaceOnUse"/>
<linearGradient id="linearGradient5452">
<stop offset="0" stop-color="#fff"/>
<stop offset="1" stop-color="#fff" stop-opacity="0"/>
</linearGradient>
<linearGradient gradientTransform="translate(.04225 3.54944)" spreadMethod="reflect" id="linearGradient3546" xlink:href="#linearGradient3339" x1="142.958" x2="148.958" gradientUnits="userSpaceOnUse"/>
<linearGradient gradientTransform="matrix(1 0 0 1.26535 -29.85843 -54.36417)" id="linearGradient3536" xlink:href="#linearGradient5452" y1="118.94" x1="146.106" y2="66" x2="146.076" gradientUnits="userSpaceOnUse"/>
<linearGradient id="linearGradient3401">
<stop offset="0" stop-color="#404040"/>
<stop offset=".2" stop-color="#808080"/>
<stop offset=".7" stop-color="#efefef"/>
<stop offset="1" stop-color="#dcdcdc"/>
</linearGradient>
<linearGradient id="linearGradient3540" xlink:href="#linearGradient3461" x1="136" x2="150" gradientUnits="userSpaceOnUse"/>
<linearGradient id="linearGradient3538" xlink:href="#linearGradient3401" x1="136" x2="150" gradientUnits="userSpaceOnUse"/>
<linearGradient gradientTransform="translate(.04225 9.54944)" spreadMethod="reflect" id="linearGradient3550" xlink:href="#linearGradient3339" x1="142.958" x2="148.958" gradientUnits="userSpaceOnUse"/>
<linearGradient gradientTransform="matrix(1.42857 0 0 1.42857 7.71429 54)" id="linearGradient4368" xlink:href="#linearGradient4574" y1="14" y2="7" x2="0" gradientUnits="userSpaceOnUse"/>
<linearGradient gradientTransform="matrix(1.42857 0 0 1.42857 7.71429 54)" id="linearGradient4392" xlink:href="#linearGradient4580" y1="14" y2="7" x2="0" gradientUnits="userSpaceOnUse"/>
<linearGradient gradientTransform="translate(.04225 4.54944)" spreadMethod="reflect" id="linearGradient3548" xlink:href="#linearGradient3355" x1="142.958" x2="148.958" gradientUnits="userSpaceOnUse"/>
<linearGradient gradientTransform="matrix(1.42857 0 0 1.42857 7.71429 54)" id="linearGradient4404" xlink:href="#linearGradient4568" y1="14" y2="7" x2="0" gradientUnits="userSpaceOnUse"/>
<linearGradient gradientTransform="matrix(1.42857 0 0 1.42857 7.71429 54)" id="linearGradient4416" xlink:href="#linearGradient4562" y1="14" y2="7" x2="0" gradientUnits="userSpaceOnUse"/>
<linearGradient id="linearGradient5162" xlink:href="#linearGradient3664" y1="90" y2="76" x2="0" gradientUnits="userSpaceOnUse"/>
<linearGradient gradientTransform="matrix(0 1 -1 0 99.99997 66.00006)" id="linearGradient5044" xlink:href="#linearGradient5005" x1="12" x2="22" gradientUnits="userSpaceOnUse"/>
<linearGradient gradientTransform="matrix(0 1 -1 0 99.99997 52.00006)" id="linearGradient5091" xlink:href="#linearGradient5093" x1="12" x2="22" gradientUnits="userSpaceOnUse"/>
<linearGradient gradientTransform="matrix(1.42857 0 0 1.42857 7.71429 54)" id="linearGradient4332" xlink:href="#linearGradient3693" y1="14" y2="7" x2="0" gradientUnits="userSpaceOnUse"/>
<linearGradient id="linearGradient3308">
<stop offset="0" stop-color="#da8539"/>
<stop offset="1" stop-color="#fadfc7"/>
</linearGradient>
<linearGradient gradientTransform="translate(.04225 10.54944)" spreadMethod="reflect" id="linearGradient3552" xlink:href="#linearGradient3355" x1="142.958" x2="148.958" gradientUnits="userSpaceOnUse"/>
<linearGradient id="linearGradient3693">
<stop offset="0" stop-color="#bababa"/>
<stop offset="1" stop-color="#dfdfdf"/>
</linearGradient>
<linearGradient gradientTransform="translate(.04225 11.54944)" spreadMethod="reflect" id="linearGradient3554" xlink:href="#linearGradient3339" x1="142.958" x2="148.958" gradientUnits="userSpaceOnUse"/>
<linearGradient gradientTransform="translate(.04225 12.54944)" spreadMethod="reflect" id="linearGradient3556" xlink:href="#linearGradient3355" x1="142.958" x2="148.958" gradientUnits="userSpaceOnUse"/>
<linearGradient id="linearGradient3230" xlink:href="#linearGradient3951" y1="121.328" x1="61.295" y2="41.347" x2="104.63" gradientUnits="userSpaceOnUse"/>
<linearGradient spreadMethod="repeat" id="linearGradient3558" xlink:href="#linearGradient3439" x1="137" x2="139.031" gradientUnits="userSpaceOnUse"/>
<linearGradient id="linearGradient3439">
<stop offset="0" stop-color="#3d3d3d"/>
<stop offset="1" stop-color="#fff"/>
</linearGradient>
<linearGradient gradientTransform="translate(-23.73343)" id="linearGradient3530" xlink:href="#linearGradient3394" x1="141.25" x2="144.813" gradientUnits="userSpaceOnUse"/>
<linearGradient id="linearGradient3700">
<stop offset="0" stop-color="#e1e1e1"/>
<stop offset="1" stop-color="#f5f5f5"/>
</linearGradient>
<linearGradient id="linearGradient3188" xlink:href="#linearGradient3737" y1="6" y2="63.893" x2="0" gradientUnits="userSpaceOnUse"/>
<linearGradient gradientTransform="translate(0 -97)" id="linearGradient3721" xlink:href="#ButtonShadow-0" y1="6.132" y2="90.239" x2="0" gradientUnits="userSpaceOnUse"/>
<linearGradient id="linearGradient3613" xlink:href="#linearGradient3737" y1="20.221" y2="138.661" x2="0" gradientUnits="userSpaceOnUse"/>
<linearGradient gradientTransform="matrix(1.00587 0 0 .99417 100 0)" id="ButtonShadow-0" y1="92.54" y2="7.017" x2="0" gradientUnits="userSpaceOnUse">
<stop offset="0"/>
<stop offset="1" stop-opacity=".588"/>
</linearGradient>
<linearGradient gradientTransform="translate(-23.73343)" id="linearGradient3532" xlink:href="#linearGradient3308" x1="136.988" x2="148.995" gradientUnits="userSpaceOnUse"/>
<linearGradient id="linearGradient3617" xlink:href="#linearGradient3700" y1="90" y2="5.988" x2="0" gradientUnits="userSpaceOnUse"/>
<linearGradient id="linearGradient3737">
<stop offset="0" stop-color="#fff"/>
<stop offset="1" stop-color="#fff" stop-opacity="0"/>
</linearGradient>
<linearGradient id="linearGradient5093">
<stop offset="0" stop-color="#014382"/>
<stop offset="1" stop-color="#1d75c8"/>
</linearGradient>
<linearGradient id="linearGradient5005">
<stop offset="0" stop-color="#6f6f6f"/>
<stop offset="1" stop-color="#9c9c9c"/>
</linearGradient>
<linearGradient id="linearGradient3664">
<stop offset="0" stop-opacity=".651"/>
<stop offset=".5" stop-opacity=".233"/>
<stop offset="1" stop-opacity="0"/>
</linearGradient>
<linearGradient id="linearGradient4580">
<stop offset="0" stop-color="#eade9d"/>
<stop offset="1" stop-color="#f9eec5"/>
</linearGradient>
<linearGradient id="linearGradient4574">
<stop offset="0" stop-color="#483452"/>
<stop offset="1" stop-color="#846598"/>
</linearGradient>
<linearGradient id="linearGradient3696">
<stop offset="0" stop-color="#3a77d3"/>
<stop offset="1" stop-color="#6192dc"/>
</linearGradient>
<linearGradient id="linearGradient4568">
<stop offset="0" stop-color="#128bff"/>
<stop offset="1" stop-color="#8dc5fa"/>
</linearGradient>
<linearGradient id="linearGradient4562">
<stop offset="0" stop-color="#ca884e"/>
<stop offset="1" stop-color="#e9b792"/>
</linearGradient>
<linearGradient gradientTransform="matrix(1.02381 0 0 1.0119 -1.14286 -98.07143)" id="linearGradient3780" xlink:href="#ButtonShadow-0" y1="6.132" y2="90.239" x2="0" gradientUnits="userSpaceOnUse"/>
<linearGradient id="linearGradient3339">
<stop offset="0"/>
<stop offset=".7" stop-opacity=".498"/>
<stop offset="1" stop-opacity="0"/>
</linearGradient>
<linearGradient gradientTransform="translate(-23.73343)" id="linearGradient3526" xlink:href="#linearGradient3278" x1="136" x2="150" gradientUnits="userSpaceOnUse"/>
<linearGradient gradientTransform="translate(0 -14)" id="linearGradient3676" xlink:href="#linearGradient3664" y1="90" y2="76" x2="0" gradientUnits="userSpaceOnUse"/>
<linearGradient id="linearGradient3278">
<stop offset="0"/>
<stop offset=".25" stop-color="#282828"/>
<stop offset=".3" stop-color="#3c3c3c"/>
<stop offset=".7" stop-color="#646464"/>
<stop offset=".75" stop-color="#787878"/>
<stop offset="1" stop-color="#a0a0a0"/>
</linearGradient>
<linearGradient gradientTransform="translate(-23.73343)" id="linearGradient3528" xlink:href="#linearGradient3254" y1="0" y2="120.018" x2="0" gradientUnits="userSpaceOnUse"/>
<linearGradient id="linearGradient3394">
<stop offset="0"/>
<stop offset=".5" stop-color="#7d7d7d"/>
<stop offset="1"/>
</linearGradient>
<linearGradient id="linearGradient3254">
<stop offset="0"/>
<stop offset=".066"/>
<stop offset=".07" stop-color="#ad5f1b"/>
<stop offset=".191" stop-color="#ad601a"/>
<stop offset=".21"/>
<stop offset="1"/>
</linearGradient>
<linearGradient gradientTransform="translate(0 -70)" id="linearGradient5169" xlink:href="#linearGradient3664" y1="90" y2="76" x2="0" gradientUnits="userSpaceOnUse"/>
<linearGradient gradientTransform="matrix(1.08938 0 0 1 -13.27594 0)" id="linearGradient3524" xlink:href="#linearGradient3339" x1="137.406" x2="148.531" gradientUnits="userSpaceOnUse"/>
<linearGradient gradientTransform="translate(0 -28)" id="linearGradient3680" xlink:href="#linearGradient3664" y1="90" y2="76" x2="0" gradientUnits="userSpaceOnUse"/>
<linearGradient gradientTransform="translate(0 -42)" id="linearGradient3684" xlink:href="#linearGradient3664" y1="90" y2="76" x2="0" gradientUnits="userSpaceOnUse"/>
<linearGradient id="linearGradient3485">
<stop offset="0" stop-color="#e6605b"/>
<stop offset="1" stop-color="#f08682"/>
</linearGradient>
<linearGradient gradientTransform="translate(0 -56)" id="linearGradient3688" xlink:href="#linearGradient3664" y1="90" y2="76" x2="0" gradientUnits="userSpaceOnUse"/>
<linearGradient id="linearGradient3951">
<stop offset="0"/>
<stop offset="1" stop-opacity="0"/>
</linearGradient>
<linearGradient id="linearGradient3522" xlink:href="#linearGradient3485" x1="136.414" x2="149.53" gradientUnits="userSpaceOnUse"/>
<linearGradient id="linearGradient3702" xlink:href="#linearGradient3696" y1="76" y2="62" x2="0" gradientUnits="userSpaceOnUse"/>
<radialGradient cx="48" cy="90.172" gradientTransform="matrix(1.15731 0 0 .99591 -7.55102 .19713)" r="42" id="radialGradient3619" xlink:href="#linearGradient3737" gradientUnits="userSpaceOnUse"/>
</defs>
<path opacity=".08" fill="url(#linearGradient3780)" d="m12-95.0312c-5.5111,0-10.0312,4.5202-10.0312,10.0312v71c0,5.5111 4.5202,10.0312 10.0312,10.0312h72c5.5111,0 10.0312-4.5202 10.0312-10.0312v-71c0-5.5111-4.5202-10.0312-10.0312-10.0312h-72z" transform="scale(1 -1)"/>
<path opacity=".1" fill="url(#linearGradient3780)" d="m12-94.0312c-4.9716,0-9.0312,4.0596-9.0312,9.0312v71c0,4.9716 4.0596,9.0312 9.0312,9.0312h72c4.9716,0 9.0312-4.0596 9.0312-9.0312v-71c0-4.9716-4.0596-9.0312-9.0312-9.0312h-72z" transform="scale(1 -1)"/>
<path opacity=".2" fill="url(#linearGradient3780)" d="m12-93c-4.4091,0-8,3.5909-8,8v71c0,4.4091 3.5909,8 8,8h72c4.4091,0 8-3.5909 8-8v-71c0-4.4091-3.5909-8-8-8h-72z" transform="scale(1 -1)"/>
<path opacity=".3" fill="url(#linearGradient3780)" d="m12-92h72a7,7 0 0,1 7,7v71a7,7 0 0,1 -7,7h-72a7,7 0 0,1 -7-7v-71a7,7 0 0,1 7-7" transform="scale(1 -1)"/>
<path opacity=".45" fill="url(#linearGradient3721)" d="m12-91h72a6,6 0 0,1 6,6v72a6,6 0 0,1 -6,6h-72a6,6 0 0,1 -6-6v-72a6,6 0 0,1 6-6" transform="scale(1 -1)"/>
<path fill="url(#linearGradient3617)" d="m12,6h72a6,6 0 0,1 6,6v72a6,6 0 0,1 -6,6h-72a6,6 0 0,1 -6-6v-72a6,6 0 0,1 6-6"/>
<g color="#000">
<path opacity=".1" fill="url(#linearGradient5169)" d="m12,6c-3.324,0-6,2.676-6,6v8h84v-8c0-3.324-2.676-6-6-6h-72z"/>
<path opacity=".1" fill="url(#linearGradient5162)" d="m6,76 0,8c0,3.324 2.676,6 6,6h72c3.324,0 6-2.676 6-6v-8h-84z"/>
<path opacity=".1" fill="url(#linearGradient3676)" d="m6,62h84v14h-84z"/>
</g>
<path opacity=".3" fill="url(#radialGradient3619)" d="m12,90c-3.324,0-6-2.676-6-6v-2-68-2c0-.3347 .0413-.6507 .0938-.9688 .0487-.2956 .097-.5969 .1875-.875 .0099-.0304 .0209-.0636 .0312-.0938 .0989-.2878 .2349-.5475 .375-.8125 .1446-.2735 .3156-.5356 .5-.7812 .1844-.2456 .3738-.4735 .5938-.6875 .4399-.4281 .9429-.8145 1.5-1.0938 .2785-.1396 .5735-.2469 .875-.3438-.2562,.1002-.4867,.2363-.7188,.375-.0074,.0044-.0239-.0045-.0312,0-.0319,.0193-.0623,.0425-.0938,.0625-.1204,.0767-.231,.1635-.3438,.25-.1062,.0808-.2133,.1611-.3125,.25-.1779,.1614-.3475,.3454-.5,.5312-.1076,.1303-.2184,.2653-.3125,.4062-.0251,.0384-.0384,.0859-.0625,.125-.0648,.103-.1302,.2045-.1875,.3125-.101,.1947-.2057,.4157-.2812,.625-.008,.0218-.0236,.0405-.0312,.0625-.0318,.092-.0358,.1868-.0625,.2812-.0303,.1066-.0704,.203-.0938,.3125-.0729,.3415-.125,.6982-.125,1.0625v2 68 2c0,2.7818 2.2182,5 5,5h2 68 2c2.7818,0 5-2.2182 5-5v-2-68-2c0-.3643-.0521-.721-.125-1.0625-.0442-.2069-.0884-.3977-.1562-.5938-.0077-.022-.0233-.0407-.0312-.0625-.0627-.1737-.1384-.3674-.2188-.5312-.0416-.0828-.079-.17-.125-.25-.0546-.0972-.1268-.1883-.1875-.2812-.0941-.141-.2049-.276-.3125-.4062-.1432-.1745-.3031-.347-.4688-.5-.0112-.0102-.02-.0211-.0312-.0312-.1384-.1256-.2851-.2344-.4375-.3438-.1026-.0732-.2043-.1534-.3125-.2188-.0074-.0045-.0238,.0044-.0312,0-.232-.1387-.4625-.2748-.7188-.375 .3015,.0968 .5965,.2041 .875,.3438 .5571,.2792 1.0601,.6657 1.5,1.0938 .22,.214 .4094,.4419 .5938,.6875 .1844,.2456 .3554,.5077 .5,.7812 .1401,.265 .2761,.5247 .375,.8125 .0104,.0308 .0213,.0627 .0312,.0938 .0905,.2781 .1388,.5794 .1875,.875 .0524,.318 .0938,.634 .0938,.9688v2 68 2c0,3.324-2.676,6-6,6h-72z"/>
<g color="#000">
<path opacity=".1" fill="url(#linearGradient3680)" d="m6,48h84v14h-84z"/>
<path opacity=".1" fill="url(#linearGradient3684)" d="m6,34h84v14h-84z"/>
<path opacity=".1" fill="url(#linearGradient3688)" d="m6,20h84v14h-84z"/>
<path fill="url(#linearGradient3702)" d="m6,62h84v14h-84z"/>
<path opacity=".2" fill="#025" d="m6,75h84v1h-84z"/>
<path opacity=".2" fill="#fff" d="m6,62h84v1h-84z"/>
</g>
<path opacity=".8" fill="url(#linearGradient3188)" d="m12,6c-3.324,0-6,2.676-6,6v2 68 2c0,.3347 .0413,.6507 .0938,.9688 .0487,.2956 .097,.5969 .1875,.875 .0099,.0304 .0209,.0636 .0312,.0938 .0989,.2878 .2349,.5475 .375,.8125 .1446,.2735 .3156,.5356 .5,.7812 .1844,.2456 .3738,.4735 .5938,.6875 .4399,.4281 .9429,.8145 1.5,1.0938 .2785,.1396 .5735,.2469 .875,.3438-.2562-.1002-.4867-.2363-.7188-.375-.0074-.0044-.0239,.0045-.0312,0-.0319-.0193-.0623-.0425-.0938-.0625-.1204-.0767-.231-.1635-.3438-.25-.1062-.0808-.2133-.1611-.3125-.25-.1779-.1614-.3475-.3454-.5-.5312-.1076-.1303-.2184-.2653-.3125-.4062-.0251-.0384-.0384-.0859-.0625-.125-.0648-.103-.1302-.2045-.1875-.3125-.101-.1947-.2057-.4157-.2812-.625-.008-.0218-.0236-.0405-.0312-.0625-.0318-.0919-.0358-.1868-.0625-.2812-.0303-.1066-.0704-.203-.0938-.3125-.0729-.3415-.125-.6982-.125-1.0625v-2-68-2c0-2.7818 2.2182-5 5-5h2 68 2c2.7818,0 5,2.2182 5,5v2 68 2c0,.3643-.0521,.721-.125,1.0625-.0442,.2069-.0884,.3977-.1562,.5938-.0077,.022-.0233,.0407-.0312,.0625-.0627,.1737-.1384,.3674-.2188,.5312-.0416,.0828-.079,.17-.125,.25-.0546,.0972-.1268,.1883-.1875,.2812-.0941,.141-.2049,.276-.3125,.4062-.1432,.1744-.3031,.347-.4688,.5-.0112,.0102-.02,.0212-.0312,.0312-.1384,.1256-.2851,.2344-.4375,.3438-.1026,.0731-.2043,.1534-.3125,.2188-.0074,.0045-.0238-.0044-.0312,0-.232,.1387-.4625,.2748-.7188,.375 .3015-.0968 .5965-.2041 .875-.3438 .5571-.2792 1.0601-.6657 1.5-1.0938 .22-.214 .4094-.4419 .5938-.6875 .1844-.2456 .3554-.5077 .5-.7812 .1401-.265 .2761-.5247 .375-.8125 .0104-.0308 .0213-.0627 .0312-.0938 .0905-.2781 .1388-.5794 .1875-.875 .0524-.318 .0938-.634 .0938-.9688v-2-68-2c0-3.324-2.676-6-6-6h-72z"/>
<path opacity=".1" fill="url(#linearGradient3613)" filter="url(#filter3794)" stroke="#fff" stroke-linecap="round" stroke-width=".5" d="m27,15h42a12,12 0 0,1 12,12v42a12,12 0 0,1 -12,12h-42a12,12 0 0,1 -12-12v-42a12,12 0 0,1 12-12" clip-path="url(#clipPath3613)"/>
<g transform="translate(-40)">
<path opacity=".3" d="m13.5,64h7a2,2 0 0,1 2,2v7a2,2 0 0,1 -2,2h-7a2,2 0 0,1 -2-2v-7a2,2 0 0,1 2-2"/>
<path fill="url(#linearGradient4332)" d="m13.4286,64h7.1428a1.4286,1.4286 0 0,1 1.4286,1.4286v7.1428a1.4286,1.4286 0 0,1 -1.4286,1.4286h-7.1428a1.4286,1.4286 0 0,1 -1.4286-1.4286v-7.1428a1.4286,1.4286 0 0,1 1.4286-1.4286"/>
<path opacity=".3" fill="#fff" d="m13.4375,64c-.7914,0-1.4375,.6461-1.4375,1.4375v1c0-.7914 .6461-1.4375 1.4375-1.4375h7.125c.7914,0 1.4375,.6461 1.4375,1.4375v-1c0-.7914-.6461-1.4375-1.4375-1.4375h-7.125z"/>
<path opacity=".15" d="m13.4375,74c-.7914,0-1.4375-.6461-1.4375-1.4375v-1c0,.7914 .6461,1.4375 1.4375,1.4375h7.125c.7914,0 1.4375-.6461 1.4375-1.4375v1c0,.7914-.6461,1.4375-1.4375,1.4375h-7.125z"/>
</g>
<g transform="translate(-40 13)">
<path opacity=".3" d="m13.5,64h7a2,2 0 0,1 2,2v7a2,2 0 0,1 -2,2h-7a2,2 0 0,1 -2-2v-7a2,2 0 0,1 2-2"/>
<path fill="url(#linearGradient4368)" d="m13.4286,64h7.1428a1.4286,1.4286 0 0,1 1.4286,1.4286v7.1428a1.4286,1.4286 0 0,1 -1.4286,1.4286h-7.1428a1.4286,1.4286 0 0,1 -1.4286-1.4286v-7.1428a1.4286,1.4286 0 0,1 1.4286-1.4286"/>
<path opacity=".3" fill="#fff" d="m13.4375,64c-.7914,0-1.4375,.6461-1.4375,1.4375v1c0-.7914 .6461-1.4375 1.4375-1.4375h7.125c.7914,0 1.4375,.6461 1.4375,1.4375v-1c0-.7914-.6461-1.4375-1.4375-1.4375h-7.125z"/>
<path opacity=".15" d="m13.4375,74c-.7914,0-1.4375-.6461-1.4375-1.4375v-1c0,.7914 .6461,1.4375 1.4375,1.4375h7.125c.7914,0 1.4375-.6461 1.4375-1.4375v1c0,.7914-.6461,1.4375-1.4375,1.4375h-7.125z"/>
</g>
<g transform="translate(-40 -14)">
<path opacity=".3" d="m13.5,64h7a2,2 0 0,1 2,2v7a2,2 0 0,1 -2,2h-7a2,2 0 0,1 -2-2v-7a2,2 0 0,1 2-2"/>
<path fill="url(#linearGradient4332)" d="m13.4286,64h7.1428a1.4286,1.4286 0 0,1 1.4286,1.4286v7.1428a1.4286,1.4286 0 0,1 -1.4286,1.4286h-7.1428a1.4286,1.4286 0 0,1 -1.4286-1.4286v-7.1428a1.4286,1.4286 0 0,1 1.4286-1.4286"/>
<path opacity=".3" fill="#fff" d="m13.4375,64c-.7914,0-1.4375,.6461-1.4375,1.4375v1c0-.7914 .6461-1.4375 1.4375-1.4375h7.125c.7914,0 1.4375,.6461 1.4375,1.4375v-1c0-.7914-.6461-1.4375-1.4375-1.4375h-7.125z"/>
<path opacity=".15" d="m13.4375,74c-.7914,0-1.4375-.6461-1.4375-1.4375v-1c0,.7914 .6461,1.4375 1.4375,1.4375h7.125c.7914,0 1.4375-.6461 1.4375-1.4375v1c0,.7914-.6461,1.4375-1.4375,1.4375h-7.125z"/>
</g>
<g transform="translate(-40 -28)">
<path opacity=".3" d="m13.5,64h7a2,2 0 0,1 2,2v7a2,2 0 0,1 -2,2h-7a2,2 0 0,1 -2-2v-7a2,2 0 0,1 2-2"/>
<path fill="url(#linearGradient4392)" d="m13.4286,64h7.1428a1.4286,1.4286 0 0,1 1.4286,1.4286v7.1428a1.4286,1.4286 0 0,1 -1.4286,1.4286h-7.1428a1.4286,1.4286 0 0,1 -1.4286-1.4286v-7.1428a1.4286,1.4286 0 0,1 1.4286-1.4286"/>
<path opacity=".3" fill="#fff" d="m13.4375,64c-.7914,0-1.4375,.6461-1.4375,1.4375v1c0-.7914 .6461-1.4375 1.4375-1.4375h7.125c.7914,0 1.4375,.6461 1.4375,1.4375v-1c0-.7914-.6461-1.4375-1.4375-1.4375h-7.125z"/>
<path opacity=".15" d="m13.4375,74c-.7914,0-1.4375-.6461-1.4375-1.4375v-1c0,.7914 .6461,1.4375 1.4375,1.4375h7.125c.7914,0 1.4375-.6461 1.4375-1.4375v1c0,.7914-.6461,1.4375-1.4375,1.4375h-7.125z"/>
</g>
<g transform="translate(-40 -42)">
<path opacity=".3" d="m13.5,64h7a2,2 0 0,1 2,2v7a2,2 0 0,1 -2,2h-7a2,2 0 0,1 -2-2v-7a2,2 0 0,1 2-2"/>
<path fill="url(#linearGradient4404)" d="m13.4286,64h7.1428a1.4286,1.4286 0 0,1 1.4286,1.4286v7.1428a1.4286,1.4286 0 0,1 -1.4286,1.4286h-7.1428a1.4286,1.4286 0 0,1 -1.4286-1.4286v-7.1428a1.4286,1.4286 0 0,1 1.4286-1.4286"/>
<path opacity=".3" fill="#fff" d="m13.4375,64c-.7914,0-1.4375,.6461-1.4375,1.4375v1c0-.7914 .6461-1.4375 1.4375-1.4375h7.125c.7914,0 1.4375,.6461 1.4375,1.4375v-1c0-.7914-.6461-1.4375-1.4375-1.4375h-7.125z"/>
<path opacity=".15" d="m13.4375,74c-.7914,0-1.4375-.6461-1.4375-1.4375v-1c0,.7914 .6461,1.4375 1.4375,1.4375h7.125c.7914,0 1.4375-.6461 1.4375-1.4375v1c0,.7914-.6461,1.4375-1.4375,1.4375h-7.125z"/>
</g>
<g transform="translate(-40 -56)">
<path opacity=".3" d="m13.5,64h7a2,2 0 0,1 2,2v7a2,2 0 0,1 -2,2h-7a2,2 0 0,1 -2-2v-7a2,2 0 0,1 2-2"/>
<path fill="url(#linearGradient4416)" d="m13.4286,64h7.1428a1.4286,1.4286 0 0,1 1.4286,1.4286v7.1428a1.4286,1.4286 0 0,1 -1.4286,1.4286h-7.1428a1.4286,1.4286 0 0,1 -1.4286-1.4286v-7.1428a1.4286,1.4286 0 0,1 1.4286-1.4286"/>
<path opacity=".3" fill="#fff" d="m13.4375,64c-.7914,0-1.4375,.6461-1.4375,1.4375v1c0-.7914 .6461-1.4375 1.4375-1.4375h7.125c.7914,0 1.4375,.6461 1.4375,1.4375v-1c0-.7914-.6461-1.4375-1.4375-1.4375h-7.125z"/>
<path opacity=".15" d="m13.4375,74c-.7914,0-1.4375-.6461-1.4375-1.4375v-1c0,.7914 .6461,1.4375 1.4375,1.4375h7.125c.7914,0 1.4375-.6461 1.4375-1.4375v1c0,.7914-.6461,1.4375-1.4375,1.4375h-7.125z"/>
</g>
<g line-height="125%">
<g fill="#666">
<path d="m28.5322,15.9023-.7266,0 0-5.7109 2.9648,0 0,.6406-2.2383,0 0,2.0156 2.0898,0 0,.6406-2.0898,0 0,2.4141"/>
<path d="m32.3564,15.9023-.7109,0 0-4.2891 .7109,0 0,4.2891m-.7656-5.4492c0-.1562 .0391-.2695 .1172-.3398 .0807-.0703 .1797-.1055 .2969-.1055 .0573,0 .1107,.0091 .1602,.0273 .0521,.0156 .0964,.0417 .1328,.0781 .0391,.0365 .069,.0833 .0898,.1406 .0234,.0547 .0352,.1211 .0352,.1992-0,.151-.0417,.2643-.125,.3398-.0807,.0729-.1784,.1094-.293,.1094-.1172,0-.2161-.0365-.2969-.1094-.0781-.0729-.1172-.1862-.1172-.3398"/>
<path d="m34.4346,15.9023-.7109,0 0-6.0781 .7109,0 0,6.0781"/>
<path d="m37.4971,15.9805c-.2865,0-.5482-.0482-.7852-.1445-.237-.0964-.4414-.237-.6133-.4219-.1693-.1849-.3008-.4141-.3945-.6875-.0938-.2734-.1406-.5859-.1406-.9375-0-.3542 .043-.6706 .1289-.9492 .0859-.2786 .207-.5143 .3633-.707 .1562-.1953 .3424-.3437 .5586-.4453 .2187-.1016 .4596-.1523 .7227-.1523 .2578,0 .4896,.0469 .6953,.1406 .2057,.0912 .3802,.2214 .5234,.3906 .1432,.1667 .2526,.3685 .3281,.6055 .0781,.2344 .1172,.4948 .1172,.7812v.4414h-2.7031c.013,.5026 .1185,.8724 .3164,1.1094 .2005,.237 .4974,.3555 .8906,.3555 .1328,0 .2552-.0065 .3672-.0195 .1146-.013 .224-.0312 .3281-.0547 .1068-.026 .2096-.0573 .3086-.0938 .099-.0391 .1992-.082 .3008-.1289v.6328c-.1042,.0495-.207,.0924-.3086,.1289-.099,.0365-.2018,.0664-.3086,.0898-.1042,.0234-.2135,.0404-.3281,.0508-.112,.0104-.2344,.0156-.3672,.0156m-.1758-3.8555c-.2969,0-.5326,.1016-.707,.3047-.1719,.2031-.2721,.4987-.3008,.8867h1.9219c-0-.1771-.0182-.3385-.0547-.4844-.0339-.1484-.0885-.2747-.1641-.3789-.0729-.1042-.1667-.1849-.2812-.2422-.1146-.0573-.2526-.0859-.4141-.0859"/>
<path d="m44.6182,15.9023-1.7305-5-.0312,0c.0156,.1927 .0286,.3841 .0391,.5742 .0104,.1641 .0182,.3372 .0234,.5195 .0078,.1797 .0117,.3438 .0117,.4922v3.4141h-.6719v-5.7109h1.0781l1.6094,4.6562h.0234l1.6172-4.6562h1.0781v5.7109h-.7266v-3.4648c-0-.1354 .0026-.2904 .0078-.4648 .0052-.1745 .0117-.3411 .0195-.5 .0104-.1849 .0195-.3724 .0273-.5625h-.0312l-1.7461,4.9922h-.5977"/>
<path d="m51.5479,15.9023-.1445-.5938-.0312,0c-.0859,.1172-.1719,.2188-.2578,.3047-.0859,.0833-.1797,.1523-.2812,.207-.1016,.0547-.2148,.0951-.3398,.1211-.125,.026-.2695,.0391-.4336,.0391-.1797,0-.3451-.026-.4961-.0781-.151-.0495-.2826-.1263-.3945-.2305-.1094-.1068-.1953-.2396-.2578-.3984-.0625-.1615-.0938-.3516-.0938-.5703-0-.4271 .1497-.7552 .4492-.9844 .3021-.2292 .7604-.3542 1.375-.375l.7188-.0273v-.2695c-0-.1745-.0195-.3203-.0586-.4375-.0365-.1172-.0911-.2109-.1641-.2812-.0703-.0729-.1589-.125-.2656-.1562-.1042-.0312-.224-.0469-.3594-.0469-.2161,0-.418,.0312-.6055,.0938-.1849,.0625-.3633,.138-.5352,.2266l-.25-.5352c.1927-.1042 .4076-.1927 .6445-.2656 .237-.0729 .4857-.1094 .7461-.1094 .2656,0 .4948,.0274 .6875,.082 .1953,.0521 .3555,.1367 .4805,.2539 .1276,.1146 .2227,.2617 .2852,.4414 .0625,.1797 .0938,.3971 .0938,.6523v2.9375h-.5117m-1.3047-.4961c.1589,0 .306-.0247 .4414-.0742 .1354-.0495 .2526-.1237 .3516-.2227 .099-.1016 .1758-.2279 .2305-.3789 .0573-.1536 .0859-.3333 .0859-.5391v-.3867l-.5586,.0273c-.2344,.0104-.431,.0365-.5898,.0781-.1589,.0417-.2865,.1003-.3828,.1758-.0938,.0729-.1615,.1628-.2031,.2695-.0417,.1042-.0625,.2227-.0625,.3555-0,.2396 .0625,.4154 .1875,.5273 .1276,.112 .2943,.168 .5,.168"/>
<path d="m56.0596,15.9023 0-2.7617c-0-.3385-.069-.5924-.207-.7617-.1354-.1693-.349-.2539-.6406-.2539-.2109,0-.388,.0339-.5312,.1016-.1432,.0677-.2591,.168-.3477,.3008-.0859,.1328-.1484,.2956-.1875,.4883-.0365,.1927-.0547,.4141-.0547,.6641v2.2227h-.7109v-4.2891h.5781l.1016,.5781h.0391c.0651-.112 .1419-.2083 .2305-.2891 .0911-.0833 .1901-.1523 .2969-.207 .1068-.0547 .22-.0951 .3398-.1211 .1198-.026 .2422-.0391 .3672-.0391 .4766,0 .8346,.125 1.0742,.375 .2422,.2474 .3633,.6445 .3633,1.1914v2.8008h-.7109"/>
<path d="m60.5166,15.9023-.1445-.5938-.0312,0c-.0859,.1172-.1719,.2188-.2578,.3047-.0859,.0833-.1797,.1523-.2812,.207-.1016,.0547-.2148,.0951-.3398,.1211-.125,.026-.2695,.0391-.4336,.0391-.1797,0-.3451-.026-.4961-.0781-.151-.0495-.2826-.1263-.3945-.2305-.1094-.1068-.1953-.2396-.2578-.3984-.0625-.1615-.0938-.3516-.0938-.5703-0-.4271 .1497-.7552 .4492-.9844 .3021-.2292 .7604-.3542 1.375-.375l.7188-.0273v-.2695c-0-.1745-.0195-.3203-.0586-.4375-.0365-.1172-.0911-.2109-.1641-.2812-.0703-.0729-.1589-.125-.2656-.1562-.1042-.0312-.224-.0469-.3594-.0469-.2161,0-.418,.0312-.6055,.0938-.1849,.0625-.3633,.138-.5352,.2266l-.25-.5352c.1927-.1042 .4076-.1927 .6445-.2656 .237-.0729 .4857-.1094 .7461-.1094 .2656,0 .4948,.0274 .6875,.082 .1953,.0521 .3555,.1367 .4805,.2539 .1276,.1146 .2227,.2617 .2852,.4414 .0625,.1797 .0938,.3971 .0938,.6523v2.9375h-.5117m-1.3047-.4961c.1589,0 .306-.0247 .4414-.0742 .1354-.0495 .2526-.1237 .3516-.2227 .099-.1016 .1758-.2279 .2305-.3789 .0573-.1536 .0859-.3333 .0859-.5391v-.3867l-.5586,.0273c-.2344,.0104-.431,.0365-.5898,.0781-.1589,.0417-.2865,.1003-.3828,.1758-.0938,.0729-.1615,.1628-.2031,.2695-.0417,.1042-.0625,.2227-.0625,.3555-0,.2396 .0625,.4154 .1875,.5273 .1276,.112 .2943,.168 .5,.168"/>
<path d="m65.6533,11.6133 0,.4414-.7695,.1055c.0729,.0912 .1341,.2083 .1836,.3516 .0495,.1406 .0742,.3008 .0742,.4805-0,.1979-.0312,.3815-.0938,.5508-.0599,.1667-.1523,.3112-.2773,.4336-.1224,.1224-.2747,.2188-.457,.2891-.1823,.0677-.3945,.1016-.6367,.1016-.0573,0-.1146,0-.1719,0-.0573-.0026-.1042-.0078-.1406-.0156-.0443,.026-.0885,.056-.1328,.0898-.0417,.0312-.0807,.0677-.1172,.1094-.0339,.0417-.0625,.0885-.0859,.1406-.0208,.0521-.0312,.1094-.0312,.1719-0,.0703 .0156,.1276 .0469,.1719 .0312,.0417 .0729,.0742 .125,.0977 .0547,.0234 .1185,.0391 .1914,.0469 .0729,.0078 .1497,.0117 .2305,.0117h.6875c.2422,0 .4466,.0312 .6133,.0938 .1667,.0599 .3021,.1419 .4062,.2461 .1068,.1042 .1836,.2279 .2305,.3711 .0469,.1406 .0703,.2904 .0703,.4492-0,.2292-.043,.4349-.1289,.6172-.0833,.1823-.2122,.3359-.3867,.4609-.1745,.1276-.3958,.2253-.6641,.293-.2656,.0677-.5794,.1016-.9414,.1016-.2786-0-.5221-.0273-.7305-.082-.2083-.0547-.3815-.1341-.5195-.2383-.138-.1042-.2422-.2305-.3125-.3789-.0677-.1458-.1016-.3112-.1016-.4961-0-.1562 .0247-.2943 .0742-.4141 .0521-.1172 .1211-.2188 .207-.3047 .0859-.0859 .1849-.1562 .2969-.2109 .1146-.0547 .2331-.0963 .3555-.125-.1094-.0495-.1992-.1276-.2695-.2344-.0703-.1068-.1055-.2292-.1055-.3672 0-.1589 .0417-.2956 .125-.4102 .0833-.1172 .2148-.2305 .3945-.3398-.112-.0469-.2148-.1107-.3086-.1914-.0911-.0833-.1693-.1771-.2344-.2812-.0625-.1068-.112-.2227-.1484-.3477-.0339-.125-.0508-.2539-.0508-.3867 0-.2318 .0326-.4388 .0977-.6211 .0651-.1823 .1615-.3372 .2891-.4648 .1276-.1276 .2865-.2253 .4766-.293 .1901-.0677 .4115-.1016 .6641-.1016 .0964,0 .1953,.0078 .2969,.0234 .1042,.013 .1914,.0312 .2617,.0547h1.418m-3.168,4.9922c-0,.0964 .0169,.1862 .0508,.2695 .0339,.0833 .0885,.1549 .1641,.2148 .0781,.0599 .1797,.1068 .3047,.1406 .1276,.0365 .2852,.0547 .4727,.0547 .4844-0 .8464-.0755 1.0859-.2266 .2422-.1484 .3633-.3633 .3633-.6445-0-.1198-.0156-.2174-.0469-.293-.0312-.0755-.0833-.1354-.1562-.1797-.0703-.0417-.1641-.0703-.2812-.0859-.1172-.0156-.2604-.0234-.4297-.0234h-.6875c-.0911,0-.1862,.0104-.2852,.0312-.099,.0208-.1901,.0599-.2734,.1172-.0807,.0573-.1484,.1354-.2031,.2344-.0521,.1016-.0781,.2318-.0781,.3906m.3594-3.6133c-0,.2995 .0703,.5221 .2109,.668 .1406,.1458 .3398,.2188 .5977,.2188 .2604,0 .457-.0716 .5898-.2148 .1354-.1458 .2031-.3737 .2031-.6836-0-.3203-.069-.556-.207-.707-.1354-.151-.3333-.2266-.5938-.2266-.2578,0-.4557,.0781-.5938,.2344-.138,.1563-.207,.3932-.207,.7109"/>
<path d="m68.1846,15.9805c-.2865,0-.5482-.0482-.7852-.1445-.237-.0964-.4414-.237-.6133-.4219-.1693-.1849-.3008-.4141-.3945-.6875-.0938-.2734-.1406-.5859-.1406-.9375-0-.3542 .043-.6706 .1289-.9492 .0859-.2786 .207-.5143 .3633-.707 .1562-.1953 .3424-.3437 .5586-.4453 .2187-.1016 .4596-.1523 .7227-.1523 .2578,0 .4896,.0469 .6953,.1406 .2057,.0912 .3802,.2214 .5234,.3906 .1432,.1667 .2526,.3685 .3281,.6055 .0781,.2344 .1172,.4948 .1172,.7812v.4414h-2.7031c.013,.5026 .1185,.8724 .3164,1.1094 .2005,.237 .4974,.3555 .8906,.3555 .1328,0 .2552-.0065 .3672-.0195 .1146-.013 .224-.0312 .3281-.0547 .1068-.026 .2096-.0573 .3086-.0938 .099-.0391 .1992-.082 .3008-.1289v.6328c-.1042,.0495-.207,.0924-.3086,.1289-.099,.0365-.2018,.0664-.3086,.0898-.1042,.0234-.2135,.0404-.3281,.0508-.112,.0104-.2344,.0156-.3672,.0156m-.1758-3.8555c-.2969,0-.5326,.1016-.707,.3047-.1719,.2031-.2721,.4987-.3008,.8867h1.9219c-0-.1771-.0182-.3385-.0547-.4844-.0339-.1484-.0885-.2747-.1641-.3789-.0729-.1042-.1667-.1849-.2812-.2422-.1146-.0573-.2526-.0859-.4141-.0859"/>
<path d="m72.626,11.5352c.0755,0 .1602,.0039 .2539,.0117 .0938,.0052 .1745,.0143 .2422,.0273l-.0938,.6562c-.0729-.013-.1484-.0234-.2266-.0312-.0755-.0104-.1471-.0156-.2148-.0156-.1641,0-.3138,.0339-.4492,.1016-.1354,.0651-.2526,.1602-.3516,.2852-.0964,.1224-.1719,.2708-.2266,.4453-.0521,.1719-.0781,.3633-.0781,.5742v2.3125h-.7109v-4.2891h.5781l.0859,.7852h.0312c.0651-.112 .1341-.22 .207-.3242 .0755-.1042 .1589-.1953 .25-.2734 .0938-.0807 .1979-.1445 .3125-.1914 .1146-.0495 .2448-.0742 .3906-.0742"/>
<path d="m27.8057,24.1914 1.5586,0c.3333,0 .6263,.0261 .8789,.0781 .2552,.0495 .4674,.1315 .6367,.2461 .1719,.112 .3008,.2604 .3867,.4453 .0859,.1823 .1289,.4076 .1289,.6758-0,.1615-.0261,.3125-.0781,.4531-.0495,.1406-.1224,.2643-.2188,.3711-.0964,.1068-.2161,.1966-.3594,.2695-.1406,.0703-.3008,.1172-.4805,.1406v.0391c.1797,.0312 .3477,.0768 .5039,.1367 .1589,.0573 .2969,.138 .4141,.2422 .1172,.1016 .2096,.2305 .2773,.3867 .0677,.1563 .1016,.3464 .1016,.5703-0,.2604-.043,.4935-.1289,.6992-.0833,.2031-.2057,.3763-.3672,.5195-.1589,.1406-.3529,.2487-.582,.3242-.2292,.0755-.4883,.1133-.7773,.1133h-1.8945v-5.7109m.7266,2.4219 .9531,0c.2187,0 .4023-.0195 .5508-.0586 .1484-.0391 .2682-.0964 .3594-.1719 .0911-.0781 .1562-.1745 .1953-.2891 .0417-.1172 .0625-.2526 .0625-.4062-0-.3125-.1003-.5365-.3008-.6719-.2005-.1354-.5169-.2031-.9492-.2031h-.8711v1.8008m0,.6094 0,2.0625 1.0391,0c.2292,0 .4206-.026 .5742-.0781 .1562-.0521 .2812-.125 .375-.2188 .0964-.0938 .1654-.2057 .207-.3359 .0417-.1328 .0625-.2786 .0625-.4375-0-.1458-.0221-.2799-.0664-.4023-.0417-.1224-.112-.2266-.2109-.3125-.0964-.0885-.2253-.1562-.3867-.2031-.1615-.0495-.362-.0742-.6016-.0742h-.9922"/>
<path d="m34.5322,25.5352c.0755,0 .1602,.0039 .2539,.0117 .0938,.0052 .1745,.0143 .2422,.0273l-.0938,.6562c-.0729-.013-.1484-.0234-.2266-.0312-.0755-.0104-.1471-.0156-.2148-.0156-.1641,0-.3138,.0339-.4492,.1016-.1354,.0651-.2526,.1602-.3516,.2852-.0964,.1224-.1719,.2708-.2266,.4453-.0521,.1719-.0781,.3633-.0781,.5742v2.3125h-.7109v-4.2891h.5781l.0859,.7852h.0312c.0651-.112 .1341-.22 .207-.3242 .0755-.1042 .1589-.1953 .25-.2734 .0938-.0807 .1979-.1445 .3125-.1914 .1146-.0495 .2448-.0742 .3906-.0742"/>
<path d="m39.3604,27.75c-0,.3568-.0443,.6745-.1328,.9531-.0859,.276-.2109,.5091-.375,.6992-.1615,.1875-.3581,.3307-.5898,.4297-.2318,.099-.4922,.1484-.7812,.1484-.2682,0-.5156-.0495-.7422-.1484-.2266-.099-.4232-.2422-.5898-.4297-.1641-.1901-.293-.4232-.3867-.6992-.0911-.2786-.1367-.5964-.1367-.9531-0-.3542 .043-.668 .1289-.9414 .0885-.276 .2135-.5078 .375-.6953 .1615-.1901 .3581-.3333 .5898-.4297 .2344-.0989 .4961-.1484 .7852-.1484 .2682,0 .5156,.0495 .7422,.1484 .2266,.0964 .4219,.2396 .5859,.4297 .1667,.1875 .2956,.4193 .3867,.6953 .0937,.2734 .1406,.5872 .1406,.9414m-3,0c-0,.5443 .0885,.9544 .2656,1.2305 .1797,.2734 .4701,.4102 .8711,.4102 .401,0 .6888-.1367 .8633-.4102 .1771-.276 .2656-.6862 .2656-1.2305-0-.5443-.0898-.9505-.2695-1.2188-.1771-.2708-.4661-.4062-.8672-.4062-.401,0-.6901,.1354-.8672,.4062-.1745,.2682-.2617,.6745-.2617,1.2188"/>
<path d="m43.7471,29.9023-.6562-2.4062c-.0104-.0469-.0234-.099-.0391-.1562-.0156-.0599-.0312-.1224-.0469-.1875-.0156-.0651-.0326-.1315-.0508-.1992-.0156-.0677-.0312-.1341-.0469-.1992-.0365-.151-.0742-.3073-.1133-.4688h-.0234c-.0365,.1641-.0716,.3216-.1055,.4727-.0286,.1302-.0599,.2643-.0938,.4023-.0312,.138-.0612,.2552-.0898,.3516l-.6719,2.3906h-.8242l-1.0977-4.2891h.7461l.5117,2.2812c.026,.1172 .0521,.2448 .0781,.3828 .026,.1354 .0508,.2708 .0742,.4062 .0234,.1328 .0443,.2591 .0625,.3789 .0182,.1172 .0326,.2135 .043,.2891h.0234c.013-.0677 .0299-.1576 .0508-.2695 .0234-.1146 .0482-.2344 .0742-.3594 .0286-.1276 .0573-.2526 .0859-.375 .0286-.125 .056-.2305 .082-.3164l.6992-2.418h.7656l.6719,2.418c.0234,.0885 .0495,.1927 .0781,.3125 .0312,.1198 .0612,.2422 .0898,.3672 .0286,.1224 .0547,.2409 .0781,.3555 .0234,.1146 .0404,.2096 .0508,.2852h.0234c.0078-.0677 .0195-.1576 .0352-.2695 .0182-.1146 .0391-.2396 .0625-.375 .0234-.1354 .0482-.2734 .0742-.4141 .0286-.1432 .0573-.276 .0859-.3984l.5352-2.2812h.7266l-1.1094,4.2891h-.8398"/>
<path d="m49.0244,28.7266c-0,.2083-.0378,.3906-.1133,.5469-.0755,.1563-.1849,.2878-.3281,.3945-.1406,.1042-.3112,.1823-.5117,.2344-.2005,.0521-.4258,.0781-.6758,.0781-.2839,0-.5273-.0234-.7305-.0703-.2031-.0443-.3815-.1107-.5352-.1992v-.6484c.0807,.0417 .1706,.0833 .2695,.125 .099,.0391 .2031,.0742 .3125,.1055 .1094,.0312 .2214,.0573 .3359,.0781 .1172,.0182 .2331,.0273 .3477,.0273 .1693,0 .3125-.0143 .4297-.043 .1198-.0286 .2161-.069 .2891-.1211 .0755-.0547 .1302-.1198 .1641-.1953 .0339-.0781 .0508-.1641 .0508-.2578-0-.0807-.013-.1536-.0391-.2188-.026-.0651-.0742-.1289-.1445-.1914-.0677-.0651-.1615-.1302-.2812-.1953-.1198-.0651-.2734-.138-.4609-.2188-.1875-.0807-.3568-.1602-.5078-.2383-.1484-.0781-.2747-.1654-.3789-.2617-.1042-.0964-.1849-.207-.2422-.332-.0547-.1276-.082-.2786-.082-.4531-0-.1823 .0352-.3437 .1055-.4844 .0729-.1432 .1745-.263 .3047-.3594 .1302-.0964 .2865-.1693 .4688-.2188 .1823-.0495 .3854-.0742 .6094-.0742 .2526,0 .4831,.0273 .6914,.082 .2109,.0547 .4102,.1263 .5977,.2148l-.2461,.5742c-.1693-.0755-.3438-.1406-.5234-.1953-.1771-.0573-.3581-.0859-.543-.0859-.2656,0-.4622,.0443-.5898,.1328-.1276,.0859-.1914,.2096-.1914,.3711-0,.0911 .0143,.1706 .043,.2383 .0312,.0677 .0833,.1315 .1562,.1914 .0729,.0599 .1706,.1211 .293,.1836 .1224,.0599 .2747,.1276 .457,.2031 .1875,.0781 .3542,.1563 .5,.2344 .1484,.0781 .2747,.1667 .3789,.2656 .1042,.0964 .1836,.207 .2383,.332 .0547,.125 .082,.2747 .082,.4492"/>
<path d="m51.7627,29.9805c-.2865,0-.5482-.0482-.7852-.1445-.237-.0964-.4414-.237-.6133-.4219-.1693-.1849-.3008-.4141-.3945-.6875-.0938-.2734-.1406-.5859-.1406-.9375-0-.3542 .043-.6706 .1289-.9492 .0859-.2786 .207-.5143 .3633-.707 .1562-.1953 .3424-.3437 .5586-.4453 .2187-.1016 .4596-.1523 .7227-.1523 .2578,0 .4896,.0469 .6953,.1406 .2057,.0911 .3802,.2214 .5234,.3906 .1432,.1667 .2526,.3685 .3281,.6055 .0781,.2344 .1172,.4948 .1172,.7812v.4414h-2.7031c.013,.5026 .1185,.8724 .3164,1.1094 .2005,.237 .4974,.3555 .8906,.3555 .1328,0 .2552-.0065 .3672-.0195 .1146-.013 .224-.0312 .3281-.0547 .1068-.026 .2096-.0573 .3086-.0938 .099-.0391 .1992-.082 .3008-.1289v.6328c-.1042,.0495-.207,.0924-.3086,.1289-.099,.0365-.2018,.0664-.3086,.0898-.1042,.0234-.2135,.0404-.3281,.0508-.112,.0104-.2344,.0156-.3672,.0156m-.1758-3.8555c-.2969,0-.5326,.1016-.707,.3047-.1719,.2031-.2721,.4987-.3008,.8867h1.9219c-0-.1771-.0182-.3385-.0547-.4844-.0339-.1484-.0885-.2747-.1641-.3789-.0729-.1042-.1667-.1849-.2812-.2422-.1146-.0573-.2526-.0859-.4141-.0859"/>
<path d="m56.2041,25.5352c.0755,0 .1602,.0039 .2539,.0117 .0938,.0052 .1745,.0143 .2422,.0273l-.0938,.6562c-.0729-.013-.1484-.0234-.2266-.0312-.0755-.0104-.1471-.0156-.2148-.0156-.1641,0-.3138,.0339-.4492,.1016-.1354,.0651-.2526,.1602-.3516,.2852-.0964,.1224-.1719,.2708-.2266,.4453-.0521,.1719-.0781,.3633-.0781,.5742v2.3125h-.7109v-4.2891h.5781l.0859,.7852h.0312c.0651-.112 .1341-.22 .207-.3242 .0755-.1042 .1589-.1953 .25-.2734 .0938-.0807 .1979-.1445 .3125-.1914 .1146-.0495 .2448-.0742 .3906-.0742"/>
<path d="m30.165,43.9023-1.7305-5-.0312,0c.0156,.1927 .0286,.3841 .0391,.5742 .0104,.1641 .0182,.3372 .0234,.5195 .0078,.1797 .0117,.3438 .0117,.4922v3.4141h-.6719v-5.7109h1.0781l1.6094,4.6562h.0234l1.6172-4.6562h1.0781v5.7109h-.7266v-3.4648c-0-.1354 .0026-.2904 .0078-.4648 .0052-.1745 .0117-.3411 .0195-.5 .0104-.1849 .0195-.3724 .0273-.5625h-.0312l-1.7461,4.9922h-.5977"/>
<path d="m37.0947,43.9023-.1445-.5938-.0312,0c-.0859,.1172-.1719,.2188-.2578,.3047-.0859,.0833-.1797,.1523-.2812,.207-.1016,.0547-.2148,.0951-.3398,.1211-.125,.026-.2695,.0391-.4336,.0391-.1797,0-.3451-.026-.4961-.0781-.151-.0495-.2826-.1263-.3945-.2305-.1094-.1068-.1953-.2396-.2578-.3984-.0625-.1615-.0938-.3516-.0938-.5703-0-.4271 .1497-.7552 .4492-.9844 .3021-.2292 .7604-.3542 1.375-.375l.7188-.0273v-.2695c-0-.1745-.0195-.3203-.0586-.4375-.0365-.1172-.0911-.2109-.1641-.2812-.0703-.0729-.1589-.125-.2656-.1562-.1042-.0312-.224-.0469-.3594-.0469-.2161,0-.418,.0312-.6055,.0938-.1849,.0625-.3633,.138-.5352,.2266l-.25-.5352c.1927-.1042 .4076-.1927 .6445-.2656 .237-.0729 .4857-.1094 .7461-.1094 .2656,0 .4948,.0273 .6875,.082 .1953,.0521 .3555,.1367 .4805,.2539 .1276,.1146 .2227,.2617 .2852,.4414 .0625,.1797 .0938,.3971 .0938,.6523v2.9375h-.5117m-1.3047-.4961c.1589,0 .306-.0247 .4414-.0742 .1354-.0495 .2526-.1237 .3516-.2227 .099-.1016 .1758-.2279 .2305-.3789 .0573-.1536 .0859-.3333 .0859-.5391v-.3867l-.5586,.0273c-.2344,.0104-.431,.0365-.5898,.0781-.1589,.0417-.2865,.1003-.3828,.1758-.0938,.0729-.1615,.1628-.2031,.2695-.0417,.1042-.0625,.2227-.0625,.3555-0,.2396 .0625,.4154 .1875,.5273 .1276,.112 .2943,.168 .5,.168"/>
<path d="m39.6377,43.9023-.7109,0 0-4.2891 .7109,0 0,4.2891m-.7656-5.4492c0-.1562 .0391-.2695 .1172-.3398 .0807-.0703 .1797-.1055 .2969-.1055 .0573,0 .1107,.0091 .1602,.0273 .0521,.0156 .0964,.0417 .1328,.0781 .0391,.0365 .069,.0833 .0898,.1406 .0234,.0547 .0352,.1211 .0352,.1992-0,.151-.0417,.2643-.125,.3398-.0807,.0729-.1784,.1094-.293,.1094-.1172,0-.2161-.0365-.2969-.1094-.0781-.0729-.1172-.1862-.1172-.3398"/>
<path d="m41.7158,43.9023-.7109,0 0-6.0781 .7109,0 0,6.0781"/>
<path d="m46.8018,43.9805c-.263,0-.5091-.0404-.7383-.1211-.2292-.0833-.4284-.2135-.5977-.3906-.1693-.1797-.3021-.4076-.3984-.6836-.0964-.2786-.1445-.6133-.1445-1.0039-0-.4089 .0495-.7552 .1484-1.0391 .099-.2865 .2344-.5182 .4062-.6953 .1745-.1797 .3776-.3099 .6094-.3906 .2318-.0807 .4805-.1211 .7461-.1211 .2031,0 .401,.0221 .5938,.0664 .1953,.0443 .3581,.099 .4883,.1641l-.2109,.6016c-.0599-.026-.1263-.0508-.1992-.0742-.0729-.026-.1484-.0482-.2266-.0664-.0781-.0208-.1549-.0365-.2305-.0469-.0755-.013-.1471-.0195-.2148-.0195-.4089,0-.707,.1315-.8945,.3945-.1875,.2604-.2813,.6667-.2812,1.2188-0,.5495 .0938,.9518 .2812,1.207 .1901,.2526 .4779,.3789 .8633,.3789 .2109,0 .401-.0234 .5703-.0703 .1719-.0495 .3281-.1068 .4688-.1719v.6328c-.1406,.0755-.2917,.1328-.4531,.1719-.1589,.0391-.3542,.0586-.5859,.0586"/>
<path d="m49.5752,43.9023-.7109,0 0-6.0781 .7109,0 0,6.0781"/>
<path d="m51.6533,43.9023-.7109,0 0-4.2891 .7109,0 0,4.2891m-.7656-5.4492c0-.1562 .0391-.2695 .1172-.3398 .0807-.0703 .1797-.1055 .2969-.1055 .0573,0 .1107,.0091 .1602,.0273 .0521,.0156 .0964,.0417 .1328,.0781 .0391,.0365 .069,.0833 .0898,.1406 .0234,.0547 .0352,.1211 .0352,.1992-0,.151-.0417,.2643-.125,.3398-.0807,.0729-.1784,.1094-.293,.1094-.1172,0-.2161-.0365-.2969-.1094-.0781-.0729-.1172-.1862-.1172-.3398"/>
<path d="m54.7158,43.9805c-.2865,0-.5482-.0482-.7852-.1445-.237-.0964-.4414-.237-.6133-.4219-.1693-.1849-.3008-.4141-.3945-.6875-.0938-.2734-.1406-.5859-.1406-.9375-0-.3542 .043-.6706 .1289-.9492 .0859-.2786 .207-.5143 .3633-.707 .1562-.1953 .3424-.3437 .5586-.4453 .2187-.1016 .4596-.1523 .7227-.1523 .2578,0 .4896,.0469 .6953,.1406 .2057,.0911 .3802,.2214 .5234,.3906 .1432,.1667 .2526,.3685 .3281,.6055 .0781,.2344 .1172,.4948 .1172,.7812v.4414h-2.7031c.013,.5026 .1185,.8724 .3164,1.1094 .2005,.237 .4974,.3555 .8906,.3555 .1328,0 .2552-.0065 .3672-.0195 .1146-.013 .224-.0312 .3281-.0547 .1068-.026 .2096-.0573 .3086-.0938 .099-.0391 .1992-.082 .3008-.1289v.6328c-.1042,.0495-.207,.0924-.3086,.1289-.099,.0365-.2018,.0664-.3086,.0898-.1042,.0234-.2135,.0404-.3281,.0508-.112,.0104-.2344,.0156-.3672,.0156m-.1758-3.8555c-.2969,0-.5326,.1016-.707,.3047-.1719,.2031-.2721,.4987-.3008,.8867h1.9219c-0-.1771-.0182-.3385-.0547-.4844-.0339-.1484-.0885-.2747-.1641-.3789-.0729-.1042-.1667-.1849-.2812-.2422-.1146-.0573-.2526-.0859-.4141-.0859"/>
<path d="m59.9814,43.9023 0-2.7617c-0-.3385-.069-.5924-.207-.7617-.1354-.1693-.349-.2539-.6406-.2539-.2109,0-.388,.0339-.5312,.1016-.1432,.0677-.2591,.168-.3477,.3008-.0859,.1328-.1484,.2956-.1875,.4883-.0365,.1927-.0547,.4141-.0547,.6641v2.2227h-.7109v-4.2891h.5781l.1016,.5781h.0391c.0651-.112 .1419-.2083 .2305-.2891 .0911-.0833 .1901-.1523 .2969-.207 .1068-.0547 .22-.0951 .3398-.1211 .1198-.026 .2422-.0391 .3672-.0391 .4766,0 .8346,.125 1.0742,.375 .2422,.2474 .3633,.6445 .3633,1.1914v2.8008h-.7109"/>
<path d="m63.3174,43.3984c.0469,0 .099-.0026 .1562-.0078 .0599-.0052 .1172-.0117 .1719-.0195 .0547-.0078 .1042-.0169 .1484-.0273 .0469-.0104 .082-.0195 .1055-.0273v.5391c-.0339,.0156-.0768,.0312-.1289,.0469-.0521,.0156-.1094,.0286-.1719,.0391-.0625,.013-.1276,.0221-.1953,.0273-.0677,.0078-.1341,.0117-.1992,.0117-.1615,0-.3112-.0208-.4492-.0625-.138-.0417-.2578-.1133-.3594-.2148-.099-.1016-.1771-.2383-.2344-.4102-.0573-.1745-.0859-.3932-.0859-.6562v-2.4883h-.6055v-.3164l.6055-.3047 .3047-.8984h.4102v.9844h1.0781v.5352h-1.0781v2.4883c-0,.2526 .0404,.4427 .1211,.5703 .0833,.1276 .2187,.1914 .4062,.1914"/>
<path d="m29.4697,57.9023-.7305,0 0-5.0703-1.6328,0 0-.6406 3.9922,0 0,.6406-1.6289,0 0,5.0703"/>
<path d="m33.0752,57.9805c-.2865,0-.5482-.0482-.7852-.1445-.237-.0964-.4414-.237-.6133-.4219-.1693-.1849-.3008-.4141-.3945-.6875-.0938-.2734-.1406-.5859-.1406-.9375-0-.3542 .043-.6706 .1289-.9492 .0859-.2786 .207-.5143 .3633-.707 .1562-.1953 .3424-.3437 .5586-.4453 .2187-.1016 .4596-.1523 .7227-.1523 .2578,0 .4896,.0469 .6953,.1406 .2057,.0911 .3802,.2214 .5234,.3906 .1432,.1667 .2526,.3685 .3281,.6055 .0781,.2344 .1172,.4948 .1172,.7812v.4414h-2.7031c.013,.5026 .1185,.8724 .3164,1.1094 .2005,.237 .4974,.3555 .8906,.3555 .1328,0 .2552-.0065 .3672-.0195 .1146-.013 .224-.0312 .3281-.0547 .1068-.026 .2096-.0573 .3086-.0938 .099-.0391 .1992-.082 .3008-.1289v.6328c-.1042,.0495-.207,.0924-.3086,.1289-.099,.0365-.2018,.0664-.3086,.0898-.1042,.0234-.2135,.0404-.3281,.0508-.112,.0104-.2344,.0156-.3672,.0156m-.1758-3.8555c-.2969,0-.5326,.1016-.707,.3047-.1719,.2031-.2721,.4987-.3008,.8867h1.9219c-0-.1771-.0182-.3385-.0547-.4844-.0339-.1484-.0885-.2747-.1641-.3789-.0729-.1042-.1667-.1849-.2812-.2422-.1146-.0573-.2526-.0859-.4141-.0859"/>
<path d="m36.5752,55.7031-1.3789-2.0898 .8086,0 .9766,1.6016 .9766-1.6016 .8086,0-1.3867,2.0898 1.457,2.1992-.8086,0-1.0469-1.7031-1.0547,1.7031-.8086,0 1.457-2.1992"/>
<path d="m40.958,57.3984c.0469,0 .099-.0026 .1562-.0078 .0599-.0052 .1172-.0117 .1719-.0195 .0547-.0078 .1042-.0169 .1484-.0273 .0469-.0104 .082-.0195 .1055-.0273v.5391c-.0339,.0156-.0768,.0312-.1289,.0469-.0521,.0156-.1094,.0286-.1719,.0391-.0625,.013-.1276,.0221-.1953,.0273-.0677,.0078-.1341,.0117-.1992,.0117-.1615,0-.3112-.0208-.4492-.0625-.138-.0417-.2578-.1133-.3594-.2148-.099-.1016-.1771-.2383-.2344-.4102-.0573-.1745-.0859-.3932-.0859-.6562v-2.4883h-.6055v-.3164l.6055-.3047 .3047-.8984h.4102v.9844h1.0781v.5352h-1.0781v2.4883c-0,.2526 .0404,.4427 .1211,.5703 .0833,.1276 .2187,.1914 .4062,.1914"/>
<path d="m46.1533,57.9805c-.2865,0-.5482-.0482-.7852-.1445-.237-.0964-.4414-.237-.6133-.4219-.1693-.1849-.3008-.4141-.3945-.6875-.0938-.2734-.1406-.5859-.1406-.9375-0-.3542 .043-.6706 .1289-.9492 .0859-.2786 .207-.5143 .3633-.707 .1562-.1953 .3424-.3437 .5586-.4453 .2187-.1016 .4596-.1523 .7227-.1523 .2578,0 .4896,.0469 .6953,.1406 .2057,.0911 .3802,.2214 .5234,.3906 .1432,.1667 .2526,.3685 .3281,.6055 .0781,.2344 .1172,.4948 .1172,.7812v.4414h-2.7031c.013,.5026 .1185,.8724 .3164,1.1094 .2005,.237 .4974,.3555 .8906,.3555 .1328,0 .2552-.0065 .3672-.0195 .1146-.013 .224-.0312 .3281-.0547 .1068-.026 .2096-.0573 .3086-.0938 .099-.0391 .1992-.082 .3008-.1289v.6328c-.1042,.0495-.207,.0924-.3086,.1289-.099,.0365-.2018,.0664-.3086,.0898-.1042,.0234-.2135,.0404-.3281,.0508-.112,.0104-.2344,.0156-.3672,.0156m-.1758-3.8555c-.2969,0-.5326,.1016-.707,.3047-.1719,.2031-.2721,.4987-.3008,.8867h1.9219c-0-.1771-.0182-.3385-.0547-.4844-.0339-.1484-.0885-.2747-.1641-.3789-.0729-.1042-.1667-.1849-.2812-.2422-.1146-.0573-.2526-.0859-.4141-.0859"/>
<path d="m51.3877,57.3281-.0312,0c-.0573,.0885-.125,.1732-.2031,.2539-.0755,.0781-.1641,.1471-.2656,.207-.099,.0599-.2109,.1068-.3359,.1406-.125,.0339-.2656,.0508-.4219,.0508-.2422,0-.4635-.0469-.6641-.1406-.2005-.0938-.3724-.2331-.5156-.418-.1432-.1875-.2539-.4193-.332-.6953-.0781-.276-.1172-.5964-.1172-.9609-0-.3672 .0391-.6888 .1172-.9648 .0781-.2786 .1888-.5117 .332-.6992 .1432-.1875 .3151-.3281 .5156-.4219 .2005-.0964 .4219-.1445 .6641-.1445 .1536,0 .293,.0169 .418,.0508 .125,.0339 .237,.0794 .3359,.1367 .1016,.0573 .1914,.1237 .2695,.1992 .0781,.0755 .1458,.155 .2031,.2383h.0469c-.0078-.0885-.0156-.1732-.0234-.2539-.0052-.0677-.0104-.1367-.0156-.207-.0052-.0729-.0078-.1302-.0078-.1719v-1.7031h.7109v6.0781h-.5742l-.1055-.5742m-1.1211,.0625c.1979,0 .3646-.0299 .5-.0898 .138-.0599 .2487-.151 .332-.2734 .0859-.1224 .1484-.2747 .1875-.457 .0417-.1849 .0651-.3997 .0703-.6445v-.1602c-0-.263-.0182-.4961-.0547-.6992-.0339-.2057-.0938-.3776-.1797-.5156-.0833-.1406-.1953-.2461-.3359-.3164-.1406-.0729-.3164-.1094-.5273-.1094-.3516,0-.6107,.1419-.7773,.4258-.1641,.2839-.2461,.6914-.2461,1.2227-0,.5443 .082,.9505 .2461,1.2188 .1667,.2656 .4284,.3984 .7852,.3984"/>
<path d="m54.1377,57.9023-.7109,0 0-4.2891 .7109,0 0,4.2891m-.7656-5.4492c0-.1562 .0391-.2695 .1172-.3398 .0807-.0703 .1797-.1055 .2969-.1055 .0573,0 .1107,.0091 .1602,.0273 .0521,.0156 .0964,.0417 .1328,.0781 .0391,.0365 .069,.0833 .0898,.1406 .0234,.0547 .0352,.1211 .0352,.1992-0,.151-.0417,.2643-.125,.3398-.0807,.0729-.1784,.1094-.293,.1094-.1172,0-.2161-.0365-.2969-.1094-.0781-.0729-.1172-.1862-.1172-.3398"/>
<path d="m56.8018,57.3984c.0469,0 .099-.0026 .1562-.0078 .0599-.0052 .1172-.0117 .1719-.0195 .0547-.0078 .1042-.0169 .1484-.0273 .0469-.0104 .082-.0195 .1055-.0273v.5391c-.0339,.0156-.0768,.0312-.1289,.0469-.0521,.0156-.1094,.0286-.1719,.0391-.0625,.013-.1276,.0221-.1953,.0273-.0677,.0078-.1341,.0117-.1992,.0117-.1615,0-.3112-.0208-.4492-.0625-.138-.0417-.2578-.1133-.3594-.2148-.099-.1016-.1771-.2383-.2344-.4102-.0573-.1745-.0859-.3932-.0859-.6562v-2.4883h-.6055v-.3164l.6055-.3047 .3047-.8984h.4102v.9844h1.0781v.5352h-1.0781v2.4883c-0,.2526 .0404,.4427 .1211,.5703 .0833,.1276 .2187,.1914 .4062,.1914"/>
<path d="m61.7197,55.75c-0,.3568-.0443,.6745-.1328,.9531-.0859,.276-.2109,.5091-.375,.6992-.1615,.1875-.3581,.3307-.5898,.4297-.2318,.099-.4922,.1484-.7812,.1484-.2682,0-.5156-.0495-.7422-.1484-.2266-.099-.4232-.2422-.5898-.4297-.1641-.1901-.293-.4232-.3867-.6992-.0911-.2786-.1367-.5964-.1367-.9531-0-.3542 .043-.668 .1289-.9414 .0885-.276 .2135-.5078 .375-.6953 .1615-.1901 .3581-.3333 .5898-.4297 .2344-.099 .4961-.1484 .7852-.1484 .2682,0 .5156,.0495 .7422,.1484 .2266,.0964 .4219,.2396 .5859,.4297 .1667,.1875 .2956,.4193 .3867,.6953 .0937,.2734 .1406,.5872 .1406,.9414m-3,0c-0,.5443 .0885,.9544 .2656,1.2305 .1797,.2734 .4701,.4102 .8711,.4102 .401,0 .6888-.1367 .8633-.4102 .1771-.276 .2656-.6862 .2656-1.2305-0-.5443-.0898-.9505-.2695-1.2188-.1771-.2708-.4661-.4062-.8672-.4062-.401,0-.6901,.1354-.8672,.4062-.1745,.2682-.2617,.6745-.2617,1.2188"/>
<path d="m64.7041,53.5352c.0755,0 .1602,.0039 .2539,.0117 .0938,.0052 .1745,.0143 .2422,.0273l-.0938,.6562c-.0729-.013-.1484-.0234-.2266-.0312-.0755-.0104-.1471-.0156-.2148-.0156-.1641,0-.3138,.0339-.4492,.1016-.1354,.0651-.2526,.1602-.3516,.2852-.0964,.1224-.1719,.2708-.2266,.4453-.0521,.1719-.0781,.3633-.0781,.5742v2.3125h-.7109v-4.2891h.5781l.0859,.7852h.0312c.0651-.112 .1341-.22 .207-.3242 .0755-.1042 .1589-.1953 .25-.2734 .0938-.0807 .1979-.1445 .3125-.1914 .1146-.0495 .2448-.0742 .3906-.0742"/>
</g>
<g fill="#fff">
<path d="m31.2275,67.8633c-0,.237-.0365,.4648-.1094,.6836-.0703,.2188-.1875,.4128-.3516,.582-.1641,.1667-.3815,.3008-.6523,.4023-.2682,.099-.6003,.1484-.9961,.1484h-.5859v2.2227h-.7266v-5.7109h1.4141c.349,0 .6497,.0378 .9023,.1133 .2526,.0729 .4609,.181 .625,.3242 .1641,.1406 .2852,.3151 .3633,.5234 .0781,.2083 .1172,.4453 .1172,.7109m-2.6953,1.1992 .5039,0c.2422,0 .4531-.0208 .6328-.0625 .1823-.0417 .332-.1081 .4492-.1992 .1198-.0938 .2096-.2135 .2695-.3594 .0599-.1484 .0898-.3281 .0898-.5391-0-.3698-.1068-.6432-.3203-.8203-.2135-.1797-.5469-.2695-1-.2695h-.625v2.25"/>
<path d="m34.9971,71.9023 0-2.7617c-0-.3385-.069-.5924-.207-.7617-.1354-.1693-.349-.2539-.6406-.2539-.2109,0-.388,.0339-.5312,.1016-.1432,.0677-.2591,.168-.3477,.3008-.0859,.1328-.1484,.2956-.1875,.4883-.0365,.1927-.0547,.4141-.0547,.6641v2.2227h-.7109v-6.0781h.7109v1.8047l-.0312,.5625h.0391c.0651-.112 .1419-.2083 .2305-.2891 .0911-.0833 .1901-.1523 .2969-.207 .1068-.0547 .22-.0951 .3398-.1211 .1198-.026 .2422-.0391 .3672-.0391 .4766,0 .8346,.125 1.0742,.375 .2422,.2474 .3633,.6445 .3633,1.1914v2.8008h-.7109"/>
<path d="m40.5322,69.75c-0,.3568-.0443,.6745-.1328,.9531-.0859,.276-.2109,.5091-.375,.6992-.1615,.1875-.3581,.3307-.5898,.4297-.2318,.099-.4922,.1484-.7812,.1484-.2682,0-.5156-.0495-.7422-.1484-.2266-.099-.4232-.2422-.5898-.4297-.1641-.1901-.293-.4232-.3867-.6992-.0911-.2786-.1367-.5964-.1367-.9531-0-.3542 .043-.668 .1289-.9414 .0885-.276 .2135-.5078 .375-.6953 .1615-.1901 .3581-.3333 .5898-.4297 .2344-.099 .4961-.1484 .7852-.1484 .2682,0 .5156,.0495 .7422,.1484 .2266,.0964 .4219,.2396 .5859,.4297 .1667,.1875 .2956,.4193 .3867,.6953 .0937,.2734 .1406,.5872 .1406,.9414m-3,0c-0,.5443 .0885,.9544 .2656,1.2305 .1797,.2734 .4701,.4102 .8711,.4102 .401,0 .6888-.1367 .8633-.4102 .1771-.276 .2656-.6862 .2656-1.2305-0-.5443-.0898-.9505-.2695-1.2188-.1771-.2708-.4661-.4062-.8672-.4062-.401,0-.6901,.1354-.8672,.4062-.1745,.2682-.2617,.6745-.2617,1.2188"/>
<path d="m42.958,71.3984c.0469,0 .099-.0026 .1562-.0078 .0599-.0052 .1172-.0117 .1719-.0195 .0547-.0078 .1042-.0169 .1484-.0273 .0469-.0104 .082-.0195 .1055-.0273v.5391c-.0339,.0156-.0768,.0312-.1289,.0469-.0521,.0156-.1094,.0286-.1719,.0391-.0625,.013-.1276,.0221-.1953,.0273-.0677,.0078-.1341,.0117-.1992,.0117-.1615,0-.3112-.0208-.4492-.0625-.138-.0417-.2578-.1133-.3594-.2148-.099-.1016-.1771-.2383-.2344-.4102-.0573-.1745-.0859-.3932-.0859-.6562v-2.4883h-.6055v-.3164l.6055-.3047 .3047-.8984h.4102v.9844h1.0781v.5352h-1.0781v2.4883c-0,.2526 .0404,.4427 .1211,.5703 .0833,.1276 .2187,.1914 .4062,.1914"/>
<path d="m47.876,69.75c-0,.3568-.0443,.6745-.1328,.9531-.0859,.276-.2109,.5091-.375,.6992-.1615,.1875-.3581,.3307-.5898,.4297-.2318,.099-.4922,.1484-.7812,.1484-.2682,0-.5156-.0495-.7422-.1484-.2266-.099-.4232-.2422-.5898-.4297-.1641-.1901-.293-.4232-.3867-.6992-.0911-.2786-.1367-.5964-.1367-.9531-0-.3542 .043-.668 .1289-.9414 .0885-.276 .2135-.5078 .375-.6953 .1615-.1901 .3581-.3333 .5898-.4297 .2344-.099 .4961-.1484 .7852-.1484 .2682,0 .5156,.0495 .7422,.1484 .2266,.0964 .4219,.2396 .5859,.4297 .1667,.1875 .2956,.4193 .3867,.6953 .0937,.2734 .1406,.5872 .1406,.9414m-3,0c-0,.5443 .0885,.9544 .2656,1.2305 .1797,.2734 .4701,.4102 .8711,.4102 .401,0 .6888-.1367 .8633-.4102 .1771-.276 .2656-.6862 .2656-1.2305-0-.5443-.0898-.9505-.2695-1.2188-.1771-.2708-.4661-.4062-.8672-.4062-.401,0-.6901,.1354-.8672,.4062-.1745,.2682-.2617,.6745-.2617,1.2188"/>
<path d="m52.7783,71.9805c-.2865,0-.5482-.0482-.7852-.1445-.237-.0964-.4414-.237-.6133-.4219-.1693-.1849-.3008-.4141-.3945-.6875-.0938-.2734-.1406-.5859-.1406-.9375-0-.3542 .043-.6706 .1289-.9492 .0859-.2786 .207-.5143 .3633-.707 .1562-.1953 .3424-.3437 .5586-.4453 .2187-.1016 .4596-.1523 .7227-.1523 .2578,0 .4896,.0469 .6953,.1406 .2057,.0911 .3802,.2214 .5234,.3906 .1432,.1667 .2526,.3685 .3281,.6055 .0781,.2344 .1172,.4948 .1172,.7812v.4414h-2.7031c.013,.5026 .1185,.8724 .3164,1.1094 .2005,.237 .4974,.3555 .8906,.3555 .1328,0 .2552-.0065 .3672-.0195 .1146-.013 .224-.0312 .3281-.0547 .1068-.026 .2096-.0573 .3086-.0938 .099-.0391 .1992-.082 .3008-.1289v.6328c-.1042,.0495-.207,.0924-.3086,.1289-.099,.0365-.2018,.0664-.3086,.0898-.1042,.0234-.2135,.0404-.3281,.0508-.112,.0104-.2344,.0156-.3672,.0156m-.1758-3.8555c-.2969,0-.5326,.1016-.707,.3047-.1719,.2031-.2721,.4987-.3008,.8867h1.9219c-0-.1771-.0182-.3385-.0547-.4844-.0339-.1484-.0885-.2747-.1641-.3789-.0729-.1042-.1667-.1849-.2812-.2422-.1146-.0573-.2526-.0859-.4141-.0859"/>
<path d="m58.0127,71.3281-.0312,0c-.0573,.0885-.125,.1732-.2031,.2539-.0755,.0781-.1641,.1471-.2656,.207-.099,.0599-.2109,.1068-.3359,.1406-.125,.0339-.2656,.0508-.4219,.0508-.2422,0-.4635-.0469-.6641-.1406-.2005-.0938-.3724-.2331-.5156-.418-.1432-.1875-.2539-.4193-.332-.6953-.0781-.276-.1172-.5964-.1172-.9609-0-.3672 .0391-.6888 .1172-.9648 .0781-.2786 .1888-.5117 .332-.6992 .1432-.1875 .3151-.3281 .5156-.4219 .2005-.0964 .4219-.1445 .6641-.1445 .1536,0 .293,.0169 .418,.0508 .125,.0339 .237,.0794 .3359,.1367 .1016,.0573 .1914,.1237 .2695,.1992 .0781,.0755 .1458,.155 .2031,.2383h.0469c-.0078-.0885-.0156-.1732-.0234-.2539-.0052-.0677-.0104-.1367-.0156-.207-.0052-.0729-.0078-.1302-.0078-.1719v-1.7031h.7109v6.0781h-.5742l-.1055-.5742m-1.1211,.0625c.1979,0 .3646-.0299 .5-.0898 .138-.0599 .2487-.151 .332-.2734 .0859-.1224 .1484-.2747 .1875-.457 .0417-.1849 .0651-.3997 .0703-.6445v-.1602c-0-.263-.0182-.4961-.0547-.6992-.0339-.2057-.0938-.3776-.1797-.5156-.0833-.1406-.1953-.2461-.3359-.3164-.1406-.0729-.3164-.1094-.5273-.1094-.3516,0-.6107,.1419-.7773,.4258-.1641,.2839-.2461,.6914-.2461,1.2227-0,.5443 .082,.9505 .2461,1.2188 .1667,.2656 .4284,.3984 .7852,.3984"/>
<path d="m60.7627,71.9023-.7109,0 0-4.2891 .7109,0 0,4.2891m-.7656-5.4492c0-.1562 .0391-.2695 .1172-.3398 .0807-.0703 .1797-.1055 .2969-.1055 .0573,0 .1107,.0091 .1602,.0273 .0521,.0156 .0964,.0417 .1328,.0781 .0391,.0365 .069,.0833 .0898,.1406 .0234,.0547 .0352,.1211 .0352,.1992-0,.151-.0417,.2643-.125,.3398-.0807,.0729-.1784,.1094-.293,.1094-.1172,0-.2161-.0365-.2969-.1094-.0781-.0729-.1172-.1862-.1172-.3398"/>
<path d="m63.4268,71.3984c.0469,0 .099-.0026 .1562-.0078 .0599-.0052 .1172-.0117 .1719-.0195 .0547-.0078 .1042-.0169 .1484-.0273 .0469-.0104 .082-.0195 .1055-.0273v.5391c-.0339,.0156-.0768,.0312-.1289,.0469-.0521,.0156-.1094,.0286-.1719,.0391-.0625,.013-.1276,.0221-.1953,.0273-.0677,.0078-.1341,.0117-.1992,.0117-.1615,0-.3112-.0208-.4492-.0625-.138-.0417-.2578-.1133-.3594-.2148-.099-.1016-.1771-.2383-.2344-.4102-.0573-.1745-.0859-.3932-.0859-.6562v-2.4883h-.6055v-.3164l.6055-.3047 .3047-.8984h.4102v.9844h1.0781v.5352h-1.0781v2.4883c-0,.2526 .0404,.4427 .1211,.5703 .0833,.1276 .2187,.1914 .4062,.1914"/>
<path d="m68.3447,69.75c-0,.3568-.0443,.6745-.1328,.9531-.0859,.276-.2109,.5091-.375,.6992-.1615,.1875-.3581,.3307-.5898,.4297-.2318,.099-.4922,.1484-.7812,.1484-.2682,0-.5156-.0495-.7422-.1484-.2266-.099-.4232-.2422-.5898-.4297-.1641-.1901-.293-.4232-.3867-.6992-.0911-.2786-.1367-.5964-.1367-.9531-0-.3542 .043-.668 .1289-.9414 .0885-.276 .2135-.5078 .375-.6953 .1615-.1901 .3581-.3333 .5898-.4297 .2344-.099 .4961-.1484 .7852-.1484 .2682,0 .5156,.0495 .7422,.1484 .2266,.0964 .4219,.2396 .5859,.4297 .1667,.1875 .2956,.4193 .3867,.6953 .0937,.2734 .1406,.5872 .1406,.9414m-3,0c-0,.5443 .0885,.9544 .2656,1.2305 .1797,.2734 .4701,.4102 .8711,.4102 .401,0 .6888-.1367 .8633-.4102 .1771-.276 .2656-.6862 .2656-1.2305-0-.5443-.0898-.9505-.2695-1.2188-.1771-.2708-.4661-.4062-.8672-.4062-.401,0-.6901,.1354-.8672,.4062-.1745,.2682-.2617,.6745-.2617,1.2188"/>
<path d="m71.3291,67.5352c.0755,0 .1602,.0039 .2539,.0117 .0938,.0052 .1745,.0143 .2422,.0273l-.0938,.6562c-.0729-.013-.1484-.0234-.2266-.0312-.0755-.0104-.1471-.0156-.2148-.0156-.1641,0-.3138,.0339-.4492,.1016-.1354,.0651-.2526,.1602-.3516,.2852-.0964,.1224-.1719,.2708-.2266,.4453-.0521,.1719-.0781,.3633-.0781,.5742v2.3125h-.7109v-4.2891h.5781l.0859,.7852h.0312c.0651-.112 .1341-.22 .207-.3242 .0755-.1042 .1589-.1953 .25-.2734 .0938-.0807 .1979-.1445 .3125-.1914 .1146-.0495 .2448-.0742 .3906-.0742"/>
</g>
<g fill="#666">
<path d="m29.4697,85.9023-.7305,0 0-5.0703-1.6328,0 0-.6406 3.9922,0 0,.6406-1.6289,0 0,5.0703"/>
<path d="m33.0752,85.9805c-.2865,0-.5482-.0482-.7852-.1445-.237-.0964-.4414-.237-.6133-.4219-.1693-.1849-.3008-.4141-.3945-.6875-.0938-.2734-.1406-.5859-.1406-.9375-0-.3542 .043-.6706 .1289-.9492 .0859-.2786 .207-.5143 .3633-.707 .1562-.1953 .3424-.3437 .5586-.4453 .2187-.1016 .4596-.1523 .7227-.1523 .2578,0 .4896,.0469 .6953,.1406 .2057,.0911 .3802,.2214 .5234,.3906 .1432,.1667 .2526,.3685 .3281,.6055 .0781,.2344 .1172,.4948 .1172,.7812v.4414h-2.7031c.013,.5026 .1185,.8724 .3164,1.1094 .2005,.237 .4974,.3555 .8906,.3555 .1328,0 .2552-.0065 .3672-.0195 .1146-.013 .224-.0312 .3281-.0547 .1068-.026 .2096-.0573 .3086-.0938 .099-.0391 .1992-.082 .3008-.1289v.6328c-.1042,.0495-.207,.0924-.3086,.1289-.099,.0365-.2018,.0664-.3086,.0898-.1042,.0234-.2135,.0404-.3281,.0508-.112,.0104-.2344,.0156-.3672,.0156m-.1758-3.8555c-.2969,0-.5326,.1016-.707,.3047-.1719,.2031-.2721,.4987-.3008,.8867h1.9219c-0-.1771-.0182-.3385-.0547-.4844-.0339-.1484-.0885-.2747-.1641-.3789-.0729-.1042-.1667-.1849-.2812-.2422-.1146-.0573-.2526-.0859-.4141-.0859"/>
<path d="m37.5166,81.5352c.0755,0 .1602,.0039 .2539,.0117 .0938,.0052 .1745,.0143 .2422,.0273l-.0938,.6562c-.0729-.013-.1484-.0234-.2266-.0312-.0755-.0104-.1471-.0156-.2148-.0156-.1641,0-.3138,.0339-.4492,.1016-.1354,.0651-.2526,.1602-.3516,.2852-.0964,.1224-.1719,.2708-.2266,.4453-.0521,.1719-.0781,.3633-.0781,.5742v2.3125h-.7109v-4.2891h.5781l.0859,.7852h.0312c.0651-.112 .1341-.22 .207-.3242 .0755-.1042 .1589-.1953 .25-.2734 .0938-.0807 .1979-.1445 .3125-.1914 .1146-.0495 .2448-.0742 .3906-.0742"/>
<path d="m43.9854,85.9023 0-2.7617c-0-.3385-.0651-.5924-.1953-.7617-.1302-.1693-.332-.2539-.6055-.2539-.1901,0-.3516,.0312-.4844,.0938-.1328,.0599-.2422,.1497-.3281,.2695-.0833,.1172-.1445,.2643-.1836,.4414-.0391,.1745-.0586,.3763-.0586,.6055v2.3672h-.7148v-2.7617c-0-.3385-.0651-.5924-.1953-.7617-.1276-.1693-.3281-.2539-.6016-.2539-.2005,0-.3685,.0339-.5039,.1016-.1354,.0677-.2448,.168-.3281,.3008-.0807,.1328-.1393,.2956-.1758,.4883-.0339,.1927-.0508,.4141-.0508,.6641v2.2227h-.7109v-4.2891h.5781l.1016,.5781h.0391c.0625-.112 .1367-.2083 .2227-.2891 .0859-.0833 .1797-.1523 .2812-.207 .1042-.0547 .2135-.0951 .3281-.1211 .1172-.026 .2357-.0391 .3555-.0391 .3125,0 .5716,.0573 .7773,.1719 .2083,.1146 .362,.2943 .4609,.5391h.0312c.0677-.1224 .1484-.2279 .2422-.3164 .0964-.0885 .2005-.1615 .3125-.2188 .1146-.0599 .2344-.1042 .3594-.1328 .125-.0286 .2526-.043 .3828-.043 .4557,0 .7982,.125 1.0273,.375 .2318,.2474 .3477,.6445 .3477,1.1914v2.8008h-.7109"/>
<path d="m46.7314,85.9023-.7109,0 0-4.2891 .7109,0 0,4.2891m-.7656-5.4492c0-.1562 .0391-.2695 .1172-.3398 .0807-.0703 .1797-.1055 .2969-.1055 .0573,0 .1107,.0091 .1602,.0273 .0521,.0156 .0964,.0417 .1328,.0781 .0391,.0365 .069,.0833 .0898,.1406 .0234,.0547 .0352,.1211 .0352,.1992-0,.151-.0417,.2643-.125,.3398-.0807,.0729-.1784,.1094-.293,.1094-.1172,0-.2161-.0365-.2969-.1094-.0781-.0729-.1172-.1862-.1172-.3398"/>
<path d="m50.7783,85.9023 0-2.7617c-0-.3385-.069-.5924-.207-.7617-.1354-.1693-.349-.2539-.6406-.2539-.2109,0-.388,.0339-.5312,.1016-.1432,.0677-.2591,.168-.3477,.3008-.0859,.1328-.1484,.2956-.1875,.4883-.0365,.1927-.0547,.4141-.0547,.6641v2.2227h-.7109v-4.2891h.5781l.1016,.5781h.0391c.0651-.112 .1419-.2083 .2305-.2891 .0911-.0833 .1901-.1523 .2969-.207 .1068-.0547 .22-.0951 .3398-.1211 .1198-.026 .2422-.0391 .3672-.0391 .4766,0 .8346,.125 1.0742,.375 .2422,.2474 .3633,.6445 .3633,1.1914v2.8008h-.7109"/>
<path d="m55.2354,85.9023-.1445-.5938-.0312,0c-.0859,.1172-.1719,.2188-.2578,.3047-.0859,.0833-.1797,.1523-.2812,.207-.1016,.0547-.2148,.0951-.3398,.1211-.125,.026-.2695,.0391-.4336,.0391-.1797,0-.3451-.026-.4961-.0781-.151-.0495-.2826-.1263-.3945-.2305-.1094-.1068-.1953-.2396-.2578-.3984-.0625-.1615-.0938-.3516-.0938-.5703-0-.4271 .1497-.7552 .4492-.9844 .3021-.2292 .7604-.3542 1.375-.375l.7188-.0273v-.2695c-0-.1745-.0195-.3203-.0586-.4375-.0365-.1172-.0911-.2109-.1641-.2812-.0703-.0729-.1589-.125-.2656-.1562-.1042-.0312-.224-.0469-.3594-.0469-.2161,0-.418,.0312-.6055,.0938-.1849,.0625-.3633,.138-.5352,.2266l-.25-.5352c.1927-.1042 .4076-.1927 .6445-.2656 .237-.0729 .4857-.1094 .7461-.1094 .2656,0 .4948,.0273 .6875,.082 .1953,.0521 .3555,.1367 .4805,.2539 .1276,.1146 .2227,.2617 .2852,.4414 .0625,.1797 .0938,.3971 .0938,.6523v2.9375h-.5117m-1.3047-.4961c.1589,0 .306-.0247 .4414-.0742 .1354-.0495 .2526-.1237 .3516-.2227 .099-.1016 .1758-.2279 .2305-.3789 .0573-.1536 .0859-.3333 .0859-.5391v-.3867l-.5586,.0273c-.2344,.0104-.431,.0365-.5898,.0781-.1589,.0417-.2865,.1003-.3828,.1758-.0938,.0729-.1615,.1628-.2031,.2695-.0417,.1042-.0625,.2227-.0625,.3555-0,.2396 .0625,.4154 .1875,.5273 .1276,.112 .2943,.168 .5,.168"/>
<path d="m57.7783,85.9023-.7109,0 0-6.0781 .7109,0 0,6.0781"/>
</g>
</g>
<g display="block">
<path fill="url(#linearGradient5044)" d="m21.9999,82.3096c0-.1968-.1632-.3561-.3634-.3561h-.7049c-.0937-.3518-.2353-.688-.4142-.9956l.5015-.5015c.0708-.0708 .1082-.1555 .109-.2471 .0008-.0916-.0322-.1848-.1017-.2544l-.9811-.9811c-.1391-.1391-.3599-.1343-.5015,.0073l-.5015,.5015c-.3076-.1789-.6438-.3205-.9956-.4142v-.7049c-0-.2001-.1593-.3634-.3561-.3634h-1.3808c-.1968,0-.3561,.1632-.3561,.3634v.7049c-.3518,.0938-.688,.2353-.9956,.4142l-.5015-.5015c-.1415-.1415-.3623-.1464-.5015-.0073l-.9811,.9811c-.1391,.1391-.1343,.3599 .0073,.5015l.5014,.5015c-.1789,.3076-.3205,.6438-.4142,.9956h-.7049c-.2001,0-.3634,.1593-.3634,.3561v1.3808c0,.1968 .1632,.3561 .3634,.3561h.7049c.0938,.3518 .2353,.688 .4142,.9956l-.5015,.5015c-.1415,.1415-.1464,.3623-.0073,.5015l.9811,.9811c.1391,.1391 .3599,.1343 .5015-.0073l.5015-.5015c.3076,.1789 .6438,.3205 .9956,.4142v.7049c0,.2001 .1593,.3634 .3561,.3634h1.3808c.1968,0 .3561-.1632 .3561-.3634v-.7049c.3518-.0937 .688-.2353 .9956-.4142l.5015,.5015c.1415,.1415 .3623,.1464 .5015,.0073l.9811-.9811c.1391-.1391 .1343-.3599-.0073-.5015l-.5015-.5015c.1789-.3076 .3205-.6438 .4142-.9956h.7049c.2001,0 .3634-.1593 .3634-.3561v-1.3808zm-3.4884,.6904c0,.8344-.6772,1.5116-1.5116,1.5116-.8344,0-1.5116-.6772-1.5116-1.5116 0-.8344 .6772-1.5116 1.5116-1.5116 .8344,0 1.5116,.6772 1.5116,1.5116z"/>
<path opacity=".5" d="m16.3125,78c-.1968,0-.3438,.1749-.3438,.375v.6875c-.3518,.0938-.6924,.2274-1,.4062l-.5-.5c-.1415-.1415-.3609-.1391-.5,0l-1,1c-.1391,.1391-.1416,.3585 0,.5l.25,.25 .75-.75c.1391-.1391 .3585-.1415 .5,0l.5,.5c.3076-.1789 .6482-.3125 1-.4062v-.6875c0-.2001 .147-.375 .3438-.375h1.375c.1968,0 .3437,.1749 .3438,.375v.6875c.3518,.0938 .6924,.2274 1,.4062l.5-.5c.1415-.1416 .3609-.1391 .5,0l.75,.75 .25-.25c.0708-.0708 .093-.1584 .0938-.25 .0008-.0916-.0242-.1804-.0938-.25l-1-1c-.1391-.1391-.3585-.1416-.5,0l-.5,.5c-.3076-.1789-.6482-.3125-1-.4062v-.6875c-0-.2001-.147-.375-.3438-.375h-1.375zm-3.1562,3.6562c-.0349,.0988-.0666,.2107-.0938,.3125h-.6875c-.2001,0-.375,.147-.375,.3438v1c0-.1968 .1749-.3438 .375-.3438h.6875c.0938-.3518 .2274-.6924 .4062-1l-.3125-.3125zm7.6875,0-.3125,.3125c.1789,.3076 .3125,.6482 .4062,1h.6875c.2001,0 .375,.147 .375,.3438v-1c0-.1968-.1749-.3438-.375-.3438h-.6875c-.0271-.1018-.0589-.2137-.0938-.3125zm-5.2812,1.8438c-.0536,.1549-.0625,.327-.0625,.5 0,.8344 .6656,1.5 1.5,1.5 .8344,0 1.5-.6656 1.5-1.5 0-.173-.0089-.3451-.0625-.5-.2049,.592-.7761,1-1.4375,1-.6614,0-1.2326-.408-1.4375-1zm-2.4062,1.8438-.1875,.1875c-.1415,.1415-.1391,.3609 0,.5l.25,.25 .25-.25c-.1272-.2186-.2268-.4446-.3125-.6875zm7.6875,0c-.0857,.2429-.1853,.4689-.3125,.6875l.25,.25 .25-.25c.1391-.1391 .1416-.3585 0-.5l-.1875-.1875z"/>
<path fill="#fff" d="m13.2188,80.7188-.25,.25c-.1391,.1391-.1416,.3585 0,.5l.1875,.1875c.0857-.2429 .1853-.4689 .3125-.6875l-.25-.25zm7.5625,0-.25,.25c.1272,.2186 .2268,.4446 .3125,.6875l.1875-.1875c.0708-.0708 .093-.1584 .0938-.25 .0008-.0916-.0242-.1804-.0938-.25l-.25-.25zm-3.7812,.7812c-.8344,0-1.5,.6656-1.5,1.5 0,.173 .0089,.3451 .0625,.5 .2049-.592 .7761-1 1.4375-1 .6614,0 1.2326,.408 1.4375,1 .0536-.1549 .0625-.327 .0625-.5 0-.8344-.6656-1.5-1.5-1.5zm-5,2.1875 0,1c0,.1968 .1749,.3438 .375,.3438h.6875c.0271,.1018 .0589,.2137 .0938,.3125l.3125-.3125c-.1789-.3076-.3125-.6482-.4062-1h-.6875c-.2001,0-.375-.147-.375-.3438zm10,0c0,.1968-.1749,.3438-.375,.3438h-.6875c-.0937,.3518-.2274,.6924-.4062,1l.3125,.3125c.0349-.0988 .0666-.2107 .0938-.3125h.6875c.2001,0 .375-.147 .375-.3438v-1zm-8.7812,2.5938-.25,.25c-.1415,.1415-.1391,.3609 0,.5l1,1c.1391,.1391 .3585,.1416 .5,0l.5-.5c.3076,.1789 .6482,.3125 1,.4062v.6875c0,.2001 .147,.375 .3438,.375h1.375c.1968,0 .3438-.1749 .3438-.375v-.6875c.3518-.0937 .6924-.2274 1-.4062l.5,.5c.1415,.1415 .3609,.1391 .5,0l1-1c.1391-.1391 .1416-.3585 0-.5l-.25-.25-.75,.75c-.1391,.1391-.3585,.1415-.5,0l-.5-.5c-.3076,.1789-.6482,.3125-1,.4062v.6875c0,.2001-.147,.375-.3438,.375h-1.375c-.1968,0-.3438-.1749-.3438-.375v-.6875c-.3518-.0938-.6924-.2274-1-.4062l-.5,.5c-.1415,.1416-.3609,.1391-.5,0l-.75-.75z"/>
<g transform="translate(0 -28)">
<path fill="url(#linearGradient5044)" d="m21.9999,82.3096c0-.1968-.1632-.3561-.3634-.3561h-.7049c-.0937-.3518-.2353-.688-.4142-.9956l.5015-.5015c.0708-.0708 .1082-.1555 .109-.2471 .0008-.0916-.0322-.1848-.1017-.2544l-.9811-.9811c-.1391-.1391-.3599-.1343-.5015,.0073l-.5015,.5015c-.3076-.1789-.6438-.3205-.9956-.4142v-.7049c-0-.2001-.1593-.3634-.3561-.3634h-1.3808c-.1968,0-.3561,.1632-.3561,.3634v.7049c-.3518,.0938-.688,.2353-.9956,.4142l-.5015-.5015c-.1415-.1415-.3623-.1464-.5015-.0073l-.9811,.9811c-.1391,.1391-.1343,.3599 .0073,.5015l.5014,.5015c-.1789,.3076-.3205,.6438-.4142,.9956h-.7049c-.2001,0-.3634,.1593-.3634,.3561v1.3808c0,.1968 .1632,.3561 .3634,.3561h.7049c.0938,.3518 .2353,.688 .4142,.9956l-.5015,.5015c-.1415,.1415-.1464,.3623-.0073,.5015l.9811,.9811c.1391,.1391 .3599,.1343 .5015-.0073l.5015-.5015c.3076,.1789 .6438,.3205 .9956,.4142v.7049c0,.2001 .1593,.3634 .3561,.3634h1.3808c.1968,0 .3561-.1632 .3561-.3634v-.7049c.3518-.0937 .688-.2353 .9956-.4142l.5015,.5015c.1415,.1415 .3623,.1464 .5015,.0073l.9811-.9811c.1391-.1391 .1343-.3599-.0073-.5015l-.5015-.5015c.1789-.3076 .3205-.6438 .4142-.9956h.7049c.2001,0 .3634-.1593 .3634-.3561v-1.3808zm-3.4884,.6904c0,.8344-.6772,1.5116-1.5116,1.5116-.8344,0-1.5116-.6772-1.5116-1.5116 0-.8344 .6772-1.5116 1.5116-1.5116 .8344,0 1.5116,.6772 1.5116,1.5116z"/>
<path opacity=".5" d="m16.3125,78c-.1968,0-.3438,.1749-.3438,.375v.6875c-.3518,.0938-.6924,.2274-1,.4062l-.5-.5c-.1415-.1415-.3609-.1391-.5,0l-1,1c-.1391,.1391-.1416,.3585 0,.5l.25,.25 .75-.75c.1391-.1391 .3585-.1415 .5,0l.5,.5c.3076-.1789 .6482-.3125 1-.4062v-.6875c0-.2001 .147-.375 .3438-.375h1.375c.1968,0 .3437,.1749 .3438,.375v.6875c.3518,.0938 .6924,.2274 1,.4062l.5-.5c.1415-.1416 .3609-.1391 .5,0l.75,.75 .25-.25c.0708-.0708 .093-.1584 .0938-.25 .0008-.0916-.0242-.1804-.0938-.25l-1-1c-.1391-.1391-.3585-.1416-.5,0l-.5,.5c-.3076-.1789-.6482-.3125-1-.4062v-.6875c-0-.2001-.147-.375-.3438-.375h-1.375zm-3.1562,3.6562c-.0349,.0988-.0666,.2107-.0938,.3125h-.6875c-.2001,0-.375,.147-.375,.3438v1c0-.1968 .1749-.3438 .375-.3438h.6875c.0938-.3518 .2274-.6924 .4062-1l-.3125-.3125zm7.6875,0-.3125,.3125c.1789,.3076 .3125,.6482 .4062,1h.6875c.2001,0 .375,.147 .375,.3438v-1c0-.1968-.1749-.3438-.375-.3438h-.6875c-.0271-.1018-.0589-.2137-.0938-.3125zm-5.2812,1.8438c-.0536,.1549-.0625,.327-.0625,.5 0,.8344 .6656,1.5 1.5,1.5 .8344,0 1.5-.6656 1.5-1.5 0-.173-.0089-.3451-.0625-.5-.2049,.592-.7761,1-1.4375,1-.6614,0-1.2326-.408-1.4375-1zm-2.4062,1.8438-.1875,.1875c-.1415,.1415-.1391,.3609 0,.5l.25,.25 .25-.25c-.1272-.2186-.2268-.4446-.3125-.6875zm7.6875,0c-.0857,.2429-.1853,.4689-.3125,.6875l.25,.25 .25-.25c.1391-.1391 .1416-.3585 0-.5l-.1875-.1875z"/>
<path fill="#fff" d="m13.2188,80.7188-.25,.25c-.1391,.1391-.1416,.3585 0,.5l.1875,.1875c.0857-.2429 .1853-.4689 .3125-.6875l-.25-.25zm7.5625,0-.25,.25c.1272,.2186 .2268,.4446 .3125,.6875l.1875-.1875c.0708-.0708 .093-.1584 .0938-.25 .0008-.0916-.0242-.1804-.0938-.25l-.25-.25zm-3.7812,.7812c-.8344,0-1.5,.6656-1.5,1.5 0,.173 .0089,.3451 .0625,.5 .2049-.592 .7761-1 1.4375-1 .6614,0 1.2326,.408 1.4375,1 .0536-.1549 .0625-.327 .0625-.5 0-.8344-.6656-1.5-1.5-1.5zm-5,2.1875 0,1c0,.1968 .1749,.3438 .375,.3438h.6875c.0271,.1018 .0589,.2137 .0938,.3125l.3125-.3125c-.1789-.3076-.3125-.6482-.4062-1h-.6875c-.2001,0-.375-.147-.375-.3438zm10,0c0,.1968-.1749,.3438-.375,.3438h-.6875c-.0937,.3518-.2274,.6924-.4062,1l.3125,.3125c.0349-.0988 .0666-.2107 .0938-.3125h.6875c.2001,0 .375-.147 .375-.3438v-1zm-8.7812,2.5938-.25,.25c-.1415,.1415-.1391,.3609 0,.5l1,1c.1391,.1391 .3585,.1416 .5,0l.5-.5c.3076,.1789 .6482,.3125 1,.4062v.6875c0,.2001 .147,.375 .3438,.375h1.375c.1968,0 .3438-.1749 .3438-.375v-.6875c.3518-.0937 .6924-.2274 1-.4062l.5,.5c.1415,.1415 .3609,.1391 .5,0l1-1c.1391-.1391 .1416-.3585 0-.5l-.25-.25-.75,.75c-.1391,.1391-.3585,.1415-.5,0l-.5-.5c-.3076,.1789-.6482,.3125-1,.4062v.6875c0,.2001-.147,.375-.3438,.375h-1.375c-.1968,0-.3438-.1749-.3438-.375v-.6875c-.3518-.0938-.6924-.2274-1-.4062l-.5,.5c-.1415,.1416-.3609,.1391-.5,0l-.75-.75z"/>
</g>
<g transform="translate(0 -56)">
<path fill="url(#linearGradient5044)" d="m21.9999,82.3096c0-.1968-.1632-.3561-.3634-.3561h-.7049c-.0937-.3518-.2353-.688-.4142-.9956l.5015-.5015c.0708-.0708 .1082-.1555 .109-.2471 .0008-.0916-.0322-.1848-.1017-.2544l-.9811-.9811c-.1391-.1391-.3599-.1343-.5015,.0073l-.5015,.5015c-.3076-.1789-.6438-.3205-.9956-.4142v-.7049c-0-.2001-.1593-.3634-.3561-.3634h-1.3808c-.1968,0-.3561,.1632-.3561,.3634v.7049c-.3518,.0938-.688,.2353-.9956,.4142l-.5015-.5015c-.1415-.1415-.3623-.1464-.5015-.0073l-.9811,.9811c-.1391,.1391-.1343,.3599 .0073,.5015l.5014,.5015c-.1789,.3076-.3205,.6438-.4142,.9956h-.7049c-.2001,0-.3634,.1593-.3634,.3561v1.3808c0,.1968 .1632,.3561 .3634,.3561h.7049c.0938,.3518 .2353,.688 .4142,.9956l-.5015,.5015c-.1415,.1415-.1464,.3623-.0073,.5015l.9811,.9811c.1391,.1391 .3599,.1343 .5015-.0073l.5015-.5015c.3076,.1789 .6438,.3205 .9956,.4142v.7049c0,.2001 .1593,.3634 .3561,.3634h1.3808c.1968,0 .3561-.1632 .3561-.3634v-.7049c.3518-.0937 .688-.2353 .9956-.4142l.5015,.5015c.1415,.1415 .3623,.1464 .5015,.0073l.9811-.9811c.1391-.1391 .1343-.3599-.0073-.5015l-.5015-.5015c.1789-.3076 .3205-.6438 .4142-.9956h.7049c.2001,0 .3634-.1593 .3634-.3561v-1.3808zm-3.4884,.6904c0,.8344-.6772,1.5116-1.5116,1.5116-.8344,0-1.5116-.6772-1.5116-1.5116 0-.8344 .6772-1.5116 1.5116-1.5116 .8344,0 1.5116,.6772 1.5116,1.5116z"/>
<path opacity=".5" d="m16.3125,78c-.1968,0-.3438,.1749-.3438,.375v.6875c-.3518,.0938-.6924,.2274-1,.4062l-.5-.5c-.1415-.1415-.3609-.1391-.5,0l-1,1c-.1391,.1391-.1416,.3585 0,.5l.25,.25 .75-.75c.1391-.1391 .3585-.1415 .5,0l.5,.5c.3076-.1789 .6482-.3125 1-.4062v-.6875c0-.2001 .147-.375 .3438-.375h1.375c.1968,0 .3437,.1749 .3438,.375v.6875c.3518,.0938 .6924,.2274 1,.4062l.5-.5c.1415-.1416 .3609-.1391 .5,0l.75,.75 .25-.25c.0708-.0708 .093-.1584 .0938-.25 .0008-.0916-.0242-.1804-.0938-.25l-1-1c-.1391-.1391-.3585-.1416-.5,0l-.5,.5c-.3076-.1789-.6482-.3125-1-.4062v-.6875c-0-.2001-.147-.375-.3438-.375h-1.375zm-3.1562,3.6562c-.0349,.0988-.0666,.2107-.0938,.3125h-.6875c-.2001,0-.375,.147-.375,.3438v1c0-.1968 .1749-.3438 .375-.3438h.6875c.0938-.3518 .2274-.6924 .4062-1l-.3125-.3125zm7.6875,0-.3125,.3125c.1789,.3076 .3125,.6482 .4062,1h.6875c.2001,0 .375,.147 .375,.3438v-1c0-.1968-.1749-.3438-.375-.3438h-.6875c-.0271-.1018-.0589-.2137-.0938-.3125zm-5.2812,1.8438c-.0536,.1549-.0625,.327-.0625,.5 0,.8344 .6656,1.5 1.5,1.5 .8344,0 1.5-.6656 1.5-1.5 0-.173-.0089-.3451-.0625-.5-.2049,.592-.7761,1-1.4375,1-.6614,0-1.2326-.408-1.4375-1zm-2.4062,1.8438-.1875,.1875c-.1415,.1415-.1391,.3609 0,.5l.25,.25 .25-.25c-.1272-.2186-.2268-.4446-.3125-.6875zm7.6875,0c-.0857,.2429-.1853,.4689-.3125,.6875l.25,.25 .25-.25c.1391-.1391 .1416-.3585 0-.5l-.1875-.1875z"/>
<path fill="#fff" d="m13.2188,80.7188-.25,.25c-.1391,.1391-.1416,.3585 0,.5l.1875,.1875c.0857-.2429 .1853-.4689 .3125-.6875l-.25-.25zm7.5625,0-.25,.25c.1272,.2186 .2268,.4446 .3125,.6875l.1875-.1875c.0708-.0708 .093-.1584 .0938-.25 .0008-.0916-.0242-.1804-.0938-.25l-.25-.25zm-3.7812,.7812c-.8344,0-1.5,.6656-1.5,1.5 0,.173 .0089,.3451 .0625,.5 .2049-.592 .7761-1 1.4375-1 .6614,0 1.2326,.408 1.4375,1 .0536-.1549 .0625-.327 .0625-.5 0-.8344-.6656-1.5-1.5-1.5zm-5,2.1875 0,1c0,.1968 .1749,.3438 .375,.3438h.6875c.0271,.1018 .0589,.2137 .0938,.3125l.3125-.3125c-.1789-.3076-.3125-.6482-.4062-1h-.6875c-.2001,0-.375-.147-.375-.3438zm10,0c0,.1968-.1749,.3438-.375,.3438h-.6875c-.0937,.3518-.2274,.6924-.4062,1l.3125,.3125c.0349-.0988 .0666-.2107 .0938-.3125h.6875c.2001,0 .375-.147 .375-.3438v-1zm-8.7812,2.5938-.25,.25c-.1415,.1415-.1391,.3609 0,.5l1,1c.1391,.1391 .3585,.1416 .5,0l.5-.5c.3076,.1789 .6482,.3125 1,.4062v.6875c0,.2001 .147,.375 .3438,.375h1.375c.1968,0 .3438-.1749 .3438-.375v-.6875c.3518-.0937 .6924-.2274 1-.4062l.5,.5c.1415,.1415 .3609,.1391 .5,0l1-1c.1391-.1391 .1416-.3585 0-.5l-.25-.25-.75,.75c-.1391,.1391-.3585,.1415-.5,0l-.5-.5c-.3076,.1789-.6482,.3125-1,.4062v.6875c0,.2001-.147,.375-.3438,.375h-1.375c-.1968,0-.3438-.1749-.3438-.375v-.6875c-.3518-.0938-.6924-.2274-1-.4062l-.5,.5c-.1415,.1416-.3609,.1391-.5,0l-.75-.75z"/>
</g>
<g transform="translate(0 -42)">
<path fill="url(#linearGradient5044)" d="m21.9999,82.3096c0-.1968-.1632-.3561-.3634-.3561h-.7049c-.0937-.3518-.2353-.688-.4142-.9956l.5015-.5015c.0708-.0708 .1082-.1555 .109-.2471 .0008-.0916-.0322-.1848-.1017-.2544l-.9811-.9811c-.1391-.1391-.3599-.1343-.5015,.0073l-.5015,.5015c-.3076-.1789-.6438-.3205-.9956-.4142v-.7049c-0-.2001-.1593-.3634-.3561-.3634h-1.3808c-.1968,0-.3561,.1632-.3561,.3634v.7049c-.3518,.0938-.688,.2353-.9956,.4142l-.5015-.5015c-.1415-.1415-.3623-.1464-.5015-.0073l-.9811,.9811c-.1391,.1391-.1343,.3599 .0073,.5015l.5014,.5015c-.1789,.3076-.3205,.6438-.4142,.9956h-.7049c-.2001,0-.3634,.1593-.3634,.3561v1.3808c0,.1968 .1632,.3561 .3634,.3561h.7049c.0938,.3518 .2353,.688 .4142,.9956l-.5015,.5015c-.1415,.1415-.1464,.3623-.0073,.5015l.9811,.9811c.1391,.1391 .3599,.1343 .5015-.0073l.5015-.5015c.3076,.1789 .6438,.3205 .9956,.4142v.7049c0,.2001 .1593,.3634 .3561,.3634h1.3808c.1968,0 .3561-.1632 .3561-.3634v-.7049c.3518-.0937 .688-.2353 .9956-.4142l.5015,.5015c.1415,.1415 .3623,.1464 .5015,.0073l.9811-.9811c.1391-.1391 .1343-.3599-.0073-.5015l-.5015-.5015c.1789-.3076 .3205-.6438 .4142-.9956h.7049c.2001,0 .3634-.1593 .3634-.3561v-1.3808zm-3.4884,.6904c0,.8344-.6772,1.5116-1.5116,1.5116-.8344,0-1.5116-.6772-1.5116-1.5116 0-.8344 .6772-1.5116 1.5116-1.5116 .8344,0 1.5116,.6772 1.5116,1.5116z"/>
<path opacity=".5" d="m16.3125,78c-.1968,0-.3438,.1749-.3438,.375v.6875c-.3518,.0938-.6924,.2274-1,.4062l-.5-.5c-.1415-.1415-.3609-.1391-.5,0l-1,1c-.1391,.1391-.1416,.3585 0,.5l.25,.25 .75-.75c.1391-.1391 .3585-.1415 .5,0l.5,.5c.3076-.1789 .6482-.3125 1-.4062v-.6875c0-.2001 .147-.375 .3438-.375h1.375c.1968,0 .3437,.1749 .3438,.375v.6875c.3518,.0938 .6924,.2274 1,.4062l.5-.5c.1415-.1416 .3609-.1391 .5,0l.75,.75 .25-.25c.0708-.0708 .093-.1584 .0938-.25 .0008-.0916-.0242-.1804-.0938-.25l-1-1c-.1391-.1391-.3585-.1416-.5,0l-.5,.5c-.3076-.1789-.6482-.3125-1-.4062v-.6875c-0-.2001-.147-.375-.3438-.375h-1.375zm-3.1562,3.6562c-.0349,.0988-.0666,.2107-.0938,.3125h-.6875c-.2001,0-.375,.147-.375,.3438v1c0-.1968 .1749-.3438 .375-.3438h.6875c.0938-.3518 .2274-.6924 .4062-1l-.3125-.3125zm7.6875,0-.3125,.3125c.1789,.3076 .3125,.6482 .4062,1h.6875c.2001,0 .375,.147 .375,.3438v-1c0-.1968-.1749-.3438-.375-.3438h-.6875c-.0271-.1018-.0589-.2137-.0938-.3125zm-5.2812,1.8438c-.0536,.1549-.0625,.327-.0625,.5 0,.8344 .6656,1.5 1.5,1.5 .8344,0 1.5-.6656 1.5-1.5 0-.173-.0089-.3451-.0625-.5-.2049,.592-.7761,1-1.4375,1-.6614,0-1.2326-.408-1.4375-1zm-2.4062,1.8438-.1875,.1875c-.1415,.1415-.1391,.3609 0,.5l.25,.25 .25-.25c-.1272-.2186-.2268-.4446-.3125-.6875zm7.6875,0c-.0857,.2429-.1853,.4689-.3125,.6875l.25,.25 .25-.25c.1391-.1391 .1416-.3585 0-.5l-.1875-.1875z"/>
<path fill="#fff" d="m13.2188,80.7188-.25,.25c-.1391,.1391-.1416,.3585 0,.5l.1875,.1875c.0857-.2429 .1853-.4689 .3125-.6875l-.25-.25zm7.5625,0-.25,.25c.1272,.2186 .2268,.4446 .3125,.6875l.1875-.1875c.0708-.0708 .093-.1584 .0938-.25 .0008-.0916-.0242-.1804-.0938-.25l-.25-.25zm-3.7812,.7812c-.8344,0-1.5,.6656-1.5,1.5 0,.173 .0089,.3451 .0625,.5 .2049-.592 .7761-1 1.4375-1 .6614,0 1.2326,.408 1.4375,1 .0536-.1549 .0625-.327 .0625-.5 0-.8344-.6656-1.5-1.5-1.5zm-5,2.1875 0,1c0,.1968 .1749,.3438 .375,.3438h.6875c.0271,.1018 .0589,.2137 .0938,.3125l.3125-.3125c-.1789-.3076-.3125-.6482-.4062-1h-.6875c-.2001,0-.375-.147-.375-.3438zm10,0c0,.1968-.1749,.3438-.375,.3438h-.6875c-.0937,.3518-.2274,.6924-.4062,1l.3125,.3125c.0349-.0988 .0666-.2107 .0938-.3125h.6875c.2001,0 .375-.147 .375-.3438v-1zm-8.7812,2.5938-.25,.25c-.1415,.1415-.1391,.3609 0,.5l1,1c.1391,.1391 .3585,.1416 .5,0l.5-.5c.3076,.1789 .6482,.3125 1,.4062v.6875c0,.2001 .147,.375 .3438,.375h1.375c.1968,0 .3438-.1749 .3438-.375v-.6875c.3518-.0937 .6924-.2274 1-.4062l.5,.5c.1415,.1415 .3609,.1391 .5,0l1-1c.1391-.1391 .1416-.3585 0-.5l-.25-.25-.75,.75c-.1391,.1391-.3585,.1415-.5,0l-.5-.5c-.3076,.1789-.6482,.3125-1,.4062v.6875c0,.2001-.147,.375-.3438,.375h-1.375c-.1968,0-.3438-.1749-.3438-.375v-.6875c-.3518-.0938-.6924-.2274-1-.4062l-.5,.5c-.1415,.1416-.3609,.1391-.5,0l-.75-.75z"/>
</g>
<g transform="translate(0 -70)">
<path fill="url(#linearGradient5044)" d="m21.9999,82.3096c0-.1968-.1632-.3561-.3634-.3561h-.7049c-.0937-.3518-.2353-.688-.4142-.9956l.5015-.5015c.0708-.0708 .1082-.1555 .109-.2471 .0008-.0916-.0322-.1848-.1017-.2544l-.9811-.9811c-.1391-.1391-.3599-.1343-.5015,.0073l-.5015,.5015c-.3076-.1789-.6438-.3205-.9956-.4142v-.7049c-0-.2001-.1593-.3634-.3561-.3634h-1.3808c-.1968,0-.3561,.1632-.3561,.3634v.7049c-.3518,.0938-.688,.2353-.9956,.4142l-.5015-.5015c-.1415-.1415-.3623-.1464-.5015-.0073l-.9811,.9811c-.1391,.1391-.1343,.3599 .0073,.5015l.5014,.5015c-.1789,.3076-.3205,.6438-.4142,.9956h-.7049c-.2001,0-.3634,.1593-.3634,.3561v1.3808c0,.1968 .1632,.3561 .3634,.3561h.7049c.0938,.3518 .2353,.688 .4142,.9956l-.5015,.5015c-.1415,.1415-.1464,.3623-.0073,.5015l.9811,.9811c.1391,.1391 .3599,.1343 .5015-.0073l.5015-.5015c.3076,.1789 .6438,.3205 .9956,.4142v.7049c0,.2001 .1593,.3634 .3561,.3634h1.3808c.1968,0 .3561-.1632 .3561-.3634v-.7049c.3518-.0937 .688-.2353 .9956-.4142l.5015,.5015c.1415,.1415 .3623,.1464 .5015,.0073l.9811-.9811c.1391-.1391 .1343-.3599-.0073-.5015l-.5015-.5015c.1789-.3076 .3205-.6438 .4142-.9956h.7049c.2001,0 .3634-.1593 .3634-.3561v-1.3808zm-3.4884,.6904c0,.8344-.6772,1.5116-1.5116,1.5116-.8344,0-1.5116-.6772-1.5116-1.5116 0-.8344 .6772-1.5116 1.5116-1.5116 .8344,0 1.5116,.6772 1.5116,1.5116z"/>
<path opacity=".5" d="m16.3125,78c-.1968,0-.3438,.1749-.3438,.375v.6875c-.3518,.0938-.6924,.2274-1,.4062l-.5-.5c-.1415-.1415-.3609-.1391-.5,0l-1,1c-.1391,.1391-.1416,.3585 0,.5l.25,.25 .75-.75c.1391-.1391 .3585-.1415 .5,0l.5,.5c.3076-.1789 .6482-.3125 1-.4062v-.6875c0-.2001 .147-.375 .3438-.375h1.375c.1968,0 .3437,.1749 .3438,.375v.6875c.3518,.0938 .6924,.2274 1,.4062l.5-.5c.1415-.1416 .3609-.1391 .5,0l.75,.75 .25-.25c.0708-.0708 .093-.1584 .0938-.25 .0008-.0916-.0242-.1804-.0938-.25l-1-1c-.1391-.1391-.3585-.1416-.5,0l-.5,.5c-.3076-.1789-.6482-.3125-1-.4062v-.6875c-0-.2001-.147-.375-.3438-.375h-1.375zm-3.1562,3.6562c-.0349,.0988-.0666,.2107-.0938,.3125h-.6875c-.2001,0-.375,.147-.375,.3438v1c0-.1968 .1749-.3438 .375-.3438h.6875c.0938-.3518 .2274-.6924 .4062-1l-.3125-.3125zm7.6875,0-.3125,.3125c.1789,.3076 .3125,.6482 .4062,1h.6875c.2001,0 .375,.147 .375,.3438v-1c0-.1968-.1749-.3438-.375-.3438h-.6875c-.0271-.1018-.0589-.2137-.0938-.3125zm-5.2812,1.8438c-.0536,.1549-.0625,.327-.0625,.5 0,.8344 .6656,1.5 1.5,1.5 .8344,0 1.5-.6656 1.5-1.5 0-.173-.0089-.3451-.0625-.5-.2049,.592-.7761,1-1.4375,1-.6614,0-1.2326-.408-1.4375-1zm-2.4062,1.8438-.1875,.1875c-.1415,.1415-.1391,.3609 0,.5l.25,.25 .25-.25c-.1272-.2186-.2268-.4446-.3125-.6875zm7.6875,0c-.0857,.2429-.1853,.4689-.3125,.6875l.25,.25 .25-.25c.1391-.1391 .1416-.3585 0-.5l-.1875-.1875z"/>
<path fill="#fff" d="m13.2188,80.7188-.25,.25c-.1391,.1391-.1416,.3585 0,.5l.1875,.1875c.0857-.2429 .1853-.4689 .3125-.6875l-.25-.25zm7.5625,0-.25,.25c.1272,.2186 .2268,.4446 .3125,.6875l.1875-.1875c.0708-.0708 .093-.1584 .0938-.25 .0008-.0916-.0242-.1804-.0938-.25l-.25-.25zm-3.7812,.7812c-.8344,0-1.5,.6656-1.5,1.5 0,.173 .0089,.3451 .0625,.5 .2049-.592 .7761-1 1.4375-1 .6614,0 1.2326,.408 1.4375,1 .0536-.1549 .0625-.327 .0625-.5 0-.8344-.6656-1.5-1.5-1.5zm-5,2.1875 0,1c0,.1968 .1749,.3438 .375,.3438h.6875c.0271,.1018 .0589,.2137 .0938,.3125l.3125-.3125c-.1789-.3076-.3125-.6482-.4062-1h-.6875c-.2001,0-.375-.147-.375-.3438zm10,0c0,.1968-.1749,.3438-.375,.3438h-.6875c-.0937,.3518-.2274,.6924-.4062,1l.3125,.3125c.0349-.0988 .0666-.2107 .0938-.3125h.6875c.2001,0 .375-.147 .375-.3438v-1zm-8.7812,2.5938-.25,.25c-.1415,.1415-.1391,.3609 0,.5l1,1c.1391,.1391 .3585,.1416 .5,0l.5-.5c.3076,.1789 .6482,.3125 1,.4062v.6875c0,.2001 .147,.375 .3438,.375h1.375c.1968,0 .3438-.1749 .3438-.375v-.6875c.3518-.0937 .6924-.2274 1-.4062l.5,.5c.1415,.1415 .3609,.1391 .5,0l1-1c.1391-.1391 .1416-.3585 0-.5l-.25-.25-.75,.75c-.1391,.1391-.3585,.1415-.5,0l-.5-.5c-.3076,.1789-.6482,.3125-1,.4062v.6875c0,.2001-.147,.375-.3438,.375h-1.375c-.1968,0-.3438-.1749-.3438-.375v-.6875c-.3518-.0938-.6924-.2274-1-.4062l-.5,.5c-.1415,.1416-.3609,.1391-.5,0l-.75-.75z"/>
</g>
<path fill="url(#linearGradient5091)" d="m21.9999,68.3096c0-.1968-.1632-.3561-.3634-.3561h-.7049c-.0937-.3518-.2353-.688-.4142-.9956l.5015-.5015c.0708-.0708 .1082-.1555 .109-.2471 .0008-.0916-.0322-.1848-.1017-.2544l-.9811-.9811c-.1391-.1391-.3599-.1343-.5015,.0073l-.5015,.5015c-.3076-.1789-.6438-.3205-.9956-.4142v-.7049c-0-.2001-.1593-.3634-.3561-.3634h-1.3808c-.1968,0-.3561,.1632-.3561,.3634v.7049c-.3518,.0938-.688,.2353-.9956,.4142l-.5015-.5015c-.1415-.1415-.3623-.1464-.5015-.0073l-.9811,.9811c-.1391,.1391-.1343,.3599 .0073,.5015l.5014,.5015c-.1789,.3076-.3205,.6438-.4142,.9956h-.7049c-.2001,0-.3634,.1593-.3634,.3561v1.3808c0,.1968 .1632,.3561 .3634,.3561h.7049c.0938,.3518 .2353,.688 .4142,.9956l-.5015,.5015c-.1415,.1415-.1464,.3623-.0073,.5015l.9811,.9811c.1391,.1391 .3599,.1343 .5015-.0073l.5015-.5015c.3076,.1789 .6438,.3205 .9956,.4142v.7049c0,.2001 .1593,.3634 .3561,.3634h1.3808c.1968,0 .3561-.1632 .3561-.3634v-.7049c.3518-.0937 .688-.2353 .9956-.4142l.5015,.5015c.1415,.1415 .3623,.1464 .5015,.0073l.9811-.9811c.1391-.1391 .1343-.3599-.0073-.5015l-.5015-.5015c.1789-.3076 .3205-.6438 .4142-.9956h.7049c.2001,0 .3634-.1593 .3634-.3561v-1.3808zm-3.4884,.6904c0,.8344-.6772,1.5116-1.5116,1.5116-.8344,0-1.5116-.6772-1.5116-1.5116 0-.8344 .6772-1.5116 1.5116-1.5116 .8344,0 1.5116,.6772 1.5116,1.5116z"/>
<path opacity=".5" d="m16.3125,64c-.1968,0-.3438,.1749-.3438,.375v.6875c-.3518,.0938-.6924,.2274-1,.4062l-.5-.5c-.1415-.1415-.3609-.1391-.5,0l-1,1c-.1391,.1391-.1416,.3585 0,.5l.25,.25 .75-.75c.1391-.1391 .3585-.1415 .5,0l.5,.5c.3076-.1789 .6482-.3125 1-.4062v-.6875c0-.2001 .147-.375 .3438-.375h1.375c.1968,0 .3437,.1749 .3438,.375v.6875c.3518,.0938 .6924,.2274 1,.4062l.5-.5c.1415-.1416 .3609-.1391 .5,0l.75,.75 .25-.25c.0708-.0708 .093-.1584 .0938-.25 .0008-.0916-.0242-.1804-.0938-.25l-1-1c-.1391-.1391-.3585-.1416-.5,0l-.5,.5c-.3076-.1789-.6482-.3125-1-.4062v-.6875c-0-.2001-.147-.375-.3438-.375h-1.375zm-3.1562,3.6562c-.0349,.0988-.0666,.2107-.0938,.3125h-.6875c-.2001,0-.375,.147-.375,.3438v1c0-.1968 .1749-.3438 .375-.3438h.6875c.0938-.3518 .2274-.6924 .4062-1l-.3125-.3125zm7.6875,0-.3125,.3125c.1789,.3076 .3125,.6482 .4062,1h.6875c.2001,0 .375,.147 .375,.3438v-1c0-.1968-.1749-.3438-.375-.3438h-.6875c-.0271-.1018-.0589-.2137-.0938-.3125zm-5.2812,1.8438c-.0536,.1549-.0625,.327-.0625,.5 0,.8344 .6656,1.5 1.5,1.5 .8344,0 1.5-.6656 1.5-1.5 0-.173-.0089-.3451-.0625-.5-.2049,.592-.7761,1-1.4375,1-.6614,0-1.2326-.408-1.4375-1zm-2.4062,1.8438-.1875,.1875c-.1415,.1415-.1391,.3609 0,.5l.25,.25 .25-.25c-.1272-.2186-.2268-.4446-.3125-.6875zm7.6875,0c-.0857,.2429-.1853,.4689-.3125,.6875l.25,.25 .25-.25c.1391-.1391 .1416-.3585 0-.5l-.1875-.1875z"/>
<path opacity=".3" fill="#fff" d="m13.2188,66.7188-.25,.25c-.1391,.1391-.1416,.3585 0,.5l.1875,.1875c.0857-.2429 .1853-.4689 .3125-.6875l-.25-.25zm7.5625,0-.25,.25c.1272,.2186 .2268,.4446 .3125,.6875l.1875-.1875c.0708-.0708 .093-.1584 .0938-.25 .0008-.0916-.0242-.1804-.0938-.25l-.25-.25zm-3.7812,.7812c-.8344,0-1.5,.6656-1.5,1.5 0,.173 .0089,.3451 .0625,.5 .2049-.592 .7761-1 1.4375-1 .6614,0 1.2326,.408 1.4375,1 .0536-.1549 .0625-.327 .0625-.5 0-.8344-.6656-1.5-1.5-1.5zm-5,2.1875 0,1c0,.1968 .1749,.3438 .375,.3438h.6875c.0271,.1018 .0589,.2137 .0938,.3125l.3125-.3125c-.1789-.3076-.3125-.6482-.4062-1h-.6875c-.2001,0-.375-.147-.375-.3438zm10,0c0,.1968-.1749,.3438-.375,.3438h-.6875c-.0937,.3518-.2274,.6924-.4062,1l.3125,.3125c.0349-.0988 .0666-.2107 .0938-.3125h.6875c.2001,0 .375-.147 .375-.3438v-1zm-8.7812,2.5938-.25,.25c-.1415,.1415-.1391,.3609 0,.5l1,1c.1391,.1391 .3585,.1416 .5,0l.5-.5c.3076,.1789 .6482,.3125 1,.4062v.6875c0,.2001 .147,.375 .3438,.375h1.375c.1968,0 .3438-.1749 .3438-.375v-.6875c.3518-.0937 .6924-.2274 1-.4062l.5,.5c.1415,.1415 .3609,.1391 .5,0l1-1c.1391-.1391 .1416-.3585 0-.5l-.25-.25-.75,.75c-.1391,.1391-.3585,.1415-.5,0l-.5-.5c-.3076,.1789-.6482,.3125-1,.4062v.6875c0,.2001-.147,.375-.3438,.375h-1.375c-.1968,0-.3438-.1749-.3438-.375v-.6875c-.3518-.0938-.6924-.2274-1-.4062l-.5,.5c-.1415,.1416-.3609,.1391-.5,0l-.75-.75z"/>
</g>
<path opacity=".25" fill="url(#linearGradient3230)" filter="url(#filter3963)" d="m118.375,11.0312c-.5234-.0689-1.0579-.0102-1.5625,.125-1.0064,.2697-1.8855,.919-2.4375,1.875l-2.0625,3.5625a1.0492,1.0492 0 0,0 -.8438,.5312l-9.5,16.4688-36,62.3438a1.0492,1.0492 0 0,0 -.0938,.25l-6.375,24.0312a1.0492,1.0492 0 0,0 1.75,1.0312l17.625-17.5312a1.0492,1.0492 0 0,0 .1562-.2188l36-62.3438 9.5-16.4688a1.0492,1.0492 0 0,0 .0625-.9062l2.0938-3.625c1.1113-1.9248 .4576-4.4191-1.4688-5.5312l-5.3125-3.0625c-.4793-.2767-1.0079-.4623-1.5312-.5312z" transform="matrix(.6661 .18615 -.18615 .6661 12.83364 -20.20028)"/>
<path opacity=".5" fill="url(#linearGradient3230)" filter="url(#filter3963)" d="m118.375,11.0312c-.5234-.0689-1.0579-.0102-1.5625,.125-1.0064,.2697-1.8855,.919-2.4375,1.875l-2.0625,3.5625a1.0492,1.0492 0 0,0 -.8438,.5312l-9.5,16.4688-36,62.3438a1.0492,1.0492 0 0,0 -.0938,.25l-6.375,24.0312a1.0492,1.0492 0 0,0 1.75,1.0312l17.625-17.5312a1.0492,1.0492 0 0,0 .1562-.2188l36-62.3438 9.5-16.4688a1.0492,1.0492 0 0,0 .0625-.9062l2.0938-3.625c1.1113-1.9248 .4576-4.4191-1.4688-5.5312l-5.3125-3.0625c-.4793-.2767-1.0079-.4623-1.5312-.5312z" transform="matrix(.56927 .39278 -.39278 .56927 43.95396 -20.80591)"/>
<g transform="matrix(-.56817 -.39437 .39437 -.56817 111.73664 128.87847)">
<path fill="url(#linearGradient3522)" stroke="#df453f" stroke-linejoin="round" stroke-width="1.446" d="m139.914,107.494h6.116a3,3 0 0,1 3,3v10a3,3 0 0,1 -3,3h-6.116a3,3 0 0,1 -3-3v-10a3,3 0 0,1 3-3"/>
<path opacity=".3" fill="#701300" filter="url(#filter3495)" d="m141.2446,118.1889a1.5468,3.9775 0 1,1 -3.0936,0 1.5468,3.9775 0 1,1 3.0936,0z" transform="matrix(1.88571 0 0 1 -123.51329 -1.94454)"/>
<path opacity=".8" fill="#fff" filter="url(#filter3509)" fill-rule="evenodd" d="m146.3125,113.125c-.8519,9.5067-3.9375,8.3125-6.5,8.9375 4.0763,.0625 8.625-.0625 8.625-.0625-2.4375-.5625-1.8125-2.375-2.125-8.875z"/>
<path opacity=".2" fill="url(#linearGradient3524)" d="m136.412,115.969h12.119v1h-12.119z"/>
</g>
<g transform="matrix(-.56817 -.39437 .39437 -.56817 98.25203 119.51872)">
<path fill="url(#linearGradient3526)" stroke="url(#linearGradient3528)" stroke-linejoin="round" stroke-width="1.446" d="m112.7666,24.5 6.5-24 6.5,24 0,72-13,0 0-72z"/>
<g fill-rule="evenodd">
<path fill="url(#linearGradient3530)" d="m117.6934,8.0717 3.1427,.0221-1.5824-5.7913"/>
<path fill="url(#linearGradient3532)" d="m117.7321,8.0902-3.7676,13.9098c0,0-.4678,1.6535-.698,2.6083-.1912,.6423 1.9589,1.6113 3.0182-1.6083 1.2153,4.5138 5.5759,3.438 5.9883,.0111 .3425,1.7015 1.754,2.95 2.9886,1.5219-.2348-.9087-.4364-1.5219-.4364-1.5219l-4.0217-14.9209h-3.0715z"/>
</g>
<g fill="none" stroke-width="1.446">
<path opacity=".3" stroke="url(#linearGradient3534)" d="m122.3725,96.3049 0-67.2173"/>
<path opacity=".4" stroke="url(#linearGradient3536)" d="m116.2475,96.3049 0-67.2173"/>
</g>
<path opacity=".4" fill="#ac4311" filter="url(#filter3382)" fill-rule="evenodd" d="m118.7044,5.9799-4.773,17.8986 1.9887-.8397 2.7842-17.059z"/>
<path opacity=".15" fill="none" stroke="#4d2600" stroke-width="1.446" d="m113.0791,24.625c0,0 1.4867,1.7649 3.25-1.5312 2,5.25 5.1686,2.0871 5.9375-.0312 1.375,3.4375 3.125,1.4375 3.125,1.4375"/>
<path opacity=".8" fill="#fff" filter="url(#filter3390)" fill-rule="evenodd" d="m144.0625,8.9375-.375,12.5 3.0625-.3125-2.6875-12.1875z" transform="matrix(1.12245 0 0 1.345 -41.70282 -4.77094)"/>
</g>
<g transform="matrix(-.56817 -.39437 .39437 -.56817 111.73664 128.87847)">
<path fill="url(#linearGradient3538)" stroke="url(#linearGradient3540)" stroke-linejoin="round" stroke-width="1.446" d="m136.5,96.5h13v19h-13z"/>
<path opacity=".4" fill="url(#linearGradient3542)" d="m137,100h12v1h-12z"/>
<path opacity=".6" fill="url(#linearGradient3544)" d="m137,101h12v1h-12z"/>
<path opacity=".4" fill="url(#linearGradient3546)" d="m137,102h12v1h-12z"/>
<path opacity=".6" fill="url(#linearGradient3548)" d="m137,103h12v1h-12z"/>
<path opacity=".4" fill="url(#linearGradient3550)" d="m137,108h12v1h-12z"/>
<path opacity=".6" fill="url(#linearGradient3552)" d="m137,109h12v1h-12z"/>
<path opacity=".4" fill="url(#linearGradient3554)" d="m137,110h12v1h-12z"/>
<path opacity=".6" fill="url(#linearGradient3556)" d="m137,111h12v1h-12z"/>
<path opacity=".3" fill="url(#linearGradient3558)" d="m137,104h12v4h-12z"/>
<path opacity=".6" filter="url(#filter3451)" d="m140,106.0797a1.1013,8.3969 0 1,1 -2.2026,0 1.1013,8.3969 0 1,1 2.2026,0z" transform="matrix(1.25538 0 0 1 -35.75387 0)"/>
<path opacity=".8" fill="#fff" filter="url(#filter3457)" d="m147.3434,106.0355a1.1932,8.0875 0 1,1 -2.3865,0 1.1932,8.0875 0 1,1 2.3865,0z"/>
</g>
</svg>
