<svg xmlns="http://www.w3.org/2000/svg" viewBox="0 0 96 96" xmlns:xlink="http://www.w3.org/1999/xlink">
<defs>
<clipPath>
<path fill="#fff" d="m12,6h72a6,6 0 0,1 6,6v72a6,6 0 0,1 -6,6h-72a6,6 0 0,1 -6-6v-72a6,6 0 0,1 6-6"/>
</clipPath>
<clipPath id="clipPath5265">
<path fill="#f00" d="m138,78c-.6046,0-1.1929,.015-1.7812,.0312-.0141,.0001-.0484-.0002-.0625,0-8.3453,.0889-12.2162,.7785-16.875,2.0312-11.3017,2.5714-11.2812,7.5993-11.2812,23.9375 0,16.1596-.0295,20.4654 11.2812,23.9375 4.6588,1.2527 8.5297,1.9423 16.875,2.0312 .0141,.0001 .0484-.0001 .0625,0 .5884,.0163 1.1767,.0312 1.7812,.0312 .6046,0 1.1929-.015 1.7812-.0312 .0141-.0001 .0484,.0001 .0625,0 8.3453-.0889 12.2162-.7785 16.875-2.0312 11.3108-3.4721 11.2812-7.7779 11.2812-23.9375 0-16.3382 .0205-21.3661-11.2812-23.9375-4.6588-1.2527-8.5297-1.9423-16.875-2.0312-.0141-.0002-.0484,.0001-.0625,0-.5884-.0163-1.1767-.0312-1.7812-.0312z"/>
</clipPath>
<clipPath id="clipPath3837">
<path fill="url(#radialGradient3841)" d="m14,108.25c-3.2424,0-5.8438,2.7675-5.8438,6.1875v66.1562c0,3.42 2.6013,6.1875 5.8438,6.1875h66.1875c3.2424,0 5.875-2.7675 5.875-6.1875v-66.1562c0-3.42-2.6326-6.1875-5.875-6.1875h-66.1875zm34,9.75c.6046,0 1.1929,.015 1.7812,.0312 .0141,.0002 .0484-.0002 .0625,0 8.3453,.0889 12.2162,.7785 16.875,2.0312 11.3017,2.5714 11.2812,7.5994 11.2812,23.9376 0,16.1596 .0295,20.4654-11.2812,23.9375-4.6588,1.2527-8.5297,1.9424-16.875,2.0312-.0141,.0001-.0484-.0001-.0625,0-.5884,.0162-1.1767,.0312-1.7812,.0312-.6046,0-1.1929-.015-1.7812-.0312-.0141-.0001-.0484,.0001-.0625,0-8.3453-.089-12.2162-.7785-16.875-2.0312-11.3108-3.4721-11.2812-7.7779-11.2812-23.9375 0-16.3382-.0205-21.3661 11.2812-23.9375 4.6588-1.2527 8.5297-1.9424 16.875-2.0312 .0141-.0002 .0484,.0002 .0625,0 .5884-.0162 1.1767-.0312 1.7812-.0312z"/>
</clipPath>
<filter width="1.269" x="-.134" y="-.155" height="1.31" color-interpolation-filters="sRGB" id="filter3925">
<feGaussianBlur stdDeviation="3.36"/>
</filter>
<filter width="1.336" x="-.168" y="-.194" height="1.388" color-interpolation-filters="sRGB" id="filter3847">
<feGaussianBlur stdDeviation="4.2"/>
</filter>
<filter width="312.268" x="227.155" y="6.116" height="206.247" color-interpolation-filters="sRGB" filterUnits="userSpaceOnUse" id="Adobe_OpacityMaskFilter">
<feColorMatrix values="1 0 0 0 0  0 1 0 0 0  0 0 1 0 0  0 0 0 1 0" type="matrix"/>
</filter>
<linearGradient gradientTransform="translate(-1)" id="linearGradient4107" xlink:href="#linearGradient3948" y1="72.25" y2="79.84" x2="0" gradientUnits="userSpaceOnUse"/>
<linearGradient gradientTransform="translate(4)" id="linearGradient4113" xlink:href="#linearGradient3948" y1="72.25" y2="79.84" x2="0" gradientUnits="userSpaceOnUse"/>
<linearGradient id="linearGradient3785" xlink:href="#linearGradient3237" y1="103.134" y2="108.678" x2="0" gradientUnits="userSpaceOnUse"/>
<linearGradient gradientTransform="translate(-2)" id="linearGradient4111" xlink:href="#linearGradient3948" y1="72.25" y2="79.84" x2="0" gradientUnits="userSpaceOnUse"/>
<linearGradient id="linearGradient3237">
<stop offset="0" stop-color="#737373"/>
<stop offset="1" stop-color="#fff"/>
</linearGradient>
<linearGradient gradientTransform="translate(3)" id="linearGradient4109" xlink:href="#linearGradient3948" y1="72.25" y2="79.84" x2="0" gradientUnits="userSpaceOnUse"/>
<linearGradient id="linearGradient3789" xlink:href="#linearGradient3767" x1="21.026" x2="35.109" gradientUnits="userSpaceOnUse"/>
<linearGradient id="linearGradient3787" xlink:href="#linearGradient3237" y1="112.609" y2="99.666" x2="0" gradientUnits="userSpaceOnUse"/>
<linearGradient gradientTransform="matrix(1.00587 0 0 .99417 100 0)" id="ButtonShadow-0" y1="92.54" y2="7.017" x2="0" gradientUnits="userSpaceOnUse">
<stop offset="0"/>
<stop offset="1" stop-opacity=".588"/>
</linearGradient>
<linearGradient gradientTransform="translate(0 -97)" id="linearGradient3721" xlink:href="#ButtonShadow-0" y1="6.132" y2="90.239" x2="0" gradientUnits="userSpaceOnUse"/>
<linearGradient gradientTransform="matrix(1.02381 0 0 1.0119 -1.14286 -98.07143)" id="linearGradient3780" xlink:href="#ButtonShadow-0" y1="6.132" y2="90.239" x2="0" gradientUnits="userSpaceOnUse"/>
<linearGradient gradientTransform="matrix(.09532 0 0 .09532 22 32.78641)" id="linearGradient4220" xlink:href="#SVGID_1_" y1="0" y2="218.48" x2="0" gradientUnits="userSpaceOnUse"/>
<linearGradient gradientTransform="translate(2)" id="linearGradient4105" xlink:href="#linearGradient3948" y1="72.25" y2="79.84" x2="0" gradientUnits="userSpaceOnUse"/>
<linearGradient gradientTransform="matrix(.0877 0 0 .0906 23.54966 33.64498)" id="linearGradient4216" xlink:href="#linearGradient4192" y1="73.254" y2="180.675" x2="0" gradientUnits="userSpaceOnUse"/>
<linearGradient gradientTransform="translate(-80)" id="linearGradient3888" xlink:href="#linearGradient3777" y1="17.684" y2="69.871" x2="0" gradientUnits="userSpaceOnUse"/>
<linearGradient id="SVGID_1_" y1="0" y2="218.48" x2="0" gradientUnits="userSpaceOnUse">
<stop offset=".006" stop-color="#ed2828"/>
<stop offset=".5" stop-color="#ef3b39"/>
<stop offset=".994" stop-color="#c02126"/>
</linearGradient>
<linearGradient gradientTransform="matrix(.87559 0 0 .51055 5.97176 11.28569)" id="linearGradient3931" xlink:href="#linearGradient3737-7" y1="16.321" y2="77.29" x2="0" gradientUnits="userSpaceOnUse"/>
<linearGradient gradientTransform="translate(1)" id="linearGradient4103" xlink:href="#linearGradient3948" y1="72.25" y2="79.84" x2="0" gradientUnits="userSpaceOnUse"/>
<linearGradient id="linearGradient3737">
<stop offset="0" stop-color="#fff"/>
<stop offset="1" stop-color="#fff" stop-opacity="0"/>
</linearGradient>
<linearGradient id="linearGradient3187">
<stop offset="0" stop-color="#b4b4b4"/>
<stop offset="1" stop-color="#e6e6e6"/>
</linearGradient>
<linearGradient id="linearGradient4192" y1="73.254" y2="180.675" x2="0" gradientUnits="userSpaceOnUse">
<stop offset="0" stop-color="#fff"/>
<stop offset=".994" stop-color="#dfdfdf"/>
</linearGradient>
<linearGradient id="linearGradient3224">
<stop offset="0" stop-color="#e0d8b8"/>
<stop offset="1" stop-color="#b6a357"/>
</linearGradient>
<linearGradient id="linearGradient3777">
<stop offset="0" stop-color="#272727"/>
<stop offset="1" stop-color="#737373"/>
</linearGradient>
<linearGradient id="linearGradient3767">
<stop offset="0" stop-color="#3e3e3e"/>
<stop offset="1" stop-color="#bbb" stop-opacity="0"/>
</linearGradient>
<linearGradient id="linearGradient3948">
<stop offset="0" stop-color="#5a5a5a"/>
<stop offset="1" stop-color="#737373"/>
</linearGradient>
<linearGradient id="linearGradient3960">
<stop offset="0" stop-color="#fff"/>
<stop offset="1" stop-color="#fff" stop-opacity="0"/>
</linearGradient>
<linearGradient id="linearGradient3188" xlink:href="#linearGradient3737" y1="6" y2="63.893" x2="0" gradientUnits="userSpaceOnUse"/>
<linearGradient gradientTransform="translate(0 30)" id="linearGradient3996" xlink:href="#linearGradient3948" y1="72.25" y2="79.84" x2="0" gradientUnits="userSpaceOnUse"/>
<linearGradient id="linearGradient3994" xlink:href="#linearGradient3960" y1="81.089" y2="74.654" x2="0" gradientUnits="userSpaceOnUse"/>
<linearGradient id="linearGradient4099" xlink:href="#linearGradient3737-7" y1="81.177" y2="73.448" x2="0" gradientUnits="userSpaceOnUse"/>
<linearGradient id="linearGradient3668" xlink:href="#linearGradient3187" y1="90" y2="5.988" x2="0" gradientUnits="userSpaceOnUse"/>
<linearGradient id="linearGradient3737-7">
<stop offset="0" stop-color="#fff"/>
<stop offset="1" stop-color="#fff" stop-opacity="0"/>
</linearGradient>
<linearGradient id="linearGradient4101" xlink:href="#linearGradient3948" y1="72.25" y2="79.84" x2="0" gradientUnits="userSpaceOnUse"/>
<mask id="SVGID_2_">
<g filter="url(#Adobe_OpacityMaskFilter)">
<linearGradient id="SVGID_3_" y1="-18.516" x1="461.133" y2="169.008" x2="352.866" gradientUnits="userSpaceOnUse">
<stop offset=".006" stop-color="#fff"/>
<stop offset=".013" stop-color="#f6f6f6"/>
<stop offset=".053" stop-color="#c8c8c8"/>
<stop offset=".098" stop-color="#9d9d9d"/>
<stop offset=".146" stop-color="#777"/>
<stop offset=".198" stop-color="#575757"/>
<stop offset=".257" stop-color="#3b3b3b"/>
<stop offset=".322" stop-color="#252525"/>
<stop offset=".399" stop-color="#141414"/>
<stop offset=".493" stop-color="#090909"/>
<stop offset=".626" stop-color="#020202"/>
<stop offset=".994"/>
</linearGradient>
<path fill="url(#SVGID_3_)" d="m537.271,48.9468-.0195-.2329v-.2344c0-22.1675-18.2754-40.2036-40.7402-40.2036h-.127l-.127-.0059c-35.875-1.4976-73.8809-2.2202-112.9805-2.1489-39.0742-.0713-77.0801,.6514-112.9561,2.1489l-.1274,.0059h-.1279c-6.1802,0-12.0391,1.3716-17.2925,3.8125l281.4648,173.0625c1.9375-4.6777 3.0137-9.791 3.0137-15.1504v-.2344l.0195-.2324c1.4863-19.3984 2.209-39.6787 2.1484-60.3125 .0605-20.5967-.6621-40.877-2.1484-60.2744zm-41.0137,161.2627 .127-.004h.127c6.5137,0 12.6699-1.5254 18.1367-4.2188l-87.1562,6.1074c23.5664-.3301 46.5742-.957 68.7656-1.8848z"/>
</g>
</mask>
<radialGradient cx="47.098" cy="78.287" gradientTransform="matrix(2.20627 0 -0 1.31239 -56.81348 75.78127)" r="38.957" id="radialGradient3841" xlink:href="#linearGradient3224" gradientUnits="userSpaceOnUse"/>
<radialGradient cx="47.098" cy="78.287" gradientTransform="matrix(2.20627 0 -0 1.31239 -146.81348 75.78127)" r="38.957" id="radialGradient3832" xlink:href="#linearGradient3224" gradientUnits="userSpaceOnUse"/>
<radialGradient cx="48" cy="90.172" gradientTransform="matrix(1.15731 0 0 .99591 -7.55102 .19713)" r="42" id="radialGradient2874" xlink:href="#linearGradient3737-7" gradientUnits="userSpaceOnUse"/>
<radialGradient cx="47.098" cy="78.287" gradientTransform="matrix(2.20627 0 -0 1.31239 -56.81348 -119.24409)" r="38.957" id="radialGradient3205" xlink:href="#linearGradient3948" gradientUnits="userSpaceOnUse"/>
</defs>
<path opacity=".08" fill="url(#linearGradient3780)" d="m12-95.0312c-5.5111,0-10.0312,4.5202-10.0312,10.0312v71c0,5.5111 4.5202,10.0312 10.0312,10.0312h72c5.5111,0 10.0312-4.5202 10.0312-10.0312v-71c0-5.5111-4.5202-10.0312-10.0312-10.0312h-72z" transform="scale(1 -1)"/>
<path opacity=".1" fill="url(#linearGradient3780)" d="m12-94.0312c-4.9716,0-9.0312,4.0596-9.0312,9.0312v71c0,4.9716 4.0596,9.0312 9.0312,9.0312h72c4.9716,0 9.0312-4.0596 9.0312-9.0312v-71c0-4.9716-4.0596-9.0312-9.0312-9.0312h-72z" transform="scale(1 -1)"/>
<path opacity=".2" fill="url(#linearGradient3780)" d="m12-93c-4.4091,0-8,3.5909-8,8v71c0,4.4091 3.5909,8 8,8h72c4.4091,0 8-3.5909 8-8v-71c0-4.4091-3.5909-8-8-8h-72z" transform="scale(1 -1)"/>
<path opacity=".3" fill="url(#linearGradient3780)" d="m12-92h72a7,7 0 0,1 7,7v71a7,7 0 0,1 -7,7h-72a7,7 0 0,1 -7-7v-71a7,7 0 0,1 7-7" transform="scale(1 -1)"/>
<path opacity=".45" fill="url(#linearGradient3721)" d="m12-91h72a6,6 0 0,1 6,6v72a6,6 0 0,1 -6,6h-72a6,6 0 0,1 -6-6v-72a6,6 0 0,1 6-6" transform="scale(1 -1)"/>
<path fill="url(#radialGradient3205)" d="m13.9936-86.7709h66.2095a5.8528,6.1733 0 0,1 5.8527,6.1733v66.1699a5.8528,6.1733 0 0,1 -5.8527,6.1733h-66.2095a5.8528,6.1733 0 0,1 -5.8527-6.1733v-66.1699a5.8528,6.1733 0 0,1 5.8527-6.1733" transform="scale(1 -1)"/>
<path fill="url(#linearGradient3888)" d="m48,18c-.6046,0-1.1929,.015-1.7812,.0312-.0141,.0001-.0484-.0002-.0625,0-8.3454,.089-12.2162,.7785-16.875,2.0312-11.3017,2.5714-11.2812,7.5993-11.2812,23.9375 0,16.1596-.0295,20.4654 11.2812,23.9375 4.6588,1.2527 8.5297,1.9423 16.875,2.0312 .0141,.0002 .0484-.0002 .0625,0 .5884,.0163 1.1767,.0312 1.7812,.0312 .6046,0 1.1929-.015 1.7812-.0312 .0141-.0002 .0484,.0002 .0625,0 8.3453-.0889 12.2162-.7785 16.875-2.0312 11.3108-3.4721 11.2812-7.7779 11.2812-23.9375 0-16.3382 .0205-21.3661-11.2812-23.9375-4.6588-1.2527-8.5297-1.9423-16.875-2.0312-.0141-.0002-.0484,.0001-.0625,0-.5884-.0163-1.1767-.0312-1.7812-.0312z"/>
<path opacity=".5" fill="#fff" filter="url(#filter3847)" d="m48,118c-.6046,0-1.1929,.015-1.7812,.0312-.0141,.0002-.0484-.0002-.0625,0-8.3453,.0889-12.2162,.7785-16.875,2.0312-11.3017,2.5714-11.2812,7.5994-11.2812,23.9376 0,16.1596-.0295,20.4654 11.2812,23.9375 4.6588,1.2527 8.5297,1.9423 16.875,2.0312 .0141,.0001 .0484-.0001 .0625,0 .5884,.0163 1.1767,.0312 1.7812,.0312 .6046,0 1.1929-.015 1.7812-.0312 .0141-.0001 .0484,.0001 .0625,0 8.3453-.0889 12.2162-.7785 16.875-2.0312 11.3108-3.4721 11.2812-7.7779 11.2812-23.9375 0-16.3382 .0205-21.3661-11.2812-23.9375-4.6588-1.2527-8.5297-1.9423-16.875-2.0312-.0141-.0002-.0484,.0002-.0625,0-.5884-.0163-1.1767-.0312-1.7812-.0312z" clip-path="url(#clipPath3837)" transform="translate(0 -100)"/>
<path opacity=".7" fill="none" filter="url(#filter3925)" stroke="#000" stroke-width="5" d="m138,78c-.6046,0-1.1929,.015-1.7812,.0312-.0141,.0001-.0484-.0002-.0625,0-8.3453,.0889-12.2162,.7785-16.875,2.0312-11.3017,2.5714-11.2812,7.5993-11.2812,23.9375 0,16.1596-.0295,20.4654 11.2812,23.9375 4.6588,1.2527 8.5297,1.9423 16.875,2.0312 .0141,.0001 .0484-.0001 .0625,0 .5884,.0163 1.1767,.0312 1.7812,.0312 .6046,0 1.1929-.015 1.7812-.0312 .0141-.0001 .0484,.0001 .0625,0 8.3453-.0889 12.2162-.7785 16.875-2.0312 11.3108-3.4721 11.2812-7.7779 11.2812-23.9375 0-16.3382 .0205-21.3661-11.2812-23.9375-4.6588-1.2527-8.5297-1.9423-16.875-2.0312-.0141-.0002-.0484,.0001-.0625,0-.5884-.0163-1.1767-.0312-1.7812-.0312z" clip-path="url(#clipPath5265)" transform="translate(-90 -60)"/>
<path opacity=".702" fill="#0fc" d="m-32,18a30,8.4286 0 0,1 30,8.4286v35.1428a30,8.4286 0 0,1 -30,8.4286 30,8.4286 0 0,1 -30-8.4286v-35.1428a30,8.4286 0 0,1 30-8.4286"/>
<path fill="url(#radialGradient3832)" d="m-76.0063,108.254h66.2094a5.8528,6.1733 0 0,1 5.8528,6.174v66.17a5.8528,6.1733 0 0,1 -5.8528,6.173h-66.2094a5.8528,6.1733 0 0,1 -5.8528-6.173v-66.17a5.8528,6.1733 0 0,1 5.8528-6.174"/>
<path opacity=".6" fill="url(#linearGradient4099)" d="m45,70.9688c-1.1004,0-2.0312,.9309-2.0312,2.0312v.875c-.078-1.0332-.9183-1.9062-1.9688-1.9062-1.1004,0-2.0312,.9309-2.0312,2.0312v.875c-.078-1.0332-.9183-1.9062-1.9688-1.9062-1.1004,0-2.0312,.9309-2.0312,2.0312v2c0,1.1004 .9309,2.0312 2.0312,2.0312 1.0505,0 1.8907-.8731 1.9688-1.9062v.875c0,1.1004 .9309,2.0312 2.0312,2.0312 1.0505,0 1.8907-.8731 1.9688-1.9062v.875c0,1.1004 .9309,2.0312 2.0312,2.0312 1.0754,0 1.9597-.9018 2-1.9688 .0403,1.0669 .9246,1.9688 2,1.9688 1.0754,0 1.9597-.9018 2-1.9688 .0403,1.0669 .9246,1.9688 2,1.9688 1.1004,0 2.0312-.9309 2.0312-2.0312v-.875c.078,1.0332 .9183,1.9062 1.9688,1.9062 1.1004,0 2.0312-.9309 2.0312-2.0312v-.875c.078,1.0332 .9183,1.9062 1.9688,1.9062 1.1004,0 2.0312-.9309 2.0312-2.0312v-2c0-1.1004-.9309-2.0312-2.0312-2.0312-1.0505,0-1.8907,.8731-1.9688,1.9062v-.875c0-1.1004-.9309-2.0312-2.0312-2.0312-1.0505,0-1.8907,.8731-1.9688,1.9062v-.875c0-1.1004-.9309-2.0312-2.0312-2.0312-1.0754,0-1.9597,.9018-2,1.9688-.0403-1.0669-.9246-1.9688-2-1.9688-1.0754,0-1.9597,.9018-2,1.9688-.0403-1.0669-.9246-1.9688-2-1.9688z"/>
<path fill="url(#linearGradient4101)" d="m45,72c-.554,0-1,.446-1,1v6c0,.554 .446,1 1,1 .554,0 1-.446 1-1v-6c0-.554-.446-1-1-1z"/>
<path fill="url(#linearGradient4103)" d="m49,72c-.554,0-1,.446-1,1v6c0,.554 .446,1 1,1 .554,0 1-.446 1-1v-6c0-.554-.446-1-1-1z"/>
<path fill="url(#linearGradient4105)" d="m53,72c-.554,0-1,.446-1,1v6c0,.554 .446,1 1,1 .554,0 1-.446 1-1v-6c0-.554-.446-1-1-1z"/>
<path fill="url(#linearGradient4107)" d="m41,73c-.554,0-1,.446-1,1v4c0,.554 .446,1 1,1 .554,0 1-.446 1-1v-4c0-.554-.446-1-1-1z"/>
<path fill="url(#linearGradient4109)" d="m57,73c-.554,0-1,.446-1,1v4c0,.554 .446,1 1,1 .554,0 1-.446 1-1v-4c0-.554-.446-1-1-1z"/>
<path fill="url(#linearGradient4111)" d="m37,74c-.554,0-1,.446-1,1v2c0,.554 .446,1 1,1 .554,0 1-.446 1-1v-2c0-.554-.446-1-1-1z"/>
<path fill="url(#linearGradient4113)" d="m61,74c-.554,0-1,.446-1,1v2c0,.554 .446,1 1,1 .554,0 1-.446 1-1v-2c0-.554-.446-1-1-1z"/>
<path opacity=".8" fill="url(#linearGradient3994)" d="m45,70.9688c-.9053,0-1.5638,.6983-1.8125,1.5312-.3443-.2724-.7224-.5312-1.1875-.5312-.9053,0-1.5638,.6983-1.8125,1.5312-.3443-.2724-.7224-.5312-1.1875-.5312-1.1004,0-2.0312,.9309-2.0312,2.0312v2c0,1.1004 .9309,2.0312 2.0312,2.0312 .4651,0 .8432-.2589 1.1875-.5312 .2487,.8329 .9072,1.5312 1.8125,1.5312 .4651,0 .8432-.2589 1.1875-.5312 .2487,.8329 .9072,1.5312 1.8125,1.5312 .6353,0 1.128-.3735 1.5-.8438 .372,.4703 .8647,.8438 1.5,.8438 .6353,0 1.128-.3735 1.5-.8438 .372,.4703 .8647,.8438 1.5,.8438 .9053,0 1.5638-.6983 1.8125-1.5312 .3443,.2724 .7224,.5312 1.1875,.5312 .9053,0 1.5638-.6983 1.8125-1.5312 .3443,.2724 .7224,.5312 1.1875,.5312 1.1004,0 2.0312-.9309 2.0312-2.0312v-2c0-1.1004-.9309-2.0312-2.0312-2.0312-.4651,0-.8432,.2589-1.1875,.5312-.2487-.8329-.9072-1.5312-1.8125-1.5312-.4651,0-.8432,.2589-1.1875,.5312-.2487-.8329-.9072-1.5312-1.8125-1.5312-.6353,0-1.128,.3735-1.5,.8438-.372-.4703-.8647-.8438-1.5-.8438-.6353,0-1.128,.3735-1.5,.8438-.372-.4703-.8647-.8438-1.5-.8438z" transform="translate(0 30)"/>
<path fill="url(#linearGradient3996)" d="m45,102c-.554,0-1,.446-1,1v6c0,.554 .446,1 1,1 .554,0 1-.446 1-1v-6c0-.554-.446-1-1-1zm3,0c-.554,0-1,.446-1,1v6c0,.554 .446,1 1,1 .554,0 1-.446 1-1v-6c0-.554-.446-1-1-1zm3,0c-.554,0-1,.446-1,1v6c0,.554 .446,1 1,1 .554,0 1-.446 1-1v-6c0-.554-.446-1-1-1zm-9,1c-.554,0-1,.446-1,1v4c0,.554 .446,1 1,1 .554,0 1-.446 1-1v-4c0-.554-.446-1-1-1zm12,0c-.554,0-1,.446-1,1v4c0,.554 .446,1 1,1 .554,0 1-.446 1-1v-4c0-.554-.446-1-1-1zm-15,1c-.554,0-1,.446-1,1v2c0,.554 .446,1 1,1 .554,0 1-.446 1-1v-2c0-.554-.446-1-1-1zm18,0c-.554,0-1,.446-1,1v2c0,.554 .446,1 1,1 .554,0 1-.446 1-1v-2c0-.554-.446-1-1-1z"/>
<g transform="translate(0 -1)">
<path opacity=".2" d="m23.8649,79.2062a5.0508,5.0508 0 1,1 -10.1015,0 5.0508,5.0508 0 1,1 10.1015,0z" transform="matrix(1.18794 0 0 1.18794 .65 -18.09218)"/>
<path opacity=".6" d="m23.8649,79.2062a5.0508,5.0508 0 1,1 -10.1015,0 5.0508,5.0508 0 1,1 10.1015,0z" transform="matrix(.98995 0 0 .98995 4.375 -2.41015)"/>
<g stroke-linecap="square">
<path fill="url(#linearGradient3785)" stroke="url(#linearGradient3787)" stroke-width="3.962" d="m30.9828,106.1372a4.6224,4.6224 0 1,1 -9.2449,0 4.6224,4.6224 0 1,1 9.2449,0z" transform="matrix(.75718 0 0 .75718 3.04054 -5.36468)"/>
<path fill="none" stroke="url(#linearGradient3789)" stroke-width="1.317" d="m30.9828,106.1372a4.6224,4.6224 0 1,1 -9.2449,0 4.6224,4.6224 0 1,1 9.2449,0z" transform="matrix(0 -.7591 .7591 0 -57.56864 95.01011)"/>
</g>
</g>
<g transform="translate(50 -1)">
<path opacity=".2" d="m23.8649,79.2062a5.0508,5.0508 0 1,1 -10.1015,0 5.0508,5.0508 0 1,1 10.1015,0z" transform="matrix(1.18794 0 0 1.18794 .65 -18.09218)"/>
<path opacity=".6" d="m23.8649,79.2062a5.0508,5.0508 0 1,1 -10.1015,0 5.0508,5.0508 0 1,1 10.1015,0z" transform="matrix(.98995 0 0 .98995 4.375 -2.41015)"/>
<g stroke-linecap="square">
<path fill="url(#linearGradient3785)" stroke="url(#linearGradient3787)" stroke-width="3.962" d="m30.9828,106.1372a4.6224,4.6224 0 1,1 -9.2449,0 4.6224,4.6224 0 1,1 9.2449,0z" transform="matrix(.75718 0 0 .75718 3.04054 -5.36468)"/>
<path fill="none" stroke="url(#linearGradient3789)" stroke-width="1.317" d="m30.9828,106.1372a4.6224,4.6224 0 1,1 -9.2449,0 4.6224,4.6224 0 1,1 9.2449,0z" transform="matrix(0 -.7591 .7591 0 -57.56864 95.01011)"/>
</g>
</g>
<path opacity=".3" fill="#fff" d="m21.0625,47.4688c.0567,5.9742 .2876,9.9446 1.1562,12.125 1.0239,2.5702 2.6285,3.7937 7.8438,5.4062 .0101,.0027 .0211-.0027 .0312,0 .0305,.0094 .0318,.0218 .0625,.0312 4.4735,1.1986 7.9017,1.8196 16.0312,1.9062-.0809-.0009-.045-.0011 .0625,0a3.0324,3.0324 0 0,1 .0625,0c.5839,.0162 1.133,.0312 1.6875,.0312 .5545,0 1.1036-.0151 1.6875-.0312a3.0324,3.0324 0 0,1 .0625,0c.1075-.0011 .1434-.0009 .0625,0 8.1295-.0867 11.5577-.7076 16.0312-1.9062 .0324-.0087 .0613-.0225 .0938-.0312 5.2152-1.6126 6.8198-2.8361 7.8438-5.4062 .8686-2.1804 1.0996-6.1508 1.1562-12.125-.092,4.9149-.382,8.1815-1.1562,10.125-1.0239,2.5702-2.6285,3.7937-7.8438,5.4062-.0325,.0087-.0614,.0226-.0938,.0312-4.4735,1.1986-7.9017,1.8196-16.0312,1.9062 .0809-.0009 .045-.0011-.0625,0a3.0324,3.0324 0 0,0 -.0625,0c-.5839,.0162-1.133,.0312-1.6875,.0312-.5545,0-1.1036-.0151-1.6875-.0312a3.0324,3.0324 0 0,0 -.0625,0c-.1075-.0011-.1434-.0009-.0625,0-8.1295-.0867-11.5577-.7076-16.0312-1.9062-.0307-.0094-.032-.0219-.0625-.0312-.0101-.0027-.0211,.0027-.0312,0-5.2152-1.6126-6.8198-2.8361-7.8438-5.4062-.7743-1.9435-1.0642-5.2101-1.1562-10.125z"/>
<path opacity=".6" d="m48,18c-.6046,0-1.1929,.015-1.7812,.0312-.0141,.0001-.0484-.0002-.0625,0-8.3454,.089-12.2162,.7785-16.875,2.0312-11.3017,2.5714-11.2812,7.5993-11.2812,23.9375 0,16.1596-.0295,20.4654 11.2812,23.9375 4.6588,1.2527 8.5297,1.9423 16.875,2.0312 .0141,.0002 .0484-.0001 .0625,0 .5884,.0163 1.1767,.0312 1.7812,.0312 .6046,0 1.1929-.015 1.7812-.0312 .0141-.0001 .0484,.0002 .0625,0 8.3454-.0889 12.2162-.7785 16.875-2.0312 11.3108-3.4721 11.2812-7.7779 11.2812-23.9375 0-16.3382 .0205-21.3661-11.2812-23.9375-4.6588-1.2527-8.5297-1.9423-16.875-2.0312-.0141-.0002-.0484,.0001-.0625,0-.5884-.0163-1.1767-.0312-1.7812-.0312z"/>
<path fill="url(#linearGradient4216)" d="m41.3883,40.2816 0,9.5933-1.7266,0 0-1.059c-.3183,.3902-.6493,.6876-.9935,.8916-.3442,.2037-.6784,.3059-1.0021,.3059-.3991,0-.7001-.1426-.9026-.4284-.2025-.2856-.3036-.714-.3036-1.2852v-8.0183h1.7266v7.3539c0,.2276 .0361,.3919 .1084,.4937 .0723,.1017 .1894,.1527 .3515,.1527 .1273,0 .2876-.0672 .4814-.2019 .1938-.1348 .3717-.3068 .5338-.5165v-7.2819h1.7266zm-11.406,2.1932c0-.743 .2323-1.3344 .6972-1.7749 .4649-.4405 1.0896-.6608 1.8743-.6608 .7145,0 1.2999,.2324 1.7562,.6967 .4563,.4643 .6844,1.062 .6844,1.7931v4.9549c0,.821-.224,1.4651-.6713,1.9324-.4474,.4673-1.0634,.7011-1.8479,.7011-.7554,0-1.3599-.2414-1.813-.7235-.4534-.4822-.6799-1.1309-.6799-1.9459v-4.9731zm1.7769,5.1527c0,.2642 .0613,.4678 .1844,.6119 .1228,.1439 .2983,.2155 .5267,.2155 .2342,0 .4199-.0733 .5576-.2201 .1375-.147 .2064-.3493 .2064-.6073v-5.2247c0-.2097-.0705-.3791-.2109-.5078-.1404-.1288-.3248-.1934-.5532-.1934-.2106,0-.3819,.0646-.5136,.1934-.1318,.1288-.1975,.2982-.1975,.5078v5.2247zm-8.2096-10.7573 1.9584,0 1.2616,5.1982 .1221,0 1.203-5.1982 1.9757,0-2.263,7.6084 0,5.3962-1.9445,0 0-5.1533-2.3133-7.8514z"/>
<g transform="matrix(.96508 0 0 .96508 1.87601 1.93425)">
<path fill="url(#linearGradient4220)" d="m73.7932,37.4075c0-2.4375-2.0008-4.4153-4.4664-4.4153-3.519-.1469-7.1197-.2121-10.7922-.2054-3.6726-.0067-7.2731,.0585-10.7923,.2054-2.4654,0-4.4663,1.9778-4.4663,4.4153-.148,1.9305-.2122,3.861-.2065,5.7915-.0057,1.9305 .0585,3.861 .2065,5.7915 0,2.4375 2.0009,4.4154 4.4664,4.4154 3.5191,.1469 7.1196,.212 10.7922,.2052 3.6726,.0069 7.2733-.0583 10.7922-.2052 2.4656,0 4.4664-1.9779 4.4664-4.4154 .148-1.9306 .2122-3.8611 .2065-5.7915 .0057-1.9305-.0584-3.8611-.2065-5.7915z"/>
<path fill="#fff" mask="url(#SVGID_2_)" d="m496.2573,8.27 .127,.0059h.127c22.4648,0 40.7402,18.0361 40.7402,40.2036v.2344l.0195,.2329c1.4863,19.3975 2.209,39.6777 2.1484,60.2744 .0605,20.6338-.6621,40.9141-2.1484,60.3125l-.0195,.2324v.2344c0,22.1699-18.2754,40.2051-40.7402,40.2051h-.127l-.127,.004c-35.8809,1.4981-73.8867,2.2207-112.957,2.1484-39.0938,.0723-77.0976-.6504-112.979-2.1484l-.1274-.004h-.1274c-22.4649,0-40.7407-18.0352-40.7407-40.2051v-.2344l-.0181-.2324c-1.4868-19.3887-2.21-39.668-2.1489-60.2773-.0615-20.6348 .6611-40.915 2.1484-60.3096l.0181-.2329v-.2344c0-22.1675 18.2759-40.2036 40.7402-40.2036h.1279l.1274-.0059c35.876-1.4976 73.8818-2.2202 112.9561-2.1489 39.0996-.0713 77.1055,.6514 112.9805,2.1489z" transform="matrix(.09532 0 0 .09532 22 32.78641)"/>
</g>
<g transform="matrix(.09199 0 0 .09199 23.10771 33.57567)">
<path d="m314.2319,33.8794h-68.0454v20.8345h22.9365v122.7105h22.1714v-122.7105h22.9375v-20.8345zm36.2383,118.0312c-1.8476,2.3145-3.877,4.2149-6.0859,5.7012-2.2109,1.4883-4.0391,2.2285-5.4902,2.2285-1.8476,0-3.1836-.5625-4.0078-1.6855-.8242-1.1211-1.2363-2.9375-1.2363-5.4492v-81.1719h-19.6875v88.5059c0,6.3047 1.1543,11.0332 3.4629,14.1875 2.3086,3.1523 5.7402,4.7266 10.291,4.7266 3.6914,0 7.502-1.1289 11.4258-3.3769 3.9258-2.2519 7.6992-5.5352 11.3281-9.8418v11.6895h19.6875v-105.8906h-19.6875v80.3769zm76.2774-81.7148c-3.0527,0-6.0684,.8423-9.0527,2.5239-2.9824,1.6841-5.7988,4.1392-8.4512,7.3706v-46.2109h-19.8789v143.5449h19.8789v-8.1406c2.5859,3.2246 5.3887,5.6113 8.4043,7.1582 3.0156,1.5469 6.4473,2.3203 10.2949,2.3203 5.832,0 10.291-1.9941 13.373-5.9902 3.082-3.9961 4.627-9.7578 4.627-17.2871v-58.7446c0-8.6489-1.6426-15.2373-4.9258-19.7588-3.2812-4.5215-8.0391-6.7856-14.2695-6.7856zm-1.0664,82.4102c0,3.375-.5703,5.8105-1.7051,7.2969-1.1348,1.4883-2.9062,2.2305-5.3105,2.2305-1.6719,0-3.2578-.3789-4.7617-1.1406-1.5059-.7578-3.0586-2-4.6602-3.7207v-65.9883c1.3359-1.4541 2.6875-2.5293 4.0586-3.2251 1.3691-.6929 2.7578-1.0425 4.1601-1.0425 2.6699,0 4.7109,.9287 6.1133,2.7803 1.4043,1.8521 2.1055,4.5635 2.1055,8.1357v54.6738zm93.0273-25.6426v-26.959c0-10.0493-2.4199-17.7519-7.252-23.1094-4.8359-5.3579-11.7559-8.0371-20.7617-8.0371-8.8105,0-15.9961,2.894-21.5566,8.6787-5.5645,5.7881-8.3457,13.2754-8.3457,22.4678v47.5273c0,10.1934 2.5332,18.2012 7.5977,24.0254 5.0664,5.8223 12.0039,8.7344 20.8145,8.7344 9.8008,0 17.1699-2.748 22.1035-8.2402 4.9336-5.4922 7.4004-13.666 7.4004-24.5195v-7.9531h-20.2617v7.3594c0,6.2305-.6504,10.2598-1.9492,12.0801-1.2988,1.8223-3.582,2.7344-6.8457,2.7344-3.1367,0-5.3516-1.0762-6.6504-3.2324-1.2988-2.1523-1.9473-6.0156-1.9473-11.582v-19.9746h37.6543zm-37.6543-27.1558c0-4.4321 .6797-7.6099 2.0488-9.5303 1.3652-1.9175 3.6133-2.8789 6.7461-2.8789 2.998,0 5.1816,.9614 6.5488,2.8789 1.3652,1.9204 2.0488,5.0981 2.0488,9.5303v10.7183h-17.3926v-10.7183z"/>
<path fill="#fff" d="m314.2319,35.4087h-68.0454v20.834h22.9365v122.7109h22.1714v-122.7109h22.9375v-20.834zm36.2383,118.0312c-1.8476,2.3144-3.877,4.2149-6.0859,5.7012-2.2109,1.4883-4.0391,2.2285-5.4902,2.2285-1.8476,0-3.1836-.5625-4.0078-1.6856-.8242-1.123-1.2363-2.9375-1.2363-5.4492v-81.1719h-19.6875v88.5059c0,6.3047 1.1543,11.0332 3.4629,14.1875 2.3086,3.1523 5.7402,4.7266 10.291,4.7266 3.6914,0 7.502-1.1289 11.4258-3.3769 3.9258-2.252 7.6992-5.5352 11.3281-9.8418v11.6894h19.6875v-105.8906h-19.6875v80.377zm76.2774-81.7148c-3.0527,0-6.0684,.8423-9.0527,2.5234-2.9824,1.6846-5.7988,4.1396-8.4512,7.3711v-46.2109h-19.8789v143.5449h19.8789v-8.1406c2.5859,3.2246 5.3887,5.6113 8.4043,7.1582 3.0156,1.5469 6.4473,2.3203 10.2949,2.3203 5.832,0 10.291-1.9941 13.373-5.9902 3.082-3.9961 4.627-9.7578 4.627-17.2871v-58.7446c0-8.6489-1.6426-15.2373-4.9258-19.7593-3.2812-4.5215-8.0391-6.7852-14.2695-6.7852zm-1.0664,82.4102c0,3.375-.5703,5.8086-1.7051,7.2969-1.1348,1.4863-2.9062,2.2305-5.3105,2.2305-1.6719,0-3.2578-.3789-4.7617-1.1406-1.5059-.7578-3.0586-2-4.6602-3.7207v-65.9883c1.3359-1.4546 2.6875-2.5298 4.0586-3.2256 1.3691-.6929 2.7578-1.042 4.1601-1.042 2.6699,0 4.7109,.9287 6.1133,2.7803 1.4043,1.8516 2.1055,4.5635 2.1055,8.1353v54.6743zm93.0273-25.6426v-26.959c0-10.0498-2.4199-17.752-7.252-23.1099-4.8359-5.3579-11.7559-8.0366-20.7617-8.0366-8.8105,0-15.9961,2.894-21.5566,8.6787-5.5645,5.7881-8.3457,13.2754-8.3457,22.4678v47.5273c0,10.1934 2.5332,18.2012 7.5977,24.0254 5.0664,5.8223 12.0039,8.7344 20.8145,8.7344 9.8008,0 17.1699-2.7481 22.1035-8.2402 4.9336-5.4922 7.4004-13.666 7.4004-24.5195v-7.9531h-20.2617v7.3594c0,6.2305-.6504,10.2598-1.9492,12.0801-1.2988,1.8223-3.582,2.7324-6.8457,2.7324-3.1367,0-5.3516-1.0742-6.6504-3.2305-1.2988-2.1543-1.9473-6.0156-1.9473-11.582v-19.9746h37.6543zm-37.6543-27.1562c0-4.4316 .6797-7.6094 2.0488-9.5298 1.3652-1.9175 3.6133-2.8789 6.7461-2.8789 2.998,0 5.1816,.9614 6.5488,2.8789 1.3652,1.9204 2.0488,5.0981 2.0488,9.5298v10.7188h-17.3926v-10.7188z"/>
</g>
<g fill="none">
<g stroke="#000">
<path opacity=".05" stroke-width="9" d="m15.446,11.5h65.108a3.946,3.9459 0 0,1 3.946,3.9459v65.1082a3.946,3.9459 0 0,1 -3.946,3.9459h-65.108a3.946,3.9459 0 0,1 -3.946-3.9459v-65.1082a3.946,3.9459 0 0,1 3.946-3.9459"/>
<path opacity=".1" stroke-width="7" d="m15.446,11.5h65.108a3.946,3.9459 0 0,1 3.946,3.9459v65.1082a3.946,3.9459 0 0,1 -3.946,3.9459h-65.108a3.946,3.9459 0 0,1 -3.946-3.9459v-65.1082a3.946,3.9459 0 0,1 3.946-3.9459"/>
<path opacity=".2" stroke-width="5" d="m15.446,11.5h65.108a3.946,3.9459 0 0,1 3.946,3.9459v65.1082a3.946,3.9459 0 0,1 -3.946,3.9459h-65.108a3.946,3.9459 0 0,1 -3.946-3.9459v-65.1082a3.946,3.9459 0 0,1 3.946-3.9459"/>
</g>
<path stroke="#333" stroke-width="3" d="m15.446,11.5h65.108a3.946,3.9459 0 0,1 3.946,3.9459v65.1082a3.946,3.9459 0 0,1 -3.946,3.9459h-65.108a3.946,3.9459 0 0,1 -3.946-3.9459v-65.1082a3.946,3.9459 0 0,1 3.946-3.9459"/>
</g>
<path fill="url(#linearGradient3668)" d="m12,6c-3.324,0-6,2.676-6,6v72c0,3.324 2.676,6 6,6h72c3.324,0 6-2.676 6-6v-72c0-3.324-2.676-6-6-6h-72zm4,6 64,0c2.216,0 4,1.784 4,4v64c0,2.216-1.784,4-4,4h-64c-2.216,0-4-1.784-4-4v-64c0-2.216 1.784-4 4-4z"/>
<path opacity=".4" fill="url(#linearGradient3188)" d="m12,6c-3.324,0-6,2.676-6,6v2 68 2c0,.3347 .0413,.6507 .0938,.9688 .0487,.2956 .097,.5969 .1875,.875 .0099,.0304 .0209,.0636 .0312,.0938 .0989,.2878 .2349,.5475 .375,.8125 .1446,.2735 .3156,.5356 .5,.7812 .1844,.2456 .3738,.4735 .5938,.6875 .4399,.4281 .9429,.8145 1.5,1.0938 .2785,.1396 .5735,.2469 .875,.3438-.2562-.1002-.4867-.2363-.7188-.375-.0074-.0044-.0239,.0045-.0312,0-.0319-.0193-.0623-.0425-.0938-.0625-.1204-.0767-.231-.1635-.3438-.25-.1062-.0808-.2133-.1611-.3125-.25-.1779-.1614-.3475-.3454-.5-.5312-.1076-.1303-.2184-.2653-.3125-.4062-.0251-.0384-.0385-.0859-.0625-.125-.0648-.103-.1302-.2045-.1875-.3125-.101-.1947-.2057-.4157-.2812-.625-.008-.0218-.0236-.0405-.0312-.0625-.0318-.0919-.0358-.1868-.0625-.2812-.0303-.1066-.0704-.203-.0938-.3125-.0729-.3415-.125-.6982-.125-1.0625v-2-68-2c0-2.7818 2.2182-5 5-5h2 68 2c2.7818,0 5,2.2182 5,5v2 68 2c0,.3643-.0521,.721-.125,1.0625-.0442,.2069-.0884,.3977-.1562,.5938-.0077,.022-.0233,.0407-.0312,.0625-.0627,.1737-.1384,.3674-.2188,.5312-.0416,.0828-.079,.17-.125,.25-.0546,.0972-.1268,.1883-.1875,.2812-.0941,.141-.2049,.276-.3125,.4062-.1432,.1744-.3031,.347-.4688,.5-.0112,.0102-.02,.0212-.0312,.0312-.1384,.1256-.2851,.2344-.4375,.3438-.1026,.0731-.2043,.1534-.3125,.2188-.0074,.0045-.0238-.0044-.0312,0-.232,.1387-.4625,.2748-.7188,.375 .3015-.0968 .5965-.2041 .875-.3438 .5571-.2792 1.0601-.6657 1.5-1.0938 .22-.214 .4094-.4419 .5938-.6875 .1844-.2456 .3554-.5077 .5-.7812 .1401-.265 .2761-.5247 .375-.8125 .0104-.0308 .0213-.0627 .0312-.0938 .0905-.2781 .1388-.5794 .1875-.875 .0524-.318 .0938-.634 .0938-.9688v-2-68-2c0-3.324-2.676-6-6-6h-72z"/>
<path opacity=".2" fill="url(#radialGradient2874)" d="m12,90c-3.324,0-6-2.676-6-6v-2-68-2c0-.3347 .0413-.6507 .0938-.9688 .0487-.2956 .097-.5969 .1875-.875 .0099-.0304 .0209-.0636 .0312-.0938 .0989-.2878 .2349-.5475 .375-.8125 .1446-.2735 .3156-.5356 .5-.7812 .1844-.2456 .3738-.4735 .5938-.6875 .4399-.4281 .9429-.8145 1.5-1.0938 .2785-.1396 .5735-.2469 .875-.3438-.2562,.1002-.4867,.2363-.7188,.375-.0074,.0044-.0239-.0045-.0312,0-.0319,.0193-.0623,.0425-.0938,.0625-.1204,.0767-.231,.1635-.3438,.25-.1062,.0808-.2133,.1611-.3125,.25-.1779,.1614-.3475,.3454-.5,.5312-.1076,.1303-.2184,.2653-.3125,.4062-.0251,.0384-.0384,.0859-.0625,.125-.0648,.103-.1302,.2045-.1875,.3125-.101,.1947-.2057,.4157-.2812,.625-.008,.0218-.0236,.0405-.0312,.0625-.0318,.092-.0358,.1868-.0625,.2812-.0303,.1066-.0704,.203-.0938,.3125-.0729,.3415-.125,.6982-.125,1.0625v2 68 2c0,2.7818 2.2182,5 5,5h2 68 2c2.7818,0 5-2.2182 5-5v-2-68-2c0-.3643-.0521-.721-.125-1.0625-.0442-.2069-.0884-.3977-.1562-.5938-.0077-.022-.0233-.0407-.0312-.0625-.0627-.1737-.1384-.3674-.2188-.5312-.0416-.0828-.079-.17-.125-.25-.0546-.0972-.1268-.1883-.1875-.2812-.0941-.141-.2049-.276-.3125-.4062-.1432-.1745-.3031-.347-.4688-.5-.0112-.0102-.02-.0211-.0312-.0312-.1384-.1256-.2851-.2344-.4375-.3438-.1026-.0732-.2043-.1534-.3125-.2188-.0074-.0045-.0238,.0044-.0312,0-.232-.1387-.4625-.2748-.7188-.375 .3015,.0968 .5965,.2041 .875,.3438 .5571,.2792 1.0601,.6657 1.5,1.0938 .22,.214 .4094,.4419 .5938,.6875 .1844,.2456 .3554,.5077 .5,.7812 .1401,.265 .2761,.5247 .375,.8125 .0104,.0308 .0213,.0627 .0312,.0938 .0905,.2781 .1388,.5794 .1875,.875 .0524,.318 .0938,.634 .0938,.9688v2 68 2c0,3.324-2.676,6-6,6h-72z"/>
<path opacity=".2" fill="#d59266" d="m12,80 0,1c0,2.216 1.784,4 4,4h64c2.216,0 4-1.784 4-4v-1c0,2.216-1.784,4-4,4h-64c-2.216,0-4-1.784-4-4z"/>
<path opacity=".7" fill="url(#linearGradient3931)" d="m48,20.4756c-.5294,0-1.0445,.0077-1.5596,.016-.0123,.0001-.0424-.0001-.0547,0-7.3071,.0454-10.6964,.3975-14.7756,1.0371-9.8956,1.3128-9.8777,3.8799-9.8777,12.2213 0,8.2503-.0259,10.4487 9.8777,12.2213 4.0792,.6396 7.4685,.9916 14.7756,1.0371 .0123,.0001 .0424-.0001 .0547,0 .5152,.0083 1.0303,.0159 1.5596,.0159 .5294,0 1.0445-.0077 1.5596-.0159 .0123-.0001 .0424,.0001 .0547,0 7.3071-.0454 10.6964-.3975 14.7756-1.0371 9.9036-1.7727 9.8777-3.971 9.8777-12.2214 0-8.3415 .0179-10.9085-9.8777-12.2213-4.0792-.6396-7.4685-.9916-14.7756-1.0371-.0123-.0001-.0424,.0001-.0547,0-.5152-.0083-1.0303-.0159-1.5596-.0159z"/>
</svg>
