<svg xmlns="http://www.w3.org/2000/svg" viewBox="0 0 96 96" xmlns:xlink="http://www.w3.org/1999/xlink">
<defs>
<clipPath id="clipPath3782">
<path fill="#f0f" d="m20.1562,18c-1.1871,0-2.1562,.892-2.1562,2v70h60v-70c0-1.108-.9691-2-2.1562-2h-55.6875z"/>
</clipPath>
<clipPath id="clipPath3613">
<path fill="#fff" d="m12,6h72a6,6 0 0,1 6,6v72a6,6 0 0,1 -6,6h-72a6,6 0 0,1 -6-6v-72a6,6 0 0,1 6-6"/>
</clipPath>
<filter width="1.384" x="-.192" y="-.192" height="1.384" color-interpolation-filters="sRGB" id="filter3794">
<feGaussianBlur stdDeviation="5.28"/>
</filter>
<filter width="1.224" x="-.112" y="-.084" height="1.168" color-interpolation-filters="sRGB" id="filter4143">
<feGaussianBlur stdDeviation="2.8"/>
</filter>
<linearGradient id="linearGradient4088" xlink:href="#linearGradient4082" y1="72.179" y2="61.4" x2="0" gradientUnits="userSpaceOnUse"/>
<linearGradient id="linearGradient4078" xlink:href="#linearGradient3759" y1="65.136" y2="56.171" x2="0" gradientUnits="userSpaceOnUse"/>
<linearGradient id="linearGradient3254" xlink:href="#linearGradient3819" y1="66.469" y2="51.892" x2="0" gradientUnits="userSpaceOnUse"/>
<linearGradient id="linearGradient3236">
<stop offset="0" stop-color="#818181"/>
<stop offset=".2" stop-color="#f9f9f9"/>
<stop offset="1" stop-color="#dcdcdc" stop-opacity="0"/>
</linearGradient>
<linearGradient id="linearGradient3601">
<stop offset="0" stop-color="#b8d9f4"/>
<stop offset="1" stop-color="#ebf4fc"/>
</linearGradient>
<linearGradient gradientTransform="translate(0 -97)" id="linearGradient3721" xlink:href="#ButtonShadow-0" y1="6.132" y2="90.239" x2="0" gradientUnits="userSpaceOnUse"/>
<linearGradient gradientTransform="matrix(1.02381 0 0 1.0119 -1.14286 -98.07143)" id="linearGradient3780" xlink:href="#ButtonShadow-0" y1="6.132" y2="90.239" x2="0" gradientUnits="userSpaceOnUse"/>
<linearGradient id="linearGradient3251" xlink:href="#linearGradient3622" y1="90" y2="5.988" x2="0" gradientUnits="userSpaceOnUse"/>
<linearGradient gradientTransform="matrix(1.00587 0 0 .99417 100 0)" id="ButtonShadow-0" y1="92.54" y2="7.017" x2="0" gradientUnits="userSpaceOnUse">
<stop offset="0"/>
<stop offset="1" stop-opacity=".588"/>
</linearGradient>
<linearGradient gradientTransform="translate(1 .53571)" id="linearGradient3977" xlink:href="#linearGradient3737" y1="61.397" y2="69.628" x2="0" gradientUnits="userSpaceOnUse"/>
<linearGradient id="linearGradient4186" xlink:href="#linearGradient3236" x1="6" x2="24" gradientUnits="userSpaceOnUse"/>
<linearGradient gradientTransform="translate(100)" id="linearGradient4192" xlink:href="#linearGradient4129" y1="59.609" y2="18.171" x2="0" gradientUnits="userSpaceOnUse"/>
<linearGradient gradientTransform="matrix(-1 0 0 1 96 0)" id="linearGradient4188" xlink:href="#linearGradient3236" x1="6" x2="24" gradientUnits="userSpaceOnUse"/>
<linearGradient id="linearGradient3376-2">
<stop offset="0" stop-color="#767676"/>
<stop offset="1" stop-color="#fdfdfd"/>
</linearGradient>
<linearGradient id="linearGradient3737">
<stop offset="0" stop-color="#fff"/>
<stop offset="1" stop-color="#fff" stop-opacity="0"/>
</linearGradient>
<linearGradient id="linearGradient3622">
<stop offset="0" stop-color="#bebebe"/>
<stop offset="1" stop-color="#e6e6e6"/>
</linearGradient>
<linearGradient id="linearGradient3613" xlink:href="#linearGradient3737" y1="20.221" y2="138.661" x2="0" gradientUnits="userSpaceOnUse"/>
<linearGradient id="linearGradient3759">
<stop offset="0"/>
<stop offset="1" stop-opacity="0"/>
</linearGradient>
<linearGradient id="linearGradient3819">
<stop offset="0" stop-color="#969696"/>
<stop offset="1" stop-color="#808080" stop-opacity="0"/>
</linearGradient>
<linearGradient id="linearGradient4129">
<stop offset="0" stop-color="#0c0c0c"/>
<stop offset=".087" stop-color="#2c2c2c"/>
<stop offset=".098" stop-color="#353535"/>
<stop offset=".597" stop-color="#383838"/>
<stop offset=".602" stop-color="#484848"/>
<stop offset="1" stop-color="#151515"/>
</linearGradient>
<linearGradient id="linearGradient4033">
<stop offset="0" stop-color="#fff"/>
<stop offset="1" stop-color="#fff" stop-opacity="0"/>
</linearGradient>
<linearGradient id="linearGradient4082">
<stop offset="0"/>
<stop offset="1" stop-color="#1f1f1f"/>
</linearGradient>
<linearGradient id="linearGradient3188" xlink:href="#linearGradient3737" y1="6" y2="63.893" x2="0" gradientUnits="userSpaceOnUse"/>
<linearGradient gradientTransform="matrix(.9038 0 0 .9038 4.61784 4.61784)" id="linearGradient3642" xlink:href="#linearGradient4129" y1="61.848" y2="11.465" x2="0" gradientUnits="userSpaceOnUse"/>
<linearGradient gradientTransform="matrix(1 0 0 .58612 10 -14.33417)" id="linearGradient3765" xlink:href="#linearGradient3759" y1="84" y2="46.896" x2="0" gradientUnits="userSpaceOnUse"/>
<linearGradient id="linearGradient3556" xlink:href="#linearGradient3376-2" x1="16" x2="20.179" gradientUnits="userSpaceOnUse"/>
<linearGradient id="linearGradient4039" xlink:href="#linearGradient4033" y1="54" y2="15.672" x2="0" gradientUnits="userSpaceOnUse"/>
<radialGradient cx="48.241" cy="38.667" gradientTransform="matrix(.84762 -.34152 .24994 .62034 -2.31373 24.41115)" r="25.55" id="radialGradient3789" xlink:href="#linearGradient3601" gradientUnits="userSpaceOnUse"/>
<radialGradient cx="18.089" cy="85.062" gradientTransform="matrix(1 0 0 1.00427 0 -.36352)" r="2.089" id="radialGradient2984" gradientUnits="userSpaceOnUse">
<stop offset="0" stop-color="#c1ff97"/>
<stop offset="1" stop-color="#30c700"/>
</radialGradient>
<radialGradient cx="48.194" cy="58.668" gradientTransform="matrix(.94738 -.33278 .20516 .58407 -9.50044 36.45378)" r="33.906" id="radialGradient3787" xlink:href="#linearGradient3601" gradientUnits="userSpaceOnUse"/>
<radialGradient cx="12" cy="64.02" gradientTransform="matrix(1.07143 0 0 .4375 -.85714 4.4375)" r="4" id="radialGradient3886" gradientUnits="userSpaceOnUse">
<stop offset="0" stop-color="#59d338"/>
<stop offset="1" stop-color="#289140"/>
</radialGradient>
<radialGradient cx="48" cy="62.5" gradientTransform="matrix(1 0 0 .03061 .17857 60.82959)" r="28" id="radialGradient4115" xlink:href="#linearGradient3737" gradientUnits="userSpaceOnUse"/>
<radialGradient cx="48" cy="90.172" gradientTransform="matrix(1.15731 0 0 .99591 -7.55102 .19713)" r="42" id="radialGradient3619" xlink:href="#linearGradient3737" gradientUnits="userSpaceOnUse"/>
</defs>
<path opacity=".08" fill="url(#linearGradient3780)" d="m12-95.0312c-5.5111,0-10.0312,4.5202-10.0312,10.0312v71c0,5.5111 4.5202,10.0312 10.0312,10.0312h72c5.5111,0 10.0312-4.5202 10.0312-10.0312v-71c0-5.5111-4.5202-10.0312-10.0312-10.0312h-72z" transform="scale(1 -1)"/>
<path opacity=".1" fill="url(#linearGradient3780)" d="m12-94.0312c-4.9716,0-9.0312,4.0596-9.0312,9.0312v71c0,4.9716 4.0596,9.0312 9.0312,9.0312h72c4.9716,0 9.0312-4.0596 9.0312-9.0312v-71c0-4.9716-4.0596-9.0312-9.0312-9.0312h-72z" transform="scale(1 -1)"/>
<path opacity=".2" fill="url(#linearGradient3780)" d="m12-93c-4.4091,0-8,3.5909-8,8v71c0,4.4091 3.5909,8 8,8h72c4.4091,0 8-3.5909 8-8v-71c0-4.4091-3.5909-8-8-8h-72z" transform="scale(1 -1)"/>
<path opacity=".3" fill="url(#linearGradient3780)" d="m12-92h72a7,7 0 0,1 7,7v71a7,7 0 0,1 -7,7h-72a7,7 0 0,1 -7-7v-71a7,7 0 0,1 7-7" transform="scale(1 -1)"/>
<path opacity=".45" fill="url(#linearGradient3721)" d="m12-91h72a6,6 0 0,1 6,6v72a6,6 0 0,1 -6,6h-72a6,6 0 0,1 -6-6v-72a6,6 0 0,1 6-6" transform="scale(1 -1)"/>
<g opacity=".98">
<path fill="url(#linearGradient3642)" d="m15.4634,10.0406h65.0732a5.4228,5.4228 0 0,1 5.4228,5.4228v65.0732a5.4228,5.4228 0 0,1 -5.4228,5.4228h-65.0732a5.4228,5.4228 0 0,1 -5.4228-5.4228v-65.0732a5.4228,5.4228 0 0,1 5.4228-5.4228"/>
<path opacity=".2" fill="url(#linearGradient3765)" d="m21,13.7995 0,42.2005h1v-42.2005h-1zm3,0 0,42.2005 1,0 0-42.2005-1,0zm3,0 0,42.2005 1,0 0-42.2005-1,0zm3,0 0,42.2005 1,0 0-42.2005-1,0zm3,0 0,42.2005 1,0 0-42.2005-1,0zm3,0 0,42.2005 1,0 0-42.2005-1,0zm3,0 0,42.2005 1,0 0-42.2005-1,0zm3,0 0,42.2005 1,0 0-42.2005-1,0zm3,0 0,42.2005 1,0 0-42.2005-1,0zm3,0 0,42.2005 1,0 0-42.2005-1,0zm3,0 0,42.2005 1,0 0-42.2005-1,0zm3,0 0,42.2005 1,0 0-42.2005-1,0zm3,0 0,42.2005 1,0 0-42.2005-1,0zm3,0 0,42.2005 1,0 0-42.2005-1,0zm3,0 0,42.2005 1,0 0-42.2005-1,0zm3,0 0,42.2005 1,0 0-42.2005-1,0zm3,0 0,42.2005 1,0 0-42.2005-1,0zm3,0 0,42.2005 1,0 0-42.2005-1,0zm3,0 0,42.2005 1,0 0-42.2005-1,0z"/>
<path opacity=".1" fill="url(#linearGradient4039)" d="m19,14 0,42 1,0 0-42-1,0zm3,0 0,42 1,0 0-42-1,0zm3,0 0,42 1,0 0-42-1,0zm3,0 0,42 1,0 0-42-1,0zm3,0 0,42 1,0 0-42-1,0zm3,0 0,42 1,0 0-42-1,0zm3,0 0,42 1,0 0-42-1,0zm3,0 0,42 1,0 0-42-1,0zm3,0 0,42 1,0 0-42-1,0zm3,0 0,42 1,0 0-42-1,0zm3,0 0,42 1,0 0-42-1,0zm3,0 0,42 1,0 0-42-1,0zm3,0 0,42 1,0 0-42-1,0zm3,0 0,42 1,0 0-42-1,0zm3,0 0,42 1,0 0-42-1,0zm3,0 0,42 1,0 0-42-1,0zm3,0 0,42 1,0 0-42-1,0zm3,0 0,42 1,0 0-42-1,0zm3,0 0,42 1,0 0-42-1,0zm3,0 0,42 1,0 0-42-1,0z"/>
<g fill="#111">
<path d="m15,48h66v1h-66z"/>
<path d="m44,49h8v4h-8z"/>
</g>
<path fill="url(#linearGradient4192)" d="m112,6h72a6,6 0 0,1 6,6v72a6,6 0 0,1 -6,6h-72a6,6 0 0,1 -6-6v-72a6,6 0 0,1 6-6"/>
<path d="m21.5,16h53a.5,.5 0 0,1 .5,.5 .5,.5 0 0,1 -.5,.5h-53a.5,.5 0 0,1 -.5-.5 .5,.5 0 0,1 .5-.5"/>
</g>
<path opacity=".1" fill="url(#linearGradient3613)" filter="url(#filter3794)" stroke="#fff" stroke-linecap="round" stroke-width=".5" d="m27,15h42a12,12 0 0,1 12,12v42a12,12 0 0,1 -12,12h-42a12,12 0 0,1 -12-12v-42a12,12 0 0,1 12-12" clip-path="url(#clipPath3613)"/>
<path opacity=".7" fill="none" filter="url(#filter4143)" stroke="#000" stroke-width="2" d="m20.1429,18h55.7142a2.1429,2 0 0,1 2.1429,2v76a2.1429,2 0 0,1 -2.1429,2h-55.7142a2.1429,2 0 0,1 -2.1429-2v-76a2.1429,2 0 0,1 2.1429-2" clip-path="url(#clipPath3782)" transform="translate(0 -4)"/>
<path fill="url(#linearGradient3251)" d="m12,6c-3.324,0-6,2.676-6,6v38 24c0,3.324 2.676,6 6,6h72c3.324,0 6-2.676 6-6v-24-38c0-3.324-2.676-6-6-6h-72zm8.1562,8 55.6875,0c1.1871,0 2.1562,.892 2.1562,2v32l-2,2v6 6h-56v-6-6l-2-2v-32c0-1.108 .9691-2 2.1562-2z"/>
<path opacity=".98" fill="url(#linearGradient3254)" d="m6,50 0,24c0,3.324 2.676,6 6,6h72c3.324,0 6-2.676 6-6v-24c0,3.324-2.676,6-6,6h-4-4v6h-56v-6h-4-4c-3.324,0-6-2.676-6-6z"/>
<path opacity=".5" fill="url(#linearGradient3188)" d="m12,6c-3.324,0-6,2.676-6,6v2 68 2c0,.3347 .0413,.6507 .0938,.9688 .0487,.2956 .097,.5969 .1875,.875 .0099,.0304 .0209,.0636 .0312,.0938 .0989,.2878 .2349,.5475 .375,.8125 .1446,.2735 .3156,.5356 .5,.7812 .1844,.2456 .3738,.4735 .5938,.6875 .4399,.4281 .9429,.8145 1.5,1.0938 .2785,.1396 .5735,.2469 .875,.3438-.2562-.1002-.4867-.2363-.7188-.375-.0074-.0044-.0239,.0045-.0312,0-.0319-.0193-.0623-.0425-.0938-.0625-.1204-.0767-.231-.1635-.3438-.25-.1062-.0808-.2133-.1611-.3125-.25-.1779-.1614-.3475-.3454-.5-.5312-.1076-.1303-.2184-.2653-.3125-.4062-.0251-.0384-.0384-.0859-.0625-.125-.0648-.103-.1302-.2045-.1875-.3125-.101-.1947-.2057-.4157-.2812-.625-.008-.0218-.0236-.0405-.0312-.0625-.0318-.0919-.0358-.1868-.0625-.2812-.0303-.1066-.0704-.203-.0938-.3125-.0729-.3415-.125-.6982-.125-1.0625v-2-68-2c0-2.7818 2.2182-5 5-5h2 68 2c2.7818,0 5,2.2182 5,5v2 68 2c0,.3643-.0521,.721-.125,1.0625-.0442,.2069-.0884,.3977-.1562,.5938-.0077,.022-.0233,.0407-.0312,.0625-.0627,.1737-.1384,.3674-.2188,.5312-.0416,.0828-.079,.17-.125,.25-.0546,.0972-.1268,.1883-.1875,.2812-.0941,.141-.2049,.276-.3125,.4062-.1432,.1744-.3031,.347-.4688,.5-.0112,.0102-.02,.0212-.0312,.0312-.1384,.1256-.2851,.2344-.4375,.3438-.1026,.0731-.2043,.1534-.3125,.2188-.0074,.0045-.0238-.0044-.0312,0-.232,.1387-.4625,.2748-.7188,.375 .3015-.0968 .5965-.2041 .875-.3438 .5571-.2792 1.0601-.6657 1.5-1.0938 .22-.214 .4094-.4419 .5938-.6875 .1844-.2456 .3554-.5077 .5-.7812 .1401-.265 .2761-.5247 .375-.8125 .0104-.0308 .0213-.0627 .0312-.0938 .0905-.2781 .1388-.5794 .1875-.875 .0524-.318 .0938-.634 .0938-.9688v-2-68-2c0-3.324-2.676-6-6-6h-72z"/>
<path opacity=".98" fill="#424242" d="m6,72 0,12c0,3.324 2.676,6 6,6h72c3.324,0 6-2.676 6-6v-12c0,3.324-2.676,6-6,6h-72c-3.324,0-6-2.676-6-6z"/>
<path opacity=".2" fill="url(#radialGradient3619)" d="m12,90c-3.324,0-6-2.676-6-6v-2-68-2c0-.3347 .0413-.6507 .0938-.9688 .0487-.2956 .097-.5969 .1875-.875 .0099-.0304 .0209-.0636 .0312-.0938 .0989-.2878 .2349-.5475 .375-.8125 .1446-.2735 .3156-.5356 .5-.7812 .1844-.2456 .3738-.4735 .5938-.6875 .4399-.4281 .9429-.8145 1.5-1.0938 .2785-.1396 .5735-.2469 .875-.3438-.2562,.1002-.4867,.2363-.7188,.375-.0074,.0044-.0239-.0045-.0312,0-.0319,.0193-.0623,.0425-.0938,.0625-.1204,.0767-.231,.1635-.3438,.25-.1062,.0808-.2133,.1611-.3125,.25-.1779,.1614-.3475,.3454-.5,.5312-.1076,.1303-.2184,.2653-.3125,.4062-.0251,.0384-.0384,.0859-.0625,.125-.0648,.103-.1302,.2045-.1875,.3125-.101,.1947-.2057,.4157-.2812,.625-.008,.0218-.0236,.0405-.0312,.0625-.0318,.092-.0358,.1868-.0625,.2812-.0303,.1066-.0704,.203-.0938,.3125-.0729,.3415-.125,.6982-.125,1.0625v2 68 2c0,2.7818 2.2182,5 5,5h2 68 2c2.7818,0 5-2.2182 5-5v-2-68-2c0-.3643-.0521-.721-.125-1.0625-.0442-.2069-.0884-.3977-.1562-.5938-.0077-.022-.0233-.0407-.0312-.0625-.0627-.1737-.1384-.3674-.2188-.5312-.0416-.0828-.079-.17-.125-.25-.0546-.0972-.1268-.1883-.1875-.2812-.0941-.141-.2049-.276-.3125-.4062-.1432-.1745-.3031-.347-.4688-.5-.0112-.0102-.02-.0211-.0312-.0312-.1384-.1256-.2851-.2344-.4375-.3438-.1026-.0732-.2043-.1534-.3125-.2188-.0074-.0045-.0238,.0044-.0312,0-.232-.1387-.4625-.2748-.7188-.375 .3015,.0968 .5965,.2041 .875,.3438 .5571,.2792 1.0601,.6657 1.5,1.0938 .22,.214 .4094,.4419 .5938,.6875 .1844,.2456 .3554,.5077 .5,.7812 .1401,.265 .2761,.5247 .375,.8125 .0104,.0308 .0213,.0627 .0312,.0938 .0905,.2781 .1388,.5794 .1875,.875 .0524,.318 .0938,.634 .0938,.9688v2 68 2c0,3.324-2.676,6-6,6h-72z"/>
<path opacity=".6" fill="#fff" d="m19.1562,13c-1.1871,0-2.1562,.892-2.1562,2v32l1,1v-32c0-1.108 .9691-2 2.1562-2h55.6875c1.1871,0 2.1562,.892 2.1562,2v32l1-1v-32c0-1.108-.9691-2-2.1562-2h-57.6875zm-.1562,36v6l-1,1h2v-6l-1-1zm58,0-1,1 0,6 2,0-1-1 0-6z"/>
<g fill="#666" line-height="125%" transform="translate(0 -1)">
<path d="m42.0748,10.0441 1.4943,0 0,.4203-.8872,0 0,.3416 .7578,0 0,.3949-.7578,0 0,.7992-.6071,0 0-1.9559"/>
<path d="m44.8446,11.6771-.6884,0l-.0947,.3229h-.6177l.7351-1.9559h.6591l.7351,1.9559h-.6324l-.0961-.3229m-.1267-.4229-.2161-.7031-.2148,.7031 .4309,0"/>
<path d="m45.7639,10.0441 1.6197,0 0,.4176-1.014,0 0,.3109 .9406,0 0,.3989-.9406,0 0,.3856 1.0433,0 0,.443-1.6491,0 0-1.9559"/>
<path d="m47.7438,10.0441 .5644,0 .7365,1.082 0-1.082 .5697,0 0,1.9559-.5697,0-.7325-1.074 0,1.074-.5684,0 0-1.9559"/>
<path d="m49.9693,10.0441 1.7104,0 0,.3909-1.0967,1.1447 1.1367,0 0,.4203-1.8559,0 0-.4056 1.0847-1.1327-.9793,0 0-.4176"/>
<path d="m53.1967,11.6771-.6884,0l-.0947,.3229h-.6177l.7351-1.9559h.6591l.7351,1.9559h-.6324l-.0961-.3229m-.1267-.4229-.2161-.7031-.2148,.7031 .4309,0"/>
</g>
<path opacity=".15" fill="url(#linearGradient4186)" d="m6,50 0,34c0,3.324 2.676,6 6,6h12v-34h-4-4-4c-3.324,0-6-2.676-6-6z"/>
<path fill="url(#linearGradient4088)" d="m20,62c0,5.54 12.488,10 28,10 15.512,0 28-4.46 28-10h-56z"/>
<path opacity=".15" fill="url(#linearGradient4188)" d="m90,50c0,3.324-2.676,6-6,6h-4-4-4v34h12c3.324,0 6-2.676 6-6v-34z"/>
<path opacity=".6" fill="url(#linearGradient3977)" d="m21,62.5357c0,2.2329 2.0623,4.2768 5.5,5.9375 6.264-2.5934 14.1517-4.6463 23.0625-5.9375h-28.5625z"/>
<path fill="url(#linearGradient4078)" d="m20,56 0,6c0,5.54 12.488,10 28,10 15.512,0 28-4.46 28-10v-6h-1v1 .4375 4.5625c0,1.0055-.5695,2.0455-1.8438,3.125-1.2742,1.0795-3.234,2.1237-5.6875,3-4.9071,1.7525-11.8096,2.875-19.4688,2.875-7.6592,0-14.5617-1.1225-19.4688-2.875-2.4535-.8763-4.4133-1.9205-5.6875-3-1.2742-1.0795-1.8438-2.1195-1.8438-3.125v-4.5625-.4375-1h-1z"/>
<path d="m21,61h54v1h-54z"/>
<path opacity=".4" fill="#fff" d="m19,56 0,7c0,5.54 12.934,10 29,10 16.066,0 29-4.46 29-10v-7h-1v6c0,5.54-12.488,10-28,10-15.512,0-28-4.46-28-10v-6h-1z"/>
<path opacity=".3" d="m6,71 0,2c0,3.324 2.676,6 6,6h72c3.324,0 6-2.676 6-6v-2c0,3.324-2.676,6-6,6h-72c-3.324,0-6-2.676-6-6z"/>
<path opacity=".5" fill="#fff" d="m6,49 0,1c0,3.324 2.676,6 6,6h8v-1h-8c-3.324,0-6-2.676-6-6zm84,0c0,3.324-2.676,6-6,6h-8v1h8c3.324,0 6-2.676 6-6v-1z"/>
<path fill="url(#radialGradient4115)" d="m20.1786,61.8857c0,.5761 .0665,1.1531 .1562,1.7143h55.6875c.0898-.5612 .1562-1.1382 .1562-1.7143h-56z"/>
<path opacity=".4" fill="#fff" d="m9,31h6a1,1 0 0,1 1,1v2a1,1 0 0,1 -1,1h-6a1,1 0 0,1 -1-1v-2a1,1 0 0,1 1-1"/>
<path fill="url(#radialGradient3886)" stroke="#008033" stroke-width=".5" d="m8.7857,30.25h6.4286a.5357,.4375 0 0,1 .5357,.4375v2.625a.5357,.4375 0 0,1 -.5357,.4375h-6.4286a.5357,.4375 0 0,1 -.5357-.4375v-2.625a.5357,.4375 0 0,1 .5357-.4375"/>
<path opacity=".184" d="m8.75,36c-.4155,0-.75,.3345-.75,.75v2.5c0,.4155 .3345,.75 .75,.75-.4155,0-.75,.3345-.75,.75v2.5c0,.4155 .3345,.75 .75,.75h2.5c.4155,0 .75-.3345 .75-.75 0,.4155 .3345,.75 .75,.75h2.5c.4155,0 .75-.3345 .75-.75v-2.5c0-.4155-.3345-.75-.75-.75 .4155,0 .75-.3345 .75-.75v-2.5c0-.4155-.3345-.75-.75-.75h-2.5c-.4155,0-.75,.3345-.75,.75 0-.4155-.3345-.75-.75-.75h-2.5zm3.25,3.25c0,.4155 .3345,.75 .75,.75-.4155,0-.75,.3345-.75,.75 0-.4155-.3345-.75-.75-.75 .4155,0 .75-.3345 .75-.75z"/>
<path fill="#fff" d="m-42.5,8h2a.5,.5 0 0,1 .5,.5v2a.5,.5 0 0,1 -.5,.5h-2a.5,.5 0 0,1 -.5-.5v-2a.5,.5 0 0,1 .5-.5" transform="matrix(0 -1 1 0 0 0)"/>
<g transform="matrix(.99998 0 0 1 -7.49968 -34.5)">
<path fill="url(#linearGradient3556)" d="m20.1786,85.0625a2.0893,2.0982 0 1,1 -4.1786,0 2.0893,2.0982 0 1,1 4.1786,0z" transform="matrix(0 1.67094 1.66383 0 -122.03844 53.28281)"/>
<path stroke-opacity=".532" fill="url(#radialGradient2984)" stroke="#000" stroke-linecap="square" stroke-width=".841" d="m20.1786,85.0625a2.0893,2.0982 0 1,1 -4.1786,0 2.0893,2.0982 0 1,1 4.1786,0z" transform="matrix(1.19231 0 0 1.18723 -2.07693 -17.48016)"/>
</g>
<path fill="#ff7600" d="m8,25h1v1h-1z"/>
<g fill="#4d4d4d" line-height="125%" transform="translate(0 -26)">
<path d="m10.6382,52-.3938-.696c.0021,.0188 .0041,.0376 .0058,.0564 .0017,.0162 .003,.0338 .0038,.0526 .0013,.0188 .0019,.0368 .0019,.0539v.533h-.1681v-.9038h.2162l.3996,.7017c-.0021-.018-.0041-.0368-.0058-.0564-.0017-.0167-.0032-.0355-.0045-.0564-.0009-.0209-.0013-.0421-.0013-.0635v-.5253h.1681v.9038h-.2219"/>
<path d="m11.3252,52.0128c-.05,0-.0952-.0073-.1353-.0218-.0398-.015-.0738-.0374-.102-.0673-.0282-.0304-.0498-.0682-.0648-.1135-.015-.0458-.0224-.0992-.0224-.1604 0-.0663 .0088-.1221 .0263-.1674 .018-.0453 .0419-.0819 .0718-.1097 .0304-.0282 .0652-.0485 .1046-.0609 .0393-.0124 .0808-.0186 .1244-.0186 .0547,0 .1013,.0096 .1398,.0289 .0389,.0188 .0708,.0453 .0956,.0795 .0248,.0342 .043,.0753 .0545,.1232 .0115,.0475 .0173,.1001 .0173,.1578v.0051h-.4452c0,.0291 .0026,.0562 .0077,.0815 .0051,.0248 .0135,.0464 .025,.0648 .0115,.018 .0265,.0323 .0449,.043 .0184,.0103 .0406,.0154 .0667,.0154 .0316,0 .0575-.0066 .0776-.0199 .0201-.0137 .0344-.0346 .043-.0629l.17,.0147c-.0077,.0197-.0186,.0406-.0327,.0629-.0137,.0222-.0321,.0428-.0552,.0616-.0231,.0184-.052,.0338-.0866,.0462-.0342,.012-.0759,.018-.1251,.018m0-.6062c-.0184,0-.0357,.0032-.052,.0096-.0158,.006-.0297,.0158-.0417,.0295-.0115,.0133-.0209,.0306-.0282,.052-.0073,.0214-.0113,.047-.0122,.077h.2694c-.0034-.056-.0169-.0979-.0404-.1257-.0235-.0282-.0552-.0423-.0949-.0423"/>
<path d="m11.95,52.0115c-.053,0-.0939-.0143-.1225-.043-.0287-.0291-.043-.0729-.043-.1315v-.4092h-.0879v-.1219h.0969l.0564-.1629h.1129v.1629h.1315v.1219h-.1315v.3605c0,.0338 .0064,.0588 .0192,.075 .0128,.0158 .0327,.0237 .0596,.0237 .0111,0 .0212-.0009 .0302-.0026 .009-.0017 .019-.0038 .0302-.0064v.1116c-.0222,.0073-.0458,.0126-.0706,.016-.0248,.0038-.052,.0058-.0815,.0058"/>
<path d="m12.9615,52-.1905,0-.1103-.4234c-.0034-.0133-.0068-.028-.0103-.0443-.0034-.0167-.0066-.0323-.0096-.0468l-.0103-.0513c-.0038,.0171-.0077,.0342-.0115,.0513-.0034,.0145-.0071,.0301-.0109,.0468-.0038,.0167-.0075,.0319-.0109,.0455l-.1116,.4221h-.1905l-.1796-.694h.1693l.0879,.408c.0026,.0115 .0053,.0246 .0083,.0391 .003,.0141 .0058,.0274 .0083,.0398 .003,.0145 .0062,.0291 .0096,.0436 .003-.0162 .006-.0321 .009-.0475 .0026-.0133 .0053-.0267 .0083-.0404 .003-.0137 .0056-.0252 .0077-.0346l.109-.408h.1931l.1065,.408c.003,.0111 .006,.0237 .009,.0378 .003,.0141 .0058,.0274 .0083,.0398 .003,.0145 .006,.0295 .009,.0449 .0034-.0154 .0066-.0304 .0096-.0449 .0026-.0124 .0053-.0257 .0083-.0398 .003-.0141 .0058-.0267 .0083-.0378l.0917-.408h.1668l-.182,.694"/>
<path d="m13.8916,51.6523c-0,.053-.0075,.1016-.0224,.1456-.0145,.044-.0366,.0821-.0661,.1142-.0295,.0316-.0663,.0564-.1103,.0744-.0441,.0175-.0954,.0263-.1539,.0263-.0564,0-.1063-.0088-.1495-.0263-.0432-.0175-.0795-.0421-.109-.0738-.0291-.0316-.0511-.0695-.0661-.1135-.015-.0445-.0224-.0934-.0224-.1469 0-.0517 .0071-.0994 .0212-.143 .0145-.044 .0364-.0821 .0654-.1142 .0291-.0321 .0656-.0571 .1097-.075 .0441-.018 .0956-.0269 .1546-.0269 .0624,0 .1157,.009 .1597,.0269 .0441,.018 .08,.043 .1078,.075 .0282,.0316 .0488,.0695 .0616,.1135 .0133,.0436 .0199,.0915 .0199,.1437m-.1886,0c-0-.0825-.0135-.1424-.0404-.1796-.0269-.0372-.0661-.0558-.1174-.0558-.053,0-.0937,.0188-.1219,.0564-.0282,.0376-.0423,.0973-.0423,.179-0,.0415 .0036,.0772 .0109,.1071 .0077,.0299 .0184,.0545 .0321,.0738 .0137,.0192 .0302,.0336 .0494,.043 .0192,.009 .0404,.0135 .0635,.0135 .0265,0 .05-.0045 .0706-.0135 .0209-.0094 .0385-.0237 .0526-.043 .0141-.0192 .0248-.0438 .0321-.0738 .0073-.0299 .0109-.0656 .0109-.1071"/>
<path d="m14.0353,52 0-.5311c0-.015-.0002-.0308-.0006-.0475 0-.0167-.0004-.0325-.0013-.0475-.0004-.0154-.0009-.0291-.0013-.041-.0004-.0124-.0011-.0214-.0019-.0269h.1719c.0009,.0051 .0017,.0141 .0026,.0269 .0009,.0124 .0017,.0261 .0026,.041 .0009,.015 .0015,.0299 .0019,.0449 .0009,.0145 .0013,.0263 .0013,.0353h.0026c.009-.0252 .018-.0477 .0269-.0673 .009-.0201 .0195-.037 .0314-.0507 .0124-.0141 .0272-.0248 .0443-.0321 .0171-.0077 .0383-.0115 .0635-.0115 .0107,0 .0212,.0011 .0314,.0032 .0107,.0017 .0188,.0038 .0244,.0064v.1507c-.0115-.0026-.0233-.0047-.0353-.0064-.0115-.0021-.0254-.0032-.0417-.0032-.0449,0-.08,.0182-.1052,.0545-.0248,.0363-.0372,.0902-.0372,.1616v.3406h-.1802"/>
<path d="m14.9892,52-.1854-.3143-.0776,.0539 0,.2604-.1802,0 0-.9519 .1802,0 0,.5452 .2476-.2874 .1937,0-.2437,.2707l.2623,.4234h-.1969"/>
</g>
<path fill="#f00" d="m8,27h1v1h-1z"/>
<g fill="#4d4d4d" line-height="125%" transform="translate(0 -26)">
<path d="m10.0879,54 0-.9038 .7107,0 0,.1462-.5215,0 0,.2271 .4824,0 0,.1462-.4824,0 0,.238 .5478,0 0,.1462-.737,0"/>
<path d="m10.9692,54 0-.5311c0-.015-.0002-.0308-.0006-.0475 0-.0167-.0004-.0325-.0013-.0475-.0004-.0154-.0009-.0291-.0013-.041-.0004-.0124-.0011-.0214-.0019-.0269h.1719c.0009,.0051 .0017,.0141 .0026,.0269 .0009,.0124 .0017,.0261 .0026,.041 .0009,.015 .0015,.0299 .0019,.0449 .0009,.0145 .0013,.0263 .0013,.0353h.0026c.009-.0252 .018-.0477 .0269-.0673 .009-.0201 .0195-.037 .0314-.0507 .0124-.0141 .0272-.0248 .0443-.0321 .0171-.0077 .0383-.0115 .0635-.0115 .0107,0 .0212,.0011 .0314,.0032 .0107,.0017 .0188,.0038 .0244,.0064v.1507c-.0115-.0026-.0233-.0047-.0353-.0064-.0115-.0021-.0254-.0032-.0417-.0032-.0449,0-.08,.0182-.1052,.0545-.0248,.0363-.0372,.0902-.0372,.1616v.3406h-.1802"/>
<path d="m11.4798,54 0-.5311c0-.015-.0002-.0308-.0006-.0475 0-.0167-.0004-.0325-.0013-.0475-.0004-.0154-.0009-.0291-.0013-.041-.0004-.0124-.0011-.0214-.0019-.0269h.1719c.0009,.0051 .0017,.0141 .0026,.0269 .0009,.0124 .0017,.0261 .0026,.041 .0009,.015 .0015,.0299 .0019,.0449 .0009,.0145 .0013,.0263 .0013,.0353h.0026c.009-.0252 .018-.0477 .0269-.0673 .009-.0201 .0195-.037 .0314-.0507 .0124-.0141 .0272-.0248 .0443-.0321 .0171-.0077 .0383-.0115 .0635-.0115 .0107,0 .0212,.0011 .0314,.0032 .0107,.0017 .0188,.0038 .0244,.0064v.1507c-.0115-.0026-.0233-.0047-.0353-.0064-.0115-.0021-.0254-.0032-.0417-.0032-.0449,0-.08,.0182-.1052,.0545-.0248,.0363-.0372,.0902-.0372,.1616v.3406h-.1802"/>
<path d="m12.6498,53.6523c-0,.053-.0075,.1016-.0224,.1456-.0145,.044-.0366,.0821-.0661,.1142-.0295,.0316-.0663,.0564-.1103,.0744-.0441,.0175-.0954,.0263-.1539,.0263-.0564,0-.1063-.0088-.1495-.0263-.0432-.0175-.0795-.0421-.109-.0738-.0291-.0316-.0511-.0695-.0661-.1135-.015-.0445-.0224-.0934-.0224-.1469-0-.0517 .0071-.0994 .0212-.143 .0145-.044 .0364-.0821 .0654-.1142 .0291-.0321 .0656-.0571 .1097-.075 .0441-.018 .0956-.0269 .1546-.0269 .0624,0 .1157,.009 .1597,.0269 .0441,.018 .08,.043 .1078,.075 .0282,.0316 .0488,.0695 .0616,.1135 .0133,.0436 .0199,.0915 .0199,.1437m-.1886,0c-0-.0825-.0135-.1424-.0404-.1796-.0269-.0372-.0661-.0558-.1174-.0558-.053,0-.0937,.0188-.1219,.0564-.0282,.0376-.0423,.0973-.0423,.179-0,.0415 .0036,.0772 .0109,.1071 .0077,.0299 .0184,.0545 .0321,.0738 .0137,.0192 .0302,.0336 .0494,.043 .0192,.009 .0404,.0135 .0635,.0135 .0265,0 .05-.0045 .0706-.0135 .0209-.0094 .0385-.0237 .0526-.043 .0141-.0192 .0248-.0438 .0321-.0738 .0073-.0299 .0109-.0656 .0109-.1071"/>
<path d="m12.7935,54 0-.5311c0-.015-.0002-.0308-.0006-.0475 0-.0167-.0004-.0325-.0013-.0475-.0004-.0154-.0009-.0291-.0013-.041-.0004-.0124-.0011-.0214-.0019-.0269h.1719c.0009,.0051 .0017,.0141 .0026,.0269 .0009,.0124 .0017,.0261 .0026,.041 .0009,.015 .0015,.0299 .0019,.0449 .0009,.0145 .0013,.0263 .0013,.0353h.0026c.009-.0252 .018-.0477 .0269-.0673 .009-.0201 .0195-.037 .0314-.0507 .0124-.0141 .0272-.0248 .0443-.0321 .0171-.0077 .0383-.0115 .0635-.0115 .0107,0 .0212,.0011 .0314,.0032 .0107,.0017 .0188,.0038 .0244,.0064v.1507c-.0115-.0026-.0233-.0047-.0353-.0064-.0115-.0021-.0254-.0032-.0417-.0032-.0449,0-.08,.0182-.1052,.0545-.0248,.0363-.0372,.0902-.0372,.1616v.3406h-.1802"/>
</g>
<path fill="#ff7600" d="m8,23h1v1h-1z"/>
<g fill="#4d4d4d" line-height="125%" transform="translate(0 -26)">
<path d="m10.8313,49.3823c-0,.0389-.0066,.0765-.0199,.1129-.0128,.0359-.0327,.0678-.0596,.0956-.0269,.0278-.0611,.05-.1026,.0667-.0415,.0162-.0907,.0244-.1475,.0244h-.2245v.3182h-.1892v-.9038h.406c.0577,0 .1078,.0071 .1501,.0212 .0423,.0137 .0774,.0331 .1052,.0584 .0278,.0252 .0483,.0554 .0616,.0904 .0137,.0351 .0205,.0738 .0205,.1161m-.1905,.0032c-0-.0466-.0141-.0819-.0423-.1058-.0278-.0244-.0697-.0366-.1257-.0366h-.1956v.2931h.2008c.0282,0 .0524-.0036 .0725-.0109 .0205-.0073 .0374-.0175 .0507-.0308 .0137-.0133 .0237-.0291 .0302-.0475 .0064-.0188 .0096-.0393 .0096-.0616"/>
<path d="m11.6286,49.6523c-0,.053-.0075,.1016-.0224,.1456-.0145,.044-.0366,.0821-.0661,.1142-.0295,.0316-.0663,.0564-.1103,.0744-.0441,.0175-.0954,.0263-.1539,.0263-.0564,0-.1063-.0088-.1495-.0263-.0432-.0175-.0795-.0421-.109-.0738-.0291-.0316-.0511-.0695-.0661-.1135-.015-.0445-.0224-.0934-.0224-.1469 0-.0517 .0071-.0994 .0212-.143 .0145-.044 .0364-.0821 .0654-.1142 .0291-.0321 .0656-.0571 .1097-.075 .0441-.018 .0956-.0269 .1546-.0269 .0624,0 .1157,.009 .1597,.0269 .0441,.018 .08,.043 .1078,.075 .0282,.0316 .0488,.0695 .0616,.1135 .0133,.0436 .0199,.0915 .0199,.1437m-.1886,0c0-.0825-.0135-.1424-.0404-.1796-.0269-.0372-.0661-.0558-.1174-.0558-.053,0-.0937,.0188-.1219,.0564-.0282,.0376-.0423,.0973-.0423,.179 0,.0415 .0036,.0772 .0109,.1071 .0077,.0299 .0184,.0545 .0321,.0738 .0137,.0192 .0302,.0336 .0494,.043 .0192,.009 .0404,.0135 .0635,.0135 .0265,0 .05-.0045 .0706-.0135 .0209-.0094 .0385-.0237 .0526-.043 .0141-.0192 .0248-.0438 .0321-.0738 .0073-.0299 .0109-.0656 .0109-.1071"/>
<path d="m12.5228,50-.1905,0-.1103-.4234c-.0034-.0133-.0068-.028-.0103-.0443-.0034-.0167-.0066-.0323-.0096-.0468l-.0103-.0513c-.0038,.0171-.0077,.0342-.0115,.0513-.0034,.0145-.0071,.0301-.0109,.0468-.0038,.0167-.0075,.0319-.0109,.0455l-.1116,.4221h-.1905l-.1796-.694h.1693l.0879,.408c.0026,.0115 .0053,.0246 .0083,.0391 .003,.0141 .0058,.0274 .0083,.0398 .003,.0145 .0062,.0291 .0096,.0436 .003-.0162 .006-.0321 .009-.0475 .0026-.0133 .0053-.0267 .0083-.0404 .003-.0137 .0056-.0252 .0077-.0346l.109-.408h.1931l.1065,.408c.003,.0111 .006,.0237 .009,.0378 .003,.0141 .0058,.0274 .0083,.0398 .003,.0145 .006,.0295 .009,.0449 .0034-.0154 .0066-.0304 .0096-.0449 .0026-.0124 .0053-.0257 .0083-.0398 .003-.0141 .0058-.0267 .0083-.0378l.0917-.408h.1668l-.182,.694"/>
<path d="m13.0776,50.0128c-.05,0-.0952-.0073-.1353-.0218-.0398-.015-.0738-.0374-.102-.0673-.0282-.0304-.0498-.0682-.0648-.1135-.015-.0458-.0224-.0992-.0224-.1604 0-.0663 .0088-.1221 .0263-.1674 .018-.0453 .0419-.0819 .0718-.1097 .0304-.0282 .0652-.0485 .1046-.0609 .0393-.0124 .0808-.0186 .1244-.0186 .0547,0 .1013,.0096 .1398,.0289 .0389,.0188 .0708,.0453 .0956,.0795 .0248,.0342 .043,.0753 .0545,.1232 .0115,.0475 .0173,.1001 .0173,.1578v.0051h-.4452c-0,.0291 .0026,.0562 .0077,.0815 .0051,.0248 .0135,.0464 .025,.0648 .0115,.018 .0265,.0323 .0449,.043 .0184,.0103 .0406,.0154 .0667,.0154 .0316,0 .0575-.0066 .0776-.0199 .0201-.0137 .0344-.0346 .043-.0629l.17,.0147c-.0077,.0197-.0186,.0406-.0327,.0629-.0137,.0222-.0321,.0428-.0552,.0616-.0231,.0184-.052,.0338-.0866,.0462-.0342,.012-.0759,.018-.1251,.018m0-.6062c-.0184,0-.0357,.0032-.052,.0096-.0158,.006-.0297,.0158-.0417,.0295-.0115,.0133-.0209,.0306-.0282,.052-.0073,.0214-.0113,.047-.0122,.077h.2694c-.0034-.056-.0169-.0979-.0404-.1257-.0235-.0282-.0552-.0423-.0949-.0423"/>
<path d="m13.5247,50 0-.5311c0-.015-.0002-.0308-.0006-.0475 0-.0167-.0004-.0325-.0013-.0475-.0004-.0154-.0009-.0291-.0013-.041-.0004-.0124-.0011-.0214-.0019-.0269h.1719c.0009,.0051 .0017,.0141 .0026,.0269 .0009,.0124 .0017,.0261 .0026,.041 .0009,.015 .0015,.0299 .0019,.0449 .0009,.0145 .0013,.0263 .0013,.0353h.0026c.009-.0252 .018-.0477 .0269-.0673 .009-.0201 .0195-.037 .0314-.0507 .0124-.0141 .0272-.0248 .0443-.0321 .0171-.0077 .0383-.0115 .0635-.0115 .0107,0 .0212,.0011 .0314,.0032 .0107,.0017 .0188,.0038 .0244,.0064v.1507c-.0115-.0026-.0233-.0047-.0353-.0064-.0115-.0021-.0254-.0032-.0417-.0032-.0449,0-.08,.0182-.1052,.0545-.0248,.0363-.0372,.0902-.0372,.1616v.3406h-.1802"/>
</g>
<g fill="#fff">
<path d="m-42.5,12h2a.5,.5 0 0,1 .5,.5v2a.5,.5 0 0,1 -.5,.5h-2a.5,.5 0 0,1 -.5-.5v-2a.5,.5 0 0,1 .5-.5" transform="matrix(0 -1 1 0 0 0)"/>
<path d="m-38.5,8h2a.5,.5 0 0,1 .5,.5v2a.5,.5 0 0,1 -.5,.5h-2a.5,.5 0 0,1 -.5-.5v-2a.5,.5 0 0,1 .5-.5" transform="matrix(0 -1 1 0 0 0)"/>
<path d="m-38.5,12h2a.5,.5 0 0,1 .5,.5v2a.5,.5 0 0,1 -.5,.5h-2a.5,.5 0 0,1 -.5-.5v-2a.5,.5 0 0,1 .5-.5" transform="matrix(0 -1 1 0 0 0)"/>
</g>
<g fill-rule="evenodd">
<path opacity=".05" d="m60.9688,10.125c-5.7915,.0397-11.4911,2.3517-15.6875,6.375-8.3105-2.7412-18.2942-2.4775-25.3438,3.5a1.0217,1.0217 0 0,0 -.0625,.0312c-.8897,.8534-2.238,1.9709-3.2188,3.3438-.9808,1.3729-1.5823,3.2542-.625,5.0625a1.0217,1.0217 0 0,0 .25,.3125c.7642,.6286 1.6673,.8971 2.5,.875 .8327-.0221 1.5872-.2753 2.2812-.5938 1.388-.6368 2.665-1.4757 3.5625-1.6875a1.0217,1.0217 0 0,0 .1562-.0625c6.7153-2.8756 14.7786-3.0848 21.0938,.6562l.0312-.0312c.9498,.6861 2.1405,.7355 3.0312,.3125 .8662-.4114 1.5067-1.1557 1.9062-2l.0312,.0312c3.7705-5.2335 10.3937-7.6119 16.8125-7.7812 1.9565,.3702 3.7225-.7166 4.4062-2.2188 .3603-.7915 .4364-1.7569 .0625-2.625-.3626-.842-1.1501-1.5109-2.2188-1.875-.0306-.0138-.0631-.0176-.0938-.0312-2.8417-1.2619-5.9268-1.5987-8.875-1.5938zm9.25,14.7812c-9.5737-.0403-19.2982,4.0391-25.2812,11.75-10.5691-2.65-22.4082-.5302-30.8125,6.6562a1.0217,1.0217 0 0,0 -.0312,0c-2.7108,2.3893-5.5819,5.1823-6.9688,8.875a1.0217,1.0217 0 0,0 -.0625,.2812c-.0755,1.1645 .2522,2.1727 .9375,2.8125 .6853,.6398 1.5716,.7932 2.4062,.75 1.6048-.0831 3.1685-.8321 4.2812-1.75 .0447-.0369 .1131-.0564 .1562-.0938 8.2992-4.654 18.2247-7.6406 27.4375-4.9375a1.0217,1.0217 0 0,0 .1562,.0312c.7926,.0904 1.7004,.5467 2.7188,1.0312 1.0184,.4846 2.2229,1.0077 3.625,.8125a1.0217,1.0217 0 0,0 .3125-.0938c1.2022-.6001 1.8078-1.6719 2.2812-2.5938 .4735-.9219 .8576-1.7443 1.375-2.25a1.0217,1.0217 0 0,0 .125-.125c5.166-7.2761 13.8676-11.2139 22.5938-12.875v-.0625c1.8414,.1477 3.5796-.696 4.5625-2.0625 .5236-.728 .8584-1.6692 .625-2.625-.2334-.9558-.9966-1.7615-2.125-2.2812a1.0217,1.0217 0 0,0 -.0938-.0312c-2.6894-1.0106-5.5218-1.1971-8.2188-1.2188z" transform="translate(0 8)"/>
<path opacity=".1" d="m60.9688,19.1562c-5.7211,.0392-11.4104,2.354-15.4375,6.4375-8.1584-2.8552-18.0784-2.6085-24.9282,3.1997-1.864,1.7878-5.1739,4.3261-3.6655,7.1753 2.3701,1.9495 5.0334-1.0446 7.4471-1.6141 6.9703-2.9848 15.3537-3.2324 22.009,.7101 1.3453,1.1043 3.0759-.0353 3.6441-1.4178 4.0141-5.5715 10.9658-8.0339 17.6186-8.2095 3.1929,.8628 5.5105-3.5972 1.875-4.75-2.6691-1.2068-5.661-1.5362-8.5625-1.5312zm9.25,14.7812c-9.495-.0399-19.1911,4.0598-24.9062,11.8125-10.4181-2.8196-22.2391-.7259-30.5238,6.3583-2.6827,2.3645-5.4274,5.0049-6.7082,8.4152-.2521,3.8889 4.2667,2.4607 6.1007,.8707 8.4696-4.7825 18.7171-7.9492 28.3733-5.116 2.1191,.2417 3.932,2.1446 6.0706,1.8469 1.7801-.8886 2.0016-3.2725 3.4191-4.658 5.3781-7.5749 14.3436-11.5866 23.2371-13.2795 2.9752,.4738 6.5854-3.3725 2.8153-5.1089-2.5049-.9413-5.225-1.1198-7.8778-1.1411z"/>
<path opacity=".15" d="m60.9688,12.0938c-4.7087,.0511-10.5124,1.5868-15.1875,6.5-9.4935-3.3234-16.7298-1.8366-21.4375,.7812-2.4082,1.3392-4.1705,2.9502-5.3125,4.2812-.571,.6655-.9745,1.2459-1.25,1.75-.1378,.252-.2406,.469-.3125,.7188-.0359,.1249-.0608,.253-.0625,.4375-.0017,.1845-.0053,.4839 .25,.7812 .2505,.2917 .6059,.3915 .8125,.4062 .2066,.0147 .3408-.0333 .4688-.0625 .2559-.0585 .4618-.1417 .7188-.25 .514-.2166 1.1744-.5385 1.9688-.9062 1.5888-.7354 3.7456-1.6677 6.3438-2.375 5.1962-1.4145 12.0252-1.8842 19.2188,2.2812a1.0136,1.0136 0 0,0 1.3438-.3125c3.9516-5.8325 9.2506-8.0163 13.5938-8.9375 2.1716-.4606 4.0944-.5866 5.4688-.6875 .6872-.0505 1.2195-.0929 1.6875-.1875 .234-.0473 .4607-.0713 .7812-.3125 .1603-.1206 .3587-.3203 .4375-.625 .0788-.3047-.0017-.6208-.0938-.8125-.1831-.3817-.3894-.5137-.5938-.6562-.2044-.1425-.4257-.2525-.6875-.375-.5235-.2449-1.1965-.5019-2-.7188-1.6071-.4336-3.7281-.7451-6.1562-.7188zm9.25,14.7812c-7.1318,.0117-17.6248,2.3338-24.5625,11.9062-12.0532-3.2147-21.4073-.0953-27.5625,4.0312-3.1371,2.1032-5.4572,4.4469-6.9688,6.3438-.7558,.9484-1.2992,1.7695-1.6562,2.4375-.1785,.334-.3191,.6141-.4062,.9062-.0436,.1461-.0891,.2972-.0938,.5-.0047,.2028 .0176,.5488 .3438,.875 .3004,.3004 .6604,.3496 .875,.3438 .2146-.0058 .3555-.0485 .5-.0938 .289-.0906 .5788-.2429 .9062-.4062 .6549-.3268 1.4874-.7803 2.5312-1.3438 2.0877-1.1269 4.9587-2.5968 8.375-3.8125 6.8326-2.4315 15.7794-3.8418 25.0625,.625a1.0136,1.0136 0 0,0 1.3438-.4375c4.7226-8.8785 12.1146-13.0809 18.3125-15.3125 3.099-1.1158 5.887-1.726 7.875-2.1562 .994-.2151 1.7723-.3992 2.375-.5938 .3013-.0973 .5692-.1638 .875-.4062 .1529-.1212 .3408-.3046 .4375-.625 .0967-.3204 .0071-.7087-.125-.9375-.3822-.662-.7489-.6939-1.2188-.875-.4699-.1811-1.0483-.3563-1.75-.5-1.4034-.2874-3.2843-.4723-5.4688-.4688z" transform="translate(0 8)"/>
<path opacity=".3" d="m60.9688,21.0938c-4.6524,.0505-10.3769,1.5375-14.9062,6.5938-19.1541-7.0882-28.2153,6.3125-27.625,7 .6729,.7837 14.3215-9.7694 29.25-1.125 8.2484-12.1743 22.4427-9.2491 21.8125-10.5625-.2837-.5912-3.8789-1.9568-8.5312-1.9062zm9.25,14.7812c-7.0613,.0115-17.4641,2.2972-24.1562,12.0312-24.2176-6.8978-36.8227,12.4585-36.0312,13.25 .9022,.9022 18.7938-14.1016 37.9688-4.875 9.734-18.3 30.682-17.5024 29.7812-19.0625-.3041-.5267-3.3257-1.3507-7.5625-1.3438z"/>
<path fill="url(#radialGradient3787)" d="m10.0373,60.1598c-.7915-.7915 11.7983-20.1361 36.0159-13.2383 10.7074-15.5744 30.922-12.112 31.7329-10.7074 .9007,1.5601-20.0521,.7787-29.7861,19.0787-19.1749-9.2266-37.0605,5.7692-37.9627,4.867z"/>
<path fill="url(#radialGradient3789)" d="m18.4326,33.696c-.5903-.6875 8.4764-14.1063 27.6305-7.0181 9.0586-10.1125 22.8552-5.8496 23.4226-4.6671 .6302,1.3134-13.5431-1.6158-21.7915,10.5585-14.9285-8.6444-28.5887,1.9104-29.2616,1.1267z"/>
<g fill="#fff">
<path d="m60.9688,20.0938c-4.6524,.0505-10.3769,1.5375-14.9062,6.5938-19.1541-7.0882-28.2153,6.3125-27.625,7 .047,.0547 .1743,.0454 .3438,0 1.8732-3.1304 10.8723-12.0724 27.2812-6 7.8368-8.7485 19.2045-6.7484 22.5-5.2812 .6659-.0734 1.0462-.1797 .9375-.4062-.2837-.5912-3.8789-1.9568-8.5312-1.9062z"/>
<path d="m70.2188,34.875c-7.0613,.0115-17.4641,2.2972-24.1562,12.0312-24.2176-6.8978-36.8227,12.4585-36.0312,13.25 .1891,.1891 1.276-.4119 2.8125-1.25 4.2573-5.4263 15.9066-15.2158 34.2188-10 8.229-11.9695 22.0388-12.693 28.375-11.75 1.6164-.3546 2.5453-.5884 2.3438-.9375-.3041-.5267-3.3257-1.3507-7.5625-1.3438z"/>
<path opacity=".5" d="m77,35.7812c-3.8214,1.1401-20.5869,2.6834-29,18.5-18.124-8.7209-35.0884,4.1945-37.6562,4.875-.2847,.5482-.4071,.9054-.3125,1 .9022,.9022 18.7938-14.1016 37.9688-4.875 9.734-18.3 30.682-17.5024 29.7812-19.0625-.0769-.1332-.38-.2853-.7812-.4375z"/>
<path opacity=".3" d="m68.5625,21.4062c-3.1943,.352-14.0495,.082-20.875,10.1562-13.8866-8.0411-26.6471,.5202-28.9062,1.125-.3134,.5237-.4284,.9015-.3438,1 .6729,.7837 14.3215-9.7694 29.25-1.125 8.2484-12.1743 22.4427-9.2491 21.8125-10.5625-.0765-.1595-.4237-.365-.9375-.5938z"/>
</g>
</g>
</svg>
