<svg xmlns="http://www.w3.org/2000/svg" viewBox="0 0 96 96" xmlns:xlink="http://www.w3.org/1999/xlink">
<defs>
<clipPath id="clipPath3613">
<path fill="#fff" d="m12,6h72a6,6 0 0,1 6,6v72a6,6 0 0,1 -6,6h-72a6,6 0 0,1 -6-6v-72a6,6 0 0,1 6-6"/>
</clipPath>
<filter width="1.384" x="-.192" y="-.192" height="1.384" color-interpolation-filters="sRGB" id="filter3794">
<feGaussianBlur stdDeviation="5.28"/>
</filter>
<linearGradient gradientTransform="matrix(1.02381 0 0 1.0119 -1.14286 -98.07143)" id="linearGradient3780" xlink:href="#ButtonShadow-0" y1="6.132" y2="90.239" x2="0" gradientUnits="userSpaceOnUse"/>
<linearGradient id="linearGradient3269">
<stop offset="0" stop-color="#fff"/>
<stop offset="1" stop-color="#fff" stop-opacity="0"/>
</linearGradient>
<linearGradient gradientTransform="translate(0 -97)" id="linearGradient3721" xlink:href="#ButtonShadow-0" y1="6.132" y2="90.239" x2="0" gradientUnits="userSpaceOnUse"/>
<linearGradient id="linearGradient3421">
<stop offset="0" stop-color="#fe7600"/>
<stop offset="1" stop-color="#f2b26d"/>
</linearGradient>
<linearGradient gradientTransform="matrix(.31401 0 0 .31401 -68.83944 -118.95132)" id="linearGradient3847" xlink:href="#linearGradient3269" y1="468.587" x1="312.623" y2="471.181" x2="315.217" gradientUnits="userSpaceOnUse"/>
<linearGradient id="linearGradient3871" xlink:href="#linearGradient3865" x1="48.743" x2="86.437" gradientUnits="userSpaceOnUse"/>
<linearGradient gradientTransform="matrix(.31401 0 0 .31401 -69.66325 -106.20134)" id="linearGradient3851" xlink:href="#linearGradient3269" y1="468.587" x1="312.623" y2="471.181" x2="315.217" gradientUnits="userSpaceOnUse"/>
<linearGradient gradientTransform="matrix(.31401 0 0 .31401 8.60768 9.32429)" id="linearGradient3855" xlink:href="#linearGradient3421" y1="151.168" x1="136.328" y2="78.463" x2="117.661" gradientUnits="userSpaceOnUse"/>
<linearGradient gradientTransform="matrix(1.00587 0 0 .99417 100 0)" id="ButtonShadow-0" y1="92.54" y2="7.017" x2="0" gradientUnits="userSpaceOnUse">
<stop offset="0"/>
<stop offset="1" stop-opacity=".588"/>
</linearGradient>
<linearGradient id="linearGradient3865">
<stop offset="0" stop-color="#bddb4e"/>
<stop offset="1" stop-color="#52b124"/>
</linearGradient>
<linearGradient id="linearGradient3737">
<stop offset="0" stop-color="#fff"/>
<stop offset="1" stop-color="#fff" stop-opacity="0"/>
</linearGradient>
<linearGradient id="linearGradient3879" xlink:href="#linearGradient3865" x1="-19.14" x2="18.555" gradientUnits="userSpaceOnUse"/>
<linearGradient id="linearGradient3700">
<stop offset="0" stop-color="#33632b"/>
<stop offset="1" stop-color="#45843a"/>
</linearGradient>
<linearGradient id="linearGradient3188" xlink:href="#linearGradient3737" y1="6" y2="63.893" x2="0" gradientUnits="userSpaceOnUse"/>
<linearGradient id="linearGradient3617" xlink:href="#linearGradient3700" y1="90" y2="5.988" x2="0" gradientUnits="userSpaceOnUse"/>
<linearGradient id="linearGradient3613" xlink:href="#linearGradient3737" y1="20.221" y2="138.661" x2="0" gradientUnits="userSpaceOnUse"/>
<radialGradient cx="48" cy="90.172" gradientTransform="matrix(1.15731 0 0 .99591 -7.55102 .19713)" r="42" id="radialGradient3619" xlink:href="#linearGradient3737" gradientUnits="userSpaceOnUse"/>
</defs>
<path opacity=".08" fill="url(#linearGradient3780)" d="m12-95.0312c-5.5111,0-10.0312,4.5202-10.0312,10.0312v71c0,5.5111 4.5202,10.0312 10.0312,10.0312h72c5.5111,0 10.0312-4.5202 10.0312-10.0312v-71c0-5.5111-4.5202-10.0312-10.0312-10.0312h-72z" transform="scale(1 -1)"/>
<path opacity=".1" fill="url(#linearGradient3780)" d="m12-94.0312c-4.9716,0-9.0312,4.0596-9.0312,9.0312v71c0,4.9716 4.0596,9.0312 9.0312,9.0312h72c4.9716,0 9.0312-4.0596 9.0312-9.0312v-71c0-4.9716-4.0596-9.0312-9.0312-9.0312h-72z" transform="scale(1 -1)"/>
<path opacity=".2" fill="url(#linearGradient3780)" d="m12-93c-4.4091,0-8,3.5909-8,8v71c0,4.4091 3.5909,8 8,8h72c4.4091,0 8-3.5909 8-8v-71c0-4.4091-3.5909-8-8-8h-72z" transform="scale(1 -1)"/>
<path opacity=".3" fill="url(#linearGradient3780)" d="m12-92h72a7,7 0 0,1 7,7v71a7,7 0 0,1 -7,7h-72a7,7 0 0,1 -7-7v-71a7,7 0 0,1 7-7" transform="scale(1 -1)"/>
<path opacity=".45" fill="url(#linearGradient3721)" d="m12-91h72a6,6 0 0,1 6,6v72a6,6 0 0,1 -6,6h-72a6,6 0 0,1 -6-6v-72a6,6 0 0,1 6-6" transform="scale(1 -1)"/>
<path fill="url(#linearGradient3617)" d="m12,6h72a6,6 0 0,1 6,6v72a6,6 0 0,1 -6,6h-72a6,6 0 0,1 -6-6v-72a6,6 0 0,1 6-6"/>
<path opacity=".4" fill="url(#linearGradient3188)" d="m12,6c-3.324,0-6,2.676-6,6v2 68 2c0,.3347 .0413,.6507 .0938,.9688 .0487,.2956 .097,.5969 .1875,.875 .0099,.0304 .0209,.0636 .0312,.0938 .0989,.2878 .2349,.5475 .375,.8125 .1446,.2735 .3156,.5356 .5,.7812 .1844,.2456 .3738,.4735 .5938,.6875 .4399,.4281 .9429,.8145 1.5,1.0938 .2785,.1396 .5735,.2469 .875,.3438-.2562-.1002-.4867-.2363-.7188-.375-.0074-.0044-.0239,.0045-.0312,0-.0319-.0193-.0623-.0425-.0938-.0625-.1204-.0767-.231-.1635-.3438-.25-.1062-.0808-.2133-.1611-.3125-.25-.1779-.1614-.3475-.3454-.5-.5312-.1076-.1303-.2184-.2653-.3125-.4062-.0251-.0384-.0384-.0859-.0625-.125-.0648-.103-.1302-.2045-.1875-.3125-.101-.1947-.2057-.4157-.2812-.625-.008-.0218-.0236-.0405-.0312-.0625-.0318-.0919-.0358-.1868-.0625-.2812-.0303-.1066-.0704-.203-.0938-.3125-.0729-.3415-.125-.6982-.125-1.0625v-2-68-2c0-2.7818 2.2182-5 5-5h2 68 2c2.7818,0 5,2.2182 5,5v2 68 2c0,.3643-.0521,.721-.125,1.0625-.0442,.2069-.0884,.3977-.1562,.5938-.0077,.022-.0233,.0407-.0312,.0625-.0627,.1737-.1384,.3674-.2188,.5312-.0416,.0828-.079,.17-.125,.25-.0546,.0972-.1268,.1883-.1875,.2812-.0941,.141-.2049,.276-.3125,.4062-.1432,.1744-.3031,.347-.4688,.5-.0112,.0102-.02,.0212-.0312,.0312-.1384,.1256-.2851,.2344-.4375,.3438-.1026,.0731-.2043,.1534-.3125,.2188-.0074,.0045-.0238-.0044-.0312,0-.232,.1387-.4625,.2748-.7188,.375 .3015-.0968 .5965-.2041 .875-.3438 .5571-.2792 1.0601-.6657 1.5-1.0938 .22-.214 .4094-.4419 .5938-.6875 .1844-.2456 .3554-.5077 .5-.7812 .1401-.265 .2761-.5247 .375-.8125 .0104-.0308 .0213-.0627 .0312-.0938 .0905-.2781 .1388-.5794 .1875-.875 .0524-.318 .0938-.634 .0938-.9688v-2-68-2c0-3.324-2.676-6-6-6h-72z"/>
<path opacity=".2" fill="url(#radialGradient3619)" d="m12,90c-3.324,0-6-2.676-6-6v-2-68-2c0-.3347 .0413-.6507 .0938-.9688 .0487-.2956 .097-.5969 .1875-.875 .0099-.0304 .0209-.0636 .0312-.0938 .0989-.2878 .2349-.5475 .375-.8125 .1446-.2735 .3156-.5356 .5-.7812 .1844-.2456 .3738-.4735 .5938-.6875 .4399-.4281 .9429-.8145 1.5-1.0938 .2785-.1396 .5735-.2469 .875-.3438-.2562,.1002-.4867,.2363-.7188,.375-.0074,.0044-.0239-.0045-.0312,0-.0319,.0193-.0623,.0425-.0938,.0625-.1204,.0767-.231,.1635-.3438,.25-.1062,.0808-.2133,.1611-.3125,.25-.1779,.1614-.3475,.3454-.5,.5312-.1076,.1303-.2184,.2653-.3125,.4062-.0251,.0384-.0384,.0859-.0625,.125-.0648,.103-.1302,.2045-.1875,.3125-.101,.1947-.2057,.4157-.2812,.625-.008,.0218-.0236,.0405-.0312,.0625-.0318,.092-.0358,.1868-.0625,.2812-.0303,.1066-.0704,.203-.0938,.3125-.0729,.3415-.125,.6982-.125,1.0625v2 68 2c0,2.7818 2.2182,5 5,5h2 68 2c2.7818,0 5-2.2182 5-5v-2-68-2c0-.3643-.0521-.721-.125-1.0625-.0442-.2069-.0884-.3977-.1562-.5938-.0077-.022-.0233-.0407-.0312-.0625-.0627-.1737-.1384-.3674-.2188-.5312-.0416-.0828-.079-.17-.125-.25-.0546-.0972-.1268-.1883-.1875-.2812-.0941-.141-.2049-.276-.3125-.4062-.1432-.1745-.3031-.347-.4688-.5-.0112-.0102-.02-.0211-.0312-.0312-.1384-.1256-.2851-.2344-.4375-.3438-.1026-.0732-.2043-.1534-.3125-.2188-.0074-.0045-.0238,.0044-.0312,0-.232-.1387-.4625-.2748-.7188-.375 .3015,.0968 .5965,.2041 .875,.3438 .5571,.2792 1.0601,.6657 1.5,1.0938 .22,.214 .4094,.4419 .5938,.6875 .1844,.2456 .3554,.5077 .5,.7812 .1401,.265 .2761,.5247 .375,.8125 .0104,.0308 .0213,.0627 .0312,.0938 .0905,.2781 .1388,.5794 .1875,.875 .0524,.318 .0938,.634 .0938,.9688v2 68 2c0,3.324-2.676,6-6,6h-72z"/>
<path opacity=".1" fill="url(#linearGradient3613)" filter="url(#filter3794)" stroke="#fff" stroke-linecap="round" stroke-width=".5" d="m27,15h42a12,12 0 0,1 12,12v42a12,12 0 0,1 -12,12h-42a12,12 0 0,1 -12-12v-42a12,12 0 0,1 12-12" clip-path="url(#clipPath3613)"/>
<g fill-rule="evenodd">
<path opacity=".05" d="m47.6875,7.1875a1.2383,1.2383 0 0,0 -.1875,.0312c-1.4501,.2561-2.4815,1.1595-3.2812,2-.7998,.8405-1.4324,1.6652-2.0625,2.1562a1.2383,1.2383 0 0,0 -.125,.0938c-11.4788,11.5115-23.0961,22.9897-34.5,34.5312a1.2383,1.2383 0 0,0 -.125,.125c-1.1269,1.517-1.1551,3.7514 .2812,5.2188a1.2383,1.2383 0 0,0 .25,.1875 1.2383,1.2383 0 0,0 .0312,.0312 1.2383,1.2383 0 0,0 .2188,.3438l2.6875,2.6562c-1.4853,1.4642-3.2724,2.9226-4.5938,4.8438a1.2383,1.2383 0 0,0 -.0938,.1875c-.6148,1.416-.5549,3.24 .6875,4.5a1.2383,1.2383 0 0,0 .25,.1875 1.2383,1.2383 0 0,0 .0312,.0312 1.2383,1.2383 0 0,0 .2188,.3438c8.4387,8.385 16.8858,16.9498 25.3438,25.25a1.2383,1.2383 0 0,0 .1562,.125c1.1307,.8231 2.5023,.91 3.625,.5312 1.0498-.3541 1.9268-1.0587 2.5625-1.9062l.125-.125c.0085-.012 .0229-.0192 .0312-.0312l2.8125-2.7812c1.1814,1.2136 2.3583,2.6547 4,3.75a1.2383,1.2383 0 0,0 .125,.0625c1.3352,.6955 2.7776,.4596 3.8125-.125 1.0349-.5846 1.8019-1.4123 2.4062-2.125 .7592-.5329 1.1503-1.1692 1.5-1.5625 .0217-.0244 .0103-.0098 .0312-.0312 1.4786,1.3864 2.8947,3.2375 4.875,4.5938a1.2383,1.2383 0 0,0 .125,.0625c1.3345,.6949 2.7757,.4588 3.8125-.125 1.001-.5636 1.7184-1.3899 2.3125-2.0938l.0312,.0312c.026-.0261 .0365-.0677 .0625-.0938 8.07-8.1044 16.2613-16.119 24.2812-24.2812a1.2383,1.2383 0 0,0 .1562-.1875c.7993-1.1843 .7851-2.6112 .3438-3.7188-.4148-1.0409-1.148-1.8706-1.9688-2.5l-.1562-.125-2.625-2.6562c1.2793-1.2147 2.8861-2.4637 3.9062-4.4375a1.2383,1.2383 0 0,0 .0625-.125c.4597-1.2056 .2259-2.4548-.2812-3.4062-.4809-.9022-1.1963-1.5608-1.9062-2.125l.0312-.0312c-.0365-.0364-.0885-.0574-.125-.0938-11.9611-11.9205-23.8346-23.9489-35.8438-35.8125a1.2383,1.2383 0 0,0 -.125-.0938c-.0234-.0433-.04-.0266-.0625-.0625-.1748-.2781-.3344-.4075-.4688-.5-.1517-.1044-.3033-.1807-.5-.2812-.738-.3667-1.4952-.4619-2.1562-.4375zm.2812,24.8125c.359,.7839 1.1636,1.393 2.125,1.6875-.0759,.0152-.1424-.0214-.2188,0-.4441,.1248-.7921,.5019-1.1562,.8438a1.2383,1.2383 0 0,0 -.0625-.1875c-.3568-.7248-.9917-1.1658-1.6875-1.4375 .4463-.1997 .6972-.5677 1-.9062zm-7.8125,2.8125c-1.387,1.2757-2.3092,3.2098-1.8125,5.375a1.2383,1.2383 0 0,0 .0312,.0312c.909,3.4971 4.404,5.7514 7.7812,5.8438a1.2383,1.2383 0 0,0 .2812-.0312c.6035-.1237 1.0624-.4861 1.4688-.875 .0856,.3175 .0823,.6269 .2812,.9375 .3656,.5709 1.0113,1.0573 1.75,1.2812a1.2383,1.2383 0 0,0 .0312,0c2.1738,.593 4.5476,1.3353 6.4062,2.4688 1.8587,1.1335 3.1532,2.5517 3.5625,4.7188 .4444,2.3217-.4783,4.3833-2.1562,6-.0694,.0669-.178,.0913-.25,.1562 1.8821-3.0122 .8592-7.5452-2.5312-9.25-.0172-.0092-.0451-.0219-.0625-.0312-1.0993-.5927-2.5594-1.6514-4.4688-1.5938a1.2383,1.2383 0 0,0 -.25,.0312c-.5834,.1341-.9686,.5406-1.375,.9062-.0059-.054 .0064-.1022 0-.1562a1.2383,1.2383 0 0,0 -.1562-.4688c-.8331-1.387-2.2361-1.9401-3.4062-2.2812-1.1701-.3412-2.2105-.5725-2.8125-.9688a1.2383,1.2383 0 0,0 -.3438-.1562c-1.817-.5143-3.5526-1.8959-4.5312-3.5625-.9787-1.6666-1.2238-3.5018-.3438-5.2812a1.2383,1.2383 0 0,0 0-.0625c.597-1.344 1.6641-2.2932 2.9062-3.0312zm16.3438,.2188 1.0312,4.0312c-.0269-.0453-.0355-.0463-.0625-.0938-.5575-.9797-1.1634-2.4231-2.4375-3.3125 .5019-.0251 .9938-.3303 1.4688-.625zm-19.875,20.5312c.0286,.0521 .0336,.036 .0625,.0938 .4892,.9786 .978,2.6339 2.4375,3.625l-.0312,.0312c.2395,.2252 .5829,.4978 .8438,.75-.157-.0318-.2711-.1081-.4375-.125a1.2383,1.2383 0 0,0 -.125-.0312c-.7304,.0035-1.3226,.3196-1.8125,.7188l-.9375-5.0625zm11.4062,6.9062c.379,.6431 1.0117,1.0139 1.625,1.2812-.4574,.2264-.8941,.514-1.2188,.9062-.392-.6503-.9645-1.1421-1.6875-1.4375 .4953-.1819 .9506-.3861 1.2812-.75z"/>
<path opacity=".1" d="m47.7188,8.4375c-2.1306,.3762-3.1901,2.6389-4.8103,3.9016-11.4832,11.5158-23.1053,23.0015-34.5022,34.5359-.7355,.9902-.7557,2.6621 .1562,3.5938 .3688-1.4023 .5744-.0538 .5148,.5747 1.1826,1.173 2.3651,2.346 3.5477,3.5191-1.6987,1.8885-3.923,3.5111-5.3125,5.5312-.4298,.9899-.3486,2.3278 .4375,3.125 .3681-1.4017 .5758-.0552 .5137,.5758 8.4447,8.3909 16.8818,16.9461 25.33,25.2367 1.5931,1.1598 3.6079,.1824 4.599-1.2498 1.2795-1.2709 2.559-2.5418 3.8385-3.8127 1.6151,1.4238 2.9501,3.3096 4.6875,4.4688 1.9338,1.0072 3.5667-.6001 4.7156-1.9549 1.0075-.5063 2.0192-3.0864 3.0234-2.0248 1.7225,1.5287 3.1667,3.5292 5.011,4.7922 1.9331,1.0066 3.5691-.5977 4.7111-1.9595 8.1018-8.1376 16.316-16.2063 24.3514-24.3843 1.126-1.6683-.0489-3.6327-1.478-4.6655-1.2261-1.2261-2.4522-2.4522-3.6782-3.6782 1.4526-1.7075 3.582-3.0113 4.5938-4.9688 .6467-1.6959-.551-3.224-1.8598-4.2348-12.0021-11.9604-23.9448-24.0282-35.984-35.9215-1.3733-.4545 .4971-.0333-.8438-.7188-.4884-.2427-1.0201-.3012-1.5625-.2812zm2.4062,1c.012-.0584 .0584-.012 0,0zm-2.375,16.6875c1.9576-.5068 .8303,2.0713 1.125,3.2273-.2446,1.399 .2201,3.161 1.8721,3.334 1.7003,.3934 3.7589,2.9133 5.5029,1.22 .6691-1.3224 1.1291-1.4405 1.3043,.2825 .5965,2.3433 1.193,4.6866 1.7894,7.03-2.8962,1.3226-3.0632-4.0617-5.6766-4.9511-1.0684-1.1174-3.3352-2.3312-4.4796-.6114-.7165,1.848-.1149,3.9793-.3125,5.9347 .117,1.5546-.5875,3.992 1.4062,4.5966 4.4033,1.2012 9.8976,3.0297 10.8652,8.1525 1.0625,5.5511-4.5366,9.9306-9.6221,10.2706-1.7488-.3239-3.0536,1.3275-2.6493,2.9678-.3623,1.0296 .7885,3.5723-.6916,3.4842-.9719-.4789-.1734-2.7282-.4334-3.9189 .3182-1.4561-.5978-2.9729-2.1735-3.0338-2.3844-.269-3.9141-2.7217-6.2015-2.9536-1.5548,.0074-1.9175,1.7699-2.4375,2.9062-.625-3.3958-1.25-6.7917-1.875-10.1875 2.9316-1.546 2.7755,3.3539 4.8843,4.5418 1.6982,1.5969 3.6514,3.6718 6.1157,3.8332 1.8462-.2566 1.8298-2.3777 1.6875-3.8129-.087-2.545 .1719-5.1427-.125-7.6558-1.1817-1.9673-4.0535-1.6745-5.8459-2.8541-4.3169-1.222-7.8225-6.2152-5.6605-10.5866 1.7506-3.9411 6.3132-5.3442 10.2877-5.4656 2.276-.8629 1.0146-3.9434 1.3438-5.75zm-2.1562,7.7188c-3.1312,.1319-6.8378,2.4834-6.019,6.053 .7324,2.8178 3.8006,4.8389 6.6127,4.9158 1.9745-.4048 1.5739-2.7426 1.5625-4.2427-.1656-1.8775 .3217-3.8956-.2188-5.6948-.347-.705-1.1586-1.1115-1.9375-1.0312zm4.9062,17.25c-2.3164,.5326-1.4834,3.2938-1.625,4.9968 .1676,1.8975-.3247,3.9302 .2188,5.7532 1.2218,2.0734 4.15,.6014 5.7427-.2009 3.5335-1.8965 3.0078-7.4159-.4318-9.0951-1.1904-.6323-2.5065-1.4961-3.9047-1.454z"/>
<path opacity=".15" d="m47.9375,9.4062c-.0004,0-.1559,.0312-.1562,.0312a.9871,.9871 0 0,0 -.0312,0c-.0004,.0001-.1871,.0312-.1875,.0312-.0004,.0001-.1559,.0311-.1562,.0312-.0004,.0001-.1559,.0624-.1562,.0625-.0003,.0001-.1559,.0623-.1562,.0625-.0003,.0002-.1559,.0935-.1562,.0938-.0003,.0002-.1247,.0935-.125,.0938-.0003,.0002-.1247,.1247-.125,.125-.0002,.0002-.0599,.06-.0938,.0938-.0113,.0112-.0312,.0312-.0312,.0312l-37.125,37.0938v.0312c-.0191,.0194-.0624,.0624-.0625,.0625-.0001,.0002-.0624,.0623-.0625,.0625-.0001,.0002-.0624,.0623-.0625,.0625-.0001,.0002-.0624,.0936-.0625,.0938-.0001,.0002-.0624,.0936-.0625,.0938-.0001,.0002-.0624,.0623-.0625,.0625-.0001,.0002-.0312,.0936-.0312,.0938-.0001,.0002-.0312,.0936-.0312,.0938-.0001,.0002-.0312,.0935-.0312,.0938-.0001,.0002-.0312,.0935-.0312,.0938-.0001,.0002-.0312,.0935-.0312,.0938-.0001,.0002-.0312,.0935-.0312,.0938-0,.0002-.0312,.0935-.0312,.0938-0,.0002 0,.1248 0,.125-0,.0002 0,.0935 0,.0938-0,.0002 0,.0935 0,.0938 0,.0002-0,.0935 0,.0938 0,.0002-0,.0935 0,.0938 0,.0002-0,.1248 0,.125 0,.0002 .0312,.0935 .0312,.0938 0,.0002 .0312,.0935 .0312,.0938 .0001,.0002 .0312,.0935 .0312,.0938 .0001,.0002 .0312,.0935 .0312,.0938 .0001,.0002 .0312,.0936 .0312,.0938 .0001,.0002 .0312,.0936 .0312,.0938 .0001,.0002 .0311,.0936 .0312,.0938 .0001,.0002 .0624,.0623 .0625,.0625 .0001,.0002 .0624,.0936 .0625,.0938 .0001,.0002 .0624,.0936 .0625,.0938 .0001,.0002 .0624,.0623 .0625,.0625 .0001,.0002 .0624,.0623 .0625,.0625 .0001,.0001 .0434,.0431 .0625,.0625 .0057,.0058-0,.0312 0,.0312l4.5625,4.5312-5.375,5.3438v.0312c-.0191,.0194-.0624,.0624-.0625,.0625-.0001,.0002-.0624,.0623-.0625,.0625-.0001,.0002-.0624,.0623-.0625,.0625-.0001,.0002-.0624,.0936-.0625,.0938-.0001,.0002-.0624,.0936-.0625,.0938-.0001,.0002-.0624,.0623-.0625,.0625-.0001,.0002-.0312,.0936-.0312,.0938-.0001,.0002-.0312,.0936-.0312,.0938-.0001,.0002-.0312,.0935-.0312,.0938-.0001,.0002-.0312,.0935-.0312,.0938-.0001,.0002-.0312,.0935-.0312,.0938-.0001,.0002-.0312,.0935-.0312,.0938-0,.0002-.0312,.0935-.0312,.0938-0,.0002 0,.1248 0,.125-0,.0002 0,.0935 0,.0938-0,.0002 0,.0935 0,.0938 0,.0002-0,.0935 0,.0938 0,.0002-0,.0935 0,.0938 0,.0002-0,.1248 0,.125 0,.0002 .0312,.0935 .0312,.0938 0,.0002 .0312,.0935 .0312,.0938 .0001,.0002 .0312,.0935 .0312,.0938 .0001,.0002 .0312,.0935 .0312,.0938 .0001,.0002 .0312,.0936 .0312,.0938 .0001,.0002 .0312,.0936 .0312,.0938 .0001,.0002 .0311,.0936 .0312,.0938 .0001,.0002 .0624,.0623 .0625,.0625 .0001,.0002 .0624,.0936 .0625,.0938 .0001,.0002 .0624,.0936 .0625,.0938 .0001,.0002 .0624,.0623 .0625,.0625 .0001,.0002 .0624,.0623 .0625,.0625 .0001,.0001 .0434,.0431 .0625,.0625 .0057,.0058-0,.0312 0,.0312l25.2188,25.1875c.0003,.0003 .1247,.156 .125,.1562 .0003,.0003 .1559,.0935 .1562,.0938 .0004,.0002 .1871,.0935 .1875,.0938 .0004,.0002 .1559,.0936 .1562,.0938 .0004,.0002 .1871,.0624 .1875,.0625 .0004,.0001 .1871,.0624 .1875,.0625 .0004,.0001 .1871,.0312 .1875,.0312 .0004,0 .2183,0 .2188,0 .0004,0 .1871,0 .1875,0 .0004-0 .1871-.0312 .1875-.0312 .0004-.0001 .1871-.0624 .1875-.0625 .0004-.0001 .1871-.0623 .1875-.0625 .0004-.0002 .1559-.0935 .1562-.0938 .0004-.0002 .1871-.0935 .1875-.0938 .0004-.0002 .1559-.0935 .1562-.0938 .0003-.0003 .1247-.156 .125-.1562l5.4062-5.375 4.5625,4.5625c.0003,.0003 .1247,.156 .125,.1562 .0003,.0003 .1559,.0935 .1562,.0938 .0004,.0002 .1871,.0935 .1875,.0938 .0004,.0002 .1559,.0936 .1562,.0938 .0004,.0002 .1871,.0624 .1875,.0625 .0004,.0001 .1871,.0624 .1875,.0625 .0004,.0001 .1871,.0312 .1875,.0312 .0004,0 .2183,0 .2188,0 .0004,0 .1871,0 .1875,0 .0004-0 .1871-.0312 .1875-.0312 .0004-.0001 .1871-.0624 .1875-.0625 .0004-.0001 .1871-.0623 .1875-.0625 .0004-.0002 .1559-.0935 .1562-.0938 .0004-.0002 .1871-.0935 .1875-.0938 .0004-.0002 .1559-.0935 .1562-.0938 .0003-.0003 .1247-.156 .125-.1562l4.5938-4.5625 5.375,5.375c.0003,.0003 .1247,.156 .125,.1562 .0003,.0003 .1559,.0935 .1562,.0938 .0004,.0002 .1871,.0935 .1875,.0938 .0004,.0002 .1559,.0936 .1562,.0938 .0004,.0002 .1871,.0624 .1875,.0625 .0004,.0001 .1871,.0624 .1875,.0625 .0004,.0001 .1871,.0312 .1875,.0312 .0004,0 .2183,0 .2188,0 .0004,0 .1871,0 .1875,0 .0004-0 .1871-.0312 .1875-.0312 .0004-.0001 .1871-.0624 .1875-.0625 .0004-.0001 .1871-.0623 .1875-.0625 .0004-.0002 .1559-.0935 .1562-.0938 .0004-.0002 .1871-.0935 .1875-.0938 .0004-.0002 .1559-.0935 .1562-.0938 .0003-.0003 .1247-.156 .125-.1562l25.1875-25.1562 .0625-.0625c.0002-.0002 .0936-.0623 .0938-.0625 .0002-.0002 .0623-.0936 .0625-.0938 .0002-.0002 .0936-.0623 .0938-.0625a.9871,.9871 0 0,0 .0312-.0938c.0002-.0003 .0936-.1247 .0938-.125 .0002-.0003 .0936-.1871 .0938-.1875 .0002-.0004 .0624-.1559 .0625-.1562 .0001-.0004 .0312-.1559 .0312-.1562 .0001-.0004 .0312-.1871 .0312-.1875 .0001-.0004 .0312-.1559 .0312-.1562 0-.0004 0-.1871 0-.1875-0-.0004-.0312-.1559-.0312-.1562-0-.0004-.0312-.1871-.0312-.1875-.0001-.0004-.0311-.1559-.0312-.1562-.0001-.0004-.0624-.1559-.0625-.1562-.0001-.0004-.0623-.1559-.0625-.1562-.0002-.0003-.0935-.1559-.0938-.1562-.0002-.0003-.0935-.1559-.0938-.1562-.0002-.0003-.1247-.1247-.125-.125-.0002-.0002-.0594-.0589-.0938-.0938l-.0312-.0312-5.3438-5.3438 4.5625-4.5312v-.0312c.0191-.0194 .0624-.0624 .0625-.0625 .0001-.0002 .0624-.0623 .0625-.0625 .0001-.0002 .0624-.0623 .0625-.0625 .0001-.0002 .0624-.0936 .0625-.0938 .0001-.0002 .0624-.0936 .0625-.0938 .0001-.0002 .0624-.0623 .0625-.0625 .0001-.0002 .0311-.0936 .0312-.0938 .0001-.0002 .0312-.0936 .0312-.0938 .0001-.0002 .0312-.0935 .0312-.0938 .0001-.0002 .0312-.0935 .0312-.0938 .0001-.0002 .0312-.0935 .0312-.0938 .0001-.0002 .0312-.0935 .0312-.0938 0-.0002 .0312-.0935 .0312-.0938 0-.0002-0-.1248 0-.125 0-.0002-0-.0935 0-.0938 0-.0002 0-.0935 0-.0938 0-.0002 0-.0935 0-.0938-0-.0002 0-.0935 0-.0938-0-.0002 0-.1248 0-.125-0-.0002-.0312-.0935-.0312-.0938-0-.0002-.0312-.0935-.0312-.0938-.0001-.0002-.0312-.0935-.0312-.0938-.0001-.0002-.0312-.0935-.0312-.0938-.0001-.0002-.0312-.0936-.0312-.0938-.0001-.0002-.0311-.0936-.0312-.0938-.0001-.0002-.0311-.0936-.0312-.0938-.0001-.0002-.0624-.0623-.0625-.0625-.0001-.0002-.0624-.0936-.0625-.0938-.0001-.0002-.0624-.0936-.0625-.0938-.0001-.0002-.0624-.0623-.0625-.0625-.0001-.0002-.0623-.0623-.0625-.0625-.0001-.0001-.0434-.0431-.0625-.0625l-37.0938-37.0938c-0-0-.0254,.0069-.0312,0-.0194-.0229-.0624-.0624-.0625-.0625-.0002-.0002-.0623-.0936-.0625-.0938-.0002-.0002-.0936-.0623-.0938-.0625-.0002-.0002-.0623-.0936-.0625-.0938a.9871,.9871 0 0,0 -.0938-.0312c-.0003-.0002-.1247-.0936-.125-.0938-.0003-.0002-.1559-.0936-.1562-.0938-.0003-.0001-.1559-.0624-.1562-.0625-.0004-.0001-.1871-.0312-.1875-.0312-.0004-.0001-.1559-.0312-.1562-.0312-.0004-.0001-.1871-.0312-.1875-.0312-.0004-0-.1559-0-.1562,0zm-1.1562,15.75 3.0625,0 0,5.5a.9871,.9871 0 0,0 .7188,.9375c.7055,.2133 1.2995,.4671 1.7812,.6875 .4632,.212 1.1197,.5674 1.9688,1.0938a.9871,.9871 0 0,0 1.4062-.4062l.6875-1.3125h1.5l2.625,10.25-3.1562,.9062c-1.3526-3.0131-3.319-5.4457-6.0625-6.9375a.9871,.9871 0 0,0 -1.4688,.875v7.5625a.9871,.9871 0 0,0 .7188,.9375c3.4025,.9672 5.8607,1.9517 7.2812,2.875 1.4612,.9498 2.5336,2.0917 3.2812,3.4375 .76,1.368 1.125,2.7468 1.125,4.1875-0,1.5404-.4349,2.9968-1.3438,4.4688-.8922,1.4448-2.195,2.6784-4,3.6875-1.7926,1.0022-3.8155,1.5838-6.125,1.75a.9871,.9871 0 0,0 -.9375,1v5.375h-3.0625v-5.8125a.9871,.9871 0 0,0 -.7812-.9688c-1.854-.4353-3.8288-1.4024-5.9375-2.9375a.9871,.9871 0 0,0 -1.5,.4375l-1.0312,2.4688h-1.375l-2.25-12.0938 3.375-.8125c.78,1.6216 1.578,3.1113 2.3438,4.1562 .8876,1.2112 1.8906,2.2351 3,3.125h.0312c.8458,.6884 1.7898,1.271 2.8125,1.625a.9871,.9871 0 0,0 1.3125-.9375v-8.75a.9871,.9871 0 0,0 -.6875-.9375c-3.7287-1.2486-6.2641-2.361-7.5-3.1875-1.2846-.8591-2.2709-1.9031-3-3.2188-.736-1.3279-1.0938-2.6625-1.0938-3.9688 0-1.5081 .4242-2.9357 1.3438-4.375 .9117-1.4269 2.16-2.5476 3.8125-3.4062 1.6265-.8451 3.6752-1.3369 6.1562-1.4375a.9871,.9871 0 0,0 .9688-1v-4.8438zm-1.0312,9.6562a.9871,.9871 0 0,0 -.0938,.0312c-1.5193,.2038-2.6616,.502-3.5,1.0938-1.0293,.7352-1.7188,1.8174-1.7188,3-0,1.0074 .4716,1.9816 1.2188,2.7812 .824,.882 2.088,1.5067 3.8125,2.0938a.9871,.9871 0 0,0 1.3125-.9375v-7.0625a.9871,.9871 0 0,0 -1.0312-1zm5.0938,17.25a.9871,.9871 0 0,0 -1,1v7.875a.9871,.9871 0 0,0 1.125,.9688c1.483-.1901 2.7359-.6251 3.7188-1.3438 1.0266-.7506 1.625-1.9098 1.625-3.1875-0-1.1092-.4139-2.1821-1.1875-3-.9846-1.005-2.3443-1.742-4-2.25a.9871,.9871 0 0,0 -.2812-.0625z"/>
<path opacity=".3" d="m47.875,10.4062a1.0001,1.0001 0 0,0 -.5938,.3125l-37.1562,37.1562a1.0001,1.0001 0 0,0 0,1.4375l5.25,5.25-6.0625,6.0625a1.0001,1.0001 0 0,0 0,1.4375l25.2188,25.2188a1.0001,1.0001 0 0,0 1.4062,0l6.0938-6.0625 5.25,5.25a1.0001,1.0001 0 0,0 1.4062,0l5.2812-5.25 6.0625,6.0625a1.0001,1.0001 0 0,0 1.4062,0l25.25-25.2188a1.0001,1.0001 0 0,0 .1562-.1562 1.0001,1.0001 0 0,0 -.1562-1.2812l-6.0625-6.0625 5.25-5.25a1.0001,1.0001 0 0,0 0-1.4375l-37.1875-37.1562a1.0001,1.0001 0 0,0 -.1562-.1562 1.0001,1.0001 0 0,0 -.6562-.1562zm-2.0938,13.75 5.0625,0 0,6.5c.7531,.2277 1.3895,.4823 1.9062,.7188 .5167,.2365 1.218,.6133 2.0938,1.1562l.9688-1.875h2.875l3.0625,11.9062-4.8125,1.4062c-1.2611-3.2753-3.2913-5.6949-6.0938-7.2188v7.5625c3.4505,.9809 5.9549,1.9754 7.5312,3 1.5763,1.0247 2.793,2.2837 3.625,3.7812 .8319,1.4976 1.25,3.0449 1.25,4.6562-0,1.734-.5104,3.3974-1.5,5-.9896,1.6027-2.4483,2.9541-4.375,4.0312-1.9267,1.0772-4.0966,1.6998-6.5312,1.875v6.375h-5.0625v-6.8125c-2.0143-.4729-4.1231-1.4999-6.3125-3.0938l-1.2812,3.0938h-2.8438l-2.5938-13.8438 5.0312-1.2188c.9108,1.9968 1.7843,3.5715 2.625,4.7188 .8407,1.1473 1.7928,2.128 2.8438,2.9688 .7707,.6306 1.6204,1.1222 2.5312,1.4375v-8.75c-3.7658-1.2611-6.3488-2.3754-7.75-3.3125-1.4012-.937-2.5068-2.1087-3.3125-3.5625-.8057-1.4537-1.2188-2.9487-1.2188-4.4375 0-1.699 .4929-3.3298 1.5-4.9062 1.0071-1.5763 2.4009-2.8217 4.1875-3.75 1.7865-.9283 4.0015-1.4574 6.5938-1.5625v-5.8438zm0,11.6562c-1.4363,.1927-2.467,.5172-3.0625,.9375-.8583,.6131-1.2813,1.3293-1.2812,2.1875-0,.7182 .3157,1.4282 .9375,2.0938 .6218,.6656 1.7598,1.2833 3.4062,1.8438v-7.0625zm5.0625,17.25 0,7.875c1.3662-.1751 2.4355-.5607 3.25-1.1562 .8144-.5955 1.2187-1.3904 1.2188-2.4062-0-.8933-.2932-1.6644-.9062-2.3125-.8408-.8582-2.0212-1.5271-3.5625-2z"/>
</g>
<path fill="#fff" color="#000" d="m45.7812,23.1562 0,5.8438c-2.5923,.1051-4.8072,.6342-6.5938,1.5625-1.7866,.9283-3.1804,2.1737-4.1875,3.75-1.0071,1.5764-1.5,3.2073-1.5,4.9062-0,1.4888 .413,2.9838 1.2188,4.4375 .8057,1.4538 1.9113,2.6255 3.3125,3.5625 1.4012,.9371 3.9842,2.0514 7.75,3.3125v8.75c-.9108-.3153-1.7606-.8069-2.5312-1.4375-1.0509-.8407-2.003-1.8215-2.8438-2.9688-.8407-1.1472-1.7142-2.722-2.625-4.7188l-5.0312,1.2188 2.5938,13.8438h2.8438l1.2812-3.0938c2.1894,1.5939 4.2982,2.6208 6.3125,3.0938v6.8125h5.0625v-6.375c2.4346-.1752 4.6045-.7978 6.5312-1.875 1.9267-1.0772 3.3854-2.4286 4.375-4.0312 .9896-1.6026 1.5-3.266 1.5-5-0-1.6114-.4181-3.1587-1.25-4.6562-.832-1.4975-2.0487-2.7566-3.625-3.7812-1.5764-1.0246-4.0808-2.0191-7.5312-3v-7.5625c2.8024,1.5239 4.8326,3.9434 6.0938,7.2188l4.8125-1.4062-3.0625-11.9062h-2.875l-.9688,1.875c-.8758-.5429-1.5771-.9198-2.0938-1.1562-.5167-.2364-1.1531-.491-1.9062-.7188v-6.5h-5.0625zm0,11.6562 0,7.0625c-1.6465-.5605-2.7845-1.1781-3.4062-1.8438-.6218-.6656-.9375-1.3756-.9375-2.0938-0-.8582 .423-1.5744 1.2812-2.1875 .5955-.4203 1.6262-.7448 3.0625-.9375zm5.0625,17.25c1.5413,.4729 2.7217,1.1418 3.5625,2 .613,.6481 .9062,1.4192 .9062,2.3125-0,1.0159-.4043,1.8107-1.2188,2.4062-.8145,.5955-1.8838,.9811-3.25,1.1562v-7.875z"/>
<g fill-rule="evenodd">
<path fill="url(#linearGradient3855)" d="m47.996,10.4135-37.1707,37.1707 37.1707,37.1707 37.1805-37.1707-37.1805-37.1707zm-2.2275,12.7369 5.0732,0 0,6.5157c.7531,.2277 1.3869,.4603 1.9037,.6967 .5167,.2365 1.2143,.6248 2.0901,1.1677l.9911-1.8644h2.8653l3.0714,11.9029-4.8279,1.3934c-1.2611-3.2753-3.2913-5.6787-6.0937-7.2026v7.546c3.4505,.9809 5.9598,1.9781 7.5362,3.0027 1.5763,1.0247 2.7791,2.2902 3.6111,3.7877 .8319,1.4976 1.2462,3.0497 1.2462,4.6611-0,1.734-.4921,3.4019-1.4817,5.0045-.9896,1.6027-2.4498,2.946-4.3765,4.0232-1.9267,1.0772-4.1007,1.6991-6.5353,1.8742v6.3587h-5.0732v-6.8002c-2.0143-.4729-4.1202-1.5069-6.3096-3.1008l-1.256,3.1008h-2.8653l-2.5808-13.8458 5.0241-1.207c.9108,1.9968 1.7891,3.5629 2.6298,4.7101 .8407,1.1473 1.785,2.1423 2.8359,2.9831 .7707,.6306 1.6111,1.1076 2.5219,1.4228v-8.753c-3.7658-1.2611-6.3509-2.36-7.7521-3.2971-1.4012-.937-2.5012-2.1279-3.3069-3.5817-.8057-1.4537-1.2168-2.9269-1.2168-4.4157-0-1.699 .504-3.3398 1.5112-4.9162 1.0071-1.5763 2.4035-2.8299 4.19-3.7583 1.7865-.9283 3.9823-1.4453 6.5745-1.5504v-5.8582zm0,11.6673c-1.4363,.1927-2.4563,.5021-3.0518,.9224-.8583,.6131-1.2855,1.3496-1.2855,2.2079-0,.7182 .3104,1.4049 .9322,2.0705 .6218,.6656 1.7586,1.2843 3.405,1.8448v-7.0455zm5.0732,17.2312 0,7.8894c1.3662-.1751 2.4532-.5624 3.2676-1.1579 .8144-.5955 1.2168-1.398 1.2168-2.4139-0-.8933-.2996-1.6677-.9126-2.3158-.8408-.8582-2.0305-1.5289-3.5718-2.0018z"/>
<path fill="url(#linearGradient3871)" stroke="#000" stroke-linejoin="round" stroke-linecap="round" stroke-width="2" d="m49.7426,26.0034h35.6945v9.597h-35.6945z" transform="rotate(45)"/>
<path opacity=".7" fill="url(#linearGradient3851)" d="m16.2727,53.1859-6.7104,6.7104c-.1624,.1579-.2272,.391-.1696,.6101 .0576,.2191 .2287,.3901 .4477,.4477 .2191,.0576 .4522-.0072 .6101-.1696l6.8817-6.8817-1.0594-.7169z"/>
</g>
<path fill="none" stroke="#000" stroke-linejoin="round" stroke-linecap="round" stroke-width="2" d="m41.3052-26.577h52.5693v52.5693h-52.5693z" transform="rotate(45)"/>
<g fill-rule="evenodd">
<path opacity=".7" fill="url(#linearGradient3847)" d="m48.3961,9.9134c-.2545-.1976-.6172-.1706-.8396,.0624l-37.1704,37.1704c-.1624,.1579-.2272,.391-.1696,.6101 .0576,.2191 .2287,.3901 .4477,.4477 .2191,.0576 .4522-.0072 .6101-.1696l37.1704-37.1704c.1323-.1262 .203-.3038 .1937-.4864-.0093-.1826-.0978-.3521-.2422-.4642z"/>
<path fill="url(#linearGradient3879)" stroke="#000" stroke-linejoin="round" stroke-linecap="round" stroke-width="2" d="m-18.1396-103.483h35.6945v9.5973h-35.6945z" transform="rotate(135)"/>
</g>
<g color="#000">
<path fill="#d45500" d="m45.7812,22.1562 0,1 5.0625,0 0-1-5.0625,0zm0,5.8438c-2.5923,.1051-4.8072,.6342-6.5938,1.5625-1.7866,.9283-3.1804,2.1737-4.1875,3.75-1.0071,1.5764-1.5,3.2073-1.5,4.9062-0,.1861 .0184,.3763 .0312,.5625 .0788-1.5396 .5497-3.0302 1.4688-4.4688 1.0071-1.5763 2.4009-2.8217 4.1875-3.75 1.7865-.9283 4.0015-1.4574 6.5938-1.5625v-1zm5.0625,.6562 0,1c.7531,.2277 1.3895,.4823 1.9062,.7188 .5167,.2365 1.218,.6133 2.0938,1.1562l.9688-1.875h2.875l2.8125,10.9688 .25-.0625-3.0625-11.9062h-2.875l-.9688,1.875c-.8758-.5429-1.5771-.9198-2.0938-1.1562-.5167-.2364-1.1531-.491-1.9062-.7188zm-9.3438,8.8125c-.0297,.1508-.0625,.3082-.0625,.4688-0,.7182 .3157,1.4282 .9375,2.0938 .6218,.6656 1.7598,1.2833 3.4062,1.8438v-1c-1.6465-.5605-2.7845-1.1781-3.4062-1.8438-.4664-.4992-.7571-1.0286-.875-1.5625zm9.3438,4.8438 0,1c3.4505,.9809 5.9549,1.9754 7.5312,3 1.5763,1.0247 2.793,2.2837 3.625,3.7812 .7499,1.3499 1.1445,2.7462 1.2188,4.1875 .0109-.1781 .0312-.3517 .0312-.5312-0-1.6114-.4181-3.1587-1.25-4.6562-.832-1.4975-2.0487-2.7566-3.625-3.7812-1.5764-1.0246-4.0808-2.0191-7.5312-3zm-13.0625,6.8438-5.0312,1.2188l.1875,.9688 4.8438-1.1875c.9108,1.9968 1.7843,3.5715 2.625,4.7188 .8407,1.1473 1.7928,2.128 2.8438,2.9688 .7707,.6306 1.6204,1.1222 2.5312,1.4375v-1c-.9108-.3153-1.7606-.8069-2.5312-1.4375-1.0509-.8407-2.003-1.8215-2.8438-2.9688-.8407-1.1472-1.7142-2.722-2.625-4.7188zm17.5,6.75c-.1217,.7628-.5232,1.3893-1.1875,1.875-.8145,.5955-1.8838,.9811-3.25,1.1562v1c1.3662-.1751 2.4355-.5607 3.25-1.1562 .8144-.5955 1.2187-1.3904 1.2188-2.4062-0-.1591-.0125-.3174-.0312-.4688z"/>
<path opacity=".3" fill="#fff" d="m45.7812,34.8125c-1.4363,.1927-2.467,.5172-3.0625,.9375-.8583,.6131-1.2813,1.3293-1.2812,2.1875-0,.1795 .0232,.3533 .0625,.5312 .129-.6556 .521-1.2204 1.2188-1.7188 .5955-.4203 1.6262-.7448 3.0625-.9375v-1zm5.0625,.9375 0,1c2.8024,1.5239 4.8326,3.9434 6.0938,7.2188l4.8125-1.4062-.25-.9375-4.5625,1.3438c-1.2611-3.2753-3.2913-5.6949-6.0938-7.2188zm-17.3125,4.0312c-.0076,.1476-.0312,.2889-.0312,.4375-0,1.4888 .413,2.9838 1.2188,4.4375 .8057,1.4538 1.9113,2.6255 3.3125,3.5625 1.4012,.9371 3.9842,2.0514 7.75,3.3125v-1c-3.7658-1.2611-6.3488-2.3754-7.75-3.3125-1.4012-.937-2.5068-2.1087-3.3125-3.5625-.705-1.272-1.0974-2.5716-1.1875-3.875zm17.3125,12.2812 0,1c1.5413,.4729 2.7217,1.1418 3.5625,2 .5038,.5327 .7885,1.1453 .875,1.8438 .0275-.1724 .0312-.344 .0312-.5312-0-.8933-.2932-1.6644-.9062-2.3125-.8408-.8582-2.0212-1.5271-3.5625-2zm-17.9062,.2812-.1875,.0312l2.5938,13.8438h2.8438l1.2812-3.0938c2.1894,1.5939 4.2982,2.6208 6.3125,3.0938v-1c-2.0143-.4729-4.1231-1.4999-6.3125-3.0938l-1.2812,3.0938h-2.8438l-2.4062-12.875zm30.2812,2.9375c-.0945,1.5414-.5816,3.0321-1.4688,4.4688-.9896,1.6027-2.4483,2.9541-4.375,4.0312-1.9267,1.0772-4.0966,1.6998-6.5312,1.875v1c2.4346-.1752 4.6045-.7978 6.5312-1.875 1.9267-1.0772 3.3854-2.4286 4.375-4.0312 .9896-1.6026 1.5-3.266 1.5-5-0-.1589-.0231-.3111-.0312-.4688zm-17.4375,16.75 0,1 5.0625,0 0-1-5.0625,0z"/>
</g>
</svg>
