<svg xmlns="http://www.w3.org/2000/svg" viewBox="0 0 96 96" xmlns:xlink="http://www.w3.org/1999/xlink">
<defs>
<clipPath id="clipPath3613">
<path fill="#fff" d="m12,6h72a6,6 0 0,1 6,6v72a6,6 0 0,1 -6,6h-72a6,6 0 0,1 -6-6v-72a6,6 0 0,1 6-6"/>
</clipPath>
<filter width="1.388" x="-.194" y="-.194" height="1.388" color-interpolation-filters="sRGB" id="filter4055">
<feGaussianBlur stdDeviation="5.3379"/>
</filter>
<linearGradient id="linearGradient3967" xlink:href="#linearGradient3737" y1="6" y2="64.215" x2="0" gradientUnits="userSpaceOnUse"/>
<linearGradient gradientTransform="matrix(.69845 0 0 .69845 3.29925 3.28616)" id="linearGradient2890" xlink:href="#linearGradient3249" y1="-20.94" y2="55.14" x2="0" gradientUnits="userSpaceOnUse"/>
<linearGradient gradientTransform="translate(0 1)" id="linearGradient3989" xlink:href="#ButtonShadow" y1="90" y2="5.988" x2="0" gradientUnits="userSpaceOnUse"/>
<linearGradient gradientTransform="translate(-1 1)" id="linearGradient4001" xlink:href="#ButtonShadow" y1="90.868" y2="5.988" x2="0" gradientUnits="userSpaceOnUse"/>
<linearGradient id="linearGradient3249">
<stop offset="0" stop-color="#fff"/>
<stop offset="1" stop-color="#fff" stop-opacity="0"/>
</linearGradient>
<linearGradient id="linearGradient3948" xlink:href="#ButtonColor" y1="90" y2="5.988" x2="0" gradientUnits="userSpaceOnUse"/>
<linearGradient id="ButtonColor" y1="21" y2=".999" x2="0" gradientUnits="userSpaceOnUse">
<stop offset="0" stop-color="#892a77"/>
<stop offset="1" stop-color="#c16bae"/>
</linearGradient>
<linearGradient id="linearGradient3737">
<stop offset="0" stop-color="#fff"/>
<stop offset="1" stop-color="#fff" stop-opacity="0"/>
</linearGradient>
<linearGradient id="linearGradient3700">
<stop offset="0" stop-color="#2276c5"/>
<stop offset="1" stop-color="#68baf4"/>
</linearGradient>
<linearGradient gradientTransform="translate(-110)" id="linearGradient3151" xlink:href="#linearGradient3700" y1="90" y2="5.988" x2="0" gradientUnits="userSpaceOnUse"/>
<linearGradient id="linearGradient3613" xlink:href="#linearGradient3737" y1="20.221" y2="138.661" x2="0" gradientUnits="userSpaceOnUse"/>
<linearGradient gradientTransform="scale(1.00587 .99417)" id="ButtonShadow" y1="92.54" y2="7.017" x2="0" gradientUnits="userSpaceOnUse">
<stop offset="0"/>
<stop offset="1" stop-opacity=".588"/>
</linearGradient>
<linearGradient gradientTransform="translate(-110)" id="linearGradient3153" xlink:href="#linearGradient3737" y1="6" y2="63.893" x2="0" gradientUnits="userSpaceOnUse"/>
<radialGradient cx="48" cy="90.172" gradientTransform="matrix(1.15731 0 0 .99591 -117.55102 .19713)" r="42" id="radialGradient3155" xlink:href="#linearGradient3737" gradientUnits="userSpaceOnUse"/>
<radialGradient cx="48" cy="72" gradientTransform="matrix(1.14286 0 0 .95238 -6.85714 3.42857)" r="42" id="radialGradient3982" xlink:href="#linearGradient3737" gradientUnits="userSpaceOnUse"/>
</defs>
<path opacity=".08" fill="url(#linearGradient4001)" d="m12,4.0312c-6.0702-.1617-10.6912,5.6895-9.9688,11.5 .0001,.0417-.0001,.0833 0,.125 .0304,18.0862-.0778,36.1534 .0312,54.25a.9323,.9323 0 0,0 0,.0625c.4298,5.8315 6.2169,9.6747 11.7188,9 .0418-.0051 .0832,.0056 .125,0h5.3125c-.6798,4.4285-1.5968,8.8952-2.0625,13.4062a.9323,.9323 0 0,0 .0312,.2812c.28,1.2942 1.3717,2.1088 2.4688,2.25 1.0239,.1318 2.0656-.2251 2.8438-1v.0312l22.8438-14.9688c13.1851-.029 26.3628,.0771 39.5625-.0312a.9323,.9323 0 0,0 .0625,0c5.8315-.4298 9.6747-6.2169 9-11.7188-.0051-.0418 .0056-.0832 0-.125-.0304-18.0018 .0778-35.9879-.0312-54a.9323,.9323 0 0,0 0-.0625c-.4298-5.8315-6.2169-9.6747-11.7188-9h-.125-70.0625-.0312z"/>
<path opacity=".1" fill="url(#linearGradient4001)" d="m12,4.9688c-5.5018-.1656-9.7593,5.2616-9.0312,10.5515 .0312,18.1328-.0624,36.2687 .0469,54.3995 .3891,5.2798 5.7302,8.7915 10.758,8.1115 2.1796,0 4.3593,0 6.5389,0-.6936,4.8112-1.7232,9.637-2.2188,14.4375 .3996,1.8469 2.7901,1.9764 3.9102,.6945 7.6966-5.044 15.3932-10.088 23.0898-15.132 13.2749-.0309 26.553,.062 39.826-.0469 5.2798-.3891 8.7915-5.7302 8.1115-10.758-.0312-18.0483 .0624-36.0998-.0469-54.1461-.3891-5.2798-5.7302-8.7915-10.758-8.1115-23.4088,0-46.8176,0-70.2264,0z"/>
<path opacity=".15" fill="url(#linearGradient4001)" d="m12,6c-4.4079,0-8,3.5921-8,8v55c0,4.4079 3.5921,8 8,8h9.5l-2.4062,14.9062a.9873,.9873 0 0,0 1.5,.9688l24.2188-15.875h39.1875c4.4079,0 8-3.5921 8-8v-55c0-4.4079-3.5921-8-8-8h-72z"/>
<path opacity=".3" fill="url(#linearGradient4001)" d="m12,7c-3.878,0-7,3.122-7,7v55c0,3.878 3.122,7 7,7h10.6562l-2.5938,16.0625 24.5-16.0625h39.4375c3.878,0 7-3.122 7-7v-55c0-3.878-3.122-7-7-7h-72z"/>
<path opacity=".45" fill="url(#linearGradient3989)" d="m12,7c-3.324,0-6,2.676-6,6v56c0,3.324 2.676,6 6,6h12l-3,16 23-16h40c3.324,0 6-2.676 6-6v-56c0-3.324-2.676-6-6-6h-72z"/>
<path fill="url(#linearGradient3948)" d="m12,6c-3.324,0-6,2.676-6,6v56c0,3.324 2.676,6 6,6h12l-3,16 23-16h40c3.324,0 6-2.676 6-6v-56c0-3.324-2.676-6-6-6h-72z"/>
<path fill="url(#linearGradient3151)" d="m-98,6h72a6,6 0 0,1 6,6v72a6,6 0 0,1 -6,6h-72a6,6 0 0,1 -6-6v-72a6,6 0 0,1 6-6"/>
<path opacity=".5" fill="url(#linearGradient3153)" d="m-98,6c-3.324,0-6,2.676-6,6v2 68 2c0,.3347 .0413,.6507 .0937,.9688 .0487,.2956 .097,.5969 .1875,.875 .01,.0304 .0209,.0636 .0312,.0938 .0989,.2878 .2349,.5475 .375,.8125 .1446,.2735 .3156,.5356 .5,.7812 .1844,.2456 .3738,.4735 .5938,.6875 .4399,.4281 .9429,.8145 1.5,1.0938 .2785,.1396 .5735,.2469 .875,.3438-.2562-.1002-.4867-.2363-.7188-.375-.007-.0044-.0239,.0045-.0312,0-.0319-.0193-.0623-.0425-.0937-.0625-.1204-.0767-.231-.1635-.3438-.25-.1062-.0808-.2133-.1611-.3125-.25-.1779-.1614-.3475-.3454-.5-.5312-.1076-.1303-.2184-.2653-.3125-.4062-.0251-.0384-.0384-.0859-.0625-.125-.0648-.103-.1302-.2045-.1875-.3125-.101-.1947-.2057-.4157-.2812-.625-.008-.0218-.0236-.0405-.0312-.0625-.0318-.0919-.0358-.1868-.0625-.2812-.0303-.1066-.0704-.203-.0937-.3125-.073-.3415-.1251-.6982-.1251-1.0625v-2-68-2c0-2.7818 2.2181-5 5-5h2 68 2c2.7818,0 5,2.2182 5,5v2 68 2c0,.3643-.0521,.721-.125,1.0625-.0441,.2069-.0884,.3977-.1562,.5938-.0077,.022-.0233,.0407-.0312,.0625-.0627,.1737-.1384,.3674-.2188,.5312-.0416,.0828-.079,.17-.125,.25-.0546,.0972-.1268,.1883-.1875,.2812-.0941,.141-.2049,.276-.3125,.4062-.1432,.1744-.3031,.347-.4688,.5-.0112,.0102-.02,.0212-.0312,.0312-.1384,.1256-.2851,.2344-.4375,.3438-.1026,.0731-.2043,.1534-.3125,.2188-.0074,.0045-.0238-.0044-.0312,0-.232,.1387-.4625,.2748-.7188,.375 .3015-.0968 .5965-.2041 .875-.3438 .5571-.2792 1.0601-.6657 1.5-1.0938 .22-.214 .4094-.4419 .5938-.6875 .1844-.2456 .3554-.5077 .5-.7812 .1401-.265 .2761-.5247 .375-.8125 .0104-.0308 .0213-.0627 .0312-.0938 .0905-.2781 .1388-.5794 .1875-.875 .0524-.318 .0938-.634 .0938-.9688v-2-68-2c0-3.324-2.676-6-6-6h-72z"/>
<path opacity=".2" fill="url(#radialGradient3155)" d="m-98,90c-3.324,0-6-2.676-6-6v-2-68-2c0-.3347 .0413-.6507 .0937-.9688 .0487-.2956 .097-.5969 .1875-.875 .01-.0304 .0209-.0636 .0312-.0938 .0989-.2878 .2349-.5475 .375-.8125 .1446-.2735 .3156-.5356 .5-.7812 .1844-.2456 .3738-.4735 .5938-.6875 .4399-.4281 .9429-.8145 1.5-1.0938 .2785-.1396 .5735-.2469 .875-.3438-.2562,.1002-.4867,.2363-.7188,.375-.007,.0044-.0239-.0045-.0312,0-.0319,.0193-.0623,.0425-.0937,.0625-.1204,.0767-.231,.1635-.3438,.25-.1062,.0808-.2133,.1611-.3125,.25-.1779,.1614-.3475,.3454-.5,.5312-.1076,.1303-.2184,.2653-.3125,.4062-.0251,.0384-.0384,.0859-.0625,.125-.0648,.103-.1302,.2045-.1875,.3125-.101,.1947-.2057,.4157-.2812,.625-.008,.0218-.0236,.0405-.0312,.0625-.0318,.092-.0358,.1868-.0625,.2812-.0303,.1066-.0704,.203-.0937,.3125-.073,.3415-.1251,.6982-.1251,1.0625v2 68 2c0,2.7818 2.2181,5 5,5h2 68 2c2.7818,0 5-2.2182 5-5v-2-68-2c0-.3643-.0521-.721-.125-1.0625-.0441-.2069-.0884-.3977-.1562-.5938-.0077-.022-.0233-.0407-.0312-.0625-.0627-.1737-.1384-.3674-.2188-.5312-.0416-.0828-.079-.17-.125-.25-.0546-.0972-.1268-.1883-.1875-.2812-.0941-.141-.2049-.276-.3125-.4062-.1432-.1745-.3031-.347-.4688-.5-.0112-.0102-.02-.0211-.0312-.0312-.1384-.1256-.2851-.2344-.4375-.3438-.1026-.0732-.2043-.1534-.3125-.2188-.0074-.0045-.0238,.0044-.0312,0-.232-.1387-.4625-.2748-.7188-.375 .3015,.0968 .5965,.2041 .875,.3438 .5571,.2792 1.0601,.6657 1.5,1.0938 .22,.214 .4094,.4419 .5938,.6875 .1844,.2456 .3554,.5077 .5,.7812 .1401,.265 .2761,.5247 .375,.8125 .0104,.0308 .0213,.0627 .0312,.0938 .0905,.2781 .1388,.5794 .1875,.875 .0524,.318 .0938,.634 .0938,.9688v2 68 2c0,3.324-2.676,6-6,6h-72z"/>
<path opacity=".4" fill="url(#linearGradient3967)" d="m12,6c-3.324,0-6,2.676-6,6v56c0,2.9085 2.0422,5.3174 4.7812,5.875-2.2021-.5377-3.8125-2.4972-3.8125-4.875v-56c0-2.7974 2.2339-5.0312 5.0312-5.0312h72c2.7974,0 5.0312,2.2339 5.0312,5.0312v56c0,2.3778-1.6104,4.3373-3.8125,4.875 2.739-.5576 4.7812-2.9665 4.7812-5.875v-56c0-3.324-2.676-6-6-6h-72zm12,68.0312-3,15.9688 22.9688-15.9688a.9813,.9813 0 0,0 -.5312,.1562l-21.0312,14.625 2.5625-13.625a.9813,.9813 0 0,0 -.9688-1.1562z"/>
<path opacity=".2" fill="url(#radialGradient3982)" d="m12,6c-3.324,0-6,2.676-6,6v56c0,3.324 2.676,6 6,6h12l-3,16 23-16h40c3.324,0 6-2.676 6-6v-56c0-3.324-2.676-6-6-6h-72zm0,2 72,0c2.2515,0 4,1.7485 4,4v56c0,2.2515-1.7485,4-4,4h-40a1.9986,1.9986 0 0,0 -1.1562,.375l-18.9688,13.1875 2.0938-11.1875a1.9986,1.9986 0 0,0 -1.9688-2.375h-12c-2.2515,0-4-1.7485-4-4v-56c0-2.2515 1.7485-4 4-4z"/>
<path fill="url(#linearGradient2890)" d="m13.1867,9.9869c-1.8171,0-3.1867,1.3633-3.1867,3.2085v37.6726c5.4268-12.4907 16.1081-22.3176 35.8392-16.0425 19.8411,6.2974 32.4985-2.9482 40.1608-7.1591v-14.471c0-1.8452-1.3696-3.2085-3.1867-3.2085h-69.6266z"/>
<path opacity=".1" fill="url(#linearGradient3613)" filter="url(#filter4055)" stroke="#fff" stroke-linecap="round" stroke-width=".58" d="m27,15h42a12,12 0 0,1 12,12v42a12,12 0 0,1 -12,12h-42a12,12 0 0,1 -12-12v-42a12,12 0 0,1 12-12" clip-path="url(#clipPath3613)" transform="matrix(1 0 0 .74384 0 3.84233)"/>
<g line-height="125%">
<g fill="#5e1a50">
<path opacity=".05" d="m61.8125,14c-.8177,.0102-1.5813,.1212-2.125,.0625a.9858,.9858 0 0,0 -.0938-.0312h-4.1562c-2.512-.0022-3.6691,3.1844-2.0625,4.9688l-.0312,.0312c4.6054,6.4737 7.0589,14.4023 6.7812,22.3438a.9858,.9858 0 0,0 0,.0625c.1722,7.7857-2.4825,15.4952-7,21.8438-.0052,.0073 .0052,.024 0,.0312-.0031,.0044-.0281-.0044-.0312,0-1.4303,2.0027 .3529,4.8368 2.75,4.5938v.0625c2.375-.0611 4.8759,.1044 7.4062-.125a.9858,.9858 0 0,0 .25-.0312c1.068-.399 1.7188-1.267 2.1875-2.0312 .4687-.7643 .8234-1.4768 1.1875-1.9375a.9858,.9858 0 0,0 .0625-.0938c5.9929-9.6168 7.254-21.5104 5.1875-32.4062-1.2269-5.9425-3.8501-11.6002-7.4688-16.4375a.9858,.9858 0 0,0 -.2188-.2188c-.8598-.5952-1.8073-.6977-2.625-.6875zm-35.9062,10.0312c-1.0716,.0098-1.9547,.6608-2.4062,1.4375-.4239,.7292-.5171,1.595-.4062,2.4062h-.0625c.0577,2.5079-.0975,5.1242 .125,7.7812a.9858,.9858 0 0,0 .0312,.1562c.3017,1.1038 1.2364,1.7749 2.0938,2 .8459,.2221 1.6697,.162 2.3125,.125v.0312c2.2668-.0566 4.6321,.0981 7.0625-.125a.9858,.9858 0 0,0 .1562-.0312c1.1038-.3017 1.7749-1.2364 2-2.0938 .2221-.846 .162-1.6697 .125-2.3125h.0312c-.0566-2.2668 .0981-4.6321-.125-7.0625a.9858,.9858 0 0,0 -.0312-.1562c-.3017-1.1038-1.2364-1.7749-2.0938-2-.8346-.2191-1.6423-.1617-2.2812-.125v-.0312h-6.5312zm14,11c-1.0716,.0098-1.9547,.6608-2.4062,1.4375-.4239,.7292-.5171,1.595-.4062,2.4062h-.0625c.0841,1.8386-.1942,3.9229 .1875,6.0625a.9858,.9858 0 0,0 .0625,.1875c.5119,1.1895 1.7004,1.7122 2.6562,1.8125 .9558,.1003 1.8423-.0363 2.4062,0a.9858,.9858 0 0,0 .0625,.0312c3.9614-.0407 7.9758,.084 12-.0625a.9858,.9858 0 0,0 .0938-.0312c1.0688-.1514 1.8571-.944 2.1875-1.75 .3175-.7745 .3332-1.5606 .25-2.2812h.0312c-.0822-1.7401 .1952-3.7279-.1875-5.7812a.9858,.9858 0 0,0 -.0625-.1875c-.5119-1.1895-1.7004-1.7122-2.6562-1.8125-.9558-.1003-1.8423,.0363-2.4062,0a.9858,.9858 0 0,0 -.0625-.0312h-11.6875zm-13.875,9c-1.0716,.0098-1.9547,.6608-2.4062,1.4375-.4239,.7292-.5171,1.595-.4062,2.4062h-.0625c.0565,2.477-.0959,5.0615 .125,7.6875a.9858,.9858 0 0,0 .0312,.1562c.2579,.9746 1.0147,1.6243 1.7812,1.9062 .2374,.0873 .4504,.0211 .6875,.0625-.594,1.3448-1.4626,2.6398-2.4062,3.9688a.9858,.9858 0 0,0 -.0938,.1875c-.915,2.1293 1.0032,4.3998 3.2188,4.0938v.0312c1.6421-.0841 3.4969,.205 5.4688-.1875a.9858,.9858 0 0,0 .2812-.0938c1.823-1.0078 2.4376-2.9916 3.0938-4.2188a.9858,.9858 0 0,0 .0312-.0938c2.0245-4.7749 1.5637-9.8728 1.5625-14.5625a.9858,.9858 0 0,0 -.0312-.0625c-.0571-1.0871-.7623-1.9393-1.5625-2.3438-.7498-.379-1.5681-.4105-2.3438-.3125v-.0625h-6.9688z"/>
<path opacity=".1" d="m55.4375,15.0312c-1.7096-.0015-2.5013,2.297-1.2904,3.4456 4.7292,6.6477 7.2621,14.7686 6.9766,22.9356 .1778,8.039-2.5725,15.9497-7.2175,22.4625-.9872,1.3402 .2844,3.3368 1.9079,3.0938 2.4427-.0628 4.9227,.1256 7.3421-.0938 1.5297-.5715 1.9872-2.4633 2.9316-3.6583 5.8326-9.3596 7.0857-20.9827 5.0575-31.6767-1.1958-5.792-3.7358-11.3152-7.2703-16.04-1.2393-.8579-2.864-.3155-4.2828-.4688-1.3849,0-2.7698,0-4.1547,0zm-29.5312,10c-1.4358,.0131-2.0979,1.57-1.875,2.8174 .0591,2.569-.1204,5.1577 .0938,7.7138 .4156,1.5204 2.1691,1.4788 3.4309,1.4062 2.3333-.0583 4.6861,.1193 7.0066-.0938 1.5204-.4156 1.4788-2.1691 1.4062-3.4309-.0583-2.3333 .1193-4.6861-.0938-7.0066-.4156-1.5204-2.1691-1.4788-3.4309-1.4062-2.1793,0-4.3586,0-6.5379,0zm14,11c-1.4358,.0131-2.0979,1.57-1.875,2.8174 .0898,1.9623-.1886,3.9685 .1562,5.9013 .7259,1.6868 2.7754,1.1261 4.2171,1.2188 3.9885-.0409 7.9906,.0823 11.9704-.0625 1.4372-.2035 1.7509-1.8328 1.5938-3.0378-.0883-1.8681 .1864-3.7797-.1562-5.6184-.7259-1.6868-2.7754-1.1261-4.2171-1.2188-3.8964,0-7.7928,0-11.6892,0zm-13.875,9c-1.4358,.0131-2.0979,1.57-1.875,2.8174 .0578,2.5378-.1187,5.095 .0938,7.6201 .3449,1.3036 1.8234,1.5329 2.9688,1.4062-.5436,2.0242-1.8568,3.6897-3.0312,5.3438-.6143,1.4294 .7457,3.0074 2.2368,2.75 1.78-.0912 3.6143,.1906 5.3569-.1562 1.3811-.7635 1.9868-2.4734 2.7014-3.8098 1.9018-4.4855 1.4561-9.441 1.4549-14.1902-.0766-1.4588-1.689-1.9823-2.9276-1.7812-2.3262,0-4.6524,0-6.9786,0z"/>
<path opacity=".15" d="m55.3438,16.0312a.9813,.9813 0 0,0 -.625,1.5312c1.3181,1.9113 2.4415,3.7743 3.375,5.625 .9313,1.8463 1.6943,3.7339 2.2812,5.625a.9813,.9813 0 0,0 0,.0312c.6048,1.8962 1.0671,3.8106 1.3438,5.8125 .2772,1.9892 .4062,4.1159 .4062,6.3438-0,2.2449-.1288,4.3678-.4062,6.375-.2766,1.9848-.7385,3.8838-1.3438,5.7812a.9813,.9813 0 0,0 0,.0312c-.5865,1.8898-1.3504,3.7648-2.2812,5.5938-.9345,1.8525-2.0565,3.728-3.375,5.6562a.9813,.9813 0 0,0 .8125,1.5312h7.0625a.9813,.9813 0 0,0 .8125-.4062c1.3143-1.8947 2.446-3.8013 3.4062-5.6875 .9594-1.8845 1.7564-3.8246 2.375-5.8125 .0029-.0092-.0028-.0221 0-.0312 .632-1.9868 1.1146-4.0745 1.4062-6.2188 .3095-2.1669 .4375-4.4261 .4375-6.8438-0-2.4231-.1303-4.7156-.4375-6.8438-.0014-.0103 .0014-.0209 0-.0312-.2921-2.1336-.777-4.195-1.4062-6.1562-.0029-.0092 .0029-.022 0-.0312-.6191-1.989-1.4151-3.9129-2.375-5.7812-.9602-1.8862-2.0919-3.7928-3.4062-5.6875a.9813,.9813 0 0,0 -.8125-.4062h-7.0625a.9813,.9813 0 0,0 -.1875,0zm-29.5312,10a.9813,.9813 0 0,0 -.7812,.9688v8a.9813,.9813 0 0,0 .9688,.9688h8a.9813,.9813 0 0,0 .9688-.9688v-8a.9813,.9813 0 0,0 -.9688-.9688h-8a.9813,.9813 0 0,0 -.1875,0zm14,11a.9813,.9813 0 0,0 -.7812,.9688v6a.9813,.9813 0 0,0 .9688,.9688h14a.9813,.9813 0 0,0 .9688-.9688v-6a.9813,.9813 0 0,0 -.9688-.9688h-14a.9813,.9813 0 0,0 -.1875,0zm-13.875,9a.9813,.9813 0 0,0 -.7812,.9688v7.9062a.9813,.9813 0 0,0 .9688,.9688h2.4062c-.0386,.1705-.0255,.2893-.0938,.5625-.1645,.6588-.4383,1.3379-.75,2.0312-.3157,.7021-.6448,1.3948-1.0625,2.0312a.9813,.9813 0 0,0 -.0312,0c-.4101,.6507-.8497,1.2719-1.3438,1.875a.9813,.9813 0 0,0 .75,1.5938h5.0312a.9813,.9813 0 0,0 .7812-.375c.4753-.6499 .9485-1.3411 1.3438-2.0938 .3969-.7559 .7278-1.6077 1-2.5 .2738-.8786 .4608-1.8026 .5938-2.8125 .0014-.0108-.0014-.0205 0-.0312 .1521-1.0329 .2187-2.1826 .2188-3.4062v-5.75a.9813,.9813 0 0,0 -.9688-.9688h-7.875a.9813,.9813 0 0,0 -.1875,0z"/>
<path opacity=".3" d="m55.5312,17c1.341,1.9445 2.482,3.8558 3.4375,5.75 .9555,1.8942 1.7403,3.8368 2.3438,5.7812 .6202,1.9445 1.09,3.9382 1.375,6 .285,2.0451 .4062,4.2058 .4062,6.4688-0,2.2797-.1213,4.4382-.4062,6.5-.285,2.0451-.7548,4.0243-1.375,5.9688-.6035,1.9445-1.3883,3.8726-2.3438,5.75-.9555,1.8942-2.0965,3.82-3.4375,5.7812h7.0625c1.2907-1.8607 2.405-3.7186 3.3438-5.5625 .9387-1.8439 1.709-3.743 2.3125-5.6875 .6202-1.9445 1.09-3.9672 1.375-6.0625 .3017-2.1121 .4375-4.3384 .4375-6.7188-0-2.3971-.1358-4.6402-.4375-6.7188-.285-2.0953-.7548-4.1035-1.375-6.0312-.6035-1.9444-1.3738-3.8291-2.3125-5.6562-.9387-1.8439-2.053-3.7018-3.3438-5.5625h-7.0625zm-29.5312,10v8h8v-8h-8zm14,11 0,6 14,0 0-6-14,0zm-13.875,9 0,7.9062 3.5312,0c-0,.7135-.0986,1.0499-.2812,1.7812-.1827,.7313-.4525,1.4562-.7812,2.1875-.3288,.7313-.6996,1.4606-1.1562,2.1562-.4384,.6956-.9261,1.3444-1.4375,1.9688h5.0312c.4566-.6243 .8847-1.2731 1.25-1.9688 .3653-.6957 .6818-1.4742 .9375-2.3125 .2557-.8205 .4346-1.7065 .5625-2.6875 .1461-.981 .2187-2.0862 .2188-3.2812v-5.75h-7.875z"/>
</g>
<path fill="#fff" d="m55.5312,16c1.341,1.9445 2.482,3.8558 3.4375,5.75 .9555,1.8942 1.7403,3.8368 2.3438,5.7812 .6202,1.9445 1.09,3.9382 1.375,6 .285,2.0451 .4062,4.2058 .4062,6.4688-0,2.2797-.1213,4.4382-.4062,6.5-.285,2.0451-.7548,4.0243-1.375,5.9688-.6035,1.9445-1.3883,3.8726-2.3438,5.75-.9555,1.8942-2.0965,3.82-3.4375,5.7812h7.0625c1.2907-1.8607 2.405-3.7186 3.3438-5.5625 .9387-1.8439 1.709-3.743 2.3125-5.6875 .6202-1.9445 1.09-3.9672 1.375-6.0625 .3017-2.1121 .4375-4.3384 .4375-6.7188-0-2.3971-.1358-4.6402-.4375-6.7188-.285-2.0953-.7548-4.1035-1.375-6.0312-.6035-1.9444-1.3738-3.8291-2.3125-5.6562-.9387-1.8439-2.053-3.7018-3.3438-5.5625h-7.0625zm-29.5312,10v8h8v-8h-8zm14,11 0,6 14,0 0-6-14,0zm-13.875,9 0,7.9062 3.5312,0c-0,.7135-.0986,1.0499-.2812,1.7812-.1827,.7313-.4525,1.4562-.7812,2.1875-.3288,.7313-.6996,1.4606-1.1562,2.1562-.4384,.6956-.9261,1.3444-1.4375,1.9688h5.0312c.4566-.6243 .8847-1.2731 1.25-1.9688 .3653-.6957 .6818-1.4742 .9375-2.3125 .2557-.8205 .4346-1.7065 .5625-2.6875 .1461-.981 .2187-2.0862 .2188-3.2812v-5.75h-7.875z"/>
</g>
</svg>
