<svg xmlns="http://www.w3.org/2000/svg" viewBox="0 0 96 96" xmlns:xlink="http://www.w3.org/1999/xlink">
<defs>
<clipPath id="clipPath3613">
<path fill="#fff" d="m12,6h72a6,6 0 0,1 6,6v72a6,6 0 0,1 -6,6h-72a6,6 0 0,1 -6-6v-72a6,6 0 0,1 6-6"/>
</clipPath>
<filter color-interpolation-filters="sRGB" id="filter3684">
<feGaussianBlur stdDeviation="1.49503"/>
</filter>
<filter width="1.384" x="-.192" y="-.192" height="1.384" color-interpolation-filters="sRGB" id="filter3794">
<feGaussianBlur stdDeviation="5.28"/>
</filter>
<linearGradient id="linearGradient3613" xlink:href="#linearGradient3737" y1="20.221" y2="138.661" x2="0" gradientUnits="userSpaceOnUse"/>
<linearGradient gradientTransform="matrix(1.02381 0 0 1.0119 -1.14286 -98.07143)" id="linearGradient3780-7" xlink:href="#ButtonShadow-0" y1="6.132" y2="90.239" x2="0" gradientUnits="userSpaceOnUse"/>
<linearGradient gradientTransform="matrix(0 1 -1 0 186 0)" id="linearGradient3716" xlink:href="#linearGradient3695" x1="15" x2="81" gradientUnits="userSpaceOnUse"/>
<linearGradient gradientTransform="matrix(0 -1 -1 0 96 96)" id="linearGradient3764" xlink:href="#linearGradient3770" x1="23.25" x2="72.75" gradientUnits="userSpaceOnUse"/>
<linearGradient gradientTransform="matrix(1.00587 0 0 .99417 100 0)" id="ButtonShadow-0" y1="92.54" y2="7.017" x2="0" gradientUnits="userSpaceOnUse">
<stop offset="0"/>
<stop offset="1" stop-opacity=".588"/>
</linearGradient>
<linearGradient gradientTransform="matrix(0 -1 1 0 0 96)" id="linearGradient3768" xlink:href="#linearGradient3758" x1="23.25" x2="72.75" gradientUnits="userSpaceOnUse"/>
<linearGradient id="linearGradient3786" xlink:href="#linearGradient3780" x1="9.091" x2="83.843" gradientUnits="userSpaceOnUse"/>
<linearGradient gradientTransform="translate(0 -97)" id="linearGradient3721" xlink:href="#ButtonShadow-0" y1="6.132" y2="90.239" x2="0" gradientUnits="userSpaceOnUse"/>
<linearGradient id="linearGradient3663">
<stop offset="0" stop-color="#fff"/>
<stop offset="1" stop-color="#b9b9b9"/>
</linearGradient>
<linearGradient id="linearGradient3703">
<stop offset="0" stop-color="#fff"/>
<stop offset=".6" stop-color="#fff" stop-opacity=".471"/>
<stop offset="1" stop-color="#fff" stop-opacity="0"/>
</linearGradient>
<linearGradient id="linearGradient3695">
<stop offset="0" stop-color="#fff"/>
<stop offset="1" stop-color="#bebebe"/>
</linearGradient>
<linearGradient id="linearGradient3770">
<stop offset="0" stop-color="#ff8080"/>
<stop offset="1" stop-color="#a00"/>
</linearGradient>
<linearGradient id="linearGradient3780">
<stop offset="0" stop-color="#fff"/>
<stop offset="1" stop-color="#fff" stop-opacity="0"/>
</linearGradient>
<linearGradient id="linearGradient3758">
<stop offset="0" stop-color="#fff6d5"/>
<stop offset="1" stop-color="#f1b31e"/>
</linearGradient>
<linearGradient id="linearGradient3684">
<stop offset="0" stop-color="#5c88bc"/>
<stop offset=".788" stop-color="#5c88bc"/>
<stop offset="1" stop-color="#416da4"/>
</linearGradient>
<linearGradient id="linearGradient3188" xlink:href="#linearGradient3737" y1="6" y2="63.893" x2="0" gradientUnits="userSpaceOnUse"/>
<linearGradient id="linearGradient3737">
<stop offset="0" stop-color="#fff"/>
<stop offset="1" stop-color="#fff" stop-opacity="0"/>
</linearGradient>
<radialGradient cx="48" cy="48" gradientTransform="matrix(0 -1.91667 2 0 -48 140.00001)" r="21" id="radialGradient3650" gradientUnits="userSpaceOnUse">
<stop offset="0" stop-color="#ef2929"/>
<stop offset=".801" stop-color="#ef2929"/>
<stop offset="1" stop-color="#df1616"/>
</radialGradient>
<radialGradient cx="25.873" cy="48.018" gradientTransform="matrix(1 0 0 1.19514 0 -9.37033)" r="37.376" id="radialGradient3788" xlink:href="#linearGradient3663" gradientUnits="userSpaceOnUse"/>
<radialGradient cx="48" cy="48" gradientTransform="matrix(0 1 -1 0 96 110)" r="42" id="radialGradient3694" xlink:href="#linearGradient3684" gradientUnits="userSpaceOnUse"/>
<radialGradient cx="48" cy="67.25" gradientTransform="matrix(1 0 0 1.04348 0 -22.17391)" r="40.25" id="radialGradient3660" gradientUnits="userSpaceOnUse">
<stop offset="0" stop-color="#75c624"/>
<stop offset=".783" stop-color="#75c624"/>
<stop offset="1" stop-color="#60a914"/>
</radialGradient>
<radialGradient cx="48" cy="48" gradientTransform="matrix(.70857 .70857 -.69994 .69994 47.58554 -19.60834)" r="52.679" id="radialGradient3709" xlink:href="#linearGradient3703" gradientUnits="userSpaceOnUse"/>
<radialGradient cx="48" cy="48" gradientTransform="matrix(2 0 0 1.91667 -48 -44)" r="21" id="radialGradient3670" gradientUnits="userSpaceOnUse">
<stop offset="0" stop-color="#f8e076"/>
<stop offset=".799" stop-color="#f8e076"/>
<stop offset="1" stop-color="#f3db44"/>
</radialGradient>
<radialGradient cx="48" cy="48" gradientTransform="matrix(-.70857 .70857 -.69994 -.69994 115.60834 47.58554)" r="52.679" id="radialGradient3661" xlink:href="#linearGradient3703" gradientUnits="userSpaceOnUse"/>
<radialGradient cx="47.985" cy="48.018" gradientTransform="translate(-1.51778 0)" r="37.376" id="radialGradient3714" xlink:href="#linearGradient3663" gradientUnits="userSpaceOnUse"/>
<radialGradient cx="37.646" cy="48" gradientTransform="matrix(0 1 -1 0 96 10)" r="42" id="radialGradient3682" xlink:href="#linearGradient3684" gradientUnits="userSpaceOnUse"/>
<radialGradient cx="48" cy="90.172" gradientTransform="matrix(1.15731 0 0 .99591 -7.55102 .19713)" r="42" id="radialGradient3619" xlink:href="#linearGradient3737" gradientUnits="userSpaceOnUse"/>
</defs>
<path opacity=".08" fill="url(#linearGradient3780-7)" d="m12-95.0312c-5.5111,0-10.0312,4.5202-10.0312,10.0312v71c0,5.5111 4.5202,10.0312 10.0312,10.0312h72c5.5111,0 10.0312-4.5202 10.0312-10.0312v-71c0-5.5111-4.5202-10.0312-10.0312-10.0312h-72z" transform="scale(1 -1)"/>
<path opacity=".1" fill="url(#linearGradient3780-7)" d="m12-94.0312c-4.9716,0-9.0312,4.0596-9.0312,9.0312v71c0,4.9716 4.0596,9.0312 9.0312,9.0312h72c4.9716,0 9.0312-4.0596 9.0312-9.0312v-71c0-4.9716-4.0596-9.0312-9.0312-9.0312h-72z" transform="scale(1 -1)"/>
<path opacity=".2" fill="url(#linearGradient3780-7)" d="m12-93c-4.4091,0-8,3.5909-8,8v71c0,4.4091 3.5909,8 8,8h72c4.4091,0 8-3.5909 8-8v-71c0-4.4091-3.5909-8-8-8h-72z" transform="scale(1 -1)"/>
<path opacity=".3" fill="url(#linearGradient3780-7)" d="m12-92h72a7,7 0 0,1 7,7v71a7,7 0 0,1 -7,7h-72a7,7 0 0,1 -7-7v-71a7,7 0 0,1 7-7" transform="scale(1 -1)"/>
<path opacity=".45" fill="url(#linearGradient3721)" d="m12-91h72a6,6 0 0,1 6,6v72a6,6 0 0,1 -6,6h-72a6,6 0 0,1 -6-6v-72a6,6 0 0,1 6-6" transform="scale(1 -1)"/>
<path fill="url(#radialGradient3682)" d="m12,16h72a6,6 0 0,1 6,6v62a6,6 0 0,1 -6,6h-72a6,6 0 0,1 -6-6v-62a6,6 0 0,1 6-6"/>
<path fill="#85a3c9" d="m48,83c8.9573,0 17.9158-3.4158 24.75-10.25l-1.4062-1.4062c-12.8873,12.8873-33.8002,12.8873-46.6875,0l-1.4062,1.4062c6.8342,6.8342 15.7927,10.25 24.75,10.25z"/>
<path fill="url(#radialGradient3660)" d="M 12,6 C 10.338,6 8.8345,6.6655 7.75,7.75 L 48,48 88.25,7.75 C 87.1655,6.6655 85.662,6 84,6 L 12,6 z"/>
<path fill="url(#radialGradient3650)" d="M 7.75,7.75 C 6.6655,8.8345 6,10.338 6,12 l 0,72 c 0,1.662 0.6655,3.1655 1.75,4.25 L 48,48 7.75,7.75 z"/>
<path fill="url(#radialGradient3670)" d="m88.25,7.75-40.25,40.25 40.25,40.25c1.0845-1.0845 1.75-2.588 1.75-4.25v-72c0-1.662-.6655-3.1655-1.75-4.25z"/>
<path opacity=".5" fill="url(#linearGradient3188)" d="m12,6c-3.324,0-6,2.676-6,6v2 68 2c0,.3347 .0413,.6507 .0938,.9688 .0487,.2956 .097,.5969 .1875,.875 .0099,.0304 .0209,.0636 .0312,.0938 .0989,.2878 .2349,.5475 .375,.8125 .1446,.2735 .3156,.5356 .5,.7812 .1844,.2456 .3738,.4735 .5938,.6875 .4399,.4281 .9429,.8145 1.5,1.0938 .2785,.1396 .5735,.2469 .875,.3438-.2562-.1002-.4867-.2363-.7188-.375-.0074-.0044-.0239,.0045-.0312,0-.0319-.0193-.0623-.0425-.0938-.0625-.1204-.0767-.231-.1635-.3438-.25-.1062-.0808-.2133-.1611-.3125-.25-.1779-.1614-.3475-.3454-.5-.5312-.1076-.1303-.2184-.2653-.3125-.4062-.0251-.0384-.0384-.0859-.0625-.125-.0648-.103-.1302-.2045-.1875-.3125-.101-.1947-.2057-.4157-.2812-.625-.008-.0218-.0236-.0405-.0312-.0625-.0318-.0919-.0358-.1868-.0625-.2812-.0303-.1066-.0704-.203-.0938-.3125-.0729-.3415-.125-.6982-.125-1.0625v-2-68-2c0-2.7818 2.2182-5 5-5h2 68 2c2.7818,0 5,2.2182 5,5v2 68 2c0,.3643-.0521,.721-.125,1.0625-.0442,.2069-.0884,.3977-.1562,.5938-.0077,.022-.0233,.0407-.0312,.0625-.0627,.1737-.1384,.3674-.2188,.5312-.0416,.0828-.079,.17-.125,.25-.0546,.0972-.1268,.1883-.1875,.2812-.0941,.141-.2049,.276-.3125,.4062-.1432,.1744-.3031,.347-.4688,.5-.0112,.0102-.02,.0212-.0312,.0312-.1384,.1256-.2851,.2344-.4375,.3438-.1026,.0731-.2043,.1534-.3125,.2188-.0074,.0045-.0238-.0044-.0312,0-.232,.1387-.4625,.2748-.7188,.375 .3015-.0968 .5965-.2041 .875-.3438 .5571-.2792 1.0601-.6657 1.5-1.0938 .22-.214 .4094-.4419 .5938-.6875 .1844-.2456 .3554-.5077 .5-.7812 .1401-.265 .2761-.5247 .375-.8125 .0104-.0308 .0213-.0627 .0312-.0938 .0905-.2781 .1388-.5794 .1875-.875 .0524-.318 .0938-.634 .0938-.9688v-2-68-2c0-3.324-2.676-6-6-6h-72z"/>
<path opacity=".2" fill="url(#radialGradient3619)" d="m12,90c-3.324,0-6-2.676-6-6v-2-68-2c0-.3347 .0413-.6507 .0938-.9688 .0487-.2956 .097-.5969 .1875-.875 .0099-.0304 .0209-.0636 .0312-.0938 .0989-.2878 .2349-.5475 .375-.8125 .1446-.2735 .3156-.5356 .5-.7812 .1844-.2456 .3738-.4735 .5938-.6875 .4399-.4281 .9429-.8145 1.5-1.0938 .2785-.1396 .5735-.2469 .875-.3438-.2562,.1002-.4867,.2363-.7188,.375-.0074,.0044-.0239-.0045-.0312,0-.0319,.0193-.0623,.0425-.0938,.0625-.1204,.0767-.231,.1635-.3438,.25-.1062,.0808-.2133,.1611-.3125,.25-.1779,.1614-.3475,.3454-.5,.5312-.1076,.1303-.2184,.2653-.3125,.4062-.0251,.0384-.0384,.0859-.0625,.125-.0648,.103-.1302,.2045-.1875,.3125-.101,.1947-.2057,.4157-.2812,.625-.008,.0218-.0236,.0405-.0312,.0625-.0318,.092-.0358,.1868-.0625,.2812-.0303,.1066-.0704,.203-.0938,.3125-.0729,.3415-.125,.6982-.125,1.0625v2 68 2c0,2.7818 2.2182,5 5,5h2 68 2c2.7818,0 5-2.2182 5-5v-2-68-2c0-.3643-.0521-.721-.125-1.0625-.0442-.2069-.0884-.3977-.1562-.5938-.0077-.022-.0233-.0407-.0312-.0625-.0627-.1737-.1384-.3674-.2188-.5312-.0416-.0828-.079-.17-.125-.25-.0546-.0972-.1268-.1883-.1875-.2812-.0941-.141-.2049-.276-.3125-.4062-.1432-.1745-.3031-.347-.4688-.5-.0112-.0102-.02-.0211-.0312-.0312-.1384-.1256-.2851-.2344-.4375-.3438-.1026-.0732-.2043-.1534-.3125-.2188-.0074-.0045-.0238,.0044-.0312,0-.232-.1387-.4625-.2748-.7188-.375 .3015,.0968 .5965,.2041 .875,.3438 .5571,.2792 1.0601,.6657 1.5,1.0938 .22,.214 .4094,.4419 .5938,.6875 .1844,.2456 .3554,.5077 .5,.7812 .1401,.265 .2761,.5247 .375,.8125 .0104,.0308 .0213,.0627 .0312,.0938 .0905,.2781 .1388,.5794 .1875,.875 .0524,.318 .0938,.634 .0938,.9688v2 68 2c0,3.324-2.676,6-6,6h-72z"/>
<path fill="url(#radialGradient3694)" d="m12,116h72a6,6 0 0,1 6,6v72a6,6 0 0,1 -6,6h-72a6,6 0 0,1 -6-6v-72a6,6 0 0,1 6-6"/>
<path opacity=".3" d="m48,13c-8.9573,0-17.9158,3.4158-24.75,10.25l1.4062,1.4062c12.8873-12.8873 33.8002-12.8873 46.6875,0l1.4062-1.4062c-6.8342-6.8342-15.7927-10.25-24.75-10.25z"/>
<path fill="url(#linearGradient3764)" d="m13,48c0-8.9573 3.4158-17.9158 10.25-24.75l1.4062,1.4062c-12.8873,12.8873-12.8873,33.8002 0,46.6875l-1.4062,1.4062c-6.8342-6.8342-10.25-15.7927-10.25-24.75z"/>
<path fill="url(#linearGradient3768)" d="m83,48c0-8.9573-3.4158-17.9158-10.25-24.75l-1.4062,1.4062c12.8873,12.8873 12.8873,33.8002 0,46.6875l1.4062,1.4062c6.8342-6.8342 10.25-15.7927 10.25-24.75z"/>
<path fill="url(#radialGradient3709)" d="m8.9688,6.8438c-.2936,.1724-.5851,.3443-.8438,.5625l80.4688,80.4688c.2182-.2586 .3901-.5502 .5625-.8438l-80.1875-80.1875zm-1.5625,1.2812c-.2182,.2586-.3901,.5502-.5625,.8438l80.1875,80.1875c.2936-.1724 .5851-.3443 .8438-.5625l-80.4688-80.4688z"/>
<path opacity=".2" d="m8.125,7.4062c-.2588,.2183-.5004,.46-.7188,.7188l80.4688,80.4688c.2588-.2183 .5004-.46 .7188-.7188l-80.4688-80.4688z"/>
<path fill="url(#radialGradient3661)" d="m89.1562,8.9688c-.1724-.2936-.3443-.5851-.5625-.8438l-80.4688,80.4688c.2586,.2182 .5502,.3901 .8438,.5625l80.1875-80.1875zm-1.2812-1.5625c-.2586-.2182-.5502-.3901-.8438-.5625l-80.1875,80.1875c.1724,.2936 .3443,.5851 .5625,.8438l80.4688-80.4688z"/>
<path opacity=".2" d="m88.5938,8.125c-.2183-.2588-.46-.5004-.7188-.7188l-80.4688,80.4688c.2183,.2588 .46,.5004 .7188,.7188l80.4688-80.4688z"/>
<path fill="url(#radialGradient3788)" d="m83.8427,48.0178a37.3756,37.3756 0 1,1 -74.7513,0 37.3756,37.3756 0 1,1 74.7513,0z" transform="matrix(0 -.88293 .88293 0 5.60379 89.02703)"/>
<path opacity=".569" fill="#777" d="m55.6519,69.7918c-.5012-.1543-.9454-.4615-1.3909-.9622-.6278-.7056-.7068-.7426-1.9346-.9079-1.5402-.2073-6.1378-.2179-7.6912-.0177-.6142,.0792-1.2459,.2608-1.4038,.4037-.1579,.1429-.3864,.2598-.5077,.2598-.1213,0-.615,.2716-1.097,.6036-1.3325,.9177-2.2611,.9338-4.3862,.076-.9012-.3638-2.2635-.8067-3.0273-.9842-2.9257-.6798-5.7275-1.4574-5.9667-1.6559-.3479-.2887-.3138-.6917 .1789-2.1182 .3976-1.1509 .4186-1.3508 .294-2.7941-.2066-2.3921-.1643-2.7974 .3365-3.2282 .3506-.3015 .6271-.3718 1.4624-.3718 1.5011,0 1.9632-.2144 2.5628-1.1889 .4811-.782 .5002-.8714 .3092-1.4501-.2911-.882-.0893-1.9855 .5605-3.0659 .9406-1.5637 1.3927-2.5693 2.0894-4.6482 .857-2.557 .8254-2.4995 2.5903-4.7119 1.7785-2.2295 2.534-3.3456 2.684-3.9652 .0609-.2516 .0312-1.7244-.066-3.2727-.286-4.5551-.2501-6.7339 .1306-7.923 .8191-2.559 2.3065-3.8637 4.8767-4.2776 2.1256-.3423 4.9464,.5839 6.4953,2.1328 .8804,.8804 1.6643,2.3926 1.909,3.6825 .0883,.4657 .244,2.159 .3459,3.7629 .16,2.5167 .2468,3.0754 .634,4.0782 .7268,1.8824 2.5203,4.7961 4.0241,6.5375 1.2125,1.4041 1.4659,1.8109 2.026,3.2527 1.118,2.8778 1.3503,3.8058 1.4454,5.7733 .0547,1.1316 .0137,2.2155-.107,2.8288-.1895,.9635-.1826,1.0097 .2229,1.4917 .3139,.3731 .4185,.6823 .4185,1.2374 0,.407 .1212,.9953 .2693,1.3074 .3444,.7257 1.5197,1.9022 2.4378,2.4403 .8503,.4983 1.0227,.9045 .6406,1.5089-.4197,.6637-.8197,.9487-2.6113,1.8599-1.7711,.9009-2.3772,1.326-4.0091,2.8123-1.7801,1.6213-3.0414,2.0184-4.7455,1.494z"/>
<path fill="url(#linearGradient3786)" d="m83.8427,48.0178a37.3756,37.3756 0 1,1 -74.7513,0 37.3756,37.3756 0 1,1 74.7513,0z" transform="matrix(0 .3547 .59779 0 19.29557 14.51708)"/>
<path opacity=".6" filter="url(#filter3684)" d="m83.8427,48.0178a37.3756,37.3756 0 1,1 -74.7513,0 37.3756,37.3756 0 1,1 74.7513,0z" transform="matrix(0 -.90204 .90204 0 94.68612 89.91506)"/>
<path fill="url(#radialGradient3714)" d="m83.8427,48.0178a37.3756,37.3756 0 1,1 -74.7513,0 37.3756,37.3756 0 1,1 74.7513,0z" transform="matrix(0 -.88293 .88293 0 95.60379 89.02703)"/>
<path fill="url(#linearGradient3716)" d="m171,48c0-18.2254-14.7746-33-33-33-18.2254,0-33,14.7746-33,33 0,18.2254 14.7746,33 33,33 18.2254,0 33-14.7746 33-33zm-2,0c0,17.1208-13.8792,31-31,31-17.1208,0-31-13.8792-31-31 0-17.1208 13.8792-31 31-31 17.1208,0 31,13.8792 31,31z"/>
<path opacity=".05" d="m48,15c-18.2254,0-33,14.7746-33,33 0,18.2254 14.7746,33 33,33 18.2254,0 33-14.7746 33-33 0-18.2254-14.7746-33-33-33zm0,4.125c15.9988,0 28.9062,12.8762 28.9062,28.875 0,15.9988-12.9075,28.875-28.9062,28.875-15.9988,0-28.875-12.8762-28.875-28.875 0-15.9988 12.8762-28.875 28.875-28.875z"/>
<path opacity=".08" d="m48,15c-18.2254,0-33,14.7746-33,33 0,18.2254 14.7746,33 33,33 18.2254,0 33-14.7746 33-33 0-18.2254-14.7746-33-33-33zm0,2.9688c16.6154,0 30.0312,13.4159 30.0312,30.0312 0,16.6154-13.4159,30.0312-30.0312,30.0312-16.6154,0-30-13.4159-30-30.0312 0-16.6154 13.3846-30.0312 30-30.0312z"/>
<path opacity=".15" d="m48,15c-18.2254,0-33,14.7746-33,33 0,18.2254 14.7746,33 33,33 18.2254,0 33-14.7746 33-33 0-18.2254-14.7746-33-33-33zm0,1.9375c17.1827,0 31.0938,13.8798 31.0938,31.0625 0,17.1827-13.911,31.0625-31.0938,31.0625-17.1827,0-31.0625-13.8798-31.0625-31.0625 0-17.1827 13.8798-31.0625 31.0625-31.0625z"/>
<path opacity=".3" d="m48,15c-18.2254,0-33,14.7746-33,33 0,18.2254 14.7746,33 33,33 18.2254,0 33-14.7746 33-33 0-18.2254-14.7746-33-33-33zm0,.9688c17.6972,0 32.0312,14.334 32.0312,32.0312 0,17.6972-14.334,32.0312-32.0312,32.0312-17.6972,0-32.0312-14.334-32.0312-32.0312 0-17.6972 14.334-32.0312 32.0312-32.0312z"/>
<path opacity=".6" fill="#fff" d="m18.0312,47c-.0111,.3355-.0312,.6618-.0312,1 0,16.5685 13.4315,30 30,30 16.5685,0 30-13.4315 30-30 0-.3382-.0201-.6645-.0312-1-.5329,16.1007-13.7384,29-29.9688,29-16.2303,0-29.4358-12.8993-29.9688-29z"/>
<path opacity=".1" fill="url(#linearGradient3613)" filter="url(#filter3794)" stroke="#fff" stroke-linecap="round" stroke-width=".5" d="m27,15h42a12,12 0 0,1 12,12v42a12,12 0 0,1 -12,12h-42a12,12 0 0,1 -12-12v-42a12,12 0 0,1 12-12" clip-path="url(#clipPath3613)"/>
</svg>
