<svg xmlns="http://www.w3.org/2000/svg" viewBox="0 0 96 96" xmlns:xlink="http://www.w3.org/1999/xlink">
<defs>
<clipPath id="clipPath3613">
<path fill="#fff" d="m12,6h72a6,6 0 0,1 6,6v72a6,6 0 0,1 -6,6h-72a6,6 0 0,1 -6-6v-72a6,6 0 0,1 6-6"/>
</clipPath>
<filter width="1.384" x="-.192" y="-.192" height="1.384" color-interpolation-filters="sRGB" id="filter3794">
<feGaussianBlur stdDeviation="5.28"/>
</filter>
<linearGradient id="linearGradient6746">
<stop offset="0" stop-color="#19407c"/>
<stop offset=".281" stop-color="#4f87dc" stop-opacity=".506"/>
<stop offset=".451" stop-color="#2156a4"/>
<stop offset=".586" stop-color="#1b4789"/>
<stop offset=".762" stop-color="#1f5bb4"/>
<stop offset="1" stop-color="#9abaeb" stop-opacity=".98"/>
</linearGradient>
<linearGradient gradientTransform="matrix(0 .72414 -.72414 0 94.34483 1.65517)" id="linearGradient3664" xlink:href="#linearGradient6746" y1="111.186" x1="50.421" y2="9.126" x2="68.841" gradientUnits="userSpaceOnUse"/>
<linearGradient gradientTransform="matrix(1.00587 0 0 .99417 100 0)" id="ButtonShadow-0" y1="92.54" y2="7.017" x2="0" gradientUnits="userSpaceOnUse">
<stop offset="0"/>
<stop offset="1" stop-opacity=".588"/>
</linearGradient>
<linearGradient gradientTransform="matrix(1.02381 0 0 1.0119 -1.14286 -98.07143)" id="linearGradient3780" xlink:href="#ButtonShadow-0" y1="6.132" y2="90.239" x2="0" gradientUnits="userSpaceOnUse"/>
<linearGradient id="ButtonColor" y1="21" y2=".999" x2="0" gradientUnits="userSpaceOnUse">
<stop offset="0" stop-color="#2764bf"/>
<stop offset="1" stop-color="#71a1e8"/>
</linearGradient>
<linearGradient id="linearGradient3617" xlink:href="#ButtonColor" y1="90" y2="5.988" x2="0" gradientUnits="userSpaceOnUse"/>
<linearGradient id="linearGradient3737">
<stop offset="0" stop-color="#fff"/>
<stop offset="1" stop-color="#fff" stop-opacity="0"/>
</linearGradient>
<linearGradient id="linearGradient3188" xlink:href="#linearGradient3737" y1="6" y2="63.893" x2="0" gradientUnits="userSpaceOnUse"/>
<linearGradient id="linearGradient3613" xlink:href="#linearGradient3737" y1="20.221" y2="138.661" x2="0" gradientUnits="userSpaceOnUse"/>
<linearGradient gradientTransform="translate(0 -97)" id="linearGradient3721" xlink:href="#ButtonShadow-0" y1="6.132" y2="90.239" x2="0" gradientUnits="userSpaceOnUse"/>
<radialGradient cx="48" cy="90.172" gradientTransform="matrix(1.15731 0 0 .99591 -7.55102 .19713)" r="42" id="radialGradient3619" xlink:href="#linearGradient3737" gradientUnits="userSpaceOnUse"/>
</defs>
<path opacity=".08" fill="url(#linearGradient3780)" d="m12-95.0312c-5.5111,0-10.0312,4.5202-10.0312,10.0312v71c0,5.5111 4.5202,10.0312 10.0312,10.0312h72c5.5111,0 10.0312-4.5202 10.0312-10.0312v-71c0-5.5111-4.5202-10.0312-10.0312-10.0312h-72z" transform="scale(1 -1)"/>
<path opacity=".1" fill="url(#linearGradient3780)" d="m12-94.0312c-4.9716,0-9.0312,4.0596-9.0312,9.0312v71c0,4.9716 4.0596,9.0312 9.0312,9.0312h72c4.9716,0 9.0312-4.0596 9.0312-9.0312v-71c0-4.9716-4.0596-9.0312-9.0312-9.0312h-72z" transform="scale(1 -1)"/>
<path opacity=".2" fill="url(#linearGradient3780)" d="m12-93c-4.4091,0-8,3.5909-8,8v71c0,4.4091 3.5909,8 8,8h72c4.4091,0 8-3.5909 8-8v-71c0-4.4091-3.5909-8-8-8h-72z" transform="scale(1 -1)"/>
<path opacity=".3" fill="url(#linearGradient3780)" d="m12-92h72a7,7 0 0,1 7,7v71a7,7 0 0,1 -7,7h-72a7,7 0 0,1 -7-7v-71a7,7 0 0,1 7-7" transform="scale(1 -1)"/>
<path opacity=".45" fill="url(#linearGradient3721)" d="m12-91h72a6,6 0 0,1 6,6v72a6,6 0 0,1 -6,6h-72a6,6 0 0,1 -6-6v-72a6,6 0 0,1 6-6" transform="scale(1 -1)"/>
<path fill="url(#linearGradient3617)" d="m12,6h72a6,6 0 0,1 6,6v72a6,6 0 0,1 -6,6h-72a6,6 0 0,1 -6-6v-72a6,6 0 0,1 6-6"/>
<path opacity=".3" fill="url(#linearGradient3664)" d="m12.5312,6c-3.6105,0-6.5312,2.9207-6.5312,6.5312v70.9375c0,3.6106 2.9207,6.5312 6.5312,6.5312h70.9375c3.6105,0 6.5312-2.9207 6.5312-6.5312v-70.9375c0-3.6106-2.9207-6.5312-6.5312-6.5312h-70.9375z"/>
<path opacity=".4" fill="url(#linearGradient3188)" d="m12,6c-3.324,0-6,2.676-6,6v2 68 2c0,.3347 .0413,.6507 .0938,.9688 .0487,.2956 .097,.5969 .1875,.875 .0099,.0304 .0209,.0636 .0312,.0938 .0989,.2878 .2349,.5475 .375,.8125 .1446,.2735 .3156,.5356 .5,.7812 .1844,.2456 .3738,.4735 .5938,.6875 .4399,.4281 .9429,.8145 1.5,1.0938 .2785,.1396 .5735,.2469 .875,.3438-.2562-.1002-.4867-.2363-.7188-.375-.0074-.0044-.0239,.0045-.0312,0-.0319-.0193-.0623-.0425-.0938-.0625-.1204-.0767-.231-.1635-.3438-.25-.1062-.0808-.2133-.1611-.3125-.25-.1779-.1614-.3475-.3454-.5-.5312-.1076-.1303-.2184-.2653-.3125-.4062-.0251-.0384-.0384-.0859-.0625-.125-.0648-.103-.1302-.2045-.1875-.3125-.101-.1947-.2057-.4157-.2812-.625-.008-.0218-.0236-.0405-.0312-.0625-.0318-.0919-.0358-.1868-.0625-.2812-.0303-.1066-.0704-.203-.0938-.3125-.0729-.3415-.125-.6982-.125-1.0625v-2-68-2c0-2.7818 2.2182-5 5-5h2 68 2c2.7818,0 5,2.2182 5,5v2 68 2c0,.3643-.0521,.721-.125,1.0625-.0442,.2069-.0884,.3977-.1562,.5938-.0077,.022-.0233,.0407-.0312,.0625-.0627,.1737-.1384,.3674-.2188,.5312-.0416,.0828-.079,.17-.125,.25-.0546,.0972-.1268,.1883-.1875,.2812-.0941,.141-.2049,.276-.3125,.4062-.1432,.1744-.3031,.347-.4688,.5-.0112,.0102-.02,.0212-.0312,.0312-.1384,.1256-.2851,.2344-.4375,.3438-.1026,.0731-.2043,.1534-.3125,.2188-.0074,.0045-.0238-.0044-.0312,0-.232,.1387-.4625,.2748-.7188,.375 .3015-.0968 .5965-.2041 .875-.3438 .5571-.2792 1.0601-.6657 1.5-1.0938 .22-.214 .4094-.4419 .5938-.6875 .1844-.2456 .3554-.5077 .5-.7812 .1401-.265 .2761-.5247 .375-.8125 .0104-.0308 .0213-.0627 .0312-.0938 .0905-.2781 .1388-.5794 .1875-.875 .0524-.318 .0938-.634 .0938-.9688v-2-68-2c0-3.324-2.676-6-6-6h-72z"/>
<path opacity=".2" fill="url(#radialGradient3619)" d="m12,90c-3.324,0-6-2.676-6-6v-2-68-2c0-.3347 .0413-.6507 .0938-.9688 .0487-.2956 .097-.5969 .1875-.875 .0099-.0304 .0209-.0636 .0312-.0938 .0989-.2878 .2349-.5475 .375-.8125 .1446-.2735 .3156-.5356 .5-.7812 .1844-.2456 .3738-.4735 .5938-.6875 .4399-.4281 .9429-.8145 1.5-1.0938 .2785-.1396 .5735-.2469 .875-.3438-.2562,.1002-.4867,.2363-.7188,.375-.0074,.0044-.0239-.0045-.0312,0-.0319,.0193-.0623,.0425-.0938,.0625-.1204,.0767-.231,.1635-.3438,.25-.1062,.0808-.2133,.1611-.3125,.25-.1779,.1614-.3475,.3454-.5,.5312-.1076,.1303-.2184,.2653-.3125,.4062-.0251,.0384-.0384,.0859-.0625,.125-.0648,.103-.1302,.2045-.1875,.3125-.101,.1947-.2057,.4157-.2812,.625-.008,.0218-.0236,.0405-.0312,.0625-.0318,.092-.0358,.1868-.0625,.2812-.0303,.1066-.0704,.203-.0938,.3125-.0729,.3415-.125,.6982-.125,1.0625v2 68 2c0,2.7818 2.2182,5 5,5h2 68 2c2.7818,0 5-2.2182 5-5v-2-68-2c0-.3643-.0521-.721-.125-1.0625-.0442-.2069-.0884-.3977-.1562-.5938-.0077-.022-.0233-.0407-.0312-.0625-.0627-.1737-.1384-.3674-.2188-.5312-.0416-.0828-.079-.17-.125-.25-.0546-.0972-.1268-.1883-.1875-.2812-.0941-.141-.2049-.276-.3125-.4062-.1432-.1745-.3031-.347-.4688-.5-.0112-.0102-.02-.0211-.0312-.0312-.1384-.1256-.2851-.2344-.4375-.3438-.1026-.0732-.2043-.1534-.3125-.2188-.0074-.0045-.0238,.0044-.0312,0-.232-.1387-.4625-.2748-.7188-.375 .3015,.0968 .5965,.2041 .875,.3438 .5571,.2792 1.0601,.6657 1.5,1.0938 .22,.214 .4094,.4419 .5938,.6875 .1844,.2456 .3554,.5077 .5,.7812 .1401,.265 .2761,.5247 .375,.8125 .0104,.0308 .0213,.0627 .0312,.0938 .0905,.2781 .1388,.5794 .1875,.875 .0524,.318 .0938,.634 .0938,.9688v2 68 2c0,3.324-2.676,6-6,6h-72z"/>
<g transform="matrix(.18673 0 0 .18673 -36.02893 -6.02898)">
<path fill="#fff" d="m569.3857,394.1094c-10.7744,2.8853-22.2715,3.813-32.7354,7.3813 17.7227-15.1958 16.7109-38.7085 28.5352-56.606 3.7666-5.0674 6.8799-10.3789 11.2705-15.1875-7.1924,14.4277-4.0732,33.1465-12.3359,47.1475-3.1807,5.5615-7.7295,10.957-12.7598,15.3252 1.6436-.0615 3.082-1.4844 4.5273-2.4346 13.4209-13.3926 30.9541-17.1377 45.4717-28.0186 5.8154-4.6338 11.1416-10.7061 13.6982-17.2734-2.7471,22.2197-24.8525,43.0459-45.6719,49.666z"/>
<path fill="#fff" d="m617.7354,304.1455c-6.5664,9.3438-14.5098,18.042-20.5762,27.5381 .6768-7.5186 1.5674-16.7637-1.3613-23.8857-5.0752-15.3369-9.5342-30.9092-10.9727-47.7412l.1982-6.4365c3.8193,17.1894 20.7051,29.0059 19.6396,48.2871 .3867,4.6728-1.0586,8.6455-1.9336,12.7549l.29,.3037 .7607-.8525c2.5039-9.458 3.7676-19.4033 7.6611-28.2275 5.5332-12.6982 12.4424-25.5137 9.6269-40.8457 8.416,18.0762 5.8662,42.2275-3.333,59.1055z"/>
<path fill="#fff" d="m607.3711,206.7578c11.0723,15.0054 13.499,38.918 5.4346,56.1299-3.0059,7.2939-5.1289,15.0664-6.3096,23.1396-.5635-1.3926-.6924-3.2646-1.1953-4.8164-4.4043-16.8477-20.3379-28.8545-26.8906-44.7388-2.0781-5.1943-3.8496-10.5615-4.832-16.2002 7.002,12.9502 24.2578,19.6392 28.9609,33.9107 1.9268,3.6094 1.8184,8.1191 3.0137,12 .251,0 .502-.1865 .502-.4414-2.0703-14.7012-1.4385-30.0874 .5566-44.606-.1152-7.8642-.8828-15.4927-5.252-21.5801 2.8018,1.6323 4.0635,4.7676 6.0117,7.2026z"/>
<path fill="#fff" d="m599.5644,203.8774c2.9082,13.1489-1.3398,25.9546 1.332,39.23l-.0996,.1143c-7.1533-14.0664-22.3398-20.7051-32.7891-31.9634-6.0557-6.6807-8.6885-14.8228-10.2031-23.4438 5.9873,14.4346 22.1436,17.6152 31.4189,29.7788 3.1035,2.8042 4.1162,6.689 6.1172,9.8691l.3271-.3159c-5.334-11.3867-7.1211-24.2012-10.8428-36.3452-1.8633-5.2622-5.5615-10.4326-10.5234-13.7505 12.1758,2.4883 22.7285,15.1997 25.2627,26.8267z"/>
<path fill="#fff" d="m567.0117,173.7217c9.1699,8.207 13.3174,18.8335 15.9951,29.8438l1.5146,3.4966c-13.3096-9.5723-25.4004-22.4399-33.8994-36.0298l-10.3799-10.501c9.125,3.8691 18.9629,6.1787 26.7695,13.1904z"/>
<path fill="#fff" d="m356.8057,162.2739c-9.2002,8.0654-15.5811,18.2656-22.4062,27.7773-6.1182,7.5752-13.9443,12.5703-20.8799,19.0845 3.7441-7.7617 3.8809-17.0332 9.1914-24.1631 7.5566-13.1836 21.5693-17.8218 34.0947-22.6987z"/>
<path fill="#fff" d="m306.4922,190.3599c4.4746-5.5625 10.1475-9.4282 16.5312-11.0605-12.3955,8.5151-11.5889,23.7749-15.5186,36.4605-1.2529,4.6909-3.4287,9.0127-4.5127,13.8213l.3154,.251c2.0625-5.436 5.6875-10.5723 10.2119-15.0078 8.8037-8.1269 21.8272-13.1919 26.1416-25.2139-.1973,16.7061-14.1338,29.8399-27.4688,39.229-5.499,4.8242-10.8018,10.3223-13.8301,16.5239-.2969-4.2148 .623-8.4468 .3232-12.9619-1.4502-14.5835-2.5039-31.229 7.8066-42.0415z"/>
<path fill="#fff" d="m281.4121,240.2275c-.373-14.7783 5.7607-26.8418 14.4043-37.853 .251-.1255 .4297-.3765 .7529-.3159-9.5147,14.4585-1.6436,32.6704-2.0772,49.1104l-1.2549,16.832c.1865,.1221 .1865,.6279 .6279,.4336 .5625-1.876 .6846-3.8809 1.0605-5.8105 2.2412-13.5771 14.0322-23.2109 24.3311-32.5938 2.1992-2.4541 4.1436-4.9458 5.2734-7.8257-.8408,6.7603-2.96,13.5786-5.7646,19.8306-8.0156,15.6318-22.8232,28.458-25.5283,46.3545-1.3125-17.1504-12.9893-29.9727-11.8252-48.1621z"/>
<path fill="#fff" d="m274.2139,261.2432c1.0654-4.6221 1.8799-9.4053 3.8916-13.6465-3.8115,19.5371 9.3291,33.6143 13.6397,50.5488 1.8037,6.334 2.2451,13.1367 4.8242,19.0801 .2402,.1299 .4492-.1211 .5976-.3115-6.418-17.9893 2.8467-34.7061 12.1562-48.791 2.2637-3.8164 3.5684-8.0664 4.6943-12.4531 .9893,8.1416-1.0693,17.5176-2.252,25.9707-2.2637,10.7559-5.6426,20.9561-8.584,31.3926-1.9355,6.5215-1.4268,13.8789-.4326,20.7119l-.9326-.7451c-6.8252-12.5859-20.3399-22.4023-24.3535-36.1523-3.3027-10.9619-5.498-23.6602-3.249-35.6045z"/>
<path fill="#fff" d="m273.5977,299.4014c1.5029,20.708 23.7715,31.6504 34.0938,48.7939 2.4424,3.5078 4.5615,7.3887 7.8252,10.3252-.5098-2.2061-2.5684-4.0625-3.3242-6.3223-3.6113-7.1904-4.9277-15.7588-4.0596-24.4492 1-10.5771 5.4365-20.3926 3.7432-31.5176 9.0703,19.5566 6.3154,43.9668 11.3867,65.1582 1.3281,4.6348 4.0107,8.7734 5.7686,13.2031-18.6357-12.6924-44.0469-24.7686-52.3145-48.0303-3.4844-8.0205-3.873-17.9502-3.1191-27.1611z"/>
<path fill="#fff" d="m284.7295,346.9551c10.3906,23.5059 36.4141,25.4531 53.8623,39.7666 3.2109,2.8457 6.5752,5.2656 10.2002,6.9541l.1865-.1895c-4.0059-3.6221-8.6397-7.7471-11.4443-12.4414-10.2119-14.1992-6.6201-34.0898-14.2715-49.3613 6.9521,8.3164 13.2744,16.9609 17.4717,26.3955 6.2432,15.4014 8.6289,32.7969 23.0752,44.439-15.6338-5.1524-33.9492-3.7129-47.748-13.3394-15.0664-9.2598-28.5127-24.9658-31.332-42.2236z"/>
<path fill="#fff" d="m311.4346,390.8066c16.6602,18.9477 43.8828,12.6255 66.0752,17.5845 3.1348,.4277 6.0039,1.6836 9.3262,1.1738-2.6455-1.6738-6.3164-1.4922-9.2041-3.0137-17.3955-6.1113-19.9473-24.9438-29.3906-37.6431 12.0645,8.0117 22.207,18.8174 33.3369,29.2876 8,7.0078 17.6299,10.2422 27.7764,12.3047-2.4385,.8906-5.6348,.6465-8.252,1.332-18.2285,4.4824-38.4805,11.8086-57.8115,5.25-12.5674-3.957-25.5332-13.8945-31.8564-26.2759z"/>
<path fill="#fff" d="m537.5566,434.9731c-18.7734,7.0059-38.3662-.3203-53.0293-11.4395-5.9365-3.7734-11.1699-9.207-18.8486-8.7266-2.7852-.0527-5.4707,.084-7.8379,.7676 14.2451,6.6289 27.4775,15.7676 39.5762,27.4551-2.0391,2.3281-4.6797,4.5059-7.167,6.5137-11.6592-12.5625-24.5713-24.6543-39.0283-31.7168-2.8311,.3672-5.5244,2.0703-8.0772,3.4414-11.7695,7.4414-23.4072,17.0137-32.1572,28.7324l-7.5186-6.209c12-12.1387 25.2734-21.5879 39.7939-28.3379-14.2686-4.5195-23.582,7.4336-34.4131,13.5137-12.6211,8.8125-30.7725,12.9512-46.0254,6.8711-8.2031-3.1113-16.1504-7.6934-22.0898-15.1406 12.0039,8.2695 29.8818,9.1367 43.5332,3.7656 18.3184-7.9453 37.3535-18.0176 59.4365-13.2012 3.4463,.0605 6.7949,3.4922 10.0508,.5703 16.4131-4.2617 34.9951-1.332 49.126,6.1699l14.5644,5.8379c13.5371,5.0059 31.0391,3.6211 42.6426-4.627-5.9658,7.4258-14.1152,12.7461-22.5312,15.7598z"/>
<path fill="#fff" d="m557.6748,415.5747c-21.0781,7.959-42.2832-1.8105-62.4795-5.0742l-3.8887-.4941v-.123c9.6572-2.1914 19.0312-5.0664 26.7178-12.0059 11.3213-10.8823 21.3955-22.0835 33.9678-30.6587-9.3232,11.9541-10.3115,28.9692-25.7129,36.6548-3.8115,2.4941-8.6221,2.9355-12.5557,4.8242 5.6094,.1211 10.7451-1.8887 16.2998-2.4512 20.6523-3.2422 44.2783,.084 58.7666-17.5093-5.3789,12.2593-18.8496,22.5249-31.1152,26.8374z"/>
<path fill="#fff" d="m595.9727,356.2686c-8.3242,5.4482-16.7617,10.501-24.7608,16.6953v-.7607c12.252-20.3623 6.2627-48.335 13.8115-70.7441l2.8154-7.5068c-1.5752,13.96 4.4883,25.7851 4.0625,39.793-.4258,8.4619-3.1875,15.9648-7.6309,22.7217h.7529c6.0029-7.8838 10.6904-16.2686 17.7061-23.7783 10.8896-10.501 21.9609-21.2686 23.3906-35.8408 3.6982,24.3271-9.9521,45.6484-30.1475,59.4209z"/>
</g>
<g transform="matrix(.18673 0 0 .18673 -36.02893 -6.02898)">
<path fill="#fff" fill-rule="evenodd" d="m448.1118,303.2524 3.7769,0 0,94.8223-3.7769,0 0-94.8223z"/>
<path fill="#fff" fill-rule="evenodd" d="m427.6094,293.9395 2.6679,2.6713-67.1015,66.9991-2.668-2.6734 67.1016-66.997z"/>
<path fill="#fff" fill-rule="evenodd" d="m421.1953,274.186-.0058,3.7764-94.8223-.1133 .0039-3.7768 94.8242,.1137z"/>
<path fill="#fff" fill-rule="evenodd" d="m430.1977,255.898-2.6718,2.6694-67.0406-67.0596 2.6714-2.6694 67.041,67.0596z"/>
<path fill="#fff" fill-rule="evenodd" d="m451.8472,248.1099-3.7769-.003 .0869-94.8242 3.7769,.0039-.0869,94.8233z"/>
<path fill="#fff" fill-rule="evenodd" d="m470.8247,257.1553-2.668-2.6739 67.1402-66.9599 2.6679,2.6733-67.1401,66.9605z"/>
<path fill="#fff" fill-rule="evenodd" d="m478.1475,278.2593-.0039-3.7764 94.8212-.1191 .0069,3.7763-94.8242,.1192z"/>
<path fill="#fff" fill-rule="evenodd" d="m467.1992,297.5591 2.668-2.6739 67.1064,66.9937-2.6679,2.6734-67.1065-66.9932z"/>
<path fill="#fff" fill-rule="evenodd" d="m485.3633,181.1836c52.2266,19.522 78.7686,77.75 59.2461,129.9736-19.5225,52.2236-77.7505,78.7661-129.9722,59.2437-52.2256-19.521-78.7642-77.7481-59.2456-129.9727 19.5229-52.2246 77.75-78.7651 129.9717-59.2446zm-1.5283,4.0947c49.9629,18.6768 75.3555,74.3848 56.6807,124.3481-18.6758,49.9649-74.3872,75.3564-124.3496,56.6797-49.9629-18.6748-75.3545-74.3838-56.6797-124.3476 18.6768-49.9634 74.3857-75.356 124.3486-56.6802z"/>
<path fill="#fff" fill-rule="evenodd" d="m477.2617,202.8613c40.2607,15.0488 60.7178,59.9351 45.6719,100.1938-15.0498,40.2583-59.9385,60.7178-100.1943,45.6699-40.2563-15.0478-60.7178-59.936-45.6699-100.1943 15.0478-40.2578 59.936-60.7178 100.1924-45.6694zm-1.5361,4.1182c37.9824,14.1982 57.2891,56.5522 43.0908,94.5376-14.1982,37.9858-56.5552,57.291-94.5371,43.0908-37.9858-14.1982-57.293-56.5527-43.0928-94.5376 14.2002-37.9858 56.5527-57.291 94.5391-43.0908z"/>
<path fill="#fff" fill-rule="evenodd" d="m469.4019,223.8862c28.6548,10.7105 43.2163,42.6572 32.5073,71.3096-10.7139,28.6519-42.6602,43.2153-71.3106,32.5039-28.6538-10.7109-43.2153-42.6572-32.5039-71.3091 10.7109-28.6519 42.6572-43.2144 71.3071-32.5044zm-1.4077,3.7686c26.5732,9.9331 40.0791,39.5605 30.1455,66.1333-9.9346,26.5723-39.5605,40.0762-66.1333,30.1431-26.5723-9.9316-40.0762-39.5601-30.1445-66.1328 9.9331-26.5713 39.5596-40.0762 66.1323-30.1436z"/>
<path fill="#fff" fill-rule="evenodd" d="m460.562,247.5366c15.5981,5.8306 23.5259,23.2207 17.6948,38.8193-5.8311,15.5962-23.2197,23.5244-38.8184,17.6929-15.5981-5.8296-23.5244-23.2197-17.6948-38.8184 5.8315-15.5972 23.2236-23.5244 38.8184-17.6938zm-1.5249,4.0767c13.3506,4.9893 20.1318,19.8716 15.1445,33.2192-4.9917,13.3472-19.8711,20.1299-33.2178,15.1406-13.3491-4.9893-20.1318-19.8706-15.1445-33.2188 4.9912-13.3476 19.8745-20.1309 33.2178-15.1411z"/>
<path fill="#fff" fill-rule="evenodd" d="m508.9131,166.207c61.085,33.6157 84.2705,109.9932 51.749,170.4824-32.5176,60.4917-108.4898,82.3042-169.5742,48.689-61.084-33.6148-84.27-109.9932-51.7485-170.4834 32.5195-60.4912 108.4888-82.3032 169.5737-48.688zm-2.1377,3.98c58.8672,32.3945 81.209,105.9971 49.8682,164.2925-31.3369,58.2935-104.5508,79.3149-163.4155,46.9199-58.8687-32.3965-81.2104-105.999-49.8701-164.2935 31.3369-58.2944 104.5498-79.3145 163.4175-46.9189z"/>
<path fill="#fff" d="m523.7363,334.3999c.0713,.6489-.1514,2.2461 .1514,2.6128 .3135,.4975 1.4834,.3916 1.9902,.2158 1.3848-.5205 2.7627-2.3501 3.4023-3.7217 .4502-.6963 .7529-1.5117 .6543-2.4238l-.9688-2.9346c-.2422-1.0293-.5674-2.8384-1.665-3.2656 .1025-.2725 .4502-.6982 .4092-1.0884-.2539-1.1597-2.1914-.855-2.8838-.003-.3486,.4258-.25,1.3354-.3252,1.8672-.0195,1.0542-.3145,3.1826-.7344,4.1401-.4199,.9556-1.5967,2.2441-1.6123,3.2978 .083,.7793 .9199,1.23 1.582,1.3037zm-64.48-8.1416 .3442,.7568c.0151,.1304 .1704,.3784 .3027,.3672 .8779,.8418 2.1079-1.1089 .6397-1.3701-.1323,.0112-.4048-.0967-.522,.0454-.2573,.0244-.5186,.0474-.7647,.2007zm.9726-1.9263c-.5942,.5772-.81,.9917 .1553,1.4302l-.1553-1.4302zm-15.6592-11.4701c-.9536,.8721-.8813,.3423-1.3696,.6489-.3633,.293-.0605,.6602-.3936,1.2163-.1025,.2725-.4805,.4375-.4502,.6982-.0874,.4014 .3291,.6265 .7339,.7212 .5337,.083 2.0928-.0552 2.5806-.3613 .481-.4375 .2915-.9463 .5112-1.3608 .1172-.1416 .3481-.4253 .4653-.5674 .0566-.6621-1.3398-1.457-2.0776-.9951zm37.6001-4.0303 .1397,1.2998-.1514,1.0654c1.415-.2593 2.2861-.7305 3.542-1.2378 .375-.1646 1.124-.4956 1.415-.2588 .417,.2271 .1973,.6392 .0947,.9116-.2041,.543-1.0137,1.5366-1.3623,1.9624-1.0557,1.1445-2.6143,1.2847-3.9316,2.4541-.708,.7207-.8965,1.394-1.6084,2.1152-.707,.7188-1.2149,.897-1.5781,1.1919-.3476,.4258-.0566,.6621-.7939,1.1221l.4199-.9556c-.4014-.0967-.9238-.0493-1.2266-.418-.1699-.3765-.2119-.7686-.125-1.1694 .1787-.8042 .3408-2.9214 .8066-3.4893 .1172-.1416 1.1279-.4956 1.502-.6602l-.1738,.8042c.3897-.0342 1.0371-.0928 1.2822-.2461 .6367-.189 1.2754-1.561 1.6084-2.1152l-1.7627,.6831c.3066-.8154 1.1768-2.4692 1.9033-3.0596zm-34.8564,3.9146c-.2647,1.2075 .4731,.7456 .9194,1.2319 .2876,.2363 .3296,.6265 .3711,1.0181l-1.0254,.2231-.4507,.6963-.5791,.7095 1.7598,.4995c-.8813,.3408-1.415,.2573-1.979,1.0977l2.2061-.1987c1.4419,.002 2.5244,.2988 3.8828-.481l-.2876-.2363 .3936-1.2183-.98-.5679-.3447-.7568-1.6499-1.9546-.5483-.2139c.4653-.5674 1.4038-1.5723 .064-1.8447l-.6621-.0718 .5791-.7095c-.7949-.0586-1.457-.1309-2.0513,.4482-.6963,.8496-.7153,1.9019 .3823,2.3291zm-.7681-16.8774-.0303,.9214-.3027-.3667 .0376,1.5723c.231,.9004 1.2412,.5469 1.4722,.2627 .2461-.1528 .3179-.6865 .2915-.9458-.0264-.2593-.1855-.5088-.3291-.6265-.2764-.1079-.4053-.0962-.666-.0737l-.0835-.7793-.3897,.0356zm-107.0337,8.2896c-.0513,1.9751 .4688,1.9277 .9097,3.5967 .229,.8989-.1323,1.1938 .583,2.9688 .3442,.7588 .5562,1.5269 1.3775,1.8467-.2363-2.2119-.5073-3.5005-1.249-5.5361-.5298-1.2661-.9346-1.3603-1.3623-2.9009l-.2588,.0249zm179.4336-21.6172c-.6201,.3179-.8398,.7319-.7686,1.3809-.0605,.6641 .5146,1.1372 1.1504,.9482 .8818-.3408 1.0332-2.5884-.3818-2.3291zm-122.7768-.2842c-.3198,.687-.3804,1.3491 .3252,1.811-.0698-.6489 .1191-1.3247-.3252-1.811zm38.3603,.6323 .4331,.3555c.9536-.874 1.1582-1.4189 1.8545-2.2686 .5786-.7095 .9688-.7437 1.3301-1.0386 .2305-.2842 .2022-.5449 .2891-.9463 .2046-.5449 .5811-.7095 .4844-1.6196 .0459-.7925-.4707-1.9282-1.3657-1.7168l-.2007-.6387c-.3897,.0347-1.0254,.2231-1.3867,.5176-.3613,.2959-.1763,.8047-.6528,1.2417-.5791,.708-1.5894,1.0615-1.8354,1.2148-.3765,.1665-.2041,.5449-.8135,.9937-.8516,.6016-1.4136,.2573-1.9189,.4351-.6357,.1875-1.5776,1.1919-2.0547,1.6289-.6963,.8496-.8984,1.3945-1.19,2.3408-.1021,.2705-.3198,.6846-.1626,.9346 .1567,.248 .5469,.2119 .7944,.0586 .5054-.1758 1.6177-.8003 2.0229-.7056 .3877-.0361 .5464,.2134 .8208,.3198 .4033,.0942 .6626,.0718 .9365,.1777 .2725,.1079 .5752,.4746 .8628,.7114 .6909,.3311 1.3872-.5186 1.5913-1.0615 .1021-.2725 .2026-.5449 .1611-.9346zm.7549-10.0527 .0151,.1304-.146-.1182 .1309-.0122zm1.1504,.9478c.3442,.7578 1.6118,1.563 2.3311,2.1562 .2456-.1533 .3613-.2954 .4634-.5669 .3198-.686 .1797-1.9878-.5127-2.3198-.416-.2251-.9233-.0478-1.2978,.1167-.0151-.1299-.1855-.5083-.3291-.6274-1.022-.959-2.3008,1.7832-.6548,1.2412zm-5.4321-1.7451c.876,.8408 .8911,.9702 2.0605,.8652-.1782,.8042-1.2188,2.0806-2.0703,1.5005-.5601-.3442-.6167-.8647-.8892-.9717-.418-.2251-.4502,.6973-.6812,.9805-.5527,.9692-1.4756,.9214-1.5664,2.5059l.4917-.3086c.4995,1.0068 1.4268-.1265 2.0493-.4453-.1157,.1421-.3481,.4268-.4487,.6973-.0908,.4028 .3428,.7588 .7192,.5923 .3745-.165 .8247-.8628 1.1846-1.1582 .3633-.2939 .4917-.3057 .8682-.4722 .3613-.2939 .8384-.731 1.2017-1.0264 1.0859-.8853 1.1406-.3652 1.521-1.7134-.0303-.2598 .0869-.4019 .0586-.6621-.5166-1.1362-2.3779-.1807-2.5239-.2978l-.8081-.1914c-.2725-.1069-.7793,.0703-1.167,.1055zm6.0015-.2754-.6489,.0576 .1724,.3784c.7661-.1997 1.2847-.2471 1.3169-1.1694-.6494,.0586-.7798,.0698-.8403,.7334zm-40.9087,2.4868-.6021,2.9453 .269,1.2886 .541,2.5786c.333-.5542 .9307-2.3159 .9912-2.978l.1479-1.0654c.0454-.7915 .1475-1.063-.1968-1.8208l-.8403,.7319-.0513-1.7026-.2588,.0225zm42.2539-3.397c-.083-.7808 .0605-.6616 .7227-.5903l-.009-1.313c-.3765,.165-.895,.2124-1.2583,.5068-.5791,.7085-.5068,1.3603 .5449,1.3965zm-3.8599-1.7549 .4448,.4853c.895-.2119 1.1826,.0244 1.9902,.2153l-.3159-.4975 .333-.5552c.7798-.0688 .8403-.7324 .5112-1.3594-.144-.1187-.4185-.2251-.562-.3442-1.3984-.793-1.5308,.4009-1.8638,.9561l-.5376,1.0996zm3.3623-.4336c.2593-.0234 .5205-.0464 .7661-.1992 .4771-.4375 .2085-1.7275-.2119-1.9522-.4028-.0952-.6201,.3179-.5918,.5781l-.0889,.4033 .0698,.6499 .0566,.52zm-41.749,3.2207c.4634-.5669 .6245-1.5015 .6851-2.1641-.8667,.4731-.7832,1.2529-.6851,2.1641zm4.6016-8.4268c.125,1.1714-.0225,2.2353-.4312,3.3228-.5225,1.23-1.7827,2.9194-2.0474,4.1245l-.3008-.3672c-.5659,.8394-.6304,2.6851-.2705,3.5718 .7075-.7202 .8701-1.6548 1.3052-2.4819 .8574-1.7842 2.002-3.3315 2.4409-5.3423 .0757-.5322 .1816-1.9873-.1362-2.4839-.1572-.249-.2876-.2368-.5601-.3438zm118.2642,3.4458c.6816-.9814 .8633-2.9668 1.124-4.1743 .6172-2.8135 1.9189-4.1123 1.54-7.626-.083-.7803-.3818-2.3301-1.3164-2.5098-1.457-.1313-.8594,1.7852-.9463,2.187 .042,.3911-.0606,.6626-.1631,.9351-.6387,1.3706-.3398,2.9204-.3174,4.3633l-.2764,4.7544 .3555,2.0703zm-21.0322-22.4175c.0264,.2598 .1699,.3789 .3291,.627 .1436,.1191 .2881,.2373 .4316,.356 .8359,.4502 1.2715-.3765 .9531-.8745-.1543-.2485-.6885-.332-.9492-.3081-.2578,.0234-.5186,.0464-.7647,.1997zm19.4277-2.269c.125,1.1714 .5947,3.1006 1.0977,4.106l1.1465,2.1304 1.3545,4.0825c.6963-.8506 .3262-1.8687 .0986-2.7676-.5859-1.7866-1.4307-3.5503-2.1338-5.1943-.4883-.876-.8438-1.7646-1.5635-2.3569zm-7.1787-2.1143-.1055,1.4541-1.7754-.6294c-.0293,.9238 .3828,2.3315 1.1172,3.0532l1.4258,1.0547c1.1504,.9482 2.3164,2.0264 3.3496,3.1152 .9082,1.1016 .9492,1.4922 1.2637,1.9888 .2881,.2363 .5752,.4741 .9502,.3086 .2461-.1533 .3066-.8154 .4082-1.0879l.4356-.8271c.1894-.6733-.3106-1.6792-.6396-2.3071l-.8594-1.8931c-.3594-.8877-.5752-1.6567-1.1767-2.3906-1.0215-.9595-1.8008-.8896-2.8799-1.1875l-1.5137-.6519zm-36.1318,1.7964c-.0762,.5327-.1211,1.3257-.7568,1.5137-.1289,.0117-.6621-.0718-.8066-.1909l-.4951,1.4902c-.2197,.4131-.6284,1.501-.583,1.8921-.0605,.6611 .8477,.5796 1.3096,.0132 .4805-.437 .541-1.0996 .874-1.6548 .5371-1.0991 1.5322-1.5835 1.6533-2.9072l-1.1953-.1562zm40.2529-4.9258c.3867,1.1484 .6582,1.2554 1.291,2.2495 .3291,.6274 .2422,1.0293 1.0059,.8296-.457-.6157-1.7324-2.7349-2.2969-3.0791zm-54.459,6.9883c-1.457-.1313-.4956,1.4902-.6851,2.1636-.3179,.686-1.7783,1.7368-2.4858,1.2744-.375,.1655-.7647,.2007-1.1694,.105-.4014-.0957-.689-.332-1.0786-.2969l-2.0698,1.4995c-.3633,.2949-.8516,.6016-1.3735,.648-.3862,.0352-.9082,.0811-1.1392,.3662-.3633,.2939-.019,1.0518 .1553,1.4302l.6167,.8647c-1.2715,.3765-1.1733,1.2866-1.0483,2.459 .0718,.6499 .3218,2.9922 .5073,3.501 .2002,.6397 1.0518,1.2197 1.7256,1.4209 .4199,.2266 1.082,.2974 1.4717,.2632l.0908-1.5854 .3901-.0342 .4009,1.2783c.1289-.0127 .3897-.0352 .5186-.0474l1.6157,.3813c.144,.1182 .144,.1182 .2876,.2363 .1704,.3784-.1475,1.0645-.106,1.4551 .2271,.8984 1.1655,1.0776 1.9453,1.0073-.019,1.0522 .083,.7808 .0225,1.4429 .0718,.6509-.3179,.686 .4844,2.0586 .1592,.248 .4883,.876 .8779,.8408 .3897-.0347 1.1997-1.0273 2.0664-1.499 .2002,.6382 .2153,.769 .7754,1.1133l-.189,.6733 1.4756-.9204c-.439,2.0098-1.2749,1.5591-2.187,2.8232-.3218,.6865-.1211,1.3252-.3105,1.999l.144,.1182 .4917-.3066 .375-.1646c1.1538-.2358 .2573,1.1587 .2837,1.4189 .0415,.3911 .3179,.4966 .5903,.6045l-.6094,.4478 .3594,.8882-2.3384,.21c-1.1543,.2349-2.1118,1.1089-3.0806,1.8525l.0303,.2603 .4014,.0952-2.2402,1.1211c.6772,.2007 1.5591-.1401 2.21-.1987 .6357-.189 .5186-.0454 1.2866-.2476l.416,.2271-.0757,.5317 2.8535,.9253c.6773,.2022 1.1694-.1045 1.5894,.1211 .5601,.3442 .3706,1.0176 1.3091,1.1953 1.0786,.2974 1.9341-.3042 2.8272-.5161l-1.0562,1.1465 .4883,.876 1.2715-.3765c-.9424,1.0029-.897,.2119-2.7134,.3745 .4165,.2251 1.6538,.77 1.9302,.8779 .6773,.2026 1.0366-.0947 1.9902,.2158 .8062,.189 1.7861,.7588 2.0474-.4487 .1587,.25 .3179,.498 .4614,.6172 .417,.2251 .6777,.2022 1.083,.2969 .5332,.0835 1.7969,.8892 1.7402,1.5518-.1172,.1416-.2344,.2837-.3477,.4258-.1748-.3804-.3447-.7568-.6475-1.124-.7451-.8535-1.8887-.4883-2.8267-.668l-1.8887-.4863-1.4565-.1323c-.791-.0605-1.2378-.5449-2.0171-.4751-.2612,.023-.6357,.1875-.6055,.4482 .0264,.2593 .314,.498 .458,.6152 .8359,.4502 .5332,.083 1.8013,.8892 .7036,.4619 .9497,.3086 1.627,.5107l.6924,.333c.5337,.0835 .6357-.189 1.1694-.106 .2573-.0225 .791,.0605 1.0669,.1685l-2.2549,.9898-1.7295-.2383c.3442,.7568 .4883,.876-.0908,1.5835l-.3179-.4956c-.3481,.4238-.3179,.6851-.666,1.1103l-.5791,.708c-.1021,.2725-.4502,.6982-.7114,.7207-.3897,.0361-.8325-.4502-1.124-.6865-.56-.3447-.8208-.3218-1.4565-.1328 .4766,.7456 .7227,.5923 1.4111,.9233 .564,.3442 2.002,1.5288 2.4487,2.0151-.1328,.0112-.2612,.0229-.3633,.2954-.231,.2837 .0225,1.4434 .3252,1.8086 .2876,.2383 .564,.3442 .9497,.3105l-1.5474,1.4531c.6773,.2002 .9233,.0474 1.4985,.522l-1.2983,.1152-1.7139-1.29-1.7861-.7607c.666,.0718 1.7178,.1099 2.3384-.21 1.1128-.6245 .583-1.8901-.2798-2.6016-.5601-.3447-.9502-.3086-1.6123-.3804-.5337-.0835-1.3545-.4048-1.877-.3579l-1.415,.2593 .0908-.4028c-.4053-.0947-.5488-.2139-.9121,.0815-.4316-.356-.4429-.4844-.9766-.5679l.0684,.6489-.5903-.6035-.0566,.6621c-.3179-.4976-.333-.626-.8779-.8399l.439,1.667-.2158,.4141c-.7226,.5903-.7153,1.9038-.6284,2.6851 .1665,1.561-.1816,1.9868-.314,3.1807-.0342,.9214 .2686,1.2886 .019,2.626-.0718,.5317-.5679,2.021-.7871,2.4355l-.5791,.7075-.435,.8267c-.2197,.4146-.5791,.7095-.7983,1.124-.2046,.543 .083,.7812 .2422,1.0293 .2153,.7681-.333,.5542 .5713,1.6572l-.4619,.5659 .5186-.0474c-.2915,.9463 .2988,1.5518 1.1919,1.3399 .6357-.1895 1.332-1.0391 1.5215-1.7144l.2612-.0229 1.748,2.8648c.3027,.3672 .3745,1.0181 .9082,1.1011 .5337,.0835 .7344-.4595 .9536-.874 .231-.2837 .4771-.437 .7075-.7207 .3218-.6851-.31-1.6802-.2495-2.3428 .0718-.5312 .4351-.8267 .4956-1.4888-.0981-.9101-.7759-1.1128-1.2222-1.5991-.4468-.4844-.4995-1.0044-.5713-1.6553-.1553-1.4326 .5825-1.8921 .7188-3.0859 .0454-.793-.4009-1.2773-.458-1.7993-.0415-.3901 .0454-.791 .4355-.8272 .8965-.2119 1.0063,.8306 1.0781,1.48l-.1211,1.3242c-.0718,.5337-.291,.9463-.2192,1.5967 .1855,.5093 .4883,.8765 .6582,1.2549 .3027,.3667 .3447,.7588 .6323,.9951 .2725,.106 .416,.2231 .6773,.2007 .2725,.1079 .5449,.2134 .8062,.1909 .6357-.1895 1.29-1.4307 1.8955-1.877 .3633-.2969 .897-.2119 1.2866-.248-.2192,.4146-.7983,1.124-1.0293,1.4062-.4917,.3062-1.3887,.5181-1.4341,1.311-.2764,1.0767 1.1504,.9478 1.1201,1.8691-.0605,.6626-1.0669-.1665-1.3735,.6489-.4351,.8272 .1401,1.3023 .3403,1.9414 .042,.3901-.1738,.8022-.2647,1.2056-.5488,.9688-1.0102,.3535-1.7485,.8135-.6206,.3198-1.3018,1.2998-1.9375,1.4893-.5029,.1758-.9385-.1802-1.3281-.146-.5186,.0474-.9536,.876-1.8164,.1646-.8779-.8418 .1211-1.3242-.0947-2.0942l-.5298-1.2661c-.7378,.46-1.4604,1.0523-1.2183,2.0815 .3594,.8853 1.2222,1.5967 .772,2.293-.3633,.2954-1.1431,.3652-1.7485,.814-.7378,.4614-1.5059,1.8428-1.752,1.998-.3633,.2949-.7529,.3291-1.1123,.624l-1.3057,1.2998c-.1138,.1421-.1138,.1421-.231,.2842l-1.627-.5112 .0981,.9102c-.6509,.0586-.6509,.0586-1.1846-.0244-.4009-.0967-1.1958-.1553-1.3999,.3877-.2197,.4146 .8628,.7114 1.1392,.8174 1.6533,.772 1.979,2.5811 1.2715,3.3037-.4771,.4351-1.2983,.1152-1.8315,.0322-1.1997-.1553-3.0879-.6436-4.2686-.668-1.5596,.1382-1.0596,1.1445-1.3623,1.9604-.0762,.5332-.5679,.8398-.6548,1.2412-.1177,.1416-.1021,.2725-.0874,.4028-.0147-.1304 .4277,1.5381 .4126,1.4077 .1855,.5088 1.0977,.4277 1.6313,.5107 .6733,.2007 .8477,.5811 1.4072,.9253 .5488,.2119 .7949,.0586 1.3018-.1172 1.166-.106 2.2783,.4522 4.0117-.4922 .3745-.1646 .7378-.4595 .8398-.7319 .3481-.4238 .1743-.8042 .6509-1.2412 .5942-.5791 1.7485-.814 2.3574-1.2622 .4771-.437 .1328-1.1938 1.0142-1.5361 .6357-.1875 1.3398,.2744 2.2217-.0684 .7642-.2007 1.5894-1.0615 2.3574-1.2617 .7793-.0703 1.2637,.8057 2.3462,1.103l4.2949,.9268c.1323-.0112 .4048,.0967 .5488,.2158 1.1504,.9463-.5073,1.3584-1.1431,1.5478-.5068,.1758-.6357,.187-1.1577,.2344 .1475,.1177 .1587,.248 .3027,.3672 .5488,.2139 1.873,.3579 2.3535-.0796 .231-.2837 .2046-.5449 .1631-.9346 .5029-.1758 .749-.3291 .9536-.874-.042-.3897-.2158-.7681 .1475-1.0635 .231-.2837 .749-.3311 1.1426-.3672-.6055-.7319-1.0972-.4258-1.8921-.4863-.4009-.0942-.5601-.3442-.9648-.4385-.3897,.0356-.749,.3311-1.2978,.1172-.4048-.0967-.8364-.4522-1.2373-.5469-.4204-.2251-1.4873-.3916-1.4268-1.0542 .1021-.2725 .2192-.4141 .4766-.437 .1177-.1416 .2461-.1533 .3784-.1665l.1855,.5112c1.3852-.5186 .9346,.1777 2.1343,.333 1.0786,.2969 2.3501-.0796 3.4473,.3481 .6777,.2002 .458,.6148 1.0483,1.2183 .7192,.5942 1.7446,.3691 2.6524,.2876-.1133,.1421-.2451,.1553-.2305,.2837-.2197,.4146 .0684,.6509 .3447,.7568 .9756,.5698 2.4258-.6108 1.1846-1.1558l1.9941-.9668c-.9649-.439-1.4424-.002-2.71-.8081 .6514-.0586 .7793-.0698 1.2568-.5073l.0752-.5332 2.1113-1.1089c-.6689,1.1108 .084,.7812 .3369,1.9414 .6514-.0586 1.457,.1304 2.1084,.0737 .5068-.1777 1.8916-.6963 2.2549-.9917 .3594-.2949 .4502-.6963 .8096-.9912l1.5029-.6606c.6094-.4482 1.0713-1.0156 1.5361-1.5835 .2305-.2837 .4619-.5674 .8672-.4712 .5449,.2139 .6846,1.5156 .7412,2.0361 .1738,.3784 .3594,.8852 .4014,1.2769-.0801,1.7144-1.8809,2.0078-2.9668,2.8931-.7227,.5903-1.2754,1.5591-2.0283,1.8901-.9688,.7437-3.7432,1.7808-5.0147,2.1572l-2.6982,.5049c-.6201,.3198-1.3428,.9101-1.5469,1.4531-.2051,.5449 .124,1.1714-.4961,1.4893-.6211,.3198-3.2051,.6812-3.8677,.6113-1.0669-.1685-.7075-.4639-2.2666-.3237-1.4268,.1289-2.9707,.3994-4.4424,.1362 .2305-.2837 .6963-.8516 .7832-1.2524 .1021-.2725-.0415-.3916-.0718-.6509-.0117-.1289-.042-.3897-.1855-.5088-.3027-.3672-1.3398-.2744-1.7295-.2388-.897,.2119-.7378,.46-2.1646,.5884l-4.7944,.562c-2.335,.2085-4.2007,1.1655-5.1089,1.2471-.6509,.0586-2.1079-.0737-2.7852-.2764-.5483-.2139-1.1235-.6885-1.7446-.3687-.6357,.189-.8398,.7319-1.5889,1.061-.7534,.3315-2.1797,.46-3.0351,1.0615-.8516,.6021-.4067,1.0879-1.4038,1.5708-.5054,.1777-2.2065,.1982-2.8569,.2568-1.4419-.001-2.165,.5889-3.4229,1.0957l-1.3872,.5186c-.5049,.1758-1.5308,.3994-1.748,.8135-.2178,.4126 .0981,.9102 .1401,1.3018 .0415,.3897-.0459,.791-.1348,1.1938-.6792,.9805-2.4292,1.7939-2.1436,3.2149 .2271,.8989 .7607,.9819 1.7671,1.8105 1.3227,1.3267 2.312,3.209 3.7368,4.2632 1.8413,1.2808 4.5054,2.8813 6.7832,3.3335l3.9546,.1704c2.1191,.2026 3.7466,.7153 5.9717,.6455l4.8892-.8325c1.0405-.0928 2.5845-.3633 3.6665-.0664 1.0825,.2969 1.2944,1.0669 3.2432,.8911l2.7134-.3745c.6357-.1875 1.1426-.3652 1.8315-.0322 1.6724,.9009-1.1616,2.5996 .1323,3.667 .7192,.5923 3.0991,.772 4.0527,1.0801 .6626,.0723 2.751,1.1978 3.1982,1.6841 .2871,.2363 .3135,.4976 .6162,.8648 .2988,.3672 .9805,.5679 1.0215,.9595 .042,.3897-.7978,1.1221-1.0293,1.4058-.7109,.7207-2.0884,2.5522-1.3125,3.665 .3027,.3667 1.124,.6865 1.5439,.9116l3.7881,1.105c1.6416,.6416 1.7822,1.9434 2.7773,2.6416 .7041,.4634 1.873,.3574 2.7969,.4067l3.9053,.9629c1.3584,.4053 .791,1.2432 1.8574,1.4097 2.252,.1934 5.708-1.8257 7.543-3.0405l3.7275-1.9111c1.4912-.7905 2.834-1.7007 4.1777-2.6089 2.5469-1.9355 4.6318-4.4883 5.8955-7.3603 .4355-.8267 1.6689-2.7778 1.7451-3.3091 .1738-.8042-.6631-1.2549-.3408-1.9395 .4199-.9595 2.1152-2.2935 2.5205-3.3794 .3369-.5562 .2383-1.4663-.3262-1.8105-.5449-.2139-.9082,.0811-1.9902-.2158 .8174-2.1743 2.2969-4.2783 3.5273-6.229 .5674-.8379 1.5811-2.3745 1.6006-3.4263 .004-1.1826-1.0527-1.2207-1.4951-1.7051-.4316-.3555-.333-.6279-.6055-.7358-.5449-.2119-1.415,.2593-1.9482,.1758-.3906,.0342-.6777-.2022-.9502-.3081-.4199-.2251-.9238-.0493-1.3135-.0151-.5859-1.7861 .6357-5.0483 1.2344-6.8096 1.165-3.7827 2.7246-7.6025 2.1602-11.6235l-.5977-3.0991c-.1699-.3804-.4844-.876-.9912-.7002-.7647,.2007-1.4385,2.4941-1.7559,3.1787l-1.7559,3.1807c-.4502,.6963-.7422,1.6426-1.3359,2.2212-.4775,.4375-1.2305,.7666-1.8506,1.0845-.2012-.6377-.5752-.4731-1.082-.2954l-2.3545,1.2622c-.4912,.3066-1.46,1.0503-2.1113,1.1089-.5186,.0474-.8213-.3198-1.585-.1211-.5186,.0474-1.4004,.3897-1.8057,.293-.5332-.083-1.1084-.5562-1.6426-.6392-.4004-.0967-1.1689,.104-1.5439,.2686-1.2988,.1172-3.3311-.4902-4.6738-.7627 .2461-.1533 .5068-.1758 .4805-.437 .1895-.6733-.8477-1.7632 .4238-2.1401 .1289-.0112 .3897-.0356 .5186-.0469l2.2207-.0684 1.2881-.2461c.6621,.0723 .8359,.4507 1.7441,.3691l3.1904-.8115c1.3018-.1177 1.8272,1.1504 3.1748,.2402 1.0976-.7549 2.1309-3.3452 2.5244-4.562l1.1348-2.8608 .4395-2.0093c.4951-1.4912 .9453-2.1875 .7637-3.8789l-.2647-2.4731c-.1133-1.0405-.3252-1.8105-1.3965-.7944-.8281,.8628-1.1201,1.8086-2.4443,1.665-.3516,1.6084-.1289,3.6895-1.7334,4.6226-.6094,.4482-1.2861,.2456-1.918,.4351-.3789,.1646-.8711,.4731-1.1436,.3652-.3897,.0337-.6768-.2026-.7188-.5923 .0723-.5317 .9541-.874 1.332-1.0391 1.2568-.5068 1.8926-.6963 2.8193-1.8296 .5635-.8399 .624-1.5024 1.0742-2.1987 .4619-.5674 .8672-.4727 1.3291-1.0386 .3477-.4258 .9873-1.7974 1.3203-2.3521l1.5889-4.7412c.7686-1.3833 2.0557-1.6294 2.3926-3.3682l.2002,.6396c1.374-.6489 1.3623-1.9619 1.0938-3.2505 .7793-.0703 2.3652,.0493 3.001-.1382l2.9473-1.8408c.7383-.4619 1.9531-1.3589 2.127-2.1631 .2041-.543-.6396-2.3062-.9424-2.6733-.1553-.248-.2988-.3672-.5752-.4731-.6777-.2022-1.5703,.01-2.0586-.8667-.6055-.7339-1.2754-3.3013-1.7744-4.3081-1.0752-2.6621-1.1465-2.1304-1.6504-3.1362-.3291-.627-.2686-1.2896-.3408-1.9404-.1846-.5078-.4873-.875-.5137-1.1362-.0576-.52 .3057-.8154 .6543-1.2402 .5488-.9697 .4648-1.75 1.0596-2.3291 .4766-.437 .8965-.2109 1.1123-.625 .7988-1.1221-1.1309-2-.4805-3.2412 .333-.5557 1.2754-1.5591 1.9258-1.6182 .5039-.1758 .9238,.0483 1.4268-.1275 .4922-.3076 .5264-1.23 .7305-1.7739 .5068-1.3594 1.3018-1.2988 1.4951-3.1548 .0605-.6626 .0908-1.5859-.2236-2.0825-.6055-.7349-1.457-.1323-1.6611,.4116-.4502,.6963-.3516,1.6084-.2686,2.3887-.0459,.792-.1934,1.856-.6436,2.5532-.5488,.9697-1.6729,.2822-1.9902-.2144-.1553-.249-.0527-.5205-.083-.7817 .0186-1.0527-.2842-1.4189-.0195-2.625 .0723-.5327 .5674-2.022 .4131-2.2705-.0459-.3906-1.2383-1.7275-1.5371-2.0957-.5898-.6035-1.6533-1.9536-2.6367-1.3394-.8672,.4712-.6855,2.1636-.8477,3.0972-.0879,.4018-.2656,1.206-.6553,1.2412-.2422,.1533-.6768-.2026-.9609-.439-.7344-.7226-1.1807-1.208-1.3057-2.3794 .4014,.0947 1.4834,.3926 1.5586-.1401-.0566-.52-.6728-1.3848-1.1953-1.3374-.5332-.0835-.6055,.4482-1.3135-.0132-.5752-.4741-1.8506-2.5933-2.4561-3.3276-.7598-.9829-1.8955-1.8003-3.0078-2.3574-.6738-.2012-2.8652-1.0566-3.4736-.6074-.2461,.1533-.2051,.543-.3066,.8144-.1436-.1172-.2881-.2363-.5449-.2134-.9385-.1782-1.2149,.8975-1.2754,1.5601 .0264,.2598 .083,.7812-.292,.9458-.3779,.1645-.666-.0718-.9541-.3091-.7041-.4619-.7188-.5923-1.6689-.9009 .1855,.5088 .3711,1.0181 .6855,1.5146 .7637,.9829 1.2822,.9355 1.1611,2.2612-1.0938-.4277-2.3311-.9727-3.0801-1.8262l1.0107-.3535-.0273-.2593c-.416-.2261-1.8428-1.2803-1.8994-1.8003-.042-.3906 .4766-.438 .4355-.8281 .0908-.4018-.3291-.6269-.125-1.1709 .3477-.4258 1.1006-.7559 1.0439-1.2764-.0303-.2603-.3174-.4966-.5899-.6035-.5605-.3442-1.5557-1.0425-2.1494-.4643-.4766,.437-.1172,1.3242-.3818,2.5303-.4053-.0942-1.0976-.4272-1.499-.522-.5332-.0835-1.1543,.2344-1.8467-.0967-.9531-.3091-1.2939-1.0669-2.1152-1.3877-1.5137-.6518-2.7851-.2744-4.2002-.0161-.6475,.0576-1.6885,.1514-2.3086,.4692-.4922,.3076-.7119,.7207-.9277,1.1343-.5781,.7095-1.7217,1.0737-1.6074,2.1142 .2266,.8999 1.0215,.9605 1.3086,1.1958l.8291,1.6348c-.8936,.2109-1.3135-.0132-2.0889,.0562l-3.0767,.6694c-1.5742,.0107-2.0625-.8652-3.0274-1.3042-.5449-.2139-.9346-.1792-1.3545-.4043-.4316-.3545-.4731-.7451-.6172-.8647-.3027-.3657-1.627-.5107-2.0166-.4756 .0264,.2612 .0415,.3906-.1895,.6733-.2192,.4145-1.332,1.04-1.8506,1.0864-.2456,.1533-.6509,.0586-.9233-.0483l.0723-.5327c.0606-.6611-.3296-.6265-.8325-.4502-.7686,.2002-1.23,.7671-1.8394,1.2158 .2197-.4136 .4238-.9575 .772-1.3823 .4771-.437 1.1128-.6265 1.7334-.9443l1.9639-1.227c.4917-.3066 1.2451-.6377 1.6045-.9326 1.0859-.8858 1.313-3.6641 1.0293-5.084-2.0093,.8359-1.4761,.9194-2.8345,1.6987-.4917,.3066-.7529,.3306-1.1274,.4951-.3599,.2959-.4507,.6982-.5376,1.0991zm13.7822-4.7832 1.2793,.9365 .9756,1.751c.75-.3301 .8516-.6016 1.3594-.7783 .2451-.1533 1.8613,.227 1.4863-.79-.1436-.1191-.2871-.2373-.4307-.3555l-.0869,.4018c-.4316-.3555-1.0068-.8296-1.5557-1.0435-.5488-.2129-2.3809-.1797-3.0273-.1221zm4.3975,.6567c1.8164-.1626 1.502-.6606 2.543-.7534 .5029-.1777 1.3086,.0137 1.8428,.0967l-.0723,.5317c1.0938,.4277 1.0254-.2231 1.832-.0332 .8213,.3208 1.3242,1.3276 2.6787,1.7305 .5449,.2148 .8213,.3208 1.3135,.0142 .3135,.4976 .4463,.4863 .9649,.439 .0605-.6621 .4346-.8276 .2607-1.2061-.1699-.3794-1.54-.9131-1.6572,.4121-.4619-.6167-.2158-.77-.3857-1.1475-.4619-.6167-1.3848-.665-2.0215-.4766-.2686-1.2895-.0977-.9111-1.8955-1.8003-.5635-.3438-1.8008-.8896-2.4668-.9614-.791-.0605-.9951,.4834-1.6162,.8022-.3477,.4258-.7529,.3301-1.1123,.6255-.3486,.4248-.2647,1.2061-.208,1.7266zm27.4434-5.7475 1.6426,1.8242c.6172,.8638 1.2334,1.7285 1.9678,2.4502 .5752,.4741 1.3965,.7949 2.1611,.5952 .5068-.1772 2.0391-1.7598 .7871-2.436-.417-.2246-1.041,.0937-1.4268,.1284 .0303-.9224-.0264-1.4429-.2539-2.3423-.0264-.2603-.083-.7803-.5908-.6035-.6201,.3188 .1103,2.2231-.8701,1.6543l-.416-.2251-.4316-.3555c-.4648,.5664 .083,.7803 .5303,1.2656 .5752,.4751 1.0176,.9605 1.1045,1.7407-1.4111-.9253-1.4941-1.7046-2.4024-2.8057-.5869-.6045-1.0186-.9605-1.8018-.8906zm5.6348-1.293c.3555,.8872 1.7481,2.8647 2.7021,3.1729-.6475-1.124-1.4795-2.7578-2.7022-3.1729zm-96.1494,9.5464c.3897-.0347 .9101-.0815 1.1689-.105l3.3872,1.0098c.9385,.1787 1.8618,.2275 2.4785,1.0913-1.688,.1523-1.3281-.1436-2.668-.417-1.1958-.1553-1.5591,.1401-2.4824,.0908-.5337-.0835-.8062-.19-1.2109-.2847l-3.4775,.5742c-.9233-.0483-1.124-.687-1.6728-.9009-.5601-.3442-1.0669-.1675-1.5591,.1401-.8779,.3418-1.7329,.9434-2.5864,1.5459-1.5913,1.0615-3.4263,2.2778-4.5713,3.8257-.7964,1.1221-.5977,1.7617-1.3945,2.8838-.8096,.9922-2.6753,1.9478-3.9355,3.6382-.9136,1.2642-.8306,2.0444-1.1768,2.4702-.2329,.2827-1.8374,1.2158-2.2139,1.3804-.3745,.1646-.7642,.1997-1.0103,.354-.3613,.2949-.5791,.7085-.7983,1.1226l-1.2866,1.4287c-.333,.5552-1.6841,2.647-1.7578,3.1797-.0322,.9224 1.4551,1.3149 .6699,2.5674-.1157,.1411-.231,.2832-.3467,.4258-.853,.6016-1.082-.2978-1.7441-.3696-.8081-.1904-2.0093,.8369-2.7285,.2446-.4463-.4853-.2554-1.1587-.3101-1.6797-.2007-.6387-.4883-.8755-.6738-1.3843-.3311-.6284-.0679-1.8345-.9878-3.0654-.4727-.7451-1.0195-.959-1.4414-.0005l-.3066,.8145c-.5147-1.1352-.2236-2.0815-1.1621-2.2612-1.1953-.1543-1.5605,1.3237-2.2568,2.1738-1.7373,2.127-2.0264,1.8901-3.3569,2.9282l-1.7651,1.8667-1.1011,.7559c-.5923,.5786-.9858,1.7964-1.2905,2.6118l-1.2734,5.2383c-.2783,1.0747-.7456,2.8267-1.8862,3.1899-.375,.1646-1.5591,.1401-1.9624,.0454-.418-.2251-.7188-.5918-1.1221-.6885-.3897,.0361-1.4302,.1284-2.395-.3105-.5752-.4726-1.3359-1.4565-1.8848-1.6685-.5469-.2158-1.0669-.1685-1.5854-.1211-.6509,.0566-1.5591,.1397-2.0928,.0566-1.3545-.4038-2.229-2.4277-2.7437-3.564-.1851-.5088-.5298-1.2666-.9477-1.4917-.5752-.4741-1.2695,.3765-1.9468,.1748-.5337-.084-1.7144-1.291-2.4048-1.624-.144-.1187-.5771-.4731-.8213-.3198-.2593,.0225-.335,.5562-.4355,.8267-.0186,1.0532 .271,1.2896 .8726,2.0244 .1436,.1177 .5903,.604 .2271,.8989-.6055,.4482-1.4795-1.5752-2.1606-.5942-.1025,.2725-.0874,.4023-.2046,.543l-.2593,.0239-.6279-2.1768-.0967-.9111-.874-2.0234-1.0708,1.0156-.2559-1.1597-.3574-.8872c-.2007-.6387-.7188-.5923-1.2109-.2861-.9688,.7446-1.6387,1.8555-2.2441,2.3037-.7378,.4609-1.2998,.1167-1.8047,.2935-.6206,.3188-1.0562,1.1455-1.2471,1.8203l-.999,5.3442c-.8647,4.1509-1.417,5.1196-.9404,9.5435l.5259,2.4487 .4941,3.3716 .4409,1.6685 .2607-.0244c-.1816-1.6914-.1284-4.8496 .3521-6.4688 .4692-1.7485 1.2188-2.0796 1.2563-4.1855l.3105,1.6821c.7095-.7231 .6543-1.2432 1.6499-1.7256 .3311,.626 .4746,.7456 .6885,1.5156 .2007,.6372 .2554,1.1577 .5864,1.7861 .3296,.626 .6021,.7339 .918,1.2314 .3027,.3652 .5015,1.0049 .6865,1.5137 .3599,.8877 .6436,2.3086 1.7236,2.6055 .4224-.9575 .2974-2.1284 .3125-3.1821 .1021-.2725 .1494-1.0635 .3936-1.2168 .6357-.1895 .8931,.9707 .9346,1.3603 .3711,1.0181 .6416,2.3086 1.2583,3.1709 .645,1.126 1.1524,.9482 1.9961,2.7114l.1909-.6733c.3579,.8872-.0923,1.5854 .8877,2.1533-.0566-.5205-.1626-2.7437 .0527-3.1582 .1025-.2725 .4922-.3066 .7534-.3291l.6055,4.4121c.0547,.5205 .2534,1.1602 .5562,1.5273 .7339,.7227 1.5874,.1191 1.9165,.7471l.5127,2.3179c.4409,1.6689 1.0562,3.7163 1.7407,5.23 .5166,1.1367 1.2036,2.6524 2.0815,3.4927 .3027,.3672 .7476,.8535 1.2524,.6753 .5073-.1758 .3066-.8154 .3936-1.2163 .0757-.5317 .3198-.685 .4087-1.0879 .0605-.6626-.1553-1.4326 .1777-1.9868-.1738,.8042 .0986,.9101 .1836,1.6914 .1118,1.0405 .3672,2.2007 .7398,3.2168 .5566,1.5288 .9707,2.9346 1.9038,4.2969 .6187,.8647 2.0435,1.9185 2.9062,2.6299 1.1807,1.207 2.3442,2.2856 3.769,3.3394l1.6992,1.1621 1.4111,.9253c1.2529,.6753 1.3853-.5205 2.1646-.5889 .4048,.0947 1.8276,1.1484 2.2593,1.5044 2.1875,2.0376 1.4683,1.4458 2.978,3.2808l3.4058,3.6348c.8779,.8403 1.9678,2.4522 3.1655,2.6055l1.1977,.1572c1.3399,.2744 2.8384,.7964 4.2383,.4067 .5205-.0474 .8818-.3408 1.1143-.6245 .3467-.4258 .5508-.9688 1.0713-1.0161 .5332,.0835 1.7729,.6284 2.3193,.8438 1.3833,.6626 3.3418,1.8013 4.812,2.0625 1.4717,.2632 2.5278-.8833 2.2856-1.9126-.3711-1.0181-1.9263-2.0605-2.7568-3.6934-.8042-1.3721-1.3603-2.8989-2.2803-4.1309l-2.1113-2.5693-1.2642-1.9888-.6167-.8643c-.1587-.248-.3857-1.147-.4277-1.5386l-1.4453-3.6802c-.6587-1.2544-1.9604-1.1372-2.8042-2.9004 .6035,.7339 1.7559,1.6821 2.5752,2.002-.3706-1.0181-1.2017-2.6509-1.8203-3.5156l-1.3223-1.3262c.7188,.5918 1.2939,1.0669 2.2324,1.2446l.2764-1.0767c.4087-1.0879 .7832-1.2524 .7739-2.5654-.1079-2.2231-2.1611-5.4551-2.4541-8.187-.127-1.1714 .1362-2.3765 .2705-3.5703l.0361-2.106c-.042-.3901 .189-.6758 .2647-1.2056l-.0244-1.4434c.1758-.8042 .2778-1.0767 .1948-1.8584l-.6284-2.1758-.0376-1.5742-.2251-2.0811c-.1685-1.561 .6714-2.2935 .8193-3.3569 .0757-.5332-.5981-1.9185-.8877-2.1548-.418-.2251-1.311-.0132-.9932-.6982 .3198-.6851 1.4985,.522 1.8013,.8892 .3784-1.3472 .0908-1.5854-.1646-2.7446l-.4941-3.3716c-.2271-.8994-.8023-1.3726-.8457-1.7632 .0889-.4023 .4785-.4375 .9404-1.0039 .4653-.5674 .6548-1.2412 .7153-1.9033l.0225-2.2358c.146-1.064 1.0444-2.4585 2.1875-2.8237 1.1543-.2344 2.333,.9727 2.9819,.915 .6509-.0591 .9688-.7437 1.188-1.1582l1.4985-4.3384 .2612-.0239c.645,1.126 1.3227,1.3272 2.1987,2.1685l.749,.8525c.144,.1182 .3901-.0352 .6357-.1885 .4619-.5669 1.0181-2.7188 .689-3.3462-.1855-.5088-.7607-.9829-.9614-1.6216-.0415-.3906 .1763-.8042 .3936-1.2173 .3066-.8164 .4678-1.7505 1.0596-2.3291 1.1733-1.2876 3.5117-1.498 4.9365-.4429 .7212,.5923 .6304,.9941 .9331,1.3613 .4463,.4854 1.0952,.4277 1.3091,1.1968 .0283,.2603-.0303,.9224-.1191,1.3242 .085,.7808 .2402,1.0293-.0645,1.8447-.435,.8272-1.1577,1.4175-1.4512,2.3633-.4067,1.0879 .2573,1.1602 .0947,2.0938-.2915,.9463-1.001,1.667-1.2925,2.6128-.335,.5557-.2778,1.0757-.8833,1.5244-.4922,.3062-1.2866,.2466-1.8052,.293-.7661,.1997-1.3735,.6489-1.9941,.9673 .0264,.2607 .0547,.52 .2119,.769 .2153,.769 .8647,.7104 1.4985,.522 1.0254-.2222 2.3838-1.002 3.3926-.1728 .876,.8418 1.1426,3.314 1.8901,4.166 .7188,.5923 1.2393,.5459 2.0469,.7363 .5469,.2139 .9653,.439 1.3965,.7944 1.0068,.8286 .689,1.5146 1.1465,2.1299 .4316,.3545 .8081,.1919 1.2529,.6763l1.9087,3.1123 1.3154-1.1689c.4463,.4858 .9668,.4385 1.0254-.2236-.0415-.3897-.2534-1.1577-.4277-1.5381 .8779,.8418 .9482,1.4927 .9443,2.6753 .0283,.2593-.0737,.5317 .085,.7817 .0552,.5181 .687,1.5137 1.1182,1.8691 .562,.3423 .9365,.1777 1.4287-.1289 .4502-.6963 .7134-1.9033 1.4077-2.7529 .5811-.7095 1.7349-.9438 2.7778-2.2212-.2725-.106-1.0938-.4258-1.0068-.8286 .2041-.543 .9839-.6133 1.4756-.9204 .7231-.5903 1.2754-1.5601 1.4365-2.4932l-1.5879-.1211-.9365-.1787-1.2998,.1177-1.2788-.937-1.8467-.0972c.3179-.6851 .5371-1.0996 1.3169-1.1694 .3896-.0351 .9365,.1797 1.1826,.0264 .5049-.1777 .4482-.6982 .8115-.9932 .6943-.8506 1.7178-1.0737 1.8677-2.1382 1.0669,.1665 1.2998-.1162 1.8315-.0332 1.0952,.4268 1.436,2.3672 1.9375,3.3735-1.355-.4038-1.0996,.7554-1.1318,1.6777 .4922-.3066 1.0713-1.0151 1.5762-1.1924l1.7031-.0215c.3896-.0351 .5049-.1763 .8818-.3418 .8945-.2109 1.4849,.3926 1.958,1.1382 .4922-.3066 .4639-.5674 .1475-1.0645l.6494-.0586-.3711-1.0166c-.6489,.0576-.7949-.0606-.9839,.6128-.56-.3433-.56-.3433-1.2241-.4155l.4785-.436-.0303-.2612c-1.1084-.5571 .1631-.9336 .3521-1.6079 .0889-.4023-.0679-.6499-.2271-.8989l1.6328-.6724c.6943-.8496 1.2847-.2461 1.5762-1.1924 1.3398,.2744 .8989-1.394 1.9111-1.748 .2441-.1533 .647-.0576 .9082-.0815 .3745-.1646 .749-.3291 1.1274-.4946 .5186-.0464 .7798-.0688 1.2827-.2471 .4922-.3062 .9424-1.0034 1.2905-1.4282 .231-.2852 .7075-.7212 .8101-.9937 .0869-.4019-.0835-.7793-.1514-1.4312 .5332,.083 .9233,.0483 1.2676-.3765 .3633-.2954 .3066-.8159-.2422-1.0293-.1289,.0122-.5186,.0474-.647,.0586l1.7935-1.6064 .3521-1.6084-.5073,.1768 .1782-.8042-1.4307,.1289c.231-.2837 .9273-1.1343 1.1582-1.418 .6094-.4487 1.2715-.3765 1.5781-1.1934-1.2832,.2471-2.8608,1.4394-3.6709,2.4316l-1.2642,1.6894 .0762-.5317c-1.2715,.3774-1.1885,1.1582-1.6807,1.4649l-.2456,.1528c.3897-.0347-2.2212,.0684-1.8164,.1641-.6641-.0723-1.3833-.6641-1.9585-1.1392-.4331-.355-.7324-.7217-1.2241-.4145l-2.4331-1.8833c.2305-.2837 .3481-.4258 .0605-.6631-.2876-.2368-.9648-.439-1.5269-.7827-1.0088-.8286-.9614-1.6216-1.0884-2.7925-.1094-1.0405-.2422-1.0293-.5977-1.917-.1724-.3794-.2007-.6392-.5034-1.0063-.3008-.3672-1.0063-.8286-1.438-1.1846-.5752-.4732-1.2939-1.0659-1.958-1.1382-.9365-.1777-1.6597,.4126-2.4692,.2217-.6773-.2017-1.5537-1.0425-2.3745-1.3633-.5337-.0835-1.1826-.0249-1.7031,.0215-.0283-.2603-.085-.7803-.3574-.8872-.4165-.2251-1.1694,.105-1.688,.1514-.52,.0464-.6924-.332-1.0952-.4277-.4033-.0947-2.2368-.0615-2.4692,.2217-.2461,.1538-.0723,.5322-.0454,.7925zm92.8272-13.584c1.0635,1.3496 2.9629,3.1499 4.5635,3.4009-.4726-.7466-.8779-.8408-1.4531-1.3149-.8477-.5811-2.2891-1.7656-3.1103-2.0859zm-10.3994-5.2412-.3291-.6274c.5488,.2129 1.0977,.4267 1.4121,.9243 .1699,.3784 .2002,.6387 .2422,1.0293 .083,.7808 1.4492,2.4976 2.2402,2.5571 .2754,.1069 .2607-.0225 .5215-.0464l-.6699-2.5674c-.3027-.3672-.6768-.2017-1.123-.687l-2.7022-3.1738c-.1592-.249-.7607-.9829-.6738-1.3843 .2305-.2837 .8818-.3423 1.1426-.3647l-2.4746-2.2744c-.2881-.2373-.7344-.7226-1.2412-.5459-.5039,.1768-.6934,.8506-.9131,1.2637-.2158,.4145-.5635,.8393-.5225,1.23 .1855,.5093 .7764,1.1128 1.0762,1.4795l2.3047,1.895c.5899,.6045 .8887,.9717 1.71,1.2925zm33.6758-.2632c-.3408-1.9404-1.5898-3.7983-3.0537-5.2432l-2.3047-1.8955c-.8896-.9707-1.8506-2.5923-3.1602-3.7891-1.4375-1.1846-2.5195-1.4814-3.7988-2.418l-2.1758-1.9072-3.8828-3.1987c-1.0068-.8286-2.2022-2.1675-2.9629-3.1494-.7764-1.1133-.5566-1.5269-1.0029-2.0122-.3027-.3672-1.3965-.7949-1.9297-.8779l.2041-.5439-.9648-.439c.5371-1.0991-.2158-.769-.9766-1.751-.3027-.3672-.3555-.8887-.832-1.6338-.7461-.8525-1.7412-1.5518-2.7178-2.1201l-4.7373-2.5972c-1.5293-.7822-3.6191-1.9092-5.333-2.0176-1.3135-.0137-2.1533,.7188-3.4404,.9649-1.1533,.2354-3.6475,.1968-4.4463,1.3188-.8096,.9922 1.2188,2.7812 1.9531,3.5039l2.0547,2.0483c.5908,.6045 .7607,.9829 1.3623,1.7168 .5791,.4741 1.6992,1.1621 2.1611,1.7768 .458,.6157-.3066,.8164 .3096,1.6802 .4736,.7456 1.6279,1.6934 1.9727,2.4512 .1855,.5088 .2686,1.2895 .7002,1.6455 .416,.2251 .9082-.0825 1.2978-.1177 .6357-.188 2.502-1.1436 3.0615-.7993 .5605,.3433 2.4746,2.2734 2.9219,2.7598 .2871,.2363 .874,.8399 .7871,1.2432 .0713,.6499-1.9756-.0864-1.4873,.7895 .1582,.249 1.4111,.9243 1.8428,1.2803l1.5967,1.4331 1.8545,1.4097c.4316,.356 .9043,1.1011 1.3242,1.3267 .8213,.3203 1.2412-.6367 1.9492-.1753 1.3809,.6641 2.3721,2.5469 3.8106,3.731 .9766,.5688 1.2217,.4155 2.043,.7363 .6924,.332 1.1396,.8174 1.8428,1.2798 1.1094,.5571 1.2002,.1553 2.4941,1.2217 1.7256,1.4209 3.1943,2.8662 4.6738,4.4414 .5898,.6035 2.043,1.9185 2.7207,2.1201 .1289-.0112 .2568-.0225 .3896-.0347l1.4873-.79c0,0 .1328-.0127 .1172-.1421 .0869-.4019 .0303-.9224 .1172-1.3247 .0908-.4018 .3369-.5552 .4092-1.0879 .0869-.4009 .004-1.1826 .3779-1.3472 .3789-.1655 1.0977,.4268 1.3701,.5337zm-31.7003-33.8095c-.0566-.5205-.2002-.6387-.3857-1.1475-.7764-1.1128-1.6387-1.8232-2.8652-2.2397-.4004-.0942-1.6113-.3804-1.8311,.0332-.333,.5552 1.0781,1.4805 1.4941,1.7056 .4316,.355 .9805,.5688 1.4121,.9248 .8359,.4502 1.2373,.5454 2.1758,.7236zm-50.8794-10.9365c1.7183,.1079 2.3652,.0503 4.0073,.6904 1.4985,.5225 2.3765,1.3633 4.0947,1.4722l-1.9263-2.0606 1.0976-.7549c-.5752-.4741-.8325-.4512-1.3965-.7944-.2876-.2368-.314-.4976-.6016-.7344-.2612,.0239-.9121,.0815-1.1694,.105-.7681,.1997-1.4004,.3892-2.2817,.7305-.7686,.1997-1.79,.4229-1.8242,1.3462zm7.875-3.5967c-.1895,.6733-.8252,.8618-1.4341,1.3101 .1436,.1182 .1587,.249 .3027,.3672 .4199,.2251 2.5542,.5591 3.0879,.6431 1.313,.0137 1.3584-.7783 2.9023-1.0488l1.9336-.3047c1.8164-.1636 4.2988-.2544 5.9185-1.0566-.6167-.8638-1.0063-.8301-1.9565-1.1382-1.4868-.3926-3.0728-.5127-4.5899,.0171-1.4004,.3887-1.3438,.9092-3.1636,1.0728l-3.001,.1382zm-27.5869,222.6611c-30.334-6.4766 6.1704,1.2852 0,0z"/>
</g>
<path opacity=".1" fill="url(#linearGradient3613)" filter="url(#filter3794)" stroke="#fff" stroke-linecap="round" stroke-width=".5" d="m27,15h42a12,12 0 0,1 12,12v42a12,12 0 0,1 -12,12h-42a12,12 0 0,1 -12-12v-42a12,12 0 0,1 12-12" clip-path="url(#clipPath3613)"/>
</svg>
