<svg xmlns="http://www.w3.org/2000/svg" viewBox="0 0 96 96" xmlns:xlink="http://www.w3.org/1999/xlink">
<defs>
<clipPath>
<path fill="#fff" d="m12,6h72a6,6 0 0,1 6,6v72a6,6 0 0,1 -6,6h-72a6,6 0 0,1 -6-6v-72a6,6 0 0,1 6-6"/>
</clipPath>
<linearGradient gradientTransform="translate(0 -97)" id="linearGradient3721" xlink:href="#ButtonShadow-0" y1="6.132" y2="90.239" x2="0" gradientUnits="userSpaceOnUse"/>
<linearGradient gradientTransform="matrix(0 -1 1 0 32 66)" id="linearGradient4793" xlink:href="#linearGradient3737-4" x1="22" x2="44" gradientUnits="userSpaceOnUse"/>
<linearGradient gradientTransform="matrix(.36458 0 0 .36458 16.16667 -81.10416)" id="linearGradient4791" xlink:href="#linearGradient3622" x1="16" x2="80" gradientUnits="userSpaceOnUse"/>
<linearGradient gradientTransform="matrix(-.35714 0 0 .35714 82.14286 15.85714)" id="linearGradient4789" xlink:href="#linearGradient3650-2" y1="48" x1="6" y2="81.071" x2="48" gradientUnits="userSpaceOnUse"/>
<linearGradient gradientTransform="matrix(.35714 0 0 .35714 47.85714 15.85714)" id="linearGradient4787" xlink:href="#linearGradient3650-2" y1="48" x1="6" y2="81.071" x2="48" gradientUnits="userSpaceOnUse"/>
<linearGradient gradientTransform="matrix(.35714 0 0 .35714 47.85714 15.85714)" id="linearGradient4781" xlink:href="#linearGradient3825" y1="90" x1="63.536" y2="6" x2="32.071" gradientUnits="userSpaceOnUse"/>
<linearGradient gradientTransform="matrix(.35714 0 0 -.35714 47.85714 50.14286)" id="linearGradient4785" xlink:href="#linearGradient3672" y1="48" x1="13.321" y2="84.286" x2="48" gradientUnits="userSpaceOnUse"/>
<linearGradient gradientTransform="matrix(-.35714 0 0 -.35714 82.14286 50.14286)" id="linearGradient4783" xlink:href="#linearGradient3672" y1="48" x1="13.321" y2="84.286" x2="48" gradientUnits="userSpaceOnUse"/>
<linearGradient gradientTransform="matrix(.35714 0 0 .35714 15.85714 47.85714)" id="linearGradient4815" xlink:href="#linearGradient3825" y1="90" x1="63.536" y2="6" x2="32.071" gradientUnits="userSpaceOnUse"/>
<linearGradient gradientTransform="matrix(1.02381 0 0 1.0119 -1.14286 -98.07143)" id="linearGradient3780" xlink:href="#ButtonShadow-0" y1="6.132" y2="90.239" x2="0" gradientUnits="userSpaceOnUse"/>
<linearGradient gradientTransform="matrix(1.00587 0 0 .99417 100 0)" id="ButtonShadow-0" y1="92.54" y2="7.017" x2="0" gradientUnits="userSpaceOnUse">
<stop offset="0"/>
<stop offset="1" stop-opacity=".588"/>
</linearGradient>
<linearGradient gradientTransform="matrix(-.35714 0 0 -.35714 72.14286 82.14286)" id="linearGradient4817" xlink:href="#linearGradient3672" y1="48" x1="13.321" y2="84.286" x2="48" gradientUnits="userSpaceOnUse"/>
<linearGradient gradientTransform="matrix(0 -1 1 0 0 98)" id="linearGradient4827" xlink:href="#linearGradient3737-4" x1="22" x2="44" gradientUnits="userSpaceOnUse"/>
<linearGradient gradientTransform="matrix(.36458 0 0 .36458 48.16667 -49.10417)" id="linearGradient4825" xlink:href="#linearGradient3622" x1="16" x2="80" gradientUnits="userSpaceOnUse"/>
<linearGradient gradientTransform="matrix(.35714 0 0 -.35714 15.85714 82.14286)" id="linearGradient4819" xlink:href="#linearGradient3672" y1="48" x1="13.321" y2="84.286" x2="48" gradientUnits="userSpaceOnUse"/>
<linearGradient gradientTransform="matrix(-.35714 0 0 .35714 72.14286 47.85714)" id="linearGradient4823" xlink:href="#linearGradient3650-2" y1="48" x1="6" y2="81.071" x2="48" gradientUnits="userSpaceOnUse"/>
<linearGradient gradientTransform="matrix(.35714 0 0 .35714 15.85714 47.85714)" id="linearGradient4821" xlink:href="#linearGradient3650-2" y1="48" x1="6" y2="81.071" x2="48" gradientUnits="userSpaceOnUse"/>
<linearGradient gradientTransform="matrix(.35714 0 0 .35714 -34.14286 15.85714)" id="linearGradient4727" xlink:href="#linearGradient3825" y1="90" x1="63.536" y2="6" x2="32.071" gradientUnits="userSpaceOnUse"/>
<linearGradient id="linearGradient3650-2">
<stop offset="0" stop-opacity="0"/>
<stop offset=".3" stop-opacity="0"/>
<stop offset=".5" stop-opacity=".118"/>
<stop offset=".7" stop-opacity="0"/>
<stop offset="1" stop-opacity="0"/>
</linearGradient>
<linearGradient id="linearGradient3617" xlink:href="#linearGradient3641" y1="90" y2="5.988" x2="0" gradientUnits="userSpaceOnUse"/>
<linearGradient gradientTransform="matrix(0 -1 1 0 0 66)" id="linearGradient4723" xlink:href="#linearGradient3737-4" x1="22" x2="44" gradientUnits="userSpaceOnUse"/>
<linearGradient id="linearGradient3188" xlink:href="#linearGradient3737" y1="6" y2="63.893" x2="0" gradientUnits="userSpaceOnUse"/>
<linearGradient id="linearGradient3641">
<stop offset="0" stop-color="#b4b4b4"/>
<stop offset="1" stop-color="#dcdcdc"/>
</linearGradient>
<linearGradient id="linearGradient3825">
<stop offset="0" stop-color="#b3b3b3"/>
<stop offset="1" stop-color="#d2d2d2"/>
</linearGradient>
<linearGradient id="linearGradient3737">
<stop offset="0" stop-color="#fff"/>
<stop offset="1" stop-color="#fff" stop-opacity="0"/>
</linearGradient>
<linearGradient id="linearGradient3672">
<stop offset="0" stop-color="#fff" stop-opacity="0"/>
<stop offset=".3" stop-color="#fff" stop-opacity="0"/>
<stop offset=".5" stop-color="#fff" stop-opacity=".612"/>
<stop offset=".753" stop-color="#fff" stop-opacity="0"/>
<stop offset="1" stop-color="#fff" stop-opacity="0"/>
</linearGradient>
<linearGradient id="linearGradient3622">
<stop offset="0" stop-color="#d6d6d6"/>
<stop offset="1" stop-color="#eaeaea"/>
</linearGradient>
<linearGradient gradientTransform="matrix(.35714 0 0 -.35714 15.85714 50.14286)" id="linearGradient3863" xlink:href="#linearGradient3672" y1="48" x1="13.321" y2="84.286" x2="48" gradientUnits="userSpaceOnUse"/>
<linearGradient gradientTransform="matrix(.35714 0 0 .35714 15.85714 15.85714)" id="linearGradient3869" xlink:href="#linearGradient3825" y1="90" x1="63.536" y2="6" x2="32.071" gradientUnits="userSpaceOnUse"/>
<linearGradient gradientTransform="matrix(-.35714 0 0 -.35714 50.14286 50.14286)" id="linearGradient3866" xlink:href="#linearGradient3672" y1="48" x1="13.321" y2="84.286" x2="48" gradientUnits="userSpaceOnUse"/>
<linearGradient gradientTransform="matrix(.35714 0 0 .35714 15.85714 15.85714)" id="linearGradient3858" xlink:href="#linearGradient3650-2" y1="48" x1="6" y2="81.071" x2="48" gradientUnits="userSpaceOnUse"/>
<linearGradient gradientTransform="matrix(.36458 0 0 .36458 16.16667 -49.10417)" id="linearGradient3852" xlink:href="#linearGradient3622" x1="16" x2="80" gradientUnits="userSpaceOnUse"/>
<linearGradient id="linearGradient3737-4">
<stop offset="0" stop-color="#fff"/>
<stop offset="1" stop-color="#fff" stop-opacity="0"/>
</linearGradient>
<linearGradient gradientTransform="matrix(-.35714 0 0 .35714 50.14286 15.85714)" id="linearGradient3855" xlink:href="#linearGradient3650-2" y1="48" x1="6" y2="81.071" x2="48" gradientUnits="userSpaceOnUse"/>
<radialGradient cx="48" cy="90.172" gradientTransform="matrix(1.15731 0 0 .99591 -7.55102 .19713)" r="42" id="radialGradient3619" xlink:href="#linearGradient3737" gradientUnits="userSpaceOnUse"/>
</defs>
<path opacity=".08" fill="url(#linearGradient3780)" d="m12-95.0312c-5.5111,0-10.0312,4.5202-10.0312,10.0312v71c0,5.5111 4.5202,10.0312 10.0312,10.0312h72c5.5111,0 10.0312-4.5202 10.0312-10.0312v-71c0-5.5111-4.5202-10.0312-10.0312-10.0312h-72z" transform="scale(1 -1)"/>
<path opacity=".1" fill="url(#linearGradient3780)" d="m12-94.0312c-4.9716,0-9.0312,4.0596-9.0312,9.0312v71c0,4.9716 4.0596,9.0312 9.0312,9.0312h72c4.9716,0 9.0312-4.0596 9.0312-9.0312v-71c0-4.9716-4.0596-9.0312-9.0312-9.0312h-72z" transform="scale(1 -1)"/>
<path opacity=".2" fill="url(#linearGradient3780)" d="m12-93c-4.4091,0-8,3.5909-8,8v71c0,4.4091 3.5909,8 8,8h72c4.4091,0 8-3.5909 8-8v-71c0-4.4091-3.5909-8-8-8h-72z" transform="scale(1 -1)"/>
<path opacity=".3" fill="url(#linearGradient3780)" d="m12-92h72a7,7 0 0,1 7,7v71a7,7 0 0,1 -7,7h-72a7,7 0 0,1 -7-7v-71a7,7 0 0,1 7-7" transform="scale(1 -1)"/>
<path opacity=".45" fill="url(#linearGradient3721)" d="m12-91h72a6,6 0 0,1 6,6v72a6,6 0 0,1 -6,6h-72a6,6 0 0,1 -6-6v-72a6,6 0 0,1 6-6" transform="scale(1 -1)"/>
<path fill="url(#linearGradient3617)" d="m12,6h72a6,6 0 0,1 6,6v72a6,6 0 0,1 -6,6h-72a6,6 0 0,1 -6-6v-72a6,6 0 0,1 6-6"/>
<path opacity=".5" fill="url(#linearGradient3188)" d="m12,6c-3.324,0-6,2.676-6,6v2 68 2c0,.3347 .0413,.6507 .0938,.9688 .0487,.2956 .097,.5969 .1875,.875 .0099,.0304 .0209,.0636 .0312,.0938 .0989,.2878 .2349,.5475 .375,.8125 .1446,.2735 .3156,.5356 .5,.7812 .1844,.2456 .3738,.4735 .5938,.6875 .4399,.4281 .9429,.8145 1.5,1.0938 .2785,.1396 .5735,.2469 .875,.3438-.2562-.1002-.4867-.2363-.7188-.375-.0074-.0044-.0239,.0045-.0312,0-.0319-.0193-.0623-.0425-.0938-.0625-.1204-.0767-.231-.1635-.3438-.25-.1062-.0808-.2133-.1611-.3125-.25-.1779-.1614-.3475-.3454-.5-.5312-.1076-.1303-.2184-.2653-.3125-.4062-.0251-.0384-.0384-.0859-.0625-.125-.0648-.103-.1302-.2045-.1875-.3125-.101-.1947-.2057-.4157-.2812-.625-.008-.0218-.0236-.0405-.0312-.0625-.0318-.0919-.0358-.1868-.0625-.2812-.0303-.1066-.0704-.203-.0938-.3125-.0729-.3415-.125-.6982-.125-1.0625v-2-68-2c0-2.7818 2.2182-5 5-5h2 68 2c2.7818,0 5,2.2182 5,5v2 68 2c0,.3643-.0521,.721-.125,1.0625-.0442,.2069-.0884,.3977-.1562,.5938-.0077,.022-.0233,.0407-.0312,.0625-.0627,.1737-.1384,.3674-.2188,.5312-.0416,.0828-.079,.17-.125,.25-.0546,.0972-.1268,.1883-.1875,.2812-.0941,.141-.2049,.276-.3125,.4062-.1432,.1744-.3031,.347-.4688,.5-.0112,.0102-.02,.0212-.0312,.0312-.1384,.1256-.2851,.2344-.4375,.3438-.1026,.0731-.2043,.1534-.3125,.2188-.0074,.0045-.0238-.0044-.0312,0-.232,.1387-.4625,.2748-.7188,.375 .3015-.0968 .5965-.2041 .875-.3438 .5571-.2792 1.0601-.6657 1.5-1.0938 .22-.214 .4094-.4419 .5938-.6875 .1844-.2456 .3554-.5077 .5-.7812 .1401-.265 .2761-.5247 .375-.8125 .0104-.0308 .0213-.0627 .0312-.0938 .0905-.2781 .1388-.5794 .1875-.875 .0524-.318 .0938-.634 .0938-.9688v-2-68-2c0-3.324-2.676-6-6-6h-72z"/>
<path opacity=".3" fill="url(#radialGradient3619)" d="m12,90c-3.324,0-6-2.676-6-6v-2-68-2c0-.3347 .0413-.6507 .0938-.9688 .0487-.2956 .097-.5969 .1875-.875 .0099-.0304 .0209-.0636 .0312-.0938 .0989-.2878 .2349-.5475 .375-.8125 .1446-.2735 .3156-.5356 .5-.7812 .1844-.2456 .3738-.4735 .5938-.6875 .4399-.4281 .9429-.8145 1.5-1.0938 .2785-.1396 .5735-.2469 .875-.3438-.2562,.1002-.4867,.2363-.7188,.375-.0074,.0044-.0239-.0045-.0312,0-.0319,.0193-.0623,.0425-.0938,.0625-.1204,.0767-.231,.1635-.3438,.25-.1062,.0808-.2133,.1611-.3125,.25-.1779,.1614-.3475,.3454-.5,.5312-.1076,.1303-.2184,.2653-.3125,.4062-.0251,.0384-.0384,.0859-.0625,.125-.0648,.103-.1302,.2045-.1875,.3125-.101,.1947-.2057,.4157-.2812,.625-.008,.0218-.0236,.0405-.0312,.0625-.0318,.092-.0358,.1868-.0625,.2812-.0303,.1066-.0704,.203-.0938,.3125-.0729,.3415-.125,.6982-.125,1.0625v2 68 2c0,2.7818 2.2182,5 5,5h2 68 2c2.7818,0 5-2.2182 5-5v-2-68-2c0-.3643-.0521-.721-.125-1.0625-.0442-.2069-.0884-.3977-.1562-.5938-.0077-.022-.0233-.0407-.0312-.0625-.0627-.1737-.1384-.3674-.2188-.5312-.0416-.0828-.079-.17-.125-.25-.0546-.0972-.1268-.1883-.1875-.2812-.0941-.141-.2049-.276-.3125-.4062-.1432-.1745-.3031-.347-.4688-.5-.0112-.0102-.02-.0211-.0312-.0312-.1384-.1256-.2851-.2344-.4375-.3438-.1026-.0732-.2043-.1534-.3125-.2188-.0074-.0045-.0238,.0044-.0312,0-.232-.1387-.4625-.2748-.7188-.375 .3015,.0968 .5965,.2041 .875,.3438 .5571,.2792 1.0601,.6657 1.5,1.0938 .22,.214 .4094,.4419 .5938,.6875 .1844,.2456 .3554,.5077 .5,.7812 .1401,.265 .2761,.5247 .375,.8125 .0104,.0308 .0213,.0627 .0312,.0938 .0905,.2781 .1388,.5794 .1875,.875 .0524,.318 .0938,.634 .0938,.9688v2 68 2c0,3.324-2.676,6-6,6h-72z"/>
<g fill="#f00" transform="translate(0 -19)">
<path opacity=".3" d="m106.125,60.9688c-1.7239,0-3.1562,1.4325-3.1562,3.1562v17.75c0,1.7237 1.4324,3.1562 3.1562,3.1562h17.75c1.7239,0 3.1562-1.4325 3.1562-3.1562v-17.75c0-1.7237-1.4324-3.1562-3.1562-3.1562h-17.75zm0,3.125 17.75,0c-.0002,0 .0312,.0316 .0312,.0312v17.75c0-.0003-.0315,.0312-.0312,.0312h-17.75c.0002,0-.0312-.0316-.0312-.0312v-17.75c0,.0003 .0315-.0312 .0312-.0312z"/>
<path d="m106.125,62c-1.1752,0-2.125,.95-2.125,2.125v17.75c0,1.175 .9498,2.125 2.125,2.125h17.75c1.1752,0 2.125-.95 2.125-2.125v-17.75c0-1.175-.9498-2.125-2.125-2.125h-17.75zm0,1.0938 17.75,0c.5933,0 1.0312,.4381 1.0312,1.0312v17.75c0,.5932-.438,1.0312-1.0312,1.0312h-17.75c-.5933,0-1.0312-.4381-1.0312-1.0312v-17.75c0-.5932 .438-1.0312 1.0312-1.0312z"/>
</g>
<path opacity=".7" color="#000" d="m19,16c-1.662,0-3,1.338-3,3v25 3 32c0,1.662 1.338,3 3,3h50c1.662,0 3-1.338 3-3v-29h7c1.662,0 3-1.338 3-3v-28c0-1.662-1.338-3-3-3h-60z"/>
<path fill="#f00" d="m-22.7143,20h15.4286a1.2857,1.2857 0 0,1 1.2857,1.2857v15.4286a1.2857,1.2857 0 0,1 -1.2857,1.2857h-15.4286a1.2857,1.2857 0 0,1 -1.2857-1.2857v-15.4286a1.2857,1.2857 0 0,1 1.2857-1.2857"/>
<path fill="url(#linearGradient3869)" d="m20.1429,18h25.7142a2.1429,2.1429 0 0,1 2.1429,2.1429v25.7142a2.1429,2.1429 0 0,1 -2.1429,2.1429h-25.7142a2.1429,2.1429 0 0,1 -2.1429-2.1429v-25.7142a2.1429,2.1429 0 0,1 2.1429-2.1429"/>
<path fill="url(#linearGradient3866)" d="m48,33 0-12.8571c0-1.1871-.9557-2.1429-2.1429-2.1429h-12.8571v15h15z"/>
<path fill="url(#linearGradient3863)" d="m18,33 0-12.8571c0-1.1871 .9557-2.1429 2.1429-2.1429h12.8571v15h-15z"/>
<path fill="url(#linearGradient3858)" d="m18,33 0,12.8571c0,1.1871 .9557,2.1429 2.1429,2.1429h12.8571v-15h-15z"/>
<path fill="url(#linearGradient3855)" d="m48,33 0,12.8571c0,1.1871-.9557,2.1429-2.1429,2.1429h-12.8571v-15h15z"/>
<path fill="url(#linearGradient3852)" d="m24.121-44h17.758a2.121,2.1212 0 0,1 2.121,2.1212v17.7576a2.121,2.1212 0 0,1 -2.121,2.1212h-17.758a2.121,2.1212 0 0,1 -2.121-2.1212v-17.7576a2.121,2.1212 0 0,1 2.121-2.1212" transform="rotate(90)"/>
<g fill="#333" line-height="125%" transform="matrix(1.66667 0 0 1.66667 -8.66667 -15.33333)">
<path d="m27.3633,32.4399-.7861-2.0117-3.1348,0-.791,2.0117-.9668,0 2.8076-6.8799 1.0596,0 2.7637,6.8799-.9521,0m-1.9482-5.0098c-.0521-.1302-.1025-.262-.1514-.3955-.0456-.1335-.0863-.2539-.1221-.3613-.0358-.1107-.0667-.2018-.0928-.2734-.0228-.0749-.0358-.1204-.0391-.1367-.0065,.0163-.0212,.0619-.0439,.1367-.0228,.0749-.0537,.1676-.0928,.2783-.0358,.1107-.0781,.2328-.127,.3662-.0456,.1335-.0928,.2653-.1416,.3955l-.8789,2.2607h2.5732l-.8838-2.2705"/>
</g>
<path opacity=".8" fill="url(#linearGradient4723)" d="m22,41.875c0,1.1752 .95,2.125 2.125,2.125h17.75c1.175,0 2.125-.9498 2.125-2.125v-17.75c0-1.1752-.95-2.125-2.125-2.125h-17.75c-1.175,0-2.125,.9498-2.125,2.125v17.75zm2.0312,.0938c-.0128-.0128 0-.0512 0-.0938v-17.75c0-.0851 .0087-.0938 .0938-.0938h17.75c.085,0 .0938,.0086 .0938,.0938v17.75c0,.0851-.0087,.0938-.0938,.0938h-17.75c-.0425,0-.0809,.0128-.0938,0z"/>
<path fill="url(#linearGradient4727)" d="m-29.8571,18h25.7142a2.1429,2.1429 0 0,1 2.1429,2.1429v25.7142a2.1429,2.1429 0 0,1 -2.1429,2.1429h-25.7142a2.1429,2.1429 0 0,1 -2.1429-2.1429v-25.7142a2.1429,2.1429 0 0,1 2.1429-2.1429"/>
<path opacity=".2" fill="#fff" d="m20.1562,17c-1.7265,0-3.1562,1.4298-3.1562,3.1562v25.6875c0,1.7265 1.4298,3.1562 3.1562,3.1562h25.6875c1.7265,0 3.1562-1.4298 3.1562-3.1562v-25.6875c0-1.7265-1.4298-3.1562-3.1562-3.1562h-25.6875zm0,1 25.6875,0c1.1871,0 2.1562,.9691 2.1562,2.1562v25.6875c0,1.1871-.9691,2.1562-2.1562,2.1562h-25.6875c-1.1871,0-2.1562-.9691-2.1562-2.1562v-25.6875c0-1.1871 .9691-2.1562 2.1562-2.1562z"/>
<path fill="url(#linearGradient4781)" d="m52.1429,18h25.7142a2.1429,2.1429 0 0,1 2.1429,2.1429v25.7142a2.1429,2.1429 0 0,1 -2.1429,2.1429h-25.7142a2.1429,2.1429 0 0,1 -2.1429-2.1429v-25.7142a2.1429,2.1429 0 0,1 2.1429-2.1429"/>
<path fill="url(#linearGradient4783)" d="m80,33 0-12.8571c0-1.1871-.9557-2.1429-2.1429-2.1429h-12.8571v15h15z"/>
<path fill="url(#linearGradient4785)" d="m50,33 0-12.8571c0-1.1871 .9557-2.1429 2.1429-2.1429h12.8571v15h-15z"/>
<path fill="url(#linearGradient4787)" d="m50,33 0,12.8571c0,1.1871 .9557,2.1429 2.1429,2.1429h12.8571v-15h-15z"/>
<path fill="url(#linearGradient4789)" d="m80,33 0,12.8571c0,1.1871-.9557,2.1429-2.1429,2.1429h-12.8571v-15h15z"/>
<path fill="url(#linearGradient4791)" d="m24.121-76h17.758a2.121,2.1212 0 0,1 2.121,2.1212v17.7576a2.121,2.1212 0 0,1 -2.121,2.1212h-17.758a2.121,2.1212 0 0,1 -2.121-2.1212v-17.7576a2.121,2.1212 0 0,1 2.121-2.1212" transform="rotate(90)"/>
<path opacity=".8" fill="url(#linearGradient4793)" d="m54,41.875c0,1.1752 .95,2.125 2.125,2.125h17.75c1.175,0 2.125-.9498 2.125-2.125v-17.75c0-1.1752-.95-2.125-2.125-2.125h-17.75c-1.175,0-2.125,.9498-2.125,2.125v17.75zm2.0312,.0938c-.0128-.0128 0-.0512 0-.0938v-17.75c0-.0851 .0087-.0938 .0938-.0938h17.75c.085,0 .0938,.0086 .0938,.0938v17.75c0,.0851-.0087,.0938-.0938,.0938h-17.75c-.0425,0-.0809,.0128-.0938,0z"/>
<path opacity=".2" fill="#f00" d="m52.1562,17c-1.7265,0-3.1562,1.4298-3.1562,3.1562v25.6875c0,1.7265 1.4298,3.1562 3.1562,3.1562h25.6875c1.7265,0 3.1562-1.4298 3.1562-3.1562v-25.6875c0-1.7265-1.4298-3.1562-3.1562-3.1562h-25.6875zm0,1 25.6875,0c1.1871,0 2.1562,.9691 2.1562,2.1562v25.6875c0,1.1871-.9691,2.1562-2.1562,2.1562h-25.6875c-1.1871,0-2.1562-.9691-2.1562-2.1562v-25.6875c0-1.1871 .9691-2.1562 2.1562-2.1562z"/>
<path fill="url(#linearGradient4815)" d="m20.1429,50 47.7143,0c1.1871,0 2.1429,.9557 2.1429,2.1429v25.7143c0,1.1871-.9557,2.1429-2.1429,2.1429h-47.7143c-1.1871,0-2.1429-.9557-2.1429-2.1429v-25.7143c0-1.1871 .9557-2.1429 2.1429-2.1429z"/>
<path fill="url(#linearGradient4817)" d="m70,65 0-12.8571c0-1.1871-.9557-2.1429-2.1429-2.1429h-12.8571v15h15z"/>
<path fill="url(#linearGradient4819)" d="m18,65 0-12.8571c0-1.1871 .9557-2.1429 2.1429-2.1429h12.8571v15h-15z"/>
<path fill="url(#linearGradient4821)" d="m18,65 0,12.8571c0,1.1871 .9557,2.1429 2.1429,2.1429h12.8571v-15h-15z"/>
<path fill="url(#linearGradient4823)" d="m70,65 0,12.8571c0,1.1871-.9557,2.1429-2.1429,2.1429h-12.8571v-15h15z"/>
<path fill="url(#linearGradient4825)" d="m56.121-66 17.758,0c1.175,0 2.121,.9461 2.121,2.1212v39.7576c0,1.1752-.946,2.1212-2.121,2.1212h-17.758c-1.175,0-2.121-.9461-2.121-2.1212v-39.7576c0-1.1752 .946-2.1212 2.121-2.1212z" transform="rotate(90)"/>
<path opacity=".8" fill="url(#linearGradient4827)" d="m22,73.875c0,1.1752 .95,2.125 2.125,2.125h39.75c1.175,0 2.125-.9498 2.125-2.125v-17.75c0-1.1752-.95-2.125-2.125-2.125h-39.75c-1.175,0-2.125,.9498-2.125,2.125v17.75zm2.0312,.0938c-.0128-.0128 0-.0512 0-.0938v-17.75c0-.0851 .0087-.0938 .0938-.0938h39.75c.085,0 .0938,.0086 .0938,.0938v17.75c0,.0851-.0087,.0938-.0938,.0938h-39.75c-.0425,0-.0809,.0128-.0938,0z"/>
<path opacity=".2" fill="#f00" d="m20.1562,49c-1.7265,0-3.1562,1.4298-3.1562,3.1562v25.6875c0,1.7265 1.4298,3.1562 3.1562,3.1562h47.6875c1.7265,0 3.1562-1.4298 3.1562-3.1562v-25.6875c0-1.7265-1.4298-3.1562-3.1562-3.1562h-47.6875zm0,1 47.6875,0c1.1871,0 2.1562,.9691 2.1562,2.1562v25.6875c0,1.1871-.9691,2.1562-2.1562,2.1562h-47.6875c-1.1871,0-2.1562-.9691-2.1562-2.1562v-25.6875c0-1.1871 .9691-2.1562 2.1562-2.1562z"/>
<g fill="#333" line-height="125%">
<g transform="matrix(1.66573 0 0 1.66573 -9.96581 -15.30606)">
<path d="m47.7441,32.4399-5.4785,0 0-.6982 4.1895-5.4199-3.833,0 0-.7617 4.8926,0 0,.6787-4.1895,5.4395 4.4189,0 0,.7617"/>
</g>
<g transform="matrix(1.56051 0 0 1.56051 -9.37583 -42.67523)">
<path d="m27.167,66.3535c-.3906,0-.7373,.0651-1.04,.1953-.2995,.1302-.5518,.3158-.7568,.5566-.2018,.2409-.3548,.5306-.459,.8691-.1042,.3385-.1563,.7145-.1562,1.1279-0,.4134 .0553,.7926 .166,1.1377 .1139,.3418 .2751,.6364 .4834,.8838 .2116,.2474 .4687,.4395 .7715,.5762 .306,.1367 .6494,.2051 1.0303,.2051 .2669,0 .5094-.0342 .7275-.1025 .2213-.0716 .4199-.1709 .5957-.2979 .179-.127 .3385-.2767 .4785-.4492 .14-.1758 .2637-.3695 .3711-.5811l.7617,.3809c-.1237,.2572-.2767,.4964-.459,.7178-.1823,.2214-.3971,.4134-.6445,.5762-.2441,.1628-.5225,.2913-.835,.3857-.3092,.0911-.6559,.1367-1.04,.1367-.5566,0-1.0449-.0879-1.4648-.2637-.4167-.179-.7666-.4264-1.0498-.7422-.2799-.319-.4899-.6966-.6299-1.1328-.14-.4362-.21-.9131-.21-1.4307 0-.5371 .0732-1.0221 .2197-1.4551 .1497-.4329 .3662-.8008 .6494-1.1035 .2865-.306 .638-.5404 1.0547-.7031 .4167-.166 .8919-.249 1.4258-.249 .7324,0 1.3444,.1432 1.8359,.4297 .4915,.2865 .8529,.7113 1.084,1.2744l-.8838,.293c-.0651-.1628-.153-.3174-.2637-.4639-.1107-.1497-.249-.2816-.415-.3955-.166-.1139-.3613-.2051-.5859-.2734-.2214-.0683-.4753-.1025-.7617-.1025"/>
<path d="m33.2314,72.5352c-.1335,.0358-.2702,.0635-.4102,.083-.1367,.0228-.2962,.0342-.4785,.0342-.7031,0-1.0547-.3988-1.0547-1.1963v-3.5254h-.6104v-.6396h.6445l.2588-1.1816h.5859v1.1816h.9766v.6396h-.9766v3.335c-0,.2539 .0407,.4329 .1221,.5371 .0846,.1009 .2295,.1514 .4346,.1514 .0846,0 .166-.0065 .2441-.0195 .0814-.013 .1693-.0293 .2637-.0488v.6494"/>
<path d="m33.9932,72.5742 0-4.0527c-0-.1107-.0016-.223-.0049-.3369 0-.1172-.0016-.2295-.0049-.3369-.0033-.1074-.0065-.2083-.0098-.3027-.0033-.0944-.0065-.179-.0098-.2539h.8301c.0033,.0749 .0065,.1611 .0098,.2588 .0065,.0944 .0114,.1921 .0147,.293 .0065,.1009 .0098,.1986 .0098,.293 .0033,.0911 .0049,.1693 .0049,.2344h.0195c.0618-.2018 .127-.376 .1953-.5225 .0716-.1497 .1546-.2718 .249-.3662 .0944-.0977 .2067-.1693 .3369-.2148 .1302-.0488 .2881-.0732 .4736-.0732 .0716,0 .14,.0065 .2051,.0195 .0651,.0098 .1156,.0195 .1514,.0293v.8057c-.0586-.0163-.127-.0277-.2051-.0342-.0781-.0098-.166-.0146-.2637-.0147-.2018,0-.3744,.0456-.5176,.1367-.14,.0911-.2555,.2181-.3467,.3809-.0879,.1595-.153,.3516-.1953,.5762-.0423,.2214-.0635,.4639-.0635,.7275v2.7539h-.8789"/>
<path d="m37.3135,72.5742 0-7.2461 .8789,0 0,7.2461-.8789,0"/>
</g>
</g>
<path opacity=".6" fill="#fff" color="#000" d="m82,47c0,1.662-1.338,3-3,3h-7v1h7c1.662,0 3-1.338 3-3v-1zm-66,32 0,1c0,1.662 1.338,3 3,3h50c1.662,0 3-1.338 3-3v-1c0,1.662-1.338,3-3,3h-50c-1.662,0-3-1.338-3-3z"/>
<g fill="#f00">
<path opacity=".3" d="m52.1562,18c-1.1871,0-2.1562,.9691-2.1562,2.1562v25.6875c0,1.1871 .9691,2.1562 2.1562,2.1562h25.6875c1.1871,0 2.1562-.9691 2.1562-2.1562v-25.6875c0-1.1871-.9691-2.1562-2.1562-2.1562h-25.6875zm0,1.9688 25.6875,0c.1085,0 .1875,.079 .1875,.1875v25.6875c0,.1085-.079,.1875-.1875,.1875h-25.6875c-.1085,0-.1875-.079-.1875-.1875v-25.6875c0-.1085 .079-.1875 .1875-.1875z"/>
<path opacity=".8" d="m52.1562,18c-1.1871,0-2.1562,.9691-2.1562,2.1562v25.6875c0,1.1871 .9691,2.1562 2.1562,2.1562h25.6875c1.1871,0 2.1562-.9691 2.1562-2.1562v-25.6875c0-1.1871-.9691-2.1562-2.1562-2.1562h-25.6875zm0,.9375 25.6875,0c.6735,0 1.2188,.5453 1.2188,1.2188v25.6875c0,.6735-.5453,1.2188-1.2188,1.2188h-25.6875c-.6735,0-1.2188-.5453-1.2188-1.2188v-25.6875c0-.6735 .5453-1.2188 1.2188-1.2188z"/>
<path opacity=".3" d="m20.1562,50c-1.1871,0-2.1562,.9691-2.1562,2.1562v25.6875c0,1.1871 .9691,2.1562 2.1562,2.1562h47.6875c1.1871,0 2.1562-.9691 2.1562-2.1562v-25.6875c0-1.1871-.9691-2.1562-2.1562-2.1562h-47.6875zm0,1.9688 47.6875,0c.1085,0 .1875,.079 .1875,.1875v25.6875c0,.1085-.079,.1875-.1875,.1875h-47.6875c-.1085,0-.1875-.079-.1875-.1875v-25.6875c0-.1085 .079-.1875 .1875-.1875z"/>
<path opacity=".8" d="m20.1562,50c-1.1871,0-2.1562,.9691-2.1562,2.1562v25.6875c0,1.1871 .9691,2.1562 2.1562,2.1562h47.6875c1.1871,0 2.1562-.9691 2.1562-2.1562v-25.6875c0-1.1871-.9691-2.1562-2.1562-2.1562h-47.6875zm0,.9375 47.6875,0c.6735,0 1.2188,.5453 1.2188,1.2188v25.6875c0,.6735-.5453,1.2188-1.2188,1.2188h-47.6875c-.6735,0-1.2188-.5453-1.2188-1.2188v-25.6875c0-.6735 .5453-1.2188 1.2188-1.2188z"/>
</g>
</svg>
