<svg xmlns="http://www.w3.org/2000/svg" viewBox="0 0 96 96" xmlns:xlink="http://www.w3.org/1999/xlink">
<defs>
<clipPath id="clipPath3613">
<path fill="#fff" d="m12,6h72a6,6 0 0,1 6,6v72a6,6 0 0,1 -6,6h-72a6,6 0 0,1 -6-6v-72a6,6 0 0,1 6-6"/>
</clipPath>
<clipPath id="clipPath4211">
<path fill="url(#linearGradient4215)" d="m-28,6c-3.324,0-6,2.676-6,6v.5312 70.9375 .5312c0,3.324 2.676,6 6,6h.5312 7.4688 30.9688c0,0 .2465-18.837 0-21.7812-.4863-5.807-14.2998-38.8253-21.4688-62.2188h-9.5-7.4688-.5312z"/>
</clipPath>
<filter width="1.384" x="-.192" y="-.192" height="1.384" color-interpolation-filters="sRGB" id="filter3794">
<feGaussianBlur stdDeviation="5.28"/>
</filter>
<linearGradient gradientTransform="matrix(1.01724 0 0 1.01724 -1.10345 -1.10345)" id="linearGradient5059-3" xlink:href="#linearGradient5051-4" y1="122" y2="5.425" x2="0" gradientUnits="userSpaceOnUse">
<stop offset="0" stop-color="#dcdcdc"/>
<stop offset=".402" stop-color="#e4e4e4"/>
<stop offset="1" stop-color="#f0f0f0"/>
</linearGradient>
<linearGradient gradientTransform="matrix(1.01724 0 0 1.01724 -1.10345 -1.10345)" id="linearGradient5051-4" y1="122" y2="5.425" x2="0" gradientUnits="userSpaceOnUse">
<stop offset="0" stop-color="#dcdcdc"/>
<stop offset=".402" stop-color="#e4e4e4"/>
<stop offset="1" stop-color="#f0f0f0"/>
</linearGradient>
<linearGradient gradientTransform="matrix(1.01724 0 0 1.01724 -1.10345 -1.10345)" id="linearGradient5081" xlink:href="#linearGradient5059-3" y1="122" y2="5.425" x2="0" gradientUnits="userSpaceOnUse">
<stop offset="0" stop-color="#dcdcdc"/>
<stop offset="1" stop-color="#f0f0f0"/>
</linearGradient>
<linearGradient id="linearGradient4118" xlink:href="#linearGradient4938" x1="65.928" x2="74.494" gradientUnits="userSpaceOnUse"/>
<linearGradient gradientTransform="matrix(-.71186 0 0 .71186 36.59999 2.44068)" id="linearGradient4233" xlink:href="#linearGradient5137" y1="31.633" x1="-32.474" y2="30.389" x2="-28.793" gradientUnits="userSpaceOnUse"/>
<linearGradient gradientTransform="matrix(-.71186 0 0 .71186 53.55932 2.44068)" id="linearGradient4215" xlink:href="#linearGradient3231" y1="123" y2="4.894" x2="0" gradientUnits="userSpaceOnUse"/>
<linearGradient id="linearGradient5137-9">
<stop offset="0"/>
<stop offset="1" stop-opacity="0"/>
</linearGradient>
<linearGradient id="linearGradient5118">
<stop offset="0" stop-color="#de1212"/>
<stop offset=".5" stop-color="#f36565"/>
<stop offset="1" stop-color="#a20c0c"/>
</linearGradient>
<linearGradient gradientTransform="matrix(1.02381 0 0 1.0119 -1.14286 -98.07143)" id="linearGradient3780" xlink:href="#ButtonShadow-0" y1="6.132" y2="90.239" x2="0" gradientUnits="userSpaceOnUse"/>
<linearGradient gradientTransform="matrix(1.00587 0 0 .99417 100 0)" id="ButtonShadow-0" y1="92.54" y2="7.017" x2="0" gradientUnits="userSpaceOnUse">
<stop offset="0"/>
<stop offset="1" stop-opacity=".588"/>
</linearGradient>
<linearGradient gradientTransform="matrix(-.71186 0 0 .71186 93.55932 2.44068)" id="linearGradient4084" xlink:href="#linearGradient3231" y1="123" y2="4.894" x2="0" gradientUnits="userSpaceOnUse"/>
<linearGradient gradientTransform="matrix(.6434 0 0 .65538 6.80252 2.72308)" id="linearGradient4450" xlink:href="#linearGradient5081" y1="5.283" x1="52.471" y2="12.029" x2="47.759" gradientUnits="userSpaceOnUse"/>
<linearGradient gradientTransform="matrix(-.6434 0 0 .65538 89.20937 2.72308)" id="linearGradient4447" xlink:href="#linearGradient5081" y1="10.53" x1="43.476" y2="12.778" x2="57.254" gradientUnits="userSpaceOnUse"/>
<linearGradient gradientTransform="matrix(.69715 0 0 .69715 3.54091 1.93698)" id="linearGradient4375" xlink:href="#linearGradient5137-9" y1="28.056" x1="63.582" y2="51.703" x2="69.919" gradientUnits="userSpaceOnUse"/>
<linearGradient gradientTransform="matrix(.69715 0 0 .69715 3.54091 1.93698)" id="linearGradient4381" xlink:href="#linearGradient5118" y1="22.808" x1="58.41" y2="21.934" x2="64.607" gradientUnits="userSpaceOnUse"/>
<linearGradient gradientTransform="matrix(.69715 0 0 .69715 3.54091 1.93698)" id="linearGradient4378" xlink:href="#linearGradient5118" y1="54.138" x1="54.881" y2="55" x2="64.706" gradientUnits="userSpaceOnUse"/>
<linearGradient gradientTransform="matrix(.71186 0 0 .71186 2.44068 2.44068)" id="linearGradient4081" xlink:href="#linearGradient3231" y1="123" y2="4.894" x2="0" gradientUnits="userSpaceOnUse"/>
<linearGradient gradientTransform="matrix(1.01724 0 0 1.01724 -1.10345 -1.10345)" id="linearGradient5059" xlink:href="#linearGradient5051" y1="122" y2="5.425" x2="0" gradientUnits="userSpaceOnUse">
<stop offset="0" stop-color="#dcdcdc"/>
<stop offset=".402" stop-color="#e4e4e4"/>
<stop offset="1" stop-color="#f0f0f0"/>
</linearGradient>
<linearGradient gradientTransform="matrix(1.01724 0 0 1.01724 -1.10345 -1.10345)" id="linearGradient5095" xlink:href="#linearGradient5059" y1="122" y2="5.425" x2="0" gradientUnits="userSpaceOnUse">
<stop offset="0" stop-color="#dcdcdc"/>
<stop offset=".896" stop-color="#f5f5f5"/>
<stop offset="1" stop-color="#8d8d8d"/>
</linearGradient>
<linearGradient gradientTransform="translate(0 -97)" id="linearGradient3721" xlink:href="#ButtonShadow-0" y1="6.132" y2="90.239" x2="0" gradientUnits="userSpaceOnUse"/>
<linearGradient gradientTransform="matrix(.79888 0 0 .79888 -2.82159 1.20672)" id="linearGradient5172" xlink:href="#linearGradient5095" y1="122" y2="5.425" x2="0" gradientUnits="userSpaceOnUse"/>
<linearGradient id="linearGradient3188" xlink:href="#linearGradient3737" y1="6" y2="63.893" x2="0" gradientUnits="userSpaceOnUse"/>
<linearGradient id="linearGradient3737">
<stop offset="0" stop-color="#fff"/>
<stop offset="1" stop-color="#fff" stop-opacity="0"/>
</linearGradient>
<linearGradient id="linearGradient3613" xlink:href="#linearGradient3737" y1="20.221" y2="138.661" x2="0" gradientUnits="userSpaceOnUse"/>
<linearGradient gradientTransform="matrix(1.01724 0 0 1.01724 -1.10345 -1.10345)" id="linearGradient5051" y1="122" y2="5.425" x2="0" gradientUnits="userSpaceOnUse">
<stop offset="0" stop-color="#dcdcdc"/>
<stop offset=".402" stop-color="#e4e4e4"/>
<stop offset="1" stop-color="#f0f0f0"/>
</linearGradient>
<linearGradient gradientTransform="matrix(-.71186 0 0 .71186 93.55932 2.44068)" id="linearGradient4063" xlink:href="#linearGradient3231" y1="16" x1="79.514" y2="23.497" x2="95.672" gradientUnits="userSpaceOnUse"/>
<linearGradient gradientTransform="matrix(.71186 0 0 .71186 59.38983 2.44068)" id="linearGradient4050" xlink:href="#linearGradient5137" y1="31.633" x1="-32.474" y2="30.389" x2="-28.793" gradientUnits="userSpaceOnUse"/>
<linearGradient gradientTransform="matrix(.71186 0 0 .71186 2.44068 2.44068)" id="linearGradient4044" xlink:href="#linearGradient3231" y1="34.894" x1="123.494" y2="19" x2="87.676" gradientUnits="userSpaceOnUse"/>
<linearGradient id="linearGradient3231">
<stop offset="0" stop-color="#514e4d"/>
<stop offset="1" stop-color="#767372"/>
</linearGradient>
<linearGradient id="linearGradient5137">
<stop offset="0"/>
<stop offset="1" stop-opacity="0"/>
</linearGradient>
<linearGradient id="linearGradient4812">
<stop offset="0" stop-color="#fff"/>
<stop offset="1" stop-color="#fff" stop-opacity="0"/>
</linearGradient>
<linearGradient id="linearGradient4938">
<stop offset="0" stop-color="#202020"/>
<stop offset="1" stop-color="#727272"/>
</linearGradient>
<linearGradient gradientTransform="matrix(.71186 0 0 .71186 2.44068 2.44068)" id="linearGradient4040" xlink:href="#linearGradient4812" y1="56.387" x1="69.894" y2="94.281" x2="67.482" gradientUnits="userSpaceOnUse"/>
<radialGradient cx="48" cy="90.172" gradientTransform="matrix(1.15731 0 0 .99591 -7.55102 .19713)" r="42" id="radialGradient3619" xlink:href="#linearGradient3737" gradientUnits="userSpaceOnUse"/>
</defs>
<path opacity=".08" fill="url(#linearGradient3780)" d="m12-95.0312c-5.5111,0-10.0312,4.5202-10.0312,10.0312v71c0,5.5111 4.5202,10.0312 10.0312,10.0312h72c5.5111,0 10.0312-4.5202 10.0312-10.0312v-71c0-5.5111-4.5202-10.0312-10.0312-10.0312h-72z" transform="scale(1 -1)"/>
<path opacity=".1" fill="url(#linearGradient3780)" d="m12-94.0312c-4.9716,0-9.0312,4.0596-9.0312,9.0312v71c0,4.9716 4.0596,9.0312 9.0312,9.0312h72c4.9716,0 9.0312-4.0596 9.0312-9.0312v-71c0-4.9716-4.0596-9.0312-9.0312-9.0312h-72z" transform="scale(1 -1)"/>
<path opacity=".2" fill="url(#linearGradient3780)" d="m12-93c-4.4091,0-8,3.5909-8,8v71c0,4.4091 3.5909,8 8,8h72c4.4091,0 8-3.5909 8-8v-71c0-4.4091-3.5909-8-8-8h-72z" transform="scale(1 -1)"/>
<path opacity=".3" fill="url(#linearGradient3780)" d="m12-92h72a7,7 0 0,1 7,7v71a7,7 0 0,1 -7,7h-72a7,7 0 0,1 -7-7v-71a7,7 0 0,1 7-7" transform="scale(1 -1)"/>
<path opacity=".45" fill="url(#linearGradient3721)" d="m12-91h72a6,6 0 0,1 6,6v72a6,6 0 0,1 -6,6h-72a6,6 0 0,1 -6-6v-72a6,6 0 0,1 6-6" transform="scale(1 -1)"/>
<path fill="#514e4d" d="m12,6h72a6,6 0 0,1 6,6v72a6,6 0 0,1 -6,6h-72a6,6 0 0,1 -6-6v-72a6,6 0 0,1 6-6"/>
<path fill="url(#linearGradient5172)" d="m18.9547,6 29.7202,75 28.3704-75-58.0906,0z"/>
<g fill-rule="evenodd">
<g transform="translate(50)">
<path opacity=".08" d="m-10.0312,7.4688a1.0213,1.0213 0 0,0 -.0625,.0312c-1.1131,.1754-1.8477,.9379-2.3125,1.625-.4648,.6871-.7841,1.342-1.0938,1.7188a1.0213,1.0213 0 0,0 -.0938,.1562c-.2614,.4488-.7443,.9883-1.125,1.7188-.3807,.7305-.6268,1.8041-.1562,2.8125a1.0213,1.0213 0 0,0 .125,.1875c1.7846,2.3042 3.798,4.3876 5.625,6.5312 .0479,.0885 .0744,.0816 .125,.1562 .3137,.4631 .6898,.7446 .8438,.9062 .0298,.0313 .0172,.0124 .0312,.0312-3.6477,11.5531-7.3428,23.0921-10.9688,34.6562a1.0213,1.0213 0 0,0 -.0312,.1562c-.3046,2.0394 1.5697,3.5889 3.4688,3.375v.0312c9.4285,.1117 18.8506,.2364 28.2812,.3438a1.0213,1.0213 0 0,0 .0938,0c2.0495-.187 3.1993-2.4324 2.375-4.25h.0312l-.0625-.1562-10.6875-34.3438c1.8708-2.2532 3.8409-4.4919 5.6875-6.8125a1.0213,1.0213 0 0,0 .0938-.1562c.5352-1.0198 .3306-2.0821 .0312-2.875-.2994-.7929-.684-1.4723-.8125-1.9375a1.0213,1.0213 0 0,0 -.0312-.1562c-.2186-.4782-.4245-1.2517-.8438-2.0312-.4193-.7795-1.2752-1.6325-2.4688-1.7188a1.0213,1.0213 0 0,0 -.1875,.0312c-1.961,.2169-3.6428,.9803-5.2188,1.375-1.0203,.2519-1.8705,.6314-2.5938,.75-2.4094-.6832-4.8279-1.4877-7.3125-2.125a1.0213,1.0213 0 0,0 -.25-.0312h-.4062a1.0213,1.0213 0 0,0 -.0938,0z"/>
<path opacity=".1" d="m-9.9375,8.5c.0016-.0002-.0954,.0315-.0938,.0312 .0016-.0003-.1266,.0316-.125,.0312 .0016-.0004-.0953,.0005-.0938,0 .0016-.0005-.1266,.0318-.125,.0312 .0016-.0006-.0953,.0631-.0938,.0625 .0015-.0006-.0953,.032-.0938,.0312 .0015-.0007-.0952,.0633-.0938,.0625 .0015-.0008-.0952,.0634-.0938,.0625 .0014-.0009-.0951,.0635-.0938,.0625 .0014-.001-.0951,.0635-.0938,.0625 .0013-.001-.095,.0636-.0938,.0625 .0012-.0011-.0637,.0949-.0625,.0938 .0012-.0012-.0948,.0637-.0938,.0625 .0011-.0013-.0635,.0951-.0625,.0938 .001-.0013-.0635,.0951-.0625,.0938 .0007-.001-.0458,.0373-.0625,.0625-.005,.0076-.0002,.0316 0,.0312l-2.4375,3.7188h.0312c.0013-.002-.0949,.1271-.0938,.125 .0012-.0021-.0635,.1584-.0625,.1562 .001-.0022-.0633,.1272-.0625,.125 .0008-.0022-.0631,.1586-.0625,.1562 .0006-.0023-.0317,.1586-.0312,.1562 .0004-.0023-.0315,.1586-.0312,.1562 .0002-.0024-.0001,.1586 0,.1562 .0001-.0024 .0001,.1586 0,.1562-.0001-.0024 .0316,.1586 .0312,.1562-.0003-.0024 .0005,.1586 0,.1562-.0005-.0023 .0632,.1585 .0625,.1562-.0007-.0023 .0321,.1585 .0312,.1562-.0009-.0022 .0635,.1271 .0625,.125-.0011-.0021 .095,.1583 .0938,.1562-.0012-.0021 .0951,.1269 .0938,.125-.0014-.0019 .0953,.1268 .0938,.125a1.03,1.03 0 0,0 0,.0312l6.6562,7.5938-11.0312,34.8438c.0005-.0017-.0317,.1267-.0312,.125 .0004-.0017-.0316,.0955-.0312,.0938 .0003-.0017-.0315,.1267-.0312,.125 .0002-.0017-.0001,.1267 0,.125 .0001-.0017-0,.0955 0,.0938 0-.0017 .0001,.1267 0,.125-.0001-.0017 .0002,.1267 0,.125-.0002-.0017 .0315,.1267 .0312,.125-.0003-.0017 .0004,.0954 0,.0938-.0004-.0017 .0317,.1267 .0312,.125-.0005-.0017 .0318,.0954 .0312,.0938-.0006-.0016 .0632,.1266 .0625,.125-.0007-.0016 .032,.0953 .0312,.0938-.0008-.0016 .0634,.0953 .0625,.0938-.0009-.0015 .0635,.0952 .0625,.0938-.001-.0015 .0635,.1264 .0625,.125-.001-.0014 .0636,.0638 .0625,.0625-.0011-.0013 .095,.095 .0938,.0938-.0012-.0013 .095,.0949 .0938,.0938-.0013-.0012 .0638,.0636 .0625,.0625-.0013-.0011 .0952,.0948 .0938,.0938-.0014-.001 .0952,.0635 .0938,.0625-.0015-.001 .0953,.0634 .0938,.0625-.0015-.0009 .1266,.032 .125,.0312-.0016-.0008 .0954,.0632 .0938,.0625-.0016-.0007 .0954,.0318 .0938,.0312-.0016-.0006 .1267,.0317 .125,.0312-.0017-.0005 .1267,.0316 .125,.0312-.0017-.0004 .0955,.0315 .0938,.0312-.0017-.0003 .1267,.0314 .125,.0312-.0017-.0002 .1267,.0001 .125,0-.0017-.0001 .0955-0 .0938,0l28.5625,.3438c-.0017-0 .0955-.0001 .0938,0-.0017,.0001 .1267-.0002 .125,0-.0017,.0002 .1267-.0315 .125-.0312-.0017,.0003 .0954-.0316 .0938-.0312-.0017,.0004 .1267-.0317 .125-.0312-.0017,.0005 .1266-.0318 .125-.0312-.0016,.0006 .0954-.0319 .0938-.0312-.0016,.0007 .0953-.0633 .0938-.0625-.0016,.0008 .1265-.0321 .125-.0312-.0015,.0009 .0952-.0635 .0938-.0625-.0015,.001 .0952-.0635 .0938-.0625-.0014,.001 .0951-.0949 .0938-.0938-.0013,.0011 .0638-.0637 .0625-.0625-.0013,.0012 .095-.095 .0938-.0938-.0012,.0013 .0949-.0951 .0938-.0938-.0011,.0013 .0635-.0639 .0625-.0625-.001,.0014 .0635-.1265 .0625-.125-.001,.0015 .0634-.0953 .0625-.0938-.0009,.0015 .0633-.0953 .0625-.0938-.0008,.0016 .0319-.0954 .0312-.0938-.0007,.0016 .0631-.1266 .0625-.125-.0006,.0016 .0318-.0954 .0312-.0938-.0005,.0017 .0317-.1267 .0312-.125-.0004,.0017 .0003-.0955 0-.0938-.0003,.0017 .0314-.1267 .0312-.125-.0002,.0017 .0001-.1267 0-.125-.0001,.0017-0-.1267 0-.125 0,.0017-.0001-.0955 0-.0938 .0001,.0017-.0002-.1267 0-.125 .0002,.0017-.0316-.1267-.0312-.125 .0003,.0017-.0317-.0954-.0312-.0938 .0004,.0017-.0318-.1267-.0312-.125l-11.0312-35.375 5.7812-6.9062c-.0013,.0015 .0949-.0953 .0938-.0938-.0012,.0016 .0635-.1267 .0625-.125-.001,.0017 .0634-.0955 .0625-.0938-.0009,.0017 .0633-.1268 .0625-.125-.0008,.0018 .0632-.1268 .0625-.125-.0007,.0018 .0318-.1269 .0312-.125-.0006,.0019 .0317-.1269 .0312-.125-.0005,.0019 .0316-.1269 .0312-.125-.0003,.0019 .0314-.127 .0312-.125-.0002,.002 .0001-.127 0-.125-.0001,.002-.0001-.127 0-.125 .0001,.002-.0002-.1582 0-.1562 .0002,.002-.0316-.1269-.0312-.125 .0003,.0019-.0317-.1269-.0312-.125 .0005,.0019-.0318-.1269-.0312-.125 .0006,.0019-.032-.1268-.0312-.125l-1.7188-4.3125c.001,.0026-.095-.1588-.0938-.1562 .0012,.0025-.064-.1586-.0625-.1562 .0015,.0024-.1267-.1585-.125-.1562 .0017,.0022-.1269-.1583-.125-.1562 .0019,.0021-.1271-.1269-.125-.125 .0021,.0019-.1272-.1267-.125-.125 .0022,.0017-.1586-.0952-.1562-.0938 .0024,.0015-.19-.095-.1875-.0938 .0025,.0012-.1589-.0635-.1562-.0625 .0026,.001-.1902-.0632-.1875-.0625 .0027,.0007-.159-.0317-.1562-.0312 .0028,.0005-.1903-.0315-.1875-.0312 .0028,.0002-.1903,0-.1875,0 .0028-0-.1903,.0003-.1875,0 .0028-.0003-.1902,.0318-.1875,.0312 .0022-.0005-.1104,.0195-.1562,.0312l-7.125,2.125-7.3125-2.125c.0026,.0007-.1902-.0317-.1875-.0312 .0027,.0005-.159-.0315-.1562-.0312 .0027,.0002-.1902,0-.1875,0 .0028-0-.1902,.0003-.1875,0a1.03,1.03 0 0,0 -.0312,0z"/>
<path opacity=".15" d="m-9.8125,9.5312a.9406,.9406 0 0,0 -.6875,.4375l-2.4375,3.75a.9406,.9406 0 0,0 .0625,1.125l7.0312,8-11.2188,35.4375a.9406,.9406 0 0,0 .9062,1.2188l28.5625,.3438a.9406,.9406 0 0,0 .9062-1.2188l-11.1875-35.9062 6.125-7.3438a.9406,.9406 0 0,0 .1562-.9375l-1.7188-4.3125a.9406,.9406 0 0,0 -1.1562-.5625l-7.4062,2.2188-7.5938-2.2188a.9406,.9406 0 0,0 -.3438-.0312z"/>
<path opacity=".3" d="m-9.7188,10.4688-2.4375,3.75 7.375,8.4062-11.375,35.9375 28.5625,.3438-11.3438-36.375 6.4688-7.75-1.7188-4.3125-7.6562,2.3125-7.875-2.3125z"/>
</g>
<path fill="url(#linearGradient4381)" d="m40.2951,9.4768 7.8634,2.3163 7.6396-2.3163 1.7419,4.3077-9.3815,11.1953-10.302-11.7743 2.4387-3.7286z"/>
<path fill="url(#linearGradient4378)" d="m45.2595,21.4959-11.411,36.0574 28.5703,.3484-11.391-36.4445-5.7683,.0387z"/>
<path opacity=".4" fill="url(#linearGradient4375)" d="m45.0853,21.4959c2.9612,1.2193 5.9225,.0871 5.9225,.0871 0,0 5.6226,17.7787 10.3965,33.6187-3.0805-3.5709-9.7601-31.1776-11.0932-31.5284-1.4052-.3698 .8242,15.2843-.2349,16.1997-2.0032-17.7674-3.9456-18.5513-5.165-16.8094 0,0 .0159-.1428 .038-.3422 .0513-.4613 .1362-1.2255 .1362-1.2255z"/>
</g>
<path opacity=".2" fill="#fff" d="m68.5512,45.3145a.8834,11.6608 0 1,1 -1.7668,0 .8834,11.6608 0 1,1 1.7668,0z" transform="matrix(.69528 -.05104 .05104 .69528 1.84738 4.4901)"/>
<path opacity=".15" fill-rule="evenodd" d="m30.25,8-1.2812,2.3438 6.9375,15.7188c0,0 3.3815-7.0511 12.0625-13.4375-4.5947-.7295-8.6502-2.7881-11.5312-4.625h-6.1875zm29.3438,0c-2.881,1.8369-6.9678,3.8955-11.5625,4.625 8.681,6.3864 12.0625,13.4375 12.0625,13.4375l6.9375-15.7188-1.2812-2.3438h-6.1562z"/>
<path opacity=".4" d="m32.4177,6c.6187,2.953 7.2336,5.284 15.3008,5.284 8.0672,0 14.6637-2.331 15.2807-5.284h-4.926c-2.2567,1.4767-5.9776,2.4577-10.1938,2.4577-4.2162,0-7.9371-.981-10.1938-2.4577h-5.2678z"/>
<g fill-rule="evenodd">
<path opacity=".3" d="m30.25,7-1.2812,2.3438 6.9375,15.7188c0,0 3.3815-7.0511 12.0625-13.4375-4.5947-.7295-8.6502-2.7881-11.5312-4.625h-6.1875zm29.3438,0c-2.881,1.8369-6.9678,3.8955-11.5625,4.625 8.681,6.3864 12.0625,13.4375 12.0625,13.4375l6.9375-15.7188-1.2812-2.3438h-6.1562z"/>
<path fill="url(#linearGradient4450)" d="m30.2463,6-1.2667,2.3348 6.9366,15.7292c0,0 3.3827-7.0489 12.0637-13.4354-4.5947-.7295-8.6599-2.7918-11.5409-4.6286h-6.1927z"/>
<path fill="url(#linearGradient4447)" d="m59.5811,6c-2.881,1.8369-6.9462,3.8992-11.5409,4.6286 8.681,6.3864 12.0637,13.4354 12.0637,13.4354l6.9165-15.7292-1.2667-2.3348h-6.1726z"/>
<path opacity=".1" d="m35.1522,6c2.862,1.8329 6.9098,3.8934 11.5409,4.6286-6.4428,4.7398-9.9507,9.83-11.3399,12.1451l.563,1.2903c0,0 3.3827-7.0489 12.0637-13.4354-4.5947-.7295-8.6583-2.7921-11.5409-4.6286h-1.2868z"/>
<path opacity=".8" fill="#fff" d="m48.0402,10.6287c8.681,6.3864 12.0637,13.4354 12.0637,13.4354l.563-1.2903c-1.3892-2.3151-4.8971-7.4053-11.3399-12.1451"/>
<path opacity=".1" d="m59.5811,6c-2.8774,1.8366-6.9462,3.8992-11.5409,4.6286 .471,.3465 .907,.6954 1.3471,1.0445 5.1583-1.1266 9.5286-3.8072 12.1039-5.6732h-1.9101zm5.4488,0 1.6688,3.0516 .3217-.7168-1.2667-2.3348-.7238,0z"/>
</g>
<path fill="url(#linearGradient4084)" d="m12,6c-3.324,0-6,2.676-6,6v.5312 70.9375 .5312c0,3.324 2.676,6 6,6h.5312 7.4688 30.9688c0,0 .2465-18.837 0-21.7812-.4863-5.807-14.2998-38.8253-21.4688-62.2188h-9.5-7.4688-.5312z"/>
<path opacity=".1" fill="#fff" d="m8,7 0,81.4688c.3067,.2746 .641,.5115 1,.7188v-82.1875h-1zm4-1 0,84 .5312,0h.4688v-84h-1zm4,0 0,4.25c.3442-.5814 .6833-1.1157 1-1.5625v-2.6875h-1zm0,7.5 0,10.3125c.3327-.339 .6664-.6943 1-1.0625v-8.125l-1-1.125zm4,4.5625 0,1.375c.2176-.2195 .4391-.4256 .6562-.625l-.6562-.75zm-4,9.9688 0,61.9688h1v-60.8125c-.3604-.3997-.6761-.7892-1-1.1562zm4,4.375v57.5938h1v-56.5c-.3567-.3819-.6589-.7266-1-1.0938zm4,4.3125v53.2812h1v-52.2188c-.3334-.3542-.6733-.7153-1-1.0625zm4,4.25v49.0312h1v-47.9688c-.3305-.3529-.6721-.7132-1-1.0625zm4,4.3125v44.7188h1v-43.6562c-.3316-.3593-.6678-.7042-1-1.0625zm4,4.3438 0,40.375 1,0 0-39.2812c-.3265-.3632-.6695-.7289-1-1.0938zm4,4.4375 0,35.9375 1,0 0-34.75c-.338-.3931-.6525-.7889-1-1.1875zm4,4.7812 0,31.1562h1v-29.9375c-.3156-.3985-.6666-.8086-1-1.2188z"/>
<path opacity=".15" d="m43.4397,68.2214c-.2465,2.9442 0,21.6007 0,21.6007h39.6865c1.2138-27.9345-35.7295-48.6881-39.6865-21.6007z"/>
<path opacity=".1" d="m42.4397,68.2214c-.2465,2.9442 0,21.6007 0,21.6007h39.6865c1.2138-27.9345-35.7295-48.6881-39.6865-21.6007z"/>
<g fill-rule="evenodd">
<g clip-path="url(#clipPath4211)" transform="translate(40)">
<path opacity=".1" d="m19.4062,4.0312c-.0005,0-.1245,.0312-.125,.0312-.0005,.0001-.1245,.0311-.125,.0312-.0005,.0001-.0933-.0001-.0938,0-.0004,.0001-.1246,.0623-.125,.0625-.0004,.0002-.0933,.0311-.0938,.0312-.0004,.0002-.0933,.0623-.0938,.0625-.0004,.0002-.1246,.031-.125,.0312-.0003,.0002-.0356,.046-.0625,.0625-.0081,.005-.0312-.0001-.0312,0v.0312c-1.5172,.9649-3.3268,2.9037-5.375,7h.0312c-.0003,.0005-.0623,.1245-.0625,.125-.0002,.0005-.0623,.1244-.0625,.125-.0002,.0006-.0311,.1557-.0312,.1562-.0001,.0006-.0312,.1244-.0312,.125-.0001,.0006-.0312,.1557-.0312,.1562-.0001,.0006 0,.1244 0,.125-0,.0006-0,.1557 0,.1562 0,.0006-.0001,.1557 0,.1562 .0001,.0006 .0311,.1244 .0312,.125 .0001,.0006 .0311,.1557 .0312,.1562 .0001,.0006 .0311,.1244 .0312,.125 .0002,.0006 .0623,.1245 .0625,.125 .0002,.0005 .0622,.1557 .0625,.1562 .0003,.0005 .0622,.1245 .0625,.125 .0003,.0005 .0934,.0933 .0938,.0938 .0003,.0005 .0621,.1246 .0625,.125a.9646,.9646 0 0,0 .0312,0l4.5625,5.25c-1.9658,2.0448-3.8382,4.3143-5.125,5.1562-.0046,.003-.0267-.003-.0312,0-.0257,.0166-.0623,.0311-.0625,.0312-.0003,.0002-.0934,.0622-.0938,.0625-.0003,.0003-.0622,.0935-.0625,.0938-.0003,.0003-.0935,.0622-.0938,.0625-.0003,.0003-.0622,.0622-.0625,.0625-.0003,.0003-.0622,.0934-.0625,.0938-.0003,.0003-.0623,.0622-.0625,.0625-.0003,.0003-.0623,.0934-.0625,.0938-.0002,.0003-.0623,.0934-.0625,.0938-.0002,.0004-.0623,.0934-.0625,.0938-.0002,.0004-.0311,.0934-.0312,.0938-.0002,.0004-.0311,.0934-.0312,.0938-.0002,.0004-.0624,.0934-.0625,.0938-.0001,.0004-.0311,.0933-.0312,.0938-.0001,.0004 .0001,.0933 0,.0938-.0001,.0004-.0312,.1246-.0312,.125-.0001,.0004-.0312,.0933-.0312,.0938-0,.0004 0,.0933 0,.0938-0,.0004 0,.0933 0,.0938-0,.0004-0,.1246 0,.125 0,.0004-0,.0933 0,.0938 0,.0004 .0312,.0933 .0312,.0938 .0001,.0004-.0001,.1246 0,.125 .0001,.0004 .0311,.0933 .0312,.0938 .0001,.0004 .0311,.0934 .0312,.0938 .0001,.0004 .0311,.0934 .0312,.0938 .0001,.0004 .0311,.0934 .0312,.0938 .0002,.0004 .0623,.0934 .0625,.0938 .0002,.0004 .031,.0934 .0312,.0938 .0002,.0004 .0623,.0934 .0625,.0938 .0002,.0004 .0623,.0934 .0625,.0938 .0002,.0003 .0451,.04 .0625,.0625 .0062,.0077 .0251,.0235 .0312,.0312 3.5488,4.447 12.2453,13.2553 20.375,22.125 4.0721,4.4428 8.0004,8.8771 10.9688,12.6562 1.4793,1.8834 2.6949,3.6287 3.5938,5.0938 .8989,1.4651 1.4699,2.7115 1.5938,3.2812 .0002,.0007 .0623,.1869 .0625,.1875 .0002,.0006 .031,.1556 .0312,.1562 .0003,.0006 .0934,.1244 .0938,.125 .0003,.0006 .0934,.1557 .0938,.1562 .0004,.0006 .0933,.1245 .0938,.125 .0004,.0005 .0933,.1245 .0938,.125 .0005,.0005 .1245,.1245 .125,.125 .0005,.0005 .1245,.1246 .125,.125 .0005,.0004 .1557,.0934 .1562,.0938 .0006,.0004 .1244,.0622 .125,.0625 .0006,.0003 .1556,.0623 .1562,.0625 .0006,.0003 .1556,.0623 .1562,.0625 .0006,.0002 .1868,.0624 .1875,.0625 .0007,.0001 .1556-.0001 .1562,0 .0007,.0001 .1556,.0312 .1562,.0312 .0007,0 .1868,0 .1875,0 .0007-0 .1556-.0312 .1562-.0312 .0007-.0001 .1556-.0311 .1562-.0312 .0007-.0001 .1869-.031 .1875-.0312 .0006-.0002 .1556-.0622 .1562-.0625 .0006-.0003 .1556-.0622 .1562-.0625 .0006-.0003 .1244-.0934 .125-.0938 .0006-.0004 .1557-.0933 .1562-.0938 .0005-.0004 .1245-.0933 .125-.0938 .0005-.0005 .1245-.1245 .125-.125 .0005-.0005 .0933-.1245 .0938-.125 .0004-.0005 .0934-.1557 .0938-.1562 .0004-.0006 .0934-.1244 .0938-.125 .0003-.0006 .0622-.1556 .0625-.1562 .0003-.0006 .0623-.1556 .0625-.1562 .0002-.0006 .0624-.1556 .0625-.1562 .0002-.0007 .0311-.1868 .0312-.1875l.0938-.75c.0001-.0005 .0195-.0707 .0312-.125 .0056-.026-0-.0623 0-.0625 .0001-.0007 .0312-.1867 .0312-.1875 0-.0002-.0001-.0563 0-.0625-.0001-.0156 .0002-.0178 0-.0312-.0003-.0269-.0005-.0916 0-.125-0,.0028 .0219-.1767 0-.4375-.1502-1.7932-.9855-4.5171-2.1875-8.4062-1.2044-3.8969-2.8181-8.7749-4.6875-14.125-3.7175-10.6393-8.3548-23.08-12.2812-33.1562a.9646,.9646 0 0,0 -.0625-.1875 .9646,.9646 0 0,0 0-.0312c-.8562-2.1794-1.6506-4.3975-2.3438-6.6562-0-.0001 .0024-.0239 0-.0312-.0115-.0352-.0623-.1245-.0625-.125-.0002-.0006-.0622-.1557-.0625-.1562-.0003-.0006-.0622-.1245-.0625-.125-.0003-.0005-.0934-.1245-.0938-.125-.0004-.0005-.0934-.1245-.0938-.125-.0004-.0005-.0933-.1245-.0938-.125-.0004-.0005-.1245-.1246-.125-.125-.0005-.0004-.0933-.0934-.0938-.0938-.0005-.0004-.1245-.0934-.125-.0938-.0005-.0003-.1557-.0622-.1562-.0625-.0006-.0003-.1244-.0935-.125-.0938-.0006-.0003-.1557-.031-.1562-.0312-.0006-.0002-.1556-.0623-.1562-.0625-.0006-.0002-.1556-.0311-.1562-.0312-.0006-.0001-.1556-.0312-.1562-.0312-.0006-.0001-.1556,0-.1562,0h-9.875c-.0001-0-.0194,0-.0312,0-.0475-0-.1244-0-.125,0a.9646,.9646 0 0,0 -.0625,0zm31.5938,64.625c0,0 .2586-.0009 .375,0l-.375,.0312c.0008,.0117 0-.0312 0-.0312z" transform="translate(-40 1)"/>
<path opacity=".15" d="m19.5938,5a.9881,.9881 0 0,0 -.5312,.1562c-1.3058,.8213-3.0159,2.6256-5.0312,6.6562a.9881,.9881 0 0,0 .125,1.0938l5.1562,5.9062c-2.1379,2.1365-4.2162,4.8211-5.9375,5.9375a.9881,.9881 0 0,0 -.25,1.4688c3.4401,4.318 12.2141,13.19 20.375,22.0938 4.0805,4.4519 8.0042,8.9047 11,12.7188 2.9958,3.8141 5.0223,7.1275 5.375,8.75a.9881,.9881 0 0,0 1.9375-.0938l.125-.875a.9881,.9881 0 0,0 .0312-.1875c.0014,.0276-.0014-.0612 0-.1562 .0014-.095 .0166-.1451 0-.3438-.131-1.5644-.9258-4.3386-2.125-8.2188-1.1992-3.8801-2.821-8.7518-4.6875-14.0938-3.7331-10.6838-8.4077-23.2178-12.3438-33.3125a.9881,.9881 0 0,0 0-.0312c-.867-2.2069-1.6711-4.4532-2.375-6.75a.9881,.9881 0 0,0 -.9375-.7188h-9.9062z" transform="translate(-40 1)"/>
<path opacity=".3" d="m19.5938,6c-1.082,.6805-2.7214,2.3177-4.6875,6.25l5.75,6.5625c-2.2458,2.0623-4.5274,5.3398-6.75,6.7812 6.6811,8.3861 35.1588,35.7869 36.9375,43.9688l.125-.875c-.0054-.1063 .006-.3971 0-.4688-.4379-5.2291-11.2-35.2101-19.0625-55.375-.8747-2.2263-1.6935-4.5181-2.4062-6.8438h-9.9062z" transform="translate(-40 1)"/>
</g>
<path fill="url(#linearGradient4063)" d="m29.5138,6c.7127,2.3257 1.5279,4.6031 2.4025,6.8294 7.8625,20.1649 18.6045,50.1628 19.0424,55.392 .006,.0716 .0168,.3608 .0222,.4672l-.1334,.8676c-1.7787-8.1819-30.2468-35.5715-36.928-43.9576 2.2226-1.4415 4.4947-4.7226 6.7405-6.785l-5.7616-6.5625c1.9661-3.9323 3.6119-5.5706 4.6939-6.2511 2.508,0 9.9216,0 9.9216,0z"/>
<path opacity=".2" fill="#525252" d="m29.5138,6c.7127,2.3257 1.5279,4.6031 2.4025,6.8294 7.8625,20.1649 18.6045,50.1628 19.0424,55.392 .006,.0716 .0168,.3608 .0222,.4672l-.1334,.8676c-.2646-1.2173-.997-2.6029-2.0689-4.1155-2.617-6.9159-11.5116-35.237-18.286-52.6112-.8747-2.2263-1.6898-4.5038-2.4025-6.8294 .3386,0 1.4237,0 1.4237,0z"/>
</g>
<path opacity=".3" d="m44.4397,68.2214c-.2465,2.9442 0,21.6007 0,21.6007h39.6865c1.2138-27.9345-35.7295-48.6881-39.6865-21.6007z"/>
<g fill="#fff">
<path opacity=".1" d="m29.092,6 9.1875,20.5938c1.6712,4.4824 3.3278,8.9909 4.9062,13.4062l-15.1562-34h1.0625zm-4.3438,0 27.0938,60.9062c.0039,.0189 .0274,.0438 .0312,.0625 .1046,.5119 .1914,.9232 .2188,1.25 .006,.0716-.0054,.3624 0,.4688l-.125,.875c-.2008-.9238-.7509-2.1102-1.5625-3.4688l-26.75-60.0938h1.0938zm-4.3125,.1875 22.0312,49.4688c-.7299-.8531-1.4762-1.7153-2.25-2.5938l-20.5625-46.1875c.2884-.2789 .5378-.5128 .7812-.6875zm-2.875,3.3438 4.0312,9.0625-2.25-2.5625-2.4375-5.4375c.2208-.3861 .4459-.7329 .6562-1.0625zm4.1562,9.3438 12.0625,27.0938c-.6991-.7564-1.3951-1.5006-2.0938-2.25l-10.75-24.0938c.2602-.268 .5217-.509 .7812-.75zm-2.9688,3.1875 6.6562,14.9375c-.6672-.7089-1.3968-1.4802-2.0312-2.1562-.0111-.0119-.0201-.0194-.0312-.0312l-5.3125-11.9375c.241-.2645 .4775-.5406 .7188-.8125zm-3.0312,3.0312 1.25,2.75c-.7408-.8429-1.4283-1.6109-1.9375-2.25 .2249-.1459 .4617-.3196 .6875-.5z"/>
<path opacity=".15" fill-rule="evenodd" d="m19.5922,6c-1.082,.6805-2.7277,2.3188-4.6939,6.2511l5.7616,6.5625c-2.2458,2.0623-4.5179,5.3435-6.7405,6.785 6.6811,8.3861 35.1493,35.7757 36.928,43.9576l.1335-.8676c-.006-.1063-.0162-.3956-.0222-.4672-.0469-.5601-.2445-1.4501-.5117-2.536-.004-.0057 .004-.0165 0-.0222-6.7319-10.8384-29.2579-32.7268-35.1039-40.0646 2.2226-1.4415 4.4947-4.7226 6.7405-6.785l-5.7617-6.5625c1.9662-3.9323 3.6119-5.5706 4.6939-6.2511-.5255,0-1.0638,0-1.4237,0z"/>
</g>
<path fill="url(#linearGradient4081)" d="m66.5,6c-7.169,23.3934-20.9825,56.4118-21.4688,62.2188-.2465,2.9442 0,21.7812 0,21.7812h30.9688 7.4688 .5312c3.324,0 6-2.676 6-6v-.5312-70.9375-.5312c0-3.324-2.676-6-6-6h-.5312-7.4688-9.5z"/>
<path opacity=".15" fill="#fff" d="m70.11,13.2947c-11.7207,23.3934-24.2041,49.1197-24.9991,54.9267-.4031,2.9442 0,21.7786 0,21.7786h2.3277c0,0-.4031-18.8344 0-21.7786 .795-5.807 13.2784-31.5333 24.9991-54.9267-.3573,0-2.3277,0-2.3277,0z"/>
<path opacity=".4" fill="url(#linearGradient4050)" fill-rule="evenodd" d="m29.5138,6c.7127,2.3257 1.5279,4.6031 2.4025,6.8294 6.6678,17.1008 15.3838,41.225 18.1525,51.3655-3.8903-20.0814-9.4747-38.7249-16.0689-58.1949 0,0-4.1071,0-4.4862,0z"/>
<path opacity=".1" fill="#fff" d="m88.0783,7 0,81.4688c-.3067,.2746-.641,.5115-1,.7188v-82.1875h1zm-4-1 0,84-.5312,0-.4688,0 0-84 1,0zm-4,0 0,4.25c-.3442-.5814-.6833-1.1157-1-1.5625v-2.6875h1zm0,7.5 0,10.3125c-.3327-.339-.6664-.6943-1-1.0625v-8.125l1-1.125zm-4,4.5625 0,1.375c-.2176-.2195-.4391-.4256-.6562-.625l.6562-.75zm4,9.9688 0,61.9688-1,0 0-60.8125c.3604-.3997 .6761-.7892 1-1.1562zm-4,4.375 0,57.5938-1,0 0-56.5c.3567-.3819 .6589-.7266 1-1.0938zm-4,4.3125 0,53.2812-1,0 0-52.2188c.3334-.3542 .6733-.7153 1-1.0625zm-4,4.25 0,49.0312-1,0 0-47.9688c.3305-.3529 .6721-.7132 1-1.0625zm-4,4.3125 0,44.7188-1,0 0-43.6562c.3316-.3593 .6678-.7042 1-1.0625zm-4,4.3438 0,40.375-1,0 0-39.2812c.3265-.3632 .6695-.7289 1-1.0938zm-4,4.4375 0,35.9375-1,0 0-34.75c.338-.3931 .6525-.7889 1-1.1875zm-4,4.7812 0,31.1562-1,0 0-29.9375c.3156-.3985 .6666-.8086 1-1.2188z"/>
<g fill-rule="evenodd">
<g clip-path="url(#clipPath4211)" transform="matrix(-1 0 0 1 56.07832 0)">
<path opacity=".1" d="m19.4062,4.0312c-.0005,0-.1245,.0312-.125,.0312-.0005,.0001-.1245,.0311-.125,.0312-.0005,.0001-.0933-.0001-.0938,0-.0004,.0001-.1246,.0623-.125,.0625-.0004,.0002-.0933,.0311-.0938,.0312-.0004,.0002-.0933,.0623-.0938,.0625-.0004,.0002-.1246,.031-.125,.0312-.0003,.0002-.0356,.046-.0625,.0625-.0081,.005-.0312-.0001-.0312,0v.0312c-1.5172,.9649-3.3268,2.9037-5.375,7h.0312c-.0003,.0005-.0623,.1245-.0625,.125-.0002,.0005-.0623,.1244-.0625,.125-.0002,.0006-.0311,.1557-.0312,.1562-.0001,.0006-.0312,.1244-.0312,.125-.0001,.0006-.0312,.1557-.0312,.1562-.0001,.0006 0,.1244 0,.125-0,.0006-0,.1557 0,.1562 0,.0006-.0001,.1557 0,.1562 .0001,.0006 .0311,.1244 .0312,.125 .0001,.0006 .0311,.1557 .0312,.1562 .0001,.0006 .0311,.1244 .0312,.125 .0002,.0006 .0623,.1245 .0625,.125 .0002,.0005 .0622,.1557 .0625,.1562 .0003,.0005 .0622,.1245 .0625,.125 .0003,.0005 .0934,.0933 .0938,.0938 .0003,.0005 .0621,.1246 .0625,.125a.9646,.9646 0 0,0 .0312,0l4.5625,5.25c-1.9658,2.0448-3.8382,4.3143-5.125,5.1562-.0046,.003-.0267-.003-.0312,0-.0257,.0166-.0623,.0311-.0625,.0312-.0003,.0002-.0934,.0622-.0938,.0625-.0003,.0003-.0622,.0935-.0625,.0938-.0003,.0003-.0935,.0622-.0938,.0625-.0003,.0003-.0622,.0622-.0625,.0625-.0003,.0003-.0622,.0934-.0625,.0938-.0003,.0003-.0623,.0622-.0625,.0625-.0003,.0003-.0623,.0934-.0625,.0938-.0002,.0003-.0623,.0934-.0625,.0938-.0002,.0004-.0623,.0934-.0625,.0938-.0002,.0004-.0311,.0934-.0312,.0938-.0002,.0004-.0311,.0934-.0312,.0938-.0002,.0004-.0624,.0934-.0625,.0938-.0001,.0004-.0311,.0933-.0312,.0938-.0001,.0004 .0001,.0933 0,.0938-.0001,.0004-.0312,.1246-.0312,.125-.0001,.0004-.0312,.0933-.0312,.0938-0,.0004 0,.0933 0,.0938-0,.0004 0,.0933 0,.0938-0,.0004-0,.1246 0,.125 0,.0004-0,.0933 0,.0938 0,.0004 .0312,.0933 .0312,.0938 .0001,.0004-.0001,.1246 0,.125 .0001,.0004 .0311,.0933 .0312,.0938 .0001,.0004 .0311,.0934 .0312,.0938 .0001,.0004 .0311,.0934 .0312,.0938 .0001,.0004 .0311,.0934 .0312,.0938 .0002,.0004 .0623,.0934 .0625,.0938 .0002,.0004 .031,.0934 .0312,.0938 .0002,.0004 .0623,.0934 .0625,.0938 .0002,.0004 .0623,.0934 .0625,.0938 .0002,.0003 .0451,.04 .0625,.0625 .0062,.0077 .0251,.0235 .0312,.0312 3.5488,4.447 12.2453,13.2553 20.375,22.125 4.0721,4.4428 8.0004,8.8771 10.9688,12.6562 1.4793,1.8834 2.6949,3.6287 3.5938,5.0938 .8989,1.4651 1.4699,2.7115 1.5938,3.2812 .0002,.0007 .0623,.1869 .0625,.1875 .0002,.0006 .031,.1556 .0312,.1562 .0003,.0006 .0934,.1244 .0938,.125 .0003,.0006 .0934,.1557 .0938,.1562 .0004,.0006 .0933,.1245 .0938,.125 .0004,.0005 .0933,.1245 .0938,.125 .0005,.0005 .1245,.1245 .125,.125 .0005,.0005 .1245,.1246 .125,.125 .0005,.0004 .1557,.0934 .1562,.0938 .0006,.0004 .1244,.0622 .125,.0625 .0006,.0003 .1556,.0623 .1562,.0625 .0006,.0003 .1556,.0623 .1562,.0625 .0006,.0002 .1868,.0624 .1875,.0625 .0007,.0001 .1556-.0001 .1562,0 .0007,.0001 .1556,.0312 .1562,.0312 .0007,0 .1868,0 .1875,0 .0007-0 .1556-.0312 .1562-.0312 .0007-.0001 .1556-.0311 .1562-.0312 .0007-.0001 .1869-.031 .1875-.0312 .0006-.0002 .1556-.0622 .1562-.0625 .0006-.0003 .1556-.0622 .1562-.0625 .0006-.0003 .1244-.0934 .125-.0938 .0006-.0004 .1557-.0933 .1562-.0938 .0005-.0004 .1245-.0933 .125-.0938 .0005-.0005 .1245-.1245 .125-.125 .0005-.0005 .0933-.1245 .0938-.125 .0004-.0005 .0934-.1557 .0938-.1562 .0004-.0006 .0934-.1244 .0938-.125 .0003-.0006 .0622-.1556 .0625-.1562 .0003-.0006 .0623-.1556 .0625-.1562 .0002-.0006 .0624-.1556 .0625-.1562 .0002-.0007 .0311-.1868 .0312-.1875l.0938-.75c.0001-.0005 .0195-.0707 .0312-.125 .0056-.026-0-.0623 0-.0625 .0001-.0007 .0312-.1867 .0312-.1875 0-.0002-.0001-.0563 0-.0625-.0001-.0156 .0002-.0178 0-.0312-.0003-.0269-.0005-.0916 0-.125-0,.0028 .0219-.1767 0-.4375-.1502-1.7932-.9855-4.5171-2.1875-8.4062-1.2044-3.8969-2.8181-8.7749-4.6875-14.125-3.7175-10.6393-8.3548-23.08-12.2812-33.1562a.9646,.9646 0 0,0 -.0625-.1875 .9646,.9646 0 0,0 0-.0312c-.8562-2.1794-1.6506-4.3975-2.3438-6.6562-0-.0001 .0024-.0239 0-.0312-.0115-.0352-.0623-.1245-.0625-.125-.0002-.0006-.0622-.1557-.0625-.1562-.0003-.0006-.0622-.1245-.0625-.125-.0003-.0005-.0934-.1245-.0938-.125-.0004-.0005-.0934-.1245-.0938-.125-.0004-.0005-.0933-.1245-.0938-.125-.0004-.0005-.1245-.1246-.125-.125-.0005-.0004-.0933-.0934-.0938-.0938-.0005-.0004-.1245-.0934-.125-.0938-.0005-.0003-.1557-.0622-.1562-.0625-.0006-.0003-.1244-.0935-.125-.0938-.0006-.0003-.1557-.031-.1562-.0312-.0006-.0002-.1556-.0623-.1562-.0625-.0006-.0002-.1556-.0311-.1562-.0312-.0006-.0001-.1556-.0312-.1562-.0312-.0006-.0001-.1556,0-.1562,0h-9.875c-.0001-0-.0194,0-.0312,0-.0475-0-.1244-0-.125,0a.9646,.9646 0 0,0 -.0625,0zm31.5938,64.625c0,0 .2586-.0009 .375,0l-.375,.0312c.0008,.0117 0-.0312 0-.0312z" transform="translate(-40 1)"/>
<path opacity=".15" d="m19.5938,5a.9881,.9881 0 0,0 -.5312,.1562c-1.3058,.8213-3.0159,2.6256-5.0312,6.6562a.9881,.9881 0 0,0 .125,1.0938l5.1562,5.9062c-2.1379,2.1365-4.2162,4.8211-5.9375,5.9375a.9881,.9881 0 0,0 -.25,1.4688c3.4401,4.318 12.2141,13.19 20.375,22.0938 4.0805,4.4519 8.0042,8.9047 11,12.7188 2.9958,3.8141 5.0223,7.1275 5.375,8.75a.9881,.9881 0 0,0 1.9375-.0938l.125-.875a.9881,.9881 0 0,0 .0312-.1875c.0014,.0276-.0014-.0612 0-.1562 .0014-.095 .0166-.1451 0-.3438-.131-1.5644-.9258-4.3386-2.125-8.2188-1.1992-3.8801-2.821-8.7518-4.6875-14.0938-3.7331-10.6838-8.4077-23.2178-12.3438-33.3125a.9881,.9881 0 0,0 0-.0312c-.867-2.2069-1.6711-4.4532-2.375-6.75a.9881,.9881 0 0,0 -.9375-.7188h-9.9062z" transform="translate(-40 1)"/>
<path opacity=".3" d="m19.5938,6c-1.082,.6805-2.7214,2.3177-4.6875,6.25l5.75,6.5625c-2.2458,2.0623-4.5274,5.3398-6.75,6.7812 6.6811,8.3861 35.1588,35.7869 36.9375,43.9688l.125-.875c-.0054-.1063 .006-.3971 0-.4688-.4379-5.2291-11.2-35.2101-19.0625-55.375-.8747-2.2263-1.6935-4.5181-2.4062-6.8438h-9.9062z" transform="translate(-40 1)"/>
</g>
<path fill="url(#linearGradient4044)" d="m66.4862,6c-.7127,2.3257-1.5279,4.6031-2.4025,6.8294-7.8625,20.1649-18.6045,50.1628-19.0424,55.392-.006,.0716-.0168,.3608-.0222,.4672l.1334,.8676c1.7787-8.1819 30.2468-35.5715 36.928-43.9576-2.2226-1.4415-4.4947-4.7226-6.7405-6.785l5.7617-6.5625c-1.9662-3.9323-3.6119-5.5706-4.6939-6.2511-2.508,0-9.9216,0-9.9216,0z"/>
<path opacity=".2" fill="url(#linearGradient4040)" d="m66.4862,6c-.7127,2.3257-1.5279,4.6031-2.4025,6.8294-7.8625,20.1649-18.6045,50.1628-19.0424,55.392-.006,.0716-.0168,.3608-.0222,.4672l.1334,.8676c.2646-1.2173 .997-2.6029 2.0689-4.1155 2.617-6.9159 11.5116-35.237 18.286-52.6112 .8747-2.2263 1.6898-4.5038 2.4025-6.8294-.3386,0-1.4237,0-1.4237,0z"/>
</g>
<g stroke="url(#linearGradient4118)" stroke-linejoin="round" id="g4970" stroke-linecap="square" transform="matrix(.71186 0 0 .71186 2.44068 5.28814)">
<path fill="#3d3d3d" stroke-width="1.504" d="m73.9589,99.266a3.7479,3.7479 0 1,1 -7.4958,0 3.7479,3.7479 0 1,1 7.4958,0z" transform="matrix(-.66033 -.66033 .66033 -.66033 48.81347 203.91181)"/>
<path fill="none" stroke-width="1.436" d="m73.9589,99.266a3.7479,3.7479 0 1,1 -7.4958,0 3.7479,3.7479 0 1,1 7.4958,0z" transform="matrix(.51891 .51891 -.51891 .51891 83.077 4.05639)"/>
</g>
<use width="128" height="128" xlink:href="#g4970" transform="translate(0 11.38983)"/>
<g fill-rule="evenodd">
<path opacity=".3" d="m30.2787,9.3009c-1.3615,1.3383-7.3543,6.5357-13.0728,12.9633 8.2312-7.598 12.518-10.1066 13.9703-10.8337-.3543-.9086-.5664-1.2043-.8975-2.1296z"/>
<path opacity=".3" d="m65.2676,9.0494c1.3615,1.3383 7.3543,6.5357 13.0728,12.9633-8.2312-7.598-12.518-10.1066-13.9703-10.8337 .3543-.9086 .5664-1.2043 .8975-2.1296z"/>
<path fill="#464342" d="m65.4057,69.5473c.1779-1.0672 0-8.3598 0-8.3598l24.5457-3.2016-22.9069,4.8024-1.6388,6.759z"/>
<path opacity=".15" fill="#fff" d="m65.5943,69.4215c.1779-1.0672 1.0062-6.7247 1.0062-6.7247l19.7664-3.6842-18.6307,4.782-2.1419,5.627z"/>
<path opacity=".4" fill="url(#linearGradient4233)" d="m66.4761,6c-.7127,2.3257-1.5279,4.6031-2.4025,6.8294-6.6678,17.1008-15.3838,41.225-18.1526,51.3655 3.8903-20.0815 9.4747-38.7249 16.0689-58.1949 0,0 4.1071,0 4.4862,0z"/>
</g>
<path opacity=".1" fill="#fff" d="m68.0312,6-9.1875,20.5938c-1.6712,4.4824-3.3278,8.9909-4.9062,13.4062l15.1562-34h-1.0625zm4.3438,0-27.0938,60.9062c-.0039,.0189-.0274,.0438-.0312,.0625-.1046,.5119-.1914,.9232-.2188,1.25-.006,.0716 .0054,.3624 0,.4688l.125,.875c.2008-.9238 .7509-2.1102 1.5625-3.4688l26.75-60.0938h-1.0938zm4.3125,.1875-22.0312,49.4688c.7299-.8531 1.4762-1.7153 2.25-2.5938l20.5625-46.1875c-.2884-.2789-.5378-.5128-.7812-.6875zm2.875,3.3438-4.0312,9.0625 2.25-2.5625 2.4375-5.4375c-.2208-.3861-.4459-.7329-.6562-1.0625zm-4.1562,9.3438-12.0625,27.0938c.6991-.7564 1.3951-1.5006 2.0938-2.25l10.75-24.0938c-.2602-.268-.5216-.509-.7812-.75zm2.9688,3.1875-6.6562,14.9375c.6672-.7089 1.3968-1.4802 2.0312-2.1562 .0111-.0119 .0201-.0194 .0312-.0312l5.3125-11.9375c-.241-.2645-.4775-.5406-.7188-.8125zm3.0312,3.0312-1.25,2.75c.7408-.8429 1.4283-1.6109 1.9375-2.25-.2249-.1459-.4617-.3196-.6875-.5z"/>
<path opacity=".1" fill="url(#linearGradient3613)" filter="url(#filter3794)" stroke="#fff" stroke-linecap="round" stroke-width=".5" d="m27,15h42a12,12 0 0,1 12,12v42a12,12 0 0,1 -12,12h-42a12,12 0 0,1 -12-12v-42a12,12 0 0,1 12-12" clip-path="url(#clipPath3613)"/>
<path opacity=".3" fill="url(#linearGradient3188)" d="m12,6c-3.324,0-6,2.676-6,6v2 68 2c0,.3347 .0413,.6507 .0938,.9688 .0487,.2956 .097,.5969 .1875,.875 .0099,.0304 .0209,.0636 .0312,.0938 .0989,.2878 .2349,.5475 .375,.8125 .1446,.2735 .3156,.5356 .5,.7812 .1844,.2456 .3738,.4735 .5938,.6875 .4399,.4281 .9429,.8145 1.5,1.0938 .2785,.1396 .5735,.2469 .875,.3438-.2562-.1002-.4867-.2363-.7188-.375-.0074-.0044-.0239,.0045-.0312,0-.0319-.0193-.0623-.0425-.0938-.0625-.1204-.0767-.231-.1635-.3438-.25-.1062-.0808-.2133-.1611-.3125-.25-.1779-.1614-.3475-.3454-.5-.5312-.1076-.1303-.2184-.2653-.3125-.4062-.0251-.0384-.0384-.0859-.0625-.125-.0648-.103-.1302-.2045-.1875-.3125-.101-.1947-.2057-.4157-.2812-.625-.008-.0218-.0236-.0405-.0312-.0625-.0318-.0919-.0358-.1868-.0625-.2812-.0303-.1066-.0704-.203-.0938-.3125-.0729-.3415-.125-.6982-.125-1.0625v-2-68-2c0-2.7818 2.2182-5 5-5h2 68 2c2.7818,0 5,2.2182 5,5v2 68 2c0,.3643-.0521,.721-.125,1.0625-.0442,.2069-.0884,.3977-.1562,.5938-.0077,.022-.0233,.0407-.0312,.0625-.0627,.1737-.1384,.3674-.2188,.5312-.0416,.0828-.079,.17-.125,.25-.0546,.0972-.1268,.1883-.1875,.2812-.0941,.141-.2049,.276-.3125,.4062-.1432,.1744-.3031,.347-.4688,.5-.0112,.0102-.02,.0212-.0312,.0312-.1384,.1256-.2851,.2344-.4375,.3438-.1026,.0731-.2043,.1534-.3125,.2188-.0074,.0045-.0238-.0044-.0312,0-.232,.1387-.4625,.2748-.7188,.375 .3015-.0968 .5965-.2041 .875-.3438 .5571-.2792 1.0601-.6657 1.5-1.0938 .22-.214 .4094-.4419 .5938-.6875 .1844-.2456 .3554-.5077 .5-.7812 .1401-.265 .2761-.5247 .375-.8125 .0104-.0308 .0213-.0627 .0312-.0938 .0905-.2781 .1388-.5794 .1875-.875 .0524-.318 .0938-.634 .0938-.9688v-2-68-2c0-3.324-2.676-6-6-6h-72z"/>
<path opacity=".2" fill="url(#radialGradient3619)" d="m12,90c-3.324,0-6-2.676-6-6v-2-68-2c0-.3347 .0413-.6507 .0938-.9688 .0487-.2956 .097-.5969 .1875-.875 .0099-.0304 .0209-.0636 .0312-.0938 .0989-.2878 .2349-.5475 .375-.8125 .1446-.2735 .3156-.5356 .5-.7812 .1844-.2456 .3738-.4735 .5938-.6875 .4399-.4281 .9429-.8145 1.5-1.0938 .2785-.1396 .5735-.2469 .875-.3438-.2562,.1002-.4867,.2363-.7188,.375-.0074,.0044-.0239-.0045-.0312,0-.0319,.0193-.0623,.0425-.0938,.0625-.1204,.0767-.231,.1635-.3438,.25-.1062,.0808-.2133,.1611-.3125,.25-.1779,.1614-.3475,.3454-.5,.5312-.1076,.1303-.2184,.2653-.3125,.4062-.0251,.0384-.0384,.0859-.0625,.125-.0648,.103-.1302,.2045-.1875,.3125-.101,.1947-.2057,.4157-.2812,.625-.008,.0218-.0236,.0405-.0312,.0625-.0318,.092-.0358,.1868-.0625,.2812-.0303,.1066-.0704,.203-.0938,.3125-.0729,.3415-.125,.6982-.125,1.0625v2 68 2c0,2.7818 2.2182,5 5,5h2 68 2c2.7818,0 5-2.2182 5-5v-2-68-2c0-.3643-.0521-.721-.125-1.0625-.0442-.2069-.0884-.3977-.1562-.5938-.0077-.022-.0233-.0407-.0312-.0625-.0627-.1737-.1384-.3674-.2188-.5312-.0416-.0828-.079-.17-.125-.25-.0546-.0972-.1268-.1883-.1875-.2812-.0941-.141-.2049-.276-.3125-.4062-.1432-.1745-.3031-.347-.4688-.5-.0112-.0102-.02-.0211-.0312-.0312-.1384-.1256-.2851-.2344-.4375-.3438-.1026-.0732-.2043-.1534-.3125-.2188-.0074-.0045-.0238,.0044-.0312,0-.232-.1387-.4625-.2748-.7188-.375 .3015,.0968 .5965,.2041 .875,.3438 .5571,.2792 1.0601,.6657 1.5,1.0938 .22,.214 .4094,.4419 .5938,.6875 .1844,.2456 .3554,.5077 .5,.7812 .1401,.265 .2761,.5247 .375,.8125 .0104,.0308 .0213,.0627 .0312,.0938 .0905,.2781 .1388,.5794 .1875,.875 .0524,.318 .0938,.634 .0938,.9688v2 68 2c0,3.324-2.676,6-6,6h-72z"/>
</svg>
