<svg xmlns="http://www.w3.org/2000/svg" viewBox="0 0 96 96" xmlns:xlink="http://www.w3.org/1999/xlink">
<defs>
<clipPath id="clipPath3613">
<path fill="#fff" d="m12,6h72a6,6 0 0,1 6,6v72a6,6 0 0,1 -6,6h-72a6,6 0 0,1 -6-6v-72a6,6 0 0,1 6-6"/>
</clipPath>
<filter width="1.384" x="-.192" y="-.192" height="1.384" color-interpolation-filters="sRGB" id="filter3794">
<feGaussianBlur stdDeviation="5.28"/>
</filter>
<linearGradient gradientTransform="translate(0 -97)" id="linearGradient3721" xlink:href="#ButtonShadow-0" y1="6.132" y2="90.239" x2="0" gradientUnits="userSpaceOnUse"/>
<linearGradient id="linearGradient2908" xlink:href="#linearGradient3737-2" y1="20.221" y2="138.661" x2="0" gradientUnits="userSpaceOnUse"/>
<linearGradient gradientTransform="matrix(1.02381 0 0 1.0119 -1.14286 -98.07143)" id="linearGradient3780" xlink:href="#ButtonShadow-0" y1="6.132" y2="90.239" x2="0" gradientUnits="userSpaceOnUse"/>
<linearGradient gradientTransform="matrix(1.00587 0 0 .99417 100 0)" id="ButtonShadow-0" y1="92.54" y2="7.017" x2="0" gradientUnits="userSpaceOnUse">
<stop offset="0"/>
<stop offset="1" stop-opacity=".588"/>
</linearGradient>
<linearGradient id="ButtonColor">
<stop offset="0" stop-color="#1d5282"/>
<stop offset="1" stop-color="#568ec2"/>
</linearGradient>
<linearGradient id="linearGradient3737">
<stop offset="0" stop-color="#fff"/>
<stop offset="1" stop-color="#fff" stop-opacity="0"/>
</linearGradient>
<linearGradient id="linearGradient3706" xlink:href="#ButtonColor" y1="90" y2="5.988" x2="0" gradientUnits="userSpaceOnUse"/>
<linearGradient gradientTransform="translate(-100)" id="linearGradient3230" xlink:href="#linearGradient3737" y1="6" y2="63.607" x2="0" gradientUnits="userSpaceOnUse"/>
<linearGradient id="linearGradient3737-2">
<stop offset="0" stop-color="#fff"/>
<stop offset="1" stop-color="#fff" stop-opacity="0"/>
</linearGradient>
<radialGradient cx="48" cy="90.172" gradientTransform="matrix(1.15731 0 0 .99591 -7.55102 .19713)" r="42" id="radialGradient2874" gradientUnits="userSpaceOnUse">
<stop offset="0" stop-color="#fff"/>
<stop offset="1" stop-color="#fff" stop-opacity="0"/>
</radialGradient>
</defs>
<path opacity=".08" fill="url(#linearGradient3780)" d="m12-95.0312c-5.5111,0-10.0312,4.5202-10.0312,10.0312v71c0,5.5111 4.5202,10.0312 10.0312,10.0312h72c5.5111,0 10.0312-4.5202 10.0312-10.0312v-71c0-5.5111-4.5202-10.0312-10.0312-10.0312h-72z" transform="scale(1 -1)"/>
<path opacity=".1" fill="url(#linearGradient3780)" d="m12-94.0312c-4.9716,0-9.0312,4.0596-9.0312,9.0312v71c0,4.9716 4.0596,9.0312 9.0312,9.0312h72c4.9716,0 9.0312-4.0596 9.0312-9.0312v-71c0-4.9716-4.0596-9.0312-9.0312-9.0312h-72z" transform="scale(1 -1)"/>
<path opacity=".2" fill="url(#linearGradient3780)" d="m12-93c-4.4091,0-8,3.5909-8,8v71c0,4.4091 3.5909,8 8,8h72c4.4091,0 8-3.5909 8-8v-71c0-4.4091-3.5909-8-8-8h-72z" transform="scale(1 -1)"/>
<path opacity=".3" fill="url(#linearGradient3780)" d="m12-92h72a7,7 0 0,1 7,7v71a7,7 0 0,1 -7,7h-72a7,7 0 0,1 -7-7v-71a7,7 0 0,1 7-7" transform="scale(1 -1)"/>
<path opacity=".45" fill="url(#linearGradient3721)" d="m12-91h72a6,6 0 0,1 6,6v72a6,6 0 0,1 -6,6h-72a6,6 0 0,1 -6-6v-72a6,6 0 0,1 6-6" transform="scale(1 -1)"/>
<path fill="url(#linearGradient3706)" d="m12,6h72a6,6 0 0,1 6,6v72a6,6 0 0,1 -6,6h-72a6,6 0 0,1 -6-6v-72a6,6 0 0,1 6-6"/>
<path opacity=".7" fill="#fff" d="m12,6c-3.324,0-6,2.676-6,6v2 68 2c0,3.324 2.676,6 6,6h2 68 2c3.324,0 6-2.676 6-6v-2-68-2c0-3.324-2.676-6-6-6h-2-68-2zm4,6 64,0c2.216,0 4,1.784 4,4v64c0,2.216-1.784,4-4,4h-64c-2.216,0-4-1.784-4-4v-64c0-2.216 1.784-4 4-4z"/>
<path opacity=".5" fill="url(#linearGradient3230)" d="m12,6c-3.324,0-6,2.676-6,6v72c0,2.6778 1.744,4.8818 4.1562,5.6562-1.8606-.7278-3.1562-2.5264-3.1562-4.6562v-72c0-2.7818 2.2182-5 5-5h72c2.7818,0 5,2.2182 5,5v72c0,2.1299-1.2957,3.9284-3.1562,4.6562 2.4122-.7744 4.1562-2.9785 4.1562-5.6562v-72c0-3.324-2.676-6-6-6h-72z"/>
<path opacity=".4" fill="url(#radialGradient2874)" d="m12,90c-3.324,0-6-2.676-6-6v-2-68-2c0-.3347 .0413-.6507 .0938-.9688 .0487-.2956 .097-.5969 .1875-.875 .0099-.0304 .0209-.0636 .0312-.0938 .0989-.2878 .2349-.5475 .375-.8125 .1446-.2735 .3156-.5356 .5-.7812 .1844-.2456 .3738-.4735 .5938-.6875 .4399-.4281 .9429-.8145 1.5-1.0938 .2785-.1396 .5735-.2469 .875-.3438-.2562,.1002-.4867,.2363-.7188,.375-.0074,.0044-.0239-.0045-.0312,0-.0319,.0193-.0623,.0425-.0938,.0625-.1204,.0767-.231,.1635-.3438,.25-.1062,.0808-.2133,.1611-.3125,.25-.1779,.1614-.3475,.3454-.5,.5312-.1076,.1303-.2184,.2653-.3125,.4062-.0251,.0384-.0384,.0859-.0625,.125-.0648,.103-.1302,.2045-.1875,.3125-.101,.1947-.2057,.4157-.2812,.625-.008,.0218-.0236,.0405-.0312,.0625-.0318,.092-.0358,.1868-.0625,.2812-.0303,.1066-.0704,.203-.0938,.3125-.0729,.3415-.125,.6982-.125,1.0625v2 68 2c0,2.7818 2.2182,5 5,5h2 68 2c2.7818,0 5-2.2182 5-5v-2-68-2c0-.3643-.0521-.721-.125-1.0625-.0442-.2069-.0884-.3977-.1562-.5938-.0077-.022-.0233-.0407-.0312-.0625-.0627-.1737-.1384-.3674-.2188-.5312-.0416-.0828-.079-.17-.125-.25-.0546-.0972-.1268-.1883-.1875-.2812-.0941-.141-.2049-.276-.3125-.4062-.1432-.1745-.3031-.347-.4688-.5-.0112-.0102-.02-.0211-.0312-.0312-.1384-.1256-.2851-.2344-.4375-.3438-.1026-.0732-.2043-.1534-.3125-.2188-.0074-.0045-.0238,.0044-.0312,0-.232-.1387-.4625-.2748-.7188-.375 .3015,.0968 .5965,.2041 .875,.3438 .5571,.2792 1.0601,.6657 1.5,1.0938 .22,.214 .4094,.4419 .5938,.6875 .1844,.2456 .3554,.5077 .5,.7812 .1401,.265 .2761,.5247 .375,.8125 .0104,.0308 .0213,.0627 .0312,.0938 .0905,.2781 .1388,.5794 .1875,.875 .0524,.318 .0938,.634 .0938,.9688v2 68 2c0,3.324-2.676,6-6,6h-72z"/>
<g fill="#1a3854" transform="translate(100)">
<path opacity=".05" d="m-84,12c-2.216,0-4,1.784-4,4v64c0,2.216 1.784,4 4,4h64c2.216,0 4-1.784 4-4v-64c0-2.216-1.784-4-4-4h-64zm0,3.0312 64,0c.5879,0 .9688,.3809 .9688,.9688v64c0,.5879-.3809,.9688-.9688,.9688h-64c-.5879,0-.9688-.3809-.9688-.9688v-64c0-.5879 .3809-.9688 .9688-.9688z"/>
<path opacity=".1" d="m-84,12c-2.216,0-4,1.784-4,4v64c0,2.216 1.784,4 4,4h64c2.216,0 4-1.784 4-4v-64c0-2.216-1.784-4-4-4h-64zm0,1.9375 64,0c1.1723,0 2.0625,.8902 2.0625,2.0625v64c0,1.1723-.8902,2.0625-2.0625,2.0625h-64c-1.1723,0-2.0625-.8902-2.0625-2.0625v-64c0-1.1723 .8902-2.0625 2.0625-2.0625z"/>
<path opacity=".22" d="m-84,12c-2.216,0-4,1.784-4,4v64c0,2.216 1.784,4 4,4h64c2.216,0 4-1.784 4-4v-64c0-2.216-1.784-4-4-4h-64zm0,1.0312 64,0c1.6649,0 2.9688,1.3038 2.9688,2.9688v64c0,1.6649-1.3038,2.9688-2.9688,2.9688h-64c-1.6649,0-2.9688-1.3038-2.9688-2.9688v-64c0-1.6649 1.3038-2.9688 2.9688-2.9688z"/>
</g>
<path opacity=".1" fill="url(#linearGradient2908)" filter="url(#filter3794)" stroke="#fff" stroke-linecap="round" stroke-width=".5" d="m27,15h42a12,12 0 0,1 12,12v42a12,12 0 0,1 -12,12h-42a12,12 0 0,1 -12-12v-42a12,12 0 0,1 12-12" clip-path="url(#clipPath3613)"/>
<path opacity=".08" d="m48.2812,19.125c-4.4965,0-8.125,3.7536-8.125,8.2812 0,4.5276 3.6285,8.2812 8.125,8.2812 4.4956,0 8.1562-3.7439 8.1562-8.2812 0-4.5373-3.6606-8.2812-8.1562-8.2812zm-22.5938,13.0938c-.5588-.009-1.1736,.1067-1.7812,.4062-1.3141,.6477-2.0455,2.0088-2.0625,3.375-.0167,1.4664 .8887,2.6515 2.0312,3.25a.8929,.8929 0 0,0 0,.0312c.0023,.0011 .1539,.0615 .1562,.0625 .0019,.0008 .0868,.0179 .125,.0312 .0091,.0032 .0308-.0001 .0312,0l15.375,4.9688-.0938,10.7812-5.8125,18.3438a.8929,.8929 0 0,0 -.0312,.375 .8929,.8929 0 0,0 0,.0625c-.5343,1.5078-.1805,3.2684 1.25,4.2188 1.6601,1.1031 4.0431,.7887 5.2188-.9688a.8929,.8929 0 0,0 .0312-.0312c.0011-.0018 .0615-.1231 .0625-.125 .0007-.0015 .0161-.0604 .0312-.0938 .0047-.0102-.0002-.0308 0-.0312l7.7812-16.4375 7.625,16.4062a.8929,.8929 0 0,0 .0312,.0625c.0009,.0015 .0615,.0923 .0625,.0938 .0192,.0335 .0424,.0611 .0625,.0938 1.0475,1.7014 3.2949,2.2701 5.0312,1.2812 1.5118-.861 2.0174-2.6444 1.5625-4.2188a.8929,.8929 0 0,0 0-.0625c-.003-.0097 .0031-.0216 0-.0312a.8929,.8929 0 0,0 -.0312-.3438l-5.6875-18.3438v-.0625l-.0312-10.6562 15.4375-5.3438c.002-.0007 .123-.0304 .125-.0312 .002-.0008 .1231-.0615 .125-.0625 .0019-.001 .1232-.0614 .125-.0625 .0018-.0011 .092-.0925 .0938-.0938 1.3757-.9615 1.9856-2.7396 1.375-4.3438-.5967-1.5679-2.1876-2.4523-3.8125-2.3125v-.0625c-.0009-0-.0303-0-.0312,0a.8929,.8929 0 0,0 -.0625,.0312 .8929,.8929 0 0,0 -.0938,0c-.4613,.0764-.7979,.1798-.8438,.1875l-21.0625,3.5312-21-3.6875c-.2952-.0518-.7635-.1787-1.3125-.1875z"/>
<path opacity=".15" d="m48.2812,20.0312c-4.0029,0-7.2188,3.3193-7.2188,7.375 0,4.0557 3.2158,7.375 7.2188,7.375 4.0029,0 7.25-3.3136 7.25-7.375 0-4.0614-3.2471-7.375-7.25-7.375zm-22.5938,13.0938c-.4327-.0069-.8979,.0773-1.375,.3125-.9988,.4923-1.5493,1.4968-1.5625,2.5625-.0126,1.1034 .65,2.0071 1.5312,2.4688a.9822,.9822 0 0,0 .1562,.0625l16.0312,5.1875-.0938,11.5-5.875,18.5312 .0625,.0312c-.6567,1.2293-.3888,2.7956 .8125,3.5938 1.2763,.848 3.0742,.6184 3.9688-.7188a.9822,.9822 0 0,0 .0625-.125l8.5938-18.2188 8.4375,18.1562a.9822,.9822 0 0,0 .0625,.0938c.7736,1.3493 2.524,1.8006 3.875,1.0312 1.2632-.7195 1.6517-2.2912 1.0625-3.5938l.0625-.0312-5.75-18.5938-.0312-11.3438 16.0625-5.5625a.9822,.9822 0 0,0 .25-.125c1.0479-.7324 1.4954-2.093 1.0312-3.3125-.4613-1.2122-1.702-1.9252-2.9688-1.7812a.9822,.9822 0 0,0 -.0312,0c-.3923,.065-.6556,.156-.8438,.1875l-21.2188,3.5625-21.1562-3.7188c-.3335-.0585-.7235-.1493-1.1562-.1562z"/>
<path opacity=".4" d="m54.5657,27.4124c0,3.5397-2.8085,6.4124-6.2691,6.4124-3.4605,0-6.2691-2.8728-6.2691-6.4124 0-3.5397 2.8085-6.4124 6.2691-6.4124 3.4605,0 6.2691,2.8728 6.2691,6.4124zm15.6468,6.8185c-.29,.0481-.5367,.1278-.8263,.1763l-21.3869,3.5807-21.299-3.735c-.6752-.1184-1.3247-.2586-1.9399,.0447-.6152,.3032-1.0185,1.022-1.027,1.706-.0078,.684 .4194,1.274 1.027,1.5922l16.6899,5.4156-.1142,12.4323-5.8892,18.6196c-.5672,.8479-.3943,1.9367 .4564,2.502 .8508,.5653 2.0573,.3931 2.6246-.4549l9.5039-20.098 9.3245,20.0633c.5042,.8794 1.6281,1.1849 2.5105,.6824 .8823-.5025 1.1889-1.6227 .6847-2.5021l-5.7799-18.6997-.0082-12.2541 16.7041-5.7729c.6838-.4779 .9809-1.3827 .6847-2.1608-.2962-.7782-1.1102-1.2317-1.9399-1.1374h.0001z"/>
<path fill="#fff" d="m54.5657,26.4124c0,3.5397-2.8085,6.4124-6.2691,6.4124-3.4605,0-6.2691-2.8728-6.2691-6.4124 0-3.5397 2.8085-6.4124 6.2691-6.4124 3.4605,0 6.2691,2.8728 6.2691,6.4124zm15.6468,6.8185c-.29,.0481-.5367,.1278-.8263,.1763l-21.3869,3.5807-21.299-3.735c-.6752-.1184-1.3247-.2586-1.9399,.0447-.6152,.3032-1.0185,1.022-1.027,1.706-.0078,.684 .4194,1.274 1.027,1.5922l16.6899,5.4156-.1142,12.4323-5.8892,18.6196c-.5672,.8479-.3943,1.9367 .4564,2.502 .8508,.5653 2.0573,.3931 2.6246-.4549l9.5039-20.098 9.3245,20.0633c.5042,.8794 1.6281,1.1849 2.5105,.6824 .8823-.5025 1.1889-1.6227 .6847-2.5021l-5.7799-18.6997-.0082-12.2541 16.7041-5.7729c.6838-.4779 .9809-1.3827 .6847-2.1608-.2962-.7782-1.1102-1.2317-1.9399-1.1374h.0001z"/>
</svg>
