<svg xmlns="http://www.w3.org/2000/svg" viewBox="0 0 96 96" xmlns:xlink="http://www.w3.org/1999/xlink">
<defs>
<clipPath id="clipPath3613">
<path fill="#fff" d="m12,6h72a6,6 0 0,1 6,6v72a6,6 0 0,1 -6,6h-72a6,6 0 0,1 -6-6v-72a6,6 0 0,1 6-6"/>
</clipPath>
<filter width="1.384" x="-.192" y="-.192" height="1.384" color-interpolation-filters="sRGB" id="filter3794">
<feGaussianBlur stdDeviation="5.28"/>
</filter>
<linearGradient gradientTransform="matrix(-.67083 0 0 -.70833 90.93632 93.33333)" id="linearGradient2943" xlink:href="#linearGradient3374" y1="16" x1="48.8" y2="56.875" x2="59.752" gradientUnits="userSpaceOnUse"/>
<linearGradient gradientTransform="translate(0 -100)" id="linearGradient3839" xlink:href="#ButtonColor" y1="90" y2="5.988" x2="0" gradientUnits="userSpaceOnUse"/>
<linearGradient id="linearGradient3703" xlink:href="#linearGradient3687" y1="6.854" y2="34.886" x2="0" gradientUnits="userSpaceOnUse"/>
<linearGradient gradientTransform="translate(0 -97)" id="linearGradient3721" xlink:href="#ButtonShadow-0" y1="6.132" y2="90.239" x2="0" gradientUnits="userSpaceOnUse"/>
<linearGradient gradientTransform="matrix(1.02381 0 0 1.0119 -1.14286 -98.07143)" id="linearGradient3780" xlink:href="#ButtonShadow-0" y1="6.132" y2="90.239" x2="0" gradientUnits="userSpaceOnUse"/>
<linearGradient id="linearGradient3725" xlink:href="#linearGradient3687" y1="48" y2="-6.548" x2="0" gradientUnits="userSpaceOnUse"/>
<linearGradient gradientTransform="matrix(1.00587 0 0 .99417 100 0)" id="ButtonShadow-0" y1="92.54" y2="7.017" x2="0" gradientUnits="userSpaceOnUse">
<stop offset="0"/>
<stop offset="1" stop-opacity=".588"/>
</linearGradient>
<linearGradient id="linearGradient3374">
<stop offset="0"/>
<stop offset="1" stop-opacity="0"/>
</linearGradient>
<linearGradient id="linearGradient3687">
<stop offset="0" stop-color="#fff"/>
<stop offset="1" stop-color="#fff" stop-opacity="0"/>
</linearGradient>
<linearGradient id="linearGradient3737">
<stop offset="0" stop-color="#fff"/>
<stop offset="1" stop-color="#fff" stop-opacity="0"/>
</linearGradient>
<linearGradient gradientTransform="matrix(1.01724 0 0 1.01724 -1.10345 -1.10345)" id="ButtonColor" y1="122" y2="5.425" x2="0" gradientUnits="userSpaceOnUse">
<stop offset="0" stop-color="#183288"/>
<stop offset="1" stop-color="#5072e1"/>
</linearGradient>
<linearGradient id="linearGradient3188" xlink:href="#linearGradient3737" y1="6" y2="63.893" x2="0" gradientUnits="userSpaceOnUse"/>
<linearGradient id="linearGradient3617" xlink:href="#ButtonColor" y1="90" y2="5.988" x2="0" gradientUnits="userSpaceOnUse"/>
<linearGradient id="linearGradient3613" xlink:href="#linearGradient3737" y1="20.221" y2="138.661" x2="0" gradientUnits="userSpaceOnUse"/>
<radialGradient cx="48" cy="66.45" gradientTransform="matrix(1.33012 -0 0 1.69786 -15.8459 -37.54886)" r="23" id="radialGradient3683" gradientUnits="userSpaceOnUse">
<stop offset="0" stop-color="#2782e9"/>
<stop offset="1" stop-color="#193693"/>
</radialGradient>
<radialGradient cx="48" cy="90.172" gradientTransform="matrix(1.15731 0 0 .99591 -7.55102 .19713)" r="42" id="radialGradient3619" xlink:href="#linearGradient3737" gradientUnits="userSpaceOnUse"/>
</defs>
<path opacity=".08" fill="url(#linearGradient3780)" d="m12-95.0312c-5.5111,0-10.0312,4.5202-10.0312,10.0312v71c0,5.5111 4.5202,10.0312 10.0312,10.0312h72c5.5111,0 10.0312-4.5202 10.0312-10.0312v-71c0-5.5111-4.5202-10.0312-10.0312-10.0312h-72z" transform="scale(1 -1)"/>
<path opacity=".1" fill="url(#linearGradient3780)" d="m12-94.0312c-4.9716,0-9.0312,4.0596-9.0312,9.0312v71c0,4.9716 4.0596,9.0312 9.0312,9.0312h72c4.9716,0 9.0312-4.0596 9.0312-9.0312v-71c0-4.9716-4.0596-9.0312-9.0312-9.0312h-72z" transform="scale(1 -1)"/>
<path opacity=".2" fill="url(#linearGradient3780)" d="m12-93c-4.4091,0-8,3.5909-8,8v71c0,4.4091 3.5909,8 8,8h72c4.4091,0 8-3.5909 8-8v-71c0-4.4091-3.5909-8-8-8h-72z" transform="scale(1 -1)"/>
<path opacity=".3" fill="url(#linearGradient3780)" d="m12-92h72a7,7 0 0,1 7,7v71a7,7 0 0,1 -7,7h-72a7,7 0 0,1 -7-7v-71a7,7 0 0,1 7-7" transform="scale(1 -1)"/>
<path opacity=".45" fill="url(#linearGradient3721)" d="m12-91h72a6,6 0 0,1 6,6v72a6,6 0 0,1 -6,6h-72a6,6 0 0,1 -6-6v-72a6,6 0 0,1 6-6" transform="scale(1 -1)"/>
<path fill="url(#linearGradient3617)" d="m12,6h72a6,6 0 0,1 6,6v72a6,6 0 0,1 -6,6h-72a6,6 0 0,1 -6-6v-72a6,6 0 0,1 6-6"/>
<path opacity=".3" fill="url(#linearGradient3188)" d="m12,6c-3.324,0-6,2.676-6,6v2 68 2c0,.3347 .0413,.6507 .0938,.9688 .0487,.2956 .097,.5969 .1875,.875 .0099,.0304 .0209,.0636 .0312,.0938 .0989,.2878 .2349,.5475 .375,.8125 .1446,.2735 .3156,.5356 .5,.7812 .1844,.2456 .3738,.4735 .5938,.6875 .4399,.4281 .9429,.8145 1.5,1.0938 .2785,.1396 .5735,.2469 .875,.3438-.2562-.1002-.4867-.2363-.7188-.375-.0074-.0044-.0239,.0045-.0312,0-.0319-.0193-.0623-.0425-.0938-.0625-.1204-.0767-.231-.1635-.3438-.25-.1062-.0808-.2133-.1611-.3125-.25-.1779-.1614-.3475-.3454-.5-.5312-.1076-.1303-.2184-.2653-.3125-.4062-.0251-.0384-.0384-.0859-.0625-.125-.0648-.103-.1302-.2045-.1875-.3125-.101-.1947-.2057-.4157-.2812-.625-.008-.0218-.0236-.0405-.0312-.0625-.0318-.0919-.0358-.1868-.0625-.2812-.0303-.1066-.0704-.203-.0938-.3125-.0729-.3415-.125-.6982-.125-1.0625v-2-68-2c0-2.7818 2.2182-5 5-5h2 68 2c2.7818,0 5,2.2182 5,5v2 68 2c0,.3643-.0521,.721-.125,1.0625-.0442,.2069-.0884,.3977-.1562,.5938-.0077,.022-.0233,.0407-.0312,.0625-.0627,.1737-.1384,.3674-.2188,.5312-.0416,.0828-.079,.17-.125,.25-.0546,.0972-.1268,.1883-.1875,.2812-.0941,.141-.2049,.276-.3125,.4062-.1432,.1744-.3031,.347-.4688,.5-.0112,.0102-.02,.0212-.0312,.0312-.1384,.1256-.2851,.2344-.4375,.3438-.1026,.0731-.2043,.1534-.3125,.2188-.0074,.0045-.0238-.0044-.0312,0-.232,.1387-.4625,.2748-.7188,.375 .3015-.0968 .5965-.2041 .875-.3438 .5571-.2792 1.0601-.6657 1.5-1.0938 .22-.214 .4094-.4419 .5938-.6875 .1844-.2456 .3554-.5077 .5-.7812 .1401-.265 .2761-.5247 .375-.8125 .0104-.0308 .0213-.0627 .0312-.0938 .0905-.2781 .1388-.5794 .1875-.875 .0524-.318 .0938-.634 .0938-.9688v-2-68-2c0-3.324-2.676-6-6-6h-72z"/>
<path opacity=".2" fill="url(#radialGradient3619)" d="m12,90c-3.324,0-6-2.676-6-6v-2-68-2c0-.3347 .0413-.6507 .0938-.9688 .0487-.2956 .097-.5969 .1875-.875 .0099-.0304 .0209-.0636 .0312-.0938 .0989-.2878 .2349-.5475 .375-.8125 .1446-.2735 .3156-.5356 .5-.7812 .1844-.2456 .3738-.4735 .5938-.6875 .4399-.4281 .9429-.8145 1.5-1.0938 .2785-.1396 .5735-.2469 .875-.3438-.2562,.1002-.4867,.2363-.7188,.375-.0074,.0044-.0239-.0045-.0312,0-.0319,.0193-.0623,.0425-.0938,.0625-.1204,.0767-.231,.1635-.3438,.25-.1062,.0808-.2133,.1611-.3125,.25-.1779,.1614-.3475,.3454-.5,.5312-.1076,.1303-.2184,.2653-.3125,.4062-.0251,.0384-.0384,.0859-.0625,.125-.0648,.103-.1302,.2045-.1875,.3125-.101,.1947-.2057,.4157-.2812,.625-.008,.0218-.0236,.0405-.0312,.0625-.0318,.092-.0358,.1868-.0625,.2812-.0303,.1066-.0704,.203-.0938,.3125-.0729,.3415-.125,.6982-.125,1.0625v2 68 2c0,2.7818 2.2182,5 5,5h2 68 2c2.7818,0 5-2.2182 5-5v-2-68-2c0-.3643-.0521-.721-.125-1.0625-.0442-.2069-.0884-.3977-.1562-.5938-.0077-.022-.0233-.0407-.0312-.0625-.0627-.1737-.1384-.3674-.2188-.5312-.0416-.0828-.079-.17-.125-.25-.0546-.0972-.1268-.1883-.1875-.2812-.0941-.141-.2049-.276-.3125-.4062-.1432-.1745-.3031-.347-.4688-.5-.0112-.0102-.02-.0211-.0312-.0312-.1384-.1256-.2851-.2344-.4375-.3438-.1026-.0732-.2043-.1534-.3125-.2188-.0074-.0045-.0238,.0044-.0312,0-.232-.1387-.4625-.2748-.7188-.375 .3015,.0968 .5965,.2041 .875,.3438 .5571,.2792 1.0601,.6657 1.5,1.0938 .22,.214 .4094,.4419 .5938,.6875 .1844,.2456 .3554,.5077 .5,.7812 .1401,.265 .2761,.5247 .375,.8125 .0104,.0308 .0213,.0627 .0312,.0938 .0905,.2781 .1388,.5794 .1875,.875 .0524,.318 .0938,.634 .0938,.9688v2 68 2c0,3.324-2.676,6-6,6h-72z"/>
<path opacity=".1" fill="url(#linearGradient3613)" filter="url(#filter3794)" stroke="#fff" stroke-linecap="round" stroke-width=".5" d="m27,15h42a12,12 0 0,1 12,12v42a12,12 0 0,1 -12,12h-42a12,12 0 0,1 -12-12v-42a12,12 0 0,1 12-12" clip-path="url(#clipPath3613)"/>
<path opacity=".1" d="m48,12.9375c-6.6157,0-13.2,1.2955-17.875,6.75-4.669,5.4475-7.1875,14.4975-7.1875,29.3125 0,14.815 2.5185,23.865 7.1875,29.3125 4.675,5.4545 11.2593,6.75 17.875,6.75 6.6157,0 13.2-1.2955 17.875-6.75 4.669-5.4475 7.1875-14.4975 7.1875-29.3125 0-14.815-2.5185-23.865-7.1875-29.3125-4.675-5.4545-11.2593-6.75-17.875-6.75z"/>
<path opacity=".2" d="m48,14.0625c-6.4695,0-12.6059,1.2482-17,6.375-4.3941,5.1268-6.9375,13.8788-6.9375,28.5625 0,14.6837 2.5434,23.4357 6.9375,28.5625 4.3941,5.1268 10.5305,6.375 17,6.375 6.4695,0 12.6059-1.2482 17-6.375 4.3941-5.1268 6.9375-13.8788 6.9375-28.5625 0-14.6837-2.5434-23.4357-6.9375-28.5625-4.3941-5.1268-10.5305-6.375-17-6.375z"/>
<path opacity=".4" d="m71,49c0,29.1429-10.304,34-23,34-12.696,0-23-4.8571-23-34 0-29.1429 10.304-34 23-34 12.696,0 23,4.8571 23,34z"/>
<path fill="url(#radialGradient3683)" d="m71,48c0,29.1429-10.304,34-23,34-12.696,0-23-4.8571-23-34 0-29.1429 10.304-34 23-34 12.696,0 23,4.8571 23,34z"/>
<path opacity=".871" fill="#103876" d="m48,14c-12.696,0-23,4.8571-23,34 0,29.1429 10.304,34 23,34 12.696,0 23-4.8571 23-34 0-29.1429-10.304-34-23-34zm0,1.4688c6.159,0 11.3213,1.1246 15.125,5.5625 3.8037,4.4379 6.4062,12.572 6.4062,26.9688 0,14.3968-2.6026,22.5308-6.4062,26.9688-3.8037,4.4379-8.966,5.5625-15.125,5.5625-6.159,0-11.3213-1.1246-15.125-5.5625-3.8037-4.4379-6.4062-12.572-6.4062-26.9688 0-14.3968 2.6026-22.5308 6.4062-26.9688 3.8037-4.4379 8.966-5.5625 15.125-5.5625z"/>
<path opacity=".2" fill="url(#linearGradient2943)" d="m48.003,82c12.696,0 22.997-4.8571 22.997-34 0-11.8393-1.7-19.6659-4.5701-24.7917 2.0473,5.0512 3.2284,12.1109 3.2284,21.9583 0,29.1429-10.301,34-22.997,34-7.5383,0-14.2323-1.7169-18.427-9.2083 4.0115,9.8976 11.3626,12.0417 19.7686,12.0417z"/>
<path fill="url(#linearGradient3839)" d="m12-94h72a6,6 0 0,1 6,6v72a6,6 0 0,1 -6,6h-72a6,6 0 0,1 -6-6v-72a6,6 0 0,1 6-6"/>
<path fill="url(#linearGradient3725)" fill-rule="evenodd" d="m46.1395,21 0,21.6-9.121-9.121-3.2672,3.3126 11.163,11.163-11.2538,11.2538 3.3126,3.2672 9.1664-9.1664 0,21.6908l16.2-16.2-10.9815-10.9815 10.9361-10.8908-16.1546-15.9277zm4.2202,10.3462 5.5815,5.6723-5.5815,5.5815 0-11.2538zm0,21.5546 5.5815,5.7176-5.5815,5.5815 0-11.2992z"/>
<path opacity=".9" fill="url(#linearGradient3703)" d="m52.7805,24.5317a17.6777,17.6777 0 1,1 -35.3553,0 17.6777,17.6777 0 1,1 35.3553,0z" transform="matrix(1.05714 0 0 1 11.12611 9.50979)"/>
<path opacity=".25" fill="#fff" d="m27.5,47c-.003,.3366 0,.656 0,1 0,14.2762 2.6008,22.1642 6.1562,26.3125 3.5554,4.1483 8.3152,5.1875 14.3438,5.1875 6.0285,0 10.7883-1.0392 14.3438-5.1875 3.5554-4.1483 6.1562-12.0363 6.1562-26.3125 0-.344 .003-.6634 0-1-.1214,13.6333-2.6865,21.2642-6.1562,25.3125-3.5555,4.1483-8.3153,5.1875-14.3438,5.1875-6.0285,0-10.7883-1.0392-14.3438-5.1875-3.4698-4.0483-6.0349-11.6792-6.1562-25.3125z"/>
</svg>
