<svg xmlns="http://www.w3.org/2000/svg" viewBox="0 0 96 96" xmlns:xlink="http://www.w3.org/1999/xlink">
<defs>
<clipPath id="clipPath3733">
<path fill="#fff" d="m16.3991,11.328h62.6967a6,6 0 0,1 6,6v61.389a6,6 0 0,1 -6,6h-62.6967a6,6 0 0,1 -6-6v-61.389a6,6 0 0,1 6-6"/>
</clipPath>
<clipPath id="clipPath2521">
<path fill="#fff" d="m-8.3235-17.0957h112.4465a9.3705,9.3705 0 0,1 9.37,9.3705v112.4462a9.3705,9.3705 0 0,1 -9.37,9.371h-112.4465a9.3705,9.3705 0 0,1 -9.3705-9.371v-112.4462a9.3705,9.3705 0 0,1 9.3705-9.3705"/>
</clipPath>
<linearGradient gradientTransform="matrix(1.07775 0 0 1.07775 -5.38529 -3.70776)" id="linearGradient4567" xlink:href="#linearGradient4341" y1="22.625" x1="56.27" y2="23.509" x2="53.392" gradientUnits="userSpaceOnUse"/>
<linearGradient gradientTransform="matrix(.76208 .76208 -.76208 .76208 48.27242 -29.56713)" id="linearGradient4560" xlink:href="#linearGradient4321" x1="48.917" x2="97.732" gradientUnits="userSpaceOnUse"/>
<linearGradient gradientTransform="matrix(.76208 .76208 -.76208 .76208 48.27242 -29.56713)" id="linearGradient4556" xlink:href="#linearGradient4341" y1="22.625" x1="56.27" y2="23.509" x2="53.392" gradientUnits="userSpaceOnUse"/>
<linearGradient gradientTransform="matrix(-.76208 .76208 -.76208 -.76208 123.30024 45.94078)" id="linearGradient4546" xlink:href="#linearGradient4321" x1="48.917" x2="97.732" gradientUnits="userSpaceOnUse"/>
<linearGradient gradientTransform="matrix(0 1.07775 -1.07775 0 101.3184 -7.34401)" id="linearGradient4553" xlink:href="#linearGradient4321" x1="48.917" x2="97.732" gradientUnits="userSpaceOnUse"/>
<linearGradient gradientTransform="matrix(1.02381 0 0 1.0119 -1.14286 -98.07143)" id="linearGradient3725" xlink:href="#ButtonShadow-0" y1="6.132" y2="90.239" x2="0" gradientUnits="userSpaceOnUse"/>
<linearGradient gradientTransform="matrix(1.07775 0 0 1.07775 -5.38529 -3.70776)" id="linearGradient4571" xlink:href="#linearGradient4321" x1="48.917" x2="97.732" gradientUnits="userSpaceOnUse"/>
<linearGradient id="linearGradient3255" xlink:href="#linearGradient3257" y1="90" y2="5.988" x2="0" gradientUnits="userSpaceOnUse"/>
<linearGradient gradientTransform="matrix(1.00587 0 0 .99417 100 0)" id="ButtonShadow-0" y1="92.54" y2="7.017" x2="0" gradientUnits="userSpaceOnUse">
<stop offset="0"/>
<stop offset="1" stop-opacity=".588"/>
</linearGradient>
<linearGradient gradientTransform="translate(0 -97)" id="linearGradient3721" xlink:href="#ButtonShadow-0" y1="6.132" y2="90.239" x2="0" gradientUnits="userSpaceOnUse"/>
<linearGradient gradientTransform="matrix(-.76208 .76208 -.76208 -.76208 123.30024 45.94078)" id="linearGradient4542" xlink:href="#linearGradient4341" y1="22.625" x1="56.27" y2="23.509" x2="53.392" gradientUnits="userSpaceOnUse"/>
<linearGradient id="linearGradient3301" xlink:href="#linearGradient3268" x1="10.48" x2="81.065" gradientUnits="userSpaceOnUse"/>
<linearGradient id="linearGradient3310" xlink:href="#linearGradient3304" y1="47.406" y2="7.792" x2="0" gradientUnits="userSpaceOnUse"/>
<linearGradient id="linearGradient3294" xlink:href="#linearGradient3287" y1="21.754" y2="52.816" x2="0" gradientUnits="userSpaceOnUse"/>
<linearGradient id="linearGradient3432" xlink:href="#linearGradient3260" x1="14.647" x2="84.095" gradientUnits="userSpaceOnUse"/>
<linearGradient gradientTransform="matrix(0 1.07775 -1.07775 0 101.3184 -7.34401)" id="linearGradient4549" xlink:href="#linearGradient4341" y1="22.625" x1="56.27" y2="23.509" x2="53.392" gradientUnits="userSpaceOnUse"/>
<linearGradient gradientTransform="matrix(-1.07775 0 0 -1.07775 102.59234 101.76469)" id="linearGradient4539" xlink:href="#linearGradient4321" x1="48.917" x2="97.732" gradientUnits="userSpaceOnUse"/>
<linearGradient id="linearGradient4341">
<stop offset="0"/>
<stop offset="1" stop-opacity="0"/>
</linearGradient>
<linearGradient id="linearGradient3737">
<stop offset="0" stop-color="#fff"/>
<stop offset="1" stop-color="#fff" stop-opacity="0"/>
</linearGradient>
<linearGradient id="linearGradient3257">
<stop offset="0" stop-color="#aaa"/>
<stop offset="1" stop-color="#d2d2d2"/>
</linearGradient>
<linearGradient id="linearGradient3268">
<stop offset="0" stop-color="#e4e4e4"/>
<stop offset="1" stop-color="#7a7a7a"/>
</linearGradient>
<linearGradient id="linearGradient3304">
<stop offset="0" stop-color="#d42aff"/>
<stop offset="1" stop-color="#d42aff" stop-opacity="0"/>
</linearGradient>
<linearGradient id="linearGradient3260">
<stop offset="0"/>
<stop offset="1" stop-opacity="0"/>
</linearGradient>
<linearGradient id="linearGradient3287">
<stop offset="0" stop-color="#71c837"/>
<stop offset="1" stop-color="#71c837" stop-opacity="0"/>
</linearGradient>
<linearGradient id="linearGradient4321">
<stop offset="0" stop-color="#959595"/>
<stop offset="1" stop-color="#5d5d5d"/>
</linearGradient>
<linearGradient gradientTransform="matrix(0 -1.07775 1.07775 0 -6.76889 100.51326)" id="linearGradient4521" xlink:href="#linearGradient4341" y1="22.625" x1="56.27" y2="23.509" x2="53.392" gradientUnits="userSpaceOnUse"/>
<linearGradient gradientTransform="matrix(-.76208 -.76208 .76208 -.76208 48.2974 122.98892)" id="linearGradient4528" xlink:href="#linearGradient4341" y1="22.625" x1="56.27" y2="23.509" x2="53.392" gradientUnits="userSpaceOnUse"/>
<linearGradient gradientTransform="matrix(-1.07775 0 0 -1.07775 102.59234 101.76469)" id="linearGradient4535" xlink:href="#linearGradient4341" y1="22.625" x1="56.27" y2="23.509" x2="53.392" gradientUnits="userSpaceOnUse"/>
<linearGradient gradientTransform="matrix(-.76208 -.76208 .76208 -.76208 48.2974 122.98892)" id="linearGradient4532" xlink:href="#linearGradient4321" x1="48.917" x2="97.732" gradientUnits="userSpaceOnUse"/>
<linearGradient gradientTransform="matrix(0 -1.07775 1.07775 0 -6.76889 100.51326)" id="linearGradient4525" xlink:href="#linearGradient4321" x1="48.917" x2="97.732" gradientUnits="userSpaceOnUse"/>
<linearGradient gradientTransform="matrix(.76208 -.76208 .76208 .76208 -27.99312 47.22847)" id="linearGradient4518" xlink:href="#linearGradient4321" x1="48.917" x2="97.732" gradientUnits="userSpaceOnUse"/>
<linearGradient id="linearGradient3188" xlink:href="#linearGradient3737" y1="6" y2="63.893" x2="0" gradientUnits="userSpaceOnUse"/>
<linearGradient gradientTransform="matrix(.76208 -.76208 .76208 .76208 -27.99312 47.22847)" id="linearGradient4514" xlink:href="#linearGradient4341" y1="22.625" x1="56.27" y2="23.509" x2="53.392" gradientUnits="userSpaceOnUse"/>
<radialGradient cx="48" cy="90.172" gradientTransform="matrix(1.15731 0 0 .99591 -7.55102 .19713)" r="42" id="radialGradient2874" gradientUnits="userSpaceOnUse">
<stop offset="0" stop-color="#fff"/>
<stop offset="1" stop-color="#fff" stop-opacity="0"/>
</radialGradient>
<radialGradient cx="48.453" cy="55.809" gradientTransform="matrix(.39612 -1.50084 1.57918 .4168 -60.15484 95.67854)" r="18.109" id="radialGradient3430" gradientUnits="userSpaceOnUse">
<stop offset="0" stop-color="#fff" stop-opacity="0"/>
<stop offset=".656" stop-color="#fff" stop-opacity="0"/>
<stop offset="1" stop-color="#fff"/>
</radialGradient>
<radialGradient cx="48" cy="48" gradientTransform="matrix(.8106 0 0 .80759 9.09137 9.23568)" r="42" id="radialGradient3287" gradientUnits="userSpaceOnUse">
<stop offset="0" stop-opacity="0"/>
<stop offset=".534" stop-opacity="0"/>
<stop offset=".884" stop-opacity=".504"/>
<stop offset="1" stop-opacity=".862"/>
</radialGradient>
<radialGradient cx="62.717" cy="76.335" gradientTransform="matrix(1.14927 -.66353 .7167 1.24136 -64.07097 19.19584)" r="27.757" id="radialGradient3301" gradientUnits="userSpaceOnUse">
<stop offset="0" stop-color="#f1b9ff"/>
<stop offset="1" stop-color="#fff" stop-opacity="0"/>
</radialGradient>
</defs>
<path opacity=".08" fill="url(#linearGradient3725)" d="m12-95.0312c-5.5111,0-10.0312,4.5202-10.0312,10.0312v71c0,5.5111 4.5202,10.0312 10.0312,10.0312h72c5.5111,0 10.0312-4.5202 10.0312-10.0312v-71c0-5.5111-4.5202-10.0312-10.0312-10.0312h-72z" transform="scale(1 -1)"/>
<path opacity=".1" fill="url(#linearGradient3725)" d="m12-94.0312c-4.9716,0-9.0312,4.0596-9.0312,9.0312v71c0,4.9716 4.0596,9.0312 9.0312,9.0312h72c4.9716,0 9.0312-4.0596 9.0312-9.0312v-71c0-4.9716-4.0596-9.0312-9.0312-9.0312h-72z" transform="scale(1 -1)"/>
<path opacity=".2" fill="url(#linearGradient3725)" d="m12-93c-4.4091,0-8,3.5909-8,8v71c0,4.4091 3.5909,8 8,8h72c4.4091,0 8-3.5909 8-8v-71c0-4.4091-3.5909-8-8-8h-72z" transform="scale(1 -1)"/>
<path opacity=".3" fill="url(#linearGradient3725)" d="m12-92h72a7,7 0 0,1 7,7v71a7,7 0 0,1 -7,7h-72a7,7 0 0,1 -7-7v-71a7,7 0 0,1 7-7" transform="scale(1 -1)"/>
<path opacity=".45" fill="url(#linearGradient3721)" d="m12-91h72a6,6 0 0,1 6,6v72a6,6 0 0,1 -6,6h-72a6,6 0 0,1 -6-6v-72a6,6 0 0,1 6-6" transform="scale(1 -1)"/>
<path fill="#333" d="m64,48a16,16 0 1,1 -32,0 16,16 0 1,1 32,0z"/>
<g fill-rule="evenodd" clip-path="url(#clipPath2521)" transform="matrix(.58883 0 0 .58883 19.08238 20.05409)">
<path fill="url(#linearGradient4571)" d="m63.7464,52.9423-18.2316-65.7996 54.4305,4.549 0,60.1619-36.1989,1.0887z"/>
<path opacity=".4" fill="#fff" d="m45.8794-13.7048 17.8794,66.6461 1.5326-.6402-17.8794-66.6124-1.5326,.6065z"/>
<path fill="url(#linearGradient4560)" d="m57.0983,59.3739 31.7056-54.9158 37.2015,37.2015-42.5409,42.5409-26.3663-24.8266z"/>
<path opacity=".4" fill="#fff" d="m88.8056,4.4407-31.6978,54.9413 1.6957,.5384 31.674-54.9175-1.6719-.5623z"/>
<path opacity=".6" fill="url(#linearGradient4556)" d="m85.3024,1.0891-31.2429,55.2446 3.1198,2.9293 31.6264-54.8222-3.5032-3.3516z"/>
<path fill="url(#linearGradient4553)" d="m44.6684,61.7876 61.2506-16.4121v52.6109h-60.1619l-1.0887-36.1989z"/>
<path opacity=".4" fill="#fff" d="m105.9325,45.3645-61.2631,16.4356 .0337,1.8359 61.2294-16.4356 0-1.8359z"/>
<path opacity=".6" fill="url(#linearGradient4549)" d="m105.9325,41.0535-61.2631,16.4356 .1347,4.2773 61.1284-16.4019 0-4.311z"/>
<path fill="url(#linearGradient4546)" d="m34.3592,54.7666 54.9158,31.7056-37.2015,37.2015-42.5409-42.5409 24.8266-26.3663z"/>
<path opacity=".4" fill="#fff" d="m89.2924,86.474-54.9413-31.6978-1.0976,1.3924 54.9175,31.674 1.1214-1.3686z"/>
<path opacity=".6" fill="url(#linearGradient4542)" d="m92.3407,83.4256-54.9413-31.6978l-2.9293,3.1198 54.8222,31.6264 3.0483-3.0483z"/>
<path fill="url(#linearGradient4539)" d="m33.4607,45.1147 16.4121,61.2506-52.6109,0 0-60.1619 36.1989-1.0887z"/>
<path opacity=".4" fill="#fff" d="m49.8838,106.3788-16.4356-61.2631-1.6843,.4886 16.4356,61.2294 1.6843-.4549z"/>
<path opacity=".6" fill="url(#linearGradient4535)" d="m54.1948,106.3788-16.4356-61.2631-4.2773,.1347 16.4019,61.1284 4.311,0z"/>
<path fill="url(#linearGradient4532)" d="m39.4715,34.0478-31.7056,54.9158-37.2015-37.2015 42.5409-42.5409 26.3663,24.8266z"/>
<path opacity=".4" fill="#fff" d="m7.7642,88.981 31.6978-54.9413-1.3924-1.1932-31.674,54.9175 1.3686,1.217z"/>
<path opacity=".6" fill="url(#linearGradient4528)" d="m10.8125,92.0294 31.6978-54.9413-3.1198-2.9292-31.6264,54.8222 3.0483,3.0483z"/>
<path fill="url(#linearGradient4525)" d="m-11.375-4.8125 0,52.5938 61.25-16.4062-1.0312-34.0938-.5625-2.0938-59.6562,0z"/>
<path opacity=".4" fill="#fff" d="m-11.383,47.8048 61.2631-16.4356-.4886-1.6843-61.2294,16.4356 .4549,1.6843z"/>
<path opacity=".6" fill="url(#linearGradient4521)" d="m-11.383,52.1157 61.2631-16.4356-.1347-4.2773-61.1284,16.4019 0,4.311z"/>
<path fill="url(#linearGradient4518)" d="m43.2188-30.5-37.1875,37.1875 53.625,30.9688-13.2775-49.2926 18.0938,0l-21.2538-18.8637z"/>
<path opacity=".4" fill="#fff" d="m6.6532,5.1793-.6532,1.5082 53.6562,30.9688-.503-2.2269-52.5-30.25z"/>
<path opacity=".6" fill="url(#linearGradient4514)" d="m6,6.6875-3.0312,3.0625 54.9375,31.6875 2.1562-2.2812-.4062-1.5312-53.6562-30.9375z"/>
<path opacity=".6" fill="url(#linearGradient4567)" d="m41.6353-13.5438 17.8022,66.4813l1.4062-.0312 1.9688-3.4375-16.8647-63.0126h-4.3125z"/>
</g>
<path fill="url(#radialGradient3287)" d="m12,6h72a6,6 0 0,1 6,6v72a6,6 0 0,1 -6,6h-72a6,6 0 0,1 -6-6v-72a6,6 0 0,1 6-6" clip-path="url(#clipPath3733)"/>
<path opacity=".936" fill="url(#linearGradient3432)" d="m84.0952,47.2601a34.724,34.3452 0 1,1 -69.448,0 34.724,34.3452 0 1,1 69.448,0z" transform="matrix(0 -1.03675 1.04818 0 -1.53722 99.18545)"/>
<path opacity=".6" fill="url(#radialGradient3301)" d="m21.9241,61.6477c.1896,.3622 .376,.7138 .5823,1.0711 8.1238,14.0708 26.1416,18.8987 40.2124,10.7749 14.0708-8.1238 18.8987-26.1416 10.7749-40.2124-.2063-.3573-.4176-.6945-.6364-1.0398 7.0893,13.8567 2.1177,31.0007-11.5134,38.8706-13.6311,7.8699-30.9641,3.6035-39.4197-9.4644z"/>
<path opacity=".2" fill="url(#linearGradient3294)" d="m75.0038,31.0977a27.1478,16.1624 0 1,1 -54.2957,0 27.1478,16.1624 0 1,1 54.2957,0z" transform="matrix(1.31628 0 0 1.31628 -15.13584 -9.83555)"/>
<path opacity=".4" fill="url(#linearGradient3294)" d="m75.0038,31.0977a27.1478,16.1624 0 1,1 -54.2957,0 27.1478,16.1624 0 1,1 54.2957,0z" transform="matrix(.74884 0 0 .74884 12.01964 5.53774)"/>
<path opacity=".2" fill="url(#linearGradient3310)" d="m75.0038,31.0977a27.1478,16.1624 0 1,1 -54.2957,0 27.1478,16.1624 0 1,1 54.2957,0z" transform="matrix(.56134 0 0 .56134 20.99263 51.26959)"/>
<g stroke-linecap="square">
<g fill="#e064ff" stroke="#e67cff" fill-opacity=".376">
<path opacity=".4" stroke-width="1.125" d="m40.3571,62.875a4.0179,4.0179 0 1,1 -8.0357,0 4.0179,4.0179 0 1,1 8.0357,0z" transform="matrix(.88889 0 0 .88889 29.59127 5.96826)"/>
<path opacity=".3" stroke-width="2.045" d="m40.3571,62.875a4.0179,4.0179 0 1,1 -8.0357,0 4.0179,4.0179 0 1,1 8.0357,0z" transform="matrix(.48889 0 0 .48889 37.69841 25.26112)"/>
</g>
<path opacity=".4" fill="#b1e88b" stroke="#8de951" fill-opacity=".5" stroke-width="1.324" d="m40.3571,62.875a4.0179,4.0179 0 1,1 -8.0357,0 4.0179,4.0179 0 1,1 8.0357,0z" transform="matrix(.75556 0 0 .75556 32.11508 -19.04126)"/>
</g>
<path fill="url(#radialGradient3430)" d="m18.3992,39.3852c-.5992,2.3638-.9247,4.8355-.9152,7.386l11.4538-.0474c-.0045-1.5482 .148-3.1323 .5617-4.6998 .2537-.9611 .5614-1.875 .9532-2.7542l-10.3608-4.7061c-.6939,1.544-1.2693,3.1512-1.6927,4.8214zm3.9989-9.0284 9.4912,6.2865c.9544-1.4415 2.1016-2.7295 3.4003-3.8213 .6493-.5459 1.3261-1.0476 2.0434-1.4968 .7173-.4492 1.4784-.8369 2.2515-1.1834l-.0222-.0382c.9848-.4382 2.0055-.7774 3.0531-1.0364l-.008,.0302c.3549-.0892 .7039-.1677 1.0643-.2362 1.0812-.2057 2.1947-.3172 3.3166-.3205l-.0473-11.4538c-1.6794,.0063-3.3275,.1651-4.9327,.4434l-.0222-.0382c-.2334,.0409-.4522,.0962-.6841,.1427-.6092,.1221-1.1965,.2714-1.7945,.4313-1.6785,.449-3.3197,1.0189-4.8891,1.7477-.9176,.4268-1.8081,.9119-2.6716,1.428-.1134,.0678-.2313,.1309-.3437,.2002-.1943,.1189-.3893,.2405-.5808,.3638-.1055,.0684-.209,.1384-.3135,.2081-.4077,.2698-.7996,.5587-1.1936,.8485-.054,.0397-.107,.0791-.1607,.1192-.1908,.1434-.3794,.2844-.5666,.4322-.3452,.2709-.6936,.5416-1.0265,.8279-.1028,.0889-.1977,.1863-.2992,.2765-1.9296,1.7153-3.6348,3.6796-5.0639,5.8385z"/>
<path fill="url(#linearGradient3255)" d="m12,6c-3.324,0-6,2.676-6,6v72c0,3.324 2.676,6 6,6h72c3.324,0 6-2.676 6-6v-72c0-3.324-2.676-6-6-6h-72zm36,7c19.32,0 35,15.68 35,35 0,19.32-15.68,35-35,35-19.32,0-35-15.68-35-35 0-19.32 15.68-35 35-35z"/>
<g fill="#666" line-height="120.00000477%">
<path d="m126.5753,16.6915 1.2083-.7276-.5022-.834-.6629,.3992-.338-.5614 .6629-.3992-.8467-1.4061 .5507-.3316 2.025,3.3628-1.7589,1.0592-.338-.5614m-1.435-1.1358 .9537-.6284 .364,.5524-.9537,.6284-.364-.5524m-1.0932,3.0146 .9405-.7014c.2368-.1766 .2594-.3933 .0679-.6501-.2048-.2677-.4002-.3347-.5861-.2013l-.3202,.2388c-.5403,.4029-1.0243,.3176-1.4522-.256l-.0821-.1101c-.4328-.5803-.334-1.1055 .2963-1.5756l.9755-.7276 .3918,.5253-1.0656,.7947c-.2301,.1716-.2532,.3808-.0691,.6276l.0112,.015c.2015,.2701 .4006,.3318 .5974,.1851l.3452-.2574c.5161-.3797 .9955-.2728 1.4383,.3209l.0858,.1151c.4154,.557 .3096,1.0692-.3174,1.5369l-.8654,.6455-.3918-.5253m-.877,.7068-.7754-.8971-.5571,.4816c-.1763,.1524-.1773,.3293-.003,.5307l.2693,.3116c.1632,.1889 .333,.2071 .5093,.0548l.5571-.4816m-1.2039-1.3928-.9346-1.0812 .4816-.4163 2.5669,2.9698-1.0482,.906c-.4965,.4181-.9637,.3738-1.4018-.133l-.2653-.3069c-.468-.5414-.4564-1.0243 .0346-1.4487l.5666-.4897m-1.7071,3.8771c.0823,.0825 .172,.0752 .2692-.0218l.5434-.5422c.0913-.0911 .0958-.1779 .0135-.2603l-1.5648-1.5684c-.0558-.056-.1102-.084-.1632-.084-.0529-.0001-.0956,.0161-.128,.0484l-.592,.5906c-.0324,.0323-.0413,.0735-.0266,.1235 .0117,.053 .0396,.1015 .0837,.1457l1.5648,1.5684m-2.108-1.2115c-.3526-.3593-.3596-.7079-.0209-1.0459l.7024-.7008c.3417-.3409 .6844-.339 1.0282,.0056l1.7543,1.7583c.3379,.3387 .3478,.6667 .0298,.9841l-.7422,.7405c-.3387,.3379-.677,.3375-1.015-.0012l-1.7367-1.7407m.311,3.4923 .526-.6012-2.4753-2.1656 .4192-.4791 2.4753,2.1656 .4808-.5495 .4932,.4315-1.4259,1.6298-.4932-.4315"/>
<path d="m160.7422,86.8589-1.1775,.3535c-.5618,.1687-.9349-.0538-1.1191-.6674l-.5169-1.7214c-.181-.5885 .0438-.9753 .6746-1.1604l1.0819-.3248 .1166,.3885-1.2014,.3607c-.3028,.0909-.4076,.2918-.3143,.6026l.5384,1.7931c.0969,.3228 .2808,.4435 .5518,.3621l.8727-.262-.3553-1.1835-.7651,.2297-.1184-.3945 1.1416-.3428 .5904,1.9665m2.3365-.8547-.357,.1321-.6279-1.6974c-.1082-.2927-.3009-.3877-.5779-.2853l-.4097,.1516c-.3122,.1155-.4055,.343-.2799,.6824l.6019,1.6272-.3629,.1342-.931-2.5169 .3629-.1342 .1126,.3044c.0132-.24 .1455-.4042 .3966-.4927l.4683-.1732c.4487-.166 .7669,.0047 .9546,.5119l.6495,1.7559m2.0679-1.8274c.225,.5147 .1114,.8728-.3408,1.0745l-.5985,.2669c-.4521,.2017-.7926,.046-1.0214-.4669l-.4144-.929c-.2237-.5016-.1095-.8532 .3427-1.0549l.5985-.2669c.4522-.2017 .792-.0526 1.0195,.4473l.4144,.929m-.3915,.0721-.3356-.7523c-.1407-.3154-.3459-.4129-.6157-.2926l-.4446,.1983c-.266,.1186-.3305,.3365-.1937,.6536l.3356,.7523c.1403,.3247 .3472,.426 .6207,.304l.4446-.1983c.2698-.1203 .3326-.342 .1886-.665m4.4635-1.3016-.3386,.1872-.8395-1.5183c-.1752-.3168-.392-.4037-.6505-.2607l-.3168,.1752c-.2986,.1651-.3538,.4048-.1657,.7192l.8365,1.5128-.3386,.1872-.8577-1.551c-.1631-.2949-.3757-.3699-.6378-.2249l-.2785,.154c-.2986,.1651-.357,.4161-.1755,.7531l.8244,1.491-.3386,.1872-1.2986-2.3484 .3386-.1872 .1782,.3222c-.046-.2551 .0585-.4531 .3134-.594l.3878-.2144c.2949-.1631 .524-.14 .6873,.0693-.0504-.2717 .061-.483 .334-.634l.426-.2356c.4078-.2255 .7546-.0797 1.0405,.4373l.8697,1.5729m1.4835-2.3851-1.4004,.9371 .1753,.2732c.1539,.2224 .3328,.2654 .5368,.1289l1.0165-.6803 .2291,.3423-1.0114,.6768c-.4241,.2788-.7814,.1975-1.0719-.2439l-.6022-.8886c-.3008-.4495-.2328-.8229 .204-1.1202l.4651-.3037c.4011-.2684 .7486-.1831 1.0424,.2561l.4165,.6224m-1.626,.6 1.0943-.7324-.1857-.2662c-.147-.2271-.3172-.2758-.5109-.1462l-.4823,.3228c-.2213,.1481-.2516,.331-.0908,.5488l.1753,.2732m2.7319-1.7888 .8884,1.1194-.3031,.2405-2.2851-2.8792 .9874-.7837c.4458-.3485 .8523-.2913 1.2196,.1714l.2522,.3177c.3931,.4954 .3681,.9189-.0751,1.2707l-.6844,.5431m-1.1445-1.4421 .8923,1.1243 .6746-.5354c.2477-.1966 .2629-.4317 .0456-.7055l-.2561-.3226c-.2069-.2607-.4342-.2928-.6819-.0962l-.6746,.5354m5.1206-.0691-.2834,.2542-1.2086-1.3471c-.2084-.2323-.4225-.2498-.6424-.0525l-.3252,.2917c-.2477,.2223-.2508,.4681-.009,.7375l1.1586,1.2914-.288,.2584-2.463-2.7454 .288-.2584 .8877,.9894c-.076-.228-.0135-.4294 .1874-.6041l.3716-.3334c.3561-.3195 .7148-.278 1.076,.1246l1.2503,1.3936m1.1809-2.3929c.3982,.3961 .424,.771 .0774,1.1246l-.4587,.468c-.3466,.3536-.7204,.3338-1.1215-.0594l-.7264-.7121c-.3922-.3844-.415-.7534-.0684-1.107l.4587-.468c.3466-.3536 .7174-.3396 1.1125,.0418l.7264,.7121m-.3377,.2108-.5883-.5766c-.2466-.2417-.4733-.2571-.6801-.0462l-.3408,.3476c-.2039,.208-.184,.4343 .0597,.679l.5883,.5766c.2496,.2505 .4793,.2688 .689,.0549l.3407-.3476c.2068-.211 .1839-.4402-.0687-.6878m1.9028-.7102-.0457,.0512c-.4042,.4535-.833,.4781-1.2864,.0739l-2.0638-1.8396 .2575-.2888 .7407,.6602 .3945-.4426 .3028,.2699-.3945,.4426 1.0296,.9177c.2454,.2187 .4995,.1805 .7625-.1145l.3028,.2699m.8518-2.3647c.4339,.3567 .495,.7275 .1834,1.1122l-.4124,.5092c-.3116,.3847-.6856,.4004-1.1221,.0469l-.7905-.6402c-.4268-.3456-.4844-.7108-.1728-1.0956l.4124-.5092c.3116-.3847 .6821-.4059 1.1115-.0635l.7905,.6402m-.3163,.2418-.6402-.5185c-.2683-.2173-.4955-.2112-.6814,.0183l-.3064,.3783c-.1833,.2263-.1421,.4498 .1237,.6703l.6402,.5185c.2722,.2258 .5026,.2223 .6911-.0105l.3064-.3783c.1859-.2296 .1415-.4556-.1334-.6782m3.2078-2.9277-.2152,.3215-2.5516-1.7078 .6237,.6277 1.5461,1.6506-.243,.363-2.0877-.7966-.8371-.3425 2.5465,1.7044-.2187,.3267-3.0547-2.0446 .3263-.4875 2.7933,1.1111 .3788,.1634-.2834-.2723-2.1042-2.1744 .3263-.4875 3.0547,2.0446m1.2396-2.1469-.674,1.1746c-.2443,.4258-.5972,.5015-1.0586,.2272-.4294-.2464-.5178-.5898-.2652-1.03l.4628-.8065-.2142-.1157c-.2773-.1687-.4926-.1196-.6458,.1474l-.5405,.9418-.3518-.2019 .5428-.9333c.3043-.4969 .7104-.5901 1.2181-.2795l1.5264,.8759m-.5444,.1337-.6387-.3665-.497,.8661c-.1041,.1897-.0496,.3457 .1633,.4678 .2093,.1201 .3688,.0845 .4786-.1067l.4939-.8606m1.7374-2.5126-.1682,.3415-1.6236-.7997c-.2799-.1379-.4852-.0743-.6157,.1907l-.193,.3919c-.1471,.2986-.0582,.5278 .2665,.6878l1.5564,.7666-.171,.3471-2.4074-1.1857 .171-.3471 .2911,.1434c-.1555-.1833-.1726-.3934-.0512-.6305l.2206-.4479c.2114-.4292 .5597-.5243 1.0449-.2854l1.6796,.8273m.9664-2.2875-.5202,1.2503c-.1886,.4533-.5291,.573-1.0214,.3591-.4571-.1902-.5882-.5196-.3932-.9882l.3572-.8585-.2271-.0877c-.2964-.1323-.5038-.0564-.622,.2279l-.4171,1.0026-.3745-.1558 .4205-.9944c.2391-.5314 .6301-.6751 1.173-.4312l1.6249,.6761m-.5232,.2014-.6799-.2829-.3836,.9219c-.0793,.2013-.006,.3492 .221,.4435 .2228,.0927 .3765,.0373 .4613-.1663l.3812-.9161m1.7998-.8267-.4012-.1384 .2789-.8082c.0624-.1809 .015-.2985-.1423-.3528l-.2891-.0998-.3522,1.0206c-.1329,.3723-.4012,.4931-.8051,.3626l-1.3392-.4621c-.3972-.1371-.5299-.4029-.3982-.7976l.4723-1.3687 2.8199,.9731c.4352,.1546 .5883,.4187 .4594,.7923l-.3033,.879m-2.7128-2.1443-.3298,.9557c-.0611,.177 .0106,.3008 .2151,.3713l1.0973,.3787c.2478,.0855 .4057,.0168 .4739-.2062l.3074-.8908-1.7639-.6087m1.8764-2.391-.4489,1.6241 .3111,.0925c.2618,.068 .4254-.0162 .4907-.2528l.3259-1.179 .397,.1097-.3242,1.173c-.1392,.4881-.463,.6598-.9711,.515l-1.0363-.28c-.5213-.1441-.7136-.4713-.5768-.9817l.154-.5337c.1286-.4652 .4475-.6274 .9568-.4866l.7218,.1995m-.8399,1.516 .3508-1.2692-.3145-.0804c-.2595-.0761-.4204-.0018-.4824,.2228l-.1546,.5594c-.0709,.2566 .0256,.415 .2896,.475l.3111,.0925m.1259-3.5639-.1143,.5244c-.0735,.3374 .0771,.5448 .452,.6223l1.6646,.3628-.0824,.3781-2.622-.5715 .0824-.378 .3354,.0731c-.2121-.1016-.2782-.3353-.1985-.7012l.0864-.3963 .3963,.0864"/>
</g>
<path fill="none" stroke="url(#linearGradient3301)" stroke-linecap="square" stroke-width="1.943" d="m81.0647,46.1869a35.2922,32.7668 0 1,1 -70.5844,0 35.2922,32.7668 0 1,1 70.5844,0z" transform="matrix(0 -.99172 1.06815 0 -1.33465 93.39356)"/>
<path fill="#f00" d="m81.0647,46.1869a35.2922,32.7668 0 1,1 -70.5844,0 35.2922,32.7668 0 1,1 70.5844,0z" transform="matrix(0 -1.07672 1.15971 0 -93.56334 97.28444)"/>
<g line-height="125%">
<g opacity=".4" transform="matrix(.52652 -.85016 .85016 .52652 27.39524 -10.94094)">
<path d="m-38.0551,9.2452c-.0035,.1276-.0287,.2422-.0757,.3438-.0457,.1004-.1118,.1858-.1984,.2564-.0852,.0693-.1896,.1219-.313,.1576-.1221,.0358-.2619,.0515-.4194,.0473-.138-.0037-.271-.0217-.3991-.0538-.1268-.0321-.2441-.0782-.3518-.1385l.0152-.5623c.0617,.0316 .124,.0626 .187,.093 .063,.0291 .1268,.0555 .1913,.0794 .0658,.0239 .131,.0433 .1958,.0581 .066,.0148 .1316,.0231 .1967,.0249 .0664,.0018 .1232-.0038 .1704-.0169 .0486-.0143 .0875-.0341 .1169-.0594 .0307-.0265 .053-.0578 .067-.0939 .0153-.0374 .0236-.0782 .0248-.1224 .0014-.0534-.009-.1005-.0313-.1415-.021-.0422-.0519-.0815-.0926-.1178-.0394-.0375-.0879-.074-.1455-.1094-.0564-.0354-.1198-.0729-.1904-.1126-.059-.0329-.125-.0724-.198-.1187-.073-.0463-.1418-.1028-.2064-.1697-.0633-.0681-.1158-.149-.1576-.2426-.0417-.0949-.0608-.2074-.0573-.3376 .0035-.1276 .0274-.2409 .0717-.34 .0457-.1004 .1085-.184 .1885-.2509 .08-.0682 .1758-.119 .2874-.1524 .1129-.0334 .2384-.0483 .3763-.0445 .069,.0019 .1359,.0082 .2007,.0191 .0661,.0109 .1309,.0257 .1942,.0443 .0646,.0187 .1291,.0413 .1935,.0678 .0644,.0265 .1307,.0569 .1988,.0914l-.208,.4652c-.0578-.0289-.1118-.0545-.162-.0767-.0502-.0222-.0992-.0411-.147-.0567-.0478-.0156-.095-.0273-.1417-.0351-.0453-.009-.0915-.0142-.1383-.0155-.1015-.0027-.1804,.0225-.2365,.0757-.0548,.0519-.0834,.1228-.0859,.2126-.0013,.0482 .0053,.0913 .0199,.1295 .0159,.0369 .041,.0721 .0753,.1056 .0356,.0335 .0809,.068 .1359,.1033 .0564,.0354 .1243,.0757 .2038,.1208 .0962,.0547 .1846,.1105 .2651,.1674 .0806,.0556 .1492,.1174 .206,.1853 .0581,.0667 .1023,.1421 .1326,.2263 .0303,.0842 .0439,.1822 .0409,.2942"/>
<path d="m-35.3767,10.2628-.601-.0555 .1133-1.2272-.9666-.0893-.1133,1.2272-.6029-.0557 .2626-2.8434 .6029,.0557-.1029,1.1144 .9666,.0893 .1029-1.1144 .601,.0555-.2626,2.8434"/>
<path d="m-32.0239,9.3525c-.0369,.2169-.0962,.4103-.1779,.58-.0804,.1699-.1834,.3096-.309,.419-.1256,.1094-.2739,.1852-.4448,.2275-.1697,.0425-.3623,.0454-.578,.0087-.2157-.0367-.3972-.1032-.5446-.1996-.1461-.0962-.2603-.2166-.3427-.3614-.0811-.1445-.1321-.3104-.1531-.4976-.0195-.1882-.0107-.3914 .0264-.6097 .0371-.2182 .0958-.4116 .1759-.5803 .0817-.1697 .1852-.3086 .3106-.4167 .1254-.1081 .2728-.1828 .4422-.224 .171-.0422 .3649-.0449 .5818-.008 .2157,.0367 .3965,.1031 .5426,.1993 .1463,.0949 .26,.2146 .3411,.3591 .0826,.1435 .1337,.3087 .1535,.4956 .0212,.1859 .0132,.3886-.0241,.6081m-1.9101-.3248c-.0251,.1476-.0349,.2827-.0293,.4051 .0058,.1212 .028,.2273 .0667,.3184 .0402,.09 .097,.1638 .1704,.2212 .0735,.0574 .166,.0956 .2777,.1146 .1142,.0194 .2155,.0142 .3038-.0157 .0896-.0297 .1669-.0806 .232-.1527 .0666-.0732 .122-.1661 .1663-.2788 .0457-.1137 .0812-.2444 .1063-.392 .0251-.1476 .0348-.282 .0289-.4032-.0043-.1222-.0258-.2289-.0645-.32-.0374-.0909-.0928-.165-.1662-.2224-.0735-.0574-.1667-.0957-.2796-.1149-.1117-.019-.2123-.0136-.3019,.016-.0896,.0297-.1683,.081-.2362,.154-.0666,.0732-.1228,.1667-.1685,.2804-.0455,.1124-.0809,.2425-.106,.3901"/>
<path d="m-30.7921,11.122-.5868-.1411 .5496-2.2864-.6969-.1675 .1178-.49 1.9788,.4757-.1178,.49-.695-.1671-.5496,2.2864"/>
<path d="m-27.138,12.2128-.6538-.2125 .1009-1.4479c.0011-.0202 .0033-.0482 .0068-.084 .0047-.0355 .0095-.0756 .0145-.1206 .005-.0449 .0106-.0917 .0169-.1403 .0062-.0486 .0127-.0958 .0193-.1416 .0067-.0457 .0127-.0876 .0182-.1255 .0071-.0388 .0131-.0697 .0178-.0928-.0097,.0215-.0237,.0498-.042,.0849-.0166,.0343-.0357,.0719-.0572,.1128-.0211,.0397-.0434,.081-.067,.124-.0223,.0434-.0447,.0847-.067,.124-.0211,.0397-.041,.0757-.0597,.1079-.0187,.0323-.0337,.0575-.0451,.0757l-.7647,1.2281-.6557-.2131 .2287-2.9282 .5665,.1841-.1734,1.5825c-.0027,.021-.0072,.0517-.0135,.0921-.0046,.0396-.0103,.0843-.0169,.1342-.0066,.0499-.0141,.1022-.0223,.1571-.007,.0552-.0142,.109-.0216,.1614-.0074,.0524-.0145,.1014-.0211,.1472-.0063,.0445-.0119,.081-.0171,.1095 .0126-.026 .0288-.0591 .0487-.0992 .0211-.0397 .043-.0818 .0658-.1265 .0231-.0459 .0473-.0928 .0724-.1408 .0264-.0475 .0504-.0918 .0719-.1327 .0219-.0422 .0414-.079 .0585-.1104 .0187-.0323 .0323-.0552 .0409-.0689l.8715-1.3988 .5052,.1642-.1173,1.6438c-.0011,.0161-.0042,.0424-.0093,.0791-.0034,.0358-.0087,.0773-.0157,.1243-.0054,.0462-.012,.096-.0199,.1496-.0078,.0536-.0159,.1057-.0241,.1564-.0066,.0499-.0137,.0969-.0212,.141-.0063,.0445-.0119,.081-.0171,.1095 .0126-.026 .0288-.0591 .0487-.0992 .0215-.0409 .0447-.0847 .0694-.1315 .0248-.0467 .0499-.0947 .0755-.1439 .0268-.0488 .0522-.0953 .0761-.1395 .024-.0442 .0451-.0839 .0633-.1191 .0199-.036 .0349-.0633 .0451-.0819l.79-1.3821 .5665,.1841-1.5364,2.5032"/>
<path d="m-24.6379,13.2219-1.5191-.63 1.0938-2.6377 1.5191,.63-.19,.4583-.9598-.398-.2402,.5791 .8931,.3703-.19,.4583-.8931-.3703-.2821,.6802 .9598,.398-.1915,.4619"/>
<path d="m-24.0945,13.4715 1.2448-2.5698 .5449,.264-1.0269,2.1199 .9351,.453-.218,.45-1.48-.7169"/>
<path d="m-22.1768,14.423 1.388-2.4954 .5291,.2943-1.1449,2.0585 .9081,.5051-.243,.437-1.4372-.7994"/>
</g>
<g opacity=".4" transform="matrix(-.37872 .92551 -.92551 -.37872 76.82101 102.93302)">
<path d="m-38.9389,8.431 .1246,.004c.1784,.0058 .3137-.0253 .4059-.0932 .0936-.0679 .1429-.1815 .1481-.3409 .0048-.1485-.0325-.2594-.1119-.3329-.0781-.0734-.2036-.1129-.3766-.1185l-.1614-.0052-.0287,.8867m1.3209-.4317c-.0042,.1308-.028,.2554-.0714,.374-.0434,.1186-.1122,.222-.2064,.3103-.0929,.0884-.2144,.1574-.3646,.207-.1489,.0497-.3323,.0711-.5502,.064l-.1451-.0047-.0344,1.0624-.6334-.0205 .0967-2.9871 .8295,.0269c.1921,.0062 .3568,.0334 .4944,.0815 .1389,.0468 .252,.1118 .3393,.1951 .0887,.082 .153,.1815 .1928,.2987 .0399,.1158 .0575,.2466 .0528,.3924"/>
<path d="m-35.1989,10.2873-.6204-.0618 .1322-1.3283c.0163-.1641 .0028-.2894-.0406-.3759-.0419-.0877-.1158-.1368-.2216-.1474-.08-.008-.1488,.0016-.2062,.0288-.0575,.0271-.1057,.071-.1446,.1315-.0389,.0605-.0698,.1369-.0926,.2291-.0229,.0922-.0403,.1987-.0523,.3194l-.1065,1.07-.6204-.0617 .3151-3.1652 .6204,.0618-.0642,.6448c-.0057,.057-.013,.1172-.0221,.1806-.0089,.0621-.0181,.1194-.0274,.1719-.0116,.0618-.0225,.1224-.0325,.1817l.0326,.0032c.0782-.1114 .1714-.1877 .2796-.229 .1083-.0426 .2276-.0575 .3578-.0445 .1126,.0112 .2126,.0376 .3003,.0792 .0891,.0404 .1628,.0977 .2212,.172 .0583,.0743 .0999,.1661 .1246,.2754 .0249,.1079 .03,.2351 .0154,.3816l-.1476,1.4829"/>
<path d="m-33.86,9.3299c-.0378,.2244-.0347,.3991 .0092,.5239 .0442,.1235 .1375,.1973 .2799,.2212 .1411,.0237 .2529-.0162 .3353-.1198 .0824-.1036 .1424-.2669 .1799-.49 .0378-.2244 .0344-.3971-.0103-.5179-.0444-.1222-.1385-.1954-.2823-.2196-.1411-.0237-.2526,.0148-.3346,.1157-.0804,.0998-.1394,.2619-.1772,.4863m1.4313,.2409c-.0317,.1881-.0839,.3507-.1567,.4877-.0715,.1372-.1606,.248-.2674,.3323-.1054,.0845-.2271,.1421-.3649,.1728-.1363,.0296-.2844,.0309-.4443,.004-.1492-.0251-.282-.0737-.3983-.1458-.1162-.0734-.2116-.1676-.2862-.2824-.0733-.1146-.1233-.2488-.1499-.4025-.0266-.1537-.0241-.3247 .0075-.5128 .0314-.1868 .0829-.3488 .1544-.486 .0728-.137 .1618-.2471 .267-.3303 .1068-.0843 .2283-.1412 .3646-.1708 .1363-.0296 .285-.0308 .4463-.0037 .1492,.0251 .282,.0737 .3983,.1458 .1164,.0721 .2112,.1655 .2845,.2801 .0749,.1135 .1256,.2471 .1523,.4008 .0266,.1537 .0242,.324-.0072,.5108"/>
<path d="m-31.0861,10.5806c.0598,.0136 .1178,.0197 .174,.0185 .0575-.0009 .1164-.0051 .1768-.0123l-.1026,.4526c-.0638,.0163-.1403,.0241-.2296,.0234-.0882,.001-.1822-.0099-.2819-.0325-.097-.022-.1848-.0538-.2635-.0953-.0786-.0416-.1422-.0972-.1907-.1669-.0482-.071-.0795-.1578-.094-.2603-.0129-.1035-.003-.2271 .0295-.3706l.2435-1.0746-.2911-.066 .0583-.2572 .381-.1274 .2821-.4307 .3888,.0881-.1075,.4745 .5423,.1229-.1035,.4566-.5423-.1229-.2435,1.0746c-.0196,.0864-.0128,.155 .0204,.2059 .0332,.0508 .0844,.0841 .1535,.0998"/>
<path d="m-29.5875,10.2512c-.0627,.2188-.0792,.3927-.0496,.5217 .03,.1277 .1145,.2114 .2534,.2512 .1376,.0394 .2531,.0123 .3466-.0814 .0935-.0937 .1714-.2493 .2337-.4668 .0627-.2188 .0787-.3907 .0479-.5158-.0304-.1264-.1157-.2097-.2559-.2498-.1376-.0394-.2527-.0136-.3454,.0775-.091,.0902-.1679,.2446-.2306,.4634m1.3952,.3999c-.0526,.1834-.1227,.3391-.2104,.4671-.0864,.1283-.1874,.2284-.3029,.3002-.1143,.0722-.2416,.1158-.382,.1308-.1387,.0141-.286-.0012-.4419-.0458-.1454-.0417-.2719-.1049-.3795-.1896-.1072-.086-.1914-.1903-.2527-.3127-.06-.1221-.0946-.261-.1038-.4168-.0092-.1558 .0124-.3253 .065-.5088 .0522-.1821 .1215-.3373 .2079-.4657 .0877-.128 .1885-.2274 .3024-.2982 .1156-.0718 .2427-.1147 .3814-.1289 .1387-.0141 .2867,.0014 .4439,.0464 .1454,.0417 .2719,.1049 .3795,.1896 .1076,.0847 .1913,.1881 .2513,.3102 .0617,.1212 .0971,.2596 .1064,.4154 .0092,.1558-.0123,.3247-.0644,.5068"/>
<path d="m-25.8037,12.7389 .2892-2.4176-.017-.007c-.0403,.119-.0804,.2337-.1201,.3441-.0167,.0476-.0346,.0963-.0537,.1459-.0178,.0502-.0359,.0994-.0545,.1478-.0173,.0489-.035,.0954-.0532,.1395-.017,.0446-.0327,.0845-.0473,.1198l-.531,1.2847-.5233-.2163 1.1416-2.762 .7972,.3295-.276,2.3589 .0113,.0047 1.5078-1.8498 .7972,.3295-1.1416,2.762-.546-.2257 .5404-1.3073c.0135-.0328 .0289-.0699 .0461-.1115 .0184-.041 .0379-.0846 .0584-.1307 .0205-.0461 .0413-.0928 .0623-.1401 .0223-.0468 .0434-.0926 .0634-.1375 .0488-.1037 .0987-.2121 .1499-.3251l-.0151-.0062-1.5478,1.893-.5384-.2225"/>
<path d="m-22.2651,14.3807 .0346-.3315-.0164-.0084c-.068,.034-.1323,.0608-.1929,.0802-.0599,.0183-.1201,.028-.1804,.0291-.0603,.0012-.1233-.0074-.189-.0258-.0644-.0178-.1354-.0465-.213-.0864-.0824-.0423-.1523-.0943-.2095-.1558-.0566-.0628-.0976-.1336-.123-.2125-.0235-.0795-.0293-.1667-.0173-.2617 .0126-.0962 .0472-.1994 .1039-.3097 .1108-.2158 .2614-.3391 .4519-.37 .1911-.0321 .4271,.0171 .7079,.1475l.3293,.1553 .0784-.1528c.043-.0837 .0505-.1579 .0225-.2228-.028-.0649-.0856-.1198-.1729-.1646-.0873-.0448-.1793-.076-.276-.0935-.0955-.0169-.196-.0256-.3014-.0261l.0086-.4598c.1311-.0047 .2669,.0083 .4073,.0391 .1405,.0308 .2786,.081 .4144,.1507 .2534,.1301 .4169,.2891 .4904,.477 .0748,.1885 .0499,.404-.0746,.6465l-.6956,1.3548-.3873-.1989m.32-1.026-.1874-.087c-.0752-.0356-.1426-.0579-.2022-.0671-.0596-.0092-.1127-.0073-.1591,.0056-.0446,.0123-.0845,.0348-.1196,.0673-.0333,.032-.0623,.0722-.0872,.1207-.0436,.0849-.0541,.1561-.0315,.2136 .0232,.0563 .0681,.1016 .1348,.1358 .0509,.0261 .1026,.0419 .1549,.0474 .053,.0042 .1039-.0025 .1529-.0203 .0508-.0183 .098-.0477 .1417-.0881 .0443-.0416 .0833-.0951 .1169-.1606l.0859-.1673"/>
<path d="m-19.6146,15.9096-.5346-.3209 .687-1.1445c.0849-.1414 .1267-.2601 .1256-.3562 .0007-.0965-.0457-.1728-.1391-.229-.0701-.0421-.1369-.0631-.2005-.0632-.0636-0-.1259,.019-.1869,.0571-.0598,.0388-.1198,.095-.1799,.1686-.0601,.0736-.1213,.1624-.1838,.2664l-.5534,.9219-.5346-.3209 1.1763-1.9595 .4084,.2451-.0786,.2938 .0298,.0179c.0582-.0334 .118-.0563 .1795-.0687 .0626-.0117 .1249-.0148 .1869-.0094 .0619,.0054 .1229,.019 .183,.0407 .0608,.0206 .1192,.0477 .1753,.0814 .0958,.0575 .1744,.1238 .2359,.1988 .0621,.0739 .1037,.1569 .1248,.2489 .021,.0921 .0194,.1928-.005,.3022-.0236,.1082-.0733,.2254-.1491,.3516l-.767,1.2777"/>
<path d="m-17.9873,17.0182 .0781-.324-.0151-.0105c-.0719,.0247-.1392,.0428-.2018,.0541-.0618,.0102-.1227,.0119-.1827,.0051-.06-.0068-.1213-.0236-.1839-.0505-.0615-.0261-.1281-.064-.1997-.1138-.0761-.0528-.1385-.1136-.1871-.1821-.0478-.0697-.0791-.1453-.0938-.2269-.0128-.0819-.007-.1691 .0174-.2617 .0252-.0937 .0731-.1914 .1439-.2933 .1383-.1993 .3039-.3017 .4968-.3071 .1937-.0066 .4211,.0733 .6822,.2396l.3059,.1974 .0979-.1411c.0536-.0772 .0709-.1499 .0517-.2179-.0191-.068-.069-.13-.1496-.186-.0806-.0559-.1677-.099-.2613-.1291-.0924-.0293-.1909-.0512-.2953-.0656l.0692-.4546c.1306,.0127 .2634,.0435 .3986,.0925 .1352,.049 .2655,.1171 .3909,.2041 .234,.1624 .375,.3416 .4232,.5376 .0492,.1968-.0038,.4071-.1593,.631l-.8684,1.2511-.3577-.2483m.4526-.9748-.1743-.111c-.0698-.0452-.1337-.0762-.1916-.0932-.0579-.017-.1107-.0221-.1585-.0154-.0459,.0063-.0883,.0233-.1274,.0509-.0372,.0273-.0713,.0633-.1024,.1081-.0544,.0784-.0742,.1476-.0595,.2076 .0155,.0589 .0541,.1097 .1157,.1524 .047,.0326 .0961,.0551 .1473,.0674 .052,.0112 .1034,.0112 .1542,.0001 .0528-.0115 .1035-.0344 .1521-.0686 .0494-.0354 .0951-.0833 .1371-.1437l.1072-.1545"/>
<path d="m-14.2166,17.0323-.2104,.2663-.3261-.1247c-.0073,.0533-.0224,.103-.045,.1494-.0219,.0453-.0505,.0903-.086,.1353-.0718,.0909-.1521,.1629-.241,.216-.088,.0521-.1815,.0824-.2804,.0911-.0989,.0087-.203-.0058-.3122-.0434-.1084-.0387-.2192-.1028-.3326-.1924-.0246-.0194-.0505-.0416-.0777-.0666-.0263-.026-.0452-.0461-.0566-.0603-.0358,.0013-.0681,.007-.0969,.0172-.027,.01-.0514,.0288-.0734,.0566-.0177,.0225-.0252,.0461-.0222,.071 .0038,.0238 .0135,.0489 .0292,.0752 .0165,.0252 .0385,.0513 .0659,.0781 .0282,.0258 .0584,.0514 .0905,.0767l.2791,.2205c.0866,.0684 .1561,.1398 .2085,.2142 .0532,.0733 .0873,.1489 .1023,.2267 .016,.0786 .0119,.1597-.0122,.243-.0233,.0823-.0692,.1668-.1376,.2534-.0803,.1016-.1728,.177-.2776,.2261-.1057,.0502-.2216,.0716-.3476,.0641-.1258-.0056-.2604-.0408-.4039-.1054-.1443-.0636-.295-.1575-.4522-.2817-.1219-.0963-.219-.1921-.2913-.2875-.0732-.0943-.1229-.1874-.1492-.2794-.0272-.0909-.0322-.1791-.015-.2646 .0182-.0846 .0577-.1654 .1186-.2424 .0515-.0652 .1075-.113 .168-.1434 .0605-.0304 .1229-.0479 .1874-.0526 .0645-.0047 .1287,.0009 .1926,.0167 .065,.0166 .1273,.0389 .1869,.0668-.0149-.0274-.0267-.0585-.0357-.0933-.0079-.034-.012-.0694-.0125-.1062 .0006-.036 .0056-.072 .015-.108 .0113-.0362 .0287-.0694 .0524-.0993 .027-.0342 .0563-.0614 .0879-.0816 .0327-.0194 .0679-.0332 .1057-.0415 .0387-.0094 .0809-.0134 .1267-.0119 .0458,.0014 .0957,.0053 .1498,.0115-.062-.115-.0853-.2393-.07-.3731 .0164-.1329 .0728-.2603 .1691-.3822 .076-.0963 .159-.1705 .2489-.2228 .0899-.0523 .1845-.0818 .2836-.0886 .1-.0079 .2037,.0081 .3113,.0479 .1075,.0398 .2169,.1036 .3281,.1915 .0214,.0169 .0442,.0375 .0684,.0618 .025,.0233 .0487,.0472 .071,.0717 .0242,.0243 .0458,.0475 .0649,.0695 .0191,.022 .0338,.0397 .0441,.053l.6096,.4815m-2.8977,1.0299c-.0211,.0267-.036,.0566-.0448,.0897-.0085,.035-.0075,.0722 .0029,.1117 .0105,.0395 .0323,.0811 .0656,.1247 .0324,.0447 .0791,.0911 .1401,.1393 .1668,.1318 .3111,.2075 .4327,.2272 .1217,.0197 .2137-.01 .2763-.0892 .0532-.0674 .0625-.133 .0278-.1968-.0347-.0638-.1071-.1393-.2172-.2263l-.2262-.1787c-.0289-.0228-.0624-.0441-.1006-.0639-.0391-.0187-.0793-.0305-.1206-.0353-.0413-.0049-.0826-.001-.1238,.0116-.041,.0145-.0784,.0432-.1122,.0859m1.3296-1.3203c-.0769,.0973-.1183,.1871-.1241,.2693-.0059,.0822 .0281,.1524 .1019,.2107 .077,.0608 .1537,.078 .2302,.0516 .0765-.0264 .1531-.0883 .23-.1856 .076-.0963 .1193-.1862 .1299-.2699 .0116-.0829-.0216-.1551-.0997-.2168-.1465-.1157-.3026-.0688-.4681,.1408"/>
<path d="m-13.3639,18.3125c-.0822-.0737-.1766-.1062-.2833-.0974-.1056,.0096-.218,.0727-.3371,.1893l.5922,.5308c.0454-.0527 .0815-.1063 .1085-.1608 .0269-.0545 .0423-.1085 .0462-.1618 .0047-.0543-.003-.107-.0231-.158-.0202-.051-.0546-.0983-.1033-.142m-1.2259,1.4872c-.1218-.1092-.218-.2274-.2887-.3548-.0707-.1274-.1112-.2598-.1216-.3972-.0095-.1385 .0136-.2806 .0693-.4265 .0576-.146 .1524-.2926 .2843-.4397 .1337-.1492 .2694-.2628 .407-.3407 .1376-.078 .2731-.124 .4065-.138 .1353-.0142 .267,.0023 .395,.0493 .129,.048 .2514,.1238 .3671,.2275 .1126,.101 .1987,.2092 .2581,.3246 .0613,.1154 .0939,.2342 .0977,.3566 .0048,.1233-.0192,.2481-.0722,.3745-.051,.1263-.132,.2514-.243,.3752l-.2019,.2253-1.0382-.9305c-.0562,.0668-.0988,.1347-.1278,.2039-.0271,.069-.0403,.1368-.0396,.2034 .0027,.0664 .0192,.1307 .0496,.1927 .0314,.0629 .0781,.1222 .14,.1776 .0518,.0464 .1027,.0875 .153,.1234 .0521,.0358 .105,.0676 .1587,.0956 .0536,.028 .1091,.0529 .1662,.0749 .0581,.0209 .1195,.0403 .1841,.058l-.322,.3593c-.0597-.0151-.1172-.0337-.1724-.0557-.0533-.0222-.1074-.0487-.1621-.0794-.0548-.0308-.1104-.0678-.1668-.111-.0573-.0422-.1174-.0915-.1804-.1479"/>
<path d="m-11.0236,19.9443c.0115,.0116 .0236,.0246 .0361,.0391 .0144,.0145 .0269,.0289 .0375,.0434 .0125,.0145 .0231,.028 .0318,.0405 .0106,.0125 .0178,.0227 .0216,.0304l-.4138,.413c-.0058-.0096-.0144-.0222-.026-.0376-.0115-.0154-.0245-.0313-.039-.0477-.0125-.0164-.026-.0318-.0404-.0463-.0135-.0154-.025-.028-.0346-.0376-.0568-.0569-.1165-.1023-.1791-.1361-.0616-.0328-.1262-.0502-.1936-.0522-.0655-.002-.1344,.0138-.2068,.0475-.0704,.0337-.1437,.0885-.2199,.1646l-.8233,.8217-.4404-.4413 1.6176-1.6145 .3336,.3342-.1781,.3077 .0217,.0217c.0646-.0182 .1272-.0307 .188-.0374 .0607-.0067 .119-.0052 .1749,.0045 .0578,.0097 .1137,.029 .1676,.058 .0559,.029 .1107,.0705 .1647,.1245"/>
</g>
</g>
<path opacity=".5" fill="url(#linearGradient3188)" d="m12,6c-3.324,0-6,2.676-6,6v2 68 2c0,.3347 .0413,.6507 .0938,.9688 .0487,.2956 .097,.5969 .1875,.875 .0099,.0304 .0209,.0636 .0312,.0938 .0989,.2878 .2349,.5475 .375,.8125 .1446,.2735 .3156,.5356 .5,.7812 .1844,.2456 .3738,.4735 .5938,.6875 .4399,.4281 .9429,.8145 1.5,1.0938 .2785,.1396 .5735,.2469 .875,.3438-.2562-.1002-.4867-.2363-.7188-.375-.0074-.0044-.0239,.0045-.0312,0-.0319-.0193-.0623-.0425-.0938-.0625-.1204-.0767-.231-.1635-.3438-.25-.1062-.0808-.2133-.1611-.3125-.25-.1779-.1614-.3475-.3454-.5-.5312-.1076-.1303-.2184-.2653-.3125-.4062-.0251-.0384-.0384-.0859-.0625-.125-.0648-.103-.1302-.2045-.1875-.3125-.101-.1947-.2057-.4157-.2812-.625-.008-.0218-.0236-.0405-.0312-.0625-.0318-.0919-.0358-.1868-.0625-.2812-.0303-.1066-.0704-.203-.0938-.3125-.0729-.3415-.125-.6982-.125-1.0625v-2-68-2c0-2.7818 2.2182-5 5-5h2 68 2c2.7818,0 5,2.2182 5,5v2 68 2c0,.3643-.0521,.721-.125,1.0625-.0442,.2069-.0884,.3977-.1562,.5938-.0077,.022-.0233,.0407-.0312,.0625-.0627,.1737-.1384,.3674-.2188,.5312-.0416,.0828-.079,.17-.125,.25-.0546,.0972-.1268,.1883-.1875,.2812-.0941,.141-.2049,.276-.3125,.4062-.1432,.1744-.3031,.347-.4688,.5-.0112,.0102-.02,.0212-.0312,.0312-.1384,.1256-.2851,.2344-.4375,.3438-.1026,.0731-.2043,.1534-.3125,.2188-.0074,.0045-.0238-.0044-.0312,0-.232,.1387-.4625,.2748-.7188,.375 .3015-.0968 .5965-.2041 .875-.3438 .5571-.2792 1.0601-.6657 1.5-1.0938 .22-.214 .4094-.4419 .5938-.6875 .1844-.2456 .3554-.5077 .5-.7812 .1401-.265 .2761-.5247 .375-.8125 .0104-.0308 .0213-.0627 .0312-.0938 .0905-.2781 .1388-.5794 .1875-.875 .0524-.318 .0938-.634 .0938-.9688v-2-68-2c0-3.324-2.676-6-6-6h-72z"/>
<path opacity=".45" fill="url(#radialGradient2874)" d="m12,90c-3.324,0-6-2.676-6-6v-2-68-2c0-.3347 .0413-.6507 .0938-.9688 .0487-.2956 .097-.5969 .1875-.875 .0099-.0304 .0209-.0636 .0312-.0938 .0989-.2878 .2349-.5475 .375-.8125 .1446-.2735 .3156-.5356 .5-.7812 .1844-.2456 .3738-.4735 .5938-.6875 .4399-.4281 .9429-.8145 1.5-1.0938 .2785-.1396 .5735-.2469 .875-.3438-.2562,.1002-.4867,.2363-.7188,.375-.0074,.0044-.0239-.0045-.0312,0-.0319,.0193-.0623,.0425-.0938,.0625-.1204,.0767-.231,.1635-.3438,.25-.1062,.0808-.2133,.1611-.3125,.25-.1779,.1614-.3475,.3454-.5,.5312-.1076,.1303-.2184,.2653-.3125,.4062-.0251,.0384-.0384,.0859-.0625,.125-.0648,.103-.1302,.2045-.1875,.3125-.101,.1947-.2057,.4157-.2812,.625-.008,.0218-.0236,.0405-.0312,.0625-.0318,.092-.0358,.1868-.0625,.2812-.0303,.1066-.0704,.203-.0938,.3125-.0729,.3415-.125,.6982-.125,1.0625v2 68 2c0,2.7818 2.2182,5 5,5h2 68 2c2.7818,0 5-2.2182 5-5v-2-68-2c0-.3643-.0521-.721-.125-1.0625-.0442-.2069-.0884-.3977-.1562-.5938-.0077-.022-.0233-.0407-.0312-.0625-.0627-.1737-.1384-.3674-.2188-.5312-.0416-.0828-.079-.17-.125-.25-.0546-.0972-.1268-.1883-.1875-.2812-.0941-.141-.2049-.276-.3125-.4062-.1432-.1745-.3031-.347-.4688-.5-.0112-.0102-.02-.0211-.0312-.0312-.1384-.1256-.2851-.2344-.4375-.3438-.1026-.0732-.2043-.1534-.3125-.2188-.0074-.0045-.0238,.0044-.0312,0-.232-.1387-.4625-.2748-.7188-.375 .3015,.0968 .5965,.2041 .875,.3438 .5571,.2792 1.0601,.6657 1.5,1.0938 .22,.214 .4094,.4419 .5938,.6875 .1844,.2456 .3554,.5077 .5,.7812 .1401,.265 .2761,.5247 .375,.8125 .0104,.0308 .0213,.0627 .0312,.0938 .0905,.2781 .1388,.5794 .1875,.875 .0524,.318 .0938,.634 .0938,.9688v2 68 2c0,3.324-2.676,6-6,6h-72z"/>
</svg>
