<svg xmlns="http://www.w3.org/2000/svg" viewBox="0 0 96 96" xmlns:xlink="http://www.w3.org/1999/xlink">
<defs>
<clipPath>
<path fill="#fff" d="m12,6h72a6,6 0 0,1 6,6v72a6,6 0 0,1 -6,6h-72a6,6 0 0,1 -6-6v-72a6,6 0 0,1 6-6"/>
</clipPath>
<clipPath id="clipPath4031">
<path fill="#bbb1bf" d="m48,32c-19.8823,0-36,16.1177-36,36 0,19.8823 16.1177,36 36,36 19.8823,0 36-16.1177 36-36 0-19.8823-16.1177-36-36-36zm0,24c6.6274,0 12,5.3726 12,12 0,6.6274-5.3726,12-12,12-6.6274,0-12-5.3726-12-12 0-6.6274 5.3726-12 12-12z"/>
</clipPath>
<clipPath id="clipPath4187">
<path fill="#bbb1bf" d="m48,102c-19.8822,0-36,16.1178-36,36 0,19.8822 16.1178,36 36,36 19.8822,0 36-16.1178 36-36 0-19.8822-16.1178-36-36-36zm0,24c6.6274,0 12,5.3726 12,12 0,6.6274-5.3726,12-12,12-6.6274,0-12-5.3726-12-12 0-6.6274 5.3726-12 12-12z"/>
</clipPath>
<filter width="1.381" x="-.19" y="-.171" height="1.341" color-interpolation-filters="sRGB" id="filter4035">
<feGaussianBlur stdDeviation="4.94766"/>
</filter>
<filter width="1.36" x="-.18" y="-.18" height="1.36" color-interpolation-filters="sRGB" id="filter4195">
<feGaussianBlur stdDeviation="5.216"/>
</filter>
<linearGradient gradientTransform="matrix(1 0 0 -1 0 97)" id="linearGradient3721-7" xlink:href="#ButtonShadow-0-0" y1="6.132" y2="90.239" x2="0" gradientUnits="userSpaceOnUse"/>
<linearGradient id="linearGradient3362">
<stop offset="0" stop-color="#4d4d4d"/>
<stop offset="1" stop-color="#fff"/>
</linearGradient>
<linearGradient gradientTransform="matrix(.49819 0 0 1 64.05804 0)" id="linearGradient4875" xlink:href="#linearGradient4702" y1="8" y2="119.338" x2="0" gradientUnits="userSpaceOnUse"/>
<linearGradient gradientTransform="matrix(1.00587 0 0 .99417 100 0)" id="ButtonShadow-0-0" y1="92.54" y2="7.017" x2="0" gradientUnits="userSpaceOnUse">
<stop offset="0"/>
<stop offset="1" stop-opacity=".588"/>
</linearGradient>
<linearGradient id="linearGradient4770" xlink:href="#linearGradient4764" y1="40" x1="44" y2="49" x2="49" gradientUnits="userSpaceOnUse"/>
<linearGradient id="linearGradient4760" xlink:href="#linearGradient4754" y1="48" x1="48" y2="64" x2="64" gradientUnits="userSpaceOnUse"/>
<linearGradient gradientTransform="matrix(1.02381 0 0 -1.0119 -1.14286 98.07143)" id="linearGradient3725-1" xlink:href="#ButtonShadow-0-0" y1="6.132" y2="90.239" x2="0" gradientUnits="userSpaceOnUse"/>
<linearGradient id="linearGradient4729" xlink:href="#linearGradient4723" x1="6" x2="90" gradientUnits="userSpaceOnUse"/>
<linearGradient gradientTransform="matrix(.25 0 0 1 32 -96)" id="linearGradient4712" xlink:href="#linearGradient4702" y1="8" y2="118.75" x2="0" gradientUnits="userSpaceOnUse"/>
<linearGradient id="linearGradient4578">
<stop offset="0" stop-color="#a0a0a0" stop-opacity=".541"/>
<stop offset="1" stop-color="#a0a0a0" stop-opacity=".345"/>
</linearGradient>
<linearGradient gradientTransform="translate(-2 -96)" id="linearGradient4708" xlink:href="#linearGradient4702" y1="8" y2="119.338" x2="0" gradientUnits="userSpaceOnUse"/>
<linearGradient gradientTransform="translate(-100)" id="linearGradient3815" xlink:href="#linearGradient4578" y1="89.669" y2="4.788" x2="0" gradientUnits="userSpaceOnUse"/>
<linearGradient id="linearGradient4004" xlink:href="#linearGradient3362" x1="25.22" x2="94.568" gradientUnits="userSpaceOnUse"/>
<linearGradient id="linearGradient4702">
<stop offset="0" stop-color="#fff"/>
<stop offset="1" stop-color="#fff" stop-opacity="0"/>
</linearGradient>
<linearGradient id="linearGradient3700">
<stop offset="0" stop-color="#fff" stop-opacity=".157"/>
<stop offset="1" stop-color="#d7d7d7" stop-opacity=".341"/>
</linearGradient>
<linearGradient id="linearGradient3330">
<stop offset="0" stop-color="#fff" stop-opacity=".203"/>
<stop offset="1" stop-color="#fff" stop-opacity=".68"/>
</linearGradient>
<linearGradient id="linearGradient4764">
<stop offset="0" stop-color="#ffefe4"/>
<stop offset="1" stop-color="#fff" stop-opacity="0"/>
</linearGradient>
<linearGradient id="linearGradient4857">
<stop offset="0" stop-color="#ffad14" stop-opacity="0"/>
<stop offset=".428" stop-color="#ffc92c"/>
<stop offset="1" stop-color="#ff9c45"/>
</linearGradient>
<linearGradient id="linearGradient4754">
<stop offset="0" stop-color="#d55500"/>
<stop offset="1" stop-color="#d55500" stop-opacity="0"/>
</linearGradient>
<linearGradient id="linearGradient4723">
<stop offset="0" stop-color="#ff7200"/>
<stop offset=".3" stop-color="#ffa600"/>
<stop offset="1" stop-color="#ff6000"/>
</linearGradient>
<linearGradient id="linearGradient4014" xlink:href="#linearGradient3330" x1="26.18" x2="93.608" gradientUnits="userSpaceOnUse"/>
<linearGradient id="linearGradient3923" xlink:href="#linearGradient3737-1" y1="6" y2="63.893" x2="0" gradientUnits="userSpaceOnUse"/>
<linearGradient id="linearGradient3706" xlink:href="#linearGradient3700" y1="90" y2="5.988" x2="0" gradientUnits="userSpaceOnUse"/>
<linearGradient id="linearGradient3737-1">
<stop offset="0" stop-color="#fff"/>
<stop offset="1" stop-color="#fff" stop-opacity="0"/>
</linearGradient>
<radialGradient cx="48.015" cy="40.513" gradientTransform="matrix(1.61967 -.03314 .04674 2.28463 -31.59593 -46.62194)" r="8" id="radialGradient4853" xlink:href="#linearGradient4857" gradientUnits="userSpaceOnUse"/>
<radialGradient cx="48.135" cy="40.928" gradientTransform="matrix(1.39126 -.01002 .01645 2.28505 -19.50679 -47.74697)" r="8" id="radialGradient4851" xlink:href="#linearGradient4857" gradientUnits="userSpaceOnUse"/>
<radialGradient cx="47.715" cy="40.88" gradientTransform="matrix(1.37813 .06527 -.10811 2.28255 -13.62294 -51.24151)" r="8" id="radialGradient4837" xlink:href="#linearGradient4857" gradientUnits="userSpaceOnUse"/>
<radialGradient cx="48.332" cy="40.609" gradientTransform="matrix(1.79423 .09103 -.11579 2.28217 -33.53625 -52.48488)" r="8" id="radialGradient4823" xlink:href="#linearGradient4857" gradientUnits="userSpaceOnUse"/>
<radialGradient cx="59.894" cy="61.922" gradientTransform="matrix(1 0 0 .83754 0 10.05967)" r="33.714" id="radialGradient4012" gradientUnits="userSpaceOnUse">
<stop offset="0" stop-opacity="0"/>
<stop offset=".85" stop-opacity="0"/>
<stop offset="1"/>
</radialGradient>
<radialGradient cx="48" cy="90.172" gradientTransform="matrix(1.15731 0 0 .99591 -7.55102 .19713)" r="42" id="radialGradient2886" gradientUnits="userSpaceOnUse">
<stop offset="0" stop-color="#fff"/>
<stop offset="1" stop-color="#fff" stop-opacity="0"/>
</radialGradient>
</defs>
<path opacity=".08" fill="url(#linearGradient3725-1)" d="m12,3.9688c-5.5111,0-10.0312,4.5202-10.0312,10.0312v71c0,5.5111 4.5202,10.0312 10.0312,10.0312h72c5.5111,0 10.0312-4.5202 10.0312-10.0312v-71c0-5.5111-4.5202-10.0312-10.0312-10.0312h-72zm0,2.0312 72,0c3.324,0 6,2.676 6,6v72c0,3.324-2.676,6-6,6h-72c-3.324,0-6-2.676-6-6v-72c0-3.324 2.676-6 6-6z"/>
<path opacity=".1" fill="url(#linearGradient3725-1)" d="m12,4.9688c-4.9716,0-9.0312,4.0596-9.0312,9.0312v71c0,4.9716 4.0596,9.0312 9.0312,9.0312h72c4.9716,0 9.0312-4.0596 9.0312-9.0312v-71c0-4.9716-4.0596-9.0312-9.0312-9.0312h-72zm0,1.0312 72,0c3.324,0 6,2.676 6,6v72c0,3.324-2.676,6-6,6h-72c-3.324,0-6-2.676-6-6v-72c0-3.324 2.676-6 6-6z"/>
<path opacity=".2" fill="url(#linearGradient3725-1)" d="m11.1875,6.0312c-4.0275,.4107-7.1875,3.8352-7.1875,7.9688v71c0,4.4091 3.5909,8 8,8h72c4.4091,0 8-3.5909 8-8v-71c0-4.1971-3.259-7.646-7.375-7.9688 3.0329,.3062 5.375,2.8525 5.375,5.9688v72c0,3.324-2.676,6-6,6h-72c-3.324,0-6-2.676-6-6v-72c0-3.1163 2.3421-5.6626 5.375-5.9688-.0623,.0049-.1256-.0063-.1875,0z"/>
<path opacity=".3" fill="url(#linearGradient3725-1)" d="m6.4375,9.75c-.8995,1.1774-1.4375,2.6473-1.4375,4.25v71c0,3.878 3.122,7 7,7h72c3.878,0 7-3.122 7-7v-71c0-1.6027-.538-3.0726-1.4375-4.25 .2793,.6941 .4375,1.4536 .4375,2.25v72c0,3.324-2.676,6-6,6h-72c-3.324,0-6-2.676-6-6v-72c0-.7964 .1582-1.5559 .4375-2.25z"/>
<path opacity=".45" fill="url(#linearGradient3721-7)" d="m6,84 0,1c0,3.324 2.676,6 6,6h72c3.324,0 6-2.676 6-6v-1c0,3.324-2.676,6-6,6h-72c-3.324,0-6-2.676-6-6z"/>
<g color="#000">
<path opacity=".8" fill="url(#linearGradient4729)" d="m6,52 0,32c0,3.324 2.676,6 6,6h72c3.324,0 6-2.676 6-6v-32h-84z"/>
<path opacity=".8" fill="#f60" d="m6,52h84v1h-84z"/>
<path opacity=".1" d="m48,17.0938c-17.612,0-31.9062,14.2943-31.9062,31.9062 0,17.612 14.2943,31.9062 31.9062,31.9062 17.612,0 31.9062-14.2943 31.9062-31.9062 0-17.612-14.2943-31.9062-31.9062-31.9062zm0,26.8125c2.825,0 5.0938,2.2687 5.0938,5.0938 0,2.825-2.2687,5.0938-5.0938,5.0938-2.825,0-5.0938-2.2687-5.0938-5.0938 0-2.825 2.2687-5.0938 5.0938-5.0938z"/>
<path opacity=".15" d="m48,18.0312c-17.0976,0-30.9688,13.8712-30.9688,30.9688 0,17.0976 13.8712,30.9688 30.9688,30.9688 17.0976,0 30.9688-13.8712 30.9688-30.9688 0-17.0976-13.8712-30.9688-30.9688-30.9688zm0,24.9375c3.3369,0 6.0312,2.6943 6.0312,6.0312 0,3.3369-2.6943,6.0312-6.0312,6.0312-3.3369,0-6.0312-2.6943-6.0312-6.0312 0-3.3369 2.6943-6.0312 6.0312-6.0312z"/>
<path opacity=".3" d="m48,19c-16.5685,0-30,13.4315-30,30 0,16.5685 13.4315,30 30,30 16.5685,0 30-13.4315 30-30 0-16.5685-13.4315-30-30-30zm0,23c3.866,0 7,3.134 7,7 0,3.866-3.134,7-7,7-3.866,0-7-3.134-7-7 0-3.866 3.134-7 7-7z"/>
<path opacity=".05" d="m48,31c-9.926,0-18,8.074-18,18 0,9.926 8.074,18 18,18 9.926,0 18-8.074 18-18 0-9.926-8.074-18-18-18zm0,10c4.4365,0 8,3.5635 8,8 0,4.4365-3.5635,8-8,8-4.4365,0-8-3.5635-8-8 0-4.4365 3.5635-8 8-8z"/>
<path opacity=".3" d="m48,33c-8.8366,0-16,7.1634-16,16 0,8.8366 7.1634,16 16,16 8.8366,0 16-7.1634 16-16 0-8.8366-7.1634-16-16-16zm0,6c5.5228,0 10,4.4772 10,10 0,5.5228-4.4772,10-10,10-5.5228,0-10-4.4772-10-10 0-5.5228 4.4772-10 10-10z"/>
<path opacity=".1" d="m48,31.9688c-9.3975,0-17.0312,7.6337-17.0312,17.0312 0,9.3975 7.6337,17.0312 17.0312,17.0312 9.3975,0 17.0312-7.6337 17.0312-17.0312 0-9.3975-7.6337-17.0312-17.0312-17.0312zm0,8.0625c4.9619,0 8.9688,4.0069 8.9688,8.9688 0,4.9619-4.0069,8.9688-8.9688,8.9688-4.9619,0-8.9688-4.0069-8.9688-8.9688 0-4.9619 4.0069-8.9688 8.9688-8.9688z"/>
</g>
<path fill="#bbb1bf" d="m48,18.0845c-16.5219,0-29.9155,13.3936-29.9155,29.9155 0,16.5219 13.3936,29.9155 29.9155,29.9155 16.5219,0 29.9155-13.3936 29.9155-29.9155 0-16.5219-13.3936-29.9155-29.9155-29.9155zm0,19.9437c5.5073,0 9.9718,4.4645 9.9718,9.9718 0,5.5073-4.4645,9.9718-9.9718,9.9718-5.5073,0-9.9718-4.4645-9.9718-9.9718 0-5.5073 4.4645-9.9718 9.9718-9.9718z"/>
<path opacity=".3" fill="#fff" d="m48,38.0282c-5.5073,0-9.9718,4.4645-9.9718,9.9718 0,5.5073 4.4645,9.9718 9.9718,9.9718 5.5073,0 9.9718-4.4645 9.9718-9.9718 0-5.5073-4.4645-9.9718-9.9718-9.9718zm0,5.8169c2.2947,0 4.1549,1.8602 4.1549,4.1549 0,2.2947-1.8602,4.1549-4.1549,4.1549-2.2947,0-4.1549-1.8602-4.1549-4.1549 0-2.2947 1.8602-4.1549 4.1549-4.1549z"/>
<g stroke-linecap="round">
<path opacity=".6" fill="none" stroke="url(#linearGradient4004)" stroke-width="6.525" d="m92.5795,61.9223a32.6855,27.2085 0 1,1 -65.371,0 32.6855,27.2085 0 1,1 65.371,0z" transform="matrix(0 .13983 -.16798 0 58.40157 39.62501)"/>
<path opacity=".5" fill="url(#radialGradient4012)" fill-rule="evenodd" stroke="url(#linearGradient4014)" stroke-width="3.778" d="m92.5795,61.9223a32.6855,27.2085 0 1,1 -65.371,0 32.6855,27.2085 0 1,1 65.371,0z" transform="matrix(0 .24152 -.29014 0 65.96635 33.53436)"/>
</g>
<path opacity=".8" fill="#fff" filter="url(#filter4035)" d="m57.3125,33.2188-9.3125,34.7812 31.1875-18c-4.7739-8.2686-12.6525-14.3101-21.875-16.7812zm-9.3125,34.7812-31.1875,18c4.7739,8.2686 12.6525,14.3101 21.875,16.7812l9.3125-34.7812z" clip-path="url(#clipPath4031)" transform="matrix(.83099 0 0 .83099 8.11268 -8.50704)"/>
<g opacity=".6" filter="url(#filter4195)" clip-path="url(#clipPath4187)" transform="matrix(.83099 0 0 .83099 8.11268 -66.67606)">
<path fill="#7137c8" d="m60.9475,57.7841a20.7081,18.8141 0 0,1 -2.6155,2.9059l-14.6429-13.3036z" transform="matrix(1.50554 .86922 -.95673 1.6571 27.5603 21.50017)"/>
<path fill="#0cf" d="m60.7794,58.0108a20.7081,18.8141 0 0,1 -3.384,3.4788l-13.7062-14.1033z" transform="matrix(1.67921 .44994 -.49524 1.84826 -1.89561 30.75998)"/>
<path fill="#fc0" d="m62.7238,54.7957a20.7081,18.8141 0 0,1 -2.2597,3.6221l-16.775-11.0314z" transform="matrix(1.73845 0 -0 1.91346 -27.95122 47.32803)"/>
<path fill="#f00" d="m61.6229,56.7935a20.7081,18.8141 0 0,1 -1.6993,2.2728l-16.2345-11.6798z" transform="matrix(1.67921 -.44994 .49524 1.84826 -48.83088 70.07522)"/>
<path fill="#0f0" d="m63.1233,53.8834a20.7081,18.8141 0 0,1 -2.37,4.1619l-17.0642-10.659z" transform="matrix(1.67921 .44994 -.49524 1.84826 -1.89561 30.75998)"/>
<path fill="#7137c8" d="m60.9475,57.7841a20.7081,18.8141 0 0,1 -2.6155,2.9059l-14.6429-13.3036z" transform="matrix(-1.50554 -.86922 .95673 -1.6571 68.43968 254.49984)"/>
<path fill="#0cf" d="m60.7794,58.0108a20.7081,18.8141 0 0,1 -3.384,3.4788l-13.7062-14.1033z" transform="matrix(-1.67921 -.44994 .49524 -1.84826 97.8956 245.24003)"/>
<path fill="#fc0" d="m62.7238,54.7957a20.7081,18.8141 0 0,1 -2.2597,3.6221l-16.775-11.0314z" transform="matrix(-1.73845 0 0 -1.91346 123.9512 228.67198)"/>
<path fill="#f00" d="m61.6229,56.7935a20.7081,18.8141 0 0,1 -1.6993,2.2728l-16.2345-11.6798z" transform="matrix(-1.67921 .44994 -.49524 -1.84826 144.83086 205.92479)"/>
<path fill="#0f0" d="m63.1233,53.8834a20.7081,18.8141 0 0,1 -2.37,4.1619l-17.0642-10.659z" transform="matrix(-1.67921 -.44994 .49524 -1.84826 97.8956 245.24003)"/>
</g>
<g fill="#fff">
<path opacity=".3" d="m48,35.9507c-6.6546,0-12.0493,5.3947-12.0493,12.0493 0,6.6546 5.3947,12.0493 12.0493,12.0493 6.6546,0 12.0493-5.3947 12.0493-12.0493 0-6.6546-5.3947-12.0493-12.0493-12.0493zm0,2.0775c5.5073,0 9.9718,4.4645 9.9718,9.9718 0,5.5073-4.4645,9.9718-9.9718,9.9718-5.5073,0-9.9718-4.4645-9.9718-9.9718 0-5.5073 4.4645-9.9718 9.9718-9.9718z"/>
<path opacity=".4" d="m-52,18.0845c-16.5219,0-29.9155,13.3936-29.9155,29.9155 0,.2801 .0183,.5527 .0259,.831 .4436-16.1346 13.6478-29.0845 29.8896-29.0845 16.2418,0 29.446,12.9499 29.8895,29.0845 .0076-.2783 .026-.5509 .026-.831-0-16.5219-13.3936-29.9155-29.9155-29.9155z"/>
</g>
<g color="#000">
<path opacity=".4" fill="#fff" d="m48,18c-16.5685,0-30,13.4315-30,30 0,.169-.0028,.3317 0,.5 .2701-16.3351 13.6005-29.5 30-29.5 16.3995,0 29.7299,13.1649 30,29.5 .0028-.1683 0-.331 0-.5 0-16.5685-13.4315-30-30-30z"/>
<path fill="url(#linearGradient4770)" d="m78,48a30,30 0 1,1 -60,0 30,30 0 1,1 60,0z"/>
<path fill="url(#linearGradient4760)" d="m48,18c-16.5685,0-30,13.4315-30,30 0,16.5685 13.4315,30 30,30 16.5685,0 30-13.4315 30-30 0-16.5685-13.4315-30-30-30zm0,2c15.464,0 28,12.536 28,28 0,15.464-12.536,28-28,28-15.464,0-28-12.536-28-28 0-15.464 12.536-28 28-28z"/>
</g>
<g transform="matrix(.98638 -.16449 .16449 .98638 -7.2417 8.54934)">
<path fill="url(#radialGradient4853)" color="#000" d="m47.9912,45c-2.055,0-8.836-17.0411-7.9037-19.6728 1.6084-4.54 14.0539-4.3313 15.8075,0 1.0334,2.5525-5.8488,19.6728-7.9037,19.6728z"/>
<g fill="#ff821d">
<path d="m45.7319,38.9067-4.3918-13.2708 2.0049-.9547 2.3868,14.2256z"/>
<path d="m47.9278,41.2935-1.5276-14.512 2.0049,0-.4774,14.512z"/>
<path d="m49.7418,23.3445-.0955,11.5523 1.814-11.7433-1.7185,.1909z"/>
<path d="m53.4653,25.8268-3.4371,14.1301 4.9646-13.8437-1.5276-.2864z"/>
</g>
</g>
<g transform="matrix(.73457 .67853 -.67853 .73457 45.3104 -19.82895)">
<path fill="url(#radialGradient4823)" color="#000" d="m47.9912,45c-2.055,0-8.836-17.0411-7.9037-19.6728 1.6084-4.54 14.0539-4.3313 15.8075,0 1.0334,2.5525-5.8488,19.6728-7.9037,19.6728z"/>
<g fill="#ff821d">
<path d="m45.7319,38.9067-4.3918-13.2708 2.0049-.9547 2.3868,14.2256z"/>
<path d="m47.9278,41.2935-1.5276-14.512 2.0049,0-.4774,14.512z"/>
<path d="m49.7418,23.3445-.0955,11.5523 1.814-11.7433-1.7185,.1909z"/>
<path d="m53.4653,25.8268-3.4371,14.1301 4.9646-13.8437-1.5276-.2864z"/>
</g>
</g>
<g transform="matrix(.47072 -.88228 .88228 .47072 -16.94409 67.75514)">
<path fill="url(#radialGradient4837)" color="#000" d="m47.9912,45c-2.055,0-8.836-17.0411-7.9037-19.6728 1.6084-4.54 14.0539-4.3313 15.8075,0 1.0334,2.5525-5.8488,19.6728-7.9037,19.6728z"/>
<g fill="#ff821d">
<path d="m45.7319,38.9067-4.3918-13.2708 2.0049-.9547 2.3868,14.2256z"/>
<path d="m47.9278,41.2935-1.5276-14.512 2.0049,0-.4774,14.512z"/>
<path d="m49.7418,23.3445-.0955,11.5523 1.814-11.7433-1.7185,.1909z"/>
<path d="m53.4653,25.8268-3.4371,14.1301 4.9646-13.8437-1.5276-.2864z"/>
</g>
</g>
<g transform="matrix(-.40669 -.91357 .91357 -.40669 23.66961 111.37217)">
<path fill="url(#radialGradient4851)" color="#000" d="m47.9912,45c-2.055,0-8.836-17.0411-7.9037-19.6728 1.6084-4.54 14.0539-4.3313 15.8075,0 1.0334,2.5525-5.8488,19.6728-7.9037,19.6728z"/>
<g fill="#ff821d">
<path d="m45.7319,38.9067-4.3918-13.2708 2.0049-.9547 2.3868,14.2256z"/>
<path d="m47.9278,41.2935-1.5276-14.512 2.0049,0-.4774,14.512z"/>
<path d="m49.7418,23.3445-.0955,11.5523 1.814-11.7433-1.7185,.1909z"/>
<path d="m53.4653,25.8268-3.4371,14.1301 4.9646-13.8437-1.5276-.2864z"/>
</g>
</g>
<path fill="url(#linearGradient3706)" d="m12,6h72a6,6 0 0,1 6,6v72a6,6 0 0,1 -6,6h-72a6,6 0 0,1 -6-6v-72a6,6 0 0,1 6-6"/>
<path opacity=".5" fill="url(#linearGradient3923)" d="m12,6c-3.324,0-6,2.676-6,6v2 68 2c0,.3347 .0413,.6507 .0938,.9688 .0487,.2956 .097,.5969 .1875,.875 .0099,.0304 .0209,.0636 .0312,.0938 .0989,.2878 .2349,.5475 .375,.8125 .1446,.2735 .3156,.5356 .5,.7812 .1844,.2456 .3738,.4735 .5938,.6875 .4399,.4281 .9429,.8145 1.5,1.0938 .2785,.1396 .5735,.2469 .875,.3438-.2562-.1002-.4867-.2363-.7188-.375-.0074-.0044-.0239,.0045-.0312,0-.0319-.0193-.0623-.0425-.0938-.0625-.1204-.0767-.231-.1635-.3438-.25-.1062-.0808-.2133-.1611-.3125-.25-.1779-.1614-.3475-.3454-.5-.5312-.1076-.1303-.2184-.2653-.3125-.4062-.0251-.0384-.0385-.0859-.0625-.125-.0648-.103-.1302-.2045-.1875-.3125-.101-.1947-.2057-.4157-.2812-.625-.008-.0218-.0236-.0405-.0312-.0625-.0318-.0919-.0358-.1868-.0625-.2812-.0303-.1066-.0704-.203-.0938-.3125-.0729-.3415-.125-.6982-.125-1.0625v-2-68-2c0-2.7818 2.2182-5 5-5h2 68 2c2.7818,0 5,2.2182 5,5v2 68 2c0,.3643-.0521,.721-.125,1.0625-.0442,.2069-.0884,.3977-.1562,.5938-.0077,.022-.0233,.0407-.0312,.0625-.0627,.1737-.1384,.3674-.2188,.5312-.0416,.0828-.079,.17-.125,.25-.0546,.0972-.1268,.1883-.1875,.2812-.0941,.141-.2049,.276-.3125,.4062-.1432,.1744-.3031,.347-.4688,.5-.0112,.0102-.02,.0212-.0312,.0312-.1384,.1256-.2851,.2344-.4375,.3438-.1026,.0731-.2043,.1534-.3125,.2188-.0074,.0045-.0238-.0044-.0312,0-.232,.1387-.4625,.2748-.7188,.375 .3015-.0968 .5965-.2041 .875-.3438 .5571-.2792 1.0601-.6657 1.5-1.0938 .22-.214 .4094-.4419 .5938-.6875 .1844-.2456 .3554-.5077 .5-.7812 .1401-.265 .2761-.5247 .375-.8125 .0104-.0308 .0213-.0627 .0312-.0938 .0905-.2781 .1388-.5794 .1875-.875 .0524-.318 .0938-.634 .0938-.9688v-2-68-2c0-3.324-2.676-6-6-6h-72z"/>
<path opacity=".3" fill="url(#linearGradient4729)" color="#000" d="m6,52 0,32c0,3.324 2.676,6 6,6h72c3.324,0 6-2.676 6-6v-32h-84z"/>
<path opacity=".4" fill="url(#radialGradient2886)" d="m12,90c-3.324,0-6-2.676-6-6v-2-68-2c0-.3347 .0413-.6507 .0938-.9688 .0487-.2956 .097-.5969 .1875-.875 .0099-.0304 .0209-.0636 .0312-.0938 .0989-.2878 .2349-.5475 .375-.8125 .1446-.2735 .3156-.5356 .5-.7812 .1844-.2456 .3738-.4735 .5938-.6875 .4399-.4281 .9429-.8145 1.5-1.0938 .2785-.1396 .5735-.2469 .875-.3438-.2562,.1002-.4867,.2363-.7188,.375-.0074,.0044-.0239-.0045-.0312,0-.0319,.0193-.0623,.0425-.0938,.0625-.1204,.0767-.231,.1635-.3438,.25-.1062,.0808-.2133,.1611-.3125,.25-.1779,.1614-.3475,.3454-.5,.5312-.1076,.1303-.2184,.2653-.3125,.4062-.0251,.0384-.0384,.0859-.0625,.125-.0648,.103-.1302,.2045-.1875,.3125-.101,.1947-.2057,.4157-.2812,.625-.008,.0218-.0236,.0405-.0312,.0625-.0318,.092-.0358,.1868-.0625,.2812-.0303,.1066-.0704,.203-.0938,.3125-.0729,.3415-.125,.6982-.125,1.0625v2 68 2c0,2.7818 2.2182,5 5,5h2 68 2c2.7818,0 5-2.2182 5-5v-2-68-2c0-.3643-.0521-.721-.125-1.0625-.0442-.2069-.0884-.3977-.1562-.5938-.0077-.022-.0233-.0407-.0312-.0625-.0627-.1737-.1384-.3674-.2188-.5312-.0416-.0828-.079-.17-.125-.25-.0546-.0972-.1268-.1883-.1875-.2812-.0941-.141-.2049-.276-.3125-.4062-.1432-.1745-.3031-.347-.4688-.5-.0112-.0102-.02-.0211-.0312-.0312-.1384-.1256-.2851-.2344-.4375-.3438-.1026-.0732-.2043-.1534-.3125-.2188-.0074-.0045-.0238,.0044-.0312,0-.232-.1387-.4625-.2748-.7188-.375 .3015,.0968 .5965,.2041 .875,.3438 .5571,.2792 1.0601,.6657 1.5,1.0938 .22,.214 .4094,.4419 .5938,.6875 .1844,.2456 .3554,.5077 .5,.7812 .1401,.265 .2761,.5247 .375,.8125 .0104,.0308 .0213,.0627 .0312,.0938 .0905,.2781 .1388,.5794 .1875,.875 .0524,.318 .0938,.634 .0938,.9688v2 68 2c0,3.324-2.676,6-6,6h-72z"/>
<path fill="#f0f" d="m-88,6h72a6,6 0 0,1 6,6v72a6,6 0 0,1 -6,6h-72a6,6 0 0,1 -6-6v-72a6,6 0 0,1 6-6"/>
<path fill="#fff" stroke="#000" stroke-linecap="round" color="#000" stroke-width=".5" d="m112,8h16v16h-16z" stroke-dashoffset="8.6"/>
<text x="131.393" y="11.969" font-family="Liberation Sans" text-align="start" line-height="125%" xml:space="preserve" font-size="4px"><tspan x="131.393" y="11.969">Width: 2px</tspan><tspan x="131.393" y="16.969">Blur: 12</tspan><tspan x="131.393" y="21.969">Opacity: 60</tspan>
</text>
<path fill="url(#linearGradient3815)" d="m-88,6h72a6,6 0 0,1 6,6v72a6,6 0 0,1 -6,6h-72a6,6 0 0,1 -6-6v-72a6,6 0 0,1 6-6"/>
<g color="#000">
<path opacity=".4" fill="url(#linearGradient4708)" d="m14-90h16v84h-16z" transform="scale(1 -1)"/>
<path opacity=".4" fill="url(#linearGradient4712)" d="m36-90h4v84h-4z" transform="scale(1 -1)"/>
<path opacity=".1" fill="#ff7200" d="m6,52h84v1h-84z"/>
<path opacity=".3" fill="url(#linearGradient4875)" d="m72.029,6h7.971v84h-7.971z"/>
</g>
</svg>
