<svg xmlns="http://www.w3.org/2000/svg" viewBox="0 0 96 96" xmlns:xlink="http://www.w3.org/1999/xlink">
<defs>
<clipPath id="clipPath3613">
<path fill="#fff" d="m12,6h72a6,6 0 0,1 6,6v72a6,6 0 0,1 -6,6h-72a6,6 0 0,1 -6-6v-72a6,6 0 0,1 6-6"/>
</clipPath>
<filter width="1.384" x="-.192" y="-.192" height="1.384" color-interpolation-filters="sRGB" id="filter3794-6">
<feGaussianBlur stdDeviation="5.28"/>
</filter>
<linearGradient gradientTransform="translate(0 -97)" id="linearGradient3721" xlink:href="#ButtonShadow-0" y1="6.132" y2="90.239" x2="0" gradientUnits="userSpaceOnUse"/>
<linearGradient id="linearGradient2908" xlink:href="#linearGradient3737-9" y1="20.221" y2="138.661" x2="0" gradientUnits="userSpaceOnUse"/>
<linearGradient gradientTransform="matrix(1.02381 0 0 1.0119 -1.14286 -98.07143)" id="linearGradient3780" xlink:href="#ButtonShadow-0" y1="6.132" y2="90.239" x2="0" gradientUnits="userSpaceOnUse"/>
<linearGradient gradientTransform="matrix(1.00587 0 0 .99417 100 0)" id="ButtonShadow-0" y1="92.54" y2="7.017" x2="0" gradientUnits="userSpaceOnUse">
<stop offset="0"/>
<stop offset="1" stop-opacity=".588"/>
</linearGradient>
<linearGradient id="linearGradient3737">
<stop offset="0" stop-color="#fff"/>
<stop offset="1" stop-color="#fff" stop-opacity="0"/>
</linearGradient>
<linearGradient id="linearGradient3700">
<stop offset="0" stop-color="#7fb718"/>
<stop offset="1" stop-color="#7fb718"/>
</linearGradient>
<linearGradient id="linearGradient3706" xlink:href="#linearGradient3700" y1="90" y2="5.988" x2="0" gradientUnits="userSpaceOnUse"/>
<linearGradient id="linearGradient3188" xlink:href="#linearGradient3737" y1="6" y2="63.893" x2="0" gradientUnits="userSpaceOnUse"/>
<linearGradient id="linearGradient3737-9">
<stop offset="0" stop-color="#fff"/>
<stop offset="1" stop-color="#fff" stop-opacity="0"/>
</linearGradient>
<radialGradient cx="48" cy="90.172" gradientTransform="matrix(1.15731 0 0 .99591 -7.55102 .19713)" r="42" id="radialGradient2874" gradientUnits="userSpaceOnUse">
<stop offset="0" stop-color="#fff"/>
<stop offset="1" stop-color="#fff" stop-opacity="0"/>
</radialGradient>
</defs>
<path opacity=".08" fill="url(#linearGradient3780)" d="m12-95.0312c-5.5111,0-10.0312,4.5202-10.0312,10.0312v71c0,5.5111 4.5202,10.0312 10.0312,10.0312h72c5.5111,0 10.0312-4.5202 10.0312-10.0312v-71c0-5.5111-4.5202-10.0312-10.0312-10.0312h-72z" transform="scale(1 -1)"/>
<path opacity=".1" fill="url(#linearGradient3780)" d="m12-94.0312c-4.9716,0-9.0312,4.0596-9.0312,9.0312v71c0,4.9716 4.0596,9.0312 9.0312,9.0312h72c4.9716,0 9.0312-4.0596 9.0312-9.0312v-71c0-4.9716-4.0596-9.0312-9.0312-9.0312h-72z" transform="scale(1 -1)"/>
<path opacity=".2" fill="url(#linearGradient3780)" d="m12-93c-4.4091,0-8,3.5909-8,8v71c0,4.4091 3.5909,8 8,8h72c4.4091,0 8-3.5909 8-8v-71c0-4.4091-3.5909-8-8-8h-72z" transform="scale(1 -1)"/>
<path opacity=".3" fill="url(#linearGradient3780)" d="m12-92h72a7,7 0 0,1 7,7v71a7,7 0 0,1 -7,7h-72a7,7 0 0,1 -7-7v-71a7,7 0 0,1 7-7" transform="scale(1 -1)"/>
<path opacity=".45" fill="url(#linearGradient3721)" d="m12-91h72a6,6 0 0,1 6,6v72a6,6 0 0,1 -6,6h-72a6,6 0 0,1 -6-6v-72a6,6 0 0,1 6-6" transform="scale(1 -1)"/>
<path fill="url(#linearGradient3706)" d="m12,6h72a6,6 0 0,1 6,6v72a6,6 0 0,1 -6,6h-72a6,6 0 0,1 -6-6v-72a6,6 0 0,1 6-6"/>
<path opacity=".5" fill="url(#linearGradient3188)" d="m12,6c-3.324,0-6,2.676-6,6v2 68 2c0,.3347 .0413,.6507 .0938,.9688 .0487,.2956 .097,.5969 .1875,.875 .0099,.0304 .0209,.0636 .0312,.0938 .0989,.2878 .2349,.5475 .375,.8125 .1446,.2735 .3156,.5356 .5,.7812 .1844,.2456 .3738,.4735 .5938,.6875 .4399,.4281 .9429,.8145 1.5,1.0938 .2785,.1396 .5735,.2469 .875,.3438-.2562-.1002-.4867-.2363-.7188-.375-.0074-.0044-.0239,.0045-.0312,0-.0319-.0193-.0623-.0425-.0938-.0625-.1204-.0767-.231-.1635-.3438-.25-.1062-.0808-.2133-.1611-.3125-.25-.1779-.1614-.3475-.3454-.5-.5312-.1076-.1303-.2184-.2653-.3125-.4062-.0251-.0384-.0384-.0859-.0625-.125-.0648-.103-.1302-.2045-.1875-.3125-.101-.1947-.2057-.4157-.2812-.625-.008-.0218-.0236-.0405-.0312-.0625-.0318-.0919-.0358-.1868-.0625-.2812-.0303-.1066-.0704-.203-.0938-.3125-.0729-.3415-.125-.6982-.125-1.0625v-2-68-2c0-2.7818 2.2182-5 5-5h2 68 2c2.7818,0 5,2.2182 5,5v2 68 2c0,.3643-.0521,.721-.125,1.0625-.0442,.2069-.0884,.3977-.1562,.5938-.0077,.022-.0233,.0407-.0312,.0625-.0627,.1737-.1384,.3674-.2188,.5312-.0416,.0828-.079,.17-.125,.25-.0546,.0972-.1268,.1883-.1875,.2812-.0941,.141-.2049,.276-.3125,.4062-.1432,.1744-.3031,.347-.4688,.5-.0112,.0102-.02,.0212-.0312,.0312-.1384,.1256-.2851,.2344-.4375,.3438-.1026,.0731-.2043,.1534-.3125,.2188-.0074,.0045-.0238-.0044-.0312,0-.232,.1387-.4625,.2748-.7188,.375 .3015-.0968 .5965-.2041 .875-.3438 .5571-.2792 1.0601-.6657 1.5-1.0938 .22-.214 .4094-.4419 .5938-.6875 .1844-.2456 .3554-.5077 .5-.7812 .1401-.265 .2761-.5247 .375-.8125 .0104-.0308 .0213-.0627 .0312-.0938 .0905-.2781 .1388-.5794 .1875-.875 .0524-.318 .0938-.634 .0938-.9688v-2-68-2c0-3.324-2.676-6-6-6h-72z"/>
<path opacity=".25" fill="url(#radialGradient2874)" d="m12,90c-3.324,0-6-2.676-6-6v-2-68-2c0-.3347 .0413-.6507 .0938-.9688 .0487-.2956 .097-.5969 .1875-.875 .0099-.0304 .0209-.0636 .0312-.0938 .0989-.2878 .2349-.5475 .375-.8125 .1446-.2735 .3156-.5356 .5-.7812 .1844-.2456 .3738-.4735 .5938-.6875 .4399-.4281 .9429-.8145 1.5-1.0938 .2785-.1396 .5735-.2469 .875-.3438-.2562,.1002-.4867,.2363-.7188,.375-.0074,.0044-.0239-.0045-.0312,0-.0319,.0193-.0623,.0425-.0938,.0625-.1204,.0767-.231,.1635-.3438,.25-.1062,.0808-.2133,.1611-.3125,.25-.1779,.1614-.3475,.3454-.5,.5312-.1076,.1303-.2184,.2653-.3125,.4062-.0251,.0384-.0384,.0859-.0625,.125-.0648,.103-.1302,.2045-.1875,.3125-.101,.1947-.2057,.4157-.2812,.625-.008,.0218-.0236,.0405-.0312,.0625-.0318,.092-.0358,.1868-.0625,.2812-.0303,.1066-.0704,.203-.0938,.3125-.0729,.3415-.125,.6982-.125,1.0625v2 68 2c0,2.7818 2.2182,5 5,5h2 68 2c2.7818,0 5-2.2182 5-5v-2-68-2c0-.3643-.0521-.721-.125-1.0625-.0442-.2069-.0884-.3977-.1562-.5938-.0077-.022-.0233-.0407-.0312-.0625-.0627-.1737-.1384-.3674-.2188-.5312-.0416-.0828-.079-.17-.125-.25-.0546-.0972-.1268-.1883-.1875-.2812-.0941-.141-.2049-.276-.3125-.4062-.1432-.1745-.3031-.347-.4688-.5-.0112-.0102-.02-.0211-.0312-.0312-.1384-.1256-.2851-.2344-.4375-.3438-.1026-.0732-.2043-.1534-.3125-.2188-.0074-.0045-.0238,.0044-.0312,0-.232-.1387-.4625-.2748-.7188-.375 .3015,.0968 .5965,.2041 .875,.3438 .5571,.2792 1.0601,.6657 1.5,1.0938 .22,.214 .4094,.4419 .5938,.6875 .1844,.2456 .3554,.5077 .5,.7812 .1401,.265 .2761,.5247 .375,.8125 .0104,.0308 .0213,.0627 .0312,.0938 .0905,.2781 .1388,.5794 .1875,.875 .0524,.318 .0938,.634 .0938,.9688v2 68 2c0,3.324-2.676,6-6,6h-72z"/>
<path opacity=".15" fill="url(#linearGradient2908)" filter="url(#filter3794-6)" stroke="#fff" stroke-linecap="round" stroke-width=".5" d="m27,15h42a12,12 0 0,1 12,12v42a12,12 0 0,1 -12,12h-42a12,12 0 0,1 -12-12v-42a12,12 0 0,1 12-12" clip-path="url(#clipPath3613)"/>
<path fill="#599227" d="m70.7812,58.5312-1.8125,.0312a1.4244,1.4244 0 0,0 -.0312,0c-.8551,.0351-1.3748,.0635-1.9688,.25-.594,.1865-1.0838,.6353-1.3438,.9375-.2727,.317-.5843,.8267-.7188,1.375-.1345,.5483-.1562,1.0535-.1562,1.8125v.25h-.4688a1.4244,1.4244 0 0,0 -.2188,.0312v-.9062-1.0625a1.4244,1.4244 0 0,0 -1.4375-1.4375h-1.1562-1.1562a1.4244,1.4244 0 0,0 -1.4375,1.4375v.9375c0,.2832-.004,.5323 .0625,.875 .0068,.0348 .0528,.0873 .0625,.125a1.4244,1.4244 0 0,0 -.4375,.0938 1.4244,1.4244 0 0,0 -.4375-.0938h-1.2188v-.25-1.6875a1.4244,1.4244 0 0,0 -1.4375-1.4375h-1.1562-1.1562a1.4244,1.4244 0 0,0 -1.4375,1.5l.0625,1.5625v.0625 .2812c-.0415,.0053-.0801-.0072-.125,0-.0628,.01-.1993,.1072-.2812,.125-1.1294-2.1455-3.2833-3.5264-5.8125-3.5625-3.0653-.0437-5.6983,1.8935-6.625,4.9062-.0032,.0104 .0032,.0209 0,.0312-1.0378-1.0492-2.4267-1.7491-4-1.75-.9655-.0006-1.8237,.2549-2.5938,.625a1.4244,1.4244 0 0,0 -1-.4062h-1.8125-1.1875v-1.0625a1.4244,1.4244 0 0,0 -1.4375-1.4688h-.9375c-.4683,0-.7972-.1897-1.5938,.3125-.1146,.0722-.1256,.2067-.2188,.3125-1.103-.6214-2.3153-.993-3.5312-.9375-1.8586,.0849-3.6821,.936-4.875,2.5-.634,.8312-.9036,1.8225-.9688,2.8125-.0652,.99 .0608,2.0154 .5312,2.9375 .4953,.9709 1.2847,1.8196 2.3125,2.3438 1.0278,.5241 2.2127,.7652 3.8125,.9688 .4433,.0564 .9357,.1407 1.3125,.2188 .3768,.0781 .7276,.2104 .5625,.125 .3605,.1864 .439,.3956 .4688,.5312 .0298,.1356 .0399,.2922-.1875,.5625-.3597,.4275-.9627,.6079-1.75,.4688-.7873-.1391-1.6186-.6375-2.0938-1.4062-.2366-.3828-.5156-.8534-1.125-1.1562-.6094-.3028-1.09-.2812-1.5938-.2812h-1.0312a1.4244,1.4244 0 0,0 -1.4375,1.4375v2.4062c0,.7034 .0504,1.3747 .0938,1.9375 .0217,.2814 .0282,.5546 .0625,.7812 .0343,.2266-.009,.3286 .25,.8125 .5179,.9677 1.2615,1.0622 1.9062,1.125 .3224,.0314 .6667,.0409 1.0312-.0625 .3645-.1034 .8024-.3075 1.125-.8125 .2209-.3458 .2117-.4752 .25-.625 .011-.0431 .0218-.0825 .0312-.125 1.038,.6094 2.1419,1.0312 3.4062,1.0312 1.448,0 2.7044-.5116 3.7812-1.2812-.2064,.5058-.1875,.8461-.1875,1.2188v.9375a1.4244,1.4244 0 0,0 1.4375,1.4375h2.5312 2.5312a1.4244,1.4244 0 0,0 1.4062-1.5312l-.0625-.9062c-.0239-.3298-.1214-.729-.3125-1.1562 2.2023,.4123 4.6363-.47 5.9375-2.5312 .4805-.7611 .7309-1.591 .9062-2.5 .7688,.8086 1.6781,1.4715 2.8125,1.8438 .8728,.2864 1.6635,.2241 2.5312,.125 .8678-.0991 1.7065-.2362 2.4688-.625 1.5951-.8138 2.6794-2.2745 3.2812-3.9375v.4062c.043,2.1884 .053,3.382 .3438,4.4375 .2907,1.0555 1.2202,1.8482 1.9688,2.2188 .8739,.4326 1.79,.556 2.6562,.5625 .4331,.0032 .8427-.0269 1.2812-.1562 .0654-.0193 .1503-.0683 .2188-.0938a1.4244,1.4244 0 0,0 .8125,.25h2.4062 2.4375a1.4244,1.4244 0 0,0 .5-.0938 1.4244,1.4244 0 0,0 .5625,.125l2.4688-.0625 2.4688-.0625a1.4244,1.4244 0 0,0 1.375-1.3438l.0625-.9062 .0625-.875a1.4244,1.4244 0 0,0 -1.4062-1.5312h-.0312v-2.4688-2.4062h.375l1.5,4 1.625,4.375-.0938,.2188c-.0107,.0218 .0088,.0137 0,.0312 .0101-.0154 .0684-.0514-.2812-.0312a1.4244,1.4244 0 0,0 -.0312,.0312l-1.125,.0938a1.4244,1.4244 0 0,0 -1.3125,1.4062v.9375 .9688a1.4244,1.4244 0 0,0 1.5,1.4375l1.7188-.0938c.6867-.0312 1.1703-.0809 1.6562-.1875 .4859-.1066 1.0173-.3923 1.3438-.7188 .2946-.2946 .3268-.3798 .4062-.5312 .0795-.1514 .1361-.3112 .2188-.5 .1654-.3777 .3704-.8779 .5938-1.4688 .4466-1.1817 .9946-2.7947 1.625-4.6875 .9336-2.8031 1.4639-4.3569 1.7812-5.125 .1587-.384 .3016-.5584 .2812-.5312-.0204,.0271-.3678,.2503-.5,.2812 .2069-.0484 .4941-.3256 .7812-.5312 .2866,.1961 .6295,.375 .9062,.375 .1879,0 .3211-.149 .5-.2188 .0407,.0242 .0455,.0395 .0938,.0625 .2683,.1277 .7094,.2 1.0625,.0938 .0243-.0073 .0082-.0234 .0312-.0312 .1194,.0333 .132,.0938 .3125,.0938 .0838,0 .1078-.0786 .1875-.0938 .3171,.1294 .5988,.3246 .9688,.1875 .5859-.2172 .7507-.5592 .8438-.75 .1862-.3815 .163-.5594 .1875-.7812 .0245-.2219 .0625-.4525 .0625-.7188 0-.481-.0561-.9073-.2812-1.375-.1126-.2338-.2759-.4869-.625-.7188-.3491-.2318-.9324-.3357-1.375-.1875-.0443,.0148-.0527,.046-.0938,.0625-.3218-.1234-.7688-.2-1.125-.0625-.0268,.0103-.0372,.0203-.0625,.0312-.2436-.0442-.5129-.125-.7188-.125-.2086,0-.4927,.1072-.75,.1562a1.4244,1.4244 0 0,0 -.0312,0 1.4244,1.4244 0 0,0 -.5625-.1562h-2.2188-2.2188a1.4244,1.4244 0 0,0 -1.25,.75 1.4244,1.4244 0 0,0 -1.25-.75h-3.0625-1.6562c.0049-.0294-.0005-.0517 0-.0625 .0672-.003 .0671,0 .1562,0 .193,0 .3517,.0099 .625-.0312 .2733-.0411 .7892-.1968 1.125-.5938 .3358-.397 .3807-.7868 .4062-1.0312 .0256-.2444 .0312-.4406 .0312-.6562v-.8438a1.4244,1.4244 0 0,0 -1.4688-1.4375zm-25.4688,6.0625c.6472,0 .9091,.1158 1.0938,.2812 .1846,.1655 .387,.4891 .5312,1.25 .169,.8912-.2294,2.7117-.4688,3.0625-.0272,.0398-.2951,.3064-.5938,.4688-.2986,.1623-.6485,.2187-.625,.2188 .3319,.0011-.2405-.0562-.3125-.0938-.8315-.4337-1.0312-.8062-1.0312-2.3438 0-1.4212 .2377-2.0815 .75-2.5938 .4842-.4842-.0149-.25 .6562-.25zm-24.0625,.7188c.9284,0 1.7501,.4461 2.1875,1.1875 .0711,.1204 .2567,.244 .3438,.375-.7558-.183-1.5206-.3341-2.4375-.4375-.7952-.0897-1.3039-.4319-1.4688-.5938 .3059-.451 .4392-.5312 1.375-.5312zm54.5625,.9375c.0053,.2191-.0738,.3633 .125,.75 .1068,.2076 .3467,.3101 .5625,.4688-.1509,.4996-.3308,1.0744-.5312,1.7188-.2592-.6856-.5027-1.3375-.7188-1.9688 .1301-.1116 .2895-.105 .375-.25 .1689-.2867 .1473-.4912 .1875-.7188zm-16.9375,1.3438 0,2.6875 0,2.75c-.0748,.0255-.1356,.1152-.2188,.1562-.0131-.0091-.0179-.0226-.0312-.0312-.6797-.4369-1.0739-.3125-1.4688-.3125-.3058,0-.3479-.0667-.25,.0312-.0702-.0702 .1057,.3119 .0625-.0625-.0432-.3744-.0625-1.2584-.0625-2.8438v-2.0312h1.0625a1.4244,1.4244 0 0,0 .9062-.3438zm5.2188,0c.1492,.0589 .3257,.1973 .4375,.2188 .0837,.0161 .1456,.0221 .2188,.0312v2.5625 2.625c-.0942,.0314-.1751,.1316-.2812,.1875-.1137-.0797-.2085-.2083-.3125-.25l-.0625-3.5625v-.0312-1.7812zm-36.6562,.0625c.0468,.0201 .0816,.079 .125,.0938v1.2812c-.2119-.2513-.3271-.5733-.5938-.7812-.2128-.1659-.5141-.2361-.75-.375l.75-.0938a1.4244,1.4244 0 0,0 .4688-.125zm6.7812,.0625c.3825-.0372 .7122,.1132 .6875,.0938 .0484,.0381 .5141,.8021 .6562,1.75 .1421,.9479 .0479,2.053-.1875,2.625-.1951,.4741-.4856,.6876-.75,.7812-.2644,.0937-.526,.0883-.8438-.125-.7026-.4716-.9062-.9094-.9062-2.5625 0-1.5192 .3292-2.1023 .8438-2.4062 .0806-.0476 .3268-.1394 .5-.1562z" transform="translate(0 2)"/>
<path fill="#fff" d="m70.8165,61.9599-1.8028,.0523c-1.6724,.0686-1.8292,.1328-2.2993,.6793-.4439,.5161-.5226,.7858-.5226,2.247v1.6722h-.9406-.9667l.0523,.8884c.0643,.8884 .0783,.9025 .9667,.9667l.8884,.0523v3.8931 3.8669h-.6271c-.6075,0-.6271,.0229-.6271,.9406v.9667l2.456-.0523 2.4822-.0783 .0523-.8884 .0783-.8884h-.7577-.7316v-3.8931-3.8931l1.4109,.0261h1.4109l1.8551,4.9382 1.829,4.9643-.3658,.7577c-.3507,.7172-.4274,.7765-1.4632,.8361l-1.1235,.0783v.9406 .9667l1.6983-.0783c1.3376-.0608 1.7504-.1566 2.0902-.4964 .2589-.2589 1.23-2.8509 2.4822-6.6104 1.8702-5.6151 2.1211-6.2141 2.5867-6.323 .4287-.1003 .5208-.2532 .5748-.9929l.0523-.8884h-2.2209-2.2209v.9406c0,.8683 .0402,.9406 .5226,.9406 .2888,0 .5487,.1045 .5487,.209 0,.1569-1.6583,5.4645-2.038,6.532-.0862,.2424-1.7277-3.9099-2.5083-6.3491-.0798-.2496 .024-.3696 .3658-.418 .4035-.0572 .4946-.2191 .5487-.9667l.0783-.8884h-3.057-3.057v-1.2541c0-1.4191 .2285-1.6722 1.5416-1.6722 .737,0 .7577-.0143 .7577-.8622v-.8622zm-25.2919,1.2541c-2.5379-.0362-4.4218,1.365-5.1995,3.8931-1.0815,3.516 .4592,6.9105 3.6057,7.9429 .8756,.2873 2.9839,.059 3.9192-.418 2.5449-1.2983 3.732-5.0124 2.5867-8.0735-.7848-2.0975-2.577-3.3111-4.9121-3.3444zm7.6294,.0261 .0523,1.6461 .0261,1.6199-.8622,.0783c-.8503,.063-.871,.0739-.7577,.7316 .1922,1.1156 .2708,1.1758 .9145,1.1758h.6271l.0523,3.8408c.0856,4.3571 .1996,4.7572 1.5154,5.4085 1.143,.5658 3.2095,.5956 3.3183,.0523 .0405-.2022 .0451-.6229 0-.9406-.0734-.517-.1576-.5748-.8884-.5748-.5363,0-.9781-.142-1.2541-.418-.3862-.3862-.418-.7071-.418-3.8931v-3.475h1.2541 1.228l.0783-.9406 .0783-.9406h-1.3064-1.3325v-1.6722-1.6983h-1.1758-1.1496zm7.1591,0 0,.9406c0,1.0376 .1089,1.1254 1.4109,1.1496l.9145,.0261v-1.0451-1.0712h-1.1758-1.1496zm-39.61,.5487c-1.4666,.067-2.9012,.7358-3.8147,1.9335-.7869,1.0317-.9179,2.9707-.2874,4.2066 .8039,1.5758 1.9528,2.1707 5.0166,2.5605 .9545,.1214 2.0132,.3476 2.3515,.5226 1.3495,.6978 1.6721,2.1221 .7316,3.2399-1.481,1.7601-4.7553,1.1855-6.1662-1.0974-.4335-.7014-.556-.7577-1.5154-.7577h-1.019v2.4299c0,1.3363 .0894,2.5983 .209,2.8218 .2487,.4646 1.3526,.5752 1.6199,.1568 .0923-.1444 .2023-.7703 .2613-1.3848l.1045-1.1235 .8884,.7577c1.1913,1.0221 2.1188,1.3848 3.6318,1.3848 1.505,0 2.5671-.4095 3.5273-1.3325 .927-.8911 1.3064-1.8253 1.3064-3.2921 0-3.0704-1.766-4.4443-6.3752-4.9643-2.1212-.2393-3.3511-1.5245-2.5867-2.6912 .5936-.906 1.3623-1.2803 2.6651-1.2803 1.4126,0 2.697,.7215 3.3966,1.9073 .3968,.6726 .5125,.7373 1.3064,.6793l.8622-.0783 .0523-2.1425 .0523-2.1425h-.9406c-.9185,0-.9667,.0196-.9667,.6271 0,.3466-.0457,.6271-.1045,.6271-.0588,0-.4773-.2654-.9406-.6009-.9683-.7014-2.1253-1.0188-3.266-.9667zm24.6126,1.3587c1.7458,0 2.6726,.8285 3.0308,2.7173 .2548,1.3435-.0573,3.2165-.6793,4.1282-.4601,.6744-1.6705,1.3352-2.4299,1.3325-.1999-.0006-.62-.1202-.9406-.2874-1.2635-.6591-1.829-1.7822-1.829-3.6057 0-1.6311 .3749-2.7526 1.2019-3.5795 .5843-.5843 .8516-.7055 1.6461-.7055zm-10.3727,1.2541c-1.3857-.0008-2.1782,.279-2.848,1.019-.5481,.6057-.7577,.5598-.7577-.1829v-.6271h-1.8028-1.7767v.9406c0,.9103 .0202,.9406 .6271,.9406h.6271v5.6959 5.6698h-.6271c-.6069,0-.6271,.0303-.6271,.9406v.9406h2.5344 2.5344l-.0784-.8883c-.0605-.8357-.0894-.9079-.6793-.9145h-.6271l-.0784-1.6199c-.0338-.8915-.0243-1.6199 .0261-1.6199 .0504,0 .4145,.2821 .7838,.6271 1.8248,1.7046 4.9761,1.1974 6.3752-1.019 .7104-1.1254 .9654-2.2001 .9667-4.076 .0026-3.6139-1.7337-5.8249-4.5724-5.8265zm24.1161,.209 0,.8361c0,.7936 .0319,.8361 .6271,.8361h.6271v3.9976 3.9976h-.6271c-.6069,0-.6271,.0303-.6271,.9406v.9406h2.4038 2.4299v-.9145c0-.8598-.0415-.9576-.5748-1.019l-.5748-.0523-.0783-4.7814-.0523-4.7814h-1.7767-1.7767zm23.8549,0c-.5785,0-.7023,.0755-.6009,.3397 .1036,.2699 .1559,.2795 .3135,.0523 .1299-.1872 .1817-.03 .1306,.4964-.0528,.5453-.0059,.7838 .1829,.7838 .1748,0 .2854-.2794 .2874-.7838 .0026-.586 .0575-.7047 .209-.4703 .174,.2693 .1801,.2619 .1829-.0523 .0026-.2801-.1503-.3658-.7055-.3658zm2.4299,0c-.1223,.041-.2439,.215-.3397,.5748l-.1568,.5748-.209-.5748c-.3011-.8626-.6793-.7156-.6793,.2613 0,.8683 .2883,1.2059 .3135,.3658l.0261-.4703 .2352,.4703c.1254,.26 .294,.4703 .3919,.4703 .0979,0 .1738-.2103 .1829-.4703 .0156-.4457 .0609-.3929 .3135,.418 .168,.5393 .3135,.2359 .3135-.6793 0-.679-.1881-1.0089-.3919-.9406zm-51.2631,1.6983c.6415-.0625 1.289,.07 1.6983,.3919 1.1944,.9395 1.6838,4.1397 .9145,6.0094-.6656,1.6176-2.3477,2.2034-3.684,1.3064-1.1048-.7415-1.5677-1.8525-1.5677-3.7363 0-1.7945 .5254-3.0161 1.5677-3.6318 .3044-.1798 .6863-.3022 1.0712-.3397z"/>
<g stroke-linecap="round">
<path fill="#59962e" stroke="#59962e" d="m43.4037,60.0319c3.8839-.6696 6.6071,.8482 6.6071,.8482"/>
<path fill="#4b8123" stroke="#4b8123" stroke-width="1.4" d="m42.9126,57.7673c4.7321-1.0268 8.125,1.0714 8.125,1.0714"/>
<path fill="#3c721e" stroke="#3b6f1d" stroke-width="1.8" d="m42.574,54.9962c5.2679-1.2946 9.5536,1.0268 9.5536,1.0268"/>
</g>
<path fill="#4b8123" d="m47.2999,14.4791c-1.306,.0382-2.6174,.1809-3.9376,.4922a1.4925,1.4925 0 0,0 .6836,2.8985c8.9981-2.1218 18.0036,3.4163 20.1254,12.4143 .5704,2.4191 .5798,4.981 .0547,7.4103a1.4862,1.4862 0 1,0 2.8985,.5742c.6185-2.8614 .6172-5.7915-.0547-8.6408-2.1792-9.2412-10.628-15.4159-19.7699-15.1488zm.4375,6.3986c-.6595,.0058-1.3203,.0517-1.9961,.1641a1.4948,1.4948 0 1,0 .4649,2.9532c5.6248-.9353 10.9047,2.8246 11.8401,8.4494 .167,1.0042 .188,2.026 .0547,3.0352a1.4908,1.4908 0 1,0 2.9532,.4102c.1719-1.3006 .1605-2.6434-.0547-3.9376-1.049-6.3081-6.448-10.8414-12.6057-11.0744-.2199-.0083-.4364-.0019-.6563,0zm-8.6955,3.7462a1.4862,1.4862 0 0,0 -.875,.4922c-4.7567,5.1405-4.6832,13.1561 .1641,18.2113 5.0581,5.2751 13.4558,5.4409 18.7309,.3828a1.4907,1.4907 0 0,0 -2.0235-2.1602c-4.1157,3.9464-10.6281,3.8149-14.5745-.3008-3.779-3.9412-3.8178-10.102-.1094-14.1097a1.4862,1.4862 0 0,0 -1.1485-2.5157 1.4862,1.4862 0 0,0 -.1641,0zm8.8596,5.086c-2.4353,0-4.4024,1.9945-4.4024,4.4298 0,2.4353 1.9671,4.4024 4.4024,4.4024 2.4353,0 4.4024-1.9671 4.4024-4.4024 0-2.4353-1.9671-4.4298-4.4024-4.4298z"/>
</svg>
