<svg xmlns="http://www.w3.org/2000/svg" viewBox="0 0 96 96" xmlns:xlink="http://www.w3.org/1999/xlink">
<defs>
<clipPath id="clipPath4175">
<path fill="url(#linearGradient4179)" d="m11.098,2.9904c-4.5114,0-8.1709,3.4413-8.5275,7.8578 3.528,.0244 6.3844,2.8954 6.3844,6.4291 0,3.5489-2.8802,6.4291-6.4291,6.4291v10.0008c3.5489,0 6.4291,2.8802 6.4291,6.4291 0,3.5489-2.8802,6.4291-6.4291,6.4291v10.0008c3.5489,0 6.4291,2.8802 6.4291,6.4291 0,3.5489-2.8802,6.4291-6.4291,6.4291v10.0008c3.5489,0 6.4291,2.8802 6.4291,6.4291 0,3.5489-2.8802,6.4291-6.4291,6.4291v10.0008c3.5489-0 6.4291,2.8802 6.4291,6.4291 0,3.5337-2.8564,6.4047-6.3844,6.4291 .3565,4.4165 4.0161,7.8578 8.5275,7.8578 0-3.5489 2.8802-6.4291 6.4291-6.4291 3.5489,0 6.4291,2.8802 6.4291,6.4291h10.0008c0-3.5489 2.8802-6.4291 6.4291-6.4291 3.5489,0 6.4291,2.8802 6.4291,6.4291h10.0008c0-3.5489 2.8802-6.4291 6.4291-6.4291 3.5489,0 6.4291,2.8802 6.4291,6.4291h10.0008c0-3.5489 2.8802-6.4291 6.4291-6.4291 3.5489,0 6.4291,2.8802 6.4291,6.4291h10.0008c-0-3.5489 2.8802-6.4291 6.4291-6.4291 3.5034,0 6.3567,2.8089 6.4291,6.2952 3.8411-.6359 6.7806-3.7817 7.0988-7.7238-3.528-.0244-6.3844-2.8954-6.3844-6.4291 0-3.5489 2.8802-6.4291 6.4291-6.4291v-10.0008c-3.5489,0-6.4291-2.8802-6.4291-6.4291 0-3.5489 2.8802-6.4291 6.4291-6.4291v-10.0008c-3.5489,0-6.4291-2.8802-6.4291-6.4291 0-3.5489 2.8802-6.4291 6.4291-6.4291v-10.0008c-3.5489,0-6.4291-2.8802-6.4291-6.4291 0-3.5489 2.8802-6.4291 6.4291-6.4291v-10.0008c-3.5489,0-6.4291-2.8802-6.4291-6.4291 0-3.5337 2.8564-6.4047 6.3844-6.4291-.3182-3.9421-3.2577-7.0879-7.0988-7.7238-.0724,3.4862-2.9256,6.2951-6.4291,6.2951-3.5489,0-6.4291-2.8802-6.4291-6.4291h-10.0008c0,3.5489-2.8802,6.4291-6.4291,6.4291-3.5489,0-6.4291-2.8802-6.4291-6.4291h-10.0008c0,3.5489-2.8802,6.4291-6.4291,6.4291-3.5489,0-6.4291-2.8802-6.4291-6.4291h-10.0008c0,3.5489-2.8802,6.4291-6.4291,6.4291-3.5489,0-6.4291-2.8802-6.4291-6.4291h-10.0008c0,3.5489-2.8802,6.4291-6.4291,6.4291-3.5489,0-6.4291-2.8802-6.4291-6.4291z"/>
</clipPath>
<clipPath id="clipPath4200">
<path fill="#fff" d="m134.062,60.8291h37.781v37.781h-37.781z"/>
</clipPath>
<clipPath id="clipPath3613">
<path fill="#fff" d="m12,6h72a6,6 0 0,1 6,6v72a6,6 0 0,1 -6,6h-72a6,6 0 0,1 -6-6v-72a6,6 0 0,1 6-6"/>
</clipPath>
<clipPath id="clipPath4196">
<path fill="#fff" d="m154.062,60.8291h37.781v37.781h-37.781z"/>
</clipPath>
<filter width="1.384" x="-.192" y="-.192" height="1.384" color-interpolation-filters="sRGB" id="filter3794">
<feGaussianBlur stdDeviation="5.28"/>
</filter>
<linearGradient gradientTransform="matrix(.20504 0 0 .20504 131.78653 56.73329)" id="linearGradient3817" xlink:href="#XMLID_5_" y1="171.37" x1="80.16" y2="164.25" x2="82.47" gradientUnits="userSpaceOnUse"/>
<linearGradient gradientTransform="matrix(.20504 0 0 .20504 2.74915 1.04258)" id="XMLID_5_" y1="171.37" x1="80.16" y2="164.25" x2="82.47" gradientUnits="userSpaceOnUse">
<stop offset="0" stop-color="#aa944b"/>
<stop offset="1" stop-color="#aa944b" stop-opacity="0"/>
</linearGradient>
<linearGradient gradientTransform="matrix(.20504 0 0 .20504 131.78653 56.73329)" id="linearGradient3812" xlink:href="#XMLID_6_" y1="84.02" y2="58.06" x2="0" gradientUnits="userSpaceOnUse"/>
<linearGradient gradientTransform="matrix(.20504 0 0 .20504 2.74915 1.04258)" id="XMLID_6_" y1="84.02" y2="58.06" x2="0" gradientUnits="userSpaceOnUse">
<stop offset=".01" stop-color="#d2b170"/>
<stop offset="1" stop-color="#a25f00"/>
</linearGradient>
<linearGradient gradientTransform="matrix(.20504 0 0 .20504 131.78653 56.73329)" id="linearGradient3824" xlink:href="#XMLID_3_" y1="79.08" x1="100.13" y2="45.62" x2="94.45" gradientUnits="userSpaceOnUse"/>
<linearGradient gradientTransform="matrix(.20504 0 0 .20504 2.74915 1.04258)" id="XMLID_22_" y1="74.9" x1="50.32" y2="30.65" x2="94.57" gradientUnits="userSpaceOnUse">
<stop offset="0" stop-color="#a5b4d3"/>
<stop offset="1" stop-color="#a5b4d3" stop-opacity=".33"/>
</linearGradient>
<linearGradient gradientTransform="matrix(.20504 0 0 .20504 2.74915 1.04258)" id="XMLID_3_" y1="79.08" x1="100.13" y2="45.62" x2="94.45" gradientUnits="userSpaceOnUse">
<stop offset="0" stop-color="#c3ad7b"/>
<stop offset="1" stop-color="#a25f00"/>
</linearGradient>
<linearGradient gradientTransform="matrix(.20504 0 0 .20504 131.78653 36.73329)" id="linearGradient3912" xlink:href="#XMLID_23_" y1="72.75" x1="48.16" y2="28.5" x2="92.41" gradientUnits="userSpaceOnUse"/>
<linearGradient gradientTransform="matrix(.20504 0 0 .20504 131.78653 56.73329)" id="linearGradient3809" xlink:href="#XMLID_7_" y1="124.25" y2="71.33" x2="0" gradientUnits="userSpaceOnUse"/>
<linearGradient gradientTransform="matrix(.20504 0 0 .20504 2.74915 1.04258)" id="XMLID_23_" y1="72.75" x1="48.16" y2="28.5" x2="92.41" gradientUnits="userSpaceOnUse">
<stop offset="0" stop-color="#264b92"/>
<stop offset="1" stop-color="#264b92" stop-opacity=".33"/>
</linearGradient>
<linearGradient gradientTransform="matrix(.20504 0 0 .20504 131.78653 56.73329)" id="linearGradient3805" xlink:href="#XMLID_8_" y1="187.64" y2="165.83" x2="0" gradientUnits="userSpaceOnUse"/>
<linearGradient gradientTransform="matrix(1.42869 0 0 1.42869 -6.04621 -5.58173)" id="linearGradient4179" xlink:href="#ButtonColor-6" y1="90" y2="5.988" x2="0" gradientUnits="userSpaceOnUse"/>
<linearGradient gradientTransform="matrix(.20504 0 0 .20504 2.74915 1.04258)" id="XMLID_7_" y1="124.25" y2="71.33" x2="0" gradientUnits="userSpaceOnUse">
<stop offset="0" stop-color="#a25f00" stop-opacity="0"/>
<stop offset="1" stop-color="#a25f00"/>
</linearGradient>
<linearGradient gradientTransform="scale(1.00587 .99417)" id="ButtonShadow-9" y1="92.54" y2="7.017" x2="0" gradientUnits="userSpaceOnUse">
<stop offset="0"/>
<stop offset="1" stop-opacity=".588"/>
</linearGradient>
<linearGradient id="linearGradient3643" xlink:href="#ButtonShadow-9" y1="91.151" y2="7.291" x2="0" gradientUnits="userSpaceOnUse"/>
<linearGradient gradientTransform="matrix(1.02381 0 0 1.0119 -1.14286 -.08333)" id="linearGradient3660" xlink:href="#ButtonShadow-9" y1="91.151" y2="7.291" x2="0" gradientUnits="userSpaceOnUse"/>
<linearGradient gradientTransform="matrix(.20504 0 0 .20504 2.74915 1.04258)" id="XMLID_12_" y1="25.34" x1="46.73" y2="90.3" x2="9.22" gradientUnits="userSpaceOnUse">
<stop offset=".01" stop-color="#1b609d"/>
<stop offset=".5" stop-color="#9fd2e5"/>
<stop offset="1" stop-color="#4187b8"/>
</linearGradient>
<linearGradient gradientTransform="matrix(.20504 0 0 .20504 131.78653 36.73329)" id="linearGradient3910" xlink:href="#XMLID_22_" y1="74.9" x1="50.32" y2="30.65" x2="94.57" gradientUnits="userSpaceOnUse"/>
<linearGradient gradientTransform="matrix(.20504 0 0 .20504 131.78653 56.73329)" id="linearGradient3792" xlink:href="#XMLID_12_" y1="25.34" x1="46.73" y2="90.3" x2="9.22" gradientUnits="userSpaceOnUse"/>
<linearGradient gradientTransform="matrix(.20504 0 0 .20504 2.74915 1.04258)" id="XMLID_8_" y1="187.64" y2="165.83" x2="0" gradientUnits="userSpaceOnUse">
<stop offset="0" stop-color="#a4d8e5"/>
<stop offset=".5" stop-color="#0c418f"/>
<stop offset="1" stop-color="#000060"/>
</linearGradient>
<linearGradient gradientTransform="matrix(.20504 0 0 .20504 2.74915 1.04258)" id="XMLID_9_" y1="170.38" y2="141.59" x2="0" gradientUnits="userSpaceOnUse">
<stop offset="0" stop-color="#a4d8e5"/>
<stop offset=".5" stop-color="#0c418f"/>
<stop offset="1" stop-color="#000060"/>
</linearGradient>
<linearGradient gradientTransform="matrix(.20504 0 0 .20504 131.78653 56.73329)" id="linearGradient3802" xlink:href="#XMLID_9_" y1="170.38" y2="141.59" x2="0" gradientUnits="userSpaceOnUse"/>
<linearGradient gradientTransform="matrix(1.02381 0 0 1.0119 -1.14286 -.08333)" id="linearGradient3652" xlink:href="#ButtonShadow-9" y1="91.151" y2="7.291" x2="0" gradientUnits="userSpaceOnUse"/>
<linearGradient gradientTransform="matrix(.20504 0 0 .20504 2.74915 1.04258)" id="XMLID_16_" y1="224.1" x1="139.21" y2="173.9" x2="168.19" gradientUnits="userSpaceOnUse">
<stop offset=".01" stop-color="#b4b4dc"/>
<stop offset="1"/>
</linearGradient>
<linearGradient gradientTransform="matrix(.20504 0 0 .20504 151.78653 56.73329)" id="linearGradient3962" xlink:href="#XMLID_17_" y1="171.82" y2="72.25" x2="0" gradientUnits="userSpaceOnUse"/>
<linearGradient gradientTransform="matrix(.20504 0 0 .20504 151.78653 56.73329)" id="linearGradient3968" xlink:href="#XMLID_20_" y1="33.56" x1="132.09" y2="88.06" x2="171.09" gradientUnits="userSpaceOnUse"/>
<linearGradient gradientTransform="matrix(.20504 0 0 .20504 2.74915 1.04258)" id="XMLID_17_" y1="171.82" y2="72.25" x2="0" gradientUnits="userSpaceOnUse">
<stop offset="0" stop-color="#6498c1"/>
<stop offset=".2" stop-color="#0c418f"/>
<stop offset="1" stop-color="#000040"/>
</linearGradient>
<linearGradient gradientTransform="matrix(.20504 0 0 .20504 151.78653 56.73329)" id="linearGradient3964" xlink:href="#XMLID_18_" y1="149.75" y2="60.68" x2="0" gradientUnits="userSpaceOnUse"/>
<linearGradient gradientTransform="matrix(.20504 0 0 .20504 2.74915 1.04258)" id="XMLID_14_" y1="36.5" x1="71.55" y2="8.88" x2="61.5" gradientUnits="userSpaceOnUse">
<stop offset="0" stop-color="#a4d8e5"/>
<stop offset="1" stop-color="#0c418f"/>
</linearGradient>
<linearGradient gradientTransform="matrix(.20504 0 0 .20504 2.74915 1.04258)" id="XMLID_18_" y1="149.75" y2="60.68" x2="0" gradientUnits="userSpaceOnUse">
<stop offset="0" stop-color="#a4d8e5"/>
<stop offset=".2" stop-color="#0c418f"/>
<stop offset=".5" stop-color="#000040"/>
</linearGradient>
<linearGradient gradientTransform="matrix(.20504 0 0 .20504 151.78653 56.73329)" id="linearGradient3966" xlink:href="#XMLID_19_" y1="134.73" y2="83.48" x2="0" gradientUnits="userSpaceOnUse"/>
<linearGradient gradientTransform="matrix(.20504 0 0 .20504 151.78653 56.73329)" id="linearGradient3960" xlink:href="#XMLID_16_" y1="224.1" x1="139.21" y2="173.9" x2="168.19" gradientUnits="userSpaceOnUse"/>
<linearGradient id="linearGradient3737">
<stop offset="0" stop-color="#fff"/>
<stop offset="1" stop-color="#fff" stop-opacity="0"/>
</linearGradient>
<linearGradient id="linearGradient3613" xlink:href="#linearGradient3737" y1="20.221" y2="138.661" x2="0" gradientUnits="userSpaceOnUse"/>
<linearGradient gradientTransform="matrix(.20504 0 0 .20504 2.74915 1.04258)" id="XMLID_15_" y1="222.04" x1="115.05" y2="126.46" x2="170.24" gradientUnits="userSpaceOnUse">
<stop offset=".01" stop-color="#b4b4dc"/>
<stop offset="1"/>
</linearGradient>
<linearGradient id="linearGradient3737-1">
<stop offset="0" stop-color="#fff"/>
<stop offset="1" stop-color="#fff" stop-opacity="0"/>
</linearGradient>
<linearGradient id="linearGradient2982" xlink:href="#ButtonColor-6" y1="90" y2="5.988" x2="0" gradientUnits="userSpaceOnUse"/>
<linearGradient gradientTransform="matrix(.20504 0 0 .20504 151.78653 56.73329)" id="linearGradient3958" xlink:href="#XMLID_15_" y1="222.04" x1="115.05" y2="126.46" x2="170.24" gradientUnits="userSpaceOnUse"/>
<linearGradient id="linearGradient2984" xlink:href="#linearGradient3737-1" y1="6" y2="74.093" x2="0" gradientUnits="userSpaceOnUse"/>
<linearGradient id="ButtonColor-6" y1="122" y2="5.425" x2="0" gradientUnits="userSpaceOnUse">
<stop offset="0" stop-color="#dcdcdc"/>
<stop offset="1" stop-color="#f5f5f5"/>
</linearGradient>
<linearGradient gradientTransform="matrix(.20504 0 0 .20504 2.74915 1.04258)" id="XMLID_19_" y1="134.73" y2="83.48" x2="0" gradientUnits="userSpaceOnUse">
<stop offset="0" stop-color="#a4d8e5"/>
<stop offset=".5" stop-color="#0c418f"/>
<stop offset="1" stop-color="#000060"/>
</linearGradient>
<linearGradient gradientTransform="matrix(.20504 0 0 .20504 2.74915 1.04258)" id="XMLID_21_" y1="71.09" x1="162.21" y2="23.41" x2="134.68" gradientUnits="userSpaceOnUse">
<stop offset=".01" stop-color="#1b609d"/>
<stop offset=".5" stop-color="#9fd2e5"/>
<stop offset="1" stop-color="#4187b8"/>
</linearGradient>
<linearGradient gradientTransform="matrix(.20504 0 0 .20504 131.78653 36.73329)" id="linearGradient3906" xlink:href="#XMLID_13_" y1="24.35" x1="66.43" y2="81.38" x2="123.46" gradientUnits="userSpaceOnUse"/>
<linearGradient gradientTransform="matrix(.20504 0 0 .20504 151.78653 56.73329)" id="linearGradient3970" xlink:href="#XMLID_21_" y1="71.09" x1="162.21" y2="23.41" x2="134.68" gradientUnits="userSpaceOnUse"/>
<linearGradient gradientTransform="matrix(.20504 0 0 .20504 2.74915 1.04258)" id="XMLID_20_" y1="33.56" x1="132.09" y2="88.06" x2="171.09" gradientUnits="userSpaceOnUse">
<stop offset="0" stop-color="#4187b8"/>
<stop offset="1" stop-color="#074e92"/>
</linearGradient>
<linearGradient gradientTransform="matrix(.20504 0 0 .20504 2.74915 1.04258)" id="XMLID_13_" y1="24.35" x1="66.43" y2="81.38" x2="123.46" gradientUnits="userSpaceOnUse">
<stop offset="0" stop-color="#a4d8e5"/>
<stop offset=".67" stop-color="#0c418f"/>
<stop offset="1" stop-color="#000040"/>
</linearGradient>
<linearGradient gradientTransform="matrix(.20504 0 0 .20504 131.78653 36.73329)" id="linearGradient3908" xlink:href="#XMLID_14_" y1="36.5" x1="71.55" y2="8.88" x2="61.5" gradientUnits="userSpaceOnUse"/>
<radialGradient cx="58.58" cy="67.17" gradientTransform="matrix(.20504 0 0 .20504 131.78653 36.73329)" r="8.51" id="radialGradient3914" xlink:href="#eye_2_" gradientUnits="userSpaceOnUse"/>
<radialGradient cx="57.5" cy="54.25" gradientTransform="matrix(.20504 0 0 .20504 131.78653 56.73329)" r="71.42" id="radialGradient3795" xlink:href="#XMLID_11_" gradientUnits="userSpaceOnUse"/>
<radialGradient cx="41.75" cy="67" gradientTransform="matrix(.20504 0 0 .20504 2.74915 1.04258)" r="77.83" id="XMLID_10_" gradientUnits="userSpaceOnUse">
<stop offset="0" stop-color="#000060"/>
<stop offset=".5" stop-color="#0c418f"/>
<stop offset="1" stop-color="#a4d8e5"/>
</radialGradient>
<radialGradient cx="57.5" cy="54.25" gradientTransform="matrix(.20504 0 0 .20504 2.74915 1.04258)" r="71.42" id="XMLID_11_" gradientUnits="userSpaceOnUse">
<stop offset="0" stop-color="#000060"/>
<stop offset=".5" stop-color="#0c418f"/>
<stop offset="1" stop-color="#a4d8e5"/>
</radialGradient>
<radialGradient cx="47.967" cy="89.689" gradientTransform="matrix(1.33411 0 0 .95759 -16.02641 2.11126)" r="42" id="radialGradient2986" xlink:href="#linearGradient3737-1" gradientUnits="userSpaceOnUse"/>
<radialGradient cx="41.75" cy="67" gradientTransform="matrix(.20504 0 0 .20504 131.78653 56.73329)" r="77.83" id="radialGradient3799" xlink:href="#XMLID_10_" gradientUnits="userSpaceOnUse"/>
<radialGradient cx="58.58" cy="67.17" gradientTransform="matrix(.20504 0 0 .20504 2.74915 1.04258)" r="8.51" id="eye_2_" gradientUnits="userSpaceOnUse">
<stop offset="0" stop-color="#600000"/>
<stop offset=".5" stop-color="#c00000"/>
<stop offset="1" stop-color="#f6aa00"/>
</radialGradient>
<radialGradient cx="59.61" cy="65.11" gradientTransform="matrix(.20504 0 0 .20504 131.78653 36.73329)" r="3.8" id="radialGradient3916" xlink:href="#pupil_1_" gradientUnits="userSpaceOnUse"/>
<radialGradient cx="111.25" cy="123.5" gradientTransform="matrix(.20504 0 0 .20504 2.74915 1.04258)" r="91" id="XMLID_1_" gradientUnits="userSpaceOnUse">
<stop offset="0"/>
<stop offset=".5"/>
<stop offset="1" stop-opacity="0"/>
</radialGradient>
<radialGradient cx="151.75" cy="175.67" gradientTransform="matrix(.20504 0 0 .20504 2.74915 1.04258)" r="126.3" id="XMLID_2_" gradientUnits="userSpaceOnUse">
<stop offset="0" stop-color="#f2be7f"/>
<stop offset="1" stop-color="#ffffdc"/>
</radialGradient>
<radialGradient cx="151.75" cy="175.67" gradientTransform="matrix(.20504 0 0 .20504 131.78653 56.73329)" r="126.3" id="radialGradient3827" xlink:href="#XMLID_2_" gradientUnits="userSpaceOnUse"/>
<radialGradient cx="149.75" cy="87" gradientTransform="matrix(.20504 0 0 .20504 131.78653 56.73329)" r="90.87" id="radialGradient3820" xlink:href="#XMLID_4_" gradientUnits="userSpaceOnUse"/>
<radialGradient cx="149.75" cy="87" gradientTransform="matrix(.20504 0 0 .20504 2.74915 1.04258)" r="90.87" id="XMLID_4_" gradientUnits="userSpaceOnUse">
<stop offset="0" stop-color="#f2be7f"/>
<stop offset="1" stop-color="#ffffdc"/>
</radialGradient>
<radialGradient cx="111.25" cy="123.5" gradientTransform="matrix(.20504 0 0 .20504 131.78653 56.73329)" r="91" id="radialGradient3831" xlink:href="#XMLID_1_" gradientUnits="userSpaceOnUse"/>
<radialGradient cx="59.61" cy="65.11" gradientTransform="matrix(.20504 0 0 .20504 2.74915 1.04258)" r="3.8" id="pupil_1_" gradientUnits="userSpaceOnUse">
<stop offset=".01" stop-color="#fff"/>
<stop offset="1"/>
</radialGradient>
<radialGradient cx="47.25" cy="82.5" gradientTransform="matrix(.20504 0 0 .20504 2.74915 1.04258)" r="3.78" id="XMLID_25_" gradientUnits="userSpaceOnUse">
<stop offset=".01" stop-color="#fff"/>
<stop offset="1"/>
</radialGradient>
<radialGradient cx="51.5" cy="87.5" gradientTransform="matrix(.20504 0 0 .20504 131.78653 36.73329)" r="12.97" id="radialGradient3918" xlink:href="#XMLID_24_" gradientUnits="userSpaceOnUse"/>
<radialGradient cx="47.25" cy="82.5" gradientTransform="matrix(.20504 0 0 .20504 131.78653 36.73329)" r="3.78" id="radialGradient3920" xlink:href="#XMLID_25_" gradientUnits="userSpaceOnUse"/>
<radialGradient cx="51.5" cy="87.5" gradientTransform="matrix(.20504 0 0 .20504 2.74915 1.04258)" r="12.97" id="XMLID_24_" gradientUnits="userSpaceOnUse">
<stop offset="0" stop-color="#769eb8"/>
<stop offset="1" stop-color="#fff"/>
</radialGradient>
</defs>
<path opacity=".08" fill="url(#linearGradient3660)" d="m43.0938,3.9688c-1.141,.0143-2.1829,.1986-2.7812,.0938a1.0282,1.0282 0 0,0 -.3438-.0312c-.5569,.0806-1.6355-.0679-2.7812-.0312-.5729,.0183-1.1871,.0761-1.7812,.375-.5941,.2989-1.1507,.8705-1.4375,1.5938a1.0282,1.0282 0 0,0 -.0625,.4375c.0578,.7809-.4287,1.5622-1.0625,1.9375-.6258,.3705-1.2096,.4267-1.875-.2188-.1616-.1718-.3167-.8372-.5625-1.7188-.1229-.4408-.2837-.9461-.6562-1.4062-.3725-.4601-.9934-.8317-1.6875-.9375a1.0282,1.0282 0 0,0 -.125,0c-2.6713-.0758-5.3481-.0096-7.9688-.0312a1.0282,1.0282 0 0,0 -.1875,.0312c-.8331,.1497-1.492,.6734-1.8438,1.25-.3517,.5766-.4821,1.1395-.5938,1.625-.1116,.4855-.2234,.8713-.3438,1.0938-.1204,.2225-.1708,.2943-.4688,.375a1.0282,1.0282 0 0,0 -.125,.0625c-.4704,.1983-.75,.182-.9688,.125-.2188-.057-.4062-.1813-.625-.4375-.4377-.5125-.8253-1.5275-1.0312-2.4062a1.0282,1.0282 0 0,0 -.1875-.375c-.5495-.6975-1.3332-1.1236-2.0938-1.25-.7605-.1264-1.4999-.0235-2.1875,.1875-1.3753,.422-2.5798,1.2525-3.4062,1.8125a1.0282,1.0282 0 0,0 -.125,.0938c-.8745,.7994-1.9388,1.8655-2.6875,3.1562-.7487,1.2907-1.2127,2.8842-.625,4.4688a1.0282,1.0282 0 0,0 .0625,.1562c.3772,.6738 1.0135,1.0911 1.5625,1.3125 .549,.2214 1.0353,.3 1.4375,.4062 .4022,.1063 .6919,.2406 .8125,.3438 .1206,.1032 .1877,.1551 .2188,.5938a1.0282,1.0282 0 0,0 .0312,.1562c.1996,.8946 .018,1.0621-.5,1.4062-.518,.3442-1.4681,.5911-2.3438,.8125a1.0282,1.0282 0 0,0 -.3438,.1562c-1.2183,.8524-1.4607,2.2644-1.4375,3.375 .0232,1.1106 .1985,2.1295 .0938,2.7188a1.0282,1.0282 0 0,0 -.0312,.3125c.0724,.5656-.0889,1.6885-.0312,2.8438 .0288,.5776 .1114,1.1929 .4375,1.7812 .3261,.5884 .942,1.095 1.6875,1.3438a1.0282,1.0282 0 0,0 .4688,.0625c1.0626-.1515 1.6996,.5432 1.9062,1.4062 .1033,.4315 .042,.8544-.125,1.1562-.167,.3019-.4353,.561-1.0625,.6875v.0312c-1.0546-.0239-2.0396,.4106-2.625,1.1562-.6196,.7892-.8423,1.8254-.625,2.875h-.0312c.1528,2.1057-.3651,4.6155 .25,7.1562a1.0282,1.0282 0 0,0 .0938,.2188c.3742,.7078 1.021,1.1515 1.5938,1.375 .5728,.2235 1.1092,.3077 1.5312,.4062 .4221,.0986 .6862,.2095 .8125,.3125 .1263,.103 .2144,.1916 .25,.6562a1.0282,1.0282 0 0,0 .0312,.125c.2031,.8964 .0178,1.0626-.5,1.4062-.5178,.3436-1.4661,.5918-2.3438,.8125a1.0282,1.0282 0 0,0 -.3438,.1562c-1.2183,.8524-1.4607,2.2644-1.4375,3.375 .0232,1.1106 .1985,2.1295 .0938,2.7188a1.0282,1.0282 0 0,0 -.0312,.3125c.0724,.5656-.0889,1.6885-.0312,2.8438 .0288,.5776 .1114,1.1929 .4375,1.7812 .3261,.5884 .942,1.095 1.6875,1.3438a1.0282,1.0282 0 0,0 .4688,.0625c1.0626-.1515 1.6996,.5432 1.9062,1.4062 .1033,.4315 .042,.8544-.125,1.1562-.167,.3019-.4353,.561-1.0625,.6875v.0312c-1.0546-.0239-2.0396,.4106-2.625,1.1562-.6196,.7892-.8423,1.8254-.625,2.875h-.0312c.1528,2.1057-.3651,4.6155 .25,7.1562a1.0282,1.0282 0 0,0 .0938,.2188c.3742,.7078 1.021,1.1515 1.5938,1.375 .5728,.2235 1.1092,.3077 1.5312,.4062 .4221,.0986 .6862,.2095 .8125,.3125 .1263,.103 .2144,.1916 .25,.6562a1.0282,1.0282 0 0,0 .0312,.125c.108,.4678 .0483,.7077-.0312,.875-.0796,.1673-.2118,.3219-.5,.5-.5764,.3561-1.6309,.6282-2.5938,1.0625a1.0282,1.0282 0 0,0 -.2812,.1875c-.6292,.6133-.9498,1.4261-1,2.1875-.0502,.7614 .1356,1.4682 .4062,2.125 .5413,1.3135 1.4312,2.4512 2.0312,3.2188a1.0282,1.0282 0 0,0 .0938,.125c.8845,.8295 2.1003,1.8002 3.5,2.4375 1.3997,.6373 3.1206,.9518 4.6562,.0938a1.0282,1.0282 0 0,0 .1875-.125c1.0396-.9306 1.0836-2.2025 1.2812-2.9062 .0988-.3519 .2137-.5522 .3125-.6562 .0988-.1041 .2223-.185 .6562-.2188a1.0282,1.0282 0 0,0 .125-.0312c.8735-.2044 1.0535-.0143 1.4062,.5 .3527,.5143 .6193,1.4406 .8438,2.3125a1.0282,1.0282 0 0,0 .1562,.3438c.8524,1.2183 2.2644,1.4607 3.375,1.4375 1.1106-.0232 2.1295-.1985 2.7188-.0938a1.0282,1.0282 0 0,0 .3438,.0312c.5588-.0821 1.6617,.0659 2.8125,.0312 .5754-.0173 1.1843-.0766 1.7812-.375 .597-.2984 1.1484-.8681 1.4375-1.5938a1.0282,1.0282 0 0,0 .0625-.4688c-.0782-.8774 .4851-1.6337 1.1875-1.9688 .6764-.3226 1.2894-.3139 1.875,.4688 .1418,.471 .2528,1.2287 .5938,2.0312 .1864,.4387 .4659,.8803 .9062,1.25 .4404,.3697 1.0602,.6157 1.7188,.625a1.0282,1.0282 0 0,0 .0625,0c2.5333-.1418 5.355,.2966 8.2188-.2188a1.0282,1.0282 0 0,0 .2188-.0625c.6934-.3112 1.1684-.8943 1.4062-1.4375 .2378-.5432 .3207-1.0522 .4062-1.4688 .0856-.4165 .1848-.7461 .2812-.9062 .0965-.1602 .1282-.2029 .4375-.2812a1.0282,1.0282 0 0,0 .1562-.0625c.834-.3553 1.2067-.1743 1.6562,.2812 .4495,.4556 .797,1.3275 .8438,2.0938a1.0282,1.0282 0 0,0 .125,.4375c.3663,.6599 .9355,1.1296 1.5312,1.375 .5958,.2454 1.1916,.3104 1.75,.3125 1.1168,.0042 2.1778-.1865 2.75-.0938a1.0282,1.0282 0 0,0 .3125,0c.5787-.0963 1.6489,.094 2.7812,.0938 .5662-.0002 1.1777-.0688 1.7812-.3125 .6036-.2437 1.1886-.7101 1.5625-1.375a1.0282,1.0282 0 0,0 .125-.4375c.0467-.7662 .3942-1.6382 .8438-2.0938 .4495-.4556 .8223-.6366 1.6562-.2812a1.0282,1.0282 0 0,0 .1562,.0625c.2665,.0688 .3119,.1071 .4375,.3438 .1256,.2367 .2205,.6863 .3438,1.1875 .1232,.5012 .2726,1.0808 .6562,1.6562 .3836,.5754 1.1116,1.0677 1.9688,1.1562a1.0282,1.0282 0 0,0 .125,0c2.6168-.0504 5.4672,.2743 8.3125-.125a1.0282,1.0282 0 0,0 .2188-.0625c.7299-.2741 1.2377-.8542 1.5-1.4062 .2623-.5521 .3453-1.0688 .4375-1.5 .0922-.4312 .1793-.7672 .2812-.9375 .102-.1703 .1559-.2362 .4688-.3125a1.0282,1.0282 0 0,0 .1562-.0625c.5102-.2188 .7545-.1801 .9375-.125 .183,.0551 .375,.1825 .5938,.4688 .4374,.5725 .8371,1.6491 1.3438,2.625a1.0282,1.0282 0 0,0 .1875,.25c.5853,.5862 1.3435,.8964 2.0625,.9375 .719,.041 1.3914-.1473 2-.4062 1.2171-.518 2.2316-1.3465 2.9375-1.9062a1.0282,1.0282 0 0,0 .125-.125c.7048-.7775 1.6609-1.8343 2.3125-3.0938 .6516-1.2595 1.0266-2.8804 .2188-4.3438a1.0282,1.0282 0 0,0 -.0938-.125c-.8638-1.1486-2.1414-1.2325-2.875-1.4375-.3668-.1025-.6103-.2136-.7188-.3125-.1085-.0989-.1868-.1718-.2188-.5938a1.0282,1.0282 0 0,0 -.0312-.1562c-.1996-.8946-.018-1.0621 .5-1.4062 .518-.3442 1.4681-.5911 2.3438-.8125a1.0282,1.0282 0 0,0 .3438-.1562c1.2183-.8524 1.4607-2.2644 1.4375-3.375-.0232-1.1106-.1985-2.1295-.0938-2.7188a1.0282,1.0282 0 0,0 .0312-.3125c-.0724-.5656 .0889-1.6885 .0312-2.8438-.0288-.5776-.1114-1.1929-.4375-1.7812-.3261-.5884-.942-1.095-1.6875-1.3438a1.0282,1.0282 0 0,0 -.4688-.0625c-1.0626,.1515-1.6996-.5432-1.9062-1.4062-.1033-.4315-.042-.8544 .125-1.1562 .167-.3019 .4353-.561 1.0625-.6875v-.0312c1.0546,.0239 2.0396-.4106 2.625-1.1562 .6196-.7892 .8423-1.8254 .625-2.875h.0312c-.1528-2.1057 .3651-4.6155-.25-7.1562a1.0282,1.0282 0 0,0 -.0938-.2188c-.3742-.7078-1.021-1.1515-1.5938-1.375-.5728-.2235-1.1092-.3077-1.5312-.4062-.4221-.0986-.6862-.2095-.8125-.3125-.1263-.103-.2144-.1916-.25-.6562a1.0282,1.0282 0 0,0 -.0312-.125c-.2031-.8964-.0178-1.0626 .5-1.4062 .5178-.3436 1.4661-.5918 2.3438-.8125a1.0282,1.0282 0 0,0 .3438-.1562c1.2183-.8524 1.4607-2.2644 1.4375-3.375-.0232-1.1106-.1985-2.1295-.0938-2.7188a1.0282,1.0282 0 0,0 .0312-.3125c-.0724-.5656 .0889-1.6885 .0312-2.8438-.0288-.5776-.1114-1.1929-.4375-1.7812-.3261-.5884-.942-1.095-1.6875-1.3438a1.0282,1.0282 0 0,0 -.4688-.0625c-1.0626,.1515-1.6996-.5432-1.9062-1.4062-.1033-.4315-.042-.8544 .125-1.1562 .167-.3019 .4353-.561 1.0625-.6875v-.0312c1.0546,.0239 2.0396-.4106 2.625-1.1562 .6196-.7892 .8423-1.8254 .625-2.875h.0312c-.1528-2.1057 .3651-4.6155-.25-7.1562a1.0282,1.0282 0 0,0 -.0938-.2188c-.3742-.7078-1.021-1.1515-1.5938-1.375-.5728-.2235-1.1092-.3077-1.5312-.4062-.4221-.0986-.6862-.2095-.8125-.3125-.1263-.103-.2144-.1916-.25-.6562a1.0282,1.0282 0 0,0 -.0312-.125c-.108-.4678-.0483-.7077 .0312-.875 .0796-.1673 .2118-.3219 .5-.5 .5764-.3561 1.6309-.6282 2.5938-1.0625a1.0282,1.0282 0 0,0 .2812-.1875c.6029-.5656 .927-1.3163 1-2.0312 .073-.715-.085-1.3808-.3125-2-.455-1.2384-1.2389-2.3258-1.75-3.0625a1.0282,1.0282 0 0,0 -.0938-.125c-.7445-.7611-1.7729-1.7583-3-2.4688-1.2271-.7105-2.8106-1.1607-4.3125-.4375a1.0282,1.0282 0 0,0 -.125,.0938c-1.1854,.7998-1.3662,2.0785-1.5938,2.8125-.1138,.367-.2093,.6053-.3125,.7188-.1032,.1134-.2035,.1878-.5938,.2188a1.0282,1.0282 0 0,0 -.125,.0312c-.8216,.1851-1.0752-.021-1.4375-.5-.3623-.479-.6281-1.3324-.75-2.125a1.0282,1.0282 0 0,0 -.1562-.375c-.405-.6477-1.0138-1.1181-1.625-1.3438-.6112-.2257-1.212-.2572-1.7812-.25-1.1384,.0144-2.1848,.1983-2.7812,.0938a1.0282,1.0282 0 0,0 -.3438-.0312c-.5569,.0806-1.6355-.0679-2.7812-.0312-.5729,.0183-1.1871,.0761-1.7812,.375-.5941,.2989-1.1507,.8705-1.4375,1.5938a1.0282,1.0282 0 0,0 -.0625,.4688c.0782,.8774-.4851,1.6337-1.1875,1.9688-.6764,.3226-1.2894,.3139-1.875-.4688-.1418-.471-.2528-1.2287-.5938-2.0312-.1864-.4387-.4659-.8803-.9062-1.25-.4404-.3697-1.0602-.6157-1.7188-.625a1.0282,1.0282 0 0,0 -.0625,0c-2.5333,.1418-5.355-.2966-8.2188,.2188a1.0282,1.0282 0 0,0 -.25,.0625c-.6905,.3145-1.136,.8961-1.375,1.4375-.239,.5414-.3177,1.0536-.4062,1.4688-.0886,.4152-.1824,.7143-.2812,.875-.0988,.1607-.1541,.2338-.4688,.3125a1.0282,1.0282 0 0,0 -.1562,.0625c-.8755,.3755-1.1879,.1928-1.625-.2812-.4371-.4741-.7783-1.4068-.875-2.2188a1.0282,1.0282 0 0,0 -.1562-.4062c-.4064-.6501-1.0117-1.1188-1.625-1.3438-.6133-.225-1.2108-.2572-1.7812-.25z"/>
<path opacity=".2" fill="url(#linearGradient3660)" d="m20.1562,6a1.0087,1.0087 0 0,0 -.8125,1c0,1.965-1.5923,3.5625-3.5938,3.5625-1.9839,0-3.5666-1.5597-3.5938-3.5a1.0087,1.0087 0 0,0 -1.125-1c-3.4231,.4096-6.182,2.9512-6.875,6.2812a1.0087,1.0087 0 0,0 .9688,1.2188c1.9396,.0644 3.4688,1.6383 3.4688,3.5625 0,1.965-1.5923,3.5625-3.5938,3.5625a1.0087,1.0087 0 0,0 -1,1v7.0625a1.0087,1.0087 0 0,0 1,1c2.0014,0 3.5938,1.5975 3.5938,3.5625 0,1.965-1.5923,3.5625-3.5938,3.5625a1.0087,1.0087 0 0,0 -1,1v7.0625a1.0087,1.0087 0 0,0 1,1c2.0014,0 3.5938,1.5975 3.5938,3.5625 0,1.965-1.5923,3.5625-3.5938,3.5625a1.0087,1.0087 0 0,0 -1,1v7.0625a1.0087,1.0087 0 0,0 1,1c2.0014,0 3.5938,1.5975 3.5938,3.5625 0,1.965-1.5923,3.5625-3.5938,3.5625a1.0087,1.0087 0 0,0 -1,1v7.0625a1.0087,1.0087 0 0,0 1,1c2.0014-0 3.5938,1.5975 3.5938,3.5625 0,1.9242-1.5291,3.4981-3.4688,3.5625a1.0087,1.0087 0 0,0 -.9688,1.2188c.693,3.3301 3.4519,5.8716 6.875,6.2812a1.0087,1.0087 0 0,0 1.125-1c.0272-1.9403 1.6099-3.5 3.5938-3.5 2.0014,0 3.5938,1.5975 3.5938,3.5625a1.0087,1.0087 0 0,0 1,1h7.1875a1.0087,1.0087 0 0,0 1-1c0-1.965 1.5923-3.5625 3.5938-3.5625 2.0014,0 3.625,1.6058 3.625,3.5625a1.0087,1.0087 0 0,0 1,1h7.1562a1.0087,1.0087 0 0,0 1-1c0-1.965 1.5923-3.5625 3.5938-3.5625 2.0014,0 3.625,1.6058 3.625,3.5625a1.0087,1.0087 0 0,0 1,1h7.1562a1.0087,1.0087 0 0,0 1-1c0-1.9567 1.6236-3.5625 3.625-3.5625 2.0014,0 3.5938,1.5975 3.5938,3.5625a1.0087,1.0087 0 0,0 1,1h7.1562a1.0087,1.0087 0 0,0 1-1c-0-1.9567 1.6236-3.5625 3.625-3.5625 1.9308,0 3.4569,1.5015 3.5625,3.375a1.0087,1.0087 0 0,0 1.25,.9062c2.8884-.7811 5.136-3.112 5.75-6.0625a1.0087,1.0087 0 0,0 -.9688-1.2188c-1.9396-.0644-3.4688-1.6383-3.4688-3.5625 0-1.965 1.5923-3.5625 3.5938-3.5625a1.0087,1.0087 0 0,0 1-1v-7.0625a1.0087,1.0087 0 0,0 -1-1c-2.0014,0-3.5938-1.5975-3.5938-3.5625 0-1.965 1.5923-3.5625 3.5938-3.5625a1.0087,1.0087 0 0,0 1-1v-7.0625a1.0087,1.0087 0 0,0 -1-1c-2.0014,0-3.5938-1.5975-3.5938-3.5625 0-1.965 1.5923-3.5625 3.5938-3.5625a1.0087,1.0087 0 0,0 1-1v-7.0625a1.0087,1.0087 0 0,0 -1-1c-2.0014,0-3.5938-1.5975-3.5938-3.5625 0-1.965 1.5923-3.5625 3.5938-3.5625a1.0087,1.0087 0 0,0 1-1v-7.0625a1.0087,1.0087 0 0,0 -1-1c-2.0014,0-3.5938-1.5975-3.5938-3.5625 0-1.9242 1.5291-3.4981 3.4688-3.5625a1.0087,1.0087 0 0,0 .9688-1.2188c-.614-2.9505-2.8616-5.2814-5.75-6.0625a1.0087,1.0087 0 0,0 -1.25,.9062c-.1056,1.8735-1.6317,3.375-3.5625,3.375-2.0014,0-3.625-1.6058-3.625-3.5625a1.0087,1.0087 0 0,0 -1-1h-7.1562a1.0087,1.0087 0 0,0 -1,1c0,1.965-1.5923,3.5625-3.5938,3.5625-2.0014,0-3.625-1.6058-3.625-3.5625a1.0087,1.0087 0 0,0 -1-1h-7.1562a1.0087,1.0087 0 0,0 -1,1c0,1.9567-1.6236,3.5625-3.625,3.5625-2.0014,0-3.5938-1.5975-3.5938-3.5625a1.0087,1.0087 0 0,0 -1-1h-7.1562a1.0087,1.0087 0 0,0 -1,1c0,1.9567-1.6236,3.5625-3.625,3.5625-2.0014,0-3.5938-1.5975-3.5938-3.5625a1.0087,1.0087 0 0,0 -1-1h-7.1875a1.0087,1.0087 0 0,0 -.1875,0z"/>
<path opacity=".45" fill="url(#linearGradient3643)" d="m12,7c-3.1577,0-5.7192,2.4087-5.9688,5.5 2.4694,.0171 4.4688,2.0266 4.4688,4.5 0,2.484-2.016,4.5-4.5,4.5v7c2.484,0 4.5,2.016 4.5,4.5 0,2.484-2.016,4.5-4.5,4.5v7c2.484,0 4.5,2.016 4.5,4.5 0,2.484-2.016,4.5-4.5,4.5v7c2.484,0 4.5,2.016 4.5,4.5 0,2.484-2.016,4.5-4.5,4.5v7c2.484-0 4.5,2.016 4.5,4.5 0,2.4734-1.9993,4.4829-4.4688,4.5 .2495,3.0913 2.8111,5.5 5.9688,5.5 0-2.484 2.016-4.5 4.5-4.5 2.484,0 4.5,2.016 4.5,4.5h7c0-2.484 2.016-4.5 4.5-4.5 2.484,0 4.5,2.016 4.5,4.5h7c0-2.484 2.016-4.5 4.5-4.5 2.484,0 4.5,2.016 4.5,4.5h7c0-2.484 2.016-4.5 4.5-4.5 2.484,0 4.5,2.016 4.5,4.5h7c-0-2.484 2.016-4.5 4.5-4.5 2.4522,0 4.4493,1.9661 4.5,4.4062 2.6885-.4451 4.746-2.647 4.9688-5.4062-2.4694-.0171-4.4688-2.0266-4.4688-4.5 0-2.484 2.016-4.5 4.5-4.5v-7c-2.484,0-4.5-2.016-4.5-4.5 0-2.484 2.016-4.5 4.5-4.5v-7c-2.484,0-4.5-2.016-4.5-4.5 0-2.484 2.016-4.5 4.5-4.5v-7c-2.484,0-4.5-2.016-4.5-4.5 0-2.484 2.016-4.5 4.5-4.5v-7c-2.484,0-4.5-2.016-4.5-4.5 0-2.4734 1.9993-4.4829 4.4688-4.5-.2227-2.7593-2.2802-4.9611-4.9688-5.4062-.0507,2.4401-2.0478,4.4062-4.5,4.4062-2.484,0-4.5-2.016-4.5-4.5h-7c0,2.484-2.016,4.5-4.5,4.5-2.484,0-4.5-2.016-4.5-4.5h-7c0,2.484-2.016,4.5-4.5,4.5-2.484,0-4.5-2.016-4.5-4.5h-7c0,2.484-2.016,4.5-4.5,4.5-2.484,0-4.5-2.016-4.5-4.5h-7c0,2.484-2.016,4.5-4.5,4.5-2.484,0-4.5-2.016-4.5-4.5z"/>
<path opacity=".3" fill="url(#linearGradient3652)" d="m20.3438,7c0,2.5136-2.0506,4.5625-4.5938,4.5625-2.5214,0-4.559-2.016-4.5938-4.5-2.9961,.3585-5.3943,2.5891-6,5.5 2.4704,.082 4.4375,2.1009 4.4375,4.5625 0,2.5136-2.0506,4.5625-4.5938,4.5625v7.0625c2.5431,0 4.5938,2.0489 4.5938,4.5625 0,2.5136-2.0506,4.5625-4.5938,4.5625v7.0625c2.5431,0 4.5938,2.0489 4.5938,4.5625 0,2.5136-2.0506,4.5625-4.5938,4.5625v7.0625c2.5431,0 4.5938,2.0489 4.5938,4.5625 0,2.5136-2.0506,4.5625-4.5938,4.5625v7.0625c2.5431-0 4.5938,2.0489 4.5938,4.5625 0,2.4615-1.9671,4.4805-4.4375,4.5625 .6057,2.9109 3.0039,5.1415 6,5.5 .0348-2.484 2.0723-4.5 4.5938-4.5 2.5431,0 4.5938,2.0489 4.5938,4.5625h7.1875c0-2.5136 2.0506-4.5625 4.5938-4.5625 2.5431,0 4.625,2.0489 4.625,4.5625h7.1562c0-2.5136 2.0506-4.5625 4.5938-4.5625 2.5431,0 4.625,2.0489 4.625,4.5625h7.1562c0-2.5136 2.0819-4.5625 4.625-4.5625 2.5431,0 4.5938,2.0489 4.5938,4.5625h7.1562c-0-2.5136 2.0819-4.5625 4.625-4.5625 2.456,0 4.4276,1.9182 4.5625,4.3125 2.5226-.6822 4.4631-2.7322 5-5.3125-2.4704-.082-4.4375-2.1009-4.4375-4.5625 0-2.5136 2.0506-4.5625 4.5938-4.5625v-7.0625c-2.5431,0-4.5938-2.0489-4.5938-4.5625 0-2.5136 2.0506-4.5625 4.5938-4.5625v-7.0625c-2.5431,0-4.5938-2.0489-4.5938-4.5625 0-2.5136 2.0506-4.5625 4.5938-4.5625v-7.0625c-2.5431,0-4.5938-2.0489-4.5938-4.5625 0-2.5136 2.0506-4.5625 4.5938-4.5625v-7.0625c-2.5431,0-4.5938-2.0489-4.5938-4.5625 0-2.4616 1.9671-4.4805 4.4375-4.5625-.5369-2.5803-2.4774-4.6303-5-5.3125-.1349,2.3943-2.1065,4.3125-4.5625,4.3125-2.5431,0-4.625-2.0489-4.625-4.5625h-7.1562c0,2.5136-2.0506,4.5625-4.5938,4.5625-2.5431,0-4.625-2.0489-4.625-4.5625h-7.1562c0,2.5136-2.0819,4.5625-4.625,4.5625-2.5431,0-4.5938-2.0489-4.5938-4.5625h-7.1562c0,2.5136-2.0819,4.5625-4.625,4.5625-2.5431,0-4.5938-2.0489-4.5938-4.5625h-7.1875z"/>
<path opacity=".1" fill="url(#linearGradient3652)" d="m19.9688,5.0625c-2.3303,.4186-.951,3.7558-3.1706,4.3572-2.521,1.0628-3.5692-1.5089-4.0169-3.4197-1.6068-2.0397-4.7156-.1187-6.3251,.9718-1.6613,1.5187-3.9137,4.1149-3.0187,6.5282 .963,1.7201 3.9861,.5317 4.168,3.1048 .5461,2.4484-1.8751,2.9888-3.6055,3.4264-1.7286,1.2095-.6257,3.6943-.9375,5.4482 .2132,1.6664-.7689,4.399 1.375,5.1143 3.2092-.4575 4.5988,4.5868 1.1075,5.2907-1.6977-.2501-2.9027,1.4136-2.4825,3.0017 .1671,2.3025-.3229,4.7199 .2188,6.9576 .9665,1.8283 4.1171,.4439 4.3224,3.1252 .5553,2.4514-1.8692,3.0011-3.6037,3.4373-1.7286,1.2095-.6257,3.6943-.9375,5.4482 .2132,1.6664-.7689,4.399 1.375,5.1143 3.2092-.4575 4.5988,4.5868 1.1075,5.2907-1.6977-.2501-2.9027,1.4136-2.4825,3.0017 .1671,2.3025-.3229,4.7199 .2188,6.9576 .9665,1.8283 4.1171,.4439 4.3224,3.1252 .5871,2.5432-2.0477,2.8495-3.6974,3.5935-1.8374,1.7909 .3534,4.6396 1.5459,6.1651 1.6687,1.5649 4.5831,3.6735 6.9229,2.3661 1.3306-1.1911 .3527-3.8497 2.8337-4.0425 2.4103-.564 3.0303,1.8314 3.4788,3.5738 1.2095,1.7286 3.6943,.6257 5.4482,.9375 1.6851-.2476 4.3808,.7952 5.2081-1.2812-.2394-2.6851 3.2899-4.6155 5.0134-2.118 .4375,1.222 .4756,3.3734 2.2991,3.3992 2.6837-.1502 5.4625,.286 8.0938-.1875 1.7982-.807 .5557-3.6262 2.7018-4.1697 2.3284-.9921 3.8016,1.2694 3.9232,3.2635 1.0438,1.8806 3.5773,.8163 5.2891,1.0938 1.7341-.2885 4.3004,.8032 5.3671-1.0938 .1216-1.994 1.5948-4.2556 3.9232-3.2635 2.1693,.5602 .8551,4.077 3.2643,4.326 2.707-.0522 5.5157,.2499 8.1875-.125 1.9165-.7198 .6372-3.665 2.823-4.1981 2.6673-1.1436 3.2884,1.7364 4.177,3.4481 1.678,1.6808 4.2499-.3415 5.6605-1.46 1.387-1.5301 3.5645-4.0962 2.3707-6.2587-1.089-1.448-3.8563-.4497-4.043-2.9173-.5461-2.4484 1.8751-2.9888 3.6055-3.4264 1.7286-1.2095 .6257-3.6943 .9375-5.4482-.2132-1.6664 .7689-4.399-1.375-5.1143-3.2092,.4575-4.5988-4.5868-1.1075-5.2907 1.6977,.2501 2.9027-1.4136 2.4825-3.0017-.1671-2.3025 .3229-4.7199-.2188-6.9576-.9665-1.8283-4.1171-.4439-4.3224-3.1252-.5553-2.4514 1.8692-3.0011 3.6037-3.4373 1.7286-1.2095 .6257-3.6943 .9375-5.4482-.2132-1.6664 .7689-4.399-1.375-5.1143-3.2092,.4575-4.5988-4.5868-1.1075-5.2907 1.6977,.2501 2.9027-1.4136 2.4825-3.0017-.1671-2.3025 .3229-4.7199-.2188-6.9576-.9665-1.8283-4.1171-.4439-4.3224-3.1252-.5871-2.5432 2.0477-2.8495 3.6974-3.5935 1.7378-1.6304-.159-4.2635-1.1931-5.7541-1.4525-1.485-3.8929-3.7556-6.1194-2.6834-1.5013,1.013-.6095,3.7622-2.9761,3.9497-2.3064,.5197-3.1568-1.7031-3.4301-3.481-1.1583-1.8528-3.7343-.7198-5.5107-1.0312-1.6761,.2424-4.3567-.7866-5.1768,1.2812 .2394,2.6851-3.2899,4.6155-5.0134,2.118-.4375-1.222-.4756-3.3734-2.2991-3.3992-2.6837,.1502-5.4625-.286-8.0938,.1875-1.7942,.8172-.57,3.6269-2.7293,4.1668-2.4003,1.0296-3.6922-1.3519-3.927-3.3231-1.1583-1.8528-3.7343-.7198-5.5107-1.0312-1.6761,.2424-4.3567-.7866-5.1768,1.2812 .1796,2.4257-2.7375,4.4713-4.7034,2.515-.9957-1.0581-.4129-3.4731-2.3278-3.765-2.6347-.0748-5.2942-.0094-7.9375-.0312z"/>
<path fill="url(#linearGradient2982)" d="m12,6c-3.1577,0-5.7192,2.4087-5.9688,5.5 2.4694,.0171 4.4688,2.0266 4.4688,4.5 0,2.484-2.016,4.5-4.5,4.5v7c2.484,0 4.5,2.016 4.5,4.5 0,2.484-2.016,4.5-4.5,4.5v7c2.484,0 4.5,2.016 4.5,4.5 0,2.484-2.016,4.5-4.5,4.5v7c2.484,0 4.5,2.016 4.5,4.5 0,2.484-2.016,4.5-4.5,4.5v7c2.484-0 4.5,2.016 4.5,4.5 0,2.4734-1.9993,4.4829-4.4688,4.5 .2495,3.0913 2.8111,5.5 5.9688,5.5 0-2.484 2.016-4.5 4.5-4.5 2.484,0 4.5,2.016 4.5,4.5h7c0-2.484 2.016-4.5 4.5-4.5 2.484,0 4.5,2.016 4.5,4.5h7c0-2.484 2.016-4.5 4.5-4.5 2.484,0 4.5,2.016 4.5,4.5h7c0-2.484 2.016-4.5 4.5-4.5 2.484,0 4.5,2.016 4.5,4.5h7c-0-2.484 2.016-4.5 4.5-4.5 2.4522,0 4.4493,1.9661 4.5,4.4062 2.6885-.4451 4.746-2.647 4.9688-5.4062-2.4694-.0171-4.4688-2.0266-4.4688-4.5 0-2.484 2.016-4.5 4.5-4.5v-7c-2.484,0-4.5-2.016-4.5-4.5 0-2.484 2.016-4.5 4.5-4.5v-7c-2.484,0-4.5-2.016-4.5-4.5 0-2.484 2.016-4.5 4.5-4.5v-7c-2.484,0-4.5-2.016-4.5-4.5 0-2.484 2.016-4.5 4.5-4.5v-7c-2.484,0-4.5-2.016-4.5-4.5 0-2.4734 1.9993-4.4829 4.4688-4.5-.2227-2.7593-2.2802-4.9611-4.9688-5.4062-.0507,2.4401-2.0478,4.4062-4.5,4.4062-2.484,0-4.5-2.016-4.5-4.5h-7c0,2.484-2.016,4.5-4.5,4.5-2.484,0-4.5-2.016-4.5-4.5h-7c0,2.484-2.016,4.5-4.5,4.5-2.484,0-4.5-2.016-4.5-4.5h-7c0,2.484-2.016,4.5-4.5,4.5-2.484,0-4.5-2.016-4.5-4.5h-7c0,2.484-2.016,4.5-4.5,4.5-2.484,0-4.5-2.016-4.5-4.5z"/>
<path opacity=".8" fill="url(#linearGradient2984)" d="m12,6c-3.1577,0-5.7192,2.4087-5.9688,5.5 .3876,.0027 .7665,.0613 1.125,.1562 .5061-1.9479 2.0913-3.3648 4.125-3.6562 .5136,2.4581 2.6136,4.375 5.2188,4.375 2.6501,0 4.7867-1.9789 5.25-4.5h5.5c.4633,2.5211 2.5999,4.5 5.25,4.5 2.6501,0 4.7867-1.9789 5.25-4.5h5.5c.4633,2.5211 2.5999,4.5 5.25,4.5 2.6501,0 4.7867-1.9789 5.25-4.5h5.5c.4633,2.5211 2.5999,4.5 5.25,4.5 2.6501,0 4.7867-1.9789 5.25-4.5h5.5c.4633,2.5211 2.5999,4.5 5.25,4.5 2.5338,0 4.5992-1.7976 5.1875-4.1562 1.5651,.5524 2.7347,1.8127 3.1562,3.4375 .3585-.0949 .7374-.1536 1.125-.1562-.2227-2.7593-2.2802-4.9611-4.9688-5.4062-.0507,2.4401-2.0478,4.4062-4.5,4.4062-2.484,0-4.5-2.016-4.5-4.5h-7c0,2.484-2.016,4.5-4.5,4.5-2.484,0-4.5-2.016-4.5-4.5h-7c0,2.484-2.016,4.5-4.5,4.5-2.484,0-4.5-2.016-4.5-4.5h-7c0,2.484-2.016,4.5-4.5,4.5-2.484,0-4.5-2.016-4.5-4.5h-7c0,2.484-2.016,4.5-4.5,4.5-2.484,0-4.5-2.016-4.5-4.5zm-3.9688,6c1.4652,.7424 2.4688,2.2462 2.4688,4 0,2.484-2.016,4.5-4.5,4.5v7c.3211,0 .6354,.0297 .9375,.0938v-5.4062c2.5211-.4633 4.5-2.5999 4.5-5.25 0-2.2513-1.4321-4.1336-3.4062-4.9375zm79.9375,0c-1.9742,.8039-3.4062,2.6862-3.4062,4.9375 0,2.6501 1.9789,4.7867 4.5,5.25v5.4062c.3021-.064 .6164-.0938 .9375-.0938v-7c-2.484,0-4.5-2.016-4.5-4.5 0-1.7538 1.0035-3.2576 2.4688-4zm-79.7812,16.0938c1.3692,.7719 2.3125,2.2234 2.3125,3.9062 0,2.484-2.016,4.5-4.5,4.5v7c.3211,0 .6354,.0297 .9375,.0938v-5.4062c2.5211-.4633 4.5-2.5999 4.5-5.25 0-2.1892-1.3591-4.0092-3.25-4.8438zm79.625,0c-1.8909,.8346-3.25,2.6546-3.25,4.8438 0,2.6501 1.9789,4.7867 4.5,5.25v5.4062c.3021-.064 .6164-.0938 .9375-.0938v-7c-2.484,0-4.5-2.016-4.5-4.5 0-1.6828 .9433-3.1343 2.3125-3.9062zm-79.625,16c1.3692,.7719 2.3125,2.2234 2.3125,3.9062 0,2.484-2.016,4.5-4.5,4.5v7c.3211,0 .6354,.0297 .9375,.0938v-5.4062c2.5211-.4633 4.5-2.5999 4.5-5.25 0-2.1892-1.3591-4.0092-3.25-4.8438zm79.625,0c-1.8909,.8346-3.25,2.6546-3.25,4.8438 0,2.6501 1.9789,4.7867 4.5,5.25v5.4062c.3021-.064 .6164-.0938 .9375-.0938v-7c-2.484,0-4.5-2.016-4.5-4.5 0-1.6828 .9433-3.1343 2.3125-3.9062zm-79.625,16c1.3692,.7719 2.3125,2.2234 2.3125,3.9062 0,2.484-2.016,4.5-4.5,4.5v7c.3211-0 .6354,.0297 .9375,.0938v-5.4062c2.5211-.4633 4.5-2.5999 4.5-5.25 0-2.1892-1.3591-4.0092-3.25-4.8438zm79.625,0c-1.8909,.8346-3.25,2.6546-3.25,4.8438 0,2.6501 1.9789,4.7867 4.5,5.25v5.4062c.3021-.064 .6164-.0938 .9375-.0938v-7c-2.484,0-4.5-2.016-4.5-4.5 0-1.6828 .9433-3.1343 2.3125-3.9062zm-79.625,16c1.3692,.7719 2.3125,2.2234 2.3125,3.9062 0,2.4734-1.9993,4.4829-4.4688,4.5 .2495,3.0913 2.8111,5.5 5.9688,5.5 0-2.1629 1.5274-3.975 3.5625-4.4062-2.1542,.4005-3.8319,2.1304-4.2812,4.2812-2.0542-.2944-3.6355-1.7406-4.125-3.7188 2.4131-.5481 4.2812-2.6458 4.2812-5.2188 0-2.1892-1.3591-4.0092-3.25-4.8438zm79.625,0c-1.8909,.8346-3.25,2.6546-3.25,4.8438 0,2.5729 1.8681,4.6707 4.2812,5.2188-.4087,1.6533-1.5722,2.9409-3.1562,3.5-.5147-2.0638-2.1492-3.6862-4.25-4.0625 2.0106,.4212 3.5184,2.1881 3.5625,4.3125 2.6885-.4451 4.746-2.647 4.9688-5.4062-2.4694-.0171-4.4688-2.0266-4.4688-4.5 0-1.6828 .9433-3.1343 2.3125-3.9062zm-70.3438,9.5c2.0202,.4425 3.5312,2.2539 3.5312,4.4062h.75c-.4054-2.2059-2.0906-3.993-4.2812-4.4062zm14.0625,0c-2.1906,.4132-3.8759,2.2003-4.2812,4.4062h.75c0-2.1524 1.5111-3.9637 3.5312-4.4062zm1.9375,0c2.0202,.4425 3.5312,2.2539 3.5312,4.4062h.75c-.4054-2.2059-2.0906-3.993-4.2812-4.4062zm14.0625,0c-2.1906,.4132-3.8759,2.2003-4.2812,4.4062h.75c0-2.1524 1.5111-3.9637 3.5312-4.4062zm1.9375,0c2.0202,.4425 3.5312,2.2539 3.5312,4.4062h.75c-.4054-2.2059-2.0906-3.993-4.2812-4.4062zm14.0625,0c-2.1906,.4132-3.8759,2.2003-4.2812,4.4062h.75c0-2.1524 1.5111-3.9637 3.5312-4.4062zm1.9375,0c2.0202,.4425 3.5312,2.2539 3.5312,4.4062h.75c-.4054-2.2059-2.0906-3.993-4.2812-4.4062zm14.0625,0c-2.1906,.4132-3.8759,2.2003-4.2812,4.4062h.75c-0-2.1524 1.5111-3.9637 3.5312-4.4062z"/>
<path opacity=".3" fill="url(#radialGradient2986)" d="m6.5312,9.5625c-.266,.6018-.4444,1.2489-.5,1.9375 2.1261,.0147 3.8906,1.507 4.3438,3.5 .0738-.3231 .125-.6547 .125-1 0-2.3025-1.7373-4.172-3.9688-4.4375zm82.9375,0c-2.2314,.2655-3.9688,2.135-3.9688,4.4375 0,.3453 .0512,.6769 .125,1 .4532-1.993 2.2177-3.4853 4.3438-3.5-.0557-.6898-.2338-1.3361-.5-1.9375zm-83.4688,15.9375v2c2.1387,0 3.9181,1.4991 4.375,3.5 .0738-.3231 .125-.6547 .125-1 0-2.484-2.016-4.5-4.5-4.5zm84,0c-2.484,0-4.5,2.016-4.5,4.5 0,.3453 .0512,.6769 .125,1 .4569-2.0009 2.2363-3.5 4.375-3.5v-2zm-84,16 0,2c2.1387,0 3.9181,1.4991 4.375,3.5 .0738-.3231 .125-.6547 .125-1 0-2.484-2.016-4.5-4.5-4.5zm84,0c-2.484,0-4.5,2.016-4.5,4.5 0,.3453 .0512,.6769 .125,1 .4569-2.0009 2.2363-3.5 4.375-3.5v-2zm-84,16 0,2c2.1387,0 3.9181,1.4991 4.375,3.5 .0738-.3231 .125-.6547 .125-1 0-2.484-2.016-4.5-4.5-4.5zm84,0c-2.484,0-4.5,2.016-4.5,4.5 0,.3453 .0512,.6769 .125,1 .4569-2.0009 2.2363-3.5 4.375-3.5v-2zm-84,16 0,2c2.1387-0 3.9181,1.4991 4.375,3.5 .0732-.3218 .125-.6561 .125-1 0-2.484-2.016-4.5-4.5-4.5zm84,0c-2.484,0-4.5,2.016-4.5,4.5 0,.3439 .0518,.6782 .125,1 .4569-2.0009 2.2363-3.5 4.375-3.5v-2zm-73.5,10c-2.484,0-4.5,2.016-4.5,4.5-2.4543,0-4.5404-1.4627-5.4688-3.5625-.1657,.0197-.3293,.0613-.5,.0625 .2495,3.0913 2.8111,5.5 5.9688,5.5 0-2.484 2.016-4.5 4.5-4.5 2.484,0 4.5,2.016 4.5,4.5h7c0-2.484 2.016-4.5 4.5-4.5 2.484,0 4.5,2.016 4.5,4.5h7c0-2.484 2.016-4.5 4.5-4.5 2.484,0 4.5,2.016 4.5,4.5h7c0-2.484 2.016-4.5 4.5-4.5 2.484,0 4.5,2.016 4.5,4.5h7c-0-2.484 2.016-4.5 4.5-4.5 2.4522,0 4.4493,1.9661 4.5,4.4062 2.6885-.4451 4.746-2.647 4.9688-5.4062-.1707-.0012-.3343-.0428-.5-.0625-.7987,1.8042-2.4523,3.1349-4.4688,3.4688-.0507-2.4401-2.0478-4.4062-4.5-4.4062-2.484,0-4.5,2.016-4.5,4.5h-7c0-2.484-2.016-4.5-4.5-4.5-2.484,0-4.5,2.016-4.5,4.5h-7c0-2.484-2.016-4.5-4.5-4.5-2.484,0-4.5,2.016-4.5,4.5h-7c0-2.484-2.016-4.5-4.5-4.5-2.484,0-4.5,2.016-4.5,4.5h-7c0-2.484-2.016-4.5-4.5-4.5z"/>
<path fill="#92b6c8" d="M 16.0001,16.0001 H80 V80 H16.0001 z"/>
<g clip-path="url(#clipPath4200)" transform="matrix(1.69397 0 0 1.69397 -211.09731 -87.04277)">
<path fill="url(#radialGradient3831)" d="m173.2565,82.0561c0,10.3055-8.3535,18.6589-18.6527,18.6589-10.2993,0-18.663-8.3534-18.663-18.6589 0-10.3055 8.3535-18.6589 18.6589-18.6589 10.3055,0 18.6569,8.3534 18.6569,18.6589z"/>
<path fill="#340000" d="m138.0752,67.3484-5.2409,6.709 2.7804,14.148 25.5873,8.2858 6.1205-10.3977-1.7941-15.5792-19.6452-9.0649-7.6645,5.7166-.1435,.1825z"/>
<path fill="url(#radialGradient3827)" d="m165.756,76.0791-19.5652,7.361-8.9932-14.3017-3.9245,5.0236 2.6963,13.7276 25.046,8.1094 5.8847-9.9958-1.1441-9.9241z"/>
<path fill="url(#linearGradient3824)" d="m145.9509,85.2343-7.4492-10.5946c-4.1685,3.6908 .2727,8.4068-.3363,9.0916-.4115,.4552-1.3697-.069-2.8747-1.5727-2.2575-2.2555 .4101,2.6656 1.6404,4.3736 .8202,1.14-.1592,1.0717-2.9383-.205l-.8222-13.3955 3.6395-4.4084 36.2065,5.0236-10.6622,6.1513-16.4034,5.5362z"/>
<path fill="#340000" d="m172.0775,73.7006-25.8867,9.7395-9.3807-14.9169-.3465,.2173 9.5591,15.2019 26.1983-9.8585-.1435-.3834z"/>
<path fill="url(#radialGradient3820)" d="m165.756,76.0791-.3875-3.3627-27.7792-4.0783-.1476,.1866-.244,.3137 8.9932,14.3017 19.5652-7.361z"/>
<path fill="url(#linearGradient3817)" d="m135.9694,87.8896 25.046,8.1094 .693-1.179-26.0774-8.6549 .3383,1.7244z"/>
<path fill="#7b5516" d="m165.7601,72.5236-.3916,.1927 .3875,3.3627-4.5889,1.7265c2.2637,4.8493 .5557,10.9144 .5618,10.9144 3.5083-1.8761 4.4269-7.2585 4.5971-11.3512l-.5659-4.8452z"/>
<path fill="#7b5516" d="m154.9154,72.1013c3.539,.9637 5.1671,3.3791 6.2579,5.7043l4.5848-1.7265-.3875-3.3627-3.6621-.5372-.242,1.1626-6.5511-1.2405z"/>
<path fill="url(#linearGradient3812)" d="m140.3983,69.0502-2.8091-.4121-.1476,.1866-.244,.3137 3.0326,4.8226 .0164-.002c.1333-.812 .3916-1.4538 .3978-1.4538 .006,0 .0144,.039 .0513,.1025l-.039-.894c-.0164-.7259-.2132-1.7121-.2522-2.6635h-.006z"/>
<path fill="url(#linearGradient3809)" d="m154.9154,72.1013c0,0-2.7783-.6049-4.7201-.7423-1.9418-.1374-4.3633,1.7798-5.1261,2.2391-.406,.244-.8632,.4921-1.3492,.7505 .039,1.9295 .5065,6.1144 3.658,7.8613-.008-10.2521 7.5374-10.1086 7.5435-10.1086h-.006z"/>
<path d="m144.6509,90.7007-8.6815-2.8111-1.0293-4.3141-1.8208-.5967c0,0 1.8966,5.9462 5.2778,10.7237 6.8546,4.7775 5.1794,2.4503 5.1855,2.4503 1.2262,.7177 2.0463,.7177 2.0525,.7177-.004-.7177-3.0797-.8714-3.945-5.7412 .9186,1.8454 4.6094,2.8706 4.8206,2.6656 .1353-.1367-.4497-1.1448-1.7552-3.0244l-.1046-.0697z"/>
<path fill="url(#linearGradient3805)" d="m142.0899,95.5377c0,0-4.3777-.2973-8.1033-7.685-2.2001-7.6419 2.9034,4.3961 8.1095,7.685h-.006z"/>
<path fill="url(#linearGradient3802)" d="m131.8214,78.6811c0,0 .529,11.5255 6.3789,13.4221-2.9772-4.0496-3.822-11.9437-3.8159-11.9437l-2.563-1.4784z"/>
<path fill="url(#radialGradient3799)" d="m135.2723,86.0032c-1.2303,.2563-3.5616-4.0496-3.4796-8.5093 .0492-2.9731 .5598-5.3482 1.5317-7.1252l1.0252,8.458c0,0 0,5.7925 .9288,7.1765h-.006z"/>
<path d="m151.0093,59.2963c0,0-14.0454,2.2555-17.6788,11.0723-2.4913,6.2292 3.1474,11.5603 3.9983,10.7135-.004,0-3.0613-3.9799-.0492-9.9261 2.004-3.9642 6.5805-7.9174 13.7297-11.8597z"/>
<path fill="url(#radialGradient3795)" d="m151.0093,59.2963c0,0-14.0454,2.2555-17.6788,11.0723-2.4913,6.2292 3.1474,11.5603 3.9983,10.7135-.004,0-3.8999-4.6135-.4593-10.8673 2.2883-4.1692 7.0015-7.8087 14.1398-10.9185z"/>
<path fill="url(#linearGradient3792)" d="m133.308,72.0438c-.7525,5.0236 .8653,3.1433 2.1242-.7525-1.2528,2.1694-2.1242,1.5891-2.1181,.7525h-.006zm1.5665-3.4775c-2.237,4.5622-.1271,3.2602 2.2534-.0759-1.8515,1.6916-2.5077,.8735-2.2473,.0759h-.006zm4.4699-4.6647c-3.2561,2.8932-1.1585,2.5446 1.8146,.6705-2.0217,.7423-2.2739-.1189-1.8085-.6705h-.006zm-2.3067,2.0607c-3.2581,3.5616-.9863,2.9362 2.075,.5311-2.1406,1.0498-2.52,.1292-2.0689-.5311h-.006zm6.3256-2.8809c-1.7716,.4962-1.9295-.2584-1.4927-.6971-2.9875,2.2473-1.1708,2.0935 1.4989,.6971h-.006z"/>
</g>
<g transform="matrix(1.69397 0 0 1.69397 -211.09731 -53.16333)">
<path d="m164.7718,41.5764c-1.0662-.9965-3.5411-1.6629-4.9436-1.9479-1.2077-.242-2.4933-.3199-3.7113-.4101-.8407-.0595-3.2356-.0144-4.2526,.0902-2.5671,.2666-3.5944,1.2139-5.6592,2.6738-1.8925,1.3307-4.677,2.7804-5.4992,5.1076-.652,1.2918-.0656,3.3545-.0349,4.6237l.0349,.894c-.039-.0636-.0574-.1025-.0513-.1025 .006,0-1.14,2.8275 .1333,4.1009 .0123-.1148 .039-.2276 .0841-.3383l-.082,.3383c0,0 .5557-1.017 1.5768-1.5481 1.0211-.5311 1.9581-1.0006 2.7209-1.4599 .7628-.4593 3.1536-2.3744 5.1015-2.2391 1.2986,.0916 5.0577,.7525 11.2774,1.9828l.65-3.1433-1.177-.8878c.1251-.3301 .2215-.6807 .4039-.9801 .447-.7689 .5024-1.4394 .4941-2.317 1.0375-.2461 2.2001-.6725 2.8788-1.5542 .5782-.771 .8571-2.1324 .0615-2.8829h-.006z"/>
<path fill="url(#linearGradient3906)" d="m164.7718,41.5764c-1.0662-.9965-3.5411-1.6629-4.9436-1.9479-1.2077-.242-2.4933-.3199-3.7113-.4101-.8407-.0595-3.2356-.0144-4.2526,.0902-2.5671,.2666-3.5944,1.2139-5.6592,2.6738-1.8925,1.3307-4.677,2.7804-5.4992,5.1076-.652,1.2918-.0656,3.3545-.0349,4.6237l.0349,.894c-.039-.0636-.0574-.1025-.0513-.1025 .006,0-1.14,2.8275 .1333,4.1009 .1374-1.3328 2.2555-2.358 2.2616-2.358l1.5604-.7853c.2379-.162 .8919-.5598 1.1011-.7689 1.2446-.7197 2.2883-1.5112 3.7605-1.6567 1.9418-.1948 3.7789,.6684 5.7166,.4593 1.587-.1722 3.7584-.3978 5.1384-1.2774 .6479-.4162 .6664-1.261 1.0416-1.8884 .447-.7669 .5024-1.4394 .4942-2.317 1.0375-.2461 2.2001-.6725 2.8788-1.5542 .5536-.771 .8325-2.1324 .0369-2.8829h-.006z"/>
<path fill="#484848" d="m150.1891,38.1686c-.2235,.0943-.4511,.2255-.6746,.3834 .2276-.1579 .4552-.2912 .6807-.3834h-.006zc-1.9746,1.2815-2.7004,3.9307-2.6943,3.9307 .2009-.0861 .4983-.4634 .8981-.9247-.2399,.2768-.445,.5249-.6069,.6951 .0102-.0492 .814-2.1837 2.4092-3.701h-.006zm-.6154-1.4353c-4.4084,3.2212-4.2054,5.8068-4.1993,5.8068 .0636-.0328 .1456-.0923 .2461-.1722-.008-.0021-.1251-1.991 3.9594-5.6346h-.006zm1.0929,2.563c-1.017,1.4353-.2379,1.7429-.2317,1.7429 .006,0-.2891-.4778 .2317-1.7429zm-1.0847,.6684c.326-.2645 .6869-.5024 1.0908-.6684-.4203,.1743-.7792,.4101-1.0847,.6684-.006,0-.006,0 0,0h-.006z"/>
<path fill="url(#linearGradient3908)" d="m141.159,46.1468c2.7927-8.5277 8.415-9.4135 8.4211-9.4135-4.4125,3.2212-4.2095,5.8068-4.2034,5.8068 .7218-.365 3.0346-3.619 4.8185-4.3715-1.9766,1.2815-2.7045,3.9307-2.6984,3.9307 .49-.205 1.5173-2.1099 3.1802-2.8029-1.0191,1.4353-.242,1.7429-.2358,1.7429l-9.2823,5.1076z"/>
<path fill="url(#linearGradient3910)" d="m142.824,52.8128c4.7672-.1538 2.2391-3.4017 8.6016-9.5529-5.1835,3.008-10.5823,2.9403-8.5954,9.5529h-.006z"/>
<path fill="url(#linearGradient3912)" d="m142.824,52.8128c.8386-1.2139 3.6744-5.9298 8.6016-9.5529-5.1835,3.008-10.5823,2.9403-8.5954,9.5529h-.006z"/>
<path fill="#000064" d="m145.2804,50.9161c-.896,.896-1.9684,.6869-2.0525-.4942-.1312-1.669 1.6588-1.8454 2.438-1.5911 .2625,.7566-.0697,1.4948-.3793,2.0853"/>
<path fill="url(#radialGradient3914)" d="m145.3665,50.6926c-.2891,.5393-.9637,.7566-1.3369,.5536-.3814-.203-.3793-.8817-.0841-1.4209 .285-.5393 1.544-.2973 1.5501-.2973 .006,0 .1599,.6274-.1292,1.1646z"/>
<path fill="url(#radialGradient3916)" d="m144.0932,50.7254c.2625,.3281 .6643,.4449 .9022,.2604 .2276-.1866 .3322-.7341 .0738-1.0621-.2666-.3301-.7976-.3137-1.0232-.1292-.242,.1845-.2174,.6028 .0533,.9309h-.006z"/>
<path fill="url(#radialGradient3918)" d="m143.0987,54.1783c0,0 0-.5126-.1476-1.0252-1.7654,.5987-2.3108-.6479-2.3047-.6479 .006,0-1.1421,2.8275 .1312,4.1009 .1374-1.3328 2.2555-2.358 2.2616-2.358"/>
<path fill="#484848" d="m143.029,54.2481 .0697-.0697c0,0 0-.5126-.1476-1.0252-2.807,1.503-2.1755,3.4529-2.1694,3.4529 .1292-1.3328 2.2473-2.358 2.2534-2.358h-.006z"/>
<path fill="url(#radialGradient3920)" d="m140.7695,54.3424c0,0 .0143-.8468 .3998-1.0006-.004,.1661 .1927,.2953 .3916,.2953-.5372,.0533-.7915,.7053-.7853,.7053h-.006z"/>
<path fill="#fff" fill-opacity=".25" d="m141.159,46.1468 .004-.0021c-.1907,.2994-.3527,.611-.4654,.9452-.5598,1.1072-.2091,2.7804-.0738,4.0332 .1169,.4408 .2543,.894 .5024,1.1421l.3035,.1025c-.006-.6992 .242-1.3471 .2112-2.0504-.0472-.853-.2706-1.708-.0984-2.563 .1415-.7525 .5885-1.4045 .771-2.1509 .2194-.9288 .1927-1.9295 .324-2.8768-.5516,.976-1.0498,2.1058-1.4722,3.4201"/>
</g>
<g clip-path="url(#clipPath4196)" transform="matrix(1.69397 0 0 1.69397 -244.97678 -87.04277)">
<path d="m194.5728,75.2835-8.9542-3.7359-.7689,8.6631c.0984,.5598 .164,1.1646 .2071,1.8044-.0103-.1066-.0164-.2091-.0185-.3137-.7443,11.9068-7.808,18.0048-11.3532,19.5775 4.4556,.3076 7.1929-1.2426 7.1991-1.2426 .006,0-.5967,.73-2.1858,1.7039 1.9992,0 6.9715-1.8966 7.9516-3.8958l.5085,.205c-.002,0 9.6862-6.7664 7.4205-22.7659h-.006z"/>
<path fill="url(#linearGradient3958)" d="m185.0301,81.7014c-.7402,11.9068-7.8039,18.0048-11.3491,19.5775 8.743-1.9028 11.8453-12.848 11.3553-19.5775h-.006z"/>
<path fill="url(#linearGradient3960)" d="m178.6984,101.7402c0,0 7.0227-2.7681 7.8491-9.0732 3.2745,.4613-3.4406,8.0992-7.8429,9.0732h-.006z"/>
<path d="m179.9307,70.9325c-2.2842-3.3381-5.8027-4.392-9.0855-4.392 5.9565,.7525 14.7221,9.2105 9.8072,18.5912 2.9055-3.902 1.9151-10.3424-.7156-14.1992h-.006z"/>
<path d="m185.0568,81.3118c-1.5932,3.4365-4.4105,3.8199-4.4043,3.8199 .006,0 2.3539,.4101 4.3018-1.9479 .2789-.3404 .2891-.9965 .1087-1.872h-.006z"/>
<path fill="url(#linearGradient3962)" d="m194.5728,75.2835-8.9542-3.7359-.7689,8.6631c.082,.4695 .1415,.9719 .1845,1.4989-.002-.0041-.002-.0082 .004-.0082 .004,.1046 .0102,.2071 .0225,.3137-.0103-.1025-.0185-.203-.0205-.3035-.0308,.4326-.0677,.8571-.1046,1.2754-.1148,1.8659-.1312,5.3291 1.0232,7.4267 .7853-1.1872 1.5747-2.6697 1.8495-4.1542 .123,1.5071-.5905,3.4447-1.2897,4.9477 .2317,.2625 .5024,.4798 .814,.6397 .1169,.0492 .2358,.0861 .3609,.1169 .9821-1.2139 2.5774-3.4591 2.9916-5.7043 .1435,1.7716-.8653,4.1398-1.6547,5.694 3.3668-.9206 5.6612-8.3063 5.7084-8.4375-.004-.0021-.004-.0021 .002-.0041 .2625-2.4134 .2686-5.1486-.162-8.2284h-.006z"/>
<path fill="#0c418f" d="m189.8425,90.1143c-.2686,.6705-.568,1.3041-.8345,1.8413 1.2139-.3342 2.2903-1.5112 3.1761-2.8829-.7976,.5741-1.7695,.8919-2.3354,1.0416h-.006z"/>
<path fill="#0c418f" d="m186.8325,90.4587c-.1087,.2584-.2215,.5106-.3281,.7484 .2337,.2625 .5024,.4798 .814,.6397 .1169,.0492 .2358,.0861 .3609,.1169 .9822-1.2139 2.5774-3.4591 2.9916-5.7043-1.1236,2.8809-2.8214,3.8651-3.8322,4.1993h-.006z"/>
<path fill="url(#linearGradient3964)" d="m187.5665,79.3393c.5639,3.2807-1.6403,8.0992-1.6342,8.0992 .006,0 3.293-.6459 4.7467-7.6522 0,0-.3096,4.8657-.9514,6.0119-.004,0 3.1741-1.4866 3.8466-7.5353 .6725-6.0488-3.6949-9.7395-5.0789-9.0219-.9227,.4784-1.2323,3.8446-.9288,10.0984z"/>
<path fill="url(#linearGradient3966)" d="m194.6897,75.9848c0-.002 0-.002 .006-.0041-.3322-2.1468-.9083-4.187-1.6834-6.0221-1.9951-4.6791-5.3086-7.5353-9.1429-8.7143-8.7184-.8202-13.0243,5.2963-13.0182,5.2963 3.2848,0 6.8033,1.0539 9.0936,4.392 2.6327,3.8569 3.6231,10.2973 .7176,14.1992-.004,0 6.0447-.8202 5.4357-10.8673-.004,0 2.1489,4.2034-.6131,9.9958-.004,0 5.5833-1.384 3.8466-12.1488-.004,0 1.2774,2.4605 .8735,8.1505-.004,0 2.3026-1.6034 2.3088-6.5101-.004,0 1.585,5.1773 .002,8.458-.004,0 .0226-.0902 .1435-.1804 .4942-.4183 2.4339-2.075 2.0361-6.0447h-.006z"/>
<path fill="url(#linearGradient3968)" d="m180.3162,71.5374c1.1093,1.8392 1.7818,3.9553 2.0197,6.0857 .1599,.4347 .5762,1.1318 1.1503,.9719 .4716-.1353 .9001-.6787 1.179-1.0703 .3527-.5106 .4921-1.1318 .8304-1.6506 .1579-.2563 .3793-.4818 .4101-.7976 .006-.1107-.0328-.7669 .1948-.7464-.006-.0225-.006-.0431-.002-.0656-.004,0 .0102,.0308 .041,.0841 .1558,.1353 .2153,.4511 .2809,.6397 .0882,.2973 .1681,.5987 .2481,.9001 .1251,.5167 .4798,1.4476 1.1421,.8714 .3014-.2686 .488-.6766 .652-1.0437 .1497-.3568 .2399-.7135 .2994-1.099 .0984-.73 .0677-1.7265 .611-2.3026-.0144-.0677-.0246-.1353-.0287-.203-.004,0 .0369,.08 .1087,.2399 .242,.162 .5803,.3158 .8714,.1558 .2645-.1497 .3814-.488 .4593-.7669 .1066-.4265 .1456-.8735 .2358-1.3082 .0943-.4983 .1948-1.0088 .1599-1.5173 .2173,.5024 .4552,.9904 .652,1.5071 .1538,.4285 .3117,.8612 .3465,1.3205 .0267,.3896 .0185,.7812 .0718,1.1708 .0349,.3096 .1066,.691 .3834,.8878 .1189-1.6629 .3752-3.4632-.1579-5.081-.8714-1.6896-2.0012-3.252-3.4058-4.5314-1.4845-1.343-3.2458-2.358-5.1507-2.9444-8.7184-.8202-13.0243,5.2983-13.0182,5.2983 1.7716,0 3.5657,.3076 5.1896,1.0621 1.749,.8448 3.1966,2.2268 4.2321,3.9327h-.006z"/>
<path fill="url(#linearGradient3970)" d="m177.3656,63.3828c.5885,.7976-.0759,1.0662-1.4455,.937 4.1091,1.2815 3.1659,.1497 1.4517-.937h-.006zm3.8794-.5803c3.8671,.4224 2.8357-.4183 1.1298-1.0826 .6541,.6049 .1128,.9575-1.1236,1.0826h-.006zm2.7742,2.887c.5454,.8878-.1743,1.1113-1.6014,.855 4.1972,1.708 3.3094,.4367 1.6075-.855h-.006zm1.9418-1.0539c.5475,.8899-.1722,1.1113-1.5993,.855 4.1972,1.708 3.3094,.4367 1.6055-.855h-.006zm-8.7328,.8468c4.2034,1.708 3.3155,.4367 1.6137-.855 .5393,.8878-.1804,1.1093-1.6055,.855h-.008zm3.9245,.4244c.5454,.8878-.1743,1.1093-1.6014,.855 4.1972,1.708 3.3094,.4367 1.6075-.855h-.006zm3.5534-2.155c-.3096-.2399-.8058-.5167-1.3656-.7792 .7177,.7546 .0595,1.1216-1.3881,1.1728 3.1454,.5536 3.5103,.1927 2.7783-.3834 4.4064,.7689 3.2725-.283 1.3451-1.181 .7012,.7464 .0595,1.1134-1.3635,1.1708h-.006zm-4.5151,1.6731c4.4699,.7853 3.332-.2707 1.3964-1.1728 .7156,.7525 .0574,1.1216-1.3902,1.1728h-.006zm.0103-2.3026c.283,.5106-.2932,.7402-1.384,.7402 3.6436,.7751 2.928-.0574 1.425-.8612-.0431-.2563-.5782-.7382-1.2528-1.22 .488,.7464-.123,.9555-1.3512,.7751 1.6609,.6192 2.397,.73 2.5692,.5659h-.006zm6.4404,4.2731c4.0434,2.52 3.3525,1.0457 1.8208-.5967 .4019,1.017-.3834,1.1175-1.8146,.5967h-.006zm-2.1489,.9391c4.0434,2.52 3.3504,1.0457 1.8208-.5967 .3998,1.017-.3855,1.1175-1.8146,.5967h-.006zm-9.0752-3.6395c.5475,.8878-.1722,1.1113-1.5993,.855 4.1972,1.708 3.3094,.4367 1.6055-.855h-.006zm13.4508-.0082c.3875,.9678-.3588,1.0642-1.7203,.568 3.8446,2.399 3.1843,.9945 1.7265-.568h-.006zm-7.2032,3.8056c4.2444,2.6471 3.5185,1.099 1.911-.6254 .4203,1.0662-.4039,1.1728-1.9049,.6254h-.006zm-4.3674-2.3272c.5454,.8878-.1743,1.1093-1.6014,.855 4.1972,1.708 3.3094,.4367 1.6075-.855h-.006zm2.9034,1.6055c.5475,.8899-.1722,1.1113-1.5993,.855 4.1972,1.708 3.3094,.4367 1.6055-.855h-.006zm-.5065,2.6697c3.7892,3.6375 3.3771,1.8905 2.0996-.2317 .2009,1.1913-.6684,1.1195-2.0935,.2317h-.006z"/>
<path fill="#4a6eaa" d="m183.5518,78.7405c-1.4025-.9227-1.2303-3.211-1.2241-3.211 .1148,.6992 1.1052,.529 1.1113,.529-.2091-.65-.1907-4.187-.1845-4.187 1.3963,5.2635 2.3908,4.6114 1.9664-.5639-.0123,0 2.1242,3.9471-1.6629,7.4328h-.006z"/>
<path fill="#4a6eaa" d="m186.9001,75.7346c.3588-.8714-.2399-3.9655-.2337-3.9655 .006,0 .4757,.9227 1.1585,.6848 0,0 .1702-1.505-.9514-2.2555-.004,0 1.1585,.3076 1.4722-.3424-.0102,0 2.4154,3.8958-1.4394,5.8786h-.006z"/>
</g>
<path fill="#3e69a6" d="m16.4319,16.0001c-.2562,.0545-.4375,.2835-.4318,.5455v62.9089c0,.3012 .2442,.5454 .5455,.5455h62.9089c.3012-0 .5454-.2442 .5455-.5455v-62.9089c-0-.3012-.2442-.5454-.5455-.5455h-13.4091c.6845,.3327 1.2935,.6901 1.7727,1.0909h11.0909v61.818h-61.818v-61.818h14.7045c.2595-.3869 .5315-.7399 .7955-1.0909h-16.0454c-.0378-.004-.0759-.004-.1136,0zm19.9772,0c-.211,.4082-.3608,.7774-.4773,1.0909h1.1364c.3011-.3289 .6626-.7229 1-1.0909h-1.6591z"/>
<g opacity=".4" clip-path="url(#clipPath4175)" transform="matrix(.69994 0 0 .69994 4.232 3.9069)">
<path d="m78.3284,146.127c24.6512-4.6178 40.9431-28.3813 36.3252-53.0325-4.6178-24.6512-28.4063-40.9066-53.0575-36.2888-24.6512,4.6178-40.9124,28.3756-36.2945,53.0268 4.6178,24.6512 28.3756,40.9124 53.0268,36.2945zm-.2762-1.4743c-23.8535,4.4684-46.8078-11.2429-51.2762-35.0964-4.4684-23.8535 11.2429-46.8078 35.0964-51.2762 23.8535-4.4684 46.8386,11.2371 51.3069,35.0906 4.4684,23.8535-11.2736,46.8136-35.1271,51.282z"/>
<path d="m76.058,133.9928c17.9411-3.3608 29.794-20.6781 26.4331-38.6191-3.3608-17.9411-20.6739-29.7718-38.615-26.4109-17.9411,3.3608-29.7759,20.6517-26.4151,38.5928 3.3608,17.9411 20.6558,29.7981 38.5969,26.4373zm-.2788-1.4886c-17.1434,3.2114-33.6403-8.0801-36.8517-25.2234-3.2114-17.1433 8.0801-33.6403 25.2234-36.8517 17.1434-3.2114 33.6625,8.0759 36.8739,25.2193 3.2114,17.1434-8.1023,33.6445-25.2456,36.8559z"/>
<path fill="none" d="m80.5654,102.0283a44.6996,44.6996 0 1,1 -89.3993,0 44.6996,44.6996 0 1,1 89.3993,0z" transform="matrix(-.77311 .14482 -.14482 -.77311 112.47644 175.15278)"/>
<path line-height="100%" d="m30.263,108.5196-.5542-4.6704 .9877-.1172 .1993,1.6801 4.0798-.4841 .155,1.3067-4.0798,.4841 .1998,1.6835-.9877,.1172m2.2617-9.7969 2.3306,.0484-.0255,1.2302-.3793-.0079-1.3976-.029c-.3349-.0069-.5651-.0038-.6908,.0096-.1256,.0111-.2184,.0342-.2784,.0694-.0807,.0462-.1436,.1098-.1886,.191-.0473,.0811-.072,.174-.0742,.2788-.0053,.2552 .0896,.4577 .2848,.6076 .1929,.1499 .4636,.2284 .8122,.2357l1.8829,.0391-.0254,1.2234-5.3172-.1104 .0254-1.2234 2.0503,.0426c-.2194-.1892-.3794-.3885-.4799-.598-.1028-.2095-.1516-.4396-.1464-.6902 .0092-.442 .1517-.774 .4275-.9962 .2759-.2245 .6724-.3313 1.1895-.3206m.9616-1.2962-2.3066-.3811 .2006-1.214 .3777,.0624c.2046,.0338 .4618,.0775 .7717,.131 .3076,.0531 .5132,.0883 .6166,.1053 .3035,.0502 .524,.0785 .6615,.085 .1352,.0062 .2364-.0048 .3034-.033 .0869-.0365 .1581-.0905 .2139-.1621 .0561-.0739 .0927-.1625 .1098-.2659 .0416-.2518-.0224-.4656-.192-.6414-.1696-.1758-.4263-.2922-.7703-.349l-1.8649-.3081 .1995-1.2073 3.7769,.624-.1995,1.2073-.5463-.0903c.1902,.2185 .3213,.4388 .3931,.6608 .07,.2194 .0847,.4517 .0442,.6967-.0721,.4361-.2608,.7468-.5662,.9319-.305,.1829-.7127,.2321-1.2231,.1478m1.3127-9.0821 2.2225,.7031-.3711,1.1732-.3617-.1144-1.3394-.4237c-.315-.0996-.5347-.1608-.659-.1834-.1236-.0248-.2192-.0287-.2866-.0118-.0905,.0216-.1687,.0649-.2347,.1301-.0682,.0645-.1181,.1467-.1497,.2466-.077,.2433-.0429,.4644 .1021,.6632 .1429,.1982 .3805,.3498 .7129,.455l1.7956,.568-.3691,1.1666-3.6498-1.1546 .3691-1.1666 .5344,.1691c-.1572-.2433-.2545-.4796-.2919-.709-.0396-.23-.0215-.4645 .054-.7035 .1333-.4215 .3636-.6999 .6909-.8354 .3279-.1376 .7385-.1284 1.2317,.0276m.8323-4.1264-1.8479-.8893 .5336-1.1087 4.7922,2.3064-.5336,1.1087-.4989-.2401c.1301,.2498 .1985,.4887 .205,.7169 .0065,.2282-.0481,.4624-.1637,.7026-.2045,.425-.5409,.693-1.0091,.8041-.4702,.11-.9712,.0371-1.503-.2189-.5318-.2559-.9003-.6015-1.1056-1.0366-.2074-.4361-.2088-.8667-.0042-1.2917 .1146-.2382 .2642-.4254 .4486-.5617 .1834-.1393 .4122-.2365 .6866-.2917m1.8831,1.8015c.1136-.2361 .1139-.4573 .0007-.6635-.1122-.2082-.3325-.3914-.6611-.5495-.3285-.1581-.6091-.216-.8419-.1738-.2318,.0402-.4045,.1783-.5181,.4145-.1126,.2341-.1129,.4552-.0007,.6635 .1132,.2062 .334,.3884 .6625,.5465 .3285,.1581 .6087,.2171 .8404,.1769 .2327-.0422 .4054-.1804 .5181-.4145m2.7028-6.7683 .2904,.193-1.5835,2.3826c.2555,.1342 .4922,.1671 .7102,.0985 .2179-.0686 .4152-.2357 .5918-.5014 .1425-.2144 .2569-.4544 .3431-.72 .0856-.2687 .1426-.5646 .1713-.8876l.7857,.5221c-.0691,.3016-.1609,.588-.2756,.8593-.1127,.2725-.2492,.5293-.4094,.7703-.3834,.5769-.8278,.9286-1.3332,1.0551-.506,.1233-1.0238,.0091-1.5533-.3428-.52-.3456-.8249-.7739-.9148-1.2851-.0886-.513 .05-1.0447 .4158-1.5951 .333-.501 .75-.8012 1.251-.9005 .5023-.1012 1.0058,.0159 1.5106,.3514m-1.035,.8224c-.1936-.1286-.387-.1751-.5804-.1395-.194,.0325-.3515,.1399-.4726,.322-.1312,.1974-.1818,.3949-.1518,.5927 .0281,.1965 .1364,.3793 .325,.5484l.8797-1.3237m2.9464-4.4367c-.1075,.0494-.2045,.1075-.2911,.1746-.0868,.0638-.1649,.1366-.2341,.2183-.2032,.24-.2826,.4908-.2382,.7522 .0441,.2583 .2096,.5088 .4966,.7518l1.3461,1.1395-.7906,.934-2.9219-2.4733 .7906-.934 .48,.4063c-.0897-.2819-.1126-.5371-.0685-.7655 .0438-.2316 .1577-.4561 .3417-.6735 .0265-.0313 .057-.0637 .0913-.0973 .0327-.035 .0828-.0837 .1504-.1459l.8475,.7129m3.5-.6219c.192-.1783 .2731-.3841 .243-.6174-.0284-.2348-.1665-.4859-.4146-.7531-.248-.2672-.4881-.4237-.7202-.4694-.2304-.0473-.4417,.0182-.6337,.1965-.1921,.1783-.274,.3865-.2457,.6245 .0284,.2348 .1658,.485 .4123,.7506 .2465,.2655 .4866,.422 .7202,.4694 .2338,.0442 .4467-.0229 .6387-.2012m-2.2821-1.2627c-.0283-.2784-.003-.5257 .076-.7421 .0774-.218 .2139-.4177 .4092-.5991 .3457-.3209 .7575-.4467 1.2354-.3773 .4764,.0677 .9153,.3178 1.3168,.7503 .4015,.4325 .6191,.8897 .6528,1.3714 .0321,.4801-.1247,.8806-.4703,1.2015-.1954,.1814-.4039,.3034-.6255,.3661-.2232,.061-.4725,.0671-.748,.0181l.3767,.4058-.8968,.8325-3.6183-3.8978 .8968-.8325 1.3952,1.503m2.7961-3.1528 .9796-.7333 2.294,3.0647-.9796,.7333-2.294-3.0647m-.893-1.193 .9796-.7333 .5981,.799-.9796,.7333-.5981-.799m6.0649-1.0323c-.1174,.0143-.2275,.0401-.3304,.0776-.1022,.0343-.1987,.0798-.2895,.1366-.2666,.1667-.4187,.3813-.4561,.6439-.0367,.2594 .0446,.5485 .2439,.8673l.9349,1.4955-1.0376,.6486-2.0292-3.2461 1.0376-.6486 .3334,.5333c.0005-.2959 .0565-.5459 .168-.75 .1123-.2072 .2892-.3864 .5307-.5373 .0348-.0217 .0737-.0434 .1167-.0649 .0418-.0234 .1043-.0545 .1877-.0931l.5899,.9372m2.9904-2.0084-.8683-1.8579 1.1147-.521 2.2518,4.8181-1.1147,.521-.2344-.5016c-.0573,.2758-.1555,.5041-.2949,.6849-.1393,.1808-.3298,.3277-.5713,.4406-.4273,.1997-.8574,.1945-1.2901-.0158-.4337-.2123-.7756-.5858-1.0254-1.1204-.2499-.5347-.3167-1.0354-.2003-1.5023 .1154-.4689 .3867-.8032 .814-1.003 .2395-.1119 .4737-.1623 .7028-.1511 .2302,.0081 .4689,.0777 .7162,.2086m.3185,2.5865c.2374-.111 .3775-.2821 .4203-.5134 .0449-.2323-.0099-.5135-.1642-.8438-.1544-.3303-.335-.5527-.542-.6673-.2049-.1155-.4261-.1178-.6634-.0068-.2353,.11-.3754,.2811-.4203,.5134-.0428,.2313 .013,.5121 .1673,.8424 .1544,.3303 .334,.5532 .5389,.6687 .207,.1146 .4281,.1168 .6634,.0068m4.6446-6.4022 1.6422-.3291 1.6761,2.4494 .6096-2.9074 1.6388-.3284 1.0027,5.0036-1.2199,.2445-.7334-3.6597-.6122,2.9289-.8177,.1639-1.6935-2.4668 .7334,3.6597-1.2232,.2451-1.0027-5.0036m9.4797,2.0518c-.2551,.0083-.4461,.0578-.5731,.1486-.1247,.0907-.1844,.2203-.1789,.3888 .005,.1549 .0602,.275 .1656,.3605 .1076,.0831 .2536,.1217 .4381,.1157 .23-.0075 .4209-.0957 .5728-.2648 .1517-.1714 .2236-.3812 .2155-.6294l-.0045-.1401-.6354,.0206m1.8537-.5218 .0709,2.1829-1.2332,.04-.0184-.5671c-.1564,.2376-.3354,.4133-.5369,.527-.2016,.1114-.4493,.1719-.743,.1814-.3963,.0129-.7223-.0917-.978-.3136-.2535-.2243-.3862-.5209-.3982-.8899-.0146-.4487 .1285-.7827 .4291-1.0022 .3029-.2196 .7846-.3401 1.4451-.3615l.7208-.0234-.0031-.0956c-.0063-.1936-.0872-.3323-.2426-.4162-.1555-.0861-.395-.124-.7184-.1135-.2619,.0085-.5047,.0426-.7285,.1023-.2238,.0597-.4307,.1451-.6209,.2561l-.0303-.9326c.2598-.0723 .5213-.1286 .7845-.1691 .2631-.0427 .5267-.0684 .7909-.077 .6901-.0224 1.1921,.0981 1.5062,.3615 .3162,.261 .4843,.6979 .5042,1.3105m1.4824-1.5541 1.2207,.0851-.2662,3.8189-1.2207-.0851 .2662-3.8189m.1036-1.4866 1.2207,.0851-.0694,.9956-1.2207-.0851 .0694-.9956m2.7621,.2459 1.2119,.169-.7347,5.2674-1.2119-.169 .7347-5.2674m8.0152,7.1423c-.2685,.044-.5372,.0557-.8061,.0349-.2689-.0208-.5387-.0755-.8094-.164-.8078-.2642-1.3742-.6987-1.699-1.3036-.3241-.607-.3598-1.2972-.1069-2.0703 .2535-.7754 .69-1.3111 1.3095-1.6072 .6202-.2983 1.3341-.3153 2.142-.0511 .2707,.0885 .5207,.2038 .7499,.3459 .2292,.1421 .4392,.3102 .6298,.5044l-.3283,1.0038c-.1801-.2339-.3707-.4245-.5719-.5718-.2012-.1473-.4263-.2617-.6753-.3431-.4462-.1459-.8438-.1177-1.1928,.0846-.349,.2023-.6057,.5547-.77,1.0572-.1636,.5003-.1644,.9352-.0023,1.3046 .1621,.3695 .4662,.6271 .9124,.773 .2491,.0814 .4983,.1222 .7476,.1222 .2493,0 .5157-.0411 .7991-.1235l-.3283,1.0038m3.0392-4.1309 1.1156,.5026-2.1846,4.8489-1.1156-.5026 2.1846-4.8489m1.7988,2.4987 1.0788,.5774-1.8065,3.3751-1.0788-.5774 1.8065-3.3751m.7032-1.3139 1.0788,.5774-.471,.8799-1.0788-.5774 .471-.8799m3.8588,6.3638-.1947,.2892-2.3733-1.5975c-.1358,.2547-.17,.4912-.1027,.7096 .0673,.2183 .2332,.4166 .4979,.5947 .2136,.1438 .4529,.2596 .718,.3473 .2682,.0871 .5637,.146 .8865,.1765l-.5268,.7826c-.3011-.0709-.587-.1644-.8576-.2806-.2719-.1143-.5279-.2523-.7679-.4139-.5746-.3868-.9237-.8333-1.0472-1.3394-.1203-.5068-.003-1.0238 .352-1.5512 .3486-.5179 .7788-.8203 1.2905-.9072 .5136-.0856 1.0444,.0562 1.5926,.4252 .499,.3359 .7967,.7547 .8931,1.2563 .0982,.5029-.0219,1.0057-.3603,1.5085m-.8163-1.0398c.1298-.1928 .1774-.386 .1429-.5795-.0314-.1942-.1378-.3523-.3192-.4745-.1966-.1323-.3939-.1841-.5918-.1553-.1967,.0269-.3801,.1342-.5503,.3218l1.3185,.8875m4.8915,4.0427-1.5545,1.737-.9169-.8206 .253-.2827 .9368-1.0468c.2203-.2462 .3664-.4213 .4381-.5253 .0734-.1025 .1163-.188 .1286-.2564 .0175-.0913 .0102-.1805-.0221-.2675-.0307-.0887-.0852-.168-.1633-.2379-.1902-.1702-.4057-.2301-.6466-.1796-.2394,.0488-.4753,.203-.7078,.4628l-1.2559,1.4034-.9118-.816 2.5529-2.8526 .9118,.816-.3738,.4177c.2865-.0433 .5419-.0349 .7663,.0253 .2259,.0585 .4323,.1713 .6191,.3385 .3294,.2948 .4886,.6192 .4776,.9732-.0093,.3555-.1865,.726-.5314,1.1115m3.7868,.3371-.8154,.7187 .834,.9461-.6564,.5786-.834-.9461-1.2179,1.0736c-.1333,.1175-.2006,.2239-.2017,.3191 .0006,.0937 .0701,.2191 .2088,.3764l.4159,.4718-.6564,.5786-.6939-.7872c-.3194-.3624-.471-.6859-.4547-.9707 .0195-.2845 .2105-.5865 .5729-.9059l1.2179-1.0736-.4023-.4564 .6564-.5786 .4023,.4564 .8154-.7187 .8092,.9179"/>
<g transform="matrix(1.09997 -.86862 .86862 1.09997 -60.96699 18.73029)">
<path d="m29.682,99.3781-2.3266,1.8416 .9851,2.8318-2.4704-1.6437-2.3888,1.8119 .7998-2.8574-2.4614-1.712 2.9647-.1223 .8675-2.87 1.0325,2.7818 2.9976-.0618z" transform="matrix(1.56055 .41815 -.41815 1.56055 33.23454 -70.87334)"/>
<path d="m29.682,99.3781-2.3266,1.8416 .9851,2.8318-2.4704-1.6437-2.3888,1.8119 .7998-2.8574-2.4614-1.712 2.9647-.1223 .8675-2.87 1.0325,2.7818 2.9976-.0618z" transform="matrix(1.56055 .41815 -.41815 1.56055 47.38704 -67.08119)"/>
<path d="m29.682,99.3781-2.3266,1.8416 .9851,2.8318-2.4704-1.6437-2.3888,1.8119 .7998-2.8574-2.4614-1.712 2.9647-.1223 .8675-2.87 1.0325,2.7818 2.9976-.0618z" transform="matrix(1.56055 .41815 -.41815 1.56055 36.9149 -57.34437)"/>
</g>
</g>
<path opacity=".1" fill="url(#linearGradient3613)" filter="url(#filter3794)" stroke="#fff" stroke-linecap="round" stroke-width=".5" d="m27,15h42a12,12 0 0,1 12,12v42a12,12 0 0,1 -12,12h-42a12,12 0 0,1 -12-12v-42a12,12 0 0,1 12-12" clip-path="url(#clipPath3613)"/>
</svg>
