<svg xmlns="http://www.w3.org/2000/svg" viewBox="0 0 96 96" xmlns:xlink="http://www.w3.org/1999/xlink">
<defs>
<clipPath id="clipPath3613">
<path fill="#fff" d="m12,6h72a6,6 0 0,1 6,6v72a6,6 0 0,1 -6,6h-72a6,6 0 0,1 -6-6v-72a6,6 0 0,1 6-6"/>
</clipPath>
<filter width="1.384" x="-.192" y="-.192" height="1.384" color-interpolation-filters="sRGB" id="filter3794">
<feGaussianBlur stdDeviation="5.28"/>
</filter>
<linearGradient gradientTransform="matrix(1.00587 0 0 .99417 100 0)" id="ButtonShadow-0" y1="92.54" y2="7.017" x2="0" gradientUnits="userSpaceOnUse">
<stop offset="0"/>
<stop offset="1" stop-opacity=".588"/>
</linearGradient>
<linearGradient gradientTransform="matrix(1.02381 0 0 1.0119 -1.14286 -98.07143)" id="linearGradient3780" xlink:href="#ButtonShadow-0" y1="6.132" y2="90.239" x2="0" gradientUnits="userSpaceOnUse"/>
<linearGradient gradientTransform="translate(0 -97)" id="linearGradient3721" xlink:href="#ButtonShadow-0" y1="6.132" y2="90.239" x2="0" gradientUnits="userSpaceOnUse"/>
<linearGradient gradientTransform="matrix(0 -1 1 0 0 96)" id="linearGradient3709" xlink:href="#linearGradient3703" x1="12.75" x2="83.25" gradientUnits="userSpaceOnUse"/>
<linearGradient id="linearGradient3617" xlink:href="#linearGradient3676" y1="90" y2="5.988" x2="0" gradientUnits="userSpaceOnUse"/>
<linearGradient id="linearGradient3703">
<stop offset="0" stop-color="#a8e66c"/>
<stop offset="1" stop-color="#dbfabd"/>
</linearGradient>
<linearGradient id="linearGradient3676">
<stop offset="0" stop-color="#68d003"/>
<stop offset="1" stop-color="#c0f988"/>
</linearGradient>
<linearGradient id="linearGradient3188" xlink:href="#linearGradient3737" y1="6" y2="63.893" x2="0" gradientUnits="userSpaceOnUse"/>
<linearGradient id="linearGradient3737">
<stop offset="0" stop-color="#fff"/>
<stop offset="1" stop-color="#fff" stop-opacity="0"/>
</linearGradient>
<linearGradient id="linearGradient3613" xlink:href="#linearGradient3737" y1="20.221" y2="138.661" x2="0" gradientUnits="userSpaceOnUse"/>
<radialGradient cx="48" cy="90.172" gradientTransform="matrix(1.15731 0 0 .99591 -7.55102 .19713)" r="42" id="radialGradient3619" xlink:href="#linearGradient3737" gradientUnits="userSpaceOnUse"/>
<radialGradient cx="48" cy="48" r="35.25" id="radialGradient3773" gradientUnits="userSpaceOnUse">
<stop offset="0" stop-color="#6bd107"/>
<stop offset="1" stop-color="#6bd107" stop-opacity="0"/>
</radialGradient>
</defs>
<path opacity=".08" fill="url(#linearGradient3780)" d="m12-95.0312c-5.5111,0-10.0312,4.5202-10.0312,10.0312v71c0,5.5111 4.5202,10.0312 10.0312,10.0312h72c5.5111,0 10.0312-4.5202 10.0312-10.0312v-71c0-5.5111-4.5202-10.0312-10.0312-10.0312h-72z" transform="scale(1 -1)"/>
<path opacity=".1" fill="url(#linearGradient3780)" d="m12-94.0312c-4.9716,0-9.0312,4.0596-9.0312,9.0312v71c0,4.9716 4.0596,9.0312 9.0312,9.0312h72c4.9716,0 9.0312-4.0596 9.0312-9.0312v-71c0-4.9716-4.0596-9.0312-9.0312-9.0312h-72z" transform="scale(1 -1)"/>
<path opacity=".2" fill="url(#linearGradient3780)" d="m12-93c-4.4091,0-8,3.5909-8,8v71c0,4.4091 3.5909,8 8,8h72c4.4091,0 8-3.5909 8-8v-71c0-4.4091-3.5909-8-8-8h-72z" transform="scale(1 -1)"/>
<path opacity=".3" fill="url(#linearGradient3780)" d="m12-92h72a7,7 0 0,1 7,7v71a7,7 0 0,1 -7,7h-72a7,7 0 0,1 -7-7v-71a7,7 0 0,1 7-7" transform="scale(1 -1)"/>
<path opacity=".45" fill="url(#linearGradient3721)" d="m12-91h72a6,6 0 0,1 6,6v72a6,6 0 0,1 -6,6h-72a6,6 0 0,1 -6-6v-72a6,6 0 0,1 6-6" transform="scale(1 -1)"/>
<path fill="url(#linearGradient3617)" d="m12,6h72a6,6 0 0,1 6,6v72a6,6 0 0,1 -6,6h-72a6,6 0 0,1 -6-6v-72a6,6 0 0,1 6-6"/>
<path opacity=".5" fill="url(#linearGradient3188)" d="m12,6c-3.324,0-6,2.676-6,6v2 68 2c0,.3347 .0413,.6507 .0938,.9688 .0487,.2956 .097,.5969 .1875,.875 .0099,.0304 .0209,.0636 .0312,.0938 .0989,.2878 .2349,.5475 .375,.8125 .1446,.2735 .3156,.5356 .5,.7812 .1844,.2456 .3738,.4735 .5938,.6875 .4399,.4281 .9429,.8145 1.5,1.0938 .2785,.1396 .5735,.2469 .875,.3438-.2562-.1002-.4867-.2363-.7188-.375-.0074-.0044-.0239,.0045-.0312,0-.0319-.0193-.0623-.0425-.0938-.0625-.1204-.0767-.231-.1635-.3438-.25-.1062-.0808-.2133-.1611-.3125-.25-.1779-.1614-.3475-.3454-.5-.5312-.1076-.1303-.2184-.2653-.3125-.4062-.0251-.0384-.0384-.0859-.0625-.125-.0648-.103-.1302-.2045-.1875-.3125-.101-.1947-.2057-.4157-.2812-.625-.008-.0218-.0236-.0405-.0312-.0625-.0318-.0919-.0358-.1868-.0625-.2812-.0303-.1066-.0704-.203-.0938-.3125-.0729-.3415-.125-.6982-.125-1.0625v-2-68-2c0-2.7818 2.2182-5 5-5h2 68 2c2.7818,0 5,2.2182 5,5v2 68 2c0,.3643-.0521,.721-.125,1.0625-.0442,.2069-.0884,.3977-.1562,.5938-.0077,.022-.0233,.0407-.0312,.0625-.0627,.1737-.1384,.3674-.2188,.5312-.0416,.0828-.079,.17-.125,.25-.0546,.0972-.1268,.1883-.1875,.2812-.0941,.141-.2049,.276-.3125,.4062-.1432,.1744-.3031,.347-.4688,.5-.0112,.0102-.02,.0212-.0312,.0312-.1384,.1256-.2851,.2344-.4375,.3438-.1026,.0731-.2043,.1534-.3125,.2188-.0074,.0045-.0238-.0044-.0312,0-.232,.1387-.4625,.2748-.7188,.375 .3015-.0968 .5965-.2041 .875-.3438 .5571-.2792 1.0601-.6657 1.5-1.0938 .22-.214 .4094-.4419 .5938-.6875 .1844-.2456 .3554-.5077 .5-.7812 .1401-.265 .2761-.5247 .375-.8125 .0104-.0308 .0213-.0627 .0312-.0938 .0905-.2781 .1388-.5794 .1875-.875 .0524-.318 .0938-.634 .0938-.9688v-2-68-2c0-3.324-2.676-6-6-6h-72z"/>
<path opacity=".3" fill="url(#radialGradient3619)" d="m12,90c-3.324,0-6-2.676-6-6v-2-68-2c0-.3347 .0413-.6507 .0938-.9688 .0487-.2956 .097-.5969 .1875-.875 .0099-.0304 .0209-.0636 .0312-.0938 .0989-.2878 .2349-.5475 .375-.8125 .1446-.2735 .3156-.5356 .5-.7812 .1844-.2456 .3738-.4735 .5938-.6875 .4399-.4281 .9429-.8145 1.5-1.0938 .2785-.1396 .5735-.2469 .875-.3438-.2562,.1002-.4867,.2363-.7188,.375-.0074,.0044-.0239-.0045-.0312,0-.0319,.0193-.0623,.0425-.0938,.0625-.1204,.0767-.231,.1635-.3438,.25-.1062,.0808-.2133,.1611-.3125,.25-.1779,.1614-.3475,.3454-.5,.5312-.1076,.1303-.2184,.2653-.3125,.4062-.0251,.0384-.0384,.0859-.0625,.125-.0648,.103-.1302,.2045-.1875,.3125-.101,.1947-.2057,.4157-.2812,.625-.008,.0218-.0236,.0405-.0312,.0625-.0318,.092-.0358,.1868-.0625,.2812-.0303,.1066-.0704,.203-.0938,.3125-.0729,.3415-.125,.6982-.125,1.0625v2 68 2c0,2.7818 2.2182,5 5,5h2 68 2c2.7818,0 5-2.2182 5-5v-2-68-2c0-.3643-.0521-.721-.125-1.0625-.0442-.2069-.0884-.3977-.1562-.5938-.0077-.022-.0233-.0407-.0312-.0625-.0627-.1737-.1384-.3674-.2188-.5312-.0416-.0828-.079-.17-.125-.25-.0546-.0972-.1268-.1883-.1875-.2812-.0941-.141-.2049-.276-.3125-.4062-.1432-.1745-.3031-.347-.4688-.5-.0112-.0102-.02-.0211-.0312-.0312-.1384-.1256-.2851-.2344-.4375-.3438-.1026-.0732-.2043-.1534-.3125-.2188-.0074-.0045-.0238,.0044-.0312,0-.232-.1387-.4625-.2748-.7188-.375 .3015,.0968 .5965,.2041 .875,.3438 .5571,.2792 1.0601,.6657 1.5,1.0938 .22,.214 .4094,.4419 .5938,.6875 .1844,.2456 .3554,.5077 .5,.7812 .1401,.265 .2761,.5247 .375,.8125 .0104,.0308 .0213,.0627 .0312,.0938 .0905,.2781 .1388,.5794 .1875,.875 .0524,.318 .0938,.634 .0938,.9688v2 68 2c0,3.324-2.676,6-6,6h-72z"/>
<path opacity=".1" fill="url(#linearGradient3613)" filter="url(#filter3794)" stroke="#fff" stroke-linecap="round" stroke-width=".5" d="m27,15h42a12,12 0 0,1 12,12v42a12,12 0 0,1 -12,12h-42a12,12 0 0,1 -12-12v-42a12,12 0 0,1 12-12" clip-path="url(#clipPath3613)"/>
<g color="#000">
<path opacity=".05" d="m40.4062,10.9688c-5.0546,1.0831-9.9699,3.0449-14.1875,6.0625-.9714,3.4827-1.3641,8.3414-5.917,9.1425-4.8076-.436-6.4181,4.3489-8.0796,7.9759-1.0939,3.6363-4.0825,7.8675-.2998,10.7442 2.3971,3.0036 1.2887,7.5009-1.4536,9.8874-1.164,4.4043 1.8884,8.9103 3.6032,12.8888 1.1549,5.3854 7.613,2.6138 10.0274,6.6959 1.8301,3.3626 1.09,7.9672 5.9371,8.9289 3.8727,1.4861 8.5502,4.9376 12.6298,2.873 2.81-3.5083 8.3933-2.9233 11.115,.3634 3.1265,1.1504 6.4009-.9417 9.3863-1.8832 2.6549-1.5564 6.9643-2.358 7.3675-5.9257-.3764-4.2523 3.7088-7.3956 7.6916-7.2978 4.168-1.6111 5.083-7.355 6.889-11.1343 3.0108-4.5004-2.3844-7.0621-2.3575-11.2856-.3789-3.9241 5.0282-6.0669 2.6721-10.0623-1.1738-4.1998-2.9766-8.2889-5.5553-11.8173-3.7166-.727-8.5717-1.6536-9.2019-6.31 .4643-4.9245-5.0957-6.1696-8.6153-7.9285-3.3269-1.3053-5.5955-1.7857-7.7039-1.7065-2.6646,2.7795-7.1001,4.2963-10.4773,1.7135-1.1597-.7078-1.904-2.1425-3.4704-1.9248zm7.5938,32.8125c5.3537-.412 7.2693,8.0625 2.2237,10.0055-4.4086,2.1605-9.4827-3.2454-6.7521-7.4142 .9138-1.5766 2.6818-2.6728 4.5284-2.5913z"/>
<path opacity=".1" d="m40.5938,11.9375c-.0024,0-.0913,.0311-.0938,.0312a.8303,.8303 0 0,0 -.0938,0c-.0028,.0005-.091,.0306-.0938,.0312-.0007,.0002-.0215-.0028-.0312,0-.0317,.009-.0917,.0306-.0938,.0312-4.6622,.9846-9.0294,2.854-12.875,5.375-.0076,.005-.0236-.005-.0312,0-.026,.0179-.0608,.0612-.0625,.0625-.0022,.0016-.0916,.0607-.0938,.0625-.0021,.0018-.0918,.0918-.0938,.0938-.002,.0019-.0919,.0605-.0938,.0625-.0019,.002-.0608,.0916-.0625,.0938-.0017,.0022-.0609,.0915-.0625,.0938-.0016,.0023-.0611,.0914-.0625,.0938-.0014,.0024-.0612,.0913-.0625,.0938-.0013,.0024-.0614,.1225-.0625,.125-.0011,.0025-.0303,.0912-.0312,.0938-.0009,.0026-.0305,.1224-.0312,.125-.0008,.0026-.0307,.0911-.0312,.0938-.0006,.0027-.0308,.1223-.0312,.125-.0004,.0027 .0002,.1223 0,.125-.0002,.0027-.0312,.091-.0312,.0938-.0001,.0028-.0001,.1222 0,.125 .0891,2.2265-.6797,4.4297-2.375,6.125-1.6953,1.6953-3.8985,2.4641-6.125,2.375-.0028-.0001-.1222-.0001-.125,0-.0028,.0001-.091,.031-.0938,.0312-.0027,.0002-.1223-.0004-.125,0-.0027,.0004-.1223,.0307-.125,.0312-.0027,.0006-.0911,.0305-.0938,.0312-.0026,.0008-.1224,.0303-.125,.0312-.0026,.0009-.0912,.0301-.0938,.0312-.0025,.0011-.1226,.0612-.125,.0625-.0024,.0013-.0914,.0611-.0938,.0625-.0024,.0014-.0915,.0609-.0938,.0625-.0023,.0016-.0916,.0608-.0938,.0625-.0022,.0017-.0917,.0606-.0938,.0625-.002,.0019-.0606,.0918-.0625,.0938-.0019,.002-.092,.0916-.0938,.0938-.0018,.0021-.0609,.0915-.0625,.0938-.0013,.0017-.0446,.0365-.0625,.0625-.0054,.0078 .0003,.0307 0,.0312-2.5333,3.8643-4.4254,8.2495-5.4062,12.9375-.0021,.0098 .0021,.0214 0,.0312-.0059,.0311-.0309,.0917-.0312,.0938-.0004,.0027 .0002,.1223 0,.125-.0002,.0027 .0001,.091 0,.0938-.0001,.0028-.0001,.1222 0,.125 .0001,.0028-.0003,.1223 0,.125 .0003,.0027 .0308,.091 .0312,.0938 .0005,.0027-.0006,.1223 0,.125 .0006,.0027 .0304,.1224 .0312,.125 .0008,.0026 .0303,.0912 .0312,.0938 .001,.0026 .0613,.0913 .0625,.0938 .0012,.0025 .0612,.1226 .0625,.125 .0013,.0024 .0298,.0914 .0312,.0938 .0015,.0023 .0921,.0915 .0938,.0938 .0016,.0022 .0608,.0916 .0625,.0938 .0018,.0021 .0606,.0917 .0625,.0938 .0019,.002 .0917,.0606 .0938,.0625a.8303,.8303 0 0,0 0,.0312c1.6462,1.5063 2.6562,3.6189 2.6562,6.0312 0,2.4124-1.0101,4.525-2.6562,6.0312a.8303,.8303 0 0,0 0,.0312c-.002,.0019-.0919,.0605-.0938,.0625-.0019,.002-.0608,.0916-.0625,.0938-.0018,.0021-.0609,.0915-.0625,.0938-.0016,.0022-.0923,.0914-.0938,.0938-.0015,.0023-.0299,.0913-.0312,.0938-.0013,.0024-.0613,.1225-.0625,.125-.0012,.0025-.0615,.0912-.0625,.0938-.001,.0026-.0304,.0911-.0312,.0938-.0008,.0026-.0306,.1223-.0312,.125-.0006,.0027 .0005,.1223 0,.125-.0005,.0027-.031,.091-.0312,.0938-.0003,.0027 .0001,.1222 0,.125-.0001,.0028-.0001,.1222 0,.125 .0001,.0028-.0002,.091 0,.0938 .0002,.0027-.0004,.1223 0,.125 .0003,.0021 .0254,.0626 .0312,.0938 .0021,.0098-.0021,.0214 0,.0312 .9809,4.688 2.873,9.0732 5.4062,12.9375 .0003,.0005-.0054,.0235 0,.0312 .0179,.0259 .0612,.0608 .0625,.0625 .0016,.0022 .0607,.0916 .0625,.0938 .0018,.0021 .0918,.0918 .0938,.0938 .0019,.002 .0605,.0919 .0625,.0938 .002,.0019 .0916,.0608 .0938,.0625 .0022,.0017 .0915,.0609 .0938,.0625 .0023,.0016 .0914,.0611 .0938,.0625 .0024,.0014 .0913,.0612 .0938,.0625 .0024,.0013 .1225,.0614 .125,.0625 .0025,.0011 .0912,.0303 .0938,.0312 .0026,.0009 .1224,.0305 .125,.0312 .0026,.0008 .0911,.0306 .0938,.0312 .0027,.0006 .1223,.0308 .125,.0312 .0027,.0004 .1223-.0002 .125,0 .0027,.0002 .091,.0312 .0938,.0312 .0028,.0001 .1222,.0001 .125,0 2.2265-.0891 4.4297,.6797 6.125,2.375 1.6953,1.6953 2.4641,3.8985 2.375,6.125-.0001,.0028-.0001,.1222 0,.125 .0001,.0028 .031,.091 .0312,.0938 .0002,.0027-.0004,.1223 0,.125 .0004,.0027 .0307,.1223 .0312,.125 .0006,.0027 .0305,.0911 .0312,.0938 .0008,.0027 .0303,.1224 .0312,.125 .0009,.0026 .0301,.0912 .0312,.0938 .0011,.0025 .0612,.1226 .0625,.125 .0013,.0024 .0611,.0914 .0625,.0938 .0014,.0024 .0609,.0915 .0625,.0938 .0016,.0023 .0608,.0916 .0625,.0938 .0017,.0022 .0606,.0917 .0625,.0938 .0019,.002 .0918,.0606 .0938,.0625 .002,.0019 .0916,.092 .0938,.0938 .0021,.0018 .0915,.0609 .0938,.0625 .0017,.0013 .0365,.0446 .0625,.0625 .0078,.0054 .0307-.0003 .0312,0 3.8643,2.5333 8.2495,4.4254 12.9375,5.4062 .0098,.0021 .0214-.0021 .0312,0 .0311,.0059 .0917,.0309 .0938,.0312 .0027,.0004 .1223-.0002 .125,0 .0027,.0002 .091-.0001 .0938,0 .0028,.0001 .1222,.0001 .125,0 .0028-.0001 .1223,.0003 .125,0 .0027-.0003 .091-.0308 .0938-.0312 .0027-.0005 .1223,.0006 .125,0 .0027-.0006 .1224-.0304 .125-.0312 .0026-.0008 .0912-.0303 .0938-.0312 .0026-.001 .0913-.0614 .0938-.0625 .0025-.0011 .1226-.0612 .125-.0625 .0024-.0013 .0914-.0298 .0938-.0312 .0023-.0015 .0915-.0921 .0938-.0938 .0022-.0016 .0916-.0607 .0938-.0625 .0021-.0018 .0917-.0606 .0938-.0625 .002-.0019 .0606-.0917 .0625-.0938a.8303,.8303 0 0,0 .0312,0c1.5063-1.6462 3.6189-2.6562 6.0312-2.6562 2.4124,0 4.525,1.0101 6.0312,2.6562a.8303,.8303 0 0,0 .0312,0c.0019,.002 .0605,.0919 .0625,.0938 .002,.0019 .0916,.0607 .0938,.0625 .0021,.0018 .0915,.0609 .0938,.0625 .0022,.0016 .0914,.0923 .0938,.0938 .0023,.0015 .0913,.0299 .0938,.0312 .0024,.0013 .1225,.0614 .125,.0625 .0025,.0011 .0912,.0615 .0938,.0625 .0026,.001 .0911,.0304 .0938,.0312 .0026,.0008 .1223,.0306 .125,.0312 .0027,.0006 .1223-.0005 .125,0 .0027,.0005 .091,.031 .0938,.0312 .0027,.0003 .1222-.0001 .125,0 .0028,.0001 .1222,.0001 .125,0 .0028-.0001 .091,.0002 .0938,0 .0027-.0002 .1223,.0004 .125,0 .0021-.0003 .0626-.0254 .0938-.0312 .0099-.0021 .0214,.0021 .0312,0 4.6708-.9772 9.0493-2.8531 12.9062-5.375 .0005-.0003 .0235,.0054 .0312,0 .0259-.0179 .0608-.0612 .0625-.0625 .0022-.0016 .0916-.0607 .0938-.0625 .0021-.0018 .0918-.0918 .0938-.0938 .002-.0019 .0919-.0605 .0938-.0625 .0019-.002 .0608-.0916 .0625-.0938 .0017-.0022 .0609-.0915 .0625-.0938 .0016-.0023 .0611-.0914 .0625-.0938 .0014-.0024 .0612-.0913 .0625-.0938 .0013-.0024 .0614-.1225 .0625-.125 .0011-.0025 .0303-.0912 .0312-.0938 .0009-.0026 .0305-.1223 .0312-.125 .0008-.0027 .0306-.0911 .0312-.0938 .0006-.0027 .0308-.1223 .0312-.125 .0004-.0027-.0002-.1223 0-.125 .0002-.0027 .0312-.091 .0312-.0938 .0001-.0028 .0001-.1222 0-.125-.001-.0238 0-.1905 0-.375 0-2.1019 .7898-4.1648 2.4062-5.7812 1.6953-1.6953 3.8985-2.4641 6.125-2.375 .0028,.0001 .1222,.0001 .125,0 .0028-.0001 .091-.031 .0938-.0312 .0027-.0002 .1223,.0004 .125,0 .0027-.0004 .1223-.0306 .125-.0312 .0027-.0006 .0911-.0305 .0938-.0312 .0027-.0008 .1224-.0303 .125-.0312 .0026-.0009 .0912-.0301 .0938-.0312 .0025-.0011 .1226-.0612 .125-.0625 .0024-.0013 .0914-.0611 .0938-.0625 .0024-.0014 .0915-.0609 .0938-.0625 .0023-.0016 .0916-.0608 .0938-.0625 .0022-.0017 .0917-.0606 .0938-.0625 .002-.0019 .0606-.0918 .0625-.0938 .0019-.002 .092-.0916 .0938-.0938 .0018-.0021 .0609-.0915 .0625-.0938 .0013-.0017 .0446-.0366 .0625-.0625 .0054-.0078-.0003-.0307 0-.0312 2.5333-3.8643 4.4254-8.2495 5.4062-12.9375 .0021-.0098-.0021-.0214 0-.0312 .0059-.0311 .0309-.0917 .0312-.0938 .0004-.0027-.0002-.1223 0-.125 .0002-.0027-.0001-.091 0-.0938 .0001-.0028 .0001-.1222 0-.125-.0001-.0028 .0003-.1223 0-.125-.0003-.0027-.0308-.091-.0312-.0938-.0005-.0027 .0006-.1223 0-.125-.0006-.0027-.0304-.1224-.0312-.125-.0008-.0026-.0303-.0912-.0312-.0938-.001-.0026-.0614-.0913-.0625-.0938-.0011-.0025-.0612-.1226-.0625-.125-.0013-.0024-.0298-.0914-.0312-.0938-.0015-.0023-.0921-.0915-.0938-.0938-.0016-.0022-.0607-.0916-.0625-.0938-.0018-.0021-.0606-.0917-.0625-.0938-.0019-.002-.0917-.0606-.0938-.0625a.8303,.8303 0 0,0 0-.0312c-1.6462-1.5063-2.6562-3.6189-2.6562-6.0312 0-2.4124 1.0101-4.525 2.6562-6.0312a.8303,.8303 0 0,0 0-.0312c.002-.0019 .0919-.0605 .0938-.0625 .0019-.002 .0607-.0916 .0625-.0938 .0018-.0021 .0609-.0915 .0625-.0938 .0016-.0022 .0923-.0914 .0938-.0938 .0015-.0023 .0299-.0913 .0312-.0938 .0013-.0024 .0614-.1225 .0625-.125 .0011-.0025 .0615-.0912 .0625-.0938 .001-.0026 .0304-.0911 .0312-.0938 .0008-.0026 .0306-.1223 .0312-.125 .0006-.0027-.0005-.1223 0-.125 .0005-.0027 .031-.091 .0312-.0938 .0003-.0027-.0001-.1222 0-.125 .0001-.0028 .0001-.1222 0-.125-.0001-.0028 .0002-.091 0-.0938-.0002-.0027 .0004-.1223 0-.125-.0003-.0021-.0254-.0626-.0312-.0938-.0021-.0098 .0021-.0214 0-.0312-.9809-4.688-2.873-9.0732-5.4062-12.9375-.0003-.0005 .0054-.0235 0-.0312-.0179-.026-.0612-.0608-.0625-.0625-.0016-.0022-.0607-.0916-.0625-.0938-.0018-.0021-.0918-.0918-.0938-.0938-.0019-.002-.0605-.0919-.0625-.0938-.002-.0019-.0916-.0608-.0938-.0625-.0022-.0017-.0915-.0609-.0938-.0625-.0023-.0016-.0914-.0611-.0938-.0625-.0024-.0014-.0913-.0612-.0938-.0625-.0024-.0013-.1225-.0614-.125-.0625-.0025-.0011-.0912-.0303-.0938-.0312-.0026-.0009-.1223-.0305-.125-.0312-.0027-.0008-.0911-.0307-.0938-.0312-.0027-.0006-.1223-.0308-.125-.0312-.0027-.0004-.1223,.0002-.125,0-.0027-.0002-.091-.0312-.0938-.0312-.0028-.0001-.1222-.0001-.125,0-2.2265,.0891-4.4297-.6797-6.125-2.375-1.6164-1.6164-2.4062-3.6793-2.4062-5.7812 0-.1845-.001-.3512 0-.375 .0001-.0028 .0001-.1222 0-.125-.0001-.0028-.031-.091-.0312-.0938-.0002-.0027 .0004-.1223 0-.125-.0004-.0027-.0306-.1223-.0312-.125-.0006-.0027-.0305-.0911-.0312-.0938-.0008-.0026-.0303-.1224-.0312-.125-.0009-.0026-.0301-.0912-.0312-.0938-.0011-.0025-.0612-.1226-.0625-.125-.0013-.0024-.0611-.0914-.0625-.0938-.0014-.0024-.0609-.0915-.0625-.0938-.0016-.0023-.0608-.0916-.0625-.0938-.0017-.0022-.0606-.0917-.0625-.0938-.0019-.002-.0918-.0606-.0938-.0625-.002-.0019-.0916-.092-.0938-.0938-.0021-.0018-.0915-.0609-.0938-.0625-.0017-.0013-.0366-.0446-.0625-.0625-.0076-.005-.0236,.005-.0312,0-3.857-2.5219-8.2355-4.3978-12.9062-5.375-.0006-.0001-.0217,.0018-.0312,0-.0311-.0059-.0917-.0309-.0938-.0312-.0027-.0004-.1223,.0002-.125,0-.0027-.0002-.091,.0001-.0938,0-.0028-.0001-.1222-.0001-.125,0-.0028,.0001-.1223-.0003-.125,0-.0027,.0003-.091,.0308-.0938,.0312-.0027,.0005-.1223-.0006-.125,0-.0027,.0006-.1224,.0304-.125,.0312-.0026,.0008-.0912,.0303-.0938,.0312-.0026,.001-.0913,.0613-.0938,.0625-.0025,.0012-.1226,.0612-.125,.0625-.0024,.0013-.0914,.0298-.0938,.0312-.0023,.0015-.0915,.0921-.0938,.0938-.0022,.0016-.0916,.0608-.0938,.0625-.0021,.0018-.0917,.0606-.0938,.0625-.002,.0019-.0606,.0917-.0625,.0938a.8303,.8303 0 0,0 -.0312,0c-1.5063,1.6462-3.6189,2.6562-6.0312,2.6562-2.4124,0-4.525-1.0101-6.0312-2.6562-.0016-.0018-.092-.0608-.0938-.0625-.0017-.0017-.0607-.0609-.0625-.0625-.0018-.0016-.0606-.061-.0625-.0625-.0019-.0015-.0918-.0611-.0938-.0625-.002-.0014-.0917-.0612-.0938-.0625-.0021-.0013-.0916-.0613-.0938-.0625-.0021-.0011-.0603-.0302-.0625-.0312-.0022-.001-.0915-.0616-.0938-.0625-.0022-.0009-.1227-.0305-.125-.0312-.0023-.0008-.0914-.0306-.0938-.0312-.0023-.0006-.0914,.0005-.0938,0-.0024-.0005-.0914-.0309-.0938-.0312-.0024-.0004-.0913,.0002-.0938,0-.0024-.0002-.0913-.0312-.0938-.0312-.0024-.0001-.1226-0-.125,0zm7.4062,30.875c3.4566,0 6.1875,2.7309 6.1875,6.1875 0,3.4566-2.7309,6.1875-6.1875,6.1875-3.4566,0-6.1875-2.7309-6.1875-6.1875 0-3.4566 2.7309-6.1875 6.1875-6.1875z"/>
<path opacity=".15" d="m40.5625,12.7812a.9578,.9578 0 0,0 -.125,.0312c-4.6028,.9591-8.8935,2.7901-12.6875,5.2812a.9578,.9578 0 0,0 -.4375,.8438c.0977,2.4431-.7632,4.8882-2.625,6.75-1.8618,1.8618-4.3069,2.7227-6.75,2.625a.9578,.9578 0 0,0 -.8438,.4375c-2.4911,3.794-4.3221,8.0847-5.2812,12.6875a.9578,.9578 0 0,0 .2812,.9062c1.8084,1.6547 2.9375,4.0079 2.9375,6.6562 0,2.6484-1.1291,5.0015-2.9375,6.6562a.9578,.9578 0 0,0 -.2812,.9062c.9591,4.6028 2.7901,8.8935 5.2812,12.6875a.9578,.9578 0 0,0 .8438,.4375c2.4431-.0977 4.8882,.7632 6.75,2.625 1.8618,1.8618 2.7227,4.3069 2.625,6.75a.9578,.9578 0 0,0 .4375,.8438c3.794,2.4911 8.0847,4.3221 12.6875,5.2812a.9578,.9578 0 0,0 .9062-.2812c1.6547-1.8084 4.0079-2.9375 6.6562-2.9375 2.6484,0 5.0015,1.1291 6.6562,2.9375a.9578,.9578 0 0,0 .9062,.2812c4.5868-.9558 8.8703-2.7706 12.6562-5.25a.9578,.9578 0 0,0 .4375-.8438c-.0038-.0879 0-.2341 0-.4062 0-2.3135 .8846-4.6034 2.6562-6.375 1.8618-1.8618 4.3069-2.7227 6.75-2.625a.9578,.9578 0 0,0 .8438-.4375c2.4911-3.794 4.3221-8.0847 5.2812-12.6875a.9578,.9578 0 0,0 -.2812-.9062c-1.8084-1.6547-2.9375-4.0079-2.9375-6.6562 0-2.6484 1.1291-5.0015 2.9375-6.6562a.9578,.9578 0 0,0 .2812-.9062c-.9591-4.6028-2.7901-8.8935-5.2812-12.6875a.9578,.9578 0 0,0 -.8438-.4375c-2.4431,.0977-4.8882-.7632-6.75-2.625-1.7716-1.7716-2.6562-4.0615-2.6562-6.375 0-.1722-.0038-.3183 0-.4062a.9578,.9578 0 0,0 -.4375-.8438c-3.786-2.4794-8.0695-4.2942-12.6562-5.25a.9578,.9578 0 0,0 -.9062,.2812c-1.6547,1.8084-4.0079,2.9375-6.6562,2.9375-2.6484,0-5.0015-1.1291-6.6562-2.9375a.9578,.9578 0 0,0 -.7812-.3125zm7.4375,29.1875c3.9007,0 7.0312,3.1305 7.0312,7.0312 0,3.9007-3.1305,7.0312-7.0312,7.0312-3.9007,0-7.0312-3.1305-7.0312-7.0312 0-3.9007 3.1305-7.0312 7.0312-7.0312z"/>
<path opacity=".3" d="m40.625,13.75c-4.4789,.9333-8.6446,2.7274-12.3438,5.1562 .1078,2.6954-.8512,5.4137-2.9062,7.4688-2.0551,2.0551-4.7733,3.0141-7.4688,2.9062-2.4288,3.6992-4.2229,7.8648-5.1562,12.3438 1.9982,1.8284 3.25,4.4531 3.25,7.375 0,2.9219-1.2518,5.5466-3.25,7.375 .9333,4.4789 2.7274,8.6446 5.1562,12.3438 2.6954-.1078 5.4137,.8512 7.4688,2.9062 2.0551,2.0551 3.0141,4.7733 2.9062,7.4688 3.6992,2.4288 7.8648,4.2229 12.3438,5.1562 1.8284-1.9982 4.4531-3.25 7.375-3.25 2.9219,0 5.5466,1.2518 7.375,3.25 4.4644-.9303 8.6222-2.7083 12.3125-5.125-.0063-.1443 0-.2932 0-.4375 0-2.5592 .9849-5.1099 2.9375-7.0625 2.0551-2.0551 4.7733-3.0141 7.4688-2.9062 2.4288-3.6992 4.2229-7.8648 5.1562-12.3438-1.9982-1.8284-3.25-4.4531-3.25-7.375 0-2.9219 1.2518-5.5466 3.25-7.375-.9333-4.4789-2.7274-8.6446-5.1562-12.3438-2.6954,.1078-5.4137-.8512-7.4688-2.9062-1.9526-1.9526-2.9375-4.5033-2.9375-7.0625 0-.1443-.0063-.2932 0-.4375-3.6903-2.4167-7.8481-4.1947-12.3125-5.125-1.8284,1.9982-4.4531,3.25-7.375,3.25-2.9219,0-5.5466-1.2518-7.375-3.25zm7.375,27.25c4.4183,0 8,3.5817 8,8 0,4.4183-3.5817,8-8,8-4.4183,0-8-3.5817-8-8 0-4.4183 3.5817-8 8-8z"/>
<path fill="url(#linearGradient3709)" d="m40.625,12.75c-4.4789,.9333-8.6446,2.7274-12.3438,5.1562 .1078,2.6954-.8512,5.4137-2.9062,7.4688-2.0551,2.0551-4.7733,3.0141-7.4688,2.9062-2.4288,3.6992-4.2229,7.8648-5.1562,12.3438 1.9982,1.8284 3.25,4.4531 3.25,7.375 0,2.9219-1.2518,5.5466-3.25,7.375 .9333,4.4789 2.7274,8.6446 5.1562,12.3438 2.6954-.1078 5.4137,.8512 7.4688,2.9062 2.0551,2.0551 3.0141,4.7733 2.9062,7.4688 3.6992,2.4288 7.8648,4.2229 12.3438,5.1562 1.8284-1.9982 4.4531-3.25 7.375-3.25 2.9219,0 5.5466,1.2518 7.375,3.25 4.4644-.9303 8.6222-2.7083 12.3125-5.125-.0063-.1443 0-.2932 0-.4375 0-2.5592 .9849-5.1099 2.9375-7.0625 2.0551-2.0551 4.7733-3.0141 7.4688-2.9062 2.4288-3.6992 4.2229-7.8648 5.1562-12.3438-1.9982-1.8284-3.25-4.4531-3.25-7.375 0-2.9219 1.2518-5.5466 3.25-7.375-.9333-4.4789-2.7274-8.6446-5.1562-12.3438-2.6954,.1078-5.4137-.8512-7.4688-2.9062-1.9526-1.9526-2.9375-4.5033-2.9375-7.0625 0-.1443-.0063-.2932 0-.4375-3.6903-2.4167-7.8481-4.1947-12.3125-5.125-1.8284,1.9982-4.4531,3.25-7.375,3.25-2.9219,0-5.5466-1.2518-7.375-3.25zm7.375,27.25c4.4183,0 8,3.5817 8,8 0,4.4183-3.5817,8-8,8-4.4183,0-8-3.5817-8-8 0-4.4183 3.5817-8 8-8z"/>
<path fill="url(#radialGradient3773)" d="m40.625,12.75c-4.4789,.9333-8.6446,2.7274-12.3438,5.1562 .1078,2.6954-.8512,5.4137-2.9062,7.4688-2.0551,2.0551-4.7733,3.0141-7.4688,2.9062-2.4288,3.6992-4.2229,7.8648-5.1562,12.3438 1.9982,1.8284 3.25,4.4531 3.25,7.375 0,2.9219-1.2518,5.5466-3.25,7.375 .9333,4.4789 2.7274,8.6446 5.1562,12.3438 2.6954-.1078 5.4137,.8512 7.4688,2.9062 2.0551,2.0551 3.0141,4.7733 2.9062,7.4688 3.6992,2.4288 7.8648,4.2229 12.3438,5.1562 1.8284-1.9982 4.4531-3.25 7.375-3.25 2.9219,0 5.5466,1.2518 7.375,3.25 4.4644-.9303 8.6222-2.7083 12.3125-5.125-.0063-.1443 0-.2932 0-.4375 0-2.5592 .9849-5.1099 2.9375-7.0625 2.0551-2.0551 4.7733-3.0141 7.4688-2.9062 2.4288-3.6992 4.2229-7.8648 5.1562-12.3438-1.9982-1.8284-3.25-4.4531-3.25-7.375 0-2.9219 1.2518-5.5466 3.25-7.375-.9333-4.4789-2.7274-8.6446-5.1562-12.3438-2.6954,.1078-5.4137-.8512-7.4688-2.9062-1.9526-1.9526-2.9375-4.5033-2.9375-7.0625 0-.1443-.0063-.2932 0-.4375-3.6903-2.4167-7.8481-4.1947-12.3125-5.125-1.8284,1.9982-4.4531,3.25-7.375,3.25-2.9219,0-5.5466-1.2518-7.375-3.25zm7.375,27.25c4.4183,0 8,3.5817 8,8 0,4.4183-3.5817,8-8,8-4.4183,0-8-3.5817-8-8 0-4.4183 3.5817-8 8-8z"/>
</g>
<path d="m58.1933,25.1272c-2.6251,0-4.7507,2.1372-4.7507,4.7719 0,2.6347 2.1256,4.7719 4.7507,4.7719 2.6251,0 4.7507-2.1372 4.7507-4.7719 0-2.6347-2.1256-4.7719-4.7507-4.7719zm-10.0329,3.7374c-2.9298,.0004-5.9002,.7431-8.5712,2.0689-.095,.0473-.1542,.1313-.1827,.2336-.0289,.1023-.023,.2103 .0332,.3003l3.8537,6.1234c.0976,.1557 .296,.2215 .4651,.1502 1.4263-.6057 2.9064-.901 4.4019-.901 5.5009,0 10.3,4.0944 11.1625,9.5271 .0289,.1824 .1819,.317 .3654,.317h7.2423c.1056,0 .2113-.0382 .2824-.1168 .071-.0786 .1095-.1775 .0997-.2836-.3906-4.0309-2.1062-7.9337-4.8171-10.9621-.1223-.1374-.3271-.1504-.4817-.0501-1.0931,.7091-2.3333,1.0845-3.5879,1.0845-3.66,0-6.6273-2.9868-6.6277-6.6406 .0004-.0019 0-.1274 0-.1335 0-.182-.1359-.3525-.3156-.3838-1.1444-.1992-2.2553-.3337-3.3222-.3337zm-11.6276,4.0044c-.0502,.0124-.1083,.0345-.1495,.0667-3.1414,2.4303-5.4973,5.8482-6.6443,9.6273-.0448,.1477-.0049,.3043 .1163,.4004 1.5787,1.256 2.5248,3.1893 2.5248,5.1724 0,1.983-.9458,3.9164-2.5248,5.1724-.1204,.0958-.1611,.2524-.1163,.4004 1.1379,3.7474 3.4752,7.1522 6.5779,9.5772 .0832,.0653 .1783,.1017 .2824,.0834 .1037-.0179 .1925-.0946 .2492-.1835l3.8869-6.1067c.0992-.1561 .0722-.3614-.0665-.4839-2.4351-2.1521-3.8371-5.2379-3.8371-8.4593 0-3.2455 1.4098-6.3398 3.8703-8.4927 .1387-.1217 .1815-.327 .0831-.4839l-3.8537-6.1234c-.0562-.0893-.1454-.1485-.2492-.1669-.0519-.0092-.0993-.0124-.1495,0zm-10.714,10.4782c-2.6866,0-4.867,2.192-4.867,4.8887 0,2.6967 2.1804,4.872 4.867,4.872 2.6866,0 4.867-2.1754 4.867-4.872 0-2.6967-2.1804-4.8887-4.867-4.8887zm41.1117,6.3069-7.2423,.0167c-.1828,.0004-.3528,.1361-.382,.317-.8743,5.3923-5.6602,9.4604-11.1459,9.4604-1.5129,0-3.0094-.3138-4.4517-.9344-.1687-.0721-.3659-.0211-.4651,.1335l-3.8869,6.1234c-.0566,.0897-.0613,.1977-.0332,.3003 .0281,.1023 .0881,.1863 .1827,.2336 2.6919,1.3537 5.6906,2.0689 8.6542,2.0689 1.0992,0 2.2468-.1105 3.4052-.317 .1626-.0286 .2796-.1525 .299-.317 .386-3.3489 3.2056-5.8731 6.5613-5.8731 1.0403,0 2.111,.2637 3.073,.7675 .1463,.0767 .316,.0519 .4319-.0667 3.0339-3.1077 4.9518-7.2051 5.3819-11.5127 .0106-.1057-.0282-.2046-.0997-.2836-.0714-.079-.1768-.1172-.2824-.1168zm-8.5546,12.8975c-2.6866,0-4.867,2.1726-4.867,4.8553 0,2.6828 2.1804,4.8553 4.867,4.8553 2.6866,0 4.867-2.1726 4.867-4.8553 0-2.6828-2.1804-4.8553-4.867-4.8553z"/>
<g fill="#fff">
<path opacity=".4" color="#000" d="m40.625,12.75c-4.4789,.9333-8.6446,2.7274-12.3438,5.1562 .1078,2.6954-.8512,5.4137-2.9062,7.4688-2.0551,2.0551-4.7733,3.0141-7.4688,2.9062-2.4288,3.6992-4.2229,7.8648-5.1562,12.3438 1.9982,1.8284 3.25,4.4531 3.25,7.375 0,2.9219-1.2518,5.5466-3.25,7.375 .9333,4.4789 2.7274,8.6446 5.1562,12.3438 2.6954-.1078 5.4137,.8512 7.4688,2.9062 2.0551,2.0551 3.0141,4.7733 2.9062,7.4688 3.6992,2.4288 7.8648,4.2229 12.3438,5.1562 1.8284-1.9982 4.4531-3.25 7.375-3.25 2.9219,0 5.5466,1.2518 7.375,3.25 4.4644-.9303 8.6222-2.7083 12.3125-5.125-.0063-.1443 0-.2932 0-.4375 0-2.5592 .9849-5.1099 2.9375-7.0625 2.0551-2.0551 4.7733-3.0141 7.4688-2.9062 2.4288-3.6992 4.2229-7.8648 5.1562-12.3438-1.9982-1.8284-3.25-4.4531-3.25-7.375 0-2.9219 1.2518-5.5466 3.25-7.375-.9333-4.4789-2.7274-8.6446-5.1562-12.3438-2.6954,.1078-5.4137-.8512-7.4688-2.9062-1.9526-1.9526-2.9375-4.5033-2.9375-7.0625 0-.1443-.0063-.2932 0-.4375-3.6903-2.4167-7.8481-4.1947-12.3125-5.125-1.8284,1.9982-4.4531,3.25-7.375,3.25-2.9219,0-5.5466-1.2518-7.375-3.25zm-.1562,1.1562c1.9784,1.8771 4.5935,3.125 7.5312,3.125 2.9377,0 5.5528-1.2479 7.5312-3.125 4.0206,.8874 7.7821,2.4801 11.1562,4.625 .0554,2.7515 1.0945,5.5008 3.1875,7.5938 2.0783,2.0783 4.805,2.9928 7.5312,3.0625 2.1837,3.405 3.7897,7.2154 4.6875,11.2812-1.8771,1.9784-3.125,4.5935-3.125,7.5312 0,2.9377 1.2479,5.5528 3.125,7.5312-.8978,4.0658-2.5038,7.8763-4.6875,11.2812-2.7263,.0697-5.4529,.9842-7.5312,3.0625-2.093,2.093-3.1321,4.8423-3.1875,7.5938-3.3742,2.1449-7.1356,3.7376-11.1562,4.625-1.9784-1.8771-4.5935-3.125-7.5312-3.125-2.9377,0-5.5528,1.2479-7.5312,3.125-4.0658-.8978-7.8763-2.5038-11.2812-4.6875-.0697-2.7263-.9842-5.4529-3.0625-7.5312-2.0783-2.0783-4.805-2.9928-7.5312-3.0625-2.1837-3.405-3.7897-7.2154-4.6875-11.2812 1.8771-1.9784 3.125-4.5935 3.125-7.5312 0-2.9377-1.2479-5.5528-3.125-7.5312 .8978-4.0658 2.5038-7.8763 4.6875-11.2812 2.7263-.0697 5.4529-.9842 7.5312-3.0625 2.0783-2.0783 2.9928-4.805 3.0625-7.5312 3.405-2.1837 7.2154-3.7897 11.2812-4.6875zm7.5312,25.0938c-4.9706,0-9,4.0294-9,9 0,4.9706 4.0294,9 9,9 4.9706,0 9-4.0294 9-9 0-4.9706-4.0294-9-9-9zm0,1c4.4183,0 8,3.5817 8,8 0,4.4183-3.5817,8-8,8-4.4183,0-8-3.5817-8-8 0-4.4183 3.5817-8 8-8z"/>
<path opacity=".2" d="m12,6c-3.324,0-6,2.676-6,6v72c0,3.324 2.676,6 6,6h17.625l11.25-84h-28.875z"/>
</g>
</svg>
