<svg xmlns="http://www.w3.org/2000/svg" viewBox="0 0 96 96" xmlns:xlink="http://www.w3.org/1999/xlink">
<defs>
<clipPath id="clipPath3871-9">
<path fill="#fff" d="m0,96 0,60h96v-60h-96zm68,20c9.9411,0 18,8.0589 18,18 0,9.9411-8.0589,18-18,18-9.9411,0-18-8.0589-18-18 0-9.9411 8.0589-18 18-18z"/>
</clipPath>
<clipPath id="clipPath4029">
<path fill="url(#linearGradient4033)" d="m118,56c-9.9411,0-18,8.0589-18,18 0,9.9411 8.0589,18 18,18 9.7305,0 17.6372-7.7253 17.9688-17.375v-1.25c-.3315-9.6497-8.2382-17.375-17.9688-17.375zm-6,10.75c5.9493,.0575 10.8315,4.9413 11.0312,10.875l3.75,.0312-6,8.7188-6.1562-8.8125 3.9688,.0312c-.251-4.9057-4.4893-9.9506-11.7188-9.625 1.5223-.8007 3.2718-1.2367 5.125-1.2188z"/>
</clipPath>
<clipPath>
<path fill="#fff" d="m108.8125,58c-1.5581,0-2.8125,1.2544-2.8125,2.8125v24.375c0,1.5581 1.2544,2.8125 2.8125,2.8125h24.375c1.5581,0 2.8125-1.2544 2.8125-2.8125v-24.375c0-1.5581-1.2544-2.8125-2.8125-2.8125h-24.375zm7.1875,4.5 10,0 0,8.75 5,0-10,13.75-10-13.75 5,0 0-8.75z"/>
</clipPath>
<filter width="1.623" x="-.312" y="-.426" height="1.853" color-interpolation-filters="sRGB" id="filter4362">
<feGaussianBlur stdDeviation="6.21244"/>
</filter>
<linearGradient id="linearGradient4051" xlink:href="#linearGradient5010" y1="87.489" x1="120.646" y2="67.706" x2="118.333" gradientUnits="userSpaceOnUse"/>
<linearGradient gradientTransform="matrix(.30998 0 0 .31034 48.18249 54.13793)" id="linearGradient4087" xlink:href="#linearGradient3210-5" y1="122" y2="5.978" x2="0" gradientUnits="userSpaceOnUse"/>
<linearGradient gradientTransform="matrix(.30998 0 0 .31034 98.14012 54.13793)" id="linearGradient4033" xlink:href="#linearGradient3187" y1="122" y2="5.978" x2="0" gradientUnits="userSpaceOnUse"/>
<linearGradient id="linearGradient3210-5">
<stop offset="0" stop-color="#cd2323"/>
<stop offset="1" stop-color="#ef7474"/>
</linearGradient>
<linearGradient id="linearGradient3187">
<stop offset="0" stop-color="#1e71ac"/>
<stop offset="1" stop-color="#81c1e9"/>
</linearGradient>
<linearGradient gradientTransform="matrix(.30998 0 0 .31034 48.14012 54.13793)" id="linearGradient4090" xlink:href="#linearGradient3187" y1="122" y2="5.978" x2="0" gradientUnits="userSpaceOnUse"/>
<linearGradient id="linearGradient3250">
<stop offset="0" stop-color="#fff"/>
<stop offset=".433" stop-color="#fff" stop-opacity=".498"/>
<stop offset="1" stop-color="#fff" stop-opacity="0"/>
</linearGradient>
<linearGradient gradientTransform="matrix(1.02381 0 0 1.0119 -1.14286 -98.07143)" id="linearGradient3780" xlink:href="#ButtonShadow-0" y1="6.132" y2="90.239" x2="0" gradientUnits="userSpaceOnUse"/>
<linearGradient gradientTransform="matrix(1.00587 0 0 .99417 100 0)" id="ButtonShadow-0" y1="92.54" y2="7.017" x2="0" gradientUnits="userSpaceOnUse">
<stop offset="0"/>
<stop offset="1" stop-opacity=".588"/>
</linearGradient>
<linearGradient id="linearGradient3928">
<stop offset="0" stop-color="#3a240f"/>
<stop offset="1" stop-color="#3a240f" stop-opacity="0"/>
</linearGradient>
<linearGradient gradientTransform="matrix(-.3006 0 0 -.30318 86.16905 93.4611)" id="linearGradient4029" xlink:href="#linearGradient3250" y1="79.417" y2="5.184" x2="0" gradientUnits="userSpaceOnUse"/>
<linearGradient id="linearGradient3934-5" xlink:href="#linearGradient3928" y1="61.991" y2="4.667" x2="0" gradientUnits="userSpaceOnUse"/>
<linearGradient id="linearGradient3942" xlink:href="#linearGradient3928" y1="60.307" y2="6.018" x2="0" gradientUnits="userSpaceOnUse"/>
<linearGradient id="linearGradient4309-4" y1="47.247" y2=".239" x2="0" gradientUnits="userSpaceOnUse">
<stop offset="0" stop-color="#d8cab2"/>
<stop offset=".457" stop-color="#d2b98c"/>
<stop offset=".486" stop-color="#f9f7ef"/>
<stop offset=".491" stop-color="#fff"/>
<stop offset=".492" stop-color="#fbf9f4"/>
<stop offset=".495" stop-color="#efe7d0"/>
<stop offset=".498" stop-color="#e4d6b0"/>
<stop offset=".501" stop-color="#dac894"/>
<stop offset=".505" stop-color="#c7a572"/>
<stop offset="1" stop-color="#d7c198"/>
</linearGradient>
<linearGradient gradientTransform="translate(-2)" id="linearGradient3857" xlink:href="#linearGradient3737" y1="55.31" y2="84.89" x2="0" gradientUnits="userSpaceOnUse"/>
<linearGradient gradientTransform="matrix(1.02006 0 0 1.02006 -5.2982 5.75621)" id="linearGradient3277-5" xlink:href="#linearGradient4309-4" y1="19.882" y2="47.295" x2="0" gradientUnits="userSpaceOnUse"/>
<linearGradient gradientTransform="translate(0 -97)" id="linearGradient3721" xlink:href="#ButtonShadow-0" y1="6.132" y2="90.239" x2="0" gradientUnits="userSpaceOnUse"/>
<linearGradient id="linearGradient4414">
<stop offset="0" stop-color="#dac3a2"/>
<stop offset="1" stop-color="#dac3a2" stop-opacity="0"/>
</linearGradient>
<linearGradient gradientTransform="matrix(-1 0 0 1 96 0)" id="linearGradient3264" xlink:href="#linearGradient4295" y1="29.04" x1="47.227" y2="18.082" x2="6.33" gradientUnits="userSpaceOnUse"/>
<linearGradient id="linearGradient3737">
<stop offset="0" stop-color="#fff"/>
<stop offset="1" stop-color="#fff" stop-opacity="0"/>
</linearGradient>
<linearGradient id="linearGradient5100" xlink:href="#linearGradient5092" y1="32.783" x1="47.079" y2="9.41" x2="6.596" gradientUnits="userSpaceOnUse"/>
<linearGradient id="linearGradient3706" xlink:href="#linearGradient4289" y1="90" y2="39.853" x2="0" gradientUnits="userSpaceOnUse"/>
<linearGradient id="linearGradient5010">
<stop offset="0"/>
<stop offset="1" stop-opacity="0"/>
</linearGradient>
<linearGradient id="linearGradient5092">
<stop offset="0" stop-color="#be9f6a"/>
<stop offset="1" stop-color="#e5d2b2"/>
</linearGradient>
<linearGradient id="linearGradient4370">
<stop offset="0" stop-color="#8a5b30"/>
<stop offset="1" stop-color="#8a5b30" stop-opacity="0"/>
</linearGradient>
<linearGradient id="linearGradient4289">
<stop offset="0" stop-color="#996c3b"/>
<stop offset="1" stop-color="#c19e6d"/>
</linearGradient>
<linearGradient id="linearGradient4295">
<stop offset="0" stop-color="#b88f56"/>
<stop offset="1" stop-color="#d9bd98"/>
</linearGradient>
<linearGradient id="linearGradient2489" xlink:href="#linearGradient4295" y1="42" x1="48" y2="18.202" x2="6.781" gradientUnits="userSpaceOnUse"/>
<linearGradient gradientTransform="matrix(.3006 0 0 .30318 49.70468 55.49257)" id="linearGradient4042" xlink:href="#linearGradient3250" y1="79.417" y2="5.184" x2="0" gradientUnits="userSpaceOnUse"/>
<linearGradient gradientTransform="matrix(-1 0 0 1 96.08693 0)" id="linearGradient4424" xlink:href="#linearGradient4414" y1="44.04" y2="52.263" x2="0" gradientUnits="userSpaceOnUse"/>
<linearGradient gradientTransform="matrix(-1 0 0 1 96 0)" id="linearGradient4402" xlink:href="#linearGradient3737" y1="40.263" y2="89.666" x2="0" gradientUnits="userSpaceOnUse"/>
<linearGradient id="linearGradient4420" xlink:href="#linearGradient4414" y1="44.04" y2="52.263" x2="0" gradientUnits="userSpaceOnUse"/>
<linearGradient id="linearGradient3285" xlink:href="#linearGradient3737" y1="42" x1="23.143" y2="6" x2="66.964" gradientUnits="userSpaceOnUse"/>
<linearGradient id="linearGradient4376" xlink:href="#linearGradient4370" y1="38.127" y2="71.877" x2="0" gradientUnits="userSpaceOnUse"/>
<linearGradient gradientTransform="matrix(-1 0 0 1 96 0)" id="linearGradient4400" xlink:href="#linearGradient4370" y1="38.127" y2="87.03" x2="0" gradientUnits="userSpaceOnUse"/>
<linearGradient id="linearGradient4394" xlink:href="#linearGradient3737" y1="40.263" y2="89.666" x2="0" gradientUnits="userSpaceOnUse"/>
<radialGradient cx="48" cy="73.146" gradientTransform="matrix(.86777 0 0 .09524 6.34728 36.19048)" r="42" id="radialGradient4432" gradientUnits="userSpaceOnUse">
<stop offset="0" stop-color="#71461e"/>
<stop offset="1" stop-color="#71461e" stop-opacity="0"/>
</radialGradient>
<radialGradient cx="48" cy="90.172" gradientTransform="matrix(1.15731 0 0 .99591 -7.55102 .19713)" r="42" id="radialGradient2858" gradientUnits="userSpaceOnUse">
<stop offset="0" stop-color="#fff"/>
<stop offset="1" stop-color="#fff" stop-opacity="0"/>
</radialGradient>
</defs>
<path opacity=".08" fill="url(#linearGradient3780)" d="m12-95.0312c-5.5111,0-10.0312,4.5202-10.0312,10.0312v71c0,5.5111 4.5202,10.0312 10.0312,10.0312h72c5.5111,0 10.0312-4.5202 10.0312-10.0312v-71c0-5.5111-4.5202-10.0312-10.0312-10.0312h-72z" transform="scale(1 -1)"/>
<path opacity=".1" fill="url(#linearGradient3780)" d="m12-94.0312c-4.9716,0-9.0312,4.0596-9.0312,9.0312v71c0,4.9716 4.0596,9.0312 9.0312,9.0312h72c4.9716,0 9.0312-4.0596 9.0312-9.0312v-71c0-4.9716-4.0596-9.0312-9.0312-9.0312h-72z" transform="scale(1 -1)"/>
<path opacity=".2" fill="url(#linearGradient3780)" d="m12-93c-4.4091,0-8,3.5909-8,8v71c0,4.4091 3.5909,8 8,8h72c4.4091,0 8-3.5909 8-8v-71c0-4.4091-3.5909-8-8-8h-72z" transform="scale(1 -1)"/>
<path opacity=".3" fill="url(#linearGradient3780)" d="m12-92h72a7,7 0 0,1 7,7v71a7,7 0 0,1 -7,7h-72a7,7 0 0,1 -7-7v-71a7,7 0 0,1 7-7" transform="scale(1 -1)"/>
<path opacity=".45" fill="url(#linearGradient3721)" d="m12-91h72a6,6 0 0,1 6,6v72a6,6 0 0,1 -6,6h-72a6,6 0 0,1 -6-6v-72a6,6 0 0,1 6-6" transform="scale(1 -1)"/>
<path fill="url(#linearGradient4376)" d="m6,36 0,48c0,1.7818 .7746,3.3717 2,4.4688v-52.4688h-2z"/>
<path fill="url(#linearGradient3706)" d="m12,6h72a6,6 0 0,1 6,6v72a6,6 0 0,1 -6,6h-72a6,6 0 0,1 -6-6v-72a6,6 0 0,1 6-6"/>
<path fill="url(#radialGradient4432)" d="m6,36 0,2c0,3.324 2.676,6 6,6h72c3.324,0 6-2.676 6-6v-2c0,3.324-2.676,6-6,6h-72c-3.324,0-6-2.676-6-6z"/>
<path fill="url(#linearGradient4400)" d="m90,36 0,48c0,1.7818-.7746,3.3717-2,4.4688v-52.4688h2z"/>
<path fill="#3c2510" d="m12,18h72a6,6 0 0,1 6,6v12a6,6 0 0,1 -6,6h-72a6,6 0 0,1 -6-6v-12a6,6 0 0,1 6-6"/>
<path opacity=".3" fill="url(#linearGradient4402)" d="m88,36 0,52.4688c-.5769,.5164-1.2549,.9231-2,1.1875v-53.6562h2z"/>
<path opacity=".3" fill="url(#linearGradient4394)" d="m8,36 0,52.4688c.5769,.5164 1.2549,.9231 2,1.1875v-53.6562h-2z"/>
<path fill="url(#linearGradient5100)" d="m12,6c-3.2266,0-6,2.2593-6,7v2 20.6562l42,.0344v-29.6907h-34-2z"/>
<path opacity=".3" fill="#dac7a8" filter="url(#filter4362)" d="m18.7532,41.9568h35.856a6,6 0 0,1 6,6v22.9766a6,6 0 0,1 -6,6h-35.856a6,6 0 0,1 -6-6v-22.9766a6,6 0 0,1 6-6" transform="matrix(1 0 0 .8556 10 8.58413)"/>
<path fill="url(#linearGradient2489)" d="m12,6c-3.324,0-6,2.676-6,6v24c0,3.324 2.676,6 6,6l36-2v-36l-36,2z"/>
<path fill="url(#linearGradient3264)" d="m84,6c3.324,0 6,2.676 6,6v24c0,3.324-2.676,6-6,6l-36-2v-36l36,2z"/>
<path opacity=".3" fill="url(#linearGradient3285)" d="m12,6c-3.324,0-6,2.676-6,6v24c0,3.324 2.676,6 6,6l36-2 36,2c3.324,0 6-2.676 6-6v-24c0-3.324-2.676-6-6-6l-36-2-36,2zm0,2 36-2 36,2c2.2458,0 4,1.7542 4,4v24c0,2.2458-1.7542,4-4,4l-36-2-36,2c-2.2458,0-4-1.7542-4-4v-24c0-2.2458 1.7542-4 4-4z"/>
<g fill-rule="evenodd">
<path fill="url(#linearGradient4420)" d="m6.1872,37.2849c2.3991,5.5558 1.894,16.0362 1.894,16.0362l1.8309-.2525c-.2525-8.2075 .4419-11.2379 4.9876-11.3642-7.169-1.1948-8.7126-4.4194-8.7126-4.4194z"/>
<path fill="url(#linearGradient4424)" d="m89.8997,37.2849c-2.3991,5.5558-1.894,16.0362-1.894,16.0362l-1.8309-.2525c.2525-8.2075-.4419-11.2379-4.9876-11.3642 7.169-1.1948 8.7126-4.4194 8.7126-4.4194z"/>
</g>
<path opacity=".2" fill="url(#radialGradient2858)" d="m12,90c-3.324,0-6-2.676-6-6v-2-68-2c0-.3347 .0413-.6507 .0938-.9688 .0487-.2956 .097-.5969 .1875-.875 .0099-.0304 .0209-.0636 .0312-.0938 .0989-.2878 .2349-.5475 .375-.8125 .1446-.2735 .3156-.5356 .5-.7812 .1844-.2456 .3738-.4735 .5938-.6875 .4399-.4281 .9429-.8145 1.5-1.0938 .2785-.1396 .5735-.2469 .875-.3438-.2562,.1002-.4867,.2363-.7188,.375-.0074,.0044-.0239-.0045-.0312,0-.0319,.0193-.0623,.0425-.0938,.0625-.1204,.0767-.231,.1635-.3438,.25-.1062,.0808-.2133,.1611-.3125,.25-.1779,.1614-.3475,.3454-.5,.5312-.1076,.1303-.2184,.2653-.3125,.4062-.0251,.0384-.0384,.0859-.0625,.125-.0648,.103-.1302,.2045-.1875,.3125-.101,.1947-.2057,.4157-.2812,.625-.008,.0218-.0236,.0405-.0312,.0625-.0318,.092-.0358,.1868-.0625,.2812-.0303,.1066-.0704,.203-.0938,.3125-.0729,.3415-.125,.6982-.125,1.0625v2 68 2c0,2.7818 2.2182,5 5,5h2 68 2c2.7818,0 5-2.2182 5-5v-2-68-2c0-.3643-.0521-.721-.125-1.0625-.0442-.2069-.0884-.3977-.1562-.5938-.0077-.022-.0233-.0407-.0312-.0625-.0627-.1737-.1384-.3674-.2188-.5312-.0416-.0828-.079-.17-.125-.25-.0546-.0972-.1268-.1883-.1875-.2812-.0941-.141-.2049-.276-.3125-.4062-.1432-.1745-.3031-.347-.4688-.5-.0112-.0102-.02-.0211-.0312-.0312-.1384-.1256-.2851-.2344-.4375-.3438-.1026-.0732-.2043-.1534-.3125-.2188-.0074-.0045-.0238,.0044-.0312,0-.232-.1387-.4625-.2748-.7188-.375 .3015,.0968 .5965,.2041 .875,.3438 .5571,.2792 1.0601,.6657 1.5,1.0938 .22,.214 .4094,.4419 .5938,.6875 .1844,.2456 .3554,.5077 .5,.7812 .1401,.265 .2761,.5247 .375,.8125 .0104,.0308 .0213,.0627 .0312,.0938 .0905,.2781 .1388,.5794 .1875,.875 .0524,.318 .0938,.634 .0938,.9688v2 68 2c0,3.324-2.676,6-6,6h-72z"/>
<path opacity=".5" fill="#3a240f" d="m54.1204,7-12.1204,0 .0602,24.0622 .1346,28.9378 5.6868-.4947 6.0439-.5253 .0326-5.5512 .102-22.3665 .0602-24.0622z"/>
<path opacity=".1" fill="url(#linearGradient3934-5)" d="m41.6875,5.125c.0042-.0007-.1917,.0323-.1875,.0312 .0042-.0011-.1603,.064-.1562,.0625 .004-.0015-.1601,.0643-.1562,.0625 .0039-.0018-.1287,.0647-.125,.0625 .0037-.0022-.1598,.0962-.1562,.0938 .0035-.0025-.1283,.1278-.125,.125 .0033-.0028-.128,.0968-.125,.0938 .003-.0031-.1277,.1283-.125,.125 .0027-.0033-.0962,.1598-.0938,.1562 .0024-.0035-.0958,.1287-.0938,.125 .0021-.0038-.0642,.1602-.0625,.1562 .0017-.0039-.0639,.1603-.0625,.1562 .0014-.0041-.0323,.1604-.0312,.1562 .001-.0042-.0631,.1605-.0625,.1562 .0006-.0042-.0003,.1918 0,.1875 .0002-.0034 .0008,.0823 0,.125v.0312l.0625,24.0312 .125,28.9375a1.0058,1.0058 0 0,0 0,.0312c-0-.0025 .0002,.0962 0,.0938-.0002-.0025 .0003,.0962 0,.0938-.0003-.0024 .0317,.0962 .0312,.0938-.0004-.0024 .0005,.0962 0,.0938-.0005-.0024 .0319,.0961 .0312,.0938-.0007-.0024 .032,.0961 .0312,.0938-.0008-.0023 .0322,.0648 .0312,.0625-.0009-.0023 .0323,.096 .0312,.0938-.001-.0022 .0636,.0959 .0625,.0938-.0011-.0022 .0325,.0959 .0312,.0938-.0012-.0021 .0639,.0645 .0625,.0625-.0014-.0021 .0327,.0957 .0312,.0938-.0015-.002 .0641,.0644 .0625,.0625-.0016-.0019 .0641,.0956 .0625,.0938-.0016-.0018 .0642,.0642 .0625,.0625-.0017-.0017 .0956,.0641 .0938,.0625-.0018-.0016 .0644,.0641 .0625,.0625-.0019-.0015 .0645,.0639 .0625,.0625-.002-.0014 .0958,.0638 .0938,.0625-.0021-.0013 .0646,.0325 .0625,.0312-.0021-.0012 .0959,.0636 .0938,.0625-.0022-.0011 .096,.0323 .0938,.0312-.0022-.001 .096,.0322 .0938,.0312-.0023-.0009 .0961,.032 .0938,.0312-.0023-.0008 .0961,.0319 .0938,.0312-.0024-.0007 .0962,.0318 .0938,.0312-.0024-.0005 .0962,.0004 .0938,0-.0024-.0004 .0962,.0315 .0938,.0312-.0024-.0003 .0962,.0002 .0938,0-.0025-.0002 .0962,0 .0938,0-.0025-0 .0962-.0001 .0938,0-.0025,.0001 .0962-.0002 .0938,0l5.6875-.5 6.0312-.5312c-.0009,.0001 .0202,.0012 .0312,0 .0442-.0047 .1285-.0005 .125,0-.0044,.0007 .1918-.0636 .1875-.0625-.0043,.0011 .1605-.0327 .1562-.0312-.0042,.0015 .1603-.0644 .1562-.0625-.0041,.0019 .1601-.096 .1562-.0938-.0039,.0022 .1599-.0963 .1562-.0938-.0036,.0026 .1284-.0967 .125-.0938-.0034,.0029 .1281-.1282 .125-.125-.0031,.0032 .1278-.1285 .125-.125-.0028,.0035 .0962-.16 .0938-.1562-.0025,.0037 .0958-.1602 .0938-.1562-.0021,.004 .0955-.1604 .0938-.1562-.0017,.0041 .0638-.1605 .0625-.1562-.0013,.0043 .0322-.1606 .0312-.1562-.0009,.0044 .0318-.1919 .0312-.1875-.0005,.0044 .0001-.1607 0-.1562a1.0058,1.0058 0 0,0 0-.0312l.0312-5.5312 .0938-22.375 .0625-24.0625c-.0001,.0048-.0004-.161 0-.1562 .0004,.0048-.0321-.1922-.0312-.1875 .0009,.0047-.0326-.1921-.0312-.1875 .0013,.0046-.0643-.1919-.0625-.1875 .0018,.0044-.096-.1605-.0938-.1562 .0022,.0042-.0964-.1602-.0938-.1562 .0026,.004-.0968-.16-.0938-.1562 .003,.0037-.1284-.1596-.125-.1562 .0034,.0034-.16-.128-.1562-.125 .0037,.003-.1602-.0964-.1562-.0938 .004,.0027-.1605-.096-.1562-.0938 .0042,.0022-.1607-.0956-.1562-.0938 .0044,.0018-.1921-.0638-.1875-.0625 .0046,.0014-.1922-.0321-.1875-.0312 .0047,.0009-.1923-.0317-.1875-.0312 .0048,.0004-.161,.0001-.1562,0h-12.0312c.0026,.0002-.0439,.0023-.0938,0-.0333-.0015-.0642,0-.0625,0 .0043,0-.1918,.0004-.1875,0a1.0058,1.0058 0 0,0 -.0625,0z"/>
<path opacity=".2" fill="url(#linearGradient3942)" d="m42,6.125a.862,.862 0 0,0 -.875,.875l.0625,24.0625 .125,28.9375a.862,.862 0 0,0 .9375,.8438l5.6875-.5 6.0625-.5312a.862,.862 0 0,0 .8125-.8438l.0312-5.5312 .0938-22.375 .0625-24.0625a.862,.862 0 0,0 -.875-.875h-12.125z"/>
<path fill="url(#linearGradient3277-5)" d="m54.0602,4.3687-6.0602-.4419-6.0602,.4419 .0602,25.6936 .1346,28.9378l5.6868-.4947 6.0439-.5253 .0326-5.5512 .102-22.3665 .0602-25.6936z"/>
<path opacity=".2" fill="#8d6137" d="m47,4.125h1v35.7143h-1z"/>
<path opacity=".2" fill="#fff" d="m48,4.125h1v35.7143h-1z"/>
<g transform="translate(0 -2)">
<path fill="none" stroke="#825023" d="m17.3667,49.5h10.2666a1.8667,2 0 0,1 1.8667,2v15a1.8667,2 0 0,1 -1.8667,2h-10.2666a1.8667,2 0 0,1 -1.8667-2v-15a1.8667,2 0 0,1 1.8667-2"/>
<g fill="#825023">
<path d="m18.25,66 0-9.25-1.25,0 2.5-4.75 2.5,4.75-1.25,0 0,9.25-2.5,0z"/>
<path d="m24.25,66 0-9.25-1.25,0 2.5-4.75 2.5,4.75-1.25,0 0,9.25-2.5,0z"/>
</g>
</g>
<g fill="#553417" line-height="125%">
<g>
<path d="m15.1484,74.0823 1.0937,0 0,.3076-.6494,0 0,.25 .5547,0 0,.2891-.5547,0 0,.585-.4443,0 0-1.4316"/>
<path d="m17.1758,75.2776-.5039,0-.0693,.2363-.4521,0 .5381-1.4316 .4824,0 .5381,1.4316-.4629,0-.0703-.2363m-.0928-.3096-.1582-.5146-.1572,.5146 .3154,0"/>
<path d="m17.8486,74.0823 1.1855,0 0,.3057-.7422,0 0,.2275 .6885,0 0,.292-.6885,0 0,.2822 .7637,0 0,.3242-1.207,0 0-1.4316"/>
<path d="m19.2979,74.0823 .4131,0 .5391,.792 0-.792 .417,0 0,1.4316-.417,0-.5361-.7861 0,.7861-.416,0 0-1.4316"/>
<path d="m20.9268,74.0823 1.252,0 0,.2861-.8027,.8379 .832,0 0,.3076-1.3584,0 0-.2969 .7939-.8291-.7168,0 0-.3057"/>
<path d="m23.2891,75.2776-.5039,0-.0693,.2363-.4521,0 .5381-1.4316 .4824,0 .5381,1.4316-.4629,0-.0703-.2363m-.0928-.3096-.1582-.5146-.1572,.5146 .3154,0"/>
</g>
<g>
<path d="m15.1099,81.514 0-1.0737 .1421,0 0,.5325 .5332-.5325 .1926,0-.4504,.4351 .4702,.6387-.1875,0-.3823-.5435-.1758,.1714 0,.3721-.1421,0"/>
<path d="m16.6333,81.2635 .1362,.0169c-.0215,.0796-.0613,.1414-.1194,.1853-.0581,.0439-.1323,.0659-.2227,.0659-.1138,0-.2041-.0349-.271-.1047-.0664-.0703-.0996-.1687-.0996-.2952 0-.1309 .0337-.2324 .1011-.3047 .0674-.0723 .1548-.1084 .2622-.1084 .104,0 .189,.0354 .2549,.1062 .0659,.0708 .0989,.1704 .0989,.2988-0,.0078-.0002,.0195-.0007,.0352h-.5801c.0049,.0854 .0291,.1509 .0725,.1963 .0435,.0454 .0977,.0681 .1626,.0681 .0483,0 .0896-.0127 .1238-.0381 .0342-.0254 .0613-.0659 .0813-.1216m-.4329-.2131 .4343,0c-.0059-.0654-.0225-.1145-.0498-.1472-.042-.0508-.0964-.0762-.1633-.0762-.0605,0-.1116,.0203-.1531,.0608-.041,.0405-.0637,.0947-.0681,.1626"/>
<path d="m17.4683,81.2635 .1362,.0169c-.0215,.0796-.0613,.1414-.1194,.1853-.0581,.0439-.1323,.0659-.2227,.0659-.1138,0-.2041-.0349-.271-.1047-.0664-.0703-.0996-.1687-.0996-.2952 0-.1309 .0337-.2324 .1011-.3047 .0674-.0723 .1548-.1084 .2622-.1084 .104,0 .189,.0354 .2549,.1062 .0659,.0708 .0989,.1704 .0989,.2988-0,.0078-.0002,.0195-.0007,.0352h-.5801c.0049,.0854 .0291,.1509 .0725,.1963 .0435,.0454 .0977,.0681 .1626,.0681 .0483,0 .0896-.0127 .1238-.0381 .0342-.0254 .0613-.0659 .0813-.1216m-.4329-.2131 .4343,0c-.0059-.0654-.0225-.1145-.0498-.1472-.042-.0508-.0964-.0762-.1633-.0762-.0605,0-.1116,.0203-.1531,.0608-.041,.0405-.0637,.0947-.0681,.1626"/>
<path d="m17.7708,81.812 0-1.0759 .1201,0 0,.1011c.0283-.0396 .0603-.0691 .0959-.0886 .0356-.02 .0789-.03 .1296-.03 .0664,0 .125,.0171 .1758,.0513 .0508,.0342 .0891,.0825 .115,.145 .0259,.062 .0388,.1301 .0388,.2043-0,.0796-.0144,.1514-.0432,.2153-.0283,.0635-.0698,.1123-.1245,.1465-.0542,.0337-.1113,.0505-.1714,.0505-.0439,0-.0835-.0093-.1187-.0278-.0347-.0186-.0632-.042-.0857-.0703v.3787h-.1318m.1194-.6826c0,.1001 .0203,.1741 .0608,.2219 .0405,.0478 .0896,.0718 .1472,.0718 .0586,0 .1086-.0247 .1501-.074 .042-.0498 .063-.1267 .063-.2307 0-.0991-.0205-.1733-.0615-.2227-.0405-.0493-.0891-.074-.1458-.074-.0561,0-.106,.0264-.1494,.0791-.043,.0523-.0645,.1284-.0645,.2285"/>
<path d="m19.0225,80.5918 0-.1516 .1318,0 0,.1516-.1318,0m0,.9221 0-.7778 .1318,0 0,.7778-.1318,0"/>
<path d="m19.3557,81.514 0-.7778 .1187,0 0,.1106c.0571-.0854 .1396-.1282 .2476-.1282 .0469,0 .0898,.0085 .1289,.0256 .0395,.0166 .0691,.0386 .0886,.0659 .0195,.0273 .0332,.0598 .041,.0974 .0049,.0244 .0073,.0671 .0073,.1282v.4783h-.1318v-.4731c-0-.0537-.0051-.0938-.0154-.1201-.0102-.0268-.0286-.0481-.0549-.0637-.0259-.0161-.0564-.0242-.0916-.0242-.0561,0-.1047,.0178-.1458,.0535-.0405,.0357-.0608,.1033-.0608,.2029v.4248h-.1318"/>
<path d="m21.1143,81.418c-.0488,.0415-.0959,.0708-.1414,.0879-.0449,.0171-.0933,.0256-.145,.0256-.0855,0-.1511-.0208-.197-.0623-.0459-.042-.0689-.0955-.0689-.1604 0-.0381 .0085-.0727 .0256-.104 .0176-.0317 .0403-.0571 .0681-.0762 .0283-.019 .0601-.0335 .0952-.0432 .0259-.0068 .0649-.0134 .1172-.0198 .1064-.0127 .1848-.0278 .2351-.0454 .0005-.0181 .0007-.0295 .0007-.0344-0-.0537-.0125-.0915-.0373-.1135-.0337-.0298-.0837-.0447-.1501-.0447-.062,0-.1079,.011-.1377,.033-.0293,.0215-.051,.0598-.0652,.115l-.1289-.0176c.0117-.0552 .031-.0996 .0579-.1333 .0269-.0342 .0657-.0603 .1165-.0784 .0508-.0186 .1096-.0278 .1765-.0278 .0664,0 .1204,.0078 .1619,.0234 .0415,.0156 .072,.0354 .0916,.0593 .0195,.0234 .0332,.0532 .041,.0893 .0044,.0225 .0066,.063 .0066,.1216v.1758c0,.1226 .0027,.2002 .0081,.2329 .0059,.0322 .0171,.0632 .0337,.093h-.1377c-.0137-.0273-.0225-.0593-.0264-.096m-.011-.2944c-.0479,.0195-.1196,.0361-.2153,.0498-.0542,.0078-.0925,.0166-.115,.0264-.0225,.0098-.0398,.0242-.052,.0432-.0122,.0186-.0183,.0393-.0183,.0623 0,.0352 .0132,.0644 .0395,.0879 .0269,.0234 .0659,.0352 .1172,.0352 .0508,0 .0959-.011 .1355-.033 .0395-.0225 .0686-.053 .0872-.0915 .0142-.0298 .0212-.0737 .0212-.1318v-.0483"/>
<path d="m21.8049,81.2818 .1304-.0205c.0073,.0523 .0276,.0923 .0608,.1201 .0337,.0278 .0806,.0417 .1406,.0417 .0605,0 .1055-.0122 .1348-.0366 .0293-.0249 .0439-.054 .0439-.0872-0-.0298-.0129-.0532-.0388-.0703-.0181-.0117-.063-.0266-.1348-.0447-.0967-.0244-.1638-.0454-.2014-.063-.0371-.0181-.0654-.0427-.085-.074-.019-.0317-.0286-.0666-.0286-.1047 0-.0347 .0078-.0666 .0234-.096 .0161-.0298 .0378-.0544 .0652-.074 .0205-.0151 .0483-.0278 .0835-.0381 .0356-.0107 .0737-.0161 .1143-.0161 .061,0 .1145,.0088 .1604,.0264 .0464,.0176 .0806,.0415 .1025,.0718 .022,.0298 .0371,.0698 .0454,.1201l-.1289,.0176c-.0059-.04-.023-.0713-.0513-.0938-.0278-.0225-.0674-.0337-.1187-.0337-.0605,0-.1038,.01-.1296,.03-.0259,.02-.0388,.0435-.0388,.0703 0,.0171 .0054,.0325 .0161,.0461 .0107,.0142 .0276,.0259 .0505,.0352 .0132,.0049 .052,.0161 .1165,.0337 .0933,.0249 .1582,.0454 .1948,.0615 .0371,.0156 .0662,.0386 .0872,.0688 .021,.0303 .0315,.0679 .0315,.1128-0,.0439-.0129,.0854-.0388,.1245-.0254,.0386-.0623,.0686-.1106,.0901-.0483,.021-.103,.0315-.1641,.0315-.1011,0-.1782-.021-.2314-.063-.0527-.042-.0864-.1042-.1011-.1868"/>
<path d="m23.1152,81.418c-.0488,.0415-.0959,.0708-.1414,.0879-.0449,.0171-.0933,.0256-.145,.0256-.0855,0-.1511-.0208-.197-.0623-.0459-.042-.0689-.0955-.0689-.1604 0-.0381 .0085-.0727 .0256-.104 .0176-.0317 .0403-.0571 .0681-.0762 .0283-.019 .0601-.0335 .0952-.0432 .0259-.0068 .0649-.0134 .1172-.0198 .1064-.0127 .1848-.0278 .2351-.0454 .0005-.0181 .0007-.0295 .0007-.0344 0-.0537-.0125-.0915-.0373-.1135-.0337-.0298-.0837-.0447-.1501-.0447-.062,0-.1079,.011-.1377,.033-.0293,.0215-.051,.0598-.0652,.115l-.1289-.0176c.0117-.0552 .031-.0996 .0579-.1333 .0269-.0342 .0657-.0603 .1165-.0784 .0508-.0186 .1096-.0278 .1765-.0278 .0664,0 .1204,.0078 .1619,.0234 .0415,.0156 .072,.0354 .0916,.0593 .0195,.0234 .0332,.0532 .041,.0893 .0044,.0225 .0066,.063 .0066,.1216v.1758c-0,.1226 .0027,.2002 .0081,.2329 .0059,.0322 .0171,.0632 .0337,.093h-.1377c-.0137-.0273-.0225-.0593-.0264-.096m-.011-.2944c-.0479,.0195-.1196,.0361-.2153,.0498-.0542,.0078-.0925,.0166-.115,.0264-.0225,.0098-.0398,.0242-.052,.0432-.0122,.0186-.0183,.0393-.0183,.0623 0,.0352 .0132,.0644 .0395,.0879 .0269,.0234 .0659,.0352 .1172,.0352 .0508,0 .0959-.011 .1355-.033 .0395-.0225 .0686-.053 .0872-.0915 .0142-.0298 .0212-.0737 .0212-.1318v-.0483"/>
<path d="m23.4741,81.514 0-.6753-.1165,0 0-.1025 .1165,0 0-.0828c0-.0522 .0046-.0911 .0139-.1165 .0127-.0342 .0349-.0618 .0666-.0828 .0322-.0215 .0771-.0322 .1348-.0322 .0371,0 .0781,.0044 .123,.0132l-.0198,.115c-.0273-.0049-.0532-.0073-.0776-.0073-.04,0-.0684,.0085-.085,.0256-.0166,.0171-.0249,.0491-.0249,.096v.0718h.1516v.1025h-.1516v.6753h-.1311"/>
<path d="m24.3911,81.2635 .1362,.0169c-.0215,.0796-.0613,.1414-.1194,.1853-.0581,.0439-.1323,.0659-.2227,.0659-.1138,0-.2041-.0349-.271-.1047-.0664-.0703-.0996-.1687-.0996-.2952 0-.1309 .0337-.2324 .1011-.3047 .0674-.0723 .1548-.1084 .2622-.1084 .104,0 .189,.0354 .2549,.1062 .0659,.0708 .0989,.1704 .0989,.2988 0,.0078-.0002,.0195-.0007,.0352h-.5801c.0049,.0854 .0291,.1509 .0725,.1963 .0435,.0454 .0977,.0681 .1626,.0681 .0483,0 .0896-.0127 .1238-.0381 .0342-.0254 .0613-.0659 .0813-.1216m-.4329-.2131 .4343,0c-.0059-.0654-.0225-.1145-.0498-.1472-.042-.0508-.0964-.0762-.1633-.0762-.0605,0-.1116,.0203-.1531,.0608-.041,.0405-.0637,.0947-.0681,.1626"/>
<path d="m25.1096,81.812 0-1.0759 .1201,0 0,.1011c.0283-.0396 .0603-.0691 .0959-.0886 .0356-.02 .0789-.03 .1296-.03 .0664,0 .125,.0171 .1758,.0513 .0508,.0342 .0891,.0825 .115,.145 .0259,.062 .0388,.1301 .0388,.2043-0,.0796-.0144,.1514-.0432,.2153-.0283,.0635-.0698,.1123-.1245,.1465-.0542,.0337-.1113,.0505-.1714,.0505-.0439,0-.0835-.0093-.1187-.0278-.0347-.0186-.0632-.042-.0857-.0703v.3787h-.1318m.1194-.6826c0,.1001 .0203,.1741 .0608,.2219 .0405,.0478 .0896,.0718 .1472,.0718 .0586,0 .1086-.0247 .1501-.074 .042-.0498 .063-.1267 .063-.2307 0-.0991-.0205-.1733-.0615-.2227-.0405-.0493-.0891-.074-.1458-.074-.0561,0-.106,.0264-.1494,.0791-.043,.0523-.0645,.1284-.0645,.2285"/>
<path d="m25.9416,81.514 0-1.0737 .1318,0 0,1.0737-.1318,0"/>
<path d="m26.7861,81.418c-.0488,.0415-.0959,.0708-.1414,.0879-.0449,.0171-.0933,.0256-.145,.0256-.0855,0-.1511-.0208-.197-.0623-.0459-.042-.0689-.0955-.0689-.1604 0-.0381 .0085-.0727 .0256-.104 .0176-.0317 .0403-.0571 .0681-.0762 .0283-.019 .0601-.0335 .0952-.0432 .0259-.0068 .0649-.0134 .1172-.0198 .1064-.0127 .1848-.0278 .2351-.0454 .0005-.0181 .0007-.0295 .0007-.0344-0-.0537-.0125-.0915-.0373-.1135-.0337-.0298-.0837-.0447-.1501-.0447-.062,0-.1079,.011-.1377,.033-.0293,.0215-.051,.0598-.0652,.115l-.1289-.0176c.0117-.0552 .031-.0996 .0579-.1333 .0269-.0342 .0657-.0603 .1165-.0784 .0508-.0186 .1096-.0278 .1765-.0278 .0664,0 .1204,.0078 .1619,.0234 .0415,.0156 .072,.0354 .0916,.0593 .0195,.0234 .0332,.0532 .041,.0893 .0044,.0225 .0066,.063 .0066,.1216v.1758c0,.1226 .0027,.2002 .0081,.2329 .0059,.0322 .0171,.0632 .0337,.093h-.1377c-.0137-.0273-.0225-.0593-.0264-.096m-.011-.2944c-.0479,.0195-.1196,.0361-.2153,.0498-.0542,.0078-.0925,.0166-.115,.0264-.0225,.0098-.0398,.0242-.052,.0432-.0122,.0186-.0183,.0393-.0183,.0623 0,.0352 .0132,.0644 .0395,.0879 .0269,.0234 .0659,.0352 .1172,.0352 .0508,0 .0959-.011 .1355-.033 .0395-.0225 .0686-.053 .0872-.0915 .0142-.0298 .0212-.0737 .0212-.1318v-.0483"/>
<path d="m27.6211,81.229 .1296,.0169c-.0142,.0894-.0505,.1594-.1091,.2102-.0581,.0503-.1296,.0754-.2146,.0754-.1064,0-.1921-.0347-.2571-.104-.0645-.0698-.0967-.1697-.0967-.2996 0-.084 .0139-.1575 .0418-.2205 .0278-.063 .0701-.1101 .1267-.1414 .0571-.0317 .1191-.0476 .186-.0476 .0845,0 .1536,.0215 .2073,.0644 .0537,.0425 .0881,.103 .1033,.1816l-.1282,.0198c-.0122-.0522-.0339-.0915-.0652-.1179-.0308-.0264-.0681-.0396-.1121-.0396-.0664,0-.1204,.0239-.1619,.0718-.0415,.0474-.0623,.1226-.0623,.2256 0,.1045 .02,.1804 .0601,.2278 .04,.0474 .0923,.071 .1567,.071 .0518,0 .095-.0159 .1296-.0476 .0347-.0317 .0566-.0806 .0659-.1465"/>
<path d="m28.396,81.2635 .1362,.0169c-.0215,.0796-.0613,.1414-.1194,.1853-.0581,.0439-.1323,.0659-.2227,.0659-.1138,0-.2041-.0349-.271-.1047-.0664-.0703-.0996-.1687-.0996-.2952 0-.1309 .0337-.2324 .1011-.3047 .0674-.0723 .1548-.1084 .2622-.1084 .104,0 .189,.0354 .2549,.1062 .0659,.0708 .0989,.1704 .0989,.2988-0,.0078-.0002,.0195-.0007,.0352h-.5801c.0049,.0854 .0291,.1509 .0725,.1963 .0435,.0454 .0977,.0681 .1626,.0681 .0483,0 .0896-.0127 .1238-.0381 .0342-.0254 .0613-.0659 .0813-.1216m-.4329-.2131 .4343,0c-.0059-.0654-.0225-.1145-.0498-.1472-.042-.0508-.0964-.0762-.1633-.0762-.0605,0-.1116,.0203-.1531,.0608-.041,.0405-.0637,.0947-.0681,.1626"/>
<path d="m16.0774,83.389-.2358,0-.0938-.2439-.4292,0-.0886,.2439-.23,0 .4182-1.0737 .2292,0 .4299,1.0737m-.3992-.4248-.1479-.3984-.145,.3984 .293,0"/>
<path d="m16.905,83.389-.1912,0 0-.1143c-.0317,.0444-.0693,.0776-.1128,.0996-.043,.0215-.0864,.0322-.1304,.0322-.0894,0-.166-.0359-.23-.1077-.0635-.0723-.0952-.1729-.0952-.3018 0-.1318 .031-.2319 .093-.3003 .062-.0688 .1404-.1033 .2351-.1033 .0869,0 .1621,.0361 .2256,.1084v-.3867h.2058v1.0737m-.5493-.4058c0,.083 .0115,.1431 .0344,.1802 .0332,.0537 .0796,.0806 .1392,.0806 .0474,0 .0877-.02 .1208-.0601 .0332-.0405 .0498-.1008 .0498-.1809 0-.0893-.0161-.1536-.0483-.1926-.0322-.0396-.0735-.0593-.1238-.0593-.0488,0-.0898,.0195-.123,.0586-.0327,.0386-.0491,.0964-.0491,.1736"/>
<path d="m17.0933,82.6111 .1897,0 0,.1062c.0679-.0825 .1487-.1238 .2424-.1238 .0498,0 .093,.0103 .1296,.0308 .0366,.0205 .0666,.0515 .0901,.093 .0342-.0415 .071-.0725 .1106-.093 .0395-.0205 .0818-.0308 .1267-.0308 .0571,0 .1055,.0117 .145,.0352 .0395,.0229 .0691,.0569 .0886,.1018 .0142,.0332 .0212,.0869 .0212,.1611v.4973h-.2058v-.4446c-0-.0772-.0071-.127-.0212-.1494-.019-.0293-.0483-.0439-.0879-.0439-.0288,0-.0559,.0088-.0813,.0264-.0254,.0176-.0437,.0435-.0549,.0776-.0112,.0337-.0169,.0872-.0169,.1604v.3735h-.2058v-.4263c-0-.0757-.0037-.1245-.011-.1465-.0073-.022-.0188-.0383-.0344-.0491-.0151-.0107-.0359-.0161-.0623-.0161-.0317,0-.0603,.0085-.0857,.0256-.0254,.0171-.0437,.0417-.0549,.074-.0107,.0322-.0161,.0857-.0161,.1604v.3779h-.2058v-.7778"/>
<path d="m18.4416,82.5057 0-.1904 .2058,0 0,.1904-.2058,0m0,.8833 0-.7778 .2058,0 0,.7778-.2058,0"/>
<path d="m19.5652,83.389-.2058,0 0-.397c-0-.084-.0044-.1382-.0132-.1626-.0088-.0249-.0232-.0442-.0432-.0579-.0195-.0137-.0432-.0205-.071-.0205-.0356,0-.0676,.0098-.0959,.0293-.0283,.0195-.0479,.0454-.0586,.0776-.0103,.0322-.0154,.0918-.0154,.1787v.3523h-.2058v-.7778h.1912v.1143c.0679-.0879 .1533-.1318 .2563-.1318 .0454,0 .0869,.0083 .1245,.0249 .0376,.0161 .0659,.0369 .085,.0623 .0195,.0254 .033,.0542 .0403,.0864 .0078,.0322 .0117,.0784 .0117,.1384v.4834"/>
<path d="m19.7747,82.5057 0-.1904 .2058,0 0,.1904-.2058,0m0,.8833 0-.7778 .2058,0 0,.7778-.2058,0"/>
<path d="m20.1182,83.167 .2065-.0315c.0088,.04 .0266,.0706 .0535,.0915 .0268,.0205 .0645,.0308 .1128,.0308 .0532,0 .0933-.0098 .1201-.0293 .0181-.0137 .0271-.032 .0271-.0549-0-.0156-.0049-.0286-.0146-.0388-.0102-.0098-.0332-.0188-.0689-.0271-.166-.0366-.2712-.0701-.3157-.1003-.0615-.042-.0923-.1003-.0923-.175-0-.0674 .0266-.124 .0798-.1699 .0532-.0459 .1357-.0688 .2476-.0688 .1064,0 .1855,.0173 .2373,.052 .0518,.0347 .0874,.0859 .1069,.1538l-.1941,.0359c-.0083-.0303-.0242-.0535-.0476-.0696-.023-.0161-.0559-.0242-.0989-.0242-.0542,0-.093,.0076-.1165,.0227-.0156,.0107-.0234,.0247-.0234,.0417-0,.0147 .0068,.0271 .0205,.0374 .0186,.0137 .0825,.033 .1919,.0579 .1099,.0249 .1865,.0554 .23,.0915 .043,.0366 .0645,.0876 .0645,.1531-0,.0713-.0298,.1326-.0894,.1838-.0596,.0513-.1477,.0769-.2644,.0769-.106,0-.1899-.0215-.252-.0644-.0615-.043-.1018-.1013-.1209-.175"/>
<path d="m21.3823,82.6111 0,.1641-.1406,0 0,.3135c0,.0635 .0012,.1006 .0037,.1113 .0029,.0102 .009,.0188 .0183,.0256 .0098,.0068 .0215,.0102 .0352,.0102 .019,0 .0466-.0066 .0828-.0198l.0176,.1597c-.0479,.0205-.1021,.0308-.1626,.0308-.0371,0-.0706-.0061-.1003-.0183-.0298-.0127-.0518-.0288-.0659-.0483-.0137-.02-.0232-.0469-.0286-.0806-.0044-.0239-.0066-.0723-.0066-.145v-.3391h-.0945v-.1641h.0945v-.1545l.2065-.1201v.2747h.1406"/>
<path d="m21.7236,83.389-.2058,0 0-.7778 .1912,0 0,.1106c.0327-.0523 .062-.0867 .0879-.1033 .0264-.0166 .0561-.0249 .0894-.0249 .0469,0 .092,.0129 .1355,.0388l-.0637,.1794c-.0347-.0225-.0669-.0337-.0967-.0337-.0288,0-.0532,.0081-.0732,.0242-.02,.0156-.0359,.0442-.0476,.0857-.0112,.0415-.0169,.1284-.0169,.2607v.2402"/>
<path d="m22.2634,82.8484-.1868-.0337c.021-.0752 .0571-.1309 .1084-.167 .0513-.0361 .1274-.0542 .2285-.0542 .0918,0 .1602,.011 .2051,.033 .0449,.0215 .0764,.0491 .0945,.0828 .0186,.0332 .0278,.0945 .0278,.1838l-.0022,.2402c-0,.0684 .0032,.1189 .0095,.1516 .0068,.0322 .0193,.0669 .0373,.104h-.2036c-.0054-.0137-.012-.0339-.0198-.0608-.0034-.0122-.0059-.0203-.0073-.0242-.0352,.0342-.0728,.0598-.1128,.0769-.04,.0171-.0828,.0256-.1282,.0256-.0801,0-.1433-.0217-.1897-.0652-.0459-.0435-.0689-.0984-.0689-.1648 0-.0439 .0105-.083 .0315-.1172 .021-.0347 .0503-.061 .0879-.0791 .0381-.0186 .0928-.0347 .1641-.0483 .0962-.0181 .1628-.0349 .2-.0505v-.0205c0-.0396-.0098-.0676-.0293-.0842-.0195-.0171-.0564-.0256-.1106-.0256-.0366,0-.0652,.0073-.0857,.022-.0205,.0142-.0371,.0393-.0498,.0754m.2754,.167c-.0264,.0088-.0681,.0193-.1252,.0315-.0571,.0122-.0945,.0242-.1121,.0359-.0269,.019-.0403,.0432-.0403,.0725 0,.0288 .0107,.0537 .0322,.0747 .0215,.021 .0488,.0315 .082,.0315 .0371,0 .0725-.0122 .1062-.0366 .0249-.0186 .0413-.0413 .0491-.0681 .0054-.0176 .0081-.051 .0081-.1003v-.041"/>
<path d="m23.3013,82.6111 0,.1641-.1406,0 0,.3135c-0,.0635 .0012,.1006 .0037,.1113 .0029,.0102 .009,.0188 .0183,.0256 .0098,.0068 .0215,.0102 .0352,.0102 .019,0 .0466-.0066 .0828-.0198l.0176,.1597c-.0479,.0205-.1021,.0308-.1626,.0308-.0371,0-.0706-.0061-.1003-.0183-.0298-.0127-.0518-.0288-.0659-.0483-.0137-.02-.0232-.0469-.0286-.0806-.0044-.0239-.0066-.0723-.0066-.145v-.3391h-.0945v-.1641h.0945v-.1545l.2065-.1201v.2747h.1406"/>
<path d="m23.3979,82.9891c0-.0684 .0169-.1345 .0505-.1985 .0337-.064 .0813-.1128 .1428-.1465 .062-.0337 .1311-.0505 .2073-.0505 .1177,0 .2141,.0383 .2893,.115 .0752,.0762 .1128,.1726 .1128,.2893-0,.1177-.0381,.2153-.1143,.293-.0757,.0772-.1711,.1157-.2864,.1157-.0713,0-.1394-.0161-.2043-.0483-.0645-.0322-.1135-.0794-.1472-.1414-.0337-.0625-.0505-.1384-.0505-.2278m.2109,.011c-0,.0772 .0183,.1362 .0549,.1772 .0366,.041 .0818,.0615 .1355,.0615 .0537,0 .0986-.0205 .1348-.0615 .0366-.041 .0549-.1006 .0549-.1787-0-.0762-.0183-.1348-.0549-.1758-.0361-.041-.0811-.0615-.1348-.0615-.0537,0-.0989,.0205-.1355,.0615-.0366,.041-.0549,.1001-.0549,.1772"/>
<path d="m24.5596,83.389-.2058,0 0-.7778 .1912,0 0,.1106c.0327-.0523 .062-.0867 .0879-.1033 .0264-.0166 .0561-.0249 .0894-.0249 .0469,0 .092,.0129 .1355,.0388l-.0637,.1794c-.0347-.0225-.0669-.0337-.0967-.0337-.0288,0-.0532,.0081-.0732,.0242-.02,.0156-.0359,.0442-.0476,.0857-.0112,.0415-.0169,.1284-.0169,.2607v.2402"/>
<path d="m24.873,83.167 .2065-.0315c.0088,.04 .0266,.0706 .0535,.0915 .0268,.0205 .0645,.0308 .1128,.0308 .0532,0 .0933-.0098 .1201-.0293 .0181-.0137 .0271-.032 .0271-.0549 0-.0156-.0049-.0286-.0146-.0388-.0102-.0098-.0332-.0188-.0689-.0271-.166-.0366-.2712-.0701-.3157-.1003-.0615-.042-.0923-.1003-.0923-.175 0-.0674 .0266-.124 .0798-.1699 .0532-.0459 .1357-.0688 .2476-.0688 .1064,0 .1855,.0173 .2373,.052 .0518,.0347 .0874,.0859 .1069,.1538l-.1941,.0359c-.0083-.0303-.0242-.0535-.0476-.0696-.023-.0161-.0559-.0242-.0989-.0242-.0542,0-.093,.0076-.1165,.0227-.0156,.0107-.0234,.0247-.0234,.0417 0,.0147 .0068,.0271 .0205,.0374 .0186,.0137 .0825,.033 .1919,.0579 .1099,.0249 .1865,.0554 .23,.0915 .043,.0366 .0645,.0876 .0645,.1531 0,.0713-.0298,.1326-.0894,.1838-.0596,.0513-.1477,.0769-.2644,.0769-.106,0-.1899-.0215-.252-.0644-.0615-.043-.1018-.1013-.1208-.175"/>
<path d="m26.1489,82.9891c0-.0684 .0169-.1345 .0505-.1985 .0337-.064 .0813-.1128 .1428-.1465 .062-.0337 .1311-.0505 .2073-.0505 .1177,0 .2141,.0383 .2893,.115 .0752,.0762 .1128,.1726 .1128,.2893-0,.1177-.0381,.2153-.1143,.293-.0757,.0772-.1711,.1157-.2864,.1157-.0713,0-.1394-.0161-.2043-.0483-.0645-.0322-.1135-.0794-.1472-.1414-.0337-.0625-.0505-.1384-.0505-.2278m.2109,.011c0,.0772 .0183,.1362 .0549,.1772 .0366,.041 .0818,.0615 .1355,.0615 .0537,0 .0986-.0205 .1348-.0615 .0366-.041 .0549-.1006 .0549-.1787 0-.0762-.0183-.1348-.0549-.1758-.0361-.041-.0811-.0615-.1348-.0615-.0537,0-.0989,.0205-.1355,.0615-.0366,.041-.0549,.1001-.0549,.1772"/>
<path d="m27.821,83.389-.2058,0 0-.397c0-.084-.0044-.1382-.0132-.1626-.0088-.0249-.0232-.0442-.0432-.0579-.0195-.0137-.0432-.0205-.071-.0205-.0356,0-.0676,.0098-.0959,.0293-.0283,.0195-.0479,.0454-.0586,.0776-.0102,.0322-.0154,.0918-.0154,.1787v.3523h-.2058v-.7778h.1912v.1143c.0679-.0879 .1533-.1318 .2563-.1318 .0454,0 .0869,.0083 .1245,.0249 .0376,.0161 .0659,.0369 .085,.0623 .0195,.0254 .033,.0542 .0403,.0864 .0078,.0322 .0117,.0784 .0117,.1384v.4834"/>
<path d="m28.0305,83.389 0-1.0737 .2058,0 0,1.0737-.2058,0"/>
<path d="m28.3491,82.6111 .219,0 .186,.5522 .1816-.5522 .2131,0-.2747,.7485-.0491,.1355c-.0181,.0454-.0354,.0801-.052,.104-.0161,.0239-.0349,.0432-.0564,.0579-.021,.0151-.0471,.0268-.0784,.0352-.0308,.0083-.0657,.0125-.1047,.0125-.0395,0-.0784-.0042-.1165-.0125l-.0183-.1611c.0322,.0063 .0613,.0095 .0872,.0095 .0479,0 .0832-.0142 .1062-.0425 .023-.0278 .0405-.0635 .0527-.1069l-.2959-.78"/>
</g>
<g>
<path d="m15.052,78.1587 .3157-.0198c.0068,.0513 .0207,.0903 .0418,.1172 .0342,.0435 .083,.0652 .1465,.0652 .0474,0 .0837-.011 .1091-.033 .0259-.0225 .0388-.0483 .0388-.0776 0-.0278-.0122-.0527-.0366-.0747-.0244-.022-.0811-.0427-.1699-.0623-.1455-.0327-.2493-.0762-.3113-.1304-.0625-.0542-.0938-.1233-.0938-.2073 0-.0552 .0159-.1072 .0476-.156 .0322-.0493 .0803-.0879 .1443-.1157 .0645-.0283 .1526-.0425 .2644-.0425 .1372,0 .2417,.0256 .3135,.0769 .0723,.0508 .1152,.1318 .1289,.2432l-.3127,.0183c-.0083-.0483-.0259-.0835-.0527-.1055-.0264-.022-.063-.033-.1099-.033-.0386,0-.0676,.0083-.0872,.0249-.0195,.0161-.0293,.0359-.0293,.0593 0,.0171 .0081,.0325 .0242,.0461 .0156,.0142 .0527,.0273 .1113,.0396 .145,.0312 .2488,.063 .3113,.0952 .063,.0317 .1086,.0713 .137,.1187 .0288,.0474 .0432,.1003 .0432,.1589-0,.0688-.019,.1323-.0571,.1904-.0381,.0581-.0913,.1023-.1597,.1326-.0684,.0298-.1545,.0447-.2585,.0447-.1826,0-.3091-.0352-.3794-.1055-.0703-.0703-.1101-.1597-.1194-.2681"/>
<path d="m16.1375,78.1272c0-.1187 .04-.2163 .1201-.293 .0801-.0772 .1882-.1157 .3245-.1157 .1558,0 .2734,.0452 .353,.1355 .064,.0727 .0959,.1624 .0959,.2688-0,.1196-.0398,.2178-.1194,.2944-.0791,.0762-.1887,.1143-.3289,.1143-.125,0-.2261-.0317-.3032-.0952-.0947-.0786-.1421-.1816-.1421-.3091m.2988-.0007c0,.0693 .0139,.1206 .0418,.1538 .0283,.0332 .0637,.0498 .1062,.0498 .043,0 .0781-.0164 .1055-.0491 .0278-.0327 .0418-.0852 .0418-.1575 0-.0674-.0139-.1174-.0418-.1501-.0278-.0332-.0623-.0498-.1033-.0498-.0435,0-.0794,.0169-.1077,.0505-.0283,.0332-.0425,.084-.0425,.1523"/>
<path d="m17.5078,77.7361 .1421,0 0,.2183-.1421,0 0,.5596-.2988,0 0-.5596-.1113,0 0-.2183 .1113,0 0-.0352c0-.0317 .0034-.0666 .0102-.1047 .0068-.0381 .0195-.0691 .0381-.093 .019-.0244 .0454-.0439 .0791-.0586 .0342-.0151 .084-.0227 .1494-.0227 .0522,0 .1282,.0061 .2278,.0183l-.033,.1802c-.0356-.0059-.0645-.0088-.0864-.0088-.0269,0-.0461,.0046-.0579,.0139-.0117,.0088-.02,.0229-.0249,.0425-.0024,.0107-.0037,.0335-.0037,.0681"/>
<path d="m18.1187,77.4402 0,.2959 .1641,0 0,.2175-.1641,0 0,.2761c0,.0332 .0032,.0552 .0095,.0659 .0098,.0166 .0268,.0249 .0513,.0249 .022,0 .0527-.0063 .0923-.019l.022,.2058c-.0737,.0161-.1426,.0242-.2065,.0242-.0742,0-.1289-.0095-.1641-.0286-.0352-.019-.0613-.0478-.0784-.0864-.0166-.0391-.0249-.1021-.0249-.189v-.2739h-.1099v-.2175h.1099v-.1428l.2988-.1531"/>
<path d="m18.3362,77.7361 .2886,0 .1252,.49 .1582-.49 .2688,0 .1641,.49 .1252-.49 .2864,0-.2864,.7778-.2651,0-.1575-.468-.1523,.468-.2666,0-.2886-.7778"/>
<path d="m20.0933,77.9881-.2849-.03c.0107-.0498 .0261-.0889 .0461-.1172 .0205-.0288 .0498-.0537 .0879-.0747 .0273-.0151 .0649-.0268 .1128-.0352 .0479-.0083 .0996-.0125 .1553-.0125 .0894,0 .1611,.0051 .2153,.0154 .0542,.0098 .0994,.0305 .1355,.0623 .0254,.022 .0454,.0532 .0601,.0938 .0146,.04 .022,.0784 .022,.115v.3435c-0,.0366 .0022,.0654 .0066,.0864 .0049,.0205 .0151,.0469 .0308,.0791h-.2798c-.0112-.02-.0186-.0352-.022-.0454-.0034-.0107-.0068-.0273-.0102-.0498-.0391,.0376-.0779,.0644-.1165,.0806-.0527,.0215-.114,.0322-.1838,.0322-.0928,0-.1633-.0215-.2117-.0644-.0479-.043-.0718-.096-.0718-.1589 0-.0591 .0173-.1077 .052-.1458 .0347-.0381 .0986-.0664 .1919-.085 .1118-.0225 .1843-.0381 .2175-.0469 .0332-.0093 .0684-.0212 .1055-.0359-0-.0366-.0076-.0623-.0227-.0769-.0151-.0147-.0418-.022-.0798-.022-.0488,0-.0855,.0078-.1099,.0234-.019,.0122-.0344,.0352-.0461,.0688m.2585,.1567c-.041,.0147-.0837,.0276-.1282,.0388-.0605,.0161-.0989,.032-.115,.0476-.0166,.0161-.0249,.0344-.0249,.0549 0,.0234 .0081,.0427 .0242,.0579 .0166,.0147 .0408,.022 .0725,.022 .0332,0 .064-.0081 .0923-.0242 .0288-.0161 .0491-.0356 .0608-.0586 .0122-.0234 .0183-.0537 .0183-.0908v-.0476"/>
<path d="m20.8264,77.7361 .2791,0 0,.1274c.0269-.0552 .0544-.093 .0828-.1135 .0288-.021 .0642-.0315 .1062-.0315 .0439,0 .092,.0137 .1443,.041l-.0923,.2124c-.0352-.0147-.063-.022-.0835-.022-.0391,0-.0693,.0161-.0908,.0483-.0308,.0454-.0461,.1304-.0461,.2549v.2607h-.2996v-.7778"/>
<path d="m22.3755,78.199-.5977,0c.0054,.0478 .0183,.0835 .0388,.1069 .0288,.0337 .0664,.0505 .1128,.0505 .0293,0 .0571-.0073 .0835-.022 .0161-.0093 .0334-.0256 .052-.0491l.2937,.0271c-.0449,.0781-.0991,.1343-.1626,.1685-.0635,.0337-.1545,.0505-.2732,.0505-.103,0-.1841-.0144-.2432-.0432-.0591-.0293-.1082-.0754-.1472-.1384-.0386-.0635-.0579-.1379-.0579-.2234 0-.1216 .0388-.22 .1165-.2952 .0781-.0752 .1858-.1128 .323-.1128 .1113,0 .1992,.0169 .2637,.0505 .0645,.0337 .1135,.0825 .1472,.1465 .0337,.064 .0505,.1472 .0505,.2498v.0337m-.3032-.1428c-.0059-.0576-.0215-.0989-.0469-.1238-.0249-.0249-.0579-.0374-.0989-.0374-.0474,0-.0852,.0188-.1135,.0564-.0181,.0234-.0295,.0584-.0344,.1047h.2937"/>
<path d="m23.0171,77.7361 .2783,0 0,.1135c.04-.0474 .0803-.0811 .1209-.1011 .041-.02 .0903-.03 .1479-.03 .062,0 .1111,.011 .1472,.033 .0361,.022 .0657,.0547 .0886,.0982 .0469-.0508 .0896-.0852 .1282-.1033 .0386-.0186 .0862-.0278 .1428-.0278 .0835,0 .1487,.0249 .1956,.0747 .0469,.0493 .0703,.1267 .0703,.2322v.4885h-.2988v-.4431c-0-.0352-.0068-.0613-.0205-.0784-.02-.0268-.0449-.0403-.0747-.0403-.0352,0-.0635,.0127-.085,.0381-.0215,.0254-.0322,.0662-.0322,.1223v.4014h-.2988v-.4285c0-.0342-.002-.0574-.0059-.0696-.0063-.0195-.0173-.0352-.033-.0469-.0156-.0122-.0339-.0183-.0549-.0183-.0342,0-.0623,.0129-.0842,.0388-.022,.0259-.033,.0684-.033,.1274v.397h-.2988v-.7778"/>
<path d="m24.7866,77.9881-.2849-.03c.0107-.0498 .0261-.0889 .0461-.1172 .0205-.0288 .0498-.0537 .0879-.0747 .0273-.0151 .0649-.0268 .1128-.0352 .0479-.0083 .0996-.0125 .1553-.0125 .0893,0 .1611,.0051 .2153,.0154 .0542,.0098 .0994,.0305 .1355,.0623 .0254,.022 .0454,.0532 .0601,.0938 .0146,.04 .022,.0784 .022,.115v.3435c-0,.0366 .0022,.0654 .0066,.0864 .0049,.0205 .0151,.0469 .0308,.0791h-.2798c-.0112-.02-.0186-.0352-.022-.0454-.0034-.0107-.0068-.0273-.0102-.0498-.0391,.0376-.0779,.0644-.1165,.0806-.0527,.0215-.114,.0322-.1838,.0322-.0928,0-.1633-.0215-.2117-.0644-.0479-.043-.0718-.096-.0718-.1589 0-.0591 .0173-.1077 .052-.1458 .0347-.0381 .0986-.0664 .1919-.085 .1118-.0225 .1843-.0381 .2175-.0469 .0332-.0093 .0684-.0212 .1055-.0359-0-.0366-.0076-.0623-.0227-.0769-.0151-.0147-.0418-.022-.0798-.022-.0488,0-.0855,.0078-.1099,.0234-.019,.0122-.0344,.0352-.0461,.0688m.2585,.1567c-.041,.0147-.0837,.0276-.1282,.0388-.0605,.0161-.0989,.032-.115,.0476-.0166,.0161-.0249,.0344-.0249,.0549-0,.0234 .0081,.0427 .0242,.0579 .0166,.0147 .0408,.022 .0725,.022 .0332,0 .064-.0081 .0923-.0242 .0288-.0161 .0491-.0356 .0608-.0586 .0122-.0234 .0183-.0537 .0183-.0908v-.0476"/>
<path d="m25.5168,77.7361 .2776,0 0,.1267c.0415-.0518 .0835-.0886 .126-.1106 .0425-.0225 .0942-.0337 .1553-.0337 .0825,0 .147,.0247 .1934,.074 .0469,.0488 .0703,.1245 .0703,.2271v.4944h-.2996v-.4277c-0-.0488-.009-.0833-.0271-.1033-.0181-.0205-.0435-.0308-.0762-.0308-.0361,0-.0654,.0137-.0879,.041-.0225,.0273-.0337,.0764-.0337,.1472v.3735h-.2981v-.7778"/>
<path d="m26.7905,77.9881-.2849-.03c.0107-.0498 .0261-.0889 .0461-.1172 .0205-.0288 .0498-.0537 .0879-.0747 .0273-.0151 .0649-.0268 .1128-.0352 .0479-.0083 .0996-.0125 .1553-.0125 .0894,0 .1611,.0051 .2153,.0154 .0542,.0098 .0994,.0305 .1355,.0623 .0254,.022 .0454,.0532 .0601,.0938 .0146,.04 .022,.0784 .022,.115v.3435c-0,.0366 .0022,.0654 .0066,.0864 .0049,.0205 .0151,.0469 .0308,.0791h-.2798c-.0112-.02-.0186-.0352-.022-.0454-.0034-.0107-.0068-.0273-.0102-.0498-.0391,.0376-.0779,.0644-.1165,.0806-.0527,.0215-.114,.0322-.1838,.0322-.0928,0-.1633-.0215-.2117-.0644-.0479-.043-.0718-.096-.0718-.1589 0-.0591 .0173-.1077 .052-.1458 .0347-.0381 .0986-.0664 .1919-.085 .1118-.0225 .1843-.0381 .2175-.0469 .0332-.0093 .0684-.0212 .1055-.0359 0-.0366-.0076-.0623-.0227-.0769-.0151-.0147-.0418-.022-.0798-.022-.0488,0-.0855,.0078-.1099,.0234-.019,.0122-.0344,.0352-.0461,.0688m.2585,.1567c-.041,.0147-.0837,.0276-.1282,.0388-.0605,.0161-.0989,.032-.115,.0476-.0166,.0161-.0249,.0344-.0249,.0549 0,.0234 .0081,.0427 .0242,.0579 .0166,.0147 .0408,.022 .0725,.022 .0332,0 .064-.0081 .0923-.0242 .0288-.0161 .0491-.0356 .0608-.0586 .0122-.0234 .0183-.0537 .0183-.0908v-.0476"/>
<path d="m28.0854,77.7361 .2791,0 0,.7346 .0007,.0344c-0,.0488-.0105,.0952-.0315,.1392-.0205,.0444-.0481,.0803-.0828,.1077-.0342,.0273-.0779,.0471-.1311,.0593-.0527,.0122-.1133,.0183-.1816,.0183-.1562,0-.2637-.0234-.3223-.0703-.0581-.0469-.0872-.1096-.0872-.1882 0-.0098 .0005-.0229 .0015-.0396l.2893,.033c.0073,.0269 .0186,.0454 .0337,.0557 .022,.0151 .0496,.0227 .0828,.0227 .043,0 .075-.0115 .0959-.0344 .0215-.0229 .0322-.063 .0322-.1201v-.1179c-.0293,.0347-.0586,.0598-.0879,.0754-.0459,.0244-.0955,.0366-.1487,.0366-.104,0-.188-.0454-.252-.1362-.0454-.0644-.0681-.1497-.0681-.2556 0-.1211 .0293-.2134 .0879-.2769 .0586-.0635 .1353-.0952 .23-.0952 .0605,0 .1104,.0103 .1494,.0308 .0395,.0205 .0764,.0544 .1106,.1018v-.115m-.2805,.3772c-0,.0562 .012,.0979 .0359,.1252 .0239,.0268 .0554,.0403 .0945,.0403 .0371,0 .0681-.0139 .093-.0417 .0254-.0283 .0381-.0708 .0381-.1274 0-.0566-.0132-.0999-.0395-.1296-.0264-.0303-.0586-.0454-.0967-.0454-.0381,0-.0686,.0139-.0916,.0417-.0225,.0273-.0337,.073-.0337,.137"/>
<path d="m29.4097,78.199-.5977,0c.0054,.0478 .0183,.0835 .0388,.1069 .0288,.0337 .0664,.0505 .1128,.0505 .0293,0 .0571-.0073 .0835-.022 .0161-.0093 .0334-.0256 .052-.0491l.2937,.0271c-.0449,.0781-.0991,.1343-.1626,.1685-.0635,.0337-.1545,.0505-.2732,.0505-.103,0-.1841-.0144-.2432-.0432-.0591-.0293-.1082-.0754-.1472-.1384-.0386-.0635-.0579-.1379-.0579-.2234 0-.1216 .0388-.22 .1165-.2952 .0781-.0752 .1858-.1128 .323-.1128 .1113,0 .1992,.0169 .2637,.0505 .0645,.0337 .1135,.0825 .1472,.1465 .0337,.064 .0505,.1472 .0505,.2498v.0337m-.3032-.1428c-.0059-.0576-.0215-.0989-.0469-.1238-.0249-.0249-.0579-.0374-.0989-.0374-.0474,0-.0852,.0188-.1135,.0564-.0181,.0234-.0295,.0584-.0344,.1047h.2937"/>
<path d="m29.551,77.7361 .2791,0 0,.1274c.0269-.0552 .0544-.093 .0828-.1135 .0288-.021 .0642-.0315 .1062-.0315 .0439,0 .092,.0137 .1443,.041l-.0923,.2124c-.0352-.0147-.063-.022-.0835-.022-.0391,0-.0693,.0161-.0908,.0483-.0308,.0454-.0461,.1304-.0461,.2549v.2607h-.2996v-.7778"/>
</g>
</g>
<path opacity=".05" d="m68,116c-11.0601,0-20,8.9399-20,20 0,11.0601 8.9399,20 20,20 11.0601,0 20-8.9399 20-20 0-11.0601-8.9399-20-20-20z" transform="translate(0 -61)"/>
<path opacity=".15" d="m68,117c-10.5155,0-19,8.4845-19,19 0,10.5155 8.4845,19 19,19 10.5155,0 19-8.4845 19-19 0-10.5155-8.4845-19-19-19z" transform="translate(0 -61)"/>
<path opacity=".31" d="m68,118a18,18 0 0,1 18,18 18,18 0 0,1 -18,18 18,18 0 0,1 -18-18 18,18 0 0,1 18-18" clip-path="url(#clipPath3871-9)" transform="translate(0 -61)"/>
<path fill="url(#linearGradient4090)" d="m68,56c-9.9411,0-18,8.0589-18,18 0,9.9411 8.0589,18 18,18 9.7305,0 17.6372-7.7253 17.9688-17.375v-1.25c-.3315-9.6497-8.2382-17.375-17.9688-17.375z"/>
<path opacity=".15" fill="url(#linearGradient4051)" d="m112,66.875c-1.9962-.0193-3.8799,.4439-5.5312,1.3125a.8779,.8779 0 0,0 .4375,1.6562c6.3376-.2855 9.9301,3.7409 10.5938,7.875l-2.875-.0312a.8779,.8779 0 0,0 -.7188,1.375l6.1562,8.8125a.8779,.8779 0 0,0 1.4375,0l6-8.7188a.8779,.8779 0 0,0 -.7188-1.375l-3-.0312c-.6325-6.0041-5.6459-10.8157-11.7812-10.875z" transform="matrix(-.70711 -.70711 .70711 -.70711 91.24985 209.59675)"/>
<path fill="url(#linearGradient4087)" d="m70.4688,56.1875-4.9062,35.625c.7987,.1084 1.6091,.1875 2.4375,.1875 9.9411,0 18-8.0589 18-18 0-9.1021-6.7604-16.6072-15.5312-17.8125z"/>
<path opacity=".3" fill="url(#linearGradient4051)" d="m126.7748,78.6688-5.9921,8.7215-6.1617-8.8389 3.9648,.0383c-.251-4.9057-4.4683-9.9388-11.6978-9.6131 1.5223-.8007 3.267-1.2515 5.1202-1.2336 5.9493,.0575 10.8328,4.956 11.0325,10.8897l3.7341,.0361z" clip-path="url(#clipPath4029)" transform="matrix(-.70711 -.70711 .70711 -.70711 91.24985 209.59675)"/>
<path fill="url(#linearGradient4029)" d="m56.5266,65.0333 10.4041-1.93-1.893,10.607-2.7764-2.8306c-3.2913,3.6463-3.8682,10.1873 1.474,15.0691-1.6426-.5102-3.195-1.4252-4.4928-2.7483-4.1662-4.2474-4.1555-11.1644-.101-15.5014l-2.6149-2.6659z"/>
<path opacity=".15" fill="url(#linearGradient4051)" d="m112,66.8125c-2.0044-.0194-3.9038,.4713-5.5625,1.3438a.9281,.9281 0 0,0 .4688,1.75c6.2657-.2822 9.799,3.6743 10.5,7.75l-2.7812-.0312a.9281,.9281 0 0,0 -.75,1.4688l6.1562,8.8125a.9281,.9281 0 0,0 1.5,0l6-8.7188a.9281,.9281 0 0,0 -.75-1.4688l-2.9375-.0312c-.6633-6-5.7036-10.8157-11.8438-10.875z" transform="matrix(.70711 .70711 -.70711 .70711 44.62388 -60.64308)"/>
<path opacity=".3" fill="url(#linearGradient4051)" d="m126.7748,78.6688-5.9921,8.7215-6.1617-8.8389 3.9648,.0383c-.251-4.9057-4.4683-9.9388-11.6978-9.6131 1.5223-.8007 3.267-1.2515 5.1202-1.2336 5.9493,.0575 10.8328,4.956 11.0325,10.8897l3.7341,.0361z" clip-path="url(#clipPath4029)" transform="matrix(.70711 .70711 -.70711 .70711 44.62388 -60.64308)"/>
<path fill="url(#linearGradient4042)" d="m79.3471,83.9204-10.4041,1.93 1.893-10.607 2.7764,2.8306c3.2913-3.6463 3.8682-10.1873-1.474-15.0691 1.6426,.5102 3.195,1.4252 4.4928,2.7483 4.1662,4.2474 4.1555,11.1644 .101,15.5014l2.6149,2.6659z"/>
<path opacity=".3" fill="url(#linearGradient3857)" d="m68,56c-9.9411,0-18,8.0589-18,18 0,3.6617 1.0907,7.064 2.9688,9.9062-1.2466-2.3645-1.9688-5.0475-1.9688-7.9062 0-9.3888 7.6112-17 17-17 9.3888,0 17,7.6112 17,17 0,2.8588-.7221,5.5418-1.9688,7.9062 1.8781-2.8423 2.9688-6.2446 2.9688-9.9062 0-9.9411-8.0589-18-18-18z"/>
<path opacity=".3" fill="#fff" d="m68,56c-9.9411,0-18,8.0589-18,18 0,.1686 .0266,.3325 .0312,.5 .267-9.708 8.1962-17.5 17.9688-17.5 9.7305,0 17.6372,7.7253 17.9688,17.375v-1c-.3315-9.6497-8.2382-17.375-17.9688-17.375z"/>
</svg>
