<svg xmlns="http://www.w3.org/2000/svg" viewBox="0 0 96 96" xmlns:xlink="http://www.w3.org/1999/xlink">
<defs>
<clipPath id="ClipBallRelief">
<path opacity=".5" fill-rule="evenodd" d="m0,0 0,512 512,0 0-512-512,0zm258.75,58.4375c18.8494-.1693 38.1688,3.3445 49.0312,7.6875 19.1821,7.6693 48.4708,16.6938 28.4062,46.0625-20.1805,29.5383-30.7168,88.1616-13.4688,120.5312 17.3284,32.5205 23.7731,38.4969 48.2188,50.3125 24.4457,11.8156 55.193,11.7215 78.125,8.8438 22.9744-2.8831 11.4174,34.9251 4.5625,51.0938-17.4616,44.4941-60.121,77.0695-101.8125,94.9688-42.0011,18.0322-154.2504,19.916-183.8125,5.125-29.8555-14.9378-51.8868-26.5934-72.7188-47.6562-20.8371-21.0681-31.8231-43.9426-38.4688-69.2188-6.7357-25.6187 21.5731-10.0057 54.6562-4.4062 33.0832,5.5994 69.6217-20.349 84.3125-37.375 14.6908-17.026 36.1993-68.1188 37.5-100 1.3007-31.8812 2.5145-54.6689-9.5938-71.5625-12.1083-16.8936-26.2832-32.3918-3.8125-45.9688 9.831-5.9399 24.2144-8.3058 38.875-8.4375z"/>
</clipPath>
<clipPath id="clipPath2973">
<path fill="url(#linearGradient2977)" d="m12,6h72a6,6 0 0,1 6,6v72a6,6 0 0,1 -6,6h-72a6,6 0 0,1 -6-6v-72a6,6 0 0,1 6-6"/>
</clipPath>
<clipPath id="ClipRightRelief">
<path opacity=".2" fill-rule="evenodd" d="m386,90.5c0,0-28,28.5-34.5,50-5.0228,16.6139-9,51.5 13,79.5 19.4516,24.7565 56.5,45 87.5,34 31.8897-11.3157 42.0774-41.7178 45-66.5 2.9163-24.729 3.5-28 3.5-28l11.5,6 21.5,101-71.5,46-123.5-56.5-12.5-128.5 33.5-59 111,1.5 .5,13.5-85,7z"/>
</clipPath>
<clipPath id="ClipLeftRelief">
<path opacity=".2" fill-rule="evenodd" stroke="#000" d="m20.5,232.75c0,0 45.2766,54.9984 82.75,52.75 37.5-2.25 61.75-7.5 85.75-45 24-37.5 12.5-88.5 6.5-105.5-5.8433-16.5561-28-46-60-58.5-32-12.5-32-12.5-32-12.5l23.5-5.5 87,26 17.5,113-63,155.5-139.5-17.5-17-97 8.5-5.75z"/>
</clipPath>
<clipPath id="clipPath3613">
<path fill="#fff" d="m12,6h72a6,6 0 0,1 6,6v72a6,6 0 0,1 -6,6h-72a6,6 0 0,1 -6-6v-72a6,6 0 0,1 6-6"/>
</clipPath>
<clipPath id="ClipBallReflect">
<path d="m255.0312,37.8438c-78.6553,2.0815-157.9305,40.9885-202.5948,106.654-30.4768,45.9175-35.5767,103.9719-29.1065,157.4051 14.1138,84.8854 85.3917,154.2446 168.8275,171.7278 60.2763,13.3269 124.9893,6.9968 181.7882-16.9767 53.4704-24.3764 93.5942-75.067 104.6333-132.8598 13.3181-56.3772 15.4132-119.5108-15.6031-170.7694-41.3862-73.2552-124.786-116.1434-207.9446-115.1811z"/>
</clipPath>
<filter width="1.384" x="-.192" y="-.192" height="1.384" color-interpolation-filters="sRGB" id="filter3794">
<feGaussianBlur stdDeviation="5.28"/>
</filter>
<linearGradient id="WhiteGradient">
<stop offset="0" stop-color="#fff"/>
<stop offset=".674" stop-color="#fff"/>
<stop offset="1" stop-color="#989898"/>
</linearGradient>
<linearGradient gradientTransform="matrix(1.02381 0 0 1.0119 -1.14286 -98.07143)" id="linearGradient3780" xlink:href="#ButtonShadow-0" y1="6.132" y2="90.239" x2="0" gradientUnits="userSpaceOnUse"/>
<linearGradient gradientTransform="translate(0 -97)" id="linearGradient3721" xlink:href="#ButtonShadow-0" y1="6.132" y2="90.239" x2="0" gradientUnits="userSpaceOnUse"/>
<linearGradient gradientTransform="matrix(1.00587 0 0 .99417 100 0)" id="ButtonShadow-0" y1="92.54" y2="7.017" x2="0" gradientUnits="userSpaceOnUse">
<stop offset="0"/>
<stop offset="1" stop-opacity=".588"/>
</linearGradient>
<linearGradient id="linearGradient3737">
<stop offset="0" stop-color="#fff"/>
<stop offset="1" stop-color="#fff" stop-opacity="0"/>
</linearGradient>
<linearGradient id="linearGradient3188" xlink:href="#linearGradient3737" y1="6" y2="63.893" x2="0" gradientUnits="userSpaceOnUse"/>
<linearGradient id="linearGradient3613" xlink:href="#linearGradient3737" y1="20.221" y2="138.661" x2="0" gradientUnits="userSpaceOnUse"/>
<linearGradient id="linearGradient3708" xlink:href="#ButtonColor" y1="90" y2="5.988" x2="0" gradientUnits="userSpaceOnUse"/>
<linearGradient id="linearGradient3700-4">
<stop offset="0" stop-color="#70a83e"/>
<stop offset="1" stop-color="#9fd058"/>
</linearGradient>
<linearGradient gradientTransform="matrix(1.01724 0 0 1.01724 -1.10345 -1.10345)" id="ButtonColor" y1="122" y2="5.425" x2="0" gradientUnits="userSpaceOnUse">
<stop offset="0" stop-color="#722284"/>
<stop offset="1" stop-color="#c06fd5"/>
</linearGradient>
<linearGradient id="linearGradient2977" xlink:href="#linearGradient3700-4" y1="90" y2="5.988" x2="0" gradientUnits="userSpaceOnUse"/>
<radialGradient cx="48" cy="90.172" gradientTransform="matrix(1.15731 0 0 .99591 -7.55102 .19713)" r="42" id="radialGradient3619" xlink:href="#linearGradient3737" gradientUnits="userSpaceOnUse"/>
<radialGradient cx="112.067" cy="178.673" gradientTransform="matrix(.8322 .3616 -.50719 1.16726 114.88409 -60.50035)" r="102.059" id="LeftWhite" xlink:href="#WhiteGradient" gradientUnits="userSpaceOnUse"/>
<radialGradient cx="418.692" cy="181.852" gradientTransform="matrix(.94551 -.40399 .5143 1.20368 -69.78199 131.20609)" r="81.905" id="RightWhite" xlink:href="#WhiteGradient" gradientUnits="userSpaceOnUse"/>
<radialGradient cx="254.64" cy="253.883" gradientTransform="matrix(1.06076 -.06751 .06227 .97841 -31.5897 22.76525)" r="233.469" id="RadialGray" gradientUnits="userSpaceOnUse">
<stop offset="0" stop-color="#434343"/>
<stop offset=".629" stop-color="#434343"/>
<stop offset="1" stop-color="#252525"/>
</radialGradient>
</defs>
<path opacity=".08" fill="url(#linearGradient3780)" d="m12-95.0312c-5.5111,0-10.0312,4.5202-10.0312,10.0312v71c0,5.5111 4.5202,10.0312 10.0312,10.0312h72c5.5111,0 10.0312-4.5202 10.0312-10.0312v-71c0-5.5111-4.5202-10.0312-10.0312-10.0312h-72z" transform="scale(1 -1)"/>
<path opacity=".1" fill="url(#linearGradient3780)" d="m12-94.0312c-4.9716,0-9.0312,4.0596-9.0312,9.0312v71c0,4.9716 4.0596,9.0312 9.0312,9.0312h72c4.9716,0 9.0312-4.0596 9.0312-9.0312v-71c0-4.9716-4.0596-9.0312-9.0312-9.0312h-72z" transform="scale(1 -1)"/>
<path opacity=".2" fill="url(#linearGradient3780)" d="m12-93c-4.4091,0-8,3.5909-8,8v71c0,4.4091 3.5909,8 8,8h72c4.4091,0 8-3.5909 8-8v-71c0-4.4091-3.5909-8-8-8h-72z" transform="scale(1 -1)"/>
<path opacity=".3" fill="url(#linearGradient3780)" d="m12-92h72a7,7 0 0,1 7,7v71a7,7 0 0,1 -7,7h-72a7,7 0 0,1 -7-7v-71a7,7 0 0,1 7-7" transform="scale(1 -1)"/>
<path opacity=".45" fill="url(#linearGradient3721)" d="m12-91h72a6,6 0 0,1 6,6v72a6,6 0 0,1 -6,6h-72a6,6 0 0,1 -6-6v-72a6,6 0 0,1 6-6" transform="scale(1 -1)"/>
<path fill="url(#linearGradient3708)" d="m12,6h72a6,6 0 0,1 6,6v72a6,6 0 0,1 -6,6h-72a6,6 0 0,1 -6-6v-72a6,6 0 0,1 6-6"/>
<path opacity=".4" fill="url(#linearGradient3188)" d="m12,6c-3.324,0-6,2.676-6,6v2 68 2c0,.3347 .0413,.6507 .0938,.9688 .0487,.2956 .097,.5969 .1875,.875 .0099,.0304 .0209,.0636 .0312,.0938 .0989,.2878 .2349,.5475 .375,.8125 .1446,.2735 .3156,.5356 .5,.7812 .1844,.2456 .3738,.4735 .5938,.6875 .4399,.4281 .9429,.8145 1.5,1.0938 .2785,.1396 .5735,.2469 .875,.3438-.2562-.1002-.4867-.2363-.7188-.375-.0074-.0044-.0239,.0045-.0312,0-.0319-.0193-.0623-.0425-.0938-.0625-.1204-.0767-.231-.1635-.3438-.25-.1062-.0808-.2133-.1611-.3125-.25-.1779-.1614-.3475-.3454-.5-.5312-.1076-.1303-.2184-.2653-.3125-.4062-.0251-.0384-.0384-.0859-.0625-.125-.0648-.103-.1302-.2045-.1875-.3125-.101-.1947-.2057-.4157-.2812-.625-.008-.0218-.0236-.0405-.0312-.0625-.0318-.0919-.0358-.1868-.0625-.2812-.0303-.1066-.0704-.203-.0938-.3125-.0729-.3415-.125-.6982-.125-1.0625v-2-68-2c0-2.7818 2.2182-5 5-5h2 68 2c2.7818,0 5,2.2182 5,5v2 68 2c0,.3643-.0521,.721-.125,1.0625-.0442,.2069-.0884,.3977-.1562,.5938-.0077,.022-.0233,.0407-.0312,.0625-.0627,.1737-.1384,.3674-.2188,.5312-.0416,.0828-.079,.17-.125,.25-.0546,.0972-.1268,.1883-.1875,.2812-.0941,.141-.2049,.276-.3125,.4062-.1432,.1744-.3031,.347-.4688,.5-.0112,.0102-.02,.0212-.0312,.0312-.1384,.1256-.2851,.2344-.4375,.3438-.1026,.0731-.2043,.1534-.3125,.2188-.0074,.0045-.0238-.0044-.0312,0-.232,.1387-.4625,.2748-.7188,.375 .3015-.0968 .5965-.2041 .875-.3438 .5571-.2792 1.0601-.6657 1.5-1.0938 .22-.214 .4094-.4419 .5938-.6875 .1844-.2456 .3554-.5077 .5-.7812 .1401-.265 .2761-.5247 .375-.8125 .0104-.0308 .0213-.0627 .0312-.0938 .0905-.2781 .1388-.5794 .1875-.875 .0524-.318 .0938-.634 .0938-.9688v-2-68-2c0-3.324-2.676-6-6-6h-72z"/>
<path opacity=".2" fill="url(#radialGradient3619)" d="m12,90c-3.324,0-6-2.676-6-6v-2-68-2c0-.3347 .0413-.6507 .0938-.9688 .0487-.2956 .097-.5969 .1875-.875 .0099-.0304 .0209-.0636 .0312-.0938 .0989-.2878 .2349-.5475 .375-.8125 .1446-.2735 .3156-.5356 .5-.7812 .1844-.2456 .3738-.4735 .5938-.6875 .4399-.4281 .9429-.8145 1.5-1.0938 .2785-.1396 .5735-.2469 .875-.3438-.2562,.1002-.4867,.2363-.7188,.375-.0074,.0044-.0239-.0045-.0312,0-.0319,.0193-.0623,.0425-.0938,.0625-.1204,.0767-.231,.1635-.3438,.25-.1062,.0808-.2133,.1611-.3125,.25-.1779,.1614-.3475,.3454-.5,.5312-.1076,.1303-.2184,.2653-.3125,.4062-.0251,.0384-.0384,.0859-.0625,.125-.0648,.103-.1302,.2045-.1875,.3125-.101,.1947-.2057,.4157-.2812,.625-.008,.0218-.0236,.0405-.0312,.0625-.0318,.092-.0358,.1868-.0625,.2812-.0303,.1066-.0704,.203-.0938,.3125-.0729,.3415-.125,.6982-.125,1.0625v2 68 2c0,2.7818 2.2182,5 5,5h2 68 2c2.7818,0 5-2.2182 5-5v-2-68-2c0-.3643-.0521-.721-.125-1.0625-.0442-.2069-.0884-.3977-.1562-.5938-.0077-.022-.0233-.0407-.0312-.0625-.0627-.1737-.1384-.3674-.2188-.5312-.0416-.0828-.079-.17-.125-.25-.0546-.0972-.1268-.1883-.1875-.2812-.0941-.141-.2049-.276-.3125-.4062-.1432-.1745-.3031-.347-.4688-.5-.0112-.0102-.02-.0211-.0312-.0312-.1384-.1256-.2851-.2344-.4375-.3438-.1026-.0732-.2043-.1534-.3125-.2188-.0074-.0045-.0238,.0044-.0312,0-.232-.1387-.4625-.2748-.7188-.375 .3015,.0968 .5965,.2041 .875,.3438 .5571,.2792 1.0601,.6657 1.5,1.0938 .22,.214 .4094,.4419 .5938,.6875 .1844,.2456 .3554,.5077 .5,.7812 .1401,.265 .2761,.5247 .375,.8125 .0104,.0308 .0213,.0627 .0312,.0938 .0905,.2781 .1388,.5794 .1875,.875 .0524,.318 .0938,.634 .0938,.9688v2 68 2c0,3.324-2.676,6-6,6h-72z"/>
<g opacity=".9" fill="#ddafe9" clip-path="url(#clipPath2973)">
<path opacity=".15" d="m48,48 24-56 16,0-40,56z"/>
<path opacity=".15" d="m48,48 55.2512,25.6769-.4822,15.9927-54.769-41.6696z"/>
<path opacity=".15" d="m48,48-59.8279,11.5159-8.9688-13.2499 68.7968,1.734z"/>
<path opacity=".15" d="m48,48-49.3112-35.7827 3.5361-15.6044 45.7751,51.3871z"/>
<path opacity=".15" d="m48,48 17.5192-62.0732 30.436,12.7143-47.9552,49.3589z"/>
<path opacity=".15" d="M 48,48 109.6356,28.998609 115.4895,61.459846 48,48 z"/>
<path opacity=".15" d="m48,48-31.2459,56.4242-26.7233-19.3356 57.9692-37.0886z"/>
<path opacity=".15" d="m48,48-62.812-14.6512 11.3036-30.9875 51.5083,45.6387z"/>
<path opacity=".15" d="m48,48 45.8096,45.4035-3.6917,9.0215-42.1179-54.425z"/>
<path opacity=".15" d="m48,48-2.9701,64.4296-9.1685,3.31l12.1385-67.7396z"/>
<path opacity=".15" d="m48,48-44.8594,46.3426-9.0645-3.585 53.9239-42.7576z"/>
<path opacity=".15" d="m48,48-62.1161,17.3662-6.0159-7.6698 68.1321-9.6964z"/>
<path opacity=".15" d="m48,48-29.1466-57.5367 6.3493-7.3962 22.7974,64.9329z"/>
<path opacity=".15" d="m48,48 59.4817-24.9385 6.921,6.8641-66.4027,18.0744z"/>
<path opacity=".15" d="m48,48 40.1867,45.7933-6.8963,14.4375-33.2904-60.2308z"/>
<path opacity=".15" d="m48,48-35.958-49.1836 8.1521-13.7675 27.8059,62.951z"/>
</g>
<path opacity=".1" fill="url(#linearGradient3613)" filter="url(#filter3794)" stroke="#fff" stroke-linecap="round" stroke-width=".5" d="m27,15h42a12,12 0 0,1 12,12v42a12,12 0 0,1 -12,12h-42a12,12 0 0,1 -12-12v-42a12,12 0 0,1 12-12" clip-path="url(#clipPath3613)"/>
<path opacity=".05" d="m47.4688,18.6875c-5.4472,.1442-10.7851,1.729-15.5938,4.2812-.0956-.0074-.1875-.0262-.3125-.0312v.1562c-.0085,.0046-.0228-.0046-.0312,0 .0002-.0205-.0001-.1562 0-.1562-.0087,0-.0195,0-.0312,0-.0118,0-.0538,0-.0625,0a1.0812,1.0812 0 0,0 -.0312,0c-5.5178,.0918-9.992,3.6039-12.75,7.6562-.0036,.0053-.0276-.0053-.0312,0 .0013-.0013 0,.0312 0,.0312-.0241,.0356-.0699,.058-.0938,.0938h-.0312c-.0061,.0051 .1248-.1565 0,.0312-.0166,.0166-.0317,.0317-.0312,.0312a1.0812,1.0812 0 0,0 -.0625,.0938c.2429-.3718 .2275-.3668-.0312,.0312a1.0812,1.0812 0 0,0 -.0312,.0625c-1.8772,2.9718-3.1664,6.42-3.3438,10.0938a1.0812,1.0812 0 0,0 0,.0312c0-.0006 0,.0429 0,.0625 0,.0041 0,.0247 0,.0312-0,.0132 0,.0215 0,.0312-.0002-.0165-.0005-.0072 0,.0312 .0006,.0432 .0304,.0818 .0312,.125 .036,1.7558 .3345,3.5002 .7812,5.1562-.1935,2.6165-.0983,5.2392 .1875,7.75 .0012,.0101-.0012,.0211 0,.0312a1.0812,1.0812 0 0,0 -.0312,.0312c0,.0025-0,.0256 0,.0312a1.0812,1.0812 0 0,0 0,.0312 1.0812,1.0812 0 0,0 0,.0312c-0,.0057 0,.0288 0,.0312 0,.0196 0,.0631 0,.0625a1.0812,1.0812 0 0,0 .0312,.0312 1.0812,1.0812 0 0,0 0,.0625 1.0812,1.0812 0 0,0 .0312,.1562c-.0008-.0028 .0636,.2215 .0625,.2188 2.0497,11.7036 11.6657,20.9803 23.0938,23.375 8.0681,1.7838 16.6028,.9513 24.1875-2.25a1.0812,1.0812 0 0,0 .0312-.0312c-.0008,.0004 .0359-.018 .0625-.0312 .0639-.0292 .0749-.0211 .0938-.0312 .0133-.0072 .0709-.0351 .0625-.0312a1.0812,1.0812 0 0,0 .125-.0625c-.002,.0013 .1269-.0952 .125-.0938-.0019,.0014 .1268-.0953 .125-.0938 6.9553-3.3795 12.0272-9.872 13.75-17.4062-.002,.003 .0506-.0769 .0625-.0938a1.0812,1.0812 0 0,0 0-.0625c.0029-.013 .0284-.0182 .0312-.0312a1.0812,1.0812 0 0,0 0-.0312h.0312c.0021-.0044-.0053-.0206 0-.0312a1.0812,1.0812 0 0,0 0-.0312c.0077-.0231 .0214-.0331 .0312-.0625 .0098-.0294 .0268-.0492 .0312-.0625 .002-.0058 .0001-.0316 0-.0312 .0068-.0164 .0315-.0318 .0312-.0312-.0007,.0019 .0631-.1269 .0625-.125-.0006,.0019 .0317-.127 .0312-.125a1.0812,1.0812 0 0,0 0-.0312c.0024-.0125-.0019-.0217 0-.0312 .006-.0309 .0255-.0594 .0312-.0938 .0046-.0198-.0046-.0427 0-.0625 .0002-.0045 .0001-.0206 0-.0312 .0006-.0048-.0008-.0235 0-.0312-.0003-.0134 .0003-.0184 0-.0312 .6684-2.9225 1.0716-5.9857 1.0938-9.0938 .0082-.0127 .0236-.0189 .0312-.0312a1.0812,1.0812 0 0,0 .0312-.0312c-.001,.0018 .0634-.1581 .0625-.1562-.0429,.0721-.0936,.0937-.125,.125 .0003-.0739 .0314-.1448 .0312-.2188a1.0812,1.0812 0 0,0 .0625,0h.0312a1.0812,1.0812 0 0,0 .0312,0c-.0064,.0151 .0126,.006 0,.0312a1.0812,1.0812 0 0,0 .0312-.0312c.015-.0303 .0165-.0634 .0312-.0938a1.0812,1.0812 0 0,0 0-.0312c1.6408-3.3945 1.7667-7.1124 1.1562-10.5 .0034,.0001 .0625-0 .0625,0-0-.0087 0-.0195 0-.0312 0-.0118-0-.0538 0-.0625h-.0625c-.0037-.02 .0037-.0425 0-.0625h.0312c-.0001,.0016-0-.0694 0-.125 0-.0417-.0001-.0949 0-.0938a1.0812,1.0812 0 0,0 -.0312-.0312c.0002,.0007 .0068-.0386 0-.0625a1.0812,1.0812 0 0,0 0-.0938c-.5843-2.3225-1.6165-4.6027-3.0938-6.5938-.2767-.373-.5687-.7744-.9688-1.2188-1.8121-2.0149-4.2754-3.1001-6.75-3.5625-.0894-.0615-.056-.0106-.0938-.0312-.0803-.0439-.1875-.0938-.1875-.0938a1.0812,1.0812 0 0,0 -.0938-.0312l-.3125-.0938a1.0812,1.0812 0 0,0 -.2188-.0312 1.0812,1.0812 0 0,0 -.0312,0 1.0812,1.0812 0 0,0 -.125,0c-.0505-.0064-.0755,.0057-.125,0-.0124-.0014-.0189,.0014-.0312,0-.5954-.0671-1.1265-.1068-1.5-.125-5.6341-4.0198-12.4622-6.3236-19.4375-6.25h-.0312c-.0098,0-.0181-0-.0312,0-.0066,0-.0271,0-.0312,0 0,0 0,1.0938 0,1.0938l-.0312-1.0938zm-15.9375,4.5312 .0312,.0625-.0312,.75c.0027-.4014-.0015-.6326 0-.8125zm-12.6875,7.75 .375,.25c.0526,.0525 .1562,.1562 .1562,.1562l-.5312-.4062zm61.2188,6.125 .375,.0312-.4062,.0625-.5,0 .5312-.0938zm-1.625,.1562c0,0 .5532,.0277 1.0938,.0312h-.0312l-1.0625-.0312zm.0312,10.2812 .0312,0a1.0812,1.0812 0 0,0 .4062,.3125h-.4062c-.0274-.1331-.0504-.2224-.0625-.2812 .0056-.001 .0238-.0299 .0312-.0312zm.0938,.7188 .25,.1875c-.0343,.0144-.0625,.0313-.0625,.0312 0,0-.125,.0312-.125,.0312 0,0-.0438-.159-.0625-.25zm-2.2812,8.2812c.0513,.052 .5891,.5878 .6875,.6875-.0591-.0525-.6596-.6038-.7188-.6562 .0134-.0141 .0229-.0224 .0312-.0312z"/>
<path opacity=".1" d="m47.5,19.7812c-5.4067,.1431-10.733,1.6803-15.5,4.2812-.1537-.0086-.3159-.0251-.4688-.0312 .001,0-.0947,0-.0938,0-5.1286,.0853-9.3979,3.3876-12,7.2812-.008,.0119-.0233,.0193-.0312,.0312-.0166,.0166-.0317,.0317-.0312,.0312a.9921,.9921 0 0,0 -.0625,.0938c-.0078,.012-.0235,.0193-.0312,.0312a.9921,.9921 0 0,0 -.0312,.0312c-1.7912,2.8357-2.9893,6.1358-3.1562,9.5938a.9921,.9921 0 0,0 0,.0312c0-.0007 0,.0429 0,.0625 .0001,.0103-.0001,.0209 0,.0312 .0236,1.7534 .3159,3.5125 .7812,5.1875-.2109,2.66-.1147,5.34 .1875,7.9062 .0001-.002 .0001,.127 0,.125a.9921,.9921 0 0,0 0,.0312 .9921,.9921 0 0,0 .0312,.0938c1.8841,11.3314 11.2443,20.3995 22.3125,22.7188 7.8412,1.7337 16.1851,.9263 23.5625-2.1875a.9921,.9921 0 0,0 .0625-.0312c.0425-.0194 .0826-.0429 .125-.0625a.9921,.9921 0 0,0 .125-.0938c6.8796-3.241 11.9345-9.6859 13.5312-17.125a.9921,.9921 0 0,0 .0312-.0312c.0048-.0227 .0265-.0398 .0312-.0625a.9921,.9921 0 0,0 .0312-.0938 .9921,.9921 0 0,0 .0938-.25c.0392-.2023 .001-.0201 0-.0312-.001-.0112 .0347-.2131 0-.0312 .7127-3.0418 1.1346-6.2413 1.125-9.4688 .0732-.0834 .0975-.0722 .1875-.2188a.9921,.9921 0 0,0 .0312-.0625c-.0007,.0013 .0118-.0549 .0312-.0938 .0083-.0166 .0315-.0318 .0312-.0312 1.5915-3.2155 1.7174-6.8507 1.0938-10.1562h.0312c-0,.001-0-.0947 0-.0938a.9921,.9921 0 0,0 -.0312-.125 .9921,.9921 0 0,0 0-.0938c-.5517-2.1927-1.5193-4.3181-2.9062-6.1875-.2861-.3856-.5567-.768-.9062-1.1562-1.7325-1.9265-4.132-3.0098-6.5625-3.375-.0181-.0124-.0625-.0312-.0625-.0312-0-0-.3125-.0937-.3125-.0938v.0312c-.0121,.0009-.1524-.0178-.0312,0-.7837-.1152-1.4738-.1272-1.9688-.1562-.0071-.0052-.0241,.0052-.0312,0-5.5048-4.0193-12.2728-6.2911-19.125-6.2188 .0003,0-.0214-0-.0312,0-.0196,0-.0632,0-.0625,0z"/>
<path opacity=".15" d="m47.5312,20.7812c-5.3606,.1419-10.6979,1.6475-15.4062,4.2812-.1956-.0175-.3909-.0218-.625-.0312a.9065,.9065 0 0,0 -.0312,0c-4.7902,.0797-8.8945,3.2319-11.3438,7a.9065,.9065 0 0,0 -.0312,.0312c-1.7108,2.7085-2.8426,5.865-3,9.125a.9065,.9065 0 0,0 0,.0312c.0203,1.7266 .3039,3.4601 .7812,5.125-.2286,2.6952-.1294,5.4145 .1875,8.0312a.9065,.9065 0 0,0 0,.0625c1.8102,10.8869 10.8942,19.6708 21.5625,21.9062 7.633,1.6876 15.7828,.908 22.9688-2.125a.9065,.9065 0 0,0 .0312-.0312c6.8559-3.1255 11.9367-9.5938 13.375-17h.0312c.0038-.0196-.0037-.0429 0-.0625 .7295-3.1045 1.1709-6.3904 1.125-9.6562 .0921-.1099 .1934-.1811 .3125-.375a.9065,.9065 0 0,0 .0312-.0625c1.5179-3.0428 1.6718-6.575 1.0312-9.7812a.9065,.9065 0 0,0 0-.0312c-.5233-2.0799-1.4184-4.091-2.7188-5.8438-.2806-.3783-.5603-.7442-.875-1.0938-1.6342-1.8171-3.9603-2.846-6.3125-3.125-.0028-.0003 .0028-.0309 0-.0312-.0229-.0036-.0397,.0033-.0625,0-.697-.1025-1.3478-.0903-1.9062-.125a.9065,.9065 0 0,0 -.0938,0c-.0323,.0017-.0346-.0022-.0625,0-5.3953-4.0558-12.155-6.2972-18.9375-6.2188a.9065,.9065 0 0,0 -.0312,0z"/>
<path opacity=".3" d="m47.5625,21.6875c-5.311,.1405-10.6362,1.655-15.2812,4.3125-.271-.0204-.5408-.0515-.8125-.0625-4.3938,.0731-8.2716,3.0212-10.5938,6.5938-1.638,2.5932-2.7265,5.6121-2.875,8.6875 .0201,1.7127 .2883,3.4452 .7812,5.0938-.2358,2.6576-.1282,5.3616 .1875,7.9688 1.7422,10.4783 10.5444,19.0294 20.8438,21.1875 7.4405,1.6451 15.4262,.8656 22.4375-2.0938 6.6004-3.009 11.5436-9.2723 12.9062-16.4062 .7497-3.1734 1.2077-6.5104 1.125-9.8125 .135-.1798 .2875-.3378 .4062-.5312 1.404-2.8146 1.5781-6.1378 .9688-9.1875-.4977-1.9782-1.3428-3.8873-2.5625-5.5312-.2632-.3547-.5484-.7032-.8438-1.0312-1.4782-1.6436-3.6003-2.5986-5.7812-2.8438-.6203-.0975-1.2498-.0862-1.875-.125-.103,.0053-.2092,.0238-.3125,.0312-5.2786-4.0832-12.0087-6.3276-18.7188-6.25z"/>
<g transform="matrix(.12344 0 0 .12344 16.09091 16.00937)">
<path fill="url(#RadialGray)" d="m255.0312,37.8438c-78.6553,2.0815-157.9305,40.9885-202.5948,106.654-30.4768,45.9175-35.5767,103.9719-29.1065,157.4051 14.1138,84.8854 85.3917,154.2446 168.8275,171.7278 60.2763,13.3269 124.9893,6.9968 181.7882-16.9767 53.4704-24.3764 93.5942-75.067 104.6333-132.8598 13.3181-56.3772 15.4132-119.5108-15.6031-170.7694-41.3862-73.2552-124.786-116.1434-207.9446-115.1811z"/>
<path opacity=".15" d="m255.0312,37.8438c-78.6553,2.0815-157.9305,40.9885-202.5948,106.654-30.4768,45.9175-35.5767,103.9719-29.1065,157.4051 14.1138,84.8854 85.3917,154.2446 168.8275,171.7278 60.2763,13.3269 124.9893,6.9968 181.7882-16.9767 53.4704-24.3764 93.5942-75.067 104.6333-132.8598 13.3181-56.3772 15.4132-119.5108-15.6031-170.7694-41.3862-73.2552-124.786-116.1434-207.9446-115.1811z" clip-path="url(#ClipBallRelief)"/>
<path opacity=".05" fill-rule="evenodd" d="m73,413c98.7124-23.7031 195.4048-65.9299 271.0538-134.8517 50.7388-46.0177 86.519-108.8262 95.9729-176.9869 13.2536-65.4004 24.1764-131.4509 41.9348-195.8228 3.9149-7.9565 5.2614,12.1466 7.9667,16.2638 23.024,76.1325 46.0479,152.2651 69.0719,228.3976-10.3333,118.3333-20.6667,236.6667-31,355-156.3333,3.6667-312.6667,7.3333-469,11-.3333-33.3333-.6667-66.6667-1-100 5-1 10-2 15-3z" clip-path="url(#ClipBallReflect)"/>
<path opacity=".02" fill="#fff" fill-rule="evenodd" d="m271.9375,131c-3.3901,.1852-6.6645,3.3694-6.3125,7 .3635,3.7489 1.6345,7 7,7 5.364,0 6.6239-2.6236 7-7 .375-4.364-3.261-6.75-7-7-.2259-.0151-.4615-.0123-.6875,0zm-22.375,25.5c-1.735-.1166-3.0191,1.5186-3.0625,3.0625-.0399,1.419 1.0999,2.847 3.0625,3.0938 1.8395,.2313 3.1339-1.2658 3.0938-3.0938-.0402-1.8295-1.2344-2.9375-3.0938-3.0625z"/>
</g>
<g transform="matrix(.12344 0 0 .12344 16.09091 16.00937)">
<path fill="url(#RightWhite)" fill-rule="evenodd" d="m409.1936,88.1875c-15.3603,.7952-31.3988,4.3208-42.7752,15.4138-15.9485,15.1504-22.1437,37.36-26.7101,58.1857-6.6472,30.3513 3.6973,63.3356 25.982,84.8724 18.7493,19.2797 46.5653,31.0543 73.5503,25.7957 20.3622-3.8844 40.6488-14.5019 51.7356-32.5556 11.3741-22.8009 12.7962-49.7056 7.8601-74.4114-4.0318-16.0257-11.0925-31.4942-20.9734-44.8122-2.132-2.8736-4.3953-5.6471-6.7878-8.3045-11.9748-13.3151-29.0308-21.1599-46.6986-23.1459-5.025-.79-10.1186-.7235-15.1832-1.0381z"/>
<path fill="#070402" fill-rule="evenodd" d="m448.1633,153.8074c-5.739,.0561-11.541,2.0162-15.6788,6.0963-9.0974,8.8355-11.0482,24.189-4.3355,34.9717 4.9522,7.8987 15.11,11.9538 24.1677,9.9503 6.3842-1.3519 12.7527-4.5343 16.2727-10.2529 6.192-9.8889 4.6141-23.4947-2.5154-32.4799-4.2335-5.4245-11.0108-8.669-17.9107-8.2855z"/>
<path opacity=".08" fill-rule="evenodd" d="m409.1936,88.1875c-15.3603,.7952-31.3988,4.3208-42.7752,15.4138-15.9485,15.1504-22.1437,37.36-26.7101,58.1857-6.6472,30.3513 3.6973,63.3356 25.982,84.8724 18.7493,19.2797 46.5653,31.0543 73.5503,25.7957 20.3622-3.8844 40.6488-14.5019 51.7356-32.5556 11.3741-22.8009 12.7962-49.7056 7.8601-74.4114-4.0318-16.0257-11.0925-31.4942-20.9734-44.8122-2.132-2.8736-4.3953-5.6471-6.7878-8.3045-11.9748-13.3151-29.0308-21.1599-46.6986-23.1459-5.025-.79-10.1186-.7235-15.1832-1.0381z" clip-path="url(#ClipRightRelief)"/>
<path fill="#070402" fill-rule="evenodd" d="m448.1633,153.8074c-5.739,.0561-11.541,2.0162-15.6788,6.0963-9.0974,8.8355-11.0482,24.189-4.3355,34.9717 4.9522,7.8987 15.11,11.9538 24.1677,9.9503 6.3842-1.3519 12.7527-4.5343 16.2727-10.2529 6.192-9.8889 4.6141-23.4947-2.5154-32.4799-4.2335-5.4245-11.0108-8.669-17.9107-8.2855z"/>
</g>
<g transform="matrix(.12344 0 0 .12344 16.09091 16.00937)">
<path fill="url(#LeftWhite)" fill-rule="evenodd" d="m124.5923,72.375c-35.5946,.5919-66.9551,24.4243-85.7673,53.3658-13.2697,21.0076-22.1566,45.3656-23.3593,70.2794 .2494,21.214 4.9479,42.6752 14.1293,61.7759 14.0282,21.5659 35.5541,39.8439 61.1115,45.4657 21.1226,3.8253 43.6983,.5629 62.087-10.8808 45.505-25.1865 69.5578-79.0969 66.5355-129.8972-1.5212-23.7884-7.6936-49.992-27.6007-65.2388-17.075-13.4836-38.2717-21.8054-59.7785-24.5087-2.4496-.1736-4.9041-.2622-7.3575-.3613z"/>
<path opacity=".08" fill-rule="evenodd" d="m124.5923,72.375c-35.5946,.5919-66.9551,24.4243-85.7673,53.3658-13.2697,21.0076-22.1566,45.3656-23.3593,70.2794 .2494,21.214 4.9479,42.6752 14.1293,61.7759 14.0282,21.5659 35.5541,39.8439 61.1115,45.4657 21.1226,3.8253 43.6983,.5629 62.087-10.8808 45.505-25.1865 69.5578-79.0969 66.5355-129.8972-1.5212-23.7884-7.6936-49.992-27.6007-65.2388-17.075-13.4836-38.2717-21.8054-59.7785-24.5087-2.4496-.1736-4.9041-.2622-7.3575-.3613z" clip-path="url(#ClipLeftRelief)"/>
<path fill="#070402" fill-rule="evenodd" d="m90.5071,153.1824c-5.746-.1256-11.2275,2.3177-15.9601,5.3729-9.1059,6.3974-12.4326,18.7114-10.0202,29.256 1.8545,9.0925 8.4959,17.4383 17.6568,19.8845 8.6782,2.5877 18.66,.3341 25.1984-5.9822 6.7495-5.2273 9.8898-14.2146 8.6521-22.5629-1.4561-10.9858-8.8797-21.6479-19.7059-25.0478-1.8863-.5704-3.8505-.8852-5.8212-.9205z"/>
</g>
</svg>
