<svg xmlns="http://www.w3.org/2000/svg" viewBox="0 0 96 96" xmlns:xlink="http://www.w3.org/1999/xlink">
<defs>
<clipPath id="clipPath3613">
<path fill="#fff" d="m12,6h72a6,6 0 0,1 6,6v72a6,6 0 0,1 -6,6h-72a6,6 0 0,1 -6-6v-72a6,6 0 0,1 6-6"/>
</clipPath>
<filter width="1.384" x="-.192" y="-.192" height="1.384" color-interpolation-filters="sRGB" id="filter3794">
<feGaussianBlur stdDeviation="5.28"/>
</filter>
<filter width="312.268" x="227.155" y="6.116" height="206.247" color-interpolation-filters="sRGB" filterUnits="userSpaceOnUse" id="Adobe_OpacityMaskFilter-5">
<feColorMatrix values="1 0 0 0 0  0 1 0 0 0  0 0 1 0 0  0 0 0 1 0" type="matrix"/>
</filter>
<linearGradient gradientTransform="translate(0 -97)" id="linearGradient3721" xlink:href="#ButtonShadow-0" y1="6.132" y2="90.239" x2="0" gradientUnits="userSpaceOnUse"/>
<linearGradient gradientTransform="matrix(.09532 0 0 .09532 22 32.78641)" id="linearGradient4220-1" xlink:href="#SVGID_1_-4" y1="0" y2="218.48" x2="0" gradientUnits="userSpaceOnUse"/>
<linearGradient id="SVGID_1_-4" y1="0" y2="218.48" x2="0" gradientUnits="userSpaceOnUse">
<stop offset=".006" stop-color="#ed2828"/>
<stop offset=".5" stop-color="#ef3b39"/>
<stop offset=".994" stop-color="#c02126"/>
</linearGradient>
<linearGradient id="linearGradient3749-5" y1="73.254" y2="180.675" x2="0" gradientUnits="userSpaceOnUse">
<stop offset="0"/>
<stop offset=".994" stop-opacity=".473"/>
</linearGradient>
<linearGradient gradientTransform="matrix(1.02381 0 0 1.0119 -1.14286 -98.07143)" id="linearGradient3780" xlink:href="#ButtonShadow-0" y1="6.132" y2="90.239" x2="0" gradientUnits="userSpaceOnUse"/>
<linearGradient gradientTransform="matrix(1.00587 0 0 .99417 100 0)" id="ButtonShadow-0" y1="92.54" y2="7.017" x2="0" gradientUnits="userSpaceOnUse">
<stop offset="0"/>
<stop offset="1" stop-opacity=".588"/>
</linearGradient>
<linearGradient id="linearGradient3737">
<stop offset="0" stop-color="#fff"/>
<stop offset="1" stop-color="#fff" stop-opacity="0"/>
</linearGradient>
<linearGradient id="linearGradient3700">
<stop offset="0" stop-color="#d7d7d7"/>
<stop offset="1" stop-color="#f5f5f5"/>
</linearGradient>
<linearGradient id="linearGradient3188" xlink:href="#linearGradient3737" y1="6" y2="63.893" x2="0" gradientUnits="userSpaceOnUse"/>
<linearGradient gradientTransform="matrix(.17847 0 0 .18436 29.84912 5.88229)" id="linearGradient3827" xlink:href="#linearGradient3749-5" y1="73.254" y2="180.675" x2="0" gradientUnits="userSpaceOnUse"/>
<linearGradient id="linearGradient3617" xlink:href="#linearGradient3700" y1="90" y2="5.988" x2="0" gradientUnits="userSpaceOnUse"/>
<linearGradient id="linearGradient3613" xlink:href="#linearGradient3737" y1="20.221" y2="138.661" x2="0" gradientUnits="userSpaceOnUse"/>
<mask id="SVGID_2_-7">
<g filter="url(#Adobe_OpacityMaskFilter-5)">
<linearGradient id="SVGID_3_-2" y1="-18.516" x1="461.133" y2="169.008" x2="352.866" gradientUnits="userSpaceOnUse">
<stop offset=".006" stop-color="#fff"/>
<stop offset=".013" stop-color="#f6f6f6"/>
<stop offset=".053" stop-color="#c8c8c8"/>
<stop offset=".098" stop-color="#9d9d9d"/>
<stop offset=".146" stop-color="#777"/>
<stop offset=".198" stop-color="#575757"/>
<stop offset=".257" stop-color="#3b3b3b"/>
<stop offset=".322" stop-color="#252525"/>
<stop offset=".399" stop-color="#141414"/>
<stop offset=".493" stop-color="#090909"/>
<stop offset=".626" stop-color="#020202"/>
<stop offset=".994"/>
</linearGradient>
<path fill="url(#SVGID_3_-2)" d="m537.271,48.9468-.0195-.2329v-.2344c0-22.1675-18.2754-40.2036-40.7402-40.2036h-.127l-.127-.0059c-35.875-1.4976-73.8809-2.2202-112.9805-2.1489-39.0742-.0713-77.0801,.6514-112.9561,2.1489l-.1274,.0059h-.1279c-6.1802,0-12.0391,1.3716-17.2925,3.8125l281.4648,173.0625c1.9375-4.6777 3.0137-9.791 3.0137-15.1504v-.2344l.0195-.2324c1.4863-19.3984 2.209-39.6787 2.1484-60.3125 .0605-20.5967-.6621-40.877-2.1484-60.2744zm-41.0137,161.2627 .127-.004h.127c6.5137,0 12.6699-1.5254 18.1367-4.2188l-87.1562,6.1074c23.5664-.3301 46.5742-.957 68.7656-1.8848z"/>
</g>
</mask>
<radialGradient cx="48" cy="90.172" gradientTransform="matrix(1.15731 0 0 .99591 -7.55102 .19713)" r="42" id="radialGradient3619" xlink:href="#linearGradient3737" gradientUnits="userSpaceOnUse"/>
</defs>
<path opacity=".08" fill="url(#linearGradient3780)" d="m12-95.0312c-5.5111,0-10.0312,4.5202-10.0312,10.0312v71c0,5.5111 4.5202,10.0312 10.0312,10.0312h72c5.5111,0 10.0312-4.5202 10.0312-10.0312v-71c0-5.5111-4.5202-10.0312-10.0312-10.0312h-72z" transform="scale(1 -1)"/>
<path opacity=".1" fill="url(#linearGradient3780)" d="m12-94.0312c-4.9716,0-9.0312,4.0596-9.0312,9.0312v71c0,4.9716 4.0596,9.0312 9.0312,9.0312h72c4.9716,0 9.0312-4.0596 9.0312-9.0312v-71c0-4.9716-4.0596-9.0312-9.0312-9.0312h-72z" transform="scale(1 -1)"/>
<path opacity=".2" fill="url(#linearGradient3780)" d="m12-93c-4.4091,0-8,3.5909-8,8v71c0,4.4091 3.5909,8 8,8h72c4.4091,0 8-3.5909 8-8v-71c0-4.4091-3.5909-8-8-8h-72z" transform="scale(1 -1)"/>
<path opacity=".3" fill="url(#linearGradient3780)" d="m12-92h72a7,7 0 0,1 7,7v71a7,7 0 0,1 -7,7h-72a7,7 0 0,1 -7-7v-71a7,7 0 0,1 7-7" transform="scale(1 -1)"/>
<path opacity=".45" fill="url(#linearGradient3721)" d="m12-91h72a6,6 0 0,1 6,6v72a6,6 0 0,1 -6,6h-72a6,6 0 0,1 -6-6v-72a6,6 0 0,1 6-6" transform="scale(1 -1)"/>
<path fill="url(#linearGradient3617)" d="m12,6h72a6,6 0 0,1 6,6v72a6,6 0 0,1 -6,6h-72a6,6 0 0,1 -6-6v-72a6,6 0 0,1 6-6"/>
<path opacity=".5" fill="url(#linearGradient3188)" d="m12,6c-3.324,0-6,2.676-6,6v2 68 2c0,.3347 .0413,.6507 .0938,.9688 .0487,.2956 .097,.5969 .1875,.875 .0099,.0304 .0209,.0636 .0312,.0938 .0989,.2878 .2349,.5475 .375,.8125 .1446,.2735 .3156,.5356 .5,.7812 .1844,.2456 .3738,.4735 .5938,.6875 .4399,.4281 .9429,.8145 1.5,1.0938 .2785,.1396 .5735,.2469 .875,.3438-.2562-.1002-.4867-.2363-.7188-.375-.0074-.0044-.0239,.0045-.0312,0-.0319-.0193-.0623-.0425-.0938-.0625-.1204-.0767-.231-.1635-.3438-.25-.1062-.0808-.2133-.1611-.3125-.25-.1779-.1614-.3475-.3454-.5-.5312-.1076-.1303-.2184-.2653-.3125-.4062-.0251-.0384-.0384-.0859-.0625-.125-.0648-.103-.1302-.2045-.1875-.3125-.101-.1947-.2057-.4157-.2812-.625-.008-.0218-.0236-.0405-.0312-.0625-.0318-.0919-.0358-.1868-.0625-.2812-.0303-.1066-.0704-.203-.0938-.3125-.0729-.3415-.125-.6982-.125-1.0625v-2-68-2c0-2.7818 2.2182-5 5-5h2 68 2c2.7818,0 5,2.2182 5,5v2 68 2c0,.3643-.0521,.721-.125,1.0625-.0442,.2069-.0884,.3977-.1562,.5938-.0077,.022-.0233,.0407-.0312,.0625-.0627,.1737-.1384,.3674-.2188,.5312-.0416,.0828-.079,.17-.125,.25-.0546,.0972-.1268,.1883-.1875,.2812-.0941,.141-.2049,.276-.3125,.4062-.1432,.1744-.3031,.347-.4688,.5-.0112,.0102-.02,.0212-.0312,.0312-.1384,.1256-.2851,.2344-.4375,.3438-.1026,.0731-.2043,.1534-.3125,.2188-.0074,.0045-.0238-.0044-.0312,0-.232,.1387-.4625,.2748-.7188,.375 .3015-.0968 .5965-.2041 .875-.3438 .5571-.2792 1.0601-.6657 1.5-1.0938 .22-.214 .4094-.4419 .5938-.6875 .1844-.2456 .3554-.5077 .5-.7812 .1401-.265 .2761-.5247 .375-.8125 .0104-.0308 .0213-.0627 .0312-.0938 .0905-.2781 .1388-.5794 .1875-.875 .0524-.318 .0938-.634 .0938-.9688v-2-68-2c0-3.324-2.676-6-6-6h-72z"/>
<path opacity=".2" fill="url(#radialGradient3619)" d="m12,90c-3.324,0-6-2.676-6-6v-2-68-2c0-.3347 .0413-.6507 .0938-.9688 .0487-.2956 .097-.5969 .1875-.875 .0099-.0304 .0209-.0636 .0312-.0938 .0989-.2878 .2349-.5475 .375-.8125 .1446-.2735 .3156-.5356 .5-.7812 .1844-.2456 .3738-.4735 .5938-.6875 .4399-.4281 .9429-.8145 1.5-1.0938 .2785-.1396 .5735-.2469 .875-.3438-.2562,.1002-.4867,.2363-.7188,.375-.0074,.0044-.0239-.0045-.0312,0-.0319,.0193-.0623,.0425-.0938,.0625-.1204,.0767-.231,.1635-.3438,.25-.1062,.0808-.2133,.1611-.3125,.25-.1779,.1614-.3475,.3454-.5,.5312-.1076,.1303-.2184,.2653-.3125,.4062-.0251,.0384-.0384,.0859-.0625,.125-.0648,.103-.1302,.2045-.1875,.3125-.101,.1947-.2057,.4157-.2812,.625-.008,.0218-.0236,.0405-.0312,.0625-.0318,.092-.0358,.1868-.0625,.2812-.0303,.1066-.0704,.203-.0938,.3125-.0729,.3415-.125,.6982-.125,1.0625v2 68 2c0,2.7818 2.2182,5 5,5h2 68 2c2.7818,0 5-2.2182 5-5v-2-68-2c0-.3643-.0521-.721-.125-1.0625-.0442-.2069-.0884-.3977-.1562-.5938-.0077-.022-.0233-.0407-.0312-.0625-.0627-.1737-.1384-.3674-.2188-.5312-.0416-.0828-.079-.17-.125-.25-.0546-.0972-.1268-.1883-.1875-.2812-.0941-.141-.2049-.276-.3125-.4062-.1432-.1745-.3031-.347-.4688-.5-.0112-.0102-.02-.0211-.0312-.0312-.1384-.1256-.2851-.2344-.4375-.3438-.1026-.0732-.2043-.1534-.3125-.2188-.0074-.0045-.0238,.0044-.0312,0-.232-.1387-.4625-.2748-.7188-.375 .3015,.0968 .5965,.2041 .875,.3438 .5571,.2792 1.0601,.6657 1.5,1.0938 .22,.214 .4094,.4419 .5938,.6875 .1844,.2456 .3554,.5077 .5,.7812 .1401,.265 .2761,.5247 .375,.8125 .0104,.0308 .0213,.0627 .0312,.0938 .0905,.2781 .1388,.5794 .1875,.875 .0524,.318 .0938,.634 .0938,.9688v2 68 2c0,3.324-2.676,6-6,6h-72z"/>
<path opacity=".1" fill="url(#linearGradient3613)" filter="url(#filter3794)" stroke="#fff" stroke-linecap="round" stroke-width=".5" d="m27,15h42a12,12 0 0,1 12,12v42a12,12 0 0,1 -12,12h-42a12,12 0 0,1 -12-12v-42a12,12 0 0,1 12-12" clip-path="url(#clipPath3613)"/>
<path opacity=".05" d="m48,43c-7.1412-.0129-14.1226,.1238-20.9688,.4062 .0739-.0031 .0631-.0039-.0312,0-5.7699,.0354-10.5027,4.6699-10.5625,10.375-.001,.0187 .0001,.0114 0,.0312-.004,.0398-.0312,.0176-.0312,.0625a.9989,.9989 0 0,0 .0312,.1562 .9989,.9989 0 0,0 0,.125c-.2713,3.621-.4485,7.2151-.4375,10.8438-.0108,3.6285 .1661,7.2225 .4375,10.8438a.9989,.9989 0 0,0 0,.125c.0008,.0104-.0008,.0208 0,.0312a.9989,.9989 0 0,0 -.0312,.125c0,.0449 .0273,.0227 .0312,.0625 .0017,.0167-.0023,.0154 0,.0312 .06,5.7155 4.8093,10.3565 10.5938,10.375 .0102,.0004 .021-.0004 .0312,0 6.8361,.2816 13.8068,.4195 20.9375,.4062 7.1307,.0133 14.1017-.1246 20.9375-.4062 .0085,0 .0165,0 .0312,0 5.7847-.0185 10.5337-4.6596 10.5938-10.375 .001-.0187-.0001-.0114 0-.0312 .004-.0398 .0312-.0176 .0312-.0625a.9989,.9989 0 0,0 -.0312-.1562 .9989,.9989 0 0,0 0-.125c.2713-3.6212 .4485-7.2151 .4375-10.8438 .0108-3.6286-.1662-7.2227-.4375-10.8438a.9989,.9989 0 0,0 0-.1562 .9989,.9989 0 0,0 .0312-.125c0-.0449-.0273-.0227-.0312-.0625-.0001-.0199 .001-.0125 0-.0312-.0599-5.7049-4.7923-10.3396-10.5625-10.375-.0106-.0001-.0206,0-.0312,0-6.8457-.2825-13.8275-.4192-20.9688-.4062z"/>
<path opacity=".1" d="m48,44c-7.1272-.0129-14.106,.1244-20.9375,.4062-.0102,.0004-.0211-.0004-.0312,0-5.2648,.0168-9.5551,4.2232-9.5938,9.4062-.0002,.0234-.0312,.0391-.0312,.0625h.0312c-.2859,3.7147-.4487,7.4127-.4375,11.125-.0111,3.7122 .1515,7.4101 .4375,11.125h-.0312c0,.0234 .0311,.0391 .0312,.0625 .0386,5.1831 4.3288,9.3894 9.5938,9.4062 .0106,0 .0206,0 .0312,0 6.8312,.2819 13.8102,.4195 20.9375,.4062 7.1273,.0133 14.1065-.1244 20.9375-.4062 .0106,0 .0206,0 .0312,0 5.2652-.0168 9.5551-4.2232 9.5938-9.4062 .0002-.0234 .0312-.0391 .0312-.0625h-.0312c.2859-3.7149 .4487-7.4128 .4375-11.125 .0111-3.7123-.1516-7.4103-.4375-11.125h.0312c0-.0234-.0311-.0391-.0312-.0625-.0386-5.183-4.3285-9.3894-9.5938-9.4062-.0102-.0004-.0211,.0004-.0312,0-6.831-.2819-13.8103-.4191-20.9375-.4062z"/>
<path opacity=".2" d="m77.5988,53.876c0-4.6818-3.8811-8.4806-8.6639-8.4806-6.8261-.2821-13.8108-.4074-20.9349-.3945-7.1241-.0129-14.1084,.1124-20.935,.3945-4.7824,0-8.6638,3.7988-8.6638,8.4806-.2871,3.708-.4117,7.416-.4005,11.1241-.0111,3.708 .1134,7.4159 .4006,11.1241 0,4.6818 3.8814,8.4808 8.6639,8.4808 6.8264,.2821 13.8107,.4073 20.9348,.3941 7.1241,.0132 14.1087-.1119 20.9349-.3941 4.7828,0 8.6639-3.799 8.6639-8.4808 .2871-3.7081 .4117-7.4161 .4005-11.1241 .0111-3.7081-.1134-7.4161-.4005-11.1241z"/>
<g fill="#fff">
<path opacity=".3" d="m29.625,10.5c.0025-.0003-.0962,.0317-.0938,.0312 .0024-.0004-.1274,.0006-.125,0 .0024-.0006-.0961,.0319-.0938,.0312 .0024-.0007-.0961,.0321-.0938,.0312 .0023-.0008-.096,.0634-.0938,.0625 .0023-.0009-.096,.0323-.0938,.0312 .0022-.0011-.0959,.0324-.0938,.0312 .0022-.0012-.0958,.0638-.0938,.0625 .0021-.0013-.0958,.0639-.0938,.0625 .002-.0014-.0957,.064-.0938,.0625 .0019-.0015-.0644,.0641-.0625,.0625 .0019-.0016-.0955,.0642-.0938,.0625 .0018-.0017-.0642,.0956-.0625,.0938 .0017-.0018-.0641,.0644-.0625,.0625 .0016-.0019-.064,.0958-.0625,.0938 .0015-.002-.0638,.0958-.0625,.0938 .0013-.0021-.0637,.0959-.0625,.0938 .0012-.0021-.0636,.096-.0625,.0938 .0011-.0022-.0322,.096-.0312,.0938 .001-.0023-.0321,.0961-.0312,.0938 .0009-.0023-.0632,.0961-.0625,.0938 .0007-.0024-.0006,.0961 0,.0938 .0006-.0024-.0317,.1274-.0312,.125 .0005-.0024-.0316,.0962-.0312,.0938 .0003-.0024-.0002,.0962 0,.0938 .0002-.0025-.0001,.1275 0,.125 .0001-.0025 .0001,.0962 0,.0938-.0001-.0025 .0002,.1275 0,.125-.0002-.0025 .0003,.0962 0,.0938-.0003-.0024 .0317,.0962 .0312,.0938-.0005-.0024 .0319,.1274 .0312,.125-.0004-.0014-.0085,.0326 0,.0625l4.625,15.6562v10.2812c.0001-.0045 .0004,.192 0,.1875-.0004-.0045 .0321,.1919 .0312,.1875-.0008-.0044 .0638,.1918 .0625,.1875-.0013-.0043 .0642,.1917 .0625,.1875-.0017-.0042 .0646,.1602 .0625,.1562-.0021-.004 .0962,.16 .0938,.1562-.0025-.0037 .1278,.1597 .125,.1562-.0028-.0035 .1282,.1594 .125,.1562-.0032-.0032 .1597,.1278 .1562,.125-.0035-.0028 .16,.1275 .1562,.125-.0037-.0025 .1602,.0958 .1562,.0938-.004-.0021 .1604,.0642 .1562,.0625-.0042-.0017 .1918,.0638 .1875,.0625-.0043-.0013 .1919,.0633 .1875,.0625-.0044-.0008 .192,.0316 .1875,.0312-.0045-.0004 .192-.0001 .1875,0h3.9375c-.0045-.0001 .192-.0004 .1875,0-.0045,.0004 .1919-.0321 .1875-.0312-.0044,.0008 .1918-.0638 .1875-.0625-.0043,.0013 .1917-.0642 .1875-.0625-.0042,.0017 .1602-.0646 .1562-.0625-.004,.0021 .16-.0962 .1562-.0938-.0037,.0025 .1597-.1278 .1562-.125-.0035,.0028 .1594-.1282 .1562-.125-.0032,.0032 .1278-.1597 .125-.1562-.0028,.0035 .1275-.16 .125-.1562-.0025,.0037 .0958-.1602 .0938-.1562-.0021,.004 .0642-.1604 .0625-.1562-.0017,.0042 .0638-.1918 .0625-.1875-.0013,.0043 .0633-.1919 .0625-.1875-.0008,.0044 .0316-.192 .0312-.1875-.0004,.0045-.0001-.192 0-.1875v-10.7812l.5625-1.9062v7.75c0,2.0197 .5977,3.9208 1.9062,5.3125 1.3014,1.3848 3.1336,2.0625 5.0938,2.0625 2.0009,0 3.8741-.6593 5.1875-2.0312 .541-.5652 .888-1.2593 1.1875-1.9688 .1492,.7624 .3781,1.481 .8125,2.0938 .768,1.084 2.0422,1.6875 3.375,1.6875 .9483,0 1.8609-.3617 2.7188-.8125 .0382,.0344 .1277,.096 .125,.0938-.0035-.0028 .16,.1275 .1562,.125-.0037-.0025 .1602,.0958 .1562,.0938-.004-.0021 .1604,.0642 .1562,.0625-.0042-.0017 .1918,.0638 .1875,.0625-.0043-.0013 .1919,.0633 .1875,.0625-.0044-.0008 .192,.0316 .1875,.0312-.0045-.0004 .192-.0001 .1875,0h3.5312c-.0045-.0001 .192-.0004 .1875,0-.0045,.0004 .1919-.0321 .1875-.0312-.0044,.0008 .1918-.0638 .1875-.0625-.0043,.0013 .1917-.0642 .1875-.0625-.0042,.0017 .1602-.0646 .1562-.0625-.004,.0021 .16-.0962 .1562-.0938-.0037,.0025 .1597-.1278 .1562-.125-.0035,.0028 .1594-.1282 .1562-.125-.0032,.0032 .1278-.1597 .125-.1562-.0028,.0035 .1275-.16 .125-.1562-.0025,.0037 .0958-.1602 .0938-.1562-.0021,.004 .0642-.1604 .0625-.1562-.0017,.0042 .0638-.1918 .0625-.1875-.0013,.0043 .0633-.1919 .0625-.1875-.0008,.0044 .0316-.192 .0312-.1875-.0004,.0045-.0001-.192 0-.1875v-19.5312c-.0001,.0045-.0004-.192 0-.1875 .0004,.0045-.0321-.1919-.0312-.1875 .0008,.0044-.0638-.1918-.0625-.1875 .0013,.0043-.0642-.1917-.0625-.1875 .0017,.0042-.0646-.1602-.0625-.1562 .0021,.004-.0962-.16-.0938-.1562 .0025,.0037-.1278-.1597-.125-.1562 .0028,.0035-.1282-.1594-.125-.1562 .0032,.0032-.1597-.1278-.1562-.125 .0035,.0028-.16-.1275-.1562-.125 .0037,.0025-.1602-.0958-.1562-.0938 .004,.0021-.1604-.0642-.1562-.0625 .0042,.0017-.1918-.0638-.1875-.0625 .0043,.0013-.1919-.0633-.1875-.0625 .0044,.0008-.192-.0316-.1875-.0312 .0045,.0004-.192,.0001-.1875,0h-3.5312c.0045,.0001-.192,.0004-.1875,0 .0045-.0004-.1919,.0321-.1875,.0312 .0044-.0008-.1918,.0638-.1875,.0625 .0043-.0013-.1917,.0642-.1875,.0625 .0042-.0017-.1602,.0646-.1562,.0625 .004-.0021-.16,.0962-.1562,.0938 .0037-.0025-.1597,.1278-.1562,.125 .0035-.0028-.1594,.1282-.1562,.125 .0032-.0032-.1278,.1597-.125,.1562 .0028,.0035-.1282-.1594-.125-.1562 .0032,.0032-.1597-.1278-.1562-.125 .0035,.0028-.16-.1275-.1562-.125 .0037,.0025-.1602-.0958-.1562-.0938 .004,.0021-.1604-.0642-.1562-.0625 .0042,.0017-.1918-.0638-.1875-.0625 .0043,.0013-.1919-.0633-.1875-.0625 .0044,.0008-.192-.0316-.1875-.0312 .0045,.0004-.192,.0001-.1875,0h-3.4062c.0023,.0002-.0961-.0001-.0938,0 .0024,.0001-.0961,0-.0938,0 .0024,0-.0961,.0001-.0938,0 .0024-.0001-.0961,.0002-.0938,0a1.0301,1.0301 0 0,0 -.0938,.0312c.0039-.0008-.1913,.0324-.1875,.0312 .0038-.0011-.1599,.0639-.1562,.0625 .0037-.0014-.1598,.0643-.1562,.0625 .0035-.0018-.1596,.0958-.1562,.0938 .0034-.0021-.1282,.0961-.125,.0938 .0032-.0023-.128,.0964-.125,.0938 .003-.0026-.1277,.1279-.125,.125 .0027-.0029-.1275,.1281-.125,.125 .0025-.0031-.0959,.1283-.0938,.125 .0022-.0033-.0956,.1597-.0938,.1562 .0019-.0035-.0641,.1599-.0625,.1562 .0016-.0036-.0637,.16-.0625,.1562 .0012-.0038-.0322,.1601-.0312,.1562 .0009-.0038-.0318,.1602-.0312,.1562 .0006-.0039-.0315,.1914-.0312,.1875 .0002-.0032 .0006,.0819 0,.125-.0001,.0108 0,.032 0,.0312v1.25c-.3033-.5977-.5823-1.1988-1.0625-1.6875-1.2873-1.3099-3.0534-2-4.9375-2-1.8607,0-3.6017,.5698-4.9375,1.7188l1.7188-5.6875v-.0312c.0083-.0305 .0005-.0956 0-.0938-.0006,.0025 .0317-.0963 .0312-.0938-.0005,.0026 .0316-.1276 .0312-.125-.0003,.0026 .0002-.0963 0-.0938-.0002,.0026 0-.1276 0-.125-0,.0026-.0001-.1276 0-.125 .0001,.0026-.0003-.0963 0-.0938 .0003,.0026-.0317-.1276-.0312-.125 .0004,.0026-.0006-.0963 0-.0938 .0006,.0025-.032-.1275-.0312-.125 .0007,.0025-.0321-.0962-.0312-.0938 .0009,.0025-.0635-.0961-.0625-.0938 .001,.0024-.0324-.1273-.0312-.125 .0011,.0023-.0638-.096-.0625-.0938 .0013,.0023-.0639-.0959-.0625-.0938 .0014,.0022-.064-.0959-.0625-.0938 .0015,.0021-.0641-.0645-.0625-.0625 .0017,.002-.0643-.0957-.0625-.0938 .0018,.0019-.0956-.0956-.0938-.0938 .0019,.0018-.0645-.0642-.0625-.0625 .002,.0017-.0958-.0641-.0938-.0625 .0021,.0016-.0959-.064-.0938-.0625 .0022,.0015-.096-.0638-.0938-.0625 .0022,.0013-.0961-.0637-.0938-.0625 .0023,.0012-.0961-.0636-.0938-.0625 .0024,.0011-.1274-.0322-.125-.0312 .0024,.0009-.0962-.032-.0938-.0312 .0025,.0008-.0963-.0319-.0938-.0312 .0025,.0006-.1276-.0317-.125-.0312 .0026,.0005-.0963-.0003-.0938,0 .0026,.0003-.1276-.0314-.125-.0312 .0026,.0002-.1276-0-.125,0h-4.0312c.0039-0-.1601,.0003-.1562,0 .0038-.0003-.1913,.0319-.1875,.0312 .0038-.0007-.16,.0322-.1562,.0312 .0037-.001-.1599,.0638-.1562,.0625 .0036-.0013-.1597,.0641-.1562,.0625 .0035-.0016-.1283,.0644-.125,.0625 .0033-.0019-.1594,.0959-.1562,.0938 .0032-.0022-.128,.0962-.125,.0938 .003-.0024-.1278,.1277-.125,.125 .0028-.0027-.1275,.0967-.125,.0938 .0025-.0029-.096,.1594-.0938,.1562 .0023-.0031-.0957,.1283-.0938,.125 .002-.0033-.0642,.1597-.0625,.1562 .0017-.0035-.0639,.1286-.0625,.125 .0014-.0036-.0636,.1599-.0625,.1562 .0009-.0031-.0224,.1204-.0312,.1562-.0017,.0069-.0001,.0319 0,.0312l-.7188,3.125-.7812-3.2188c.0009,.0037-.0324-.1598-.0312-.1562 .0012,.0036-.064-.1285-.0625-.125 .0015,.0035-.0643-.1596-.0625-.1562 .0018,.0033-.0958-.1594-.0938-.1562 .002,.0032-.096-.128-.0938-.125 .0023,.003-.0963-.1278-.0938-.125 .0025,.0028-.1278-.0963-.125-.0938 .0028,.0026-.128-.1273-.125-.125 .003,.0023-.1281-.0958-.125-.0938 .0031,.0021-.1283-.0643-.125-.0625 .0033,.0018-.1597-.0953-.1562-.0938 .0035,.0015-.1598-.0637-.1562-.0625 .0036,.0012-.1599-.0322-.1562-.0312 .0037,.0009-.16-.0319-.1562-.0312 .0037,.0006-.16-.0315-.1562-.0312 .0038,.0003-.16,0-.1562,0h-3.9375c.0016,.0001-.0321,.0008-.0625,0-.0152-.0004-.032,0-.0312,0 .0024,0-.1274,.0001-.125,0a1.0301,1.0301 0 0,0 -.0625,0z"/>
<path opacity=".3" d="m29.8438,11.5312a.8951,.8951 0 0,0 -.8438,1.1562l4.6562,15.75v.0312 10.4375a.8951,.8951 0 0,0 .9062,.9062h3.9375a.8951,.8951 0 0,0 .9062-.9062v-10.9375-.0312l4.5625-15.25a.8951,.8951 0 0,0 -.8438-1.1562h-4.0312a.8951,.8951 0 0,0 -.875,.7188l-1.6875,7.4062-1.8125-7.4375a.8951,.8951 0 0,0 -.875-.6875h-4zm18.3438,6.4688c-1.764,0-3.3332,.5179-4.4688,1.5938-1.127,1.0677-1.6875,2.5565-1.6875,4.25v10.125c0,1.8213 .5262,3.4251 1.625,4.5938 1.0924,1.1624 2.6173,1.75 4.3438,1.75 1.7782,0 3.344-.5765 4.4375-1.7188 1.0973-1.1463 1.5938-2.7369 1.5938-4.5625v-10.0625c0-1.6668-.5575-3.1632-1.6562-4.2812-1.0921-1.1113-2.5441-1.6875-4.1875-1.6875zm7.9375,.4688a.8951,.8951 0 0,0 -.9062,.9062v16.3438c0,1.2717 .2465,2.3266 .8125,3.125 .5622,.7935 1.5034,1.25 2.5312,1.25 .8495,0 1.7192-.2694 2.5312-.75 .2286-.1355 .4094-.3968 .625-.5625v.125a.8951,.8951 0 0,0 .9062,.9062h3.5312a.8951,.8951 0 0,0 .9062-.9062v-19.5312a.8951,.8951 0 0,0 -.9062-.9062h-3.5312a.8951,.8951 0 0,0 -.9062,.9062v14.4688c-.2178,.251-.4113,.4858-.6562,.6562-.3035,.2108-.5454,.25-.5,.25 .0045-.0065-.0312-.0847-.0312-.4062v-14.9688a.8951,.8951 0 0,0 -.9062-.9062h-3.5zm-8.125,4.7188c.32,0 .4384,.0398 .5312,.125 .0897,.0823 .125,.1919 .125,.4062v10.625c0,.3458-.0612,.4587-.1875,.5938-.1286,.1371-.2049,.1875-.4688,.1875-.279,0-.2967-.0332-.375-.125-.0718-.084-.1562-.2568-.1562-.6562v-10.625c0-.2336 .0512-.3654 .125-.4375 .0937-.0916 .1348-.0938 .4062-.0938z"/>
</g>
<path fill="url(#linearGradient3827)" d="m66.1509,19.3878 0,19.5225-3.5135,0 0-2.1551c-.6476,.794-1.3214,1.3993-2.0217,1.8145-.7004,.4145-1.3805,.6226-2.0393,.6226-.8123,0-1.4247-.2902-1.8367-.8718-.412-.5812-.6178-1.4529-.6178-2.6153v-16.3173h3.5136v14.9652c0,.4631 .0735,.7976 .2206,1.0046 .1471,.2071 .3853,.3108 .7153,.3108 .2591,0 .5853-.1368 .9797-.4109 .3944-.2744 .7563-.6244 1.0863-1.0511v-14.8186h3.5135zm-23.2112,4.4632c0-1.5119 .4728-2.7156 1.4189-3.6119 .9461-.8964 2.2173-1.3447 3.8142-1.3447 1.4541,0 2.6453,.473 3.5738,1.4178 .9285,.9449 1.3927,2.1612 1.3927,3.6489v10.0832c0,1.6708-.4558,2.9815-1.3661,3.9325-.9104,.951-2.164,1.4267-3.7604,1.4267-1.5372,0-2.7673-.4912-3.6895-1.4724-.9226-.9812-1.3837-2.3013-1.3837-3.9599v-10.1203zm3.6159,10.4858c0,.5376 .1247,.9521 .3752,1.2452 .2499,.2928 .607,.4386 1.0719,.4386 .4765,0 .8544-.1491 1.1348-.4479 .2798-.2992 .42-.7108 .42-1.2358v-10.6323c0-.4267-.1435-.7714-.4291-1.0334-.2857-.2621-.6609-.3937-1.1257-.3937-.4286,0-.7771,.1315-1.0452,.3937-.2681,.2621-.4019,.6067-.4019,1.0334v10.6323zm-16.7065-21.8911 3.9853,0 2.5674,10.5783 .2484,0 2.448-10.5783 4.0205,0-4.6052,15.4832 0,10.9814-3.9571,0 0-10.487-4.7075-15.9776z"/>
<g transform="matrix(1.93981 0 0 1.92074 -65.54587 -18.97431)">
<path fill="url(#linearGradient4220-1)" d="m73.7932,37.4075c0-2.4375-2.0008-4.4153-4.4664-4.4153-3.519-.1469-7.1197-.2121-10.7922-.2054-3.6726-.0067-7.2731,.0585-10.7923,.2054-2.4654,0-4.4663,1.9778-4.4663,4.4153-.148,1.9305-.2122,3.861-.2065,5.7915-.0057,1.9305 .0585,3.861 .2065,5.7915 0,2.4375 2.0009,4.4154 4.4664,4.4154 3.5191,.1469 7.1196,.212 10.7922,.2052 3.6726,.0069 7.2733-.0583 10.7922-.2052 2.4656,0 4.4664-1.9779 4.4664-4.4154 .148-1.9306 .2122-3.8611 .2065-5.7915 .0057-1.9305-.0584-3.8611-.2065-5.7915z"/>
<path fill="#fff" mask="url(#SVGID_2_-7)" d="m496.2573,8.27 .127,.0059h.127c22.4648,0 40.7402,18.0361 40.7402,40.2036v.2344l.0195,.2329c1.4863,19.3975 2.209,39.6777 2.1484,60.2744 .0605,20.6338-.6621,40.9141-2.1484,60.3125l-.0195,.2324v.2344c0,22.1699-18.2754,40.2051-40.7402,40.2051h-.127l-.127,.004c-35.8809,1.4981-73.8867,2.2207-112.957,2.1484-39.0938,.0723-77.0976-.6504-112.979-2.1484l-.1274-.004h-.1274c-22.4649,0-40.7407-18.0352-40.7407-40.2051v-.2344l-.0181-.2324c-1.4868-19.3887-2.21-39.668-2.1489-60.2773-.0615-20.6348 .6611-40.915 2.1484-60.3096l.0181-.2329v-.2344c0-22.1675 18.2759-40.2036 40.7402-40.2036h.1279l.1274-.0059c35.876-1.4976 73.8818-2.2202 112.9561-2.1489 39.0996-.0713 77.1055,.6514 112.9805,2.1489z" transform="matrix(.09532 0 0 .09532 22 32.78641)"/>
</g>
<g transform="matrix(.1849 0 0 .18308 -22.87007 44)">
<path d="m314.2319,33.8794h-68.0454v20.8345h22.9365v122.7105h22.1714v-122.7105h22.9375v-20.8345zm36.2383,118.0312c-1.8476,2.3145-3.877,4.2149-6.0859,5.7012-2.2109,1.4883-4.0391,2.2285-5.4902,2.2285-1.8476,0-3.1836-.5625-4.0078-1.6855-.8242-1.1211-1.2363-2.9375-1.2363-5.4492v-81.1719h-19.6875v88.5059c0,6.3047 1.1543,11.0332 3.4629,14.1875 2.3086,3.1523 5.7402,4.7266 10.291,4.7266 3.6914,0 7.502-1.1289 11.4258-3.3769 3.9258-2.2519 7.6992-5.5352 11.3281-9.8418v11.6895h19.6875v-105.8906h-19.6875v80.3769zm76.2774-81.7148c-3.0527,0-6.0684,.8423-9.0527,2.5239-2.9824,1.6841-5.7988,4.1392-8.4512,7.3706v-46.2109h-19.8789v143.5449h19.8789v-8.1406c2.5859,3.2246 5.3887,5.6113 8.4043,7.1582 3.0156,1.5469 6.4473,2.3203 10.2949,2.3203 5.832,0 10.291-1.9941 13.373-5.9902 3.082-3.9961 4.627-9.7578 4.627-17.2871v-58.7446c0-8.6489-1.6426-15.2373-4.9258-19.7588-3.2812-4.5215-8.0391-6.7856-14.2695-6.7856zm-1.0664,82.4102c0,3.375-.5703,5.8105-1.7051,7.2969-1.1348,1.4883-2.9062,2.2305-5.3105,2.2305-1.6719,0-3.2578-.3789-4.7617-1.1406-1.5059-.7578-3.0586-2-4.6602-3.7207v-65.9883c1.3359-1.4541 2.6875-2.5293 4.0586-3.2251 1.3691-.6929 2.7578-1.0425 4.1601-1.0425 2.6699,0 4.7109,.9287 6.1133,2.7803 1.4043,1.8521 2.1055,4.5635 2.1055,8.1357v54.6738zm93.0273-25.6426v-26.959c0-10.0493-2.4199-17.7519-7.252-23.1094-4.8359-5.3579-11.7559-8.0371-20.7617-8.0371-8.8105,0-15.9961,2.894-21.5566,8.6787-5.5645,5.7881-8.3457,13.2754-8.3457,22.4678v47.5273c0,10.1934 2.5332,18.2012 7.5977,24.0254 5.0664,5.8223 12.0039,8.7344 20.8145,8.7344 9.8008,0 17.1699-2.748 22.1035-8.2402 4.9336-5.4922 7.4004-13.666 7.4004-24.5195v-7.9531h-20.2617v7.3594c0,6.2305-.6504,10.2598-1.9492,12.0801-1.2988,1.8223-3.582,2.7344-6.8457,2.7344-3.1367,0-5.3516-1.0762-6.6504-3.2324-1.2988-2.1523-1.9473-6.0156-1.9473-11.582v-19.9746h37.6543zm-37.6543-27.1558c0-4.4321 .6797-7.6099 2.0488-9.5303 1.3652-1.9175 3.6133-2.8789 6.7461-2.8789 2.998,0 5.1816,.9614 6.5488,2.8789 1.3652,1.9204 2.0488,5.0981 2.0488,9.5303v10.7183h-17.3926v-10.7183z"/>
<path fill="#fff" d="m314.2319,35.4087h-68.0454v20.834h22.9365v122.7109h22.1714v-122.7109h22.9375v-20.834zm36.2383,118.0312c-1.8476,2.3144-3.877,4.2149-6.0859,5.7012-2.2109,1.4883-4.0391,2.2285-5.4902,2.2285-1.8476,0-3.1836-.5625-4.0078-1.6856-.8242-1.123-1.2363-2.9375-1.2363-5.4492v-81.1719h-19.6875v88.5059c0,6.3047 1.1543,11.0332 3.4629,14.1875 2.3086,3.1523 5.7402,4.7266 10.291,4.7266 3.6914,0 7.502-1.1289 11.4258-3.3769 3.9258-2.252 7.6992-5.5352 11.3281-9.8418v11.6894h19.6875v-105.8906h-19.6875v80.377zm76.2774-81.7148c-3.0527,0-6.0684,.8423-9.0527,2.5234-2.9824,1.6846-5.7988,4.1396-8.4512,7.3711v-46.2109h-19.8789v143.5449h19.8789v-8.1406c2.5859,3.2246 5.3887,5.6113 8.4043,7.1582 3.0156,1.5469 6.4473,2.3203 10.2949,2.3203 5.832,0 10.291-1.9941 13.373-5.9902 3.082-3.9961 4.627-9.7578 4.627-17.2871v-58.7446c0-8.6489-1.6426-15.2373-4.9258-19.7593-3.2812-4.5215-8.0391-6.7852-14.2695-6.7852zm-1.0664,82.4102c0,3.375-.5703,5.8086-1.7051,7.2969-1.1348,1.4863-2.9062,2.2305-5.3105,2.2305-1.6719,0-3.2578-.3789-4.7617-1.1406-1.5059-.7578-3.0586-2-4.6602-3.7207v-65.9883c1.3359-1.4546 2.6875-2.5298 4.0586-3.2256 1.3691-.6929 2.7578-1.042 4.1601-1.042 2.6699,0 4.7109,.9287 6.1133,2.7803 1.4043,1.8516 2.1055,4.5635 2.1055,8.1353v54.6743zm93.0273-25.6426v-26.959c0-10.0498-2.4199-17.752-7.252-23.1099-4.8359-5.3579-11.7559-8.0366-20.7617-8.0366-8.8105,0-15.9961,2.894-21.5566,8.6787-5.5645,5.7881-8.3457,13.2754-8.3457,22.4678v47.5273c0,10.1934 2.5332,18.2012 7.5977,24.0254 5.0664,5.8223 12.0039,8.7344 20.8145,8.7344 9.8008,0 17.1699-2.7481 22.1035-8.2402 4.9336-5.4922 7.4004-13.666 7.4004-24.5195v-7.9531h-20.2617v7.3594c0,6.2305-.6504,10.2598-1.9492,12.0801-1.2988,1.8223-3.582,2.7324-6.8457,2.7324-3.1367,0-5.3516-1.0742-6.6504-3.2305-1.2988-2.1543-1.9473-6.0156-1.9473-11.582v-19.9746h37.6543zm-37.6543-27.1562c0-4.4316 .6797-7.6094 2.0488-9.5298 1.3652-1.9175 3.6133-2.8789 6.7461-2.8789 2.998,0 5.1816,.9614 6.5488,2.8789 1.3652,1.9204 2.0488,5.0981 2.0488,9.5298v10.7188h-17.3926v-10.7188z"/>
</g>
<path opacity=".2" fill="#fff" d="m48,44c-7.1241-.0129-14.1109,.1241-20.9375,.4062-4.7824,0-8.6562,3.7869-8.6562,8.4688-.2411,3.1142-.3473,6.2294-.375,9.3438 .0438-2.781 .1597-5.5628 .375-8.3438 0-4.6818 3.8739-8.4688 8.6562-8.4688 6.8266-.2821 13.8134-.4191 20.9375-.4062 7.1241-.0129 14.1114,.1241 20.9375,.4062 4.7828,0 8.6562,3.7869 8.6562,8.4688 .2153,2.781 .3312,5.5627 .375,8.3438-.0277-3.1143-.1339-6.2295-.375-9.3438 0-4.6818-3.8734-8.4688-8.6562-8.4688-6.8261-.2821-13.8134-.4191-20.9375-.4062z"/>
</svg>
