<svg xmlns="http://www.w3.org/2000/svg" viewBox="0 0 96 96" xmlns:xlink="http://www.w3.org/1999/xlink">
<defs>
<clipPath id="clipPath3724">
<path opacity=".2" fill="#f0f" d="m32,24 0,48 48,0 0-48-48,0zm25.375,6c2.2773,0 4.3688,.3805 6.2812,1.125 1.9124,.73 3.5819,1.7694 4.9688,3.1562 1.4014,1.3723 2.4762,3.0771 3.25,5.0625 .7737,1.9708 1.1562,4.1745 1.1562,6.6562-0,.9051-.0728,1.8303-.2188,2.75-.1314,.9051-.3164,1.7616-.5938,2.5938-.2628,.8175-.6079,1.5972-1.0312,2.3125-.4088,.7007-.914,1.3182-1.4688,1.8438-.5548,.5256-1.191,.9434-1.9062,1.25-.7008,.292-1.4658,.4375-2.3125,.4375-.657,0-1.2411-.1248-1.7812-.3438-.5256-.219-.9955-.51-1.375-.875-.3796-.365-.6893-.7828-.9375-1.25-.2336-.4817-.3812-.989-.4688-1.5h-.0938c-.2628,.5402-.6059,1.0808-1,1.5625-.3942,.4818-.8495,.885-1.375,1.25-.511,.3504-1.0931,.6394-1.75,.8438-.6424,.2044-1.3513,.3125-2.125,.3125-1.1241,0-2.1241-.2162-3-.625-.8613-.4088-1.589-.9888-2.1875-1.7188-.5986-.7445-1.0538-1.6197-1.375-2.6562-.3066-1.0365-.4688-2.182-.4688-3.4375-0-1.4744 .2329-2.8362 .6562-4.0625 .4379-1.2263 1.0408-2.2657 1.8438-3.1562 .8175-.8905 1.8154-1.5974 2.9688-2.0938 1.1533-.4963 2.4443-.75 3.875-.75 .6569,0 1.3118,.0354 1.9688,.0938 .6569,.0584 1.2764,.1478 1.875,.25 .5985,.1022 1.1599,.2124 1.6562,.3438 .5109,.1168 .9142,.227 1.25,.3438l-.5,9.125c-.0146,.3212-.0167,.5769-.0312,.7812-0,.1898-0,.352 0,.4688-0,.1168-0,.1916 0,.25-0,.0584-0,.1125 0,.1562-0,.7737 .0727,1.4099 .2188,1.9062 .1606,.4964 .3455,.8955 .5938,1.1875 .2481,.292 .5372,.477 .8438,.5938 .3211,.1022 .6642,.1563 1,.1562 .6715,0 1.239-.2183 1.75-.6562 .5109-.4525 .9455-1.0534 1.2812-1.8125 .3503-.7591 .606-1.6343 .7812-2.6562 .1751-1.0219 .2812-2.1113 .2812-3.25-0-2.073-.341-3.9254-.9688-5.5312-.6278-1.6204-1.4843-2.9842-2.5938-4.0938-1.1095-1.1095-2.4359-1.9306-3.9688-2.5-1.5183-.5839-3.1732-.875-4.9688-.875-2.4672,0-4.6481,.4013-6.5312,1.2188-1.8832,.8029-3.4653,1.9152-4.75,3.375-1.2701,1.4453-2.2181,3.1875-2.875,5.1875-.6569,1.9854-1,4.1663-1,6.5312-0,2.2044 .3057,4.1357 .875,5.8438 .5839,1.708 1.4218,3.1446 2.5312,4.3125 1.1241,1.1679 2.5066,2.0577 4.1562,2.6562 1.6642,.5985 3.5727,.9062 5.7188,.9062 .8905,0 1.7637-.0541 2.625-.1562 .8759-.1022 1.7283-.2311 2.5312-.4062 .8175-.1752 1.5825-.3748 2.3125-.5938 .7299-.2336 1.4035-.4706 2.0312-.7188v3.0938c-1.2555,.5547-2.6734,.9913-4.25,1.3125-1.5767,.3212-3.321,.4688-5.2188,.4688-2.6132,0-4.9416-.3805-7-1.125-2.0438-.7445-3.7881-1.8027-5.2188-3.2188-1.4161-1.4307-2.4742-3.175-3.2188-5.2188-.7445-2.0584-1.125-4.3869-1.125-7-0-2.7445 .4199-5.3225 1.2812-7.6875 .8613-2.3795 2.0963-4.419 3.6875-6.1562 1.6058-1.7372 3.5497-3.101 5.8125-4.0938 2.2774-.9927 4.8075-1.5 7.625-1.5zm-.4688,11.5312c-1.0803,0-2.0055,.2017-2.75,.625-.7299,.4234-1.3141,.9701-1.7812,1.6562-.4526,.6861-.7956,1.4679-1,2.3438-.2044,.8759-.3125,1.7824-.3125,2.6875-0,1.9416 .3638,3.3428 1.0938,4.2188 .7445,.8613 1.7591,1.2813 3,1.2812 .8029,0 1.4931-.1476 2.0625-.4688 .5693-.3358 1.01-.8077 1.375-1.4062 .3649-.6131 .6539-1.3241 .8438-2.1562 .1898-.8467 .3166-1.7739 .375-2.7812l.3125-5.5625c-.4088-.1168-.8994-.2249-1.4688-.3125-.5548-.1022-1.1369-.125-1.75-.125z"/>
</clipPath>
<clipPath id="clipPath3674">
<g fill="#fff" line-height="125%" transform="translate(0 -.5)">
<path d="m73.0365,46.0073c-0,.9051-.073,1.8175-.219,2.7372-.1314,.9051-.3358,1.7737-.6131,2.6058-.2628,.8175-.6059,1.584-1.0292,2.2993-.4088,.7007-.8905,1.3139-1.4453,1.8394-.5548,.5256-1.1898,.9416-1.9051,1.2482-.7008,.292-1.4745,.438-2.3212,.438-.657,0-1.2555-.1095-1.7956-.3285-.5256-.219-.9781-.5109-1.3577-.8759-.3796-.365-.6935-.781-.9416-1.2482-.2336-.4817-.3942-.9781-.4818-1.4891h-.0876c-.2628,.5402-.5913,1.0511-.9854,1.5328-.3942,.4818-.854,.9051-1.3796,1.2701-.511,.3504-1.0949,.6277-1.7518,.8321-.6424,.2044-1.3504,.3066-2.1241,.3066-1.1241,0-2.1241-.2044-3-.6131-.8613-.4088-1.5913-.9781-2.1898-1.708-.5986-.7445-1.0584-1.635-1.3796-2.6715-.3066-1.0365-.4599-2.1825-.4599-3.438-0-1.4744 .2117-2.8248 .635-4.0511 .4379-1.2263 1.0584-2.2847 1.8613-3.1752 .8175-.8905 1.8029-1.5839 2.9562-2.0803 1.1533-.4963 2.4452-.7445 3.8759-.7445 .6569,0 1.3138,.0292 1.9708,.0876 .6569,.0584 1.2846,.1387 1.8832,.2409 .5985,.1022 1.146,.219 1.6423,.3504 .5109,.1168 .9343,.2336 1.2701,.3504l-.5036,9.1095c-.0146,.3212-.0292,.584-.0438,.7883-0,.1898-0,.3431 0,.4599-0,.1168-0,.2044 0,.2628-0,.0584-0,.1095 0,.1533-0,.7737 .073,1.4088 .219,1.9051 .1606,.4964 .3649,.8905 .6131,1.1825 .2481,.292 .5255,.4964 .8321,.6131 .3211,.1022 .6496,.1533 .9854,.1533 .6715,0 1.2627-.219 1.7737-.6569 .5109-.4525 .9343-1.0584 1.2701-1.8175 .3503-.7591 .6131-1.6496 .7883-2.6715 .1751-1.0219 .2627-2.1022 .2628-3.2409-0-2.073-.3139-3.9124-.9416-5.5182-.6278-1.6204-1.4964-2.9854-2.6058-4.0949-1.1095-1.1095-2.4307-1.9489-3.9635-2.5182-1.5183-.5839-3.1752-.8759-4.9708-.8759-2.4672,0-4.6424,.4088-6.5255,1.2263-1.8832,.8029-3.4672,1.9343-4.7518,3.3942-1.2701,1.4453-2.2336,3.1679-2.8905,5.1679-.6569,1.9854-.9854,4.1606-.9854,6.5255-0,2.2044 .2847,4.1606 .854,5.8686 .5839,1.708 1.4306,3.146 2.5401,4.3139 1.1241,1.1679 2.5109,2.0511 4.1606,2.6496 1.6642,.5985 3.5693,.8978 5.7153,.8978 .8905-0 1.7664-.0511 2.6277-.1533 .8759-.1022 1.7153-.2409 2.5182-.4161 .8175-.1752 1.5912-.3723 2.3212-.5912 .7299-.2336 1.4087-.4745 2.0365-.7226v3.0876c-1.2555,.5547-2.6716,.9927-4.2482,1.3139-1.5767,.3212-3.3139,.4817-5.2117,.4818-2.6132-0-4.9489-.3723-7.0073-1.1168-2.0438-.7445-3.781-1.8248-5.2117-3.2409-1.4161-1.4307-2.4964-3.1679-3.2409-5.2117-.7445-2.0584-1.1168-4.3941-1.1168-7.0073-0-2.7445 .4307-5.2993 1.292-7.6642 .8613-2.3795 2.0876-4.4379 3.6788-6.1752 1.6058-1.7372 3.5401-3.1022 5.8029-4.0949 2.2774-.9927 4.8248-1.489 7.6423-1.4891 2.2773,0 4.3722,.3723 6.2847,1.1168 1.9124,.73 3.562,1.7883 4.9489,3.1752 1.4014,1.3723 2.489,3.0511 3.2628,5.0365 .7737,1.9708 1.1605,4.1971 1.1606,6.6788m-21.9635,2.8248c-0,1.9416 .3649,3.3504 1.0949,4.2263 .7445,.8613 1.7372,1.292 2.9781,1.292 .8029,0 1.489-.1606 2.0584-.4818 .5693-.3358 1.0365-.8029 1.4015-1.4015 .3649-.6131 .6423-1.3358 .8321-2.1679 .1898-.8467 .3138-1.7737 .3723-2.781l.3066-5.5401c-.4088-.1168-.8978-.219-1.4672-.3066-.5548-.1022-1.1387-.1533-1.7518-.1533-1.0803,0-1.9927,.2117-2.7372,.635-.7299,.4234-1.3285,.9781-1.7956,1.6642-.4526,.6861-.781,1.4672-.9854,2.3431-.2044,.8759-.3066,1.7664-.3066,2.6715"/>
</g>
</clipPath>
<clipPath id="clipPath3613">
<path fill="#fff" d="m12,6h72a6,6 0 0,1 6,6v72a6,6 0 0,1 -6,6h-72a6,6 0 0,1 -6-6v-72a6,6 0 0,1 6-6"/>
</clipPath>
<filter width="1.384" x="-.192" y="-.192" height="1.384" color-interpolation-filters="sRGB" id="filter3794">
<feGaussianBlur stdDeviation="5.28"/>
</filter>
<filter color-interpolation-filters="sRGB" id="filter3669">
<feGaussianBlur stdDeviation=".52555"/>
</filter>
<linearGradient id="linearGradient3646" xlink:href="#linearGradient3640" y1="88" y2="8" x2="0" gradientUnits="userSpaceOnUse"/>
<linearGradient id="linearGradient3751" xlink:href="#linearGradient3745" y1="22" y2="26" x2="0" gradientUnits="userSpaceOnUse"/>
<linearGradient gradientTransform="matrix(1.02381 0 0 1.0119 -1.14286 -98.07143)" id="linearGradient3780" xlink:href="#ButtonShadow-0" y1="6.132" y2="90.239" x2="0" gradientUnits="userSpaceOnUse"/>
<linearGradient gradientTransform="matrix(1.00587 0 0 .99417 100 0)" id="ButtonShadow-0" y1="92.54" y2="7.017" x2="0" gradientUnits="userSpaceOnUse">
<stop offset="0"/>
<stop offset="1" stop-opacity=".588"/>
</linearGradient>
<linearGradient spreadMethod="reflect" id="linearGradient3767" xlink:href="#linearGradient3761" x1="4" x2="12" gradientUnits="userSpaceOnUse"/>
<linearGradient gradientTransform="matrix(0 1 1 0 -10 10)" id="linearGradient3784" xlink:href="#linearGradient3778" x1="10" x2="18" gradientUnits="userSpaceOnUse"/>
<linearGradient id="linearGradient3633" xlink:href="#linearGradient3627" y1="90" y2="5.979" x2="0" gradientUnits="userSpaceOnUse"/>
<linearGradient id="linearGradient3627">
<stop offset="0" stop-color="#5f101a"/>
<stop offset="1" stop-color="#811524"/>
</linearGradient>
<linearGradient id="linearGradient3745">
<stop offset="0" stop-color="#8a8a8a"/>
<stop offset=".41" stop-color="#d5d5d5"/>
<stop offset=".727" stop-color="#6f6f6f"/>
<stop offset="1" stop-color="#373737"/>
</linearGradient>
<linearGradient id="linearGradient3778">
<stop offset="0"/>
<stop offset=".5" stop-opacity="0"/>
<stop offset="1" stop-color="#fff"/>
</linearGradient>
<linearGradient id="linearGradient3761">
<stop offset="0"/>
<stop offset=".5" stop-opacity=".194"/>
<stop offset="1" stop-opacity="0"/>
</linearGradient>
<linearGradient id="linearGradient3640">
<stop offset="0" stop-color="#1a1a1a"/>
<stop offset="1" stop-color="#2a2a2a"/>
</linearGradient>
<linearGradient gradientTransform="translate(0 -97)" id="linearGradient3721" xlink:href="#ButtonShadow-0" y1="6.132" y2="90.239" x2="0" gradientUnits="userSpaceOnUse"/>
<linearGradient id="linearGradient3613" xlink:href="#linearGradient3737" y1="20.221" y2="138.661" x2="0" gradientUnits="userSpaceOnUse"/>
<linearGradient id="linearGradient3188" xlink:href="#linearGradient3737" y1="6" y2="63.893" x2="0" gradientUnits="userSpaceOnUse"/>
<linearGradient id="linearGradient3737">
<stop offset="0" stop-color="#fff"/>
<stop offset="1" stop-color="#fff" stop-opacity="0"/>
</linearGradient>
<radialGradient cx="48" cy="90.172" gradientTransform="matrix(1.15731 0 0 .99591 -7.55102 .19713)" r="42" id="radialGradient3619" xlink:href="#linearGradient3737" gradientUnits="userSpaceOnUse"/>
</defs>
<path opacity=".08" fill="url(#linearGradient3780)" d="m12-95.0312c-5.5111,0-10.0312,4.5202-10.0312,10.0312v71c0,5.5111 4.5202,10.0312 10.0312,10.0312h72c5.5111,0 10.0312-4.5202 10.0312-10.0312v-71c0-5.5111-4.5202-10.0312-10.0312-10.0312h-72z" transform="scale(1 -1)"/>
<path opacity=".1" fill="url(#linearGradient3780)" d="m12-94.0312c-4.9716,0-9.0312,4.0596-9.0312,9.0312v71c0,4.9716 4.0596,9.0312 9.0312,9.0312h72c4.9716,0 9.0312-4.0596 9.0312-9.0312v-71c0-4.9716-4.0596-9.0312-9.0312-9.0312h-72z" transform="scale(1 -1)"/>
<path opacity=".2" fill="url(#linearGradient3780)" d="m12-93c-4.4091,0-8,3.5909-8,8v71c0,4.4091 3.5909,8 8,8h72c4.4091,0 8-3.5909 8-8v-71c0-4.4091-3.5909-8-8-8h-72z" transform="scale(1 -1)"/>
<path opacity=".3" fill="url(#linearGradient3780)" d="m12-92h72a7,7 0 0,1 7,7v71a7,7 0 0,1 -7,7h-72a7,7 0 0,1 -7-7v-71a7,7 0 0,1 7-7" transform="scale(1 -1)"/>
<path opacity=".45" fill="url(#linearGradient3721)" d="m12-91h72a6,6 0 0,1 6,6v72a6,6 0 0,1 -6,6h-72a6,6 0 0,1 -6-6v-72a6,6 0 0,1 6-6" transform="scale(1 -1)"/>
<path fill="url(#linearGradient3633)" d="m12,6h72a6,6 0 0,1 6,6v72a6,6 0 0,1 -6,6h-72a6,6 0 0,1 -6-6v-72a6,6 0 0,1 6-6"/>
<path opacity=".15" fill="#fff" d="m24,6h1v84h-1z"/>
<path fill="url(#linearGradient3646)" d="m12,6c-3.324,0-6,2.676-6,6v72c0,3.324 2.676,6 6,6h12v-84h-12z"/>
<path opacity=".4" d="m23,6h1v84h-1z"/>
<path opacity=".3" fill="url(#linearGradient3188)" d="m12,6c-3.324,0-6,2.676-6,6v2 68 2c0,.3347 .0413,.6507 .0938,.9688 .0487,.2956 .097,.5969 .1875,.875 .0099,.0304 .0209,.0636 .0312,.0938 .0989,.2878 .2349,.5475 .375,.8125 .1446,.2735 .3156,.5356 .5,.7812 .1844,.2456 .3738,.4735 .5938,.6875 .4399,.4281 .9429,.8145 1.5,1.0938 .2785,.1396 .5735,.2469 .875,.3438-.2562-.1002-.4867-.2363-.7188-.375-.0074-.0044-.0239,.0045-.0312,0-.0319-.0193-.0623-.0425-.0938-.0625-.1204-.0767-.231-.1635-.3438-.25-.1062-.0808-.2133-.1611-.3125-.25-.1779-.1614-.3475-.3454-.5-.5312-.1076-.1303-.2184-.2653-.3125-.4062-.0251-.0384-.0384-.0859-.0625-.125-.0648-.103-.1302-.2045-.1875-.3125-.101-.1947-.2057-.4157-.2812-.625-.008-.0218-.0236-.0405-.0312-.0625-.0318-.0919-.0358-.1868-.0625-.2812-.0303-.1066-.0704-.203-.0938-.3125-.0729-.3415-.125-.6982-.125-1.0625v-2-68-2c0-2.7818 2.2182-5 5-5h2 68 2c2.7818,0 5,2.2182 5,5v2 68 2c0,.3643-.0521,.721-.125,1.0625-.0442,.2069-.0884,.3977-.1562,.5938-.0077,.022-.0233,.0407-.0312,.0625-.0627,.1737-.1384,.3674-.2188,.5312-.0416,.0828-.079,.17-.125,.25-.0546,.0972-.1268,.1883-.1875,.2812-.0941,.141-.2049,.276-.3125,.4062-.1432,.1744-.3031,.347-.4688,.5-.0112,.0102-.02,.0212-.0312,.0312-.1384,.1256-.2851,.2344-.4375,.3438-.1026,.0731-.2043,.1534-.3125,.2188-.0074,.0045-.0238-.0044-.0312,0-.232,.1387-.4625,.2748-.7188,.375 .3015-.0968 .5965-.2041 .875-.3438 .5571-.2792 1.0601-.6657 1.5-1.0938 .22-.214 .4094-.4419 .5938-.6875 .1844-.2456 .3554-.5077 .5-.7812 .1401-.265 .2761-.5247 .375-.8125 .0104-.0308 .0213-.0627 .0312-.0938 .0905-.2781 .1388-.5794 .1875-.875 .0524-.318 .0938-.634 .0938-.9688v-2-68-2c0-3.324-2.676-6-6-6h-72z"/>
<path opacity=".2" fill="url(#radialGradient3619)" d="m12,90c-3.324,0-6-2.676-6-6v-2-68-2c0-.3347 .0413-.6507 .0938-.9688 .0487-.2956 .097-.5969 .1875-.875 .0099-.0304 .0209-.0636 .0312-.0938 .0989-.2878 .2349-.5475 .375-.8125 .1446-.2735 .3156-.5356 .5-.7812 .1844-.2456 .3738-.4735 .5938-.6875 .4399-.4281 .9429-.8145 1.5-1.0938 .2785-.1396 .5735-.2469 .875-.3438-.2562,.1002-.4867,.2363-.7188,.375-.0074,.0044-.0239-.0045-.0312,0-.0319,.0193-.0623,.0425-.0938,.0625-.1204,.0767-.231,.1635-.3438,.25-.1062,.0808-.2133,.1611-.3125,.25-.1779,.1614-.3475,.3454-.5,.5312-.1076,.1303-.2184,.2653-.3125,.4062-.0251,.0384-.0384,.0859-.0625,.125-.0648,.103-.1302,.2045-.1875,.3125-.101,.1947-.2057,.4157-.2812,.625-.008,.0218-.0236,.0405-.0312,.0625-.0318,.092-.0358,.1868-.0625,.2812-.0303,.1066-.0704,.203-.0938,.3125-.0729,.3415-.125,.6982-.125,1.0625v2 68 2c0,2.7818 2.2182,5 5,5h2 68 2c2.7818,0 5-2.2182 5-5v-2-68-2c0-.3643-.0521-.721-.125-1.0625-.0442-.2069-.0884-.3977-.1562-.5938-.0077-.022-.0233-.0407-.0312-.0625-.0627-.1737-.1384-.3674-.2188-.5312-.0416-.0828-.079-.17-.125-.25-.0546-.0972-.1268-.1883-.1875-.2812-.0941-.141-.2049-.276-.3125-.4062-.1432-.1745-.3031-.347-.4688-.5-.0112-.0102-.02-.0211-.0312-.0312-.1384-.1256-.2851-.2344-.4375-.3438-.1026-.0732-.2043-.1534-.3125-.2188-.0074-.0045-.0238,.0044-.0312,0-.232-.1387-.4625-.2748-.7188-.375 .3015,.0968 .5965,.2041 .875,.3438 .5571,.2792 1.0601,.6657 1.5,1.0938 .22,.214 .4094,.4419 .5938,.6875 .1844,.2456 .3554,.5077 .5,.7812 .1401,.265 .2761,.5247 .375,.8125 .0104,.0308 .0213,.0627 .0312,.0938 .0905,.2781 .1388,.5794 .1875,.875 .0524,.318 .0938,.634 .0938,.9688v2 68 2c0,3.324-2.676,6-6,6h-72z"/>
<path opacity=".1" fill="url(#linearGradient3613)" filter="url(#filter3794)" stroke="#fff" stroke-linecap="round" stroke-width=".5" d="m27,15h42a12,12 0 0,1 12,12v42a12,12 0 0,1 -12,12h-42a12,12 0 0,1 -12-12v-42a12,12 0 0,1 12-12" clip-path="url(#clipPath3613)"/>
<g line-height="125%">
<g opacity=".5" fill="none" filter="url(#filter3669)" stroke="#de8787" stroke-width="1.5" clip-path="url(#clipPath3724)">
<path d="m73.0365,46.0073c-0,.9051-.073,1.8175-.219,2.7372-.1314,.9051-.3358,1.7737-.6131,2.6058-.2628,.8175-.6059,1.584-1.0292,2.2993-.4088,.7007-.8905,1.3139-1.4453,1.8394-.5548,.5256-1.1898,.9416-1.9051,1.2482-.7008,.292-1.4745,.438-2.3212,.438-.657,0-1.2555-.1095-1.7956-.3285-.5256-.219-.9781-.5109-1.3577-.8759-.3796-.365-.6935-.781-.9416-1.2482-.2336-.4817-.3942-.9781-.4818-1.4891h-.0876c-.2628,.5402-.5913,1.0511-.9854,1.5328-.3942,.4818-.854,.9051-1.3796,1.2701-.511,.3504-1.0949,.6277-1.7518,.8321-.6424,.2044-1.3504,.3066-2.1241,.3066-1.1241,0-2.1241-.2044-3-.6131-.8613-.4088-1.5913-.9781-2.1898-1.708-.5986-.7445-1.0584-1.635-1.3796-2.6715-.3066-1.0365-.4599-2.1825-.4599-3.438-0-1.4744 .2117-2.8248 .635-4.0511 .4379-1.2263 1.0584-2.2847 1.8613-3.1752 .8175-.8905 1.8029-1.5839 2.9562-2.0803 1.1533-.4963 2.4452-.7445 3.8759-.7445 .6569,0 1.3138,.0292 1.9708,.0876 .6569,.0584 1.2846,.1387 1.8832,.2409 .5985,.1022 1.146,.219 1.6423,.3504 .5109,.1168 .9343,.2336 1.2701,.3504l-.5036,9.1095c-.0146,.3212-.0292,.584-.0438,.7883-0,.1898-0,.3431 0,.4599-0,.1168-0,.2044 0,.2628-0,.0584-0,.1095 0,.1533-0,.7737 .073,1.4088 .219,1.9051 .1606,.4964 .3649,.8905 .6131,1.1825 .2481,.292 .5255,.4964 .8321,.6131 .3211,.1022 .6496,.1533 .9854,.1533 .6715,0 1.2627-.219 1.7737-.6569 .5109-.4525 .9343-1.0584 1.2701-1.8175 .3503-.7591 .6131-1.6496 .7883-2.6715 .1751-1.0219 .2627-2.1022 .2628-3.2409-0-2.073-.3139-3.9124-.9416-5.5182-.6278-1.6204-1.4964-2.9854-2.6058-4.0949-1.1095-1.1095-2.4307-1.9489-3.9635-2.5182-1.5183-.5839-3.1752-.8759-4.9708-.8759-2.4672,0-4.6424,.4088-6.5255,1.2263-1.8832,.8029-3.4672,1.9343-4.7518,3.3942-1.2701,1.4453-2.2336,3.1679-2.8905,5.1679-.6569,1.9854-.9854,4.1606-.9854,6.5255-0,2.2044 .2847,4.1606 .854,5.8686 .5839,1.708 1.4306,3.146 2.5401,4.3139 1.1241,1.1679 2.5109,2.0511 4.1606,2.6496 1.6642,.5985 3.5693,.8978 5.7153,.8978 .8905-0 1.7664-.0511 2.6277-.1533 .8759-.1022 1.7153-.2409 2.5182-.4161 .8175-.1752 1.5912-.3723 2.3212-.5912 .7299-.2336 1.4087-.4745 2.0365-.7226v3.0876c-1.2555,.5547-2.6716,.9927-4.2482,1.3139-1.5767,.3212-3.3139,.4817-5.2117,.4818-2.6132-0-4.9489-.3723-7.0073-1.1168-2.0438-.7445-3.781-1.8248-5.2117-3.2409-1.4161-1.4307-2.4964-3.1679-3.2409-5.2117-.7445-2.0584-1.1168-4.3941-1.1168-7.0073-0-2.7445 .4307-5.2993 1.292-7.6642 .8613-2.3795 2.0876-4.4379 3.6788-6.1752 1.6058-1.7372 3.5401-3.1022 5.8029-4.0949 2.2774-.9927 4.8248-1.489 7.6423-1.4891 2.2773,0 4.3722,.3723 6.2847,1.1168 1.9124,.73 3.562,1.7883 4.9489,3.1752 1.4014,1.3723 2.489,3.0511 3.2628,5.0365 .7737,1.9708 1.1605,4.1971 1.1606,6.6788m-21.9635,2.8248c-0,1.9416 .3649,3.3504 1.0949,4.2263 .7445,.8613 1.7372,1.292 2.9781,1.292 .8029,0 1.489-.1606 2.0584-.4818 .5693-.3358 1.0365-.8029 1.4015-1.4015 .3649-.6131 .6423-1.3358 .8321-2.1679 .1898-.8467 .3138-1.7737 .3723-2.781l.3066-5.5401c-.4088-.1168-.8978-.219-1.4672-.3066-.5548-.1022-1.1387-.1533-1.7518-.1533-1.0803,0-1.9927,.2117-2.7372,.635-.7299,.4234-1.3285,.9781-1.7956,1.6642-.4526,.6861-.781,1.4672-.9854,2.3431-.2044,.8759-.3066,1.7664-.3066,2.6715"/>
</g>
<g fill="#fff">
<path d="m73.0365,46.0073c-0,.9051-.073,1.8175-.219,2.7372-.1314,.9051-.3358,1.7737-.6131,2.6058-.2628,.8175-.6059,1.584-1.0292,2.2993-.4088,.7007-.8905,1.3139-1.4453,1.8394-.5548,.5256-1.1898,.9416-1.9051,1.2482-.7008,.292-1.4745,.438-2.3212,.438-.657,0-1.2555-.1095-1.7956-.3285-.5256-.219-.9781-.5109-1.3577-.8759-.3796-.365-.6935-.781-.9416-1.2482-.2336-.4817-.3942-.9781-.4818-1.4891h-.0876c-.2628,.5402-.5913,1.0511-.9854,1.5328-.3942,.4818-.854,.9051-1.3796,1.2701-.511,.3504-1.0949,.6277-1.7518,.8321-.6424,.2044-1.3504,.3066-2.1241,.3066-1.1241,0-2.1241-.2044-3-.6131-.8613-.4088-1.5913-.9781-2.1898-1.708-.5986-.7445-1.0584-1.635-1.3796-2.6715-.3066-1.0365-.4599-2.1825-.4599-3.438-0-1.4744 .2117-2.8248 .635-4.0511 .4379-1.2263 1.0584-2.2847 1.8613-3.1752 .8175-.8905 1.8029-1.5839 2.9562-2.0803 1.1533-.4963 2.4452-.7445 3.8759-.7445 .6569,0 1.3138,.0292 1.9708,.0876 .6569,.0584 1.2846,.1387 1.8832,.2409 .5985,.1022 1.146,.219 1.6423,.3504 .5109,.1168 .9343,.2336 1.2701,.3504l-.5036,9.1095c-.0146,.3212-.0292,.584-.0438,.7883-0,.1898-0,.3431 0,.4599-0,.1168-0,.2044 0,.2628-0,.0584-0,.1095 0,.1533-0,.7737 .073,1.4088 .219,1.9051 .1606,.4964 .3649,.8905 .6131,1.1825 .2481,.292 .5255,.4964 .8321,.6131 .3211,.1022 .6496,.1533 .9854,.1533 .6715,0 1.2627-.219 1.7737-.6569 .5109-.4525 .9343-1.0584 1.2701-1.8175 .3503-.7591 .6131-1.6496 .7883-2.6715 .1751-1.0219 .2627-2.1022 .2628-3.2409-0-2.073-.3139-3.9124-.9416-5.5182-.6278-1.6204-1.4964-2.9854-2.6058-4.0949-1.1095-1.1095-2.4307-1.9489-3.9635-2.5182-1.5183-.5839-3.1752-.8759-4.9708-.8759-2.4672,0-4.6424,.4088-6.5255,1.2263-1.8832,.8029-3.4672,1.9343-4.7518,3.3942-1.2701,1.4453-2.2336,3.1679-2.8905,5.1679-.6569,1.9854-.9854,4.1606-.9854,6.5255-0,2.2044 .2847,4.1606 .854,5.8686 .5839,1.708 1.4306,3.146 2.5401,4.3139 1.1241,1.1679 2.5109,2.0511 4.1606,2.6496 1.6642,.5985 3.5693,.8978 5.7153,.8978 .8905-0 1.7664-.0511 2.6277-.1533 .8759-.1022 1.7153-.2409 2.5182-.4161 .8175-.1752 1.5912-.3723 2.3212-.5912 .7299-.2336 1.4087-.4745 2.0365-.7226v3.0876c-1.2555,.5547-2.6716,.9927-4.2482,1.3139-1.5767,.3212-3.3139,.4817-5.2117,.4818-2.6132-0-4.9489-.3723-7.0073-1.1168-2.0438-.7445-3.781-1.8248-5.2117-3.2409-1.4161-1.4307-2.4964-3.1679-3.2409-5.2117-.7445-2.0584-1.1168-4.3941-1.1168-7.0073-0-2.7445 .4307-5.2993 1.292-7.6642 .8613-2.3795 2.0876-4.4379 3.6788-6.1752 1.6058-1.7372 3.5401-3.1022 5.8029-4.0949 2.2774-.9927 4.8248-1.489 7.6423-1.4891 2.2773,0 4.3722,.3723 6.2847,1.1168 1.9124,.73 3.562,1.7883 4.9489,3.1752 1.4014,1.3723 2.489,3.0511 3.2628,5.0365 .7737,1.9708 1.1605,4.1971 1.1606,6.6788m-21.9635,2.8248c-0,1.9416 .3649,3.3504 1.0949,4.2263 .7445,.8613 1.7372,1.292 2.9781,1.292 .8029,0 1.489-.1606 2.0584-.4818 .5693-.3358 1.0365-.8029 1.4015-1.4015 .3649-.6131 .6423-1.3358 .8321-2.1679 .1898-.8467 .3138-1.7737 .3723-2.781l.3066-5.5401c-.4088-.1168-.8978-.219-1.4672-.3066-.5548-.1022-1.1387-.1533-1.7518-.1533-1.0803,0-1.9927,.2117-2.7372,.635-.7299,.4234-1.3285,.9781-1.7956,1.6642-.4526,.6861-.781,1.4672-.9854,2.3431-.2044,.8759-.3066,1.7664-.3066,2.6715"/>
</g>
<g opacity=".25" fill="none" stroke="#000" clip-path="url(#clipPath3674)" transform="translate(0 .5)">
<path d="m73.0365,46.0073c-0,.9051-.073,1.8175-.219,2.7372-.1314,.9051-.3358,1.7737-.6131,2.6058-.2628,.8175-.6059,1.584-1.0292,2.2993-.4088,.7007-.8905,1.3139-1.4453,1.8394-.5548,.5256-1.1898,.9416-1.9051,1.2482-.7008,.292-1.4745,.438-2.3212,.438-.657,0-1.2555-.1095-1.7956-.3285-.5256-.219-.9781-.5109-1.3577-.8759-.3796-.365-.6935-.781-.9416-1.2482-.2336-.4817-.3942-.9781-.4818-1.4891h-.0876c-.2628,.5402-.5913,1.0511-.9854,1.5328-.3942,.4818-.854,.9051-1.3796,1.2701-.511,.3504-1.0949,.6277-1.7518,.8321-.6424,.2044-1.3504,.3066-2.1241,.3066-1.1241,0-2.1241-.2044-3-.6131-.8613-.4088-1.5913-.9781-2.1898-1.708-.5986-.7445-1.0584-1.635-1.3796-2.6715-.3066-1.0365-.4599-2.1825-.4599-3.438-0-1.4744 .2117-2.8248 .635-4.0511 .4379-1.2263 1.0584-2.2847 1.8613-3.1752 .8175-.8905 1.8029-1.5839 2.9562-2.0803 1.1533-.4963 2.4452-.7445 3.8759-.7445 .6569,0 1.3138,.0292 1.9708,.0876 .6569,.0584 1.2846,.1387 1.8832,.2409 .5985,.1022 1.146,.219 1.6423,.3504 .5109,.1168 .9343,.2336 1.2701,.3504l-.5036,9.1095c-.0146,.3212-.0292,.584-.0438,.7883-0,.1898-0,.3431 0,.4599-0,.1168-0,.2044 0,.2628-0,.0584-0,.1095 0,.1533-0,.7737 .073,1.4088 .219,1.9051 .1606,.4964 .3649,.8905 .6131,1.1825 .2481,.292 .5255,.4964 .8321,.6131 .3211,.1022 .6496,.1533 .9854,.1533 .6715,0 1.2627-.219 1.7737-.6569 .5109-.4525 .9343-1.0584 1.2701-1.8175 .3503-.7591 .6131-1.6496 .7883-2.6715 .1751-1.0219 .2627-2.1022 .2628-3.2409-0-2.073-.3139-3.9124-.9416-5.5182-.6278-1.6204-1.4964-2.9854-2.6058-4.0949-1.1095-1.1095-2.4307-1.9489-3.9635-2.5182-1.5183-.5839-3.1752-.8759-4.9708-.8759-2.4672,0-4.6424,.4088-6.5255,1.2263-1.8832,.8029-3.4672,1.9343-4.7518,3.3942-1.2701,1.4453-2.2336,3.1679-2.8905,5.1679-.6569,1.9854-.9854,4.1606-.9854,6.5255-0,2.2044 .2847,4.1606 .854,5.8686 .5839,1.708 1.4306,3.146 2.5401,4.3139 1.1241,1.1679 2.5109,2.0511 4.1606,2.6496 1.6642,.5985 3.5693,.8978 5.7153,.8978 .8905-0 1.7664-.0511 2.6277-.1533 .8759-.1022 1.7153-.2409 2.5182-.4161 .8175-.1752 1.5912-.3723 2.3212-.5912 .7299-.2336 1.4087-.4745 2.0365-.7226v3.0876c-1.2555,.5547-2.6716,.9927-4.2482,1.3139-1.5767,.3212-3.3139,.4817-5.2117,.4818-2.6132-0-4.9489-.3723-7.0073-1.1168-2.0438-.7445-3.781-1.8248-5.2117-3.2409-1.4161-1.4307-2.4964-3.1679-3.2409-5.2117-.7445-2.0584-1.1168-4.3941-1.1168-7.0073-0-2.7445 .4307-5.2993 1.292-7.6642 .8613-2.3795 2.0876-4.4379 3.6788-6.1752 1.6058-1.7372 3.5401-3.1022 5.8029-4.0949 2.2774-.9927 4.8248-1.489 7.6423-1.4891 2.2773,0 4.3722,.3723 6.2847,1.1168 1.9124,.73 3.562,1.7883 4.9489,3.1752 1.4014,1.3723 2.489,3.0511 3.2628,5.0365 .7737,1.9708 1.1605,4.1971 1.1606,6.6788m-21.9635,2.8248c-0,1.9416 .3649,3.3504 1.0949,4.2263 .7445,.8613 1.7372,1.292 2.9781,1.292 .8029,0 1.489-.1606 2.0584-.4818 .5693-.3358 1.0365-.8029 1.4015-1.4015 .3649-.6131 .6423-1.3358 .8321-2.1679 .1898-.8467 .3138-1.7737 .3723-2.781l.3066-5.5401c-.4088-.1168-.8978-.219-1.4672-.3066-.5548-.1022-1.1387-.1533-1.7518-.1533-1.0803,0-1.9927,.2117-2.7372,.635-.7299,.4234-1.3285,.9781-1.7956,1.6642-.4526,.6861-.781,1.4672-.9854,2.3431-.2044,.8759-.3066,1.7664-.3066,2.6715"/>
</g>
<path fill="#500" d="m57.375,29c-2.8175,0-5.3476,.5073-7.625,1.5-2.2628,.9927-4.2067,2.3566-5.8125,4.0938-1.5912,1.7373-2.8262,3.7767-3.6875,6.1562-.8613,2.365-1.2813,4.943-1.2812,7.6875 0,.1608 .0284,.31 .0312,.4688 .0527-2.5417 .445-4.946 1.25-7.1562 .8613-2.3795 2.0963-4.419 3.6875-6.1562 1.6058-1.7372 3.5497-3.101 5.8125-4.0938 2.2774-.9927 4.8075-1.5 7.625-1.5 2.2773,0 4.3688,.3805 6.2812,1.125 1.9124,.73 3.5819,1.7694 4.9688,3.1562 1.4014,1.3723 2.4762,3.0771 3.25,5.0625 .7136,1.8178 1.0696,3.8413 1.125,6.0938 .0037-.1445 .0312-.2933 .0312-.4375-0-2.4817-.3826-4.6854-1.1562-6.6562-.7738-1.9854-1.8486-3.6902-3.25-5.0625-1.3869-1.3868-3.0564-2.4263-4.9688-3.1562-1.9124-.7445-4.0039-1.125-6.2812-1.125zm-.4688,8.6875c-1.4307,0-2.7217,.2537-3.875,.75-1.1533,.4964-2.1512,1.2033-2.9688,2.0938-.8029,.8905-1.4058,1.93-1.8438,3.1562-.4234,1.2263-.6563,2.5881-.6562,4.0625-0,.1513-.0045,.2893 0,.4375 .0474-1.2572 .2873-2.4312 .6562-3.5 .4379-1.2263 1.0408-2.2657 1.8438-3.1562 .8175-.8905 1.8154-1.5974 2.9688-2.0938 1.1533-.4963 2.4443-.75 3.875-.75 .6569,0 1.3118,.0354 1.9688,.0938 .6569,.0584 1.2764,.1478 1.875,.25 .5985,.1022 1.1599,.2124 1.6562,.3438 .4872,.1114 .8596,.2324 1.1875,.3438l.0625-1c-.3358-.1168-.7391-.2269-1.25-.3438-.4964-.1314-1.0577-.2415-1.6562-.3438-.5986-.1022-1.2181-.1916-1.875-.25-.657-.0584-1.3118-.0937-1.9688-.0938zm3.1562,4.2812-.25,4.5625c-.0584,1.0073-.1852,1.9345-.375,2.7812-.1898,.8321-.4788,1.5431-.8438,2.1562-.365,.5985-.8057,1.0705-1.375,1.4062-.5694,.3212-1.2596,.4688-2.0625,.4688-1.2409,0-2.2555-.4199-3-1.2812-.6621-.7945-1.001-2.0475-1.0625-3.7188-.0071,.1673-.0312,.3317-.0312,.5-0,1.9416 .3638,3.3428 1.0938,4.2188 .7445,.8613 1.7591,1.2813 3,1.2812 .8029,0 1.4931-.1476 2.0625-.4688 .5693-.3358 1.01-.8077 1.375-1.4062 .3649-.6131 .6539-1.3241 .8438-2.1562 .1898-.8467 .3166-1.7739 .375-2.7812l.3125-5.5625c-.0166-.0048-.0456,.0047-.0625,0zm9.7812,3.4062c-.0189,.9863-.0964,1.9473-.25,2.8438-.1752,1.0219-.4309,1.8971-.7812,2.6562-.3358,.7591-.7703,1.36-1.2812,1.8125-.511,.438-1.0785,.6563-1.75,.6562-.3358,0-.6789-.054-1-.1562-.3066-.1168-.5956-.3018-.8438-.5938-.2482-.292-.4332-.6911-.5938-1.1875-.1374-.4672-.2107-1.0683-.2188-1.7812-0,.1898-0,.352 0,.4688-0,.1168-0,.1916 0,.25-0,.0584-0,.1125 0,.1562-0,.7737 .0727,1.4099 .2188,1.9062 .1606,.4964 .3455,.8955 .5938,1.1875 .2481,.292 .5372,.477 .8438,.5938 .3211,.1022 .6642,.1563 1,.1562 .6715,0 1.239-.2183 1.75-.6562 .5109-.4525 .9455-1.0534 1.2812-1.8125 .3503-.7591 .606-1.6343 .7812-2.6562 .1751-1.0219 .2812-2.1113 .2812-3.25-0-.201-.0253-.3971-.0312-.5938zm-27.5938,3.375c-.0038,.1774-.0312,.3516-.0312,.5312-0,2.2044 .3057,4.1357 .875,5.8438 .5839,1.708 1.4218,3.1446 2.5312,4.3125 1.1241,1.1679 2.5066,2.0577 4.1562,2.6562 1.6642,.5985 3.5727,.9062 5.7188,.9062 .8905-0 1.7637-.0541 2.625-.1562 .8759-.1022 1.7283-.2311 2.5312-.4062 .8175-.1752 1.5825-.3748 2.3125-.5938 .7299-.2336 1.4035-.4706 2.0312-.7188v-1c-.6278,.2482-1.3013,.4852-2.0312,.7188-.73,.219-1.495,.4186-2.3125,.5938-.8029,.1752-1.6554,.3041-2.5312,.4062-.8613,.1022-1.7345,.1562-2.625,.1562-2.146-0-4.0545-.3077-5.7188-.9062-1.6496-.5985-3.0322-1.4884-4.1562-2.6562-1.1095-1.1679-1.9473-2.6045-2.5312-4.3125-.5274-1.5823-.8049-3.3667-.8438-5.375z"/>
</g>
<g id="g3799">
<path opacity=".3" fill="url(#linearGradient3784)" d="m10,24c0-2.2091 1.7909-4 4-4 2.2091,0 4,1.7909 4,4 0,2.2091-1.7909,4-4,4-2.2091,0-4-1.7909-4-4zm1,0c0,1.6569 1.3431,3 3,3 1.6569,0 3-1.3431 3-3 0-1.6569-1.3431-3-3-3-1.6569,0-3,1.3431-3,3z"/>
<path opacity=".3" d="m6,21 0,7 8,0c1.6464,0 3-1.5792 3-3.5 0-1.9208-1.3536-3.5-3-3.5h-8z"/>
<path opacity=".6" d="m17,24a3,3 0 1,1 -6,0 3,3 0 1,1 6,0z"/>
<path fill="url(#linearGradient3751)" d="m6,22h8a2,2 0 0,1 2,2 2,2 0 0,1 -2,2h-8a2,2 0 0,1 -2-2 2,2 0 0,1 2-2"/>
<path opacity=".6" fill="url(#linearGradient3767)" d="m6,22h8a2,2 0 0,1 2,2 2,2 0 0,1 -2,2h-8a2,2 0 0,1 -2-2 2,2 0 0,1 2-2"/>
</g>
<use width="96" height="96" xlink:href="#g3799" transform="translate(0 12)"/>
<use width="96" height="96" xlink:href="#g3799" transform="translate(0 24)"/>
<use width="96" height="96" xlink:href="#g3799" transform="translate(0 36)"/>
<use width="96" height="96" xlink:href="#g3799" transform="translate(0 48)"/>
</svg>
