<svg xmlns="http://www.w3.org/2000/svg" viewBox="0 0 96 96" xmlns:xlink="http://www.w3.org/1999/xlink">
<defs>
<clipPath id="clipPath3613">
<path fill="#fff" d="m12,6h72a6,6 0 0,1 6,6v72a6,6 0 0,1 -6,6h-72a6,6 0 0,1 -6-6v-72a6,6 0 0,1 6-6"/>
</clipPath>
<filter width="1.384" x="-.192" y="-.192" height="1.384" color-interpolation-filters="sRGB" id="filter3794">
<feGaussianBlur stdDeviation="5.28"/>
</filter>
<linearGradient id="linearGradient3617" xlink:href="#linearGradient3614" y1="90" y2="5.988" x2="0" gradientUnits="userSpaceOnUse"/>
<linearGradient gradientTransform="translate(-125 .65261)" id="linearGradient3661" xlink:href="#linearGradient3697" y1="62.025" y2="26.414" x2="0" gradientUnits="userSpaceOnUse"/>
<linearGradient gradientTransform="translate(0 1)" id="linearGradient3664" xlink:href="#linearGradient3731" y1="75.562" x1="48.082" y2="16.973" x2="46.655" gradientUnits="userSpaceOnUse"/>
<linearGradient gradientTransform="matrix(1.02381 0 0 1.0119 -1.14286 -98.07143)" id="linearGradient3780" xlink:href="#ButtonShadow-0" y1="6.132" y2="90.239" x2="0" gradientUnits="userSpaceOnUse"/>
<linearGradient gradientTransform="matrix(1.00587 0 0 .99417 100 0)" id="ButtonShadow-0" y1="92.54" y2="7.017" x2="0" gradientUnits="userSpaceOnUse">
<stop offset="0"/>
<stop offset="1" stop-opacity=".588"/>
</linearGradient>
<linearGradient id="linearGradient3746" xlink:href="#linearGradient3739" x1="15" x2="81" gradientUnits="userSpaceOnUse"/>
<linearGradient gradientTransform="translate(100)" id="linearGradient3662" xlink:href="#linearGradient2881" y1="90" y2="5.988" x2="0" gradientUnits="userSpaceOnUse"/>
<linearGradient gradientTransform="translate(0 -97)" id="linearGradient3721" xlink:href="#ButtonShadow-0" y1="6.132" y2="90.239" x2="0" gradientUnits="userSpaceOnUse"/>
<linearGradient id="linearGradient3739">
<stop offset="0" stop-color="#fff"/>
<stop offset="1" stop-color="#fff" stop-opacity="0"/>
</linearGradient>
<linearGradient id="linearGradient3731">
<stop offset="0" stop-color="#dcdcdc"/>
<stop offset=".307" stop-color="#ebebeb"/>
<stop offset=".707" stop-color="#fff"/>
<stop offset=".845" stop-color="#fafafa"/>
<stop offset="1" stop-color="#f0f0f0"/>
</linearGradient>
<linearGradient id="linearGradient2881">
<stop offset="0" stop-color="#3e5e8e"/>
<stop offset="1" stop-color="#89a4cb"/>
</linearGradient>
<linearGradient id="linearGradient3697">
<stop offset="0" stop-color="#dcdcdc"/>
<stop offset="1" stop-color="#f0f0f0"/>
</linearGradient>
<linearGradient id="linearGradient3613" xlink:href="#linearGradient3737" y1="20.221" y2="138.661" x2="0" gradientUnits="userSpaceOnUse"/>
<linearGradient id="linearGradient3188" xlink:href="#linearGradient3737" y1="6" y2="63.893" x2="0" gradientUnits="userSpaceOnUse"/>
<linearGradient id="linearGradient3737">
<stop offset="0" stop-color="#fff"/>
<stop offset="1" stop-color="#fff" stop-opacity="0"/>
</linearGradient>
<linearGradient id="linearGradient3614">
<stop offset="0" stop-color="#65a31b"/>
<stop offset="1" stop-color="#a0de42"/>
</linearGradient>
<radialGradient cx="48" cy="90.172" gradientTransform="matrix(1.15731 0 0 .99591 -7.55102 .19713)" r="42" id="radialGradient3619" xlink:href="#linearGradient3737" gradientUnits="userSpaceOnUse"/>
</defs>
<path opacity=".08" fill="url(#linearGradient3780)" d="m12-95.0312c-5.5111,0-10.0312,4.5202-10.0312,10.0312v71c0,5.5111 4.5202,10.0312 10.0312,10.0312h72c5.5111,0 10.0312-4.5202 10.0312-10.0312v-71c0-5.5111-4.5202-10.0312-10.0312-10.0312h-72z" transform="scale(1 -1)"/>
<path opacity=".1" fill="url(#linearGradient3780)" d="m12-94.0312c-4.9716,0-9.0312,4.0596-9.0312,9.0312v71c0,4.9716 4.0596,9.0312 9.0312,9.0312h72c4.9716,0 9.0312-4.0596 9.0312-9.0312v-71c0-4.9716-4.0596-9.0312-9.0312-9.0312h-72z" transform="scale(1 -1)"/>
<path opacity=".2" fill="url(#linearGradient3780)" d="m12-93c-4.4091,0-8,3.5909-8,8v71c0,4.4091 3.5909,8 8,8h72c4.4091,0 8-3.5909 8-8v-71c0-4.4091-3.5909-8-8-8h-72z" transform="scale(1 -1)"/>
<path opacity=".3" fill="url(#linearGradient3780)" d="m12-92h72a7,7 0 0,1 7,7v71a7,7 0 0,1 -7,7h-72a7,7 0 0,1 -7-7v-71a7,7 0 0,1 7-7" transform="scale(1 -1)"/>
<path opacity=".45" fill="url(#linearGradient3721)" d="m12-91h72a6,6 0 0,1 6,6v72a6,6 0 0,1 -6,6h-72a6,6 0 0,1 -6-6v-72a6,6 0 0,1 6-6" transform="scale(1 -1)"/>
<path fill="url(#linearGradient3617)" d="m12,6h72a6,6 0 0,1 6,6v72a6,6 0 0,1 -6,6h-72a6,6 0 0,1 -6-6v-72a6,6 0 0,1 6-6"/>
<path opacity=".4" fill="url(#linearGradient3188)" d="m12,6c-3.324,0-6,2.676-6,6v2 68 2c0,.3347 .0413,.6507 .0938,.9688 .0487,.2956 .097,.5969 .1875,.875 .0099,.0304 .0209,.0636 .0312,.0938 .0989,.2878 .2349,.5475 .375,.8125 .1446,.2735 .3156,.5356 .5,.7812 .1844,.2456 .3738,.4735 .5938,.6875 .4399,.4281 .9429,.8145 1.5,1.0938 .2785,.1396 .5735,.2469 .875,.3438-.2562-.1002-.4867-.2363-.7188-.375-.0074-.0044-.0239,.0045-.0312,0-.0319-.0193-.0623-.0425-.0938-.0625-.1204-.0767-.231-.1635-.3438-.25-.1062-.0808-.2133-.1611-.3125-.25-.1779-.1614-.3475-.3454-.5-.5312-.1076-.1303-.2184-.2653-.3125-.4062-.0251-.0384-.0384-.0859-.0625-.125-.0648-.103-.1302-.2045-.1875-.3125-.101-.1947-.2057-.4157-.2812-.625-.008-.0218-.0236-.0405-.0312-.0625-.0318-.0919-.0358-.1868-.0625-.2812-.0303-.1066-.0704-.203-.0938-.3125-.0729-.3415-.125-.6982-.125-1.0625v-2-68-2c0-2.7818 2.2182-5 5-5h2 68 2c2.7818,0 5,2.2182 5,5v2 68 2c0,.3643-.0521,.721-.125,1.0625-.0442,.2069-.0884,.3977-.1562,.5938-.0077,.022-.0233,.0407-.0312,.0625-.0627,.1737-.1384,.3674-.2188,.5312-.0416,.0828-.079,.17-.125,.25-.0546,.0972-.1268,.1883-.1875,.2812-.0941,.141-.2049,.276-.3125,.4062-.1432,.1744-.3031,.347-.4688,.5-.0112,.0102-.02,.0212-.0312,.0312-.1384,.1256-.2851,.2344-.4375,.3438-.1026,.0731-.2043,.1534-.3125,.2188-.0074,.0045-.0238-.0044-.0312,0-.232,.1387-.4625,.2748-.7188,.375 .3015-.0968 .5965-.2041 .875-.3438 .5571-.2792 1.0601-.6657 1.5-1.0938 .22-.214 .4094-.4419 .5938-.6875 .1844-.2456 .3554-.5077 .5-.7812 .1401-.265 .2761-.5247 .375-.8125 .0104-.0308 .0213-.0627 .0312-.0938 .0905-.2781 .1388-.5794 .1875-.875 .0524-.318 .0938-.634 .0938-.9688v-2-68-2c0-3.324-2.676-6-6-6h-72z"/>
<path opacity=".2" fill="url(#radialGradient3619)" d="m12,90c-3.324,0-6-2.676-6-6v-2-68-2c0-.3347 .0413-.6507 .0938-.9688 .0487-.2956 .097-.5969 .1875-.875 .0099-.0304 .0209-.0636 .0312-.0938 .0989-.2878 .2349-.5475 .375-.8125 .1446-.2735 .3156-.5356 .5-.7812 .1844-.2456 .3738-.4735 .5938-.6875 .4399-.4281 .9429-.8145 1.5-1.0938 .2785-.1396 .5735-.2469 .875-.3438-.2562,.1002-.4867,.2363-.7188,.375-.0074,.0044-.0239-.0045-.0312,0-.0319,.0193-.0623,.0425-.0938,.0625-.1204,.0767-.231,.1635-.3438,.25-.1062,.0808-.2133,.1611-.3125,.25-.1779,.1614-.3475,.3454-.5,.5312-.1076,.1303-.2184,.2653-.3125,.4062-.0251,.0384-.0384,.0859-.0625,.125-.0648,.103-.1302,.2045-.1875,.3125-.101,.1947-.2057,.4157-.2812,.625-.008,.0218-.0236,.0405-.0312,.0625-.0318,.092-.0358,.1868-.0625,.2812-.0303,.1066-.0704,.203-.0938,.3125-.0729,.3415-.125,.6982-.125,1.0625v2 68 2c0,2.7818 2.2182,5 5,5h2 68 2c2.7818,0 5-2.2182 5-5v-2-68-2c0-.3643-.0521-.721-.125-1.0625-.0442-.2069-.0884-.3977-.1562-.5938-.0077-.022-.0233-.0407-.0312-.0625-.0627-.1737-.1384-.3674-.2188-.5312-.0416-.0828-.079-.17-.125-.25-.0546-.0972-.1268-.1883-.1875-.2812-.0941-.141-.2049-.276-.3125-.4062-.1432-.1745-.3031-.347-.4688-.5-.0112-.0102-.02-.0211-.0312-.0312-.1384-.1256-.2851-.2344-.4375-.3438-.1026-.0732-.2043-.1534-.3125-.2188-.0074-.0045-.0238,.0044-.0312,0-.232-.1387-.4625-.2748-.7188-.375 .3015,.0968 .5965,.2041 .875,.3438 .5571,.2792 1.0601,.6657 1.5,1.0938 .22,.214 .4094,.4419 .5938,.6875 .1844,.2456 .3554,.5077 .5,.7812 .1401,.265 .2761,.5247 .375,.8125 .0104,.0308 .0213,.0627 .0312,.0938 .0905,.2781 .1388,.5794 .1875,.875 .0524,.318 .0938,.634 .0938,.9688v2 68 2c0,3.324-2.676,6-6,6h-72z"/>
<path fill="url(#linearGradient3662)" d="m112,6h72a6,6 0 0,1 6,6v72a6,6 0 0,1 -6,6h-72a6,6 0 0,1 -6-6v-72a6,6 0 0,1 6-6"/>
<path opacity=".1" fill="url(#linearGradient3613)" filter="url(#filter3794)" stroke="#fff" stroke-linecap="round" stroke-width=".5" d="m27,15h42a12,12 0 0,1 12,12v42a12,12 0 0,1 -12,12h-42a12,12 0 0,1 -12-12v-42a12,12 0 0,1 12-12" clip-path="url(#clipPath3613)"/>
<path opacity=".05" d="m48,13.75c-20.1169,0-37.25,13.5556-37.25,31.25 0,10.0823 5.918,18.6976 14.3438,24.2812-.1569,.5253-.2666,1.039-.625,1.5938-.9199,1.4238-2.1321,2.6471-4.8438,3.4375-.0112,.0032-.0201-.0032-.0312,0-.0171,.0041-.0136-.0051-.0312,0-.0602,.0171-.1273,.032-.125,.0312 .0027-.0009-.1065,.0434-.1562,.0625-.0124,.0048-.0319,.0315-.0312,.0312l-.125,.0312a1.2012,1.2012 0 0,0 -.0312,0v.0312a1.2012,1.2012 0 0,0 -.0625,0 1.2012,1.2012 0 0,0 0,.0312 1.2012,1.2012 0 0,0 -.0312,0 1.2012,1.2012 0 0,0 -.125,.0625 1.2012,1.2012 0 0,0 -.0938,.0312c0,0-.043,.0623-.0938,.0938a1.2012,1.2012 0 0,0 -.0312,0c-.012,.0075-.0194,.0239-.0312,.0312-.0071,.0044-.0244-.0043-.0312,0 .0003-.0016-.0294,.0005-.0312,0-.0114,.0055 .0064,.028 0,.0312-.0064,.0032-.0256-.0029-.0312,0-.0173,.0078-.0138-.0022-.0625,.0312a1.2012,1.2012 0 0,0 -.0625,.0312c-.0226,.0156-.0032,.0102-.0312,.0312-.0834,.05-.0186,.0297-.0625,.0625 .0003-.0016-.0294,.0004-.0312,0a1.2012,1.2012 0 0,0 -.0625,.0625c-.0213,.0133 .0037,.0063-.0312,.0312-.0223,.0159-.0025-.0216-.0312,0a1.2012,1.2012 0 0,0 -.0625,.0312c-.0002,.001-.0036,.0332 0,.0312 .0036-.002-.035,.0024-.0312,0a1.2012,1.2012 0 0,0 -.2188,.1875c0,0-.0392,.0629-.0938,.125-.0272,.031-.0712,.0366-.0938,.0625-.0056,.0065 .0051,.0254 0,.0312-.0051,.0058-.0266-.0054-.0312,0-.0011,.0007 .0026,.0292 0,.0312-.0076,.0071 .0073,.0245 0,.0312a1.2012,1.2012 0 0,0 -.0312,.0312 1.2012,1.2012 0 0,0 -.0312,0c-.0052,.0048 .0042,.0273 0,.0312a1.2012,1.2012 0 0,0 -.0312,0c-.0029,.0027 .0016,.0297 0,.0312-.0018,.0017-.0312-0-.0312,0a1.2012,1.2012 0 0,0 -.0625,.0625c0,0-.0545,.0704-.0938,.125-.0196,.0273-.014,.0382-.0312,.0625-.0048,.0068-.0338,.0371-.0312,.0312a1.2012,1.2012 0 0,0 -.0312,.0312 1.2012,1.2012 0 0,0 0,.0312c-.0116,.0182 .0056-.0302-.0312,.0312a1.2012,1.2012 0 0,0 -.0312,.0312c.0076-.0107-.0341,.0881 0,.0312-.0066,.01-.0241-.0113-.0312,0-.006,.0091 .0056,.022 0,.0312a1.2012,1.2012 0 0,0 -.0625,.0625 1.2012,1.2012 0 0,0 -.0625,.125c-.0021,.0039 0,.0312 0,.0312-.0078,.0175-.037,.0677-.0625,.125-.0154,.0346-.0187,.0654-.0312,.0938-.0126,.0284-.0061-.0472-.0625,.0938 .1039-.2597 .0586-.162-.0312,.0625-.0102,.0212-.0223,.0089-.0312,.0312-.008,.02 .0069,.0118 0,.0312l-.0625,.1562a1.2012,1.2012 0 0,0 -.0625,.3125 1.2012,1.2012 0 0,0 0,.0312c-.0082,.011-.0625,.0625-.0625,.0625-.0055,.0276 .004,.0078 0,.0312-.0027,.0113 .0023,.0198 0,.0312-.0042,.0162-.028,.0148-.0312,.0312-.0042,.021 .0032,.0117 0,.0312l-.0312,.1562a1.2012,1.2012 0 0,0 0,.0312c-.0055,.0274 .004,.0079 0,.0312-.0027,.0113 .0023,.0198 0,.0312-.0046,.0232 .0033,.0114 0,.0312-.0014,.0065-.0299-.0065-.0312,0-.0253,.1267-.001,.1141 0,.1875a1.2012,1.2012 0 0,0 -.0312,.3125v.1875a1.2012,1.2012 0 0,0 0,.0938 1.2012,1.2012 0 0,0 0,.0312v.0312a1.2012,1.2012 0 0,0 0,.0938 1.2012,1.2012 0 0,0 0,.0625c0,0-.0077,.0625 0,.125 .0038,.0312 .0278,.0351 .0312,.0625 .0035,.0274-.0492-.0896 0,.1562 .0033,.0165 .0271,.015 .0312,.0312 .0025,.0098-.0028,.0215 0,.0312 .004,.0234-.0055,.0038 0,.0312a1.2012,1.2012 0 0,0 0,.0312l.0312,.1562a1.2012,1.2012 0 0,0 .125,.2812 1.2012,1.2012 0 0,0 0,.0312c-.0007,.0166-0,.0937 0,.0938 .009,.0225 .021,.01 .0312,.0312 .0102,.0213 .0201,.0112 .0312,.0312-.0005-.0043 .0414,.1348 0,.0312a1.2012,1.2012 0 0,0 0,.0312l.0625,.1562a1.2012,1.2012 0 0,0 0,.0312c.009,.0224 .0211,.0101 .0312,.0312 .0102,.0212 .0201,.0113 .0312,.0312 .0044,.009-.0048,.0223 0,.0312a1.2012,1.2012 0 0,0 0,.0312 1.2012,1.2012 0 0,0 .0312,.0312 1.2012,1.2012 0 0,0 0,.0312 1.2012,1.2012 0 0,0 .0312,.0312 1.2012,1.2012 0 0,0 .0625,.125 1.2012,1.2012 0 0,0 0,.0312 1.2012,1.2012 0 0,0 .0312,.0938l.0938,.1562c-.0021-.0035 .1275,.1908 .125,.1875l.0938,.125a1.2012,1.2012 0 0,0 .25,.25 1.2012,1.2012 0 0,0 .0625,.0312c.034,.0387-.0159,.0153 .0312,.0625a1.2012,1.2012 0 0,0 .0938,.0938c0,0 .0241,.0317 .0625,.0625 .0061,.0049 .0293-.0018 .0312,0l.0312,.0312c.0017,.0018 .0173,.0205 .0312,.0312a1.2012,1.2012 0 0,0 .0312,.0312c0,0 .0277-.0024 .0312,0 .0022,.0015-.0033,.029 0,.0312a1.2012,1.2012 0 0,0 .0938,.0938h.0312a1.2012,1.2012 0 0,0 .0938,.0938c-.2616-.1962-.1894-.1342 .0312,.0312 .0462,.0346 .0306,.0106 .0625,.0312a1.2012,1.2012 0 0,0 .2188,.1562c0,0 .087,.0316 .1562,.0625 .0346,.0154 .0654,.0187 .0938,.0312 .0284,.0126-.0474,.0061 .0938,.0625-.2601-.104-.1619-.0585 .0625,.0312 .0212,.0102 .0089,.0223 .0312,.0312 .02,.008 .0118-.0069 .0312,0l.1562,.0625 .1562,.0625a1.2012,1.2012 0 0,0 .3125,.0625c.0039,.0028 .0282-.0023 .0312,0 .0109,.008 .0625,.0625 .0625,.0625 .0275,.0055 .0078-.004 .0312,0 .0097,.0028 .0214-.0025 .0312,0 .0162,.0042 .0148,.028 .0312,.0312 .021,.0042 .0117-.0032 .0312,0l.1562,.0312a1.2012,1.2012 0 0,0 .1875,0c-.0023-.0001 .1273,0 .125,0-.0017,0 .0565,.0011 .0938,0 .0112,.0012 .02-.0011 .0312,0-0,.0008 0,.0312 0,.0312 .0087-0 .0195,0 .0312,0 .0118,0 .0538-0 .0625,0v-.0312c9.7538,.9583 16.7171-3.1403 20.9062-6.9375 2.0913,.3347 4.2359,.5938 6.5312,.5938 20.1169,0 37.25-13.5556 37.25-31.25 0-17.6944-17.1331-31.25-37.25-31.25zm-27.5625,68.5a1.2012,1.2012 0 0,0 .0312,0v.1562l-.0312-.1562z" transform="translate(0 1)"/>
<path opacity=".05" d="m48,14.9375c-19.5792,0-36.0625,13.1484-36.0625,30.0625 0,9.945 5.9764,18.4908 14.5938,23.875-.22,.8336-.4365,1.6873-1.0625,2.6562-1.0314,1.5963-2.548,3.0757-5.5312,3.9375-.0108,.0031-.0204-.0031-.0312,0a1.0828,1.0828 0 0,0 -.1875,.0625l-.1562,.0625 .4062,1c-.2108-.4986-.4302-1.0029-.4375-1-.0147,.0059-.0117,.0234-.0312,.0312-.0195,.0078-.0479,.0254-.0625,.0312-.0146,.0058-.0312,0-.0312,0 0,0-.2383,.1475-.25,.1562-.0117,.0087-.0469,.0195-.0625,.0312 .0147-.0088-.0625,.0312-.0625,.0312-.0113,.0067-.0225,.026-.0312,.0312-.0146,.0088-.0312,0-.0312,0 0,0-.082,.085-.0938,.0938-.0117,.0088-.0469,.0195-.0625,.0312-.0156,.0117-.0196,.0225-.0312,.0312-.0117,.0088-.0312,0-.0312,0 0,0-.21,.2383-.2188,.25-.0087,.0117-.0195,.0156-.0312,.0312-.006,.006 .0063,.025 0,.0312-.0023,.003-.0291-.0028-.0312,0-.0133,.0156-.0312,.0312-.0312,.0312-.0117,.0117-.0312,.0312-.0312,.0312 0,0-.1475,.2041-.1562,.2188-.0088,.0146-.0195,.043-.0312,.0625-.0117,.0195-.0224,.0166-.0312,.0312-.0088,.0147-.0312,.0312-.0312,.0312-.0043,.0057 .0035,.0266 0,.0312-.0087,.0117-.0312,0-.0312,0 0,0-.1192,.2666-.125,.2812-.0058,.0146-.0234,.043-.0312,.0625-.0078,.0195-.0254,.0166-.0312,.0312-.0059,.0147 0,.0312 0,.0312l-.0625,.1562 1,.4062 1.0312,.3438c0,0-2.0908-.5458-2.0938-.5312-.0029,.0146 .0039,.043 0,.0625-.0039,.0195-.0283,.0166-.0312,.0312-.0029,.0147 0,.0312 0,.0312l-.0312,.1562 .7188,.1562c-.3244-.0539-.7178-.13-.7188-.125-.0029,.0147 .0039,.043 0,.0625-.0039,.0195-.0283,.0167-.0312,.0312-.0029,.0146 0,.0312 0,.0312l1.0625,.2188h-1.0938v.1875h1.0938c-.5413,.0092-1.0938,.0239-1.0938,.0312 0,.0147-0,.043 0,.0625 0,.0195 0,.0166 0,.0312 0,.0146 0,.0312 0,.0312 0,0 .0283,.2354 .0312,.25 .0029,.0146 .0273,.0117 .0312,.0312 .0039,.0195-.0029,.0478 0,.0625 .0029,.0147 0,.0312 0,.0312l.0312,.1562 1.0625-.2188 1.0312-.2812c0,0-2.0371,.7041-2.0312,.7188 .0058,.0146 .0234,.0117 .0312,.0312 .0078,.0195 .0254,.0478 .0312,.0625 .0059,.0147 0,.0312 0,.0312l.0625,.1562 .8125-.3438c-.3995,.1764-.8149,.3689-.8125,.375 .0059,.0147 .0234,.0117 .0312,.0312 .0078,.0195 .0254,.0479 .0312,.0625 .0058,.0146 0,.0312 0,.0312l1-.4062-.9375,.5625 .0938,.1562a1.0828,1.0828 0 0,0 .0625,.0938l.0938,.125 .875-.6562 .8438-.6875c0,0-1.6054,1.4571-1.5938,1.4688 .0117,.0117 .0469,.0156 .0625,.0312 .0156,.0156 .0195,.0508 .0312,.0625 0,0 .1446,.1163 .1562,.125 .0117,.0087 .0156,.0195 .0312,.0312 .0073,.0073 .0234,.0234 .0312,.0312 .0078,.0066 .0263-.0042 .0312,0 .0073,.0073-.0058,.0254 0,.0312 .0117,.0117 .0312,.0312 .0312,.0312 0,0 .1133,.085 .125,.0938 .0117,.0088 .0156,.0195 .0312,.0312 .0156,.0117 .0508,.0225 .0625,.0312 .0117,.0088 0,.0312 0,.0312 0,0 .2667,.1192 .2812,.125 .0146,.0058 .043,.0234 .0625,.0312 .0195,.0078 .0166,.0254 .0312,.0312 .0147,.0059 .0312,0 .0312,0l.1562,.0625 .1562,.0625 .4062-1 .3125-1.0312c0,0-.5146,2.0908-.5,2.0938 .0146,.0029 .043-.0039 .0625,0 .0195,.0039 .0166,.0283 .0312,.0312 .0146,.0029 .0312,0 .0312,0l.1562,.0312a1.0828,1.0828 0 0,0 .125,0 1.0828,1.0828 0 0,0 .0625,.0312c-.001-0 .0948-0 .0938,0v-.0312c9.7462,1.0017 16.58-3.2481 20.5625-7 2.2149,.3696 4.4887,.6562 6.875,.6562 19.5792,0 36.0625-13.1484 36.0625-30.0625 0-16.9141-16.4833-30.0625-36.0625-30.0625zm2.7812,15.125c.6015,0 .5914-.0134 1,.375 .0155,.0147 .0144,.0153 .0312,.0312a1.0828,1.0828 0 0,0 .0312,.0312c.4632,.4365 .3437,.1713 .3438,.7188-0,.5576 .0835,.3638-.3125,.7188-.0141,.0129-.018,.0192-.0312,.0312-.3716,.3389-.4607,.375-1.0625,.375-.6068,0-.713-.0348-1.0938-.375-.0239-.0223-.0103-.0125-.0312-.0312-.396-.355-.3125-.1612-.3125-.7188-0-.587-.1327-.3064 .3438-.75 .4389-.4086 .4745-.4062 1.0938-.4062zm-3.4688,12.375c.5147,.0922 1.1358,.1416 1.3438,.3125-.0015-.0015 .0954,.0952 .0938,.0938 .2585,.2267 .3359,.3166 .375,.4062 .0391,.0897 .0625,.2701 .0625,.6875-0,.2233 .0325,.6067-.0312,1.2188a1.0828,1.0828 0 0,0 -.0312,.0312c-.0421,.5047-.1221,.9799-.25,1.4062a1.0828,1.0828 0 0,0 0,.0312l-1.875,6.625v.0312c-.1772,.6223-.3621,1.3181-.5,2.0938-.137,.7706-.25,1.4556-.25,2.125-0,.7131 .1587,1.5417 .4688,2.3438-.7002-.0932-1.1727-.2395-1.4375-.4688-.522-.4765-.4688-.3718-.4688-1.0938-0-.3548 .0018-.7818 .0625-1.2188 .0607-.4494 .1978-1.0149 .3438-1.625a1.0828,1.0828 0 0,0 .0312-.3125l1.6562-5.9375a1.0828,1.0828 0 0,0 .0312-.0312 1.0828,1.0828 0 0,0 .0938-.2812 1.0828,1.0828 0 0,0 0-.0625h.0312a1.0828,1.0828 0 0,0 0-.0312c.01-.0397 .0261-.0739 .0312-.0938a1.0828,1.0828 0 0,0 0-.0625c.149-.5767 .2958-1.1715 .4062-1.75 .0835-.4373 .0791-.449 0-.0312 .147-.7172 .25-1.4237 .25-2.125-0-.6949-.1534-1.4964-.4375-2.2812z" transform="translate(0 1)"/>
<path opacity=".12" d="m48,16.0312c-19.0969,0-34.9688,12.7615-34.9688,28.9688 0,9.8126 6.0152,18.3102 14.8125,23.5-.2278,1.0474-.6132,2.3008-1.4688,3.625-1.149,1.7784-2.9471,3.4814-6.2188,4.4062a.9863,.9863 0 0,0 -.0312,0c.0001-0-.1564,.0625-.1562,.0625 .0001-0-.1563,.0626-.1562,.0625 .0001-.0001-.1251,.0938-.125,.0938 .0001-.0001-.1563,.0938-.1562,.0938 .0001-.0001-.1251,.0938-.125,.0938 .0001-.0001-.0938,.1251-.0938,.125 .0001-.0001-.1251,.1251-.125,.125 .0001-.0001-.0938,.1563-.0938,.1562 .0001-.0001-.0938,.1251-.0938,.125 .0001-.0001-.0625,.1564-.0625,.1562 0-.0001-.0625,.1564-.0625,.1562 0-.0001-.0313,.1564-.0312,.1562 0-.0001-.0313,.1564-.0312,.1562 0-.0001-.0313,.1564-.0312,.1562 0-.0001 0,.1876 0,.1875-0-.0001 0,.1564 0,.1562-0-.0001 .0313,.1564 .0312,.1562-0-.0001 .0313,.1564 .0312,.1562-0-.0001 .0625,.1564 .0625,.1562-0-.0001 .0626,.1564 .0625,.1562-0-.0001 .0626,.1563 .0625,.1562-.0001-.0001 .0938,.1563 .0938,.1562-.0001-.0001 .0938,.1251 .0938,.125-.0001-.0001 .1251,.1251 .125,.125-.0001-.0001 .1251,.0938 .125,.0938-.0001-.0001 .1251,.1251 .125,.125-.0001-.0001 .1251,.0938 .125,.0938-.0001-.0001 .1563,.0626 .1562,.0625-.0001-0 .1564,.0625 .1562,.0625-.0001-0 .1564,.0625 .1562,.0625-.0001-0 .1564,.0313 .1562,.0312-.0001-0 .1564,.0313 .1562,.0312a.9863,.9863 0 0,0 .0312,0c9.7546,1.0601 16.4521-3.3592 20.25-7.0625 2.3307,.4104 4.728,.6875 7.2188,.6875 19.0969,0 34.9688-12.7615 34.9688-28.9688 0-16.2072-15.8719-28.9688-34.9688-28.9688zm2.7812,12.9375c.7904,0 1.2145,.1819 1.7812,.7188a.9863,.9863 0 0,0 .0312,0 .9863,.9863 0 0,0 0,.0312c.5425,.5113 .6875,.8025 .6875,1.5-0,.7096-.1205,1.0034-.6875,1.5312-.5384,.4935-1.0139,.6875-1.8125,.6875-.8003,0-1.2926-.1912-1.8438-.6875-.567-.5279-.6875-.8217-.6875-1.5312-0-.7095 .1204-1.0033 .6875-1.5312 .5686-.5294 1.0519-.7187 1.8438-.7188zm-4.1875,12.1875c1.4004,0 2.2091,.3056 2.75,.75a.9863,.9863 0 0,0 .0312,.0312 .9863,.9863 0 0,0 .0938,.0938c.625,.5481 .8125,.9325 .8125,1.9062-0,.1953 .0075,.6714-.0625,1.3438-.0493,.5911-.1663,1.1376-.3125,1.625l-1.875,6.6562c-.173,.6054-.3368,1.2578-.4688,2-.1327,.7461-.2188,1.3796-.2188,1.9375-0,1.1526 .2451,2.4816 1.3125,3.3438-.381,.0571-.6587,.1875-1.125,.1875-1.5163,0-2.3846-.338-2.9688-.8438-.6341-.5788-.8438-1.0145-.8438-1.9062-0-.3997 .0249-.879 .0938-1.375 .0693-.513 .1943-1.0938 .3438-1.7188h-.0312l1.8438-6.5625a.9863,.9863 0 0,0 0-.0312h.0312a.9863,.9863 0 0,0 0-.0625c.0114-.0437 .02-.0816 .0312-.125 .154-.5957 .301-1.1675 .4062-1.7188 .0018-.0095-.0018-.0217 0-.0312 .1395-.673 .2187-1.3184 .2188-1.9375-0-1.1021-.1982-2.3322-1.125-3.2188-.0648-.062-.1511-.0699-.2188-.125 .4256-.0802 .914-.2187 1.2812-.2188z" transform="translate(0 1)"/>
<path opacity=".24" d="m48,17.0312c-18.6597,0-33.9688,12.4083-33.9688,27.9688 0,9.6667 5.998,18.0893 14.9375,23.0938-.2105,1.1926-.6513,2.862-1.75,4.5625-1.2551,1.9426-3.2901,3.8256-6.7812,4.8125a.9822,.9822 0 0,0 .1875,1.9062c9.6905,1.0532 16.2457-3.4959 19.8438-7.125 2.4289,.4545 4.9344,.7188 7.5312,.7188 18.6597,0 33.9688-12.4083 33.9688-27.9688 0-15.5604-15.3091-27.9688-33.9688-27.9688zm2.7812,10.9375c1.0077,0 1.7648,.3331 2.4688,1a.9822,.9822 0 0,0 .0312,0c.7128,.6637 1,1.3343 1,2.25-0,.9158-.2872,1.5864-1,2.25-.7003,.6512-1.4838,.9688-2.5,.9688-1.0162,0-1.8162-.3153-2.5312-.9688-.7128-.6636-1-1.3342-1-2.25-0-.9157 .2871-1.5863 1-2.25 .7187-.6691 1.5235-1 2.5312-1zm-4.1875,12.1875c1.6473,0 2.7767,.4099 3.5312,1.0938a.9822,.9822 0 0,0 0,.0312c.7892,.6921 1.1562,1.4777 1.1562,2.6562-0,.2499-.0208,.7374-.0938,1.4375-.0553,.6639-.1797,1.2658-.3438,1.8125l-1.875,6.6562c-.1641,.5744-.3113,1.1964-.4375,1.9062-.1265,.7112-.1875,1.277-.1875,1.75-0,1.0302 .1918,1.9603 .9375,2.5625 .7148,.5773 1.6124,.6875 2.6875,.6875 .3241,0 .7023-.099 1.0625-.1562-1.0209,.3903-2.0234,.7749-2.6875,1a.9822,.9822 0 0,0 -.0312,0c-.7648,.2722-1.6746,.4375-2.7812,.4375-1.6751,0-2.8288-.4045-3.625-1.0938-.804-.7269-1.1875-1.5303-1.1875-2.6562-0-.4734 .0531-.9823 .125-1.5 .0742-.5488 .1871-1.1575 .3438-1.8125l1.8438-6.5938a.9822,.9822 0 0,0 0-.0312c.1743-.6654 .3273-1.2927 .4375-1.875 .1313-.6235 .1875-1.1867 .1875-1.75-0-.992-.1661-1.8817-.8125-2.5-.6567-.6281-1.5675-.7812-2.6875-.7812-.3367,0-.6483,.0963-.9688,.1562 .8558-.3253 1.7067-.6597 2.5-.9062a.9822,.9822 0 0,0 .0312,0c1.0551-.3422 1.9974-.5312 2.875-.5312z" transform="translate(0 1)"/>
<path fill="url(#linearGradient3664)" d="m48,18c-18.2254,0-33,12.0883-33,27 0,9.4984 5.9998,17.8435 15.0625,22.6562-.3446,2.5088-1.914,8.6498-9.3438,10.75 9.6229,1.0458 16.0136-3.6463 19.4062-7.1875 2.5235,.5055 5.1611,.7812 7.875,.7812 18.2254,0 33-12.0883 33-27 0-14.9117-14.7746-27-33-27zm2.7812,9c1.2343,0 2.2877,.4272 3.1562,1.25 .8838,.8229 1.3125,1.8107 1.3125,2.9688-0,1.1581-.4287,2.1459-1.3125,2.9688-.8686,.8076-1.922,1.2188-3.1562,1.2188-1.2343,0-2.3037-.4111-3.1875-1.2188-.8838-.8228-1.3125-1.8106-1.3125-2.9688-0-1.1581 .4287-2.1459 1.3125-2.9688 .8838-.8228 1.9532-1.25 3.1875-1.25zm-4.1875,12.1875c1.8133,0 3.2122,.46 4.1875,1.3438 .9905,.8686 1.4687,2.0044 1.4688,3.4062-0,.2895-.0176,.7998-.0938,1.5312-.061,.7314-.1922,1.3905-.375,2l-1.875,6.6562c-.1524,.5333-.2844,1.1268-.4062,1.8125-.1219,.6857-.1875,1.212-.1875,1.5625-0,.8838 .1975,1.4925 .5938,1.8125 .3962,.32 1.0872,.4688 2.0625,.4688 .4571,0 .9834-.0663 1.5625-.2188 .579-.1676 .9909-.3156 1.25-.4375l-.5,2.0625c-1.5086,.5943-2.726,1.039-3.625,1.3438-.8991,.32-1.9364,.4688-3.125,.4688-1.8286,0-3.2603-.4287-4.2812-1.3125-1.0057-.899-1.5-2.0348-1.5-3.4062-0-.5333 .0488-1.0764 .125-1.625 .0762-.5638 .1761-1.2053 .3438-1.9062l1.875-6.6562c.1676-.64 .2996-1.2487 .4062-1.8125 .1219-.579 .1875-1.0901 .1875-1.5625-0-.8533-.1808-1.446-.5312-1.7812-.3505-.3352-1.0095-.5312-2-.5312-.4876,0-.9819,.0977-1.5,.25-.5029,.1524-.9468,.3004-1.3125,.4375l.5-2.0625c1.2343-.5028 2.4349-.9308 3.5625-1.2812 1.1276-.3657 2.1818-.5625 3.1875-.5625z"/>
<path opacity=".4" fill="#d40000" d="m-52,18c-18.2254,0-33,12.0883-33,27 0,9.4984 5.9998,17.8435 15.0625,22.6562-.3446,2.5088-1.914,8.6498-9.3438,10.75 9.6229,1.0458 16.0136-3.6463 19.4062-7.1875 2.5235,.5055 5.1611,.7812 7.875,.7812 18.2254,0 33-12.0883 33-27 0-14.9117-14.7746-27-33-27z"/>
<path opacity=".05" d="m-52,18c-18.2254,0-33,12.0883-33,27 0,9.4984 5.9998,17.8435 15.0625,22.6562-.3446,2.5088-1.914,8.6498-9.3438,10.75 9.6229,1.0458 16.0136-3.6463 19.4062-7.1875 2.5235,.5055 5.1611,.7812 7.875,.7812 18.2254,0 33-12.0883 33-27 0-14.9117-14.7746-27-33-27zm0,2.9375c16.9203,0 30.0625,11.1004 30.0625,24.0625 0,12.9621-13.1422,24.0625-30.0625,24.0625-2.514,0-4.9434-.2817-7.2812-.75a2.9518,2.9518 0 0,0 -2.7188,.875c-1.6209,1.6918-4.0041,3.5676-7.125,4.875 1.3415-2.3539 1.9347-4.6148 2.125-6a2.9518,2.9518 0 0,0 -1.5625-3c-8.2911-4.403-13.5-11.8069-13.5-20.0625 0-12.9621 13.1422-24.0625 30.0625-24.0625z"/>
<path opacity=".08" d="m-52,18c-18.2254,0-33,12.0883-33,27 0,9.4984 5.9998,17.8435 15.0625,22.6562-.3446,2.5088-1.914,8.6498-9.3438,10.75 9.6229,1.0458 16.0136-3.6463 19.4062-7.1875 2.5235,.5055 5.1611,.7812 7.875,.7812 18.2254,0 33-12.0883 33-27 0-14.9117-14.7746-27-33-27zm0,1.875c17.3932,0 31.125,11.4564 31.125,25.125 0,13.6686-13.7318,25.125-31.125,25.125-2.5865,0-5.0949-.2682-7.5-.75a1.8822,1.8822 0 0,0 -1.7188,.5312c-2.2298,2.3274-5.8621,5.105-10.9062,6.2188 .603-.6367 1.3199-1.2405 1.75-1.9062 1.5731-2.4349 2.1159-4.8817 2.3125-6.3125a1.8822,1.8822 0 0,0 -1-1.9062c-8.5707-4.5515-14.0625-12.2941-14.0625-21 0-13.6686 13.7318-25.125 31.125-25.125z"/>
<path opacity=".15" d="m-52,18c-18.2254,0-33,12.0883-33,27 0,9.4984 5.9998,17.8435 15.0625,22.6562-.3446,2.5088-1.914,8.6498-9.3438,10.75 9.6229,1.0458 16.0136-3.6463 19.4062-7.1875 2.5235,.5055 5.1611,.7812 7.875,.7812 18.2254,0 33-12.0883 33-27 0-14.9117-14.7746-27-33-27zm0,1.0625c17.7572,0 31.9375,11.7252 31.9375,25.9375 0,14.2123-14.1803,25.9375-31.9375,25.9375-2.6422,0-5.1994-.2578-7.6562-.75a1.0589,1.0589 0 0,0 -.9688,.3125c-2.6438,2.7595-7.2489,6.0491-13.7812,6.7188 1.4426-1.0373 2.5503-2.2407 3.3438-3.4688 1.4817-2.2934 2.0015-4.5838 2.1875-5.9375a1.0589,1.0589 0 0,0 -.5625-1.0938c-8.7859-4.6658-14.5-12.6662-14.5-21.7188 0-14.2123 14.1803-25.9375 31.9375-25.9375z"/>
<path fill="url(#linearGradient3746)" d="m48,18c-18.2254,0-33,12.0883-33,27 0,.2084 .0255,.4177 .0312,.625 .8838-14.266 15.3129-25.625 32.9688-25.625 17.8111,0 32.318,11.5574 32.9688,26 .0151-.3359 .0312-.661 .0312-1 0-14.9117-14.7746-27-33-27zm-1.5938,14.2188c-.0773,.3159-.125,.6538-.125,1-0,1.1581 .4287,2.1459 1.3125,2.9688 .8838,.8076 1.9532,1.2188 3.1875,1.2188 1.2343,0 2.2877-.4111 3.1562-1.2188 .8838-.8228 1.3125-1.8106 1.3125-2.9688-0-.3462-.0477-.6841-.125-1-.1814,.7408-.5679,1.3919-1.1875,1.9688-.8686,.8076-1.922,1.2188-3.1562,1.2188-1.2343,0-2.3037-.4111-3.1875-1.2188-.6196-.5768-1.0062-1.2279-1.1875-1.9688zm-4.25,10.1875c-.3155,0-.643,.0549-.9688,.125-.4452,.1653-.8873,.3141-1.3438,.5l-.5,2.0625c.3657-.1371 .8096-.2851 1.3125-.4375 .5181-.1523 1.0124-.25 1.5-.25 .9905,0 1.6495,.196 2,.5312 .1974,.1888 .3497,.4598 .4375,.8125 .0564-.3612 .0938-.7138 .0938-1.0312-0-.8533-.1808-1.446-.5312-1.7812-.3505-.3352-1.0095-.5312-2-.5312zm10.0312,2.75c-.011,.1311-.0157,.1629-.0312,.3125-.061,.7314-.1922,1.3905-.375,2l-1.875,6.6562c-.1524,.5333-.2844,1.1268-.4062,1.8125-.1219,.6857-.1875,1.212-.1875,1.5625-0,.3737 .0543,.6945 .125,.9688 .0258-.1728 .0269-.3308 .0625-.5312 .1219-.6857 .2539-1.2792 .4062-1.8125l1.875-6.6562c.1828-.6095 .314-1.2686 .375-2 .0762-.7314 .0937-1.2417 .0938-1.5312-0-.2735-.0258-.5281-.0625-.7812zm-10.375,13.9062c-.0457,.4086-.0625,.8193-.0625,1.2188-0,1.3714 .4943,2.5072 1.5,3.4062 1.0209,.8838 2.4527,1.3125 4.2812,1.3125 1.1886,0 2.2259-.1487 3.125-.4688 .899-.3048 2.1164-.7495 3.625-1.3438l.5-2.0625c-.2591,.1219-.671,.2699-1.25,.4375-.1888,.0497-.3543,.0617-.5312,.0938-.841,.317-1.762,.6778-2.3438,.875-.8991,.32-1.9364,.4688-3.125,.4688-1.8286,0-3.2603-.4287-4.2812-1.3125-.8033-.7181-1.278-1.6054-1.4375-2.625zm-12.125,10.375c-.7889,2.9258-2.9421,7.2652-8.9688,8.9688 1.4386,.1563 2.7988,.1709 4.0938,.0938 3.9509-2.7354 4.9814-6.8885 5.25-8.8438-.1292-.0686-.2471-.1487-.375-.2188z"/>
<path fill="url(#linearGradient3661)" line-height="100%" d="m-49.2145,27c-1.2343,0-2.3037,.4272-3.1875,1.25-.8838,.8229-1.3125,1.8107-1.3125,2.9688-0,1.1581 .4287,2.1459 1.3125,2.9688 .8838,.8076 1.9532,1.2188 3.1875,1.2188 1.2343,0 2.2877-.4111 3.1562-1.2188 .8838-.8228 1.3125-1.8106 1.3125-2.9688-0-1.1581-.4287-2.1459-1.3125-2.9688-.8686-.8228-1.922-1.25-3.1562-1.25zm-4.1875,12.1875c-1.0057,0-2.0599,.1968-3.1875,.5625-1.1276,.3505-2.3282,.7784-3.5625,1.2812l-.5,2.0625c.3657-.1371 .8096-.2851 1.3125-.4375 .5181-.1524 1.0124-.25 1.5-.25 .9905,0 1.6495,.196 2,.5312 .3505,.3353 .5312,.9279 .5312,1.7812-0,.4724-.0656,.9835-.1875,1.5625-.1067,.5638-.2386,1.1725-.4062,1.8125l-1.875,6.6562c-.1676,.701-.2676,1.3425-.3438,1.9062-.0762,.5486-.125,1.0917-.125,1.625-0,1.3714 .4943,2.5072 1.5,3.4062 1.0209,.8838 2.4527,1.3125 4.2812,1.3125 1.1886,0 2.2259-.1487 3.125-.4688 .899-.3048 2.1164-.7495 3.625-1.3438l.5-2.0625c-.2591,.1219-.671,.2699-1.25,.4375-.5791,.1524-1.1054,.2188-1.5625,.2188-.9753,0-1.6663-.1487-2.0625-.4688-.3962-.32-.5938-.9287-.5938-1.8125-0-.3505 .0656-.8768 .1875-1.5625 .1219-.6857 .2539-1.2792 .4062-1.8125l1.875-6.6562c.1828-.6095 .314-1.2686 .375-2 .0762-.7314 .0937-1.2417 .0938-1.5312-0-1.4019-.4783-2.5377-1.4688-3.4062-.9753-.8838-2.3742-1.3437-4.1875-1.3438z"/>
</svg>
