<svg width="96" version="1.0" xmlns="http://www.w3.org/2000/svg" height="96" xmlns:xlink="http://www.w3.org/1999/xlink">
<defs id="defs2410">
<clipPath id="clipPath3613">
<rect width="84" x="6" y="6" rx="6" height="84" ry="6" style="fill:#fff;stroke:none" id="rect3615"/>
</clipPath>
<clipPath id="clipPath3853">
<rect width="60" x="-78" y="48" rx="5" height="60" ry="5" style="fill:#fff;stroke:none" id="rect3855"/>
</clipPath>
<filter style="color-interpolation-filters:sRGB" id="filter3865">
<feGaussianBlur stdDeviation="2.4" id="feGaussianBlur3867"/>
</filter>
<filter style="color-interpolation-filters:sRGB" id="filter4005">
<feGaussianBlur stdDeviation="1.2531246" id="feGaussianBlur4007"/>
</filter>
<filter style="color-interpolation-filters:sRGB" id="filter4009">
<feGaussianBlur stdDeviation="1.2531246" id="feGaussianBlur4011"/>
</filter>
<filter width="1.3839999" x="-0.192" y="-0.192" height="1.3839999" style="color-interpolation-filters:sRGB" id="filter3794">
<feGaussianBlur stdDeviation="5.28" id="feGaussianBlur3796"/>
</filter>
<filter style="color-interpolation-filters:sRGB" id="filter3174">
<feGaussianBlur stdDeviation="1.71" id="feGaussianBlur3176"/>
</filter>
<linearGradient gradientTransform="translate(-5.25,-43.250002)" id="linearGradient5169-4" xlink:href="#linearGradient5149-7" y1="92.866791" x1="77" y2="45.616791" x2="81.5" gradientUnits="userSpaceOnUse"/>
<linearGradient id="linearGradient5149-7">
<stop offset="0" style="stop-color:#d8e8c2" id="stop5151-5"/>
<stop offset="1" style="stop-color:#d8e8c2;stop-opacity:0" id="stop5153-1"/>
</linearGradient>
<linearGradient gradientTransform="matrix(1.0238095,0,0,1.0119048,-1.1428571,-98.071429)" id="linearGradient3780" xlink:href="#ButtonShadow-0" y1="6.1317081" x1="32.251034" y2="90.238609" x2="32.251034" gradientUnits="userSpaceOnUse"/>
<linearGradient gradientTransform="translate(-1.75,-32.750002)" id="linearGradient3950" xlink:href="#linearGradient5149-7" y1="62.08614" x1="27.5" y2="62.08614" x2="99.467018" gradientUnits="userSpaceOnUse"/>
<linearGradient gradientTransform="matrix(1.0238095,0,0,1.0119048,-1.1428571,-98.071429)" id="linearGradient3772" xlink:href="#ButtonShadow-0" y1="6.1317081" x1="32.251034" y2="90.238609" x2="32.251034" gradientUnits="userSpaceOnUse"/>
<linearGradient gradientTransform="matrix(1.0058652,0,0,0.994169,100,0)" id="ButtonShadow-0" y1="92.539597" x1="45.447727" y2="7.0165396" x2="45.447727" gradientUnits="userSpaceOnUse">
<stop offset="0" id="stop3750-8"/>
<stop offset="1" style="stop-opacity:.588" id="stop3752-5"/>
</linearGradient>
<linearGradient gradientTransform="matrix(1.0238095,0,0,1.0119048,-1.1428571,-98.071429)" id="linearGradient3725" xlink:href="#ButtonShadow-0" y1="6.1317081" x1="32.251034" y2="90.238609" x2="32.251034" gradientUnits="userSpaceOnUse"/>
<linearGradient gradientTransform="translate(0,-97)" id="linearGradient3721" xlink:href="#ButtonShadow-0" y1="6.1317081" x1="32.251034" y2="90.238609" x2="32.251034" gradientUnits="userSpaceOnUse"/>
<linearGradient gradientTransform="matrix(0,1,-1,0,96,0)" id="linearGradient3843" xlink:href="#linearGradient3465" y1="48" x1="16" y2="48" x2="80" gradientUnits="userSpaceOnUse"/>
<linearGradient id="linearGradient3613" xlink:href="#linearGradient3737" y1="20.220806" x1="48" y2="138.66119" x2="48" gradientUnits="userSpaceOnUse"/>
<linearGradient id="linearGradient3188" xlink:href="#linearGradient3737" y1="6" x1="36.357143" y2="63.893143" x2="36.357143" gradientUnits="userSpaceOnUse"/>
<linearGradient gradientTransform="scale(1.0058652,0.994169)" id="ButtonShadow" y1="92.539597" x1="45.447727" y2="7.0165396" x2="45.447727" gradientUnits="userSpaceOnUse">
<stop offset="0" id="stop3750"/>
<stop offset="1" style="stop-opacity:.588" id="stop3752"/>
</linearGradient>
<linearGradient id="linearGradient3737">
<stop offset="0" style="stop-color:#fff" id="stop3739"/>
<stop offset="1" style="stop-color:#fff;stop-opacity:0" id="stop3741"/>
</linearGradient>
<linearGradient gradientTransform="matrix(1.0238095,0,0,1.0119048,-1.1428571,-98.071429)" id="linearGradient3811" xlink:href="#ButtonShadow-0" y1="6.1317081" x1="32.251034" y2="90.238609" x2="32.251034" gradientUnits="userSpaceOnUse"/>
<linearGradient gradientTransform="matrix(4.2857143,0,0,4.2857143,-95.14286,0.857143)" id="linearGradient3795" xlink:href="#linearGradient3437" y1="11" x1="4.1767769" y2="11" x2="18" gradientUnits="userSpaceOnUse"/>
<linearGradient id="linearGradient3465">
<stop offset="0" style="stop-color:#a17135" id="stop3467"/>
<stop offset="1" style="stop-color:#d8b279" id="stop3469"/>
</linearGradient>
<linearGradient id="linearGradient3437">
<stop offset="0" style="stop-color:#275a39" id="stop3439"/>
<stop offset="1" style="stop-color:#448459" id="stop5117"/>
</linearGradient>
<linearGradient id="linearGradient3187">
<stop offset="0" style="stop-color:#bf8445" id="stop3189"/>
<stop offset="1" style="stop-color:#e8bd81" id="stop3191"/>
</linearGradient>
<linearGradient id="linearGradient3617" xlink:href="#linearGradient3187" y1="90" x1="48" y2="5.9877172" x2="48" gradientUnits="userSpaceOnUse"/>
<radialGradient fx="48" fy="90.171875" cx="48" cy="90.171875" gradientTransform="matrix(1.1573129,0,0,0.99590774,-7.5510206,0.19713193)" r="42" id="radialGradient3619" xlink:href="#linearGradient3737" gradientUnits="userSpaceOnUse"/>
</defs>
<g style="display:none" id="layer2">
<rect width="86" x="5" y="7" rx="6" height="85" ry="6" style="opacity:.9;fill:url(#ButtonShadow);filter:url(#filter3174);stroke:none" id="rect3745"/>
</g>
<g style="stroke:none" id="layer4">
<path style="opacity:.08;fill:url(#linearGradient3811)" id="path3786" d="m 12,-95.0312 c -5.51109,0 -10.0312,4.52016 -10.0312,10.0312 v 71 c 0,5.51109 4.52016,10.0312 10.0312,10.0312 h 72 c 5.51109,0 10.0312,-4.52016 10.0312,-10.0312 v -71 c 0,-5.51109 -4.52016,-10.0312 -10.0312,-10.0312 h -72 z " transform="scale(1,-1)"/>
<path style="opacity:.1;fill:url(#linearGradient3780)" id="path3778" d="m 12,-94.0312 c -4.97163,0 -9.03125,4.05962 -9.03125,9.03125 v 71 c 0,4.97163 4.05962,9.03125 9.03125,9.03125 h 72 c 4.97163,0 9.03125,-4.05962 9.03125,-9.03125 v -71 c 0,-4.97163 -4.05962,-9.03125 -9.03125,-9.03125 h -72 z " transform="scale(1,-1)"/>
<path style="opacity:.2;fill:url(#linearGradient3772)" id="path3770" d="m 12,-93 c -4.40913,0 -8,3.59087 -8,8 v 71 c 0,4.40913 3.59087,8 8,8 h 72 c 4.40913,0 8,-3.59087 8,-8 v -71 c 0,-4.40913 -3.59087,-8 -8,-8 h -72 z " transform="scale(1,-1)"/>
<rect width="86" x="5" y="-92" rx="7" height="85" ry="7" style="opacity:.3;fill:url(#linearGradient3725)" id="rect3723" transform="scale(1,-1)"/>
<rect width="84" x="6" y="-91" rx="6" height="84" ry="6" style="opacity:.45;fill:url(#linearGradient3721)" id="rect3716" transform="scale(1,-1)"/>
</g>
<g style="stroke:none" id="layer1">
<rect width="84" x="6" y="6" rx="6" height="84" ry="6" style="fill:url(#linearGradient3617)" id="rect2419"/>
<g style="fill-rule:evenodd">
<path style="fill:url(#linearGradient3843)" id="path3832" d="M 80,22.9375 C 80,19.13984 76.86016,16 73.0625,16 l -50.125,0 C 19.13984,16 16,19.13984 16,22.9375 l 0,50.125 C 16,76.86016 19.13984,80 22.9375,80 l 50.125,0 C 76.86016,80 80,76.86016 80,73.0625 l 0,-50.125 z M 78,23 78,73 c 0,2.77 -2.23,5 -5,5 l -50,0 c -2.77,0 -5,-2.23 -5,-5 l 0,-50 c 0,-2.77 2.23,-5 5,-5 l 50,0 c 2.77,0 5,2.23 5,5 z"/>
<path style="opacity:.5;fill:#593a19" id="path3313-8" d="m 84,6 c -3.68543,0.154348 -7.3767,0.26872 -11.0625,0.4375 -3.16052,0.183929 -6.31024,0.344802 -9.46875,0.5625 1.0703,-0.004 2.1172,0.005 3.1875,0 1.95432,-0.0625 3.95076,-0.12025 5.90625,-0.125 1.85017,-0.0113 3.68163,-0.0032 5.53125,0.03125 -1.50746,0.0358 -2.95427,0.0449 -5.34375,0.0625 -2.02,0.0149 -4.07372,0.02195 -6.09375,0.03125 -0.324334,0.0104 -0.613226,0.01935 -0.9375,0.03125 2.33171,-0.01 4.63707,-0.01405 6.96875,-0.03125 1.80473,-0.0133 3.63274,-0.03985 5.4375,-0.03125 -2.29926,0.03773 -4.60607,0.08602 -6.90625,0.09375 h 4.71875 5.875 c 0.309397,0 0.596831,-0.002 0.90625,0 0.187845,0.008 0.405927,0.02235 0.59375,0.03125 -0.505706,0.004 -1.02559,0.03125 -1.53125,0.03125 -1.95926,1e-05 -3.91574,0 -5.875,0 h -2.3125 c 4.21636,0.0306 8.44249,0.112972 12.6562,0.28125 0.475108,0.021 0.930272,0.0369 1.40625,0.0625 -0.03621,-0.0302 -0.05688,-0.06435 -0.09375,-0.09375 -0.106417,-0.03 -0.208859,-0.0566 -0.3125,-0.0625 -0.619553,-0.036 -1.25524,-0.06175 -1.875,-0.09375 -0.739272,-0.0371 -1.18888,-0.06526 -1.75,-0.09375 1.25329,0.0772 2.52688,0.12263 3.78125,0.15625 -0.05835,-0.0438 -0.127643,-0.11441 -0.1875,-0.15625 -0.09047,-0.004 -0.190464,0.0023 -0.28125,0 -0.852526,-0.0216 -1.6784,-0.03665 -2.53125,-0.03125 0.86039,0.005 1.70241,-0.01005 2.5625,-0.03125 0.04498,-0.00071 0.07981,0.002 0.125,0 -0.146345,-0.0981 -0.283012,-0.195001 -0.4375,-0.28125 -2.24676,0.0842 -4.50262,0.141461 -6.75,0.1875 -0.538264,-0.0152 -1.05539,-0.052 -1.59375,-0.0625 1.24332,-0.0325 2.52193,-0.06089 4.40625,-0.1875 1.07584,-0.0723 2.14534,-0.181351 3.21875,-0.28125 -0.540599,-0.21842 -1.11664,-0.371896 -1.71875,-0.4375 -0.02086,-0.0023 -0.04157,0.0021 -0.0625,0 -0.02218,0.00071 -0.04031,-0.00072 -0.0625,0 -0.02079,0.000874 -0.04171,-0.00087 -0.0625,0 -0.01035,-5e-05 -0.02089,0 -0.03125,0 z  m -18.2812,1.0312 c -0.920632,0.004 -1.86062,-0.0032 -2.78125,0 -3.78404,0.266027 -7.57454,0.607214 -11.3438,1.0625 -0.387161,0.0452 -4.68255,0.551142 -6.6875,0.78125 0.113236,0.00071 0.230513,-0.00071 0.34375,0 2.17665,-0.250927 5.97263,-0.70662 6.34375,-0.75 4.69641,-0.563365 9.40224,-0.918432 14.125,-1.09375 z  m -20.4688,1.8438 c -0.521143,0.0601 -1.35635,0.16853 -1.53125,0.1875 4.99015,-0.0464 9.9781,-0.09405 14.9688,-0.09375 7.24478,-0.016 14.5079,-0.03401 21.75,0.1875 2.93406,0.0372 5.84896,0.113941 8.78125,0.21875 -0.155408,-0.286938 -0.33608,-0.585052 -0.53125,-0.84375 -2.63056,0.0816 -5.27469,0.15475 -7.90625,0.1875 -7.35699,0.214158 -14.703,0.23898 -22.0625,0.21875 -4.49286,-0.00028 -8.97635,-0.0231 -13.4688,-0.0625 z  m -.3438,0 c -2.94463,-0.0267 -5.89918,-0.072011 -8.84375,-0.125 -5.78926,-0.0507 -11.5856,-0.120228 -17.375,-0.0625 -3.21521,0.058 -6.41043,0.200761 -9.625,0.28125 -0.68707,0.0172 -1.37543,0.01815 -2.0625,0.03125 -0.0088,0.014 -0.02264,0.0485 -0.03125,0.0625 0.672413,-0.006 1.32724,-0.03295 2,-0.03125 3.11073,0.008 6.23312,0.08685 9.34375,0.125 5.81026,0.0415 11.6274,0.01225 17.4375,-0.03125 2.50256,-0.0412 4.99743,-0.0384 7.5,-0.0625 0.06037,-0.006 0.15839,-0.02535 0.21875,-0.03125 0.08286,-0.008 1.00426,-0.10653 1.4375,-0.15625 z  m 18.0312,-1.8438 c 0.173597,-0.0122 0.357636,-0.01935 0.53125,-0.03125 -3.51246,0.0128 -7.05004,0.02265 -10.5625,0.03125 0.467956,0.002 0.938289,0.02955 1.40625,0.03125 -8.71007,1e-05 -17.4149,0 -26.125,0 0.527879,0.0183 1.03453,0.0482 1.5625,0.0625 h 0.3125 c 7.60359,-0.001 15.2402,-0.01705 22.8438,-0.03125 3.35045,-0.008 6.6808,-0.0508 10.0312,-0.0625 z  m -32.875,.0938 c 4.0952,0.105259 8.21549,0.121359 12.3125,0.09375 3.94176,-0.0545 7.87051,-0.08347 11.8125,-0.09375 h -24.125 z  m -1.875,-.0625 c 7.77708,-0.00071 15.5354,-0.01805 23.3125,-0.03125 -2.97354,-0.0197 -5.9331,-0.03156 -8.90625,-0.09375 -6.34898,-0.109309 -12.7122,-0.21889 -19.0625,-0.1875 -2.32276,-0.03013 -4.65288,-0.05381 -6.96875,-0.09375 2.29049,0.03987 4.58128,0.110086 6.875,0.1875 1.57492,0.097 3.17407,0.16411 4.75,0.21875 z  m -11.625,-.4062 c -1.91954,-0.0331 -3.82458,-0.08477 -5.75,-0.09375 -0.341617,-0.001 -0.689506,-0.00049 -1.03125,0 -0.0299,0.0138 -0.06407,0.01705 -0.09375,0.03125 2.2943,0.0131 4.58451,0.02263 6.875,0.0625 z  m -7.5625,.3125 c -0.04492,0.0287 -0.08087,0.06405 -0.125,0.09375 3.32862,-0.004 6.64008,0.00057 9.96875,0 -3.28842,0.009 -6.5568,-0.04265 -9.84375,-0.09375 z  m -.1875,.1562 c -0.03844,0.0266 -0.08718,0.0351 -0.125,0.0625 1.69182,-0.02475 3.37253,-0.04526 5.0625,-0.0625 -1.64623,0.00055 -3.2917,0.002 -4.9375,0 z  m 21.125,2.7188 c -1.40111,0.03129 -2.81611,0.04932 -4.21875,0.0625 -3.25695,0.0744 -6.52313,0.206881 -9.78125,0.3125 3.23923,-0.108169 6.47682,-0.20716 9.71875,-0.28125 1.42806,-0.01343 2.84784,-0.0536 4.28125,-0.09375 z  m -14,.375 c -1.7736,0.0575 -3.54048,0.08258 -5.3125,0.15625 -3.38011,0.140549 -3.83515,0.18727 -4.34375,0.21875 3.22457,-0.156339 6.43177,-0.267301 9.65625,-0.375 z  m 73.6875,.0625 c -4.99947,0.508176 -10.0429,0.661481 -15.0625,0.8125 -1.8915,0.0494 -3.79567,0.09956 -5.6875,0.125 1.88641,-0.0291 3.77049,-0.0193 5.65625,-0.0625 5.05572,-0.152059 10.1364,-0.357052 15.1875,-0.625 -0.02598,-0.083 -0.0646,-0.1685 -0.09375,-0.25 z  m -20.9062,.9375 c -5.73481,0.0752 -11.4837,0.06205 -17.2188,0.03125 -7.14809,-0.0578 -14.2895,0.0085 -21.4375,0.03125 -3.00194,0.02136 -6.00075,0.05486 -9,0.0625 2.96448,0.0072 5.94054,0.0075 8.90625,0.03125 7.13658,0.0293 14.2695,0.09145 21.4062,0.03125 5.77721,-0.0432 11.5656,-0.09934 17.3438,-0.1875 z  m -47.6562,.125 c -1.99973,-0.0048 -4.00026,-0.03506 -6,-0.03125 1.99948,0.0032 4.00052,0.03634 6,0.03125 z  m -6,-.0312 c -2.97837,-0.0048 -5.95646,-0.0029 -8.9375,-0.03125 -0.0064,0.0362 0.0064,0.05736 0,0.09375 2.984,-0.02736 5.95475,-0.05682 8.9375,-0.0625 z  m -9,.3125 c -0.0021,0.0147 0.0021,0.0478 0,0.0625 8.3189,0.325737 16.676,0.41197 25,0.46875 9.78086,0.0153 19.5328,0.241292 29.3125,0.375 7.96684,0.0912 15.9392,0.11544 23.9062,0.1875 1.11071,0.0127 2.2326,0.0433 3.34375,0.0625 0.7912,-0.0251 1.58415,-0.08941 2.375,-0.125 v -0.1875 c -1.86659,0.0557 -3.726,0.09404 -5.59375,0.09375 -7.9967,0.0491 -16.0037,0.01385 -24,-0.09375 -9.77974,-0.133679 -19.5629,-0.35969 -29.3438,-0.375 -8.33143,-0.0568 -16.6737,-0.142322 -25,-0.46875 z  m 81.5625,1.1562 c -3.23997,0.102899 -6.47635,0.12242 -9.71875,0.125 4.02728,-0.003 8.04445,0.0356 12.0625,0.28125 0.0075,-0.00054 0.02379,0.00054 0.03125,0 v -0.34375 c -0.790316,-0.0234 -1.58443,-0.0489 -2.375,-0.0625 z  m -50.2812,-.0625 c -3.22962,0.007 -6.45918,0.0353 -9.6875,0.0625 -7.1935,0.0637 -14.4001,0.06295 -21.5938,0.03125 -0.02264,-0.00025 -0.03993,0.00025 -0.0625,0 v 0.03125 c 0.05339,-0.00013 0.102867,0.00043 0.15625,0 1.34683,-0.0339 2.69235,0.0348 4.03125,0.15625 5.75543,-0.0167 11.4947,-0.02005 17.25,0.03125 6.46294,0.0551 12.9435,0.07925 19.4062,-0.03125 4.23016,-0.06864 8.46264,-0.08884 12.6875,-0.09375 -4.16796,-0.01045 -8.32748,-0.05632 -12.5,-0.125 -3.22822,-0.05517 -6.45788,-0.06949 -9.6875,-0.0625 z  m -27.1562,.2812 c -1.39547,0.004 -2.79202,-0.006 -4.1875,0 v 0.4375 c 2.78773,0.0208 5.5876,0.04186 8.375,0.09375 0.829671,0.009 1.63908,0.02255 2.46875,0.03125 -1.4512,-0.0894 -1.87557,-0.102482 -3.8125,-0.28125 -0.946652,-0.0874 -1.89653,-0.195331 -2.84375,-0.28125 z  m 6.6562,.5625 c 0.144274,0.009 0.234833,0.02055 0.40625,0.03125 0.279115,-0.004 0.564642,0.004 0.84375,0 -0.407336,-0.004 -0.842657,-0.02705 -1.25,-0.03125 z  m 1.25,.0312 c 6.04919,0.0622 12.0755,0.103869 18.125,0.09375 9.1046,0.001 18.2392,0.0072 27.3438,-0.03125 2.1221,-0.0118 4.2217,-0.01585 6.34375,-0.03125 -3.52449,0.006 -7.03809,0.00095 -10.5625,-0.03125 -6.4784,-0.0449 -12.9592,-0.03555 -19.4375,-0.09375 -5.81536,-0.0398 -11.6223,-0.03585 -17.4375,0.03125 -1.45625,0.0223 -2.91879,0.0404 -4.375,0.0625 z  m 51.8125,.0312 c -2.12244,0.0098 -4.24994,0.05075 -6.375,0.0625 -9.10454,0.0391 -18.2079,0.03265 -27.3125,0.03125 -4.84178,-0.0105 -9.68961,0.0217 -14.5312,0.0625 1.31919,0.0446 2.64909,0.09722 3.96875,0.125 -1.16792,-0.008 -2.36335,-0.01805 -3.53125,-0.03125 -1.56149,-0.0231 -3.09481,-0.0414 -4.65625,-0.0625 -1.1086,0.011 -2.23516,0.01955 -3.34375,0.03125 -1.70308,0.0305 -3.4218,0.044 -5.125,0.0625 1.58381,0.0742 3.16591,0.150631 4.75,0.21875 2.09796,0.0281 4.24618,0.05996 6.34375,0.125 1.76497,0.0449 3.5163,0.11159 5.28125,0.15625 0.07418,0.002 0.144567,-0.002 0.21875,0 2.70463,0.0169 5.38934,0.04115 8.09375,0.03125 6.92759,-0.0719 13.8846,-0.11788 20.8125,-0.125 6.2017,-0.0004 12.3925,0.09465 18.5938,0.15625 4.00565,-0.001 7.99533,0.199729 12,0.03125 0.757746,-0.0318 1.55546,-0.07865 2.3125,-0.125 0.71001,-0.039 1.41607,-0.10271 2.125,-0.15625 -0.736412,0.1068 -1.45958,0.184541 -2.09375,0.25 -1.55233,0.160239 -3.13089,0.20521 -4.6875,0.3125 -1.74092,0.0818 -3.44603,0.181531 -5.1875,0.25 -4.04919,0.159239 -7.31627,0.25091 -11.375,0.25 -5.61322,-0.001 -11.2328,-0.202931 -16.8438,-0.34375 -7.92048,-0.159588 -15.8305,-0.330972 -23.75,-0.53125 7.90561,0.202598 15.8122,0.434461 23.7188,0.59375 5.61103,0.140818 11.2305,0.31119 16.8438,0.3125 4.05917,0.00071 7.29412,-0.09078 11.3438,-0.25 1.74148,-0.0685 3.4778,-0.136931 5.21875,-0.21875 1.5538,-0.103759 3.13301,-0.220461 4.6875,-0.3125 1.45436,-0.0861 1.97286,-0.09871 2.59375,-0.125 v -0.5625 c -1.85492,0.004 -3.70756,0.01 -5.5625,0 -3.63096,0.114469 -7.27552,-0.0047 -10.9062,0.125 -6.29687,0.0627 -12.6089,0.1518 -18.9062,0.15625 -6.86642,-0.003 -13.7279,-0.017721 -20.5938,-0.125 -2.74501,-0.0338 -5.47392,-0.03716 -8.21875,-0.09375 4.58123,0.0308 9.16874,0.0295 13.75,0 6.52702,-0.0561 13.0667,-0.04925 19.5938,-0.09375 7.04114,-0.0633 14.0526,-0.01385 21.0938,0.03125 1.39462,0.009 2.79251,-0.0075 4.1875,0 0.415271,-0.0131 0.834954,-0.01035 1.25,-0.03125 0.762633,-0.0385 1.51949,-0.1024 2.28125,-0.15625 0.677258,-0.0427 1.35508,-0.099142 2.03125,-0.15625 v -0.125 c -0.571696,-0.001 -1.14709,-0.006 -1.71875,0 -0.469783,0.005 -0.936503,-0.0075 -1.40625,0 -2.13327,0.106319 -4.27349,0.17056 -6.40625,0.1875 -0.51318,0.004 -1.01807,-0.003 -1.53125,0 1.56077,-0.0231 3.1269,-0.09096 4.6875,-0.125 -1.79792,0.0372 -3.57324,0.07775 -4.65625,0.09375 -2.3115,0.0342 -4.65716,0.07415 -6.96875,0.09375 -0.697051,0.0041 -1.39673,-0.0032 -2.09375,0 z  m 13.7188,-.1875 c 1.0909,-0.0238 2.15901,-0.0451 3.25,-0.0625 0.490001,-0.0244 0.979198,-0.0311 1.46875,-0.0625 -1.12485,0.0548 -2.92083,0.08786 -4.71875,0.125 z  m -69.875,.6875 c -0.981121,-0.01311 -1.95672,0.0048 -2.9375,0 1.60467,0.01424 3.20561,0.0288 4.8125,0.0625 -0.625956,-0.0246 -1.24917,-0.0357 -1.875,-0.0625 z  m 1.875,.0625 c 0.460299,0.0181 0.914608,0.0461 1.375,0.0625 1.00263,0.03246 2.02238,0.04269 3.03125,0.0625 -1.46317,-0.0292 -2.9426,-0.09422 -4.40625,-0.125 z  m -4.8125,-.0625 c -1.60686,-0.0079 -3.20503,-0.04125 -4.8125,-0.03125 v 0.03125 c 1.60686,-0.02395 3.20783,-0.01424 4.8125,0 z  m -1.8125,-.2188 c -1.00285,-0.047 -1.997,-0.07966 -3,-0.125 v 0.15625 c 1.00243,-0.008 1.9976,-0.02035 3,-0.03125 z  m 8.4688,-.0938 c 1.34984,-0.0133 2.6814,-0.01985 4.03125,-0.03125 -1.31169,-0.0453 -2.62656,-0.0867 -3.9375,-0.15625 -0.163281,-0.0103 -0.171223,-0.02255 -0.3125,-0.03125 -3.74652,0.0565 -7.5032,0.09845 -11.25,0.125 3.82019,-0.004 7.64878,0.04225 11.4688,0.09375 z  m 42.1562,-.9062 c 4.19364,-0.0046 8.39443,0.03194 12.5938,0.03125 1.8082,1e-05 3.62756,-0.02935 5.4375,-0.03125 -1.80213,0.00071 -3.63603,1e-05 -5.4375,0 -4.20416,-0.001 -8.39461,0.01027 -12.5938,0 z  m 30.375,3.0625 c -5.94938,0.518195 -11.9431,0.746521 -17.9062,0.9375 -3.32886,0.118929 -6.63976,0.202771 -9.96875,0.3125 0.188508,0.0005 0.373987,0.03045 0.5625,0.03125 3.12755,-0.102729 6.24759,-0.200761 9.375,-0.3125 4.98867,-0.159728 9.98885,-0.328204 14.9688,-0.6875 1.30161,-0.0939 2.07281,-0.172801 2.96875,-0.25 v -0.03125 z  m -27.3125,1.2812 c -3.60617,0.118449 -7.20731,0.260211 -10.8125,0.40625 -0.188633,0.0076 -0.373872,-0.008 -0.5625,0 -0.53576,0.0221 -1.08928,0.0393 -1.625,0.0625 0.535091,0.004 1.08991,0.02755 1.625,0.03125 -0.158582,0.004 -0.341424,0.02695 -0.5,0.03125 7.87522,0.0558 15.7499,0.110901 23.625,0.1875 1.77255,0.0105 3.68352,0.02365 5.59375,0.03125 -1.85626,-0.0137 -3.71086,-0.0516 -5.5625,-0.0625 -7.66408,-0.0745 -15.3045,-0.13226 -22.9688,-0.1875 1.43415,-0.0373 2.84681,-0.06695 4.28125,-0.09375 3.09757,0.01 6.21426,0.0132 9.3125,0 -2.17669,-0.00063 -4.38714,-0.02405 -6.5625,-0.03125 0.452961,-0.008 0.92204,-0.02375 1.375,-0.03125 4.72212,-0.0718 9.43365,-0.13354 14.1562,-0.15625 0.339208,-0.001 0.69202,-0.00071 1.03125,0 0.951217,-0.036 1.8925,-0.05876 2.84375,-0.09375 -5.08066,0.0681 -10.1686,-0.07045 -15.25,-0.09375 z  m 12.4062,.1875 c -1.16231,0.044 -2.33727,0.09529 -3.5,0.125 -1.08737,0.0278 -2.16443,0.05269 -3.25,0.0625 3.46125,-0.0175 6.91067,-0.04023 10.375,-0.09375 3.75714,-0.0811 7.52415,-0.15997 11.2812,-0.15625 v -0.34375 c -2.24973,0.0535 -4.50013,0.104681 -6.75,0.15625 -0.519248,0.0303 -1.0427,0.07015 -1.5625,0.09375 -1.28119,0.0461 -2.56201,0.100201 -3.84375,0.125 -0.91953,0.0178 -1.83026,0.03365 -2.75,0.03125 z  m 8.1562,-.25 c 0.875385,-0.0511 1.75244,-0.119181 2.625,-0.1875 -1.37264,0.105489 -2.71564,0.1737 -4.09375,0.21875 0.4909,-0.01188 0.976129,-0.01997 1.46875,-0.03125 z  m -32.4375,.5938 c -0.527554,-0.004 -1.03494,-0.02775 -1.5625,-0.03125 -1.14706,0.0506 -2.29065,0.09895 -3.4375,0.15625 -0.447955,0.03162 -0.895511,0.06817 -1.34375,0.09375 2.11695,-0.09961 4.22182,-0.160321 6.34375,-0.21875 z  m -1.5625,-.0312 c 0.150957,-0.006 0.28654,-0.02475 0.4375,-0.03125 -0.286358,-0.002 -0.557391,0.002 -0.84375,0 -0.143422,0.006 -0.294081,0.02475 -0.4375,0.03125 0.278824,0.002 0.564927,-0.002 0.84375,0 z  m -.8438,0 c -2.04984,-0.0135 -4.10639,-0.02075 -6.15625,-0.03125 -0.294095,0.001 -0.580911,-0.00071 -0.875,0 -1.25867,0.100327 -2.52023,0.186653 -3.78125,0.28125 h 6.125 c 0.694877,-0.03727 1.38945,-0.07149 2.09375,-0.125 0.860055,-0.043 1.73357,-0.08591 2.59375,-0.125 z  m -7.0312,-.0312 c 0.294591,-0.0235 0.580371,-0.0397 0.875,-0.0625 -3.2053,0.003 -6.41971,-0.0089 -9.625,0 0.81424,0.007 1.62323,0.02675 2.4375,0.03125 2.09805,0.0128 4.21298,0.03785 6.3125,0.03125 z  m -8.75,-.0625 c -2.71795,-0.02305 -5.43865,-0.04737 -8.15625,-0.09375 1.60746,0.02966 3.20666,0.0744 4.8125,0.09375 -4.21971,0.0157 -8.43664,0.0268 -12.6562,0.0625 -7.79051,0.0891 -5.07859,0.05575 -10.625,0.15625 v 0.03125 c 3.0912,-0.0724 8.03067,-0.09531 10.625,-0.125 5.66136,-0.0479 11.3072,-0.07935 16.9688,-0.09375 -1.27105,-0.009 -2.54152,-0.01705 -3.8125,-0.03125 0.951108,-0.004 1.89264,0.003 2.84375,0 z  m 9.625,0 c 2.6748,-0.0028 5.35748,4.7e-05 8.03125,0 0.197672,-3e-06 0.396003,3.9e-05 0.59375,0 3.74325,-0.156598 7.5056,-0.314061 11.25,-0.4375 -0.640801,-0.001 -1.29676,-0.004 -1.9375,0 -5.689,-0.0144 -11.3816,-0.0054 -17.0625,0.34375 -0.294681,0.0219 -0.580371,0.07095 -0.875,0.09375 z  m 8.0312,0 c -2.66897,0.00058 -5.33102,0.02895 -8,0.03125 2.1855,0.0113 4.37702,0.01665 6.5625,0.03125 0.482983,-0.0216 0.954484,-0.0419 1.4375,-0.0625 z  m 39.7188,-1.0625 c -0.684118,0.0756 -1.3461,0.15364 -2.03125,0.21875 0.683702,-0.0617 1.34704,-0.12004 2.03125,-0.1875 v -0.03125 z  m -84,.3125 0,.2188 c 2.57775,0.045 5.17254,0.127011 7.75,0.21875 -2.58091,-0.10564 -5.17398,-0.283682 -7.75,-0.4375 z  m 84,.9688 c -0.708331,0.0271 -1.41604,0.0461 -2.125,0.0625 0.706796,-0.0179 1.41811,-0.01935 2.125,-0.03125 v -0.03125 z  m -2.5,.0625 c -1.0335,0.0216 -2.05963,0.0575 -3.09375,0.0625 0.407551,-0.003 0.823008,0.004 1.21875,0 0.616751,-0.007 1.25838,-0.0474 1.875,-0.0625 z  m -81.5,.375 0,.0312 c 1.70883,0.053 3.40896,0.09404 5.6875,0.15625 2.94782,0.06425 5.89559,0.121456 8.84375,0.15625 0.02083,0.000246 0.04167,-0.000244 0.0625,0 0.03223,-0.01781 0.06109,-0.04538 0.09375,-0.0625 -2.98972,-0.02999 -5.97949,-0.0598 -8.96875,-0.125 -1.90812,-0.0521 -3.81102,-0.095251 -5.71875,-0.15625 z  m 14.5312,.3438 c -4.84103,0.07486 -9.69118,0.152604 -14.5312,0.21875 v 0.03125 c 4.84776,-0.06627 9.6847,-0.172659 14.5312,-0.25 z  m -14.5312,.3125 v 0.5625 c 2.83874,-0.0289 5.69269,-0.04695 8.53125,-0.09375 1.74221,-0.08226 3.45591,-0.14051 5.1875,-0.1875 0.112156,-0.09808 0.223026,-0.193402 0.34375,-0.28125 -4.57258,0.0355 -9.15018,0.03543 -13.7188,0 -0.120768,3e-05 -0.222982,0.00017 -0.34375,0 z  m 8.5312,.4688 c -1.13253,0.0535 -2.27411,0.10326 -3.40625,0.15625 -1.69951,0.0805 -3.4246,0.139291 -5.125,0.1875 v 0.4375 c 1.60592,-0.0719 3.20784,-0.148051 4.8125,-0.25 2.88591,-0.174811 5.76803,-0.368849 8.65625,-0.5 0.05788,-0.05788 0.126832,-0.101263 0.1875,-0.15625 -1.70115,0.05353 -3.41389,0.0968 -5.125,0.125 z  m 61.5312,-.375 c 0.176281,0.13696 0.343805,0.278511 0.5,0.4375 3.66935,0.03259 7.33354,0.05514 11,0.21875 0.985207,0.0501 1.69563,0.11785 2.4375,0.15625 v -0.28125 c -0.724834,-0.0498 -1.46251,-0.10835 -2.1875,-0.15625 -3.91621,-0.230513 -7.83269,-0.320556 -11.75,-0.375 z  m .5,.4375 c 0.047,0.04784 0.07995,0.106543 0.125,0.15625 4.44386,0.418323 8.87469,0.91486 13.3125,1.40625 v -0.1875 c -0.941202,-0.0753 -1.87247,-0.129451 -2.8125,-0.21875 -3.54755,-0.337009 -7.08007,-0.784721 -10.625,-1.15625 z  m -70.5625,1.0938 v 0.4375 c 0.181184,-0.002 0.350081,0.002 0.53125,0 3.96658,-0.03605 7.93667,-0.04828 11.9062,-0.0625 0.04895,-0.110038 0.131018,-0.206872 0.1875,-0.3125 -3.89565,-0.01506 -7.79118,-0.02943 -11.6875,-0.0625 -0.309625,-0.004 -0.62786,0.003 -0.9375,0 z  m 78.5938,.6875 c -0.06574,-0.00057 -0.307146,0.0526 -0.40625,0.0625 -0.430687,0.0435 -0.849405,0.12761 -1.28125,0.15625 -0.927597,0.0615 -1.88377,0.11081 -2.8125,0.15625 1.04196,-0.006 2.11474,-0.0302 3.15625,-0.0625 0.09858,-0.0174 0.182733,-0.01325 0.28125,-0.03125 -0.0031,0.0147 0.0031,0.01655 0,0.03125 0.244761,-0.009 0.505355,0.0121 0.75,0 0.107417,-0.0831 0.20895,-0.192881 0.3125,-0.28125 0.0064,-0.006 -0.0029,-0.02745 0,-0.03125 z  m -.3125,.3125 c -0.275486,0.213168 -0.586443,0.367072 -0.875,0.5625 0.03667,-0.190978 0.08561,-0.372251 0.125,-0.5625 -0.02963,0.001 -0.06412,-0.00072 -0.09375,0 -0.0679,0.002 -0.119591,-0.002 -0.1875,0 -1.11637,0.197409 -2.2518,0.365671 -3.375,0.5 0.317484,0.0145 0.651179,0.01765 0.96875,0.03125 0.846812,0.0363 1.68412,0.06695 2.53125,0.09375 -0.01371,0.009 -0.04879,0.02205 -0.0625,0.03125 0.02168,0.00071 0.07221,-0.00072 0.09375,0 0.0015,-0.007 -0.0015,-0.02375 0,-0.03125 0.06069,0.002 0.09556,0.02945 0.15625,0.03125 0.347362,-0.183579 0.710439,-0.385679 1.0625,-0.28125 0.123493,0.0366 0.09568,0.191921 0.03125,0.3125 0.10507,0.003 0.207429,-0.002 0.3125,0 0.209207,-0.193928 0.436927,-0.416332 0.65625,-0.59375 -0.06068,-0.0563 -0.106884,-0.14318 -0.1875,-0.15625 -0.243878,-0.0395 -0.472048,0.02185 -0.71875,0.03125 -0.14103,0.006 -0.296534,0.02425 -0.4375,0.03125 z  m .6875,.6875 c -0.01573,0.0146 -0.01552,0.01665 -0.03125,0.03125 0.02362,0.00055 0.07049,-0.00053 0.09375,0 1.54715,0.0352 3.07771,0.0342 4.625,0.0625 0.113028,0.002 0.230722,-0.002 0.34375,0 v -0.09375 c -1.67198,0.0395 -3.3569,0.0363 -5.03125,0 z  m -.0312,.0312 c -0.06936,-0.000901 -0.200452,-0.02669 -0.28125,-0.03125 -0.01031,-0.000257 -0.02093,0.000246 -0.03125,0 -0.09705,0.165849 -0.238372,0.347721 -0.375,0.53125 0.01293,0.008 0.05271,0.02245 0.0625,0.03125 0.216977,-0.174358 0.418458,-0.339852 0.625,-0.53125 z  m -.625,.5312 c -0.04242,0.0341 -0.113005,0.06105 -0.15625,0.09375 0.02236,-0.0365 0.0642,-0.08531 0.09375,-0.125 -0.175339,-0.112889 -0.554119,-0.15018 -0.9375,-0.1875 -0.0062,0.0237 -0.02468,0.039 -0.03125,0.0625 0.0019,-0.0215 0.000166,-0.0407 0,-0.0625 -0.209526,-0.0197 -0.333516,-0.02565 -0.4375,-0.03125 -0.10583,0.0726 -0.239433,0.14407 -0.34375,0.21875 -0.144521,-0.0105 -0.2617,-0.02175 -0.40625,-0.03125 -0.728853,0.185748 -1.48131,0.355722 -2.21875,0.5 -0.619484,0.121202 -1.25029,0.236198 -1.875,0.34375 v 0.25 c 1.15004,-0.06935 1.91815,-0.100888 4.03125,-0.34375 0.525136,-0.0603 1.08928,0.02357 1.5625,-0.21875 0.190851,-0.0977 0.390499,-0.215231 0.5625,-0.34375 -0.007,0.0123 -0.0254,0.0508 -0.03125,0.0625 0.0621,-0.0509 0.247175,-0.13361 0.1875,-0.1875 z  m -2.2188,-.0625 c 0.228671,-0.0583 0.428499,-0.125721 0.65625,-0.1875 -0.05204,-0.006 -0.121712,-0.03102 -0.125,-0.03125 -1.49049,-0.124339 -2.97574,-0.19551 -4.46875,-0.28125 -0.07289,0.007 -0.145855,0.02448 -0.21875,0.03125 0.01597,0.11461 0.02313,0.226738 0.03125,0.34375 1.37829,0.01257 2.74757,0.03445 4.125,0.125 z  m -3.9375,-.5 c 0.418037,-0.0402 0.863908,-0.109111 1.28125,-0.15625 -0.508951,-0.01524 -1.01985,-0.02705 -1.53125,-0.03125 0.0095,0.05176 0.0233,0.103938 0.03125,0.15625 0.07319,0.0052 0.146222,0.0271 0.21875,0.03125 z  m 1.2812,-.1562 c 0.08211,0.0025 0.167851,-0.0034 0.25,0 0.0598,-0.007 0.127717,-0.02415 0.1875,-0.03125 -0.658174,-0.03006 -1.31301,-0.06149 -1.96875,-0.09375 0.0041,0.02007 -0.0038,0.04235 0,0.0625 0.536811,0.02775 0.95987,0.03613 1.53125,0.0625 z  m .25,0 c 0.846136,0.03483 1.69016,0.125577 2.53125,0.21875 0.284972,0.0315 0.568503,0.01486 0.84375,0.09375 0.09265,-0.0627 0.157291,-0.124931 0.25,-0.1875 -0.795616,-0.0278 -1.55668,-0.08551 -2.46875,-0.125 -0.414735,-0.018 -0.737243,0.0192 -1.15625,0 z  m 3.375,.3125 c -0.05829,0.0394 -0.129425,0.08532 -0.1875,0.125 0.08147,-0.0287 0.169144,-0.05515 0.25,-0.09375 -0.02245,-0.007 -0.03977,-0.02475 -0.0625,-0.03125 z  m .0625,.0312 c 0.03823,0.0127 0.08772,0.01555 0.125,0.03125 0.02756,0.0117 0.03086,0.07401 0.03125,0.125 0.01092,0.00071 0.0202,-0.00071 0.03125,0 0.02451,-0.0937 0.04251,-0.15511 0.0625,-0.25 -0.08235,0.0442 -0.167211,0.05416 -0.25,0.09375 z  m .25,-.0938 c 0.05454,-0.0293 0.101832,-0.06465 0.15625,-0.09375 -0.04275,-0.001 -0.08169,-0.02985 -0.125,-0.03125 -0.0078,0.0392 -0.02301,0.08591 -0.03125,0.125 z  m .1562,-.0938 c 0.347362,0.0118 0.790472,-0.008 1.09375,0 -0.351188,-0.0084 -0.71166,-0.02056 -1.0625,-0.03125 -0.01508,0.008 -0.01617,0.02325 -0.03125,0.03125 z  m -3.4375,-.625 c -0.777084,0.0051 -1.54022,0.0011 -2.3125,0 0.0089,0.03169 0.02293,0.0618 0.03125,0.09375 0.759077,-0.03364 1.51852,-0.05643 2.28125,-0.09375 z  m -74.0938,-.0625 v 0.0625 c 4.07467,-0.000412 8.14665,-0.02267 12.2188,-0.03125 0.0027,-0.0095 -0.0028,-0.02179 0,-0.03125 -4.07364,-0.000178 -8.14737,-0.000405 -12.2188,0 z  m 0,.7812 0,.5 c 0.845467,0.142659 1.6866,0.289871 2.53125,0.4375 0.881879,-0.006 1.77445,-0.0076 2.65625,-0.03125 -1.72799,-0.305117 -3.45966,-0.600212 -5.1875,-0.90625 z  m 5.1875,.9062 c 0.687006,0.121309 1.37575,0.221081 2.0625,0.34375 1.58294,-0.05065 3.16669,-0.10597 4.75,-0.15625 v -0.34375 -0.03125 c -1.4141,-0.0981 -2.84,-0.188553 -4.25,-0.3125 1.36865,0.119554 2.72304,0.248357 4.09375,0.34375 -1.65163,0.0339 -3.28596,0.04676 -4.9375,0.09375 -0.572766,0.0251 -1.14594,0.0472 -1.71875,0.0625 z  m 2.0625,.3438 c -0.226288,0.007 -0.461227,0.02445 -0.6875,0.03125 -0.623707,0.0144 -1.2514,0.01485 -1.875,0.03125 0.935404,0.169608 1.87864,0.352132 2.8125,0.53125 1.06327,0.003 2.12424,-0.002 3.1875,0 -0.324987,-0.0565 -0.67507,-0.09975 -1,-0.15625 -0.821784,-0.150209 -1.61511,-0.290601 -2.4375,-0.4375 z  m 3.4375,.5938 c 0.09939,0.0173 0.181867,0.0453 0.28125,0.0625 0.343542,-0.000485 0.687645,0.000381 1.03125,0 v -0.0625 c -0.437634,-0.000563 -0.874786,0.000748 -1.3125,0 z  m .2812,.0625 c -1.05604,0.001 -2.1002,-0.003 -3.15625,0 0.489179,0.0945 0.980069,0.183701 1.46875,0.28125 0.905379,0.166974 1.81265,0.331067 2.71875,0.5 v -0.59375 c -0.344034,-0.05985 -0.688215,-0.127843 -1.03125,-0.1875 z  m -3.1562,0 c -0.105926,-0.0204 -0.206546,-0.0422 -0.3125,-0.0625 -0.950154,-0.003 -1.8936,0.004 -2.84375,0 -2.38816,-0.0441 -3.45069,-0.05955 -4.65625,-0.09375 v 0.25 c 1.5298,-0.0323 3.06452,-0.06855 4.59375,-0.09375 1.07867,-0.004 2.14008,0.003 3.21875,0 z  m -3.125,-.5938 c -0.716954,-0.129997 -1.43855,-0.249561 -2.15625,-0.375 -0.844214,0.006 -1.68699,0.03575 -2.53125,0.03125 v 0.5 c 1.56059,-0.0626 3.12585,-0.115091 4.6875,-0.15625 z  m 79.3125,.1562 c -2.96897,0.0405 -5.93701,0.08391 -8.90625,0.125 -1.02846,0.013219 -2.06128,0.019601 -3.09375,0.03125 v 0.5 c 0.875275,0.01023 1.75154,0.01979 2.625,0.03125 3.13336,0.0455 6.24199,0.07552 9.375,0.125 v -0.8125 z  m 0,1.7812 c -0.157229,0.0244 -0.311745,0.037 -0.46875,0.0625 -1.96736,0.272598 -3.93054,0.506982 -5.90625,0.6875 2.13976,-0.135139 4.25792,-0.340803 6.375,-0.65625 v -0.09375 z  m -6.375,.75 c -1.87166,0.1182 -3.74927,0.194412 -5.625,0.25 v 0.03125 c 0.886485,-0.0065 1.77288,-0.01517 2.65625,-0.03125 0.987699,-0.0791 1.98216,-0.159851 2.96875,-0.25 z  m -2.9688,.25 c -0.880729,0.07054 -1.76981,0.123744 -2.65625,0.1875 v 0.6875 c 2.23294,-0.141607 4.45979,-0.259012 6.6875,-0.5 1.39822,-0.151249 2.78945,-0.347161 4.1875,-0.5 0.374567,-0.037 0.750258,-0.05735 1.125,-0.09375 v -0.03125 c -3.11473,0.109589 -6.22733,0.19325 -9.34375,0.25 z  m -74.6562,0 0,.0625 c 0.56705,0.0445 0.939472,0.0945 1.71875,0.15625 3.42123,0.278283 6.85175,0.471261 10.2812,0.59375 v -0.3125 c -3.40699,-0.048563 -6.81589,-0.146868 -10.2188,-0.34375 -0.597268,-0.0406 -1.18433,-0.11351 -1.78125,-0.15625 z  m 84,1.3125 c -0.798043,0.02 -1.60817,0.041 -2.40625,0.0625 -3.2038,0.09792 -6.39243,0.216417 -9.59375,0.3125 v 0.46875 c 3.02727,-0.07556 6.06775,-0.128439 9.09375,-0.15625 0.965743,-0.009 1.94056,-0.0004 2.90625,0 v -0.6875 z  m -72,.8125 c -4.00015,0.0117 -8.0003,0.02047 -12,0.03125 0.08977,0.0115 0.191463,0.01995 0.28125,0.03125 3.90591,-0.01034 7.81234,0.0047 11.7188,0 v -0.0625 z  m -11.7188,.0625 c -0.09049,0.00024 -0.190765,-0.00024 -0.28125,0 v 0.59375 c 3.27301,0.426167 6.56329,0.681349 9.875,0.5625 0.708789,-0.01083 1.41645,-0.02199 2.125,-0.03125 v -0.28125 c -0.614452,-0.0084 -1.22944,-0.02162 -1.84375,-0.03125 -3.31377,-0.0601 -6.58895,-0.396514 -9.875,-0.8125 z  m .9688,1.875 c -0.41595,-0.00072 -0.83425,0.02455 -1.25,0.03125 v 1.34375 c 0.03773,-0.00028 0.08728,0.00032 0.125,0 1.3334,-0.006 2.66658,-0.02495 4,-0.03125 2.3948,-0.0859 4.79161,-0.09258 7.1875,-0.125 0.229599,0.0019 0.458077,-0.0012 0.6875,0 v -1.03125 c -2.26277,-0.03164 -4.51945,-0.0675 -6.78125,-0.15625 -1.32169,-0.009 -2.64705,-0.02635 -3.96875,-0.03125 z  m 82.75,.4375 c -4.00562,0.01306 -7.99483,0.02876 -12,0.0625 v 0.375 c 3.99743,0.03509 8.00323,0.08127 12,0.09375 v -0.53125 z  m 0,.9688 c -2.53422,0.265067 -5.08206,0.529012 -7.625,0.71875 1.78138,-0.128262 3.61898,-0.274147 6.25,-0.53125 0.473403,-0.0463 0.913154,-0.07715 1.375,-0.125 v -0.0625 z  m -7.625,.7188 c -0.445582,0.0333 -0.89795,0.0326 -1.34375,0.0625 0.180719,0.00071 0.38178,-0.00071 0.5625,0 0.250411,-0.01691 0.529431,-0.04437 0.78125,-0.0625 z  m -.7812,.0625 c -1.031,0.069601 -2.36369,0.147156 -3.59375,0.21875 v 0.53125 c 3.55106,-0.0136 7.11411,-0.04467 10.6562,-0.0625 0.452868,-0.0541 0.891535,-0.097651 1.34375,-0.15625 v -0.53125 c -0.135216,0.001 -0.271049,-0.001 -0.40625,0 -2.67314,0.0119 -5.32687,0.0125 -8,0 z  m 7.0625,.6875 c -0.30222,0.0361 -0.634982,0.05966 -0.9375,0.09375 -1.2732,0.117829 -2.5378,0.275791 -3.8125,0.375 1.06752,-0.08309 2.12349,-0.152943 3.75,-0.28125 0.740127,-0.0683 1.47855,-0.119551 2.21875,-0.1875 -0.279505,0.00071 -0.564267,-0.00071 -0.84375,0 -0.135592,0.00069 -0.239407,-0.00069 -0.375,0 z  m -4.75,.4688 c -1.97189,0.15348 -3.93303,0.276859 -5.90625,0.375 v 0.03125 c 0.574128,-0.02887 1.14449,-0.0614 1.71875,-0.09375 1.8337,-0.10329 3.01246,-0.221039 4.1875,-0.3125 z  m -2.875,-1.1562 c -1.01392,-0.0051 -2.02218,-0.0019 -3.03125,0 v 0.1875 c 1.01079,-0.0593 2.02156,-0.119768 3.03125,-0.1875 z  m -74.5938,.9375 c 1.70609,0.0929 3.41779,0.18323 5.125,0.15625 2.14503,0.0246 4.29175,0.05242 6.4375,0.0625 v -0.1875 c -1.41627,0.01413 -2.83538,0.01882 -4.25,0.03125 -2.43072,0.056 -4.8814,-0.137729 -7.3125,-0.0625 z  m 11.5625,.2188 c -2.17679,0.0027 -4.36181,0.01227 -6.53125,0.03125 -1.82472,0.0626 -3.6414,0.10761 -5.46875,0.15625 v 0.6875 c 2.41571,-0.218488 4.8573,-0.32806 7.28125,-0.40625 1.57993,-0.04759 3.14327,-0.12829 4.71875,-0.1875 v -0.28125 z  m -12,1.25 0,.1562 c 2.47305,-0.0373 4.96433,-0.09665 7.4375,-0.09375 1.52221,0.000787 3.04138,-0.000426 4.5625,0 v -0.03125 c -1.52078,-0.000426 -3.04193,0.000786 -4.5625,0 -2.4853,-0.003 -4.95563,0.02365 -7.4375,-0.03125 z  m 72,0 0,.0938 c 3.23816,-0.01844 6.47621,-0.02585 9.71875,-0.03125 0.753545,0.002 1.52765,-0.00021 2.28125,0 v -0.03125 c -0.746652,-0.002 -1.50334,0.006 -2.25,0 -3.25233,-0.0055 -6.50113,-0.01258 -9.75,-0.03125 z  m 12,.9688 c -3.96029,-0.007 -7.91474,0.01705 -11.875,0.03125 -0.04164,0.00016 -0.08336,-0.000158 -0.125,0 v 0.25 c 4,0.01407 7.99996,0.0079 12,0 v -0.28125 z  m -84,.0938 0,.0938 c 3.79402,-0.0374 7.58063,-0.061 11.375,-0.0625 -3.7928,-0.001 -7.58256,0.0063 -11.375,-0.03125 z  m 12,.5938 c -3.71514,0.124987 -7.41773,0.28627 -11.125,0.5625 0.166412,-0.00056 0.333588,-3e-05 0.5,0 3.53871,-0.2553 7.07531,-0.410873 10.625,-0.53125 v -0.03125 z  m -10.625,.5625 c -0.204006,0.0147 -0.389766,0.01595 -0.59375,0.03125 -0.254898,0.0246 -0.526189,0.0397 -0.78125,0.0625 v 0.375 c 2.11337,-0.0402 4.22999,-0.05645 6.34375,-0.09375 1.88982,-0.0303 3.76854,-0.04259 5.65625,-0.0625 v -0.1875 c -1.80199,-0.019295 -3.60384,-0.032582 -5.40625,-0.0625 -1.73968,-0.0305 -3.47883,-0.0623 -5.21875,-0.0625 z  m 82.625,-.125 c -3.9985,0.02801 -7.99939,0.02291 -12,0.03125 v 0.03125 c 3.99965,-0.01739 7.99913,-0.03435 12,-0.0625 z  m -83.2188,.125 c -0.255218,0.00071 -0.526047,0.02875 -0.78125,0.03125 v 0.03125 c 0.256207,-0.0249 0.525135,-0.0379 0.78125,-0.0625 z  m 83.2188,.125 c -3.99944,0.04043 -7.99975,0.05003 -12,0.0625 v 0.03125 c 3.99842,-0.01242 7.9969,-0.0219 12,-0.0625 v -0.03125 z  m -72,1.3125 c -1.49864,0.0213 -3.00048,0.04075 -4.5,0.0625 -2.50139,0.007 -5.01648,0.166462 -7.5,0.40625 v 0.3125 c 2.448,-0.275327 4.90935,-0.471771 7.375,-0.5625 1.54505,-0.05722 3.07948,-0.08553 4.625,-0.125 v -0.09375 z  m -12,1.125 0,.0312 c 0.294392,0.004 0.580608,-0.003 0.875,0 -0.293951,-0.0142 -0.58105,-0.01645 -0.875,-0.03125 z  m .875,.0312 c 0.429318,0.0208 0.883189,0.0438 1.3125,0.0625 3.27318,0.03344 6.54285,0.04611 9.8125,0.0625 v -0.03125 c -3.70903,-0.02242 -7.41815,-0.0539 -11.125,-0.09375 z  m 1.3125,.0625 c -0.724187,-0.007 -1.46331,-0.02335 -2.1875,-0.03125 v 0.3125 c 1.25311,0.0503 2.49621,0.11441 3.75,0.125 3.26608,0.0276 3.4162,-0.0807 6.75,-0.15625 0.499674,-0.01134 0.999925,0.002 1.5,0 v -0.09375 c -2.65884,-0.0079 -5.31173,-0.0066 -7.96875,-0.09375 -0.617962,-0.0203 -1.22575,-0.0357 -1.84375,-0.0625 z  m 81.8125,.0625 c -3.99129,0.04568 -8.00643,0.07376 -12,0.09375 v 0.125 c 1.38781,0.02925 2.77106,0.05971 4.15625,0.125 -1.34663,-0.07041 -2.69155,-0.14972 -4.03125,-0.1875 3.95862,0.0216 7.91738,0.04635 11.875,0.09375 v -0.25 z  m 0,.25 c -1.04858,0.12137 -2.07447,0.24148 -3.125,0.34375 1.04826,0.0605 2.07702,0.12137 3.125,0.1875 v -0.53125 z  m -3.125,.3438 c -1.56536,-0.09037 -3.14293,-0.16761 -4.71875,-0.25 1.38519,0.06529 2.77232,0.16539 4.15625,0.28125 0.180981,-0.0172 0.381549,-0.01365 0.5625,-0.03125 z  m -.5625,.0312 c -0.408376,0.0389 -0.810293,0.11891 -1.21875,0.15625 -2.8376,0.22877 -3.38615,0.28456 -6.3125,0.40625 -0.259739,0.0108 -0.52148,0.0217 -0.78125,0.03125 v 0.1875 c 2.24184,-0.0599 4.47365,-0.11619 6.71875,-0.1875 1.75612,-0.10346 3.52276,-0.11579 5.28125,-0.125 v -0.0625 c -1.22822,-0.14371 -2.45537,-0.30311 -3.6875,-0.40625 z  m -68.3125,.8438 c -4.00214,0.01943 -7.99762,0.05214 -12,0.09375 v 0.0625 c 3.99414,-0.0415 7.97445,-0.07455 11.9688,-0.09375 -1.97395,0.2065 -3.92646,0.36744 -5.90625,0.5 1.24096,0.0217 2.52484,0.0905 4.46875,0.15625 0.181048,0.007 0.350194,0.02475 0.53125,0.03125 0.31292,0.01841 0.624492,0.04323 0.9375,0.0625 v -0.0625 c -0.291354,-0.01061 -0.583613,-0.01999 -0.875,-0.03125 -0.120255,-0.004 -0.167764,0.004 -0.28125,0 0.383496,-0.04126 0.769894,-0.10952 1.15625,-0.15625 v -0.5 -0.0625 z  m -1.4688,.7188 c -1.12369,-0.0447 -2.25079,-0.06765 -3.375,-0.09375 -0.589175,-0.0137 -1.08561,-0.02435 -1.625,-0.03125 -1.5723,0.10098 -3.11288,0.1844 -4.6875,0.25 -0.27767,0.0127 -0.566052,0.02175 -0.84375,0.03125 v 0.59375 c 0.105591,-0.002 0.206909,0.002 0.3125,0 3.41085,-0.13658 6.82529,-0.39341 10.2188,-0.75 z  m -5,-.125 c 0.166064,-0.0107 0.365229,-0.02015 0.53125,-0.03125 -0.81554,-0.0142 -1.5467,0.003 -3,0 -1.01672,-0.001 -2.04568,-0.009 -3.0625,0 v 0.03125 c 1.90107,-0.0171 3.67008,-0.0239 5.53125,0 z  m 78.4688,.9688 c -1.5953,0.0876 -3.21426,0.14572 -4.8125,0.1875 1.59809,-0.0339 3.21439,-0.0439 4.8125,-0.0625 v -0.125 z  m -9.0312,.2812 c -0.987718,0.01416 -1.9783,0.01898 -2.96875,0.03125 v 0.03125 c 0.99042,-0.01857 1.98104,-0.04017 2.96875,-0.0625 z  m -2.9688,.1875 0,.0312 v 0.03125 0.03125 c 0.916664,0.0016 1.83338,0.00018 2.75,0 -0.633906,-0.008 -1.26907,-0.02345 -1.90625,-0.03125 0.65602,-0.00028 1.31274,-0.00027 1.96875,0 -0.938048,-0.01292 -1.87557,-0.04614 -2.8125,-0.0625 z  m -72,.0312 0,.0625 c 1.71407,-0.0157 3.43514,-0.0064 5.15625,0 -1.71871,-0.01132 -3.43726,-0.0479 -5.15625,-0.0625 z  m 5.1562,.0625 c 1.72111,0.0064 3.44228,0.01 5.15625,0 0.563035,0.00016 1.1247,-0.00012 1.6875,0 v -0.03125 c -0.562573,-0.00012 -1.12488,0.00013 -1.6875,0 -1.71868,0.0287 -3.43754,0.04257 -5.15625,0.03125 z  m 71.0938,0 c 2.57512,0.008 5.17533,0.0277 7.75,0.0625 v -0.0625 c -2.58201,-0.0148 -5.17037,0 -7.75,0 z  m -4.25,.0938 0,.2812 c 1.23951,0.04115 2.47805,0.087 3.71875,0.125 1.60591,-0.046 3.20652,-0.05485 4.8125,-0.09375 1.1554,-0.0263 2.31208,-0.02025 3.46875,-0.03125 v -0.15625 c -1.78588,0.005 -3.58868,0.00595 -5.375,-0.03125 -2.21104,-0.02091 -4.41781,-0.06343 -6.625,-0.09375 z  m 3.7188,.4062 c -1.23895,0.03547 -2.47899,0.08001 -3.71875,0.125 v 0.5 c 1.1312,-0.0065 2.27673,-0.0033 3.40625,0 0.197548,-0.003 0.396217,0.003 0.59375,0 1.11595,-0.0151 2.22785,-0.0429 3.34375,-0.0625 1.59023,-0.028 3.11609,-0.05115 4.65625,-0.09375 v -0.25 c -1.89994,-0.038 -3.78677,-0.07655 -5.6875,-0.09375 -0.858905,-0.022 -1.73497,-0.0987 -2.59375,-0.125 z  m -66.5625,.4375 c -2.50541,0.18277 -5.00169,0.39423 -7.5,0.65625 2.49486,-0.2611 4.99706,-0.47949 7.5,-0.65625 z  m -7.5,.6562 c -0.05138,0.005 -0.104875,-0.005 -0.15625,0 -0.504214,0.0492 -0.996189,0.0991 -1.5,0.15625 v 0.09375 c 1.07742,-0.003 2.17257,0.003 3.25,0 -0.779192,-0.12698 -1.17661,-0.1865 -1.59375,-0.25 z  m -.1562,0 c -0.382157,-0.0575 -1.01144,-0.18141 -1.5,-0.25 v 0.375 c 0.505317,-0.0574 0.994341,-0.0716 1.5,-0.125 z  m 82.5,-.5938 c -1.5059,0.0324 -3.00194,0.06415 -4.6875,0.09375 -0.693624,0.0122 -1.36886,0.02085 -2.0625,0.03125 0.896169,0.006 1.79135,-0.009 2.6875,0 1.35581,0.0298 2.70307,0.02465 4.0625,0.03125 v -0.15625 z  m 0,.4062 c -0.395582,0.0828 -0.790435,0.14385 -1.1875,0.21875 -3.41811,0.64479 -5.18923,0.87835 -7.65625,1.1875 0.113,-0.005 0.262001,-0.02635 0.375,-0.03125 0.851099,-0.10879 1.68077,-0.19873 2.53125,-0.3125 1.53038,-0.2047 3.06079,-0.44198 4.59375,-0.625 0.444171,-0.053 0.898486,-0.1132 1.34375,-0.15625 v -0.28125 z  m -8.4688,1.375 c -1.03283,0.13201 -2.09228,0.3045 -3.125,0.4375 -0.136162,0.01618 -0.271276,0.01807 -0.40625,0.03125 v 0.125 c 2.37645,-0.03024 4.74352,-0.05384 7.125,-0.0625 1.61686,0.007 3.25815,0.0478 4.875,0.0625 v -0.90625 c -1.4275,0.0421 -2.85473,0.0905 -4.28125,0.15625 -1.39971,0.0546 -2.7879,0.0957 -4.1875,0.15625 z  m -.375,.0312 c -1.0537,0.04561 -2.10474,0.08157 -3.15625,0.125 v 0.28125 c 0.146311,-0.01638 0.291552,-0.04516 0.4375,-0.0625 1.26006,-0.16229 1.85848,-0.23595 2.71875,-0.34375 z  m -63.1562,-1 c -2.90731,0.0072 -5.81933,0.02392 -8.71875,0.03125 0.06983,0.0115 0.121994,0.02005 0.1875,0.03125 2.84663,-0.00666 5.68794,-0.02384 8.53125,-0.03125 v -0.03125 z  m -8.5312,.0625 c -1.15428,0.003 -2.31446,-0.004 -3.46875,0 v 0.375 c 0.600087,0.13596 1.12128,0.23897 2.34375,0.625 0.412084,0.13012 0.809649,0.29775 1.21875,0.4375 0.08333,0.0285 0.167623,0.06185 0.25,0.09375 2.30606,-0.0793 4.5995,-0.13352 6.90625,-0.1875 0.429439,-0.0392 0.851882,-0.0825 1.28125,-0.125 v -0.71875 c -1.81989,-0.05749 -3.65218,-0.09728 -5.46875,-0.15625 -0.332334,-0.0453 -0.667203,-0.0366 -1,-0.0625 -0.785215,-0.061 -1.30293,-0.15184 -2.0625,-0.28125 z  m 7.25,1.3438 c -1.77074,0.16147 -3.53524,0.27957 -5.3125,0.34375 -0.06834,0.002 -0.945911,0.04915 -1.03125,0.03125 -0.192936,-0.0405 -0.3777,-0.11557 -0.5625,-0.1875 -1.10012,0.0378 -2.21273,0.07451 -3.3125,0.125 -0.165936,0.01 -0.334079,0.02135 -0.5,0.03125 v 0.4375 c 0.04506,-0.003 0.07994,0.003 0.125,0 3.94149,-0.23614 7.91409,-0.34738 11.875,-0.34375 v -0.46875 c -0.427024,0.0093 -0.855555,0.02129 -1.28125,0.03125 z  m 61.2812,2.1875 v 0.75 c 0.665338,-0.0031 1.33347,0.0065 2,0 3.32281,-0.056 6.67704,-0.0729 10,-0.0625 v -0.65625 c -3.11378,0.0105 -6.23013,0.02205 -9.34375,-0.03125 -0.88371,-0.009 -1.77297,0.0044 -2.65625,0 z  m -72,.5312 0,.1562 c 0.95839,-0.0256 1.9165,-0.06975 2.875,-0.09375 -0.954948,-0.0115 -1.92019,-0.0456 -2.875,-0.0625 z  m 12,.4375 c -2.47654,0.0719 -4.96247,0.0942 -7.4375,0.15625 -1.51485,0.0217 -3.04737,0.0444 -4.5625,0.0625 v 0.0312 c 1.47933,0.00093 2.95894,0.0233 4.4375,0.0312 2.5205,-0.0193 5.04827,0.0472 7.5625,0.125 v -0.40625 z  m 72,.1875 c -4.00257,0.21685 -7.99709,0.32115 -12,0.40625 v 0.0312 c 4.00169,-0.0856 7.99849,-0.19188 12,-0.40625 v -0.0312 z  m -84,.5 0,.0937 c 4.00011,-0.0377 7.99986,-0.0378 12,-0.0312 v -0.0312 c -4.00251,0.006 -7.99625,0.008 -12,-0.0312 z  m 72,.1562 0,.375 0,.0312 c 0.667416,-0.001 1.33184,0.002 2,0 -0.452578,-0.005 -0.891165,-0.026 -1.34375,-0.0312 2.66013,-0.007 5.33989,-0.0169 8,-0.0312 1.28423,-0.01 2.28365,0.008 3.34375,0 v -0.15625 c -3.7428,-0.005 -7.47751,-0.0224 -11.2188,-0.15625 -0.259436,-0.008 -0.520986,-0.023 -0.78125,-0.0312 z  m 12,.3436 c -1.12999,0.0126 -2.27624,0.0229 -3.40625,0.0312 -2.19638,0.0122 -4.39735,0.0246 -6.59375,0.0312 3.32631,0.0397 6.67379,0.10897 10,0.15625 v -0.21875 z  m -84,-.1561 0,.4688 c 2.96004,-0.0141 5.9461,-0.0387 8.90625,-0.0312 1.03546,0.005 2.06433,-0.001 3.09375,0 v -0.4375 c -0.927367,0.001 -1.8567,-0.005 -2.78125,0 -3.08229,0.008 -6.13658,0.0163 -9.21875,0 z  m 12,.8438 c -2.37145,0.19747 -4.73694,0.36659 -7.125,0.375 -1.62057,0.02465 -3.25365,0.01555 -4.875,0.03115 v 0.0625 c 1.58251,0.0144 3.16807,0.007 4.75,0.0312 2.41107,0.1293 4.83624,0.15382 7.25,0.0625 v -0.5625 z  m -6.625,.6876 c -1.79735,0.005 -3.5791,0.0144 -5.375,0.0312 v 0.53125 c 0.0075,0.00019 0.0237,-0.0002 0.03125,0 2.21692,0.002 4.43933,0.002 6.65625,0 0.328597,-0.003 0.505697,-0.0272 0.9375,-0.0312 0.919594,-0.009 1.83041,-0.0238 2.75,-0.0312 0.540726,-0.006 1.08383,0.004 1.625,0 v -0.46875 c -0.407258,-0.004 -0.811291,0.004 -1.21875,0 -1.79596,-0.0388 -3.6089,-0.0367 -5.40625,-0.0312 z  m 1.3125,.5625 c -1.06051,0.008 -2.04463,0.0173 -3.0625,0.0625 2.7915,-0.0269 5.58339,-0.0212 8.375,-0.0312 v -0.0312 c -1.77023,-0.0006 -3.54031,-0.001 -5.3125,0 z  m -3.0625,.0623 c -1.20823,0.0117 -2.41683,0.0145 -3.625,0.0312 v 0.1875 c 0.855248,-0.0753 1.73641,-0.13958 2.59375,-0.1875 0.467681,-0.0261 0.682679,-0.0159 1.03125,-0.0312 z  m 78.5625,-.4375 c -3.39824,0.0208 -6.79256,0.0556 -10.1875,0.0937 v 0.15625 c 0.531102,0.005 1.06306,0.0262 1.59375,0.0312 3.47212,0.0428 6.93404,0.0651 10.4062,0 v -0.28125 c -0.603369,0.004 -1.20916,-0.009 -1.8125,0 z  m -10.1875,.3751 v 0.21875 c 3.20644,0.0363 6.41196,0.0738 9.625,0.0937 0.790208,0.012 1.58475,0.0272 2.375,0.0312 v -0.21875 c -3.50375,0.0293 -7.0269,-0.0384 -10.5312,-0.0937 -0.489948,-0.0123 -0.978977,-0.0204 -1.46875,-0.0312 z  m -72,.8438 0,.375 c 2.02108,-0.0241 4.0417,-0.0253 6.0625,-0.0625 1.98234,-0.0231 3.95567,-0.0437 5.9375,-0.0625 v -0.125 c -1.9061,-0.0147 -3.81126,-0.0405 -5.71875,-0.0625 -2.0875,-0.0385 -4.19344,-0.039 -6.28125,-0.0625 z  m 12,.4375 c -2.34363,0.008 -4.6865,0.0168 -7.03125,0.0312 -1.6525,0.013 -3.3162,0.0458 -4.96875,0.0625 1.64504,-0.0106 3.29504,0.0133 4.9375,0 2.35517,-0.0145 4.70557,-0.0228 7.0625,-0.0312 v -0.0625 z  m 70.0938,.4688 c -1.72659,0.0426 -3.42952,0.0576 -5.15625,0.0937 -1.60575,0.0336 -3.00835,0.0445 -4.40625,0.0625 0.07553,0.007 0.143231,0.0238 0.21875,0.0312 1.3218,-0.0181 2.64132,0.0004 4.15625,-0.0312 1.72674,-0.0361 3.4609,-0.1136 5.1875,-0.15625 z  m -9.3438,.1876 c -0.248826,0.003 -0.5015,-0.003 -0.75,0 v 0.46875 c 3.93465,0.33066 7.84697,0.91394 11.7188,1.6875 0.09797,-0.002 0.183283,0.002 0.28125,0 v -0.8125 c -3.74477,-0.46388 -7.49553,-0.97457 -11.25,-1.34375 z  m 10.9688,2.1562 c -2.8571,0.0501 -5.73321,0.0846 -8.59375,0.0937 2.96592,0.006 5.91647,0.0327 8.875,0.0937 v -0.125 c -0.09905,-0.02 -0.182161,-0.0427 -0.28125,-0.0625 z  m -11.1875,-2.1875 c -0.174155,-0.01679 -0.353183,-0.01867 -0.53125,-0.03115 v 0.0312 c 0.176021,-0.002 0.355086,0.002 0.53125,0 z  m -60.5312,2.1563 c -1.41843,0.0681 -2.82933,0.13586 -4.25,0.1875 -2.58258,0.0957 -5.17442,0.25995 -7.75,0.46875 v 0.4375 c 2.47122,-0.261 4.95351,-0.41227 7.4375,-0.53125 1.52173,-0.0717 3.04211,-0.16158 4.5625,-0.25 v -0.3125 z  m 60,.625 c 0.000782,6e-05 -0.000782,0.0312 0,0.0312 0.895821,0.0683 1.79275,0.11561 2.6875,0.1875 3.10574,0.25847 6.20822,0.52349 9.3125,0.8125 v -0.0312 c -3.781,-0.36574 -4.0422,-0.37646 -9.28125,-0.8125 -0.906753,-0.07465 -1.8134,-0.12789 -2.71875,-0.1875 z  m -60,.4375 c -0.418311,0.0177 -0.831556,0.043 -1.25,0.0625 -3.58184,0.14468 -7.16817,0.29232 -10.75,0.4375 v 0.15625 c 3.55435,-0.23758 7.126,-0.39911 10.6875,-0.5 0.437175,-0.008 0.875222,0.006 1.3125,0 v -0.15625 z  m 66.75,1.5 c -1.38334,0.0266 -2.77222,0.12996 -4.15625,0.0937 -0.861835,-0.01926 -1.73307,-0.04908 -2.59375,-0.0312 v 1.34375 c 0.509075,-0.0128 1.01798,-0.019 1.53125,-0.0312 1.34381,-0.0383 2.68839,0.0315 4.03125,0.0625 1.72446,0.0383 3.44176,0.17536 5.15625,0.375 -1.48063,0.16288 -2.95573,0.3245 -4.4375,0.4375 1.47809,-0.1074 2.9608,-0.24383 4.4375,-0.40625 0.03536,-0.004 0.05815,-0.0273 0.09375,-0.0312 0.388521,-0.0512 0.798486,-0.1085 1.1875,-0.15625 v -0.125 c -0.802112,-0.0111 -1.57367,-0.028 -2.90625,-0.0625 -0.177047,-0.005 -0.354287,-0.0259 -0.53125,-0.0312 1.14587,0.0283 2.29167,0.0472 3.4375,0.0625 v -0.65625 c -0.05217,-0.0117 -0.104099,-0.0195 -0.15625,-0.0312 -1.10002,-0.21695 -2.20438,-0.42824 -3.3125,-0.59375 -0.431107,-0.0644 -0.878532,-0.14851 -1.3125,-0.1875 -0.161943,-0.0146 -0.306191,-0.0306 -0.46875,-0.0312 z  m 4.0625,1.8125 c 0.03813,0.005 0.08687,0.0268 0.125,0.0312 0.353648,0.0584 0.708331,0.13287 1.0625,0.1875 v -0.34375 c -0.388015,0.0428 -0.820667,0.0839 -1.1875,0.125 z  m -70.8125,-1.469 c -3.998,0.28522 -7.99337,0.55142 -12,0.6875 v 0.03125 c 4.00289,-0.13661 8.00546,-0.40211 12,-0.6875 v -0.0312 z  m -12,.8437 0,.1875 c 4.0032,-0.01 8.0005,-0.0254 12,-0.0312 v -0.15625 c -4.00079,0.005 -8.00423,0.0144 -12,0 z  m 0,.1875 0,.3125 c 3.99687,-0.026 7.99861,-0.0585 12,-0.0937 v -0.125 c -3.99848,-0.02865 -7.9967,-0.07125 -12,-0.09375 z  m 73.4688,1.125 c -0.489467,0.02269 -0.979247,0.04316 -1.46875,0.0624 v 0.0312 c 0.543065,-0.0217 1.08206,-0.0367 1.625,-0.0625 -0.05281,-0.004 -0.103432,-0.0272 -0.15625,-0.0312 z  m .1562,.0312 c 0.705498,0.0554 1.45114,0.0937 2.15625,0.15625 2.74906,0.24653 5.47025,0.54605 8.21875,0.8125 v -0.0937 c -4.11744,-0.39846 -0.613716,-0.0679 -8.21875,-0.75 -0.649591,-0.0576 -1.28758,-0.10473 -1.9375,-0.15625 -0.06823,0.003 -0.150509,0.028 -0.21875,0.0312 z  m -73.625,.0313 0,.0625 c 4.00241,-0.0268 8.00115,-0.0109 12,0 v -0.0625 c -4.0039,0.0159 -7.99386,0.0308 -12,0 z  m 0,.25 0,.5312 c 1.30987,0.11391 2.62586,0.23617 3.9375,0.3125 0.143754,0.008 0.293732,-0.008 0.4375,0 0.103977,-0.00013 0.208525,9e-05 0.3125,0 2.43135,0.12935 4.87382,0.18675 7.3125,0.21875 v -0.21875 -0.4375 c -3.99979,-0.1009 -8.0057,-0.20709 -12,-0.40625 z  m 3.9375,.8438 c -1.31197,0.002 -2.62552,-0.003 -3.9375,0 v 0.0312 c 1.30974,-0.003 2.62867,-0.0269 3.9375,-0.0312 z  m 80.0625,.1562 c -0.391787,0.067 -0.795192,0.15499 -1.1875,0.21875 -1.172,0.18424 -2.32527,0.36649 -3.5,0.53125 0.710199,-0.009 1.41478,-0.0242 2.125,-0.0312 0.664182,-0.0187 1.33656,-0.0213 2,0 0.188077,-0.0189 0.374293,-0.0134 0.5625,-0.0312 v -0.6875 z  m -.5625,.7188 c -0.361918,0.0363 -0.732594,0.0831 -1.09375,0.125 -2.11694,0.21749 -4.22685,0.43527 -6.34375,0.65615 0.587997,0.0717 1.1621,0.11481 1.75,0.1875 0.837,0.13599 1.66339,0.33009 2.5,0.46875 -1.25598,-0.015 -2.50099,-0.10844 -3.75,-0.25 -0.726086,-0.0781 -1.43052,-0.16853 -2.15625,-0.25 -0.603593,0.0607 -1.20862,0.13041 -1.8125,0.1875 1.51191,0.22903 3.05092,0.45603 4.5625,0.6875 -0.803652,0.0644 -1.60121,0.13601 -2.40625,0.1875 0.143434,0.007 0.262823,0.0243 0.40625,0.0312 0.663225,0.0361 0.828699,0.0332 1.375,0.0625 0.72335,-0.0189 1.43298,-0.009 2.15625,-0.0312 -0.469059,-0.0748 -0.906484,-0.17142 -1.375,-0.25 1.13898,-0.094 2.27206,-0.20359 3.40625,-0.34375 -0.105027,-0.0174 -0.207466,-0.0139 -0.3125,-0.0312 0.255884,0.004 0.494261,0.003 0.75,0 0.967227,-0.12619 1.9467,-0.29301 2.90625,-0.46875 v -0.93755 c -0.188512,-0.007 -0.373982,-0.0252 -0.5625,-0.0312 z  m -2.3438,1.4375 c -0.150401,0.0196 -0.286962,0.0126 -0.4375,0.0312 0.798701,0.13272 1.57657,0.27173 2.375,0.40625 0.316153,-0.01625 0.652691,-0.04435 0.96875,-0.06255 v -0.5 c -0.0103,4e-05 -0.02072,-3e-05 -0.03125,0 -0.955229,0.0232 -1.91957,0.11414 -2.875,0.125 z  m 1.9375,.4375 c -1.47558,0.0757 -2.92938,0.14187 -4.40625,0.1875 0.552536,0.0881 1.10314,0.19719 1.65625,0.28125 -1.01555,-0.0563 -2.27298,-0.16739 -3.8125,-0.25 -0.120682,0.003 -0.254317,0.0282 -0.375,0.0312 1.59866,0.0888 3.21497,0.18366 4.8125,0.28125 -0.181219,-0.0272 -0.381325,-0.035 -0.5625,-0.0625 0.967755,0.0537 2.62369,0.15232 3.65625,0.21875 v -0.53115 c -0.316167,-0.0535 -0.652547,-0.10298 -0.96875,-0.15625 z  m -2.125,.5312 c 1.03676,0.1554 2.05626,0.28734 3.09375,0.4375 v -0.25 c -1.03262,-0.0667 -2.06082,-0.12441 -3.09375,-0.1875 z  m -4.8125,-.2812 c -0.339541,-0.0189 -0.660393,-0.044 -1,-0.0625 -0.203688,-0.01 -0.421304,-0.0217 -0.625,-0.0312 -0.128908,0.008 -0.246128,0.0234 -0.375,0.0312 -0.701185,0.0429 -1.39031,0.091 -2.09375,0.125 v 0.0312 c 0.655586,-0.0178 1.31163,-0.0149 1.96875,-0.0312 0.708187,-0.0176 1.41671,-0.0443 2.125,-0.0625 z  m -1.625,-.0937 c 0.06849,-0.004 0.150256,-0.0269 0.21875,-0.0312 -0.896056,-0.0424 -1.79197,-0.0576 -2.6875,-0.0937 v 0.0312 c 0.822576,0.0357 1.64471,0.055 2.46875,0.0937 z  m -1.9375,-.9062 c -0.175603,-0.02665 -0.352712,-0.06495 -0.53125,-0.0938 v 0.15625 c 0.178197,-0.0165 0.353005,-0.0456 0.53125,-0.0625 z  m 1.8125,-.1875 c 0.549705,-0.05525 1.10671,-0.09885 1.65625,-0.1562 -0.452374,-0.0551 -0.922597,-0.10142 -1.375,-0.15625 -0.53457,0.0614 -1.05868,0.13109 -1.59375,0.1875 0.437878,0.0495 0.874579,0.0759 1.3125,0.125 z  m -1.3125,-.125 c -0.34286,-0.0388 -0.687619,-0.0862 -1.03125,-0.125 v 0.1875 c 0.344843,-0.0213 0.691281,-0.0267 1.03125,-0.0625 z  m 1.5938,-.1875 c 1.56167,-0.17939 3.13035,-0.37536 4.6875,-0.59375 -0.611993,0.008 -1.23168,0.003 -1.84375,0 -1.8276,-0.0159 -3.64641,-0.0662 -5.46875,-0.15625 v 0.40625 c 0.876035,0.10727 1.75016,0.23774 2.625,0.34375 z  m -74.625,-.9376 0,.4688 c 4.00209,-0.0166 7.99937,-0.00052 12,0.0312 v -0.21875 c -3.99712,-0.13706 -8.00254,-0.21991 -12,-0.28125 z  m 0,1.375 0,.3125 c 2.2777,-0.0392 4.56622,-0.0979 6.84375,-0.15625 1.7213,-0.001 3.43556,-0.0288 5.15625,-0.0312 -1.7186,0.00085 -3.43862,-0.001 -5.15625,0 -2.287,-0.05645 -4.55658,-0.08875 -6.84375,-0.12495 z  m 7.0312,1.1875 c -1.01717,-0.001 -2.01861,0.0139 -3.03125,0.0312 -1.33545,0.004 -2.66454,-0.005 -4,0 v 0.0312 c 0.08032,0.006 0.103774,0.0255 0.1875,0.0312 -0.06037,0.00021 -0.127141,-0.00021 -0.1875,0 v 0.125 c 0.07628,0.006 0.01377,-0.006 0.09375,0 2.8808,0.2385 5.76986,0.42369 8.65625,0.53125 1.08006,-0.0407 2.16612,-0.0795 3.25,-0.125 v -0.0937 c -3.92816,-0.07395 -7.86045,-0.19913 -11.7812,-0.43755 1.25247,-0.004 2.49754,-0.0272 3.75,-0.0312 2.03258,-0.0309 4.09311,-0.0491 6.125,-0.0312 -1.01243,-0.0114 -2.04533,-0.0298 -3.0625,-0.0312 z  m 1.7188,.75 c -1.04774,0.0395 -2.10894,0.0453 -3.15625,0.0937 0.721794,0.004 1.46555,0.0251 2.1875,0.0312 -0.9052,-0.005 -1.81353,0.005 -2.71875,0 -1.69044,0.08165 -3.37456,0.18267 -5.0625,0.31245 v 0.1875 c 1.07979,0.001 2.17029,0.0194 3.25,0.0312 2.91475,-0.14506 5.83235,-0.21129 8.75,-0.21875 v -0.28125 -0.0625 c -1.08533,-0.0297 -2.1709,-0.0535 -3.25,-0.0937 z  m -5.5,.6564 c -0.535713,0.0267 -1.08952,0.062 -1.625,0.0937 0.885552,0.0235 1.77026,0.0537 2.65625,0.0937 0.815783,0.0369 5.59615,0.32223 6.46875,0.375 0.418701,0.0305 0.831342,0.0663 1.25,0.0937 v -0.375 c -0.332827,-0.0137 -0.667369,-0.0167 -1,-0.0312 -2.36773,-0.095 -4.18362,-0.18226 -6.5625,-0.21875 -0.400203,-0.006 -0.787275,-0.0268 -1.1875,-0.0312 z  m -1.625,.0937 c -0.543979,-0.0144 -1.08108,0.009 -1.625,0 v 0.125 c 0.541416,-0.0375 1.08329,-0.0929 1.625,-0.125 z  m 3.4375,-.625 c 0.181468,-0.009 0.349767,-0.0229 0.53125,-0.0312 -1.87171,-0.01185 -3.72202,-0.0261 -5.59375,-0.0312 v 0.0625 c 1.68979,0.007 3.37273,-0.009 5.0625,0 z  m 75.7188,-.1562 c -0.140106,0.0162 -0.309055,0.0854 -0.46875,0.15625 0.271004,-0.0144 0.541518,-0.0162 0.8125,-0.0312 -0.09238,-0.10465 -0.203644,-0.14125 -0.34375,-0.125 z  m .3438,.125 c 0.0078,0.009 0.02393,0.0213 0.03125,0.0312 0.03198,0.0434 0.02547,0.0892 0.03125,0.15625 0.0906,9e-05 0.190655,-0.00011 0.28125,0 0.07178,-0.0856 0.149828,-0.13247 0.21875,-0.21875 0.110225,-0.13799 -0.327608,0.0121 -0.5,0.0312 -0.01501,0.00086 -0.04749,-0.00085 -0.0625,0 z  m .3438,.1875 c -0.02046,0.0244 -0.04179,0.0696 -0.0625,0.0937 0.60746,0.006 1.23214,-0.0115 1.78125,0 0.263595,0.005 0.548919,0.0246 0.8125,0.0312 v -0.125 c -0.845516,-0.002 -1.68573,0.001 -2.53125,0 z  m -.0625,.0937 c -0.06833,-0.00065 -0.149936,0.00059 -0.21875,0 -0.0019,0.0854 -0.0019,0.15083 -0.03125,0.25 0.08544,-0.0912 0.168912,-0.15512 0.25,-0.25 z  m -.25,.25 c -0.02636,0.0281 -0.03568,0.0974 -0.0625,0.125 0.01492,0.001 0.01632,-0.001 0.03125,0 0.01032,-0.0288 0.0228,-0.0965 0.03125,-0.125 z  m -.0312,.125 c -0.03107,0.0868 -0.04891,0.16734 -0.09375,0.25 0.873467,0.0658 1.75252,0.10552 2.625,0.1875 0.155788,0.0146 0.199056,0.0173 0.34375,0.0312 v -0.25 c -0.953954,-0.0856 -1.91905,-0.15168 -2.875,-0.21875 z  m -.0938,.25 c -0.06047,-0.005 -0.127036,-0.0268 -0.1875,-0.0312 -0.16468,0.14984 -0.346981,0.28802 -0.53125,0.40625 0.210402,0.22918 0.525626,-0.0189 0.71875,-0.375 z  m -.7188,.375 c -0.03348,-0.0365 -0.06551,-0.0929 -0.09375,-0.15625 -0.349599,-0.0656 -0.709171,-0.14857 -1.0625,-0.1875 -0.767652,-0.0846 -3.48602,-0.16721 -4.0625,-0.1875 -0.08264,-0.003 -0.167363,0.003 -0.25,0 0.545069,-0.0316 1.0807,-0.11517 1.625,-0.15625 -1.48741,-0.0767 -2.9793,-0.13106 -4.46875,-0.1874 v 0.28125 c 0.927382,0.0252 1.85645,0.0315 2.78125,0.0625 -0.920362,0.0527 -1.85098,0.0649 -2.78125,0.0937 v 0.21875 c 1.46235,0.0368 2.78433,0.0673 4.625,0.15625 0.716355,0.0346 1.44062,0.077 2.15625,0.125 0.408645,0.0274 0.848403,0.30516 1.21875,0.125 0.106098,-0.0516 0.21297,-0.12364 0.3125,-0.1875 z  m -3.8438,-.6875 c 1.45545,0.0751 2.92145,0.17339 4.375,0.28125 0.08468,-0.077 0.169738,-0.13604 0.25,-0.21875 -0.20253,-0.0141 -0.422355,-0.0493 -0.625,-0.0625 -0.644427,-0.0419 -1.55881,-0.11283 -2.4375,-0.15625 -0.520117,0.0513 -1.04123,0.11691 -1.5625,0.15625 z  m 1.5625,-.1561 c 0.54247,-0.0535 1.08427,-0.0862 1.625,-0.15625 0.03541,-0.005 0.08792,-0.0219 0.125,-0.0312 -1.32002,-0.005 -2.59394,0.00041 -3.78125,0 0.32393,-0.0124 0.644857,-0.0489 0.96875,-0.0625 -1.35897,0.001 -2.70343,0.0289 -4.0625,0.0312 0.219223,0.009 0.405785,0.022 0.625,0.0312 0.646759,0.00093 1.32199,-0.00065 1.96875,0 -0.292745,0.009 -0.582583,0.0217 -0.875,0.0312 1.08391,0.0466 2.17801,0.0955 3.40625,0.15625 z  m -3.4062,-.1561 c -0.337347,-0.0145 -0.814963,-0.0195 -1.09375,-0.0312 -0.507358,-0.00071 -1.02012,-0.00017 -1.53125,0 v 0.0937 c 0.87502,-0.0207 1.7527,-0.0339 2.625,-0.0625 z  m -1.7188,-.0625 c -0.301204,-0.01252 -0.603883,-0.02201 -0.90625,-0.03125 v 0.0312 c 0.303724,0.00022 0.608096,0.00052 0.90625,0 z  m 6.875,.0312 c 0.495424,0.002 0.924469,0.0272 1.40625,0.0312 0.000528,-0.0232 0.0019,-0.0724 0,-0.0937 -0.430319,-0.00045 -0.850925,0.00016 -1.28125,0 -0.04532,0.0162 -0.08137,0.0514 -0.125,0.0625 z  m .125,-.0625 c 0.135512,-0.0485 0.267262,-0.0946 0.40625,-0.15625 -1.00856,0.0536 -2.02236,0.11258 -3.03125,0.15625 0.875762,-0.00063 1.74926,-0.00033 2.625,0 z  m -67.9062,2.5001 c -0.176852,0.0144 -0.354328,0.0166 -0.53125,0.0312 -1.00596,0.0689 -1.35395,0.073 -2.09375,0.125 0.135624,8e-05 0.301883,-4e-05 0.4375,0 0.622398,-0.0436 0.829007,-0.0393 1.625,-0.0937 0.187281,-0.0155 0.375298,-0.016 0.5625,-0.0312 v -0.0312 z  m -2.1875,.1562 c -0.121024,0.008 -0.228086,0.0232 -0.34375,0.0312 0.843957,-0.00049 1.68746,-0.00058 2.53125,0 v -0.0312 c -0.729485,0.00055 -1.45713,0.00014 -2.1875,0 z  m -.3438,.0312 c -0.143128,8e-05 -0.263108,-0.00014 -0.40625,0 -3.15597,0.2219 -5.07034,0.34689 -9.0625,0.5 v 0.0312 c 4.16805,-0.16 5.95102,-0.28422 9.46875,-0.53125 z  m -.4062,0 c 0.116404,-0.008 0.19055,-0.0228 0.3125,-0.0312 -3.08169,-0.002 -6.1686,0.0126 -9.25,-0.0312 -0.04527,-0.001 -0.07972,0.001 -0.125,0 v 0.125 c 0.0075,-0.00017 0.0237,0.00016 0.03125,0 3.00558,-0.042 6.02543,-0.0596 9.03125,-0.0625 z  m 62.9375,.031 v 0.0625 c 1.00877,0.007 2.016,0.0248 3.03125,0.0312 2.98642,0.0279 5.98246,0.0589 8.96875,0.0937 v -0.0312 c -2.97879,-0.0348 -5.95858,-0.0972 -8.9375,-0.125 -1.02029,-0.0112 -2.04142,-0.0262 -3.0625,-0.0312 z  m 0,.375 0,.4375 c 0.07291,0.0107 0.144516,0.0194 0.21875,0.0312 0.77167,-0.006 1.5409,0.0117 2.3125,0 -0.842615,-0.15769 -1.68788,-0.31213 -2.53125,-0.4686 z  m 2.5312,.4688 c 0.78172,0.14644 1.59271,0.26228 2.375,0.40625 1.65819,0.041 3.31103,0.12002 4.96875,0.1875 0.70938,0.0187 1.4156,0.0242 2.125,0.0312 v -0.875 c -0.482281,0.007 -0.955226,0.019 -1.4375,0.0312 -2.66536,0.10163 -5.36489,0.1784 -8.03125,0.21875 z  m 2.375,.4062 c -0.753626,-0.0186 -1.52755,0.0128 -2.28125,0 0.64723,0.10165 1.29008,0.18093 1.9375,0.28125 0.622254,6e-05 1.18886,-5e-05 1.8125,0 -0.490457,-0.0884 -0.978612,-0.19105 -1.46875,-0.28125 z  m 1.4688,.2814 c 0.08296,0.0149 0.16703,0.0164 0.25,0.0312 1.65451,0.00014 3.31532,-1e-05 4.75,0 0.211451,0 0.413526,5e-05 0.625,0 v -0.0312 c -0.203638,2e-05 -0.390126,0 -0.59375,0 -1.5166,-1e-05 -3.27873,0.00015 -5.03125,0 z  m .25,.0312 c -0.606656,-5e-05 -1.14211,6e-05 -1.75,0 0.467473,0.0723 0.938705,0.17819 1.40625,0.25 0.513071,-0.00047 1.01818,-0.0307 1.53125,-0.0312 -0.399203,-0.0699 -0.788558,-0.14715 -1.1875,-0.21875 z  m 1.1875,.2188 c 0.06853,0.012 0.150212,0.0505 0.21875,0.0625 1.32586,-0.002 2.64289,0.002 3.96875,0 v -0.0625 c -1.39582,0.003 -2.79168,-0.002 -4.1875,0 z  m .2188,.0625 c -0.512267,0.00058 -1.05023,-0.00047 -1.5625,0 0.315856,0.0485 0.652872,0.0767 0.96875,0.125 0.451469,-0.006 0.892309,-0.0225 1.34375,-0.0312 -0.256014,-0.0438 -0.494108,-0.0491 -0.75,-0.0937 z  m .75,.0937 c 1.07296,0.1836 2.14315,0.39744 3.21875,0.5625 v -0.5625 c -0.19694,-0.005 -0.396911,-0.0259 -0.59375,-0.0312 -0.875792,0.0319 -1.74909,0.014 -2.625,0.0312 z  m -1.3438,.0312 c -2.48053,0.0321 -4.9579,0.0297 -7.4375,0.0312 v 0.5313 c 0,0.0539 0.0017,0.10278 0,0.15625 3.55177,-0.00025 7.11153,-0.0126 10.6562,0.125 0.448979,0.0351 0.893135,0.0592 1.34375,0.0937 v -0.21875 c -1.5243,-0.2318 -3.03839,-0.48573 -4.5625,-0.71875 z  m -.9688,-.125 c -0.06736,-0.0103 -0.120142,-0.0209 -0.1875,-0.0312 -1.99188,0.002 -3.97688,-0.001 -5.96875,0 -0.10406,2e-05 -0.208433,-2e-05 -0.3125,0 v 0.0312 c 0.08339,-2e-05 0.166609,2e-05 0.25,0 2.07165,-0.001 4.1471,0.002 6.21875,0 z  m -1.5938,-.2812 c -0.09791,-0.0151 -0.214591,-0.0161 -0.3125,-0.0312 -1.59932,-0.00015 -3.16518,0.00011 -4.5625,0 v 0.0312 c 1.48777,0.00011 3.17208,-0.00015 4.875,0 z  m -2.25,-.3125 c -0.798854,-0.12546 -1.60778,-0.27818 -2.40625,-0.40625 -0.07324,0.00053 -0.145571,-0.00047 -0.21875,0 v 0.375 c 0.874038,0.0103 1.74631,0.0163 2.625,0.0312 z  m -62.625,-.2812 c -0.386345,0.0139 -0.770766,0.0202 -1.15625,0.0312 -1.68772,0.0483 -3.34526,0.0558 -5.03125,0.0625 1.65613,-0.0106 3.31403,-0.005 4.96875,0.0312 0.407544,0.009 0.812301,0.0194 1.21875,0.0312 v -0.15625 z  m -12,.0627 0,.0625 c 0.143434,-0.002 0.294067,0.001 0.4375,0 -0.14317,-0.0119 -0.294337,-0.0505 -0.4375,-0.0625 z  m .4375,.0625 c 0.135717,0.0113 0.270533,0.0202 0.40625,0.0312 1.6029,-0.0164 3.20835,-0.0515 4.8125,-0.0625 -1.73798,0.006 -3.47854,0.0151 -5.21875,0.0312 z  m .4062,.0312 c -0.1511,0.002 -0.317643,-0.001 -0.46875,0 3.20786,0.26592 6.44294,0.51032 9.65625,0.6875 h 0.65625 c -3.29501,-0.17213 -6.55442,-0.41687 -9.84375,-0.6874 z  m 9.8438,.6875 c 0.158788,0.008 0.341211,0.0233 0.5,0.0312 0.271022,1e-05 0.541511,0 0.8125,0 v -0.0312 c -0.437275,0 -0.875305,1e-05 -1.3125,0 z  m .5,.0312 -.7188,0 c 0.5105,0.0272 1.02096,0.0389 1.53125,0.0625 v -0.0312 c -0.270608,-0.0126 -0.54198,-0.0177 -0.8125,-0.0312 z  m -.7188,0 c -0.143632,-0.008 -0.293867,-0.0233 -0.4375,-0.0312 -0.671317,-1e-05 -1.35993,1e-05 -2.03125,0 -2.67161,-0.0234 -5.32791,-0.0116 -8,0 v 0.0312 c 2.66648,0.0109 5.33395,0.022 8,0 0.822182,2e-05 1.64658,-1e-05 2.46875,0 z  m -10.0938,-.7188 -.375,-.0312 0,.0312 c 0.128442,-0.001 0.246558,0.001 0.375,0 z  m -.375,1.1876 v 0.0312 c 0.945228,0.00029 1.86777,-0.0005 2.8125,0 3.05917,0.001 6.12397,4e-05 9.1875,0 v -0.0312 c -3.0531,3e-05 -6.10748,0.001 -9.15625,0 -0.953016,-0.00051 -1.88995,-0.00025 -2.84375,0 z  m 84,.9375 c -2.29288,0.25017 -4.59792,0.39588 -6.90625,0.53125 -1.77121,0.0519 -3.54028,0.0859 -5.3125,0.125 -0.0027,0.009 0.0028,0.0218 0,0.0312 1.77223,-0.0391 3.54129,-0.0731 5.3125,-0.125 5.31493,-0.0891 3.51584,-0.0517 6.90625,-0.0625 v -0.5 z  m -84,.6875 0,.0312 c 0.264109,0.032 0.548228,0.0947 0.8125,0.125 2.66291,0.30583 2.86111,0.31793 3.375,0.375 0.120647,-0.00049 0.254361,0.00055 0.375,0 -1.50987,-0.16817 -3.05311,-0.35873 -4.5625,-0.53115 z  m 4.5625,.5312 c 0.687227,0.0766 1.34454,0.16897 2.03125,0.25 1.95767,-0.0479 3.91628,-0.10633 5.875,-0.15625 -0.02841,-0.0634 -0.06793,-0.12273 -0.09375,-0.1875 -2.60535,0.0389 -5.21022,0.0819 -7.8125,0.0937 z  m 2.0312,.25 c -0.113137,0.003 -0.199363,-0.003 -0.3125,0 0.283763,0.0347 1.3027,0.17829 2.125,0.28125 0.136066,-0.00037 0.301448,-0.031 0.4375,-0.0312 -0.741549,-0.0968 -1.50738,-0.16239 -2.25,-0.25 z  m 2.25,.25 c 0.06905,0.009 0.118442,0.0534 0.1875,0.0625 0.70728,0.002 1.41773,8e-05 2.125,0 0.510821,-6e-05 1.02062,3e-05 1.53125,0 -0.01151,-0.0199 -0.02001,-0.0424 -0.03125,-0.0625 -0.489324,3e-05 -0.979645,-6e-05 -1.46875,0 -0.785913,0.0001 -1.55782,-0.002 -2.34375,0 z  m .1875,.0625 c -0.142957,-0.0003 -0.294536,0.00035 -0.4375,0 0.65735,0.0823 0.354024,0.002 1.59375,0.15625 1.07836,0.13581 1.92457,0.23239 2.8125,0.34375 -0.0089,-0.0119 -0.02247,-0.0193 -0.03125,-0.0312 -0.865116,-0.10249 -1.69467,-0.21085 -2.75,-0.34375 -0.39344,-0.0556 -0.793647,-0.073 -1.1875,-0.125 z  m -2.75,-.3125 c -0.28318,-0.0347 -1.78554,-0.21578 -2.09375,-0.25 -1.05565,0.004 -2.10051,0.0312 -3.15625,0.0312 -0.338911,0.001 -0.692395,0.002 -1.03125,0 v 0.34375 c 0.240318,-0.004 0.478411,0.004 0.71875,0 1.8491,-0.0419 3.71347,-0.0799 5.5625,-0.125 z  m 77.7188,-.1562 c -2.45458,0.0135 -4.92044,0.043 -7.375,0.0937 -1.72945,0.0513 -3.45866,0.0585 -5.1875,0.0937 -0.08044,0.16105 -0.122024,0.34953 -0.21875,0.5 1.62754,0.0347 3.24719,0.043 4.875,0.0937 2.6388,0.0577 5.26735,0.0549 7.90625,0.0625 v -0.84375 z  m -84,.4064 0,.0625 c 0.241521,-0.003 0.477222,0.002 0.71875,0 1.73807,-0.0133 3.48063,-0.0348 5.21875,-0.0312 -1.72307,0.004 -3.46449,-0.0165 -5.1875,-0.0312 -0.249679,-0.002 -0.500335,0.004 -0.75,0 z  m 0,.5312 c 2.33864,0.0003 4.66099,0.0296 7,0.0625 2.03515,0.0186 4.0603,0.0388 6.09375,0.0625 -0.0092,-0.0116 -0.02216,-0.0195 -0.03125,-0.0312 -2.01148,-0.024 -4.01927,-0.0441 -6.03125,-0.0625 -2.34508,-0.00315 -4.68659,-0.0169 -7.03125,-0.0314 z  m 84,1.4062 c -2.21527,0.16182 -4.44556,0.30129 -6.65625,0.4375 -4.4715,0.20617 -6.92903,0.37409 -11.4375,0.3125 -1.08583,-0.0148 -2.35272,-0.0702 -3.65625,-0.125 h -1.15625 c 1.70929,0.0859 3.38565,0.16841 4.78125,0.1875 4.5088,0.0617 6.9657,-0.10635 11.4375,-0.3125 1.77729,-0.1095 3.56744,-0.24981 5.34375,-0.375 0.628077,-0.0443 0.850122,-0.0559 1.34375,-0.0937 v -0.0312 z  m -69.0625,.1561 c -4.31985,0.26958 -8.65368,0.4818 -12.9688,0.78125 -0.651491,0.0504 -1.31886,0.12196 -1.96875,0.1875 v 0.3125 c 0.512073,-0.0126 1.01906,-0.0222 1.53125,-0.0312 -0.516529,0.0575 -1.01612,0.11993 -1.53125,0.1875 0.165701,0.0118 0.334299,0.0507 0.5,0.0625 2.8188,-0.14912 5.65036,-0.23958 8.46875,-0.3125 8.40799,-0.10808 16.8103,-0.0958 25.2188,-0.0937 2.95625,0.004 5.91881,0.0173 8.875,0.0312 -0.392667,-0.0281 -0.794789,-0.0349 -1.1875,-0.0625 -2.55749,0.008 -5.09873,-0.00014 -7.65625,0 -8.4085,-0.002 -16.8107,-0.0143 -25.2188,0.0937 -2.47593,0.0237 -4.95919,0.0497 -7.4375,0.0937 4.63535,-0.42739 9.29009,-0.69359 13.9375,-1.03125 -0.191643,-0.0606 -0.381748,-0.13652 -0.5625,-0.21875 z  m 26.9375,1.0625 c 0.120708,-0.0004 0.254294,0.0004 0.375,0 -2.36445,-0.16656 -4.72867,-0.33204 -7.09375,-0.5 2.23956,0.16511 4.47668,0.34274 6.71875,0.5 z  m .375,0 c 0.406916,0.0286 0.811886,0.0333 1.21875,0.0625 4.38147,0.0209 8.77469,0.0544 13.1562,0.0625 6.49004,0.0291 12.9786,0.0789 19.4688,0.0937 2.14952,-0.007 4.29008,0.0417 6.4375,0.125 0.492896,-0.0396 0.976353,-0.0799 1.46875,-0.125 v -0.5625 c -2.53113,0.0992 -5.0603,0.19249 -7.59375,0.1875 -6.5454,0.0147 -13.1109,0.0685 -19.6562,0.0937 -4.83592,0.006 -9.66415,0.0462 -14.5,0.0625 z  m 40.2812,.3438 c -2.96357,0.2379 -5.93692,0.36743 -8.90625,0.5 -4.71386,0.0869 -9.41471,0.14162 -14.125,0.0625 4.69226,0.0922 9.39958,0.0752 14.0938,0 0.890426,-0.006 6.25831,-0.0507 7.3125,-0.0625 1.03291,-0.01135 2.06071,-0.03745 3.09375,-0.06235 v -0.375 c -0.49142,-0.0215 -0.977259,-0.0435 -1.46875,-0.0625 z  m -39.0625,-.2812 c -0.13574,-0.00066 -0.270509,0.00064 -0.40625,0 0.263933,0.0188 0.517342,0.0434 0.78125,0.0625 2.06442,0.1436 3.77348,0.2669 5.46875,0.375 -1.67389,-0.11554 -3.35912,-0.26386 -5.40625,-0.40625 -0.142938,-0.0103 -0.294555,-0.0211 -0.4375,-0.0312 z  m -42.9688,.3749 c -0.06086,0.003 -0.12665,0.0281 -0.1875,0.0312 1.55518,0.11055 3.10258,0.21307 4.65625,0.34375 2.2433,0.18867 4.29009,0.35628 6.3125,0.5625 -2.01242,-0.20497 -4.01769,-0.40598 -6.25,-0.59375 -1.50309,-0.12639 -3.0267,-0.23695 -4.53125,-0.3437 z  m -.1875,.0312 c -0.105627,-0.0079 -0.206874,-0.0237 -0.3125,-0.0312 v 0.0312 c 0.106167,-0.006 0.206325,0.006 0.3125,0 z  m -.3125,1.5626 0,.0312 c 0.976187,0.11828 1.92763,0.24491 2.90625,0.34375 3.21068,0.32431 4.57714,0.41377 7.40625,0.59375 0.151093,-0.006 0.317657,-0.0248 0.46875,-0.0312 -3.59402,-0.23712 -7.20281,-0.52603 -10.7812,-0.9375 z  m 10.7812,.9375 c 0.113009,0.008 0.230742,0.024 0.34375,0.0312 -0.151029,0.006 -0.317721,-0.006 -0.46875,0 0.174001,0.0112 0.250471,0.0191 0.4375,0.0312 0.95609,0.0469 1.91861,0.0858 2.875,0.125 -0.950496,-0.041 -1.86239,-0.10028 -2.8125,-0.15625 0.898359,-0.0352 1.78873,-0.0928 2.6875,-0.125 1.3888,-0.0432 2.77075,-0.0692 4.15625,-0.0937 -1.38239,0.0205 -2.77446,0.0276 -4.15625,0.0625 -1.02742,0.0368 -2.03533,0.0813 -3.0625,0.125 z  m -.125,.0312 c -0.137482,-0.009 -0.213579,0.008 -0.34375,0 -1.55847,0.068 -3.09926,0.16556 -4.65625,0.25 1.66711,-0.087 3.33184,-0.18315 5,-0.25 z  m 35.5938,-.9374 c -0.342985,0.006 -0.712427,0.0514 -1.0625,0.0625 0.852959,-0.0286 1.70769,-0.0558 2.5625,-0.0625 -0.501382,0.001 -0.998287,-0.009 -1.5,0 z  m 1.5,0 c 1.13975,-0.009 2.29646,-0.007 3.4375,0.0312 1.76284,0.0568 3.5192,0.0775 5.28125,0.15625 -1.75175,-0.0779 -3.49755,-0.13095 -5.25,-0.1875 -1.15116,-0.004 -2.31852,-0.003 -3.46875,0 z  m -30.1562,.0312 c 1.4469,0.18004 2.89912,0.42839 4.34375,0.625 0.07503,0.0102 0.14372,-0.0102 0.21875,0 -1.51527,-0.20637 -3.0455,-0.43682 -4.5625,-0.625 z  m 25.0625,.125 c -1.74137,0.0943 -3.49202,0.20203 -5.15625,0.3125 -0.13588,0.009 -0.270383,0.0223 -0.40625,0.0312 0.128274,-0.00071 0.246729,0.00071 0.375,0 -0.760661,0.0529 -1.52083,0.0996 -2.28125,0.15625 0.729538,0.005 1.48923,-0.006 2.21875,0 6.96892,0.0232 13.9061,0.0796 20.875,0.0625 2.44045,-0.0445 4.87443,-0.009 7.3125,0.0625 -1.19225,-0.0881 -2.3695,-0.17314 -3.5625,-0.25 -1.19151,-0.0189 -2.37037,-0.0389 -3.5625,-0.0312 -6.97651,-0.0267 -13.961,-0.0113 -20.9375,0 1.70667,-0.11855 3.42081,-0.25433 5.125,-0.34375 z  m 19.375,.375 c 0.301551,0.005 0.604732,-0.006 0.90625,0 -2.13986,-0.14337 -4.29451,-0.24791 -6.4375,-0.34375 1.83859,0.0828 3.69498,0.22545 5.53125,0.34375 z  m .9062,0 c 1.17885,0.079 2.35309,0.16072 3.53125,0.25 2.72443,0.0918 5.43417,0.24679 8.15625,0.40625 1.66884,-0.007 3.33118,-0.0197 5,-0.0312 -5.56406,-0.16207 -11.1228,-0.51138 -16.6875,-0.625 z  m 11.6875,.6562 c -1.09562,0.005 -2.18561,-0.00035 -3.28125,0 1.68121,0.14091 3.38169,0.29115 5.0625,0.4375 2.34383,0.0139 4.68742,0.0168 7.03125,0.0312 -0.36855,-0.0152 -0.654816,-0.0108 -1.09375,-0.0312 -0.993955,-0.0464 -2.00629,-0.10475 -3,-0.15625 -1.57368,-0.0954 -3.14443,-0.18904 -4.71875,-0.28125 z  m 8.8125,.4688 c 0.191936,0.008 0.382707,0.0242 0.5625,0.0312 v -0.0312 c -0.188403,-0.001 -0.374097,0.001 -0.5625,0 z  m -7.0312,-.0312 c -0.09797,-0.00058 -0.214526,0.00057 -0.3125,0 2.63005,0.22891 5.27552,0.43967 7.90625,0.65625 -2.53278,-0.20856 -5.06163,-0.43576 -7.59375,-0.65625 z  m -.3125,0 c -1.67333,-0.14564 -3.3575,-0.29771 -5.03125,-0.4375 -0.324907,-2e-05 -0.643836,0.00052 -0.96875,0 -5.68083,-0.0281 -11.3817,-0.0728 -17.0625,0 -6.36802,0.0452 -12.7257,0.11833 -19.0938,0.15625 -1.72118,0.001 -3.43477,-0.00066 -5.15625,0 -0.253074,0.034 -0.5099,0.0571 -0.78125,0.0937 0.01605,0.002 0.01534,0.0276 0.03125,0.0312 0.0217,0.005 0.0406,-0.003 0.0625,0 0.597606,0.082 1.21402,0.17501 1.8125,0.25 1.95843,0.24541 3.91368,0.43681 5.875,0.65625 2.51123,0.22778 4.04298,0.37287 5.59375,0.5 -1.54225,-0.12671 -3.09626,-0.30475 -5.59375,-0.53125 -1.96131,-0.21943 -3.91659,-0.41088 -5.875,-0.65625 -0.560287,-0.0702 -1.09674,-0.14229 -1.65625,-0.21875 1.84646,0.0225 3.68491,0.0203 5.53125,0.0312 6.29922,0.0478 12.6069,0.0952 18.9062,0.125 5.68739,0.0598 11.3752,-0.002 17.0625,-0.0312 2.11782,-0.004 4.22601,0.0191 6.34375,0.0312 z  m -48.0625,-.1561 c -0.05298,-0.007 -0.103279,-0.024 -0.15625,-0.0312 -0.03951,0.006 -0.08499,0.0258 -0.125,0.0312 0.09078,0.001 0.190473,-0.001 0.28125,0 z  m -.2812,0 c -0.87775,-0.0113 -1.74729,-0.0477 -2.625,-0.0625 -3.70645,0.33973 -7.39495,0.66735 -11.0938,1.09375 -4.29321,0.57077 -8.6142,0.75063 -12.9375,0.875 -0.347575,0.006 -0.71494,0.0561 -1.0625,0.0625 0.0096,0.10603 0.04791,0.20803 0.0625,0.3125 1.58433,0.0113 3.16568,0.002 4.75,0 2.56694,-0.10516 5.12142,-0.2647 7.6875,-0.40625 0.21094,-0.003 0.414074,0.002 0.625,0 -1.14755,0.15633 -2.28463,0.28877 -3.4375,0.375 2.20215,-0.0204 4.42308,-0.0543 6.625,-0.0937 3.51125,-0.0925 7.05082,-0.11069 10.5625,-0.125 -4.52045,-0.0659 -9.07278,-0.20222 -13.5938,-0.15625 4.50259,-0.59368 9.04248,-1.07449 13.5312,-1.78125 0.365549,-0.0489 0.58136,-0.0498 0.90625,-0.0937 z  m -.8438,2.0312 c 2.17698,0.0318 4.3539,0.0416 6.53125,0.0312 -0.428142,-0.006 -0.852339,-0.025 -1.28125,-0.0312 -1.74854,-0.0123 -3.5017,-0.007 -5.25,0 z  m -17.1875,.2186 c -1.62899,0.0152 -3.24596,0.0291 -4.875,0.0312 -0.737591,0.0302 -1.48104,0.0349 -2.21875,0.0625 1.85636,-0.004 3.70617,-0.0132 5.5625,0 0.513674,-0.0279 1.0183,-0.0555 1.53125,-0.0937 z  m -1.5312,.0937 c -0.534781,0.0291 -1.05843,0.0425 -1.59375,0.0625 0.21111,0.004 0.413896,0.0276 0.625,0.0312 -0.21,-0.005 -0.413098,0.002 -0.625,0 -0.03018,0.001 -0.06357,-0.001 -0.09375,0 -1.97347,0.0724 -3.93316,0.097 -5.90625,0.125 -0.152289,0.001 -0.316639,-0.00017 -0.46875,0 0.03823,0.20619 0.09922,0.39498 0.15625,0.59375 0.06813,0.004 0.119424,0.0268 0.1875,0.0312 2.77711,-0.22192 5.56478,-0.49127 8.34375,-0.6875 0.0754,0.002 0.143356,-0.002 0.21875,0 0.655072,-0.0453 1.31304,-0.12062 1.96875,-0.15625 -0.936714,-0.0108 -1.87576,0.006 -2.8125,0 z  m 2.8125,0 c 1.70146,0.0194 3.39244,0.0624 5.09375,0.0937 5.1751,0.14249 10.3547,0.19208 15.5312,0.15625 6.63263,-0.0941 13.2735,-0.16716 19.9062,-0.25 0.79202,-0.002 1.58298,0.002 2.375,0 -6.83693,-0.11849 -13.6935,-0.20312 -20.5312,-0.25 -7.06164,-0.0288 -14.128,-0.008 -21.1875,0.1875 -0.399449,0.0172 -0.788351,0.0408 -1.1875,0.0625 z  m 42.9062,0 c 4.16258,0.0721 8.33815,0.13681 12.5,0.25 0.830081,0.0216 4.68029,0.13163 8.0625,0.21875 2.52718,0.13068 5.03471,0.26979 7.5625,0.375 0.08985,-0.0108 0.191075,-0.0202 0.28125,-0.0312 -1.23915,-0.052 -2.48009,-0.12674 -3.71875,-0.1875 -2.4777,-0.12155 -1.71257,-0.0582 -2.40625,-0.0937 0.909189,0.0231 2.40439,0.0564 2.6875,0.0625 1.30667,0.0283 2.95645,0.0377 4.53125,0.0625 0.05249,-0.008 0.103526,-0.0237 0.15625,-0.0312 -1.62525,-0.0251 -3.30965,-0.0647 -4.65625,-0.0937 -0.503374,-0.0109 -2.73065,-0.041 -4.78125,-0.0937 -0.02106,-0.004 0.290093,-0.02 -6.03125,-0.3125 -1.13779,-0.0622 -2.29907,-0.082 -3.4375,-0.125 -0.181034,3e-05 -0.350215,-4e-05 -0.53125,0 1.31003,0.0469 2.62829,0.0847 3.9375,0.15625 1.49761,0.0693 2.97115,0.14173 4.46875,0.21875 -2.74854,-0.0714 -5.46004,-0.13971 -6.09375,-0.15625 -3.59535,-0.0978 -7.21659,-0.15215 -10.8125,-0.21875 -0.573273,0.001 -1.14548,-0.001 -1.71875,0 z  m 1.7188,0 c 2.83619,-0.006 5.66379,0.00069 8.5,0 -0.371382,-0.0133 -0.722322,-0.0507 -1.09375,-0.0625 -0.07285,-0.002 -0.145904,0.002 -0.21875,0 -3.49953,-0.001 -7.00049,0.01 -10.5,0 1.11057,0.018 2.20197,0.042 3.3125,0.0625 z  m 9.0312,0 c 4.8653,-0.00071 9.72845,-0.0312 14.5938,-0.0312 1.98558,0.0669 3.0667,0.0791 4.625,0.1875 0.02367,-0.13261 0.04693,-0.23969 0.0625,-0.375 -1.5471,0.0879 -3.10655,0.13518 -4.65625,0.15625 -5.24175,0 -10.477,0.002 -15.7188,0 0.369816,0.0125 0.723985,0.0485 1.09375,0.0625 z  m 18.9062,.625 c 0.07925,0.001 0.145104,0.00054 0.21875,0 0.0041,-0.0157 0.02732,-0.0154 0.03125,-0.0312 -0.0829,0.0157 -0.166653,0.019 -0.25,0.0312 z  m -.1562,.0312 c -0.363705,0.0524 -0.738263,0.11192 -1.09375,0.15625 0.4766,0.0199 0.929936,0.0163 1.40625,0.0312 0.01932,-0.0657 0.0452,-0.12097 0.0625,-0.1875 -0.127387,0.00036 -0.240499,0.002 -0.375,0 z  m -1.375,.1875 c -1.5305,0.18386 -3.03458,0.31063 -4.6875,0.4375 -2.05399,0.15767 -4.10312,0.27989 -6.15625,0.375 2.02085,-0.0932 4.0384,-0.17828 6.0625,-0.25 2.1128,-0.0748 4.23077,-0.0889 6.34375,-0.15625 0.0406,-0.11191 0.09042,-0.22904 0.125,-0.34375 -0.04547,0.001 -0.06174,0.004 -0.15625,0 -0.505801,-0.019 -1.02549,-0.0415 -1.53125,-0.0625 z  m -10.8438,.8125 c -2.05313,0.0951 -4.0986,0.16488 -6.15625,0.25 -6.18265,0.19155 -12.4097,0.33352 -18.5938,0.46875 1.59966,-0.003 3.21286,-0.0264 4.8125,-0.0312 4.57597,-0.15055 9.17274,-0.28762 13.75,-0.40625 2.06583,-0.0854 4.12461,-0.18606 6.1875,-0.28125 z  m -19.9375,.6874 c -1.51537,0.0499 -3.01595,0.10285 -4.53125,0.15625 0.762075,0.0732 1.51916,0.14569 2.28125,0.21875 5.24079,-0.019 10.4798,-0.0407 15.7188,-0.1875 1.85028,-0.0174 3.71357,-0.13947 5.5625,-0.21875 -5.14522,-0.009 -10.2923,-0.008 -15.4375,0.0312 -1.19215,0.008 -2.40158,-0.004 -3.59375,0 z  m -2.25,.3751 c -0.08294,0.00031 -0.167055,-0.00029 -0.25,0 0.354723,0.034 0.707756,0.0912 1.0625,0.125 0.09806,0.00038 0.183188,-0.00038 0.28125,0 -0.368566,-0.035 -0.72521,-0.0897 -1.09375,-0.125 z  m 1.0938,.125 c 0.655007,0.0623 1.3136,0.12692 1.96875,0.1875 4.02907,0.0424 8.06592,0.0767 12.0938,0.1875 2.53281,0.0244 5.06091,0.27499 7.59375,0.25 0.104304,-0.002 0.208206,0.002 0.3125,0 1.49954,-0.014 3.0004,-0.0368 4.5,-0.0312 1.84951,0.006 3.7123,0.0743 5.5625,0.125 0.01878,-0.0192 0.04396,-0.0431 0.0625,-0.0625 -1.08186,-0.0301 -2.16763,-0.0423 -3.25,-0.0625 -1.75184,-0.0407 -3.49822,-0.0635 -5.25,-0.0312 0.994694,-0.02 1.97501,-0.0465 2.96875,-0.0937 1.36655,-0.065 4.2123,-0.24526 6.0625,-0.4375 0.07453,-0.1019 0.181375,-0.20621 0.25,-0.3125 -4.34131,0.14677 -8.68697,0.32962 -13.0312,0.34375 -5.17409,0.009 -10.3573,0.0132 -15.5312,-0.0312 -1.44075,-0.0106 -2.87172,-0.0256 -4.3125,-0.0312 z  m 1.9688,.1872 c -0.105417,-0.001 -0.207083,0.001 -0.3125,0 1.07262,0.0997 2.14549,0.18913 3.21875,0.28125 1.13887,0.0978 2.29774,0.19509 3.4375,0.28125 0.150735,-0.001 0.286764,0.00071 0.4375,0 -1.27571,-0.0959 -2.56909,-0.20311 -3.84375,-0.3125 -0.979537,-0.0841 -1.95851,-0.15949 -2.9375,-0.25 z  m 6.7812,.5625 c 0.113141,0.008 0.230606,0.0229 0.34375,0.0312 1.45017,-0.009 2.89659,-0.0474 4.34375,-0.0625 -1.56503,0.0108 -3.11781,0.0203 -4.6875,0.0312 z  m .3438,.0312 c -0.151323,0.00072 -0.317428,-0.00071 -0.46875,0 1.06419,0.0801 2.1235,0.16745 3.1875,0.25 2.17323,0.0921 4.35695,0.19066 6.53125,0.25 4.30131,0.11739 8.63429,0.023 12.9375,0.125 0.05037,-0.0375 0.107019,-0.0861 0.15625,-0.125 -2.3709,0.0514 -4.75543,0.0451 -7.125,0.0312 -1.97898,-0.0114 -3.95919,-0.009 -5.9375,-0.0625 -2.17427,-0.0593 -4.3268,-0.18914 -6.5,-0.28125 -0.92804,-0.072 -1.85302,-0.11794 -2.78125,-0.1875 z  m -.4688,0 c -0.113111,-0.009 -0.199392,-0.0228 -0.3125,-0.0312 -1.47438,0.0111 -2.96117,0.0407 -4.4375,0.0625 1.58587,-0.0228 3.16089,-0.02 4.75,-0.0312 z  m -6.9688,-.5936 c -0.649706,-0.0604 -1.28792,-0.1256 -1.9375,-0.1875 -3.62838,-0.0138 -7.24665,-0.0413 -10.875,-0.0625 2.62002,0.0605 5.25554,0.11351 7.875,0.15625 1.64914,0.0255 3.28821,0.0763 4.9375,0.0937 z  m -12.8125,-.2499 c 0.612315,-0.0172 1.20029,-0.041 1.8125,-0.0625 -2.40676,-0.0185 -4.81268,-0.071 -7.21875,-0.125 -0.323572,0.006 -0.64522,0.0239 -0.96875,0.0312 1.68289,0.0531 3.3793,0.11414 5.0625,0.15625 -0.226293,-0.001 -0.46121,0.001 -0.6875,0 -2.67145,-0.0114 -5.35956,-0.013 -8.03125,0 1.11246,-0.0602 2.23041,-0.12847 3.34375,-0.15625 -1.45665,-0.0466 -2.91868,-0.0997 -4.375,-0.15625 -3.41357,0.0279 -6.83768,0.0441 -10.25,0.15625 -1.86588,0.0752 -5.15468,0.21729 -7,0.3125 -2.93792,0.15158 -5.87729,0.33219 -8.8125,0.53125 0.022,0.0233 0.04015,0.071 0.0625,0.0937 5.18674,-0.31022 10.3681,-0.53967 15.5625,-0.65625 3.72873,-0.0744 7.45802,-0.10741 11.1875,-0.125 -1.86784,0.10854 -4.93414,0.35723 -6.6875,0.5 -6.26142,0.65096 -12.5244,1.0735 -18.8125,1.28125 0.110325,0.0675 0.19794,0.15776 0.3125,0.21875 0.02898,-0.00016 0.03342,0.00016 0.0625,0 1.59925,-0.009 3.35553,-0.0308 3.4375,-0.0312 -0.172634,0.009 -0.327337,0.0223 -0.5,0.0312 0.133568,-0.0007 0.496602,0.00054 0.59375,0 6.27543,-0.0339 12.5682,-0.0524 18.8438,-0.0625 -6.26527,0.01 -12.5475,-0.003 -18.8125,0.0312 1.54678,-0.084 3.08045,-0.16093 4.625,-0.28125 2.59037,-0.20178 4.02747,-0.36817 6.625,-0.625 1.15454,-0.11416 2.31397,-0.26343 3.46875,-0.375 1.51292,-0.11769 5.41287,-0.40255 6.9375,-0.46875 1.1335,-0.0492 2.27192,-0.0419 3.40625,-0.0625 2.1101,-0.0383 4.20284,-0.1 6.3125,-0.15625 0.158869,-0.004 0.341137,0.004 0.5,0 z  m -32.5,2 c -0.63709,0.004 -1.81898,-0.0135 -2.9375,0 0.0788,0.0409 0.169346,0.0873 0.25,0.125 0.889688,-0.0491 1.80243,-0.0788 2.6875,-0.125 z  m 21.4375,-2.3123 c 0.196351,-0.001 0.397397,0.001 0.59375,0 -1.7856,-0.0659 -3.55901,-0.15048 -5.34375,-0.25 -5.41084,-0.28767 -10.8425,-0.62135 -16.25,-0.96875 2.21645,0.14254 4.44271,0.29694 6.65625,0.4375 5.14961,0.327 4.43008,0.28961 9.5625,0.5625 1.59907,0.0757 3.18166,0.15669 4.78125,0.21875 z  m -21,-1.2188 c -2.13444,-0.13713 -4.27189,-0.26776 -6.40625,-0.40625 -0.06827,0.006 -0.119481,-0.004 -0.1875,0 0.0064,0.0224 -0.0068,0.0714 0,0.0937 2.20249,0.0599 4.39215,0.17091 6.59375,0.3125 z  m 21.5938,1.2188 c 1.6931,0.0625 3.36882,0.087 5.0625,0.125 2.91177,-0.0521 5.83929,-0.0333 8.75,-0.125 0.97406,-0.0225 1.93218,-0.041 2.90625,-0.0625 -0.07534,-0.007 -0.143404,-0.0241 -0.21875,-0.0312 -2.58149,0.005 -5.19983,0.009 -7.78125,0.0312 -2.91509,0.0202 -5.80359,0.0407 -8.71875,0.0625 z  m 16.5,-.0937 c 0.09031,-0.00018 0.159687,0.00018 0.25,0 -1.48778,-0.14154 -2.94874,-0.30763 -4.4375,-0.4375 -6.52179,-0.56898 -13.0591,-0.97314 -19.5938,-1.34375 -4.05002,-0.2447 -8.10163,-0.3554 -12.1562,-0.4375 4.04576,0.11484 8.08275,0.29044 12.125,0.46875 6.53463,0.37057 13.0407,0.80605 19.5625,1.375 1.40869,0.12288 2.84222,0.2414 4.25,0.375 z  m .25,0 c 0.0606,0.006 0.158146,0.0256 0.21875,0.0312 0.203936,-0.004 0.389812,-0.0268 0.59375,-0.0312 -0.26341,0.00048 -0.549091,-0.00052 -0.8125,0 z  m .2188,.0312 c -0.07547,0.001 -0.174529,-0.001 -0.25,0 0.436442,0.0415 0.87609,0.0519 1.3125,0.0937 -0.357068,-0.0314 -0.705256,-0.0598 -1.0625,-0.0937 z  m 1.0625,.0938 c -1.47011,0.052 -2.93616,0.10093 -4.40625,0.15625 -0.362937,0.015 -0.73077,0.0493 -1.09375,0.0625 1.9902,0.0145 3.97844,-0.00071 5.96875,0 0.588137,-0.002 1.19309,0.002 1.78125,0 -0.746845,-0.0717 -1.50316,-0.14705 -2.25,-0.21875 z  m -40,-2.4062 c -1.29394,-0.022 -2.5818,-0.0744 -3.875,-0.0937 -0.166779,-0.002 -0.333095,0.003 -0.5,0 -0.1281,0.005 -0.278136,0.0267 -0.40625,0.0312 1.59294,0.0172 3.18849,0.026 4.78125,0.0625 z  m -4.7812,-.0624 c -0.490717,-0.005 -0.978019,-0.0282 -1.46875,-0.0312 -0.05268,-0.00097 -0.103575,0.00092 -0.15625,0 0.0057,0.0376 0.02499,0.0564 0.03125,0.0937 0.53545,-0.0189 1.05863,-0.0433 1.59375,-0.0625 z  m 23.4062,-2.4375 c 0.353939,-0.0324 0.739863,-0.0293 1.09375,-0.0625 -3.05788,-0.008 -6.12711,-0.0696 -9.1875,-0.15625 2.7091,0.0924 5.38417,0.17293 8.09375,0.21875 z  m 1.0938,-.0625 c 0.264257,0.0007 0.516991,-0.00039 0.78125,0 -0.112834,-0.016 -0.230927,-0.0465 -0.34375,-0.0625 -0.150779,0.0143 -0.28671,0.0483 -0.4375,0.0625 z  m .4375,-.0625 c 0.0455,-0.004 0.0795,-0.0271 0.125,-0.0312 -0.981755,-0.13915 -1.95533,-0.27044 -2.9375,-0.40625 -0.459983,-0.0613 -0.915167,-0.12507 -1.375,-0.1875 -0.07508,-0.0102 -0.14367,0.0102 -0.21875,0 0.519289,0.0707 1.0425,0.14954 1.5625,0.21875 0.945539,0.13076 1.89863,0.2721 2.84375,0.40625 z  m -4.1875,-.625 c 4.02758,-0.0377 8.06593,-0.0256 12.0938,0 0.845789,-0.0586 1.68498,-0.0999 2.53125,-0.15625 -4.87947,0.0376 -9.74628,0.0898 -14.625,0.15625 z  m 12.0938,0 c -2.47576,0.17149 -4.9648,0.36646 -7.4375,0.59375 -0.112738,0.0108 -0.231005,-0.0108 -0.34375,0 0.136572,0.0194 0.300912,0.0746 0.4375,0.0937 0.528519,0.00065 1.03398,0.0002 1.5625,0 1.5157,-0.2035 2.89809,-0.38791 4.8125,-0.5625 0.533495,-0.0486 1.05955,-0.0852 1.59375,-0.125 -0.210588,-0.001 -0.41441,0.001 -0.625,0 z  m -7.3438,.6875 c -0.06796,-9e-05 -0.150798,0.00011 -0.21875,0 0.294446,0.0416 0.580447,0.0531 0.875,0.0937 -0.219528,-0.031 -0.433242,-0.0625 -0.65625,-0.0937 z  m 43.8438,-.1562 c 0.09067,0 0.190576,2e-05 0.28125,0 -1.63068,-0.13668 -3.24343,-0.28261 -4.875,-0.40625 -0.287652,-0.01 -0.587318,0.008 -0.875,0 1.82824,0.13514 3.64168,0.25364 5.46875,0.40625 z  m 12.9375,-.0625 c -1.31115,0.008 -2.62636,0.0222 -3.9375,0.0312 0.871947,0.0217 1.72174,0.0436 2.59375,0.0625 0.577612,0.0125 0.910731,0.0239 1.34375,0.0312 v -0.125 z  m -83.3438,.375 c -0.218726,0.015 -0.43783,0.01415 -0.65625,0.03135 v 0.0312 c 0.224565,-0.0187 0.427578,-0.0441 0.65625,-0.0625 z  m 40.75,1.375 c 1.54213,0.12617 3.07882,0.24402 5.5625,0.375 1.31695,0.0695 2.65086,0.11021 3.96875,0.15625 -1.30653,-0.04555 -2.63085,-0.11856 -3.9375,-0.18745 -2.49765,-0.13169 -4.04303,-0.2166 -5.59375,-0.34375 z  m 41.8438,3.0312 c -3.06298,0.079 -6.15581,0.14271 -9.21875,0.1875 1.95855,0.052 3.94747,0.0438 5.90625,0 1.0838,-0.0194 2.16784,-0.0649 3.25,-0.0937 0.02101,-0.0377 0.04222,-0.0557 0.0625,-0.0937 z  m -9.2188,.1874 c -0.421795,-0.0112 -0.828307,-0.0121 -1.25,-0.0312 -0.78556,-0.007 -1.55876,0.0305 -2.34375,0.0625 1.20661,0.004 2.38738,-0.0134 3.59375,-0.0312 z  m -20.2188,1.3749 c -1.52829,0.0232 -3.06796,0.0423 -4.59375,0.0937 -3.47422,0.11701 -7.38943,0.31687 -10.875,0.5 -1.24439,0.0669 -2.46981,0.183 -3.71875,0.25 1.23792,-0.0707 2.48302,-0.16207 3.71875,-0.21875 3.48456,-0.1831 7.40189,-0.383 10.875,-0.5 1.53637,-0.0518 3.06001,-0.1023 4.59375,-0.125 z  m 27.25,.8125 c -4.97929,0.0961 -9.95609,0.22026 -14.9375,0.25 4.68144,0.031 9.38372,0.12308 14.0625,0.21875 0.309174,-0.14 0.594101,-0.28417 0.875,-0.46875 z  m -47.375,.0626 c -1.09613,0.0577 -2.15532,0.13713 -3.25,0.1875 0.158056,-0.009 0.31069,0.009 0.46875,0 0.930062,-0.0547 1.84907,-0.13302 2.78125,-0.1875 z  m -2.7812,.1875 c 9.99968,-0.008 19.9686,-0.001 29.9688,0 1.70204,-0.0185 3.42327,-0.0107 5.125,0 -1.69209,0.01 -3.40139,-0.0134 -5.09375,-0.0312 -10.0056,-0.001 -19.9944,0.0234 -30,0.0312 z  m -.4688,0 c -0.09778,-3e-05 -0.185041,-8e-05 -0.28125,0 -0.164984,-5e-05 -0.330976,-0.00014 -0.5,0 -4.17288,0.16711 -8.38724,0.16922 -12.5625,0.21875 -4.40256,0.0305 -8.78393,0.0405 -13.1875,0.0312 0.765739,0.33687 1.58024,0.54468 2.46875,0.5625 0.04456,-0.00019 0.111676,0.00019 0.15625,0 3.40216,-0.0145 6.78603,-0.043 10.1875,-0.125 4.57675,-0.12972 9.1485,-0.41806 13.7188,-0.6875 z "/>
</g>
<path style="opacity:.5;fill:url(#linearGradient3188)" id="rect3728" d="m 12,6 c -3.324,0 -6,2.676 -6,6 v 2 68 2 c 0,0.334721 0.04135,0.6507 0.09375,0.96875 0.0487,0.295596 0.09704,0.596915 0.1875,0.875 0.00988,0.03038 0.020892,0.0636 0.03125,0.09375 0.098865,0.287771 0.23488,0.547452 0.375,0.8125 0.144592,0.273507 0.315616,0.535615 0.5,0.78125 0.184384,0.245635 0.373776,0.473472 0.59375,0.6875 0.439947,0.428056 0.94291,0.814526 1.5,1.09375 0.278545,0.139612 0.573473,0.246947 0.875,0.34375 -0.256202,-0.100222 -0.486711,-0.236272 -0.71875,-0.375 -0.00741,-0.0044 -0.023866,0.0045 -0.03125,0 -0.031933,-0.0193 -0.062293,-0.04251 -0.09375,-0.0625 -0.120395,-0.0767 -0.231023,-0.163513 -0.34375,-0.25 -0.106173,-0.0808 -0.213281,-0.161112 -0.3125,-0.25 -0.17793,-0.161433 -0.34746,-0.345388 -0.5,-0.53125 -0.107579,-0.130255 -0.218394,-0.265285 -0.3125,-0.40625 -0.025089,-0.03838 -0.038446,-0.08587 -0.0625,-0.125 -0.064763,-0.103032 -0.130228,-0.204517 -0.1875,-0.3125 -0.101008,-0.194706 -0.205675,-0.415701 -0.28125,-0.625 -0.00796,-0.02181 -0.023589,-0.04055 -0.03125,-0.0625 -0.0318251,-0.09195 -0.0358045,-0.186831 -0.0625,-0.28125 -0.0303323,-0.106618 -0.0703894,-0.203031 -0.09375,-0.3125 -0.0728786,-0.341512 -0.125,-0.698205 -0.125,-1.0625 v -2 -68 -2 c 0,-2.78185 2.21815,-5 5,-5 h 2 68 2 c 2.78185,0 5,2.21815 5,5 v 2 68 2 c 0,0.364295 -0.05212,0.720988 -0.125,1.0625 -0.04415,0.206893 -0.08838,0.397658 -0.15625,0.59375 -0.0077,0.02195 -0.0233,0.04069 -0.03125,0.0625 -0.06274,0.173739 -0.138383,0.367449 -0.21875,0.53125 -0.04158,0.0828 -0.07904,0.169954 -0.125,0.25 -0.0546,0.09721 -0.126774,0.18835 -0.1875,0.28125 -0.09411,0.140965 -0.204921,0.275995 -0.3125,0.40625 -0.143174,0.17445 -0.303141,0.346998 -0.46875,0.5 -0.01117,0.0102 -0.01998,0.02115 -0.03125,0.03125 -0.138386,0.125556 -0.285091,0.234436 -0.4375,0.34375 -0.102571,0.07315 -0.204318,0.153364 -0.3125,0.21875 -0.0074,0.0045 -0.02384,-0.0044 -0.03125,0 -0.232039,0.138728 -0.462548,0.274778 -0.71875,0.375 0.301527,-0.0968 0.596455,-0.204138 0.875,-0.34375 0.55709,-0.279224 1.06005,-0.665694 1.5,-1.09375 0.219973,-0.214028 0.409366,-0.441865 0.59375,-0.6875 0.184384,-0.245635 0.355408,-0.507743 0.5,-0.78125 0.14012,-0.265048 0.276135,-0.524729 0.375,-0.8125 0.01041,-0.03078 0.02133,-0.06274 0.03125,-0.09375 0.09046,-0.278085 0.1388,-0.579404 0.1875,-0.875 0.0524,-0.31805 0.09375,-0.634029 0.09375,-0.96875 v -2 -68 -2 c 0,-3.324 -2.676,-6 -6,-6 h -72 z "/>
<path style="opacity:.2;fill:url(#radialGradient3619)" id="path3615" d="M 12,90 C 8.676,90 6,87.324 6,84 L 6,82 6,14 6,12 c 0,-0.334721 0.04135,-0.6507 0.09375,-0.96875 0.0487,-0.295596 0.09704,-0.596915 0.1875,-0.875 C 6.29113,10.12587 6.302142,10.09265 6.3125,10.0625 6.411365,9.774729 6.5473802,9.515048 6.6875,9.25 6.8320918,8.976493 7.0031161,8.714385 7.1875,8.46875 7.3718839,8.223115 7.5612765,7.995278 7.78125,7.78125 8.221197,7.353194 8.72416,6.966724 9.28125,6.6875 9.559795,6.547888 9.8547231,6.440553 10.15625,6.34375 9.9000482,6.443972 9.6695391,6.580022 9.4375,6.71875 c -0.00741,0.0044 -0.023866,-0.0045 -0.03125,0 -0.031933,0.0193 -0.062293,0.04251 -0.09375,0.0625 -0.120395,0.0767 -0.2310226,0.163513 -0.34375,0.25 -0.1061728,0.0808 -0.2132809,0.161112 -0.3125,0.25 C 8.4783201,7.442683 8.3087904,7.626638 8.15625,7.8125 8.0486711,7.942755 7.9378561,8.077785 7.84375,8.21875 7.818661,8.25713 7.805304,8.30462 7.78125,8.34375 7.716487,8.446782 7.6510225,8.548267 7.59375,8.65625 7.4927417,8.850956 7.3880752,9.071951 7.3125,9.28125 7.30454,9.30306 7.288911,9.3218 7.28125,9.34375 7.2494249,9.4357 7.2454455,9.530581 7.21875,9.625 7.1884177,9.731618 7.1483606,9.828031 7.125,9.9375 7.0521214,10.279012 7,10.635705 7,11 l 0,2 0,68 0,2 c 0,2.781848 2.2181517,5 5,5 l 2,0 68,0 2,0 c 2.781848,0 5,-2.218152 5,-5 l 0,-2 0,-68 0,-2 C 89,10.635705 88.94788,10.279012 88.875,9.9375 88.83085,9.730607 88.78662,9.539842 88.71875,9.34375 88.71105,9.3218 88.69545,9.30306 88.6875,9.28125 88.62476,9.107511 88.549117,8.913801 88.46875,8.75 88.42717,8.6672 88.38971,8.580046 88.34375,8.5 88.28915,8.40279 88.216976,8.31165 88.15625,8.21875 88.06214,8.077785 87.951329,7.942755 87.84375,7.8125 87.700576,7.63805 87.540609,7.465502 87.375,7.3125 87.36383,7.3023 87.35502,7.29135 87.34375,7.28125 87.205364,7.155694 87.058659,7.046814 86.90625,6.9375 86.803679,6.86435 86.701932,6.784136 86.59375,6.71875 c -0.0074,-0.0045 -0.02384,0.0044 -0.03125,0 -0.232039,-0.138728 -0.462548,-0.274778 -0.71875,-0.375 0.301527,0.0968 0.596455,0.204138 0.875,0.34375 0.55709,0.279224 1.060053,0.665694 1.5,1.09375 0.219973,0.214028 0.409366,0.441865 0.59375,0.6875 0.184384,0.245635 0.355408,0.507743 0.5,0.78125 0.14012,0.265048 0.276135,0.524729 0.375,0.8125 0.01041,0.03078 0.02133,0.06274 0.03125,0.09375 0.09046,0.278085 0.1388,0.579404 0.1875,0.875 C 89.95865,11.3493 90,11.665279 90,12 l 0,2 0,68 0,2 c 0,3.324 -2.676,6 -6,6 l -72,0 z"/>
<rect width="60" x="-78" y="18" rx="5" height="60" ry="5" style="fill:url(#linearGradient3795);fill-rule:evenodd" id="rect3427" transform="matrix(0,-1,1,0,0,0)"/>
<path style="font-family:Abandoned Bitplane;opacity:.4;text-transform:none;text-indent:0;text-align:start;color:#000;stroke-width:3;filter:url(#filter3865);line-height:normal;clip-path:url(#clipPath3853)" id="path2953" d="m -73,46.5 c -3.57505,0 -6.5,2.92495 -6.5,6.5 v 50 c 0,3.57505 2.92495,6.5 6.5,6.5 h 50 c 3.57505,0 6.5,-2.92495 6.5,-6.5 v -50 c 0,-3.57505 -2.92495,-6.5 -6.5,-6.5 h -50 z  m 0,3 50,0 c 1.96495,0 3.5,1.53505 3.5,3.5 v 50 c 0,1.96495 -1.53505,3.5 -3.5,3.5 h -50 c -1.96495,0 -3.5,-1.53505 -3.5,-3.5 v -50 c 0,-1.96495 1.53505,-3.5 3.5,-3.5 z " transform="matrix(0,-1,1,0,-130,0)"/>
<g style="fill-rule:evenodd">
<path style="opacity:.1" id="rect3734" d="m 23,18 c -2.77,0 -5,2.23 -5,5 v 50 c 0,2.77 2.23,5 5,5 h 50 c 2.77,0 5,-2.23 5,-5 v -50 c 0,-2.77 -2.23,-5 -5,-5 h -50 z  m 0,2.0625 50,0 c 1.66124,0 2.9375,1.27625 2.9375,2.9375 v 50 c 0,1.66124 -1.27626,2.9375 -2.9375,2.9375 h -50 c -1.66125,0 -2.9375,-1.27626 -2.9375,-2.9375 v -50 c 0,-1.66125 1.27625,-2.9375 2.9375,-2.9375 z "/>
<path style="opacity:.2" id="rect2955" d="m 23,18 c -2.77,0 -5,2.23 -5,5 v 50 c 0,2.77 2.23,5 5,5 h 50 c 2.77,0 5,-2.23 5,-5 v -50 c 0,-2.77 -2.23,-5 -5,-5 h -50 z  m 0,1.0625 50,0 c 2.19152,0 3.9375,1.74598 3.9375,3.9375 v 50 c 0,2.19152 -1.74598,3.9375 -3.9375,3.9375 h -50 c -2.19152,0 -3.9375,-1.74598 -3.9375,-3.9375 v -50 c 0,-2.19152 1.74598,-3.9375 3.9375,-3.9375 z "/>
</g>
</g>
<g id="layer5">
<rect width="66" x="15" y="15" rx="12" height="66" ry="12" style="opacity:.1;fill:url(#linearGradient3613);filter:url(#filter3794);stroke:#fff;stroke-linecap:round;stroke-width:.5;clip-path:url(#clipPath3613)" id="rect3171"/>
</g>
<g id="layer3">
<path style="fill:#c2dca8;font-family:Field Day Filter;text-align:start;stroke:none;line-height:125%;font-size:28px" id="text5124" d="m 33.872,41.1364 -.1923,3.077 c -0.455861,9e-06 -1.22511,0.007 -2.30775,0.02136 -1.01143,0.0285 -1.78068,0.04275 -2.30775,0.04274 -0.854728,9e-06 -1.62398,-0.02849 -2.30775,-0.08548 l -.0641,1.4958 c 1.79491,-0.08547 3.09837,-0.320512 3.91036,-0.705145 l .3633,2.9274 c -0.954449,0.470109 -2.49295,0.755016 -4.61551,0.85473 l -.2564,1.1325 h 0.811986 c 2.12256,3e-06 4.31634,0.05698 6.58137,0.170944 l -.2564,3.077 c -2.15106,-0.113963 -4.77933,-0.170945 -7.88482,-0.170945 -0.897459,0 -1.34619,-0.555569 -1.34619,-1.66671 0,-0.284907 0.156699,-1.23222 0.470097,-2.84195 0.142453,-0.641036 0.235048,-1.47439 0.277785,-2.50006 0.05698,-1.51 0.0926,-2.34336 0.10684,-2.50006 0.07122,-0.726504 0.156699,-1.22509 0.256418,-1.49577 0.199433,-0.541312 0.562691,-0.811974 1.08977,-0.811986 0.24217,1.2e-05 0.612549,0.03562 1.11114,0.106839 0.498584,0.07123 0.868965,0.106852 1.11114,0.106842 0.612546,1e-05 1.52425,-0.03561 2.73511,-0.106842 1.22509,-0.08546 2.12968,-0.128196 2.71374,-0.128208 m 7.4341,2.4573 -.3633,3.077 c -1.18237,-0.11395 -2.89894,-0.270649 -5.14971,-0.470092 l .2992,-3.077 c 1.18237,0.08548 2.9203,0.242182 5.21381,0.470099 m .1709,3.889 -.2778,3.077 c -1.48152,-0.113961 -2.4787,-0.170942 -2.99153,-0.170944 -1.08265,2e-06 -2.03709,0.113965 -2.86332,0.341888 l -.1282,-3.0343 c 0.911703,-0.256411 1.96586,-0.38462 3.16248,-0.384626 0.612547,6e-06 1.64534,0.05698 3.09837,0.170945 m 11.3281,1.3462 c -1.2e-05,0.59831 -0.04275,1.36044 -0.128209,2.28638 -0.113973,1.26784 -0.178078,2.02284 -0.192312,2.26502 h -1.88039 c 0.01423,-0.1567 0.09259,-0.804864 0.235047,-1.9445 0.09971,-0.797739 0.149568,-1.45303 0.149577,-1.96586 -9e-06,-1.56699 -0.427369,-2.35048 -1.28209,-2.35049 -0.398877,7e-06 -0.890341,0.163829 -1.4744,0.491467 0.113958,0.726519 0.170938,1.53138 0.170945,2.41459 -7e-06,0.569818 -0.05698,1.77355 -0.170945,3.6112 h -1.88039 c 0.11396,-1.76643 0.170941,-2.90606 0.170945,-3.41889 -4e-06,-1.13963 -0.106844,-1.93737 -0.320521,-2.39323 -0.142458,-0.05697 -0.284912,-0.08547 -0.427363,-0.08548 -0.541325,6e-06 -0.990056,0.277791 -1.34619,0.833355 -0.05698,1.70945 -0.299156,3.51861 -0.726514,5.42749 l -1.7308,-.7692 c 0.242171,-1.15387 0.420237,-2.52855 0.534201,-4.12404 0.07122,-1.3818 0.149577,-2.7636 0.235048,-4.14541 h 1.88039 l -.0214,.1282 c 0.512831,-0.256409 1.0043,-0.384617 1.4744,-0.384626 0.470095,9e-06 0.85472,0.13534 1.15388,0.405994 0.797736,-0.68377 1.73081,-1.02566 2.79922,-1.02567 1.85189,9e-06 2.77784,1.58125 2.77785,4.74371 m 12.2412,-3.9745 -.4487,3.0343 c -1.66672,-0.398865 -4.02433,-0.598301 -7.07283,-0.598307 -1.02567,6e-06 -1.51001,0.612558 -1.45303,1.83765 l .0427,.6838 c 1.36755,0.44161 2.67813,0.662413 3.93173,0.66241 0.527073,3e-06 1.78779,-0.09259 3.78215,-0.277784 l -.1282,3.077 c -2.67814,0.156699 -4.37334,0.235049 -5.0856,0.235049 -1.4103,0 -2.46445,-0.235049 -3.16248,-0.705146 -0.840477,-0.58406 -1.26072,-1.54562 -1.26072,-2.88469 0,-1.51001 0.220804,-2.74935 0.662411,-3.71805 0.598304,-1.32481 1.55274,-1.98722 2.86332,-1.98723 3.09124,9e-06 5.53432,0.213689 7.32925,0.641043 m 6.9536,-1.9399 c -6e-06,1.3004 -0.380053,2.10628 -1.14014,2.41764 -0.119056,0.04579 -0.883728,0.119056 -2.29402,0.219787 -0.915778,0.0641 -1.48813,0.444153 -1.71708,1.14014 0.329678,-0.0092 0.874563,-0.04579 1.63466,-0.109894 0.695986,-0.0641 1.24087,-0.09616 1.63466,-0.09616 0.63188,2e-06 1.19508,0.06868 1.68961,0.20605 l -.2885,1.9643 c -0.412106,-0.09158 -0.915781,-0.137367 -1.51103,-0.137367 -0.393788,0 -0.979883,0.02748 -1.75829,0.08243 -0.769253,0.05495 -1.35077,0.08242 -1.74455,0.08242 -0.357152,0 -0.618146,-0.2381 -0.782987,-0.714304 -0.11905,-0.338835 -0.178574,-0.737197 -0.178575,-1.19509 1e-06,-1.21798 0.325098,-2.04675 0.975298,-2.48633 0.412099,-0.274727 1.12182,-0.439567 2.12918,-0.494518 1.05314,-0.05494 1.75828,-0.18315 2.11544,-0.384626 0.04578,-0.494512 -0.421261,-0.741771 -1.40114,-0.741777 -0.467048,6e-06 -1.05314,0.06411 -1.75829,0.192313 -0.760092,0.137371 -1.32787,0.297632 -1.70334,0.480781 l -.2335,-1.8957 c 1.07146,-0.521985 2.22991,-0.782981 3.47537,-0.782988 0.833348,7e-06 1.49729,0.160269 1.99181,0.480781 0.576934,0.384633 0.8654,0.975307 0.865407,1.77202"/>
<g style="fill:none;stroke-linejoin:round;stroke-width:11.856;stroke-linecap:round">
<path style="stroke-opacity:.291;filter:url(#filter4005);stroke:url(#linearGradient3950)" id="path5141" d="m 30.75,40.7617 c 3.56554,-4.63488 7.27595,-9.16914 11.0324,-13.6372 1.45229,-2.11402 3.25238,-7.76158 5.34963,-6.72297 -0.306666,3.93446 -2.22192,7.53437 -2.56703,11.4781 -0.780494,4.22065 -1.47078,8.46672 -1.77359,12.7518 1.65663,4.24225 5.71417,-0.805782 6.55312,-3.18019 4.23486,-7.13377 5.1719,-15.9812 10.7989,-22.3264 3.82539,-5.77563 6.78181,-12.114 11.0716,-17.5823 2.64891,3.82531 -1.26241,7.94098 -0.792921,11.9793 -2.13941,13.4559 -3.80537,27.0382 -7.46135,40.1931 -0.773785,4.30242 4.93341,4.51264 5.81063,0.780482 9.84349,-11.151 14.7939,-25.4523 19.6376,-39.2455 1.27709,-2.85644 0.715912,-6.69449 3.47377,-8.75592 1.51931,4.54014 0.500562,9.40082 0.492909,14.0726 -0.729533,6.87097 -2.97928,13.4594 -4.11201,20.2612 -0.155202,0.648712 -0.324387,1.29418 -0.513653,1.93383" transform="matrix(0.67476106,0,0,0.67476106,5.001097,25.72406)"/>
<path style="opacity:.2;filter:url(#filter4009);stroke:url(#linearGradient5169-4)" id="path5161" d="m 43.75,46.75 c 0,-0.333333 0,-0.333333 0,0 0,12.2636 1.37371,-7.73964 2,-12.75 1.46651,-11.7321 4.56745,-30.5675 12.75,-38.75 1.62743,-1.62743 0.510796,7.94602 -1,15.5 -0.151043,0.755214 -10.9466,53.3755 -2,32.5 5.80452,-13.5439 14.533,-25.066 21,-38 0.484481,-0.968963 0,2.16667 0,3.25 0,12.6186 -0.641136,27.6652 0.25,39.25 0.24277,3.15601 1.14872,-5.79743 3.5,-10.5 0.305508,-0.611016 13.75,-32.1936 13.75,-18 0,9 0,18 0,27" transform="matrix(0.67476106,0,0,0.67476106,5.001097,25.72406)"/>
</g>
</g>
</svg>
