<svg width="96" version="1.0" xmlns="http://www.w3.org/2000/svg" height="96" xmlns:xlink="http://www.w3.org/1999/xlink">
<defs id="defs2410">
<clipPath id="clipPath3613">
<rect width="84" x="6" y="6" rx="6" height="84" ry="6" style="fill:#fff;stroke:none" id="rect3615"/>
</clipPath>
<clipPath id="clipPath3867">
<path style="fill:#fff;stroke:none" id="path3869" d="m 115.7812,6 c -5.78119,3.11231 -9.71875,9.22515 -9.71875,16.25 0,10.1815 8.25597,18.4375 18.4375,18.4375 10.1815,0 18.4375,-8.25597 18.4375,-18.4375 0,-7.02485 -3.93756,-13.1377 -9.71875,-16.25 h -17.4375 z  m 24.7812,0 c 4.09802,4.12935 6.625,9.81887 6.625,16.0938 0,12.6127 -10.231,22.8438 -22.8438,22.8438 -7.50479,1e-06 -14.179,-3.62782 -18.3438,-9.21875 v 7.875 l .2188,-.1562 .4375,-.5312 2.1875,1.6875 -.4062,.5625 -.625,1.75 -.375,2.7188 1.5625,.875 2.1562,-1.6562 1.1875,-1.4375 .3125,-.625 2.5312,1.0625 -.25,.6562 -.1562,1.8438 .375,2.7188 1.7188,.4688 1.6875,-2.1875 .75,-1.6875 .125,-.6875 2.75,.375 -.0625,.6562 .2812,1.8438 1.0625,2.5312 h 1.78125 l 1.0625,-2.5312 .3125,-1.8438 -.0625,-.6562 2.7188,-.375 .125,.6875 .7812,1.6875 1.6562,2.1875 1.7188,-.4688 .375,-2.7188 -.1875,-1.8438 -.2188,-.6562 2.5312,-1.0625 .3125,.625 1.1562,1.4375 2.1875,1.6562 1.5312,-.875 -.3438,-2.7188 -.6562,-1.75 -.375,-.5625 2.1875,-1.6875 .4375,.5312 1.5,1.0625 2.5625,1.0625 1.25,-1.2812 -1.0625,-2.5312 -1.0625,-1.5 -.5312,-.4375 1.6875,-2.1875 .5625,.375 1.75,.6562 2.7188,.3438 .875,-1.5312 -1.6562,-2.1875 -1.4375,-1.1875 -.625,-.25 1.0625,-2.5625 .6562,.2188 1.8438,.1875 2.7188,-.375 .4375,-1.7188 -2.1562,-1.6875 -1.6875,-.75 -.6875,-.125 .375,-2.75 .6875,.0625 1.8125,-.3125 2.5312,-1.0312 v -1.78125 l -2.5312,-1.0625 -1.8125,-.3125 -.6875,.0625 -.375,-2.75 .6875,-.125 1.6875,-.75 2.1562,-1.6875 -.4375,-1.7188 -2.7188,-.3438 -1.8438,.1562 -.6562,.25 -1.0625,-2.5625 .625,-.2812 1.4375,-1.1875 1.6562,-2.1562 -.4062,-.75 h -4.4375 l -.5,.1875 -.5625,.4062 -.4688,-.5938 h -5.8125 z  m -16.0625,2.625 c 7.53154,0 13.625,6.09346 13.625,13.625 0,7.53154 -6.09346,13.6562 -13.625,13.6562 -7.53154,0 -13.6562,-6.12471 -13.6562,-13.6562 0,-7.53154 6.12471,-13.625 13.6562,-13.625 z  m 43.5938,28.2188 -1.1875,2.8125 -.3438,2 .0625,.7812 -3.0312,.375 -.125,-.7188 -.8438,-1.875 -1.875,-2.4062 -1.875,.5 -.4062,3 .1875,2.0625 .25,.6875 -2.8125,1.1875 -.3125,-.6875 -1.3125,-1.5938 -2.4375,-1.8438 -1.6875,1 .4062,3.0312 .6875,1.875 .4375,.6562 -2.4062,1.8438 -.5,-.5625 l -1.6562,-1.2188 -2.8125,-1.125 -1.4062,1.375 1.1562,2.8125 1.1875,1.6562 .5938,.5 -1.875,2.4375 -.625,-.4375 -1.9062,-.7188 -3,-.4062 -1,1.7188 1.8438,2.4062 1.5938,1.3125 .6562,.3125 -1.1562,2.8125 -.7188,-.25 -2.0312,-.1875 -3,.4062 -.5312,1.9062 2.4062,1.8438 1.875,.8438 .75,.1562 -.4062,3.0312 -.75,-.0625 -2.0312,.3125 -2.8125,1.1875 v 1.96875 l 2.8125,1.1562 2.0312,.3438 .75,-.0625 .4062,3.0312 -.75,.1562 -1.875,.8125 -2.4062,1.875 .5312,1.9062 3,.4062 2.0312,-.2188 .7188,-.25 1.1562,2.8125 -.6562,.3438 -1.5938,1.2812 -1.8438,2.4375 .25,.4062 h 5.9375 l .3438,-.25 .1875,.25 h 6.21875 c -1.29523,-1.37524 -2.43984,-2.89465 -3.40625,-4.53125 l 10.9062,-5 c 2.31639,3.21748 6.01482,5.38221 10.2188,5.625 l .5312,3.9062 h 5.21875 l -.625,-4.5938 c 3.78803,-1.2847 6.83138,-4.19746 8.28125,-7.90625 l 8.3125,1.5312 v -5.28125 l -7.375,-1.3438 c -0.0504,-4.23358 -2.06895,-7.98615 -5.15625,-10.4375 l 5.5,-10.6562 c 2.76801,1.81369 5.15704,4.15705 7.03125,6.875 v -9.84375 l -.8438,.625 -.5,.5625 -2.4062,-1.8438 .4062,-.6562 .75,-1.875 .375,-3.0312 -1.7188,-1 -2.4062,1.8438 -1.2812,1.5938 -.3438,.6875 -2.8125,-1.1875 .25,-.6875 .2188,-2.0625 -.4375,-3 -1.875,-.5 -1.875,2.4062 -.8438,1.875 -.125,.7188 -3.0312,-.375 .0625,-.7812 -.3438,-2 -1.1562,-2.8125 h -1.96875 z  m .9688,10.3125 c 3.2847,0 6.43014,0.645954 9.3125,1.78125 l -5.5,10.625 c -1.20945,-0.35429 -2.48898,-0.53125 -3.8125,-0.53125 -2.62433,0 -5.08015,0.738068 -7.15625,2.03125 l -8.1562,-8.7812 c 4.26057,-3.21715 9.56672,-5.125 15.3125,-5.125 z  m -48.75,6.3125 -.9688,2.0938 -.0625,.7188 .1875,1.25 -2.25,.5938 -.4375,-1.1875 -.4375,-.5938 l -1.8438,-1.3438 -1.0938,.625 .2188,2.2812 .3125,.6562 .7812,1 -1.625,1.625 -1,-.7812 -.6562,-.3125 -2.2812,-.2188 -.625,1.0625 1.3438,1.8438 .5938,.4375 1.1562,.4688 -.5938,2.2188 -1.25,-.1875 -.75,.0625 -2.0625,.9375 v 1.25 l 2.0625,.9375 .75,.0625 1.25,-.1562 .5938,2.2188 -1.1875,.4688 -.5938,.4062 -1.3438,1.875 .5938,1.0625 2.2812,-.2188 .6875,-.3125 1,-.7812 1.625,1.625 -.8125,1 -.3125,.6875 -.2188,2.25 1.0625,.625 1.875,-1.3125 .4062,-.5938 .5,-1.1875 2.2188,.5938 -.1875,1.25 .0625,.75 .9375,2.0938 h 1.21875 l .9688,-2.0938 .0625,-.7188 -.1875,-1.2812 2.2188,-.5625 .4688,1.1562 .4375,.625 1.8438,1.3125 1.0625,-.5938 -.2188,-2.2812 -.2812,-.6562 -.7812,-1 1.625,-1.625 1,.7812 .6562,.3125 2.2812,.2188 .625,-1.0625 -1.3438,-1.8438 -.5938,-.4375 -1.1875,-.4688 .625,-2.2188 1.25,.1875 .7188,-.0625 2.0938,-.9375 v -1.25 l -2.0625,-.9375 -.75,-.0938 -1.25,.1875 -.5938,-2.2188 1.1875,-.4688 .5938,-.4375 1.3438,-1.8438 -.625,-1.0625 -2.25,.2188 -.6875,.3125 -1,.7812 -1.625,-1.6562 .8125,-.9688 .2812,-.6875 .25,-2.25 -1.0625,-.625 -1.875,1.3125 -.4375,.5938 -.4688,1.1875 -2.2188,-.5938 .1875,-1.2812 -.0625,-.7188 -.9375,-2.0938 h -1.21875 z  m 29.625,2.3438 8.1562,8.7812 c -1.63565,2.23928 -2.59375,4.98537 -2.59375,7.96875 0,1.10137 0.15791,2.19336 0.40625,3.21875 l -10.9062,4.9688 c -0.87766,-2.57354 -1.375,-5.31881 -1.375,-8.1875 0,-6.42078 2.37994,-12.2752 6.3125,-16.75 z  m -29.0938,8.375 c 1.81315,0 3.28125,1.4681 3.28125,3.28125 0,1.81315 -1.4681,3.28125 -3.28125,3.28125 -1.81315,0 -3.28125,-1.4681 -3.28125,-3.28125 0,-1.81315 1.4681,-3.28125 3.28125,-3.28125 z  m 48.2188,3.2812 c 2.78946,0 5.0625,2.24179 5.0625,5.03125 0,2.78946 -2.27304,5.0625 -5.0625,5.0625 -2.78946,0 -5.03125,-2.27304 -5.03125,-5.0625 0,-2.78946 2.24179,-5.03125 5.03125,-5.03125 z "/>
</clipPath>
<clipPath id="clipPath3836">
<path style="fill:#fff;stroke:none" id="path3838" d="m 112,6 c -3.324,0 -6,2.676 -6,6 v 23.7188 c 4.16476,5.59093 10.839,9.21875 18.3438,9.21875 12.6127,0 22.8438,-10.231 22.8438,-22.8438 0,-6.27488 -2.52698,-11.9644 -6.625,-16.0938 h -7.34375 c 5.78119,3.11231 9.71875,9.22515 9.71875,16.25 0,10.1815 -8.25597,18.4375 -18.4375,18.4375 -10.1815,0 -18.4375,-8.25597 -18.4375,-18.4375 0,-7.02485 3.93756,-13.1377 9.71875,-16.25 h -3.78125 z  m 34.375,0 .4688,.5938 .5625,-.4062 .5,-.1875 -1.5312,0 z  m 5.9688,0 .4062,.75 -1.6562,2.1562 -1.4375,1.1875 -.625,.2812 1.0625,2.5625 .6562,-.25 1.8438,-.1562 2.7188,.3438 .4375,1.7188 -2.1562,1.6875 -1.6875,.75 -.6875,.125 .375,2.75 .6875,-.0625 1.8125,.3125 2.5312,1.0625 0,1.7812 -2.5312,1.0312 -1.8125,.3125 -.6875,-.0625 -.375,2.75 .6875,.125 1.6875,.75 2.1562,1.6875 -.4375,1.7188 -2.7188,.375 l -1.8438,-.1875 -.6562,-.2188 -1.0625,2.5625 .625,.25 1.4375,1.1875 1.6562,2.1875 -.875,1.5312 -2.7188,-.3438 -1.75,-.6562 -.5625,-.375 -1.6875,2.1875 .5312,.4375 1.0625,1.5 1.0625,2.5312 -1.25,1.2812 -2.5625,-1.0625 -1.5,-1.0625 -.4375,-.5312 -2.1875,1.6875 .375,.5625 .6562,1.75 .3438,2.7188 -1.5312,.875 -2.1875,-1.6562 -1.1562,-1.4375 -.3125,-.625 -2.5312,1.0625 .2188,.6562 .1875,1.8438 -.375,2.7188 -1.7188,.4688 -1.6562,-2.1875 -.7812,-1.6875 -.125,-.6875 -2.7188,.375 .0625,.6562 -.3125,1.8438 -1.0625,2.5312 h -1.78125 l -1.0625,-2.5312 -.2812,-1.8438 .0625,-.6562 -2.75,-.375 -.125,.6875 -.75,1.6875 -1.6875,2.1875 -1.7188,-.4688 -.375,-2.7188 .1562,-1.8438 .25,-.6562 -2.5312,-1.0625 -.3125,.625 -1.1875,1.4375 -2.1562,1.6562 -1.5625,-.875 .375,-2.7188 .625,-1.75 .4062,-.5625 -2.1875,-1.6875 -.4375,.5312 -.2188,.1562 v 40.4062 c 0,3.324 2.676,6 6,6 h 25.875 l -.25,-.4062 1.8438,-2.4375 1.5938,-1.2812 .6562,-.3438 -1.1562,-2.8125 -.7188,.25 -2.0312,.2188 -3,-.4062 -.5312,-1.9062 2.4062,-1.875 1.875,-.8125 .75,-.1562 -.4062,-3.0312 -.75,.0625 -2.0312,-.3438 -2.8125,-1.1562 v -1.96875 l 2.8125,-1.1875 2.0312,-.3125 .75,.0625 .4062,-3.0312 -.75,-.1562 -1.875,-.8438 -2.4062,-1.8438 .5312,-1.9062 3,-.4062 2.0312,.1875 .7188,.25 1.1562,-2.8125 -.6562,-.3125 -1.5938,-1.3125 -1.8438,-2.4062 1,-1.7188 3,.4062 1.9062,.7188 .625,.4375 1.875,-2.4375 -.5938,-.5 -1.1875,-1.6562 -1.1562,-2.8125 1.4062,-1.375 2.8125,1.125 1.6562,1.2188 .5,.5625 2.4062,-1.8438 -.4375,-.6562 -.6875,-1.875 -.4062,-3.0312 1.6875,-1 2.4375,1.8438 1.3125,1.5938 .3125,.6875 2.8125,-1.1875 -.25,-.6875 -.1875,-2.0625 .4062,-3 1.875,-.5 1.875,2.4062 .8438,1.875 .125,.7188 3.0312,-.375 -.0625,-.7812 .3438,-2 1.1875,-2.8125 h 1.96875 l 1.1562,2.8125 .3438,2 -.0625,.7812 3.0312,.375 .125,-.7188 .8438,-1.875 1.875,-2.4062 1.875,.5 .4375,3 -.2188,2.0625 -.25,.6875 2.8125,1.1875 .3438,-.6875 1.2812,-1.5938 2.4062,-1.8438 1.7188,1 -.375,3.0312 -.75,1.875 -.4062,.6562 2.4062,1.8438 .5,-.5625 .8438,-.625 v -36.3438 c 0,-3.324 -2.676,-6 -6,-6 h -31.6562 z  m -27.8438,2.625 c -7.53154,0 -13.6562,6.09346 -13.6562,13.625 0,7.53154 6.12471,13.6562 13.6562,13.6562 7.53154,0 13.625,-6.12471 13.625,-13.6562 0,-7.53154 -6.09346,-13.625 -13.625,-13.625 z  m 44.5625,38.5312 c -5.74578,0 -11.0519,1.90785 -15.3125,5.125 l 8.1562,8.7812 c 2.0761,-1.29318 4.53192,-2.03125 7.15625,-2.03125 1.32352,0 2.60305,0.17696 3.8125,0.53125 l 5.5,-10.625 c -2.88236,-1.1353 -6.0278,-1.78125 -9.3125,-1.78125 z  m 13.9062,4.1562 -5.5,10.6562 c 3.0873,2.45135 5.10585,6.20392 5.15625,10.4375 l 7.375,1.3438 v -15.5625 c -1.87421,-2.71795 -4.26324,-5.06131 -7.03125,-6.875 z  m -62.6562,2.1562 1.2188,0 .9375,2.0938 .0625,.7188 -.1875,1.2812 2.2188,.5938 .4688,-1.1875 .4375,-.5938 1.875,-1.3125 1.0625,.625 -.25,2.25 -.2812,.6875 -.8125,.9688 1.625,1.6562 1,-.7812 .6875,-.3125 2.25,-.2188 .625,1.0625 -1.3438,1.8438 -.5938,.4375 -1.1875,.4688 .5938,2.2188 1.25,-.1875 .75,.0938 2.0625,.9375 0,1.25 -2.0938,.9375 -.7188,.0625 -1.25,-.1875 -.625,2.2188 1.1875,.4688 .5938,.4375 1.3438,1.8438 -.625,1.0625 -2.2812,-.2188 -.6562,-.3125 -1,-.7812 -1.625,1.625 .7812,1 .2812,.6562 .2188,2.2812 -1.0625,.5938 -1.8438,-1.3125 -.4375,-.625 -.4688,-1.1562 -2.2188,.5625 .1875,1.2812 -.0625,.7188 -.9688,2.0938 -1.2188,0 -.9375,-2.0938 -.0625,-.75 .1875,-1.25 -2.2188,-.5938 -.5,1.1875 -.4062,.5938 -1.875,1.3125 -1.0625,-.625 .2188,-2.25 .3125,-.6875 .8125,-1 -1.625,-1.625 -1,.7812 -.6875,.3125 -2.2812,.2188 -.5938,-1.0625 1.3438,-1.875 .5938,-.4062 1.1875,-.4688 -.5938,-2.2188 -1.25,.1562 -.75,-.0625 -2.0625,-.9375 0,-1.25 2.0625,-.9375 .75,-.0625 1.25,.1875 .5938,-2.2188 -1.1562,-.4688 -.5938,-.4375 -1.3438,-1.8438 .625,-1.0625 2.2812,.2188 .6562,.3125 1,.7812 1.625,-1.625 -.7812,-1 l -.3125,-.6562 -.2188,-2.2812 1.0938,-.625 1.8438,1.3438 .4375,.5938 .4375,1.1875 2.25,-.5938 -.1875,-1.25 .0625,-.7188 .9688,-2.0938 z  m 29.625,2.3438 c -3.93256,4.47484 -6.3125,10.3292 -6.3125,16.75 0,2.86869 0.49734,5.61396 1.375,8.1875 l 10.9062,-4.9688 c -0.24834,-1.02539 -0.40625,-2.11738 -0.40625,-3.21875 0,-2.98338 0.9581,-5.72947 2.59375,-7.96875 l -8.1562,-8.7812 z  m -29.0938,8.375 c -1.81315,0 -3.28125,1.4681 -3.28125,3.28125 0,1.81315 1.4681,3.28125 3.28125,3.28125 1.81315,0 3.28125,-1.4681 3.28125,-3.28125 0,-1.81315 -1.4681,-3.28125 -3.28125,-3.28125 z  m 48.2188,3.2812 c -2.78946,0 -5.03125,2.24179 -5.03125,5.03125 0,2.78946 2.24179,5.0625 5.03125,5.0625 2.78946,0 5.0625,-2.27304 5.0625,-5.0625 0,-2.78946 -2.27304,-5.03125 -5.0625,-5.03125 z  m 12.625,10.0312 c -1.44987,3.70879 -4.49322,6.62155 -8.28125,7.90625 l .625,4.5938 h 9.96875 c 3.324,0 6,-2.676 6,-6 v -4.96875 l -8.3125,-1.5312 z  m -23.625,2.9688 -10.9062,5 c 0.96641,1.6366 2.11102,3.15601 3.40625,4.53125 h 18.25 l -.5312,-3.9062 c -4.20392,-0.242792 -7.90236,-2.40752 -10.2188,-5.625 z  m -13.9062,9.2812 -.3438,.25 h 0.53125 l -.1875,-.25 z "/>
</clipPath>
<filter width="1.3839999" x="-0.192" y="-0.192" height="1.3839999" style="color-interpolation-filters:sRGB" id="filter3794">
<feGaussianBlur stdDeviation="5.28" id="feGaussianBlur3796"/>
</filter>
<filter width="1.24" x="-0.12" y="-0.12" height="1.24" style="color-interpolation-filters:sRGB" id="filter3879">
<feGaussianBlur stdDeviation="4.2" id="feGaussianBlur3881"/>
</filter>
<filter style="color-interpolation-filters:sRGB" id="filter3174">
<feGaussianBlur stdDeviation="1.71" id="feGaussianBlur3176"/>
</filter>
<filter style="color-interpolation-filters:sRGB" id="filter3875">
<feGaussianBlur stdDeviation="0.42" id="feGaussianBlur3877"/>
</filter>
<linearGradient gradientTransform="matrix(1.0058652,0,0,0.994169,100,0)" id="ButtonShadow-0" y1="92.539597" x1="45.447727" y2="7.0165396" x2="45.447727" gradientUnits="userSpaceOnUse">
<stop offset="0" id="stop3750-8"/>
<stop offset="1" style="stop-opacity:.588" id="stop3752-5"/>
</linearGradient>
<linearGradient gradientTransform="translate(0,-97)" id="linearGradient3721" xlink:href="#ButtonShadow-0" y1="6.1317081" x1="32.251034" y2="90.238609" x2="32.251034" gradientUnits="userSpaceOnUse"/>
<linearGradient gradientTransform="matrix(1.0238095,0,0,1.0119048,-1.1428571,-98.071429)" id="linearGradient3725" xlink:href="#ButtonShadow-0" y1="6.1317081" x1="32.251034" y2="90.238609" x2="32.251034" gradientUnits="userSpaceOnUse"/>
<linearGradient gradientTransform="matrix(1.0238095,0,0,1.0119048,-1.1428571,-98.071429)" id="linearGradient3780" xlink:href="#ButtonShadow-0" y1="6.1317081" x1="32.251034" y2="90.238609" x2="32.251034" gradientUnits="userSpaceOnUse"/>
<linearGradient gradientTransform="matrix(1.0238095,0,0,1.0119048,-1.1428571,-98.071429)" id="linearGradient3772" xlink:href="#ButtonShadow-0" y1="6.1317081" x1="32.251034" y2="90.238609" x2="32.251034" gradientUnits="userSpaceOnUse"/>
<linearGradient gradientTransform="matrix(1.0172414,0,0,1.0172414,-1.1034483,-1.1034483)" id="linearGradient3848" y1="122" x1="58.650177" y2="5.4252338" x2="58.650177" gradientUnits="userSpaceOnUse">
<stop offset="0" style="stop-color:#b14500" id="stop3850"/>
<stop offset="1" style="stop-color:#ef8d00" id="stop3852"/>
</linearGradient>
<linearGradient id="linearGradient3846" xlink:href="#linearGradient3848" y1="90" x1="57.51778" y2="5.5969558" x2="57.51778" gradientUnits="userSpaceOnUse"/>
<linearGradient id="linearGradient3188" xlink:href="#linearGradient3737" y1="6" x1="36.357143" y2="63.893143" x2="36.357143" gradientUnits="userSpaceOnUse"/>
<linearGradient gradientTransform="scale(1.0058652,0.994169)" id="ButtonShadow" y1="92.539597" x1="45.447727" y2="7.0165396" x2="45.447727" gradientUnits="userSpaceOnUse">
<stop offset="0" id="stop3750"/>
<stop offset="1" style="stop-opacity:.588" id="stop3752"/>
</linearGradient>
<linearGradient id="linearGradient3737">
<stop offset="0" style="stop-color:#fff" id="stop3739"/>
<stop offset="1" style="stop-color:#fff;stop-opacity:0" id="stop3741"/>
</linearGradient>
<linearGradient id="linearGradient3613" xlink:href="#linearGradient3737" y1="20.220806" x1="48" y2="138.66119" x2="48" gradientUnits="userSpaceOnUse"/>
<linearGradient gradientTransform="matrix(1.0172414,0,0,1.0172414,-1.1034483,-1.1034483)" id="ButtonColor" y1="122" x1="58.650177" y2="5.4252338" x2="58.650177" gradientUnits="userSpaceOnUse">
<stop offset="0" style="stop-color:#d85400" id="stop3401"/>
<stop offset="1" style="stop-color:#ffa119" id="stop3403"/>
</linearGradient>
<linearGradient gradientTransform="matrix(1.0238095,0,0,1.0119048,-1.1428571,-98.071429)" id="linearGradient3811" xlink:href="#ButtonShadow-0" y1="6.1317081" x1="32.251034" y2="90.238609" x2="32.251034" gradientUnits="userSpaceOnUse"/>
<linearGradient id="linearGradient3617" xlink:href="#ButtonColor" y1="90" x1="48" y2="5.9877172" x2="48" gradientUnits="userSpaceOnUse"/>
<radialGradient fx="48" fy="90.171875" cx="48" cy="90.171875" gradientTransform="matrix(1.1573129,0,0,0.99590774,-7.5510206,0.19713193)" r="42" id="radialGradient3619" xlink:href="#linearGradient3737" gradientUnits="userSpaceOnUse"/>
</defs>
<g style="display:none" id="layer2">
<rect width="86" x="5" y="7" rx="6" height="85" ry="6" style="opacity:.9;fill:url(#ButtonShadow);filter:url(#filter3174);stroke:none" id="rect3745"/>
</g>
<g style="stroke:none" id="layer4">
<path style="opacity:.08;fill:url(#linearGradient3811)" id="path3786-2" d="m 12,-95.0312 c -5.51109,0 -10.0312,4.52016 -10.0312,10.0312 v 71 c 0,5.51109 4.52016,10.0312 10.0312,10.0312 h 72 c 5.51109,0 10.0312,-4.52016 10.0312,-10.0312 v -71 c 0,-5.51109 -4.52016,-10.0312 -10.0312,-10.0312 h -72 z " transform="scale(1,-1)"/>
<path style="opacity:.1;fill:url(#linearGradient3780)" id="path3778" d="m 12,-94.0312 c -4.97163,0 -9.03125,4.05962 -9.03125,9.03125 v 71 c 0,4.97163 4.05962,9.03125 9.03125,9.03125 h 72 c 4.97163,0 9.03125,-4.05962 9.03125,-9.03125 v -71 c 0,-4.97163 -4.05962,-9.03125 -9.03125,-9.03125 h -72 z " transform="scale(1,-1)"/>
<path style="opacity:.2;fill:url(#linearGradient3772)" id="path3770" d="m 12,-93 c -4.40913,0 -8,3.59087 -8,8 v 71 c 0,4.40913 3.59087,8 8,8 h 72 c 4.40913,0 8,-3.59087 8,-8 v -71 c 0,-4.40913 -3.59087,-8 -8,-8 h -72 z " transform="scale(1,-1)"/>
<rect width="86" x="5" y="-92" rx="7" height="85" ry="7" style="opacity:.3;fill:url(#linearGradient3725)" id="rect3723" transform="scale(1,-1)"/>
<rect width="84" x="6" y="-91" rx="6" height="84" ry="6" style="opacity:.45;fill:url(#linearGradient3721)" id="rect3716" transform="scale(1,-1)"/>
</g>
<g id="layer1">
<rect width="84" x="6" y="6" rx="6" height="84" ry="6" style="fill:url(#linearGradient3617);stroke:none" id="rect2419"/>
</g>
<g id="layer3">
<g style="stroke:none">
<path style="opacity:.5;fill:#ffc855;filter:url(#filter3879);clip-path:url(#clipPath3836)" id="path3830" d="m 115.7812,6 c -5.78119,3.11231 -9.71875,9.22515 -9.71875,16.25 0,10.1815 8.25597,18.4375 18.4375,18.4375 10.1815,0 18.4375,-8.25597 18.4375,-18.4375 0,-7.02485 -3.93756,-13.1377 -9.71875,-16.25 h -17.4375 z  m 24.7812,0 c 4.09802,4.12935 6.625,9.81887 6.625,16.0938 0,12.6127 -10.231,22.8438 -22.8438,22.8438 -7.50479,1e-06 -14.179,-3.62782 -18.3438,-9.21875 v 7.875 l .2188,-.1562 .4375,-.5312 2.1875,1.6875 -.4062,.5625 -.625,1.75 -.375,2.7188 1.5625,.875 2.1562,-1.6562 1.1875,-1.4375 .3125,-.625 2.5312,1.0625 -.25,.6562 -.1562,1.8438 .375,2.7188 1.7188,.4688 1.6875,-2.1875 .75,-1.6875 .125,-.6875 2.75,.375 -.0625,.6562 .2812,1.8438 1.0625,2.5312 h 1.78125 l 1.0625,-2.5312 .3125,-1.8438 -.0625,-.6562 2.7188,-.375 .125,.6875 .7812,1.6875 1.6562,2.1875 1.7188,-.4688 .375,-2.7188 -.1875,-1.8438 -.2188,-.6562 2.5312,-1.0625 .3125,.625 1.1562,1.4375 2.1875,1.6562 1.5312,-.875 -.3438,-2.7188 -.6562,-1.75 -.375,-.5625 2.1875,-1.6875 .4375,.5312 1.5,1.0625 2.5625,1.0625 1.25,-1.2812 -1.0625,-2.5312 -1.0625,-1.5 -.5312,-.4375 1.6875,-2.1875 .5625,.375 1.75,.6562 2.7188,.3438 .875,-1.5312 -1.6562,-2.1875 -1.4375,-1.1875 -.625,-.25 1.0625,-2.5625 .6562,.2188 1.8438,.1875 2.7188,-.375 .4375,-1.7188 -2.1562,-1.6875 -1.6875,-.75 -.6875,-.125 .375,-2.75 .6875,.0625 1.8125,-.3125 2.5312,-1.0312 v -1.78125 l -2.5312,-1.0625 -1.8125,-.3125 -.6875,.0625 -.375,-2.75 .6875,-.125 1.6875,-.75 2.1562,-1.6875 -.4375,-1.7188 -2.7188,-.3438 -1.8438,.1562 -.6562,.25 -1.0625,-2.5625 .625,-.2812 1.4375,-1.1875 1.6562,-2.1562 -.4062,-.75 h -4.4375 l -.5,.1875 -.5625,.4062 -.4688,-.5938 h -5.8125 z  m -16.0625,2.625 c 7.53154,0 13.625,6.09346 13.625,13.625 0,7.53154 -6.09346,13.6562 -13.625,13.6562 -7.53154,0 -13.6562,-6.12471 -13.6562,-13.6562 0,-7.53154 6.12471,-13.625 13.6562,-13.625 z  m 43.5938,28.2188 -1.1875,2.8125 -.3438,2 .0625,.7812 -3.0312,.375 -.125,-.7188 -.8438,-1.875 -1.875,-2.4062 -1.875,.5 -.4062,3 .1875,2.0625 .25,.6875 -2.8125,1.1875 -.3125,-.6875 -1.3125,-1.5938 -2.4375,-1.8438 -1.6875,1 .4062,3.0312 .6875,1.875 .4375,.6562 -2.4062,1.8438 -.5,-.5625 l -1.6562,-1.2188 -2.8125,-1.125 -1.4062,1.375 1.1562,2.8125 1.1875,1.6562 .5938,.5 -1.875,2.4375 -.625,-.4375 -1.9062,-.7188 -3,-.4062 -1,1.7188 1.8438,2.4062 1.5938,1.3125 .6562,.3125 -1.1562,2.8125 -.7188,-.25 -2.0312,-.1875 -3,.4062 -.5312,1.9062 2.4062,1.8438 1.875,.8438 .75,.1562 -.4062,3.0312 -.75,-.0625 -2.0312,.3125 -2.8125,1.1875 v 1.96875 l 2.8125,1.1562 2.0312,.3438 .75,-.0625 .4062,3.0312 -.75,.1562 -1.875,.8125 -2.4062,1.875 .5312,1.9062 3,.4062 2.0312,-.2188 .7188,-.25 1.1562,2.8125 -.6562,.3438 -1.5938,1.2812 -1.8438,2.4375 .25,.4062 h 5.9375 l .3438,-.25 .1875,.25 h 6.21875 c -1.29523,-1.37524 -2.43984,-2.89465 -3.40625,-4.53125 l 10.9062,-5 c 2.31639,3.21748 6.01483,5.38221 10.2188,5.625 l .5312,3.9062 h 5.21875 l -.625,-4.5938 c 3.78803,-1.2847 6.83138,-4.19746 8.28125,-7.90625 l 8.3125,1.5312 v -5.28125 l -7.375,-1.3438 c -0.0504,-4.23358 -2.06895,-7.98615 -5.15625,-10.4375 l 5.5,-10.6562 c 2.76801,1.81369 5.15704,4.15705 7.03125,6.875 v -9.84375 l -.8438,.625 -.5,.5625 -2.4062,-1.8438 .4062,-.6562 .75,-1.875 .375,-3.0312 -1.7188,-1 -2.4062,1.8438 -1.2812,1.5938 -.3438,.6875 -2.8125,-1.1875 .25,-.6875 .2188,-2.0625 -.4375,-3 -1.875,-.5 -1.875,2.4062 -.8438,1.875 -.125,.7188 -3.0312,-.375 .0625,-.7812 -.3438,-2 -1.1562,-2.8125 h -1.96875 z  m .9688,10.3125 c 3.2847,0 6.43014,0.645954 9.3125,1.78125 l -5.5,10.625 c -1.20945,-0.35429 -2.48898,-0.53125 -3.8125,-0.53125 -2.62433,0 -5.08015,0.738068 -7.15625,2.03125 l -8.1562,-8.7812 c 4.26057,-3.21715 9.56672,-5.125 15.3125,-5.125 z  m -48.75,6.3125 -.9688,2.0938 -.0625,.7188 .1875,1.25 -2.25,.5938 -.4375,-1.1875 -.4375,-.5938 l -1.8438,-1.3438 -1.0938,.625 .2188,2.2812 .3125,.6562 .7812,1 -1.625,1.625 -1,-.7812 -.6562,-.3125 -2.2812,-.2188 -.625,1.0625 1.3438,1.8438 .5938,.4375 1.1562,.4688 -.5938,2.2188 -1.25,-.1875 -.75,.0625 -2.0625,.9375 v 1.25 l 2.0625,.9375 .75,.0625 1.25,-.1562 .5938,2.2188 -1.1875,.4688 -.5938,.4062 -1.3438,1.875 .5938,1.0625 2.2812,-.2188 .6875,-.3125 1,-.7812 1.625,1.625 -.8125,1 -.3125,.6875 -.2188,2.25 1.0625,.625 1.875,-1.3125 .4062,-.5938 .5,-1.1875 2.2188,.5938 -.1875,1.25 .0625,.75 .9375,2.0938 h 1.21875 l .9688,-2.0938 .0625,-.7188 -.1875,-1.2812 2.2188,-.5625 .4688,1.1562 .4375,.625 1.8438,1.3125 1.0625,-.5938 -.2188,-2.2812 -.2812,-.6562 -.7812,-1 1.625,-1.625 1,.7812 .6562,.3125 2.2812,.2188 .625,-1.0625 -1.3438,-1.8438 -.5938,-.4375 -1.1875,-.4688 .625,-2.2188 1.25,.1875 .7188,-.0625 2.0938,-.9375 v -1.25 l -2.0625,-.9375 -.75,-.0938 -1.25,.1875 -.5938,-2.2188 1.1875,-.4688 .5938,-.4375 1.3438,-1.8438 -.625,-1.0625 -2.25,.2188 -.6875,.3125 -1,.7812 -1.625,-1.6562 .8125,-.9688 .2812,-.6875 .25,-2.25 -1.0625,-.625 -1.875,1.3125 -.4375,.5938 -.4688,1.1875 -2.2188,-.5938 .1875,-1.2812 -.0625,-.7188 -.9375,-2.0938 h -1.21875 z  m 29.625,2.3438 8.1562,8.7812 c -1.63565,2.23928 -2.59375,4.98537 -2.59375,7.96875 0,1.10137 0.15791,2.19336 0.40625,3.21875 l -10.9062,4.9688 c -0.87766,-2.57354 -1.375,-5.31881 -1.375,-8.1875 0,-6.42078 2.37994,-12.2752 6.3125,-16.75 z  m -29.0938,8.375 c 1.81315,0 3.28125,1.4681 3.28125,3.28125 0,1.81315 -1.4681,3.28125 -3.28125,3.28125 -1.81315,0 -3.28125,-1.4681 -3.28125,-3.28125 0,-1.81315 1.4681,-3.28125 3.28125,-3.28125 z  m 48.2188,3.2812 c 2.78946,0 5.0625,2.24179 5.0625,5.03125 0,2.78946 -2.27304,5.0625 -5.0625,5.0625 -2.78946,0 -5.03125,-2.27304 -5.03125,-5.0625 0,-2.78946 2.24179,-5.03125 5.03125,-5.03125 z " transform="translate(-100,0)"/>
<path style="fill:url(#linearGradient3846)" id="path6159" d="m 15.7812,6 c -5.7812,3.11231 -9.71875,9.22515 -9.71875,16.25 0,10.1815 8.25597,18.4375 18.4375,18.4375 10.1815,0 18.4375,-8.25597 18.4375,-18.4375 0,-7.02485 -3.93756,-13.1377 -9.71875,-16.25 h -17.4375 z  m 24.7812,0 c 4.09802,4.12935 6.625,9.81887 6.625,16.0938 0,12.6127 -10.231,22.8438 -22.8438,22.8438 -7.50479,1e-06 -14.179,-3.62782 -18.3438,-9.21875 v 7.875 l .2188,-.1562 .4375,-.5312 2.1875,1.6875 -.4062,.5625 -.625,1.75 -.375,2.7188 1.5625,.875 2.1562,-1.6562 1.1875,-1.4375 .3125,-.625 2.5312,1.0625 -.25,.6562 -.1562,1.8438 .375,2.7188 1.7188,.4688 1.6875,-2.1875 .75,-1.6875 .125,-.6875 2.75,.375 -.0625,.6562 .2812,1.8438 1.0625,2.5312 h 1.78125 l 1.0625,-2.5312 .3125,-1.8438 -.0625,-.6562 2.7188,-.375 .125,.6875 .7812,1.6875 1.6562,2.1875 1.7188,-.4688 .375,-2.7188 -.1875,-1.8438 -.2188,-.6562 2.5312,-1.0625 .3125,.625 1.1562,1.4375 2.1875,1.6562 1.5312,-.875 -.3438,-2.7188 -.6562,-1.75 -.375,-.5625 2.1875,-1.6875 .4375,.5312 1.5,1.0625 2.5625,1.0625 1.25,-1.2812 -1.0625,-2.5312 -1.0625,-1.5 -.5312,-.4375 1.6875,-2.1875 .5625,.375 1.75,.6562 2.7188,.3438 .875,-1.5312 -1.6562,-2.1875 -1.4375,-1.1875 -.625,-.25 1.0625,-2.5625 .6562,.2188 1.8438,.1875 2.7188,-.375 .4375,-1.7188 -2.1562,-1.6875 -1.6875,-.75 -.6875,-.125 .375,-2.75 .6875,.0625 1.8125,-.3125 2.5312,-1.0312 v -1.78125 l -2.5312,-1.0625 -1.8125,-.3125 -.6875,.0625 -.375,-2.75 .6875,-.125 1.6875,-.75 2.1562,-1.6875 -.4375,-1.7188 -2.7188,-.3438 -1.8438,.1562 -.6562,.25 -1.0625,-2.5625 .625,-.2812 1.4375,-1.1875 1.6562,-2.1562 -.4062,-.75 h -4.4375 l -.5,.1875 -.5625,.4062 -.4688,-.5938 h -5.8125 z  m -16.0625,2.625 c 7.53154,0 13.625,6.09346 13.625,13.625 0,7.53154 -6.09346,13.6562 -13.625,13.6562 -7.53154,0 -13.6562,-6.12471 -13.6562,-13.6562 0,-7.53154 6.12471,-13.625 13.6562,-13.625 z  m 43.5938,28.2188 -1.1875,2.8125 -.3438,2 .0625,.7812 -3.0312,.375 -.125,-.7188 -.8438,-1.875 -1.875,-2.4062 -1.875,.5 -.4062,3 .1875,2.0625 .25,.6875 -2.8125,1.1875 -.3125,-.6875 -1.3125,-1.5938 -2.4375,-1.8438 -1.6875,1 .4062,3.0312 .6875,1.875 .4375,.6562 -2.4062,1.8438 -.5,-.5625 l -1.6562,-1.2188 -2.8125,-1.125 -1.4062,1.375 1.1562,2.8125 1.1875,1.6562 .5938,.5 -1.875,2.4375 -.625,-.4375 -1.9062,-.7188 -3,-.4062 -1,1.7188 1.8438,2.4062 1.5938,1.3125 .6562,.3125 -1.1562,2.8125 -.7188,-.25 -2.0312,-.1875 -3,.4062 -.5312,1.9062 2.4062,1.8438 1.875,.8438 .75,.1562 -.4062,3.0312 -.75,-.0625 -2.0312,.3125 -2.8125,1.1875 v 1.96875 l 2.8125,1.1562 2.0312,.3438 .75,-.0625 .4062,3.0312 -.75,.1562 -1.875,.8125 -2.4062,1.875 .5312,1.9062 3,.4062 2.0312,-.2188 .7188,-.25 1.1562,2.8125 -.6562,.3438 -1.5938,1.2812 -1.8438,2.4375 .25,.4062 h 5.9375 l .3438,-.25 .1875,.25 h 6.21875 c -1.29523,-1.37524 -2.43984,-2.89465 -3.40625,-4.53125 l 10.9062,-5 c 2.31639,3.21748 6.01483,5.38221 10.2188,5.625 l .5312,3.9062 h 5.21875 l -.625,-4.5938 c 3.78803,-1.2847 6.83138,-4.19746 8.28125,-7.90625 l 8.3125,1.5312 v -5.28125 l -7.375,-1.3438 c -0.05044,-4.23358 -2.06895,-7.98615 -5.15625,-10.4375 l 5.5,-10.6562 c 2.76801,1.81369 5.15704,4.15705 7.03125,6.875 v -9.84375 l -.8438,.625 -.5,.5625 -2.4062,-1.8438 .4062,-.6562 .75,-1.875 .375,-3.0312 -1.7188,-1 -2.4062,1.8438 -1.2812,1.5938 -.3438,.6875 -2.8125,-1.1875 .25,-.6875 .2188,-2.0625 -.4375,-3 -1.875,-.5 -1.875,2.4062 -.8438,1.875 -.125,.7188 -3.0312,-.375 .0625,-.7812 -.3438,-2 -1.1562,-2.8125 h -1.96875 z  m .9688,10.3125 c 3.2847,0 6.43014,0.645954 9.3125,1.78125 l -5.5,10.625 c -1.20945,-0.35429 -2.48898,-0.53125 -3.8125,-0.53125 -2.62433,0 -5.08015,0.738068 -7.15625,2.03125 l -8.1562,-8.7812 c 4.26057,-3.21715 9.56672,-5.125 15.3125,-5.125 z  m -48.75,6.3125 -.9688,2.0938 -.0625,.7188 .1875,1.25 -2.25,.5938 -.4375,-1.1875 -.4375,-.5938 l -1.8438,-1.3438 -1.0938,.625 .2188,2.2812 .3125,.6562 .7812,1 -1.625,1.625 -1,-.7812 -.6562,-.3125 -2.2812,-.2188 -.625,1.0625 1.3438,1.8438 .5938,.4375 1.1562,.4688 -.5938,2.2188 -1.25,-.1875 -.75,.0625 -2.0625,.9375 v 1.25 l 2.0625,.9375 .75,.0625 1.25,-.1562 .5938,2.2188 -1.1875,.4688 -.5938,.4062 -1.3438,1.875 .5938,1.0625 2.2812,-.2188 .6875,-.3125 1,-.7812 1.625,1.625 -.8125,1 -.3125,.6875 -.2188,2.25 1.0625,.625 1.875,-1.3125 .4062,-.5938 .5,-1.1875 2.2188,.5938 -.1875,1.25 .0625,.75 .9375,2.0938 h 1.21875 l .9688,-2.0938 .0625,-.7188 -.1875,-1.2812 2.2188,-.5625 .4688,1.1562 .4375,.625 1.8438,1.3125 1.0625,-.5938 -.2188,-2.2812 -.2812,-.6562 -.7812,-1 1.625,-1.625 1,.7812 .6562,.3125 2.2812,.2188 .625,-1.0625 -1.3438,-1.8438 -.5938,-.4375 -1.1875,-.4688 .625,-2.2188 1.25,.1875 .7188,-.0625 2.0938,-.9375 v -1.25 l -2.0625,-.9375 -.75,-.0938 -1.25,.1875 -.5938,-2.2188 1.1875,-.4688 .5938,-.4375 1.3438,-1.8438 -.625,-1.0625 -2.25,.2188 -.6875,.3125 -1,.7812 -1.625,-1.6562 .8125,-.9688 .2812,-.6875 .25,-2.25 -1.0625,-.625 -1.875,1.3125 -.4375,.5938 -.4688,1.1875 -2.2188,-.5938 .1875,-1.2812 -.0625,-.7188 -.9375,-2.0938 h -1.21875 z  m 29.625,2.3438 8.1562,8.7812 c -1.63565,2.23928 -2.59375,4.98537 -2.59375,7.96875 0,1.10137 0.157912,2.19336 0.40625,3.21875 l -10.9062,4.9688 c -0.877661,-2.57354 -1.375,-5.31881 -1.375,-8.1875 0,-6.42078 2.37994,-12.2752 6.3125,-16.75 z  m -29.0938,8.375 c 1.81315,0 3.28125,1.4681 3.28125,3.28125 0,1.81315 -1.4681,3.28125 -3.28125,3.28125 -1.81315,0 -3.28125,-1.4681 -3.28125,-3.28125 0,-1.81315 1.4681,-3.28125 3.28125,-3.28125 z  m 48.2188,3.2812 c 2.78946,0 5.0625,2.24179 5.0625,5.03125 0,2.78946 -2.27304,5.0625 -5.0625,5.0625 -2.78946,0 -5.03125,-2.27304 -5.03125,-5.0625 0,-2.78946 2.24179,-5.03125 5.03125,-5.03125 z "/>
</g>
<path style="opacity:.3;fill:none;filter:url(#filter3875);stroke:#000;stroke-width:1.5;clip-path:url(#clipPath3867)" id="path3786" d="m 115.7812,6.5 c -5.78119,3.11231 -9.71875,9.22515 -9.71875,16.25 0,10.1815 8.25597,18.4375 18.4375,18.4375 10.1815,0 18.4375,-8.25597 18.4375,-18.4375 0,-7.02485 -3.93756,-13.1377 -9.71875,-16.25 h -17.4375 z  m 24.7812,0 c 4.09802,4.12935 6.625,9.81887 6.625,16.0938 0,12.6127 -10.231,22.8438 -22.8438,22.8438 -7.50479,1e-06 -14.179,-3.62782 -18.3438,-9.21875 v 7.875 l .2188,-.1562 .4375,-.5312 2.1875,1.6875 -.4062,.5625 -.625,1.75 -.375,2.7188 1.5625,.875 2.1562,-1.6562 1.1875,-1.4375 .3125,-.625 2.5312,1.0625 -.25,.6562 -.1562,1.8438 .375,2.7188 1.7188,.4688 1.6875,-2.1875 .75,-1.6875 .125,-.6875 2.75,.375 -.0625,.6562 .2812,1.8438 1.0625,2.5312 h 1.78125 l 1.0625,-2.5312 .3125,-1.8438 -.0625,-.6562 2.7188,-.375 .125,.6875 .7812,1.6875 1.6562,2.1875 1.7188,-.4688 .375,-2.7188 -.1875,-1.8438 -.2188,-.6562 2.5312,-1.0625 .3125,.625 1.1562,1.4375 2.1875,1.6562 1.5312,-.875 -.3438,-2.7188 -.6562,-1.75 -.375,-.5625 2.1875,-1.6875 .4375,.5312 1.5,1.0625 2.5625,1.0625 1.25,-1.2812 -1.0625,-2.5312 -1.0625,-1.5 -.5312,-.4375 1.6875,-2.1875 .5625,.375 1.75,.6562 2.7188,.3438 .875,-1.5312 -1.6562,-2.1875 -1.4375,-1.1875 -.625,-.25 1.0625,-2.5625 .6562,.2188 1.8438,.1875 2.7188,-.375 .4375,-1.7188 -2.1562,-1.6875 -1.6875,-.75 -.6875,-.125 .375,-2.75 .6875,.0625 1.8125,-.3125 2.5312,-1.0312 v -1.78125 l -2.5312,-1.0625 -1.8125,-.3125 -.6875,.0625 -.375,-2.75 .6875,-.125 1.6875,-.75 2.1562,-1.6875 -.4375,-1.7188 -2.7188,-.3438 -1.8438,.1562 -.6562,.25 -1.0625,-2.5625 .625,-.2812 1.4375,-1.1875 1.6562,-2.1562 -.4062,-.75 h -4.4375 l -.5,.1875 -.5625,.4062 -.4688,-.5938 h -5.8125 z  m -16.0625,2.625 c 7.53154,0 13.625,6.09346 13.625,13.625 0,7.53154 -6.09346,13.6562 -13.625,13.6562 -7.53154,0 -13.6562,-6.12471 -13.6562,-13.6562 0,-7.53154 6.12471,-13.625 13.6562,-13.625 z  m 43.5938,28.2188 -1.1875,2.8125 -.3438,2 .0625,.7812 -3.0312,.375 -.125,-.7188 -.8438,-1.875 -1.875,-2.4062 -1.875,.5 -.4062,3 .1875,2.0625 .25,.6875 -2.8125,1.1875 -.3125,-.6875 -1.3125,-1.5938 -2.4375,-1.8438 -1.6875,1 .4062,3.0312 .6875,1.875 .4375,.6562 -2.4062,1.8438 -.5,-.5625 l -1.6562,-1.2188 -2.8125,-1.125 -1.4062,1.375 1.1562,2.8125 1.1875,1.6562 .5938,.5 -1.875,2.4375 -.625,-.4375 -1.9062,-.7188 -3,-.4062 -1,1.7188 1.8438,2.4062 1.5938,1.3125 .6562,.3125 -1.1562,2.8125 -.7188,-.25 -2.0312,-.1875 -3,.4062 -.5312,1.9062 2.4062,1.8438 1.875,.8438 .75,.1562 -.4062,3.0312 -.75,-.0625 -2.0312,.3125 -2.8125,1.1875 v 1.96875 l 2.8125,1.1562 2.0312,.3438 .75,-.0625 .4062,3.0312 -.75,.1562 -1.875,.8125 -2.4062,1.875 .5312,1.9062 3,.4062 2.0312,-.2188 .7188,-.25 1.1562,2.8125 -.6562,.3438 -1.5938,1.2812 -1.8438,2.4375 .25,.4062 h 5.9375 l .3438,-.25 .1875,.25 h 6.21875 c -1.29523,-1.37524 -2.43984,-2.89465 -3.40625,-4.53125 l 10.9062,-5 c 2.31639,3.21748 6.01482,5.38221 10.2188,5.625 l .5312,3.9062 h 5.21875 l -.625,-4.5938 c 3.78803,-1.2847 6.83138,-4.19746 8.28125,-7.90625 l 8.3125,1.5312 v -5.28125 l -7.375,-1.3438 c -0.0504,-4.23358 -2.06895,-7.98615 -5.15625,-10.4375 l 5.5,-10.6562 c 2.76801,1.81369 5.15704,4.15705 7.03125,6.875 v -9.84375 l -.8438,.625 -.5,.5625 -2.4062,-1.8438 .4062,-.6562 .75,-1.875 .375,-3.0312 -1.7188,-1 -2.4062,1.8438 -1.2812,1.5938 -.3438,.6875 -2.8125,-1.1875 .25,-.6875 .2188,-2.0625 -.4375,-3 -1.875,-.5 -1.875,2.4062 -.8438,1.875 -.125,.7188 -3.0312,-.375 .0625,-.7812 -.3438,-2 -1.1562,-2.8125 h -1.96875 z  m .9688,10.3125 c 3.2847,0 6.43014,0.645954 9.3125,1.78125 l -5.5,10.625 c -1.20945,-0.35429 -2.48898,-0.53125 -3.8125,-0.53125 -2.62433,0 -5.08015,0.738068 -7.15625,2.03125 l -8.1562,-8.7812 c 4.26057,-3.21715 9.56672,-5.125 15.3125,-5.125 z  m -48.75,6.3125 -.9688,2.0938 -.0625,.7188 .1875,1.25 -2.25,.5938 -.4375,-1.1875 -.4375,-.5938 l -1.8438,-1.3438 -1.0938,.625 .2188,2.2812 .3125,.6562 .7812,1 -1.625,1.625 -1,-.7812 -.6562,-.3125 -2.2812,-.2188 -.625,1.0625 1.3438,1.8438 .5938,.4375 1.1562,.4688 -.5938,2.2188 -1.25,-.1875 -.75,.0625 -2.0625,.9375 v 1.25 l 2.0625,.9375 .75,.0625 1.25,-.1562 .5938,2.2188 -1.1875,.4688 -.5938,.4062 -1.3438,1.875 .5938,1.0625 2.2812,-.2188 .6875,-.3125 1,-.7812 1.625,1.625 -.8125,1 -.3125,.6875 -.2188,2.25 1.0625,.625 1.875,-1.3125 .4062,-.5938 .5,-1.1875 2.2188,.5938 -.1875,1.25 .0625,.75 .9375,2.0938 h 1.21875 l .9688,-2.0938 .0625,-.7188 -.1875,-1.2812 2.2188,-.5625 .4688,1.1562 .4375,.625 1.8438,1.3125 1.0625,-.5938 -.2188,-2.2812 -.2812,-.6562 -.7812,-1 1.625,-1.625 1,.7812 .6562,.3125 2.2812,.2188 .625,-1.0625 -1.3438,-1.8438 -.5938,-.4375 -1.1875,-.4688 .625,-2.2188 1.25,.1875 .7188,-.0625 2.0938,-.9375 v -1.25 l -2.0625,-.9375 -.75,-.0938 -1.25,.1875 -.5938,-2.2188 1.1875,-.4688 .5938,-.4375 1.3438,-1.8438 -.625,-1.0625 -2.25,.2188 -.6875,.3125 -1,.7812 -1.625,-1.6562 .8125,-.9688 .2812,-.6875 .25,-2.25 -1.0625,-.625 -1.875,1.3125 -.4375,.5938 -.4688,1.1875 -2.2188,-.5938 .1875,-1.2812 -.0625,-.7188 -.9375,-2.0938 h -1.21875 z  m 29.625,2.3438 8.1562,8.7812 c -1.63565,2.23928 -2.59375,4.98537 -2.59375,7.96875 0,1.10137 0.15791,2.19336 0.40625,3.21875 l -10.9062,4.9688 c -0.87766,-2.57354 -1.375,-5.31881 -1.375,-8.1875 0,-6.42078 2.37994,-12.2752 6.3125,-16.75 z  m -29.0938,8.375 c 1.81315,0 3.28125,1.4681 3.28125,3.28125 0,1.81315 -1.4681,3.28125 -3.28125,3.28125 -1.81315,0 -3.28125,-1.4681 -3.28125,-3.28125 0,-1.81315 1.4681,-3.28125 3.28125,-3.28125 z  m 48.2188,3.2812 c 2.78946,0 5.0625,2.24179 5.0625,5.03125 0,2.78946 -2.27304,5.0625 -5.0625,5.0625 -2.78946,0 -5.03125,-2.27304 -5.03125,-5.0625 0,-2.78946 2.24179,-5.03125 5.03125,-5.03125 z " transform="translate(-100,0)"/>
<g style="stroke:none">
<path id="path3767" d="m -51.9062,36.8438 -1.1875,2.8125 -.3438,2 .0625,.7812 -3.0312,.375 -.125,-.7188 -.8438,-1.875 -1.875,-2.4062 -1.875,.5 -.4062,3 .1875,2.0625 .25,.6875 -2.8125,1.1875 -.3125,-.6875 -1.3125,-1.5938 -2.4375,-1.8438 -1.6875,1 .4062,3.0312 .6875,1.875 .4375,.6562 -2.4062,1.8438 -.5,-.5625 l -1.6562,-1.2188 -2.8125,-1.125 -1.4062,1.375 1.1562,2.8125 1.1875,1.6562 .5938,.5 -1.875,2.4375 -.625,-.4375 -1.9062,-.7188 -3,-.4062 -1,1.7188 1.8438,2.4062 1.5938,1.3125 .6562,.3125 -1.1562,2.8125 -.7188,-.25 -2.0312,-.1875 -3,.4062 -.5312,1.9062 2.4062,1.8438 1.875,.8438 .75,.1562 -.4062,3.0312 -.75,-.0625 -2.0312,.3125 -2.8125,1.1875 v 1.96875 l 2.8125,1.1562 2.0312,.3438 .75,-.0625 .4062,3.0312 -.75,.1562 -1.875,.8125 -2.4062,1.875 .5312,1.9062 3,.4062 2.0312,-.2188 .7188,-.25 1.1562,2.8125 -.6562,.3438 -1.5938,1.2812 -1.8438,2.4375 1,1.6875 3,-.375 1.9062,-.7188 .625,-.4375 1.875,2.4062 -.5938,.5 -1.1875,1.6875 -1.1562,2.8125 1.4062,1.375 2.8125,-1.1562 1.6562,-1.1875 .5,-.5625 2.4062,1.8438 -.4375,.625 -.6875,1.9062 -.4062,3.0312 1.6875,.9688 2.4375,-1.8125 1.3125,-1.5938 .3125,-.6875 2.8125,1.1562 -.25,.7188 -.1875,2.0312 .4062,3.0312 1.875,.5 1.875,-2.4062 .8438,-1.875 .125,-.75 3.0312,.4062 -.0625,.75 .3438,2.0312 1.1875,2.8125 h 1.96875 l 1.1562,-2.8125 .3438,-2.0312 -.0625,-.75 3.0312,-.4062 .125,.75 .8438,1.875 1.875,2.4062 1.875,-.5 .4375,-3.0312 -.2188,-2.0312 -.25,-.7188 2.8125,-1.1562 .3438,.6875 1.2812,1.5938 2.4062,1.8125 1.7188,-.9688 -.375,-3.0312 -.75,-1.9062 -.4062,-.625 2.4062,-1.8438 .5,.5625 1.6562,1.1875 2.8125,1.1562 1.4062,-1.375 -1.1562,-2.8125 -1.1875,-1.6875 -.5938,-.5 1.875,-2.4062 .625,.4375 1.9062,.7188 3.0312,.375 .9688,-1.6875 -1.8438,-2.4375 -1.5938,-1.2812 -.6875,-.3438 1.1875,-2.8125 .7188,.25 2.0312,.2188 3,-.4062 .5312,-1.9062 -2.4375,-1.875 -1.8438,-.8125 -.75,-.1562 .4062,-3.0312 .75,.0625 2.0312,-.3438 2.7812,-1.1562 v -1.96875 l -2.7812,-1.1875 -2.0312,-.3125 -.75,.0625 -.4062,-3.0312 .75,-.1562 1.8438,-.8438 2.4375,-1.8438 -.5312,-1.9062 -3,-.4062 -2.0312,.1875 -.7188,.25 -1.1875,-2.8125 .6875,-.3125 1.5938,-1.3125 1.8438,-2.4062 -.9688,-1.7188 -3.0312,.4062 -1.9062,.7188 -.625,.4375 -1.875,-2.4375 .5938,-.5 1.1875,-1.6562 1.1562,-2.8125 -1.4062,-1.375 -2.8125,1.125 -1.6562,1.2188 -.5,.5625 -2.4062,-1.8438 .4062,-.6562 .75,-1.875 .375,-3.0312 -1.7188,-1 -2.4062,1.8438 -1.2812,1.5938 -.3438,.6875 -2.8125,-1.1875 .25,-.6875 .2188,-2.0625 -.4375,-3 -1.875,-.5 -1.875,2.4062 -.8438,1.875 -.125,.7188 -3.0312,-.375 .0625,-.7812 -.3438,-2 -1.1562,-2.8125 h -1.96875 z  m .9688,10.3125 c 3.2847,0 6.43014,0.645954 9.3125,1.78125 l -5.5,10.625 c -1.20945,-0.35429 -2.48898,-0.53125 -3.8125,-0.53125 -2.62433,0 -5.08015,0.738068 -7.15625,2.03125 l -8.1562,-8.7812 c 4.26057,-3.21715 9.56672,-5.125 15.3125,-5.125 z  m 13.9062,4.1562 c 6.92969,4.54055 11.5,12.3497 11.5,21.25 0,0.664694 -0.01235,1.31682 -0.0625,1.96875 l -11.7812,-2.125 c -0.05044,-4.23358 -2.06895,-7.98615 -5.15625,-10.4375 l 5.5,-10.6562 z  m -33.0312,4.5 8.1562,8.7812 c -1.63565,2.23928 -2.59375,4.98537 -2.59375,7.96875 0,1.10137 0.157912,2.19336 0.40625,3.21875 l -10.9062,4.9688 c -0.877661,-2.57354 -1.375,-5.31881 -1.375,-8.1875 0,-6.42078 2.37994,-12.2752 6.3125,-16.75 z  m 19.125,11.6562 c 2.78946,0 5.0625,2.24179 5.0625,5.03125 0,2.78946 -2.27304,5.0625 -5.0625,5.0625 -2.78946,0 -5.03125,-2.27304 -5.03125,-5.0625 0,-2.78946 2.24179,-5.03125 5.03125,-5.03125 z  m 12.625,10.0312 11.7812,2.1562 c -2.5209,8.72002 -9.56305,15.5199 -18.4375,17.6562 l -1.625,-11.9062 c 3.78803,-1.2847 6.83138,-4.19746 8.28125,-7.90625 z  m -23.625,2.9688 c 2.31639,3.21748 6.01483,5.38221 10.2188,5.625 l 1.5938,11.9062 c -0.269203,0.009 -0.541251,0 -0.8125,0 -9.32614,0 -17.4801,-5.0356 -21.9062,-12.5312 l 10.9062,-5 z "/>
<path id="path3769" d="m -96.5312,-10.1562 -1.0625,2.5 -.2812,1.8438 .0625,.6875 -2.75,.375 -.125,-.6875 -.75,-1.6875 -1.6875,-2.1875 -1.7188,.4688 -.375,2.7188 .1562,1.8438 .25,.625 -2.5312,1.0625 -.3125,-.625 -1.1875,-1.4062 -2.1562,-1.6875 -1.5625,.9062 .375,2.7188 .625,1.75 .4062,.5625 -2.1875,1.6875 -.4375,-.5312 -1.5,-1.0938 -2.5625,-1.0312 -1.25,1.25 1.0312,2.5625 1.0938,1.5 .5,.4375 -1.6562,2.1875 -.5625,-.4062 -1.75,-.6562 -2.7188,-.3438 -.875,1.5625 1.6562,2.1562 1.4375,1.1875 .625,.2812 -1.0625,2.5625 -.6562,-.25 -1.8438,-.1562 -2.7188,.3438 -.4688,1.7188 2.1875,1.6875 1.6875,.75 .6562,.125 -.3438,2.75 -.6875,-.0625 -1.8125,.3125 -2.5312,1.0625 0,1.7812 2.5312,1.0312 1.8125,.3125 .6875,-.0625 .3438,2.75 -.6562,.125 -1.6875,.75 -2.1875,1.6875 .4688,1.7188 2.7188,.375 1.8438,-.1875 .6562,-.2188 1.0625,2.5625 -.625,.25 -1.4375,1.1875 -1.6562,2.1875 .875,1.5312 2.7188,-.3438 1.75,-.6562 .5625,-.375 1.6562,2.1875 -.5,.4375 -1.0938,1.5 -1.0312,2.5312 1.25,1.2812 2.5625,-1.0625 1.5,-1.0625 .4375,-.5312 2.1875,1.6875 -.4062,.5625 -.625,1.75 -.375,2.7188 1.5625,.875 2.1562,-1.6562 1.1875,-1.4375 .3125,-.625 2.5312,1.0625 -.25,.6562 -.1562,1.8438 .375,2.7188 1.7188,.4688 1.6875,-2.1875 .75,-1.6875 .125,-.6875 2.75,.375 l -.0625,.6562 .2812,1.8438 1.0625,2.5312 h 1.78125 l 1.0625,-2.5312 .3125,-1.8438 -.0625,-.6562 2.7188,-.375 .125,.6875 .7812,1.6875 1.6562,2.1875 1.7188,-.4688 .375,-2.7188 -.1875,-1.8438 -.2188,-.6562 2.5312,-1.0625 .3125,.625 1.1562,1.4375 2.1875,1.6562 1.5312,-.875 -.3438,-2.7188 -.6562,-1.75 -.375,-.5625 2.1875,-1.6875 .4375,.5312 1.5,1.0625 2.5625,1.0625 1.25,-1.2812 -1.0625,-2.5312 -1.0625,-1.5 -.5312,-.4375 1.6875,-2.1875 .5625,.375 1.75,.6562 2.7188,.3438 .875,-1.5312 -1.6562,-2.1875 -1.4375,-1.1875 -.625,-.25 1.0625,-2.5625 .6562,.2188 1.8438,.1875 2.7188,-.375 .4375,-1.7188 -2.1562,-1.6875 -1.6875,-.75 -.6875,-.125 .375,-2.75 .6875,.0625 1.8125,-.3125 2.5312,-1.0312 v -1.78125 l -2.5312,-1.0625 -1.8125,-.3125 -.6875,.0625 -.375,-2.75 .6875,-.125 1.6875,-.75 2.1562,-1.6875 -.4375,-1.7188 -2.7188,-.3438 -1.8438,.1562 -.6562,.25 -1.0625,-2.5625 .625,-.2812 1.4375,-1.1875 1.6562,-2.1562 -.875,-1.5625 -2.7188,.3438 -1.75,.6562 -.5625,.4062 -1.6875,-2.1875 .5312,-.4375 1.0625,-1.5 1.0625,-2.5625 -1.25,-1.25 -2.5625,1.0312 -1.5,1.0938 -.4375,.5312 -2.1875,-1.6875 .375,-.5625 .6562,-1.75 .3438,-2.7188 -1.5312,-.9062 -2.1875,1.6875 -1.1562,1.4062 -.3125,.625 -2.5312,-1.0625 .2188,-.625 .1875,-1.8438 -.375,-2.7188 -1.7188,-.4688 -1.6562,2.1875 -.7812,1.6875 -.125,.6875 -2.7188,-.375 .0625,-.6875 -.3125,-1.8438 -1.0625,-2.5 h -1.78125 z  m .875,9.4062 c 12.6127,0 22.8438,10.231 22.8438,22.8438 0,12.6127 -10.231,22.8438 -22.8438,22.8438 -12.6127,1e-06 -22.8438,-10.231 -22.8438,-22.8438 0,-12.6127 10.231,-22.8438 22.8438,-22.8438 z  m .1562,4.5625 c -10.1815,0 -18.4375,8.25597 -18.4375,18.4375 0,10.1815 8.25597,18.4375 18.4375,18.4375 10.1815,0 18.4375,-8.25597 18.4375,-18.4375 0,-10.1815 -8.25597,-18.4375 -18.4375,-18.4375 z  m 0,4.8125 c 7.53154,0 13.625,6.09346 13.625,13.625 0,7.53154 -6.09346,13.6562 -13.625,13.6562 -7.53154,0 -13.6562,-6.12471 -13.6562,-13.6562 0,-7.53154 6.12471,-13.625 13.6562,-13.625 z "/>
<path id="path3771" d="m -99.6875,53.4688 -.9688,2.0938 -.0625,.7188 .1875,1.25 -2.25,.5938 -.4375,-1.1875 -.4375,-.5938 l -1.8438,-1.3438 -1.0938,.625 .2188,2.2812 .3125,.6562 .7812,1 -1.625,1.625 -1,-.7812 -.6562,-.3125 -2.2812,-.2188 -.625,1.0625 1.3438,1.8438 .5938,.4375 1.1562,.4688 -.5938,2.2188 -1.25,-.1875 -.75,.0625 -2.0625,.9375 v 1.25 l 2.0625,.9375 .75,.0625 1.25,-.1562 .5938,2.2188 -1.1875,.4688 -.5938,.4062 -1.3438,1.875 .5938,1.0625 2.2812,-.2188 .6875,-.3125 1,-.7812 1.625,1.625 -.8125,1 -.3125,.6875 -.2188,2.25 1.0625,.625 1.875,-1.3125 .4062,-.5938 .5,-1.1875 2.2188,.5938 -.1875,1.25 .0625,.75 .9375,2.0938 h 1.21875 l .9688,-2.0938 .0625,-.7188 -.1875,-1.2812 2.2188,-.5625 .4688,1.1562 .4375,.625 1.8438,1.3125 1.0625,-.5938 -.2188,-2.2812 -.2812,-.6562 -.7812,-1 1.625,-1.625 1,.7812 .6562,.3125 2.2812,.2188 .625,-1.0625 -1.3438,-1.8438 -.5938,-.4375 -1.1875,-.4688 .625,-2.2188 1.25,.1875 .7188,-.0625 2.0938,-.9375 v -1.25 l -2.0625,-.9375 -.75,-.0938 -1.25,.1875 -.5938,-2.2188 1.1875,-.4688 .5938,-.4375 1.3438,-1.8438 -.625,-1.0625 -2.25,.2188 -.6875,.3125 -1,.7812 -1.625,-1.6562 .8125,-.9688 .2812,-.6875 .25,-2.25 -1.0625,-.625 -1.875,1.3125 -.4375,.5938 -.4688,1.1875 -2.2188,-.5938 .1875,-1.2812 -.0625,-.7188 -.9375,-2.0938 h -1.21875 z  m .5312,10.7188 c 1.81315,0 3.28125,1.4681 3.28125,3.28125 0,1.81315 -1.4681,3.28125 -3.28125,3.28125 -1.81315,0 -3.28125,-1.4681 -3.28125,-3.28125 0,-1.81315 1.4681,-3.28125 3.28125,-3.28125 z "/>
<rect width="84" x="6" y="106" rx="6" height="84" ry="6" id="rect3774"/>
</g>
</g>
<g id="layer5">
<rect width="66" x="15" y="15" rx="12" height="66" ry="12" style="opacity:.1;fill:url(#linearGradient3613);filter:url(#filter3794);stroke:#fff;stroke-linecap:round;stroke-width:.5;clip-path:url(#clipPath3613)" id="rect3171"/>
<g style="stroke:none">
<path style="opacity:.5;fill:url(#linearGradient3188)" id="rect3728" d="m 12,6 c -3.324,0 -6,2.676 -6,6 v 2 68 2 c 0,0.334721 0.04135,0.6507 0.09375,0.96875 0.0487,0.295596 0.09704,0.596915 0.1875,0.875 0.00988,0.03038 0.020892,0.0636 0.03125,0.09375 0.098865,0.287771 0.23488,0.547452 0.375,0.8125 0.144592,0.273507 0.315616,0.535615 0.5,0.78125 0.184384,0.245635 0.373776,0.473472 0.59375,0.6875 0.439947,0.428056 0.94291,0.814526 1.5,1.09375 0.278545,0.139612 0.573473,0.246947 0.875,0.34375 -0.256202,-0.100222 -0.486711,-0.236272 -0.71875,-0.375 -0.00741,-0.0044 -0.023866,0.0045 -0.03125,0 -0.031933,-0.0193 -0.062293,-0.04251 -0.09375,-0.0625 -0.120395,-0.0767 -0.231023,-0.163513 -0.34375,-0.25 -0.106173,-0.0808 -0.213281,-0.161112 -0.3125,-0.25 -0.17793,-0.161433 -0.34746,-0.345388 -0.5,-0.53125 -0.107579,-0.130255 -0.218394,-0.265285 -0.3125,-0.40625 -0.025089,-0.03838 -0.038446,-0.08587 -0.0625,-0.125 -0.064763,-0.103032 -0.130228,-0.204517 -0.1875,-0.3125 -0.101008,-0.194706 -0.205675,-0.415701 -0.28125,-0.625 -0.00796,-0.02181 -0.023589,-0.04055 -0.03125,-0.0625 -0.0318251,-0.09195 -0.0358045,-0.186831 -0.0625,-0.28125 -0.0303323,-0.106618 -0.0703894,-0.203031 -0.09375,-0.3125 -0.0728786,-0.341512 -0.125,-0.698205 -0.125,-1.0625 v -2 -68 -2 c 0,-2.78185 2.21815,-5 5,-5 h 2 68 2 c 2.78185,0 5,2.21815 5,5 v 2 68 2 c 0,0.364295 -0.05212,0.720988 -0.125,1.0625 -0.04415,0.206893 -0.08838,0.397658 -0.15625,0.59375 -0.0077,0.02195 -0.0233,0.04069 -0.03125,0.0625 -0.06274,0.173739 -0.138383,0.367449 -0.21875,0.53125 -0.04158,0.0828 -0.07904,0.169954 -0.125,0.25 -0.0546,0.09721 -0.126774,0.18835 -0.1875,0.28125 -0.09411,0.140965 -0.204921,0.275995 -0.3125,0.40625 -0.143174,0.17445 -0.303141,0.346998 -0.46875,0.5 -0.01117,0.0102 -0.01998,0.02115 -0.03125,0.03125 -0.138386,0.125556 -0.285091,0.234436 -0.4375,0.34375 -0.102571,0.07315 -0.204318,0.153364 -0.3125,0.21875 -0.0074,0.0045 -0.02384,-0.0044 -0.03125,0 -0.232039,0.138728 -0.462548,0.274778 -0.71875,0.375 0.301527,-0.0968 0.596455,-0.204138 0.875,-0.34375 0.55709,-0.279224 1.06005,-0.665694 1.5,-1.09375 0.219973,-0.214028 0.409366,-0.441865 0.59375,-0.6875 0.184384,-0.245635 0.355408,-0.507743 0.5,-0.78125 0.14012,-0.265048 0.276135,-0.524729 0.375,-0.8125 0.01041,-0.03078 0.02133,-0.06274 0.03125,-0.09375 0.09046,-0.278085 0.1388,-0.579404 0.1875,-0.875 0.0524,-0.31805 0.09375,-0.634029 0.09375,-0.96875 v -2 -68 -2 c 0,-3.324 -2.676,-6 -6,-6 h -72 z "/>
<path style="opacity:.2;fill:url(#radialGradient3619)" id="path3615" d="M 12,90 C 8.676,90 6,87.324 6,84 L 6,82 6,14 6,12 c 0,-0.334721 0.04135,-0.6507 0.09375,-0.96875 0.0487,-0.295596 0.09704,-0.596915 0.1875,-0.875 C 6.29113,10.12587 6.302142,10.09265 6.3125,10.0625 6.411365,9.774729 6.5473802,9.515048 6.6875,9.25 6.8320918,8.976493 7.0031161,8.714385 7.1875,8.46875 7.3718839,8.223115 7.5612765,7.995278 7.78125,7.78125 8.221197,7.353194 8.72416,6.966724 9.28125,6.6875 9.559795,6.547888 9.8547231,6.440553 10.15625,6.34375 9.9000482,6.443972 9.6695391,6.580022 9.4375,6.71875 c -0.00741,0.0044 -0.023866,-0.0045 -0.03125,0 -0.031933,0.0193 -0.062293,0.04251 -0.09375,0.0625 -0.120395,0.0767 -0.2310226,0.163513 -0.34375,0.25 -0.1061728,0.0808 -0.2132809,0.161112 -0.3125,0.25 C 8.4783201,7.442683 8.3087904,7.626638 8.15625,7.8125 8.0486711,7.942755 7.9378561,8.077785 7.84375,8.21875 7.818661,8.25713 7.805304,8.30462 7.78125,8.34375 7.716487,8.446782 7.6510225,8.548267 7.59375,8.65625 7.4927417,8.850956 7.3880752,9.071951 7.3125,9.28125 7.30454,9.30306 7.288911,9.3218 7.28125,9.34375 7.2494249,9.4357 7.2454455,9.530581 7.21875,9.625 7.1884177,9.731618 7.1483606,9.828031 7.125,9.9375 7.0521214,10.279012 7,10.635705 7,11 l 0,2 0,68 0,2 c 0,2.781848 2.2181517,5 5,5 l 2,0 68,0 2,0 c 2.781848,0 5,-2.218152 5,-5 l 0,-2 0,-68 0,-2 C 89,10.635705 88.94788,10.279012 88.875,9.9375 88.83085,9.730607 88.78662,9.539842 88.71875,9.34375 88.71105,9.3218 88.69545,9.30306 88.6875,9.28125 88.62476,9.107511 88.549117,8.913801 88.46875,8.75 88.42717,8.6672 88.38971,8.580046 88.34375,8.5 88.28915,8.40279 88.216976,8.31165 88.15625,8.21875 88.06214,8.077785 87.951329,7.942755 87.84375,7.8125 87.700576,7.63805 87.540609,7.465502 87.375,7.3125 87.36383,7.3023 87.35502,7.29135 87.34375,7.28125 87.205364,7.155694 87.058659,7.046814 86.90625,6.9375 86.803679,6.86435 86.701932,6.784136 86.59375,6.71875 c -0.0074,-0.0045 -0.02384,0.0044 -0.03125,0 -0.232039,-0.138728 -0.462548,-0.274778 -0.71875,-0.375 0.301527,0.0968 0.596455,0.204138 0.875,0.34375 0.55709,0.279224 1.060053,0.665694 1.5,1.09375 0.219973,0.214028 0.409366,0.441865 0.59375,0.6875 0.184384,0.245635 0.355408,0.507743 0.5,0.78125 0.14012,0.265048 0.276135,0.524729 0.375,0.8125 0.01041,0.03078 0.02133,0.06274 0.03125,0.09375 0.09046,0.278085 0.1388,0.579404 0.1875,0.875 C 89.95865,11.3493 90,11.665279 90,12 l 0,2 0,68 0,2 c 0,3.324 -2.676,6 -6,6 l -72,0 z"/>
</g>
</g>
</svg>
