<svg xmlns="http://www.w3.org/2000/svg" viewBox="0 0 128 128" xmlns:xlink="http://www.w3.org/1999/xlink">
<defs>
<linearGradient id="linearGradient3110">
<stop offset="0" stop-color="#b3b3b3"/>
<stop offset="1" stop-color="#fff"/>
</linearGradient>
<linearGradient xlink:href="#linearGradient3110" id="linearGradient3116" y1="134.017" x1="81.954" y2="-2.822" x2="81.418" gradientUnits="userSpaceOnUse"/>
</defs>
<path fill="url(#linearGradient3116)" stroke="#000" stroke-width=".332" d="m58.5024,11.4846c-1.79-.0179-3.5511,.823-4.625,2.375-.7983,1.1538-1.0922,2.5005-.9062,3.7812-.009,.1126-.0312,.2287-.0312,.3438v36.6562l-22.6875-14.2812c-2.34-1.4724-5.5669-.6645-7.25,1.8438-1.6831,2.5082-1.1525,5.7151 1.1875,7.1875l24.4688,15.4062-24.4688,15.4062c-2.34,1.4724-2.8706,4.6793-1.1875,7.1875 1.6831,2.5082 4.91,3.3474 7.25,1.875l22.6875-14.2812v35.5313c0,.24 .0553,.4591 .0938,.6875-.1918,1.2561 .0521,2.5705 .8125,3.7188 1.6674,2.5177 5.1141,3.222 7.7188,1.5625l37.1562-23.6563c2.066-1.3163 2.9537-3.7184 2.4062-5.9062-.008-.0304 .008-.0634 0-.0938-.004-.0222-.0273-.0404-.0312-.0625-.2276-1.2721-.9125-2.4326-2.0625-3.1562l-29.9063-18.8125 29.9062-18.7812c2.34-1.4724 2.8393-4.6793 1.1562-7.1875-.1976-.2945-.4197-.5652-.6562-.8125-.014-.017-.017-.0456-.0312-.0625-.0373-.0381-.0869-.0568-.125-.0938-.316-.3553-.676-.6905-1.0938-.9688l-36.6562-24.4375c-.9639-.642-2.051-.958-3.125-.9688zm2.4375,13.625 24.6875,16.4375-24.6875,15.5312 0-31.9688zm0,47.4062 24.8125,15.625-24.8125,15.8125 0-31.4375z"/>
</svg>
