<svg xmlns="http://www.w3.org/2000/svg" viewBox="0 0 128 128" xmlns:xlink="http://www.w3.org/1999/xlink">
<defs>
<filter width="1.445" x="-.222" y="-.075" height="1.15" color-interpolation-filters="sRGB" id="filter10509-6-8">
<feGaussianBlur stdDeviation="1.66055"/>
</filter>
<filter width="1.445" x="-.222" y="-.075" height="1.15" color-interpolation-filters="sRGB" id="filter10509-2-7-8">
<feGaussianBlur stdDeviation="1.66055"/>
</filter>
<linearGradient id="linearGradient3975-5-4-5-5-7">
<stop offset="0" stop-color="#e5e5e5"/>
<stop offset="1" stop-color="#e5e5e5" stop-opacity="0"/>
</linearGradient>
<linearGradient xlink:href="#linearGradient3975-4-3-2" id="linearGradient22697" y1="37.966" y2="138.065" gradientUnits="userSpaceOnUse" x2="0"/>
<linearGradient gradientTransform="matrix(1.2282 0 0 1.2426 226.80225 298.59395)" xlink:href="#linearGradient3975-5-4-5-5-7" id="linearGradient22695" y1="155.784" x1="3.213" y2="87.987" gradientUnits="userSpaceOnUse" x2="102.738"/>
<linearGradient id="linearGradient3975-4-3-2">
<stop offset="0" stop-color="#e5e5e5"/>
<stop offset="1" stop-color="#e5e5e5" stop-opacity="0"/>
</linearGradient>
<linearGradient id="linearGradient3975-5-24-5-5">
<stop offset="0" stop-color="#e5e5e5"/>
<stop offset="1" stop-color="#e5e5e5" stop-opacity="0"/>
</linearGradient>
<linearGradient xlink:href="#linearGradient9784-8-9" id="linearGradient22701" y1="15.563" x1="13.956" y2="-24.161" gradientUnits="userSpaceOnUse" x2="149.585"/>
<linearGradient xlink:href="#linearGradient9760-1-7" id="linearGradient22699" y1="14.095" x1="30.287" y2="-20.991" gradientUnits="userSpaceOnUse" x2="136.663"/>
<linearGradient id="linearGradient9760-1-7">
<stop offset="0" stop-color="#787878"/>
<stop offset=".167" stop-color="#b4b4b4"/>
<stop offset=".327" stop-color="#c8c8c8"/>
<stop offset=".495" stop-color="#e6e6e6"/>
<stop offset=".786" stop-color="#b6b6b6"/>
<stop offset=".786" stop-color="#b6b6b6"/>
<stop offset=".833" stop-color="#b5b5b5"/>
<stop offset="1" stop-color="#8c8c8c"/>
</linearGradient>
<linearGradient gradientTransform="matrix(1.2282 0 0 1.2426 226.85379 298.67675)" xlink:href="#linearGradient3975-5-24-5-5" id="linearGradient22693" y1="54.903" x1="135.552" y2="137.072" gradientUnits="userSpaceOnUse" x2="55.28"/>
<linearGradient id="linearGradient9784-8-9">
<stop offset="0" stop-color="#787878"/>
<stop offset=".167" stop-color="#b4b4b4"/>
<stop offset=".282" stop-color="#c8c8c8"/>
<stop offset=".49" stop-color="#e6e6e6"/>
<stop offset=".786" stop-color="#b6b6b6"/>
<stop offset=".786" stop-color="#b6b6b6"/>
<stop offset=".786" stop-color="#b5b5b5"/>
<stop offset="1" stop-color="#8c8c8c"/>
</linearGradient>
<linearGradient gradientTransform="matrix(2.0455 0 0 2.22432 502.54713 251.76785)" xlink:href="#linearGradient8265-821-176-38-919-66-249-3-3-3-9-2" id="linearGradient22689" y1="20.223" y2="47.07" gradientUnits="userSpaceOnUse" x2="0"/>
<linearGradient id="linearGradient8265-821-176-38-919-66-249-3-3-3-9-2">
<stop offset="0" stop-color="#fff" stop-opacity=".2"/>
<stop offset="1" stop-color="#fff" stop-opacity="0"/>
</linearGradient>
<linearGradient gradientTransform="matrix(2.26159 -.06183 .05438 2.03604 242.40542 366.85735)" xlink:href="#linearGradient8265-821-176-38-919-66-249-3-3-3-9-2" id="linearGradient22691" y1="19.946" x1="4.489" y2="-9.238" gradientUnits="userSpaceOnUse" x2="-19.808"/>
<radialGradient cx="189.04" cy="201.5" gradientTransform="matrix(3.36085 -.04804 .27055 25.3735 -436.23565 -4910.5967)" id="radialGradient22683" r="10.375" gradientUnits="userSpaceOnUse">
<stop offset="0" stop-color="#787878"/>
<stop offset=".167" stop-color="#b4b4b4"/>
<stop offset=".282" stop-color="#c8c8c8"/>
<stop offset=".412" stop-color="#e6e6e6"/>
<stop offset=".786" stop-color="#b6b6b6"/>
<stop offset=".786" stop-color="#b6b6b6"/>
<stop offset=".786" stop-color="#b5b5b5"/>
<stop offset="1" stop-color="#8c8c8c"/>
</radialGradient>
<radialGradient cx="189.04" cy="201.5" gradientTransform="matrix(3.36085 -.04804 .27055 25.3735 -338.83916 -5123.9282)" id="radialGradient22685" r="10.375" gradientUnits="userSpaceOnUse">
<stop offset="0" stop-color="#787878"/>
<stop offset=".167" stop-color="#b4b4b4"/>
<stop offset=".282" stop-color="#c8c8c8"/>
<stop offset=".412" stop-color="#e6e6e6"/>
<stop offset=".786" stop-color="#b6b6b6"/>
<stop offset=".786" stop-color="#b6b6b6"/>
<stop offset=".786" stop-color="#b5b5b5"/>
<stop offset="1" stop-color="#8c8c8c"/>
</radialGradient>
<radialGradient cx="71.483" cy="71.087" gradientTransform="matrix(1.63411 0 0 1.61696 436.14653 243.86323)" id="radialGradient22687" r="43.755" gradientUnits="userSpaceOnUse">
<stop offset="0" stop-color="#24b627"/>
<stop offset="1" stop-color="#257727"/>
</radialGradient>
<radialGradient cx="241.521" cy="225.062" gradientTransform="matrix(1.48738 -0 -0 1.69212 -47.09563 -194.63527)" id="radialGradient22681" r="54.375" gradientUnits="userSpaceOnUse">
<stop offset="0" stop-color="#787878"/>
<stop offset=".167" stop-color="#b4b4b4"/>
<stop offset=".282" stop-color="#474747"/>
<stop offset=".623" stop-color="#dbdbdb"/>
<stop offset=".786" stop-color="#b6b6b6"/>
<stop offset=".786" stop-color="#b6b6b6"/>
<stop offset=".786" stop-color="#4f4f4f"/>
<stop offset="1" stop-color="#8c8c8c"/>
</radialGradient>
</defs>
<path fill="none" d="m113.8811,22.082 0,92.7925 13.7869,0 0-92.7925-13.7869,0z"/>
<path fill="#fff" stroke="#000" stroke-width=".3" d="m.048,29.6296 11.3701,17.6161 9.0177,13.9995 0,53.6648 4.5088,0 0-53.4315 9.1157-14.2328 11.2721-17.6161-22.5442,0-22.7403,0zm7.8415,4.8998 12.5464,0 0,18.8993l-5.097-7.6997-7.4494-11.1996zm17.0552,0 12.6444,0-7.5474,11.1996-5.097,7.8164 0-19.016z"/>
<g fill="none">
<path d="m88.1375,45.6072 0,69.2674 13.7869,0 0-69.2674-13.7869,0z"/>
<path d="m62.5159,71.4547 0,43.4198 13.7868,0 0-43.4198-13.7869,0z"/>
<path d="m36.7723,97.1579 0,17.7167 13.7869,0 0-17.7167-13.7869,0z"/>
</g>
<g transform="matrix(.36359 0 0 .3735 -18.49959 -12.68305)">
<path fill="url(#radialGradient22681)" d="m274.8244,220.8391 .1322-56.01 2.2339-9.7175 6-8 6.25-3.25 6.5-3.25 9.75-2.25 3-.25 7,1 9.25,.5 9.75,3.5 3.75,2.75 5.25,4.25 5.75,7.5 0,7.5226 0,54.2274 17.75,1.5-.3847-55.9837-1.3653-9.0163-2.75-6.75-3-6-6-6-7.25-7-8-4-9.75-3.75-9.5-1.5-13,.25-9.75,.75-8.5,2.75-9,5.25-9.75,8.75-6.75,10.25-3.75,9.25-1.7617,8.4651 .2314,54.525 17.6642-.2626z"/>
<g fill="none" stroke="#9ea0a6">
<path opacity=".99" stroke-width="2" d="m170.9952,99.8858c-1.4058-16.6822 18.4992-30.9381 44.4593-31.8415 25.96-.9034 48.1444,11.8878 49.5502,28.57 .0758,.8991 .089,1.7999 .0398,2.6998" transform="matrix(1.17269 0 0 1.43553 56.79497 23.79713)"/>
<path opacity=".99" stroke-width="2.939" d="m170.9952,99.8858c-1.4058-16.6822 18.4992-30.9381 44.4593-31.8415 25.96-.9034 48.1444,11.8878 49.5502,28.57 .0758,.8991 .089,1.7999 .0398,2.6998" transform="matrix(.79477 0 0 .86851 138.93089 79.2063)"/>
</g>
<path opacity=".39" fill="url(#radialGradient22683)" filter="url(#filter10509-6-8)" d="m257.393,166.581h17.921v53h-17.921z"/>
<g fill="none">
<path stroke="#9d9d9d" stroke-width="2.505" d="m257.3354,165.8603-.1718,55.1494"/>
<path stroke="#a3a3a3" stroke-width="2.5" d="m274.8073,165.7592-.25,55.125 0-1"/>
</g>
<path opacity=".39" fill="url(#radialGradient22685)" filter="url(#filter10509-2-7-8)" d="m354.789-46.75h17.922v53h-17.922z" transform="matrix(-.99999 .00324 -.00324 -.99999 723.73978 171.45591)"/>
<g fill="none">
<path stroke="#a3a3a3" stroke-width="2.5" d="m349.6823,164.3217-.25,55.125 0-1"/>
<path stroke="#9d9d9d" stroke-width="2.505" d="m367.6432,166.0595-.1718,55.1494"/>
</g>
</g>
<g transform="matrix(.38163 0 0 .384 -115.9707 -50.58364)">
<path fill="url(#radialGradient22687)" fill-rule="evenodd" stroke="#888" stroke-linecap="square" stroke-width="2.3" d="m539.8109,428.9985c-16.8637-3.2529-36.1653-15.7538-45.375-29.3879-11.3288-16.771-15.4047-36.2346-11.581-55.3018 2.8735-14.329 13.1534-31.2504 24.4825-40.2998 6.8356-5.4601 19.5127-12.0617 27.3655-14.2504 4.338-1.2091 11.956-2.2796 19.5185-2.1982 6.5396,.0705 13.0998,1.1297 16.7125,2.1694 14.7925,4.2572 23.6126,9.6107 34.2653,20.7976 6.5209,6.848 8.7806,10.005 12.0624,16.853 5.8922,12.295 7.2726,18.4041 7.1928,31.8333-.0522,8.8081-.4871,12.6512-2.0122,17.7892-7.3597,24.7947-27.3083,43.0671-50.8631,51.219-2.0815,.7204-5.371,1.6932-9.09,2.0789-6.0444,.6268-18.357,.0634-22.6782-1.3023z" stroke-miterlimit="0"/>
<path fill="url(#linearGradient22689)" d="m522.2076,295.9115c-.7966,.3236-2.6049,1.9017-4.6116,2.6783-1.7399,.6733-5.424,4.3919-5.8761,4.829-.8141,.7872-2.3424,2.1778-3.8092,3.9024-1.9044,2.2391-3.7647,4.4979-3.7646,4.5029l-2.9205,4.4407-1.616,3.6073c-.1922,1.0307-1.3389,4.8124-1.5858,6.9771-.2707,2.3733-.5792,4.9072-.4929,6.1101 .1316,1.8338 .5878,4.7715 1.0631,6.5627 .6416,2.4181 3.2775,6.8396 3.3375,6.8273l4.7251-8.3513 4.3483-6.3149 2.9535-3.0608 3.3489-2.751 3.3217-2.3723 3.4683-2.4523 6.0134-2.8887 7.6982-2.6016 6.5539-1.2904 8.5383-.8023 7.6475,.8342 6.6592,1.2603 6.0549,2.3126 5.73,2.5754 6.0172,3.5686 5.2803,4.3975 4.9783,4.7288c.1895-.0359 9.0243,13.2324 9.0318,13.0228l1.3449-1.8256 .9741-1.6021 .5064-1.7881 .6206-2.4051 .4968-3.7267 .1688-2.884-.1957-3.1478-.5123-3.2459-.668-3.2585-.9795-3.5221-1.6883-3.449c-.5723-1.1474-1.529-2.8841-2.7392-4.5095-.5126-.6885-1.3773-1.7871-1.8678-2.4429-.6309-.8435-.8025-1.1281-1.3382-1.7756-.1381-.167-1.0041-1.2318-1.5493-1.9227-.4896-.6205-2.1679-1.8379-2.8685-2.5465-1.2845-1.2992-2.5309-2.3582-3.5294-2.8622-1.0035-.5065-3.5638-1.7401-4.7191-2.7139-1.3847-1.1671-2.9203-1.55-4.2949-2.3029l-5.0771-1.5666-5.2966-1.8455-6.704-1.382-7.4601-1.0468-7.7461,.2514-7.558,.8083-5.2475,.9782-6.3677,1.9484-4.7916,2.2958-3.0052,1.2374z"/>
</g>
<g transform="matrix(.37784 0 0 .384 -20.76261 -57.86614)">
<path opacity=".5" fill="url(#linearGradient22691)" d="m234.8387,380.5263c-.9432,.0258 .4932,7.7599 1.1428,10.8557 .5902,2.8127 1.8519,7.3263 1.9984,7.8627 .2697,.987 5.0784,10.5983 5.7948,12.0113l5.543,8.8415 5.4199,5.4794c.6951,.7591 11.2617,9.3068 12.4705,10.3748 .4501,.3977 5.8001,2.9622 11.2336,5.4723 5.4227,2.5051 10.9284,4.956 11.7296,5.1448l12.0957,1.5779c.0775-.0144 6.2251,.3852 6.613,.3753 .3611-.009 3.9636,.0891 3.9607,.055-.349-4.1028-.0588-7.825-.0738-10.861-.0111-2.316-.1727-13.2073-.1712-13.2999l-.0855-13.5744c.0143-2.0683 .0832-20.1933 .1457-23.3832 .0257-1.3094-26.5985,1.1196-28.2319,1.1643l-8.9097,3.7695-8.6157,2.4476-6.9286-.5367-6.8812-2.2774-4.8557-2.8279-6.3238-3.7462-7.0708-4.9255h0z"/>
<path opacity=".25" fill="url(#linearGradient22693)" d="m365.9457,382.6664c-.378-.0219-1.0898-.036-1.6927,.0536-.1994,.0296-.8157,.1508-1.3607,.2776-.893,.2077-1.7346,.4306-1.2756,.291 .9668-.2941-.9991,.1941-1.7995,.4042-1.5606,.4095-2.0533,.5063-3.5702,.7713-.1794,.0312-2.5354,.5153-5.6063,.4857-1.5639-.0151-4.9128,.1107-5.7702,.195l-5.3501,.2921-6.6755,.7813c-1.0204,.2401-7.9188-.2326-9.3326,.387-1.0957,.4802-9.351,.9256-11.2348,1.8169l.2499,32.9806c-.0179-1.6403 .1482,7.0215 .1275,8.3588l.0951,3.6024c.0147,.7855 .0186,1.9663 .04,2.7802 .0169,.6421-.0465,1.5097-.0305,1.7058 .0329,.4108 .0676,1.458 .0407,2.2891-.0251,.775-.0867,1.9966-.095,2.3487-.0131,.5666-.0653,1.5184-.0614,2.0997 .002,.4294 .1274,1.7996 .104,2.221-.008,.1635 .0758,1.1967 .0006,1.4239-.1082,.3272 3.4261-.1219 3.4241-.0271-.0136,.6615 4.426-.4662 6.6217-1.1472 2.2968-.7125 8.6522-3.328 9.6364-3.7286l7.626-4.0766 7.1693-4.6159 7.2548-5.8713 8.5553-9.2079 5.0193-7.434 3.7341-6.8746 1.8917-4.6642 1.9374-5.6663 1.1488-4.4201 .3283-4.7914-1.161-.9372-1.832-.8978-2.4287-.645-3.1356-.4068-2.5931-.154z"/>
<path opacity=".18" fill="url(#linearGradient22695)" d="m371.4706,384.4345c-.8744-.2936-1.7195-.3906-2.8873-.4092-1.5435-.0246-3.7779-.2166-4.6045-.1915-2.3933,.0726-5.2066,.2825-6.7235,.5475-.1794,.0312-3.5964,.5713-6.5567,1.398-2.5059,.6998-5.0222,1.5813-5.8795,1.6655l-5.3501,1.7217-7.6176,2.4493c-1.0204,.2401-7.4477,2.865-8.8616,3.4846-1.0956,.4802-8.8799,4.0232-10.7637,4.9145l.2499,21.3049c-.0179-1.6403 .1482,7.0215 .1275,8.3588l.0952,3.6024c.0147,.7855 .0186,1.9663 .04,2.7802 .017,.6421-.0466,1.5097-.0305,1.7058 .0329,.4108 .0674,1.458 .0407,2.2891-.0251,.775-.0867,1.9966-.095,2.3487-.0131,.5666-.0653,1.5184-.0614,2.0997 .002,.4294 .1274,1.7996 .104,2.221-.008,.1635 .0758,1.1967 .0006,1.4239-.1082,.3272 3.4261-.1219 3.4241-.0271-.0137,.6615 4.4261-.4662 6.6217-1.1472 2.2968-.7125 8.6522-3.3281 9.6364-3.7286l7.626-4.0766 7.1693-4.6159 7.2548-5.8713 8.5553-9.2079 5.0193-7.434 3.7341-6.8746 1.8917-4.6642 1.9374-5.6663 1.1488-4.4201 .3283-3.9489-3.2427-1.2742h-.0001 .0003l-2.3315-.7582z"/>
</g>
<g transform="matrix(.38163 0 0 .384 -124.44741 -64.67883)">
<path fill="url(#linearGradient22697)" fill-rule="evenodd" d="m111.7288,71.0508c0,18.2722-15.4196,33.0847-34.4407,33.0847-19.0211,0-34.4407-14.8125-34.4407-33.0847 0-18.2722 15.4196-33.0847 34.4407-33.0847 18.4917,0 33.6832,14.0278 34.4138,31.7776" transform="matrix(1.46225 0 0 1.5119 461.46267 286.43542)"/>
</g>
<g stroke="#5a5a5a">
<g stroke-width=".688" transform="matrix(.53129 -.03855 .02242 1.97174 136.93371 -48.28644)">
<path fill="url(#linearGradient22699)" stroke-width=".735" d="m65.0196,8.6986c-21.3811-2.4763-32.367-9.9657-24.5376-16.7281 7.8294-6.7624 31.5092-10.237 52.8904-7.7607 21.3811,2.4763 32.367,9.9657 24.5376,16.7281-7.8288,6.7619-31.5056,10.2365-52.8859,7.7612" transform="matrix(1.01101 .01446 -.01239 .86681 -161.52051 68.96554)"/>
</g>
<g transform="matrix(.37834 .01669 -.15434 1.44619 136.26418 -8.35291)">
<path fill="url(#linearGradient22701)" d="m65.0196,8.6986c-21.3811-2.4763-32.367-9.9657-24.5376-16.7281 7.8294-6.7624 31.5092-10.237 52.8904-7.7607 21.3811,2.4763 32.367,9.9657 24.5376,16.7281-7.8288,6.7619-31.5056,10.2365-52.8859,7.7612" transform="matrix(1.01101 .01446 -.01239 .86681 -161.52051 68.96554)"/>
</g>
</g>
<g fill="#202120" transform="matrix(.362 0 0 .36802 -190.93753 124.1258)">
<path d="m784.75-102.75h12v27.75h-12z"/>
<path d="m787.9211-102.4878c-3.8896-1.5192-5.8881-6.1142-4.4638-10.263 1.4243-4.1489 5.732-6.2806 9.6216-4.7614 3.8896,1.5192 5.8881,6.1142 4.4638,10.263-1.4242,4.1485-5.7314,6.2803-9.6208,4.7617" transform="matrix(1.38953 0 0 1.24022 -307.92444 26.42415)"/>
</g>
</svg>
