<svg xmlns="http://www.w3.org/2000/svg" viewBox="0 0 128 128" xmlns:xlink="http://www.w3.org/1999/xlink">
<defs>
<linearGradient gradientTransform="matrix(.69775 .71635 -.71635 .69775 -40.40672 -130.27608)" id="linearGradient3023-8" xlink:href="#linearGradient3891-6" y1="-37.135" y2="88.153" x1="213.15" x2="211.877" gradientUnits="userSpaceOnUse"/>
<linearGradient id="linearGradient3891-6">
<stop offset="0" stop-color="#b3b3b3"/>
<stop offset="1" stop-color="#fff"/>
</linearGradient>
<linearGradient id="linearGradient3891">
<stop offset="0" stop-color="#eaeaea"/>
<stop offset="1" stop-color="#fff"/>
</linearGradient>
<linearGradient gradientTransform="matrix(.69775 .71635 .71635 -.69775 -126.70492 -44.70461)" xlink:href="#linearGradient3891" id="linearGradient2998" y1="-37.135" x1="213.15" y2="88.153" gradientUnits="userSpaceOnUse" x2="211.877"/>
</defs>
<g fill-rule="evenodd" stroke="#000" stroke-width=".3">
<path fill="url(#linearGradient2998)" d="m12.3194,112.8857c-1.2743-1.3083-.8605-3.7545 .9255-5.4941l19.7147-19.2028 1.1484-12.3952 .0534-.5851 .0457-.0445c.1362-.7821 .4744-1.5282 1.0891-2.1269l13.3868-13.0392c1.5512-1.5109 4.025-1.4894 5.5358,.0617l15.2898,15.6974c1.5108,1.5511 1.4673,4.0246-.0839,5.5355l-13.3868,13.0392c-.6147,.5987-1.3694,.9172-2.1548,1.0327l-.0457,.0445-13.2159,1.5142-19.2806,18.78c-1.786,1.7396-4.2628,2.0679-5.5371,.7597l-3.4843-3.5772z"/>
<path fill="url(#linearGradient3023-8)" d="m113.4726,12.8449c-1.2743-1.3083-3.7306-.9589-5.5166,.7807l-19.7147,19.2028-12.4211,.822-.5863,.038-.0457,.0445c-.7855,.1156-1.5401,.434-2.1548,1.0327l-13.3868,13.0392c-1.5512,1.5109-1.5947,3.9844-.0839,5.5355l15.2898,15.6974c1.5108,1.5511 3.9846,1.5726 5.5358,.0617l13.3868-13.0392c.6147-.5987 .9528-1.3448 1.0891-2.1269l.0457-.0445 1.8613-13.1715 19.2806-18.78c1.786-1.7396 2.1793-4.2069 .905-5.5152l-3.4843-3.5771z"/>
</g>
</svg>
