<svg xmlns="http://www.w3.org/2000/svg" viewBox="0 0 96 96" xmlns:xlink="http://www.w3.org/1999/xlink">
<defs>
<linearGradient id="linearGradient4081">
<stop offset="0" stop-color="#aaa"/>
<stop offset="1" stop-color="#f0f0f0"/>
</linearGradient>
<linearGradient gradientTransform="translate(0 10)" id="linearGradient3702" xlink:href="#linearGradient4081" y1="68" y2="8" x2="0" gradientUnits="userSpaceOnUse"/>
</defs>
<g color="#000" transform="translate(0 74)">
<path opacity=".08" d="m12-57.9688c-1.7833-.0501-3.5595,.7288-4.875,1.9688-1.3231,1.2471-2.2163,3.0595-1.8438,5a.9767,.9767 0 0,0 .25,.4688c-.0123,.0302-.0092-.0022-.0625,.0938-.1,.1799-.2492,.4386-.375,.8125-.0972,.2889-.0631,.6744 0,1.0625h-.0625c.0209,15.6255-.0418,31.2455 .0312,46.875a.9767,.9767 0 0,0 .1875,.5625c.2931,.4108 .2422,.4336 .2188,.5938-.0235,.1602-.1999,.5449-.4062,1.1875a.9767,.9767 0 0,0 -.0312,.2812c-.1615,4.4175 4.1127,7.5689 8.25,7.0312 .0521-.0068 .1042,.008 .1562,0 23.7268-.0203 47.4561,.0411 71.1875-.0312a.9767,.9767 0 0,0 .0625,0c1.9683-.1166 3.7557-1.2493 4.9375-2.8125 1.1818-1.5632 1.7799-3.6659 .9375-5.625a.9767,.9767 0 0,0 -.0312-.0625c.0245-.0546 .0218-.0852 .0938-.2188 .1142-.212 .2723-.4901 .375-.875 .0724-.2713-.0232-.6223-.0938-.9688h.0625c-.0209-15.5551 .0418-31.1284-.0312-46.6875a.9767,.9767 0 0,0 -.0625-.3438c-.2091-.541-.3871-.8927-.4062-.9688-.0191-.0761-.0948,.0687 .125-.2188a.9767,.9767 0 0,0 .1875-.5312c.1615-2.0642-.9087-3.8523-2.4062-5.0312-1.4645-1.1529-3.3566-1.7776-5.2188-1.5625h-.125-71-.0312z"/>
<path opacity=".1" d="m12-57c-2.9394-.0985-6.3441,2.7177-5.75,5.8125 .9366,.8448-.6445,1.4977-.25,2.6099 .0209,15.629-.0418,31.2663 .0312,46.8901 .7601,1.0651 .3375,1.5082-.0312,2.6562-.139,3.8025 3.6699,6.5809 7.2672,6.0312 23.7812-.0207 47.5644,.0414 71.3443-.0311 3.2203-.1908 6.4006-3.9408 5.0447-7.0939-.6634-.6254 .8166-1.52 .3438-2.5086-.0209-15.5586 .0418-31.1255-.0312-46.6789-.3427-.8866-.816-1.2624-.1562-2.125 .2639-3.374-3.477-5.9958-6.6573-5.5625-23.7184,0-47.4368,0-71.1552,0z"/>
<path opacity=".15" d="m12-56.0312c-2.3948,0-4.3767,1.6925-4.875,3.9375a1.0342,1.0342 0 0,0 .2812,.9375l39.875,39.875a1.0342,1.0342 0 0,0 1.4375,0l39.875-39.875a1.0342,1.0342 0 0,0 .2812-.9375c-.4983-2.245-2.4802-3.9375-4.875-3.9375h-72zm-4.125,6a1.0342,1.0342 0 0,0 -.9062,1.0312v47a1.0342,1.0342 0 0,0 1.75,.7188l20.7812-20.7812 .0625,.0625-22.2812,22.2812a1.0342,1.0342 0 0,0 -.3125,.7188c0,2.771 2.2603,5.0312 5.0312,5.0312h72c2.771,0 5.0312-2.2603 5.0312-5.0312a1.0342,1.0342 0 0,0 -.3125-.7188l-22.2812-22.2812 .0625-.0625 20.7812,20.7812a1.0342,1.0342 0 0,0 1.75-.7188v-47a1.0342,1.0342 0 0,0 -1.75-.7188l-39.2812,39.2812-39.2812-39.2812a1.0342,1.0342 0 0,0 -.8438-.3125z"/>
<path opacity=".3" d="m12-55c-1.9146,0-3.4774,1.3335-3.875,3.125l39.875,39.875 39.875-39.875c-.3976-1.7915-1.9604-3.125-3.875-3.125h-72zm-4,6 0,47 21.5-21.5 1.5,1.5-23,23c0,2.216 1.784,4 4,4h72c2.216,0 4-1.784 4-4l-23-23 1.5-1.5 21.5,21.5v-47l-40,40-40-40z"/>
<path fill="url(#linearGradient3702)" d="m12,18c-1.9146,0-3.4774,1.3335-3.875,3.125l39.875,39.875 39.875-39.875c-.3976-1.7915-1.9604-3.125-3.875-3.125h-72zm-4,6 0,47 21.5-21.5 1.5,1.5-23,23c0,2.216 1.784,4 4,4h72c2.216,0 4-1.784 4-4l-23-23 1.5-1.5 21.5,21.5v-47l-40,40-40-40z" transform="translate(0 -74)"/>
<path opacity=".75" fill="#fff" d="m12,18c-1.9146,0-3.4774,1.3335-3.875,3.125l.25,.25c.6152-1.4001 1.9897-2.375 3.625-2.375h72c1.6353,0 3.0098,.9749 3.625,2.375l.25-.25c-.3976-1.7915-1.9604-3.125-3.875-3.125h-72zm-4,6 0,1 40,40 40-40 0-1-40,40-40-40zm22.5,27.5-22.5,22.5c0,.3014 .0624,.593 .125,.875l22.875-22.875-.5-.5zm35,0l-.5,.5 22.875,22.875c.0626-.282 .125-.5736 .125-.875l-22.5-22.5z" transform="translate(0 -74)"/>
<path opacity=".15" d="m8.375,20.375c-.1051,.2391-.192,.4887-.25,.75l39.875,39.875 39.875-39.875c-.058-.2613-.1449-.5109-.25-.75l-39.625,39.625-39.625-39.625zm21.125,28.125-21.5,21.5v1l21.5-21.5 1,1 .5-.5-1.5-1.5zm37,0-1.5,1.5 .5,.5 1-1l21.5,21.5v-1l-21.5-21.5zm-58.375,25.375-.125,.125c0,2.216 1.784,4 4,4h72c2.216,0 4-1.784 4-4l-.125-.125c-.3976,1.7915-1.9604,3.125-3.875,3.125h-72c-1.9146,0-3.4774-1.3335-3.875-3.125z" transform="translate(0 -74)"/>
</g>
</svg>
