<svg xmlns="http://www.w3.org/2000/svg" viewBox="0 0 128 128" xmlns:xlink="http://www.w3.org/1999/xlink">
<defs>
<linearGradient gradientTransform="matrix(.91667 0 0 .9127 -184.86305 907.56526)" xlink:href="#linearGradient4081-7" id="linearGradient3885" y1="27.219" x1="271.875" y2="152.719" x2="271.375" gradientUnits="userSpaceOnUse"/>
<linearGradient id="linearGradient4081-7">
<stop offset="0" stop-color="#fff"/>
<stop offset="1" stop-color="#eaeaea"/>
</linearGradient>
</defs>
<g transform="translate(0 -924.36218)">
<path fill="url(#linearGradient3885)" stroke="#000" stroke-width=".3" d="m64.7568,931.0388-11.0573,23.2739-22.888-12.293 4.8984,25.3275c-.0282,.0384-.0579,.0755-.0859,.1141l.0286-.1141-25.8385,3.7364 18.9635,17.2843c-.0001,.0285 0,.057 0,.0855l-18.7917,17.8548 25.638,3.166c.0362,.05 .0781,.093 .1146,.1426l-4.6979,25.3559 22.6302-12.4069c.0657,.021 .1346,.036 .2005,.056l11.1719,23.4165 11.1719-23.4735h-.2578c.0661-.022 .1345-.035 .2005-.057l23.1172,12.0647-5.1849-25.1848 25.724-3.7649-18.9922-17.3129c-.0003-.0949 .0009-.1904 0-.2852l18.763-17.7112-25.4948-3.223 4.7266-25.1849-22.888,12.4926c-.0199-.007-.0374-.0221-.0573-.0285zm-.3438,34.9964c2.2361-.0242 4.5046,.2698 6.7604,.9412 11.9551,3.5583 18.771,16.0378 15.3255,27.9515-.0196,.0676-.0373,.1325-.0573,.1997l.2276-.8176-.2276,.8461c-3.5965,11.9793-16.2422,18.7831-28.2734,15.2022-12.0312-3.5809-18.8647-16.2004-15.2682-28.1797 2.9222-9.7331 11.8232-16.0381 21.513-16.1434z"/>
</g>
</svg>
