<svg xmlns="http://www.w3.org/2000/svg" viewBox="0 0 96 96" xmlns:xlink="http://www.w3.org/1999/xlink">
<defs>
<clipPath id="clipPath3613">
<path fill="#fff" d="m12,6h72a6,6 0 0,1 6,6v72a6,6 0 0,1 -6,6h-72a6,6 0 0,1 -6-6v-72a6,6 0 0,1 6-6"/>
</clipPath>
<filter width="1.384" x="-.192" y="-.192" height="1.384" color-interpolation-filters="sRGB" id="filter3794">
<feGaussianBlur stdDeviation="5.28"/>
</filter>
<linearGradient gradientTransform="scale(.92195 1.08465)" id="StandardGradient-3" y1=".922" y2="19.387" x2="0" gradientUnits="userSpaceOnUse">
<stop offset="0" stop-opacity=".863"/>
<stop offset="1" stop-opacity=".471"/>
</linearGradient>
<linearGradient gradientTransform="translate(0 -97)" id="linearGradient3721" xlink:href="#ButtonShadow-0" y1="6.132" y2="90.239" x2="0" gradientUnits="userSpaceOnUse"/>
<linearGradient gradientTransform="matrix(.94249 0 0 .94249 -88.23962 .8754)" id="linearGradient3736" xlink:href="#StandardGradient-3" y1="16" y2="80" x2="0" gradientUnits="userSpaceOnUse"/>
<linearGradient gradientTransform="matrix(1.02381 0 0 1.0119 -1.14286 -98.07143)" id="linearGradient3780" xlink:href="#ButtonShadow-0" y1="6.132" y2="90.239" x2="0" gradientUnits="userSpaceOnUse"/>
<linearGradient gradientTransform="matrix(.85714 0 0 .85714 14.85714 6.85714)" id="linearGradient3886" xlink:href="#StandardGradient-5" y1="20" y2="76" x2="0" gradientUnits="userSpaceOnUse"/>
<linearGradient gradientTransform="matrix(.70687 0 0 .70687 -101.62648 12.65655)" id="linearGradient2902" xlink:href="#StandardGradient-3" y1="16" y2="80" x2="0" gradientUnits="userSpaceOnUse"/>
<linearGradient gradientTransform="scale(.92195 1.08465)" id="StandardGradient-5" y1=".922" y2="19.387" x2="0" gradientUnits="userSpaceOnUse">
<stop offset="0" stop-opacity=".863"/>
<stop offset="1" stop-opacity=".471"/>
</linearGradient>
<linearGradient gradientTransform="matrix(1.00587 0 0 .99417 100 0)" id="ButtonShadow-0" y1="92.54" y2="7.017" x2="0" gradientUnits="userSpaceOnUse">
<stop offset="0"/>
<stop offset="1" stop-opacity=".588"/>
</linearGradient>
<linearGradient id="linearGradient3737">
<stop offset="0" stop-color="#fff"/>
<stop offset="1" stop-color="#fff" stop-opacity="0"/>
</linearGradient>
<linearGradient id="linearGradient3700">
<stop offset="0" stop-color="#bebebe"/>
<stop offset="1" stop-color="#dcdcdc"/>
</linearGradient>
<linearGradient gradientTransform="matrix(.57143 0 0 .57143 4.16234 24.57143)" id="linearGradient3081" xlink:href="#StandardGradient-5" y1="20" y2="76" x2="0" gradientUnits="userSpaceOnUse"/>
<linearGradient id="linearGradient3188" xlink:href="#linearGradient3737" y1="6" y2="63.893" x2="0" gradientUnits="userSpaceOnUse"/>
<linearGradient id="linearGradient3613" xlink:href="#linearGradient3737" y1="20.221" y2="138.661" x2="0" gradientUnits="userSpaceOnUse"/>
<linearGradient id="linearGradient3617" xlink:href="#linearGradient3700" y1="90" y2="5.988" x2="0" gradientUnits="userSpaceOnUse"/>
<radialGradient cx="48" cy="90.172" gradientTransform="matrix(1.15731 0 0 .99591 -7.55102 .19713)" r="42" id="radialGradient3619" xlink:href="#linearGradient3737" gradientUnits="userSpaceOnUse"/>
</defs>
<path opacity=".08" fill="url(#linearGradient3780)" d="m12-95.0312c-5.5111,0-10.0312,4.5202-10.0312,10.0312v71c0,5.5111 4.5202,10.0312 10.0312,10.0312h72c5.5111,0 10.0312-4.5202 10.0312-10.0312v-71c0-5.5111-4.5202-10.0312-10.0312-10.0312h-72z" transform="scale(1 -1)"/>
<path opacity=".1" fill="url(#linearGradient3780)" d="m12-94.0312c-4.9716,0-9.0312,4.0596-9.0312,9.0312v71c0,4.9716 4.0596,9.0312 9.0312,9.0312h72c4.9716,0 9.0312-4.0596 9.0312-9.0312v-71c0-4.9716-4.0596-9.0312-9.0312-9.0312h-72z" transform="scale(1 -1)"/>
<path opacity=".2" fill="url(#linearGradient3780)" d="m12-93c-4.4091,0-8,3.5909-8,8v71c0,4.4091 3.5909,8 8,8h72c4.4091,0 8-3.5909 8-8v-71c0-4.4091-3.5909-8-8-8h-72z" transform="scale(1 -1)"/>
<path opacity=".3" fill="url(#linearGradient3780)" d="m12-92h72a7,7 0 0,1 7,7v71a7,7 0 0,1 -7,7h-72a7,7 0 0,1 -7-7v-71a7,7 0 0,1 7-7" transform="scale(1 -1)"/>
<path opacity=".45" fill="url(#linearGradient3721)" d="m12-91h72a6,6 0 0,1 6,6v72a6,6 0 0,1 -6,6h-72a6,6 0 0,1 -6-6v-72a6,6 0 0,1 6-6" transform="scale(1 -1)"/>
<path fill="url(#linearGradient3617)" d="m12,6h72a6,6 0 0,1 6,6v72a6,6 0 0,1 -6,6h-72a6,6 0 0,1 -6-6v-72a6,6 0 0,1 6-6"/>
<path opacity=".5" fill="url(#linearGradient3188)" d="m12,6c-3.324,0-6,2.676-6,6v2 68 2c0,.3347 .0413,.6507 .0938,.9688 .0487,.2956 .097,.5969 .1875,.875 .0099,.0304 .0209,.0636 .0312,.0938 .0989,.2878 .2349,.5475 .375,.8125 .1446,.2735 .3156,.5356 .5,.7812 .1844,.2456 .3738,.4735 .5938,.6875 .4399,.4281 .9429,.8145 1.5,1.0938 .2785,.1396 .5735,.2469 .875,.3438-.2562-.1002-.4867-.2363-.7188-.375-.0074-.0044-.0239,.0045-.0312,0-.0319-.0193-.0623-.0425-.0938-.0625-.1204-.0767-.231-.1635-.3438-.25-.1062-.0808-.2133-.1611-.3125-.25-.1779-.1614-.3475-.3454-.5-.5312-.1076-.1303-.2184-.2653-.3125-.4062-.0251-.0384-.0384-.0859-.0625-.125-.0648-.103-.1302-.2045-.1875-.3125-.101-.1947-.2057-.4157-.2812-.625-.008-.0218-.0236-.0405-.0312-.0625-.0318-.0919-.0358-.1868-.0625-.2812-.0303-.1066-.0704-.203-.0938-.3125-.0729-.3415-.125-.6982-.125-1.0625v-2-68-2c0-2.7818 2.2182-5 5-5h2 68 2c2.7818,0 5,2.2182 5,5v2 68 2c0,.3643-.0521,.721-.125,1.0625-.0442,.2069-.0884,.3977-.1562,.5938-.0077,.022-.0233,.0407-.0312,.0625-.0627,.1737-.1384,.3674-.2188,.5312-.0416,.0828-.079,.17-.125,.25-.0546,.0972-.1268,.1883-.1875,.2812-.0941,.141-.2049,.276-.3125,.4062-.1432,.1744-.3031,.347-.4688,.5-.0112,.0102-.02,.0212-.0312,.0312-.1384,.1256-.2851,.2344-.4375,.3438-.1026,.0731-.2043,.1534-.3125,.2188-.0074,.0045-.0238-.0044-.0312,0-.232,.1387-.4625,.2748-.7188,.375 .3015-.0968 .5965-.2041 .875-.3438 .5571-.2792 1.0601-.6657 1.5-1.0938 .22-.214 .4094-.4419 .5938-.6875 .1844-.2456 .3554-.5077 .5-.7812 .1401-.265 .2761-.5247 .375-.8125 .0104-.0308 .0213-.0627 .0312-.0938 .0905-.2781 .1388-.5794 .1875-.875 .0524-.318 .0938-.634 .0938-.9688v-2-68-2c0-3.324-2.676-6-6-6h-72z"/>
<path opacity=".2" fill="url(#radialGradient3619)" d="m12,90c-3.324,0-6-2.676-6-6v-2-68-2c0-.3347 .0413-.6507 .0938-.9688 .0487-.2956 .097-.5969 .1875-.875 .0099-.0304 .0209-.0636 .0312-.0938 .0989-.2878 .2349-.5475 .375-.8125 .1446-.2735 .3156-.5356 .5-.7812 .1844-.2456 .3738-.4735 .5938-.6875 .4399-.4281 .9429-.8145 1.5-1.0938 .2785-.1396 .5735-.2469 .875-.3438-.2562,.1002-.4867,.2363-.7188,.375-.0074,.0044-.0239-.0045-.0312,0-.0319,.0193-.0623,.0425-.0938,.0625-.1204,.0767-.231,.1635-.3438,.25-.1062,.0808-.2133,.1611-.3125,.25-.1779,.1614-.3475,.3454-.5,.5312-.1076,.1303-.2184,.2653-.3125,.4062-.0251,.0384-.0384,.0859-.0625,.125-.0648,.103-.1302,.2045-.1875,.3125-.101,.1947-.2057,.4157-.2812,.625-.008,.0218-.0236,.0405-.0312,.0625-.0318,.092-.0358,.1868-.0625,.2812-.0303,.1066-.0704,.203-.0938,.3125-.0729,.3415-.125,.6982-.125,1.0625v2 68 2c0,2.7818 2.2182,5 5,5h2 68 2c2.7818,0 5-2.2182 5-5v-2-68-2c0-.3643-.0521-.721-.125-1.0625-.0442-.2069-.0884-.3977-.1562-.5938-.0077-.022-.0233-.0407-.0312-.0625-.0627-.1737-.1384-.3674-.2188-.5312-.0416-.0828-.079-.17-.125-.25-.0546-.0972-.1268-.1883-.1875-.2812-.0941-.141-.2049-.276-.3125-.4062-.1432-.1745-.3031-.347-.4688-.5-.0112-.0102-.02-.0211-.0312-.0312-.1384-.1256-.2851-.2344-.4375-.3438-.1026-.0732-.2043-.1534-.3125-.2188-.0074-.0045-.0238,.0044-.0312,0-.232-.1387-.4625-.2748-.7188-.375 .3015,.0968 .5965,.2041 .875,.3438 .5571,.2792 1.0601,.6657 1.5,1.0938 .22,.214 .4094,.4419 .5938,.6875 .1844,.2456 .3554,.5077 .5,.7812 .1401,.265 .2761,.5247 .375,.8125 .0104,.0308 .0213,.0627 .0312,.0938 .0905,.2781 .1388,.5794 .1875,.875 .0524,.318 .0938,.634 .0938,.9688v2 68 2c0,3.324-2.676,6-6,6h-72z"/>
<path opacity=".1" fill="url(#linearGradient3613)" filter="url(#filter3794)" stroke="#fff" stroke-linecap="round" stroke-width=".5" d="m27,15h42a12,12 0 0,1 12,12v42a12,12 0 0,1 -12,12h-42a12,12 0 0,1 -12-12v-42a12,12 0 0,1 12-12" clip-path="url(#clipPath3613)"/>
<path fill="url(#linearGradient3736)" d="m-43,16.0001c-6.5781,0-11.9107,4.9335-11.9107,11.0192 .016,.6974 .0261,1.4938 .0993,2.3613-1.041,.5501-1.1767,2.7014-.2481,4.8701 .3581,.8363 .8465,1.5158 1.34,2.0661 .0164,.0184 .0331,.0312 .0496,.0491 .1178,.573 .2049,1.0262 .3474,1.6726 .4413,1.3124 2.265,3.781 3.871,5.9032 .1602,1.6371 .1733,3.2539-.1489,5.1161-4.6224,3.8014-16.4445,5.5096-16.4268,9.445l-1.5881,10.2321c0,2.0964 3.1594,4.0158 8.1886,5.3128l.6948,2.804a1.7296,1.7144 0 0,0 1.0918,1.1314c.2232,.0856 .3808,.2667 .9926,.4427 3.2227,.9274 8.1299,1.5742 13.6476,1.5742 5.5177,0 10.4745-.6467 13.6973-1.5742 .6118-.1761 .7693-.3572 .9926-.4427a1.7296,1.7144 0 0,0 1.0422-1.0822l.8437-2.9516c4.9063-1.2949 8.0397-3.1476 8.0397-5.2145l-1.5881-10.2321c-.0189-3.3682-11.9107-5.5096-16.4764-9.4451-.1849-1.5075-.1934-2.9917-.0993-4.4765 1.4601-2.2326 3.3824-5.0898 3.871-6.5427 .1796-.7524 .2576-1.2724 .397-1.9185 .4312-.5224 .8232-1.126 1.1414-1.8693 .8818-2.0595 .7995-4.0538-.0993-4.7225 .0628-.8949 .1226-1.744 .1489-2.5088 0-6.0857-5.3326-11.0192-11.9107-11.0192z"/>
<path opacity=".1" d="m-43,16c-6.5781,0-11.9062,4.9455-11.9062,11.0312 .016,.6974 .0206,1.4763 .0938,2.3438-1.041,.5501-1.1786,2.7063-.25,4.875 .3581,.8363 .8503,1.5122 1.3438,2.0625 .0164,.0184 .0459,.0446 .0625,.0625 .1178,.573 .2013,1.0099 .3438,1.6562 .4413,1.3124 2.2691,3.7841 3.875,5.9062 .1602,1.6371 .166,3.2628-.1562,5.125-4.6224,3.8014-16.4552,5.5021-16.4375,9.4375l-1.5938,10.25c0,2.0964 3.1583,4.0155 8.1875,5.3125l.7188,2.7812a1.7296,1.7144 0 0,0 1.0938,1.125c.2232,.0856 .357,.2927 .9688,.4688 3.2227,.9274 8.1385,1.5625 13.6562,1.5625 5.5177,0 10.4648-.6351 13.6875-1.5625 .6118-.1761 .7768-.3832 1-.4688a1.7296,1.7144 0 0,0 1.0312-1.0625l.8438-2.9688c4.9063-1.2949 8.0625-3.1206 8.0625-5.1875l-1.5938-10.25c-.0189-3.3682-11.903-5.5021-16.4688-9.4375-.1849-1.5075-.2191-2.984-.125-4.4688 1.4601-2.2326 3.3864-5.1096 3.875-6.5625 .1796-.7524 .2668-1.2602 .4062-1.9062 .4312-.5224 .838-1.1316 1.1562-1.875 .8818-2.0595 .7738-4.0501-.125-4.7188 .0628-.8949 .13-1.7352 .1562-2.5 0-6.0857-5.3282-11.0312-11.9062-11.0312zm0,1.9375c5.5891,0 9.932,4.0976 9.9688,9.0312 .0002,.021 0,.0415 0,.0625-.0254,.6888-.063,1.4916-.125,2.375a1.9261,1.9261 0 0,0 .625,1.5625c-.0487-.0359 .081,.1018 .0938,.4688 .017,.4893-.1274,1.2653-.4688,2.0625-.2344,.5475-.5332,.9922-.875,1.4062a1.9261,1.9261 0 0,0 -.375,.8125c-.1385,.6415-.2294,1.1236-.375,1.75-.1404,.3902-.6918,1.4197-1.375,2.5312-.6997,1.1385-1.5463,2.4074-2.2812,3.5312a1.9261,1.9261 0 0,0 -.3125,.9375c-.1011,1.5947-.0436,3.214 .1562,4.8438a1.9261,1.9261 0 0,0 .6562,1.2188c2.7784,2.3948 6.9709,3.8225 10.4688,5.25 1.7489,.7138 3.3258,1.3894 4.3125,2 .4934,.3053 .8304,.6212 .9688,.7812 .0266,.0308 .0203,.0168 .0312,.0312 .0028,.0078-.0026,.0252 0,.0312a1.9261,1.9261 0 0,0 .0312,.1562l1.5625,9.9688c0,.0531-.1468,.5408-1.2812,1.25-1.1345,.7092-3.008,1.446-5.3438,2.0625a1.9261,1.9261 0 0,0 -1.3438,1.3438l-.7812,2.7812c-.6684,.2716-.4899,.3224-.7812,.4062-2.9439,.8472-7.7863,1.4688-13.1562,1.4688-5.3699,0-10.1779-.6206-13.125-1.4688-.2841-.0818 .0101-.0917-.7812-.4062l-.6562-2.5938a1.9261,1.9261 0 0,0 -1.4062-1.4062c-2.3866-.6155-4.2598-1.363-5.4062-2.0938-1.1465-.7307-1.3125-1.2627-1.3125-1.3438l1.5625-9.9688a1.9261,1.9261 0 0,0 .0312-.2812c-.0001-.0182 .0829-.3789 1.0312-1 .9483-.6211 2.4877-1.2868 4.2188-1.9688 3.462-1.364 7.6437-2.6454 10.4688-4.9688a1.9261,1.9261 0 0,0 .6875-1.1562c.355-2.0516 .328-3.9007 .1562-5.6562a1.9261,1.9261 0 0,0 -.375-.9688c-.798-1.0545-1.6358-2.1934-2.3125-3.1875-.6653-.9774-1.1561-1.8961-1.25-2.1562-.0016-.0045-.0299-.0272-.0312-.0312-.1066-.4958-.1772-.9-.2812-1.4062a1.9261,1.9261 0 0,0 -.4688-.9375c-.1567-.1698-.1726-.1893-.0312-.0312-.3951-.4406-.7455-.9368-1-1.5312-.3599-.8404-.4966-1.6828-.4688-2.1875 .0139-.2523 .0599-.3554 .0625-.375a1.9261,1.9261 0 0,0 .7812-1.7188c-.0647-.7671-.0465-1.4757-.0625-2.1875 0-.0105-0-.0207 0-.0312 .0184-4.9477 4.3678-9.0625 9.9688-9.0625z"/>
<path opacity=".15" d="m-43,16c-6.5781,0-11.9062,4.9455-11.9062,11.0312 .016,.6974 .0206,1.4763 .0938,2.3438-1.041,.5501-1.1786,2.7063-.25,4.875 .3581,.8363 .8503,1.5122 1.3438,2.0625 .0164,.0184 .0459,.0446 .0625,.0625 .1178,.573 .2013,1.0099 .3438,1.6562 .4413,1.3124 2.2691,3.7841 3.875,5.9062 .1602,1.6371 .166,3.2628-.1562,5.125-4.6224,3.8014-16.4552,5.5021-16.4375,9.4375l-1.5938,10.25c0,2.0964 3.1583,4.0155 8.1875,5.3125l.7188,2.7812a1.7296,1.7144 0 0,0 1.0938,1.125c.2232,.0856 .357,.2927 .9688,.4688 3.2227,.9274 8.1385,1.5625 13.6562,1.5625 5.5177,0 10.4648-.6351 13.6875-1.5625 .6118-.1761 .7768-.3832 1-.4688a1.7296,1.7144 0 0,0 1.0312-1.0625l.8438-2.9688c4.9063-1.2949 8.0625-3.1206 8.0625-5.1875l-1.5938-10.25c-.0189-3.3682-11.903-5.5021-16.4688-9.4375-.1849-1.5075-.2191-2.984-.125-4.4688 1.4601-2.2326 3.3864-5.1096 3.875-6.5625 .1796-.7524 .2668-1.2602 .4062-1.9062 .4312-.5224 .838-1.1316 1.1562-1.875 .8818-2.0595 .7738-4.0501-.125-4.7188 .0628-.8949 .13-1.7352 .1562-2.5 0-6.0857-5.3282-11.0312-11.9062-11.0312zm0,1.0625c6.0394,0 10.8253,4.4797 10.8438,9.9375 0,.0105 0,.0207 0,.0312-.0258,.7231-.0938,1.5476-.1562,2.4375a1.0516,1.0516 0 0,0 .4375,.9062c.0647,.0481 .29,.3833 .3125,1.0312 .0225,.6479-.1447,1.5347-.5312,2.4375-.2725,.6364-.6176,1.1618-1,1.625a1.0516,1.0516 0 0,0 -.2188,.4375c-.137,.6345-.2194,1.1164-.375,1.7812-.0084,.0359-.0224,.0567-.0312,.0938-.1966,.5461-.7483,1.566-1.4375,2.6875-.7113,1.1573-1.5485,2.4421-2.2812,3.5625a1.0516,1.0516 0 0,0 -.1875,.5c-.0979,1.5448-.0368,3.082 .1562,4.6562a1.0516,1.0516 0 0,0 .3438,.6562c2.5534,2.2009 6.6999,3.6889 10.2188,5.125 1.7594,.718 3.3593,1.4266 4.4375,2.0938 .5391,.3336 .9596,.6425 1.1875,.9062 .2279,.2637 .2494,.4191 .25,.5312a1.0516,1.0516 0 0,0 .0312,.1562l1.5625,10.0938c0,.4982-.4314,1.2148-1.6875,2-1.2561,.7852-3.2047,1.5257-5.5938,2.1562a1.0516,1.0516 0 0,0 -.7188,.75l-.8125,2.9062-.0312,.0312c-.0095,.0239-.0015,.0346 0,.0312 .0015-.0034-.0204-.0233-.0312,0-.0217,.0466 .0243,.0172 0,.0625-.0243,.0453-.0045-.0126-.0312,.0312-.0268,.0439-.0021-.011-.0312,.0312-.0315,.0406 .0024-.0075-.0312,.0312-.0337,.0388 .0045-.0056-.0312,.0312-.0358,.0369 .0065-.0036-.0312,.0312-.0378,.0348 .0084-.0014-.0312,.0312-.0198,.0163-.0101,.0313 0,.0312-.0414,.0304 .0117-.0281-.0312,0-.043,.0281 .0132,.0056-.0312,.0312-.0445,.0256-.0167,.0081-.0625,.0312-.0458,.0232 .0158-.0206-.0312,0-.047,.0206 .0169-.018-.0312,0a1.0516,1.0516 0 0,0 0,.0312c-.591,.2266-.4568,.3082-.9062,.4375-3.0705,.8836-7.9692,1.5-13.4062,1.5-5.437,0-10.3028-.6159-13.375-1.5-.4404-.1267-.2536-.1992-.875-.4375a1.0516,1.0516 0 0,0 -.0312-.0312c-.0517-.0176 .0194,.0206-.0312,0-.0506-.0206-.0132-.0077-.0625-.0312-.0493-.0236 .0166,.0264-.0312,0-.0478-.0264 .015-.0021-.0312-.0312-.0462-.0292 .0132,.0006-.0312-.0312-.0444-.0319 .0112,.0032-.0312-.0312-.0212-.0172-.0338-.0089-.0312,0-.0404-.0369 .0069,.008-.0312-.0312-.0381-.0392 .0045,.0101-.0312-.0312 .0086,.0028 .0166-.0095 0-.0312-.0332-.0434-.0007,.0141-.0312-.0312-.0306-.0453-.0034,.0158-.0312-.0312-.0279-.0471 .025,.0174 0-.0312-.025-.0486-.0092,.0188-.0312-.0312-.011-.025-.0015-.0349 0-.0312v-.0312c-.0191-.0513-.0153,.0211-.0312-.0312l-.6875-2.7188a1.0516,1.0516 0 0,0 -.7812-.7812c-2.4447-.6305-4.3864-1.4094-5.6562-2.2188-1.2698-.8094-1.7188-1.5423-1.7188-2.0625l1.5625-10.0938a1.0516,1.0516 0 0,0 .0312-.1562c-.0021-.4566 .3844-1.029 1.4375-1.7188 1.0531-.6897 2.6277-1.3741 4.375-2.0625 3.4946-1.3768 7.627-2.7123 10.2188-4.8438a1.0516,1.0516 0 0,0 .375-.625c.3401-1.9656 .3227-3.7045 .1562-5.4062a1.0516,1.0516 0 0,0 -.1875-.5312c-.8003-1.0575-1.6506-2.2005-2.3438-3.2188-.6931-1.0182-1.2305-1.9767-1.375-2.4062-.1214-.5582-.2023-.9951-.3125-1.5312a1.0516,1.0516 0 0,0 -.25-.5c-.0233-.0252-.0468-.0175-.0625-.0312-.4398-.4904-.8547-1.077-1.1562-1.7812-.4073-.9512-.5684-1.9192-.5312-2.5938 .0372-.6746 .2768-.9186 .3125-.9375a1.0516,1.0516 0 0,0 .5625-1.0312c-.0681-.8075-.078-1.5479-.0938-2.25 0-.0105-0-.0207 0-.0312 .0184-5.4578 4.8043-9.9375 10.8438-9.9375z"/>
<path opacity=".5" d="m-43,16c-6.5781,0-11.9062,4.9455-11.9062,11.0312 .0048,.2093 .0256,.4298 .0312,.6562 .1987-5.9247 5.4228-10.6875 11.875-10.6875 6.3839,0 11.5729,4.6631 11.875,10.5 .0071-.1491 .0263-.3253 .0312-.4688 0-6.0857-5.3282-11.0312-11.9062-11.0312zm-11.875,13.4062c-.6096,.3701-.8738,1.329-.7812,2.5 .0953-.7221 .3878-1.2903 .8438-1.5312-.0284-.3364-.0491-.6554-.0625-.9688zm23.6875,.1875c-.0211,.3208-.0389,.6018-.0625,.9375 .4078,.3034 .6297,.8934 .6875,1.625 .1366-1.1547-.0914-2.1058-.625-2.5625zm-18.1875,17.1562c-.0291,.7355-.0793,1.5066-.2188,2.3125-4.6224,3.8014-16.4552,5.5021-16.4375,9.4375l-1.5938,10.25c0,.1736 .0199,.3291 .0625,.5l1.5312-9.75c-.0177-3.9354 11.8151-5.6361 16.4375-9.4375 .2034-1.1756 .2353-2.2656 .2188-3.3125zm12.7812,.4062c-.0082,.9636 .0365,1.9296 .1562,2.9062 4.5658,3.9354 16.4499,6.0693 16.4688,9.4375l1.5312,9.75c.0422-.168 .0625-.3288 .0625-.5l-1.5938-10.25c-.0189-3.3682-11.903-5.5021-16.4688-9.4375-.0783-.6387-.1356-1.2741-.1562-1.9062z"/>
<path opacity=".5" fill="#fff" d="m-31.125,27.5c-.0307,.646-.074,1.3042-.125,2.0312 .0225,.0167 .041,.0441 .0625,.0625 .0352-.5344 .0773-1.0846 .0938-1.5625 0-.1796-.0221-.3537-.0312-.5312zm-23.75,.1875c-.0039,.1156-.0312,.2273-.0312,.3438 .0098,.427 .01,.8802 .0312,1.375 .0193-.0117 .0425-.0207 .0625-.0312-.0512-.6071-.0494-1.1596-.0625-1.6875zm-.7812,4.2812c-.1065,.9186 .0832,2.0888 .5938,3.2812 .3581,.8363 .8503,1.5122 1.3438,2.0625 .0164,.0184 .0459,.0446 .0625,.0625 .1178,.573 .2013,1.0099 .3438,1.6562 .4413,1.3124 2.2691,3.7841 3.875,5.9062 .059,.6036 .0528,1.2011 .0625,1.8125 .0381-.964 .0283-1.8839-.0625-2.8125-1.6059-2.1221-3.4337-4.5939-3.875-5.9062-.1425-.6463-.226-1.0832-.3438-1.6562-.0166-.0179-.0461-.0441-.0625-.0625-.4935-.5503-.9857-1.2262-1.3438-2.0625-.3387-.791-.5305-1.5717-.5938-2.2812zm25.0938,.1875c-.0775,.6553-.2512,1.3668-.5625,2.0938-.3183,.7434-.7251,1.3526-1.1562,1.875-.1395,.6461-.2267,1.1538-.4062,1.9062-.4886,1.4529-2.4149,4.3299-3.875,6.5625-.0212,.3345 .0099,.6652 0,1 1.4601-2.2326 3.3864-5.1096 3.875-6.5625 .1796-.7524 .2668-1.2602 .4062-1.9062 .4312-.5224 .838-1.1316 1.1562-1.875 .4817-1.125 .6321-2.2131 .5625-3.0938zm-37,37.0938-.0625,.5c0,2.0964 3.1583,4.0155 8.1875,5.3125l.7188,2.7812a1.7296,1.7144 0 0,0 1.0938,1.125c.2232,.0856 .357,.2927 .9688,.4688 3.2227,.9274 8.1385,1.5625 13.6562,1.5625 5.5177,0 10.4648-.6351 13.6875-1.5625 .6118-.1761 .7768-.3832 1-.4688a1.7296,1.7144 0 0,0 1.0312-1.0625l.8438-2.9688c4.9063-1.2949 8.0625-3.1206 8.0625-5.1875l-.0625-.5c-.4674,1.861-3.5,3.4998-8,4.6875l-.8438,2.9688a1.7296,1.7144 0 0,1 -1.0312,1.0625c-.2232,.0856-.3882,.2927-1,.4688-3.2227,.9274-8.1698,1.5625-13.6875,1.5625-5.5177,0-10.4335-.6351-13.6562-1.5625-.6118-.1761-.7455-.3831-.9688-.4688a1.7296,1.7144 0 0,1 -1.0938-1.125l-.7188-2.7812c-4.6127-1.1896-7.6532-2.9194-8.125-4.8125z"/>
<path fill="url(#linearGradient2902)" d="m-67.6875,24c-4.9336,0-8.9375,3.6857-8.9375,8.25 .012,.5231 .0076,1.1306 .0625,1.7812-.7808,.4126-.8839,2.0297-.1875,3.6562 .2686,.6272 .6299,1.1498 1,1.5625 .0123,.0138 .0501,.0178 .0625,.0312 .0884,.4298 .1432,.7652 .25,1.25 .331,.9843 1.7018,2.8459 2.9062,4.4375 .1201,1.2278 .1167,2.4159-.125,3.8125-3.4668,2.8511-12.3258,4.1422-12.3125,7.0938l-1.1875,7.6875c0,1.5723 2.3531,2.996 6.125,3.9688l.5312,2.0938a1.2972,1.2858 0 0,0 .8125,.875c.1674,.0642 .2912,.1805 .75,.3125 2.3037,.663 5.786,1.1135 9.6875,1.1562-.8229-.8858-1.375-1.9423-1.375-3.2188a2.0082,2.0082 0 0,1 .0312-.3125l1.5625-9.9375 .0312-.3125h.0625c.1487-1.7991 1.3855-3.0955 2.7188-3.9688 1.4196-.9298 3.1332-1.6329 4.9375-2.3438 .5905-.2327 1.1893-.4833 1.7812-.7188-1.6607-.715-3.2354-1.4735-4.2812-2.375-.1386-1.1306-.1331-2.2302-.0625-3.3438 1.0951-1.6744 2.5086-3.8166 2.875-4.9062 .1347-.5643 .2079-.9529 .3125-1.4375 .3234-.3918 .605-.8487 .8438-1.4062 .6614-1.5446 .6116-3.0297-.0625-3.5312 .0471-.6712 .1053-1.3326 .125-1.9062 0-4.5643-4.0039-8.25-8.9375-8.25z"/>
<path opacity=".5" d="m-67.6875,24c-4.9336,0-8.9375,3.6857-8.9375,8.25 .0034,.147 .0288,.3406 .0312,.5 .2818-4.3287 4.1556-7.75 8.9062-7.75 4.705,0 8.5588,3.3555 8.9062,7.625 .0065-.1192 .0274-.262 .0312-.375 0-4.5643-4.0039-8.25-8.9375-8.25zm-8.9062,10.0625c-.4821,.2875-.6925,1.0617-.5938,2 .0844-.4897 .3058-.8626 .625-1.0312-.0298-.3538-.0243-.6471-.0312-.9688zm17.7812,.1562c-.0226,.3161-.0393,.6074-.0625,.9375 .2409,.1793 .4225,.4866 .5,.875 .0826-.8073-.0666-1.4763-.4375-1.8125zm-13.6562,12.6562c-.0184,.6063-.0705,1.2304-.1875,1.9062-3.4668,2.8511-12.3258,4.1422-12.3125,7.0938l-1.1875,7.6875c0,.1663 .011,.3374 .0625,.5l1.125-7.1875c-.0133-2.9516 8.8457-4.2427 12.3125-7.0938 .1812-1.0475 .2259-1.9887 .1875-2.9062zm9.5938,.5625c-.0168,.7744-.003,1.5544 .0938,2.3438 .79,.681 1.8911,1.2831 3.0938,1.8438 .395-.1602 .7941-.3122 1.1875-.4688-1.6607-.715-3.2354-1.4735-4.2812-2.375-.0552-.45-.0793-.9007-.0938-1.3438zm-6.6875,21.9062-.0312,.0938a2.0082,2.0082 0 0,0 -.0312,.3125c0,.8178 .2457,1.5373 .625,2.1875 .2535,.0063 .4927,.0284 .75,.0312-.6902-.743-1.1693-1.6128-1.3125-2.625z"/>
<path opacity=".1" d="m-67.6875,24c-4.9336,0-8.9375,3.6857-8.9375,8.25 .012,.5231 .0076,1.1306 .0625,1.7812-.7808,.4126-.8839,2.0297-.1875,3.6562 .2686,.6272 .6299,1.1498 1,1.5625 .0123,.0138 .0501,.0178 .0625,.0312 .0884,.4298 .1432,.7652 .25,1.25 .331,.9843 1.7018,2.8459 2.9062,4.4375 .1201,1.2278 .1167,2.4159-.125,3.8125-3.4668,2.8511-12.3258,4.1422-12.3125,7.0938l-1.1875,7.6875c0,1.5723 2.3531,2.996 6.125,3.9688l.5312,2.0938a1.2972,1.2858 0 0,0 .8125,.875c.1674,.0642 .2912,.1805 .75,.3125 2.3037,.663 5.786,1.1135 9.6875,1.1562-.8229-.8858-1.375-1.9423-1.375-3.2188a2.0082,2.0082 0 0,1 .0312-.3125l1.5625-9.9375 .0312-.3125h.0625c.1487-1.7991 1.3855-3.0955 2.7188-3.9688 1.4196-.9298 3.1332-1.6329 4.9375-2.3438 .5905-.2327 1.1893-.4833 1.7812-.7188-1.6607-.715-3.2354-1.4735-4.2812-2.375-.1386-1.1306-.1331-2.2302-.0625-3.3438 1.0951-1.6744 2.5086-3.8166 2.875-4.9062 .1347-.5643 .2079-.9529 .3125-1.4375 .3234-.3918 .605-.8487 .8438-1.4062 .6614-1.5446 .6116-3.0297-.0625-3.5312 .0471-.6712 .1053-1.3326 .125-1.9062 0-4.5643-4.0039-8.25-8.9375-8.25zm0,1.9375c3.9463,0 6.9632,2.8443 7,6.25 .0002,.021 0,.0415 0,.0625-.0189,.4873-.078,1.111-.125,1.7812a1.9338,1.9338 0 0,0 .5,1.4375c.0018-.0028 .0289-.0126 .0312,.0938 .0062,.2781-.077,.8249-.3125,1.375-.1726,.403-.3581,.6898-.5625,.9375a1.9338,1.9338 0 0,0 -.375,.8125c-.0958,.4437-.1843,.7966-.2812,1.2188-.0658,.1957-.4586,1.0052-.9688,1.8438-.5102,.8385-1.1381,1.785-1.6875,2.625a1.9338,1.9338 0 0,0 -.3125,.9375c-.0752,1.1874-.0641,2.4316 .0938,3.7188a1.9338,1.9338 0 0,0 .6562,1.2188c.3351,.2888 .7231,.5045 1.0938,.75-1.1376,.4887-2.3049,.9133-3.3438,1.5938-1.4352,.94-2.9346,2.4939-3.4062,4.6562a1.9338,1.9338 0 0,0 -.25,.75l-.0312,.3125-1.5312,9.8125a1.9338,1.9338 0 0,0 0,.625h-.0625c0,.386 .1814,.7016 .25,1.0625-2.4359-.1838-4.6623-.4318-6.0938-.8438-.1371-.0394-.2624-.1248-.3125-.1562l-.4375-1.75a1.9338,1.9338 0 0,0 -1.4062-1.4062c-1.7592-.4537-3.1204-1.0314-3.9062-1.5312-.5894-.3749-.7232-.609-.75-.625l1.1562-7.3438a1.9338,1.9338 0 0,0 .0312-.1875c.0056,.0361 .0738-.1161 .5625-.4375 .6516-.4285 1.7755-.9278 3.0625-1.4375 2.5741-1.0194 5.7219-1.9647 7.9688-3.8125a1.9338,1.9338 0 0,0 .6875-1.1562c.2725-1.5751 .2885-2.9921 .1562-4.3438a1.9338,1.9338 0 0,0 -.4062-.9688c-.5963-.788-1.2204-1.641-1.7188-2.375-.4984-.734-.8492-1.4544-.875-1.5312-.0684-.331-.1082-.6141-.1875-1a1.9338,1.9338 0 0,0 -.5-.9375c-.0165-.0179-.0153,.0168-.0312,0-.0087-.0097-.0226-.0214-.0312-.0312-.2371-.27-.4567-.6068-.625-1-.2434-.5684-.3281-1.1541-.3125-1.4375a1.9338,1.9338 0 0,0 .6562-1.625c-.0448-.5313-.0503-1.0681-.0625-1.625 0-.0105-.0001-.0208 0-.0312 .0185-3.4196 3.0416-6.2812 7-6.2812z"/>
<path opacity=".5" fill="#fff" d="m-58.7812,32.625c-.0264,.486-.0559,.9923-.0938,1.5312 .0241,.0179 .04,.0421 .0625,.0625 .0234-.3266 .0525-.6773 .0625-.9688 0-.2114-.0144-.4176-.0312-.625zm-17.8125,.125c-.0109,.1666-.0312,.3308-.0312,.5 .0055,.2386 .0254,.5426 .0312,.8125 .0126-.0075 .0183-.0244 .0312-.0312-.0395-.4678-.025-.8734-.0312-1.2812zm-.5938,3.3125c-.122,.7081 .0258,1.6635 .4375,2.625 .2686,.6272 .6299,1.1498 1,1.5625 .0123,.0138 .0501,.0178 .0625,.0312 .0884,.4298 .1432,.7652 .25,1.25 .331,.9843 1.7018,2.8459 2.9062,4.4375 .028,.2859 .0494,.559 .0625,.8438 .0161-.6251-.0024-1.2298-.0625-1.8438-1.2045-1.5916-2.5753-3.4532-2.9062-4.4375-.1068-.4848-.1616-.8202-.25-1.25-.0124-.0134-.0502-.0174-.0625-.0312-.3701-.4127-.7314-.9353-1-1.5625-.2421-.5653-.3835-1.1121-.4375-1.625zm18.8125,.0312c-.0577,.4981-.1991,1.0369-.4375,1.5938-.2387,.5575-.5204,1.0145-.8438,1.4062-.1046,.4846-.1778,.8732-.3125,1.4375-.3664,1.0897-1.7799,3.2318-2.875,4.9062-.0425,.6704-.0532,1.33-.0312,2 .0073-.3348 .0099-.6639 .0312-1 1.0951-1.6744 2.5086-3.8166 2.875-4.9062 .1347-.5643 .2079-.9529 .3125-1.4375 .3234-.3918 .605-.8487 .8438-1.4062 .4134-.9654 .5585-1.9005 .4375-2.5938zm-1.3125,15.5312c-.1993,.0808-.3957,.172-.5938,.25-1.8043,.7109-3.5179,1.4139-4.9375,2.3438-1.3332,.8732-2.5701,2.1697-2.7188,3.9688h-.0625l-.0312,.3125-1.5625,9.9375a2.0082,2.0082 0 0,0 -.0312,.3125c0,.2058 .035,.3992 .0625,.5938l1.5312-9.8438 .0312-.3125h.0625c.1487-1.7991 1.3855-3.0955 2.7188-3.9688 1.4196-.9298 3.1332-1.6329 4.9375-2.3438 .5905-.2327 1.1893-.4833 1.7812-.7188-.4062-.1749-.798-.3497-1.1875-.5312zm-26.4062,12.4375-.0625,.5c0,1.5723 2.3531,2.996 6.125,3.9688l.5312,2.0938a1.2972,1.2858 0 0,0 .8125,.875c.1674,.0642 .2912,.1805 .75,.3125 2.3037,.663 5.786,1.1135 9.6875,1.1562-.2957-.3183-.5373-.6666-.75-1.0312-3.5895-.0894-6.7858-.5058-8.9375-1.125-.4588-.132-.5826-.2483-.75-.3125a1.2972,1.2858 0 0,1 -.8125-.875l-.5312-2.0938c-3.373-.8699-5.6267-2.0939-6.0625-3.4688z"/>
<path opacity=".15" d="m-67.6875,24c-4.9336,0-8.9375,3.6857-8.9375,8.25 .012,.5231 .0076,1.1306 .0625,1.7812-.7808,.4126-.8839,2.0297-.1875,3.6562 .2686,.6272 .6299,1.1498 1,1.5625 .0123,.0138 .0501,.0178 .0625,.0312 .0884,.4298 .1432,.7652 .25,1.25 .331,.9843 1.7018,2.8459 2.9062,4.4375 .1201,1.2278 .1167,2.4159-.125,3.8125-3.4668,2.8511-12.3258,4.1422-12.3125,7.0938l-1.1875,7.6875c0,1.5723 2.3531,2.996 6.125,3.9688l.5312,2.0938a1.2972,1.2858 0 0,0 .8125,.875c.1674,.0642 .2912,.1805 .75,.3125 2.3037,.663 5.786,1.1135 9.6875,1.1562-.8229-.8858-1.375-1.9423-1.375-3.2188a2.0082,2.0082 0 0,1 .0312-.3125l1.5625-9.9375 .0312-.3125h.0625c.1487-1.7991 1.3855-3.0955 2.7188-3.9688 1.4196-.9298 3.1332-1.6329 4.9375-2.3438 .5905-.2327 1.1893-.4833 1.7812-.7188-1.6607-.715-3.2354-1.4735-4.2812-2.375-.1386-1.1306-.1331-2.2302-.0625-3.3438 1.0951-1.6744 2.5086-3.8166 2.875-4.9062 .1347-.5643 .2079-.9529 .3125-1.4375 .3234-.3918 .605-.8487 .8438-1.4062 .6614-1.5446 .6116-3.0297-.0625-3.5312 .0471-.6712 .1053-1.3326 .125-1.9062 0-4.5643-4.0039-8.25-8.9375-8.25zm0,1c4.4215,0 7.919,3.2562 7.9375,7.2188 0,.0105 0,.0207 0,.0312-.0192,.5274-.0779,1.1722-.125,1.8438a1.0047,1.0047 0 0,0 .4062,.875c-.0344-.0256 .115,.148 .125,.5938 .01,.4458-.125,1.0619-.4062,1.7188-.2043,.4772-.4259,.8706-.6875,1.1875a1.0047,1.0047 0 0,0 -.1875,.4062c-.1004,.465-.1673,.8567-.2812,1.3438-.0031,.0132-.0281,.0179-.0312,.0312-.0032,.0091 .0035,.053 0,.0625-.1412,.3835-.5619,1.1148-1.0625,1.9375-.5226,.859-1.139,1.7863-1.6875,2.625a1.0047,1.0047 0 0,0 -.1562,.5c-.073,1.1519-.0861,2.3193 .0625,3.5312a1.0047,1.0047 0 0,0 .3438,.625c.7006,.6039 1.7121,1.0052 2.625,1.4688-1.7565,.6935-3.4788,1.3991-4.9688,2.375-1.3116,.8591-2.4956,2.2575-2.9062,4.0938a1.0047,1.0047 0 0,0 -.3125,.625l-.0312,.25v.0625l-1.5625,9.875a1.0047,1.0047 0 0,0 .0625,.4688h-.0938c0,.7614 .19,1.4549 .4688,2.0938-3.0022-.1491-5.7264-.4896-7.5-1-.3544-.102-.2648-.1311-.6562-.2812a1.0047,1.0047 0 0,0 -.0312,0c-.0433-.0155 .011,.018-.0312,0 .0104-.003 .0206-.021 0-.0312-.0411-.0205 .0086,.0229-.0312,0-.0384-.0253 .0056-.0037-.0312-.0312-.0351-.0297 .002,.0318-.0312,0-.0333-.0318 .0313,.0025 0-.0312-.0292-.0355-.0042,.006-.0312-.0312-.0224-.0402 .0199,.0103 0-.0312-.0099-.0208-.0281-.0105-.0312,0-.0173-.0426 .0148,.0124 0-.0312l-.5312-2.0938a1.0047,1.0047 0 0,0 -.7188-.7188c-1.8201-.4694-3.27-1.0415-4.1875-1.625-.8952-.5694-1.1435-1.0559-1.1562-1.3438l1.1562-7.5625a1.0047,1.0047 0 0,0 0-.1562c-.0011-.2351 .2061-.6234 .9688-1.125 .7627-.5016 1.9456-1.0146 3.25-1.5312 2.6088-1.0332 5.7186-2.0113 7.7188-3.6562a1.0047,1.0047 0 0,0 .375-.625c.2577-1.4893 .2514-2.7703 .125-4.0625a1.0047,1.0047 0 0,0 -.1875-.5c-.5992-.7918-1.2342-1.6466-1.75-2.4062-.4912-.7235-.8844-1.3545-1-1.6562-.005-.0226 .0048-.0405 0-.0625-.0022-.0062-.0293-.0254-.0312-.0312-.0869-.4058-.1334-.71-.2188-1.125a1.0047,1.0047 0 0,0 -.2188-.5c-.0687-.0744-.0435-.0216-.0938-.0625-.2912-.3335-.5715-.76-.7812-1.25-.2937-.686-.4318-1.3485-.4062-1.8125 .0256-.464 .1978-.601 .125-.5625a1.0047,1.0047 0 0,0 .5312-.9688c-.0492-.5832-.0507-1.1497-.0625-1.6875 0-.0105-0-.0207 0-.0312 .0185-3.9625 3.516-7.2188 7.9375-7.2188z"/>
<path fill="url(#linearGradient3886)" d="m56,24c-7.1156,0-12.8182,5.3588-12.8182,12 .016,.7072 .0689,1.7294 .1364,2.5909-1.2168,.5164-1.3056,2.8846-.2727,5.3182 .4096,.965 .9312,1.706 1.5,2.3182 .1382,.6839 .1019,.991 .2727,1.7727 .4766,1.4298 2.3556,4.232 4.0909,6.5455 .1702,1.7767 .3467,3.5697 0,5.5909-5.0001,4.1484-17.8828,5.9327-17.8636,10.2273l-.2727,1.6364h50.4545l-.2727-1.6364c-.0205-3.6756-12.9248-5.9327-17.8636-10.2273-.1998-1.644-.2379-3.2899-.1364-4.9091 1.5812-2.4402 3.6964-5.6347 4.2273-7.2273 .1908-.8064 .2602-1.3511 .4091-2.0455 .4738-.5739 .8782-1.2231 1.2273-2.0455 .9812-2.3119 .9178-4.5189-.1364-5.1818 .0622-.9315 .109-1.9227 .1364-2.7273 0-6.6412-5.7026-12-12.8182-12z"/>
<path opacity=".6" fill="url(#linearGradient3081)" d="m31.5938,36c-4.7437,0-8.5625,3.5725-8.5625,8 .0107,.4715 .0488,1.1444 .0938,1.7188-.8112,.3443-.8448,1.9401-.1562,3.5625 .2731,.6434 .6208,1.1232 1,1.5312 .0921,.456 .0424,.6663 .1562,1.1875 .3177,.9532 1.5931,2.8327 2.75,4.375 .1134,1.1845 .2311,2.3713 0,3.7188-3.3334,2.7656-11.919,3.9494-11.9062,6.8125l-.1875,1.0938h17.7188c2.1694-1.7092 6.4061-3.0656 10.2812-4.625-2.3852-.9563-4.9725-1.9801-6.4688-3.2812-.1332-1.096-.1615-2.2018-.0938-3.2812 1.0541-1.6268 2.4586-3.7508 2.8125-4.8125 .1272-.5376 .182-.9121 .2812-1.375 .3159-.3826 .5798-.7955 .8125-1.3438 .6541-1.5413 .609-3.0268-.0938-3.4688 .0414-.621 .0755-1.2761 .0938-1.8125-0-4.4275-3.7875-8-8.5312-8z"/>
<path opacity=".5" fill="#fff" d="m43.2188,36.5c-.0074,.1686-.0312,.3296-.0312,.5 .0101,.4433 .0636,1.0505 .0938,1.625 .0131-.0061 .0179-.0256 .0312-.0312-.0545-.6953-.0729-1.4385-.0938-2.0938zm25.5625,.0312c-.0251,.6963-.0438,1.4381-.0938,2.1875 .0125,.0079 .019,.0229 .0312,.0312 .0293-.6045 .0761-1.2319 .0938-1.75 0-.1598-.0247-.3105-.0312-.4688zm-26.4375,4.8438c-.0852,.9852 .1406,2.2427 .6875,3.5312 .4096,.965 .9312,1.7004 1.5,2.3125 .1382,.6839 .1105,.9995 .2812,1.7812 .4766,1.4298 2.3585,4.2178 4.0938,6.5312 .0745,.7775 .155,1.5729 .1875,2.375 .0144-1.1584-.0826-2.2795-.1875-3.375-1.7353-2.3135-3.6172-5.1015-4.0938-6.5312-.1708-.7817-.1431-1.0973-.2812-1.7812-.5688-.6121-1.0904-1.3475-1.5-2.3125-.3733-.8795-.6089-1.7541-.6875-2.5312zm27.125,.0625c-.079,.7626-.2883,1.6018-.6562,2.4688-.349,.8224-.7449,1.4886-1.2188,2.0625-.1489,.6944-.2155,1.2248-.4062,2.0312-.5308,1.5925-2.6375,4.7786-4.2188,7.2188-.0462,.737-.0737,1.4741-.0625,2.2188 .0087-.4074 .0371-.8139 .0625-1.2188 1.5812-2.4402 3.6879-5.6262 4.2188-7.2188 .1908-.8064 .2574-1.3369 .4062-2.0312 .4738-.5739 .8697-1.2401 1.2188-2.0625 .5375-1.2664 .7337-2.5003 .6562-3.4688zm-46.4062,2.9688c-.0157,.1985-.0312,.3914-.0312,.5938 .0047,.2056 .0179,.4927 .0312,.75 .0198-.0104 .0417-.0224 .0625-.0312-.0343-.4384-.0453-.8926-.0625-1.3125zm17.0312,.0312c-.0193,.4435-.0311,.904-.0625,1.375 .0251,.0158 .0391,.0441 .0625,.0625 .0152-.2968 .0224-.6163 .0312-.875 0-.1917-.0173-.3742-.0312-.5625zm-17.5625,3.25c-.1099,.6876 .03,1.6336 .4375,2.5938 .2731,.6434 .6208,1.1232 1,1.5312 .0921,.456 .0424,.6663 .1562,1.1875 .3177,.9532 1.5931,2.8327 2.75,4.375 .0548,.5719 .108,1.1592 .125,1.75 .0591-.9578-.0399-1.8617-.125-2.75-1.1569-1.5423-2.4323-3.4218-2.75-4.375-.1139-.5212-.0641-.7315-.1562-1.1875-.3792-.4081-.7269-.8879-1-1.5312-.2342-.5518-.3726-1.0963-.4375-1.5938zm18,.0938c-.063,.4699-.1852,.9792-.4062,1.5-.2327,.5483-.4966,.9611-.8125,1.3438-.0992,.4629-.1541,.8374-.2812,1.375-.3539,1.0617-1.7584,3.1857-2.8125,4.8125-.0377,.6005-.0545,1.2019-.0312,1.8125 .0048-.2727 .0143-.5425 .0312-.8125 1.0541-1.6268 2.4586-3.7508 2.8125-4.8125 .1272-.5376 .182-.9121 .2812-1.375 .3159-.3826 .5798-.7955 .8125-1.3438 .3917-.9228 .507-1.8292 .4062-2.5zm-25.5938,20.2188l-.1562,1h16.75c.2486-.3471 .5662-.6828 .9688-1h-17.5625zm16,4-.1562,1 50.4375,0-.1562-1-50.125,0z"/>
<path opacity=".1" d="m56,24c-7.1156,0-12.8125,5.3588-12.8125,12 .016,.7072 .0575,1.7323 .125,2.5938-1.2168,.5164-1.3141,2.8789-.2812,5.3125 .4096,.965 .9312,1.7004 1.5,2.3125 .1382,.6839 .1105,.9995 .2812,1.7812 .4766,1.4298 2.3585,4.2178 4.0938,6.5312 .1702,1.7767 .3467,3.5725 0,5.5938-1.5099,1.2527-3.7499,2.2942-6.125,3.25-2.3852-.9563-4.9725-1.9801-6.4688-3.2812-.1332-1.096-.1615-2.2018-.0938-3.2812 1.0541-1.6268 2.4586-3.7508 2.8125-4.8125 .1272-.5376 .182-.9121 .2812-1.375 .3159-.3826 .5798-.7955 .8125-1.3438 .6541-1.5413 .609-3.0268-.0938-3.4688 .0414-.621 .0755-1.2761 .0938-1.8125-0-4.4275-3.7875-8-8.5312-8-4.7437,0-8.5625,3.5725-8.5625,8 .0107,.4715 .0488,1.1444 .0938,1.7188-.8112,.3443-.8448,1.9401-.1562,3.5625 .2731,.6434 .6208,1.1232 1,1.5312 .0921,.456 .0424,.6663 .1562,1.1875 .3177,.9532 1.5931,2.8327 2.75,4.375 .1134,1.1845 .2311,2.3713 0,3.7188-3.3334,2.7656-11.919,3.9494-11.9062,6.8125l-.1875,1.0938h17.7188c-.9042,.7124-1.4727,1.4931-1.4688,2.375l-.25,1.625h50.4375l-.25-1.625c-.0205-3.6756-12.9362-5.9554-17.875-10.25-.1998-1.644-.2266-3.287-.125-4.9062 1.5812-2.4402 3.6879-5.6262 4.2188-7.2188 .1908-.8064 .2574-1.3369 .4062-2.0312 .4738-.5739 .8697-1.2401 1.2188-2.0625 .9812-2.3119 .9292-4.5246-.125-5.1875 .0622-.9315 .0976-1.9141 .125-2.7188 0-6.6412-5.6969-12-12.8125-12zm0,1.9688c6.1088,0 10.8077,4.4764 10.8438,9.9688 .0001,.0211 0,.0413 0,.0625-.027,.7898-.067,1.725-.125,2.5938a1.9585,1.9585 0 0,0 .7812,1.6875c.0114,.0468 .0558,.1891 .0625,.4688 .0134,.5593-.1645,1.4686-.5625,2.4062-.2896,.6823-.5651,1.1493-.9062,1.5625a1.9585,1.9585 0 0,0 -.4062,.8438c-.1561,.7282-.2279,1.2263-.375,1.875-.1603,.4534-.7511,1.6118-1.5,2.8438-.7652,1.2587-1.7051,2.6483-2.5,3.875a1.9585,1.9585 0 0,0 -.3125,.9375c-.1081,1.7233-.0599,3.5029 .1562,5.2812a1.9585,1.9585 0 0,0 .6562,1.2188c2.9778,2.5894 7.5102,4.1402 11.3125,5.6875 1.9011,.7736 3.6336,1.5482 4.7188,2.2188 .3376,.2086 .4585,.3629 .6562,.5312h-45.2188c.0793-.1344 .0351-.183 .4375-.5a1.9585,1.9585 0 0,0 -1.2188-3.5h-13.7188c.5346-.251 .9178-.4862 1.5938-.75 2.4892-.9713 5.5531-1.8648 7.75-3.6875a1.9585,1.9585 0 0,0 .6875-1.1562c.2822-1.6455 .113-3.0699 0-4.25a1.9585,1.9585 0 0,0 -.375-1c-.5566-.742-1.1273-1.5565-1.5938-2.2812-.448-.6961-.7888-1.3302-.8438-1.4688-.0325-.2346-.002-.3913-.125-1a1.9585,1.9585 0 0,0 -.4688-.9688c-.2646-.2848-.4488-.5223-.625-.9375-.2381-.561-.3126-1.1045-.3125-1.375a1.9585,1.9585 0 0,0 .5938-1.5938c-.0416-.5308-.0524-1.1528-.0625-1.5625 0-.0105-.0001-.0207 0-.0312 .0181-3.2873 2.8453-6 6.5938-6 3.7365,0 6.5269,2.6867 6.5625,5.9688 .0002,.0211 0,.0414 0,.0625-.0177,.4986-.0551,1.1081-.0938,1.6875a1.9585,1.9585 0 0,0 .5625,1.5c.0071,.254-.0802,.7963-.3125,1.3438-.1628,.3835-.2835,.5815-.5,.8438a1.9585,1.9585 0 0,0 -.4062,.8438c-.103,.4803-.1602,.8179-.25,1.2188-.0757,.201-.4529,.9529-.9375,1.75-.5017,.8252-1.1249,1.7425-1.6562,2.5625a1.9585,1.9585 0 0,0 -.3125,.9375c-.0751,1.1968-.0233,2.4365 .125,3.6562a1.9585,1.9585 0 0,0 .6562,1.2188c1.9559,1.7008 4.652,2.6711 7.0312,3.625a1.9585,1.9585 0 0,0 1.4375,0c2.4367-.9805 4.8244-2.0427 6.6562-3.5625a1.9585,1.9585 0 0,0 .6875-1.1562c.3981-2.3209 .1698-4.3516 0-6.125a1.9585,1.9585 0 0,0 -.375-1c-1.6733-2.2309-3.5225-5.1805-3.7812-5.9062-.1001-.5225-.094-.8216-.25-1.5938a1.9585,1.9585 0 0,0 -.4688-.9688c-.4429-.4767-.8093-.9749-1.125-1.7188-.4188-.9866-.5902-1.9692-.5625-2.5312 .0127-.2578 .0333-.3234 .0312-.3438-.0002-.0018 .0008-.0307 0-.0312a1.9585,1.9585 0 0,0 .9375-1.8125c-.0621-.793-.078-1.7641-.0938-2.4375 0-.0106-0-.0207 0-.0312 .0181-5.5068 4.7232-10 10.8438-10z"/>
<path opacity=".15" d="m56,24c-7.1156,0-12.8125,5.3588-12.8125,12 .016,.7072 .0575,1.7323 .125,2.5938-1.2168,.5164-1.3141,2.8789-.2812,5.3125 .4096,.965 .9312,1.7004 1.5,2.3125 .1382,.6839 .1105,.9995 .2812,1.7812 .4766,1.4298 2.3585,4.2178 4.0938,6.5312 .1702,1.7767 .3467,3.5725 0,5.5938-1.5099,1.2527-3.7499,2.2942-6.125,3.25-2.3852-.9563-4.9725-1.9801-6.4688-3.2812-.1332-1.096-.1615-2.2018-.0938-3.2812 1.0541-1.6268 2.4586-3.7508 2.8125-4.8125 .1272-.5376 .182-.9121 .2812-1.375 .3159-.3826 .5798-.7955 .8125-1.3438 .6541-1.5413 .609-3.0268-.0938-3.4688 .0414-.621 .0755-1.2761 .0938-1.8125-0-4.4275-3.7875-8-8.5312-8-4.7437,0-8.5625,3.5725-8.5625,8 .0107,.4715 .0488,1.1444 .0938,1.7188-.8112,.3443-.8448,1.9401-.1562,3.5625 .2731,.6434 .6208,1.1232 1,1.5312 .0921,.456 .0424,.6663 .1562,1.1875 .3177,.9532 1.5931,2.8327 2.75,4.375 .1134,1.1845 .2311,2.3713 0,3.7188-3.3334,2.7656-11.919,3.9494-11.9062,6.8125l-.1875,1.0938h17.7188c-.9042,.7124-1.4727,1.4931-1.4688,2.375l-.25,1.625h50.4375l-.25-1.625c-.0205-3.6756-12.9362-5.9554-17.875-10.25-.1998-1.644-.2266-3.287-.125-4.9062 1.5812-2.4402 3.6879-5.6262 4.2188-7.2188 .1908-.8064 .2574-1.3369 .4062-2.0312 .4738-.5739 .8697-1.2401 1.2188-2.0625 .9812-2.3119 .9292-4.5246-.125-5.1875 .0622-.9315 .0976-1.9141 .125-2.7188 0-6.6412-5.6969-12-12.8125-12zm0,.9688c6.6154,0 11.8256,4.93 11.8438,11 0,.0106 0,.0207 0,.0312-.0272,.7975-.0649,1.7561-.125,2.6562a.9733,.9733 0 0,0 .4375,.875c.1201,.0755 .3572,.4442 .375,1.1875 .0178,.7433-.1804,1.765-.625,2.8125-.3195,.7528-.6546,1.3184-1.0625,1.8125a.9733,.9733 0 0,0 -.1875,.4062c-.1502,.7007-.2132,1.2324-.375,1.9375-.0005,.0022-.0307-.0022-.0312,0-.2049,.6146-.847,1.814-1.625,3.0938-.778,1.2798-1.676,2.6829-2.4688,3.9062a.9733,.9733 0 0,0 -.1562,.4688c-.1048,1.6709-.0829,3.383 .125,5.0938a.9733,.9733 0 0,0 .3438,.625c2.722,2.367 7.2056,3.9432 11.0312,5.5 1.9128,.7784 3.6551,1.5467 4.8438,2.2812 .5943,.3673 1.0477,.7245 1.3125,1.0312 .2648,.3067 .3428,.5127 .3438,.6875a.9733,.9733 0 0,0 0,.1562l.0625,.5h-48.125l.0625-.5a.9733,.9733 0 0,0 0-.1562c-.0021-.4612 .3052-1.0038 1.0938-1.625a.9733,.9733 0 0,0 -.5938-1.7188h-16.5625a.9733,.9733 0 0,0 0-.125c-.001-.2291 .1997-.5821 .9375-1.0625 .7378-.4804 1.8935-.976 3.1562-1.4688 2.5256-.9855 5.5386-1.9299 7.4688-3.5312a.9733,.9733 0 0,0 .3438-.5938c.2565-1.4956 .1132-2.7865 0-3.9688a.9733,.9733 0 0,0 -.1875-.5c-.5676-.7567-1.1713-1.5903-1.6562-2.3438-.4849-.7534-.8415-1.462-.9375-1.75-.0632-.3474-.0173-.5294-.125-1.0625a.9733,.9733 0 0,0 -.25-.4688c-.3223-.3468-.5876-.72-.8125-1.25-.2972-.7003-.4228-1.3931-.4062-1.8438 .0124-.338 .0699-.4253 .0625-.4375a.9733,.9733 0 0,0 .5625-.9688c-.0429-.5477-.083-1.2163-.0938-1.6562-.0002-.0083 .0002-.0231 0-.0312 .0182-3.8533 3.3503-7 7.5938-7 4.2434,0 7.5444,3.1421 7.5625,7 .0001,.0106 0,.0206 0,.0312-.018,.5173-.0537,1.1497-.0938,1.75a.9733,.9733 0 0,0 .4375,.875c-.0567-.0356 .1127,.0935 .125,.5312 .0123,.4378-.1263,1.0903-.4062,1.75-.1979,.4664-.3897,.7709-.6562,1.0938a.9733,.9733 0 0,0 -.1875,.4062c-.099,.4616-.148,.8333-.25,1.2812h-.0312c-.1164,.3491-.5168,1.1537-1.0312,2-.5145,.8463-1.127,1.7771-1.6562,2.5938a.9733,.9733 0 0,0 -.1562,.4688c-.0714,1.1378-.0469,2.3113 .0938,3.4688a.9733,.9733 0 0,0 .3438,.625c1.7247,1.4998 4.3365,2.4824 6.7188,3.4375a.9733,.9733 0 0,0 .75,0c2.4057-.9681 4.7051-2.0208 6.375-3.4062a.9733,.9733 0 0,0 .3438-.5938c.3722-2.1701 .17-4.0687 0-5.8438a.9733,.9733 0 0,0 -.1875-.5c-1.7127-2.2834-3.5839-5.1893-3.9375-6.25-.1289-.631-.1034-.9308-.25-1.6562a.9733,.9733 0 0,0 -.25-.4688c-.5062-.5448-.9496-1.1761-1.3125-2.0312-.4679-1.1024-.6626-2.1756-.625-2.9375 .0376-.7619 .2493-1.0404 .375-1.0938a.9733,.9733 0 0,0 .5938-.9688c-.0644-.8224-.1089-1.8414-.125-2.5312-.0002-.0085 .0002-.0228 0-.0312 .0181-6.07 5.2284-11 11.8438-11z"/>
<path opacity=".5" d="m56,24c-7.1156,0-12.8125,5.3588-12.8125,12 .0031,.1364 .0263,.3434 .0312,.5 .2821-6.4041 5.8483-11.5 12.7812-11.5 6.9444,0 12.5162,5.1124 12.7812,11.5312 .0061-.1692 .0259-.3739 .0312-.5312 0-6.6412-5.6969-12-12.8125-12zm-24.4062,12c-4.7437,0-8.5625,3.5725-8.5625,8 .0025,.1116 .0259,.2761 .0312,.4062 .3273-4.1451 4.0043-7.4062 8.5312-7.4062 4.5383,0 8.1913,3.2774 8.5,7.4375 .0061-.1413 .0268-.3079 .0312-.4375-0-4.4275-3.7875-8-8.5312-8zm11.6875,2.625c-.7482,.3495-1.0739,1.4005-.9375,2.75 .0757-.8754 .3962-1.5383 .9688-1.7812-.0252-.3215-.0133-.6267-.0312-.9688zm25.4375,.125c-.0162,.3343-.0091,.637-.0312,.9688 .4643,.292 .7084,.8869 .7812,1.6562 .1142-1.2175-.129-2.2034-.75-2.625zm-45.6562,7c-.4892,.2586-.6524,1.0098-.5312,1.9375 .0758-.4743 .2626-.8282 .5938-.9688-.0254-.3239-.0452-.636-.0625-.9688zm17.0312,.125c-.0163,.3185-.041,.616-.0625,.9375 .282,.1773 .4325,.5192 .5,.9688 .1167-.8712-.0267-1.5835-.4375-1.9062zm22.8125,11.7812c-.0155,1.1503 .0466,2.3095 .1875,3.4688 4.9388,4.2946 17.8545,6.5744 17.875,10.25l.0938,.625h.1562l-.25-1.625c-.0205-3.6756-12.9362-5.9554-17.875-10.25-.0999-.822-.1685-1.6501-.1875-2.4688zm-13.8125,.25c-.0089,.7203-.0546,1.4438-.1875,2.2188-1.5099,1.2527-3.7499,2.2942-6.125,3.25-2.3852-.9563-4.9725-1.9801-6.4688-3.2812-.0591-.4863-.1064-.9817-.125-1.4688-.0144,.8177 .0251,1.6469 .125,2.4688 1.4963,1.3011 4.0836,2.325 6.4688,3.2812 2.3751-.9558 4.6151-1.9973 6.125-3.25 .195-1.1367 .2293-2.188 .1875-3.2188zm-22.0938,1.2812c-.0204,.2999-.0709,.5908-.125,.9062-3.3334,2.7656-11.919,3.9494-11.9062,6.8125l-.1875,1.0938h.1562l.0312-.0938c-.0128-2.8631 8.5728-4.0469 11.9062-6.8125 .1156-.6737 .1397-1.2931 .125-1.9062zm4.5312,9.8125c-.3098,.4326-.5022,.8857-.5,1.375l-.25,1.625h.1562l.0938-.625c-.0039-.8819 .5645-1.6626 1.4688-2.375h-.9688z"/>
</svg>
