<svg width="128" version="1.0" xmlns="http://www.w3.org/2000/svg" height="128" xmlns:xlink="http://www.w3.org/1999/xlink">
<defs id="defs3369">
<linearGradient spreadMethod="reflect" id="linearGradient2674" xlink:href="#linearGradient3495" y1="11.200086" x1="17.494959" y2="9.7956104" x2="21.047453" gradientUnits="userSpaceOnUse"/>
<linearGradient spreadMethod="reflect" id="linearGradient2690" xlink:href="#linearGradient3519" y1="17.886322" x1="10.609375" y2="20.612656" x2="9.7297754" gradientUnits="userSpaceOnUse"/>
<linearGradient spreadMethod="reflect" id="linearGradient2672" xlink:href="#linearGradient3487" y1="10.774516" x1="20.580074" y2="9.8622112" x2="24.27351" gradientUnits="userSpaceOnUse"/>
<linearGradient gradientTransform="matrix(0,3.1714559,-3.1714559,0,137.26064,-12.114951)" id="linearGradient2658" xlink:href="#linearGradient3263" y1="32.4165" x1="12.2744" y2="14.2033" x2="35.391201" gradientUnits="userSpaceOnUse"/>
<linearGradient gradientTransform="matrix(2.7073165,0,0,2.7073165,135.10782,-0.9755887)" id="linearGradient2660" xlink:href="#linearGradient3772" y1="3" x1="-21.915663" y2="45.032898" x2="-21.915663" gradientUnits="userSpaceOnUse"/>
<linearGradient spreadMethod="reflect" id="linearGradient2676" xlink:href="#linearGradient3503" y1="13.045606" x1="14.084608" y2="10.732353" x2="16.994024" gradientUnits="userSpaceOnUse"/>
<linearGradient spreadMethod="reflect" id="linearGradient2688" xlink:href="#linearGradient3511" y1="16.188046" x1="12.371647" y2="13.461712" x2="14.609327" gradientUnits="userSpaceOnUse"/>
<linearGradient spreadMethod="reflect" id="linearGradient2678" xlink:href="#linearGradient3511" y1="16.188046" x1="12.371647" y2="13.461712" x2="14.609327" gradientUnits="userSpaceOnUse"/>
<linearGradient spreadMethod="reflect" id="linearGradient2686" xlink:href="#linearGradient3503" y1="13.045606" x1="14.084608" y2="10.732353" x2="16.994024" gradientUnits="userSpaceOnUse"/>
<linearGradient spreadMethod="reflect" id="linearGradient2682" xlink:href="#linearGradient3487" y1="10.774516" x1="20.580074" y2="9.8622112" x2="24.27351" gradientUnits="userSpaceOnUse"/>
<linearGradient spreadMethod="reflect" id="linearGradient2680" xlink:href="#linearGradient3519" y1="17.886322" x1="10.609375" y2="20.612656" x2="9.7297754" gradientUnits="userSpaceOnUse"/>
<linearGradient spreadMethod="reflect" id="linearGradient2684" xlink:href="#linearGradient3495" y1="11.200086" x1="17.494959" y2="9.7956104" x2="21.047453" gradientUnits="userSpaceOnUse"/>
<linearGradient gradientTransform="matrix(2.5381093,0,0,2.5381093,3.0853666,3.0853861)" id="linearGradient2654" xlink:href="#linearGradient3428" y1="15.5" x1="21.448364" y2="32.509201" x2="21.448364" gradientUnits="userSpaceOnUse"/>
<linearGradient id="linearGradient6036">
<stop offset="0" style="stop-color:#fff" id="stop6038"/>
<stop offset="1" style="stop-color:#fff;stop-opacity:0" id="stop6040"/>
</linearGradient>
<linearGradient gradientTransform="matrix(1.0859888,0,0,1.0859883,37.559418,36.850296)" id="linearGradient2651" xlink:href="#linearGradient6036" y1="4.0378027" x1="18.775953" y2="45.962208" x2="18.203465" gradientUnits="userSpaceOnUse"/>
<linearGradient id="linearGradient3428">
<stop offset="0" style="stop-color:#aaa" id="stop3430"/>
<stop offset="1" style="stop-color:#d4d4d4" id="stop3432"/>
</linearGradient>
<linearGradient id="linearGradient3772">
<stop offset="0" style="stop-color:#b4b4b4" id="stop3774"/>
<stop offset="1" style="stop-color:#969696" id="stop3776"/>
</linearGradient>
<linearGradient id="linearGradient23419">
<stop offset="0" id="stop23421"/>
<stop offset="1" style="stop-opacity:0" id="stop23423"/>
</linearGradient>
<linearGradient id="linearGradient3263" y1="32.4165" x1="12.2744" y2="14.2033" x2="35.391201" gradientUnits="userSpaceOnUse">
<stop offset="0" style="stop-color:#dedbde" id="stop3265"/>
<stop offset="0.5" style="stop-color:#e6e6e6" id="stop3267"/>
<stop offset="1" style="stop-color:#d2d2d2" id="stop3269"/>
</linearGradient>
<linearGradient id="linearGradient3519">
<stop offset="0" style="stop-color:#fcd9cd" id="stop3521"/>
<stop offset="1" style="stop-color:#fcd9cd;stop-opacity:0" id="stop3523"/>
</linearGradient>
<linearGradient gradientTransform="matrix(2.7528548,0,0,2.7528545,-3.0237572,-4.8213527)" id="linearGradient2642" xlink:href="#linearGradient6036" y1="3.6100161" x1="10.50172" y2="54.698483" x2="48.798885" gradientUnits="userSpaceOnUse"/>
<linearGradient id="linearGradient3487">
<stop offset="0" style="stop-color:#e6cde2" id="stop3489"/>
<stop offset="1" style="stop-color:#e6cde2;stop-opacity:0" id="stop3491"/>
</linearGradient>
<linearGradient id="linearGradient3511">
<stop offset="0" style="stop-color:#ebeec7" id="stop3513"/>
<stop offset="1" style="stop-color:#ebeec7;stop-opacity:0" id="stop3515"/>
</linearGradient>
<linearGradient id="linearGradient3495">
<stop offset="0" style="stop-color:#c1cbe4" id="stop3497"/>
<stop offset="1" style="stop-color:#c1cbe4;stop-opacity:0" id="stop3499"/>
</linearGradient>
<linearGradient id="linearGradient3503">
<stop offset="0" style="stop-color:#c4ebdd" id="stop3505"/>
<stop offset="1" style="stop-color:#c4ebdd;stop-opacity:0" id="stop3507"/>
</linearGradient>
<radialGradient fx="23.334524" fy="41.63604" cx="23.334524" cy="41.63604" gradientTransform="matrix(2.6516504,0,0,0.7954211,2.1249955,72.881817)" r="22.627417" id="radialGradient2584" xlink:href="#linearGradient23419" gradientUnits="userSpaceOnUse"/>
</defs>
<path style="opacity:.3;fill:url(#radialGradient2584);fill-rule:evenodd;stroke:none;stroke-width:2" id="path23417" d="m 124,106 c 0.00309,9.94085 -26.8607,18 -60,18 -33.1393,0 -60.0031,-8.05916 -60,-18 -0.0030903,-9.94084 26.8607,-18 60,-18 33.1393,0 60.0031,8.05915 60,18 z "/>
<path style="fill:url(#linearGradient2658);stroke:url(#linearGradient2660)" id="path2781" d="m 119.5,64 c 0,-30.7631 -24.7369,-55.5 -55.5,-55.5 -30.7631,3.55271e-15 -55.5,24.7369 -55.5,55.5 -5.4e-06,30.7631 24.7369,55.5 55.5,55.5 30.7631,-1e-05 55.5,-24.7369 55.5,-55.5 z  m -35.1951,0 c 0,11.1762 -8.90509,20.3049 -20.3049,20.3049 -11.6234,0 -20.3049,-9.35463 -20.3049,-20.3049 0,-11.1739 8.23421,-20.3049 20.3049,-20.3049 12.0707,0 20.3049,9.35234 20.3049,20.3049 z "/>
<path style="opacity:.5;fill:#fff;stroke:none" id="path2474" d="m 64,43 c -11.592,0 -21,9.408 -21,21 0,11.592 9.408,21 21,21 11.592,0 21,-9.408 21,-21 0,-11.592 -9.408,-21 -21,-21 z  m 0,10.5 c 5.796,0 10.5,4.704 10.5,10.5 0,5.796 -4.704,10.5 -10.5,10.5 -5.796,0 -10.5,-4.704 -10.5,-10.5 0,-5.796 4.704,-10.5 10.5,-10.5 z "/>
<path style="fill:none;stroke:url(#linearGradient2654);stroke-linejoin:round" id="path3418" d="m 64,43.6951 c -11.2083,0 -20.3049,9.09658 -20.3049,20.3049 0,11.2083 9.09658,20.3049 20.3049,20.3049 11.2083,0 20.3049,-9.09658 20.3049,-20.3049 0,-11.2083 -9.09658,-20.3049 -20.3049,-20.3049 z  m 0,10.1524 c 5.60415,0 10.1524,4.54829 10.1524,10.1524 0,5.60415 -4.54829,10.1524 -10.1524,10.1524 -5.60415,0 -10.1524,-4.54829 -10.1524,-10.1524 0,-5.60415 4.54829,-10.1524 10.1524,-10.1524 z "/>
<g style="stroke:none" id="g3527" transform="matrix(2.7320403,0,0,2.7320403,-1.0900842,-1.0742573)">
<path style="opacity:.8;fill:url(#linearGradient2672)" id="path3296" d="m 15.8569,5.7308 4.7681,10.613 c 1.0354,-0.458564 2.17033,-0.71875 3.375,-0.71875 0.03206,0 0.06178,-0.00036 0.09375,0 l .0143,-11.6202 c -2.94215,-0.070687 -5.54304,0.657286 -8.25108,1.72602 z " transform="matrix(0.9996011,0.02824295,-0.02824295,0.9996011,0.6924114,-0.6708346)"/>
<path style="opacity:.8;fill:url(#linearGradient2674)" id="path3308" d="m 12.1215,7.906 6.931,9.3601 c 0.913109,-0.669755 1.96594,-1.16706 3.14263,-1.42517 0.03132,-0.0069 0.06026,-0.01359 0.09157,-0.02009 l -2.4295,-11.3946 c -2.88897,0.561324 -5.31953,1.8556 -7.7357,3.47973 z "/>
<path style="opacity:.8;fill:url(#linearGradient2676)" id="path3310" d="m 8.2524,11.6465 9.2137,7.1558 c 0.70865,-0.883264 1.59689,-1.63612 2.66669,-2.18998 0.02847,-0.01474 0.05469,-0.02872 0.08325,-0.0431 l -5.3502,-10.3187 c -2.64525,1.28992 -4.69997,3.20178 -6.61346,5.39592 z "/>
<path style="opacity:.8;fill:url(#linearGradient2678)" id="path3312" d="m 5.6329,16.074 c 7.17481,2.24225 7.85026,7.03146 12.7768,1.75413 l -7.9097,-8.696 c -2.22126,1.93061 -3.5867,4.32721 -4.8671,6.94184 z "/>
<path style="opacity:.8;fill:url(#linearGradient2680)" id="path3314" d="m 7.1553,13.1932 c -1.18308,1.75201 -1.90771,3.63637 -2.5251,5.64394 l 11.3386,2.9754 c 0.215514,-0.763003 0.518046,-1.51477 0.96875,-2.21875 0.01729,-0.027 0.04496,-0.06702 0.0625,-0.09375 l -9.8447,-6.3068 z "/>
</g>
<path style="opacity:.5;fill:none;stroke:url(#linearGradient2642)" id="path3272" d="m 64,9.5 c -30.2086,0 -54.5,24.2914 -54.5,54.5 0,30.2086 24.2914,54.5 54.5,54.5 30.2086,0 54.5,-24.2914 54.5,-54.5 0,-30.2086 -24.2914,-54.5 -54.5,-54.5 v -3.55271e-15 z "/>
<g style="stroke:none" id="g3297" transform="matrix(-2.7073165,0,0,-2.7073165,128.97558,128.95078)">
<path style="opacity:.8;fill:url(#linearGradient2682)" id="path3299" d="m 15.8569,5.7308 4.7681,10.613 c 1.0354,-0.458564 2.17033,-0.71875 3.375,-0.71875 0.03206,0 0.06178,-0.00036 0.09375,0 l .0143,-11.6202 c -2.94215,-0.070687 -5.54304,0.657286 -8.25108,1.72602 z " transform="matrix(0.9996011,0.02824295,-0.02824295,0.9996011,0.6924114,-0.6708346)"/>
<path style="opacity:.8;fill:url(#linearGradient2684)" id="path3301" d="m 12.1215,7.906 6.931,9.3601 c 0.913109,-0.669755 1.96594,-1.16706 3.14263,-1.42517 0.03132,-0.0069 0.06026,-0.01359 0.09157,-0.02009 l -2.4295,-11.3946 c -2.88897,0.561324 -5.31953,1.8556 -7.7357,3.47973 z "/>
<path style="opacity:.8;fill:url(#linearGradient2686)" id="path3303" d="m 8.2524,11.6465 9.2137,7.1558 c 0.70865,-0.883264 1.59689,-1.63612 2.66669,-2.18998 0.02847,-0.01474 0.05469,-0.02872 0.08325,-0.0431 l -5.3502,-10.3187 c -2.64525,1.28992 -4.69997,3.20178 -6.61346,5.39592 z "/>
<path style="opacity:.8;fill:url(#linearGradient2688)" id="path3305" d="m 5.6329,16.074 c 7.17481,2.24225 7.85026,7.03146 12.7768,1.75413 l -7.9097,-8.696 c -2.22126,1.93061 -3.5867,4.32721 -4.8671,6.94184 z "/>
<path style="opacity:.8;fill:url(#linearGradient2690)" id="path3307" d="m 7.1553,13.1932 c -1.18308,1.75201 -1.90771,3.63637 -2.5251,5.64394 l 11.3386,2.9754 c 0.215514,-0.763003 0.518046,-1.51477 0.96875,-2.21875 0.01729,-0.027 0.04496,-0.06702 0.0625,-0.09375 l -9.8447,-6.3068 z "/>
</g>
<path style="opacity:.8;fill:none;stroke:url(#linearGradient2651)" id="path3281" d="m 64,42.5 c -11.9171,0 -21.5,9.58286 -21.5,21.5 0,11.9171 9.58286,21.5 21.5,21.5 11.9171,0 21.5,-9.58285 21.5,-21.5 0,-11.9171 -9.58285,-21.5 -21.5,-21.5 l 0,0 z "/>
</svg>
