<svg width="128" version="1.0" xmlns="http://www.w3.org/2000/svg" height="128" xmlns:xlink="http://www.w3.org/1999/xlink">
<defs id="defs3451">
<filter style="color-interpolation-filters:sRGB" id="filter3832">
<feGaussianBlur stdDeviation="3.4789065" id="feGaussianBlur3834"/>
</filter>
<radialGradient fx="45.383362" fy="42.341053" cx="45.383362" cy="42.341053" gradientTransform="matrix(2.4203257,0.02265182,-0.01193045,1.3424402,-66.420164,-19.685041)" xlink:href="#rect330_1_-1" id="radialGradient4307" r="31.588224" gradientUnits="userSpaceOnUse"/>
<radialGradient fx="-526.75153" fy="1.9741" cx="-526.75153" cy="1.9741" gradientTransform="matrix(80.948,0,0,86.0992,42666.273,-125.6626)" r="0.69800001" id="radialGradient4076-5" gradientUnits="userSpaceOnUse">
<stop offset="0" style="stop-color:#808080" id="stop4078-8"/>
<stop offset="1" style="stop-color:#121b0f" id="stop4080-1"/>
</radialGradient>
<radialGradient fx="28.858727" fy="62.056919" cx="28.858727" cy="62.056919" gradientTransform="matrix(2.3980145,0.02746617,-0.02132134,1.8642941,-34.250768,-50.088751)" xlink:href="#radialGradient4076-5" id="radialGradient4055" r="59.666859" gradientUnits="userSpaceOnUse"/>
<radialGradient fx="-523.94781" fy="6.3808999" cx="-523.94781" cy="6.3808999" gradientTransform="matrix(39.8853,0,0,28.1111,20927.488,-156.8872)" id="rect330_1_-1" r="1.5258" gradientUnits="userSpaceOnUse">
<stop offset="0" style="stop-color:#fff" id="stop6890-5"/>
<stop offset="1" style="stop-color:#b9b9b9" id="stop6892-5"/>
</radialGradient>
</defs>
<g id="g3510" transform="translate(2.5910487e-4,3.281565e-5)">
<g style="stroke:none">
<path style="filter:url(#filter3832);fill-opacity:.996" id="path2948" d="m -66.027,-66.3853 c -2.216,0 -4,1.7856 -4,4 v 344.344 c 0,2.2144 1.784,4 4,4 h 335.438 c 2.216,0 4,-1.7856 4,-4 v -307.438 h -3.28125 v -13.2188 h 3.28125 v -5.46875 l -26.5625,-22.2188 h -7.125 v 1.125 h -28.6875 l -1.3438,1 -2.3125,1.6562 v 0.0312 h -0.0312 -232.656 v -3.8125 h -40.7188 z  m 307.125,314.1563 20.125,0 0,14.3438 -20.125,0 0,-14.3438 z " transform="matrix(0.32765353,0,0,0.31974634,31.794053,30.212114)"/>
<path style="fill:url(#radialGradient4055)" id="rect2831" d="m 8.8494,7.7466 c -0.726081,0 -1.31061,0.570938 -1.31061,1.27899 v 110.103 c 0,0.70805 0.584533,1.27899 1.31061,1.27899 h 109.907 c 0.72608,0 1.31061,-0.57094 1.31061,-1.27899 v -98.302 h -1.07511 v -4.22664 h 1.07511 v -1.74862 l -8.7033,-7.1044 h -2.33452 v 0.359715 h -9.39956 l -.4403,.3197 -.7577,.5296 v 0.010001 h -0.01018 -76.2306 v -1.21904 h -13.3416 z  m 100.6305,100.4503 h 6.59404 v 4.58636 h -6.59404 v -4.58636 z "/>
</g>
<path style="fill:#242424;stroke:#393939;stroke-linejoin:round;stroke-linecap:round;stroke-width:.223" id="rect318" d="m 23.3929,9.1712 h 71.2225 c 0.761523,0 1.37708,0.610083 1.37708,1.36484 v 34.832 c 0,0.754745 -0.615559,1.36484 -1.37708,1.36484 h -71.2225 c -0.760145,0 -1.37707,-0.610093 -1.37707,-1.36484 v -34.832 c 0,-0.753391 0.61555,-1.36484 1.37707,-1.36484 z "/>
<path style="fill:url(#radialGradient4307);stroke:none" id="path3537" d="m 34.7948,8.6558 0,36.3879 c 0,1.06187 0.886066,1.91673 1.98669,1.91673 h 57.5932 c 1.10062,0 1.98669,-0.854857 1.98669,-1.91673 v -36.3879 z  m 37.1773,4.6262 15.4832,.0524 -.1789,30.5733 -15.2149,-.0894 z "/>
<g id="g4477" transform="translate(-116.70693,6.2608695)">
<g style="stroke:none">
<rect width="85.56321" x="138.02176" y="50.441772" height="63.679665" style="fill:#fff;fill-opacity:.996" id="rect4387"/>
<g style="line-height:125%;font-size:14px;text-align:center;font-family:Calibri;fill:#060000;text-anchor:middle" id="g4389" transform="matrix(0.32765353,0,0,0.31974634,53.921368,-176.04502)">
<path style="font-weight:bold" id="path4391" d="m 272.7292,735.4094 c 0,0.0456 -0.0148,0.0866 -0.0444,0.12304 -0.0296,0.0365 -0.0786,0.0661 -0.14697,0.0889 -0.0684,0.0228 -0.15951,0.041 -0.27344,0.0547 -0.11394,0.0137 -0.25977,0.0205 -0.4375,0.0205 -0.17318,0 -0.31787,-0.007 -0.43408,-0.0205 -0.11622,-0.0137 -0.2085,-0.0319 -0.27686,-0.0547 -0.0684,-0.0228 -0.11735,-0.0524 -0.14697,-0.0889 -0.0296,-0.0364 -0.0444,-0.0775 -0.0444,-0.12304 v -8.35352 c 0,-0.0456 0.0148,-0.0866 0.0444,-0.12304 0.0296,-0.0365 0.0797,-0.0661 0.15039,-0.0889 0.0706,-0.0228 0.16292,-0.041 0.27685,-0.0547 0.11393,-0.0137 0.25749,-0.0205 0.43067,-0.0205 0.17773,1e-05 0.32356,0.007 0.4375,0.0205 0.11393,0.0137 0.20507,0.0319 0.27344,0.0547 0.0683,0.0228 0.11734,0.0524 0.14697,0.0889 0.0296,0.0365 0.0444,0.0775 0.0444,0.12304 z "/>
<path style="font-weight:bold" id="path4393" d="m 281.9646,735.0265 c 0,0.10481 -0.0182,0.19824 -0.0547,0.28027 -0.0365,0.082 -0.0855,0.15039 -0.14698,0.20508 -0.0615,0.0547 -0.13444,0.0946 -0.21875,0.11963 -0.0843,0.0251 -0.16976,0.0376 -0.25634,0.0376 h -0.76563 c -0.15951,0 -0.29737,-0.0159 -0.41357,-0.0479 -0.11622,-0.0319 -0.22332,-0.09 -0.32129,-0.17431 -0.098,-0.0843 -0.19255,-0.19825 -0.28369,-0.3418 -0.0912,-0.14356 -0.19369,-0.32926 -0.30762,-0.55713 l -2.2012,-4.1357 c -0.12761,-0.24609 -0.25749,-0.51155 -0.38965,-0.79639 -0.13217,-0.28482 -0.25066,-0.56168 -0.35547,-0.83057 h -0.0137 c 0.0182,0.32814 0.0319,0.65512 0.041,0.98096 0.009,0.32585 0.0137,0.66195 0.0137,1.0083 v 4.62793 c -1e-05,0.0456 -0.0125,0.0866 -0.0376,0.12305 -0.0251,0.0365 -0.0684,0.0672 -0.12989,0.0923 -0.0615,0.0251 -0.14469,0.0444 -0.24951,0.0581 -0.10482,0.0137 -0.23926,0.0205 -0.40332,0.0205 -0.1595,0 -0.29167,-0.007 -0.39648,-0.0205 -0.10482,-0.0137 -0.18685,-0.033 -0.2461,-0.0581 -0.0592,-0.0251 -0.10026,-0.0558 -0.12304,-0.0923 -0.0228,-0.0365 -0.0342,-0.0775 -0.0342,-0.12305 v -7.95019 c 0,-0.21419 0.0627,-0.37483 0.18799,-0.48194 0.12532,-0.10708 0.27913,-0.16063 0.46142,-0.16064 h 0.96387 c 0.17317,1e-05 0.31901,0.0148 0.4375,0.0444 0.11849,0.0296 0.22444,0.0786 0.31787,0.14697 0.0934,0.0684 0.18115,0.16294 0.26318,0.2837 0.082,0.12077 0.16634,0.27002 0.25293,0.44775 l 1.7227,3.2334 c 0.10025,0.19597 0.19938,0.38851 0.29736,0.57764 0.098,0.18913 0.19254,0.37825 0.28369,0.56738 0.0911,0.18913 0.18001,0.37484 0.26661,0.55713 0.0866,0.18229 0.17089,0.36458 0.25293,0.54687 h 0.007 c -0.0137,-0.31901 -0.0239,-0.65169 -0.0308,-0.99804 -0.007,-0.34636 -0.0103,-0.67676 -0.0103,-0.99122 v -4.14941 c -1e-05,-0.0456 0.0137,-0.0866 0.041,-0.12305 0.0273,-0.0365 0.0729,-0.0684 0.13672,-0.0957 0.0638,-0.0273 0.14811,-0.0467 0.25293,-0.0581 0.10481,-0.0114 0.23925,-0.0171 0.40332,-0.0171 0.15494,1e-05 0.28482,0.006 0.38965,0.0171 0.10481,0.0114 0.1857,0.0308 0.24267,0.0581 0.057,0.0273 0.0968,0.0592 0.11963,0.0957 0.0228,0.0365 0.0342,0.0775 0.0342,0.12305 z "/>
<path style="font-weight:bold" id="path4395" d="m 291.2341,731.1027 c 0,0.8112 -0.10596,1.50505 -0.31787,2.08154 -0.21192,0.5765 -0.51612,1.04704 -0.91259,1.41162 -0.3965,0.36459 -0.87843,0.63233 -1.4458,0.80322 -0.56739,0.1709 -1.24301,0.25635 -2.02686,0.25635 h -2.1123 c -0.1504,0 -0.27686,-0.0444 -0.3794,-0.1333 -0.10254,-0.0889 -0.15381,-0.23356 -0.15381,-0.43408 v -7.71094 c 0,-0.20051 0.0513,-0.3452 0.15381,-0.43408 0.10254,-0.0889 0.229,-0.13329 0.3794,-0.1333 h 2.26953 c 0.7884,1e-05 1.45719,0.0923 2.00634,0.27685 0.54915,0.18458 1.01172,0.45802 1.3877,0.82032 0.37597,0.36231 0.66194,0.81006 0.85791,1.34326 0.19595,0.53321 0.29394,1.15072 0.29394,1.85254 z  m -1.8594,.0615 c -1e-05,-0.41927 -0.049,-0.80891 -0.14697,-1.16894 -0.098,-0.36002 -0.25522,-0.6722 -0.47168,-0.93653 -0.21648,-0.26431 -0.49447,-0.47053 -0.83399,-0.61865 -0.33952,-0.1481 -0.78499,-0.22216 -1.33642,-0.22217 h -0.90918 v 6.01563 h 0.93652 c 0.49218,0 0.9069,-0.0638 1.24414,-0.19141 0.33724,-0.1276 0.61865,-0.32015 0.84424,-0.57764 0.22558,-0.25748 0.3942,-0.57763 0.50586,-0.96045 0.11165,-0.3828 0.16747,-0.82942 0.16748,-1.33984 z "/>
<path style="font-weight:bold" id="path4397" d="m 297.9607,734.9513 c -1e-05,0.13216 -0.006,0.24268 -0.0171,0.33154 -0.0114,0.0889 -0.0285,0.16065 -0.0513,0.21534 -0.0228,0.0547 -0.0513,0.0946 -0.0855,0.11962 -0.0342,0.0251 -0.0718,0.0376 -0.11279,0.0376 h -4.44336 c -0.1504,0 -0.27686,-0.0444 -0.3794,-0.1333 -0.10254,-0.0889 -0.15381,-0.23356 -0.15381,-0.43408 v -7.71094 c 0,-0.20051 0.0513,-0.3452 0.15381,-0.43408 0.10254,-0.0889 0.229,-0.13329 0.3794,-0.1333 h 4.41601 c 0.041,1e-05 0.0775,0.0114 0.10938,0.0342 0.0319,0.0228 0.0592,0.0627 0.082,0.11963 0.0228,0.057 0.0399,0.12989 0.0513,0.21875 0.0114,0.0889 0.0171,0.20167 0.0171,0.33838 -1e-05,0.12761 -0.006,0.23584 -0.0171,0.3247 -0.0114,0.0889 -0.0285,0.16066 -0.0513,0.21534 -0.0228,0.0547 -0.0501,0.0946 -0.082,0.11962 -0.0319,0.0251 -0.0684,0.0376 -0.10938,0.0376 h -3.1582 v 2.16016 h 2.67285 c 0.041,0 0.0786,0.0125 0.11279,0.0376 0.0342,0.0251 0.0627,0.0638 0.0855,0.11621 0.0228,0.0524 0.0399,0.12305 0.0513,0.21191 0.0114,0.0889 0.0171,0.19711 0.0171,0.32471 0,0.13216 -0.006,0.24154 -0.0171,0.32812 -0.0114,0.0866 -0.0285,0.15609 -0.0513,0.2085 -0.0228,0.0524 -0.0513,0.09 -0.0855,0.11279 -0.0342,0.0228 -0.0718,0.0342 -0.11279,0.0342 h -2.67285 v 2.49512 h 3.18555 c 0.041,0 0.0786,0.0125 0.11279,0.0376 0.0342,0.0251 0.0627,0.0649 0.0855,0.11963 0.0228,0.0547 0.0399,0.12646 0.0513,0.21533 0.0114,0.0889 0.0171,0.19938 0.0171,0.33154 z "/>
<path style="font-weight:bold" id="path4399" d="m 305.8562,734.9787 c 0.082,0.15951 0.13557,0.28711 0.16064,0.38282 0.0251,0.0957 0.0102,0.16862 -0.0444,0.21875 -0.0547,0.0501 -0.15382,0.082 -0.29737,0.0957 -0.14356,0.0137 -0.34294,0.0205 -0.59814,0.0205 -0.2142,0 -0.38282,-0.005 -0.50586,-0.0137 -0.12305,-0.009 -0.2199,-0.0239 -0.29053,-0.0444 -0.0706,-0.0205 -0.12191,-0.049 -0.15381,-0.0855 -0.0319,-0.0365 -0.0592,-0.082 -0.082,-0.13672 l -1.6611,-3.1924 -1.6543,3.1924 c -0.0273,0.0547 -0.057,0.10026 -0.0889,0.13672 -0.0319,0.0365 -0.0832,0.0649 -0.1538,0.0855 -0.0706,0.0205 -0.16863,0.0353 -0.29395,0.0444 -0.12533,0.009 -0.29053,0.0137 -0.4956,0.0137 -0.23698,0 -0.42042,-0.007 -0.5503,-0.0205 -0.12988,-0.0137 -0.21761,-0.0456 -0.26318,-0.0957 -0.0456,-0.0501 -0.0547,-0.12305 -0.0273,-0.21875 0.0273,-0.0957 0.0843,-0.22331 0.17089,-0.38282 l 2.1191,-3.8623 -1.9688,-3.6299 c -0.082,-0.16406 -0.13785,-0.29508 -0.16748,-0.39307 -0.0296,-0.098 -0.0182,-0.17089 0.0342,-0.21875 0.0524,-0.0478 0.14925,-0.0775 0.29053,-0.0889 0.14128,-0.0114 0.3418,-0.0171 0.60156,-0.0171 0.21419,1e-05 0.38395,0.005 0.50928,0.0137 0.12532,0.009 0.22445,0.0239 0.29736,0.0444 0.0729,0.0205 0.12419,0.049 0.15381,0.0855 0.0296,0.0365 0.0581,0.082 0.0854,0.13672 l 1.5518,2.9258 1.5107,-2.9258 c 0.0273,-0.0547 0.0558,-0.10026 0.0854,-0.13672 0.0296,-0.0364 0.0775,-0.0649 0.14356,-0.0855 0.0661,-0.0205 0.15722,-0.0353 0.27343,-0.0444 0.11621,-0.009 0.27685,-0.0137 0.48194,-0.0137 0.22785,1e-05 0.40787,0.006 0.54004,0.0171 0.13215,0.0114 0.2233,0.0422 0.27343,0.0923 0.0501,0.0501 0.0627,0.12305 0.0376,0.21875 -0.0251,0.0957 -0.0763,0.22559 -0.15381,0.38965 l -1.9688,3.6094 z "/>
</g>
</g>
<path style="fill:none;stroke:#000;stroke-width:.4" id="path4401" d="m 138.0293,61.5737 85.5638,-.1789"/>
<rect width="85.572945" x="138.01775" y="107.48615" height="6.6406546" style="fill:#5e744c;stroke:none;fill-opacity:.996" id="rect4435"/>
<g style="stroke-width:.4;stroke:#000;fill:none">
<path id="path4437" d="m 138.0293,76.599 85.5638,-.1789"/>
<path id="path4439" d="m 138.0293,69.2205 85.5638,-.1789"/>
<path id="path4441" d="m 138.0293,84.6483 85.5638,-.1789"/>
<path id="path4443" d="m 138.0069,92.3174 85.6125,-.1789"/>
<path id="path4445" d="m 138.0216,100.0182 85.5638,-.1789"/>
</g>
</g>
</g>
</svg>
