<svg width="96" version="1.0" xmlns="http://www.w3.org/2000/svg" height="96" xmlns:xlink="http://www.w3.org/1999/xlink">
<defs id="defs2410">
<clipPath id="clipPath3613">
<rect width="84" x="6" y="6" rx="6" height="84" ry="6" style="fill:#fff;stroke:none" id="rect3615"/>
</clipPath>
<clipPath id="clipPath4014">
<path style="fill:url(#linearGradient4018);stroke:none;color:#000;stroke-width:2" id="path4016" d="m 16.5,143.1176 c 0,68.6133 14.3269,124.235 32,124.235 17.6731,0 32,-55.622 32,-124.235 0,-68.6133 -14.3269,-124.235 -32,-124.235 -17.6731,0 -32,55.622 -32,124.235 z  m 8,0 c 0,-51.4599 10.7452,-93.1765 24,-93.1765 13.2548,0 24,41.7165 24,93.1765 0,51.4599 -10.7452,93.1765 -24,93.1765 -13.2548,0 -24,-41.7165 -24,-93.1765 z "/>
</clipPath>
<filter width="1.3839999" x="-0.192" y="-0.192" height="1.3839999" style="color-interpolation-filters:sRGB" id="filter3794">
<feGaussianBlur stdDeviation="5.28" id="feGaussianBlur3796"/>
</filter>
<filter style="color-interpolation-filters:sRGB" id="filter3174">
<feGaussianBlur stdDeviation="1.71" id="feGaussianBlur3176"/>
</filter>
<linearGradient gradientTransform="matrix(1.0058652,0,0,0.994169,100,0)" id="ButtonShadow-0" y1="92.539597" x1="45.447727" y2="7.0165396" x2="45.447727" gradientUnits="userSpaceOnUse">
<stop offset="0" id="stop3750-8"/>
<stop offset="1" style="stop-opacity:.588" id="stop3752-5"/>
</linearGradient>
<linearGradient gradientTransform="matrix(1.0238095,0,0,1.0119048,-1.1428571,-98.071429)" id="linearGradient3772" xlink:href="#ButtonShadow-0" y1="6.1317081" x1="32.251034" y2="90.238609" x2="32.251034" gradientUnits="userSpaceOnUse"/>
<linearGradient gradientTransform="matrix(1.0238095,0,0,1.0119048,-1.1428571,-98.071429)" id="linearGradient3780" xlink:href="#ButtonShadow-0" y1="6.1317081" x1="32.251034" y2="90.238609" x2="32.251034" gradientUnits="userSpaceOnUse"/>
<linearGradient gradientTransform="matrix(1.0238095,0,0,1.0119048,-1.1428571,-98.071429)" id="linearGradient3725" xlink:href="#ButtonShadow-0" y1="6.1317081" x1="32.251034" y2="90.238609" x2="32.251034" gradientUnits="userSpaceOnUse"/>
<linearGradient gradientTransform="matrix(0,1,-1,0,96,0)" id="linearGradient3985" xlink:href="#linearGradient3836" y1="48" x1="22" y2="48" x2="74" gradientUnits="userSpaceOnUse"/>
<linearGradient gradientTransform="matrix(0,-3.8823529,1,0,0.5,329.47058)" id="linearGradient4018" xlink:href="#linearGradient3836" y1="48" x1="16" y2="48" x2="80" gradientUnits="userSpaceOnUse"/>
<linearGradient id="linearGradient3875" xlink:href="#linearGradient3869" y1="32.608074" x1="48.269566" y2="69.905922" x2="48.269566" gradientUnits="userSpaceOnUse"/>
<linearGradient gradientTransform="matrix(1.0238095,0,0,1.0119048,-1.1428571,-98.071429)" id="linearGradient3026" xlink:href="#ButtonShadow-0" y1="6.1317081" x1="32.251034" y2="90.238609" x2="32.251034" gradientUnits="userSpaceOnUse"/>
<linearGradient gradientTransform="translate(0,-97)" id="linearGradient3721" xlink:href="#ButtonShadow-0" y1="6.1317081" x1="32.251034" y2="90.238609" x2="32.251034" gradientUnits="userSpaceOnUse"/>
<linearGradient gradientTransform="matrix(0,-1,1,0,0,96)" id="linearGradient3842" xlink:href="#linearGradient3836" y1="48" x1="16" y2="48" x2="80" gradientUnits="userSpaceOnUse"/>
<linearGradient id="linearGradient3617" xlink:href="#linearGradient3700" y1="90" x1="48" y2="5.9877172" x2="48" gradientUnits="userSpaceOnUse"/>
<linearGradient id="linearGradient3836">
<stop offset="0" style="stop-color:#b4b4b4" id="stop3838"/>
<stop offset="1" style="stop-color:#ebebeb" id="stop3840"/>
</linearGradient>
<linearGradient id="linearGradient3869">
<stop offset="0" style="stop-color:#fff" id="stop3871"/>
<stop offset="1" style="stop-color:#fff;stop-opacity:0" id="stop3873"/>
</linearGradient>
<linearGradient id="linearGradient4094">
<stop offset="0" style="stop-color:#fff" id="stop4096"/>
<stop offset="1" style="stop-color:#fff;stop-opacity:0" id="stop4098"/>
</linearGradient>
<linearGradient id="linearGradient3892">
<stop offset="0" style="stop-color:#15deff" id="stop3894"/>
<stop offset="1" style="stop-color:#014177" id="stop3896"/>
</linearGradient>
<linearGradient id="linearGradient3857">
<stop offset="0" style="stop-color:#414141" id="stop3859"/>
<stop offset="1" id="stop3861"/>
</linearGradient>
<linearGradient gradientTransform="scale(1.0058652,0.994169)" id="ButtonShadow" y1="92.539597" x1="45.447727" y2="7.0165396" x2="45.447727" gradientUnits="userSpaceOnUse">
<stop offset="0" id="stop3750"/>
<stop offset="1" style="stop-opacity:.588" id="stop3752"/>
</linearGradient>
<linearGradient id="linearGradient4100" xlink:href="#linearGradient4094" y1="20.365503" x1="49.957554" y2="98.866722" x2="49.957554" gradientUnits="userSpaceOnUse"/>
<linearGradient id="linearGradient3737">
<stop offset="0" style="stop-color:#fff" id="stop3739"/>
<stop offset="1" style="stop-color:#fff;stop-opacity:0" id="stop3741"/>
</linearGradient>
<linearGradient id="linearGradient3613" xlink:href="#linearGradient3737" y1="20.220806" x1="48" y2="138.66119" x2="48" gradientUnits="userSpaceOnUse"/>
<linearGradient id="linearGradient3700">
<stop offset="0" style="stop-color:#191919" id="stop3702"/>
<stop offset="1" style="stop-color:#3c3c3c" id="stop3704"/>
</linearGradient>
<linearGradient id="linearGradient3188" xlink:href="#linearGradient3737" y1="6" x1="36.357143" y2="63.893143" x2="36.357143" gradientUnits="userSpaceOnUse"/>
<radialGradient fx="48" fy="56" cx="48" cy="56" r="16" id="radialGradient3863" xlink:href="#linearGradient3857" gradientUnits="userSpaceOnUse"/>
<radialGradient fx="48" fy="90.171875" cx="48" cy="90.171875" gradientTransform="matrix(1.1573129,0,0,0.99590774,-7.5510206,0.19713193)" r="42" id="radialGradient3619" xlink:href="#linearGradient3737" gradientUnits="userSpaceOnUse"/>
<radialGradient fx="55.384617" fy="62.769234" cx="55.384617" cy="62.769234" gradientTransform="matrix(1.5384616,5.7892544e-8,-6.9471048e-8,1.8461538,-29.822489,-53.112435)" r="24" id="radialGradient3914" xlink:href="#linearGradient3892" gradientUnits="userSpaceOnUse"/>
</defs>
<g style="display:none" id="layer2">
<rect width="86" x="5" y="7" rx="6" height="85" ry="6" style="opacity:.9;fill:url(#ButtonShadow);filter:url(#filter3174);stroke:none" id="rect3745"/>
</g>
<g style="stroke:none" id="layer3">
<path style="opacity:.08;fill:url(#linearGradient3026)" id="path3786" d="m 12,-95.0312 c -5.51109,0 -10.0312,4.52016 -10.0312,10.0312 v 71 c 0,5.51109 4.52016,10.0312 10.0312,10.0312 h 72 c 5.51109,0 10.0312,-4.52016 10.0312,-10.0312 v -71 c 0,-5.51109 -4.52016,-10.0312 -10.0312,-10.0312 h -72 z " transform="scale(1,-1)"/>
<path style="opacity:.1;fill:url(#linearGradient3780)" id="path3778" d="m 12,-94.0312 c -4.97163,0 -9.03125,4.05962 -9.03125,9.03125 v 71 c 0,4.97163 4.05962,9.03125 9.03125,9.03125 h 72 c 4.97163,0 9.03125,-4.05962 9.03125,-9.03125 v -71 c 0,-4.97163 -4.05962,-9.03125 -9.03125,-9.03125 h -72 z " transform="scale(1,-1)"/>
<path style="opacity:.2;fill:url(#linearGradient3772)" id="path3770" d="m 12,-93 c -4.40913,0 -8,3.59087 -8,8 v 71 c 0,4.40913 3.59087,8 8,8 h 72 c 4.40913,0 8,-3.59087 8,-8 v -71 c 0,-4.40913 -3.59087,-8 -8,-8 h -72 z " transform="scale(1,-1)"/>
<rect width="86" x="5" y="-92" rx="7" height="85" ry="7" style="opacity:.3;fill:url(#linearGradient3725)" id="rect3723" transform="scale(1,-1)"/>
<rect width="84" x="6" y="-91" rx="6" height="84" ry="6" style="opacity:.45;fill:url(#linearGradient3721)" id="rect3716" transform="scale(1,-1)"/>
</g>
<g style="stroke:none" id="layer1">
<rect width="84" x="6" y="6" rx="6" height="84" ry="6" style="fill:url(#linearGradient3617)" id="rect2419"/>
<path style="opacity:.15;color:#000;stroke-width:2" id="path3957" d="m 48,15.0312 c -18.198,0 -32.9688,14.7707 -32.9688,32.9688 0,18.198 14.7707,32.9688 32.9688,32.9688 18.198,0 32.9688,-14.7707 32.9688,-32.9688 0,-18.198 -14.7707,-32.9688 -32.9688,-32.9688 z " transform="translate(0,1)"/>
<path style="opacity:.2;fill:url(#linearGradient3188)" id="rect3728" d="m 12,6 c -3.324,0 -6,2.676 -6,6 v 2 68 2 c 0,0.334721 0.04135,0.6507 0.09375,0.96875 0.0487,0.295596 0.09704,0.596915 0.1875,0.875 0.00988,0.03038 0.020892,0.0636 0.03125,0.09375 0.098865,0.287771 0.23488,0.547452 0.375,0.8125 0.144592,0.273507 0.315616,0.535615 0.5,0.78125 0.184384,0.245635 0.373776,0.473472 0.59375,0.6875 0.439947,0.428056 0.94291,0.814526 1.5,1.09375 0.278545,0.139612 0.573473,0.246947 0.875,0.34375 -0.256202,-0.100222 -0.486711,-0.236272 -0.71875,-0.375 -0.00741,-0.0044 -0.023866,0.0045 -0.03125,0 -0.031933,-0.0193 -0.062293,-0.04251 -0.09375,-0.0625 -0.120395,-0.0767 -0.231023,-0.163513 -0.34375,-0.25 -0.106173,-0.0808 -0.213281,-0.161112 -0.3125,-0.25 -0.17793,-0.161433 -0.34746,-0.345388 -0.5,-0.53125 -0.107579,-0.130255 -0.218394,-0.265285 -0.3125,-0.40625 -0.025089,-0.03838 -0.038446,-0.08587 -0.0625,-0.125 -0.064763,-0.103032 -0.130228,-0.204517 -0.1875,-0.3125 -0.101008,-0.194706 -0.205675,-0.415701 -0.28125,-0.625 -0.00796,-0.02181 -0.023589,-0.04055 -0.03125,-0.0625 -0.0318251,-0.09195 -0.0358045,-0.186831 -0.0625,-0.28125 -0.0303323,-0.106618 -0.0703894,-0.203031 -0.09375,-0.3125 -0.0728786,-0.341512 -0.125,-0.698205 -0.125,-1.0625 v -2 -68 -2 c 0,-2.78185 2.21815,-5 5,-5 h 2 68 2 c 2.78185,0 5,2.21815 5,5 v 2 68 2 c 0,0.364295 -0.05212,0.720988 -0.125,1.0625 -0.04415,0.206893 -0.08838,0.397658 -0.15625,0.59375 -0.0077,0.02195 -0.0233,0.04069 -0.03125,0.0625 -0.06274,0.173739 -0.138383,0.367449 -0.21875,0.53125 -0.04158,0.0828 -0.07904,0.169954 -0.125,0.25 -0.0546,0.09721 -0.126774,0.18835 -0.1875,0.28125 -0.09411,0.140965 -0.204921,0.275995 -0.3125,0.40625 -0.143174,0.17445 -0.303141,0.346998 -0.46875,0.5 -0.01117,0.0102 -0.01998,0.02115 -0.03125,0.03125 -0.138386,0.125556 -0.285091,0.234436 -0.4375,0.34375 -0.102571,0.07315 -0.204318,0.153364 -0.3125,0.21875 -0.0074,0.0045 -0.02384,-0.0044 -0.03125,0 -0.232039,0.138728 -0.462548,0.274778 -0.71875,0.375 0.301527,-0.0968 0.596455,-0.204138 0.875,-0.34375 0.55709,-0.279224 1.06005,-0.665694 1.5,-1.09375 0.219973,-0.214028 0.409366,-0.441865 0.59375,-0.6875 0.184384,-0.245635 0.355408,-0.507743 0.5,-0.78125 0.14012,-0.265048 0.276135,-0.524729 0.375,-0.8125 0.01041,-0.03078 0.02133,-0.06274 0.03125,-0.09375 0.09046,-0.278085 0.1388,-0.579404 0.1875,-0.875 0.0524,-0.31805 0.09375,-0.634029 0.09375,-0.96875 v -2 -68 -2 c 0,-3.324 -2.676,-6 -6,-6 h -72 z "/>
<path style="opacity:.08;color:#000;stroke-width:2" id="path3961" d="m 48,13.9062 c -18.8034,0 -34.0938,15.2903 -34.0938,34.0938 0,18.8034 15.2903,34.0938 34.0938,34.0938 18.8034,0 34.0938,-15.2903 34.0938,-34.0938 0,-18.8034 -15.2903,-34.0938 -34.0938,-34.0938 z " transform="translate(0,1)"/>
<path style="opacity:.15;fill:url(#radialGradient3619)" id="path3615" d="M 12,90 C 8.676,90 6,87.324 6,84 L 6,82 6,14 6,12 c 0,-0.334721 0.04135,-0.6507 0.09375,-0.96875 0.0487,-0.295596 0.09704,-0.596915 0.1875,-0.875 C 6.29113,10.12587 6.302142,10.09265 6.3125,10.0625 6.411365,9.774729 6.5473802,9.515048 6.6875,9.25 6.8320918,8.976493 7.0031161,8.714385 7.1875,8.46875 7.3718839,8.223115 7.5612765,7.995278 7.78125,7.78125 8.221197,7.353194 8.72416,6.966724 9.28125,6.6875 9.559795,6.547888 9.8547231,6.440553 10.15625,6.34375 9.9000482,6.443972 9.6695391,6.580022 9.4375,6.71875 c -0.00741,0.0044 -0.023866,-0.0045 -0.03125,0 -0.031933,0.0193 -0.062293,0.04251 -0.09375,0.0625 -0.120395,0.0767 -0.2310226,0.163513 -0.34375,0.25 -0.1061728,0.0808 -0.2132809,0.161112 -0.3125,0.25 C 8.4783201,7.442683 8.3087904,7.626638 8.15625,7.8125 8.0486711,7.942755 7.9378561,8.077785 7.84375,8.21875 7.818661,8.25713 7.805304,8.30462 7.78125,8.34375 7.716487,8.446782 7.6510225,8.548267 7.59375,8.65625 7.4927417,8.850956 7.3880752,9.071951 7.3125,9.28125 7.30454,9.30306 7.288911,9.3218 7.28125,9.34375 7.2494249,9.4357 7.2454455,9.530581 7.21875,9.625 7.1884177,9.731618 7.1483606,9.828031 7.125,9.9375 7.0521214,10.279012 7,10.635705 7,11 l 0,2 0,68 0,2 c 0,2.781848 2.2181517,5 5,5 l 2,0 68,0 2,0 c 2.781848,0 5,-2.218152 5,-5 l 0,-2 0,-68 0,-2 C 89,10.635705 88.94788,10.279012 88.875,9.9375 88.83085,9.730607 88.78662,9.539842 88.71875,9.34375 88.71105,9.3218 88.69545,9.30306 88.6875,9.28125 88.62476,9.107511 88.549117,8.913801 88.46875,8.75 88.42717,8.6672 88.38971,8.580046 88.34375,8.5 88.28915,8.40279 88.216976,8.31165 88.15625,8.21875 88.06214,8.077785 87.951329,7.942755 87.84375,7.8125 87.700576,7.63805 87.540609,7.465502 87.375,7.3125 87.36383,7.3023 87.35502,7.29135 87.34375,7.28125 87.205364,7.155694 87.058659,7.046814 86.90625,6.9375 86.803679,6.86435 86.701932,6.784136 86.59375,6.71875 c -0.0074,-0.0045 -0.02384,0.0044 -0.03125,0 -0.232039,-0.138728 -0.462548,-0.274778 -0.71875,-0.375 0.301527,0.0968 0.596455,0.204138 0.875,0.34375 0.55709,0.279224 1.060053,0.665694 1.5,1.09375 0.219973,0.214028 0.409366,0.441865 0.59375,0.6875 0.184384,0.245635 0.355408,0.507743 0.5,0.78125 0.14012,0.265048 0.276135,0.524729 0.375,0.8125 0.01041,0.03078 0.02133,0.06274 0.03125,0.09375 0.09046,0.278085 0.1388,0.579404 0.1875,0.875 C 89.95865,11.3493 90,11.665279 90,12 l 0,2 0,68 0,2 c 0,3.324 -2.676,6 -6,6 l -72,0 z"/>
<path style="opacity:.3;color:#000;stroke-width:2" id="path3953" d="m 80,48 a 32,32 0 1 1 -64,0 32,32 0 1 1 64,0 z" transform="translate(0,1)"/>
</g>
<g id="layer5">
<rect width="66" x="15" y="15" rx="12" height="66" ry="12" style="opacity:.1;fill:url(#linearGradient3613);filter:url(#filter3794);stroke:#fff;stroke-linecap:round;stroke-width:.5;clip-path:url(#clipPath3613)" id="rect3171"/>
</g>
<g style="stroke:none;color:#000;stroke-width:2" id="layer6">
<path style="fill:url(#radialGradient3914)" id="path3900" d="m 72,48 a 24,24 0 1 1 -48,0 24,24 0 1 1 48,0 z" transform="matrix(1.0833333,0,0,1.0833333,-3.9999992,-3.9999976)"/>
<path style="opacity:.08" id="path3924" d="m 48.2812,17.0312 c -17.0805,0 -30.9688,13.8882 -30.9688,30.9688 0,17.0805 13.8882,30.9688 30.9688,30.9688 17.0805,0 30.9688,-13.8882 30.9688,-30.9688 0,-17.0805 -13.8882,-30.9688 -30.9688,-30.9688 z  m -.2812,9.9062 c 11.6577,0 21.0625,9.40476 21.0625,21.0625 0,11.6577 -9.40476,21.0625 -21.0625,21.0625 -11.6577,0 -21.0625,-9.40476 -21.0625,-21.0625 0,-11.6577 9.40476,-21.0625 21.0625,-21.0625 z  m 0,2.125 c -10.4386,0 -18.9375,8.49887 -18.9375,18.9375 0,10.4386 8.49887,18.9375 18.9375,18.9375 10.4386,0 18.9375,-8.49887 18.9375,-18.9375 0,-10.4386 -8.49887,-18.9375 -18.9375,-18.9375 z "/>
<path style="opacity:.2" id="path3920" d="m 48.2812,18 c -16.5498,0 -30,13.4502 -30,30 0,16.5498 13.4502,30 30,30 16.5498,0 30,-13.4502 30,-30 0,-16.5498 -13.4502,-30 -30,-30 z  m -.2812,7.9688 c 12.1854,0 22.0312,9.84586 22.0312,22.0312 0,12.1854 -9.84586,22.0312 -22.0312,22.0312 -12.1854,0 -22.0312,-9.84586 -22.0312,-22.0312 0,-12.1854 9.84586,-22.0312 22.0312,-22.0312 z  m 0,4.0625 c -9.90726,0 -17.9688,8.06149 -17.9688,17.9688 0,9.90726 8.06149,17.9688 17.9688,17.9688 9.90726,0 17.9688,-8.06149 17.9688,-17.9688 0,-9.90726 -8.06149,-17.9688 -17.9688,-17.9688 z "/>
<path style="opacity:.4" id="path3916" d="m 48.2812,19 c -16.0086,0 -29,12.9914 -29,29 0,16.0086 12.9914,29 29,29 16.0086,0 29,-12.9914 29,-29 0,-16.0086 -12.9914,-29 -29,-29 z  m -.2812,5.9688 c 12.7254,0 23.0312,10.3058 23.0312,23.0312 0,12.7254 -10.3058,23.0312 -23.0312,23.0312 -12.7254,0 -23.0312,-10.3058 -23.0312,-23.0312 0,-12.7254 10.3058,-23.0312 23.0312,-23.0312 z  m 0,6.0625 c -9.36594,0 -16.9688,7.60281 -16.9688,16.9688 0,9.36594 7.60281,16.9688 16.9688,16.9688 9.36595,0 16.9688,-7.60281 16.9688,-16.9688 0,-9.36594 -7.6028,-16.9688 -16.9688,-16.9688 z "/>
<path style="opacity:.6" id="path3928" d="m 48,24 c -13.2548,0 -24,10.7452 -24,24 0,0.165582 -0.0033,0.335217 0,0.5 0.263839,-13.0261 10.9107,-23.5 24,-23.5 13.0893,0 23.7362,10.4739 24,23.5 0.003338,-0.164783 0,-0.334418 0,-0.5 0,-13.2548 -10.7452,-24 -24,-24 z "/>
</g>
<g id="layer4">
<g style="stroke:none;color:#000">
<g style="stroke-width:2">
<path style="fill:url(#linearGradient3842)" id="path3811" d="m 16,48 c 0,17.6731 14.3269,32 32,32 17.6731,0 32,-14.3269 32,-32 0,-17.6731 -14.3269,-32 -32,-32 -17.6731,0 -32,14.3269 -32,32 z  m 8,0 c 0,-13.2548 10.7452,-24 24,-24 13.2548,0 24,10.7452 24,24 0,13.2548 -10.7452,24 -24,24 -13.2548,0 -24,-10.7452 -24,-24 z "/>
<path style="fill:url(#radialGradient3863)" id="path3855" d="m 64,48 a 16,16 0 1 1 -32,0 16,16 0 1 1 32,0 z"/>
<path style="opacity:.6;fill:url(#linearGradient3875)" id="path3865" d="m 64,48 a 16,16 0 1 1 -32,0 16,16 0 1 1 32,0 z" transform="matrix(0.69078031,0,0,0.46875,14.842545,18)"/>
<path style="opacity:.2;fill:#fff" id="path3877" d="M 33.03125,47.5 C 33.02569,47.667863 33,47.830784 33,48 c 0,8.284271 6.715729,15 15,15 8.284271,0 15,-6.715729 15,-15 0,-0.169216 -0.02569,-0.332137 -0.03125,-0.5 C 62.702104,55.550182 56.115055,62 48,62 39.884945,62 33.297896,55.550182 33.03125,47.5 z"/>
<path style="opacity:.08" id="path3945" d="m 43.3857,39.195 c -1.81104,0.09931 -3.31249,1.8572 -3.15827,3.7033 -0.0021,4.22856 0.0041,8.45718 -0.0031,12.6857 0.106053,1.61035 1.40309,3.03809 2.98664,3.20306 1.37768,0.246808 2.51847,-0.673266 3.64978,-1.31219 3.06989,-1.81947 6.16862,-3.62196 9.2205,-5.45204 1.45602,-0.826923 2.1191,-2.80284 1.43558,-4.35662 -0.505652,-1.40964 -1.95018,-1.95041 -3.10641,-2.67987 -3.06485,-1.7962 -6.11174,-3.629 -9.18783,-5.40231 -0.567557,-0.281702 -1.19546,-0.469904 -1.83688,-0.389032 z "/>
<path style="opacity:.15" id="path3941" d="m 38.5625,17.9688 c -0.05334,0.004 -0.541023,0.05349 -0.59375,0.0625 -0.05273,0.009 -0.542096,0.142352 -0.59375,0.15625 -0.05165,0.0139 -0.543623,0.168833 -0.59375,0.1875 -0.05013,0.01867 -0.514338,0.195477 -0.5625,0.21875 -0.04816,0.02327 -0.485475,0.284825 -0.53125,0.3125 -0.04577,0.02767 -0.457014,0.311916 -0.5,0.34375 -0.04299,0.03183 -0.460179,0.339285 -0.5,0.375 -0.03982,0.03571 -0.401194,0.398218 -0.4375,0.4375 -0.03631,0.03928 -0.342526,0.426245 -0.375,0.46875 -0.03247,0.0425 -0.315394,0.454644 -0.34375,0.5 -0.02836,0.04536 -0.288509,0.483441 -0.3125,0.53125 -0.02399,0.04781 -0.230585,0.512657 -0.25,0.5625 -0.01942,0.04984 -0.172831,0.51106 -0.1875,0.5625 -0.01467,0.05144 -0.146456,0.541164 -0.15625,0.59375 -0.0098,0.05259 -0.05767,0.571728 -0.0625,0.625 -0.0048,0.05327 -0.03142,0.54026 -0.03125,0.59375 v 15.5 15.5 c 0.000137,0.07472 0.05262,0.769687 0.0625,0.84375 0.0099,0.07406 0.13679,0.771609 0.15625,0.84375 0.01946,0.07214 0.252546,0.743514 0.28125,0.8125 0.0287,0.06899 0.337542,0.716598 0.375,0.78125 0.03746,0.06465 0.423179,0.628287 0.46875,0.6875 0.04557,0.05921 0.509594,0.603487 0.5625,0.65625 0.05291,0.05276 0.596913,0.51709 0.65625,0.5625 0.05934,0.04541 0.653997,0.431468 0.71875,0.46875 0.06475,0.03728 0.680937,0.346483 0.75,0.375 0.06906,0.02852 0.740307,0.261986 0.8125,0.28125 0.07219,0.01926 0.769661,0.146568 0.84375,0.15625 0.07409,0.0097 0.769031,0.06256 0.84375,0.0625 0.07472,-6.5e-05 0.769678,-0.05269 0.84375,-0.0625 0.07407,-0.0098 0.771591,-0.13686 0.84375,-0.15625 0.07216,-0.01939 0.743487,-0.252612 0.8125,-0.28125 0.06901,-0.02864 0.716562,-0.337605 0.78125,-0.375 l 13.4062,-7.75 13.4062,-7.75 c 0.06433,-0.0375 0.628591,-0.454452 0.6875,-0.5 0.05891,-0.04555 0.603763,-0.50968 0.65625,-0.5625 0.05249,-0.05282 0.517325,-0.565805 0.5625,-0.625 0.04518,-0.0592 0.431654,-0.654184 0.46875,-0.71875 0.0371,-0.06457 0.346613,-0.681159 0.375,-0.75 0.02839,-0.06884 0.262053,-0.740553 0.28125,-0.8125 0.0192,-0.07195 0.146569,-0.769918 0.15625,-0.84375 0.0097,-0.07383 0.0625,-0.769286 0.0625,-0.84375 0,-0.07446 -0.05282,-0.769918 -0.0625,-0.84375 -0.0097,-0.07383 -0.137053,-0.771803 -0.15625,-0.84375 -0.0192,-0.07195 -0.252863,-0.743659 -0.28125,-0.8125 -0.02839,-0.06884 -0.337904,-0.685434 -0.375,-0.75 -0.0371,-0.06457 -0.423575,-0.659555 -0.46875,-0.71875 -0.04518,-0.0592 -0.510013,-0.57218 -0.5625,-0.625 -0.05249,-0.05282 -0.597341,-0.516952 -0.65625,-0.5625 -0.05891,-0.04555 -0.62317,-0.462497 -0.6875,-0.5 l -13.4062,-7.75 -13.4062,-7.75 v 0.03125 c -0.0739,-0.0436 -0.79541,-0.405454 -0.875,-0.4375 -0.07959,-0.03205 -0.854011,-0.292726 -0.9375,-0.3125 -0.08349,-0.01977 -0.883242,-0.149193 -0.96875,-0.15625 -0.08551,-0.0071 -0.883149,-0.0058 -0.96875,0 a 2.41044,2.41044 0 0,0 -0.03125,0 z " transform="matrix(0.39946539,0,0,0.40763698,28.043686,32.698268)"/>
<path style="opacity:.3" id="path3937" d="m 38.75,20.375 a 4.12368,4.12368 0 0,0 -3.8125,4.125 v 15.5 15.5 a 4.12368,4.12368 0 0,0 6.1875,3.5625 l 13.4062,-7.75 13.4062,-7.75 a 4.12368,4.12368 0 0,0 0,-7.125 l -13.4062,-7.75 -13.4062,-7.75 a 4.12368,4.12368 0 0,0 -2.375,-0.5625 z " transform="matrix(0.39946539,0,0,0.40763698,28.043686,32.698268)"/>
<path style="fill:url(#linearGradient4100)" id="path3935" d="m 38.75,20.375 a 4.12368,4.12368 0 0,0 -3.8125,4.125 v 15.5 15.5 a 4.12368,4.12368 0 0,0 6.1875,3.5625 l 13.4062,-7.75 13.4062,-7.75 a 4.12368,4.12368 0 0,0 0,-7.125 l -13.4062,-7.75 -13.4062,-7.75 a 4.12368,4.12368 0 0,0 -2.375,-0.5625 z " transform="matrix(0.39946539,0,0,0.40763698,28.043686,31.698268)"/>
<path style="opacity:.6;fill:#fff" id="path3963" d="m 48,16 c -17.6731,0 -32,14.3269 -32,32 0,0.166668 -0.0025,0.333936 0,0.5 0.266707,-17.443 14.4936,-31.5 32,-31.5 17.5064,0 31.7333,14.057 32,31.5 0.002539,-0.166064 0,-0.333332 0,-0.5 0,-17.6731 -14.3269,-32 -32,-32 z "/>
<path style="fill:url(#linearGradient3985)" id="path3974" d="m 74,48 c 0,-14.3594 -11.6406,-26 -26,-26 -14.3594,0 -26,11.6406 -26,26 0,14.3594 11.6406,26 26,26 14.3594,0 26,-11.6406 26,-26 z  m -2,0 c 0,13.2548 -10.7452,24 -24,24 -13.2548,0 -24,-10.7452 -24,-24 0,-13.2548 10.7452,-24 24,-24 13.2548,0 24,10.7452 24,24 z "/>
<g style="clip-path:url(#clipPath4014)" id="g3993" transform="matrix(0.70710678,0.70710678,-0.18213357,0.18213357,39.771848,-12.361206)">
<rect width="1" x="48" y="15" height="66" style="opacity:.6" id="rect3987"/>
<rect width="1" x="49" y="15" height="66" style="opacity:.2" id="rect3989"/>
<rect width="1" x="47" y="15" height="66" style="opacity:.4;fill:#fff" id="rect3991"/>
</g>
<g style="clip-path:url(#clipPath4014)" id="g4020" transform="matrix(-0.70710678,0.70710678,0.18213357,0.18213357,56.228152,-12.361206)">
<rect width="1" x="48" y="15" height="66" style="opacity:.6" id="rect4022"/>
<rect width="1" x="49" y="15" height="66" style="opacity:.2" id="rect4024"/>
<rect width="1" x="47" y="15" height="66" style="opacity:.4;fill:#fff" id="rect4026"/>
</g>
<g style="clip-path:url(#clipPath4014)" id="g4036" transform="matrix(-0.70710678,-0.70710678,0.18213357,-0.18213357,56.228151,108.36121)">
<rect width="1" x="48" y="15" height="66" style="opacity:.6" id="rect4038"/>
<rect width="1" x="49" y="15" height="66" style="opacity:.2" id="rect4040"/>
<rect width="1" x="47" y="15" height="66" style="opacity:.4;fill:#fff" id="rect4042"/>
</g>
<g style="clip-path:url(#clipPath4014)" id="g4044" transform="matrix(0.70710678,-0.70710678,-0.18213357,-0.18213357,39.771847,108.36121)">
<rect width="1" x="48" y="15" height="66" style="opacity:.6" id="rect4046"/>
<rect width="1" x="49" y="15" height="66" style="opacity:.2" id="rect4048"/>
<rect width="1" x="47" y="15" height="66" style="opacity:.4;fill:#fff" id="rect4050"/>
</g>
</g>
<g style="fill:#666;font-family:Liberation Sans;text-align:start;word-spacing:0;line-height:125%;letter-spacing:0;font-size:4px" id="text4054">
<path id="path4062" d="m 21.0367,50.0993 -1.0579,.835 .0934,.8523 1.1358,-.1244 .0406,.3708 -2.7356,.2997 -.141,-1.2872 c -0.01702,-0.155319 -0.01393,-0.294504 0.0093,-0.417556 0.02176,-0.1242 0.06182,-0.230761 0.120193,-0.31968 0.05837,-0.08892 0.133757,-0.16005 0.226149,-0.213402 0.0924,-0.05335 0.199429,-0.08669 0.321094,-0.100021 0.08672,-0.0095 0.173568,-0.0059 0.260534,0.01075 0.08683,0.01538 0.168167,0.04642 0.244015,0.09312 0.07585,0.04671 0.143627,0.109358 0.203323,0.187957 0.0597,0.0786 0.106355,0.175661 0.139968,0.291174 l 1.0934,-.9057 .0468,.4271 m -1.9433,.2679 c -0.08284,0.0091 -0.153111,0.03119 -0.210827,0.06633 -0.05771,0.03514 -0.103652,0.08209 -0.137823,0.140849 -0.03546,0.0589 -0.05864,0.128246 -0.06955,0.208032 -0.0122,0.07993 -0.01291,0.16908 -0.0021,0.267449 l .0964,.8795 1.0096,-.1106 -.0981,-.895 c -0.01163,-0.106134 -0.03464,-0.196613 -0.06904,-0.271439 -0.03569,-0.07468 -0.07953,-0.13406 -0.131513,-0.178142 -0.05212,-0.04537 -0.111177,-0.07623 -0.177154,-0.09258 -0.06611,-0.01764 -0.136062,-0.02242 -0.209841,-0.01434"/>
<path id="path4064" d="m 20.9723,49.1548 -2.7519,.018 -.0137,-2.0878 .3047,-.002 .0112,1.7148 .8828,-.0058 -.0105,-1.5976 .3008,-.002 .0105,1.5976 .959,-.0063 -.0117,-1.7949 .3047,-.002 .0142,2.1679"/>
<path id="path4066" d="m 21.2581,43.8733 -.0504,.4424 -1.7908,.2756 c -0.05078,0.0086 -0.110767,0.01752 -0.179958,0.02667 -0.06904,0.0079 -0.134701,0.01479 -0.196981,0.0208 -0.07292,0.0074 -0.147138,0.01469 -0.222651,0.0218 0.07312,0.02537 0.144372,0.04987 0.213755,0.0735 0.06048,0.02131 0.122821,0.04349 0.18703,0.06653 0.06421,0.02305 0.120086,0.04448 0.167623,0.06432 l 1.6824,.6753 -.0504,.4424 -2.826,.4937 .044,-.3862 1.7928,-.293 c 0.08401,-0.0127 0.167226,-0.02419 0.249647,-0.03445 0.08257,-0.01156 0.156361,-0.02084 0.221374,-0.02785 0.07695,-0.0083 0.149875,-0.01568 0.218769,-0.02225 -0.08705,-0.02958 -0.172741,-0.05965 -0.257061,-0.09023 -0.03519,-0.01318 -0.07232,-0.02659 -0.111397,-0.04022 -0.03907,-0.01362 -0.0775,-0.02718 -0.115278,-0.04066 -0.03763,-0.01477 -0.0734,-0.02868 -0.107295,-0.04171 -0.03504,-0.01448 -0.067,-0.02729 -0.09587,-0.03845 l -1.6477,-.6694 .0405,-.3551 1.7561,-.2815 c 0.03064,-0.0044 0.06459,-0.009 0.101844,-0.01395 0.03611,-0.0064 0.07409,-0.01187 0.113929,-0.0165 0.0387,-0.0061 0.07861,-0.01135 0.119752,-0.01584 0.04114,-0.0045 0.08033,-0.0092 0.117589,-0.01412 0.08904,-0.01082 0.179942,-0.02077 0.272713,-0.02986 0.000147,-0.0013 -0.02118,-0.0096 -0.06399,-0.02498 -0.0441,-0.01551 -0.0989,-0.03486 -0.164406,-0.05805 -0.0655,-0.02319 -0.136034,-0.04826 -0.211593,-0.07522 -0.07671,-0.0284 -0.147588,-0.05613 -0.21265,-0.08321 l -1.6817,-.6811 .044,-.3862 2.6425,1.1169"/>
<path id="path4068" d="m 44.2293,21.262 -.3826,.0564 -1.5123,-2.5588 .3884,-.0572 1.0361,1.8057 c 0.02786,0.05512 0.05573,0.110241 0.0836,0.16536 0.02768,0.05383 0.05256,0.102152 0.07467,0.144959 0.02582,0.05016 0.0508,0.09912 0.07495,0.146892 0.0084,-0.04994 0.01778,-0.102647 0.02803,-0.15812 0.0088,-0.04736 0.01806,-0.100714 0.02774,-0.160052 0.01097,-0.05953 0.02285,-0.12182 0.03563,-0.18688 l .4672,-2.0273 .3884,-.0572 -.7098,2.8863"/>
<path id="path4070" d="m 48.2248,19.5779 c 0.0086,0.214671 -0.01475,0.411081 -0.07013,0.589231 -0.05409,0.178099 -0.137167,0.331951 -0.249235,0.461558 -0.112073,0.129608 -0.251315,0.231639 -0.417726,0.306093 -0.166416,0.07446 -0.356958,0.115998 -0.571627,0.12463 -0.22638,0.0091 -0.4262,-0.01805 -0.599459,-0.08145 -0.173313,-0.0647 -0.319102,-0.157879 -0.437365,-0.279528 -0.118317,-0.12295 -0.209603,-0.270443 -0.273859,-0.44248 -0.06425,-0.172035 -0.100542,-0.361485 -0.10886,-0.56835 -0.0086,-0.214669 0.0135,-0.409726 0.06639,-0.585171 0.05289,-0.175442 0.134798,-0.32599 0.245725,-0.451644 0.110873,-0.12695 0.24957,-0.226353 0.416089,-0.298208 0.167766,-0.0732 0.361586,-0.114227 0.581462,-0.123071 0.218572,-0.0088 0.413759,0.0166 0.585563,0.07614 0.173101,0.0595 0.319357,0.148099 0.438768,0.265789 0.120707,0.117644 0.214464,0.26178 0.281272,0.432408 0.0668,0.170633 0.104469,0.361982 0.112999,0.574049 m -.3806,.0153 c -0.0066,-0.16523 -0.03416,-0.314636 -0.08253,-0.448218 -0.04708,-0.133632 -0.114182,-0.246912 -0.201317,-0.339843 -0.08584,-0.09298 -0.190951,-0.16303 -0.315339,-0.210156 -0.124391,-0.04712 -0.266599,-0.06747 -0.426624,-0.06103 -0.163932,0.0066 -0.306649,0.03839 -0.428154,0.0954 -0.121506,0.05701 -0.221956,0.135331 -0.30135,0.234953 -0.07809,0.09957 -0.135237,0.217851 -0.171429,0.354831 -0.03489,0.136931 -0.04901,0.288011 -0.04237,0.45324 0.0066,0.165232 0.03355,0.315965 0.08073,0.4522 0.04843,0.134882 0.115636,0.250765 0.20163,0.347648 0.08724,0.09553 0.193135,0.168809 0.317683,0.219836 0.125794,0.04967 0.268705,0.07129 0.428733,0.06486 0.171735,-0.0069 0.318277,-0.04082 0.439627,-0.10173 0.122648,-0.06097 0.221666,-0.142484 0.297055,-0.244554 0.07663,-0.103423 0.131044,-0.224847 0.163231,-0.364275 0.03348,-0.139477 0.04696,-0.290531 0.04042,-0.453161"/>
<path id="path4072" d="m 48.7995,20.9987 .162,-2.7472 .3724,.022 -.144,2.443 1.3882,.0818 -.0179,.3042 -1.7606,-.1038"/>
<path id="path4074" d="m 51.0561,21.1719 .0517,-.4246 .3781,.046 -.0517,.4246 -.3781,-.046"/>
<path id="path4076" d="m 54.4382,20.5597 -.188,.8145 -.2798,-.0646 .188,-.8145 -.8069,-.1862 .0641,-.2779 .8069,.1862 .188,-.8145 .2798,.0646 -.188,.8145 .8069,.1862 -.0641,.2779 -.8069,-.1862"/>
<path id="path4078" d="m 77.198,44.3813 -1.0177,.1086 .1629,1.5265 -.3069,.0328 -.1629,-1.5265 -1.1089,.1183 -.0396,-.3709 2.7364,-.292 .2075,1.944 -.303,.0323 -.1679,-1.5731"/>
<path id="path4080" d="m 74.9633,49.328 .0038,-.4453 1.7521,-.4616 c 0.0496,-0.0139 0.108323,-0.02903 0.176175,-0.04537 0.06784,-0.01505 0.13241,-0.02882 0.193719,-0.04132 0.07174,-0.01502 0.144791,-0.03002 0.219143,-0.04501 -0.07538,-0.01757 -0.148802,-0.03448 -0.220279,-0.05071 -0.06238,-0.01486 -0.1267,-0.03038 -0.192968,-0.04657 -0.06627,-0.01619 -0.124085,-0.03166 -0.173439,-0.0464 l -1.7439,-.4954 .0038,-.4453 2.7588,-.787 -.0033,.3887 -1.7522,.4792 c -0.08222,0.02143 -0.163773,0.04157 -0.244666,0.06041 -0.0809,0.02014 -0.153317,0.0371 -0.217239,0.05088 -0.07566,0.01628 -0.147408,0.03129 -0.215236,0.04504 0.08967,0.0203 0.178039,0.04123 0.265098,0.06281 0.03638,0.0094 0.07471,0.01887 0.114997,0.02833 0.04028,0.0095 0.07992,0.01891 0.118903,0.02836 0.03897,0.01075 0.076,0.02083 0.111074,0.03025 0.03637,0.01073 0.06949,0.02012 0.09937,0.02819 l 1.7087,.4931 -.0031,.3574 -1.7169,.4639 c -0.03001,0.0076 -0.06329,0.01573 -0.09982,0.02454 -0.03524,0.01011 -0.07244,0.01956 -0.111574,0.02835 -0.03785,0.01009 -0.07699,0.01952 -0.117434,0.02829 -0.04044,0.0088 -0.07893,0.01755 -0.115464,0.02636 -0.08741,0.02009 -0.176776,0.0395 -0.268085,0.05826 -1.1e-05,0.0013 0.02207,0.0073 0.06625,0.01814 0.04548,0.0108 0.102009,0.02431 0.169582,0.04051 0.06757,0.0162 0.140341,0.03375 0.218308,0.05265 0.07926,0.02021 0.152655,0.04036 0.220195,0.06048 l 1.7438,.5012 -.0033,.3887 -2.7449,-.834"/>
<path id="path4082" d="m 75.964,53.0119 c -0.227153,-0.03032 -0.423282,-0.09131 -0.588388,-0.182966 -0.163815,-0.09149 -0.296523,-0.20444 -0.398123,-0.338852 -0.100309,-0.134245 -0.169941,-0.286724 -0.208896,-0.457439 -0.03784,-0.169256 -0.04427,-0.347454 -0.01929,-0.534595 l .1362,-1.0202 2.7278,.3641 -.1204,.9022 c -0.02808,0.210372 -0.08038,0.400436 -0.156893,0.570193 -0.0754,0.171215 -0.176478,0.313389 -0.303234,0.426522 -0.125469,0.113301 -0.276831,0.194248 -0.454087,0.242841 -0.177431,0.04988 -0.382303,0.05932 -0.614617,0.02831 m .0496,-.3717 c 0.18456,0.02463 0.345549,0.01919 0.482967,-0.01633 0.138707,-0.03535 0.25638,-0.09518 0.353021,-0.179483 0.09664,-0.08431 0.173187,-0.190352 0.229651,-0.318117 0.05775,-0.127598 0.09722,-0.27077 0.118412,-0.429516 l .07,-.5246 -2.1354,-.285 -.0811,.6079 c -0.01912,0.143259 -0.01355,0.27865 0.01672,0.406173 0.0301,0.12881 0.08502,0.243858 0.164771,0.345145 0.07975,0.101282 0.184668,0.186222 0.314758,0.254819 0.130088,0.06859 0.285478,0.114948 0.466168,0.139067"/>
<path id="path4084" d="m 51.6365,74.7531 .3827,-.0554 1.5054,2.5628 -.3885,.0562 -1.0312,-1.8085 c -0.02772,-0.05519 -0.05544,-0.11039 -0.08315,-0.165583 -0.02753,-0.05391 -0.05229,-0.102293 -0.07428,-0.145159 -0.02568,-0.05023 -0.05054,-0.09926 -0.07456,-0.147092 -0.0086,0.04992 -0.01805,0.102598 -0.02845,0.158044 -0.0089,0.04734 -0.01833,0.100665 -0.02817,0.159977 -0.01113,0.0595 -0.02317,0.121758 -0.03613,0.186784 l -.4727,2.026 -.3885,.0562 .7175,-2.8844"/>
<path id="path4086" d="m 47.6365,76.4264 c -0.008,-0.214694 0.01587,-0.41104 0.07173,-0.589038 0.05457,-0.177951 0.138069,-0.331577 0.250489,-0.460879 0.112425,-0.129303 0.251944,-0.230955 0.418557,-0.304956 0.166618,-0.074 0.357272,-0.115027 0.571963,-0.123076 0.226405,-0.0085 0.42615,0.01921 0.599236,0.08308 0.173137,0.06517 0.318671,0.158747 0.436604,0.280717 0.117982,0.12327 0.208867,0.271011 0.272654,0.443222 0.06379,0.172209 0.09956,0.361757 0.107315,0.568644 0.008,0.214692 -0.01461,0.409688 -0.06798,0.584989 -0.05337,0.175297 -0.135683,0.325621 -0.246951,0.450974 -0.111218,0.126648 -0.250184,0.225674 -0.416898,0.297076 -0.167965,0.07275 -0.361896,0.113243 -0.581795,0.121489 -0.218595,0.0082 -0.413713,-0.01772 -0.585354,-0.07774 -0.172939,-0.05997 -0.318953,-0.148966 -0.438043,-0.266981 -0.120387,-0.117971 -0.213752,-0.262361 -0.280096,-0.43317 -0.06634,-0.170814 -0.103484,-0.362265 -0.111438,-0.574354 m .3806,-.0143 c 0.0062,0.165247 0.0333,0.314727 0.08131,0.44844 0.04671,0.133759 0.11351,0.247222 0.200392,0.340389 0.08559,0.09321 0.190508,0.163548 0.314767,0.211013 0.124263,0.04746 0.266415,0.06819 0.426457,0.06219 0.163949,-0.0061 0.306752,-0.03756 0.428411,-0.09424 0.121661,-0.05668 0.222324,-0.134728 0.301988,-0.234134 0.07836,-0.09936 0.135829,-0.217482 0.172393,-0.354363 0.03526,-0.136835 0.0498,-0.287876 0.0436,-0.453123 -0.0062,-0.16525 -0.0327,-0.316056 -0.0795,-0.452418 -0.04806,-0.135014 -0.114954,-0.251079 -0.200685,-0.348195 -0.08698,-0.09577 -0.192675,-0.169334 -0.317084,-0.220698 -0.125658,-0.05002 -0.26851,-0.07202 -0.428555,-0.06602 -0.171753,0.0064 -0.318387,0.03995 -0.439902,0.100535 -0.122813,0.06063 -0.222052,0.141881 -0.297719,0.243745 -0.07691,0.103214 -0.131654,0.22449 -0.16422,0.36383 -0.03386,0.139386 -0.04775,0.290402 -0.04165,0.45305"/>
<path id="path4088" d="m 47.0656,75.004 -.1695,2.7467 -.3723,-.023 .1507,-2.4426 -1.388,-.0857 .0188,-.3041 1.7603,.1086"/>
<path id="path4090" d="m 44.8093,74.8246 -.0528,.4245 -.3779,-.047 .0528,-.4245 .3779,.047"/>
<path id="path4092" d="m 43.7423,75.5985 -.0527,.308 -.9626,-.1647 .0527,-.308 .9626,.1647"/>
</g>
</g>
</g>
</svg>
