<?xml version="1.0" encoding="UTF-8" standalone="no"?>
<!-- Created with Inkscape (http://www.inkscape.org/) -->

<svg
   xmlns:dc="http://purl.org/dc/elements/1.1/"
   xmlns:cc="http://creativecommons.org/ns#"
   xmlns:rdf="http://www.w3.org/1999/02/22-rdf-syntax-ns#"
   xmlns:svg="http://www.w3.org/2000/svg"
   xmlns="http://www.w3.org/2000/svg"
   xmlns:xlink="http://www.w3.org/1999/xlink"
   xmlns:sodipodi="http://sodipodi.sourceforge.net/DTD/sodipodi-0.dtd"
   xmlns:inkscape="http://www.inkscape.org/namespaces/inkscape"
   version="1.0"
   width="96"
   height="96"
   id="svg2408"
   inkscape:version="0.48.4 r9939"
   sodipodi:docname="contact-new.svg">
  <metadata
     id="metadata153">
    <rdf:RDF>
      <cc:Work
         rdf:about="">
        <dc:format>image/svg+xml</dc:format>
        <dc:type
           rdf:resource="http://purl.org/dc/dcmitype/StillImage" />
      </cc:Work>
    </rdf:RDF>
  </metadata>
  <sodipodi:namedview
     pagecolor="#ffffff"
     bordercolor="#666666"
     borderopacity="1"
     objecttolerance="10"
     gridtolerance="10"
     guidetolerance="10"
     inkscape:pageopacity="0"
     inkscape:pageshadow="2"
     inkscape:window-width="1920"
     inkscape:window-height="1018"
     id="namedview151"
     showgrid="false"
     inkscape:zoom="128"
     inkscape:cx="64.815373"
     inkscape:cy="28.507581"
     inkscape:window-x="-8"
     inkscape:window-y="-8"
     inkscape:window-maximized="1"
     inkscape:current-layer="svg2408" />
  <defs
     id="defs2410">
    <linearGradient
       id="linearGradient3897">
      <stop
         id="stop3899"
         style="stop-color:#aec6e9;stop-opacity:1"
         offset="0" />
      <stop
         id="stop3901"
         style="stop-color:#aac3e8;stop-opacity:0"
         offset="1" />
    </linearGradient>
    <linearGradient
       id="linearGradient3690">
      <stop
         id="stop3692"
         style="stop-color:#000000;stop-opacity:1"
         offset="0" />
      <stop
         id="stop3694"
         style="stop-color:#000000;stop-opacity:0"
         offset="1" />
    </linearGradient>
    <linearGradient
       id="linearGradient3778">
      <stop
         id="stop3780"
         style="stop-color:#98b5e3;stop-opacity:1"
         offset="0" />
      <stop
         id="stop3782"
         style="stop-color:#bed1ed;stop-opacity:1"
         offset="1" />
    </linearGradient>
    <linearGradient
       x1="45.447727"
       y1="92.539597"
       x2="45.447727"
       y2="7.0165396"
       id="ButtonShadow"
       gradientUnits="userSpaceOnUse"
       gradientTransform="scale(1.0058652,0.994169)">
      <stop
         id="stop3750"
         style="stop-color:#000000;stop-opacity:1"
         offset="0" />
      <stop
         id="stop3752"
         style="stop-color:#000000;stop-opacity:0.58823532"
         offset="1" />
    </linearGradient>
    <linearGradient
       id="linearGradient3737">
      <stop
         id="stop3739"
         style="stop-color:#ffffff;stop-opacity:1"
         offset="0" />
      <stop
         id="stop3741"
         style="stop-color:#ffffff;stop-opacity:0"
         offset="1" />
    </linearGradient>
    <filter
       color-interpolation-filters="sRGB"
       id="filter3174">
      <feGaussianBlur
         id="feGaussianBlur3176"
         stdDeviation="1.71" />
    </filter>
    <filter
       x="-0.192"
       y="-0.192"
       width="1.3839999"
       height="1.3839999"
       color-interpolation-filters="sRGB"
       id="filter3794">
      <feGaussianBlur
         id="feGaussianBlur3796"
         stdDeviation="5.28" />
    </filter>
    <linearGradient
       x1="48"
       y1="20.220806"
       x2="48"
       y2="138.66119"
       id="linearGradient3613"
       xlink:href="#linearGradient3737"
       gradientUnits="userSpaceOnUse" />
    <clipPath
       id="clipPath3613">
      <rect
         width="84"
         height="84"
         rx="6"
         ry="6"
         x="6"
         y="6"
         id="rect3615"
         style="fill:#ffffff;fill-opacity:1;fill-rule:nonzero;stroke:none" />
    </clipPath>
    <linearGradient
       x1="58.650177"
       y1="122"
       x2="58.650177"
       y2="5.4252338"
       id="ButtonColor-0"
       gradientUnits="userSpaceOnUse"
       gradientTransform="matrix(1.0172414,0,0,1.0172414,-1.1034483,-1.1034483)">
      <stop
         id="stop3189-4"
         style="stop-color:#dcdcdc;stop-opacity:1"
         offset="0" />
      <stop
         id="stop3191-8"
         style="stop-color:#f0f0f0;stop-opacity:1"
         offset="1" />
    </linearGradient>
    <linearGradient
       x1="24.333759"
       y1="55.889599"
       x2="24.333759"
       y2="28.220181"
       id="linearGradient3784"
       xlink:href="#linearGradient3778"
       gradientUnits="userSpaceOnUse"
       gradientTransform="translate(0,-84)" />
    <linearGradient
       x1="26.606602"
       y1="25.705502"
       x2="26.606602"
       y2="42.884689"
       id="linearGradient3799"
       xlink:href="#linearGradient3737"
       gradientUnits="userSpaceOnUse" />
    <radialGradient
       cx="40.637058"
       cy="55.726189"
       r="14"
       fx="40.637058"
       fy="55.726189"
       id="radialGradient3767"
       xlink:href="#linearGradient3690"
       gradientUnits="userSpaceOnUse"
       gradientTransform="matrix(-3.0154454e-7,-2.4635793,3.3190782,-3.8166508e-7,-144.32251,158.78014)" />
    <linearGradient
       x1="47.868935"
       y1="91.174545"
       x2="47.868935"
       y2="5.8992176"
       id="linearGradient3707"
       xlink:href="#ButtonShadow-2"
       gradientUnits="userSpaceOnUse" />
    <linearGradient
       x1="45.447727"
       y1="92.539597"
       x2="45.447727"
       y2="7.0165396"
       id="ButtonShadow-2"
       gradientUnits="userSpaceOnUse"
       gradientTransform="scale(1.0058652,0.994169)">
      <stop
         id="stop3750-1"
         style="stop-color:#000000;stop-opacity:1"
         offset="0" />
      <stop
         id="stop3752-9"
         style="stop-color:#000000;stop-opacity:0.58823532"
         offset="1" />
    </linearGradient>
    <linearGradient
       x1="46.965103"
       y1="93.415817"
       x2="46.965103"
       y2="8.3638449"
       id="linearGradient3722"
       xlink:href="#ButtonShadow-2"
       gradientUnits="userSpaceOnUse"
       gradientTransform="translate(-1,-1.0000001)" />
    <linearGradient
       x1="46.965103"
       y1="93.415817"
       x2="46.965103"
       y2="8.3638449"
       id="linearGradient3736"
       xlink:href="#ButtonShadow-2"
       gradientUnits="userSpaceOnUse"
       gradientTransform="translate(-1,-1.0000001)" />
    <linearGradient
       x1="46.965103"
       y1="93.415817"
       x2="46.965103"
       y2="8.3638449"
       id="linearGradient3752"
       xlink:href="#ButtonShadow-2"
       gradientUnits="userSpaceOnUse"
       gradientTransform="translate(-1,-1.0000001)" />
    <linearGradient
       x1="46.965103"
       y1="93.415817"
       x2="46.965103"
       y2="8.3638449"
       id="linearGradient3811"
       xlink:href="#ButtonShadow-2"
       gradientUnits="userSpaceOnUse"
       gradientTransform="translate(-1,-1)" />
    <linearGradient
       inkscape:collect="always"
       xlink:href="#linearGradient3737"
       id="linearGradient3132"
       gradientUnits="userSpaceOnUse"
       x1="36.357143"
       y1="6"
       x2="36.357143"
       y2="63.893143" />
    <linearGradient
       inkscape:collect="always"
       xlink:href="#linearGradient3897"
       id="linearGradient3135"
       gradientUnits="userSpaceOnUse"
       x1="44.638336"
       y1="6.805913"
       x2="44.638336"
       y2="36.612774" />
    <radialGradient
       inkscape:collect="always"
       xlink:href="#linearGradient3737"
       id="radialGradient3139"
       gradientUnits="userSpaceOnUse"
       gradientTransform="matrix(1.1573129,0,0,0.99590774,-7.551021,0.19713193)"
       cx="48"
       cy="90.171875"
       fx="48"
       fy="90.171875"
       r="42" />
    <linearGradient
       inkscape:collect="always"
       xlink:href="#ButtonColor-0"
       id="linearGradient3142"
       gradientUnits="userSpaceOnUse"
       x1="48"
       y1="90"
       x2="48"
       y2="5.9877172" />
    <linearGradient
       inkscape:collect="always"
       xlink:href="#linearGradient3737"
       id="linearGradient3204"
       gradientUnits="userSpaceOnUse"
       x1="36.357143"
       y1="6"
       x2="36.357143"
       y2="63.893143" />
    <radialGradient
       inkscape:collect="always"
       xlink:href="#linearGradient3737"
       id="radialGradient3207"
       gradientUnits="userSpaceOnUse"
       gradientTransform="matrix(1.1573129,0,0,0.99590774,-7.551021,0.19713193)"
       cx="48"
       cy="90.171875"
       fx="48"
       fy="90.171875"
       r="42" />
    <linearGradient
       inkscape:collect="always"
       xlink:href="#ButtonShadow-2"
       id="linearGradient3210"
       gradientUnits="userSpaceOnUse"
       gradientTransform="translate(-1,-1)"
       x1="46.965103"
       y1="93.415817"
       x2="46.965103"
       y2="8.3638449" />
  </defs>
  <g
     id="layer2"
     style="display:none">
    <path
       d="M 11,7 C 7.676,7 5,9.676 5,13 l 0,73 c 0,3.324 2.676,6 6,6 l 74,0 c 3.324,0 6,-2.676 6,-6 L 91,13 C 91,9.676 88.324,7 85,7 l -15,0 0,2.5625 c 1.19379,0.692085 2,1.958291 2,3.4375 0,2.209139 -1.79086,4 -4,4 -2.20914,0 -4,-1.790861 -4,-4 0,-1.479209 0.80621,-2.745415 2,-3.4375 L 66,7 30,7 30,9.5625 c 1.19379,0.692085 2,1.958291 2,3.4375 0,2.209139 -1.79086,4 -4,4 -2.20914,0 -4,-1.790861 -4,-4 0,-1.479209 0.80621,-2.745415 2,-3.4375 L 26,7 11,7 z"
       id="rect3745"
       style="opacity:0.9;fill:url(#ButtonShadow);fill-opacity:1;fill-rule:nonzero;stroke:none;filter:url(#filter3174)" />
  </g>
  <g
     id="layer4"
     style="display:inline">
    <path
       style="opacity:0.07999998;fill:url(#linearGradient3210);fill-opacity:1;fill-rule:nonzero;stroke:none;display:inline"
       d="M 12,4.09375 C 5.8060974,3.8009993 1.1669319,10.3035 2.0944489,16.08116 c 0.06322,23.474394 -0.1476496,46.956228 0.084861,70.425962 0.6859713,5.719223 6.8003043,8.610895 12.2817081,8.398441 23.681108,-0.06273 47.369655,0.147468 71.046104,-0.08487 5.803708,-0.199399 9.265956,-6.857169 8.398442,-12.273894 -0.06269,-23.35038 0.147428,-46.7082 -0.08487,-70.053918 C 93.120438,6.6539384 86.778402,3.1810656 81.291011,4.1020797 58.385236,4.1696718 33.744515,4.0708962 12,4.09375 z m 16.09375,8.6875 c 1.525015,2.444652 -2.106641,2.691516 0,0 z m 40,0 c 1.525014,2.444651 -2.106638,2.691516 0,0 z"
       id="path3758"
       inkscape:connector-curvature="0"
       sodipodi:nodetypes="ccccccccccccc" />
    <path
       d="M 12,5 C 6.5057413,4.8226625 2.2688151,10.242553 3,15.51889 3.0309044,38.985409 2.9381256,62.455054 3.0465048,85.919616 3.4221938,91.193519 8.7597,94.680368 13.772038,94 37.487508,93.96909 61.206104,94.06189 84.919616,93.9535 90.193519,93.577806 93.680368,88.2403 93,83.227962 92.9691,59.845825 93.06187,36.460563 92.9535,13.080384 92.577811,7.8064809 87.240305,4.3196317 82.227967,5 77.875341,5.0650149 73.487528,4.8715384 69.156255,5.09375 67.96388,6.4331658 67.68292,5.2248289 66.250005,5 53.948794,5.0209559 41.640652,4.9581688 29.343755,5.03125 28.049946,6.0756153 27.841451,5.6834995 26.468755,5 21.645838,5 16.822922,5 12.000005,5 z m 16,6.5625 c 3.752455,2.026235 -1.381779,7.249395 -1.430983,1.851426 C 26.677832,12.5193 27.639226,12.271287 28,11.5625 z m 40,0 c 3.752455,2.026235 -1.381779,7.249395 -1.430983,1.851426 C 66.677832,12.5193 67.639226,12.271287 68,11.5625 z"
       id="path3744-9"
       style="opacity:0.1;fill:url(#linearGradient3752);fill-opacity:1;fill-rule:nonzero;stroke:none;display:inline" />
    <path
       d="M 12,5.9687499 C 7.5628051,5.9687499 3.96875,9.562805 3.96875,14 l 0,71 c 0,4.437195 3.5940551,8.03125 8.03125,8.03125 l 72,0 c 4.437195,0 8.03125,-3.594055 8.03125,-8.03125 l 0,-71 C 92.03125,9.562805 88.437195,5.9687499 84,5.9687499 l -14.25,0 a 1.0420122,1.0420122 0 0 0 -1.03125,1.03125 l 0,3.5625001 a 1.0420122,1.0420122 0 0 0 0.46875,0.875 c 0.737994,0.488062 1.28125,1.413642 1.28125,2.5625 0,1.717559 -1.174525,2.96875 -2.46875,2.96875 -1.294225,0 -2.46875,-1.251191 -2.46875,-2.96875 0,-1.148858 0.543256,-2.074438 1.28125,-2.5625 a 1.0420122,1.0420122 0 0 0 0.46875,-0.875 l 0,-3.5625001 A 1.0420122,1.0420122 0 0 0 66.25,5.9687499 l -36.5,0 a 1.0420122,1.0420122 0 0 0 -1.03125,1.03125 l 0,3.5625001 a 1.0420122,1.0420122 0 0 0 0.46875,0.875 c 0.737994,0.488062 1.28125,1.413642 1.28125,2.5625 0,1.717559 -1.174525,2.96875 -2.46875,2.96875 -1.294225,0 -2.46875,-1.251191 -2.46875,-2.96875 0,-1.148858 0.543256,-2.074438 1.28125,-2.5625 a 1.0420122,1.0420122 0 0 0 0.46875,-0.875 l 0,-3.5625001 A 1.0420122,1.0420122 0 0 0 26.25,5.9687499 l -14.25,0 z"
       id="path3734-9"
       style="opacity:0.2;fill:url(#linearGradient3736);fill-opacity:1;fill-rule:nonzero;stroke:none;display:inline" />
    <path
       d="M 12,6.9999999 C 8.122,6.9999999 5,10.122 5,14 l 0,71 c 0,3.878 3.122,7 7,7 l 72,0 c 3.878,0 7,-3.122 7,-7 L 91,14 C 91,10.122 87.878,6.9999999 84,6.9999999 l -14.25,0 0,3.5625001 c 1.046496,0.692085 1.75,1.958291 1.75,3.4375 0,2.209139 -1.563432,4 -3.5,4 -1.936568,0 -3.5,-1.790861 -3.5,-4 0,-1.479209 0.703504,-2.745415 1.75,-3.4375 l 0,-3.5625001 -36.5,0 0,3.5625001 c 1.046496,0.692085 1.75,1.958291 1.75,3.4375 0,2.209139 -1.563432,4 -3.5,4 -1.936568,0 -3.5,-1.790861 -3.5,-4 0,-1.479209 0.703504,-2.745415 1.75,-3.4375 l 0,-3.5625001 -14.25,0 z"
       id="rect3713"
       style="opacity:0.3;fill:url(#linearGradient3722);fill-opacity:1;fill-rule:nonzero;stroke:none;display:inline" />
    <path
       d="m 12,6.9999999 c -3.324,0 -6,2.676 -6,6.0000001 l 0,72 c 0,3.324 2.676,6 6,6 l 72,0 c 3.324,0 6,-2.676 6,-6 L 90,13 C 90,9.6759999 87.324,6.9999999 84,6.9999999 l -14,0 0,2.5625 C 71.193791,10.254585 72,11.520791 72,13 c 0,2.209139 -1.790861,4 -4,4 -2.209139,0 -4,-1.790861 -4,-4 0,-1.479209 0.806209,-2.745415 2,-3.4375001 l 0,-2.5625 -36,0 0,2.5625 C 31.193791,10.254585 32,11.520791 32,13 c 0,2.209139 -1.790861,4 -4,4 -2.209139,0 -4,-1.790861 -4,-4 0,-1.479209 0.806209,-2.745415 2,-3.4375001 l 0,-2.5625 -14,0 z"
       id="path3693"
       style="opacity:0.45;fill:url(#linearGradient3707);fill-opacity:1;fill-rule:nonzero;stroke:none;display:inline" />
  </g>
  <path
     inkscape:connector-curvature="0"
     style="fill:url(#linearGradient3142);fill-opacity:1;fill-rule:nonzero;stroke:none"
     id="rect2419"
     d="M 12,6 C 8.676,6 6,8.676 6,12 l 0,72 c 0,3.324 2.676,6 6,6 l 72,0 c 3.324,0 6,-2.676 6,-6 L 90,12 C 90,8.676 87.324,6 84,6 l -14,0 0,2.5625 c 1.193791,0.6920851 2,1.958291 2,3.4375 0,2.209139 -1.790861,4 -4,4 -2.209139,0 -4,-1.790861 -4,-4 0,-1.479209 0.806209,-2.7454149 2,-3.4375 L 66,6 30,6 30,8.5625 c 1.193791,0.6920851 2,1.958291 2,3.4375 0,2.209139 -1.790861,4 -4,4 -2.209139,0 -4,-1.790861 -4,-4 0,-1.479209 0.806209,-2.7454149 2,-3.4375 L 26,6 12,6 z" />
  <path
     style="opacity:0.3;fill:url(#radialGradient3207);fill-opacity:1;fill-rule:nonzero;stroke:none"
     d="M 12,90 C 8.1142472,90.136776 5.4184183,86.208403 6,82.577386 6.0181775,58.888301 5.9636622,35.1972 6.027225,11.509373 5.2821188,9.1679552 10.538278,5.6959989 9.3125,6.78125 6.0685365,8.8069161 7.2093248,12.906109 7,16.082329 7.0170866,38.559536 6.9658435,61.03844 7.02559,83.514587 7.2370869,86.815059 10.696591,88.463115 13.659716,88 37.277794,87.982915 60.897569,88.034154 84.514587,87.97441 87.815059,87.762913 89.463115,84.303409 89,81.340284 88.976522,57.713974 89.046936,34.084609 88.96483,10.460206 89.604204,8.2843066 84.015174,5.1113833 87.512679,7.178563 91.04634,9.659906 89.750027,14.160254 90,17.793636 c -0.0206,22.273583 0.04118,44.549232 -0.03086,66.821525 C 89.716104,88.390514 85.81077,90.524024 82.340284,90 58.893523,90 35.446761,90 12,90 z"
     id="path3615"
     inkscape:connector-curvature="0" />
  <path
     inkscape:connector-curvature="0"
     style="fill:url(#linearGradient3135);fill-opacity:1;fill-rule:nonzero;stroke:none"
     id="path3890"
     d="M 12,6 C 8.676,6 6,8.676 6,12 l 0,24.90625 84,0 L 90,12 C 90,8.676 87.324,6 84,6 l -14,0 0,2.5625 c 1.193791,0.6920851 2,1.958291 2,3.4375 0,2.209139 -1.790861,4 -4,4 -2.209139,0 -4,-1.790861 -4,-4 0,-1.479209 0.806209,-2.7454149 2,-3.4375 L 66,6 30,6 30,8.5625 c 1.193791,0.6920851 2,1.958291 2,3.4375 0,2.209139 -1.790861,4 -4,4 -2.209139,0 -4,-1.790861 -4,-4 0,-1.479209 0.806209,-2.7454149 2,-3.4375 L 26,6 12,6 z" />
  <path
     style="opacity:0.5;fill:url(#linearGradient3204);fill-opacity:1;fill-rule:nonzero;stroke:none"
     d="M 12,6 C 8.1142472,5.8632243 5.4184183,9.7915972 6,13.422614 6.0181775,37.111699 5.9636622,60.8028 6.027225,84.490627 5.7352438,87.363295 10.538278,90.304001 9.3125,89.21875 6.0685365,87.193084 7.2093248,83.093891 7,79.917671 7.0170866,57.440464 6.9658435,34.96156 7.02559,12.485413 7.2370867,9.1849412 10.564008,7.9788264 13.659716,8 17.773144,8 21.886572,8 26,8 26.5557,5.9872928 25.364456,5.7215293 23.628977,6 19.752652,6 15.876326,6 12,6 z M 30,6 C 29.842048,8.0016587 30.536107,7.9470144 32.371023,8 43.580682,8 54.790341,8 66,8 66.102575,5.9872928 65.505081,5.9871543 63.628977,6 52.419318,6 41.209659,6 30,6 z m 40,0 c -0.0088,1.9970822 0.510544,1.9347207 2.371023,2 4.212379,0.061811 8.471719,0.029206 12.642515,0.1007445 3.111226,0.2238053 4.023435,3.7047015 3.986462,6.5589715 -0.02348,23.62631 0.04694,47.255675 -0.03517,70.880078 -0.04564,2.595744 -4.949656,5.348823 -1.452151,3.281643 C 91.04634,86.340094 89.750027,81.839746 90,78.206364 89.979404,55.932781 90.041181,33.657132 89.969136,11.384839 89.716104,7.6094859 86.232645,5.9134762 82.340284,6 78.226856,6 74.113428,6 70,6 z"
     id="rect3728"
     inkscape:connector-curvature="0"
     sodipodi:nodetypes="ccccccccccccccccccccccccc" />
  <path
     inkscape:connector-curvature="0"
     style="opacity:0.3;fill:#ffffff;fill-opacity:1;stroke:none"
     id="path3739"
     d="M 24.03125,12.40625 C 24.001249,12.602572 24,12.794487 24,13 c 0,2.209139 1.79086,4 4,4 2.20914,0 4,-1.790861 4,-4 0,-0.205513 -0.0012,-0.397428 -0.03125,-0.59375 C 31.764726,14.424122 30.071673,16 28,16 25.928327,16 24.235274,14.424122 24.03125,12.40625 z m 40,0 C 64.001249,12.602572 64,12.794487 64,13 c 0,2.209139 1.79086,4 4,4 2.20914,0 4,-1.790861 4,-4 0,-0.205513 -0.0012,-0.397428 -0.03125,-0.59375 C 71.764726,14.424122 70.071673,16 68,16 65.928327,16 64.235274,14.424122 64.03125,12.40625 z" />
  <g
     id="layer5">
    <rect
       width="66"
       height="66"
       rx="12"
       ry="12"
       x="15"
       y="15"
       clip-path="url(#clipPath3613)"
       id="rect3171"
       style="opacity:0.6;fill:url(#linearGradient3613);fill-opacity:1;fill-rule:nonzero;stroke:#ffffff;stroke-width:0.5;stroke-linecap:round;stroke-linejoin:miter;stroke-miterlimit:4;stroke-opacity:1;stroke-dasharray:none;stroke-dashoffset:0;filter:url(#filter3794)" />
  </g>
  <g
     id="layer3">
    <rect
       width="28"
       height="34"
       rx="0.9333334"
       ry="0.94444448"
       x="13"
       y="25"
       id="rect3702"
       style="opacity:0.2;fill:url(#radialGradient3767);fill-opacity:1;stroke:none" />
    <rect
       width="26"
       height="32"
       x="14"
       y="26"
       id="rect3764"
       style="fill:#ffffff;fill-opacity:1;stroke:none" />
    <rect
       width="22"
       height="28"
       x="16"
       y="-56"
       transform="scale(1,-1)"
       id="rect3766"
       style="fill:url(#linearGradient3784);fill-opacity:1;stroke:none" />
    <path
       d="m 26.999999,30.596211 c -2.344225,0 -4.244593,1.758136 -4.244593,3.926908 0.0057,0.248545 0.0093,0.532332 0.03537,0.84148 -0.370992,0.196039 -0.419349,0.962682 -0.08843,1.735552 0.127605,0.298023 0.301648,0.540176 0.477516,0.736294 0.0058,0.0066 0.01179,0.01112 0.01769,0.01751 0.04198,0.204202 0.07303,0.365712 0.1238,0.596049 0.157277,0.467699 0.807188,1.347432 1.379494,2.1037 0.05708,0.583408 0.06176,1.159593 -0.05307,1.823208 -1.647294,1.354712 -5.860316,1.963454 -5.854001,3.36592 l -0.565944,3.646414 c 0,0.747084 1.125899,1.431121 2.918157,1.893329 l 0.247602,0.999259 c 0.143674,0.38121 0.518106,0.422509 0.742803,0.560986 1.148487,0.330511 2.897257,0.560984 4.863597,0.560984 1.966341,0 3.732794,-0.230473 4.881281,-0.560984 0.354971,-0.04472 0.527506,-0.37156 0.725118,-0.543456 l 0.300659,-1.05185 c 1.748469,-0.461478 2.8651,-1.121705 2.8651,-1.858268 l -0.565946,-3.646411 c -0.0067,-1.200325 -4.244594,-1.963454 -5.871689,-3.365924 -0.06587,-0.537223 -0.06891,-1.066167 -0.03538,-1.595302 0.520333,-0.795613 1.205377,-1.813832 1.379493,-2.331603 0.06399,-0.268139 0.09179,-0.453456 0.141485,-0.683703 0.153655,-0.186161 0.29335,-0.401263 0.406774,-0.666171 0.314258,-0.733952 0.284918,-1.444657 -0.03537,-1.682961 0.02238,-0.318909 0.0437,-0.621511 0.05306,-0.894072 3e-6,-2.168771 -1.900365,-3.926907 -4.244589,-3.926907 z"
       id="path3798"
       style="fill:#4d74ad;fill-opacity:1;stroke:none;display:inline;enable-background:new"
       inkscape:connector-curvature="0"
       sodipodi:nodetypes="cccsccccccccccscccccccccscccc" />
    <path
       d="m 16,28 0,28 22,0 0,-28 -1,0 0,27 -20,0 0,-27 -1,0 z"
       id="rect3708"
       style="fill:#a3bee6;fill-opacity:1;stroke:none" />
    <g
       transform="translate(-0.19043,0.347252)"
       id="text3704"
       style="font-size:5px;font-style:normal;font-variant:normal;font-weight:bold;font-stretch:normal;text-align:start;line-height:125%;writing-mode:lr-tb;text-anchor:start;fill:#333333;fill-opacity:1;stroke:none;font-family:Liberation Sans;-inkscape-font-specification:Abandoned Bitplane Bold">
      <path
         d="m 50.409668,29.60392 0,-1.474609 -1.499023,0 0,1.474609 -0.720215,0 0,-3.439941 0.720215,0 0,1.369628 1.499023,0 0,-1.369628 0.720215,0 0,3.439941 -0.720215,0"
         id="path3878" />
      <path
         d="m 55.148437,27.86808 c 0.0084,0.552379 -0.198378,1.140747 -0.662884,1.469088 -0.471121,0.335492 -1.096704,0.380093 -1.645972,0.247476 -0.473147,-0.118676 -0.874271,-0.479774 -1.0363,-0.940664 -0.166959,-0.473478 -0.17269,-1.004254 -0.02357,-1.483068 0.137577,-0.437497 0.490346,-0.796545 0.926775,-0.938769 0.437521,-0.144546 0.923084,-0.146996 1.363764,-0.0141 0.447663,0.135262 0.816888,0.492969 0.96344,0.937384 0.0824,0.231224 0.114803,0.47794 0.114746,0.722656 z m -0.734863,0 c 0.0032,-0.394646 -0.117958,-0.84628 -0.481113,-1.057432 -0.325416,-0.183186 -0.754897,-0.178127 -1.075734,0.01295 -0.35876,0.224074 -0.466789,0.68074 -0.45707,1.07788 -0.0014,0.407859 0.144571,0.866311 0.525,1.070843 0.299509,0.156801 0.681513,0.153642 0.981255,-5.73e-4 0.393154,-0.21104 0.510974,-0.690335 0.507656,-1.103668 z"
         id="path3880"
         inkscape:connector-curvature="0" />
      <path
         d="m 55.69043,29.60392 0,-3.439941 0.720215,0 0,2.8833 1.845703,0 0,0.556641 -2.565918,0"
         id="path3882" />
      <path
         d="m 61.603516,29.60392 c -0.0031,-1.030199 -7.78e-4,-1.870571 0.01806,-2.81044 -0.275301,1.022833 -0.574039,1.894352 -0.870077,2.81044 -0.170898,0 -0.341797,0 -0.512695,0 -0.223225,-0.69854 -0.455801,-1.394226 -0.672613,-2.094724 -0.06866,-0.246831 -0.140824,-0.492689 -0.208734,-0.739749 0.0448,1.019192 0.02935,1.906744 0.02935,2.834473 -0.213216,0 -0.426433,0 -0.639649,0 0,-1.146647 0,-2.293294 0,-3.439941 0.321452,0 0.642904,0 0.964356,0 0.311076,0.921887 0.546503,1.727934 0.786134,2.5708 0.261612,-0.927755 0.523347,-1.730477 0.786148,-2.570806 0.319824,0 0.639649,0 0.959473,0 0,1.146647 0,2.293294 0,3.439941 -0.213216,0 -0.426432,0 -0.639648,0"
         id="path3884"
         inkscape:connector-curvature="0"
         sodipodi:nodetypes="ccccccccccccccc" />
      <path
         d="m 62.916992,29.60392 0,-3.439941 2.705078,0 0,0.55664 -1.984863,0 0,0.864258 1.835938,0 0,0.556641 -1.835938,0 0,0.905761 2.084961,0 0,0.556641 -2.805176,0"
         id="path3886" />
      <path
         d="m 69.062012,28.612709 c 0.01875,0.385085 -0.225676,0.752048 -0.584509,0.888893 -0.470537,0.187939 -1.001557,0.184869 -1.493128,0.0901 -0.414346,-0.08044 -0.796889,-0.375932 -0.896511,-0.799532 -0.07701,-0.133251 0.119959,-0.08854 0.198171,-0.120476 0.158724,-0.02618 0.317448,-0.05235 0.476172,-0.07853 0.05095,0.272987 0.29356,0.469908 0.564117,0.499422 0.307874,0.03167 0.670334,0.05506 0.925141,-0.153201 0.188089,-0.182386 0.128056,-0.530482 -0.114294,-0.634765 -0.485535,-0.232993 -1.066585,-0.195407 -1.531218,-0.485381 -0.425281,-0.251343 -0.491032,-0.885778 -0.219729,-1.27136 0.302246,-0.389094 0.83679,-0.439045 1.293639,-0.434341 0.419557,0.0088 0.923851,0.08214 1.15265,0.482556 0.06206,0.13459 0.254849,0.432327 -0.01247,0.399094 -0.182204,0.02485 -0.364408,0.04969 -0.546612,0.07453 -0.0514,-0.305221 -0.36832,-0.458584 -0.653028,-0.446338 -0.242774,-0.0021 -0.580203,0.01983 -0.674334,0.2907 -0.0885,0.238673 0.109252,0.462376 0.334322,0.515746 0.501819,0.167149 1.086122,0.15907 1.511308,0.508948 0.190575,0.16766 0.275869,0.424739 0.270309,0.673903"
         id="path3888"
         inkscape:connector-curvature="0" />
    </g>
    <g
       transform="translate(0,0.347252)"
       id="text3712"
       style="font-size:5px;font-style:normal;font-variant:normal;font-weight:bold;font-stretch:normal;text-align:start;line-height:125%;writing-mode:lr-tb;text-anchor:start;fill:#333333;fill-opacity:1;stroke:none;font-family:Liberation Sans;-inkscape-font-specification:Abandoned Bitplane Bold">
      <path
         d="m 50.995605,34.612709 c 0.0093,0.317559 -0.143279,0.64046 -0.422003,0.80352 -0.404872,0.243056 -0.897286,0.255496 -1.35534,0.223104 -0.413046,-0.03333 -0.863779,-0.189896 -1.079942,-0.569055 -0.03502,-0.09974 -0.196155,-0.317259 -0.09256,-0.3699 0.216682,-0.03573 0.433363,-0.07147 0.650045,-0.1072 0.04766,0.234312 0.232523,0.427996 0.467711,0.478401 0.280669,0.06246 0.583823,0.06188 0.857677,-0.03091 0.201494,-0.06055 0.317071,-0.284799 0.262747,-0.485449 -0.06827,-0.238823 -0.336843,-0.317835 -0.55161,-0.374567 -0.422698,-0.105594 -0.879332,-0.1471 -1.248322,-0.398785 -0.319891,-0.22495 -0.38493,-0.672571 -0.274412,-1.025103 0.117434,-0.355273 0.486185,-0.548042 0.835437,-0.602931 0.407293,-0.06378 0.835088,-0.06313 1.231841,0.05894 0.284955,0.08516 0.508069,0.321894 0.588225,0.60669 0.05359,0.10616 0.04928,0.184613 -0.0793,0.171357 -0.192925,0.02631 -0.38585,0.05262 -0.578775,0.07893 -0.04324,-0.231648 -0.248639,-0.407113 -0.480462,-0.430983 -0.249243,-0.02796 -0.533773,-0.03429 -0.745697,0.120621 -0.180789,0.152057 -0.153169,0.480753 0.061,0.590821 0.279729,0.154122 0.606503,0.17394 0.910251,0.256814 0.346998,0.08124 0.737048,0.193919 0.928126,0.5229 0.08407,0.146012 0.116841,0.315617 0.115356,0.482786 z"
         id="path3861"
         inkscape:connector-curvature="0" />
      <path
         d="m 52.221191,33.489662 c 0.115435,-0.269936 0.342742,-0.508861 0.643043,-0.556943 0.318051,-0.06137 0.696571,0.0093 0.890846,0.291026 0.20913,0.290162 0.184363,0.660763 0.184865,1.000706 0,0.459825 0,0.919649 0,1.379474 -0.227864,0 -0.455729,0 -0.683593,0 -0.0021,-0.530337 0.0043,-1.060851 -0.0034,-1.591071 -0.0082,-0.221 -0.08426,-0.492404 -0.321282,-0.564195 -0.233871,-0.07615 -0.496275,0.0532 -0.597345,0.273282 -0.144052,0.267361 -0.09398,0.577106 -0.103336,0.867974 0,0.338003 0,0.676005 0,1.014008 -0.228678,0 -0.457357,0 -0.686035,0 0,-1.207682 0,-2.415365 0,-3.623047 0.228678,0 0.457357,0 0.686035,0 -0.0042,0.502963 0.0126,1.006481 -0.0195,1.508789 l 0.0087,0 0.0011,0"
         id="path3863"
         inkscape:connector-curvature="0" />
      <path
         d="m 55.683105,35.652748 c -0.347378,0.0046 -0.717822,-0.10344 -0.942421,-0.384027 -0.270644,-0.333196 -0.314133,-0.787918 -0.285012,-1.201207 0.02266,-0.378988 0.191602,-0.772957 0.527101,-0.974991 0.302207,-0.178801 0.675404,-0.214262 1.015944,-0.148027 0.31788,0.06536 0.58971,0.297258 0.712828,0.596436 0.118629,0.274351 0.150767,0.577679 0.150761,0.874021 -0.564779,0 -1.129557,0 -1.694336,0 0.0024,0.243756 0.03657,0.52876 0.24536,0.687104 0.1617,0.118618 0.393038,0.117638 0.569648,0.03376 0.104352,-0.04812 0.158606,-0.16652 0.200568,-0.256364 0.213232,0.01851 0.426464,0.03701 0.639696,0.05552 -0.103458,0.266194 -0.298472,0.505096 -0.569306,0.611877 -0.178311,0.08198 -0.376388,0.106009 -0.570831,0.105897 z m 0,-2.307133 c -0.195644,-0.0084 -0.384865,0.115457 -0.447444,0.302535 -0.04404,0.106582 -0.05944,0.222557 -0.06281,0.337113 0.341797,0 0.683593,0 1.02539,0 -0.01105,-0.228949 -0.08307,-0.496969 -0.31128,-0.599364 -0.06383,-0.02859 -0.134202,-0.04038 -0.203857,-0.04029 z"
         id="path3865"
         inkscape:connector-curvature="0" />
      <path
         d="m 57.384766,35.60392 c -0.0011,-0.726162 0.0023,-1.452357 -0.0018,-2.178496 -0.0036,-0.154374 -0.0049,-0.309191 -0.01766,-0.463106 0.218099,0 0.436198,0 0.654297,0 0.0198,0.187263 0.02565,0.375841 0.0318,0.563965 0.04887,-0.07302 0.07225,-0.185478 0.118815,-0.270548 0.07111,-0.168558 0.218366,-0.31398 0.406148,-0.336271 0.109833,-0.01635 0.224777,-0.0097 0.32956,0.0282 0,0.191243 0,0.382487 0,0.57373 -0.194681,-0.04266 -0.425728,-0.07471 -0.592366,0.06147 -0.200016,0.16434 -0.236322,0.44396 -0.242284,0.686882 -7.21e-4,0.44472 -1.07e-4,0.889447 -3.11e-4,1.33417 -0.228678,0 -0.457357,0 -0.686035,0"
         id="path3867"
         inkscape:connector-curvature="0" />
      <path
         d="m 59.328125,35.60392 0,-3.623047 0.686035,0 0,3.623047 -0.686035,0"
         id="path3869" />
      <path
         d="m 63.224609,34.280678 c 0.0033,0.412307 -0.132204,0.858139 -0.474932,1.113281 -0.33977,0.258582 -0.79747,0.300254 -1.206445,0.227116 -0.366834,-0.068 -0.701746,-0.313041 -0.848989,-0.660007 -0.161228,-0.373247 -0.171308,-0.804535 -0.0624,-1.193514 0.09655,-0.342518 0.355909,-0.635447 0.692059,-0.757834 0.327576,-0.121244 0.69318,-0.121914 1.030735,-0.04326 0.350111,0.08477 0.652752,0.347264 0.769251,0.690488 0.07132,0.1996 0.101043,0.412276 0.100715,0.623728 z m -0.717775,0 c -0.005,-0.265015 -0.02138,-0.572657 -0.22776,-0.766355 -0.183842,-0.161417 -0.472877,-0.167242 -0.682404,-0.0539 -0.235041,0.136381 -0.297994,0.429629 -0.311488,0.68067 -0.01138,0.299795 -0.0033,0.6386 0.200681,0.879479 0.175408,0.198363 0.494688,0.207356 0.714569,0.08179 0.26916,-0.170875 0.30324,-0.533474 0.306394,-0.821685 z"
         id="path3871"
         inkscape:connector-curvature="0" />
      <path
         d="m 64.872559,35.652748 c -0.360171,0.0072 -0.742435,-0.116363 -0.970993,-0.407578 -0.26655,-0.335192 -0.312331,-0.790491 -0.269793,-1.203109 0.03839,-0.374107 0.213673,-0.757809 0.547956,-0.954203 0.31418,-0.185355 0.703086,-0.210228 1.054153,-0.135914 0.334467,0.07497 0.631931,0.314937 0.747003,0.64188 0.01329,0.07059 0.116992,0.230949 -0.01704,0.204638 -0.205884,0.01019 -0.411769,0.02037 -0.617653,0.03056 -0.02094,-0.203215 -0.160718,-0.412977 -0.377198,-0.436706 -0.192083,-0.03754 -0.413432,0.037 -0.504149,0.21942 -0.141609,0.274696 -0.13594,0.597408 -0.116284,0.897929 0.02358,0.22666 0.08072,0.492333 0.292827,0.61727 0.224093,0.123545 0.550737,0.046 0.659399,-0.196849 0.07136,-0.06199 0.0079,-0.259954 0.125999,-0.234104 0.209952,0.0097 0.419904,0.01936 0.629856,0.02904 -0.04455,0.36962 -0.304236,0.698855 -0.651627,0.831757 -0.167726,0.07095 -0.351412,0.09586 -0.532455,0.09597 z"
         id="path3873"
         inkscape:connector-curvature="0" />
      <path
         d="m 68.241699,35.60392 -0.705566,-1.196289 -0.29541,0.205078 0,0.991211 -0.686036,0 0,-3.623047 0.686036,0 0,2.075195 0.942382,-1.09375 0.737305,0 -0.927734,1.030274 0.998535,1.611328 -0.749512,0"
         id="path3875" />
    </g>
    <g
       transform="translate(-0.057129,-0.433994)"
       id="text3716"
       style="font-size:4px;font-style:normal;font-variant:normal;font-weight:normal;font-stretch:normal;text-align:start;line-height:125%;writing-mode:lr-tb;text-anchor:start;fill:#333333;fill-opacity:1;stroke:none;font-family:Liberation Sans;-inkscape-font-specification:Liberation Sans">
      <path
         d="m 48.057129,43.60392 c 0.0099,-0.111237 -0.02824,-0.233228 0.03886,-0.331817 0.222353,-0.461929 0.65811,-0.755747 1.035353,-1.080292 0.199933,-0.17313 0.383817,-0.419701 0.338811,-0.699003 -0.01352,-0.214808 -0.20582,-0.377837 -0.415073,-0.388396 -0.249536,-0.03871 -0.536771,0.09359 -0.60147,0.352542 0.01573,0.131468 -0.07821,0.106402 -0.168416,0.09433 -0.07081,-0.0065 -0.141626,-0.01308 -0.212439,-0.01963 0.02732,-0.350615 0.316839,-0.640816 0.658232,-0.698577 0.328878,-0.05419 0.72339,-0.02274 0.953004,0.249331 0.222704,0.283225 0.191808,0.710031 -0.03116,0.984406 -0.32684,0.446926 -0.870283,0.685426 -1.16861,1.156158 -0.103364,0.114638 0.04452,0.07641 0.117025,0.08212 0.426049,0 0.852099,0 1.278148,0 0,0.09961 0,0.199219 0,0.298828 -0.607422,0 -1.214844,0 -1.822266,0"
         id="path3804"
         inkscape:connector-curvature="0" />
      <path
         d="m 50.283691,43.60392 c 0.0099,-0.111237 -0.02824,-0.233228 0.03887,-0.331817 0.222354,-0.461928 0.65811,-0.755748 1.035353,-1.080292 0.199933,-0.17313 0.383816,-0.419701 0.338811,-0.699003 -0.01352,-0.214808 -0.20582,-0.377837 -0.415073,-0.388396 -0.249537,-0.03871 -0.536771,0.09359 -0.601471,0.352542 0.01573,0.131468 -0.07821,0.106402 -0.168416,0.09433 -0.07081,-0.0065 -0.141626,-0.01308 -0.212439,-0.01963 0.02732,-0.350614 0.316838,-0.640816 0.658231,-0.698577 0.328878,-0.05419 0.72339,-0.02274 0.953004,0.249331 0.222705,0.283225 0.191809,0.71003 -0.03116,0.984406 -0.326841,0.446925 -0.870283,0.685426 -1.16861,1.156158 -0.103365,0.114638 0.04451,0.07641 0.117024,0.08212 0.426049,0 0.852099,0 1.278148,0 0,0.09961 0,0.199219 0,0.298828 -0.607422,0 -1.214844,0 -1.822266,0"
         id="path3806"
         inkscape:connector-curvature="0" />
      <path
         d="m 52.61377,43.60392 0,-0.298828 0.701171,0 0,-2.117188 -0.621093,0.44336 0,-0.332032 0.65039,-0.447265 0.324219,0 0,2.453125 0.669922,0 0,0.298828 -1.724609,0"
         id="path3808" />
      <path
         d="m 56.592285,42.537514 c -0.0033,0.309756 -0.03517,0.64966 -0.245958,0.893875 -0.202716,0.228018 -0.546909,0.250104 -0.823859,0.170971 -0.166458,-0.0452 -0.290504,-0.183264 -0.36963,-0.326568 -0.02238,0.09702 0.02688,0.277878 -0.04716,0.328131 -0.104096,0 -0.208192,0 -0.312288,0 0.02054,-0.42265 0.0086,-0.846091 0.0118,-1.269122 0,-0.543104 0,-1.086208 0,-1.629312 0.117187,0 0.234375,0 0.351562,0 -0.0025,0.374998 0.0065,0.750214 -0.0079,1.125004 0.06753,-0.10337 0.143056,-0.231887 0.265613,-0.291015 0.217248,-0.10847 0.482012,-0.114451 0.709982,-0.0363 0.25493,0.09048 0.38797,0.357631 0.431488,0.608916 0.02709,0.140028 0.03612,0.282999 0.03626,0.425429 m -0.36914,0.01172 c -0.0066,-0.237531 -0.0047,-0.506646 -0.165313,-0.699341 -0.142159,-0.152843 -0.380888,-0.150616 -0.565273,-0.08734 -0.210856,0.07822 -0.292502,0.315536 -0.318276,0.520067 -0.02769,0.279474 -0.03848,0.577859 0.07893,0.839713 0.06953,0.164096 0.244462,0.257429 0.417814,0.259456 0.172662,0.01789 0.365499,-0.04887 0.444182,-0.213827 0.09682,-0.189158 0.104543,-0.410692 0.107946,-0.618713"
         id="path3810"
         inkscape:connector-curvature="0" />
      <path
         d="m 60.328613,42.828529 c 0.01725,0.310767 -0.199087,0.601422 -0.493622,0.69333 -0.345423,0.122613 -0.716077,0.07079 -1.074857,0.08206 -0.186809,0 -0.373617,0 -0.560426,0 0,-0.917318 0,-1.834635 0,-2.751953 0.405393,0.0044 0.811391,-0.01006 1.216307,0.0098 0.283251,0.02224 0.613776,0.127593 0.715089,0.423096 0.11134,0.305778 -0.01809,0.698734 -0.335479,0.81985 -0.05669,0.03255 -0.22902,0.05071 -0.07004,0.06015 0.291376,0.03941 0.5683,0.259782 0.59671,0.565367 0.0043,0.03259 0.0063,0.06546 0.0063,0.09833 z m -0.535154,-1.263676 c 0.01475,-0.1775 -0.11195,-0.341825 -0.285829,-0.376676 -0.265432,-0.06302 -0.54077,-0.02836 -0.811148,-0.03738 -0.0662,2.4e-5 -0.154637,-0.02219 -0.123726,0.07495 0,0.265381 0,0.530763 0,0.796145 0.281454,-0.0059 0.564562,0.01493 0.844481,-0.01758 0.196972,-0.02262 0.374624,-0.181883 0.374268,-0.388063 l 0.0015,-0.02536 4.88e-4,-0.02603 z m 0.158203,1.234375 c 0.01678,-0.221778 -0.158742,-0.413444 -0.371188,-0.451661 -0.28214,-0.05846 -0.572271,-0.02629 -0.858463,-0.03466 -0.05435,0.01325 -0.173587,-0.03839 -0.149257,0.05353 0,0.312884 0,0.625769 0,0.938653 0.308384,-0.0051 0.617825,0.01221 0.925292,-0.01318 0.226073,-0.01241 0.446449,-0.183838 0.450564,-0.422491 l 0.0023,-0.03433 7.63e-4,-0.03586 z"
         id="path3812"
         inkscape:connector-curvature="0" />
      <path
         d="m 61.352051,43.642982 c -0.249778,0.0146 -0.523518,-0.113555 -0.598633,-0.367187 -0.09425,-0.284696 -0.03599,-0.655924 0.245122,-0.814453 0.3325,-0.182114 0.722509,-0.129063 1.08729,-0.146234 0.035,-0.06591 0.0063,-0.202762 -0.0011,-0.289785 -0.02206,-0.199109 -0.222258,-0.313858 -0.409424,-0.305721 -0.194183,-0.01211 -0.44812,0.03953 -0.488623,0.265749 0.01346,0.116393 -0.113415,0.04682 -0.182974,0.05434 -0.06552,-0.0059 -0.131048,-0.01185 -0.196572,-0.01777 0.02748,-0.257267 0.227147,-0.475246 0.48047,-0.527344 0.300548,-0.06767 0.645652,-0.07516 0.913421,0.09759 0.229117,0.153128 0.267088,0.444896 0.254547,0.698856 0.005,0.306203 -0.01112,0.613539 0.01025,0.91888 -0.01906,0.203413 0.243029,0.154872 0.302247,0.195672 -0.01631,0.06044 0.03623,0.176197 -0.0332,0.193955 -0.190353,0.03463 -0.460841,0.06578 -0.564944,-0.142104 -0.06625,-0.07604 -0.02675,-0.391674 -0.129397,-0.16113 -0.143518,0.2393 -0.415571,0.355756 -0.688476,0.346678 m 0.08008,-0.263671 c 0.373704,0.02199 0.698095,-0.330284 0.667973,-0.69807 7.41e-4,-0.06584 0.02121,-0.151804 -0.07493,-0.118774 -0.261118,0.01582 -0.543071,-0.02852 -0.780474,0.103078 -0.201126,0.126504 -0.226791,0.445756 -0.07818,0.619996 0.06876,0.07008 0.170288,0.09447 0.265625,0.09375"
         id="path3814"
         inkscape:connector-curvature="0" />
      <path
         d="m 64.36377,43.60392 -0.714844,-0.964844 -0.257813,0.212891 0,0.751953 -0.351562,0 0,-2.898438 0.351562,0 0,1.810547 0.927735,-1.02539 0.412109,0 -0.857422,0.908203 0.902344,1.205078 -0.412109,0"
         id="path3816" />
      <path
         d="m 65.309082,42.621498 c -8.54e-4,0.253476 0.05677,0.550664 0.295041,0.688294 0.190308,0.100724 0.432618,0.09003 0.62442,-7.63e-4 0.106477,-0.04974 0.182934,-0.161311 0.230769,-0.251758 0.100313,0.02857 0.200626,0.05714 0.300939,0.08571 -0.07763,0.225629 -0.273387,0.394647 -0.501953,0.455079 -0.302037,0.07584 -0.64741,0.06938 -0.918179,-0.09936 -0.297878,-0.189662 -0.393438,-0.564492 -0.399227,-0.897303 -0.0132,-0.346999 0.05772,-0.737488 0.343531,-0.965614 0.266343,-0.202901 0.636356,-0.223325 0.949827,-0.135857 0.302717,0.08926 0.501013,0.380894 0.546754,0.683136 0.02863,0.144232 0.03749,0.29162 0.03588,0.43844 -0.502604,0 -1.005209,0 -1.507813,0 z m 1.144524,-0.269532 c -0.01813,-0.226419 -0.08803,-0.493033 -0.316521,-0.591803 -0.256765,-0.110818 -0.611447,-0.03726 -0.737518,0.232334 -0.06078,0.109457 -0.08167,0.235777 -0.08658,0.359473 0.380208,0 0.760417,0 1.140625,0 z"
         id="path3818"
         inkscape:connector-curvature="0" />
      <path
         d="m 67.273926,43.60392 c -0.0023,-0.640779 0.0053,-1.281671 -0.005,-1.922363 8e-5,-0.09276 -0.04633,-0.228848 0.08869,-0.190918 0.07884,0 0.157675,0 0.236513,0 0.01102,0.140811 0.0045,0.303982 0.0235,0.43164 0.05418,-0.185138 0.142535,-0.40821 0.353642,-0.454225 0.08198,-0.006 0.286314,-0.06227 0.290897,0.0508 0,0.0915 0,0.183005 0,0.274507 -0.176366,-0.04363 -0.397793,-0.02759 -0.504028,0.141322 -0.168532,0.261481 -0.126492,0.58218 -0.132694,0.878059 0,0.26371 0,0.52742 0,0.79113 -0.117187,0 -0.234375,0 -0.351562,0"
         id="path3820"
         inkscape:connector-curvature="0" />
      <path
         d="m 71.92627,42.844154 c 0.0097,0.286069 -0.170274,0.559895 -0.434572,0.668456 -0.353622,0.156962 -0.758681,0.154992 -1.133933,0.09089 -0.31443,-0.05371 -0.618396,-0.260858 -0.711433,-0.577275 -0.06944,-0.100903 0.04244,-0.09304 0.111307,-0.109281 0.07574,-0.01515 0.151483,-0.0303 0.227224,-0.04545 0.04835,0.238704 0.259692,0.411004 0.494601,0.449574 0.277972,0.04961 0.581141,0.05243 0.841209,-0.07014 0.25647,-0.110358 0.328593,-0.508806 0.100704,-0.682646 -0.223359,-0.158013 -0.506595,-0.176783 -0.763789,-0.246833 -0.292402,-0.06833 -0.625063,-0.149936 -0.805816,-0.411746 -0.182762,-0.289462 -0.116266,-0.727406 0.182158,-0.915454 0.309926,-0.198624 0.700022,-0.199456 1.054267,-0.167285 0.271938,0.02763 0.564125,0.142207 0.688659,0.404394 0.02007,0.07052 0.153711,0.232692 0.01312,0.22501 -0.09845,0.01728 -0.196897,0.03456 -0.295346,0.05184 -0.04481,-0.201605 -0.217444,-0.355934 -0.419924,-0.388674 -0.262118,-0.04519 -0.55364,-0.04891 -0.791718,0.08537 -0.222814,0.131399 -0.228097,0.510461 0.01121,0.628873 0.268684,0.147075 0.5824,0.169359 0.872618,0.254243 0.281874,0.07356 0.611539,0.193161 0.716493,0.494425 0.032,0.0832 0.0429,0.173025 0.04297,0.261718 z"
         id="path3822"
         inkscape:connector-curvature="0" />
      <path
         d="m 73.195801,43.588295 c -0.203381,0.04485 -0.444912,0.09548 -0.628617,-0.0321 -0.181196,-0.148156 -0.144782,-0.400202 -0.148727,-0.609241 0,-0.400153 0,-0.800305 0,-1.200457 -0.08138,0 -0.162761,0 -0.244141,0 0,-0.08529 0,-0.170573 0,-0.255859 0.08594,0 0.171875,0 0.257813,0 0.0345,-0.157552 0.06901,-0.315105 0.103516,-0.472657 0.07813,0 0.15625,0 0.234375,0 0,0.157552 0,0.315105 0,0.472657 0.130208,0 0.260417,0 0.390625,0 0,0.08529 0,0.170573 0,0.255859 -0.130208,0 -0.260417,0 -0.390625,0 0.002,0.468153 -0.004,0.936532 0.0031,1.404541 -0.01434,0.18947 0.197145,0.237355 0.342169,0.19289 0.114908,-0.06256 0.07367,0.06262 0.08057,0.130495 0,0.03796 0,0.07593 0,0.113888"
         id="path3824"
         inkscape:connector-curvature="0" />
      <path
         d="m 73.588379,43.60392 0,-0.427734 0.380859,0 0,0.427734 -0.380859,0"
         id="path3826" />
      <path
         d="m 49.969238,48.60392 c -0.490885,-0.78125 -0.981771,-1.5625 -1.472656,-2.34375 0.03177,0.811863 0.0199,1.656452 0.01864,2.335675 -0.122449,0.0011 -0.212809,0.0027 -0.327169,0.0019 0,-0.903524 -0.0039,-1.842203 -0.0039,-2.745727 0.144531,0 0.289063,0 0.433594,0 0.496094,0.786458 0.992187,1.572917 1.488281,2.359375 -0.04738,-0.844675 -0.01804,-1.620745 -0.0096,-2.359375 0.107381,0 0.214762,0 0.322143,0 0,0.917318 0,1.834635 0,2.751953 -0.14974,0 -0.299479,0 -0.449219,0"
         id="path3828"
         inkscape:connector-curvature="0"
         sodipodi:nodetypes="ccccccccccc" />
      <path
         d="m 53.697754,48.60392 c -0.148438,0 -0.296875,0 -0.445313,0 -0.209159,-0.800237 -0.439278,-1.647083 -0.609563,-2.310206 -0.16521,0.666954 -0.422454,1.595183 -0.632484,2.304585 -0.144078,0.01234 -0.299273,0.0039 -0.435681,0.0056 -0.270182,-0.917318 -0.540365,-1.834635 -0.810547,-2.751953 0.129557,0 0.259115,0 0.388672,0 0.23099,0.852829 0.47145,1.643256 0.65719,2.392758 0.196071,-0.778687 0.456434,-1.685555 0.65809,-2.388966 0.121021,-0.0015 0.226369,0.0034 0.3385,-0.007 0.253703,0.796734 0.478374,1.716292 0.660667,2.427083 0.183496,-0.799792 0.436951,-1.627755 0.650973,-2.419772 0.135184,-0.0011 0.25094,-0.0055 0.38227,-4.01e-4 -0.263687,0.895264 -0.539093,1.853029 -0.80278,2.748293 z"
         id="path3830"
         inkscape:connector-curvature="0"
         sodipodi:nodetypes="ccccccccccccccc" />
      <path
         d="m 54.824707,48.60392 0,-0.298828 0.701172,0 0,-2.117188 -0.621094,0.44336 0,-0.332032 0.650391,-0.447265 0.324219,0 0,2.453125 0.669921,0 0,0.298828 -1.724609,0"
         id="path3832" />
      <path
         d="m 59.904785,47.703529 c 0.0053,0.31578 -0.119275,0.661052 -0.407437,0.821999 -0.249643,0.140807 -0.564123,0.152103 -0.831642,0.05685 -0.297803,-0.110547 -0.474599,-0.406613 -0.544185,-0.703147 -0.08463,-0.374278 -0.07964,-0.76649 -0.01515,-1.143484 0.06237,-0.326511 0.212826,-0.6712 0.523038,-0.831052 0.244618,-0.120473 0.542097,-0.122905 0.79492,-0.02588 0.207109,0.08428 0.349615,0.280161 0.404298,0.492674 -0.111979,0.02018 -0.223958,0.04037 -0.335937,0.06055 -0.04353,-0.182238 -0.208378,-0.321202 -0.395173,-0.333123 -0.208627,-0.02764 -0.419306,0.08705 -0.51889,0.270622 -0.143509,0.246224 -0.167949,0.539186 -0.169923,0.818359 0.138781,-0.274157 0.467169,-0.391023 0.759521,-0.359496 0.286321,0.01504 0.557463,0.199563 0.660583,0.469668 0.05386,0.127935 0.07649,0.267093 0.07599,0.405456 m -0.357422,0.01563 c 0.0049,-0.219416 -0.07526,-0.468517 -0.289098,-0.566771 -0.245754,-0.113761 -0.589218,-0.0592 -0.738492,0.18165 -0.110954,0.185405 -0.08632,0.420067 -0.02659,0.618497 0.06695,0.221409 0.269887,0.414692 0.511201,0.407257 0.207776,0.0096 0.413465,-0.118469 0.485227,-0.315676 0.04229,-0.102629 0.05777,-0.214503 0.05774,-0.324951 z"
         id="path3834"
         inkscape:connector-curvature="0" />
      <path
         d="m 62.254395,48.60392 -0.826172,-1.203125 -0.84375,1.203125 -0.41211,0 1.046875,-1.429688 -0.966797,-1.322265 0.41211,0 0.765625,1.080078 0.74414,-1.080078 0.41211,0 -0.941406,1.308594 1.021484,1.443359 -0.412109,0"
         id="path3836" />
      <path
         d="m 63.08252,48.60392 0,-2.751953 2.08789,0 0,0.304687 -1.714844,0 0,0.882813 1.597657,0 0,0.300781 -1.597657,0 0,0.958984 1.794922,0 0,0.304688 -2.167968,0"
         id="path3838" />
      <path
         d="m 48.184082,53.60392 0,-2.751953 0.373047,0 0,2.447265 1.390625,0 0,0.304688 -1.763672,0"
         id="path3840" />
      <path
         d="m 52.13916,52.545326 c -6.73e-4,0.302632 -0.05132,0.636282 -0.27552,0.859047 -0.227135,0.22472 -0.570983,0.266396 -0.874215,0.224016 -0.244942,-0.03272 -0.477314,-0.175697 -0.592522,-0.398137 -0.152856,-0.281088 -0.162197,-0.614758 -0.133406,-0.926257 0.02872,-0.278969 0.141653,-0.574695 0.394944,-0.72318 0.241398,-0.141632 0.53783,-0.150838 0.807449,-0.105141 0.232602,0.04009 0.448652,0.185577 0.548757,0.403147 0.100417,0.205764 0.123069,0.440602 0.124516,0.666501 z m -0.369137,-4e-6 c -0.0037,-0.230423 -0.01422,-0.48324 -0.159551,-0.673843 -0.125162,-0.157563 -0.349754,-0.176715 -0.53527,-0.149884 -0.162109,0.01879 -0.304704,0.128715 -0.366698,0.2793 -0.100008,0.233408 -0.09571,0.494874 -0.08064,0.743692 0.01991,0.210314 0.07777,0.449971 0.268671,0.569625 0.168506,0.09242 0.379767,0.0868 0.556571,0.02125 0.199398,-0.08669 0.275781,-0.315628 0.300902,-0.515319 0.01197,-0.09107 0.01595,-0.183022 0.01603,-0.274812"
         id="path3842"
         inkscape:connector-curvature="0" />
      <path
         d="m 53.92041,53.60392 c -9.19e-4,-0.471267 0.0019,-0.942583 -0.0015,-1.413818 -0.0081,-0.149525 -0.02655,-0.331923 -0.170696,-0.415162 -0.139088,-0.06526 -0.305507,-0.06694 -0.451046,-0.02222 -0.193235,0.06042 -0.313986,0.250711 -0.343962,0.443338 -0.02606,0.176795 -0.01139,0.356172 -0.01526,0.534276 0,0.291197 0,0.582394 0,0.873591 -0.117187,0 -0.234375,0 -0.351562,0 -9.28e-4,-0.594265 0.0019,-1.188561 -0.0015,-1.782805 -0.0013,-0.110184 -0.0023,-0.220548 -0.01027,-0.330479 0.110677,0 0.221354,0 0.332031,0 0.0073,0.12028 0.0142,0.240768 0.0157,0.361322 0.04226,-0.05125 0.07596,-0.123226 0.124872,-0.175202 0.153645,-0.186067 0.410744,-0.242228 0.641647,-0.222508 0.19028,0.0076 0.397496,0.08378 0.490057,0.261805 0.122798,0.236284 0.09003,0.508094 0.09502,0.764853 0,0.374334 0,0.748667 0,1.123001 -0.117839,0 -0.235677,0 -0.353516,0"
         id="path3844"
         inkscape:connector-curvature="0" />
      <path
         d="m 56.13916,53.264076 c -0.0849,0.198634 -0.275668,0.341997 -0.490479,0.366546 -0.265622,0.04161 -0.578556,-0.0091 -0.745521,-0.240588 -0.188895,-0.270089 -0.203438,-0.615775 -0.197839,-0.934197 0.01264,-0.301673 0.06409,-0.638198 0.301942,-0.848803 0.21581,-0.181217 0.531154,-0.188427 0.789001,-0.106018 0.155282,0.05061 0.271649,0.181359 0.346796,0.317747 -0.0082,-0.370978 -0.0021,-0.742196 -0.004,-1.11328 0.117188,0 0.234375,0 0.351563,0 0.01085,0.951707 -2.49e-4,2.181396 -0.01007,2.890622 -0.0982,0 -0.243278,0 -0.341479,0 -0.0019,-0.106198 -1.87e-4,-0.234126 -5.6e-5,-0.332034 m -1.066406,-0.71875 c 0.0061,0.23009 0.0055,0.485352 0.147577,0.679323 0.136939,0.171121 0.390022,0.174399 0.581293,0.107364 0.211542,-0.07819 0.293703,-0.31703 0.319993,-0.522018 0.02751,-0.27399 0.03747,-0.565258 -0.07244,-0.823638 -0.06849,-0.169595 -0.246074,-0.269754 -0.424369,-0.273508 -0.172659,-0.01804 -0.365455,0.04889 -0.444146,0.21379 -0.09871,0.18899 -0.104873,0.410304 -0.107908,0.618687 z"
         id="path3846"
         inkscape:connector-curvature="0"
         sodipodi:nodetypes="cccccccccccccccccccc" />
      <path
         d="m 58.818848,52.545326 c -6.73e-4,0.302632 -0.05132,0.636282 -0.275521,0.859047 -0.227135,0.22472 -0.570982,0.266396 -0.874215,0.224016 -0.244941,-0.03272 -0.477313,-0.175697 -0.592522,-0.398137 -0.152855,-0.281088 -0.162196,-0.614758 -0.133405,-0.926257 0.02872,-0.278969 0.141653,-0.574695 0.394944,-0.72318 0.241398,-0.141632 0.537829,-0.150838 0.807449,-0.105141 0.232602,0.04009 0.448651,0.185577 0.548756,0.403147 0.100413,0.205763 0.12308,0.440602 0.124516,0.666501 z m -0.369139,-4e-6 c -0.0037,-0.230423 -0.01422,-0.483241 -0.159552,-0.673843 -0.125163,-0.157564 -0.349756,-0.176715 -0.535273,-0.149884 -0.162106,0.0188 -0.304702,0.128717 -0.366695,0.2793 -0.100006,0.233408 -0.09571,0.494874 -0.08064,0.743692 0.01991,0.210313 0.07777,0.44997 0.268671,0.569625 0.168506,0.09242 0.379767,0.0868 0.556573,0.02125 0.199398,-0.08669 0.275778,-0.31563 0.300899,-0.515319 0.01197,-0.09107 0.01595,-0.183022 0.01603,-0.274812"
         id="path3848"
         inkscape:connector-curvature="0" />
      <path
         d="m 60.600098,53.60392 c -9.19e-4,-0.471267 -0.004,-0.942577 -0.0015,-1.413818 0.0014,-0.263021 -0.02489,-0.406121 -0.22501,-0.471101 -0.361074,-0.117245 -0.643107,0.191332 -0.740685,0.477057 -0.02889,0.473393 -0.01526,0.970413 -0.01526,1.407867 -0.117188,0 -0.253906,0 -0.371094,0 0.0045,-0.764823 0.01867,-1.431684 0.0078,-2.113284 0.110677,0 0.221354,0 0.332031,0 0.0073,0.12028 0.0142,0.240768 0.0157,0.361322 0.141466,-0.342854 0.491559,-0.400268 0.766519,-0.39771 0.190425,0.0018 0.380608,0.09363 0.490061,0.261805 0.129213,0.198532 0.09502,1.300266 0.09502,1.887854 -0.117838,0 -0.235677,0 -0.353515,0"
         id="path3850"
         inkscape:connector-curvature="0"
         sodipodi:nodetypes="cssccccccsscc" />
      <path
         d="m 63.871582,51.115639 c -0.156251,2e-6 -0.294923,0.02604 -0.416016,0.07813 -0.119792,0.05208 -0.220704,0.126304 -0.302734,0.222656 -0.08073,0.09636 -0.141928,0.212242 -0.183594,0.347656 -0.04167,0.135419 -0.0625,0.285809 -0.0625,0.451172 0,0.165366 0.02214,0.317058 0.06641,0.455078 0.04557,0.13672 0.110025,0.254558 0.193359,0.353516 0.08463,0.09896 0.187499,0.175782 0.308594,0.230469 0.122394,0.05469 0.259764,0.08203 0.412109,0.08203 0.106769,0 0.203774,-0.01367 0.291016,-0.04102 0.08854,-0.02865 0.167966,-0.06836 0.238281,-0.11914 0.07161,-0.05078 0.135414,-0.110677 0.191406,-0.179688 0.05599,-0.07031 0.105467,-0.147786 0.148438,-0.232422 l 0.304687,0.152344 c -0.04948,0.102865 -0.11068,0.198568 -0.183594,0.287109 -0.07292,0.08854 -0.158856,0.165365 -0.257812,0.230469 -0.09766,0.0651 -0.208987,0.116537 -0.333984,0.154297 -0.1237,0.03646 -0.262372,0.05469 -0.416016,0.05469 -0.222658,0 -0.41797,-0.03516 -0.585938,-0.105468 -0.166667,-0.07162 -0.306641,-0.170573 -0.419921,-0.296875 -0.11198,-0.127604 -0.195964,-0.278645 -0.251954,-0.453125 -0.05599,-0.174478 -0.08398,-0.365233 -0.08398,-0.572266 0,-0.214842 0.0293,-0.408852 0.08789,-0.582031 0.05989,-0.173175 0.146484,-0.32031 0.259765,-0.441406 0.114583,-0.122394 0.255208,-0.216144 0.421875,-0.28125 0.166666,-0.0664 0.35677,-0.09961 0.570313,-0.09961 0.292967,3e-6 0.537758,0.05729 0.734375,0.171875 0.196612,0.114586 0.341143,0.284508 0.433594,0.509766 l -0.353516,0.117187 c -0.02604,-0.0651 -0.0612,-0.126951 -0.105469,-0.185547 -0.04427,-0.05989 -0.09961,-0.112627 -0.166015,-0.158203 -0.06641,-0.04557 -0.144534,-0.08203 -0.234375,-0.109375 -0.08854,-0.02734 -0.190106,-0.04101 -0.304688,-0.04102"
         id="path3852" />
      <path
         d="m 65.48291,51.04142 0,-0.335938 0.351563,0 0,0.335938 -0.351563,0 m 0,2.5625 0,-2.113281 0.351563,0 0,2.113281 -0.351563,0"
         id="path3854" />
      <path
         d="m 67.187988,53.588295 c -0.174779,0.04063 -0.365073,0.0747 -0.540039,0.01696 -0.166916,-0.05675 -0.234079,-0.242424 -0.236377,-0.4048 -0.0021,-0.484629 -3.23e-4,-0.969314 -9.27e-4,-1.453965 -0.08138,0 -0.162761,0 -0.244141,0 0,-0.08529 0,-0.170573 0,-0.255859 0.08594,0 0.171875,0 0.257812,0 0.0345,-0.157552 0.06901,-0.315105 0.103516,-0.472657 0.07813,0 0.15625,0 0.234375,0 0,0.157552 0,0.315105 0,0.472657 0.130208,0 0.260417,0 0.390625,0 0,0.08529 0,0.170573 0,0.255859 -0.130208,0 -0.260417,0 -0.390625,0 0.0011,0.46264 -0.0022,0.925375 0.0017,1.387955 -0.0019,0.09949 0.05142,0.213843 0.163936,0.217638 0.08739,0.01216 0.174783,-0.0064 0.260134,-0.02354 0,0.08659 0,0.173177 0,0.259766"
         id="path3856"
         inkscape:connector-curvature="0" />
      <path
         d="m 68.39502,53.60392 c -0.114496,0.274391 -0.22773,0.584943 -0.49392,0.74839 -0.165544,0.100977 -0.370821,0.09403 -0.554909,0.0602 0,-0.08789 0,-0.175781 0,-0.263672 0.149287,0.02511 0.316318,0.01722 0.434483,-0.08958 0.144631,-0.118085 0.216893,-0.29555 0.282308,-0.465122 -0.279297,-0.701172 -0.558593,-1.402343 -0.83789,-2.103515 0.125,0 0.25,0 0.375,0 0.159354,0.42253 0.32494,0.842784 0.480104,1.266845 0.05153,0.154755 0.109559,0.307431 0.156618,0.463623 0.105239,-0.304607 0.217184,-0.60697 0.319113,-0.912811 0.0935,-0.272551 0.186993,-0.545102 0.28049,-0.817653 0.123698,0 0.247396,0 0.371094,0 -0.270833,0.704427 -0.541667,1.408854 -0.8125,2.113281 z"
         id="path3858"
         inkscape:connector-curvature="0" />
    </g>
    <g
       transform="translate(-0.036618,1.078102)"
       id="text3724"
       style="font-size:3.5px;font-style:normal;font-variant:normal;font-weight:normal;font-stretch:normal;text-align:start;line-height:125%;writing-mode:lr-tb;text-anchor:start;fill:#333333;fill-opacity:1;stroke:none;font-family:Liberation Sans;-inkscape-font-specification:Liberation Sans">
      <path
         style="font-weight:bold;fill:#333333;-inkscape-font-specification:Abandoned Bitplane Bold"
         d="m 49.251709,71.817894 c 0.243875,0.01168 0.48225,-0.133112 0.586101,-0.354004 0.02158,-0.08838 0.05971,-0.12017 0.136292,-0.07066 0.116949,0.04414 0.233899,0.08828 0.350849,0.132422 -0.103967,0.263544 -0.303476,0.49558 -0.57219,0.598464 -0.280982,0.114351 -0.59886,0.110987 -0.891496,0.04663 -0.307916,-0.07216 -0.582239,-0.286897 -0.705583,-0.580965 -0.139695,-0.327843 -0.148526,-0.70216 -0.07168,-1.046799 0.06812,-0.306751 0.278767,-0.584946 0.574401,-0.7028 0.294753,-0.121716 0.628561,-0.128298 0.93801,-0.0659 0.285469,0.06012 0.542719,0.253553 0.656595,0.525353 0.04795,0.07182 0.0487,0.126912 -0.04342,0.129726 -0.119912,0.03275 -0.239823,0.06549 -0.359735,0.09824 -0.07661,-0.257948 -0.352907,-0.402293 -0.610111,-0.394778 -0.239205,-0.0096 -0.49369,0.106081 -0.59659,0.33151 -0.120151,0.255634 -0.118914,0.553923 -0.06442,0.826213 0.04874,0.240554 0.230426,0.459899 0.478247,0.507335 0.06383,0.01433 0.129382,0.01999 0.194727,0.02 z"
         id="path3734"
         inkscape:connector-curvature="0" />
      <path
         style="font-weight:bold;fill:#333333;-inkscape-font-specification:Abandoned Bitplane Bold"
         d="m 52.423584,71.253929 c 0.0023,0.288615 -0.09254,0.600698 -0.332446,0.779297 -0.237841,0.181006 -0.55823,0.210181 -0.844514,0.158982 -0.256784,-0.0476 -0.491219,-0.21913 -0.594291,-0.462006 -0.112861,-0.261272 -0.11991,-0.563175 -0.04367,-0.835459 0.06759,-0.239762 0.249134,-0.444816 0.484442,-0.530484 0.229303,-0.08487 0.485226,-0.08534 0.721515,-0.03028 0.245078,0.05934 0.456925,0.243085 0.538475,0.483341 0.04993,0.13972 0.07074,0.288593 0.0705,0.43661 m -0.502441,0 c -0.0035,-0.18551 -0.01497,-0.400859 -0.159432,-0.536448 -0.12869,-0.112992 -0.331014,-0.11707 -0.477683,-0.03773 -0.164529,0.09547 -0.208598,0.300741 -0.218043,0.476471 -0.008,0.209855 -0.0023,0.447024 0.14048,0.615637 0.122784,0.138854 0.346279,0.145148 0.500195,0.05725 0.188413,-0.119613 0.212273,-0.373433 0.214479,-0.575183 z"
         id="path3736"
         inkscape:connector-curvature="0" />
      <path
         style="font-weight:bold;fill:#333333;-inkscape-font-specification:Abandoned Bitplane Bold"
         d="m 54.004395,72.180199 c -0.001,-0.367595 0.0021,-0.735262 -0.0017,-1.10281 -0.0066,-0.147825 -0.04391,-0.323833 -0.190595,-0.394126 -0.148939,-0.06772 -0.338407,-0.0092 -0.424167,0.130077 -0.101273,0.143143 -0.104744,0.323573 -0.101338,0.492108 0,0.291584 0,0.583169 0,0.874753 -0.160075,0 -0.32015,0 -0.480225,0 -0.0011,-0.529923 0.0022,-1.059884 -0.0019,-1.589781 -0.0037,-0.08643 -0.0034,-0.173198 -0.01169,-0.259341 0.152669,0 0.305338,0 0.458007,0 0.01366,0.121956 0.01835,0.244828 0.0221,0.367435 0.04144,-0.05594 0.07219,-0.136617 0.124287,-0.192359 0.129681,-0.167368 0.353523,-0.229865 0.557668,-0.207539 0.197722,0.0098 0.384736,0.135195 0.459236,0.320143 0.09337,0.218728 0.06345,0.459805 0.06873,0.691181 0,0.29009 0,0.58018 0,0.87027 -0.159505,0 -0.31901,0 -0.478515,0"
         id="path3738"
         inkscape:connector-curvature="0" />
      <path
         style="font-weight:bold;fill:#333333;-inkscape-font-specification:Abandoned Bitplane Bold"
         d="m 56.504639,71.64016 c 0.0074,0.207155 -0.130481,0.399657 -0.318917,0.478496 -0.25223,0.113436 -0.539444,0.110213 -0.808242,0.07321 -0.199647,-0.0277 -0.400326,-0.131551 -0.493895,-0.317402 -0.01142,-0.04784 -0.107783,-0.167373 -0.01348,-0.16248 0.125571,-0.01881 0.251143,-0.03762 0.376715,-0.05643 0.0223,0.115619 0.115797,0.212316 0.234349,0.227084 0.151508,0.01873 0.311503,0.02711 0.458331,-0.02176 0.11448,-0.03196 0.163308,-0.185355 0.0915,-0.278324 -0.102821,-0.106057 -0.260987,-0.112224 -0.396246,-0.147022 -0.211564,-0.05152 -0.447718,-0.08338 -0.609549,-0.243326 -0.145223,-0.142427 -0.158755,-0.37785 -0.08196,-0.55764 0.09288,-0.207136 0.325431,-0.301161 0.537761,-0.326906 0.249083,-0.02805 0.520288,-0.01682 0.737689,0.120965 0.127307,0.08139 0.216015,0.217325 0.243207,0.365614 -0.141846,0.01481 -0.283691,0.02962 -0.425537,0.04443 -0.01328,-0.1197 -0.121417,-0.209527 -0.23902,-0.216018 -0.13076,-0.0126 -0.27484,-0.01866 -0.392825,0.04819 -0.0971,0.06294 -0.08512,0.23224 0.0243,0.276802 0.136674,0.06646 0.291614,0.07658 0.436682,0.116971 0.202005,0.04832 0.429734,0.102043 0.55614,0.282728 0.06191,0.08415 0.0838,0.190005 0.08299,0.292838"
         id="path3740"
         inkscape:connector-curvature="0" />
      <path
         style="font-weight:bold;fill:#333333;-inkscape-font-specification:Abandoned Bitplane Bold"
         d="m 57.347168,70.331078 c 0.001,0.367651 -0.0021,0.735373 0.0017,1.102977 0.0065,0.147413 0.04295,0.322983 0.188885,0.39396 0.148735,0.06744 0.337464,0.0096 0.424163,-0.12857 0.09777,-0.142986 0.105462,-0.321081 0.101345,-0.488497 0,-0.29329 0,-0.586581 0,-0.879872 0.160075,0 0.32015,0 0.480225,0 8.31e-4,0.535094 -0.0017,1.070233 0.0013,1.605298 -0.0014,0.07968 0.01304,0.172622 0.0073,0.243822 -0.150982,0 -0.301965,0 -0.452947,0 -0.01333,-0.121986 -0.01849,-0.244785 -0.0204,-0.367435 -0.04343,0.05258 -0.07217,0.136381 -0.125136,0.191027 -0.130499,0.166232 -0.353688,0.229655 -0.557879,0.207163 -0.207779,-0.01068 -0.406062,-0.147356 -0.472006,-0.3477 -0.07959,-0.217132 -0.05113,-0.450659 -0.0566,-0.676946 0,-0.28508 0,-0.570159 0,-0.855239 0.160075,0 0.32015,0 0.480225,0"
         id="path3742"
         inkscape:connector-curvature="0" />
      <path
         d="m 59.033936,72.180199 0,-2.536133 0.480224,0 0,2.536133 -0.480224,0"
         id="path3744"
         style="font-weight:bold;fill:#333333;-inkscape-font-specification:Abandoned Bitplane Bold" />
      <path
         style="font-weight:bold;fill:#333333;-inkscape-font-specification:Abandoned Bitplane Bold"
         d="m 60.478027,72.21096 c -0.154002,0.0051 -0.325461,-0.05938 -0.391608,-0.208329 -0.0715,-0.15407 -0.04354,-0.327187 -0.04931,-0.49145 0,-0.285132 0,-0.570264 0,-0.855396 -0.07804,0 -0.156087,0 -0.23413,0 0,-0.108236 0,-0.216471 0,-0.324707 0.08602,0 0.172037,0 0.258056,0 0.05013,-0.144694 0.100261,-0.289388 0.150391,-0.434082 0.10026,0 0.200521,0 0.300781,0 0,0.144694 0,0.289388 0,0.434082 0.116781,0 0.233561,0 0.350342,0 0,0.108236 0,0.216471 0,0.324707 -0.116781,0 -0.233561,0 -0.350342,0 0.0012,0.336192 -0.0023,0.672498 0.0018,1.008616 0.0021,0.0899 0.04827,0.193375 0.14662,0.208839 0.07046,0.02561 0.171649,-0.02112 0.222423,-0.0075 0,0.09572 0,0.191432 0,0.287148 -0.130365,0.04207 -0.268445,0.05793 -0.40503,0.05811"
         id="path3746"
         inkscape:connector-curvature="0" />
      <path
         d="m 61.173584,69.997826 0,-0.35376 0.480225,0 0,0.35376 -0.480225,0 m 0,2.182373 0,-1.849121 0.480225,0 0,1.849121 -0.480225,0"
         id="path3749"
         style="font-weight:bold;fill:#333333;-inkscape-font-specification:Abandoned Bitplane Bold" />
      <path
         style="font-weight:bold;fill:#333333;-inkscape-font-specification:Abandoned Bitplane Bold"
         d="m 63.342285,72.180199 c -0.001,-0.367595 0.0021,-0.735262 -0.0017,-1.10281 -0.0066,-0.147827 -0.04391,-0.323833 -0.190596,-0.394126 -0.148939,-0.06772 -0.338407,-0.0092 -0.424167,0.130077 -0.101272,0.143142 -0.104741,0.323574 -0.101338,0.492108 0,0.291584 0,0.583169 0,0.874753 -0.160075,0 -0.32015,0 -0.480225,0 -0.0011,-0.529923 0.0022,-1.059884 -0.0019,-1.589781 -0.0037,-0.08643 -0.0034,-0.173198 -0.01169,-0.259341 0.152669,0 0.305339,0 0.458008,0 0.01366,0.121956 0.01835,0.244828 0.0221,0.367435 0.04144,-0.05594 0.07219,-0.136617 0.124287,-0.192359 0.129681,-0.167367 0.353522,-0.229865 0.557668,-0.207539 0.197722,0.0098 0.384736,0.135195 0.459236,0.320143 0.09337,0.218729 0.06346,0.459805 0.06873,0.691181 0,0.29009 0,0.58018 0,0.87027 -0.159505,0 -0.319011,0 -0.478516,0"
         id="path3751"
         inkscape:connector-curvature="0" />
      <path
         style="font-weight:bold;fill:#333333;-inkscape-font-specification:Abandoned Bitplane Bold"
         d="m 65.058105,72.921898 c -0.257943,0.0012 -0.553361,-0.06147 -0.710149,-0.285936 -0.03563,-0.05959 -0.09606,-0.15884 -0.07538,-0.212856 0.155888,-0.01831 0.311775,-0.03662 0.467663,-0.05492 0.02568,0.146359 0.17101,0.242262 0.314653,0.237299 0.140466,0.01056 0.294623,-0.05234 0.348484,-0.190897 0.08065,-0.182221 0.04195,-0.385575 0.05632,-0.577909 -0.06658,0.136997 -0.186355,0.259291 -0.338909,0.302123 -0.236018,0.07212 -0.528686,0.05314 -0.704809,-0.138677 -0.210756,-0.226505 -0.240604,-0.555995 -0.230835,-0.851382 0.01262,-0.274718 0.08589,-0.586006 0.328863,-0.748254 0.220692,-0.140962 0.526057,-0.142138 0.749016,-0.0055 0.092,0.05244 0.147449,0.155754 0.201776,0.233463 0.01825,-0.08864 -0.02384,-0.252973 0.04909,-0.29736 0.143098,0 0.286196,0 0.429294,0 -0.01801,0.428831 -0.0073,0.858193 -0.0102,1.287284 -0.003,0.216394 0.0073,0.433325 -0.0082,0.649235 -0.0208,0.242556 -0.168544,0.476252 -0.398609,0.568924 -0.146892,0.06415 -0.309033,0.08524 -0.468214,0.08538 m 0.401612,-1.691895 c -4.49e-4,-0.19504 -0.03102,-0.422684 -0.198084,-0.548368 -0.163018,-0.109672 -0.420055,-0.05825 -0.500253,0.130527 -0.09236,0.200787 -0.08796,0.431839 -0.06175,0.646841 0.02214,0.158852 0.103434,0.339741 0.276332,0.375025 0.162641,0.04191 0.347061,-0.04112 0.409838,-0.200266 0.06015,-0.125331 0.07396,-0.266464 0.07392,-0.403749"
         id="path3753"
         inkscape:connector-curvature="0" />
      <path
         style="font-weight:bold;fill:#333333;-inkscape-font-specification:Abandoned Bitplane Bold"
         d="m 68.592285,72.180199 c -0.02255,-0.09686 -0.01564,-0.213993 -0.0323,-0.30078 -0.07444,0.180517 -0.251561,0.302179 -0.443348,0.324144 -0.209462,0.03556 -0.446433,-0.0061 -0.591842,-0.172718 -0.204423,-0.229949 -0.23749,-0.555678 -0.229728,-0.851128 0.0092,-0.282251 0.08333,-0.598453 0.326153,-0.771633 0.200261,-0.138609 0.477442,-0.144181 0.695049,-0.0438 0.1119,0.02709 0.217983,0.22132 0.250107,0.238084 -0.0055,-0.319359 -0.002,-0.63888 -0.003,-0.958316 0.160075,0 0.32015,0 0.480225,0 9.97e-4,0.758499 -0.002,1.517029 0.0016,2.275507 -0.01115,0.08053 0.03629,0.212961 -0.0067,0.260626 -0.148714,0 -0.297427,0 -0.446141,0 m -0.02222,-0.934815 c -9.16e-4,-0.200533 -0.02752,-0.436107 -0.199794,-0.566259 -0.157012,-0.102171 -0.404075,-0.06506 -0.490292,0.11277 -0.09981,0.198612 -0.09212,0.430672 -0.07658,0.646636 0.01751,0.169739 0.07762,0.37614 0.259659,0.432373 0.1654,0.05458 0.358728,-0.03174 0.425631,-0.19344 0.06466,-0.133931 0.08166,-0.284988 0.08137,-0.432074 z"
         id="path3755"
         inkscape:connector-curvature="0" />
      <path
         style="font-weight:bold;fill:#333333;-inkscape-font-specification:Abandoned Bitplane Bold"
         d="m 70.291016,72.214378 c -0.243164,0.0032 -0.502477,-0.0724 -0.659697,-0.268812 -0.189451,-0.233237 -0.219891,-0.551543 -0.199504,-0.840845 0.01586,-0.265291 0.134127,-0.541069 0.368974,-0.682492 0.211544,-0.125163 0.472783,-0.149986 0.711162,-0.103619 0.222519,0.04574 0.412798,0.208075 0.498979,0.4175 0.08304,0.192045 0.105542,0.404373 0.105528,0.611812 -0.395345,0 -0.79069,0 -1.186035,0 0.0016,0.170634 0.02562,0.370129 0.171755,0.480973 0.11319,0.08303 0.275128,0.08236 0.398754,0.02363 0.07304,-0.03369 0.111023,-0.116565 0.140396,-0.179456 0.149263,0.01296 0.298525,0.02591 0.447788,0.03887 -0.07242,0.186334 -0.208934,0.353566 -0.398516,0.428316 -0.124818,0.05738 -0.263471,0.0742 -0.399581,0.07412 z m 3e-6,-1.614986 c -0.136954,-0.0059 -0.269399,0.08083 -0.313215,0.211765 -0.03083,0.07461 -0.04161,0.155791 -0.04397,0.235981 0.239258,0 0.478515,0 0.717773,0 -0.0077,-0.160267 -0.05815,-0.347875 -0.217894,-0.419553 -0.04468,-0.02001 -0.09394,-0.02827 -0.142701,-0.0282 z"
         id="path3757"
         inkscape:connector-curvature="0" />
      <path
         style="font-weight:bold;fill:#333333;-inkscape-font-specification:Abandoned Bitplane Bold"
         d="m 71.955566,72.21096 c -0.154002,0.0051 -0.325461,-0.05938 -0.391608,-0.208329 -0.0715,-0.15407 -0.04354,-0.327187 -0.04931,-0.49145 0,-0.285132 0,-0.570264 0,-0.855396 -0.07804,0 -0.156087,0 -0.23413,0 0,-0.108236 0,-0.216471 0,-0.324707 0.08602,0 0.172037,0 0.258056,0 0.05013,-0.144694 0.100261,-0.289388 0.150391,-0.434082 0.10026,0 0.200521,0 0.300781,0 0,0.144694 0,0.289388 0,0.434082 0.116781,0 0.233561,0 0.350342,0 0,0.108236 0,0.216471 0,0.324707 -0.116781,0 -0.233561,0 -0.350342,0 0.0012,0.336192 -0.0023,0.672498 0.0018,1.008616 0.0021,0.0899 0.04827,0.193375 0.14662,0.208839 0.07046,0.02561 0.17165,-0.02111 0.222423,-0.0075 0,0.09572 0,0.191432 0,0.287148 -0.130365,0.04207 -0.268445,0.05793 -0.40503,0.05811"
         id="path3759"
         inkscape:connector-curvature="0" />
      <path
         style="font-weight:bold;fill:#333333;-inkscape-font-specification:Abandoned Bitplane Bold"
         d="m 73.408203,72.214378 c -0.243164,0.0032 -0.502476,-0.0724 -0.659696,-0.268812 -0.189453,-0.233236 -0.219887,-0.551544 -0.199503,-0.840845 0.01587,-0.265291 0.134123,-0.54107 0.368973,-0.682492 0.211543,-0.125163 0.472783,-0.149986 0.711161,-0.103619 0.22252,0.04574 0.412797,0.208076 0.49898,0.4175 0.08304,0.192045 0.105542,0.404373 0.105528,0.611812 -0.395345,0 -0.790691,0 -1.186036,0 0.0016,0.170633 0.02562,0.370129 0.171755,0.480973 0.113189,0.08303 0.275128,0.08236 0.398753,0.02363 0.07305,-0.03369 0.111023,-0.116565 0.140397,-0.179456 0.149263,0.01296 0.298525,0.02591 0.447788,0.03887 -0.07242,0.186336 -0.208936,0.353565 -0.398517,0.428316 -0.124819,0.05738 -0.263471,0.0742 -0.399581,0.07412 z m 2e-6,-1.614986 c -0.136953,-0.0059 -0.269399,0.08083 -0.313215,0.211765 -0.03083,0.07461 -0.04161,0.155791 -0.04397,0.235981 0.239258,0 0.478516,0 0.717774,0 -0.0077,-0.160265 -0.05815,-0.347875 -0.217895,-0.419553 -0.04468,-0.02001 -0.09394,-0.02827 -0.142701,-0.0282 z"
         id="path3761"
         inkscape:connector-curvature="0" />
      <path
         style="font-weight:bold;fill:#333333;-inkscape-font-specification:Abandoned Bitplane Bold"
         d="m 75.370117,72.214378 c -0.252119,0.0051 -0.519705,-0.08145 -0.679696,-0.285302 -0.186585,-0.234634 -0.218632,-0.553345 -0.188851,-0.842177 0.02688,-0.261875 0.149573,-0.530467 0.383574,-0.667942 0.219925,-0.129747 0.492159,-0.147161 0.737905,-0.09514 0.234124,0.05248 0.442356,0.220454 0.522899,0.449317 0.0093,0.04941 0.0819,0.161663 -0.01193,0.143247 -0.14412,0.0071 -0.288239,0.01426 -0.432358,0.02139 -0.01466,-0.14225 -0.112503,-0.289086 -0.264039,-0.305696 -0.134457,-0.02627 -0.289404,0.0259 -0.352904,0.153595 -0.09913,0.192286 -0.09516,0.418185 -0.0814,0.62855 0.0165,0.158662 0.0565,0.344633 0.204978,0.432089 0.156865,0.08648 0.385514,0.0322 0.461578,-0.137792 0.04995,-0.04339 0.0055,-0.181971 0.0882,-0.163876 0.146966,0.0068 0.293933,0.01355 0.440899,0.02033 -0.03119,0.258732 -0.212959,0.489202 -0.456136,0.58223 -0.117407,0.04967 -0.245987,0.0671 -0.372718,0.06719 z"
         id="path3763"
         inkscape:connector-curvature="0" />
      <path
         style="font-weight:bold;fill:#333333;-inkscape-font-specification:Abandoned Bitplane Bold"
         d="m 77.020996,72.21096 c -0.154002,0.0051 -0.325461,-0.05938 -0.391608,-0.208329 -0.0715,-0.15407 -0.04354,-0.327187 -0.04931,-0.491451 0,-0.285131 0,-0.570263 0,-0.855395 -0.07804,0 -0.156087,0 -0.234131,0 0,-0.108236 0,-0.216471 0,-0.324707 0.08602,0 0.172038,0 0.258057,0 0.05013,-0.144694 0.100261,-0.289388 0.150391,-0.434082 0.10026,0 0.200521,0 0.300781,0 0,0.144694 0,0.289388 0,0.434082 0.116781,0 0.233561,0 0.350342,0 0,0.108236 0,0.216471 0,0.324707 -0.116781,0 -0.233561,0 -0.350342,0 0.0011,0.336192 -0.0023,0.672498 0.0018,1.008616 -0.01774,0.294718 0.223829,0.254219 0.369044,0.201339 0,0.09572 0,0.191432 0,0.287148 -0.130364,0.04208 -0.268445,0.05793 -0.405029,0.05811"
         id="path3765"
         inkscape:connector-curvature="0"
         sodipodi:nodetypes="ccccccccccccccccc" />
      <path
         d="m 77.716553,69.997826 0,-0.35376 0.480224,0 0,0.35376 -0.480224,0 m 0,2.182373 0,-1.849121 0.480224,0 0,1.849121 -0.480224,0"
         id="path3767"
         style="font-weight:bold;fill:#333333;-inkscape-font-specification:Abandoned Bitplane Bold" />
      <path
         style="font-weight:bold;fill:#333333;-inkscape-font-specification:Abandoned Bitplane Bold"
         d="m 79.692139,72.180199 c -0.191406,0 -0.382813,0 -0.574219,0 -0.220459,-0.616374 -0.440918,-1.232747 -0.661377,-1.849121 0.169189,0 0.338379,0 0.507568,0 0.180662,0.56579 0.413967,1.34296 0.446957,1.450765 0.149039,-0.51242 0.309036,-0.980015 0.460507,-1.450773 0.16748,0 0.334961,0 0.502441,0 -0.227295,0.616374 -0.454589,1.232747 -0.681877,1.849129 z"
         id="path3769"
         inkscape:connector-curvature="0"
         sodipodi:nodetypes="cccccccc" />
      <path
         style="font-weight:bold;fill:#333333;-inkscape-font-specification:Abandoned Bitplane Bold"
         d="m 81.392578,72.214378 c -0.243164,0.0032 -0.502476,-0.0724 -0.659696,-0.268812 -0.189453,-0.233236 -0.219887,-0.551544 -0.199503,-0.840845 0.01587,-0.265291 0.134123,-0.54107 0.368973,-0.682492 0.211543,-0.125163 0.472783,-0.149986 0.711161,-0.103619 0.22252,0.04574 0.412797,0.208076 0.49898,0.4175 0.08304,0.192045 0.105542,0.404373 0.105528,0.611812 -0.395345,0 -0.790691,0 -1.186036,0 0.0016,0.170633 0.02562,0.370129 0.171755,0.480973 0.113189,0.08303 0.275128,0.08236 0.398753,0.02363 0.07305,-0.03369 0.111023,-0.116565 0.140397,-0.179456 0.149263,0.01296 0.298525,0.02591 0.447788,0.03887 -0.07242,0.186336 -0.208936,0.353565 -0.398517,0.428316 -0.124819,0.05738 -0.263471,0.0742 -0.399581,0.07412 z m 2e-6,-1.614986 c -0.136953,-0.0059 -0.269399,0.08083 -0.313215,0.211765 -0.03083,0.07461 -0.04161,0.155791 -0.04397,0.235981 0.239258,0 0.478516,0 0.717774,0 -0.0077,-0.160265 -0.05815,-0.347875 -0.217895,-0.419553 -0.04468,-0.02001 -0.09394,-0.02827 -0.142701,-0.0282 z"
         id="path3771"
         inkscape:connector-curvature="0" />
    </g>
    <g
       transform="translate(-0.180174,0.09348)"
       id="text3728"
       style="font-size:3.5px;font-style:normal;font-variant:normal;font-weight:normal;font-stretch:normal;text-align:start;line-height:125%;writing-mode:lr-tb;text-anchor:start;fill:#333333;fill-opacity:1;stroke:none;font-family:Liberation Sans;-inkscape-font-specification:Abandoned Bitplane">
      <path
         style="fill:#333333;-inkscape-font-specification:Abandoned Bitplane"
         d="m 50.042969,66.501732 c 0.01097,0.230719 -0.120464,0.458201 -0.32802,0.560441 -0.269043,0.143231 -0.579634,0.115212 -0.873852,0.118028 -0.220308,0 -0.440615,0 -0.660923,0 0,-0.802653 0,-1.605306 0,-2.407959 0.331919,0.0018 0.663977,-0.0038 0.995796,0.0033 0.230197,0.01475 0.495484,0.06269 0.637244,0.264865 0.163543,0.246126 0.103434,0.630544 -0.157669,0.78638 -0.04794,0.04312 -0.193057,0.07301 -0.192702,0.08586 0.224724,0.02471 0.460744,0.146491 0.540814,0.370294 0.0272,0.06947 0.0394,0.144292 0.03931,0.21875 z m -0.468264,-1.105715 c 0.0091,-0.136953 -0.07272,-0.275141 -0.20743,-0.315202 -0.195952,-0.07029 -0.406672,-0.04063 -0.610451,-0.0471 -0.08341,0 -0.166823,0 -0.250234,0 0,0.254069 0,0.508138 0,0.762207 0.221873,-0.0024 0.444069,0.0054 0.665688,-0.0052 0.163199,-0.01016 0.349263,-0.09161 0.387049,-0.266814 0.01093,-0.04167 0.01538,-0.08484 0.01538,-0.127854 z m 0.138427,1.080085 c 0.0086,-0.161715 -0.09374,-0.319742 -0.249091,-0.370848 -0.212936,-0.07963 -0.443413,-0.04813 -0.665675,-0.0547 -0.09726,0 -0.194521,0 -0.291782,0 0,0.289388 0,0.578776 0,0.868164 0.246404,-0.002 0.493022,0.0044 0.739268,-0.0039 0.171671,-0.0079 0.367298,-0.07279 0.434563,-0.247123 0.02479,-0.06052 0.03261,-0.126628 0.03272,-0.191595"
         id="path3774"
         inkscape:connector-curvature="0" />
      <path
         style="fill:#333333;-inkscape-font-specification:Abandoned Bitplane"
         d="m 50.473633,67.180199 c -5.9e-4,-0.50219 0.0012,-1.004397 -9.58e-4,-1.506575 -9.55e-4,-0.114226 -0.0044,-0.228418 -0.0092,-0.342549 0.09684,0 0.193685,0 0.290527,0 0.0046,0.125902 0.01333,0.251651 0.0136,0.377688 0.03204,-0.0526 0.04576,-0.132939 0.07991,-0.192574 0.04899,-0.107176 0.146202,-0.195099 0.265708,-0.211174 0.07465,-0.01339 0.151761,-0.0099 0.225157,0.0089 0,0.09399 0,0.187988 0,0.281982 -0.129839,-0.02723 -0.285642,-0.03427 -0.388648,0.06437 -0.133387,0.126423 -0.158187,0.322272 -0.167428,0.496522 -0.0024,0.341097 -4e-4,0.682248 -0.0011,1.023366 -0.102539,0 -0.205078,0 -0.307617,0"
         id="path3776"
         inkscape:connector-curvature="0" />
      <path
         d="m 51.634033,64.938011 0,-0.293945 0.307617,0 0,0.293945 -0.307617,0 m 0,2.242188 0,-1.849121 0.307617,0 0,1.849121 -0.307617,0"
         id="path3778"
         style="fill:#333333;-inkscape-font-specification:Abandoned Bitplane" />
      <path
         style="fill:#333333;-inkscape-font-specification:Abandoned Bitplane"
         d="m 53.125977,67.166527 c -0.15293,0.03558 -0.319439,0.06536 -0.472535,0.01484 -0.146051,-0.04966 -0.204819,-0.21212 -0.20683,-0.354199 -0.0019,-0.424051 -2.83e-4,-0.84815 -8.11e-4,-1.272219 -0.07121,0 -0.142415,0 -0.213623,0 0,-0.07463 0,-0.149251 0,-0.223877 0.0752,0 0.150391,0 0.225586,0 0.03019,-0.137858 0.06039,-0.275717 0.09058,-0.413575 0.06836,0 0.136719,0 0.205078,0 0,0.137858 0,0.275717 0,0.413575 0.113932,0 0.227865,0 0.341797,0 0,0.07463 0,0.149251 0,0.223877 -0.113932,0 -0.227865,0 -0.341797,0 9.67e-4,0.40481 -0.002,0.809703 0.0015,1.214461 -0.0016,0.08705 0.04498,0.187116 0.143435,0.190432 0.07646,0.01063 0.152935,-0.0056 0.227622,-0.02058 0,0.07577 0,0.15153 0,0.227295"
         id="path3780"
         inkscape:connector-curvature="0" />
      <path
         d="m 53.384033,64.938011 0,-0.293945 0.307617,0 0,0.293945 -0.307617,0 m 0,2.242188 0,-1.849121 0.307617,0 0,1.849121 -0.307617,0"
         id="path3782"
         style="fill:#333333;-inkscape-font-specification:Abandoned Bitplane" />
      <path
         style="fill:#333333;-inkscape-font-specification:Abandoned Bitplane"
         d="m 55.552734,66.669212 c 0.0066,0.187469 -0.103238,0.37188 -0.274559,0.450263 -0.226456,0.109744 -0.489166,0.108902 -0.733262,0.07529 -0.193418,-0.02608 -0.392083,-0.128346 -0.472881,-0.314959 -0.01223,-0.04766 -0.08692,-0.14815 0.0026,-0.143047 0.07457,-0.01454 0.149133,-0.02908 0.2237,-0.04362 0.02965,0.138921 0.151506,0.240723 0.288337,0.265479 0.155839,0.03112 0.320878,0.03161 0.474722,-0.01041 0.117503,-0.02887 0.203798,-0.143854 0.192104,-0.265418 0.0038,-0.129858 -0.114265,-0.215046 -0.226289,-0.250276 -0.218926,-0.07284 -0.451501,-0.107046 -0.661058,-0.206493 -0.148868,-0.07061 -0.270557,-0.21879 -0.265855,-0.389899 -0.01002,-0.166524 0.06585,-0.340882 0.214637,-0.42462 0.200702,-0.11685 0.444796,-0.120718 0.669801,-0.09896 0.188666,0.02108 0.392765,0.102354 0.480879,0.28247 0.0098,0.04439 0.09684,0.161207 0.02064,0.164093 -0.08095,0.01 -0.161907,0.01999 -0.242861,0.02998 -0.02671,-0.151206 -0.1818,-0.234894 -0.323427,-0.246934 -0.144938,-0.0133 -0.306045,-0.01699 -0.433696,0.06369 -0.123713,0.08575 -0.116351,0.30198 0.02055,0.372091 0.161066,0.09107 0.350488,0.106387 0.524286,0.162841 0.17955,0.05077 0.37756,0.125521 0.469168,0.30038 0.03668,0.07019 0.05333,0.149109 0.05245,0.228069"
         id="path3784"
         inkscape:connector-curvature="0" />
      <path
         style="fill:#333333;-inkscape-font-specification:Abandoned Bitplane"
         d="m 56.220947,65.64724 c 0.09115,-0.178804 0.261384,-0.324296 0.466875,-0.342328 0.203757,-0.02335 0.446092,-0.0054 0.586093,0.164107 0.132359,0.16573 0.123996,0.38941 0.124522,0.590519 0,0.373554 0,0.747107 0,1.120661 -0.103109,0 -0.206217,0 -0.309326,0 -0.0013,-0.418895 0.0027,-0.837883 -0.0022,-1.256717 -0.0056,-0.131133 -0.03021,-0.292004 -0.16586,-0.350532 -0.196308,-0.07992 -0.455799,-0.04185 -0.583834,0.139888 -0.10747,0.143625 -0.111799,0.328462 -0.107768,0.500288 0,0.322358 0,0.644717 0,0.967076 -0.102539,0 -0.205078,0 -0.307617,0 0,-0.845378 0,-1.690755 0,-2.536133 0.102539,0 0.205078,0 0.307617,0 -0.0032,0.3344 0.0093,0.669303 -0.0136,1.003169 l 0.0051,0"
         id="path3786"
         inkscape:connector-curvature="0" />
      <path
         style="fill:#333333;-inkscape-font-specification:Abandoned Bitplane"
         d="m 60.22168,66.669212 c 0.0094,0.207943 -0.1315,0.408132 -0.328272,0.473997 -0.23853,0.09346 -0.50419,0.08397 -0.752087,0.03819 -0.182601,-0.04018 -0.358574,-0.160915 -0.417687,-0.344767 -0.04651,-0.05836 -0.01635,-0.113022 0.05353,-0.106421 0.06337,-0.01236 0.126743,-0.02471 0.190115,-0.03707 0.03268,0.160319 0.190444,0.264851 0.347169,0.27569 0.155733,0.02106 0.320901,0.01865 0.468433,-0.04016 0.145053,-0.06714 0.191649,-0.28331 0.07775,-0.398503 -0.103968,-0.105025 -0.258625,-0.121799 -0.393592,-0.163294 -0.179687,-0.04974 -0.369879,-0.08838 -0.524696,-0.197754 -0.118238,-0.08671 -0.18816,-0.233121 -0.173665,-0.379958 0.0031,-0.173601 0.109174,-0.342931 0.272741,-0.407617 0.213283,-0.09592 0.456594,-0.09166 0.683477,-0.0582 0.179377,0.03202 0.366026,0.134211 0.427738,0.315629 0.03804,0.04801 0.05231,0.135983 -0.03139,0.124324 -0.06963,0.0086 -0.139267,0.01719 -0.208901,0.02579 -0.02897,-0.160238 -0.200828,-0.244885 -0.35078,-0.249297 -0.148455,-0.01072 -0.320454,-0.01237 -0.437682,0.09338 -0.09573,0.1027 -0.06704,0.297237 0.06707,0.35308 0.191683,0.09737 0.411389,0.110928 0.611225,0.186111 0.172468,0.05502 0.350713,0.165306 0.399995,0.350979 0.01378,0.04729 0.02005,0.09666 0.0195,0.145881"
         id="path3788"
         inkscape:connector-curvature="0" />
      <path
         style="fill:#333333;-inkscape-font-specification:Abandoned Bitplane"
         d="m 60.884766,65.331078 c 0.0025,0.432867 -0.0053,0.865885 0.0046,1.298649 0.0071,0.126781 0.05423,0.280648 0.189995,0.320849 0.155251,0.04847 0.340741,0.03633 0.472883,-0.06474 0.145095,-0.114419 0.196072,-0.307187 0.191,-0.485006 0.0028,-0.356561 4.65e-4,-0.71318 0.0012,-1.069772 0.102539,0 0.205078,0 0.307617,0 0.0016,0.561663 -0.0033,1.123345 0.0027,1.684993 -0.01196,0.0538 0.04893,0.17791 -0.05001,0.164127 -0.07765,0 -0.1553,0 -0.23295,0 -0.0079,-0.105206 -0.01249,-0.210663 -0.0136,-0.31616 -0.07591,0.114892 -0.157005,0.239509 -0.291803,0.290784 -0.18813,0.08098 -0.408337,0.07865 -0.599959,0.011 -0.136889,-0.0543 -0.234084,-0.182393 -0.262058,-0.325433 -0.0491,-0.207284 -0.02121,-0.421599 -0.02877,-0.632259 0,-0.292352 0,-0.584704 0,-0.877056 0.103109,0 0.206218,0 0.309327,0"
         id="path3790"
         inkscape:connector-curvature="0" />
      <path
         style="fill:#333333;-inkscape-font-specification:Abandoned Bitplane"
         d="m 64.095947,66.247093 c -0.0026,0.278691 -0.03282,0.586939 -0.232199,0.800321 -0.192614,0.191942 -0.49936,0.201514 -0.743873,0.118221 -0.125701,-0.04961 -0.219235,-0.156698 -0.283431,-0.272541 -0.02865,0.08772 0.04356,0.245281 -0.0592,0.28711 -0.08505,0 -0.170109,0 -0.255164,0 0.01923,-0.480439 0.007,-0.961387 0.0102,-1.442081 0,-0.364685 0,-0.72937 0,-1.094055 0.102539,0 0.205078,0 0.307617,0 -0.0022,0.328118 0.0056,0.656379 -0.0068,0.98437 0.07504,-0.127389 0.173418,-0.254931 0.324255,-0.292621 0.209654,-0.06592 0.456098,-0.05539 0.643777,0.06595 0.225786,0.166287 0.279743,0.465549 0.292229,0.728444 0.0018,0.03893 0.0026,0.07791 0.0026,0.116883 m -0.322998,0.01025 c -0.0061,-0.213587 -0.0035,-0.455944 -0.156554,-0.624063 -0.141749,-0.131798 -0.36692,-0.121291 -0.531675,-0.04151 -0.185669,0.111838 -0.229066,0.348191 -0.239425,0.547935 -0.01431,0.234024 -0.01,0.490348 0.122288,0.693212 0.122717,0.157077 0.354643,0.188976 0.534242,0.12487 0.16208,-0.05639 0.223825,-0.234921 0.249307,-0.389213 0.01723,-0.102781 0.02008,-0.207263 0.02182,-0.311234 z"
         id="path3792"
         inkscape:connector-curvature="0" />
      <path
         style="fill:#333333;-inkscape-font-specification:Abandoned Bitplane"
         d="m 64.47876,64.938011 c 0,-0.09798 0,-0.195963 0,-0.293945 0.102539,0 0.205078,0 0.307617,0 0,0.09798 0,0.195963 0,0.293945 -0.102539,0 -0.205078,0 -0.307617,0 z m 0.307617,2.471192 c 0.0014,0.170068 -0.03263,0.382446 -0.208495,0.458007 -0.131173,0.0586 -0.280426,0.04058 -0.418701,0.02395 0,-0.07918 0,-0.158366 0,-0.237549 0.113754,0.02503 0.28308,0.01669 0.305802,-0.12791 0.0249,-0.170192 0.0094,-0.343269 0.01373,-0.514823 0,-0.559943 0,-1.119886 0,-1.679829 0.102539,0 0.205078,0 0.307617,0 0,0.692708 0,1.385417 0,2.078125"
         id="path3794"
         inkscape:connector-curvature="0" />
      <path
         style="fill:#333333;-inkscape-font-specification:Abandoned Bitplane"
         d="m 65.495605,66.32058 c -3.53e-4,0.210636 0.04332,0.452979 0.227188,0.582515 0.15967,0.106509 0.372901,0.09998 0.546774,0.03387 0.102095,-0.04538 0.189146,-0.130205 0.225796,-0.23699 0.09001,0.02563 0.180013,0.05127 0.27002,0.0769 -0.06809,0.194544 -0.236704,0.347293 -0.436899,0.396463 -0.216168,0.05993 -0.452716,0.05693 -0.665771,-0.0145 -0.207344,-0.0758 -0.369335,-0.255581 -0.428293,-0.467814 -0.07726,-0.247802 -0.07717,-0.515354 -0.0309,-0.769024 0.05107,-0.24257 0.20594,-0.480735 0.448993,-0.563712 0.235709,-0.08659 0.506353,-0.08461 0.737878,0.01412 0.21868,0.101845 0.353948,0.327145 0.392285,0.559513 0.02571,0.127784 0.03359,0.258532 0.03226,0.388671 -0.439773,-8e-6 -0.879584,1.6e-5 -1.319334,-1.2e-5 z m 1.001471,-0.235831 c -0.01559,-0.189083 -0.06962,-0.409481 -0.251597,-0.504883 -0.215859,-0.110017 -0.524278,-0.06099 -0.652572,0.158198 -0.06384,0.103496 -0.0915,0.226013 -0.09388,0.346688 0.332683,-2e-6 0.665369,4e-6 0.99805,-3e-6 z"
         id="path3796"
         inkscape:connector-curvature="0" />
      <path
         style="fill:#333333;-inkscape-font-specification:Abandoned Bitplane"
         d="m 67.442139,66.247093 c 0.0032,0.206214 0.01528,0.433737 0.155224,0.598511 0.142887,0.158287 0.407214,0.164514 0.575984,0.0452 0.08602,-0.06749 0.133505,-0.17448 0.145501,-0.2814 0.09913,0.01374 0.230659,7.92e-4 0.309702,0.03115 -0.03199,0.255286 -0.226285,0.483906 -0.478583,0.54414 -0.20353,0.05213 -0.429476,0.03973 -0.620029,-0.05215 -0.189897,-0.09477 -0.317433,-0.283818 -0.363113,-0.487836 -0.06177,-0.246012 -0.06006,-0.50693 -0.008,-0.754476 0.05168,-0.226115 0.194556,-0.445903 0.418893,-0.530016 0.219621,-0.08787 0.477653,-0.08695 0.693294,0.01222 0.16543,0.08236 0.292235,0.239401 0.335513,0.419315 0.0455,0.100264 -0.126138,0.05146 -0.181446,0.07186 -0.06701,0.0055 -0.143762,0.03144 -0.136746,-0.06288 -0.04083,-0.143356 -0.172933,-0.257904 -0.32483,-0.260196 -0.159241,-0.01864 -0.346548,0.03074 -0.425665,0.182586 -0.09117,0.158057 -0.09196,0.346965 -0.09567,0.523974 z"
         id="path3799"
         inkscape:connector-curvature="0" />
      <path
         style="fill:#333333;-inkscape-font-specification:Abandoned Bitplane"
         d="m 69.668945,67.166527 c -0.15293,0.03558 -0.319438,0.06536 -0.472534,0.01484 -0.146052,-0.04966 -0.204819,-0.21212 -0.20683,-0.354199 -0.0019,-0.424051 -2.83e-4,-0.84815 -8.11e-4,-1.272219 -0.07121,0 -0.142416,0 -0.213624,0 0,-0.07463 0,-0.149251 0,-0.223877 0.07519,0 0.150391,0 0.225586,0 0.03019,-0.137858 0.06039,-0.275717 0.09058,-0.413575 0.06836,0 0.136719,0 0.205078,0 0,0.137858 0,0.275717 0,0.413575 0.113932,0 0.227865,0 0.341797,0 0,0.07463 0,0.149251 0,0.223877 -0.113932,0 -0.227865,0 -0.341797,0 9.67e-4,0.40481 -0.002,0.809703 0.0015,1.214461 -0.0016,0.08705 0.04498,0.187116 0.143436,0.190432 0.07646,0.01063 0.152929,-0.0056 0.227612,-0.02058 0,0.07577 0,0.15153 0,0.227295"
         id="path3801"
         inkscape:connector-curvature="0" />
    </g>
    <path
       d="m 48.000008,78.000002 c 0.02791,1.999967 0.0384,3.999858 0.03642,5.999996 l 0.910596,0 c -0.0036,-2.000013 -0.01522,-4.000006 -0.03122,-5.999996 l -0.915803,0 z m 1.55582,0 c 0.0092,2.000004 0.01012,4.000015 0.03122,5.999996 l 0.395458,0 c -0.01048,-1.999999 -0.01984,-3.999999 -0.03122,-5.999996 l -0.395461,0 z m 1.581853,0 c 0.156087,1.999131 0.05306,3.999947 0.02602,5.999996 l 1.42053,0 c -9.7e-5,-2.000007 -0.0038,-4.000002 -0.0156,-5.999996 l -1.430936,0 -8e-6,0 z m 2.565283,0 c 0.01674,1.99998 0.0089,4.00002 0.02602,5.999996 l 0.926205,0 c 1.06e-4,-1.599185 -0.0086,-3.957889 -0.02081,-5.999996 l -0.931411,0 z m 2.133383,0 c -0.02783,0.529746 -0.02676,2.175095 0.0052,5.999996 l 0.348627,0 c 0.01294,-1.573076 8.33e-4,-3.944364 -0.02081,-5.999996 l -0.333019,0 9e-6,0 7.1e-5,0 -5.4e-5,0 z m 2.044938,0 c 0.0052,2.000008 0.0079,4.00002 0.03122,5.999996 l 0.317409,0 c 0.02152,-1.99998 0.01578,-3.999999 0.01048,-5.999996 l -0.359036,0 -5.8e-5,0 -1.4e-5,0 z m 1.550621,0 c 0.01465,1.99999 0.01294,4.000041 0.04163,5.999996 l 0.9158,0 c -0.02349,-1.999983 -0.03964,-3.999984 -0.05202,-5.999996 l -0.905393,0 -1.3e-5,0 z m 2.076144,0 c 0.0028,2.000013 0.01236,4.000041 0.04163,5.999996 l 0.369442,0 c -0.0095,-2.000002 -0.02856,-3.999984 -0.03642,-5.999996 l -0.374647,0 z m 1.550624,4e-6 c 0.01907,2.21137 0.03394,4.868476 0.03641,5.923757 7.3e-5,0.03025 -8.9e-5,0.04683 0,0.07624 l 1.451751,0 c -0.0133,-2.000013 -0.02933,-4.000012 -0.05202,-5.999997 l -1.436141,0 z m 2.149007,-4e-6 c 0.0064,2.000005 0.0113,4.000015 0.03122,5.999996 l 0.884578,0 c -0.0025,-2.000006 -0.01012,-4.000001 -0.02081,-5.999996 l -0.894985,0 z m 1.587043,0 c -0.008,1.999997 -0.0077,3.999999 0,5.999996 l 0.90019,0 c 0.004,-2.000016 -0.01178,-4.000014 -0.03122,-5.999996 l -0.868969,0 z m 1.576649,0 c 0.0133,1.999997 0.01426,4.000018 0.03641,5.999996 l 0.874172,0 c -0.01825,-1.999997 -0.03628,-3.999992 -0.05202,-5.999996 l -0.858562,0 z m 2.586085,0 c 0.0064,2.00001 0.02707,3.999999 0.04163,5.999996 l 0.894984,0 c -0.008,-1.999995 -0.0068,-4.000002 -0.01559,-5.999996 l -0.921001,0 -9e-6,0 -1.6e-5,0 z m 2.643324,0 c 0.0231,1.999949 -0.01882,4.000085 0.01559,5.999996 l 0.385052,0 c -0.0031,-2.000021 -0.02331,-4.000019 -0.04682,-5.999996 l -0.353832,0 9e-6,0 z m 1.019866,0 c 0.02853,1.999962 0.0267,4.00003 0.05202,5.999996 l 0.333018,0 c 0.01142,-1.529555 0.0071,-3.925025 -0.0052,-5.999996 l -0.379849,0 -8e-6,0 -5.5e-5,0 5e-5,0 z m 2.159408,0 c 0.0068,2.498428 0.02862,5.084484 0.05725,5.999996 l 0.879377,0 c -3.32e-4,-2.000005 -0.01673,-3.999999 -0.02603,-5.999996 l -0.910593,0 z m 2.653745,0 c 0.02462,1.999974 0.01712,4.000015 0.03642,5.999996 l 0.364239,0 c -0.0095,-2.000002 -0.02749,-3.999989 -0.03642,-5.999996 l -0.364239,0 z m 1.035469,0 c 0.01806,1.999992 0.03521,3.999988 0.04682,5.999996 l 1.430937,0 c -0.01788,-1.999986 -0.02581,-3.999989 -0.03122,-5.999996 l -1.446548,0 9e-6,0 z m 2.117796,0 c 0.01048,2.000009 0.03389,3.99999 0.04682,5.999996 l 1.363295,0 c 0.0055,-1.600676 0.0025,-3.955116 -0.0052,-5.999996 l -1.40492,0 -8e-6,0 -5.1e-5,0 4.4e-5,0 z"
       id="path3748"
       style="fill:#333333;fill-opacity:1" />
    <path
       d="m 16,28 0,13.59375 C 22.364558,39.414237 29.835665,37.807394 38,37 l 0,-9 -22,0 z"
       id="rect3786"
       style="opacity:0.7;fill:url(#linearGradient3799);fill-opacity:1;stroke:none" />
    <rect
       width="36"
       height="2"
       rx="1"
       ry="0.66666669"
       x="48"
       y="58"
       id="rect3731"
       style="opacity:0.1;fill:#000000;fill-opacity:1;stroke:none" />
  </g>
</svg>
