<?xml version="1.0" encoding="UTF-8" standalone="no"?>
<!-- Created with Inkscape (http://www.inkscape.org/) -->

<svg
   xmlns:dc="http://purl.org/dc/elements/1.1/"
   xmlns:cc="http://creativecommons.org/ns#"
   xmlns:rdf="http://www.w3.org/1999/02/22-rdf-syntax-ns#"
   xmlns:svg="http://www.w3.org/2000/svg"
   xmlns="http://www.w3.org/2000/svg"
   xmlns:xlink="http://www.w3.org/1999/xlink"
   xmlns:sodipodi="http://sodipodi.sourceforge.net/DTD/sodipodi-0.dtd"
   xmlns:inkscape="http://www.inkscape.org/namespaces/inkscape"
   version="1.0"
   width="128"
   height="128"
   id="svg3449"
   sodipodi:version="0.32"
   inkscape:version="0.48.4 r9939"
   sodipodi:docname="gnome-session-hibernate-1.svg"
   inkscape:output_extension="org.inkscape.output.svg.inkscape">
  <metadata
     id="metadata56">
    <rdf:RDF>
      <cc:Work
         rdf:about="">
        <dc:format>image/svg+xml</dc:format>
        <dc:type
           rdf:resource="http://purl.org/dc/dcmitype/StillImage" />
      </cc:Work>
    </rdf:RDF>
  </metadata>
  <sodipodi:namedview
     inkscape:window-height="1018"
     inkscape:window-width="1920"
     inkscape:pageshadow="2"
     inkscape:pageopacity="0.0"
     guidetolerance="10.0"
     gridtolerance="10.0"
     objecttolerance="10.0"
     borderopacity="1.0"
     bordercolor="#666666"
     pagecolor="#ffffff"
     id="base"
     showgrid="false"
     inkscape:zoom="1.9765625"
     inkscape:cx="65.521075"
     inkscape:cy="41.32332"
     inkscape:window-x="-8"
     inkscape:window-y="-8"
     inkscape:current-layer="svg3449"
     inkscape:window-maximized="1" />
  <defs
     id="defs3451">
    <radialGradient
       inkscape:collect="always"
       xlink:href="#linearGradient4059-8"
       id="radialGradient3137"
       gradientUnits="userSpaceOnUse"
       gradientTransform="matrix(4.0072397e-4,2.2081308,-2.7670616,4.5911225e-4,17.162722,-249.92558)"
       cx="128.6185"
       cy="-5.0455413"
       fx="128.6185"
       fy="-5.0455413"
       r="45" />
    <linearGradient
       id="linearGradient4059-8">
      <stop
         style="stop-color:#4a4c37;stop-opacity:1"
         offset="0"
         id="stop4061-5" />
      <stop
         id="stop4063-1"
         offset="0.31291944"
         style="stop-color:#2a2c1d;stop-opacity:1" />
      <stop
         style="stop-color:#090908;stop-opacity:1"
         offset="0.66048187"
         id="stop4065-9" />
      <stop
         style="stop-color:#1d240d;stop-opacity:1"
         offset="1"
         id="stop4067-8" />
    </linearGradient>
    <linearGradient
       inkscape:collect="always"
       xlink:href="#linearGradient9647-5"
       id="linearGradient3139"
       gradientUnits="userSpaceOnUse"
       gradientTransform="matrix(1.0095551,0,0,1.0056748,17.095365,17.598094)"
       x1="48.24577"
       y1="102.10169"
       x2="17.000467"
       y2="-21.966103" />
    <linearGradient
       id="linearGradient9647-5">
      <stop
         id="stop9649-0"
         style="stop-color:#151414;stop-opacity:1"
         offset="0" />
      <stop
         id="stop9651-7"
         style="stop-color:#5c5a5a;stop-opacity:1"
         offset="1" />
    </linearGradient>
    <radialGradient
       inkscape:collect="always"
       xlink:href="#linearGradient4357-1"
       id="radialGradient3146"
       gradientUnits="userSpaceOnUse"
       gradientTransform="matrix(1.0428035,-0.94238456,0.99227546,1.0980864,-149.07741,78.52216)"
       cx="119.33224"
       cy="123.7699"
       fx="119.33224"
       fy="123.7699"
       r="42.606647" />
    <linearGradient
       id="linearGradient4357-1">
      <stop
         offset="0"
         style="stop-color:#0d0e09;stop-opacity:1;"
         id="stop4359-8" />
      <stop
         offset="1"
         style="stop-color:#abaeab;stop-opacity:0;"
         id="stop4361-5" />
    </linearGradient>
    <linearGradient
       inkscape:collect="always"
       xlink:href="#linearGradient4081-2"
       id="linearGradient3062"
       gradientUnits="userSpaceOnUse"
       x1="56"
       y1="72"
       x2="56"
       y2="24" />
    <linearGradient
       id="linearGradient4081-2">
      <stop
         id="stop4083-9"
         style="stop-color:#aaaaaa;stop-opacity:1"
         offset="0" />
      <stop
         id="stop4085-5"
         style="stop-color:#f0f0f0;stop-opacity:1"
         offset="1" />
    </linearGradient>
  </defs>
  <g
     transform="matrix(1.4404743,0,0,1.4404813,-5.0308353,-4.414782)"
     id="g3083">
    <g
       transform="matrix(0.92450094,0,0,0.92806631,-12.984346,-13.476155)"
       id="g3544">
      <rect
         style="opacity:0.76254183;fill:#090909;fill-opacity:1;fill-rule:nonzero;stroke:none;display:inline"
         id="rect9752"
         transform="scale(1,-1)"
         y="-108.29631"
         x="23.974026"
         ry="6.0340486"
         rx="6.0573306"
         height="84.476677"
         width="84.802628"
         inkscape:transform-center-x="-2.4406777"
         inkscape:transform-center-y="-79.822033" />
      <rect
         style="fill:url(#radialGradient3137);fill-opacity:1;fill-rule:nonzero;stroke:url(#linearGradient3139);stroke-width:6.04567862;stroke-miterlimit:4;stroke-opacity:1;stroke-dasharray:none;display:inline"
         id="rect9754"
         y="23.632143"
         x="23.563358"
         ry="6.0340486"
         rx="6.0573306"
         height="84.476677"
         width="84.802628" />
    </g>
    <rect
       style="opacity:0.7;fill:url(#radialGradient3146);fill-opacity:1;fill-rule:nonzero;stroke:none;display:inline"
       id="rect4329"
       y="11.160822"
       x="11.650047"
       ry="3.414223"
       rx="2.7537093"
       height="72.838409"
       width="72.783859" />
    <g
       id="g3067"
       style="display:inline">
      <path
         inkscape:connector-curvature="0"
         style="opacity:0.1;fill:#000000;fill-opacity:1;stroke:none"
         id="path3738"
         d="M 48,23 C 33.668344,23 22,34.668344 22,49 22,63.331656 33.668344,75 48,75 62.331656,75 74,63.331656 74,49 74,34.668344 62.331656,23 48,23 z m 0.5,24.6875 c 0.0028,0.0032 0.09076,0.09078 0.09375,0.09375 0.003,0.003 0.09057,0.05973 0.09375,0.0625 0.0032,0.0028 0.0904,0.09119 0.09375,0.09375 0.0033,0.0026 0.121495,0.06016 0.125,0.0625 0.0035,0.0023 0.0901,0.09164 0.09375,0.09375 0.0036,0.0021 0.121223,0.06063 0.125,0.0625 0.0038,0.0019 0.121111,0.02963 0.125,0.03125 0.0039,0.0016 0.08976,0.06114 0.09375,0.0625 0.004,0.0014 0.120935,0.03014 0.125,0.03125 0.0041,0.0011 0.120873,0.03041 0.125,0.03125 0.0022,4.45e-4 0.03023,0.02575 0.0625,0.03125 -0.0037,0.01011 3.13e-4,0.03031 0,0.03125 -0.0013,0.004 -0.06143,0.12093 -0.0625,0.125 -0.0011,0.0041 -0.03044,0.12087 -0.03125,0.125 -8.08e-4,0.0041 5.4e-4,0.120826 0,0.125 -5.4e-4,0.0042 -0.03098,0.1208 -0.03125,0.125 -2.71e-4,0.0042 0,0.120792 0,0.125 0,0.0042 -2.71e-4,0.1208 0,0.125 2.71e-4,0.0042 0.03071,0.120826 0.03125,0.125 5.4e-4,0.0042 -8.08e-4,0.12087 0,0.125 8.08e-4,0.0041 0.03018,0.12093 0.03125,0.125 0.0011,0.0041 0.06117,0.121008 0.0625,0.125 3.13e-4,9.39e-4 -0.0037,0.02114 0,0.03125 -0.03227,0.0055 -0.06032,0.03081 -0.0625,0.03125 -0.0041,8.41e-4 -0.120935,0.03014 -0.125,0.03125 -0.0041,0.0011 -0.121015,0.02989 -0.125,0.03125 -0.004,0.0014 -0.08986,0.06088 -0.09375,0.0625 -0.0039,0.0016 -0.121223,0.02938 -0.125,0.03125 -0.0038,0.0019 -0.121351,0.06039 -0.125,0.0625 -0.0036,0.0021 -0.09025,0.09141 -0.09375,0.09375 -0.0035,0.0023 -0.121652,0.05994 -0.125,0.0625 -0.0033,0.0026 -0.09057,0.09098 -0.09375,0.09375 -0.0032,0.0028 -0.09076,0.05953 -0.09375,0.0625 -0.003,0.003 -0.09096,0.0906 -0.09375,0.09375 -0.0028,-0.0032 -0.09076,-0.09078 -0.09375,-0.09375 -0.003,-0.003 -0.09057,-0.05973 -0.09375,-0.0625 C 48.3093,50.15345 48.2221,50.06506 48.21875,50.0625 48.21545,50.0599 48.097255,50.00234 48.09375,50 48.09025,49.9977 48.00365,49.90836 48,49.90625 47.9964,49.90415 47.878777,49.84562 47.875,49.84375 47.8712,49.84185 47.753889,49.81412 47.75,49.8125 47.7461,49.8109 47.66024,49.75136 47.65625,49.75 c -0.004,-0.0014 -0.120935,-0.03014 -0.125,-0.03125 -0.0041,-0.0011 -0.120873,-0.03041 -0.125,-0.03125 -0.0022,-4.45e-4 -0.03023,-0.02575 -0.0625,-0.03125 0.0037,-0.01011 -3.13e-4,-0.03031 0,-0.03125 0.0013,-0.004 0.06143,-0.12093 0.0625,-0.125 0.0011,-0.0041 0.03044,-0.12087 0.03125,-0.125 8.08e-4,-0.0041 -5.4e-4,-0.120826 0,-0.125 5.4e-4,-0.0042 0.03098,-0.1208 0.03125,-0.125 2.71e-4,-0.0042 0,-0.120792 0,-0.125 0,-0.0042 2.71e-4,-0.1208 0,-0.125 -2.71e-4,-0.0042 -0.03071,-0.120826 -0.03125,-0.125 -5.4e-4,-0.0042 8.08e-4,-0.12087 0,-0.125 -8.08e-4,-0.0041 -0.03018,-0.12093 -0.03125,-0.125 -0.0011,-0.0041 -0.06117,-0.121008 -0.0625,-0.125 -3.13e-4,-9.39e-4 0.0037,-0.02114 0,-0.03125 0.03227,-0.0055 0.06032,-0.03081 0.0625,-0.03125 0.0041,-8.41e-4 0.120935,-0.03014 0.125,-0.03125 0.0041,-0.0011 0.121015,-0.02989 0.125,-0.03125 0.004,-0.0014 0.08986,-0.06088 0.09375,-0.0625 0.0039,-0.0016 0.121223,-0.02938 0.125,-0.03125 0.0038,-0.0019 0.121351,-0.06039 0.125,-0.0625 0.0036,-0.0021 0.09025,-0.09141 0.09375,-0.09375 0.0035,-0.0023 0.121652,-0.05994 0.125,-0.0625 0.0033,-0.0026 0.09057,-0.09098 0.09375,-0.09375 0.0032,-0.0028 0.09076,-0.05953 0.09375,-0.0625 0.003,-0.003 0.09096,-0.0906 0.09375,-0.09375 z" />
      <path
         inkscape:connector-curvature="0"
         style="opacity:0.15;fill:#000000;fill-opacity:1;stroke:none"
         id="path3734"
         d="M 48,23.90625 C 34.15432,23.90625 22.90625,35.15432 22.90625,49 22.90625,62.84568 34.15432,74.09375 48,74.09375 61.84568,74.09375 73.09375,62.84568 73.09375,49 73.09375,35.15432 61.84568,23.90625 48,23.90625 z m 0.09375,10.1875 0.8125,0 0,12.28125 a 1.0933784,1.0933784 0 0 0 1.625,0.9375 l 10.65625,-6.15625 0.4375,0.75 -10.65625,6.15625 a 1.0933784,1.0933784 0 0 0 0,1.875 l 10.65625,6.15625 -0.4375,0.75 -10.65625,-6.15625 a 1.0933784,1.0933784 0 0 0 -1.625,0.9375 l 0,12.28125 -0.8125,0 0,-12.28125 a 1.0933784,1.0933784 0 0 0 -1.625,-0.9375 l -10.65625,6.15625 -0.4375,-0.75 10.65625,-6.15625 a 1.0933784,1.0933784 0 0 0 0,-1.875 L 35.375,41.90625 l 0.4375,-0.75 10.65625,6.15625 a 1.0933784,1.0933784 0 0 0 1.625,-0.9375 l 0,-12.28125 z" />
      <path
         inkscape:connector-curvature="0"
         style="opacity:0.3;fill:#000000;fill-opacity:1;stroke:none"
         id="path3728"
         d="M 48,25 C 34.745166,25 24,35.745166 24,49 24,62.254834 34.745166,73 48,73 61.254834,73 72,62.254834 72,49 72,35.745166 61.254834,25 48,25 z m -1,8 3,0 0,13.375 11.59375,-6.6875 1.5,2.625 -11.5625,6.6875 11.5625,6.6875 -1.5,2.625 L 50,51.625 50,65 l -3,0 0,-13.375 -11.59375,6.6875 -1.5,-2.625 11.5625,-6.6875 -11.5625,-6.6875 1.5,-2.625 L 47,46.375 47,33 z" />
      <path
         inkscape:connector-curvature="0"
         style="fill:url(#linearGradient3062);fill-opacity:1;stroke:none"
         id="path2928"
         d="M 48,24 C 34.745166,24 24,34.745166 24,48 24,61.254834 34.745166,72 48,72 61.254834,72 72,61.254834 72,48 72,34.745166 61.254834,24 48,24 z m -1,8 3,0 0,13.375 11.59375,-6.6875 1.5,2.625 -11.5625,6.6875 11.5625,6.6875 -1.5,2.625 L 50,50.625 50,64 l -3,0 0,-13.375 -11.59375,6.6875 -1.5,-2.625 11.5625,-6.6875 -11.5625,-6.6875 1.5,-2.625 L 47,45.375 47,32 z" />
      <path
         inkscape:connector-curvature="0"
         style="opacity:0.75;fill:#ffffff;fill-opacity:1;stroke:none"
         id="path2937"
         d="m 48,24 c -13.254834,0 -24,10.745166 -24,24 0,0.165582 -0.0033,0.335217 0,0.5 C 24.263839,35.473936 34.910748,25 48,25 61.089252,25 71.736161,35.473936 72,48.5 72.003338,48.335217 72,48.165582 72,48 72,34.745166 61.254834,24 48,24 z m -13.65625,17.5625 -0.4375,0.75 10.6875,6.1875 0.875,-0.5 -11.125,-6.4375 z m 28.3125,0 -11.125,6.4375 0.875,0.5 10.6875,-6.1875 -0.4375,-0.75 z M 47,50.625 l -11.59375,6.6875 -1.0625,-1.875 -0.4375,0.25 1.5,2.625 L 47,51.625 l 0,-1 z m 3,0 0,1 11.59375,6.6875 1.5,-2.625 -0.4375,-0.25 -1.0625,1.875 L 50,50.625 z M 47,64 l 0,1 3,0 0,-1 -3,0 z" />
      <path
         inkscape:connector-curvature="0"
         style="opacity:0.15;fill:#000000;fill-opacity:1;stroke:none"
         id="path3718"
         d="m 47,31 0,1 3,0 0,-1 -3,0 z m -11.59375,6.6875 -1.5,2.625 0.4375,0.25 1.0625,-1.875 L 47,45.375 l 0,-1 -11.59375,-6.6875 z m 26.1875,0 L 50,44.375 l 0,1 11.59375,-6.6875 1.0625,1.875 0.4375,-0.25 -1.5,-2.625 z M 24,47.5 c -0.0033,0.164783 0,0.334418 0,0.5 0,13.254834 10.745166,24 24,24 13.254834,0 24,-10.745166 24,-24 0,-0.165582 0.0033,-0.335217 0,-0.5 C 71.736161,60.526064 61.089252,71 48,71 34.910748,71 24.263839,60.526064 24,47.5 z m 20.59375,0 -10.6875,6.1875 0.4375,0.75 11.125,-6.4375 -0.875,-0.5 z m 7.8125,0 -0.875,0.5 11.125,6.4375 0.4375,-0.75 L 52.40625,47.5 z" />
    </g>
  </g>
</svg>
