<svg xmlns="http://www.w3.org/2000/svg" viewBox="0 0 128 128" xmlns:xlink="http://www.w3.org/1999/xlink">
<defs>
<clipPath id="clipPath3613-6-6">
<path fill="#fff" d="m12,6h72a6,6 0 0,1 6,6v72a6,6 0 0,1 -6,6h-72a6,6 0 0,1 -6-6v-72a6,6 0 0,1 6-6"/>
</clipPath>
<clipPath id="clipPath3613-6-4">
<path fill="#fff" d="m12,6h72a6,6 0 0,1 6,6v72a6,6 0 0,1 -6,6h-72a6,6 0 0,1 -6-6v-72a6,6 0 0,1 6-6"/>
</clipPath>
<filter width="1.384" x="-.192" y="-.192" height="1.384" color-interpolation-filters="sRGB" id="filter3794-6-4">
<feGaussianBlur stdDeviation="5.28"/>
</filter>
<filter width="1.384" x="-.192" y="-.192" height="1.384" color-interpolation-filters="sRGB" id="filter3794-6-1">
<feGaussianBlur stdDeviation="5.28"/>
</filter>
<linearGradient xlink:href="#linearGradient3737-18" id="linearGradient3265" y1="20.221" y2="138.661" gradientUnits="userSpaceOnUse" x2="0"/>
<linearGradient gradientTransform="matrix(-1.43887 0 0 1.6608 133.02919 -6.86305)" xlink:href="#linearGradient3697" id="linearGradient3269" y1="11.109" x1="129.168" y2="66.668" gradientUnits="userSpaceOnUse" x2="6.905"/>
<linearGradient id="linearGradient3737-18">
<stop offset="0" stop-color="#fff"/>
<stop offset="1" stop-color="#fff" stop-opacity="0"/>
</linearGradient>
<linearGradient id="linearGradient3697">
<stop offset="0" stop-color="#fff"/>
<stop offset="1" stop-color="#fff" stop-opacity="0"/>
</linearGradient>
<linearGradient gradientTransform="matrix(1.34442 0 0 1.34439 -.75962 -.49692)" xlink:href="#linearGradient9829" id="linearGradient3072" y1="101.698" x1="19.199" y2="-135.945" gradientUnits="userSpaceOnUse" x2="20.405"/>
<linearGradient id="linearGradient9829">
<stop offset="0" stop-color="#a54000"/>
<stop offset="1" stop-color="#ea9410"/>
</linearGradient>
<linearGradient xlink:href="#linearGradient3737-1" id="linearGradient3112" y1="20.221" y2="138.661" gradientUnits="userSpaceOnUse" x2="0"/>
<linearGradient id="linearGradient3737-1">
<stop offset="0" stop-color="#fff"/>
<stop offset="1" stop-color="#fff" stop-opacity="0"/>
</linearGradient>
<radialGradient cx="19.142" cy="19.001" gradientTransform="matrix(2.57361 .01685 -.01635 2.49578 13.76651 13.05265)" id="radialGradient3070" r="45" gradientUnits="userSpaceOnUse">
<stop offset="0" stop-color="#ffae20"/>
<stop offset="1" stop-color="#a53500"/>
</radialGradient>
</defs>
<g transform="translate(.00027)">
<path opacity=".763" fill="#090909" d="m16.4671-120.748h96.7979a8.0665,8.0663 0 0,1 8.067,8.066v96.7957a8.0665,8.0663 0 0,1 -8.067,8.0663h-96.7979a8.0665,8.0663 0 0,1 -8.0665-8.0663v-96.7957a8.0665,8.0663 0 0,1 8.0664-8.066" transform="scale(1 -1)"/>
<path fill="url(#radialGradient3070)" stroke="url(#linearGradient3072)" stroke-width="8.066" d="m15.9203,7.5694h96.7977a8.0665,8.0663 0 0,1 8.067,8.0663v96.7953a8.0665,8.0663 0 0,1 -8.067,8.067h-96.7977a8.0665,8.0663 0 0,1 -8.0665-8.067v-96.7953a8.0665,8.0663 0 0,1 8.0665-8.0663"/>
<path opacity=".1" fill="url(#linearGradient3112)" filter="url(#filter3794-6-4)" stroke="#fff" stroke-linecap="round" stroke-width=".5" d="m27,15h42a12,12 0 0,1 12,12v42a12,12 0 0,1 -12,12h-42a12,12 0 0,1 -12-12v-42a12,12 0 0,1 12-12" clip-path="url(#clipPath3613-6-4)" transform="matrix(1.34442 0 0 1.35764 -.26498 -1.59588)"/>
</g>
<g transform="matrix(1.56449 0 0 1.62037 -9.67524 -16.54449)">
<path opacity=".08" d="m47,23.0938c-4.9031,0-8.9062,4.0031-8.9062,8.9062 0,4.9031 4.0031,8.9062 8.9062,8.9062 4.9031,0 8.9062-4.0031 8.9062-8.9062 0-4.9032-4.0031-8.9062-8.9062-8.9062zm-11.375,18c-.0005,.0001-.1557,.0624-.1562,.0625-.0005,.0002-.1557,.0311-.1562,.0312-.0005,.0002-.1558,.0623-.1562,.0625-.0005,.0002-.1558,.0935-.1562,.0938-.0005,.0003-.1246,.0934-.125,.0938-.0004,.0003-.1246,.0934-.125,.0938-.0004,.0004-.1246,.1246-.125,.125-.0004,.0004-.1247,.1246-.125,.125-.0003,.0004-.0934,.1245-.0938,.125-.0003,.0005-.0935,.1558-.0938,.1562-.0003,.0005-.0623,.1557-.0625,.1562-.0002,.0005-.0623,.1557-.0625,.1562-.0002,.0005-.0624,.1557-.0625,.1562-.0001,.0005-.0312,.1557-.0312,.1562-.0001,.0005 0,.1557 0,.1562-0,.0005 .0009,.1174 0,.1562-.0002,.0078-0,.0312 0,.0312v5.9688c-0,.0003-0,.0934 0,.0938 0,.0003-0,.0934 0,.0938 0,.0003-0,.0934 0,.0938 0,.0003 .0312,.0934 .0312,.0938 .0001,.0003-.0001,.0934 0,.0938 .0001,.0003 .0312,.0934 .0312,.0938 .0001,.0003 .0311,.0935 .0312,.0938 .0001,.0003 .0311,.0622 .0312,.0625 .0001,.0003 .0624,.0935 .0625,.0938 .0001,.0003 .0311,.0935 .0312,.0938 .0001,.0003 .0311,.0935 .0312,.0938 .0002,.0003 .0623,.0622 .0625,.0625 .0002,.0003 .0623,.0935 .0625,.0938 .0002,.0002 .0623,.0623 .0625,.0625 .0002,.0002 .0623,.0623 .0625,.0625 .0002,.0002 .0623,.0623 .0625,.0625 .0002,.0002 .0623,.0623 .0625,.0625 .0002,.0002 .0623,.0623 .0625,.0625 .0002,.0002 .0622,.0623 .0625,.0625 .0002,.0002 .0935,.0623 .0938,.0625 .0003,.0002 .0622,.0623 .0625,.0625 .0003,.0002 .0935,.0311 .0938,.0312 .0003,.0001 .0935,.0311 .0938,.0312 .0003,.0001 .0935,.0624 .0938,.0625 .0003,.0001 .0622,.0311 .0625,.0312 .0003,.0001 .0934,.0312 .0938,.0312 .0003,.0001 .0934,.0312 .0938,.0312 .0003,.0001 .0934-.0001 .0938,0 .0003,.0001 .0934,.0312 .0938,.0312 .0003,0 .0934-0 .0938,0 .0003,0 .0934-0 .0938,0 .0003,0 .0934,0 .0938,0h4.0938v14.1875h-4.0938c-.0003-0-.0934-0-.0938,0-.0003,0-.0934-0-.0938,0-.0003,0-.0934-0-.0938,0-.0003,0-.0934,.0312-.0938,.0312-.0003,.0001-.0934-.0001-.0938,0-.0003,.0001-.0934,.0312-.0938,.0312-.0003,.0001-.0935,.0311-.0938,.0312-.0003,.0001-.0622,.0311-.0625,.0312-.0003,.0001-.0935,.0624-.0938,.0625-.0003,.0001-.0935,.0311-.0938,.0312-.0003,.0001-.0935,.0311-.0938,.0312-.0003,.0002-.0622,.0623-.0625,.0625-.0003,.0002-.0935,.0623-.0938,.0625-.0002,.0002-.0623,.0623-.0625,.0625-.0002,.0002-.0623,.0623-.0625,.0625-.0002,.0002-.0623,.0623-.0625,.0625-.0002,.0002-.0623,.0623-.0625,.0625-.0002,.0002-.0623,.0623-.0625,.0625-.0002,.0002-.0623,.0623-.0625,.0625-.0002,.0002-.0623,.0935-.0625,.0938-.0002,.0003-.0623,.0622-.0625,.0625-.0002,.0003-.0311,.0935-.0312,.0938-.0001,.0003-.0311,.0935-.0312,.0938-.0001,.0003-.0624,.0935-.0625,.0938-.0001,.0003-.0311,.0622-.0312,.0625-.0001,.0003-.0312,.0935-.0312,.0938-.0001,.0003-.0312,.0935-.0312,.0938-.0001,.0003 .0001,.0935 0,.0938-.0001,.0003-.0312,.0934-.0312,.0938-0,.0003 0,.0934 0,.0938-0,.0003 0,.0934 0,.0938-0,.0003-0,.0934 0,.0938v6c-0,.0003-0,.0934 0,.0938 0,.0003-0,.0934 0,.0938 0,.0003-0,.0934 0,.0938 0,.0003 .0312,.0935 .0312,.0938 .0001,.0003-.0001,.0935 0,.0938 .0001,.0003 .0312,.0935 .0312,.0938 .0001,.0003 .0311,.0935 .0312,.0938 .0001,.0003 .0311,.0622 .0312,.0625 .0001,.0003 .0624,.0935 .0625,.0938 .0001,.0003 .0311,.0935 .0312,.0938 .0001,.0003 .0311,.0935 .0312,.0938 .0002,.0003 .0623,.0622 .0625,.0625 .0002,.0003 .0623,.0935 .0625,.0938 .0002,.0002 .0623,.0623 .0625,.0625 .0002,.0002 .0623,.0623 .0625,.0625 .0002,.0002 .0623,.0623 .0625,.0625 .0002,.0002 .0623,.0623 .0625,.0625 .0002,.0002 .0623,.0623 .0625,.0625 .0002,.0002 .0622,.0623 .0625,.0625 .0002,.0002 .0935,.0623 .0938,.0625 .0003,.0002 .0622,.0623 .0625,.0625 .0003,.0002 .0935,.0311 .0938,.0312 .0003,.0001 .0935,.0311 .0938,.0312 .0003,.0001 .0935,.0624 .0938,.0625 .0003,.0001 .0622,.0311 .0625,.0312 .0003,.0001 .0934,.0312 .0938,.0312 .0003,.0001 .0934,.0312 .0938,.0312 .0003,.0001 .0934-.0001 .0938,0 .0003,.0001 .0934,.0312 .0938,.0312 .0003,0 .0934-0 .0938,0 .0003,0 .0934-0 .0938,0 .0003,0 .0934,0 .0938,0h24c.0003,0 .0934,0 .0938,0 .0003-0 .0934,0 .0938,0 .0003-0 .0934,0 .0938,0 .0003-0 .0934-.0312 .0938-.0312 .0003-.0001 .0934,.0001 .0938,0 .0003-.0001 .0934-.0312 .0938-.0312 .0003-.0001 .0935-.0311 .0938-.0312 .0003-.0001 .0622-.0311 .0625-.0312 .0003-.0001 .0935-.0624 .0938-.0625 .0003-.0001 .0935-.0311 .0938-.0312 .0003-.0001 .0935-.0311 .0938-.0312 .0003-.0002 .0622-.0623 .0625-.0625 .0003-.0002 .0935-.0623 .0938-.0625 .0002-.0002 .0623-.0623 .0625-.0625 .0002-.0002 .0623-.0623 .0625-.0625 .0002-.0002 .0623-.0623 .0625-.0625 .0002-.0002 .0623-.0623 .0625-.0625 .0002-.0002 .0623-.0623 .0625-.0625 .0002-.0002 .0623-.0623 .0625-.0625 .0002-.0002 .0623-.0935 .0625-.0938 .0002-.0003 .0623-.0622 .0625-.0625 .0002-.0003 .0311-.0935 .0312-.0938 .0001-.0003 .0311-.0935 .0312-.0938 .0001-.0003 .0624-.0935 .0625-.0938 .0001-.0003 .0311-.0622 .0312-.0625 .0001-.0003 .0312-.0935 .0312-.0938 .0001-.0003 .0312-.0935 .0312-.0938 .0001-.0003-.0001-.0935 0-.0938 .0001-.0003 .0312-.0934 .0312-.0938 0-.0003-0-.0934 0-.0938 0-.0003-0-.0934 0-.0938 0-.0003 0-.0934 0-.0938v-6c0-.0003 0-.0934 0-.0938-0-.0003 0-.0934 0-.0938-0-.0003 0-.0934 0-.0938-0-.0003-.0312-.0935-.0312-.0938-.0001-.0003 .0001-.0935 0-.0938-.0001-.0003-.0312-.0935-.0312-.0938-.0001-.0003-.0311-.0935-.0312-.0938-.0001-.0003-.0311-.0622-.0312-.0625-.0001-.0003-.0624-.0935-.0625-.0938-.0001-.0003-.0311-.0935-.0312-.0938-.0001-.0003-.0311-.0935-.0312-.0938-.0002-.0003-.0623-.0622-.0625-.0625-.0002-.0003-.0623-.0935-.0625-.0938-.0002-.0002-.0623-.0623-.0625-.0625-.0002-.0002-.0623-.0623-.0625-.0625-.0002-.0002-.0623-.0623-.0625-.0625-.0002-.0002-.0623-.0623-.0625-.0625-.0002-.0002-.0623-.0623-.0625-.0625-.0002-.0002-.0622-.0623-.0625-.0625-.0002-.0002-.0935-.0623-.0938-.0625-.0003-.0002-.0622-.0623-.0625-.0625-.0003-.0002-.0935-.0311-.0938-.0312-.0003-.0001-.0935-.0311-.0938-.0312-.0003-.0001-.0935-.0624-.0938-.0625-.0003-.0001-.0622-.0311-.0625-.0312-.0003-.0001-.0934-.0312-.0938-.0312-.0003-.0001-.0934-.0312-.0938-.0312-.0003-.0001-.0934,.0001-.0938,0-.0003-.0001-.0934-.0312-.0938-.0312-.0003-0-.0934,0-.0938,0-.0003-0-.0934,0-.0938,0-.0003-0-.0934-0-.0938,0h-4.0938v-22.0938c0-.0003 0-.0934 0-.0938-0-.0003 0-.0934 0-.0938-0-.0003 0-.0934 0-.0938-0-.0003-.0312-.0934-.0312-.0938-.0001-.0003 .0001-.0934 0-.0938-.0001-.0003-.0312-.0934-.0312-.0938-.0001-.0003-.0311-.0935-.0312-.0938-.0001-.0003-.0311-.0622-.0312-.0625-.0001-.0003-.0624-.0935-.0625-.0938-.0001-.0003-.0311-.0935-.0312-.0938-.0001-.0003-.0311-.0935-.0312-.0938-.0002-.0003-.0623-.0622-.0625-.0625-.0002-.0003-.0623-.0935-.0625-.0938-.0002-.0002-.0623-.0623-.0625-.0625-.0002-.0002-.0623-.0623-.0625-.0625-.0002-.0002-.0623-.0623-.0625-.0625-.0002-.0002-.0623-.0623-.0625-.0625-.0002-.0002-.0623-.0623-.0625-.0625-.0002-.0002-.0622-.0623-.0625-.0625-.0002-.0002-.0935-.0623-.0938-.0625-.0003-.0002-.0622-.0623-.0625-.0625-.0003-.0002-.0935-.0311-.0938-.0312-.0003-.0001-.0935-.0311-.0938-.0312-.0003-.0001-.0935-.0624-.0938-.0625-.0003-.0001-.0622-.0311-.0625-.0312-.0003-.0001-.0934-.0312-.0938-.0312-.0003-.0001-.0934-.0312-.0938-.0312-.0003-.0001-.0934,.0001-.0938,0-.0003-.0001-.0934-.0312-.0938-.0312-.0003-0-.0934,0-.0938,0-.0003-0-.0934,0-.0938,0-.0003-0-.0934-0-.0938,0h-17.9688c-.0001-0-.0194,0-.0312,0-.0238-0-.027-0-.0625,0-.0002-0-.027,0-.0625,0-.0533-0-.0934-0-.0938,0a.9471,.9471 0 0,0 -.1562,0z"/>
<path opacity=".15" d="m47,24.0312c-4.3879,0-7.9688,3.5808-7.9688,7.9688 0,4.3879 3.5808,7.9688 7.9688,7.9688 4.3879,0 7.9688-3.5808 7.9688-7.9688 0-4.3879-3.5808-7.9688-7.9688-7.9688zm-11.0938,18a.9659,.9659 0 0,0 -.875,.9688v6a.9659,.9659 0 0,0 .9688,.9688h5.0312v16.0625h-5.0312a.9659,.9659 0 0,0 -.9688,.9688v6a.9659,.9659 0 0,0 .9688,.9688h24a.9659,.9659 0 0,0 .9688-.9688v-6a.9659,.9659 0 0,0 -.9688-.9688h-5.0312v-23.0312a.9659,.9659 0 0,0 -.9688-.9688h-18a.9659,.9659 0 0,0 -.0938,0z"/>
<path opacity=".4" d="m47,25c-3.866,0-7,3.134-7,7 0,3.866 3.134,7 7,7 3.866,0 7-3.134 7-7 0-3.866-3.134-7-7-7zm-11,18 0,6 6,0 0,18-6,0 0,6 24,0 0-6-6,0 0-24-18,0z"/>
<path fill="#fff" d="m47,24c-3.866,0-7,3.134-7,7 0,3.866 3.134,7 7,7 3.866,0 7-3.134 7-7 0-3.866-3.134-7-7-7zm-11,18 0,6 6,0 0,18-6,0 0,6 24,0 0-6-6,0 0-24-18,0z"/>
</g>
<g transform="translate(.00027)">
<path opacity=".1" fill="url(#linearGradient3265)" filter="url(#filter3794-6-1)" stroke="#fff" stroke-linecap="round" stroke-width=".5" d="m27,15h42a12,12 0 0,1 12,12v42a12,12 0 0,1 -12,12h-42a12,12 0 0,1 -12-12v-42a12,12 0 0,1 12-12" clip-path="url(#clipPath3613-6-6)" transform="matrix(1.3254 0 0 1.34291 .6627 -.42682)"/>
<path opacity=".3" fill="url(#linearGradient3269)" d="m113.5853,3.2823c4.7828-.004 11.115,4.8956 11.0947,10.4161l-.284,77.2182c-25.3365-19.1358-63.6395-31.3476-106.4765-31.3476-4.8605,0-9.6578,.1609-14.3887,.4671v-46.1572c0-5.5205 6.1226-10.502 10.9054-10.5064z"/>
</g>
</svg>
