<svg xmlns="http://www.w3.org/2000/svg" viewBox="0 0 128 128" xmlns:xlink="http://www.w3.org/1999/xlink">
<defs>
<clipPath id="clipPath4458">
<use width="1" height="1" xlink:href="#XMLID_10_"/>
</clipPath>
<filter width="1.584" x="-.292" y="-.057" height="1.115" color-interpolation-filters="sRGB" id="filter4446">
<feGaussianBlur stdDeviation="2.40872" collect="always"/>
</filter>
<filter color-interpolation-filters="sRGB" id="AI_Sfocatura_4">
<feGaussianBlur stdDeviation="4"/>
</filter>
<filter width="1.584" x="-.292" y="-.057" height="1.115" color-interpolation-filters="sRGB" id="filter4442">
<feGaussianBlur stdDeviation="2.40872" collect="always"/>
</filter>
<filter color-interpolation-filters="sRGB" id="filter2904">
<feGaussianBlur stdDeviation="2.32" collect="always"/>
</filter>
<linearGradient gradientTransform="matrix(.84803 0 0 .82455 23.48264 11.09887)" xlink:href="#linearGradient4081-61" id="linearGradient3155" y1="147.076" x1="50.884" y2="27.436" gradientUnits="userSpaceOnUse" x2="51.489"/>
<linearGradient gradientTransform="matrix(-1 0 0 1 676.1953 0)" xlink:href="#linearGradient4081-61" id="linearGradient3150" y1="167.938" x1="589.572" y2="14.239" gradientUnits="userSpaceOnUse" x2="591.043"/>
<linearGradient gradientTransform="matrix(.84803 0 0 .82455 23.48264 11.09887)" xlink:href="#linearGradient4081-61" id="linearGradient3152" y1="114.497" x1="57.884" y2="20.664" gradientUnits="userSpaceOnUse" x2="43.884"/>
<linearGradient gradientTransform="matrix(.77646 0 0 .68637 -3.73477 19.54891)" xlink:href="#linearGradient4081-61" id="linearGradient3148" y1="127.139" x1="109.888" y2="3.37" gradientUnits="userSpaceOnUse" x2="108.352"/>
<linearGradient id="linearGradient4081-61">
<stop offset="0" stop-color="#fff"/>
<stop offset="1" stop-color="#fff"/>
</linearGradient>
<linearGradient gradientTransform="translate(.28508 -1.04121)" xlink:href="#XMLID_25_" id="linearGradient3146" y1="-2.194" y2="78.851" gradientUnits="userSpaceOnUse" x2="0"/>
<linearGradient id="XMLID_23_" y1="72.4" y2="120.4" x2="0" gradientUnits="userSpaceOnUse">
<stop offset="0" stop-color="#00316e" stop-opacity="0"/>
<stop offset="1" stop-color="#00316e"/>
</linearGradient>
<linearGradient xlink:href="#XMLID_23_" id="linearGradient3141" y1="72.341" x1="108.005" y2="102.094" gradientUnits="userSpaceOnUse" x2="115.977"/>
<linearGradient gradientTransform="matrix(-1 -0 0 -1 133.6007 128.4)" xlink:href="#XMLID_18_" id="linearGradient3135" x1="9.6" gradientUnits="userSpaceOnUse" x2="129.6"/>
<linearGradient gradientTransform="matrix(-1 -0 0 -1 1186.5436 -193.37143)" id="XMLID_18_" x1="9.6" x2="129.6" gradientUnits="userSpaceOnUse">
<stop offset="0" stop-color="#003685"/>
<stop offset=".011" stop-color="#083c8f"/>
<stop offset=".053" stop-color="#2451b1"/>
<stop offset=".099" stop-color="#3b63cd"/>
<stop offset=".148" stop-color="#4d71e3"/>
<stop offset=".201" stop-color="#597bf3"/>
<stop offset=".262" stop-color="#6180fc"/>
<stop offset=".349" stop-color="#6382ff"/>
<stop offset=".586" stop-color="#6382ff"/>
<stop offset="1" stop-color="#003685"/>
</linearGradient>
<path id="XMLID_10_" d="m69.626,12.145-.052,0c-22.727-.292-46.472,4.077-46.709,4.122-2.424,.451-4.946,2.974-5.397,5.397-.044,.237-4.414,23.983-4.122,46.71-.292,22.777 4.078,46.523 4.122,46.761 .451,2.423 2.974,4.945 5.398,5.398 .237,.044 23.982,4.413 46.709,4.121 22.779,.292 46.524-4.077 46.761-4.121 2.423-.452 4.946-2.976 5.398-5.399 .044-.236 4.413-23.981 4.121-46.709 .292-22.777-4.077-46.523-4.121-46.761-.453-2.423-2.976-4.946-5.398-5.397-.238-.045-23.984-4.414-46.71-4.122z"/>
<radialGradient cx="69.6" cy="145.4" gradientTransform="translate(1047.3429 -330.17143)" r="141" id="XMLID_21_" gradientUnits="userSpaceOnUse">
<stop offset=".337" stop-color="#2c72c7" stop-opacity="0"/>
<stop offset=".58" stop-color="#2c72c7"/>
<stop offset="1" stop-color="#2c72c7" stop-opacity="0"/>
</radialGradient>
<radialGradient cx="69.6" cy="145.4" gradientTransform="translate(-5.6 -8.4)" xlink:href="#XMLID_21_" id="radialGradient3139" r="141" gradientUnits="userSpaceOnUse"/>
<radialGradient cx="66.137" cy=".754" gradientTransform="matrix(.9459 0 0 1 1051.1319 -330.17143)" r="81.971" id="XMLID_25_" gradientUnits="userSpaceOnUse">
<stop offset=".13" stop-color="#fff"/>
<stop offset=".5" stop-color="#fff" stop-opacity=".169"/>
</radialGradient>
<radialGradient cx="69.6" cy="68.4" gradientTransform="translate(1047.3429 -330.17143)" r="85" id="XMLID_20_" gradientUnits="userSpaceOnUse">
<stop offset=".5" stop-color="#6193ff"/>
<stop offset=".781" stop-color="#003685"/>
<stop offset="1" stop-color="#709dff"/>
</radialGradient>
<radialGradient cx="69.6" cy="68.4" gradientTransform="matrix(.98246 0 0 .98246 -4.37895 -7.2)" xlink:href="#XMLID_20_" id="radialGradient3137" r="85" gradientUnits="userSpaceOnUse"/>
</defs>
<g transform="translate(0 .49999)">
<g opacity=".8" filter="url(#filter2904)" transform="matrix(1.05172 0 0 1.01724 -7.51724 -7.03792)">
<path d="m126,113.8c0,8.8-7.2,16-16,16h-84c-8.8,0-16-7.2-16-16v-84c0-8.8 7.2-16 16-16h84c8.8,0 16,7.2 16,16v84z"/>
</g>
<path fill="url(#linearGradient3135)" d="m4,16c0-8.8 7.2-16 16-16h88c8.8,0 16,7.2 16,16v88c0,8.8-7.2,16-16,16h-88c-8.8,0-16-7.2-16-16v-88z"/>
<path fill="url(#radialGradient3137)" d="m20.7719,4c-7.0422,0-12.7719,5.7297-12.7719,12.7719v86.4561c0,7.0422 5.7297,12.7719 12.7719,12.7719h86.4561c7.0422,0 12.7719-5.7297 12.7719-12.7719v-86.4561c0-7.0422-5.7297-12.7719-12.7719-12.7719h-86.4561z"/>
<path fill="url(#radialGradient3139)" filter="url(#AI_Sfocatura_4)" d="m64.026,3.014-.053,0c-23.021-.296-47.076,4.131-47.316,4.176-2.455,.458-5.01,3.012-5.467,5.467-.045,.241-4.472,24.295-4.176,47.316-.296,23.074 4.131,47.129 4.176,47.369 .457,2.454 3.013,5.01 5.468,5.469 .24,.044 24.294,4.47 47.316,4.174 23.075,.296 47.129-4.13 47.369-4.174 2.454-.458 5.011-3.015 5.469-5.47 .044-.239 4.47-24.293 4.174-47.315 .296-23.074-4.13-47.128-4.174-47.369-.459-2.455-3.015-5.01-5.469-5.467-.24-.045-24.295-4.472-47.317-4.176z"/>
<g opacity=".6" transform="translate(-5.59999 -8.4)">
<g clip-path="url(#clipPath4458)">
<path opacity=".8" fill="url(#linearGradient3141)" filter="url(#filter4442)" d="m119.344,21.665c-.377-1.278-1.675-2.576-3.367-3.591-1.693,1.015-2.989,2.312-3.365,3.591-.07,.237-6.965,23.983-6.504,46.71-.461,22.777 6.434,46.523 6.504,46.761 .376,1.278 1.674,2.576 3.365,3.591 1.694-1.016 2.991-2.312 3.367-3.592 .069-.236 6.963-23.981 6.503-46.709 .46-22.778-6.433-46.524-6.503-46.761z"/>
<path opacity=".8" fill="url(#linearGradient3141)" filter="url(#filter4446)" d="m119.344,21.665c-.377-1.278-1.675-2.576-3.367-3.591-1.693,1.015-2.989,2.312-3.365,3.591-.07,.237-6.965,23.983-6.504,46.71-.461,22.777 6.434,46.523 6.504,46.761 .376,1.278 1.674,2.576 3.365,3.591 1.694-1.016 2.991-2.312 3.367-3.592 .069-.236 6.963-23.981 6.503-46.709 .46-22.778-6.433-46.524-6.503-46.761z" transform="matrix(-1 0 0 1 139.2 0)"/>
</g>
</g>
<path opacity=".7" fill="url(#linearGradient3146)" d="m118.2851,42.3726c-1.1962-13.4824-3.0734-22.7988-3.1032-22.9549-.4464-2.4093-2.7417-5.7626-6.3494-6.3467-.2345-.0442-22.609-4.3888-45.0093-4.0983h-.0514c-22.3992-.2905-44.7747,4.0541-45.0093,4.0983-2.3883,.4495-5.3606,2.4458-6.3473,6.3467-.0216,.1168-1.0923,5.0051-2.1302,13.6434 0,5.7853-.8012,11.6254 0,17.355 .5424,3.8788 2.8924,6.8546 5.8102,9.7199 2.8221,3.0398 7.6042,11.8639 46.9789,11.8639 39.3758,0 46.931-8.3265 49.6388-12.4358 4.1228-4.5696 5.5721-13.3563 5.5721-16.9649 0-.8426 0-.1511 0-.2267z"/>
</g>
<g transform="translate(-.33068 -1.39728)">
<path opacity=".2" d="m77.5697,49.1144c-.2912,.1057-.4814,.3569-.4814,.6349 0,0 0,6.3963 0,7.5501-1.49,0-27.9525,0-27.9525,0-.4294,0-.7765,.3075-.7765,.6864v11.5997c0,.3796 .3471,.6864 .7765,.6864 0,0 26.4625,0 27.9525,0 0,1.1538 0,7.5501 0,7.5501 0,.2732 .184,.5216 .469,.6301 .285,.1085 .6142,.0576 .8401-.1297l16.2404-13.5222c.1514-.1277 .2407-.3027 .2438-.488 .004-.1846-.0769-.3624-.2236-.4942l-16.2404-14.5504c-.2213-.1984-.5559-.2588-.8479-.1531z"/>
<path opacity=".2" d="m77.2755,48.4789c-.5855,.2121-.9636,.7111-.9636,1.2705 0,0 0,5.7292 0,6.8637-1.476,0-27.176,0-27.176,0-.8564,0-1.5529,.6157-1.5529,1.3727v11.5997c0,.7578 .6965,1.3728 1.5529,1.3728 0,0 25.7,0 27.176,0 0,1.1339 0,6.8637 0,6.8637 0,.5484 .368,1.0433 .9372,1.2602 .5676,.2169 1.2268,.1153 1.6787-.2595 .002-.0005 16.242-13.5236 16.242-13.5236 .3036-.2533 .4806-.6081 .4884-.9746 .008-.3672-.1553-.7283-.4472-.9891l-16.2404-14.5497c-.4449-.3981-1.1096-.5182-1.695-.3068z"/>
<path fill="url(#linearGradient3148)" d="m77.5697,48.4281c-.2912,.1057-.4814,.3569-.4814,.6349 0,0 0,6.3963 0,7.5501-1.49,0-27.9525,0-27.9525,0-.4294,0-.7765,.3075-.7765,.6864v11.5997c0,.3796 .3471,.6864 .7765,.6864 0,0 26.4625,0 27.9525,0 0,1.1538 0,7.5501 0,7.5501 0,.2732 .184,.5216 .469,.6301 .285,.1084 .6142,.0576 .8401-.1297l16.2404-13.5229c.1514-.127 .2407-.302 .2438-.4873 .004-.1846-.0769-.3631-.2236-.4949l-16.2404-14.5504c-.2213-.1977-.5559-.2581-.8479-.1524z"/>
<path fill="url(#linearGradient3150)" d="m105.092,55 0-12 20.916,21.199-20.916,19.701 0-12-37,0 0-16.9z" transform="matrix(.77646 0 0 .68637 -3.72741 19.46268)"/>
<path fill="url(#linearGradient3152)" d="m24.3307,63.0453c0,22.7328 19.0214,41.2274 42.4016,41.2274 16.6944,0 31.8869-9.6093 38.7051-24.4825 .1179-.2556 .0933-.55-.0627-.785-.1569-.2333-.424-.3752-.7115-.3752h-15.6547c-.2654,0-.5148,.1204-.675,.3257-5.1255,6.5584-13.2013,10.475-21.6011,10.475-14.9635,0-27.1371-11.8364-27.1371-26.3855 0-14.5491 12.1735-26.3855 27.1371-26.3855 8.7644,0 17.0429,4.1854 22.1439,11.1957 .1594,.2185 .4172,.3479 .6928,.3479h15.4215c.2841,0 .5495-.1385 .7073-.3694 .1569-.23 .1849-.5219 .0738-.7767-6.5714-15.0966-22.26-25.2394-39.0392-25.2394-23.3803,0-42.4016,18.4946-42.4016,41.2274z"/>
<path opacity=".2" d="m24.3307,63.8699c0,22.7328 19.0214,41.2274 42.4016,41.2274 16.6944,0 31.8869-9.6093 38.7051-24.4825 .1179-.2556 .0933-.55-.0627-.785-.1569-.2333-.424-.3752-.7115-.3752h-15.6547c-.2654,0-.5148,.1204-.675,.3257-5.1255,6.5584-13.2013,10.475-21.6011,10.475-14.9635,0-27.1371-11.8364-27.1371-26.3855 0-14.5491 12.1735-26.3855 27.1371-26.3855 8.7644,0 17.0429,4.1854 22.1439,11.1957 .1594,.2185 .4172,.348 .6928,.348h15.4215c.2841,0 .5495-.1385 .7073-.3694 .1569-.23 .1849-.5219 .0738-.7767-6.5714-15.0966-22.26-25.2394-39.0392-25.2394-23.3803,0-42.4016,18.4946-42.4016,41.2274z"/>
<path fill="url(#linearGradient3155)" d="m25.1787,63.0453c0,22.2785 18.6406,40.4028 41.5536,40.4028 16.4985,0 31.2331-9.3858 37.9308-23.9943-2.1922,0-14.9568,0-15.6547,0-5.2841,6.7629-13.566,10.8016-22.2761,10.8016-15.4308,0-27.9851-12.2066-27.9851-27.2101 0-15.0035 12.5543-27.2101 27.9851-27.2101 9.0875,0 17.578,4.3173 22.8367,11.5437 .7259,0 13.2717,0 15.4215,0-6.4586-14.8369-21.6579-24.7364-38.2582-24.7364-22.913,0-41.5536,18.1244-41.5536,40.4028z"/>
</g>
</svg>
