<svg width="128" version="1.0" xmlns="http://www.w3.org/2000/svg" height="128" xmlns:xlink="http://www.w3.org/1999/xlink">
<defs id="defs3451">
<linearGradient xlink:href="#linearGradient4081-5" id="linearGradient3068" y1="72" x1="56" y2="24" gradientUnits="userSpaceOnUse" x2="56"/>
<linearGradient id="linearGradient4357-0">
<stop offset="0" style="stop-color:#0d0e09" id="stop4359-8"/>
<stop offset="1" style="stop-color:#abaeab;stop-opacity:0" id="stop4361-2"/>
</linearGradient>
<linearGradient id="linearGradient9647-3">
<stop offset="0" style="stop-color:#151414" id="stop9649-5"/>
<stop offset="1" style="stop-color:#5c5a5a" id="stop9651-7"/>
</linearGradient>
<linearGradient id="linearGradient4059-3">
<stop offset="0" style="stop-color:#4a4c37" id="stop4061-7"/>
<stop offset="0.31291944" style="stop-color:#2a2c1d" id="stop4063-7"/>
<stop offset="0.66048187" style="stop-color:#090908" id="stop4065-2"/>
<stop offset="1" style="stop-color:#1d240d" id="stop4067-8"/>
</linearGradient>
<linearGradient id="linearGradient4081-5">
<stop offset="0" style="stop-color:#aaa" id="stop4083-4"/>
<stop offset="1" style="stop-color:#f0f0f0" id="stop4085-13"/>
</linearGradient>
<linearGradient gradientTransform="matrix(1.0095551,0,0,1.0056748,17.095365,17.598094)" xlink:href="#linearGradient9647-3" id="linearGradient3139" y1="102.10169" x1="48.24577" y2="-21.966103" gradientUnits="userSpaceOnUse" x2="17.000467"/>
<radialGradient fx="119.33224" fy="123.7699" cx="119.33224" cy="123.7699" gradientTransform="matrix(1.0428035,-0.94238456,0.99227546,1.0980864,-149.07741,78.52216)" xlink:href="#linearGradient4357-0" id="radialGradient3146" r="42.606647" gradientUnits="userSpaceOnUse"/>
<radialGradient fx="128.6185" fy="-5.0455413" cx="128.6185" cy="-5.0455413" gradientTransform="matrix(4.0072397e-4,2.2081308,-2.7670616,4.5911225e-4,17.162722,-249.92558)" xlink:href="#linearGradient4059-3" id="radialGradient3137" r="45" gradientUnits="userSpaceOnUse"/>
</defs>
<g id="g3083" transform="matrix(1.4404768,0,0,1.4404773,-5.0308594,-4.4144321)">
<g id="g3544" transform="matrix(0.92450094,0,0,0.92806631,-12.984346,-13.476155)">
<rect width="84.802628" x="23.974026" y="-108.29631" rx="6.0573306" ry="6.0340486" height="84.476677" style="opacity:.763;fill:#090909;stroke:none" id="rect9752" transform="scale(1,-1)"/>
<rect width="84.802628" x="23.563358" y="23.632143" rx="6.0573306" ry="6.0340486" height="84.476677" style="fill:url(#radialGradient3137);stroke:url(#linearGradient3139);stroke-width:6.046" id="rect9754"/>
</g>
<rect width="72.783859" x="11.650047" y="11.160822" rx="2.7537093" ry="3.414223" height="72.838409" style="opacity:.7;fill:url(#radialGradient3146);stroke:none" id="rect4329"/>
<g style="stroke:none" id="g3073" transform="translate(2.5e-4,-2.5e-4)">
<path style="opacity:.1" id="path3747" d="M 48,23.09375 C 33.707076,23.09375 22.09375,34.707076 22.09375,49 22.09375,63.292924 33.707076,74.90625 48,74.90625 62.292924,74.90625 73.90625,63.292924 73.90625,49 73.90625,34.707076 62.292924,23.09375 48,23.09375 z m -9.875,19.71875 0,0.1875 c 7e-6,0.0015 -7.8e-5,0.0923 0,0.09375 7.8e-5,0.0015 -1.49e-4,0.0923 0,0.09375 1.49e-4,0.0014 -2.19e-4,0.09231 0,0.09375 2.19e-4,0.0014 0.03096,0.09232 0.03125,0.09375 2.89e-4,0.0014 0.03089,0.09234 0.03125,0.09375 3.59e-4,0.0014 -4.27e-4,0.09236 0,0.09375 4.27e-4,0.0014 0.03076,0.09238 0.03125,0.09375 4.94e-4,0.0014 0.03069,0.06115 0.03125,0.0625 5.61e-4,0.0013 0.06187,0.09243 0.0625,0.09375 6.26e-4,0.0013 0.03056,0.09247 0.03125,0.09375 6.89e-4,0.0013 0.06175,0.0925 0.0625,0.09375 7.51e-4,0.0012 0.03044,0.06129 0.03125,0.0625 8.11e-4,0.0012 0.06163,0.06133 0.0625,0.0625 8.69e-4,0.0012 0.06157,0.09262 0.0625,0.09375 9.25e-4,0.0011 0.06152,0.06142 0.0625,0.0625 9.79e-4,0.0011 0.06147,0.06147 0.0625,0.0625 10e-4,10e-4 0.06142,0.06152 0.0625,0.0625 0.0011,9.79e-4 0.06137,0.06157 0.0625,0.0625 0.0011,9.25e-4 0.09258,0.06163 0.09375,0.0625 0.0012,8.69e-4 0.06129,0.06169 0.0625,0.0625 0.0012,8.11e-4 0.06125,0.0305 0.0625,0.03125 0.0012,7.51e-4 0.09247,0.06181 0.09375,0.0625 0.0013,6.89e-4 0.09243,0.03062 0.09375,0.03125 0.0013,6.26e-4 0.0924,0.06194 0.09375,0.0625 0.0013,5.61e-4 0.06113,0.03076 0.0625,0.03125 0.0014,4.94e-4 0.09236,0.03082 0.09375,0.03125 0.0014,4.27e-4 0.09234,-3.59e-4 0.09375,0 0.0014,3.59e-4 0.09232,0.03096 0.09375,0.03125 0.0014,2.89e-4 0.09231,0.03103 0.09375,0.03125 0.0014,2.19e-4 0.0923,-1.49e-4 0.09375,0 0.0014,1.49e-4 0.0923,-7.8e-5 0.09375,0 0.0015,7.8e-5 0.09229,-7e-6 0.09375,0 l 10.0625,0 0,0.1875 -10.0625,0 c -0.0015,7e-6 -0.0923,-7.8e-5 -0.09375,0 -0.0015,7.8e-5 -0.0923,-1.49e-4 -0.09375,0 -0.0014,1.49e-4 -0.09231,-2.19e-4 -0.09375,0 -0.0014,2.19e-4 -0.09232,0.03096 -0.09375,0.03125 -0.0014,2.89e-4 -0.09234,0.03089 -0.09375,0.03125 -0.0014,3.59e-4 -0.09236,-4.27e-4 -0.09375,0 -0.0014,4.27e-4 -0.09238,0.03076 -0.09375,0.03125 -0.0014,4.94e-4 -0.06115,0.03069 -0.0625,0.03125 -0.0013,5.61e-4 -0.09243,0.06187 -0.09375,0.0625 -0.0013,6.26e-4 -0.09247,0.03056 -0.09375,0.03125 -0.0013,6.89e-4 -0.0925,0.06175 -0.09375,0.0625 -0.0012,7.51e-4 -0.06129,0.03044 -0.0625,0.03125 -0.0012,8.11e-4 -0.06133,0.06163 -0.0625,0.0625 -0.0012,8.69e-4 -0.09262,0.06157 -0.09375,0.0625 -0.0011,9.25e-4 -0.06142,0.06152 -0.0625,0.0625 -0.0011,9.79e-4 -0.06147,0.06147 -0.0625,0.0625 -10e-4,10e-4 -0.06152,0.06142 -0.0625,0.0625 -9.79e-4,0.0011 -0.06157,0.06137 -0.0625,0.0625 -9.25e-4,0.0011 -0.06163,0.09258 -0.0625,0.09375 -8.69e-4,0.0012 -0.06169,0.06129 -0.0625,0.0625 -8.11e-4,0.0012 -0.0305,0.06125 -0.03125,0.0625 -7.51e-4,0.0012 -0.06181,0.09247 -0.0625,0.09375 -6.89e-4,0.0013 -0.03062,0.09243 -0.03125,0.09375 -6.26e-4,0.0013 -0.06194,0.0924 -0.0625,0.09375 -5.61e-4,0.0013 -0.03076,0.06113 -0.03125,0.0625 -4.94e-4,0.0014 -0.03082,0.09236 -0.03125,0.09375 -4.27e-4,0.0014 3.59e-4,0.09234 0,0.09375 -3.59e-4,0.0014 -0.03096,0.09232 -0.03125,0.09375 -2.89e-4,0.0014 -0.03103,0.09231 -0.03125,0.09375 -2.19e-4,0.0014 1.49e-4,0.0923 0,0.09375 -1.49e-4,0.0014 7.8e-5,0.0923 0,0.09375 -7.8e-5,0.0015 7e-6,0.09229 0,0.09375 l 0,0.1875 -2.90625,-2.21875 2.90625,-2.15625 z m 19.75,8 2.90625,2.21875 -2.90625,2.15625 0,-0.1875 c -7e-6,-0.0015 7.8e-5,-0.0923 0,-0.09375 -7.8e-5,-0.0015 1.49e-4,-0.0923 0,-0.09375 -1.49e-4,-0.0014 2.19e-4,-0.09231 0,-0.09375 -2.19e-4,-0.0014 -0.03096,-0.09232 -0.03125,-0.09375 -2.89e-4,-0.0014 -0.03089,-0.09234 -0.03125,-0.09375 -3.59e-4,-0.0014 4.27e-4,-0.09236 0,-0.09375 -4.27e-4,-0.0014 -0.03076,-0.09238 -0.03125,-0.09375 -4.94e-4,-0.0014 -0.03069,-0.06115 -0.03125,-0.0625 -5.61e-4,-0.0013 -0.06187,-0.09243 -0.0625,-0.09375 -6.26e-4,-0.0013 -0.03056,-0.09247 -0.03125,-0.09375 C 57.655561,54.09245 57.5945,54.00125 57.59375,54 57.592999,53.9988 57.56331,53.93871 57.5625,53.9375 57.561689,53.9363 57.50087,53.87617 57.5,53.875 c -8.69e-4,-0.0012 -0.06157,-0.09262 -0.0625,-0.09375 -9.25e-4,-0.0011 -0.06152,-0.06142 -0.0625,-0.0625 -9.79e-4,-0.0011 -0.06147,-0.06147 -0.0625,-0.0625 -10e-4,-10e-4 -0.06142,-0.06152 -0.0625,-0.0625 -0.0011,-9.79e-4 -0.06137,-0.06157 -0.0625,-0.0625 -0.0011,-9.25e-4 -0.09258,-0.06163 -0.09375,-0.0625 -0.0012,-8.69e-4 -0.06129,-0.06169 -0.0625,-0.0625 -0.0012,-8.11e-4 -0.06125,-0.0305 -0.0625,-0.03125 -0.0012,-7.51e-4 -0.09247,-0.06181 -0.09375,-0.0625 -0.0013,-6.89e-4 -0.09243,-0.03062 -0.09375,-0.03125 -0.0013,-6.26e-4 -0.0924,-0.06194 -0.09375,-0.0625 -0.0013,-5.61e-4 -0.06113,-0.03076 -0.0625,-0.03125 -0.0014,-4.94e-4 -0.09236,-0.03082 -0.09375,-0.03125 -0.0014,-4.27e-4 -0.09234,3.59e-4 -0.09375,0 -0.0014,-3.59e-4 -0.09232,-0.03096 -0.09375,-0.03125 -0.0014,-2.89e-4 -0.09231,-0.03103 -0.09375,-0.03125 -0.0014,-2.19e-4 -0.0923,1.49e-4 -0.09375,0 -0.0014,-1.49e-4 -0.0923,7.8e-5 -0.09375,0 -0.0015,-7.8e-5 -0.09229,7e-6 -0.09375,0 l -10.0625,0 0,-0.1875 10.0625,0 c 0.0015,-7e-6 0.0923,7.8e-5 0.09375,0 0.0015,-7.8e-5 0.0923,1.49e-4 0.09375,0 0.0014,-1.49e-4 0.09231,2.19e-4 0.09375,0 0.0014,-2.19e-4 0.09232,-0.03096 0.09375,-0.03125 0.0014,-2.89e-4 0.09234,-0.03089 0.09375,-0.03125 0.0014,-3.59e-4 0.09236,4.27e-4 0.09375,0 0.0014,-4.27e-4 0.09238,-0.03076 0.09375,-0.03125 0.0014,-4.94e-4 0.06115,-0.03069 0.0625,-0.03125 0.0013,-5.61e-4 0.09243,-0.06187 0.09375,-0.0625 0.0013,-6.26e-4 0.09247,-0.03056 0.09375,-0.03125 0.0013,-6.89e-4 0.0925,-0.06175 0.09375,-0.0625 0.0012,-7.51e-4 0.06129,-0.03044 0.0625,-0.03125 0.0012,-8.11e-4 0.06133,-0.06163 0.0625,-0.0625 0.0012,-8.69e-4 0.09262,-0.06157 0.09375,-0.0625 0.0011,-9.25e-4 0.06142,-0.06152 0.0625,-0.0625 0.0011,-9.79e-4 0.06147,-0.06147 0.0625,-0.0625 10e-4,-10e-4 0.06152,-0.06142 0.0625,-0.0625 9.79e-4,-0.0011 0.06157,-0.06137 0.0625,-0.0625 9.25e-4,-0.0011 0.06163,-0.09258 0.0625,-0.09375 8.69e-4,-0.0012 0.06169,-0.06129 0.0625,-0.0625 8.11e-4,-0.0012 0.0305,-0.06125 0.03125,-0.0625 7.51e-4,-0.0012 0.06181,-0.09247 0.0625,-0.09375 6.89e-4,-0.0013 0.03062,-0.09243 0.03125,-0.09375 6.26e-4,-0.0013 0.06194,-0.0924 0.0625,-0.09375 5.61e-4,-0.0013 0.03076,-0.06113 0.03125,-0.0625 4.94e-4,-0.0014 0.03082,-0.09236 0.03125,-0.09375 4.27e-4,-0.0014 -3.59e-4,-0.09234 0,-0.09375 3.59e-4,-0.0014 0.03096,-0.09232 0.03125,-0.09375 2.89e-4,-0.0014 0.03103,-0.09231 0.03125,-0.09375 2.19e-4,-0.0014 -1.49e-4,-0.0923 0,-0.09375 1.49e-4,-0.0014 -7.8e-5,-0.0923 0,-0.09375 7.8e-5,-0.0015 -7e-6,-0.09229 0,-0.09375 l 0,-0.1875 z"/>
<path style="opacity:.15" id="path3743" d="m 48,24 c -13.7977,0 -25,11.2023 -25,25 0,13.7977 11.2023,25 25,25 13.7977,0 25,-11.2023 25,-25 0,-13.7977 -11.2023,-25 -25,-25 z  m -8.9688,17 0,2 a 1.00456,1.00456 0 0,0 1,1 h 10.9688 v 2 h -10.9688 a 1.00456,1.00456 0 0,0 -1,1 v 2 l -5.3438,-4.0312 5.3438,-3.9688 z  m 17.9375,8 5.3438,4.0312 l -5.3438,3.9688 v -2 a 1.00456,1.00456 0 0,0 -1,-1 h -10.9688 v -2 h 10.9688 a 1.00456,1.00456 0 0,0 1,-1 v -2 z "/>
<path style="opacity:.3" id="path3737" d="m 48,25 c -13.2548,0 -24,10.7452 -24,24 0,13.2548 10.7452,24 24,24 13.2548,0 24,-10.7452 24,-24 0,-13.2548 -10.7452,-24 -24,-24 z  m -7.9688,14 0,4 h 11.9688 v 4 h -11.9688 v 4 l -8.0312,-6.0312 8.0312,-5.9688 z  m 15.9375,8 8.0312,6.0312 -8.0312,5.9688 v -4 h -11.9688 v -4 h 11.9688 v -4 z "/>
<path style="fill:url(#linearGradient3068)" id="path2928" d="m 48,24 c -13.2548,0 -24,10.7452 -24,24 0,13.2548 10.7452,24 24,24 13.2548,0 24,-10.7452 24,-24 0,-13.2548 -10.7452,-24 -24,-24 z  m -7.9688,14 0,4 h 11.9688 v 4 h -11.9688 v 4 l -8.0312,-6.0312 8.0312,-5.9688 z  m 15.9375,8 8.0312,6.0312 -8.0312,5.9688 v -4 h -11.9688 v -4 h 11.9688 v -4 z "/>
<path style="opacity:.75;fill:#fff" id="path2946" d="m 48,24 c -13.2548,0 -24,10.7452 -24,24 0,0.165582 -0.0033,0.335217 0,0.5 0.263839,-13.0261 10.9107,-23.5 24,-23.5 13.0893,0 23.7362,10.4739 24,23.5 0.003338,-0.164783 0,-0.334418 0,-0.5 0,-13.2548 -10.7452,-24 -24,-24 z  m -15.3438,20.4688 -.6562,.5 8.0312,6.0312 v -1 l -7.375,-5.5312 z  m 7.375,1.5312 0,1 h 11.9688 v -1 h -11.9688 z  m 23.3125,6.5312 -7.375,5.4688 0,1 l 8.0312,-5.9688 -.6562,-.5 z  m -19.3438,1.4688 v 1 h 11.9688 v -1 h -11.9688 z "/>
<path style="opacity:.15" id="path3728" d="M 40.03125,37 32,42.96875 l 0.65625,0.5 7.375,-5.46875 0,-1 z m 0,4 0,1 L 52,42 52,41 40.03125,41 z m 15.9375,4 0,1 7.375,5.53125 L 64,51.03125 55.96875,45 z M 24,47.5 c -0.0033,0.164783 0,0.334418 0,0.5 0,13.254834 10.745166,24 24,24 13.254834,0 24,-10.745166 24,-24 0,-0.165582 0.0033,-0.335217 0,-0.5 C 71.736161,60.526064 61.089252,71 48,71 34.910748,71 24.263839,60.526064 24,47.5 z m 20,1.5 0,1 11.96875,0 0,-1 L 44,49 z"/>
</g>
</g>
</svg>
