<svg width="128" version="1.0" xmlns="http://www.w3.org/2000/svg" height="128" xmlns:xlink="http://www.w3.org/1999/xlink">
<defs id="defs2252">
<clipPath id="clipPath4458">
<use width="1" x="0" y="0" height="1" id="use4460" xlink:href="#XMLID_10_"/>
</clipPath>
<filter width="1.5844299" x="-0.29221493" y="-0.057434313" height="1.1148686" id="filter4442">
<feGaussianBlur stdDeviation="2.4087233" id="feGaussianBlur4444" collect="always"/>
</filter>
<filter id="AI_Sfocatura_4">
<feGaussianBlur stdDeviation="4" id="feGaussianBlur6"/>
</filter>
<filter width="1.5844299" x="-0.29221493" y="-0.057434313" height="1.1148686" id="filter4446">
<feGaussianBlur stdDeviation="2.4087233" id="feGaussianBlur4448" collect="always"/>
</filter>
<filter id="filter2904">
<feGaussianBlur stdDeviation="2.32" id="feGaussianBlur2906" collect="always"/>
</filter>
<linearGradient gradientTransform="translate(-29.288136,-107.22034)" xlink:href="#XMLID_25_" id="linearGradient3046" y1="-2.1941743" x1="67.629204" y2="78.850853" gradientUnits="userSpaceOnUse" x2="67.629204"/>
<linearGradient xlink:href="#XMLID_23_" id="linearGradient3123" y1="72.341148" x1="108.00493" y2="102.0937" gradientUnits="userSpaceOnUse" x2="115.9771"/>
<linearGradient gradientTransform="translate(300.32828,-46.407847)" id="linearGradient3110" xlink:href="#linearGradient3870" y1="6.124105" y2="-109.6124" x1="-232.20752" x2="-234.59863" gradientUnits="userSpaceOnUse"/>
<linearGradient gradientTransform="matrix(-1,-4.371139e-8,4.371139e-8,-1,133.6007,128.4)" xlink:href="#XMLID_18_" id="linearGradient3115" y1="68.399902" x1="9.5995998" y2="68.399902" gradientUnits="userSpaceOnUse" x2="129.6001"/>
<linearGradient id="linearGradient4081-9-4">
<stop offset="0" style="stop-color:#fff" id="stop4083-2-3"/>
<stop offset="1" style="stop-color:#fff9f9" id="stop4085-0-1"/>
</linearGradient>
<linearGradient gradientTransform="matrix(-1,-4.371139e-8,4.371139e-8,-1,1186.5436,-193.37143)" id="XMLID_18_" y1="68.399902" x1="9.5995998" y2="68.399902" x2="129.6001" gradientUnits="userSpaceOnUse">
<stop offset="0" style="stop-color:#003685" id="stop13"/>
<stop offset="0.0105" style="stop-color:#083c8f" id="stop15"/>
<stop offset="0.0533" style="stop-color:#2451b1" id="stop17"/>
<stop offset="0.099" style="stop-color:#3b63cd" id="stop19"/>
<stop offset="0.1477" style="stop-color:#4d71e3" id="stop21"/>
<stop offset="0.20100001" style="stop-color:#597bf3" id="stop23"/>
<stop offset="0.2622" style="stop-color:#6180fc" id="stop25"/>
<stop offset="0.34909999" style="stop-color:#6382ff" id="stop27"/>
<stop offset="0.58579999" style="stop-color:#6382ff" id="stop31"/>
<stop offset="1" style="stop-color:#003685" id="stop33"/>
</linearGradient>
<linearGradient id="linearGradient3870">
<stop offset="0" style="stop-color:#fff" id="stop3872"/>
<stop offset="1" style="stop-color:#fff" id="stop3874"/>
</linearGradient>
<linearGradient xlink:href="#XMLID_23_" id="linearGradient3121" y1="72.341148" x1="108.00493" y2="102.0937" gradientUnits="userSpaceOnUse" x2="115.9771"/>
<linearGradient id="XMLID_23_" y1="72.399902" x1="115.9771" y2="120.3999" x2="115.9771" gradientUnits="userSpaceOnUse">
<stop offset="0" style="stop-color:#00316e;stop-opacity:0" id="stop79"/>
<stop offset="1" style="stop-color:#00316e" id="stop81"/>
</linearGradient>
<linearGradient gradientTransform="translate(0.28507602,-1.041211)" xlink:href="#XMLID_25_" id="linearGradient3125" y1="-2.1941743" x1="67.629204" y2="78.850853" gradientUnits="userSpaceOnUse" x2="67.629204"/>
<linearGradient gradientTransform="matrix(-2.1224009,0,0,2.1071243,164.54935,-36.150476)" xlink:href="#linearGradient4081-9-4" id="linearGradient3127" y1="66.11824" x1="49" y2="28" gradientUnits="userSpaceOnUse" x2="49"/>
<path id="XMLID_10_" d="m 69.626,12.145 -.052,0 c -22.727,-0.292 -46.472,4.077 -46.709,4.122 -2.424,0.451 -4.946,2.974 -5.397,5.397 -0.044,0.237 -4.414,23.983 -4.122,46.71 -0.292,22.777 4.078,46.523 4.122,46.761 0.451,2.423 2.974,4.945 5.398,5.398 0.237,0.044 23.982,4.413 46.709,4.121 22.779,0.292 46.524,-4.077 46.761,-4.121 2.423,-0.452 4.946,-2.976 5.398,-5.399 0.044,-0.236 4.413,-23.981 4.121,-46.709 0.292,-22.777 -4.077,-46.523 -4.121,-46.761 -0.453,-2.423 -2.976,-4.946 -5.398,-5.397 -0.238,-0.045 -23.984,-4.414 -46.71,-4.122 z "/>
<radialGradient cx="69.600098" cy="145.3999" gradientTransform="translate(1047.3429,-330.17143)" r="141" id="XMLID_21_" gradientUnits="userSpaceOnUse">
<stop offset="0.3373" style="stop-color:#2c72c7;stop-opacity:0" id="stop58"/>
<stop offset="0.57990003" style="stop-color:#2c72c7" id="stop60"/>
<stop offset="1" style="stop-color:#2c72c7;stop-opacity:0" id="stop62"/>
</radialGradient>
<radialGradient cx="69.600098" cy="145.3999" gradientTransform="translate(-5.5999998,-8.4)" xlink:href="#XMLID_21_" id="radialGradient3119" r="141" gradientUnits="userSpaceOnUse"/>
<radialGradient cx="69.600098" cy="68.399902" gradientTransform="translate(1047.3429,-330.17143)" r="85" id="XMLID_20_" gradientUnits="userSpaceOnUse">
<stop offset="0.5" style="stop-color:#6193ff" id="stop47"/>
<stop offset="0.78109998" style="stop-color:#003685" id="stop49"/>
<stop offset="1" style="stop-color:#709dff" id="stop51"/>
</radialGradient>
<radialGradient cx="69.600098" cy="68.399902" gradientTransform="matrix(0.9824561,0,0,0.9824561,-4.3789474,-7.2)" xlink:href="#XMLID_20_" id="radialGradient3117" r="85" gradientUnits="userSpaceOnUse"/>
<radialGradient cx="66.136703" cy="0.75440001" gradientTransform="matrix(0.9459,0,0,1,1051.1319,-330.17143)" r="81.971497" id="XMLID_25_" gradientUnits="userSpaceOnUse">
<stop offset="0.1302" style="stop-color:#fff" id="stop95"/>
<stop offset="0.5" style="stop-color:#fff;stop-opacity:.169" id="stop97"/>
</radialGradient>
</defs>
<path style="opacity:.7;fill:url(#linearGradient3046)" id="path99" d="m 88.7119,-63.8065 c -1.19623,-13.4824 -3.07337,-22.7988 -3.1032,-22.9549 -0.4464,-2.40933 -3.96206,-5.89819 -6.34937,-6.34669 -0.23451,-0.04416 -22.609,-4.38881 -45.0093,-4.09831 h -0.05143 c -22.3992,-0.290494 -44.7747,4.05415 -45.0093,4.09831 -2.38834,0.449479 -5.90297,3.93736 -6.34731,6.34669 -0.0216,0.116787 -1.09234,5.00512 -2.13017,13.6434 0,5.78533 0,11.5697 0,17.355 0,3.60761 2.39657,7.78051 5.328,9.2899 -0.0021,-0.102065 4.63474,13.2528 44.0095,13.2528 39.3758,0 53.6369,-20.6751 53.6328,-20.4454 2.76685,-1.85778 5.02971,-6.30547 5.02971,-9.91407 0,-0.07557 0,-0.151135 0,-0.226702 z "/>
<path style="stroke-opacity:.505;fill:url(#linearGradient3110);display:block;stroke:#3f3f3f;stroke-linejoin:round;stroke-width:2.632" id="rect2426" d="m 63.9845,-144.9078 -38.7812,50.5625 78.5625,0 -39.7812,-50.5625 z  m -38.6875,65.0938 0,14.2812 78.375,0 0,-14.2812 -78.375,0 z "/>
<g style="stroke-width:2;fill:#f69838">
<rect width="20.067797" x="-83.782578" y="-72.546928" rx="10.0339" height="137.49153" ry="0" style="opacity:.7" id="rect3082"/>
<rect width="21.218344" x="205.42303" y="-11.591228" rx="10.6092" height="137.49153" ry="0" style="opacity:.7" id="rect3082-7"/>
</g>
<g id="g3095" transform="translate(0,0.39999043)">
<g style="opacity:.8;filter:url(#filter2904)" id="g8" transform="matrix(1.0517241,0,0,1.0172414,-7.5172423,-7.0379241)">
<path id="path10" d="m 126,113.8 c 0,8.8 -7.2,16 -16,16 h -84 c -8.8,0 -16,-7.2 -16,-16 v -84 c 0,-8.8 7.2,-16 16,-16 h 84 c 8.8,0 16,7.2 16,16 v 84 z "/>
</g>
<path style="fill:url(#linearGradient3115)" id="path35" d="m 4,16 c 0,-8.8 7.2,-16 16,-16 h 88 c 8.8,0 16,7.2 16,16 v 88 c 0,8.8 -7.2,16 -16,16 h -88 c -8.8,0 -16,-7.2 -16,-16 v -88 z "/>
<path style="fill:url(#radialGradient3117)" id="path53" d="M 20.77193,4 C 13.729684,4 8,9.729684 8,16.77193 l 0,86.45614 C 8,110.27032 13.729684,116 20.77193,116 l 86.45614,0 C 114.27032,116 120,110.27032 120,103.22807 l 0,-86.45614 C 120,9.729684 114.27032,4 107.22807,4 l -86.45614,0 0,0 z"/>
<path style="fill:url(#radialGradient3119);filter:url(#AI_Sfocatura_4)" id="path64" d="m 64.026,3.014 -.053,0 c -23.021,-0.296 -47.076,4.131 -47.316,4.176 -2.455,0.458 -5.01,3.012 -5.467,5.467 -0.045,0.241 -4.472,24.295 -4.176,47.316 -0.296,23.074 4.131,47.129 4.176,47.369 0.457,2.454 3.013,5.01 5.468,5.469 0.24,0.044 24.294,4.47 47.316,4.174 23.075,0.296 47.129,-4.13 47.369,-4.174 2.454,-0.458 5.011,-3.015 5.469,-5.47 0.044,-0.239 4.47,-24.293 4.174,-47.315 0.296,-23.074 -4.13,-47.128 -4.174,-47.369 -0.459,-2.455 -3.015,-5.01 -5.469,-5.467 -0.24,-0.045 -24.295,-4.472 -47.317,-4.176 z "/>
<g style="opacity:.6" id="g66" transform="translate(-5.5999858,-8.4)">
<g style="clip-path:url(#clipPath4458)" id="g4450">
<path style="opacity:.8;fill:url(#linearGradient3121);filter:url(#filter4442)" id="path83" d="m 119.344,21.665 c -0.377,-1.278 -1.675,-2.576 -3.367,-3.591 -1.693,1.015 -2.989,2.312 -3.365,3.591 -0.07,0.237 -6.965,23.983 -6.504,46.71 -0.461,22.777 6.434,46.523 6.504,46.761 0.376,1.278 1.674,2.576 3.365,3.591 1.694,-1.016 2.991,-2.312 3.367,-3.592 0.069,-0.236 6.963,-23.981 6.503,-46.709 0.46,-22.778 -6.433,-46.524 -6.503,-46.761 z"/>
<path style="opacity:.8;fill:url(#linearGradient3123);filter:url(#filter4446)" id="path4438" d="m 119.344,21.665 c -0.377,-1.278 -1.675,-2.576 -3.367,-3.591 -1.693,1.015 -2.989,2.312 -3.365,3.591 -0.07,0.237 -6.965,23.983 -6.504,46.71 -0.461,22.777 6.434,46.523 6.504,46.761 0.376,1.278 1.674,2.576 3.365,3.591 1.694,-1.016 2.991,-2.312 3.367,-3.592 0.069,-0.236 6.963,-23.981 6.503,-46.709 0.46,-22.778 -6.433,-46.524 -6.503,-46.761 z" transform="matrix(-1,0,0,1,139.2,0)"/>
</g>
</g>
<path style="opacity:.7;fill:url(#linearGradient3125)" id="path3147" d="m 118.2851,42.3726 c -1.19623,-13.4824 -3.07337,-22.7988 -3.1032,-22.9549 -0.4464,-2.40933 -2.74172,-5.7626 -6.34937,-6.34669 -0.23451,-0.04416 -22.609,-4.3888 -45.0093,-4.09831 h -0.05143 c -22.3992,-0.290494 -44.7747,4.05415 -45.0093,4.09831 -2.38834,0.449478 -5.3606,2.44584 -6.34731,6.34669 -0.0216,0.116787 -1.09234,5.00512 -2.13017,13.6434 0,5.78533 -0.801169,11.6254 0,17.355 0.542373,3.8788 2.89242,6.85462 5.81022,9.71994 2.82209,3.03984 7.60417,11.8639 46.9789,11.8639 39.3758,0 46.931,-8.32646 49.6388,-12.4358 4.12278,-4.56965 5.57208,-13.3563 5.57208,-16.9649 0,-0.842601 0,-0.151135 0,-0.226702 z "/>
<g id="g3084" transform="translate(1.1985388,9.3805598e-5)">
<path style="opacity:.1;stroke:none" id="path3530" d="m 53.7202,16.3959 c -2.86314,0.2655 -4.40245,3.26122 -3.9795,5.88448 0,1.63819 0,7.49062 0,9.12879 -1.17513,-2.82571 -5.05111,-3.3797 -7.33654,-1.50149 -15.0586,7.86022 -24.2861,25.2634 -22.0981,42.0411 1.77651,17.2003 15.2954,32.3592 32.2429,36.2808 15.7039,4.01316 33.3264,-1.9734 43.3369,-14.6195 10.8401,-12.9926 12.5301,-32.5864 3.97719,-47.1871 -4.39329,-7.62086 -11.1608,-14.1746 -19.3475,-17.5817 -1.98256,-0.385588 -4.09781,0.714505 -4.90805,2.56806 -0.196527,-2.80162 0.479878,-9.96847 -0.530595,-12.6428 -1.77792,-3.25706 -5.813,-2.19263 -8.85771,-2.37051 -4.16632,0 -8.33263,0 -12.499,0 z  m -3.9795,33.7798 c 0.103953,3.24548 -0.225547,6.52512 0.198863,9.74545 0.831364,2.93168 4.10282,3.41135 6.71709,3.16068 5.11999,-0.08339 10.2661,0.169633 15.3692,-0.131692 3.07452,-0.494098 3.9099,-3.84723 3.58155,-6.48912 0,-2.09512 0,-4.19021 0,-6.28532 1.49614,2.51224 4.23349,4.15127 5.45838,6.91078 5.55262,9.32178 1.98229,22.4994 -7.4623,27.8779 -9.01951,5.6682 -22.0999,3.04986 -28.0926,-5.7559 -6.14835,-8.24713 -4.7781,-20.891 3.16851,-27.5183 0.443862,-0.422356 0.808105,-0.964058 1.0612,-1.5145 z "/>
<path style="opacity:.15;stroke:none" id="path3532" d="m 53.7202,18.5689 c -1.01564,0.21926 -1.80573,1.20702 -1.79077,2.23882 v 37.8624 c 0.0105,1.16954 1.07704,2.22899 2.25505,2.23882 h 16.9792 c 1.17802,-0.01079 2.24517,-1.06927 2.25505,-2.23882 v -37.8624 c -0.0105,-1.16951 -1.07703,-2.22899 -2.25505,-2.23882 h -16.9792 c -0.154302,-0.01471 -0.310048,-0.01471 -0.464285,0 z  m -8.2906,12.3794 c -0.251995,0.02483 -0.499724,0.09202 -0.729576,0.197428 -13.3036,6.57996 -22.4842,20.2173 -22.4842,35.9528 0,22.1579 18.1397,40.1671 40.4583,40.1671 22.3186,0 40.4583,-18.0092 40.4583,-40.1671 0,-15.7355 -9.18058,-29.3729 -22.4842,-35.9528 -1.3798,-0.650616 -3.25113,0.524768 -3.24993,2.04128 v 15.2108 c -0.01483,0.63846 0.257272,1.27846 0.729577,1.71204 4.74422,4.21024 7.76002,10.1816 7.76002,16.9887 0,12.7447 -10.3767,23.0467 -23.2138,23.0467 -12.8371,0 -23.2138,-10.302 -23.2138,-23.0467 0,-6.80711 3.01583,-12.7785 7.76002,-16.9887 0.472318,-0.433582 0.745051,-1.07358 0.729576,-1.71204 v -15.2108 c -0.0026,-1.26189 -1.25676,-2.37538 -2.52034,-2.23882 z "/>
<path style="opacity:.3;fill:#4e4e4e;stroke:none" id="path3534" d="m 24.4709,67.0986 c 0,20.9364 17.115,37.9282 38.2032,37.9282 21.0882,0 38.2032,-16.9919 38.2032,-37.9282 0,-14.8643 -8.66589,-27.7003 -21.224,-33.9115 v 15.2108 c 5.19496,4.61024 8.4896,11.2343 8.4896,18.7007 0,13.9648 -11.4028,25.2855 -25.4688,25.2855 -14.066,0 -25.4688,-11.3207 -25.4688,-25.2855 0,-7.46645 3.29466,-14.0905 8.4896,-18.7007 v -15.2108 c -12.5581,6.21123 -21.224,19.0472 -21.224,33.9115 z  m 29.7136,-42.0766 0,33.6481 16.9792,0 0,-33.6481 8.4896,0 -25.4688,0 z "/>
<path style="fill:url(#linearGradient3127);stroke:none" id="path3536" d="m 24.4709,64.9915 c 0,20.9364 17.115,37.9282 38.2032,37.9282 21.0882,0 38.2032,-16.9919 38.2032,-37.9282 0,-14.8643 -8.66589,-27.7003 -21.224,-33.9115 v 15.2108 c 5.19496,4.61024 8.4896,11.2343 8.4896,18.7007 0,13.9648 -11.4028,25.2855 -25.4688,25.2855 -14.066,0 -25.4688,-11.3207 -25.4688,-25.2855 0,-7.46645 3.29466,-14.0905 8.4896,-18.7007 v -15.2108 c -12.5581,6.21123 -21.224,19.0472 -21.224,33.9115 z  m 29.7136,-46.2909 0,37.8624 16.9792,0 0,-37.8624 -16.9792,0 z "/>
<path style="fill:#fff;stroke:none" id="path3538" d="m 54.1845,18.7006 0,2.1071 16.9792,0 0,-2.1071 -16.9792,0 z  m -8.4896,12.3794 c -12.5581,6.21123 -21.224,19.0472 -21.224,33.9115 0,0.332939 0.05775,0.656823 0.06615,0.987711 0.424607,-14.3852 8.91746,-26.7381 21.1577,-32.7921 v -2.10712 z  m 33.9584,0 0,2.1071 c 12.2403,6.05401 20.7331,18.407 21.1577,32.7921 0.008,-0.330888 0.0661,-0.654772 0.0661,-0.987711 0,-14.8643 -8.6659,-27.7003 -21.224,-33.9115 z  m -42.3813,34.8992 c -0.01693,0.373512 -0.06615,0.741451 -0.06615,1.11942 0,13.9648 11.4028,25.2855 25.4688,25.2855 14.066,0 25.4688,-11.3207 25.4688,-25.2855 0,-0.377964 -0.04961,-0.745903 -0.06628,-1.11942 -0.53049,13.4998 -11.6748,24.2978 -25.4025,24.2978 -13.7276,0 -24.872,-10.798 -25.4025,-24.2978 z "/>
</g>
</g>
<rect width="21.218344" x="-52.874668" y="3.9411509" rx="10.6092" ry="0" height="137.49153" style="opacity:.7;fill:#f69838;stroke-width:2" id="rect3109"/>
</svg>
