<svg xmlns="http://www.w3.org/2000/svg" viewBox="0 0 96 96" xmlns:xlink="http://www.w3.org/1999/xlink">
<defs>
<filter width="1.623" x="-.312" y="-.426" height="1.853" color-interpolation-filters="sRGB" id="filter4362">
<feGaussianBlur stdDeviation="6.21244"/>
</filter>
<linearGradient id="linearGradient3934" xlink:href="#linearGradient3928" y1="61.991" y2="4.667" x2="0" gradientUnits="userSpaceOnUse"/>
<linearGradient gradientTransform="matrix(-1 0 0 1 96.08693 0)" id="linearGradient4424" xlink:href="#linearGradient4414" y1="44.04" y2="52.263" x2="0" gradientUnits="userSpaceOnUse"/>
<linearGradient gradientTransform="matrix(-1 0 0 1 96 0)" id="linearGradient4402" xlink:href="#linearGradient3737" y1="40.263" y2="89.666" x2="0" gradientUnits="userSpaceOnUse"/>
<linearGradient gradientTransform="matrix(-1 0 0 1 96 0)" id="linearGradient4400" xlink:href="#linearGradient4370" y1="38.127" y2="87.03" x2="0" gradientUnits="userSpaceOnUse"/>
<linearGradient id="linearGradient4420" xlink:href="#linearGradient4414" y1="44.04" y2="52.263" x2="0" gradientUnits="userSpaceOnUse"/>
<linearGradient gradientTransform="matrix(1.00587 0 0 .99417 100 0)" id="ButtonShadow-0" y1="92.54" y2="7.017" x2="0" gradientUnits="userSpaceOnUse">
<stop offset="0"/>
<stop offset="1" stop-opacity=".588"/>
</linearGradient>
<linearGradient id="linearGradient3928">
<stop offset="0" stop-color="#3a240f"/>
<stop offset="1" stop-color="#3a240f" stop-opacity="0"/>
</linearGradient>
<linearGradient gradientTransform="matrix(1.02381 0 0 1.0119 -1.14286 -98.07143)" id="linearGradient3780" xlink:href="#ButtonShadow-0" y1="6.132" y2="90.239" x2="0" gradientUnits="userSpaceOnUse"/>
<linearGradient id="linearGradient3942" xlink:href="#linearGradient3928" y1="60.307" y2="6.018" x2="0" gradientUnits="userSpaceOnUse"/>
<linearGradient gradientTransform="matrix(1.02006 0 0 1.02006 -5.2982 5.75621)" id="linearGradient3277-8" xlink:href="#linearGradient4309-3" y1="19.882" y2="47.295" x2="0" gradientUnits="userSpaceOnUse"/>
<linearGradient gradientTransform="translate(0 -97)" id="linearGradient3721" xlink:href="#ButtonShadow-0" y1="6.132" y2="90.239" x2="0" gradientUnits="userSpaceOnUse"/>
<linearGradient id="linearGradient4309-3" y1="47.247" y2=".239" x2="0" gradientUnits="userSpaceOnUse">
<stop offset="0" stop-color="#d8cab2"/>
<stop offset=".457" stop-color="#d2b98c"/>
<stop offset=".486" stop-color="#f9f7ef"/>
<stop offset=".491" stop-color="#fff"/>
<stop offset=".492" stop-color="#fbf9f4"/>
<stop offset=".495" stop-color="#efe7d0"/>
<stop offset=".498" stop-color="#e4d6b0"/>
<stop offset=".501" stop-color="#dac894"/>
<stop offset=".505" stop-color="#c7a572"/>
<stop offset="1" stop-color="#d7c198"/>
</linearGradient>
<linearGradient id="linearGradient4394" xlink:href="#linearGradient3737" y1="40.263" y2="89.666" x2="0" gradientUnits="userSpaceOnUse"/>
<linearGradient id="linearGradient5092">
<stop offset="0" stop-color="#be9f6a"/>
<stop offset="1" stop-color="#e5d2b2"/>
</linearGradient>
<linearGradient id="linearGradient4376" xlink:href="#linearGradient4370" y1="38.127" y2="71.877" x2="0" gradientUnits="userSpaceOnUse"/>
<linearGradient id="linearGradient4289">
<stop offset="0" stop-color="#996c3b"/>
<stop offset="1" stop-color="#c19e6d"/>
</linearGradient>
<linearGradient id="linearGradient4370">
<stop offset="0" stop-color="#8a5b30"/>
<stop offset="1" stop-color="#8a5b30" stop-opacity="0"/>
</linearGradient>
<linearGradient id="linearGradient4414">
<stop offset="0" stop-color="#dac3a2"/>
<stop offset="1" stop-color="#dac3a2" stop-opacity="0"/>
</linearGradient>
<linearGradient id="linearGradient4295">
<stop offset="0" stop-color="#b88f56"/>
<stop offset="1" stop-color="#d9bd98"/>
</linearGradient>
<linearGradient id="linearGradient3737">
<stop offset="0" stop-color="#fff"/>
<stop offset="1" stop-color="#fff" stop-opacity="0"/>
</linearGradient>
<linearGradient id="linearGradient3285" xlink:href="#linearGradient3737" y1="42" x1="23.143" y2="6" x2="66.964" gradientUnits="userSpaceOnUse"/>
<linearGradient id="linearGradient2489" xlink:href="#linearGradient4295" y1="42" x1="48" y2="18.202" x2="6.781" gradientUnits="userSpaceOnUse"/>
<linearGradient gradientTransform="matrix(-1 0 0 1 96 0)" id="linearGradient3264" xlink:href="#linearGradient4295" y1="29.04" x1="47.227" y2="18.082" x2="6.33" gradientUnits="userSpaceOnUse"/>
<linearGradient id="linearGradient5100" xlink:href="#linearGradient5092" y1="32.783" x1="47.079" y2="9.41" x2="6.596" gradientUnits="userSpaceOnUse"/>
<linearGradient id="linearGradient3706" xlink:href="#linearGradient4289" y1="90" y2="39.853" x2="0" gradientUnits="userSpaceOnUse"/>
<radialGradient cx="48" cy="73.146" gradientTransform="matrix(.86777 0 0 .09524 6.34728 36.19048)" r="42" id="radialGradient4432" gradientUnits="userSpaceOnUse">
<stop offset="0" stop-color="#71461e"/>
<stop offset="1" stop-color="#71461e" stop-opacity="0"/>
</radialGradient>
</defs>
<path opacity=".08" fill="url(#linearGradient3780)" d="m12-95.0312c-5.5111,0-10.0312,4.5202-10.0312,10.0312v71c0,5.5111 4.5202,10.0312 10.0312,10.0312h72c5.5111,0 10.0312-4.5202 10.0312-10.0312v-71c0-5.5111-4.5202-10.0312-10.0312-10.0312h-72z" transform="scale(1 -1)"/>
<path opacity=".1" fill="url(#linearGradient3780)" d="m12-94.0312c-4.9716,0-9.0312,4.0596-9.0312,9.0312v71c0,4.9716 4.0596,9.0312 9.0312,9.0312h72c4.9716,0 9.0312-4.0596 9.0312-9.0312v-71c0-4.9716-4.0596-9.0312-9.0312-9.0312h-72z" transform="scale(1 -1)"/>
<path opacity=".2" fill="url(#linearGradient3780)" d="m12-93c-4.4091,0-8,3.5909-8,8v71c0,4.4091 3.5909,8 8,8h72c4.4091,0 8-3.5909 8-8v-71c0-4.4091-3.5909-8-8-8h-72z" transform="scale(1 -1)"/>
<path opacity=".3" fill="url(#linearGradient3780)" d="m12-92h72a7,7 0 0,1 7,7v71a7,7 0 0,1 -7,7h-72a7,7 0 0,1 -7-7v-71a7,7 0 0,1 7-7" transform="scale(1 -1)"/>
<path opacity=".45" fill="url(#linearGradient3721)" d="m12-91h72a6,6 0 0,1 6,6v72a6,6 0 0,1 -6,6h-72a6,6 0 0,1 -6-6v-72a6,6 0 0,1 6-6" transform="scale(1 -1)"/>
<path fill="url(#linearGradient4376)" d="m6,36 0,48c0,1.7818 .7746,3.3717 2,4.4688v-52.4688h-2z"/>
<path fill="url(#linearGradient3706)" d="m12,6h72a6,6 0 0,1 6,6v72a6,6 0 0,1 -6,6h-72a6,6 0 0,1 -6-6v-72a6,6 0 0,1 6-6"/>
<path fill="url(#radialGradient4432)" d="m6,36 0,2c0,3.324 2.676,6 6,6h72c3.324,0 6-2.676 6-6v-2c0,3.324-2.676,6-6,6h-72c-3.324,0-6-2.676-6-6z"/>
<path fill="url(#linearGradient4400)" d="m90,36 0,48c0,1.7818-.7746,3.3717-2,4.4688v-52.4688h2z"/>
<path fill="#3c2510" d="m12,18h72a6,6 0 0,1 6,6v12a6,6 0 0,1 -6,6h-72a6,6 0 0,1 -6-6v-12a6,6 0 0,1 6-6"/>
<path opacity=".3" fill="url(#linearGradient4402)" d="m88,36 0,52.4688c-.5769,.5164-1.2549,.9231-2,1.1875v-53.6562h2z"/>
<path opacity=".3" fill="url(#linearGradient4394)" d="m8,36 0,52.4688c.5769,.5164 1.2549,.9231 2,1.1875v-53.6562h-2z"/>
<path fill="url(#linearGradient5100)" d="m12,6c-3.2266,0-6,2.2593-6,7v2 20.6562l42,.0344v-29.6907h-34-2z"/>
<path opacity=".3" fill="#dac7a8" filter="url(#filter4362)" d="m18.7532,41.9568h35.856a6,6 0 0,1 6,6v22.9766a6,6 0 0,1 -6,6h-35.856a6,6 0 0,1 -6-6v-22.9766a6,6 0 0,1 6-6" transform="matrix(1 0 0 .8556 0 8.58413)"/>
<path fill="url(#linearGradient2489)" d="m12,6c-3.324,0-6,2.676-6,6v24c0,3.324 2.676,6 6,6l36-2v-36l-36,2z"/>
<path fill="url(#linearGradient3264)" d="m84,6c3.324,0 6,2.676 6,6v24c0,3.324-2.676,6-6,6l-36-2v-36l36,2z"/>
<path opacity=".3" fill="url(#linearGradient3285)" d="m12,6c-3.324,0-6,2.676-6,6v24c0,3.324 2.676,6 6,6l36-2 36,2c3.324,0 6-2.676 6-6v-24c0-3.324-2.676-6-6-6l-36-2-36,2zm0,2 36-2 36,2c2.2458,0 4,1.7542 4,4v24c0,2.2458-1.7542,4-4,4l-36-2-36,2c-2.2458,0-4-1.7542-4-4v-24c0-2.2458 1.7542-4 4-4z"/>
<g fill-rule="evenodd">
<path fill="url(#linearGradient4420)" d="m6.1872,37.2849c2.3991,5.5558 1.894,16.0362 1.894,16.0362l1.8309-.2525c-.2525-8.2075 .4419-11.2379 4.9876-11.3642-7.169-1.1948-8.7126-4.4194-8.7126-4.4194z"/>
<path fill="url(#linearGradient4424)" d="m89.8997,37.2849c-2.3991,5.5558-1.894,16.0362-1.894,16.0362l-1.8309-.2525c.2525-8.2075-.4419-11.2379-4.9876-11.3642 7.169-1.1948 8.7126-4.4194 8.7126-4.4194z"/>
</g>
<path opacity=".5" fill="#3a240f" d="m54.1204,7-12.1204,0 .0602,24.0622 .1346,28.9378 5.6868-.4947 6.0439-.5253 .0326-5.5512 .102-22.3665 .0602-24.0622z"/>
<path opacity=".1" fill="url(#linearGradient3934)" d="m41.6875,5.125c.0042-.0007-.1917,.0323-.1875,.0312 .0042-.0011-.1603,.064-.1562,.0625 .004-.0015-.1601,.0643-.1562,.0625 .0039-.0018-.1287,.0647-.125,.0625 .0037-.0022-.1598,.0962-.1562,.0938 .0035-.0025-.1283,.1278-.125,.125 .0033-.0028-.128,.0968-.125,.0938 .003-.0031-.1277,.1283-.125,.125 .0027-.0033-.0962,.1598-.0938,.1562 .0024-.0035-.0958,.1287-.0938,.125 .0021-.0038-.0642,.1602-.0625,.1562 .0017-.0039-.0639,.1603-.0625,.1562 .0014-.0041-.0323,.1604-.0312,.1562 .001-.0042-.0631,.1605-.0625,.1562 .0006-.0042-.0003,.1918 0,.1875 .0002-.0034 .0008,.0823 0,.125v.0312l.0625,24.0312 .125,28.9375a1.0058,1.0058 0 0,0 0,.0312c-0-.0025 .0002,.0962 0,.0938-.0002-.0025 .0003,.0962 0,.0938-.0003-.0024 .0317,.0962 .0312,.0938-.0004-.0024 .0005,.0962 0,.0938-.0005-.0024 .0319,.0961 .0312,.0938-.0007-.0024 .032,.0961 .0312,.0938-.0008-.0023 .0322,.0648 .0312,.0625-.0009-.0023 .0323,.096 .0312,.0938-.001-.0022 .0636,.0959 .0625,.0938-.0011-.0022 .0325,.0959 .0312,.0938-.0012-.0021 .0639,.0645 .0625,.0625-.0014-.0021 .0327,.0957 .0312,.0938-.0015-.002 .0641,.0644 .0625,.0625-.0016-.0019 .0641,.0956 .0625,.0938-.0016-.0018 .0642,.0642 .0625,.0625-.0017-.0017 .0956,.0641 .0938,.0625-.0018-.0016 .0644,.0641 .0625,.0625-.0019-.0015 .0645,.0639 .0625,.0625-.002-.0014 .0958,.0638 .0938,.0625-.0021-.0013 .0646,.0325 .0625,.0312-.0021-.0012 .0959,.0636 .0938,.0625-.0022-.0011 .096,.0323 .0938,.0312-.0022-.001 .096,.0322 .0938,.0312-.0023-.0009 .0961,.032 .0938,.0312-.0023-.0008 .0961,.0319 .0938,.0312-.0024-.0007 .0962,.0318 .0938,.0312-.0024-.0005 .0962,.0004 .0938,0-.0024-.0004 .0962,.0315 .0938,.0312-.0024-.0003 .0962,.0002 .0938,0-.0025-.0002 .0962,0 .0938,0-.0025-0 .0962-.0001 .0938,0-.0025,.0001 .0962-.0002 .0938,0l5.6875-.5 6.0312-.5312c-.0009,.0001 .0202,.0012 .0312,0 .0442-.0047 .1285-.0005 .125,0-.0044,.0007 .1918-.0636 .1875-.0625-.0043,.0011 .1605-.0327 .1562-.0312-.0042,.0015 .1603-.0644 .1562-.0625-.0041,.0019 .1601-.096 .1562-.0938-.0039,.0022 .1599-.0963 .1562-.0938-.0036,.0026 .1284-.0967 .125-.0938-.0034,.0029 .1281-.1282 .125-.125-.0031,.0032 .1278-.1285 .125-.125-.0028,.0035 .0962-.16 .0938-.1562-.0025,.0037 .0958-.1602 .0938-.1562-.0021,.004 .0955-.1604 .0938-.1562-.0017,.0041 .0638-.1605 .0625-.1562-.0013,.0043 .0322-.1606 .0312-.1562-.0009,.0044 .0318-.1919 .0312-.1875-.0005,.0044 .0001-.1607 0-.1562a1.0058,1.0058 0 0,0 0-.0312l.0312-5.5312 .0938-22.375 .0625-24.0625c-.0001,.0048-.0004-.161 0-.1562 .0004,.0048-.0321-.1922-.0312-.1875 .0009,.0047-.0326-.1921-.0312-.1875 .0013,.0046-.0643-.1919-.0625-.1875 .0018,.0044-.096-.1605-.0938-.1562 .0022,.0042-.0964-.1602-.0938-.1562 .0026,.004-.0968-.16-.0938-.1562 .003,.0037-.1284-.1596-.125-.1562 .0034,.0034-.16-.128-.1562-.125 .0037,.003-.1602-.0964-.1562-.0938 .004,.0027-.1605-.096-.1562-.0938 .0042,.0022-.1607-.0956-.1562-.0938 .0044,.0018-.1921-.0638-.1875-.0625 .0046,.0014-.1922-.0321-.1875-.0312 .0047,.0009-.1923-.0317-.1875-.0312 .0048,.0004-.161,.0001-.1562,0h-12.0312c.0026,.0002-.0439,.0023-.0938,0-.0333-.0015-.0642,0-.0625,0 .0043,0-.1918,.0004-.1875,0a1.0058,1.0058 0 0,0 -.0625,0z"/>
<path opacity=".2" fill="url(#linearGradient3942)" d="m42,6.125a.862,.862 0 0,0 -.875,.875l.0625,24.0625 .125,28.9375a.862,.862 0 0,0 .9375,.8438l5.6875-.5 6.0625-.5312a.862,.862 0 0,0 .8125-.8438l.0312-5.5312 .0938-22.375 .0625-24.0625a.862,.862 0 0,0 -.875-.875h-12.125z"/>
<path fill="url(#linearGradient3277-8)" d="m54.0602,4.3687-6.0602-.4419-6.0602,.4419 .0602,25.6936 .1346,28.9378l5.6868-.4947 6.0439-.5253 .0326-5.5512 .102-22.3665 .0602-25.6936z"/>
<path opacity=".2" fill="#8d6137" d="m47,4.125h1v35.7143h-1z"/>
<path opacity=".2" fill="#fff" d="m48,4.125h1v35.7143h-1z"/>
<g fill="#825023">
<text x="69.415" y="49.915" font-family="BabelSans" text-align="start" line-height="120.00000477%" font-weight="bold" xml:space="preserve" font-size="4px"><tspan x="69.415" y="49.915">INSTALL</tspan>
</text>
<path d="m72,52 0,6-4,0 8,10 8-10-4,0 0-6-8,0z"/>
</g>
</svg>
