<svg xmlns="http://www.w3.org/2000/svg" viewBox="0 0 96 96" xmlns:xlink="http://www.w3.org/1999/xlink">
<defs>
<clipPath id="clipPath3743">
<path fill="#f0f" d="m-88,6c-3.324,0-6,2.676-6,6v72c0,3.324 2.676,6 6,6h72c3.324,0 6-2.676 6-6v-72c0-3.324-2.676-6-6-6h-72zm36,18c5.3447,0 9.6875,3.9928 9.6875,8.9375-.0213,.6214-.074,1.3354-.125,2.0625 .7302,.5433 .779,2.1704 .0625,3.8438-.2586,.604-.5559,1.0756-.9062,1.5-.1133,.5249-.1979,.9512-.3438,1.5625-.397,1.1805-1.9387,3.4986-3.125,5.3125-.0765,1.2064-.0877,2.4002 .0625,3.625 3.7097,3.1975 13.3909,4.9508 13.4062,7.6875l1.2812,8.3125c0,1.6793-2.5448,3.1979-6.5312,4.25l-.6875,2.375a1.4053,1.393 0 0,1 -.8438,.9062c-.1814,.0695-.3154,.2007-.8125,.3438-2.6185,.7535-6.6419,1.2812-11.125,1.2812-4.4831,0-8.4753-.5277-11.0938-1.2812-.4971-.143-.6311-.2742-.8125-.3438a1.4053,1.393 0 0,1 -.875-.9375l-.5625-2.2812c-4.0862-1.0538-6.6562-2.6092-6.6562-4.3125l1.2812-8.3125c-.0144-3.1975 9.588-4.5988 13.3438-7.6875 .2618-1.513 .2551-2.8261 .125-4.1562-1.3048-1.7242-2.7664-3.7149-3.125-4.7812-.1157-.5252-.1855-.8782-.2812-1.3438-.0134-.0146-.0491-.0476-.0625-.0625-.401-.4471-.8028-.9768-1.0938-1.6562-.7545-1.7621-.6271-3.5218 .2188-3.9688-.0594-.7048-.0808-1.3396-.0938-1.9062 0-4.9447 4.3428-8.9688 9.6875-8.9688z"/>
</clipPath>
<clipPath id="clipPath3613">
<path fill="#fff" d="m12,6h72a6,6 0 0,1 6,6v72a6,6 0 0,1 -6,6h-72a6,6 0 0,1 -6-6v-72a6,6 0 0,1 6-6"/>
</clipPath>
<filter width="1.331" x="-.166" y="-.127" height="1.255" color-interpolation-filters="sRGB" id="filter3747">
<feGaussianBlur stdDeviation="2.76"/>
</filter>
<filter width="1.384" x="-.192" y="-.192" height="1.384" color-interpolation-filters="sRGB" id="filter3794">
<feGaussianBlur stdDeviation="5.28"/>
</filter>
<linearGradient id="linearGradient3737-9">
<stop offset="0" stop-color="#fff"/>
<stop offset="1" stop-color="#fff" stop-opacity="0"/>
</linearGradient>
<linearGradient id="linearGradient3713" xlink:href="#linearGradient3697" y1="72" y2="24" x2="0" gradientUnits="userSpaceOnUse"/>
<linearGradient id="linearGradient4052" xlink:href="#linearGradient3737-9" y1="20.221" y2="138.661" x2="0" gradientUnits="userSpaceOnUse"/>
<linearGradient id="linearGradient3697">
<stop offset="0" stop-color="#bababa"/>
<stop offset="1" stop-color="#d2d2d2"/>
</linearGradient>
<linearGradient id="linearGradient3700">
<stop offset="0" stop-color="#e6e6e6"/>
<stop offset="1" stop-color="#f5f5f5"/>
</linearGradient>
<linearGradient id="linearGradient3706" xlink:href="#linearGradient3700" y1="90" y2="5.988" x2="0" gradientUnits="userSpaceOnUse"/>
<linearGradient gradientTransform="matrix(1.02381 0 0 1.0119 -1.14286 -98.07143)" id="linearGradient3780" xlink:href="#ButtonShadow-0" y1="6.132" y2="90.239" x2="0" gradientUnits="userSpaceOnUse"/>
<linearGradient gradientTransform="matrix(1.00587 0 0 .99417 100 0)" id="ButtonShadow-0" y1="92.54" y2="7.017" x2="0" gradientUnits="userSpaceOnUse">
<stop offset="0"/>
<stop offset="1" stop-opacity=".588"/>
</linearGradient>
<linearGradient id="linearGradient3737-1">
<stop offset="0" stop-color="#fff"/>
<stop offset="1" stop-color="#fff" stop-opacity="0"/>
</linearGradient>
<linearGradient id="linearGradient3923" xlink:href="#linearGradient3737-1" y1="6" y2="63.893" x2="0" gradientUnits="userSpaceOnUse"/>
<linearGradient gradientTransform="translate(0 -97)" id="linearGradient3721" xlink:href="#ButtonShadow-0" y1="6.132" y2="90.239" x2="0" gradientUnits="userSpaceOnUse"/>
<radialGradient cx="48" cy="90.172" gradientTransform="matrix(1.15731 0 0 .99591 -7.55102 .19713)" r="42" id="radialGradient2886" gradientUnits="userSpaceOnUse">
<stop offset="0" stop-color="#fff"/>
<stop offset="1" stop-color="#fff" stop-opacity="0"/>
</radialGradient>
</defs>
<path opacity=".08" fill="url(#linearGradient3780)" d="m12-95.0312c-5.5111,0-10.0312,4.5202-10.0312,10.0312v71c0,5.5111 4.5202,10.0312 10.0312,10.0312h72c5.5111,0 10.0312-4.5202 10.0312-10.0312v-71c0-5.5111-4.5202-10.0312-10.0312-10.0312h-72z" transform="scale(1 -1)"/>
<path opacity=".1" fill="url(#linearGradient3780)" d="m12-94.0312c-4.9716,0-9.0312,4.0596-9.0312,9.0312v71c0,4.9716 4.0596,9.0312 9.0312,9.0312h72c4.9716,0 9.0312-4.0596 9.0312-9.0312v-71c0-4.9716-4.0596-9.0312-9.0312-9.0312h-72z" transform="scale(1 -1)"/>
<path opacity=".2" fill="url(#linearGradient3780)" d="m12-93c-4.4091,0-8,3.5909-8,8v71c0,4.4091 3.5909,8 8,8h72c4.4091,0 8-3.5909 8-8v-71c0-4.4091-3.5909-8-8-8h-72z" transform="scale(1 -1)"/>
<path opacity=".3" fill="url(#linearGradient3780)" d="m12-92h72a7,7 0 0,1 7,7v71a7,7 0 0,1 -7,7h-72a7,7 0 0,1 -7-7v-71a7,7 0 0,1 7-7" transform="scale(1 -1)"/>
<path opacity=".45" fill="url(#linearGradient3721)" d="m12-91h72a6,6 0 0,1 6,6v72a6,6 0 0,1 -6,6h-72a6,6 0 0,1 -6-6v-72a6,6 0 0,1 6-6" transform="scale(1 -1)"/>
<path fill="url(#linearGradient3706)" d="m12,6h72a6,6 0 0,1 6,6v72a6,6 0 0,1 -6,6h-72a6,6 0 0,1 -6-6v-72a6,6 0 0,1 6-6"/>
<path opacity=".5" fill="url(#linearGradient3923)" d="m12,6c-3.324,0-6,2.676-6,6v2 68 2c0,.3347 .0413,.6507 .0938,.9688 .0487,.2956 .097,.5969 .1875,.875 .0099,.0304 .0209,.0636 .0312,.0938 .0989,.2878 .2349,.5475 .375,.8125 .1446,.2735 .3156,.5356 .5,.7812 .1844,.2456 .3738,.4735 .5938,.6875 .4399,.4281 .9429,.8145 1.5,1.0938 .2785,.1396 .5735,.2469 .875,.3438-.2562-.1002-.4867-.2363-.7188-.375-.0074-.0044-.0239,.0045-.0312,0-.0319-.0193-.0623-.0425-.0938-.0625-.1204-.0767-.231-.1635-.3438-.25-.1062-.0808-.2133-.1611-.3125-.25-.1779-.1614-.3475-.3454-.5-.5312-.1076-.1303-.2184-.2653-.3125-.4062-.0251-.0384-.0385-.0859-.0625-.125-.0648-.103-.1302-.2045-.1875-.3125-.101-.1947-.2057-.4157-.2812-.625-.008-.0218-.0236-.0405-.0312-.0625-.0318-.0919-.0358-.1868-.0625-.2812-.0303-.1066-.0704-.203-.0938-.3125-.0729-.3415-.125-.6982-.125-1.0625v-2-68-2c0-2.7818 2.2182-5 5-5h2 68 2c2.7818,0 5,2.2182 5,5v2 68 2c0,.3643-.0521,.721-.125,1.0625-.0442,.2069-.0884,.3977-.1562,.5938-.0077,.022-.0233,.0407-.0312,.0625-.0627,.1737-.1384,.3674-.2188,.5312-.0416,.0828-.079,.17-.125,.25-.0546,.0972-.1268,.1883-.1875,.2812-.0941,.141-.2049,.276-.3125,.4062-.1432,.1744-.3031,.347-.4688,.5-.0112,.0102-.02,.0212-.0312,.0312-.1384,.1256-.2851,.2344-.4375,.3438-.1026,.0731-.2043,.1534-.3125,.2188-.0074,.0045-.0238-.0044-.0312,0-.232,.1387-.4625,.2748-.7188,.375 .3015-.0968 .5965-.2041 .875-.3438 .5571-.2792 1.0601-.6657 1.5-1.0938 .22-.214 .4094-.4419 .5938-.6875 .1844-.2456 .3554-.5077 .5-.7812 .1401-.265 .2761-.5247 .375-.8125 .0104-.0308 .0213-.0627 .0312-.0938 .0905-.2781 .1388-.5794 .1875-.875 .0524-.318 .0938-.634 .0938-.9688v-2-68-2c0-3.324-2.676-6-6-6h-72z"/>
<path opacity=".4" fill="url(#radialGradient2886)" d="m12,90c-3.324,0-6-2.676-6-6v-2-68-2c0-.3347 .0413-.6507 .0938-.9688 .0487-.2956 .097-.5969 .1875-.875 .0099-.0304 .0209-.0636 .0312-.0938 .0989-.2878 .2349-.5475 .375-.8125 .1446-.2735 .3156-.5356 .5-.7812 .1844-.2456 .3738-.4735 .5938-.6875 .4399-.4281 .9429-.8145 1.5-1.0938 .2785-.1396 .5735-.2469 .875-.3438-.2562,.1002-.4867,.2363-.7188,.375-.0074,.0044-.0239-.0045-.0312,0-.0319,.0193-.0623,.0425-.0938,.0625-.1204,.0767-.231,.1635-.3438,.25-.1062,.0808-.2133,.1611-.3125,.25-.1779,.1614-.3475,.3454-.5,.5312-.1076,.1303-.2184,.2653-.3125,.4062-.0251,.0384-.0384,.0859-.0625,.125-.0648,.103-.1302,.2045-.1875,.3125-.101,.1947-.2057,.4157-.2812,.625-.008,.0218-.0236,.0405-.0312,.0625-.0318,.092-.0358,.1868-.0625,.2812-.0303,.1066-.0704,.203-.0938,.3125-.0729,.3415-.125,.6982-.125,1.0625v2 68 2c0,2.7818 2.2182,5 5,5h2 68 2c2.7818,0 5-2.2182 5-5v-2-68-2c0-.3643-.0521-.721-.125-1.0625-.0442-.2069-.0884-.3977-.1562-.5938-.0077-.022-.0233-.0407-.0312-.0625-.0627-.1737-.1384-.3674-.2188-.5312-.0416-.0828-.079-.17-.125-.25-.0546-.0972-.1268-.1883-.1875-.2812-.0941-.141-.2049-.276-.3125-.4062-.1432-.1745-.3031-.347-.4688-.5-.0112-.0102-.02-.0211-.0312-.0312-.1384-.1256-.2851-.2344-.4375-.3438-.1026-.0732-.2043-.1534-.3125-.2188-.0074-.0045-.0238,.0044-.0312,0-.232-.1387-.4625-.2748-.7188-.375 .3015,.0968 .5965,.2041 .875,.3438 .5571,.2792 1.0601,.6657 1.5,1.0938 .22,.214 .4094,.4419 .5938,.6875 .1844,.2456 .3554,.5077 .5,.7812 .1401,.265 .2761,.5247 .375,.8125 .0104,.0308 .0213,.0627 .0312,.0938 .0905,.2781 .1388,.5794 .1875,.875 .0524,.318 .0938,.634 .0938,.9688v2 68 2c0,3.324-2.676,6-6,6h-72z"/>
<path fill="#f0f" d="m-88,6h72a6,6 0 0,1 6,6v72a6,6 0 0,1 -6,6h-72a6,6 0 0,1 -6-6v-72a6,6 0 0,1 6-6"/>
<path fill="#fff" stroke="#000" stroke-linecap="round" color="#000" stroke-width=".5" d="m112,8h16v16h-16z" stroke-dashoffset="8.6"/>
<text x="131.393" y="11.969" font-family="Liberation Sans" text-align="start" line-height="125%" xml:space="preserve" font-size="4px"><tspan x="131.393" y="11.969">Width: 2px</tspan><tspan x="131.393" y="16.969">Blur: 12</tspan><tspan x="131.393" y="21.969">Opacity: 60</tspan>
</text>
<path fill="url(#linearGradient3713)" d="m48,24c-5.3447,0-9.6774,4.0084-9.6774,8.9531 .013,.5667 .0212,1.2137 .0806,1.9185-.8458,.447-.9561,2.1949-.2016,3.957 .2909,.6795 .6877,1.2316 1.0887,1.6787 .0134,.0149 .0269,.0254 .0403,.0399 .0957,.4656 .1665,.8338 .2823,1.359 .3586,1.0663 1.8403,3.0721 3.1452,4.7963 .1301,1.3301 .1408,2.6438-.121,4.1568-3.7557,3.0887-13.3612,4.4766-13.3468,7.6741l-1.2903,8.3136c0,1.7033 2.567,3.2629 6.6532,4.3167l.5645,2.2782a1.4053,1.393 0 0,0 .8871,.9193c.1814,.0696 .3094,.2167 .8065,.3597 2.6185,.7535 6.6056,1.279 11.0887,1.279 4.4831,0 8.5106-.5255 11.129-1.279 .4971-.143 .6251-.2902 .8064-.3597a1.4053,1.393 0 0,0 .8468-.8793l.6855-2.3982c3.9864-1.0521 6.5323-2.5574 6.5323-4.2367l-1.2903-8.3136c-.0153-2.7367-9.6774-4.4766-13.3871-7.6741-.1502-1.2248-.1571-2.4308-.0807-3.6372 1.1863-1.8139 2.7482-4.1354 3.1452-5.3159 .1459-.6113 .2093-1.0339 .3226-1.5588 .3503-.4244 .6688-.9149 .9274-1.5188 .7165-1.6734 .6496-3.2937-.0806-3.837 .051-.7271 .0996-1.417 .121-2.0384 0-4.9447-4.3327-8.9531-9.6774-8.9531z"/>
<path fill="#fff" d="m57.6562,33.4688c-.025,.486-.0559,.9914-.0938,1.5312 .0228,.017 .041,.0434 .0625,.0625 .0238-.3745 .0509-.7861 .0625-1.125 0-.1598-.0223-.311-.0312-.4688zm-19.3125,.0625c-.0073,.1426-.0312,.2932-.0312,.4375 .0064,.2785 .0205,.6229 .0312,.9375 .0195-.0122 .0422-.0205 .0625-.0312-.0419-.4968-.0519-.9123-.0625-1.3438zm-.5938,3.5625c-.1006,.7535 .0126,1.7576 .4375,2.75 .2909,.6795 .6928,1.2091 1.0938,1.6562 .0134,.0149 .0491,.0479 .0625,.0625 .0957,.4656 .1655,.8186 .2812,1.3438 .3586,1.0663 1.8202,3.057 3.125,4.7812 .0325,.3325 .0785,.6662 .0938,1 .0121-.6728-.0297-1.345-.0938-2-1.3048-1.7242-2.7664-3.7149-3.125-4.7812-.1157-.5252-.1855-.8782-.2812-1.3438-.0134-.0146-.0491-.0476-.0625-.0625-.401-.4471-.8028-.9768-1.0938-1.6562-.2544-.5943-.3748-1.2083-.4375-1.75zm20.3438,.0625c-.065,.5249-.2202,1.1071-.4688,1.6875-.2586,.604-.5559,1.0756-.9062,1.5-.1133,.5249-.1979,.9512-.3438,1.5625-.397,1.1805-1.9387,3.4986-3.125,5.3125-.0455,.7178-.0574,1.4347-.0312,2.1562 .0055-.3852 .0069-.7715 .0312-1.1562 1.1863-1.8139 2.728-4.132 3.125-5.3125 .1459-.6113 .2304-1.0376 .3438-1.5625 .3503-.4244 .6476-.896 .9062-1.5 .4199-.9807 .5628-1.9493 .4688-2.6875zm-30,30.1562l-.0938,.5312c0,1.7033 2.57,3.2587 6.6562,4.3125l.5625,2.2812a1.4053,1.393 0 0,0 .875,.9375c.1814,.0696 .3154,.2007 .8125,.3438 2.6185,.7535 6.6106,1.2812 11.0938,1.2812 4.4831,0 8.5065-.5277 11.125-1.2812 .4971-.143 .6311-.2742 .8125-.3438a1.4053,1.393 0 0,0 .8438-.9062l.6875-2.375c3.9864-1.0521 6.5312-2.5707 6.5312-4.25l-.0938-.5312c-.4272,1.4884-2.8282,2.8287-6.4375,3.7812l-.6875,2.375a1.4053,1.393 0 0,1 -.8438,.9062c-.1814,.0695-.3154,.2007-.8125,.3438-2.6185,.7535-6.6419,1.2812-11.125,1.2812-4.4831,0-8.4753-.5277-11.0938-1.2812-.4971-.143-.6311-.2742-.8125-.3438a1.4053,1.393 0 0,1 -.875-.9375l-.5625-2.2812c-3.6996-.9541-6.1312-2.3292-6.5625-3.8438z"/>
<path opacity=".2" d="m48,24c-5.3447,0-9.6875,4.0241-9.6875,8.9688 .0038,.1673 .0268,.3818 .0312,.5625 .2427-4.7448 4.4675-8.5312 9.6562-8.5312 5.1719,0 9.3886,3.7456 9.6562,8.4688 .0087-.1686 .0258-.3712 .0312-.5312 0-4.9447-4.3428-8.9375-9.6875-8.9375zm-9.6562,10.9062c-.5176,.3249-.7125,1.1616-.5938,2.1875 .078-.5844 .2868-1.0235 .6562-1.2188-.0302-.3585-.0514-.6432-.0625-.9688zm19.2812,.1562c-.0199,.3123-.0393,.6069-.0625,.9375 .3023,.2249 .4648,.6349 .5312,1.1562 .1166-.9412-.0405-1.7146-.4688-2.0938zm-14.7812,13.6562c-.0138,.6838-.0879,1.3685-.2188,2.125-3.7557,3.0887-13.3581,4.49-13.3438,7.6875l-1.2812,8.3125c0,.1612 .0487,.3105 .0938,.4688l1.1875-7.7812c-.0144-3.1975 9.588-4.5988 13.3438-7.6875 .1944-1.1233 .2621-2.1331 .2188-3.125zm10.375,.6562c-.0117,.8228-.0086,1.6345 .0938,2.4688 3.7097,3.1975 13.3909,4.9508 13.4062,7.6875l1.1875,7.7812c.0446-.1555 .0938-.3099 .0938-.4688l-1.2812-8.3125c-.0153-2.7367-9.6966-4.49-13.4062-7.6875-.0608-.4961-.0759-.9776-.0938-1.4688z"/>
<g stroke="#fff">
<path opacity=".6" fill="none" filter="url(#filter3747)" stroke-width="2" d="m-52,24c-5.3447,0-9.6774,4.0084-9.6774,8.9531 .013,.5667 .0212,1.2137 .0806,1.9185-.8458,.447-.9561,2.1949-.2016,3.957 .2909,.6795 .6877,1.2316 1.0887,1.6787 .0134,.0149 .0269,.0254 .0403,.0399 .0957,.4656 .1665,.8338 .2823,1.359 .3586,1.0663 1.8403,3.0721 3.1452,4.7963 .1301,1.3301 .1408,2.6438-.121,4.1568-3.7557,3.0887-13.3612,4.4766-13.3468,7.6741l-1.2903,8.3136c0,1.7033 2.567,3.2629 6.6532,4.3167l.5645,2.2782a1.4053,1.393 0 0,0 .8871,.9193c.1814,.0696 .3094,.2167 .8065,.3597 2.6185,.7535 6.6056,1.279 11.0887,1.279 4.4831,0 8.5106-.5255 11.129-1.279 .4971-.143 .6251-.2902 .8064-.3597a1.4053,1.393 0 0,0 .8468-.8793l.6855-2.3982c3.9864-1.0521 6.5323-2.5574 6.5323-4.2367l-1.2903-8.3136c-.0153-2.7367-9.6774-4.4766-13.3871-7.6741-.1502-1.2248-.1571-2.4308-.0807-3.6372 1.1863-1.8139 2.7482-4.1354 3.1452-5.3159 .1459-.6113 .2093-1.0339 .3226-1.5588 .3503-.4244 .6688-.9149 .9274-1.5188 .7165-1.6734 .6496-3.2937-.0806-3.837 .051-.7271 .0996-1.417 .121-2.0384 0-4.9447-4.3327-8.9531-9.6774-8.9531z" clip-path="url(#clipPath3743)" transform="translate(100)"/>
<path opacity=".5" fill="url(#linearGradient4052)" filter="url(#filter3794)" stroke-linecap="round" stroke-width=".5" d="m27,15h42a12,12 0 0,1 12,12v42a12,12 0 0,1 -12,12h-42a12,12 0 0,1 -12-12v-42a12,12 0 0,1 12-12" clip-path="url(#clipPath3613)"/>
</g>
</svg>
