<svg xmlns="http://www.w3.org/2000/svg" viewBox="0 0 96 96" xmlns:xlink="http://www.w3.org/1999/xlink">
<defs>
<linearGradient id="linearGradient4011" xlink:href="#linearGradient3317" y1="48" y2="8" x2="0" gradientUnits="userSpaceOnUse"/>
<linearGradient id="linearGradient3722" xlink:href="#linearGradient3737-1" y1="6" y2="63.893" x2="0" gradientUnits="userSpaceOnUse"/>
<linearGradient id="linearGradient4019" xlink:href="#linearGradient3700" y1="88" y2="40" x2="0" gradientUnits="userSpaceOnUse"/>
<linearGradient id="linearGradient4162" xlink:href="#linearGradient3700" y1="72" y2="7.601" x2="0" gradientUnits="userSpaceOnUse"/>
<linearGradient id="linearGradient4084" xlink:href="#linearGradient3700" y1="88" y2="40" x2="0" gradientUnits="userSpaceOnUse"/>
<linearGradient id="linearGradient3317">
<stop offset="0" stop-color="#6ab300"/>
<stop offset="1" stop-color="#9dcf00"/>
</linearGradient>
<linearGradient id="linearGradient3700">
<stop offset="0" stop-color="#e6e6e6"/>
<stop offset="1" stop-color="#f5f5f5"/>
</linearGradient>
<linearGradient gradientTransform="matrix(1.02381 0 0 1.0119 -1.14286 -98.07143)" id="linearGradient3780" xlink:href="#ButtonShadow-0" y1="6.132" y2="90.239" x2="0" gradientUnits="userSpaceOnUse"/>
<linearGradient gradientTransform="matrix(1.00587 0 0 .99417 100 0)" id="ButtonShadow-0" y1="92.54" y2="7.017" x2="0" gradientUnits="userSpaceOnUse">
<stop offset="0"/>
<stop offset="1" stop-opacity=".588"/>
</linearGradient>
<linearGradient id="linearGradient3737-1">
<stop offset="0" stop-color="#fff"/>
<stop offset="1" stop-color="#fff" stop-opacity="0"/>
</linearGradient>
<linearGradient gradientTransform="translate(0 -97)" id="linearGradient3721" xlink:href="#ButtonShadow-0" y1="6.132" y2="90.239" x2="0" gradientUnits="userSpaceOnUse"/>
<radialGradient cx="48" cy="90.172" gradientTransform="matrix(1.15731 0 0 .99591 -7.55102 .19713)" r="42" id="radialGradient2886" gradientUnits="userSpaceOnUse">
<stop offset="0" stop-color="#fff"/>
<stop offset="1" stop-color="#fff" stop-opacity="0"/>
</radialGradient>
<radialGradient cx="49.809" cy="48.003" gradientTransform="matrix(.72057 0 0 .70332 1.86772 2.56952)" r="39.062" id="radialGradient4128" gradientUnits="userSpaceOnUse">
<stop offset="0"/>
<stop offset="1" stop-opacity=".588"/>
</radialGradient>
</defs>
<path opacity=".08" fill="url(#linearGradient3780)" d="m12-95.0312c-5.5111,0-10.0312,4.5202-10.0312,10.0312v71c0,5.5111 4.5202,10.0312 10.0312,10.0312h72c5.5111,0 10.0312-4.5202 10.0312-10.0312v-71c0-5.5111-4.5202-10.0312-10.0312-10.0312h-72z" transform="scale(1 -1)"/>
<path opacity=".1" fill="url(#linearGradient3780)" d="m12-94.0312c-4.9716,0-9.0312,4.0596-9.0312,9.0312v71c0,4.9716 4.0596,9.0312 9.0312,9.0312h72c4.9716,0 9.0312-4.0596 9.0312-9.0312v-71c0-4.9716-4.0596-9.0312-9.0312-9.0312h-72z" transform="scale(1 -1)"/>
<path opacity=".2" fill="url(#linearGradient3780)" d="m12-93c-4.4091,0-8,3.5909-8,8v71c0,4.4091 3.5909,8 8,8h72c4.4091,0 8-3.5909 8-8v-71c0-4.4091-3.5909-8-8-8h-72z" transform="scale(1 -1)"/>
<path opacity=".3" fill="url(#linearGradient3780)" d="m12-92h72a7,7 0 0,1 7,7v71a7,7 0 0,1 -7,7h-72a7,7 0 0,1 -7-7v-71a7,7 0 0,1 7-7" transform="scale(1 -1)"/>
<path opacity=".45" fill="url(#linearGradient3721)" d="m12-91h72a6,6 0 0,1 6,6v72a6,6 0 0,1 -6,6h-72a6,6 0 0,1 -6-6v-72a6,6 0 0,1 6-6" transform="scale(1 -1)"/>
<path fill="#f0f" d="m-88,6h72a6,6 0 0,1 6,6v72a6,6 0 0,1 -6,6h-72a6,6 0 0,1 -6-6v-72a6,6 0 0,1 6-6"/>
<path fill="#fff" stroke="#000" stroke-linecap="round" color="#000" stroke-width=".5" d="m112,8h16v16h-16z" stroke-dashoffset="8.6"/>
<text x="131.393" y="11.969" font-family="Liberation Sans" text-align="start" line-height="125%" xml:space="preserve" font-size="4px"><tspan x="131.393" y="11.969">Width: 2px</tspan><tspan x="131.393" y="16.969">Blur: 12</tspan><tspan x="131.393" y="21.969">Opacity: 60</tspan>
</text>
<g fill-rule="evenodd">
<path fill="#ccc" d="m-28.4062,123.9688c-.2082,.003-.4242,.0126-.6562,.0312-11.2103,.9045-.7955,7.1732-2.7188,13.4688-1.845,3.249-10.3648-.3698-20.75,1.5312-.4737-3-.3962-2.9207-.75-5.3125-.0678-.0905-.1538-.1887-.2188-.2812 1.0814,5.9124 2.0442,12.2299 1.7812,18.1875-.4713,10.6774 6.9645-2.1987 12.0625,1.375 5.7497,4.0305 1.7677,13.9186-5.75,9.4375-12.1207-7.2248-10.8625,7.7414-10.6562,15.3125 .0236,.8668-.0847,1.6216-.2812,2.2812l32.3438,0h7.4688 .5312c3.324,0 6-2.676 6-6v-.5312-5.4688-30.7812c-.7844,.1681-1.6756,.2995-2.75,.3125-4.0498,.0489-13.946,4.3055-13.9375-2.2188 .0051-3.9278 4.7352-11.4237-1.7188-11.3438z"/>
<path fill="#999" d="m-55.4375,96c-.7945,5.5626-.247,13.7956 3.9375,14.0625 4.3661,.2785 9.7148-4.4773 11.9375,.9062 1.8887,4.5745-.1802,8.4068-5.9688,7.9375-3.7153-.3012-9.2517-7.1751-9.5312,1.7188-.1323,4.2089 .7492,7.9378 1.4375,12.5625 .1147,.1575 .2269,.3442 .3438,.5 .3538,2.3918 .2763,2.3125 .75,5.3125 10.3852-1.9011 18.905,1.7177 20.75-1.5312 1.9232-6.2955-8.4915-12.5642 2.7188-13.4688 7.4258-.5992 2.3803,7.258 2.375,11.3125-.0085,6.5243 9.8877,2.2676 13.9375,2.2188 1.0744-.013 1.9656-.1444 2.75-.3125v-25.2188-9.4688-.5312c0-3.324-2.676-6-6-6h-.5312-7.4688-31.4375z"/>
<path fill="#333" d="m-54.25,129.4375c.217,1.2951 .4484,2.6335 .6562,4.0625-4.0907-.3423-9.343-1.8825-12.8438-.5625-4.5913,1.7312-2.4704,7.3653-2.2188,11.3438 .3388,5.357-4.2555,6.0483-8.7188,5.2188-5.8361-1.0847-2.5219-4.9963-.0312-8.625 2.1087-3.0722 .1576-7.1982-5.0312-7.9375-3.8016-.5416-7.7564,.0766-11.5625-.6875v35.75 5.4688 .5312c0,3.324 2.676,6 6,6h.5312 7.1562 23.9375c.201-.6643 .3363-1.407 .3125-2.2812-.2063-7.5711-1.4644-22.5373 10.6562-15.3125 7.5177,4.4811 11.4997-5.407 5.75-9.4375-5.098-3.5737-12.5338,9.3024-12.0625-1.375 .3226-7.3083-1.218-15.1847-2.5312-22.1562z"/>
<path fill="#666" d="m-88,96c-3.324,0-6,2.676-6,6v.5312 9.4688 20.25c3.8057,.7634 7.7609,.1459 11.5625,.6875 5.1888,.7393 7.1399,4.8653 5.0312,7.9375-2.4906,3.6287-5.8048,7.5403 .0312,8.625 4.4632,.8296 9.0576,.1382 8.7188-5.2188-.2516-3.9785-2.3726-9.6125 2.2188-11.3438 3.5007-1.32 8.753,.2202 12.8438,.5625-.6933-4.7672-1.604-8.5736-1.4688-12.875 .2796-8.8939 5.816-2.02 9.5312-1.7188 5.7885,.4693 7.8574-3.363 5.9688-7.9375-2.2227-5.3835-7.5714-.6278-11.9375-.9062-4.1842-.2669-4.7633-8.5003-3.9688-14.0625h-24.8438-7.1562-.5312z"/>
<path fill="url(#linearGradient4019)" d="m71.5938,33.9688c-.2082,.003-.4242,.0126-.6562,.0312-11.2103,.9045-.7955,7.1732-2.7188,13.4688-1.845,3.249-10.3648-.3698-20.75,1.5312-.4737-3-.3962-2.9207-.75-5.3125-.0678-.0905-.1538-.1887-.2188-.2812 1.0814,5.9124 2.0442,12.2299 1.7812,18.1875-.4713,10.6774 6.9645-2.1987 12.0625,1.375 5.7497,4.0305 1.7677,13.9186-5.75,9.4375-12.1207-7.2248-10.8625,7.7414-10.6562,15.3125 .0236,.8668-.0847,1.6216-.2812,2.2812l32.3438,.0001h7.4688 .5312c3.324,0 6-2.676 6-6v-.5312-5.4688-30.7812c-.7844,.1681-1.6756,.2995-2.75,.3125-4.0498,.0489-13.946,4.3055-13.9375-2.2188 .0051-3.9278 4.7352-11.4237-1.7188-11.3438z"/>
<path fill="url(#linearGradient4011)" d="m44.5625,6c-.7945,5.5626-.247,13.7956 3.9375,14.0625 4.3661,.2785 9.7148-4.4773 11.9375,.9062 1.8887,4.5745-.1802,8.4068-5.9688,7.9375-3.7153-.3012-9.2517-7.1751-9.5312,1.7188-.1323,4.2089 .7492,7.9378 1.4375,12.5625 .1147,.1576 .2269,.3442 .3438,.5 .3538,2.3918 .2763,2.3125 .75,5.3125 10.3852-1.9011 18.905,1.7177 20.75-1.5312 1.9232-6.2955-8.4915-12.5642 2.7188-13.4688 7.4258-.5992 2.3803,7.258 2.375,11.3125-.0085,6.5243 9.8877,2.2676 13.9375,2.2188 1.0744-.013 1.9656-.1444 2.75-.3125v-25.2188-9.4688-.5312c0-3.324-2.676-6-6-6h-.5312-7.4688-31.4375z"/>
<path fill="url(#linearGradient4084)" d="m45.75,39.4375c.217,1.2951 .4484,2.6335 .6562,4.0625-4.0907-.3423-9.343-1.8825-12.8438-.5625-4.5913,1.7312-2.4704,7.3653-2.2188,11.3438 .3388,5.357-4.2555,6.0483-8.7188,5.2188-5.8361-1.0847-2.5219-4.9963-.0312-8.625 2.1087-3.0722 .1576-7.1982-5.0312-7.9375-3.8016-.5416-7.7564,.0766-11.5625-.6875v35.75 5.4688 .5312c0,3.324 2.676,6 6,6h.5312 7.1562 23.9375c.201-.6643 .3363-1.407 .3125-2.2812-.2063-7.5711-1.4644-22.5373 10.6562-15.3125 7.5177,4.4811 11.4997-5.407 5.75-9.4375-5.098-3.5737-12.5338,9.3024-12.0625-1.375 .3226-7.3083-1.218-15.1847-2.5312-22.1562z"/>
<path fill="url(#linearGradient4162)" d="m12,6c-3.324,0-6,2.676-6,6v.5312 9.4688 20.25c3.8057,.7634 7.7609,.1459 11.5625,.6875 5.1888,.7393 7.1399,4.8653 5.0312,7.9375-2.4906,3.6287-5.8048,7.5403 .0312,8.625 4.4632,.8295 9.0576,.1382 8.7188-5.2188-.2516-3.9785-2.3726-9.6125 2.2188-11.3438 3.5007-1.32 8.753,.2202 12.8438,.5625-.6933-4.7672-1.604-8.5736-1.4688-12.875 .2796-8.8939 5.816-2.02 9.5312-1.7188 5.7885,.4693 7.8574-3.363 5.9688-7.9375-2.2227-5.3835-7.5714-.6278-11.9375-.9062-4.1842-.2669-4.7633-8.5003-3.9688-14.0625h-24.8438-7.1562-.5312z"/>
</g>
<path opacity=".3" fill="url(#radialGradient4128)" line-height="normal" color="#000" d="m43.5312,6c-.4101,2.8698-.4739,6.3967 .125,9.3403 .2994,1.4718 .7499,2.8069 1.5,3.8736 .7501,1.0666 1.91,1.8493 3.2812,1.9368 2.5667,.1636 5.0162-1.0269 7-1.4682 .9919-.2207 1.8124-.2745 2.4062-.0625 .5938,.212 1.0849,.6243 1.5625,1.7806 .8511,2.0606 .7543,3.7695 0,4.8732-.7543,1.1037-2.2591,1.839-4.9062,1.6244-.6334-.0513-1.5783-.4377-2.5938-.9684-1.0155-.5307-2.0951-1.1581-3.1875-1.5307-.5462-.1863-1.1191-.2888-1.7188-.2499-.5996,.0389-1.2082,.2521-1.6875,.7185-.9586,.9327-1.3332,2.4265-1.4062,4.7482-.1252,3.9831 .6326,7.5608 1.2812,11.6207-1.6661-.2113-3.3989-.4718-5.25-.6872-2.3119-.2691-4.634-.3561-6.6562,.4061-1.3377,.5042-2.3246,1.3362-2.875,2.3741-.5504,1.0379-.7123,2.2193-.7188,3.3737-.013,2.3089 .603,4.7311 .7188,6.5601 .1501,2.3724-.608,3.317-1.9375,3.9048-1.3295,.5878-3.4526,.6107-5.5625,.2187-1.3267-.2465-1.9504-.6796-2.1875-.9684-.2371-.2888-.2785-.534-.125-1.1246 .3069-1.1811 1.7073-3.0673 2.9688-4.9044 1.2525-1.8241 1.299-4.118 .25-5.9353-1.049-1.8173-3.1422-3.1586-5.9688-3.5612-3.9892-.5682-7.9208,.0242-11.4688-.6872l-.375,2.0305c4.0259,.8073 7.986,.1466 11.5625,.656 2.3367,.3328 3.7845,1.4075 4.4688,2.5928 .6842,1.1853 .6896,2.5167-.1562,3.7486-1.2169,1.7723-2.7472,3.5944-3.25,5.5292-.2514,.9674-.1718,2.1112 .5312,2.9676 .7031,.8564 1.8293,1.3626 3.4062,1.6556 2.3313,.4331 4.7396,.5313 6.7188-.3436 1.9791-.875 3.3433-2.9791 3.1562-5.9353-.1347-2.1285-.6983-4.4828-.6875-6.4039 .0054-.9605 .1379-1.7814 .4688-2.4054 .3308-.6239 .8034-1.0802 1.75-1.437 1.4612-.5508 3.4928-.5366 5.6875-.2811 1.9627,.2284 4.0312,.605 5.9688,.8122 .7465,4.4631 1.647,11.5454 1.625,17.0249-.0001,.0195 .0001,.043 0,.0625-.0554,1.3423 .0154,2.3993 .2188,3.2176 .2073,.8343 .6102,1.5277 1.3125,1.8743 .7023,.3466 1.4338,.2439 2.0625,.0312 .6287-.2127 1.2475-.5674 1.875-.9372 1.2551-.7394 2.6049-1.62 3.8438-2.093 1.2388-.473 2.2189-.5631 3.1562,.0937 2.4488,1.716 2.7435,4.6276 1.75,6.5913-.4968,.9818-1.3121,1.6917-2.3438,1.968-1.0317,.2763-2.3681,.1349-4.0625-.8747-3.1414-1.8718-5.634-2.4453-7.625-1.8118-1.991,.6334-3.145,2.4211-3.7812,4.4671-1.2724,4.092-.8516,9.7051-.75,13.4325 .021,.7688-.0576,1.4586-.2188,1.9993l1.9375,.5623c.23-.7717 .3698-1.6371 .3438-2.5928-.1037-3.8035-.4416-9.3465 .625-12.7765 .5333-1.715 1.3396-2.7859 2.5-3.1551 1.1604-.3692 3.0172-.0971 5.9062,1.6244 2.0459,1.2191 4.016,1.5014 5.6562,1.0621 1.6402-.4393 2.9062-1.5468 3.625-2.9676 1.4377-2.8416 .835-6.8909-2.4375-9.1841-1.5991-1.1205-3.4708-.9394-5.0312-.3436-1.5604,.5958-2.9551,1.5599-4.125,2.2492-.585,.3446-1.0979,.6243-1.4688,.7497-.3708,.1254-.4955,.096-.5,.0937-.0045-.0022-.1539-.0812-.2812-.5935-.1273-.5123-.2125-1.3821-.1562-2.6553v-.0312c.0193-3.701-.3677-7.779-.8438-11.5894 4.6923-.7352 9.0079-.4377 12.4688-.1874 1.8289,.1323 3.4157,.2257 4.7812,.0625 1.3655-.1632 2.6469-.6713 3.3125-1.8431l.0625-.125 .0312-.0937c1.1348-3.7134-1.276-7.1126-2.1562-9.3715-.2201-.5647-.3245-1.0298-.3438-1.3745-.0193-.3447 .0363-.5542 .1875-.7497 .3023-.3911 1.412-.9708 4.0938-1.1871 .1842-.0149 .4135,.0027 .625,0 1.41-.0174 1.8207,.2937 2.0625,.6872 .2418,.3936 .3299,1.1795 .1562,2.2492-.3472,2.1393-1.5907,4.9462-1.5938,7.3098-.0024,1.8799 .8679,3.294 2.1562,3.9673 1.2884,.6732 2.8047,.7279 4.375,.5935 3.1406-.2687 6.7072-1.3231 8.375-1.3432 1.1338-.0137 2.1233-.1313 2.9688-.3124l-.4375-1.9993c-.7157,.1533-1.5581,.269-2.5625,.2811-2.3621,.0285-5.7105,1.1046-8.5,1.3433-1.3948,.1193-2.5993,.0127-3.2812-.3436-.682-.3564-1.0643-.8218-1.0625-2.1867 .0019-1.5434 1.1498-4.4237 1.5625-6.9662 .2063-1.2712 .2714-2.5832-.4062-3.6861-.6777-1.103-2.0427-1.6779-3.8438-1.6556-.2028,.0024-.4724,.0089-.75,.0312-2.8957,.2336-4.6114,.769-5.5625,1.9993-.4755,.6151-.6327,1.3656-.5938,2.0617 .0389,.6961 .241,1.3659 .5,2.0305 1.0148,2.6043 2.7228,5.3636 2.0625,7.8721-.2611,.4033-.6781,.6603-1.6875,.781-1.0635,.1271-2.5942,.0373-4.4062-.0937-3.3782-.2443-7.8195-.5484-12.7188,.1874-.2707-1.5488-.4056-2.0311-.6875-3.936h-.0312c-.0014-.0086 .0014-.0227 0-.0312l-.0938,.0312-.0938-.5623c-.6975-4.7946-1.5981-8.5393-1.4688-12.6516 .0661-2.1016 .5097-3.0782 .7812-3.3425 .1358-.1321 .2323-.1741 .4375-.1874 .2052-.0133 .5131,.0533 .9062,.1874 .7864,.2682 1.8056,.8468 2.875,1.4057 1.0694,.5589 2.1912,1.1198 3.4062,1.2183 3.1128,.2523 5.5021-.7045 6.75-2.5303 1.2479-1.8258 1.2471-4.2891 .2188-6.7787-.6283-1.5212-1.6173-2.5208-2.7812-2.9364-1.164-.4156-2.3703-.2895-3.5312-.0312-2.3218,.5165-4.6596,1.5503-6.4375,1.437-.7105-.0453-1.2161-.3787-1.7188-1.0933-.5026-.7147-.9234-1.8258-1.1875-3.1238-.5282-2.596-.4743-5.9276-.0938-8.5906l-2.0312-.3124z"/>
<g fill-rule="evenodd">
<g fill="#fff">
<path d="m71.5938,34.9688c-.1873,.0027-.3522,.0144-.5625,.0312-2.6982,.2177-3.8752,.8157-4.1875,1.2188-.1561,.2015-.207,.3689-.1875,.7188 .0073,.1312 .0556,.3017 .0938,.4688 .0288-.0602 .0469-.127 .0938-.1875 .3123-.403 1.4893-1.001 4.1875-1.2188 .2103-.0169 .3752-.0286 .5625-.0312 1.422-.0176 1.9054,.3117 2.1562,.7188 .1018,.1652 .154,.4014 .1875,.6875 .0694-.7727 .0139-1.3608-.1875-1.6875-.2509-.407-.7342-.7364-2.1562-.7188zm.75,11.0312c-.0045,.1037-.0311,.2104-.0312,.3125-.0024,1.883 .8698,3.3273 2.1562,4 1.2864,.6727 2.7995,.6972 4.375,.5625 3.151-.2694 6.7208-1.3234 8.4062-1.3438 .6767-.0082 1.1903-.1091 1.75-.1875v-1c-.5597,.0784-1.0733,.1793-1.75,.1875-1.6854,.0204-5.2553,1.0743-8.4062,1.3438-1.5755,.1347-3.0886,.1102-4.375-.5625-1.1256-.5887-1.9421-1.7654-2.125-3.3125zm-2.875,.375c-.0412,.4536-.1393,.9104-.2812,1.375a.9972,.9972 0 0,1 -.0938,.2188c-.6632,1.1679-1.9444,1.6786-3.3125,1.8438-1.3681,.1651-2.9748,.0686-4.8125-.0625-3.4588-.2467-7.7787-.5679-12.4688,.1562 .0448,.3226 .0823,.6459 .125,.9688 4.6409-.6989 8.9163-.3694 12.3438-.125 1.8377,.1311 3.4444,.2276 4.8125,.0625 1.3681-.1651 2.6493-.6758 3.3125-1.8438a.9972,.9972 0 0,0 .0938-.2188c.2468-.8079 .3171-1.6041 .2812-2.375zm-20.1562,13.7812c-.0041,.4856-.0099,.9851-.0312,1.4688-.0171,.3868-.0059,.6803 0,1 .0362-.8202 .0429-1.6434 .0312-2.4688zm14.75,8.5c-.0646,.932-.3111,1.8467-.7188,2.6562-.7166,1.4229-1.9862,2.5914-3.625,3.0312-1.6388,.4398-3.5738,.1289-5.625-1.0938-2.9066-1.7326-4.8231-2.0007-6-1.625-1.1769,.3757-1.9628,1.4569-2.5,3.1875-.6006,1.9351-.7692,4.5397-.7812,7.125 .0496-2.2426 .2587-4.4415 .7812-6.125 .5372-1.7306 1.3231-2.8118 2.5-3.1875 1.1769-.3757 3.0934-.1076 6,1.625 2.0512,1.2227 3.9862,1.5336 5.625,1.0938 1.6388-.4398 2.9084-1.6083 3.625-3.0312 .5552-1.1024 .81-2.3711 .7188-3.6562zm-19.1562,19.2812c-.0217,.3733-.0785,.7054-.125,1.0625h.125c.0079-.1024 .0343-.2014 .0312-.3125-.0063-.2294-.0238-.5087-.0312-.75z"/>
<path d="m7.0312,43.375 0,1c3.6111,.4845 7.1572,.1353 10.375,.5938 2.3445,.334 3.8141,1.4086 4.5,2.5938 .2341,.4045 .3689,.8258 .4375,1.25 .1257-.7656-.02-1.5287-.4375-2.25-.6859-1.1851-2.1555-2.2597-4.5-2.5938-3.2178-.4585-6.7639-.1093-10.375-.5938zm29.5,.0938c-.9714,.0333-1.8616,.1615-2.5938,.4375-.9485,.3576-1.4508,.8466-1.7812,1.4688-.3305,.6221-.4632,1.4445-.4688,2.4062-.0006,.0984 .0289,.2119 .0312,.3125 .0552-.6662 .1897-1.2521 .4375-1.7188 .3305-.6221 .8328-1.1111 1.7812-1.4688 1.4642-.5521 3.5167-.5371 5.7188-.2812 1.9441,.2259 3.9505,.5999 5.875,.8125 .8688,4.8448 1.6838,9.8625 1.75,14.6875 .0446-5.1302-.8208-10.5062-1.75-15.6875-1.9245-.2126-3.9309-.5866-5.875-.8125-1.101-.1279-2.1536-.1895-3.125-.1562zm-4.1562,11.8125c-.1593,2.4038-1.4102,4.0999-3.1562,4.875-1.9955,.8859-4.4354,.811-6.7812,.375-1.5871-.295-2.7281-.789-3.4375-1.6562-.348-.4255-.5459-.9281-.625-1.4375-.0976,.8345 .0486,1.7328 .625,2.4375 .7094,.8673 1.8504,1.3613 3.4375,1.6562 2.3459,.436 4.7857,.5109 6.7812-.375 1.9808-.8794 3.3208-2.9327 3.1562-5.875zm25.9375,8.0625c-.5089-.0008-1.0664,.1375-1.6875,.375-1.2423,.4749-2.6129,1.3805-3.875,2.125-.6311,.3722-1.241,.6913-1.875,.9062-.634,.2149-1.3816,.351-2.0938,0-.7121-.351-1.1346-1.096-1.3438-1.9375-.1046-.4207-.1591-.8727-.1875-1.4062-.0089,.9488 .0262,1.7573 .1875,2.4062 .2091,.8415 .6316,1.5865 1.3438,1.9375 .7121,.351 1.4598,.2149 2.0938,0 .634-.2149 1.2439-.534 1.875-.9062 1.2621-.7445 2.6327-1.6501 3.875-2.125 1.2423-.4749 2.1888-.5625 3.125,.0938 1.468,1.0291 2.1426,2.4834 2.25,3.9062 .1998-1.7125-.4311-3.6312-2.25-4.9062-.4681-.3281-.9286-.468-1.4375-.4688zm-15.5625,18.5312c-.0477,2.1841 .0637,4.2875 .125,6.0938 .0052-.0766 .0335-.1356 .0312-.2188-.0456-1.6726-.1618-3.7463-.1562-5.875z"/>
<path d="m43.1562,11.375c-.0176,1.6605 .0918,3.3332 .4062,4.875 .3035,1.4879 .7666,2.85 1.5312,3.9375 .7647,1.0875 1.9381,1.8791 3.3438,1.9688 2.6117,.1666 5.0857-1.0285 7.0625-1.4688 .9884-.2201 1.8028-.2672 2.375-.0625 .5722,.2047 1.0574,.6335 1.5312,1.7812 .3181,.7704 .4968,1.5031 .5625,2.1562 .0921-.8986-.0676-1.9576-.5625-3.1562-.4739-1.1478-.9591-1.5766-1.5312-1.7812-.5722-.2047-1.3866-.1576-2.375,.0625-1.9768,.4402-4.4508,1.6353-7.0625,1.4688-1.4057-.0897-2.5791-.8813-3.3438-1.9688-.7647-1.0875-1.2278-2.4496-1.5312-3.9375-.2508-1.2298-.3756-2.5508-.4062-3.875zm.6875,20.6875c-.0513,3.4583 .4923,6.6506 1.0625,10.125 .0615,.0081 .1262,.0234 .1875,.0312-.5649-3.5493-1.1855-6.7414-1.25-10.1562zm-14.2812,16.0938c-.0107,.1967-.0301,.3957-.0312,.5938-.0132,2.2967 .5898,4.6838 .7188,6.5 .0139-.2795 .0212-.5713 0-.9062-.1088-1.7202-.6348-3.9808-.6875-6.1875zm-5.0625,.5625c-.0845,.96-.4133,1.9264-1,2.7812-1.27,1.8503-2.6342,3.7791-2.9375,4.9375-.1283,.4901-.1037,.7168 .0312,.9375 .3342-1.1643 1.6585-3.0571 2.9062-4.875 .7909-1.1523 1.1186-2.4954 1-3.7812z"/>
</g>
<path opacity=".6" fill="#d4ff2a" d="m62.0938,24.5625c-.0731,1.0391-.3701,2.0129-.9375,2.8438-1.2508,1.8316-3.6553,2.7535-6.7812,2.5-1.2187-.0988-2.3334-.6568-3.4062-1.2188-1.0729-.562-2.0859-1.1363-2.875-1.4062-.3945-.135-.7312-.2009-.9375-.1875-.2063,.0134-.3003,.0536-.4375,.1875-.2744,.2678-.7148,1.2609-.7812,3.375-.0106,.3387-.0027,.6657 0,1 .0665-2.1141 .5068-3.1072 .7812-3.375 .1372-.1339 .2312-.1741 .4375-.1875 .2063-.0134 .543,.0525 .9375,.1875 .7891,.27 1.8021,.8443 2.875,1.4062 1.0729,.562 2.1875,1.1199 3.4062,1.2188 3.126,.2535 5.5304-.6684 6.7812-2.5 .7483-1.0958 1.0377-2.4182 .9375-3.8438zm13.875,12.75c-.0177,.2477-.0282,.5038-.0625,.75-.3663,2.629-1.5604,5.6433-1.5625,7.25-.0003,.2206 .0137,.3846 .0312,.5625 .1709-1.6764 1.1954-4.4021 1.5312-6.8125 .0812-.5831 .1092-1.1765 .0625-1.75zm-11.2812,.0312c-.0362,.2452-.0444,.4829-.0312,.7188 .0388,.6977 .2401,1.3646 .5,2.0312 .8059,2.0668 2.0575,4.2413 2.2188,6.3125 .2703-2.358-1.283-4.9127-2.2188-7.3125-.2256-.5785-.3994-1.1512-.4688-1.75z"/>
</g>
<path opacity=".4" fill="url(#radialGradient2886)" d="m12,90c-3.324,0-6-2.676-6-6v-2-68-2c0-.3347 .0413-.6507 .0938-.9688 .0487-.2956 .097-.5969 .1875-.875 .0099-.0304 .0209-.0636 .0312-.0938 .0989-.2878 .2349-.5475 .375-.8125 .1446-.2735 .3156-.5356 .5-.7812 .1844-.2456 .3738-.4735 .5938-.6875 .4399-.4281 .9429-.8145 1.5-1.0938 .2785-.1396 .5735-.2469 .875-.3438-.2562,.1002-.4867,.2363-.7188,.375-.0074,.0044-.0239-.0045-.0312,0-.0319,.0193-.0623,.0425-.0938,.0625-.1204,.0767-.231,.1635-.3438,.25-.1062,.0808-.2133,.1611-.3125,.25-.1779,.1614-.3475,.3454-.5,.5312-.1076,.1303-.2184,.2653-.3125,.4062-.0251,.0384-.0384,.0859-.0625,.125-.0648,.103-.1302,.2045-.1875,.3125-.101,.1947-.2057,.4157-.2812,.625-.008,.0218-.0236,.0405-.0312,.0625-.0318,.092-.0358,.1868-.0625,.2812-.0303,.1066-.0704,.203-.0938,.3125-.0729,.3415-.125,.6982-.125,1.0625v2 68 2c0,2.7818 2.2182,5 5,5h2 68 2c2.7818,0 5-2.2182 5-5v-2-68-2c0-.3643-.0521-.721-.125-1.0625-.0442-.2069-.0884-.3977-.1562-.5938-.0077-.022-.0233-.0407-.0312-.0625-.0627-.1737-.1384-.3674-.2188-.5312-.0416-.0828-.079-.17-.125-.25-.0546-.0972-.1268-.1883-.1875-.2812-.0941-.141-.2049-.276-.3125-.4062-.1432-.1745-.3031-.347-.4688-.5-.0112-.0102-.02-.0211-.0312-.0312-.1384-.1256-.2851-.2344-.4375-.3438-.1026-.0732-.2043-.1534-.3125-.2188-.0074-.0045-.0238,.0044-.0312,0-.232-.1387-.4625-.2748-.7188-.375 .3015,.0968 .5965,.2041 .875,.3438 .5571,.2792 1.0601,.6657 1.5,1.0938 .22,.214 .4094,.4419 .5938,.6875 .1844,.2456 .3554,.5077 .5,.7812 .1401,.265 .2761,.5247 .375,.8125 .0104,.0308 .0213,.0627 .0312,.0938 .0905,.2781 .1388,.5794 .1875,.875 .0524,.318 .0938,.634 .0938,.9688v2 68 2c0,3.324-2.676,6-6,6h-72z"/>
<path opacity=".35" fill="url(#linearGradient3722)" d="m44.5625,6c-.0907,.6353-.1352,1.3108-.1875,2h37.625 2c2.7818,0 5,2.2182 5,5v2 32.375c.3423-.0495 .6946-.0908 1-.1562v-25.2188-8-1.4688-.5312c0-.2078-.0108-.4228-.0312-.625-.3062-3.0329-2.8525-5.375-5.9688-5.375h-39.4375z"/>
<path opacity=".5" fill="url(#linearGradient3722)" d="m12,6c-3.324,0-6,2.676-6,6v2 68 2c0,.3347 .0413,.6507 .0938,.9688 .0487,.2956 .097,.5969 .1875,.875 .0099,.0304 .0209,.0636 .0312,.0938 .0989,.2878 .2349,.5475 .375,.8125 .1446,.2735 .3156,.5356 .5,.7812 .1844,.2456 .3738,.4735 .5938,.6875 .4399,.4281 .9429,.8145 1.5,1.0938 .2785,.1396 .5735,.2469 .875,.3438-.2562-.1002-.4867-.2363-.7188-.375-.0074-.0044-.0239,.0045-.0312,0-.0319-.0193-.0623-.0425-.0938-.0625-.1204-.0767-.231-.1635-.3438-.25-.1062-.0808-.2133-.1611-.3125-.25-.1779-.1614-.3475-.3454-.5-.5312-.1076-.1303-.2184-.2653-.3125-.4062-.0251-.0384-.0385-.0859-.0625-.125-.0648-.103-.1302-.2045-.1875-.3125-.101-.1947-.2057-.4157-.2812-.625-.008-.0218-.0236-.0405-.0312-.0625-.0318-.0919-.0358-.1868-.0625-.2812-.0303-.1066-.0704-.203-.0938-.3125-.0729-.3415-.125-.6982-.125-1.0625v-2-68-2c0-2.7818 2.2182-5 5-5h2 30.375c.0523-.6892 .0968-1.3647 .1875-2h-32.5625zm78,41.2188c-.3054,.0654-.6577,.1068-1,.1562v35.625 2c0,.3643-.0521,.721-.125,1.0625-.0442,.2069-.0884,.3977-.1562,.5938-.0077,.022-.0233,.0407-.0312,.0625-.0627,.1737-.1384,.3674-.2188,.5312-.0416,.0828-.079,.17-.125,.25-.0546,.0972-.1268,.1883-.1875,.2812-.0941,.141-.2049,.276-.3125,.4062-.1432,.1744-.3031,.347-.4688,.5-.0112,.0102-.02,.0212-.0312,.0312-.1384,.1256-.2851,.2344-.4375,.3438-.1026,.0731-.2043,.1534-.3125,.2188-.0074,.0045-.0238-.0044-.0312,0-.232,.1387-.4625,.2748-.7188,.375 .3015-.0968 .5965-.2041 .875-.3438 .5571-.2792 1.0601-.6657 1.5-1.0938 .22-.214 .4094-.4419 .5938-.6875 .1844-.2456 .3554-.5077 .5-.7812 .1401-.265 .2761-.5247 .375-.8125 .0104-.0308 .0213-.0627 .0312-.0938 .0905-.2781 .1388-.5794 .1875-.875 .0524-.318 .0938-.634 .0938-.9688v-2-34.7812z"/>
</svg>
