<svg xmlns="http://www.w3.org/2000/svg" viewBox="0 0 96 96" xmlns:xlink="http://www.w3.org/1999/xlink">
<defs>
<clipPath id="clipPath3782">
<path fill="#f0f" d="m-98,6c-3.324,0-6,2.676-6,6v72c0,3.324 2.676,6 6,6h72c3.324,0 6-2.676 6-6v-72c0-3.324-2.676-6-6-6h-72zm59.0625,12c.601-.0091 .9375,.0312 .9375,.0312v12.0625c-12.0511,.2118-15,11.9688-15,11.9688h9.0625v12.0625h-14.0938c-8.4766,26.1519-27.9688,23.8125-27.9688,23.8125v-12.0625c0,0 12.3761,2.2983 18.6875-20.75 6.9081-25.2274 24.168-27.0613 28.375-27.125z"/>
</clipPath>
<clipPath id="clipPath3613">
<path fill="#fff" d="m12,6h72a6,6 0 0,1 6,6v72a6,6 0 0,1 -6,6h-72a6,6 0 0,1 -6-6v-72a6,6 0 0,1 6-6"/>
</clipPath>
<filter width="1.384" x="-.192" y="-.192" height="1.384" color-interpolation-filters="sRGB" id="filter3794">
<feGaussianBlur stdDeviation="5.28"/>
</filter>
<filter width="1.324" x="-.162" y="-.13" height="1.259" color-interpolation-filters="sRGB" id="filter3786">
<feGaussianBlur stdDeviation="3.24"/>
</filter>
<linearGradient gradientTransform="translate(-2)" id="linearGradient3745" xlink:href="#linearGradient3729" y1="75.471" y2="36.246" x2="0" gradientUnits="userSpaceOnUse"/>
<linearGradient id="linearGradient3737-9">
<stop offset="0" stop-color="#fff"/>
<stop offset="1" stop-color="#fff" stop-opacity="0"/>
</linearGradient>
<linearGradient gradientTransform="translate(0 -97)" id="linearGradient3721" xlink:href="#ButtonShadow-0" y1="6.132" y2="90.239" x2="0" gradientUnits="userSpaceOnUse"/>
<linearGradient id="linearGradient4186" xlink:href="#linearGradient3737-9" y1="20.221" y2="138.661" x2="0" gradientUnits="userSpaceOnUse"/>
<linearGradient id="linearGradient3729">
<stop offset="0" stop-color="#1c59ad"/>
<stop offset="1" stop-color="#377ad6"/>
</linearGradient>
<linearGradient id="linearGradient3737">
<stop offset="0" stop-color="#fff"/>
<stop offset="1" stop-color="#fff" stop-opacity="0"/>
</linearGradient>
<linearGradient id="linearGradient3706" xlink:href="#linearGradient3700" y1="90" y2="5.988" x2="0" gradientUnits="userSpaceOnUse"/>
<linearGradient id="linearGradient3700">
<stop offset="0" stop-color="#e6e6e6"/>
<stop offset="1" stop-color="#f5f5f5"/>
</linearGradient>
<linearGradient gradientTransform="matrix(1.00587 0 0 .99417 100 0)" id="ButtonShadow-0" y1="92.54" y2="7.017" x2="0" gradientUnits="userSpaceOnUse">
<stop offset="0"/>
<stop offset="1" stop-opacity=".588"/>
</linearGradient>
<linearGradient gradientTransform="matrix(1.02381 0 0 1.0119 -1.14286 -98.07143)" id="linearGradient3780" xlink:href="#ButtonShadow-0" y1="6.132" y2="90.239" x2="0" gradientUnits="userSpaceOnUse"/>
<linearGradient id="linearGradient3188" xlink:href="#linearGradient3737" y1="6" y2="63.893" x2="0" gradientUnits="userSpaceOnUse"/>
<radialGradient cx="48" cy="90.172" gradientTransform="matrix(1.15731 0 0 .99591 -7.55102 .19713)" r="42" id="radialGradient2903" gradientUnits="userSpaceOnUse">
<stop offset="0" stop-color="#fff"/>
<stop offset="1" stop-color="#fff" stop-opacity="0"/>
</radialGradient>
</defs>
<path opacity=".08" fill="url(#linearGradient3780)" d="m12-95.0312c-5.5111,0-10.0312,4.5202-10.0312,10.0312v71c0,5.5111 4.5202,10.0312 10.0312,10.0312h72c5.5111,0 10.0312-4.5202 10.0312-10.0312v-71c0-5.5111-4.5202-10.0312-10.0312-10.0312h-72z" transform="scale(1 -1)"/>
<path opacity=".1" fill="url(#linearGradient3780)" d="m12-94.0312c-4.9716,0-9.0312,4.0596-9.0312,9.0312v71c0,4.9716 4.0596,9.0312 9.0312,9.0312h72c4.9716,0 9.0312-4.0596 9.0312-9.0312v-71c0-4.9716-4.0596-9.0312-9.0312-9.0312h-72z" transform="scale(1 -1)"/>
<path opacity=".2" fill="url(#linearGradient3780)" d="m12-93c-4.4091,0-8,3.5909-8,8v71c0,4.4091 3.5909,8 8,8h72c4.4091,0 8-3.5909 8-8v-71c0-4.4091-3.5909-8-8-8h-72z" transform="scale(1 -1)"/>
<path opacity=".3" fill="url(#linearGradient3780)" d="m12-92h72a7,7 0 0,1 7,7v71a7,7 0 0,1 -7,7h-72a7,7 0 0,1 -7-7v-71a7,7 0 0,1 7-7" transform="scale(1 -1)"/>
<path opacity=".45" fill="url(#linearGradient3721)" d="m12-91h72a6,6 0 0,1 6,6v72a6,6 0 0,1 -6,6h-72a6,6 0 0,1 -6-6v-72a6,6 0 0,1 6-6" transform="scale(1 -1)"/>
<path fill="url(#linearGradient3706)" d="m12,6h72a6,6 0 0,1 6,6v72a6,6 0 0,1 -6,6h-72a6,6 0 0,1 -6-6v-72a6,6 0 0,1 6-6"/>
<path opacity=".5" fill="url(#linearGradient3188)" d="m12,6c-3.324,0-6,2.676-6,6v2 68 2c0,.3347 .0413,.6507 .0938,.9688 .0487,.2956 .097,.5969 .1875,.875 .0099,.0304 .0209,.0636 .0312,.0938 .0989,.2878 .2349,.5475 .375,.8125 .1446,.2735 .3156,.5356 .5,.7812 .1844,.2456 .3738,.4735 .5938,.6875 .4399,.4281 .9429,.8145 1.5,1.0938 .2785,.1396 .5735,.2469 .875,.3438-.2562-.1002-.4867-.2363-.7188-.375-.0074-.0044-.0239,.0045-.0312,0-.0319-.0193-.0623-.0425-.0938-.0625-.1204-.0767-.231-.1635-.3438-.25-.1062-.0808-.2133-.1611-.3125-.25-.1779-.1614-.3475-.3454-.5-.5312-.1076-.1303-.2184-.2653-.3125-.4062-.0251-.0384-.0384-.0859-.0625-.125-.0648-.103-.1302-.2045-.1875-.3125-.101-.1947-.2057-.4157-.2812-.625-.008-.0218-.0236-.0405-.0312-.0625-.0318-.0919-.0358-.1868-.0625-.2812-.0303-.1066-.0704-.203-.0938-.3125-.0729-.3415-.125-.6982-.125-1.0625v-2-68-2c0-2.7818 2.2182-5 5-5h2 68 2c2.7818,0 5,2.2182 5,5v2 68 2c0,.3643-.0521,.721-.125,1.0625-.0442,.2069-.0884,.3977-.1562,.5938-.0077,.022-.0233,.0407-.0312,.0625-.0627,.1737-.1384,.3674-.2188,.5312-.0416,.0828-.079,.17-.125,.25-.0546,.0972-.1268,.1883-.1875,.2812-.0941,.141-.2049,.276-.3125,.4062-.1432,.1744-.3031,.347-.4688,.5-.0112,.0102-.02,.0212-.0312,.0312-.1384,.1256-.2851,.2344-.4375,.3438-.1026,.0731-.2043,.1534-.3125,.2188-.0074,.0045-.0238-.0044-.0312,0-.232,.1387-.4625,.2748-.7188,.375 .3015-.0968 .5965-.2041 .875-.3438 .5571-.2792 1.0601-.6657 1.5-1.0938 .22-.214 .4094-.4419 .5938-.6875 .1844-.2456 .3554-.5077 .5-.7812 .1401-.265 .2761-.5247 .375-.8125 .0104-.0308 .0213-.0627 .0312-.0938 .0905-.2781 .1388-.5794 .1875-.875 .0524-.318 .0938-.634 .0938-.9688v-2-68-2c0-3.324-2.676-6-6-6h-72z"/>
<path opacity=".3" fill="url(#radialGradient2903)" d="m12,90c-3.324,0-6-2.676-6-6v-2-68-2c0-.3347 .0413-.6507 .0938-.9688 .0487-.2956 .097-.5969 .1875-.875 .0099-.0304 .0209-.0636 .0312-.0938 .0989-.2878 .2349-.5475 .375-.8125 .1446-.2735 .3156-.5356 .5-.7812 .1844-.2456 .3738-.4735 .5938-.6875 .4399-.4281 .9429-.8145 1.5-1.0938 .2785-.1396 .5735-.2469 .875-.3438-.2562,.1002-.4867,.2363-.7188,.375-.0074,.0044-.0239-.0045-.0312,0-.0319,.0193-.0623,.0425-.0938,.0625-.1204,.0767-.231,.1635-.3438,.25-.1062,.0808-.2133,.1611-.3125,.25-.1779,.1614-.3475,.3454-.5,.5312-.1076,.1303-.2184,.2653-.3125,.4062-.0251,.0384-.0384,.0859-.0625,.125-.0648,.103-.1302,.2045-.1875,.3125-.101,.1947-.2057,.4157-.2812,.625-.008,.0218-.0236,.0405-.0312,.0625-.0318,.092-.0358,.1868-.0625,.2812-.0303,.1066-.0704,.203-.0938,.3125-.0729,.3415-.125,.6982-.125,1.0625v2 68 2c0,2.7818 2.2182,5 5,5h2 68 2c2.7818,0 5-2.2182 5-5v-2-68-2c0-.3643-.0521-.721-.125-1.0625-.0442-.2069-.0884-.3977-.1562-.5938-.0077-.022-.0233-.0407-.0312-.0625-.0627-.1737-.1384-.3674-.2188-.5312-.0416-.0828-.079-.17-.125-.25-.0546-.0972-.1268-.1883-.1875-.2812-.0941-.141-.2049-.276-.3125-.4062-.1432-.1745-.3031-.347-.4688-.5-.0112-.0102-.02-.0211-.0312-.0312-.1384-.1256-.2851-.2344-.4375-.3438-.1026-.0732-.2043-.1534-.3125-.2188-.0074-.0045-.0238,.0044-.0312,0-.232-.1387-.4625-.2748-.7188-.375 .3015,.0968 .5965,.2041 .875,.3438 .5571,.2792 1.0601,.6657 1.5,1.0938 .22,.214 .4094,.4419 .5938,.6875 .1844,.2456 .3554,.5077 .5,.7812 .1401,.265 .2761,.5247 .375,.8125 .0104,.0308 .0213,.0627 .0312,.0938 .0905,.2781 .1388,.5794 .1875,.875 .0524,.318 .0938,.634 .0938,.9688v2 68 2c0,3.324-2.676,6-6,6h-72z"/>
<path opacity=".6" fill="none" filter="url(#filter3786)" stroke="#fff" stroke-width="2" d="m-38,18.0198 0,12.0701c-12.0511,.2118-15.0128,11.9642-15.0128,11.9642h9.0894v12.0701h-14.0936c-8.4766,26.1519-27.983,23.8226-27.983,23.8226v-12.0701c0,0 12.378,2.2962 18.6894-20.7521 7.8949-28.8313 29.3106-27.1048 29.3106-27.1048z" clip-path="url(#clipPath3782)" transform="translate(110)"/>
<path fill="#f0f" d="m-98,6h72a6,6 0 0,1 6,6v72a6,6 0 0,1 -6,6h-72a6,6 0 0,1 -6-6v-72a6,6 0 0,1 6-6"/>
<path opacity=".5" fill="url(#linearGradient4186)" filter="url(#filter3794)" stroke="#fff" stroke-linecap="round" stroke-width=".5" d="m27,15h42a12,12 0 0,1 12,12v42a12,12 0 0,1 -12,12h-42a12,12 0 0,1 -12-12v-42a12,12 0 0,1 12-12" clip-path="url(#clipPath3613)"/>
<path opacity=".5" fill="#999" d="m12,12 0,17.9375 8.0938-17.9375-8.0938,0zm9.9062,0 8.0938,17.9375 0-17.9375-8.0938,0zm-.9062,7.0312l-3.0312,7h2.9286l1.7188,3.9688h3.2277l-2.375-5.2812-.0625-.125-2.4062-5.5625z"/>
<g line-height="100%">
<path fill="url(#linearGradient3745)" d="m26,36 0,40 7.6562,0 0-14.6562 2.6562,0c3.0078,0 5.4963-.3761 7.4688-1.0938 2.0176-.7273 3.6261-1.692 4.8125-2.875 1.2174-1.1958 2.0687-2.56 2.5938-4.125 .5337-1.5909 .8125-3.2577 .8125-5-0-1.9495-.294-3.6581-.875-5.1562-.5784-1.509-1.482-2.7561-2.6875-3.7812-1.1836-1.0393-2.7239-1.8442-4.625-2.4062-1.8732-.5772-4.1632-.9062-6.8125-.9062h-11zm7.6562,5.9688 2.9062,0c2.5114,0 4.4274,.5071 5.7188,1.625 1.3069,1.1127 1.9062,2.8428 1.9062,5-0,2.3119-.6686,4.1084-2.125,5.2188-1.4163,1.0962-3.4459,1.5625-6.0312,1.5625h-2.375v-13.4062zm30.2188,6.0312c-1.4911,0-2.8382,.1467-4.0625,.4688-1.2086,.306-2.2305,.7781-3.0938,1.4062-.8633,.6282-1.5291,1.4248-2,2.375-.4709,.9342-.7188,2.025-.7188,3.2812-0,1.1435 .1394,2.1313 .4062,2.9688 .2668,.8214 .6538,1.5745 1.1875,2.2188 .5494,.6442 1.2619,1.2185 2.0938,1.75 .8476,.5154 1.8229,1.031 2.9688,1.5625 1.1772,.5476 2.1219,1.0197 2.8125,1.4062 .7063,.3704 1.2327,.7252 1.5938,1.0312 .361,.2899 .5933,.57 .6875,.8438 .1099,.2577 .1562,.5368 .1562,.875-0,.3382-.0775,.6627-.2188,.9688-.1256,.2899-.3268,.5558-.625,.7812-.2825,.2094-.6386,.3712-1.0938,.5-.4552,.1128-1.0127,.1875-1.6562,.1875-.5808,0-1.2156-.0747-1.9062-.1875-.6749-.1127-1.3717-.2442-2.0938-.4375-.722-.2094-1.4498-.4762-2.1875-.75-.722-.2738-1.4033-.568-2.0625-.9062v6.0938c.6278,.2899 1.2316,.5255 1.8438,.7188 .6121,.1933 1.247,.3399 1.9062,.4688 .6592,.1288 1.356,.2329 2.0938,.2812 .7377,.0644 1.543,.0938 2.4062,.0938 1.6324-0 3.119-.1769 4.4375-.5312 1.3184-.3543 2.4177-.8851 3.3438-1.5938 .926-.7087 1.654-1.5933 2.1562-2.6562 .5023-1.063 .75-2.3014 .75-3.7188-0-1.1918-.186-2.225-.5312-3.0625-.3453-.8375-.8252-1.5594-1.4688-2.1875-.6436-.6281-1.4178-1.1731-2.3125-1.6562-.8947-.4993-1.8856-1.0007-3-1.5-.9575-.4509-1.7473-.819-2.3438-1.125-.5965-.3221-1.0454-.6173-1.375-.875-.3296-.2738-.5464-.5396-.6562-.7812-.1099-.2577-.1875-.5529-.1875-.875-0-.612 .2324-1.0831 .6562-1.4375 .4395-.3543 1.1206-.5312 2.0938-.5312 1.083,0 2.167,.1608 3.25,.5312 1.083,.3705 2.2446,.8577 3.4375,1.4375l2.1562-5.2188c-1.4911-.7408-2.9311-1.2858-4.3438-1.6562-1.4127-.3704-2.9304-.5625-4.5-.5625z"/>
<path opacity=".6" fill="#123b72" d="m26,36 0,1 11,0c2.6493,0 4.9393,.329 6.8125,.9062 1.9011,.5621 3.4414,1.367 4.625,2.4062 1.2055,1.0252 2.1091,2.2723 2.6875,3.7812 .5261,1.3566 .7935,2.9008 .8438,4.625 .0047-.1582 .0312-.3093 .0312-.4688-0-1.9495-.294-3.6581-.875-5.1562-.5784-1.509-1.482-2.7561-2.6875-3.7812-1.1836-1.0393-2.7239-1.8442-4.625-2.4062-1.8732-.5772-4.1632-.9062-6.8125-.9062h-11zm37.875,12c-1.4911,0-2.8382,.1467-4.0625,.4688-1.2086,.306-2.2305,.7781-3.0938,1.4062-.8633,.6282-1.5291,1.4248-2,2.375-.4709,.9342-.7188,2.025-.7188,3.2812 0,.159 .0259,.3158 .0312,.4688 .0616-1.0307 .2857-1.9529 .6875-2.75 .4709-.9502 1.1367-1.7468 2-2.375 .8633-.6281 1.8852-1.1002 3.0938-1.4062 1.2243-.3221 2.5714-.4687 4.0625-.4688 1.5696,0 3.0873,.1921 4.5,.5625 1.303,.3417 2.6318,.8446 4,1.5l.3438-.8438c-1.4911-.7408-2.9311-1.2858-4.3438-1.6562-1.4127-.3704-2.9304-.5625-4.5-.5625zm-19.7188,1.125c-.0977,2.054-.752,3.6646-2.0938,4.6875-1.4163,1.0962-3.4459,1.5625-6.0312,1.5625h-2.375v1h2.375c2.5853,0 4.6149-.4663 6.0312-1.5625 1.4564-1.1104 2.125-2.9068 2.125-5.2188-0-.162-.0245-.3117-.0312-.4688zm17.0312,6.7812c-.0442,.1645-.0625,.34-.0625,.5312-0,.3221 .0776,.6173 .1875,.875 .1099,.2416 .3266,.5075 .6562,.7812 .3296,.2577 .7785,.5529 1.375,.875 .5964,.306 1.3863,.6741 2.3438,1.125 1.1144,.4993 2.1053,1.0007 3,1.5 .8947,.4832 1.6689,1.0281 2.3125,1.6562 .6435,.6281 1.1234,1.35 1.4688,2.1875 .299,.7252 .4572,1.5991 .5,2.5938 .0082-.1768 .0312-.3486 .0312-.5312-0-1.1918-.186-2.225-.5312-3.0625-.3453-.8375-.8252-1.5594-1.4688-2.1875-.6436-.6281-1.4178-1.1731-2.3125-1.6562-.8947-.4993-1.8856-1.0007-3-1.5-.9575-.4509-1.7473-.819-2.3438-1.125-.5965-.3221-1.0454-.6173-1.375-.875-.3296-.2738-.5464-.5396-.6562-.7812-.0549-.1288-.0919-.26-.125-.4062zm-7.125,12.4375 0,1c.6592,.3382 1.3405,.6325 2.0625,.9062 .7377,.2738 1.4655,.5406 2.1875,.75 .722,.1933 1.4188,.3248 2.0938,.4375 .6906,.1128 1.3255,.1875 1.9062,.1875 .6435,0 1.2011-.0747 1.6562-.1875 .4552-.1288 .8112-.2906 1.0938-.5 .2982-.2255 .4994-.4913 .625-.7812 .1412-.306 .2187-.6305 .2188-.9688-0-.2084-.0233-.3902-.0625-.5625-.0367,.1827-.0769,.3594-.1562,.5312-.1256,.2899-.3268,.5558-.625,.7812-.2825,.2094-.6386,.3712-1.0938,.5-.4552,.1128-1.0127,.1875-1.6562,.1875-.5808,0-1.2156-.0747-1.9062-.1875-.6749-.1127-1.3717-.2442-2.0938-.4375-.722-.2094-1.4498-.4762-2.1875-.75-.722-.2738-1.4033-.568-2.0625-.9062z"/>
<path opacity=".2" fill="#0c2548" d="m26,36 0,40 7.6562,0 0-14.6562 2.6562,0c3.0078,0 5.4963-.3761 7.4688-1.0938 2.0176-.7273 3.6261-1.692 4.8125-2.875 1.2174-1.1958 2.0687-2.56 2.5938-4.125 .5337-1.5909 .8125-3.2577 .8125-5-0-1.9495-.294-3.6581-.875-5.1562-.5784-1.509-1.482-2.7561-2.6875-3.7812-1.1836-1.0393-2.7239-1.8442-4.625-2.4062-1.8732-.5772-4.1632-.9062-6.8125-.9062h-11zm1.0625,1.0625 9.9375,0c2.5606,0 4.7521,.3364 6.5,.875 1.7853,.5279 3.1753,1.2713 4.2188,2.1875a1.071,1.071 0 0,0 .0312,0c1.0802,.9186 1.8595,1.9987 2.375,3.3438 .5258,1.3558 .8125,2.9395 .8125,4.7812-0,1.6281-.2523,3.1726-.75,4.6562-.4737,1.412-1.2388,2.6333-2.3438,3.7188-1.0497,1.0468-2.5333,1.9386-4.4375,2.625-1.8135,.6598-4.1752,1.0313-7.0938,1.0312h-2.6562a1.071,1.071 0 0,0 -1.0625,1.0625v13.5938h-5.5312v-37.875zm6.4062,3.8438a1.071,1.071 0 0,0 -.875,1.0625v13.4062a1.071,1.071 0 0,0 1.0625,1.0625h2.375c2.7141,0 4.9958-.472 6.6875-1.7812 1.7737-1.3522 2.5312-3.5441 2.5312-6.0625-0-2.3555-.6802-4.4494-2.2812-5.8125-1.5665-1.3561-3.7507-1.875-6.4062-1.875h-2.9062a1.071,1.071 0 0,0 -.1875,0zm.1875,1.0625 2.9062,0c2.5114,0 4.4274,.5071 5.7188,1.625 1.3069,1.1127 1.9062,2.8428 1.9062,5-0,2.3119-.6686,4.1084-2.125,5.2188-1.4163,1.0962-3.4459,1.5625-6.0312,1.5625h-2.375v-13.4062zm30.2188,6.0312c-1.4911,0-2.8382,.1467-4.0625,.4688-1.2086,.306-2.2305,.7781-3.0938,1.4062-.8633,.6282-1.5291,1.4248-2,2.375-.4709,.9342-.7188,2.025-.7188,3.2812-0,1.1435 .1394,2.1313 .4062,2.9688 .2668,.8214 .6538,1.5745 1.1875,2.2188 .5494,.6442 1.2619,1.2185 2.0938,1.75 .8476,.5154 1.8229,1.031 2.9688,1.5625 1.1772,.5476 2.1219,1.0197 2.8125,1.4062 .7063,.3704 1.2327,.7252 1.5938,1.0312 .361,.2899 .5933,.57 .6875,.8438 .1099,.2577 .1562,.5368 .1562,.875-0,.3382-.0775,.6627-.2188,.9688-.1256,.2899-.3268,.5558-.625,.7812-.2825,.2094-.6386,.3712-1.0938,.5-.4552,.1128-1.0127,.1875-1.6562,.1875-.5808,0-1.2156-.0747-1.9062-.1875-.6749-.1127-1.3717-.2442-2.0938-.4375-.722-.2094-1.4498-.4762-2.1875-.75-.722-.2738-1.4033-.568-2.0625-.9062v6.0938c.6278,.2899 1.2316,.5255 1.8438,.7188 .6121,.1933 1.247,.3399 1.9062,.4688 .6592,.1288 1.356,.2329 2.0938,.2812 .7377,.0644 1.543,.0938 2.4062,.0938 1.6324-0 3.119-.1769 4.4375-.5312 1.3184-.3543 2.4177-.8851 3.3438-1.5938 .926-.7087 1.654-1.5933 2.1562-2.6562 .5023-1.063 .75-2.3014 .75-3.7188-0-1.1918-.186-2.225-.5312-3.0625-.3453-.8375-.8252-1.5594-1.4688-2.1875-.6436-.6281-1.4178-1.1731-2.3125-1.6562-.8947-.4993-1.8856-1.0007-3-1.5-.9575-.4509-1.7473-.819-2.3438-1.125-.5965-.3221-1.0454-.6173-1.375-.875-.3296-.2738-.5464-.5396-.6562-.7812-.1099-.2577-.1875-.5529-.1875-.875-0-.612 .2324-1.0831 .6562-1.4375 .4395-.3543 1.1206-.5312 2.0938-.5312 1.083,0 2.167,.1608 3.25,.5312 1.083,.3705 2.2446,.8577 3.4375,1.4375l2.1562-5.2188c-1.4911-.7408-2.9311-1.2858-4.3438-1.6562-1.4127-.3704-2.9304-.5625-4.5-.5625zm0,1.0625c1.4822,0 2.9003,.1855 4.2188,.5312 1.0331,.2709 2.1319,.7355 3.2188,1.2188l-1.3438,3.2188c-.847-.3782-1.7047-.7592-2.5-1.0312-1.2003-.4105-2.4047-.5937-3.5938-.5938-1.1029,0-2.0565,.1657-2.7812,.75a1.071,1.071 0 0,0 0,.0312c-.6343,.5304-1.0313,1.3668-1.0312,2.25-0,.4942 .0958,.9195 .25,1.2812a1.071,1.071 0 0,0 .0312,.0312c.207,.4553 .5232,.8122 .9375,1.1562a1.071,1.071 0 0,0 .0312,.0312c.3887,.3039 .8918,.6234 1.5312,.9688 .6278,.3221 1.4197,.7063 2.375,1.1562a1.071,1.071 0 0,0 .0312,0c1.0864,.4868 2.0389,.9848 2.9062,1.4688a1.071,1.071 0 0,0 .0312,0c.8257,.446 1.5046,.9555 2.0625,1.5 .5405,.5276 .924,1.0978 1.2188,1.8125 .2786,.6758 .4687,1.5758 .4688,2.6562-0,1.2925-.2331,2.3545-.6562,3.25-.4296,.9091-1.0442,1.6694-1.8438,2.2812-.8062,.6169-1.7651,1.0828-2.9688,1.4062-1.2099,.3252-2.6013,.5-4.1562,.5-.839,0-1.614-.0327-2.3125-.0938a1.071,1.071 0 0,0 -.0312,0c-.6815-.0446-1.3111-.1588-1.9375-.2812-.6361-.1243-1.2548-.2614-1.8125-.4375-.3594-.1135-.7303-.2573-1.0938-.4062v-3.75c.2103,.0863 .4099,.1997 .625,.2812 .7403,.2748 1.4791,.5577 2.25,.7812a1.071,1.071 0 0,0 .0312,0c.7711,.2064 1.4972,.3535 2.1875,.4688 .7193,.1174 1.4211,.1875 2.0938,.1875 .7265,0 1.3602-.0835 1.9062-.2188a1.071,1.071 0 0,0 .0312,0c.5404-.153 1.0212-.3477 1.4375-.6562a1.071,1.071 0 0,0 .0312-.0312c.4364-.33 .741-.7339 .9375-1.1875 .1995-.4323 .3125-.9045 .3125-1.4062-0-.4154-.0605-.8215-.2188-1.2188-.0079-.0198 .0084-.0429 0-.0625h-.0312c-.1981-.5224-.5531-.9118-.9688-1.25-.009-.0076-.0221-.0236-.0312-.0312-.4325-.3624-.9863-.7389-1.7188-1.125-.0093-.0049-.0219,.0049-.0312,0-.7272-.406-1.6933-.8878-2.875-1.4375-1.1164-.5178-2.0369-1.0094-2.8438-1.5-.7707-.4924-1.3872-.9958-1.8438-1.5312-.4286-.5174-.7371-1.1405-.9688-1.8438-.0026-.0082 .0026-.023 0-.0312-.2209-.704-.375-1.5807-.375-2.625-0-1.1154 .237-2.0427 .625-2.8125 .3983-.8037 .9294-1.4399 1.6562-1.9688 .7446-.5418 1.625-.973 2.7188-1.25a1.071,1.071 0 0,0 .0312,0c1.1147-.2933 2.3603-.4375 3.7812-.4375z"/>
<path opacity=".8" fill="#fff" d="m33.6562,41.9688 0,1 2.9062,0c2.5114,0 4.4274,.5071 5.7188,1.625 1.2088,1.0291 1.7912,2.5963 1.875,4.5312 .0084-.1756 .0312-.3491 .0312-.5312-0-2.1572-.5994-3.8873-1.9062-5-1.2913-1.1179-3.2073-1.625-5.7188-1.625h-2.9062zm18.3125,6.75c-.0462,1.5703-.2964,3.086-.7812,4.5312-.5251,1.565-1.3764,2.9292-2.5938,4.125-1.1864,1.183-2.7949,2.1477-4.8125,2.875-1.9725,.7176-4.4609,1.0938-7.4688,1.0938h-2.6562v1h2.6562c3.0078,0 5.4963-.3761 7.4688-1.0938 2.0176-.7273 3.6261-1.692 4.8125-2.875 1.2174-1.1958 2.0687-2.56 2.5938-4.125 .5337-1.5909 .8125-3.2577 .8125-5-0-.1842-.026-.3513-.0312-.5312zm20.4062,2.3438-1.8125,4.375c-1.1929-.5798-2.3545-1.067-3.4375-1.4375-1.083-.3704-2.167-.5312-3.25-.5312-.9732,0-1.6543,.1769-2.0938,.5312-.4238,.3544-.6563,.8255-.6562,1.4375-0,.1611 .0294,.3225 .0625,.4688 .0971-.3618 .3024-.6626 .5938-.9062 .4395-.3543 1.1206-.5312 2.0938-.5312 1.083,0 2.167,.1608 3.25,.5312 1.083,.3705 2.2446,.8577 3.4375,1.4375l2.1562-5.2188c-.1157-.0575-.2286-.1011-.3438-.1562zm-18.3438,4.9375c-.0106,.1772-.0312,.347-.0312,.5312-0,1.1435 .1394,2.1313 .4062,2.9688 .2668,.8214 .6538,1.5745 1.1875,2.2188 .5494,.6442 1.2619,1.2185 2.0938,1.75 .8476,.5154 1.8229,1.031 2.9688,1.5625 1.1772,.5476 2.1219,1.0197 2.8125,1.4062 .7063,.3704 1.2327,.7252 1.5938,1.0312 .361,.2899 .5933,.57 .6875,.8438 .0422,.0989 .0693,.2052 .0938,.3125 .0286-.1426 .0625-.2892 .0625-.4375-0-.3382-.0464-.6173-.1562-.875-.0942-.2738-.3265-.5538-.6875-.8438-.361-.306-.8874-.6608-1.5938-1.0312-.6906-.3865-1.6353-.8586-2.8125-1.4062-1.1458-.5315-2.1212-1.0471-2.9688-1.5625-.8319-.5315-1.5444-1.1058-2.0938-1.75-.5337-.6442-.9207-1.3973-1.1875-2.2188-.2297-.721-.3418-1.5527-.375-2.5zm18.9375,12.0312c-.0558,1.1945-.2812,2.2615-.7188,3.1875-.5023,1.063-1.2302,1.9476-2.1562,2.6562-.9261,.7087-2.0253,1.2394-3.3438,1.5938-1.3185,.3543-2.8051,.5312-4.4375,.5312-.8633,0-1.6685-.0293-2.4062-.0938-.7377-.0483-1.4345-.1524-2.0938-.2812-.6592-.1288-1.2941-.2755-1.9062-.4688-.6121-.1933-1.2159-.4288-1.8438-.7188v1c.6278,.2899 1.2316,.5255 1.8438,.7188 .6121,.1933 1.247,.3399 1.9062,.4688 .6592,.1288 1.356,.2329 2.0938,.2812 .7377,.0644 1.543,.0938 2.4062,.0938 1.6324-0 3.119-.1769 4.4375-.5312 1.3184-.3543 2.4177-.8851 3.3438-1.5938 .926-.7087 1.654-1.5933 2.1562-2.6562 .5023-1.063 .75-2.3014 .75-3.7188-0-.1598-.0246-.3147-.0312-.4688zm-46.9688,7.9688v1h7.6562v-1h-7.6562z"/>
</g>
</svg>
