<svg xmlns="http://www.w3.org/2000/svg" viewBox="0 0 96 96" xmlns:xlink="http://www.w3.org/1999/xlink">
<defs>
<clipPath id="clipPath3776">
<path fill="#f0f" d="m-88,6c-3.324,0-6,2.676-6,6v72c0,3.324 2.676,6 6,6h72c3.324,0 6-2.676 6-6v-72c0-3.324-2.676-6-6-6h-72zm14.7812,18 4.4062,0c.9441,0 1.6467,.3429 2.1562,1.0938 .4046,.6056 .6562,1.3308 .6562,2.0938v5.6875c-0,.763-.2516,1.4499-.6562,2.0312-.5095,.7388-1.2121,1.0938-2.1562,1.0938h-4.4062c-.9292,0-1.678-.355-2.1875-1.0938-.4046-.5813-.5938-1.2682-.5938-2.0312v-5.6875c0-.763 .1891-1.4882 .5938-2.0938 .5095-.7509 1.2583-1.0937 2.1875-1.0938zm11.25,0 4.0938,0 0,11 3.875,0 0,1-10,0 0-1 3.875,0 0-10-1.8438,0 0-1zm12.75,0 4.4062,0c.9441,0 1.6467,.3429 2.1562,1.0938 .4046,.6056 .6562,1.3308 .6562,2.0938v5.6875c-0,.763-.2516,1.4499-.6562,2.0312-.5095,.7388-1.2121,1.0938-2.1562,1.0938h-4.4062c-.9292,0-1.678-.355-2.1875-1.0938-.4046-.5813-.5938-1.2682-.5938-2.0312v-5.6875c0-.763 .1891-1.4882 .5938-2.0938 .5095-.7509 1.2583-1.0937 2.1875-1.0938zm12,0 4.4062,0c.9441,0 1.6467,.3429 2.1562,1.0938 .4046,.6056 .6562,1.3308 .6562,2.0938v5.6875c-0,.763-.2516,1.4499-.6562,2.0312-.5095,.7388-1.2121,1.0938-2.1562,1.0938h-4.4062c-.9292,0-1.678-.355-2.1875-1.0938-.4046-.5813-.5938-1.2682-.5938-2.0312v-5.6875c0-.763 .1891-1.4882 .5938-2.0938 .5095-.7509 1.2583-1.0937 2.1875-1.0938zm-34.875,1c-.6144,0-1.1078,.2605-1.4375,.7812-.2548,.4118-.4063,.8976-.4062,1.4062v5.6875c-0,.3633 .1001,.7043 .25,1.0312l4.5312-8.7812c-.2098-.0848-.4327-.125-.6875-.125h-2.25zm24,0c-.6144,0-1.1078,.2605-1.4375,.7812-.2548,.4118-.4063,.8976-.4062,1.4062v5.6875c-0,.3633 .1001,.7043 .25,1.0312l4.5312-8.7812c-.2098-.0848-.4327-.125-.6875-.125h-2.25zm12,0c-.6144,0-1.1078,.2605-1.4375,.7812-.2548,.4118-.4063,.8976-.4062,1.4062v5.6875c-0,.3633 .1001,.7043 .25,1.0312l4.5312-8.7812c-.2098-.0848-.4327-.125-.6875-.125h-2.25zm-32.1562,1.1562-4.5,8.75c.1948,.0727 .4314,.125 .6562,.125h2.25c.6144,0 1.0603-.2605 1.375-.7812 .2548-.3997 .4062-.8784 .4062-1.375v-5.6875c-0-.3512-.0526-.6921-.1875-1.0312zm24,0-4.5,8.75c.1948,.0727 .4314,.125 .6562,.125h2.25c.6144,0 1.0603-.2605 1.375-.7812 .2548-.3997 .4062-.8784 .4062-1.375v-5.6875c-0-.3512-.0526-.6921-.1875-1.0312zm12,0-4.5,8.75c.1948,.0727 .4314,.125 .6562,.125h2.25c.6144,0 1.0603-.2605 1.375-.7812 .2548-.3997 .4062-.8784 .4062-1.375v-5.6875c-0-.3512-.0526-.6921-.1875-1.0312zm-41.7188,15.8438h4.0938v11h3.875v1h-10v-1h3.875v-10h-1.8438v-1zm12,0 4.0938,0 0,11 3.875,0 0,1-10,0 0-1 3.875,0 0-10-1.8438,0 0-1zm12.75,0 4.4062,0c.9441,0 1.6467,.3429 2.1562,1.0938 .4046,.6056 .6562,1.3308 .6562,2.0938v5.6875c-0,.763-.2516,1.4499-.6562,2.0312-.5095,.7388-1.2121,1.0938-2.1562,1.0938h-4.4062c-.9292,0-1.678-.355-2.1875-1.0938-.4046-.5813-.5938-1.2682-.5938-2.0312v-5.6875c0-.763 .1891-1.4882 .5938-2.0938 .5095-.7509 1.2583-1.0937 2.1875-1.0938zm11.25,0 4.0938,0 0,11 3.875,0 0,1-10,0 0-1 3.875,0 0-10-1.8438,0 0-1zm-10.125,1c-.6144,0-1.1078,.2605-1.4375,.7812-.2548,.4118-.4063,.8976-.4062,1.4062v5.6875c-0,.3633 .1001,.7043 .25,1.0312l4.5312-8.7812c-.2098-.0848-.4327-.125-.6875-.125h-2.25zm3.8438,1.1562-4.5,8.75c.1948,.0727 .4314,.125 .6562,.125h2.25c.6144,0 1.0603-.2605 1.375-.7812 .2548-.3997 .4062-.8784 .4062-1.375v-5.6875c-0-.3512-.0526-.6921-.1875-1.0312zm-29.7188,15.8438h4.0938v11h3.875v1h-10v-1h3.875v-10h-1.8438v-1zm12.75,0 4.4062,0c.9441,0 1.6467,.3429 2.1562,1.0938 .4046,.6056 .6562,1.3308 .6562,2.0938v5.6875c-0,.763-.2516,1.4499-.6562,2.0312-.5095,.7388-1.2121,1.0938-2.1562,1.0938h-4.4062c-.9292,0-1.678-.355-2.1875-1.0938-.4046-.5813-.5938-1.2682-.5938-2.0312v-5.6875c0-.763 .1891-1.4882 .5938-2.0938 .5095-.7509 1.2583-1.0937 2.1875-1.0938zm12,0 4.4062,0c.9441,0 1.6467,.3429 2.1562,1.0938 .4046,.6056 .6562,1.3308 .6562,2.0938v5.6875c-0,.763-.2516,1.4499-.6562,2.0312-.5095,.7388-1.2121,1.0938-2.1562,1.0938h-4.4062c-.9292,0-1.678-.355-2.1875-1.0938-.4046-.5813-.5938-1.2682-.5938-2.0312v-5.6875c0-.763 .1891-1.4882 .5938-2.0938 .5095-.7509 1.2583-1.0937 2.1875-1.0938zm11.25,0 4.0938,0 0,11 3.875,0 0,1-10,0 0-1 3.875,0 0-10-1.8438,0 0-1zm-22.125,1c-.6144,0-1.1078,.2605-1.4375,.7812-.2548,.4118-.4063,.8976-.4062,1.4062v5.6875c-0,.3633 .1001,.7043 .25,1.0312l4.5312-8.7812c-.2098-.0848-.4327-.125-.6875-.125h-2.25zm12,0c-.6144,0-1.1078,.2605-1.4375,.7812-.2548,.4118-.4063,.8976-.4062,1.4062v5.6875c-0,.3633 .1001,.7043 .25,1.0312l4.5312-8.7812c-.2098-.0848-.4327-.125-.6875-.125h-2.25zm-8.1562,1.1562-4.5,8.75c.1948,.0727 .4314,.125 .6562,.125h2.25c.6144,0 1.0603-.2605 1.375-.7812 .2548-.3997 .4062-.8784 .4062-1.375v-5.6875c-0-.3512-.0526-.6921-.1875-1.0312zm12,0-4.5,8.75c.1948,.0727 .4314,.125 .6562,.125h2.25c.6144,0 1.0603-.2605 1.375-.7812 .2548-.3997 .4062-.8784 .4062-1.375v-5.6875c-0-.3512-.0526-.6921-.1875-1.0312z"/>
</clipPath>
<clipPath id="clipPath3613">
<path fill="#fff" d="m12,6h72a6,6 0 0,1 6,6v72a6,6 0 0,1 -6,6h-72a6,6 0 0,1 -6-6v-72a6,6 0 0,1 6-6"/>
</clipPath>
<filter width="1.384" x="-.192" y="-.192" height="1.384" color-interpolation-filters="sRGB" id="filter3794">
<feGaussianBlur stdDeviation="5.28"/>
</filter>
<filter width="1.294" x="-.147" y="-.141" height="1.282" color-interpolation-filters="sRGB" id="filter3785">
<feGaussianBlur stdDeviation="2.82"/>
</filter>
<linearGradient id="linearGradient3795" xlink:href="#linearGradient3789" y1="72" y2="24" x2="0" gradientUnits="userSpaceOnUse"/>
<linearGradient id="linearGradient3737-9">
<stop offset="0" stop-color="#fff"/>
<stop offset="1" stop-color="#fff" stop-opacity="0"/>
</linearGradient>
<linearGradient id="linearGradient4209" xlink:href="#linearGradient3737-9" y1="20.221" y2="138.661" x2="0" gradientUnits="userSpaceOnUse"/>
<linearGradient id="linearGradient3680" xlink:href="#linearGradient3737-1" y1="6" y2="63.893" x2="0" gradientUnits="userSpaceOnUse"/>
<linearGradient id="linearGradient3789">
<stop offset="0" stop-color="#949494"/>
<stop offset="1" stop-color="#b3b3b3"/>
</linearGradient>
<linearGradient id="linearGradient3700">
<stop offset="0" stop-color="#e6e6e6"/>
<stop offset="1" stop-color="#f5f5f5"/>
</linearGradient>
<linearGradient gradientTransform="matrix(1.00587 0 0 .99417 100 0)" id="ButtonShadow-0" y1="92.54" y2="7.017" x2="0" gradientUnits="userSpaceOnUse">
<stop offset="0"/>
<stop offset="1" stop-opacity=".588"/>
</linearGradient>
<linearGradient id="linearGradient3706" xlink:href="#linearGradient3700" y1="90" y2="5.988" x2="0" gradientUnits="userSpaceOnUse"/>
<linearGradient gradientTransform="translate(0 -97)" id="linearGradient3721" xlink:href="#ButtonShadow-0" y1="6.132" y2="90.239" x2="0" gradientUnits="userSpaceOnUse"/>
<linearGradient id="linearGradient3737-1">
<stop offset="0" stop-color="#fff"/>
<stop offset="1" stop-color="#fff" stop-opacity="0"/>
</linearGradient>
<linearGradient gradientTransform="matrix(1.02381 0 0 1.0119 -1.14286 -98.07143)" id="linearGradient3780" xlink:href="#ButtonShadow-0" y1="6.132" y2="90.239" x2="0" gradientUnits="userSpaceOnUse"/>
<radialGradient cx="48" cy="90.172" gradientTransform="matrix(1.15731 0 0 .99591 -7.55102 .19713)" r="42" id="radialGradient2886" gradientUnits="userSpaceOnUse">
<stop offset="0" stop-color="#fff"/>
<stop offset="1" stop-color="#fff" stop-opacity="0"/>
</radialGradient>
</defs>
<path opacity=".08" fill="url(#linearGradient3780)" d="m12-95.0312c-5.5111,0-10.0312,4.5202-10.0312,10.0312v71c0,5.5111 4.5202,10.0312 10.0312,10.0312h72c5.5111,0 10.0312-4.5202 10.0312-10.0312v-71c0-5.5111-4.5202-10.0312-10.0312-10.0312h-72z" transform="scale(1 -1)"/>
<path opacity=".1" fill="url(#linearGradient3780)" d="m12-94.0312c-4.9716,0-9.0312,4.0596-9.0312,9.0312v71c0,4.9716 4.0596,9.0312 9.0312,9.0312h72c4.9716,0 9.0312-4.0596 9.0312-9.0312v-71c0-4.9716-4.0596-9.0312-9.0312-9.0312h-72z" transform="scale(1 -1)"/>
<path opacity=".2" fill="url(#linearGradient3780)" d="m12-93c-4.4091,0-8,3.5909-8,8v71c0,4.4091 3.5909,8 8,8h72c4.4091,0 8-3.5909 8-8v-71c0-4.4091-3.5909-8-8-8h-72z" transform="scale(1 -1)"/>
<path opacity=".3" fill="url(#linearGradient3780)" d="m12-92h72a7,7 0 0,1 7,7v71a7,7 0 0,1 -7,7h-72a7,7 0 0,1 -7-7v-71a7,7 0 0,1 7-7" transform="scale(1 -1)"/>
<path opacity=".45" fill="url(#linearGradient3721)" d="m12-91h72a6,6 0 0,1 6,6v72a6,6 0 0,1 -6,6h-72a6,6 0 0,1 -6-6v-72a6,6 0 0,1 6-6" transform="scale(1 -1)"/>
<path fill="url(#linearGradient3706)" d="m12,6h72a6,6 0 0,1 6,6v72a6,6 0 0,1 -6,6h-72a6,6 0 0,1 -6-6v-72a6,6 0 0,1 6-6"/>
<g line-height="100%">
<flowRoot fill="#b3b3b3" font-family="Unispace" text-align="start" xml:space="preserve" transform="matrix(1.08885 0 0 1.12655 2.59277 68.63228)" font-size="16px">
<flowRegion>
<path d="m13.7633,34.507h72.2259v71.958h-72.2259z"/>
</flowRegion>
<flowPara>0101110</flowPara>
<flowPara>1101001</flowPara>
<flowPara>0001011</flowPara>
</flowRoot>
<path opacity=".6" fill="none" filter="url(#filter3785)" stroke="#fff" stroke-width="2" d="m-73.2188,24c-.9292,0-1.678,.3429-2.1875,1.0938-.4046,.6056-.5937,1.3308-.5938,2.0938v5.6875c0,.763 .1891,1.4499 .5938,2.0312 .5095,.7388 1.2583,1.0938 2.1875,1.0938h4.4062c.9441,0 1.6467-.355 2.1562-1.0938 .4046-.5813 .6562-1.2682 .6562-2.0312v-5.6875c-0-.763-.2516-1.4882-.6562-2.0938-.5095-.7509-1.2121-1.0937-2.1562-1.0938h-4.4062zm11.25,0 0,1 1.8438,0 0,10-3.875,0 0,1 10,0 0-1-3.875,0 0-11-4.0938,0zm12.75,0c-.9292,0-1.678,.3429-2.1875,1.0938-.4046,.6056-.5937,1.3308-.5938,2.0938v5.6875c0,.763 .1891,1.4499 .5938,2.0312 .5095,.7388 1.2583,1.0938 2.1875,1.0938h4.4062c.9441,0 1.6467-.355 2.1562-1.0938 .4046-.5813 .6562-1.2682 .6562-2.0312v-5.6875c-0-.763-.2516-1.4882-.6562-2.0938-.5095-.7509-1.2121-1.0937-2.1562-1.0938h-4.4062zm12,0c-.9292,0-1.678,.3429-2.1875,1.0938-.4046,.6056-.5937,1.3308-.5938,2.0938v5.6875c0,.763 .1891,1.4499 .5938,2.0312 .5095,.7388 1.2583,1.0938 2.1875,1.0938h4.4062c.9441,0 1.6467-.355 2.1562-1.0938 .4046-.5813 .6562-1.2682 .6562-2.0312v-5.6875c-0-.763-.2516-1.4882-.6562-2.0938-.5095-.7509-1.2121-1.0937-2.1562-1.0938h-4.4062zm-34.875,1 2.25,0c.2548,0 .4777,.0402 .6875,.125l-4.5312,8.7812c-.1499-.327-.25-.6679-.25-1.0312v-5.6875c-0-.5087 .1515-.9945 .4062-1.4062 .3297-.5208 .8231-.7812 1.4375-.7812zm24,0 2.25,0c.2548,0 .4777,.0402 .6875,.125l-4.5312,8.7812c-.1499-.327-.25-.6679-.25-1.0312v-5.6875c-0-.5087 .1515-.9945 .4062-1.4062 .3297-.5208 .8231-.7812 1.4375-.7812zm12,0 2.25,0c.2548,0 .4777,.0402 .6875,.125l-4.5312,8.7812c-.1499-.327-.25-.6679-.25-1.0312v-5.6875c-0-.5087 .1515-.9945 .4062-1.4062 .3297-.5208 .8231-.7812 1.4375-.7812zm-32.1562,1.1562c.1349,.3391 .1875,.68 .1875,1.0312v5.6875c-0,.4966-.1515,.9753-.4062,1.375-.3147,.5208-.7606,.7813-1.375,.7812h-2.25c-.2248,0-.4614-.0523-.6562-.125l4.5-8.75zm24,0c.1349,.3391 .1875,.68 .1875,1.0312v5.6875c-0,.4966-.1515,.9753-.4062,1.375-.3147,.5208-.7606,.7813-1.375,.7812h-2.25c-.2248,0-.4614-.0523-.6562-.125l4.5-8.75zm12,0c.1349,.3391 .1875,.68 .1875,1.0312v5.6875c-0,.4966-.1515,.9753-.4062,1.375-.3147,.5208-.7606,.7813-1.375,.7812h-2.25c-.2248,0-.4614-.0523-.6562-.125l4.5-8.75zm-41.7188,15.8438v1h1.8438v10h-3.875v1h10v-1h-3.875v-11h-4.0938zm12,0 0,1 1.8438,0 0,10-3.875,0 0,1 10,0 0-1-3.875,0 0-11-4.0938,0zm12.75,0c-.9292,0-1.678,.3429-2.1875,1.0938-.4046,.6056-.5937,1.3308-.5938,2.0938v5.6875c0,.763 .1891,1.4499 .5938,2.0312 .5095,.7388 1.2583,1.0938 2.1875,1.0938h4.4062c.9441,0 1.6467-.355 2.1562-1.0938 .4046-.5813 .6562-1.2682 .6562-2.0312v-5.6875c-0-.763-.2516-1.4882-.6562-2.0938-.5095-.7509-1.2121-1.0937-2.1562-1.0938h-4.4062zm11.25,0 0,1 1.8438,0 0,10-3.875,0 0,1 10,0 0-1-3.875,0 0-11-4.0938,0zm-10.125,1 2.25,0c.2548,0 .4777,.0402 .6875,.125l-4.5312,8.7812c-.1499-.327-.25-.6679-.25-1.0312v-5.6875c-0-.5087 .1515-.9945 .4062-1.4062 .3297-.5208 .8231-.7812 1.4375-.7812zm3.8438,1.1562c.1349,.3391 .1875,.68 .1875,1.0312v5.6875c-0,.4966-.1515,.9753-.4062,1.375-.3147,.5208-.7606,.7813-1.375,.7812h-2.25c-.2248,0-.4614-.0523-.6562-.125l4.5-8.75zm-29.7188,15.8438v1h1.8438v10h-3.875v1h10v-1h-3.875v-11h-4.0938zm12.75,0c-.9292,0-1.678,.3429-2.1875,1.0938-.4046,.6056-.5937,1.3308-.5938,2.0938v5.6875c0,.763 .1891,1.4499 .5938,2.0312 .5095,.7388 1.2583,1.0938 2.1875,1.0938h4.4062c.9441,0 1.6467-.355 2.1562-1.0938 .4046-.5813 .6562-1.2682 .6562-2.0312v-5.6875c-0-.763-.2516-1.4882-.6562-2.0938-.5095-.7509-1.2121-1.0937-2.1562-1.0938h-4.4062zm12,0c-.9292,0-1.678,.3429-2.1875,1.0938-.4046,.6056-.5937,1.3308-.5938,2.0938v5.6875c0,.763 .1891,1.4499 .5938,2.0312 .5095,.7388 1.2583,1.0938 2.1875,1.0938h4.4062c.9441,0 1.6467-.355 2.1562-1.0938 .4046-.5813 .6562-1.2682 .6562-2.0312v-5.6875c-0-.763-.2516-1.4882-.6562-2.0938-.5095-.7509-1.2121-1.0937-2.1562-1.0938h-4.4062zm11.25,0 0,1 1.8438,0 0,10-3.875,0 0,1 10,0 0-1-3.875,0 0-11-4.0938,0zm-22.125,1 2.25,0c.2548,0 .4777,.0402 .6875,.125l-4.5312,8.7812c-.1499-.327-.25-.6679-.25-1.0312v-5.6875c-0-.5087 .1515-.9945 .4062-1.4062 .3297-.5208 .8231-.7812 1.4375-.7812zm12,0 2.25,0c.2548,0 .4777,.0402 .6875,.125l-4.5312,8.7812c-.1499-.327-.25-.6679-.25-1.0312v-5.6875c-0-.5087 .1515-.9945 .4062-1.4062 .3297-.5208 .8231-.7812 1.4375-.7812zm-8.1562,1.1562c.1349,.3391 .1875,.68 .1875,1.0312v5.6875c-0,.4966-.1515,.9753-.4062,1.375-.3147,.5208-.7606,.7813-1.375,.7812h-2.25c-.2248,0-.4614-.0523-.6562-.125l4.5-8.75zm12,0c.1349,.3391 .1875,.68 .1875,1.0312v5.6875c-0,.4966-.1515,.9753-.4062,1.375-.3147,.5208-.7606,.7813-1.375,.7812h-2.25c-.2248,0-.4614-.0523-.6562-.125l4.5-8.75z" clip-path="url(#clipPath3776)" transform="translate(100)"/>
<g fill="url(#linearGradient3795)" transform="translate(6)">
<path d="m20.7823,24c-.9292,0-1.6679,.3515-2.1774,1.1024-.4046,.6056-.6048,1.3157-.6048,2.0787v5.7008c0,.763 .2002,1.4344 .6048,2.0157 .5095,.7388 1.2483,1.1024 2.1774,1.1024h4.3952c.9441,0 1.6679-.3636 2.1774-1.1024 .4046-.5813 .6451-1.2527 .6452-2.0157v-5.7008c-0-.763-.2405-1.4732-.6452-2.0787-.5095-.7509-1.2333-1.1023-2.1774-1.1024h-4.3952zm1.1097,1.0079 2.2793,0c.2548,0 .4757,.0412 .6855,.126l-4.5373,8.7874c-.1499-.327-.2419-.676-.2419-1.0394v-5.7008c-0-.5087 .1485-.974 .4032-1.3858 .3297-.5208 .7968-.7874 1.4113-.7874zm3.8518,1.1339c.1349,.3391 .2016,.6882 .2016,1.0394v5.7008c-0,.4966-.1485,.9547-.4032,1.3543-.3147,.5208-.7565,.7874-1.371,.7874h-2.2793c-.2248,0-.4503-.0533-.6452-.126l4.497-8.7559z"/>
<path d="m40,36-10,0 0-.997 3.8605,0 0-9.9879-1.8255,0 0-1.0151 4.0762,0 0,11.003 3.8888,0l0,.997"/>
<path d="m44.7823,24c-.9292,0-1.6679,.3515-2.1774,1.1024-.4046,.6056-.6048,1.3157-.6048,2.0787v5.7008c0,.763 .2002,1.4344 .6048,2.0157 .5095,.7388 1.2483,1.1024 2.1774,1.1024h4.3952c.9441,0 1.6679-.3636 2.1774-1.1024 .4046-.5813 .6451-1.2527 .6452-2.0157v-5.7008c-0-.763-.2405-1.4732-.6452-2.0787-.5095-.7509-1.2333-1.1023-2.1774-1.1024h-4.3952zm1.1097,1.0079 2.2793,0c.2548,0 .4757,.0412 .6855,.126l-4.5373,8.7874c-.1499-.327-.2419-.676-.2419-1.0394v-5.7008c-0-.5087 .1485-.974 .4032-1.3858 .3297-.5208 .7968-.7874 1.4113-.7874zm3.8518,1.1339c.1349,.3391 .2016,.6882 .2016,1.0394v5.7008c-0,.4966-.1485,.9547-.4032,1.3543-.3147,.5208-.7565,.7874-1.371,.7874h-2.2793c-.2248,0-.4503-.0533-.6452-.126l4.497-8.7559z"/>
<path d="m56.7823,24c-.9292,0-1.6679,.3515-2.1774,1.1024-.4046,.6056-.6048,1.3157-.6048,2.0787v5.7008c0,.763 .2002,1.4344 .6048,2.0157 .5095,.7388 1.2483,1.1024 2.1774,1.1024h4.3952c.9441,0 1.6679-.3636 2.1774-1.1024 .4046-.5813 .6451-1.2527 .6452-2.0157v-5.7008c-0-.763-.2405-1.4732-.6452-2.0787-.5095-.7509-1.2333-1.1023-2.1774-1.1024h-4.3952zm1.1097,1.0079 2.2793,0c.2548,0 .4757,.0412 .6855,.126l-4.5373,8.7874c-.1499-.327-.2419-.676-.2419-1.0394v-5.7008c-0-.5087 .1485-.974 .4032-1.3858 .3297-.5208 .7968-.7874 1.4113-.7874zm3.8518,1.1339c.1349,.3391 .2016,.6882 .2016,1.0394v5.7008c-0,.4966-.1485,.9547-.4032,1.3543-.3147,.5208-.7565,.7874-1.371,.7874h-2.2793c-.2248,0-.4503-.0533-.6452-.126l4.497-8.7559z"/>
<path d="m28,54-10,0 0-.997 3.8605,0 0-9.9879-1.8255,0 0-1.0151 4.0762,0 0,11.003 3.8888,0v.997"/>
<path d="m40,54-10,0 0-.997 3.8605,0 0-9.9879-1.8255,0 0-1.0151 4.0762,0 0,11.003 3.8888,0l0,.997"/>
<path d="m44.7823,42c-.9292,0-1.6679,.3515-2.1774,1.1024-.4046,.6056-.6048,1.3157-.6048,2.0787v5.7008c0,.763 .2002,1.4344 .6048,2.0157 .5095,.7388 1.2483,1.1024 2.1774,1.1024h4.3952c.9441,0 1.6679-.3636 2.1774-1.1024 .4046-.5813 .6451-1.2527 .6452-2.0157v-5.7008c-0-.763-.2405-1.4732-.6452-2.0787-.5095-.7509-1.2333-1.1023-2.1774-1.1024h-4.3952zm1.1097,1.0079 2.2793,0c.2548,0 .4757,.0412 .6855,.126l-4.5373,8.7874c-.1499-.327-.2419-.676-.2419-1.0394v-5.7008c-0-.5087 .1485-.974 .4032-1.3858 .3297-.5208 .7968-.7874 1.4113-.7874zm3.8518,1.1339c.1349,.3391 .2016,.6882 .2016,1.0394v5.7008c-0,.4966-.1485,.9547-.4032,1.3543-.3147,.5208-.7565,.7874-1.371,.7874h-2.2793c-.2248,0-.4503-.0533-.6452-.126l4.497-8.7559z"/>
<path d="m64,54-10,0 0-.997 3.8605,0 0-9.9879-1.8255,0 0-1.0151 4.0762,0 0,11.003 3.8888,0l0,.997"/>
<path d="m28,72-10,0 0-.997 3.8605,0 0-9.9879-1.8255,0 0-1.0151 4.0762,0 0,11.003 3.8888,0v.997"/>
<path d="m32.7823,60c-.9292,0-1.6679,.3515-2.1774,1.1024-.4046,.6056-.6048,1.3157-.6048,2.0787v5.7008c0,.763 .2002,1.4344 .6048,2.0157 .5095,.7388 1.2483,1.1024 2.1774,1.1024h4.3952c.9441,0 1.6679-.3636 2.1774-1.1024 .4046-.5813 .6451-1.2527 .6452-2.0157v-5.7008c-0-.763-.2405-1.4732-.6452-2.0787-.5095-.7509-1.2333-1.1023-2.1774-1.1024h-4.3952zm1.1097,1.0079 2.2793,0c.2548,0 .4757,.0412 .6855,.126l-4.5373,8.7874c-.1499-.327-.2419-.676-.2419-1.0394v-5.7008c-0-.5087 .1485-.974 .4032-1.3858 .3297-.5208 .7968-.7874 1.4113-.7874zm3.8518,1.1339c.1349,.3391 .2016,.6882 .2016,1.0394v5.7008c-0,.4966-.1485,.9547-.4032,1.3543-.3147,.5208-.7565,.7874-1.371,.7874h-2.2793c-.2248,0-.4503-.0533-.6452-.126l4.497-8.7559z"/>
<path d="m44.7823,60c-.9292,0-1.6679,.3515-2.1774,1.1024-.4046,.6056-.6048,1.3157-.6048,2.0787v5.7008c0,.763 .2002,1.4344 .6048,2.0157 .5095,.7388 1.2483,1.1024 2.1774,1.1024h4.3952c.9441,0 1.6679-.3636 2.1774-1.1024 .4046-.5813 .6451-1.2527 .6452-2.0157v-5.7008c-0-.763-.2405-1.4732-.6452-2.0787-.5095-.7509-1.2333-1.1023-2.1774-1.1024h-4.3952zm1.1097,1.0079 2.2793,0c.2548,0 .4757,.0412 .6855,.126l-4.5373,8.7874c-.1499-.327-.2419-.676-.2419-1.0394v-5.7008c-0-.5087 .1485-.974 .4032-1.3858 .3297-.5208 .7968-.7874 1.4113-.7874zm3.8518,1.1339c.1349,.3391 .2016,.6882 .2016,1.0394v5.7008c-0,.4966-.1485,.9547-.4032,1.3543-.3147,.5208-.7565,.7874-1.371,.7874h-2.2793c-.2248,0-.4503-.0533-.6452-.126l4.497-8.7559z"/>
<path d="m64,72-10,0 0-.997 3.8605,0 0-9.9879-1.8255,0 0-1.0151 4.0762,0 0,11.003 3.8888,0l0,.997"/>
</g>
</g>
<path opacity=".5" fill="url(#linearGradient3680)" d="m12,6c-3.324,0-6,2.676-6,6v2 68 2c0,.3347 .0413,.6507 .0938,.9688 .0487,.2956 .097,.5969 .1875,.875 .0099,.0304 .0209,.0636 .0312,.0938 .0989,.2878 .2349,.5475 .375,.8125 .1446,.2735 .3156,.5356 .5,.7812 .1844,.2456 .3738,.4735 .5938,.6875 .4399,.4281 .9429,.8145 1.5,1.0938 .2785,.1396 .5735,.2469 .875,.3438-.2562-.1002-.4867-.2363-.7188-.375-.0074-.0044-.0239,.0045-.0312,0-.0319-.0193-.0623-.0425-.0938-.0625-.1204-.0767-.231-.1635-.3438-.25-.1062-.0808-.2133-.1611-.3125-.25-.1779-.1614-.3475-.3454-.5-.5312-.1076-.1303-.2184-.2653-.3125-.4062-.0251-.0384-.0385-.0859-.0625-.125-.0648-.103-.1302-.2045-.1875-.3125-.101-.1947-.2057-.4157-.2812-.625-.008-.0218-.0236-.0405-.0312-.0625-.0318-.0919-.0358-.1868-.0625-.2812-.0303-.1066-.0704-.203-.0938-.3125-.0729-.3415-.125-.6982-.125-1.0625v-2-68-2c0-2.7818 2.2182-5 5-5h2 68 2c2.7818,0 5,2.2182 5,5v2 68 2c0,.3643-.0521,.721-.125,1.0625-.0442,.2069-.0884,.3977-.1562,.5938-.0077,.022-.0233,.0407-.0312,.0625-.0627,.1737-.1384,.3674-.2188,.5312-.0416,.0828-.079,.17-.125,.25-.0546,.0972-.1268,.1883-.1875,.2812-.0941,.141-.2049,.276-.3125,.4062-.1432,.1744-.3031,.347-.4688,.5-.0112,.0102-.02,.0212-.0312,.0312-.1384,.1256-.2851,.2344-.4375,.3438-.1026,.0731-.2043,.1534-.3125,.2188-.0074,.0045-.0238-.0044-.0312,0-.232,.1387-.4625,.2748-.7188,.375 .3015-.0968 .5965-.2041 .875-.3438 .5571-.2792 1.0601-.6657 1.5-1.0938 .22-.214 .4094-.4419 .5938-.6875 .1844-.2456 .3554-.5077 .5-.7812 .1401-.265 .2761-.5247 .375-.8125 .0104-.0308 .0213-.0627 .0312-.0938 .0905-.2781 .1388-.5794 .1875-.875 .0524-.318 .0938-.634 .0938-.9688v-2-68-2c0-3.324-2.676-6-6-6h-72z"/>
<path opacity=".4" fill="url(#radialGradient2886)" d="m12,90c-3.324,0-6-2.676-6-6v-2-68-2c0-.3347 .0413-.6507 .0938-.9688 .0487-.2956 .097-.5969 .1875-.875 .0099-.0304 .0209-.0636 .0312-.0938 .0989-.2878 .2349-.5475 .375-.8125 .1446-.2735 .3156-.5356 .5-.7812 .1844-.2456 .3738-.4735 .5938-.6875 .4399-.4281 .9429-.8145 1.5-1.0938 .2785-.1396 .5735-.2469 .875-.3438-.2562,.1002-.4867,.2363-.7188,.375-.0074,.0044-.0239-.0045-.0312,0-.0319,.0193-.0623,.0425-.0938,.0625-.1204,.0767-.231,.1635-.3438,.25-.1062,.0808-.2133,.1611-.3125,.25-.1779,.1614-.3475,.3454-.5,.5312-.1076,.1303-.2184,.2653-.3125,.4062-.0251,.0384-.0384,.0859-.0625,.125-.0648,.103-.1302,.2045-.1875,.3125-.101,.1947-.2057,.4157-.2812,.625-.008,.0218-.0236,.0405-.0312,.0625-.0318,.092-.0358,.1868-.0625,.2812-.0303,.1066-.0704,.203-.0938,.3125-.0729,.3415-.125,.6982-.125,1.0625v2 68 2c0,2.7818 2.2182,5 5,5h2 68 2c2.7818,0 5-2.2182 5-5v-2-68-2c0-.3643-.0521-.721-.125-1.0625-.0442-.2069-.0884-.3977-.1562-.5938-.0077-.022-.0233-.0407-.0312-.0625-.0627-.1737-.1384-.3674-.2188-.5312-.0416-.0828-.079-.17-.125-.25-.0546-.0972-.1268-.1883-.1875-.2812-.0941-.141-.2049-.276-.3125-.4062-.1432-.1745-.3031-.347-.4688-.5-.0112-.0102-.02-.0211-.0312-.0312-.1384-.1256-.2851-.2344-.4375-.3438-.1026-.0732-.2043-.1534-.3125-.2188-.0074-.0045-.0238,.0044-.0312,0-.232-.1387-.4625-.2748-.7188-.375 .3015,.0968 .5965,.2041 .875,.3438 .5571,.2792 1.0601,.6657 1.5,1.0938 .22,.214 .4094,.4419 .5938,.6875 .1844,.2456 .3554,.5077 .5,.7812 .1401,.265 .2761,.5247 .375,.8125 .0104,.0308 .0213,.0627 .0312,.0938 .0905,.2781 .1388,.5794 .1875,.875 .0524,.318 .0938,.634 .0938,.9688v2 68 2c0,3.324-2.676,6-6,6h-72z"/>
<path fill="#f0f" d="m-88,6h72a6,6 0 0,1 6,6v72a6,6 0 0,1 -6,6h-72a6,6 0 0,1 -6-6v-72a6,6 0 0,1 6-6"/>
<path fill="#fff" stroke="#000" stroke-linecap="round" color="#000" stroke-width=".5" d="m112,8h16v16h-16z" stroke-dashoffset="8.6"/>
<text x="131.393" y="11.969" font-family="Liberation Sans" text-align="start" line-height="125%" xml:space="preserve" font-size="4px"><tspan x="131.393" y="11.969">Width: 2px</tspan><tspan x="131.393" y="16.969">Blur: 12</tspan><tspan x="131.393" y="21.969">Opacity: 60</tspan>
</text>
<path opacity=".5" fill="url(#linearGradient4209)" filter="url(#filter3794)" stroke="#fff" stroke-linecap="round" stroke-width=".5" d="m27,15h42a12,12 0 0,1 12,12v42a12,12 0 0,1 -12,12h-42a12,12 0 0,1 -12-12v-42a12,12 0 0,1 12-12" clip-path="url(#clipPath3613)"/>
</svg>
