<svg xmlns="http://www.w3.org/2000/svg" viewBox="0 0 96 96" xmlns:xlink="http://www.w3.org/1999/xlink">
<defs>
<clipPath id="clipPath3613">
<path fill="#fff" d="m12,6h72a6,6 0 0,1 6,6v72a6,6 0 0,1 -6,6h-72a6,6 0 0,1 -6-6v-72a6,6 0 0,1 6-6"/>
</clipPath>
<filter width="1.384" x="-.192" y="-.192" height="1.384" color-interpolation-filters="sRGB" id="filter3794">
<feGaussianBlur stdDeviation="5.28"/>
</filter>
<linearGradient id="linearGradient3737-9">
<stop offset="0" stop-color="#fff"/>
<stop offset="1" stop-color="#fff" stop-opacity="0"/>
</linearGradient>
<linearGradient id="linearGradient4232" xlink:href="#linearGradient3737-9" y1="20.221" y2="138.661" x2="0" gradientUnits="userSpaceOnUse"/>
<linearGradient gradientTransform="matrix(1.02381 0 0 1.0119 -1.14286 -98.07143)" id="linearGradient3780" xlink:href="#ButtonShadow-0" y1="6.132" y2="90.239" x2="0" gradientUnits="userSpaceOnUse"/>
<linearGradient gradientTransform="translate(0 -97)" id="linearGradient3721" xlink:href="#ButtonShadow-0" y1="6.132" y2="90.239" x2="0" gradientUnits="userSpaceOnUse"/>
<linearGradient id="linearGradient3737">
<stop offset="0" stop-color="#fff"/>
<stop offset="1" stop-color="#fff" stop-opacity="0"/>
</linearGradient>
<linearGradient id="linearGradient3706" xlink:href="#linearGradient3700" y1="90" y2="5.988" x2="0" gradientUnits="userSpaceOnUse"/>
<linearGradient id="linearGradient3700">
<stop offset="0" stop-color="#e6e6e6"/>
<stop offset="1" stop-color="#f5f5f5"/>
</linearGradient>
<linearGradient id="linearGradient3188" xlink:href="#linearGradient3737" y1="6" y2="63.893" x2="0" gradientUnits="userSpaceOnUse"/>
<linearGradient gradientTransform="matrix(1.00587 0 0 .99417 100 0)" id="ButtonShadow-0" y1="92.54" y2="7.017" x2="0" gradientUnits="userSpaceOnUse">
<stop offset="0"/>
<stop offset="1" stop-opacity=".588"/>
</linearGradient>
<radialGradient cx="48" cy="90.172" gradientTransform="matrix(1.15731 0 0 .99591 -7.55102 .19713)" r="42" id="radialGradient4251" gradientUnits="userSpaceOnUse">
<stop offset="0" stop-color="#fff"/>
<stop offset="1" stop-color="#fff" stop-opacity="0"/>
</radialGradient>
</defs>
<path opacity=".08" fill="url(#linearGradient3780)" d="m12-95.0312c-5.5111,0-10.0312,4.5202-10.0312,10.0312v71c0,5.5111 4.5202,10.0312 10.0312,10.0312h72c5.5111,0 10.0312-4.5202 10.0312-10.0312v-71c0-5.5111-4.5202-10.0312-10.0312-10.0312h-72z" transform="scale(1 -1)"/>
<path opacity=".1" fill="url(#linearGradient3780)" d="m12-94.0312c-4.9716,0-9.0312,4.0596-9.0312,9.0312v71c0,4.9716 4.0596,9.0312 9.0312,9.0312h72c4.9716,0 9.0312-4.0596 9.0312-9.0312v-71c0-4.9716-4.0596-9.0312-9.0312-9.0312h-72z" transform="scale(1 -1)"/>
<path opacity=".2" fill="url(#linearGradient3780)" d="m12-93c-4.4091,0-8,3.5909-8,8v71c0,4.4091 3.5909,8 8,8h72c4.4091,0 8-3.5909 8-8v-71c0-4.4091-3.5909-8-8-8h-72z" transform="scale(1 -1)"/>
<path opacity=".3" fill="url(#linearGradient3780)" d="m12-92h72a7,7 0 0,1 7,7v71a7,7 0 0,1 -7,7h-72a7,7 0 0,1 -7-7v-71a7,7 0 0,1 7-7" transform="scale(1 -1)"/>
<path opacity=".45" fill="url(#linearGradient3721)" d="m12-91h72a6,6 0 0,1 6,6v72a6,6 0 0,1 -6,6h-72a6,6 0 0,1 -6-6v-72a6,6 0 0,1 6-6" transform="scale(1 -1)"/>
<path fill="url(#linearGradient3706)" d="m12,6h72a6,6 0 0,1 6,6v72a6,6 0 0,1 -6,6h-72a6,6 0 0,1 -6-6v-72a6,6 0 0,1 6-6"/>
<path opacity=".6" fill="url(#linearGradient3188)" d="m12,6c-3.324,0-6,2.676-6,6v2 68 2c0,.3347 .0413,.6507 .0938,.9688 .0487,.2956 .097,.5969 .1875,.875 .0099,.0304 .0209,.0636 .0312,.0938 .0989,.2878 .2349,.5475 .375,.8125 .1446,.2735 .3156,.5356 .5,.7812 .1844,.2456 .3738,.4735 .5938,.6875 .4399,.4281 .9429,.8145 1.5,1.0938 .2785,.1396 .5735,.2469 .875,.3438-.2562-.1002-.4867-.2363-.7188-.375-.0074-.0044-.0239,.0045-.0312,0-.0319-.0193-.0623-.0425-.0938-.0625-.1204-.0767-.231-.1635-.3438-.25-.1062-.0808-.2133-.1611-.3125-.25-.1779-.1614-.3475-.3454-.5-.5312-.1076-.1303-.2184-.2653-.3125-.4062-.0251-.0384-.0384-.0859-.0625-.125-.0648-.103-.1302-.2045-.1875-.3125-.101-.1947-.2057-.4157-.2812-.625-.008-.0218-.0236-.0405-.0312-.0625-.0318-.0919-.0358-.1868-.0625-.2812-.0303-.1066-.0704-.203-.0938-.3125-.0729-.3415-.125-.6982-.125-1.0625v-2-68-2c0-2.7818 2.2182-5 5-5h2 68 2c2.7818,0 5,2.2182 5,5v2 68 2c0,.3643-.0521,.721-.125,1.0625-.0442,.2069-.0884,.3977-.1562,.5938-.0077,.022-.0233,.0407-.0312,.0625-.0627,.1737-.1384,.3674-.2188,.5312-.0416,.0828-.079,.17-.125,.25-.0546,.0972-.1268,.1883-.1875,.2812-.0941,.141-.2049,.276-.3125,.4062-.1432,.1744-.3031,.347-.4688,.5-.0112,.0102-.02,.0212-.0312,.0312-.1384,.1256-.2851,.2344-.4375,.3438-.1026,.0731-.2043,.1534-.3125,.2188-.0074,.0045-.0238-.0044-.0312,0-.232,.1387-.4625,.2748-.7188,.375 .3015-.0968 .5965-.2041 .875-.3438 .5571-.2792 1.0601-.6657 1.5-1.0938 .22-.214 .4094-.4419 .5938-.6875 .1844-.2456 .3554-.5077 .5-.7812 .1401-.265 .2761-.5247 .375-.8125 .0104-.0308 .0213-.0627 .0312-.0938 .0905-.2781 .1388-.5794 .1875-.875 .0524-.318 .0938-.634 .0938-.9688v-2-68-2c0-3.324-2.676-6-6-6h-72z"/>
<path opacity=".4" fill="url(#radialGradient4251)" d="m12,90c-3.324,0-6-2.676-6-6v-2-68-2c0-.3347 .0413-.6507 .0938-.9688 .0487-.2956 .097-.5969 .1875-.875 .0099-.0304 .0209-.0636 .0312-.0938 .0989-.2878 .2349-.5475 .375-.8125 .1446-.2735 .3156-.5356 .5-.7812 .1844-.2456 .3738-.4735 .5938-.6875 .4399-.4281 .9429-.8145 1.5-1.0938 .2785-.1396 .5735-.2469 .875-.3438-.2562,.1002-.4867,.2363-.7188,.375-.0074,.0044-.0239-.0045-.0312,0-.0319,.0193-.0623,.0425-.0938,.0625-.1204,.0767-.231,.1635-.3438,.25-.1062,.0808-.2133,.1611-.3125,.25-.1779,.1614-.3475,.3454-.5,.5312-.1076,.1303-.2184,.2653-.3125,.4062-.0251,.0384-.0384,.0859-.0625,.125-.0648,.103-.1302,.2045-.1875,.3125-.101,.1947-.2057,.4157-.2812,.625-.008,.0218-.0236,.0405-.0312,.0625-.0318,.092-.0358,.1868-.0625,.2812-.0303,.1066-.0704,.203-.0938,.3125-.0729,.3415-.125,.6982-.125,1.0625v2 68 2c0,2.7818 2.2182,5 5,5h2 68 2c2.7818,0 5-2.2182 5-5v-2-68-2c0-.3643-.0521-.721-.125-1.0625-.0442-.2069-.0884-.3977-.1562-.5938-.0077-.022-.0233-.0407-.0312-.0625-.0627-.1737-.1384-.3674-.2188-.5312-.0416-.0828-.079-.17-.125-.25-.0546-.0972-.1268-.1883-.1875-.2812-.0941-.141-.2049-.276-.3125-.4062-.1432-.1745-.3031-.347-.4688-.5-.0112-.0102-.02-.0211-.0312-.0312-.1384-.1256-.2851-.2344-.4375-.3438-.1026-.0732-.2043-.1534-.3125-.2188-.0074-.0045-.0238,.0044-.0312,0-.232-.1387-.4625-.2748-.7188-.375 .3015,.0968 .5965,.2041 .875,.3438 .5571,.2792 1.0601,.6657 1.5,1.0938 .22,.214 .4094,.4419 .5938,.6875 .1844,.2456 .3554,.5077 .5,.7812 .1401,.265 .2761,.5247 .375,.8125 .0104,.0308 .0213,.0627 .0312,.0938 .0905,.2781 .1388,.5794 .1875,.875 .0524,.318 .0938,.634 .0938,.9688v2 68 2c0,3.324-2.676,6-6,6h-72z"/>
<path opacity=".5" fill="url(#linearGradient4232)" filter="url(#filter3794)" stroke="#fff" stroke-linecap="round" stroke-width=".5" d="m27,15h42a12,12 0 0,1 12,12v42a12,12 0 0,1 -12,12h-42a12,12 0 0,1 -12-12v-42a12,12 0 0,1 12-12" clip-path="url(#clipPath3613)"/>
<path d="m40.6261,28.8625c1.3553-.2082 2.7222-.3605 4.0924-.4326 .2434-.058 .4952-.0461 .7439-.055 1.9441-.062 3.8909-.0592 5.8342,.0283 3.5074,.2481 6.9971,.8308 10.3806,1.8021l-.0143,.019c-.496,.6709-.9935,1.3407-1.48,2.0184-.1457,.0269-.2733-.0653-.4031-.1117-2.567-1.0593-5.2996-1.6742-8.0499-2.0069-4.5239-.4633-9.1553-.091-13.4952,1.301-3.1953,1.0334-6.2809,2.627-8.6636,5.0301-1.6886,1.7268-2.985,3.9606-3.161,6.4082-.1637,1.1664 .1155,2.3308 .3626,3.4627-.9436,.0963-1.868,.3276-2.805,.4717-2.6369,.4729-5.2734,.9487-7.9111,1.4174-.0259-1.8908 .4675-3.7614 1.2527-5.472 1.5618-3.3305 4.2702-5.9915 7.288-8.0289 2.0406-1.3701 4.2463-2.4878 6.5373-3.3741 3.0521-1.1932 6.25-2.0085 9.4917-2.4777z"/>
<path fill="#d72123" d="m60.1829,32.2427c.4864-.6778 .9839-1.3476 1.48-2.0184 4.543,1.3306 8.93,3.4316 12.5136,6.5623 1.4653,1.3121 2.7906,2.7965 3.8085,4.4854 1.2053,1.9875 1.9692,4.2637 2.0509,6.5955-3.5631-.6228-7.1252-1.2508-10.6878-1.8757 .4385-1.3946 .4422-2.913 .142-4.3361-.5565-2.4596-2.1333-4.5713-4.0353-6.1743-1.5856-1.3341-3.3944-2.4034-5.3109-3.1858l.0391-.0529z"/>
<path d="m47.9688,40.9688c-.6721,0-1.2326,.4124-1.4688,1-.5172-.091-1.0421-.1792-1.5625-.25-.0353,.1926-.0659,.3684-.0938,.5625 .4915,.0844 .9808,.1767 1.4688,.2812 .0203,.0031 .0422-.003 .0625,0 0,.8826 .7111,1.5938 1.5938,1.5938 .6987,0 1.3141-.4377 1.5312-1.0625 .59,.1021 1.1905,.2161 1.7812,.3125 1.5915,.2709 3.1573,.5793 4.75,.8438 1.6767,.3052 3.3533,.5768 5.0312,.875 2.4194,.4171 4.8591,.8828 7.2812,1.2812 3.8735,.7092 7.7488,1.3665 11.625,2.0625 .8019,.1281 1.6034,.2809 2.4062,.4062 .0248-.1895 .0443-.3781 .0938-.5625-.8092-.1784-1.6246-.2795-2.4375-.4375-3.5631-.6228-7.1249-1.2501-10.6875-1.875-.8188-.1337-1.6169-.3173-2.4375-.4375-2.4405-.4477-4.8997-.8528-7.3438-1.2812-.238-.0624-.4798-.0711-.7188-.125-.5843-.098-1.1633-.2308-1.75-.3125-2.4419-.442-4.8977-.8614-7.3438-1.2812-.0475-.0188-.1041-.0224-.1562-.0312-.0174-.8675-.7533-1.5625-1.625-1.5625z"/>
<path d="m16.0829,50.8993c1.9685-.0132 3.9371-.0024 5.9056-.0055 .0019,.0729 .0058,.2188 .0078,.2918 1.4303-.3115 2.9004-.444 4.3633-.3632 1.0652,.0975 2.0432,.554 2.9959,1.0072-1.0739,.6642-2.1666,1.3038-3.2146,2.0065-1.1678-.9018-2.755-.9026-4.1168-.508-.017,.1457-.033,.2919-.0344,.4395 .0007,3.3888 .0016,6.7777-.0004,10.1665-1.9678-.0006-3.9355,.0018-5.9032-.0012-.0042-4.3445 .0021-8.689-.0032-13.0335z"/>
<path d="m37.1745,50.8807c-1.7334,.0035-3.4474,.0153-5.1806,.0299 .0016,5.5497 .0036,11.1001 0,16.6498 .2928-.0176 .5826-.0455 .8684-.1198 1.681-.2244 3.3486-.476 5.0309-.6888 .0129-.8958-.0005-1.7995 0-2.6951 .1609-.0067 .3476-.0206 .5091-.0299 2.541-.1728 5.0646-.8435 7.3068-2.0663 1.3113-.7381 2.6026-1.72 3.2042-3.1443 .5125-1.1872 .2635-2.5684-.3893-3.6534-.8596-1.3968-2.2904-2.3368-3.7732-2.9646-2.3874-.988-5.0075-1.3322-7.5763-1.3176zm.7486,1.4374c1.5141,.1519 2.8587,1.0136 3.8929,2.0962 .8919,.938 1.5354,2.2452 1.3176,3.5635-.2381,1.3207-1.1527,2.4056-2.186,3.2042-.8975,.6589-1.9356,1.2284-3.0545,1.3775-.0038-3.4081 .0253-6.8334 .0299-10.2414z"/>
<path d="m52.3327,50.9023c6.7645-.0207 13.5294-.0025 20.294-.0091 1.979,.0081 3.991,.0207 5.9162,.5327 .5541,.1825 1.293,.3995 1.4387,1.0436 .0144,3.8213 .0054,7.6434 .0044,11.4651-1.9689-.0004-3.9376-.0012-5.9063,.0004-.0004-3.7919-.0081-7.5839 .0038-11.3756-.3577-.3103-.8676-.2971-1.3116-.3513-1.2143-.0316-2.4295-.0091-3.6439-.0125 .0003,3.913 .0044,7.8261-.002,11.7391-1.9717-.0018-3.9432,.0005-5.9148-.0012-.0058-3.1344-.0009-6.2687-.0025-9.4031-.0158-.6849 .0343-1.3724-.0298-2.0551-.5547-.2332-1.1624-.2788-1.7572-.2817-1.0561-.0017-2.112,.0007-3.1679-.0011-.0052,3.9144 .0064,7.8288-.0057,11.7431-1.8565-.0024-3.7129-.0036-5.5693,.0008-.1279,.01-.2471-.0146-.3576-.0739 .0305-4.3196 .0073-8.6404 .0116-12.9604l-.0001,0z"/>
</svg>
