<svg xmlns="http://www.w3.org/2000/svg" viewBox="0 0 96 96" xmlns:xlink="http://www.w3.org/1999/xlink">
<defs>
<clipPath id="clipPath3613">
<path fill="#fff" d="m12,6h72a6,6 0 0,1 6,6v72a6,6 0 0,1 -6,6h-72a6,6 0 0,1 -6-6v-72a6,6 0 0,1 6-6"/>
</clipPath>
<filter width="1.384" x="-.192" y="-.192" height="1.384" color-interpolation-filters="sRGB" id="filter3794">
<feGaussianBlur stdDeviation="5.28"/>
</filter>
<linearGradient id="linearGradient3923" xlink:href="#linearGradient3737-1" y1="6" y2="63.893" x2="0" gradientUnits="userSpaceOnUse"/>
<linearGradient id="linearGradient3737-9">
<stop offset="0" stop-color="#fff"/>
<stop offset="1" stop-color="#fff" stop-opacity="0"/>
</linearGradient>
<linearGradient id="linearGradient3737-1">
<stop offset="0" stop-color="#fff"/>
<stop offset="1" stop-color="#fff" stop-opacity="0"/>
</linearGradient>
<linearGradient id="linearGradient3080" xlink:href="#linearGradient3737-9" y1="20.221" y2="138.661" x2="0" gradientUnits="userSpaceOnUse"/>
<linearGradient id="linearGradient3700">
<stop offset="0" stop-color="#ebebeb"/>
<stop offset="1" stop-color="#fafafa"/>
</linearGradient>
<linearGradient gradientTransform="matrix(1.00587 0 0 .99417 100 0)" id="ButtonShadow-0" y1="92.54" y2="7.017" x2="0" gradientUnits="userSpaceOnUse">
<stop offset="0"/>
<stop offset="1" stop-opacity=".588"/>
</linearGradient>
<linearGradient id="linearGradient3706" xlink:href="#linearGradient3700" y1="90" y2="5.988" x2="0" gradientUnits="userSpaceOnUse"/>
<linearGradient gradientTransform="matrix(1.02381 0 0 1.0119 -1.14286 -98.07143)" id="linearGradient3780" xlink:href="#ButtonShadow-0" y1="6.132" y2="90.239" x2="0" gradientUnits="userSpaceOnUse"/>
<linearGradient gradientTransform="translate(0 -97)" id="linearGradient3721" xlink:href="#ButtonShadow-0" y1="6.132" y2="90.239" x2="0" gradientUnits="userSpaceOnUse"/>
<radialGradient cx="48" cy="90.172" gradientTransform="matrix(1.15731 0 0 .99591 -7.55102 .19713)" r="42" id="radialGradient2886" gradientUnits="userSpaceOnUse">
<stop offset="0" stop-color="#fff"/>
<stop offset="1" stop-color="#fff" stop-opacity="0"/>
</radialGradient>
</defs>
<path opacity=".08" fill="url(#linearGradient3780)" d="m12-95.0312c-5.5111,0-10.0312,4.5202-10.0312,10.0312v71c0,5.5111 4.5202,10.0312 10.0312,10.0312h72c5.5111,0 10.0312-4.5202 10.0312-10.0312v-71c0-5.5111-4.5202-10.0312-10.0312-10.0312h-72z" transform="scale(1 -1)"/>
<path opacity=".1" fill="url(#linearGradient3780)" d="m12-94.0312c-4.9716,0-9.0312,4.0596-9.0312,9.0312v71c0,4.9716 4.0596,9.0312 9.0312,9.0312h72c4.9716,0 9.0312-4.0596 9.0312-9.0312v-71c0-4.9716-4.0596-9.0312-9.0312-9.0312h-72z" transform="scale(1 -1)"/>
<path opacity=".2" fill="url(#linearGradient3780)" d="m12-93c-4.4091,0-8,3.5909-8,8v71c0,4.4091 3.5909,8 8,8h72c4.4091,0 8-3.5909 8-8v-71c0-4.4091-3.5909-8-8-8h-72z" transform="scale(1 -1)"/>
<path opacity=".3" fill="url(#linearGradient3780)" d="m12-92h72a7,7 0 0,1 7,7v71a7,7 0 0,1 -7,7h-72a7,7 0 0,1 -7-7v-71a7,7 0 0,1 7-7" transform="scale(1 -1)"/>
<path opacity=".45" fill="url(#linearGradient3721)" d="m12-91h72a6,6 0 0,1 6,6v72a6,6 0 0,1 -6,6h-72a6,6 0 0,1 -6-6v-72a6,6 0 0,1 6-6" transform="scale(1 -1)"/>
<path fill="url(#linearGradient3706)" d="m12,6h72a6,6 0 0,1 6,6v72a6,6 0 0,1 -6,6h-72a6,6 0 0,1 -6-6v-72a6,6 0 0,1 6-6"/>
<path opacity=".5" fill="url(#linearGradient3923)" d="m12,6c-3.324,0-6,2.676-6,6v2 68 2c0,.3347 .0413,.6507 .0938,.9688 .0487,.2956 .097,.5969 .1875,.875 .0099,.0304 .0209,.0636 .0312,.0938 .0989,.2878 .2349,.5475 .375,.8125 .1446,.2735 .3156,.5356 .5,.7812 .1844,.2456 .3738,.4735 .5938,.6875 .4399,.4281 .9429,.8145 1.5,1.0938 .2785,.1396 .5735,.2469 .875,.3438-.2562-.1002-.4867-.2363-.7188-.375-.0074-.0044-.0239,.0045-.0312,0-.0319-.0193-.0623-.0425-.0938-.0625-.1204-.0767-.231-.1635-.3438-.25-.1062-.0808-.2133-.1611-.3125-.25-.1779-.1614-.3475-.3454-.5-.5312-.1076-.1303-.2184-.2653-.3125-.4062-.0251-.0384-.0385-.0859-.0625-.125-.0648-.103-.1302-.2045-.1875-.3125-.101-.1947-.2057-.4157-.2812-.625-.008-.0218-.0236-.0405-.0312-.0625-.0318-.0919-.0358-.1868-.0625-.2812-.0303-.1066-.0704-.203-.0938-.3125-.0729-.3415-.125-.6982-.125-1.0625v-2-68-2c0-2.7818 2.2182-5 5-5h2 68 2c2.7818,0 5,2.2182 5,5v2 68 2c0,.3643-.0521,.721-.125,1.0625-.0442,.2069-.0884,.3977-.1562,.5938-.0077,.022-.0233,.0407-.0312,.0625-.0627,.1737-.1384,.3674-.2188,.5312-.0416,.0828-.079,.17-.125,.25-.0546,.0972-.1268,.1883-.1875,.2812-.0941,.141-.2049,.276-.3125,.4062-.1432,.1744-.3031,.347-.4688,.5-.0112,.0102-.02,.0212-.0312,.0312-.1384,.1256-.2851,.2344-.4375,.3438-.1026,.0731-.2043,.1534-.3125,.2188-.0074,.0045-.0238-.0044-.0312,0-.232,.1387-.4625,.2748-.7188,.375 .3015-.0968 .5965-.2041 .875-.3438 .5571-.2792 1.0601-.6657 1.5-1.0938 .22-.214 .4094-.4419 .5938-.6875 .1844-.2456 .3554-.5077 .5-.7812 .1401-.265 .2761-.5247 .375-.8125 .0104-.0308 .0213-.0627 .0312-.0938 .0905-.2781 .1388-.5794 .1875-.875 .0524-.318 .0938-.634 .0938-.9688v-2-68-2c0-3.324-2.676-6-6-6h-72z"/>
<path opacity=".4" fill="url(#radialGradient2886)" d="m12,90c-3.324,0-6-2.676-6-6v-2-68-2c0-.3347 .0413-.6507 .0938-.9688 .0487-.2956 .097-.5969 .1875-.875 .0099-.0304 .0209-.0636 .0312-.0938 .0989-.2878 .2349-.5475 .375-.8125 .1446-.2735 .3156-.5356 .5-.7812 .1844-.2456 .3738-.4735 .5938-.6875 .4399-.4281 .9429-.8145 1.5-1.0938 .2785-.1396 .5735-.2469 .875-.3438-.2562,.1002-.4867,.2363-.7188,.375-.0074,.0044-.0239-.0045-.0312,0-.0319,.0193-.0623,.0425-.0938,.0625-.1204,.0767-.231,.1635-.3438,.25-.1062,.0808-.2133,.1611-.3125,.25-.1779,.1614-.3475,.3454-.5,.5312-.1076,.1303-.2184,.2653-.3125,.4062-.0251,.0384-.0384,.0859-.0625,.125-.0648,.103-.1302,.2045-.1875,.3125-.101,.1947-.2057,.4157-.2812,.625-.008,.0218-.0236,.0405-.0312,.0625-.0318,.092-.0358,.1868-.0625,.2812-.0303,.1066-.0704,.203-.0938,.3125-.0729,.3415-.125,.6982-.125,1.0625v2 68 2c0,2.7818 2.2182,5 5,5h2 68 2c2.7818,0 5-2.2182 5-5v-2-68-2c0-.3643-.0521-.721-.125-1.0625-.0442-.2069-.0884-.3977-.1562-.5938-.0077-.022-.0233-.0407-.0312-.0625-.0627-.1737-.1384-.3674-.2188-.5312-.0416-.0828-.079-.17-.125-.25-.0546-.0972-.1268-.1883-.1875-.2812-.0941-.141-.2049-.276-.3125-.4062-.1432-.1745-.3031-.347-.4688-.5-.0112-.0102-.02-.0211-.0312-.0312-.1384-.1256-.2851-.2344-.4375-.3438-.1026-.0732-.2043-.1534-.3125-.2188-.0074-.0045-.0238,.0044-.0312,0-.232-.1387-.4625-.2748-.7188-.375 .3015,.0968 .5965,.2041 .875,.3438 .5571,.2792 1.0601,.6657 1.5,1.0938 .22,.214 .4094,.4419 .5938,.6875 .1844,.2456 .3554,.5077 .5,.7812 .1401,.265 .2761,.5247 .375,.8125 .0104,.0308 .0213,.0627 .0312,.0938 .0905,.2781 .1388,.5794 .1875,.875 .0524,.318 .0938,.634 .0938,.9688v2 68 2c0,3.324-2.676,6-6,6h-72z"/>
<path fill="#f0f" d="m-88,6h72a6,6 0 0,1 6,6v72a6,6 0 0,1 -6,6h-72a6,6 0 0,1 -6-6v-72a6,6 0 0,1 6-6"/>
<path fill="#fff" stroke="#000" stroke-linecap="round" color="#000" stroke-width=".5" d="m112,8h16v16h-16z" stroke-dashoffset="8.6"/>
<text x="131.393" y="11.969" font-family="Liberation Sans" text-align="start" line-height="125%" xml:space="preserve" font-size="4px"><tspan x="131.393" y="11.969">Width: 2px</tspan><tspan x="131.393" y="16.969">Blur: 12</tspan><tspan x="131.393" y="21.969">Opacity: 60</tspan>
</text>
<path opacity=".5" fill="url(#linearGradient3080)" filter="url(#filter3794)" stroke="#fff" stroke-linecap="round" stroke-width=".5" d="m27,15h42a12,12 0 0,1 12,12v42a12,12 0 0,1 -12,12h-42a12,12 0 0,1 -12-12v-42a12,12 0 0,1 12-12" clip-path="url(#clipPath3613)"/>
<g line-height="150%">
<g stroke-width=".1">
<path stroke-opacity=".511" fill="#666" stroke="#666" d="m15.1562,16.0312-1.0312,1.8438c.3924,.0993 .4009-.4252 .5938-.6562l.625-1.1875h-.1875zm1.4688,0-1,1.8438c.3924,.0993 .4009-.4252 .5938-.6562l.625-1.1875h-.2188zm16.4062,0c-.0127,.4245 .1305,.8328-.4062,.4688-1.0318,.1922-.2117,1.9711 .4375,1.1875 .1832,.4785 .2404-.1779 .1875-.4375v-1.2188h-.2188zm4.4375,0c-.4932,.0029-.4953,.5577-.8125,.5938 .3735-.0393 .3334,.3324 .3125,.6875-.1453,.3017 .2018,.8294 .2188,.3125 .0367-.2954-.0636-.7316 .0625-.9375 .3111,.1064 .8289-.1438 .25-.1562-.7198,.097 .0688-.4983 .3125-.3438 .0723-.2179-.2122-.1379-.3438-.1562zm-18.3438,.125c-.0463,.0043-.0689,.0059-.0938,.0312-.9033,.4398 .1676,.9519 .5938,1.125 .0582,.9889-1.435-.4911-.8438,.4375 .7465,.6271 1.6507-.7265 .5312-.8438-.9234-.1576 .0744-.9272 .3438-.3125 .5474-.0485-.2069-.4678-.5312-.4375zm24.5,0c-.0654-.0129-.1452-.0022-.2188,.0312h-.6875v1.6562c.3775,.0987 .1634-.4015 .2188-.625 .1882-.0894 .5291-.0059 .7812-.0312 .2322-.2534-.2834-.187-.4688-.1875-.394,.1274-.3206-.2254-.3125-.5-.0262-.2934 .4587-.0554 .6562-.125 .3301,.0155 .2275-.18 .0312-.2188zm9.5938,.0312c-.1316,.3926 .5428-.0226 .375,.4062v1.0625c-.3018-.1411-.5861,.2387-.1562,.1875 .2442-.0303 .611,.073 .7812-.0312 .057-.3181-.5656,.0454-.375-.4062v-1.0312c.3018,.1411 .5861-.2387 .1562-.1875h-.7812zm7.7812,0c-.7498,.2584-.1183,1.0557 .4688,.9688 .5133,.6463-.6523,.5595-.8125,.25-.2436,.4936 1.2407,.7417 1.1875,0 .1026-.6311-1.4408-.447-.7812-1.0312 .2775-.1909 .8732,.5892 .625-.0312-.1777-.2188-.4429-.1521-.6875-.1562zm2.9688,0c.1355,.3595-.4733,.349-.1875,.5 .2726,.0063 .0608,.5041 .125,.7188-.3099,.7148 1.2881,.4118 .625,.25-.5102,.1895-.4038-.418-.4062-.7188-.1168-.3734 .3109-.2137 .5312-.25 .1026-.3611-.5371,.0145-.5312-.25-.0183-.1502 .077-.3049-.1562-.25zm-43.2188,.3125c-1.0395-.0346-.5983,1.89 .3438,1.25 .4083-.3302 .3226-1.3242-.3438-1.25zm3.2812,0c-.4618,.0374-.4283,.4987-.5938,.0312-.3345,.009 .0174,.7482-.0938,1.0625-.0216,.5324 .3769,.1318 .2188-.2188-.3528-.8505 1.3568-.5882 .4688-.875zm1.2188,0c-1.0613,.0225-.5524,1.9585 .4062,1.25 .4757-.7798-1.0642,.5164-.7812-.6875-.0382-.9669 1.2749,.3475 .75-.4375-.1-.1002-.2418-.1236-.375-.125zm1.5,0c-1.0553,.0022-.5729,1.8753 .375,1.2812 .4735-.5927-1.0181,.3457-.6875-.5625 .2619-.0882 .912,.1867 .875-.1875 .0037-.314-.2573-.5287-.5625-.5312zm3,0c-1.0827,.0078-.5484,1.9576 .4062,1.25 .4681-.7874-1.0522,.523-.7812-.6875-.0382-.9669 1.2749,.3475 .75-.4375-.1-.1002-.2418-.1236-.375-.125zm1.5,0c-1.0218-.0478-.6169,1.8711 .3125,1.25 .455-.308 .3559-1.3243-.3125-1.25zm3,0c-1.0655-.0185-.57,1.8821 .375,1.2812 .4735-.5927-1.0181,.3457-.6875-.5625 .2619-.0882 .912,.1867 .875-.1875 .0037-.314-.2573-.5287-.5625-.5312zm4.5,0c-1.0218-.0478-.6169,1.8711 .3125,1.25 .4207-.2924 .3469-1.3389-.3125-1.25zm1.75,0c-.4467,.0815-.4315,.5315-.5625,.0312-.352,.0107 .0245,.7474-.0938,1.0625-.0216,.5324 .3769,.1318 .2188-.2188-.3478-.8227 1.3165-.6076 .4375-.875zm4.0312,0c-.3716,.0616-.3399,.6426-.0312,.2188 .5017-.2669 .6546,.4992 .0938,.3125-.8528,.0038-.3073,1.325 .3125,.6875-.0294-.2774 .4919,.4829 .5-.0312-.3751,.0506-.1473-.5855-.2188-.8438-.0333-.2127-.2637-.3555-.4688-.3438-.0697-.0173-.1344-.0088-.1875,0zm1.6875,0c-.9209-.0144-.6502,1.6856 .25,1.3438 .4813-.1361 .1919-.5427-.0938-.1562-.6268,.0638-.5939-.7042 .0312-.4688 .7832,.2274 .3358-.8003-.1875-.7188zm1.625,0c-.3997,.0644-.3681,.3024-.5312,.0312-.2783,.0216-.0053,.568-.0938,.8125-.052,.2199 .0152,.7268 .2188,.4062 .0423-.3214-.0965-.6982 .0938-.9688 .5236-.4129 .5357,.3965 .5,.75-.1534,.3665 .3305,.4572 .2188,.0625-.0438-.3688 .1734-1.0945-.4062-1.0938zm2.6875,0c-.3937,.0914-.3188,.6371 .0625,.1875 .6096-.0443 .3665,.5373-.125,.375-.8527,.2287 .1361,1.3389 .5,.5312-.0014,.4695 .7789,.149 .25,.0625-.1238-.4111 .1973-1.147-.5-1.1562-.0764-.0094-.1313-.0131-.1875,0zm4.7188,0c-.9675-.0391-.7349,1.7105 .2188,1.3438 .4748-.1197 .2428-.7166-.0312-.2188-.9967,.4448-.5008-1.6773 .125-.7188 .544,.1021-.0954-.5188-.3125-.4062zm1.4688,0c-1.0359-.0434-.5843,1.8908 .3438,1.25 .4431-.3023 .3035-1.3326-.3438-1.25zm1.625,0c-.3451-.0113-.4164,.3871-.4688,.0312-.3606-.0468-.1098,.5452-.1875,.7812 .002,.2108-.076,.7269 .2188,.5 .0423-.373-.1327-.8636 .2188-1.125 .5488-.1386 .3797,.549 .4062,.875-.1259,.3997 .3637,.33 .2188-.0312-.038-.3663 .1614-1.0177-.4062-1.0312zm4.375,0c-.9199-.0145-.7044,1.6826 .2188,1.3438 .5391-.1584 .1872-.529-.0938-.1562-.5356,.1233-.6315-.6971-.0312-.4688 .5699,.2118 .6753-.4087 .1875-.6562l-.125-.0312-.1562-.0312zm-41,.0312c.0582,.4352-.1592,.9988 .2188,1.3125 .4765,.1288 .5485-.3339 .7188,0 .2635-.0633 .0491-.6241 .125-.875 .1699-.3619-.2858-.6706-.2188-.1562 .1855,.4774-.3866,1.3659-.625,.5625-.0789-.2557 .1787-.844-.1562-.8438h-.0625zm27,0c-.0408,.3135 .4515,.0883 .6562,.1562 .2433,.0148-.2704,.3693-.3438,.5312-.1052,.1874-.5055,.4409-.3438,.625h1.0938c.0408-.3135-.4515-.0883-.6562-.1562-.4347,.0733 .1029-.3007 .1875-.4688 .1373-.2321 .4591-.3973 .4375-.6875h-1.0312zm-28.0938,.125c.0358-.0146 .0795-.0065 .125,0 1.1056,.4915-.6452,1.767-.3438,.2812 .0471-.1015 .1112-.2375 .2188-.2812zm6.125,0c.9025,.2905-.24,.637-.3438,.3125 .0569-.1508 .1695-.307 .3438-.3125zm4.5,0c.9839,.2898-.3007,1.8045-.375,.5312-.0044-.2335 .0749-.5513 .375-.5312zm1.4375,0c1.0849,.4219-.5676,1.7892-.2812,.2812 .0245-.1332 .1249-.291 .2812-.2812zm1.5625,0c.7235,.3192 .0565,.5031-.375,.4062-.0308-.2293 .1674-.3897 .375-.4062zm4.5,0c.9839,.2898-.3007,1.8045-.375,.5312-.0044-.2335 .0749-.5513 .375-.5312zm7.5,0c.5702,.2095 .2583,.5362-.1875,.4062-.4376,.1052-.04-.4613 .1875-.4062zm10.4688,0c.915,.1405-.0262,1.7702-.3438,.6562-.0168-.2724-.0237-.627 .3438-.6562zm6,0c.609,.1824 .2528,.5446-.1875,.4062-.3723,.091-.0168-.4608 .1875-.4062zm-17.9688,.5312c.6775-.0625-.3352,.9777-.375,.2812-.0142-.2106 .2164-.253 .375-.2812zm6,0c.7414-.0159-.5877,1.0215-.3438,.1562 .0647-.1338 .2261-.1236 .3438-.1562z"/>
<path stroke-opacity=".534" fill="#008080" stroke="#008080" d="m16.1562,30.0312c-.0196,.1666-.0206,.3112 .1875,.25 .1033,.0122 .1052-.3398-.0625-.25h-.125zm4.1562,0c-.0638,.2138 .0862,.2014 .25,.1875 .1994-.0506 .0933,.2265 .125,.3438v1.0938h-.5312c-.0638,.2138 .0862,.2014 .25,.1875h.9375c.0638-.2138-.0862-.2014-.25-.1875-.2132,.0674-.1947-.0969-.1875-.25v-1.375h-.5938zm3.75,0 0,.6875c-.1975-.3172-.7496-.2946-.8438,.0938-.0898,.3438-.1358,.9723 .3125,1.0625 .3112,.1737 .588-.5223 .5625-.0312 .2675,.0849 .1831-.1656 .1875-.3438v-1.4688h-.2188zm-9.5,.1562c-.0417,.1667-.0833,.3333-.125,.5-.1153,.0286-.3728-.0791-.3125,.125 .0828,.0465 .3684-.086 .2812,.0938-.0554,.115 .0039,.3684-.1875,.3125-.1949-.0812-.2108,.1953 0,.125 .2034-.0468 .0189,.2321 .0312,.3438-.1226,.1734 .1354,.238 .125,.0312 .0516-.1134 .0085-.3395 .125-.375 .1099,.0298 .3589-.0764 .375,.0312-.0283,.151-.0654,.3177-.0938,.4688 .1923,.0606 .1325-.1972 .1875-.3125-.005-.1962 .1419-.2165 .3125-.1875 .2127,.0249 .071-.2138-.0938-.125-.215,.061-.0526-.1975-.0625-.3125-.0429-.2126 .2722-.0167 .2812-.1562 .0575-.1898-.3353,.0525-.2188-.1562 .0154-.1275 .0969-.3176 .0625-.4062-.1998-.063-.1416,.1901-.1875,.3125 .0195,.1991-.1136,.2139-.2812,.1875-.213,.0558-.2151-.0801-.1562-.25-.009-.1178 .1628-.3082-.0625-.25zm3.3125,.3125c-.2973-.0649-.4853,.4371-.4688,.0312-.2976-.0912-.1715,.2471-.1875,.4375v.875c.1863,.0419 .2634-.0296 .2188-.2188 .0204-.2832-.0606-.5885 .0938-.8438 .2815-.3304 .6206,.0564 .5312,.375v.6875c.1863,.0418 .2634-.0296 .2188-.2188-.0115-.2928 .028-.5868-.0312-.875-.0694-.1389-.2126-.2559-.375-.25zm1.4062,0c-.4519-.0543-.704,.4552-.625,.8438-.0214,.4672 .5792,.668 .9375,.4688 .1833-.12 .3272-.4659 0-.375-.1607,.5039-.8696,.1485-.7188-.3125-.0499-.4623 .577-.6156 .75-.2188 .4312,.0861-.0451-.4743-.2812-.4062h-.0625zm5.9688,0c-.4701-.0344-.6897,.5177-.5938,.9062 .0686,.5043 .8884,.6306 1.125,.1875-.1404-.2947-.3552,.247-.625,.0938-.2718-.052-.4252-.5914-.0312-.4688h.7188c.0183-.1626-.1973-.1807-.2812-.3125 .0398,.1197-.0165,.2185-.2188,.1562h-.4688c.0226-.1934 .1651-.3969 .375-.4062 .1481-.0102 .2727,.1303 .3125,.25-.1024-.1607-.0955-.4182-.3125-.4062zm-9.4375,.0312c-.0696,.2171 .142,.1481 .2812,.1562 .1745-.0257 .0575,.2311 .0938,.3438v.625h-.5c-.0638,.2138 .0862,.2014 .25,.1875h.9375c.0638-.2138-.0862-.2014-.25-.1875-.2021,.0538-.2491-.0713-.2188-.25v-.875h-.5938zm5.9062,0c.013,.3643-.0304,.7338 .0312,1.0938 .0944,.4665 .7795,.1364 .8125,.0625-.0757,.2879 .3986,.1786 .2188-.0938v-1.0625c-.1863-.0418-.2634,.0296-.2188,.2188-.0203,.2831 .0604,.5885-.0938,.8438-.2944,.2989-.6261-.0379-.5312-.375v-.6875c-.0729-.0001-.1462,.0005-.2188,0zm1.9688,.125c.4826,.0236 .4807,.8172 .1562,1.0312-.5301,.1722-.5841-.6818-.3438-.9688 .0464-.046 .1228-.0625 .1875-.0625zm-9.125,.1562 .4375,0c-.0461,.1268-.0478,.3186-.125,.4062-.1249-.0167-.3307,.0247-.4062-.0312 .0295-.1277 .0642-.2473 .0938-.375z"/>
<path stroke-opacity=".52" fill="#f85600" stroke="#f85600" d="m32.2812,30.0312c0,.6042 0,1.2083 0,1.8125 .2993,.0953 .2096-.1984 .2188-.3933-.007-.2785 .2746-.1704 .3312,.0371 .1361,.1307 .1923,.4195 .4264,.3563 .2533,.0251-.1363-.2711-.1776-.3933-.0706-.1597-.3944-.3337-.155-.4759 .1396-.1478 .2792-.2956 .4187-.4434-.2278-.0557-.3782,.0625-.5005,.2436-.1035,.066-.3451,.4917-.3432,.2831 0-.3422 0-.6845 0-1.0267-.0729-0-.1459,.0001-.2188-.0001zm2.3438,0c-.3333,.6146-.6667,1.2292-1,1.8438 .2539,.0838 .3042-.1744 .4063-.3457 .2708-.4993 .5417-.9987 .8125-1.498-.0729,0-.1458,0-.2188,0zm3.6562,0c0,.6042 0,1.2083 0,1.8125 .2993,.0953 .2096-.1984 .2188-.3933-.007-.2785 .2746-.1704 .3312,.0371 .1361,.1307 .1923,.4195 .4264,.3563 .1758-.0139-.1811-.2941-.2285-.4195-.0917-.1605-.3738-.3344-.1088-.4695 .1412-.1411 .2823-.2823 .4235-.4234-.2278-.0557-.3782,.0625-.5005,.2436-.1035,.066-.3451,.4917-.3432,.2831 0-.3422 0-.6844 0-1.0267-.0729-0-.1459,.0001-.2188-.0001zm2.9375,0c0,.6042 0,1.2083 0,1.8125 .2993,.0953 .2096-.1984 .2188-.3933 .0005-.29-.0573-.774 .3438-.7941 .3754,.0608 .2183,.4752 .25,.7369 .0402,.1646-.1172,.5267 .1639,.4505 .1253-.0787 .0203-.3877 .0549-.5572 .0281-.3373-.001-.8873-.4877-.7754-.2701,.027-.4144,.4426-.3248-.044-.0395-.1604 .1167-.5166-.1639-.436 .009,.027-.055-.0183-.0549,.0001zm-10.2188,.1562c.004,.2398-.0882,.383-.2812,.3765-.0122,.2137 .351,.052 .2188,.3857 .0307,.2751-.0777,.5969 .0937,.8316 .2383,.3123 1.0999-.1731 .4375-.0937-.4318,.0776-.2898-.3907-.3125-.6463-.0237-.229-.0285-.4391 .2622-.3537 .2366,.1142 .4154-.197 .1052-.1562-.2014,.002-.4626,.0647-.3674-.2294 .0375-.1493-.0496-.1119-.1562-.1143zm6,0c.004,.2398-.0882,.383-.2812,.3765-.0122,.2137 .351,.052 .2188,.3857 .0307,.2751-.0777,.5969 .0937,.8316 .2383,.3123 1.0999-.1731 .4375-.0937-.4318,.0776-.2898-.3907-.3125-.6463-.0237-.229-.0285-.4391 .2622-.3537 .2691,.111 .3386-.2365 .0412-.1562-.2559,.0564-.3655-.0334-.3034-.295 .0288-.0949-.1076-.0298-.1562-.0488zm-8.1562,.1875c-.4062,.1771-.8125,.3542-1.2188,.5312-.0832,.2593 .1314,.3189 .3335,.3868 .2951,.1211 .5901,.2421 .8852,.3632 .0821-.2589-.2308-.2563-.3922-.3539-.213-.0904-.426-.1807-.639-.2711 .3438-.1562 .6875-.3125 1.0312-.4688 0-.0625 0-.125 0-.1875zm13.7812,0c-.0812,.2568 .2282,.2621 .3879,.3638 .2145,.0975 .4289,.195 .6434,.2924-.3438,.1458-.6875,.2917-1.0312,.4375-.0825,.3275 .2319,.0633 .3942,.0258 .2749-.1128 .5497-.2255 .8246-.3383 .0824-.2575-.1302-.3217-.3305-.3941-.2961-.1291-.5922-.2581-.8883-.3872zm-12.9688,.125c-.6334,.0378-.6781,1.1119-.1498,1.3226 .3775,.1394 .6565-.5245 .5459,.0918-.1271,.5589-.5182,.0446-.8024,.117 .1747,.6283 1.1894,.3087 1.0312-.3171 0-.3943 0-.7885 0-1.1828-.3497-.1329-.1179,.4309-.375,.0312-.0752-.0466-.1636-.0621-.25-.0626zm6,0c-.6334,.0378-.6781,1.1119-.1498,1.3226 .3914,.1349 .6529-.5548 .5459,.0918-.1271,.5589-.5182,.0446-.8024,.117 .1747,.6283 1.1894,.3087 1.0312-.3171 0-.3943 0-.7885 0-1.1828-.356-.1394-.1166,.4788-.4062,.0312l-.1002-.0474-.1185-.0151v-.0001zm-5.9375,.1562c.5751,.0799 .3891,1.2842-.208,.9612-.1615-.2324-.2263-.9673 .208-.9612zm6,0c.5775,.0812 .3849,1.2707-.208,.9612-.1963-.2439-.2268-.9532 .208-.9612zm4.375,.8125c-.0008,.2022-.0668,.4698 .2294,.375 .082-.0415 .132-.4868-.112-.375-.0391,0-.0782,0-.1174,0z"/>
<path stroke-opacity=".534" fill="#008080" stroke="#008080" d="m16.1562,34.0312c-.0196,.1666-.0173,.3112 .1908,.25 .1033,.0122 .1077-.3398-.06-.25-.0436,0-.0872,0-.1307,0zm4.1562,0c-.0638,.2137 .0985,.2014 .2623,.1875 .1994-.0506 .081,.2167 .1127,.3339 0,.3783 0,.7566 0,1.1349-.1771,0-.3542,0-.5312,0-.0696,.2171 .1469,.148 .2862,.1562 .3004,0 .6009,0 .9013,0 .0696-.2171-.1469-.148-.2862-.1562-.2158,.07-.1405-.1512-.1513-.2862 0-.4567 0-.9134 0-1.3701-.1979,0-.3958,0-.5938,0zm3.75,0c0,.2396 0,.4791 0,.7186-.1682-.3566-.7611-.3202-.8545,.0739-.0898,.3439-.1171,.9524 .3312,1.0425 .2816,.2005 .5968-.5344 .5233-.0229 .2626,.0801 .234-.1311 .2188-.3288 0-.4945 0-.989 0-1.4836-.0729,.0001-.146-.0001-.2188,.0001zm-9.5,.1875c-.0417,.1562-.0833,.3125-.125,.4688-.1153,.0286-.3728-.0849-.3125,.1193 .0113,.1192 .3654-.0629 .2951,.1064-.0568,.1126-.006,.3632-.1957,.3056-.1949-.0812-.2297,.1953-.0189,.125 .2034-.0468 .033,.2165 .0454,.3282-.1226,.1734 .1252,.2614 .1148,.0546 .0516-.1134 .003-.3473 .1195-.3828 .1099,.0298 .3649-.0607 .381,.0469-.0283,.151-.0566,.3021-.085,.4531 .1923,.0606 .1452-.1855 .2002-.3008-.005-.1962 .1177-.2282 .2883-.1992 .2127,.0249 .0793-.2138-.0855-.125-.2158,.0609-.0623-.1911-.0707-.3058-.008-.1793 .3543,.051 .2928-.1646 .0214-.1571-.361,.0505-.2193-.1761-.009-.1054 .1762-.3594 .0227-.3535-.1654-.0218-.0964,.2422-.1549,.3508 .0212,.2009-.2128,.0903-.3336,.118-.2212,.0618-.0652-.1857-.0667-.304 .013-.1272 .0965-.1947-.0921-.1647zm3.3125,.2812c-.2973-.0649-.4779,.437-.4613,.0311-.2976-.0912-.1789,.2338-.1949,.4242 0,.2961 0,.5921 0,.8882 .1863,.0419 .2634-.0255 .2188-.2146 .0204-.2832-.0607-.5926 .0937-.8479 .285-.3001 .6216,.0589 .5312,.386 0,.2256 0,.4512 0,.6768 .1863,.0418 .2634-.0255 .2188-.2146-.0115-.2928 .028-.591-.0312-.8791-.0694-.1389-.2126-.2559-.375-.25zm1.4062,0c-.4519-.0543-.6966,.4447-.6176,.8333-.0214,.4672 .5629,.6683 .9212,.4691 .1989-.112 .3221-.4103 .009-.3648-.1397,.5032-.8197,.2057-.7188-.25-.096-.4679 .5497-.6811 .7426-.2811 .4312,.0861-.0461-.4722-.2822-.4041l-.0541-.002v-.0003zm5.9688,0c-.4669-.0361-.6649,.5222-.5787,.9042 .0653,.4471 .6002,.5947 .9537,.377 .355-.1031-.0329-.444-.1057-.1538-.2699,.3545-.8927-.2932-.525-.3775 .2832,0 .5663,0 .8495,0 .0453-.3703-.181-.7718-.5938-.7499zm-9.4375,.0312c-.0696,.2171 .1469,.148 .2862,.1562 .1745-.0257 .0526,.2451 .0888,.3577 0,.2141 0,.4282 0,.6423-.1667,0-.3333,0-.5,0-.0696,.2171 .1469,.148 .2862,.1562 .3004,0 .6009,0 .9013,0 .0696-.2171-.1469-.148-.2862-.1562-.2136,.0653-.1938-.1028-.1826-.2623 0-.298 0-.5959 0-.8939-.1979,0-.3958,0-.5938,0zm5.9062,0c.013,.3643-.0305,.7338 .0312,1.0938 .0944,.4665 .7795,.1365 .8125,.0626-.0757,.2879 .3986,.1696 .2188-.1028 0-.3511 0-.7023 0-1.0534-.1863-.0418-.2634,.0255-.2188,.2146-.0203,.2831 .0605,.5926-.0937,.8479-.2907,.3297-.6253-.0571-.5312-.3857 0-.2256 0-.4512 0-.6768-.0729-.0001-.1462,.0003-.2188-.0002zm3.5312,.125c.2963-.0204 .5098,.5307 .1053,.4062-.1601,0-.3202,0-.4803,0 .0226-.1934 .1651-.3969 .375-.4062zm-1.6875,.0313c.5525-.1583 .6281,.6679 .3493,.9616-.5266,.3053-.6573-.5462-.443-.8679l.042-.0554 .0518-.0383zm-9,.1562c.1458,0 .2917,0 .4375,0-.0585,.1105-.0228,.3416-.1415,.375-.1082-.0294-.3685,.06-.3782-.0463 .0274-.1096 .0548-.2191 .0822-.3287z"/>
<path stroke-opacity=".52" fill="#f85600" stroke="#f85600" d="m33.7187,34.0312c0,.6042 0,1.2083 0,1.8125 .1853,.0412 .2635-.0247 .2188-.2135 .0204-.2835-.0607-.5933 .0937-.849 .2914-.2959 .6068,.0629 .5,.3848 0,.2259 0,.4518 0,.6777 .1657,.0191 .311,.0178 .25-.1898-.0117-.301 .0283-.6076-.0312-.9039-.1302-.4446-.7699-.1561-.8124-.0614 .0003-.2191-.0003-.4383-.0001-.6575-.0729,.0001-.146-.0001-.2188,.0001zm3,0c0,.6042 0,1.2083 0,1.8125 .1853,.0412 .2635-.0247 .2188-.2135 .0204-.2835-.0607-.5933 .0937-.849 .2914-.2959 .6068,.0629 .5,.3848 0,.2259 0,.4518 0,.6777 .1657,.0191 .311,.0178 .25-.1898-.0117-.301 .0283-.6076-.0312-.9039-.1555-.3685-.6813-.2836-.8438-.0001 .0586-.2337 .0202-.4792 .0312-.7188-.0729,.0001-.146-.0001-.2188,.0001zm-4.2188,.1562c-.0555,.1109 .0182,.3767-.1574,.3438-.1901-.0754-.1637,.2472 .0185,.1562 .1594-.0153 .0391,.2491 .0764,.3559 .016,.2303-.0413,.4762 .0513,.692 .1147,.2594 .9433,.1406 .6675-.0791-.3085,.1444-.594-.009-.5-.3461 0-.2076 0-.4151 0-.6227 .1771,0 .3542,0 .5312,0 .0692-.2162-.1455-.1485-.2847-.1562-.1657,.0202-.3072,.0163-.2465-.1898 .0153-.1617 .006-.1674-.1562-.154zm-3.6562,.2188c-.4062,.1667-.8125,.3333-1.2188,.5-.0177,.1585-.0165,.3043 .1756,.322 .3477,.1427 .6954,.2853 1.0431,.428 .0582-.188-.0895-.2398-.2403-.2894-.2637-.1119-.5273-.2237-.791-.3356 .3438-.1458 .6875-.2917 1.0312-.4375 0-.0625 0-.125 0-.1875zm9.2812,0c-.0584,.1886 .0899,.2388 .2413,.2869 .2737,.1127 .5474,.2254 .8212,.3381-.3542,.1458-.7083,.2917-1.0625,.4375-.0585,.2367 .0899,.1649 .2415,.0884 .3258-.1337 .6515-.2673 .9773-.4009 .0177-.1585 .0165-.3043-.1756-.322-.3477-.1427-.6954-.2853-1.0431-.428zm-8.5625,.0937c-.2284,.0724-.2129,.2312-.3287,.0311-.2378-.0288-.0618,.3563-.1088,.5184 0,.2647 0,.5293 0,.794 .2127,.0632 .2018-.0972 .1875-.261 .01-.281-.0395-.5823 .0916-.8395 .2728-.2013 .2217,.2737 .2209,.4466 0,.218 0,.436 0,.6539 .1853,.0412 .2635-.0247 .2188-.2135 .0104-.2828-.026-.5713 .0312-.849 .2952-.304 .3038,.2013 .2812,.4086 0,.218 0,.436 0,.6539 .1853,.0412 .2635-.0247 .2188-.2135-.0129-.3353 .0395-.6803-.0625-1.0052-.1462-.3263-.5234,.0729-.5161,.0668-.036-.0982-.1156-.2028-.2339-.1915zm1.6562,0c-.2901-.1171-.7457,.4531-.2865,.3749 .0667-.3365 .645-.2161 .5677,.1412-.1659,.0685-.4138,.0161-.5989,.0702-.4679,.1498-.2179,1.0174 .2864,.7573 .216,.0406 .3107-.4288 .3404-.09 .1499,.2675 .6125-.008 .2221-.0974-.0947-.3128 .0512-.6712-.102-.9708-.0966-.1364-.2698-.1863-.4292-.1855zm.2812,.6875c.103,.3471-.5219,.7887-.625,.3124-.0142-.3757 .3912-.2503 .625-.3124zm4.0937,.3125c.0356,.1106-.0872,.3796 .0949,.3438 .2126,.0635 .2-.0982 .1863-.261 .0486-.1568-.1976-.0527-.2812-.0828z"/>
<path stroke-opacity=".534" fill="#008080" stroke="#008080" d="m16.1562,37.875c-.0418,.1863 .0255,.2634 .2146,.2188 .0876-.0638 .0518-.3087-.1316-.2188-.0277,0-.0554,0-.0831,0zm4.1562,0c-.0638,.2137 .0985,.2014 .2623,.1875 .1994-.0506 .081,.2167 .1127,.3339 0,.3679 0,.7357 0,1.1036-.1771,0-.3542,0-.5312,0-.0638,.2137 .0985,.2014 .2623,.1875 .3084,0 .6168,0 .9252,0 .0638-.2137-.0985-.2014-.2623-.1875-.2132,.0674-.1824-.1093-.1752-.2623 0-.4542 0-.9084 0-1.3627-.1979,0-.3958,0-.5938,0zm3.75,0c0,.2291 0,.4583 0,.6874-.1976-.3172-.7604-.2831-.8545,.1052-.0898,.3439-.1171,.9524 .3312,1.0425 .3112,.1737 .5727-.5138 .5472-.0228 .2675,.0849 .1905-.1745 .1949-.3526 0-.4866 0-.9731 0-1.4597-.0729,0-.1458,0-.2188,0zm-9.5,.1562c-.0417,.1667-.0833,.3333-.125,.5-.1153,.0286-.3728-.0849-.3125,.1193 .0828,.0465 .3782-.081 .2911,.0987-.0554,.115-.0002,.3692-.1915,.3133-.1949-.0812-.2297,.1953-.0189,.125 .2034-.0468 .033,.2165 .0454,.3282-.1226,.1734 .1252,.2614 .1148,.0546 .0516-.1134 .003-.3473 .1195-.3828 .1099,.0298 .3649-.0607 .381,.0469-.0283,.151-.0566,.3021-.085,.4531 .1923,.0606 .1452-.1855 .2002-.3008-.005-.1962 .1177-.2282 .2883-.1992 .2127,.0249 .0793-.2138-.0855-.125-.215,.061-.0647-.1914-.0746-.3064-.0429-.2126 .2876-.008 .2966-.1475 .0575-.1897-.3434,.0389-.2269-.1698 .0154-.1275 .1124-.3188 .078-.4074-.1998-.063-.1436,.1823-.1895,.3047 .0195,.1991-.1075,.2217-.2751,.1953-.213,.0558-.2139-.0645-.1551-.2344-.009-.1178 .1501-.3238-.0752-.2656zm3.1562,.3125c-.2741,.1482-.2498,.302-.3289,.0312-.2905-.0841-.1417,.271-.1711,.448 0,.2881 0,.5762 0,.8643 .1863,.0418 .2634-.0255 .2188-.2146 .0213-.2832-.0623-.5933 .0937-.8479 .2922-.3326 .6212,.0586 .5312,.3859 0,.2256 0,.4512 0,.6768 .1863,.0418 .2634-.0255 .2188-.2146-.0217-.3212 .0565-.6622-.0714-.9652-.0929-.1662-.3246-.1728-.4911-.1639zm1.5625,0c-.4615-.0703-.6885,.4279-.6176,.8176-.003,.4577 .5517,.6968 .9212,.4847 .1833-.12 .3362-.4557 .009-.3648-.1607,.5039-.8664,.1514-.7156-.3096-.0529-.5006 .5969-.6079 .7633-.2215 .4181,.0556-.1325-.5138-.3602-.4061v-.0003zm5.9688,0c-.4701-.0344-.6746,.5157-.5787,.9042 .0703,.4579 .7092,.6221 1.0226,.3015 .2293-.1967-.1863-.2678-.2252-.0493-.2946,.2761-.8564-.4221-.4506-.4374 .2752,0 .5504,0 .8256,0 .0407-.3611-.199-.7404-.5938-.7189zm-9.4375,.0312c-.0696,.2171 .1469,.148 .2862,.1562 .1745-.0257 .0526,.2451 .0888,.3577 0,.2037 0,.4073 0,.611-.1667,0-.3333,0-.5,0-.0638,.2137 .0985,.2014 .2623,.1875 .3084,0 .6168,0 .9252,0 .0638-.2137-.0985-.2014-.2623-.1875-.2021,.0538-.2368-.0598-.2064-.2385 0-.2955 0-.591 0-.8865-.1979,0-.3958,0-.5938,0zm5.9062,0c.013,.3643-.0305,.7338 .0312,1.0938 .0944,.4666 .7795,.1365 .8125,.0626-.0715,.2897 .3931,.1673 .2188-.1028 0-.3511 0-.7023 0-1.0534-.1863-.0418-.2634,.0255-.2188,.2146-.0203,.2831 .0605,.5926-.0937,.8479-.3256,.28-.6155-.05-.5312-.3931 0-.2231 0-.4463 0-.6694-.0729-.0001-.1462,.0003-.2188-.0002zm1.9688,.125c.4826,.0236 .4807,.8171 .1562,1.0311-.5043,.1698-.5545-.6066-.375-.9062 .0418-.0792 .1306-.1259 .2188-.1249zm1.5625,0c.2963-.0204 .5098,.5307 .1053,.4062-.1601,0-.3202,0-.4803,0 .0226-.1934 .1651-.3969 .375-.4062zm-10.6875,.1563c.1458,0 .2917,0 .4375,0-.0461,.1268-.0404,.3186-.1176,.4062-.1249-.0167-.3327,.0327-.4083-.0232 .0295-.1277 .0589-.2553 .0884-.383z"/>
<path stroke-opacity=".52" fill="#f85600" stroke="#f85600" d="m34.1562,37.875c-.1178,.2183 .1966,.3087 .25,.1591 .0516-.2345-.0865-.1418-.25-.1591zm5.5625,0c0,.6042 0,1.2083 0,1.8125 .2664,.0842 .2277-.1366 .2188-.3278 .0169-.2918-.0893-.7287 .2635-.851 .3959-.0735 .3344,.3727 .3303,.6331 0,.1819 0,.3638 0,.5457 .2664,.0842 .2277-.1366 .2188-.3278-.0183-.2836 .0415-.5827-.0402-.852-.1905-.4026-.7747,.01-.7879,.0247 .0323-.2159 .008-.4386 .0156-.6575-.0729,0-.1459-.0001-.2188,.0001zm-8.7188,.1562c-.0343,.1818-.0146,.4282-.2711,.3438-.1438,.2657 .2868,.0418 .2086,.2754 .0189,.3073-.0461,.6291 .0513,.9239 .1308,.3018 .9601,.0624 .6675-.0743-.4262,.1835-.566-.1697-.5-.5139 .0462-.1353-.1009-.4637 .0894-.4549 .1427-.0443 .4827,.1087 .4418-.1192-.0931-.0882-.3513-.0112-.5066-.0371-.0849-.09 .0861-.4359-.1809-.3438v.0001zm-2.1562,.1875c-.4062,.1771-.8125,.3542-1.2188,.5312-.0651,.2263 .0749,.3151 .2757,.3631 .3143,.129 .6287,.2579 .943,.3869 .0806-.235-.1751-.2475-.3292-.3272-.234-.0993-.468-.1986-.702-.2978 .3438-.1562 .6875-.3125 1.0312-.4688 0-.0625 0-.125 0-.1875zm12.2813,0c-.0797,.233 .1732,.2519 .3256,.3355 .2352,.1069 .4705,.2139 .7057,.3208-.3438,.1458-.6875,.2917-1.0312,.4375-.081,.3024 .176,.101 .3308,.0518 .296-.1214 .5919-.2428 .8879-.3643 .0645-.2249-.0742-.3167-.2732-.3691-.3152-.1374-.6304-.2748-.9456-.4122zm-11.375,.125c-.6655-.1017-.6052,.8261 .019,.7668 .5387,.0702 .1943,.6093-.2098,.4081-.1161-.1944-.5494-.2408-.2521,.0653 .4656,.5053 1.4779-.32 .6617-.6155-.3512,.0123-.8176-.4258-.2188-.4686 .1538-.0302 .5605,.3894 .4375,.0312-.0646-.1927-.2816-.1478-.4375-.1874zm3.25,0c-.3215-.0602-.498,.5741-.5,.0312-.3933-.1013-.0764,.359-.1562,.5879 0,.2415 0,.483 0,.7246 .2664,.0842 .2277-.1366 .2188-.3278-.0383-.351 .0562-.8842 .519-.8145 .31,.13 .1816-.3497-.0815-.2013zm2.6875,0c-.1663,.0887-.3197,.3909-.2812,.0312-.3287-.093-.1467,.3246-.1875,.5195 0,.2643 0,.5286 0,.7928 .2664,.0842 .2277-.1366 .2188-.3278 .0164-.2968-.0917-.7335 .2791-.851 .3866-.0621 .3148,.3791 .3146,.6331 0,.1819 0,.3638 0,.5457 .2531,.0704 .2844-.081 .25-.298-.0263-.3179 .0787-.6787-.125-.952-.1303-.0993-.3124-.101-.4688-.0936zm1.4688,0c-.587-.0246-.6242,.8889-.3204,1.2291 .2245,.2647 .6783-.0488 .6954-.107 .15,.3856-.3177,.8574-.5625,.3779-.5378,.0252 .24,.5685 .5038,.3163 .3954-.1765 .2484-.6652 .2774-1.0105 .007-.2589-.0221-.5266 .0312-.7745-.3348-.1628-.1405,.453-.3582,.0672-.0731-.0641-.1694-.1027-.2668-.0984zm-3.375,.0312c-.0781,.2593 .2389,.1236 .3874,.1562 .0441,.1609 .006,.4037 .0188,.596-.0207,.1632 .0899,.4576-.1788,.3727-.1686,.0113-.4354-.0754-.3524,.1875 .4062,0 .8125,0 1.2188,0 .0875-.2692-.1902-.1732-.3576-.1875-.2183,.0323-.0659-.3062-.1111-.447 0-.226 0-.452 0-.678-.2083,0-.4167,0-.625,0zm3.4375,.125c.4764,.08 .4533,1.0644-.0989,1.0057-.3542-.1116-.3481-1.0064 .0989-1.0057zm1.375,.8125c.021,.1636-.0903,.4595 .1788,.375 .1711,.0613 .1326-.3735 .0428-.375-.0739,0-.1478,0-.2216,0z"/>
<path stroke-opacity=".534" fill="#008080" stroke="#008080" d="m16.5625,44.0312c0,.2183 0,.4367 0,.655-.2145-.2887-.7624-.2404-.8545,.1369-.0792,.3292-.1165,.8271 .2281,1.0154 .2296,.1692 .6108-.1394 .6264-.1518-.1004,.2537 .3754,.1989 .2188-.053 0-.5348 0-1.0695 0-1.6043-.0722,0-.1494,0-.2188,0zm2.9375,0c-.3208-.062-.5647,.2401-.5209,.4998-.0967,.032-.3269-.07-.3229,.063-.0417,.1703 .193,.064 .2925,.093 .1131,.015 .0219,.2351 .0513,.3343 0,.274 0,.548 0,.822 .1459,.017 .2723,.015 .2188-.1671 0-.3298 0-.6595 0-.9892 .1979,0 .3958,0 .5938,0 .0582-.1869-.0933-.164-.2298-.1562-.1134-.015-.2857,.029-.3639-.021-.0635-.3489 .3377-.2945 .5625-.2911 .1826,.012-.0121-.3006-.2084-.1875-.0241-.0002-.0493,.0005-.0729-.0003zm1.1562,0c.002,.13-.0459,.3101 .1462,.25 .1542,.071 .1288-.237 .062-.25-.0694,0-.1388,0-.2082,0zm-6.0937,.1563c-.0417,.1667-.0833,.3333-.125,.5-.101,.031-.34-.076-.3125,.084 .01,.1159 .3092-.033 .3031,.082-.0403,.1152-.038,.2841-.1052,.3655-.114,.014-.3199-.063-.2604,.125 .1297,0 .3186-.045 .2231,.1437-.006,.1109-.0819,.2801-.0459,.3563 .1705,.046 .1124-.1831 .158-.2875 .009-.1433 .0357-.2649 .207-.2125 .1132,.015 .3403-.064 .2473,.1232-.0236,.1256-.0471,.2512-.0707,.3768 .176,.056 .1466-.1509 .1909-.2635 .032-.1255 .0297-.2949 .2054-.2365 .1323,.065 .3049-.085 .1348-.125-.1297,0-.3169,.045-.2276-.1445 .0324-.1138-.0144-.3199 .1656-.2617 .1621,.083 .2358-.1654 .0515-.125-.2068,.058-.1136-.1176-.0847-.2432 .013-.1116 .1421-.314-.0611-.2568-.0823,.056-.056,.2426-.0964,.3491 .0246,.1835-.1251,.1572-.2581,.1509-.1678,.03-.2494-.012-.173-.1848-.0145-.094 .1304-.3203-.004-.3152-.0208,0-.0415,0-.0623,0zm3.1875,.3125c-.3745-.033-.615,.348-.5938,.6872-.0676,.4222 .3597,.7835 .7641,.6684 .1903-.0005 .5667-.3335 .2112-.3447-.1199,.2892-.7685,.2582-.7312-.1793-.0353-.2018 .236-.08 .3609-.1131 .1941,0 .3882,0 .5824,0 .0408-.3612-.1994-.7403-.5938-.7185zm4.5938,0c-.2326-.088-.4699,.4478-.4062,.064-.2201-.1418-.2595,.1005-.2188,.2918 0,.3298 0,.6596 0,.9894 .1459,.017 .2723,.015 .2188-.1671 .0167-.2796-.0444-.5722 .0576-.8393 .1929-.3765 .6645-.082 .5674,.2667 0,.2464 0,.4928 0,.7392 .1459,.017 .2723,.015 .2188-.1671-.0115-.3087 .028-.6226-.0312-.9266-.073-.1558-.2345-.2597-.4062-.251zm1.4062,0c-.3745-.033-.615,.348-.5938,.6872-.0676,.4222 .3597,.7835 .7641,.6684 .21,.01 .5275-.3307 .1824-.3524-.1404,.3738-.7803,.1858-.725-.2297 .0217-.1162 .2589-.027 .3733-.055 .1976,0 .3951,0 .5927,0 .0408-.3612-.1994-.7403-.5938-.7185zm-3.4688,.031c-.0582,.1869 .0933,.164 .2298,.1562 .1773-.049 .2011,.056 .1764,.2089 0,.2533 0,.5066 0,.7599-.1771,0-.3542,0-.5312,0-.0445,.1767 .0471,.2171 .2089,.1875 .3366,0 .6732,0 1.0098,0 .0445-.1767-.0471-.2171-.2089-.1875-.1141-.014-.3196,.063-.2598-.1253 0-.3333 0-.6665 0-.9997-.2083,0-.4167,0-.625,0zm-4.0625,.125c.4294,.062 .3881,.6369 .25,.9375-.4116,.4013-.6853-.2436-.568-.6027 .007-.1696 .1257-.3566 .318-.3348zm1.5312,0c.2662-.065 .5207,.5024 .1557,.4055-.1665,0-.333,0-.4995,0-.0173-.2018 .1373-.3958 .3438-.4055zm6,0c.2523-.044 .5241,.5002 .1557,.4055-.1769,0-.3538,0-.5307,0 .0242-.1923 .1643-.3974 .375-.4055zm-9.1875,.1562c.1458,0 .2917,0 .4375,0-.0312,.1354-.0625,.2709-.0937,.4063-.1458,0-.2917,0-.4375,0 .0312-.1354 .0626-.2709 .0937-.4063z"/>
<path stroke-opacity=".516" fill="#f0f" stroke="#f0f" d="m26.1562,44.1875c0,.5521 0,1.1041 0,1.6562 .0569-.018 .1874,.039 .1875-.036-.0001-.4673 .0001-.9347 0-1.402 .0179,.1635 .1047,.298 .1526,.4515 .0533,.151 .1066,.302 .1599,.453 .063-.013 .1698,.039 .1788-.055 .0872-.2225 .1954-.4378 .251-.671 .0692-.1288 .0291,.1367 .039,.2063 0,.3503 0,.7005 0,1.0507 .0729,0 .1458,0 .2188,0 0-.5521 0-1.1042 0-1.6563-.0937,0-.1875,0-.2812,0-.1059,.2913-.2192,.5801-.3125,.8758-.0931-.2957-.2068-.5844-.3125-.8758-.0931,0-.1912,0-.2812,0zm3.0312,0c0,.5521 0,1.1041 0,1.6562 .0729,0 .1458,0 .2188,0 0-.2083 0-.4167 0-.625 .2082-.01 .4221,.023 .625-.031 .2573-.087 .3537-.3983 .2968-.6432-.0609-.2687-.3651-.3768-.6136-.3565-.1755-.0003-.3523,.0007-.527-.0005zm1.5625,0c.0175,.057-.0387,.1874 .0355,.1875 .1132,0 .2263,0 .3395,0 0,.4271 0,.8541 0,1.2812-.125,0-.25,0-.375,0 .0175,.057-.0387,.1874 .0355,.1875 .3215,0 .643,0 .9645,0-.0175-.057 .0387-.1874-.0355-.1875-.1236,0-.2472,0-.3707,0 0-.4271 0-.8541 0-1.2812 .1354,0 .2708,0 .4062,0-.0175-.057 .0387-.1874-.0355-.1875-.3215,0-.643,0-.9645,0zm-1.3438,.1875c.2261,.011 .4952-.05 .6678,.1358 .118,.1738 .0167,.4792-.2083,.5009-.1507,.033-.3064,.014-.4595,.019 0-.2182 0-.4391 0-.6557zm-1.9062,1.625c-.01,.083-.009,.1555 .0947,.125 .4684,0 .9368,0 1.4053,0 .01-.083 .009-.1555-.0947-.125-.4684,0-.9368,0-1.4053,0z"/>
<path stroke-opacity=".484" fill="#008000" stroke="#008000" d="m34.0312,44.1875c-.5766,.3477-.1741,.6122 .1875,.1562 1.0571,.297-.884,.7353 .2188,.812 .4837,.7389-.547,.4254-.7812,.25 .4903,1.2489 1.6066-.2935 .9375-.4685 .5052-.3973-.0913-.8923-.5625-.7497zm3.1875,0c-.3893,.2624-.907,.6056-.0937,.3125 .2055-.06 .0409,.7743 .0937,1.0832-.2122,.043-.9284,.2131-.2043,.2603 .2373,0 1.1762,.075 .7297-.1875-.545,.1376-.2193-.5956-.3067-.9156-.0619-.2112 .1698-.6701-.2188-.5529zm1.6562,0c-.2359,.3907-.5765,.749-.75,1.1591 .0571,.3531 1.0034-.1831 .7812,.4491 .2104,.143 .4212-.4554 .3721-.5145-.3426-.057-.0625-.7374-.1534-1.0464 .0272-.108-.1917-.018-.25-.047zm1.3438,0c-.4122,.2633-.8915,.608-.0937,.3125 .2055-.06 .0409,.7743 .0937,1.0832-.2122,.043-.9284,.2131-.2043,.2603 .2373,0 1.1762,.075 .7297-.1875-.545,.1376-.2193-.5956-.3067-.9156-.0619-.2112 .1698-.6701-.2188-.5529zm1.0312,0c.0432,.2788-.2684,1.1237 .2188,.8442 1.104-.2745 .3515,1.1952-.2236,.4214-.2864,.7178 1.7144,.3828 .9423-.5161-.492,.039-1.1627-.2643-.5538-.5623 .5428,.1405 .8195-.2804 .1272-.1875-.1702,.0002-.3412-.0004-.511,.0003zm1.9688,0c-1.1041-.04-.3122,1.7529 .375,.8755 .0518,.7488-.572,.5997-.9062,.4372 .7793,1.3351 1.8259-1.2427 .5312-1.3125v-.0002zm1.5,0c-.6959-.054-.4972,.8887-.125,.1875 1.4121,.017-.9928,1.2825-.2413,1.4687 .2631-.054 1.1321,.1491 .8946-.1875-.5491,.034-1.2248,.046-.3409-.4687 .5107-.2413 .5092-1.1233-.1875-1zm1.5625,0c-1.0699,.017-.6846,2.3221 .4062,1.5307 .6421-.8555-.7219-1.0052-.8036-.8691-.0806-1.017 1.4733,.1569 .5536-.6619h-.1562v.0003zm.9688,0c.0432,.2788-.2684,1.1237 .2188,.8442 1.1044-.2633 .3593,1.1896-.2545,.4237-.0776,.9401 1.9166,.031 .7858-.6434-.5175,.1864-.7534-.046-.4971-.4373 .3701,.1201 1.1209-.1656 .3888-.1875-.2138,.0002-.4284-.0004-.6418,.0003zm1.7812,0c-.644,.4134-.1906,.5746 .1875,.1562 1.0156,.3097-.9524,.7538 .2188,.812 .4686,.775-.5464,.3788-.8125,.25 .1757,1.1171 1.9592-.026 .7812-.4065 .7436-.22 .2578-.9971-.375-.8117zm1.2188,0c.0432,.2788-.2684,1.1237 .2188,.8442 1.1044-.2633 .3593,1.1896-.2545,.4237-.0776,.9401 1.9166,.031 .7858-.6434-.5175,.1864-.7534-.046-.4971-.4373 .3701,.1201 1.1209-.1656 .3888-.1875-.2138,.0002-.4284-.0004-.6418,.0003zm1.9688,0c-.7875-.1081-.3921,.8116-.375,.8432-.9213,.8783 1.482,1.2287 .875,.062-.5216-.052 .7235-.8613-.5-.9052zm1.5,0c-1.0944-.042-.3285,1.7474 .375,.8755 .0518,.7488-.572,.5997-.9062,.4372 .7578,1.3364 1.8321-1.2518 .5312-1.3125v-.0002zm.9375,0c-.0773,.5111 1.3866-.1893 .6875,.5312-.5067,.4713-.2818,1.8493-.0395,.561 .3959-.6354 .7687-1.3199-.2424-1.0922-.1352,0-.2704,0-.4056,0zm2.0625,0c-1.2648,.1658-.005,1.4887 .3667,1.0255 .0553,.9917-1.4492-.1679-.5855,.6307 .9496,.2985 1.1551-1.6709 .2188-1.6562zm1.2812,0c-.5974,.4844-.1506,.5175 .2188,.1562 1.0156,.3097-.9524,.7538 .2188,.812 .4858,.7235-.5787,.438-.8125,.25 .516,1.2253 1.5958-.2458 .9375-.4685 .5382-.3356-.102-.9332-.5625-.7497zm1.7188,0c-.7039-.066-.5493,.896-.125,.1875 1.3313,.074-.843,1.163-.3067,1.4687 .2936-.1003 1.0045,.2167 .9942-.1875-.5617,.045-1.2698,.037-.375-.4687 .5157-.2331 .4838-1.1119-.1875-1zm1.2812,0c-.5974,.4844-.1506,.5175 .2188,.1562 1.0156,.3097-.9524,.7538 .2188,.812 .4858,.7235-.5787,.438-.8125,.25 .516,1.2253 1.5958-.2458 .9375-.4685 .5382-.3356-.102-.9332-.5625-.7497zm1.7188,0c-.7946-.1126-.4031,.8079-.375,.8432-.7876,1.3624 1.7317,.5824 .75-.093 .3732-.2577 .0483-.8458-.375-.7502zm1.6562,0c-.2369,.4157-.6705,.7684-.7812,1.2245 .1899,.2089 1.0077-.2103 .8125,.3837 .2104,.143 .4212-.4554 .3721-.5145-.3426-.057-.0625-.7374-.1534-1.0464 .0272-.108-.1917-.018-.25-.047zm1.4062,0c-1.2506,.01-.4447,2.6257 .5,1.3432 .383-.8627-.9202-.7077-.8973-.6816-.1223-1.0025 1.4269,.145 .5536-.6619h-.1562v.0003zm-22.5625,.1562c1.0208,.3449-.5111,1.3469-.3125,.2183 .0682-.1086 .1558-.2508 .3125-.2183zm8.8438,0c1.5206,.154-.7361,1.1462 0,0zm1.6562,0c1.0163,.3374-.5144,1.3477-.3125,.2183 .0682-.1086 .1558-.2508 .3125-.2183zm3,0c1.0313,.3465-.5459,1.345-.3125,.2183 .0682-.1086 .1558-.2508 .3125-.2183zm5.8438,0c1.5124,.1459-.7362,1.1486 0,0zm-23.6562,.094c-.049,.3631 .2017,1.0259-.3924,.8438-.4477,.028 .2996-.5647 .3632-.8023l.0292-.042zm25.5,0c-.049,.3631 .2017,1.0259-.3924,.8438-.5023,.049 .271-.5441 .3513-.7883l.0389-.053h.002zm-18.1562,.5c1.0184,.3009-.5235,1.3235-.3125,.186 .0405-.1353 .1987-.161 .3125-.186zm19.5,0c1.0362,.3208-.5635,1.3094-.3125,.186 .0405-.1353 .1987-.161 .3125-.186zm-13.5312,.125c1.4395,.772-1.3806,.8211 0,0zm10.5,0c1.4115,.811-1.3958,.7829 0,0zm-27.125,.4063c-.1975,.6942 .6449,.2133 .1504,0-.0502,0-.1003,0-.1504,0z"/>
<path stroke-opacity=".534" fill="#008080" stroke="#008080" d="m16.5625,48.25c0,.2287 0,.4575 0,.6862-.1843-.3249-.7685-.2251-.8545,.1367-.0869,.3293-.1134,.8638 .2778,1.0002 .2092,.048 .4964,.049 .5768-.1989-.1337,.2645 .3657,.2596 .2188-.011 0-.5382 0-1.0765 0-1.6147-.0724,.0009-.1485,0-.2188,0zm2.9375,0c-.3208-.062-.5647,.24-.5209,.4997-.0967,.032-.3269-.07-.3229,.063-.0578,.1899 .1556,.1086 .2716,.1248 .1463-.018 .0398,.2172 .0722,.3134 0,.2705 0,.5411 0,.8116 .1459,.017 .2723,.015 .2188-.1671 0-.3193 0-.6386 0-.9579 .1979,0 .3958,0 .5938,0 .0445-.1767-.0471-.2171-.2089-.1875-.1283,0-.2566,0-.3848,0-.0796-.351 .384-.343 .6043-.2812 .0852-.1262-.0186-.2416-.1824-.1872-.05,.01-.0947-.018-.1406-.031zm1.1562,0c.002,.13-.0459,.3101 .1462,.25 .1542,.071 .1288-.237 .062-.25-.0694,0-.1388,0-.2082,0zm-6.0937,.1875c-.0417,.1667-.0833,.3333-.125,.5-.101,.031-.34-.076-.3125,.084 .009,.1158 .3101-.032 .3024,.082-.051,.1-.0221,.3018-.1254,.3345-.1152-.014-.3267-.016-.2186,.125 .1486-.014 .2877-.019 .1983,.1643 .008,.099-.1112,.3043-.0212,.3357 .1542,.026 .0913-.2086 .141-.308-.005-.1602 .0634-.2315 .224-.192 .1296,0 .318-.045 .2225,.1437-.006,.1109-.0819,.2801-.0459,.3563 .1678,.046 .1233-.1808 .175-.2837 .0195-.1416 .0502-.2688 .2212-.2163 .1467,.079 .2755-.1295 .0931-.125-.1483,.014-.2871,.019-.2015-.1649 .005-.1438 .0312-.2623 .2022-.2101 .1843,.056 .1338-.2043-.0321-.125-.1902,.045-.0324-.181-.0328-.2837 .0437-.1328 .0927-.2698-.1022-.2163-.0312,.1667-.0625,.3333-.0937,.5-.1458,0-.2917,0-.4375,0 .0312-.1667 .0625-.3333 .0937-.5-.0417,0-.0833,0-.125,0zm3.1875,.2812c-.4118-.037-.6284,.4177-.5926,.7723-.049,.4397 .4241,.7255 .8114,.5712 .3397,0 .3919-.4481 .1133-.2949-.1963,.3489-.8103,.1094-.6758-.2988 .3125,0 .625,0 .9375,0 .0341-.349-.1999-.7748-.5938-.7498zm4.5938,0c-.2441-.044-.4615,.4417-.4219,.042-.2507-.1001-.2157,.1481-.2031,.3334 0,.3228 0,.6457 0,.9686 .1459,.017 .2723,.015 .2188-.1671 .0167-.2796-.0444-.5722 .0576-.8393 .2144-.3219 .6627-.093 .5674,.2676 0,.2464 0,.4929 0,.7393 .1459,.017 .2723,.015 .2188-.1671-.0115-.3087 .028-.6227-.0312-.9267-.073-.1558-.2345-.2597-.4062-.251zm1.4062,0c-.4118-.037-.6284,.4177-.5926,.7723-.049,.4397 .4241,.7255 .8114,.5712 .2344-.013 .4473-.3281 .125-.343-.1379,.3782-.7676,.2139-.716-.2005 .0287-.1075 .2592-.024 .3733-.05 .1976,0 .3951,0 .5927,0 .0341-.349-.1999-.7748-.5938-.7498zm-3.4688,.031c-.0445,.1767 .0471,.2171 .2089,.1875 .1629-.034 .2382,.019 .1973,.188 0,.2603 0,.5205 0,.7808-.1771,0-.3542,0-.5312,0-.0582,.1869 .0933,.164 .2298,.1562 .3297,0 .6593,0 .9889,0 .0582-.1869-.0933-.164-.2298-.1562-.1289,.0005-.2994,.043-.2389-.1462 0-.3367 0-.6734 0-1.0101-.2083,0-.4167,0-.625,0zm-4.0625,.1563c.4355,.021 .3921,.6216 .25,.9055-.3948,.394-.6864-.2187-.568-.5762 .002-.1854 .1119-.3493 .318-.3293zm1.4062,0c.2508-.1708 .6593,.3276 .3643,.3745-.1944,0-.3887,0-.5831,0-.0104-.1556 .0723-.3124 .2188-.3745zm6,0c.2556-.1836 .6917,.4029 .3225,.3745-.1908,0-.3817,0-.5725,0 .0198-.1488 .1076-.3123 .25-.3745zm-9.0625,.1562c.1458,0 .2917,0 .4375,0-.0312,.125-.0625,.25-.0937,.375-.1458,0-.2917,0-.4375,0 .0312-.125 .0625-.25 .0937-.375z"/>
<path stroke-opacity=".516" fill="#f0f" stroke="#f0f" d="m29.75,48.4062c-.8994-.052-.5848,1.0704 .1761,.963 .6665,.4128-.5621,.8441-.6489,.258-.5155,.089 .3369,.6807 .6246,.4562 .8022-.063 .4251-1.1083-.2457-.9914-.7274-.3209 .3604-.8043 .508-.26 .4533-.01-.2176-.5602-.4142-.4258zm1.5,0c-.7492,.026-.774,1.0894-.4145,1.5419 .3834,.082 .6173,.9189 1.0395,.5112 .0639-.1847-.716-.094-.3689-.4033 .5332-.3488 .5111-1.3999-.1181-1.6362l-.138-.014v.0007zm4.5,0c-.3246-.1321-.8772,.5118-.3438,.4678 .0767-.6945 1.1168,.045 .4062,.249-.4539-.01-.2015,.3338 .125,.2805 .5714,.3593-.5546,.8125-.5981,.218-.5475,.063 .3463,.7309 .6606,.4377 .6291-.135 .131-.9019-.01-.8698 .5395-.161 .2601-.8691-.2402-.7832zm1.5,0c-.6982,.016-.7458,.9284-.5066,1.4083 .4793,.7197 1.35-.1028 1.1174-.7603-.0426-.3105-.2547-.6685-.6108-.648zm5.9688,0c-.492-.1825-.6262,.7816-.2812,.3435 .3427-.5182 .9614,.2642 .3489,.515-.211,.1526-1.0316,.8984-.3456,.7975 .2906,0 .5811,0 .8717,0 .0693-.2874-.3306-.1056-.498-.1562-.7284,.1265-.001-.4619 .2793-.6563 .3798-.3424 .1336-.901-.375-.8435zm-17.0625,.031c0,.5417 0,1.0833 0,1.625 .3101,.094 .1489-.2844 .1875-.4625 0-.3147 0-.6293 0-.944 .0928,.293 .2148,.5725 .3125,.8733 .2611,.064 .2315-.3057 .3459-.4605 .0991-.2587 .1663-.5743 .1229-.1246 0,.3721 0,.7442 0,1.1163 .32,.1048 .199-.2314 .2188-.4269 0-.3994 0-.7987 0-1.1981-.2862-.089-.3531,.1366-.4165,.3672-.1318,.4225-.2024,.5626-.3325,.06-.0941-.1846-.0827-.5204-.3707-.4269 .0002,.024-.0698-.023-.0678,0zm6.0312,0c0,.5417 0,1.0833 0,1.625 .32,.1048 .199-.2314 .2188-.4269-.1188-.2777 .1973-.3472 .3507-.2006 .1504,.1992 .257,.4783 .4349,.6275 .3855,.084 .1212-.171 .002-.3504-.1967-.2514-.3537-.4163 .0563-.5243 .3678-.4936-.2604-.8666-.7178-.75-.1148-.0002-.2304,.0004-.3447-.0003zm1.4062,0c-.0935,.3101 .2844,.1489 .4625,.1875 .1535,.071 .028,.421 .0688,.6048 0,.2776 0,.5551 0,.8327 .32,.1048 .199-.2314 .2188-.4269 0-.3369 0-.6737 0-1.0106 .1705-.053 .5626,.1165 .5625-.1067-.0345-.1822-.4016-.032-.5692-.081-.2478,0-.4955,0-.7433,0zm4.4062,0c.2083,.5417 .4167,1.0833 .625,1.625 .2824,.098 .2821-.216 .372-.3984 .1572-.4089 .3145-.8177 .4718-1.2266-.2838-.098-.3108,.1635-.3769,.3702-.1178,.3547-.2548,.7037-.3418,1.0676-.1806-.4717-.3298-.9597-.5-1.4378-.0833,0-.1667,0-.25,0zm1.6875,0c0,.5417 0,1.0833 0,1.625 .3854,0 .7708,0 1.1562,0 .0935-.3101-.2844-.1489-.4625-.1875-.1747-.043-.562,.1267-.475-.1779-.0255-.2485-.0313-.4774 .2846-.3846 .1705-.053 .5765,.1297 .5279-.1423-.1094-.1072-.4195-.014-.6048-.045-.3209,.097-.178-.2688-.2077-.4625 .1229-.091 .4183-.01 .6048-.038 .2327,.1275 .4753-.2016 .1592-.1875-.3276,0-.6551,0-.9827,0zm1.5,0c0,.5417 0,1.0833 0,1.625 .32,.1048 .199-.2314 .2188-.4269-.1188-.2777 .1973-.3472 .3507-.2006 .1504,.1992 .257,.4783 .4349,.6275 .3761,.088 .064-.1969-.0188-.3576-.1917-.2528-.3264-.4148 .077-.5171 .3459-.5161-.2546-.8578-.7178-.75-.1148-.0002-.2304,.0004-.3447-.0003zm-9.9375,.1563c.5551,.072 .5395,1.3801-.0874,1.3039-.4449-.1836-.4554-1.2417 .0874-1.3039zm6,0c.5565,.072 .5395,1.3866-.0923,1.3039-.4526-.1366-.4647-1.2943 .0923-1.3039zm-4.8438,.031c.3631-.09 1.0398,.1484 .5312,.531-.2202,.023-.6517,.1516-.5312-.218 0-.104 0-.2107 0-.313zm9,0c.3631-.09 1.0398,.1484 .5312,.531-.2202,.023-.6517,.1516-.5312-.218 0-.104 0-.2107 0-.313zm-13.9062,1.5937c-.032,.2516 .369,.07 .5336,.125 .3221,0 .6442,0 .9664,0 .032-.2516-.369-.07-.5336-.125-.3221,0-.6442,0-.9664,0z"/>
<g stroke-opacity=".484">
<path fill="#008000" stroke="#008000" d="m46.2187,48.4062c-1.4917,.2317 .1353,2.8656 .59,1.0655 .045-.4116-.0115-1.1199-.59-1.0655zm3,0c-1.0587,.055 .0216,.8615-.5625,1.0623-.2223,1.2335 1.9994,.3147 .8125-.25 .5394-.1853 .2925-.8955-.25-.8123zm1.5625,0c-1.4826,.1471-.007,2.8374 .5312,1.1243 .0386-1.0299-1.5882,.091-.6875-.9065 .3809,.083 .9756,.2619 .3125-.218h-.1562v.0002zm1.5,0c-1.4826,.1471-.007,2.8374 .5312,1.1243 .0185-1.0211-1.5526,.1154-.7188-.9065 .3854,.057 1.0217,.2857 .3438-.218h-.1562v.0002zm1.4375,0c-1.509,.2127 .1034,2.8796 .59,1.0655 .045-.4116-.0115-1.1199-.59-1.0655zm1.5,0c-.7264-.045-.514,.8919-.125,.1875 1.4507,.05-1.2869,1.5239-.0808,1.4685 .295,.082 1.2459-.084 .5143-.1562-1.5953,.2845 1.3892-1.2851-.3084-1.5v.0002zm4.5,0c-1.5081,.21 .0679,2.8978 .59,1.0655 .045-.4116-.0115-1.1199-.59-1.0655zm1.5,0c-.6872-.059-.5523,.8753-.1387,.1992 1.1313-.01-.3329,.6517 .0762,.7361 1.013,.3093-.1905,.8088-.5312,.28 .4701,1.2254 1.618-.2328 .9375-.468 .4456-.1625 .0715-.8818-.3438-.7473zm3,0c-1.0714,.045 .0196,.8589-.5625,1.0623-.2535,1.221 2.0023,.3329 .8125-.25 .5213-.1535 .2592-.9198-.25-.8123zm4.5,0c-.6872-.059-.5523,.8753-.1387,.1992 1.0291,.013-.1759,.5958 .0226,.7361 1.0716,.2291-.1104,.8485-.4776,.28 .4524,1.2082 1.6049-.1951 .9375-.468 .4375-.2062 .0769-.8596-.3438-.7473zm1.5,0c-1.0893,.039 .0208,.861-.5625,1.0623-.249,1.2623 2.0189,.2687 .7812-.25 .5584-.1155 .3078-.9098-.2188-.8123zm1.5312,0c-1.4255,.193-.002,2.832 .5625,1.1243-.0158-1.007-1.5455,.095-.7188-.9065 .3516,.046 .9857,.3022 .3438-.218h-.1875v.0002zm3,0c-1.4198,.1913-.0124,2.8275 .5625,1.1243-.005-1.0055-1.5741,.092-.7188-.9065 .3516,.046 .9857,.3022 .3438-.218h-.1875v.0002zm3,0c-1.4314,.1845 .0146,2.8303 .5312,1.1243 .056-1.0117-1.5601,.095-.6875-.9065 .3516,.046 .9857,.3022 .3438-.218h-.1875v.0002zm1.4688,0c-.6872-.059-.5523,.8753-.1387,.1992 1.0291,.013-.1759,.5958 .0226,.7361 1.0506,.2368-.1254,.8462-.4776,.28 .4385,1.2156 1.6001-.2008 .9375-.468 .4041-.2346 .0962-.8496-.3438-.7473zm-22.9688,.031c.0131,.2982-.252,1.172 .2812,.782 1.1298,.015 .1394,1.0981-.3994,.4673 .6041,1.3593 1.9698-.9004 .4306-.624-.467-.1297 .0855-.7191 .5883-.4693 .3334-.3044-.7312-.094-.9008-.156zm2.125,0c-.2347,.4101-.6867,.749-.7812,1.2052 .2443,.1665 1.0268-.2053 .8125,.4198 .2107-.018 .5428-.5485 .2948-.5625-.2654-.1617 .1517-1.0059-.2188-1.0625h-.0713-.036zm3.7812,0c.1083,.4306 1.484-.2115 .5873,.6854-.4648,.5469-.0827,1.5247 .0607,.3756 .4606-.6955 .7129-1.2851-.3076-1.061-.1135,0-.2269,0-.3404,0zm3.7188,0c-.2347,.4101-.6867,.749-.7812,1.2052 .2442,.1665 1.0268-.2053 .8125,.4198 .2107-.018 .5428-.5485 .2948-.5625-.2654-.1617 .1517-1.0059-.2188-1.0625h-.0713-.036zm1.5,0c-.2347,.4101-.6867,.749-.7812,1.2052 .3517,.072 .899-.051 .8526,.4198 .1122-.091 .6222-.5876 .1834-.5625-.1123-.3148 .2256-1.0798-.2188-1.0625h-.036zm6,0c-.2347,.4101-.6867,.749-.7812,1.2052 .3517,.072 .899-.051 .8526,.4198 .059-.148 .636-.5748 .1834-.5625-.1872-.2503 .2178-1.0928-.25-1.0625h-.005zm2.2812,0c.1222,.4297 1.4933-.2086 .5561,.6854-.4701,.5507-.0298,1.5204 .0763,.3756 .456-.6966 .6869-1.2869-.3233-1.061-.103,0-.2061,0-.3091,0zm4.5,0c.1222,.4297 1.4933-.2086 .5561,.6854-.4772,.5424-.0161,1.5268 .0607,.3756 .4606-.6955 .7129-1.2851-.3076-1.061-.103,0-.2061,0-.3091,0zm-30.9375,.125c1.2746,.6971-1.2178,.6925 0,0zm15,0c1.2425,.718-1.2278,.6621 0,0zm6,0c1.2327,.7293-1.2247,.6518 0,0zm-24,.031c1.1148,.3083-.3251,2.2519-.375,.6563 .0184-.2544 .005-.6776 .375-.6563zm7.5,0c1.0891,.3228-.3143,2.2464-.375,.6563 .0184-.2544 .005-.6776 .375-.6563zm6,0c1.0891,.3228-.3143,2.2464-.375,.6563 .0184-.2544 .005-.6776 .375-.6563zm-1.3125,.062c-.005,.443 .1537,1.0491-.4993,.8438-.2546-.045 .412-.6187 .4993-.8438zm7.5,0c-.005,.443 .1537,1.0491-.4993,.8438-.2546-.045 .412-.6187 .4993-.8438zm1.4688,0c-.005,.443 .1537,1.0491-.4993,.8438-.1623-.092 .4041-.6118 .4993-.8438zm6,0c-.005,.443 .1537,1.0491-.4993,.8438-.1623-.092 .4041-.6118 .4993-.8438zm-27.2812,.4375c-.1168,.8458 .7597-.1252 0,0zm7.5,0c-.1168,.8458 .7597-.1252 0,0zm5.9688,0c-.133,.756 .7698-.083 .0272,0h-.0272zm-8.8125,.062c1.0056,.3366-.5162,1.3299-.3125,.188 .0405-.1359 .1986-.1594 .3125-.188zm1.5,0c1.0056,.3366-.5162,1.3299-.3125,.188 .0405-.1359 .1986-.1594 .3125-.188zm19.4688,0c1.0532,.3078-.5032,1.348-.3125,.188 .0699-.1092 .1978-.151 .3125-.188zm3,0c1.0532,.3078-.5032,1.348-.3125,.188 .0797-.092 .1834-.1841 .3125-.188zm3,0c1.1438,.4512-.7815,1.2613-.2188,.094-.0105-.1207 .2197-.013 .2188-.094zm-28.5,.125c1.4454,.7733-1.3829,.8466 0,0zm15,0c1.4167,.8119-1.3965,.8088 0,0zm6,0c1.4254,.8313-1.4033,.7893 0,0zm-22.625,.4375c-.1145,.914 .7594-.1134 0,0z"/>
<path fill="#000080" stroke="#000080" d="m21.0625,54.125c-.0499,.2036 .1375,.8809-.1875,.4987-.9075-.3466-.9987,1.5126-.0972,1.3273 .3257-.2374 .2-.1757 .3672-.016 .2838,.021 .0688-.4563 .1362-.6514 0-.3866 0-.7732 0-1.1598-.0724,.0008-.1481,0-.2188,.001zm2.6875,0c-.2568,.2369-.3257,.504-.5938,.5512 .0579,.1913 .4722,.026 .3125,.4351 0,.2754 0,.5508 0,.8262 .3604,.1087 .1745-.3289 .2188-.5364 .0654-.1825-.1421-.6378 .1238-.6199 .1826,0 .6688,.072 .4599-.1875-.2579,.014-.8954,.058-.3962-.2812 .3689,.1798 .7148-.2556 .1875-.1875-.1043,0-.2084-.016-.3125,0zm-9.25,.1252c.089,.3874-.3069,.2474-.2812,.5088 .3101-.065 .2061,.2847 .2188,.5176-.098,.4293 .1721,.7715 .625,.6606 .5012-.2562-.1204-.1688-.3437-.2183-.1266-.286-.0344-.6273-.0625-.9375 .1886-.01 .694,.074 .49-.1875-.2565,0-.6087,.089-.49-.2888 .0352-.1041-.1059-.035-.1562-.055zm13.5,0c.089,.3874-.3069,.2474-.2812,.5088 .3101-.065 .2061,.2847 .2188,.5176-.0983,.4296 .1729,.7746 .625,.6606 .5484-.3662-.4671-.0008-.4062-.3745 0-.2604 0-.5209 0-.7813 .1886-.01 .694,.074 .49-.1875-.2565,0-.6087,.089-.49-.2888 .0352-.1041-.1059-.035-.1562-.055zm6,0c.089,.3874-.3068,.2474-.2812,.5088 .3101-.065 .2061,.2847 .2188,.5176-.0983,.4296 .1729,.7746 .625,.6606 .5484-.3662-.4671-.0008-.4062-.3745 0-.2604 0-.5209 0-.7813 .1823,0 .6678,.072 .4587-.1875-.2531,0-.5788,.08-.4587-.2888 .0352-.1041-.1059-.035-.1562-.055zm-16.1562,.3125c-.3274,.014-.3986,.3779-.4475,.033-.3619-.072-.104,.4767-.1775,.6936 0,.3833 0,.7666 0,1.1499 .3482,.1087 .182-.2972 .2188-.5-.047-.2724 .7596,.2958 .8361-.2888 .141-.383 .1082-1.0663-.4298-1.0877zm-2.25,.031c.1875,.4375 .375,.875 .5625,1.3125-.1179,.309-.8145,.5635-.125,.5002 .427-.4147 .537-1.0486 .7837-1.5818 .2631-.3141-.2314-.3112-.2194-.001-.123,.2714-.2136,.5996-.3455,.8333-.16-.3446-.2919-.7085-.4375-1.0632-.0729,0-.1458,0-.2188,0zm3.6562,0c-.8579-.062-.7664,1.5805 .1179,1.3351 .5515-.023 .413-.6111 .007-.1486-.573,.086-.641-.6872-.0461-.4688 .5099,.1456 .7105-.2148 .2909-.6196-.0878-.1121-.2466-.097-.3697-.098zm3,0c-.8579-.062-.7664,1.5805 .1179,1.3351 .543-.01 .3982-.6112 .007-.1486-.573,.086-.641-.6872-.0461-.4688 .5099,.1456 .7105-.2148 .2909-.6196-.0878-.1121-.2466-.097-.3697-.098zm4.2812,0c-.7891,.4861 .2722,.7566 .5625,.9675-.0885,.6763-.9883-.2981-.8438,.2182 .3796,.4924 1.5236-.1104 .8008-.5512-.5069,.074-.8548-.5337-.1758-.479 .3732,.4758 .4875-.1647-.0282-.1608-.1052,.017-.2117-.016-.3156,.01zm2.75,0c.1056,.4363 .0474,.8958 .0625,1.3442 .3604,.1087 .1745-.3289 .2188-.5364-.1691-.5924 .5847-.5743 .7188-.7124-.107-.3022-.7458,.074-.75,.1551 .0106-.2425-.0341-.2746-.25-.2505zm1.4375,0c.0281,.4159-.0739,.8581 .0937,1.25 .3393,.4082 .8323-.3944 .7913,.094 .3466,.07 .1085-.4441 .1775-.6514-.0497-.2081 .103-.6187-.0825-.6911-.2813-.03-.0717,.4318-.1362,.6189 .2046,.6438-.8406,.765-.625,.059-.0517-.202 .1059-.6133-.0825-.6787-.0444,0-.094,0-.1362,0zm2.0312,0c-.9428-.064-.7056,1.717 .2188,1.3125 .5261-.092 .2171-.6899 0-.1878-.718,.434-.8381-1.1842-.0929-.9543 .1151,.3428 .6915,.2522 .2491-.078-.1116-.066-.2473-.09-.375-.093zm-14.9688,.1562c.6511,.046 .2745,1.5251-.2864,.8689-.0808-.2825-.1464-.864 .2864-.8689zm1.3438,0c.6312-.081 .5325,.6157-.0264,.4058-.3474,.104-.1637-.3365 .0264-.4058zm1.5625,0c.9182,.053-.0182,1.761-.2855,.6497 .0006-.2303-.0488-.6335 .2855-.6497zm1.4375,0c.5748-.08 .5707,.6062 .0149,.4058-.4052,.1017-.272-.2252-.0149-.4058z"/>
</g>
<path stroke-opacity=".516" fill="#f0f" stroke="#f0f" d="m45.8125,54.125c-.0297,.3082 .5499,.01 .3438,.4916 0,.3778 0,.7556 0,1.1334-.263-.1071-.7907,.132-.3083,.1875 .3319,0 .6639,0 .9958,0 .1186-.4172-.6499,.053-.4688-.4271 0-.4618 0-.9236 0-1.3854-.1875,0-.375,0-.5625,0zm12,0c-.0297,.3082 .5499,.01 .3438,.4916 0,.3778 0,.7556 0,1.1334-.2238-.071-.8182,.054-.3875,.1875 .3583,0 .7167,0 1.075,0 .1186-.4172-.6499,.053-.4688-.4271 0-.4618 0-.9236 0-1.3854-.1875,0-.375,0-.5625,0zm-16.0938,.125c-.9353-.01-.4655,1.1234 .2812,.998 .4685,.5716-.6645,.6442-.7824,.2324-.4122,.5376 1.4297,.7328 1.1261-.1697-.1297-.427-1.397-.3044-.7812-.872 .34-.1031 .961,.5915 .5938-.094-.1342-.067-.2912-.086-.4375-.094zm1.2812,0c.0891,.3385-.5523,.4233-.1375,.5312 .1204,.2359-.0263,.6762 .0815,.9773 .1705,.5118 1.2672-.1203 .4768-.01-.4748,.04-.2396-.5659-.2958-.858-.0334-.3098 .6721,.1193 .5312-.298-.2937,0-.6708,.093-.5312-.3354-.0149-.024-.0927,0-.125-.01zm10.7188,0c-.9384-.025-.4918,1.1167 .25,.998 .5355,.5234-.6477,.6707-.7823,.2329-.3778,.5303 1.435,.7342 1.1573-.1692-.1634-.4189-1.3833-.3144-.7812-.872 .3141-.075 1.011,.5801 .5625-.095-.1233-.071-.2705-.089-.4062-.095zm1.25,0c.125,.3448-.5206,.4232-.1063,.5312 .1136,.2363-.0106,.6714 .0659,.9773 .1371,.5131 1.2895-.1067 .5091-.01-.4743,.07-.2686-.5258-.3125-.8101-.1103-.3881 .6223,.067 .5312-.3021-.1564-.1312-.6996,.1246-.5312-.3313 .0409-.1076-.1087-.035-.1562-.056zm-16.7812,.031c0,.5521 0,1.1041 0,1.6562 .3943,.098 .153-.44 .2188-.6708 .2189-.2146 .4695,.1271 .5616,.3614 .004,.3013 .6328,.4725 .3114,.1063-.2845-.3898-.441-.5973 .0645-.8591 .1151-.7575-.7004-.5664-1.1562-.594zm12,0c0,.5521 0,1.1041 0,1.6562 .3943,.098 .153-.44 .2188-.6708 .2256-.2222 .4524,.184 .5692,.3935 .0513,.3272 .6442,.3971 .2785,.034-.2198-.331-.452-.5544 .0344-.7375 .2934-.7911-.6339-.6681-1.1008-.6749zm-11.7812,.1875c.5935-.2146 1.0543,.6127 .2,.5622-.3655,.116-.1367-.3702-.2-.5622zm12,0c.5942-.2109 1.0506,.6018 .2,.5622-.3655,.116-.1367-.3702-.2-.5622zm-10.1562,.125c-1.0742-.036-.5512,1.9455 .375,1.2185 .4913-.8077-.6652,.5012-.7188-.3443-.2163-.861 .5077-.663 .9062-.5002-.0419-.2724-.3233-.3768-.5625-.374zm3.8125,0c.1794,.4598 .4238,.9063 .5625,1.3745-.1787,.2565-.7805,.5068-.125,.4382 .4305-.3933 .5286-1.0204 .7878-1.5297 .3133-.3607-.2375-.393-.2383-.016-.1471,.2138-.2896,1.1652-.4245,.5143-.1402-.2456-.2037-.6089-.3917-.7812-.057,0-.1139,0-.1708,0zm3.6562,0c-1.0349-.01-.5286,1.8881 .4062,1.2505 .4959-.5377-1.1489,.2982-.6542-.5328 .2688-.022 .6251,.043 .8417-.031 .0296-.3465-.1878-.7656-.5938-.6867zm4.5312,0c-1.1061-.05-.565,1.9457 .375,1.2185 .4635-.7695-.6888,.4904-.75-.3443-.1985-.8305 .5229-.7046 .9062-.5002-.0426-.2752-.2821-.3814-.5312-.374zm3.8125,0c.1875,.4375 .375,.875 .5625,1.3125-.1093,.3185-.8223,.553-.125,.5002 .4435-.4051 .5275-1.0554 .7841-1.5829 .246-.4217-.3054-.1927-.2703,.1261-.1488,.2959-.2822,1.0694-.4275,.3376-.1633-.2102-.1484-.6936-.4489-.6935h-.0479-.0271zm3.6562,0c-1.0313-.016-.569,1.8865 .375,1.2505 .5747-.54-1.1458,.2744-.6229-.5327 .2688-.022 .6251,.043 .8417-.031 .0296-.3465-.1878-.7657-.5938-.6868zm-12.0938,.1562c.6326-.027 .5038,.6123-.0583,.4058-.3737,.1234-.145-.3856 .0583-.4058zm11.9688,0c.6424-.048 .5602,.6142-.027,.4058-.3637,.1164-.1521-.3419 .027-.4058zm-23.125,1.3125c.0264,.2708 .5376,.057 .7666,.125 .2311-.066 .7349,.1418 .7647-.125-.5104,0-1.0208,0-1.5312,0z"/>
</g>
<path d="m61.0752,54.9687 0-.3649 .2869,0 0,.3649-.2869,0m-.1758,1.399 .2063-.8081 .3235,0-.3796,.8081-.1501,0"/>
<g stroke-width=".1">
<path stroke-opacity=".484" fill="#000080" stroke="#000080" d="m21.0625,58.0312c-.0388,.1682 .0862,.77-.0837,.591-.8521-.6331-1.2099,1.2559-.3226,1.2518 .313-.012 .4018-.3784 .4475-.033 .3431,.08 .1102-.4155 .1775-.6111 0-.4004 0-.8008 0-1.2012-.0718,0-.1504,0-.2188,0zm2.9375,0c-.5219-.042-.4929,.5779-.8438,.5823 .1546,.098 .4367,.068 .3125,.4451 0,.2616 0,.5232 0,.7848 .3604,.1087 .1745-.329 .2188-.5365 .0655-.1823-.1421-.6378 .1238-.6197 .1698,.019 .7162,.025 .4187-.1562-.2374,0-.8047,.093-.407-.2863 .3751,.086 .8295-.1983 .1983-.2132h-.0212v-.0003zm-9.5,.1588c.0872,.3816-.2968,.252-.2812,.5 .3604-.1087 .1745,.329 .2188,.5365-.184,.5381 .5257,.8646 .8125,.5067-.094-.1669-.7341,.1036-.5937-.3949 .0616-.1954-.136-.6502 .1238-.6474 .2641,.1073 .6403-.1651 .2011-.1562-.4062,.1558-.2482-.2526-.4075-.3438 .005-.03-.0747,.025-.0737-.0009zm13.5,0c.0872,.3816-.2968,.252-.2812,.5 .3604-.1087 .1745,.329 .2188,.5365-.1809,.5167 .4971,.883 .7812,.5067-.0956-.1617-.7198,.095-.5625-.3949 .0616-.1954-.136-.6502 .1238-.6474 .2641,.1073 .6403-.1651 .2011-.1562-.4062,.1558-.2482-.2526-.4075-.3438 .005-.03-.0747,.025-.0737-.0009zm6,0c.0872,.3816-.2968,.252-.2812,.5 .3604-.1087 .1745,.329 .2188,.5365-.181,.5167 .4971,.883 .7812,.5067-.0956-.1617-.7198,.095-.5625-.3949 .0616-.1954-.136-.6502 .1238-.6474 .2705,.1149 .5905-.1747 .1699-.1562-.4057,.1657-.2019-.2781-.3762-.3438 .005-.03-.0747,.025-.0737-.0009zm-16.2812,.3125c-.349,.2271-.1786,.1977-.3638,.031-.3062-.016-.0608,.5199-.1362,.7349 0,.3696 0,.7391 0,1.1086 .3588,.1088 .1756-.3245 .2188-.5313-.0952-.3358 .7168,.3582 .8361-.2555 .1673-.4139 .0635-1.2201-.5548-1.0877zm1.5312,0c-.9198-.015-.7045,1.6822 .2188,1.3432 .516-.1364 .2115-.5465-.0937-.1559-.5401,.123-.6611-.6983-.0461-.4688 .497,.1442 .7239-.2088 .2908-.604-.1064-.077-.2402-.1116-.3697-.1145zm3,0c-.9198-.015-.7045,1.6822 .2188,1.3432 .4878-.1241 .1989-.5455-.0937-.1559-.5401,.123-.6611-.6983-.0461-.4688 .497,.1442 .7239-.2088 .2908-.604-.1064-.077-.2402-.1116-.3697-.1145zm4.5,0c-.7006-.099-.5815,.9398 .0937,.7805 .6665,.4831-.4281,.4247-.6562,.249 .1066,.6291 1.4425,.3344 1.0064-.2878-.2741-.1375-1.1627-.3857-.4439-.586 .2379,.078 .6768,.3493 .3438-.094-.1117-.031-.2291-.047-.3438-.062zm3.25,0c-.3669-.028-.481,.6044-.5,.031-.4398-.09-.0506,.5556-.1562,.8397-.0189,.2041-.041,.643 .2188,.431 .0237-.3769-.1204-.9296 .3386-1.0942 .4489,.142 .571-.2502 .0989-.2077zm2.75,0c-.9354-.03-.7178,1.7087 .2188,1.3432 .5205-.097 .2301-.7349 0-.219-.7258,.4336-.8218-1.1592-.0929-.9381 .2082,.403 .6879,.1766 .1777-.1145-.089-.06-.201-.07-.3036-.072zm-17.1562,.031c.1875,.4375 .375,.8749 .5625,1.3124-.017,.2812-.802,.4726-.2133,.508 .4667-.2609 .5317-.8647 .7572-1.3123 .0261-.1873 .3911-.6031-.0003-.5091-.1679,.3396-.2945,.7371-.4499,1.0922-.1321-.3599-.2993-.7256-.4375-1.0922-.0724,.0008-.148,0-.2188,.001zm15.125,0c.0303,.4055-.0774,.8399 .0937,1.2187 .3099,.4277 .8115-.3443 .7913,.092 .3431,.08 .1102-.4155 .1775-.6111-.0483-.213 .1008-.6232-.0825-.7011-.2813-.03-.0717,.4318-.1362,.619 .1775,.6201-.824,.7434-.625,.06-.0518-.2019 .1059-.6134-.0825-.6786-.0446,0-.0934,0-.1362,.001zm-12.9375,.125c.7192,.086 .1475,1.6962-.3125,.7807-.0583-.2718-.0699-.7549 .3125-.7807zm1.4688,0c.6023,.1638 .2525,.5524-.1927,.4055-.3626,.085-.008-.4628 .1927-.4055zm1.4375,0c.8127,.041 .1615,1.7024-.2812,.7812 .0154-.2594-.1069-.7444 .2812-.7812zm1.5625,0c.644,.2425 .1991,.5238-.234,.4055-.3557,.088 .0656-.468 .234-.4055z"/>
<path stroke-opacity=".516" fill="#f0f" stroke="#f0f" d="m45.8125,58.0312c.2619,.2001 .4606,.4634 .3438,1.0422 .3647,.7016-.6388,.4782-.4223,.7703 .2848-.062 1.2974,.1615 1.0321-.1875-.6669,.1998-.2989-.6352-.391-1.0101 .018-.5772 .0972-.6861-.5625-.6149zm4.5,0c.2619,.2001 .4606,.4634 .3438,1.0422 .3696,.7177-.6611,.476-.4535,.7703 .2983-.06 1.313,.1578 1.0633-.1875-.6669,.1998-.2989-.6352-.391-1.0101 .018-.5772 .0972-.6861-.5625-.6149zm14.9688,0c.2609,.2116 .5105,.4344 .375,1.0422 .3696,.7177-.6611,.476-.4536,.7703 .2983-.06 1.313,.1578 1.0633-.1875-.6669,.1998-.2989-.6352-.3911-1.0101 .0341-.6047 .0668-.6779-.5938-.6149zm4.5,0c.2609,.2116 .5105,.4344 .375,1.0422 .3696,.7177-.6611,.476-.4536,.7703 .2849-.062 1.2974,.1615 1.0321-.1875-.6437,.1611-.2546-.7105-.3598-1.0879 .0788-.5875-.0433-.574-.5938-.5371zm-31.5938,.1563c0,.5521 0,1.1041 0,1.6562 .4327,.1064 .0245-1.1593 .6147-.5564 .1083,.4838 .8926,.827 .3494,.1659-.2244-.4815 .5975-1.4457-.7588-1.2652-.0682-.0003-.1378,.0006-.2052-.0005zm3.3125,0c-1.3468,.7212 1.5998,1.0629 .2188,1.498-.8468-.7283-.5968,.4053 .2812,.1565 1.4526-.6561-1.6649-1.2422-.125-1.467 .8578,.6798 .2815-.4957-.375-.1875zm1.5,0c-.3086,.5339-.1863,.318-.0937,.8885-.4422,.7536 1.0761,.9654 .6723,.5809-.6059,.2516-.5192-.7738-.3758-.9685 .9723-.096-.0712-.027-.0777-.3893 .0332-.1314-.0263-.1164-.125-.1116zm6.2812,0c-1.577,.1023 .0217,2.7986 .52,1.1939-.7787,1.0989-1.4902-1.2933-.3012-.9114 .5528,.6084 .2629-.4267-.2188-.2825zm8.375,0c0,.5521 0,1.1041 0,1.6562 .5249,.1809 .003-1.161 .6147-.5564 .0997,.5 .9307,.8212 .3691,.1737-.6252-.4156 .8608-.8149-.14-1.242-.278-.054-.5636-.022-.8438-.031zm3.3438,0c-1.3994,.7103 1.5688,1.0521 .2188,1.498-.4314-.3344-.95-.3223-.2502,.1541 1.4773,.1427 .6152-1.0588-.0936-1.2456 .1878-.6442 1.4512,.4829 .5938-.4053 .0209-.1776-.47,.1567-.4688,0zm1.4688,0c-.2761,.5718-.1951,.2913-.0625,.8885-.3964,.7103 .9172,1.016 .7188,.5809-.6628,.2403-.4874-.5795-.5-.9685 .9008-.024 .2628-.095 0-.3116-.005-.1738 .0553-.2143-.1562-.1893zm6.2813,0c-1.6095,.1605 .1312,2.7572 .52,1.1939-.7615,1.1016-1.4831-1.3277-.27-.9114 .5662,.6139 .2007-.4578-.25-.2825zm-30.3438,.1875c.9876-.2762 .6615,.9715 0,.5155 0-.1715 0-.3457 0-.5155zm19.5,0c.9671-.2724 .6442,.9723 0,.5155 0-.1715 0-.3457 0-.5155zm-17.6562,.125c-1.632,.2872 .4927,2.1807 .4071,.9367-.8898,1.0526-.987-1.4738-.0946-.5312 .6088,.1406-.0835-.5196-.3125-.4055zm7.4688,0c-1.6367,.2916 .5727,2.1184 .375,1.0003-.6457,.6234-.9774-.6393-.0194-.2818 .6399,.1736 .002-.9088-.3556-.7185zm4.5,0c-.8653,.3672-.3139,.2736 .1875,.249 .2931,.4607-1.457,.3443-.5551,1.0869 .5508-.1979 .6681,.025 1.0551-.072-.4655-.1023 .1096-1.2889-.6875-1.2657zm1.5312,0c-1.3489,.2954 .4063,.7562 .2188,1.1545-.4046,.1221-1.1568-.3773-.4375,.1872 1.1969,.1077 .5413-.8606-.0937-.9985 .1907-.4239 1.4656,.3153 .3125-.3432zm1.4688,0c-1.3057,.3283 .4546,.7517 .25,1.1545-.4046,.1221-1.1568-.3773-.4375,.1872 1.1962,.1138 .5338-.8566-.0937-.9985 .178-.445 1.2806,.305 .4688-.3125l-.1875-.031v.0003zm4.5312,0c-1.4482,.091-.003,2.3215 .5312,.9367-.6696,.7588-1.4574-.6621-.421-.7506 .5481,.6181 .5307-.1837-.1102-.1861zm7.4688,0c-1.7099,.3462 .637,2.0847 .3438,.9993-.6232,.6285-.9916-.6381-.0194-.2818 .6722,.1842 .0451-.8747-.3243-.7175zm4.4688,0c-.8714,.386-.2517,.261 .2188,.249 .2602,.4916-1.4496,.3038-.5707,1.0869 .5448-.1748 .6676-.01 1.0394-.072-.4055-.1498 .1287-1.3183-.6875-1.2657zm1.5312,0c-1.2058,.2722 .1821,.759 .3125,1.0925-.3609,.3043-1.2934-.3878-.5312,.2492 1.2322,.1258 .5313-.8598-.0625-.9985 .1641-.4523 1.2373,.3034 .4688-.3125l-.1875-.031v.0003zm1.5,0c-1.2058,.2722 .1821,.759 .3125,1.0925-.3444,.3111-1.321-.3866-.5312,.2492 1.2322,.1258 .5313-.8598-.0625-.9985 .1641-.4523 1.2373,.3034 .4688-.3125l-.1875-.031v.0003zm-30.6562,.031c.178,.4601 .4257,.9059 .5625,1.3745-.9185,.5432 .1022,.6248 .28-.2058 .0504-.3471 .6548-1.0596 .3459-1.1697-.3173,.073-.3696,1.1584-.5633,.9683-.1837-.2907-.2109-1.0136-.625-.9673zm19.5,0c.1545,.4575 .4756,.9201 .5312,1.3745-.973,.7406 .3623,.3542 .3958-.4231 .1002-.2601 .6116-1.2973 .109-.8081-.201,.3627-.3514,1.3978-.5625,.4927-.1553-.2113-.112-.7391-.4735-.636zm-15.8438,.125c1.4257,.578-1.3588,.5817 0,0zm19.5,0c1.1475,.5224-1.1381,.5587 0,0zm-14.9688,.5313c.84,.2192-1.0085,.8428-.1562,.032l.1562-.031v-.0005zm19.4688,0c.8771,.027-.7997,1.0227-.25,.062 .0005-.086 .2505,.024 .25-.062zm-35.25,.8125c.1949,.287 .9188,.045 1.321,.125 .5931-.1641-.6232-.1286-.8776-.125-.1478,0-.2956,0-.4434,0z"/>
</g>
<path d="m76.0654,58.889 0-.365 .2869,0 0,.365-.2869,0m-.1758,1.3989 .2063-.8081 .3235,0-.3796,.8081-.1501,0"/>
<path stroke-opacity=".484" fill="#000080" stroke="#000080" stroke-width=".1" d="m21.0625,64.0312c0,.2183 0,.4367 0,.655-.6688-.6887-1.2519,.6022-.7132,1.0772 .3186,.409 .7663-.3669 .7488,.078 .3264,.089 .1321-.3429 .1831-.5293 0-.4273 0-.8547 0-1.282-.0725,.0007-.1482,0-.2188,0zm2.6875,0c-.3023,.1649-.2349,.5664-.5938,.5043-.1061,.3203 .4466-.018 .3125,.33 0,.326 0,.6521 0,.9781 .3203,.1049 .1988-.2319 .2188-.4274 0-.2429 0-.4859 0-.7288 .1953-.025 .4895,.049 .625-.036 .067-.2839-.3338-.1-.4986-.1519-.3761-.1407 .2944-.4317 .5299-.2813 .1069-.3618-.4138-.1108-.5938-.1874zm-9.25,.1265c.0433,.298-.1716,.3237-.2812,.415 .007,.1999 .3564,.057 .2188,.4012 .0381,.2863-.1263,.7162 .2253,.8452 .1913,.147 .8629-.1336 .464-.1778-.3014,.1112-.5592-.094-.4706-.4196 .0529-.1719-.1296-.5792 .1425-.5319 .185,.061 .5716-.046 .3175-.1875-.1978-.027-.5591,.11-.46-.2137 .0271-.1651-.0258-.1281-.1562-.1309zm3.3437,.3125c-.3085,0-.4131,.3885-.4419,.033-.3506-.089-.1243,.3988-.1831,.6016 0,.4139 0,.8279 0,1.2419 .3203,.1049 .1988-.2319 .2188-.4274-.1175-.503 .6074,.2786 .7812-.2599 .217-.3752 .1958-1.1629-.375-1.1892zm1.4062,0c-.7165-.01-.8337,1.2571-.1323,1.3699 .3484,.223 .9379-.4946 .4448-.2764-.3107,.5079-1.0561-.4295-.4382-.3448 .2398,0 .4796,0 .7194,0 .0309-.3516-.1976-.7733-.5938-.7487zm3,0c-.7165-.01-.8337,1.2571-.1323,1.3699 .3275,.2261 .9209-.4674 .4448-.2764-.3107,.5078-1.0561-.4295-.4382-.3448 .2398,0 .4796,0 .7194,0 .0309-.3516-.1976-.7733-.5938-.7487zm4.5,0c-.7438-.015-.8268,1.2504-.1323,1.3699 .3236,.2287 .8935-.4891 .4448-.2764-.3107,.5079-1.0561-.4295-.4382-.3448 .2294,0 .4588,0 .6882,0 .0289-.3536-.1557-.757-.5625-.7487zm1.5938,0c-.2672,.036-.4053,.3266-.4731,.03-.3186-.056-.0845,.4415-.1519,.6372 0,.2354 0,.4709 0,.7063 .3203,.1049 .1988-.2319 .2188-.4274-.0533-.345 .0514-.9619 .5312-.6973 .1757,.2937 .0605,.6678 .0937,.9982-.004,.2856 .3581,.084 .2188-.1579-.0358-.3575 .1269-.8405-.25-1.0591-.003,.037-.1885-.095-.1875-.03zm2.7188,0c-.2324,.1642-.2214,.1701-.3525,.031-.2025,.062-.0296,.4993-.085,.7084 .0239,.1997-.0477,.4948 .0356,.6351 .2839,.067 .0999-.3338 .1519-.4986-.1085-.3471 .2996-1.0831 .3125-.3456 0,.2812 0,.5625 0,.8437 .3203,.1049 .1988-.2319 .2188-.4274-.0549-.2718 .0574-1.1003 .3125-.5733 .0003,.3333-.0002,.6667 0,1 .3203,.1049 .1988-.2319 .2188-.4274-.0293-.3135 .101-.7535-.2129-.9389-.3294-.047-.3137,.4152-.5077,.01l-.0919-.016zm-15.4688,.031c.1875,.4375 .375,.875 .5625,1.3125 .0326,.3436-.7495,.3768-.3125,.5312 .4276-.02 .5219-.5368 .6753-.8643 .1291-.3265 .2581-.6529 .3872-.9794-.2813-.097-.285,.2154-.3775,.3968-.1336,.1612-.1975,.9603-.3725,.4784-.1044-.2954-.2303-.583-.3438-.8752-.0729,0-.1458,0-.2188,0zm13.625,0c.027,.4162-.0719,.8577 .0937,1.25 .233,.2456 .7329-.021 .75-.094 .0261,.4346 .3482,.055 .2188-.2319 0-.3081 0-.6162 0-.9243-.3203-.1049-.1988,.2319-.2188,.4274 .0393,.3124-.029,.879-.4688,.7291-.2812-.136-.1093-.5456-.1562-.8109-.0233-.2152 .1026-.4139-.2188-.3454zm-11.4375,.1562c.5486,.024 .4132,1.3125-.1927,.9776-.2258-.2064-.2539-.9889 .1927-.9776zm1.3438,0c.4155-.1703 .6705,.5365 .1482,.3745-.3764,.087-.5218-.1268-.1482-.3745zm1.5625,0c.6377-.033 .4325,1.3422-.1771,.9611-.1636-.2298-.223-.9316 .1771-.9611zm1.4375,0c.443-.1348 .6475,.548 .1126,.3745-.4114,.088-.4668-.1287-.1126-.3745zm4.5,0c.443-.1348 .6475,.548 .1126,.3745-.4114,.088-.4668-.1287-.1126-.3745z"/>
<path d="m34.459,66.3475c-.0529,0-.1013-.01-.1453-.027-.044-.018-.0818-.043-.1135-.076-.0317-.033-.0566-.072-.0745-.1172-.0171-.045-.0256-.095-.0256-.1502v-.4284c0-.051-.01-.094-.0293-.1294-.0187-.036-.044-.065-.0757-.087-.0317-.022-.068-.038-.1086-.049-.0399-.011-.0806-.017-.1221-.018v-.1673c.0415,0 .0822-.01 .1221-.018 .0407-.01 .0769-.027 .1086-.049 .0317-.023 .057-.052 .0757-.087 .0195-.035 .0293-.078 .0293-.1282v-.4297c0-.057 .008-.1082 .0256-.1538 .0179-.046 .0427-.084 .0745-.1159 .0317-.033 .0696-.057 .1135-.075 .0439-.017 .0924-.026 .1453-.026h.3235v.1696h-.26c-.0366,0-.0684,0-.0952,.014-.026,.01-.0476,.022-.0647,.04-.0171,.019-.0297,.043-.0378,.073-.007,.03-.011,.067-.011,.1111v.4223c0,.046-.008,.088-.0256,.1258-.0163,.037-.0378,.07-.0647,.099-.0268,.028-.0574,.05-.0915,.068-.0334,.018-.0667,.031-.1001,.039 .035,.01 .0692,.022 .1025,.04 .0342,.018 .0643,.041 .0903,.068 .0269,.028 .0484,.061 .0647,.099 .0163,.037 .0244,.08 .0244,.127v.4235c0,.086 .0163,.1473 .0488,.1832 .0326,.037 .0859,.055 .1599,.055h.26v.1697h-.3235"/>
<path stroke-opacity=".516" fill="#f0f" stroke="#f0f" stroke-width=".1" d="m17.7812,68.25c-.7265,.01-.7905,.992-.4688,1.4682 .2186,.5205 1.3796,.019 .93-.2896-.1751,.4952-1.0332,.3392-.8675-.3366-.1637-.5936 .6086-.9041 .8131-.36 .4237-.1033-.2073-.5605-.4069-.482zm5.9688,0c-.6982,.016-.7457,.9283-.5066,1.4083 .4803,.7169 1.3447-.1006 1.1223-.7604-.0123-.3353-.2502-.6704-.6157-.6479zm3,0c-.9021-.042-.5861,1.0749 .1761,.964 .6665,.4129-.5622,.844-.6489,.258-.5156,.089 .3372,.6806 .6247,.4561 .7981-.059 .4319-1.106-.2457-.9904-.7182-.257 .3488-.8511 .4729-.2544 .5633,.045-.1554-.5523-.3791-.4333zm4.5,0c-.6982,.016-.7457,.9283-.5066,1.4083 .4775,.7173 1.351-.1014 1.1174-.7604-.0426-.3105-.2547-.6685-.6108-.6479zm-12.125,.031c-.2083,.5417-.4167,1.0833-.625,1.625 .2851,.099 .3094-.1647 .374-.372 .0771-.204 .4138-.048 .6026-.097 .2486-.046 .1469,.3945 .309,.4687 .357,.098 .1073-.2203 .0608-.3993-.1572-.4086-.3143-.8171-.4714-1.2257-.0833,0-.1667,0-.25,0zm1.125,0c-.1354,.3467 .359,.063 .375,.2588 0,.3929 0,.7858 0,1.1787-.1847-.065-.5556,.05-.3037,.1875 .3096,0 .6191,0 .9287,0 .1354-.3467-.359-.063-.375-.2588 0-.3929 0-.7858 0-1.1787 .1847,.065 .5556-.05 .3037-.1875-.3096,0-.6191,0-.9287,0zm1.4375,0c0,.5417 0,1.0833 0,1.625 .318,.104 .2545-.1736 .25-.3921-.1042-.2645 .1367-.4091 .3195-.2352 .1505,.199 .2568,.4784 .4349,.6273 .3862,.084 .1203-.1717 .001-.3512-.1968-.2511-.3535-.4158 .0568-.5235 .3986-.4893-.2686-.8656-.7183-.75-.1146-.0002-.2301,.0004-.3442-.0003zm5.9062,0c-.0936,.3106 .2853,.1487 .4634,.1875 .1518,.073 .0273,.4219 .0678,.606 0,.2772 0,.5543 0,.8315 .3205,.105 .1987-.2323 .2188-.4278 0-.3366 0-.6731 0-1.0097 .1703-.053 .5632,.1169 .5625-.1069-.0351-.1819-.4025-.032-.5704-.081-.2474,0-.4947,0-.7421,0zm1.5938,0c0,.5417 0,1.0833 0,1.625 .3205,.105 .1987-.2323 .2188-.4278-.1193-.2777 .1984-.346 .3508-.1995 .1505,.199 .2568,.4784 .4349,.6273 .3862,.084 .1203-.1717 .001-.3512-.1968-.2511-.3535-.4158 .0568-.5235 .3679-.4939-.2608-.8666-.7183-.75-.1146-.0002-.2301,.0004-.3442-.0003zm3,0c0,.5417 0,1.0833 0,1.625 .3205,.105 .1987-.2323 .2188-.4278-.0323-.1963 .2631-.4924 .3482-.1831 .1718,.1934 .3046,.4652 .5,.6109 .39,.082 .1125-.166-.0147-.3395-.1528-.1993-.3056-.3987-.4585-.598 .2083-.2292 .4167-.4583 .625-.6875-.2565-.071-.3995,.1097-.5411,.2937-.153,.1729-.306,.3459-.4589,.5188 0-.2708 0-.5417 0-.8125-.0729,0-.1458,0-.2188,0zm1.5,0c0,.5417 0,1.0833 0,1.625 .3854,0 .7708,0 1.1562,0 .0936-.3106-.2853-.1487-.4634-.1875-.1745-.043-.5618,.127-.4741-.1782-.0259-.2491-.0308-.4771 .2852-.3843 .1702-.053 .5767,.1301 .5273-.1426-.1103-.1067-.4203-.014-.606-.045-.3207,.097-.1759-.2707-.2065-.4634 .125-.089 .419-.01 .606-.037 .2331,.1283 .4734-.2028 .1576-.1875-.3275,0-.6549,0-.9824,0zm-14.4375,.1563c.0666,.283 .1897,.562 .2812,.8432-.1527-.05-.6021,.1102-.5269-.1008 .0875-.2459 .1786-.4958 .2457-.7424zm4.5,0c.5551,.072 .5395,1.3801-.0874,1.3039-.4089-.1703-.4342-1.2565 .0874-1.3039zm7.5,0c.5551,.072 .5395,1.3801-.0874,1.3039-.4449-.1836-.4554-1.2417 .0874-1.3039zm-9.3125,.031c.3654-.1165 1.0221,.23 .5,.531-.2179,.035-.6179,.1364-.5-.2185 0-.1039 0-.2103 0-.3125zm7.4688,0c.3629-.09 1.0397,.1487 .5312,.531-.2205,.023-.6521,.1515-.5312-.2185 0-.1039 0-.2103 0-.3125zm-4.9062,1.5938c-.0319,.2518 .3699,.07 .5347,.125 .3218,0 .6435,0 .9653,0 .0319-.2518-.3698-.07-.5347-.125-.3218,0-.6435,0-.9653,0z"/>
<path d="m36.6269,68.8743 0-.1807 1.2146,0 0,.1807-1.2146,0m0,.625 0-.1807 1.2146,0 0,.1807-1.2146,0"/>
<path stroke-opacity=".484" fill="#008000" stroke="#008000" stroke-width=".1" d="m39.675,69.9192c0-.059 0-.118 0-.177 .1786,0 .3573,0 .5359,0 0-.4154 0-.8309 0-1.2463-.0603,.1085-.1841,.1581-.2957,.1965-.0811,.026-.166,.04-.2512,.041 0-.06 0-.1205 0-.1807 .1988,0 .412-.073 .5376-.235 .014-.04 .0412-.051 .0805-.044 .0499,0 .0998,0 .1497,0 0,.4899 0,.9798 0,1.4697 .1436,0 .2873,0 .4309,0 0,.059 0,.118 0,.177-.3959,0-.7918,0-1.1878,0"/>
<path d="m41.2986,70.3623 .2063-.8081 .3235,0-.3796,.8081-.1501,0"/>
<path stroke-opacity=".516" fill="#f0f" stroke="#f0f" stroke-width=".1" d="m17.7812,72.4375c-.5749-.075-.7367,.6764-.6145,1.1025 .0376,.5704 .8414,.8197 1.1457,.3033 .2466-.3327-.2873-.2728-.3088,.021-.6239,.2963-.7605-.6817-.5349-1.0823 .2301-.3705 .593-.043 .7439,.1074 .3945-.055-.2677-.5459-.4314-.4519zm1.3438,0c-.2083,.5521-.4167,1.1041-.625,1.6562 .23,.066 .31-.076 .3439-.2817-.0008-.257 .2402-.1786 .4186-.187 .1814,0 .3991-.055 .3969,.1972 .0303,.2059 .1182,.332 .3405,.2715-.2083-.5521-.4167-1.1041-.625-1.6562-.0833,0-.1667,0-.25,0zm1.125,0c-.0871,.2684 .1889,.1736 .3563,.1875 .0437,.1604 .006,.4022 .0187,.5938 0,.2292 0,.4583 0,.6874-.1633,.021-.459-.09-.375,.1782 .3146,.022 .6698,0 1,.01 .0871-.2684-.1889-.1736-.3563-.1875-.0437-.1604-.006-.4022-.0187-.5938 0-.2292 0-.4583 0-.6874 .1633-.021 .459,.09 .375-.1782-.314-.022-.6705,0-1-.01zm1.4375,0c0,.5521 0,1.1041 0,1.6562 .2521,.07 .2847-.08 .25-.2969 .0357-.144-.1057-.4651 .1485-.3906 .2102-.05 .2386,.2315 .356,.3507 .1147,.1237 .147,.3973 .3628,.3368 .2758,.049-.0655-.2253-.1046-.3412-.1278-.2129-.4275-.4292-.006-.4982 .4594-.3782-.0846-.9572-.5617-.8163-.1483-.0003-.2979,.0007-.4453-.0005zm2.0625,0c-.5908-.074-.6922,.6738-.6096,1.1028 .004,.4729 .5992,.7683 .9625,.4567 .3297-.3698 .382-1.0232 .0731-1.4209-.1109-.1113-.2754-.1399-.426-.1386zm2.4688,0c0,.5521 0,1.1041 0,1.6562 .2521,.07 .2847-.08 .25-.2969 .0191-.1601-.088-.4463 .1781-.3593 .2114,0 .4229,0 .6344,0 .0871-.2684-.1889-.1736-.3563-.1875-.1362-.046-.4634,.1-.4562-.089 0-.1786 0-.3573 0-.5359 .2812,0 .5625,0 .8438,0 .0871-.2684-.1889-.1736-.3563-.1875-.2458,0-.4916,0-.7374,0zm1.5312,0c-.0871,.2684 .1889,.1736 .3563,.1875 .0437,.1604 .006,.4022 .0187,.5938 0,.2292 0,.4583 0,.6874-.1633,.021-.459-.09-.375,.1782 .3146,.022 .6698,0 1,.01 .0871-.2684-.1889-.1736-.3563-.1875-.1139-.071-.0186-.3512-.0499-.5048 0-.2588 0-.5176 0-.7764 .1486-.036 .4759,.106 .4062-.1485-.0891-.092-.3503-.012-.5048-.039-.1651,0-.3302,0-.4952,0zm1.5312,0c0,.5521 0,1.1041 0,1.6562 .3542,0 .7083,0 1.0625,0 .0871-.2684-.1889-.1736-.3563-.1875-.1449-.037-.441,.076-.4874-.059 0-.4698 0-.9395 0-1.4093-.0729,0-.1458,0-.2188,0zm1.5,0c0,.5521 0,1.1041 0,1.6562 .3542,0 .7083,0 1.0625,0 .0871-.2684-.1889-.1736-.3563-.1875-.1449-.037-.441,.076-.4874-.059 0-.4698 0-.9395 0-1.4093-.0729,0-.1458,0-.2188,0zm-8.8438,.1875c.2693,0 .7241-.052 .6924,.3452-.0489,.3176-.4536,.2369-.6924,.248 0-.1974 0-.3975 0-.5932zm1.8125,0c.5212,.1023 .4601,.945 .1678,1.2615-.5992,.2071-.6409-.7414-.449-1.1053 .0538-.1019 .1674-.1615 .2812-.1562zm-4.5312,.031c.1198,.1729 .1723,.4545 .271,.6712 .1178,.2118-.2755,.07-.4038,.1108-.238,.035 .0332-.2829 .0393-.417 .0374-.1192 .1095-.2367 .0936-.365zm5.2812,1.5938c-.055,.2352 .2792,.081 .4157,.125 .3614,0 .7229,0 1.0843,0 .055-.2352-.2792-.081-.4157-.125-.3614,0-.7229,0-1.0843,0z"/>
<path d="m36.6269,73.0499 0-.1807 1.2146,0 0,.1807-1.2146,0m0,.625 0-.1807 1.2146,0 0,.1807-1.2146,0"/>
<path stroke-opacity=".484" fill="#008000" stroke="#008000" stroke-width=".1" d="m39.6592,74.0948c0-.048 0-.095 0-.1428 .0938-.2076 .2719-.3585 .441-.5039 .153-.1308 .3291-.2496 .425-.4321 .0611-.1282 .0275-.3112-.1097-.3753-.1173-.051-.2615-.053-.3744,.011-.0837,.051-.1291,.1468-.1389,.2419-.0749-.01-.1497-.014-.2246-.021 .0168-.1719 .1248-.3353 .2875-.401 .1591-.067 .3422-.061 .5065-.017 .1466,.041 .2741,.1601 .2989,.3139 .0298,.1395-.008,.2874-.0948,.3997-.19,.2658-.5027,.4076-.7026,.6641-.0228,.034-.0784,.1008-.004,.084 .2793,0 .5586,0 .8379,0 0,.059 0,.1188 0,.1782-.3825,0-.765,0-1.1475,0"/>
<path d="m14.2039,78.3636 0-.1697 .26,0c.0741,0 .1274-.018 .1599-.055 .0334-.036 .05-.097 .05-.1831v-.4236c0-.047 .008-.089 .0244-.1269 .0163-.038 .0374-.071 .0635-.099 .0268-.028 .057-.051 .0903-.068 .0334-.019 .0675-.032 .1025-.04-.0334-.01-.0667-.021-.1001-.039-.0334-.018-.0635-.041-.0903-.068-.0269-.029-.0488-.061-.0659-.099-.0163-.037-.0244-.079-.0244-.1257v-.4224c0-.044-.004-.081-.0122-.111-.008-.03-.0208-.055-.0379-.073-.0171-.019-.0391-.032-.0659-.04-.026-.01-.0574-.013-.094-.013h-.26v-.1697h.3235c.0529,0 .1013,.01 .1453,.026 .0439,.017 .0818,.042 .1135,.074 .0317,.032 .0562,.07 .0733,.116 .0179,.046 .0268,.097 .0268,.1538v.4297c0,.05 .009,.093 .0281,.1282 .0195,.035 .0452,.064 .0769,.087 .0317,.022 .0675,.038 .1074,.049 .0407,.01 .0818,.017 .1233,.018v.1672c-.0415,0-.0826,.01-.1233,.018-.0399,.011-.0757,.027-.1074,.049-.0317,.022-.0574,.051-.0769,.087-.0187,.035-.0281,.078-.0281,.1294v.4285c0,.055-.009,.1054-.0268,.1501-.0171,.046-.0415,.085-.0733,.1172-.0317,.033-.0696,.058-.1135,.076-.044,.018-.0924,.027-.1453,.027h-.3235"/>
<path stroke-opacity=".516" fill="#f0f" stroke="#f0f" stroke-width=".1" d="m23.6562,76.0312c-.1606,.4183 .4789,.2422 .2026,0-.0675,0-.1351,0-.2026,0zm13.5,0c-.1606,.4183 .4789,.2422 .2026,0-.0675,0-.1351,0-.2026,0zm-19.9688,.1563c0,.5521 0,1.1041 0,1.6562 .5592,.08 1.2725-.136 1.1875-.8432 .049-.7017-.6415-.8647-1.1875-.813zm11.0625,0c-1.0009-.052-.7794,2.0817 .25,1.6248 .5258-.3185 .5716-1.6676-.25-1.6248zm7.25,0c.1472,.3647-.4955,.3527-.1865,.5 .2684,.026 .0565,.5314 .124,.758-.2359,.7851 1.3431,.1985 .5312,.2424-.4842,.06-.2642-.5142-.3125-.8029-.1529-.4325 .58,.021 .5-.3387-.2584-.024-.639,.075-.5-.3458-.009-.033-.1237,.0006-.1562-.013zm-18.0625,.1875c.8214-.2074 .969,1.2693 .1875,1.281-.3595,.06-.1169-.4818-.1875-.7106 0-.19 0-.3811 0-.5704zm10.8125,0c.8959,.1278 .0668,2.1034-.3522,.9153-.0326-.3074-.0934-.8855 .3522-.9153zm-8.7188,.125c-.3962-.06-.4774,.6029-.5312,.031-.426-.072-.0436,.6368-.1562,.942-.1545,.3816 .3219,.5406 .2188,.086-.1185-.4992 .2532-.9966 .7188-.8882 .0485-.2035-.101-.1695-.25-.1708zm1.1875,0c-.6008-.062-.519,.6877-.0937,.187 .5907-.027 .3712,.5412-.125,.3732-.8525,.1747 .0926,1.3446 .5,.532 .173,.4759 .6255,.1672 .2188-.094-.0149-.3977 .1228-1.0343-.5-.9978zm4.625,0c-.4387,.1854-.2877,.195-.5796,.033-.1056,.2243-.0155,.6442-.0454,.9442-.1547,.382 .3229,.5368 .2188,.084-.1131-.3914 .1721-1.2584 .5938-.7163 .0631,.3281 .0174,.667 .0312,1 .3919,.098 .1544-.4335 .2188-.6632 .0302-.3107-.0411-.6969-.4375-.6815zm1.3125,0c-.9238,.037-.4591,1.9325 .3438,1.1557 .2872-.098-.2386,1.0397-.5312,.3443-.6596,.3155 1.1263,.6542 .8125-.2359 0-.4112 0-.8224 0-1.2336-.3856-.038-.0927,.3569-.4909-.018l-.1341-.015zm3.0625,0c-.3594,.2446-.1666,.1765-.376,.031-.2845,.04-.0484,.6006-.124,.8495 0,.3313 0,.6627 0,.994 .3888,.098 .1577-.425 .2188-.6553 .5784,.611 1.3144-.6663 .625-1.1873-.1083-.053-.2309-.022-.3438-.032zm1.5312,0c-1.0551,0-.5734,1.8741 .375,1.2813 .4217-.6771-.7478,.4168-.7402-.4496 .0576-.2426 .5861-.053 .8429-.1132 .318-.08-.1585-.8475-.4777-.7185zm1.75,0c-.4252,.063-.4169,.4914-.5474,.031-.3525,0-.0002,.6843-.1089,.9894-.1331,.4264 .3595,.4113 .2188-.01-.1488-.5335 .3527-.8845 .6875-.8881 .0476-.1761-.1523-.1109-.25-.1235zm1.2188,0c-.6321-.075-.5378,.7077-.125,.187 .6716-.01 .3302,.5349-.1927,.3971-.7146,.3234 .2556,1.2447 .5989,.5081 .0246,.4639 .7159,.1579 .2123,0-.0114-.4108 .1559-1.1244-.4936-1.088zm4.5312,0c-1.0217-.048-.6086,1.8816 .321,1.2605 .4208-.2922 .3383-1.3495-.321-1.2605zm1.5938,0c-.3991,.1056-.3679,.3186-.5322,.033-.2351,.027-.0223,.5961-.0927,.8495-.1355,.2858 .1916,.7315 .2188,.2732 .0136-.348-.1175-1.0841 .4375-.967 .2907,.2473 .1019,.7169 .1562,1.0703 .2349,.3268 .2524-.261 .2188-.4828 .0001-.3332 .0836-.7822-.4062-.7762zm-18.8125,.031c.0729,.4375 .1458,.875 .2188,1.3125 .3663,.1183 .3167-.3402 .4375-.5625 .0655-.534 .1972,.3535 .3125,.5625 .3927,.1228 .261-.3733 .3513-.6075-.04-.2081 .2829-.7236-.0246-.705-.187,.1236-.1468,.5614-.2016,.8128-.066,.6949-.0984-.3417-.2974-.4682-.3727-.081-.2496,.4778-.4214,.6872-.0339,.023-.1032-.6796-.1483-.9707 .0229-.1233-.1616-.035-.2267-.061zm1.75,0c-.0635,.3458 .6105-.046 .4062,.4405-.0712,.2202 .1743,.757-.1895,.6845-.4264-.1307-.4379,.305-.0101,.1875 .2957,0 .5914,0 .8871,0 .1189-.4166-.6469,.052-.4688-.4244 0-.296 0-.5921 0-.8881-.2083,0-.4167,0-.625,0zm13.5,0c-.0635,.3458 .6105-.046 .4062,.4405-.0712,.2202 .1743,.757-.1895,.6845-.4264-.1307-.4378,.305-.0101,.1875 .2853,0 .5706,0 .8559,0 .1223-.4096-.6205,.046-.4375-.4244 0-.296 0-.5921 0-.8881-.2083,0-.4167,0-.625,0zm-10.0625,.125c.8519,.1612-.0767,1.7026-.3171,.6527 .0005-.2414-.0482-.6633 .3171-.6527zm3.0625,0c.8152,.1432-.052,1.7712-.3336,.6825-.0265-.2519-.0103-.6719 .3336-.6825zm1.4688,0c.7027,.2956 .1095,.5088-.3195,.4055-.1889-.016 .1764-.5077 .3195-.4055zm7.5,0c.8832,.1787-.0864,1.7705-.3664,.6692-.0295-.2592 .006-.6867 .3664-.6692zm-18,.5313c.7935-.074-.5306,1.0553-.3438,.1565 .0626-.144 .2295-.1046 .3438-.1565zm13.5,0c.7914-.083-.5476,1.04-.3438,.1565 .0626-.144 .2295-.1046 .3438-.1565z"/>
<path d="m41.5879,76.889 0-.365 .2869,0 0,.365-.2869,0m-.1758,1.3989 .2063-.8081 .3235,0-.3796,.8081-.1501,0"/>
<g stroke-opacity=".511" fill="#666" stroke="#666" stroke-width=".1">
<path d="m48.8438,19.75c-.0313-.0017-.0767,.0135-.125,.0312v1.8125c.5458,.0398-.1623-1.5409 .75-1.0938 .1549,.2339-.0821,1.4777 .2812,.9375 .2443-.7774-.4226-1.4336-.8438-1.0625-.0072-.1672 .1568-.6131-.0625-.625zm-33.6875,.0312-1.0312,1.8438c.3797,.0998 .4111-.3987 .5938-.625l.625-1.2188h-.1875zm1.4688,0-1,1.8438c.3797,.0998 .4111-.3987 .5938-.625l.625-1.2188h-.2188zm6.5938,0 0,1.8125c.4058,.0968 .1458-.4827 .2188-.7188 .126-.9385 .8396-.1916 .625,.375-.1355,.4513 .3683,.4408 .2188,0 .0207-.3977 .0608-1.1444-.5625-.9688-.5908,.5948-.0176-.518-.4375-.5h-.0312-.0312zm9.4375,0c-.1147,.5776 .6161-.0249 .0625,0h-.0625zm1.0625,0 0,1.8125c.4058,.0968 .1458-.4827 .2188-.7188 .0755-.8632 .8088-.2851 .5938,.2812-.1735,.3659 .3004,.683 .25,.1875-.0258-.3901 .1489-1.0761-.4375-1.0938-.4999,.3052-.4042,.1324-.4062-.3438 .0546-.1924-.1057-.0992-.2188-.125zm8.125,0c-.8699,.4511-.2091,2.5849 .125,2.1875-.7966-.6004 .1113-2.012-.125-2.1875zm8.8125,0c-.101,.6921 .5998-.1121 0,0zm6.0938,0c-.0947,.6883 .6829-.0995 0,0zm7.5312,0c-1.2093,.0894-.9426,2.7938 .3438,2 .3072-.3381-1.2052,.4329-.9375-.625-.3915-.958 1.1295-1.8459 1.0938-.4688-.0787,1.0466-.4553,.4545-.1875-.1562 .0618-.449-.12,.038-.4688-.25-.6569,.438-.1684,1.4487 .25,1.0938 .7866,.4718 .683-1.7757-.0938-1.5938zm5.8438,0c-.0947,.6883 .6829-.0995 0,0zm1.1562,0c.2527,.2149 .5135,.4251 .375,1.0312 .3586,.7142-.6566,.4948-.4688,.7812 .29-.0596 1.3161,.1582 1.0625-.1875-.639,.1622-.2738-.6868-.375-1.0625 .0549-.6249 .0237-.5928-.5938-.5625zm7.5938,0c.8998,.5929 .0587,2.0899 .2188,2.3438 .5633-.5663 .6799-2.1365-.2188-2.3438zm-59.75,.1562-.625,1.6562c.4441,.1784 .1879-.5941 .5938-.4688 .3684-.0763 .6262,.0442 .6562,.4375 .4362,.2123 .101-.3642 .0312-.5938l-.4062-1.0312h-.25zm2.875,0c.1445,.3529-.5673,.4034-.125,.5 .1581,.1455 .0167,.586 .0625,.8438-.0304,.7495 1.4542,.0098 .4375,.1562-.4061-.0806-.1444-.6318-.2188-.9375 .0541-.1023 .8221-.0129 .4375-.2188-.4975,.189-.3407-.2882-.5938-.3438zm8.5938,0c-.13,.437 .6812-.082 .5312,.375v1.2812c.4058,.0968 .1458-.4827 .2188-.7188 .0801-.224-.1694-.7716 .1562-.75 .3927,.1465 .589-.27 .0938-.1875h-1zm15.4062,0c-.3053,.5318-.1905,.3109-.0938,.875-.3625,.6656 .8219,1.0791 .75,.5938-.6733,.3134-.6237-.732-.4688-.9688 .9654-.0934-.0434-.0213-.0625-.375 .0275-.1303-.0162-.1349-.125-.125zm1.5,0c-.3053,.5318-.1905,.3109-.0938,.875-.3625,.6656 .8219,1.0791 .75,.5938-.6733,.3134-.6237-.732-.4688-.9688 .9654-.0934-.0434-.0213-.0625-.375 .0275-.1303-.0162-.1349-.125-.125zm-28.2812,.2188c.0096,.1769 .5539,.8535 .125,.7812-.4876,.1313-.3141-.2057-.1875-.5 .02-.0939 .0873-.1801 .0625-.2812zm33.1562,.0625c-.0515-.0109-.1092,.007-.1562,.0312-1.6639,.3006 .5704,2.1177 .375,1-.6415,.6348-.9856-.6356-.0312-.2812 .5632,.1544 .1726-.6738-.1875-.75zm8.9688,0c-.044-.0047-.0879,.0032-.125,.0312-1.7025,.3423 .6429,2.0858 .3438,1-.7803,.575-.81-.6624 .1562-.2812 .35,.0132-.0667-.717-.375-.75zm-36.0938,.0312c-1.0395-.0346-.5983,1.89 .3438,1.25 .4083-.3302 .3226-1.3242-.3438-1.25zm1.7812,0c-.4475,.0316-.4581,.5053-.5938,.0312-.3523,.0036 .0201,.7208-.0938,1.0312-.0886,.4868 .3825,.2629 .2188-.125-.1629-.5619 .454-.7616 .7188-.8125 .0513-.1579-.165-.1157-.25-.125zm8.7188,0c-1.0625-.0318-.5735,1.8874 .375,1.2812 .4328-.6677-.7622,.4276-.75-.4375 .0742-.2451 .6319-.0635 .9062-.125 .1208-.2993-.1467-.7478-.5312-.7188zm2.8125,0c-.4014,.291-.1136,.0872-.4688,.0312 .0654,.4245 .0156,.8762 .0312,1.3125 .368,.0555 .1114-.5136 .1875-.75 .1698-.9387 .4045,.0642 .3125,.4688-.0886,.4868 .3825,.2629 .2188-.125-.1396-.4423 .2996-1.197 .3125-.3438 .0756,.2345-.18,.8074 .1875,.75-.0394-.4219 .0848-.8934-.0938-1.2812-.5244-.2722-.2516,.4038-.6875-.0625zm4.5,0c-.3483,.3044-.5252-.2275-.4375,.625-.1474,.5178 .2421,1.0823 .1875,.25-.0808-1.0146 .4935-.6207 .3125,.1562 .0916,.8221 .3292-.2767 .2188-.625 .3769-.6773 .3239,.6314 .3125,.9375 .3512-.058 .2624-1.1955-.0625-1.3438-.4387,.0935-.1245,.3357-.5312,0zm1.6562,0c-.7939,.2218-.3859,.4768 .0938,.1875 .65,.5212-1.4499,.3788-.4688,1.1562 .5888-.2079 .652-.031 1.0625-.0625-.5239-.1006 .1683-1.2987-.6875-1.2812zm13.4688,0c-.8722,.3886-.2512,.2602 .2188,.25 .2677,.4747-1.4557,.3507-.5625,1.0938 .5972-.045 .5229-.2068 1.0312,0-.2961-.2315-.0013-1.0347-.4688-1.3125l-.2188-.0312zm1.3438,0c-.3775,.1209-.5077-.0296-.4375,.6875-.1681,.6454 .3356,.9002 .2188,.125-.0363-1.1003 .491-.3311 .3125,.3125 .2081,.7199 .1769-.6001 .25-.8438 .4974-.3278 .0578,.9336 .3125,1.0625 .2427-.1414 .3064-1.3443-.2188-1.3438-.3897,.4952 .0045,.037-.4375,0zm3.1875,0c-1.203,.2606 .1867,.7635 .3125,1.0938-.3647,.2915-1.2688-.363-.5,.25 1.1882,.1158 .5176-.8541-.0938-1 .2345-.3698 1.3908,.2365 .2812-.3438zm2.9062,0c-1.2668,.5285 .1705,1.5856 .4062,1.2812 .0942,.8533-1.3383-.2004-.5,.5625 .9516,.1939 .6817-.9547 .7188-1.5312-.0565-.774-.2866,.328-.625-.3125zm1.4062,0c-.3775,.1209-.5077-.0296-.4375,.6875-.1681,.6454 .3356,.9002 .2188,.125-.0386-1.1003 .4849-.33 .3125,.3125 .2081,.7199 .1769-.6001 .25-.8438 .4974-.3278 .0578,.9336 .3125,1.0625 .2427-.1414 .3064-1.3443-.2188-1.3438-.3621,.386-.0053,.1516-.4375,0zm1.6562,0c-.8722,.3886-.2512,.2602 .2188,.25 .2624,.4945-1.442,.3095-.5625,1.0938 .5846-.058 .5301-.1967 1.0312,0-.2961-.2315-.0013-1.0347-.4688-1.3125l-.2188-.0312zm6.0312,0c-1.3853,.1385-.0087,2.3149 .5625,.9375-.5659,.6522-1.4616-.3556-.5625-.7812 .3288,.3264 .8562,.301 .2188-.125l-.2188-.0312zm1.5,0c-1.4556,.1407 .0732,2.3325 .5625,.8438 .091-.3752-.0822-.9104-.5625-.8438zm1.3125,0c-.3994,.1123-.5073-.0168-.4375,.6875-.147,.6301 .2941,.9002 .1875,.125 .0227-1.0982 .4718-.3257 .3125,.3125 .2093,.7254 .2537-.5648 .25-.8438 .5494-.3516 .0822,.9257 .3438,1.0625 .2427-.1414 .3064-1.3443-.2188-1.3438-.3958,.3618 .0218,.1692-.4375,0zm-57.3125,.0312c.0447,.4222-.11,.9215 .1562,1.2812 .4611,.255 .6368-.3367 .7812,.0312 .2696-.0488 .0506-.5997 .125-.8438 .1455-.2966-.2027-.7631-.2188-.2812 .0944,.4094-.1233,1.357-.5938,.8125-.1014-.3072 .0419-.7716-.0938-1h-.1562zm7.875,0c-.1769,.4192 .4307,.4776 .2812,.0312 .0073-.0906-.2166-.0069-.2812-.0312zm4.1875,0c-.0588,.3474 .627-.0407 .4062,.4688-.0608,.2453 .183,.7832-.25,.6562-.5238-.0531-.1661,.328 .1875,.1875 .2254-.0796 .7699,.1687 .75-.1562-.2695-.0336-.6163,.0131-.4688-.4375-.0766-.231 .2021-.8008-.1875-.7188h-.4375zm4.4375,0c.0216,.3863-.0551,.7873 .0312,1.1562 .3762,.478 .7936-.238 .9062,.1562 .2696-.0488 .0506-.5997 .125-.8438 .1565-.3194-.2232-.7597-.25-.2812 .0248,.3854 .058,1.2238-.5312,.9062-.1246-.3332-.0354-.7311-.0625-1.0938h-.2188zm13.5625,0c.2878,.1693 .497,.4208 .375,1-.3403,.1474-.8046,.342 .0312,.3125 .546,.1495 .9575-.2703 .1875-.1875-.1139-.363 .2722-1.2329-.3125-1.125h-.2812zm2.9062,0c-.0647,.5389-.034,1.7549 .7812,1.1875 .2119,.2981 .367-.122 .2812-.625 .1451-.7418-.3733-.6255-.2188,.0625-.094,1.1125-.9001,.2001-.625-.4688 .0551-.2408-.0542-.1348-.2188-.1562zm3.0938,0c.2196,.2284 .7283,.1675 .5,.8438 .3423,.766-.7184,.7019-.5938,.9688 .8988,.2476 .8499-.7772 .8125-1.375 .1343-.6607-.2681-.3738-.7188-.4375zm13.4688,0c.2656,.1766 .5648,.3055 .4062,.9062-.0727,.2976-1.0084,.3524-.0625,.4062 .5079,.1424 1.1375-.2361 .2812-.1875-.1341-.3207 .2631-1.152-.2188-1.125h-.4062zm-5.5,.0938c.5897,.4158-.5279,1.5645-.25,.3438 .0184-.1558 .0908-.2973 .25-.3438zm-39.125,.0312c.0358-.0146 .0795-.0065 .125,0 1.1256,.5536-.675,1.7121-.3438,.2812 .0471-.1015 .1112-.2375 .2188-.2812zm10.625,0c.7262,.3237 .0547,.5004-.375,.4062-.0308-.2293 .1674-.3897 .375-.4062zm16.4688,0c1.2006,.4197-1.0108,.6754-.0938,.0312l.0938-.0312zm9,0c1.1464,.5256-1.1349,.557 0,0zm4.3438,0c.0353-.0138 .0824-.0071 .125,0 1.0769,.5021-.6004,1.7182-.3125,.2812 .0189-.1082 .0815-.24 .1875-.2812zm10.6562,0c.9849,.2785-.2834,1.8181-.375,.5312-.0117-.2326 .0809-.5521 .375-.5312zm-31.4688,.5312c.83,.1147-.8426,.9506-.25,.0625l.125-.0312 .125-.0312zm13.5,0c.8053,.1143-.8199,.9514-.2812,.0625l.125-.0312 .1562-.0312zm10.4688,0c.8763,.028-.7991,1.0215-.25,.0625l.125-.0312 .125-.0312zm-40.625,.2812c-.1949,.3821 .3818,.572 .2812,.125 .0681-.2102-.1701-.0942-.2812-.125zm27,0c-.1164,.9956 .7654-.112 0,0zm17.9688,0c-.1164,.9956 .7654-.112 0,0z"/>
<path d="m15.1562,23.5312c-.3438,.6146-.6875,1.2292-1.0312,1.8438 .4329,.096 .4313-.5272 .6569-.7744 .1873-.3565 .3746-.7129 .5619-1.0694-.0625,0-.125,0-.1875,0zm1.4688,0c-.3333,.6146-.6667,1.2292-1,1.8438 .4329,.096 .4313-.5272 .6569-.7744 .1873-.3565 .3746-.7129 .5619-1.0694-.0729,0-.1458,0-.2188,0zm4.0312,0c-.1007,.6284 .6284-.1006 .0001,0h-.0001zm9.375,0c.0693,.6801 .005,.6142-.6141,.5114-.7652,.5727 .157,1.7646 .6453,1.1449 .2242,.5059 .2176-.3054 .1875-.5624-.0439-.3416 .0865-.8574-.0625-1.0939-.0521,0-.1042,0-.1563,0zm6,0c.0693,.6801 .005,.6142-.6141,.5114-.8578,.795 .351,1.5029 .6453,1.2699 .378,.1889 .1058-.5519 .1875-.8124-.0947-.2907 .2083-.9792-.1875-.9689h-.0313zm-17.25,.1562c0,.5521 0,1.1042 0,1.6562 .3283-.0467 .8403,.0904 1.0625-.0625 .0095-.3637-.822,.1136-.8125-.25 0-.4479 0-.8959 0-1.3438-.0833,0-.1667,0-.25,0zm23,0c-1.1678-.05-.6798,2.3315 .4375,1.5625 .1521-.2355 .2482-.9913-.2812-.7812-.6047,.1722 .392,.1272 .1562,.5312-.6598,.8493-1.1961-1.5099-.0938-1.0624 .4545,.6211 .373-.365-.2188-.25zm.9062,0c0,.5521 0,1.1042 0,1.6562 .5182,.1536-.0922-.8214 .4687-.625 1.0378,.1311 .684-1.3701-.2186-1.0312-.0834,0-.1667,0-.2501,0zm1.5938,0c0,.5521 0,1.1042 0,1.6562 .3076-.0778 .9303,.1595 1.0312-.125-.1109-.2432-.8964,.1881-.8125-.25 0-.4271 0-.8542 0-1.2813-.0729,0-.1458,0-.2188,0zm-1.375,.1875c.8285-.2166 .8735,.881 .0001,.6562-.0002-.2186-0-.4375-.0001-.6562zm-20.625,.125c-1.4965,.1332 .0873,2.3373 .4688,.9375-.799,.9669-1.2557-1.2084-.2197-.6213 .5565,.4182 .1452-.4319-.249-.3162zm1.4688,0c-1.4262,.152 .0239,2.1996 .472,1.0427-.2254,.3177-1.221-.0297-.6595-.324 .5715,.1436 1.1727-.1243 .4688-.6562l-.1281-.0441-.1532-.0184zm1.5938,0c-.4438,.2902-.3164,.0597-.625,.0625 0,.4271 0,.8542 0,1.2812 .4987,.0397 .0139-.785 .3125-1.0625 .669-.4176 .5248,.6379 .5312,1.031 .4003,.1733 .1498-.58 .2188-.8433 .041-.2465-.1917-.4916-.4375-.469zm1.4062,0c-1.3648,.1232-.0549,2.3476 .5625,.9375-.4948,.4521-1.3393,.0353-.75-.7188 .2592-.2228 1.0213,.5967 .5625-.0938l-.1562-.0938-.2188-.0312zm1.5,0c-1.2959,.0582-.2186,2.2068 .5312,1.0625-.2695,.1004-1.1571,.1983-.7813-.3438 .4736,.0467 1.2397,.0742 .6042-.6041-.1105-.0562-.225-.1201-.3541-.1147zm6.0938,0c-.4402,.2896-.329,.0607-.625,.0625 0,.4271 0,.8542 0,1.2812 .4987,.0397 .0139-.785 .3125-1.0625 .6624-.4095 .5286,.6387 .5312,1.031 .4003,.1733 .1498-.58 .2188-.8433 .041-.2465-.1917-.4916-.4375-.469zm2.9062,0c-1.3062,.0373-.2184,2.2143 .5312,1.0625-.2695,.1004-1.1571,.1983-.7813-.3438 .4736,.0467 1.2396,.0742 .6042-.6041-.1105-.0562-.225-.1201-.3541-.1147zm1.75,0c-.4421,.0922-.3993,.4602-.5625,.0312-.3046,.0841 .0134,.8521-.0938,1.2186 .3977,.3824 .0744-.7091 .3438-.9061 .1587-.1739 1.0629-.1834 .3125-.3438zm-18.7188,.0312c.1406,.2344 .6067,.1432 .4062,.7186 .2714,.6464-.565,.1851-.5312,.5938 .4062,.0001 .8125,0 1.2188,0 .0211-.3857-.7364,.0073-.4688-.6249 .0074-.3824 .12-.87-.4374-.6876-.0625,0-.1251,0-.1876,0zm11.9375,0c.07,.4524-.2282,1.2474 .4062,1.3438 .4987-.2816 .3141-.0532 .6562-.0625 0-.4271 0-.8542 0-1.2812-.4987-.0397-.0139,.785-.3125,1.0625-.7082,.4143-.5078-.6179-.5312-1.031 .0101-.0768-.1688-.0087-.2188-.0315zm-8.4688,.125c1.1216,.3511-.8237,.7211-.2188,.0938l.0938-.0625 .125-.0312zm4.5,0c1.0991,.3339-.7663,.7374-.25,.0938l.125-.0625 .125-.0312zm1.4375,0c1.1361,.4916-.5883,1.749-.2812,.2812 .0245-.1332 .1249-.291 .2812-.2812zm6,0c1.1237,.5092-.5928,1.7351-.2812,.2812 .0245-.1332 .1249-.291 .2812-.2812zm1.5625,0c1.1684,.447-1.0598,.6564-.125,.0312l.125-.0312z"/>
</g>
</g>
</svg>
