<svg width="96" version="1.0" xmlns="http://www.w3.org/2000/svg" height="96" xmlns:xlink="http://www.w3.org/1999/xlink">
<defs id="defs2410">
<clipPath id="clipPath3613">
<rect width="84" x="6" y="6" rx="6" height="84" ry="6" style="fill:#fff;stroke:none" id="rect3615"/>
</clipPath>
<filter style="color-interpolation-filters:sRGB" id="filter3174">
<feGaussianBlur stdDeviation="1.71" id="feGaussianBlur3176"/>
</filter>
<filter width="1.3839999" x="-0.192" y="-0.192" height="1.3839999" style="color-interpolation-filters:sRGB" id="filter3794">
<feGaussianBlur stdDeviation="5.28" id="feGaussianBlur3796"/>
</filter>
<linearGradient gradientTransform="matrix(1.0238095,0,0,1.0119048,-1.1428571,-98.071429)" id="linearGradient3772" xlink:href="#ButtonShadow-0" y1="6.1317081" x1="32.251034" y2="90.238609" x2="32.251034" gradientUnits="userSpaceOnUse"/>
<linearGradient gradientTransform="matrix(1.0238095,0,0,1.0119048,-1.1428571,-98.071429)" id="linearGradient3725" xlink:href="#ButtonShadow-0" y1="6.1317081" x1="32.251034" y2="90.238609" x2="32.251034" gradientUnits="userSpaceOnUse"/>
<linearGradient gradientTransform="translate(0,-97)" id="linearGradient3721" xlink:href="#ButtonShadow-0" y1="6.1317081" x1="32.251034" y2="90.238609" x2="32.251034" gradientUnits="userSpaceOnUse"/>
<linearGradient gradientTransform="matrix(0.94249199,0,0,0.94249199,-97.239616,0.875402)" id="linearGradient3736" xlink:href="#StandardGradient-3" y1="16" x1="56" y2="80" x2="56" gradientUnits="userSpaceOnUse"/>
<linearGradient gradientTransform="matrix(1.0238095,0,0,1.0119048,-1.1428571,-98.071429)" id="linearGradient3780" xlink:href="#ButtonShadow-0" y1="6.1317081" x1="32.251034" y2="90.238609" x2="32.251034" gradientUnits="userSpaceOnUse"/>
<linearGradient gradientTransform="scale(0.9219544,1.0846523)" id="StandardGradient-3" y1="0.92195445" x1="11.998966" y2="19.387045" x2="11.998966" gradientUnits="userSpaceOnUse">
<stop offset="0" style="stop-opacity:.863" id="stop3283-5"/>
<stop offset="1" style="stop-opacity:.471" id="stop2651-2"/>
</linearGradient>
<linearGradient gradientTransform="matrix(1.0238095,0,0,1.0119048,-1.1428571,-98.071429)" id="linearGradient3026" xlink:href="#ButtonShadow-0" y1="6.1317081" x1="32.251034" y2="90.238609" x2="32.251034" gradientUnits="userSpaceOnUse"/>
<linearGradient gradientTransform="scale(0.9219544,1.0846523)" id="StandardGradient" y1="0.92195445" x1="11.998966" y2="19.387045" x2="11.998966" gradientUnits="userSpaceOnUse">
<stop offset="0" style="stop-opacity:.863" id="stop3283"/>
<stop offset="1" style="stop-opacity:.471" id="stop2651"/>
</linearGradient>
<linearGradient gradientTransform="matrix(1.0058652,0,0,0.994169,100,0)" id="ButtonShadow-0" y1="92.539597" x1="45.447727" y2="7.0165396" x2="45.447727" gradientUnits="userSpaceOnUse">
<stop offset="0" id="stop3750-8"/>
<stop offset="1" style="stop-opacity:.588" id="stop3752-5"/>
</linearGradient>
<linearGradient gradientTransform="scale(1.0058652,0.994169)" id="ButtonShadow" y1="92.539597" x1="45.447727" y2="7.0165396" x2="45.447727" gradientUnits="userSpaceOnUse">
<stop offset="0" id="stop3750"/>
<stop offset="1" style="stop-opacity:.588" id="stop3752"/>
</linearGradient>
<linearGradient id="linearGradient3737">
<stop offset="0" style="stop-color:#fff" id="stop3739"/>
<stop offset="1" style="stop-color:#fff;stop-opacity:0" id="stop3741"/>
</linearGradient>
<linearGradient id="linearGradient3829" xlink:href="#StandardGradient" y1="20" x1="49" y2="76" x2="49" gradientUnits="userSpaceOnUse"/>
<linearGradient id="linearGradient3700">
<stop offset="0" style="stop-color:#bebebe" id="stop3702"/>
<stop offset="1" style="stop-color:#dcdcdc" id="stop3704"/>
</linearGradient>
<linearGradient id="linearGradient3188" xlink:href="#linearGradient3737" y1="6" x1="36.357143" y2="63.893143" x2="36.357143" gradientUnits="userSpaceOnUse"/>
<linearGradient id="linearGradient3617" xlink:href="#linearGradient3700" y1="90" x1="48" y2="5.9877172" x2="48" gradientUnits="userSpaceOnUse"/>
<linearGradient id="linearGradient3613" xlink:href="#linearGradient3737" y1="20.220806" x1="48" y2="138.66119" x2="48" gradientUnits="userSpaceOnUse"/>
<radialGradient fx="48" fy="90.171875" cx="48" cy="90.171875" gradientTransform="matrix(1.1573129,0,0,0.99590774,-7.5510206,0.19713193)" r="42" id="radialGradient3619" xlink:href="#linearGradient3737" gradientUnits="userSpaceOnUse"/>
</defs>
<g style="display:none" id="layer2">
<rect width="86" x="5" y="7" rx="6" height="85" ry="6" style="opacity:.9;fill:url(#ButtonShadow);filter:url(#filter3174);stroke:none" id="rect3745"/>
</g>
<g style="stroke:none" id="layer3">
<path style="opacity:.08;fill:url(#linearGradient3026)" id="path3786" d="m 12,-95.0312 c -5.51109,0 -10.0312,4.52016 -10.0312,10.0312 v 71 c 0,5.51109 4.52016,10.0312 10.0312,10.0312 h 72 c 5.51109,0 10.0312,-4.52016 10.0312,-10.0312 v -71 c 0,-5.51109 -4.52016,-10.0312 -10.0312,-10.0312 h -72 z " transform="scale(1,-1)"/>
<path style="opacity:.1;fill:url(#linearGradient3780)" id="path3778" d="m 12,-94.0312 c -4.97163,0 -9.03125,4.05962 -9.03125,9.03125 v 71 c 0,4.97163 4.05962,9.03125 9.03125,9.03125 h 72 c 4.97163,0 9.03125,-4.05962 9.03125,-9.03125 v -71 c 0,-4.97163 -4.05962,-9.03125 -9.03125,-9.03125 h -72 z " transform="scale(1,-1)"/>
<path style="opacity:.2;fill:url(#linearGradient3772)" id="path3770" d="m 12,-93 c -4.40913,0 -8,3.59087 -8,8 v 71 c 0,4.40913 3.59087,8 8,8 h 72 c 4.40913,0 8,-3.59087 8,-8 v -71 c 0,-4.40913 -3.59087,-8 -8,-8 h -72 z " transform="scale(1,-1)"/>
<rect width="86" x="5" y="-92" rx="7" height="85" ry="7" style="opacity:.3;fill:url(#linearGradient3725)" id="rect3723" transform="scale(1,-1)"/>
<rect width="84" x="6" y="-91" rx="6" height="84" ry="6" style="opacity:.45;fill:url(#linearGradient3721)" id="rect3716" transform="scale(1,-1)"/>
</g>
<g style="stroke:none" id="layer1">
<rect width="84" x="6" y="6" rx="6" height="84" ry="6" style="fill:url(#linearGradient3617)" id="rect2419"/>
<path style="opacity:.5;fill:url(#linearGradient3188)" id="rect3728" d="m 12,6 c -3.324,0 -6,2.676 -6,6 v 2 68 2 c 0,0.334721 0.04135,0.6507 0.09375,0.96875 0.0487,0.295596 0.09704,0.596915 0.1875,0.875 0.00988,0.03038 0.020892,0.0636 0.03125,0.09375 0.098865,0.287771 0.23488,0.547452 0.375,0.8125 0.144592,0.273507 0.315616,0.535615 0.5,0.78125 0.184384,0.245635 0.373776,0.473472 0.59375,0.6875 0.439947,0.428056 0.94291,0.814526 1.5,1.09375 0.278545,0.139612 0.573473,0.246947 0.875,0.34375 -0.256202,-0.100222 -0.486711,-0.236272 -0.71875,-0.375 -0.00741,-0.0044 -0.023866,0.0045 -0.03125,0 -0.031933,-0.0193 -0.062293,-0.04251 -0.09375,-0.0625 -0.120395,-0.0767 -0.231023,-0.163513 -0.34375,-0.25 -0.106173,-0.0808 -0.213281,-0.161112 -0.3125,-0.25 -0.17793,-0.161433 -0.34746,-0.345388 -0.5,-0.53125 -0.107579,-0.130255 -0.218394,-0.265285 -0.3125,-0.40625 -0.025089,-0.03838 -0.038446,-0.08587 -0.0625,-0.125 -0.064763,-0.103032 -0.130228,-0.204517 -0.1875,-0.3125 -0.101008,-0.194706 -0.205675,-0.415701 -0.28125,-0.625 -0.00796,-0.02181 -0.023589,-0.04055 -0.03125,-0.0625 -0.0318251,-0.09195 -0.0358045,-0.186831 -0.0625,-0.28125 -0.0303323,-0.106618 -0.0703894,-0.203031 -0.09375,-0.3125 -0.0728786,-0.341512 -0.125,-0.698205 -0.125,-1.0625 v -2 -68 -2 c 0,-2.78185 2.21815,-5 5,-5 h 2 68 2 c 2.78185,0 5,2.21815 5,5 v 2 68 2 c 0,0.364295 -0.05212,0.720988 -0.125,1.0625 -0.04415,0.206893 -0.08838,0.397658 -0.15625,0.59375 -0.0077,0.02195 -0.0233,0.04069 -0.03125,0.0625 -0.06274,0.173739 -0.138383,0.367449 -0.21875,0.53125 -0.04158,0.0828 -0.07904,0.169954 -0.125,0.25 -0.0546,0.09721 -0.126774,0.18835 -0.1875,0.28125 -0.09411,0.140965 -0.204921,0.275995 -0.3125,0.40625 -0.143174,0.17445 -0.303141,0.346998 -0.46875,0.5 -0.01117,0.0102 -0.01998,0.02115 -0.03125,0.03125 -0.138386,0.125556 -0.285091,0.234436 -0.4375,0.34375 -0.102571,0.07315 -0.204318,0.153364 -0.3125,0.21875 -0.0074,0.0045 -0.02384,-0.0044 -0.03125,0 -0.232039,0.138728 -0.462548,0.274778 -0.71875,0.375 0.301527,-0.0968 0.596455,-0.204138 0.875,-0.34375 0.55709,-0.279224 1.06005,-0.665694 1.5,-1.09375 0.219973,-0.214028 0.409366,-0.441865 0.59375,-0.6875 0.184384,-0.245635 0.355408,-0.507743 0.5,-0.78125 0.14012,-0.265048 0.276135,-0.524729 0.375,-0.8125 0.01041,-0.03078 0.02133,-0.06274 0.03125,-0.09375 0.09046,-0.278085 0.1388,-0.579404 0.1875,-0.875 0.0524,-0.31805 0.09375,-0.634029 0.09375,-0.96875 v -2 -68 -2 c 0,-3.324 -2.676,-6 -6,-6 h -72 z "/>
<path style="opacity:.2;fill:url(#radialGradient3619)" id="path3615" d="M 12,90 C 8.676,90 6,87.324 6,84 L 6,82 6,14 6,12 c 0,-0.334721 0.04135,-0.6507 0.09375,-0.96875 0.0487,-0.295596 0.09704,-0.596915 0.1875,-0.875 C 6.29113,10.12587 6.302142,10.09265 6.3125,10.0625 6.411365,9.774729 6.5473802,9.515048 6.6875,9.25 6.8320918,8.976493 7.0031161,8.714385 7.1875,8.46875 7.3718839,8.223115 7.5612765,7.995278 7.78125,7.78125 8.221197,7.353194 8.72416,6.966724 9.28125,6.6875 9.559795,6.547888 9.8547231,6.440553 10.15625,6.34375 9.9000482,6.443972 9.6695391,6.580022 9.4375,6.71875 c -0.00741,0.0044 -0.023866,-0.0045 -0.03125,0 -0.031933,0.0193 -0.062293,0.04251 -0.09375,0.0625 -0.120395,0.0767 -0.2310226,0.163513 -0.34375,0.25 -0.1061728,0.0808 -0.2132809,0.161112 -0.3125,0.25 C 8.4783201,7.442683 8.3087904,7.626638 8.15625,7.8125 8.0486711,7.942755 7.9378561,8.077785 7.84375,8.21875 7.818661,8.25713 7.805304,8.30462 7.78125,8.34375 7.716487,8.446782 7.6510225,8.548267 7.59375,8.65625 7.4927417,8.850956 7.3880752,9.071951 7.3125,9.28125 7.30454,9.30306 7.288911,9.3218 7.28125,9.34375 7.2494249,9.4357 7.2454455,9.530581 7.21875,9.625 7.1884177,9.731618 7.1483606,9.828031 7.125,9.9375 7.0521214,10.279012 7,10.635705 7,11 l 0,2 0,68 0,2 c 0,2.781848 2.2181517,5 5,5 l 2,0 68,0 2,0 c 2.781848,0 5,-2.218152 5,-5 l 0,-2 0,-68 0,-2 C 89,10.635705 88.94788,10.279012 88.875,9.9375 88.83085,9.730607 88.78662,9.539842 88.71875,9.34375 88.71105,9.3218 88.69545,9.30306 88.6875,9.28125 88.62476,9.107511 88.549117,8.913801 88.46875,8.75 88.42717,8.6672 88.38971,8.580046 88.34375,8.5 88.28915,8.40279 88.216976,8.31165 88.15625,8.21875 88.06214,8.077785 87.951329,7.942755 87.84375,7.8125 87.700576,7.63805 87.540609,7.465502 87.375,7.3125 87.36383,7.3023 87.35502,7.29135 87.34375,7.28125 87.205364,7.155694 87.058659,7.046814 86.90625,6.9375 86.803679,6.86435 86.701932,6.784136 86.59375,6.71875 c -0.0074,-0.0045 -0.02384,0.0044 -0.03125,0 -0.232039,-0.138728 -0.462548,-0.274778 -0.71875,-0.375 0.301527,0.0968 0.596455,0.204138 0.875,0.34375 0.55709,0.279224 1.060053,0.665694 1.5,1.09375 0.219973,0.214028 0.409366,0.441865 0.59375,0.6875 0.184384,0.245635 0.355408,0.507743 0.5,0.78125 0.14012,0.265048 0.276135,0.524729 0.375,0.8125 0.01041,0.03078 0.02133,0.06274 0.03125,0.09375 0.09046,0.278085 0.1388,0.579404 0.1875,0.875 C 89.95865,11.3493 90,11.665279 90,12 l 0,2 0,68 0,2 c 0,3.324 -2.676,6 -6,6 l -72,0 z"/>
</g>
<g id="layer5">
<rect width="66" x="15" y="15" rx="12" height="66" ry="12" style="opacity:.1;fill:url(#linearGradient3613);filter:url(#filter3794);stroke:#fff;stroke-linecap:round;stroke-width:.5;clip-path:url(#clipPath3613)" id="rect3171"/>
</g>
<g style="stroke:none" id="layer4">
<path style="fill:url(#linearGradient3736)" id="path3798" d="m -52,16.0001 c -6.57808,0 -11.9107,4.93347 -11.9107,11.0192 0.01598,0.697437 0.0261,1.49376 0.09926,2.36126 -1.04103,0.550102 -1.17673,2.70136 -0.24814,4.8701 0.358069,0.836275 0.846451,1.51578 1.33995,2.0661 0.01645,0.0184 0.03308,0.0312 0.04963,0.04913 0.117798,0.573005 0.204935,1.02622 0.347397,1.67256 0.441331,1.3124 2.26503,3.781 3.87097,5.90315 0.160151,1.63709 0.173325,3.25391 -0.148893,5.11607 -4.62243,3.80143 -16.4445,5.50961 -16.4268,9.44505 l -1.5881,10.2321 c 0,2.09638 3.15937,4.01584 8.18859,5.31284 l .6948,2.804 a 1.72959,1.71443 0 0,0 1.09181,1.13144 c 0.223226,0.08562 0.380762,0.266676 0.992554,0.442732 3.22275,0.927443 8.12994,1.57417 13.6476,1.57417 5.51771,0 10.4745,-0.646726 13.6973,-1.57417 0.611792,-0.176056 0.769331,-0.357156 0.992554,-0.442732 a 1.72959,1.71443 0 0,0 1.04219,-1.08225 l .8437,-2.9516 c 4.90634,-1.29494 8.0397,-3.14759 8.0397,-5.21445 l -1.5881,-10.2321 c -0.01886,-3.36821 -11.9107,-5.50961 -16.4764,-9.44505 -0.18486,-1.50749 -0.193385,-2.99175 -0.09928,-4.47655 1.4601,-2.23255 3.38238,-5.08976 3.87097,-6.54267 0.179567,-0.752422 0.257562,-1.27243 0.397022,-1.91853 0.431165,-0.522382 0.823158,-1.12597 1.14144,-1.86933 0.881833,-2.05953 0.799501,-4.05383 -0.09926,-4.72252 0.0628,-0.894886 0.122622,-1.74401 0.148877,-2.50884 9e-06,-6.08575 -5.33258,-11.0192 -11.9107,-11.0192 z "/>
<path style="opacity:.1" id="path3698" d="m -62,16 c -6.57808,0 -11.9062,4.9455 -11.9062,11.0312 0.01598,0.697437 0.02059,1.47625 0.09375,2.34375 -1.04103,0.550102 -1.17859,2.70627 -0.25,4.875 0.358069,0.836275 0.85025,1.51217 1.34375,2.0625 0.01645,0.0184 0.04595,0.04457 0.0625,0.0625 0.117798,0.573005 0.201288,1.00991 0.34375,1.65625 0.441331,1.3124 2.26906,3.7841 3.875,5.90625 0.160151,1.63709 0.165968,3.26284 -0.15625,5.125 -4.62243,3.80143 -16.4552,5.50206 -16.4375,9.4375 l -1.5938,10.25 c 0,2.09638 3.15828,4.0155 8.1875,5.3125 l .7188,2.7812 a 1.72959,1.71443 0 0,0 1.09375,1.125 c 0.223226,0.08562 0.356958,0.292694 0.96875,0.46875 3.22275,0.927443 8.13854,1.5625 13.6562,1.5625 5.51771,0 10.4648,-0.635057 13.6875,-1.5625 0.611792,-0.176056 0.776777,-0.383174 1,-0.46875 a 1.72959,1.71443 0 0,0 1.03125,-1.0625 l .8438,-2.9688 c 4.90634,-1.29494 8.0625,-3.12064 8.0625,-5.1875 l -1.5938,-10.25 c -0.01886,-3.36821 -11.903,-5.50205 -16.4688,-9.4375 -0.18486,-1.50749 -0.219105,-2.98395 -0.125,-4.46875 1.4601,-2.23255 3.38642,-5.10959 3.875,-6.5625 0.179567,-0.752422 0.26679,-1.26016 0.40625,-1.90625 0.431165,-0.522382 0.837969,-1.13164 1.15625,-1.875 0.881833,-2.05953 0.773761,-4.05006 -0.125,-4.71875 0.0628,-0.894886 0.129995,-1.73517 0.15625,-2.5 9e-06,-6.08575 -5.32817,-11.0312 -11.9062,-11.0312 z  m 0,1.9375 c 5.58906,0 9.93199,4.09755 9.96875,9.03125 0.000156,0.02098 0,0.04149 0,0.0625 -0.02545,0.688779 -0.063,1.49158 -0.125,2.375 a 1.92606,1.92606 0 0,0 0.625,1.5625 c -0.04866,-0.03591 0.081,0.101771 0.09375,0.46875 0.017,0.489306 -0.127404,1.26528 -0.46875,2.0625 -0.234439,0.54754 -0.533235,0.992182 -0.875,1.40625 a 1.92606,1.92606 0 0,0 -0.375,0.8125 c -0.13846,0.641458 -0.229377,1.1236 -0.375,1.75 -0.140365,0.390152 -0.691849,1.41967 -1.375,2.53125 -0.699714,1.13853 -1.54627,2.40743 -2.28125,3.53125 a 1.92606,1.92606 0 0,0 -0.3125,0.9375 c -0.101068,1.59466 -0.0436,3.21399 0.15625,4.84375 a 1.92606,1.92606 0 0,0 0.65625,1.21875 c 2.7784,2.39484 6.97095,3.82248 10.4688,5.25 1.7489,0.71376 3.32578,1.38944 4.3125,2 0.493358,0.305281 0.830394,0.621172 0.96875,0.78125 0.02661,0.03078 0.02025,0.01685 0.03125,0.03125 0.0028,0.0078 -0.0026,0.02524 0,0.03125 a 1.92606,1.92606 0 0,0 0.03125,0.15625 l 1.5625,9.9688 c 0,0.05314 -0.146787,0.540805 -1.28125,1.25 -1.13446,0.709195 -3.00798,1.44602 -5.34375,2.0625 a 1.92606,1.92606 0 0,0 -1.34375,1.34375 l -.7812,2.7812 c -0.668375,0.271611 -0.489908,0.32241 -0.78125,0.40625 -2.94392,0.847202 -7.78631,1.46875 -13.1562,1.46875 -5.36994,0 -10.1779,-0.620633 -13.125,-1.46875 -0.28413,-0.08176 0.01006,-0.09166 -0.78125,-0.40625 l -.6562,-2.5938 a 1.92606,1.92606 0 0,0 -1.40625,-1.40625 c -2.38659,-0.615483 -4.25979,-1.36302 -5.40625,-2.09375 -1.14646,-0.730733 -1.3125,-1.26269 -1.3125,-1.34375 l 1.5625,-9.9688 a 1.92606,1.92606 0 0,0 0.03125,-0.28125 c -8.2e-05,-0.01817 0.08294,-0.37888 1.03125,-1 0.948312,-0.62112 2.48774,-1.28675 4.21875,-1.96875 3.46202,-1.36399 7.64368,-2.64544 10.4688,-4.96875 a 1.92606,1.92606 0 0,0 0.6875,-1.15625 c 0.354991,-2.05156 0.32799,-3.9007 0.15625,-5.65625 a 1.92606,1.92606 0 0,0 -0.375,-0.96875 c -0.798009,-1.05452 -1.63581,-2.19336 -2.3125,-3.1875 -0.66528,-0.97737 -1.15615,-1.89607 -1.25,-2.15625 -0.0016,-0.0045 -0.02988,-0.02718 -0.03125,-0.03125 -0.106616,-0.495817 -0.177182,-0.900034 -0.28125,-1.40625 a 1.92606,1.92606 0 0,0 -0.46875,-0.9375 c -0.156701,-0.169767 -0.172559,-0.18931 -0.03125,-0.03125 -0.395143,-0.440643 -0.745486,-0.936828 -1,-1.53125 -0.359852,-0.840442 -0.496566,-1.68285 -0.46875,-2.1875 0.01391,-0.252326 0.05994,-0.355372 0.0625,-0.375 a 1.92606,1.92606 0 0,0 0.78125,-1.71875 c -0.06469,-0.767115 -0.04649,-1.47574 -0.0625,-2.1875 0,-0.0105 -3.9e-05,-0.02075 0,-0.03125 0.01844,-4.94769 4.36781,-9.0625 9.96875,-9.0625 z "/>
<path style="opacity:.15" id="path3691" d="m -62,16 c -6.57808,0 -11.9062,4.9455 -11.9062,11.0312 0.01598,0.697437 0.02059,1.47625 0.09375,2.34375 -1.04103,0.550102 -1.17859,2.70627 -0.25,4.875 0.358069,0.836275 0.85025,1.51217 1.34375,2.0625 0.01645,0.0184 0.04595,0.04457 0.0625,0.0625 0.117798,0.573005 0.201288,1.00991 0.34375,1.65625 0.441331,1.3124 2.26906,3.7841 3.875,5.90625 0.160151,1.63709 0.165968,3.26284 -0.15625,5.125 -4.62243,3.80143 -16.4552,5.50206 -16.4375,9.4375 l -1.5938,10.25 c 0,2.09638 3.15828,4.0155 8.1875,5.3125 l .7188,2.7812 a 1.72959,1.71443 0 0,0 1.09375,1.125 c 0.223226,0.08562 0.356958,0.292694 0.96875,0.46875 3.22275,0.927443 8.13854,1.5625 13.6562,1.5625 5.51771,0 10.4648,-0.635057 13.6875,-1.5625 0.611792,-0.176056 0.776777,-0.383174 1,-0.46875 a 1.72959,1.71443 0 0,0 1.03125,-1.0625 l .8438,-2.9688 c 4.90634,-1.29494 8.0625,-3.12064 8.0625,-5.1875 l -1.5938,-10.25 c -0.01886,-3.36821 -11.903,-5.50205 -16.4688,-9.4375 -0.18486,-1.50749 -0.219105,-2.98395 -0.125,-4.46875 1.4601,-2.23255 3.38642,-5.10959 3.875,-6.5625 0.179567,-0.752422 0.26679,-1.26016 0.40625,-1.90625 0.431165,-0.522382 0.837969,-1.13164 1.15625,-1.875 0.881833,-2.05953 0.773761,-4.05006 -0.125,-4.71875 0.0628,-0.894886 0.129995,-1.73517 0.15625,-2.5 9e-06,-6.08575 -5.32817,-11.0312 -11.9062,-11.0312 z  m 0,1.0625 c 6.03942,0 10.8253,4.47973 10.8438,9.9375 3.6e-05,0.01053 0,0.02072 0,0.03125 -0.02575,0.723069 -0.0938,1.54758 -0.15625,2.4375 a 1.05159,1.05159 0 0,0 0.4375,0.90625 c 0.0647,0.04813 0.289992,0.383332 0.3125,1.03125 0.02251,0.647918 -0.144697,1.5347 -0.53125,2.4375 -0.272505,0.636444 -0.617646,1.16176 -1,1.625 a 1.05159,1.05159 0 0,0 -0.21875,0.4375 c -0.136962,0.634517 -0.219439,1.11644 -0.375,1.78125 -0.0084,0.03588 -0.02241,0.05671 -0.03125,0.09375 -0.196607,0.546091 -0.748278,1.56604 -1.4375,2.6875 -0.711269,1.15733 -1.54851,2.44211 -2.28125,3.5625 a 1.05159,1.05159 0 0,0 -0.1875,0.5 c -0.09791,1.54478 -0.0368,3.082 0.15625,4.65625 a 1.05159,1.05159 0 0,0 0.34375,0.65625 c 2.55343,2.20092 6.69992,3.6889 10.2188,5.125 1.75941,0.71805 3.35934,1.4266 4.4375,2.09375 0.539081,0.333574 0.959556,0.642518 1.1875,0.90625 0.227944,0.263732 0.249372,0.419065 0.25,0.53125 a 1.05159,1.05159 0 0,0 0.03125,0.15625 l 1.5625,10.0938 c 0,0.498211 -0.43142,1.21478 -1.6875,2 -1.25608,0.785222 -3.20468,1.5257 -5.59375,2.15625 a 1.05159,1.05159 0 0,0 -0.71875,0.75 l -.8125,2.9062 -.0312,.0312 c -0.0095,0.02386 -0.0015,0.03464 0,0.03125 0.0015,-0.0034 -0.0204,-0.02329 -0.03125,0 -0.0217,0.04658 0.02427,0.01721 0,0.0625 -0.02427,0.04529 -0.0045,-0.01261 -0.03125,0.03125 -0.02676,0.04386 -0.0021,-0.01105 -0.03125,0.03125 -0.03147,0.04061 0.0024,-0.0075 -0.03125,0.03125 -0.03367,0.03879 0.0045,-0.0056 -0.03125,0.03125 -0.03578,0.03686 0.0065,-0.0036 -0.03125,0.03125 -0.03776,0.03481 0.0084,-0.0014 -0.03125,0.03125 -0.01982,0.01633 -0.01013,0.03132 0,0.03125 -0.04138,0.03042 0.01175,-0.02808 -0.03125,0 -0.043,0.02808 0.01323,0.0056 -0.03125,0.03125 -0.04448,0.02565 -0.01667,0.0081 -0.0625,0.03125 -0.04583,0.02315 0.01579,-0.02059 -0.03125,0 -0.04704,0.02059 0.01685,-0.01796 -0.03125,0 a 1.05159,1.05159 0 0,0 0,0.03125 c -0.591024,0.226578 -0.456797,0.30816 -0.90625,0.4375 -3.07051,0.883633 -7.96922,1.5 -13.4062,1.5 -5.43703,0 -10.3028,-0.615868 -13.375,-1.5 -0.440352,-0.126721 -0.253603,-0.199159 -0.875,-0.4375 a 1.05159,1.05159 0 0,0 -0.03125,-0.03125 c -0.05173,-0.01761 0.01936,0.02062 -0.03125,0 -0.05061,-0.02062 -0.01318,-0.0077 -0.0625,-0.03125 -0.04932,-0.02356 0.0166,0.02642 -0.03125,0 -0.04785,-0.02642 0.01496,-0.0021 -0.03125,-0.03125 -0.04621,-0.02919 0.01317,0.000613 -0.03125,-0.03125 -0.04442,-0.03186 0.01121,0.0032 -0.03125,-0.03125 -0.02123,-0.01721 -0.03379,-0.0089 -0.03125,0 -0.04036,-0.03688 0.0069,0.008 -0.03125,-0.03125 -0.03811,-0.0392 0.0045,0.01014 -0.03125,-0.03125 0.0086,0.0028 0.01661,-0.0095 0,-0.03125 -0.03322,-0.04344 -0.000663,0.01408 -0.03125,-0.03125 -0.03059,-0.04533 -0.0034,0.01582 -0.03125,-0.03125 -0.02785,-0.04707 0.025,0.01739 0,-0.03125 -0.025,-0.04864 -0.0092,0.0188 -0.03125,-0.03125 -0.01103,-0.02502 -0.0015,-0.0349 0,-0.03125 v -0.03125 c -0.01905,-0.05127 -0.01528,0.02107 -0.03125,-0.03125 l -.6875,-2.7188 a 1.05159,1.05159 0 0,0 -0.78125,-0.78125 c -2.44471,-0.630473 -4.38641,-1.40937 -5.65625,-2.21875 -1.26984,-0.809378 -1.71875,-1.54235 -1.71875,-2.0625 l 1.5625,-10.0938 a 1.05159,1.05159 0 0,0 0.03125,-0.15625 c -0.0021,-0.456611 0.384425,-1.02901 1.4375,-1.71875 1.05308,-0.689737 2.6277,-1.37409 4.375,-2.0625 3.4946,-1.37683 7.62698,-2.71231 10.2188,-4.84375 a 1.05159,1.05159 0 0,0 0.375,-0.625 c 0.340111,-1.96556 0.322728,-3.70448 0.15625,-5.40625 a 1.05159,1.05159 0 0,0 -0.1875,-0.53125 c -0.800261,-1.0575 -1.65064,-2.2005 -2.34375,-3.21875 -0.693105,-1.01825 -1.23055,-1.97669 -1.375,-2.40625 -0.121357,-0.55822 -0.202286,-0.995134 -0.3125,-1.53125 a 1.05159,1.05159 0 0,0 -0.25,-0.5 c -0.02327,-0.02521 -0.04683,-0.0175 -0.0625,-0.03125 -0.439799,-0.49044 -0.85472,-1.07702 -1.15625,-1.78125 -0.407271,-0.951189 -0.568432,-1.91918 -0.53125,-2.59375 0.03718,-0.674565 0.27681,-0.918641 0.3125,-0.9375 a 1.05159,1.05159 0 0,0 0.5625,-1.03125 c -0.0681,-0.807473 -0.07798,-1.54792 -0.09375,-2.25 0,-0.01053 -3.6e-05,-0.02072 0,-0.03125 0.01844,-5.45777 4.80433,-9.9375 10.8438,-9.9375 z "/>
<path style="opacity:.5" id="path3682" d="m -62,16 c -6.57808,0 -11.9062,4.9455 -11.9062,11.0312 0.0048,0.209345 0.02565,0.429835 0.03125,0.65625 0.198701,-5.92469 5.42279,-10.6875 11.875,-10.6875 6.3839,0 11.5729,4.66312 11.875,10.5 0.0071,-0.149119 0.02633,-0.325307 0.03125,-0.46875 9e-06,-6.08575 -5.32817,-11.0312 -11.9062,-11.0312 z  m -11.875,13.4062 c -0.609597,0.370124 -0.873775,1.329 -0.78125,2.5 0.09528,-0.722115 0.387821,-1.29033 0.84375,-1.53125 -0.02837,-0.336398 -0.04907,-0.655372 -0.0625,-0.96875 z  m 23.6875,.1875 c -0.0211,0.320759 -0.03894,0.601831 -0.0625,0.9375 0.407828,0.303432 0.629688,0.893433 0.6875,1.625 0.13658,-1.15474 -0.0914,-2.10582 -0.625,-2.5625 z  m -18.1875,17.1562 c -0.02908,0.735547 -0.0793,1.50658 -0.21875,2.3125 -4.62243,3.80143 -16.4552,5.50206 -16.4375,9.4375 l -1.5938,10.25 c 0,0.173606 0.0199,0.329073 0.0625,0.5 l 1.5312,-9.75 c -0.01772,-3.93544 11.8151,-5.63607 16.4375,-9.4375 0.203424,-1.17562 0.23527,-2.26561 0.21875,-3.3125 z  m 12.7812,.4062 c -0.0082,0.963601 0.03649,1.92961 0.15625,2.90625 4.56576,3.93545 16.4499,6.06929 16.4688,9.4375 l 1.5312,9.75 c 0.0422,-0.168029 0.0625,-0.328838 0.0625,-0.5 l -1.5938,-10.25 c -0.01886,-3.36821 -11.903,-5.50205 -16.4688,-9.4375 -0.07832,-0.638679 -0.135628,-1.2741 -0.15625,-1.90625 z "/>
<path style="opacity:.5;fill:#fff" id="path3705" d="m -40.125,27.5 c -0.03069,0.645974 -0.07398,1.3042 -0.125,2.03125 0.02247,0.01672 0.04105,0.04415 0.0625,0.0625 0.03516,-0.534376 0.07734,-1.08456 0.09375,-1.5625 0,-0.179647 -0.02206,-0.353709 -0.03125,-0.53125 z  m -23.75,.1875 c -0.0039,0.115578 -0.03125,0.227302 -0.03125,0.34375 0.0098,0.426984 0.01005,0.880246 0.03125,1.375 0.0193,-0.01172 0.04253,-0.0207 0.0625,-0.03125 -0.0512,-0.607106 -0.04943,-1.15961 -0.0625,-1.6875 z  m -.7812,4.2812 c -0.106491,0.91862 0.0832,2.08884 0.59375,3.28125 0.358069,0.836275 0.85025,1.51217 1.34375,2.0625 0.01645,0.0184 0.04595,0.04457 0.0625,0.0625 0.117798,0.573005 0.201288,1.00991 0.34375,1.65625 0.441331,1.3124 2.26906,3.7841 3.875,5.90625 0.05904,0.603555 0.05285,1.20114 0.0625,1.8125 0.03812,-0.964003 0.02834,-1.88393 -0.0625,-2.8125 -1.60594,-2.12215 -3.43367,-4.59385 -3.875,-5.90625 -0.142462,-0.646342 -0.225952,-1.08324 -0.34375,-1.65625 -0.01655,-0.01793 -0.04605,-0.0441 -0.0625,-0.0625 -0.4935,-0.550325 -0.985681,-1.22622 -1.34375,-2.0625 -0.338697,-0.791032 -0.530521,-1.57171 -0.59375,-2.28125 z  m 25.0938,.1875 c -0.07751,0.65529 -0.251229,1.36677 -0.5625,2.09375 -0.318281,0.743356 -0.725085,1.35262 -1.15625,1.875 -0.13946,0.646091 -0.226683,1.15383 -0.40625,1.90625 -0.488583,1.45291 -2.4149,4.32995 -3.875,6.5625 -0.0212,0.334536 0.0099,0.665247 0,1 1.4601,-2.23255 3.38642,-5.10959 3.875,-6.5625 0.179567,-0.752422 0.26679,-1.26016 0.40625,-1.90625 0.431165,-0.522382 0.837969,-1.13164 1.15625,-1.875 0.481686,-1.12498 0.632092,-2.21311 0.5625,-3.09375 z  m -37,37.0938 -.0625,.5 c 0,2.09638 3.15828,4.0155 8.1875,5.3125 l .7188,2.7812 a 1.72959,1.71443 0 0,0 1.09375,1.125 c 0.223226,0.08562 0.356958,0.292694 0.96875,0.46875 3.22275,0.927443 8.13854,1.5625 13.6562,1.5625 5.51771,0 10.4648,-0.635057 13.6875,-1.5625 0.611792,-0.176056 0.776777,-0.383174 1,-0.46875 a 1.72959,1.71443 0 0,0 1.03125,-1.0625 l .8438,-2.9688 c 4.90634,-1.29494 8.0625,-3.12064 8.0625,-5.1875 l -.0625,-.5 c -0.467429,1.861 -3.49996,3.49979 -8,4.6875 l -.8438,2.9688 a 1.72959,1.71443 0 0,1 -1.03125,1.0625 c -0.223223,0.08558 -0.388208,0.292694 -1,0.46875 -3.22275,0.927443 -8.16979,1.5625 -13.6875,1.5625 -5.51771,0 -10.4335,-0.635057 -13.6562,-1.5625 -0.611792,-0.176056 -0.745524,-0.38313 -0.96875,-0.46875 a 1.72959,1.71443 0 0,1 -1.09375,-1.125 l -.7188,-2.7812 c -4.61274,-1.18959 -7.65317,-2.9194 -8.125,-4.8125 z "/>
<path style="fill:url(#linearGradient3829)" id="path3159" d="m 48,20 c -8.30148,0 -14.9545,6.25195 -14.9545,14 0.01872,0.825067 0.08037,2.01765 0.159096,3.02273 -1.4196,0.602502 -1.52319,3.36535 -0.318183,6.20454 0.477848,1.12589 1.08645,1.99038 1.75,2.70455 0.161223,0.79793 0.118923,1.15616 0.318179,2.06818 0.556032,1.66809 2.74822,4.93733 4.77273,7.63636 0.198518,2.07281 0.404452,4.16462 0,6.52273 -5.83347,4.83978 -20.8633,6.92143 -20.8409,11.9318 l -.3182,1.9091 h 58.8636 l -.3182,-1.9091 c -0.023916,-4.28821 -15.079,-6.92143 -20.8409,-11.9318 -0.233137,-1.91798 -0.277579,-3.83817 -0.159077,-5.72727 1.84476,-2.84685 4.3125,-6.57387 4.93181,-8.43182 0.222579,-0.940847 0.30359,-1.57625 0.47727,-2.38636 0.552785,-0.669592 1.02461,-1.42691 1.43182,-2.38636 1.14476,-2.69723 1.07076,-5.27208 -0.159077,-6.04545 0.07251,-1.08675 0.127145,-2.2431 0.159077,-3.18182 0,-7.74804 -6.65306,-14 -14.9545,-14 z "/>
<path style="opacity:.1" id="path3849" d="m 48,20 c -8.30148,0 -14.9688,6.25196 -14.9688,14 0.01872,0.825067 0.108774,2.02617 0.1875,3.03125 -1.4196,0.602502 -1.54876,3.3483 -0.34375,6.1875 0.477848,1.12589 1.08645,2.00458 1.75,2.71875 0.161223,0.79793 0.144494,1.15048 0.34375,2.0625 0.556032,1.66809 2.7255,4.92597 4.75,7.625 0.198518,2.07281 0.404452,4.17314 0,6.53125 -5.83347,4.83978 -20.8661,6.92712 -20.8438,11.9375 l -.3125,1.9062 h 58.875 l -.3125,-1.9062 c -0.023916,-4.28821 -15.0818,-6.92711 -20.8438,-11.9375 -0.233137,-1.91798 -0.274752,-3.82965 -0.15625,-5.71875 1.84476,-2.84685 4.28693,-6.57955 4.90625,-8.4375 0.222579,-0.940847 0.32632,-1.56489 0.5,-2.375 0.552785,-0.669592 1.03029,-1.44679 1.4375,-2.40625 1.14476,-2.69723 1.04234,-5.25787 -0.1875,-6.03125 0.07251,-1.08675 0.155568,-2.24878 0.1875,-3.1875 0,-7.74804 -6.66727,-14 -14.9688,-14 z  m 0,2.0312 c 7.26027,0 12.9013,5.35003 12.9375,11.9062 -0.000594,0.01746 0.000634,0.04482 0,0.0625 -0.0312,0.869331 -0.115989,1.99071 -0.1875,3.0625 a 2.02742,2.02742 0 0,0 0.84375,1.78125 c -0.01842,0.0034 0.138765,0.200566 0.15625,0.71875 0.02331,0.690912 -0.182502,1.75877 -0.65625,2.875 -0.338361,0.797235 -0.697628,1.38857 -1.125,1.90625 a 2.02742,2.02742 0 0,0 -0.40625,0.84375 c -0.169168,0.789067 -0.291496,1.38246 -0.46875,2.15625 -0.185657,0.556973 -0.889128,1.99125 -1.78125,3.46875 -0.892122,1.4775 -1.95049,3.10455 -2.875,4.53125 a 2.02742,2.02742 0 0,0 -0.34375,0.96875 c -0.125709,2.00398 -0.06162,4.04428 0.1875,6.09375 a 2.02742,2.02742 0 0,0 0.65625,1.28125 c 3.40783,2.96333 8.71668,4.79124 13.1562,6.59375 2.21979,0.901254 4.20827,1.76543 5.5,2.5625 0.645864,0.398535 1.12694,0.78025 1.34375,1.03125 0.09083,0.105149 0.04071,0.05622 0.0625,0.09375 h -54.0312 c 0.05518,-0.269367 0.317709,-0.738911 1.4375,-1.46875 1.25303,-0.816681 3.23266,-1.70058 5.4375,-2.5625 4.40969,-1.72384 9.69117,-3.34392 13.1562,-6.21875 a 2.02742,2.02742 0 0,0 0.71875,-1.21875 c 0.457738,-2.66878 0.229474,-4.99276 0.03125,-7.0625 a 2.02742,2.02742 0 0,0 -0.40625,-1.03125 c -1.97178,-2.62874 -4.13131,-6.14393 -4.4375,-7.0625 -0.119489,-0.619136 -0.11206,-0.97514 -0.28125,-1.8125 a 2.02742,2.02742 0 0,0 -0.5,-0.96875 c -0.519888,-0.559548 -0.990804,-1.21977 -1.375,-2.125 -0.500505,-1.17927 -0.693487,-2.32783 -0.65625,-3.03125 0.01862,-0.351712 0.05442,-0.510077 0.0625,-0.5625 -0.02526,0.01384 -0.08391,0.0318 -0.15625,0.0625 a 2.02742,2.02742 0 0,0 1.25,-2.03125 c -0.077467,-0.989009 -0.169798,-2.15048 -0.1875,-2.875 -0.000192,-0.0078 0.000175,-0.02352 0,-0.03125 0.01813,-6.57066 5.66554,-11.9375 12.9375,-11.9375 z "/>
<path style="opacity:.15" id="path3840" d="m 48,20 c -8.30148,0 -14.9688,6.25196 -14.9688,14 0.01872,0.825067 0.108774,2.02617 0.1875,3.03125 -1.4196,0.602502 -1.54876,3.3483 -0.34375,6.1875 0.477848,1.12589 1.08645,2.00458 1.75,2.71875 0.161223,0.79793 0.144494,1.15048 0.34375,2.0625 0.556032,1.66809 2.7255,4.92597 4.75,7.625 0.198518,2.07281 0.404452,4.17314 0,6.53125 -5.83347,4.83978 -20.8661,6.92712 -20.8438,11.9375 l -.3125,1.9062 h 58.875 l -.3125,-1.9062 c -0.023916,-4.28821 -15.0818,-6.92711 -20.8438,-11.9375 -0.233137,-1.91798 -0.274752,-3.82965 -0.15625,-5.71875 1.84476,-2.84685 4.28693,-6.57955 4.90625,-8.4375 0.222579,-0.940847 0.32632,-1.56489 0.5,-2.375 0.552785,-0.669592 1.03029,-1.44679 1.4375,-2.40625 1.14476,-2.69723 1.04234,-5.25787 -0.1875,-6.03125 0.07251,-1.08675 0.155568,-2.24878 0.1875,-3.1875 0,-7.74804 -6.66727,-14 -14.9688,-14 z  m 0,1 c 7.7831,0 13.9506,5.81443 13.9688,12.9688 2.7e-05,0.01054 0,0.0207 0,0.03125 -0.03157,0.903446 -0.115481,2.0456 -0.1875,3.125 a 1.00975,1.00975 0 0,0 0.46875,0.90625 c 0.200523,0.126097 0.470198,0.616802 0.5,1.5 0.0298,0.883198 -0.195493,2.04837 -0.71875,3.28125 -0.372921,0.878663 -0.790926,1.56232 -1.28125,2.15625 a 1.00975,1.00975 0 0,0 -0.21875,0.4375 c -0.171448,0.799702 -0.239123,1.42899 -0.4375,2.28125 -0.000517,0.0022 -0.03073,-0.0022 -0.03125,0 -0.2479,0.743701 -0.969611,2.12553 -1.875,3.625 -0.905389,1.49947 -1.98281,3.13744 -2.90625,4.5625 a 1.00975,1.00975 0 0,0 -0.15625,0.5 c -0.122091,1.94632 -0.08485,3.92278 0.15625,5.90625 a 1.00975,1.00975 0 0,0 0.34375,0.625 c 3.14337,2.73337 8.38002,4.62518 12.8438,6.4375 2.23187,0.906158 4.25743,1.76185 5.65625,2.625 0.699408,0.431575 1.24104,0.877859 1.5625,1.25 0.321455,0.372141 0.436157,0.634115 0.4375,0.875 a 1.00975,1.00975 0 0,0 0,0.15625 l .125,.75 h -56.5 l .125,-.75 a 1.00975,1.00975 0 0,0 0,-0.15625 c -0.0033,-0.747426 0.593099,-1.5409 1.96875,-2.4375 1.37565,-0.896599 3.40137,-1.78699 5.625,-2.65625 4.44726,-1.73853 9.71641,-3.41603 12.9062,-6.0625 a 1.00975,1.00975 0 0,0 0.34375,-0.625 c 0.430991,-2.51284 0.198371,-4.70997 0,-6.78125 a 1.00975,1.00975 0 0,0 -0.1875,-0.5 c -1.98831,-2.65078 -4.11589,-6.00358 -4.5625,-7.3125 -0.0022,-0.0065 -0.0291,-0.02481 -0.03125,-0.03125 -0.158712,-0.763002 -0.145469,-1.11083 -0.3125,-1.9375 a 1.00975,1.00975 0 0,0 -0.25,-0.5 c -0.591999,-0.63716 -1.1313,-1.42151 -1.5625,-2.4375 -0.551704,-1.29991 -0.798218,-2.5579 -0.75,-3.46875 0.04822,-0.910851 0.35032,-1.28495 0.5625,-1.375 a 1.00975,1.00975 0 0,0 0.59375,-1.03125 c -0.077694,-0.991898 -0.16866,-2.16299 -0.1875,-2.9375 -0.0002,-0.0082 0.000184,-0.02314 0,-0.03125 0.018102,-7.15432 6.18566,-12.9688 13.9688,-12.9688 z "/>
<path style="opacity:.5" id="path3831" d="m 48,20 c -8.30148,0 -14.9688,6.25196 -14.9688,14 0.0031,0.136099 0.02594,0.346392 0.03125,0.5 0.280614,-7.51382 6.81646,-13.5 14.9375,-13.5 8.13228,0 14.6739,6.00281 14.9375,13.5312 0.006561,-0.167214 0.025928,-0.374797 0.03125,-0.53125 0,-7.74804 -6.66727,-14 -14.9688,-14 z  m -14.8438,17.0625 c -0.816271,0.39645 -1.16752,1.54407 -1.0625,3 0.09185,-1.00456 0.46502,-1.75114 1.125,-2.03125 -0.02516,-0.321263 -0.04167,-0.627298 -0.0625,-0.96875 z  m 29.6875,.1875 c -0.01812,0.324514 -0.04116,0.617719 -0.0625,0.9375 0.550778,0.346352 0.856017,1.05059 0.9375,1.96875 0.101569,-1.34617 -0.190515,-2.41781 -0.875,-2.90625 z  m -6.7812,22.0312 c -0.0064,1.28437 0.06164,2.58245 0.21875,3.875 5.76194,5.01039 20.8198,7.64929 20.8438,11.9375 l .1562,.9062 h 0.15625 l -.3125,-1.9062 c -0.02392,-4.28821 -15.0818,-6.92711 -20.8438,-11.9375 -0.116568,-0.95899 -0.19331,-1.91907 -0.21875,-2.875 z  m -16.0938,.25 c -0.0095,0.84681 -0.09354,1.71281 -0.25,2.625 -5.83347,4.83978 -20.8661,6.92712 -20.8438,11.9375 l -.3125,1.9062 h 0.15625 l .1562,-.9062 c -0.02236,-5.01038 15.0103,-7.09772 20.8438,-11.9375 0.218032,-1.27121 0.289948,-2.46983 0.25,-3.625 z "/>
<path style="opacity:.5;fill:#fff" id="path3862" d="m 33.0625,34.5 c -0.0062,0.166944 -0.03125,0.331594 -0.03125,0.5 0.01274,0.561343 0.08066,1.33571 0.125,2.0625 0.02154,-0.01046 0.04032,-0.02184 0.0625,-0.03125 -0.06574,-0.839286 -0.129379,-1.75365 -0.15625,-2.53125 z  m 29.875,.0312 c -0.03281,0.836069 -0.09582,1.75062 -0.15625,2.65625 0.02456,0.01544 0.03887,0.04563 0.0625,0.0625 0.04346,-0.778327 0.102464,-1.5875 0.125,-2.25 0,-0.157923 -0.02576,-0.31211 -0.03125,-0.46875 z  m -30.8438,5.5312 c -0.105714,1.15622 0.136457,2.63701 0.78125,4.15625 0.477848,1.12589 1.08645,2.00458 1.75,2.71875 0.161223,0.79793 0.144494,1.15048 0.34375,2.0625 0.556032,1.66809 2.7255,4.92597 4.75,7.625 0.0915,0.9554 0.215844,1.91856 0.25,2.90625 0.01512,-1.34228 -0.128275,-2.63527 -0.25,-3.90625 -2.0245,-2.69903 -4.19397,-5.95691 -4.75,-7.625 -0.199256,-0.912025 -0.182527,-1.26457 -0.34375,-2.0625 -0.663548,-0.714167 -1.27215,-1.59286 -1.75,-2.71875 -0.472629,-1.11359 -0.71169,-2.19189 -0.78125,-3.15625 z  m 31.625,.0938 c -0.07056,0.93523 -0.290091,1.97888 -0.75,3.0625 -0.407211,0.959456 -0.884715,1.73666 -1.4375,2.40625 -0.17368,0.810114 -0.277421,1.43415 -0.5,2.375 -0.619315,1.85795 -3.06149,5.59065 -4.90625,8.4375 -0.05024,0.800814 -0.07279,1.5968 -0.0625,2.40625 0.0089,-0.475641 0.03287,-0.933975 0.0625,-1.40625 1.84476,-2.84685 4.28693,-6.57955 4.90625,-8.4375 0.222579,-0.940847 0.32632,-1.56489 0.5,-2.375 0.552785,-0.669592 1.03029,-1.44679 1.4375,-2.40625 0.632085,-1.48929 0.850462,-2.93049 0.75,-4.0625 z  m -45,35.8438 -.1562,1 58.875,0 -.1562,-1 -58.5625,0 z "/>
</g>
</svg>
