<svg width="96" version="1.0" xmlns="http://www.w3.org/2000/svg" height="96" xmlns:xlink="http://www.w3.org/1999/xlink">
<defs id="defs2410">
<clipPath id="clipPath3613">
<rect width="84" x="6" y="6" rx="6" height="84" ry="6" style="fill:#fff;stroke:none" id="rect3615"/>
</clipPath>
<filter style="color-interpolation-filters:sRGB" id="filter3174">
<feGaussianBlur stdDeviation="1.71" id="feGaussianBlur3176"/>
</filter>
<filter width="1.3839999" x="-0.192" y="-0.192" height="1.3839999" style="color-interpolation-filters:sRGB" id="filter3794">
<feGaussianBlur stdDeviation="5.28" id="feGaussianBlur3796"/>
</filter>
<linearGradient gradientTransform="translate(0,-97)" id="linearGradient3721" xlink:href="#ButtonShadow-0" y1="6.1317081" x1="32.251034" y2="90.238609" x2="32.251034" gradientUnits="userSpaceOnUse"/>
<linearGradient gradientTransform="matrix(1.0238095,0,0,1.0119048,-1.1428571,-98.071429)" id="linearGradient3026" xlink:href="#ButtonShadow-0" y1="6.1317081" x1="32.251034" y2="90.238609" x2="32.251034" gradientUnits="userSpaceOnUse"/>
<linearGradient gradientTransform="matrix(1.0238095,0,0,1.0119048,-1.1428571,-98.071429)" id="linearGradient3725" xlink:href="#ButtonShadow-0" y1="6.1317081" x1="32.251034" y2="90.238609" x2="32.251034" gradientUnits="userSpaceOnUse"/>
<linearGradient gradientTransform="scale(0.9219544,1.0846523)" id="StandardGradient-3" y1="0.92195445" x1="11.998966" y2="19.387045" x2="11.998966" gradientUnits="userSpaceOnUse">
<stop offset="0" style="stop-opacity:.863" id="stop3283-5"/>
<stop offset="1" style="stop-opacity:.471" id="stop2651-2"/>
</linearGradient>
<linearGradient gradientTransform="matrix(0.85714286,0,0,0.85714286,14.857143,6.857143)" id="linearGradient3886" xlink:href="#StandardGradient-5" y1="20" x1="49" y2="76" x2="49" gradientUnits="userSpaceOnUse"/>
<linearGradient gradientTransform="matrix(1.0238095,0,0,1.0119048,-1.1428571,-98.071429)" id="linearGradient3772" xlink:href="#ButtonShadow-0" y1="6.1317081" x1="32.251034" y2="90.238609" x2="32.251034" gradientUnits="userSpaceOnUse"/>
<linearGradient gradientTransform="scale(0.9219544,1.0846523)" id="StandardGradient-5" y1="0.92195445" x1="11.998966" y2="19.387045" x2="11.998966" gradientUnits="userSpaceOnUse">
<stop offset="0" style="stop-opacity:.863" id="stop3283-0"/>
<stop offset="1" style="stop-opacity:.471" id="stop2651-4"/>
</linearGradient>
<linearGradient gradientTransform="matrix(0.94249199,0,0,0.94249199,-88.239616,0.875402)" id="linearGradient3736" xlink:href="#StandardGradient-3" y1="16" x1="56" y2="80" x2="56" gradientUnits="userSpaceOnUse"/>
<linearGradient gradientTransform="matrix(0.706869,0,0,0.706869,-101.62648,12.656549)" id="linearGradient2902" xlink:href="#StandardGradient-3" y1="16" x1="56" y2="80" x2="56" gradientUnits="userSpaceOnUse"/>
<linearGradient gradientTransform="matrix(1.0238095,0,0,1.0119048,-1.1428571,-98.071429)" id="linearGradient3780" xlink:href="#ButtonShadow-0" y1="6.1317081" x1="32.251034" y2="90.238609" x2="32.251034" gradientUnits="userSpaceOnUse"/>
<linearGradient gradientTransform="matrix(0.57142857,0,0,0.57142857,4.1623373,24.571429)" id="linearGradient3081" xlink:href="#StandardGradient-5" y1="20" x1="49" y2="76" x2="49" gradientUnits="userSpaceOnUse"/>
<linearGradient id="linearGradient3700">
<stop offset="0" style="stop-color:#bebebe" id="stop3702"/>
<stop offset="1" style="stop-color:#dcdcdc" id="stop3704"/>
</linearGradient>
<linearGradient gradientTransform="scale(1.0058652,0.994169)" id="ButtonShadow" y1="92.539597" x1="45.447727" y2="7.0165396" x2="45.447727" gradientUnits="userSpaceOnUse">
<stop offset="0" id="stop3750"/>
<stop offset="1" style="stop-opacity:.588" id="stop3752"/>
</linearGradient>
<linearGradient id="linearGradient3737">
<stop offset="0" style="stop-color:#fff" id="stop3739"/>
<stop offset="1" style="stop-color:#fff;stop-opacity:0" id="stop3741"/>
</linearGradient>
<linearGradient id="linearGradient3188" xlink:href="#linearGradient3737" y1="6" x1="36.357143" y2="63.893143" x2="36.357143" gradientUnits="userSpaceOnUse"/>
<linearGradient id="linearGradient3617" xlink:href="#linearGradient3700" y1="90" x1="48" y2="5.9877172" x2="48" gradientUnits="userSpaceOnUse"/>
<linearGradient gradientTransform="matrix(1.0058652,0,0,0.994169,100,0)" id="ButtonShadow-0" y1="92.539597" x1="45.447727" y2="7.0165396" x2="45.447727" gradientUnits="userSpaceOnUse">
<stop offset="0" id="stop3750-8"/>
<stop offset="1" style="stop-opacity:.588" id="stop3752-5"/>
</linearGradient>
<linearGradient id="linearGradient3613" xlink:href="#linearGradient3737" y1="20.220806" x1="48" y2="138.66119" x2="48" gradientUnits="userSpaceOnUse"/>
<radialGradient fx="48" fy="90.171875" cx="48" cy="90.171875" gradientTransform="matrix(1.1573129,0,0,0.99590774,-7.5510206,0.19713193)" r="42" id="radialGradient3619" xlink:href="#linearGradient3737" gradientUnits="userSpaceOnUse"/>
</defs>
<g style="display:none" id="layer2">
<rect width="86" x="5" y="7" rx="6" height="85" ry="6" style="opacity:.9;fill:url(#ButtonShadow);filter:url(#filter3174);stroke:none" id="rect3745"/>
</g>
<g style="stroke:none" id="layer3">
<path style="opacity:.08;fill:url(#linearGradient3026)" id="path3786" d="m 12,-95.0312 c -5.51109,0 -10.0312,4.52016 -10.0312,10.0312 v 71 c 0,5.51109 4.52016,10.0312 10.0312,10.0312 h 72 c 5.51109,0 10.0312,-4.52016 10.0312,-10.0312 v -71 c 0,-5.51109 -4.52016,-10.0312 -10.0312,-10.0312 h -72 z " transform="scale(1,-1)"/>
<path style="opacity:.1;fill:url(#linearGradient3780)" id="path3778" d="m 12,-94.0312 c -4.97163,0 -9.03125,4.05962 -9.03125,9.03125 v 71 c 0,4.97163 4.05962,9.03125 9.03125,9.03125 h 72 c 4.97163,0 9.03125,-4.05962 9.03125,-9.03125 v -71 c 0,-4.97163 -4.05962,-9.03125 -9.03125,-9.03125 h -72 z " transform="scale(1,-1)"/>
<path style="opacity:.2;fill:url(#linearGradient3772)" id="path3770" d="m 12,-93 c -4.40913,0 -8,3.59087 -8,8 v 71 c 0,4.40913 3.59087,8 8,8 h 72 c 4.40913,0 8,-3.59087 8,-8 v -71 c 0,-4.40913 -3.59087,-8 -8,-8 h -72 z " transform="scale(1,-1)"/>
<rect width="86" x="5" y="-92" rx="7" height="85" ry="7" style="opacity:.3;fill:url(#linearGradient3725)" id="rect3723" transform="scale(1,-1)"/>
<rect width="84" x="6" y="-91" rx="6" height="84" ry="6" style="opacity:.45;fill:url(#linearGradient3721)" id="rect3716" transform="scale(1,-1)"/>
</g>
<g style="stroke:none" id="layer1">
<rect width="84" x="6" y="6" rx="6" height="84" ry="6" style="fill:url(#linearGradient3617)" id="rect2419"/>
<path style="opacity:.5;fill:url(#linearGradient3188)" id="rect3728" d="m 12,6 c -3.324,0 -6,2.676 -6,6 v 2 68 2 c 0,0.334721 0.04135,0.6507 0.09375,0.96875 0.0487,0.295596 0.09704,0.596915 0.1875,0.875 0.00988,0.03038 0.020892,0.0636 0.03125,0.09375 0.098865,0.287771 0.23488,0.547452 0.375,0.8125 0.144592,0.273507 0.315616,0.535615 0.5,0.78125 0.184384,0.245635 0.373776,0.473472 0.59375,0.6875 0.439947,0.428056 0.94291,0.814526 1.5,1.09375 0.278545,0.139612 0.573473,0.246947 0.875,0.34375 -0.256202,-0.100222 -0.486711,-0.236272 -0.71875,-0.375 -0.00741,-0.0044 -0.023866,0.0045 -0.03125,0 -0.031933,-0.0193 -0.062293,-0.04251 -0.09375,-0.0625 -0.120395,-0.0767 -0.231023,-0.163513 -0.34375,-0.25 -0.106173,-0.0808 -0.213281,-0.161112 -0.3125,-0.25 -0.17793,-0.161433 -0.34746,-0.345388 -0.5,-0.53125 -0.107579,-0.130255 -0.218394,-0.265285 -0.3125,-0.40625 -0.025089,-0.03838 -0.038446,-0.08587 -0.0625,-0.125 -0.064763,-0.103032 -0.130228,-0.204517 -0.1875,-0.3125 -0.101008,-0.194706 -0.205675,-0.415701 -0.28125,-0.625 -0.00796,-0.02181 -0.023589,-0.04055 -0.03125,-0.0625 -0.0318251,-0.09195 -0.0358045,-0.186831 -0.0625,-0.28125 -0.0303323,-0.106618 -0.0703894,-0.203031 -0.09375,-0.3125 -0.0728786,-0.341512 -0.125,-0.698205 -0.125,-1.0625 v -2 -68 -2 c 0,-2.78185 2.21815,-5 5,-5 h 2 68 2 c 2.78185,0 5,2.21815 5,5 v 2 68 2 c 0,0.364295 -0.05212,0.720988 -0.125,1.0625 -0.04415,0.206893 -0.08838,0.397658 -0.15625,0.59375 -0.0077,0.02195 -0.0233,0.04069 -0.03125,0.0625 -0.06274,0.173739 -0.138383,0.367449 -0.21875,0.53125 -0.04158,0.0828 -0.07904,0.169954 -0.125,0.25 -0.0546,0.09721 -0.126774,0.18835 -0.1875,0.28125 -0.09411,0.140965 -0.204921,0.275995 -0.3125,0.40625 -0.143174,0.17445 -0.303141,0.346998 -0.46875,0.5 -0.01117,0.0102 -0.01998,0.02115 -0.03125,0.03125 -0.138386,0.125556 -0.285091,0.234436 -0.4375,0.34375 -0.102571,0.07315 -0.204318,0.153364 -0.3125,0.21875 -0.0074,0.0045 -0.02384,-0.0044 -0.03125,0 -0.232039,0.138728 -0.462548,0.274778 -0.71875,0.375 0.301527,-0.0968 0.596455,-0.204138 0.875,-0.34375 0.55709,-0.279224 1.06005,-0.665694 1.5,-1.09375 0.219973,-0.214028 0.409366,-0.441865 0.59375,-0.6875 0.184384,-0.245635 0.355408,-0.507743 0.5,-0.78125 0.14012,-0.265048 0.276135,-0.524729 0.375,-0.8125 0.01041,-0.03078 0.02133,-0.06274 0.03125,-0.09375 0.09046,-0.278085 0.1388,-0.579404 0.1875,-0.875 0.0524,-0.31805 0.09375,-0.634029 0.09375,-0.96875 v -2 -68 -2 c 0,-3.324 -2.676,-6 -6,-6 h -72 z "/>
<path style="opacity:.2;fill:url(#radialGradient3619)" id="path3615" d="M 12,90 C 8.676,90 6,87.324 6,84 L 6,82 6,14 6,12 c 0,-0.334721 0.04135,-0.6507 0.09375,-0.96875 0.0487,-0.295596 0.09704,-0.596915 0.1875,-0.875 C 6.29113,10.12587 6.302142,10.09265 6.3125,10.0625 6.411365,9.774729 6.5473802,9.515048 6.6875,9.25 6.8320918,8.976493 7.0031161,8.714385 7.1875,8.46875 7.3718839,8.223115 7.5612765,7.995278 7.78125,7.78125 8.221197,7.353194 8.72416,6.966724 9.28125,6.6875 9.559795,6.547888 9.8547231,6.440553 10.15625,6.34375 9.9000482,6.443972 9.6695391,6.580022 9.4375,6.71875 c -0.00741,0.0044 -0.023866,-0.0045 -0.03125,0 -0.031933,0.0193 -0.062293,0.04251 -0.09375,0.0625 -0.120395,0.0767 -0.2310226,0.163513 -0.34375,0.25 -0.1061728,0.0808 -0.2132809,0.161112 -0.3125,0.25 C 8.4783201,7.442683 8.3087904,7.626638 8.15625,7.8125 8.0486711,7.942755 7.9378561,8.077785 7.84375,8.21875 7.818661,8.25713 7.805304,8.30462 7.78125,8.34375 7.716487,8.446782 7.6510225,8.548267 7.59375,8.65625 7.4927417,8.850956 7.3880752,9.071951 7.3125,9.28125 7.30454,9.30306 7.288911,9.3218 7.28125,9.34375 7.2494249,9.4357 7.2454455,9.530581 7.21875,9.625 7.1884177,9.731618 7.1483606,9.828031 7.125,9.9375 7.0521214,10.279012 7,10.635705 7,11 l 0,2 0,68 0,2 c 0,2.781848 2.2181517,5 5,5 l 2,0 68,0 2,0 c 2.781848,0 5,-2.218152 5,-5 l 0,-2 0,-68 0,-2 C 89,10.635705 88.94788,10.279012 88.875,9.9375 88.83085,9.730607 88.78662,9.539842 88.71875,9.34375 88.71105,9.3218 88.69545,9.30306 88.6875,9.28125 88.62476,9.107511 88.549117,8.913801 88.46875,8.75 88.42717,8.6672 88.38971,8.580046 88.34375,8.5 88.28915,8.40279 88.216976,8.31165 88.15625,8.21875 88.06214,8.077785 87.951329,7.942755 87.84375,7.8125 87.700576,7.63805 87.540609,7.465502 87.375,7.3125 87.36383,7.3023 87.35502,7.29135 87.34375,7.28125 87.205364,7.155694 87.058659,7.046814 86.90625,6.9375 86.803679,6.86435 86.701932,6.784136 86.59375,6.71875 c -0.0074,-0.0045 -0.02384,0.0044 -0.03125,0 -0.232039,-0.138728 -0.462548,-0.274778 -0.71875,-0.375 0.301527,0.0968 0.596455,0.204138 0.875,0.34375 0.55709,0.279224 1.060053,0.665694 1.5,1.09375 0.219973,0.214028 0.409366,0.441865 0.59375,0.6875 0.184384,0.245635 0.355408,0.507743 0.5,0.78125 0.14012,0.265048 0.276135,0.524729 0.375,0.8125 0.01041,0.03078 0.02133,0.06274 0.03125,0.09375 0.09046,0.278085 0.1388,0.579404 0.1875,0.875 C 89.95865,11.3493 90,11.665279 90,12 l 0,2 0,68 0,2 c 0,3.324 -2.676,6 -6,6 l -72,0 z"/>
</g>
<g id="layer5">
<rect width="66" x="15" y="15" rx="12" height="66" ry="12" style="opacity:.1;fill:url(#linearGradient3613);filter:url(#filter3794);stroke:#fff;stroke-linecap:round;stroke-width:.5;clip-path:url(#clipPath3613)" id="rect3171"/>
</g>
<g style="stroke:none" id="layer4">
<path style="fill:url(#linearGradient3736)" id="path3798" d="m -43,16.0001 c -6.57808,0 -11.9107,4.93347 -11.9107,11.0192 0.01598,0.697437 0.0261,1.49376 0.09926,2.36126 -1.04103,0.550102 -1.17673,2.70136 -0.24814,4.8701 0.358069,0.836275 0.846451,1.51578 1.33995,2.0661 0.01645,0.0184 0.03308,0.0312 0.04963,0.04913 0.117798,0.573005 0.204935,1.02622 0.347397,1.67256 0.441331,1.3124 2.26503,3.781 3.87097,5.90315 0.160151,1.63709 0.173325,3.25391 -0.148893,5.11607 -4.62243,3.80143 -16.4445,5.50961 -16.4268,9.44505 l -1.5881,10.2321 c 0,2.09638 3.15937,4.01584 8.18859,5.31284 l .6948,2.804 a 1.72959,1.71443 0 0,0 1.09181,1.13144 c 0.223226,0.08562 0.380762,0.266676 0.992554,0.442732 3.22275,0.927443 8.12994,1.57417 13.6476,1.57417 5.51771,0 10.4745,-0.646726 13.6973,-1.57417 0.611792,-0.176056 0.769331,-0.357156 0.992554,-0.442732 a 1.72959,1.71443 0 0,0 1.04219,-1.08225 l .8437,-2.9516 c 4.90634,-1.29494 8.0397,-3.14759 8.0397,-5.21445 l -1.5881,-10.2321 c -0.01886,-3.36821 -11.9107,-5.50961 -16.4764,-9.44505 -0.18486,-1.50749 -0.193385,-2.99175 -0.09928,-4.47655 1.4601,-2.23255 3.38238,-5.08976 3.87097,-6.54267 0.179567,-0.752422 0.257562,-1.27243 0.397022,-1.91853 0.431165,-0.522382 0.823158,-1.12597 1.14144,-1.86933 0.881833,-2.05953 0.799501,-4.05383 -0.09926,-4.72252 0.0628,-0.894886 0.122622,-1.74401 0.148877,-2.50884 9e-06,-6.08575 -5.33258,-11.0192 -11.9107,-11.0192 z "/>
<path style="opacity:.1" id="path3698" d="m -43,16 c -6.57808,0 -11.9062,4.9455 -11.9062,11.0312 0.01598,0.697437 0.02059,1.47625 0.09375,2.34375 -1.04103,0.550102 -1.17859,2.70627 -0.25,4.875 0.358069,0.836275 0.85025,1.51217 1.34375,2.0625 0.01645,0.0184 0.04595,0.04457 0.0625,0.0625 0.117798,0.573005 0.201288,1.00991 0.34375,1.65625 0.441331,1.3124 2.26906,3.7841 3.875,5.90625 0.160151,1.63709 0.165968,3.26284 -0.15625,5.125 -4.62243,3.80143 -16.4552,5.50206 -16.4375,9.4375 l -1.5938,10.25 c 0,2.09638 3.15828,4.0155 8.1875,5.3125 l .7188,2.7812 a 1.72959,1.71443 0 0,0 1.09375,1.125 c 0.223226,0.08562 0.356958,0.292694 0.96875,0.46875 3.22275,0.927443 8.13854,1.5625 13.6562,1.5625 5.51771,0 10.4648,-0.635057 13.6875,-1.5625 0.611792,-0.176056 0.776777,-0.383174 1,-0.46875 a 1.72959,1.71443 0 0,0 1.03125,-1.0625 l .8438,-2.9688 c 4.90634,-1.29494 8.0625,-3.12064 8.0625,-5.1875 l -1.5938,-10.25 c -0.01886,-3.36821 -11.903,-5.50205 -16.4688,-9.4375 -0.18486,-1.50749 -0.219105,-2.98395 -0.125,-4.46875 1.4601,-2.23255 3.38642,-5.10959 3.875,-6.5625 0.179567,-0.752422 0.26679,-1.26016 0.40625,-1.90625 0.431165,-0.522382 0.837969,-1.13164 1.15625,-1.875 0.881833,-2.05953 0.773761,-4.05006 -0.125,-4.71875 0.0628,-0.894886 0.129995,-1.73517 0.15625,-2.5 9e-06,-6.08575 -5.32817,-11.0312 -11.9062,-11.0312 z  m 0,1.9375 c 5.58906,0 9.93199,4.09755 9.96875,9.03125 0.000156,0.02098 0,0.04149 0,0.0625 -0.02545,0.688779 -0.063,1.49158 -0.125,2.375 a 1.92606,1.92606 0 0,0 0.625,1.5625 c -0.04866,-0.03591 0.081,0.101771 0.09375,0.46875 0.017,0.489306 -0.127404,1.26528 -0.46875,2.0625 -0.234439,0.54754 -0.533235,0.992182 -0.875,1.40625 a 1.92606,1.92606 0 0,0 -0.375,0.8125 c -0.13846,0.641458 -0.229377,1.1236 -0.375,1.75 -0.140365,0.390152 -0.691849,1.41967 -1.375,2.53125 -0.699714,1.13853 -1.54627,2.40743 -2.28125,3.53125 a 1.92606,1.92606 0 0,0 -0.3125,0.9375 c -0.101068,1.59466 -0.0436,3.21399 0.15625,4.84375 a 1.92606,1.92606 0 0,0 0.65625,1.21875 c 2.7784,2.39484 6.97095,3.82248 10.4688,5.25 1.7489,0.71376 3.32578,1.38944 4.3125,2 0.493358,0.305281 0.830394,0.621172 0.96875,0.78125 0.02661,0.03078 0.02025,0.01685 0.03125,0.03125 0.0028,0.0078 -0.0026,0.02524 0,0.03125 a 1.92606,1.92606 0 0,0 0.03125,0.15625 l 1.5625,9.9688 c 0,0.05314 -0.146787,0.540805 -1.28125,1.25 -1.13446,0.709195 -3.00798,1.44602 -5.34375,2.0625 a 1.92606,1.92606 0 0,0 -1.34375,1.34375 l -.7812,2.7812 c -0.668375,0.271611 -0.489908,0.32241 -0.78125,0.40625 -2.94392,0.847202 -7.78631,1.46875 -13.1562,1.46875 -5.36994,0 -10.1779,-0.620633 -13.125,-1.46875 -0.28413,-0.08176 0.01006,-0.09166 -0.78125,-0.40625 l -.6562,-2.5938 a 1.92606,1.92606 0 0,0 -1.40625,-1.40625 c -2.38659,-0.615483 -4.25979,-1.36302 -5.40625,-2.09375 -1.14646,-0.730733 -1.3125,-1.26269 -1.3125,-1.34375 l 1.5625,-9.9688 a 1.92606,1.92606 0 0,0 0.03125,-0.28125 c -8.2e-05,-0.01817 0.08294,-0.37888 1.03125,-1 0.948312,-0.62112 2.48774,-1.28675 4.21875,-1.96875 3.46202,-1.36399 7.64368,-2.64544 10.4688,-4.96875 a 1.92606,1.92606 0 0,0 0.6875,-1.15625 c 0.354991,-2.05156 0.32799,-3.9007 0.15625,-5.65625 a 1.92606,1.92606 0 0,0 -0.375,-0.96875 c -0.798009,-1.05452 -1.63581,-2.19336 -2.3125,-3.1875 -0.66528,-0.97737 -1.15615,-1.89607 -1.25,-2.15625 -0.0016,-0.0045 -0.02988,-0.02718 -0.03125,-0.03125 -0.106616,-0.495817 -0.177182,-0.900034 -0.28125,-1.40625 a 1.92606,1.92606 0 0,0 -0.46875,-0.9375 c -0.156701,-0.169767 -0.172559,-0.18931 -0.03125,-0.03125 -0.395143,-0.440643 -0.745486,-0.936828 -1,-1.53125 -0.359852,-0.840442 -0.496566,-1.68285 -0.46875,-2.1875 0.01391,-0.252326 0.05994,-0.355372 0.0625,-0.375 a 1.92606,1.92606 0 0,0 0.78125,-1.71875 c -0.06469,-0.767115 -0.04649,-1.47574 -0.0625,-2.1875 0,-0.0105 -3.9e-05,-0.02075 0,-0.03125 0.01844,-4.94769 4.36781,-9.0625 9.96875,-9.0625 z "/>
<path style="opacity:.15" id="path3691" d="m -43,16 c -6.57808,0 -11.9062,4.9455 -11.9062,11.0312 0.01598,0.697437 0.02059,1.47625 0.09375,2.34375 -1.04103,0.550102 -1.17859,2.70627 -0.25,4.875 0.358069,0.836275 0.85025,1.51217 1.34375,2.0625 0.01645,0.0184 0.04595,0.04457 0.0625,0.0625 0.117798,0.573005 0.201288,1.00991 0.34375,1.65625 0.441331,1.3124 2.26906,3.7841 3.875,5.90625 0.160151,1.63709 0.165968,3.26284 -0.15625,5.125 -4.62243,3.80143 -16.4552,5.50206 -16.4375,9.4375 l -1.5938,10.25 c 0,2.09638 3.15828,4.0155 8.1875,5.3125 l .7188,2.7812 a 1.72959,1.71443 0 0,0 1.09375,1.125 c 0.223226,0.08562 0.356958,0.292694 0.96875,0.46875 3.22275,0.927443 8.13854,1.5625 13.6562,1.5625 5.51771,0 10.4648,-0.635057 13.6875,-1.5625 0.611792,-0.176056 0.776777,-0.383174 1,-0.46875 a 1.72959,1.71443 0 0,0 1.03125,-1.0625 l .8438,-2.9688 c 4.90634,-1.29494 8.0625,-3.12064 8.0625,-5.1875 l -1.5938,-10.25 c -0.01886,-3.36821 -11.903,-5.50205 -16.4688,-9.4375 -0.18486,-1.50749 -0.219105,-2.98395 -0.125,-4.46875 1.4601,-2.23255 3.38642,-5.10959 3.875,-6.5625 0.179567,-0.752422 0.26679,-1.26016 0.40625,-1.90625 0.431165,-0.522382 0.837969,-1.13164 1.15625,-1.875 0.881833,-2.05953 0.773761,-4.05006 -0.125,-4.71875 0.0628,-0.894886 0.129995,-1.73517 0.15625,-2.5 9e-06,-6.08575 -5.32817,-11.0312 -11.9062,-11.0312 z  m 0,1.0625 c 6.03942,0 10.8253,4.47973 10.8438,9.9375 3.6e-05,0.01053 0,0.02072 0,0.03125 -0.02575,0.723069 -0.0938,1.54758 -0.15625,2.4375 a 1.05159,1.05159 0 0,0 0.4375,0.90625 c 0.0647,0.04813 0.289992,0.383332 0.3125,1.03125 0.02251,0.647918 -0.144697,1.5347 -0.53125,2.4375 -0.272505,0.636444 -0.617646,1.16176 -1,1.625 a 1.05159,1.05159 0 0,0 -0.21875,0.4375 c -0.136962,0.634517 -0.219439,1.11644 -0.375,1.78125 -0.0084,0.03588 -0.02241,0.05671 -0.03125,0.09375 -0.196607,0.546091 -0.748278,1.56604 -1.4375,2.6875 -0.711269,1.15733 -1.54851,2.44211 -2.28125,3.5625 a 1.05159,1.05159 0 0,0 -0.1875,0.5 c -0.09791,1.54478 -0.0368,3.082 0.15625,4.65625 a 1.05159,1.05159 0 0,0 0.34375,0.65625 c 2.55343,2.20092 6.69992,3.6889 10.2188,5.125 1.75941,0.71805 3.35934,1.4266 4.4375,2.09375 0.539081,0.333574 0.959556,0.642518 1.1875,0.90625 0.227944,0.263732 0.249372,0.419065 0.25,0.53125 a 1.05159,1.05159 0 0,0 0.03125,0.15625 l 1.5625,10.0938 c 0,0.498211 -0.43142,1.21478 -1.6875,2 -1.25608,0.785222 -3.20468,1.5257 -5.59375,2.15625 a 1.05159,1.05159 0 0,0 -0.71875,0.75 l -.8125,2.9062 -.0312,.0312 c -0.0095,0.02386 -0.0015,0.03464 0,0.03125 0.0015,-0.0034 -0.0204,-0.02329 -0.03125,0 -0.0217,0.04658 0.02427,0.01721 0,0.0625 -0.02427,0.04529 -0.0045,-0.01261 -0.03125,0.03125 -0.02676,0.04386 -0.0021,-0.01105 -0.03125,0.03125 -0.03147,0.04061 0.0024,-0.0075 -0.03125,0.03125 -0.03367,0.03879 0.0045,-0.0056 -0.03125,0.03125 -0.03578,0.03686 0.0065,-0.0036 -0.03125,0.03125 -0.03776,0.03481 0.0084,-0.0014 -0.03125,0.03125 -0.01982,0.01633 -0.01013,0.03132 0,0.03125 -0.04138,0.03042 0.01175,-0.02808 -0.03125,0 -0.043,0.02808 0.01323,0.0056 -0.03125,0.03125 -0.04448,0.02565 -0.01667,0.0081 -0.0625,0.03125 -0.04583,0.02315 0.01579,-0.02059 -0.03125,0 -0.04704,0.02059 0.01685,-0.01796 -0.03125,0 a 1.05159,1.05159 0 0,0 0,0.03125 c -0.591024,0.226578 -0.456797,0.30816 -0.90625,0.4375 -3.07051,0.883633 -7.96922,1.5 -13.4062,1.5 -5.43703,0 -10.3028,-0.615868 -13.375,-1.5 -0.440352,-0.126721 -0.253603,-0.199159 -0.875,-0.4375 a 1.05159,1.05159 0 0,0 -0.03125,-0.03125 c -0.05173,-0.01761 0.01936,0.02062 -0.03125,0 -0.05061,-0.02062 -0.01318,-0.0077 -0.0625,-0.03125 -0.04932,-0.02356 0.0166,0.02642 -0.03125,0 -0.04785,-0.02642 0.01496,-0.0021 -0.03125,-0.03125 -0.04621,-0.02919 0.01317,0.000613 -0.03125,-0.03125 -0.04442,-0.03186 0.01121,0.0032 -0.03125,-0.03125 -0.02123,-0.01721 -0.03379,-0.0089 -0.03125,0 -0.04036,-0.03688 0.0069,0.008 -0.03125,-0.03125 -0.03811,-0.0392 0.0045,0.01014 -0.03125,-0.03125 0.0086,0.0028 0.01661,-0.0095 0,-0.03125 -0.03322,-0.04344 -0.000663,0.01408 -0.03125,-0.03125 -0.03059,-0.04533 -0.0034,0.01582 -0.03125,-0.03125 -0.02785,-0.04707 0.025,0.01739 0,-0.03125 -0.025,-0.04864 -0.0092,0.0188 -0.03125,-0.03125 -0.01103,-0.02502 -0.0015,-0.0349 0,-0.03125 v -0.03125 c -0.01905,-0.05127 -0.01528,0.02107 -0.03125,-0.03125 l -.6875,-2.7188 a 1.05159,1.05159 0 0,0 -0.78125,-0.78125 c -2.44471,-0.630473 -4.38641,-1.40937 -5.65625,-2.21875 -1.26984,-0.809378 -1.71875,-1.54235 -1.71875,-2.0625 l 1.5625,-10.0938 a 1.05159,1.05159 0 0,0 0.03125,-0.15625 c -0.0021,-0.456611 0.384425,-1.02901 1.4375,-1.71875 1.05307,-0.689737 2.6277,-1.37409 4.375,-2.0625 3.4946,-1.37683 7.62698,-2.71231 10.2188,-4.84375 a 1.05159,1.05159 0 0,0 0.375,-0.625 c 0.340111,-1.96556 0.322728,-3.70448 0.15625,-5.40625 a 1.05159,1.05159 0 0,0 -0.1875,-0.53125 c -0.800261,-1.0575 -1.65064,-2.2005 -2.34375,-3.21875 -0.693105,-1.01825 -1.23055,-1.97669 -1.375,-2.40625 -0.121357,-0.55822 -0.202286,-0.995134 -0.3125,-1.53125 a 1.05159,1.05159 0 0,0 -0.25,-0.5 c -0.02327,-0.02521 -0.04683,-0.0175 -0.0625,-0.03125 -0.439799,-0.49044 -0.85472,-1.07702 -1.15625,-1.78125 -0.407271,-0.951189 -0.568432,-1.91918 -0.53125,-2.59375 0.03718,-0.674565 0.27681,-0.918641 0.3125,-0.9375 a 1.05159,1.05159 0 0,0 0.5625,-1.03125 c -0.0681,-0.807473 -0.07798,-1.54792 -0.09375,-2.25 0,-0.01053 -3.6e-05,-0.02072 0,-0.03125 0.01844,-5.45777 4.80433,-9.9375 10.8438,-9.9375 z "/>
<path style="opacity:.5" id="path3682" d="m -43,16 c -6.57808,0 -11.9062,4.9455 -11.9062,11.0312 0.0048,0.209345 0.02565,0.429835 0.03125,0.65625 0.198701,-5.92469 5.42278,-10.6875 11.875,-10.6875 6.3839,0 11.5729,4.66312 11.875,10.5 0.0071,-0.149119 0.02633,-0.325307 0.03125,-0.46875 9e-06,-6.08575 -5.32817,-11.0312 -11.9062,-11.0312 z  m -11.875,13.4062 c -0.609597,0.370124 -0.873775,1.329 -0.78125,2.5 0.09528,-0.722115 0.387821,-1.29033 0.84375,-1.53125 -0.02837,-0.336398 -0.04907,-0.655372 -0.0625,-0.96875 z  m 23.6875,.1875 c -0.0211,0.320759 -0.03894,0.601831 -0.0625,0.9375 0.407828,0.303432 0.629688,0.893433 0.6875,1.625 0.13658,-1.15474 -0.0914,-2.10582 -0.625,-2.5625 z  m -18.1875,17.1562 c -0.02908,0.735547 -0.0793,1.50658 -0.21875,2.3125 -4.62243,3.80143 -16.4552,5.50206 -16.4375,9.4375 l -1.5938,10.25 c 0,0.173606 0.0199,0.329073 0.0625,0.5 l 1.5312,-9.75 c -0.01772,-3.93544 11.8151,-5.63607 16.4375,-9.4375 0.203424,-1.17562 0.23527,-2.26561 0.21875,-3.3125 z  m 12.7812,.4062 c -0.0082,0.963601 0.03649,1.92961 0.15625,2.90625 4.56576,3.93545 16.4499,6.06929 16.4688,9.4375 l 1.5312,9.75 c 0.0422,-0.168029 0.0625,-0.328838 0.0625,-0.5 l -1.5938,-10.25 c -0.01886,-3.36821 -11.903,-5.50205 -16.4688,-9.4375 -0.07832,-0.638679 -0.135628,-1.2741 -0.15625,-1.90625 z "/>
<path style="opacity:.5;fill:#fff" id="path3705" d="m -31.125,27.5 c -0.03069,0.645974 -0.07398,1.3042 -0.125,2.03125 0.02247,0.01672 0.04105,0.04415 0.0625,0.0625 0.03516,-0.534376 0.07734,-1.08456 0.09375,-1.5625 0,-0.179647 -0.02206,-0.353709 -0.03125,-0.53125 z  m -23.75,.1875 c -0.0039,0.115578 -0.03125,0.227302 -0.03125,0.34375 0.0098,0.426984 0.01005,0.880246 0.03125,1.375 0.0193,-0.01172 0.04253,-0.0207 0.0625,-0.03125 -0.0512,-0.607106 -0.04943,-1.15961 -0.0625,-1.6875 z  m -.7812,4.2812 c -0.106491,0.91862 0.0832,2.08884 0.59375,3.28125 0.358069,0.836275 0.85025,1.51217 1.34375,2.0625 0.01645,0.0184 0.04595,0.04457 0.0625,0.0625 0.117798,0.573005 0.201288,1.00991 0.34375,1.65625 0.441331,1.3124 2.26906,3.7841 3.875,5.90625 0.05904,0.603555 0.05285,1.20114 0.0625,1.8125 0.03812,-0.964003 0.02834,-1.88393 -0.0625,-2.8125 -1.60594,-2.12215 -3.43367,-4.59385 -3.875,-5.90625 -0.142462,-0.646342 -0.225952,-1.08324 -0.34375,-1.65625 -0.01655,-0.01793 -0.04605,-0.0441 -0.0625,-0.0625 -0.4935,-0.550325 -0.985681,-1.22622 -1.34375,-2.0625 -0.338697,-0.791032 -0.530521,-1.57171 -0.59375,-2.28125 z  m 25.0938,.1875 c -0.07751,0.65529 -0.251229,1.36677 -0.5625,2.09375 -0.318281,0.743356 -0.725085,1.35262 -1.15625,1.875 -0.13946,0.646091 -0.226683,1.15383 -0.40625,1.90625 -0.488583,1.45291 -2.4149,4.32995 -3.875,6.5625 -0.0212,0.334536 0.0099,0.665247 0,1 1.4601,-2.23255 3.38642,-5.10959 3.875,-6.5625 0.179567,-0.752422 0.26679,-1.26016 0.40625,-1.90625 0.431165,-0.522382 0.837969,-1.13164 1.15625,-1.875 0.481686,-1.12498 0.632092,-2.21311 0.5625,-3.09375 z  m -37,37.0938 -.0625,.5 c 0,2.09638 3.15828,4.0155 8.1875,5.3125 l .7188,2.7812 a 1.72959,1.71443 0 0,0 1.09375,1.125 c 0.223226,0.08562 0.356958,0.292694 0.96875,0.46875 3.22275,0.927443 8.13854,1.5625 13.6562,1.5625 5.51771,0 10.4648,-0.635057 13.6875,-1.5625 0.611792,-0.176056 0.776777,-0.383174 1,-0.46875 a 1.72959,1.71443 0 0,0 1.03125,-1.0625 l .8438,-2.9688 c 4.90634,-1.29494 8.0625,-3.12064 8.0625,-5.1875 l -.0625,-.5 c -0.467429,1.861 -3.49996,3.49979 -8,4.6875 l -.8438,2.9688 a 1.72959,1.71443 0 0,1 -1.03125,1.0625 c -0.223223,0.08558 -0.388208,0.292694 -1,0.46875 -3.22275,0.927443 -8.16979,1.5625 -13.6875,1.5625 -5.51771,0 -10.4335,-0.635057 -13.6562,-1.5625 -0.611792,-0.176056 -0.745524,-0.38313 -0.96875,-0.46875 a 1.72959,1.71443 0 0,1 -1.09375,-1.125 l -.7188,-2.7812 c -4.61274,-1.18959 -7.65317,-2.9194 -8.125,-4.8125 z "/>
<path style="fill:url(#linearGradient2902)" id="path2889" d="m -67.6875,24 c -4.93356,0 -8.9375,3.68569 -8.9375,8.25 0.01199,0.523077 0.0076,1.13063 0.0625,1.78125 -0.780775,0.412576 -0.88394,2.0297 -0.1875,3.65625 0.268552,0.627206 0.629875,1.14976 1,1.5625 0.01233,0.0138 0.05009,0.01781 0.0625,0.03125 0.08835,0.429754 0.143153,0.765245 0.25,1.25 0.330998,0.984301 1.7018,2.84589 2.90625,4.4375 0.120114,1.22782 0.116663,2.41588 -0.125,3.8125 -3.46682,2.85107 -12.3258,4.14217 -12.3125,7.09375 l -1.1875,7.6875 c 0,1.57228 2.35308,2.996 6.125,3.96875 l .5312,2.0938 a 1.29719,1.28582 0 0,0 0.8125,0.875 c 0.16742,0.06421 0.291156,0.180459 0.75,0.3125 2.30368,0.662953 5.78598,1.11345 9.6875,1.15625 -0.822865,-0.885806 -1.375,-1.94231 -1.375,-3.21875 a 2.00815,2.00815 0 0,1 0.03125,-0.3125 l 1.5625,-9.9375 .0312,-.3125 h 0.0625 c 0.148658,-1.79908 1.38551,-3.09551 2.71875,-3.96875 1.41964,-0.929826 3.13319,-1.63288 4.9375,-2.34375 0.590547,-0.232668 1.18935,-0.48327 1.78125,-0.71875 -1.66073,-0.715005 -3.23538,-1.47351 -4.28125,-2.375 -0.138644,-1.13062 -0.133079,-2.23015 -0.0625,-3.34375 1.09507,-1.67442 2.50856,-3.81657 2.875,-4.90625 0.134675,-0.564317 0.207904,-0.952931 0.3125,-1.4375 0.323373,-0.391786 0.605039,-0.848734 0.84375,-1.40625 0.661375,-1.54465 0.611565,-3.02973 -0.0625,-3.53125 0.0471,-0.671165 0.105312,-1.33263 0.125,-1.90625 3e-06,-4.56431 -4.00394,-8.25 -8.9375,-8.25 z "/>
<path style="opacity:.5" id="path2904" d="m -67.6875,24 c -4.93356,0 -8.9375,3.68569 -8.9375,8.25 0.0034,0.14697 0.02879,0.340611 0.03125,0.5 0.281793,-4.32866 4.15558,-7.75 8.90625,-7.75 4.70505,0 8.55881,3.35547 8.90625,7.625 0.0065,-0.119192 0.02737,-0.262025 0.03125,-0.375 3e-06,-4.56431 -4.00394,-8.25 -8.9375,-8.25 z  m -8.9062,10.0625 c -0.482133,0.287543 -0.692531,1.06173 -0.59375,2 0.08435,-0.489691 0.305786,-0.862571 0.625,-1.03125 -0.02985,-0.353812 -0.02429,-0.647071 -0.03125,-0.96875 z  m 17.7812,.1562 c -0.02264,0.316114 -0.03933,0.607395 -0.0625,0.9375 0.240933,0.17926 0.422544,0.486619 0.5,0.875 0.08262,-0.807343 -0.06662,-1.47626 -0.4375,-1.8125 z  m -13.6562,12.6562 c -0.01837,0.606334 -0.07055,1.23037 -0.1875,1.90625 -3.46682,2.85107 -12.3258,4.14217 -12.3125,7.09375 l -1.1875,7.6875 c 0,0.166299 0.01096,0.337383 0.0625,0.5 l 1.125,-7.1875 c -0.01329,-2.95158 8.84568,-4.24268 12.3125,-7.09375 0.181247,-1.04746 0.225875,-1.98866 0.1875,-2.90625 z  m 9.5938,.5625 c -0.01684,0.774444 -0.003,1.55437 0.09375,2.34375 0.790039,0.680972 1.89108,1.28307 3.09375,1.84375 0.395047,-0.160164 0.794101,-0.312241 1.1875,-0.46875 -1.66073,-0.715005 -3.23538,-1.47351 -4.28125,-2.375 -0.05518,-0.450011 -0.07926,-0.900741 -0.09375,-1.34375 z  m -6.6875,21.9062 -.0312,.0938 a 2.00815,2.00815 0 0,0 -0.03125,0.3125 c 0,0.817793 0.245731,1.53732 0.625,2.1875 0.253452,0.0063 0.492683,0.02843 0.75,0.03125 -0.690178,-0.74297 -1.16929,-1.6128 -1.3125,-2.625 z "/>
<path style="opacity:.1" id="path3699" d="m -67.6875,24 c -4.93356,0 -8.9375,3.68569 -8.9375,8.25 0.01199,0.523077 0.0076,1.13063 0.0625,1.78125 -0.780775,0.412576 -0.88394,2.0297 -0.1875,3.65625 0.268552,0.627206 0.629875,1.14976 1,1.5625 0.01233,0.0138 0.05009,0.01781 0.0625,0.03125 0.08835,0.429754 0.143153,0.765245 0.25,1.25 0.330998,0.984301 1.7018,2.84589 2.90625,4.4375 0.120114,1.22782 0.116663,2.41588 -0.125,3.8125 -3.46682,2.85107 -12.3258,4.14217 -12.3125,7.09375 l -1.1875,7.6875 c 0,1.57228 2.35308,2.996 6.125,3.96875 l .5312,2.0938 a 1.29719,1.28582 0 0,0 0.8125,0.875 c 0.16742,0.06421 0.291156,0.180459 0.75,0.3125 2.30368,0.662953 5.78598,1.11345 9.6875,1.15625 -0.822865,-0.885806 -1.375,-1.94231 -1.375,-3.21875 a 2.00815,2.00815 0 0,1 0.03125,-0.3125 l 1.5625,-9.9375 .0312,-.3125 h 0.0625 c 0.148658,-1.79908 1.38551,-3.09551 2.71875,-3.96875 1.41964,-0.929826 3.13319,-1.63288 4.9375,-2.34375 0.590547,-0.232668 1.18935,-0.48327 1.78125,-0.71875 -1.66073,-0.715005 -3.23538,-1.47351 -4.28125,-2.375 -0.138644,-1.13062 -0.133079,-2.23015 -0.0625,-3.34375 1.09507,-1.67442 2.50856,-3.81657 2.875,-4.90625 0.134675,-0.564317 0.207904,-0.952931 0.3125,-1.4375 0.323373,-0.391786 0.605039,-0.848734 0.84375,-1.40625 0.661375,-1.54465 0.611565,-3.02973 -0.0625,-3.53125 0.0471,-0.671165 0.105312,-1.33263 0.125,-1.90625 3e-06,-4.56431 -4.00394,-8.25 -8.9375,-8.25 z  m 0,1.9375 c 3.94626,0 6.96318,2.84428 7,6.25 0.000227,0.02097 0,0.04149 0,0.0625 -0.01886,0.487324 -0.07796,1.11101 -0.125,1.78125 a 1.93378,1.93378 0 0,0 0.5,1.4375 c 0.0018,-0.0028 0.02887,-0.01259 0.03125,0.09375 0.0062,0.278131 -0.07698,0.824944 -0.3125,1.375 -0.172558,0.403015 -0.358084,0.689837 -0.5625,0.9375 a 1.93378,1.93378 0 0,0 -0.375,0.8125 c -0.09577,0.443704 -0.184337,0.796576 -0.28125,1.21875 -0.06582,0.195728 -0.458557,1.00522 -0.96875,1.84375 -0.510193,0.838534 -1.13812,1.78497 -1.6875,2.625 a 1.93378,1.93378 0 0,0 -0.3125,0.9375 c -0.07525,1.18738 -0.06409,2.4316 0.09375,3.71875 a 1.93378,1.93378 0 0,0 0.65625,1.21875 c 0.335076,0.288818 0.723067,0.504486 1.09375,0.75 -1.1376,0.488669 -2.30489,0.913325 -3.34375,1.59375 -1.43523,0.940039 -2.93455,2.49395 -3.40625,4.65625 a 1.93378,1.93378 0 0,0 -0.25,0.75 l -.0312,.3125 -1.5312,9.8125 a 1.93378,1.93378 0 0,0 0,0.625 h -0.0625 c 0,0.385986 0.181393,0.701585 0.25,1.0625 -2.43589,-0.18384 -4.66227,-0.431799 -6.09375,-0.84375 -0.137054,-0.03944 -0.262384,-0.124763 -0.3125,-0.15625 l -.4375,-1.75 a 1.93378,1.93378 0 0,0 -1.40625,-1.40625 c -1.75923,-0.453691 -3.12039,-1.03141 -3.90625,-1.53125 -0.589396,-0.374884 -0.723249,-0.609044 -0.75,-0.625 l 1.1562,-7.3438 a 1.93378,1.93378 0 0,0 0.03125,-0.1875 c 0.0056,0.0361 0.07383,-0.116091 0.5625,-0.4375 0.651561,-0.428545 1.77546,-0.927776 3.0625,-1.4375 2.57407,-1.01945 5.72186,-1.96469 7.96875,-3.8125 a 1.93378,1.93378 0 0,0 0.6875,-1.15625 c 0.272547,-1.5751 0.288481,-2.99207 0.15625,-4.34375 a 1.93378,1.93378 0 0,0 -0.40625,-0.96875 c -0.596329,-0.788013 -1.2204,-1.64104 -1.71875,-2.375 -0.498352,-0.733955 -0.849156,-1.45439 -0.875,-1.53125 -0.06836,-0.331003 -0.10816,-0.614074 -0.1875,-1 a 1.93378,1.93378 0 0,0 -0.5,-0.9375 c -0.01653,-0.0179 -0.01533,0.01675 -0.03125,0 -0.0087,-0.0097 -0.02258,-0.02137 -0.03125,-0.03125 -0.237063,-0.269966 -0.456661,-0.606844 -0.625,-1 -0.24336,-0.568373 -0.328122,-1.15407 -0.3125,-1.4375 a 1.93378,1.93378 0 0,0 0.65625,-1.625 c -0.04483,-0.531318 -0.05027,-1.06808 -0.0625,-1.625 0,-0.01051 -5.7e-05,-0.02076 0,-0.03125 0.01849,-3.41963 3.0416,-6.28125 7,-6.28125 z "/>
<path style="opacity:.5;fill:#fff" id="path3685" d="m -58.7812,32.625 c -0.02645,0.485999 -0.05593,0.992271 -0.09375,1.53125 0.02407,0.01791 0.04002,0.04212 0.0625,0.0625 0.02339,-0.326605 0.0525,-0.677257 0.0625,-0.96875 0,-0.211412 -0.01438,-0.417637 -0.03125,-0.625 z  m -17.8125,.125 c -0.01085,0.16665 -0.03125,0.330792 -0.03125,0.5 0.0055,0.238625 0.02541,0.542646 0.03125,0.8125 0.01258,-0.0075 0.0183,-0.0244 0.03125,-0.03125 -0.03947,-0.467816 -0.02495,-0.873361 -0.03125,-1.28125 z  m -.5938,3.3125 c -0.121962,0.708058 0.02579,1.66345 0.4375,2.625 0.268552,0.627206 0.629875,1.14976 1,1.5625 0.01233,0.0138 0.05009,0.01781 0.0625,0.03125 0.08835,0.429754 0.143153,0.765245 0.25,1.25 0.330998,0.984301 1.7018,2.84589 2.90625,4.4375 0.02797,0.285885 0.04938,0.559041 0.0625,0.84375 0.01606,-0.625071 -0.0024,-1.22984 -0.0625,-1.84375 -1.20445,-1.59161 -2.57525,-3.4532 -2.90625,-4.4375 -0.106847,-0.484755 -0.16165,-0.820246 -0.25,-1.25 -0.01241,-0.01344 -0.05017,-0.01745 -0.0625,-0.03125 -0.370125,-0.412743 -0.731448,-0.935294 -1,-1.5625 -0.242055,-0.565326 -0.383505,-1.11213 -0.4375,-1.625 z  m 18.8125,.0312 c -0.05765,0.498068 -0.199078,1.03691 -0.4375,1.59375 -0.238711,0.557516 -0.520377,1.01446 -0.84375,1.40625 -0.104596,0.484569 -0.177825,0.873183 -0.3125,1.4375 -0.366437,1.08968 -1.77993,3.23183 -2.875,4.90625 -0.04249,0.670362 -0.05316,1.32998 -0.03125,2 0.0073,-0.334777 0.0099,-0.663902 0.03125,-1 1.09507,-1.67442 2.50856,-3.81657 2.875,-4.90625 0.134675,-0.564317 0.207904,-0.952931 0.3125,-1.4375 0.323373,-0.391786 0.605039,-0.848734 0.84375,-1.40625 0.413359,-0.965404 0.558531,-1.90047 0.4375,-2.59375 z  m -1.3125,15.5312 c -0.199333,0.08082 -0.395703,0.171972 -0.59375,0.25 -1.80431,0.710874 -3.51786,1.41392 -4.9375,2.34375 -1.33324,0.873239 -2.57009,2.16967 -2.71875,3.96875 h -0.0625 l -.0312,.3125 -1.5625,9.9375 a 2.00815,2.00815 0 0,0 -0.03125,0.3125 c 0,0.205826 0.03497,0.399155 0.0625,0.59375 l 1.5312,-9.8438 .0312,-.3125 h 0.0625 c 0.148658,-1.79908 1.38551,-3.09551 2.71875,-3.96875 1.41964,-0.929826 3.13319,-1.63288 4.9375,-2.34375 0.590547,-0.232668 1.18935,-0.48327 1.78125,-0.71875 -0.406236,-0.1749 -0.798045,-0.349688 -1.1875,-0.53125 z  m -26.4062,12.4375 -.0625,.5 c 0,1.57228 2.35308,2.996 6.125,3.96875 l .5312,2.0938 a 1.29719,1.28582 0 0,0 0.8125,0.875 c 0.16742,0.06421 0.291156,0.180459 0.75,0.3125 2.30368,0.662953 5.78598,1.11345 9.6875,1.15625 -0.29567,-0.318286 -0.537292,-0.666603 -0.75,-1.03125 -3.58947,-0.08941 -6.78576,-0.505771 -8.9375,-1.125 -0.458844,-0.132041 -0.58258,-0.24829 -0.75,-0.3125 a 1.29719,1.28582 0 0,1 -0.8125,-0.875 l -.5312,-2.0938 c -3.37296,-0.869862 -5.62673,-2.09389 -6.0625,-3.46875 z "/>
<path style="opacity:.15" id="path3694" d="m -67.6875,24 c -4.93356,0 -8.9375,3.68569 -8.9375,8.25 0.01199,0.523077 0.0076,1.13063 0.0625,1.78125 -0.780775,0.412576 -0.88394,2.0297 -0.1875,3.65625 0.268552,0.627206 0.629875,1.14976 1,1.5625 0.01233,0.0138 0.05009,0.01781 0.0625,0.03125 0.08835,0.429754 0.143153,0.765245 0.25,1.25 0.330998,0.984301 1.7018,2.84589 2.90625,4.4375 0.120114,1.22782 0.116663,2.41588 -0.125,3.8125 -3.46682,2.85107 -12.3258,4.14217 -12.3125,7.09375 l -1.1875,7.6875 c 0,1.57228 2.35308,2.996 6.125,3.96875 l .5312,2.0938 a 1.29719,1.28582 0 0,0 0.8125,0.875 c 0.16742,0.06421 0.291156,0.180459 0.75,0.3125 2.30368,0.662953 5.78598,1.11345 9.6875,1.15625 -0.822865,-0.885806 -1.375,-1.94231 -1.375,-3.21875 a 2.00815,2.00815 0 0,1 0.03125,-0.3125 l 1.5625,-9.9375 .0312,-.3125 h 0.0625 c 0.148658,-1.79908 1.38551,-3.09551 2.71875,-3.96875 1.41964,-0.929826 3.13319,-1.63288 4.9375,-2.34375 0.590547,-0.232668 1.18935,-0.48327 1.78125,-0.71875 -1.66073,-0.715005 -3.23538,-1.47351 -4.28125,-2.375 -0.138644,-1.13062 -0.133079,-2.23015 -0.0625,-3.34375 1.09507,-1.67442 2.50856,-3.81657 2.875,-4.90625 0.134675,-0.564317 0.207904,-0.952931 0.3125,-1.4375 0.323373,-0.391786 0.605039,-0.848734 0.84375,-1.40625 0.661375,-1.54465 0.611565,-3.02973 -0.0625,-3.53125 0.0471,-0.671165 0.105312,-1.33263 0.125,-1.90625 3e-06,-4.56431 -4.00394,-8.25 -8.9375,-8.25 z  m 0,1 c 4.42151,0 7.91904,3.25621 7.9375,7.21875 4.9e-05,0.01052 0,0.02072 0,0.03125 -0.01921,0.527397 -0.07787,1.17223 -0.125,1.84375 a 1.00467,1.00467 0 0,0 0.40625,0.875 c -0.03445,-0.02563 0.11502,0.147981 0.125,0.59375 0.01,0.445769 -0.125006,1.0619 -0.40625,1.71875 -0.204342,0.477247 -0.425929,0.870591 -0.6875,1.1875 a 1.00467,1.00467 0 0,0 -0.1875,0.40625 c -0.100381,0.465041 -0.167279,0.856748 -0.28125,1.34375 -0.0031,0.01319 -0.0281,0.01787 -0.03125,0.03125 -0.0032,0.0091 0.0035,0.05295 0,0.0625 -0.141228,0.383503 -0.561934,1.11479 -1.0625,1.9375 -0.522622,0.858962 -1.139,1.78633 -1.6875,2.625 a 1.00467,1.00467 0 0,0 -0.15625,0.5 c -0.07301,1.15193 -0.08612,2.31931 0.0625,3.53125 a 1.00467,1.00467 0 0,0 0.34375,0.625 c 0.700607,0.603887 1.71213,1.00519 2.625,1.46875 -1.75649,0.693502 -3.47876,1.3991 -4.96875,2.375 -1.31161,0.85907 -2.49564,2.25746 -2.90625,4.09375 a 1.00467,1.00467 0 0,0 -0.3125,0.625 l -.0312,.25 v 0.0625 l -1.5625,9.875 a 1.00467,1.00467 0 0,0 0.0625,0.46875 h -0.09375 c 0,0.761393 0.190031,1.45495 0.46875,2.09375 -3.00216,-0.149133 -5.72644,-0.489606 -7.5,-1 -0.354383,-0.10198 -0.26484,-0.131134 -0.65625,-0.28125 a 1.00467,1.00467 0 0,0 -0.03125,0 c -0.04326,-0.01546 0.01102,0.01802 -0.03125,0 0.01042,-0.003 0.02056,-0.02099 0,-0.03125 -0.04112,-0.02051 0.0086,0.02294 -0.03125,0 -0.03839,-0.02528 0.0056,-0.0037 -0.03125,-0.03125 -0.0351,-0.0297 0.002,0.03176 -0.03125,0 -0.03326,-0.03176 0.0313,0.0025 0,-0.03125 -0.02922,-0.03553 -0.0042,0.006 -0.03125,-0.03125 -0.02236,-0.04023 0.0199,0.01026 0,-0.03125 -0.0099,-0.02076 -0.02809,-0.01052 -0.03125,0 -0.01735,-0.04264 0.01475,0.01237 0,-0.03125 l -.5312,-2.0938 a 1.00467,1.00467 0 0,0 -0.71875,-0.71875 c -1.82012,-0.469394 -3.27004,-1.04145 -4.1875,-1.625 -0.895201,-0.569391 -1.14347,-1.05589 -1.15625,-1.34375 l 1.1562,-7.5625 a 1.00467,1.00467 0 0,0 0,-0.15625 c -0.0011,-0.235054 0.206074,-0.623372 0.96875,-1.125 0.762676,-0.501628 1.94558,-1.01464 3.25,-1.53125 2.60884,-1.03322 5.71857,-2.01132 7.71875,-3.65625 a 1.00467,1.00467 0 0,0 0.375,-0.625 c 0.257708,-1.48935 0.251409,-2.77033 0.125,-4.0625 a 1.00467,1.00467 0 0,0 -0.1875,-0.5 c -0.599162,-0.791758 -1.23422,-1.64662 -1.75,-2.40625 -0.491245,-0.723488 -0.88443,-1.35447 -1,-1.65625 -0.005,-0.02264 0.0048,-0.04048 0,-0.0625 -0.0022,-0.0062 -0.02929,-0.02543 -0.03125,-0.03125 -0.08689,-0.405755 -0.133438,-0.710025 -0.21875,-1.125 a 1.00467,1.00467 0 0,0 -0.21875,-0.5 c -0.06865,-0.07435 -0.04352,-0.02163 -0.09375,-0.0625 -0.291215,-0.333471 -0.571467,-0.760049 -0.78125,-1.25 -0.293741,-0.68604 -0.431823,-1.34854 -0.40625,-1.8125 0.02557,-0.463958 0.197807,-0.600972 0.125,-0.5625 a 1.00467,1.00467 0 0,0 0.53125,-0.96875 c -0.04921,-0.583155 -0.05075,-1.14975 -0.0625,-1.6875 0,-0.01053 -4.9e-05,-0.02073 0,-0.03125 0.018461,-3.96254 3.51599,-7.21875 7.9375,-7.21875 z "/>
<path style="fill:url(#linearGradient3886)" id="path3159" d="m 56,24 c -7.11555,0 -12.8182,5.35882 -12.8182,12 0.01605,0.707201 0.06889,1.72942 0.136368,2.59091 -1.2168,0.51643 -1.30559,2.88458 -0.272728,5.31818 0.409584,0.965047 0.931245,1.70604 1.5,2.31818 0.138191,0.68394 0.101934,0.990991 0.272725,1.77273 0.476599,1.42979 2.35562,4.232 4.09091,6.54545 0.170158,1.7767 0.346673,3.56967 0,5.59091 -5.00012,4.14839 -17.8828,5.93266 -17.8636,10.2273 l -.2727,1.6364 h 50.4545 l -.2727,-1.6364 c -0.0205,-3.67561 -12.9248,-5.93266 -17.8636,-10.2273 -0.199832,-1.64398 -0.237925,-3.28986 -0.136352,-4.90909 1.58123,-2.44015 3.69643,-5.63474 4.22727,-7.22727 0.190782,-0.80644 0.26022,-1.35107 0.409089,-2.04546 0.473816,-0.573936 0.878237,-1.22306 1.22728,-2.04545 0.981222,-2.31192 0.917798,-4.51892 -0.136352,-5.18182 0.06215,-0.931505 0.108982,-1.92266 0.136352,-2.72727 0,-6.64118 -5.70263,-12 -12.8182,-12 z "/>
<path style="opacity:.6;fill:url(#linearGradient3081)" id="path3079" d="m 31.5938,36 c -4.7437,0 -8.5625,3.57255 -8.5625,8 0.01067,0.471466 0.04877,1.14442 0.09375,1.71875 -0.8112,0.344286 -0.844826,1.9401 -0.15625,3.5625 0.273056,0.643366 0.620831,1.12315 1,1.53125 0.09213,0.455962 0.04239,0.666343 0.15625,1.1875 0.317732,0.953196 1.59314,2.8327 2.75,4.375 0.11344,1.18446 0.231115,2.37126 0,3.71875 -3.33341,2.76559 -11.919,3.94942 -11.9062,6.8125 l -.1875,1.0938 h 17.7188 c 2.16938,-1.70915 6.40615,-3.06565 10.2812,-4.625 -2.38519,-0.9563 -4.97245,-1.98012 -6.46875,-3.28125 -0.133221,-1.09599 -0.161467,-2.20176 -0.09375,-3.28125 1.05415,-1.62677 2.45861,-3.75082 2.8125,-4.8125 0.127186,-0.537627 0.182004,-0.912078 0.28125,-1.375 0.315878,-0.382624 0.579808,-0.795488 0.8125,-1.34375 0.654148,-1.54128 0.609025,-3.02682 -0.09375,-3.46875 0.04144,-0.621004 0.07549,-1.27609 0.09375,-1.8125 -1e-06,-4.42745 -3.78755,-8 -8.53125,-8 z "/>
<path style="opacity:.5;fill:#fff" id="path3854" d="m 43.2188,36.5 c -0.0074,0.168627 -0.03125,0.329616 -0.03125,0.5 0.01006,0.443268 0.06357,1.05053 0.09375,1.625 0.01311,-0.0061 0.01787,-0.02557 0.03125,-0.03125 -0.05446,-0.69531 -0.07286,-1.43845 -0.09375,-2.09375 z  m 25.5625,.0312 c -0.02514,0.696252 -0.04375,1.43812 -0.09375,2.1875 0.01252,0.0079 0.01901,0.02294 0.03125,0.03125 0.0293,-0.604534 0.07613,-1.23191 0.09375,-1.75 0,-0.159769 -0.02472,-0.310522 -0.03125,-0.46875 z  m -26.4375,4.8438 c -0.08524,0.985206 0.140604,2.24267 0.6875,3.53125 0.409584,0.965047 0.931245,1.70036 1.5,2.3125 0.138191,0.68394 0.110459,0.999514 0.28125,1.78125 0.476599,1.42979 2.35846,4.21779 4.09375,6.53125 0.07447,0.777534 0.154982,1.57285 0.1875,2.375 0.01439,-1.15843 -0.08258,-2.27947 -0.1875,-3.375 -1.73529,-2.31346 -3.61715,-5.10146 -4.09375,-6.53125 -0.170791,-0.781736 -0.143059,-1.09731 -0.28125,-1.78125 -0.568755,-0.612144 -1.09042,-1.34745 -1.5,-2.3125 -0.373287,-0.879524 -0.608949,-1.75409 -0.6875,-2.53125 z  m 27.125,.0625 c -0.07899,0.762566 -0.288292,1.60178 -0.65625,2.46875 -0.349038,0.82239 -0.744934,1.48856 -1.21875,2.0625 -0.148869,0.694384 -0.215468,1.22481 -0.40625,2.03125 -0.530841,1.59253 -2.63752,4.7786 -4.21875,7.21875 -0.04623,0.736956 -0.07365,1.47409 -0.0625,2.21875 0.0087,-0.407426 0.03711,-0.813943 0.0625,-1.21875 1.58123,-2.44015 3.68791,-5.62622 4.21875,-7.21875 0.190782,-0.80644 0.257381,-1.33687 0.40625,-2.03125 0.473816,-0.573936 0.869712,-1.24011 1.21875,-2.0625 0.537467,-1.26636 0.733698,-2.50033 0.65625,-3.46875 z  m -46.4062,2.9688 c -0.01567,0.198496 -0.03125,0.391425 -0.03125,0.59375 0.0047,0.205587 0.01787,0.492673 0.03125,0.75 0.01978,-0.01045 0.0417,-0.02242 0.0625,-0.03125 -0.03433,-0.438416 -0.04532,-0.892641 -0.0625,-1.3125 z  m 17.0312,.0312 c -0.01926,0.443529 -0.03107,0.904046 -0.0625,1.375 0.0251,0.01578 0.03908,0.0441 0.0625,0.0625 0.01521,-0.296824 0.02244,-0.616258 0.03125,-0.875 0,-0.191698 -0.01728,-0.374228 -0.03125,-0.5625 z  m -17.5625,3.25 c -0.109862,0.687631 0.02999,1.63359 0.4375,2.59375 0.273056,0.643366 0.620831,1.12315 1,1.53125 0.09213,0.455962 0.04239,0.666343 0.15625,1.1875 0.317732,0.953196 1.59314,2.8327 2.75,4.375 0.05477,0.571907 0.107991,1.15918 0.125,1.75 0.05909,-0.957781 -0.03992,-1.86165 -0.125,-2.75 -1.15686,-1.5423 -2.43227,-3.4218 -2.75,-4.375 -0.11386,-0.521157 -0.06412,-0.731538 -0.15625,-1.1875 -0.379169,-0.408096 -0.726944,-0.887884 -1,-1.53125 -0.234178,-0.551761 -0.372562,-1.09632 -0.4375,-1.59375 z  m 18,.0938 c -0.06297,0.46994 -0.185224,0.979227 -0.40625,1.5 -0.232692,0.548262 -0.496622,0.961126 -0.8125,1.34375 -0.09925,0.462922 -0.154064,0.837373 -0.28125,1.375 -0.353894,1.06168 -1.75835,3.18573 -2.8125,4.8125 -0.03767,0.6005 -0.05452,1.20194 -0.03125,1.8125 0.0048,-0.272696 0.01431,-0.542529 0.03125,-0.8125 1.05415,-1.62677 2.45861,-3.75082 2.8125,-4.8125 0.127186,-0.537627 0.182004,-0.912078 0.28125,-1.375 0.315878,-0.382624 0.579808,-0.795488 0.8125,-1.34375 0.391671,-0.92284 0.507025,-1.82917 0.40625,-2.5 z  m -25.5938,20.2188 l -.1562,1 h 16.75 c 0.248578,-0.347126 0.566186,-0.682839 0.96875,-1 h -17.5625 z  m 16,4 -.1562,1 50.4375,0 -.1562,-1 -50.125,0 z "/>
<path style="opacity:.1" id="path3887" d="m 56,24 c -7.11555,0 -12.8125,5.35882 -12.8125,12 0.01605,0.707201 0.05752,1.73225 0.125,2.59375 -1.2168,0.51643 -1.31411,2.8789 -0.28125,5.3125 0.409584,0.965047 0.931245,1.70036 1.5,2.3125 0.138191,0.68394 0.110459,0.999514 0.28125,1.78125 0.476599,1.42979 2.35846,4.21779 4.09375,6.53125 0.170158,1.7767 0.346673,3.57251 0,5.59375 -1.50988,1.25269 -3.74987,2.29424 -6.125,3.25 -2.38519,-0.9563 -4.97245,-1.98012 -6.46875,-3.28125 -0.133221,-1.09599 -0.161467,-2.20176 -0.09375,-3.28125 1.05415,-1.62677 2.45861,-3.75082 2.8125,-4.8125 0.127186,-0.537627 0.182004,-0.912078 0.28125,-1.375 0.315878,-0.382624 0.579808,-0.795488 0.8125,-1.34375 0.654148,-1.54128 0.609025,-3.02682 -0.09375,-3.46875 0.04144,-0.621004 0.07549,-1.27609 0.09375,-1.8125 -1e-06,-4.42745 -3.78755,-8 -8.53125,-8 -4.7437,0 -8.5625,3.57255 -8.5625,8 0.01067,0.471466 0.04877,1.14442 0.09375,1.71875 -0.8112,0.344286 -0.844826,1.9401 -0.15625,3.5625 0.273056,0.643366 0.620831,1.12315 1,1.53125 0.09213,0.455962 0.04239,0.666343 0.15625,1.1875 0.317732,0.953196 1.59314,2.8327 2.75,4.375 0.11344,1.18446 0.231115,2.37126 0,3.71875 -3.33341,2.76559 -11.919,3.94942 -11.9062,6.8125 l -.1875,1.0938 h 17.7188 c -0.904248,0.712414 -1.47269,1.49307 -1.46875,2.375 l -.25,1.625 h 50.4375 l -.25,-1.625 c -0.0205,-3.67561 -12.9362,-5.95538 -17.875,-10.25 -0.199832,-1.64398 -0.226573,-3.28702 -0.125,-4.90625 1.58123,-2.44015 3.68791,-5.62622 4.21875,-7.21875 0.190782,-0.80644 0.257381,-1.33687 0.40625,-2.03125 0.473816,-0.573936 0.869712,-1.24011 1.21875,-2.0625 0.981222,-2.31192 0.92915,-4.52461 -0.125,-5.1875 0.06215,-0.931505 0.09763,-1.91413 0.125,-2.71875 0,-6.64118 -5.69694,-12 -12.8125,-12 z  m 0,1.9688 c 6.10881,0 10.8077,4.47637 10.8438,9.96875 0.000139,0.02114 0,0.04133 0,0.0625 -0.02699,0.789811 -0.06704,1.72501 -0.125,2.59375 a 1.95853,1.95853 0 0,0 0.78125,1.6875 c 0.01137,0.04678 0.05581,0.189104 0.0625,0.46875 0.01338,0.559292 -0.164539,1.46859 -0.5625,2.40625 -0.289567,0.682266 -0.565121,1.14929 -0.90625,1.5625 a 1.95853,1.95853 0 0,0 -0.40625,0.84375 c -0.156115,0.728182 -0.227857,1.22626 -0.375,1.875 -0.160277,0.453374 -0.75106,1.61181 -1.5,2.84375 -0.765213,1.25871 -1.70507,2.64827 -2.5,3.875 a 1.95853,1.95853 0 0,0 -0.3125,0.9375 c -0.1081,1.72328 -0.05992,3.50289 0.15625,5.28125 a 1.95853,1.95853 0 0,0 0.65625,1.21875 c 2.97778,2.58938 7.51024,4.14023 11.3125,5.6875 1.90113,0.773633 3.63359,1.54817 4.71875,2.21875 0.337637,0.208644 0.458467,0.362865 0.65625,0.53125 h -45.2188 c 0.07928,-0.134404 0.03511,-0.182977 0.4375,-0.5 a 1.95853,1.95853 0 0,0 -1.21875,-3.5 h -13.7188 c 0.534553,-0.251012 0.917838,-0.486246 1.59375,-0.75 2.4892,-0.971337 5.55311,-1.86484 7.75,-3.6875 a 1.95853,1.95853 0 0,0 0.6875,-1.15625 c 0.282224,-1.64548 0.113022,-3.0699 0,-4.25 a 1.95853,1.95853 0 0,0 -0.375,-1 c -0.55659,-0.742036 -1.12732,-1.55653 -1.59375,-2.28125 -0.44798,-0.696052 -0.788778,-1.33018 -0.84375,-1.46875 -0.03249,-0.234585 -0.002,-0.39134 -0.125,-1 a 1.95853,1.95853 0 0,0 -0.46875,-0.96875 c -0.264634,-0.284823 -0.44878,-0.522295 -0.625,-0.9375 -0.2381,-0.561003 -0.312595,-1.10452 -0.3125,-1.375 a 1.95853,1.95853 0 0,0 0.59375,-1.59375 c -0.041574,-0.530838 -0.0524,-1.15276 -0.0625,-1.5625 0,-0.01053 -5.8e-05,-0.02074 0,-0.03125 0.01806,-3.28726 2.84527,-6 6.59375,-6 3.73649,0 6.52694,2.6867 6.5625,5.96875 0.000228,0.02106 0,0.04139 0,0.0625 -0.01775,0.498645 -0.05508,1.10807 -0.09375,1.6875 a 1.95853,1.95853 0 0,0 0.5625,1.5 c 0.0071,0.25402 -0.08016,0.79631 -0.3125,1.34375 -0.162765,0.383502 -0.283481,0.58148 -0.5,0.84375 a 1.95853,1.95853 0 0,0 -0.40625,0.84375 c -0.10298,0.480338 -0.160164,0.817884 -0.25,1.21875 -0.07574,0.200992 -0.452897,0.952867 -0.9375,1.75 -0.501654,0.825179 -1.12486,1.74246 -1.65625,2.5625 a 1.95853,1.95853 0 0,0 -0.3125,0.9375 c -0.07508,1.19685 -0.02326,2.43655 0.125,3.65625 a 1.95853,1.95853 0 0,0 0.65625,1.21875 c 1.95594,1.70082 4.65197,2.67107 7.03125,3.625 a 1.95853,1.95853 0 0,0 1.4375,0 c 2.43666,-0.980516 4.8244,-2.04269 6.65625,-3.5625 a 1.95853,1.95853 0 0,0 0.6875,-1.15625 c 0.398067,-2.32088 0.169844,-4.35158 0,-6.125 a 1.95853,1.95853 0 0,0 -0.375,-1 c -1.67334,-2.23086 -3.52246,-5.18048 -3.78125,-5.90625 -0.100111,-0.522543 -0.09398,-0.821551 -0.25,-1.59375 a 1.95853,1.95853 0 0,0 -0.46875,-0.96875 c -0.442905,-0.476693 -0.80928,-0.974863 -1.125,-1.71875 -0.418752,-0.986647 -0.590223,-1.96919 -0.5625,-2.53125 0.01271,-0.25777 0.03325,-0.323353 0.03125,-0.34375 -0.00018,-0.0018 0.000807,-0.03069 0,-0.03125 a 1.95853,1.95853 0 0,0 0.9375,-1.8125 c -0.062119,-0.793049 -0.078006,-1.76413 -0.09375,-2.4375 0,-0.01058 -3.5e-05,-0.02067 0,-0.03125 0.01806,-5.50681 4.72319,-10 10.8438,-10 z "/>
<path style="opacity:.15" id="path3878" d="m 56,24 c -7.11555,0 -12.8125,5.35882 -12.8125,12 0.01605,0.707201 0.05752,1.73225 0.125,2.59375 -1.2168,0.51643 -1.31411,2.8789 -0.28125,5.3125 0.409584,0.965047 0.931245,1.70036 1.5,2.3125 0.138191,0.68394 0.110459,0.999514 0.28125,1.78125 0.476599,1.42979 2.35846,4.21779 4.09375,6.53125 0.170158,1.7767 0.346673,3.57251 0,5.59375 -1.50988,1.25269 -3.74987,2.29424 -6.125,3.25 -2.38519,-0.9563 -4.97245,-1.98012 -6.46875,-3.28125 -0.133221,-1.09599 -0.161467,-2.20176 -0.09375,-3.28125 1.05415,-1.62677 2.45861,-3.75082 2.8125,-4.8125 0.127186,-0.537627 0.182004,-0.912078 0.28125,-1.375 0.315878,-0.382624 0.579808,-0.795488 0.8125,-1.34375 0.654148,-1.54128 0.609025,-3.02682 -0.09375,-3.46875 0.04144,-0.621004 0.07549,-1.27609 0.09375,-1.8125 -1e-06,-4.42745 -3.78755,-8 -8.53125,-8 -4.7437,0 -8.5625,3.57255 -8.5625,8 0.01067,0.471466 0.04877,1.14442 0.09375,1.71875 -0.8112,0.344286 -0.844826,1.9401 -0.15625,3.5625 0.273056,0.643366 0.620831,1.12315 1,1.53125 0.09213,0.455962 0.04239,0.666343 0.15625,1.1875 0.317732,0.953196 1.59314,2.8327 2.75,4.375 0.11344,1.18446 0.231115,2.37126 0,3.71875 -3.33341,2.76559 -11.919,3.94942 -11.9062,6.8125 l -.1875,1.0938 h 17.7188 c -0.904248,0.712414 -1.47269,1.49307 -1.46875,2.375 l -.25,1.625 h 50.4375 l -.25,-1.625 c -0.0205,-3.67561 -12.9362,-5.95538 -17.875,-10.25 -0.199832,-1.64398 -0.226573,-3.28702 -0.125,-4.90625 1.58123,-2.44015 3.68791,-5.62622 4.21875,-7.21875 0.190782,-0.80644 0.257381,-1.33687 0.40625,-2.03125 0.473816,-0.573936 0.869712,-1.24011 1.21875,-2.0625 0.981222,-2.31192 0.92915,-4.52461 -0.125,-5.1875 0.06215,-0.931505 0.09763,-1.91413 0.125,-2.71875 0,-6.64118 -5.69694,-12 -12.8125,-12 z  m 0,.9688 c 6.61539,0 11.8256,4.92996 11.8438,11 3.2e-05,0.01059 0,0.02065 0,0.03125 -0.02718,0.797524 -0.06494,1.75612 -0.125,2.65625 a 0.973308,0.973308 0 0,0 0.4375,0.875 c 0.120106,0.07553 0.357215,0.444229 0.375,1.1875 0.01779,0.743271 -0.180432,1.76503 -0.625,2.8125 -0.319483,0.752754 -0.654624,1.31844 -1.0625,1.8125 a 0.973308,0.973308 0 0,0 -0.1875,0.40625 c -0.150228,0.700722 -0.213179,1.23236 -0.375,1.9375 -0.000503,0.0022 -0.03075,-0.0022 -0.03125,0 -0.204856,0.61457 -0.846976,1.81397 -1.625,3.09375 -0.778024,1.27978 -1.67599,2.68286 -2.46875,3.90625 a 0.973308,0.973308 0 0,0 -0.15625,0.46875 c -0.104817,1.67094 -0.08295,3.38299 0.125,5.09375 a 0.973308,0.973308 0 0,0 0.34375,0.625 c 2.72205,2.367 7.20556,3.9432 11.0312,5.5 1.91284,0.778401 3.6551,1.54672 4.84375,2.28125 0.594327,0.367266 1.04766,0.7245 1.3125,1.03125 0.264841,0.30675 0.342775,0.512734 0.34375,0.6875 a 0.973308,0.973308 0 0,0 0,0.15625 l .0625,.5 h -48.125 l .0625,-.5 a 0.973308,0.973308 0 0,0 0,-0.15625 c -0.0021,-0.461198 0.305238,-1.00377 1.09375,-1.625 a 0.973308,0.973308 0 0,0 -0.59375,-1.71875 h -16.5625 a 0.973308,0.973308 0 0,0 0,-0.125 c -0.001,-0.229084 0.199737,-0.582139 0.9375,-1.0625 0.737763,-0.480361 1.89347,-0.975987 3.15625,-1.46875 2.52556,-0.985525 5.53856,-1.92986 7.46875,-3.53125 a 0.973308,0.973308 0 0,0 0.34375,-0.59375 c 0.256514,-1.49558 0.113232,-2.78645 0,-3.96875 a 0.973308,0.973308 0 0,0 -0.1875,-0.5 c -0.567577,-0.756683 -1.17133,-1.59031 -1.65625,-2.34375 -0.484916,-0.753441 -0.841487,-1.46196 -0.9375,-1.75 -0.06315,-0.347388 -0.01728,-0.529371 -0.125,-1.0625 a 0.973308,0.973308 0 0,0 -0.25,-0.46875 c -0.32225,-0.346834 -0.587567,-0.72002 -0.8125,-1.25 -0.297228,-0.700318 -0.422837,-1.39312 -0.40625,-1.84375 0.01244,-0.33797 0.06994,-0.425305 0.0625,-0.4375 a 0.973308,0.973308 0 0,0 0.5625,-0.96875 c -0.042893,-0.547684 -0.082989,-1.21625 -0.09375,-1.65625 -0.000202,-0.0083 0.000184,-0.02313 0,-0.03125 0.01822,-3.85334 3.35034,-7 7.59375,-7 4.24341,0 7.54445,3.14215 7.5625,7 5e-05,0.01061 0,0.02063 0,0.03125 -0.01801,0.517347 -0.05369,1.14972 -0.09375,1.75 a 0.973308,0.973308 0 0,0 0.4375,0.875 c -0.05667,-0.03563 0.112729,0.09349 0.125,0.53125 0.01227,0.437765 -0.126253,1.09028 -0.40625,1.75 -0.197941,0.466383 -0.389749,0.770937 -0.65625,1.09375 a 0.973308,0.973308 0 0,0 -0.1875,0.40625 c -0.09896,0.461587 -0.148037,0.833261 -0.25,1.28125 h -0.03125 c -0.116383,0.349149 -0.516786,1.15375 -1.03125,2 -0.514464,0.846251 -1.12703,1.77706 -1.65625,2.59375 a 0.973308,0.973308 0 0,0 -0.15625,0.46875 c -0.07138,1.13781 -0.04694,2.31128 0.09375,3.46875 a 0.973308,0.973308 0 0,0 0.34375,0.625 c 1.72472,1.49976 4.3365,2.48238 6.71875,3.4375 a 0.973308,0.973308 0 0,0 0.75,0 c 2.40571,-0.968063 4.70511,-2.02081 6.375,-3.40625 a 0.973308,0.973308 0 0,0 0.34375,-0.59375 c 0.372214,-2.17015 0.170002,-4.06868 0,-5.84375 a 0.973308,0.973308 0 0,0 -0.1875,-0.5 c -1.71274,-2.2834 -3.58392,-5.18926 -3.9375,-6.25 -0.128852,-0.631004 -0.103416,-0.93077 -0.25,-1.65625 a 0.973308,0.973308 0 0,0 -0.25,-0.46875 c -0.506213,-0.544831 -0.949563,-1.17611 -1.3125,-2.03125 -0.467889,-1.10242 -0.662581,-2.17558 -0.625,-2.9375 0.03758,-0.761923 0.249302,-1.0404 0.375,-1.09375 a 0.973308,0.973308 0 0,0 0.59375,-0.96875 c -0.064417,-0.822397 -0.108901,-1.84137 -0.125,-2.53125 -0.000198,-0.0085 0.000191,-0.02285 0,-0.03125 0.01811,-6.07004 5.22836,-11 11.8438,-11 z "/>
<path style="opacity:.5" id="path3868" d="m 56,24 c -7.11555,0 -12.8125,5.35882 -12.8125,12 0.0031,0.136422 0.02626,0.343378 0.03125,0.5 0.282075,-6.40407 5.84825,-11.5 12.7812,-11.5 6.94437,0 12.5162,5.11236 12.7812,11.5312 0.00611,-0.169214 0.025899,-0.373934 0.03125,-0.53125 0,-6.64118 -5.69694,-12 -12.8125,-12 z  m -24.4062,12 c -4.7437,0 -8.5625,3.57255 -8.5625,8 0.0025,0.111573 0.02593,0.276086 0.03125,0.40625 0.327306,-4.14515 4.00433,-7.40625 8.53125,-7.40625 4.53831,0 8.19129,3.27744 8.5,7.4375 0.0061,-0.141312 0.02684,-0.30789 0.03125,-0.4375 -1e-06,-4.42745 -3.78755,-8 -8.53125,-8 z  m 11.6875,2.625 c -0.748195,0.34946 -1.07391,1.40046 -0.9375,2.75 0.07574,-0.875448 0.396239,-1.53827 0.96875,-1.78125 -0.02518,-0.321517 -0.01328,-0.626696 -0.03125,-0.96875 z  m 25.4375,.125 c -0.01621,0.334326 -0.0091,0.637043 -0.03125,0.96875 0.4643,0.291971 0.708415,0.886915 0.78125,1.65625 0.114155,-1.21749 -0.128989,-2.20339 -0.75,-2.625 z  m -45.6562,7 c -0.48925,0.258567 -0.65236,1.00979 -0.53125,1.9375 0.07577,-0.474273 0.26263,-0.828217 0.59375,-0.96875 -0.02537,-0.32389 -0.0452,-0.635956 -0.0625,-0.96875 z  m 17.0312,.125 c -0.01633,0.318533 -0.04105,0.616043 -0.0625,0.9375 0.281988,0.177324 0.432466,0.519198 0.5,0.96875 0.116733,-0.87122 -0.02674,-1.58352 -0.4375,-1.90625 z  m 22.8125,11.7812 c -0.01552,1.15026 0.04659,2.30953 0.1875,3.46875 4.93881,4.29462 17.8545,6.57439 17.875,10.25 l .0938,.625 h 0.15625 l -.25,-1.625 c -0.0205,-3.67561 -12.9362,-5.95538 -17.875,-10.25 -0.09992,-0.821991 -0.168532,-1.65009 -0.1875,-2.46875 z  m -13.8125,.25 c -0.0089,0.720281 -0.05459,1.44383 -0.1875,2.21875 -1.50988,1.25269 -3.74987,2.29424 -6.125,3.25 -2.38519,-0.9563 -4.97245,-1.98012 -6.46875,-3.28125 -0.05911,-0.486308 -0.106436,-0.981739 -0.125,-1.46875 -0.01436,0.817684 0.0251,1.64686 0.125,2.46875 1.4963,1.30113 4.08356,2.32495 6.46875,3.28125 2.37513,-0.95576 4.61512,-1.99731 6.125,-3.25 0.194959,-1.13668 0.229286,-2.18796 0.1875,-3.21875 z  m -22.0938,1.2812 c -0.0204,0.299909 -0.07089,0.590755 -0.125,0.90625 -3.33341,2.76559 -11.919,3.94942 -11.9062,6.8125 l -.1875,1.0938 h 0.15625 l .0312,-.0938 c -0.012777,-2.86308 8.57284,-4.04691 11.9062,-6.8125 0.115558,-0.673746 0.139709,-1.29306 0.125,-1.90625 z  m 4.5312,9.8125 c -0.309783,0.432596 -0.502184,0.885698 -0.5,1.375 l -.25,1.625 h 0.15625 l .0938,-.625 c -0.003936,-0.88193 0.564502,-1.66259 1.46875,-2.375 h -0.96875 z "/>
</g>
</svg>
