<svg xmlns="http://www.w3.org/2000/svg" viewBox="0 0 128 128" xmlns:xlink="http://www.w3.org/1999/xlink">
<defs>
<filter color-interpolation-filters="sRGB" id="filter5411-2-8">
<feGaussianBlur stdDeviation="1.38082"/>
</filter>
<linearGradient gradientTransform="matrix(2.28051 -.76331 .70701 2.44737 142.57526 3.15408)" xlink:href="#linearGradient8265-821-176-38-919-66-249-2-3-2" id="linearGradient3356" x1="152.75" gradientUnits="userSpaceOnUse" x2="261.042"/>
<linearGradient gradientTransform="matrix(2.28051 -.76331 .70701 2.44737 142.57526 3.15408)" xlink:href="#linearGradient8265-821-176-38-919-66-249-2-3-2" id="linearGradient3352" y1="22.292" x1="11.566" y2="33.955" gradientUnits="userSpaceOnUse" x2="15.215"/>
<linearGradient id="linearGradient8265-821-176-38-919-66-249-2-3-2">
<stop offset="0" stop-color="#fff" stop-opacity=".2"/>
<stop offset="1" stop-color="#fff" stop-opacity="0"/>
</linearGradient>
<linearGradient id="linearGradient3995">
<stop offset="0" stop-color="#6e6e6e"/>
<stop offset="1" stop-color="#7d7d7d" stop-opacity="0"/>
</linearGradient>
<linearGradient gradientTransform="translate(162.83449 -97.42668)" xlink:href="#linearGradient5271-0-1" id="linearGradient3737" y1="212.577" x1="-98.592" y2="107.052" x2="-129.684" gradientUnits="userSpaceOnUse"/>
<linearGradient xlink:href="#linearGradient3995" id="linearGradient4001" y1="94.211" x1="214.279" y2="13.009" x2="185.781" gradientUnits="userSpaceOnUse"/>
<linearGradient id="linearGradient5271-0-1">
<stop offset="0" stop-color="#bdc0c0"/>
<stop offset=".567" stop-color="#e2d5d5" stop-opacity=".192"/>
<stop offset=".873" stop-color="#f9f9f9"/>
<stop offset=".94" stop-color="#f9f9f9"/>
<stop offset="1" stop-color="#f9f9f9"/>
</linearGradient>
<linearGradient id="linearGradient3223">
<stop offset="0" stop-color="#37434a"/>
<stop offset=".189" stop-color="#adafb0"/>
<stop offset=".263" stop-color="#c4c4c4"/>
<stop offset=".881" stop-color="#838383"/>
<stop offset="1" stop-color="#838383"/>
</linearGradient>
<linearGradient xlink:href="#linearGradient3223" id="linearGradient3221" y1="89.029" x1="231.396" y2="8.715" x2="204.387" gradientUnits="userSpaceOnUse"/>
</defs>
<g stroke="#c5bfbd" fill-rule="evenodd" transform="translate(-.00008 -.00005)">
<path fill="#ededed" d="m12.3215,122.0261c-.625-.6046-.6118-.6332-.9126-1.0234-.3945-.5117-.7885-1.0252-.98-1.4427-.2507-.5468-.3294-1.4-.3316-1.4204-.1191-1.1004-1.0005-21.8477-1.8719-45.4068-1.3522-36.5566-1.203-40.8098-1.0556-43.4179 .0222-.3929 .5244-2.1903 .5602-2.3325 .0902-.3578 .8873-1.5405 1.0857-1.9653 .1881-.4028 1.5848-1.6436 1.7872-1.7587 1.366-.7757 8.0756-3.0288 17.5502-5.7242l16.4202-4.4272 2.7892-.7095 1.8864-.3429 2.5467-.1564 1.6718,.7576 .9267,.7724 2.2208,2.4603c1.5394,1.6907 2.4443,2.5007 2.7459,2.5007 .3016,0 7.8802-2.8631 24.299-7.854 19.6394-5.9699 22.8047-7.3163 25.1936-7.7356 .1614-.0283 .9367-.2331 1.661-.1444 .7497,.0919 1.5853,.2077 1.7846,.2674 .1506,.0451 .8433,.1875 1.3242,.602 .4412,.3803 .672,.8968 .8312,.9947 1.1211,.689 .233,7.6418-.1505,37.1117l-.471,36.1927-49.4132,22.453c-27.1773,12.3491-43.8346,19.6404-49.4492,22.5208-.3826,.1963-2.3734-.2842-3.0794-1.2277l-.0493-.0712 .4794,.5273 0,.0001v.0001h0z"/>
<path fill="url(#linearGradient3737)" d="m12.485,122.0778c-.625-.6046-.6118-.6332-.9126-1.0234-.3945-.5117-.7885-1.0252-.98-1.4427-.2507-.5468-.3294-1.4-.3316-1.4204-.1191-1.1004-1.0005-21.8476-1.8719-45.4068-1.3522-36.5566-1.203-40.8098-1.0556-43.4179 .0222-.3929 .5244-2.1903 .5602-2.3325 .0902-.3578 .8873-1.5405 1.0856-1.9653 .1881-.4028 1.5848-1.6436 1.7872-1.7587 1.366-.7757 8.0757-3.0288 17.5502-5.7242l16.4202-4.4272 2.7892-.7095 1.8864-.3429 2.5467-.1564 1.6718,.7576 .9267,.7724 2.2208,2.4603c1.5394,1.6908 2.4443,2.5007 2.7459,2.5007 .3016,0 7.8802-2.8631 24.299-7.854 19.6394-5.9699 22.8047-7.3163 25.1936-7.7356 .1614-.0283 .9367-.2331 1.661-.1444 .7497,.0919 1.5853,.2077 1.7846,.2674 .1506,.0451 .8433,.1875 1.3242,.602 .4412,.3803 .672,.8968 .8312,.9947 1.1211,.689 .233,7.6418-.1505,37.1117l-.471,36.1927-49.4132,22.453c-27.1773,12.3491-43.8346,19.6404-49.4492,22.5208-.3826,.1963-2.3734-.2842-3.0794-1.2277l-.0493-.0712 .4794,.5273 0,.0001v.0001h0z"/>
</g>
<g transform="translate(-136.57019 17.55928)">
<path fill="url(#linearGradient3221)" fill-rule="evenodd" stroke="url(#linearGradient4001)" d="m155.5025,100.6187c.1532-.6649 .1067-1.1743 .1342-1.5616 .0471-.6637 .1951-15.5849 .0185-32.4285l.2157-12.8938 .2841-5.8999 .4011-3.2507c.0167-.5452 .816-3.983 2.1279-6.9949 .9847-2.2607 2.9018-4.0103 3.2802-4.3877 1.6295-1.5483 5.5757-2.812 51.3921-19.6955 .8386-.309 1.5716-4.2171 2.6342-6.934 .6967-1.7815 1.7671-2.7417 2.2908-2.9208 24.0927-8.2407 37.5794-12.2139 38.4703-12.1552 .8284-.0636 3.882,.0295 3.6469,3.6585-.2166,3.3439-2.2653,13.3678-2.4244,14.2745l-.3344,2.4015-.1678,1.9669-.0855,2.1383-.3024,19.2065c-.1734,24.4295 .0336,29.3162-.1841,31.21-.0399,.3468-.1551,1.3267-.2234,1.5142-.4522,1.2417-.8451,3.6199-4.599,5.3278-5.4046,2.4589-16.5333,5.8429-44.011,14.8859-27.233,8.9625-49.3734,16.4971-50.3902,16.7-1.0126,.2748-2.5781,.4972-3.6594,.5276-.8636,.0241-.7143,.0882-1.7195,.0361l1.8179-1.8071 .6675-.8789 .3598-.6976h0-0l.2736-.8063 .0866-.5358-.0001,.0005v-0h-.0001 0z"/>
<path opacity=".399" fill="url(#linearGradient3352)" filter="url(#filter5411-2-8)" d="m162.153,33.6505c-1.308,1.5004-1.9025,2.1109-2.6278,3.5825-1.2233,2.482-2.8501,9.0821-3.0934,10.7337l-.3683,26.8189c.046,.1406 .1183,11.8104 .2473,11.8648 .129,.0544 13.8439-7.3721 13.9664-7.4417l81.88-48.2874c.1999-.1103 6.6315-3.7153 6.5733-3.9486l.2538-13.4428c-.2427-1.2082 .5537-8.4104-.2792-7.9342-1.0788,.6168-5.8311,1.481-7.3823,2.0802l-87.475,24.7543-1.6949,1.2203z"/>
<path opacity=".399" fill="url(#linearGradient3356)" filter="url(#filter5411-2-8)" d="m162.153,33.6505c-1.308,1.5004-1.9025,2.1109-2.6278,3.5825-1.2233,2.482-2.8501,9.0821-3.0934,10.7337l-.3683,26.8189c.046,.1406 .1183,11.8104 .2473,11.8648 .129,.0544 14.5593-5.0468 14.6819-5.1163l85.368-26.1966c.1999-.1103 .5104-27.0767 .4522-27.3101l.1579-14.6893c-.0509-1.0164 1.3207-8.4104 .4878-7.9342-1.0788,.6168-4.5847,1.6728-6.1358,2.272l-87.475,24.7543z"/>
</g>
</svg>
