<?xml version="1.0" encoding="UTF-8" standalone="no"?>
<svg
   xmlns:dc="http://purl.org/dc/elements/1.1/"
   xmlns:cc="http://creativecommons.org/ns#"
   xmlns:rdf="http://www.w3.org/1999/02/22-rdf-syntax-ns#"
   xmlns:svg="http://www.w3.org/2000/svg"
   xmlns="http://www.w3.org/2000/svg"
   xmlns:xlink="http://www.w3.org/1999/xlink"
   xmlns:sodipodi="http://sodipodi.sourceforge.net/DTD/sodipodi-0.dtd"
   xmlns:inkscape="http://www.inkscape.org/namespaces/inkscape"
   width="128"
   version="1.0"
   height="128"
   id="svg2"
   inkscape:version="0.48.4 r9939"
   sodipodi:docname="document-properties.svg">
  <metadata
     id="metadata37">
    <rdf:RDF>
      <cc:Work
         rdf:about="">
        <dc:format>image/svg+xml</dc:format>
        <dc:type
           rdf:resource="http://purl.org/dc/dcmitype/StillImage" />
      </cc:Work>
    </rdf:RDF>
  </metadata>
  <sodipodi:namedview
     pagecolor="#ffffff"
     bordercolor="#666666"
     borderopacity="1"
     objecttolerance="10"
     gridtolerance="10"
     guidetolerance="10"
     inkscape:pageopacity="0"
     inkscape:pageshadow="2"
     inkscape:window-width="1920"
     inkscape:window-height="1018"
     id="namedview35"
     showgrid="false"
     inkscape:zoom="2"
     inkscape:cx="304.91987"
     inkscape:cy="117.36148"
     inkscape:window-x="-8"
     inkscape:window-y="-8"
     inkscape:window-maximized="1"
     inkscape:current-layer="svg2" />
  <defs
     id="defs3451">
    <linearGradient
       id="linearGradient4357-6">
      <stop
         offset="0"
         style="stop-color:#0d0e09"
         id="stop4359-1" />
      <stop
         offset="1"
         style="stop-color:#abaeab;stop-opacity:0"
         id="stop4361-8" />
    </linearGradient>
    <linearGradient
       id="linearGradient9647-9">
      <stop
         offset="0"
         style="stop-color:#151414"
         id="stop9649-8" />
      <stop
         offset="1"
         style="stop-color:#5c5a5a"
         id="stop9651-2" />
    </linearGradient>
    <linearGradient
       id="linearGradient4059-1">
      <stop
         offset="0"
         style="stop-color:#4a4c37"
         id="stop4061-7" />
      <stop
         offset="0.31291944"
         style="stop-color:#2a2c1d"
         id="stop4063-6" />
      <stop
         offset="0.66048187"
         style="stop-color:#090908"
         id="stop4065-7" />
      <stop
         offset="1"
         style="stop-color:#1d240d"
         id="stop4067-4" />
    </linearGradient>
    <linearGradient
       id="linearGradient4081">
      <stop
         offset="0"
         style="stop-color:#aaa"
         id="stop4083" />
      <stop
         offset="1"
         style="stop-color:#f0f0f0"
         id="stop4085" />
    </linearGradient>
    <radialGradient
       inkscape:collect="always"
       xlink:href="#linearGradient4357-6"
       id="radialGradient3022"
       gradientUnits="userSpaceOnUse"
       gradientTransform="matrix(1.5021316,-1.3574825,1.4293473,1.5817673,-219.77302,108.69497)"
       cx="119.33224"
       cy="123.7699"
       fx="119.33224"
       fy="123.7699"
       r="42.606647" />
    <linearGradient
       inkscape:collect="always"
       xlink:href="#linearGradient4081"
       id="linearGradient3032"
       gradientUnits="userSpaceOnUse"
       x1="49"
       y1="70"
       x2="49"
       y2="23.729059"
       gradientTransform="matrix(1.4404743,0,0,1.4404762,-5.0304423,-4.4147317)" />
    <radialGradient
       inkscape:collect="always"
       xlink:href="#linearGradient4059-1"
       id="radialGradient3042"
       gradientUnits="userSpaceOnUse"
       gradientTransform="matrix(5.3365205e-4,2.951956,-3.6849507,6.1376761e-4,-0.87852229,-357.94127)"
       cx="128.6185"
       cy="-5.0455413"
       fx="128.6185"
       fy="-5.0455413"
       r="45" />
    <linearGradient
       inkscape:collect="always"
       xlink:href="#linearGradient9647-9"
       id="linearGradient3044"
       gradientUnits="userSpaceOnUse"
       gradientTransform="matrix(1.3444445,0,0,1.3444438,-0.96822294,-0.30026981)"
       x1="48.24577"
       y1="102.10169"
       x2="17.000467"
       y2="-21.966103" />
  </defs>
  <g
     id="g3059">
    <g
       id="g3048">
      <rect
         width="112.93334"
         x="8.1922255"
         y="-120.95031"
         rx="8.0666676"
         ry="8.0666628"
         height="112.93327"
         style="opacity:0.76300001;fill:#090909;stroke:none"
         id="rect9752"
         transform="scale(1,-1)" />
      <rect
         width="112.93334"
         x="7.6453319"
         y="7.7663932"
         rx="8.0666676"
         ry="8.0666628"
         height="112.93327"
         style="fill:url(#radialGradient3042);stroke:url(#linearGradient3044);stroke-width:8.06709385"
         id="rect9754" />
      <rect
         id="rect4329"
         style="opacity:0.7;fill:url(#radialGradient3022);stroke:none"
         height="104.922"
         ry="4.918107"
         rx="3.9666474"
         y="11.662567"
         x="11.750751"
         width="104.84328" />
      <path
         style="opacity:0.1;stroke:none"
         id="path3849"
         d="m 26.614982,31.642178 0,8.597843 c 0.01215,1.745985 0.97075,2.424387 2.340767,2.880953 -1.433881,0.651251 -2.350063,1.536831 -2.340766,2.925952 l 0,8.597842 c 0.07465,1.495986 0.97075,2.424388 2.340767,2.880954 -1.51042,0.350383 -2.177174,1.465079 -2.340766,2.925952 l 0,8.597842 c 0.07465,1.495986 0.97075,2.424388 2.340767,2.880954 -1.433885,0.65127 -2.178188,1.708718 -2.340766,2.925972 l 0,8.597843 c 0.07465,1.495985 0.97075,2.424387 2.340767,2.880953 -1.510416,0.350403 -2.177173,1.465083 -2.340766,2.925962 l 0,8.597842 c 0.103825,1.762407 1.270693,2.696248 2.92596,2.925858 l 8.642846,0 c 9.5e-4,1e-5 0.269141,8e-5 0.270089,0 1.396288,-0.21814 2.205157,-1.082115 2.61086,-2.385679 0.346871,1.502392 1.442551,2.186149 2.88095,2.385679 l 54.738023,0 c 1.762436,-0.10376 2.696236,-1.270566 2.925866,-2.925858 l 0,-8.642857 c -0.0775,-1.516735 -0.98851,-2.446113 -2.385688,-2.880953 1.502398,-0.346871 2.186138,-1.442557 2.385688,-2.880953 l 0,-8.642858 c -0.37143,-1.619933 -1.13652,-2.370556 -2.385688,-2.880953 1.405688,-0.456358 2.217008,-1.764713 2.385688,-2.880954 l 0,-8.642857 c -0.0775,-1.516735 -0.98851,-2.446113 -2.385688,-2.880953 1.502398,-0.346871 2.186138,-1.442558 2.385688,-2.880954 l 0,-8.642857 c -0.0775,-1.516735 -0.98851,-2.446113 -2.385688,-2.880953 1.502398,-0.346871 2.186138,-1.442557 2.385688,-2.880953 l 0,-8.642858 c -0.10376,-1.762405 -1.2706,-2.696275 -2.925866,-2.925963 l -54.693008,0 c -1.747641,0.0075 -2.473406,1.162891 -2.92595,2.385784 -0.346866,-1.50236 -0.72383,-2.373694 -2.880949,-2.385785 l -8.597831,0 c -1.526374,-0.0176 -2.976326,1.655019 -2.970994,2.971013 z m 14.449753,9.138031 c 0.558112,1.246965 0.991845,1.796853 2.295757,2.340775 -1.297899,0.272582 -1.85524,1.034816 -2.295746,2.340764 -0.496858,-1.321148 -1.2534,-1.905697 -2.340771,-2.340775 1.198403,-0.40408 1.93521,-1.110651 2.340771,-2.340775 z m 0,14.404762 c 0.276862,1.246965 1.13247,1.953103 2.295757,2.340775 -1.297899,0.272582 -1.902115,1.159816 -2.295746,2.340764 -0.282877,-1.267982 -1.151465,-1.970631 -2.340771,-2.340775 1.267982,-0.282878 1.970628,-1.151469 2.340771,-2.340775 z m 0,14.404762 c 0.276862,1.246965 1.13247,1.953103 2.295757,2.340775 -1.297897,0.272599 -1.902114,1.159823 -2.295746,2.340774 -0.496858,-1.321148 -1.2534,-1.905697 -2.340771,-2.340775 1.198403,-0.40408 2.02896,-1.376276 2.340771,-2.340775 z m 0,14.404762 c 0.276862,1.246965 1.13247,1.953103 2.295757,2.340775 -1.297895,0.2726 -1.902113,1.159822 -2.295746,2.340774 -0.282877,-1.267982 -1.151465,-1.970631 -2.340771,-2.340775 1.267982,-0.282878 1.970628,-1.151469 2.340771,-2.340775 z"
         inkscape:connector-curvature="0"
         sodipodi:nodetypes="cccccccccccccccccccccccccccccccccccccccccccccccccccccccccccccccc" />
      <path
         style="opacity:0.15;stroke:none"
         id="path3845"
         d="m 29.405896,30.111682 a 1.4709519,1.4709538 0 0 0 -1.350444,1.485491 l 0,8.642858 a 1.4709519,1.4709538 0 0 0 1.485489,1.485491 l 8.642846,0 a 1.4709519,1.4709538 0 0 0 1.485489,-1.485491 l 0,-8.642858 a 1.4709519,1.4709538 0 0 0 -1.485489,-1.485491 l -8.642846,0 a 1.4709519,1.4709538 0 0 0 -0.135045,0 z m 14.404743,0 a 1.4709519,1.4709538 0 0 0 -1.350444,1.485491 l 0,8.642858 a 1.4709519,1.4709538 0 0 0 1.485489,1.485491 l 54.738023,0 a 1.4709519,1.4709538 0 0 0 1.485493,-1.485491 l 0,-8.642858 a 1.4709519,1.4709538 0 0 0 -1.485493,-1.485491 l -54.738023,0 a 1.4709519,1.4709538 0 0 0 -0.135045,0 z M 29.405896,44.516444 a 1.4709519,1.4709538 0 0 0 -1.350444,1.485491 l 0,8.642857 a 1.4709519,1.4709538 0 0 0 1.485489,1.485492 l 8.642846,0 a 1.4709519,1.4709538 0 0 0 1.485489,-1.485492 l 0,-8.642857 a 1.4709519,1.4709538 0 0 0 -1.485489,-1.485491 l -8.642846,0 a 1.4709519,1.4709538 0 0 0 -0.135045,0 z m 14.404743,0 a 1.4709519,1.4709538 0 0 0 -1.350444,1.485491 l 0,8.642857 a 1.4709519,1.4709538 0 0 0 1.485489,1.485492 l 54.738023,0 a 1.4709519,1.4709538 0 0 0 1.485493,-1.485492 l 0,-8.642857 a 1.4709519,1.4709538 0 0 0 -1.485493,-1.485491 l -54.738023,0 a 1.4709519,1.4709538 0 0 0 -0.135045,0 z M 29.405896,58.921206 a 1.4709519,1.4709538 0 0 0 -1.350444,1.485491 l 0,8.642857 a 1.4709519,1.4709538 0 0 0 1.485489,1.485492 l 8.642846,0 a 1.4709519,1.4709538 0 0 0 1.485489,-1.485492 l 0,-8.642857 a 1.4709519,1.4709538 0 0 0 -1.485489,-1.485491 l -8.642846,0 a 1.4709519,1.4709538 0 0 0 -0.135045,0 z m 14.404743,0 a 1.4709519,1.4709538 0 0 0 -1.350444,1.485491 l 0,8.642857 a 1.4709519,1.4709538 0 0 0 1.485489,1.485492 l 54.738023,0 a 1.4709519,1.4709538 0 0 0 1.485493,-1.485492 l 0,-8.642857 a 1.4709519,1.4709538 0 0 0 -1.485493,-1.485491 l -54.738023,0 a 1.4709519,1.4709538 0 0 0 -0.135045,0 z M 29.405896,73.325968 a 1.4709519,1.4709538 0 0 0 -1.350444,1.485491 l 0,8.642858 a 1.4709519,1.4709538 0 0 0 1.485489,1.485491 l 8.642846,0 a 1.4709519,1.4709538 0 0 0 1.485489,-1.485491 l 0,-8.642858 a 1.4709519,1.4709538 0 0 0 -1.485489,-1.485491 l -8.642846,0 a 1.4709519,1.4709538 0 0 0 -0.135045,0 z m 14.404743,0 a 1.4709519,1.4709538 0 0 0 -1.350444,1.485491 l 0,8.642858 a 1.4709519,1.4709538 0 0 0 1.485489,1.485491 l 54.738023,0 a 1.4709519,1.4709538 0 0 0 1.485493,-1.485491 l 0,-8.642858 a 1.4709519,1.4709538 0 0 0 -1.485493,-1.485491 l -54.738023,0 a 1.4709519,1.4709538 0 0 0 -0.135045,0 z M 29.405896,87.73073 a 1.4709519,1.4709538 0 0 0 -1.350444,1.485491 l 0,8.642857 a 1.4709519,1.4709538 0 0 0 1.485489,1.485492 l 8.642846,0 a 1.4709519,1.4709538 0 0 0 1.485489,-1.485492 l 0,-8.642857 A 1.4709519,1.4709538 0 0 0 38.183787,87.73073 l -8.642846,0 a 1.4709519,1.4709538 0 0 0 -0.135045,0 z m 14.404743,0 a 1.4709519,1.4709538 0 0 0 -1.350444,1.485491 l 0,8.642857 a 1.4709519,1.4709538 0 0 0 1.485489,1.485492 l 54.738023,0 a 1.4709519,1.4709538 0 0 0 1.485493,-1.485492 l 0,-8.642857 A 1.4709519,1.4709538 0 0 0 98.683707,87.73073 l -54.738023,0 a 1.4709519,1.4709538 0 0 0 -0.135045,0 z"
         inkscape:connector-curvature="0" />
      <path
         style="opacity:0.3;stroke:none"
         id="path3839"
         d="m 29.540941,31.597173 0,8.642858 8.642846,0 0,-8.642858 -8.642846,0 z m 14.404743,0 0,8.642858 54.738023,0 0,-8.642858 -54.738023,0 z m -11.523795,2.880953 2.880949,0 0,2.880952 -2.880949,0 0,-2.880952 z m -2.880948,11.523809 0,8.642857 8.642846,0 0,-8.642857 -8.642846,0 z m 14.404743,0 0,8.642857 54.738023,0 0,-8.642857 -54.738023,0 z m -11.523795,2.880953 2.880949,0 0,2.880952 -2.880949,0 0,-2.880952 z m -2.880948,11.523809 0,8.642857 8.642846,0 0,-8.642857 -8.642846,0 z m 14.404743,0 0,8.642857 54.738023,0 0,-8.642857 -54.738023,0 z m -11.523795,2.880953 2.880949,0 0,2.880952 -2.880949,0 0,-2.880952 z m -2.880948,11.523809 0,8.642858 8.642846,0 0,-8.642858 -8.642846,0 z m 14.404743,0 0,8.642858 54.738023,0 0,-8.642858 -54.738023,0 z m -11.523795,2.880953 2.880949,0 0,2.880952 -2.880949,0 0,-2.880952 z m -2.880948,11.523809 0,8.642857 8.642846,0 0,-8.642857 -8.642846,0 z m 14.404743,0 0,8.642857 54.738023,0 0,-8.642857 -54.738023,0 z m -11.523795,2.880953 2.880949,0 0,2.880952 -2.880949,0 0,-2.880952 z"
         inkscape:connector-curvature="0" />
      <path
         style="fill:url(#linearGradient3032);stroke:none"
         id="path3794"
         d="m 29.540941,30.156697 0,8.642857 8.642846,0 0,-8.642857 -8.642846,0 z m 14.404743,0 0,8.642857 54.738023,0 0,-8.642857 -54.738023,0 z m -11.523795,2.880952 2.880949,0 0,2.880953 -2.880949,0 0,-2.880953 z m -2.880948,11.52381 0,8.642857 8.642846,0 0,-8.642857 -8.642846,0 z m 14.404743,0 0,8.642857 54.738023,0 0,-8.642857 -54.738023,0 z m -11.523795,2.880952 2.880949,0 0,2.880953 -2.880949,0 0,-2.880953 z m -2.880948,11.52381 0,8.642857 8.642846,0 0,-8.642857 -8.642846,0 z m 14.404743,0 0,8.642857 54.738023,0 0,-8.642857 -54.738023,0 z m -11.523795,2.880952 2.880949,0 0,2.880953 -2.880949,0 0,-2.880953 z m -2.880948,11.52381 0,8.642857 8.642846,0 0,-8.642857 -8.642846,0 z m 14.404743,0 0,8.642857 54.738023,0 0,-8.642857 -54.738023,0 z m -11.523795,2.880953 2.880949,0 0,2.880952 -2.880949,0 0,-2.880952 z m -2.880948,11.523809 0,8.642857 8.642846,0 0,-8.642857 -8.642846,0 z m 14.404743,0 0,8.642857 54.738023,0 0,-8.642857 -54.738023,0 z m -11.523795,2.880952 2.880949,0 0,2.880953 -2.880949,0 0,-2.880953 z"
         inkscape:connector-curvature="0" />
      <path
         style="opacity:0.75;fill:#ffffff;stroke:none"
         id="path3821"
         d="m 29.540941,30.156697 0,1.440476 8.642846,0 0,-1.440476 -8.642846,0 z m 14.404743,0 0,1.440476 54.738023,0 0,-1.440476 -54.738023,0 z m -11.523795,5.761905 0,1.440476 2.880949,0 0,-1.440476 -2.880949,0 z m -2.880948,8.642857 0,1.440476 8.642846,0 0,-1.440476 -8.642846,0 z m 14.404743,0 0,1.440476 54.738023,0 0,-1.440476 -54.738023,0 z m -11.523795,5.761905 0,1.440476 2.880949,0 0,-1.440476 -2.880949,0 z m -2.880948,8.642857 0,1.440476 8.642846,0 0,-1.440476 -8.642846,0 z m 14.404743,0 0,1.440476 54.738023,0 0,-1.440476 -54.738023,0 z m -11.523795,5.761905 0,1.440476 2.880949,0 0,-1.440476 -2.880949,0 z m -2.880948,8.642857 0,1.440476 8.642846,0 0,-1.440476 -8.642846,0 z m 14.404743,0 0,1.440476 54.738023,0 0,-1.440476 -54.738023,0 z m -11.523795,5.761905 0,1.440476 2.880949,0 0,-1.440476 -2.880949,0 z m -2.880948,8.642857 0,1.440476 8.642846,0 0,-1.440476 -8.642846,0 z m 14.404743,0 0,1.440476 54.738023,0 0,-1.440476 -54.738023,0 z m -11.523795,5.761905 0,1.440476 2.880949,0 0,-1.440476 -2.880949,0 z"
         inkscape:connector-curvature="0" />
      <path
         style="opacity:0.15;stroke:none"
         id="path3830"
         d="m 32.421889,31.597173 0,1.440476 2.880949,0 0,-1.440476 -2.880949,0 z m -2.880948,5.761905 0,1.440476 8.642846,0 0,-1.440476 -8.642846,0 z m 14.404743,0 0,1.440476 54.738023,0 0,-1.440476 -54.738023,0 z m -11.523795,8.642857 0,1.440476 2.880949,0 0,-1.440476 -2.880949,0 z m -2.880948,5.761905 0,1.440476 8.642846,0 0,-1.440476 -8.642846,0 z m 14.404743,0 0,1.440476 54.738023,0 0,-1.440476 -54.738023,0 z m -11.523795,8.642857 0,1.440476 2.880949,0 0,-1.440476 -2.880949,0 z m -2.880948,5.761905 0,1.440476 8.642846,0 0,-1.440476 -8.642846,0 z m 14.404743,0 0,1.440476 54.738023,0 0,-1.440476 -54.738023,0 z m -11.523795,8.642857 0,1.440477 2.880949,0 0,-1.440477 -2.880949,0 z m -2.880948,5.761905 0,1.440476 8.642846,0 0,-1.440476 -8.642846,0 z m 14.404743,0 0,1.440476 54.738023,0 0,-1.440476 -54.738023,0 z m -11.523795,8.642857 0,1.440476 2.880949,0 0,-1.440476 -2.880949,0 z m -2.880948,5.761905 0,1.440476 8.642846,0 0,-1.440476 -8.642846,0 z m 14.404743,0 0,1.440476 54.738023,0 0,-1.440476 -54.738023,0 z"
         inkscape:connector-curvature="0" />
    </g>
  </g>
</svg>
