<svg xmlns="http://www.w3.org/2000/svg" viewBox="0 0 128 128" xmlns:xlink="http://www.w3.org/1999/xlink">
<defs>
<linearGradient gradientTransform="matrix(-1 0 0 1 96 0)" id="linearGradient2980-1" xlink:href="#linearGradient4081-8" y1="72" y2="24" x2="0" gradientUnits="userSpaceOnUse"/>
<linearGradient id="linearGradient9647-2">
<stop offset="0" stop-color="#151414"/>
<stop offset="1" stop-color="#5c5a5a"/>
</linearGradient>
<linearGradient id="linearGradient4081-8">
<stop offset="0" stop-color="#aaa"/>
<stop offset="1" stop-color="#f0f0f0"/>
</linearGradient>
<linearGradient gradientTransform="matrix(1.00956 0 0 1.00567 17.09537 17.59809)" xlink:href="#linearGradient9647-2" id="linearGradient3139" y1="102.102" x1="48.246" y2="-21.966" gradientUnits="userSpaceOnUse" x2="17"/>
<radialGradient cx="119.332" cy="123.77" gradientTransform="matrix(1.0428 -.94238 .99228 1.09809 -149.07741 78.52216)" id="radialGradient3146" r="42.607" gradientUnits="userSpaceOnUse">
<stop offset="0" stop-color="#0d0e09"/>
<stop offset="1" stop-color="#abaeab" stop-opacity="0"/>
</radialGradient>
<radialGradient cx="128.619" cy="-5.046" gradientTransform="matrix(.0004 2.20813 -2.76706 .00046 17.16272 -249.92558)" id="radialGradient3137" r="45" gradientUnits="userSpaceOnUse">
<stop offset="0" stop-color="#4a4c37"/>
<stop offset=".313" stop-color="#2a2c1d"/>
<stop offset=".66" stop-color="#090908"/>
<stop offset="1" stop-color="#1d240d"/>
</radialGradient>
</defs>
<g transform="matrix(1.33172 0 0 1.33686 -23.73447 -23.82634)">
<path opacity=".763" fill="#090909" d="m30.0314-108.296h72.6876a6.0573,6.034 0 0,1 6.058,6.034v72.4083a6.0573,6.034 0 0,1 -6.058,6.0341h-72.6876a6.0573,6.034 0 0,1 -6.0574-6.0341v-72.4083a6.0573,6.034 0 0,1 6.0574-6.034" transform="scale(1 -1)"/>
<path fill="url(#radialGradient3137)" stroke="url(#linearGradient3139)" stroke-width="6.046" d="m29.6207,23.6321h72.6883a6.0573,6.034 0 0,1 6.057,6.0341v72.4088a6.0573,6.034 0 0,1 -6.057,6.034h-72.6883a6.0573,6.034 0 0,1 -6.0573-6.034v-72.4088a6.0573,6.034 0 0,1 6.0573-6.0341"/>
</g>
<g transform="matrix(1.44047 0 0 1.44048 -5.03085 -4.41427)">
<path opacity=".7" fill="url(#radialGradient3146)" d="m14.4038,11.1608h67.2764a2.7537,3.4142 0 0,1 2.7537,3.4142v66.01a2.7537,3.4142 0 0,1 -2.7537,3.4142h-67.2764a2.7537,3.4142 0 0,1 -2.7538-3.4142v-66.01a2.7537,3.4142 0 0,1 2.7538-3.4142"/>
</g>
<g transform="matrix(1.44047 0 0 1.44048 -5.03121 -4.41391)">
<path opacity=".08" d="m48,22.0312c-14.8565,0-26.9688,12.1122-26.9688,26.9688 0,14.8565 12.1122,26.9688 26.9688,26.9688 14.8565,0 26.9688-12.1122 26.9688-26.9688 0-14.8565-12.1122-26.9688-26.9688-26.9688zm-11.0312,24.2188l4.8125,2.7812-4.8125,2.7812v-5.5625zm12,0 4.8125,2.7812-4.8125,2.7812 0-1.7812 0-.125a1.0401,1.0401 0 0,0 -.0312-.25 1.0401,1.0401 0 0,0 -.0312-.25l-.0312-.125a1.0401,1.0401 0 0,0 0-.0938l-.0312-.0938a1.0401,1.0401 0 0,0 -.0312-.0625 1.0401,1.0401 0 0,0 .0312-.0625l.0312-.0938a1.0401,1.0401 0 0,0 0-.0938l.0312-.125a1.0401,1.0401 0 0,0 .0312-.2188v-.0312a1.0401,1.0401 0 0,0 .0312-.25v-.125-1.7812z" transform="matrix(-1 0 0 1 96 0)"/>
<path opacity=".1" d="m48,23.0625c-14.2915,0-25.9375,11.646-25.9375,25.9375 0,14.2915 11.646,25.9375 25.9375,25.9375 14.2915,0 25.9375-11.646 25.9375-25.9375 0-14.2915-11.646-25.9375-25.9375-25.9375zm11.9375,19.9375h.125v12.0625h-.125v-5.0312c0-0 0-.125 0-.125 0-0-.0312-.125-.0312-.125-0-0 0-.125 0-.125-0-0-.0312-.125-.0312-.125-0-0-.0312-.0938-.0312-.0938-0-0-.0625-.125-.0625-.125-0-0-.0312-.125-.0312-.125-0-0-.0625-.125-.0625-.125-0-0-.0193-.0116-.0312-.0312 .0119-.0197 .0312-.0312 .0312-.0312 0-0 .0625-.125 .0625-.125 0-0 .0312-.125 .0312-.125 0-0 .0625-.125 .0625-.125 0-0 .0312-.0938 .0312-.0938 0-0 .0312-.125 .0312-.125 0-0-0-.125 0-.125 0-0 .0312-.125 .0312-.125 0-0 0-.125 0-.125v-5.0312zm-24,1.4375 7.9375,4.5938-7.9375,4.5938 0-9.1875zm12,0 7.9375,4.5938-7.9375,4.5938 0-3.5938c0-0 0-.125 0-.125 0-0-.0312-.125-.0312-.125-0-0 0-.125 0-.125-0-0-.0312-.125-.0312-.125-0-0-.0312-.0938-.0312-.0938-0-0-.0625-.125-.0625-.125-0-0-.0312-.125-.0312-.125-0-0-.0625-.125-.0625-.125-0-0-.0193-.0116-.0312-.0312 .0119-.0197 .0312-.0312 .0312-.0312 0-0 .0625-.125 .0625-.125 0-0 .0312-.125 .0312-.125 0-0 .0625-.125 .0625-.125 0-0 .0312-.0938 .0312-.0938 0-0 .0312-.125 .0312-.125 0-0-0-.125 0-.125 0-0 .0312-.125 .0312-.125 0-0 0-.125 0-.125v-3.5938z" transform="matrix(-1 0 0 1 96 0)"/>
<path opacity=".15" d="m48,24.0312c-13.7725,0-24.9688,11.1963-24.9688,24.9688 0,13.7725 11.1963,24.9688 24.9688,24.9688 13.7725,0 24.9688-11.1963 24.9688-24.9688 0-13.7725-11.1963-24.9688-24.9688-24.9688zm10.9688,18 2.0625,0 0,14-2.0625,0 0-6a.9579,.9579 0 0,0 -1.4375-.8438l-10.5625,6.125v-5.2812a.9579,.9579 0 0,0 -1.4375-.8438l-10.5625,6.125v-12.5625l10.5625,6.125a.9579,.9579 0 0,0 1.4375-.8438v-5.2812l10.5625,6.125a.9579,.9579 0 0,0 1.4375-.8438v-6z" transform="matrix(-1 0 0 1 96 0)"/>
<path opacity=".3" d="m48,25c13.2548,0 24,10.7452 24,24 0,13.2548-10.7452,24-24,24-13.2548,0-24-10.7452-24-24 0-13.2548 10.7452-24 24-24zm14,16.0625-12,6.9688 0-6.9688-12,6.9688 0-6.9688-4,0v15.9375h4v-6.9688l12,6.9688v-6.9688l12,6.9688v-15.9375z"/>
<path fill="url(#linearGradient2980-1)" d="m48,24c13.2548,0 24,10.7452 24,24 0,13.2548-10.7452,24-24,24-13.2548,0-24-10.7452-24-24 0-13.2548 10.7452-24 24-24zm14,16.0625-12,6.9688 0-6.9688-12,6.9688 0-6.9688-4,0v15.9375h4v-6.9688l12,6.9688v-6.9688l12,6.9688v-15.9375z"/>
<path opacity=".75" fill="#fff" d="m48,24c13.2548,0 24,10.7452 24,24 0,.1656 .0033,.3352 0,.5-.2638-13.0261-10.9107-23.5-24-23.5-13.0893,0-23.7362,10.4739-24,23.5-.0033-.1648 0-.3344 0-.5 0-13.2548 10.7452-24 24-24zm2,25.0312 12,6.9688v1l-12-6.9688v-1zm-12,0l12,6.9688v1l-12-6.9688v-1zm0,6.9688v1h-4v-1h4z"/>
<path opacity=".15" d="m62,39.0625 0,1-12,6.9688 0-1 12-6.9688zm-12,0 0,1-12,6.9688 0-1 12-6.9688zm-12,0 0,1-4,0 0-1 4,0zm34,8.4375c.0033,.1648 0,.3344 0,.5 0,13.2548-10.7452,24-24,24-13.2548,0-24-10.7452-24-24 0-.1656-.0033-.3352 0-.5 .2638,13.0261 10.9107,23.5 24,23.5 13.0893,0 23.7362-10.4739 24-23.5z"/>
</g>
</svg>
