<svg xmlns="http://www.w3.org/2000/svg" viewBox="0 0 128 128" xmlns:xlink="http://www.w3.org/1999/xlink">
<defs>
<linearGradient gradientTransform="matrix(0 -1 1 0 4 100)" xlink:href="#linearGradient4081" id="linearGradient3045" x1="27" gradientUnits="userSpaceOnUse" x2="69"/>
<linearGradient id="linearGradient9647-9">
<stop offset="0" stop-color="#151414"/>
<stop offset="1" stop-color="#5c5a5a"/>
</linearGradient>
<linearGradient id="linearGradient4081">
<stop offset="0" stop-color="#aaa"/>
<stop offset="1" stop-color="#f0f0f0"/>
</linearGradient>
<linearGradient gradientTransform="matrix(1.00956 0 0 1.00567 17.09537 17.59809)" xlink:href="#linearGradient9647-9" id="linearGradient3139" y1="102.102" x1="48.246" y2="-21.966" gradientUnits="userSpaceOnUse" x2="17"/>
<radialGradient cx="119.332" cy="123.77" gradientTransform="matrix(1.0428 -.94238 .99228 1.09809 -149.07741 78.52216)" id="radialGradient3146" r="42.607" gradientUnits="userSpaceOnUse">
<stop offset="0" stop-color="#0d0e09"/>
<stop offset="1" stop-color="#abaeab" stop-opacity="0"/>
</radialGradient>
<radialGradient cx="128.619" cy="-5.046" gradientTransform="matrix(.0004 2.20813 -2.76706 .00046 17.16272 -249.92558)" id="radialGradient3137" r="45" gradientUnits="userSpaceOnUse">
<stop offset="0" stop-color="#4a4c37"/>
<stop offset=".313" stop-color="#2a2c1d"/>
<stop offset=".66" stop-color="#090908"/>
<stop offset="1" stop-color="#1d240d"/>
</radialGradient>
</defs>
<g transform="matrix(1.33172 0 0 1.33686 -23.73447 -23.82634)">
<path opacity=".763" fill="#090909" d="m30.0314-108.296h72.6876a6.0573,6.034 0 0,1 6.058,6.034v72.4083a6.0573,6.034 0 0,1 -6.058,6.0341h-72.6876a6.0573,6.034 0 0,1 -6.0574-6.0341v-72.4083a6.0573,6.034 0 0,1 6.0574-6.034" transform="scale(1 -1)"/>
<path fill="url(#radialGradient3137)" stroke="url(#linearGradient3139)" stroke-width="6.046" d="m29.6207,23.6321h72.6883a6.0573,6.034 0 0,1 6.057,6.0341v72.4088a6.0573,6.034 0 0,1 -6.057,6.034h-72.6883a6.0573,6.034 0 0,1 -6.0573-6.034v-72.4088a6.0573,6.034 0 0,1 6.0573-6.0341"/>
</g>
<g transform="matrix(1.44047 0 0 1.44048 -5.03085 -4.41427)">
<path opacity=".7" fill="url(#radialGradient3146)" d="m14.4038,11.1608h67.2764a2.7537,3.4142 0 0,1 2.7537,3.4142v66.01a2.7537,3.4142 0 0,1 -2.7537,3.4142h-67.2764a2.7537,3.4142 0 0,1 -2.7538-3.4142v-66.01a2.7537,3.4142 0 0,1 2.7538-3.4142"/>
</g>
<g color="#000" transform="matrix(1.44047 0 0 1.44048 -5.03085 -4.41427)">
<path opacity=".08" d="m52,29c-13.22,0-24,10.78-24,24 0,13.22 10.78,24 24,24 13.22,0 24-10.78 24-24 0-13.22-10.78-24-24-24zm0,22c1.1735,0 2,.8265 2,2 0,1.1735-.8265,2-2,2-1.1735,0-2-.8265-2-2 0-1.1735 .8265-2 2-2z"/>
<path opacity=".1" d="m52,30c-12.6804,0-23,10.3196-23,23 0,12.6804 10.3196,23 23,23 12.6804,0 23-10.3196 23-23 0-12.6804-10.3196-23-23-23zm0,20c1.6885,0 3,1.3115 3,3 0,1.6885-1.3115,3-3,3-1.6885,0-3-1.3115-3-3 0-1.6885 1.3115-3 3-3z"/>
<path opacity=".15" d="m52,31c-12.1356,0-22,9.8644-22,22 0,12.1355 9.8644,22 22,22 12.1355,0 22-9.8645 22-22 0-12.1356-9.8645-22-22-22zm0,18c2.2239,0 4,1.7761 4,4 0,2.2239-1.7761,4-4,4-2.2239,0-4-1.7761-4-4 0-2.2239 1.7761-4 4-4z"/>
<path opacity=".3" d="m31,53c0,11.598 9.402,21 21,21 11.598,0 21-9.402 21-21 0-11.598-9.402-21-21-21-11.598,0-21,9.402-21,21zm12,0c0-4.9706 4.0294-9 9-9 4.9706,0 9,4.0294 9,9 0,4.9706-4.0294,9-9,9-4.9706,0-9-4.0294-9-9zm2,0c0,3.866 3.134,7 7,7 3.866,0 7-3.134 7-7 0-3.866-3.134-7-7-7-3.866,0-7,3.134-7,7zm2,0c0-2.7614 2.2386-5 5-5 2.7614,0 5,2.2386 5,5 0,2.7614-2.2386,5-5,5-2.7614,0-5-2.2386-5-5z"/>
<path fill="url(#linearGradient3045)" d="m31,52c0,11.598 9.402,21 21,21 11.598,0 21-9.402 21-21 0-11.598-9.402-21-21-21-11.598,0-21,9.402-21,21zm12,0c0-4.9706 4.0294-9 9-9 4.9706,0 9,4.0294 9,9 0,4.9706-4.0294,9-9,9-4.9706,0-9-4.0294-9-9zm2,0c0,3.866 3.134,7 7,7 3.866,0 7-3.134 7-7 0-3.866-3.134-7-7-7-3.866,0-7,3.134-7,7zm2,0c0-2.7614 2.2386-5 5-5 2.7614,0 5,2.2386 5,5 0,2.7614-2.2386,5-5,5-2.7614,0-5-2.2386-5-5z"/>
<g fill="#fff">
<path opacity=".3" d="m44,23c-11.598,0-21,9.402-21,21 0,6.4295 2.9176,12.1791 7.4688,16.0312-.934-2.5029-1.4688-5.2027-1.4688-8.0312 0-12.7025 10.2975-23 23-23 2.8285,0 5.5284,.5347 8.0312,1.4688-3.8521-4.5512-9.6018-7.4688-16.0312-7.4688z"/>
<path opacity=".75" d="m52,31c-11.598,0-21,9.402-21,21 0,.1656-.0038,.3354 0,.5 .2631-11.3692 9.5676-20.5 21-20.5 11.4324,0 20.7369,9.1308 21,20.5 .0038-.1646 0-.3344 0-.5 0-11.598-9.402-21-21-21zm0,14c-3.866,0-7,3.134-7,7 0,.1682 .0196,.3347 .0312,.5 .2565-3.6325 3.271-6.5 6.9688-6.5 3.6978,0 6.7122,2.8675 6.9688,6.5 .0117-.1653 .0312-.3318 .0312-.5 0-3.866-3.134-7-7-7zm-8.9688,7.5c-.0095,.1692-.0312,.3284-.0312,.5 0,4.9706 4.0294,9 9,9 4.9706,0 9-4.0294 9-9 0-.1716-.0218-.3308-.0312-.5-.265,4.7327-4.1698,8.5-8.9688,8.5-4.799,0-8.7037-3.7673-8.9688-8.5zm4,0c-.0171,.1681-.0312,.3274-.0312,.5 0,2.7614 2.2386,5 5,5 2.7614,0 5-2.2386 5-5 0-.1726-.0142-.3319-.0312-.5-.2561,2.5213-2.3799,4.5-4.9688,4.5-2.5888,0-4.7127-1.9787-4.9688-4.5z"/>
</g>
<path opacity=".15" d="m52,42c-4.9706,0-9,4.0294-9,9 0,.1716 .0218,.3308 .0312,.5 .265-4.7327 4.1698-8.5 8.9688-8.5 4.799,0 8.7037,3.7673 8.9688,8.5 .0095-.1692 .0312-.3284 .0312-.5 0-4.9706-4.0294-9-9-9zm0,4c-2.7614,0-5,2.2386-5,5 0,.1726 .0142,.3319 .0312,.5 .2561-2.5213 2.3799-4.5 4.9688-4.5 2.5888,0 4.7127,1.9787 4.9688,4.5 .0171-.1681 .0312-.3274 .0312-.5 0-2.7614-2.2386-5-5-5zm-21,5.5c-.0038,.1646 0,.3344 0,.5 0,11.598 9.402,21 21,21 11.598,0 21-9.402 21-21 0-.1656 .0038-.3354 0-.5-.2631,11.3692-9.5676,20.5-21,20.5-11.4324,0-20.7369-9.1308-21-20.5zm14.0312,0c-.0117,.1653-.0312,.3318-.0312,.5 0,3.866 3.134,7 7,7 3.866,0 7-3.134 7-7 0-.1682-.0196-.3347-.0312-.5-.2565,3.6325-3.271,6.5-6.9688,6.5-3.6978,0-6.7122-2.8675-6.9688-6.5z"/>
</g>
</svg>
