<svg width="96" version="1.0" xmlns="http://www.w3.org/2000/svg" height="96" xmlns:xlink="http://www.w3.org/1999/xlink">
<defs id="defs2410">
<clipPath id="clipPath3613">
<rect width="84" x="6" y="6" rx="6" height="84" ry="6" style="fill:#fff;stroke:none" id="rect3615"/>
</clipPath>
<filter style="color-interpolation-filters:sRGB" id="filter3174">
<feGaussianBlur stdDeviation="1.71" id="feGaussianBlur3176"/>
</filter>
<linearGradient gradientTransform="matrix(-0.74452496,0,0,0.60332224,95.563771,6.6113217)" xlink:href="#linearGradient3249-0" id="linearGradient3097" y1="-20.940042" x1="55.530148" y2="55.140068" gradientUnits="userSpaceOnUse" x2="55.530148"/>
<linearGradient id="linearGradient3814-5">
<stop offset="0" style="stop-color:#532072" id="stop3816-7"/>
<stop offset="1" style="stop-color:#602381" id="stop3818-3"/>
</linearGradient>
<linearGradient id="linearGradient3837-2">
<stop offset="0" style="stop-color:#bb63da" id="stop3839-8"/>
<stop offset="1" style="stop-color:#5a1a7c;stop-opacity:.995" id="stop3841-8"/>
</linearGradient>
<linearGradient gradientTransform="scale(1.0058652,0.994169)" id="ButtonShadow" y1="92.539597" x1="45.447727" y2="7.0165396" x2="45.447727" gradientUnits="userSpaceOnUse">
<stop offset="0" id="stop3750"/>
<stop offset="1" style="stop-opacity:.588" id="stop3752"/>
</linearGradient>
<linearGradient gradientTransform="matrix(1.0081486,0,0,0.86380297,-1.2225891,3.6897414)" xlink:href="#linearGradient3814-5" id="linearGradient3102" y1="92.542374" x1="23.80724" y2="2.237287" gradientUnits="userSpaceOnUse" x2="23.586897"/>
<linearGradient id="linearGradient3249-0">
<stop offset="0" style="stop-color:#fff" id="stop3251-4"/>
<stop offset="1" style="stop-color:#fff;stop-opacity:0" id="stop3253-9"/>
</linearGradient>
<radialGradient fx="49.019104" fy="40.829525" cx="49.019104" cy="40.829525" gradientTransform="matrix(1.2267761,-0.00507273,0.00486412,0.8635892,-12.138115,3.9471288)" xlink:href="#linearGradient3837-2" id="radialGradient3100" r="42.5" gradientUnits="userSpaceOnUse"/>
</defs>
<g style="display:none" id="layer2">
<rect width="86" x="5" y="7" rx="6" height="85" ry="6" style="opacity:.9;fill:url(#ButtonShadow);filter:url(#filter3174);stroke:none" id="rect3745"/>
</g>
<g style="stroke:none">
<path style="opacity:.08" id="path3879" d="m 85.833,5.3696 c 4.92342,0 9.98711,5.07216 9.98711,9.37875 v 50.0276 c 0,4.81072 -5.31027,9.7429 -9.58219,9.66929 l -7.3919,-.1274 4.1025,19.6116 -31.6674,-19.305 -41.3775,.1224 c -3.77115,0.011151 -9.38397,-4.95954 -9.38397,-10.267 l 0,-49.4354 c 0,-4.71336 6.2153,-9.67483 9.98647,-9.67483 z "/>
<path style="opacity:.1" id="path3881" d="m 86.518,6.5515 c 3.68761,0 8.26338,5.01712 8.26338,8.28776 v 50.2337 c 0,3.27065 -4.78231,8.38717 -8.46992,8.38717 l -8.8431,-.2037 3.9315,18.5032 -29.8304,-18.1763 -41.5066,-.1232 c -3.68757,-0.010945 -8.46949,-4.4023 -8.46949,-8.48651 v -50.034 c 0,-3.27065 4.979,-8.38809 8.66659,-8.38809 z "/>
<path style="opacity:.1" id="path3883" d="m 86.2345,7.8357 c 3.59001,0 7.29213,3.94067 7.29213,7.0938 v 50.4225 c 0,2.0007 -2.97501,6.92841 -7.59666,6.98803 l -9.833,-.0764 3.6606,17.0554 -28.1768,-16.8548 -41.0778,-.1242 c -3.58998,-0.010857 -7.6982,-4.04057 -7.6982,-7.19369 l 0,-50.0165 c 0,-3.15313 4.10821,-7.29413 7.6982,-7.29413 z "/>
</g>
<path style="fill:url(#radialGradient3100);stroke:url(#linearGradient3102);stroke-width:3.582" id="path3887" d="m 84.4893,10.6294 c 3.35109,0 6.04889,2.31154 6.04889,5.18282 v 48.373 c 0,2.87128 -2.69781,5.18282 -6.04889,5.18282 h -12.0978 l 3.0244,13.8208 -23.1874,-13.8208 h -40.3259 c -3.35109,0 -6.04888,-2.31154 -6.04888,-5.18282 v -48.373 c 0,-2.87128 2.6978,-5.18282 6.04888,-5.18282 h 72.5867 z "/>
<path style="fill:url(#linearGradient3097);stroke:none" id="path3889" d="m 85.0241,12.3994 c 1.937,0 3.3969,1.17764 3.3969,2.77151 v 32.5417 c -5.78484,-10.7895 -17.1707,-19.278 -38.2034,-13.8576 -21.15,5.4397 -34.6424,-2.54663 -42.8102,-6.18405 l -0,-12.5001 c 0,-1.59387 1.45991,-2.77151 3.3969,-2.77151 h 74.2198 z "/>
<path style="fill:#fff;stroke:#532072;stroke-width:3.064" id="rect1923" d="m 39.1843,23.4583 -8.5919,8.2033 9.3759,8.9519 -9.3759,8.9519 8.5919,8.2033 9.3759,-8.9519 9.3759,8.9519 8.5919,-8.2033 -9.3759,-8.9519 9.3759,-8.9519 -8.5919,-8.2033 -9.3759,8.9519 -9.3759,-8.9519 z "/>
</svg>
