<svg width="128" version="1.0" xmlns="http://www.w3.org/2000/svg" height="128" xmlns:xlink="http://www.w3.org/1999/xlink">
<defs id="defs3451">
<linearGradient gradientTransform="translate(-51.669984,-20.466915)" xlink:href="#linearGradient3152" id="linearGradient3158" y1="119.61787" x1="114.80906" y2="1.7364575" x2="114.39732" gradientUnits="userSpaceOnUse"/>
<linearGradient gradientTransform="matrix(1.1095013,0,0,1.0808054,-8.9439531,-6.3279492)" xlink:href="#linearGradient3917" id="linearGradient3951" y1="129.79984" x1="51.210773" y2="3.5705926" gradientUnits="userSpaceOnUse" x2="50.128265"/>
<linearGradient gradientTransform="matrix(1.0868725,0,0,1.039306,7.1865878,-345.29676)" xlink:href="#linearGradient3928" id="linearGradient3958" y1="126.98887" x1="75.822876" y2="6.0708165" gradientUnits="userSpaceOnUse" x2="75.962318"/>
<linearGradient gradientTransform="translate(8.5858978,-342.72038)" xlink:href="#linearGradient3917" id="linearGradient3955" y1="129.79984" x1="51.210773" y2="3.5705926" gradientUnits="userSpaceOnUse" x2="50.128265"/>
<linearGradient gradientTransform="matrix(2.6587421,0,0,1.6176859,141.90772,-1703.5165)" xlink:href="#linearGradient3936" id="linearGradient3926" y1="907.93036" x1="36.026367" y2="807.93121" gradientUnits="userSpaceOnUse" x2="35"/>
<linearGradient id="linearGradient3152">
<stop offset="0" style="stop-color:#ededed" id="stop3154"/>
<stop offset="1" style="stop-color:#fff" id="stop3156"/>
</linearGradient>
<linearGradient gradientTransform="matrix(1.8483487,0,0,1.3095745,-1.3324688,-1052.8379)" xlink:href="#linearGradient3936" id="linearGradient3171" y1="907.93036" x1="36.026367" y2="807.93121" gradientUnits="userSpaceOnUse" x2="35"/>
<linearGradient id="linearGradient3917">
<stop offset="0" style="stop-color:#e2e2e2" id="stop3919"/>
<stop offset="1" style="stop-color:#fff" id="stop3921"/>
</linearGradient>
<linearGradient id="linearGradient3928">
<stop offset="0" style="stop-color:#e2e2e2" id="stop3930"/>
<stop offset="1" style="stop-color:#fff" id="stop3932"/>
</linearGradient>
<linearGradient id="linearGradient3936">
<stop offset="0" style="stop-color:#e2e2e2" id="stop3938"/>
<stop offset="1" style="stop-color:#fff" id="stop3940"/>
</linearGradient>
</defs>
<g style="opacity:.3;stroke:#fff;stroke-linecap:round;fill:none" id="g3790" transform="matrix(10.669771,0,0,-7.1282583,-501.34716,66.715102)">
<path style="stroke-linejoin:round;stroke-width:1.411" id="path3367-2" d="m 11.789,19.294 3.505,-3.74 -6.5883,-6.6311 m -0,6.0661 l 6.5885,-6.6311 -3.5516,-3.6521"/>
<path id="path3590-1" d="m 11.507,4.8749 .0882,14.156"/>
</g>
<path style="fill:url(#linearGradient3955);stroke:url(#linearGradient3958);stroke-width:8.503" id="path3000" d="m 59.5546,-329.7829 c -14.3758,0 -21.5625,6.57157 -21.5625,19.7188 v 13.1562 39.4688 c 0,19.7208 14.3738,32.875 35.9375,32.875 21.5636,0 35.9375,-13.1542 35.9375,-32.875 v -39.4688 -13.1562 c 0,-13.1472 -7.18674,-19.7188 -21.5625,-19.7188 h -14.375 -14.375 z  m 8.6562,15.4688 10.4375,0 c 3.4541,0 6.36742,2.15271 7.53125,5.1875 0.8094,1.2606 1.28125,2.76075 1.28125,4.375 v 24.25 c 0,4.48099 -3.61276,8.09375 -8.09375,8.09375 h -10.4062 c -3.47627,0 -6.4127,-2.18282 -7.5625,-5.25 -0.78535,-1.2474 -1.25,-2.72349 -1.25,-4.3125 v -24.25 c 0,-4.48099 3.58151,-8.09375 8.0625,-8.09375 z "/>
<g style="stroke:none">
<rect width="8.6949797" x="255.45728" y="56.392876" rx="0" height="35.382805" ry="0" style="opacity:.979;fill:#fff" id="rect3134"/>
<rect width="18.483486" x="54.118" y="30.654497" rx="6.5478725" ry="6.5478725" height="32.739361" style="fill:url(#linearGradient3171);fill-rule:evenodd" id="rect3169"/>
<g style="fill:#929292">
<rect width="26.814226" x="-78.119408" y="79.93676" rx="8.0884285" height="156.58498" ry="8.0884285" id="rect3917"/>
<rect width="26.814226" x="153.29047" y="140.14229" rx="8.0884285" ry="8.0884285" height="156.58498" id="rect3919"/>
</g>
<rect width="26.58742" x="221.67001" y="-365.10443" rx="8.0884285" height="40.44215" ry="8.0884285" style="fill:url(#linearGradient3926);fill-rule:evenodd" id="rect3922"/>
<path style="fill:url(#linearGradient3951)" id="path3949" d="m 47.6059,7.655 c -15.9499,0 -23.9236,7.10259 -23.9236,21.3121 v 14.2193 42.658 c 0,21.3144 15.9478,35.5315 39.8727,35.5315 23.9249,0 39.8727,-14.2171 39.8727,-35.5315 v -42.658 -14.2193 c 0,-14.2095 -7.9737,-21.3121 -23.9236,-21.3121 h -15.9491 -15.9491 z  m 9.6041,16.7187 11.5804,0 c 3.83233,0 7.06466,2.32666 8.35593,5.60668 0.89804,1.36246 1.42155,2.98383 1.42155,4.72852 v 26.2095 c 0,4.84308 -4.00836,8.74777 -8.98002,8.74777 h -11.5457 c -3.85693,0 -7.1149,-2.3592 -8.3906,-5.67423 -0.87135,-1.3482 -1.38688,-2.94356 -1.38688,-4.66097 v -26.2095 c 0,-4.84308 3.97369,-8.74777 8.94535,-8.74777 z "/>
<rect width="8.6949797" x="59.09164" y="14.17102" rx="0" ry="0" height="35.382805" style="opacity:.979;fill:url(#linearGradient3158)" id="rect3149"/>
</g>
</svg>
