<svg width="128" version="1.0" xmlns="http://www.w3.org/2000/svg" height="128" xmlns:xlink="http://www.w3.org/1999/xlink">
<defs id="defs3451"/>
<path style="fill:none;stroke:none" id="path820" d="m 113.8811,22.082 0,92.7925 13.7869,0 0,-92.7925 -13.7869,0 z "/>
<path style="fill:#fff;stroke:#000;stroke-width:.3" id="path818" d="m .0625,29.625 l 11.3438,17.625 9.0312,14 v 53.6562 h 4.5 v -53.4375 l 9.125,-14.2188 11.2812,-17.625 h -22.5625 -22.7188 z  m 7.8125,4.9062 h 12.5625 v 18.9062 l -5.0938,-7.7188 -7.4688,-11.1875 z  m 17.0625,0 h 12.6562 l -7.5625,11.1875 -5.0938,7.8125 v -19 z  m 63.1875,11.0625 v 69.2812 h 13.8125 v -69.2812 h -13.8125 z  m -25.5938,25.875 v 43.4062 h 13.7812 v -43.4062 h -13.7812 z  m -25.75,25.6875 v 17.7188 h 13.7812 v -17.7188 h -13.7812 z "/>
</svg>
