<svg width="128" version="1.0" xmlns="http://www.w3.org/2000/svg" height="128" xmlns:xlink="http://www.w3.org/1999/xlink">
<defs id="defs3451"/>
<path style="fill:none;stroke:none" id="path820" d="m 113.875,22.0938 v 92.7812 h 13.7812 v -92.7812 h -13.7812 z  m -25.75,23.5 v 69.2812 h 13.8125 v -69.2812 h -13.8125 z  m -25.5938,25.875 v 43.4062 h 13.7812 v -43.4062 h -13.7812 z  m -25.75,25.6875 v 17.7188 h 13.7812 v -17.7188 h -13.7812 z "/>
<path style="fill:#fff;stroke:#000;stroke-width:.3" id="path818" d="m .048,29.6296 11.3701,17.6161 9.0177,13.9995 0,53.6648 4.5088,0 0,-53.4315 9.1157,-14.2328 11.2721,-17.6161 -22.5442,0 -22.7403,0 z  m 7.8415,4.8998 12.5464,0 0,18.8993 l -5.097,-7.6997 -7.4494,-11.1996 z  m 17.0552,0 12.6444,0 -7.5474,11.1996 -5.097,7.8164 0,-19.016 z "/>
</svg>
