<svg width="128" version="1.0" xmlns="http://www.w3.org/2000/svg" height="128" xmlns:xlink="http://www.w3.org/1999/xlink">
<defs id="defs3451">
<linearGradient id="linearGradient3957">
<stop offset="0" style="stop-color:#e7e7e7" id="stop3959"/>
<stop offset="1" style="stop-color:#fff" id="stop3961"/>
</linearGradient>
<linearGradient gradientTransform="matrix(1.2208846,0,0,1.0952615,-12.235049,-0.33627164)" id="linearGradient3145" xlink:href="#linearGradient3957" y1="118.05029" y2="11.084324" x1="69.065292" x2="68.201546" gradientUnits="userSpaceOnUse"/>
</defs>
<path style="fill:url(#linearGradient3145);fill-rule:evenodd;stroke:#000;stroke-width:.3" id="path3103" d="m 60.7328,14.2142 c -2.55826,1.33067 -4.92748,2.33743 -9.54628,3.72883 -4.64214,1.39842 -19.7312,7.6003 -19.7312,20.3271 0,11.306 9.88192,18.3587 23.8321,19.7991 -1.12259,0.28826 -1.91598,1.17953 -1.91598,2.2439 0,1.2989 1.18319,2.3429 2.68909,2.3429 h 0.268909 v 4.12481 0.59398 48.0129 h 8.80678 v -6.69871 h 11.0253 v -10.2626 h 5.61348 v 10.2626 h 11.5295 v -15.8393 h -11.7648 v -4.94978 h 11.7648 v -15.5093 l -11.5295,.099 v 10.2296 h -5.61348 v -10.3285 h -11.0253 v -5.01578 -0.59397 -4.12482 h 0.268909 c 1.5059,0 2.72271,-1.04399 2.72271,-2.34289 0,-1.06671 -0.823188,-1.95768 -1.94959,-2.2439 13.9598,-1.43616 23.8321,-8.48817 23.8321,-19.7991 0,-12.7268 -15.0891,-18.9287 -19.7312,-20.3271 -4.6188,-1.3914 -6.98801,-2.39816 -9.54628,-3.72883 z  m -.3698,9.0086 c 1.77404,0 22.2858,3.04802 22.2858,15.3443 0,12.2329 -13.3326,11.7805 -14.2858,11.7805 -1.02643,0 -5.39703,-0.16973 -8.00005,-1.64993 -2.60303,1.4802 -6.94,1.64993 -7.96643,1.64993 -0.953182,0 -14.3194,0.45245 -14.3194,-11.7805 0,-12.2963 20.5118,-15.3443 22.2859,-15.3443 z  m 4.7731,64.6771 6.8236,0 0,4.9498 -6.8236,0 0,-4.9498 z "/>
</svg>
