<svg width="128" version="1.1" xmlns="http://www.w3.org/2000/svg" height="128" xmlns:xlink="http://www.w3.org/1999/xlink">
<defs id="defs6">
<linearGradient id="linearGradient3183-0">
<stop offset="0" style="stop-color:#c80000" id="stop3185-9"/>
<stop offset="1" style="stop-color:#f3604d" id="stop3187-6"/>
</linearGradient>
<linearGradient gradientTransform="matrix(0,-3.0000004,2.9652505,0,67.403707,144.08367)" xlink:href="#linearGradient3183-0" id="linearGradient3047" y1="11.015625" x1="11" y2="11.015625" gradientUnits="userSpaceOnUse" x2="19"/>
<linearGradient gradientTransform="matrix(0.94001581,0,0,-1,5.9170526,127.45603)" id="linearGradient3018" xlink:href="#linearGradient3780" y1="-32.814354" y2="64.270393" x1="59.036018" x2="59.745766" gradientUnits="userSpaceOnUse"/>
<linearGradient gradientTransform="matrix(0.93998422,0,0,1,3.7489638,-0.54237272)" xlink:href="#linearGradient3780" id="linearGradient3786" y1="-32.814354" x1="59.036018" y2="64.270393" x2="59.745766" gradientUnits="userSpaceOnUse"/>
<linearGradient id="linearGradient3780">
<stop offset="0" style="stop-color:#b3b3b3" id="stop3782"/>
<stop offset="1" style="stop-color:#fff" id="stop3784"/>
</linearGradient>
</defs>
<g style="fill-rule:evenodd;stroke:#000;stroke-width:.3" id="g3794" transform="matrix(0.67297134,0.73966855,-0.73966855,0.67297134,70.129896,-23.586873)">
<path style="fill:url(#linearGradient3786)" id="rect3005" d="m 57.9902,-9.4317 c -1.82632,0 -3.28995,1.44347 -3.28995,3.25 v 15.625 l -8.4599,9.7187 v 0.0625 c -0.466776,0.631003 -0.763736,1.40762 -0.763736,2.25 v 18.3125 c 0,2.12196 1.74154,3.8125 3.90681,3.8125 h 21.9134 c 2.16527,0 3.90681,-1.69054 3.90681,-3.8125 v -18.3125 c 0,-0.826834 -0.283188,-1.59412 -0.734361,-2.21875 v -0.09375 l -8.1661,-10.3125 v -15.0313 c 0,-1.80653 -1.46362,-3.25 -3.28995,-3.25 h -5.02304 z "/>
<path style="fill:url(#linearGradient3018)" id="path3788" d="m 60.1601,136.3453 c -1.82638,0 -3.29006,-1.44347 -3.29006,-3.25 v -15.625 l -8.4601,-9.7188 v -0.0625 c -0.466793,-0.631 -0.763763,-1.40761 -0.763763,-2.25 v -18.3125 c 0,-2.12196 1.74159,-3.8125 3.90694,-3.8125 h 21.9141 c 2.16535,0 3.90694,1.69054 3.90694,3.8125 v 18.3125 c 0,0.82684 -0.283199,1.59413 -0.734387,2.21875 v 0.0937 l -8.1664,10.3125 v 15.0312 c 0,1.80653 -1.46367,3.25 -3.29005,3.25 h -5.02321 z "/>
</g>
<g id="g3018" transform="matrix(1.430534,0,0,1.4300203,-39.014582,-42.488695)">
<g style="fill-rule:evenodd;stroke:none" id="g3033">
<path style="opacity:.1" id="path3761" d="m 93.911547,86.114907 c 7.2e-4,-8.4e-5 -0.0945,0.03137 -0.0937,0.03125 7.2e-4,-1.2e-4 -0.0945,1.55e-4 -0.0937,0 7.1e-4,-1.55e-4 -0.0944,0.03144 -0.0937,0.03125 10e-4,-2.62e-4 -0.12601,0.03158 -0.125,0.03125 10e-4,-3.35e-4 -0.12598,0.06291 -0.125,0.0625 9.8e-4,-4.08e-4 -0.1572,0.06298 -0.15625,0.0625 9.4e-4,-4.78e-4 -0.12591,0.06305 -0.125,0.0625 9.1e-4,-5.45e-4 -0.0946,0.09436 -0.0937,0.09375 8.6e-4,-6.1e-4 -0.12582,0.06317 -0.125,0.0625 8.2e-4,-6.71e-4 -0.0945,0.09448 -0.0937,0.09375 5.8e-4,-5.47e-4 -0.0658,0.06523 -0.0937,0.09375 -0.009,0.0095 -0.0314,0.03145 -0.0312,0.03125 l -6,6.062503 c 9.5e-4,-10e-4 -0.12585,0.15734 -0.125,0.15625 8.5e-4,-10e-4 -0.0945,0.12616 -0.0937,0.125 7.4e-4,-10e-4 -0.0944,0.15748 -0.0937,0.15625 6.3e-4,-10e-4 -0.0943,0.18878 -0.0937,0.1875 5.1e-4,-10e-4 -0.0629,0.15757 -0.0625,0.15625 3.9e-4,-10e-4 -0.0315,0.18886 -0.0312,0.1875 2.6e-4,-10e-4 -0.0314,0.18887 -0.0312,0.1875 1.3e-4,-10e-4 0,0.18888 0,0.1875 0,-10e-4 1.3e-4,0.18887 0,0.1875 -1.3e-4,-10e-4 0.0315,0.18886 0.0312,0.1875 -2.6e-4,-10e-4 0.0316,0.18882 0.0312,0.1875 -3.9e-4,-10e-4 0.063,0.15753 0.0625,0.15625 -5.1e-4,-10e-4 0.0944,0.18873 0.0937,0.1875 -6.3e-4,-10e-4 0.0945,0.15741 0.0937,0.15625 -7.5e-4,-10e-4 0.0946,0.12609 0.0937,0.125 -8.5e-4,-10e-4 0.12595,0.15725 0.125,0.15625 l 4.5,4.5625 -4.5,4.5625 c 9.5e-4,-10e-4 -0.12585,0.15734 -0.125,0.15625 8.5e-4,-10e-4 -0.0945,0.12616 -0.0937,0.125 7.4e-4,-10e-4 -0.0944,0.15748 -0.0937,0.15625 6.3e-4,-10e-4 -0.0943,0.18878 -0.0937,0.1875 5.1e-4,-10e-4 -0.0629,0.15757 -0.0625,0.15625 3.9e-4,-10e-4 -0.0315,0.18886 -0.0312,0.1875 2.6e-4,-10e-4 -0.0314,0.18887 -0.0312,0.1875 1.3e-4,-10e-4 0,0.18888 0,0.1875 0,-10e-4 1.3e-4,0.18887 0,0.1875 -1.3e-4,-10e-4 0.0315,0.18886 0.0312,0.1875 -2.6e-4,-10e-4 0.0316,0.18882 0.0312,0.1875 -3.9e-4,-10e-4 0.063,0.15753 0.0625,0.15625 -5.1e-4,-10e-4 0.0944,0.18873 0.0937,0.1875 -6.3e-4,-10e-4 0.0945,0.15741 0.0937,0.15625 -7.5e-4,-10e-4 0.0946,0.12609 0.0937,0.125 -8.5e-4,-10e-4 0.12595,0.15725 0.125,0.15625 l 6.03125,6.09375 c -9.9e-4,-10e-4 0.12608,0.12592 0.125,0.125 -10e-4,-9.3e-4 0.15742,0.12581 0.15625,0.125 -10e-4,-8.2e-4 0.15749,0.0944 0.15625,0.0937 -10e-4,-7e-4 0.1888,0.0943 0.1875,0.0937 -10e-4,-5.8e-4 0.18885,0.0629 0.1875,0.0625 -10e-4,-4.5e-4 0.15764,0.0628 0.15625,0.0625 -10e-4,-3.1e-4 0.18891,0.0314 0.1875,0.0312 -10e-4,-1.7e-4 0.22017,3e-5 0.21875,0 -10e-4,-4e-5 0.18892,-1.1e-4 0.1875,0 -10e-4,10e-5 0.1889,-0.0315 0.1875,-0.0312 -10e-4,2.4e-4 0.18887,-0.0316 0.1875,-0.0312 -10e-4,3.8e-4 0.15758,-0.063 0.15625,-0.0625 -10e-4,5.1e-4 0.18877,-0.0631 0.1875,-0.0625 -10e-4,6.4e-4 0.15745,-0.0945 0.15625,-0.0937 -10e-4,7.6e-4 0.15737,-0.12588 0.15625,-0.125 -10e-4,8.7e-4 0.15728,-0.12598 0.15625,-0.125 l 4.593753,-4.5625 4.40625,4.5 c -5.1e-4,-5.3e-4 0.063,0.063 0.0625,0.0625 -5.4e-4,-5.1e-4 0.0943,0.063 0.0937,0.0625 -5.6e-4,-4.8e-4 0.0631,0.0629 0.0625,0.0625 -5.8e-4,-4.5e-4 0.0943,0.0629 0.0937,0.0625 -6.1e-4,-4.2e-4 0.0631,0.0629 0.0625,0.0625 -6.3e-4,-3.9e-4 0.0944,0.0628 0.0937,0.0625 -6.5e-4,-3.6e-4 0.0944,0.0316 0.0937,0.0312 -6.6e-4,-3.2e-4 0.0944,0.0315 0.0937,0.0312 -6.8e-4,-2.9e-4 0.0632,0.0315 0.0625,0.0312 -6.9e-4,-2.6e-4 0.0944,0.0315 0.0937,0.0312 -7e-4,-2.2e-4 0.0945,0.0314 0.0937,0.0312 -7.1e-4,-1.9e-4 0.12572,0.0314 0.125,0.0312 -7.2e-4,-1.5e-4 0.0945,0.0314 0.0937,0.0312 -7.3e-4,-1.1e-4 0.0945,7e-5 0.0937,0 -7.3e-4,-8e-5 0.0945,3e-5 0.0937,0 -7.4e-4,-4e-5 0.0945,0 0.0937,0 -7.4e-4,0 0.0945,-4e-5 0.0937,0 -7.4e-4,3e-5 0.0945,-8e-5 0.0937,0 -7.3e-4,7e-5 0.0945,-1.1e-4 0.0937,0 -7.3e-4,1.1e-4 0.0945,-0.0314 0.0937,-0.0312 -7.2e-4,1.4e-4 0.12571,-0.0314 0.125,-0.0312 -7.1e-4,1.8e-4 0.0944,-0.0315 0.0937,-0.0312 -7e-4,2.2e-4 0.0944,-0.0315 0.0937,-0.0312 -6.9e-4,2.5e-4 0.0632,-0.0315 0.0625,-0.0312 -6.8e-4,2.9e-4 0.0944,-0.0316 0.0937,-0.0312 -6.6e-4,3.2e-4 0.0944,-0.0316 0.0937,-0.0312 -6.5e-4,3.5e-4 0.0944,-0.0629 0.0937,-0.0625 -6.3e-4,3.8e-4 0.0631,-0.0629 0.0625,-0.0625 -6.1e-4,4.1e-4 0.0943,-0.063 0.0937,-0.0625 -5.8e-4,4.4e-4 0.0631,-0.063 0.0625,-0.0625 -5.6e-4,4.7e-4 0.0943,-0.063 0.0937,-0.0625 -5.4e-4,5e-4 0.063,-0.063 0.0625,-0.0625 l 6.21875,-6.28125 c -9.8e-4,0.001 0.12587,-0.15738 0.125,-0.15625 -8.8e-4,0.001 0.12576,-0.15746 0.125,-0.15625 -7.6e-4,0.001 0.0944,-0.15753 0.0937,-0.15625 -6.4e-4,0.001 0.063,-0.18883 0.0625,-0.1875 -5.2e-4,0.001 0.0629,-0.15763 0.0625,-0.15625 -3.8e-4,0.001 0.0315,-0.18891 0.0312,-0.1875 -2.5e-4,0.001 0.0314,-0.18892 0.0312,-0.1875 -1.1e-4,0.001 -4e-5,-0.18893 0,-0.1875 3e-5,0.001 -1.7e-4,-0.22017 0,-0.21875 1.7e-4,0.001 -0.0316,-0.18889 -0.0312,-0.1875 3.1e-4,0.001 -0.0629,-0.15761 -0.0625,-0.15625 4.4e-4,0.001 -0.0631,-0.18881 -0.0625,-0.1875 5.7e-4,0.001 -0.0944,-0.18874 -0.0937,-0.1875 7e-4,0.001 -0.0946,-0.15742 -0.0937,-0.15625 8.1e-4,0.001 -0.12593,-0.15733 -0.125,-0.15625 9.2e-4,0.001 -0.12603,-0.12599 -0.125,-0.125 l -4.40625,-4.3125 4.40625,-4.3125 c -10e-4,9.8e-4 0.12592,-0.12608 0.125,-0.125 -9.3e-4,0.001 0.12581,-0.15742 0.125,-0.15625 -8.2e-4,0.001 0.0944,-0.15749 0.0937,-0.15625 -7e-4,0.001 0.0943,-0.18881 0.0937,-0.1875 -5.8e-4,0.001 0.0629,-0.18886 0.0625,-0.1875 -4.5e-4,0.001 0.0628,-0.15764 0.0625,-0.15625 -3.1e-4,0.001 0.0314,-0.18892 0.0312,-0.1875 -1.7e-4,0.001 3e-5,-0.22018 0,-0.21875 -4e-5,0.001 -1.1e-4,-0.18892 0,-0.1875 10e-5,0.001 -0.0315,-0.18891 -0.0312,-0.1875 2.4e-4,0.001 -0.0316,-0.18888 -0.0312,-0.1875 3.8e-4,0.001 -0.063,-0.15758 -0.0625,-0.15625 5.1e-4,0.001 -0.0631,-0.18878 -0.0625,-0.1875 6.4e-4,0.001 -0.0945,-0.15746 -0.0937,-0.15625 7.6e-4,0.001 -0.12588,-0.15738 -0.125,-0.15625 8.7e-4,0.001 -0.12598,-0.15729 -0.125,-0.15625 l -6.21875,-6.281253 c 5.1e-4,5.29e-4 -0.063,-0.063 -0.0625,-0.0625 5.3e-4,5.03e-4 -0.0943,-0.06298 -0.0937,-0.0625 5.6e-4,4.76e-4 -0.0631,-0.06295 -0.0625,-0.0625 5.8e-4,4.47e-4 -0.0943,-0.06292 -0.0937,-0.0625 6e-4,4.17e-4 -0.0631,-0.06289 -0.0625,-0.0625 6.2e-4,3.86e-4 -0.0944,-0.06285 -0.0937,-0.0625 6.4e-4,3.54e-4 -0.0944,-0.03157 -0.0937,-0.03125 6.6e-4,3.21e-4 -0.0944,-0.03154 -0.0937,-0.03125 6.7e-4,2.88e-4 -0.0632,-0.0315 -0.0625,-0.03125 6.9e-4,2.53e-4 -0.0944,-0.03147 -0.0937,-0.03125 7e-4,2.18e-4 -0.0945,-0.03143 -0.0937,-0.03125 7.1e-4,1.83e-4 -0.12572,-0.0314 -0.125,-0.03125 7.2e-4,1.47e-4 -0.0945,-0.03136 -0.0937,-0.03125 7.2e-4,1.1e-4 -0.0945,-7.4e-5 -0.0937,0 7.3e-4,7.4e-5 -0.0945,-3.7e-5 -0.0937,0 7.3e-4,3.7e-5 -0.0945,0 -0.0937,0 7.3e-4,0 -0.0945,3.7e-5 -0.0937,0 7.3e-4,-3.7e-5 -0.0945,7.4e-5 -0.0937,0 7.3e-4,-7.4e-5 -0.0945,1.1e-4 -0.0937,0 7.2e-4,-1.1e-4 -0.0945,0.0314 -0.0937,0.03125 7.2e-4,-1.47e-4 -0.12571,0.03143 -0.125,0.03125 7.1e-4,-1.83e-4 -0.0944,0.03147 -0.0937,0.03125 7e-4,-2.18e-4 -0.0944,0.0315 -0.0937,0.03125 6.9e-4,-2.53e-4 -0.0632,0.03154 -0.0625,0.03125 6.7e-4,-2.88e-4 -0.0944,0.03157 -0.0937,0.03125 6.6e-4,-3.21e-4 -0.0944,0.0316 -0.0937,0.03125 6.4e-4,-3.54e-4 -0.0944,0.06289 -0.0937,0.0625 6.2e-4,-3.86e-4 -0.0631,0.06292 -0.0625,0.0625 6e-4,-4.17e-4 -0.0943,0.06295 -0.0937,0.0625 5.8e-4,-4.47e-4 -0.0631,0.06298 -0.0625,0.0625 5.6e-4,-4.76e-4 -0.0943,0.063 -0.0937,0.0625 5.3e-4,-5.03e-4 -0.063,0.06303 -0.0625,0.0625 l -4.40625,4.5 -4.562503,-4.53125 c 1.7e-4,1.72e-4 -0.0207,-0.0212 -0.0312,-0.03125 -0.021,-0.0201 -0.0629,-0.06283 -0.0625,-0.0625 5.4e-4,4.91e-4 -0.0631,-0.06296 -0.0625,-0.0625 5.6e-4,4.63e-4 -0.0631,-0.06294 -0.0625,-0.0625 5.8e-4,4.35e-4 -0.0944,-0.03166 -0.0937,-0.03125 6e-4,4.05e-4 -0.0944,-0.06287 -0.0937,-0.0625 6.2e-4,3.74e-4 -0.0631,-0.06284 -0.0625,-0.0625 6.4e-4,3.42e-4 -0.0944,-0.03156 -0.0937,-0.03125 6.6e-4,3.09e-4 -0.0944,-0.03153 -0.0937,-0.03125 6.7e-4,2.76e-4 -0.0944,-0.03149 -0.0937,-0.03125 6.9e-4,2.42e-4 -0.0944,-0.03146 -0.0937,-0.03125 7e-4,2.07e-4 -0.0945,-0.03142 -0.0937,-0.03125 7.1e-4,1.72e-4 -0.0945,-0.03139 -0.0937,-0.03125 7.1e-4,1.36e-4 -0.0945,-1e-4 -0.0937,0 7.2e-4,1e-4 -0.0945,-0.03131 -0.0937,-0.03125 7.2e-4,6.4e-5 -0.0945,-2.8e-5 -0.0937,0 7.3e-4,2.8e-5 -0.0945,9e-6 -0.0937,0 a 0.9965754,0.9965754 0 0 0 -0.0625,0 c 7.2e-4,-4.7e-5 -0.0945,8.4e-5 -0.0937,0 z"/>
<path style="opacity:.15" id="path3757" d="m 93.8803,87.1462 a 0.952783,0.952783 0 0,0 -0.46875,0.28125 l -6.0312,6.0938 a 0.952783,0.952783 0 0,0 0,1.3125 l 5.1875,5.25 -5.1875,5.25 a 0.952783,0.952783 0 0,0 0,1.3125 l 6.0312,6.0938 a 0.952783,0.952783 0 0,0 1.34375,0.0312 l 5.2813,-5.25 5.125,5.2188 a 0.952783,0.952783 0 0,0 1.375,0 l 6.2188,-6.2812 a 0.952783,0.952783 0 0,0 -0.0312,-1.34375 l -5.1562,-5.0312 5.1562,-5.0312 a 0.952783,0.952783 0 0,0 0.0312,-1.34375 l -6.2188,-6.2813 a 0.952783,0.952783 0 0,0 -1.375,0 l -5.125,5.2188 -5.2813,-5.25 a 0.952783,0.952783 0 0,0 -0.875,-0.25 z "/>
<path style="opacity:.3" id="path3751" d="m 88.0678,105.9899 6.0232,6.0938 5.9305,-5.9062 5.8378,5.9062 6.2085,-6.2812 -5.8378,-5.7188 5.8378,-5.7188 -6.2085,-6.2813 -5.8378,5.9063 -5.9305,-5.9063 -6.0232,6.0938 5.8378,5.9062 -5.8378,5.9062 z "/>
<path style="fill:url(#linearGradient3047)" id="path7165" d="m 88.0678,104.9899 6.0232,6.0938 5.9305,-5.9062 5.8378,5.9062 6.2085,-6.2812 -5.8378,-5.7188 5.8378,-5.7188 -6.2085,-6.2813 -5.8378,5.9063 -5.9305,-5.9063 -6.0232,6.0938 5.8378,5.9062 -5.8378,5.9062 z "/>
<path style="opacity:.2;fill:#fff" id="path2970" d="m 94.099,87.0837 -6.0312,6.0938 1,1 5.0312,-5.0938 5.9375,5.9063 5.8125,-5.9063 5.2188,5.25 1,-.9688 -6.2188,-6.2813 -5.8125,5.9063 -5.9375,-5.9063 z  m -.1948,11.9758 -5.8364,5.9304 1,1 4.8438,-4.9062 -.007,-2.0242 z  m 12.3426,.0473 -.0228,1.9769 4.8438,4.75 1,-1.0312 -5.8209,-5.6957 z "/>
</g>
</g>
<g style="stroke:none">
<rect width="157.83051" x="-4.9428792" y="-357.41464" rx="3.5071003" ry="4.2764473" height="43.389828" style="opacity:.591;fill:#4a8fac" id="rect3797" transform="matrix(0.00668979,0.99997762,-0.99997762,0.00668979,0,0)"/>
<rect width="157.83051" x="20.756369" y="244.25505" rx="3.5071003" height="43.389828" ry="4.2764473" style="opacity:.591" id="rect3027"/>
</g>
</svg>
