<svg width="128" version="1.1" xmlns="http://www.w3.org/2000/svg" height="128" xmlns:xlink="http://www.w3.org/1999/xlink">
<defs id="defs6">
<linearGradient id="linearGradient3891">
<stop offset="0" style="stop-color:#eaeaea" id="stop3893"/>
<stop offset="1" style="stop-color:#fafafa" id="stop3895"/>
</linearGradient>
<linearGradient gradientTransform="matrix(0.69774605,0.7163452,-0.7163452,0.69774605,-36.61053,-132.17436)" xlink:href="#linearGradient3891" id="linearGradient2995" y1="-37.135235" x1="213.15047" y2="88.152908" gradientUnits="userSpaceOnUse" x2="211.87717"/>
<linearGradient gradientTransform="matrix(0.69774605,0.7163452,0.7163452,-0.69774605,-126.70492,-44.704609)" xlink:href="#linearGradient3891" id="linearGradient2998" y1="-37.135235" x1="213.15047" y2="88.152908" gradientUnits="userSpaceOnUse" x2="211.87717"/>
</defs>
<g style="fill-rule:evenodd;stroke:#000;stroke-width:.3">
<path style="fill:url(#linearGradient2998)" id="rect3874" d="m 12.3194,112.8857 c -1.2743,-1.30827 -0.860489,-3.75448 0.925524,-5.49412 l 19.7147,-19.2028 1.1484,-12.3952 .0534,-.5851 .0457,-.0445 c 0.136214,-0.782141 0.474365,-1.52818 1.08906,-2.12692 l 13.3868,-13.0392 c 1.55119,-1.51092 4.02498,-1.48937 5.53578,0.06169 l 15.2898,15.6974 c 1.5108,1.55107 1.46727,4.02458 -0.08392,5.53549 l -13.3868,13.0392 c -0.614699,0.598739 -1.36938,0.917152 -2.15484,1.03274 l -.0457,.0445 -13.2159,1.5142 -19.2806,18.78 c -1.78601,1.73964 -4.26277,2.06793 -5.53707,0.75966 l -3.4843,-3.5772 z "/>
<path style="fill:url(#linearGradient2995)" id="path3899" d="m 117.2688,10.9466 c -1.2743,-1.30827 -3.73056,-0.958937 -5.51657,0.780708 l -19.7147,19.2028 -12.4211,.822 -.5863,.038 -.0457,.0445 c -0.785453,0.115596 -1.54013,0.434009 -2.15483,1.03275 l -13.3868,13.0392 c -1.55119,1.51092 -1.59472,3.98442 -0.08393,5.53549 l 15.2898,15.6974 c 1.5108,1.55107 3.98459,1.57262 5.53579,0.0617 l 13.3868,-13.0392 c 0.614699,-0.598739 0.95285,-1.34478 1.08906,-2.12693 l .0457,-.0445 1.8613,-13.1715 19.2806,-18.78 c 1.78602,-1.73964 2.17933,-4.2069 0.90503,-5.51517 l -3.4843,-3.5771 z "/>
</g>
</svg>
