<svg width="96" version="1.0" xmlns="http://www.w3.org/2000/svg" height="96" xmlns:xlink="http://www.w3.org/1999/xlink">
<defs id="defs2410">
<clipPath id="clipPath3613">
<rect width="84" x="6" y="6" rx="6" height="84" ry="6" style="fill:#fff;stroke:none" id="rect3615"/>
</clipPath>
<filter style="color-interpolation-filters:sRGB" id="filter3174">
<feGaussianBlur stdDeviation="1.71" id="feGaussianBlur3176"/>
</filter>
<filter width="1.3839999" x="-0.192" y="-0.192" height="1.3839999" style="color-interpolation-filters:sRGB" id="filter3794">
<feGaussianBlur stdDeviation="5.28" id="feGaussianBlur3796"/>
</filter>
<linearGradient gradientTransform="matrix(1.0238095,0,0,1.0119048,-1.1428571,-98.071429)" id="linearGradient3725" xlink:href="#ButtonShadow-0" y1="6.1317081" x1="32.251034" y2="90.238609" x2="32.251034" gradientUnits="userSpaceOnUse"/>
<linearGradient gradientTransform="matrix(1.0238095,0,0,1.0119048,-1.1428571,-98.071429)" id="linearGradient3772" xlink:href="#ButtonShadow-0" y1="6.1317081" x1="32.251034" y2="90.238609" x2="32.251034" gradientUnits="userSpaceOnUse"/>
<linearGradient gradientTransform="translate(0,-97)" id="linearGradient3721" xlink:href="#ButtonShadow-0" y1="6.1317081" x1="32.251034" y2="90.238609" x2="32.251034" gradientUnits="userSpaceOnUse"/>
<linearGradient id="linearGradient3781" xlink:href="#linearGradient3737" y1="16" x1="16" y2="48" x2="48" gradientUnits="userSpaceOnUse"/>
<linearGradient id="linearGradient3773" xlink:href="#linearGradient3737" y1="80" x1="80" y2="48" x2="48" gradientUnits="userSpaceOnUse"/>
<linearGradient gradientTransform="matrix(1.0238095,0,0,1.0119048,-1.1428571,-98.071429)" id="linearGradient3780" xlink:href="#ButtonShadow-0" y1="6.1317081" x1="32.251034" y2="90.238609" x2="32.251034" gradientUnits="userSpaceOnUse"/>
<linearGradient id="linearGradient3738" xlink:href="#linearGradient3771" y1="24" x1="32" y2="64" x2="64" gradientUnits="userSpaceOnUse"/>
<linearGradient gradientTransform="matrix(1.0238095,0,0,1.0119048,-1.1428571,-98.071429)" id="linearGradient3026" xlink:href="#ButtonShadow-0" y1="6.1317081" x1="32.251034" y2="90.238609" x2="32.251034" gradientUnits="userSpaceOnUse"/>
<linearGradient id="linearGradient3746" xlink:href="#linearGradient7012-661-145-733-759-865-745-661-970-94" y1="87.512566" x1="58.012989" y2="46.219166" x2="46.948456" gradientUnits="userSpaceOnUse"/>
<linearGradient gradientTransform="matrix(1.0058652,0,0,0.994169,100,0)" id="ButtonShadow-0" y1="92.539597" x1="45.447727" y2="7.0165396" x2="45.447727" gradientUnits="userSpaceOnUse">
<stop offset="0" id="stop3750-8"/>
<stop offset="1" style="stop-opacity:.588" id="stop3752-5"/>
</linearGradient>
<linearGradient id="linearGradient7012-661-145-733-759-865-745-661-970-94">
<stop offset="0" style="stop-color:#f0c178" id="stop3618"/>
<stop offset="0.5" style="stop-color:#e18941" id="stop3270"/>
<stop offset="1" style="stop-color:#ec4f18" id="stop3620"/>
</linearGradient>
<linearGradient gradientTransform="scale(1.0058652,0.994169)" id="ButtonShadow" y1="92.539597" x1="45.447727" y2="7.0165396" x2="45.447727" gradientUnits="userSpaceOnUse">
<stop offset="0" id="stop3750"/>
<stop offset="1" style="stop-opacity:.588" id="stop3752"/>
</linearGradient>
<linearGradient id="linearGradient3852">
<stop offset="0" style="stop-color:#eea666" id="stop3854"/>
<stop offset="1" style="stop-color:#ee6332" id="stop3858"/>
</linearGradient>
<linearGradient id="linearGradient3771">
<stop offset="0" style="stop-color:#fdffb0" id="stop3773"/>
<stop offset="1" style="stop-color:#fff;stop-opacity:0" id="stop3775"/>
</linearGradient>
<linearGradient id="linearGradient3737">
<stop offset="0" style="stop-color:#fff" id="stop3739"/>
<stop offset="1" style="stop-color:#fff;stop-opacity:0" id="stop3741"/>
</linearGradient>
<linearGradient id="linearGradient3188" xlink:href="#linearGradient3737" y1="6" x1="36.357143" y2="63.893143" x2="36.357143" gradientUnits="userSpaceOnUse"/>
<linearGradient gradientTransform="translate(0,-96)" id="linearGradient3617" xlink:href="#linearGradient3852" y1="90" x1="48" y2="5.9877172" x2="48" gradientUnits="userSpaceOnUse"/>
<linearGradient id="linearGradient3613" xlink:href="#linearGradient3737" y1="20.220806" x1="48" y2="138.66119" x2="48" gradientUnits="userSpaceOnUse"/>
<radialGradient fx="48" fy="90.171875" cx="48" cy="90.171875" gradientTransform="matrix(1.1573129,0,0,0.99590774,-7.5510206,0.19713193)" r="42" id="radialGradient3619" xlink:href="#linearGradient3737" gradientUnits="userSpaceOnUse"/>
</defs>
<g style="display:none" id="layer2">
<rect width="86" x="5" y="7" rx="6" height="85" ry="6" style="opacity:.9;fill:url(#ButtonShadow);filter:url(#filter3174);stroke:none" id="rect3745"/>
</g>
<g style="stroke:none" id="layer3">
<path style="opacity:.08;fill:url(#linearGradient3026)" id="path3786" d="m 12,-95.0312 c -5.51109,0 -10.0312,4.52016 -10.0312,10.0312 v 71 c 0,5.51109 4.52016,10.0312 10.0312,10.0312 h 72 c 5.51109,0 10.0312,-4.52016 10.0312,-10.0312 v -71 c 0,-5.51109 -4.52016,-10.0312 -10.0312,-10.0312 h -72 z " transform="scale(1,-1)"/>
<path style="opacity:.1;fill:url(#linearGradient3780)" id="path3778" d="m 12,-94.0312 c -4.97163,0 -9.03125,4.05962 -9.03125,9.03125 v 71 c 0,4.97163 4.05962,9.03125 9.03125,9.03125 h 72 c 4.97163,0 9.03125,-4.05962 9.03125,-9.03125 v -71 c 0,-4.97163 -4.05962,-9.03125 -9.03125,-9.03125 h -72 z " transform="scale(1,-1)"/>
<path style="opacity:.2;fill:url(#linearGradient3772)" id="path3770" d="m 12,-93 c -4.40913,0 -8,3.59087 -8,8 v 71 c 0,4.40913 3.59087,8 8,8 h 72 c 4.40913,0 8,-3.59087 8,-8 v -71 c 0,-4.40913 -3.59087,-8 -8,-8 h -72 z " transform="scale(1,-1)"/>
<rect width="86" x="5" y="-92" rx="7" height="85" ry="7" style="opacity:.3;fill:url(#linearGradient3725)" id="rect3723" transform="scale(1,-1)"/>
<rect width="84" x="6" y="-91" rx="6" height="84" ry="6" style="opacity:.45;fill:url(#linearGradient3721)" id="rect3716" transform="scale(1,-1)"/>
</g>
<g style="stroke:none" id="layer1">
<rect width="84" x="6" y="-90" rx="6" height="84" ry="6" style="fill:url(#linearGradient3617)" id="rect2419" transform="scale(1,-1)"/>
<path style="opacity:.5;fill:url(#linearGradient3188)" id="rect3728" d="m 12,6 c -3.324,0 -6,2.676 -6,6 v 2 68 2 c 0,0.334721 0.04135,0.6507 0.09375,0.96875 0.0487,0.295596 0.09704,0.596915 0.1875,0.875 0.00988,0.03038 0.020892,0.0636 0.03125,0.09375 0.098865,0.287771 0.23488,0.547452 0.375,0.8125 0.144592,0.273507 0.315616,0.535615 0.5,0.78125 0.184384,0.245635 0.373776,0.473472 0.59375,0.6875 0.439947,0.428056 0.94291,0.814526 1.5,1.09375 0.278545,0.139612 0.573473,0.246947 0.875,0.34375 -0.256202,-0.100222 -0.486711,-0.236272 -0.71875,-0.375 -0.00741,-0.0044 -0.023866,0.0045 -0.03125,0 -0.031933,-0.0193 -0.062293,-0.04251 -0.09375,-0.0625 -0.120395,-0.0767 -0.231023,-0.163513 -0.34375,-0.25 -0.106173,-0.0808 -0.213281,-0.161112 -0.3125,-0.25 -0.17793,-0.161433 -0.34746,-0.345388 -0.5,-0.53125 -0.107579,-0.130255 -0.218394,-0.265285 -0.3125,-0.40625 -0.025089,-0.03838 -0.038446,-0.08587 -0.0625,-0.125 -0.064763,-0.103032 -0.130228,-0.204517 -0.1875,-0.3125 -0.101008,-0.194706 -0.205675,-0.415701 -0.28125,-0.625 -0.00796,-0.02181 -0.023589,-0.04055 -0.03125,-0.0625 -0.0318251,-0.09195 -0.0358045,-0.186831 -0.0625,-0.28125 -0.0303323,-0.106618 -0.0703894,-0.203031 -0.09375,-0.3125 -0.0728786,-0.341512 -0.125,-0.698205 -0.125,-1.0625 v -2 -68 -2 c 0,-2.78185 2.21815,-5 5,-5 h 2 68 2 c 2.78185,0 5,2.21815 5,5 v 2 68 2 c 0,0.364295 -0.05212,0.720988 -0.125,1.0625 -0.04415,0.206893 -0.08838,0.397658 -0.15625,0.59375 -0.0077,0.02195 -0.0233,0.04069 -0.03125,0.0625 -0.06274,0.173739 -0.138383,0.367449 -0.21875,0.53125 -0.04158,0.0828 -0.07904,0.169954 -0.125,0.25 -0.0546,0.09721 -0.126774,0.18835 -0.1875,0.28125 -0.09411,0.140965 -0.204921,0.275995 -0.3125,0.40625 -0.143174,0.17445 -0.303141,0.346998 -0.46875,0.5 -0.01117,0.0102 -0.01998,0.02115 -0.03125,0.03125 -0.138386,0.125556 -0.285091,0.234436 -0.4375,0.34375 -0.102571,0.07315 -0.204318,0.153364 -0.3125,0.21875 -0.0074,0.0045 -0.02384,-0.0044 -0.03125,0 -0.232039,0.138728 -0.462548,0.274778 -0.71875,0.375 0.301527,-0.0968 0.596455,-0.204138 0.875,-0.34375 0.55709,-0.279224 1.06005,-0.665694 1.5,-1.09375 0.219973,-0.214028 0.409366,-0.441865 0.59375,-0.6875 0.184384,-0.245635 0.355408,-0.507743 0.5,-0.78125 0.14012,-0.265048 0.276135,-0.524729 0.375,-0.8125 0.01041,-0.03078 0.02133,-0.06274 0.03125,-0.09375 0.09046,-0.278085 0.1388,-0.579404 0.1875,-0.875 0.0524,-0.31805 0.09375,-0.634029 0.09375,-0.96875 v -2 -68 -2 c 0,-3.324 -2.676,-6 -6,-6 h -72 z "/>
<path style="opacity:.2;fill:url(#radialGradient3619)" id="path3615" d="M 12,90 C 8.676,90 6,87.324 6,84 L 6,82 6,14 6,12 c 0,-0.334721 0.04135,-0.6507 0.09375,-0.96875 0.0487,-0.295596 0.09704,-0.596915 0.1875,-0.875 C 6.29113,10.12587 6.302142,10.09265 6.3125,10.0625 6.411365,9.774729 6.5473802,9.515048 6.6875,9.25 6.8320918,8.976493 7.0031161,8.714385 7.1875,8.46875 7.3718839,8.223115 7.5612765,7.995278 7.78125,7.78125 8.221197,7.353194 8.72416,6.966724 9.28125,6.6875 9.559795,6.547888 9.8547231,6.440553 10.15625,6.34375 9.9000482,6.443972 9.6695391,6.580022 9.4375,6.71875 c -0.00741,0.0044 -0.023866,-0.0045 -0.03125,0 -0.031933,0.0193 -0.062293,0.04251 -0.09375,0.0625 -0.120395,0.0767 -0.2310226,0.163513 -0.34375,0.25 -0.1061728,0.0808 -0.2132809,0.161112 -0.3125,0.25 C 8.4783201,7.442683 8.3087904,7.626638 8.15625,7.8125 8.0486711,7.942755 7.9378561,8.077785 7.84375,8.21875 7.818661,8.25713 7.805304,8.30462 7.78125,8.34375 7.716487,8.446782 7.6510225,8.548267 7.59375,8.65625 7.4927417,8.850956 7.3880752,9.071951 7.3125,9.28125 7.30454,9.30306 7.288911,9.3218 7.28125,9.34375 7.2494249,9.4357 7.2454455,9.530581 7.21875,9.625 7.1884177,9.731618 7.1483606,9.828031 7.125,9.9375 7.0521214,10.279012 7,10.635705 7,11 l 0,2 0,68 0,2 c 0,2.781848 2.2181517,5 5,5 l 2,0 68,0 2,0 c 2.781848,0 5,-2.218152 5,-5 l 0,-2 0,-68 0,-2 C 89,10.635705 88.94788,10.279012 88.875,9.9375 88.83085,9.730607 88.78662,9.539842 88.71875,9.34375 88.71105,9.3218 88.69545,9.30306 88.6875,9.28125 88.62476,9.107511 88.549117,8.913801 88.46875,8.75 88.42717,8.6672 88.38971,8.580046 88.34375,8.5 88.28915,8.40279 88.216976,8.31165 88.15625,8.21875 88.06214,8.077785 87.951329,7.942755 87.84375,7.8125 87.700576,7.63805 87.540609,7.465502 87.375,7.3125 87.36383,7.3023 87.35502,7.29135 87.34375,7.28125 87.205364,7.155694 87.058659,7.046814 86.90625,6.9375 86.803679,6.86435 86.701932,6.784136 86.59375,6.71875 c -0.0074,-0.0045 -0.02384,0.0044 -0.03125,0 -0.232039,-0.138728 -0.462548,-0.274778 -0.71875,-0.375 0.301527,0.0968 0.596455,0.204138 0.875,0.34375 0.55709,0.279224 1.060053,0.665694 1.5,1.09375 0.219973,0.214028 0.409366,0.441865 0.59375,0.6875 0.184384,0.245635 0.355408,0.507743 0.5,0.78125 0.14012,0.265048 0.276135,0.524729 0.375,0.8125 0.01041,0.03078 0.02133,0.06274 0.03125,0.09375 0.09046,0.278085 0.1388,0.579404 0.1875,0.875 C 89.95865,11.3493 90,11.665279 90,12 l 0,2 0,68 0,2 c 0,3.324 -2.676,6 -6,6 l -72,0 z"/>
<path style="fill:#f00" id="path3814" d="m -66.6087,16 c -9.6,0 -17.3913,7.7913 -17.3913,17.3913 0,2.96516 0.733162,5.77362 2.04348,8.21739 -0.437454,2.05927 -0.652174,4.20227 -0.652174,6.3913 0,16.896 13.7127,30.6087 30.6087,30.6087 2.18904,0 4.33203,-0.21472 6.3913,-0.652174 2.45213,1.32206 5.238,2.04348 8.21739,2.04348 9.6,0 17.3913,-7.7913 17.3913,-17.3913 0,-2.97939 -0.721412,-5.76526 -2.04348,-8.21739 0.437454,-2.05927 0.652174,-4.20227 0.652174,-6.39131 0,-16.896 -13.7127,-30.6087 -30.6087,-30.6087 -2.18956,0 -4.33158,0.257995 -6.3913,0.695652 -2.44398,-1.31061 -5.25187,-2.08696 -8.21739,-2.08696 z "/>
<path style="fill:#fff;fill-rule:evenodd" id="path3816" d="m -52.5652,28.6739 c -9.56522,0 -15.2174,4.30435 -15.2174,11.6957 0,8.04036 10.4805,10.1169 16.9565,11 6.06168,1.62422 6.26087,2.56954 6.26087,5.21739 0,3.30009 -4.16736,4.56522 -7,4.56522 -8.55249,0 -7.92101,-6.21739 -12.4783,-6.21739 -2.34783,0 -3.47826,0.782608 -3.47826,3.73913 0,2.95652 6.08696,8.65217 15.6522,8.65217 9.56522,0 15.6522,-3.69565 15.6522,-11.087 0,-7.60919 -6.29579,-9.85952 -14.6087,-12.087 -5.52943,-1.34242 -8.6087,-2.30867 -8.6087,-4.95652 0,-3.30009 3.51518,-4.56522 6.34783,-4.56522 8.55249,0 6.66014,5.47826 11.2174,5.47826 2.34783,0 3.78261,-0.478261 3.78261,-3.43478 0,-2.95652 -4.91304,-8 -14.4783,-8 z "/>
</g>
<g id="layer5">
<rect width="66" x="15" y="15" rx="12" height="66" ry="12" style="opacity:.1;fill:url(#linearGradient3613);filter:url(#filter3794);stroke:#fff;stroke-linecap:round;stroke-width:.5;clip-path:url(#clipPath3613)" id="rect3171"/>
</g>
<g style="stroke:none" id="layer4">
<g style="fill:#bb2b12">
<path style="opacity:.1" id="path3789" d="m 33.4062,13.0312 c -11.201,0 -20.375,9.17405 -20.375,20.375 0,3.07814 0.813591,5.94301 2.03125,8.53125 -0.362158,1.96995 -0.625,3.98427 -0.625,6.0625 0,18.4909 15.0716,33.5625 33.5625,33.5625 2.07823,0 4.09256,-0.262842 6.0625,-0.625 2.59317,1.2252 5.44867,2.03125 8.53125,2.03125 11.201,0 20.375,-9.17405 20.375,-20.375 0,-3.08258 -0.806044,-5.93808 -2.03125,-8.53125 0.362155,-1.96994 0.625,-3.98426 0.625,-6.0625 0,-18.4909 -15.0716,-33.5625 -33.5625,-33.5625 -2.11849,0 -4.13557,0.320689 -6.0625,0.6875 -2.56223,-1.21853 -5.41787,-2.09375 -8.53125,-2.09375 z "/>
<path style="opacity:.15" id="path3785" d="m 33.4062,14.0312 c -10.6628,0 -19.375,8.71224 -19.375,19.375 0,3.03892 0.778653,5.88058 2.03125,8.4375 -0.382959,2.0108 -0.625,4.05749 -0.625,6.15625 0,17.955 14.6075,32.5625 32.5625,32.5625 2.09876,0 4.14545,-0.242041 6.15625,-0.625 2.56214,1.26102 5.39175,2.03125 8.4375,2.03125 10.6628,0 19.375,-8.71224 19.375,-19.375 0,-3.04575 -0.770219,-5.87535 -2.03125,-8.4375 0.382955,-2.01079 0.625,-4.05748 0.625,-6.15625 0,-17.955 -14.6075,-32.5625 -32.5625,-32.5625 -2.12288,0 -4.18138,0.302511 -6.15625,0.6875 -2.53828,-1.25275 -5.37331,-2.09375 -8.4375,-2.09375 z "/>
</g>
<path style="fill:url(#linearGradient3746)" id="path3818" d="m 33.4062,16 c -9.6,0 -17.4062,7.80625 -17.4062,17.4062 0,2.96516 0.720934,5.74373 2.03125,8.1875 -0.437454,2.05927 -0.625,4.21722 -0.625,6.40625 0,16.896 13.6977,30.5938 30.5938,30.5938 2.18904,0 4.34698,-0.187546 6.40625,-0.625 2.45213,1.32206 5.20811,2.03125 8.1875,2.03125 9.6,0 17.4062,-7.80625 17.4062,-17.4062 0,-2.97939 -0.70918,-5.73537 -2.03125,-8.1875 0.43745,-2.05927 0.625,-4.21721 0.625,-6.40625 0,-16.896 -13.6977,-30.5938 -30.5938,-30.5938 -2.18956,0 -4.34653,0.249843 -6.40625,0.6875 -2.44398,-1.31061 -5.22198,-2.09375 -8.1875,-2.09375 z "/>
<path style="fill:#f00" id="path3689" d="m -66.6087,16 c -9.6,0 -17.3913,7.7913 -17.3913,17.3913 0,2.96516 0.733162,5.77362 2.04348,8.21739 -0.437454,2.05927 -0.652174,4.20227 -0.652174,6.3913 0,16.896 13.7127,30.6087 30.6087,30.6087 2.18904,0 4.33203,-0.21472 6.3913,-0.652174 2.45213,1.32206 5.238,2.04348 8.21739,2.04348 9.6,0 17.3913,-7.7913 17.3913,-17.3913 0,-2.97939 -0.721412,-5.76526 -2.04348,-8.21739 0.437454,-2.05927 0.652174,-4.20227 0.652174,-6.39131 0,-16.896 -13.7127,-30.6087 -30.6087,-30.6087 -2.18956,0 -4.33158,0.257995 -6.3913,0.695652 -2.44398,-1.31061 -5.25187,-2.08696 -8.21739,-2.08696 z "/>
<path style="fill:#fff;fill-rule:evenodd" id="path3691" d="m -52.5652,28.6739 c -9.56522,0 -15.2174,4.30435 -15.2174,11.6957 0,8.04036 10.4805,10.1169 16.9565,11 6.06168,1.62422 6.26087,2.56954 6.26087,5.21739 0,3.30009 -4.16736,4.56522 -7,4.56522 -8.55249,0 -7.92101,-6.21739 -12.4783,-6.21739 -2.34783,0 -3.47826,0.782608 -3.47826,3.73913 0,2.95652 6.08696,8.65217 15.6522,8.65217 9.56522,0 15.6522,-3.69565 15.6522,-11.087 0,-7.60919 -6.29579,-9.85952 -14.6087,-12.087 -5.52943,-1.34242 -8.6087,-2.30867 -8.6087,-4.95652 0,-3.30009 3.51518,-4.56522 6.34783,-4.56522 8.55249,0 6.66014,5.47826 11.2174,5.47826 2.34783,0 3.78261,-0.478261 3.78261,-3.43478 0,-2.95652 -4.91304,-8 -14.4783,-8 z "/>
<path style="opacity:.6;fill:url(#linearGradient3738)" id="path3727" d="m 33.4062,16 c -9.6,0 -17.4062,7.80625 -17.4062,17.4062 0,2.96516 0.720934,5.74373 2.03125,8.1875 -0.437454,2.05927 -0.625,4.21722 -0.625,6.40625 0,4.38169 0.93294,8.54263 2.59375,12.3125 16.5555,-13.7117 43.2221,-18.1491 57.75,-19.5938 -3.26851,-13.3865 -15.3614,-23.3125 -29.75,-23.3125 -2.18956,0 -4.34653,0.249843 -6.40625,0.6875 -2.44398,-1.31061 -5.22198,-2.09375 -8.1875,-2.09375 z "/>
<path style="fill:#bf4d2a" id="path3781" d="m 33.4062,15.0625 c -10.1036,0 -18.3438,8.24013 -18.3438,18.3438 0,2.99718 0.747733,5.80756 2.03125,8.3125 -0.408641,2.04194 -0.625,4.14542 -0.625,6.28125 0,17.3981 14.1331,31.5312 31.5312,31.5312 2.13583,0 4.23931,-0.216359 6.28125,-0.625 2.51099,1.29305 5.30546,2.03125 8.3125,2.03125 10.1036,0 18.3438,-8.24013 18.3438,-18.3438 0,-3.00704 -0.73818,-5.80151 -2.03125,-8.3125 0.40864,-2.04194 0.625,-4.14541 0.625,-6.28125 0,-17.3981 -14.1331,-31.5312 -31.5312,-31.5312 -2.15321,0 -4.25406,0.27619 -6.28125,0.6875 -2.49503,-1.28303 -5.30298,-2.09375 -8.3125,-2.09375 z  m 0,.9375 c -0.6,0 -1.19673,0.03423 -1.78125,0.09375 -0.49975,0.05089 -0.98231,0.126348 -1.46875,0.21875 0.48778,-0.0922 0.96772,-0.168039 1.46875,-0.21875 0.5849,-0.0592 1.18107,-0.09375 1.78125,-0.09375 z  m 3.4062,.3438 c 0.64612,0.131388 1.28592,0.297862 1.90625,0.5 -0.61832,-0.203276 -1.25989,-0.366551 -1.90625,-0.5 z  m -7.1562,.0625 c -0.47838,0.105653 -0.94344,0.230785 -1.40625,0.375 0.45955,-0.142013 0.93146,-0.27078 1.40625,-0.375 z  m -1.625,.4375 c -0.47068,0.153408 -0.95405,0.339706 -1.40625,0.53125 0.46235,-0.195463 0.92461,-0.375509 1.40625,-0.53125 z  m 18.3438,.5938 c -0.54231,0.03026 -1.0898,0.09767 -1.625,0.15625 0.54057,-0.0614 1.08014,-0.124998 1.625,-0.15625 z  m -12.9688,.5 c 2.62285,0 5.09404,0.702088 7.28125,1.875 a 1.94661,1.94661 0 0,0 1.3125,0.1875 c 1.9368,-0.411538 3.95851,-0.65625 6,-0.65625 15.844,0 28.6562,12.8122 28.6562,28.6562 0,2.07786 -0.19023,4.10048 -0.59375,6 a 1.94661,1.94661 0 0,0 0.1875,1.34375 c 1.17095,2.17183 1.8125,4.57947 1.8125,7.25 0,8.54485 -6.9239,15.4688 -15.4688,15.4688 -2.67052,0 -5.07817,-0.641563 -7.25,-1.8125 a 1.94661,1.94661 0 0,0 -1.34375,-0.1875 c -1.89952,0.403518 -3.92214,0.59375 -6,0.59375 -15.844,0 -28.6562,-12.8122 -28.6562,-28.6562 0,-2.07786 0.190232,-4.10048 0.59375,-6 a 1.94661,1.94661 0 0,0 -0.1875,-1.3125 c -1.16047,-2.1643 -1.8125,-4.63159 -1.8125,-7.28125 0,-8.54485 6.9239,-15.4688 15.4688,-15.4688 z  m -8.2812,.1562 c -0.49323,0.268234 -0.97443,0.561926 -1.4375,0.875 -0.40779,0.275697 -0.80524,0.566672 -1.1875,0.875 0.38072,-0.305624 0.78143,-0.601722 1.1875,-0.875 0.46302,-0.311604 0.94431,-0.608132 1.4375,-0.875 z  m 34.7812,1.7188 c 0.91539,0.387391 1.82011,0.809864 2.6875,1.28125 -0.86698,-0.470984 -1.77246,-0.894209 -2.6875,-1.28125 z  m -37.5625,.1562 c -0.42998,0.354977 -0.85605,0.731055 -1.25,1.125 -0.29002,0.290018 -0.57464,0.596494 -0.84375,0.90625 0.27183,-0.313223 0.55037,-0.613325 0.84375,-0.90625 0.39793,-0.397305 0.8151,-0.767605 1.25,-1.125 z  m 43.9688,3.5 c 0.78574,0.587738 1.52512,1.21612 2.25,1.875 -0.72441,-0.658414 -1.46471,-1.28771 -2.25,-1.875 z  m 4.3438,3.9688 c 0.65888,0.724879 1.28726,1.46426 1.875,2.25 -0.58729,-0.785287 -1.21659,-1.52559 -1.875,-2.25 z  m -53.875,.8125 c -0.166754,0.53514 -0.322492,1.06923 -0.4375,1.625 0.113853,-0.555916 0.271929,-1.08974 0.4375,-1.625 z  m 58.125,5.1562 c 0.47139,0.867386 0.89386,1.77211 1.28125,2.6875 -0.38704,-0.915041 -0.81027,-1.82052 -1.28125,-2.6875 z  m -55.0938,26.5 c 0.38704,0.915041 0.81027,1.82052 1.28125,2.6875 -0.47139,-0.867386 -0.89386,-1.77211 -1.28125,-2.6875 z  m 60.0938,4.4688 c -0.0595,0.584518 -0.1339,1.15265 -0.25,1.71875 0.1161,-0.566101 0.19048,-1.13423 0.25,-1.71875 z  m -.25,1.75 c -0.11501,0.555772 -0.27075,1.08986 -0.4375,1.625 0.16675,-0.53514 0.32249,-1.06923 0.4375,-1.625 z  m -56.1875,.1875 c 0.58729,0.785287 1.21659,1.52559 1.875,2.25 -0.65888,-0.724879 -1.28726,-1.46426 -1.875,-2.25 z  m 3.9688,4.3438 c 0.72441,0.658414 1.46471,1.28771 2.25,1.875 -0.78574,-0.587738 -1.52512,-1.21612 -2.25,-1.875 z  m 5.9688,4.25 c 0.86698,0.470984 1.77246,0.894209 2.6875,1.28125 -0.91539,-0.387391 -1.82011,-0.809864 -2.6875,-1.28125 z "/>
<path style="opacity:.5;fill:url(#linearGradient3781)" id="path3760" d="M 33.40625,16 C 23.804515,16 16,23.804515 16,33.40625 c 0,2.843656 0.684161,5.521192 1.90625,7.90625 0.09573,0.180245 0.129285,0.392779 0.09375,0.59375 -0.397007,1.983812 -0.59375,4.020256 -0.59375,6.09375 0,8.425348 3.428761,16.030071 8.9375,21.5625 C 21.405934,64.12962 18.40625,56.921036 18.40625,49 c 0,-0.165813 -0.0025,-0.334669 0,-0.5 -0.0027,-0.166028 0,-0.333318 0,-0.5 0,-1.924137 0.191267,-3.796874 0.53125,-5.59375 1.76e-4,-0.01042 1.76e-4,-0.02083 0,-0.03125 C 18.9279,42.35378 18.91745,42.33293 18.90625,42.3125 17.684161,39.927442 17,37.249906 17,34.40625 c 0,-0.126542 0.02855,-0.249096 0.03125,-0.375 C 17.023205,33.821033 17,33.618581 17,33.40625 17,24.362757 24.362752,17 33.40625,17 c 0.211306,0 0.415641,0.02261 0.625,0.03125 C 34.157154,17.028553 34.279708,17 34.40625,17 c 2.843745,0 5.489817,0.742204 7.875,1.96875 0.02043,0.0112 0.04128,0.02163 0.0625,0.03125 0.01042,1.76e-4 0.02083,1.76e-4 0.03125,0 1.643065,-0.321279 3.336931,-0.524983 5.0625,-0.5625 0.18618,-0.004 0.37574,-0.03125 0.5625,-0.03125 0.166682,0 0.333972,-0.0027 0.5,0 0.165369,-0.0032 0.334124,0 0.5,0 7.921035,0 15.12962,2.999684 20.5625,7.9375 C 64.03007,20.835011 56.425347,17.40625 48,17.40625 c -2.074275,0 -4.10944,0.25364 -6.09375,0.65625 -0.210705,0.04282 -0.43613,0.009 -0.625,-0.09375 C 38.896067,16.742204 36.249995,16 33.40625,16 z"/>
<path style="opacity:.5;fill:url(#linearGradient3773)" id="path3765" d="M 62.59375,80 C 72.195485,80 80,72.195485 80,62.59375 80,59.750094 79.315839,57.072558 78.09375,54.6875 77.99802,54.507255 77.964465,54.294721 78,54.09375 78.397007,52.109938 78.59375,50.073494 78.59375,48 c 0,-8.425348 -3.428761,-16.030071 -8.9375,-21.5625 4.937816,5.43288 7.9375,12.641464 7.9375,20.5625 0,0.165813 0.0025,0.334669 0,0.5 0.0027,0.166028 0,0.333318 0,0.5 0,1.924137 -0.191267,3.796874 -0.53125,5.59375 -1.76e-4,0.01042 -1.76e-4,0.02083 0,0.03125 0.0096,0.02122 0.02005,0.04207 0.03125,0.0625 C 78.315839,56.072558 79,58.750094 79,61.59375 c 0,0.126542 -0.02855,0.249096 -0.03125,0.375 C 78.976795,62.178967 79,62.381419 79,62.59375 79,71.637243 71.637248,79 62.59375,79 62.382444,79 62.178109,78.97739 61.96875,78.96875 61.842846,78.971447 61.720292,79 61.59375,79 58.750005,79 56.103933,78.257796 53.71875,77.03125 53.69832,77.02005 53.67747,77.00962 53.65625,77 c -0.01042,-1.76e-4 -0.02083,-1.76e-4 -0.03125,0 -1.643065,0.321279 -3.336931,0.524983 -5.0625,0.5625 -0.18618,0.004 -0.37574,0.03125 -0.5625,0.03125 -0.166682,0 -0.333972,0.0027 -0.5,0 -0.165369,0.0032 -0.334124,0 -0.5,0 -7.921035,0 -15.12962,-2.999684 -20.5625,-7.9375 5.53243,5.508739 13.137153,8.9375 21.5625,8.9375 2.074275,0 4.10944,-0.25364 6.09375,-0.65625 0.210705,-0.04282 0.43613,-0.009 0.625,0.09375 C 57.103933,79.257796 59.750005,80 62.59375,80 z"/>
<path style="fill:#b63923" id="path3783" d="m 33.4062,16.9375 c -8.54485,0 -15.4688,6.92391 -15.4688,15.4688 0,0.217466 0.02255,0.441307 0.03125,0.65625 0.183545,-8.38529 7.00805,-15.125 15.4375,-15.125 2.62285,0 5.09404,0.702088 7.28125,1.875 a 1.94661,1.94661 0 0,0 1.3125,0.1875 c 1.9368,-0.411538 3.95851,-0.65625 6,-0.65625 15.6755,0 28.3878,12.5456 28.6562,28.1562 0.0024,-0.165421 0,-0.333837 0,-0.5 0,-15.844 -12.8122,-28.6562 -28.6562,-28.6562 -2.04149,0 -4.0632,0.244712 -6,0.65625 a 1.94661,1.94661 0 0,1 -1.3125,-0.1875 c -2.18721,-1.17291 -4.6584,-1.875 -7.28125,-1.875 z  m -18.3125,16.125 c -0.0022,0.115506 -0.03125,0.227743 -0.03125,0.34375 0,2.8901 0.705772,5.59491 1.90625,8.03125 0.04255,-0.240842 0.07713,-0.47955 0.125,-0.71875 -1.18988,-2.32219 -1.8999,-4.90359 -2,-7.65625 z  m 4.8125,8.0312 c -0.389746,1.87175 -0.5625,3.86318 -0.5625,5.90625 0,0.168477 -0.0029,0.33222 0,0.5 0.02813,-1.90317 0.222501,-3.75238 0.59375,-5.5 a 1.94661,1.94661 0 0,0 -0.03125,-0.90625 z  m -3.4375,6.4062 c -0.0026,0.16704 0,0.332548 0,0.5 0,17.3981 14.1331,31.5312 31.5312,31.5312 2.13583,0 4.23931,-0.216359 6.28125,-0.625 2.51099,1.29305 5.30546,2.03125 8.3125,2.03125 10.1036,0 18.3438,-8.24013 18.3438,-18.3438 0,-0.219384 -0.02346,-0.439156 -0.03125,-0.65625 -0.186218,9.94448 -8.32489,18 -18.3125,18 -3.00704,0 -5.80151,-0.738196 -8.3125,-2.03125 -2.04194,0.408641 -4.14542,0.625 -6.28125,0.625 -17.2309,0 -31.2632,-13.8635 -31.5312,-31.0312 z  m 63.0625,0 c -0.03113,1.96354 -0.248398,3.8994 -0.625,5.78125 0.0462,0.08972 0.08022,0.190813 0.125,0.28125 0.320707,-1.81511 0.5,-3.67686 0.5,-5.5625 0,-0.167228 0.0026,-0.333385 0,-0.5 z  m -3.4375,6.4062 c -0.0066,0.03187 -0.02449,0.06195 -0.03125,0.09375 a 1.94661,1.94661 0 0,0 0.1875,1.34375 c 1.07485,1.99358 1.68528,4.18184 1.78125,6.59375 0.0025,-0.1148 0.03125,-0.228345 0.03125,-0.34375 0,-2.67053 -0.64155,-5.07817 -1.8125,-7.25 a 1.94661,1.94661 0 0,1 -0.15625,-0.4375 z "/>
<g style="fill:#bb2b12">
<path style="opacity:.1" id="path3782" d="m 49.5938,34.2812 c -0.510076,0.116785 -0.908198,0.467263 -1.125,0.875 -0.196329,0.369235 -0.205514,0.808332 -0.15625,1.21875 0.0051,0.0428 -0.0389,0.0824 -0.03125,0.125 v 4.78125 h -16.5 a 0.630265,0.630265 0 0,0 -0.125,0 c -0.957076,0.202473 -1.45113,1.15532 -1.34375,2.0625 0.004,0.03369 -0.03701,0.06022 -0.03125,0.09375 v 9.78125 a 0.630265,0.630265 0 0,0 0,0.125 c 0.202473,0.957076 1.15532,1.45113 2.0625,1.34375 v 0.03125 c 0.03172,-0.0039 0.06218,0.0054 0.09375,0 h 15.8438 c 0.0057,1.85468 -0.03594,3.74332 0.03125,5.625 a 0.630265,0.630265 0 0,0 0,0.125 c 0.187653,0.713256 0.818721,1.17152 1.4375,1.25 0.57736,0.07322 1.20419,-0.147279 1.625,-0.625 0.03019,-0.03427 0.06573,-0.0565 0.09375,-0.09375 4.57045,-3.9575 9.20601,-7.91134 13.75,-11.875 a 0.630265,0.630265 0 0,0 0.03125,-0.03125 c 0.427626,-0.435878 0.562778,-1.05378 0.4375,-1.5625 -0.11487,-0.466456 -0.425457,-0.857971 -0.84375,-1.125 -0.0335,-0.0285 -0.06025,-0.06525 -0.09375,-0.09375 -4.53959,-3.86277 -9.06588,-7.79041 -13.625,-11.625 -0.0074,-0.0067 -0.02381,0.0065 -0.03125,0 -0.428158,-0.373177 -0.972849,-0.429761 -1.375,-0.40625 a 0.630265,0.630265 0 0,0 -0.125,0 z "/>
<path style="opacity:.3" id="path3775" d="m 49.75,34.9062 c -0.660377,0.151197 -0.958526,0.830777 -0.84375,1.46952 0,1.84349 0,3.68698 0,5.53048 -5.70833,0 -11.4167,0 -17.125,0 -0.640764,0.135556 -0.987573,0.78275 -0.875,1.43827 0,3.29141 0,6.58282 0,9.87423 0.135556,0.640764 0.78275,0.987573 1.43827,0.875 5.52058,0 11.0412,0 16.5617,0 0.02136,2.07114 -0.0424,4.1561 0.03125,6.21875 0.241698,0.918679 1.5076,1.01655 2.04201,0.306078 4.60475,-3.98791 9.25901,-7.9725 13.833,-11.9623 0.534906,-0.545228 0.238358,-1.44765 -0.386912,-1.78633 -4.58186,-3.89778 -9.14373,-7.84973 -13.7381,-11.7137 -0.269772,-0.244786 -0.580113,-0.270894 -0.9375,-0.25 z "/>
<path style="opacity:.6" id="path3771" d="m 49.9688,35.5 a 0.489396,0.489396 0 0,0 -0.46875,0.5 v 6.5 h -17.5 a 0.489396,0.489396 0 0,0 -0.5,0.5 v 10 a 0.489396,0.489396 0 0,0 0.5,0.5 h 17.5 v 6.5 a 0.489396,0.489396 0 0,0 0.8125,0.375 l 14,-12.0625 a 0.489396,0.489396 0 0,0 0,-0.75 l -14,-11.9375 a 0.489396,0.489396 0 0,0 -0.34375,-0.125 z "/>
</g>
<path style="fill:#fff" id="path3803" d="M 50,36 64,47.934756 50,60 l 0,-7 -18,0 0,-10 18,0 0,-7 z"/>
</g>
</svg>
