<svg width="96" version="1.0" xmlns="http://www.w3.org/2000/svg" height="96" xmlns:xlink="http://www.w3.org/1999/xlink">
<defs id="defs2410">
<clipPath id="clipPath3613">
<rect width="84" x="6" y="6" rx="6" height="84" ry="6" style="fill:#fff;stroke:none" id="rect3615"/>
</clipPath>
<clipPath id="clipPath3644">
<path style="fill:url(#linearGradient3648);stroke:none" id="path3646" d="m 12,96 c -3.324,0 -6,2.676 -6,6 v 72 c 0,3.324 2.676,6 6,6 h 72 c 3.324,0 6,-2.676 6,-6 v -72 c 0,-3.324 -2.676,-6 -6,-6 h -72 z  m 36,11 c 18.2254,0 33,12.0883 33,27 0,14.9117 -14.7746,27 -33,27 -2.71393,0 -5.35149,-0.27575 -7.875,-0.78125 -3.39265,3.54119 -9.78334,8.23332 -19.4062,7.1875 7.42974,-2.10018 8.99912,-8.24125 9.34375,-10.75 -9.06274,-4.81279 -15.0625,-13.1578 -15.0625,-22.6562 0,-14.9117 14.7746,-27 33,-27 z "/>
</clipPath>
<filter width="1.3839999" x="-0.192" y="-0.192" height="1.3839999" style="color-interpolation-filters:sRGB" id="filter3794">
<feGaussianBlur stdDeviation="5.28" id="feGaussianBlur3796"/>
</filter>
<filter id="filter4460">
<feGaussianBlur stdDeviation="0.80244988" id="feGaussianBlur4462"/>
</filter>
<filter id="filter4470">
<feGaussianBlur stdDeviation="0.26748329" id="feGaussianBlur4472"/>
</filter>
<filter style="color-interpolation-filters:sRGB" id="filter3174">
<feGaussianBlur stdDeviation="1.71" id="feGaussianBlur3176"/>
</filter>
<linearGradient gradientTransform="matrix(1.0238095,0,0,1.0119048,-1.1428571,-98.071429)" id="linearGradient3772" xlink:href="#ButtonShadow-0" y1="6.1317081" x1="32.251034" y2="90.238609" x2="32.251034" gradientUnits="userSpaceOnUse"/>
<linearGradient gradientTransform="matrix(1.0238095,0,0,1.0119048,-1.1428571,-98.071429)" id="linearGradient3725" xlink:href="#ButtonShadow-0" y1="6.1317081" x1="32.251034" y2="90.238609" x2="32.251034" gradientUnits="userSpaceOnUse"/>
<linearGradient gradientTransform="translate(0,-97)" id="linearGradient3721" xlink:href="#ButtonShadow-0" y1="6.1317081" x1="32.251034" y2="90.238609" x2="32.251034" gradientUnits="userSpaceOnUse"/>
<linearGradient gradientTransform="matrix(1.0238095,0,0,1.0119048,-1.1428571,-98.071429)" id="linearGradient2918" xlink:href="#ButtonShadow-0" y1="6.1317081" x1="32.251034" y2="90.238609" x2="32.251034" gradientUnits="userSpaceOnUse"/>
<linearGradient gradientTransform="scale(1.0058652,0.994169)" id="ButtonShadow" y1="92.539597" x1="45.447727" y2="7.0165396" x2="45.447727" gradientUnits="userSpaceOnUse">
<stop offset="0" id="stop3750"/>
<stop offset="1" style="stop-opacity:.588" id="stop3752"/>
</linearGradient>
<linearGradient gradientTransform="matrix(1.0238095,0,0,1.0119048,-1.1428571,-98.071429)" id="linearGradient3780" xlink:href="#ButtonShadow-0" y1="6.1317081" x1="32.251034" y2="90.238609" x2="32.251034" gradientUnits="userSpaceOnUse"/>
<linearGradient gradientTransform="matrix(1.0058652,0,0,0.994169,100,0)" id="ButtonShadow-0" y1="92.539597" x1="45.447727" y2="7.0165396" x2="45.447727" gradientUnits="userSpaceOnUse">
<stop offset="0" id="stop3750-8"/>
<stop offset="1" style="stop-opacity:.588" id="stop3752-5"/>
</linearGradient>
<linearGradient id="linearGradient3613" xlink:href="#linearGradient3737" y1="20.220806" x1="48" y2="138.66119" x2="48" gradientUnits="userSpaceOnUse"/>
<linearGradient id="linearGradient3188" xlink:href="#linearGradient3737" y1="6" x1="36.357143" y2="63.893143" x2="36.357143" gradientUnits="userSpaceOnUse"/>
<linearGradient id="linearGradient3737">
<stop offset="0" style="stop-color:#fff" id="stop3739"/>
<stop offset="1" style="stop-color:#fff;stop-opacity:0" id="stop3741"/>
</linearGradient>
<linearGradient id="linearGradient3617" xlink:href="#linearGradient3614" y1="90" x1="48" y2="5.9877172" x2="48" gradientUnits="userSpaceOnUse"/>
<linearGradient gradientTransform="translate(0,90)" id="linearGradient3648" xlink:href="#linearGradient3614" y1="90" x1="48" y2="5.9877172" x2="48" gradientUnits="userSpaceOnUse"/>
<linearGradient id="linearGradient3614">
<stop offset="0" style="stop-color:#2557a3" id="stop3616"/>
<stop offset="1" style="stop-color:#5287d7" id="stop3618"/>
</linearGradient>
<radialGradient fx="48" fy="90.171875" cx="48" cy="90.171875" gradientTransform="matrix(1.1573129,0,0,0.99590774,-7.5510206,0.19713193)" r="42" id="radialGradient3619" xlink:href="#linearGradient3737" gradientUnits="userSpaceOnUse"/>
</defs>
<g style="display:none" id="layer2">
<rect width="86" x="5" y="7" rx="6" height="85" ry="6" style="opacity:.9;fill:url(#ButtonShadow);filter:url(#filter3174);stroke:none" id="rect3745"/>
</g>
<g style="stroke:none" id="layer6">
<path style="opacity:.08;fill:url(#linearGradient2918)" id="path3786" d="m 12,-95.0312 c -5.51109,0 -10.0312,4.52016 -10.0312,10.0312 v 71 c 0,5.51109 4.52016,10.0312 10.0312,10.0312 h 72 c 5.51109,0 10.0312,-4.52016 10.0312,-10.0312 v -71 c 0,-5.51109 -4.52016,-10.0312 -10.0312,-10.0312 h -72 z " transform="scale(1,-1)"/>
<path style="opacity:.1;fill:url(#linearGradient3780)" id="path3778" d="m 12,-94.0312 c -4.97163,0 -9.03125,4.05962 -9.03125,9.03125 v 71 c 0,4.97163 4.05962,9.03125 9.03125,9.03125 h 72 c 4.97163,0 9.03125,-4.05962 9.03125,-9.03125 v -71 c 0,-4.97163 -4.05962,-9.03125 -9.03125,-9.03125 h -72 z " transform="scale(1,-1)"/>
<path style="opacity:.2;fill:url(#linearGradient3772)" id="path3770" d="m 12,-93 c -4.40913,0 -8,3.59087 -8,8 v 71 c 0,4.40913 3.59087,8 8,8 h 72 c 4.40913,0 8,-3.59087 8,-8 v -71 c 0,-4.40913 -3.59087,-8 -8,-8 h -72 z " transform="scale(1,-1)"/>
<rect width="86" x="5" y="-92" rx="7" height="85" ry="7" style="opacity:.3;fill:url(#linearGradient3725)" id="rect3723" transform="scale(1,-1)"/>
<rect width="84" x="6" y="-91" rx="6" height="84" ry="6" style="opacity:.45;fill:url(#linearGradient3721)" id="rect3716" transform="scale(1,-1)"/>
</g>
<g style="stroke:none" id="layer1">
<rect width="84" x="6" y="6" rx="6" height="84" ry="6" style="fill:url(#linearGradient3617)" id="rect2419"/>
<path style="opacity:.4;fill:url(#linearGradient3188)" id="rect3728" d="m 12,6 c -3.324,0 -6,2.676 -6,6 v 2 68 2 c 0,0.334721 0.04135,0.6507 0.09375,0.96875 0.0487,0.295596 0.09704,0.596915 0.1875,0.875 0.00988,0.03038 0.020892,0.0636 0.03125,0.09375 0.098865,0.287771 0.23488,0.547452 0.375,0.8125 0.144592,0.273507 0.315616,0.535615 0.5,0.78125 0.184384,0.245635 0.373776,0.473472 0.59375,0.6875 0.439947,0.428056 0.94291,0.814526 1.5,1.09375 0.278545,0.139612 0.573473,0.246947 0.875,0.34375 -0.256202,-0.100222 -0.486711,-0.236272 -0.71875,-0.375 -0.00741,-0.0044 -0.023866,0.0045 -0.03125,0 -0.031933,-0.0193 -0.062293,-0.04251 -0.09375,-0.0625 -0.120395,-0.0767 -0.231023,-0.163513 -0.34375,-0.25 -0.106173,-0.0808 -0.213281,-0.161112 -0.3125,-0.25 -0.17793,-0.161433 -0.34746,-0.345388 -0.5,-0.53125 -0.107579,-0.130255 -0.218394,-0.265285 -0.3125,-0.40625 -0.025089,-0.03838 -0.038446,-0.08587 -0.0625,-0.125 -0.064763,-0.103032 -0.130228,-0.204517 -0.1875,-0.3125 -0.101008,-0.194706 -0.205675,-0.415701 -0.28125,-0.625 -0.00796,-0.02181 -0.023589,-0.04055 -0.03125,-0.0625 -0.0318251,-0.09195 -0.0358045,-0.186831 -0.0625,-0.28125 -0.0303323,-0.106618 -0.0703894,-0.203031 -0.09375,-0.3125 -0.0728786,-0.341512 -0.125,-0.698205 -0.125,-1.0625 v -2 -68 -2 c 0,-2.78185 2.21815,-5 5,-5 h 2 68 2 c 2.78185,0 5,2.21815 5,5 v 2 68 2 c 0,0.364295 -0.05212,0.720988 -0.125,1.0625 -0.04415,0.206893 -0.08838,0.397658 -0.15625,0.59375 -0.0077,0.02195 -0.0233,0.04069 -0.03125,0.0625 -0.06274,0.173739 -0.138383,0.367449 -0.21875,0.53125 -0.04158,0.0828 -0.07904,0.169954 -0.125,0.25 -0.0546,0.09721 -0.126774,0.18835 -0.1875,0.28125 -0.09411,0.140965 -0.204921,0.275995 -0.3125,0.40625 -0.143174,0.17445 -0.303141,0.346998 -0.46875,0.5 -0.01117,0.0102 -0.01998,0.02115 -0.03125,0.03125 -0.138386,0.125556 -0.285091,0.234436 -0.4375,0.34375 -0.102571,0.07315 -0.204318,0.153364 -0.3125,0.21875 -0.0074,0.0045 -0.02384,-0.0044 -0.03125,0 -0.232039,0.138728 -0.462548,0.274778 -0.71875,0.375 0.301527,-0.0968 0.596455,-0.204138 0.875,-0.34375 0.55709,-0.279224 1.06005,-0.665694 1.5,-1.09375 0.219973,-0.214028 0.409366,-0.441865 0.59375,-0.6875 0.184384,-0.245635 0.355408,-0.507743 0.5,-0.78125 0.14012,-0.265048 0.276135,-0.524729 0.375,-0.8125 0.01041,-0.03078 0.02133,-0.06274 0.03125,-0.09375 0.09046,-0.278085 0.1388,-0.579404 0.1875,-0.875 0.0524,-0.31805 0.09375,-0.634029 0.09375,-0.96875 v -2 -68 -2 c 0,-3.324 -2.676,-6 -6,-6 h -72 z "/>
<path style="opacity:.2;fill:url(#radialGradient3619)" id="path3615" d="M 12,90 C 8.676,90 6,87.324 6,84 L 6,82 6,14 6,12 c 0,-0.334721 0.04135,-0.6507 0.09375,-0.96875 0.0487,-0.295596 0.09704,-0.596915 0.1875,-0.875 C 6.29113,10.12587 6.302142,10.09265 6.3125,10.0625 6.411365,9.774729 6.5473802,9.515048 6.6875,9.25 6.8320918,8.976493 7.0031161,8.714385 7.1875,8.46875 7.3718839,8.223115 7.5612765,7.995278 7.78125,7.78125 8.221197,7.353194 8.72416,6.966724 9.28125,6.6875 9.559795,6.547888 9.8547231,6.440553 10.15625,6.34375 9.9000482,6.443972 9.6695391,6.580022 9.4375,6.71875 c -0.00741,0.0044 -0.023866,-0.0045 -0.03125,0 -0.031933,0.0193 -0.062293,0.04251 -0.09375,0.0625 -0.120395,0.0767 -0.2310226,0.163513 -0.34375,0.25 -0.1061728,0.0808 -0.2132809,0.161112 -0.3125,0.25 C 8.4783201,7.442683 8.3087904,7.626638 8.15625,7.8125 8.0486711,7.942755 7.9378561,8.077785 7.84375,8.21875 7.818661,8.25713 7.805304,8.30462 7.78125,8.34375 7.716487,8.446782 7.6510225,8.548267 7.59375,8.65625 7.4927417,8.850956 7.3880752,9.071951 7.3125,9.28125 7.30454,9.30306 7.288911,9.3218 7.28125,9.34375 7.2494249,9.4357 7.2454455,9.530581 7.21875,9.625 7.1884177,9.731618 7.1483606,9.828031 7.125,9.9375 7.0521214,10.279012 7,10.635705 7,11 l 0,2 0,68 0,2 c 0,2.781848 2.2181517,5 5,5 l 2,0 68,0 2,0 c 2.781848,0 5,-2.218152 5,-5 l 0,-2 0,-68 0,-2 C 89,10.635705 88.94788,10.279012 88.875,9.9375 88.83085,9.730607 88.78662,9.539842 88.71875,9.34375 88.71105,9.3218 88.69545,9.30306 88.6875,9.28125 88.62476,9.107511 88.549117,8.913801 88.46875,8.75 88.42717,8.6672 88.38971,8.580046 88.34375,8.5 88.28915,8.40279 88.216976,8.31165 88.15625,8.21875 88.06214,8.077785 87.951329,7.942755 87.84375,7.8125 87.700576,7.63805 87.540609,7.465502 87.375,7.3125 87.36383,7.3023 87.35502,7.29135 87.34375,7.28125 87.205364,7.155694 87.058659,7.046814 86.90625,6.9375 86.803679,6.86435 86.701932,6.784136 86.59375,6.71875 c -0.0074,-0.0045 -0.02384,0.0044 -0.03125,0 -0.232039,-0.138728 -0.462548,-0.274778 -0.71875,-0.375 0.301527,0.0968 0.596455,0.204138 0.875,0.34375 0.55709,0.279224 1.060053,0.665694 1.5,1.09375 0.219973,0.214028 0.409366,0.441865 0.59375,0.6875 0.184384,0.245635 0.355408,0.507743 0.5,0.78125 0.14012,0.265048 0.276135,0.524729 0.375,0.8125 0.01041,0.03078 0.02133,0.06274 0.03125,0.09375 0.09046,0.278085 0.1388,0.579404 0.1875,0.875 C 89.95865,11.3493 90,11.665279 90,12 l 0,2 0,68 0,2 c 0,3.324 -2.676,6 -6,6 l -72,0 z"/>
</g>
<g style="display:none" id="layer5">
<rect width="66" x="15" y="15" rx="12" height="66" ry="12" style="opacity:.1;fill:url(#linearGradient3613);filter:url(#filter3794);stroke:#fff;stroke-linecap:round;stroke-width:.5;clip-path:url(#clipPath3613)" id="rect3171"/>
</g>
<g id="g3175" transform="translate(0.86290995,3.1640031)">
<g style="fill:#fdfefe;stroke:#fffcfc;stroke-width:.92">
<path style="filter:url(#filter4460)" id="path4394" d="m 18.9293,30.0643 .1134,-1.5065 .187,-1.3094 .4747,-1.4885 .538,-.9033 .8434,-.9207 .9933,-.8047 1.0903,-.5374 .8555,-.3249 1.3296,-.3416 1.4286,-.2314 1.476,-.008 1.133,.0938 1.0915,.2359 .9631,.423 .5884,-1.6729 .6217,-1.2867 .7951,-.9729 .8819,-.8768 .7756,-.6628 1.3349,-.9102 1.6008,-.6901 1.8571,-.616 2.1458,-.5062 1.8291,-.0964 1.4475,.1455 .8956,.2059 1.1057,.552 1.6521,.9217 1.4108,1.0225 1.2816,1.161 .9424,1.2707 .7083,1.3504 .479,1.3206 1.924,-.4374 1.8261,-.4045 1.9976,-.0397 1.903,.0799 2.2661,.576 1.4904,.641 1.3413,.8053 1.3476,1.2036 .8305,1.3397 .5687,1.5134 .3121,1.1472 .3088,1.9945 1.242,.6947 1.4182,1.0295 1.0962,.9803 1.0073,1.313 .6477,1.737 .4232,1.8712 .0567,2.1888 -.3717,1.7527 -.846,1.7285 -1.0551,1.4727 -1.002,.9183 -1.0188,.5474 -1.4067,.6295 -1.1676,.283 -1.3546,.4038 -1.4399,.2893 c -0.466781,-0.0558 -1.20857,0.10692 -1.81286,0.0333 l -1.5579,-.2213 c -0.146182,0.50157 -0.190669,0.97635 -0.286004,1.45387 l -.4001,1.0155 -.938,1.2089 -.6248,.5987 -1.0421,.7316 -1.0836,.5282 -1.3432,.4989 -1.1559,.2602 -1.2326,.0508 -1.3519,-.2009 -1.0395,-.3553 -1.2842,-.935 -1.0433,.5722 -1.8878,.7923 -1.242,.3961 -1.7884,.3961 -1.7884,.1761 h -2.93104 l -2.1362,-.3521 -1.8381,-.5722 -1.5897,-.7042 -1.3413,-.8803 -1.2975,.664 -1.332,.4439 -1.2823,.1936 c -0.528742,0.10757 -1.50448,0.0497 -1.94214,0.0683 l -1.5494,-.2367 -1.2928,-.5008 -1.249,-.7952 -.8434,-1.0367 -.6388,-1.0123 -.3789,-1.1801 -.1808,-1.5048 -1.0785,.0589 -1.391,-.1388 -1.889,-.4401 -1.5897,-.6534 -1.7873,-.8833 -1.4904,-1.4084 -1.0674,-1.3342 -.7707,-1.6147 -.3186,-1.9001 -.0788,-1.9291 .2946,-1.4418 .7743,-1.4221 .9504,-1.1025 .9901,-.8226 1.1794,-.7748 1.4763,-.8529 1.5872,-.6835 z " transform="matrix(1.0331436,0,0,1.0386769,4.3314296,-1.6318232)"/>
<path style="filter:url(#filter4470)" id="path4464" d="m 18.9293,30.0643 .1134,-1.5065 .187,-1.3094 .4747,-1.4885 .538,-.9033 .8434,-.9207 .9933,-.8047 1.0903,-.5374 .8555,-.3249 1.3296,-.3416 1.4286,-.2314 1.476,-.008 1.133,.0938 1.0915,.2359 .9631,.423 .5884,-1.6729 .6217,-1.2867 .7951,-.9729 .8819,-.8768 .7756,-.6628 1.3349,-.9102 1.6008,-.6901 1.8571,-.616 2.1458,-.5062 1.8291,-.0964 1.4475,.1455 .8956,.2059 1.1057,.552 1.6521,.9217 1.4108,1.0225 1.2816,1.161 .9424,1.2707 .7083,1.3504 .479,1.3206 1.924,-.4374 1.8261,-.4045 1.9976,-.0397 1.903,.0799 2.2661,.576 1.4904,.641 1.3413,.8053 1.3476,1.2036 .8305,1.3397 .5687,1.5134 .3121,1.1472 .3088,1.9945 1.242,.6947 1.4182,1.0295 1.0962,.9803 1.0073,1.313 .6477,1.737 .4232,1.8712 .0567,2.1888 -.3717,1.7527 -.846,1.7285 -1.0551,1.4727 -1.002,.9183 -1.0188,.5474 -1.4067,.6295 -1.1676,.283 -1.3546,.4038 -1.4399,.2893 c -0.466781,-0.0558 -1.20857,0.10692 -1.81286,0.0333 l -1.5579,-.2213 c -0.146182,0.50157 -0.190669,0.97635 -0.286004,1.45387 l -.4001,1.0155 -.938,1.2089 -.6248,.5987 -1.0421,.7316 -1.0836,.5282 -1.3432,.4989 -1.1559,.2602 -1.2326,.0508 -1.3519,-.2009 -1.0395,-.3553 -1.2842,-.935 -1.0433,.5722 -1.8878,.7923 -1.242,.3961 -1.7884,.3961 -1.7884,.1761 h -2.93104 l -2.1362,-.3521 -1.8381,-.5722 -1.5897,-.7042 -1.3413,-.8803 -1.2975,.664 -1.332,.4439 -1.2823,.1936 c -0.528742,0.10757 -1.50448,0.0497 -1.94214,0.0683 l -1.5494,-.2367 -1.2928,-.5008 -1.249,-.7952 -.8434,-1.0367 -.6388,-1.0123 -.3789,-1.1801 -.1808,-1.5048 -1.0785,.0589 -1.391,-.1388 -1.889,-.4401 -1.5897,-.6534 -1.7873,-.8833 -1.4904,-1.4084 -1.0674,-1.3342 -.7707,-1.6147 -.3186,-1.9001 -.0788,-1.9291 .2946,-1.4418 .7743,-1.4221 .9504,-1.1025 .9901,-.8226 1.1794,-.7748 1.4763,-.8529 1.5872,-.6835 z " transform="matrix(1.0331436,0,0,1.0386769,4.3314296,-1.6318232)"/>
<path id="path4474" d="m 18.9293,30.0643 .1134,-1.5065 .187,-1.3094 .4747,-1.4885 .538,-.9033 .8434,-.9207 .9933,-.8047 1.0903,-.5374 .8555,-.3249 1.3296,-.3416 1.4286,-.2314 1.476,-.008 1.133,.0938 1.0915,.2359 .9631,.423 .5884,-1.6729 .6217,-1.2867 .7951,-.9729 .8819,-.8768 .7756,-.6628 1.3349,-.9102 1.6008,-.6901 1.8571,-.616 2.1458,-.5062 1.8291,-.0964 1.4475,.1455 .8956,.2059 1.1057,.552 1.6521,.9217 1.4108,1.0225 1.2816,1.161 .9424,1.2707 .7083,1.3504 .479,1.3206 1.924,-.4374 1.8261,-.4045 1.9976,-.0397 1.903,.0799 2.2661,.576 1.4904,.641 1.3413,.8053 1.3476,1.2036 .8305,1.3397 .5687,1.5134 .3121,1.1472 .3088,1.9945 1.242,.6947 1.4182,1.0295 1.0962,.9803 1.0073,1.313 .6477,1.737 .4232,1.8712 .0567,2.1888 -.3717,1.7527 -.846,1.7285 -1.0551,1.4727 -1.002,.9183 -1.0188,.5474 -1.4067,.6295 -1.1676,.283 -1.3546,.4038 -1.4399,.2893 c -0.466781,-0.0558 -1.20857,0.10692 -1.81286,0.0333 l -1.5579,-.2213 c -0.146182,0.50157 -0.190669,0.97635 -0.286004,1.45387 l -.4001,1.0155 -.938,1.2089 -.6248,.5987 -1.0421,.7316 -1.0836,.5282 -1.3432,.4989 -1.1559,.2602 -1.2326,.0508 -1.3519,-.2009 -1.0395,-.3553 -1.2842,-.935 -1.0433,.5722 -1.8878,.7923 -1.242,.3961 -1.7884,.3961 -1.7884,.1761 h -2.93104 l -2.1362,-.3521 -1.8381,-.5722 -1.5897,-.7042 -1.3413,-.8803 -1.2975,.664 -1.332,.4439 -1.2823,.1936 c -0.528742,0.10757 -1.50448,0.0497 -1.94214,0.0683 l -1.5494,-.2367 -1.2928,-.5008 -1.249,-.7952 -.8434,-1.0367 -.6388,-1.0123 -.3789,-1.1801 -.1808,-1.5048 -1.0785,.0589 -1.391,-.1388 -1.889,-.4401 -1.5897,-.6534 -1.7873,-.8833 -1.4904,-1.4084 -1.0674,-1.3342 -.7707,-1.6147 -.3186,-1.9001 -.0788,-1.9291 .2946,-1.4418 .7743,-1.4221 .9504,-1.1025 .9901,-.8226 1.1794,-.7748 1.4763,-.8529 1.5872,-.6835 z " transform="matrix(1.0331436,0,0,1.0386769,4.3314296,-1.6318232)"/>
</g>
<g id="g4496" transform="translate(-47.747685,69.320434)">
<g id="g4498" transform="matrix(0.96234317,0,0,0.91337675,47.958336,-68.989324)">
<g style="stroke:#120000;stroke-width:.572">
<rect width="3.877249" x="42.244232" y="27.651009" rx="1.9386" ry="2.2738221" height="8.2648506" id="rect4500"/>
<rect width="3.877249" x="52.820499" y="27.651009" rx="1.9386" height="8.2648506" ry="2.2738221" id="rect4502"/>
</g>
<path style="fill:none;stroke:#000;stroke-width:1.5" id="path4504" d="m 66.8603,42.5909 c -18.6709,17.4958 -34.1152,-0.581659 -34.1152,-0.581659"/>
</g>
<g style="fill:none;stroke:#000;stroke-width:1.347">
<path id="path4506" d="m 77.2186,-28.236 4.6061,-4.4814"/>
<path id="path4508" d="m 114.5134,-27.3397 -4.6061,-4.4814"/>
</g>
</g>
</g>
<g style="fill:#fff;stroke:#fffcfc" id="g4532" transform="translate(1.1505467,0.86290994)">
<path id="path4516" d="m 18.917,72.9125 c -0.02783,-2.35299 0.267522,-4.39584 0.659687,-4.56282 0.392166,-0.166984 0.73264,1.60513 0.760471,3.95812 0.02783,2.35299 -0.267521,4.39584 -0.659687,4.56282 -0.383831,0.163435 -0.719831,-1.53281 -0.758629,-3.82982" transform="matrix(2.0234694,0,0,0.73291204,-8.0303987,10.884935)"/>
<path id="path4518" d="m 18.917,72.9125 c -0.02783,-2.35299 0.267522,-4.39584 0.659687,-4.56282 0.392166,-0.166984 0.73264,1.60513 0.760471,3.95812 0.02783,2.35299 -0.267521,4.39584 -0.659687,4.56282 -0.383831,0.163435 -0.719831,-1.53281 -0.758629,-3.82982" transform="matrix(-2.0234694,0,0,0.73291204,71.399351,10.884935)"/>
</g>
<g style="fill:#fff;stroke:#fffcfc" id="g4528" transform="translate(1.7258199,3.1640032)">
<path id="path4520" d="m 18.917,72.9125 c -0.02783,-2.35299 0.267522,-4.39584 0.659687,-4.56282 0.392166,-0.166984 0.73264,1.60513 0.760471,3.95812 0.02783,2.35299 -0.267521,4.39584 -0.659687,4.56282 -0.383831,0.163435 -0.719831,-1.53281 -0.758629,-3.82982" transform="matrix(2.0234694,0,0,0.73291204,2.3245209,12.323118)"/>
<path id="path4522" d="m 18.917,72.9125 c -0.02783,-2.35299 0.267522,-4.39584 0.659687,-4.56282 0.392166,-0.166984 0.73264,1.60513 0.760471,3.95812 0.02783,2.35299 -0.267521,4.39584 -0.659687,4.56282 -0.383831,0.163435 -0.719831,-1.53281 -0.758629,-3.82982" transform="matrix(-2.0234694,0,0,0.73291204,81.754271,12.323118)"/>
</g>
<g style="fill:#fff;stroke:#fffcfc" id="g4536" transform="translate(2.3010934,4.0269132)">
<path id="path4524" d="m 18.917,72.9125 c -0.02783,-2.35299 0.267522,-4.39584 0.659687,-4.56282 0.392166,-0.166984 0.73264,1.60513 0.760471,3.95812 0.02783,2.35299 -0.267521,4.39584 -0.659687,4.56282 -0.383831,0.163435 -0.719831,-1.53281 -0.758629,-3.82982" transform="matrix(2.0234694,0,0,0.73291204,12.679441,11.460208)"/>
<path id="path4526" d="m 18.917,72.9125 c -0.02783,-2.35299 0.267522,-4.39584 0.659687,-4.56282 0.392166,-0.166984 0.73264,1.60513 0.760471,3.95812 0.02783,2.35299 -0.267521,4.39584 -0.659687,4.56282 -0.383831,0.163435 -0.719831,-1.53281 -0.758629,-3.82982" transform="matrix(-2.0234694,0,0,0.73291204,92.109191,11.460208)"/>
</g>
<g style="fill:#fff;stroke:#fffcfc" id="g4540" transform="translate(13.806559,-5.9006965e-8)">
<path id="path4542" d="m 18.917,72.9125 c -0.02783,-2.35299 0.267522,-4.39584 0.659687,-4.56282 0.392166,-0.166984 0.73264,1.60513 0.760471,3.95812 0.02783,2.35299 -0.267521,4.39584 -0.659687,4.56282 -0.383831,0.163435 -0.719831,-1.53281 -0.758629,-3.82982" transform="matrix(2.0234694,0,0,0.73291204,12.679441,11.460208)"/>
<path id="path4544" d="m 18.917,72.9125 c -0.02783,-2.35299 0.267522,-4.39584 0.659687,-4.56282 0.392166,-0.166984 0.73264,1.60513 0.760471,3.95812 0.02783,2.35299 -0.267521,4.39584 -0.659687,4.56282 -0.383831,0.163435 -0.719831,-1.53281 -0.758629,-3.82982" transform="matrix(-2.0234694,0,0,0.73291204,92.109191,11.460208)"/>
</g>
<g style="fill:#fff;stroke:#fffcfc" id="g4546" transform="translate(-1.72582,16.970563)">
<path id="path4548" d="m 18.917,72.9125 c -0.02783,-2.35299 0.267522,-4.39584 0.659687,-4.56282 0.392166,-0.166984 0.73264,1.60513 0.760471,3.95812 0.02783,2.35299 -0.267521,4.39584 -0.659687,4.56282 -0.383831,0.163435 -0.719831,-1.53281 -0.758629,-3.82982" transform="matrix(2.0234694,0,0,0.73291204,12.679441,11.460208)"/>
<path id="path4550" d="m 18.917,72.9125 c -0.02783,-2.35299 0.267522,-4.39584 0.659687,-4.56282 0.392166,-0.166984 0.73264,1.60513 0.760471,3.95812 0.02783,2.35299 -0.267521,4.39584 -0.659687,4.56282 -0.383831,0.163435 -0.719831,-1.53281 -0.758629,-3.82982" transform="matrix(-2.0234694,0,0,0.73291204,92.109191,11.460208)"/>
</g>
<g style="fill:#fff;stroke:#fffcfc" id="g4563" transform="translate(-14.094196,15.820016)">
<path id="path4565" d="m 18.917,72.9125 c -0.02783,-2.35299 0.267522,-4.39584 0.659687,-4.56282 0.392166,-0.166984 0.73264,1.60513 0.760471,3.95812 0.02783,2.35299 -0.267521,4.39584 -0.659687,4.56282 -0.383831,0.163435 -0.719831,-1.53281 -0.758629,-3.82982" transform="matrix(2.0234694,0,0,0.73291204,12.679441,11.460208)"/>
<path id="path4567" d="m 18.917,72.9125 c -0.02783,-2.35299 0.267522,-4.39584 0.659687,-4.56282 0.392166,-0.166984 0.73264,1.60513 0.760471,3.95812 0.02783,2.35299 -0.267521,4.39584 -0.659687,4.56282 -0.383831,0.163435 -0.719831,-1.53281 -0.758629,-3.82982" transform="matrix(-2.0234694,0,0,0.73291204,92.109191,11.460208)"/>
</g>
<g style="fill:#fff;stroke:#fffcfc" id="g4569" transform="translate(9.4920097,14.381832)">
<path id="path4571" d="m 18.917,72.9125 c -0.02783,-2.35299 0.267522,-4.39584 0.659687,-4.56282 0.392166,-0.166984 0.73264,1.60513 0.760471,3.95812 0.02783,2.35299 -0.267521,4.39584 -0.659687,4.56282 -0.383831,0.163435 -0.719831,-1.53281 -0.758629,-3.82982" transform="matrix(2.0234694,0,0,0.73291204,12.679441,11.460208)"/>
<path id="path4573" d="m 18.917,72.9125 c -0.02783,-2.35299 0.267522,-4.39584 0.659687,-4.56282 0.392166,-0.166984 0.73264,1.60513 0.760471,3.95812 0.02783,2.35299 -0.267521,4.39584 -0.659687,4.56282 -0.383831,0.163435 -0.719831,-1.53281 -0.758629,-3.82982" transform="matrix(-2.0234694,0,0,0.73291204,92.109191,11.460208)"/>
</g>
</svg>
