<svg width="128" version="1.1" xmlns="http://www.w3.org/2000/svg" height="128" xmlns:xlink="http://www.w3.org/1999/xlink">
<defs id="defs3598">
<linearGradient gradientTransform="matrix(0.9166667,0,0,0.91270196,-184.86305,907.56526)" xlink:href="#linearGradient4081-7" id="linearGradient3885" y1="27.218754" x1="271.875" y2="152.71875" x2="271.375" gradientUnits="userSpaceOnUse"/>
<linearGradient id="linearGradient4081-7">
<stop offset="0" style="stop-color:#fff" id="stop4083-8"/>
<stop offset="1" style="stop-color:#eaeaea" id="stop4085-6"/>
</linearGradient>
</defs>
<g id="layer1" transform="translate(0,-924.36218)">
<path style="fill:url(#linearGradient3885);stroke:#000;stroke-width:.3" id="path3856" d="m 64.7568,931.0388 -11.0573,23.2739 -22.888,-12.293 4.8984,25.3275 c -0.02817,0.0384 -0.05792,0.0755 -0.08593,0.11408 l .0286,-.1141 -25.8385,3.7364 18.9635,17.2843 c -0.000102,0.0285 2.7e-05,0.057 0,0.0855 l -18.7917,17.8548 25.638,3.166 c 0.0362,0.05 0.07812,0.093 0.114584,0.1426 l -4.6979,25.3559 22.6302,-12.4069 c 0.06567,0.021 0.13464,0.036 0.200521,0.056 l 11.1719,23.4165 11.1719,-23.4735 h -0.257813 c 0.06611,-0.022 0.134549,-0.035 0.200521,-0.057 l 23.1172,12.0647 -5.1849,-25.1848 25.724,-3.7649 -18.9922,-17.3129 c -0.00035,-0.0949 0.00092,-0.19042 0,-0.28522 l 18.763,-17.7112 -25.4948,-3.223 4.7266,-25.1849 -22.888,12.4926 c -0.0199,-0.007 -0.03738,-0.0221 -0.0573,-0.0285 z  m -.3438,34.9964 c 2.2361,-0.0242 4.50456,0.2698 6.76042,0.94123 11.9551,3.55829 18.771,16.0378 15.3255,27.9515 -0.01962,0.0676 -0.03731,0.13248 -0.0573,0.19965 l .2276,-.8176 -.2276,.8461 c -3.5965,11.9793 -16.2422,18.7831 -28.2734,15.2022 -12.0312,-3.5809 -18.8647,-16.2004 -15.2682,-28.1797 2.92218,-9.73312 11.8232,-16.0381 21.513,-16.1434 z "/>
</g>
</svg>
