<svg width="96" version="1.0" xmlns="http://www.w3.org/2000/svg" height="96" xmlns:xlink="http://www.w3.org/1999/xlink">
<defs id="defs2410">
<clipPath id="clipPath3613">
<rect width="84" x="6" y="6" rx="6" height="84" ry="6" style="fill:#fff;stroke:none" id="rect3615"/>
</clipPath>
<filter style="color-interpolation-filters:sRGB" id="filter7542">
<feGaussianBlur stdDeviation="0.063379309" id="feGaussianBlur7544"/>
</filter>
<filter width="1.3839999" x="-0.192" y="-0.192" height="1.3839999" style="color-interpolation-filters:sRGB" id="filter3794">
<feGaussianBlur stdDeviation="5.28" id="feGaussianBlur3796"/>
</filter>
<filter style="color-interpolation-filters:sRGB" id="filter3174">
<feGaussianBlur stdDeviation="1.71" id="feGaussianBlur3176"/>
</filter>
<filter style="color-interpolation-filters:sRGB" id="filter3249">
<feGaussianBlur stdDeviation="0.71000039" id="feGaussianBlur3251"/>
</filter>
<filter style="color-interpolation-filters:sRGB" id="filter7653">
<feGaussianBlur stdDeviation="0.9728125" id="feGaussianBlur7655"/>
</filter>
<filter style="color-interpolation-filters:sRGB" id="filter7657">
<feGaussianBlur stdDeviation="0.9728125" id="feGaussianBlur7659"/>
</filter>
<linearGradient gradientTransform="matrix(0.4552109,0,0,-0.4552109,90.239858,37.361259)" id="linearGradient3870" xlink:href="#linearGradient7450" y1="67.187523" x1="99.142372" y2="-112.17552" x2="99.142372" gradientUnits="userSpaceOnUse"/>
<linearGradient gradientTransform="translate(0,-97)" id="linearGradient3721" xlink:href="#ButtonShadow-0" y1="6.1317081" x1="32.251034" y2="90.238609" x2="32.251034" gradientUnits="userSpaceOnUse"/>
<linearGradient gradientTransform="matrix(1.0238095,0,0,1.0119048,-1.1428571,-98.071429)" id="linearGradient3772" xlink:href="#ButtonShadow-0" y1="6.1317081" x1="32.251034" y2="90.238609" x2="32.251034" gradientUnits="userSpaceOnUse"/>
<linearGradient gradientTransform="matrix(1.0238095,0,0,1.0119048,-1.1428571,-98.071429)" id="linearGradient3725" xlink:href="#ButtonShadow-0" y1="6.1317081" x1="32.251034" y2="90.238609" x2="32.251034" gradientUnits="userSpaceOnUse"/>
<linearGradient gradientTransform="matrix(1.0238095,0,0,1.0119048,-1.1428571,-98.071429)" id="linearGradient3760" xlink:href="#ButtonShadow-0" y1="6.1317081" x1="32.251034" y2="90.238609" x2="32.251034" gradientUnits="userSpaceOnUse"/>
<linearGradient gradientTransform="matrix(0.4552109,0,0,-0.4552109,-119.76014,37.361259)" id="linearGradient3759" xlink:href="#linearGradient7450" y1="67.187523" x1="99.142372" y2="-112.17552" x2="99.142372" gradientUnits="userSpaceOnUse"/>
<linearGradient id="linearGradient3737-0">
<stop offset="0" style="stop-color:#fff" id="stop3739-6"/>
<stop offset="1" style="stop-color:#fff;stop-opacity:0" id="stop3741-0"/>
</linearGradient>
<linearGradient id="linearGradient3891" xlink:href="#linearGradient3737-9" y1="20.220806" x1="48" y2="138.66119" x2="48" gradientUnits="userSpaceOnUse"/>
<linearGradient id="linearGradient3737-9">
<stop offset="0" style="stop-color:#fff" id="stop3739-2"/>
<stop offset="1" style="stop-color:#fff;stop-opacity:0" id="stop3741-1"/>
</linearGradient>
<linearGradient gradientTransform="matrix(1.0238095,0,0,1.0119048,-1.1428571,-98.071429)" id="linearGradient3780" xlink:href="#ButtonShadow-0" y1="6.1317081" x1="32.251034" y2="90.238609" x2="32.251034" gradientUnits="userSpaceOnUse"/>
<linearGradient id="linearGradient3233">
<stop offset="0" style="stop-color:#595959" id="stop3235"/>
<stop offset="1" style="stop-color:#999" id="stop3237"/>
</linearGradient>
<linearGradient gradientTransform="scale(1.0058652,0.994169)" id="ButtonShadow" y1="92.539597" x1="45.447727" y2="7.0165396" x2="45.447727" gradientUnits="userSpaceOnUse">
<stop offset="0" id="stop3750"/>
<stop offset="1" style="stop-opacity:.588" id="stop3752"/>
</linearGradient>
<linearGradient gradientTransform="matrix(1.0058652,0,0,0.994169,100,0)" id="ButtonShadow-0" y1="92.539597" x1="45.447727" y2="7.0165396" x2="45.447727" gradientUnits="userSpaceOnUse">
<stop offset="0" id="stop3750-8"/>
<stop offset="1" style="stop-opacity:.588" id="stop3752-5"/>
</linearGradient>
<linearGradient id="linearGradient7450">
<stop offset="0" style="stop-color:#f0f0f0" id="stop7452"/>
<stop offset="1" style="stop-color:#b4b4b4" id="stop7454"/>
</linearGradient>
<linearGradient id="linearGradient3298">
<stop offset="0" style="stop-color:#f9f9f9" id="stop3300"/>
<stop offset="1" style="stop-color:#787878" id="stop3302"/>
</linearGradient>
<linearGradient id="linearGradient7554" xlink:href="#linearGradient3298" y1="85.362457" x1="82.312332" y2="82.651672" x2="81.312866" gradientUnits="userSpaceOnUse"/>
<linearGradient id="linearGradient7562" xlink:href="#linearGradient3298" y1="82.61515" x1="80.875443" y2="84.937546" x2="82.573708" gradientUnits="userSpaceOnUse"/>
<linearGradient id="linearGradient3737">
<stop offset="0" style="stop-color:#fff" id="stop3739"/>
<stop offset="1" style="stop-color:#fff;stop-opacity:0" id="stop3741"/>
</linearGradient>
<linearGradient gradientTransform="matrix(0.4552109,0,0,-0.4552109,-19.760142,37.361259)" id="linearGradient3879" xlink:href="#linearGradient7450" y1="67.187523" x1="99.142372" y2="-112.17552" x2="99.142372" gradientUnits="userSpaceOnUse"/>
<linearGradient id="linearGradient3239" xlink:href="#linearGradient3233" y1="84.31427" x1="50.75" y2="12.31033" x2="50.75" gradientUnits="userSpaceOnUse"/>
<linearGradient id="linearGradient3188" xlink:href="#linearGradient3737" y1="6" x1="36.357143" y2="63.893143" x2="36.357143" gradientUnits="userSpaceOnUse"/>
<linearGradient id="linearGradient3700">
<stop offset="0" style="stop-color:#e6e6e6" id="stop3702"/>
<stop offset="1" style="stop-color:#f5f5f5" id="stop3704"/>
</linearGradient>
<linearGradient id="linearGradient3706" xlink:href="#linearGradient3700" y1="90" x1="48" y2="5.9877172" x2="48" gradientUnits="userSpaceOnUse"/>
<radialGradient fx="56.055019" fy="55.978848" cx="56.055019" cy="55.978848" gradientTransform="matrix(0.6242124,-0.6242124,0.3973474,0.3973474,-27.897454,41.427702)" r="52.251602" id="radialGradient3228" xlink:href="#linearGradient7450" gradientUnits="userSpaceOnUse"/>
<radialGradient fx="48" fy="90.171875" cx="48" cy="90.171875" gradientTransform="matrix(1.1573129,0,0,0.99590774,-7.551021,0.1971319)" r="42" id="radialGradient3786" xlink:href="#linearGradient3737-0" gradientUnits="userSpaceOnUse"/>
</defs>
<g style="display:none" id="layer2">
<rect width="86" x="5" y="7" rx="6" height="85" ry="6" style="opacity:.9;fill:url(#ButtonShadow);filter:url(#filter3174);stroke:none" id="rect3745"/>
</g>
<g style="stroke:none" id="layer8">
<path style="opacity:.08;fill:url(#linearGradient3760)" id="path3786" d="m 12,-95.0312 c -5.51109,0 -10.0312,4.52016 -10.0312,10.0312 v 71 c 0,5.51109 4.52016,10.0312 10.0312,10.0312 h 72 c 5.51109,0 10.0312,-4.52016 10.0312,-10.0312 v -71 c 0,-5.51109 -4.52016,-10.0312 -10.0312,-10.0312 h -72 z " transform="scale(1,-1)"/>
<path style="opacity:.1;fill:url(#linearGradient3780)" id="path3778" d="m 12,-94.0312 c -4.97163,0 -9.03125,4.05962 -9.03125,9.03125 v 71 c 0,4.97163 4.05962,9.03125 9.03125,9.03125 h 72 c 4.97163,0 9.03125,-4.05962 9.03125,-9.03125 v -71 c 0,-4.97163 -4.05962,-9.03125 -9.03125,-9.03125 h -72 z " transform="scale(1,-1)"/>
<path style="opacity:.2;fill:url(#linearGradient3772)" id="path3770" d="m 12,-93 c -4.40913,0 -8,3.59087 -8,8 v 71 c 0,4.40913 3.59087,8 8,8 h 72 c 4.40913,0 8,-3.59087 8,-8 v -71 c 0,-4.40913 -3.59087,-8 -8,-8 h -72 z " transform="scale(1,-1)"/>
<rect width="86" x="5" y="-92" rx="7" height="85" ry="7" style="opacity:.3;fill:url(#linearGradient3725)" id="rect3723" transform="scale(1,-1)"/>
<rect width="84" x="6" y="-91" rx="6" height="84" ry="6" style="opacity:.45;fill:url(#linearGradient3721)" id="rect3716" transform="scale(1,-1)"/>
</g>
<g id="layer1">
<rect width="84" x="6" y="6" rx="6" height="84" ry="6" style="fill:url(#linearGradient3706);stroke:none" id="rect2419"/>
</g>
<g id="layer6">
<rect width="66" x="15" y="15" rx="12" height="66" ry="12" style="opacity:.5;fill:url(#linearGradient3891);filter:url(#filter3794);stroke:#fff;stroke-linecap:round;stroke-width:.5;clip-path:url(#clipPath3613)" id="rect3171"/>
</g>
<g style="stroke:none" id="layer3">
<rect width="84" x="116" y="-90" rx="6" height="84" ry="6" style="fill:#f0f" id="rect3800" transform="scale(1,-1)"/>
<path style="opacity:.7;fill:url(#linearGradient3759)" id="path3726" d="m -59.7188,6 -.6875,1.2188 1.8125,2.4062 1.5938,1.3125 .6562,.3125 -1.1562,2.8125 -.7188,-.25 -2,-.2188 -3,.4062 -.5312,1.9062 2.4062,1.8438 1.8438,.8438 .75,.125 -.4062,3.0312 -.75,-.0938 -2,.3438 -2.8125,1.1875 0,1.9375 2.8125,1.1875 2,.3125 .75,-.0625 .4062,3.0312 -.75,.125 -1.8438,.8438 -2.4062,1.8438 .5312,1.875 3,.4375 2,-.2188 .7188,-.25 1.1562,2.8125 l -.6562,.3125 -1.5938,1.2812 -1.8125,2.4062 .9688,1.7188 3,-.375 1.9062,-.75 .625,-.4062 1.8438,2.4062 -.5938,.5 -1.1562,1.6562 -1.1562,2.7812 1.375,1.375 2.8125,-1.125 1.6562,-1.1875 .4688,-.5938 2.4062,1.8438 -.4062,.6562 -.7188,1.875 -.4062,3 1.7188,1 2.4062,-1.8438 1.2812,-1.5625 .3125,-.6875 2.8125,1.1562 -.25,.7188 -.1875,2.0312 .4062,3 1.875,.5 1.8438,-2.4062 .8438,-1.8438 .125,-.75 3.0312,.4062 -.0625,.75 .3438,2 1.1562,2.8125 h 1.96875 l 1.1562,-2.8125 .3438,-2 -.0625,-.75 3,-.4062 .125,.75 .8438,1.8438 1.875,2.4062 1.875,-.5 .4062,-3 -.1875,-2.0312 -.25,-.7188 2.7812,-1.1562 .3438,.6875 1.2812,1.5625 2.4062,1.8438 1.7188,-1 -.4062,-3 -.7188,-1.875 -.4375,-.6562 2.0625,-1.5938 v -6.65625 c -1.54348,1.78596 -3.33037,3.3575 -5.3125,4.65625 l -5.4688,-10.5938 c 3.07178,-2.43902 5.07481,-6.19395 5.125,-10.4062 l 5.6562,-1.0312 v -5.21875 l -6.5938,1.1875 c -1.44258,-3.69015 -4.44976,-6.59676 -8.21875,-7.875 l .7188,-5.375 h -5.21875 l -.625,4.6875 c -4.1828,0.241572 -7.8515,2.39244 -10.1562,5.59375 l -10.8438,-4.9688 c 1.15446,-1.95506 2.56895,-3.74051 4.1875,-5.3125 h -6.34375 l -.8125,1.0625 -.625,-.4375 -1.6562,-.625 h -3.53125 z  m -18.0312,9.4688 -.9375,2.0625 -.0625,.75 .1875,1.25 -2.2188,.5938 -.4688,-1.1875 -.4375,-.5938 -1.8438,-1.3125 -1.0625,.625 .25,2.25 .3125,.6875 .7812,.9688 -1.625,1.625 -1,-.7812 -.6562,-.2812 -2.25,-.2188 -.625,1.0625 1.3125,1.8438 .625,.4062 1.1562,.4688 -.5625,2.2188 -1.25,-.1875 -.75,.0938 -2.0625,.9375 0,1.2188 2.0625,.9375 .75,.0625 1.25,-.1875 .5938,2.2188 -1.1562,.4688 -.625,.4375 -1.3125,1.8438 .625,1.0625 2.25,-.25 .6875,-.3125 .9688,-.7812 1.625,1.625 -.7812,1 l -.2812,.6562 -.2188,2.25 1.0625,.625 1.8438,-1.3438 .4062,-.5938 .4688,-1.1562 2.2188,.5625 -.1875,1.25 .0938,.75 .9375,2.0625 h 1.21875 l .9375,-2.0625 .0625,-.75 -.1875,-1.25 2.2188,-.5938 .4688,1.1562 .4375,.625 1.8438,1.3125 1.0625,-.625 -.25,-2.25 -.2812,-.6875 -.8125,-.9688 1.625,-1.625 1,.7812 .6562,.2812 2.2812,.2188 .5938,-1.0625 -1.3125,-1.8438 -.625,-.4062 -1.1562,-.4688 .5938,-2.2188 1.25,.1875 .7188,-.0938 2.0625,-.9375 v -1.21875 l -2.0625,-.9375 -.75,-.0625 -1.25,.1875 -.5938,-2.2188 1.1875,-.4688 .5938,-.4375 1.3125,-1.8438 -.625,-1.0625 -2.25,.25 -.6875,.2812 -.9688,.8125 -1.625,-1.625 .7812,-1 .2812,-.6562 .2188,-2.2812 -1.0625,-.5938 -1.8438,1.3125 -.4062,.625 -.4688,1.1562 -2.2188,-.5938 .1875,-1.25 -.0938,-.7188 -.9375,-2.0625 h -1.21875 z  m 24.6562,.5312 10.8438,4.9688 c -0.24709,1.02023 -0.375,2.09166 -0.375,3.1875 0,2.96838 0.935072,5.70948 2.5625,7.9375 l -8.0938,8.75 c -3.9128,-4.45235 -6.28125,-10.299 -6.28125,-16.6875 0,-2.85428 0.470501,-5.59565 1.34375,-8.15625 z  m 16.8438,19.5938 c 2.06567,1.28668 4.48261,2.03125 7.09375,2.03125 1.31687,0 2.60913,-0.178741 3.8125,-0.53125 l 5.4688,10.5938 c -2.86787,1.12959 -6.01306,1.75 -9.28125,1.75 -5.7169,0 -10.9796,-1.89277 -15.2188,-5.09375 l 8.125,-8.75 z  m -39.25,7.6562 l -1.0625,2.5312 -.2812,1.8125 .0312,.6875 -2.7188,.3438 -.125,-.6562 -.75,-1.6875 -1.6562,-2.1562 -1.7188,.4375 -.375,2.7188 .1562,1.8125 .25,.6875 -2.5312,1.0312 -.2812,-.5938 -1.1875,-1.4375 -2.1562,-1.6562 -1.5312,.875 .3438,2.6875 .625,1.75 .4062,.5625 -2.1875,1.6562 -.4375,-.5 -1.3125,-.9688 v 10.3125 c 4.00016,-6.50932 11.1793,-10.875 19.375,-10.875 12.5493,0 22.7188,10.2007 22.7188,22.75 0,5.57669 -2.00771,10.6686 -5.34375,14.625 h 10.375 l -1.1562,-1.5 -1.4062,-1.1562 -.625,-.3125 1.0625,-2.5625 .625,.25 1.8438,.1875 2.6875,-.375 .4688,-1.6875 -2.1562,-1.6875 -1.6875,-.75 -.6875,-.125 .375,-2.7188 .6875,.0625 1.8125,-.3125 2.5,-1.0625 v -1.75 l -2.5,-1.0625 -1.8125,-.3125 -.6875,.0625 -.375,-2.7188 .6875,-.125 1.6875,-.75 2.1562,-1.6875 -.4688,-1.6875 -2.6875,-.375 -1.8438,.1562 -.625,.25 -1.0625,-2.5625 .625,-.25 1.4062,-1.1875 1.6562,-2.1875 -.875,-1.5312 -2.7188,.375 -1.7188,.625 -.5625,.4062 -1.6875,-2.1875 .5312,-.4375 1.0625,-1.5 1.0312,-2.5312 -1.2188,-1.25 -2.5625,1.0312 -1.4688,1.0938 -.4375,.5 -2.1875,-1.6562 .375,-.5625 .6562,-1.75 .3438,-2.6875 -1.5312,-.875 -2.1562,1.6562 -1.1562,1.4375 -.3125,.5938 -2.5312,-1.0312 .2188,-.6875 .1875,-1.8125 -.3438,-2.7188 -1.7188,-.4375 -1.6875,2.1562 -.75,1.6875 -.125,.6562 -2.7188,-.3438 .0625,-.6875 -.3125,-1.8125 -1.0312,-2.5312 h -1.78125 z "/>
<path style="opacity:.7;fill:url(#linearGradient3870)" id="path3782" d="m 179.875,-11.4062 -1.1562,2.7812 -.3438,2.0312 .0625,.75 -3.0312,.4062 -.125,-.75 -.8438,-1.875 -1.8438,-2.375 -1.875,.5 -.4062,3 .1875,2.0312 .25,.7188 -2.8125,1.1562 -.3125,-.6875 -1.2812,-1.5938 -2.4062,-1.8125 -1.7188,.9688 .4062,3 .7188,1.9062 .4062,.625 -2.4062,1.8438 -.4688,-.5625 -1.6562,-1.1875 -2.8125,-1.1562 -1.375,1.375 1.1562,2.8125 1.1562,1.6562 .5938,.5 -1.8438,2.4062 -.625,-.4375 -1.9062,-.7188 -3,-.375 -.9688,1.6875 1.8125,2.4062 1.5938,1.3125 .6562,.3125 -1.1562,2.8125 -.7188,-.25 -2,-.2188 -3,.4062 -.5312,1.9062 2.4062,1.8438 1.8438,.8438 .75,.125 -.4062,3.0312 -.75,-.0938 -2,.3438 -2.8125,1.1875 0,1.9375 2.8125,1.1875 2,.3125 .75,-.0625 .4062,3.0312 -.75,.125 -1.8438,.8438 -2.4062,1.8438 .5312,1.875 3,.4375 2,-.2188 .7188,-.25 1.1562,2.8125 l -.6562,.3125 -1.5938,1.2812 -1.8125,2.4062 .9688,1.7188 3,-.375 1.9062,-.75 .625,-.4062 1.8438,2.4062 -.5938,.5 -1.1562,1.6562 -1.1562,2.7812 1.375,1.375 2.8125,-1.125 1.6562,-1.1875 .4688,-.5938 2.4062,1.8438 -.4062,.6562 -.7188,1.875 -.4062,3 1.7188,1 2.4062,-1.8438 1.2812,-1.5625 .3125,-.6875 2.8125,1.1562 -.25,.7188 -.1875,2.0312 .4062,3 1.875,.5 1.8438,-2.4062 .8438,-1.8438 .125,-.75 3.0312,.4062 -.0625,.75 .3438,2 1.1562,2.8125 h 1.96875 l 1.1562,-2.8125 .3438,-2 -.0625,-.75 3,-.4062 .125,.75 .8438,1.8438 1.875,2.4062 1.875,-.5 .4062,-3 -.1875,-2.0312 -.25,-.7188 2.7812,-1.1562 .3438,.6875 1.2812,1.5625 2.4062,1.8438 1.7188,-1 -.4062,-3 -.7188,-1.875 -.4375,-.6562 2.4062,-1.8438 .5,.5938 1.6562,1.1875 2.8125,1.125 1.375,-1.375 -1.1562,-2.7812 -1.1875,-1.6562 -.5625,-.5 1.8438,-2.4062 .625,.4062 1.9062,.75 3,.375 .9688,-1.7188 -1.8125,-2.4062 -1.5938,-1.2812 -.6875,-.3125 1.1875,-2.8125 .6875,.25 2.0312,.2188 3,-.4375 .5312,-1.875 -2.4062,-1.8438 -1.875,-.8438 -.7188,-.125 .375,-3.0312 .7812,.0625 2,-.3125 2.7812,-1.1875 v -1.9375 l -2.7812,-1.1875 -2,-.3438 -.7812,.0938 -.375,-3.0312 .7188,-.125 1.875,-.8438 2.4062,-1.8438 -.5312,-1.9062 -3,-.4062 -2.0312,.2188 -.6875,.25 -1.1875,-2.8125 .6875,-.3125 1.5938,-1.3125 1.8125,-2.4062 -.9688,-1.6875 -3,.375 -1.9062,.7188 -.625,.4375 -1.8438,-2.4062 .5625,-.5 1.1875,-1.6562 1.1562,-2.8125 -1.375,-1.375 -2.8125,1.1562 -1.6562,1.1875 -.5,.5625 -2.4062,-1.8438 .4375,-.625 .7188,-1.9062 .4062,-3 -1.7188,-.9688 -2.4062,1.8125 -1.2812,1.5938 -.3438,.6875 -2.7812,-1.1562 .25,-.7188 .1875,-2.0312 -.4062,-3 -1.875,-.5 -1.875,2.375 -.8438,1.875 -.125,.75 -3,-.4062 .0625,-.75 -.3438,-2.0312 -1.1562,-2.7812 h -1.96875 z  m .9688,10.25 c 0.26989,0 0.54465,0.02285 0.8125,0.03125 l -1.5938,11.8125 c -4.1828,0.241572 -7.8515,2.39244 -10.1562,5.59375 l -10.8438,-4.9688 c 4.40392,-7.45797 12.502,-12.4688 21.7812,-12.4688 z  m 5.9375,.7188 c 8.82984,2.12557 15.8668,8.8863 18.375,17.5625 l -11.75,2.125 c -1.44258,-3.69015 -4.44976,-6.59676 -8.21875,-7.875 l 1.5938,-11.8125 z  m -54.5312,15.9062 l -.9375,2.0625 -.0625,.75 .1875,1.25 -2.2188,.5938 -.4688,-1.1875 -.4375,-.5938 -1.8438,-1.3125 -1.0625,.625 .25,2.25 .3125,.6875 .7812,.9688 -1.625,1.625 -1,-.7812 -.6562,-.2812 -2.25,-.2188 -.625,1.0625 1.3125,1.8438 .625,.4062 1.1562,.4688 -.5625,2.2188 -1.25,-.1875 -.75,.0938 -2.0625,.9375 v 1.21875 l 2.0625,.9375 .75,.0625 1.25,-.1875 .5938,2.2188 -1.1562,.4688 -.625,.4375 -1.3125,1.8438 .625,1.0625 2.25,-.25 .6875,-.3125 .9688,-.7812 1.625,1.625 -.7812,1 -.2812,.6562 -.2188,2.25 1.0625,.625 1.8438,-1.3438 .4062,-.5938 .4688,-1.1562 2.2188,.5625 -.1875,1.25 .0937,.75 .9375,2.0625 h 1.21875 l .9375,-2.0625 .0625,-.75 -.1875,-1.25 2.2188,-.5938 .4688,1.1562 .4375,.625 1.8438,1.3125 1.0625,-.625 -.25,-2.25 -.2812,-.6875 -.8125,-.9688 1.625,-1.625 1,.7812 .6562,.2812 2.2812,.2188 .5938,-1.0625 -1.3125,-1.8438 -.625,-.4062 -1.1562,-.4688 .5938,-2.2188 1.25,.1875 .7188,-.0938 2.0625,-.9375 v -1.21875 l -2.0625,-.9375 -.75,-.0625 -1.25,.1875 -.5938,-2.2188 1.1875,-.4688 .5938,-.4375 1.3125,-1.8438 -.625,-1.0625 -2.25,.25 -.6875,.2812 -.9688,.8125 -1.625,-1.625 .7812,-1 .2812,-.6562 .2188,-2.2812 -1.0625,-.5938 -1.8438,1.3125 -.4062,.625 -.4688,1.1562 -2.2188,-.5938 .1875,-1.25 -.0937,-.7188 -.9375,-2.0625 h -1.21875 z  m 24.6562,.5312 10.8438,4.9688 c -0.24709,1.02023 -0.375,2.09166 -0.375,3.1875 0,2.96838 0.93507,5.70948 2.5625,7.9375 l -8.0938,8.75 c -3.9128,-4.45235 -6.28125,-10.299 -6.28125,-16.6875 0,-2.85428 0.4705,-5.59565 1.34375,-8.15625 z  m 23.9688,1 c 3.97835,0 7.1875,3.20915 7.1875,7.1875 0,3.97835 -3.20915,7.21875 -7.1875,7.21875 -3.97835,0 -7.21875,-3.2404 -7.21875,-7.21875 0,-3.97835 3.2404,-7.1875 7.21875,-7.1875 z  m 25.1875,5.1875 c 0.0499,0.648656 0.0937,1.3074 0.0937,1.96875 0,8.85555 -4.57389,16.6385 -11.4688,21.1562 l -5.4688,-10.5938 c 3.07179,-2.43902 5.07481,-6.19395 5.125,-10.4062 l 11.7188,-2.125 z  m -73.0625,3.4688 c 1.97228,0 3.5625,1.59022 3.5625,3.5625 0,1.97228 -1.59022,3.59375 -3.5625,3.59375 -1.97228,0 -3.5625,-1.62147 -3.5625,-3.59375 0,-1.97228 1.59022,-3.5625 3.5625,-3.5625 z  m 40.75,9.9375 c 2.06567,1.28668 4.48261,2.03125 7.09375,2.03125 1.31687,0 2.60913,-0.178741 3.8125,-0.53125 l 5.4688,10.5938 c -2.86787,1.12959 -6.01306,1.75 -9.28125,1.75 -5.7169,0 -10.9796,-1.89277 -15.2188,-5.09375 l 8.125,-8.75 z  m -39.25,7.6562 l -1.0625,2.5312 -.2812,1.8125 .0312,.6875 -2.7188,.3438 -.125,-.6562 -.75,-1.6875 -1.6562,-2.1562 -1.7188,.4375 -.375,2.7188 .1562,1.8125 .25,.6875 -2.5312,1.0312 -.2812,-.5938 -1.1875,-1.4375 -2.1562,-1.6562 -1.5312,.875 .3438,2.6875 .625,1.75 .4062,.5625 -2.1875,1.6562 -.4375,-.5 -1.5,-1.0938 -2.5312,-1.0312 -1.25,1.25 1.0312,2.5312 1.0938,1.5 .5,.4375 -1.6562,2.1875 -.5625,-.4062 -1.7188,-.625 -2.7188,-.375 -.875,1.5312 1.6562,2.1875 1.4375,1.1875 .5938,.25 -1.0312,2.5625 -.6562,-.25 -1.8438,-.1562 -2.7188,.375 -.4375,1.6875 2.1562,1.6875 1.6875,.75 .6562,.125 -.3438,2.7188 -.6875,-.0625 -1.8125,.3125 -2.5312,1.0625 v 1.75 l 2.5312,1.0625 1.8125,.3125 .6875,-.0625 .3438,2.7188 -.6562,.125 -1.6875,.75 -2.1562,1.6875 .4375,1.6875 2.7188,.375 1.8438,-.1875 .6562,-.25 1.0312,2.5625 -.5938,.3125 -1.4375,1.1562 -1.6562,2.1562 .875,1.5312 2.7188,-.3438 1.7188,-.6562 .5625,-.375 1.6562,2.1562 -.5,.4375 -1.0938,1.5 -1.0312,2.5625 1.25,1.2188 2.5312,-1.0312 1.5,-1.0625 .4375,-.5312 2.1875,1.6875 -.4062,.5625 -.625,1.7188 -.3438,2.7188 1.5312,.875 2.1562,-1.6562 1.1875,-1.4062 .2812,-.625 2.5312,1.0625 -.25,.625 -.1562,1.8438 .375,2.6875 1.7188,.4688 1.6562,-2.1875 .75,-1.6562 .125,-.6875 2.7188,.375 -.0312,.6875 .2812,1.8125 1.0625,2.5 h 1.78125 l 1.0312,-2.5 .3125,-1.8125 -.0625,-.6875 2.7188,-.375 .125,.6875 .75,1.6562 1.6875,2.1875 1.7188,-.4688 .3438,-2.6875 -.1875,-1.8438 -.2188,-.625 2.5312,-1.0625 .3125,.625 1.1562,1.4062 2.1562,1.6562 1.5312,-.875 -.3438,-2.7188 -.6562,-1.7188 -.375,-.5625 2.1875,-1.6875 .4375,.5312 1.4688,1.0625 2.5625,1.0312 1.2188,-1.2188 -1.0312,-2.5625 -1.0625,-1.5 -.5312,-.4375 1.6875,-2.1562 .5625,.375 1.7188,.6562 2.7188,.3438 .875,-1.5312 -1.6562,-2.1562 -1.4062,-1.1562 -.625,-.3125 1.0625,-2.5625 .625,.25 1.8438,.1875 2.6875,-.375 .4688,-1.6875 -2.1562,-1.6875 -1.6875,-.75 -.6875,-.125 .375,-2.7188 .6875,.0625 1.8125,-.3125 2.5,-1.0625 v -1.75 l -2.5,-1.0625 -1.8125,-.3125 -.6875,.0625 -.375,-2.7188 .6875,-.125 1.6875,-.75 2.1562,-1.6875 -.4688,-1.6875 -2.6875,-.375 -1.8438,.1562 -.625,.25 -1.0625,-2.5625 .625,-.25 1.4062,-1.1875 1.6562,-2.1875 -.875,-1.5312 -2.7188,.375 -1.7188,.625 -.5625,.4062 -1.6875,-2.1875 .5312,-.4375 1.0625,-1.5 1.0312,-2.5312 -1.2188,-1.25 -2.5625,1.0312 -1.4688,1.0938 -.4375,.5 -2.1875,-1.6562 .375,-.5625 .6562,-1.75 .3438,-2.6875 -1.5312,-.875 -2.1562,1.6562 -1.1562,1.4375 -.3125,.5938 -2.5312,-1.0312 .2188,-.6875 .1875,-1.8125 -.3438,-2.7188 -1.7188,-.4375 -1.6875,2.1562 -.75,1.6875 -.125,.6562 -2.7188,-.3438 .0625,-.6875 -.3125,-1.8125 -1.0312,-2.5312 h -1.78125 z  m .875,9.375 c 12.5493,0 22.7188,10.2007 22.7188,22.75 0,12.5493 -10.1694,22.7188 -22.7188,22.7188 -12.5493,0 -22.75,-10.1694 -22.75,-22.7188 0,-12.5493 10.2007,-22.75 22.75,-22.75 z  m 0,4.0625 c -10.3142,0 -18.6875,8.34206 -18.6875,18.6562 0,10.3142 8.37331,18.6875 18.6875,18.6875 10.3142,0 18.6875,-8.37331 18.6875,-18.6875 0,-10.3142 -8.37331,-18.6562 -18.6875,-18.6562 z  m 0,4.0312 c 8.08247,0 14.625,6.54253 14.625,14.625 0,8.08247 -6.54253,14.6562 -14.625,14.6562 -8.08247,0 -14.625,-6.57378 -14.625,-14.6562 0,-8.08247 6.54253,-14.625 14.625,-14.625 z "/>
<path style="opacity:.7;fill:url(#linearGradient3879)" id="path3874" d="m 40.2812,6 -.6875,1.2188 1.8125,2.4062 1.5938,1.3125 .6562,.3125 -1.1562,2.8125 l -.7188,-.25 -2,-.2188 -3,.4062 -.5312,1.9062 2.4062,1.8438 1.8438,.8438 .75,.125 -.4062,3.0312 -.75,-.0938 -2,.3438 -2.8125,1.1875 v 1.9375 l 2.8125,1.1875 2,.3125 .75,-.0625 .4062,3.0312 -.75,.125 -1.8438,.8438 -2.4062,1.8438 .5312,1.875 3,.4375 2,-.2188 .7188,-.25 1.1562,2.8125 -.6562,.3125 -1.5938,1.2812 -1.8125,2.4062 .9688,1.7188 3,-.375 1.9062,-.75 .625,-.4062 1.8438,2.4062 -.5938,.5 -1.1562,1.6562 -1.1562,2.7812 1.375,1.375 2.8125,-1.125 1.6562,-1.1875 .4688,-.5938 2.4062,1.8438 -.4062,.6562 -.7188,1.875 -.4062,3 1.7188,1 2.4062,-1.8438 1.2812,-1.5625 .3125,-.6875 2.8125,1.1562 -.25,.7188 -.1875,2.0312 .4062,3 1.875,.5 1.8438,-2.4062 .8438,-1.8438 .125,-.75 3.0312,.4062 -.0625,.75 .3438,2 1.1562,2.8125 h 1.96875 l 1.1562,-2.8125 .3438,-2 -.0625,-.75 3,-.4062 .125,.75 .8438,1.8438 1.875,2.4062 1.875,-.5 .4062,-3 -.1875,-2.0312 -.25,-.7188 2.7812,-1.1562 .3438,.6875 1.2812,1.5625 2.4062,1.8438 1.7188,-1 -.4062,-3 -.7188,-1.875 -.4375,-.6562 2.0625,-1.5938 v -6.65625 c -1.54497,1.78637 -3.33037,3.3575 -5.3125,4.65625 l -5.4688,-10.5938 c 3.07179,-2.43902 5.07481,-6.19395 5.125,-10.4062 l 5.6562,-1.0312 v -5.21875 l -6.5938,1.1875 c -1.44258,-3.69015 -4.44976,-6.59676 -8.21875,-7.875 l .7188,-5.375 h -5.21875 l -.625,4.6875 c -4.1828,0.241572 -7.8515,2.39244 -10.1562,5.59375 l -10.8438,-4.9688 c 1.15446,-1.95506 2.57059,-3.73996 4.1875,-5.3125 h -6.34375 l -.8125,1.0625 -.625,-.4375 -1.6562,-.625 h -3.53125 z  m -18.0312,9.4688 l -.9375,2.0625 -.0625,.75 .1875,1.25 -2.2188,.5938 -.4688,-1.1875 -.4375,-.5938 -1.8438,-1.3125 -1.0625,.625 .25,2.25 .3125,.6875 .7812,.9688 -1.625,1.625 -1,-.7812 -.6562,-.2812 -2.25,-.2188 -.625,1.0625 1.3125,1.8438 .625,.4062 1.1562,.4688 -.5625,2.2188 -1.25,-.1875 -.75,.0938 -2.0625,.9375 v 1.21875 l 2.0625,.9375 .75,.0625 1.25,-.1875 .5938,2.2188 -1.1562,.4688 -.625,.4375 -1.3125,1.8438 .625,1.0625 2.25,-.25 .6875,-.3125 .9688,-.7812 1.625,1.625 -.7812,1 -.2812,.6562 -.2188,2.25 1.0625,.625 1.8438,-1.3438 .4062,-.5938 .4688,-1.1562 2.2188,.5625 -.1875,1.25 .0937,.75 .9375,2.0625 h 1.21875 l .9375,-2.0625 .0625,-.75 -.1875,-1.25 2.2188,-.5938 .4688,1.1562 .4375,.625 1.8438,1.3125 1.0625,-.625 -.25,-2.25 -.2812,-.6875 -.8125,-.9688 1.625,-1.625 1,.7812 .6562,.2812 2.2812,.2188 .5938,-1.0625 -1.3125,-1.8438 -.625,-.4062 -1.1562,-.4688 .5938,-2.2188 1.25,.1875 .7188,-.0938 2.0625,-.9375 v -1.21875 l -2.0625,-.9375 -.75,-.0625 -1.25,.1875 -.5938,-2.2188 1.1875,-.4688 .5938,-.4375 1.3125,-1.8438 -.625,-1.0625 -2.25,.25 -.6875,.2812 -.9688,.8125 -1.625,-1.625 .7812,-1 .2812,-.6562 .2188,-2.2812 -1.0624,-.5938 -1.8438,1.3125 -.4062,.625 -.4688,1.1562 -2.2188,-.5938 .1875,-1.25 -.0937,-.7188 -.9375,-2.0625 h -1.21875 z  m 24.6562,.5312 10.8438,4.9688 c -0.24709,1.02023 -0.375,2.09166 -0.375,3.1875 0,2.96838 0.93507,5.70948 2.5625,7.9375 l -8.0938,8.75 c -3.9128,-4.45235 -6.28125,-10.299 -6.28125,-16.6875 0,-2.85428 0.4705,-5.59565 1.34375,-8.15625 z  m 23.9688,1 c 3.97835,0 7.1875,3.20915 7.1875,7.1875 0,3.97835 -3.20915,7.21875 -7.1875,7.21875 -3.97835,0 -7.21875,-3.2404 -7.21875,-7.21875 0,-3.97835 3.2404,-7.1875 7.21875,-7.1875 z  m -47.875,8.6562 c 1.97228,0 3.5625,1.59022 3.5625,3.5625 0,1.97228 -1.59022,3.59375 -3.5625,3.59375 -1.97228,0 -3.5625,-1.62147 -3.5625,-3.59375 0,-1.97228 1.59022,-3.5625 3.5625,-3.5625 z  m 40.75,9.9375 c 2.06567,1.28668 4.48261,2.03125 7.09375,2.03125 1.31687,0 2.60913,-0.178741 3.8125,-0.53125 l 5.4688,10.5938 c -2.86787,1.12959 -6.01306,1.75 -9.28125,1.75 -5.7169,0 -10.9796,-1.89277 -15.2188,-5.09375 l 8.125,-8.75 z  m -39.25,7.6562 l -1.0625,2.5312 -.2812,1.8125 .0312,.6875 -2.7188,.3438 -.125,-.6562 -.75,-1.6875 -1.6562,-2.1562 -1.7188,.4375 -.375,2.7188 .1562,1.8125 .25,.6875 -2.5312,1.0312 -.2812,-.5938 -1.1875,-1.4375 -2.1562,-1.6562 -1.5312,.875 .3438,2.6875 .625,1.75 .4062,.5625 -2.1875,1.6562 -.4375,-.5 -1.3125,-.9688 v 10.3125 c 4.00526,-6.51351 11.1799,-10.875 19.375,-10.875 12.5493,0 22.7188,10.2007 22.7188,22.75 0,5.57669 -2.01091,10.6718 -5.34375,14.625 h 10.375 l -1.1562,-1.5 -1.4062,-1.1562 -.625,-.3125 1.0625,-2.5625 .625,.25 1.8438,.1875 2.6875,-.375 .4688,-1.6875 -2.1562,-1.6875 -1.6875,-.75 -.6875,-.125 .375,-2.7188 .6875,.0625 1.8125,-.3125 2.5,-1.0625 v -1.75 l -2.5,-1.0625 -1.8125,-.3125 -.6875,.0625 -.375,-2.7188 .6875,-.125 1.6875,-.75 2.1562,-1.6875 -.4688,-1.6875 -2.6875,-.375 -1.8438,.1562 -.625,.25 -1.0625,-2.5625 .625,-.25 1.4062,-1.1875 1.6562,-2.1875 -.875,-1.5312 -2.7188,.375 -1.7188,.625 -.5625,.4062 -1.6875,-2.1875 .5312,-.4375 1.0625,-1.5 1.0312,-2.5312 -1.2188,-1.25 -2.5625,1.0312 -1.4688,1.0938 -.4375,.5 -2.1875,-1.6562 .375,-.5625 .6562,-1.75 .3438,-2.6875 -1.5312,-.875 -2.1562,1.6562 -1.1562,1.4375 -.3125,.5938 -2.5312,-1.0312 .2188,-.6875 .1875,-1.8125 -.3438,-2.7188 -1.7188,-.4375 -1.6875,2.1562 -.75,1.6875 -.125,.6562 -2.7188,-.3438 .0625,-.6875 -.3125,-1.8125 -1.0312,-2.5312 h -1.78125 z  m .875,13.4375 c -10.3142,0 -18.6875,8.34206 -18.6875,18.6562 0,5.95339 2.81386,11.2331 7.15625,14.6562 h 11.5312 c -8.08247,0 -14.625,-6.57378 -14.625,-14.6562 0,-8.08247 6.54253,-14.625 14.625,-14.625 8.08247,0 14.625,6.54253 14.625,14.625 0,8.08247 -6.54253,14.6562 -14.625,14.6562 h 11.5312 c 4.34239,-3.42315 7.15625,-8.70286 7.15625,-14.6562 0,-10.3142 -8.37331,-18.6562 -18.6875,-18.6562 z "/>
<path style="opacity:.1" id="path3881" d="m 40.2812,6 -.6875,1.2188 .3125,.4375 .375,-.6562 3.5312,0 1.6562,.625 .625,.4375 .8125,-1.0625 5.375,0 c 0.313421,-0.339078 0.638006,-0.678332 0.96875,-1 h -6.34375 l -.8125,1.0625 -.625,-.4375 -1.6562,-.625 h -3.53125 z  m 30.4062,0 -.625,4.6875 c -4.1828,0.241572 -7.8515,2.39244 -10.1562,5.59375 l -10.3438,-4.75 c -0.167123,0.260335 -0.342467,0.514471 -0.5,0.78125 l 10.8438,4.9688 c 2.30475,-3.20131 5.97345,-5.35218 10.1562,-5.59375 l .625,-4.6875 h 5.09375 l .125,-1 h -5.21875 z  m 4.625,5.4375 -.125,.9375 c 3.76899,1.27824 6.77617,4.18485 8.21875,7.875 l 6.5938,-1.1875 v -1 l -6.5938,1.1875 c -1.42566,-3.64688 -4.38672,-6.51162 -8.09375,-7.8125 z  m -32,.6562 -.8125,1.9688 -.7188,-.25 -2,-.2188 -3,.4062 -.5312,1.9062 .2188,.1875 .3125,-1.0938 3,-.4062 2,.2188 .7188,.25 1.1562,-2.8125 -.3438,-.1562 z  m -21.0625,3.375 -.9375,2.0625 -.0625,.75 .0625,.3438 0,-.0938 .9375,-2.0625 1.2188,0 .9375,2.0625 .0312,.1875 l .0625,-.4688 -.0938,-.7188 -.9375,-2.0625 h -1.21875 z  m 7,1.5312 -1.8438,1.3125 -.4062,.625 -.4688,1.1562 -2.0625,-.5625 -.1562,.9688 2.2188,.5938 .4688,-1.1562 .4062,-.625 1.8438,-1.3125 .9688,.5312 .0938,-.9375 -1.0625,-.5938 z  m -12.7812,.0312 -1.0625,.625 .0938,.9375 .9688,-.5625 1.8438,1.3125 l .4375,.5938 .4688,1.1875 2.2188,-.5938 -.1562,-.9688 -2.0625,.5625 -.4688,-1.1875 -.4375,-.5938 -1.8438,-1.3125 z  m 24.6562,2.6562 -.2812,2.0625 l -.75,-.0938 -2,.3438 -2.8125,1.1875 v 1 l 2.8125,-1.1875 2,-.3438 .75,.0938 .4062,-3.0312 -.125,-.0312 z  m -6.5625,2.125 -2.25,.25 -.6875,.2812 -.9688,.8125 -1.1875,-1.1875 -.4375,.5625 1.625,1.625 .9688,-.8125 .6875,-.2812 2.25,-.25 .3125,.5 .3125,-.4375 -.625,-1.0625 z  m -23.3438,.0938 -.625,1.0625 .3125,.4375 .3125,-.5 2.25,.2188 .6562,.2812 1,.7812 1.625,-1.625 l -.4375,-.5625 -1.1875,1.1875 -1,-.7812 -.6562,-.2812 -2.25,-.2188 z  m 46.375,0 c -0.122598,0.734667 -0.21875,1.48215 -0.21875,2.25 0,0.22275 0.02082,0.436181 0.03125,0.65625 0.02415,-0.974815 0.122844,-1.93163 0.34375,-2.84375 l -.1562,-.0625 z  m 6.0938,2.7812 c -0.01109,0.163056 -0.03125,0.334092 -0.03125,0.5 0,3.97835 3.2404,7.21875 7.21875,7.21875 3.97835,0 7.1875,-3.2404 7.1875,-7.21875 0,-0.165908 -0.02026,-0.336944 -0.03125,-0.5 -0.252432,3.74929 -3.34381,6.71875 -7.15625,6.71875 -3.81244,0 -6.93267,-2.96946 -7.1875,-6.71875 z  m -18.0938,.0938 c -0.0018,0.125694 -0.03125,0.248859 -0.03125,0.375 0,6.38851 2.36845,12.2351 6.28125,16.6875 l 8.0938,-8.75 c -0.140835,-0.19281 -0.244692,-0.393441 -0.375,-0.59375 l -7.7188,8.3438 c -3.78401,-4.3058 -6.10008,-9.91966 -6.25,-16.0625 z  m -13.25,1.75 -.25,.0938 .5938,2.2188 1.25,-.1875 .75,.0625 2.0625,.9375 0,-1 -2.0625,-.9375 -.75,-.0625 -1.25,.1875 -.3438,-1.3125 z  m -18.875,.0625 -.3438,1.3125 -1.25,-.1875 -.75,.0938 -2.0625,.9375 0,1 2.0625,-.9375 .75,-.0938 1.25,.1875 .5625,-2.2188 -.2188,-.0938 z  m 27.6562,3.0312 -.625,.0938 -1.8438,.8438 -2.4062,1.8438 l .2188,.8125 2.1875,-1.6562 1.8438,-.8438 .75,-.125 -.125,-.9688 z  m -21.6562,.0938 c -0.02316,0.164598 -0.03125,0.32886 -0.03125,0.5 0,1.97228 1.59022,3.59375 3.5625,3.59375 1.97228,0 3.5625,-1.62147 3.5625,-3.59375 0,-0.17114 -0.0081,-0.335402 -0.03125,-0.5 -0.243721,1.7368 -1.73011,3.09375 -3.53125,3.09375 -1.80114,0 -3.28753,-1.35695 -3.53125,-3.09375 z  m 12.9062,3.3125 -.25,.9062 1.1562,.4688 .625,.4062 1,1.4062 .3125,-.5625 -1.3125,-1.8438 -.625,-.4062 -.9062,-.375 z  m -18.9062,.0625 -.9062,.375 -.625,.4375 -1.3125,1.8438 .3125,.5625 1,-1.4062 .625,-.4375 l 1.1562,-.4688 -.25,-.9062 z  m 66.0938,2.3125 c -0.118646,0.101033 -0.221672,0.215569 -0.34375,0.3125 l 5.4688,10.5938 c 1.98213,-1.29875 3.76753,-2.86988 5.3125,-4.65625 v -1 c -1.54497,1.78637 -3.33037,3.3575 -5.3125,4.65625 l -5.125,-9.9062 z  m -36.25,1.8125 l -.3125,.1562 -1.5938,1.2812 -1.8125,2.4062 .3125,.5625 1.5,-1.9688 1.5938,-1.2812 .6562,-.3125 -.3438,-.8438 z  m -13.7812,.375 -.4688,.4688 .8125,.9688 .2812,.6875 .1562,1.3125 .0938,-.0625 -.25,-2.25 -.2812,-.6875 -.3438,-.4375 z  m -13.1875,.0625 -.3438,.4375 -.2812,.6562 -.2188,2.25 .0938,.0625 .125,-1.3125 .2812,-.6562 l .7812,-1 -.4375,-.4375 z  m 5,2.4062 l -.0312,.2812 .0625,.5312 .125,-.7812 -.1562,-.0312 z  m 3.1875,0 l -.1562,.0312 .125,.9062 .0625,-.6562 -.0312,-.2812 z  m -.0312,3.1875 l -1.0625,2.5312 -.2812,1.8125 .0312,.6875 .25,-1.5 1.0625,-2.5312 h 1.78125 l 1.0312,2.5312 .25,1.4688 .0625,-.6562 -.3125,-1.8125 -1.0312,-2.5312 h -1.78125 z  m -1.3125,5.0312 -2.7188,.3438 -.125,-.6562 -.75,-1.6875 -1.6562,-2.1562 -1.7188,.4375 -.375,2.7188 .0625,.625 .3125,-2.3438 1.7188,-.4375 1.6562,2.1562 .75,1.6875 .125,.6562 2.7188,-.3438 -.0312,-.6875 .0312,-.3125 z  m 24.2812,-4.2188 -.125,.0938 -1.1562,1.6562 -1.1562,2.7812 .2812,.2812 .875,-2.0625 1.1562,-1.6562 .5938,-.5 -.4688,-.5938 z  m -14.625,.0625 -1.6875,2.1562 -.75,1.6875 -.125,.6562 -2.7188,-.3438 .0625,.3125 -.0625,.6875 2.7188,.3438 .125,-.6562 .75,-1.6875 1.6875,-2.1562 1.7188,.4375 .2812,2.2812 .0625,-.5625 l -.3438,-2.7188 -1.7188,-.4375 z  m 23.3438,.625 -.5625,.5938 c 4.23916,3.20098 9.50185,5.09375 15.2188,5.09375 3.26819,0 6.41338,-0.62041 9.28125,-1.75 l -.4375,-.8438 c -2.75101,1.02495 -5.73821,1.59375 -8.84375,1.59375 -5.46607,0 -10.5183,-1.7378 -14.6562,-4.6875 z  m -46.0938,2.375 -1.5312,.875 l .125,.9375 1.4062,-.8125 2.1562,1.6562 1.1875,1.4375 .2812,.5938 2.5312,-1.0312 -.25,-.6875 -.0312,-.2188 -2.25,.9375 -.2812,-.5938 -1.1875,-1.4375 -2.1562,-1.6562 z  m 30.5625,0 l -2.1562,1.6562 -1.1562,1.4375 -.3125,.5938 -2.2812,-.9375 -.0312,.2188 -.2188,.6875 2.5312,1.0312 .3125,-.5938 1.1562,-1.4375 2.1562,-1.6562 1.4062,.8125 .125,-.9375 -1.5312,-.875 z  m 47.7188,2.4375 -.4375,.3438 .4375,.6562 .7188,1.875 .2812,2.0625 .125,-.0625 -.4062,-3 -.7188,-1.875 z  m -35.0312,.0312 -.7188,1.8438 -.4062,3 .125,.0625 .2812,-2.0625 .7188,-1.875 .4062,-.6562 -.4062,-.3125 z  m -5.875,2.4375 -2.5625,1.0312 l -1.4688,1.0938 -.4375,.5 -1.7812,-1.3438 -.0312,.125 -.375,.5625 2.1875,1.6562 .4375,-.5 1.4688,-1.0938 2.5625,-1.0312 .9375,.9688 .2812,-.7188 -1.2188,-1.25 z  m -41.4688,1.1562 v 1 l 1.3125,.9688 .4375,.5 2.1875,-1.6562 -.4062,-.5625 -.0312,-.0938 -1.75,1.3125 -.4375,-.5 -1.3125,-.9688 z  m 75.25,.1875 -.2812,.125 .25,.7188 .125,1.4375 l .0625,-.4062 -.1562,-1.875 z  m -20.7812,.0312 -.1562,1.8438 .0625,.4062 .125,-1.4375 .25,-.7188 -.2812,-.0938 z  m 7.9375,1.75 .0312,.0625 0,-.0625 -.0312,0 z  m 4.875,0 0,.0625 .0312,-.0625 -.0312,0 z  m -47.9062,1.5312 c -10.3142,0 -18.6875,8.34206 -18.6875,18.6562 0,0.212751 0.024122,0.414024 0.03125,0.625 0.202742,-10.1382 8.46909,-18.2812 18.6562,-18.2812 10.1872,0 18.4535,8.14302 18.6562,18.2812 0.0071,-0.210976 0.03125,-0.412249 0.03125,-0.625 0,-10.3142 -8.37331,-18.6562 -18.6875,-18.6562 z  m 21.1562,1.6875 -.4688,.375 1.6875,2.1875 .5625,-.4062 1.7188,-.625 2.7188,-.375 .5625,.9688 .3125,-.4375 -.875,-1.5312 -2.7188,.375 -1.7188,.625 l -.5625,.4062 -1.2188,-1.5625 z  m 3.75,6.1562 l -.3438,.1562 1.0625,2.5625 .625,-.25 1.8438,-.1562 2.6875,.375 .25,.875 .2188,-.1875 -.4688,-1.6875 -2.6875,-.375 -1.8438,.1562 -.625,.25 -.7188,-1.7188 z  m 1.9375,6.9062 -.125,.0312 .375,2.7188 .6875,-.0625 1.8125,.3125 2.5,1.0625 0,-1 -2.5,-1.0625 -1.8125,-.3125 -.6875,.0625 -.25,-1.75 z  m -4.1562,4.3125 c -0.089129,5.42797 -2.05554,10.3868 -5.3125,14.25 h 0.78125 c 2.85707,-3.79717 4.5625,-8.50482 4.5625,-13.625 0,-0.212114 -0.02548,-0.414266 -0.03125,-0.625 z  m -37.2812,.0938 c -0.0056,0.167146 -0.03125,0.331469 -0.03125,0.5 0,6.2152 3.88102,11.5284 9.34375,13.6562 h 5.28125 c -7.91394,0 -14.3287,-6.30608 -14.5938,-14.1562 z  m 14.5938,14.1562 5.2812,0 c 5.46273,-2.12783 9.34375,-7.44105 9.34375,-13.6562 0,-0.168531 -0.02561,-0.332854 -0.03125,-0.5 -0.265023,7.85017 -6.67981,14.1562 -14.5938,14.1562 z  m 26.8438,-9.6875 -.125,.9688 .6875,.125 1.6875,.75 1.9375,1.5 .2188,-.8125 -2.1562,-1.6875 -1.6875,-.75 -.5625,-.0938 z  m -1.9375,6.875 -.3438,.8438 .625,.3125 1.4062,1.1562 .375,.5 .7812,0 -1.1562,-1.5 -1.4062,-1.1562 -.2812,-.1562 z "/>
<path style="opacity:.7;fill:#fff" id="path3890" d="m 52.2812,7 c -1.2188,1.31857 -2.30044,2.75736 -3.21875,4.3125 l .5,.2188 c 1.05762,-1.6475 2.29123,-3.17329 3.6875,-4.53125 h -0.96875 z  m 23.5,0 -.5938,4.375 c 0.04419,0.01499 0.08102,0.04706 0.125,0.0625 l .5938,-4.4375 h -0.125 z  m -35.875,.6562 -.3125,.5625 1.8125,2.4062 l 1.5938,1.3125 .3125,.1562 .3438,-.8438 -.6562,-.3125 -1.5938,-1.3125 -1.5,-1.9688 z  m 7,8.3438 c -0.87325,2.5606 -1.34375,5.30197 -1.34375,8.15625 0,0.210279 0.02615,0.415925 0.03125,0.625 0.03962,-2.71847 0.477842,-5.33381 1.3125,-7.78125 l 10.6875,4.9062 c 0.05237,-0.313813 0.0823,-0.632141 0.15625,-0.9375 l -10.8438,-4.9688 z  m -10.4375,.0938 -.2188,.8125 2.4062,1.8438 1.8438,.8438 .625,.0938 .125,-.9688 -.75,-.125 -1.8438,-.8438 -2.1875,-1.6562 z  m 34.4062,.9062 c -3.97835,0 -7.21875,3.20915 -7.21875,7.1875 0,0.165908 0.02016,0.33684 0.03125,0.5 0.254826,-3.74689 3.37506,-6.6875 7.1875,-6.6875 3.81244,0 6.90382,2.94061 7.15625,6.6875 0.01099,-0.16316 0.03125,-0.334092 0.03125,-0.5 0,-3.97835 -3.20915,-7.1875 -7.1875,-7.1875 z  m -40.6562,1.5312 -.125,1.3438 -.2812,.6562 -.7812,1 .4375,.4375 .3438,-.4375 .2812,-.6562 .2188,-2.2812 -.0938,-.0625 z  m -14.7188,.0625 l -.0938,.0625 .25,2.25 .3125,.6875 .3438,.4062 .4375,-.4375 -.7812,-.9688 -.3125,-.6875 -.1562,-1.3125 z  m 5.8125,.0312 -.0625,.6562 .0312,.2812 .1562,-.0312 -.125,-.9062 z  m 3.125,.0938 l -.125,.7812 .1562,.0312 .0312,-.2812 -.0625,-.5312 z  m 65.5625,4.5625 -5.6562,1.0312 c -0.05019,4.2123 -2.05321,7.96723 -5.125,10.4062 l .3438,.6875 c 2.8668,-2.44123 4.73306,-6.04885 4.78125,-10.0938 l 5.6562,-1.0312 v -1 z  m -55.125,.0312 -1,1.4062 -.5938,.4375 -1.1875,.4688 .25,.9062 .9375,-.375 .5938,-.4375 1.3125,-1.8438 -.3125,-.5625 z  m -23.9688,.0938 -.3125,.5625 1.3125,1.8438 .625,.4062 .9375,.375 .2188,-.9062 -1.1562,-.4688 -.625,-.4062 -1,-1.4062 z  m 46.5,1.4062 c -0.0029,0.115547 -0.03125,0.227623 -0.03125,0.34375 0,2.7115 0.812027,5.22938 2.1875,7.34375 l .375,-.4062 c -1.50531,-2.06083 -2.40271,-4.56866 -2.53125,-7.28125 z  m -22.125,.3125 0,1 2.8125,1.1875 2,.3125 .75,-.0625 .2812,2.0625 .125,-.0312 -.4062,-3.0312 -.75,.0625 -2,-.3125 -2.8125,-1.1875 z  m -12.2812,.5312 c -1.97228,0 -3.5625,1.59022 -3.5625,3.5625 0,0.17114 0.0081,0.334973 0.03125,0.5 0.243721,-1.73228 1.73011,-3.0625 3.53125,-3.0625 1.80114,0 3.28753,1.33022 3.53125,3.0625 0.02316,-0.165027 0.03125,-0.32886 0.03125,-0.5 0,-1.97228 -1.59022,-3.5625 -3.5625,-3.5625 z  m 13.75,4.2188 -2.0625,.9375 -.7188,.0938 -1.25,-.1875 -.5938,2.2188 .25,.0938 .3438,-1.3125 1.25,.1875 .7188,-.0938 2.0625,-.9375 0,-1 z  m -27.6875,.0938 0,1 2.0625,.9375 .75,.0625 1.25,-.1875 .3438,1.3125 .25,-.0938 -.5938,-2.2188 -1.25,.1875 -.75,-.0625 -2.0625,-.9375 z  m 27.4062,3.25 -.2188,.1875 .5312,1.875 3,.4375 2,-.2188 l .7188,-.25 .8125,1.9688 .3438,-.1562 -1.1562,-2.8125 -.7188,.25 -2,.2188 -3,-.4375 -.3125,-1.0625 z  m -5.7812,2.2188 -1.625,1.625 .4688,.5312 1.1562,-1.1562 1,.7812 .6562,.2812 2.2812,.2188 .5938,-1.0625 -.3125,-.4375 -.2812,.5 l -2.2812,-.2188 -.6562,-.2812 -1,-.7812 z  m -15.5312,.0312 -.9688,.7812 -.6875,.3125 l -2.25,.25 -.3125,-.5 -.3125,.4375 .625,1.0625 2.25,-.25 .6875,-.3125 .9688,-.7812 1.1875,1.1875 .4375,-.5625 -1.625,-1.625 z  m 48.5938,.125 -8.125,8.75 c 0.185993,0.140443 0.372614,0.270893 0.5625,0.40625 l 7.5625,-8.1562 c 2.06567,1.28668 4.48261,2.03125 7.09375,2.03125 1.31687,0 2.60913,-0.178741 3.8125,-0.53125 l 5.0312,9.75 c 0.14408,-0.05368 0.294775,-0.100034 0.4375,-0.15625 l -5.4688,-10.5938 c -1.20337,0.352509 -2.49563,0.53125 -3.8125,0.53125 -2.61114,0 -5.02808,-0.744567 -7.09375,-2.03125 z  m -37.1562,2.9062 -2.2188,.5938 l .1562,.9688 2.0625,-.5625 .4688,1.1562 .4375,.625 1.8438,1.3125 1.0625,-.625 -.0938,-.9375 -.9688,.5625 -1.8438,-1.3125 -.4375,-.625 -.4688,-1.1562 z  m -7.3125,.0312 -.4688,1.1562 -.4062,.5938 -1.8438,1.3438 -.9688,-.5625 -.0938,.9375 l 1.0625,.625 1.8438,-1.3438 .4062,-.5938 .4688,-1.1562 2.0625,.5312 .1562,-.9688 -2.2188,-.5625 z  m 2.0938,2.3438 -.0625,.4688 .0938,.75 .9375,2.0625 1.2188,0 .9375,-2.0625 .0625,-.75 -.0625,-.25 -.9375,2.0625 -1.2188,0 -.9375,-2.0625 l -.0312,-.2188 z  m 24.7188,.375 -.625,.4062 -1.9062,.75 -3,.375 -.6562,-1.1562 -.3125,.4375 .9688,1.7188 3,-.375 1.9062,-.75 .625,-.4062 1.375,1.8125 l .4688,-.4062 -1.8438,-2.4062 z  m 5.25,5.8125 -.4688,.5938 -1.6562,1.1875 -2.8125,1.125 -1.0938,-1.0938 -.2812,.7188 1.375,1.375 2.8125,-1.125 1.6562,-1.1875 .4688,-.5938 2,1.5312 0,-.0312 l .4062,-.6562 -2.4062,-1.8438 z  m 38.6562,.25 l -2.0625,1.5938 .4375,.6562 1.625,-1.25 v -1 z  m -55.1562,.5312 -.125,1.25 -.2188,.6875 .25,.0938 .1562,-1.5938 -.0625,-.4375 z  m -18.9375,.0625 -.0625,.375 .125,1.5938 l .2812,-.0938 -.25,-.6875 -.0938,-1.1875 z  m -7.2188,1.0312 -.125,.0625 .3438,2.6875 .5938,1.6562 .4375,-.3438 -.4062,-.5625 l -.625,-1.75 -.2188,-1.75 z  m 33.375,0 -.2188,1.75 -.6562,1.75 -.375,.5625 .4062,.3125 .625,-1.625 l .3438,-2.6875 -.125,-.0625 z  m 15.875,2.4062 -.3125,.6875 -1.2812,1.5625 -2.4062,1.8438 -1.5938,-.9375 -.125,.9375 1.7188,1 2.4062,-1.8438 1.2812,-1.5625 .3125,-.6875 2.5312,1.0625 l .0312,-.1875 .25,-.7188 -2.8125,-1.1562 z  m 25.8125,0 -2.7812,1.1562 .25,.7188 .0312,.1562 2.5,-1.0312 .3438,.6875 1.2812,1.5625 2.4062,1.8438 1.7188,-1 l -.125,-.9375 -1.5938,.9375 -2.4062,-1.8438 -1.2812,-1.5625 -.3438,-.6875 z  m -58.375,1.2812 c -8.19513,-1e-06 -15.3697,4.36149 -19.375,10.875 v 1 c 4.00526,-6.51351 11.1799,-10.875 19.375,-10.875 12.3372,0 22.3517,9.86803 22.6875,22.125 0.0021,-0.126454 0.03125,-0.248039 0.03125,-0.375 0,-12.5493 -10.1694,-22.75 -22.7188,-22.75 z  m 40.0312,1.125 -.125,.75 -.8438,1.8438 -1.8438,2.4062 -1.875,-.5 -.3438,-2.5938 -.0625,.5938 .4062,3 1.875,.5 1.8438,-2.4062 .8438,-1.8438 .125,-.75 3,.4062 -.0312,-.25 .0625,-.75 l -3.0312,-.4062 z  m 10.875,0 -3,.4062 .0625,.75 -.0312,.25 2.9688,-.4062 .125,.75 .8438,1.8438 1.875,2.4062 1.875,-.5 .4062,-3 -.0625,-.5938 l -.3438,2.5938 -1.875,.5 -1.875,-2.4062 -.8438,-1.8438 -.125,-.75 z  m -27.875,.25 -.75,1.8125 -1.0625,1.5 -.5312,.4375 .4688,.625 .0625,-.0625 1.0625,-1.5 l 1.0312,-2.5312 -.2812,-.2812 z  m 20.0312,1.2188 -.0625,.6875 .3438,2 1.1562,2.8125 1.9688,0 1.1562,-2.8125 .3438,-2 -.0625,-.6875 -.2812,1.6875 -1.1562,2.8125 -1.9688,0 -1.1562,-2.8125 -.2812,-1.6875 z  m -15.125,5.2812 l -1.3438,1.75 -1.4062,1.1875 -.625,.25 .3438,.8438 .2812,-.0938 1.4062,-1.1875 1.6562,-2.1875 -.3125,-.5625 z  m -27.9375,.2188 c -8.08247,0 -14.625,6.54253 -14.625,14.625 0,0.168531 0.02561,0.332827 0.03125,0.5 0.265023,-7.84892 6.67981,-14.125 14.5938,-14.125 7.91394,0 14.3287,6.27608 14.5938,14.125 0.0056,-0.167173 0.03125,-0.331469 0.03125,-0.5 0,-8.08247 -6.54253,-14.625 -14.625,-14.625 z  m 31.0312,7.375 -1.9375,1.5 -1.6875,.75 -.6875,.125 .125,.9688 .5625,-.0938 1.6875,-.75 2.1562,-1.6875 -.2188,-.8125 z  m -49.6875,7.875 c -0.00253,0.126416 -0.03125,0.247974 -0.03125,0.375 0,5.403 2.32553,10.2472 6,13.6562 h 1.15625 c -4.18721,-3.30082 -6.93266,-8.3385 -7.125,-14.0312 z  m 37.3125,0 c -0.192343,5.69275 -2.93779,10.7304 -7.125,14.0312 h 1.15625 c 3.67447,-3.40904 6,-8.25325 6,-13.6562 0,-0.127026 -0.02872,-0.248584 -0.03125,-0.375 z  m 13.4375,.2812 -2.5,1.0625 -1.8125,.3125 -.6875,-.0625 -.375,2.7188 .125,.0312 .25,-1.75 .6875,.0625 1.8125,-.3125 2.5,-1.0625 0,-1 z  m -1.0625,7.4062 -.25,.875 -2.6875,.375 -1.8438,-.1875 -.625,-.25 -1.0625,2.5625 .3438,.1562 l .7188,-1.7188 .625,.25 1.8438,.1875 2.6875,-.375 .4688,-1.6875 -.2188,-.1875 z "/>
</g>
<g style="display:none" id="layer4">
<path style="opacity:.7;filter:url(#filter3249);stroke:none" id="path3243" d="m 47.0279,14.8142 -1.1666,2.789 -.3352,1.9979 .067,.7643 -3.017,.3889 -.1341,-.7375 -.8314,-1.8504 -1.8504,-2.4002 -1.8907,.5095 -.4023,2.9902 .2011,2.0247 .2548,.7107 -2.8025,1.1666 -.3218,-.6839 -1.2873,-1.5688 -2.4136,-1.837 -1.6895,.9788 .3889,3.0036 .7107,1.8907 .4291,.6302 -2.4002,1.8504 -.4961,-.5766 -1.6493,-1.1934 -2.8025,-1.1398 -1.3811,1.3811 1.1532,2.789 1.18,1.6493 .5766,.4961 -1.8504,2.4136 -.6168,-.4291 -1.9041,-.7241 -2.9902,-.3889 -.9789,1.7029 1.8236,2.4002 1.5823,1.2873 .6704,.3218 -1.1532,2.8025 -.7107,-.2548 -2.0247,-.2011 -2.9902,.4157 -.5095,1.8772 2.3868,1.8504 1.8504,.8448 .7509,.1341 -.4023,3.0036 -.7509,-.0536 -2.0113,.3218 l -2.789,1.1666 v 1.9577 l 2.789,1.1666 2.0113,.3352 .7509,-.0671 .4023,3.017 -.7509,.1341 -1.8504,.8314 -2.3868,1.8504 .5095,1.8907 2.9902,.4023 2.0247,-.2011 .7107,-.2548 1.1532,2.8025 -.6704,.3218 -1.5823,1.2872 -1.8236,2.4136 .9789,1.6895 2.9902,-.3889 1.9041,-.7107 .6168,-.4291 1.8504,2.4002 -.5766,.4961 -1.18,1.6493 -1.1532,2.8025 1.3811,1.3811 2.8025,-1.1532 1.6493,-1.18 .4961,-.5766 2.4002,1.8504 -.4291,.6168 -.7107,1.9041 -.3889,2.9902 1.6895,.9789 2.4136,-1.8236 1.2873,-1.5823 .3218,-.6704 2.8025,1.1532 -.2548,.7107 -.2011,2.0247 .4023,2.9902 1.8907,.5095 1.8504,-2.3868 .8314,-1.8504 .1341,-.7509 3.017,.4023 -.067,.7509 .3352,2.0113 1.1666,2.7891 h 1.9577 l 1.1666,-2.7891 .3218,-2.0113 -.0536,-.7509 3.0036,-.4023 .1341,.7509 .8448,1.8504 1.8504,2.3868 1.8772,-.5095 .4157,-2.9902 -.2011,-2.0247 -.2548,-.7107 2.8025,-1.1532 .3218,.6704 1.2872,1.5823 2.4002,1.8236 1.7029,-.9789 -.3889,-2.9902 -.7241,-1.9041 -.4291,-.6168 2.4136,-1.8504 .4961,.5766 1.6493,1.18 2.789,1.1532 1.3811,-1.3811 -1.1398,-2.8025 -1.1934,-1.6493 -.5766,-.4961 1.8504,-2.4002 .6302,.4291 1.8907,.7107 3.0036,.3889 .9789,-1.6895 -1.837,-2.4136 -1.5688,-1.2872 -.6838,-.3218 1.1666,-2.8025 .7107,.2548 2.0247,.2011 2.9902,-.4023 .5095,-1.8907 -2.4002,-1.8504 -1.8504,-.8314 -.7375,-.1341 .3889,-3.017 .7643,.0671 1.9979,-.3352 2.789,-1.1666 v -1.9577 l -2.789,-1.1666 -1.9979,-.3218 -.7643,.0536 -.3889,-3.0036 .7375,-.1341 1.8504,-.8448 2.4002,-1.8504 -.5095,-1.8772 -2.9902,-.4157 -2.0247,.2011 -.7107,.2548 -1.1666,-2.8025 .6838,-.3218 1.5688,-1.2873 1.837,-2.4002 -.9789,-1.7029 -3.0036,.3889 -1.8907,.7241 -.6302,.4291 -1.8504,-2.4136 .5766,-.4961 1.1934,-1.6493 1.1398,-2.789 -1.3811,-1.3811 -2.789,1.1398 -1.6493,1.1934 -.4961,.5766 -2.4136,-1.8504 .4291,-.6302 .7241,-1.8907 .3889,-3.0036 -1.7029,-.9788 -2.4002,1.837 -1.2872,1.5688 -.3218,.6839 -2.8025,-1.1666 .2548,-.7107 .2011,-2.0247 -.4157,-2.9902 -1.8772,-.5095 -1.8504,2.4002 -.8448,1.8504 -.1341,.7375 -3.0036,-.3889 .0536,-.7643 -.3218,-1.9979 -1.1666,-2.789 h -1.9577 z  m .9788,10.2444 c 3.26297,0 6.37544,0.628778 9.23873,1.75656 l -5.4574,10.5796 c -1.20145,-0.351945 -2.46655,-0.549764 -3.78131,-0.549764 -2.60697,0 -5.04434,0.753523 -7.10671,2.03815 l -8.099,-8.7292 c 4.23239,-3.19587 9.49791,-5.09538 15.2057,-5.09538 z  m 13.8112,4.1299 c 6.88385,4.51051 11.4378,12.2776 11.4378,21.119 0,0.660298 -0.03064,1.31007 -0.08045,1.9577 l -11.706,-2.1186 c -0.05012,-4.20558 -2.04191,-7.94335 -5.10879,-10.3785 l 5.4574,-10.5796 z  m -32.7981,4.4652 8.099,8.7292 c -1.62483,2.22447 -2.57451,4.96101 -2.57451,7.92465 0,1.09409 0.12875,2.1593 0.375445,3.17791 l -10.821,4.9613 c -0.871853,-2.55651 -1.3543,-5.28947 -1.3543,-8.13919 0,-6.3783 2.36881,-12.2086 6.27536,-16.6538 z  m 31.5243,21.5481 11.7194,2.132 c -2.50423,8.66234 -9.52762,15.4166 -18.3434,17.5388 l -1.5957,-11.8132 c 3.76297,-1.2762 6.77937,-4.17335 8.21965,-7.85761 z  m -23.479,2.9634 c 2.30107,3.19619 5.97441,5.33691 10.1505,5.57809 l 1.5957,11.8132 c -0.267418,0.0084 -0.535083,0.01341 -0.804539,0.01341 -9.26444,0 -17.3657,-4.99738 -21.7626,-12.4434 l 10.821,-4.9613 z "/>
<path style="fill:url(#radialGradient3228);stroke:url(#linearGradient3239)" id="path3707" d="m 47.0279,12.8142 -1.1666,2.789 -.3352,1.9979 .067,.7643 -3.017,.3889 -.1341,-.7375 -.8314,-1.8504 -1.8504,-2.4002 -1.8907,.5095 -.4023,2.9902 .2011,2.0247 .2548,.7107 -2.8025,1.1666 -.3218,-.6839 -1.2873,-1.5688 -2.4136,-1.837 -1.6895,.9788 .3889,3.0036 .7107,1.8907 .4291,.6302 -2.4002,1.8504 -.4961,-.5766 -1.6493,-1.1934 -2.8025,-1.1398 -1.3811,1.3811 1.1532,2.789 1.18,1.6493 .5766,.4961 -1.8504,2.4136 -.6168,-.4291 -1.9041,-.7241 -2.9902,-.3889 -.9789,1.7029 1.8236,2.4002 1.5823,1.2873 .6704,.3218 -1.1532,2.8025 -.7107,-.2548 -2.0247,-.2011 -2.9902,.4157 -.5095,1.8772 2.3868,1.8504 1.8504,.8448 .7509,.1341 -.4023,3.0036 -.7509,-.0536 -2.0113,.3218 l -2.789,1.1666 v 1.9577 l 2.789,1.1666 2.0113,.3352 .7509,-.0671 .4023,3.017 -.7509,.1341 -1.8504,.8314 -2.3868,1.8504 .5095,1.8907 2.9902,.4023 2.0247,-.2011 .7107,-.2548 1.1532,2.8025 -.6704,.3218 -1.5823,1.2872 -1.8236,2.4136 .9789,1.6895 2.9902,-.3889 1.9041,-.7107 .6168,-.4291 1.8504,2.4002 -.5766,.4961 -1.18,1.6493 -1.1532,2.8025 1.3811,1.3811 2.8025,-1.1532 1.6493,-1.18 .4961,-.5766 2.4002,1.8504 -.4291,.6168 -.7107,1.9041 -.3889,2.9902 1.6895,.9789 2.4136,-1.8236 1.2873,-1.5823 .3218,-.6704 2.8025,1.1532 -.2548,.7107 -.2011,2.0247 .4023,2.9902 1.8907,.5095 1.8504,-2.3868 .8314,-1.8504 .1341,-.7509 3.017,.4023 -.067,.7509 .3352,2.0113 1.1666,2.7891 h 1.9577 l 1.1666,-2.7891 .3218,-2.0113 -.0536,-.7509 3.0036,-.4023 .1341,.7509 .8448,1.8504 1.8504,2.3868 1.8772,-.5095 .4157,-2.9902 -.2011,-2.0247 -.2548,-.7107 2.8025,-1.1532 .3218,.6704 1.2872,1.5823 2.4002,1.8236 1.7029,-.9789 -.3889,-2.9902 -.7241,-1.9041 -.4291,-.6168 2.4136,-1.8504 .4961,.5766 1.6493,1.18 2.789,1.1532 1.3811,-1.3811 -1.1398,-2.8025 -1.1934,-1.6493 -.5766,-.4961 1.8504,-2.4002 .6302,.4291 1.8907,.7107 3.0036,.3889 .9789,-1.6895 -1.837,-2.4136 -1.5688,-1.2872 -.6838,-.3218 1.1666,-2.8025 .7107,.2548 2.0247,.2011 2.9902,-.4023 .5095,-1.8907 -2.4002,-1.8504 -1.8504,-.8314 -.7375,-.1341 .3889,-3.017 .7643,.0671 1.9979,-.3352 2.789,-1.1666 v -1.9577 l -2.789,-1.1666 -1.9979,-.3218 -.7643,.0536 -.3889,-3.0036 .7375,-.1341 1.8504,-.8448 2.4002,-1.8504 -.5095,-1.8772 -2.9902,-.4157 -2.0247,.2011 -.7107,.2548 -1.1666,-2.8025 .6838,-.3218 1.5688,-1.2873 1.837,-2.4002 -.9789,-1.7029 -3.0036,.3889 -1.8907,.7241 -.6302,.4291 -1.8504,-2.4136 .5766,-.4961 1.1934,-1.6493 1.1398,-2.789 -1.3811,-1.3811 -2.789,1.1398 -1.6493,1.1934 -.4961,.5766 -2.4136,-1.8504 .4291,-.6302 .7241,-1.8907 .3889,-3.0036 -1.7029,-.9788 -2.4002,1.837 -1.2872,1.5688 -.3218,.6839 -2.8025,-1.1666 .2548,-.7107 .2011,-2.0247 -.4157,-2.9902 -1.8772,-.5095 -1.8504,2.4002 -.8448,1.8504 -.1341,.7375 -3.0036,-.3889 .0536,-.7643 -.3218,-1.9979 -1.1666,-2.789 h -1.9577 z  m .9788,10.2444 c 3.26297,0 6.37544,0.628778 9.23873,1.75656 l -5.4574,10.5796 c -1.20145,-0.351945 -2.46655,-0.549764 -3.78131,-0.549764 -2.60697,0 -5.04434,0.753523 -7.10671,2.03815 l -8.099,-8.7292 c 4.23239,-3.19587 9.49791,-5.09538 15.2057,-5.09538 z  m 13.8112,4.1299 c 6.88385,4.51051 11.4378,12.2776 11.4378,21.119 0,0.660298 -0.03064,1.31007 -0.08045,1.9577 l -11.706,-2.1186 c -0.05012,-4.20558 -2.04191,-7.94335 -5.10879,-10.3785 l 5.4574,-10.5796 z  m -32.7981,4.4652 8.099,8.7292 c -1.62483,2.22447 -2.57451,4.96101 -2.57451,7.92465 0,1.09409 0.12875,2.1593 0.375445,3.17791 l -10.821,4.9613 c -0.871853,-2.55651 -1.3543,-5.28947 -1.3543,-8.13919 0,-6.3783 2.36881,-12.2086 6.27536,-16.6538 z  m 31.5243,21.5481 11.7194,2.132 c -2.50423,8.66234 -9.52762,15.4166 -18.3434,17.5388 l -1.5957,-11.8132 c 3.76297,-1.2762 6.77937,-4.17335 8.21965,-7.85761 z  m -23.479,2.9634 c 2.30107,3.19619 5.97441,5.33691 10.1505,5.57809 l 1.5957,11.8132 c -0.267418,0.0084 -0.535083,0.01341 -0.804539,0.01341 -9.26444,0 -17.3657,-4.99738 -21.7626,-12.4434 l 10.821,-4.9613 z "/>
<g style="stroke-linejoin:round">
<path style="fill:#b8b8b8;stroke:url(#linearGradient7562);stroke-width:.452" id="path7458" d="m 83.0389,84.0071 a 1.23675,1.23675 0 1,1 -2.4735,0 1.23675,1.23675 0 1,1 2.4735,0 z " transform="matrix(2.2104239,0,0,2.2104239,-132.81733,-137.37697)"/>
<g style="fill:none">
<path style="filter:url(#filter7542);stroke:#fff;stroke-width:.09" id="path7536" d="m 83.0389,84.0071 a 1.23675,1.23675 0 1,1 -2.4735,0 1.23675,1.23675 0 1,1 2.4735,0 z " transform="matrix(22.24501,0,0,22.24501,-1771.6889,-1820.4237)"/>
<path style="stroke:url(#linearGradient7554);stroke-width:.346" id="path7546" d="m 83.0389,84.0071 a 1.23675,1.23675 0 1,1 -2.4735,0 1.23675,1.23675 0 1,1 2.4735,0 z " transform="matrix(5.7817427,0,0,5.7817427,-424.95877,-437.39298)"/>
</g>
</g>
<g style="stroke:none">
<path style="opacity:.15;filter:url(#filter7657)" id="path7663" d="m 108,40.5312 -2.625,2 -.0312,.0625 -1.0312,1.25 -19.2812,39.9688 44.5625,11.2188 -.0937,-.0625 -2.3125,-1.0312 -.0625,0 -1.0312,-.2188 a 1.23519,1.23519 0 0,1 -0.96875,-1.375 l .5938,-4.375 a 1.23519,1.23519 0 0,1 1.3125,-1.0625 l .875,.0625 2.7812,-.4688 h 0.0312 l 3.0312,-1.2812 v -1.25 l -3.0938,-1.2812 -2.75,-.4688 h -0.0625 l -.8438,.0625 a 1.23519,1.23519 0 0,1 -1.28125,-1.0625 l -.5938,-4.375 a 1.23519,1.23519 0 0,1 1,-1.375 l .9688,-.1562 2.4062,-1.0938 2.7188,-2.125 -.3125,-1.1562 -3.4375,-.4688 -2.5938,.25 -.9062,.3438 a 1.23519,1.23519 0 0,1 -1.59375,-0.6875 l -1.6875,-4.0938 a 1.23519,1.23519 0 0,1 0.625,-1.59375 l .875,-.4062 2.0938,-1.75 .0625,-.0312 2,-2.625 -.625,-1.0938 -3.375,.4375 -2.5,.9688 -.8438,.5625 a 1.23519,1.23519 0 0,1 -1.65625,-0.28125 l -2.6875,-3.5 a 1.23519,1.23519 0 0,1 0.15625,-1.6875 l .75,-.6562 1.4688,-2 .0312,-.0625 1.3438,-3.2812 -.8438,-.8125 -3.2188,1.3125 -.0937,.0312 -2,1.4688 -.6562,.7812 a 1.23519,1.23519 0 0,1 -1.6875,0.15625 l -3.5312,-2.7188 a 1.23519,1.23519 0 0,1 -0.28125,-1.65625 l .5625,-.8125 .9688,-2.5 .4375,-3.375 -1.0625,-.625 z  m -4.5938,12.0312 a 1.23519,1.23519 0 0,1 0.6875,0.21875 c 10.3693,6.79429 17.25,18.4986 17.25,31.8125 0,1.00738 -0.0823,1.97637 -0.15625,2.9375 a 1.23519,1.23519 0 0,1 -1.4375,1.125 l -17.0625,-3.0938 a 1.23519,1.23519 0 0,1 -1.03125,-1.21875 c -0.0685,-5.74684 -2.80529,-10.8256 -7,-14.1562 a 1.23519,1.23519 0 0,1 -0.3125,-1.53125 l 7.9688,-15.4062 a 1.23519,1.23519 0 0,1 1.09375,-0.6875 z  m -66.4688,21.5938 .0938,.0625 2.4062,1.0938 .9688,.1562 a 1.23519,1.23519 0 0,1 1,1.375 l -.5938,4.375 a 1.23519,1.23519 0 0,1 -1.28125,1.0625 l -.8438,-.0625 h -0.0625 l -2.7812,.4688 -3.0938,1.2812 v 1.25 l 3.0312,1.2812 h 0.03125 l 2.8125,.4688 .875,-.0625 a 1.23519,1.23519 0 0,1 1.3125,1.0625 l .5938,4.375 a 1.23519,1.23519 0 0,1 -0.96875,1.375 l -1.0312,.2188 h -0.0625 l -2.3125,1.0312 -2.7188,2.125 .3125,1.1875 3.4375,.4375 2.5938,-.25 .9062,-.3438 a 1.23519,1.23519 0 0,1 1.59375,0.6875 l 1.6875,4.0938 a 1.23519,1.23519 0 0,1 -0.625,1.59375 l -.8125,.4062 -2.0938,1.6562 -2.0625,2.7812 .5938,1.0312 3.3438,-.4375 2.5312,-.9375 .8125,-.5625 a 1.23519,1.23519 0 0,1 1.65625,0.28125 l 2.6875,3.5 a 1.23519,1.23519 0 0,1 -0.15625,1.6875 l -.75,.6562 -1.4688,2 -.0312,.0625 -1.3438,3.2812 .8438,.8125 3.25,-1.3125 .0625,-.0312 2,-1.4688 .6562,-.75 a 1.23519,1.23519 0 0,1 1.6875,-0.1563 l 3.5,2.6875 a 1.23519,1.23519 0 0,1 0.28125,1.65625 l -.5625,.8125 -.9375,2.5312 -.4375,3.3438 1.0625,.5938 2.7812,-2.0625 .8438,-1.0625 3.5,-7.2812 c -6.27131,-3.29586 -11.5587,-8.2201 -15.1562,-14.3125 a 1.23519,1.23519 0 0,1 0.53125,-1.75 l 15.75,-7.25 a 1.23519,1.23519 0 0,1 1.53125,0.40625 c 1.54437,2.14514 3.61944,3.84336 5.9375,5.15625 l 7.25,-15.0625 -16.2188,-4.0938 c -0.196357,1.07629 -0.375,2.14185 -0.375,3.28125 0,1.50635 0.134098,2.96197 0.46875,4.34375 a 1.23519,1.23519 0 0,1 -0.6875,1.40625 l -15.7812,7.25 a 1.23519,1.23519 0 0,1 -1.65625,-0.71875 c -1.31341,-3.85128 -2.0625,-7.98866 -2.0625,-12.2812 0,-2.7953 0.394406,-5.50195 0.96875,-8.125 l -9.2188,-2.3125 z " transform="matrix(0.6859695,0,0,0.6859695,-9.116204,-9.7192828)"/>
<path style="opacity:.4;fill:#fff;filter:url(#filter7653)" id="path7661" d="m 82.5625,33.9375 -1.375,3.2812 -.4375,2.5 0,.0625 .0938,1.0625 a 1.09349,1.09349 0 0,1 -0.96875,1.1875 l -4.4062,.5625 a 1.09349,1.09349 0 0,1 -1.1875,-0.90625 l -.125,-.8125 -.0312,-.0625 -1.125,-2.5 -2.1875,-2.8125 -1.3125,.3438 -.5,3.5625 .2812,2.625 .3125,.9062 a 1.09349,1.09349 0 0,1 -0.59375,1.375 l -4.0625,1.7188 a 1.09349,1.09349 0 0,1 -1.4375,-0.53125 l -.4375,-.9375 -.0312,-.0625 -1.625,-1.9375 -2.875,-2.1875 -1.1875,.6875 .4375,3.5625 .9375,2.4688 .5625,.8125 a 1.09349,1.09349 0 0,1 -0.25,1.5 l -3.5,2.7188 a 1.09349,1.09349 0 0,1 -1.5,-0.15625 l -.6875,-.7812 -.0312,-.0625 -2.1562,-1.5312 -3.1875,-1.3125 -1.0312,1 1.375,3.3125 1.4688,2.0625 .8438,.7188 a 1.09349,1.09349 0 0,1 0.15625,1.5 l -2.6875,3.5 a 1.09349,1.09349 0 0,1 -1.5,0.25 l -.8125,-.5625 -2.5,-.9688 -3.5312,-.4375 -.6875,1.2188 2.1562,2.8438 1.0625,.875 .0625,.0312 7.3125,3.5312 c 1.41736,-2.71991 3.12034,-5.28141 5.125,-7.5625 a 1.09349,1.09349 0 0,1 1.625,-0.03125 l 11.8125,12.7188 a 1.09349,1.09349 0 0,1 0.0625,1.40625 c -0.437189,0.598532 -0.762117,1.2543 -1.125,1.90625 l 15.4062,7.4375 4.1562,-16.5312 c -1.12884,-0.223383 -2.25186,-0.4375 -3.4375,-0.4375 -3.59019,2e-06 -6.97302,1.04382 -9.8125,2.8125 a 1.09349,1.09349 0 0,1 -1.375,-0.1875 l -11.8125,-12.7188 a 1.09349,1.09349 0 0,1 0.15625,-1.625 c 6.35207,-4.79644 14.2796,-7.65625 22.8438,-7.65625 2.8191,1e-06 5.54789,0.380143 8.1875,0.96875 l 2.5,-9.9062 -.4375,.5625 -1.125,2.5 -.0312,.0625 -.1562,.8438 a 1.09349,1.09349 0 0,1 -1.1875,0.875 l -4.375,-.5625 a 1.09349,1.09349 0 0,1 -0.96875,-1.1875 l .0938,-.9375 -.4688,-2.7812 v -0.03125 l -1.3438,-3.1562 h -1.40625 z  m 1.4062,52.25 -4.1562,16.5312 c 0.790623,0.16027 1.57061,0.32855 2.375,0.375 a 1.09349,1.09349 0 0,1 1.03125,0.9375 l 2.3125,17.2188 a 1.09349,1.09349 0 0,1 -1.0625,1.25 c -0.434591,0.0136 -0.817403,0 -1.1875,0 -2.82696,0 -5.56971,-0.37984 -8.21875,-0.96875 l -2.5,9.9375 .4375,-.5625 1.125,-2.5 .1562,-.9062 a 1.09349,1.09349 0 0,1 1.1875,-0.90625 l 4.4062,.5625 a 1.09349,1.09349 0 0,1 0.96875,1.1875 l -.0938,1.0312 v 0.0625 l .4375,2.5312 1.375,3.2812 h 1.40625 l 1.3438,-3.1562 v -0.0312 l .4375,-2.8125 -.0625,-.9062 a 1.09349,1.09349 0 0,1 0.96875,-1.1875 l 4.375,-.5625 a 1.09349,1.09349 0 0,1 1.1875,0.875 l .1562,.875 .0312,.0625 1.125,2.5 2.1562,2.7812 1.3438,-.375 .5,-3.5312 -.2812,-2.625 -.3125,-.9375 a 1.09349,1.09349 0 0,1 0.625,-1.375 l 4.0938,-1.6562 a 1.09349,1.09349 0 0,1 1.375,0.53125 l .3438,.75 .0625,.0625 1.7188,2.125 2.8438,2.1562 1.1875,-.6875 -.4375,-3.5312 -.9688,-2.5 -.5625,-.8125 a 1.09349,1.09349 0 0,1 0.25,-1.5 l 3.5312,-2.6875 a 1.09349,1.09349 0 0,1 1.5,0.15625 l .7188,.8438 2.0625,1.4688 3.2812,1.3438 1.0312,-1 -1.375,-3.3125 -1.4688,-2.0625 -.8438,-.7188 a 1.09349,1.09349 0 0,1 -0.15625,-1.5 l 2.6875,-3.5 a 1.09349,1.09349 0 0,1 1.46875,-0.25 l .7188,.5 .0625,.0312 2.4688,.9375 h 0.0937 l 3.5625,.5 .6875,-1.1875 -2.1875,-2.875 -.9688,-.8438 -.0625,-.0312 -7.5,-3.5938 c -4.99661,9.59978 -13.8512,16.8752 -24.625,19.4688 a 1.09349,1.09349 0 0,1 -1.3437,-0.90625 l -2.3438,-17.2188 a 1.09349,1.09349 0 0,1 0.75,-1.1875 c 4.36262,-1.47958 7.93358,-4.59907 10.1562,-8.5625 l -15.4062,-7.4062 z " transform="matrix(0.6859695,0,0,0.6859695,-9.116204,-9.7192828)"/>
</g>
</g>
<g style="stroke:none" id="layer5">
<path style="opacity:.5;fill:url(#linearGradient3188)" id="rect3728" d="m 12,6 c -3.324,0 -6,2.676 -6,6 v 2 68 2 c 0,0.334721 0.04135,0.6507 0.09375,0.96875 0.0487,0.295596 0.09704,0.596915 0.1875,0.875 0.00988,0.03038 0.020892,0.0636 0.03125,0.09375 0.098865,0.287771 0.23488,0.547452 0.375,0.8125 0.144592,0.273507 0.315616,0.535615 0.5,0.78125 0.184384,0.245635 0.373776,0.473472 0.59375,0.6875 0.439947,0.428056 0.94291,0.814526 1.5,1.09375 0.278545,0.139612 0.573473,0.246947 0.875,0.34375 -0.256202,-0.100222 -0.486711,-0.236272 -0.71875,-0.375 -0.00741,-0.0044 -0.023866,0.0045 -0.03125,0 -0.031933,-0.0193 -0.062293,-0.04251 -0.09375,-0.0625 -0.120395,-0.0767 -0.231023,-0.163513 -0.34375,-0.25 -0.106173,-0.0808 -0.213281,-0.161112 -0.3125,-0.25 -0.17793,-0.161433 -0.34746,-0.345388 -0.5,-0.53125 -0.107579,-0.130255 -0.218394,-0.265285 -0.3125,-0.40625 -0.025089,-0.03838 -0.038446,-0.08587 -0.0625,-0.125 -0.064763,-0.103032 -0.130228,-0.204517 -0.1875,-0.3125 -0.101008,-0.194706 -0.205675,-0.415701 -0.28125,-0.625 -0.00796,-0.02181 -0.023589,-0.04055 -0.03125,-0.0625 -0.0318251,-0.09195 -0.0358045,-0.186831 -0.0625,-0.28125 -0.0303323,-0.106618 -0.0703894,-0.203031 -0.09375,-0.3125 -0.0728786,-0.341512 -0.125,-0.698205 -0.125,-1.0625 v -2 -68 -2 c 0,-2.78185 2.21815,-5 5,-5 h 2 68 2 c 2.78185,0 5,2.21815 5,5 v 2 68 2 c 0,0.364295 -0.05212,0.720988 -0.125,1.0625 -0.04415,0.206893 -0.08838,0.397658 -0.15625,0.59375 -0.0077,0.02195 -0.0233,0.04069 -0.03125,0.0625 -0.06274,0.173739 -0.138383,0.367449 -0.21875,0.53125 -0.04158,0.0828 -0.07904,0.169954 -0.125,0.25 -0.0546,0.09721 -0.126774,0.18835 -0.1875,0.28125 -0.09411,0.140965 -0.204921,0.275995 -0.3125,0.40625 -0.143174,0.17445 -0.303141,0.346998 -0.46875,0.5 -0.01117,0.0102 -0.01998,0.02115 -0.03125,0.03125 -0.138386,0.125556 -0.285091,0.234436 -0.4375,0.34375 -0.102571,0.07315 -0.204318,0.153364 -0.3125,0.21875 -0.0074,0.0045 -0.02384,-0.0044 -0.03125,0 -0.232039,0.138728 -0.462548,0.274778 -0.71875,0.375 0.301527,-0.0968 0.596455,-0.204138 0.875,-0.34375 0.55709,-0.279224 1.06005,-0.665694 1.5,-1.09375 0.219973,-0.214028 0.409366,-0.441865 0.59375,-0.6875 0.184384,-0.245635 0.355408,-0.507743 0.5,-0.78125 0.14012,-0.265048 0.276135,-0.524729 0.375,-0.8125 0.01041,-0.03078 0.02133,-0.06274 0.03125,-0.09375 0.09046,-0.278085 0.1388,-0.579404 0.1875,-0.875 0.0524,-0.31805 0.09375,-0.634029 0.09375,-0.96875 v -2 -68 -2 c 0,-3.324 -2.676,-6 -6,-6 h -72 z "/>
<path style="opacity:.4;fill:url(#radialGradient3786)" id="path3615" d="M 12,90 C 8.676,90 6,87.324 6,84 L 6,82 6,14 6,12 c 0,-0.334721 0.04135,-0.6507 0.09375,-0.96875 0.0487,-0.295596 0.09704,-0.596915 0.1875,-0.875 C 6.29113,10.12587 6.302142,10.09265 6.3125,10.0625 6.411365,9.774729 6.5473802,9.515048 6.6875,9.25 6.8320918,8.976493 7.0031161,8.714385 7.1875,8.46875 7.3718839,8.223115 7.5612765,7.995278 7.78125,7.78125 8.221197,7.353194 8.72416,6.966724 9.28125,6.6875 9.559795,6.547888 9.8547231,6.440553 10.15625,6.34375 9.9000482,6.443972 9.6695391,6.580022 9.4375,6.71875 c -0.00741,0.0044 -0.023866,-0.0045 -0.03125,0 -0.031933,0.0193 -0.062293,0.04251 -0.09375,0.0625 -0.120395,0.0767 -0.2310226,0.163513 -0.34375,0.25 -0.1061728,0.0808 -0.2132809,0.161112 -0.3125,0.25 C 8.4783201,7.442683 8.3087904,7.626638 8.15625,7.8125 8.0486711,7.942755 7.9378561,8.077785 7.84375,8.21875 7.818661,8.25713 7.805304,8.30462 7.78125,8.34375 7.716487,8.446782 7.6510225,8.548267 7.59375,8.65625 7.4927417,8.850956 7.3880752,9.071951 7.3125,9.28125 7.30454,9.30306 7.288911,9.3218 7.28125,9.34375 7.2494249,9.4357 7.2454455,9.530581 7.21875,9.625 7.1884177,9.731618 7.1483606,9.828031 7.125,9.9375 7.0521214,10.279012 7,10.635705 7,11 l 0,2 0,68 0,2 c 0,2.781848 2.2181517,5 5,5 l 2,0 68,0 2,0 c 2.781848,0 5,-2.218152 5,-5 l 0,-2 0,-68 0,-2 C 89,10.635705 88.94788,10.279012 88.875,9.9375 88.83085,9.730607 88.78662,9.539842 88.71875,9.34375 88.71105,9.3218 88.69545,9.30306 88.6875,9.28125 88.62476,9.107511 88.549117,8.913801 88.46875,8.75 88.42717,8.6672 88.38971,8.580046 88.34375,8.5 88.28915,8.40279 88.216976,8.31165 88.15625,8.21875 88.06214,8.077785 87.951329,7.942755 87.84375,7.8125 87.700576,7.63805 87.540609,7.465502 87.375,7.3125 87.36383,7.3023 87.35502,7.29135 87.34375,7.28125 87.205364,7.155694 87.058659,7.046814 86.90625,6.9375 86.803679,6.86435 86.701932,6.784136 86.59375,6.71875 c -0.0074,-0.0045 -0.02384,0.0044 -0.03125,0 -0.232039,-0.138728 -0.462548,-0.274778 -0.71875,-0.375 0.301527,0.0968 0.596455,0.204138 0.875,0.34375 0.55709,0.279224 1.060053,0.665694 1.5,1.09375 0.219973,0.214028 0.409366,0.441865 0.59375,0.6875 0.184384,0.245635 0.355408,0.507743 0.5,0.78125 0.14012,0.265048 0.276135,0.524729 0.375,0.8125 0.01041,0.03078 0.02133,0.06274 0.03125,0.09375 0.09046,0.278085 0.1388,0.579404 0.1875,0.875 C 89.95865,11.3493 90,11.665279 90,12 l 0,2 0,68 0,2 c 0,3.324 -2.676,6 -6,6 l -72,0 z"/>
</g>
</svg>
