<svg width="96" version="1.0" xmlns="http://www.w3.org/2000/svg" height="96" xmlns:xlink="http://www.w3.org/1999/xlink">
<defs id="defs2410">
<clipPath id="clipPath3613">
<rect width="84" x="6" y="6" rx="6" height="84" ry="6" style="fill:#fff;stroke:none" id="rect3615"/>
</clipPath>
<filter style="color-interpolation-filters:sRGB" id="filter3174">
<feGaussianBlur stdDeviation="1.71" id="feGaussianBlur3176"/>
</filter>
<filter width="1.3839999" x="-0.192" y="-0.192" height="1.3839999" style="color-interpolation-filters:sRGB" id="filter3794">
<feGaussianBlur stdDeviation="5.28" id="feGaussianBlur3796"/>
</filter>
<linearGradient id="linearGradient4035-4" xlink:href="#linearGradient4029-7" y1="32" x1="42" y2="32" x2="54" gradientUnits="userSpaceOnUse"/>
<linearGradient id="linearGradient4037-7">
<stop offset="0" style="stop-color:#ffd500" id="stop4039-4"/>
<stop offset="1" style="stop-color:#ff9a00" id="stop4041-5"/>
</linearGradient>
<linearGradient id="linearGradient4043-7" xlink:href="#linearGradient4037-7" y1="25" x1="58" y2="31" x2="68" gradientUnits="userSpaceOnUse"/>
<linearGradient id="linearGradient4045-8">
<stop offset="0" style="stop-color:#ff8200" id="stop4047-7"/>
<stop offset="1" style="stop-color:#ff4700" id="stop4049-9"/>
</linearGradient>
<linearGradient id="linearGradient4051-9" xlink:href="#linearGradient4045-8" y1="34" x1="71" y2="45" x2="77" gradientUnits="userSpaceOnUse"/>
<linearGradient id="linearGradient4053-8">
<stop offset="0" style="stop-color:#f00" id="stop4055-2"/>
<stop offset="1" style="stop-color:#ff006b" id="stop4057-8"/>
</linearGradient>
<linearGradient id="linearGradient4029-7">
<stop offset="0" style="stop-color:#46cc00" id="stop4031-8"/>
<stop offset="1" style="stop-color:#85cc00" id="stop4033-7"/>
</linearGradient>
<linearGradient id="linearGradient4027-3" xlink:href="#linearGradient4021-8" y1="31" x1="28" y2="25.169048" x2="38.099506" gradientUnits="userSpaceOnUse"/>
<linearGradient id="linearGradient3737-9">
<stop offset="0" style="stop-color:#fff" id="stop3739-2"/>
<stop offset="1" style="stop-color:#fff;stop-opacity:0" id="stop3741-1"/>
</linearGradient>
<linearGradient id="linearGradient4005-1">
<stop offset="0" style="stop-color:#609" id="stop4007-6"/>
<stop offset="1" style="stop-color:#330eac" id="stop4009-0"/>
</linearGradient>
<linearGradient id="linearGradient4059-2" xlink:href="#linearGradient4053-8" y1="48" x1="78" y2="60" x2="78" gradientUnits="userSpaceOnUse"/>
<linearGradient id="linearGradient4121-7" xlink:href="#linearGradient4005-1" y1="60" x1="18" y2="47.958405" x2="18" gradientUnits="userSpaceOnUse"/>
<linearGradient id="linearGradient4019-7" xlink:href="#linearGradient4013-8" y1="44" x1="19" y2="34" x2="25" gradientUnits="userSpaceOnUse"/>
<linearGradient id="linearGradient4021-8">
<stop offset="0" style="stop-color:#00b4b4" id="stop4023-1"/>
<stop offset="1" style="stop-color:#00b464" id="stop4025-7"/>
</linearGradient>
<linearGradient id="linearGradient4013-8">
<stop offset="0" style="stop-color:#03c" id="stop4015-9"/>
<stop offset="1" style="stop-color:#0e7eff" id="stop4017-7"/>
</linearGradient>
<linearGradient id="linearGradient4029-4" xlink:href="#linearGradient3737-9" y1="20.220806" x1="48" y2="138.66119" x2="48" gradientUnits="userSpaceOnUse"/>
<linearGradient gradientTransform="translate(0,-97)" id="linearGradient3721" xlink:href="#ButtonShadow-0" y1="6.1317081" x1="32.251034" y2="90.238609" x2="32.251034" gradientUnits="userSpaceOnUse"/>
<linearGradient gradientTransform="matrix(1.0238095,0,0,1.0119048,-1.1428571,-98.071429)" id="linearGradient3725" xlink:href="#ButtonShadow-0" y1="6.1317081" x1="32.251034" y2="90.238609" x2="32.251034" gradientUnits="userSpaceOnUse"/>
<linearGradient id="linearGradient3737-1">
<stop offset="0" style="stop-color:#fff" id="stop3739-9"/>
<stop offset="1" style="stop-color:#fff;stop-opacity:0" id="stop3741-3"/>
</linearGradient>
<linearGradient id="linearGradient3923" xlink:href="#linearGradient3737-1" y1="6" x1="36.357143" y2="63.893143" x2="36.357143" gradientUnits="userSpaceOnUse"/>
<linearGradient id="linearGradient4193-9">
<stop offset="0" style="stop-color:#fff" id="stop4195-8"/>
<stop offset="1" style="stop-color:#fff;stop-opacity:0" id="stop4197-2"/>
</linearGradient>
<linearGradient id="linearGradient3737-0">
<stop offset="0" style="stop-color:#fff" id="stop3739-6"/>
<stop offset="1" style="stop-color:#fff;stop-opacity:0" id="stop3741-0"/>
</linearGradient>
<linearGradient gradientTransform="matrix(1.0238095,0,0,1.0119048,-1.1428571,-98.071429)" id="linearGradient3760" xlink:href="#ButtonShadow-0" y1="6.1317081" x1="32.251034" y2="90.238609" x2="32.251034" gradientUnits="userSpaceOnUse"/>
<linearGradient gradientTransform="scale(1.0058652,0.994169)" id="ButtonShadow" y1="92.539597" x1="45.447727" y2="7.0165396" x2="45.447727" gradientUnits="userSpaceOnUse">
<stop offset="0" id="stop3750"/>
<stop offset="1" style="stop-opacity:.588" id="stop3752"/>
</linearGradient>
<linearGradient gradientTransform="matrix(1.0238095,0,0,1.0119048,-1.1428571,-98.071429)" id="linearGradient3772" xlink:href="#ButtonShadow-0" y1="6.1317081" x1="32.251034" y2="90.238609" x2="32.251034" gradientUnits="userSpaceOnUse"/>
<linearGradient id="linearGradient3706" xlink:href="#linearGradient3700" y1="90" x1="48" y2="5.9877172" x2="48" gradientUnits="userSpaceOnUse"/>
<linearGradient id="linearGradient3700">
<stop offset="0" style="stop-color:#e6e6e6" id="stop3702"/>
<stop offset="1" style="stop-color:#f5f5f5" id="stop3704"/>
</linearGradient>
<linearGradient gradientTransform="matrix(1.0238095,0,0,1.0119048,-1.1428571,-98.071429)" id="linearGradient3780" xlink:href="#ButtonShadow-0" y1="6.1317081" x1="32.251034" y2="90.238609" x2="32.251034" gradientUnits="userSpaceOnUse"/>
<linearGradient gradientTransform="matrix(1.0058652,0,0,0.994169,100,0)" id="ButtonShadow-0" y1="92.539597" x1="45.447727" y2="7.0165396" x2="45.447727" gradientUnits="userSpaceOnUse">
<stop offset="0" id="stop3750-8"/>
<stop offset="1" style="stop-opacity:.588" id="stop3752-5"/>
</linearGradient>
<radialGradient fx="-34" fy="54" cx="-34" cy="54" r="4" id="radialGradient4394-6" xlink:href="#linearGradient4193-9" gradientUnits="userSpaceOnUse"/>
<radialGradient fx="48" fy="90.171875" cx="48" cy="90.171875" gradientTransform="matrix(1.1573129,0,0,0.99590774,-7.551021,0.1971319)" r="42" id="radialGradient2886" xlink:href="#linearGradient3737-0" gradientUnits="userSpaceOnUse"/>
<radialGradient fx="-22" fy="54" cx="-22" cy="54" r="6" id="radialGradient4392-0" xlink:href="#linearGradient4193-9" gradientUnits="userSpaceOnUse"/>
<radialGradient fx="-26.019238" fy="39" cx="-26.019238" cy="39" gradientTransform="translate(0,-9.4323106e-6)" r="6.0010023" id="radialGradient4398-1" xlink:href="#linearGradient4193-9" gradientUnits="userSpaceOnUse"/>
<radialGradient fx="-42" fy="54" cx="-42" cy="54" r="2" id="radialGradient4396-5" xlink:href="#linearGradient4193-9" gradientUnits="userSpaceOnUse"/>
<radialGradient fx="-52" fy="36" cx="-52" cy="36" gradientTransform="translate(0,4.4999994e-6)" r="4.0000005" id="radialGradient4412-6" xlink:href="#linearGradient4193-9" gradientUnits="userSpaceOnUse"/>
<radialGradient fx="-52" fy="24" cx="-52" cy="24" gradientTransform="translate(0,-1.9999996e-6)" r="5.9999995" id="radialGradient4410-4" xlink:href="#linearGradient4193-9" gradientUnits="userSpaceOnUse"/>
<radialGradient fx="-62" fy="54" cx="-62" cy="54" r="2" id="radialGradient4432-8" xlink:href="#linearGradient4193-9" gradientUnits="userSpaceOnUse"/>
<radialGradient fx="-47" fy="45.339748" cx="-47" cy="45.339748" gradientTransform="translate(0,6.8397251e-6)" r="2.0003338" id="radialGradient4408-4" xlink:href="#linearGradient4193-9" gradientUnits="userSpaceOnUse"/>
<radialGradient fx="-43" fy="38.411541" cx="-43" cy="38.411541" gradientTransform="translate(0,1.0061379e-5)" r="4.000668" id="radialGradient4406-0" xlink:href="#linearGradient4193-9" gradientUnits="userSpaceOnUse"/>
<radialGradient fx="-36.411545" fy="45" cx="-36.411545" cy="45" gradientTransform="translate(0,1.1316876e-5)" r="4.0006676" id="radialGradient4400-1" xlink:href="#linearGradient4193-9" gradientUnits="userSpaceOnUse"/>
<radialGradient fx="-37" fy="28.019238" cx="-37" cy="28.019238" gradientTransform="translate(0,7.9863022e-6)" r="6.0010018" id="radialGradient4404-6" xlink:href="#linearGradient4193-9" gradientUnits="userSpaceOnUse"/>
<radialGradient fx="-43.339745" fy="49.000004" cx="-43.339745" cy="49.000004" gradientTransform="translate(0,-1.9326718e-5)" r="2.0003338" id="radialGradient4402-1" xlink:href="#linearGradient4193-9" gradientUnits="userSpaceOnUse"/>
<radialGradient fx="-52" fy="44" cx="-52" cy="44" r="2" id="radialGradient4414-6" xlink:href="#linearGradient4193-9" gradientUnits="userSpaceOnUse"/>
<radialGradient fx="-70" fy="54" cx="-70" cy="54" gradientTransform="translate(0,6.7499991e-6)" r="4.0000005" id="radialGradient4430-0" xlink:href="#linearGradient4193-9" gradientUnits="userSpaceOnUse"/>
<radialGradient fx="-82" fy="54" cx="-82" cy="54" r="6" id="radialGradient4428-4" xlink:href="#linearGradient4193-9" gradientUnits="userSpaceOnUse"/>
<radialGradient fx="-67" fy="28.019239" cx="-67" cy="28.019239" gradientTransform="translate(0,-3.0927722e-6)" r="6.0010018" id="radialGradient4416-1" xlink:href="#linearGradient4193-9" gradientUnits="userSpaceOnUse"/>
<radialGradient fx="-60.660255" fy="49.000004" cx="-60.660255" cy="49.000004" gradientTransform="translate(0,-1.3883792e-5)" r="2.0003338" id="radialGradient4426-2" xlink:href="#linearGradient4193-9" gradientUnits="userSpaceOnUse"/>
<radialGradient fx="-67.588455" fy="45" cx="-67.588455" cy="45" gradientTransform="translate(0,1.3415513e-5)" r="4.000668" id="radialGradient4424-9" xlink:href="#linearGradient4193-9" gradientUnits="userSpaceOnUse"/>
<radialGradient fx="-61" fy="38.411541" cx="-61" cy="38.411541" gradientTransform="translate(0,1.2557281e-5)" r="4.000668" id="radialGradient4418-0" xlink:href="#linearGradient4193-9" gradientUnits="userSpaceOnUse"/>
<radialGradient fx="-77.980759" fy="39" cx="-77.980759" cy="39" gradientTransform="translate(0,-9.5483009e-6)" r="6.0010023" id="radialGradient4422-0" xlink:href="#linearGradient4193-9" gradientUnits="userSpaceOnUse"/>
<radialGradient fx="-57" fy="45.339748" cx="-57" cy="45.339748" gradientTransform="translate(0,6.8397249e-6)" r="2.0003338" id="radialGradient4420-9" xlink:href="#linearGradient4193-9" gradientUnits="userSpaceOnUse"/>
</defs>
<g style="display:none" id="layer2">
<rect width="86" x="5" y="7" rx="6" height="85" ry="6" style="opacity:.9;fill:url(#ButtonShadow);filter:url(#filter3174);stroke:none" id="rect3745"/>
</g>
<g style="stroke:none" id="layer6">
<path style="opacity:.08;fill:url(#linearGradient3760)" id="path3786" d="m 12,-95.0312 c -5.51109,0 -10.0312,4.52016 -10.0312,10.0312 v 71 c 0,5.51109 4.52016,10.0312 10.0312,10.0312 h 72 c 5.51109,0 10.0312,-4.52016 10.0312,-10.0312 v -71 c 0,-5.51109 -4.52016,-10.0312 -10.0312,-10.0312 h -72 z " transform="scale(1,-1)"/>
<path style="opacity:.1;fill:url(#linearGradient3780)" id="path3778" d="m 12,-94.0312 c -4.97163,0 -9.03125,4.05962 -9.03125,9.03125 v 71 c 0,4.97163 4.05962,9.03125 9.03125,9.03125 h 72 c 4.97163,0 9.03125,-4.05962 9.03125,-9.03125 v -71 c 0,-4.97163 -4.05962,-9.03125 -9.03125,-9.03125 h -72 z " transform="scale(1,-1)"/>
<path style="opacity:.2;fill:url(#linearGradient3772)" id="path3770" d="m 12,-93 c -4.40913,0 -8,3.59087 -8,8 v 71 c 0,4.40913 3.59087,8 8,8 h 72 c 4.40913,0 8,-3.59087 8,-8 v -71 c 0,-4.40913 -3.59087,-8 -8,-8 h -72 z " transform="scale(1,-1)"/>
<rect width="86" x="5" y="-92" rx="7" height="85" ry="7" style="opacity:.3;fill:url(#linearGradient3725)" id="rect3723" transform="scale(1,-1)"/>
<rect width="84" x="6" y="-91" rx="6" height="84" ry="6" style="opacity:.45;fill:url(#linearGradient3721)" id="rect3716" transform="scale(1,-1)"/>
</g>
<g id="layer1">
<g style="stroke:none">
<rect width="84" x="6" y="6" rx="6" height="84" ry="6" style="fill:url(#linearGradient3706)" id="rect2419"/>
<path style="opacity:.5;fill:url(#linearGradient3923)" id="rect3728" d="M 12,6 C 8.676,6 6,8.676 6,12 l 0,2 0,68 0,2 c 0,0.334721 0.04135,0.6507 0.09375,0.96875 0.0487,0.295596 0.09704,0.596915 0.1875,0.875 0.0099,0.03038 0.02089,0.0636 0.03125,0.09375 0.09886,0.287771 0.23488,0.547452 0.375,0.8125 0.144592,0.273507 0.315616,0.535615 0.5,0.78125 0.184384,0.245635 0.373776,0.473472 0.59375,0.6875 0.439947,0.428056 0.94291,0.814526 1.5,1.09375 0.278545,0.139612 0.573473,0.246947 0.875,0.34375 -0.256202,-0.100222 -0.486711,-0.236272 -0.71875,-0.375 -0.0074,-0.0044 -0.02387,0.0045 -0.03125,0 -0.03193,-0.0193 -0.06229,-0.04251 -0.09375,-0.0625 -0.120395,-0.0767 -0.231023,-0.163513 -0.34375,-0.25 -0.106173,-0.0808 -0.213281,-0.161112 -0.3125,-0.25 C 8.47832,88.557317 8.30879,88.373362 8.15625,88.1875 8.048671,88.057245 7.937856,87.922215 7.84375,87.78125 7.81866,87.74287 7.8053,87.69538 7.78125,87.65625 7.71649,87.553218 7.651022,87.451733 7.59375,87.34375 7.492742,87.149044 7.388075,86.928049 7.3125,86.71875 7.3045,86.69694 7.28891,86.6782 7.28125,86.65625 7.24942,86.5643 7.24545,86.469419 7.21875,86.375 7.188418,86.268382 7.148361,86.171969 7.125,86.0625 7.052121,85.720988 7,85.364295 7,85 L 7,83 7,15 7,13 C 7,10.218152 9.218152,8 12,8 l 2,0 68,0 2,0 c 2.781848,0 5,2.218152 5,5 l 0,2 0,68 0,2 c 0,0.364295 -0.05212,0.720988 -0.125,1.0625 -0.04415,0.206893 -0.08838,0.397658 -0.15625,0.59375 -0.0077,0.02195 -0.0233,0.04069 -0.03125,0.0625 -0.06274,0.173739 -0.138383,0.367449 -0.21875,0.53125 -0.04158,0.0828 -0.07904,0.169954 -0.125,0.25 -0.0546,0.09721 -0.126774,0.18835 -0.1875,0.28125 -0.09411,0.140965 -0.204921,0.275995 -0.3125,0.40625 -0.143174,0.17445 -0.303141,0.346998 -0.46875,0.5 -0.01117,0.0102 -0.01998,0.02115 -0.03125,0.03125 -0.138386,0.125556 -0.285091,0.234436 -0.4375,0.34375 -0.102571,0.07315 -0.204318,0.153364 -0.3125,0.21875 -0.0074,0.0045 -0.02384,-0.0044 -0.03125,0 -0.232039,0.138728 -0.462548,0.274778 -0.71875,0.375 0.301527,-0.0968 0.596455,-0.204138 0.875,-0.34375 0.55709,-0.279224 1.060053,-0.665694 1.5,-1.09375 0.219973,-0.214028 0.409366,-0.441865 0.59375,-0.6875 0.184384,-0.245635 0.355408,-0.507743 0.5,-0.78125 0.14012,-0.265048 0.276135,-0.524729 0.375,-0.8125 0.01041,-0.03078 0.02133,-0.06274 0.03125,-0.09375 0.09046,-0.278085 0.1388,-0.579404 0.1875,-0.875 C 89.95865,84.6507 90,84.334721 90,84 l 0,-2 0,-68 0,-2 C 90,8.676 87.324,6 84,6 L 12,6 z"/>
<path style="opacity:.4;fill:url(#radialGradient2886)" id="path3615" d="M 12,90 C 8.676,90 6,87.324 6,84 L 6,82 6,14 6,12 c 0,-0.334721 0.04135,-0.6507 0.09375,-0.96875 0.0487,-0.295596 0.09704,-0.596915 0.1875,-0.875 C 6.29113,10.12587 6.302142,10.09265 6.3125,10.0625 6.411365,9.774729 6.5473802,9.515048 6.6875,9.25 6.8320918,8.976493 7.0031161,8.714385 7.1875,8.46875 7.3718839,8.223115 7.5612765,7.995278 7.78125,7.78125 8.221197,7.353194 8.72416,6.966724 9.28125,6.6875 9.559795,6.547888 9.8547231,6.440553 10.15625,6.34375 9.9000482,6.443972 9.6695391,6.580022 9.4375,6.71875 c -0.00741,0.0044 -0.023866,-0.0045 -0.03125,0 -0.031933,0.0193 -0.062293,0.04251 -0.09375,0.0625 -0.120395,0.0767 -0.2310226,0.163513 -0.34375,0.25 -0.1061728,0.0808 -0.2132809,0.161112 -0.3125,0.25 C 8.4783201,7.442683 8.3087904,7.626638 8.15625,7.8125 8.0486711,7.942755 7.9378561,8.077785 7.84375,8.21875 7.818661,8.25713 7.805304,8.30462 7.78125,8.34375 7.716487,8.446782 7.6510225,8.548267 7.59375,8.65625 7.4927417,8.850956 7.3880752,9.071951 7.3125,9.28125 7.30454,9.30306 7.288911,9.3218 7.28125,9.34375 7.2494249,9.4357 7.2454455,9.530581 7.21875,9.625 7.1884177,9.731618 7.1483606,9.828031 7.125,9.9375 7.0521214,10.279012 7,10.635705 7,11 l 0,2 0,68 0,2 c 0,2.781848 2.2181517,5 5,5 l 2,0 68,0 2,0 c 2.781848,0 5,-2.218152 5,-5 l 0,-2 0,-68 0,-2 C 89,10.635705 88.94788,10.279012 88.875,9.9375 88.83085,9.730607 88.78662,9.539842 88.71875,9.34375 88.71105,9.3218 88.69545,9.30306 88.6875,9.28125 88.62476,9.107511 88.549117,8.913801 88.46875,8.75 88.42717,8.6672 88.38971,8.580046 88.34375,8.5 88.28915,8.40279 88.216976,8.31165 88.15625,8.21875 88.06214,8.077785 87.951329,7.942755 87.84375,7.8125 87.700576,7.63805 87.540609,7.465502 87.375,7.3125 87.36383,7.3023 87.35502,7.29135 87.34375,7.28125 87.205364,7.155694 87.058659,7.046814 86.90625,6.9375 86.803679,6.86435 86.701932,6.784136 86.59375,6.71875 c -0.0074,-0.0045 -0.02384,0.0044 -0.03125,0 -0.232039,-0.138728 -0.462548,-0.274778 -0.71875,-0.375 0.301527,0.0968 0.596455,0.204138 0.875,0.34375 0.55709,0.279224 1.060053,0.665694 1.5,1.09375 0.219973,0.214028 0.409366,0.441865 0.59375,0.6875 0.184384,0.245635 0.355408,0.507743 0.5,0.78125 0.14012,0.265048 0.276135,0.524729 0.375,0.8125 0.01041,0.03078 0.02133,0.06274 0.03125,0.09375 0.09046,0.278085 0.1388,0.579404 0.1875,0.875 C 89.95865,11.3493 90,11.665279 90,12 l 0,2 0,68 0,2 c 0,3.324 -2.676,6 -6,6 l -72,0 z"/>
<rect width="84" x="-94" y="6" rx="6" height="84" ry="6" style="fill:#f0f" id="rect3654"/>
</g>
<rect width="16" x="112" y="8" height="16" style="fill:#fff;stroke:#000;stroke-linecap:round;color:#000;stroke-width:.5;stroke-dashoffset:8.6" id="rect3797"/>
<text x="131.39261" y="11.969256" style="font-family:Liberation Sans;text-align:start;stroke:none;line-height:125%;font-size:4px" id="text3799" xml:space="preserve"><tspan x="131.39261" y="11.969256" id="tspan3801">Width: 2px</tspan><tspan x="131.39261" y="16.969257" id="tspan3803">Blur: 12</tspan><tspan x="131.39261" y="21.969257" id="tspan3807">Opacity: 60</tspan>
</text>
</g>
<g id="layer3">
<rect width="66" x="15" y="15" rx="12" height="66" ry="12" style="opacity:.5;fill:url(#linearGradient4029-4);filter:url(#filter3794);stroke:#fff;stroke-linecap:round;stroke-width:.5;clip-path:url(#clipPath3613)" id="rect3171"/>
</g>
<g id="layer4">
<g style="stroke:none;color:#000">
<g style="fill:#f00">
<path id="path4003" d="m 78,-22 c -3.31371,0 -6,2.68629 -6,6 0,3.31371 2.68629,6 6,6 3.31371,0 6,-2.68629 6,-6 0,-3.31371 -2.68629,-6 -6,-6 z "/>
<path id="path3932" d="m 58,-18 c -1.10457,0 -2,0.895431 -2,2 0,1.10457 0.895431,2 2,2 1.10457,0 2,-0.895431 2,-2 0,-1.10457 -0.895431,-2 -2,-2 z "/>
</g>
<path style="fill:#f60" id="path3997" d="m 70.9808,-36.1962 c -2.86976,1.65685 -3.85301,5.3264 -2.19615,8.19615 1.65685,2.86976 5.3264,3.85301 8.19615,2.19615 2.86976,-1.65685 3.85301,-5.3264 2.19615,-8.19615 -1.65685,-2.86976 -5.3264,-3.85301 -8.19615,-2.19615 z "/>
<path style="fill:#f30" id="path3995" d="m 64.3514,-24.5224 c -2.13386,0.571768 -3.40019,2.76512 -2.82843,4.89898 0.571767,2.13386 2.76512,3.4002 4.89898,2.82843 2.13387,-0.571768 3.40019,-2.76512 2.82843,-4.89898 -0.571768,-2.13386 -2.76511,-3.40019 -4.89898,-2.82843 z "/>
<path style="fill:#f60" id="path3935" d="m 55.6603,-22.7321 c -0.956585,0.552285 -1.28433,1.77547 -0.732051,2.73205 0.552285,0.956585 1.77547,1.28433 2.73205,0.732051 0.956585,-0.552285 1.28433,-1.77547 0.732051,-2.73205 -0.552285,-0.956585 -1.77547,-1.28433 -2.73205,-0.732051 z "/>
<path style="fill:#ffd700" id="path3991" d="m 57.8038,-44.9808 c -1.65686,2.86976 -0.673604,6.5393 2.19615,8.19615 2.86976,1.65686 6.5393,0.673604 8.19615,-2.19615 1.65685,-2.86976 0.673604,-6.5393 -2.19615,-8.19615 -2.86976,-1.65685 -6.5393,-0.673603 -8.19615,2.19615 z "/>
<path style="fill:#ffb200" id="path3989" d="m 57.8995,-31.5563 c -1.5621,1.5621 -1.5621,4.09476 1e-06,5.65685 1.5621,1.5621 4.09476,1.5621 5.65685,0 1.5621,-1.5621 1.5621,-4.09476 0,-5.65685 -1.5621,-1.5621 -4.09476,-1.5621 -5.65686,0 z "/>
<path style="fill:#ffd700" id="path3937" d="m 51.2679,-25.6603 c -0.552284,0.956585 -0.224534,2.17977 0.732051,2.73205 0.956585,0.552284 2.17977,0.224534 2.73205,-0.732051 0.552284,-0.956585 0.224534,-2.17977 -0.732051,-2.73205 -0.956585,-0.552284 -2.17977,-0.224534 -2.73205,0.732051 z "/>
<path style="fill:#25cc00" id="path3985" d="m 42,-46 c -1e-06,3.31371 2.68629,6 6,6 3.31371,0 6,-2.68629 6,-6 0,-3.31371 -2.68629,-6 -6,-6 -3.31371,0 -6,2.68629 -6,6 z "/>
<path style="fill:#86e000" id="path3983" d="m 48.795,-34.4219 c -0.571767,2.13386 0.694564,4.32721 2.82843,4.89898 2.13386,0.571768 4.32721,-0.694562 4.89898,-2.82843 0.571766,-2.13387 -0.694565,-4.32721 -2.82843,-4.89898 -2.13386,-0.571767 -4.32721,0.694563 -4.89898,2.82843 z "/>
<path style="fill:#25cc00" id="path3939" d="m 46,-26 c 1e-06,1.10457 0.895431,2 2,2 1.10457,0 2,-0.895431 2,-2 0,-1.10457 -0.895431,-2 -2,-2 -1.10457,0 -2,0.895431 -2,2 z "/>
<path style="fill:#099" id="path3979" d="m 27.8038,-38.9808 c 1.65685,2.86976 5.32639,3.85301 8.19615,2.19615 2.86976,-1.65686 3.85301,-5.3264 2.19615,-8.19615 -1.65685,-2.86976 -5.3264,-3.85301 -8.19615,-2.19615 -2.86976,1.65685 -3.85301,5.3264 -2.19615,8.19615 z "/>
<path style="fill:#00b266" id="path3977" d="m 39.4776,-32.3514 c 0.571768,2.13387 2.76512,3.4002 4.89898,2.82843 2.13387,-0.571768 3.4002,-2.76512 2.82843,-4.89898 -0.571769,-2.13387 -2.76512,-3.40019 -4.89898,-2.82843 -2.13386,0.571767 -3.40019,2.76512 -2.82843,4.89898 z "/>
<path style="fill:#099" id="path3941" d="m 41.2679,-23.6603 c 0.552286,0.956585 1.77547,1.28434 2.73205,0.732051 0.956585,-0.552284 1.28433,-1.77547 0.732051,-2.73205 -0.552285,-0.956585 -1.77547,-1.28433 -2.73205,-0.732051 -0.956585,0.552285 -1.28433,1.77547 -0.732051,2.73205 z "/>
<path style="fill:#03c" id="path3973" d="m 19.0192,-25.8038 c 2.86976,1.65686 6.5393,0.673604 8.19615,-2.19615 1.65685,-2.86976 0.673603,-6.5393 -2.19615,-8.19615 -2.86976,-1.65686 -6.5393,-0.673604 -8.19615,2.19615 -1.65686,2.86976 -0.673604,6.5393 2.19615,8.19615 z "/>
<path style="fill:#0066b2" id="path3971" d="m 32.4436,-25.8995 c 1.5621,1.5621 4.09476,1.5621 5.65686,1e-06 1.5621,-1.5621 1.5621,-4.09476 2e-06,-5.65686 -1.5621,-1.5621 -4.09476,-1.5621 -5.65686,1e-06 -1.5621,1.5621 -1.5621,4.09476 -1e-06,5.65685 z "/>
<path style="fill:#03c" id="path3943" d="m 38.3397,-19.2679 c 0.956586,0.552284 2.17977,0.224535 2.73205,-0.732051 0.552285,-0.956584 0.224534,-2.17977 -0.732051,-2.73205 -0.956585,-0.552284 -2.17977,-0.224534 -2.73205,0.732051 -0.552284,0.956585 -0.224534,2.17977 0.732051,2.73205 z "/>
<path style="fill:#609" id="path3967" d="m 18,-10 c 3.31371,1e-06 6,-2.68629 6,-6 -1e-06,-3.31371 -2.68629,-6 -6,-6 -3.31371,0 -6,2.68629 -6,6 -1e-06,3.31371 2.68629,6 6,6 z "/>
<path style="fill:#309" id="path3965" d="m 29.5781,-16.795 c 2.13386,0.571767 4.32721,-0.694563 4.89898,-2.82843 0.571767,-2.13387 -0.694563,-4.32721 -2.82843,-4.89898 -2.13387,-0.571765 -4.32721,0.694566 -4.89898,2.82843 -0.571767,2.13386 0.694562,4.32721 2.82843,4.89898 z "/>
<path style="fill:#609" id="path3945" d="m 38,-14 c 1.10457,-1e-06 2,-0.89543 2,-2 1e-06,-1.10457 -0.895431,-2 -2,-2 -1.10457,0 -2,0.895431 -2,2 0,1.10457 0.895431,2 2,2 z "/>
<g id="g4434">
<path style="fill:url(#linearGradient4059-2)" id="path3949" d="m 78,48 c -3.31371,0 -6,2.68629 -6,6 0,3.31371 2.68629,6 6,6 3.31371,0 6,-2.68629 6,-6 0,-3.31371 -2.68629,-6 -6,-6 z  m -12,2 c -2.20914,0 -4,1.79086 -4,4 0,2.20914 1.79086,4 4,4 2.20914,0 4,-1.79086 4,-4 0,-2.20914 -1.79086,-4 -4,-4 z  m -8,2 c -1.10457,0 -2,0.89543 -2,2 0,1.10457 0.895431,2 2,2 1.10457,0 2,-0.89543 2,-2 0,-1.10457 -0.895431,-2 -2,-2 z "/>
<path style="fill:url(#linearGradient4051-9)" id="path3951" d="m 70.9808,33.8038 c -2.86976,1.65685 -3.85301,5.32639 -2.19615,8.19615 1.65685,2.86976 5.3264,3.85301 8.19615,2.19615 2.86976,-1.65685 3.85301,-5.32639 2.19615,-8.19615 -1.65685,-2.86976 -5.3264,-3.85301 -8.19615,-2.19615 z  m -9.3923,7.7321 c -1.91317,1.10457 -2.56867,3.55093 -1.4641,5.4641 1.10457,1.91317 3.55093,2.56867 5.4641,1.4641 1.91317,-1.10457 2.56867,-3.55093 1.4641,-5.4641 -1.10457,-1.91317 -3.55093,-2.56867 -5.4641,-1.4641 z  m -5.9282,5.7321 c -0.956585,0.55228 -1.28434,1.77546 -0.732051,2.73205 0.552285,0.95659 1.77547,1.28434 2.73205,0.73205 0.956585,-0.55228 1.28433,-1.77546 0.732051,-2.73205 -0.552285,-0.95659 -1.77547,-1.28433 -2.73205,-0.73205 z "/>
<path style="fill:url(#linearGradient4043-7)" id="path3953" d="m 57.8038,25.0192 c -1.65686,2.86975 -0.673604,6.5393 2.19615,8.19615 2.86976,1.65685 6.5393,0.6736 8.19615,-2.19615 1.65686,-2.86976 0.673604,-6.5393 -2.19615,-8.19615 -2.86976,-1.65686 -6.5393,-0.67361 -8.19615,2.19615 z  m -4.2679,11.3923 c -1.10457,1.91317 -0.449068,4.35953 1.4641,5.4641 1.91317,1.10457 4.35953,0.44907 5.4641,-1.4641 1.10457,-1.91317 0.449068,-4.35953 -1.4641,-5.4641 -1.91317,-1.10457 -4.35953,-0.44907 -5.4641,1.4641 z  m -2.2679,7.9282 c -0.552284,0.95658 -0.224534,2.17976 0.732051,2.73205 0.956585,0.55228 2.17977,0.22453 2.73205,-0.73205 0.552284,-0.95659 0.224534,-2.17977 -0.732051,-2.73205 -0.956585,-0.55229 -2.17977,-0.22454 -2.73205,0.73205 z "/>
<path style="fill:url(#linearGradient4035-4)" id="path3955" d="m 42,24 c -1e-06,3.31371 2.68629,6 6,6 3.31371,0 6,-2.68629 6,-6 0,-3.31371 -2.68629,-6 -6,-6 -3.31371,0 -6,2.68629 -6,6 z  m 2,12 c 0,2.20914 1.79086,4 4,4 2.20914,0 4,-1.79086 4,-4 -1e-06,-2.20914 -1.79086,-4 -4,-4 -2.20914,0 -4,1.79086 -4,4 z  m 2,8 c 1e-06,1.10457 0.895431,2 2,2 1.10457,0 2,-0.89543 2,-2 0,-1.10457 -0.895431,-2 -2,-2 -1.10457,0 -2,0.89543 -2,2 z "/>
<path style="fill:url(#linearGradient4027-3)" id="path3957" d="m 27.8038,31.0192 c 1.65685,2.86975 5.32639,3.85301 8.19615,2.19615 2.86976,-1.65685 3.85301,-5.3264 2.19615,-8.19615 -1.65685,-2.86976 -5.3264,-3.85301 -8.19615,-2.19615 -2.86976,1.65685 -3.85301,5.32639 -2.19615,8.19615 z  m 7.732,9.3923 c 1.10457,1.91317 3.55093,2.56867 5.4641,1.4641 1.91317,-1.10457 2.56867,-3.55093 1.4641,-5.4641 -1.10457,-1.91317 -3.55093,-2.56867 -5.4641,-1.4641 -1.91317,1.10457 -2.56867,3.55093 -1.4641,5.4641 z  m 5.7321,5.9282 c 0.552286,0.95658 1.77547,1.28433 2.73205,0.73205 0.956585,-0.55229 1.28433,-1.77547 0.732051,-2.73205 -0.552285,-0.95659 -1.77547,-1.28434 -2.73205,-0.73205 -0.956585,0.55228 -1.28433,1.77546 -0.732051,2.73205 z "/>
<path style="fill:url(#linearGradient4019-7)" id="path3959" d="m 19.0192,44.1962 c 2.86976,1.65686 6.5393,0.67361 8.19615,-2.19615 1.65685,-2.86976 0.673603,-6.5393 -2.19615,-8.19615 -2.86976,-1.65686 -6.5393,-0.67361 -8.19615,2.19615 -1.65686,2.86976 -0.673604,6.5393 2.19615,8.19615 z  m 11.3923,4.2679 c 1.91317,1.10457 4.35953,0.44907 5.4641,-1.4641 1.10457,-1.91317 0.449068,-4.35953 -1.4641,-5.4641 -1.91317,-1.10457 -4.35953,-0.44907 -5.4641,1.4641 -1.10457,1.91317 -0.449069,4.35953 1.4641,5.4641 z  m 7.9282,2.2679 c 0.956586,0.55229 2.17977,0.22454 2.73205,-0.73205 0.552285,-0.95658 0.224534,-2.17977 -0.732051,-2.73205 -0.956585,-0.55228 -2.17977,-0.22454 -2.73205,0.73205 -0.552284,0.95659 -0.224534,2.17977 0.732051,2.73205 z "/>
<path style="fill:url(#linearGradient4121-7)" id="path3961" d="m 18,60 c 3.31371,0 6,-2.68629 6,-6 -1e-06,-3.31371 -2.68629,-6 -6,-6 -3.31371,0 -6,2.68629 -6,6 -1e-06,3.31371 2.68629,6 6,6 z  m 12,-2 c 2.20914,0 4,-1.79086 4,-4 -1e-06,-2.20914 -1.79086,-4 -4,-4 -2.20914,0 -4,1.79086 -4,4 0,2.20914 1.79086,4 4,4 z  m 8,-2 c 1.10457,0 2,-0.89543 2,-2 1e-06,-1.10457 -0.895431,-2 -2,-2 -1.10457,0 -2,0.89543 -2,2 0,1.10457 0.895431,2 2,2 z "/>
</g>
<g style="font-size:21.91880798px;fill:#4d4d4d;text-align:start;line-height:125%;font-family:DejaVu Sans">
<path id="path4444" d="m 41.5428,68.9852 -3.0061,7.952 6.0232,0 -3.0171,-7.952 m -1.2507,-2.1298 2.5124,0 6.2427,15.9789 -2.304,0 -1.4921,-4.0991 -7.3837,0 -1.4921,4.0991 -2.3369,0 6.2536,-15.9789"/>
<path id="path4446" d="m 58.2218,76.8087 c -1.59112,0 -2.69348,0.18194 -3.30709,0.54582 -0.613616,0.3639 -0.920422,0.98464 -0.920418,1.86225 -4e-06,0.69923 0.228317,1.25576 0.684963,1.66959 0.463772,0.4067 1.09165,0.61005 1.88365,0.61005 1.09165,0 1.96569,-0.38529 2.62212,-1.15588 0.663549,-0.77771 0.995327,-1.80872 0.995337,-3.09303 v -0.43881 h -1.95857 m 3.9278,-.8134 0,6.8389 -1.9693,0 0,-1.8194 c -0.449516,0.72778 -1.00961,1.26647 -1.6803,1.61609 -0.670699,0.34248 -1.49123,0.51372 -2.46158,0.51372 -1.22723,0 -2.20473,-0.34248 -2.9325,-1.02744 -0.72064,-0.6921 -1.08096,-1.61609 -1.08096,-2.77196 -1e-06,-1.34852 0.449505,-2.36526 1.34852,-3.05023 0.906145,-0.68495 2.25466,-1.02743 4.04556,-1.02744 h 2.76126 v -0.19265 c -1e-05,-0.90614 -0.299681,-1.60537 -0.899014,-2.0977 -0.592215,-0.49944 -1.42701,-0.74916 -2.5044,-0.74917 -0.684968,1e-05 -1.35209,0.0821 -2.00138,0.24615 -0.649291,0.16412 -1.27361,0.41028 -1.87295,0.73848 v -1.81943 c 0.720635,-0.27826 1.41987,-0.48517 2.0977,-0.62075 0.677823,-0.14269 1.33781,-0.21404 1.97997,-0.21405 1.7338,1e-05 3.02881,0.44952 3.88502,1.34852 0.856193,0.89902 1.28429,2.26181 1.28431,4.08837"/>
</g>
<g style="opacity:.3" id="g4369" transform="translate(100,-1)">
<path style="fill:url(#radialGradient4392-0)" id="path4155" d="m -22,48 c -3.31371,0 -6,2.68629 -6,6 0,3.31371 2.68629,6 6,6 3.31371,0 6,-2.68629 6,-6 0,-3.31371 -2.68629,-6 -6,-6 z "/>
<path style="fill:url(#radialGradient4394-6)" id="path4153" d="m -34,50 c -2.20914,0 -4,1.79086 -4,4 0,2.20914 1.79086,4 4,4 2.20914,0 4,-1.79086 4,-4 0,-2.20914 -1.79086,-4 -4,-4 z "/>
<path style="fill:url(#radialGradient4396-5)" id="path4123" d="m -42,52 c -1.10457,0 -2,0.89543 -2,2 0,1.10457 0.895431,2 2,2 1.10457,0 2,-0.89543 2,-2 0,-1.10457 -0.895431,-2 -2,-2 z "/>
<path style="fill:url(#radialGradient4398-1)" id="path4161" d="m -29.0192,33.8038 c -2.86976,1.65685 -3.85301,5.32639 -2.19615,8.19615 1.65685,2.86976 5.3264,3.85301 8.19615,2.19615 2.86976,-1.65685 3.85301,-5.32639 2.19615,-8.19615 -1.65686,-2.86976 -5.3264,-3.85301 -8.19615,-2.19615 z "/>
<path style="fill:url(#radialGradient4400-1)" id="path4159" d="m -38.4115,41.5359 c -1.91317,1.10457 -2.56867,3.55093 -1.4641,5.4641 1.10457,1.91317 3.55093,2.56867 5.4641,1.4641 1.91317,-1.10457 2.56867,-3.55093 1.4641,-5.4641 -1.10457,-1.91317 -3.55093,-2.56867 -5.4641,-1.4641 z "/>
<path style="fill:url(#radialGradient4402-1)" id="path4125" d="m -44.3397,47.2679 c -0.956585,0.55228 -1.28433,1.77546 -0.732051,2.73205 0.552285,0.95659 1.77547,1.28434 2.73205,0.73205 0.956585,-0.55228 1.28433,-1.77546 0.732051,-2.73205 -0.552285,-0.95659 -1.77547,-1.28433 -2.73205,-0.73205 z "/>
<path style="fill:url(#radialGradient4404-6)" id="path4167" d="m -42.1962,25.0192 c -1.65686,2.86975 -0.673604,6.5393 2.19615,8.19615 2.86976,1.65685 6.5393,0.6736 8.19615,-2.19615 1.65686,-2.86976 0.673604,-6.5393 -2.19615,-8.19615 -2.86976,-1.65686 -6.5393,-0.67361 -8.19615,2.19615 z "/>
<path style="fill:url(#radialGradient4406-0)" id="path4165" d="m -46.4641,36.4115 c -1.10457,1.91317 -0.449068,4.35953 1.4641,5.4641 1.91317,1.10457 4.35953,0.44907 5.4641,-1.4641 1.10457,-1.91317 0.449068,-4.35953 -1.4641,-5.4641 -1.91317,-1.10457 -4.35953,-0.44907 -5.4641,1.4641 z "/>
<path style="fill:url(#radialGradient4408-4)" id="path4127" d="m -48.7321,44.3398 c -0.552284,0.95658 -0.224534,2.17976 0.732051,2.73205 0.956585,0.55228 2.17977,0.22453 2.73205,-0.73205 0.552284,-0.95659 0.224534,-2.17977 -0.732051,-2.73205 -0.956585,-0.55229 -2.17977,-0.22454 -2.73205,0.73205 z "/>
<path style="fill:url(#radialGradient4410-4)" id="path4173" d="m -58,24 c -1e-06,3.31371 2.68629,6 6,6 3.31371,0 6,-2.68629 6,-6 0,-3.31371 -2.68629,-6 -6,-6 -3.31371,0 -6,2.68629 -6,6 z "/>
<path style="fill:url(#radialGradient4412-6)" id="path4171" d="m -56,36 c 0,2.20914 1.79086,4 4,4 2.20914,0 4,-1.79086 4,-4 -1e-06,-2.20914 -1.79086,-4 -4,-4 -2.20914,0 -4,1.79086 -4,4 z "/>
<path style="fill:url(#radialGradient4414-6)" id="path4129" d="m -54,44 c 1e-06,1.10457 0.895431,2 2,2 1.10457,0 2,-0.89543 2,-2 0,-1.10457 -0.895431,-2 -2,-2 -1.10457,0 -2,0.89543 -2,2 z "/>
<path style="fill:url(#radialGradient4416-1)" id="path4179" d="m -72.1962,31.0192 c 1.65685,2.86975 5.3264,3.85301 8.19615,2.19615 2.86976,-1.65685 3.85301,-5.3264 2.19615,-8.19615 -1.65685,-2.86976 -5.3264,-3.85301 -8.19615,-2.19615 -2.86976,1.65685 -3.85301,5.32639 -2.19615,8.19615 z "/>
<path style="fill:url(#radialGradient4418-0)" id="path4177" d="m -64.4641,40.4115 c 1.10457,1.91317 3.55093,2.56867 5.4641,1.4641 1.91317,-1.10457 2.56867,-3.55093 1.4641,-5.4641 -1.10457,-1.91317 -3.55093,-2.56867 -5.4641,-1.4641 -1.91317,1.10457 -2.56867,3.55093 -1.4641,5.4641 z "/>
<path style="fill:url(#radialGradient4420-9)" id="path4131" d="m -58.7321,46.3398 c 0.552286,0.95658 1.77547,1.28433 2.73205,0.73205 0.956585,-0.55229 1.28433,-1.77547 0.732051,-2.73205 -0.552285,-0.95659 -1.77547,-1.28434 -2.73205,-0.73205 -0.956585,0.55228 -1.28433,1.77546 -0.732051,2.73205 z "/>
<path style="fill:url(#radialGradient4422-0)" id="path4185" d="m -80.9808,44.1962 c 2.86975,1.65686 6.5393,0.67361 8.19615,-2.19615 1.65685,-2.86976 0.673603,-6.5393 -2.19615,-8.19615 -2.86976,-1.65686 -6.5393,-0.67361 -8.19615,2.19615 -1.65685,2.86976 -0.673604,6.5393 2.19615,8.19615 z "/>
<path style="fill:url(#radialGradient4424-9)" id="path4183" d="m -69.5885,48.4641 c 1.91317,1.10457 4.35953,0.44907 5.4641,-1.4641 1.10457,-1.91317 0.449068,-4.35953 -1.4641,-5.4641 -1.91317,-1.10457 -4.35953,-0.44907 -5.4641,1.4641 -1.10457,1.91317 -0.449069,4.35953 1.4641,5.4641 z "/>
<path style="fill:url(#radialGradient4426-2)" id="path4133" d="m -61.6603,50.7321 c 0.956586,0.55229 2.17977,0.22454 2.73205,-0.73205 0.552285,-0.95658 0.224534,-2.17977 -0.732051,-2.73205 -0.956585,-0.55228 -2.17977,-0.22454 -2.73205,0.73205 -0.552284,0.95659 -0.224534,2.17977 0.732051,2.73205 z "/>
<path style="fill:url(#radialGradient4428-4)" id="path4191" d="m -82,60 c 3.31371,0 6,-2.68629 6,-6 -1e-06,-3.31371 -2.68629,-6 -6,-6 -3.31371,0 -6,2.68629 -6,6 -1e-06,3.31371 2.68629,6 6,6 z "/>
<path style="fill:url(#radialGradient4430-0)" id="path4189" d="m -70,58 c 2.20914,0 4,-1.79086 4,-4 -1e-06,-2.20914 -1.79086,-4 -4,-4 -2.20914,0 -4,1.79086 -4,4 0,2.20914 1.79086,4 4,4 z "/>
<path style="fill:url(#radialGradient4432-8)" id="path4135" d="m -62,56 c 1.10457,0 2,-0.89543 2,-2 1e-06,-1.10457 -0.895431,-2 -2,-2 -1.10457,0 -2,0.89543 -2,2 0,1.10457 0.895431,2 2,2 z "/>
</g>
</g>
</g>
</svg>
