<svg width="96" version="1.0" xmlns="http://www.w3.org/2000/svg" height="96" xmlns:xlink="http://www.w3.org/1999/xlink">
<defs id="defs2410">
<clipPath id="clipPath3613">
<rect width="84" x="6" y="6" rx="6" height="84" ry="6" style="fill:#fff;stroke:none" id="rect3615"/>
</clipPath>
<filter style="color-interpolation-filters:sRGB" id="filter3810-9">
<feGaussianBlur stdDeviation="0.42" id="feGaussianBlur3812-0"/>
</filter>
<filter style="color-interpolation-filters:sRGB" id="filter3174">
<feGaussianBlur stdDeviation="1.71" id="feGaussianBlur3176"/>
</filter>
<filter width="1.3839999" x="-0.192" y="-0.192" height="1.3839999" style="color-interpolation-filters:sRGB" id="filter3794">
<feGaussianBlur stdDeviation="5.28" id="feGaussianBlur3796"/>
</filter>
<linearGradient id="linearGradient3879-7">
<stop offset="0" style="stop-color:#002767" id="stop3881-4"/>
<stop offset="0.5" style="stop-color:#003180;stop-opacity:.364" id="stop3883-4"/>
<stop offset="1" style="stop-color:#002767;stop-opacity:0" id="stop3885-7"/>
</linearGradient>
<linearGradient id="linearGradient3958-7">
<stop offset="0" style="stop-color:#01a3f1" id="stop3960-0"/>
<stop offset="1" style="stop-color:#01a3f1;stop-opacity:0" id="stop3962-5"/>
</linearGradient>
<linearGradient gradientTransform="translate(4.4049615e-7,3)" id="linearGradient4116-8" xlink:href="#linearGradient3828-7" y1="10" x1="52" y2="8.0840635" x2="51.631207" gradientUnits="userSpaceOnUse"/>
<linearGradient id="linearGradient4124-1" xlink:href="#linearGradient3934-5" y1="70" x1="40" y2="62.967953" x2="41.884232" gradientUnits="userSpaceOnUse"/>
<linearGradient id="linearGradient3753" xlink:href="#linearGradient3737-9" y1="20.220806" x1="48" y2="138.66119" x2="48" gradientUnits="userSpaceOnUse"/>
<linearGradient id="linearGradient3828-7">
<stop offset="0" style="stop-color:#a2d7fb" id="stop3830-5"/>
<stop offset="1" style="stop-color:#a2d7fb;stop-opacity:0" id="stop3832-2"/>
</linearGradient>
<linearGradient id="linearGradient4126-6" xlink:href="#linearGradient3934-5" y1="69" x1="40" y2="64" x2="42" gradientUnits="userSpaceOnUse"/>
<linearGradient id="linearGradient3737-9">
<stop offset="0" style="stop-color:#fff" id="stop3739-2"/>
<stop offset="1" style="stop-color:#fff;stop-opacity:0" id="stop3741-1"/>
</linearGradient>
<linearGradient gradientTransform="translate(34,-2.0000001)" id="linearGradient4136-2" xlink:href="#linearGradient3894-7" y1="61" x1="31" y2="70" x2="36" gradientUnits="userSpaceOnUse"/>
<linearGradient id="linearGradient3934-5">
<stop offset="0" style="stop-color:#003d9e" id="stop3936-7"/>
<stop offset="1" style="stop-color:#003d9e;stop-opacity:0" id="stop3938-7"/>
</linearGradient>
<linearGradient gradientTransform="translate(34,-5.0000001)" id="linearGradient4134-5" xlink:href="#linearGradient3934-5" y1="69" x1="40" y2="64" x2="42" gradientUnits="userSpaceOnUse"/>
<linearGradient gradientTransform="translate(34,-5.0000001)" id="linearGradient4132-9" xlink:href="#linearGradient3934-5" y1="70" x1="40" y2="62.967953" x2="41.884232" gradientUnits="userSpaceOnUse"/>
<linearGradient gradientTransform="translate(4.4049615e-7,3)" id="linearGradient4114-8" xlink:href="#linearGradient3860-3" y1="37" x1="80" y2="37" x2="77" gradientUnits="userSpaceOnUse"/>
<linearGradient id="linearGradient3894-7">
<stop offset="0" style="stop-color:#93ddf7" id="stop3896-6"/>
<stop offset="1" style="stop-color:#93ddf7;stop-opacity:0" id="stop3898-4"/>
</linearGradient>
<linearGradient gradientTransform="translate(4.4049615e-7,3)" id="linearGradient4128-7" xlink:href="#linearGradient3894-7" y1="61" x1="31" y2="70" x2="36" gradientUnits="userSpaceOnUse"/>
<linearGradient id="linearGradient3860-3">
<stop offset="0" style="stop-color:#002767" id="stop3862-2"/>
<stop offset="0.5" style="stop-color:#003180;stop-opacity:.364" id="stop3868-2"/>
<stop offset="1" style="stop-color:#002767;stop-opacity:0" id="stop3864-9"/>
</linearGradient>
<linearGradient id="linearGradient3737-1">
<stop offset="0" style="stop-color:#fff" id="stop3739-9"/>
<stop offset="1" style="stop-color:#fff;stop-opacity:0" id="stop3741-3"/>
</linearGradient>
<linearGradient gradientTransform="matrix(1.0238095,0,0,1.0119048,-1.1428571,-98.071429)" id="linearGradient3772" xlink:href="#ButtonShadow-0" y1="6.1317081" x1="32.251034" y2="90.238609" x2="32.251034" gradientUnits="userSpaceOnUse"/>
<linearGradient gradientTransform="translate(0,-97)" id="linearGradient3721" xlink:href="#ButtonShadow-0" y1="6.1317081" x1="32.251034" y2="90.238609" x2="32.251034" gradientUnits="userSpaceOnUse"/>
<linearGradient gradientTransform="matrix(1.0238095,0,0,1.0119048,-1.1428571,-98.071429)" id="linearGradient3725" xlink:href="#ButtonShadow-0" y1="6.1317081" x1="32.251034" y2="90.238609" x2="32.251034" gradientUnits="userSpaceOnUse"/>
<linearGradient gradientTransform="matrix(1.0238095,0,0,1.0119048,-1.1428571,-98.071429)" id="linearGradient3780" xlink:href="#ButtonShadow-0" y1="6.1317081" x1="32.251034" y2="90.238609" x2="32.251034" gradientUnits="userSpaceOnUse"/>
<linearGradient gradientTransform="matrix(1.0058652,0,0,0.994169,100,0)" id="ButtonShadow-0" y1="92.539597" x1="45.447727" y2="7.0165396" x2="45.447727" gradientUnits="userSpaceOnUse">
<stop offset="0" id="stop3750-8"/>
<stop offset="1" style="stop-opacity:.588" id="stop3752-5"/>
</linearGradient>
<linearGradient gradientTransform="scale(1.0058652,0.994169)" id="ButtonShadow" y1="92.539597" x1="45.447727" y2="7.0165396" x2="45.447727" gradientUnits="userSpaceOnUse">
<stop offset="0" id="stop3750"/>
<stop offset="1" style="stop-opacity:.588" id="stop3752"/>
</linearGradient>
<linearGradient id="linearGradient3706" xlink:href="#linearGradient3700" y1="90" x1="48" y2="5.9877172" x2="48" gradientUnits="userSpaceOnUse"/>
<linearGradient id="linearGradient3700">
<stop offset="0" style="stop-color:#e6e6e6" id="stop3702"/>
<stop offset="1" style="stop-color:#f5f5f5" id="stop3704"/>
</linearGradient>
<linearGradient gradientTransform="matrix(1.0238095,0,0,1.0119048,-1.1428571,-98.071429)" id="linearGradient3760" xlink:href="#ButtonShadow-0" y1="6.1317081" x1="32.251034" y2="90.238609" x2="32.251034" gradientUnits="userSpaceOnUse"/>
<linearGradient id="linearGradient3923" xlink:href="#linearGradient3737-1" y1="6" x1="36.357143" y2="63.893143" x2="36.357143" gradientUnits="userSpaceOnUse"/>
<linearGradient id="linearGradient3798-0">
<stop offset="0" style="stop-color:#0a85ff" id="stop3800-3"/>
<stop offset="1" style="stop-color:#006ad3;stop-opacity:0" id="stop3802-0"/>
</linearGradient>
<linearGradient id="linearGradient3816-7">
<stop offset="0" style="stop-color:#51acff" id="stop3818-5"/>
<stop offset="0.5" style="stop-color:#6abaee;stop-opacity:.675" id="stop3824-1"/>
<stop offset="1" style="stop-color:#318fe4;stop-opacity:0" id="stop3820-9"/>
</linearGradient>
<linearGradient id="linearGradient3737-0">
<stop offset="0" style="stop-color:#fff" id="stop3739-6"/>
<stop offset="1" style="stop-color:#fff;stop-opacity:0" id="stop3741-0"/>
</linearGradient>
<radialGradient fx="61" fy="24.63372" cx="61" cy="24.63372" gradientTransform="matrix(1.2626263,-0.2104377,0.09520749,0.57124497,-18.365519,22.764811)" r="19.007999" id="radialGradient4110-3" xlink:href="#linearGradient3798-0" gradientUnits="userSpaceOnUse"/>
<radialGradient fx="40.284538" fy="39.106094" cx="40.284538" cy="39.106094" gradientTransform="matrix(3.3729562,-0.5317483,0.18746453,1.1891145,-71.604806,16.442362)" r="19" id="radialGradient4118-3" xlink:href="#linearGradient3816-7" gradientUnits="userSpaceOnUse"/>
<radialGradient fx="46" fy="50.608784" cx="46" cy="50.608784" gradientTransform="matrix(2.6666667,-6.9565204e-8,8.0000011e-7,30.666677,-76.666707,-1477.0032)" r="1.5" id="radialGradient4120-3" xlink:href="#linearGradient3879-7" gradientUnits="userSpaceOnUse"/>
<radialGradient fx="48" fy="90.171875" cx="48" cy="90.171875" gradientTransform="matrix(1.1573129,0,0,0.99590774,-7.551021,0.1971319)" r="42" id="radialGradient2886" xlink:href="#linearGradient3737-0" gradientUnits="userSpaceOnUse"/>
<radialGradient fx="41.752941" fy="36.95731" cx="41.752941" cy="36.95731" gradientTransform="matrix(3.3630994,-0.59089075,0.30096298,1.7129535,-109.78914,2.6805672)" r="19" id="radialGradient4112-0" xlink:href="#linearGradient3816-7" gradientUnits="userSpaceOnUse"/>
<radialGradient fx="39.768967" fy="69.843796" cx="39.768967" cy="69.843796" gradientTransform="matrix(1.1597853,-0.1400901,0.07244171,0.58349276,-11.414104,33.34065)" r="11" id="radialGradient4130-4" xlink:href="#linearGradient3958-7" gradientUnits="userSpaceOnUse"/>
<radialGradient fx="39.768967" fy="69.843796" cx="39.768967" cy="69.843796" gradientTransform="matrix(1.1597853,-0.1400901,0.07244171,0.58349276,-11.414104,33.34065)" r="11" id="radialGradient4122-3" xlink:href="#linearGradient3958-7" gradientUnits="userSpaceOnUse"/>
</defs>
<g style="display:none" id="layer2">
<rect width="86" x="5" y="7" rx="6" height="85" ry="6" style="opacity:.9;fill:url(#ButtonShadow);filter:url(#filter3174);stroke:none" id="rect3745"/>
</g>
<g style="stroke:none" id="layer6">
<path style="opacity:.08;fill:url(#linearGradient3760)" id="path3786" d="m 12,-95.0312 c -5.51109,0 -10.0312,4.52016 -10.0312,10.0312 v 71 c 0,5.51109 4.52016,10.0312 10.0312,10.0312 h 72 c 5.51109,0 10.0312,-4.52016 10.0312,-10.0312 v -71 c 0,-5.51109 -4.52016,-10.0312 -10.0312,-10.0312 h -72 z " transform="scale(1,-1)"/>
<path style="opacity:.1;fill:url(#linearGradient3780)" id="path3778" d="m 12,-94.0312 c -4.97163,0 -9.03125,4.05962 -9.03125,9.03125 v 71 c 0,4.97163 4.05962,9.03125 9.03125,9.03125 h 72 c 4.97163,0 9.03125,-4.05962 9.03125,-9.03125 v -71 c 0,-4.97163 -4.05962,-9.03125 -9.03125,-9.03125 h -72 z " transform="scale(1,-1)"/>
<path style="opacity:.2;fill:url(#linearGradient3772)" id="path3770" d="m 12,-93 c -4.40913,0 -8,3.59087 -8,8 v 71 c 0,4.40913 3.59087,8 8,8 h 72 c 4.40913,0 8,-3.59087 8,-8 v -71 c 0,-4.40913 -3.59087,-8 -8,-8 h -72 z " transform="scale(1,-1)"/>
<rect width="86" x="5" y="-92" rx="7" height="85" ry="7" style="opacity:.3;fill:url(#linearGradient3725)" id="rect3723" transform="scale(1,-1)"/>
<rect width="84" x="6" y="-91" rx="6" height="84" ry="6" style="opacity:.45;fill:url(#linearGradient3721)" id="rect3716" transform="scale(1,-1)"/>
</g>
<g id="layer1">
<g style="stroke:none">
<rect width="84" x="6" y="6" rx="6" height="84" ry="6" style="fill:url(#linearGradient3706)" id="rect2419"/>
<path style="opacity:.5;fill:url(#linearGradient3923)" id="rect3728" d="M 12,6 C 8.676,6 6,8.676 6,12 l 0,2 0,68 0,2 c 0,0.334721 0.04135,0.6507 0.09375,0.96875 0.0487,0.295596 0.09704,0.596915 0.1875,0.875 0.0099,0.03038 0.02089,0.0636 0.03125,0.09375 0.09886,0.287771 0.23488,0.547452 0.375,0.8125 0.144592,0.273507 0.315616,0.535615 0.5,0.78125 0.184384,0.245635 0.373776,0.473472 0.59375,0.6875 0.439947,0.428056 0.94291,0.814526 1.5,1.09375 0.278545,0.139612 0.573473,0.246947 0.875,0.34375 -0.256202,-0.100222 -0.486711,-0.236272 -0.71875,-0.375 -0.0074,-0.0044 -0.02387,0.0045 -0.03125,0 -0.03193,-0.0193 -0.06229,-0.04251 -0.09375,-0.0625 -0.120395,-0.0767 -0.231023,-0.163513 -0.34375,-0.25 -0.106173,-0.0808 -0.213281,-0.161112 -0.3125,-0.25 C 8.47832,88.557317 8.30879,88.373362 8.15625,88.1875 8.048671,88.057245 7.937856,87.922215 7.84375,87.78125 7.81866,87.74287 7.8053,87.69538 7.78125,87.65625 7.71649,87.553218 7.651022,87.451733 7.59375,87.34375 7.492742,87.149044 7.388075,86.928049 7.3125,86.71875 7.3045,86.69694 7.28891,86.6782 7.28125,86.65625 7.24942,86.5643 7.24545,86.469419 7.21875,86.375 7.188418,86.268382 7.148361,86.171969 7.125,86.0625 7.052121,85.720988 7,85.364295 7,85 L 7,83 7,15 7,13 C 7,10.218152 9.218152,8 12,8 l 2,0 68,0 2,0 c 2.781848,0 5,2.218152 5,5 l 0,2 0,68 0,2 c 0,0.364295 -0.05212,0.720988 -0.125,1.0625 -0.04415,0.206893 -0.08838,0.397658 -0.15625,0.59375 -0.0077,0.02195 -0.0233,0.04069 -0.03125,0.0625 -0.06274,0.173739 -0.138383,0.367449 -0.21875,0.53125 -0.04158,0.0828 -0.07904,0.169954 -0.125,0.25 -0.0546,0.09721 -0.126774,0.18835 -0.1875,0.28125 -0.09411,0.140965 -0.204921,0.275995 -0.3125,0.40625 -0.143174,0.17445 -0.303141,0.346998 -0.46875,0.5 -0.01117,0.0102 -0.01998,0.02115 -0.03125,0.03125 -0.138386,0.125556 -0.285091,0.234436 -0.4375,0.34375 -0.102571,0.07315 -0.204318,0.153364 -0.3125,0.21875 -0.0074,0.0045 -0.02384,-0.0044 -0.03125,0 -0.232039,0.138728 -0.462548,0.274778 -0.71875,0.375 0.301527,-0.0968 0.596455,-0.204138 0.875,-0.34375 0.55709,-0.279224 1.060053,-0.665694 1.5,-1.09375 0.219973,-0.214028 0.409366,-0.441865 0.59375,-0.6875 0.184384,-0.245635 0.355408,-0.507743 0.5,-0.78125 0.14012,-0.265048 0.276135,-0.524729 0.375,-0.8125 0.01041,-0.03078 0.02133,-0.06274 0.03125,-0.09375 0.09046,-0.278085 0.1388,-0.579404 0.1875,-0.875 C 89.95865,84.6507 90,84.334721 90,84 l 0,-2 0,-68 0,-2 C 90,8.676 87.324,6 84,6 L 12,6 z"/>
<path style="opacity:.4;fill:url(#radialGradient2886)" id="path3615" d="M 12,90 C 8.676,90 6,87.324 6,84 L 6,82 6,14 6,12 c 0,-0.334721 0.04135,-0.6507 0.09375,-0.96875 0.0487,-0.295596 0.09704,-0.596915 0.1875,-0.875 C 6.29113,10.12587 6.302142,10.09265 6.3125,10.0625 6.411365,9.774729 6.5473802,9.515048 6.6875,9.25 6.8320918,8.976493 7.0031161,8.714385 7.1875,8.46875 7.3718839,8.223115 7.5612765,7.995278 7.78125,7.78125 8.221197,7.353194 8.72416,6.966724 9.28125,6.6875 9.559795,6.547888 9.8547231,6.440553 10.15625,6.34375 9.9000482,6.443972 9.6695391,6.580022 9.4375,6.71875 c -0.00741,0.0044 -0.023866,-0.0045 -0.03125,0 -0.031933,0.0193 -0.062293,0.04251 -0.09375,0.0625 -0.120395,0.0767 -0.2310226,0.163513 -0.34375,0.25 -0.1061728,0.0808 -0.2132809,0.161112 -0.3125,0.25 C 8.4783201,7.442683 8.3087904,7.626638 8.15625,7.8125 8.0486711,7.942755 7.9378561,8.077785 7.84375,8.21875 7.818661,8.25713 7.805304,8.30462 7.78125,8.34375 7.716487,8.446782 7.6510225,8.548267 7.59375,8.65625 7.4927417,8.850956 7.3880752,9.071951 7.3125,9.28125 7.30454,9.30306 7.288911,9.3218 7.28125,9.34375 7.2494249,9.4357 7.2454455,9.530581 7.21875,9.625 7.1884177,9.731618 7.1483606,9.828031 7.125,9.9375 7.0521214,10.279012 7,10.635705 7,11 l 0,2 0,68 0,2 c 0,2.781848 2.2181517,5 5,5 l 2,0 68,0 2,0 c 2.781848,0 5,-2.218152 5,-5 l 0,-2 0,-68 0,-2 C 89,10.635705 88.94788,10.279012 88.875,9.9375 88.83085,9.730607 88.78662,9.539842 88.71875,9.34375 88.71105,9.3218 88.69545,9.30306 88.6875,9.28125 88.62476,9.107511 88.549117,8.913801 88.46875,8.75 88.42717,8.6672 88.38971,8.580046 88.34375,8.5 88.28915,8.40279 88.216976,8.31165 88.15625,8.21875 88.06214,8.077785 87.951329,7.942755 87.84375,7.8125 87.700576,7.63805 87.540609,7.465502 87.375,7.3125 87.36383,7.3023 87.35502,7.29135 87.34375,7.28125 87.205364,7.155694 87.058659,7.046814 86.90625,6.9375 86.803679,6.86435 86.701932,6.784136 86.59375,6.71875 c -0.0074,-0.0045 -0.02384,0.0044 -0.03125,0 -0.232039,-0.138728 -0.462548,-0.274778 -0.71875,-0.375 0.301527,0.0968 0.596455,0.204138 0.875,0.34375 0.55709,0.279224 1.060053,0.665694 1.5,1.09375 0.219973,0.214028 0.409366,0.441865 0.59375,0.6875 0.184384,0.245635 0.355408,0.507743 0.5,0.78125 0.14012,0.265048 0.276135,0.524729 0.375,0.8125 0.01041,0.03078 0.02133,0.06274 0.03125,0.09375 0.09046,0.278085 0.1388,0.579404 0.1875,0.875 C 89.95865,11.3493 90,11.665279 90,12 l 0,2 0,68 0,2 c 0,3.324 -2.676,6 -6,6 l -72,0 z"/>
<rect width="84" x="-94" y="6" rx="6" height="84" ry="6" style="fill:#f0f" id="rect3654"/>
</g>
<rect width="16" x="112" y="8" height="16" style="fill:#fff;stroke:#000;stroke-linecap:round;color:#000;stroke-width:.5;stroke-dashoffset:8.6" id="rect3797"/>
<text x="131.39261" y="11.969256" style="font-family:Liberation Sans;text-align:start;stroke:none;line-height:125%;font-size:4px" id="text3799" xml:space="preserve"><tspan x="131.39261" y="11.969256" id="tspan3801">Width: 2px</tspan><tspan x="131.39261" y="16.969257" id="tspan3803">Blur: 12</tspan><tspan x="131.39261" y="21.969257" id="tspan3807">Opacity: 60</tspan>
</text>
</g>
<g id="layer7">
<rect width="66" x="15" y="15" rx="12" height="66" ry="12" style="opacity:.5;fill:url(#linearGradient3753);filter:url(#filter3794);stroke:#fff;stroke-linecap:round;stroke-width:.5;clip-path:url(#clipPath3613)" id="rect3171"/>
</g>
<g id="layer3">
<g style="stroke:none">
<g style="fill:#666;font-family:BabelSans;text-align:start;line-height:125%;font-weight:bold;font-size:15.64537144px" id="text3731">
<path id="path3736" d="m 42.5136,78.0235 c -9e-06,-0.427634 -0.03652,-0.870919 -0.109518,-1.32986 -0.06259,-0.469354 -0.166893,-0.923069 -0.312907,-1.36115 -0.135602,-0.448492 -0.318131,-0.876131 -0.547588,-1.28292 -0.229474,-0.40677 -0.505875,-0.761398 -0.829205,-1.06388 -0.323345,-0.302467 -0.704048,-0.542362 -1.14211,-0.719687 -0.427646,-0.177303 -0.912652,-0.26596 -1.45502,-0.265972 -0.844854,1.2e-05 -1.55411,0.198186 -2.12777,0.594524 -0.563236,0.39636 -1.01174,0.897012 -1.3455,1.50196 -0.333769,0.604963 -0.573664,1.26728 -0.719687,1.98696 -0.135594,0.719694 -0.20339,1.40809 -0.20339,2.06519 0,0.63625 0.07823,1.29857 0.234681,1.98696 0.166883,0.688399 0.422424,1.31943 0.766623,1.89309 0.354626,0.573665 0.808342,1.04824 1.36115,1.42373 0.56323,0.365059 1.23598,0.547588 2.01825,0.547588 0.813554,0 1.50195,-0.187745 2.06519,-0.563233 0.563226,-0.385919 1.01694,-0.870925 1.36115,-1.45502 0.34419,-0.594522 0.594516,-1.2412 0.750978,-1.94003 0.156445,-0.698822 0.234672,-1.37157 0.234681,-2.01825 m -1.5332,.0156 c -7e-06,0.490226 -0.04694,1.00131 -0.140808,1.53325 -0.09388,0.531946 -0.250333,1.02217 -0.469361,1.47066 -0.219042,0.438072 -0.516304,0.803131 -0.891786,1.09518 -0.365065,0.281618 -0.823995,0.422426 -1.37679,0.422425 -0.531947,1e-06 -0.980447,-0.135592 -1.3455,-0.40678 -0.365062,-0.281615 -0.662323,-0.636243 -0.891786,-1.06388 -0.219038,-0.427637 -0.380706,-0.896998 -0.485007,-1.40808 -0.09387,-0.511078 -0.14081,-1.00651 -0.140808,-1.48631 -2e-06,-0.292041 0.01043,-0.604948 0.03129,-0.938722 0.02086,-0.344191 0.06258,-0.677959 0.125163,-1.0013 0.06258,-0.33376 0.151236,-0.646667 0.265971,-0.938722 0.11473,-0.302469 0.260754,-0.563225 0.438071,-0.782269 0.271183,-0.333758 0.568445,-0.594514 0.891786,-0.782268 0.333764,-0.187735 0.714467,-0.281607 1.14211,-0.281617 0.542367,1e-05 0.996083,0.146034 1.36115,0.438071 0.365052,0.292056 0.657099,0.667544 0.876141,1.12647 0.219028,0.448509 0.375481,0.943945 0.469361,1.48631 0.09387,0.531949 0.140801,1.03781 0.140808,1.5176"/>
<path id="path3738" d="m 52.2868,83.8123 0,-5.9765 -4.1147,.0156 0,1.4394 2.6128,0 0,2.1121 c -0.146031,0.156456 -0.312915,0.297264 -0.500652,0.422425 -0.187751,0.125165 -0.391141,0.234683 -0.610169,0.328553 -0.208612,0.09387 -0.427646,0.166886 -0.657106,0.219035 -0.219041,0.05215 -0.432861,0.07823 -0.64146,0.07823 -0.594529,2e-06 -1.08996,-0.130376 -1.48631,-0.391134 -0.396352,-0.271185 -0.714474,-0.620598 -0.954367,-1.04824 -0.229468,-0.427637 -0.396352,-0.907428 -0.500652,-1.43937 -0.09387,-0.531938 -0.14081,-1.06388 -0.140808,-1.59583 -2e-06,-0.531936 0.04693,-1.06388 0.140808,-1.59583 0.1043,-0.531935 0.271184,-1.01173 0.500652,-1.43937 0.239893,-0.438061 0.5528,-0.787474 0.938722,-1.04824 0.396346,-0.271176 0.891782,-0.406769 1.48631,-0.406779 0.375484,1e-05 0.693606,0.06259 0.954368,0.187744 0.27118,0.114743 0.500645,0.286841 0.688396,0.516297 0.198168,0.229475 0.359837,0.505876 0.485007,0.829205 0.135586,0.323346 0.250318,0.688404 0.344198,1.09518 l 1.3299,-.4537 c -0.114742,-0.542364 -0.271195,-1.0378 -0.469361,-1.48631 -0.187753,-0.448491 -0.438079,-0.83441 -0.750978,-1.15776 -0.302485,-0.323326 -0.667543,-0.568437 -1.09518,-0.735332 -0.427647,-0.177303 -0.928298,-0.26596 -1.50196,-0.265971 -0.855284,1.1e-05 -1.57497,0.187755 -2.15906,0.563233 -0.584096,0.365069 -1.05346,0.839645 -1.40808,1.42373 -0.354629,0.573672 -0.61017,1.22035 -0.766623,1.94003 -0.156454,0.719694 -0.234681,1.42895 -0.23468,2.12777 -1e-06,0.709262 0.08344,1.41852 0.250326,2.12777 0.166883,0.698829 0.438069,1.32986 0.813559,1.89309 0.375487,0.563234 0.860493,1.02217 1.45502,1.37679 0.594521,0.354629 1.31421,0.531943 2.15906,0.531943 0.427634,0 0.834413,-0.09909 1.22034,-0.297262 0.396342,-0.187744 0.771831,-0.385919 1.12647,-0.594524 v 0.704042 h 1.48631"/>
<path id="path3740" d="m 62.2791,83.8123 0,-5.9765 -4.1147,.0156 0,1.4394 2.6128,0 0,2.1121 c -0.146031,0.156456 -0.312915,0.297264 -0.500652,0.422425 -0.187751,0.125165 -0.391141,0.234683 -0.610169,0.328553 -0.208611,0.09387 -0.427646,0.166886 -0.657106,0.219035 -0.219041,0.05215 -0.432861,0.07823 -0.64146,0.07823 -0.594529,2e-06 -1.08996,-0.130376 -1.48631,-0.391134 -0.396353,-0.271185 -0.714475,-0.620598 -0.954368,-1.04824 -0.229468,-0.427637 -0.396352,-0.907428 -0.500652,-1.43937 -0.09387,-0.531938 -0.14081,-1.06388 -0.140808,-1.59583 -2e-06,-0.531936 0.04693,-1.06388 0.140808,-1.59583 0.1043,-0.531935 0.271184,-1.01173 0.500652,-1.43937 0.239893,-0.438061 0.5528,-0.787474 0.938722,-1.04824 0.396346,-0.271176 0.891782,-0.406769 1.48631,-0.406779 0.375484,1e-05 0.693606,0.06259 0.954368,0.187744 0.27118,0.114743 0.500645,0.286841 0.688396,0.516297 0.198168,0.229475 0.359837,0.505876 0.485007,0.829205 0.135586,0.323346 0.250318,0.688404 0.344198,1.09518 l 1.3299,-.4537 c -0.114742,-0.542364 -0.271195,-1.0378 -0.469361,-1.48631 -0.187753,-0.448491 -0.438079,-0.83441 -0.750978,-1.15776 -0.302485,-0.323326 -0.667543,-0.568437 -1.09518,-0.735332 -0.427647,-0.177303 -0.928298,-0.26596 -1.50196,-0.265971 -0.855284,1.1e-05 -1.57497,0.187755 -2.15906,0.563233 -0.584096,0.365069 -1.05346,0.839645 -1.40808,1.42373 -0.354629,0.573672 -0.61017,1.22035 -0.766623,1.94003 -0.156454,0.719694 -0.234681,1.42895 -0.23468,2.12777 -1e-06,0.709262 0.08344,1.41852 0.250326,2.12777 0.166883,0.698829 0.438069,1.32986 0.813559,1.89309 0.375487,0.563234 0.860493,1.02217 1.45502,1.37679 0.594521,0.354629 1.31421,0.531943 2.15906,0.531943 0.427634,0 0.834413,-0.09909 1.22034,-0.297262 0.396342,-0.187744 0.771831,-0.385919 1.12647,-0.594524 v 0.704042 h 1.48631"/>
</g>
<g style="fill:#005ef5">
<path style="opacity:.05" id="path4241" d="m 65.5938,11.0938 c -10.0235,1.77937 -20.0837,3.4678 -30.0938,5.3125 -1.97643,0.763306 -1.0321,3.24801 -1.25,4.86235 0,10.4834 0,20.9668 0,31.4502 -5.74359,-0.705556 -12.7164,3.9658 -11.7062,10.2778 1.44938,5.90589 9.1113,7.15019 13.9234,4.72677 4.08272,-1.64829 6.41232,-6.06759 5.97024,-10.3303 0,-8.58932 0,-17.1786 0,-25.768 5.65625,-1.02083 11.3125,-2.04167 16.9688,-3.0625 0,6.82292 0,13.6458 0,20.4688 -5.76107,-0.775148 -12.6738,4.00288 -11.706,10.2792 1.45093,5.90474 9.11142,7.14846 13.9233,4.7253 4.08272,-1.64829 6.41233,-6.06758 5.97024,-10.3303 -0.02094,-13.7026 0.04182,-27.4155 -0.03125,-41.1117 -0.186043,-0.909516 -1.05745,-1.55056 -1.96875,-1.5 z "/>
<path style="opacity:.12" id="path4237" d="m 66.5625,14.0625 -29.5938,5.1875 a 0.936466,0.936466 0 0,0 -0.78125,0.9375 v 35.5312 c -1.61563,-0.233816 -3.34454,-0.215979 -5.09375,0.34375 -2.35008,0.752004 -4.25001,2.12886 -5.4375,3.8125 -1.18749,1.68364 -1.65079,3.74504 -0.96875,5.65625 0.681739,1.91038 2.34228,3.2484 4.34375,3.90625 2.00147,0.657855 4.36681,0.690097 6.71875,-0.0625 3.8165,-1.22124 6.43731,-4.15219 6.625,-7.3125 a 0.936466,0.936466 0 0,0 0.125,-0.46875 v -28.7812 l 18.8438,-3.375 v 22.5938 c -1.61103,-0.241588 -3.33781,-0.249386 -5.09375,0.3125 -2.35202,0.752625 -4.25086,2.15249 -5.4375,3.84375 -1.18664,1.69126 -1.65111,3.74412 -0.96875,5.65625 0.681735,1.91038 2.34228,3.2484 4.34375,3.90625 2.00147,0.657855 4.36682,0.690097 6.71875,-0.0625 3.8165,-1.22124 6.43731,-4.15218 6.625,-7.3125 a 0.936466,0.936466 0 0,0 0.125,-0.46875 v -42.9062 a 0.936466,0.936466 0 0,0 -1.09375,-0.9375 z " transform="translate(-1,-2)"/>
<path style="opacity:.3" id="path4140" d="m 65.7123,13 -29.589,5.1781 0,36.5702 c -1.71563,-0.463185 -3.74447,-0.435619 -5.75599,0.208048 -4.34708,1.39102 -6.93734,5.09483 -5.80222,8.27569 1.13512,3.18085 5.56987,4.62732 9.91695,3.2363 3.71325,-1.1882 6.13103,-4.06923 6.05651,-6.86558 h 0.02312 v -29.589 l 20.7123,-3.6986 v 24.7346 c -1.71562,-0.463186 -3.74447,-0.43562 -5.75599,0.208048 -4.34708,1.39102 -6.93734,5.09483 -5.80222,8.27569 1.13511,3.18085 5.56987,4.62732 9.91695,3.2363 3.71325,-1.18821 6.13102,-4.06923 6.0565,-6.86558 h 0.0231 v -42.9041 z "/>
</g>
<g id="g4093" transform="matrix(0.73972603,0,0,0.73972603,6.534248,7.5616441)">
<path style="fill:#0046b5" id="path3011" d="m 80,6 -40,7 0,49.4375 c -2.31928,-0.626158 -5.06197,-0.588893 -7.78125,0.28125 -5.8766,1.88046 -9.37826,6.88746 -7.84375,11.1875 1.53451,4.30004 7.52964,6.25546 13.4062,4.375 5.01977,-1.60628 8.28824,-5.501 8.1875,-9.28125 h 0.03125 v -40 l 28,-5 v 33.4375 c -2.31928,-0.626158 -5.06197,-0.588893 -7.78125,0.28125 -5.87661,1.88046 -9.37826,6.88746 -7.84375,11.1875 1.53451,4.30004 7.52964,6.25546 13.4062,4.375 5.01977,-1.60628 8.28824,-5.501 8.1875,-9.28125 h 0.03125 v -58 z "/>
<path style="fill:url(#radialGradient4110-3);filter:url(#filter3810-9)" id="path3796" d="m 42,16 0,13 36,-7 0,-13 -36,7 z "/>
<path style="fill:url(#radialGradient4112-0)" id="path3814" d="m 79,8 -38,7 0,47.75 c 0.722607,0.272294 1.40263,0.590247 2,1 v -33.75 c 0,-4 0.417188,-5.50063 4,-7 10.8672,-4.54781 27,-2 32,-15 z "/>
<path style="fill:url(#linearGradient4114-8)" id="path3850" d="m 80,6 -3,.5312 0,63.7188 c 1.91654,-1.807 3.02757,-4.04268 2.96875,-6.25 h 0.03125 v -58 z "/>
<path style="fill:url(#linearGradient4116-8)" id="path3826" d="m 40,13 1,2 38,-7 1,-2 l -40,7 z "/>
<path style="fill:url(#radialGradient4118-3)" id="path3841" d="M 77.0625,23.4375 75,23.78125 75,57.75 c 0.722607,0.272294 1.402627,0.590247 2,1 L 77,25 c 0,-0.579491 0.03663,-1.080328 0.0625,-1.5625 z"/>
<path style="fill:url(#radialGradient4120-3)" id="path3870" d="m 46,29 -3,.5312 0,45.7188 c 1.91654,-1.807 3.02757,-4.04268 2.96875,-6.25 h 0.03125 v -40 z "/>
<g style="color:#000;stroke-width:1.5">
<path style="fill:url(#radialGradient4122-3)" id="path3906" d="m 51,65 a 11,8 0 1 1 -22,0 11,8 0 1 1 22,0 z" transform="matrix(0.9673215,-0.30953355,0.34730992,0.97323843,-26.26801,19.620844)"/>
<path style="opacity:.2;fill:url(#linearGradient4124-1)" id="path3927" d="m 36.5938,62 c -1.41362,0.01337 -2.90585,0.248636 -4.375,0.71875 -5.8766,1.88046 -9.37826,6.88746 -7.84375,11.1875 1.53451,4.30004 7.52964,6.25546 13.4062,4.375 5.87661,-1.88046 9.37826,-6.88746 7.84375,-11.1875 -1.15088,-3.22503 -4.7904,-5.13384 -9.03125,-5.09375 z  m .0938,1.8438 c 1.22559,-0.01097 2.34771,0.174813 3.34375,0.5 1.99208,0.650375 3.31235,1.82339 3.84375,3.3125 0.531403,1.48911 0.260889,3.18246 -0.90625,4.84375 -1.16714,1.66129 -3.22165,3.2022 -5.8125,4.03125 -2.59085,0.829048 -5.19542,0.775375 -7.1875,0.125 -1.99208,-0.650375 -3.31235,-1.82339 -3.84375,-3.3125 -0.531403,-1.48911 -0.260889,-3.18246 0.90625,-4.84375 1.16714,-1.66129 3.22164,-3.2022 5.8125,-4.03125 1.29543,-0.414524 2.61816,-0.614034 3.84375,-0.625 z "/>
<path style="opacity:.5;fill:url(#linearGradient4126-6)" id="path3920" d="m 36.5938,62 c -1.41362,0.01337 -2.90585,0.248636 -4.375,0.71875 -5.8766,1.88046 -9.37826,6.88746 -7.84375,11.1875 1.53451,4.30004 7.52964,6.25546 13.4062,4.375 5.87661,-1.88046 9.37826,-6.88746 7.84375,-11.1875 -1.15088,-3.22503 -4.7904,-5.13384 -9.03125,-5.09375 z  m .0312,1.0312 c 1.30815,-0.01099 2.56143,0.173812 3.65625,0.53125 2.18965,0.714875 3.76804,2.05536 4.40625,3.84375 0.638206,1.78839 0.220391,3.7677 -1.0625,5.59375 -1.28289,1.82605 -3.43931,3.4331 -6.1875,4.3125 -2.74819,0.879395 -5.5291,0.839875 -7.71875,0.125 -2.18965,-0.714875 -3.76804,-2.05536 -4.40625,-3.84375 -0.638206,-1.78839 -0.220391,-3.7677 1.0625,-5.59375 1.28289,-1.82605 3.43931,-3.4331 6.1875,-4.3125 1.3741,-0.439698 2.75435,-0.645258 4.0625,-0.65625 z "/>
<path style="fill:url(#linearGradient4128-7)" id="path3891" d="m 40,65 c 1.22087,2.47688 -1.44419,5.17137 -5.4072,7.12476 -3.96301,1.95339 -7.72326,2.42597 -8.94413,-0.05091 -1.22087,-2.47688 1.00208,-6.06833 4.96508,-8.02172 3.96301,-1.95339 8.16537,-1.52902 9.38624,0.947864 z "/>
<path style="fill:url(#radialGradient4130-4)" id="path3966" d="m 51,65 a 11,8 0 1 1 -22,0 11,8 0 1 1 22,0 z" transform="matrix(0.9673215,-0.30953355,0.34730992,0.97323843,7.7319904,14.620844)"/>
<path style="opacity:.2;fill:url(#linearGradient4132-9)" id="path3968" d="m 70.5938,57 c -1.41361,0.01337 -2.90585,0.248636 -4.375,0.71875 -5.87661,1.88046 -9.37826,6.88746 -7.84375,11.1875 1.53451,4.30004 7.52964,6.25546 13.4062,4.375 5.87661,-1.88046 9.37826,-6.88746 7.84375,-11.1875 -1.15088,-3.22503 -4.79041,-5.13384 -9.03125,-5.09375 z  m .0938,1.8438 c 1.22559,-0.01097 2.34771,0.174813 3.34375,0.5 1.99208,0.650375 3.31235,1.82339 3.84375,3.3125 0.531403,1.48911 0.260889,3.18246 -0.90625,4.84375 -1.16714,1.66129 -3.22164,3.2022 -5.8125,4.03125 -2.59086,0.829048 -5.19542,0.775375 -7.1875,0.125 -1.99208,-0.650375 -3.31235,-1.82339 -3.84375,-3.3125 -0.531403,-1.48911 -0.260889,-3.18246 0.90625,-4.84375 1.16714,-1.66129 3.22164,-3.2022 5.8125,-4.03125 1.29543,-0.414524 2.61816,-0.614034 3.84375,-0.625 z "/>
<path style="opacity:.5;fill:url(#linearGradient4134-5)" id="path3970" d="m 70.5938,57 c -1.41361,0.01337 -2.90585,0.248636 -4.375,0.71875 -5.87661,1.88046 -9.37826,6.88746 -7.84375,11.1875 1.53451,4.30004 7.52964,6.25546 13.4062,4.375 5.87661,-1.88046 9.37826,-6.88746 7.84375,-11.1875 -1.15088,-3.22503 -4.79041,-5.13384 -9.03125,-5.09375 z  m .0312,1.0312 c 1.30815,-0.01099 2.56143,0.173812 3.65625,0.53125 2.18965,0.714875 3.76804,2.05536 4.40625,3.84375 0.638206,1.78839 0.220391,3.7677 -1.0625,5.59375 -1.28289,1.82605 -3.43931,3.4331 -6.1875,4.3125 -2.74819,0.879395 -5.5291,0.839875 -7.71875,0.125 -2.18965,-0.714875 -3.76804,-2.05536 -4.40625,-3.84375 -0.638206,-1.78839 -0.220391,-3.7677 1.0625,-5.59375 1.28289,-1.82605 3.43931,-3.4331 6.1875,-4.3125 1.3741,-0.439698 2.75435,-0.645258 4.0625,-0.65625 z "/>
<path style="fill:url(#linearGradient4136-2)" id="path3972" d="m 74,60 c 1.22087,2.47688 -1.44419,5.17137 -5.4072,7.12476 -3.96301,1.95339 -7.72326,2.42597 -8.94413,-0.05091 -1.22087,-2.47688 1.00207,-6.06833 4.96508,-8.02172 3.96301,-1.95339 8.16537,-1.52902 9.38624,0.947864 z "/>
</g>
</g>
</g>
</g>
</svg>
