<svg width="96" version="1.0" xmlns="http://www.w3.org/2000/svg" height="96" xmlns:xlink="http://www.w3.org/1999/xlink">
<defs id="defs2410">
<clipPath id="clipPath3782">
<path style="fill:#f0f;stroke:none" id="path3784" d="m -98,6 c -3.324,0 -6,2.676 -6,6 v 72 c 0,3.324 2.676,6 6,6 h 72 c 3.324,0 6,-2.676 6,-6 v -72 c 0,-3.324 -2.676,-6 -6,-6 h -72 z  m 59.0625,12 c 0.601006,-0.0091 0.9375,0.03125 0.9375,0.03125 v 12.0625 c -12.0511,0.211756 -15,11.9688 -15,11.9688 h 9.0625 v 12.0625 h -14.0938 c -8.47659,26.1519 -27.9688,23.8125 -27.9688,23.8125 v -12.0625 c 0,0 12.3761,2.29831 18.6875,-20.75 6.90806,-25.2274 24.168,-27.0613 28.375,-27.125 z "/>
</clipPath>
<clipPath id="clipPath3613">
<rect width="84" x="6" y="6" rx="6" height="84" ry="6" style="fill:#fff;stroke:none" id="rect3615"/>
</clipPath>
<filter width="1.324" x="-0.162" y="-0.1296" height="1.2592" style="color-interpolation-filters:sRGB" id="filter3786">
<feGaussianBlur stdDeviation="3.24" id="feGaussianBlur3788"/>
</filter>
<filter style="color-interpolation-filters:sRGB" id="filter3174">
<feGaussianBlur stdDeviation="1.71" id="feGaussianBlur3176"/>
</filter>
<filter width="1.3839999" x="-0.192" y="-0.192" height="1.3839999" style="color-interpolation-filters:sRGB" id="filter3794">
<feGaussianBlur stdDeviation="5.28" id="feGaussianBlur3796"/>
</filter>
<linearGradient gradientTransform="translate(-4,0)" id="linearGradient3827" xlink:href="#linearGradient3821" y1="75.753494" x1="46.882267" y2="35.372066" x2="46.882267" gradientUnits="userSpaceOnUse"/>
<linearGradient gradientTransform="matrix(1.0238095,0,0,1.0119048,-1.1428571,-98.071429)" id="linearGradient3760" xlink:href="#ButtonShadow-0" y1="6.1317081" x1="32.251034" y2="90.238609" x2="32.251034" gradientUnits="userSpaceOnUse"/>
<linearGradient id="linearGradient3737-0">
<stop offset="0" style="stop-color:#fff" id="stop3739-6"/>
<stop offset="1" style="stop-color:#fff;stop-opacity:0" id="stop3741-0"/>
</linearGradient>
<linearGradient id="linearGradient3737-9">
<stop offset="0" style="stop-color:#fff" id="stop3739-2"/>
<stop offset="1" style="stop-color:#fff;stop-opacity:0" id="stop3741-1"/>
</linearGradient>
<linearGradient id="linearGradient4163" xlink:href="#linearGradient3737-9" y1="20.220806" x1="48" y2="138.66119" x2="48" gradientUnits="userSpaceOnUse"/>
<linearGradient gradientTransform="translate(0,-97)" id="linearGradient3721" xlink:href="#ButtonShadow-0" y1="6.1317081" x1="32.251034" y2="90.238609" x2="32.251034" gradientUnits="userSpaceOnUse"/>
<linearGradient id="linearGradient3700">
<stop offset="0" style="stop-color:#e6e6e6" id="stop3702"/>
<stop offset="1" style="stop-color:#f5f5f5" id="stop3704"/>
</linearGradient>
<linearGradient gradientTransform="matrix(1.0238095,0,0,1.0119048,-1.1428571,-98.071429)" id="linearGradient3725" xlink:href="#ButtonShadow-0" y1="6.1317081" x1="32.251034" y2="90.238609" x2="32.251034" gradientUnits="userSpaceOnUse"/>
<linearGradient id="linearGradient3737">
<stop offset="0" style="stop-color:#fff" id="stop3739"/>
<stop offset="1" style="stop-color:#fff;stop-opacity:0" id="stop3741"/>
</linearGradient>
<linearGradient id="linearGradient3821">
<stop offset="0" style="stop-color:#de6a07" id="stop3823"/>
<stop offset="1" style="stop-color:#f8a425" id="stop3825"/>
</linearGradient>
<linearGradient gradientTransform="scale(1.0058652,0.994169)" id="ButtonShadow" y1="92.539597" x1="45.447727" y2="7.0165396" x2="45.447727" gradientUnits="userSpaceOnUse">
<stop offset="0" id="stop3750"/>
<stop offset="1" style="stop-opacity:.588" id="stop3752"/>
</linearGradient>
<linearGradient id="linearGradient3706" xlink:href="#linearGradient3700" y1="90" x1="48" y2="5.9877172" x2="48" gradientUnits="userSpaceOnUse"/>
<linearGradient gradientTransform="matrix(1.0238095,0,0,1.0119048,-1.1428571,-98.071429)" id="linearGradient3772" xlink:href="#ButtonShadow-0" y1="6.1317081" x1="32.251034" y2="90.238609" x2="32.251034" gradientUnits="userSpaceOnUse"/>
<linearGradient gradientTransform="matrix(1.0238095,0,0,1.0119048,-1.1428571,-98.071429)" id="linearGradient3780" xlink:href="#ButtonShadow-0" y1="6.1317081" x1="32.251034" y2="90.238609" x2="32.251034" gradientUnits="userSpaceOnUse"/>
<linearGradient gradientTransform="matrix(1.0058652,0,0,0.994169,100,0)" id="ButtonShadow-0" y1="92.539597" x1="45.447727" y2="7.0165396" x2="45.447727" gradientUnits="userSpaceOnUse">
<stop offset="0" id="stop3750-8"/>
<stop offset="1" style="stop-opacity:.588" id="stop3752-5"/>
</linearGradient>
<linearGradient id="linearGradient3188" xlink:href="#linearGradient3737" y1="6" x1="36.357143" y2="63.893143" x2="36.357143" gradientUnits="userSpaceOnUse"/>
<radialGradient fx="48" fy="90.171875" cx="48" cy="90.171875" gradientTransform="matrix(1.1573129,0,0,0.99590774,-7.551021,0.1971319)" r="42" id="radialGradient2903" xlink:href="#linearGradient3737-0" gradientUnits="userSpaceOnUse"/>
</defs>
<g style="display:none" id="layer2">
<rect width="86" x="5" y="7" rx="6" height="85" ry="6" style="opacity:.9;fill:url(#ButtonShadow);filter:url(#filter3174);stroke:none" id="rect3745"/>
</g>
<g style="stroke:none" id="layer7">
<path style="opacity:.08;fill:url(#linearGradient3760)" id="path3786" d="m 12,-95.0312 c -5.51109,0 -10.0312,4.52016 -10.0312,10.0312 v 71 c 0,5.51109 4.52016,10.0312 10.0312,10.0312 h 72 c 5.51109,0 10.0312,-4.52016 10.0312,-10.0312 v -71 c 0,-5.51109 -4.52016,-10.0312 -10.0312,-10.0312 h -72 z " transform="scale(1,-1)"/>
<path style="opacity:.1;fill:url(#linearGradient3780)" id="path3778" d="m 12,-94.0312 c -4.97163,0 -9.03125,4.05962 -9.03125,9.03125 v 71 c 0,4.97163 4.05962,9.03125 9.03125,9.03125 h 72 c 4.97163,0 9.03125,-4.05962 9.03125,-9.03125 v -71 c 0,-4.97163 -4.05962,-9.03125 -9.03125,-9.03125 h -72 z " transform="scale(1,-1)"/>
<path style="opacity:.2;fill:url(#linearGradient3772)" id="path3770" d="m 12,-93 c -4.40913,0 -8,3.59087 -8,8 v 71 c 0,4.40913 3.59087,8 8,8 h 72 c 4.40913,0 8,-3.59087 8,-8 v -71 c 0,-4.40913 -3.59087,-8 -8,-8 h -72 z " transform="scale(1,-1)"/>
<rect width="86" x="5" y="-92" rx="7" height="85" ry="7" style="opacity:.3;fill:url(#linearGradient3725)" id="rect3723" transform="scale(1,-1)"/>
<rect width="84" x="6" y="-91" rx="6" height="84" ry="6" style="opacity:.45;fill:url(#linearGradient3721)" id="rect3716" transform="scale(1,-1)"/>
</g>
<g id="layer1">
<g style="stroke:none">
<rect width="84" x="6" y="6" rx="6" height="84" ry="6" style="fill:url(#linearGradient3706)" id="rect2419"/>
<path style="opacity:.5;fill:url(#linearGradient3188)" id="rect3728" d="m 12,6 c -3.324,0 -6,2.676 -6,6 v 2 68 2 c 0,0.334721 0.04135,0.6507 0.09375,0.96875 0.0487,0.295596 0.09704,0.596915 0.1875,0.875 0.00988,0.03038 0.020892,0.0636 0.03125,0.09375 0.098865,0.287771 0.23488,0.547452 0.375,0.8125 0.144592,0.273507 0.315616,0.535615 0.5,0.78125 0.184384,0.245635 0.373776,0.473472 0.59375,0.6875 0.439947,0.428056 0.94291,0.814526 1.5,1.09375 0.278545,0.139612 0.573473,0.246947 0.875,0.34375 -0.256202,-0.100222 -0.486711,-0.236272 -0.71875,-0.375 -0.00741,-0.0044 -0.023866,0.0045 -0.03125,0 -0.031933,-0.0193 -0.062293,-0.04251 -0.09375,-0.0625 -0.120395,-0.0767 -0.231023,-0.163513 -0.34375,-0.25 -0.106173,-0.0808 -0.213281,-0.161112 -0.3125,-0.25 -0.17793,-0.161433 -0.34746,-0.345388 -0.5,-0.53125 -0.107579,-0.130255 -0.218394,-0.265285 -0.3125,-0.40625 -0.025089,-0.03838 -0.038446,-0.08587 -0.0625,-0.125 -0.064763,-0.103032 -0.130228,-0.204517 -0.1875,-0.3125 -0.101008,-0.194706 -0.205675,-0.415701 -0.28125,-0.625 -0.00796,-0.02181 -0.023589,-0.04055 -0.03125,-0.0625 -0.0318251,-0.09195 -0.0358045,-0.186831 -0.0625,-0.28125 -0.0303323,-0.106618 -0.0703894,-0.203031 -0.09375,-0.3125 -0.0728786,-0.341512 -0.125,-0.698205 -0.125,-1.0625 v -2 -68 -2 c 0,-2.78185 2.21815,-5 5,-5 h 2 68 2 c 2.78185,0 5,2.21815 5,5 v 2 68 2 c 0,0.364295 -0.05212,0.720988 -0.125,1.0625 -0.04415,0.206893 -0.08838,0.397658 -0.15625,0.59375 -0.0077,0.02195 -0.0233,0.04069 -0.03125,0.0625 -0.06274,0.173739 -0.138383,0.367449 -0.21875,0.53125 -0.04158,0.0828 -0.07904,0.169954 -0.125,0.25 -0.0546,0.09721 -0.126774,0.18835 -0.1875,0.28125 -0.09411,0.140965 -0.204921,0.275995 -0.3125,0.40625 -0.143174,0.17445 -0.303141,0.346998 -0.46875,0.5 -0.01117,0.0102 -0.01998,0.02115 -0.03125,0.03125 -0.138386,0.125556 -0.285091,0.234436 -0.4375,0.34375 -0.102571,0.07315 -0.204318,0.153364 -0.3125,0.21875 -0.0074,0.0045 -0.02384,-0.0044 -0.03125,0 -0.232039,0.138728 -0.462548,0.274778 -0.71875,0.375 0.301527,-0.0968 0.596455,-0.204138 0.875,-0.34375 0.55709,-0.279224 1.06005,-0.665694 1.5,-1.09375 0.219973,-0.214028 0.409366,-0.441865 0.59375,-0.6875 0.184384,-0.245635 0.355408,-0.507743 0.5,-0.78125 0.14012,-0.265048 0.276135,-0.524729 0.375,-0.8125 0.01041,-0.03078 0.02133,-0.06274 0.03125,-0.09375 0.09046,-0.278085 0.1388,-0.579404 0.1875,-0.875 0.0524,-0.31805 0.09375,-0.634029 0.09375,-0.96875 v -2 -68 -2 c 0,-3.324 -2.676,-6 -6,-6 h -72 z "/>
<path style="opacity:.3;fill:url(#radialGradient2903)" id="path3615" d="M 12,90 C 8.676,90 6,87.324 6,84 L 6,82 6,14 6,12 c 0,-0.334721 0.04135,-0.6507 0.09375,-0.96875 0.0487,-0.295596 0.09704,-0.596915 0.1875,-0.875 C 6.29113,10.12587 6.302142,10.09265 6.3125,10.0625 6.411365,9.774729 6.5473802,9.515048 6.6875,9.25 6.8320918,8.976493 7.0031161,8.714385 7.1875,8.46875 7.3718839,8.223115 7.5612765,7.995278 7.78125,7.78125 8.221197,7.353194 8.72416,6.966724 9.28125,6.6875 9.559795,6.547888 9.8547231,6.440553 10.15625,6.34375 9.9000482,6.443972 9.6695391,6.580022 9.4375,6.71875 c -0.00741,0.0044 -0.023866,-0.0045 -0.03125,0 -0.031933,0.0193 -0.062293,0.04251 -0.09375,0.0625 -0.120395,0.0767 -0.2310226,0.163513 -0.34375,0.25 -0.1061728,0.0808 -0.2132809,0.161112 -0.3125,0.25 C 8.4783201,7.442683 8.3087904,7.626638 8.15625,7.8125 8.0486711,7.942755 7.9378561,8.077785 7.84375,8.21875 7.818661,8.25713 7.805304,8.30462 7.78125,8.34375 7.716487,8.446782 7.6510225,8.548267 7.59375,8.65625 7.4927417,8.850956 7.3880752,9.071951 7.3125,9.28125 7.30454,9.30306 7.288911,9.3218 7.28125,9.34375 7.2494249,9.4357 7.2454455,9.530581 7.21875,9.625 7.1884177,9.731618 7.1483606,9.828031 7.125,9.9375 7.0521214,10.279012 7,10.635705 7,11 l 0,2 0,68 0,2 c 0,2.781848 2.2181517,5 5,5 l 2,0 68,0 2,0 c 2.781848,0 5,-2.218152 5,-5 l 0,-2 0,-68 0,-2 C 89,10.635705 88.94788,10.279012 88.875,9.9375 88.83085,9.730607 88.78662,9.539842 88.71875,9.34375 88.71105,9.3218 88.69545,9.30306 88.6875,9.28125 88.62476,9.107511 88.549117,8.913801 88.46875,8.75 88.42717,8.6672 88.38971,8.580046 88.34375,8.5 88.28915,8.40279 88.216976,8.31165 88.15625,8.21875 88.06214,8.077785 87.951329,7.942755 87.84375,7.8125 87.700576,7.63805 87.540609,7.465502 87.375,7.3125 87.36383,7.3023 87.35502,7.29135 87.34375,7.28125 87.205364,7.155694 87.058659,7.046814 86.90625,6.9375 86.803679,6.86435 86.701932,6.784136 86.59375,6.71875 c -0.0074,-0.0045 -0.02384,0.0044 -0.03125,0 -0.232039,-0.138728 -0.462548,-0.274778 -0.71875,-0.375 0.301527,0.0968 0.596455,0.204138 0.875,0.34375 0.55709,0.279224 1.060053,0.665694 1.5,1.09375 0.219973,0.214028 0.409366,0.441865 0.59375,0.6875 0.184384,0.245635 0.355408,0.507743 0.5,0.78125 0.14012,0.265048 0.276135,0.524729 0.375,0.8125 0.01041,0.03078 0.02133,0.06274 0.03125,0.09375 0.09046,0.278085 0.1388,0.579404 0.1875,0.875 C 89.95865,11.3493 90,11.665279 90,12 l 0,2 0,68 0,2 c 0,3.324 -2.676,6 -6,6 l -72,0 z"/>
</g>
<path style="opacity:.6;fill:none;filter:url(#filter3786);stroke:#fff;stroke-width:2;clip-path:url(#clipPath3782)" id="path3774" d="m -38,18.0198 0,12.0701 c -12.0511,0.211756 -15.0128,11.9642 -15.0128,11.9642 h 9.08936 v 12.0701 h -14.0936 c -8.47659,26.1519 -27.983,23.8226 -27.983,23.8226 v -12.0701 c 0,0 12.378,2.29621 18.6894,-20.7521 7.89493,-28.8313 29.3106,-27.1048 29.3106,-27.1048 z " transform="translate(110,0)"/>
<rect width="84" x="-104" y="6" rx="6" height="84" ry="6" style="fill:#f0f;stroke:none" id="rect3768"/>
</g>
<g id="layer3">
<rect width="66" x="15" y="15" rx="12" height="66" ry="12" style="opacity:.5;fill:url(#linearGradient4163);filter:url(#filter3794);stroke:#fff;stroke-linecap:round;stroke-width:.5;clip-path:url(#clipPath3613)" id="rect3171"/>
</g>
<g style="stroke:none" id="layer4">
<path style="opacity:.5;fill:#999" id="rect3362" d="M 12,12 12,29.9375 20.09375,12 12,12 z M 21.90625,12 30,29.9375 30,12 21.90625,12 z M 21,19.03125 l -3.03125,7 2.928571,0 1.71875,3.96875 3.227679,0 -2.375,-5.28125 -0.0625,-0.125 L 21,19.03125 z"/>
<g style="text-align:start;font-family:Droid Sans;line-height:125%;font-size:55.46882629px">
<path style="fill:url(#linearGradient3827);font-weight:bold" id="path3799" d="M 34.875,36 22,76 l 8.46875,0 2.75,-9.46875 13.65625,0 2.6875,9.46875 8.5,0 L 45.125,36 34.875,36 z M 66,36.03125 c -0.59444,4.2e-5 -1.176774,0.06115 -1.71875,0.1875 -0.524506,0.126436 -0.97289,0.362529 -1.375,0.6875 -0.384638,0.306997 -0.710221,0.726409 -0.9375,1.25 -0.227286,0.505615 -0.312504,1.16112 -0.3125,1.9375 -4e-6,0.7584 0.08521,1.382655 0.3125,1.90625 0.227279,0.523667 0.552862,0.956272 0.9375,1.28125 0.40211,0.306991 0.850494,0.511835 1.375,0.65625 0.541976,0.126431 1.12431,0.218784 1.71875,0.21875 0.594424,3.4e-5 1.131742,-0.09232 1.65625,-0.21875 0.524489,-0.144415 0.990357,-0.349259 1.375,-0.65625 C 69.433354,42.956272 69.772705,42.523667 70,42 c 0.244753,-0.523595 0.343737,-1.14785 0.34375,-1.90625 -1.3e-5,-0.77638 -0.099,-1.431885 -0.34375,-1.9375 -0.227295,-0.523591 -0.566646,-0.943003 -0.96875,-1.25 -0.384643,-0.324971 -0.850511,-0.561064 -1.375,-0.6875 C 67.131742,36.092399 66.594424,36.031292 66,36.03125 z m -25.96875,5.59375 4.875,17.8125 -9.65625,0 c 1.557914,-5.939686 3.614347,-11.772346 4.78125,-17.8125 z m 21.9375,6.40625 0,27.96875 8.03125,0 0,-27.96875 -8.03125,0 z"/>
<path style="opacity:.8;fill:#fff;font-weight:bold" id="path3816" d="m 61.6875,40.59375 c -0.01018,0.168949 -0.03125,0.317283 -0.03125,0.5 -4e-6,0.7584 0.08521,1.382655 0.3125,1.90625 0.227279,0.523667 0.552862,0.956272 0.9375,1.28125 0.40211,0.306991 0.850494,0.511835 1.375,0.65625 0.541976,0.126431 1.12431,0.218784 1.71875,0.21875 0.594424,3.4e-5 1.131742,-0.09232 1.65625,-0.21875 0.524489,-0.144415 0.990357,-0.349259 1.375,-0.65625 C 69.433354,43.956272 69.772705,43.523667 70,43 c 0.244753,-0.523595 0.343737,-1.14785 0.34375,-1.90625 -3e-6,-0.182266 -0.01973,-0.331433 -0.03125,-0.5 C 70.274126,41.121064 70.185571,41.603012 70,42 c -0.227295,0.523667 -0.566646,0.956272 -0.96875,1.28125 -0.384643,0.306991 -0.850511,0.511835 -1.375,0.65625 -0.524508,0.12643 -1.061826,0.218784 -1.65625,0.21875 -0.59444,3.4e-5 -1.176774,-0.09232 -1.71875,-0.21875 -0.524506,-0.144415 -0.97289,-0.349259 -1.375,-0.65625 C 62.521612,42.956272 62.196029,42.523667 61.96875,42 61.796567,41.603352 61.721333,41.120489 61.6875,40.59375 z M 40.03125,41.625 c -0.07224,0.399671 -0.154876,0.861324 -0.28125,1.40625 -0.108356,0.544991 -0.243762,1.132412 -0.40625,1.75 -0.144466,0.599486 -0.306261,1.19491 -0.46875,1.8125 -0.162521,0.61765 -0.324318,1.205069 -0.46875,1.75 -0.144465,0.544987 -0.279874,1.019725 -0.40625,1.4375 -0.108353,0.417828 -0.19585,0.737706 -0.25,0.9375 l -2.5,8.71875 0.28125,0 2.21875,-7.71875 c 0.05415,-0.199794 0.141647,-0.519672 0.25,-0.9375 0.126376,-0.417775 0.261785,-0.892513 0.40625,-1.4375 0.144432,-0.544931 0.306229,-1.13235 0.46875,-1.75 0.162489,-0.61759 0.324284,-1.213014 0.46875,-1.8125 0.162488,-0.617588 0.297894,-1.205009 0.40625,-1.75 0.126374,-0.544926 0.20901,-1.006579 0.28125,-1.40625 0.09026,0.63582 0.252058,1.404268 0.46875,2.3125 0.216654,0.908297 0.452752,1.810515 0.6875,2.71875 0.252766,0.890129 0.470807,1.692751 0.6875,2.4375 0.216653,0.744803 0.391643,1.29805 0.5,1.625 l 2.25,7.71875 0.28125,0 -2.53125,-8.71875 c -0.108357,-0.32695 -0.283347,-0.880197 -0.5,-1.625 -0.216693,-0.744749 -0.434734,-1.547371 -0.6875,-2.4375 C 40.952752,45.748015 40.716654,44.845797 40.5,43.9375 40.283308,43.029268 40.12151,42.26082 40.03125,41.625 z M 33.21875,66.53125 30.46875,76 22.3125,76 22,77 l 8.46875,0 2.75,-9.46875 13.65625,0 2.6875,9.46875 8.5,0 -0.3125,-1 -8.1875,0 -2.6875,-9.46875 -13.65625,0 z m 28.75,9.46875 0,1 8.03125,0 0,-1 -8.03125,0 z"/>
<g style="fill:#803300">
<path style="opacity:.4;font-weight:bold" id="path3829" d="M 34.875,36 22,76 22.3125,76 34.875,37 45.125,37 57.75,76 58.0625,76 45.125,36 34.875,36 z M 66,36.03125 c -0.59444,4.2e-5 -1.176774,0.06115 -1.71875,0.1875 -0.524506,0.126436 -0.97289,0.362529 -1.375,0.6875 -0.384638,0.306997 -0.710221,0.726409 -0.9375,1.25 -0.227286,0.505615 -0.312504,1.16112 -0.3125,1.9375 -10e-7,0.183876 0.02042,0.331418 0.03125,0.5 0.03308,-0.548929 0.107455,-1.050879 0.28125,-1.4375 0.227279,-0.523591 0.552862,-0.943003 0.9375,-1.25 0.40211,-0.324971 0.850494,-0.561064 1.375,-0.6875 0.541976,-0.12635 1.12431,-0.187458 1.71875,-0.1875 0.594424,4.2e-5 1.131742,0.06115 1.65625,0.1875 0.524489,0.126436 0.990357,0.362529 1.375,0.6875 0.402104,0.306997 0.741455,0.726409 0.96875,1.25 0.187292,0.386915 0.274955,0.88804 0.3125,1.4375 0.01224,-0.16817 0.03125,-0.316616 0.03125,-0.5 -1.3e-5,-0.77638 -0.099,-1.431885 -0.34375,-1.9375 -0.227295,-0.523591 -0.566646,-0.943003 -0.96875,-1.25 -0.384643,-0.324971 -0.850511,-0.561064 -1.375,-0.6875 C 67.131742,36.092399 66.594424,36.031292 66,36.03125 z m -4.03125,12 0,1 8.03125,0 0,-1 -8.03125,0 z M 35.53125,59.4375 c -0.09067,0.333969 -0.19349,0.665408 -0.28125,1 l 9.65625,0 -0.28125,-1 -9.09375,0 z"/>
<path style="opacity:.3;font-weight:bold" id="path3838" d="m 34.875,36 -12.875,40 h 8.46875 l 2.75,-9.4688 h 13.6562 l 2.6875,9.4688 h 8.5 l -12.9375,-40 h -10.25 z  m 31.125,.0312 c -0.59444,4.2e-05 -1.17677,0.06115 -1.71875,0.1875 -0.524506,0.126436 -0.97289,0.362529 -1.375,0.6875 -0.384638,0.306997 -0.710221,0.726409 -0.9375,1.25 -0.227286,0.505615 -0.312504,1.16112 -0.3125,1.9375 -4e-06,0.7584 0.08521,1.38265 0.3125,1.90625 0.227279,0.523667 0.552862,0.956272 0.9375,1.28125 0.40211,0.306991 0.850494,0.511835 1.375,0.65625 0.541976,0.126431 1.12431,0.218784 1.71875,0.21875 0.594424,3.4e-05 1.13174,-0.09232 1.65625,-0.21875 0.524489,-0.144415 0.990357,-0.349259 1.375,-0.65625 0.402104,-0.324978 0.741455,-0.757583 0.96875,-1.28125 0.244753,-0.523595 0.343737,-1.14785 0.34375,-1.90625 -1.3e-05,-0.77638 -0.099,-1.43189 -0.34375,-1.9375 -0.227295,-0.523591 -0.566646,-0.943003 -0.96875,-1.25 -0.384643,-0.324971 -0.850511,-0.561064 -1.375,-0.6875 -0.524508,-0.126351 -1.06183,-0.187458 -1.65625,-0.1875 z  m -30.375,.9688 h 8.75 l 12.2812,38 h -6.34375 l -2.4688,-8.75 a 1.00677,1.00677 0 0,0 -0.96875,-0.71875 h -13.6562 a 1.00677,1.00677 0 0,0 -0.96875,0.71875 l -2.5312,8.75 h -6.3125 l 12.2188,-38 z  m 30.375,.0312 c 0.525476,3.7e-05 0.962078,0.04925 1.40625,0.15625 0.378962,0.09136 0.706593,0.278513 0.96875,0.5 a 1.00677,1.00677 0 0,0 0.03125,0.03125 c 0.26774,0.204413 0.496502,0.475759 0.65625,0.84375 a 1.00677,1.00677 0 0,0 0.03125,0.03125 c 0.14246,0.294301 0.249988,0.809177 0.25,1.5 -1.1e-05,0.670818 -0.09114,1.1289 -0.25,1.46875 a 1.00677,1.00677 0 0,0 -0.03125,0.03125 c -0.16221,0.373717 -0.378477,0.681756 -0.65625,0.90625 -0.239379,0.191053 -0.579395,0.349764 -1,0.46875 -0.0105,0.0025 -0.02078,-0.0025 -0.03125,0 -0.46901,0.111599 -0.895581,0.187527 -1.375,0.1875 -0.470029,2.7e-05 -0.964301,-0.08038 -1.4375,-0.1875 -0.415471,-0.114394 -0.721588,-0.262628 -1,-0.46875 -0.01022,-0.0086 -0.02111,-0.02236 -0.03125,-0.03125 -0.249715,-0.219049 -0.463454,-0.502787 -0.625,-0.875 -0.147509,-0.339807 -0.250004,-0.81701 -0.25,-1.5 -4e-06,-0.702713 0.08629,-1.23657 0.21875,-1.53125 a 1.00677,1.00677 0 0,0 0.03125,0 c 0.165641,-0.381594 0.373271,-0.674083 0.625,-0.875 0.295382,-0.238717 0.607583,-0.408831 0.96875,-0.5 0.0094,-0.0022 0.0218,0.0022 0.03125,0 0.44925,-0.102162 0.954084,-0.156214 1.46875,-0.15625 z  m -25.9688,3.5625 a 1.00677,1.00677 0 0,0 -0.1875,0.03125 1.00677,1.00677 0 0,0 -0.8125,0.8125 c -1.14802,5.94239 -3.17796,11.7565 -4.75,17.75 a 1.00677,1.00677 0 0,0 0.96875,1.25 h 9.65625 a 1.00677,1.00677 0 0,0 0.96875,-1.28125 l -4.875,-17.8125 a 1.00677,1.00677 0 0,0 -0.96875,-0.75 z  m 0,1.0312 4.875,17.8125 -9.6562,0 c 1.55791,-5.93969 3.61435,-11.7723 4.78125,-17.8125 z  m 21.9375,6.4062 0,27.9688 8.0312,0 0,-27.9688 -8.0312,0 z  m 1,1 6.0312,0 v 25.9688 h -6.03125 v -25.9688 z "/>
</g>
</g>
</g>
</svg>
