<svg width="96" version="1.0" xmlns="http://www.w3.org/2000/svg" height="96" xmlns:xlink="http://www.w3.org/1999/xlink">
<defs id="defs2410">
<clipPath id="clipPath3914">
<rect width="72" x="12" y="20" height="55.999996" style="opacity:.652;fill:#f00;stroke:none;color:#000" id="rect3916"/>
</clipPath>
<filter style="color-interpolation-filters:sRGB" id="filter3174">
<feGaussianBlur stdDeviation="1.71" id="feGaussianBlur3176"/>
</filter>
<linearGradient spreadMethod="reflect" id="linearGradient3938" xlink:href="#linearGradient3940" y1="48" x1="48" y2="72" x2="48" gradientUnits="userSpaceOnUse"/>
<linearGradient gradientTransform="matrix(1.0238095,0,0,1.0119048,-1.1428571,-98.071429)" id="linearGradient3725" xlink:href="#ButtonShadow-0" y1="6.1317081" x1="32.251034" y2="90.238609" x2="32.251034" gradientUnits="userSpaceOnUse"/>
<linearGradient gradientTransform="matrix(1.0238095,0,0,1.0119048,-1.1428571,-98.071429)" id="linearGradient3760" xlink:href="#ButtonShadow-0" y1="6.1317081" x1="32.251034" y2="90.238609" x2="32.251034" gradientUnits="userSpaceOnUse"/>
<linearGradient id="linearGradient3737-1">
<stop offset="0" style="stop-color:#fff" id="stop3739-9"/>
<stop offset="1" style="stop-color:#fff;stop-opacity:0" id="stop3741-3"/>
</linearGradient>
<linearGradient id="linearGradient3724" xlink:href="#linearGradient3718" y1="72" x1="32" y2="-16" x2="32" gradientUnits="userSpaceOnUse"/>
<linearGradient gradientTransform="matrix(1.0238095,0,0,1.0119048,-1.1428571,-98.071429)" id="linearGradient3772" xlink:href="#ButtonShadow-0" y1="6.1317081" x1="32.251034" y2="90.238609" x2="32.251034" gradientUnits="userSpaceOnUse"/>
<linearGradient id="linearGradient3982" xlink:href="#linearGradient3737" y1="56" x1="48" y2="0" x2="48" gradientUnits="userSpaceOnUse"/>
<linearGradient id="linearGradient3737-0">
<stop offset="0" style="stop-color:#fff" id="stop3739-6"/>
<stop offset="1" style="stop-color:#fff;stop-opacity:0" id="stop3741-0"/>
</linearGradient>
<linearGradient id="linearGradient3923" xlink:href="#linearGradient3737-1" y1="6" x1="36.357143" y2="63.893143" x2="36.357143" gradientUnits="userSpaceOnUse"/>
<linearGradient gradientTransform="translate(0,-97)" id="linearGradient3721" xlink:href="#ButtonShadow-0" y1="6.1317081" x1="32.251034" y2="90.238609" x2="32.251034" gradientUnits="userSpaceOnUse"/>
<linearGradient id="linearGradient3739">
<stop offset="0" style="stop-color:#5fbcd3" id="stop3742"/>
<stop offset="1" style="stop-color:#5fbcd3;stop-opacity:0" id="stop3745"/>
</linearGradient>
<linearGradient id="linearGradient3718">
<stop offset="0" id="stop3720"/>
<stop offset="1" style="stop-opacity:0" id="stop3722"/>
</linearGradient>
<linearGradient gradientTransform="matrix(1.0238095,0,0,1.0119048,-1.1428571,-98.071429)" id="linearGradient3780" xlink:href="#ButtonShadow-0" y1="6.1317081" x1="32.251034" y2="90.238609" x2="32.251034" gradientUnits="userSpaceOnUse"/>
<linearGradient id="linearGradient3940">
<stop offset="0" style="stop-color:#5184cf" id="stop3942"/>
<stop offset="1" style="stop-color:#123a76" id="stop3944"/>
</linearGradient>
<linearGradient id="linearGradient3928">
<stop offset="0" style="stop-color:#00ce99" id="stop3930"/>
<stop offset="1" style="stop-color:#00805f;stop-opacity:0" id="stop3932"/>
</linearGradient>
<linearGradient id="linearGradient3751">
<stop offset="0" style="stop-color:#80e5ff" id="stop3754"/>
<stop offset="0.5" style="stop-color:#80e5ff;stop-opacity:.403" id="stop3869"/>
<stop offset="1" style="stop-color:#80e5ff;stop-opacity:0" id="stop3756"/>
</linearGradient>
<linearGradient gradientTransform="matrix(1.0058652,0,0,0.994169,100,0)" id="ButtonShadow-0" y1="92.539597" x1="45.447727" y2="7.0165396" x2="45.447727" gradientUnits="userSpaceOnUse">
<stop offset="0" id="stop3750-8"/>
<stop offset="1" style="stop-opacity:.588" id="stop3752-5"/>
</linearGradient>
<linearGradient id="linearGradient3700">
<stop offset="0" style="stop-color:#e6e6e6" id="stop3702"/>
<stop offset="1" style="stop-color:#f5f5f5" id="stop3704"/>
</linearGradient>
<linearGradient id="linearGradient3706" xlink:href="#linearGradient3700" y1="90" x1="48" y2="5.9877172" x2="48" gradientUnits="userSpaceOnUse"/>
<linearGradient gradientTransform="scale(1.0058652,0.994169)" id="ButtonShadow" y1="92.539597" x1="45.447727" y2="7.0165396" x2="45.447727" gradientUnits="userSpaceOnUse">
<stop offset="0" id="stop3750"/>
<stop offset="1" style="stop-opacity:.588" id="stop3752"/>
</linearGradient>
<linearGradient id="linearGradient3737">
<stop offset="0" style="stop-color:#fff" id="stop3739"/>
<stop offset="1" style="stop-color:#fff;stop-opacity:0" id="stop3741"/>
</linearGradient>
<radialGradient fx="56" fy="24" cx="56" cy="24" r="16" id="radialGradient3934" xlink:href="#linearGradient3928" gradientUnits="userSpaceOnUse"/>
<radialGradient fx="60.562889" fy="49.720657" cx="60.562889" cy="49.720657" r="19.437111" id="radialGradient3758" xlink:href="#linearGradient3751" gradientUnits="userSpaceOnUse"/>
<radialGradient fx="48" fy="90.171875" cx="48" cy="90.171875" gradientTransform="matrix(1.1573129,0,0,0.99590774,-7.551021,0.1971319)" r="42" id="radialGradient2886" xlink:href="#linearGradient3737-0" gradientUnits="userSpaceOnUse"/>
<radialGradient fx="47.977352" fy="64.057671" cx="47.977352" cy="64.057671" r="24.022646" id="radialGradient3747" xlink:href="#linearGradient3739" gradientUnits="userSpaceOnUse"/>
<radialGradient fx="60.562889" fy="49.720657" cx="60.562889" cy="49.720657" r="19.437111" id="radialGradient3867" xlink:href="#linearGradient3751" gradientUnits="userSpaceOnUse"/>
</defs>
<g style="display:none" id="layer2">
<rect width="86" x="5" y="7" rx="6" height="85" ry="6" style="opacity:.9;fill:url(#ButtonShadow);filter:url(#filter3174);stroke:none" id="rect3745"/>
</g>
<g style="stroke:none" id="layer6">
<path style="opacity:.08;fill:url(#linearGradient3760)" id="path3786" d="m 12,-95.0312 c -5.51109,0 -10.0312,4.52016 -10.0312,10.0312 v 71 c 0,5.51109 4.52016,10.0312 10.0312,10.0312 h 72 c 5.51109,0 10.0312,-4.52016 10.0312,-10.0312 v -71 c 0,-5.51109 -4.52016,-10.0312 -10.0312,-10.0312 h -72 z " transform="scale(1,-1)"/>
<path style="opacity:.1;fill:url(#linearGradient3780)" id="path3778" d="m 12,-94.0312 c -4.97163,0 -9.03125,4.05962 -9.03125,9.03125 v 71 c 0,4.97163 4.05962,9.03125 9.03125,9.03125 h 72 c 4.97163,0 9.03125,-4.05962 9.03125,-9.03125 v -71 c 0,-4.97163 -4.05962,-9.03125 -9.03125,-9.03125 h -72 z " transform="scale(1,-1)"/>
<path style="opacity:.2;fill:url(#linearGradient3772)" id="path3770" d="m 12,-93 c -4.40913,0 -8,3.59087 -8,8 v 71 c 0,4.40913 3.59087,8 8,8 h 72 c 4.40913,0 8,-3.59087 8,-8 v -71 c 0,-4.40913 -3.59087,-8 -8,-8 h -72 z " transform="scale(1,-1)"/>
<rect width="86" x="5" y="-92" rx="7" height="85" ry="7" style="opacity:.3;fill:url(#linearGradient3725)" id="rect3723" transform="scale(1,-1)"/>
<rect width="84" x="6" y="-91" rx="6" height="84" ry="6" style="opacity:.45;fill:url(#linearGradient3721)" id="rect3716" transform="scale(1,-1)"/>
</g>
<g id="layer1">
<g style="stroke:none">
<rect width="84" x="6" y="6" rx="6" height="84" ry="6" style="fill:url(#linearGradient3706)" id="rect2419"/>
<path style="opacity:.5;fill:url(#linearGradient3923)" id="rect3728" d="M 12,6 C 8.676,6 6,8.676 6,12 l 0,2 0,68 0,2 c 0,0.334721 0.04135,0.6507 0.09375,0.96875 0.0487,0.295596 0.09704,0.596915 0.1875,0.875 0.0099,0.03038 0.02089,0.0636 0.03125,0.09375 0.09886,0.287771 0.23488,0.547452 0.375,0.8125 0.144592,0.273507 0.315616,0.535615 0.5,0.78125 0.184384,0.245635 0.373776,0.473472 0.59375,0.6875 0.439947,0.428056 0.94291,0.814526 1.5,1.09375 0.278545,0.139612 0.573473,0.246947 0.875,0.34375 -0.256202,-0.100222 -0.486711,-0.236272 -0.71875,-0.375 -0.0074,-0.0044 -0.02387,0.0045 -0.03125,0 -0.03193,-0.0193 -0.06229,-0.04251 -0.09375,-0.0625 -0.120395,-0.0767 -0.231023,-0.163513 -0.34375,-0.25 -0.106173,-0.0808 -0.213281,-0.161112 -0.3125,-0.25 C 8.47832,88.557317 8.30879,88.373362 8.15625,88.1875 8.048671,88.057245 7.937856,87.922215 7.84375,87.78125 7.81866,87.74287 7.8053,87.69538 7.78125,87.65625 7.71649,87.553218 7.651022,87.451733 7.59375,87.34375 7.492742,87.149044 7.388075,86.928049 7.3125,86.71875 7.3045,86.69694 7.28891,86.6782 7.28125,86.65625 7.24942,86.5643 7.24545,86.469419 7.21875,86.375 7.188418,86.268382 7.148361,86.171969 7.125,86.0625 7.052121,85.720988 7,85.364295 7,85 L 7,83 7,15 7,13 C 7,10.218152 9.218152,8 12,8 l 2,0 68,0 2,0 c 2.781848,0 5,2.218152 5,5 l 0,2 0,68 0,2 c 0,0.364295 -0.05212,0.720988 -0.125,1.0625 -0.04415,0.206893 -0.08838,0.397658 -0.15625,0.59375 -0.0077,0.02195 -0.0233,0.04069 -0.03125,0.0625 -0.06274,0.173739 -0.138383,0.367449 -0.21875,0.53125 -0.04158,0.0828 -0.07904,0.169954 -0.125,0.25 -0.0546,0.09721 -0.126774,0.18835 -0.1875,0.28125 -0.09411,0.140965 -0.204921,0.275995 -0.3125,0.40625 -0.143174,0.17445 -0.303141,0.346998 -0.46875,0.5 -0.01117,0.0102 -0.01998,0.02115 -0.03125,0.03125 -0.138386,0.125556 -0.285091,0.234436 -0.4375,0.34375 -0.102571,0.07315 -0.204318,0.153364 -0.3125,0.21875 -0.0074,0.0045 -0.02384,-0.0044 -0.03125,0 -0.232039,0.138728 -0.462548,0.274778 -0.71875,0.375 0.301527,-0.0968 0.596455,-0.204138 0.875,-0.34375 0.55709,-0.279224 1.060053,-0.665694 1.5,-1.09375 0.219973,-0.214028 0.409366,-0.441865 0.59375,-0.6875 0.184384,-0.245635 0.355408,-0.507743 0.5,-0.78125 0.14012,-0.265048 0.276135,-0.524729 0.375,-0.8125 0.01041,-0.03078 0.02133,-0.06274 0.03125,-0.09375 0.09046,-0.278085 0.1388,-0.579404 0.1875,-0.875 C 89.95865,84.6507 90,84.334721 90,84 l 0,-2 0,-68 0,-2 C 90,8.676 87.324,6 84,6 L 12,6 z"/>
<path style="opacity:.4;fill:url(#radialGradient2886)" id="path3615" d="M 12,90 C 8.676,90 6,87.324 6,84 L 6,82 6,14 6,12 c 0,-0.334721 0.04135,-0.6507 0.09375,-0.96875 0.0487,-0.295596 0.09704,-0.596915 0.1875,-0.875 C 6.29113,10.12587 6.302142,10.09265 6.3125,10.0625 6.411365,9.774729 6.5473802,9.515048 6.6875,9.25 6.8320918,8.976493 7.0031161,8.714385 7.1875,8.46875 7.3718839,8.223115 7.5612765,7.995278 7.78125,7.78125 8.221197,7.353194 8.72416,6.966724 9.28125,6.6875 9.559795,6.547888 9.8547231,6.440553 10.15625,6.34375 9.9000482,6.443972 9.6695391,6.580022 9.4375,6.71875 c -0.00741,0.0044 -0.023866,-0.0045 -0.03125,0 -0.031933,0.0193 -0.062293,0.04251 -0.09375,0.0625 -0.120395,0.0767 -0.2310226,0.163513 -0.34375,0.25 -0.1061728,0.0808 -0.2132809,0.161112 -0.3125,0.25 C 8.4783201,7.442683 8.3087904,7.626638 8.15625,7.8125 8.0486711,7.942755 7.9378561,8.077785 7.84375,8.21875 7.818661,8.25713 7.805304,8.30462 7.78125,8.34375 7.716487,8.446782 7.6510225,8.548267 7.59375,8.65625 7.4927417,8.850956 7.3880752,9.071951 7.3125,9.28125 7.30454,9.30306 7.288911,9.3218 7.28125,9.34375 7.2494249,9.4357 7.2454455,9.530581 7.21875,9.625 7.1884177,9.731618 7.1483606,9.828031 7.125,9.9375 7.0521214,10.279012 7,10.635705 7,11 l 0,2 0,68 0,2 c 0,2.781848 2.2181517,5 5,5 l 2,0 68,0 2,0 c 2.781848,0 5,-2.218152 5,-5 l 0,-2 0,-68 0,-2 C 89,10.635705 88.94788,10.279012 88.875,9.9375 88.83085,9.730607 88.78662,9.539842 88.71875,9.34375 88.71105,9.3218 88.69545,9.30306 88.6875,9.28125 88.62476,9.107511 88.549117,8.913801 88.46875,8.75 88.42717,8.6672 88.38971,8.580046 88.34375,8.5 88.28915,8.40279 88.216976,8.31165 88.15625,8.21875 88.06214,8.077785 87.951329,7.942755 87.84375,7.8125 87.700576,7.63805 87.540609,7.465502 87.375,7.3125 87.36383,7.3023 87.35502,7.29135 87.34375,7.28125 87.205364,7.155694 87.058659,7.046814 86.90625,6.9375 86.803679,6.86435 86.701932,6.784136 86.59375,6.71875 c -0.0074,-0.0045 -0.02384,0.0044 -0.03125,0 -0.232039,-0.138728 -0.462548,-0.274778 -0.71875,-0.375 0.301527,0.0968 0.596455,0.204138 0.875,0.34375 0.55709,0.279224 1.060053,0.665694 1.5,1.09375 0.219973,0.214028 0.409366,0.441865 0.59375,0.6875 0.184384,0.245635 0.355408,0.507743 0.5,0.78125 0.14012,0.265048 0.276135,0.524729 0.375,0.8125 0.01041,0.03078 0.02133,0.06274 0.03125,0.09375 0.09046,0.278085 0.1388,0.579404 0.1875,0.875 C 89.95865,11.3493 90,11.665279 90,12 l 0,2 0,68 0,2 c 0,3.324 -2.676,6 -6,6 l -72,0 z"/>
<rect width="84" x="-94" y="6" rx="6" height="84" ry="6" style="fill:#f0f" id="rect3654"/>
</g>
<rect width="16" x="112" y="8" height="16" style="fill:#fff;stroke:#000;stroke-linecap:round;color:#000;stroke-width:.5;stroke-dashoffset:8.6" id="rect3797"/>
<text x="131.39261" y="11.969256" style="font-family:Liberation Sans;text-align:start;stroke:none;line-height:125%;font-size:4px" id="text3799" xml:space="preserve"><tspan x="131.39261" y="11.969256" id="tspan3801">Width: 2px</tspan><tspan x="131.39261" y="16.969257" id="tspan3803">Blur: 12</tspan><tspan x="131.39261" y="21.969257" id="tspan3807">Opacity: 60</tspan>
</text>
</g>
<g id="layer3">
<rect width="72" x="-88" y="20" height="55.999996" style="opacity:.652;fill:#f00;stroke:none;color:#000" id="rect3727"/>
<g style="clip-path:url(#clipPath3914)" id="g3871">
<rect width="72" x="12" y="20" height="55.999996" style="fill:url(#linearGradient3938);stroke:none;color:#000" id="rect3966"/>
<path style="opacity:.5;fill:url(#radialGradient3934);stroke:none;color:#000" id="path3918" d="m 72,24 a 16,16 0 1 1 -32,0 16,16 0 1 1 32,0 z" transform="matrix(2.75,0,0,2.75,-126,-40)"/>
<path style="opacity:.697;fill:url(#radialGradient3867);stroke:none;color:#000" id="path3865" d="m 80,49.7207 a 19.4371,19.4371 0 1,1 -38.8742,0 19.4371,19.4371 0 1,1 38.8742,0 z " transform="matrix(0.92606356,0,0,0.92606356,20.477805,-0.04448889)"/>
<path style="fill:url(#radialGradient3747);stroke:none;color:#000" id="path3737" d="m 72,64.0577 a 24.0226,24.0226 0 1,1 -48.0453,0 24.0226,24.0226 0 1,1 48.0453,0 z " transform="translate(-23.999998,-16.057671)"/>
<path style="opacity:.434;fill:url(#radialGradient3758);stroke:none;color:#000" id="path3749" d="m 80,49.7207 a 19.4371,19.4371 0 1,1 -38.8742,0 19.4371,19.4371 0 1,1 38.8742,0 z " transform="translate(-12.562889,-5.1577682)"/>
</g>
</g>
<g style="fill:#fff;stroke:none;color:#000" id="layer7">
<rect width="1" x="15" y="20" height="56" style="opacity:.3" id="rect2970"/>
<rect width="1" x="19" y="20" height="56" style="opacity:.3" id="rect2974"/>
<rect width="1" x="27" y="20" height="56" style="opacity:.3" id="rect2976"/>
<rect width="1" x="23" y="20" height="56" style="opacity:.3" id="rect2978"/>
<rect width="1" x="31" y="20" height="56" style="opacity:.3" id="rect2980"/>
<rect width="1" x="35" y="20" height="56" style="opacity:.3" id="rect2982"/>
<rect width="1" x="39" y="20" height="56" style="opacity:.3" id="rect2984"/>
<rect width="1" x="43" y="20" height="56" style="opacity:.3" id="rect2986"/>
<rect width="1" x="47" y="20" height="56" style="opacity:.3" id="rect2988"/>
<rect width="1" x="51" y="20" height="56" style="opacity:.3" id="rect2990"/>
<rect width="1" x="55" y="20" height="56" style="opacity:.3" id="rect2992"/>
<rect width="1" x="59" y="20" height="56" style="opacity:.3" id="rect2994"/>
<rect width="1" x="63" y="20" height="56" style="opacity:.3" id="rect2996"/>
<rect width="1" x="67" y="20" height="56" style="opacity:.3" id="rect2998"/>
<rect width="1" x="71" y="20" height="56" style="opacity:.3" id="rect3000"/>
<rect width="1" x="75" y="20" height="56" style="opacity:.3" id="rect3004"/>
<rect width="1" x="79" y="20" height="56" style="opacity:.3" id="rect3006"/>
<rect width="1" x="72" y="-84" height="72" style="opacity:.3" id="rect3780" transform="matrix(0,1,-1,0,0,0)"/>
<rect width="1" x="68" y="-84" height="72" style="opacity:.3" id="rect3782" transform="matrix(0,1,-1,0,0,0)"/>
<rect width="1" x="64" y="-84" height="72" style="opacity:.3" id="rect3784" transform="matrix(0,1,-1,0,0,0)"/>
<rect width="1" x="60" y="-84" height="72" style="opacity:.3" id="rect3786" transform="matrix(0,1,-1,0,0,0)"/>
<rect width="1" x="56" y="-84" height="72" style="opacity:.3" id="rect3788" transform="matrix(0,1,-1,0,0,0)"/>
<rect width="1" x="52" y="-84" height="72" style="opacity:.3" id="rect3790" transform="matrix(0,1,-1,0,0,0)"/>
<rect width="1" x="48" y="-84" height="72" style="opacity:.3" id="rect3792" transform="matrix(0,1,-1,0,0,0)"/>
<rect width="1" x="44" y="-84" height="72" style="opacity:.3" id="rect3794" transform="matrix(0,1,-1,0,0,0)"/>
<rect width="1" x="40" y="-84" height="72" style="opacity:.3" id="rect3796" transform="matrix(0,1,-1,0,0,0)"/>
<rect width="1" x="36" y="-84" height="72" style="opacity:.3" id="rect3798" transform="matrix(0,1,-1,0,0,0)"/>
<rect width="1" x="32" y="-84" height="72" style="opacity:.3" id="rect3800" transform="matrix(0,1,-1,0,0,0)"/>
<rect width="1" x="28" y="-84" height="72" style="opacity:.3" id="rect3802" transform="matrix(0,1,-1,0,0,0)"/>
<rect width="1" x="24" y="-84" height="72" style="opacity:.3" id="rect3804" transform="matrix(0,1,-1,0,0,0)"/>
</g>
<g style="color:#000;stroke:none" id="layer8">
<rect width="3" x="20" y="73" height="3" style="fill:#194280" id="rect3806"/>
<rect width="3" x="20" y="69" height="3" style="fill:#19447f" id="rect3808"/>
<rect width="3" x="20" y="65" height="3" style="fill:#2d6499" id="rect3810"/>
<rect width="3" x="20" y="61" height="3" style="fill:#3c7fab" id="rect3812"/>
<rect width="3" x="20" y="57" height="3" style="fill:#4996bc" id="rect3814"/>
<rect width="3" x="20" y="53" height="3" style="fill:#53a7c7" id="rect3816"/>
<rect width="3" x="20" y="49" height="3" style="fill:#66bad3" id="rect3818"/>
<rect width="3" x="20" y="45" height="3" style="fill:#76c3d8" id="rect3820"/>
<rect width="3" x="20" y="41" height="3" style="fill:#6ab9d0" id="rect3822"/>
<rect width="3" x="20" y="37" height="3" style="fill:#48a5bf" id="rect3824"/>
<rect width="3" x="20" y="33" height="3" style="fill:#3a9ab1" id="rect3826"/>
<rect width="3" x="20" y="29" height="3" style="fill:#298ea2" id="rect3828"/>
<rect width="3" x="20" y="25" height="3" style="fill:#17808f" id="rect3830"/>
<rect width="3" x="20" y="20" height="4" style="fill:#0d7583" id="rect3832"/>
<rect width="3" x="12" y="73" height="3" style="fill:#194280" id="rect3849"/>
<rect width="3" x="12" y="69" height="3" style="fill:#153d7a" id="rect3851"/>
<rect width="3" x="12" y="65" height="3" style="fill:#275691" id="rect3853"/>
<rect width="3" x="12" y="61" height="3" style="fill:#3673a5" id="rect3855"/>
<rect width="3" x="12" y="57" height="3" style="fill:#4287b4" id="rect3857"/>
<rect width="3" x="12" y="53" height="3" style="fill:#4b98bf" id="rect3859"/>
<rect width="3" x="12" y="49" height="3" style="fill:#50a3c7" id="rect3861"/>
<rect width="3" x="12" y="45" height="3" style="fill:#50a5c7" id="rect3863"/>
<rect width="3" x="12" y="41" height="3" style="fill:#49a0c0" id="rect3865"/>
<rect width="3" x="12" y="37" height="3" style="fill:#4097b6" id="rect3867"/>
<rect width="3" x="12" y="33" height="3" style="fill:#338aa8" id="rect3869"/>
<rect width="3" x="12" y="29" height="3" style="fill:#237b97" id="rect3871"/>
<rect width="3" x="12" y="25" height="3" style="fill:#136b84" id="rect3873"/>
<rect width="3" x="12" y="20" height="4" style="fill:#0e657e" id="rect3875"/>
<rect width="3" x="16" y="73" height="3" style="fill:#19427f" id="rect3877"/>
<rect width="3" x="16" y="69" height="3" style="fill:#16407d" id="rect3879"/>
<rect width="3" x="16" y="65" height="3" style="fill:#2a5f95" id="rect3881"/>
<rect width="3" x="16" y="61" height="3" style="fill:#397aa9" id="rect3883"/>
<rect width="3" x="16" y="57" height="3" style="fill:#4690b9" id="rect3885"/>
<rect width="3" x="16" y="53" height="3" style="fill:#4fa0c3" id="rect3887"/>
<rect width="3" x="16" y="49" height="3" style="fill:#9bcee0" id="rect3889"/>
<rect width="3" x="16" y="45" height="3" style="fill:#56aecc" id="rect3891"/>
<rect width="3" x="16" y="41" height="3" style="fill:#c2e1eb" id="rect3893"/>
<rect width="3" x="16" y="37" height="3" style="fill:#459fbb" id="rect3895"/>
<rect width="3" x="16" y="33" height="3" style="fill:#3794ae" id="rect3897"/>
<rect width="3" x="16" y="29" height="3" style="fill:#28879d" id="rect3899"/>
<rect width="3" x="16" y="25" height="3" style="fill:#15778a" id="rect3901"/>
<rect width="3" x="16" y="20" height="4" style="fill:#0d6d81" id="rect3903"/>
<rect width="3" x="24" y="73" height="3" style="fill:#194280" id="rect3905"/>
<rect width="3" x="24" y="69" height="3" style="fill:#19447f" id="rect3907"/>
<rect width="3" x="24" y="65" height="3" style="fill:#2e679a" id="rect3909"/>
<rect width="3" x="24" y="61" height="3" style="fill:#3d80ad" id="rect3911"/>
<rect width="3" x="24" y="57" height="3" style="fill:#4997bc" id="rect3913"/>
<rect width="3" x="24" y="53" height="3" style="fill:#53a9c8" id="rect3915"/>
<rect width="3" x="24" y="49" height="3" style="fill:#5eb6d0" id="rect3917"/>
<rect width="3" x="24" y="45" height="3" style="fill:#aedce8" id="rect3919"/>
<rect width="3" x="24" y="41" height="3" style="fill:#54b0ca" id="rect3921"/>
<rect width="3" x="24" y="37" height="3" style="fill:#48a6bf" id="rect3923"/>
<rect width="3" x="24" y="33" height="3" style="fill:#399bb1" id="rect3925"/>
<rect width="3" x="24" y="29" height="3" style="fill:#2992a2" id="rect3927"/>
<rect width="3" x="24" y="25" height="3" style="fill:#188a93" id="rect3929"/>
<rect width="3" x="24" y="20" height="4" style="fill:#0c7c86" id="rect3931"/>
<rect width="3" x="28" y="73" height="3" style="fill:#194380" id="rect3933"/>
<rect width="3" x="28" y="69" height="3" style="fill:#17417d" id="rect3935"/>
<rect width="3" x="28" y="65" height="3" style="fill:#2b6196" id="rect3937"/>
<rect width="3" x="28" y="61" height="3" style="fill:#3a7ba9" id="rect3939"/>
<rect width="3" x="28" y="57" height="3" style="fill:#4692b9" id="rect3941"/>
<rect width="3" x="28" y="53" height="3" style="fill:#50a3c4" id="rect3943"/>
<rect width="3" x="28" y="49" height="3" style="fill:#55aecb" id="rect3945"/>
<rect width="3" x="28" y="45" height="3" style="fill:#57b1cd" id="rect3947"/>
<rect width="3" x="28" y="41" height="3" style="fill:#86c5d8" id="rect3949"/>
<rect width="3" x="28" y="37" height="3" style="fill:#4da6bf" id="rect3951"/>
<rect width="3" x="28" y="33" height="3" style="fill:#3799af" id="rect3953"/>
<rect width="3" x="28" y="29" height="3" style="fill:#2791a2" id="rect3955"/>
<rect width="3" x="28" y="25" height="3" style="fill:#148991" id="rect3957"/>
<rect width="3" x="28" y="20" height="4" style="fill:#0b7d87" id="rect3959"/>
<rect width="3" x="32" y="73" height="3" style="fill:#194280" id="rect3961"/>
<rect width="3" x="32" y="69" height="3" style="fill:#153e7a" id="rect3963"/>
<rect width="3" x="32" y="65" height="3" style="fill:#275b93" id="rect3965"/>
<rect width="3" x="32" y="61" height="3" style="fill:#3776a6" id="rect3967"/>
<rect width="3" x="32" y="57" height="3" style="fill:#428bb5" id="rect3970"/>
<rect width="3" x="32" y="53" height="3" style="fill:#519ec3" id="rect3972"/>
<rect width="3" x="32" y="49" height="3" style="fill:#80bfd9" id="rect3974"/>
<rect width="3" x="32" y="45" height="3" style="fill:#54aecc" id="rect3976"/>
<rect width="3" x="32" y="41" height="3" style="fill:#a8d5e3" id="rect3978"/>
<rect width="3" x="32" y="37" height="3" style="fill:#43a0bb" id="rect3980"/>
<rect width="3" x="32" y="33" height="3" style="fill:#3496ac" id="rect3982"/>
<rect width="3" x="32" y="29" height="3" style="fill:#21899b" id="rect3985"/>
<rect width="3" x="32" y="25" height="3" style="fill:#107c8a" id="rect3987"/>
<rect width="3" x="32" y="20" height="4" style="fill:#0d7684" id="rect3989"/>
<rect width="3" x="36" y="73" height="3" style="fill:#194280" id="rect3991"/>
<rect width="3" x="36" y="69" height="3" style="fill:#153e7b" id="rect3993"/>
<rect width="3" x="36" y="65" height="3" style="fill:#214f8b" id="rect3995"/>
<rect width="3" x="36" y="61" height="3" style="fill:#306a9f" id="rect3997"/>
<rect width="3" x="36" y="57" height="3" style="fill:#3f83b2" id="rect3999"/>
<rect width="3" x="36" y="53" height="3" style="fill:#4997c0" id="rect4001"/>
<rect width="3" x="36" y="49" height="3" style="fill:#56a8cc" id="rect4003"/>
<rect width="3" x="36" y="45" height="3" style="fill:#53aacd" id="rect4005"/>
<rect width="3" x="36" y="41" height="3" style="fill:#4ca5c6" id="rect4007"/>
<rect width="3" x="36" y="37" height="3" style="fill:#429dbb" id="rect4009"/>
<rect width="3" x="36" y="33" height="3" style="fill:#3390ab" id="rect4011"/>
<rect width="3" x="36" y="29" height="3" style="fill:#218299" id="rect4013"/>
<rect width="3" x="36" y="25" height="3" style="fill:#0f7285" id="rect4015"/>
<rect width="3" x="36" y="20" height="4" style="fill-opacity:0" id="rect4017"/>
<rect width="3" x="40" y="73" height="3" style="fill:#1a4381" id="rect4019"/>
<rect width="3" x="40" y="69" height="3" style="fill:#163f7c" id="rect4021"/>
<rect width="3" x="40" y="65" height="3" style="fill:#204c8a" id="rect4023"/>
<rect width="3" x="40" y="61" height="3" style="fill:#2d609a" id="rect4025"/>
<rect width="3" x="40" y="57" height="3" style="fill:#3d7caf" id="rect4027"/>
<rect width="3" x="40" y="53" height="3" style="fill:#4991be" id="rect4029"/>
<rect width="3" x="40" y="49" height="3" style="fill:#5ea7ce" id="rect4031"/>
<rect width="3" x="40" y="45" height="3" style="fill:#abd5e7" id="rect4033"/>
<rect width="3" x="40" y="41" height="3" style="fill:#84c1d9" id="rect4035"/>
<rect width="3" x="40" y="37" height="3" style="fill:#429aba" id="rect4037"/>
<rect width="3" x="40" y="33" height="3" style="fill:#328aa8" id="rect4039"/>
<rect width="3" x="40" y="29" height="3" style="fill:#207a95" id="rect4041"/>
<rect width="3" x="40" y="25" height="3" style="fill:#126b84" id="rect4043"/>
<rect width="3" x="40" y="20" height="4" style="fill:#f00;fill-opacity:0" id="rect4045"/>
<rect width="3" x="36" y="20" height="4" style="fill:#0d6e81" id="rect4047"/>
<rect width="3" x="40" y="20" height="4" style="fill:#0f677f" id="rect4049"/>
<rect width="3" x="44" y="73" height="3" style="fill:#194280" id="rect4051"/>
<rect width="3" x="44" y="69" height="3" style="fill:#153e7b" id="rect4053"/>
<rect width="3" x="44" y="65" height="3" style="fill:#204b8a" id="rect4055"/>
<rect width="3" x="44" y="61" height="3" style="fill:#2a5b98" id="rect4057"/>
<rect width="3" x="44" y="57" height="3" style="fill:#3770a9" id="rect4059"/>
<rect width="3" x="44" y="53" height="3" style="fill:#468bbd" id="rect4061"/>
<rect width="3" x="44" y="49" height="3" style="fill:#51a0cd" id="rect4063"/>
<rect width="3" x="44" y="45" height="3" style="fill:#58abd4" id="rect4065"/>
<rect width="3" x="44" y="41" height="3" style="fill:#51a6cb" id="rect4067"/>
<rect width="3" x="44" y="37" height="3" style="fill:#4395ba" id="rect4069"/>
<rect width="3" x="44" y="33" height="3" style="fill:#3184a7" id="rect4071"/>
<rect width="3" x="44" y="29" height="3" style="fill:#247696" id="rect4073"/>
<rect width="3" x="44" y="25" height="3" style="fill:#156684" id="rect4075"/>
<rect width="3" x="44" y="20" height="4" style="fill:#f00;fill-opacity:0" id="rect4077"/>
<rect width="3" x="44" y="20" height="4" style="fill:#0f5f7d" id="rect4079"/>
<rect width="3" x="48" y="73" height="3" style="fill:#194280" id="rect4081"/>
<rect width="3" x="48" y="69" height="3" style="fill:#153e7b" id="rect4083"/>
<rect width="3" x="48" y="65" height="3" style="fill:#204b8a" id="rect4085"/>
<rect width="3" x="48" y="61" height="3" style="fill:#2c5c9a" id="rect4087"/>
<rect width="3" x="48" y="57" height="3" style="fill:#3971ac" id="rect4089"/>
<rect width="3" x="48" y="53" height="3" style="fill:#a4c3de" id="rect4091"/>
<rect width="3" x="48" y="49" height="3" style="fill:#529acc" id="rect4093"/>
<rect width="3" x="48" y="45" height="3" style="fill:#67afd8" id="rect4095"/>
<rect width="3" x="48" y="41" height="3" style="fill:#71b3d5" id="rect4097"/>
<rect width="3" x="48" y="37" height="3" style="fill:#4492bb" id="rect4099"/>
<rect width="3" x="48" y="33" height="3" style="fill:#3280a7" id="rect4101"/>
<rect width="3" x="48" y="29" height="3" style="fill:#247094" id="rect4103"/>
<rect width="3" x="48" y="25" height="3" style="fill:#166082" id="rect4105"/>
<rect width="3" x="48" y="20" height="4" style="fill:#f00;fill-opacity:0" id="rect4107"/>
<rect width="3" x="48" y="20" height="4" style="fill:#10587a" id="rect4109"/>
<rect width="3" x="52" y="73" height="3" style="fill:#194380" id="rect4111"/>
<rect width="3" x="52" y="69" height="3" style="fill:#153e7b" id="rect4113"/>
<rect width="3" x="52" y="65" height="3" style="fill:#204a89" id="rect4115"/>
<rect width="3" x="52" y="61" height="3" style="fill:#2b589a" id="rect4117"/>
<rect width="3" x="52" y="57" height="3" style="fill:#3a6eac" id="rect4119"/>
<rect width="3" x="52" y="53" height="3" style="fill:#4581bc" id="rect4121"/>
<rect width="3" x="52" y="49" height="3" style="fill:#73a9d6" id="rect4123"/>
<rect width="3" x="52" y="45" height="3" style="fill:#549dd0" id="rect4125"/>
<rect width="3" x="52" y="41" height="3" style="fill:#4f98c8" id="rect4127"/>
<rect width="3" x="52" y="37" height="3" style="fill:#418ab7" id="rect4129"/>
<rect width="3" x="52" y="33" height="3" style="fill:#327aa5" id="rect4131"/>
<rect width="3" x="52" y="29" height="3" style="fill:#256a93" id="rect4133"/>
<rect width="3" x="52" y="25" height="3" style="fill:#155880" id="rect4135"/>
<rect width="3" x="52" y="20" height="4" style="fill:#f00;fill-opacity:0" id="rect4137"/>
<rect width="3" x="52" y="20" height="4" style="fill:#115279" id="rect4139"/>
<rect width="3" x="56" y="73" height="3" style="fill:#1a4381" id="rect4141"/>
<rect width="3" x="56" y="69" height="3" style="fill:#153e7b" id="rect4143"/>
<rect width="3" x="56" y="65" height="3" style="fill:#204a89" id="rect4145"/>
<rect width="3" x="56" y="61" height="3" style="fill:#2a5799" id="rect4147"/>
<rect width="3" x="56" y="57" height="3" style="fill:#3869ab" id="rect4149"/>
<rect width="3" x="56" y="53" height="3" style="fill:#447cbb" id="rect4151"/>
<rect width="3" x="56" y="49" height="3" style="fill:#4e8cc8" id="rect4153"/>
<rect width="3" x="56" y="45" height="3" style="fill:#5193cc" id="rect4155"/>
<rect width="3" x="56" y="41" height="3" style="fill:#4789bf" id="rect4157"/>
<rect width="3" x="56" y="37" height="3" style="fill:#8bb2d0" id="rect4159"/>
<rect width="3" x="56" y="33" height="3" style="fill:#3071a0" id="rect4161"/>
<rect width="3" x="56" y="29" height="3" style="fill:#21608f" id="rect4163"/>
<rect width="3" x="56" y="25" height="3" style="fill:#15517e" id="rect4165"/>
<rect width="3" x="56" y="20" height="4" style="fill:#f00;fill-opacity:0" id="rect4167"/>
<rect width="3" x="56" y="20" height="4" style="fill:#124d79" id="rect4169"/>
<rect width="3" x="60" y="73" height="3" style="fill:#194280" id="rect4171"/>
<rect width="3" x="60" y="69" height="3" style="fill:#153e7b" id="rect4173"/>
<rect width="3" x="60" y="65" height="3" style="fill:#204b8a" id="rect4175"/>
<rect width="3" x="60" y="61" height="3" style="fill:#2a5799" id="rect4177"/>
<rect width="3" x="60" y="57" height="3" style="fill:#3563a8" id="rect4179"/>
<rect width="3" x="60" y="53" height="3" style="fill:#4477bc" id="rect4181"/>
<rect width="3" x="60" y="49" height="3" style="fill:#84aedb" id="rect4183"/>
<rect width="3" x="60" y="45" height="3" style="fill:#5394d0" id="rect4185"/>
<rect width="3" x="60" y="41" height="3" style="fill:#4a89c2" id="rect4187"/>
<rect width="3" x="60" y="37" height="3" style="fill:#5f95c8" id="rect4189"/>
<rect width="3" x="60" y="33" height="3" style="fill:#2d679d" id="rect4191"/>
<rect width="3" x="60" y="29" height="3" style="fill:#20568b" id="rect4193"/>
<rect width="3" x="60" y="25" height="3" style="fill:#164c7e" id="rect4195"/>
<rect width="3" x="60" y="20" height="4" style="fill:#f00;fill-opacity:0" id="rect4197"/>
<rect width="3" x="60" y="20" height="4" style="fill:#134779" id="rect4199"/>
<rect width="3" x="64" y="73" height="3" style="fill:#194280" id="rect4201"/>
<rect width="3" x="64" y="69" height="3" style="fill:#163e7b" id="rect4203"/>
<rect width="3" x="64" y="65" height="3" style="fill:#204a8a" id="rect4205"/>
<rect width="3" x="64" y="61" height="3" style="fill:#2b5799" id="rect4207"/>
<rect width="3" x="64" y="57" height="3" style="fill:#3868ab" id="rect4209"/>
<rect width="3" x="64" y="53" height="3" style="fill:#487dbf" id="rect4211"/>
<rect width="3" x="64" y="49" height="3" style="fill:#5691d0" id="rect4213"/>
<rect width="3" x="64" y="45" height="3" style="fill:#5999d7" id="rect4215"/>
<rect width="3" x="64" y="41" height="3" style="fill:#5d95cd" id="rect4217"/>
<rect width="3" x="64" y="37" height="3" style="fill-opacity:0" id="rect4219"/>
<rect width="3" x="64" y="33" height="3" style="fill:#3166a1" id="rect4221"/>
<rect width="3" x="64" y="29" height="3" style="fill:#21538d" id="rect4223"/>
<rect width="3" x="64" y="25" height="3" style="fill:#17487e" id="rect4225"/>
<rect width="3" x="64" y="20" height="4" style="fill:#f00;fill-opacity:0" id="rect4227"/>
<rect width="3" x="64" y="20" height="4" style="fill:#13437a" id="rect4229"/>
<rect width="3" x="68" y="73" height="3" style="fill:#194380" id="rect4231"/>
<rect width="3" x="68" y="69" height="3" style="fill:#163e7b" id="rect4233"/>
<rect width="3" x="68" y="65" height="3" style="fill-opacity:0" id="rect4235"/>
<rect width="3" x="68" y="61" height="3" style="fill:#2a5799" id="rect4237"/>
<rect width="3" x="68" y="57" height="3" style="fill:#3e72b1" id="rect4239"/>
<rect width="3" x="68" y="53" height="3" style="fill:#4c87c5" id="rect4241"/>
<rect width="3" x="68" y="49" height="3" style="fill:#85b6e2" id="rect4243"/>
<rect width="3" x="68" y="45" height="3" style="fill:#81b9e5" id="rect4245"/>
<rect width="3" x="68" y="41" height="3" style="fill:#5d9dd4" id="rect4247"/>
<rect width="3" x="68" y="37" height="3" style="fill:#f00;fill-opacity:0" id="rect4249"/>
<rect width="3" x="68" y="33" height="3" style="fill:#3970aa" id="rect4251"/>
<rect width="3" x="68" y="29" height="3" style="fill:#275693" id="rect4253"/>
<rect width="3" x="68" y="25" height="3" style="fill:#18437f" id="rect4255"/>
<rect width="3" x="68" y="20" height="4" style="fill:#f00;fill-opacity:0" id="rect4257"/>
<rect width="3" x="68" y="20" height="4" style="fill:#14407a" id="rect4259"/>
<rect width="3" x="68" y="37" height="3" style="fill:#4b87c1" id="rect4261"/>
<rect width="3" x="72" y="73" height="3" style="fill:#19427f" id="rect4263"/>
<rect width="3" x="72" y="69" height="3" style="fill:#153e7b" id="rect4265"/>
<rect width="3" x="72" y="65" height="3" style="fill:#f00;fill-opacity:0" id="rect4267"/>
<rect width="3" x="72" y="61" height="3" style="fill:#2d5c9c" id="rect4269"/>
<rect width="3" x="72" y="57" height="3" style="fill:#4077b4" id="rect4271"/>
<rect width="3" x="72" y="53" height="3" style="fill:#518fca" id="rect4273"/>
<rect width="3" x="72" y="49" height="3" style="fill:#b1d5ee" id="rect4275"/>
<rect width="3" x="72" y="45" height="3" style="fill:#b5ddf4" id="rect4277"/>
<rect width="3" x="72" y="41" height="3" style="fill:#61acdd" id="rect4279"/>
<rect width="3" x="72" y="37" height="3" style="fill:#f00;fill-opacity:0" id="rect4281"/>
<rect width="3" x="72" y="33" height="3" style="fill:#4078b3" id="rect4283"/>
<rect width="3" x="72" y="29" height="3" style="fill:#2a5996" id="rect4285"/>
<rect width="3" x="72" y="25" height="3" style="fill:#1a4381" id="rect4287"/>
<rect width="3" x="72" y="20" height="4" style="fill:#f00;fill-opacity:0" id="rect4289"/>
<rect width="3" x="72" y="20" height="4" style="fill:#163e7b" id="rect4291"/>
<rect width="3" x="72" y="37" height="3" style="fill:#5191c8" id="rect4293"/>
<rect width="3" x="68" y="65" height="3" style="fill:#204a89" id="rect4295"/>
<rect width="3" x="64" y="37" height="3" style="fill:#427eb8" id="rect4297"/>
<rect width="3" x="72" y="65" height="3" style="fill:#204b8a" id="rect4299"/>
<rect width="3" x="76" y="73" height="3" style="fill:#194280" id="rect4301"/>
<rect width="3" x="76" y="69" height="3" style="fill:#153e7a" id="rect4303"/>
<rect width="3" x="76" y="65" height="3" style="fill:#f00;fill-opacity:0" id="rect4305"/>
<rect width="3" x="76" y="61" height="3" style="fill:#2d5b9c" id="rect4307"/>
<rect width="3" x="76" y="57" height="3" style="fill:#4178b5" id="rect4309"/>
<rect width="3" x="76" y="53" height="3" style="fill:#5190cb" id="rect4311"/>
<rect width="3" x="76" y="49" height="3" style="fill:#64ade0" id="rect4313"/>
<rect width="3" x="76" y="45" height="3" style="fill:#b7e0f6" id="rect4315"/>
<rect width="3" x="76" y="41" height="3" style="fill:#6db6e2" id="rect4317"/>
<rect width="3" x="76" y="37" height="3" style="fill:#f00;fill-opacity:0" id="rect4319"/>
<rect width="3" x="76" y="33" height="3" style="fill:#4079b3" id="rect4321"/>
<rect width="3" x="76" y="29" height="3" style="fill:#2c5c99" id="rect4323"/>
<rect width="3" x="76" y="25" height="3" style="fill:#194280" id="rect4325"/>
<rect width="3" x="76" y="20" height="4" style="fill:#f00;fill-opacity:0" id="rect4327"/>
<rect width="3" x="76" y="20" height="4" style="fill:#163e7b" id="rect4329"/>
<rect width="3" x="76" y="37" height="3" style="fill:#76aad5" id="rect4331"/>
<rect width="3" x="76" y="65" height="3" style="fill:#204b8a" id="rect4333"/>
<rect width="4" x="80" y="73" height="3" style="fill:#194280" id="rect4335"/>
<rect width="4" x="80" y="69" height="3" style="fill:#153e7b" id="rect4337"/>
<rect width="4" x="80" y="65" height="3" style="fill:#f00;fill-opacity:0" id="rect4339"/>
<rect width="4" x="80" y="61" height="3" style="fill:#2c5899" id="rect4341"/>
<rect width="4" x="80" y="57" height="3" style="fill:#3f74b3" id="rect4343"/>
<rect width="4" x="80" y="53" height="3" style="fill:#4f8bc8" id="rect4345"/>
<rect width="4" x="80" y="49" height="3" style="fill:#5da2da" id="rect4347"/>
<rect width="4" x="80" y="45" height="3" style="fill:#65afe3" id="rect4349"/>
<rect width="4" x="80" y="41" height="3" style="fill:#5da3d8" id="rect4351"/>
<rect width="4" x="80" y="37" height="3" style="fill:#f00;fill-opacity:0" id="rect4353"/>
<rect width="4" x="80" y="33" height="3" style="fill:#3e75b0" id="rect4355"/>
<rect width="4" x="80" y="29" height="3" style="fill:#2a5996" id="rect4357"/>
<rect width="4" x="80" y="25" height="3" style="fill:#194280" id="rect4359"/>
<rect width="4" x="80" y="20" height="4" style="fill:#f00;fill-opacity:0" id="rect4361"/>
<rect width="4" x="80" y="20" height="4" style="fill:#163f7b" id="rect4363"/>
<rect width="4" x="80" y="37" height="3" style="fill:#4e8bc5" id="rect4365"/>
<rect width="4" x="80" y="65" height="3" style="fill:#214b8b" id="rect4367"/>
</g>
<g style="fill:#fff;stroke:none;color:#000" id="layer5">
<rect width="3" x="72" y="69" height="3" id="rect4369"/>
<rect width="3" x="76" y="65" height="3" id="rect4371"/>
<rect width="3" x="76" y="61" height="3" id="rect4373"/>
<rect width="3" x="72" y="57" height="3" id="rect4377"/>
<rect width="3" x="64" y="61" height="3" id="rect4381"/>
<rect width="3" x="64" y="65" height="3" id="rect4383"/>
<rect width="3" x="56" y="69" height="3" id="rect4385"/>
<rect width="3" x="52" y="69" height="3" id="rect4387"/>
<rect width="3" x="48" y="65" height="3" id="rect4389"/>
<rect width="3" x="48" y="61" height="3" id="rect4391"/>
<rect width="3" x="52" y="57" height="3" id="rect4395"/>
<rect width="3" x="56" y="57" height="3" id="rect4397"/>
<rect width="3" x="40" y="57" height="3" id="rect4401"/>
<rect width="3" x="40" y="61" height="3" id="rect4403"/>
<rect width="3" x="40" y="65" height="3" id="rect4405"/>
<rect width="3" x="40" y="69" height="3" id="rect4407"/>
<rect width="3" x="40" y="69" height="3" id="rect4409"/>
<rect width="3" x="68" y="69" height="3" id="rect4411"/>
<rect width="3" x="68" y="57" height="3" id="rect4413"/>
</g>
<g style="stroke:none" id="layer4">
<path style="opacity:.3;fill:url(#linearGradient3982)" id="rect3969" d="M 12,6 C 8.676,6 6,8.676 6,12 L 6,65.375 C 21.659672,54.324822 48.932917,47 80,47 c 3.382367,0 6.716951,0.1124 10,0.28125 L 90,12 C 90,8.676 87.324,6 84,6 L 12,6 z"/>
<g style="color:#000">
<path style="opacity:.31;fill:url(#linearGradient3724)" id="rect3984" d="m 12,20 0,56 72,0 0,-56 -72,0 z m 1,1 70,0 0,54 -70,0 0,-54 z"/>
<rect width="72" x="12" y="76" height="1" style="opacity:.5;fill:#fff" id="rect2965"/>
</g>
</g>
</svg>
