<svg width="96" version="1.0" xmlns="http://www.w3.org/2000/svg" height="96" xmlns:xlink="http://www.w3.org/1999/xlink">
<defs id="defs2410">
<clipPath id="clipPath3613">
<rect width="84" x="6" y="6" rx="6" height="84" ry="6" style="fill:#fff;stroke:none" id="rect3615"/>
</clipPath>
<filter width="1.3839999" x="-0.192" y="-0.192" height="1.3839999" style="color-interpolation-filters:sRGB" id="filter3794">
<feGaussianBlur stdDeviation="5.28" id="feGaussianBlur3796"/>
</filter>
<filter style="color-interpolation-filters:sRGB" id="filter3174">
<feGaussianBlur stdDeviation="1.71" id="feGaussianBlur3176"/>
</filter>
<linearGradient id="linearGradient3707" xlink:href="#linearGradient3737-9" y1="20.220806" x1="48" y2="138.66119" x2="48" gradientUnits="userSpaceOnUse"/>
<linearGradient id="linearGradient3737-0">
<stop offset="0" style="stop-color:#fff" id="stop3739-6"/>
<stop offset="1" style="stop-color:#fff;stop-opacity:0" id="stop3741-0"/>
</linearGradient>
<linearGradient id="linearGradient3224">
<stop offset="0" style="stop-color:#463c4f" id="stop3226"/>
<stop offset="1" style="stop-color:#0f0f0f" id="stop3228"/>
</linearGradient>
<linearGradient gradientTransform="matrix(1.0238095,0,0,1.0119048,-1.1428571,-98.071429)" id="linearGradient3760" xlink:href="#ButtonShadow-0" y1="6.1317081" x1="32.251034" y2="90.238609" x2="32.251034" gradientUnits="userSpaceOnUse"/>
<linearGradient id="linearGradient3737-9">
<stop offset="0" style="stop-color:#fff" id="stop3739-2"/>
<stop offset="1" style="stop-color:#fff;stop-opacity:0" id="stop3741-1"/>
</linearGradient>
<linearGradient id="linearGradient3923" xlink:href="#linearGradient3737-1" y1="6" x1="36.357143" y2="63.893143" x2="36.357143" gradientUnits="userSpaceOnUse"/>
<linearGradient id="linearGradient3737-1">
<stop offset="0" style="stop-color:#fff" id="stop3739-9"/>
<stop offset="1" style="stop-color:#fff;stop-opacity:0" id="stop3741-3"/>
</linearGradient>
<linearGradient gradientTransform="matrix(1.0058652,0,0,0.994169,100,0)" id="ButtonShadow-0" y1="92.539597" x1="45.447727" y2="7.0165396" x2="45.447727" gradientUnits="userSpaceOnUse">
<stop offset="0" id="stop3750-8"/>
<stop offset="1" style="stop-opacity:.588" id="stop3752-5"/>
</linearGradient>
<linearGradient id="linearGradient3706" xlink:href="#linearGradient3700" y1="90" x1="48" y2="5.9877172" x2="48" gradientUnits="userSpaceOnUse"/>
<linearGradient gradientTransform="scale(1.0058652,0.994169)" id="ButtonShadow" y1="92.539597" x1="45.447727" y2="7.0165396" x2="45.447727" gradientUnits="userSpaceOnUse">
<stop offset="0" id="stop3750"/>
<stop offset="1" style="stop-opacity:.588" id="stop3752"/>
</linearGradient>
<linearGradient id="linearGradient3700">
<stop offset="0" style="stop-color:#ebebeb" id="stop3702"/>
<stop offset="1" style="stop-color:#fafafa" id="stop3704"/>
</linearGradient>
<linearGradient gradientTransform="translate(0,-97)" id="linearGradient3721" xlink:href="#ButtonShadow-0" y1="6.1317081" x1="32.251034" y2="90.238609" x2="32.251034" gradientUnits="userSpaceOnUse"/>
<linearGradient gradientTransform="matrix(1.0238095,0,0,1.0119048,-1.1428571,-98.071429)" id="linearGradient3780" xlink:href="#ButtonShadow-0" y1="6.1317081" x1="32.251034" y2="90.238609" x2="32.251034" gradientUnits="userSpaceOnUse"/>
<linearGradient gradientTransform="matrix(1.0238095,0,0,1.0119048,-1.1428571,-98.071429)" id="linearGradient3772" xlink:href="#ButtonShadow-0" y1="6.1317081" x1="32.251034" y2="90.238609" x2="32.251034" gradientUnits="userSpaceOnUse"/>
<linearGradient gradientTransform="matrix(1.0238095,0,0,1.0119048,-1.1428571,-98.071429)" id="linearGradient3725" xlink:href="#ButtonShadow-0" y1="6.1317081" x1="32.251034" y2="90.238609" x2="32.251034" gradientUnits="userSpaceOnUse"/>
<radialGradient fx="48" fy="90.171875" cx="48" cy="90.171875" gradientTransform="matrix(1.1573129,0,0,0.99590774,-7.551021,0.1971319)" r="42" id="radialGradient2886" xlink:href="#linearGradient3737-0" gradientUnits="userSpaceOnUse"/>
<radialGradient fx="48" fy="63.366764" cx="48" cy="63.366764" gradientTransform="matrix(1.6082054,0,0,1.1986693,-29.193856,-4.502573)" r="36" id="radialGradient2898" xlink:href="#linearGradient3224" gradientUnits="userSpaceOnUse"/>
</defs>
<g style="display:none" id="layer2">
<rect width="86" x="5" y="7" rx="6" height="85" ry="6" style="opacity:.9;fill:url(#ButtonShadow);filter:url(#filter3174);stroke:none" id="rect3745"/>
</g>
<g style="stroke:none" id="layer6">
<path style="opacity:.08;fill:url(#linearGradient3760)" id="path3786" d="m 12,-95.0312 c -5.51109,0 -10.0312,4.52016 -10.0312,10.0312 v 71 c 0,5.51109 4.52016,10.0312 10.0312,10.0312 h 72 c 5.51109,0 10.0312,-4.52016 10.0312,-10.0312 v -71 c 0,-5.51109 -4.52016,-10.0312 -10.0312,-10.0312 h -72 z " transform="scale(1,-1)"/>
<path style="opacity:.1;fill:url(#linearGradient3780)" id="path3778" d="m 12,-94.0312 c -4.97163,0 -9.03125,4.05962 -9.03125,9.03125 v 71 c 0,4.97163 4.05962,9.03125 9.03125,9.03125 h 72 c 4.97163,0 9.03125,-4.05962 9.03125,-9.03125 v -71 c 0,-4.97163 -4.05962,-9.03125 -9.03125,-9.03125 h -72 z " transform="scale(1,-1)"/>
<path style="opacity:.2;fill:url(#linearGradient3772)" id="path3770" d="m 12,-93 c -4.40913,0 -8,3.59087 -8,8 v 71 c 0,4.40913 3.59087,8 8,8 h 72 c 4.40913,0 8,-3.59087 8,-8 v -71 c 0,-4.40913 -3.59087,-8 -8,-8 h -72 z " transform="scale(1,-1)"/>
<rect width="86" x="5" y="-92" rx="7" height="85" ry="7" style="opacity:.3;fill:url(#linearGradient3725)" id="rect3723" transform="scale(1,-1)"/>
<rect width="84" x="6" y="-91" rx="6" height="84" ry="6" style="opacity:.45;fill:url(#linearGradient3721)" id="rect3716" transform="scale(1,-1)"/>
</g>
<g id="layer1">
<g style="stroke:none">
<rect width="84" x="6" y="6" rx="6" height="84" ry="6" style="fill:url(#linearGradient3706)" id="rect2419"/>
<path style="opacity:.5;fill:url(#linearGradient3923)" id="rect3728" d="M 12,6 C 8.676,6 6,8.676 6,12 l 0,2 0,68 0,2 c 0,0.334721 0.04135,0.6507 0.09375,0.96875 0.0487,0.295596 0.09704,0.596915 0.1875,0.875 0.0099,0.03038 0.02089,0.0636 0.03125,0.09375 0.09886,0.287771 0.23488,0.547452 0.375,0.8125 0.144592,0.273507 0.315616,0.535615 0.5,0.78125 0.184384,0.245635 0.373776,0.473472 0.59375,0.6875 0.439947,0.428056 0.94291,0.814526 1.5,1.09375 0.278545,0.139612 0.573473,0.246947 0.875,0.34375 -0.256202,-0.100222 -0.486711,-0.236272 -0.71875,-0.375 -0.0074,-0.0044 -0.02387,0.0045 -0.03125,0 -0.03193,-0.0193 -0.06229,-0.04251 -0.09375,-0.0625 -0.120395,-0.0767 -0.231023,-0.163513 -0.34375,-0.25 -0.106173,-0.0808 -0.213281,-0.161112 -0.3125,-0.25 C 8.47832,88.557317 8.30879,88.373362 8.15625,88.1875 8.048671,88.057245 7.937856,87.922215 7.84375,87.78125 7.81866,87.74287 7.8053,87.69538 7.78125,87.65625 7.71649,87.553218 7.651022,87.451733 7.59375,87.34375 7.492742,87.149044 7.388075,86.928049 7.3125,86.71875 7.3045,86.69694 7.28891,86.6782 7.28125,86.65625 7.24942,86.5643 7.24545,86.469419 7.21875,86.375 7.188418,86.268382 7.148361,86.171969 7.125,86.0625 7.052121,85.720988 7,85.364295 7,85 L 7,83 7,15 7,13 C 7,10.218152 9.218152,8 12,8 l 2,0 68,0 2,0 c 2.781848,0 5,2.218152 5,5 l 0,2 0,68 0,2 c 0,0.364295 -0.05212,0.720988 -0.125,1.0625 -0.04415,0.206893 -0.08838,0.397658 -0.15625,0.59375 -0.0077,0.02195 -0.0233,0.04069 -0.03125,0.0625 -0.06274,0.173739 -0.138383,0.367449 -0.21875,0.53125 -0.04158,0.0828 -0.07904,0.169954 -0.125,0.25 -0.0546,0.09721 -0.126774,0.18835 -0.1875,0.28125 -0.09411,0.140965 -0.204921,0.275995 -0.3125,0.40625 -0.143174,0.17445 -0.303141,0.346998 -0.46875,0.5 -0.01117,0.0102 -0.01998,0.02115 -0.03125,0.03125 -0.138386,0.125556 -0.285091,0.234436 -0.4375,0.34375 -0.102571,0.07315 -0.204318,0.153364 -0.3125,0.21875 -0.0074,0.0045 -0.02384,-0.0044 -0.03125,0 -0.232039,0.138728 -0.462548,0.274778 -0.71875,0.375 0.301527,-0.0968 0.596455,-0.204138 0.875,-0.34375 0.55709,-0.279224 1.060053,-0.665694 1.5,-1.09375 0.219973,-0.214028 0.409366,-0.441865 0.59375,-0.6875 0.184384,-0.245635 0.355408,-0.507743 0.5,-0.78125 0.14012,-0.265048 0.276135,-0.524729 0.375,-0.8125 0.01041,-0.03078 0.02133,-0.06274 0.03125,-0.09375 0.09046,-0.278085 0.1388,-0.579404 0.1875,-0.875 C 89.95865,84.6507 90,84.334721 90,84 l 0,-2 0,-68 0,-2 C 90,8.676 87.324,6 84,6 L 12,6 z"/>
<path style="opacity:.4;fill:url(#radialGradient2886)" id="path3615" d="M 12,90 C 8.676,90 6,87.324 6,84 L 6,82 6,14 6,12 c 0,-0.334721 0.04135,-0.6507 0.09375,-0.96875 0.0487,-0.295596 0.09704,-0.596915 0.1875,-0.875 C 6.29113,10.12587 6.302142,10.09265 6.3125,10.0625 6.411365,9.774729 6.5473802,9.515048 6.6875,9.25 6.8320918,8.976493 7.0031161,8.714385 7.1875,8.46875 7.3718839,8.223115 7.5612765,7.995278 7.78125,7.78125 8.221197,7.353194 8.72416,6.966724 9.28125,6.6875 9.559795,6.547888 9.8547231,6.440553 10.15625,6.34375 9.9000482,6.443972 9.6695391,6.580022 9.4375,6.71875 c -0.00741,0.0044 -0.023866,-0.0045 -0.03125,0 -0.031933,0.0193 -0.062293,0.04251 -0.09375,0.0625 -0.120395,0.0767 -0.2310226,0.163513 -0.34375,0.25 -0.1061728,0.0808 -0.2132809,0.161112 -0.3125,0.25 C 8.4783201,7.442683 8.3087904,7.626638 8.15625,7.8125 8.0486711,7.942755 7.9378561,8.077785 7.84375,8.21875 7.818661,8.25713 7.805304,8.30462 7.78125,8.34375 7.716487,8.446782 7.6510225,8.548267 7.59375,8.65625 7.4927417,8.850956 7.3880752,9.071951 7.3125,9.28125 7.30454,9.30306 7.288911,9.3218 7.28125,9.34375 7.2494249,9.4357 7.2454455,9.530581 7.21875,9.625 7.1884177,9.731618 7.1483606,9.828031 7.125,9.9375 7.0521214,10.279012 7,10.635705 7,11 l 0,2 0,68 0,2 c 0,2.781848 2.2181517,5 5,5 l 2,0 68,0 2,0 c 2.781848,0 5,-2.218152 5,-5 l 0,-2 0,-68 0,-2 C 89,10.635705 88.94788,10.279012 88.875,9.9375 88.83085,9.730607 88.78662,9.539842 88.71875,9.34375 88.71105,9.3218 88.69545,9.30306 88.6875,9.28125 88.62476,9.107511 88.549117,8.913801 88.46875,8.75 88.42717,8.6672 88.38971,8.580046 88.34375,8.5 88.28915,8.40279 88.216976,8.31165 88.15625,8.21875 88.06214,8.077785 87.951329,7.942755 87.84375,7.8125 87.700576,7.63805 87.540609,7.465502 87.375,7.3125 87.36383,7.3023 87.35502,7.29135 87.34375,7.28125 87.205364,7.155694 87.058659,7.046814 86.90625,6.9375 86.803679,6.86435 86.701932,6.784136 86.59375,6.71875 c -0.0074,-0.0045 -0.02384,0.0044 -0.03125,0 -0.232039,-0.138728 -0.462548,-0.274778 -0.71875,-0.375 0.301527,0.0968 0.596455,0.204138 0.875,0.34375 0.55709,0.279224 1.060053,0.665694 1.5,1.09375 0.219973,0.214028 0.409366,0.441865 0.59375,0.6875 0.184384,0.245635 0.355408,0.507743 0.5,0.78125 0.14012,0.265048 0.276135,0.524729 0.375,0.8125 0.01041,0.03078 0.02133,0.06274 0.03125,0.09375 0.09046,0.278085 0.1388,0.579404 0.1875,0.875 C 89.95865,11.3493 90,11.665279 90,12 l 0,2 0,68 0,2 c 0,3.324 -2.676,6 -6,6 l -72,0 z"/>
<rect width="84" x="-94" y="6" rx="6" height="84" ry="6" style="fill:#f0f" id="rect3654"/>
</g>
<rect width="16" x="112" y="8" height="16" style="fill:#fff;stroke:#000;stroke-linecap:round;color:#000;stroke-width:.5;stroke-dashoffset:8.6" id="rect3797"/>
<text x="131.39261" y="11.969256" style="font-family:Liberation Sans;text-align:start;stroke:none;line-height:125%;font-size:4px" id="text3799" xml:space="preserve"><tspan x="131.39261" y="11.969256" id="tspan3801">Width: 2px</tspan><tspan x="131.39261" y="16.969257" id="tspan3803">Blur: 12</tspan><tspan x="131.39261" y="21.969257" id="tspan3807">Opacity: 60</tspan>
</text>
</g>
<g id="layer4">
<rect width="66" x="15" y="15" rx="12" height="66" ry="12" style="opacity:.5;fill:url(#linearGradient3707);filter:url(#filter3794);stroke:#fff;stroke-linecap:round;stroke-width:.5;clip-path:url(#clipPath3613)" id="rect3171"/>
</g>
<g style="stroke:none" id="layer3">
<rect width="72" x="12" y="24" rx="3" height="48" ry="3" style="fill:url(#radialGradient2898)" id="rect3172"/>
<path style="opacity:.15;fill:#d9c6ed" id="rect3348" d="m 15,24 c -1.662,0 -3,1.338 -3,3 v 1 8.0625 18.0625 c 19.0884,-7.91919 44.2743,-12.8882 72,-13.3125 v -4.75 -8.0625 -1 c 0,-1.662 -1.338,-3 -3,-3 h -1 -64 -1 z "/>
<path style="opacity:.15" id="rect3750" d="m 15,24 c -1.662,0 -3,1.338 -3,3 v 42 c 0,1.662 1.338,3 3,3 h 66 c 1.662,0 3,-1.338 3,-3 v -42 c 0,-1.662 -1.338,-3 -3,-3 h -66 z  m 0,2 66,0 c 0.580863,0 1,0.419137 1,1 v 42 c 0,0.580863 -0.419137,1 -1,1 h -66 c -0.580863,0 -1,-0.419137 -1,-1 v -42 c 0,-0.580863 0.419137,-1 1,-1 z "/>
<path style="opacity:.3" id="rect3746" d="m 15,24 c -1.662,0 -3,1.338 -3,3 v 42 c 0,1.662 1.338,3 3,3 h 66 c 1.662,0 3,-1.338 3,-3 v -42 c 0,-1.662 -1.338,-3 -3,-3 h -66 z  m 0,1 66,0 c 1.12143,0 2,0.878569 2,2 v 42 c 0,1.12143 -0.878569,2 -2,2 h -66 c -1.12143,0 -2,-0.878569 -2,-2 v -42 c 0,-1.12143 0.878569,-2 2,-2 z "/>
<g style="fill:#fff;text-align:start">
<path style="font-family:Liberation Mono;line-height:145.00000477%;font-size:4px" id="path4428" d="m -77.3125,27.8438 -1.5938,2.9375 .3438,0 1.5938,-2.9375 -.3438,0 z  m .9375,0 0,2.4688 c 0,0.05079 0.0013,0.10938 0,0.15625 0,0.04688 0.0013,0.08594 0,0.125 -0.0013,0.03906 0.0013,0.0651 0,0.09375 -0.0013,0.02734 -0.02995,0.05078 -0.03125,0.0625 h 0.34375 c 0.0013,-0.0052 -0.0013,-0.01042 0,-0.03125 0.0026,-0.02214 0.02995,-0.0638 0.03125,-0.09375 0.0026,-0.02995 -0.0013,-0.05859 0,-0.09375 0.0013,-0.03646 -1e-06,-0.0599 0,-0.09375 0.0625,0.127604 0.139322,0.22526 0.25,0.28125 0.110676,0.05599 0.255207,0.0625 0.40625,0.0625 0.246092,0 0.430988,-0.09766 0.5625,-0.28125 0.132809,-0.183593 0.187498,-0.442708 0.1875,-0.8125 -2e-06,-0.365884 -0.0599,-0.632811 -0.1875,-0.8125 -0.127605,-0.180985 -0.308595,-0.281248 -0.5625,-0.28125 -0.152345,0 -0.295574,0.03125 -0.40625,0.09375 -0.109376,0.0612 -0.1875,0.175783 -0.25,0.3125 0.0013,-0.02994 -0.0013,-0.09114 0,-0.125 0.0013,-0.02865 -1e-06,-0.05729 0,-0.09375 0.0013,-0.03776 -1e-06,-0.05599 0,-0.09375 v -0.84375 h -0.34375 z  m 3.0938,0 0,.375 .4062,0 0,-.375 -.4062,0 z  m 5.5625,0 -1.5938,2.9375 .3438,0 1.5938,-2.9375 -.3438,0 z  m .9375,0 0,2.4688 c 0,0.05079 0.0013,0.10938 0,0.15625 0,0.04688 0.0013,0.08594 0,0.125 -0.0013,0.03906 0.0013,0.0651 0,0.09375 -0.0013,0.02734 -0.02995,0.05078 -0.03125,0.0625 h 0.34375 c 0.0013,-0.0052 -0.0013,-0.01042 0,-0.03125 0.0026,-0.02214 0.02995,-0.0638 0.03125,-0.09375 0.0026,-0.02995 -0.0013,-0.05859 0,-0.09375 0.0013,-0.03646 -1e-06,-0.0599 0,-0.09375 0.0625,0.127604 0.139322,0.22526 0.25,0.28125 0.110676,0.05599 0.255207,0.0625 0.40625,0.0625 0.246092,0 0.430988,-0.09766 0.5625,-0.28125 0.132809,-0.183593 0.187498,-0.442708 0.1875,-0.8125 -2e-06,-0.365884 -0.0599,-0.632811 -0.1875,-0.8125 -0.127605,-0.180985 -0.308595,-0.281248 -0.5625,-0.28125 -0.152345,0 -0.295574,0.03125 -0.40625,0.09375 -0.109376,0.0612 -0.1875,0.175783 -0.25,0.3125 0.0013,-0.02994 -0.0013,-0.09114 0,-0.125 0.0013,-0.02865 -1e-06,-0.05729 0,-0.09375 0.0013,-0.03776 -1e-06,-0.05599 0,-0.09375 v -0.84375 h -0.34375 z  m 7.1875,0 0,2.9062 .3438,0 0,-1.2188 c 0,-0.105468 0.03385,-0.20052 0.0625,-0.28125 0.02865,-0.08203 0.04427,-0.16406 0.09375,-0.21875 0.05078,-0.05599 0.12109,-0.09635 0.1875,-0.125 0.06771,-0.02994 0.14193,-0.03125 0.21875,-0.03125 0.0625,1e-05 0.13542,0.01563 0.1875,0.03125 0.05209,0.01563 0.08724,0.02214 0.125,0.0625 0.03906,0.03906 0.07292,0.08854 0.09375,0.15625 0.02213,0.06641 0.03125,0.177085 0.03125,0.28125 v 1.34375 h 0.34375 v -1.40625 c 0,-0.131509 0,-0.25 -0.03125,-0.34375 -0.02995,-0.09375 -0.09766,-0.15885 -0.15625,-0.21875 -0.0586,-0.05989 -0.13412,-0.09635 -0.21875,-0.125 -0.08464,-0.02865 -0.173178,-0.0625 -0.28125,-0.0625 -0.08333,1e-05 -0.14974,0.01172 -0.21875,0.03125 -0.06771,0.01823 -0.13412,0.0586 -0.1875,0.09375 -0.05339,0.03386 -0.11458,0.07552 -0.15625,0.125 -0.04167,0.04948 -0.0625,0.09505 -0.09375,0.15625 0.0039,-0.05989 -0.0039,-0.12239 0,-0.1875 0.0039,-0.0664 -1e-06,-0.12239 0,-0.1875 v -0.78125 h -0.34375 z  m -23.4375,.2812 -.1875,.7812 -.5,0 0,.2188 .4688,0 -.1562,.625 -.4375,0 0,.2188 .4062,0 -.1562,.7812 .2188,0 .1562,-.7812 .7188,0 -.1875,.7812 .2188,0 .1562,-.7812 .5625,0 0,-.2188 -.5,0 .125,-.625 .4688,0 0,-.2188 -.4062,0 .1562,-.7812 -.2188,0 -.1562,.7812 -.7188,0 .1562,-.7812 -.1875,0 z  m 2.5,0 .0625,1.8438 .2812,0 .0312,-1.8438 -.375,0 z  m 9.9688,.4688 c -0.08594,1e-05 -0.18099,0.01172 -0.25,0.03125 -0.06901,0.01823 -0.13151,0.0586 -0.1875,0.09375 -0.05468,0.03386 -0.08203,0.07552 -0.125,0.125 -0.04166,0.04948 -0.09375,0.09505 -0.125,0.15625 0,-0.02604 0.0013,-0.05599 0,-0.09375 -0.0013,-0.03906 0.0026,-0.08854 0,-0.125 -0.0013,-0.03776 0.0013,-0.0651 0,-0.09375 -0.0013,-0.02864 0.0013,-0.056 0,-0.0625 h -0.34375 c 0.0013,0.0091 -0.0013,0.03125 0,0.0625 0.0013,0.03125 -0.0013,0.08073 0,0.125 0.0013,0.04297 0,0.07552 0,0.125 0.0013,0.04818 -1e-06,0.11198 0,0.15625 v 1.65625 h 0.375 v -1.21875 c 0,-0.105468 0.0026,-0.20052 0.03125,-0.28125 0.02865,-0.08203 0.07552,-0.16406 0.125,-0.21875 0.05078,-0.05599 0.08984,-0.09635 0.15625,-0.125 0.06771,-0.02994 0.14193,-0.03125 0.21875,-0.03125 0.0625,1e-05 0.13542,0.01563 0.1875,0.03125 0.05209,0.01563 0.08724,0.02214 0.125,0.0625 0.03906,0.03906 0.07292,0.08854 0.09375,0.15625 0.02213,0.06641 0.03125,0.177085 0.03125,0.28125 v 1.34375 h 0.34375 v -1.40625 c 0,-0.131509 -0.0013,-0.25 -0.03125,-0.34375 -0.02865,-0.09375 -0.06771,-0.15885 -0.125,-0.21875 -0.05599,-0.05989 -0.13542,-0.09635 -0.21875,-0.125 -0.08334,-0.02865 -0.173179,-0.0625 -0.28125,-0.0625 z  m 6.9688,0 c -0.139324,0 -0.24479,0.03386 -0.34375,0.0625 -0.09766,0.02735 -0.1849,0.04297 -0.25,0.09375 -0.0651,0.05078 -0.11979,0.11719 -0.15625,0.1875 -0.03516,0.06901 -0.04948,0.13542 -0.0625,0.21875 l .375,.0312 c 0.0078,-0.0664 0.0078,-0.11328 0.03125,-0.15625 0.02474,-0.04427 0.05599,-0.06901 0.09375,-0.09375 0.03776,-0.02604 0.10417,-0.0534 0.15625,-0.0625 0.05338,-0.01043 0.09114,1e-06 0.15625,0 0.07292,0 0.13281,0.01302 0.1875,0.03125 0.05468,0.01693 0.12109,0.02474 0.15625,0.0625 0.03646,0.03776 0.04557,0.09505 0.0625,0.15625 0.01824,0.0612 0.03125,0.13151 0.03125,0.21875 v 0.125 h -0.46875 c -0.109376,0.0013 -0.20573,0.01042 -0.3125,0.03125 -0.105469,0.01953 -0.19792,0.04297 -0.28125,0.09375 -0.08333,0.05078 -0.16667,0.12891 -0.21875,0.21875 -0.05078,0.08854 -0.0625,0.204428 -0.0625,0.34375 0,0.195313 0.05209,0.356812 0.15625,0.46875 0.104166,0.111979 0.26302,0.15625 0.46875,0.15625 0.09635,0 0.17578,-0.01042 0.25,-0.03125 0.07422,-0.02083 0.13021,-0.05599 0.1875,-0.09375 0.05729,-0.03906 0.11198,-0.07031 0.15625,-0.125 0.04427,-0.05469 0.08854,-0.11979 0.125,-0.1875 0.0039,0.07031 0.01562,0.13412 0.03125,0.1875 0.01562,0.05208 0.0638,0.08854 0.09375,0.125 0.02994,0.03516 0.04687,0.07552 0.09375,0.09375 0.04818,0.01689 0.12109,0.03125 0.1875,0.03125 0.04948,0 0.08203,-0.02605 0.125,-0.03125 0.04427,-0.0052 0.08073,0.01042 0.125,0 v -0.21875 c -0.01823,0.0039 -0.01172,-0.0026 -0.03125,0 -0.01953,0.0026 -0.04297,0 -0.0625,0 -0.07682,0 -0.12891,-0.01042 -0.15625,-0.0625 -0.02735,-0.05338 -0.03125,-0.145833 -0.03125,-0.25 v -0.90625 c -2e-06,-0.230467 -0.08724,-0.410154 -0.21875,-0.53125 -0.13021,-0.122394 -0.333335,-0.187497 -0.59375,-0.1875 z  m 2.4688,0 c -0.261719,2e-06 -0.45573,0.07943 -0.59375,0.1875 -0.138021,0.108075 -0.218751,0.246095 -0.21875,0.4375 0,0.100262 0.02344,0.1849 0.0625,0.25 0.04037,0.06511 0.09245,0.11328 0.15625,0.15625 0.0651,0.04166 0.13672,0.06771 0.21875,0.09375 0.08203,0.02604 0.16667,0.07162 0.25,0.09375 0.09245,0.02474 0.17187,0.04297 0.25,0.0625 0.07943,0.01953 0.16146,0.03516 0.21875,0.0625 0.05729,0.02734 0.09245,0.05339 0.125,0.09375 0.03385,0.03906 0.03125,0.09115 0.03125,0.15625 -1e-05,0.0625 -0.0039,0.11328 -0.03125,0.15625 -0.02605,0.04166 -0.04688,0.09766 -0.09375,0.125 -0.04688,0.02604 -0.1224,0.01953 -0.1875,0.03125 -0.0638,0.01043 -0.11198,0.03125 -0.1875,0.03125 -0.07422,0 -0.15495,0.0065 -0.21875,0 -0.0638,-0.0078 -0.10677,-0.04036 -0.15625,-0.0625 -0.04818,-0.02213 -0.08984,-0.05208 -0.125,-0.09375 -0.03386,-0.04297 -0.07812,-0.08463 -0.09375,-0.15625 l -.3125,.0625 c 0.02343,0.09896 0.07552,0.18229 0.125,0.25 0.05078,0.06641 0.11328,0.11589 0.1875,0.15625 0.07422,0.04037 0.15234,0.04557 0.25,0.0625 0.09896,0.01824 0.221353,0.03125 0.34375,0.03125 0.136718,0 0.23828,-0.0013 0.34375,-0.03125 0.10677,-0.02995 0.20833,-0.07031 0.28125,-0.125 0.07292,-0.05599 0.11849,-0.13932 0.15625,-0.21875 0.03906,-0.07943 0.0625,-0.15104 0.0625,-0.25 -1e-05,-0.108073 -0.01432,-0.21094 -0.0625,-0.28125 -0.04688,-0.07161 -0.11328,-0.11068 -0.1875,-0.15625 -0.07292,-0.04557 -0.16016,-0.09765 -0.25,-0.125 -0.08854,-0.02734 -0.16537,-0.04167 -0.25,-0.0625 -0.08464,-0.02213 -0.17969,-0.04557 -0.25,-0.0625 -0.07031,-0.01823 -0.10547,-0.03776 -0.15625,-0.0625 -0.05078,-0.02474 -0.09636,-0.05729 -0.125,-0.09375 -0.02735,-0.03776 -0.0625,-0.09635 -0.0625,-0.15625 -1e-06,-0.196611 0.180989,-0.281249 0.5,-0.28125 0.05989,0 0.10156,-0.0078 0.15625,0 0.05468,0.0078 0.11328,0.04037 0.15625,0.0625 0.04427,0.02084 0.0638,0.02604 0.09375,0.0625 0.02994,0.03646 0.0534,0.09766 0.0625,0.15625 l .3125,-.0312 c -0.01823,-0.08984 -0.04557,-0.1862 -0.09375,-0.25 -0.04688,-0.0651 -0.08594,-0.11588 -0.15625,-0.15625 -0.07031,-0.04166 -0.16016,-0.07552 -0.25,-0.09375 -0.08984,-0.0195 -0.178386,-0.03125 -0.28125,-0.03125 z  m -12.75,.0312 0,.2812 .625,0 0,1.5625 -.8125,0 0,.2812 1.9062,0 0,-.2812 -.7188,0 0,-1.8438 -1,0 z  m -1.5938,.25 c 0.08594,0 0.15755,-0.0013 0.21875,0.03125 0.0625,0.03125 0.11588,0.08854 0.15625,0.15625 0.04167,0.06641 0.07422,0.144532 0.09375,0.25 0.0195,0.104168 0.03125,0.229168 0.03125,0.375 0,0.151042 -0.0091,0.29948 -0.03125,0.40625 -0.02084,0.10547 -0.05209,0.18359 -0.09375,0.25 -0.04167,0.0664 -0.09375,0.1263 -0.15625,0.15625 -0.0625,0.02995 -0.13672,0.03125 -0.21875,0.03125 -0.08464,0 -0.18099,-0.0065 -0.25,-0.03125 -0.06771,-0.02604 -0.10807,-0.0638 -0.15625,-0.125 -0.04687,-0.0625 -0.09896,-0.147134 -0.125,-0.25 -0.02604,-0.102863 -0.03125,-0.251302 -0.03125,-0.40625 0,-0.161458 0.0052,-0.296874 0.03125,-0.40625 0.02604,-0.110676 0.07812,-0.18359 0.125,-0.25 0.04818,-0.06771 0.08724,-0.1276 0.15625,-0.15625 0.06901,-0.02995 0.16406,-0.03125 0.25,-0.03125 z  m 9.5938,0 c 0.08594,0 0.15755,-0.0013 0.21875,0.03125 0.0625,0.03125 0.11588,0.08854 0.15625,0.15625 0.04167,0.06641 0.07422,0.144532 0.09375,0.25 0.0195,0.104168 0.03125,0.229168 0.03125,0.375 0,0.151042 -0.0091,0.29948 -0.03125,0.40625 -0.02083,0.10547 -0.05208,0.18359 -0.09375,0.25 -0.04167,0.0664 -0.09375,0.1263 -0.15625,0.15625 -0.0625,0.02995 -0.13672,0.03125 -0.21875,0.03125 -0.08464,0 -0.18099,-0.0065 -0.25,-0.03125 -0.06771,-0.02604 -0.10807,-0.0638 -0.15625,-0.125 -0.04687,-0.0625 -0.09896,-0.147134 -0.125,-0.25 -0.02604,-0.102863 -0.03125,-0.251302 -0.03125,-0.40625 0,-0.161458 0.0052,-0.296874 0.03125,-0.40625 0.02605,-0.110676 0.07812,-0.18359 0.125,-0.25 0.04818,-0.06771 0.08724,-0.1276 0.15625,-0.15625 0.06901,-0.02995 0.16406,-0.03125 0.25,-0.03125 z  m -17.1562,.25 .6875,0 -.125,.625 -.7188,0 .1562,-.625 z  m 19.2812,.5938 c 0.07292,-0.01038 0.14713,0.0013 0.21875,0 h 0.375 v 0.15625 c 0,0.06901 -0.0052,0.14323 -0.03125,0.21875 -0.02604,0.07552 -0.07162,0.15625 -0.125,0.21875 -0.05208,0.0625 -0.10807,0.11458 -0.1875,0.15625 -0.07943,0.04037 -0.173178,0.0625 -0.28125,0.0625 -0.11198,0 -0.19141,-0.02865 -0.25,-0.09375 -0.05729,-0.0651 -0.09375,-0.174479 -0.09375,-0.28125 0,-0.09896 0.02604,-0.16016 0.0625,-0.21875 0.03646,-0.0599 0.06771,-0.125 0.125,-0.15625 0.05859,-0.03125 0.11588,-0.0534 0.1875,-0.0625 z  m -16.7812,.625 0,.4062 .375,0 0,-.4062 -.375,0 z  m -1.7188,9.0938 0,.8438 0,.0625 c 0.0013,0.02865 -2e-06,0.0612 0,0.09375 v 0.0625 c 0.0013,0.02734 -2e-06,0.056 0,0.0625 -0.0638,-0.127602 -0.14323,-0.22526 -0.25,-0.28125 -0.10547,-0.05598 -0.248699,-0.0625 -0.40625,-0.0625 -0.510417,3e-06 -0.75,0.356773 -0.75,1.09375 0,0.364584 0.0638,0.631511 0.1875,0.8125 0.123697,0.180985 0.299479,0.28125 0.5625,0.28125 0.157551,0 0.30078,-0.03255 0.40625,-0.09375 0.105468,-0.0625 0.1862,-0.175781 0.25,-0.3125 0,0.03385 -0.0013,0.08724 0,0.125 0.0013,0.03776 -0.0013,0.0612 0,0.09375 0.0026,0.03256 0.02865,0.07031 0.03125,0.09375 0.0026,0.02344 -0.0013,0.02605 0,0.03125 h 0.34375 c -0.0013,-0.01172 -0.02995,-0.03516 -0.03125,-0.0625 -0.0013,-0.02864 0.0013,-0.05469 0,-0.09375 -0.0013,-0.03907 0.0013,-0.07813 0,-0.125 v -0.15625 -2.46875 h -0.34375 z  m 1.7812,0 0,.375 .375,0 0,-.375 -.375,0 z  m 7.9375,0 -1.5938,2.9375 .375,0 1.5938,-2.9375 -.375,0 z  m .9375,0 0,2.9062 .375,0 0,-1.2188 c 0,-0.105467 0.0026,-0.20052 0.03125,-0.28125 0.02865,-0.08203 0.07552,-0.13281 0.125,-0.1875 0.05078,-0.05599 0.08984,-0.1276 0.15625,-0.15625 0.06771,-0.02994 0.14193,-0.03125 0.21875,-0.03125 0.0625,0 0.13542,0.01563 0.1875,0.03125 0.05209,0.01562 0.08724,0.02214 0.125,0.0625 0.03906,0.03906 0.07292,0.11979 0.09375,0.1875 0.02213,0.06641 0.03125,0.145835 0.03125,0.25 v 1.34375 h 0.34375 v -1.40625 c 0,-0.131508 0,-0.25 -0.03125,-0.34375 -0.02995,-0.09375 -0.06641,-0.15885 -0.125,-0.21875 -0.0586,-0.05989 -0.13412,-0.09635 -0.21875,-0.125 -0.08464,-0.02865 -0.204429,-0.0625 -0.3125,-0.0625 -0.08334,0 -0.14974,0.01172 -0.21875,0.03125 -0.06771,0.01823 -0.13412,0.0586 -0.1875,0.09375 -0.05339,0.03386 -0.08333,0.07552 -0.125,0.125 -0.04166,0.04948 -0.09375,0.09505 -0.125,0.15625 0.0039,-0.05989 -0.0039,-0.12239 0,-0.1875 0.0039,-0.0664 0.03125,-0.12239 0.03125,-0.1875 v -0.78125 h -0.375 z  m 11.0625,0 -1.5938,2.9375 .3438,0 1.5938,-2.9375 -.3438,0 z  m 14.4062,0 -1.625,2.9375 .375,0 1.5938,-2.9375 -.3438,0 z  m 1.375,.25 -.125,.5625 -.3125,0 0,.25 .3125,0 0,1.3125 c -1e-06,0.192709 0.05078,0.34766 0.15625,0.4375 0.105468,0.08854 0.289062,0.125 0.5,0.125 0.07031,0 0.12109,0.0065 0.1875,0 0.06641,-0.0065 0.13151,-0.02215 0.1875,-0.03125 0.05729,-0.0091 0.11068,-0.02083 0.15625,-0.03125 0.04557,-0.01041 0.09635,-0.02345 0.125,-0.03125 v -0.25 c -0.03125,0.0065 -0.07943,-0.0078 -0.125,0 -0.04427,0.0078 -0.10417,0.02475 -0.15625,0.03125 -0.05078,0.0065 -0.10026,0.02605 -0.15625,0.03125 -0.05469,0.0039 -0.10417,0 -0.15625,0 -0.126303,0 -0.22526,-0.01302 -0.28125,-0.0625 -0.05469,-0.04948 -0.0625,-0.147135 -0.0625,-0.25 v -1.28125 h 0.84375 v -0.25 h -0.84375 v -0.5625 h -0.25 z  m -4.4062,.0312 c -0.03386,0.06511 -0.09375,0.13282 -0.15625,0.1875 -0.0625,0.05469 -0.13802,0.08464 -0.21875,0.125 -0.08073,0.03907 -0.15625,0.07162 -0.25,0.09375 -0.09245,0.02213 -0.1849,0.03125 -0.28125,0.03125 v 0.28125 c 0.08594,0 0.15755,0.01953 0.25,0 0.09245,-0.02083 0.20052,-0.05989 0.28125,-0.09375 0.08203,-0.03385 0.15625,-0.07943 0.21875,-0.125 0.0625,-0.04687 0.10026,-0.10417 0.125,-0.15625 v 2 h -0.875 v 0.28125 h 1.90625 v -0.28125 h -0.6875 v -2.34375 h -0.3125 z  m -28.3438,.4688 c -0.106772,0 -0.20573,0.03776 -0.28125,0.0625 -0.07552,0.02474 -0.13151,0.04818 -0.1875,0.09375 -0.05469,0.04557 -0.11589,0.09115 -0.15625,0.15625 -0.04037,0.06511 -0.05729,0.13802 -0.09375,0.21875 h -0.03125 c -0.0026,-0.03776 0.0065,-0.08073 0,-0.125 -0.0065,-0.04427 -0.02215,-0.08203 -0.03125,-0.125 -0.0091,-0.04427 -0.02083,-0.08463 -0.03125,-0.125 -0.0091,-0.04036 -0.02215,-0.0625 -0.03125,-0.09375 h -0.3125 c 0.0078,0.03125 0.01953,0.07162 0.03125,0.125 0.01171,0.05339 0.02083,0.08854 0.03125,0.15625 0.01041,0.06641 0.02345,0.14323 0.03125,0.21875 0.0078,0.07552 -1e-06,0.14583 0,0.21875 v 1.375 h 0.34375 v -1 c -1e-05,-0.114582 0.03125,-0.210936 0.0625,-0.3125 0.03255,-0.101561 0.0651,-0.17448 0.125,-0.25 0.0599,-0.07682 0.13151,-0.14323 0.21875,-0.1875 0.08724,-0.04427 0.203124,-0.0625 0.3125,-0.0625 0.08073,0 0.15234,-0.0078 0.21875,0 0.06771,0.0065 0.1263,0.02083 0.1875,0.03125 v -0.34375 c -0.05469,-0.0091 -0.11719,0.0065 -0.1875,0 -0.07032,-0.0065 -0.14583,-0.03125 -0.21875,-0.03125 z  m 9.1562,0 c -0.302084,2e-06 -0.553386,0.09766 -0.71875,0.28125 -0.164064,0.182294 -0.21875,0.44922 -0.21875,0.8125 0,0.186199 0.01823,0.36198 0.0625,0.5 0.04427,0.136719 0.10677,0.2526 0.1875,0.34375 0.08203,0.09115 0.166666,0.14323 0.28125,0.1875 0.115885,0.04427 0.264322,0.0625 0.40625,0.0625 0.148436,0 0.257811,-0.01823 0.375,-0.0625 0.118488,-0.04557 0.23047,-0.09635 0.3125,-0.1875 0.08203,-0.09115 0.14453,-0.207031 0.1875,-0.34375 0.04427,-0.13802 0.0625,-0.315103 0.0625,-0.5 -2e-06,-0.367186 -0.0638,-0.631508 -0.21875,-0.8125 -0.154949,-0.180984 -0.401043,-0.281248 -0.71875,-0.28125 z  m 2.125,0 c -0.05989,0 -0.11068,0.01042 -0.15625,0.03125 -0.04557,0.01953 -0.09115,0.0586 -0.125,0.09375 -0.03255,0.03516 -0.07031,0.07813 -0.09375,0.125 -0.02344,0.04557 -0.04557,0.10547 -0.0625,0.15625 0,-0.02604 0.0013,-0.05729 0,-0.09375 0,-0.03646 0.0013,-0.09114 0,-0.125 -0.0013,-0.03516 0.0013,-0.06771 0,-0.09375 -0.0013,-0.02734 0.0013,-0.02475 0,-0.03125 h -0.3125 c 0.0013,0.0091 0.02995,0.03125 0.03125,0.0625 0.0013,0.03125 -0.0013,0.04948 0,0.09375 0.0013,0.04297 0,0.10677 0,0.15625 0.0013,0.04818 -1e-06,0.08073 0,0.125 v 1.65625 h 0.3125 v -1.1875 c 0,-0.105468 0.01823,-0.19661 0.03125,-0.28125 0.01302,-0.08593 0.03776,-0.15885 0.0625,-0.21875 0.02474,-0.0612 0.05989,-0.09245 0.09375,-0.125 0.03386,-0.03385 0.05078,-0.0625 0.09375,-0.0625 0.04167,0 0.09766,0.01302 0.125,0.03125 0.02864,0.01693 0.04557,0.05078 0.0625,0.09375 0.01823,0.04167 0.02345,0.08724 0.03125,0.15625 0.0078,0.06901 -1e-06,0.147137 0,0.25 v 1.34375 h 0.34375 v -1.21875 c 0,-0.218748 0.01302,-0.390624 0.0625,-0.5 0.05078,-0.109373 0.13281,-0.156248 0.21875,-0.15625 0.04167,0 0.0664,0.01302 0.09375,0.03125 0.02864,0.01693 0.04557,0.05078 0.0625,0.09375 0.01823,0.04167 0.0547,0.08724 0.0625,0.15625 0.0078,0.06901 -2e-06,0.147137 0,0.25 v 1.34375 h 0.3125 v -1.40625 c 0,-0.131508 0.01562,-0.25 0,-0.34375 -0.01433,-0.09375 -0.0599,-0.15885 -0.09375,-0.21875 -0.03385,-0.05989 -0.07031,-0.09635 -0.125,-0.125 -0.05469,-0.02865 -0.10807,-0.0625 -0.1875,-0.0625 -0.0612,0 -0.10938,0.01433 -0.15625,0.03125 -0.04688,0.01693 -0.08854,0.0612 -0.125,0.09375 -0.03646,0.03255 -0.09636,0.04557 -0.125,0.09375 -0.02734,0.04688 -0.03906,0.1263 -0.0625,0.1875 -0.02474,-0.130206 -0.06771,-0.25 -0.125,-0.3125 -0.05599,-0.0625 -0.135417,-0.09375 -0.25,-0.09375 z  m 2.6875,0 c -0.125001,0 -0.260418,0.02604 -0.375,0.0625 -0.113282,0.03646 -0.22526,0.10287 -0.3125,0.1875 -0.08724,0.08464 -0.13542,0.205731 -0.1875,0.34375 -0.05078,0.138023 -0.09375,0.296876 -0.09375,0.5 0,0.183595 0.01953,0.329428 0.0625,0.46875 0.04427,0.138021 0.10547,0.28255 0.1875,0.375 0.08203,0.09245 0.19401,0.14063 0.3125,0.1875 0.118489,0.04687 0.256509,0.0625 0.40625,0.0625 0.135415,0 0.24479,-0.0013 0.34375,-0.03125 0.09896,-0.03125 0.18099,-0.07813 0.25,-0.125 0.06901,-0.04818 0.14583,-0.09766 0.1875,-0.15625 0.04167,-0.0599 0.07292,-0.12891 0.09375,-0.1875 l -.3125,-.0625 c -0.01563,0.04688 -0.0612,0.08464 -0.09375,0.125 -0.03255,0.03906 -0.07682,0.0651 -0.125,0.09375 -0.04818,0.02865 -0.09505,0.04557 -0.15625,0.0625 -0.0599,0.01564 -0.11589,0.03125 -0.1875,0.03125 -0.09636,0 -0.17578,-0.02604 -0.25,-0.0625 -0.07292,-0.03776 -0.13802,-0.08984 -0.1875,-0.15625 -0.04948,-0.06771 -0.10026,-0.1263 -0.125,-0.21875 -0.02474,-0.09375 -0.03125,-0.201822 -0.03125,-0.3125 h 1.5 v -0.0625 c 0,-0.166666 0.0026,-0.299477 -0.03125,-0.4375 -0.03255,-0.138019 -0.08203,-0.27734 -0.15625,-0.375 -0.07422,-0.09896 -0.194012,-0.16406 -0.3125,-0.21875 -0.117189,-0.05468 -0.235678,-0.09375 -0.40625,-0.09375 z  m 9.5938,0 c -0.125001,0 -0.260418,0.02604 -0.375,0.0625 -0.113282,0.03646 -0.22526,0.10287 -0.3125,0.1875 -0.08724,0.08464 -0.13542,0.205731 -0.1875,0.34375 -0.05078,0.138023 -0.09375,0.296876 -0.09375,0.5 0,0.183595 0.01953,0.329428 0.0625,0.46875 0.04427,0.138021 0.10547,0.28255 0.1875,0.375 0.08203,0.09245 0.19401,0.14063 0.3125,0.1875 0.118489,0.04687 0.256509,0.0625 0.40625,0.0625 0.135415,0 0.24479,-0.0013 0.34375,-0.03125 0.09896,-0.03125 0.18099,-0.07813 0.25,-0.125 0.06901,-0.04818 0.14583,-0.09766 0.1875,-0.15625 0.04167,-0.0599 0.07292,-0.12891 0.09375,-0.1875 l -.3125,-.0625 c -0.01563,0.04688 -0.0612,0.08464 -0.09375,0.125 -0.03255,0.03906 -0.04557,0.0651 -0.09375,0.09375 -0.04818,0.02865 -0.1263,0.04557 -0.1875,0.0625 -0.0599,0.01564 -0.11589,0.03125 -0.1875,0.03125 -0.09636,0 -0.17578,-0.02604 -0.25,-0.0625 -0.07292,-0.03776 -0.13802,-0.08984 -0.1875,-0.15625 -0.04948,-0.06771 -0.10026,-0.1263 -0.125,-0.21875 -0.02474,-0.09375 -0.03125,-0.201822 -0.03125,-0.3125 h 1.5 v -0.0625 c 0,-0.166666 0.0026,-0.299477 -0.03125,-0.4375 -0.03255,-0.138019 -0.08203,-0.27734 -0.15625,-0.375 -0.07422,-0.09896 -0.194012,-0.16406 -0.3125,-0.21875 -0.117189,-0.05468 -0.235678,-0.09375 -0.40625,-0.09375 z  m 2.8125,0 c -0.106772,0 -0.20573,0.03776 -0.28125,0.0625 -0.07552,0.02474 -0.13151,0.04818 -0.1875,0.09375 -0.05469,0.04557 -0.08464,0.09115 -0.125,0.15625 -0.04036,0.06511 -0.08854,0.13802 -0.125,0.21875 -0.0026,-0.03776 -0.02475,-0.08073 -0.03125,-0.125 -0.0065,-0.04427 -0.02215,-0.08203 -0.03125,-0.125 -0.0091,-0.04427 -0.02083,-0.08463 -0.03125,-0.125 -0.0091,-0.04036 0.0091,-0.0625 0,-0.09375 h -0.34375 c 0.0078,0.03125 0.01953,0.07162 0.03125,0.125 0.01172,0.05339 0.02083,0.08854 0.03125,0.15625 0.01041,0.06641 0.02345,0.14323 0.03125,0.21875 0.0078,0.07552 0,0.14583 0,0.21875 v 1.375 h 0.34375 v -1 c -1e-05,-0.114582 0.03125,-0.210936 0.0625,-0.3125 0.03255,-0.101561 0.0651,-0.17448 0.125,-0.25 0.05989,-0.07682 0.13151,-0.14323 0.21875,-0.1875 0.08724,-0.04427 0.203123,-0.0625 0.3125,-0.0625 0.08073,0 0.15234,-0.0078 0.21875,0 0.06771,0.0065 0.1263,0.02083 0.1875,0.03125 v -0.34375 c -0.05469,-0.0091 -0.11719,0.0065 -0.1875,0 -0.07031,-0.0065 -0.14583,-0.03125 -0.21875,-0.03125 z  m 8.875,0 c -0.05989,0 -0.11068,0.01042 -0.15625,0.03125 -0.04557,0.01953 -0.09115,0.0586 -0.125,0.09375 -0.03255,0.03516 -0.03906,0.07813 -0.0625,0.125 -0.02344,0.04557 -0.04557,0.10547 -0.0625,0.15625 0,-0.02604 0.0013,-0.05729 0,-0.09375 0,-0.03646 -0.02995,-0.09114 -0.03125,-0.125 -0.0013,-0.03516 0.0013,-0.06771 0,-0.09375 -0.0013,-0.02734 0.0013,-0.02475 0,-0.03125 h -0.28125 c 0.0013,0.0091 -0.0013,0.03125 0,0.0625 0.0013,0.03125 -0.0013,0.04948 0,0.09375 0.0013,0.04297 0,0.10677 0,0.15625 0.0013,0.04818 -1e-06,0.08073 0,0.125 v 1.65625 h 0.34375 v -1.1875 c 0,-0.105468 0.01823,-0.19661 0.03125,-0.28125 0.01302,-0.08593 0.0065,-0.15885 0.03125,-0.21875 0.02474,-0.0612 0.05989,-0.09245 0.09375,-0.125 0.03386,-0.03385 0.08203,-0.0625 0.125,-0.0625 0.04167,0 0.06641,0.01302 0.09375,0.03125 0.02864,0.01693 0.04557,0.05078 0.0625,0.09375 0.01823,0.04167 0.0547,0.08724 0.0625,0.15625 0.0078,0.06901 -1e-06,0.147137 0,0.25 v 1.34375 h 0.3125 v -1.21875 c 0,-0.218748 0.04427,-0.390624 0.09375,-0.5 0.05078,-0.109373 0.10156,-0.156248 0.1875,-0.15625 0.04167,0 0.09765,0.01302 0.125,0.03125 0.02864,0.01693 0.04557,0.05078 0.0625,0.09375 0.01823,0.04167 0.02345,0.08724 0.03125,0.15625 0.0078,0.06901 -2e-06,0.147137 0,0.25 v 1.34375 h 0.34375 v -1.40625 c 0,-0.131508 -0.01563,-0.25 -0.03125,-0.34375 -0.01433,-0.09375 -0.02865,-0.15885 -0.0625,-0.21875 -0.03385,-0.05989 -0.07031,-0.09635 -0.125,-0.125 -0.05469,-0.02865 -0.13932,-0.0625 -0.21875,-0.0625 -0.0612,0 -0.10938,0.01433 -0.15625,0.03125 -0.04688,0.01693 -0.08854,0.0612 -0.125,0.09375 -0.03646,0.03255 -0.06511,0.04557 -0.09375,0.09375 -0.02734,0.04688 -0.07031,0.1263 -0.09375,0.1875 -0.02474,-0.130206 -0.06771,-0.25 -0.125,-0.3125 -0.05599,-0.0625 -0.135417,-0.09375 -0.25,-0.09375 z  m 2.8438,0 c -0.08073,1e-05 -0.15365,0.01563 -0.21875,0.03125 -0.06511,0.01432 -0.10417,0.02995 -0.15625,0.0625 -0.05208,0.03125 -0.11458,0.07552 -0.15625,0.125 -0.04037,0.04948 -0.0612,0.11979 -0.09375,0.1875 h -0.03125 c 0,-0.03385 0.0026,-0.08594 0,-0.125 -0.0013,-0.03907 0.0026,-0.05989 0,-0.09375 -0.0013,-0.03386 0.0026,-0.07031 0,-0.09375 -0.0013,-0.02474 0.0013,-0.02735 0,-0.03125 h -0.34375 c 0.0013,0.01172 -0.0013,0.0039 0,0.03125 0.0013,0.02735 -0.0013,0.08594 0,0.125 0.0013,0.03777 0,0.07682 0,0.125 0.0013,0.04818 0,0.10417 0,0.15625 v 2.5 h 0.34375 v -0.84375 c 0,-0.03776 0.0013,-0.05599 0,-0.09375 0,-0.03776 0.0013,-0.09505 0,-0.125 0,-0.02995 0.0013,-0.04297 0,-0.0625 0.02769,0.05507 0.08727,0.08499 0.125,0.125 0.04427,0.04558 0.10026,0.09635 0.15625,0.125 0.05599,0.02865 0.12239,0.04948 0.1875,0.0625 0.0651,0.01303 0.11588,0 0.1875,0 0.143228,0 0.27734,-0.0078 0.375,-0.0625 0.09766,-0.05599 0.15885,-0.15234 0.21875,-0.25 0.0599,-0.09766 0.09896,-0.208333 0.125,-0.34375 0.02604,-0.135416 0.0625,-0.277342 0.0625,-0.4375 0,-0.162759 -0.03646,-0.303384 -0.0625,-0.4375 -0.02604,-0.134113 -0.06511,-0.2487 -0.125,-0.34375 -0.0599,-0.09635 -0.1211,-0.16666 -0.21875,-0.21875 -0.09766,-0.05209 -0.231772,-0.09375 -0.375,-0.09375 z  m -16.9375,.0312 c -0.261719,2e-06 -0.45573,0.04818 -0.59375,0.15625 -0.138021,0.108074 -0.218751,0.246096 -0.21875,0.4375 0,0.100262 0.02344,0.1849 0.0625,0.25 0.04037,0.06511 0.09245,0.11328 0.15625,0.15625 0.0651,0.04166 0.13672,0.06771 0.21875,0.09375 0.08203,0.02605 0.16667,0.07162 0.25,0.09375 0.09245,0.02474 0.17187,0.04297 0.25,0.0625 0.07943,0.01953 0.16146,0.03516 0.21875,0.0625 0.05729,0.02735 0.09244,0.05336 0.125,0.09375 0.03385,0.03906 0.0625,0.09115 0.0625,0.15625 -1e-05,0.0625 -0.0039,0.11328 -0.03125,0.15625 -0.02605,0.04167 -0.07813,0.09766 -0.125,0.125 -0.04688,0.02604 -0.09115,0.05078 -0.15625,0.0625 -0.0638,0.01043 -0.14323,1e-06 -0.21875,0 -0.07422,0 -0.15495,0.0065 -0.21875,0 -0.0638,-0.0078 -0.10677,-0.04036 -0.15625,-0.0625 -0.04818,-0.02213 -0.08984,-0.05208 -0.125,-0.09375 -0.03386,-0.04297 -0.04687,-0.08463 -0.0625,-0.15625 l -.3125,.0625 c 0.02343,0.09896 0.04427,0.18229 0.09375,0.25 0.05078,0.06641 0.11328,0.11588 0.1875,0.15625 0.07422,0.04037 0.15234,0.07682 0.25,0.09375 0.09896,0.01824 0.221353,0 0.34375,0 0.136718,0 0.26953,-0.0013 0.375,-0.03125 0.10677,-0.02995 0.17708,-0.07031 0.25,-0.125 0.07292,-0.05599 0.14974,-0.13932 0.1875,-0.21875 0.03906,-0.07943 0.03125,-0.15104 0.03125,-0.25 h 0.03125 c -1e-05,-0.108072 -0.04557,-0.21094 -0.09375,-0.28125 -0.04688,-0.07161 -0.11328,-0.11068 -0.1875,-0.15625 -0.07292,-0.04557 -0.12891,-0.09766 -0.21875,-0.125 -0.08854,-0.02735 -0.19662,-0.04167 -0.28125,-0.0625 -0.08464,-0.02213 -0.14844,-0.04557 -0.21875,-0.0625 -0.07031,-0.01823 -0.13672,-0.03776 -0.1875,-0.0625 -0.05078,-0.02474 -0.09636,-0.05729 -0.125,-0.09375 -0.02735,-0.03776 -0.03125,-0.09635 -0.03125,-0.15625 -1e-06,-0.196612 0.149739,-0.281248 0.46875,-0.28125 0.05989,0 0.13281,-0.0078 0.1875,0 0.05468,0.0078 0.08203,0.04037 0.125,0.0625 0.04427,0.02084 0.09505,0.02604 0.125,0.0625 0.02994,0.03646 0.0534,0.09766 0.0625,0.15625 l .3125,-.0312 c -0.01823,-0.08984 -0.04557,-0.1862 -0.09375,-0.25 -0.04688,-0.0651 -0.11719,-0.11588 -0.1875,-0.15625 -0.07031,-0.04166 -0.16016,-0.07552 -0.25,-0.09375 -0.08984,-0.0195 -0.178386,2e-06 -0.28125,0 z  m -24.7188,.0312 v 0.25 h 0.625 v 1.5625 h -0.8125 v 0.28125 h 1.90625 v -0.28125 h -0.75 v -1.8125 h -0.96875 z  m 21.4688,0 0,1.4062 c 0,0.130209 0.0065,0.21745 0.03125,0.3125 0.02604,0.09375 0.07031,0.1901 0.125,0.25 0.05469,0.05989 0.13411,0.09635 0.21875,0.125 0.08463,0.02865 0.164062,0.03125 0.28125,0.03125 0.09114,0 0.18099,0.01953 0.25,0 0.06901,-0.01823 0.13411,-0.0599 0.1875,-0.09375 0.05338,-0.03515 0.11588,-0.07552 0.15625,-0.125 0.04036,-0.04948 0.05989,-0.09505 0.09375,-0.15625 0,0.02604 -0.0013,0.05469 0,0.09375 v 0.09375 c 0.0026,0.03646 0.02995,0.09635 0.03125,0.125 0.0013,0.02864 -0.0013,0.02475 0,0.03125 h 0.3125 c -0.0013,-0.0091 0.0013,-0.03125 0,-0.0625 -0.0013,-0.03125 0.0013,-0.05078 0,-0.09375 -0.0013,-0.04427 0.0013,-0.10807 0,-0.15625 v -0.125 -1.65625 h -0.34375 v 1.21875 c 0,0.105469 -0.03646,0.19922 -0.0625,0.28125 -0.02475,0.08073 -0.04557,0.13151 -0.09375,0.1875 -0.04688,0.05468 -0.11979,0.09505 -0.1875,0.125 -0.06641,0.02865 -0.13542,0.0625 -0.21875,0.0625 -0.08203,0 -0.13151,-0.01432 -0.1875,-0.03125 -0.05468,-0.01823 -0.12109,-0.05208 -0.15625,-0.09375 -0.03386,-0.04297 -0.04688,-0.08724 -0.0625,-0.15625 -0.01428,-0.06901 -0.03125,-0.178385 -0.03125,-0.28125 v -1.3125 h -0.34375 z  m -16.9062,.125 v 0.3125 h 1.9375 v -0.3125 h -1.9375 z  m -6.3125,.0938 c 0.08984,1e-05 0.18099,0.0039 0.25,0.03125 0.06901,0.02735 0.10937,0.09375 0.15625,0.15625 0.04687,0.0625 0.10156,0.115887 0.125,0.21875 0.02474,0.101564 0.03125,0.25521 0.03125,0.40625 0,0.156251 -0.0065,0.265626 -0.03125,0.375 -0.02344,0.109375 -0.07682,0.21224 -0.125,0.28125 -0.04688,0.06771 -0.08594,0.125 -0.15625,0.15625 -0.06901,0.03125 -0.16016,0.03125 -0.25,0.03125 -0.08724,1e-05 -0.15625,0 -0.21875,-0.03125 -0.0625,-0.03255 -0.11589,-0.08854 -0.15625,-0.15625 -0.03906,-0.06771 -0.07422,-0.145832 -0.09375,-0.25 -0.01824,-0.104166 -0.03125,-0.229165 -0.03125,-0.375 0,-0.15104 0.01042,-0.30078 0.03125,-0.40625 0.02084,-0.10677 0.05338,-0.18359 0.09375,-0.25 0.04167,-0.0664 0.09375,-0.1263 0.15625,-0.15625 0.0625,-0.02994 0.13542,-0.03125 0.21875,-0.03125 z  m 14.4688,0 c 0.08333,0 0.14974,0.0052 0.21875,0.03125 0.06901,0.02474 0.13802,0.0612 0.1875,0.125 0.05078,0.0638 0.09765,0.143231 0.125,0.25 0.02865,0.106772 0.03125,0.242189 0.03125,0.40625 0,0.164063 -0.0013,0.298178 -0.03125,0.40625 -0.02864,0.108073 -0.07292,0.21745 -0.125,0.28125 -0.05208,0.06381 -0.11458,0.09896 -0.1875,0.125 -0.07162,0.02474 -0.16537,0.03125 -0.25,0.03125 -0.07422,0 -0.11849,-0.0052 -0.1875,-0.03125 -0.06771,-0.02604 -0.13542,-0.0612 -0.1875,-0.125 -0.05078,-0.0638 -0.09375,-0.174479 -0.125,-0.28125 -0.02995,-0.108072 -0.0625,-0.242187 -0.0625,-0.40625 0,-0.160155 0.03385,-0.268228 0.0625,-0.375 0.02994,-0.106769 0.07422,-0.21745 0.125,-0.28125 0.05208,-0.0651 0.11588,-0.09896 0.1875,-0.125 0.07161,-0.02735 0.13411,-0.03125 0.21875,-0.03125 z  m 4.8125,0 c 0.07031,0 0.1237,0.01042 0.1875,0.03125 0.0638,0.02084 0.13802,0.04427 0.1875,0.09375 0.05078,0.04948 0.09114,0.10547 0.125,0.1875 0.03386,0.08203 0.05208,0.190106 0.0625,0.3125 h -1.15625 c 0.0039,-0.127602 0.02474,-0.23047 0.0625,-0.3125 0.03906,-0.08333 0.10026,-0.13932 0.15625,-0.1875 0.05599,-0.04818 0.12239,-0.07552 0.1875,-0.09375 0.06641,-0.0195 0.1276,-0.03125 0.1875,-0.03125 z  m 9.5938,0 c 0.07031,0 0.1237,0.01042 0.1875,0.03125 0.0638,0.02084 0.13802,0.04427 0.1875,0.09375 0.05078,0.04948 0.09114,0.10547 0.125,0.1875 0.03386,0.08203 0.05208,0.190106 0.0625,0.3125 h -1.15625 c 0.0039,-0.127602 0.02474,-0.23047 0.0625,-0.3125 0.03906,-0.08333 0.10026,-0.13932 0.15625,-0.1875 0.05599,-0.04818 0.12239,-0.07552 0.1875,-0.09375 0.06641,-0.0195 0.1276,-0.03125 0.1875,-0.03125 z  m 14.4375,0 c 0.09505,1e-05 0.1875,0.02604 0.25,0.0625 0.0638,0.03646 0.11849,0.08594 0.15625,0.15625 0.03906,0.06901 0.04687,0.148439 0.0625,0.25 0.01564,0.101564 0.03125,0.213543 0.03125,0.34375 0,0.135418 -0.01432,0.269533 -0.03125,0.375 -0.01562,0.10547 -0.02344,0.17839 -0.0625,0.25 -0.03776,0.07161 -0.09245,0.11849 -0.15625,0.15625 -0.0638,0.03646 -0.15495,0.0625 -0.25,0.0625 -0.08854,1e-05 -0.14974,-0.0039 -0.21875,-0.03125 -0.06901,-0.02734 -0.14063,-0.0625 -0.1875,-0.125 -0.04687,-0.0638 -0.06901,-0.148437 -0.09375,-0.25 -0.02344,-0.102863 -0.0625,-0.256509 -0.0625,-0.40625 0,-0.17578 0.03385,-0.294269 0.0625,-0.40625 0.02995,-0.111977 0.07552,-0.21875 0.125,-0.28125 0.05078,-0.0638 0.08854,-0.10156 0.15625,-0.125 0.06771,-0.02474 0.14193,-0.03125 0.21875,-0.03125 z  m -37,.9062 0,.3125 1.9375,0 0,-.3125 -1.9375,0 z  m 3.8438,3.875 0,.8125 0,.0625 c 0.0013,0.02865 -2e-06,0.0612 0,0.09375 v 0.09375 c 0.0013,0.02734 -2e-06,0.056 0,0.0625 -0.0638,-0.127603 -0.14323,-0.22526 -0.25,-0.28125 -0.10547,-0.05598 -0.248699,-0.09375 -0.40625,-0.09375 -0.510417,2e-06 -0.75,0.388023 -0.75,1.125 0,0.364584 0.0638,0.631511 0.1875,0.8125 0.123697,0.180994 0.299479,0.25 0.5625,0.25 0.157551,0 0.30078,-0.0013 0.40625,-0.0625 0.105468,-0.0625 0.1862,-0.175781 0.25,-0.3125 0,0.03385 -0.0013,0.05599 0,0.09375 0.0013,0.03776 -0.0013,0.09245 0,0.125 0.0026,0.03255 0.02865,0.03906 0.03125,0.0625 0.0026,0.02344 -0.0013,0.0573 0,0.0625 h 0.34375 c -0.0013,-0.01172 -0.02995,-0.03516 -0.03125,-0.0625 -0.0013,-0.02864 0.0013,-0.05469 0,-0.09375 -0.0013,-0.03907 0.0013,-0.07812 0,-0.125 v -0.15625 -2.46875 h -0.34375 z  m 1.7812,0 0,.375 .375,0 0,-.375 -.375,0 z  m 5.5625,0 -1.625,2.9375 .375,0 1.5938,-2.9375 -.3438,0 z  m 1.625,0 .0312,.5938 -.5312,-.2188 -.0625,.25 .5312,.1562 -.375,.4688 .25,.1562 .2812,-.5 .3125,.5 .2188,-.125 -.3438,-.5 .5312,-.1562 -.0938,-.25 -.5,.2188 .0312,-.5938 -.2812,0 z  m 15.1562,0 -1.5938,2.9375 .3438,0 1.5938,-2.9375 -.3438,0 z  m .9375,0 0,2.9062 .3438,0 0,-1.2188 c 0,-0.105467 0.0026,-0.20052 0.03125,-0.28125 0.02865,-0.08203 0.07552,-0.16406 0.125,-0.21875 0.05078,-0.05598 0.12109,-0.09635 0.1875,-0.125 0.06771,-0.02994 0.14193,-0.03125 0.21875,-0.03125 0.0625,0 0.10417,-0.01562 0.15625,0 0.05209,0.01562 0.11849,0.05339 0.15625,0.09375 0.03906,0.03907 0.04167,0.08854 0.0625,0.15625 0.02213,0.06641 0.03125,0.145835 0.03125,0.25 v 1.375 h 0.375 v -1.40625 c 0,-0.131509 -0.03125,-0.25 -0.0625,-0.34375 -0.02995,-0.09375 -0.06641,-0.15885 -0.125,-0.21875 -0.05859,-0.05989 -0.13412,-0.1276 -0.21875,-0.15625 -0.08464,-0.02865 -0.173179,-0.03125 -0.28125,-0.03125 -0.08333,1e-05 -0.14974,0.01172 -0.21875,0.03125 -0.06771,0.01823 -0.13412,0.02735 -0.1875,0.0625 -0.05339,0.03386 -0.11458,0.07552 -0.15625,0.125 -0.04167,0.04948 -0.0625,0.1263 -0.09375,0.1875 0.0039,-0.05989 -0.0039,-0.12239 0,-0.1875 0.0039,-0.06641 0,-0.15364 0,-0.21875 v -0.75 h -0.34375 z  m 11.0625,0 -1.625,2.9375 .375,0 1.5938,-2.9375 -.3438,0 z  m -39.125,.0312 0,.25 c -0.121094,0.0039 -0.240887,0.0052 -0.34375,0.03125 -0.101563,0.02605 -0.17578,0.07292 -0.25,0.125 -0.07422,0.05078 -0.14583,0.10938 -0.1875,0.1875 -0.04167,0.07682 -0.0625,0.174481 -0.0625,0.28125 0,0.08203 0.01172,0.15495 0.03125,0.21875 0.02084,0.0625 0.05729,0.10807 0.09375,0.15625 0.03646,0.04688 0.07552,0.08854 0.125,0.125 0.04948,0.03516 0.09896,0.06771 0.15625,0.09375 0.05729,0.02474 0.1237,0.04297 0.1875,0.0625 0.0638,0.01823 0.1237,0.04688 0.1875,0.0625 0.0026,0 0.02735,-0.0013 0.03125,0 0.0091,0.0026 0.02083,-0.0026 0.03125,0 v 0.96875 c -0.100261,-0.0052 -0.17708,-0.03646 -0.25,-0.0625 -0.07292,-0.02734 -0.13672,-0.04948 -0.1875,-0.09375 -0.04948,-0.04427 -0.09505,-0.09766 -0.125,-0.15625 -0.02864,-0.05989 -0.04818,-0.11719 -0.0625,-0.1875 l -.3438,.0625 c 0.04427,0.217449 0.154948,0.378907 0.3125,0.5 0.158854,0.119789 0.376302,0.20965 0.65625,0.21875 v 0.3125 h 0.25 v -0.3125 c 0.154947,-0.0065 0.292967,-0.02604 0.40625,-0.0625 0.114581,-0.03776 0.20703,-0.09505 0.28125,-0.15625 0.07422,-0.0625 0.11979,-0.13542 0.15625,-0.21875 0.03646,-0.08333 0.0625,-0.18359 0.0625,-0.28125 -1e-05,-0.09375 -0.0078,-0.17969 -0.03125,-0.25 -0.02344,-0.07031 -0.05078,-0.13542 -0.09375,-0.1875 -0.04167,-0.05339 -0.09896,-0.08724 -0.15625,-0.125 -0.05729,-0.03776 -0.11979,-0.0664 -0.1875,-0.09375 -0.06641,-0.02865 -0.14453,-0.04297 -0.21875,-0.0625 -0.07422,-0.02083 -0.14323,-0.04427 -0.21875,-0.0625 v -0.84375 c 0.07682,0.0052 0.16146,0.0091 0.21875,0.03125 0.05729,0.02083 0.08463,0.05599 0.125,0.09375 0.04166,0.03646 0.06901,0.07292 0.09375,0.125 0.02604,0.05078 0.04948,0.125 0.0625,0.1875 l .3438,-.0625 c -0.02604,-0.09896 -0.05209,-0.20573 -0.09375,-0.28125 -0.04167,-0.07682 -0.08985,-0.13542 -0.15625,-0.1875 -0.06641,-0.05208 -0.15495,-0.09635 -0.25,-0.125 -0.09375,-0.02864 -0.210939,-0.02605 -0.34375,-0.03125 v -0.25 h -0.25 z  m 50.4688,.1875 c -0.138022,0 -0.238282,0.02474 -0.34375,0.0625 -0.105469,0.03776 -0.20833,0.08985 -0.28125,0.15625 -0.07161,0.06511 -0.11458,0.13151 -0.15625,0.21875 -0.04167,0.08724 -0.08203,0.18229 -0.09375,0.28125 l .3438,.0312 c 0.0091,-0.07682 0.03385,-0.13021 0.0625,-0.1875 0.02865,-0.05859 0.07943,-0.11719 0.125,-0.15625 0.04557,-0.03906 0.09635,-0.07422 0.15625,-0.09375 0.0612,-0.0195 0.11719,-0.03125 0.1875,-0.03125 0.07682,0 0.15625,0.01302 0.21875,0.03125 0.0638,0.01693 0.11068,0.05599 0.15625,0.09375 0.04687,0.03646 0.10026,0.06771 0.125,0.125 0.02604,0.05599 0.03125,0.14063 0.03125,0.21875 0,0.09636 -0.03906,0.19401 -0.09375,0.28125 -0.05469,0.08594 -0.13151,0.16537 -0.21875,0.25 -0.08594,0.08333 -0.173178,0.16406 -0.28125,0.25 -0.106772,0.08594 -0.20573,0.1862 -0.3125,0.28125 -0.10547,0.09375 -0.21875,0.17448 -0.3125,0.28125 -0.09375,0.106771 -0.16146,0.248698 -0.21875,0.375 v 0.21875 h 1.84375 v -0.28125 h -1.40625 c 0.04167,-0.09115 0.10417,-0.19792 0.1875,-0.28125 0.08333,-0.08463 0.148436,-0.16667 0.25,-0.25 0.101561,-0.08333 0.205728,-0.16536 0.3125,-0.25 0.106769,-0.08463 0.22526,-0.15625 0.3125,-0.25 0.08854,-0.09375 0.16276,-0.208331 0.21875,-0.3125 0.05598,-0.105467 0.0625,-0.221353 0.0625,-0.34375 0,-0.115884 -0.02214,-0.22265 -0.0625,-0.3125 -0.04037,-0.08984 -0.07943,-0.15885 -0.15625,-0.21875 -0.07552,-0.06119 -0.171877,-0.09375 -0.28125,-0.125 -0.108074,-0.03124 -0.238282,-0.0625 -0.375,-0.0625 z  m -50.4688,.3125 0,.8125 c -0.07031,-0.01823 -0.1263,-0.04297 -0.1875,-0.0625 -0.05989,-0.01953 -0.11068,-0.03255 -0.15625,-0.0625 -0.04427,-0.03124 -0.09896,-0.07943 -0.125,-0.125 -0.02604,-0.04687 -0.03125,-0.11719 -0.03125,-0.1875 0,-0.05078 0.01432,-0.08073 0.03125,-0.125 0.01823,-0.04557 0.05469,-0.09114 0.09375,-0.125 0.03906,-0.03515 0.09245,-0.07291 0.15625,-0.09375 0.0638,-0.02213 0.1263,-0.02735 0.21875,-0.03125 z  m -7.375,.2188 c -0.05989,0 -0.11068,0.01042 -0.15625,0.03125 -0.04557,0.01953 -0.0599,0.0586 -0.09375,0.09375 -0.03255,0.03516 -0.07031,0.07813 -0.09375,0.125 -0.02344,0.04557 -0.04557,0.07422 -0.0625,0.125 0,-0.02604 0.0013,-0.05729 0,-0.09375 0,-0.03646 0.0013,-0.05989 0,-0.09375 -0.0013,-0.03516 0.0013,-0.06771 0,-0.09375 -0.0013,-0.02734 -0.02995,-0.056 -0.03125,-0.0625 h -0.28125 c 0.0013,0.0091 -0.0013,0.03125 0,0.0625 0.0013,0.03125 -0.0013,0.08073 0,0.125 0.0013,0.04297 0,0.07552 0,0.125 0.0013,0.04818 0.03125,0.11198 0.03125,0.15625 v 1.65625 h 0.3125 v -1.1875 c 0,-0.105467 0.01823,-0.19661 0.03125,-0.28125 0.01302,-0.08594 0.03776,-0.15885 0.0625,-0.21875 0.02474,-0.06119 0.02865,-0.1237 0.0625,-0.15625 0.03385,-0.03385 0.08203,-0.03125 0.125,-0.03125 0.04167,0 0.0664,0.01302 0.09375,0.03125 0.02865,0.01692 0.07682,0.01953 0.09375,0.0625 0.01823,0.04167 0.02345,0.11849 0.03125,0.1875 0.0078,0.06901 -1e-06,0.147137 0,0.25 v 1.34375 h 0.34375 v -1.21875 c 0,-0.218748 0.01302,-0.390623 0.0625,-0.5 0.05078,-0.109373 0.13281,-0.156248 0.21875,-0.15625 0.04167,0 0.0664,0.01302 0.09375,0.03125 0.02864,0.01692 0.04557,0.01953 0.0625,0.0625 0.01823,0.04167 0.02345,0.11849 0.03125,0.1875 0.0078,0.06901 0.03125,0.147137 0.03125,0.25 v 1.34375 h 0.3125 v -1.40625 c -1e-05,-0.131509 -0.01563,-0.25 -0.03125,-0.34375 -0.01433,-0.09375 -0.02865,-0.15885 -0.0625,-0.21875 -0.03385,-0.05989 -0.07032,-0.1276 -0.125,-0.15625 -0.05469,-0.02865 -0.13932,-0.03125 -0.21875,-0.03125 -0.0612,0 -0.10938,0.01432 -0.15625,0.03125 -0.04688,0.01693 -0.08854,0.02995 -0.125,0.0625 -0.03646,0.03255 -0.06511,0.07682 -0.09375,0.125 -0.02734,0.04688 -0.03906,0.09505 -0.0625,0.15625 -0.02474,-0.130207 -0.06771,-0.21875 -0.125,-0.28125 -0.05599,-0.0625 -0.166668,-0.09375 -0.28125,-0.09375 z  m 15.125,0 c -0.106772,0 -0.20573,0.0065 -0.28125,0.03125 -0.07552,0.02474 -0.13151,0.07943 -0.1875,0.125 -0.05469,0.04557 -0.11589,0.09115 -0.15625,0.15625 -0.04037,0.06511 -0.05729,0.13802 -0.09375,0.21875 h -0.03125 c -0.0026,-0.03776 0.0065,-0.08073 0,-0.125 -0.0065,-0.04427 -0.02215,-0.08203 -0.03125,-0.125 -0.0091,-0.04427 -0.02083,-0.08463 -0.03125,-0.125 -0.0091,-0.04036 -0.02215,-0.09375 -0.03125,-0.125 h -0.3125 c 0.0078,0.03125 0.01953,0.07162 0.03125,0.125 0.01171,0.05339 0.02083,0.11979 0.03125,0.1875 0.01041,0.06641 0.02345,0.14323 0.03125,0.21875 0.0078,0.07552 -1e-06,0.14583 0,0.21875 v 1.375 h 0.34375 v -1 c -1e-05,-0.114582 0.03125,-0.210937 0.0625,-0.3125 0.03255,-0.101561 0.0651,-0.20573 0.125,-0.28125 0.0599,-0.07682 0.13151,-0.14323 0.21875,-0.1875 0.08724,-0.04427 0.203124,-0.0625 0.3125,-0.0625 0.08073,0 0.15234,0.02345 0.21875,0.03125 0.06771,0.0065 0.1263,-0.01042 0.1875,0 v -0.3125 c -0.05469,-0.0091 -0.11719,-0.02475 -0.1875,-0.03125 -0.07032,-0.0065 -0.14583,2e-06 -0.21875,0 z  m 9.1562,0 c -0.26172,3e-06 -0.455729,0.04818 -0.59375,0.15625 -0.138021,0.108075 -0.1875,0.277345 -0.1875,0.46875 0,0.100261 0.02344,0.1849 0.0625,0.25 0.04036,0.06511 0.09245,0.11328 0.15625,0.15625 0.0651,0.04167 0.13672,0.06771 0.21875,0.09375 0.08203,0.02605 0.16667,0.04037 0.25,0.0625 0.09245,0.02474 0.17187,0.07422 0.25,0.09375 0.07943,0.01953 0.13021,0.03516 0.1875,0.0625 0.0573,0.02734 0.1237,0.05339 0.15625,0.09375 0.03385,0.03906 0.03125,0.09115 0.03125,0.15625 -1e-05,0.0625 -0.0039,0.11328 -0.03125,0.15625 -0.02605,0.04167 -0.07813,0.06641 -0.125,0.09375 -0.04688,0.02604 -0.09115,0.05078 -0.15625,0.0625 -0.0638,0.01043 -0.14323,0.03125 -0.21875,0.03125 -0.07422,0 -0.1237,-0.02475 -0.1875,-0.03125 -0.0638,-0.0078 -0.13802,-0.0091 -0.1875,-0.03125 -0.04818,-0.02213 -0.08984,-0.05208 -0.125,-0.09375 -0.03386,-0.04297 -0.04688,-0.11588 -0.0625,-0.1875 l -.3125,.0625 c 0.02343,0.09896 0.04427,0.18229 0.09375,0.25 0.05078,0.06641 0.11328,0.11589 0.1875,0.15625 0.07422,0.04037 0.18359,0.07682 0.28125,0.09375 0.09896,0.01824 0.190103,0.03125 0.3125,0.03125 0.136717,0 0.26953,-0.0013 0.375,-0.03125 0.106769,-0.02994 0.20833,-0.07031 0.28125,-0.125 0.07292,-0.05599 0.11849,-0.13932 0.15625,-0.21875 0.03906,-0.07943 0.0625,-0.15104 0.0625,-0.25 -1e-05,-0.108072 -0.04557,-0.21094 -0.09375,-0.28125 -0.04688,-0.07161 -0.08203,-0.14193 -0.15625,-0.1875 -0.07292,-0.04557 -0.16016,-0.0664 -0.25,-0.09375 -0.08854,-0.02735 -0.16537,-0.04167 -0.25,-0.0625 -0.08464,-0.02213 -0.17969,-0.04557 -0.25,-0.0625 -0.07031,-0.01822 -0.13672,-0.03776 -0.1875,-0.0625 -0.05078,-0.02474 -0.09636,-0.05729 -0.125,-0.09375 -0.02735,-0.03776 -0.03125,-0.09635 -0.03125,-0.15625 0,-0.196612 0.149739,-0.281248 0.46875,-0.28125 0.05989,0 0.13281,-0.0078 0.1875,0 0.05468,0.0078 0.11328,0.0091 0.15625,0.03125 0.04427,0.02084 0.0638,0.05729 0.09375,0.09375 0.02994,0.03646 0.0534,0.09766 0.0625,0.15625 l .3125,-.0625 c -0.01823,-0.08984 -0.04557,-0.15495 -0.09375,-0.21875 -0.04688,-0.0651 -0.11719,-0.11588 -0.1875,-0.15625 -0.07031,-0.04166 -0.12891,-0.07552 -0.21875,-0.09375 -0.08985,-0.0195 -0.209637,-0.03125 -0.3125,-0.03125 z  m 4.6562,0 c -0.14323,1e-05 -0.27604,0.01432 -0.375,0.0625 -0.09896,0.04818 -0.15625,0.1263 -0.21875,0.21875 -0.0612,0.09115 -0.1276,0.210939 -0.15625,0.34375 -0.02735,0.132814 -0.03125,0.298179 -0.03125,0.46875 0,0.175782 0.0039,0.30599 0.03125,0.4375 0.02865,0.131511 0.09635,0.25651 0.15625,0.34375 0.05989,0.08724 0.125,0.14453 0.21875,0.1875 0.09375,0.04297 0.210937,0.0625 0.34375,0.0625 0.09375,0 0.17838,-0.0091 0.25,-0.03125 0.07161,-0.02344 0.13411,-0.05599 0.1875,-0.09375 0.05468,-0.03776 0.08724,-0.07552 0.125,-0.125 0.03906,-0.04948 0.06901,-0.10417 0.09375,-0.15625 v 0.375 c -1e-05,0.11198 -0.0078,0.20312 -0.03125,0.28125 -0.02214,0.07812 -0.05078,0.13932 -0.09375,0.1875 -0.04167,0.04948 -0.09636,0.10286 -0.15625,0.125 -0.05859,0.02213 -0.11328,0.03125 -0.1875,0.03125 -0.119793,0 -0.20703,-0.04037 -0.28125,-0.09375 -0.07292,-0.05208 -0.13412,-0.12109 -0.15625,-0.21875 l -.375,.0625 c 0.01692,0.07813 0.05469,0.1237 0.09375,0.1875 0.04036,0.0638 0.09245,0.14193 0.15625,0.1875 0.0651,0.04687 0.16146,0.06901 0.25,0.09375 0.08984,0.02474 0.164061,0.03125 0.28125,0.03125 0.287759,-1e-06 0.518227,-0.06901 0.65625,-0.21875 0.138021,-0.148437 0.218748,-0.360677 0.21875,-0.65625 v -1.625 -0.125 c 0.0013,-0.04818 -0.0013,-0.11719 0,-0.15625 0.0013,-0.03906 -0.0013,-0.0664 0,-0.09375 0.0013,-0.02865 -0.0013,-0.05078 0,-0.0625 h -0.34375 c -0.0013,0.0039 0.0039,0.03646 0,0.0625 -0.0026,0.02604 0.0026,0.05729 0,0.09375 -0.0013,0.03516 0.0026,0.05339 0,0.09375 -0.0014,0.04037 -0.03125,0.09245 -0.03125,0.125 -0.05859,-0.1263 -0.140626,-0.24479 -0.25,-0.3125 -0.108074,-0.06901 -0.227866,-0.09375 -0.375,-0.09375 z  m 9.7188,0 c -0.302084,2e-06 -0.522136,0.09766 -0.6875,0.28125 -0.164064,0.182293 -0.25,0.44922 -0.25,0.8125 0,0.186199 0.01823,0.36198 0.0625,0.5 0.04427,0.136719 0.10677,0.22136 0.1875,0.3125 0.08203,0.09115 0.197916,0.17448 0.3125,0.21875 0.115885,0.04428 0.233072,0.0625 0.375,0.0625 0.148436,0 0.289061,-0.01823 0.40625,-0.0625 0.118488,-0.04557 0.19922,-0.1276 0.28125,-0.21875 0.08203,-0.09115 0.14453,-0.207031 0.1875,-0.34375 0.04427,-0.13802 0.09375,-0.283853 0.09375,-0.46875 -2e-06,-0.367186 -0.09505,-0.631508 -0.25,-0.8125 -0.154949,-0.180984 -0.401043,-0.281248 -0.71875,-0.28125 z  m 2.125,0 c -0.05989,0 -0.11068,0.01042 -0.15625,0.03125 -0.04557,0.01953 -0.09115,0.0586 -0.125,0.09375 -0.03255,0.03516 -0.03906,0.07813 -0.0625,0.125 -0.02344,0.04557 -0.04557,0.07422 -0.0625,0.125 0,-0.02604 0.0013,-0.05729 0,-0.09375 0,-0.03646 -0.02995,-0.05989 -0.03125,-0.09375 -0.0013,-0.03516 0.0013,-0.06771 0,-0.09375 -0.0013,-0.02734 0.0013,-0.056 0,-0.0625 h -0.28125 c 0.0013,0.0091 -0.0013,0.03125 0,0.0625 0.0013,0.03125 -0.0013,0.08073 0,0.125 0.0013,0.04297 0,0.07552 0,0.125 0.0013,0.04818 -1e-06,0.11198 0,0.15625 v 1.65625 h 0.34375 v -1.1875 c 0,-0.105467 0.01823,-0.19661 0.03125,-0.28125 0.01302,-0.08594 0.0065,-0.15885 0.03125,-0.21875 0.02474,-0.06119 0.05989,-0.1237 0.09375,-0.15625 0.03386,-0.03385 0.08203,-0.03125 0.125,-0.03125 0.04167,0 0.06641,0.01302 0.09375,0.03125 0.02864,0.01692 0.04557,0.01953 0.0625,0.0625 0.01823,0.04167 0.0547,0.11849 0.0625,0.1875 0.0078,0.06901 -1e-06,0.147137 0,0.25 v 1.34375 h 0.3125 v -1.21875 c 0,-0.218748 0.04427,-0.390623 0.09375,-0.5 0.05078,-0.109373 0.10156,-0.156248 0.1875,-0.15625 0.04167,0 0.09765,0.01302 0.125,0.03125 0.02864,0.01692 0.04557,0.01953 0.0625,0.0625 0.01823,0.04167 0.02345,0.11849 0.03125,0.1875 0.0078,0.06901 -2e-06,0.147137 0,0.25 v 1.34375 h 0.34375 v -1.40625 c 0,-0.131509 -0.01563,-0.25 -0.03125,-0.34375 -0.01433,-0.09375 -0.02865,-0.15885 -0.0625,-0.21875 -0.03385,-0.05989 -0.07031,-0.1276 -0.125,-0.15625 -0.05469,-0.02865 -0.13932,-0.03125 -0.21875,-0.03125 -0.0612,0 -0.10938,0.01432 -0.15625,0.03125 -0.04688,0.01693 -0.08854,0.02995 -0.125,0.0625 -0.03646,0.03255 -0.06511,0.07682 -0.09375,0.125 -0.02734,0.04688 -0.07031,0.09505 -0.09375,0.15625 -0.02474,-0.130207 -0.06771,-0.21875 -0.125,-0.28125 -0.05599,-0.0625 -0.135417,-0.09375 -0.25,-0.09375 z  m 2.6875,0 c -0.125001,0 -0.229168,0.02604 -0.34375,0.0625 -0.113282,0.03646 -0.22526,0.10287 -0.3125,0.1875 -0.08724,0.08464 -0.16667,0.17448 -0.21875,0.3125 -0.05078,0.138022 -0.0625,0.328127 -0.0625,0.53125 0,0.183595 0.01953,0.329428 0.0625,0.46875 0.04427,0.138022 0.10547,0.2513 0.1875,0.34375 0.08203,0.09245 0.19401,0.17188 0.3125,0.21875 0.118489,0.04687 0.225259,0.0625 0.375,0.0625 0.135415,0 0.27604,-0.0013 0.375,-0.03125 0.09896,-0.03125 0.18099,-0.07813 0.25,-0.125 0.06901,-0.04818 0.11458,-0.09766 0.15625,-0.15625 0.04167,-0.0599 0.07292,-0.12891 0.09375,-0.1875 l -.3125,-.0938 c -0.01563,0.04688 -0.02995,0.08464 -0.0625,0.125 -0.03255,0.03906 -0.07682,0.09635 -0.125,0.125 -0.04818,0.02865 -0.09505,0.04557 -0.15625,0.0625 -0.0599,0.01564 -0.14714,0.03125 -0.21875,0.03125 -0.09636,0 -0.17578,-0.02604 -0.25,-0.0625 -0.07292,-0.03776 -0.13802,-0.08984 -0.1875,-0.15625 -0.04948,-0.06771 -0.06901,-0.15755 -0.09375,-0.25 -0.02474,-0.09375 -0.03125,-0.201822 -0.03125,-0.3125 h 1.5 v -0.03125 c 0,-0.166665 -0.02865,-0.330728 -0.0625,-0.46875 -0.03255,-0.138019 -0.08203,-0.24609 -0.15625,-0.34375 -0.07422,-0.09896 -0.162762,-0.16406 -0.28125,-0.21875 -0.117189,-0.05468 -0.266928,-0.09375 -0.4375,-0.09375 z  m 7.2188,0 c -0.261719,3e-06 -0.45573,0.04818 -0.59375,0.15625 -0.138021,0.108075 -0.218751,0.277345 -0.21875,0.46875 0,0.100261 0.02344,0.1849 0.0625,0.25 0.04036,0.06511 0.09245,0.11328 0.15625,0.15625 0.0651,0.04167 0.13672,0.06771 0.21875,0.09375 0.08203,0.02605 0.16667,0.04037 0.25,0.0625 0.09245,0.02474 0.17187,0.07422 0.25,0.09375 0.07943,0.01953 0.16146,0.03516 0.21875,0.0625 0.05729,0.02734 0.09245,0.05339 0.125,0.09375 0.03385,0.03906 0.03125,0.09115 0.03125,0.15625 -1e-05,0.0625 -0.0039,0.11328 -0.03125,0.15625 -0.02604,0.04167 -0.04688,0.06641 -0.09375,0.09375 -0.04688,0.02604 -0.1224,0.05078 -0.1875,0.0625 -0.0638,0.01043 -0.11198,0.03125 -0.1875,0.03125 -0.07422,0 -0.15495,-0.02475 -0.21875,-0.03125 -0.0638,-0.0078 -0.10677,-0.0091 -0.15625,-0.03125 -0.04818,-0.02213 -0.08984,-0.05208 -0.125,-0.09375 -0.03386,-0.04297 -0.07812,-0.11588 -0.09375,-0.1875 l -.3125,.0625 c 0.02344,0.09896 0.07552,0.18229 0.125,0.25 0.05078,0.06641 0.11328,0.11589 0.1875,0.15625 0.07422,0.04037 0.15234,0.07682 0.25,0.09375 0.09896,0.01824 0.221353,0.03125 0.34375,0.03125 0.136718,0 0.23828,-0.0013 0.34375,-0.03125 0.10677,-0.02994 0.20833,-0.07031 0.28125,-0.125 0.07291,-0.05599 0.11849,-0.13932 0.15625,-0.21875 0.03906,-0.07943 0.0625,-0.15104 0.0625,-0.25 -1e-05,-0.108072 -0.01432,-0.21094 -0.0625,-0.28125 -0.04688,-0.07161 -0.11328,-0.14193 -0.1875,-0.1875 -0.07292,-0.04557 -0.16016,-0.0664 -0.25,-0.09375 -0.08854,-0.02735 -0.16536,-0.04167 -0.25,-0.0625 -0.08464,-0.02213 -0.17969,-0.04557 -0.25,-0.0625 -0.07031,-0.01822 -0.10547,-0.03776 -0.15625,-0.0625 -0.05078,-0.02474 -0.09636,-0.05729 -0.125,-0.09375 -0.02735,-0.03776 -0.0625,-0.09635 -0.0625,-0.15625 -1e-06,-0.196612 0.180989,-0.281248 0.5,-0.28125 0.05989,0 0.10156,-0.0078 0.15625,0 0.05469,0.0078 0.11328,0.0091 0.15625,0.03125 0.04427,0.02084 0.0638,0.05729 0.09375,0.09375 0.02994,0.03646 0.0534,0.09766 0.0625,0.15625 l .3125,-.0625 c -0.01823,-0.08984 -0.04557,-0.15495 -0.09375,-0.21875 -0.04688,-0.0651 -0.08594,-0.11588 -0.15625,-0.15625 -0.07031,-0.04166 -0.16016,-0.07552 -0.25,-0.09375 -0.08985,-0.0195 -0.178386,-0.03125 -0.28125,-0.03125 z  m 2.375,0 c -0.125001,0 -0.229168,0.02604 -0.34375,0.0625 -0.113282,0.03646 -0.22526,0.10287 -0.3125,0.1875 -0.08724,0.08464 -0.16667,0.17448 -0.21875,0.3125 -0.05078,0.138022 -0.0625,0.328127 -0.0625,0.53125 0,0.183595 0.01953,0.329428 0.0625,0.46875 0.04427,0.138022 0.10547,0.2513 0.1875,0.34375 0.08203,0.09245 0.19401,0.17188 0.3125,0.21875 0.118489,0.04687 0.225259,0.0625 0.375,0.0625 0.135415,0 0.27604,-0.0013 0.375,-0.03125 0.09896,-0.03125 0.18099,-0.07813 0.25,-0.125 0.06901,-0.04818 0.11458,-0.09766 0.15625,-0.15625 0.04166,-0.0599 0.07291,-0.12891 0.09375,-0.1875 l -.3125,-.0938 c -0.01563,0.04688 -0.02995,0.08464 -0.0625,0.125 -0.03255,0.03906 -0.07682,0.09635 -0.125,0.125 -0.04818,0.02865 -0.09505,0.04557 -0.15625,0.0625 -0.0599,0.01564 -0.14714,0.03125 -0.21875,0.03125 -0.09636,0 -0.17578,-0.02604 -0.25,-0.0625 -0.07292,-0.03776 -0.13802,-0.08984 -0.1875,-0.15625 -0.04948,-0.06771 -0.06901,-0.15755 -0.09375,-0.25 -0.02474,-0.09375 -0.03125,-0.201822 -0.03125,-0.3125 h 1.5 v -0.03125 c 0,-0.166665 -0.02865,-0.330728 -0.0625,-0.46875 -0.03255,-0.138019 -0.08203,-0.24609 -0.15625,-0.34375 -0.07422,-0.09896 -0.162762,-0.16406 -0.28125,-0.21875 -0.117189,-0.05468 -0.266928,-0.09375 -0.4375,-0.09375 z  m 2.8438,0 c -0.106772,0 -0.20573,0.0065 -0.28125,0.03125 -0.07552,0.02474 -0.13151,0.07943 -0.1875,0.125 -0.05469,0.04557 -0.11589,0.09115 -0.15625,0.15625 -0.04036,0.06511 -0.08854,0.13802 -0.125,0.21875 -0.0026,-0.03776 0.0065,-0.08073 0,-0.125 -0.0065,-0.04427 -0.02215,-0.08203 -0.03125,-0.125 -0.0091,-0.04427 -0.02083,-0.08463 -0.03125,-0.125 -0.0091,-0.04036 -0.02215,-0.09375 -0.03125,-0.125 h -0.34375 c 0.0078,0.03125 0.01953,0.07162 0.03125,0.125 0.01172,0.05339 0.02083,0.11979 0.03125,0.1875 0.01041,0.06641 0.02345,0.14323 0.03125,0.21875 0.0078,0.07552 0.03125,0.14583 0.03125,0.21875 v 1.375 h 0.34375 v -1 c -1e-05,-0.114582 0,-0.210937 0.03125,-0.3125 0.03255,-0.101561 0.09635,-0.20573 0.15625,-0.28125 0.05989,-0.07682 0.13151,-0.14323 0.21875,-0.1875 0.08724,-0.04427 0.171873,-0.0625 0.28125,-0.0625 0.08073,0 0.15234,0.02345 0.21875,0.03125 0.06771,0.0065 0.15755,-0.01042 0.21875,0 v -0.3125 c -0.05469,-0.0091 -0.11719,-0.02475 -0.1875,-0.03125 -0.07031,-0.0065 -0.14584,2e-06 -0.21875,0 z  m -54.2812,.0312 .8438,2.125 .4062,0 .875,-2.125 -.375,0 -.5625,1.375 c -0.01042,0.02865 -0.01693,0.08333 -0.03125,0.125 -0.01302,0.04037 -0.01823,0.08203 -0.03125,0.125 -0.01302,0.04297 -0.01823,0.08333 -0.03125,0.125 -0.01172,0.04036 -0.02345,0.06641 -0.03125,0.09375 -0.0078,-0.02734 -0.01953,-0.05338 -0.03125,-0.09375 -0.01042,-0.04167 -0.01823,-0.08073 -0.03125,-0.125 -0.01302,-0.04427 -0.05078,-0.08463 -0.0625,-0.125 -0.01172,-0.04167 -0.02083,-0.09635 -0.03125,-0.125 l -.5,-1.375 h -0.40625 z  m 9.9375,0 0,.2812 .625,0 0,1.5625 -.8125,0 0,.2812 1.9062,0 0,-.2812 -.75,0 0,-1.8438 -.9688,0 z  m 14.0625,0 .8438,2.125 .4062,0 .875,-2.125 -.4062,0 -.5312,1.375 c -0.01042,0.02865 -0.01693,0.08333 -0.03125,0.125 -0.01302,0.04037 -0.04948,0.08203 -0.0625,0.125 -0.01302,0.04297 -0.01823,0.08333 -0.03125,0.125 -0.01172,0.04036 -0.02345,0.06641 -0.03125,0.09375 -0.0078,-0.02734 -0.01953,-0.05338 -0.03125,-0.09375 -0.01042,-0.04167 -0.01823,-0.08073 -0.03125,-0.125 -0.01302,-0.04427 -0.01953,-0.08463 -0.03125,-0.125 -0.01172,-0.04167 -0.02083,-0.09635 -0.03125,-0.125 l -.5312,-1.375 h -0.375 z  m 21.8125,0 0,1.4062 c 0,0.130209 0.0065,0.2487 0.03125,0.34375 0.02604,0.09375 0.07031,0.15885 0.125,0.21875 0.05469,0.05989 0.10286,0.1276 0.1875,0.15625 0.08463,0.02865 0.195312,0.03125 0.3125,0.03125 0.09114,0 0.18099,-0.01172 0.25,-0.03125 0.06901,-0.01823 0.13411,-0.02865 0.1875,-0.0625 0.05339,-0.03515 0.08463,-0.07552 0.125,-0.125 0.04036,-0.04948 0.09114,-0.1263 0.125,-0.1875 0,0.02605 -0.0013,0.05469 0,0.09375 v 0.125 c 0.0026,0.03646 -0.0013,0.0651 0,0.09375 0.0013,0.02864 -0.0013,0.056 0,0.0625 h 0.34375 c -0.0013,-0.0091 0.0013,-0.03125 0,-0.0625 -0.0013,-0.03125 0.0013,-0.08203 0,-0.125 -0.0013,-0.04427 0.0013,-0.07682 0,-0.125 v -0.15625 -1.65625 h -0.375 v 1.21875 c 0,0.10547 -0.0052,0.19922 -0.03125,0.28125 -0.02474,0.08073 -0.07682,0.16276 -0.125,0.21875 -0.04688,0.05468 -0.08854,0.09505 -0.15625,0.125 -0.06641,0.02865 -0.13542,0.03125 -0.21875,0.03125 -0.08203,0 -0.16276,0.01693 -0.21875,0 -0.05469,-0.01823 -0.08984,-0.05208 -0.125,-0.09375 -0.03386,-0.04297 -0.07813,-0.11849 -0.09375,-0.1875 -0.01428,-0.06901 -1e-06,-0.147134 0,-0.25 v -1.34375 h -0.34375 z  m -8.75,.2188 c 0.08333,0 0.14974,0.03646 0.21875,0.0625 0.06901,0.02474 0.13802,0.0612 0.1875,0.125 0.05078,0.0638 0.0664,0.143231 0.09375,0.25 0.02865,0.106772 0.0625,0.242189 0.0625,0.40625 0,0.164063 -0.03255,0.298178 -0.0625,0.40625 -0.02864,0.108074 -0.07292,0.1862 -0.125,0.25 -0.05208,0.06381 -0.11458,0.13021 -0.1875,0.15625 -0.07162,0.02474 -0.13412,0.03125 -0.21875,0.03125 -0.07422,0 -0.14974,-0.0052 -0.21875,-0.03125 -0.06771,-0.02604 -0.13542,-0.09245 -0.1875,-0.15625 -0.05078,-0.0638 -0.09375,-0.143228 -0.125,-0.25 -0.02995,-0.108072 -0.03125,-0.242187 -0.03125,-0.40625 0,-0.160155 0.0026,-0.299477 0.03125,-0.40625 0.02994,-0.106769 0.07422,-0.1862 0.125,-0.25 0.05208,-0.0651 0.11588,-0.09896 0.1875,-0.125 0.07161,-0.02735 0.16536,-0.0625 0.25,-0.0625 z  m 4.7812,0 c 0.07031,0 0.15495,0.01042 0.21875,0.03125 0.0638,0.02084 0.10677,0.07552 0.15625,0.125 0.05078,0.04948 0.09114,0.10547 0.125,0.1875 0.03386,0.08203 0.05208,0.190105 0.0625,0.3125 h -1.125 c 0.0039,-0.127603 0.02474,-0.23047 0.0625,-0.3125 0.03906,-0.08333 0.06901,-0.17057 0.125,-0.21875 0.05599,-0.04818 0.12239,-0.07552 0.1875,-0.09375 0.06641,-0.0195 0.1276,-0.03125 0.1875,-0.03125 z  m 9.5938,0 c 0.07031,0 0.15495,0.01042 0.21875,0.03125 0.0638,0.02084 0.10677,0.07552 0.15625,0.125 0.05078,0.04948 0.09114,0.10547 0.125,0.1875 0.03386,0.08203 0.05208,0.190105 0.0625,0.3125 h -1.125 c 0.0039,-0.127603 0.02474,-0.23047 0.0625,-0.3125 0.03906,-0.08333 0.06901,-0.17057 0.125,-0.21875 0.05599,-0.04818 0.12239,-0.07552 0.1875,-0.09375 0.06641,-0.0195 0.1276,-0.03125 0.1875,-0.03125 z  m -43.25,.0312 c 0.08984,1e-05 0.18099,0.0039 0.25,0.03125 0.06901,0.02734 0.10937,0.0625 0.15625,0.125 0.04687,0.0625 0.10156,0.147137 0.125,0.25 0.02474,0.101564 0.03125,0.223959 0.03125,0.375 0,0.156251 -0.0065,0.296876 -0.03125,0.40625 -0.02344,0.109376 -0.07682,0.21224 -0.125,0.28125 -0.04688,0.06771 -0.08594,0.09375 -0.15625,0.125 -0.06901,0.03124 -0.16016,0.0625 -0.25,0.0625 -0.08724,0 -0.15625,-0.03125 -0.21875,-0.0625 -0.0625,-0.03255 -0.11589,-0.08854 -0.15625,-0.15625 -0.03906,-0.06771 -0.07422,-0.145833 -0.09375,-0.25 -0.01824,-0.104166 -0.03125,-0.229166 -0.03125,-0.375 0,-0.151041 0.01042,-0.26953 0.03125,-0.375 0.02084,-0.106769 0.05338,-0.18359 0.09375,-0.25 0.04167,-0.0664 0.09375,-0.1263 0.15625,-0.15625 0.0625,-0.02994 0.13542,-0.03125 0.21875,-0.03125 z  m 19.2188,0 c 0.06901,0 0.12239,0.0026 0.1875,0.03125 0.06641,0.02865 0.13672,0.0599 0.1875,0.125 0.05208,0.0638 0.09375,0.147137 0.125,0.25 0.03124,0.102866 0.03125,0.227866 0.03125,0.375 0,0.145834 0.0013,0.273438 -0.03125,0.375 -0.03125,0.100261 -0.07292,0.1875 -0.125,0.25 -0.05208,0.0625 -0.12109,0.09636 -0.1875,0.125 -0.06641,0.02735 -0.11849,0.0625 -0.1875,0.0625 -0.08594,0 -0.1862,-0.0065 -0.25,-0.03125 -0.0625,-0.02604 -0.11458,-0.09505 -0.15625,-0.15625 -0.04036,-0.0612 -0.04297,-0.117187 -0.0625,-0.21875 -0.0195,-0.101561 -0.03125,-0.253905 -0.03125,-0.40625 0,-0.147134 0.01172,-0.273436 0.03125,-0.375 0.01953,-0.102863 0.02083,-0.1862 0.0625,-0.25 0.04167,-0.06511 0.1237,-0.09635 0.1875,-0.125 0.0638,-0.02994 0.13151,-0.03125 0.21875,-0.03125 z  m -21.4062,.6562 c 0.07552,0.01953 0.14974,0.04037 0.21875,0.0625 0.06901,0.02083 0.13542,0.02865 0.1875,0.0625 0.05208,0.03386 0.09375,0.07162 0.125,0.125 0.03124,0.05208 0.03125,0.13672 0.03125,0.21875 0,0.07162 -0.0026,0.13412 -0.03125,0.1875 -0.02735,0.05339 -0.07422,0.08854 -0.125,0.125 -0.04948,0.03645 -0.11719,0.07422 -0.1875,0.09375 -0.06901,0.01953 -0.13412,0.02605 -0.21875,0.03125 v -0.90625 z  m 14.0312,.625 0,.5938 .4375,0 0,-.5938 -.4375,0 z  m -14.3125,3.5 .0312,.5625 -.5,-.1875 -.0938,.25 .5312,.1562 -.375,.4688 .25,.1562 .3125,-.5 .2812,.5 .2188,-.1562 -.3438,-.4688 .5312,-.1562 -.0625,-.25 -.5312,.1875 .0312,-.5625 -.2812,0 z  m 19.9688,0 -1.625,2.9375 .375,0 1.5938,-2.9375 -.3438,0 z  m 2.25,0 0,.8125 0,.0625 c 0.0013,0.02865 -2e-06,0.0612 0,0.09375 v 0.09375 c -0.06237,-0.115721 -0.14974,-0.166174 -0.25,-0.21875 -0.10547,-0.05598 -0.248699,-0.09375 -0.40625,-0.09375 -0.510417,2e-06 -0.75,0.356772 -0.75,1.09375 0,0.364584 0.0638,0.631511 0.1875,0.8125 0.123697,0.180994 0.299479,0.28125 0.5625,0.28125 0.157551,0 0.30078,-0.03255 0.40625,-0.09375 0.105468,-0.0625 0.1862,-0.144531 0.25,-0.28125 0,0.03385 -0.0013,0.05599 0,0.09375 0.0013,0.03776 -0.0013,0.0612 0,0.09375 0.0026,0.03255 0.02865,0.07031 0.03125,0.09375 0.0026,0.02344 -0.0013,0.02605 0,0.03125 h 0.34375 c -0.0013,-0.01172 -0.02995,-0.0039 -0.03125,-0.03125 -0.0013,-0.02864 0.0013,-0.08594 0,-0.125 -0.0013,-0.03907 0.0013,-0.07813 0,-0.125 v -0.125 -2.46875 h -0.34375 z  m 7.3438,0 -1.625,2.9375 .375,0 1.5938,-2.9375 -.3438,0 z  m 5.875,0 0,.2812 .5625,0 0,2.3438 -.8125,0 0,.25 1.9062,0 0,-.25 -.7188,0 0,-2.625 -.9375,0 z  m 2.4062,0 0,.2812 .5625,0 0,2.3438 -.8125,0 0,.25 1.9062,0 0,-.25 -.75,0 0,-2.625 -.9062,0 z  m -33.2812,.2188 -.125,.5625 -.3125,0 0,.2812 .3125,0 0,1.3125 c 0,0.192709 0.05078,0.31641 0.15625,0.40625 0.105468,0.08854 0.257811,0.125 0.46875,0.125 0.07031,0 0.15234,0.0065 0.21875,0 0.0664,-0.0065 0.13151,-0.02215 0.1875,-0.03125 0.05729,-0.0091 0.11068,-0.02083 0.15625,-0.03125 0.04557,-0.01041 0.0651,0.0078 0.09375,0 v -0.28125 c -0.03126,0.0065 -0.04818,0.02345 -0.09375,0.03125 -0.04427,0.0078 -0.10417,-0.0065 -0.15625,0 -0.05078,0.0065 -0.10026,0.02605 -0.15625,0.03125 -0.05469,0.0039 -0.10417,1e-06 -0.15625,0 -0.126303,0 -0.22526,-0.01302 -0.28125,-0.0625 -0.05469,-0.04948 -0.09375,-0.147135 -0.09375,-0.25 v -1.25 h 0.84375 v -0.28125 h -0.84375 v -0.5625 h -0.21875 z  m 4.7812,0 -.0938,.5625 -.3438,0 0,.2812 .3438,0 0,1.3125 c 0,0.192709 0.05078,0.31641 0.15625,0.40625 0.105468,0.08854 0.257811,0.125 0.46875,0.125 0.07031,0 0.12109,0.0065 0.1875,0 0.06641,-0.0065 0.13151,-0.02215 0.1875,-0.03125 0.05729,-0.0091 0.11068,-0.02083 0.15625,-0.03125 0.04557,-0.01041 0.09635,0.0078 0.125,0 v -0.28125 c -0.03126,0.0065 -0.07943,0.02345 -0.125,0.03125 -0.04427,0.0078 -0.10417,-0.0065 -0.15625,0 -0.05078,0.0065 -0.10026,0.02605 -0.15625,0.03125 -0.05469,0.0039 -0.10417,1e-06 -0.15625,0 -0.126303,0 -0.22526,-0.01302 -0.28125,-0.0625 -0.05469,-0.04948 -0.0625,-0.147135 -0.0625,-0.25 v -1.25 h 0.84375 v -0.28125 h -0.84375 v -0.5625 h -0.25 z  m 5.1875,0 c -0.138022,0 -0.269532,0.02474 -0.375,0.0625 -0.105469,0.03776 -0.17708,0.08985 -0.25,0.15625 -0.07161,0.06511 -0.14583,0.13151 -0.1875,0.21875 -0.04167,0.08724 -0.05078,0.18229 -0.0625,0.28125 l .3438,.0312 c 0.0091,-0.07682 0.03385,-0.13021 0.0625,-0.1875 0.02865,-0.05859 0.07943,-0.11718 0.125,-0.15625 0.04557,-0.03906 0.09635,-0.07422 0.15625,-0.09375 0.0612,-0.0195 0.11719,-0.03125 0.1875,-0.03125 0.07682,0 0.15625,0.01302 0.21875,0.03125 0.0638,0.01693 0.11068,0.05599 0.15625,0.09375 0.04687,0.03646 0.06901,0.06771 0.09375,0.125 0.02604,0.05599 0.0625,0.14063 0.0625,0.21875 0,0.09636 -0.03906,0.16276 -0.09375,0.25 -0.05469,0.08594 -0.13151,0.19662 -0.21875,0.28125 -0.08594,0.08333 -0.173179,0.16406 -0.28125,0.25 -0.106772,0.08594 -0.20573,0.15495 -0.3125,0.25 -0.105469,0.09375 -0.21875,0.20573 -0.3125,0.3125 -0.09375,0.106771 -0.16146,0.217449 -0.21875,0.34375 v 0.21875 h 1.84375 v -0.28125 h -1.4375 c 0.04167,-0.09115 0.10417,-0.16667 0.1875,-0.25 0.08333,-0.08463 0.179687,-0.16667 0.28125,-0.25 0.101562,-0.08333 0.205728,-0.16536 0.3125,-0.25 0.10677,-0.08463 0.22526,-0.1875 0.3125,-0.28125 0.08854,-0.09375 0.13151,-0.177082 0.1875,-0.28125 0.05598,-0.105467 0.09375,-0.221352 0.09375,-0.34375 -1e-05,-0.115884 -0.02214,-0.22265 -0.0625,-0.3125 -0.04037,-0.08984 -0.07943,-0.15885 -0.15625,-0.21875 -0.07552,-0.06119 -0.171876,-0.125 -0.28125,-0.15625 -0.108074,-0.03124 -0.238283,-0.03125 -0.375,-0.03125 z  m 1.4375,.3438 0,.2812 1.6562,.7188 -1.6562,.7188 0,.3125 1.9375,-.8125 0,-.4062 -1.9375,-.8125 z  m -22.5938,.1875 c -0.106772,0 -0.17448,0.0065 -0.25,0.03125 -0.07552,0.02474 -0.16276,0.04818 -0.21875,0.09375 -0.05469,0.04557 -0.08464,0.09115 -0.125,0.15625 -0.04037,0.06511 -0.08854,0.13802 -0.125,0.21875 -0.0026,-0.03776 -0.02475,-0.04948 -0.03125,-0.09375 -0.0065,-0.04427 0.0091,-0.11328 0,-0.15625 -0.0091,-0.04427 -0.02083,-0.08463 -0.03125,-0.125 -0.0091,-0.04036 -0.02215,-0.0625 -0.03125,-0.09375 h -0.34375 c 0.0078,0.03125 0.01953,0.07162 0.03125,0.125 0.01171,0.05339 0.02083,0.11979 0.03125,0.1875 0.01041,0.06641 0.02345,0.14323 0.03125,0.21875 0.0078,0.07552 -1e-06,0.14583 0,0.21875 v 1.34375 h 0.375 v -0.96875 c -1e-05,-0.114583 0,-0.242186 0.03125,-0.34375 0.03255,-0.101561 0.09635,-0.17448 0.15625,-0.25 0.0599,-0.07682 0.13151,-0.14323 0.21875,-0.1875 0.08724,-0.04427 0.171874,-0.0625 0.28125,-0.0625 0.08073,0 0.15234,-0.0078 0.21875,0 0.06771,0.0065 0.1263,0.02083 0.1875,0.03125 v -0.3125 c -0.05469,-0.0091 -0.11719,-0.02475 -0.1875,-0.03125 -0.07032,-0.0065 -0.14583,2e-06 -0.21875,0 z  m 1.6875,0 c -0.05989,0 -0.11068,0.01042 -0.15625,0.03125 -0.04557,0.01953 -0.09115,0.02735 -0.125,0.0625 -0.03255,0.03516 -0.03906,0.07813 -0.0625,0.125 -0.02344,0.04557 -0.04557,0.10547 -0.0625,0.15625 0,-0.02604 0.0013,-0.05729 0,-0.09375 0,-0.03646 -0.02995,-0.09114 -0.03125,-0.125 -0.0013,-0.03516 0.0013,-0.06771 0,-0.09375 -0.0013,-0.02734 0.0013,-0.02475 0,-0.03125 h -0.28125 c 0.0013,0.0091 -0.0013,0.03125 0,0.0625 0.0013,0.03125 -0.0013,0.04948 0,0.09375 0.0013,0.04297 0,0.10677 0,0.15625 0.0013,0.04818 -1e-06,0.08073 0,0.125 v 1.65625 h 0.34375 v -1.15625 c 0,-0.105467 0.01823,-0.22786 0.03125,-0.3125 0.01302,-0.08594 0.0065,-0.15885 0.03125,-0.21875 0.02474,-0.06119 0.0599,-0.09245 0.09375,-0.125 0.03385,-0.03385 0.08203,-0.0625 0.125,-0.0625 0.04166,0 0.06641,0.01302 0.09375,0.03125 0.02865,0.01692 0.04557,0.05078 0.0625,0.09375 0.01823,0.04167 0.0547,0.08724 0.0625,0.15625 0.0078,0.06901 -1e-06,0.178387 0,0.28125 v 1.3125 h 0.3125 v -1.21875 c 0,-0.218749 0.04427,-0.359373 0.09375,-0.46875 0.05078,-0.109372 0.10156,-0.187498 0.1875,-0.1875 0.04166,0 0.09765,0.01302 0.125,0.03125 0.02864,0.01692 0.04557,0.05078 0.0625,0.09375 0.01822,0.04167 0.02345,0.08724 0.03125,0.15625 0.0078,0.06901 -2e-06,0.178387 0,0.28125 v 1.3125 h 0.34375 v -1.40625 c 0,-0.131509 -0.01563,-0.21875 -0.03125,-0.3125 -0.01433,-0.09375 -0.02865,-0.1901 -0.0625,-0.25 -0.03385,-0.05989 -0.07031,-0.09635 -0.125,-0.125 -0.05469,-0.02865 -0.13932,-0.03125 -0.21875,-0.03125 -0.0612,0 -0.10938,-0.01693 -0.15625,0 -0.04688,0.01693 -0.08854,0.0612 -0.125,0.09375 -0.03646,0.03255 -0.06511,0.07682 -0.09375,0.125 -0.02734,0.04688 -0.07031,0.09505 -0.09375,0.15625 -0.02474,-0.130207 -0.06771,-0.21875 -0.125,-0.28125 -0.05599,-0.0625 -0.135417,-0.09375 -0.25,-0.09375 z  m 29.0625,0 c -0.125001,0 -0.229168,-0.0052 -0.34375,0.03125 -0.113282,0.03646 -0.22526,0.10287 -0.3125,0.1875 -0.08724,0.08464 -0.13542,0.205731 -0.1875,0.34375 -0.05078,0.138022 -0.09375,0.296876 -0.09375,0.5 0,0.183594 0.01953,0.360677 0.0625,0.5 0.04427,0.138021 0.10547,0.2513 0.1875,0.34375 0.08203,0.09245 0.194009,0.14063 0.3125,0.1875 0.118488,0.04687 0.25651,0.09375 0.40625,0.09375 0.135416,0 0.24479,-0.03255 0.34375,-0.0625 0.09896,-0.03125 0.18099,-0.04688 0.25,-0.09375 0.06901,-0.04818 0.11458,-0.12891 0.15625,-0.1875 0.04166,-0.0599 0.07291,-0.09766 0.09375,-0.15625 l -.3125,-.0938 c -0.01563,0.04688 -0.02995,0.08464 -0.0625,0.125 -0.03255,0.03906 -0.07682,0.0651 -0.125,0.09375 -0.04818,0.02865 -0.09505,0.07682 -0.15625,0.09375 -0.0599,0.01564 -0.11589,0 -0.1875,0 -0.09636,0 -0.17578,0.0052 -0.25,-0.03125 -0.07292,-0.03776 -0.13802,-0.08984 -0.1875,-0.15625 -0.04948,-0.06771 -0.10026,-0.15755 -0.125,-0.25 -0.02474,-0.09375 -0.03125,-0.201822 -0.03125,-0.3125 h 1.5 v -0.03125 c 0,-0.166665 0.0026,-0.330728 -0.03125,-0.46875 -0.03255,-0.138019 -0.11328,-0.24609 -0.1875,-0.34375 -0.07422,-0.09896 -0.162762,-0.19531 -0.28125,-0.25 -0.117189,-0.05468 -0.266929,-0.0625 -0.4375,-0.0625 z  m 7.375,0 c -0.08594,1e-05 -0.14974,0.01172 -0.21875,0.03125 -0.06901,0.01823 -0.13151,0.02735 -0.1875,0.0625 -0.05468,0.03386 -0.11328,0.07552 -0.15625,0.125 -0.04167,0.04948 -0.0625,0.09505 -0.09375,0.15625 h -0.03125 c 0,-0.02604 0.0013,-0.05599 0,-0.09375 -0.0013,-0.03906 0.0026,-0.05729 0,-0.09375 -0.0013,-0.03776 0.0013,-0.0651 0,-0.09375 -0.0013,-0.02864 0.0013,-0.056 0,-0.0625 h -0.34375 c 0.0013,0.0091 -0.0013,0.03125 0,0.0625 0.0013,0.03125 -0.0013,0.04948 0,0.09375 0.0013,0.04297 0,0.10677 0,0.15625 0.0013,0.04818 0.03125,0.08073 0.03125,0.125 v 1.65625 h 0.34375 v -1.21875 c 0,-0.105468 0.0026,-0.20052 0.03125,-0.28125 0.02865,-0.08203 0.07552,-0.13281 0.125,-0.1875 0.05078,-0.05598 0.12109,-0.09635 0.1875,-0.125 0.06771,-0.02994 0.14193,-0.0625 0.21875,-0.0625 0.0625,1e-05 0.10417,0.01563 0.15625,0.03125 0.05209,0.01562 0.08724,0.05339 0.125,0.09375 0.03906,0.03906 0.07292,0.08854 0.09375,0.15625 0.02213,0.06641 0.03125,0.145835 0.03125,0.25 v 1.34375 h 0.375 v -1.40625 c 0,-0.131509 -0.03255,-0.21875 -0.0625,-0.3125 -0.02865,-0.09375 -0.06771,-0.1901 -0.125,-0.25 -0.05599,-0.05989 -0.13542,-0.09635 -0.21875,-0.125 -0.08333,-0.02865 -0.173178,-0.03125 -0.28125,-0.03125 z  m -25.125,.0312 .75,1.0312 -.8125,1.0625 .375,0 .6562,-.8438 .625,.8438 .375,0 -.8125,-1.0625 .7812,-1.0312 -.4062,0 -.5625,.8125 -.5938,-.8125 -.375,0 z  m 19.0938,0 .8438,2.0938 .4062,0 .875,-2.0938 -.4062,0 -.5312,1.375 c -0.01042,0.02865 -0.01693,0.05208 -0.03125,0.09375 -0.01302,0.04037 -0.01823,0.08203 -0.03125,0.125 -0.01302,0.04297 -0.04948,0.08333 -0.0625,0.125 -0.01172,0.04036 0.0078,0.09766 0,0.125 -0.0078,-0.02734 -0.01953,-0.08463 -0.03125,-0.125 -0.01042,-0.04167 -0.04948,-0.08073 -0.0625,-0.125 -0.01302,-0.04427 -0.01953,-0.08463 -0.03125,-0.125 -0.01172,-0.04167 -0.02083,-0.0651 -0.03125,-0.09375 l -.5312,-1.375 h -0.375 z  m 7.4062,0 0,1.4062 c 0,0.130209 0.0065,0.2487 0.03125,0.34375 0.02604,0.09375 0.07031,0.15886 0.125,0.21875 0.05469,0.05989 0.13411,0.09635 0.21875,0.125 0.08463,0.02865 0.195312,0.0625 0.3125,0.0625 0.09114,0 0.14974,-0.01172 0.21875,-0.03125 0.06901,-0.01823 0.13411,-0.0599 0.1875,-0.09375 0.05338,-0.03515 0.11588,-0.07552 0.15625,-0.125 0.04036,-0.04948 0.05989,-0.09505 0.09375,-0.15625 h 0.03125 c 0,0.02605 -0.0013,0.05469 0,0.09375 v 0.125 c 0.0026,0.03646 -0.0013,0.0651 0,0.09375 0.0013,0.02864 -0.0013,0.02475 0,0.03125 h 0.34375 c -0.0013,-0.0091 0.0013,0 0,-0.03125 -0.0013,-0.03125 -0.02995,-0.08203 -0.03125,-0.125 -0.0013,-0.04427 0.0013,-0.07682 0,-0.125 v -0.15625 -1.65625 h -0.34375 v 1.21875 c 0,0.10547 -0.0052,0.19922 -0.03125,0.28125 -0.02475,0.08073 -0.07682,0.16276 -0.125,0.21875 -0.04688,0.05468 -0.08854,0.09505 -0.15625,0.125 -0.06641,0.02865 -0.13542,0.03125 -0.21875,0.03125 -0.08203,0 -0.16276,-0.01432 -0.21875,-0.03125 -0.05469,-0.01822 -0.08984,-0.05208 -0.125,-0.09375 -0.03386,-0.04297 -0.07812,-0.08724 -0.09375,-0.15625 -0.01428,-0.06901 -1e-06,-0.147135 0,-0.25 v -1.34375 h -0.375 z  m -11.2188,.2188 c 0.08984,1e-05 0.18099,0.0039 0.25,0.03125 0.06901,0.02735 0.10937,0.09375 0.15625,0.15625 0.04687,0.0625 0.10156,0.147137 0.125,0.25 0.02474,0.101563 0.03125,0.223959 0.03125,0.375 0,0.156251 -0.0065,0.296876 -0.03125,0.40625 -0.02344,0.109376 -0.07682,0.18099 -0.125,0.25 -0.04688,0.06771 -0.08594,0.125 -0.15625,0.15625 -0.06901,0.03124 -0.16016,0.03125 -0.25,0.03125 -0.08724,0 -0.15625,0 -0.21875,-0.03125 -0.0625,-0.03255 -0.11589,-0.08854 -0.15625,-0.15625 -0.03906,-0.06771 -0.07422,-0.145833 -0.09375,-0.25 -0.01824,-0.104166 -0.03125,-0.229166 -0.03125,-0.375 0,-0.151041 0.01042,-0.26953 0.03125,-0.375 0.02084,-0.106769 0.05338,-0.21484 0.09375,-0.28125 0.04167,-0.0664 0.09375,-0.09505 0.15625,-0.125 0.0625,-0.02994 0.13542,-0.0625 0.21875,-0.0625 z  m 2.4688,0 c 0.07031,0 0.15495,0.01042 0.21875,0.03125 0.0638,0.02084 0.10677,0.04427 0.15625,0.09375 0.05078,0.04948 0.09114,0.13672 0.125,0.21875 0.03386,0.08203 0.08333,0.158856 0.09375,0.28125 h -1.15625 c 0.0039,-0.127603 0.02474,-0.23047 0.0625,-0.3125 0.03906,-0.08333 0.10026,-0.13932 0.15625,-0.1875 0.05599,-0.04818 0.09114,-0.07552 0.15625,-0.09375 0.06641,-0.0195 0.1276,-0.03125 0.1875,-0.03125 z  m -21.8125,1.3125 0,.5625 .4688,0 0,-.5625 -.4688,0 z  m -5.4062,3.4688 0,2.9062 .3438,0 0,-1.2188 c 0,-0.105467 0.03385,-0.20052 0.0625,-0.28125 0.02865,-0.08203 0.04427,-0.16406 0.09375,-0.21875 0.05078,-0.05598 0.12109,-0.09635 0.1875,-0.125 0.06771,-0.02994 0.14193,-0.03125 0.21875,-0.03125 0.0625,1e-05 0.13541,0.01563 0.1875,0.03125 0.05209,0.01562 0.08724,0.02214 0.125,0.0625 0.03906,0.03906 0.07291,0.08854 0.09375,0.15625 0.02213,0.06641 0.03125,0.177085 0.03125,0.28125 v 1.34375 h 0.34375 v -1.40625 c 0,-0.131509 0,-0.25 -0.03125,-0.34375 -0.02995,-0.09375 -0.09766,-0.15885 -0.15625,-0.21875 -0.0586,-0.05989 -0.13412,-0.09635 -0.21875,-0.125 -0.08464,-0.02864 -0.173178,-0.0625 -0.28125,-0.0625 -0.08333,1e-05 -0.14974,0.01172 -0.21875,0.03125 -0.06771,0.01823 -0.13412,0.0586 -0.1875,0.09375 -0.05339,0.03386 -0.11458,0.07552 -0.15625,0.125 -0.04166,0.04948 -0.0625,0.09505 -0.09375,0.15625 0.0039,-0.05989 -0.0039,-0.12239 0,-0.1875 0.0039,-0.0664 -1e-06,-0.12239 0,-0.1875 v -0.78125 h -0.34375 z  m 7.375,0 .0938,1.25 .25,0 .0938,-1.25 -.4375,0 z  m .875,0 .0938,1.25 .25,0 .0938,-1.25 -.4375,0 z  m 11.125,0 .0625,1.25 .2812,0 .0938,-1.25 -.4375,0 z  m .875,0 .0625,1.25 .2812,0 .0938,-1.25 -.4375,0 z  m -10.6875,.2812 0,2.625 .7188,0 c 0.182291,0 0.325519,-0.03646 0.46875,-0.09375 0.144529,-0.05859 0.27604,-0.136718 0.375,-0.25 0.09896,-0.11328 0.16666,-0.239582 0.21875,-0.40625 0.05209,-0.167967 0.09375,-0.374999 0.09375,-0.59375 0,-0.223956 -0.03776,-0.430988 -0.09375,-0.59375 -0.05469,-0.162758 -0.141929,-0.269529 -0.25,-0.375 -0.108075,-0.105466 -0.247397,-0.20052 -0.40625,-0.25 -0.157553,-0.05078 -0.325522,-0.0625 -0.53125,-0.0625 h -0.59375 z  m .375,.2812 .2188,0 c 0.152343,0 0.294269,0.02474 0.40625,0.0625 0.111977,0.03646 0.20703,0.10807 0.28125,0.1875 0.07422,0.07813 0.11979,0.187502 0.15625,0.3125 0.03646,0.125002 0.0625,0.261721 0.0625,0.4375 -2e-06,0.346355 -0.08464,0.608074 -0.21875,0.78125 -0.134116,0.173176 -0.317709,0.25 -0.59375,0.25 h -0.3125 v -2.03125 z  m -13.875,.1875 c -0.125001,1e-05 -0.260418,0.02604 -0.375,0.0625 -0.113282,0.03646 -0.22526,0.10287 -0.3125,0.1875 -0.08724,0.08464 -0.13542,0.174481 -0.1875,0.3125 -0.05078,0.138022 -0.09375,0.328126 -0.09375,0.53125 0,0.183594 0.01953,0.329428 0.0625,0.46875 0.04427,0.138021 0.10547,0.2513 0.1875,0.34375 0.08203,0.09245 0.19401,0.17188 0.3125,0.21875 0.118489,0.04687 0.256509,0.0625 0.40625,0.0625 0.135415,0 0.24479,-0.0013 0.34375,-0.03125 0.09896,-0.03125 0.18099,-0.07812 0.25,-0.125 0.06901,-0.04818 0.14583,-0.09766 0.1875,-0.15625 0.04166,-0.05989 0.07291,-0.12891 0.09375,-0.1875 l -.3125,-.0938 c -0.01563,0.04688 -0.0612,0.11589 -0.09375,0.15625 -0.03255,0.03906 -0.07682,0.06511 -0.125,0.09375 -0.04818,0.02865 -0.09505,0.04557 -0.15625,0.0625 -0.0599,0.01564 -0.11589,0.03125 -0.1875,0.03125 -0.09635,0 -0.17578,-0.02604 -0.25,-0.0625 -0.07292,-0.03776 -0.13802,-0.08984 -0.1875,-0.15625 -0.04948,-0.06771 -0.10026,-0.15755 -0.125,-0.25 -0.02474,-0.09375 -0.03125,-0.170572 -0.03125,-0.28125 h 1.5 v -0.0625 c 0,-0.166665 0.0026,-0.330728 -0.03125,-0.46875 -0.03255,-0.138019 -0.08203,-0.24609 -0.15625,-0.34375 -0.07422,-0.09896 -0.194012,-0.16406 -0.3125,-0.21875 -0.117189,-0.05468 -0.235678,-0.09375 -0.40625,-0.09375 z  m 2.4062,0 c -0.123699,0 -0.226563,0.02735 -0.34375,0.0625 -0.117188,0.03386 -0.22005,0.07292 -0.3125,0.15625 -0.09115,0.08333 -0.16276,0.203126 -0.21875,0.34375 -0.05599,0.140626 -0.09375,0.319011 -0.09375,0.53125 -1e-05,0.15625 0.02734,0.303387 0.0625,0.4375 0.03516,0.132813 0.07943,0.24479 0.15625,0.34375 0.07812,0.09766 0.188802,0.19401 0.3125,0.25 0.124999,0.05599 0.259114,0.0625 0.4375,0.0625 0.130207,0 0.240884,0.0052 0.34375,-0.03125 0.102863,-0.03776 0.20703,-0.09505 0.28125,-0.15625 0.07422,-0.0612 0.14323,-0.13802 0.1875,-0.21875 0.04426,-0.08073 0.05078,-0.16276 0.0625,-0.25 l -.375,-.0312 c -0.02214,0.141927 -0.0638,0.24349 -0.15625,0.3125 -0.09245,0.06902 -0.203126,0.125001 -0.34375,0.125 -0.110678,0 -0.20443,-0.02474 -0.28125,-0.0625 -0.07552,-0.03776 -0.14063,-0.08463 -0.1875,-0.15625 -0.04557,-0.07161 -0.07292,-0.178385 -0.09375,-0.28125 -0.0195,-0.104166 -0.03125,-0.213541 -0.03125,-0.34375 0,-0.130207 0.01172,-0.243488 0.03125,-0.34375 0.02083,-0.101561 0.04818,-0.18229 0.09375,-0.25 0.04687,-0.06901 0.11198,-0.12109 0.1875,-0.15625 0.07682,-0.03646 0.16927,-0.0625 0.28125,-0.0625 0.153645,2e-06 0.26041,0.02474 0.34375,0.09375 0.08333,0.06771 0.13541,0.162762 0.15625,0.28125 l .375,-.0312 c -0.01693,-0.08854 -0.04818,-0.17318 -0.09375,-0.25 -0.04557,-0.07682 -0.11458,-0.13151 -0.1875,-0.1875 -0.07162,-0.05729 -0.149741,-0.09245 -0.25,-0.125 -0.100262,-0.03255 -0.216147,-0.0625 -0.34375,-0.0625 z  m 4.7812,0 c -0.302084,2e-06 -0.553386,0.09766 -0.71875,0.28125 -0.164063,0.182294 -0.250001,0.44922 -0.25,0.8125 0,0.186198 0.01823,0.36198 0.0625,0.5 0.04427,0.136719 0.10677,0.2526 0.1875,0.34375 0.08203,0.09115 0.197916,0.14323 0.3125,0.1875 0.115884,0.04427 0.233071,0.0625 0.375,0.0625 0.148436,0 0.289061,-0.01823 0.40625,-0.0625 0.118488,-0.04557 0.23047,-0.09635 0.3125,-0.1875 0.08203,-0.09114 0.14453,-0.207031 0.1875,-0.34375 0.04427,-0.138021 0.0625,-0.315104 0.0625,-0.5 -3e-06,-0.367186 -0.09505,-0.631509 -0.25,-0.8125 -0.15495,-0.180984 -0.369793,-0.281248 -0.6875,-0.28125 z  m 9.5938,0 c -0.302084,2e-06 -0.553386,0.09766 -0.71875,0.28125 -0.164063,0.182294 -0.250001,0.44922 -0.25,0.8125 0,0.186198 0.01823,0.36198 0.0625,0.5 0.04427,0.136719 0.10677,0.2526 0.1875,0.34375 0.08203,0.09115 0.197916,0.14323 0.3125,0.1875 0.115884,0.04427 0.233071,0.0625 0.375,0.0625 0.148436,0 0.289061,-0.01823 0.40625,-0.0625 0.118488,-0.04557 0.23047,-0.09635 0.3125,-0.1875 0.08203,-0.09114 0.14453,-0.207031 0.1875,-0.34375 0.04427,-0.138021 0.0625,-0.315104 0.0625,-0.5 -3e-06,-0.367186 -0.09505,-0.631509 -0.25,-0.8125 -0.15495,-0.180984 -0.369793,-0.281248 -0.6875,-0.28125 z  m 2.5625,0 c -0.08594,1e-05 -0.14974,0.01172 -0.21875,0.03125 -0.06901,0.01823 -0.13151,0.0586 -0.1875,0.09375 -0.05468,0.03386 -0.11328,0.07552 -0.15625,0.125 -0.04166,0.04948 -0.0625,0.09505 -0.09375,0.15625 h -0.03125 c 0,-0.02604 0.0013,-0.05599 0,-0.09375 -0.0013,-0.03906 0.0026,-0.08854 0,-0.125 -0.0013,-0.03776 0.0013,-0.0651 0,-0.09375 -0.0013,-0.02864 0.0013,-0.056 0,-0.0625 h -0.34375 c 0.0013,0.0091 -0.0013,0.03125 0,0.0625 0.0013,0.03125 -0.0013,0.08073 0,0.125 0.0013,0.04297 0,0.07552 0,0.125 0.0013,0.04818 0.03125,0.11198 0.03125,0.15625 v 1.65625 h 0.34375 v -1.21875 c 0,-0.105467 0.0026,-0.20052 0.03125,-0.28125 0.02865,-0.08203 0.07552,-0.16406 0.125,-0.21875 0.05078,-0.05598 0.12109,-0.09635 0.1875,-0.125 0.06771,-0.02994 0.14193,-0.03125 0.21875,-0.03125 0.0625,1e-05 0.10417,0.01563 0.15625,0.03125 0.05209,0.01562 0.08724,0.02214 0.125,0.0625 0.03906,0.03906 0.07292,0.08854 0.09375,0.15625 0.02213,0.06641 0.03125,0.177085 0.03125,0.28125 v 1.34375 h 0.375 v -1.40625 c 0,-0.131509 -0.03255,-0.25 -0.0625,-0.34375 -0.02865,-0.09375 -0.06771,-0.15885 -0.125,-0.21875 -0.05599,-0.05989 -0.13542,-0.09635 -0.21875,-0.125 -0.08333,-0.02864 -0.173178,-0.0625 -0.28125,-0.0625 z  m 2.2188,0 c -0.125001,1e-05 -0.229168,0.02604 -0.34375,0.0625 -0.113282,0.03646 -0.22526,0.10287 -0.3125,0.1875 -0.08724,0.08464 -0.13542,0.174481 -0.1875,0.3125 -0.05078,0.138022 -0.09375,0.328126 -0.09375,0.53125 0,0.183594 0.01953,0.329428 0.0625,0.46875 0.04427,0.138021 0.10547,0.2513 0.1875,0.34375 0.08203,0.09245 0.194009,0.17188 0.3125,0.21875 0.118488,0.04687 0.25651,0.0625 0.40625,0.0625 0.135416,0 0.24479,-0.0013 0.34375,-0.03125 0.09896,-0.03125 0.18099,-0.07812 0.25,-0.125 0.06901,-0.04818 0.11458,-0.09766 0.15625,-0.15625 0.04166,-0.05989 0.07291,-0.12891 0.09375,-0.1875 l -.3125,-.0938 c -0.01563,0.04688 -0.02995,0.11589 -0.0625,0.15625 -0.03255,0.03906 -0.07682,0.06511 -0.125,0.09375 -0.04818,0.02865 -0.09505,0.04557 -0.15625,0.0625 -0.0599,0.01564 -0.11589,0.03125 -0.1875,0.03125 -0.09636,0 -0.17578,-0.02604 -0.25,-0.0625 -0.07292,-0.03776 -0.13802,-0.08984 -0.1875,-0.15625 -0.04948,-0.06771 -0.10026,-0.15755 -0.125,-0.25 -0.02474,-0.09375 -0.03125,-0.170572 -0.03125,-0.28125 h 1.5 v -0.0625 c 0,-0.166665 0.0026,-0.330728 -0.03125,-0.46875 -0.03255,-0.138019 -0.11328,-0.24609 -0.1875,-0.34375 -0.07422,-0.09896 -0.162762,-0.16406 -0.28125,-0.21875 -0.117189,-0.05468 -0.266929,-0.09375 -0.4375,-0.09375 z  m -21.5625,.25 c 0.07031,0 0.1237,0.01042 0.1875,0.03125 0.0638,0.02084 0.13802,0.07552 0.1875,0.125 0.05078,0.04948 0.09114,0.10547 0.125,0.1875 0.03386,0.08203 0.05208,0.190106 0.0625,0.3125 h -1.15625 c 0.0039,-0.127603 0.02474,-0.23047 0.0625,-0.3125 0.03906,-0.08333 0.10026,-0.13932 0.15625,-0.1875 0.05599,-0.04818 0.1224,-0.10677 0.1875,-0.125 0.0664,-0.0195 0.1276,-0.03125 0.1875,-0.03125 z  m 7.1875,0 c 0.08333,0 0.14974,0.03646 0.21875,0.0625 0.06901,0.02474 0.13802,0.0612 0.1875,0.125 0.05078,0.0638 0.09765,0.14323 0.125,0.25 0.02865,0.106772 0.03125,0.242188 0.03125,0.40625 0,0.164063 -0.0013,0.298178 -0.03125,0.40625 -0.02864,0.108073 -0.07292,0.1862 -0.125,0.25 -0.05209,0.06381 -0.11458,0.13021 -0.1875,0.15625 -0.07162,0.02474 -0.16537,0.03125 -0.25,0.03125 -0.07422,0 -0.14974,-0.0052 -0.21875,-0.03125 -0.06771,-0.02604 -0.10417,-0.09245 -0.15625,-0.15625 -0.05079,-0.0638 -0.09375,-0.143229 -0.125,-0.25 -0.02995,-0.108072 -0.0625,-0.242187 -0.0625,-0.40625 0,-0.160155 0.03385,-0.299478 0.0625,-0.40625 0.02994,-0.106769 0.04297,-0.1862 0.09375,-0.25 0.05208,-0.0651 0.11588,-0.09896 0.1875,-0.125 0.07161,-0.02735 0.16536,-0.0625 0.25,-0.0625 z  m 9.5938,0 c 0.08333,0 0.14974,0.03646 0.21875,0.0625 0.06901,0.02474 0.13802,0.0612 0.1875,0.125 0.05078,0.0638 0.09765,0.14323 0.125,0.25 0.02865,0.106772 0.03125,0.242188 0.03125,0.40625 0,0.164063 -0.0013,0.298178 -0.03125,0.40625 -0.02864,0.108073 -0.07292,0.1862 -0.125,0.25 -0.05208,0.06381 -0.11458,0.13021 -0.1875,0.15625 -0.07162,0.02474 -0.16537,0.03125 -0.25,0.03125 -0.07422,0 -0.14974,-0.0052 -0.21875,-0.03125 -0.06771,-0.02604 -0.10417,-0.09245 -0.15625,-0.15625 -0.05078,-0.0638 -0.09375,-0.143229 -0.125,-0.25 -0.02995,-0.108072 -0.0625,-0.242187 -0.0625,-0.40625 0,-0.160155 0.03385,-0.299478 0.0625,-0.40625 0.02994,-0.106769 0.04297,-0.1862 0.09375,-0.25 0.05208,-0.0651 0.11588,-0.09896 0.1875,-0.125 0.07161,-0.02735 0.16536,-0.0625 0.25,-0.0625 z  m 4.7812,0 c 0.07031,0 0.15495,0.01042 0.21875,0.03125 0.0638,0.02084 0.10677,0.07552 0.15625,0.125 0.05078,0.04948 0.09114,0.10547 0.125,0.1875 0.03386,0.08203 0.08333,0.190106 0.09375,0.3125 h -1.15625 c 0.0039,-0.127603 0.02474,-0.23047 0.0625,-0.3125 0.03906,-0.08333 0.10026,-0.13932 0.15625,-0.1875 0.05599,-0.04818 0.09114,-0.10677 0.15625,-0.125 0.06641,-0.0195 0.1276,-0.03125 0.1875,-0.03125 z  m -17.625,4.8125 0,2.9062 .3438,0 0,-1.25 c 0,-0.105467 0.03385,-0.16927 0.0625,-0.25 0.02865,-0.08203 0.04427,-0.16406 0.09375,-0.21875 0.05078,-0.05598 0.12109,-0.09635 0.1875,-0.125 0.06771,-0.02994 0.14193,-0.0625 0.21875,-0.0625 0.0625,0 0.13541,0.01563 0.1875,0.03125 0.05209,0.01562 0.08724,0.05339 0.125,0.09375 0.03906,0.03906 0.07291,0.08854 0.09375,0.15625 0.02213,0.06641 0.03125,0.145834 0.03125,0.25 v 1.375 h 0.34375 v -1.40625 c 0,-0.131508 0,-0.25 -0.03125,-0.34375 -0.02995,-0.09375 -0.09766,-0.1901 -0.15625,-0.25 -0.0586,-0.05989 -0.13412,-0.09635 -0.21875,-0.125 -0.08464,-0.02864 -0.173178,-0.03125 -0.28125,-0.03125 -0.08333,0 -0.14974,0.01172 -0.21875,0.03125 -0.06771,0.01823 -0.13412,0.02735 -0.1875,0.0625 -0.05339,0.03386 -0.11458,0.07552 -0.15625,0.125 -0.04166,0.04948 -0.0625,0.1263 -0.09375,0.1875 0.0039,-0.05989 -0.0039,-0.12239 0,-0.1875 0.0039,-0.0664 -1e-06,-0.15364 0,-0.21875 v -0.75 h -0.34375 z  m -3.9375,.75 c -0.125001,1e-05 -0.260418,0.02604 -0.375,0.0625 -0.113282,0.03646 -0.22526,0.07162 -0.3125,0.15625 -0.08724,0.08464 -0.13542,0.205731 -0.1875,0.34375 -0.05078,0.138023 -0.09375,0.296876 -0.09375,0.5 0,0.183595 0.01953,0.360678 0.0625,0.5 0.04427,0.138021 0.10547,0.2513 0.1875,0.34375 0.08203,0.09245 0.19401,0.17188 0.3125,0.21875 0.118489,0.04687 0.256509,0.0625 0.40625,0.0625 0.135415,0 0.24479,-0.03255 0.34375,-0.0625 0.09896,-0.03125 0.18099,-0.04688 0.25,-0.09375 0.06901,-0.04818 0.14583,-0.09766 0.1875,-0.15625 0.04166,-0.05989 0.07291,-0.12891 0.09375,-0.1875 l -.3125,-.0938 c -0.01563,0.04688 -0.0612,0.08464 -0.09375,0.125 -0.03255,0.03906 -0.07682,0.09636 -0.125,0.125 -0.04818,0.02865 -0.09505,0.04557 -0.15625,0.0625 -0.0599,0.01564 -0.11589,0 -0.1875,0 -0.09635,0 -0.17578,0.0052 -0.25,-0.03125 -0.07292,-0.03776 -0.13802,-0.08984 -0.1875,-0.15625 -0.04948,-0.06771 -0.10026,-0.15755 -0.125,-0.25 -0.02474,-0.09375 -0.03125,-0.201822 -0.03125,-0.3125 h 1.5 v -0.03125 c 0,-0.166666 0.0026,-0.330727 -0.03125,-0.46875 -0.03255,-0.138019 -0.08203,-0.24609 -0.15625,-0.34375 -0.07422,-0.09896 -0.194012,-0.19531 -0.3125,-0.25 -0.117189,-0.05468 -0.235678,-0.0625 -0.40625,-0.0625 z  m 2.4062,0 c -0.123699,0 -0.226563,-0.0039 -0.34375,0.03125 -0.117188,0.03386 -0.22005,0.10417 -0.3125,0.1875 -0.09115,0.08334 -0.16276,0.203127 -0.21875,0.34375 -0.05599,0.140626 -0.09375,0.319012 -0.09375,0.53125 -1e-05,0.156251 0.02734,0.303386 0.0625,0.4375 0.03516,0.132813 0.07943,0.24479 0.15625,0.34375 0.07812,0.09766 0.188802,0.16276 0.3125,0.21875 0.124999,0.05599 0.259114,0.09375 0.4375,0.09375 0.130207,0 0.240884,-0.02604 0.34375,-0.0625 0.102863,-0.03776 0.20703,-0.09505 0.28125,-0.15625 0.07422,-0.0612 0.14323,-0.10677 0.1875,-0.1875 0.04426,-0.08073 0.05078,-0.16276 0.0625,-0.25 l -.375,-.0312 c -0.02214,0.141927 -0.0638,0.24349 -0.15625,0.3125 -0.09245,0.06901 -0.203126,0.09375 -0.34375,0.09375 -0.110678,0 -0.20443,-0.02474 -0.28125,-0.0625 -0.07552,-0.03776 -0.14063,-0.08464 -0.1875,-0.15625 -0.04557,-0.07161 -0.07292,-0.147135 -0.09375,-0.25 -0.0195,-0.104166 -0.03125,-0.21354 -0.03125,-0.34375 0,-0.130207 0.01172,-0.274738 0.03125,-0.375 0.02083,-0.101561 0.04818,-0.18229 0.09375,-0.25 0.04687,-0.06901 0.11198,-0.12109 0.1875,-0.15625 0.07682,-0.03646 0.16927,-0.03125 0.28125,-0.03125 0.153645,2e-06 0.26041,0.02474 0.34375,0.09375 0.08333,0.06771 0.13541,0.162762 0.15625,0.28125 l .375,-.0312 c -0.01693,-0.08854 -0.04818,-0.17318 -0.09375,-0.25 -0.04557,-0.07682 -0.11458,-0.13151 -0.1875,-0.1875 -0.07162,-0.05729 -0.149741,-0.1237 -0.25,-0.15625 -0.100262,-0.03255 -0.216147,-0.03125 -0.34375,-0.03125 z  m 4.7812,0 c -0.302084,2e-06 -0.553386,0.09766 -0.71875,0.28125 -0.164063,0.182294 -0.250001,0.44922 -0.25,0.8125 0,0.186199 0.01823,0.33073 0.0625,0.46875 0.04427,0.136719 0.10677,0.2526 0.1875,0.34375 0.08203,0.09115 0.197916,0.17448 0.3125,0.21875 0.115884,0.04428 0.233071,0.0625 0.375,0.0625 0.148436,0 0.289061,-0.01823 0.40625,-0.0625 0.118488,-0.04557 0.23047,-0.1276 0.3125,-0.21875 0.08203,-0.09115 0.14453,-0.207031 0.1875,-0.34375 0.04427,-0.13802 0.0625,-0.283853 0.0625,-0.46875 -3e-06,-0.367186 -0.09505,-0.662759 -0.25,-0.84375 -0.15495,-0.180984 -0.369793,-0.249998 -0.6875,-0.25 z  m -7.1875,.25 c 0.07031,0 0.1237,0.01042 0.1875,0.03125 0.0638,0.02084 0.13802,0.04427 0.1875,0.09375 0.05078,0.04948 0.09114,0.13672 0.125,0.21875 0.03386,0.08203 0.05208,0.190106 0.0625,0.3125 h -1.15625 c 0.0039,-0.127602 0.02474,-0.23047 0.0625,-0.3125 0.03906,-0.08333 0.10026,-0.17057 0.15625,-0.21875 0.05599,-0.04818 0.1224,-0.07552 0.1875,-0.09375 0.0664,-0.0195 0.1276,-0.03125 0.1875,-0.03125 z  m 7.1875,0 c 0.08333,0 0.14974,0.0052 0.21875,0.03125 0.06901,0.02474 0.13802,0.09245 0.1875,0.15625 0.05078,0.0638 0.09765,0.143231 0.125,0.25 0.02865,0.106772 0.03125,0.242189 0.03125,0.40625 0,0.164063 -0.0013,0.298178 -0.03125,0.40625 -0.02864,0.108073 -0.07292,0.1862 -0.125,0.25 -0.05209,0.06381 -0.11458,0.09896 -0.1875,0.125 -0.07162,0.02474 -0.16537,0.0625 -0.25,0.0625 -0.07422,0 -0.14974,-0.03646 -0.21875,-0.0625 -0.06771,-0.02604 -0.10417,-0.0612 -0.15625,-0.125 -0.05079,-0.0638 -0.09375,-0.143229 -0.125,-0.25 -0.02995,-0.108072 -0.0625,-0.242187 -0.0625,-0.40625 0,-0.160155 0.03385,-0.299478 0.0625,-0.40625 0.02994,-0.106769 0.04297,-0.1862 0.09375,-0.25 0.05208,-0.0651 0.11588,-0.13021 0.1875,-0.15625 0.07161,-0.02735 0.16536,-0.03125 0.25,-0.03125 z "/>
<path id="rect2909" d="m 12,69 0,1 c 0,1.662 1.338,3 3,3 h 66 c 1.662,0 3,-1.338 3,-3 v -1 c 0,1.662 -1.338,3 -3,3 h -66 c -1.662,0 -3,-1.338 -3,-3 z "/>
<g style="line-height:125%;font-family:MgOpen Canonica;font-size:48px">
<path style="font-weight:bold" id="path3213" d="m 20,46 0,4.002171 8.011647,3.093117 L 20,56.127758 20,60 31.946726,55.083525 32,51.24142 20,46 z"/>
<path style="font-weight:bold" id="path3557" d="m 32,60 0,4 12,0 0,-4 -12,0 z"/>
</g>
</g>
</g>
</svg>
