<svg width="96" version="1.0" xmlns="http://www.w3.org/2000/svg" height="96" xmlns:xlink="http://www.w3.org/1999/xlink">
<defs id="defs2410">
<clipPath id="clipPath3730">
<path style="fill:#f0f;stroke:none" id="path3732" d="m -88,6 c -3.324,0 -6,2.676 -6,6 v 72 c 0,3.324 2.676,6 6,6 h 72 c 3.324,0 6,-2.676 6,-6 v -72 c 0,-3.324 -2.676,-6 -6,-6 h -72 z  m 38.6562,18 c 1.6457,4.7e-05 3.02939,0.559154 4.1875,1.65625 1.17839,1.09719 1.74998,2.42467 1.75,3.96875 -2e-05,1.54417 -0.571609,2.87165 -1.75,3.96875 -1.15811,1.07686 -2.5418,1.62503 -4.1875,1.625 -1.64573,3.5e-05 -3.0716,-0.548138 -4.25,-1.625 -1.17842,-1.0971 -1.75001,-2.42458 -1.75,-3.96875 -1.1e-05,-1.54408 0.571577,-2.87156 1.75,-3.96875 1.1784,-1.0971 2.60427,-1.6562 4.25,-1.65625 z  m -5.5938,16.25 c 2.41776,3.1e-05 4.29342,0.602866 5.59375,1.78125 1.32062,1.15812 1.93748,2.69332 1.9375,4.5625 -2.6e-05,0.386058 -0.02343,1.05604 -0.125,2.03125 -0.08128,0.975259 -0.256208,1.84357 -0.5,2.65625 l -2.5,8.875 c -0.203189,0.711117 -0.368725,1.52322 -0.53125,2.4375 -0.16256,0.914292 -0.250015,1.5952 -0.25,2.0625 -1.5e-05,1.17843 0.252982,2.01084 0.78125,2.4375 0.528239,0.426674 1.44967,0.625 2.75,0.625 0.609506,0 1.32167,-0.109304 2.09375,-0.3125 0.772042,-0.223499 1.31083,-0.399946 1.65625,-0.5625 l -.6562,2.75 c -2.01145,0.792375 -3.64504,1.3749 -4.84375,1.78125 -1.19875,0.426673 -2.5715,0.625 -4.15625,0.625 -2.4381,0 -4.35749,-0.571587 -5.71875,-1.75 -1.34096,-1.19872 -2,-2.70268 -2,-4.53125 -5e-06,-0.711104 0.0859,-1.45606 0.1875,-2.1875 0.101587,-0.751727 0.214004,-1.59663 0.4375,-2.53125 l 2.5,-8.875 c 0.223484,-0.853313 0.420271,-1.65448 0.5625,-2.40625 0.16253,-0.772041 0.249993,-1.46389 0.25,-2.09375 -8e-06,-1.13775 -0.251457,-1.92799 -0.71875,-2.375 -0.467307,-0.446959 -1.33562,-0.718724 -2.65625,-0.71875 -0.650163,2.6e-05 -1.30921,0.140615 -2,0.34375 -0.670477,0.203201 -1.26238,0.41092 -1.75,0.59375 l .6562,-2.75 c 1.64571,-0.670448 3.2465,-1.25142 4.75,-1.71875 1.50348,-0.487589 2.90904,-0.749969 4.25,-0.75 z "/>
</clipPath>
<clipPath id="clipPath3613">
<rect width="84" x="6" y="6" rx="6" height="84" ry="6" style="fill:#fff;stroke:none" id="rect3615"/>
</clipPath>
<filter width="1.4699095" x="-0.23495482" y="-0.1038125" height="1.207625" style="color-interpolation-filters:sRGB" id="filter3738">
<feGaussianBlur stdDeviation="2.07625" id="feGaussianBlur3740"/>
</filter>
<filter width="1.3839999" x="-0.192" y="-0.192" height="1.3839999" style="color-interpolation-filters:sRGB" id="filter3794">
<feGaussianBlur stdDeviation="5.28" id="feGaussianBlur3796"/>
</filter>
<filter style="color-interpolation-filters:sRGB" id="filter3174">
<feGaussianBlur stdDeviation="1.71" id="feGaussianBlur3176"/>
</filter>
<linearGradient id="linearGradient3923" xlink:href="#linearGradient3737-1" y1="6" x1="36.357143" y2="63.893143" x2="36.357143" gradientUnits="userSpaceOnUse"/>
<linearGradient id="linearGradient3737-9">
<stop offset="0" style="stop-color:#fff" id="stop3739-2"/>
<stop offset="1" style="stop-color:#fff;stop-opacity:0" id="stop3741-1"/>
</linearGradient>
<linearGradient id="linearGradient3697">
<stop offset="0" style="stop-color:#bababa" id="stop3699"/>
<stop offset="1" style="stop-color:#d2d2d2" id="stop3701"/>
</linearGradient>
<linearGradient id="linearGradient3737-0">
<stop offset="0" style="stop-color:#fff" id="stop3739-6"/>
<stop offset="1" style="stop-color:#fff;stop-opacity:0" id="stop3741-0"/>
</linearGradient>
<linearGradient gradientTransform="matrix(1.3333333,0,0,1.3333333,-50.401545,-11.129853)" id="linearGradient2937" xlink:href="#linearGradient3697" y1="62.025059" x1="71.671646" y2="26.413651" x2="71.671646" gradientUnits="userSpaceOnUse"/>
<linearGradient id="linearGradient4504" xlink:href="#linearGradient3737-9" y1="20.220806" x1="48" y2="138.66119" x2="48" gradientUnits="userSpaceOnUse"/>
<linearGradient gradientTransform="matrix(1.0058652,0,0,0.994169,100,0)" id="ButtonShadow-0" y1="92.539597" x1="45.447727" y2="7.0165396" x2="45.447727" gradientUnits="userSpaceOnUse">
<stop offset="0" id="stop3750-8"/>
<stop offset="1" style="stop-opacity:.588" id="stop3752-5"/>
</linearGradient>
<linearGradient id="linearGradient3706" xlink:href="#linearGradient3700" y1="90" x1="48" y2="5.9877172" x2="48" gradientUnits="userSpaceOnUse"/>
<linearGradient gradientTransform="scale(1.0058652,0.994169)" id="ButtonShadow" y1="92.539597" x1="45.447727" y2="7.0165396" x2="45.447727" gradientUnits="userSpaceOnUse">
<stop offset="0" id="stop3750"/>
<stop offset="1" style="stop-opacity:.588" id="stop3752"/>
</linearGradient>
<linearGradient id="linearGradient3700">
<stop offset="0" style="stop-color:#ebebeb" id="stop3702"/>
<stop offset="1" style="stop-color:#fafafa" id="stop3704"/>
</linearGradient>
<linearGradient gradientTransform="matrix(1.0238095,0,0,1.0119048,-1.1428571,-98.071429)" id="linearGradient3780" xlink:href="#ButtonShadow-0" y1="6.1317081" x1="32.251034" y2="90.238609" x2="32.251034" gradientUnits="userSpaceOnUse"/>
<linearGradient id="linearGradient3737-1">
<stop offset="0" style="stop-color:#fff" id="stop3739-9"/>
<stop offset="1" style="stop-color:#fff;stop-opacity:0" id="stop3741-3"/>
</linearGradient>
<linearGradient gradientTransform="translate(0,-97)" id="linearGradient3721" xlink:href="#ButtonShadow-0" y1="6.1317081" x1="32.251034" y2="90.238609" x2="32.251034" gradientUnits="userSpaceOnUse"/>
<linearGradient gradientTransform="matrix(1.0238095,0,0,1.0119048,-1.1428571,-98.071429)" id="linearGradient3760" xlink:href="#ButtonShadow-0" y1="6.1317081" x1="32.251034" y2="90.238609" x2="32.251034" gradientUnits="userSpaceOnUse"/>
<linearGradient gradientTransform="matrix(1.0238095,0,0,1.0119048,-1.1428571,-98.071429)" id="linearGradient3725" xlink:href="#ButtonShadow-0" y1="6.1317081" x1="32.251034" y2="90.238609" x2="32.251034" gradientUnits="userSpaceOnUse"/>
<linearGradient gradientTransform="matrix(1.0238095,0,0,1.0119048,-1.1428571,-98.071429)" id="linearGradient3772" xlink:href="#ButtonShadow-0" y1="6.1317081" x1="32.251034" y2="90.238609" x2="32.251034" gradientUnits="userSpaceOnUse"/>
<radialGradient fx="48" fy="90.171875" cx="48" cy="90.171875" gradientTransform="matrix(1.1573129,0,0,0.99590774,-7.551021,0.1971319)" r="42" id="radialGradient2886" xlink:href="#linearGradient3737-0" gradientUnits="userSpaceOnUse"/>
</defs>
<g style="display:none" id="layer2">
<rect width="86" x="5" y="7" rx="6" height="85" ry="6" style="opacity:.9;fill:url(#ButtonShadow);filter:url(#filter3174);stroke:none" id="rect3745"/>
</g>
<g style="stroke:none" id="layer6">
<path style="opacity:.08;fill:url(#linearGradient3760)" id="path3786" d="m 12,-95.0312 c -5.51109,0 -10.0312,4.52016 -10.0312,10.0312 v 71 c 0,5.51109 4.52016,10.0312 10.0312,10.0312 h 72 c 5.51109,0 10.0312,-4.52016 10.0312,-10.0312 v -71 c 0,-5.51109 -4.52016,-10.0312 -10.0312,-10.0312 h -72 z " transform="scale(1,-1)"/>
<path style="opacity:.1;fill:url(#linearGradient3780)" id="path3778" d="m 12,-94.0312 c -4.97163,0 -9.03125,4.05962 -9.03125,9.03125 v 71 c 0,4.97163 4.05962,9.03125 9.03125,9.03125 h 72 c 4.97163,0 9.03125,-4.05962 9.03125,-9.03125 v -71 c 0,-4.97163 -4.05962,-9.03125 -9.03125,-9.03125 h -72 z " transform="scale(1,-1)"/>
<path style="opacity:.2;fill:url(#linearGradient3772)" id="path3770" d="m 12,-93 c -4.40913,0 -8,3.59087 -8,8 v 71 c 0,4.40913 3.59087,8 8,8 h 72 c 4.40913,0 8,-3.59087 8,-8 v -71 c 0,-4.40913 -3.59087,-8 -8,-8 h -72 z " transform="scale(1,-1)"/>
<rect width="86" x="5" y="-92" rx="7" height="85" ry="7" style="opacity:.3;fill:url(#linearGradient3725)" id="rect3723" transform="scale(1,-1)"/>
<rect width="84" x="6" y="-91" rx="6" height="84" ry="6" style="opacity:.45;fill:url(#linearGradient3721)" id="rect3716" transform="scale(1,-1)"/>
</g>
<g id="layer1">
<g style="stroke:none">
<rect width="84" x="6" y="6" rx="6" height="84" ry="6" style="fill:url(#linearGradient3706)" id="rect2419"/>
<path style="opacity:.5;fill:url(#linearGradient3923)" id="rect3728" d="M 12,6 C 8.676,6 6,8.676 6,12 l 0,2 0,68 0,2 c 0,0.334721 0.04135,0.6507 0.09375,0.96875 0.0487,0.295596 0.09704,0.596915 0.1875,0.875 0.0099,0.03038 0.02089,0.0636 0.03125,0.09375 0.09886,0.287771 0.23488,0.547452 0.375,0.8125 0.144592,0.273507 0.315616,0.535615 0.5,0.78125 0.184384,0.245635 0.373776,0.473472 0.59375,0.6875 0.439947,0.428056 0.94291,0.814526 1.5,1.09375 0.278545,0.139612 0.573473,0.246947 0.875,0.34375 -0.256202,-0.100222 -0.486711,-0.236272 -0.71875,-0.375 -0.0074,-0.0044 -0.02387,0.0045 -0.03125,0 -0.03193,-0.0193 -0.06229,-0.04251 -0.09375,-0.0625 -0.120395,-0.0767 -0.231023,-0.163513 -0.34375,-0.25 -0.106173,-0.0808 -0.213281,-0.161112 -0.3125,-0.25 C 8.47832,88.557317 8.30879,88.373362 8.15625,88.1875 8.048671,88.057245 7.937856,87.922215 7.84375,87.78125 7.81866,87.74287 7.8053,87.69538 7.78125,87.65625 7.71649,87.553218 7.651022,87.451733 7.59375,87.34375 7.492742,87.149044 7.388075,86.928049 7.3125,86.71875 7.3045,86.69694 7.28891,86.6782 7.28125,86.65625 7.24942,86.5643 7.24545,86.469419 7.21875,86.375 7.188418,86.268382 7.148361,86.171969 7.125,86.0625 7.052121,85.720988 7,85.364295 7,85 L 7,83 7,15 7,13 C 7,10.218152 9.218152,8 12,8 l 2,0 68,0 2,0 c 2.781848,0 5,2.218152 5,5 l 0,2 0,68 0,2 c 0,0.364295 -0.05212,0.720988 -0.125,1.0625 -0.04415,0.206893 -0.08838,0.397658 -0.15625,0.59375 -0.0077,0.02195 -0.0233,0.04069 -0.03125,0.0625 -0.06274,0.173739 -0.138383,0.367449 -0.21875,0.53125 -0.04158,0.0828 -0.07904,0.169954 -0.125,0.25 -0.0546,0.09721 -0.126774,0.18835 -0.1875,0.28125 -0.09411,0.140965 -0.204921,0.275995 -0.3125,0.40625 -0.143174,0.17445 -0.303141,0.346998 -0.46875,0.5 -0.01117,0.0102 -0.01998,0.02115 -0.03125,0.03125 -0.138386,0.125556 -0.285091,0.234436 -0.4375,0.34375 -0.102571,0.07315 -0.204318,0.153364 -0.3125,0.21875 -0.0074,0.0045 -0.02384,-0.0044 -0.03125,0 -0.232039,0.138728 -0.462548,0.274778 -0.71875,0.375 0.301527,-0.0968 0.596455,-0.204138 0.875,-0.34375 0.55709,-0.279224 1.060053,-0.665694 1.5,-1.09375 0.219973,-0.214028 0.409366,-0.441865 0.59375,-0.6875 0.184384,-0.245635 0.355408,-0.507743 0.5,-0.78125 0.14012,-0.265048 0.276135,-0.524729 0.375,-0.8125 0.01041,-0.03078 0.02133,-0.06274 0.03125,-0.09375 0.09046,-0.278085 0.1388,-0.579404 0.1875,-0.875 C 89.95865,84.6507 90,84.334721 90,84 l 0,-2 0,-68 0,-2 C 90,8.676 87.324,6 84,6 L 12,6 z"/>
<path style="opacity:.4;fill:url(#radialGradient2886)" id="path3615" d="M 12,90 C 8.676,90 6,87.324 6,84 L 6,82 6,14 6,12 c 0,-0.334721 0.04135,-0.6507 0.09375,-0.96875 0.0487,-0.295596 0.09704,-0.596915 0.1875,-0.875 C 6.29113,10.12587 6.302142,10.09265 6.3125,10.0625 6.411365,9.774729 6.5473802,9.515048 6.6875,9.25 6.8320918,8.976493 7.0031161,8.714385 7.1875,8.46875 7.3718839,8.223115 7.5612765,7.995278 7.78125,7.78125 8.221197,7.353194 8.72416,6.966724 9.28125,6.6875 9.559795,6.547888 9.8547231,6.440553 10.15625,6.34375 9.9000482,6.443972 9.6695391,6.580022 9.4375,6.71875 c -0.00741,0.0044 -0.023866,-0.0045 -0.03125,0 -0.031933,0.0193 -0.062293,0.04251 -0.09375,0.0625 -0.120395,0.0767 -0.2310226,0.163513 -0.34375,0.25 -0.1061728,0.0808 -0.2132809,0.161112 -0.3125,0.25 C 8.4783201,7.442683 8.3087904,7.626638 8.15625,7.8125 8.0486711,7.942755 7.9378561,8.077785 7.84375,8.21875 7.818661,8.25713 7.805304,8.30462 7.78125,8.34375 7.716487,8.446782 7.6510225,8.548267 7.59375,8.65625 7.4927417,8.850956 7.3880752,9.071951 7.3125,9.28125 7.30454,9.30306 7.288911,9.3218 7.28125,9.34375 7.2494249,9.4357 7.2454455,9.530581 7.21875,9.625 7.1884177,9.731618 7.1483606,9.828031 7.125,9.9375 7.0521214,10.279012 7,10.635705 7,11 l 0,2 0,68 0,2 c 0,2.781848 2.2181517,5 5,5 l 2,0 68,0 2,0 c 2.781848,0 5,-2.218152 5,-5 l 0,-2 0,-68 0,-2 C 89,10.635705 88.94788,10.279012 88.875,9.9375 88.83085,9.730607 88.78662,9.539842 88.71875,9.34375 88.71105,9.3218 88.69545,9.30306 88.6875,9.28125 88.62476,9.107511 88.549117,8.913801 88.46875,8.75 88.42717,8.6672 88.38971,8.580046 88.34375,8.5 88.28915,8.40279 88.216976,8.31165 88.15625,8.21875 88.06214,8.077785 87.951329,7.942755 87.84375,7.8125 87.700576,7.63805 87.540609,7.465502 87.375,7.3125 87.36383,7.3023 87.35502,7.29135 87.34375,7.28125 87.205364,7.155694 87.058659,7.046814 86.90625,6.9375 86.803679,6.86435 86.701932,6.784136 86.59375,6.71875 c -0.0074,-0.0045 -0.02384,0.0044 -0.03125,0 -0.232039,-0.138728 -0.462548,-0.274778 -0.71875,-0.375 0.301527,0.0968 0.596455,0.204138 0.875,0.34375 0.55709,0.279224 1.060053,0.665694 1.5,1.09375 0.219973,0.214028 0.409366,0.441865 0.59375,0.6875 0.184384,0.245635 0.355408,0.507743 0.5,0.78125 0.14012,0.265048 0.276135,0.524729 0.375,0.8125 0.01041,0.03078 0.02133,0.06274 0.03125,0.09375 0.09046,0.278085 0.1388,0.579404 0.1875,0.875 C 89.95865,11.3493 90,11.665279 90,12 l 0,2 0,68 0,2 c 0,3.324 -2.676,6 -6,6 l -72,0 z"/>
<rect width="84" x="-94" y="6" rx="6" height="84" ry="6" style="fill:#f0f" id="rect3654"/>
</g>
<rect width="16" x="112" y="8" height="16" style="fill:#fff;stroke:#000;stroke-linecap:round;color:#000;stroke-width:.5;stroke-dashoffset:8.6" id="rect3797"/>
<g style="text-align:start;line-height:100%">
<g style="stroke:none">
<text x="131.39261" y="11.969256" style="font-family:Liberation Sans;line-height:125%;font-size:4px" id="text3799" xml:space="preserve"><tspan x="131.39261" y="11.969256" id="tspan3801">Width: 2px</tspan><tspan x="131.39261" y="16.969257" id="tspan3803">Blur: 12</tspan><tspan x="131.39261" y="21.969257" id="tspan3807">Opacity: 60</tspan>
</text>
<g style="font-family:Georgia;font-size:48px;font-style:italic;writing-mode:tb-rl">
<path style="fill:url(#linearGradient2937);font-weight:bold" id="path3659" d="m 50.6458,24 c -1.64573,4.7e-05 -3.0716,0.569571 -4.25,1.66667 -1.17842,1.09719 -1.75001,2.41425 -1.75,3.95833 -1.1e-05,1.54417 0.571577,2.86123 1.75,3.95833 1.1784,1.07686 2.60427,1.62503 4.25,1.625 1.6457,3.5e-05 3.05022,-0.548138 4.20833,-1.625 1.17839,-1.0971 1.74998,-2.41417 1.75,-3.95833 -2e-05,-1.54408 -0.571609,-2.86115 -1.75,-3.95833 -1.15811,-1.0971 -2.56264,-1.66662 -4.20833,-1.66667 z  m -5.5833,16.25 c -1.34096,3.1e-05 -2.74652,0.262411 -4.25,0.75 -1.5035,0.467331 -3.10429,1.03789 -4.75,1.70833 l -.6667,2.75 c 0.487617,-0.18283 1.07952,-0.380132 1.75,-0.583333 0.69079,-0.203135 1.34984,-0.333307 2,-0.333333 1.32063,2.6e-05 2.19936,0.261374 2.66667,0.708333 0.467293,0.447011 0.708326,1.23725 0.708334,2.375 -7e-06,0.629864 -0.08747,1.31129 -0.25,2.08333 -0.142229,0.751767 -0.318183,1.56335 -0.541667,2.41667 l -2.5,8.875 c -0.223496,0.934616 -0.356746,1.78994 -0.458333,2.54167 -0.1016,0.731441 -0.166672,1.45556 -0.166667,2.16667 -4e-06,1.82857 0.659043,3.34294 2,4.54167 1.36126,1.17841 3.27023,1.75 5.70833,1.75 1.58475,0 2.96792,-0.198327 4.16667,-0.625 1.19871,-0.406349 2.82189,-0.999292 4.83333,-1.79167 l .6667,-2.75 c -0.34542,0.162554 -0.894624,0.359835 -1.66667,0.583334 -0.772083,0.203196 -1.47383,0.291666 -2.08333,0.291666 -1.30033,0 -2.22176,-0.198326 -2.75,-0.625 -0.528268,-0.42666 -0.791681,-1.23824 -0.791666,-2.41667 -1.5e-05,-0.467296 0.08744,-1.16904 0.25,-2.08333 0.162525,-0.914278 0.338477,-1.70555 0.541666,-2.41667 l 2.5,-8.875 c 0.243792,-0.812679 0.41872,-1.69141 0.5,-2.66667 0.101574,-0.975215 0.124974,-1.65561 0.125,-2.04167 -2e-05,-1.86918 -0.637716,-3.38354 -1.95833,-4.54167 -1.30033,-1.17838 -3.16557,-1.79164 -5.58333,-1.79167 z "/>
<path style="opacity:.2;font-weight:bold" id="path3702" d="m 50.6562,24 c -1.64573,4.7e-05 -3.0716,0.559154 -4.25,1.65625 -1.17842,1.09719 -1.75001,2.42467 -1.75,3.96875 -1e-06,0.150259 0.02039,0.291535 0.03125,0.4375 0.125509,-1.30151 0.68763,-2.44621 1.71875,-3.40625 1.1784,-1.0971 2.60427,-1.6562 4.25,-1.65625 1.6457,4.7e-05 3.02939,0.559154 4.1875,1.65625 1.03109,0.960038 1.59322,2.10474 1.71875,3.40625 0.01086,-0.145965 0.03125,-0.287241 0.03125,-0.4375 -2e-05,-1.54408 -0.571609,-2.87156 -1.75,-3.96875 -1.15811,-1.0971 -2.5418,-1.6562 -4.1875,-1.65625 z  m -5.5938,16.25 c -1.34096,3.1e-05 -2.74652,0.262411 -4.25,0.75 -1.5035,0.467331 -3.10429,1.0483 -4.75,1.71875 l -.6562,2.75 c 0.07042,-0.0264 0.175311,-0.06677 0.25,-0.09375 l .4062,-1.6562 c 1.64571,-0.670448 3.2465,-1.25142 4.75,-1.71875 1.50348,-0.487589 2.90904,-0.749969 4.25,-0.75 2.41776,3.1e-05 4.29342,0.602866 5.59375,1.78125 1.2682,1.11215 1.8888,2.57581 1.9375,4.34375 0.01855,-0.340258 -1.3e-05,-0.588221 0,-0.78125 -2e-05,-1.86918 -0.616883,-3.40438 -1.9375,-4.5625 -1.30033,-1.17838 -3.17599,-1.78122 -5.59375,-1.78125 z  m -2.5625,7.9375 c -0.03465,0.475852 -0.101912,0.976252 -0.21875,1.53125 -0.142229,0.751767 -0.339016,1.55294 -0.5625,2.40625 l -2.5,8.875 c -0.223496,0.934616 -0.335913,1.77952 -0.4375,2.53125 -0.1016,0.731441 -0.187505,1.4764 -0.1875,2.1875 0,0.185133 0.01772,0.35256 0.03125,0.53125 0.02089,-0.562821 0.07643,-1.14413 0.15625,-1.71875 0.101587,-0.751727 0.214004,-1.59663 0.4375,-2.53125 l 2.5,-8.875 c 0.223484,-0.853313 0.420271,-1.65448 0.5625,-2.40625 0.16253,-0.772041 0.249993,-1.46389 0.25,-2.09375 -1e-06,-0.159177 -0.02185,-0.291915 -0.03125,-0.4375 z  m 6.2188,16.9375 c -0.01574,0.184254 -0.03126,0.389519 -0.03125,0.53125 -1.5e-05,1.17843 0.252982,2.01084 0.78125,2.4375 0.528239,0.426674 1.44967,0.625 2.75,0.625 0.609506,0 1.32167,-0.109304 2.09375,-0.3125 0.625278,-0.181012 1.06319,-0.326653 1.40625,-0.46875 l .25,-1.0938 c -0.34542,0.162554 -0.884208,0.339001 -1.65625,0.5625 -0.772083,0.203196 -1.48424,0.3125 -2.09375,0.3125 -1.30033,0 -2.22176,-0.198326 -2.75,-0.625 -0.452135,-0.365171 -0.685001,-1.05098 -0.75,-1.96875 z "/>
<path style="fill:#fff;font-weight:bold" id="path3712" d="m 44.6875,30.1875 c -0.01086,0.145959 -0.03125,0.287249 -0.03125,0.4375 -1.1e-05,1.54417 0.571577,2.87165 1.75,3.96875 1.1784,1.07686 2.60427,1.62503 4.25,1.625 1.6457,3.5e-05 3.02939,-0.548138 4.1875,-1.625 1.17839,-1.0971 1.74998,-2.42458 1.75,-3.96875 -2e-06,-0.150251 -0.02039,-0.291541 -0.03125,-0.4375 -0.12553,1.30157 -0.687658,2.44628 -1.71875,3.40625 -1.15811,1.07686 -2.5418,1.62503 -4.1875,1.625 -1.64573,3.5e-05 -3.0716,-0.548138 -4.25,-1.625 -1.03112,-0.959966 -1.59324,-2.10468 -1.71875,-3.40625 z  m -5.5312,14.3438 c -0.650163,2.6e-05 -1.30921,0.140615 -2,0.34375 -0.573654,0.173857 -1.05749,0.340149 -1.5,0.5 l -.25,1.0938 c 0.487617,-0.18283 1.07952,-0.390549 1.75,-0.59375 0.69079,-0.203135 1.34984,-0.343724 2,-0.34375 1.32063,2.6e-05 2.18894,0.271791 2.65625,0.71875 0.401917,0.384472 0.629736,1.04249 0.6875,1.9375 0.01355,-0.186091 0.03125,-0.385427 0.03125,-0.5625 -8e-06,-1.13775 -0.251457,-1.92799 -0.71875,-2.375 -0.467307,-0.446959 -1.33562,-0.718724 -2.65625,-0.71875 z  m 13.4375,2.9062 c -0.01884,0.330344 -0.07673,0.724031 -0.125,1.1875 -0.08128,0.975259 -0.256208,1.84357 -0.5,2.65625 l -2.5,8.875 c -0.203189,0.711117 -0.368725,1.52322 -0.53125,2.4375 -0.16256,0.914292 -0.250015,1.5952 -0.25,2.0625 -2e-06,0.169832 0.02031,0.314211 0.03125,0.46875 0.03616,-0.423244 0.105494,-0.894262 0.21875,-1.53125 0.162525,-0.914278 0.328061,-1.72638 0.53125,-2.4375 l 2.5,-8.875 c 0.243792,-0.812679 0.41872,-1.68099 0.5,-2.65625 0.101574,-0.975215 0.124974,-1.64519 0.125,-2.03125 -1e-06,-0.05299 0.001,-0.103828 0,-0.15625 z  m -13.9688,18.9375 c -0.0031,0.112583 -0.03125,0.23179 -0.03125,0.34375 -4e-06,1.82857 0.659043,3.33253 2,4.53125 1.36126,1.17841 3.28065,1.75 5.71875,1.75 1.58475,0 2.9575,-0.198327 4.15625,-0.625 1.19871,-0.406349 2.8323,-0.988875 4.84375,-1.78125 l .6562,-2.75 c -0.06566,0.0309 -0.169477,0.0604 -0.25,0.09375 l -.4062,1.6562 c -2.01145,0.792375 -3.64504,1.3749 -4.84375,1.78125 -1.19875,0.426673 -2.5715,0.625 -4.15625,0.625 -2.4381,0 -4.35749,-0.571587 -5.71875,-1.75 -1.17334,-1.04888 -1.82427,-2.34375 -1.96875,-3.875 z "/>
</g>
</g>
<path style="font-family:Georgia;opacity:.6;font-style:italic;font-weight:bold;writing-mode:tb-rl;stroke-width:2;filter:url(#filter3738);fill:none;clip-path:url(#clipPath3730);stroke:#fff;font-size:48px" id="path3721" d="m -49.3542,24 c -1.64573,4.7e-05 -3.0716,0.569571 -4.25,1.66667 -1.17842,1.09719 -1.75001,2.41425 -1.75,3.95833 -1.1e-05,1.54417 0.571577,2.86123 1.75,3.95833 1.1784,1.07686 2.60427,1.62503 4.25,1.625 1.6457,3.5e-05 3.05022,-0.548138 4.20833,-1.625 1.17839,-1.0971 1.74998,-2.41417 1.75,-3.95833 -2e-05,-1.54408 -0.571609,-2.86115 -1.75,-3.95833 -1.15811,-1.0971 -2.56264,-1.66662 -4.20833,-1.66667 z  m -5.5833,16.25 c -1.34096,3.1e-05 -2.74652,0.262411 -4.25,0.75 -1.5035,0.467331 -3.10429,1.03789 -4.75,1.70833 l -.6667,2.75 c 0.487617,-0.18283 1.07952,-0.380132 1.75,-0.583333 0.69079,-0.203135 1.34984,-0.333307 2,-0.333333 1.32063,2.6e-05 2.19936,0.261374 2.66667,0.708333 0.467293,0.447011 0.708326,1.23725 0.708334,2.375 -7e-06,0.629864 -0.08747,1.31129 -0.25,2.08333 -0.142229,0.751767 -0.318183,1.56335 -0.541667,2.41667 l -2.5,8.875 c -0.223496,0.934616 -0.356746,1.78994 -0.458333,2.54167 -0.1016,0.731441 -0.166672,1.45556 -0.166667,2.16667 -4e-06,1.82857 0.659043,3.34294 2,4.54167 1.36126,1.17841 3.27023,1.75 5.70833,1.75 1.58475,0 2.96792,-0.198327 4.16667,-0.625 1.19871,-0.406349 2.82189,-0.999292 4.83333,-1.79167 l .6667,-2.75 c -0.34542,0.162554 -0.894624,0.359835 -1.66667,0.583334 -0.772083,0.203196 -1.47383,0.291666 -2.08333,0.291666 -1.30033,0 -2.22176,-0.198326 -2.75,-0.625 -0.528268,-0.42666 -0.791681,-1.23824 -0.791666,-2.41667 -1.5e-05,-0.467296 0.08744,-1.16904 0.25,-2.08333 0.162525,-0.914278 0.338477,-1.70555 0.541666,-2.41667 l 2.5,-8.875 c 0.243792,-0.812679 0.41872,-1.69141 0.5,-2.66667 0.101574,-0.975215 0.124974,-1.65561 0.125,-2.04167 -2e-05,-1.86918 -0.637716,-3.38354 -1.95833,-4.54167 -1.30033,-1.17838 -3.16557,-1.79164 -5.58333,-1.79167 z " transform="translate(100,0)"/>
</g>
</g>
<g id="layer3">
<rect width="66" x="15" y="15" rx="12" height="66" ry="12" style="opacity:.5;fill:url(#linearGradient4504);filter:url(#filter3794);stroke:#fff;stroke-linecap:round;stroke-width:.5;clip-path:url(#clipPath3613)" id="rect3171"/>
</g>
</svg>
