<svg width="96" version="1.0" xmlns="http://www.w3.org/2000/svg" height="96" xmlns:xlink="http://www.w3.org/1999/xlink">
<defs id="defs2410">
<clipPath id="clipPath3774">
<path style="fill:#f0f;stroke:none" id="path3776" d="m -88,6 c -3.324,0 -6,2.676 -6,6 v 72 c 0,3.324 2.676,6 6,6 h 72 c 3.324,0 6,-2.676 6,-6 v -72 c 0,-3.324 -2.676,-6 -6,-6 h -72 z  m 35.9062,18 c 8.93616,0 14.5625,4.41756 14.5625,11.375 0,3.06383 -1.29721,5.99136 -3.53125,7.90625 -0.446809,0.382979 -1.02261,0.827797 -5.9375,4.59375 -3.95744,3.06383 -4.52726,4.15692 -4.71875,8.625 h -3.4375 c -0.12766,-1.02128 -0.1875,-2.0492 -0.1875,-2.6875 0,-2.87234 0.489365,-4.15094 4,-10.4062 1.59574,-2.87234 2.5625,-6.13298 2.5625,-8.75 0,-4.46808 -2.17022,-7.03125 -6,-7.03125 -1.97872,0 -3.375,0.700133 -3.375,1.59375 0,0.446807 0.06981,0.512633 1.21875,1.40625 1.34042,1.02128 2.03125,2.43285 2.03125,4.15625 0,3 -2.24468,5.125 -5.5,5.125 -3.51064,0 -6.0625,-2.4907 -6.0625,-5.9375 0,-5.87233 5.94948,-9.96875 14.375,-9.96875 z  m -1.2188,36 c 3.31914,0 6,2.68085 6,6 0,3.31914 -2.67952,6 -6.0625,6 -3.25532,0 -5.9375,-2.74469 -5.9375,-6 0,-3.31915 2.68085,-6 6,-6 z "/>
</clipPath>
<clipPath id="clipPath3613">
<rect width="84" x="6" y="6" rx="6" height="84" ry="6" style="fill:#fff;stroke:none" id="rect3615"/>
</clipPath>
<filter width="1.3828596" x="-0.19142981" y="-0.11540625" height="1.2308125" style="color-interpolation-filters:sRGB" id="filter3778">
<feGaussianBlur stdDeviation="2.308125" id="feGaussianBlur3780"/>
</filter>
<filter width="1.3839999" x="-0.192" y="-0.192" height="1.3839999" style="color-interpolation-filters:sRGB" id="filter3794">
<feGaussianBlur stdDeviation="5.28" id="feGaussianBlur3796"/>
</filter>
<filter style="color-interpolation-filters:sRGB" id="filter3174">
<feGaussianBlur stdDeviation="1.71" id="feGaussianBlur3176"/>
</filter>
<linearGradient id="linearGradient3923" xlink:href="#linearGradient3737-1" y1="6" x1="36.357143" y2="63.893143" x2="36.357143" gradientUnits="userSpaceOnUse"/>
<linearGradient id="linearGradient3737-9">
<stop offset="0" style="stop-color:#fff" id="stop3739-2"/>
<stop offset="1" style="stop-color:#fff;stop-opacity:0" id="stop3741-1"/>
</linearGradient>
<linearGradient id="linearGradient3697">
<stop offset="0" style="stop-color:#bababa" id="stop3699"/>
<stop offset="1" style="stop-color:#d2d2d2" id="stop3701"/>
</linearGradient>
<linearGradient id="linearGradient3737-0">
<stop offset="0" style="stop-color:#fff" id="stop3739-6"/>
<stop offset="1" style="stop-color:#fff;stop-opacity:0" id="stop3741-0"/>
</linearGradient>
<linearGradient gradientTransform="matrix(1.3297872,0,0,1.3297872,113.73124,0.70768339)" id="linearGradient3744" xlink:href="#linearGradient3697" y1="53.903732" x1="-50.29887" y2="17.807734" x2="-50.29887" gradientUnits="userSpaceOnUse"/>
<linearGradient id="linearGradient4527" xlink:href="#linearGradient3737-9" y1="20.220806" x1="48" y2="138.66119" x2="48" gradientUnits="userSpaceOnUse"/>
<linearGradient gradientTransform="matrix(1.0058652,0,0,0.994169,100,0)" id="ButtonShadow-0" y1="92.539597" x1="45.447727" y2="7.0165396" x2="45.447727" gradientUnits="userSpaceOnUse">
<stop offset="0" id="stop3750-8"/>
<stop offset="1" style="stop-opacity:.588" id="stop3752-5"/>
</linearGradient>
<linearGradient id="linearGradient3706" xlink:href="#linearGradient3700" y1="90" x1="48" y2="5.9877172" x2="48" gradientUnits="userSpaceOnUse"/>
<linearGradient gradientTransform="scale(1.0058652,0.994169)" id="ButtonShadow" y1="92.539597" x1="45.447727" y2="7.0165396" x2="45.447727" gradientUnits="userSpaceOnUse">
<stop offset="0" id="stop3750"/>
<stop offset="1" style="stop-opacity:.588" id="stop3752"/>
</linearGradient>
<linearGradient id="linearGradient3700">
<stop offset="0" style="stop-color:#ebebeb" id="stop3702"/>
<stop offset="1" style="stop-color:#fafafa" id="stop3704"/>
</linearGradient>
<linearGradient gradientTransform="matrix(1.0238095,0,0,1.0119048,-1.1428571,-98.071429)" id="linearGradient3780" xlink:href="#ButtonShadow-0" y1="6.1317081" x1="32.251034" y2="90.238609" x2="32.251034" gradientUnits="userSpaceOnUse"/>
<linearGradient id="linearGradient3737-1">
<stop offset="0" style="stop-color:#fff" id="stop3739-9"/>
<stop offset="1" style="stop-color:#fff;stop-opacity:0" id="stop3741-3"/>
</linearGradient>
<linearGradient gradientTransform="translate(0,-97)" id="linearGradient3721" xlink:href="#ButtonShadow-0" y1="6.1317081" x1="32.251034" y2="90.238609" x2="32.251034" gradientUnits="userSpaceOnUse"/>
<linearGradient gradientTransform="matrix(1.0238095,0,0,1.0119048,-1.1428571,-98.071429)" id="linearGradient3760" xlink:href="#ButtonShadow-0" y1="6.1317081" x1="32.251034" y2="90.238609" x2="32.251034" gradientUnits="userSpaceOnUse"/>
<linearGradient gradientTransform="matrix(1.0238095,0,0,1.0119048,-1.1428571,-98.071429)" id="linearGradient3725" xlink:href="#ButtonShadow-0" y1="6.1317081" x1="32.251034" y2="90.238609" x2="32.251034" gradientUnits="userSpaceOnUse"/>
<linearGradient gradientTransform="matrix(1.0238095,0,0,1.0119048,-1.1428571,-98.071429)" id="linearGradient3772" xlink:href="#ButtonShadow-0" y1="6.1317081" x1="32.251034" y2="90.238609" x2="32.251034" gradientUnits="userSpaceOnUse"/>
<radialGradient fx="48" fy="90.171875" cx="48" cy="90.171875" gradientTransform="matrix(1.1573129,0,0,0.99590774,-7.551021,0.1971319)" r="42" id="radialGradient2886" xlink:href="#linearGradient3737-0" gradientUnits="userSpaceOnUse"/>
</defs>
<g style="display:none" id="layer2">
<rect width="86" x="5" y="7" rx="6" height="85" ry="6" style="opacity:.9;fill:url(#ButtonShadow);filter:url(#filter3174);stroke:none" id="rect3745"/>
</g>
<g style="stroke:none" id="layer6">
<path style="opacity:.08;fill:url(#linearGradient3760)" id="path3786" d="m 12,-95.0312 c -5.51109,0 -10.0312,4.52016 -10.0312,10.0312 v 71 c 0,5.51109 4.52016,10.0312 10.0312,10.0312 h 72 c 5.51109,0 10.0312,-4.52016 10.0312,-10.0312 v -71 c 0,-5.51109 -4.52016,-10.0312 -10.0312,-10.0312 h -72 z " transform="scale(1,-1)"/>
<path style="opacity:.1;fill:url(#linearGradient3780)" id="path3778" d="m 12,-94.0312 c -4.97163,0 -9.03125,4.05962 -9.03125,9.03125 v 71 c 0,4.97163 4.05962,9.03125 9.03125,9.03125 h 72 c 4.97163,0 9.03125,-4.05962 9.03125,-9.03125 v -71 c 0,-4.97163 -4.05962,-9.03125 -9.03125,-9.03125 h -72 z " transform="scale(1,-1)"/>
<path style="opacity:.2;fill:url(#linearGradient3772)" id="path3770" d="m 12,-93 c -4.40913,0 -8,3.59087 -8,8 v 71 c 0,4.40913 3.59087,8 8,8 h 72 c 4.40913,0 8,-3.59087 8,-8 v -71 c 0,-4.40913 -3.59087,-8 -8,-8 h -72 z " transform="scale(1,-1)"/>
<rect width="86" x="5" y="-92" rx="7" height="85" ry="7" style="opacity:.3;fill:url(#linearGradient3725)" id="rect3723" transform="scale(1,-1)"/>
<rect width="84" x="6" y="-91" rx="6" height="84" ry="6" style="opacity:.45;fill:url(#linearGradient3721)" id="rect3716" transform="scale(1,-1)"/>
</g>
<g id="layer1">
<g style="stroke:none">
<rect width="84" x="6" y="6" rx="6" height="84" ry="6" style="fill:url(#linearGradient3706)" id="rect2419"/>
<path style="opacity:.5;fill:url(#linearGradient3923)" id="rect3728" d="M 12,6 C 8.676,6 6,8.676 6,12 l 0,2 0,68 0,2 c 0,0.334721 0.04135,0.6507 0.09375,0.96875 0.0487,0.295596 0.09704,0.596915 0.1875,0.875 0.0099,0.03038 0.02089,0.0636 0.03125,0.09375 0.09886,0.287771 0.23488,0.547452 0.375,0.8125 0.144592,0.273507 0.315616,0.535615 0.5,0.78125 0.184384,0.245635 0.373776,0.473472 0.59375,0.6875 0.439947,0.428056 0.94291,0.814526 1.5,1.09375 0.278545,0.139612 0.573473,0.246947 0.875,0.34375 -0.256202,-0.100222 -0.486711,-0.236272 -0.71875,-0.375 -0.0074,-0.0044 -0.02387,0.0045 -0.03125,0 -0.03193,-0.0193 -0.06229,-0.04251 -0.09375,-0.0625 -0.120395,-0.0767 -0.231023,-0.163513 -0.34375,-0.25 -0.106173,-0.0808 -0.213281,-0.161112 -0.3125,-0.25 C 8.47832,88.557317 8.30879,88.373362 8.15625,88.1875 8.048671,88.057245 7.937856,87.922215 7.84375,87.78125 7.81866,87.74287 7.8053,87.69538 7.78125,87.65625 7.71649,87.553218 7.651022,87.451733 7.59375,87.34375 7.492742,87.149044 7.388075,86.928049 7.3125,86.71875 7.3045,86.69694 7.28891,86.6782 7.28125,86.65625 7.24942,86.5643 7.24545,86.469419 7.21875,86.375 7.188418,86.268382 7.148361,86.171969 7.125,86.0625 7.052121,85.720988 7,85.364295 7,85 L 7,83 7,15 7,13 C 7,10.218152 9.218152,8 12,8 l 2,0 68,0 2,0 c 2.781848,0 5,2.218152 5,5 l 0,2 0,68 0,2 c 0,0.364295 -0.05212,0.720988 -0.125,1.0625 -0.04415,0.206893 -0.08838,0.397658 -0.15625,0.59375 -0.0077,0.02195 -0.0233,0.04069 -0.03125,0.0625 -0.06274,0.173739 -0.138383,0.367449 -0.21875,0.53125 -0.04158,0.0828 -0.07904,0.169954 -0.125,0.25 -0.0546,0.09721 -0.126774,0.18835 -0.1875,0.28125 -0.09411,0.140965 -0.204921,0.275995 -0.3125,0.40625 -0.143174,0.17445 -0.303141,0.346998 -0.46875,0.5 -0.01117,0.0102 -0.01998,0.02115 -0.03125,0.03125 -0.138386,0.125556 -0.285091,0.234436 -0.4375,0.34375 -0.102571,0.07315 -0.204318,0.153364 -0.3125,0.21875 -0.0074,0.0045 -0.02384,-0.0044 -0.03125,0 -0.232039,0.138728 -0.462548,0.274778 -0.71875,0.375 0.301527,-0.0968 0.596455,-0.204138 0.875,-0.34375 0.55709,-0.279224 1.060053,-0.665694 1.5,-1.09375 0.219973,-0.214028 0.409366,-0.441865 0.59375,-0.6875 0.184384,-0.245635 0.355408,-0.507743 0.5,-0.78125 0.14012,-0.265048 0.276135,-0.524729 0.375,-0.8125 0.01041,-0.03078 0.02133,-0.06274 0.03125,-0.09375 0.09046,-0.278085 0.1388,-0.579404 0.1875,-0.875 C 89.95865,84.6507 90,84.334721 90,84 l 0,-2 0,-68 0,-2 C 90,8.676 87.324,6 84,6 L 12,6 z"/>
<path style="opacity:.4;fill:url(#radialGradient2886)" id="path3615" d="M 12,90 C 8.676,90 6,87.324 6,84 L 6,82 6,14 6,12 c 0,-0.334721 0.04135,-0.6507 0.09375,-0.96875 0.0487,-0.295596 0.09704,-0.596915 0.1875,-0.875 C 6.29113,10.12587 6.302142,10.09265 6.3125,10.0625 6.411365,9.774729 6.5473802,9.515048 6.6875,9.25 6.8320918,8.976493 7.0031161,8.714385 7.1875,8.46875 7.3718839,8.223115 7.5612765,7.995278 7.78125,7.78125 8.221197,7.353194 8.72416,6.966724 9.28125,6.6875 9.559795,6.547888 9.8547231,6.440553 10.15625,6.34375 9.9000482,6.443972 9.6695391,6.580022 9.4375,6.71875 c -0.00741,0.0044 -0.023866,-0.0045 -0.03125,0 -0.031933,0.0193 -0.062293,0.04251 -0.09375,0.0625 -0.120395,0.0767 -0.2310226,0.163513 -0.34375,0.25 -0.1061728,0.0808 -0.2132809,0.161112 -0.3125,0.25 C 8.4783201,7.442683 8.3087904,7.626638 8.15625,7.8125 8.0486711,7.942755 7.9378561,8.077785 7.84375,8.21875 7.818661,8.25713 7.805304,8.30462 7.78125,8.34375 7.716487,8.446782 7.6510225,8.548267 7.59375,8.65625 7.4927417,8.850956 7.3880752,9.071951 7.3125,9.28125 7.30454,9.30306 7.288911,9.3218 7.28125,9.34375 7.2494249,9.4357 7.2454455,9.530581 7.21875,9.625 7.1884177,9.731618 7.1483606,9.828031 7.125,9.9375 7.0521214,10.279012 7,10.635705 7,11 l 0,2 0,68 0,2 c 0,2.781848 2.2181517,5 5,5 l 2,0 68,0 2,0 c 2.781848,0 5,-2.218152 5,-5 l 0,-2 0,-68 0,-2 C 89,10.635705 88.94788,10.279012 88.875,9.9375 88.83085,9.730607 88.78662,9.539842 88.71875,9.34375 88.71105,9.3218 88.69545,9.30306 88.6875,9.28125 88.62476,9.107511 88.549117,8.913801 88.46875,8.75 88.42717,8.6672 88.38971,8.580046 88.34375,8.5 88.28915,8.40279 88.216976,8.31165 88.15625,8.21875 88.06214,8.077785 87.951329,7.942755 87.84375,7.8125 87.700576,7.63805 87.540609,7.465502 87.375,7.3125 87.36383,7.3023 87.35502,7.29135 87.34375,7.28125 87.205364,7.155694 87.058659,7.046814 86.90625,6.9375 86.803679,6.86435 86.701932,6.784136 86.59375,6.71875 c -0.0074,-0.0045 -0.02384,0.0044 -0.03125,0 -0.232039,-0.138728 -0.462548,-0.274778 -0.71875,-0.375 0.301527,0.0968 0.596455,0.204138 0.875,0.34375 0.55709,0.279224 1.060053,0.665694 1.5,1.09375 0.219973,0.214028 0.409366,0.441865 0.59375,0.6875 0.184384,0.245635 0.355408,0.507743 0.5,0.78125 0.14012,0.265048 0.276135,0.524729 0.375,0.8125 0.01041,0.03078 0.02133,0.06274 0.03125,0.09375 0.09046,0.278085 0.1388,0.579404 0.1875,0.875 C 89.95865,11.3493 90,11.665279 90,12 l 0,2 0,68 0,2 c 0,3.324 -2.676,6 -6,6 l -72,0 z"/>
<rect width="84" x="-94" y="6" rx="6" height="84" ry="6" style="fill:#f0f" id="rect3654"/>
</g>
<rect width="16" x="112" y="8" height="16" style="fill:#fff;stroke:#000;stroke-linecap:round;color:#000;stroke-width:.5;stroke-dashoffset:8.6" id="rect3797"/>
<g style="text-align:start;line-height:100%">
<g style="stroke:none">
<text x="131.39261" y="11.969256" style="font-family:Liberation Sans;line-height:125%;font-size:4px" id="text3799" xml:space="preserve"><tspan x="131.39261" y="11.969256" id="tspan3801">Width: 2px</tspan><tspan x="131.39261" y="16.969257" id="tspan3803">Blur: 12</tspan><tspan x="131.39261" y="21.969257" id="tspan3807">Opacity: 60</tspan>
</text>
<g style="font-family:Century Schoolbook L;font-size:48px">
<path style="fill:url(#linearGradient3744);font-weight:bold" id="path3738" d="m 47.9062,24 c -8.42552,0 -14.375,4.09642 -14.375,9.96875 0,3.4468 2.55186,5.9375 6.0625,5.9375 3.25532,0 5.5,-2.125 5.5,-5.125 0,-1.7234 -0.690826,-3.13497 -2.03125,-4.15625 -1.14894,-0.893617 -1.21875,-0.959443 -1.21875,-1.40625 0,-0.893617 1.39628,-1.59375 3.375,-1.59375 3.82978,0 6,2.56317 6,7.03125 0,2.61702 -0.966758,5.87766 -2.5625,8.75 -3.51064,6.25531 -4,7.53391 -4,10.4062 0,0.638297 0.05984,1.66622 0.1875,2.6875 h 3.4375 c 0.191488,-4.46808 0.761307,-5.56117 4.71875,-8.625 4.91489,-3.76595 5.49069,-4.21077 5.9375,-4.59375 2.23404,-1.91489 3.53125,-4.84242 3.53125,-7.90625 0,-6.95744 -5.62634,-11.375 -14.5625,-11.375 z  m -1.2188,36 c -3.31915,0 -6,2.68085 -6,6 0,3.25531 2.68218,6 5.9375,6 3.38298,0 6.0625,-2.68086 6.0625,-6 0,-3.31915 -2.68086,-6 -6,-6 z "/>
<path style="opacity:.2;font-weight:bold" id="path3747" d="m 47.9062,24 c -8.42552,0 -14.375,4.09642 -14.375,9.96875 0,0.183192 0.01707,0.35369 0.03125,0.53125 0.30792,-5.62069 6.14403,-9.5 14.3438,-9.5 8.70447,0 14.2486,4.19622 14.5312,10.8438 0.0066,-0.154552 0.03125,-0.313383 0.03125,-0.46875 0,-6.95744 -5.62634,-11.375 -14.5625,-11.375 z  m -5.9062,5.7188 c -0.101844,0.15694 -0.15625,0.324233 -0.15625,0.5 0,0.446807 0.06981,0.512633 1.21875,1.40625 1.17287,0.893617 1.84945,2.09256 2,3.53125 0.0077,-0.122054 0.03125,-0.249808 0.03125,-0.375 0,-1.7234 -0.690826,-3.13497 -2.03125,-4.15625 -0.616424,-0.479441 -0.911454,-0.716691 -1.0625,-0.90625 z  m 9.1875,5.5 c -0.124925,2.51232 -1.04779,5.51728 -2.53125,8.1875 -3.51064,6.25531 -4,7.53391 -4,10.4062 0,0.142678 -0.0061,0.354062 0,0.53125 0.06211,-2.54973 0.694866,-4.04835 4,-9.9375 1.59574,-2.87234 2.5625,-6.13298 2.5625,-8.75 0,-0.150558 -0.02634,-0.291293 -0.03125,-0.4375 z  m -4.5,24.7812 c -3.31915,0 -6,2.68085 -6,6 0,0.128706 0.023,0.248028 0.03125,0.375 0.306682,-3.02942 2.85705,-5.375 5.96875,-5.375 3.1117,0 5.66207,2.34558 5.96875,5.375 0.0075,-0.122765 0.03125,-0.250325 0.03125,-0.375 0,-3.31915 -2.68086,-6 -6,-6 z "/>
<path style="fill:#fff;font-weight:bold" id="path3756" d="m 45.2188,27.625 c -1.97872,0 -3.375,0.700133 -3.375,1.59375 0,0.207088 0.02576,0.336245 0.15625,0.5 0.415942,-0.640962 1.62922,-1.09375 3.21875,-1.09375 3.70073,0 5.82798,2.401 5.96875,6.59375 0.0095,-0.190163 0.03125,-0.378351 0.03125,-0.5625 0,-4.46808 -2.17022,-7.03125 -6,-7.03125 z  m -11.6562,6.9688 c -0.0054,0.124365 -0.03125,0.248977 -0.03125,0.375 0,3.4468 2.55186,5.9375 6.0625,5.9375 3.25532,0 5.5,-2.125 5.5,-5.125 0,-0.150959 -0.02068,-0.291379 -0.03125,-0.4375 -0.25853,2.70538 -2.41689,4.5625 -5.46875,4.5625 -3.29122,0 -5.73804,-2.19878 -6.03125,-5.3125 z  m 28.875,1.25 c -0.124012,2.8932 -1.37925,5.61971 -3.5,7.4375 -0.446809,0.382979 -1.02261,0.827797 -5.9375,4.59375 -3.95744,3.06383 -4.52726,4.15692 -4.71875,8.625 h -3.4375 c -0.09912,-0.79299 -0.166418,-1.54075 -0.1875,-2.15625 -0.0039,0.158533 0,0.300613 0,0.46875 0,0.638297 0.05984,1.66622 0.1875,2.6875 h 3.4375 c 0.191488,-4.46808 0.761307,-5.56117 4.71875,-8.625 4.91489,-3.76595 5.49069,-4.21077 5.9375,-4.59375 2.23404,-1.91489 3.53125,-4.84242 3.53125,-7.90625 0,-0.180388 -0.02373,-0.35431 -0.03125,-0.53125 z  m -21.7188,30.75 c -0.008735,0.132771 -0.03125,0.271229 -0.03125,0.40625 0,3.25531 2.68218,6 5.9375,6 3.38298,0 6.0625,-2.68086 6.0625,-6 0,-0.124675 -0.02379,-0.252234 -0.03125,-0.375 -0.30677,3.02942 -2.85971,5.375 -6.03125,5.375 -3.05186,0 -5.59965,-2.42241 -5.90625,-5.40625 z "/>
</g>
</g>
<path style="font-family:Century Schoolbook L;opacity:.6;font-weight:bold;stroke-width:2;filter:url(#filter3778);fill:none;clip-path:url(#clipPath3774);stroke:#fff;font-size:48px" id="path3765" d="m -52.0938,24 c -8.42552,0 -14.375,4.09642 -14.375,9.96875 0,3.4468 2.55186,5.9375 6.0625,5.9375 3.25532,0 5.5,-2.125 5.5,-5.125 0,-1.7234 -0.690826,-3.13497 -2.03125,-4.15625 -1.14894,-0.893617 -1.21875,-0.959443 -1.21875,-1.40625 0,-0.893617 1.39628,-1.59375 3.375,-1.59375 3.82978,0 6,2.56317 6,7.03125 0,2.61702 -0.966758,5.87766 -2.5625,8.75 -3.51064,6.25531 -4,7.53391 -4,10.4062 0,0.638297 0.05984,1.66622 0.1875,2.6875 h 3.4375 c 0.191488,-4.46808 0.761307,-5.56117 4.71875,-8.625 4.91489,-3.76595 5.49069,-4.21077 5.9375,-4.59375 2.23404,-1.91489 3.53125,-4.84242 3.53125,-7.90625 0,-6.95744 -5.62634,-11.375 -14.5625,-11.375 z  m -1.2188,36 c -3.31915,0 -6,2.68085 -6,6 0,3.25531 2.68218,6 5.9375,6 3.38298,0 6.0625,-2.68086 6.0625,-6 0,-3.31915 -2.68086,-6 -6,-6 z " transform="translate(100,0)"/>
</g>
</g>
<g id="layer3">
<rect width="66" x="15" y="15" rx="12" height="66" ry="12" style="opacity:.5;fill:url(#linearGradient4527);filter:url(#filter3794);stroke:#fff;stroke-linecap:round;stroke-width:.5;clip-path:url(#clipPath3613)" id="rect3171"/>
</g>
</svg>
