<svg xmlns="http://www.w3.org/2000/svg" viewBox="0 0 96 96" xmlns:xlink="http://www.w3.org/1999/xlink">
<defs>
<clipPath id="clipPath3613">
<path fill="#fff" d="m12,6h72a6,6 0 0,1 6,6v72a6,6 0 0,1 -6,6h-72a6,6 0 0,1 -6-6v-72a6,6 0 0,1 6-6"/>
</clipPath>
<filter width="1.384" x="-.192" y="-.192" height="1.384" color-interpolation-filters="sRGB" id="filter3794">
<feGaussianBlur stdDeviation="5.28"/>
</filter>
<linearGradient gradientTransform="matrix(1.00587 0 0 .99417 100 0)" id="ButtonShadow-0" y1="92.54" y2="7.017" x2="0" gradientUnits="userSpaceOnUse">
<stop offset="0"/>
<stop offset="1" stop-opacity=".588"/>
</linearGradient>
<linearGradient id="linearGradient3617" xlink:href="#linearGradient3700" y1="90" y2="5.988" x2="0" gradientUnits="userSpaceOnUse"/>
<linearGradient gradientTransform="translate(0 2)" id="linearGradient4133" xlink:href="#linearGradient4135" y1="68" y2="64" x2="0" gradientUnits="userSpaceOnUse"/>
<linearGradient gradientTransform="matrix(1.02381 0 0 1.0119 -1.14286 -98.07143)" id="linearGradient3780" xlink:href="#ButtonShadow-0" y1="6.132" y2="90.239" x2="0" gradientUnits="userSpaceOnUse"/>
<linearGradient gradientTransform="translate(0 -97)" id="linearGradient3721" xlink:href="#ButtonShadow-0" y1="6.132" y2="90.239" x2="0" gradientUnits="userSpaceOnUse"/>
<linearGradient gradientTransform="translate(-1)" id="linearGradient4115" xlink:href="#linearGradient4098" y1="83.089" y2="87.04" x2="0" gradientUnits="userSpaceOnUse"/>
<linearGradient id="linearGradient3675" xlink:href="#linearGradient3653" y1="80" y2="8" x2="0" gradientUnits="userSpaceOnUse"/>
<linearGradient gradientTransform="translate(90)" id="linearGradient3850" xlink:href="#linearGradient3711" y1="80" y2="-16" x2="0" gradientUnits="userSpaceOnUse"/>
<linearGradient id="linearGradient4135">
<stop offset="0" stop-color="#cacaca"/>
<stop offset="1" stop-color="#f5f5f5"/>
</linearGradient>
<linearGradient id="linearGradient4098">
<stop offset="0" stop-color="#7c8181"/>
<stop offset="1" stop-color="#dfe0e0"/>
</linearGradient>
<linearGradient id="linearGradient3653">
<stop offset="0" stop-color="#d4d4d4"/>
<stop offset="1" stop-color="#ededed"/>
</linearGradient>
<linearGradient id="linearGradient3642">
<stop offset="0" stop-color="#06f9ff"/>
<stop offset="1" stop-color="#06f9ff" stop-opacity="0"/>
</linearGradient>
<linearGradient id="linearGradient3711">
<stop offset="0"/>
<stop offset="1" stop-opacity="0"/>
</linearGradient>
<linearGradient id="linearGradient3613" xlink:href="#linearGradient3642" y1="20.221" y2="138.661" x2="0" gradientUnits="userSpaceOnUse"/>
<linearGradient id="linearGradient3737">
<stop offset="0" stop-color="#fff"/>
<stop offset="1" stop-color="#fff" stop-opacity="0"/>
</linearGradient>
<linearGradient id="linearGradient3188" xlink:href="#linearGradient3737" y1="6" y2="63.893" x2="0" gradientUnits="userSpaceOnUse"/>
<linearGradient id="linearGradient3700">
<stop offset="0" stop-color="#b8b8b8"/>
<stop offset="1" stop-color="#d0d0d0"/>
</linearGradient>
<radialGradient cx="48" cy="90.172" gradientTransform="matrix(1.15731 0 0 .99591 -7.55102 .19713)" r="42" id="radialGradient3619" xlink:href="#linearGradient3737" gradientUnits="userSpaceOnUse"/>
<radialGradient cx="77.5" cy="85" gradientTransform="matrix(1 0 0 .4 -1 51)" r="2.5" id="radialGradient4112" gradientUnits="userSpaceOnUse">
<stop offset="0" stop-color="#a0ff0e"/>
<stop offset="1" stop-color="#5ce500"/>
</radialGradient>
<radialGradient cx="53.143" cy="120.425" gradientTransform="matrix(1.5 0 0 1.10937 -27.71447 -36.59682)" r="16" id="radialGradient3906" gradientUnits="userSpaceOnUse">
<stop offset="0" stop-opacity=".381"/>
<stop offset=".781" stop-opacity=".233"/>
<stop offset="1"/>
</radialGradient>
<radialGradient cx="48" cy="39" gradientTransform="matrix(1 0 0 .5 0 19.5)" r="10" id="radialGradient4020" gradientUnits="userSpaceOnUse">
<stop offset="0" stop-color="#fff"/>
<stop offset="1" stop-color="#fff" stop-opacity="0"/>
</radialGradient>
</defs>
<path opacity=".08" fill="url(#linearGradient3780)" d="m12-95.0312c-5.5111,0-10.0312,4.5202-10.0312,10.0312v71c0,5.5111 4.5202,10.0312 10.0312,10.0312h72c5.5111,0 10.0312-4.5202 10.0312-10.0312v-71c0-5.5111-4.5202-10.0312-10.0312-10.0312h-72z" transform="scale(1 -1)"/>
<path opacity=".1" fill="url(#linearGradient3780)" d="m12-94.0312c-4.9716,0-9.0312,4.0596-9.0312,9.0312v71c0,4.9716 4.0596,9.0312 9.0312,9.0312h72c4.9716,0 9.0312-4.0596 9.0312-9.0312v-71c0-4.9716-4.0596-9.0312-9.0312-9.0312h-72z" transform="scale(1 -1)"/>
<path opacity=".2" fill="url(#linearGradient3780)" d="m12-93c-4.4091,0-8,3.5909-8,8v71c0,4.4091 3.5909,8 8,8h72c4.4091,0 8-3.5909 8-8v-71c0-4.4091-3.5909-8-8-8h-72z" transform="scale(1 -1)"/>
<path opacity=".3" fill="url(#linearGradient3780)" d="m12-92h72a7,7 0 0,1 7,7v71a7,7 0 0,1 -7,7h-72a7,7 0 0,1 -7-7v-71a7,7 0 0,1 7-7" transform="scale(1 -1)"/>
<path opacity=".45" fill="url(#linearGradient3721)" d="m12-91h72a6,6 0 0,1 6,6v72a6,6 0 0,1 -6,6h-72a6,6 0 0,1 -6-6v-72a6,6 0 0,1 6-6" transform="scale(1 -1)"/>
<path fill="url(#linearGradient3617)" d="m12,6h72a6,6 0 0,1 6,6v72a6,6 0 0,1 -6,6h-72a6,6 0 0,1 -6-6v-72a6,6 0 0,1 6-6"/>
<g color="#000">
<path opacity=".3" fill="url(#radialGradient3906)" d="m48,78.75c-9.9411,0-18,5.0368-18,11.25h36c0-6.2132-8.0589-11.25-18-11.25z"/>
<path opacity=".2" fill="#fff" d="m48,77.75c-9.9411,0-18,5.0368-18,11.25h.0938c.8078-5.7459 8.503-10.25 17.9062-10.25 9.4032,0 17.0984,4.5041 17.9062,10.25h.0938c0-6.2132-8.0589-11.25-18-11.25z"/>
</g>
<path opacity=".1" fill="url(#linearGradient3613)" filter="url(#filter3794)" stroke="#fff" stroke-linecap="round" stroke-width=".5" d="m27,15h42a12,12 0 0,1 12,12v42a12,12 0 0,1 -12,12h-42a12,12 0 0,1 -12-12v-42a12,12 0 0,1 12-12" clip-path="url(#clipPath3613)"/>
<g color="#000">
<path opacity=".08" d="m14.2812,6c-.4158,.833-.3795,2.0055-.3125,2.9062 .0209,22.9054-.042,45.8147 .0312,68.7188 .272,3.6596 4.0074,5.9034 7.4375,5.4062 18.3873-.0209 36.8016,.042 55.1875-.0312 3.6596-.272 5.9034-4.0074 5.4062-7.4375-.0208-22.9117 .0417-45.8427-.0312-68.75-.0249-.3264-.1257-.5873-.25-.8125h-67.4688z"/>
<path opacity=".15" d="m15.9062,6.0312a.9641,.9641 0 0,0 -.875,.9688v70c0,2.7334 2.2354,4.9688 4.9688,4.9688h56c2.7334,0 4.9688-2.2354 4.9688-4.9688v-70a.9641,.9641 0 0,0 -.9688-.9688h-64a.9641,.9641 0 0,0 -.0938,0z"/>
<path opacity=".3" d="m16,7 0,70c0,2.216 1.784,4 4,4h56c2.216,0 4-1.784 4-4v-70h-64z"/>
<path opacity=".3" d="m16,7 0,70c0,2.216 1.784,4 4,4h56c2.216,0 4-1.784 4-4v-70h-64z"/>
<path fill="url(#linearGradient3675)" d="m16,6 0,70c0,2.216 1.784,4 4,4h56c2.216,0 4-1.784 4-4v-70h-64z"/>
<g transform="translate(-90)">
<path opacity=".05" fill="url(#linearGradient3850)" d="m106,6 0,70c0,2.216 1.784,4 4,4h56c2.216,0 4-1.784 4-4v-70h-4.0312v69.9688h-55.9375v-69.9688h-4.0312z"/>
<path opacity=".05" fill="url(#linearGradient3850)" d="m106,6 0,70c0,2.216 1.784,4 4,4h56c2.216,0 4-1.784 4-4v-70h-2.9688v70c0,.6252-.4061,1.0312-1.0312,1.0312h-56c-.6252,0-1.0312-.4061-1.0312-1.0312v-70h-2.9688z"/>
<path opacity=".05" fill="url(#linearGradient3850)" d="m106,6 0,70c0,2.216 1.784,4 4,4h56c2.216,0 4-1.784 4-4v-70h-1.9688v70c0,1.1555-.8758,2.0312-2.0312,2.0312h-56c-1.1555,0-2.0312-.8758-2.0312-2.0312v-70h-1.9688z"/>
<path opacity=".05" fill="url(#linearGradient3850)" d="m106,6 0,70c0,2.216 1.784,4 4,4h56c2.216,0 4-1.784 4-4v-70h-1v70c0,1.6857-1.3143,3-3,3h-56c-1.6857,0-3-1.3143-3-3v-70h-1z"/>
</g>
<path opacity=".3" fill="url(#radialGradient4020)" d="m58,39a10,5 0 1,1 -20,0 10,5 0 1,1 20,0z" transform="matrix(1 0 0 1.10192 0 -4.48464)"/>
</g>
<g line-height="125%">
<g opacity=".3" transform="matrix(.34506 0 0 .34877 27.12662 26.32308)">
<path d="m40.5438,39.2143-1.7871,0 0-8.5664 4.9102,0 0,1.4883-3.123,0 0,2.209 2.9062,0 0,1.4824-2.9062,0 0,3.3867"/>
<path d="m49.995,39.2143-.5859-2.0391-2.9531,0-.5918,2.0391-1.834,0 2.7832-8.6016 2.2207,0 2.7949,8.6016-1.834,0m-1.0078-3.5625-.5508-1.875c-.0234-.0703-.0586-.1855-.1055-.3457-.0469-.1602-.0977-.3359-.1523-.5273-.0508-.1953-.0996-.3906-.1465-.5859-.0469-.1953-.0801-.3613-.0996-.498-.0156,.0859-.0371,.1875-.0645,.3047-.0234,.1172-.0527,.2422-.0879,.375-.0312,.1289-.0645,.2598-.0996,.3926-.0352,.1328-.0684,.2578-.0996,.375-.0312,.1172-.0605,.2207-.0879,.3105-.0234,.0898-.041,.1563-.0527,.1992l-.5449,1.875h2.0918"/>
<path d="m57.8465,39.2143-4.9336,0 0-8.5664 4.9336,0 0,1.4883-3.1172,0 0,1.8809 2.9004,0 0,1.4883-2.9004,0 0,2.209 3.1172,0 0,1.5"/>
<path d="m66.8758,39.2143-2.3027,0-3.3691-6.4805-.0527,0c.0234,.3008 .043,.5996 .0586,.8965 .0156,.2539 .0273,.5215 .0352,.8027 .0117,.2773 .0176,.5273 .0176,.75v4.0312h-1.623v-8.5664h2.291l3.3633,6.416h.0352c-.0117-.2969-.0254-.5898-.041-.8789-.0039-.125-.0098-.252-.0176-.3809-.0039-.1328-.0078-.2637-.0117-.3926-.0039-.1328-.0078-.2598-.0117-.3809-0-.1211-0-.2305 0-.3281v-4.0547h1.6289v8.5664"/>
<path d="m74.1415,39.2143-5.8945,0 0-1.1777 3.627-5.8887-3.5156,0 0-1.5 5.6719,0 0,1.1719-3.6211,5.8945 3.7324,0 0,1.5"/>
<path d="m80.3934,39.2143-.5859-2.0391-2.9531,0-.5918,2.0391-1.834,0 2.7832-8.6016 2.2207,0 2.7949,8.6016-1.834,0m-1.0078-3.5625-.5508-1.875c-.0234-.0703-.0586-.1855-.1055-.3457-.0469-.1602-.0977-.3359-.1523-.5273-.0508-.1953-.0996-.3906-.1465-.5859-.0469-.1953-.0801-.3613-.0996-.498-.0156,.0859-.0371,.1875-.0644,.3047-.0234,.1172-.0527,.2422-.0879,.375-.0312,.1289-.0645,.2598-.0996,.3926-.0352,.1328-.0684,.2578-.0996,.375-.0312,.1172-.0606,.2207-.0879,.3105-.0234,.0898-.041,.1563-.0527,.1992l-.5449,1.875h2.0918"/>
</g>
<path opacity=".3" d="m40.5,37 0,.4688 1.6875,0 0-.4688-1.6875,0zm2.7812,0-.9688,3 .1562,0 .8125-2.5312 .375,0 .375,0l.8125,2.5312h.1562l-.9688-3h-.75zm2.0938,0 0,.4688 1.7188,0 0-.4688-1.7188,0zm2.3438,0 0,.4688 .7812,0 1.1562,2.25c-.004-.1035 .0053-.2117 0-.3125-.0013-.0436 .0027-.08 0-.125-.0003-.0093 0-.0208 0-.0312l-1.1562-2.25h-.7812zm1.9375,0 0,.4688 .5312,0 0-.4688-.5312,0zm1.0625,0 0,.4688 1.9062,0 .0312-.0625 0-.4062-1.9375,0zm3.0625,0-.9688,3 .1562,0 .8125-2.5312 .3438,0c.0007-.0027 .0306,.0026 .0312,0h.375l.8125,2.5312h.1562l-.9688-3h-.75zm-2.125,1-.9688,1.5938 0,.4062 .0312,0 1.2188-2-.2812,0zm-5.6562,.1875v.4688h1v-.4688h-1zm2.2188,.0312c.0081,.1049 .0259,.209 .0312,.3125 .0054,.0886-.0027,.1832 0,.2812 .004,.0967 .0312,.1723 .0312,.25v-.4688c0-.0777-.0273-.1533-.0312-.25-.0012-.0436-.0009-.083 0-.125h-.0312zm-7.0938,.0938 0,.4688 1,0 0-.4688-1,0zm2.3125,.4375-.125,.4688 .7188,0-.125-.4688-.4688,0zm10.5,0-.125,.4688 .7188,0-.125-.4688-.4688,0zm-7.9375,.7188v.4688h1.0938v-.4688h-1.0938zm5.7188,0-.2812,.4688 1.2812,0 0-.4688-1,0z"/>
<path opacity=".6" fill="#fff" d="m41.125,37.5312 0,.5312 1.0625,0 0-.5312-1.0625,0zm2.5312,0c-.0081,.0409-.0191,.0787-.0312,.125-.0108,.045-.0191,.0787-.0312,.125-.0121,.0463-.0517,.1154-.0625,.1562-.0108,.0409-.0218,.0624-.0312,.0938-.0081,.0313 .004,.0475 0,.0625l-.1875,.6562h.1562l.0312-.125c.004-.015-.0081-.0312 0-.0625 .0094-.0313 .0205-.0529 .0312-.0938 .0108-.0409 .0504-.1099 .0625-.1562 .0121-.0463 .0205-.08 .0312-.125 .0121-.0463 .0232-.0841 .0312-.125 .0094-.0409-.0054-.095 0-.125 .0067,.0477 .0151,.1194 .0312,.1875 .0162,.0681 .045,.1506 .0625,.2188 .0189,.0668 .0463,.1004 .0625,.1562 .0162,.0559 .0232,.1005 .0312,.125l.0312,.125h.1562l-.1875-.6562c-.0081-.0245-.0151-.0691-.0312-.125-.0162-.0559-.0436-.0895-.0625-.1562-.0175-.0681-.0463-.1506-.0625-.2188-.0052-.0221 .0038-.0406 0-.0625h-.0312zm2.3438,0 0,.5312 1.0938,0 0-.5312-1.0938,0zm4.7188,0 0,.5312 .9062,0 .3125-.5312-1.2188,0zm1.875,0-1.1562,1.9375 .3125,0 .9062-1.5312 0-.4062-.0625,0zm1.5312,0c-.0081,.0409-.0191,.0787-.0312,.125-.0108,.045-.0191,.0787-.0312,.125-.0121,.0463-.0205,.1154-.0312,.1562-.0108,.0409-.0218,.0624-.0312,.0938-.0081,.0313 .004,.0475 0,.0625l-.1875,.6562h.1562l.0312-.125c.004-.015-.0081-.0312 0-.0625 .0094-.0313 .0205-.0529 .0312-.0938 .0108-.0409 .0191-.1099 .0312-.1562 .0121-.0463 .0205-.08 .0312-.125 .0121-.0463 .0232-.0841 .0312-.125 .0094-.0409 .0258-.095 .0312-.125 .0067,.0477 .0151,.1194 .0312,.1875 .0162,.0681 .045,.1506 .0625,.2188 .0189,.0668 .0151,.1004 .0312,.1562 .0162,.0559 .0544,.1005 .0625,.125l.0312,.125h.1562l-.1875-.6562c-.0081-.0245-.0463-.0691-.0625-.125-.0162-.0559-.0124-.0895-.0312-.1562-.0175-.0681-.0463-.1506-.0625-.2188-.0052-.0221 .0038-.0406 0-.0625h-.0625zm-5.9062,.2188c.0081,.1049 .0259,.209 .0312,.3125 .0042,.0689 .0007,.1438 0,.2188l1.1562,2.25h.7812v-.5312h-.7812l-1.1562-2.25h-.0312zm-2.2188,.9688 0,.5312h1v-.5312h-1zm-4.875,.125 0,.5 1,0 0-.5-1,0zm2.0312,.4375l-.2188,.7188h-.4688l-.1562,.5312h.625l.2188-.7188h1.0312l.1875,.7188h.625l-.1562-.5312h-.4688l-.1875-.7188h-.1562-.7188-.1562zm10.5,0l-.2188,.7188h-.4688l-.1562,.5312h.625l.2188-.7188h1l.2188,.7188h.625l-.1562-.5312h-.4688l-.2188-.7188h-.125-.7188-.1562zm-13.1562,.7188v.5312h.625v-.5312h-.625zm4.875,0 0,.5312 1.7188,0 0-.5312h-1.0938-.625zm2.3438,0 0,.5312 .5625,0 0-.5312-.5625,0zm3.0312,0-.0625,.125 0,.4062 2.0312,0 0-.5312-1.2812,0-.6875,0z"/>
<g fill="#808080" transform="translate(0 -.74519)">
<path d="m39.0283,44.2313c-0,.0678-.0133,.1303-.04,.1874-.0259,.0571-.0663,.1067-.1211,.1486-.0549,.0412-.1242,.0735-.208,.0971-.0831,.0229-.1817,.0343-.296,.0343-.2004,0-.3566-.035-.4686-.1051-.112-.0701-.1832-.1714-.2137-.304l.2114-.0423c.0107,.0419 .0271,.08 .0491,.1143 .0221,.0343 .0518,.064 .0891,.0891 .0381,.0244 .0849,.0434 .1406,.0571 .0556,.0137 .1223,.0206 .2,.0206 .0648,0 .1242-.0053 .1783-.016 .0541-.0114 .1006-.0286 .1394-.0514 .0389-.0229 .069-.0522 .0903-.088 .0221-.0366 .0331-.08 .0331-.1303-0-.0526-.0122-.0952-.0366-.128-.0236-.0328-.0572-.0598-.1006-.0811-.0434-.0213-.0952-.0392-.1554-.0537-.0602-.0145-.1269-.0301-.2-.0469-.045-.0099-.0903-.0206-.136-.032-.045-.0122-.0884-.0263-.1303-.0423-.0412-.0168-.08-.0362-.1166-.0583-.0366-.0221-.0682-.0484-.0949-.0789-.0267-.0312-.0476-.0671-.0629-.1074-.0152-.0411-.0229-.0884-.0229-.1417 0-.0762 .0152-.1413 .0457-.1954 .0312-.0549 .0743-.0998 .1291-.1349 .0549-.035 .1196-.0606 .1943-.0766 .0747-.016 .1554-.024 .2423-.024 .0998,0 .1851,.008 .256,.024 .0709,.0152 .1307,.0385 .1794,.0697 .0488,.0312 .0876,.0701 .1166,.1166 .0297,.0457 .0533,.099 .0709,.16l-.2149,.0377c-.0107-.0389-.0263-.0735-.0469-.104-.0198-.0305-.0461-.056-.0789-.0766-.0328-.0206-.0728-.0362-.12-.0469-.0465-.0107-.1013-.016-.1646-.016-.0747,0-.1375,.0069-.1886,.0206-.0503,.0129-.0911,.0309-.1223,.0537-.0305,.0229-.0526,.0499-.0663,.0811-.0129,.0305-.0194,.0636-.0194,.0994 0,.048 .0118,.0876 .0354,.1189 .0244,.0305 .0571,.056 .0983,.0766 .0411,.0206 .0888,.0377 .1429,.0514 .0541,.0137 .1116,.0274 .1726,.0411 .0495,.0114 .0987,.0232 .1474,.0354 .0495,.0114 .0968,.0255 .1417,.0423 .045,.016 .0869,.035 .1257,.0571 .0396,.0221 .0739,.0491 .1029,.0811 .029,.032 .0514,.0697 .0674,.1131 .0168,.0434 .0251,.0945 .0251,.1531"/>
<path d="m40.0158,44.6759 0-.784c-0-.0602-.0038-.1105-.0114-.1509-.0076-.0404-.0206-.0728-.0389-.0971-.0175-.0251-.0408-.0427-.0697-.0526-.029-.0107-.0644-.016-.1063-.016-.0434,0-.0827,.0088-.1177,.0263-.035,.0168-.0652,.0415-.0903,.0743-.0244,.032-.0434,.072-.0571,.12-.0129,.0472-.0194,.1017-.0194,.1634v.7166h-.2046v-.9726c0-.0259-.0004-.053-.0011-.0811 0-.029-.0004-.056-.0011-.0811-.0008-.0259-.0015-.048-.0023-.0663-.0008-.0183-.0015-.0301-.0023-.0354h.1943c.0008,.0038 .0015,.0141 .0023,.0309 .0008,.0168 .0015,.0362 .0023,.0583 .0015,.0213 .0027,.0434 .0034,.0663 .0008,.0221 .0011,.0408 .0011,.056h.0034c.0183-.0358 .0381-.0682 .0594-.0971 .0213-.029 .0461-.0533 .0743-.0731 .029-.0206 .0617-.0362 .0983-.0469 .0373-.0114 .0804-.0171 .1291-.0171 .0937,0 .1676,.0187 .2217,.056 .0549,.0373 .093,.0968 .1143,.1783h.0034c.0183-.0358 .0389-.0682 .0617-.0971 .0229-.029 .0495-.0533 .08-.0731 .0305-.0206 .0648-.0362 .1029-.0469 .0381-.0114 .0815-.0171 .1303-.0171 .0625,0 .1162,.0084 .1611,.0251 .0457,.0168 .0831,.0427 .112,.0777 .029,.035 .0503,.0804 .064,.136 .0137,.0549 .0206,.1204 .0206,.1966v.824h-.2034v-.784c-0-.0602-.0038-.1105-.0114-.1509-.0076-.0404-.0206-.0728-.0389-.0971-.0175-.0251-.0408-.0427-.0697-.0526-.029-.0107-.0644-.016-.1063-.016-.0434,0-.0827,.0084-.1177,.0251-.035,.016-.0652,.04-.0903,.072-.0244,.032-.0434,.072-.0571,.12-.0129,.048-.0194,.1036-.0194,.1669v.7166h-.2034"/>
<path d="m41.5633,44.6987c-.1242,0-.2175-.0328-.28-.0983-.0625-.0655-.0937-.1554-.0937-.2697 0-.0815 .0152-.1482 .0457-.2 .0312-.0526 .0716-.0937 .1211-.1234 .0503-.0297 .1074-.0503 .1714-.0617 .064-.0114 .1291-.0179 .1954-.0194l.2777-.0046v-.0674c-0-.051-.0053-.0945-.016-.1303-.0107-.0358-.0271-.0648-.0491-.0869-.0221-.0221-.0499-.0381-.0834-.048-.0328-.0107-.0716-.016-.1166-.016-.0396,0-.0754,.003-.1074,.0091-.032,.0053-.0598,.0156-.0834,.0309-.0236,.0145-.0427,.0347-.0571,.0606-.0145,.0251-.024,.0572-.0286,.096l-.2149-.0194c.0076-.0488 .0221-.0933 .0434-.1337 .0213-.0411 .0514-.0766 .0903-.1063 .0396-.0297 .0888-.0526 .1474-.0686 .0594-.0168 .1311-.0251 .2149-.0251 .1554,0 .2724,.0358 .3509,.1074 .0785,.0709 .1177,.1737 .1177,.3086v.5326c-0,.0609 .008,.1071 .024,.1383 .016,.0305 .0465,.0457 .0914,.0457 .0114,0 .0229-.0008 .0343-.0023 .0114-.0015 .0225-.0034 .0331-.0057v.128c-.0259,.0061-.0518,.0107-.0777,.0137-.0251,.003-.0522,.0046-.0812,.0046-.0389,0-.0724-.005-.1006-.0149-.0274-.0107-.0499-.0263-.0674-.0469-.0175-.0213-.0309-.0472-.04-.0777-.0091-.0312-.0149-.0674-.0171-.1086h-.0069c-.0221,.0396-.0465,.0754-.0731,.1074-.0259,.032-.0564,.0594-.0914,.0823-.035,.0221-.075,.0392-.12,.0514-.0442,.0122-.0952,.0183-.1531,.0183m.0469-.1543c.0655,0 .1227-.0118 .1714-.0354 .0495-.0244 .0903-.0552 .1223-.0926 .0328-.0373 .0571-.0781 .0731-.1223 .016-.0442 .024-.0865 .024-.1269v-.1017l-.2251,.0046c-.0503,.0008-.0983,.0046-.144,.0114-.045,.0061-.0846,.0187-.1189,.0377-.0343,.0191-.0617,.0457-.0823,.08-.0198,.0343-.0297,.0792-.0297,.1349 0,.0671 .0179,.1189 .0537,.1554 .0366,.0366 .0884,.0549 .1554,.0549"/>
<path d="m42.5553,44.6759 0-.9486c0-.0259-.0004-.0522-.0011-.0789 0-.0274-.0004-.0537-.0011-.0789-.0008-.0251-.0015-.0488-.0023-.0709-.0008-.0221-.0015-.0419-.0023-.0594h.1943c.0008,.0175 .0015,.0377 .0023,.0606 .0015,.0221 .0027,.045 .0034,.0686 .0015,.0236 .0023,.0465 .0023,.0686 .0008,.0213 .0011,.0396 .0011,.0549h.0046c.0145-.0472 .0297-.088 .0457-.1223 .0168-.035 .0362-.0636 .0583-.0857 .0221-.0229 .0484-.0396 .0789-.0503 .0305-.0114 .0674-.0171 .1109-.0171 .0168,0 .0328,.0015 .048,.0046 .0152,.0023 .0271,.0046 .0354,.0069v.1886c-.0137-.0038-.0297-.0065-.048-.008-.0183-.0023-.0389-.0034-.0617-.0034-.0472,0-.0876,.0107-.1211,.032-.0328,.0213-.0598,.051-.0811,.0891-.0206,.0373-.0358,.0823-.0457,.1349-.0099,.0518-.0149,.1086-.0149,.1703v.6446h-.2057"/>
<path d="m43.8079,44.6667c-.0312,.0084-.0632,.0149-.096,.0194-.032,.0053-.0693,.008-.112,.008-.1646,0-.2469-.0933-.2469-.28v-.8252h-.1429v-.1497h.1509l.0606-.2766h.1371v.2766h.2286v.1497h-.2286v.7806c0,.0594 .0095,.1013 .0286,.1257 .0198,.0236 .0537,.0354 .1017,.0354 .0198,0 .0389-.0015 .0571-.0046 .0191-.003 .0396-.0069 .0617-.0114v.152"/>
<path d="m45.2776,44.2313c-0,.0678-.0133,.1303-.04,.1874-.0259,.0571-.0663,.1067-.1211,.1486-.0549,.0412-.1242,.0735-.208,.0971-.0831,.0229-.1817,.0343-.296,.0343-.2004,0-.3566-.035-.4686-.1051-.112-.0701-.1832-.1714-.2137-.304l.2114-.0423c.0107,.0419 .0271,.08 .0491,.1143 .0221,.0343 .0518,.064 .0891,.0891 .0381,.0244 .0849,.0434 .1406,.0571 .0556,.0137 .1223,.0206 .2,.0206 .0648,0 .1242-.0053 .1783-.016 .0541-.0114 .1006-.0286 .1394-.0514 .0389-.0229 .069-.0522 .0903-.088 .0221-.0366 .0331-.08 .0331-.1303-0-.0526-.0122-.0952-.0366-.128-.0236-.0328-.0572-.0598-.1006-.0811-.0434-.0213-.0952-.0392-.1554-.0537-.0602-.0145-.1269-.0301-.2-.0469-.045-.0099-.0903-.0206-.136-.032-.045-.0122-.0884-.0263-.1303-.0423-.0412-.0168-.08-.0362-.1166-.0583-.0366-.0221-.0682-.0484-.0949-.0789-.0267-.0312-.0476-.0671-.0629-.1074-.0152-.0411-.0229-.0884-.0229-.1417-0-.0762 .0152-.1413 .0457-.1954 .0312-.0549 .0743-.0998 .1291-.1349 .0549-.035 .1196-.0606 .1943-.0766 .0747-.016 .1554-.024 .2423-.024 .0998,0 .1851,.008 .256,.024 .0709,.0152 .1307,.0385 .1794,.0697 .0488,.0312 .0876,.0701 .1166,.1166 .0297,.0457 .0533,.099 .0709,.16l-.2149,.0377c-.0107-.0389-.0263-.0735-.0469-.104-.0198-.0305-.0461-.056-.0789-.0766-.0328-.0206-.0728-.0362-.12-.0469-.0465-.0107-.1013-.016-.1646-.016-.0747,0-.1375,.0069-.1886,.0206-.0503,.0129-.0911,.0309-.1223,.0537-.0305,.0229-.0526,.0499-.0663,.0811-.0129,.0305-.0194,.0636-.0194,.0994-0,.048 .0118,.0876 .0354,.1189 .0244,.0305 .0571,.056 .0983,.0766 .0411,.0206 .0888,.0377 .1429,.0514 .0541,.0137 .1116,.0274 .1726,.0411 .0495,.0114 .0987,.0232 .1474,.0354 .0495,.0114 .0968,.0255 .1417,.0423 .045,.016 .0869,.035 .1257,.0571 .0396,.0221 .0739,.0491 .1029,.0811 .029,.032 .0514,.0697 .0674,.1131 .0168,.0434 .0251,.0945 .0251,.1531"/>
<path d="m45.7017,44.0519c0,.0709 .005,.136 .0149,.1954 .0107,.0594 .0282,.1109 .0526,.1543 .0244,.0427 .0564,.0758 .096,.0994 .0404,.0236 .0899,.0354 .1486,.0354 .0731,0 .1341-.0198 .1829-.0594 .0495-.0396 .08-.1006 .0914-.1829l.208,.0137c-.0069,.051-.0217,.1002-.0446,.1474-.0229,.0472-.0541,.0888-.0937,.1246-.0389,.0358-.0865,.0648-.1429,.0869-.0564,.0213-.1215,.032-.1954,.032-.0968,0-.1791-.0164-.2469-.0491-.0678-.0328-.1231-.0777-.1657-.1349-.0419-.0579-.0724-.1257-.0914-.2034-.0191-.0785-.0286-.1634-.0286-.2549-0-.0831 .0069-.1562 .0206-.2194 .0137-.064 .0328-.1196 .0571-.1669 .0251-.048 .0545-.088 .088-.12 .0335-.0328 .0697-.0587 .1086-.0777 .0396-.0198 .0811-.0339 .1246-.0423 .0434-.0091 .0872-.0137 .1314-.0137 .0693,0 .1311,.0095 .1851,.0286 .0541,.0191 .1006,.0453 .1394,.0789 .0396,.0328 .0716,.0716 .096,.1166 .0244,.045 .0415,.0933 .0514,.1451l-.2114,.016c-.0107-.0686-.0377-.123-.0811-.1634-.0434-.0404-.1051-.0606-.1851-.0606-.0587,0-.1078,.0099-.1474,.0297-.0389,.0191-.0705,.0484-.0949,.088-.0244,.0389-.0419,.088-.0526,.1474-.0099,.0594-.0149,.1291-.0149,.2091"/>
<path d="m47.0308,44.6987c-.1242,0-.2175-.0328-.28-.0983-.0625-.0655-.0937-.1554-.0937-.2697 0-.0815 .0152-.1482 .0457-.2 .0312-.0526 .0716-.0937 .1211-.1234 .0503-.0297 .1074-.0503 .1714-.0617 .064-.0114 .1291-.0179 .1954-.0194l.2777-.0046v-.0674c-0-.051-.0053-.0945-.016-.1303-.0107-.0358-.0271-.0648-.0491-.0869-.0221-.0221-.0499-.0381-.0834-.048-.0328-.0107-.0716-.016-.1166-.016-.0396,0-.0754,.003-.1074,.0091-.032,.0053-.0598,.0156-.0834,.0309-.0236,.0145-.0427,.0347-.0571,.0606-.0145,.0251-.024,.0572-.0286,.096l-.2149-.0194c.0076-.0488 .0221-.0933 .0434-.1337 .0213-.0411 .0514-.0766 .0903-.1063 .0396-.0297 .0888-.0526 .1474-.0686 .0594-.0168 .1311-.0251 .2149-.0251 .1554,0 .2724,.0358 .3509,.1074 .0785,.0709 .1177,.1737 .1177,.3086v.5326c-0,.0609 .008,.1071 .024,.1383 .016,.0305 .0465,.0457 .0914,.0457 .0114,0 .0229-.0008 .0343-.0023 .0114-.0015 .0225-.0034 .0331-.0057v.128c-.0259,.0061-.0518,.0107-.0777,.0137-.0251,.003-.0522,.0046-.0811,.0046-.0389,0-.0724-.005-.1006-.0149-.0274-.0107-.0499-.0263-.0674-.0469-.0175-.0213-.0309-.0472-.04-.0777-.0091-.0312-.0149-.0674-.0171-.1086h-.0069c-.0221,.0396-.0465,.0754-.0731,.1074-.0259,.032-.0564,.0594-.0914,.0823-.035,.0221-.075,.0392-.12,.0514-.0442,.0122-.0952,.0183-.1531,.0183m.0469-.1543c.0655,0 .1227-.0118 .1714-.0354 .0495-.0244 .0903-.0552 .1223-.0926 .0328-.0373 .0571-.0781 .0731-.1223 .016-.0442 .024-.0865 .024-.1269v-.1017l-.2251,.0046c-.0503,.0008-.0983,.0046-.144,.0114-.045,.0061-.0846,.0187-.1189,.0377-.0343,.0191-.0617,.0457-.0823,.08-.0198,.0343-.0297,.0792-.0297,.1349 0,.0671 .0179,.1189 .0537,.1554 .0366,.0366 .0884,.0549 .1554,.0549"/>
<path d="m48.8034,44.6759 0-.784c-0-.0602-.0046-.1105-.0137-.1509-.0084-.0404-.0225-.0728-.0423-.0971-.0198-.0251-.0461-.0427-.0789-.0526-.032-.0107-.072-.016-.12-.016-.0488,0-.093,.0088-.1326,.0263-.0389,.0168-.0724,.0415-.1006,.0743-.0274,.032-.0488,.072-.064,.12-.0152,.0472-.0229,.1017-.0229,.1634v.7166h-.2057v-.9726c0-.0259-.0004-.053-.0011-.0811 0-.029-.0004-.056-.0011-.0811-.0008-.0259-.0015-.048-.0023-.0663-.0008-.0183-.0015-.0301-.0023-.0354h.1943c.0008,.0038 .0015,.0141 .0023,.0309 .0008,.0168 .0015,.0362 .0023,.0583 .0015,.0213 .0027,.0434 .0034,.0663 .0008,.0221 .0011,.0408 .0011,.056h.0034c.0198-.0358 .0415-.0682 .0651-.0971 .0236-.029 .051-.0533 .0823-.0731 .0312-.0206 .0671-.0362 .1074-.0469 .0404-.0114 .0872-.0171 .1406-.0171 .0686,0 .1276,.0084 .1771,.0251 .0495,.0168 .0903,.0427 .1223,.0777 .032,.035 .0552,.0804 .0697,.136 .0152,.0549 .0229,.1204 .0229,.1966v.824h-.2069"/>
<path d="m50.2229,43.2439 0,.5989 .8983,0 0,.1806-.8983,0 0,.6526-.2183,0 0-1.6103 1.144,0 0,.1783-.9257,0"/>
<path d="m52.4493,44.6759-.184-.4709-.7337,0-.1851,.4709-.2263,0 .6572-1.6103 .248,0 .6469,1.6103-.2229,0m-.456-1.1726c-.0122-.0305-.024-.0613-.0354-.0926-.0107-.0312-.0202-.0594-.0286-.0846-.0084-.0259-.0156-.0472-.0217-.064-.0053-.0175-.0084-.0282-.0091-.032-.0015,.0038-.005,.0145-.0103,.032-.0053,.0175-.0126,.0392-.0217,.0652-.0084,.0259-.0183,.0545-.0297,.0857-.0107,.0312-.0217,.0621-.0331,.0926l-.2057,.5292h.6023l-.2069-.5314"/>
<path d="m54.207,44.3113 0,.3646-.1943,0 0-.3646-.7589,0 0-.16 .7372-1.0857 .216,0 0,1.0835 .2263,0 0,.1623-.2263,0m-.1943-1.0137c-.0015,.0038-.0053,.0114-.0114,.0229-.0061,.0107-.0129,.0229-.0206,.0366-.0076,.0137-.0156,.0278-.024,.0423-.0076,.0137-.0145,.0251-.0206,.0343l-.4126,.608c-.0038,.0061-.0095,.0141-.0171,.024-.0069,.0099-.0141,.0202-.0217,.0309-.0076,.0099-.0152,.0198-.0229,.0297-.0076,.0099-.0137,.0175-.0183,.0229h.5692v-.8515"/>
<path d="m54.6208,44.6759 0-.1451c.0389-.0891 .0861-.1676 .1417-.2354 .0564-.0686 .1154-.1303 .1771-.1851 .0617-.0556 .1227-.1071 .1829-.1543 .0609-.0472 .1158-.0945 .1646-.1417 .0488-.0472 .088-.0968 .1177-.1486 .0305-.0518 .0457-.1105 .0457-.176-0-.0457-.0069-.0857-.0206-.12-.0137-.035-.0335-.0644-.0594-.088-.0259-.0236-.0571-.0411-.0937-.0526-.0358-.0122-.0758-.0183-.12-.0183-.0412,0-.08,.0057-.1166,.0171-.0358,.0114-.0678,.0286-.096,.0514-.0282,.0229-.0514,.0514-.0697,.0857-.0175,.0335-.029,.0728-.0343,.1177l-.2103-.0194c.0069-.0579 .0229-.1124 .048-.1634 .0251-.051 .0598-.0956 .104-.1337 .0442-.0389 .0971-.0693 .1589-.0914 .0625-.0221 .1345-.0331 .216-.0331 .08,0 .1512,.0095 .2137,.0286 .0625,.0191 .115,.0472 .1577,.0846 .0434,.0373 .0766,.0834 .0994,.1383 .0229,.0549 .0343,.1181 .0343,.1897-0,.0541-.0099,.1055-.0297,.1543-.0191,.0488-.045,.0952-.0777,.1394-.032,.0442-.0693,.0869-.112,.128-.0427,.0412-.0872,.0815-.1337,.1211-.0465,.0389-.0933,.0777-.1406,.1166-.0472,.0381-.0918,.0766-.1337,.1154-.0412,.0389-.0781,.0785-.1109,.1189-.0328,.0396-.0583,.0811-.0766,.1246h.84v.1749h-1.0663"/>
<path d="m57.0162,43.8702c-0,.1547-.0149,.285-.0446,.3909-.029,.1051-.069,.1905-.12,.256-.0503,.0648-.1097,.1112-.1783,.1394-.0686,.0282-.1417,.0423-.2194,.0423-.0785,0-.1516-.0141-.2194-.0423-.0678-.0282-.1269-.0747-.1771-.1394-.0495-.0648-.0888-.1497-.1177-.2549-.0282-.1059-.0423-.2366-.0423-.392 0-.1623 .0141-.2964 .0423-.4023 .029-.1067 .0686-.1916 .1189-.2549 .0503-.0632 .1097-.1074 .1783-.1326 .0686-.0259 .1432-.0389 .224-.0389 .0769,0 .149,.0129 .216,.0389 .0678,.0251 .1269,.0693 .1771,.1326 .0503,.0632 .0899,.1482 .1189,.2549 .029,.1059 .0434,.24 .0434,.4023m-.2091,0c-0-.128-.0076-.2343-.0229-.3189-.0152-.0853-.0377-.1531-.0674-.2034-.0297-.051-.0663-.0869-.1097-.1074-.0427-.0213-.0914-.032-.1463-.032-.0579,0-.109,.0107-.1531,.032-.0442,.0213-.0815,.0575-.112,.1086-.0297,.0503-.0522,.1181-.0674,.2034-.0152,.0846-.0229,.1905-.0229,.3177 0,.1234 .0076,.2274 .0229,.312 .016,.0846 .0389,.1528 .0686,.2046 .0305,.051 .0674,.088 .1109,.1109 .0434,.0221 .093,.0331 .1486,.0331 .0541,0 .1029-.011 .1463-.0331 .0434-.0229 .08-.0598 .1097-.1109 .0305-.0518 .0537-.12 .0697-.2046 .0168-.0846 .0251-.1886 .0251-.312"/>
<path d="m58.3191,43.8702c-0,.1547-.0149,.285-.0446,.3909-.029,.1051-.069,.1905-.12,.256-.0503,.0648-.1097,.1112-.1783,.1394-.0686,.0282-.1417,.0423-.2194,.0423-.0785,0-.1516-.0141-.2194-.0423-.0678-.0282-.1269-.0747-.1771-.1394-.0495-.0648-.0888-.1497-.1177-.2549-.0282-.1059-.0423-.2366-.0423-.392 0-.1623 .0141-.2964 .0423-.4023 .029-.1067 .0686-.1916 .1189-.2549 .0503-.0632 .1097-.1074 .1783-.1326 .0686-.0259 .1432-.0389 .224-.0389 .0769,0 .149,.0129 .216,.0389 .0678,.0251 .1269,.0693 .1771,.1326 .0503,.0632 .0899,.1482 .1189,.2549 .029,.1059 .0434,.24 .0434,.4023m-.2091,0c-0-.128-.0076-.2343-.0229-.3189-.0152-.0853-.0377-.1531-.0674-.2034-.0297-.051-.0663-.0869-.1097-.1074-.0427-.0213-.0914-.032-.1463-.032-.0579,0-.109,.0107-.1531,.032-.0442,.0213-.0815,.0575-.112,.1086-.0297,.0503-.0522,.1181-.0674,.2034-.0152,.0846-.0229,.1905-.0229,.3177-0,.1234 .0076,.2274 .0229,.312 .016,.0846 .0389,.1528 .0686,.2046 .0305,.051 .0674,.088 .1109,.1109 .0434,.0221 .093,.0331 .1486,.0331 .0541,0 .1029-.011 .1463-.0331 .0434-.0229 .08-.0598 .1097-.1109 .0305-.0518 .0537-.12 .0697-.2046 .0168-.0846 .0251-.1886 .0251-.312"/>
</g>
</g>
<path fill="url(#linearGradient4115)" d="m75,83.0312c-1.0745,0-1.9688,.8943-1.9688,1.9688 0,1.0745 .8943,1.9688 1.9688,1.9688h3c1.0745,0 1.9688-.8943 1.9688-1.9688 0-1.0745-.8943-1.9688-1.9688-1.9688h-3z"/>
<path stroke-opacity=".25" fill="url(#radialGradient4112)" stroke="#000" stroke-width=".5" d="m75,84h3a1,1 0 0,1 1,1 1,1 0 0,1 -1,1h-3a1,1 0 0,1 -1-1 1,1 0 0,1 1-1"/>
<g color="#000">
<path opacity=".05" d="m35,63c-1.6388,0-3,1.3612-3,3 0,1.6388 1.3612,3 3,3h26c1.6388,0 3-1.3612 3-3 0-1.6388-1.3612-3-3-3h-26z" transform="matrix(1 0 0 .83013 0 12.70197)"/>
<path opacity=".15" d="m35,67h26a2,1.4585 0 0,1 2,1.4585v.083a2,1.4585 0 0,1 -2,1.4585h-26a2,1.4585 0 0,1 -2-1.4585v-.083a2,1.4585 0 0,1 2-1.4585"/>
<path fill="url(#linearGradient4133)" d="m35,66h26a2,1.5 0 0,1 2,1.5 2,1.5 0 0,1 -2,1.5h-26a2,1.5 0 0,1 -2-1.5 2,1.5 0 0,1 2-1.5"/>
<path opacity=".6" fill="#fff" d="m35,66c-1.108,0-2,.669-2,1.5 0,.1746 .0525,.3444 .125,.5 .2725-.585 .9997-1 1.875-1h26c.8753,0 1.6025,.415 1.875,1 .0724-.1556 .125-.3254 .125-.5 0-.831-.892-1.5-2-1.5h-26z"/>
<path opacity=".15" d="m43,66h1v3h-1z"/>
<path opacity=".15" d="m53,66h1v3h-1z"/>
</g>
<g fill="#666" line-height="125%">
<path d="m36.316,63.0417c-.0586,0-.1106,.0098-.156,.0293-.0449,.0195-.0828,.0474-.1135,.0835-.0303,.0361-.0532,.0796-.0688,.1304-.0156,.0508-.0234,.1072-.0234,.1692 0,.062 .0083,.1189 .0249,.1707 .0171,.0513 .0413,.0955 .0725,.1326 .0317,.0371 .0703,.0659 .1157,.0864 .0459,.0205 .0974,.0308 .1545,.0308 .04,0 .0764-.0051 .1091-.0154 .0332-.0107 .063-.0256 .0894-.0447 .0269-.019 .0508-.0415 .0718-.0674 .021-.0264 .0395-.0554 .0557-.0872l.1143,.0571c-.0186,.0386-.0415,.0745-.0688,.1077-.0273,.0332-.0596,.062-.0967,.0864-.0366,.0244-.0784,.0437-.1252,.0579-.0464,.0137-.0984,.0205-.156,.0205-.0835,0-.1567-.0132-.2197-.0395-.0625-.0269-.115-.064-.1575-.1113-.042-.0478-.0735-.1045-.0945-.1699-.021-.0654-.0315-.137-.0315-.2146-0-.0806 .011-.1533 .033-.2183 .0225-.0649 .0549-.1201 .0974-.1655 .043-.0459 .0957-.081 .1582-.1055 .0625-.0249 .1338-.0374 .2139-.0374 .1099,0 .2017,.0215 .2754,.0645 .0737,.043 .1279,.1067 .1626,.1912l-.1326,.044c-.0098-.0244-.023-.0476-.0395-.0696-.0166-.0225-.0374-.0422-.0623-.0593-.0249-.0171-.0542-.0308-.0879-.041-.0332-.0102-.0713-.0154-.1143-.0154"/>
<path d="m37.9149,63.454c-0,.0806-.0117,.1538-.0352,.2197-.023,.0659-.0564,.1223-.1003,.1692-.044,.0469-.0977,.083-.1611,.1084-.0635,.0254-.1355,.0381-.2161,.0381-.085,0-.1594-.0132-.2234-.0395-.064-.0269-.1172-.064-.1597-.1113-.0425-.0478-.0745-.1045-.096-.1699-.0215-.0654-.0322-.137-.0322-.2146 0-.0806 .0112-.1533 .0337-.2183 .0225-.0649 .0554-.1201 .0989-.1655 .0435-.0459 .0969-.081 .1604-.1055 .064-.0249 .1372-.0374 .2197-.0374 .082,0 .1548,.0125 .2183,.0374 .064,.0249 .1174,.0603 .1604,.1062 .0435,.0459 .0764,.1013 .0989,.1663 .0225,.0649 .0337,.1372 .0337,.2168m-.1428,0c-0-.062-.0081-.1184-.0242-.1692-.0156-.0508-.0391-.0942-.0703-.1304-.0308-.0361-.0691-.064-.115-.0835-.0459-.0195-.0989-.0293-.1589-.0293-.0615,0-.1155,.0098-.1619,.0293-.0464,.0195-.0852,.0474-.1165,.0835-.0308,.0361-.054,.0796-.0696,.1304-.0151,.0508-.0227,.1072-.0227,.1692 0,.062 .0078,.1189 .0234,.1707 .0161,.0513 .0395,.0957 .0703,.1333 .0312,.0371 .0698,.0662 .1157,.0872 .0464,.0205 .0996,.0308 .1597,.0308 .0645,0 .1199-.0105 .1663-.0315 .0469-.021 .0852-.05 .115-.0872 .0303-.0376 .0525-.0823 .0667-.134 .0147-.0518 .022-.1082 .022-.1692"/>
<path d="m38.9073,63.2533c-0,.0449-.0076,.0869-.0227,.126-.0147,.0386-.0369,.0723-.0667,.1011-.0293,.0283-.0662,.0508-.1106,.0674-.0444,.0166-.0962,.0249-.1553,.0249h-.3032v.4021h-.1399v-1.032h.4343c.061,0 .1143,.0076 .1597,.0227 .0454,.0147 .0832,.0356 .1135,.063 .0303,.0269 .053,.0596 .0681,.0981 .0151,.0381 .0227,.0803 .0227,.1267m-.1406,.0015c0-.0654-.02-.115-.0601-.1487-.04-.0342-.1001-.0513-.1802-.0513h-.2776v.4072h.2834c.0806,0 .1396-.0178 .1772-.0535 .0381-.0356 .0571-.0869 .0571-.1538"/>
<path d="m39.557,63.547 0,.4277-.1392,0 0-.4277-.397-.6042 .1538,0 .3142,.4915 .3127-.4915 .1538,0-.3984,.6042"/>
<path d="m46.709,63.2533c-0,.0449-.0076,.0869-.0227,.126-.0147,.0386-.0369,.0723-.0667,.1011-.0293,.0283-.0662,.0508-.1106,.0674-.0444,.0166-.0962,.0249-.1553,.0249h-.3032v.4021h-.1399v-1.032h.4343c.061,0 .1143,.0076 .1597,.0227 .0454,.0147 .0832,.0356 .1135,.063 .0303,.0269 .053,.0596 .0681,.0981 .0151,.0381 .0227,.0803 .0227,.1267m-.1406,.0015c-0-.0654-.02-.115-.0601-.1487-.04-.0342-.1001-.0513-.1802-.0513h-.2776v.4072h.2834c.0806,0 .1396-.0178 .1772-.0535 .0381-.0356 .0571-.0869 .0571-.1538"/>
<path d="m47.6107,63.9748 0-.4783-.5581,0 0,.4783-.1399,0 0-1.032 .1399,0 0,.4365 .5581,0 0-.4365 .1399,0 0,1.032-.1399,0"/>
<path d="m48.9686,63.454c-0,.0806-.0117,.1538-.0352,.2197-.023,.0659-.0564,.1223-.1003,.1692-.044,.0469-.0977,.083-.1611,.1084-.0635,.0254-.1355,.0381-.2161,.0381-.085,0-.1594-.0132-.2234-.0395-.064-.0269-.1172-.064-.1597-.1113-.0425-.0478-.0745-.1045-.096-.1699-.0215-.0654-.0322-.137-.0322-.2146 0-.0806 .0112-.1533 .0337-.2183 .0225-.0649 .0554-.1201 .0989-.1655 .0435-.0459 .0969-.081 .1604-.1055 .064-.0249 .1372-.0374 .2197-.0374 .082,0 .1548,.0125 .2183,.0374 .064,.0249 .1174,.0603 .1604,.1062 .0435,.0459 .0764,.1013 .0989,.1663 .0225,.0649 .0337,.1372 .0337,.2168m-.1428,0c-0-.062-.0081-.1184-.0242-.1692-.0156-.0508-.0391-.0942-.0703-.1304-.0308-.0361-.0691-.064-.115-.0835-.0459-.0195-.0989-.0293-.1589-.0293-.0615,0-.1155,.0098-.1619,.0293-.0464,.0195-.0852,.0474-.1165,.0835-.0308,.0361-.054,.0796-.0696,.1304-.0151,.0508-.0227,.1072-.0227,.1692 0,.062 .0078,.1189 .0234,.1707 .0161,.0513 .0395,.0957 .0703,.1333 .0312,.0371 .0698,.0662 .1157,.0872 .0464,.0205 .0996,.0308 .1597,.0308 .0645,0 .1199-.0105 .1663-.0315 .0469-.021 .0852-.05 .115-.0872 .0303-.0376 .0525-.0823 .0667-.134 .0147-.0518 .022-.1082 .022-.1692"/>
<path d="m49.567,63.0571 0,.9177-.1392,0 0-.9177-.3545,0 0-.1143 .8481,0 0,.1143-.3545,0"/>
<path d="m51.0252,63.454c-0,.0806-.0117,.1538-.0352,.2197-.023,.0659-.0564,.1223-.1003,.1692-.044,.0469-.0977,.083-.1611,.1084-.0635,.0254-.1355,.0381-.2161,.0381-.085,0-.1594-.0132-.2234-.0395-.064-.0269-.1172-.064-.1597-.1113-.0425-.0478-.0745-.1045-.096-.1699-.0215-.0654-.0322-.137-.0322-.2146-0-.0806 .0112-.1533 .0337-.2183 .0225-.0649 .0554-.1201 .0989-.1655 .0435-.0459 .0969-.081 .1604-.1055 .064-.0249 .1372-.0374 .2197-.0374 .082,0 .1548,.0125 .2183,.0374 .064,.0249 .1174,.0603 .1604,.1062 .0435,.0459 .0764,.1013 .0989,.1663 .0225,.0649 .0337,.1372 .0337,.2168m-.1428,0c-0-.062-.0081-.1184-.0242-.1692-.0156-.0508-.0391-.0942-.0703-.1304-.0308-.0361-.0691-.064-.115-.0835-.0459-.0195-.0989-.0293-.1589-.0293-.0615,0-.1155,.0098-.1619,.0293-.0464,.0195-.0852,.0474-.1165,.0835-.0308,.0361-.054,.0796-.0696,.1304-.0151,.0508-.0227,.1072-.0227,.1692 0,.062 .0078,.1189 .0234,.1707 .0161,.0513 .0395,.0957 .0703,.1333 .0312,.0371 .0698,.0662 .1157,.0872 .0464,.0205 .0996,.0308 .1597,.0308 .0645,0 .1199-.0105 .1663-.0315 .0469-.021 .0852-.05 .115-.0872 .0303-.0376 .0525-.0823 .0667-.134 .0147-.0518 .022-.1082 .022-.1692"/>
<path d="m55.7955,63.9748 0-1.032 .783,0 0,.1143-.6431,0 0,.3311 .5991,0 0,.1128-.5991,0 0,.3596 .6731,0 0,.1143-.813,0"/>
<path d="m57.6749,63.9748 0-.6885c-0-.0249 .0002-.0503 .0007-.0762 .0005-.0259 .0012-.0496 .0022-.071 .001-.0249 .0022-.0491 .0037-.0725-.0068,.0249-.0139,.0496-.0212,.074-.0063,.021-.0134,.0435-.0212,.0674-.0073,.0234-.0147,.0447-.022,.0637l-.2666,.7031h-.0981l-.2703-.7031c-.0029-.0073-.0061-.0159-.0095-.0256-.0029-.0098-.0063-.02-.0102-.0308-.0034-.0112-.0071-.0225-.011-.0337-.0034-.0117-.0068-.0232-.0102-.0344-.0083-.0259-.0164-.0527-.0242-.0806 .0005,.0273 .0012,.0544 .0022,.0813 .001,.023 .0017,.0471 .0022,.0725 .0005,.0249 .0007,.0469 .0007,.0659v.6885h-.1245v-1.032h.1838l.2747,.7156c.0034,.0098 .0076,.0225 .0125,.0381 .0049,.0151 .0095,.0308 .0139,.0469 .0044,.0161 .0083,.0315 .0117,.0461 .0039,.0142 .0066,.0251 .0081,.033 .0015-.0078 .0041-.019 .0081-.0337 .0039-.0147 .0083-.03 .0132-.0461 .0054-.0161 .0105-.0317 .0154-.0469 .0049-.0151 .0093-.0276 .0132-.0374l.2695-.7156h.1794v1.032h-.126"/>
<path d="m58.7801,63.9748-.1179-.3018-.4702,0-.1187,.3018-.145,0 .4211-1.032 .1589,0 .4145,1.032-.1428,0m-.2922-.7515c-.0078-.0195-.0154-.0393-.0227-.0593-.0068-.02-.0129-.0381-.0183-.0542-.0054-.0166-.01-.0303-.0139-.041-.0034-.0112-.0054-.0181-.0059-.0205-.001,.0024-.0032,.0093-.0066,.0205-.0034,.0112-.0081,.0251-.0139,.0418-.0054,.0166-.0117,.0349-.019,.0549-.0068,.02-.0139,.0398-.0212,.0593l-.1318,.3391h.386l-.1326-.3406"/>
<path d="m59.0657,63.9748 0-1.032 .1399,0 0,1.032-.1399,0"/>
<path d="m59.4664,63.9748 0-1.032 .1399,0 0,.9177 .5215,0 0,.1143-.6614,0"/>
</g>
<path opacity=".2" fill="url(#radialGradient3619)" d="m12,90c-3.324,0-6-2.676-6-6v-2-68-2c0-.3347 .0413-.6507 .0938-.9688 .0487-.2956 .097-.5969 .1875-.875 .0099-.0304 .0209-.0636 .0312-.0938 .0989-.2878 .2349-.5475 .375-.8125 .1446-.2735 .3156-.5356 .5-.7812 .1844-.2456 .3738-.4735 .5938-.6875 .4399-.4281 .9429-.8145 1.5-1.0938 .2785-.1396 .5735-.2469 .875-.3438-.2562,.1002-.4867,.2363-.7188,.375-.0074,.0044-.0239-.0045-.0312,0-.0319,.0193-.0623,.0425-.0938,.0625-.1204,.0767-.231,.1635-.3438,.25-.1062,.0808-.2133,.1611-.3125,.25-.1779,.1614-.3475,.3454-.5,.5312-.1076,.1303-.2184,.2653-.3125,.4062-.0251,.0384-.0384,.0859-.0625,.125-.0648,.103-.1302,.2045-.1875,.3125-.101,.1947-.2057,.4157-.2812,.625-.008,.0218-.0236,.0405-.0312,.0625-.0318,.092-.0358,.1868-.0625,.2812-.0303,.1066-.0704,.203-.0938,.3125-.0729,.3415-.125,.6982-.125,1.0625v2 68 2c0,2.7818 2.2182,5 5,5h2 68 2c2.7818,0 5-2.2182 5-5v-2-68-2c0-.3643-.0521-.721-.125-1.0625-.0442-.2069-.0884-.3977-.1562-.5938-.0077-.022-.0233-.0407-.0312-.0625-.0627-.1737-.1384-.3674-.2188-.5312-.0416-.0828-.079-.17-.125-.25-.0546-.0972-.1268-.1883-.1875-.2812-.0941-.141-.2049-.276-.3125-.4062-.1432-.1745-.3031-.347-.4688-.5-.0112-.0102-.02-.0211-.0312-.0312-.1384-.1256-.2851-.2344-.4375-.3438-.1026-.0732-.2043-.1534-.3125-.2188-.0074-.0045-.0238,.0044-.0312,0-.232-.1387-.4625-.2748-.7188-.375 .3015,.0968 .5965,.2041 .875,.3438 .5571,.2792 1.0601,.6657 1.5,1.0938 .22,.214 .4094,.4419 .5938,.6875 .1844,.2456 .3554,.5077 .5,.7812 .1401,.265 .2761,.5247 .375,.8125 .0104,.0308 .0213,.0627 .0312,.0938 .0905,.2781 .1388,.5794 .1875,.875 .0524,.318 .0938,.634 .0938,.9688v2 68 2c0,3.324-2.676,6-6,6h-72z"/>
<path opacity=".5" fill="url(#linearGradient3188)" d="m12,6c-3.324,0-6,2.676-6,6v2 68 2c0,.3347 .0413,.6507 .0938,.9688 .0487,.2956 .097,.5969 .1875,.875 .0099,.0304 .0209,.0636 .0312,.0938 .0989,.2878 .2349,.5475 .375,.8125 .1446,.2735 .3156,.5356 .5,.7812 .1844,.2456 .3738,.4735 .5938,.6875 .4399,.4281 .9429,.8145 1.5,1.0938 .2785,.1396 .5735,.2469 .875,.3438-.2562-.1002-.4867-.2363-.7188-.375-.0074-.0044-.0239,.0045-.0312,0-.0319-.0193-.0623-.0425-.0938-.0625-.1204-.0767-.231-.1635-.3438-.25-.1062-.0808-.2133-.1611-.3125-.25-.1779-.1614-.3475-.3454-.5-.5312-.1076-.1303-.2184-.2653-.3125-.4062-.0251-.0384-.0384-.0859-.0625-.125-.0648-.103-.1302-.2045-.1875-.3125-.101-.1947-.2057-.4157-.2812-.625-.008-.0218-.0236-.0405-.0312-.0625-.0318-.0919-.0358-.1868-.0625-.2812-.0303-.1066-.0704-.203-.0938-.3125-.0729-.3415-.125-.6982-.125-1.0625v-2-68-2c0-2.7818 2.2182-5 5-5h2 68 2c2.7818,0 5,2.2182 5,5v2 68 2c0,.3643-.0521,.721-.125,1.0625-.0442,.2069-.0884,.3977-.1562,.5938-.0077,.022-.0233,.0407-.0312,.0625-.0627,.1737-.1384,.3674-.2188,.5312-.0416,.0828-.079,.17-.125,.25-.0546,.0972-.1268,.1883-.1875,.2812-.0941,.141-.2049,.276-.3125,.4062-.1432,.1744-.3031,.347-.4688,.5-.0112,.0102-.02,.0212-.0312,.0312-.1384,.1256-.2851,.2344-.4375,.3438-.1026,.0731-.2043,.1534-.3125,.2188-.0074,.0045-.0238-.0044-.0312,0-.232,.1387-.4625,.2748-.7188,.375 .3015-.0968 .5965-.2041 .875-.3438 .5571-.2792 1.0601-.6657 1.5-1.0938 .22-.214 .4094-.4419 .5938-.6875 .1844-.2456 .3554-.5077 .5-.7812 .1401-.265 .2761-.5247 .375-.8125 .0104-.0308 .0213-.0627 .0312-.0938 .0905-.2781 .1388-.5794 .1875-.875 .0524-.318 .0938-.634 .0938-.9688v-2-68-2c0-3.324-2.676-6-6-6h-72z"/>
</svg>
