<svg xmlns="http://www.w3.org/2000/svg" viewBox="0 0 96 96" xmlns:xlink="http://www.w3.org/1999/xlink">
<defs>
<clipPath id="clipPath3613">
<path fill="#fff" d="m12,6h72a6,6 0 0,1 6,6v72a6,6 0 0,1 -6,6h-72a6,6 0 0,1 -6-6v-72a6,6 0 0,1 6-6"/>
</clipPath>
<filter width="1.384" x="-.192" y="-.192" height="1.384" color-interpolation-filters="sRGB" id="filter3794">
<feGaussianBlur stdDeviation="5.28"/>
</filter>
<linearGradient gradientTransform="matrix(1.02381 0 0 1.0119 -1.14286 -98.07143)" id="linearGradient3780" xlink:href="#ButtonShadow-0" y1="6.132" y2="90.239" x2="0" gradientUnits="userSpaceOnUse"/>
<linearGradient id="linearGradient3617" xlink:href="#linearGradient2881" y1="90" y2="5.988" x2="0" gradientUnits="userSpaceOnUse"/>
<linearGradient gradientTransform="matrix(1.00587 0 0 .99417 100 0)" id="ButtonShadow-0" y1="92.54" y2="7.017" x2="0" gradientUnits="userSpaceOnUse">
<stop offset="0"/>
<stop offset="1" stop-opacity=".588"/>
</linearGradient>
<linearGradient gradientTransform="translate(0 1)" id="linearGradient3707" xlink:href="#linearGradient3731" y1="75.562" x1="48.082" y2="16.973" x2="46.655" gradientUnits="userSpaceOnUse"/>
<linearGradient gradientTransform="translate(0 -97)" id="linearGradient3721" xlink:href="#ButtonShadow-0" y1="6.132" y2="90.239" x2="0" gradientUnits="userSpaceOnUse"/>
<linearGradient id="linearGradient3731">
<stop offset="0" stop-color="#dcdcdc"/>
<stop offset=".307" stop-color="#ebebeb"/>
<stop offset=".707" stop-color="#fff"/>
<stop offset=".845" stop-color="#fafafa"/>
<stop offset="1" stop-color="#f0f0f0"/>
</linearGradient>
<linearGradient id="linearGradient3737">
<stop offset="0" stop-color="#fff"/>
<stop offset="1" stop-color="#fff" stop-opacity="0"/>
</linearGradient>
<linearGradient id="linearGradient2881">
<stop offset="0" stop-color="#df880b"/>
<stop offset="1" stop-color="#f7c15a"/>
</linearGradient>
<linearGradient id="linearGradient3188" xlink:href="#linearGradient3737" y1="6" y2="63.893" x2="0" gradientUnits="userSpaceOnUse"/>
<linearGradient id="linearGradient3613" xlink:href="#linearGradient3737" y1="20.221" y2="138.661" x2="0" gradientUnits="userSpaceOnUse"/>
<radialGradient cx="48" cy="90.172" gradientTransform="matrix(1.15731 0 0 .99591 -7.55102 .19713)" r="42" id="radialGradient3619" xlink:href="#linearGradient3737" gradientUnits="userSpaceOnUse"/>
</defs>
<path opacity=".08" fill="url(#linearGradient3780)" d="m12-95.0312c-5.5111,0-10.0312,4.5202-10.0312,10.0312v71c0,5.5111 4.5202,10.0312 10.0312,10.0312h72c5.5111,0 10.0312-4.5202 10.0312-10.0312v-71c0-5.5111-4.5202-10.0312-10.0312-10.0312h-72z" transform="scale(1 -1)"/>
<path opacity=".1" fill="url(#linearGradient3780)" d="m12-94.0312c-4.9716,0-9.0312,4.0596-9.0312,9.0312v71c0,4.9716 4.0596,9.0312 9.0312,9.0312h72c4.9716,0 9.0312-4.0596 9.0312-9.0312v-71c0-4.9716-4.0596-9.0312-9.0312-9.0312h-72z" transform="scale(1 -1)"/>
<path opacity=".2" fill="url(#linearGradient3780)" d="m12-93c-4.4091,0-8,3.5909-8,8v71c0,4.4091 3.5909,8 8,8h72c4.4091,0 8-3.5909 8-8v-71c0-4.4091-3.5909-8-8-8h-72z" transform="scale(1 -1)"/>
<path opacity=".3" fill="url(#linearGradient3780)" d="m12-92h72a7,7 0 0,1 7,7v71a7,7 0 0,1 -7,7h-72a7,7 0 0,1 -7-7v-71a7,7 0 0,1 7-7" transform="scale(1 -1)"/>
<path opacity=".45" fill="url(#linearGradient3721)" d="m12-91h72a6,6 0 0,1 6,6v72a6,6 0 0,1 -6,6h-72a6,6 0 0,1 -6-6v-72a6,6 0 0,1 6-6" transform="scale(1 -1)"/>
<path fill="url(#linearGradient3617)" d="m12,6h72a6,6 0 0,1 6,6v72a6,6 0 0,1 -6,6h-72a6,6 0 0,1 -6-6v-72a6,6 0 0,1 6-6"/>
<path opacity=".5" fill="url(#linearGradient3188)" d="m12,6c-3.324,0-6,2.676-6,6v2 68 2c0,.3347 .0413,.6507 .0938,.9688 .0487,.2956 .097,.5969 .1875,.875 .0099,.0304 .0209,.0636 .0312,.0938 .0989,.2878 .2349,.5475 .375,.8125 .1446,.2735 .3156,.5356 .5,.7812 .1844,.2456 .3738,.4735 .5938,.6875 .4399,.4281 .9429,.8145 1.5,1.0938 .2785,.1396 .5735,.2469 .875,.3438-.2562-.1002-.4867-.2363-.7188-.375-.0074-.0044-.0239,.0045-.0312,0-.0319-.0193-.0623-.0425-.0938-.0625-.1204-.0767-.231-.1635-.3438-.25-.1062-.0808-.2133-.1611-.3125-.25-.1779-.1614-.3475-.3454-.5-.5312-.1076-.1303-.2184-.2653-.3125-.4062-.0251-.0384-.0384-.0859-.0625-.125-.0648-.103-.1302-.2045-.1875-.3125-.101-.1947-.2057-.4157-.2812-.625-.008-.0218-.0236-.0405-.0312-.0625-.0318-.0919-.0358-.1868-.0625-.2812-.0303-.1066-.0704-.203-.0938-.3125-.0729-.3415-.125-.6982-.125-1.0625v-2-68-2c0-2.7818 2.2182-5 5-5h2 68 2c2.7818,0 5,2.2182 5,5v2 68 2c0,.3643-.0521,.721-.125,1.0625-.0442,.2069-.0884,.3977-.1562,.5938-.0077,.022-.0233,.0407-.0312,.0625-.0627,.1737-.1384,.3674-.2188,.5312-.0416,.0828-.079,.17-.125,.25-.0546,.0972-.1268,.1883-.1875,.2812-.0941,.141-.2049,.276-.3125,.4062-.1432,.1744-.3031,.347-.4688,.5-.0112,.0102-.02,.0212-.0312,.0312-.1384,.1256-.2851,.2344-.4375,.3438-.1026,.0731-.2043,.1534-.3125,.2188-.0074,.0045-.0238-.0044-.0312,0-.232,.1387-.4625,.2748-.7188,.375 .3015-.0968 .5965-.2041 .875-.3438 .5571-.2792 1.0601-.6657 1.5-1.0938 .22-.214 .4094-.4419 .5938-.6875 .1844-.2456 .3554-.5077 .5-.7812 .1401-.265 .2761-.5247 .375-.8125 .0104-.0308 .0213-.0627 .0312-.0938 .0905-.2781 .1388-.5794 .1875-.875 .0524-.318 .0938-.634 .0938-.9688v-2-68-2c0-3.324-2.676-6-6-6h-72z"/>
<path opacity=".2" fill="url(#radialGradient3619)" d="m12,90c-3.324,0-6-2.676-6-6v-2-68-2c0-.3347 .0413-.6507 .0938-.9688 .0487-.2956 .097-.5969 .1875-.875 .0099-.0304 .0209-.0636 .0312-.0938 .0989-.2878 .2349-.5475 .375-.8125 .1446-.2735 .3156-.5356 .5-.7812 .1844-.2456 .3738-.4735 .5938-.6875 .4399-.4281 .9429-.8145 1.5-1.0938 .2785-.1396 .5735-.2469 .875-.3438-.2562,.1002-.4867,.2363-.7188,.375-.0074,.0044-.0239-.0045-.0312,0-.0319,.0193-.0623,.0425-.0938,.0625-.1204,.0767-.231,.1635-.3438,.25-.1062,.0808-.2133,.1611-.3125,.25-.1779,.1614-.3475,.3454-.5,.5312-.1076,.1303-.2184,.2653-.3125,.4062-.0251,.0384-.0384,.0859-.0625,.125-.0648,.103-.1302,.2045-.1875,.3125-.101,.1947-.2057,.4157-.2812,.625-.008,.0218-.0236,.0405-.0312,.0625-.0318,.092-.0358,.1868-.0625,.2812-.0303,.1066-.0704,.203-.0938,.3125-.0729,.3415-.125,.6982-.125,1.0625v2 68 2c0,2.7818 2.2182,5 5,5h2 68 2c2.7818,0 5-2.2182 5-5v-2-68-2c0-.3643-.0521-.721-.125-1.0625-.0442-.2069-.0884-.3977-.1562-.5938-.0077-.022-.0233-.0407-.0312-.0625-.0627-.1737-.1384-.3674-.2188-.5312-.0416-.0828-.079-.17-.125-.25-.0546-.0972-.1268-.1883-.1875-.2812-.0941-.141-.2049-.276-.3125-.4062-.1432-.1745-.3031-.347-.4688-.5-.0112-.0102-.02-.0211-.0312-.0312-.1384-.1256-.2851-.2344-.4375-.3438-.1026-.0732-.2043-.1534-.3125-.2188-.0074-.0045-.0238,.0044-.0312,0-.232-.1387-.4625-.2748-.7188-.375 .3015,.0968 .5965,.2041 .875,.3438 .5571,.2792 1.0601,.6657 1.5,1.0938 .22,.214 .4094,.4419 .5938,.6875 .1844,.2456 .3554,.5077 .5,.7812 .1401,.265 .2761,.5247 .375,.8125 .0104,.0308 .0213,.0627 .0312,.0938 .0905,.2781 .1388,.5794 .1875,.875 .0524,.318 .0938,.634 .0938,.9688v2 68 2c0,3.324-2.676,6-6,6h-72z"/>
<path opacity=".1" fill="url(#linearGradient3613)" filter="url(#filter3794)" stroke="#fff" stroke-linecap="round" stroke-width=".5" d="m27,15h42a12,12 0 0,1 12,12v42a12,12 0 0,1 -12,12h-42a12,12 0 0,1 -12-12v-42a12,12 0 0,1 12-12" clip-path="url(#clipPath3613)"/>
<path opacity=".05" d="m48,14.75c-20.1169,0-37.25,13.5556-37.25,31.25 0,10.0823 5.918,18.6976 14.3438,24.2812-.1569,.5253-.2666,1.039-.625,1.5938-.9199,1.4238-2.1321,2.6471-4.8438,3.4375-.0112,.0032-.0201-.0032-.0312,0-.0171,.0041-.0136-.0051-.0312,0-.0602,.0171-.1273,.032-.125,.0312 .0027-.0009-.1065,.0434-.1562,.0625-.0124,.0048-.0319,.0315-.0312,.0312l-.125,.0312a1.2012,1.2012 0 0,0 -.0312,0v.0312a1.2012,1.2012 0 0,0 -.0625,0 1.2012,1.2012 0 0,0 0,.0312 1.2012,1.2012 0 0,0 -.0312,0 1.2012,1.2012 0 0,0 -.125,.0625 1.2012,1.2012 0 0,0 -.0938,.0312c0,0-.043,.0623-.0938,.0938a1.2012,1.2012 0 0,0 -.0312,0c-.012,.0075-.0194,.0239-.0312,.0312-.0071,.0044-.0244-.0043-.0312,0 .0003-.0016-.0294,.0005-.0312,0-.0114,.0055 .0064,.028 0,.0312-.0064,.0032-.0256-.0029-.0312,0-.0173,.0078-.0138-.0022-.0625,.0312a1.2012,1.2012 0 0,0 -.0625,.0312c-.0226,.0156-.0032,.0102-.0312,.0312-.0834,.05-.0186,.0297-.0625,.0625 .0003-.0016-.0294,.0004-.0312,0a1.2012,1.2012 0 0,0 -.0625,.0625c-.0213,.0133 .0037,.0063-.0312,.0312-.0223,.0159-.0025-.0216-.0312,0a1.2012,1.2012 0 0,0 -.0625,.0312c-.0002,.001-.0036,.0332 0,.0312 .0036-.002-.035,.0024-.0312,0a1.2012,1.2012 0 0,0 -.2188,.1875c0,0-.0392,.0629-.0938,.125-.0272,.031-.0712,.0366-.0938,.0625-.0056,.0065 .0051,.0254 0,.0312-.0051,.0058-.0266-.0054-.0312,0-.0011,.0007 .0026,.0292 0,.0312-.0076,.0071 .0073,.0245 0,.0312a1.2012,1.2012 0 0,0 -.0312,.0312 1.2012,1.2012 0 0,0 -.0312,0c-.0052,.0048 .0042,.0273 0,.0312a1.2012,1.2012 0 0,0 -.0312,0c-.0029,.0027 .0016,.0297 0,.0312-.0018,.0017-.0312-0-.0312,0a1.2012,1.2012 0 0,0 -.0625,.0625c0,0-.0545,.0704-.0938,.125-.0196,.0273-.014,.0382-.0312,.0625-.0048,.0068-.0338,.0371-.0312,.0312a1.2012,1.2012 0 0,0 -.0312,.0312 1.2012,1.2012 0 0,0 0,.0312c-.0116,.0182 .0056-.0302-.0312,.0312a1.2012,1.2012 0 0,0 -.0312,.0312c.0038-.0054 .0052,.015 0,.0312-.0066,.01-.0241-.0113-.0312,0-.006,.0091 .0056,.022 0,.0312a1.2012,1.2012 0 0,0 -.0625,.0625 1.2012,1.2012 0 0,0 -.0625,.125c-.0021,.0039 0,.0312 0,.0312-.0078,.0175-.037,.0677-.0625,.125-.0154,.0346-.0187,.0654-.0312,.0938-.0126,.0284-.0061-.0472-.0625,.0938 .1039-.2597 .0586-.162-.0312,.0625-.0102,.0212-.0223,.0089-.0312,.0312-.008,.02 .0069,.0118 0,.0312l-.0625,.1562a1.2012,1.2012 0 0,0 -.0625,.3125 1.2012,1.2012 0 0,0 0,.0312c-.0082,.011-.0625,.0625-.0625,.0625-.0055,.0276 .004,.0078 0,.0312-.0027,.0113 .0023,.0198 0,.0312-.0042,.0162-.028,.0148-.0312,.0312-.0042,.021 .0032,.0117 0,.0312l-.0312,.1562a1.2012,1.2012 0 0,0 0,.0312c-.0055,.0274 .004,.0079 0,.0312-.0027,.0113 .0023,.0198 0,.0312-.0046,.0232 .0033,.0114 0,.0312-.0014,.0065-.0299-.0065-.0312,0-.0253,.1267-.001,.1141 0,.1875a1.2012,1.2012 0 0,0 -.0312,.3125v.1875a1.2012,1.2012 0 0,0 0,.0938 1.2012,1.2012 0 0,0 0,.0312v.0312a1.2012,1.2012 0 0,0 0,.0938 1.2012,1.2012 0 0,0 0,.0625c0,0-.0077,.0625 0,.125 .0038,.0312 .0278,.0351 .0312,.0625 .0035,.0274-.0492-.0896 0,.1562 .0033,.0165 .0271,.015 .0312,.0312 .0025,.0098-.0028,.0215 0,.0312 .004,.0234-.0055,.0038 0,.0312a1.2012,1.2012 0 0,0 0,.0312l.0312,.1562a1.2012,1.2012 0 0,0 .125,.2812 1.2012,1.2012 0 0,0 0,.0312c-.0007,.0166-0,.0937 0,.0938 .009,.0225 .021,.01 .0312,.0312 .0102,.0213 .0201,.0112 .0312,.0312-.0001-.0011-.0032,.0204 0,.0312a1.2012,1.2012 0 0,0 0,.0312l.0625,.1562a1.2012,1.2012 0 0,0 0,.0312c.009,.0224 .0211,.0101 .0312,.0312 .0102,.0212 .0201,.0113 .0312,.0312 .0044,.009-.0048,.0223 0,.0312a1.2012,1.2012 0 0,0 0,.0312 1.2012,1.2012 0 0,0 .0312,.0312 1.2012,1.2012 0 0,0 0,.0312 1.2012,1.2012 0 0,0 .0312,.0312 1.2012,1.2012 0 0,0 .0625,.125 1.2012,1.2012 0 0,0 0,.0312 1.2012,1.2012 0 0,0 .0312,.0938l.0938,.1562c-.0021-.0035 .1275,.1908 .125,.1875l.0938,.125a1.2012,1.2012 0 0,0 .25,.25 1.2012,1.2012 0 0,0 .0625,.0312c.034,.0387-.0159,.0153 .0312,.0625a1.2012,1.2012 0 0,0 .0938,.0938c0,0 .0241,.0317 .0625,.0625 .0061,.0049 .0293-.0018 .0312,0l.0312,.0312c.0017,.0018 .0173,.0205 .0312,.0312a1.2012,1.2012 0 0,0 .0312,.0312c0,0 .0277-.0024 .0312,0 .0022,.0015-.0033,.029 0,.0312a1.2012,1.2012 0 0,0 .0938,.0938c.0033,.0027 .0268-.0035 .0312,0 .0204,.0141 .0076,.0292 .0938,.0938 .0173,.0131 .0114,.0163 .0312,.0312 .0462,.0346 .0306,.0106 .0625,.0312a1.2012,1.2012 0 0,0 .2188,.1562c0,0 .087,.0316 .1562,.0625 .0346,.0154 .0654,.0187 .0938,.0312 .0284,.0126-.0474,.0061 .0938,.0625-.2601-.104-.1619-.0585 .0625,.0312 .0212,.0102 .0089,.0223 .0312,.0312 .02,.008 .0118-.0069 .0312,0l.1562,.0625 .1562,.0625a1.2012,1.2012 0 0,0 .3125,.0625c.0039,.0028 .0282-.0023 .0312,0 .0109,.008 .0625,.0625 .0625,.0625 .0275,.0055 .0078-.004 .0312,0 .0097,.0028 .0214-.0025 .0312,0 .0162,.0042 .0148,.028 .0312,.0312 .021,.0042 .0117-.0032 .0312,0l.1562,.0312a1.2012,1.2012 0 0,0 .1875,0c-.0023-.0001 .1273,0 .125,0-.0017,0 .0565,.0011 .0938,0 .0112,.0012 .02-.0011 .0312,0-0,.0008 0,.0312 0,.0312h.0312 .0625v-.0312c9.7538,.9583 16.7171-3.1403 20.9062-6.9375 2.0913,.3347 4.2359,.5938 6.5312,.5938 20.1169,0 37.25-13.5556 37.25-31.25 0-17.6944-17.1331-31.25-37.25-31.25zm-27.5625,68.5a1.2012,1.2012 0 0,0 .0312,0v.1562l-.0312-.1562z"/>
<path opacity=".05" d="m48,15.9375c-19.5792,0-36.0625,13.1484-36.0625,30.0625 0,9.945 5.9764,18.4908 14.5938,23.875-.22,.8336-.4365,1.6873-1.0625,2.6562-1.0314,1.5963-2.548,3.0757-5.5312,3.9375-.0108,.0031-.0204-.0031-.0312,0a1.0828,1.0828 0 0,0 -.1875,.0625l-.1562,.0625 .4062,1c-.2108-.4986-.4302-1.0029-.4375-1-.0147,.0059-.0117,.0234-.0312,.0312-.0195,.0078-.0479,.0254-.0625,.0312-.0146,.0058-.0312,0-.0312,0 0,0-.2383,.1475-.25,.1562-.0117,.0087-.0469,.0195-.0625,.0312 .0147-.0088-.0625,.0312-.0625,.0312-.0113,.0067-.0225,.026-.0312,.0312-.0146,.0088-.0312,0-.0312,0 0,0-.082,.085-.0938,.0938-.0117,.0088-.0469,.0195-.0625,.0312-.0156,.0117-.0196,.0225-.0312,.0312-.0117,.0088-.0312,0-.0312,0 0,0-.21,.2383-.2188,.25-.0087,.0117-.0195,.0156-.0312,.0312-.006,.006 .0063,.025 0,.0312-.0023,.003-.0291-.0028-.0312,0-.0133,.0156-.0312,.0312-.0312,.0312l-.0312,.0312c0,0-.1475,.2041-.1562,.2188-.0088,.0146-.0195,.043-.0312,.0625-.0117,.0195-.0224,.0166-.0312,.0312-.0088,.0147-.0312,.0312-.0312,.0312-.0043,.0057 .0035,.0266 0,.0312-.0087,.0117-.0312,0-.0312,0 0,0-.1192,.2666-.125,.2812-.0058,.0146-.0234,.043-.0312,.0625-.0078,.0195-.0254,.0166-.0312,.0312-.0059,.0147 0,.0312 0,.0312l-.0625,.1562 1,.4062 1.0312,.3438c0,0-2.0908-.5458-2.0938-.5312-.0029,.0146 .0039,.043 0,.0625-.0039,.0195-.0283,.0166-.0312,.0312-.0029,.0147 0,.0312 0,.0312l-.0312,.1562 .7188,.1562c-.3244-.0539-.7178-.13-.7188-.125-.0029,.0147 .0039,.043 0,.0625-.0039,.0195-.0283,.0167-.0312,.0312-.0029,.0146 0,.0312 0,.0312l1.0625,.2188h-1.0938v.1875h1.0938c-.5413,.0092-1.0938,.0239-1.0938,.0312v.0625 .0312 .0312c0,0 .0283,.2354 .0312,.25 .0029,.0146 .0273,.0117 .0312,.0312 .0039,.0195-.0029,.0478 0,.0625 .0029,.0147 0,.0312 0,.0312l.0312,.1562 1.0625-.2188 1.0312-.2812c0,0-2.0371,.7041-2.0312,.7188 .0058,.0146 .0234,.0117 .0312,.0312 .0078,.0195 .0254,.0478 .0312,.0625 .0059,.0147 0,.0312 0,.0312l.0625,.1562 .8125-.3438c-.3995,.1764-.8149,.3689-.8125,.375 .0059,.0147 .0234,.0117 .0312,.0312 .0078,.0195 .0254,.0479 .0312,.0625 .0058,.0146 0,.0312 0,.0312l1-.4062-.9375,.5625 .0938,.1562a1.0828,1.0828 0 0,0 .0625,.0938l.0938,.125 .875-.6562 .8438-.6875c0,0-1.6054,1.4571-1.5938,1.4688 .0117,.0117 .0469,.0156 .0625,.0312 .0156,.0156 .0195,.0508 .0312,.0625 0,0 .1446,.1163 .1562,.125 .0117,.0087 .0156,.0195 .0312,.0312l.0312,.0312c.0078,.0066 .0263-.0042 .0312,0 .0073,.0073-.0058,.0254 0,.0312l.0312,.0312 .125,.0938c.0117,.0088 .0156,.0195 .0312,.0312 .0156,.0117 .0508,.0225 .0625,.0312 .0117,.0088 0,.0312 0,.0312 0,0 .2667,.1192 .2812,.125 .0146,.0058 .043,.0234 .0625,.0312 .0195,.0078 .0166,.0254 .0312,.0312 .0147,.0059 .0312,0 .0312,0l.1562,.0625 .1562,.0625 .4062-1 .3125-1.0312c0,0-.5146,2.0908-.5,2.0938 .0146,.0029 .043-.0039 .0625,0 .0195,.0039 .0166,.0283 .0312,.0312 .0146,.0029 .0312,0 .0312,0l.1562,.0312a1.0828,1.0828 0 0,0 .125,0 1.0828,1.0828 0 0,0 .0625,.0312c-.001-0 .0948-0 .0938,0v-.0312c9.7462,1.0017 16.58-3.2481 20.5625-7 2.2149,.3696 4.4887,.6562 6.875,.6562 19.5792,0 36.0625-13.1484 36.0625-30.0625 0-16.9141-16.4833-30.0625-36.0625-30.0625zm0,18.0938c.4986,0 .6117,.0743 .8125,.25a3.0433,3.0433 0 0,0 .125,.125c.0195,.0153 .0247,.0099 .0312,0-.0033,.0112-0,.0558 0,.2812v14.5625c-0,.5011 .0223,.3098-.0938,.4062a3.0433,3.0433 0 0,0 -.0625,.0625c-.2008,.1757-.314,.25-.8125,.25-.4359,0-.5942-.0791-.875-.3125-.116-.0964-.0938,.0949-.0938-.4062v-14.5625c0-.2255 .0033-.2701 0-.2812 .0066,.0099 .0118,.0153 .0312,0a3.0433,3.0433 0 0,0 .0625-.0625c.2808-.2334 .439-.3125 .875-.3125zm.0312,25c.3667,0 .3459-.009 .5938,.25a3.0433,3.0433 0 0,0 .0312,.0625c.2985,.2963 .3125,.2924 .3125,.6562-0,.3639-.0141,.36-.3125,.6562a3.0433,3.0433 0 0,0 -.0312,.0625c-.2479,.259-.227,.25-.5938,.25-.3668,0-.3905-.0177-.6875-.3125-.2984-.2962-.3125-.2924-.3125-.6562-0-.3639 .014-.36 .3125-.6562 .297-.2948 .3207-.3125 .6875-.3125z"/>
<path opacity=".12" d="m48,17.0312c-19.0969,0-34.9688,12.7615-34.9688,28.9688 0,9.8126 6.0152,18.3102 14.8125,23.5-.2278,1.0474-.6132,2.3008-1.4688,3.625-1.149,1.7784-2.9471,3.4814-6.2188,4.4062a.9863,.9863 0 0,0 -.0312,0l-.1562,.0625c.0001-0-.1563,.0626-.1562,.0625 .0001-.0001-.1251,.0938-.125,.0938 .0001-.0001-.1563,.0938-.1562,.0938l-.125,.0938c.0001-.0001-.0938,.1251-.0938,.125 .0001-.0001-.1251,.1251-.125,.125 .0001-.0001-.0938,.1563-.0938,.1562 .0001-.0001-.0938,.1251-.0938,.125 .0001-.0001-.0625,.1564-.0625,.1562l-.0625,.1562c0-.0001-.0313,.1564-.0312,.1562l-.0312,.1562c0-.0001-.0313,.1564-.0312,.1562v.1875c-0-.0001 0,.1564 0,.1562-0-.0001 .0313,.1564 .0312,.1562l.0312,.1562c-0-.0001 .0625,.1564 .0625,.1562l.0625,.1562c-0-.0001 .0626,.1563 .0625,.1562l.0938,.1562 .0938,.125c-.0001-.0001 .1251,.1251 .125,.125-.0001-.0001 .1251,.0938 .125,.0938-.0001-.0001 .1251,.1251 .125,.125l.125,.0938c-.0001-.0001 .1563,.0626 .1562,.0625l.1562,.0625 .1562,.0625c-.0001-0 .1564,.0313 .1562,.0312l.1562,.0312a.9863,.9863 0 0,0 .0312,0c9.7546,1.0601 16.4521-3.3592 20.25-7.0625 2.3307,.4104 4.728,.6875 7.2188,.6875 19.0969,0 34.9688-12.7615 34.9688-28.9688 0-16.2072-15.8719-28.9688-34.9688-28.9688zm0,16c.7003,0 1.086,.1651 1.4688,.5a2.0462,2.0462 0 0,0 .0938,.0625c.3132,.2459 .4062,.3715 .4062,1.0938v14.5625c-0,.7223-.13,.9059-.4688,1.1875a2.0462,2.0462 0 0,0 -.0312,.0312c-.3828,.3349-.7685,.5-1.4688,.5-.6452,0-1.0504-.1576-1.5-.5312-.3388-.2816-.4688-.4652-.4688-1.1875v-14.5625c-0-.7223 .093-.8479 .4062-1.0938a2.0462,2.0462 0 0,0 .0625-.0312c.4496-.3737 .8548-.5312 1.5-.5312zm.0312,25c.609,0 .8999,.1314 1.3125,.5625a2.0462,2.0462 0 0,0 .0312,.0312c.4595,.4562 .5937,.7706 .5938,1.375-0,.6044-.1342,.9189-.5938,1.375a2.0462,2.0462 0 0,0 -.0312,.0312c-.4126,.4311-.7035,.5625-1.3125,.5625-.609,0-.9477-.1386-1.4062-.5938-.4595-.4561-.5938-.7706-.5938-1.375-0-.6044 .1342-.9188 .5938-1.375 .4585-.4552 .7972-.5937 1.4062-.5938z"/>
<path opacity=".24" d="m48,18.0312c-18.6597,0-33.9688,12.4083-33.9688,27.9688 0,9.6667 5.998,18.0893 14.9375,23.0938-.2105,1.1926-.6513,2.862-1.75,4.5625-1.2551,1.9426-3.2901,3.8256-6.7812,4.8125a.9822,.9822 0 0,0 .1875,1.9062c9.6905,1.0532 16.2457-3.4959 19.8438-7.125 2.4289,.4545 4.9344,.7188 7.5312,.7188 18.6597,0 33.9688-12.4083 33.9688-27.9688 0-15.5604-15.3091-27.9688-33.9688-27.9688zm0,13.9688c.9147,0 1.5801,.246 2.1562,.75a.9869,.9869 0 0,0 .0625,.0312c.5632,.4421 .7812,.9489 .7812,1.9062v14.5625c-0,.9573-.237,1.5216-.8125,2a.9869,.9869 0 0,0 -.0312,0c-.5761,.5041-1.2416,.75-2.1562,.75-.8675,0-1.5586-.2272-2.1875-.75-.5755-.4784-.8125-1.0427-.8125-2v-14.5625c-0-.9573 .2181-1.4641 .7812-1.9062a.9869,.9869 0 0,0 .0312-.0312c.6289-.5228 1.32-.75 2.1875-.75zm.0312,25c.8664,0 1.4749,.261 2.0625,.875a.9869,.9869 0 0,0 .0312,0c.6307,.6261 .875,1.265 .875,2.125-0,.86-.2443,1.499-.875,2.125a.9869,.9869 0 0,0 -.0312,0c-.5876,.614-1.1961,.875-2.0625,.875-.8664,0-1.526-.2494-2.1562-.875-.6307-.626-.875-1.265-.875-2.125-0-.86 .2443-1.4989 .875-2.125 .6302-.6256 1.2898-.875 2.1562-.875z"/>
<path fill="url(#linearGradient3707)" d="m48,18c-18.2254,0-33,12.0883-33,27 0,9.4984 5.9998,17.8435 15.0625,22.6562-.3446,2.5088-1.914,8.6498-9.3438,10.75 9.6229,1.0458 16.0136-3.6463 19.4062-7.1875 2.5235,.5055 5.1611,.7812 7.875,.7812 18.2254,0 33-12.0883 33-27 0-14.9117-14.7746-27-33-27zm0,12c1.1144,0 2.0563,.3384 2.8125,1 .796,.6249 1.1875,1.5113 1.1875,2.6875v14.5625c-0,1.1763-.3915,2.0884-1.1875,2.75-.7562,.6617-1.6981,1-2.8125,1-1.0746,0-2.0165-.3383-2.8125-1-.796-.6616-1.1875-1.5737-1.1875-2.75v-14.5625c-0-1.1762 .3915-2.0626 1.1875-2.6875 .796-.6616 1.7379-1 2.8125-1zm.0312,25c1.1062,0 2.0306,.4032 2.7812,1.1875 .7901,.7843 1.1875,1.7145 1.1875,2.8125-0,1.098-.3974,2.0282-1.1875,2.8125-.7506,.7843-1.6751,1.1875-2.7812,1.1875-1.1062,0-2.0536-.4032-2.8438-1.1875-.7901-.7843-1.1875-1.7145-1.1875-2.8125-0-1.098 .3974-2.0282 1.1875-2.8125 .7901-.7843 1.7376-1.1875 2.8438-1.1875z"/>
<path opacity=".4" fill="#d40000" d="m-52,18c-18.2254,0-33,12.0883-33,27 0,9.4984 5.9998,17.8435 15.0625,22.6562-.3446,2.5088-1.914,8.6498-9.3438,10.75 9.6229,1.0458 16.0136-3.6463 19.4062-7.1875 2.5235,.5055 5.1611,.7812 7.875,.7812 18.2254,0 33-12.0883 33-27 0-14.9117-14.7746-27-33-27z"/>
<path opacity=".05" d="m-52,18c-18.2254,0-33,12.0883-33,27 0,9.4984 5.9998,17.8435 15.0625,22.6562-.3446,2.5088-1.914,8.6498-9.3438,10.75 9.6229,1.0458 16.0136-3.6463 19.4062-7.1875 2.5235,.5055 5.1611,.7812 7.875,.7812 18.2254,0 33-12.0883 33-27 0-14.9117-14.7746-27-33-27zm0,2.9375c16.9203,0 30.0625,11.1004 30.0625,24.0625 0,12.9621-13.1422,24.0625-30.0625,24.0625-2.514,0-4.9434-.2817-7.2812-.75a2.9518,2.9518 0 0,0 -2.7188,.875c-1.6209,1.6918-4.0041,3.5676-7.125,4.875 1.3415-2.3539 1.9347-4.6148 2.125-6a2.9518,2.9518 0 0,0 -1.5625-3c-8.2911-4.403-13.5-11.8069-13.5-20.0625 0-12.9621 13.1422-24.0625 30.0625-24.0625z"/>
<path opacity=".08" d="m-52,18c-18.2254,0-33,12.0883-33,27 0,9.4984 5.9998,17.8435 15.0625,22.6562-.3446,2.5088-1.914,8.6498-9.3438,10.75 9.6229,1.0458 16.0136-3.6463 19.4062-7.1875 2.5235,.5055 5.1611,.7812 7.875,.7812 18.2254,0 33-12.0883 33-27 0-14.9117-14.7746-27-33-27zm0,1.875c17.3932,0 31.125,11.4564 31.125,25.125 0,13.6686-13.7318,25.125-31.125,25.125-2.5865,0-5.0949-.2682-7.5-.75a1.8822,1.8822 0 0,0 -1.7188,.5312c-2.2298,2.3274-5.8621,5.105-10.9062,6.2188 .603-.6367 1.3199-1.2405 1.75-1.9062 1.5731-2.4349 2.1159-4.8817 2.3125-6.3125a1.8822,1.8822 0 0,0 -1-1.9062c-8.5707-4.5515-14.0625-12.2941-14.0625-21 0-13.6686 13.7318-25.125 31.125-25.125z"/>
<path opacity=".15" d="m-52,18c-18.2254,0-33,12.0883-33,27 0,9.4984 5.9998,17.8435 15.0625,22.6562-.3446,2.5088-1.914,8.6498-9.3438,10.75 9.6229,1.0458 16.0136-3.6463 19.4062-7.1875 2.5235,.5055 5.1611,.7812 7.875,.7812 18.2254,0 33-12.0883 33-27 0-14.9117-14.7746-27-33-27zm0,1.0625c17.7572,0 31.9375,11.7252 31.9375,25.9375 0,14.2123-14.1803,25.9375-31.9375,25.9375-2.6422,0-5.1994-.2578-7.6562-.75a1.0589,1.0589 0 0,0 -.9688,.3125c-2.6438,2.7595-7.2489,6.0491-13.7812,6.7188 1.4426-1.0373 2.5503-2.2407 3.3438-3.4688 1.4817-2.2934 2.0015-4.5838 2.1875-5.9375a1.0589,1.0589 0 0,0 -.5625-1.0938c-8.7859-4.6658-14.5-12.6662-14.5-21.7188 0-14.2123 14.1803-25.9375 31.9375-25.9375z"/>
<path line-height="125%" d="m-52,30c-1.0746,0-2.0165,.3384-2.8125,1-.796,.6249-1.1875,1.5113-1.1875,2.6875v14.5625c-0,1.1763 .3915,2.0884 1.1875,2.75 .796,.6617 1.7379,1 2.8125,1 1.1144,0 2.0563-.3383 2.8125-1 .796-.6616 1.1875-1.5737 1.1875-2.75v-14.5625c-0-1.1762-.3915-2.0626-1.1875-2.6875-.7562-.6616-1.6981-1-2.8125-1zm.0312,25c-1.1062,0-2.0536,.4032-2.8438,1.1875-.7901,.7843-1.1875,1.7145-1.1875,2.8125-0,1.098 .3974,2.0282 1.1875,2.8125 .7901,.7843 1.7376,1.1875 2.8438,1.1875 1.1062,0 2.0306-.4032 2.7812-1.1875 .7901-.7843 1.1875-1.7145 1.1875-2.8125-0-1.098-.3974-2.0282-1.1875-2.8125-.7506-.7843-1.6751-1.1875-2.7812-1.1875z"/>
<path opacity=".8" fill="#fff" d="m48,18c-18.2254,0-33,12.0883-33,27 0,.2084 .0255,.4177 .0312,.625 .8838-14.266 15.3129-25.625 32.9688-25.625 17.8111,0 32.318,11.5574 32.9688,26 .0151-.3359 .0312-.661 .0312-1 0-14.9117-14.7746-27-33-27zm-4,30.25 0,2c-0,1.1763 .3915,2.0884 1.1875,2.75 .796,.6617 1.7379,1 2.8125,1 1.1144,0 2.0563-.3383 2.8125-1 .796-.6616 1.1875-1.5737 1.1875-2.75v-2c-0,1.1763-.3915,2.0884-1.1875,2.75-.7562,.6617-1.6981,1-2.8125,1-1.0746,0-2.0165-.3383-2.8125-1-.796-.6616-1.1875-1.5737-1.1875-2.75zm.125,11.75c-.0822,.3194-.125,.6466-.125,1-0,1.098 .3974,2.0282 1.1875,2.8125 .7901,.7843 1.7376,1.1875 2.8438,1.1875 1.1062,0 2.0306-.4032 2.7812-1.1875 .7901-.7843 1.1875-1.7145 1.1875-2.8125-0-.3534-.0428-.6806-.125-1-.1731,.6729-.5267,1.2806-1.0625,1.8125-.7506,.7843-1.6751,1.1875-2.7812,1.1875-1.1062,0-2.0536-.4032-2.8438-1.1875-.5358-.5319-.8894-1.1396-1.0625-1.8125zm-14.4375,9.4375c-.7889,2.9258-2.9421,7.2652-8.9688,8.9688 1.4386,.1563 2.7988,.1709 4.0938,.0938 3.9509-2.7354 4.9814-6.8885 5.25-8.8438-.1292-.0686-.2471-.1487-.375-.2188z"/>
</svg>
