<svg xmlns="http://www.w3.org/2000/svg" viewBox="0 0 128 128" xmlns:xlink="http://www.w3.org/1999/xlink">
<defs>
<linearGradient gradientTransform="matrix(1.20907 -.23083 .14008 .61562 -284.35998 11.81033)" xlink:href="#linearGradient4983-9-3" id="linearGradient22190" y1="188.891" x1="208.469" y2="190.01" gradientUnits="userSpaceOnUse" x2="223.217"/>
<linearGradient gradientTransform="matrix(1.5348 0 0 1.327 -5.0206 -.04854)" id="linearGradient2890-6" y1="49.629" y2="36.658" x1="22.935" gradientUnits="userSpaceOnUse" x2="22.809">
<stop offset="0" stop-color="#0a0a0a" stop-opacity=".498"/>
<stop offset="1" stop-color="#0a0a0a" stop-opacity="0"/>
</linearGradient>
<linearGradient id="linearGradient4983-9-3">
<stop offset="0"/>
<stop offset="1" stop-opacity="0"/>
</linearGradient>
<linearGradient gradientTransform="matrix(3.0744 0 0 1.77356 -9.14114 37.5246)" xlink:href="#linearGradient2890-6" id="linearGradient22184" y1="49.629" x1="22.935" y2="36.658" gradientUnits="userSpaceOnUse" x2="22.809"/>
<linearGradient gradientTransform="matrix(-1.19786 -.25881 -.13878 .69025 409.58312 -.61936)" xlink:href="#linearGradient4983-9-3" id="linearGradient22187" y1="188.891" x1="208.469" y2="190.01" gradientUnits="userSpaceOnUse" x2="223.217"/>
<linearGradient gradientTransform="matrix(1.34635 0 0 1.37784 -.96045 -3.24998)" xlink:href="#ButtonShadow-0-0-1" id="linearGradient22196" y1="88.397" x1="55.361" y2="31.652" gradientUnits="userSpaceOnUse" x2="54.949"/>
<linearGradient gradientTransform="matrix(2.63353 0 0 2.88654 -134.39533 -4.37964)" xlink:href="#linearGradient2902" id="linearGradient22205" y1="13.183" y2="16.19" gradientUnits="userSpaceOnUse" x2="0"/>
<linearGradient gradientTransform="matrix(1.3408 0 0 1.33 -68.673 -1.51)" id="linearGradient2902" y1="13.183" y2="16.19" gradientUnits="userSpaceOnUse" x2="0">
<stop offset="0" stop-color="#f9f9f9"/>
<stop offset="1" stop-color="#c9c9c9"/>
</linearGradient>
<linearGradient gradientTransform="matrix(1.00587 0 0 .99417 100 0)" id="ButtonShadow-0-0-1" y1="92.54" y2="7.017" x2="0" gradientUnits="userSpaceOnUse">
<stop offset="0"/>
<stop offset="1" stop-color="#1b1b1b" stop-opacity=".588"/>
</linearGradient>
<linearGradient gradientTransform="matrix(1.35867 0 0 1.51534 -1.07594 -7.69141)" xlink:href="#linearGradient20184-8" id="linearGradient22202" y1="21.877" x1="8.086" y2="22.227" gradientUnits="userSpaceOnUse" x2="37.974"/>
<linearGradient id="linearGradient20184-8">
<stop offset="0" stop-color="#595959"/>
<stop offset="1" stop-color="#4c4c4c"/>
</linearGradient>
<linearGradient gradientTransform="matrix(1.36863 0 0 1.41411 -1.98978 -5.41813)" xlink:href="#ButtonShadow-0-0-1" id="linearGradient22199" y1="88.397" x1="55.361" y2="31.652" gradientUnits="userSpaceOnUse" x2="54.949"/>
<radialGradient cx="23.795" cy="51.561" gradientTransform="matrix(2.293 .01088 -.00922 1.91372 -23.29707 -26.43172)" id="radialGradient22193" r="45.415" gradientUnits="userSpaceOnUse">
<stop offset="0" stop-color="#c4c4c4"/>
<stop offset="1" stop-color="#838383"/>
</radialGradient>
</defs>
<g transform="translate(-.00006 -7.451)">
<path fill="url(#linearGradient22205)" stroke="#bebebe" stroke-linejoin="round" stroke-linecap="round" stroke-width="2.065" d="m10.8614,19.7534c-1.8178,.0221-3.2304,1.4227-3.2304,3.3217 0,15.9172 .0845,28.1123 0,42.5776 3.7802,0 111.7521-10.7128 111.7521-15.3095v-18.6215c0-1.899-1.263-3.3423-3.0818-3.3206h-53.3423c-5.3916,0-9.2138-8.6792-13.1676-8.6792l-38.9294,.0315z"/>
<path fill="url(#linearGradient22202)" display="block" d="m15.2795,23.688h32.5625a2.6755,2.1623 0 0,1 2.6755,2.1624v.279a2.6755,2.1623 0 0,1 -2.6755,2.1623h-32.5625a2.6755,2.1623 0 0,1 -2.6755-2.1623v-.279a2.6755,2.1623 0 0,1 2.6755-2.1624"/>
<path opacity=".1" fill="url(#linearGradient22199)" d="m2.228,41.5719c-3.0236,.3389-2.1257,3.8123-2.07,5.815 1.1064,23.2166 2.032,39.1952 3.1315,62.4118 .1986,4.1518 3.5764,8.3634 7.3437,8.3993l105.2954-.4514c4.4466,.1579 8.7822-2.7076 9.0622-8.3583 1.1059-23.2187 1.806-50.9787 2.9055-74.1974-.4978-1.8752-3.1536-3.2692-5.1443-3.4383l-65.0589-.1471-11.8113,10.3008-43.6536-.3344z"/>
<path opacity=".15" fill="url(#linearGradient22196)" d="m3.1887,42.5349c-2.9743,.3302-2.1115,3.7138-2.0362,5.6659 1.0884,22.6212 1.9989,38.19 3.0805,60.8112 .1953,4.0453 3.5181,8.1489 7.2241,8.1839l103.5808-.4398c4.3742,.1539 8.6391-2.6382 8.9146-8.144 1.0879-22.6232 1.7766-49.6713 2.8582-72.2945-.4897-1.8271-3.1023-3.1854-5.0605-3.3501l-63.9995-.1433-11.619,10.0366-42.9428-.3258z"/>
<path fill="url(#radialGradient22193)" stroke="#909090" stroke-width="1.301" d="m5.0007,44.6051c-2.8771,.3115-1.96,3.4604-1.9697,5.3453 1.0529,21.3413 1.9336,36.0292 2.9798,57.3705 .1889,3.8164 3.4032,7.6878 6.988,7.7208l100.455,.2022c4.2313,.1452 8.4342-3.1777 8.7007-8.372 1.0523-21.3432 1.8858-46.8796 2.932-68.2228 .0792-2.9777-2.8626-3.7614-5.0769-3.8928l-59.7557-.1331c-1.0716-.0311-2.6399,.8389-3.5308,1.6905l-10.1608,8.2915h-41.5615z"/>
<path opacity=".4" fill="url(#linearGradient22190)" d="m10.8457,44.5965 3.0366,70.449c-2.5784,.194-4.1986-.9195-5.7784-2.6276-1.2555-1.3575-1.9594-3.6142-2.0779-4.726l-3.0378-58.5442c-.016-.2254-.0716-.8658-.0876-1.367-.0084-.2634 .011-.4884 .016-.5945 .0357-.7486 .0743-1.8317 1.2223-2.3591 .575-.2642 .6325-.2208 2.6955-.2139 1.0588,.0035 2.3513-.0231 4.0115-.0167z"/>
<path opacity=".4" fill="url(#linearGradient22187)" d="m117.1549,34.707-3.0471,80.4241c2.3278,.2175 4.3442-1.0858 5.8508-2.9176 1.1654-1.4169 2.3229-3.8614 2.1846-5.356l2.7938-65.593c.0242-.3856 .0563-1.686 .1087-2.0274 .5061-3.2984-2.6856-4.4658-4.8472-4.4908-1.049-.0121-1.3989-.0466-3.0436-.0393z"/>
<path opacity=".4" fill="url(#linearGradient22184)" d="m5.6958,64.1287 117.8942,0c1.7047,0 .4126,1.1516 .4126,2.134l-1.7876,41.9045c0,.53-1.1059,3.5844-2.9186,5.106-1.5471,1.2987-3.0457,2.0063-5.3698,2.003l-100.4103-.1423c-.7887-.001-3.4331-.4635-4.9541-2.021-1.7639-1.8063-2.3392-4.0229-2.5134-5.0549l-2.1431-42.1197c0-.9837 .0875-1.8096 1.7906-1.8096z"/>
<path opacity=".4" fill="url(#linearGradient22184)" d="m5.6958,64.1287 117.8942,0c1.7047,0 .4126,1.1516 .4126,2.134l-1.7876,41.9045c0,.53-1.1059,3.5844-2.9186,5.106-1.5471,1.2987-3.0457,2.0063-5.3698,2.003l-100.4103-.1423c-.7887-.001-3.4331-.4635-4.9541-2.021-1.7639-1.8063-2.3392-4.0229-2.5134-5.0549l-2.1431-42.1197c0-.9837 .0875-1.8096 1.7906-1.8096z"/>
</g>
</svg>
