<svg xmlns="http://www.w3.org/2000/svg" viewBox="0 0 128 128" xmlns:xlink="http://www.w3.org/1999/xlink">
<defs/>
<path fill="none" d="m113.875,22.0938v92.7812h13.7812v-92.7812h-13.7812zm-25.75,23.5v69.2812h13.8125v-69.2812h-13.8125zm-25.5938,25.875v43.4062h13.7812v-43.4062h-13.7812zm-25.75,25.6875v17.7188h13.7812v-17.7188h-13.7812z"/>
<path fill="#fff" stroke="#000" stroke-width=".3" d="m.048,29.6296 11.3701,17.6161 9.0177,13.9995 0,53.6648 4.5088,0 0-53.4315 9.1157-14.2328 11.2721-17.6161-22.5442,0-22.7403,0zm7.8415,4.8998 12.5464,0 0,18.8993l-5.097-7.6997-7.4494-11.1996zm17.0552,0 12.6444,0-7.5474,11.1996-5.097,7.8164 0-19.016z"/>
</svg>
