<svg xmlns="http://www.w3.org/2000/svg" viewBox="0 0 96 96" xmlns:xlink="http://www.w3.org/1999/xlink">
<defs>
<linearGradient gradientTransform="matrix(1 0 0 -1 0 97)" id="linearGradient3721" xlink:href="#ButtonShadow-0" y1="6.132" y2="90.239" x2="0" gradientUnits="userSpaceOnUse"/>
<linearGradient id="linearGradient3737-1">
<stop offset="0" stop-color="#fff"/>
<stop offset="1" stop-color="#fff" stop-opacity="0"/>
</linearGradient>
<linearGradient id="linearGradient3709">
<stop offset="0" stop-color="#464646"/>
<stop offset=".796" stop-color="#fff"/>
<stop offset="1" stop-color="#717171"/>
</linearGradient>
<linearGradient id="linearGradient3923" xlink:href="#linearGradient3737-1" y1="6" y2="63.893" x2="0" gradientUnits="userSpaceOnUse"/>
<linearGradient id="linearGradient3961" xlink:href="#linearGradient3709" x1="-8.334" x2="34.598" gradientUnits="userSpaceOnUse"/>
<linearGradient gradientTransform="matrix(1.02381 0 0 -1.0119 -1.14286 98.07143)" id="linearGradient3780" xlink:href="#ButtonShadow-0" y1="6.132" y2="90.239" x2="0" gradientUnits="userSpaceOnUse"/>
<linearGradient id="linearGradient3706" xlink:href="#linearGradient3700" y1="90" y2="5.988" x2="0" gradientUnits="userSpaceOnUse"/>
<linearGradient id="linearGradient3700">
<stop offset="0" stop-color="#e6e6e6"/>
<stop offset="1" stop-color="#f5f5f5"/>
</linearGradient>
<linearGradient gradientTransform="matrix(1.00587 0 0 .99417 100 0)" id="ButtonShadow-0" y1="92.54" y2="7.017" x2="0" gradientUnits="userSpaceOnUse">
<stop offset="0"/>
<stop offset="1" stop-opacity=".588"/>
</linearGradient>
<radialGradient cx="48" cy="90.172" gradientTransform="matrix(1.15731 0 0 .99591 -7.55102 .19713)" r="42" id="radialGradient2886" gradientUnits="userSpaceOnUse">
<stop offset="0" stop-color="#fff"/>
<stop offset="1" stop-color="#fff" stop-opacity="0"/>
</radialGradient>
<radialGradient cx="13.132" cy="56.352" r="21.466" id="radialGradient3928" gradientUnits="userSpaceOnUse">
<stop offset="0" stop-color="#fff"/>
<stop offset=".8" stop-color="#ededed"/>
<stop offset=".9" stop-color="#c6c6c6"/>
<stop offset="1" stop-color="#7d7d7d"/>
</radialGradient>
<radialGradient cx="13.132" cy="35.957" gradientTransform="matrix(1.43312 0 -0 1.10823 -5.68778 -3.89164)" r="21.466" id="radialGradient3924" gradientUnits="userSpaceOnUse">
<stop offset="0" stop-color="#fff"/>
<stop offset="1" stop-color="#adadad"/>
</radialGradient>
</defs>
<path opacity=".08" fill="url(#linearGradient3780)" d="m12,3.9688c-5.5111,0-10.0312,4.5202-10.0312,10.0312v71c0,5.5111 4.5202,10.0312 10.0312,10.0312h72c5.5111,0 10.0312-4.5202 10.0312-10.0312v-71c0-5.5111-4.5202-10.0312-10.0312-10.0312h-72zm0,2.0312 72,0c3.324,0 6,2.676 6,6v72c0,3.324-2.676,6-6,6h-72c-3.324,0-6-2.676-6-6v-72c0-3.324 2.676-6 6-6z"/>
<path opacity=".1" fill="url(#linearGradient3780)" d="m12,4.9688c-4.9716,0-9.0312,4.0596-9.0312,9.0312v71c0,4.9716 4.0596,9.0312 9.0312,9.0312h72c4.9716,0 9.0312-4.0596 9.0312-9.0312v-71c0-4.9716-4.0596-9.0312-9.0312-9.0312h-72zm0,1.0312 72,0c3.324,0 6,2.676 6,6v72c0,3.324-2.676,6-6,6h-72c-3.324,0-6-2.676-6-6v-72c0-3.324 2.676-6 6-6z"/>
<path opacity=".2" fill="url(#linearGradient3780)" d="m11.1875,6.0312c-4.0275,.4107-7.1875,3.8352-7.1875,7.9688v71c0,4.4091 3.5909,8 8,8h72c4.4091,0 8-3.5909 8-8v-71c0-4.1971-3.259-7.646-7.375-7.9688 3.0329,.3062 5.375,2.8525 5.375,5.9688v72c0,3.324-2.676,6-6,6h-72c-3.324,0-6-2.676-6-6v-72c0-3.1163 2.3421-5.6626 5.375-5.9688-.0623,.0049-.1256-.0063-.1875,0z"/>
<path opacity=".3" fill="url(#linearGradient3780)" d="m6.4375,9.75c-.8995,1.1774-1.4375,2.6473-1.4375,4.25v71c0,3.878 3.122,7 7,7h72c3.878,0 7-3.122 7-7v-71c0-1.6027-.538-3.0726-1.4375-4.25 .2793,.6941 .4375,1.4536 .4375,2.25v72c0,3.324-2.676,6-6,6h-72c-3.324,0-6-2.676-6-6v-72c0-.7964 .1582-1.5559 .4375-2.25z"/>
<path opacity=".45" fill="url(#linearGradient3721)" d="m6,84 0,1c0,3.324 2.676,6 6,6h72c3.324,0 6-2.676 6-6v-1c0,3.324-2.676,6-6,6h-72c-3.324,0-6-2.676-6-6z"/>
<path fill="url(#linearGradient3706)" d="m12,6h72a6,6 0 0,1 6,6v72a6,6 0 0,1 -6,6h-72a6,6 0 0,1 -6-6v-72a6,6 0 0,1 6-6"/>
<path opacity=".5" fill="url(#linearGradient3923)" d="m12,6c-3.324,0-6,2.676-6,6v2 68 2c0,.3347 .0413,.6507 .0938,.9688 .0487,.2956 .097,.5969 .1875,.875 .0099,.0304 .0209,.0636 .0312,.0938 .0989,.2878 .2349,.5475 .375,.8125 .1446,.2735 .3156,.5356 .5,.7812 .1844,.2456 .3738,.4735 .5938,.6875 .4399,.4281 .9429,.8145 1.5,1.0938 .2785,.1396 .5735,.2469 .875,.3438-.2562-.1002-.4867-.2363-.7188-.375-.0074-.0044-.0239,.0045-.0312,0-.0319-.0193-.0623-.0425-.0938-.0625-.1204-.0767-.231-.1635-.3438-.25-.1062-.0808-.2133-.1611-.3125-.25-.1779-.1614-.3475-.3454-.5-.5312-.1076-.1303-.2184-.2653-.3125-.4062-.0251-.0384-.0385-.0859-.0625-.125-.0648-.103-.1302-.2045-.1875-.3125-.101-.1947-.2057-.4157-.2812-.625-.008-.0218-.0236-.0405-.0312-.0625-.0318-.0919-.0358-.1868-.0625-.2812-.0303-.1066-.0704-.203-.0938-.3125-.0729-.3415-.125-.6982-.125-1.0625v-2-68-2c0-2.7818 2.2182-5 5-5h2 68 2c2.7818,0 5,2.2182 5,5v2 68 2c0,.3643-.0521,.721-.125,1.0625-.0442,.2069-.0884,.3977-.1562,.5938-.0077,.022-.0233,.0407-.0312,.0625-.0627,.1737-.1384,.3674-.2188,.5312-.0416,.0828-.079,.17-.125,.25-.0546,.0972-.1268,.1883-.1875,.2812-.0941,.141-.2049,.276-.3125,.4062-.1432,.1744-.3031,.347-.4688,.5-.0112,.0102-.02,.0212-.0312,.0312-.1384,.1256-.2851,.2344-.4375,.3438-.1026,.0731-.2043,.1534-.3125,.2188-.0074,.0045-.0238-.0044-.0312,0-.232,.1387-.4625,.2748-.7188,.375 .3015-.0968 .5965-.2041 .875-.3438 .5571-.2792 1.0601-.6657 1.5-1.0938 .22-.214 .4094-.4419 .5938-.6875 .1844-.2456 .3554-.5077 .5-.7812 .1401-.265 .2761-.5247 .375-.8125 .0104-.0308 .0213-.0627 .0312-.0938 .0905-.2781 .1388-.5794 .1875-.875 .0524-.318 .0938-.634 .0938-.9688v-2-68-2c0-3.324-2.676-6-6-6h-72z"/>
<path opacity=".4" fill="url(#radialGradient2886)" d="m12,90c-3.324,0-6-2.676-6-6v-2-68-2c0-.3347 .0413-.6507 .0938-.9688 .0487-.2956 .097-.5969 .1875-.875 .0099-.0304 .0209-.0636 .0312-.0938 .0989-.2878 .2349-.5475 .375-.8125 .1446-.2735 .3156-.5356 .5-.7812 .1844-.2456 .3738-.4735 .5938-.6875 .4399-.4281 .9429-.8145 1.5-1.0938 .2785-.1396 .5735-.2469 .875-.3438-.2562,.1002-.4867,.2363-.7188,.375-.0074,.0044-.0239-.0045-.0312,0-.0319,.0193-.0623,.0425-.0938,.0625-.1204,.0767-.231,.1635-.3438,.25-.1062,.0808-.2133,.1611-.3125,.25-.1779,.1614-.3475,.3454-.5,.5312-.1076,.1303-.2184,.2653-.3125,.4062-.0251,.0384-.0384,.0859-.0625,.125-.0648,.103-.1302,.2045-.1875,.3125-.101,.1947-.2057,.4157-.2812,.625-.008,.0218-.0236,.0405-.0312,.0625-.0318,.092-.0358,.1868-.0625,.2812-.0303,.1066-.0704,.203-.0938,.3125-.0729,.3415-.125,.6982-.125,1.0625v2 68 2c0,2.7818 2.2182,5 5,5h2 68 2c2.7818,0 5-2.2182 5-5v-2-68-2c0-.3643-.0521-.721-.125-1.0625-.0442-.2069-.0884-.3977-.1562-.5938-.0077-.022-.0233-.0407-.0312-.0625-.0627-.1737-.1384-.3674-.2188-.5312-.0416-.0828-.079-.17-.125-.25-.0546-.0972-.1268-.1883-.1875-.2812-.0941-.141-.2049-.276-.3125-.4062-.1432-.1745-.3031-.347-.4688-.5-.0112-.0102-.02-.0211-.0312-.0312-.1384-.1256-.2851-.2344-.4375-.3438-.1026-.0732-.2043-.1534-.3125-.2188-.0074-.0045-.0238,.0044-.0312,0-.232-.1387-.4625-.2748-.7188-.375 .3015,.0968 .5965,.2041 .875,.3438 .5571,.2792 1.0601,.6657 1.5,1.0938 .22,.214 .4094,.4419 .5938,.6875 .1844,.2456 .3554,.5077 .5,.7812 .1401,.265 .2761,.5247 .375,.8125 .0104,.0308 .0213,.0627 .0312,.0938 .0905,.2781 .1388,.5794 .1875,.875 .0524,.318 .0938,.634 .0938,.9688v2 68 2c0,3.324-2.676,6-6,6h-72z"/>
<path fill="#f0f" d="m-88,6h72a6,6 0 0,1 6,6v72a6,6 0 0,1 -6,6h-72a6,6 0 0,1 -6-6v-72a6,6 0 0,1 6-6"/>
<path fill="#fff" stroke="#000" stroke-linecap="round" color="#000" stroke-width=".5" d="m112,8h16v16h-16z" stroke-dashoffset="8.6"/>
<text x="131.393" y="11.969" font-family="Liberation Sans" text-align="start" line-height="125%" xml:space="preserve" font-size="4px"><tspan x="131.393" y="11.969">Width: 2px</tspan><tspan x="131.393" y="16.969">Blur: 12</tspan><tspan x="131.393" y="21.969">Opacity: 60</tspan>
</text>
<path fill="#dcdcdc" color="#000" d="m16,16 0,8 8,0 0-8-8,0zm8,8 0,8 8,0 0-8-8,0zm8,0 8,0 0-8-8,0 0,8zm8,0 0,8 8,0 0-8-8,0zm8,0 8,0 0-8-8,0 0,8zm8,0 0,8 8,0 0-8-8,0zm8,0 8,0 0-8-8,0 0,8zm8,0 0,8 8,0 0-8-8,0zm0,8-8,0 0,8 8,0 0-8zm0,8 0,8 8,0 0-8-8,0zm0,8-8,0 0,8 8,0 0-8zm0,8 0,8 8,0 0-8-8,0zm0,8-8,0 0,8 8,0 0-8zm0,8 0,8 8,0 0-8-8,0zm-8,0-8,0 0,8 8,0 0-8zm-8,0 0-8-8,0 0,8 8,0zm-8,0-8,0 0,8 8,0 0-8zm-8,0 0-8-8,0 0,8 8,0zm-8,0-8,0 0,8 8,0 0-8zm-8,0 0-8-8,0 0,8 8,0zm0-8 8,0 0-8-8,0 0,8zm0-8 0-8-8,0 0,8 8,0zm0-8 8,0 0-8-8,0 0,8zm0-8 0-8-8,0 0,8 8,0zm8,0 8,0 0-8-8,0 0,8zm8,0 0,8 8,0 0-8-8,0zm8,0 8,0 0-8-8,0 0,8zm8,0 0,8 8,0 0-8-8,0zm0,8-8,0 0,8 8,0 0-8zm0,8 0,8 8,0 0-8-8,0zm-8,0-8,0 0,8 8,0 0-8zm-8,0 0-8-8,0 0,8 8,0z"/>
<path opacity=".05" d="m13.125,32.25c-13.2754,0-24.0938,10.8183-24.0938,24.0938 0,13.2754 10.8183,24.0938 24.0938,24.0938 13.2754,0 24.0938-10.8183 24.0938-24.0938 0-13.2754-10.8183-24.0938-24.0938-24.0938z" transform="matrix(1.11806 0 0 1.11806 33.31765 -15.0044)"/>
<path opacity=".1" d="m13.125,33.0625c-12.8363,0-23.2812,10.445-23.2812,23.2812 0,12.8363 10.445,23.2812 23.2812,23.2812 12.8363,0 23.2812-10.445 23.2812-23.2812 0-12.8363-10.445-23.2812-23.2812-23.2812z" transform="matrix(1.11806 0 0 1.11806 33.31765 -15.0044)"/>
<path opacity=".15" d="m13.125,33.9688c-12.3468,0-22.375,10.0282-22.375,22.375 0,12.3468 10.0282,22.375 22.375,22.375 12.3468,0 22.375-10.0282 22.375-22.375 0-12.3468-10.0282-22.375-22.375-22.375z" transform="matrix(1.11806 0 0 1.11806 33.31765 -15.0044)"/>
<path opacity=".3" d="m34.5977,56.3515a21.4657,21.4657 0 1,1 -42.9315,0 21.4657,21.4657 0 1,1 42.9315,0z" transform="matrix(1.11806 0 0 1.11806 33.31765 -15.0044)"/>
<path fill="url(#radialGradient3924)" d="m34.5977,56.3515a21.4657,21.4657 0 1,1 -42.9315,0 21.4657,21.4657 0 1,1 42.9315,0z" transform="matrix(1.11806 0 0 1.11806 33.31765 -16.0044)"/>
<path opacity=".6" fill="url(#linearGradient3961)" d="m13.125,34c-12.3358,0-22.3438,10.0079-22.3438,22.3438 0,12.3358 10.0079,22.3438 22.3438,22.3438 12.3358,0 22.3438-10.0079 22.3438-22.3438 0-12.3358-10.0079-22.3438-22.3438-22.3438z" transform="matrix(0 .9051 -.9051 0 99.00357 35.11429)"/>
<path fill="#fff" d="m34.5977,56.3515a21.4657,21.4657 0 1,1 -42.9315,0 21.4657,21.4657 0 1,1 42.9315,0z" transform="matrix(.85186 0 0 .85186 36.81345 -1.00336)"/>
<path opacity=".15" d="m48,28.7143c-10.0989,0-18.2857,8.1868-18.2857,18.2857 0,10.0989 8.1868,18.2857 18.2857,18.2857 10.0989,0 18.2857-8.1868 18.2857-18.2857 0-10.0989-8.1868-18.2857-18.2857-18.2857zm0,2.25c8.8636,0 16.0357,7.1721 16.0357,16.0357 0,8.8636-7.1721,16.0357-16.0357,16.0357-8.8636,0-16.0357-7.1721-16.0357-16.0357 0-8.8636 7.1721-16.0357 16.0357-16.0357z"/>
<path fill="url(#radialGradient3928)" d="m34.5977,56.3515a21.4657,21.4657 0 1,1 -42.9315,0 21.4657,21.4657 0 1,1 42.9315,0z" transform="matrix(.86989 0 0 .86989 36.57656 -2.04406)"/>
<path opacity=".5" d="m48,29.7188c-10.0989,0-18.2812,8.1823-18.2812,18.2812 0,10.0989 8.1823,18.2812 18.2812,18.2812 10.0989,0 18.2812-8.1823 18.2812-18.2812 0-10.0989-8.1823-18.2812-18.2812-18.2812zm0,.5c9.8141,0 17.75,7.9672 17.75,17.7812 0,9.8141-7.9359,17.7812-17.75,17.7812-9.8141,0-17.75-7.9672-17.75-17.7812 0-9.8141 7.9359-17.7812 17.75-17.7812z" transform="matrix(1.0123 0 0 1.0123 -.59051 -1.59051)"/>
<g fill="#4d4d4d" transform="translate(-80)">
<g font-family="BabelSans" text-align="start" line-height="125%" font-size="6.58603811px">
<text x="45.149" y="36.806" font-weight="bold" xml:space="preserve"><tspan x="45.149" y="36.806">12</tspan>
</text>
<text x="46.591" y="63.957" font-weight="bold" xml:space="preserve"><tspan x="46.591" y="63.957">6</tspan>
</text>
<text x="32.022" y="50.328" font-weight="bold" xml:space="preserve"><tspan x="32.022" y="50.328">9</tspan>
</text>
<text x="61.243" y="50.328" font-weight="bold" xml:space="preserve"><tspan x="61.243" y="50.328">3</tspan>
</text>
</g>
<path opacity=".4" d="m65.0342,1.5595h1.1429v3.4286h-1.1429z" transform="rotate(30)"/>
<path opacity=".4" d="m65.0609-33.6057h1.1429v3.4286h-1.1429z" transform="rotate(60)"/>
<path opacity=".4" d="m17.0609-81.6785h1.1429v3.4285h-1.1429z" transform="rotate(120)"/>
<path opacity=".4" d="m-18.1042-81.7052h1.1428v3.4285h-1.1428z" transform="rotate(150)"/>
<path opacity=".4" d="m-66.1771-33.7052h1.1429v3.4286h-1.1429z" transform="matrix(-.86603 -.5 .5 -.86603 0 0)"/>
<path opacity=".4" d="m-66.2038,1.4599h1.1429v3.4286h-1.1429z" transform="matrix(-.5 -.86603 .86603 -.5 0 0)"/>
<path opacity=".4" d="m-18.2038,49.5328h1.1429v3.4285h-1.1429z" transform="matrix(.5 -.86603 .86603 .5 0 0)"/>
<path opacity=".4" d="m16.9613,49.5595h1.1429v3.4285h-1.1429z" transform="matrix(.86603 -.5 .5 .86603 0 0)"/>
</g>
<path fill="#d40000" d="m-1.2293-79.8654h1.1429v11.4286h-1.1429z" transform="rotate(135)"/>
<path d="m30.9991,70.9987a2.0834,2.0834 0 1,1 -4.1669,0 2.0834,2.0834 0 1,1 4.1669,0z" transform="matrix(1.09709 0 0 1.09709 16.27706 -30.89177)"/>
<path d="m23.6123,62.5296 .8855,1.4551 .8174,1.4944-1.7029,.0393-1.7029-.0393 .8174-1.4944 .8855-1.4551z" transform="matrix(0 -.67113 3.08707 0 -155.31022 62.7549)"/>
<path fill="#fff" d="m30.9991,70.9987a2.0834,2.0834 0 1,1 -4.1669,0 2.0834,2.0834 0 1,1 4.1669,0z" transform="matrix(.54297 0 0 .54297 32.29956 8.44951)"/>
<g color="#000" transform="translate(0 -1)">
<g fill="#b3b3b3">
<path d="m52,34a2,2 0 1,1 -4,0 2,2 0 1,1 4,0z" transform="matrix(-.25 .43301 -.43301 -.25 63.09808 27.84936)"/>
<path d="m52,34a2,2 0 1,1 -4,0 2,2 0 1,1 4,0z" transform="matrix(-.43301 .25 -.25 -.43301 71.15063 38.09808)"/>
<path d="m52,34a2,2 0 1,1 -4,0 2,2 0 1,1 4,0z" transform="matrix(-.43301 -.25 .25 -.43301 68.15064 63.09808)"/>
<path d="m52,34a2,2 0 1,1 -4,0 2,2 0 1,1 4,0z" transform="matrix(-.25 -.43301 .43301 -.25 57.90192 71.15063)"/>
<path d="m52,34a2,2 0 1,1 -4,0 2,2 0 1,1 4,0z" transform="matrix(.25 -.43301 .43301 .25 32.90192 68.15064)"/>
<path d="m52,34a2,2 0 1,1 -4,0 2,2 0 1,1 4,0z" transform="matrix(.43301 -.25 .25 .43301 24.84937 57.90192)"/>
<path d="m52,34a2,2 0 1,1 -4,0 2,2 0 1,1 4,0z" transform="matrix(.43301 .25 -.25 .43301 27.84936 32.90192)"/>
<path d="m52,34a2,2 0 1,1 -4,0 2,2 0 1,1 4,0z" transform="matrix(.25 .43301 -.43301 .25 38.09808 24.84937)"/>
</g>
<g fill="#666">
<path d="m52,34a2,2 0 1,1 -4,0 2,2 0 1,1 4,0z" transform="matrix(-.5 0 0 -.5 73 51)"/>
<path d="m52,34a2,2 0 1,1 -4,0 2,2 0 1,1 4,0z" transform="matrix(.5 0 0 .5 23 45)"/>
<path d="m52,34a2,2 0 1,1 -4,0 2,2 0 1,1 4,0z" transform="matrix(0 -.5 .5 0 45 73)"/>
<path d="m52,34a2,2 0 1,1 -4,0 2,2 0 1,1 4,0z" transform="matrix(0 .5 -.5 0 51 23)"/>
</g>
</g>
<path d="m23.6123,62.5296 .8855,1.4551 .8174,1.4944-1.7029,.0393-1.7029-.0393 .8174-1.4944 .8855-1.4551z" transform="matrix(.58122 .33557 -2.32231 4.02235 187.12224 -225.41856)"/>
</svg>
