<svg xmlns="http://www.w3.org/2000/svg" viewBox="0 0 128 128" xmlns:xlink="http://www.w3.org/1999/xlink">
<defs>
<linearGradient gradientTransform="matrix(0 -3 2.96525 0 67.40371 144.08367)" xlink:href="#linearGradient3183-0" id="linearGradient3025" x1="11" gradientUnits="userSpaceOnUse" x2="19"/>
<linearGradient id="linearGradient3183-0">
<stop offset="0" stop-color="#c80000"/>
<stop offset="1" stop-color="#f3604d"/>
</linearGradient>
<linearGradient gradientTransform="matrix(.94002 0 0 -1 5.91705 127.45603)" xlink:href="#linearGradient3780" id="linearGradient3790" y1="-32.814" x1="59.036" y2="64.27" gradientUnits="userSpaceOnUse" x2="59.746"/>
<linearGradient gradientTransform="matrix(.93998 0 0 1 3.74896 -.54237)" xlink:href="#linearGradient3780" id="linearGradient3786" y1="-32.814" x1="59.036" y2="64.27" x2="59.746" gradientUnits="userSpaceOnUse"/>
<linearGradient id="linearGradient3780">
<stop offset="0" stop-color="#b3b3b3"/>
<stop offset="1" stop-color="#fff"/>
</linearGradient>
</defs>
<g transform="matrix(.67297 .73967 -.73967 .67297 70.1299 -23.58687)">
<path fill="url(#linearGradient3786)" fill-rule="evenodd" stroke="#000" stroke-width=".3" d="m57.9902-9.4317c-1.8263,0-3.2899,1.4435-3.2899,3.25v15.625l-8.4599,9.7187v.0625c-.4668,.631-.7637,1.4076-.7637,2.25v18.3125c0,2.122 1.7415,3.8125 3.9068,3.8125h21.9134c2.1653,0 3.9068-1.6905 3.9068-3.8125v-18.3125c0-.8268-.2832-1.5941-.7344-2.2188v-.0938l-8.1661-10.3125v-15.0313c0-1.8065-1.4636-3.25-3.2899-3.25h-5.023z"/>
<path fill="url(#linearGradient3790)" fill-rule="evenodd" stroke="#000" stroke-width=".3" d="m60.1601,136.3453c-1.8264,0-3.2901-1.4435-3.2901-3.25v-15.625l-8.4601-9.7188v-.0625c-.4668-.631-.7638-1.4076-.7638-2.25v-18.3125c0-2.122 1.7416-3.8125 3.9069-3.8125h21.9141c2.1653,0 3.9069,1.6905 3.9069,3.8125v18.3125c0,.8268-.2832,1.5941-.7344,2.2188v.0937l-8.1664,10.3125v15.0312c0,1.8065-1.4637,3.25-3.2901,3.25h-5.0232z"/>
</g>
<g transform="matrix(1.43053 0 0 1.43002 -39.01458 -42.48869)">
<path opacity=".1" fill-rule="evenodd" d="m93.9115,86.1149c.0007-.0001-.0945,.0314-.0937,.0312 .0007-.0001-.0945,.0002-.0937,0 .0007-.0002-.0944,.0314-.0937,.0312 .001-.0003-.126,.0316-.125,.0312 .001-.0003-.126,.0629-.125,.0625 .001-.0004-.1572,.063-.1562,.0625 .0009-.0005-.1259,.0631-.125,.0625 .0009-.0005-.0946,.0944-.0937,.0938 .0009-.0006-.1258,.0632-.125,.0625 .0008-.0007-.0945,.0945-.0937,.0938 .0006-.0005-.0658,.0652-.0937,.0938-.009,.0095-.0314,.0315-.0312,.0312l-6,6.0625c.001-.001-.1258,.1573-.125,.1562 .0008-.001-.0945,.1262-.0937,.125 .0007-.001-.0944,.1575-.0937,.1562 .0006-.001-.0943,.1888-.0937,.1875 .0005-.001-.0629,.1576-.0625,.1562 .0004-.001-.0315,.1889-.0312,.1875 .0003-.001-.0314,.1889-.0312,.1875 .0001-.001 0,.1889 0,.1875 0-.001 .0001,.1889 0,.1875-.0001-.001 .0315,.1889 .0312,.1875-.0003-.001 .0316,.1888 .0312,.1875-.0004-.001 .063,.1575 .0625,.1562-.0005-.001 .0944,.1887 .0937,.1875-.0006-.001 .0945,.1574 .0937,.1562-.0007-.001 .0946,.1261 .0937,.125-.0008-.001 .126,.1573 .125,.1562l4.5,4.5625-4.5,4.5625c.001-.001-.1258,.1573-.125,.1562 .0008-.001-.0945,.1262-.0937,.125 .0007-.001-.0944,.1575-.0937,.1562 .0006-.001-.0943,.1888-.0937,.1875 .0005-.001-.0629,.1576-.0625,.1562 .0004-.001-.0315,.1889-.0312,.1875 .0003-.001-.0314,.1889-.0312,.1875 .0001-.001 0,.1889 0,.1875 0-.001 .0001,.1889 0,.1875-.0001-.001 .0315,.1889 .0312,.1875-.0003-.001 .0316,.1888 .0312,.1875-.0004-.001 .063,.1575 .0625,.1562-.0005-.001 .0944,.1887 .0937,.1875-.0006-.001 .0945,.1574 .0937,.1562-.0007-.001 .0946,.1261 .0937,.125-.0008-.001 .126,.1573 .125,.1562l6.0312,6.0938c-.001-.001 .1261,.1259 .125,.125-.001-.0009 .1574,.1258 .1562,.125-.001-.0008 .1575,.0944 .1562,.0937-.001-.0007 .1888,.0943 .1875,.0937-.001-.0006 .1889,.0629 .1875,.0625-.001-.0005 .1576,.0628 .1562,.0625-.001-.0003 .1889,.0314 .1875,.0312-.001-.0002 .2202,0 .2188,0-.001-0 .1889-.0001 .1875,0-.001,.0001 .1889-.0315 .1875-.0312-.001,.0002 .1889-.0316 .1875-.0312-.001,.0004 .1576-.063 .1562-.0625-.001,.0005 .1888-.0631 .1875-.0625-.001,.0006 .1574-.0945 .1562-.0937-.001,.0008 .1574-.1259 .1562-.125-.001,.0009 .1573-.126 .1562-.125l4.5938-4.5625 4.4062,4.5c-.0005-.0005 .063,.063 .0625,.0625-.0005-.0005 .0943,.063 .0937,.0625-.0006-.0005 .0631,.0629 .0625,.0625-.0006-.0005 .0943,.0629 .0937,.0625-.0006-.0004 .0631,.0629 .0625,.0625-.0006-.0004 .0944,.0628 .0937,.0625-.0006-.0004 .0944,.0316 .0937,.0312-.0007-.0003 .0944,.0315 .0937,.0312-.0007-.0003 .0632,.0315 .0625,.0312-.0007-.0003 .0944,.0315 .0937,.0312-.0007-.0002 .0945,.0314 .0937,.0312-.0007-.0002 .1257,.0314 .125,.0312-.0007-.0002 .0945,.0314 .0937,.0312-.0007-.0001 .0945,.0001 .0937,0-.0007-.0001 .0945,0 .0937,0-.0007-0 .0945,0 .0937,0-.0007,0 .0945-0 .0937,0-.0007,0 .0945-.0001 .0937,0-.0007,.0001 .0945-.0001 .0937,0-.0007,.0001 .0945-.0314 .0937-.0312-.0007,.0001 .1257-.0314 .125-.0312-.0007,.0002 .0944-.0315 .0937-.0312-.0007,.0002 .0944-.0315 .0937-.0312-.0007,.0002 .0632-.0315 .0625-.0312-.0007,.0003 .0944-.0316 .0937-.0312-.0007,.0003 .0944-.0316 .0937-.0312-.0006,.0003 .0944-.0629 .0937-.0625-.0006,.0004 .0631-.0629 .0625-.0625-.0006,.0004 .0943-.063 .0937-.0625-.0006,.0004 .0631-.063 .0625-.0625-.0006,.0005 .0943-.063 .0937-.0625-.0005,.0005 .063-.063 .0625-.0625l6.2188-6.2812c-.001,.001 .1259-.1574 .125-.1562-.0009,.001 .1258-.1575 .125-.1562-.0008,.001 .0944-.1575 .0937-.1562-.0006,.001 .063-.1888 .0625-.1875-.0005,.001 .0629-.1576 .0625-.1562-.0004,.001 .0315-.1889 .0312-.1875-.0002,.001 .0314-.1889 .0312-.1875-.0001,.001-0-.1889 0-.1875 0,.001-.0002-.2202 0-.2188 .0002,.001-.0316-.1889-.0312-.1875 .0003,.001-.0629-.1576-.0625-.1562 .0004,.001-.0631-.1888-.0625-.1875 .0006,.001-.0944-.1887-.0937-.1875 .0007,.001-.0946-.1574-.0937-.1562 .0008,.001-.1259-.1573-.125-.1562 .0009,.001-.126-.126-.125-.125l-4.4062-4.3125 4.4062-4.3125c-.001,.001 .1259-.1261 .125-.125-.0009,.001 .1258-.1574 .125-.1562-.0008,.001 .0944-.1575 .0937-.1562-.0007,.001 .0943-.1888 .0937-.1875-.0006,.001 .0629-.1889 .0625-.1875-.0005,.001 .0628-.1576 .0625-.1562-.0003,.001 .0314-.1889 .0312-.1875-.0002,.001 0-.2202 0-.2188-0,.001-.0001-.1889 0-.1875 .0001,.001-.0315-.1889-.0312-.1875 .0002,.001-.0316-.1889-.0312-.1875 .0004,.001-.063-.1576-.0625-.1562 .0005,.001-.0631-.1888-.0625-.1875 .0006,.001-.0945-.1575-.0937-.1562 .0008,.001-.1259-.1574-.125-.1562 .0009,.001-.126-.1573-.125-.1562l-6.2188-6.2813c.0005,.0005-.063-.063-.0625-.0625 .0005,.0005-.0943-.063-.0937-.0625 .0006,.0005-.0631-.063-.0625-.0625 .0006,.0004-.0943-.0629-.0937-.0625 .0006,.0004-.0631-.0629-.0625-.0625 .0006,.0004-.0944-.0628-.0937-.0625 .0006,.0004-.0944-.0316-.0937-.0312 .0007,.0003-.0944-.0315-.0937-.0312 .0007,.0003-.0632-.0315-.0625-.0312 .0007,.0003-.0944-.0315-.0937-.0312 .0007,.0002-.0945-.0314-.0937-.0312 .0007,.0002-.1257-.0314-.125-.0312 .0007,.0001-.0945-.0314-.0937-.0312 .0007,.0001-.0945-.0001-.0937,0 .0007,.0001-.0945-0-.0937,0 .0007,0-.0945,0-.0937,0 .0007,0-.0945,0-.0937,0 .0007-0-.0945,.0001-.0937,0 .0007-.0001-.0945,.0001-.0937,0 .0007-.0001-.0945,.0314-.0937,.0312 .0007-.0001-.1257,.0314-.125,.0312 .0007-.0002-.0944,.0315-.0937,.0312 .0007-.0002-.0944,.0315-.0937,.0312 .0007-.0003-.0632,.0315-.0625,.0312 .0007-.0003-.0944,.0316-.0937,.0312 .0007-.0003-.0944,.0316-.0937,.0312 .0006-.0004-.0944,.0629-.0937,.0625 .0006-.0004-.0631,.0629-.0625,.0625 .0006-.0004-.0943,.063-.0937,.0625 .0006-.0004-.0631,.063-.0625,.0625 .0006-.0005-.0943,.063-.0937,.0625 .0005-.0005-.063,.063-.0625,.0625l-4.4062,4.5-4.5625-4.5312c.0002,.0002-.0207-.0212-.0312-.0312-.021-.0201-.0629-.0628-.0625-.0625 .0005,.0005-.0631-.063-.0625-.0625 .0006,.0005-.0631-.0629-.0625-.0625 .0006,.0004-.0944-.0317-.0937-.0312 .0006,.0004-.0944-.0629-.0937-.0625 .0006,.0004-.0631-.0628-.0625-.0625 .0006,.0003-.0944-.0316-.0937-.0312 .0007,.0003-.0944-.0315-.0937-.0312 .0007,.0003-.0944-.0315-.0937-.0312 .0007,.0002-.0944-.0315-.0937-.0312 .0007,.0002-.0945-.0314-.0937-.0312 .0007,.0002-.0945-.0314-.0937-.0312 .0007,.0001-.0945-.0001-.0937,0 .0007,.0001-.0945-.0313-.0937-.0312 .0007,.0001-.0945-0-.0937,0 .0007,0-.0945,0-.0937,0a.9966,.9966 0 0,0 -.0625,0c.0007-0-.0945,.0001-.0937,0z"/>
<path opacity=".15" fill-rule="evenodd" d="m93.8803,87.1462a.9528,.9528 0 0,0 -.4688,.2812l-6.0312,6.0938a.9528,.9528 0 0,0 0,1.3125l5.1875,5.25-5.1875,5.25a.9528,.9528 0 0,0 0,1.3125l6.0312,6.0938a.9528,.9528 0 0,0 1.3438,.0312l5.2813-5.25 5.125,5.2188a.9528,.9528 0 0,0 1.375,0l6.2188-6.2812a.9528,.9528 0 0,0 -.0312-1.3438l-5.1562-5.0312 5.1562-5.0312a.9528,.9528 0 0,0 .0312-1.3438l-6.2188-6.2813a.9528,.9528 0 0,0 -1.375,0l-5.125,5.2188-5.2813-5.25a.9528,.9528 0 0,0 -.875-.25z"/>
<path opacity=".3" fill-rule="evenodd" d="m88.0678,105.9899 6.0232,6.0938 5.9305-5.9062 5.8378,5.9062 6.2085-6.2812-5.8378-5.7188 5.8378-5.7188-6.2085-6.2813-5.8378,5.9063-5.9305-5.9063-6.0232,6.0938 5.8378,5.9062-5.8378,5.9062z"/>
<path fill="url(#linearGradient3025)" fill-rule="evenodd" d="m88.0678,104.9899 6.0232,6.0938 5.9305-5.9062 5.8378,5.9062 6.2085-6.2812-5.8378-5.7188 5.8378-5.7188-6.2085-6.2813-5.8378,5.9063-5.9305-5.9063-6.0232,6.0938 5.8378,5.9062-5.8378,5.9062z"/>
<path opacity=".2" fill="#fff" fill-rule="evenodd" d="m94.099,87.0837-6.0312,6.0938 1,1 5.0312-5.0938 5.9375,5.9063 5.8125-5.9063 5.2188,5.25 1-.9688-6.2188-6.2813-5.8125,5.9063-5.9375-5.9063zm-.1948,11.9758-5.8364,5.9304 1,1 4.8438-4.9062-.007-2.0242zm12.3426,.0473-.0228,1.9769 4.8438,4.75 1-1.0312-5.8209-5.6957z"/>
</g>
<path opacity=".591" fill="#4a8fac" d="m-1.4358-357.415h150.8168a3.5071,4.2764 0 0,1 3.507,4.277v34.837a3.5071,4.2764 0 0,1 -3.507,4.276h-150.8168a3.5071,4.2764 0 0,1 -3.5071-4.276v-34.837a3.5071,4.2764 0 0,1 3.5071-4.277" transform="rotate(89.6167)"/>
<path opacity=".591" d="m24.2635,244.255h150.8165a3.5071,4.2764 0 0,1 3.507,4.276v34.837a3.5071,4.2764 0 0,1 -3.507,4.277h-150.8165a3.5071,4.2764 0 0,1 -3.5071-4.277v-34.837a3.5071,4.2764 0 0,1 3.5071-4.276"/>
</svg>
