<svg xmlns="http://www.w3.org/2000/svg" viewBox="0 0 96 96" xmlns:xlink="http://www.w3.org/1999/xlink">
<defs>
<clipPath>
<path fill="url(#linearGradient3648)" d="m12,96c-3.324,0-6,2.676-6,6v72c0,3.324 2.676,6 6,6h72c3.324,0 6-2.676 6-6v-72c0-3.324-2.676-6-6-6h-72zm36,11c18.2254,0 33,12.0883 33,27 0,14.9117-14.7746,27-33,27-2.7139,0-5.3515-.2757-7.875-.7812-3.3926,3.5412-9.7833,8.2333-19.4062,7.1875 7.4297-2.1002 8.9991-8.2413 9.3438-10.75-9.0627-4.8128-15.0625-13.1578-15.0625-22.6562 0-14.9117 14.7746-27 33-27z"/>
</clipPath>
<clipPath>
<path fill="#fff" d="m12,6h72a6,6 0 0,1 6,6v72a6,6 0 0,1 -6,6h-72a6,6 0 0,1 -6-6v-72a6,6 0 0,1 6-6"/>
</clipPath>
<filter id="filter4460">
<feGaussianBlur stdDeviation=".80245"/>
</filter>
<filter id="filter4470">
<feGaussianBlur stdDeviation=".26748"/>
</filter>
<linearGradient id="linearGradient3737">
<stop offset="0" stop-color="#fff"/>
<stop offset="1" stop-color="#fff" stop-opacity="0"/>
</linearGradient>
<linearGradient gradientTransform="translate(0 -97)" id="linearGradient3721" xlink:href="#ButtonShadow-0" y1="6.132" y2="90.239" x2="0" gradientUnits="userSpaceOnUse"/>
<linearGradient gradientTransform="matrix(1.02381 0 0 1.0119 -1.14286 -98.07143)" id="linearGradient3780" xlink:href="#ButtonShadow-0" y1="6.132" y2="90.239" x2="0" gradientUnits="userSpaceOnUse"/>
<linearGradient gradientTransform="matrix(1.00587 0 0 .99417 100 0)" id="ButtonShadow-0" y1="92.54" y2="7.017" x2="0" gradientUnits="userSpaceOnUse">
<stop offset="0"/>
<stop offset="1" stop-opacity=".588"/>
</linearGradient>
<linearGradient id="linearGradient3188" xlink:href="#linearGradient3737" y1="6" y2="63.893" x2="0" gradientUnits="userSpaceOnUse"/>
<linearGradient id="linearGradient3617" xlink:href="#linearGradient3614" y1="90" y2="5.988" x2="0" gradientUnits="userSpaceOnUse"/>
<linearGradient id="linearGradient3614">
<stop offset="0" stop-color="#2557a3"/>
<stop offset="1" stop-color="#5287d7"/>
</linearGradient>
<linearGradient gradientTransform="translate(0 90)" id="linearGradient3648" xlink:href="#linearGradient3614" y1="90" y2="5.988" x2="0" gradientUnits="userSpaceOnUse"/>
<radialGradient cx="48" cy="90.172" gradientTransform="matrix(1.15731 0 0 .99591 -7.55102 .19713)" r="42" id="radialGradient3619" xlink:href="#linearGradient3737" gradientUnits="userSpaceOnUse"/>
</defs>
<path opacity=".08" fill="url(#linearGradient3780)" d="m12-95.0312c-5.5111,0-10.0312,4.5202-10.0312,10.0312v71c0,5.5111 4.5202,10.0312 10.0312,10.0312h72c5.5111,0 10.0312-4.5202 10.0312-10.0312v-71c0-5.5111-4.5202-10.0312-10.0312-10.0312h-72z" transform="scale(1 -1)"/>
<path opacity=".1" fill="url(#linearGradient3780)" d="m12-94.0312c-4.9716,0-9.0312,4.0596-9.0312,9.0312v71c0,4.9716 4.0596,9.0312 9.0312,9.0312h72c4.9716,0 9.0312-4.0596 9.0312-9.0312v-71c0-4.9716-4.0596-9.0312-9.0312-9.0312h-72z" transform="scale(1 -1)"/>
<path opacity=".2" fill="url(#linearGradient3780)" d="m12-93c-4.4091,0-8,3.5909-8,8v71c0,4.4091 3.5909,8 8,8h72c4.4091,0 8-3.5909 8-8v-71c0-4.4091-3.5909-8-8-8h-72z" transform="scale(1 -1)"/>
<path opacity=".3" fill="url(#linearGradient3780)" d="m12-92h72a7,7 0 0,1 7,7v71a7,7 0 0,1 -7,7h-72a7,7 0 0,1 -7-7v-71a7,7 0 0,1 7-7" transform="scale(1 -1)"/>
<path opacity=".45" fill="url(#linearGradient3721)" d="m12-91h72a6,6 0 0,1 6,6v72a6,6 0 0,1 -6,6h-72a6,6 0 0,1 -6-6v-72a6,6 0 0,1 6-6" transform="scale(1 -1)"/>
<path fill="url(#linearGradient3617)" d="m12,6h72a6,6 0 0,1 6,6v72a6,6 0 0,1 -6,6h-72a6,6 0 0,1 -6-6v-72a6,6 0 0,1 6-6"/>
<path opacity=".4" fill="url(#linearGradient3188)" d="m12,6c-3.324,0-6,2.676-6,6v2 68 2c0,.3347 .0413,.6507 .0938,.9688 .0487,.2956 .097,.5969 .1875,.875 .0099,.0304 .0209,.0636 .0312,.0938 .0989,.2878 .2349,.5475 .375,.8125 .1446,.2735 .3156,.5356 .5,.7812 .1844,.2456 .3738,.4735 .5938,.6875 .4399,.4281 .9429,.8145 1.5,1.0938 .2785,.1396 .5735,.2469 .875,.3438-.2562-.1002-.4867-.2363-.7188-.375-.0074-.0044-.0239,.0045-.0312,0-.0319-.0193-.0623-.0425-.0938-.0625-.1204-.0767-.231-.1635-.3438-.25-.1062-.0808-.2133-.1611-.3125-.25-.1779-.1614-.3475-.3454-.5-.5312-.1076-.1303-.2184-.2653-.3125-.4062-.0251-.0384-.0384-.0859-.0625-.125-.0648-.103-.1302-.2045-.1875-.3125-.101-.1947-.2057-.4157-.2812-.625-.008-.0218-.0236-.0405-.0312-.0625-.0318-.0919-.0358-.1868-.0625-.2812-.0303-.1066-.0704-.203-.0938-.3125-.0729-.3415-.125-.6982-.125-1.0625v-2-68-2c0-2.7818 2.2182-5 5-5h2 68 2c2.7818,0 5,2.2182 5,5v2 68 2c0,.3643-.0521,.721-.125,1.0625-.0442,.2069-.0884,.3977-.1562,.5938-.0077,.022-.0233,.0407-.0312,.0625-.0627,.1737-.1384,.3674-.2188,.5312-.0416,.0828-.079,.17-.125,.25-.0546,.0972-.1268,.1883-.1875,.2812-.0941,.141-.2049,.276-.3125,.4062-.1432,.1744-.3031,.347-.4688,.5-.0112,.0102-.02,.0212-.0312,.0312-.1384,.1256-.2851,.2344-.4375,.3438-.1026,.0731-.2043,.1534-.3125,.2188-.0074,.0045-.0238-.0044-.0312,0-.232,.1387-.4625,.2748-.7188,.375 .3015-.0968 .5965-.2041 .875-.3438 .5571-.2792 1.0601-.6657 1.5-1.0938 .22-.214 .4094-.4419 .5938-.6875 .1844-.2456 .3554-.5077 .5-.7812 .1401-.265 .2761-.5247 .375-.8125 .0104-.0308 .0213-.0627 .0312-.0938 .0905-.2781 .1388-.5794 .1875-.875 .0524-.318 .0938-.634 .0938-.9688v-2-68-2c0-3.324-2.676-6-6-6h-72z"/>
<path opacity=".2" fill="url(#radialGradient3619)" d="m12,90c-3.324,0-6-2.676-6-6v-2-68-2c0-.3347 .0413-.6507 .0938-.9688 .0487-.2956 .097-.5969 .1875-.875 .0099-.0304 .0209-.0636 .0312-.0938 .0989-.2878 .2349-.5475 .375-.8125 .1446-.2735 .3156-.5356 .5-.7812 .1844-.2456 .3738-.4735 .5938-.6875 .4399-.4281 .9429-.8145 1.5-1.0938 .2785-.1396 .5735-.2469 .875-.3438-.2562,.1002-.4867,.2363-.7188,.375-.0074,.0044-.0239-.0045-.0312,0-.0319,.0193-.0623,.0425-.0938,.0625-.1204,.0767-.231,.1635-.3438,.25-.1062,.0808-.2133,.1611-.3125,.25-.1779,.1614-.3475,.3454-.5,.5312-.1076,.1303-.2184,.2653-.3125,.4062-.0251,.0384-.0384,.0859-.0625,.125-.0648,.103-.1302,.2045-.1875,.3125-.101,.1947-.2057,.4157-.2812,.625-.008,.0218-.0236,.0405-.0312,.0625-.0318,.092-.0358,.1868-.0625,.2812-.0303,.1066-.0704,.203-.0938,.3125-.0729,.3415-.125,.6982-.125,1.0625v2 68 2c0,2.7818 2.2182,5 5,5h2 68 2c2.7818,0 5-2.2182 5-5v-2-68-2c0-.3643-.0521-.721-.125-1.0625-.0442-.2069-.0884-.3977-.1562-.5938-.0077-.022-.0233-.0407-.0312-.0625-.0627-.1737-.1384-.3674-.2188-.5312-.0416-.0828-.079-.17-.125-.25-.0546-.0972-.1268-.1883-.1875-.2812-.0941-.141-.2049-.276-.3125-.4062-.1432-.1745-.3031-.347-.4688-.5-.0112-.0102-.02-.0211-.0312-.0312-.1384-.1256-.2851-.2344-.4375-.3438-.1026-.0732-.2043-.1534-.3125-.2188-.0074-.0045-.0238,.0044-.0312,0-.232-.1387-.4625-.2748-.7188-.375 .3015,.0968 .5965,.2041 .875,.3438 .5571,.2792 1.0601,.6657 1.5,1.0938 .22,.214 .4094,.4419 .5938,.6875 .1844,.2456 .3554,.5077 .5,.7812 .1401,.265 .2761,.5247 .375,.8125 .0104,.0308 .0213,.0627 .0312,.0938 .0905,.2781 .1388,.5794 .1875,.875 .0524,.318 .0938,.634 .0938,.9688v2 68 2c0,3.324-2.676,6-6,6h-72z"/>
<g transform="translate(.86291 3.164)">
<path fill="#fdfefe" filter="url(#filter4460)" stroke="#fffcfc" stroke-width=".92" d="m18.9293,30.0643 .1134-1.5065 .187-1.3094 .4747-1.4885 .538-.9033 .8434-.9207 .9933-.8047 1.0903-.5374 .8555-.3249 1.3296-.3416 1.4286-.2314 1.476-.008 1.133,.0938 1.0915,.2359 .9631,.423 .5884-1.6729 .6217-1.2867 .7951-.9729 .8819-.8768 .7756-.6628 1.3349-.9102 1.6008-.6901 1.8571-.616 2.1458-.5062 1.8291-.0964 1.4475,.1455 .8956,.2059 1.1057,.552 1.6521,.9217 1.4108,1.0225 1.2816,1.161 .9424,1.2707 .7083,1.3504 .479,1.3206 1.924-.4374 1.8261-.4045 1.9976-.0397 1.903,.0799 2.2661,.576 1.4904,.641 1.3413,.8053 1.3476,1.2036 .8305,1.3397 .5687,1.5134 .3121,1.1472 .3088,1.9945 1.242,.6947 1.4182,1.0295 1.0962,.9803 1.0073,1.313 .6477,1.737 .4232,1.8712 .0567,2.1888-.3717,1.7527-.846,1.7285-1.0551,1.4727-1.002,.9183-1.0188,.5474-1.4067,.6295-1.1676,.283-1.3546,.4038-1.4399,.2893c-.4668-.0558-1.2086,.1069-1.8129,.0333l-1.5579-.2213c-.1462,.5016-.1907,.9764-.286,1.4539l-.4001,1.0155-.938,1.2089-.6248,.5987-1.0421,.7316-1.0836,.5282-1.3432,.4989-1.1559,.2602-1.2326,.0508-1.3519-.2009-1.0395-.3553-1.2842-.935-1.0433,.5722-1.8878,.7923-1.242,.3961-1.7884,.3961-1.7884,.1761h-2.931l-2.1362-.3521-1.8381-.5722-1.5897-.7042-1.3413-.8803-1.2975,.664-1.332,.4439-1.2823,.1936c-.5287,.1076-1.5045,.0497-1.9421,.0683l-1.5494-.2367-1.2928-.5008-1.249-.7952-.8434-1.0367-.6388-1.0123-.3789-1.1801-.1808-1.5048-1.0785,.0589-1.391-.1388-1.889-.4401-1.5897-.6534-1.7873-.8833-1.4904-1.4084-1.0674-1.3342-.7707-1.6147-.3186-1.9001-.0788-1.9291 .2946-1.4418 .7743-1.4221 .9504-1.1025 .9901-.8226 1.1794-.7748 1.4763-.8529 1.5872-.6835z" transform="matrix(1.03314 0 0 1.03868 4.33143 -1.63182)"/>
<path fill="#fdfefe" filter="url(#filter4470)" stroke="#fffcfc" stroke-width=".92" d="m18.9293,30.0643 .1134-1.5065 .187-1.3094 .4747-1.4885 .538-.9033 .8434-.9207 .9933-.8047 1.0903-.5374 .8555-.3249 1.3296-.3416 1.4286-.2314 1.476-.008 1.133,.0938 1.0915,.2359 .9631,.423 .5884-1.6729 .6217-1.2867 .7951-.9729 .8819-.8768 .7756-.6628 1.3349-.9102 1.6008-.6901 1.8571-.616 2.1458-.5062 1.8291-.0964 1.4475,.1455 .8956,.2059 1.1057,.552 1.6521,.9217 1.4108,1.0225 1.2816,1.161 .9424,1.2707 .7083,1.3504 .479,1.3206 1.924-.4374 1.8261-.4045 1.9976-.0397 1.903,.0799 2.2661,.576 1.4904,.641 1.3413,.8053 1.3476,1.2036 .8305,1.3397 .5687,1.5134 .3121,1.1472 .3088,1.9945 1.242,.6947 1.4182,1.0295 1.0962,.9803 1.0073,1.313 .6477,1.737 .4232,1.8712 .0567,2.1888-.3717,1.7527-.846,1.7285-1.0551,1.4727-1.002,.9183-1.0188,.5474-1.4067,.6295-1.1676,.283-1.3546,.4038-1.4399,.2893c-.4668-.0558-1.2086,.1069-1.8129,.0333l-1.5579-.2213c-.1462,.5016-.1907,.9764-.286,1.4539l-.4001,1.0155-.938,1.2089-.6248,.5987-1.0421,.7316-1.0836,.5282-1.3432,.4989-1.1559,.2602-1.2326,.0508-1.3519-.2009-1.0395-.3553-1.2842-.935-1.0433,.5722-1.8878,.7923-1.242,.3961-1.7884,.3961-1.7884,.1761h-2.931l-2.1362-.3521-1.8381-.5722-1.5897-.7042-1.3413-.8803-1.2975,.664-1.332,.4439-1.2823,.1936c-.5287,.1076-1.5045,.0497-1.9421,.0683l-1.5494-.2367-1.2928-.5008-1.249-.7952-.8434-1.0367-.6388-1.0123-.3789-1.1801-.1808-1.5048-1.0785,.0589-1.391-.1388-1.889-.4401-1.5897-.6534-1.7873-.8833-1.4904-1.4084-1.0674-1.3342-.7707-1.6147-.3186-1.9001-.0788-1.9291 .2946-1.4418 .7743-1.4221 .9504-1.1025 .9901-.8226 1.1794-.7748 1.4763-.8529 1.5872-.6835z" transform="matrix(1.03314 0 0 1.03868 4.33143 -1.63182)"/>
<path fill="#fdfefe" stroke="#fffcfc" stroke-width=".92" d="m18.9293,30.0643 .1134-1.5065 .187-1.3094 .4747-1.4885 .538-.9033 .8434-.9207 .9933-.8047 1.0903-.5374 .8555-.3249 1.3296-.3416 1.4286-.2314 1.476-.008 1.133,.0938 1.0915,.2359 .9631,.423 .5884-1.6729 .6217-1.2867 .7951-.9729 .8819-.8768 .7756-.6628 1.3349-.9102 1.6008-.6901 1.8571-.616 2.1458-.5062 1.8291-.0964 1.4475,.1455 .8956,.2059 1.1057,.552 1.6521,.9217 1.4108,1.0225 1.2816,1.161 .9424,1.2707 .7083,1.3504 .479,1.3206 1.924-.4374 1.8261-.4045 1.9976-.0397 1.903,.0799 2.2661,.576 1.4904,.641 1.3413,.8053 1.3476,1.2036 .8305,1.3397 .5687,1.5134 .3121,1.1472 .3088,1.9945 1.242,.6947 1.4182,1.0295 1.0962,.9803 1.0073,1.313 .6477,1.737 .4232,1.8712 .0567,2.1888-.3717,1.7527-.846,1.7285-1.0551,1.4727-1.002,.9183-1.0188,.5474-1.4067,.6295-1.1676,.283-1.3546,.4038-1.4399,.2893c-.4668-.0558-1.2086,.1069-1.8129,.0333l-1.5579-.2213c-.1462,.5016-.1907,.9764-.286,1.4539l-.4001,1.0155-.938,1.2089-.6248,.5987-1.0421,.7316-1.0836,.5282-1.3432,.4989-1.1559,.2602-1.2326,.0508-1.3519-.2009-1.0395-.3553-1.2842-.935-1.0433,.5722-1.8878,.7923-1.242,.3961-1.7884,.3961-1.7884,.1761h-2.931l-2.1362-.3521-1.8381-.5722-1.5897-.7042-1.3413-.8803-1.2975,.664-1.332,.4439-1.2823,.1936c-.5287,.1076-1.5045,.0497-1.9421,.0683l-1.5494-.2367-1.2928-.5008-1.249-.7952-.8434-1.0367-.6388-1.0123-.3789-1.1801-.1808-1.5048-1.0785,.0589-1.391-.1388-1.889-.4401-1.5897-.6534-1.7873-.8833-1.4904-1.4084-1.0674-1.3342-.7707-1.6147-.3186-1.9001-.0788-1.9291 .2946-1.4418 .7743-1.4221 .9504-1.1025 .9901-.8226 1.1794-.7748 1.4763-.8529 1.5872-.6835z" transform="matrix(1.03314 0 0 1.03868 4.33143 -1.63182)"/>
</g>
<g transform="matrix(.96234 0 0 .91338 1.07356 3.49511)">
<path stroke="#120000" stroke-width=".572" d="m44.1828,27.651h.0001a1.9386,2.2738 0 0,1 1.9386,2.2738v3.7172a1.9386,2.2738 0 0,1 -1.9386,2.2739h-.0001a1.9386,2.2738 0 0,1 -1.9386-2.2739v-3.7172a1.9386,2.2738 0 0,1 1.9386-2.2738"/>
<path stroke="#120000" stroke-width=".572" d="m54.7591,27.651a1.9386,2.2738 0 0,1 1.9386,2.2738v3.7172a1.9386,2.2738 0 0,1 -1.9386,2.2739 1.9386,2.2738 0 0,1 -1.9386-2.2739v-3.7172a1.9386,2.2738 0 0,1 1.9386-2.2738"/>
<path fill="none" stroke="#000" stroke-width="1.5" d="m66.8603,42.5909c-18.6709,17.4958-34.1152-.5817-34.1152-.5817"/>
</g>
<g transform="translate(-46.88478 72.48444)">
<path fill="none" stroke="#000" stroke-width="1.347" d="m77.2186-28.236 4.6061-4.4814"/>
<path fill="none" stroke="#000" stroke-width="1.347" d="m114.5134-27.3397-4.6061-4.4814"/>
</g>
<g transform="translate(1.15055 .86291)">
<path fill="#fff" stroke="#fffcfc" d="m18.917,72.9125c-.0278-2.353 .2675-4.3958 .6597-4.5628 .3922-.167 .7326,1.6051 .7605,3.9581 .0278,2.353-.2675,4.3958-.6597,4.5628-.3838,.1634-.7198-1.5328-.7586-3.8298" transform="matrix(2.02347 0 0 .73291 -8.0304 10.88494)"/>
<path fill="#fff" stroke="#fffcfc" d="m18.917,72.9125c-.0278-2.353 .2675-4.3958 .6597-4.5628 .3922-.167 .7326,1.6051 .7605,3.9581 .0278,2.353-.2675,4.3958-.6597,4.5628-.3838,.1634-.7198-1.5328-.7586-3.8298" transform="matrix(-2.02347 0 0 .73291 71.39935 10.88494)"/>
</g>
<g transform="translate(1.72582 3.164)">
<path fill="#fff" stroke="#fffcfc" d="m18.917,72.9125c-.0278-2.353 .2675-4.3958 .6597-4.5628 .3922-.167 .7326,1.6051 .7605,3.9581 .0278,2.353-.2675,4.3958-.6597,4.5628-.3838,.1634-.7198-1.5328-.7586-3.8298" transform="matrix(2.02347 0 0 .73291 2.32452 12.32312)"/>
<path fill="#fff" stroke="#fffcfc" d="m18.917,72.9125c-.0278-2.353 .2675-4.3958 .6597-4.5628 .3922-.167 .7326,1.6051 .7605,3.9581 .0278,2.353-.2675,4.3958-.6597,4.5628-.3838,.1634-.7198-1.5328-.7586-3.8298" transform="matrix(-2.02347 0 0 .73291 81.75427 12.32312)"/>
</g>
<g transform="translate(2.30109 4.02691)">
<path fill="#fff" stroke="#fffcfc" d="m18.917,72.9125c-.0278-2.353 .2675-4.3958 .6597-4.5628 .3922-.167 .7326,1.6051 .7605,3.9581 .0278,2.353-.2675,4.3958-.6597,4.5628-.3838,.1634-.7198-1.5328-.7586-3.8298" transform="matrix(2.02347 0 0 .73291 12.67944 11.46021)"/>
<path fill="#fff" stroke="#fffcfc" d="m18.917,72.9125c-.0278-2.353 .2675-4.3958 .6597-4.5628 .3922-.167 .7326,1.6051 .7605,3.9581 .0278,2.353-.2675,4.3958-.6597,4.5628-.3838,.1634-.7198-1.5328-.7586-3.8298" transform="matrix(-2.02347 0 0 .73291 92.10919 11.46021)"/>
</g>
<g transform="translate(13.80656)">
<path fill="#fff" stroke="#fffcfc" d="m18.917,72.9125c-.0278-2.353 .2675-4.3958 .6597-4.5628 .3922-.167 .7326,1.6051 .7605,3.9581 .0278,2.353-.2675,4.3958-.6597,4.5628-.3838,.1634-.7198-1.5328-.7586-3.8298" transform="matrix(2.02347 0 0 .73291 12.67944 11.46021)"/>
<path fill="#fff" stroke="#fffcfc" d="m18.917,72.9125c-.0278-2.353 .2675-4.3958 .6597-4.5628 .3922-.167 .7326,1.6051 .7605,3.9581 .0278,2.353-.2675,4.3958-.6597,4.5628-.3838,.1634-.7198-1.5328-.7586-3.8298" transform="matrix(-2.02347 0 0 .73291 92.10919 11.46021)"/>
</g>
<g transform="translate(-1.72582 16.97056)">
<path fill="#fff" stroke="#fffcfc" d="m18.917,72.9125c-.0278-2.353 .2675-4.3958 .6597-4.5628 .3922-.167 .7326,1.6051 .7605,3.9581 .0278,2.353-.2675,4.3958-.6597,4.5628-.3838,.1634-.7198-1.5328-.7586-3.8298" transform="matrix(2.02347 0 0 .73291 12.67944 11.46021)"/>
<path fill="#fff" stroke="#fffcfc" d="m18.917,72.9125c-.0278-2.353 .2675-4.3958 .6597-4.5628 .3922-.167 .7326,1.6051 .7605,3.9581 .0278,2.353-.2675,4.3958-.6597,4.5628-.3838,.1634-.7198-1.5328-.7586-3.8298" transform="matrix(-2.02347 0 0 .73291 92.10919 11.46021)"/>
</g>
<g transform="translate(-14.0942 15.82002)">
<path fill="#fff" stroke="#fffcfc" d="m18.917,72.9125c-.0278-2.353 .2675-4.3958 .6597-4.5628 .3922-.167 .7326,1.6051 .7605,3.9581 .0278,2.353-.2675,4.3958-.6597,4.5628-.3838,.1634-.7198-1.5328-.7586-3.8298" transform="matrix(2.02347 0 0 .73291 12.67944 11.46021)"/>
<path fill="#fff" stroke="#fffcfc" d="m18.917,72.9125c-.0278-2.353 .2675-4.3958 .6597-4.5628 .3922-.167 .7326,1.6051 .7605,3.9581 .0278,2.353-.2675,4.3958-.6597,4.5628-.3838,.1634-.7198-1.5328-.7586-3.8298" transform="matrix(-2.02347 0 0 .73291 92.10919 11.46021)"/>
</g>
<g transform="translate(9.49201 14.38183)">
<path fill="#fff" stroke="#fffcfc" d="m18.917,72.9125c-.0278-2.353 .2675-4.3958 .6597-4.5628 .3922-.167 .7326,1.6051 .7605,3.9581 .0278,2.353-.2675,4.3958-.6597,4.5628-.3838,.1634-.7198-1.5328-.7586-3.8298" transform="matrix(2.02347 0 0 .73291 12.67944 11.46021)"/>
<path fill="#fff" stroke="#fffcfc" d="m18.917,72.9125c-.0278-2.353 .2675-4.3958 .6597-4.5628 .3922-.167 .7326,1.6051 .7605,3.9581 .0278,2.353-.2675,4.3958-.6597,4.5628-.3838,.1634-.7198-1.5328-.7586-3.8298" transform="matrix(-2.02347 0 0 .73291 92.10919 11.46021)"/>
</g>
</svg>
