<svg xmlns="http://www.w3.org/2000/svg" viewBox="0 0 96 96" xmlns:xlink="http://www.w3.org/1999/xlink">
<defs>
<clipPath>
<path fill="#fff" d="m12,6h72a6,6 0 0,1 6,6v72a6,6 0 0,1 -6,6h-72a6,6 0 0,1 -6-6v-72a6,6 0 0,1 6-6"/>
</clipPath>
<linearGradient gradientTransform="matrix(1.00815 0 0 .8638 -1.22259 3.68974)" xlink:href="#linearGradient3814-4" id="linearGradient3102" y1="92.542" x1="23.807" y2="2.237" gradientUnits="userSpaceOnUse" x2="23.587"/>
<linearGradient gradientTransform="matrix(-.80196 0 0 .69845 99.18412 3.38222)" xlink:href="#linearGradient3249-0" id="linearGradient3854" y1="-20.94" y2="55.14" gradientUnits="userSpaceOnUse" x2="0"/>
<linearGradient id="linearGradient3837-4">
<stop offset="0" stop-color="#63b1da"/>
<stop offset="1" stop-color="#1a297c" stop-opacity=".995"/>
</linearGradient>
<linearGradient gradientTransform="matrix(-.74452 0 0 .60332 95.56377 6.61132)" xlink:href="#linearGradient3249-0" id="linearGradient3097" y1="-20.94" y2="55.14" gradientUnits="userSpaceOnUse" x2="0"/>
<linearGradient id="linearGradient3814-4">
<stop offset="0" stop-color="#202372"/>
<stop offset="1" stop-color="#233381"/>
</linearGradient>
<linearGradient gradientTransform="matrix(1.08593 0 0 1 -5.06923 0)" xlink:href="#linearGradient3814" id="linearGradient3852" y1="92.542" x1="23.807" y2="2.237" gradientUnits="userSpaceOnUse" x2="23.587"/>
<linearGradient id="linearGradient3837">
<stop offset="0" stop-color="#df9c7e"/>
<stop offset=".425" stop-color="#b95549" stop-opacity=".996"/>
<stop offset="1" stop-color="#7c251a" stop-opacity=".995"/>
</linearGradient>
<linearGradient id="linearGradient3249">
<stop offset="0" stop-color="#fff"/>
<stop offset="1" stop-color="#fff" stop-opacity="0"/>
</linearGradient>
<linearGradient id="linearGradient3814">
<stop offset="0" stop-color="#61241b"/>
<stop offset="1" stop-color="#752520"/>
</linearGradient>
<linearGradient gradientTransform="matrix(-.69845 0 0 .69845 55.35103 -96.80354)" xlink:href="#linearGradient3249" id="linearGradient3042" y1="-20.94" y2="55.14" gradientUnits="userSpaceOnUse" x2="0"/>
<linearGradient id="linearGradient3249-0">
<stop offset="0" stop-color="#fff"/>
<stop offset="1" stop-color="#fff" stop-opacity="0"/>
</linearGradient>
<radialGradient cx="49.019" cy="40.83" gradientTransform="matrix(1.22678 -.00507 .00486 .86359 -12.13812 3.94713)" xlink:href="#linearGradient3837-4" id="radialGradient3100" r="42.5" gradientUnits="userSpaceOnUse"/>
<radialGradient cx="49.019" cy="40.83" gradientTransform="matrix(1.32142 -.00587 .00524 .99975 -16.82688 .29797)" xlink:href="#linearGradient3837" id="radialGradient3850" r="42.5" gradientUnits="userSpaceOnUse"/>
</defs>
<path fill="url(#linearGradient3042)" d="m45.4636-90.1028c1.8171,0 3.1867,1.3633 3.1867,3.2085v37.6726c-5.4268-12.4907-16.1081-22.3176-35.8392-16.0425-19.8411,6.2974-32.4985-2.9482-40.1608-7.1591v-14.471c0-1.8452 1.3696-3.2085 3.1867-3.2085h69.6266z"/>
<g transform="translate(-74.0339 -272.54237)">
<path fill="url(#radialGradient3850)" stroke="url(#linearGradient3852)" stroke-width="4" d="m87.2553,8.0339c3.6096,0 6.5156,2.676 6.5156,6v56c0,3.324-2.9059,6-6.5156,6h-13.0311l3.2578,16-24.9763-16h-43.4371c-3.6096,0-6.5156-2.676-6.5156-6v-56c0-3.324 2.9059-6 6.5156-6h78.1867z"/>
<path fill="url(#linearGradient3854)" d="m87.8313,10.083c2.0864,0 3.659,1.3633 3.659,3.2085v37.6726c-6.2311-12.4907-18.4954-22.3176-41.1508-16.0425-22.7817,6.2974-37.315-2.9482-46.113-7.1591l0-14.471c0-1.8452 1.5725-3.2085 3.659-3.2085h79.9459z"/>
</g>
<path opacity=".08" d="m85.833,5.3696c4.9234,0 9.9871,5.0722 9.9871,9.3787v50.0276c0,4.8107-5.3103,9.7429-9.5822,9.6693l-7.3919-.1274 4.1025,19.6116-31.6674-19.305-41.3775,.1224c-3.7712,.0112-9.384-4.9595-9.384-10.267l0-49.4354c0-4.7134 6.2153-9.6748 9.9865-9.6748z"/>
<path opacity=".1" d="m86.518,6.5515c3.6876,0 8.2634,5.0171 8.2634,8.2878v50.2337c0,3.2706-4.7823,8.3872-8.4699,8.3872l-8.8431-.2037 3.9315,18.5032-29.8304-18.1763-41.5066-.1232c-3.6876-.0109-8.4695-4.4023-8.4695-8.4865v-50.034c0-3.2706 4.979-8.3881 8.6666-8.3881z"/>
<path opacity=".1" d="m86.2345,7.8357c3.59,0 7.2921,3.9407 7.2921,7.0938v50.4225c0,2.0007-2.975,6.9284-7.5967,6.988l-9.833-.0764 3.6606,17.0554-28.1768-16.8548-41.0778-.1242c-3.59-.0109-7.6982-4.0406-7.6982-7.1937l0-50.0165c0-3.1531 4.1082-7.2941 7.6982-7.2941z"/>
<path fill="url(#radialGradient3100)" stroke="url(#linearGradient3102)" stroke-width="3.582" d="m84.4893,10.6294c3.3511,0 6.0489,2.3115 6.0489,5.1828v48.373c0,2.8713-2.6978,5.1828-6.0489,5.1828h-12.0978l3.0244,13.8208-23.1874-13.8208h-40.3259c-3.3511,0-6.0489-2.3115-6.0489-5.1828v-48.373c0-2.8713 2.6978-5.1828 6.0489-5.1828h72.5867z"/>
<path fill="url(#linearGradient3097)" d="m85.0241,12.3994c1.937,0 3.3969,1.1776 3.3969,2.7715v32.5417c-5.7848-10.7895-17.1707-19.278-38.2034-13.8576-21.15,5.4397-34.6424-2.5466-42.8102-6.1841l-0-12.5001c0-1.5939 1.4599-2.7715 3.3969-2.7715h74.2198z"/>
</svg>
