<svg width="128" version="1.0" xmlns="http://www.w3.org/2000/svg" height="128" xmlns:xlink="http://www.w3.org/1999/xlink">
<defs id="defs3451">
<clipPath id="clipPath3613-6-6">
<rect width="84" x="6" y="6" rx="6" height="84" ry="6" style="fill:#fff;stroke:none" id="rect3615-5-6"/>
</clipPath>
<clipPath id="clipPath3613-6-4">
<rect width="84" x="6" y="6" rx="6" height="84" ry="6" style="fill:#fff;stroke:none" id="rect3615-5-8"/>
</clipPath>
<filter width="1.3839999" x="-0.192" y="-0.192" height="1.3839999" style="color-interpolation-filters:sRGB" id="filter3794-6-4">
<feGaussianBlur stdDeviation="5.28" id="feGaussianBlur3796-9-4"/>
</filter>
<filter width="1.3839999" x="-0.192" y="-0.192" height="1.3839999" style="color-interpolation-filters:sRGB" id="filter3794-6-1">
<feGaussianBlur stdDeviation="5.28" id="feGaussianBlur3796-9-7"/>
</filter>
<linearGradient gradientTransform="matrix(1.3444165,0,0,1.3443856,-0.76050029,-0.49691666)" xlink:href="#linearGradient9829" id="linearGradient3067" y1="101.69826" x1="19.199083" y2="-135.94545" gradientUnits="userSpaceOnUse" x2="20.404823"/>
<linearGradient xlink:href="#linearGradient3737-18" id="linearGradient3885" y1="20.220806" x1="48" y2="138.66119" gradientUnits="userSpaceOnUse" x2="48"/>
<linearGradient id="linearGradient3697">
<stop offset="0" style="stop-color:#fff" id="stop3699"/>
<stop offset="1" style="stop-color:#fff;stop-opacity:0" id="stop3701"/>
</linearGradient>
<linearGradient id="linearGradient9811">
<stop offset="0" style="stop-color:#569ce3" id="stop9813"/>
<stop offset="1" style="stop-color:#0a3d77" id="stop9815"/>
</linearGradient>
<linearGradient id="linearGradient9829">
<stop offset="0" style="stop-color:#29557e" id="stop9831"/>
<stop offset="1" style="stop-color:#177bc0" id="stop9833"/>
</linearGradient>
<linearGradient gradientTransform="matrix(-1.4388717,0,0,1.6608003,133.16002,-6.7336128)" xlink:href="#linearGradient3697" id="linearGradient3889" y1="11.108812" x1="129.16827" y2="66.667923" gradientUnits="userSpaceOnUse" x2="6.9054751"/>
<linearGradient id="linearGradient3103" xlink:href="#linearGradient3737-1" y1="20.220806" y2="138.66119" x1="48" x2="48" gradientUnits="userSpaceOnUse"/>
<linearGradient id="linearGradient3737-1">
<stop offset="0" style="stop-color:#fff" id="stop3739-68"/>
<stop offset="1" style="stop-color:#fff;stop-opacity:0" id="stop3741-0"/>
</linearGradient>
<linearGradient id="linearGradient3737-18">
<stop offset="0" style="stop-color:#fff" id="stop3739-5"/>
<stop offset="1" style="stop-color:#fff;stop-opacity:0" id="stop3741-9"/>
</linearGradient>
<radialGradient fx="19.142469" fy="19.001001" cx="19.142469" cy="19.001001" gradientTransform="matrix(2.5736114,0.01684996,-0.01635237,2.4957804,13.765626,13.052654)" xlink:href="#linearGradient9811" id="radialGradient3065" r="45" gradientUnits="userSpaceOnUse"/>
</defs>
<rect width="112.93097" x="8.399765" y="-120.74841" rx="8.0664988" ry="8.0663118" height="112.92838" style="opacity:.763;fill:#090909;stroke:none" id="rect3716" transform="scale(1,-1)"/>
<rect width="112.93097" x="7.852921" y="7.5694141" rx="8.0664988" ry="8.0663118" height="112.92838" style="fill:url(#radialGradient3065);stroke:url(#linearGradient3067);stroke-width:8.066" id="rect2419"/>
<rect width="66" x="15" y="15" rx="12" ry="12" height="66" style="opacity:.1;fill:url(#linearGradient3103);filter:url(#filter3794-6-4);stroke:#fff;stroke-linecap:round;stroke-width:.5;clip-path:url(#clipPath3613-6-4)" id="rect3171" transform="matrix(1.3444165,0,0,1.3576364,-0.26585583,-0.82884733)"/>
<g style="stroke:none" id="g3875">
<path style="opacity:.1" id="path3728" d="m 64.1123,28.716 c -20.6311,0 -37.4523,16.8213 -37.4523,37.4525 3.55271e-15,20.6312 16.8212,37.4525 37.4523,37.4525 20.6311,0 37.4523,-16.8213 37.4523,-37.4525 0,-20.6312 -16.8212,-37.4525 -37.4523,-37.4525 z  m -16.2504,25.7486 c -0.548427,1.90311 -1.03534,3.85491 -1.03534,5.94199 0,12.6773 10.3704,23.0477 23.0476,23.0477 2.08707,0 4.03885,-0.486916 5.94196,-1.03535 -3.31464,2.39217 -7.2885,3.91631 -11.7039,3.91631 -11.1973,0 -20.1666,-8.96935 -20.1666,-20.1667 0,-4.41537 1.52413,-8.38925 3.91629,-11.7039 z "/>
<path style="opacity:.15" id="path3720" d="m 64.1123,30.1565 c -19.861,0 -36.0119,16.1509 -36.0119,36.012 0,19.8611 16.1509,36.012 36.0119,36.012 19.861,0 36.0119,-16.1509 36.0119,-36.012 0,-19.8611 -16.1509,-36.012 -36.0119,-36.012 z  m -11.7489,17.871 c -2.49611,3.51913 -4.09635,7.74321 -4.09635,12.3791 0,11.9055 9.70165,21.6072 21.6071,21.6072 4.6359,0 8.85996,-1.60024 12.3791,-4.09637 -3.85322,5.93371 -10.5303,9.85829 -18.141,9.85829 -11.9611,0 -21.6071,-9.64607 -21.6071,-21.6072 0,-7.61072 3.92457,-14.2878 9.85825,-18.1411 z "/>
<path style="opacity:.3" id="path3712" d="m 64.1123,31.5969 c -19.0932,0 -34.5714,15.4782 -34.5714,34.5716 0,19.0933 15.4781,34.5716 34.5714,34.5716 19.0932,0 34.5714,-15.4782 34.5714,-34.5716 0,-19.0933 -15.4781,-34.5716 -34.5714,-34.5716 z  m -5.7169,12.2441 c -5.24258,3.64184 -8.68786,9.69849 -8.68786,16.5655 0,11.1378 9.02891,20.1667 20.1666,20.1667 6.86701,0 12.9236,-3.4453 16.5655,-8.6879 -2.54857,9.95514 -11.5778,17.3308 -22.3274,17.3308 -12.7288,0 -23.0476,-10.3188 -23.0476,-23.0477 0,-10.7496 7.37562,-19.7789 17.3307,-22.3275 z "/>
<g style="fill:#fff">
<path id="path2928" d="m 64.1123,30.1565 c -19.0932,0 -34.5714,15.4782 -34.5714,34.5716 0,19.0933 15.4781,34.5716 34.5714,34.5716 19.0932,0 34.5714,-15.4782 34.5714,-34.5716 0,-19.0933 -15.4781,-34.5716 -34.5714,-34.5716 z  m -5.7169,12.2441 c -5.24258,3.64184 -8.68786,9.69849 -8.68786,16.5655 0,11.1378 9.02891,20.1667 20.1666,20.1667 6.86701,0 12.9236,-3.4453 16.5655,-8.6879 -2.54857,9.95514 -11.5778,17.3308 -22.3274,17.3308 -12.7288,0 -23.0476,-10.3188 -23.0476,-23.0477 0,-10.7496 7.37562,-19.7789 17.3307,-22.3275 z "/>
<path style="opacity:.75" id="path2921" d="m 64.1123,30.1565 c -19.0932,0 -34.5714,15.4782 -34.5714,34.5716 0,0.238518 -0.0048,0.482874 0,0.720241 0.380053,-18.7638 15.7167,-33.8513 34.5714,-33.8513 18.8547,0 34.1913,15.0875 34.5714,33.8513 0.0048,-0.237367 0,-0.481723 0,-0.720241 0,-19.0933 -15.4781,-34.5716 -34.5714,-34.5716 z  m -5.7169,13.6846 c -0.940116,0.240677 -1.85583,0.548041 -2.7459,0.900301 -3.65151,3.64713 -5.94196,8.65688 -5.94196,14.2248 0,0.212116 0.03852,0.419671 0.04501,0.63021 0.263353,-6.52591 3.61106,-12.2599 8.64285,-15.7553 z  m -17.2857,21.5172 c -0.0096,0.272643 -0.04501,0.535298 -0.04501,0.810271 0,12.7289 10.3188,23.0477 23.0476,23.0477 10.7495,0 19.7788,-7.37565 22.3274,-17.3308 -0.236947,0.341101 -0.508301,0.664902 -0.765252,0.990331 -3.29457,8.70373 -11.7063,14.9 -21.5621,14.9 -12.5145,0 -22.6631,-9.98496 -23.0026,-22.4175 z "/>
</g>
<path style="opacity:.15" id="path3702" d="m 58.3954,40.9601 c -9.95509,2.54858 -17.3307,11.5779 -17.3307,22.3275 0,0.214356 0.03919,0.417258 0.04501,0.63021 0.329286,-9.37929 6.24582,-17.3344 14.5398,-20.6169 0.852021,-0.850996 1.75407,-1.65179 2.7459,-2.34078 z  m -8.6428,17.1957 c -0.01103,0.273379 -0.04501,0.534168 -0.04501,0.810271 0,11.1378 9.02891,20.1667 20.1666,20.1667 6.42022,0 12.1079,-3.02125 15.8002,-7.69757 0.298771,-0.789306 0.55335,-1.60308 0.765252,-2.43081 -3.64182,5.2426 -9.69844,8.6879 -16.5655,8.6879 -10.9256,0 -19.7867,-8.69212 -20.1216,-19.5365 z  m -20.2117,5.852 c -0.0048,0.237367 0,0.481723 0,0.720241 0,19.0933 15.4781,34.5716 34.5714,34.5716 19.0932,0 34.5714,-15.4782 34.5714,-34.5716 0,-0.238518 0.0048,-0.482874 0,-0.720241 -0.380053,18.7638 -15.7167,33.8513 -34.5714,33.8513 -18.8547,0 -34.1913,-15.0875 -34.5714,-33.8513 z "/>
</g>
<rect width="66" x="15" y="15" rx="12" height="66" ry="12" style="opacity:.1;fill:url(#linearGradient3885);filter:url(#filter3794-6-1);stroke:#fff;stroke-linecap:round;stroke-width:.5;clip-path:url(#clipPath3613-6-6)" id="rect3883" transform="matrix(1.3253991,0,0,1.3429116,0.68944933,-0.65725655)"/>
<path style="opacity:.3;fill:url(#linearGradient3889);stroke:none" id="path3887" d="m 113.7161,3.4117 c 4.7828,-0.004 11.115,4.89563 11.0947,10.4161 l -.284,77.2182 c -25.3365,-19.1358 -63.6395,-31.3476 -106.476,-31.3476 -4.8605,0 -9.65776,0.16092 -14.3888,0.4671 v -46.1572 c 0,-5.5205 6.12258,-10.502 10.9054,-10.5064 z "/>
</svg>
