<svg width="128" version="1.0" xmlns="http://www.w3.org/2000/svg" height="128" xmlns:xlink="http://www.w3.org/1999/xlink">
<defs id="defs3451">
<linearGradient gradientTransform="matrix(-1.617016,0,0,1.561649,312.95615,146.30723)" xlink:href="#linearGradient4081-9-4" id="linearGradient4284" y1="66.11824" x1="49" y2="28" gradientUnits="userSpaceOnUse" x2="49"/>
<linearGradient id="linearGradient7111-8-7">
<stop offset="0" style="stop-color:#fff;stop-opacity:.408" id="stop7113-8-4"/>
<stop offset="1" style="stop-color:#fff;stop-opacity:0" id="stop7115-29-4"/>
</linearGradient>
<linearGradient id="linearGradient3144-1">
<stop offset="0" style="stop-color:#6b6b6b" id="stop3146-5"/>
<stop offset="1" style="stop-color:#bbb" id="stop3148-5"/>
</linearGradient>
<linearGradient id="linearGradient4059-3">
<stop offset="0" style="stop-color:#4a4c37" id="stop4061-7"/>
<stop offset="0.31291944" style="stop-color:#2a2c1d" id="stop4063-4"/>
<stop offset="0.66048187" style="stop-color:#090908" id="stop4065-5"/>
<stop offset="1" style="stop-color:#1d240d" id="stop4067-2"/>
</linearGradient>
<linearGradient id="linearGradient4081-9-4">
<stop offset="0" style="stop-color:#aaa" id="stop4083-2-3"/>
<stop offset="1" style="stop-color:#f0f0f0" id="stop4085-0-1"/>
</linearGradient>
<linearGradient xlink:href="#linearGradient3144-1" id="linearGradient4280" y1="412.99112" x1="305.20172" y2="282.73898" gradientUnits="userSpaceOnUse" x2="304.18597"/>
<radialGradient fx="312.78131" fy="386.57211" cx="312.78131" cy="386.57211" gradientTransform="matrix(-0.5932658,-0.5932658,0.7150464,-0.7150486,243.27022,849.03358)" xlink:href="#linearGradient7111-8-7" id="radialGradient4294" r="53.035713" gradientUnits="userSpaceOnUse"/>
<radialGradient fx="274.45349" fy="314.71246" cx="274.45349" cy="314.71246" gradientTransform="matrix(-0.01439041,2.473647,-2.4197774,-0.01407704,1038.9235,-365.2991)" xlink:href="#linearGradient4059-3" id="radialGradient4278" r="53.035713" gradientUnits="userSpaceOnUse"/>
</defs>
<g id="g3478" transform="translate(3.3506355e-4,4.6748059e-4)">
<g style="font-family:Eras Bold ITC;font-size:225.16009521px">
<path style="fill:url(#radialGradient4278);stroke:url(#linearGradient4280);stroke-width:2.693" id="path3197-8" d="m 356.7857,346.1122 c 0,29.2908 -23.7449,53.0357 -53.0357,53.0357 -29.2908,0 -53.0357,-23.7449 -53.0357,-53.0357 0,-29.2908 23.7449,-53.0357 53.0357,-53.0357 29.2908,0 53.0357,23.7449 53.0357,53.0357 z " transform="matrix(1.1145943,0,0,1.1137459,-274.26005,-321.5158)"/>
<path style="opacity:.709;fill:url(#radialGradient4294);stroke:none" id="path3199-6" d="m 356.7857,346.1122 c 0,29.2908 -23.7449,53.0357 -53.0357,53.0357 -29.2908,0 -53.0357,-23.7449 -53.0357,-53.0357 0,-29.2908 23.7449,-53.0357 53.0357,-53.0357 29.2908,0 53.0357,23.7449 53.0357,53.0357 z " transform="matrix(1.093889,0,0,1.0905669,-268.3427,-313.73311)"/>
</g>
<g style="stroke:none" id="g3527" transform="matrix(1.2106714,0,0,1.2047813,-220.37403,-200.0137)">
<path style="opacity:.1" id="path3710" d="m 228.5176,185.2509 c -2.18137,0.19677 -3.35414,2.41698 -3.0319,4.36115 0,1.21411 0,5.55151 0,6.7656 -0.89531,-2.09421 -3.84834,-2.50479 -5.58957,-1.1128 -11.4729,5.82543 -18.5031,18.7234 -16.8361,31.1578 1.35349,12.7476 11.6533,23.9823 24.5652,26.8887 11.9645,2.97427 25.3908,-1.46254 33.0176,-10.8349 8.25887,-9.62919 9.54641,-24.1507 3.03014,-34.9717 -3.34716,-5.64803 -8.50316,-10.5052 -14.7405,-13.0303 -1.51047,-0.28577 -3.12204,0.52954 -3.73935,1.90326 -0.14973,-2.07636 0.36561,-7.38791 -0.40425,-9.3699 -1.35456,-2.4139 -4.42881,-1.62502 -6.74852,-1.75685 -3.17424,0 -6.34847,0 -9.52271,0 z  m -3.0319,25.0352 c 0.0792,2.40532 -0.17184,4.83595 0.15151,7.22263 0.6334,2.17275 3.12586,2.52825 5.11762,2.34247 3.90082,-0.0618 7.82152,0.12572 11.7095,-0.0976 2.34242,-0.36619 2.97888,-2.85129 2.72871,-4.80927 0,-1.55275 0,-3.10548 0,-4.65823 1.13988,1.86189 3.22541,3.07662 4.15863,5.12177 4.23043,6.90863 1.51027,16.675 -5.68538,20.6611 -6.87179,4.20086 -16.8375,2.26034 -21.4032,-4.26586 -4.68431,-6.11218 -3.64034,-15.4829 2.41403,-20.3946 0.33817,-0.31302 0.61568,-0.71449 0.80851,-1.12244 z "/>
<path style="opacity:.15" id="path3705" d="m 228.5176,186.8613 c -0.7738,0.1625 -1.37575,0.89456 -1.36435,1.65925 v 28.0609 c 0.008,0.86678 0.82058,1.65197 1.71808,1.65925 h 12.9361 c 0.89751,-0.008 1.71055,-0.79247 1.71808,-1.65925 v -28.0609 c -0.008,-0.86676 -0.82057,-1.65197 -1.71808,-1.65925 h -12.9361 c -0.11756,-0.0109 -0.23622,-0.0109 -0.35373,0 z  m -6.3165,9.1747 c -0.19199,0.0184 -0.38073,0.0682 -0.55585,0.14632 -10.1358,4.87659 -17.1303,14.9836 -17.1303,26.6456 0,16.4218 13.8203,29.7689 30.8244,29.7689 17.0041,0 30.8244,-13.3471 30.8244,-29.7689 0,-11.662 -6.9945,-21.769 -17.1303,-26.6456 -1.05124,-0.48219 -2.47697,0.38892 -2.47606,1.51285 v 11.2731 c -0.0113,0.47318 0.19601,0.9475 0.55585,1.26884 3.61453,3.12033 5.91221,7.54586 5.91221,12.5908 0,9.44544 -7.90578,17.0805 -17.6861,17.0805 -9.78031,0 -17.6861,-7.63509 -17.6861,-17.0805 0,-5.04494 2.2977,-9.47047 5.91221,-12.5908 0.35985,-0.32134 0.56764,-0.79566 0.55585,-1.26884 v -11.2731 c -0.002,-0.93522 -0.9575,-1.76046 -1.9202,-1.65925 z "/>
<path style="opacity:.3" id="path2927" d="m 206.2331,222.828 c 0,15.5165 13.0396,28.1097 29.1063,28.1097 16.0667,0 29.1063,-12.5931 29.1063,-28.1097 0,-11.0164 -6.60237,-20.5295 -16.1702,-25.1328 v 11.2731 c 3.95794,3.41678 6.46806,8.32604 6.46806,13.8596 0,10.3497 -8.68755,18.7398 -19.4042,18.7398 -10.7166,0 -19.4042,-8.39008 -19.4042,-18.7398 0,-5.5336 2.51014,-10.4429 6.46806,-13.8596 v -11.2731 c -9.56777,4.60332 -16.1702,14.1164 -16.1702,25.1328 z  m 22.6382,-31.1842 0,24.9376 12.9361,0 0,-24.9376 6.4681,0 -19.4042,0 z "/>
<path style="fill:url(#linearGradient4284)" id="path3697" d="m 206.2331,221.2664 c 0,15.5165 13.0396,28.1097 29.1063,28.1097 16.0667,0 29.1063,-12.5931 29.1063,-28.1097 0,-11.0164 -6.60237,-20.5295 -16.1702,-25.1328 v 11.2731 c 3.95794,3.41678 6.46806,8.32604 6.46806,13.8596 0,10.3497 -8.68755,18.7398 -19.4042,18.7398 -10.7166,0 -19.4042,-8.39008 -19.4042,-18.7398 0,-5.5336 2.51014,-10.4429 6.46806,-13.8596 v -11.2731 c -9.56777,4.60332 -16.1702,14.1164 -16.1702,25.1328 z  m 22.6382,-34.3075 0,28.0609 12.9361,0 0,-28.0609 -12.9361,0 z "/>
<path style="fill:#fff" id="path2922" d="m 228.8713,186.9589 0,1.5616 12.9361,0 0,-1.5616 -12.9361,0 z  m -6.4681,9.1747 c -9.56777,4.60332 -16.1702,14.1164 -16.1702,25.1328 0,0.24675 0.044,0.48679 0.0504,0.73202 0.3235,-10.6612 6.79404,-19.8164 16.1196,-24.3032 v -1.56165 z  m 25.8723,0 0,1.5616 c 9.32561,4.4868 15.7961,13.6419 16.1196,24.3032 0.006,-0.24523 0.0504,-0.48527 0.0504,-0.73202 0,-11.0164 -6.60238,-20.5295 -16.1702,-25.1328 z  m -32.2898,25.8648 c -0.0129,0.27682 -0.0504,0.54951 -0.0504,0.82963 0,10.3497 8.68756,18.7398 19.4042,18.7398 10.7166,0 19.4042,-8.39008 19.4042,-18.7398 0,-0.28012 -0.0378,-0.55281 -0.0505,-0.82963 -0.40417,10.0051 -8.89483,18.0078 -19.3537,18.0078 -10.4588,0 -18.9495,-8.0027 -19.3537,-18.0078 z "/>
</g>
</g>
</svg>
