<svg width="128" version="1.0" xmlns="http://www.w3.org/2000/svg" height="128" xmlns:xlink="http://www.w3.org/1999/xlink">
<defs id="defs3451">
<linearGradient gradientTransform="matrix(0,-1,-1,0,-155.40823,230.32203)" xlink:href="#linearGradient4081-61" id="linearGradient5221" y1="51.954468" x1="29.826593" y2="51.954468" gradientUnits="userSpaceOnUse" x2="65.693901"/>
<linearGradient id="linearGradient7111-8-7">
<stop offset="0" style="stop-color:#fff;stop-opacity:.408" id="stop7113-8-4"/>
<stop offset="1" style="stop-color:#fff;stop-opacity:0" id="stop7115-29-4"/>
</linearGradient>
<linearGradient id="linearGradient3144-1">
<stop offset="0" style="stop-color:#6b6b6b" id="stop3146-5"/>
<stop offset="1" style="stop-color:#bbb" id="stop3148-5"/>
</linearGradient>
<linearGradient id="linearGradient4059-3">
<stop offset="0" style="stop-color:#4a4c37" id="stop4061-7"/>
<stop offset="0.31291944" style="stop-color:#2a2c1d" id="stop4063-4"/>
<stop offset="0.66048187" style="stop-color:#090908" id="stop4065-5"/>
<stop offset="1" style="stop-color:#1d240d" id="stop4067-2"/>
</linearGradient>
<linearGradient id="linearGradient4081-61">
<stop offset="0" style="stop-color:#aaa" id="stop4083-55"/>
<stop offset="1" style="stop-color:#f0f0f0" id="stop4085-4"/>
</linearGradient>
<linearGradient xlink:href="#linearGradient3144-1" id="linearGradient4280" y1="412.99112" x1="305.20172" y2="282.73898" gradientUnits="userSpaceOnUse" x2="304.18597"/>
<radialGradient fx="312.78131" fy="386.57211" cx="312.78131" cy="386.57211" gradientTransform="matrix(-0.5932658,-0.5932658,0.7150464,-0.7150486,243.27022,849.03358)" xlink:href="#linearGradient7111-8-7" id="radialGradient4294" r="53.035713" gradientUnits="userSpaceOnUse"/>
<radialGradient fx="274.45349" fy="314.71246" cx="274.45349" cy="314.71246" gradientTransform="matrix(-0.01439041,2.473647,-2.4197774,-0.01407704,1038.9235,-365.2991)" xlink:href="#linearGradient4059-3" id="radialGradient4278" r="53.035713" gradientUnits="userSpaceOnUse"/>
</defs>
<g id="g3465" transform="matrix(1.5926152,-0.02712658,0.03198571,1.6166233,498.38833,-61.067161)">
<g style="font-family:Eras Bold ITC;font-size:225.16009521px">
<path style="fill:url(#radialGradient4278);stroke:url(#linearGradient4280);stroke-width:2.693" id="path3197-8" d="m 356.7857,346.1122 c 0,29.2908 -23.7449,53.0357 -53.0357,53.0357 -29.2908,0 -53.0357,-23.7449 -53.0357,-53.0357 0,-29.2908 23.7449,-53.0357 53.0357,-53.0357 29.2908,0 53.0357,23.7449 53.0357,53.0357 z " transform="matrix(0.69961583,0.0117394,-0.01383172,0.68870138,-481.74624,-169.18988)"/>
<path style="opacity:.709;fill:url(#radialGradient4294);stroke:none" id="path3199-6" d="m 356.7857,346.1122 c 0,29.2908 -23.7449,53.0357 -53.0357,53.0357 -29.2908,0 -53.0357,-23.7449 -53.0357,-53.0357 0,-29.2908 23.7449,-53.0357 53.0357,-53.0357 29.2908,0 53.0357,23.7449 53.0357,53.0357 z " transform="matrix(0.68661939,0.01152132,-0.01354385,0.6743683,-478.12866,-164.31501)"/>
</g>
<g style="stroke:none" id="g3503" transform="matrix(1.1298851,-1.1277036e-4,-1.3497518e-4,1.1366035,-44.332342,-133.83799)">
<path style="opacity:.1" id="path3727" d="m -203.40823,163.35328 c -11.01346,0 -19.96875,8.95529 -19.96875,19.96875 0,11.01347 8.95529,19.96875 19.96875,19.96875 7.82096,0 14.602,-4.49263 17.875,-11.0625 0.003,-0.006 0.0284,-0.11841 0.0312,-0.125 0.003,-0.007 0.0601,-0.11825 0.0625,-0.125 0.002,-0.007 0.0293,-0.0869 0.0312,-0.0937 0.002,-0.007 0.0297,-0.118 0.0312,-0.125 0.009,0.0339 0.0294,0.11896 0.0312,0.125 0.002,0.007 0.0598,0.1177 0.0625,0.125 0.003,0.007 0.028,0.1179 0.0312,0.125 0.003,0.007 0.0588,0.11815 0.0625,0.125 0.004,0.007 0.0896,0.11842 0.0937,0.125 0.004,0.007 0.0579,0.0875 0.0625,0.0937 0.005,0.006 0.0887,0.11906 0.0937,0.125 0.005,0.006 0.0883,0.0882 0.0937,0.0937 0.006,0.006 0.0879,0.0886 0.0937,0.0937 0.006,0.005 0.0876,0.089 0.0937,0.0937 0.006,0.005 0.11851,0.0582 0.125,0.0625 0.007,0.004 0.11823,0.0899 0.125,0.0937 0.007,0.004 0.11798,0.0591 0.125,0.0625 0.007,0.003 0.11776,0.0596 0.125,0.0625 0.007,0.003 0.11757,0.0289 0.125,0.0312 0.007,0.002 0.11743,0.0294 0.125,0.0312 0.008,0.002 0.11731,0.0299 0.125,0.0312 0.008,0.001 0.14849,0.0304 0.15625,0.0312 0.008,8.2e-4 0.1172,-2.7e-4 0.125,0 0.008,2.8e-4 0.1172,2.7e-4 0.125,0 0.008,-2.6e-4 0.14849,8.1e-4 0.15625,0 0.008,-8e-4 0.11731,-0.0299 0.125,-0.0312 0.008,-10e-4 0.11742,-0.0294 0.125,-0.0312 0.008,-0.002 0.14882,-0.0289 0.15625,-0.0312 0.007,-0.002 0.11775,-0.0284 0.125,-0.0312 0.007,-0.003 0.11797,-0.0591 0.125,-0.0625 0.007,-0.003 0.11822,-0.0586 0.125,-0.0625 0.007,-0.004 0.11851,-0.0894 0.125,-0.0937 0.007,-0.004 0.0876,-0.0577 0.0937,-0.0625 a 0.82586577,0.82586577 0 0 0 0.0312,0 l 10,-8.03125 c 0.005,-0.004 0.0578,-0.0895 0.0625,-0.0937 0.005,-0.004 0.0893,-0.058 0.0937,-0.0625 0.004,-0.005 0.0583,-0.089 0.0625,-0.0937 0.004,-0.005 0.0899,-0.0888 0.0937,-0.0937 0.004,-0.005 0.0589,-0.0574 0.0625,-0.0625 0.004,-0.005 0.0592,-0.0884 0.0625,-0.0937 0.003,-0.005 0.0282,-0.0882 0.0312,-0.0937 0.003,-0.006 0.0598,-0.11932 0.0625,-0.125 0.003,-0.006 0.0601,-0.0879 0.0625,-0.0937 0.002,-0.006 0.0292,-0.0878 0.0312,-0.0937 0.002,-0.006 0.0295,-0.0877 0.0312,-0.0937 0.002,-0.006 0.0299,-0.11886 0.0312,-0.125 0.001,-0.006 -0.001,-0.0876 0,-0.0937 0.001,-0.006 0.0306,-0.11874 0.0312,-0.125 7e-4,-0.006 -3.5e-4,-0.0875 0,-0.0937 3.5e-4,-0.006 0,-0.11871 0,-0.125 0,-0.006 3.5e-4,-0.11872 0,-0.125 -3.5e-4,-0.006 7e-4,-0.0875 0,-0.0937 -7e-4,-0.006 -0.0302,-0.11879 -0.0312,-0.125 -0.001,-0.006 0.001,-0.0876 0,-0.0937 -0.001,-0.006 -0.0295,-0.11895 -0.0312,-0.125 -0.002,-0.006 -0.0292,-0.0878 -0.0312,-0.0937 -0.002,-0.006 -0.0289,-0.0879 -0.0312,-0.0937 -0.002,-0.006 -0.0598,-0.0881 -0.0625,-0.0937 -0.003,-0.006 -0.0595,-0.11948 -0.0625,-0.125 -0.003,-0.006 -0.0279,-0.0884 -0.0312,-0.0937 -0.003,-0.005 -0.0589,-0.0886 -0.0625,-0.0937 -0.004,-0.005 -0.0586,-0.0576 -0.0625,-0.0625 -0.004,-0.005 -0.0896,-0.089 -0.0937,-0.0937 -0.004,-0.005 -0.0581,-0.0893 -0.0625,-0.0937 -0.004,-0.005 -0.0891,-0.0583 -0.0937,-0.0625 -0.005,-0.004 -0.0576,-0.0898 -0.0625,-0.0937 a 0.82586577,0.82586577 0 0 0 -0.0312,0 l -9.96875,-7.96875 c -0.001,-0.001 -0.0216,0.007 -0.0312,0 -0.0224,-0.0173 -0.0593,-0.0289 -0.0625,-0.0312 -0.005,-0.003 -0.089,-0.0594 -0.0937,-0.0625 -0.005,-0.003 -0.0576,-0.0596 -0.0625,-0.0625 -0.005,-0.003 -0.0887,-0.0599 -0.0937,-0.0625 -0.005,-0.003 -0.0886,-0.0289 -0.0937,-0.0312 -0.005,-0.002 -0.0885,-0.0292 -0.0937,-0.0312 -0.005,-0.002 -0.0884,-0.0294 -0.0937,-0.0312 -0.005,-0.002 -0.0883,-0.0297 -0.0937,-0.0312 -0.005,-0.002 -0.0882,-0.03 -0.0937,-0.0312 -0.005,-0.001 -0.0882,-0.0303 -0.0937,-0.0312 -0.006,-0.001 -0.0881,7.2e-4 -0.0937,0 -0.006,-7.2e-4 -0.0881,-0.0308 -0.0937,-0.0312 -0.006,-4.4e-4 -0.11934,1.6e-4 -0.125,0 -0.006,-1.5e-4 -0.0881,-1.3e-4 -0.0937,0 -0.006,1.3e-4 -0.0881,-4.1e-4 -0.0937,0 -0.006,4.2e-4 -0.0881,0.0305 -0.0937,0.0312 a 0.82586577,0.82586577 0 0 0 -0.0312,0 c -0.01,0.001 -0.14641,0.0289 -0.15625,0.0312 -0.01,0.002 -0.17791,0.0281 -0.1875,0.0312 -0.01,0.003 -0.14698,0.0585 -0.15625,0.0625 -0.009,0.004 -0.14738,0.0889 -0.15625,0.0937 -0.009,0.005 -0.14785,0.0881 -0.15625,0.0937 -0.008,0.006 -0.14838,0.0874 -0.15625,0.0937 -0.008,0.006 -0.11773,0.11799 -0.125,0.125 -0.007,0.007 -0.11839,0.11736 -0.125,0.125 -0.007,0.008 -0.0879,0.14805 -0.0937,0.15625 -0.006,0.008 -0.11986,0.11631 -0.125,0.125 -0.005,0.009 -0.0582,0.17838 -0.0625,0.1875 -0.004,0.009 -0.059,0.14678 -0.0625,0.15625 -0.004,0.009 -0.0598,0.14651 -0.0625,0.15625 -0.001,0.005 -0.0218,0.0517 -0.0312,0.0937 -0.001,-0.007 -0.0293,-0.11811 -0.0312,-0.125 -0.002,-0.007 -0.0289,-0.087 -0.0312,-0.0937 -0.002,-0.007 -0.0597,-0.11841 -0.0625,-0.125 -0.003,-0.007 -0.028,-0.1186 -0.0312,-0.125 -3.273,-6.56986 -10.05404,-11.0625 -17.875,-11.0625 z m 0,9.9375 c 2.96146,0 5.5365,1.31823 7.375,3.375 a 0.82586577,0.82586577 0 0 0 0.0312,0 c 0.004,0.004 0.0583,0.0583 0.0625,0.0625 0.004,0.004 0.058,0.0898 0.0625,0.0937 0.005,0.004 0.0891,0.0588 0.0937,0.0625 0.005,0.004 0.0889,0.0591 0.0937,0.0625 0.005,0.003 0.0575,0.0593 0.0625,0.0625 0.005,0.003 0.0886,0.0283 0.0937,0.0312 0.005,0.003 0.0884,0.0599 0.0937,0.0625 0.005,0.003 0.0883,0.0289 0.0937,0.0312 0.006,0.002 0.0882,0.0604 0.0937,0.0625 0.006,0.002 0.11933,0.0295 0.125,0.0312 0.006,0.002 0.088,-0.002 0.0937,0 0.006,0.001 0.0879,0.0301 0.0937,0.0312 0.006,0.001 0.0879,0.0304 0.0937,0.0312 0.006,8.4e-4 0.11909,-5.2e-4 0.125,0 0.006,5.3e-4 0.0878,-2.1e-4 0.0937,0 0.006,2.2e-4 0.0878,1e-4 0.0937,0 l 7.21875,0 c 0.007,-5e-5 0.11787,5.1e-4 0.125,0 0.007,-5e-4 0.11791,9.6e-4 0.125,0 0.007,-9.6e-4 0.11799,-0.0298 0.125,-0.0312 0.007,-10e-4 0.11809,-0.0294 0.125,-0.0312 0.007,-0.002 0.11822,-0.029 0.125,-0.0312 0.007,-0.002 0.11838,-0.0285 0.125,-0.0312 0.007,-0.003 0.11857,-0.0594 0.125,-0.0625 0.006,-0.003 0.0875,-0.059 0.0937,-0.0625 0.006,-0.004 0.11901,-0.0586 0.125,-0.0625 0.006,-0.004 0.088,-0.0582 0.0937,-0.0625 0.006,-0.004 0.0883,-0.0891 0.0937,-0.0937 0.005,-0.005 0.0886,-0.0575 0.0937,-0.0625 0.005,-0.005 0.0889,-0.0885 0.0937,-0.0937 0.005,-0.005 0.058,-0.0882 0.0625,-0.0937 0.005,-0.006 0.0896,-0.11914 0.0937,-0.125 0.004,-0.006 0.0588,-0.0877 0.0625,-0.0937 0.004,-0.006 0.0592,-0.11867 0.0625,-0.125 0.003,-0.006 0.0596,-0.0872 0.0625,-0.0937 0.003,-0.007 0.0287,-0.1183 0.0312,-0.125 0.002,-0.007 0.0604,-0.11815 0.0625,-0.125 l 0,1.46875 -14,0 c -0.005,4e-5 -0.0883,-3e-4 -0.0937,0 -0.005,3.1e-4 -0.0883,-5.7e-4 -0.0937,0 -0.005,5.7e-4 -0.0883,-8.3e-4 -0.0937,0 -0.005,8.4e-4 -0.0884,0.0301 -0.0937,0.0312 -0.005,0.001 -0.11968,0.0299 -0.125,0.0312 -0.005,0.001 -0.0573,-0.002 -0.0625,0 -0.005,0.002 -0.0886,0.0294 -0.0937,0.0312 -0.005,0.002 -0.0887,0.0604 -0.0937,0.0625 -0.005,0.002 -0.0888,0.0289 -0.0937,0.0312 -0.005,0.002 -0.0889,0.0286 -0.0937,0.0312 -0.005,0.003 -0.089,0.0597 -0.0937,0.0625 -0.005,0.003 -0.0579,0.0282 -0.0625,0.0312 -0.005,0.003 -0.0893,0.0592 -0.0937,0.0625 -0.004,0.003 -0.0583,0.059 -0.0625,0.0625 -0.004,0.003 -0.0897,0.0588 -0.0937,0.0625 -0.004,0.004 -0.0586,0.0586 -0.0625,0.0625 -0.004,0.004 -0.0588,0.0584 -0.0625,0.0625 -0.004,0.004 -0.059,0.0895 -0.0625,0.0937 -0.004,0.004 -0.0592,0.0581 -0.0625,0.0625 -0.003,0.004 -0.0594,0.0892 -0.0625,0.0937 -0.003,0.005 -0.0284,0.0578 -0.0312,0.0625 -0.003,0.005 -0.0599,0.0889 -0.0625,0.0937 -0.003,0.005 -0.0289,0.0888 -0.0312,0.0937 -0.002,0.005 -0.0291,0.0887 -0.0312,0.0937 -0.002,0.005 -0.0606,0.0886 -0.0625,0.0937 -0.002,0.005 -0.0296,0.0885 -0.0312,0.0937 -0.002,0.005 0.001,0.0572 0,0.0625 -10e-4,0.005 -0.0301,0.11962 -0.0312,0.125 -0.001,0.005 -0.0304,0.0883 -0.0312,0.0937 -8.3e-4,0.005 5.7e-4,0.0883 0,0.0937 -5.7e-4,0.005 3.1e-4,0.0883 0,0.0937 -3e-4,0.005 4e-5,0.0883 0,0.0937 l 0,8 c 4e-5,0.005 -3e-4,0.0883 0,0.0937 3.1e-4,0.005 -5.7e-4,0.0883 0,0.0937 5.7e-4,0.005 -8.3e-4,0.0883 0,0.0937 8.4e-4,0.005 0.0301,0.0884 0.0312,0.0937 0.001,0.005 0.0299,0.11968 0.0312,0.125 0.001,0.005 -0.002,0.0572 0,0.0625 0.002,0.005 0.0294,0.0886 0.0312,0.0937 0.002,0.005 0.0604,0.0887 0.0625,0.0937 0.002,0.005 0.0289,0.0888 0.0312,0.0937 0.002,0.005 0.0286,0.0889 0.0312,0.0937 0.003,0.005 0.0597,0.089 0.0625,0.0937 0.003,0.005 0.0282,0.0579 0.0312,0.0625 0.003,0.005 0.0592,0.0893 0.0625,0.0937 0.003,0.004 0.059,0.0583 0.0625,0.0625 0.004,0.004 0.0588,0.0897 0.0625,0.0937 0.004,0.004 0.0586,0.0586 0.0625,0.0625 0.004,0.004 0.0584,0.0588 0.0625,0.0625 0.004,0.004 0.0895,0.059 0.0937,0.0625 0.004,0.003 0.0581,0.0592 0.0625,0.0625 0.004,0.003 0.0892,0.0594 0.0937,0.0625 0.005,0.003 0.0578,0.0284 0.0625,0.0312 0.005,0.003 0.0889,0.0599 0.0937,0.0625 0.005,0.003 0.0888,0.0289 0.0937,0.0312 0.005,0.002 0.0887,0.0291 0.0937,0.0312 0.005,0.002 0.0886,0.0606 0.0937,0.0625 0.005,0.002 0.0885,0.0296 0.0937,0.0312 0.005,0.002 0.0572,-0.001 0.0625,0 0.005,0.001 0.11962,0.0301 0.125,0.0312 0.005,0.001 0.0883,0.0304 0.0937,0.0312 0.005,8.4e-4 0.0883,-5.7e-4 0.0937,0 0.006,5.7e-4 0.0883,-3e-4 0.0937,0 0.006,3.1e-4 0.0883,-3e-5 0.0937,0 l 14,0 0,1.46875 c -0.002,-0.007 -0.06,-0.1183 -0.0625,-0.125 -0.002,-0.007 -0.0283,-0.11847 -0.0312,-0.125 -0.003,-0.007 -0.0592,-0.0874 -0.0625,-0.0937 -0.003,-0.006 -0.0588,-0.11889 -0.0625,-0.125 -0.004,-0.006 -0.0584,-0.0879 -0.0625,-0.0937 -0.004,-0.006 -0.0893,-0.11941 -0.0937,-0.125 -0.005,-0.006 -0.0577,-0.0885 -0.0625,-0.0937 -0.005,-0.005 -0.0886,-0.0888 -0.0937,-0.0937 -0.005,-0.005 -0.0883,-0.0579 -0.0937,-0.0625 -0.005,-0.005 -0.088,-0.0895 -0.0937,-0.0937 -0.006,-0.004 -0.0878,-0.0586 -0.0937,-0.0625 -0.006,-0.004 -0.11877,-0.059 -0.125,-0.0625 -0.006,-0.004 -0.0873,-0.0594 -0.0937,-0.0625 -0.006,-0.003 -0.11837,-0.0598 -0.125,-0.0625 -0.007,-0.003 -0.11822,-0.029 -0.125,-0.0312 -0.007,-0.002 -0.11808,-0.0294 -0.125,-0.0312 -0.007,-0.002 -0.11798,-0.0298 -0.125,-0.0312 -0.007,-10e-4 -0.11791,-0.0303 -0.125,-0.0312 -0.007,-9.6e-4 -0.11786,5.1e-4 -0.125,0 -0.007,-5e-4 -0.11784,6e-5 -0.125,0 l -7.21875,0 c -0.006,-9e-5 -0.0878,-2.1e-4 -0.0937,0 -0.006,2.2e-4 -0.0878,-5.2e-4 -0.0937,0 -0.006,5.3e-4 -0.11912,-8.4e-4 -0.125,0 -0.006,8.4e-4 -0.0879,0.0301 -0.0937,0.0312 -0.006,0.001 -0.088,0.0298 -0.0937,0.0312 -0.006,0.001 -0.0881,-0.002 -0.0937,0 -0.006,0.002 -0.11942,0.0292 -0.125,0.0312 -0.006,0.002 -0.0883,0.0602 -0.0937,0.0625 -0.005,0.002 -0.0884,0.0286 -0.0937,0.0312 -0.005,0.003 -0.0886,0.0596 -0.0937,0.0625 -0.005,0.003 -0.0887,0.0281 -0.0937,0.0312 -0.005,0.003 -0.0576,0.0591 -0.0625,0.0625 -0.005,0.003 -0.0891,0.0588 -0.0937,0.0625 -0.005,0.004 -0.0893,0.0586 -0.0937,0.0625 -0.005,0.004 -0.0582,0.0896 -0.0625,0.0937 -0.004,0.004 -0.0585,0.0581 -0.0625,0.0625 a 0.82586577,0.82586577 0 0 0 -0.0312,0 c -1.8385,2.05677 -4.41354,3.375 -7.375,3.375 -5.55354,0 -10.03125,-4.4777 -10.03125,-10.03125 0,-5.55354 4.47771,-10.03125 10.03125,-10.03125 z"/>
<path style="opacity:.15" id="path3723" d="m -203.4082,164.1658 c -10.5659,0 -19.1562,8.59038 -19.1562,19.1562 0,10.5659 8.59038,19.1562 19.1562,19.1562 7.50354,0 13.9871,-4.32641 17.125,-10.625 a 1.16426,1.16426 0 0,0 -1.03125,-1.6875 h -7.21875 a 1.16426,1.16426 0 0,0 -0.875,0.375 c -1.98166,2.21693 -4.79656,3.625 -8,3.625 -5.99826,0 -10.8438,-4.84548 -10.8438,-10.8438 0,-5.99826 4.84549,-10.8438 10.8438,-10.8438 3.20344,0 6.01834,1.40808 8,3.625 a 1.16426,1.16426 0 0,0 0.875,0.375 h 7.21875 a 1.16426,1.16426 0 0,0 1.03125,-1.6875 c -3.13785,-6.29858 -9.62146,-10.625 -17.125,-10.625 z  m 19.8125,10 a 1.16426,1.16426 0 0,0 -1,1.15625 v 2.84375 h -14.8125 a 1.16426,1.16426 0 0,0 -1.15625,1.15625 v 8 a 1.16426,1.16426 0 0,0 1.15625,1.15625 h 14.8125 v 2.84375 a 1.16426,1.16426 0 0,0 1.875,0.90625 l 10,-8.0312 a 1.16426,1.16426 0 0,0 0,-1.8125 l -10,-7.9688 a 1.16426,1.16426 0 0,0 -0.875,-0.25 z "/>
<path style="opacity:.3" id="path3717" d="m -203.4082,165.322 c -9.936,0 -18,8.064 -18,18 0,9.936 8.064,18 18,18 7.05433,0 13.146,-4.08307 16.0938,-10 h -7.21875 c -2.18793,2.44768 -5.33156,4 -8.875,4 -6.62741,0 -12,-5.37258 -12,-12 0,-6.62741 5.37259,-12 12,-12 3.54344,0 6.68707,1.55233 8.875,4 h 7.21875 c -2.94772,-5.91693 -9.03942,-10 -16.0938,-10 z  m 19.9688,10 0,4 -15.9688,0 0,8 15.9688,0 0,4 10,-8.0312 -10,-7.9688 z "/>
<path style="fill:url(#linearGradient5221)" id="path3697-7" d="m -203.4082,164.322 c -9.936,0 -18,8.064 -18,18 0,9.936 8.064,18 18,18 7.05433,0 13.146,-4.08307 16.0938,-10 h -7.21875 c -2.18793,2.44768 -5.33156,4 -8.875,4 -6.62741,0 -12,-5.37258 -12,-12 0,-6.62741 5.37259,-12 12,-12 3.54344,0 6.68707,1.55233 8.875,4 h 7.21875 c -2.94772,-5.91693 -9.03942,-10 -16.0938,-10 z  m 19.9688,10 0,4 -15.9688,0 0,8 15.9688,0 0,4 10,-8.0312 -10,-7.9688 z "/>
<path style="fill:#fff" id="path3708" d="m -203.4082,164.322 c -9.936,0 -18,8.064 -18,18 0,0.16851 0.0266,0.3326 0.0312,0.5 0.26713,-9.70332 8.20126,-17.5 17.9688,-17.5 6.65319,0 12.4518,3.6231 15.5625,9 h 0.53125 c -2.94772,-5.91693 -9.03942,-10 -16.0938,-10 z  m 19.9688,10 0,1 9.375,7.4688 .625,-.5 -10,-7.9688 z  m -15.9688,4 0,1 15.9688,0 0,-1 -15.9688,0 z  m -15.9688,4.5 c -0.007,0.16831 -0.0312,0.32997 -0.0312,0.5 0,6.62742 5.37259,12 12,12 3.54344,0 6.68707,-1.55232 8.875,-4 h 6.6875 c 0.18756,-0.32419 0.36363,-0.66353 0.53125,-1 h -7.21875 c -2.18793,2.44768 -5.33156,4 -8.875,4 -6.45738,0 -11.7028,-5.10799 -11.9688,-11.5 z "/>
</g>
</g>
</svg>
