<svg xmlns="http://www.w3.org/2000/svg" viewBox="0 0 128 128" xmlns:xlink="http://www.w3.org/1999/xlink">
<defs>
<linearGradient id="linearGradient4081-11">
<stop offset="0" stop-color="#aaa"/>
<stop offset="1" stop-color="#f0f0f0"/>
</linearGradient>
<linearGradient id="linearGradient9647">
<stop offset="0" stop-color="#151414"/>
<stop offset="1" stop-color="#5c5a5a"/>
</linearGradient>
<linearGradient xlink:href="#linearGradient4081-11" id="linearGradient3063" y1="74" y2="21.914" gradientUnits="userSpaceOnUse" x2="0"/>
<linearGradient gradientTransform="matrix(1.00956 0 0 1.00567 17.09537 17.59809)" xlink:href="#linearGradient9647" id="linearGradient3550" y1="102.102" x1="48.246" y2="-21.966" gradientUnits="userSpaceOnUse" x2="17"/>
<radialGradient cx="128.619" cy="-5.046" gradientTransform="matrix(.0004 2.20813 -2.76706 .00046 17.16272 -249.92558)" id="radialGradient3548" r="45" gradientUnits="userSpaceOnUse">
<stop offset="0" stop-color="#4a4c37"/>
<stop offset=".313" stop-color="#2a2c1d"/>
<stop offset=".66" stop-color="#090908"/>
<stop offset="1" stop-color="#1d240d"/>
</radialGradient>
<radialGradient cx="119.332" cy="123.77" gradientTransform="matrix(1.50021 -1.35746 1.42752 1.58174 -219.66225 108.68612)" id="radialGradient3550" r="42.607" gradientUnits="userSpaceOnUse">
<stop offset="0" stop-color="#0d0e09"/>
<stop offset="1" stop-color="#abaeab" stop-opacity="0"/>
</radialGradient>
</defs>
<g transform="matrix(1.33174 0 0 1.33683 -23.73497 -23.82351)">
<path opacity=".763" fill="#090909" d="m30.0314-108.296h72.6876a6.0573,6.034 0 0,1 6.058,6.034v72.4083a6.0573,6.034 0 0,1 -6.058,6.0341h-72.6876a6.0573,6.034 0 0,1 -6.0574-6.0341v-72.4083a6.0573,6.034 0 0,1 6.0574-6.034" transform="scale(1 -1)"/>
<path fill="url(#radialGradient3548)" stroke="url(#linearGradient3550)" stroke-width="6.046" d="m29.6207,23.6321h72.6883a6.0573,6.034 0 0,1 6.057,6.0341v72.4088a6.0573,6.034 0 0,1 -6.057,6.034h-72.6883a6.0573,6.034 0 0,1 -6.0573-6.034v-72.4088a6.0573,6.034 0 0,1 6.0573-6.0341"/>
</g>
<g color="#000" transform="matrix(1.50804 0 0 1.53225 -8.57204 -8.90187)">
<path opacity=".1" d="m30.5938,21c-3.8468-.106-7.0259,3.6276-6.5938,7.3938 .0226,14.2083-.0452,28.4195 .034,42.626 .2704,3.64 3.8624,6.4184 7.4448,5.9802 11.5336-.0229 23.0702,.0459 34.6019-.0347 3.6511-.2894 6.3466-3.9402 5.9193-7.5067-.0226-14.1591 .0452-28.3211-.034-42.4785-.2704-3.64-3.8624-6.4184-7.4448-5.9802-11.3091,0-22.6183,0-33.9274,0zm3.4062,10c9.3333,0 18.6667,0 28,0 0,1.2708 0,2.5417 0,3.8125-.0967-1.4201-1.627-2.0535-2.8851-1.8125-7.83,0-15.6599,0-23.4899,0-.8675,.1674-1.5873,.9464-1.625,1.8438 0-1.2812 0-2.5625 0-3.8438zm0,8.1875c.0797,.9184 .8188,1.6637 1.7188,1.8125-.9103,.0941-1.6794,.9233-1.7188,1.8438 0-1.2188 0-2.4375 0-3.6562zm28,0c0,1.2083 0,2.4167 0,3.625-.0819-.9436-.8705-1.7287-1.8125-1.8125 .9538-.0905 1.7199-.8594 1.8125-1.8125zm-28,8c.0797,.9184 .8188,1.6637 1.7188,1.8125-.9103,.0941-1.6794,.9233-1.7188,1.8438 0-1.2188 0-2.4375 0-3.6562zm28,0c0,1.2083 0,2.4167 0,3.625-.0819-.9436-.8705-1.7287-1.8125-1.8125 .9538-.0905 1.7199-.8594 1.8125-1.8125zm-28,8c.0819,.9436 .8705,1.7287 1.8125,1.8125-.9436,.0819-1.7287,.8705-1.8125,1.8125 0-1.2083 0-2.4167 0-3.625zm28,0c0,3.9375 0,7.875 0,11.8125-1.9375,0-3.875,0-5.8125,0 1.4201-.0967 2.0535-1.627 1.8125-2.8851 .1492-1.1615-.0784-2.6878-1.4062-3.0212-.9025-.1299 .7967-.2428 .9277-.7796 .7836-.9218 .3795-2.2138 .4786-3.3141 1.2956-.0444 3.0652,.3575 3.7812-1.0625 .0921-.2429 .1988-.4884 .2188-.75zm-28,8c.0967,1.4201 1.627,2.0535 2.8851,1.8125 3.705,0 7.4099,0 11.1149,0-.0303,1.0138 .81,1.915 1.8125,2-5.2708,0-10.5417,0-15.8125,0 0-1.2708 0-2.5417 0-3.8125z"/>
<path opacity=".15" d="m30.5938,22c-3.0901,0-5.5938,2.5479-5.5938,5.6562v42.6875c0,3.1083 2.5036,5.6562 5.5938,5.6562h34.8125c3.0901,0 5.5938-2.5479 5.5938-5.6562v-42.6875c0-3.1083-2.5036-5.6562-5.5938-5.6562h-34.8125zm3.4062,8h1 26 1c.5676,0 1,.4324 1,1v1 34 1c0,.5676-.4324,1-1,1h-1-26-1c-.5676,0-1-.4324-1-1v-1-34-1c0-.5676 .4324-1 1-1zm1.8125,4a1.007,1.007 0 0,0 -.8125,1v4a1.007,1.007 0 0,0 1,1h24a1.007,1.007 0 0,0 1-1v-4a1.007,1.007 0 0,0 -1-1h-24a1.007,1.007 0 0,0 -.1875,0zm0,8a1.007,1.007 0 0,0 -.8125,1v4a1.007,1.007 0 0,0 1,1h24a1.007,1.007 0 0,0 1-1v-4a1.007,1.007 0 0,0 -1-1h-24a1.007,1.007 0 0,0 -.1875,0zm0,8a1.007,1.007 0 0,0 -.8125,1v4a1.007,1.007 0 0,0 1,1h13.8125a1.007,1.007 0 0,0 -.8125,1v1.8125a1.007,1.007 0 0,0 -1-.8125h-12a1.007,1.007 0 0,0 -1,1v4a1.007,1.007 0 0,0 1,1h12a1.007,1.007 0 0,0 1-.8438v1.8438a1.007,1.007 0 0,0 1,1h6a1.007,1.007 0 0,0 1-1v-2a1.007,1.007 0 0,0 -1-1h-1v-2h1a1.007,1.007 0 0,0 1-1v-2a1.007,1.007 0 0,0 -.8438-1h3.8438a1.007,1.007 0 0,0 1-1v-4a1.007,1.007 0 0,0 -1-1h-24a1.007,1.007 0 0,0 -.1875,0zm13.1875,9.1875a1.007,1.007 0 0,0 1,.8125h1v2h-1a1.007,1.007 0 0,0 -1,.8438v-3.6562z"/>
<path opacity=".3" d="m30.5938,23c-2.5392,0-4.5938,2.0841-4.5938,4.6562v42.6875c0,2.5721 2.0546,4.6562 4.5938,4.6562h34.8125c2.5392,0 4.5938-2.0841 4.5938-4.6562v-42.6875c0-2.5721-2.0546-4.6562-4.5938-4.6562h-34.8125zm3.4062,6h1 26 1c1.108,0 2,.892 2,2v1 34 1c0,1.108-.892,2-2,2h-1-26-1c-1.108,0-2-.892-2-2v-1-34-1c0-1.108 .892-2 2-2zm2,6 0,4 24,0 0-4-24,0zm0,8 0,4 24,0 0-4-24,0zm0,8 0,4 24,0 0-4-24,0zm14,6 0,2 2,0 0,4-2,0 0,2 6,0 0-2-2,0 0-4 2,0 0-2-6,0zm-14,2 0,4 12,0 0-4-12,0z"/>
<path fill="url(#linearGradient3063)" d="m30.5938,22c-2.5392,0-4.5938,2.0841-4.5938,4.6562v42.6875c0,2.5721 2.0546,4.6562 4.5938,4.6562h34.8125c2.5392,0 4.5938-2.0841 4.5938-4.6562v-42.6875c0-2.5721-2.0546-4.6562-4.5938-4.6562h-34.8125zm3.4062,6h1 26 1c1.108,0 2,.892 2,2v1 34 1c0,1.108-.892,2-2,2h-1-26-1c-1.108,0-2-.892-2-2v-1-34-1c0-1.108 .892-2 2-2zm2,6 0,4 24,0 0-4-24,0zm0,8 0,4 24,0 0-4-24,0zm0,8 0,4 24,0 0-4-24,0zm14,6 0,2 2,0 0,4-2,0 0,2 6,0 0-2-2,0 0-4 2,0 0-2-6,0zm-14,2 0,4 12,0 0-4-12,0z"/>
<path opacity=".75" fill="#fff" d="m30.5938,22c-2.5392,0-4.5938,2.0841-4.5938,4.6562v1c0-2.5721 2.0546-4.6562 4.5938-4.6562h34.8125c2.5392,0 4.5938,2.0841 4.5938,4.6562v-1c0-2.5721-2.0546-4.6562-4.5938-4.6562h-34.8125zm5.4062,12v1h24v-1h-24zm0,8 0,1 24,0 0-1-24,0zm0,8 0,1 24,0 0-1-24,0zm14,6 0,1 6,0 0-1-6,0zm-14,2 0,1 12,0 0-1-12,0zm14,4 0,1 2,0 0-1-2,0zm4,0 0,1 2,0 0-1-2,0zm-22,4 0,1c0,1.108 .892,2 2,2h1 26 1c1.108,0 2-.892 2-2v-1c0,1.108-.892,2-2,2h-1-26-1c-1.108,0-2-.892-2-2z"/>
<path opacity=".15" d="m34,27c-1.108,0-2,.892-2,2v1c0-1.108 .892-2 2-2h1 26 1c1.108,0 2,.892 2,2v-1c0-1.108-.892-2-2-2h-1-26-1zm2,10 0,1 24,0 0-1-24,0zm0,8 0,1 24,0 0-1-24,0zm0,8 0,1 24,0 0-1-24,0zm14,4 0,1 2,0 0-1-2,0zm4,0 0,1 2,0 0-1-2,0zm-18,4 0,1 12,0 0-1-12,0zm14,2 0,1 6,0 0-1-6,0zm-24,5.3438 0,1c0,2.5721 2.0546,4.6562 4.5938,4.6562h34.8125c2.5392,0 4.5938-2.0841 4.5938-4.6562v-1c0,2.5721-2.0546,4.6562-4.5938,4.6562h-34.8125c-2.5392,0-4.5938-2.0841-4.5938-4.6562z"/>
</g>
<g transform="translate(.00038 -.00038)">
<path opacity=".7" fill="url(#radialGradient3550)" d="m15.5273,11.6556h96.7867a3.9616,4.918 0 0,1 3.961,4.9181v95.0843a3.9616,4.918 0 0,1 -3.961,4.918h-96.7867a3.9616,4.918 0 0,1 -3.9616-4.918v-95.0843a3.9616,4.918 0 0,1 3.9616-4.9181"/>
</g>
</svg>
