<?xml version="1.0" encoding="UTF-8" standalone="no"?>
<!-- Created with Inkscape (http://www.inkscape.org/) -->

<svg
   xmlns:dc="http://purl.org/dc/elements/1.1/"
   xmlns:cc="http://creativecommons.org/ns#"
   xmlns:rdf="http://www.w3.org/1999/02/22-rdf-syntax-ns#"
   xmlns:svg="http://www.w3.org/2000/svg"
   xmlns="http://www.w3.org/2000/svg"
   xmlns:xlink="http://www.w3.org/1999/xlink"
   xmlns:sodipodi="http://sodipodi.sourceforge.net/DTD/sodipodi-0.dtd"
   xmlns:inkscape="http://www.inkscape.org/namespaces/inkscape"
   version="1.0"
   width="128"
   height="128"
   id="svg3449"
   sodipodi:version="0.32"
   inkscape:version="0.48.2 r9819"
   sodipodi:docname="folder (otra copia).svg"
   inkscape:output_extension="org.inkscape.output.svg.inkscape">
  <metadata
     id="metadata56">
    <rdf:RDF>
      <cc:Work
         rdf:about="">
        <dc:format>image/svg+xml</dc:format>
        <dc:type
           rdf:resource="http://purl.org/dc/dcmitype/StillImage" />
      </cc:Work>
    </rdf:RDF>
  </metadata>
  <sodipodi:namedview
     inkscape:window-height="974"
     inkscape:window-width="1280"
     inkscape:pageshadow="2"
     inkscape:pageopacity="0.0"
     guidetolerance="10.0"
     gridtolerance="10.0"
     objecttolerance="10.0"
     borderopacity="1.0"
     bordercolor="#666666"
     pagecolor="#ffffff"
     id="base"
     showgrid="false"
     inkscape:zoom="1.9765625"
     inkscape:cx="65.521075"
     inkscape:cy="41.32332"
     inkscape:window-x="0"
     inkscape:window-y="0"
     inkscape:current-layer="svg3449"
     inkscape:window-maximized="1" />
  <defs
     id="defs3451">
    <linearGradient
       id="linearGradient5060-820">
      <stop
         id="stop2681"
         style="stop-color:#000000;stop-opacity:1"
         offset="0" />
      <stop
         id="stop2683"
         style="stop-color:#000000;stop-opacity:0"
         offset="1" />
    </linearGradient>
    <radialGradient
       cx="605.71429"
       cy="486.64789"
       r="117.14286"
       fx="605.71429"
       fy="486.64789"
       id="radialGradient2488"
       xlink:href="#linearGradient5060-820"
       gradientUnits="userSpaceOnUse"
       gradientTransform="matrix(-8.2775052e-2,0,0,6.6416887e-2,62.347829,75.518568)" />
    <linearGradient
       id="linearGradient5060-179">
      <stop
         id="stop2675"
         style="stop-color:#000000;stop-opacity:1"
         offset="0" />
      <stop
         id="stop2677"
         style="stop-color:#000000;stop-opacity:0"
         offset="1" />
    </linearGradient>
    <radialGradient
       cx="605.71429"
       cy="486.64789"
       r="117.14286"
       fx="605.71429"
       fy="486.64789"
       id="radialGradient2486"
       xlink:href="#linearGradient5060-179"
       gradientUnits="userSpaceOnUse"
       gradientTransform="matrix(8.2775071e-2,0,0,6.6416887e-2,65.628912,75.518568)" />
    <linearGradient
       id="linearGradient5048-585">
      <stop
         id="stop2667"
         style="stop-color:#000000;stop-opacity:0"
         offset="0" />
      <stop
         id="stop2669"
         style="stop-color:#000000;stop-opacity:1"
         offset="0.5" />
      <stop
         id="stop2671"
         style="stop-color:#000000;stop-opacity:0"
         offset="1" />
    </linearGradient>
    <linearGradient
       x1="302.85715"
       y1="366.64789"
       x2="302.85715"
       y2="609.50507"
       id="linearGradient2484"
       xlink:href="#linearGradient5048-585"
       gradientUnits="userSpaceOnUse"
       gradientTransform="matrix(0.2134205,0,0,6.6416887e-2,-13.147881,75.518568)" />
    <linearGradient
       id="linearGradient3484">
      <stop
         id="stop3486"
         style="stop-color:#bdbdbd;stop-opacity:1"
         offset="0" />
      <stop
         id="stop3488"
         style="stop-color:#d0d0d0;stop-opacity:1"
         offset="1" />
    </linearGradient>
    <linearGradient
       id="linearGradient6404">
      <stop
         id="stop6406"
         style="stop-color:#f9f9f9;stop-opacity:1"
         offset="0" />
      <stop
         id="stop6408"
         style="stop-color:#c9c9c9;stop-opacity:1"
         offset="1" />
    </linearGradient>
    <linearGradient
       id="linearGradient3390">
      <stop
         id="stop3392"
         style="stop-color:#51751e;stop-opacity:1"
         offset="0" />
      <stop
         id="stop3394"
         style="stop-color:#51751e;stop-opacity:1"
         offset="1" />
    </linearGradient>
    <linearGradient
       id="linearGradient7012-661-145-733-759-865-745">
      <stop
         id="stop2699"
         style="stop-color:#aacb7d;stop-opacity:1"
         offset="0" />
      <stop
         id="stop2701"
         style="stop-color:#709937;stop-opacity:1"
         offset="1" />
    </linearGradient>
    <linearGradient
       id="linearGradient6129-963-697-142-998-580-273">
      <stop
         id="stop2661"
         style="stop-color:#0a0a0a;stop-opacity:0.498"
         offset="0" />
      <stop
         id="stop2663"
         style="stop-color:#0a0a0a;stop-opacity:0"
         offset="1" />
    </linearGradient>
    <linearGradient
       id="linearGradient6087-437-184-795-110-662-495">
      <stop
         id="stop2693"
         style="stop-color:#ffffff;stop-opacity:0.40000001"
         offset="0" />
      <stop
         id="stop2695"
         style="stop-color:#ffffff;stop-opacity:0"
         offset="1" />
    </linearGradient>
    <linearGradient
       id="linearGradient8265-821-176-38-919-66-249">
      <stop
         id="stop2687"
         style="stop-color:#ffffff;stop-opacity:0.2"
         offset="0" />
      <stop
         id="stop2689"
         style="stop-color:#ffffff;stop-opacity:0"
         offset="1" />
    </linearGradient>
    <linearGradient
       inkscape:collect="always"
       xlink:href="#linearGradient8265-821-176-38-919-66-249"
       id="linearGradient2432"
       gradientUnits="userSpaceOnUse"
       gradientTransform="matrix(2.6482074,0,0,2.640269,0.4315584,1.7937658)"
       x1="11.566265"
       y1="22.292103"
       x2="15.214532"
       y2="33.95525" />
    <radialGradient
       inkscape:collect="always"
       xlink:href="#linearGradient6087-437-184-795-110-662-495"
       id="radialGradient2435"
       gradientUnits="userSpaceOnUse"
       gradientTransform="matrix(0,1.1019148,-1.5096234,0,53.85015,9.2569441)"
       cx="32.264069"
       cy="14.298984"
       fx="32.264069"
       fy="14.298984"
       r="61" />
    <linearGradient
       inkscape:collect="always"
       xlink:href="#linearGradient6129-963-697-142-998-580-273"
       id="linearGradient2438"
       gradientUnits="userSpaceOnUse"
       gradientTransform="matrix(3.036796,0,0,2.6219687,-8.8831095,4.6704719)"
       x1="22.934725"
       y1="49.629246"
       x2="22.934725"
       y2="36.599415" />
    <radialGradient
       inkscape:collect="always"
       xlink:href="#linearGradient7012-661-145-733-759-865-745"
       id="radialGradient2441"
       gradientUnits="userSpaceOnUse"
       gradientTransform="matrix(4.1712212,-2.5183476e-7,1.6467508e-7,2.688962,-229.83186,22.814774)"
       cx="63.969177"
       cy="14.113381"
       fx="63.969177"
       fy="14.113381"
       r="23.097054" />
    <linearGradient
       inkscape:collect="always"
       xlink:href="#linearGradient3390"
       id="linearGradient2443"
       gradientUnits="userSpaceOnUse"
       gradientTransform="matrix(2.6658408,0,0,2.6469079,-143.33284,0.950492)"
       x1="82.453476"
       y1="45.114193"
       x2="82.453476"
       y2="7.6327758" />
    <linearGradient
       inkscape:collect="always"
       xlink:href="#linearGradient6404"
       id="linearGradient2446"
       gradientUnits="userSpaceOnUse"
       gradientTransform="matrix(2.7209303,0,0,2.6722576,-139.90895,0.7861261)"
       x1="62.988873"
       y1="12.724592"
       x2="62.988873"
       y2="17.324797" />
    <radialGradient
       inkscape:collect="always"
       xlink:href="#linearGradient3484"
       id="radialGradient2448"
       gradientUnits="userSpaceOnUse"
       gradientTransform="matrix(0,4.5810288,-7.2733208,0,40.564727,8.4207689)"
       cx="3"
       cy="5.01718"
       fx="3"
       fy="5.01718"
       r="21" />
    <radialGradient
       inkscape:collect="always"
       xlink:href="#linearGradient4059"
       id="radialGradient3548"
       gradientUnits="userSpaceOnUse"
       gradientTransform="matrix(4.0072397e-4,2.2081308,-2.7670616,4.5911225e-4,17.162722,-249.92558)"
       cx="128.6185"
       cy="-5.0455413"
       fx="128.6185"
       fy="-5.0455413"
       r="45" />
    <linearGradient
       id="linearGradient4059">
      <stop
         style="stop-color:#4a4c37;stop-opacity:1"
         offset="0"
         id="stop4061" />
      <stop
         id="stop4063"
         offset="0.31291944"
         style="stop-color:#2a2c1d;stop-opacity:1" />
      <stop
         style="stop-color:#090908;stop-opacity:1"
         offset="0.66048187"
         id="stop4065" />
      <stop
         style="stop-color:#1d240d;stop-opacity:1"
         offset="1"
         id="stop4067" />
    </linearGradient>
    <linearGradient
       inkscape:collect="always"
       xlink:href="#linearGradient9647"
       id="linearGradient3550"
       gradientUnits="userSpaceOnUse"
       gradientTransform="matrix(1.0095551,0,0,1.0056748,17.095365,17.598094)"
       x1="48.24577"
       y1="102.10169"
       x2="17.000467"
       y2="-21.966103" />
    <linearGradient
       id="linearGradient9647">
      <stop
         id="stop9649"
         style="stop-color:#151414;stop-opacity:1"
         offset="0" />
      <stop
         id="stop9651"
         style="stop-color:#5c5a5a;stop-opacity:1"
         offset="1" />
    </linearGradient>
    <linearGradient
       inkscape:collect="always"
       xlink:href="#linearGradient4081-61-1"
       id="linearGradient3488-6"
       gradientUnits="userSpaceOnUse"
       gradientTransform="matrix(0.93022994,0,0,-0.93022994,35.68428,72.408219)"
       x1="20.758585"
       y1="1"
       x2="20.758585"
       y2="45.017357" />
    <linearGradient
       id="linearGradient4081-61-1">
      <stop
         id="stop4083-55-5"
         style="stop-color:#aaaaaa;stop-opacity:1"
         offset="0" />
      <stop
         id="stop4085-4-5"
         style="stop-color:#f0f0f0;stop-opacity:1"
         offset="1" />
    </linearGradient>
    <linearGradient
       inkscape:collect="always"
       xlink:href="#linearGradient4081-61-1"
       id="linearGradient3490"
       gradientUnits="userSpaceOnUse"
       gradientTransform="matrix(0.47268421,0.12665535,0.12665535,-0.47268421,56.48901,85.746539)"
       x1="20.758585"
       y1="1"
       x2="20.758585"
       y2="45.017357" />
    <linearGradient
       id="linearGradient3533">
      <stop
         id="stop3535"
         style="stop-color:#aaaaaa;stop-opacity:1"
         offset="0" />
      <stop
         id="stop3537"
         style="stop-color:#f0f0f0;stop-opacity:1"
         offset="1" />
    </linearGradient>
    <radialGradient
       inkscape:collect="always"
       xlink:href="#linearGradient4357"
       id="radialGradient3547"
       gradientUnits="userSpaceOnUse"
       gradientTransform="matrix(1.5021555,-1.3574554,1.42937,1.5817358,-219.69774,108.88945)"
       cx="119.33224"
       cy="123.7699"
       fx="119.33224"
       fy="123.7699"
       r="42.606647" />
    <linearGradient
       id="linearGradient4357">
      <stop
         offset="0"
         style="stop-color:#0d0e09;stop-opacity:1;"
         id="stop4359" />
      <stop
         offset="1"
         style="stop-color:#abaeab;stop-opacity:0;"
         id="stop4361" />
    </linearGradient>
    <radialGradient
       r="42.606647"
       fy="123.7699"
       fx="119.33224"
       cy="123.7699"
       cx="119.33224"
       gradientTransform="matrix(1.5021555,-1.3574554,1.42937,1.5817358,-219.69774,108.88945)"
       gradientUnits="userSpaceOnUse"
       id="radialGradient3555"
       xlink:href="#linearGradient4357"
       inkscape:collect="always" />
  </defs>
  <g
     transform="translate(3.790242e-4,-3.7784454e-4)"
     id="g3495">
    <g
       transform="matrix(1.331741,0,0,1.3368307,-23.735345,-23.823136)"
       id="g3544">
      <rect
         style="opacity:0.76254183;fill:#090909;fill-opacity:1;fill-rule:nonzero;stroke:none;display:inline"
         id="rect9752"
         transform="scale(1,-1)"
         y="-108.29631"
         x="23.974026"
         ry="6.0340486"
         rx="6.0573306"
         height="84.476677"
         width="84.802628"
         inkscape:transform-center-x="-2.4406777"
         inkscape:transform-center-y="-79.822033" />
      <rect
         style="fill:url(#radialGradient3548);fill-opacity:1;fill-rule:nonzero;stroke:url(#linearGradient3550);stroke-width:6.04567862;stroke-miterlimit:4;stroke-opacity:1;stroke-dasharray:none;display:inline"
         id="rect9754"
         y="23.632143"
         x="23.563358"
         ry="6.0340486"
         rx="6.0573306"
         height="84.476677"
         width="84.802628" />
    </g>
    <g
       transform="matrix(1.5527879,0,0,1.4876726,-29.360681,-24.882771)"
       id="g3478">
      <path
         d="m 55.2598,30.075379 c -1.87752,0 -3.375,1.55572 -3.375,3.40625 l 0,1.53125 c -0.53959,0.18972 -1.06902,0.41306 -1.59375,0.65625 l -1.09375,-1.09375 c -1.28768,-1.28767 -3.43073,-1.35053 -4.75,-0.0312 l -3.90625,3.90625 c -1.31939,1.31929 -1.25639,3.46236 0.0312,4.75 l 1.09375,1.09375 c -0.24319,0.52473 -0.46653,1.05416 -0.65625,1.59375 l -1.53125,0 c -1.85053,0 -3.40625,1.49748 -3.40625,3.375 l 0,5.5 c 0,1.87752 1.55572,3.375 3.40625,3.375 l 1.53125,0 c 0.18972,0.53959 0.41306,1.06902 0.65625,1.59375 l -1.09375,1.09375 c -1.28754,1.28766 -1.35054,3.43069 -0.0312,4.75 l 3.90625,3.90625 c 0.69155,0.69155 1.58087,0.97596 2.40625,0.96875 0.92086,-0.008 1.75077,-0.40703 2.34375,-1 l 1.09375,-1.09375 c 0.52473,0.24319 1.05416,0.46653 1.59375,0.65625 l 0,1.53125 c 0,1.85053 1.49748,3.40625 3.375,3.40625 l 3.96875,0 c -0.0503,0.117 -0.12234,0.21721 -0.15625,0.34375 l -0.75,2.8125 c -0.38252,1.42757 0.52158,2.75573 1.8125,3.1875 -1.06082,0.68381 -1.38522,1.98618 -0.96875,3.15625 l -0.0625,0 0,0.0312 a 0.84712339,0.84712339 0 0 0 0.0937,0.375 0.84712339,0.84712339 0 0 0 0.0312,0.0625 l 1.34375,2.34375 a 0.84712339,0.84712339 0 0 0 0.0937,0.15625 0.84712339,0.84712339 0 0 0 0,0.0312 c 0.40722,0.70534 1.05587,1.06354 1.65625,1.21875 0.67861,0.17567 1.35258,0.0575 1.90625,-0.21875 -0.26304,1.36851 0.52668,2.75535 1.90625,3.125 l 2.78125,0.75 c 1.36173,0.36488 2.7935,-0.40076 3.25,-1.75 0.77223,1.1647 2.31331,1.59622 3.5625,0.875 l 2.53125,-1.46875 c 1.2137,-0.70065 1.64969,-2.23248 1.0625,-3.5 l 0,-0.0312 c 1.35831,0.24431 2.72693,-0.53726 3.09375,-1.90625 l 0.75,-2.8125 c 0.33576,-1.25307 -0.38044,-2.33984 -1.40625,-2.90625 -0.007,-0.004 -0.0238,0.004 -0.0312,0 -0.14656,-0.0792 -0.2152,-0.26076 -0.375,-0.3125 1.13888,-0.73267 1.6933,-2.28466 0.9375,-3.59375 l -1.46875,-2.53125 c -0.74222,-1.28557 -2.35134,-1.60672 -3.59375,-0.96875 0.27005,-1.33245 -0.41879,-2.77444 -1.84375,-3.15625 l -1.25,-0.34375 1.34375,-1.34375 c 1.31941,-1.31929 1.25638,-3.46236 -0.0312,-4.75 l -1.09375,-1.09375 c 0.24319,-0.52473 0.46653,-1.05416 0.65625,-1.59375 l 1.53125,0 c 1.85053,0 3.40625,-1.49748 3.40625,-3.375 l 0,-5.5 c 0,-1.87752 -1.55572,-3.375 -3.40625,-3.375 l -1.53125,0 c -0.18972,-0.53959 -0.41306,-1.06902 -0.65625,-1.59375 l 1.09375,-1.09375 c 1.28754,-1.28766 1.35054,-3.43069 0.0312,-4.75 l -3.90625,-3.90625 c -1.31927,-1.31927 -3.46232,-1.25643 -4.75,0.0312 l -1.09375,1.09375 c -0.52473,-0.24319 -1.05416,-0.46653 -1.59375,-0.65625 l 0,-1.53125 c 0,-1.85053 -1.49748,-3.40625 -3.375,-3.40625 l -5.5,0 z m 26.09375,47.4375 c 0.0851,0.0562 0.34397,0.25026 0.34375,0.25 -0.002,-0.004 2e-5,-0.0312 0,-0.0312 -2e-4,-2.3e-4 -0.23267,-0.14709 -0.34375,-0.21875 z M 58.0098,47.919129 c 2.29189,0 4.09375,1.80187 4.09375,4.09375 0,2.29188 -1.80186,4.09375 -4.09375,4.09375 -2.29187,0 -4.09375,-1.80187 -4.09375,-4.09375 0,-2.29188 1.80188,-4.09375 4.09375,-4.09375 z m 12.8125,29.75 c -0.16835,-0.0101 0.0397,0.006 0.25,0.0625 0.70406,0.18865 1.06101,0.8058 0.875,1.5 -0.17988,0.67133 -0.85136,1.05718 -1.53125,0.875 -0.70405,-0.18865 -1.06101,-0.80581 -0.875,-1.5 0.15199,-0.56724 0.74898,-0.96936 1.28125,-0.9375 z"
         id="path3714"
         style="opacity:0.1;fill:#000000;fill-opacity:1;fill-rule:nonzero;stroke:none;stroke-width:1;marker:none;visibility:visible;display:block;overflow:visible;enable-background:accumulate"
         inkscape:connector-curvature="0" />
      <path
         d="m 55.2598,30.919129 c -1.41215,0 -2.53125,1.16378 -2.53125,2.5625 l 0,2.09375 c -0.90774,0.29443 -1.79167,0.63107 -2.625,1.0625 l -1.5,-1.46875 c -0.95954,-0.95954 -2.58542,-1.00834 -3.5625,-0.0312 l -3.90625,3.90625 c -0.97716,0.97709 -0.92826,2.60299 0.0312,3.5625 l 1.46875,1.5 c -0.43143,0.83333 -0.76807,1.71726 -1.0625,2.625 l -2.09375,0 c -1.39873,0 -2.5625,1.1191 -2.5625,2.53125 l 0,5.5 c 0,1.41215 1.16377,2.53125 2.5625,2.53125 l 2.09375,0 c 0.29443,0.90774 0.63107,1.79168 1.0625,2.625 l -1.46875,1.5 c -0.95944,0.95953 -1.00835,2.5854 -0.0312,3.5625 l 3.90625,3.90625 c 0.5173,0.51731 1.17579,0.72431 1.8125,0.71875 0.66507,-0.006 1.31239,-0.31239 1.75,-0.75 l 1.5,-1.46875 c 0.83333,0.43143 1.71726,0.76808 2.625,1.0625 l 0,2.09375 c 0,1.39873 1.1191,2.5625 2.53125,2.5625 l 5.5,0 c 1.0612,0 1.80485,-0.73302 2.1875,-1.65625 0.0287,0.21304 -0.0414,0.43647 0.0625,0.625 l 0,0.0312 0.375,0.65625 c -0.1718,0.20359 -0.34438,0.40545 -0.5,0.625 l -0.71875,-0.1875 c -0.98387,-0.26362 -2.01442,0.31669 -2.28125,1.3125 l -0.75,2.8125 c -0.27135,1.0127 0.4038,1.99814 1.34375,2.25 l 0.71875,0.1875 c 0.0215,0.264 0.0817,0.51891 0.125,0.78125 l -0.6875,0.40625 c -0.84994,0.5075 -1.16737,1.63239 -0.6875,2.5 l 0,0.0312 1.4375,2.5 a 1.1045137,1.1045137 0 0 0 0,0.0312 c 0.27533,0.4769 0.71887,0.73068 1.15625,0.84375 0.49761,0.12882 1.02714,0.0314 1.40625,-0.1875 a 1.1045137,1.1045137 0 0 0 0,-0.0312 l 0.625,-0.375 c 0.21352,0.1763 0.42903,0.34294 0.65625,0.5 l -0.1875,0.71875 c -0.26363,0.98387 0.31669,2.01443 1.3125,2.28125 l 2.78125,0.75 c 0.97475,0.26119 2.01207,-0.30791 2.28125,-1.3125 l 0.1875,-0.75 c 0.25455,-0.0255 0.50207,-0.049 0.75,-0.0937 l 0.40625,0.6875 c 0.48272,0.83609 1.67614,1.1812 2.53125,0.6875 l 2.53125,-1.46875 c 0.86888,-0.50159 1.19974,-1.67526 0.6875,-2.5625 a 1.1045137,1.1045137 0 0 0 -0.0312,0 l -0.375,-0.625 c 0.17101,-0.20711 0.34709,-0.40495 0.5,-0.625 l 0.6875,0.1875 a 1.1045137,1.1045137 0 0 0 0.0312,0 c 0.98387,0.26363 2.01442,-0.31668 2.28125,-1.3125 l 0.75,-2.8125 c 0.26713,-0.99695 -0.39545,-1.94824 -1.3125,-2.21875 -0.006,-0.002 0.006,-0.0295 0,-0.0312 l -0.0312,0 -0.71875,-0.21875 c -0.0276,-0.27541 -0.0437,-0.54491 -0.0937,-0.8125 l 0.65625,-0.375 c 0.79813,-0.47676 1.23188,-1.61122 0.71875,-2.5 l -1.46875,-2.53125 c -0.5155,-0.89287 -1.71621,-1.14485 -2.5625,-0.65625 a 1.1045137,1.1045137 0 0 0 0,0.0312 l -0.625,0.375 c -0.21432,-0.1824 -0.42375,-0.36566 -0.65625,-0.53125 l 0.1875,-0.6875 c 0.24997,-0.9329 -0.27154,-2.0107 -1.28125,-2.28125 l -2.65625,-0.71875 2.375,-2.375 c 0.97718,-0.97709 0.92826,-2.60299 -0.0312,-3.5625 l -1.46875,-1.5 c 0.43143,-0.83332 0.76807,-1.71725 1.0625,-2.625 l 2.09375,0 c 1.39873,0 2.5625,-1.11909 2.5625,-2.53125 l 0,-5.5 c 0,-1.41215 -1.16377,-2.53125 -2.5625,-2.53125 l -2.09375,0 c -0.29443,-0.90775 -0.63107,-1.79167 -1.0625,-2.625 l 1.46875,-1.5 c 0.95944,-0.95953 1.00835,-2.58539 0.0312,-3.5625 l -3.90625,-3.90625 c -0.97708,-0.97708 -2.60296,-0.92829 -3.5625,0.0312 l -1.5,1.46875 c -0.83333,-0.43143 -1.71725,-0.76807 -2.625,-1.0625 l 0,-2.09375 c 0,-1.39873 -1.1191,-2.5625 -2.53125,-2.5625 l -5.5,0 z m 2.75,16.15625 c 2.74348,0 4.9375,2.19402 4.9375,4.9375 0,2.74348 -2.19402,4.9375 -4.9375,4.9375 -2.74347,0 -4.9375,-2.19402 -4.9375,-4.9375 0,-2.74348 2.19403,-4.9375 4.9375,-4.9375 z m 7.90625,20.3125 0.6875,0.6875 c -0.13314,0.0374 -0.2832,-0.0398 -0.40625,0.0312 l -2.53125,1.46875 c -0.19585,0.11307 -0.24203,0.35684 -0.375,0.53125 l 0,-1.65625 c 0.90775,-0.29442 1.79167,-0.63106 2.625,-1.0625 z m 3.96875,1.9375 0,0.0312 c -0.0531,0.004 -0.10323,0.0261 -0.15625,0.0312 0.0556,-0.0119 0.10145,-0.0468 0.15625,-0.0625 z m 1,7.5 c 0.06,0.004 0.18978,0.0357 0.40625,0.0937 1.12699,0.30198 1.76903,1.41059 1.46875,2.53125 -0.2987,1.11477 -1.44512,1.76815 -2.5625,1.46875 -1.12699,-0.30197 -1.76903,-1.4106 -1.46875,-2.53125 0.26049,-0.97214 1.20736,-1.6193 2.15625,-1.5625 z"
         id="path3710-7"
         style="opacity:0.15;fill:#000000;fill-opacity:1;fill-rule:nonzero;stroke:none;stroke-width:1;marker:none;visibility:visible;display:block;overflow:visible;enable-background:accumulate"
         inkscape:connector-curvature="0" />
      <path
         d="m 55.2598,32.012879 c -0.7871,0 -1.4375,0.6682 -1.4375,1.46875 l 0,2.8125 c -1.40738,0.37498 -2.73834,0.94066 -3.96875,1.65625 l -2.03125,-2 c -0.56607,-0.56607 -1.44344,-0.58781 -2,-0.0312 l -3.90625,3.90625 c -0.55661,0.55656 -0.53482,1.43393 0.0312,2 l 2,2.03125 c -0.71559,1.2304 -1.28126,2.56137 -1.65625,3.96875 l -2.8125,0 c -0.80055,0 -1.46875,0.65041 -1.46875,1.4375 l 0,5.5 c 0,0.7871 0.6682,1.4375 1.46875,1.4375 l 2.8125,0 c 0.37499,1.40738 0.94066,2.73835 1.65625,3.96875 l -2,2.03125 c -0.56602,0.56608 -0.5878,1.44344 -0.0312,2 l 3.90625,3.90625 c 0.27828,0.27828 0.66497,0.40945 1.03125,0.40625 0.36628,-0.003 0.68571,-0.15446 0.96875,-0.4375 l 2.03125,-2 c 1.23041,0.71559 2.56137,1.28127 3.96875,1.65625 l 0,2.8125 c 0,0.80055 0.6504,1.46875 1.4375,1.46875 l 5.5,0 c 0.78709,0 1.4375,-0.6682 1.4375,-1.46875 l 0,-2.8125 c 1.40738,-0.37498 2.73834,-0.94065 3.96875,-1.65625 l 2.03125,2 c 0.56607,0.56608 1.44344,0.58781 2,0.0312 l 3.90625,-3.90625 c 0.55661,-0.55656 0.53482,-1.43392 -0.0312,-2 l -2,-2.03125 c 0.71559,-1.2304 1.28127,-2.56137 1.65625,-3.96875 l 2.8125,0 c 0.80054,0 1.46875,-0.6504 1.46875,-1.4375 l 0,-5.5 c 0,-0.7871 -0.66821,-1.4375 -1.46875,-1.4375 l -2.8125,0 c -0.37498,-1.40738 -0.94066,-2.73835 -1.65625,-3.96875 l 2,-2.03125 c 0.56602,-0.56607 0.58781,-1.44344 0.0312,-2 l -3.90625,-3.90625 c -0.55656,-0.55656 -1.43393,-0.53482 -2,0.0312 l -2.03125,2 c -1.23041,-0.71559 -2.56137,-1.28127 -3.96875,-1.65625 l 0,-2.8125 c 0,-0.80055 -0.65041,-1.46875 -1.4375,-1.46875 l -5.5,0 z m 2.75,13.96875 c 3.33767,0 6.03125,2.69358 6.03125,6.03125 0,3.33767 -2.69358,6.03125 -6.03125,6.03125 -3.33766,0 -6.03125,-2.69358 -6.03125,-6.03125 0,-3.33767 2.69359,-6.03125 6.03125,-6.03125 z m 13.75,22.375 c -0.28992,0.0428 -0.54325,0.25741 -0.625,0.5625 l -0.375,1.4375 c -0.7662,-0.001 -1.52736,0.0851 -2.25,0.28125 l -0.75,-1.28125 c -0.21057,-0.36471 -0.64141,-0.48828 -1,-0.28125 l -2.53125,1.46875 c -0.35861,0.20703 -0.46057,0.63529 -0.25,1 l 0.71875,1.3125 c -0.53114,0.52778 -0.99283,1.11716 -1.375,1.78125 l -1.4375,-0.375 c -0.40679,-0.109 -0.83033,0.1313 -0.9375,0.53125 l -0.75,2.8125 c -0.10717,0.39995 0.15571,0.79725 0.5625,0.90625 l 1.4375,0.375 c -10e-4,0.7662 0.0851,1.52736 0.28125,2.25 l -1.28125,0.75 c -0.36469,0.21058 -0.48828,0.67267 -0.28125,1.03125 l 1.4375,2.53125 c 0.10351,0.1793 0.28219,0.29552 0.46875,0.34375 0.18654,0.0483 0.38014,0.0115 0.5625,-0.0937 l 1.28125,-0.75 c 0.52779,0.53114 1.14841,0.99284 1.8125,1.375 l -0.375,1.4375 c -0.109,0.40679 0.1313,0.83033 0.53125,0.9375 l 2.78125,0.75 c 0.39995,0.10717 0.8285,-0.12446 0.9375,-0.53125 l 0.375,-1.4375 c 0.7662,0.001 1.52736,-0.11638 2.25,-0.3125 l 0.75,1.3125 c 0.21057,0.36471 0.64141,0.48828 1,0.28125 l 2.53125,-1.46875 c 0.35861,-0.20702 0.49182,-0.66653 0.28125,-1.03125 l -0.75,-1.28125 c 0.53114,-0.52778 0.99285,-1.14841 1.375,-1.8125 l 1.4375,0.40625 c 0.40679,0.109 0.83033,-0.1313 0.9375,-0.53125 l 0.75,-2.8125 c 0.10717,-0.39995 -0.15572,-0.79725 -0.5625,-0.90625 l -1.40625,-0.40625 c 0.001,-0.7662 -0.11638,-1.52736 -0.3125,-2.25 l 1.28125,-0.75 c 0.36469,-0.21057 0.51953,-0.64141 0.3125,-1 l -1.46875,-2.53125 c -0.20703,-0.35859 -0.66653,-0.46057 -1.03125,-0.25 l -1.28125,0.75 c -0.52778,-0.53114 -1.14841,-1.02408 -1.8125,-1.40625 l 0.375,-1.40625 c 0.109,-0.40679 -0.10005,-0.83033 -0.5,-0.9375 l -2.8125,-0.75 c -0.1,-0.0268 -0.21586,-0.0455 -0.3125,-0.0312 z m -0.8125,7.375 c 0.21092,0.0126 0.413,0.0682 0.625,0.125 1.69599,0.45444 2.70444,2.17901 2.25,3.875 -0.45444,1.69599 -2.21026,2.70444 -3.90625,2.25 -1.69599,-0.45444 -2.70444,-2.17901 -2.25,-3.875 0.39764,-1.48399 1.8048,-2.46338 3.28125,-2.375 z"
         id="path3703"
         style="opacity:0.3;fill:#000000;fill-opacity:1;fill-rule:nonzero;stroke:none;stroke-width:1;marker:none;visibility:visible;display:block;overflow:visible;enable-background:accumulate"
         inkscape:connector-curvature="0" />
      <path
         d="m 55.24818,71.012879 c -0.7871,0 -1.42442,-0.65294 -1.42442,-1.45349 l 0,-2.81976 c -1.40738,-0.37498 -2.75214,-0.94138 -3.98255,-1.65697 l -2.00581,2.00581 c -0.28304,0.28304 -0.62209,0.43294 -0.98837,0.43605 -0.36627,0.003 -0.73915,-0.1287 -1.01743,-0.40698 l -3.92441,-3.92441 c -0.55656,-0.55656 -0.537,-1.43973 0.029,-2.00581 l 2.00581,-2.0058 c -0.71559,-1.23041 -1.28199,-2.57517 -1.65698,-3.98255 l -2.81975,0 c -0.80055,0 -1.45349,-0.63732 -1.45349,-1.42442 l 0,-5.52324 c 0,-0.78709 0.65294,-1.42441 1.45349,-1.42441 l 2.81975,0 c 0.37499,-1.40739 0.94139,-2.75214 1.65698,-3.98255 l -2.00581,-2.00581 c -0.56607,-0.56607 -0.58563,-1.44924 -0.029,-2.00581 l 3.92441,-3.9244 c 0.55655,-0.55656 1.43973,-0.537 2.0058,0.0291 l 2.00581,2.0058 c 1.23041,-0.71559 2.57517,-1.28199 3.98255,-1.65697 l 0,-2.81976 c 0,-0.80055 0.63732,-1.45348 1.42442,-1.45348 l 5.52324,0 c 0.78709,0 1.42441,0.65293 1.42441,1.45348 l 0,2.81976 c 1.40738,0.37498 2.75214,0.94138 3.98254,1.65697 l 2.00582,-2.00581 c 0.56607,-0.56607 1.44924,-0.58563 2.00581,-0.0291 l 3.9244,3.92441 c 0.55656,0.55656 0.537,1.43974 -0.029,2.00581 l -2.0058,2.00581 c 0.71559,1.23041 1.28199,2.57516 1.65697,3.98255 l 2.81976,0 c 0.80055,0 1.45349,0.63732 1.45349,1.42441 l 0,5.52324 c 0,0.7871 -0.65294,1.42442 -1.45349,1.42442 l -2.81976,0 c -0.37498,1.40738 -0.94138,2.75214 -1.65697,3.98255 l 2.00581,2.0058 c 0.56607,0.56608 0.58563,1.44925 0.029,2.00581 L 70.19,67.117539 c -0.55656,0.55656 -1.43974,0.537 -2.00581,-0.0291 l -2.00581,-2.00581 c -1.23041,0.7156 -2.57517,1.282 -3.98255,1.65698 l 0,2.81976 c 0,0.80055 -0.63732,1.45348 -1.42441,1.45348 l -5.52324,0 z m 2.76161,-13.95345 c 3.33767,0 6.0465,-2.70883 6.0465,-6.0465 0,-3.33766 -2.70883,-6.04649 -6.0465,-6.04649 -3.33766,0 -6.04649,2.70883 -6.04649,6.04649 0,3.33767 2.70883,6.0465 6.04649,6.0465 z"
         id="rect3267"
         style="fill:url(#linearGradient3488-6);fill-opacity:1;fill-rule:nonzero;stroke:none;stroke-width:1;marker:none;visibility:visible;display:block;overflow:visible;enable-background:accumulate"
         inkscape:connector-curvature="0" />
      <path
         d="m 66.62013,87.701229 c -0.39995,-0.10717 -0.6349,-0.52572 -0.5259,-0.93251 l 0.38393,-1.43282 c -0.66409,-0.38217 -1.27029,-0.85307 -1.79808,-1.38421 l -1.29232,0.74612 c -0.18236,0.10528 -0.37506,0.13529 -0.5616,0.087 -0.18656,-0.0482 -0.35807,-0.16604 -0.46159,-0.34533 l -1.45981,-2.52847 c -0.20703,-0.35858 -0.0768,-0.80469 0.28785,-1.01527 l 1.29233,-0.74612 c -0.19611,-0.72264 -0.30081,-1.48309 -0.29973,-2.24929 l -1.43282,-0.38392 c -0.40679,-0.109 -0.6518,-0.52175 -0.54463,-0.9217 l 0.75201,-2.80656 c 0.10717,-0.39995 0.52573,-0.6349 0.93251,-0.5259 l 1.43283,0.38392 c 0.38217,-0.66408 0.85307,-1.27029 1.38421,-1.79807 l -0.74612,-1.29233 c -0.21057,-0.36471 -0.10026,-0.81615 0.25835,-1.02318 l 2.52846,-1.45981 c 0.35859,-0.20703 0.8047,-0.0768 1.01527,0.28787 l 0.74612,1.29233 c 0.72264,-0.19612 1.48309,-0.30081 2.24929,-0.29973 l 0.38392,-1.43282 c 0.109,-0.40679 0.52175,-0.6518 0.9217,-0.54463 l 2.80656,0.75202 c 0.39995,0.10716 0.6349,0.52572 0.5259,0.93251 l -0.38392,1.43282 c 0.66408,0.38217 1.27029,0.85307 1.79807,1.38421 l 1.29233,-0.74612 c 0.36471,-0.21057 0.81615,-0.10026 1.02318,0.25833 l 1.45981,2.52846 c 0.20703,0.35859 0.0768,0.8047 -0.28785,1.01528 l -1.29233,0.74613 c 0.19612,0.72263 0.3008,1.48308 0.29973,2.24928 l 1.43283,0.38392 c 0.40678,0.109 0.65179,0.52175 0.54462,0.9217 l -0.75201,2.80656 c -0.10717,0.39995 -0.52573,0.6349 -0.93251,0.5259 l -1.43283,-0.38392 c -0.38215,0.66409 -0.85306,1.27029 -1.3842,1.79807 l 0.74612,1.29233 c 0.21057,0.36472 0.10026,0.81616 -0.25835,1.02318 l -2.52846,1.45981 c -0.35859,0.20703 -0.8047,0.0768 -1.01527,-0.28787 l -0.74613,-1.29232 c -0.72264,0.19611 -1.48308,0.30081 -2.24928,0.29972 l -0.38393,1.43283 c -0.10899,0.40678 -0.52174,0.65179 -0.92169,0.54462 l -2.80656,-0.75201 z m 3.30311,-6.71425 c 1.696,0.45444 3.44127,-0.5532 3.89571,-2.24919 0.45444,-1.69599 -0.55319,-3.44127 -2.24919,-3.89571 -1.69599,-0.45444 -3.44126,0.5532 -3.8957,2.24919 -0.45444,1.69599 0.55319,3.44127 2.24918,3.89571 z"
         id="path3667"
         style="fill:url(#linearGradient3490);fill-opacity:1;fill-rule:nonzero;stroke:none;stroke-width:1;marker:none;visibility:visible;display:block;overflow:visible;enable-background:accumulate"
         inkscape:connector-curvature="0" />
      <path
         d="m 55.2598,31.012879 c -0.7871,0 -1.4375,0.6682 -1.4375,1.46875 l 0,1 c 0,-0.80055 0.6504,-1.46875 1.4375,-1.46875 l 5.5,0 c 0.78709,0 1.4375,0.6682 1.4375,1.46875 l 0,-1 c 0,-0.80055 -0.65041,-1.46875 -1.4375,-1.46875 l -5.5,0 z m -8.4375,3.5 c -0.35967,-0.007 -0.72172,0.12797 -1,0.40625 l -3.90625,3.90625 c -0.40122,0.40119 -0.49957,0.97093 -0.3125,1.46875 0.0674,-0.16936 0.17335,-0.32961 0.3125,-0.46875 l 3.90625,-3.90625 c 0.55656,-0.55656 1.43393,-0.53482 2,0.0312 l 2.03125,2 c 1.23041,-0.71559 2.56137,-1.28127 3.96875,-1.65625 l 0,-1 c -1.40738,0.37498 -2.73834,0.94066 -3.96875,1.65625 l -2.03125,-2 c -0.28304,-0.28303 -0.64033,-0.43087 -1,-0.4375 z m 22.375,0 c -0.35967,0.007 -0.71696,0.15446 -1,0.4375 l -2.03125,2 c -1.23041,-0.71559 -2.56137,-1.28127 -3.96875,-1.65625 l 0,1 c 1.40738,0.37498 2.73834,0.94066 3.96875,1.65625 l 2.03125,-2 c 0.56607,-0.56607 1.44344,-0.58781 2,-0.0312 l 3.90625,3.90625 c 0.13914,0.13914 0.24512,0.29939 0.3125,0.46875 0.18706,-0.49782 0.0887,-1.06756 -0.3125,-1.46875 l -3.90625,-3.90625 c -0.27828,-0.27828 -0.64033,-0.41287 -1,-0.40625 z m -25.59375,9 c -0.54668,1.04428 -1.00287,2.15044 -1.3125,3.3125 l -2.8125,0 c -0.80055,0 -1.46875,0.65041 -1.46875,1.4375 l 0,1 c 0,-0.78709 0.6682,-1.4375 1.46875,-1.4375 l 2.8125,0 c 0.37499,-1.40738 0.94066,-2.73835 1.65625,-3.96875 l -0.34375,-0.34375 z m 28.8125,0 -0.34375,0.34375 c 0.71559,1.2304 1.28127,2.56137 1.65625,3.96875 l 2.8125,0 c 0.80054,0 1.46875,0.6504 1.46875,1.4375 l 0,-1 c 0,-0.7871 -0.66821,-1.4375 -1.46875,-1.4375 l -2.8125,0 c -0.30962,-1.16206 -0.76582,-2.26822 -1.3125,-3.3125 z m -20.40625,8.125 c -0.007,0.12345 -0.0312,0.24963 -0.0312,0.375 0,3.33767 2.69359,6.03125 6.03125,6.03125 3.33767,0 6.03125,-2.69358 6.03125,-6.03125 0,-0.12537 -0.0238,-0.25155 -0.0312,-0.375 -0.30815,3.04608 -2.87093,5.40625 -6,5.40625 -3.12906,0 -5.69185,-2.36017 -6,-5.40625 z m -8.40625,7.875 -1.65625,1.6875 c -0.42452,0.42456 -0.54589,1.02316 -0.34375,1.53125 0.0724,-0.1928 0.18574,-0.37322 0.34375,-0.53125 l 2,-2.03125 c -0.12473,-0.21447 -0.22834,-0.4358 -0.34375,-0.65625 z m 28.8125,0 c -0.11541,0.22045 -0.21902,0.44178 -0.34375,0.65625 l 2,2.03125 c 0.15803,0.15803 0.2713,0.33845 0.34375,0.53125 0.20216,-0.50809 0.0808,-1.10669 -0.34375,-1.53125 l -1.65625,-1.6875 z m -0.65625,7.84375 c -0.28992,0.0428 -0.54325,0.25741 -0.625,0.5625 l -0.375,1.4375 c -0.7662,-0.001 -1.52736,0.0851 -2.25,0.28125 l -0.75,-1.28125 c -0.21057,-0.36471 -0.64141,-0.48828 -1,-0.28125 l -2.53125,1.46875 c -0.35861,0.20703 -0.46057,0.63529 -0.25,1 l 0.0937,0.15625 c 0.0494,-0.0538 0.0877,-0.11667 0.15625,-0.15625 l 2.53125,-1.46875 c 0.35859,-0.20703 0.78943,-0.0835 1,0.28125 l 0.75,1.28125 c 0.72264,-0.19611 1.4838,-0.28235 2.25,-0.28125 l 0.375,-1.4375 c 0.0817,-0.30509 0.33508,-0.51973 0.625,-0.5625 0.0966,-0.0143 0.21251,0.004 0.3125,0.0312 l 2.8125,0.75 c 0.18468,0.0495 0.3155,0.1609 0.40625,0.3125 l 0.0937,-0.375 c 0.109,-0.40679 -0.10005,-0.83033 -0.5,-0.9375 l -2.8125,-0.75 c -0.1,-0.0268 -0.21586,-0.0455 -0.3125,-0.0312 z m 3.46875,3.28125 -0.21875,0.84375 c 0.66409,0.38217 1.28472,0.87511 1.8125,1.40625 l 1.28125,-0.75 c 0.36472,-0.21057 0.82422,-0.10859 1.03125,0.25 l 1.375,2.34375 c 0.1877,-0.22682 0.24902,-0.54356 0.0937,-0.8125 l -1.46875,-2.53125 c -0.20703,-0.35859 -0.66653,-0.46057 -1.03125,-0.25 l -1.28125,0.75 c -0.46717,-0.47015 -1.01533,-0.89005 -1.59375,-1.25 z m -10.875,1.59375 c -0.38684,0.4309 -0.73518,0.89177 -1.03125,1.40625 l -1.4375,-0.375 c -0.40679,-0.109 -0.83033,0.1313 -0.9375,0.53125 l -0.75,2.8125 c -0.0577,0.21527 0.004,0.42456 0.125,0.59375 l 0.625,-2.40625 c 0.10717,-0.39995 0.53071,-0.64025 0.9375,-0.53125 l 1.4375,0.375 c 0.38217,-0.66409 0.84386,-1.25347 1.375,-1.78125 l -0.34375,-0.625 z m 14.84375,4.34375 -0.1875,0.0937 c 0.19612,0.72264 0.3136,1.4838 0.3125,2.25 l 1.40625,0.40625 c 0.18784,0.0503 0.3333,0.16735 0.4375,0.3125 l 0.125,-0.40625 c 0.10717,-0.39995 -0.15572,-0.79725 -0.5625,-0.90625 l -1.40625,-0.40625 c 6.3e-4,-0.44835 -0.0524,-0.90555 -0.125,-1.34375 z m -5.3125,1.78125 c -0.018,0.12728 -0.0283,0.24749 -0.0625,0.375 -0.45444,1.69599 -2.21026,2.70444 -3.90625,2.25 -1.2275,-0.32891 -2.09929,-1.33279 -2.3125,-2.5 -0.22089,1.56567 0.74402,3.07973 2.3125,3.5 1.69599,0.45444 3.45181,-0.55401 3.90625,-2.25 0.12553,-0.46848 0.14387,-0.92953 0.0625,-1.375 z m -11.59375,1.875 -1.09375,0.65625 c -0.36469,0.21058 -0.48828,0.67267 -0.28125,1.03125 l 0.0937,0.15625 c 0.0572,-0.0705 0.10384,-0.13919 0.1875,-0.1875 l 1.28125,-0.75 c -0.0814,-0.29977 -0.14235,-0.5956 -0.1875,-0.90625 z m 14.84375,4.34375 c -0.11731,0.13403 -0.2186,0.28189 -0.34375,0.40625 l 0.65625,1.15625 c 0.20324,-0.2352 0.25973,-0.58751 0.0937,-0.875 l -0.40625,-0.6875 z m -10.875,1.59375 -0.15625,0.59375 c -0.0587,0.21895 -0.0204,0.44829 0.0937,0.625 l 0.28125,-1.0625 c -0.0773,-0.0445 -0.14267,-0.1096 -0.21875,-0.15625 z"
         id="path3716"
         style="fill:#ffffff;fill-opacity:1;fill-rule:nonzero;stroke:none;stroke-width:1;marker:none;visibility:visible;display:block;overflow:visible;enable-background:accumulate"
         inkscape:connector-curvature="0" />
    </g>
    <rect
       width="104.84494"
       height="104.91989"
       rx="3.9667106"
       ry="4.9180083"
       x="11.829731"
       y="11.859011"
       id="rect3545"
       style="opacity:0.7;fill:url(#radialGradient3555);fill-opacity:1;fill-rule:nonzero;stroke:none;display:inline" />
  </g>
</svg>
