<svg xmlns="http://www.w3.org/2000/svg" viewBox="0 0 96 96" xmlns:xlink="http://www.w3.org/1999/xlink">
<defs>
<clipPath id="clipPath3865">
<path fill="#fff" d="m-88,6c-3.324,0-6,2.676-6,6v72c0,3.324 2.676,6 6,6h72c3.324,0 6-2.676 6-6v-72c0-3.324-2.676-6-6-6h-72zm33.625,22c1.8804-.0683 3.7884,.9599 4.75,2.9062 .5799,1.1738 .6303,3.0734 .125,4.4062-.761,2.0074-2.5279,3.2188-4.6875,3.2188-1.1372,0-1.2022,.0223-1.125,.375 .0448,.2043 .3239,4.6601 .625,9.9062 .4122,7.18 .5119,9.7047 .375,10.2188-.1,.3756-.1565,.7315-.125,.7812 1.574,.8886 3.1921,1.7992 4.9062,2.3125 1.3362-1.8775 3.7721-4.7441 4.25-4.9688 3.318-.4621 6.8806-.4806 10.1875,.0312 5.6574,6.5601 11.1748,13.7641 16.1875,20.8438l-41.25,.0938 8.7188-13.75c-.0357-.0298-2.8082-1.4835-6.1875-3.25-5.4967-2.8734-6.6386-3.3721-6.625-2.9062 .0022,.0739 .4219,1.8756 .9375,4l1.1875,3.8438 .0312,5.625c.0184,5.4432-.0022,5.6617-.3438,6-.3754,.3719-1.1128,.3967-3.3125,.1875-.7926-.0754-1.8409-.406-2.125-.6875l.0312-11.625-.9375-3.6875-.9375-3.6875-5.1875,9c-2.8489,4.9626-5.4722,9.333-5.8125,9.6875-.8637,.8998-1.3545,.8388-2.8438-.25-1.2752-.9324-1.5725-1.3836-1.4062-2.25 .1498-.7806 .0168-.5461 6.0938-11.125 3.0117-5.2429 5.5233-9.7032 5.5625-9.9062 .061-.316-.1934-.5039-1.7812-1.3438-1.8336-.9698-1.8759-.9772-2.125-.625-.4424,.6256-1.0745,.4517-2.3125-.6562-1.6988-1.5204-1.7451-1.2972 2-8.2812 1.698-3.1666 3.271-5.9512 3.5-6.1875l.4062-.4062 7.4375-.0625 7.4375-.0625-.25-.7812c-.5915-1.8856 .0299-4.2211 1.4688-5.5938 .9156-.8735 2.028-1.3028 3.1562-1.3438zm-14.5,13.25c-.2535,.0002-.5987,.0199-1.0312,.0312l-1.8438,.0625-1.9688,3.6562c-1.084,2.0252-1.9496,3.7383-1.9062,3.7812 .1105,.1095 3.3004,1.7482 3.4062,1.75 .0477,.0008 .9628-1.9591 2.0312-4.3438 1.0685-2.3846 1.9668-4.4875 2.0312-4.6562 .0815-.2133 .0419-.2818-.7188-.2812zm9.4375,7c-.1471-.027-.5804,.8574-1.6875,3.3438-.8966,2.0137-1.6561,3.7204-1.6875,3.7812-.0609,.1179 3.8157,2.1791 3.9375,2.0938 .0396-.0277-.0303-2.0193-.1562-4.4062-.126-2.387-.2852-4.5323-.3438-4.75-.0103-.0384-.0415-.0586-.0625-.0625z"/>
</clipPath>
<clipPath id="clipPath3613">
<path fill="#fff" d="m12,6h72a6,6 0 0,1 6,6v72a6,6 0 0,1 -6,6h-72a6,6 0 0,1 -6-6v-72a6,6 0 0,1 6-6"/>
</clipPath>
<clipPath id="clipPath3873">
<path fill="#fff" d="m-55.7636,76.871c-.7926-.0754-1.8141-.3941-2.0982-.6755l.0091-11.6296-.9381-3.6951-.9381-3.6951-5.1797,9.0229c-2.8489,4.9626-5.4581,9.3129-5.7984,9.6674-.8637,.8998-1.3658,.8595-2.855-.2294-1.2752-.9324-1.5612-1.3962-1.3949-2.2626 .1498-.7806 .0198-.5434 6.0968-11.1223 3.0117-5.2429 5.5079-9.6986 5.5471-9.9017 .061-.316-.1966-.5109-1.7845-1.3507-1.8336-.9698-1.8587-.9773-2.1078-.625-.4424,.6256-1.0767,.4436-2.3147-.6644-1.6988-1.5204-1.7577-1.2758 1.9874-8.2598 1.698-3.1666 3.2747-5.9508 3.5037-6.1871l.4163-.4297 7.4387-.0499 7.4387-.0499-.2539-.8095c-.5915-1.8856 .0095-4.1966 1.4484-5.5693 2.4415-2.3292 6.364-1.5557 7.9025,1.5585 .5799,1.1738 .6359,3.0555 .1306,4.3884-.761,2.0074-2.5339,3.2258-4.6934,3.2258-1.1372,0-1.1938,.0188-1.1165,.3715 .0448,.2043 .3278,4.6639 .6289,9.91 .4122,7.18 .5026,9.7074 .3657,10.2214-.1,.3756-.1561,.7236-.1246,.7734 1.574,.8886 3.1906,1.8015 4.9048,2.3148 1.3362-1.8775 3.7973-4.7292 4.2752-4.9538 3.318-.4621 6.8529-.489 10.1599,.0229 5.6574,6.5601 11.1844,13.7649 16.1971,20.8446l-41.2337,.0825 8.7135-13.7349c-.0357-.0298-2.8298-1.4995-6.2091-3.266-5.4967-2.8734-6.6195-3.3664-6.6059-2.9006 .0022,.0739 .4258,1.8724 .9414,3.9968l1.19,3.8625 .0191,5.6271c.0184,5.4432 .0075,5.6385-.3341,5.9768-.3754,.3719-1.1343,.4038-3.3339,.1946zm6.7209-24.8079c-.126-2.387-.277-4.518-.3356-4.7357-.0826-.3072-.4714,.4239-1.7367,3.2654-.8966,2.0137-1.656,3.711-1.6874,3.7719-.0609,.1179 3.795,2.1741 3.9168,2.0888 .0396-.0277-.0311-2.0034-.1571-4.3904zm-11.16-6.8789c1.0685-2.3846 1.9954-4.4737 2.0598-4.6425 .1086-.2844-.0188-.3032-1.7489-.2578l-1.866,.049-1.971,3.6822c-1.084,2.0252-1.9355,3.7173-1.8922,3.7602 .1105,.1095 3.2829,1.7412 3.3888,1.743 .0477,.0008 .961-1.9495 2.0294-4.3342z"/>
</clipPath>
<filter width="1.211" x="-.105" y="-.139" height="1.278" color-interpolation-filters="sRGB" id="filter3861">
<feGaussianBlur stdDeviation="2.9051"/>
</filter>
<filter width="1.384" x="-.192" y="-.192" height="1.384" color-interpolation-filters="sRGB" id="filter3794">
<feGaussianBlur stdDeviation="5.28"/>
</filter>
<filter color-interpolation-filters="sRGB" id="filter3881">
<feGaussianBlur stdDeviation=".58102"/>
</filter>
<linearGradient gradientTransform="matrix(1.02381 0 0 1.0119 -1.14286 -98.07143)" id="linearGradient3780" xlink:href="#ButtonShadow-0" y1="6.132" y2="90.239" x2="0" gradientUnits="userSpaceOnUse"/>
<linearGradient gradientTransform="matrix(1.00587 0 0 .99417 100 0)" id="ButtonShadow-0" y1="92.54" y2="7.017" x2="0" gradientUnits="userSpaceOnUse">
<stop offset="0"/>
<stop offset="1" stop-opacity=".588"/>
</linearGradient>
<linearGradient id="linearGradient3192">
<stop offset="0"/>
<stop offset="1" stop-opacity="0"/>
</linearGradient>
<linearGradient id="linearGradient3198" xlink:href="#linearGradient3192" y1="11.35" y2="36.266" x2="0" gradientUnits="userSpaceOnUse"/>
<linearGradient id="linearGradient3737">
<stop offset="0" stop-color="#fff"/>
<stop offset="1" stop-color="#fff" stop-opacity="0"/>
</linearGradient>
<linearGradient id="linearGradient3188" xlink:href="#linearGradient3737" y1="6" y2="63.893" x2="0" gradientUnits="userSpaceOnUse"/>
<linearGradient gradientTransform="translate(0 -97)" id="linearGradient3721" xlink:href="#ButtonShadow-0" y1="6.132" y2="90.239" x2="0" gradientUnits="userSpaceOnUse"/>
<linearGradient id="linearGradient3613" xlink:href="#linearGradient3737" y1="20.221" y2="138.661" x2="0" gradientUnits="userSpaceOnUse"/>
<linearGradient id="linearGradient3617" xlink:href="#ButtonColor" y1="90" y2="5.988" x2="0" gradientUnits="userSpaceOnUse"/>
<linearGradient id="ButtonColor" y1="122" y2="5.425" x2="0" gradientUnits="userSpaceOnUse">
<stop offset="0" stop-color="#d18c1d"/>
<stop offset="1" stop-color="#ffcf0f"/>
</linearGradient>
<radialGradient cx="48" cy="90.172" gradientTransform="matrix(1.15731 0 0 .99591 -7.55102 .19713)" r="42" id="radialGradient3619" xlink:href="#linearGradient3737" gradientUnits="userSpaceOnUse"/>
</defs>
<path opacity=".08" fill="url(#linearGradient3780)" d="m12-95.0312c-5.5111,0-10.0312,4.5202-10.0312,10.0312v71c0,5.5111 4.5202,10.0312 10.0312,10.0312h72c5.5111,0 10.0312-4.5202 10.0312-10.0312v-71c0-5.5111-4.5202-10.0312-10.0312-10.0312h-72z" transform="scale(1 -1)"/>
<path opacity=".1" fill="url(#linearGradient3780)" d="m12-94.0312c-4.9716,0-9.0312,4.0596-9.0312,9.0312v71c0,4.9716 4.0596,9.0312 9.0312,9.0312h72c4.9716,0 9.0312-4.0596 9.0312-9.0312v-71c0-4.9716-4.0596-9.0312-9.0312-9.0312h-72z" transform="scale(1 -1)"/>
<path opacity=".2" fill="url(#linearGradient3780)" d="m12-93c-4.4091,0-8,3.5909-8,8v71c0,4.4091 3.5909,8 8,8h72c4.4091,0 8-3.5909 8-8v-71c0-4.4091-3.5909-8-8-8h-72z" transform="scale(1 -1)"/>
<path opacity=".3" fill="url(#linearGradient3780)" d="m12-92h72a7,7 0 0,1 7,7v71a7,7 0 0,1 -7,7h-72a7,7 0 0,1 -7-7v-71a7,7 0 0,1 7-7" transform="scale(1 -1)"/>
<path opacity=".45" fill="url(#linearGradient3721)" d="m12-91h72a6,6 0 0,1 6,6v72a6,6 0 0,1 -6,6h-72a6,6 0 0,1 -6-6v-72a6,6 0 0,1 6-6" transform="scale(1 -1)"/>
<path fill="url(#linearGradient3617)" d="m12,6h72a6,6 0 0,1 6,6v72a6,6 0 0,1 -6,6h-72a6,6 0 0,1 -6-6v-72a6,6 0 0,1 6-6"/>
<g fill="url(#linearGradient3198)" transform="matrix(.71698 0 0 .75 2.83019 1.5)">
<path opacity=".8" fill-rule="evenodd" d="m18,6 16,0-8,16-16,0 8-16z"/>
<path opacity=".8" fill-rule="evenodd" d="m44,6 16,0-8,16-16,0 8-16z"/>
<path opacity=".8" fill-rule="evenodd" d="m72,6 16,0-8,16-16,0 8-16z"/>
<path opacity=".8" fill-rule="evenodd" d="m100,6 16,0-8,16-16,0 8-16z"/>
</g>
<path opacity=".5" fill="url(#linearGradient3188)" d="m12,6c-3.324,0-6,2.676-6,6v2 68 2c0,.3347 .0413,.6507 .0938,.9688 .0487,.2956 .097,.5969 .1875,.875 .0099,.0304 .0209,.0636 .0312,.0938 .0989,.2878 .2349,.5475 .375,.8125 .1446,.2735 .3156,.5356 .5,.7812 .1844,.2456 .3738,.4735 .5938,.6875 .4399,.4281 .9429,.8145 1.5,1.0938 .2785,.1396 .5735,.2469 .875,.3438-.2562-.1002-.4867-.2363-.7188-.375-.0074-.0044-.0239,.0045-.0312,0-.0319-.0193-.0623-.0425-.0938-.0625-.1204-.0767-.231-.1635-.3438-.25-.1062-.0808-.2133-.1611-.3125-.25-.1779-.1614-.3475-.3454-.5-.5312-.1076-.1303-.2184-.2653-.3125-.4062-.0251-.0384-.0384-.0859-.0625-.125-.0648-.103-.1302-.2045-.1875-.3125-.101-.1947-.2057-.4157-.2812-.625-.008-.0218-.0236-.0405-.0312-.0625-.0318-.0919-.0358-.1868-.0625-.2812-.0303-.1066-.0704-.203-.0938-.3125-.0729-.3415-.125-.6982-.125-1.0625v-2-68-2c0-2.7818 2.2182-5 5-5h2 68 2c2.7818,0 5,2.2182 5,5v2 68 2c0,.3643-.0521,.721-.125,1.0625-.0442,.2069-.0884,.3977-.1562,.5938-.0077,.022-.0233,.0407-.0312,.0625-.0627,.1737-.1384,.3674-.2188,.5312-.0416,.0828-.079,.17-.125,.25-.0546,.0972-.1268,.1883-.1875,.2812-.0941,.141-.2049,.276-.3125,.4062-.1432,.1744-.3031,.347-.4688,.5-.0112,.0102-.02,.0212-.0312,.0312-.1384,.1256-.2851,.2344-.4375,.3438-.1026,.0731-.2043,.1534-.3125,.2188-.0074,.0045-.0238-.0044-.0312,0-.232,.1387-.4625,.2748-.7188,.375 .3015-.0968 .5965-.2041 .875-.3438 .5571-.2792 1.0601-.6657 1.5-1.0938 .22-.214 .4094-.4419 .5938-.6875 .1844-.2456 .3554-.5077 .5-.7812 .1401-.265 .2761-.5247 .375-.8125 .0104-.0308 .0213-.0627 .0312-.0938 .0905-.2781 .1388-.5794 .1875-.875 .0524-.318 .0938-.634 .0938-.9688v-2-68-2c0-3.324-2.676-6-6-6h-72z"/>
<path opacity=".15" fill="url(#radialGradient3619)" d="m12,90c-3.324,0-6-2.676-6-6v-2-68-2c0-.3347 .0413-.6507 .0938-.9688 .0487-.2956 .097-.5969 .1875-.875 .0099-.0304 .0209-.0636 .0312-.0938 .0989-.2878 .2349-.5475 .375-.8125 .1446-.2735 .3156-.5356 .5-.7812 .1844-.2456 .3738-.4735 .5938-.6875 .4399-.4281 .9429-.8145 1.5-1.0938 .2785-.1396 .5735-.2469 .875-.3438-.2562,.1002-.4867,.2363-.7188,.375-.0074,.0044-.0239-.0045-.0312,0-.0319,.0193-.0623,.0425-.0938,.0625-.1204,.0767-.231,.1635-.3438,.25-.1062,.0808-.2133,.1611-.3125,.25-.1779,.1614-.3475,.3454-.5,.5312-.1076,.1303-.2184,.2653-.3125,.4062-.0251,.0384-.0384,.0859-.0625,.125-.0648,.103-.1302,.2045-.1875,.3125-.101,.1947-.2057,.4157-.2812,.625-.008,.0218-.0236,.0405-.0312,.0625-.0318,.092-.0358,.1868-.0625,.2812-.0303,.1066-.0704,.203-.0938,.3125-.0729,.3415-.125,.6982-.125,1.0625v2 68 2c0,2.7818 2.2182,5 5,5h2 68 2c2.7818,0 5-2.2182 5-5v-2-68-2c0-.3643-.0521-.721-.125-1.0625-.0442-.2069-.0884-.3977-.1562-.5938-.0077-.022-.0233-.0407-.0312-.0625-.0627-.1737-.1384-.3674-.2188-.5312-.0416-.0828-.079-.17-.125-.25-.0546-.0972-.1268-.1883-.1875-.2812-.0941-.141-.2049-.276-.3125-.4062-.1432-.1745-.3031-.347-.4688-.5-.0112-.0102-.02-.0211-.0312-.0312-.1384-.1256-.2851-.2344-.4375-.3438-.1026-.0732-.2043-.1534-.3125-.2188-.0074-.0045-.0238,.0044-.0312,0-.232-.1387-.4625-.2748-.7188-.375 .3015,.0968 .5965,.2041 .875,.3438 .5571,.2792 1.0601,.6657 1.5,1.0938 .22,.214 .4094,.4419 .5938,.6875 .1844,.2456 .3554,.5077 .5,.7812 .1401,.265 .2761,.5247 .375,.8125 .0104,.0308 .0213,.0627 .0312,.0938 .0905,.2781 .1388,.5794 .1875,.875 .0524,.318 .0938,.634 .0938,.9688v2 68 2c0,3.324-2.676,6-6,6h-72z"/>
<path opacity=".1" fill="url(#linearGradient3613)" filter="url(#filter3794)" stroke="#fff" stroke-linecap="round" stroke-width=".5" d="m27,15h42a12,12 0 0,1 12,12v42a12,12 0 0,1 -12,12h-42a12,12 0 0,1 -12-12v-42a12,12 0 0,1 12-12" clip-path="url(#clipPath3613)"/>
<path opacity=".8" fill="#feeeb7" filter="url(#filter3861)" d="m-65.7636,77.871c-.7926-.0754-1.8141-.3941-2.0982-.6755l.0091-11.6296-.9381-3.6951-.9381-3.6951-5.1797,9.0229c-2.8489,4.9626-5.4581,9.3129-5.7984,9.6674-.8637,.8998-1.3658,.8595-2.855-.2294-1.2752-.9324-1.5612-1.3962-1.3949-2.2626 .1498-.7806 .0198-.5434 6.0968-11.1223 3.0117-5.2429 5.5079-9.6986 5.5471-9.9017 .061-.316-.1966-.5109-1.7845-1.3507-1.8336-.9698-1.8587-.9773-2.1078-.625-.4424,.6256-1.0767,.4436-2.3147-.6644-1.6988-1.5204-1.7577-1.2758 1.9874-8.2598 1.698-3.1666 3.2747-5.9508 3.5037-6.1871l.4163-.4297 7.4387-.0499 7.4387-.0499-.2539-.8095c-.5915-1.8856 .0095-4.1966 1.4484-5.5693 2.4415-2.3292 6.364-1.5557 7.9025,1.5585 .5799,1.1738 .6359,3.0555 .1306,4.3884-.761,2.0074-2.5339,3.2258-4.6934,3.2258-1.1372,0-1.1938,.0188-1.1165,.3715 .0448,.2043 .3278,4.6639 .6289,9.91 .4122,7.18 .5026,9.7074 .3657,10.2214-.1,.3756-.1561,.7236-.1246,.7734 1.574,.8886 3.1906,1.8015 4.9048,2.3148 1.3362-1.8775 3.7973-4.7292 4.2752-4.9538 3.318-.4621 6.8529-.489 10.1599,.0229 5.6574,6.5601 11.1844,13.7649 16.1971,20.8446l-41.2337,.0825 8.7135-13.7349c-.0357-.0298-2.8298-1.4995-6.2091-3.266-5.4967-2.8734-6.6195-3.3664-6.6059-2.9006 .0022,.0739 .4258,1.8724 .9414,3.9968l1.19,3.8625 .0191,5.6271c.0184,5.4432 .0075,5.6385-.3341,5.9768-.3754,.3719-1.1343,.4038-3.3339,.1946zm6.7209-24.8079c-.126-2.387-.277-4.518-.3356-4.7357-.0826-.3072-.4714,.4239-1.7367,3.2654-.8966,2.0137-1.656,3.711-1.6874,3.7719-.0609,.1179 3.795,2.1741 3.9168,2.0888 .0396-.0277-.0311-2.0034-.1571-4.3904zm-11.16-6.8789c1.0685-2.3846 1.9954-4.4737 2.0598-4.6425 .1086-.2844-.0188-.3032-1.7489-.2578l-1.866,.049-1.971,3.6822c-1.084,2.0252-1.9355,3.7173-1.8922,3.7602 .1105,.1095 3.2829,1.7412 3.3888,1.743 .0477,.0008 .961-1.9495 2.0294-4.3342z" clip-path="url(#clipPath3865)" transform="translate(100)"/>
<path fill="#3a2d01" d="m34.2364,77.871c-.7926-.0754-1.8141-.3941-2.0982-.6755l.0091-11.6296-.9381-3.6951-.9381-3.6951-5.1797,9.0229c-2.8489,4.9626-5.4581,9.3129-5.7984,9.6674-.8637,.8998-1.3658,.8595-2.855-.2294-1.2752-.9324-1.5612-1.3962-1.3949-2.2626 .1498-.7806 .0198-.5434 6.0968-11.1223 3.0117-5.2429 5.5079-9.6986 5.5471-9.9017 .061-.316-.1966-.5109-1.7845-1.3507-1.8336-.9698-1.8587-.9773-2.1078-.625-.4424,.6256-1.0767,.4436-2.3147-.6644-1.6988-1.5204-1.7577-1.2758 1.9874-8.2598 1.698-3.1666 3.2747-5.9508 3.5037-6.1871l.4163-.4297 7.4387-.0499 7.4387-.0499-.2539-.8095c-.5915-1.8856 .0095-4.1966 1.4484-5.5693 2.4415-2.3292 6.364-1.5557 7.9025,1.5585 .5799,1.1738 .6359,3.0555 .1306,4.3884-.761,2.0074-2.5339,3.2258-4.6934,3.2258-1.1372,0-1.1938,.0188-1.1165,.3715 .0448,.2043 .3278,4.6639 .6289,9.91 .4122,7.18 .5026,9.7074 .3657,10.2214-.1,.3756-.1561,.7236-.1246,.7734 1.574,.8886 3.1906,1.8015 4.9048,2.3148 1.3362-1.8775 3.7973-4.7292 4.2752-4.9538 3.318-.4621 6.8529-.489 10.1599,.0229 5.6574,6.5601 11.1844,13.7649 16.1971,20.8446l-41.2337,.0825 8.7135-13.7349c-.0357-.0298-2.8298-1.4995-6.2091-3.266-5.4967-2.8734-6.6195-3.3664-6.6059-2.9006 .0022,.0739 .4258,1.8724 .9414,3.9968l1.19,3.8625 .0191,5.6271c.0184,5.4432 .0075,5.6385-.3341,5.9768-.3754,.3719-1.1343,.4038-3.3339,.1946zm6.7209-24.8079c-.126-2.387-.277-4.518-.3356-4.7357-.0826-.3072-.4714,.4239-1.7367,3.2654-.8966,2.0137-1.656,3.711-1.6874,3.7719-.0609,.1179 3.795,2.1741 3.9168,2.0888 .0396-.0277-.0311-2.0034-.1571-4.3904zm-11.16-6.8789c1.0685-2.3846 1.9954-4.4737 2.0598-4.6425 .1086-.2844-.0188-.3032-1.7489-.2578l-1.866,.049-1.971,3.6822c-1.084,2.0252-1.9355,3.7173-1.8922,3.7602 .1105,.1095 3.2829,1.7412 3.3888,1.743 .0477,.0008 .961-1.9495 2.0294-4.3342z"/>
<path opacity=".8" fill="none" filter="url(#filter3881)" stroke="#000" d="m-55.7636,77.871c-.7926-.0754-1.8141-.3941-2.0982-.6755l.0091-11.6296-.9381-3.6951-.9381-3.6951-5.1797,9.0229c-2.8489,4.9626-5.4581,9.3129-5.7984,9.6674-.8637,.8998-1.3658,.8595-2.855-.2294-1.2752-.9324-1.5612-1.3962-1.3949-2.2626 .1498-.7806 .0198-.5434 6.0968-11.1223 3.0117-5.2429 5.5079-9.6986 5.5471-9.9017 .061-.316-.1966-.5109-1.7845-1.3507-1.8336-.9698-1.8587-.9773-2.1078-.625-.4424,.6256-1.0767,.4436-2.3147-.6644-1.6988-1.5204-1.7577-1.2758 1.9874-8.2598 1.698-3.1666 3.2747-5.9508 3.5037-6.1871l.4163-.4297 7.4387-.0499 7.4387-.0499-.2539-.8095c-.5915-1.8856 .0095-4.1966 1.4484-5.5693 2.4415-2.3292 6.364-1.5557 7.9025,1.5585 .5799,1.1738 .6359,3.0555 .1306,4.3884-.761,2.0074-2.5339,3.2258-4.6934,3.2258-1.1372,0-1.1938,.0188-1.1165,.3715 .0448,.2043 .3278,4.6639 .6289,9.91 .4122,7.18 .5026,9.7074 .3657,10.2214-.1,.3756-.1561,.7236-.1246,.7734 1.574,.8886 3.1906,1.8015 4.9048,2.3148 1.3362-1.8775 3.7973-4.7292 4.2752-4.9538 3.318-.4621 6.8529-.489 10.1599,.0229 5.6574,6.5601 11.1844,13.7649 16.1971,20.8446l-41.2337,.0825 8.7135-13.7349c-.0357-.0298-2.8298-1.4995-6.2091-3.266-5.4967-2.8734-6.6195-3.3664-6.6059-2.9006 .0022,.0739 .4258,1.8724 .9414,3.9968l1.19,3.8625 .0191,5.6271c.0184,5.4432 .0075,5.6385-.3341,5.9768-.3754,.3719-1.1343,.4038-3.3339,.1946zm6.7209-24.8079c-.126-2.387-.277-4.518-.3356-4.7357-.0826-.3072-.4714,.4239-1.7367,3.2654-.8966,2.0137-1.656,3.711-1.6874,3.7719-.0609,.1179 3.795,2.1741 3.9168,2.0888 .0396-.0277-.0311-2.0034-.1571-4.3904zm-11.16-6.8789c1.0685-2.3846 1.9954-4.4737 2.0598-4.6425 .1086-.2844-.0188-.3032-1.7489-.2578l-1.866,.049-1.971,3.6822c-1.084,2.0252-1.9355,3.7173-1.8922,3.7602 .1105,.1095 3.2829,1.7412 3.3888,1.743 .0477,.0008 .961-1.9495 2.0294-4.3342z" clip-path="url(#clipPath3873)" transform="translate(90 1)"/>
</svg>
