<?xml version="1.0" encoding="UTF-8" standalone="no"?>
<svg
   xmlns:dc="http://purl.org/dc/elements/1.1/"
   xmlns:cc="http://creativecommons.org/ns#"
   xmlns:rdf="http://www.w3.org/1999/02/22-rdf-syntax-ns#"
   xmlns:svg="http://www.w3.org/2000/svg"
   xmlns="http://www.w3.org/2000/svg"
   xmlns:xlink="http://www.w3.org/1999/xlink"
   xmlns:sodipodi="http://sodipodi.sourceforge.net/DTD/sodipodi-0.dtd"
   xmlns:inkscape="http://www.inkscape.org/namespaces/inkscape"
   width="96"
   version="1.0"
   height="96"
   id="svg2"
   inkscape:version="0.48.4 r9939"
   sodipodi:docname="accessories-dictionary.svg">
  <metadata
     id="metadata91">
    <rdf:RDF>
      <cc:Work
         rdf:about="">
        <dc:format>image/svg+xml</dc:format>
        <dc:type
           rdf:resource="http://purl.org/dc/dcmitype/StillImage" />
      </cc:Work>
    </rdf:RDF>
  </metadata>
  <sodipodi:namedview
     pagecolor="#ffffff"
     bordercolor="#666666"
     borderopacity="1"
     objecttolerance="10"
     gridtolerance="10"
     guidetolerance="10"
     inkscape:pageopacity="0"
     inkscape:pageshadow="2"
     inkscape:window-width="1920"
     inkscape:window-height="1018"
     id="namedview89"
     showgrid="false"
     inkscape:zoom="11.313709"
     inkscape:cx="46.467414"
     inkscape:cy="39.074142"
     inkscape:window-x="-8"
     inkscape:window-y="-8"
     inkscape:window-maximized="1"
     inkscape:current-layer="svg2" />
  <defs
     id="defs2410">
    <clipPath
       id="clipPath3613">
      <rect
         width="84"
         x="6"
         y="6"
         rx="6"
         height="84"
         ry="6"
         style="fill:#fff;stroke:none"
         id="rect3615" />
    </clipPath>
    <filter
       style="color-interpolation-filters:sRGB"
       id="filter3174">
      <feGaussianBlur
         stdDeviation="1.71"
         id="feGaussianBlur3176" />
    </filter>
    <filter
       width="1.3839999"
       x="-0.192"
       y="-0.192"
       height="1.3839999"
       style="color-interpolation-filters:sRGB"
       id="filter3794">
      <feGaussianBlur
         stdDeviation="5.28"
         id="feGaussianBlur3796" />
    </filter>
    <linearGradient
       gradientTransform="matrix(1.125,0,0,1,0.375,-9.9999997)"
       id="linearGradient3935"
       xlink:href="#linearGradient3250"
       y1="27"
       x1="5"
       y2="27"
       x2="21"
       gradientUnits="userSpaceOnUse" />
    <linearGradient
       gradientTransform="matrix(1.125,0,0,1,0.375,-4.0000007)"
       id="linearGradient3923"
       xlink:href="#linearGradient3238"
       y1="28"
       x1="5"
       y2="28"
       x2="21"
       gradientUnits="userSpaceOnUse" />
    <linearGradient
       gradientTransform="matrix(1.125,0,0,1,0.375,-4.0000007)"
       id="linearGradient3933"
       xlink:href="#linearGradient3238"
       y1="28"
       x1="5"
       y2="28"
       x2="21"
       gradientUnits="userSpaceOnUse" />
    <linearGradient
       gradientTransform="matrix(1.125,0,0,1,0.375,-9.9999997)"
       id="linearGradient3925"
       xlink:href="#linearGradient3250"
       y1="27"
       x1="5"
       y2="27"
       x2="21"
       gradientUnits="userSpaceOnUse" />
    <linearGradient
       gradientTransform="matrix(1.125,0,0,1,0.375,-4.0000007)"
       id="linearGradient3937"
       xlink:href="#linearGradient3238"
       y1="28"
       x1="5"
       y2="28"
       x2="21"
       gradientUnits="userSpaceOnUse" />
    <linearGradient
       gradientTransform="translate(0,-97)"
       id="linearGradient3721"
       xlink:href="#ButtonShadow-0"
       y1="6.1317081"
       x1="32.251034"
       y2="90.238609"
       x2="32.251034"
       gradientUnits="userSpaceOnUse" />
    <linearGradient
       gradientTransform="matrix(1.0238095,0,0,1.0119048,-1.1428571,-98.071429)"
       id="linearGradient3725"
       xlink:href="#ButtonShadow-0"
       y1="6.1317081"
       x1="32.251034"
       y2="90.238609"
       x2="32.251034"
       gradientUnits="userSpaceOnUse" />
    <linearGradient
       gradientTransform="matrix(1.125,0,0,1,0.375,-9.9999997)"
       id="linearGradient3939"
       xlink:href="#linearGradient3250"
       y1="27"
       x1="5"
       y2="27"
       x2="21"
       gradientUnits="userSpaceOnUse" />
    <linearGradient
       gradientTransform="matrix(1.0238095,0,0,1.0119048,-1.1428571,-98.071429)"
       id="linearGradient3772"
       xlink:href="#ButtonShadow-0"
       y1="6.1317081"
       x1="32.251034"
       y2="90.238609"
       x2="32.251034"
       gradientUnits="userSpaceOnUse" />
    <linearGradient
       gradientTransform="matrix(1.0058652,0,0,0.994169,100,0)"
       id="ButtonShadow-0"
       y1="92.539597"
       x1="45.447727"
       y2="7.0165396"
       x2="45.447727"
       gradientUnits="userSpaceOnUse">
      <stop
         offset="0"
         id="stop3750-8" />
      <stop
         offset="1"
         style="stop-opacity:.588"
         id="stop3752-5" />
    </linearGradient>
    <linearGradient
       gradientTransform="matrix(1.125,0,0,1,0.375,-9.9999997)"
       id="linearGradient3915"
       xlink:href="#linearGradient3250"
       y1="27"
       x1="5"
       y2="27"
       x2="21"
       gradientUnits="userSpaceOnUse" />
    <linearGradient
       gradientTransform="matrix(1.0238095,0,0,1.0119048,-1.1428571,-98.071429)"
       id="linearGradient3780"
       xlink:href="#ButtonShadow-0"
       y1="6.1317081"
       x1="32.251034"
       y2="90.238609"
       x2="32.251034"
       gradientUnits="userSpaceOnUse" />
    <linearGradient
       gradientTransform="matrix(1.125,0,0,1,0.375,-4.0000007)"
       id="linearGradient3913"
       xlink:href="#linearGradient3238"
       y1="28"
       x1="5"
       y2="28"
       x2="21"
       gradientUnits="userSpaceOnUse" />
    <linearGradient
       id="linearGradient3613"
       xlink:href="#linearGradient3737"
       y1="20.220806"
       x1="48"
       y2="138.66119"
       x2="48"
       gradientUnits="userSpaceOnUse" />
    <linearGradient
       id="linearGradient3617"
       xlink:href="#ButtonColor"
       y1="90"
       x1="48"
       y2="5.9877172"
       x2="48"
       gradientUnits="userSpaceOnUse" />
    <linearGradient
       id="linearGradient3188"
       xlink:href="#linearGradient3737"
       y1="6"
       x1="36.357143"
       y2="63.893143"
       x2="36.357143"
       gradientUnits="userSpaceOnUse" />
    <linearGradient
       gradientTransform="scale(1.0058652,0.994169)"
       id="ButtonShadow"
       y1="92.539597"
       x1="45.447727"
       y2="7.0165396"
       x2="45.447727"
       gradientUnits="userSpaceOnUse">
      <stop
         offset="0"
         id="stop3750" />
      <stop
         offset="1"
         style="stop-opacity:.588"
         id="stop3752" />
    </linearGradient>
    <linearGradient
       id="linearGradient3737">
      <stop
         offset="0"
         style="stop-color:#fff"
         id="stop3739" />
      <stop
         offset="1"
         style="stop-color:#fff;stop-opacity:0"
         id="stop3741" />
    </linearGradient>
    <linearGradient
       gradientTransform="matrix(1.0238095,0,0,1.0119048,-1.1428571,-98.071429)"
       id="linearGradient2969"
       xlink:href="#ButtonShadow-0"
       y1="6.1317081"
       x1="32.251034"
       y2="90.238609"
       x2="32.251034"
       gradientUnits="userSpaceOnUse" />
    <linearGradient
       id="linearGradient3250">
      <stop
         offset="0"
         style="stop-color:#c4875e"
         id="stop3252" />
      <stop
         offset="1"
         style="stop-color:#c4875e;stop-opacity:0"
         id="stop3254" />
    </linearGradient>
    <linearGradient
       id="linearGradient3294">
      <stop
         offset="0"
         style="stop-color:#72401f"
         id="stop3296" />
      <stop
         offset="1"
         style="stop-color:#72401f;stop-opacity:0"
         id="stop3298" />
    </linearGradient>
    <linearGradient
       id="linearGradient3238">
      <stop
         offset="0"
         style="stop-color:#784421"
         id="stop3240" />
      <stop
         offset="1"
         style="stop-color:#784421;stop-opacity:0"
         id="stop3242" />
    </linearGradient>
    <linearGradient
       gradientTransform="translate(1,-15.321429)"
       id="linearGradient3300"
       xlink:href="#linearGradient3294"
       y1="64"
       x1="5"
       y2="64"
       x2="11.227473"
       gradientUnits="userSpaceOnUse" />
    <linearGradient
       gradientTransform="matrix(1.0172414,0,0,1.0172414,-1.1034483,-1.1034483)"
       id="ButtonColor"
       y1="122"
       x1="58.650177"
       y2="5.4252338"
       x2="58.650177"
       gradientUnits="userSpaceOnUse">
      <stop
         offset="0"
         style="stop-color:#cda060"
         id="stop3189" />
      <stop
         offset="1"
         style="stop-color:#dbbb8e"
         id="stop3191" />
    </linearGradient>
    <radialGradient
       fx="48"
       fy="90.171875"
       cx="48"
       cy="90.171875"
       gradientTransform="matrix(1.1573129,0,0,0.99590774,-7.5510206,0.19713193)"
       r="42"
       id="radialGradient3619"
       xlink:href="#linearGradient3737"
       gradientUnits="userSpaceOnUse" />
    <radialGradient
       inkscape:collect="always"
       xlink:href="#linearGradient3737"
       id="radialGradient3069"
       gradientUnits="userSpaceOnUse"
       gradientTransform="matrix(1.1573129,0,0,0.99590774,-7.5510206,0.19713193)"
       cx="48"
       cy="90.171875"
       fx="48"
       fy="90.171875"
       r="42" />
    <linearGradient
       inkscape:collect="always"
       xlink:href="#linearGradient3737"
       id="linearGradient3072"
       gradientUnits="userSpaceOnUse"
       x1="36.357143"
       y1="6"
       x2="36.357143"
       y2="63.893143" />
  </defs>
  <g
     style="display:none"
     id="layer2">
    <rect
       width="86"
       x="5"
       y="7"
       rx="6"
       height="85"
       ry="6"
       style="opacity:.9;fill:url(#ButtonShadow);filter:url(#filter3174);stroke:none"
       id="rect3745" />
  </g>
  <g
     style="stroke:none"
     id="layer3">
    <path
       style="opacity:.08;fill:url(#linearGradient2969)"
       id="path3786"
       d="m 12,-95.0312 c -5.51109,0 -10.0312,4.52016 -10.0312,10.0312 v 71 c 0,5.51109 4.52016,10.0312 10.0312,10.0312 h 72 c 5.51109,0 10.0312,-4.52016 10.0312,-10.0312 v -71 c 0,-5.51109 -4.52016,-10.0312 -10.0312,-10.0312 h -72 z "
       transform="scale(1,-1)" />
    <path
       style="opacity:.1;fill:url(#linearGradient3780)"
       id="path3778"
       d="m 12,-94.0312 c -4.97163,0 -9.03125,4.05962 -9.03125,9.03125 v 71 c 0,4.97163 4.05962,9.03125 9.03125,9.03125 h 72 c 4.97163,0 9.03125,-4.05962 9.03125,-9.03125 v -71 c 0,-4.97163 -4.05962,-9.03125 -9.03125,-9.03125 h -72 z "
       transform="scale(1,-1)" />
    <path
       style="opacity:.2;fill:url(#linearGradient3772)"
       id="path3770"
       d="m 12,-93 c -4.40913,0 -8,3.59087 -8,8 v 71 c 0,4.40913 3.59087,8 8,8 h 72 c 4.40913,0 8,-3.59087 8,-8 v -71 c 0,-4.40913 -3.59087,-8 -8,-8 h -72 z "
       transform="scale(1,-1)" />
    <rect
       width="86"
       x="5"
       y="-92"
       rx="7"
       height="85"
       ry="7"
       style="opacity:.3;fill:url(#linearGradient3725)"
       id="rect3723"
       transform="scale(1,-1)" />
    <rect
       width="84"
       x="6"
       y="-91"
       rx="6"
       height="84"
       ry="6"
       style="opacity:.45;fill:url(#linearGradient3721)"
       id="rect3716"
       transform="scale(1,-1)" />
  </g>
  <g
     id="layer1">
    <g
       style="stroke:none;text-align:start"
       id="g59">
      <rect
         width="84"
         x="6"
         y="6"
         rx="6"
         height="84"
         ry="6"
         style="fill:url(#linearGradient3617)"
         id="rect2419" />
      <path
         style="fill:#a05a2c"
         id="rect3170"
         d="m 12,6 c -3.324,0 -6,2.676 -6,6 v 72 c 0,3.324 2.676,6 6,6 h 12 v -84 h -12 z " />
      <g
         id="g3903"
         transform="translate(0,2)">
        <rect
           width="18"
           x="6"
           y="20"
           height="2"
           style="fill:url(#linearGradient3937)"
           id="rect3236" />
        <rect
           width="18"
           x="6"
           y="16"
           height="2"
           style="fill:url(#linearGradient3939)"
           id="rect3246" />
      </g>
      <path
         style="opacity:0.2;fill:url(#radialGradient3069)"
         d="M 12,90 C 8.1142472,90.136776 5.4184183,86.208403 6,82.577386 6.0181775,58.888301 5.9636622,35.1972 6.027225,11.509373 6.1373581,8.7557718 9.2997521,6.5978907 9.532974,6.5563309 6.4420776,8.9922856 7.1625495,12.924055 7,16.082329 7.0170866,38.559536 6.9658435,61.03844 7.02559,83.514587 7.2370867,86.815059 10.649716,87.94749 13.659716,88 37.277794,87.982915 60.897569,88.034154 84.514587,87.97441 87.815059,87.762913 89.032222,84.44704 89,81.340284 88.976522,57.713974 89.35478,34.081533 88.96483,10.460206 88.932679,8.5126667 86.399132,6.7081435 86.198233,6.4587199 86.161089,6.4126051 86.62888,6.6561991 87.512679,7.178563 91.04634,9.659906 89.750027,14.160254 90,17.793636 89.9794,40.067219 90.04118,62.342868 89.96914,84.615161 89.716104,88.390514 86.252712,90.32515 82.340284,90 58.893523,90 35.446761,90 12,90 z"
         id="path3615"
         inkscape:connector-curvature="0"
         sodipodi:nodetypes="cccccccccssccccc" />
      <g
         id="g3907"
         transform="translate(0,20)">
        <rect
           width="18"
           x="6"
           y="20"
           height="2"
           style="fill:url(#linearGradient3913)"
           id="rect3909" />
        <rect
           width="18"
           x="6"
           y="16"
           height="2"
           style="fill:url(#linearGradient3915)"
           id="rect3911" />
      </g>
      <g
         id="g3917"
         transform="translate(0,56)">
        <rect
           width="18"
           x="6"
           y="20"
           height="2"
           style="fill:url(#linearGradient3923)"
           id="rect3919" />
        <rect
           width="18"
           x="6"
           y="16"
           height="2"
           style="fill:url(#linearGradient3925)"
           id="rect3921" />
      </g>
      <g
         id="g3927"
         transform="translate(0,38)">
        <rect
           width="18"
           x="6"
           y="20"
           height="2"
           style="fill:url(#linearGradient3933)"
           id="rect3929" />
        <rect
           width="18"
           x="6"
           y="16"
           height="2"
           style="fill:url(#linearGradient3935)"
           id="rect3931" />
      </g>
      <path
         style="fill:url(#linearGradient3300)"
         id="path3292"
         d="M 12,6 C 8.676,6 6,8.676 6,12 l 0,72 c 0,3.324 2.676,6 6,6 l 9.125,0 0,-84 L 12,6 z" />
      <path
         style="opacity:0.4;fill:url(#linearGradient3072)"
         d="M 12,6 C 8.1142472,5.8632243 5.4184183,9.7915972 6,13.422614 6.0181775,37.111699 5.9636622,60.8028 6.027225,84.490627 6.0611597,87.216806 9.7269575,89.749531 9.489349,89.395692 6.3506267,86.970722 7.1597,83.020581 7,79.917671 7.0170866,57.440464 6.9658435,34.961559 7.02559,12.485413 7.2370855,9.1849398 10.727841,8.0993848 13.659716,8 37.277794,8.0170846 60.897569,7.9658463 84.514587,8.02559 87.81506,8.2370855 88.963115,12.134091 89,14.659716 c -0.02348,23.62631 0.225249,47.256968 -0.03517,70.880078 -0.01804,1.636216 -2.784585,3.802628 -2.890609,4.013654 C 91.510573,87.428496 89.796079,81.958468 90,78.206364 89.979404,55.932781 90.041181,33.657132 89.969136,11.384839 89.750009,8.1153666 86.666776,5.9111887 83.852596,5.9969773 59.034662,5.9198028 33.356875,6 12,6 z"
         id="rect3728"
         inkscape:connector-curvature="0"
         sodipodi:nodetypes="cccccccccsccccc" />
      <rect
         width="1"
         x="24"
         y="6"
         height="84"
         style="opacity:.1;fill:#fff"
         id="rect3941" />
      <rect
         width="1"
         x="23"
         y="6"
         height="84"
         style="opacity:.1"
         id="rect3943" />
      <g
         style="fill:#784421;font-family:Century Schoolbook L"
         id="g80">
        <path
           style="opacity:0.55899999;fill-rule:evenodd"
           id="path3189"
           d="m 28,10 c 0,2.135362 0,4.360077 0,6.1984 1.685767,0 3.371533,0 5.0573,0 l 0,4.1426 -1.4984,0 c 0,-0.872133 0,-1.744267 0,-2.6164 -1.218196,0 -2.504807,0 -3.5588,0 0,1.237119 0,2.543063 0,3.6132 0.8533,0 1.7066,0 2.5599,0 l 0,53.3246 c -0.8533,0 -1.7066,0 -2.5599,0 0,1.247915 0,2.564936 0,3.6443 1.310448,0 2.359006,0 3.5588,0 0,-0.882533 0,-1.765067 0,-2.6476 l 1.4984,0 0,4.1426 c -1.685767,0 -3.371533,0 -5.0573,0 0,2.13535 0,4.36005 0,6.198362 2.085868,0 4.260181,0 6.056189,0 0,-1.73388 0,-3.467761 0,-5.201641 l 4.24558,0 0,1.65082 c -0.884497,0 -1.768993,0 -2.65349,0 0,1.215466 0,2.499191 0,3.550822 1.344157,0 2.4237,0 3.652449,0 0,-0.851367 0,-1.702734 0,-2.554101 l 35.3985,0 c 0,0.851367 0,1.702734 0,2.554101 1.355376,0 2.445274,0 3.683658,0 0,-1.307509 0,-2.353721 0,-3.550822 -0.8949,0 -1.789799,0 -2.684699,0 l 0,-1.65082 4.24558,0 c 0,1.73388 0,3.467761 0,5.201641 2.19301,0 4.101303,0 6.056189,0 0,-2.242418 0,-4.201497 0,-6.198362 -1.685743,0 -3.371487,0 -5.05723,0 l 0,-4.14262 1.52966,0 c 0,0.882513 0,1.765027 0,2.64754 1.299192,0 2.33746,0 3.527579,0 0,-1.341144 0,-2.418266 0,-3.644261 -0.842873,0 -1.685747,0 -2.52862,0 l 0,-53.3246 c 0.842873,0 1.685747,0 2.52862,0 0,-1.23709 0,-2.543001 0,-3.613112 -1.299192,0 -2.33746,0 -3.527579,0 0,0.87213 0,1.744261 0,2.616391 l -1.52966,0 0,-4.14262 c 1.685743,0 3.371487,0 5.05723,0 0,-2.13535 0,-4.36005 0,-6.198362 -2.085868,0 -4.260181,0 -6.056189,0 0,1.73388 0,3.467761 0,5.201641 l -4.24558,0 0,-1.65082 c 0.8949,0 1.789799,0 2.684699,0 0,-1.216545 0,-2.49907 0,-3.550824 -1.261542,0 -2.59262,0 -3.683658,0 0,0.86175 0,1.723501 0,2.585251 l -35.3985,0 c 0,-0.86175 0,-1.723501 0,-2.585251 -1.250707,0 -2.570671,0 -3.652449,0 0,1.305553 0,2.360046 0,3.550824 0.884497,0 1.768993,0 2.65349,0 l 0,1.65082 -4.24558,0 c 0,-1.73388 0,-3.467761 0,-5.201641 -2.085868,0 -4.260181,0 -6.056189,0 z m 0.999,0.9967 4.0583,0 0,4.2049 -4.0583,0 z m 7.6483,0 1.6545,0 0,1.5885 -1.6545,0 z m 39.051,0 1.6857,0 0,1.5885 -1.6857,0 z m 5.2445,0 4.0583,0 0,4.2049 -4.0583,0 z m -41.642,2.5541 35.3985,0 0,1.6508 c -0.8637,0 -1.7274,0 -2.5911,0 0,1.215457 0,2.499176 0,3.5508 1.321722,0 2.380618,0 3.5901,0 0,-0.851367 0,-1.702733 0,-2.5541 l 4.2456,0 0,4.1426 c -0.8845,0 -1.769,0 -2.6535,0 0,1.215457 0,2.499176 0,3.5508 1.250724,0 2.570707,0 3.6525,0 0,-0.851367 0,-1.702733 0,-2.5541 l 1.5297,0 0,53.3246 -1.5297,0 c 0,-0.851367 0,-1.702733 0,-2.5541 -1.344177,0 -2.423731,0 -3.6525,0 0,1.307539 0,2.353767 0,3.5509 0.8845,0 1.769,0 2.6535,0 l 0,4.1426 -4.2456,0 c 0,-0.851367 0,-1.702733 0,-2.5541 -1.229062,0 -2.526821,0 -3.5901,0 0,1.307539 0,2.353767 0,3.5509 0.8637,0 1.7274,0 2.5911,0 l 0,1.6508 -35.3985,0 0,-1.6508 c 0.8741,0 1.7482,0 2.6223,0 0,-1.307539 0,-2.353767 0,-3.5509 -1.239893,0 -2.548764,0 -3.6213,0 0,0.851367 0,1.702733 0,2.5541 l -4.2456,0 0,-4.1426 c 0.8949,0 1.7898,0 2.6847,0 0,-1.215492 0,-2.499246 0,-3.5509 -1.261556,0 -2.59265,0 -3.6837,0 0,0.851367 0,1.702733 0,2.5541 l -1.4984,0 0,-53.3246 1.4984,0 c 0,0.851367 0,1.702733 0,2.5541 1.355392,0 2.445299,0 3.6837,0 0,-1.307503 0,-2.353698 0,-3.5508 -0.8949,0 -1.7898,0 -2.6847,0 l 0,-4.1426 4.2456,0 c 0,0.851367 0,1.702733 0,2.5541 1.239893,0 2.548764,0 3.6213,0 0,-1.216537 0,-2.499053 0,-3.5508 -0.8741,0 -1.7482,0 -2.6223,0 z m 0,2.6475 1.6233,0 0,1.5885 -1.6233,0 z m 33.8065,0 1.5921,0 0,1.5885 -1.5921,0 z m -44.1082,2.4918 1.5609,0 0,1.6508 -1.5609,0 z m 54.4724,0 1.5297,0 0,1.6508 -1.5297,0 z m -49.4152,2.6475 1.6857,0 0,1.5885 -1.6857,0 z m 44.2331,0 1.6545,0 0,1.5885 -1.6545,0 z m -44.2331,51.7672 1.6857,0 0,1.5574 -1.6857,0 z m 44.2331,0 1.6545,0 0,1.5574 -1.6545,0 z m -49.2903,2.5541 1.5609,0 0,1.6508 -1.5609,0 z m 54.4724,0 1.5297,0 0,1.6508 -1.5297,0 z m -44.1707,2.5852 1.6233,0 0,1.5574 -1.6233,0 z m 33.8065,0 1.5921,0 0,1.5574 -1.5921,0 z m -44.1082,2.5541 4.0583,0 0,4.2049 -4.0583,0 z m 51.9438,0 4.0583,0 0,4.2049 -4.0583,0 z m -44.2955,2.6475 1.6545,0 0,1.5574 -1.6545,0 z m 39.051,0 1.6857,0 0,1.5574 -1.6857,0 z"
           inkscape:connector-curvature="0"
           sodipodi:nodetypes="ccccccccccccccccccccccccccccccccccccccccccccccccccccccccccccccccccccccccccccccccccccccccccccccccccccccccccccccccccccccccccccccccccccccccccccccccccccccccccccccccccccccccccccccccccccccccccccccccccccccccccccccccccccccccccccccc" />
        <g
           style="line-height:100%"
           id="g83">
          <path
             style="font-size:36px"
             id="text3202"
             d="m 45.6059,29.7205 -1.0168,0 -5.5682,14.1141 c -0.484187,1.25888 -0.581026,1.42835 -0.944166,1.8157 -0.38735,0.459978 -1.06521,0.75049 -1.71887,0.75049 h -0.09684 v 1.13784 h 6.41548 v -1.13784 h -0.484187 c -1.3073,0 -1.96096,-0.459978 -1.96096,-1.37993 0,-0.290512 0.07263,-0.629444 0.217884,-1.01679 l .7989,-2.1304 h 6.41548 l 1.3073,3.2441 c 0.145256,0.36314 0.193674,0.532606 0.193674,0.653653 0,0.387349 -0.605234,0.629443 -1.50098,0.629443 h -1.01679 v 1.13784 h 7.5049 v -1.13784 h -0.338933 c -1.21047,0 -1.47677,-0.193676 -2.03359,-1.5494 l -6.1734,-15.1309 m -1.1863,3.9703 2.7357,6.8755 -5.4229,0 2.6872,-6.8755 m 13.8879,-3.9945 -4.164,.2663 0,1.041 .8473,0 c 0.895746,0 1.041,0.169468 1.041,1.21047 v 9.41744 c 0,3.24405 -0.121047,4.81766 -0.435769,6.24602 h 0.919956 l 1.1863,-1.8883 c 0.992584,1.3073 2.13043,1.91254 3.63141,1.91254 2.97775,0 5.20501,-2.5904 5.20501,-6.07655 0,-3.48615 -2.03359,-5.93129 -4.93871,-5.93129 -1.47677,0 -2.37252,0.508398 -3.29247,1.88833 v -8.08593 m 2.8567,7.4323 c 1.8157,0 2.8325,1.76729 2.8325,4.93871 0,3.05038 -0.992586,4.79345 -2.75987,4.79345 -1.91254,0 -3.05038,-1.76729 -3.05038,-4.74504 0,-3.21984 1.041,-4.98713 2.97775,-4.98713 m 15.6305,6.8513 c -0.774697,1.74307 -1.59782,2.44515 -2.8567,2.44515 -1.93675,0 -3.14722,-1.76729 -3.14722,-4.59978 0,-2.92933 1.18626,-4.89029 2.97776,-4.89029 0.726276,0 1.35572,0.338933 1.35572,0.726281 0,0.07263 -0.0484,0.145257 -0.145258,0.290513 -0.387343,0.459977 -0.484185,0.702072 -0.484185,1.11363 0,0.798909 0.605239,1.35572 1.45256,1.35572 0.847324,0 1.47677,-0.677863 1.47677,-1.64624 0,-1.62203 -1.62203,-2.88091 -3.77666,-2.88091 -3.14722,0 -5.39869,2.5904 -5.39869,6.1976 0,3.43773 2.0578,5.81025 5.05976,5.81025 2.15463,0 3.38931,-0.992587 4.43031,-3.55878 l -.9442,-.3631" />
          <path
             style="font-size:6px"
             id="text3210"
             d="m 44.307,51.3996 -.1344,0 -.1379,.2158 c -0.229906,-0.183924 -0.385534,-0.244053 -0.643735,-0.244053 -0.279423,0 -0.498717,0.07782 -0.721548,0.258202 -0.350163,0.282959 -0.512866,0.640197 -0.512866,1.11769 0,0.360775 0.106111,0.66142 0.311256,0.891325 0.219294,0.24759 0.544698,0.392607 0.884251,0.392607 0.297108,0 0.505791,-0.09196 0.735695,-0.321867 l .1309,.3183 h 0.148554 v -0.77814 c 0,-0.190997 0,-0.194536 0.02123,-0.219295 0.03184,-0.03537 0.106111,-0.04952 0.297109,-0.04952 h 0.05305 v -0.166239 h -1.12477 v 0.166239 h 0.0672 c 0.297108,0 0.321868,0.01769 0.321868,0.21222 0,0.152092 -0.0283,0.293572 -0.07074,0.378459 -0.08843,0.173313 -0.314793,0.293572 -0.544697,0.293572 -0.226369,0 -0.456274,-0.116721 -0.576532,-0.293572 -0.130869,-0.194534 -0.187461,-0.445662 -0.187461,-0.824121 0,-0.78875 0.261739,-1.20965 0.753381,-1.20965 0.403217,0 0.682642,0.290035 0.827658,0.855955 h 0.152091 l -.0495,-.9939 m 1.1578,.9302 -.6119,.0389 0,.1521 .1273,0 c 0.130868,0 0.15209,0.02476 0.15209,0.176851 v 0.845343 0.14148 c 0,0.14148 -0.0389,0.166239 -0.265274,0.166239 h -0.01415 v 0.127332 h 0.894861 v -0.127332 h -0.01415 c -0.229904,0 -0.268812,-0.02476 -0.268812,-0.166239 v -0.14148 -0.367849 c 0,-0.173312 0.02476,-0.332478 0.06367,-0.413829 0.07428,-0.159164 0.233442,-0.268812 0.385533,-0.268812 0.09196,0 0.198073,0.05305 0.251127,0.123795 0.05305,0.07428 0.07782,0.183925 0.07782,0.3537 v 0.572995 0.14148 c 0,0.14148 -0.0389,0.166239 -0.268813,0.166239 h -0.01415 v 0.127332 h 0.894862 v -0.127332 h -0.01415 c -0.226367,0 -0.265274,-0.02476 -0.265274,-0.166239 v -0.14148 -0.555309 c 0,-0.254664 -0.01061,-0.318331 -0.07428,-0.438589 -0.08843,-0.169776 -0.268811,-0.272349 -0.477495,-0.272349 -0.226365,0 -0.403218,0.106111 -0.558846,0.339552 v -0.286497 m 2.3462,-.053 c -0.431514,0 -0.771067,0.385534 -0.771067,0.880713 0,0.484569 0.339553,0.87364 0.763992,0.87364 0.424441,0 0.763993,-0.389071 0.763993,-0.877177 0,-0.484568 -0.339552,-0.877176 -0.756918,-0.877176 m 0,.1521 c 0.24759,0 0.385533,0.258202 0.385533,0.725086 0,0.470421 -0.137943,0.725085 -0.392608,0.725085 -0.254663,0 -0.392607,-0.254664 -0.392607,-0.721548 0,-0.481031 0.134408,-0.728623 0.399682,-0.728623 m 1.5881,-.099 -.6296,.0389 0,.1521 .145,0 c 0.130869,0 0.152091,0.02476 0.152091,0.176851 v 0.845343 0.137943 c 0,0.145017 -0.0389,0.169776 -0.265275,0.169776 h -0.01415 v 0.127332 h 0.891324 v -0.127332 h -0.01415 c -0.226369,0 -0.265276,-0.02476 -0.265276,-0.169776 v -0.137943 -0.502255 c 0,-0.314792 0.173313,-0.548235 0.403218,-0.548235 0.09196,0 0.190999,0.04952 0.233443,0.116722 0.04952,0.0672 0.07074,0.169776 0.07074,0.314793 v 0.618975 0.14148 c 0,0.14148 -0.0389,0.166239 -0.268811,0.166239 h -0.01415 v 0.127332 h 0.894861 v -0.127332 h -0.01415 c -0.226369,0 -0.265276,-0.02476 -0.265276,-0.166239 v -0.14148 -0.470422 c 0,-0.353699 0.159165,-0.580068 0.406757,-0.580068 0.11672,0 0.212219,0.06721 0.2582,0.17685 0.03183,0.07782 0.04244,0.155629 0.04244,0.293571 v 0.580069 0.14148 c 0,0.14148 -0.0389,0.166239 -0.268811,0.166239 h -0.01415 v 0.127332 h 0.894861 v -0.127332 h -0.01415 c -0.226369,0 -0.265276,-0.02476 -0.265276,-0.169776 v -0.137943 -0.650809 c 0,-0.219293 -0.02123,-0.293571 -0.113184,-0.413829 -0.102553,-0.13086 -0.247572,-0.2016 -0.417346,-0.2016 -0.229906,0 -0.399683,0.109648 -0.551773,0.3537 -0.06013,-0.21222 -0.251128,-0.3537 -0.488107,-0.3537 -0.212219,0 -0.371384,0.102573 -0.509328,0.325405 v -0.27235 m 4.077,.8524 c 0.0035,-0.530549 -0.297107,-0.905472 -0.728621,-0.905472 -0.452736,0 -0.792289,0.392608 -0.792289,0.923158 0,0.495179 0.321868,0.831195 0.799363,0.831195 0.336015,0 0.576532,-0.166239 0.721548,-0.502255 l -.1238,-.0672 c -0.145017,0.272349 -0.293572,0.378459 -0.530552,0.378459 -0.180386,0 -0.311255,-0.07782 -0.403217,-0.233441 -0.06367,-0.10611 -0.09196,-0.229905 -0.08843,-0.424441 h 1.14599 m -1.1425,-.1521 c 0,-0.109646 0.01415,-0.187461 0.04952,-0.286497 0.07428,-0.21222 0.187462,-0.314794 0.357238,-0.314794 0.215757,0 0.357238,0.187462 0.357238,0.470422 0,0.102573 -0.03184,0.130869 -0.145018,0.130869 h -0.618975 m 2.7318,.5129 0,.1026 c 0,0.148554 -0.03184,0.166239 -0.314792,0.166239 h -0.0672 v 0.166239 h 1.18843 c 0.314792,0 0.555309,-0.04952 0.74277,-0.155629 0.357237,-0.201608 0.55531,-0.604827 0.55531,-1.13538 0,-0.484568 -0.176852,-0.870102 -0.502255,-1.08232 -0.194535,-0.123795 -0.456274,-0.180388 -0.859491,-0.180388 h -1.12477 v 0.166239 h 0.0672 c 0.282959,0 0.314792,0.01769 0.314792,0.166239 v 0.102573 1.68361 m .5978,.2688 c -0.176851,0 -0.20161,-0.02123 -0.20161,-0.194536 v -1.82863 c 0,-0.173312 0.02476,-0.198072 0.20161,-0.198072 h 0.183923 c 0.604827,0 0.855954,0.328943 0.855954,1.11062 0,0.792288 -0.229904,1.11062 -0.799362,1.11062 h -0.240515 m 2.3958,-1.482 -.665,.0389 0,.1521 .1804,0 c 0.130869,0 0.152092,0.02476 0.152092,0.176851 v 0.845343 0.14148 c 0,0.14148 -0.0389,0.166239 -0.265275,0.166239 h -0.02476 v 0.127332 h 0.916084 v -0.127332 h -0.02476 c -0.229904,0 -0.268812,-0.02476 -0.268812,-0.166239 v -0.14148 -1.21319 m -.1662,-.8807 c -0.113184,0 -0.205146,0.09196 -0.205146,0.205146 0,0.109647 0.09196,0.205146 0.201609,0.205146 0.116721,0 0.208683,-0.09196 0.208683,-0.205146 0,-0.113184 -0.09196,-0.205146 -0.205146,-0.205146 m 1.9187,2.009 c -0.113184,0.254665 -0.233442,0.357238 -0.417366,0.357238 -0.282959,0 -0.459811,-0.258201 -0.459811,-0.672031 0,-0.427976 0.173313,-0.714474 0.435052,-0.714474 0.10611,0 0.198072,0.04952 0.198072,0.10611 0,0.01061 -0.007,0.02123 -0.02123,0.04244 -0.05659,0.0672 -0.07074,0.102573 -0.07074,0.162701 0,0.116721 0.08843,0.198072 0.21222,0.198072 0.123795,0 0.215758,-0.09904 0.215758,-0.240515 0,-0.236979 -0.23698,-0.420903 -0.551772,-0.420903 -0.459811,0 -0.788752,0.378459 -0.788752,0.905471 0,0.502255 0.300646,0.848881 0.739233,0.848881 0.314792,0 0.49518,-0.145017 0.647272,-0.519939 l -.1379,-.053 m .8855,-1.1283 0,-.7003 -.145,0 c -0.03537,0.459809 -0.190997,0.693252 -0.477495,0.714474 v 0.137943 h 0.290034 v 0.901936 c 0,0.247589 0.007,0.336015 0.04244,0.417365 0.05659,0.148554 0.198072,0.229906 0.403218,0.229906 0.137942,0 0.258201,-0.04244 0.339552,-0.120259 0.116721,-0.113183 0.183924,-0.300645 0.183924,-0.495179 0,-0.02123 0,-0.04598 -0.0035,-0.08135 h -0.148554 c -0.01061,0.31833 -0.102572,0.481032 -0.275886,0.481032 -0.08135,0 -0.15209,-0.04244 -0.17685,-0.102573 -0.02123,-0.04952 -0.03184,-0.137943 -0.03184,-0.265275 v -0.965601 h 0.519939 v -0.152091 h -0.519939 m 1.4172,0 -.665,.0389 0,.1521 .1804,0 c 0.130869,0 0.152091,0.02476 0.152091,0.17685 v 0.845344 0.14148 c 0,0.141479 -0.0389,0.166239 -0.265274,0.166239 h -0.02476 v 0.127332 h 0.916083 v -0.127332 h -0.02476 c -0.229904,0 -0.268812,-0.02476 -0.268812,-0.166239 v -0.14148 -1.21319 m -.1662,-.8807 c -0.113183,0 -0.205146,0.09196 -0.205146,0.205146 0,0.109648 0.09196,0.205146 0.20161,0.205146 0.11672,0 0.208683,-0.09196 0.208683,-0.205146 0,-0.113183 -0.09196,-0.205146 -0.205147,-0.205146 m 1.4412,.8277 c -0.431514,0 -0.771066,0.385534 -0.771066,0.880713 0,0.484569 0.339552,0.87364 0.763992,0.87364 0.42444,0 0.763992,-0.389071 0.763992,-0.877177 0,-0.484568 -0.339552,-0.877176 -0.756918,-0.877176 m 0,.1521 c 0.247591,0 0.385533,0.258202 0.385533,0.725086 0,0.470421 -0.137942,0.725085 -0.392607,0.725085 -0.254663,0 -0.392607,-0.254664 -0.392607,-0.721548 0,-0.481031 0.134407,-0.728623 0.399681,-0.728623 m 1.5846,-.099 -.6119,.0389 0,.1521 .1273,0 c 0.130869,0 0.152091,0.02476 0.152091,0.176851 v 0.845343 0.14148 c 0,0.14148 -0.0389,0.166239 -0.265276,0.166239 h -0.01415 v 0.127332 h 0.89486 v -0.127332 h -0.01415 c -0.229904,0 -0.268811,-0.02476 -0.268811,-0.166239 v -0.14148 -0.367849 c 0,-0.173312 0.02476,-0.332478 0.06367,-0.413829 0.07428,-0.159164 0.233442,-0.268812 0.385533,-0.268812 0.09196,0 0.198072,0.05305 0.251127,0.123795 0.05305,0.07428 0.07782,0.183925 0.07782,0.3537 v 0.572995 0.14148 c 0,0.14148 -0.0389,0.166239 -0.268812,0.166239 h -0.01415 v 0.127332 h 0.894861 v -0.127332 h -0.01415 c -0.226368,0 -0.265275,-0.02476 -0.265275,-0.166239 v -0.14148 -0.55531 c 0,-0.254663 -0.01061,-0.31833 -0.07428,-0.438588 -0.08843,-0.169776 -0.268812,-0.272349 -0.477495,-0.272349 -0.226367,0 -0.403219,0.106111 -0.558847,0.339552 v -0.286497 m 3.0536,.5093 c 0,-0.222832 -0.0389,-0.336016 -0.141479,-0.420904 -0.116721,-0.09196 -0.290035,-0.14148 -0.516404,-0.14148 -0.396143,0 -0.689714,0.187462 -0.689714,0.442125 0,0.134406 0.08135,0.219294 0.205146,0.219294 0.109647,0 0.190998,-0.07428 0.190998,-0.180387 0,-0.04598 -0.01769,-0.0955 -0.05305,-0.145017 -0.02123,-0.02476 -0.02476,-0.03537 -0.02476,-0.04598 0,-0.07428 0.145016,-0.137943 0.314792,-0.137943 0.109647,0 0.233442,0.03537 0.290034,0.08843 0.0672,0.05659 0.09196,0.141481 0.09196,0.300645 v 0.137944 c -0.371385,0.06367 -0.48457,0.09196 -0.657883,0.159165 -0.304181,0.113183 -0.452735,0.279423 -0.452735,0.502253 0,0.251127 0.201609,0.41383 0.512864,0.41383 0.244052,0 0.463348,-0.09904 0.615438,-0.279424 0.05659,0.180387 0.145017,0.251128 0.311256,0.251128 0.159166,0 0.325406,-0.102574 0.325406,-0.205147 0,-0.02476 -0.01769,-0.04244 -0.03537,-0.04244 -0.01415,0 -0.0283,0.0035 -0.05305,0.01415 -0.05659,0.02123 -0.07074,0.02476 -0.09904,0.02476 -0.09904,0 -0.134407,-0.0672 -0.134407,-0.244053 v -0.710937 m -.3325,.4315 c 0,0.21222 -0.01061,0.261739 -0.07074,0.3537 -0.08843,0.130869 -0.251127,0.219294 -0.403217,0.219294 -0.159165,0 -0.279424,-0.116721 -0.279424,-0.275886 0,-0.148553 0.07428,-0.254664 0.229905,-0.328941 0.109647,-0.04952 0.24759,-0.08489 0.523476,-0.130869 v 0.162702 m 1.4029,-.9408 -.6261,.0389 0,.1521 .145,0 c 0.130869,0 0.152091,0.02476 0.152091,0.17685 v 0.845344 0.14148 c 0,0.141479 -0.0389,0.166239 -0.268812,0.166239 h -0.01415 v 0.127332 h 0.944382 v -0.127332 h -0.0672 c -0.226368,0 -0.265275,-0.02476 -0.265275,-0.166239 v -0.14148 -0.03537 c 0,-0.265275 0.04952,-0.534087 0.137944,-0.735697 0.08489,-0.198071 0.205146,-0.307719 0.353699,-0.325404 -0.04952,0.05659 -0.06367,0.09196 -0.06367,0.159165 0,0.113184 0.08135,0.194536 0.194534,0.194536 0.127333,0 0.215758,-0.0955 0.215758,-0.240517 0,-0.169775 -0.120258,-0.28296 -0.307719,-0.28296 -0.222832,0 -0.417366,0.180388 -0.530552,0.491644 v -0.438589 m 1.9289,1.199 -.3891,-.909 c -0.01415,-0.03184 -0.02123,-0.05659 -0.02123,-0.07428 0,-0.06367 0.04244,-0.08843 0.162703,-0.08843 h 0.07428 v -0.127333 h -0.841806 v 0.127333 h 0.0389 c 0.113184,0 0.17685,0.04952 0.240516,0.190998 l .5765,1.3052 -.0601,.1238 c -0.127331,0.268812 -0.29357,0.456273 -0.406755,0.456273 -0.03183,0 -0.05659,-0.01415 -0.05659,-0.03537 0,-0.007 0.0035,-0.01769 0.007,-0.03184 0.01061,-0.03184 0.01769,-0.06367 0.01769,-0.09196 0,-0.09196 -0.07782,-0.159165 -0.180387,-0.159165 -0.123795,0 -0.21222,0.09196 -0.21222,0.219294 0,0.155628 0.137943,0.272349 0.321867,0.272349 0.187461,0 0.346626,-0.09196 0.488106,-0.28296 0.109647,-0.148553 0.180387,-0.290034 0.336015,-0.682641 l .4032,-.9974 c 0.08843,-0.215757 0.162703,-0.286498 0.297109,-0.286498 h 0.02123 v -0.127332 h -0.707401 v 0.127332 h 0.05659 c 0.134407,0 0.190998,0.0389 0.190998,0.130869 0,0.03537 -0.01061,0.08136 -0.03537,0.14148 l -.3219,.7994" />
        </g>
      </g>
    </g>
  </g>
  <g
     id="layer5">
    <rect
       width="66"
       x="15"
       y="15"
       rx="12"
       height="66"
       ry="12"
       style="opacity:.1;fill:url(#linearGradient3613);filter:url(#filter3794);stroke:#fff;stroke-linecap:round;stroke-width:.5;clip-path:url(#clipPath3613)"
       id="rect3171"
       clip-path="url(#clipPath3613)" />
  </g>
</svg>
