<svg width="96" version="1.0" xmlns="http://www.w3.org/2000/svg" height="96" xmlns:xlink="http://www.w3.org/1999/xlink">
<defs id="defs2410">
<clipPath id="clipPath3613">
<rect width="84" x="6" y="6" rx="6" height="84" ry="6" style="fill:#fff;stroke:none" id="rect3615"/>
</clipPath>
<clipPath id="clipPath3724">
<path style="opacity:.2;fill:#f0f;stroke:none" id="path3726" d="m 32,24 0,48 48,0 0,-48 -48,0 z  m 25.375,6 c 2.27735,3.2e-05 4.36882,0.380506 6.28125,1.125 1.91238,0.729957 3.58186,1.76942 4.96875,3.15625 1.40143,1.37229 2.47624,3.07712 3.25,5.0625 0.773686,1.97082 1.15621,4.17452 1.15625,6.65625 -3.7e-05,0.905125 -0.0728,1.83031 -0.21875,2.75 -0.131423,0.905122 -0.316414,1.76164 -0.59375,2.59375 -0.262809,0.817528 -0.607927,1.59718 -1.03125,2.3125 -0.408793,0.700737 -0.91404,1.31821 -1.46875,1.84375 -0.554778,0.525553 -1.19095,0.943436 -1.90625,1.25 -0.70076,0.291976 -1.46581,0.437505 -2.3125,0.4375 -0.656962,5e-06 -1.24113,-0.124767 -1.78125,-0.34375 -0.525574,-0.218973 -0.995464,-0.51003 -1.375,-0.875 -0.379588,-0.364957 -0.68935,-0.78284 -0.9375,-1.25 -0.233601,-0.481744 -0.381183,-0.989043 -0.46875,-1.5 h -0.09375 c -0.262798,0.540154 -0.605863,1.08076 -1,1.5625 -0.394183,0.481758 -0.849475,0.885043 -1.375,1.25 -0.51097,0.35037 -1.09309,0.639375 -1.75,0.84375 -0.642356,0.204384 -1.3513,0.312505 -2.125,0.3125 -1.1241,5e-06 -2.1241,-0.216236 -3,-0.625 -0.861328,-0.408753 -1.58897,-0.988816 -2.1875,-1.71875 -0.598552,-0.744518 -1.05384,-1.61975 -1.375,-2.65625 -0.30658,-1.03648 -0.468761,-2.18201 -0.46875,-3.4375 -1.1e-05,-1.47444 0.232881,-2.83621 0.65625,-4.0625 0.437944,-1.22626 1.04082,-2.26572 1.84375,-3.15625 0.817503,-0.890489 1.81545,-1.59738 2.96875,-2.09375 1.15327,-0.496327 2.44432,-0.749977 3.875,-0.75 0.656913,2.3e-05 1.31179,0.03538 1.96875,0.09375 0.656911,0.05842 1.27644,0.147833 1.875,0.25 0.598515,0.102212 1.15987,0.212386 1.65625,0.34375 0.510923,0.116811 0.914207,0.226984 1.25,0.34375 l -.5,9.125 c -0.01463,0.321181 -0.01667,0.576883 -0.03125,0.78125 -2.6e-05,0.189793 -2.6e-05,0.351973 0,0.46875 -2.6e-05,0.1168 -2.6e-05,0.191618 0,0.25 -2.6e-05,0.05841 -2.6e-05,0.112466 0,0.15625 -2.6e-05,0.773733 0.07274,1.40991 0.21875,1.90625 0.160557,0.49636 0.345548,0.895538 0.59375,1.1875 0.248147,0.291979 0.537152,0.476969 0.84375,0.59375 0.321139,0.102197 0.664205,0.156258 1,0.15625 0.671503,8e-06 1.23902,-0.218286 1.75,-0.65625 0.510917,-0.452546 0.945451,-1.05337 1.28125,-1.8125 0.350332,-0.759113 0.606034,-1.63434 0.78125,-2.65625 0.175149,-1.02188 0.281217,-2.1113 0.28125,-3.25 -3.3e-05,-2.07297 -0.341046,-3.92539 -0.96875,-5.53125 -0.627769,-1.62041 -1.48429,-2.98424 -2.59375,-4.09375 -1.10952,-1.10946 -2.43593,-1.93063 -3.96875,-2.5 -1.51827,-0.583913 -3.17315,-0.874971 -4.96875,-0.875 -2.46717,2.9e-05 -4.64805,0.40126 -6.53125,1.21875 -1.88322,0.802947 -3.46534,1.91517 -4.75,3.375 -1.27008,1.44528 -2.21807,3.18752 -2.875,5.1875 -0.65694,1.98542 -1.00001,4.1663 -1,6.53125 -6e-06,2.20439 0.305651,4.13573 0.875,5.84375 0.583935,1.70803 1.42175,3.14462 2.53125,4.3125 1.12408,1.16789 2.5066,2.05771 4.15625,2.65625 1.66422,0.59854 3.57275,0.90625 5.71875,0.90625 0.890491,0 1.76367,-0.0541 2.625,-0.15625 0.875889,-0.10219 1.72831,-0.23107 2.53125,-0.40625 0.817493,-0.17519 1.58255,-0.37478 2.3125,-0.59375 0.7299,-0.23358 1.40349,-0.47058 2.03125,-0.71875 v 3.09375 c -1.2555,0.55474 -2.67338,0.99133 -4.25,1.3125 -1.57666,0.32116 -3.32096,0.46875 -5.21875,0.46875 -2.61315,0 -4.94162,-0.38048 -7,-1.125 -2.04381,-0.74453 -3.7881,-1.8027 -5.21875,-3.21875 -1.41606,-1.43066 -2.47423,-3.17495 -3.21875,-5.21875 -0.744528,-2.05839 -1.125,-4.38685 -1.125,-7 -2e-06,-2.74451 0.419933,-5.32252 1.28125,-7.6875 0.861309,-2.37954 2.09625,-4.419 3.6875,-6.15625 1.60583,-1.7372 3.54972,-3.10102 5.8125,-4.09375 2.27736,-0.992669 4.80746,-1.49997 7.625,-1.5 z  m -.4688,11.5312 c -1.08031,2.1e-05 -2.00549,0.201662 -2.75,0.625 -0.729944,0.423377 -1.31411,0.970138 -1.78125,1.65625 -0.45257,0.686149 -0.795635,1.46785 -1,2.34375 -0.204394,0.875927 -0.312515,1.7824 -0.3125,2.6875 -1.5e-05,1.94162 0.363808,3.34285 1.09375,4.21875 0.74451,0.861322 1.75911,1.28126 3,1.28125 0.802901,8e-06 1.49314,-0.147575 2.0625,-0.46875 0.569321,-0.335758 1.01002,-0.807701 1.375,-1.40625 0.364941,-0.613129 0.653946,-1.32412 0.84375,-2.15625 0.189758,-0.846703 0.316583,-1.77394 0.375,-2.78125 l .3125,-5.5625 c -0.408782,-0.116768 -0.89943,-0.224889 -1.46875,-0.3125 -0.554766,-0.10217 -1.13688,-0.124979 -1.75,-0.125 z "/>
</clipPath>
<clipPath id="clipPath3674">
<g style="fill:#fff;font-family:Droid Sans;text-align:start;stroke:none;line-height:125%;font-size:44.84671402px" id="g3676" transform="translate(0,-0.500001)">
<path id="path3678" d="m 73.0365,46.0073 c -3.7e-05,0.905125 -0.07303,1.81753 -0.218978,2.73723 -0.131423,0.905122 -0.335803,1.77373 -0.613139,2.60584 -0.262809,0.817528 -0.605874,1.58395 -1.0292,2.29927 -0.408793,0.700737 -0.890545,1.31388 -1.44526,1.83942 -0.554778,0.525553 -1.18981,0.941611 -1.90511,1.24818 -0.70076,0.291976 -1.47448,0.437961 -2.32117,0.437956 -0.656962,5e-06 -1.2555,-0.109484 -1.79562,-0.328467 -0.525574,-0.218973 -0.978128,-0.510943 -1.35766,-0.875913 -0.379588,-0.364957 -0.693456,-0.781015 -0.941606,-1.24818 -0.233601,-0.481744 -0.394185,-0.978094 -0.481752,-1.48905 h -0.08759 c -0.262798,0.540154 -0.591265,1.0511 -0.985402,1.53285 -0.394183,0.481758 -0.854037,0.905116 -1.37956,1.27007 -0.51097,0.35037 -1.09491,0.627742 -1.75182,0.832117 -0.642356,0.204384 -1.35038,0.306574 -2.12409,0.306569 -1.1241,5e-06 -2.1241,-0.204375 -3,-0.613139 -0.861328,-0.408753 -1.59125,-0.978095 -2.18978,-1.70803 -0.598552,-0.744518 -1.05841,-1.63503 -1.37956,-2.67153 -0.30658,-1.03648 -0.459865,-2.18247 -0.459854,-3.43796 -1.1e-05,-1.47444 0.211668,-2.8248 0.635037,-4.0511 0.437944,-1.22626 1.05838,-2.28465 1.86131,-3.17518 0.817503,-0.890489 1.8029,-1.58392 2.9562,-2.08029 1.15327,-0.496327 2.44524,-0.744502 3.87591,-0.744525 0.656913,2.3e-05 1.31385,0.02922 1.9708,0.08759 0.656911,0.05842 1.28465,0.138709 1.88321,0.240876 0.598515,0.102212 1.14596,0.219001 1.64234,0.350365 0.510923,0.116811 0.93428,0.233599 1.27007,0.350365 l -.5036,9.1095 c -0.01463,0.321181 -0.02922,0.583955 -0.0438,0.788322 -2.6e-05,0.189793 -2.6e-05,0.343077 0,0.459854 -2.6e-05,0.1168 -2.6e-05,0.204391 0,0.262773 -2.6e-05,0.05841 -2.6e-05,0.109501 0,0.153285 -2.6e-05,0.773733 0.07297,1.40877 0.218978,1.90511 0.160557,0.49636 0.364937,0.89052 0.613139,1.18248 0.248147,0.291979 0.525519,0.496358 0.832117,0.613139 0.321139,0.102197 0.649606,0.153292 0.985401,0.153284 0.671503,8e-06 1.26274,-0.21897 1.77372,-0.656934 0.510917,-0.452546 0.934274,-1.05839 1.27007,-1.81752 0.350332,-0.759113 0.613105,-1.64962 0.788321,-2.67153 0.175149,-1.02188 0.26274,-2.10218 0.262773,-3.24088 -3.3e-05,-2.07297 -0.313901,-3.91239 -0.941605,-5.51825 -0.627769,-1.62041 -1.49638,-2.98538 -2.60584,-4.09489 -1.10952,-1.10946 -2.43068,-1.94888 -3.9635,-2.51825 -1.51827,-0.583913 -3.1752,-0.875883 -4.9708,-0.875912 -2.46717,2.9e-05 -4.64235,0.408787 -6.52555,1.22628 -1.88322,0.802947 -3.46716,1.93433 -4.75182,3.39416 -1.27008,1.44528 -2.23358,3.1679 -2.89051,5.16788 -0.65694,1.98542 -0.985407,4.1606 -0.985401,6.52555 -6e-06,2.20439 0.284665,4.16059 0.854014,5.86861 0.583935,1.70803 1.43065,3.14599 2.54015,4.31387 1.12408,1.16788 2.51094,2.0511 4.16058,2.64964 1.66422,0.59854 3.56933,0.897809 5.71533,0.89781 0.890491,-1e-06 1.7664,-0.0511 2.62774,-0.153284 0.875889,-0.102191 1.71531,-0.240877 2.51825,-0.416059 0.817493,-0.175182 1.59121,-0.372263 2.32117,-0.591241 0.7299,-0.233576 1.40873,-0.474452 2.0365,-0.722627 v 3.08759 c -1.2555,0.554742 -2.67156,0.992697 -4.24818,1.31387 -1.57666,0.321164 -3.31389,0.481748 -5.21168,0.481752 -2.61315,-4e-06 -4.94892,-0.372266 -7.0073,-1.11679 -2.04381,-0.744528 -3.78103,-1.82482 -5.21168,-3.24088 -1.41606,-1.43066 -2.49635,-3.16788 -3.24088,-5.21168 -0.744528,-2.05839 -1.11679,-4.39415 -1.11679,-7.0073 -2e-06,-2.74451 0.430654,-5.29925 1.29197,-7.66423 0.861309,-2.37954 2.08758,-4.43793 3.67883,-6.17518 1.60583,-1.7372 3.54013,-3.10216 5.80292,-4.09489 2.27736,-0.992669 4.8248,-1.48902 7.64234,-1.48905 2.27735,3.2e-05 4.37224,0.372295 6.28467,1.11679 1.91238,0.729957 3.56201,1.78835 4.94891,3.17518 1.40143,1.37229 2.48902,3.05112 3.26277,5.0365 0.773686,1.97082 1.16055,4.1971 1.16058,6.67883 m -21.9635,2.8248 c -1.5e-05,1.94162 0.364948,3.35037 1.09489,4.22628 0.74451,0.861322 1.73721,1.29198 2.9781,1.29197 0.802901,8e-06 1.48903,-0.160576 2.05839,-0.481751 0.569321,-0.335758 1.03647,-0.802911 1.40146,-1.40146 0.364941,-0.613129 0.642313,-1.33576 0.832117,-2.16788 0.189758,-0.846703 0.313846,-1.77371 0.372263,-2.78102 l .3066,-5.5401 c -0.408782,-0.116768 -0.897833,-0.218958 -1.46715,-0.306569 -0.554766,-0.10217 -1.13871,-0.153264 -1.75182,-0.153285 -1.08031,2.1e-05 -1.99272,0.211699 -2.73723,0.635037 -0.729944,0.423377 -1.32848,0.978121 -1.79562,1.66423 -0.45257,0.686149 -0.781037,1.46717 -0.985402,2.34307 -0.204394,0.875927 -0.306584,1.76644 -0.306569,2.67153"/>
</g>
</clipPath>
<filter width="1.3839999" x="-0.192" y="-0.192" height="1.3839999" style="color-interpolation-filters:sRGB" id="filter3794">
<feGaussianBlur stdDeviation="5.28" id="feGaussianBlur3796"/>
</filter>
<filter style="color-interpolation-filters:sRGB" id="filter3669">
<feGaussianBlur stdDeviation="0.52554746" id="feGaussianBlur3671"/>
</filter>
<filter style="color-interpolation-filters:sRGB" id="filter3174">
<feGaussianBlur stdDeviation="1.71" id="feGaussianBlur3176"/>
</filter>
<linearGradient gradientTransform="matrix(1.0238095,0,0,1.0119048,-1.1428571,-98.071429)" id="linearGradient3725" xlink:href="#ButtonShadow-0" y1="6.1317081" x1="32.251034" y2="90.238609" x2="32.251034" gradientUnits="userSpaceOnUse"/>
<linearGradient gradientTransform="matrix(1.0238095,0,0,1.0119048,-1.1428571,-98.071429)" id="linearGradient3772" xlink:href="#ButtonShadow-0" y1="6.1317081" x1="32.251034" y2="90.238609" x2="32.251034" gradientUnits="userSpaceOnUse"/>
<linearGradient gradientTransform="matrix(1.0058652,0,0,0.994169,100,0)" id="ButtonShadow-0" y1="92.539597" x1="45.447727" y2="7.0165396" x2="45.447727" gradientUnits="userSpaceOnUse">
<stop offset="0" id="stop3750-8"/>
<stop offset="1" style="stop-opacity:.588" id="stop3752-5"/>
</linearGradient>
<linearGradient id="linearGradient3751" xlink:href="#linearGradient3745" y1="22" x1="9" y2="26" x2="9" gradientUnits="userSpaceOnUse"/>
<linearGradient gradientTransform="matrix(1.0238095,0,0,1.0119048,-1.1428571,-98.071429)" id="linearGradient3780" xlink:href="#ButtonShadow-0" y1="6.1317081" x1="32.251034" y2="90.238609" x2="32.251034" gradientUnits="userSpaceOnUse"/>
<linearGradient gradientTransform="matrix(0,1,1,0,-10,10)" id="linearGradient3784" xlink:href="#linearGradient3778" y1="24" x1="10" y2="24" x2="18" gradientUnits="userSpaceOnUse"/>
<linearGradient spreadMethod="reflect" id="linearGradient3767" xlink:href="#linearGradient3761" y1="24" x1="4" y2="24" x2="12" gradientUnits="userSpaceOnUse"/>
<linearGradient gradientTransform="translate(0,-97)" id="linearGradient3721" xlink:href="#ButtonShadow-0" y1="6.1317081" x1="32.251034" y2="90.238609" x2="32.251034" gradientUnits="userSpaceOnUse"/>
<linearGradient id="linearGradient3633" xlink:href="#linearGradient3627" y1="90" x1="54.75" y2="5.9794726" x2="54.75" gradientUnits="userSpaceOnUse"/>
<linearGradient id="linearGradient3640">
<stop offset="0" style="stop-color:#1a1a1a" id="stop3642"/>
<stop offset="1" style="stop-color:#2a2a2a" id="stop3644"/>
</linearGradient>
<linearGradient id="linearGradient3646" xlink:href="#linearGradient3640" y1="88" x1="16" y2="8" x2="16" gradientUnits="userSpaceOnUse"/>
<linearGradient id="linearGradient3745">
<stop offset="0" style="stop-color:#8a8a8a" id="stop3747"/>
<stop offset="0.40964222" style="stop-color:#d5d5d5" id="stop3753"/>
<stop offset="0.72741055" style="stop-color:#6f6f6f" id="stop3755"/>
<stop offset="1" style="stop-color:#373737" id="stop3749"/>
</linearGradient>
<linearGradient id="linearGradient3778">
<stop offset="0" id="stop3780"/>
<stop offset="0.5" style="stop-opacity:0" id="stop3786"/>
<stop offset="1" style="stop-color:#fff" id="stop3782"/>
</linearGradient>
<linearGradient id="linearGradient3761">
<stop offset="0" id="stop3763"/>
<stop offset="0.5" style="stop-opacity:.194" id="stop3769"/>
<stop offset="1" style="stop-opacity:0" id="stop3765"/>
</linearGradient>
<linearGradient id="linearGradient3627">
<stop offset="0" style="stop-color:#5f101a" id="stop3629"/>
<stop offset="1" style="stop-color:#811524" id="stop3631"/>
</linearGradient>
<linearGradient gradientTransform="matrix(1.0238095,0,0,1.0119048,-1.1428571,-98.071429)" id="linearGradient3059" xlink:href="#ButtonShadow-0" y1="6.1317081" x1="32.251034" y2="90.238609" x2="32.251034" gradientUnits="userSpaceOnUse"/>
<linearGradient id="linearGradient3613" xlink:href="#linearGradient3737" y1="20.220806" x1="48" y2="138.66119" x2="48" gradientUnits="userSpaceOnUse"/>
<linearGradient gradientTransform="scale(1.0058652,0.994169)" id="ButtonShadow" y1="92.539597" x1="45.447727" y2="7.0165396" x2="45.447727" gradientUnits="userSpaceOnUse">
<stop offset="0" id="stop3750"/>
<stop offset="1" style="stop-opacity:.588" id="stop3752"/>
</linearGradient>
<linearGradient id="linearGradient3188" xlink:href="#linearGradient3737" y1="6" x1="36.357143" y2="63.893143" x2="36.357143" gradientUnits="userSpaceOnUse"/>
<linearGradient id="linearGradient3737">
<stop offset="0" style="stop-color:#fff" id="stop3739"/>
<stop offset="1" style="stop-color:#fff;stop-opacity:0" id="stop3741"/>
</linearGradient>
<radialGradient fx="48" fy="90.171875" cx="48" cy="90.171875" gradientTransform="matrix(1.1573129,0,0,0.99590774,-7.5510206,0.19713193)" r="42" id="radialGradient3619" xlink:href="#linearGradient3737" gradientUnits="userSpaceOnUse"/>
</defs>
<g style="display:none" id="layer2">
<rect width="86" x="5" y="7" rx="6" height="85" ry="6" style="opacity:.9;fill:url(#ButtonShadow);filter:url(#filter3174);stroke:none" id="rect3745"/>
</g>
<g style="stroke:none" id="layer6">
<path style="opacity:.08;fill:url(#linearGradient3059)" id="path3786" d="m 12,-95.0312 c -5.51109,0 -10.0312,4.52016 -10.0312,10.0312 v 71 c 0,5.51109 4.52016,10.0312 10.0312,10.0312 h 72 c 5.51109,0 10.0312,-4.52016 10.0312,-10.0312 v -71 c 0,-5.51109 -4.52016,-10.0312 -10.0312,-10.0312 h -72 z " transform="scale(1,-1)"/>
<path style="opacity:.1;fill:url(#linearGradient3780)" id="path3778" d="m 12,-94.0312 c -4.97163,0 -9.03125,4.05962 -9.03125,9.03125 v 71 c 0,4.97163 4.05962,9.03125 9.03125,9.03125 h 72 c 4.97163,0 9.03125,-4.05962 9.03125,-9.03125 v -71 c 0,-4.97163 -4.05962,-9.03125 -9.03125,-9.03125 h -72 z " transform="scale(1,-1)"/>
<path style="opacity:.2;fill:url(#linearGradient3772)" id="path3770" d="m 12,-93 c -4.40913,0 -8,3.59087 -8,8 v 71 c 0,4.40913 3.59087,8 8,8 h 72 c 4.40913,0 8,-3.59087 8,-8 v -71 c 0,-4.40913 -3.59087,-8 -8,-8 h -72 z " transform="scale(1,-1)"/>
<rect width="86" x="5" y="-92" rx="7" height="85" ry="7" style="opacity:.3;fill:url(#linearGradient3725)" id="rect3723" transform="scale(1,-1)"/>
<rect width="84" x="6" y="-91" rx="6" height="84" ry="6" style="opacity:.45;fill:url(#linearGradient3721)" id="rect3716" transform="scale(1,-1)"/>
</g>
<g style="stroke:none" id="layer1">
<rect width="84" x="6" y="6" rx="6" height="84" ry="6" style="fill:url(#linearGradient3633)" id="rect2419"/>
<rect width="1" x="24" y="6" height="84" style="opacity:.15;fill:#fff" id="rect3650"/>
<path style="fill:url(#linearGradient3646)" id="rect3635" d="m 12,6 c -3.324,0 -6,2.676 -6,6 v 72 c 0,3.324 2.676,6 6,6 h 12 v -84 h -12 z "/>
<rect width="1" x="23" y="6" height="84" style="opacity:.4" id="rect3648"/>
<path style="opacity:.3;fill:url(#linearGradient3188)" id="rect3728" d="m 12,6 c -3.324,0 -6,2.676 -6,6 v 2 68 2 c 0,0.334721 0.04135,0.6507 0.09375,0.96875 0.0487,0.295596 0.09704,0.596915 0.1875,0.875 0.00988,0.03038 0.020892,0.0636 0.03125,0.09375 0.098865,0.287771 0.23488,0.547452 0.375,0.8125 0.144592,0.273507 0.315616,0.535615 0.5,0.78125 0.184384,0.245635 0.373776,0.473472 0.59375,0.6875 0.439947,0.428056 0.94291,0.814526 1.5,1.09375 0.278545,0.139612 0.573473,0.246947 0.875,0.34375 -0.256202,-0.100222 -0.486711,-0.236272 -0.71875,-0.375 -0.00741,-0.0044 -0.023866,0.0045 -0.03125,0 -0.031933,-0.0193 -0.062293,-0.04251 -0.09375,-0.0625 -0.120395,-0.0767 -0.231023,-0.163513 -0.34375,-0.25 -0.106173,-0.0808 -0.213281,-0.161112 -0.3125,-0.25 -0.17793,-0.161433 -0.34746,-0.345388 -0.5,-0.53125 -0.107579,-0.130255 -0.218394,-0.265285 -0.3125,-0.40625 -0.025089,-0.03838 -0.038446,-0.08587 -0.0625,-0.125 -0.064763,-0.103032 -0.130228,-0.204517 -0.1875,-0.3125 -0.101008,-0.194706 -0.205675,-0.415701 -0.28125,-0.625 -0.00796,-0.02181 -0.023589,-0.04055 -0.03125,-0.0625 -0.0318251,-0.09195 -0.0358045,-0.186831 -0.0625,-0.28125 -0.0303323,-0.106618 -0.0703894,-0.203031 -0.09375,-0.3125 -0.0728786,-0.341512 -0.125,-0.698205 -0.125,-1.0625 v -2 -68 -2 c 0,-2.78185 2.21815,-5 5,-5 h 2 68 2 c 2.78185,0 5,2.21815 5,5 v 2 68 2 c 0,0.364295 -0.05212,0.720988 -0.125,1.0625 -0.04415,0.206893 -0.08838,0.397658 -0.15625,0.59375 -0.0077,0.02195 -0.0233,0.04069 -0.03125,0.0625 -0.06274,0.173739 -0.138383,0.367449 -0.21875,0.53125 -0.04158,0.0828 -0.07904,0.169954 -0.125,0.25 -0.0546,0.09721 -0.126774,0.18835 -0.1875,0.28125 -0.09411,0.140965 -0.204921,0.275995 -0.3125,0.40625 -0.143174,0.17445 -0.303141,0.346998 -0.46875,0.5 -0.01117,0.0102 -0.01998,0.02115 -0.03125,0.03125 -0.138386,0.125556 -0.285091,0.234436 -0.4375,0.34375 -0.102571,0.07315 -0.204318,0.153364 -0.3125,0.21875 -0.0074,0.0045 -0.02384,-0.0044 -0.03125,0 -0.232039,0.138728 -0.462548,0.274778 -0.71875,0.375 0.301527,-0.0968 0.596455,-0.204138 0.875,-0.34375 0.55709,-0.279224 1.06005,-0.665694 1.5,-1.09375 0.219973,-0.214028 0.409366,-0.441865 0.59375,-0.6875 0.184384,-0.245635 0.355408,-0.507743 0.5,-0.78125 0.14012,-0.265048 0.276135,-0.524729 0.375,-0.8125 0.01041,-0.03078 0.02133,-0.06274 0.03125,-0.09375 0.09046,-0.278085 0.1388,-0.579404 0.1875,-0.875 0.0524,-0.31805 0.09375,-0.634029 0.09375,-0.96875 v -2 -68 -2 c 0,-3.324 -2.676,-6 -6,-6 h -72 z "/>
<path style="opacity:.2;fill:url(#radialGradient3619)" id="path3615" d="M 12,90 C 8.676,90 6,87.324 6,84 L 6,82 6,14 6,12 c 0,-0.334721 0.04135,-0.6507 0.09375,-0.96875 0.0487,-0.295596 0.09704,-0.596915 0.1875,-0.875 C 6.29113,10.12587 6.302142,10.09265 6.3125,10.0625 6.411365,9.774729 6.5473802,9.515048 6.6875,9.25 6.8320918,8.976493 7.0031161,8.714385 7.1875,8.46875 7.3718839,8.223115 7.5612765,7.995278 7.78125,7.78125 8.221197,7.353194 8.72416,6.966724 9.28125,6.6875 9.559795,6.547888 9.8547231,6.440553 10.15625,6.34375 9.9000482,6.443972 9.6695391,6.580022 9.4375,6.71875 c -0.00741,0.0044 -0.023866,-0.0045 -0.03125,0 -0.031933,0.0193 -0.062293,0.04251 -0.09375,0.0625 -0.120395,0.0767 -0.2310226,0.163513 -0.34375,0.25 -0.1061728,0.0808 -0.2132809,0.161112 -0.3125,0.25 C 8.4783201,7.442683 8.3087904,7.626638 8.15625,7.8125 8.0486711,7.942755 7.9378561,8.077785 7.84375,8.21875 7.818661,8.25713 7.805304,8.30462 7.78125,8.34375 7.716487,8.446782 7.6510225,8.548267 7.59375,8.65625 7.4927417,8.850956 7.3880752,9.071951 7.3125,9.28125 7.30454,9.30306 7.288911,9.3218 7.28125,9.34375 7.2494249,9.4357 7.2454455,9.530581 7.21875,9.625 7.1884177,9.731618 7.1483606,9.828031 7.125,9.9375 7.0521214,10.279012 7,10.635705 7,11 l 0,2 0,68 0,2 c 0,2.781848 2.2181517,5 5,5 l 2,0 68,0 2,0 c 2.781848,0 5,-2.218152 5,-5 l 0,-2 0,-68 0,-2 C 89,10.635705 88.94788,10.279012 88.875,9.9375 88.83085,9.730607 88.78662,9.539842 88.71875,9.34375 88.71105,9.3218 88.69545,9.30306 88.6875,9.28125 88.62476,9.107511 88.549117,8.913801 88.46875,8.75 88.42717,8.6672 88.38971,8.580046 88.34375,8.5 88.28915,8.40279 88.216976,8.31165 88.15625,8.21875 88.06214,8.077785 87.951329,7.942755 87.84375,7.8125 87.700576,7.63805 87.540609,7.465502 87.375,7.3125 87.36383,7.3023 87.35502,7.29135 87.34375,7.28125 87.205364,7.155694 87.058659,7.046814 86.90625,6.9375 86.803679,6.86435 86.701932,6.784136 86.59375,6.71875 c -0.0074,-0.0045 -0.02384,0.0044 -0.03125,0 -0.232039,-0.138728 -0.462548,-0.274778 -0.71875,-0.375 0.301527,0.0968 0.596455,0.204138 0.875,0.34375 0.55709,0.279224 1.060053,0.665694 1.5,1.09375 0.219973,0.214028 0.409366,0.441865 0.59375,0.6875 0.184384,0.245635 0.355408,0.507743 0.5,0.78125 0.14012,0.265048 0.276135,0.524729 0.375,0.8125 0.01041,0.03078 0.02133,0.06274 0.03125,0.09375 0.09046,0.278085 0.1388,0.579404 0.1875,0.875 C 89.95865,11.3493 90,11.665279 90,12 l 0,2 0,68 0,2 c 0,3.324 -2.676,6 -6,6 l -72,0 z"/>
</g>
<g id="layer5">
<rect width="66" x="15" y="15" rx="12" height="66" ry="12" style="opacity:.1;fill:url(#linearGradient3613);filter:url(#filter3794);stroke:#fff;stroke-linecap:round;stroke-width:.5;clip-path:url(#clipPath3613)" id="rect3171"/>
</g>
<g style="line-height:125%;font-size:44.84671402px;font-family:Droid Sans;text-align:start" id="layer3">
<g style="opacity:.5;stroke-width:1.5;filter:url(#filter3669);fill:none;clip-path:url(#clipPath3724);stroke:#de8787" id="g3718">
<path id="path3720" d="m 73.0365,46.0073 c -3.7e-05,0.905125 -0.07303,1.81753 -0.218978,2.73723 -0.131423,0.905122 -0.335803,1.77373 -0.613139,2.60584 -0.262809,0.817528 -0.605874,1.58395 -1.0292,2.29927 -0.408793,0.700737 -0.890545,1.31388 -1.44526,1.83942 -0.554778,0.525553 -1.18981,0.941611 -1.90511,1.24818 -0.70076,0.291976 -1.47448,0.437961 -2.32117,0.437956 -0.656962,5e-06 -1.2555,-0.109484 -1.79562,-0.328467 -0.525574,-0.218973 -0.978128,-0.510943 -1.35766,-0.875913 -0.379588,-0.364957 -0.693456,-0.781015 -0.941606,-1.24818 -0.233601,-0.481744 -0.394185,-0.978094 -0.481752,-1.48905 h -0.08759 c -0.262798,0.540154 -0.591265,1.0511 -0.985402,1.53285 -0.394183,0.481758 -0.854037,0.905116 -1.37956,1.27007 -0.51097,0.35037 -1.09491,0.627742 -1.75182,0.832117 -0.642356,0.204384 -1.35038,0.306574 -2.12409,0.306569 -1.1241,5e-06 -2.1241,-0.204375 -3,-0.613139 -0.861328,-0.408753 -1.59125,-0.978095 -2.18978,-1.70803 -0.598552,-0.744518 -1.05841,-1.63503 -1.37956,-2.67153 -0.30658,-1.03648 -0.459865,-2.18247 -0.459854,-3.43796 -1.1e-05,-1.47444 0.211668,-2.8248 0.635037,-4.0511 0.437944,-1.22626 1.05838,-2.28465 1.86131,-3.17518 0.817503,-0.890489 1.8029,-1.58392 2.9562,-2.08029 1.15327,-0.496327 2.44524,-0.744502 3.87591,-0.744525 0.656913,2.3e-05 1.31385,0.02922 1.9708,0.08759 0.656911,0.05842 1.28465,0.138709 1.88321,0.240876 0.598515,0.102212 1.14596,0.219001 1.64234,0.350365 0.510923,0.116811 0.93428,0.233599 1.27007,0.350365 l -.5036,9.1095 c -0.01463,0.321181 -0.02922,0.583955 -0.0438,0.788322 -2.6e-05,0.189793 -2.6e-05,0.343077 0,0.459854 -2.6e-05,0.1168 -2.6e-05,0.204391 0,0.262773 -2.6e-05,0.05841 -2.6e-05,0.109501 0,0.153285 -2.6e-05,0.773733 0.07297,1.40877 0.218978,1.90511 0.160557,0.49636 0.364937,0.89052 0.613139,1.18248 0.248147,0.291979 0.525519,0.496358 0.832117,0.613139 0.321139,0.102197 0.649606,0.153292 0.985401,0.153284 0.671503,8e-06 1.26274,-0.21897 1.77372,-0.656934 0.510917,-0.452546 0.934274,-1.05839 1.27007,-1.81752 0.350332,-0.759113 0.613105,-1.64962 0.788321,-2.67153 0.175149,-1.02188 0.26274,-2.10218 0.262773,-3.24088 -3.3e-05,-2.07297 -0.313901,-3.91239 -0.941605,-5.51825 -0.627769,-1.62041 -1.49638,-2.98538 -2.60584,-4.09489 -1.10952,-1.10946 -2.43068,-1.94888 -3.9635,-2.51825 -1.51827,-0.583913 -3.1752,-0.875883 -4.9708,-0.875912 -2.46717,2.9e-05 -4.64235,0.408787 -6.52555,1.22628 -1.88322,0.802947 -3.46716,1.93433 -4.75182,3.39416 -1.27008,1.44528 -2.23358,3.1679 -2.89051,5.16788 -0.65694,1.98542 -0.985407,4.1606 -0.985401,6.52555 -6e-06,2.20439 0.284665,4.16059 0.854014,5.86861 0.583935,1.70803 1.43065,3.14599 2.54015,4.31387 1.12408,1.16788 2.51094,2.0511 4.16058,2.64964 1.66422,0.59854 3.56933,0.897809 5.71533,0.89781 0.890491,-1e-06 1.7664,-0.0511 2.62774,-0.153284 0.875889,-0.102191 1.71531,-0.240877 2.51825,-0.416059 0.817493,-0.175182 1.59121,-0.372263 2.32117,-0.591241 0.7299,-0.233576 1.40873,-0.474452 2.0365,-0.722627 v 3.08759 c -1.2555,0.554742 -2.67156,0.992697 -4.24818,1.31387 -1.57666,0.321164 -3.31389,0.481748 -5.21168,0.481752 -2.61315,-4e-06 -4.94892,-0.372266 -7.0073,-1.11679 -2.04381,-0.744528 -3.78103,-1.82482 -5.21168,-3.24088 -1.41606,-1.43066 -2.49635,-3.16788 -3.24088,-5.21168 -0.744528,-2.05839 -1.11679,-4.39415 -1.11679,-7.0073 -2e-06,-2.74451 0.430654,-5.29925 1.29197,-7.66423 0.861309,-2.37954 2.08758,-4.43793 3.67883,-6.17518 1.60583,-1.7372 3.54013,-3.10216 5.80292,-4.09489 2.27736,-0.992669 4.8248,-1.48902 7.64234,-1.48905 2.27735,3.2e-05 4.37224,0.372295 6.28467,1.11679 1.91238,0.729957 3.56201,1.78835 4.94891,3.17518 1.40143,1.37229 2.48902,3.05112 3.26277,5.0365 0.773686,1.97082 1.16055,4.1971 1.16058,6.67883 m -21.9635,2.8248 c -1.5e-05,1.94162 0.364948,3.35037 1.09489,4.22628 0.74451,0.861322 1.73721,1.29198 2.9781,1.29197 0.802901,8e-06 1.48903,-0.160576 2.05839,-0.481751 0.569321,-0.335758 1.03647,-0.802911 1.40146,-1.40146 0.364941,-0.613129 0.642313,-1.33576 0.832117,-2.16788 0.189758,-0.846703 0.313846,-1.77371 0.372263,-2.78102 l .3066,-5.5401 c -0.408782,-0.116768 -0.897833,-0.218958 -1.46715,-0.306569 -0.554766,-0.10217 -1.13871,-0.153264 -1.75182,-0.153285 -1.08031,2.1e-05 -1.99272,0.211699 -2.73723,0.635037 -0.729944,0.423377 -1.32848,0.978121 -1.79562,1.66423 -0.45257,0.686149 -0.781037,1.46717 -0.985402,2.34307 -0.204394,0.875927 -0.306584,1.76644 -0.306569,2.67153"/>
</g>
<g style="fill:#fff;stroke:none" id="text3653">
<path id="path3658" d="m 73.0365,46.0073 c -3.7e-05,0.905125 -0.07303,1.81753 -0.218978,2.73723 -0.131423,0.905122 -0.335803,1.77373 -0.613139,2.60584 -0.262809,0.817528 -0.605874,1.58395 -1.0292,2.29927 -0.408793,0.700737 -0.890545,1.31388 -1.44526,1.83942 -0.554778,0.525553 -1.18981,0.941611 -1.90511,1.24818 -0.70076,0.291976 -1.47448,0.437961 -2.32117,0.437956 -0.656962,5e-06 -1.2555,-0.109484 -1.79562,-0.328467 -0.525574,-0.218973 -0.978128,-0.510943 -1.35766,-0.875913 -0.379588,-0.364957 -0.693456,-0.781015 -0.941606,-1.24818 -0.233601,-0.481744 -0.394185,-0.978094 -0.481752,-1.48905 h -0.08759 c -0.262798,0.540154 -0.591265,1.0511 -0.985402,1.53285 -0.394183,0.481758 -0.854037,0.905116 -1.37956,1.27007 -0.51097,0.35037 -1.09491,0.627742 -1.75182,0.832117 -0.642356,0.204384 -1.35038,0.306574 -2.12409,0.306569 -1.1241,5e-06 -2.1241,-0.204375 -3,-0.613139 -0.861328,-0.408753 -1.59125,-0.978095 -2.18978,-1.70803 -0.598552,-0.744518 -1.05841,-1.63503 -1.37956,-2.67153 -0.30658,-1.03648 -0.459865,-2.18247 -0.459854,-3.43796 -1.1e-05,-1.47444 0.211668,-2.8248 0.635037,-4.0511 0.437944,-1.22626 1.05838,-2.28465 1.86131,-3.17518 0.817503,-0.890489 1.8029,-1.58392 2.9562,-2.08029 1.15327,-0.496327 2.44524,-0.744502 3.87591,-0.744525 0.656913,2.3e-05 1.31385,0.02922 1.9708,0.08759 0.656911,0.05842 1.28465,0.138709 1.88321,0.240876 0.598515,0.102212 1.14596,0.219001 1.64234,0.350365 0.510923,0.116811 0.93428,0.233599 1.27007,0.350365 l -.5036,9.1095 c -0.01463,0.321181 -0.02922,0.583955 -0.0438,0.788322 -2.6e-05,0.189793 -2.6e-05,0.343077 0,0.459854 -2.6e-05,0.1168 -2.6e-05,0.204391 0,0.262773 -2.6e-05,0.05841 -2.6e-05,0.109501 0,0.153285 -2.6e-05,0.773733 0.07297,1.40877 0.218978,1.90511 0.160557,0.49636 0.364937,0.89052 0.613139,1.18248 0.248147,0.291979 0.525519,0.496358 0.832117,0.613139 0.321139,0.102197 0.649606,0.153292 0.985401,0.153284 0.671503,8e-06 1.26274,-0.21897 1.77372,-0.656934 0.510917,-0.452546 0.934274,-1.05839 1.27007,-1.81752 0.350332,-0.759113 0.613105,-1.64962 0.788321,-2.67153 0.175149,-1.02188 0.26274,-2.10218 0.262773,-3.24088 -3.3e-05,-2.07297 -0.313901,-3.91239 -0.941605,-5.51825 -0.627769,-1.62041 -1.49638,-2.98538 -2.60584,-4.09489 -1.10952,-1.10946 -2.43068,-1.94888 -3.9635,-2.51825 -1.51827,-0.583913 -3.1752,-0.875883 -4.9708,-0.875912 -2.46717,2.9e-05 -4.64235,0.408787 -6.52555,1.22628 -1.88322,0.802947 -3.46716,1.93433 -4.75182,3.39416 -1.27008,1.44528 -2.23358,3.1679 -2.89051,5.16788 -0.65694,1.98542 -0.985407,4.1606 -0.985401,6.52555 -6e-06,2.20439 0.284665,4.16059 0.854014,5.86861 0.583935,1.70803 1.43065,3.14599 2.54015,4.31387 1.12408,1.16788 2.51094,2.0511 4.16058,2.64964 1.66422,0.59854 3.56933,0.897809 5.71533,0.89781 0.890491,-1e-06 1.7664,-0.0511 2.62774,-0.153284 0.875889,-0.102191 1.71531,-0.240877 2.51825,-0.416059 0.817493,-0.175182 1.59121,-0.372263 2.32117,-0.591241 0.7299,-0.233576 1.40873,-0.474452 2.0365,-0.722627 v 3.08759 c -1.2555,0.554742 -2.67156,0.992697 -4.24818,1.31387 -1.57666,0.321164 -3.31389,0.481748 -5.21168,0.481752 -2.61315,-4e-06 -4.94892,-0.372266 -7.0073,-1.11679 -2.04381,-0.744528 -3.78103,-1.82482 -5.21168,-3.24088 -1.41606,-1.43066 -2.49635,-3.16788 -3.24088,-5.21168 -0.744528,-2.05839 -1.11679,-4.39415 -1.11679,-7.0073 -2e-06,-2.74451 0.430654,-5.29925 1.29197,-7.66423 0.861309,-2.37954 2.08758,-4.43793 3.67883,-6.17518 1.60583,-1.7372 3.54013,-3.10216 5.80292,-4.09489 2.27736,-0.992669 4.8248,-1.48902 7.64234,-1.48905 2.27735,3.2e-05 4.37224,0.372295 6.28467,1.11679 1.91238,0.729957 3.56201,1.78835 4.94891,3.17518 1.40143,1.37229 2.48902,3.05112 3.26277,5.0365 0.773686,1.97082 1.16055,4.1971 1.16058,6.67883 m -21.9635,2.8248 c -1.5e-05,1.94162 0.364948,3.35037 1.09489,4.22628 0.74451,0.861322 1.73721,1.29198 2.9781,1.29197 0.802901,8e-06 1.48903,-0.160576 2.05839,-0.481751 0.569321,-0.335758 1.03647,-0.802911 1.40146,-1.40146 0.364941,-0.613129 0.642313,-1.33576 0.832117,-2.16788 0.189758,-0.846703 0.313846,-1.77371 0.372263,-2.78102 l .3066,-5.5401 c -0.408782,-0.116768 -0.897833,-0.218958 -1.46715,-0.306569 -0.554766,-0.10217 -1.13871,-0.153264 -1.75182,-0.153285 -1.08031,2.1e-05 -1.99272,0.211699 -2.73723,0.635037 -0.729944,0.423377 -1.32848,0.978121 -1.79562,1.66423 -0.45257,0.686149 -0.781037,1.46717 -0.985402,2.34307 -0.204394,0.875927 -0.306584,1.76644 -0.306569,2.67153"/>
</g>
<g style="opacity:.25;fill:none;stroke:#000;clip-path:url(#clipPath3674)" id="g3660" transform="translate(0,0.500001)">
<path id="path3662" d="m 73.0365,46.0073 c -3.7e-05,0.905125 -0.07303,1.81753 -0.218978,2.73723 -0.131423,0.905122 -0.335803,1.77373 -0.613139,2.60584 -0.262809,0.817528 -0.605874,1.58395 -1.0292,2.29927 -0.408793,0.700737 -0.890545,1.31388 -1.44526,1.83942 -0.554778,0.525553 -1.18981,0.941611 -1.90511,1.24818 -0.70076,0.291976 -1.47448,0.437961 -2.32117,0.437956 -0.656962,5e-06 -1.2555,-0.109484 -1.79562,-0.328467 -0.525574,-0.218973 -0.978128,-0.510943 -1.35766,-0.875913 -0.379588,-0.364957 -0.693456,-0.781015 -0.941606,-1.24818 -0.233601,-0.481744 -0.394185,-0.978094 -0.481752,-1.48905 h -0.08759 c -0.262798,0.540154 -0.591265,1.0511 -0.985402,1.53285 -0.394183,0.481758 -0.854037,0.905116 -1.37956,1.27007 -0.51097,0.35037 -1.09491,0.627742 -1.75182,0.832117 -0.642356,0.204384 -1.35038,0.306574 -2.12409,0.306569 -1.1241,5e-06 -2.1241,-0.204375 -3,-0.613139 -0.861328,-0.408753 -1.59125,-0.978095 -2.18978,-1.70803 -0.598552,-0.744518 -1.05841,-1.63503 -1.37956,-2.67153 -0.30658,-1.03648 -0.459865,-2.18247 -0.459854,-3.43796 -1.1e-05,-1.47444 0.211668,-2.8248 0.635037,-4.0511 0.437944,-1.22626 1.05838,-2.28465 1.86131,-3.17518 0.817503,-0.890489 1.8029,-1.58392 2.9562,-2.08029 1.15327,-0.496327 2.44524,-0.744502 3.87591,-0.744525 0.656913,2.3e-05 1.31385,0.02922 1.9708,0.08759 0.656911,0.05842 1.28465,0.138709 1.88321,0.240876 0.598515,0.102212 1.14596,0.219001 1.64234,0.350365 0.510923,0.116811 0.93428,0.233599 1.27007,0.350365 l -.5036,9.1095 c -0.01463,0.321181 -0.02922,0.583955 -0.0438,0.788322 -2.6e-05,0.189793 -2.6e-05,0.343077 0,0.459854 -2.6e-05,0.1168 -2.6e-05,0.204391 0,0.262773 -2.6e-05,0.05841 -2.6e-05,0.109501 0,0.153285 -2.6e-05,0.773733 0.07297,1.40877 0.218978,1.90511 0.160557,0.49636 0.364937,0.89052 0.613139,1.18248 0.248147,0.291979 0.525519,0.496358 0.832117,0.613139 0.321139,0.102197 0.649606,0.153292 0.985401,0.153284 0.671503,8e-06 1.26274,-0.21897 1.77372,-0.656934 0.510917,-0.452546 0.934274,-1.05839 1.27007,-1.81752 0.350332,-0.759113 0.613105,-1.64962 0.788321,-2.67153 0.175149,-1.02188 0.26274,-2.10218 0.262773,-3.24088 -3.3e-05,-2.07297 -0.313901,-3.91239 -0.941605,-5.51825 -0.627769,-1.62041 -1.49638,-2.98538 -2.60584,-4.09489 -1.10952,-1.10946 -2.43068,-1.94888 -3.9635,-2.51825 -1.51827,-0.583913 -3.1752,-0.875883 -4.9708,-0.875912 -2.46717,2.9e-05 -4.64235,0.408787 -6.52555,1.22628 -1.88322,0.802947 -3.46716,1.93433 -4.75182,3.39416 -1.27008,1.44528 -2.23358,3.1679 -2.89051,5.16788 -0.65694,1.98542 -0.985407,4.1606 -0.985401,6.52555 -6e-06,2.20439 0.284665,4.16059 0.854014,5.86861 0.583935,1.70803 1.43065,3.14599 2.54015,4.31387 1.12408,1.16788 2.51094,2.0511 4.16058,2.64964 1.66422,0.59854 3.56933,0.897809 5.71533,0.89781 0.890491,-1e-06 1.7664,-0.0511 2.62774,-0.153284 0.875889,-0.102191 1.71531,-0.240877 2.51825,-0.416059 0.817493,-0.175182 1.59121,-0.372263 2.32117,-0.591241 0.7299,-0.233576 1.40873,-0.474452 2.0365,-0.722627 v 3.08759 c -1.2555,0.554742 -2.67156,0.992697 -4.24818,1.31387 -1.57666,0.321164 -3.31389,0.481748 -5.21168,0.481752 -2.61315,-4e-06 -4.94892,-0.372266 -7.0073,-1.11679 -2.04381,-0.744528 -3.78103,-1.82482 -5.21168,-3.24088 -1.41606,-1.43066 -2.49635,-3.16788 -3.24088,-5.21168 -0.744528,-2.05839 -1.11679,-4.39415 -1.11679,-7.0073 -2e-06,-2.74451 0.430654,-5.29925 1.29197,-7.66423 0.861309,-2.37954 2.08758,-4.43793 3.67883,-6.17518 1.60583,-1.7372 3.54013,-3.10216 5.80292,-4.09489 2.27736,-0.992669 4.8248,-1.48902 7.64234,-1.48905 2.27735,3.2e-05 4.37224,0.372295 6.28467,1.11679 1.91238,0.729957 3.56201,1.78835 4.94891,3.17518 1.40143,1.37229 2.48902,3.05112 3.26277,5.0365 0.773686,1.97082 1.16055,4.1971 1.16058,6.67883 m -21.9635,2.8248 c -1.5e-05,1.94162 0.364948,3.35037 1.09489,4.22628 0.74451,0.861322 1.73721,1.29198 2.9781,1.29197 0.802901,8e-06 1.48903,-0.160576 2.05839,-0.481751 0.569321,-0.335758 1.03647,-0.802911 1.40146,-1.40146 0.364941,-0.613129 0.642313,-1.33576 0.832117,-2.16788 0.189758,-0.846703 0.313846,-1.77371 0.372263,-2.78102 l .3066,-5.5401 c -0.408782,-0.116768 -0.897833,-0.218958 -1.46715,-0.306569 -0.554766,-0.10217 -1.13871,-0.153264 -1.75182,-0.153285 -1.08031,2.1e-05 -1.99272,0.211699 -2.73723,0.635037 -0.729944,0.423377 -1.32848,0.978121 -1.79562,1.66423 -0.45257,0.686149 -0.781037,1.46717 -0.985402,2.34307 -0.204394,0.875927 -0.306584,1.76644 -0.306569,2.67153"/>
</g>
<path style="fill:#500;stroke:none" id="path3702" d="m 57.375,29 c -2.81754,3.2e-05 -5.34764,0.507331 -7.625,1.5 -2.26278,0.992731 -4.20667,2.35655 -5.8125,4.09375 -1.59125,1.73725 -2.82619,3.77671 -3.6875,6.15625 -0.861317,2.36498 -1.28125,4.94299 -1.28125,7.6875 0,0.160823 0.02843,0.310029 0.03125,0.46875 0.05268,-2.54169 0.445048,-4.94604 1.25,-7.15625 0.861309,-2.37954 2.09625,-4.419 3.6875,-6.15625 1.60583,-1.7372 3.54972,-3.10102 5.8125,-4.09375 2.27736,-0.992669 4.80746,-1.49997 7.625,-1.5 2.27735,3.2e-05 4.36882,0.380506 6.28125,1.125 1.91238,0.729957 3.58186,1.76942 4.96875,3.15625 1.40143,1.37229 2.47624,3.07712 3.25,5.0625 0.713615,1.8178 1.06956,3.84129 1.125,6.09375 0.0037,-0.144536 0.03124,-0.293333 0.03125,-0.4375 -3.7e-05,-2.48173 -0.382564,-4.68543 -1.15625,-6.65625 -0.773757,-1.98538 -1.84857,-3.69021 -3.25,-5.0625 -1.38689,-1.38683 -3.05637,-2.42629 -4.96875,-3.15625 -1.91243,-0.744494 -4.0039,-1.12497 -6.28125,-1.125 z  m -.4688,8.6875 c -1.43068,2.3e-05 -2.72173,0.253673 -3.875,0.75 -1.1533,0.496373 -2.15125,1.20326 -2.96875,2.09375 -0.802933,0.890531 -1.40581,1.92999 -1.84375,3.15625 -0.423369,1.22629 -0.656261,2.58806 -0.65625,4.0625 -1e-06,0.151344 -0.0045,0.289338 0,0.4375 0.04739,-1.25724 0.28727,-2.43124 0.65625,-3.5 0.437944,-1.22626 1.04082,-2.26572 1.84375,-3.15625 0.817503,-0.890489 1.81545,-1.59738 2.96875,-2.09375 1.15327,-0.496327 2.44432,-0.749977 3.875,-0.75 0.656913,2.3e-05 1.31179,0.03538 1.96875,0.09375 0.656911,0.05842 1.27644,0.147833 1.875,0.25 0.598515,0.102212 1.15987,0.212386 1.65625,0.34375 0.487173,0.111381 0.859554,0.23241 1.1875,0.34375 l .0625,-1 c -0.335793,-0.116766 -0.739077,-0.226939 -1.25,-0.34375 -0.496375,-0.131364 -1.05774,-0.241538 -1.65625,-0.34375 -0.598564,-0.102167 -1.21809,-0.19158 -1.875,-0.25 -0.656956,-0.05837 -1.31184,-0.09373 -1.96875,-0.09375 z  m 3.1562,4.2812 -.25,4.5625 c -0.05842,1.00731 -0.185242,1.93455 -0.375,2.78125 -0.189804,0.832127 -0.478809,1.54312 -0.84375,2.15625 -0.364985,0.598549 -0.805679,1.07049 -1.375,1.40625 -0.569364,0.321175 -1.2596,0.468758 -2.0625,0.46875 -1.24089,8e-06 -2.25549,-0.419928 -3,-1.28125 -0.662075,-0.794465 -1.00095,-2.04753 -1.0625,-3.71875 -0.0071,0.167296 -0.03125,0.331695 -0.03125,0.5 -1.5e-05,1.94162 0.363808,3.34285 1.09375,4.21875 0.74451,0.861322 1.75911,1.28126 3,1.28125 0.802901,8e-06 1.49314,-0.147575 2.0625,-0.46875 0.569321,-0.335758 1.01002,-0.807701 1.375,-1.40625 0.364941,-0.613129 0.653946,-1.32412 0.84375,-2.15625 0.189758,-0.846703 0.316583,-1.77394 0.375,-2.78125 l .3125,-5.5625 c -0.01664,-0.0048 -0.04559,0.0047 -0.0625,0 z  m 9.7812,3.4062 c -0.01889,0.986307 -0.09636,1.94734 -0.25,2.84375 -0.175216,1.02191 -0.430918,1.89714 -0.78125,2.65625 -0.335799,0.759133 -0.770333,1.35995 -1.28125,1.8125 -0.51098,0.437964 -1.0785,0.656258 -1.75,0.65625 -0.335795,8e-06 -0.678861,-0.05405 -1,-0.15625 -0.306598,-0.116781 -0.595603,-0.301771 -0.84375,-0.59375 -0.248202,-0.291962 -0.433193,-0.69114 -0.59375,-1.1875 -0.137427,-0.467169 -0.210696,-1.06834 -0.21875,-1.78125 -2.6e-05,0.189793 -2.6e-05,0.351973 0,0.46875 -2.6e-05,0.1168 -2.6e-05,0.191618 0,0.25 -2.6e-05,0.05841 -2.6e-05,0.112466 0,0.15625 -2.6e-05,0.773733 0.07274,1.40991 0.21875,1.90625 0.160557,0.49636 0.345548,0.895538 0.59375,1.1875 0.248147,0.291979 0.537152,0.476969 0.84375,0.59375 0.321139,0.102197 0.664205,0.156258 1,0.15625 0.671503,8e-06 1.23902,-0.218286 1.75,-0.65625 0.510917,-0.452546 0.945451,-1.05337 1.28125,-1.8125 0.350332,-0.759113 0.606034,-1.63434 0.78125,-2.65625 0.175149,-1.02188 0.281217,-2.1113 0.28125,-3.25 -3e-06,-0.201048 -0.02534,-0.397095 -0.03125,-0.59375 z  m -27.5938,3.375 c -0.0038,0.177441 -0.03125,0.351619 -0.03125,0.53125 -6e-06,2.20439 0.305651,4.13573 0.875,5.84375 0.583935,1.70803 1.42175,3.14462 2.53125,4.3125 1.12408,1.16788 2.5066,2.05771 4.15625,2.65625 1.66422,0.59854 3.57275,0.906249 5.71875,0.90625 0.890491,-1e-06 1.76367,-0.05407 2.625,-0.15625 0.875889,-0.102191 1.72831,-0.231068 2.53125,-0.40625 0.817493,-0.175182 1.58255,-0.374772 2.3125,-0.59375 0.7299,-0.233576 1.40349,-0.470575 2.03125,-0.71875 v -1 c -0.627765,0.248175 -1.30135,0.485174 -2.03125,0.71875 -0.729952,0.218978 -1.49501,0.418568 -2.3125,0.59375 -0.802943,0.175182 -1.65536,0.304059 -2.53125,0.40625 -0.861335,0.102184 -1.73451,0.156249 -2.625,0.15625 -2.146,-1e-06 -4.05453,-0.30771 -5.71875,-0.90625 -1.64965,-0.59854 -3.03217,-1.48837 -4.15625,-2.65625 -1.1095,-1.16788 -1.94732,-2.60447 -2.53125,-4.3125 -0.52744,-1.5823 -0.804931,-3.36672 -0.84375,-5.375 z "/>
</g>
<g id="layer4">
<g style="stroke:none" id="g3799">
<path style="opacity:.3;fill:url(#linearGradient3784)" id="path3773" d="m 10,24 c 0,-2.20914 1.79086,-4 4,-4 2.20914,0 4,1.79086 4,4 0,2.20914 -1.79086,4 -4,4 -2.20914,0 -4,-1.79086 -4,-4 z  m 1,0 c 0,1.65685 1.34315,3 3,3 1.65685,0 3,-1.34315 3,-3 0,-1.65685 -1.34315,-3 -3,-3 -1.65685,0 -3,1.34315 -3,3 z "/>
<path style="opacity:.3" id="path3792" d="m 6,21 0,7 8,0 c 1.64639,0 3,-1.57922 3,-3.5 0,-1.92078 -1.35361,-3.5 -3,-3.5 h -8 z "/>
<path style="opacity:.6" id="path3771" d="m 17,24 a 3,3 0 1 1 -6,0 3,3 0 1 1 6,0 z"/>
<rect width="12" x="4" y="22" rx="2" height="4" ry="2" style="fill:url(#linearGradient3751)" id="rect3733"/>
<rect width="12" x="4" y="22" rx="2" height="4" ry="2" style="opacity:.6;fill:url(#linearGradient3767)" id="rect3759"/>
</g>
<use width="96" x="0" y="0" height="96" id="use3806" xlink:href="#g3799" transform="translate(0,12)"/>
<use width="96" x="0" y="0" height="96" id="use3808" xlink:href="#g3799" transform="translate(0,24)"/>
<use width="96" x="0" y="0" height="96" id="use3810" xlink:href="#g3799" transform="translate(0,36)"/>
<use width="96" x="0" y="0" height="96" id="use3812" xlink:href="#g3799" transform="translate(0,48)"/>
</g>
</svg>
