<svg width="96" version="1.0" xmlns="http://www.w3.org/2000/svg" height="96" xmlns:xlink="http://www.w3.org/1999/xlink">
<defs id="defs2410">
<clipPath id="clipPath3613">
<rect width="84" x="6" y="6" rx="6" height="84" ry="6" style="fill:#fff;stroke:none" id="rect3615"/>
</clipPath>
<filter style="color-interpolation-filters:sRGB" id="filter3174">
<feGaussianBlur stdDeviation="1.71" id="feGaussianBlur3176"/>
</filter>
<filter width="1.3839999" x="-0.192" y="-0.192" height="1.3839999" style="color-interpolation-filters:sRGB" id="filter3794">
<feGaussianBlur stdDeviation="5.28" id="feGaussianBlur3796"/>
</filter>
<linearGradient id="linearGradient3866" xlink:href="#linearGradient3860" y1="48.001015" x1="31.491386" y2="48.001015" x2="64" gradientUnits="userSpaceOnUse"/>
<linearGradient gradientTransform="matrix(1.0238095,0,0,1.0119048,-1.1428571,-98.071429)" id="linearGradient3026" xlink:href="#ButtonShadow-0" y1="6.1317081" x1="32.251034" y2="90.238609" x2="32.251034" gradientUnits="userSpaceOnUse"/>
<linearGradient gradientTransform="translate(0,-97)" id="linearGradient3721" xlink:href="#ButtonShadow-0" y1="6.1317081" x1="32.251034" y2="90.238609" x2="32.251034" gradientUnits="userSpaceOnUse"/>
<linearGradient id="linearGradient3617" xlink:href="#linearGradient3700" y1="90" x1="48" y2="5.9877172" x2="48" gradientUnits="userSpaceOnUse"/>
<linearGradient gradientTransform="matrix(1.0058652,0,0,0.994169,100,0)" id="ButtonShadow-0" y1="92.539597" x1="45.447727" y2="7.0165396" x2="45.447727" gradientUnits="userSpaceOnUse">
<stop offset="0" id="stop3750-8"/>
<stop offset="1" style="stop-opacity:.588" id="stop3752-5"/>
</linearGradient>
<linearGradient gradientTransform="matrix(1.0238095,0,0,1.0119048,-1.1428571,-98.071429)" id="linearGradient3725" xlink:href="#ButtonShadow-0" y1="6.1317081" x1="32.251034" y2="90.238609" x2="32.251034" gradientUnits="userSpaceOnUse"/>
<linearGradient gradientTransform="matrix(1.0238095,0,0,1.0119048,-1.1428571,-98.071429)" id="linearGradient3780" xlink:href="#ButtonShadow-0" y1="6.1317081" x1="32.251034" y2="90.238609" x2="32.251034" gradientUnits="userSpaceOnUse"/>
<linearGradient gradientTransform="matrix(1.0238095,0,0,1.0119048,-1.1428571,-98.071429)" id="linearGradient3772" xlink:href="#ButtonShadow-0" y1="6.1317081" x1="32.251034" y2="90.238609" x2="32.251034" gradientUnits="userSpaceOnUse"/>
<linearGradient id="linearGradient3860">
<stop offset="0" style="stop-color:#fff" id="stop3862"/>
<stop offset="1" style="stop-color:#fff;stop-opacity:0" id="stop3864"/>
</linearGradient>
<linearGradient id="linearGradient3802">
<stop offset="0" style="stop-color:#fff" id="stop3804"/>
<stop offset="0.5" style="stop-color:#fff;stop-opacity:.357" id="stop3810"/>
<stop offset="1" style="stop-color:#fff;stop-opacity:0" id="stop3806"/>
</linearGradient>
<linearGradient id="linearGradient3753">
<stop offset="0" style="stop-color:#fff814" id="stop3755"/>
<stop offset="0.5" style="stop-color:#ffc516" id="stop3763"/>
<stop offset="1" style="stop-color:#da8600;stop-opacity:.667" id="stop3757"/>
</linearGradient>
<linearGradient id="linearGradient3716">
<stop offset="0" style="stop-color:#ee8a0c" id="stop3718"/>
<stop offset="0.33020937" style="stop-color:#ca0005" id="stop3751"/>
<stop offset="0.77064335" style="stop-color:#530111" id="stop3748"/>
<stop offset="1" id="stop3720"/>
</linearGradient>
<linearGradient id="linearGradient3779">
<stop offset="0" style="stop-opacity:0" id="stop3785"/>
<stop offset="0.69999999" style="stop-color:#ca0000;stop-opacity:0" id="stop3814"/>
<stop offset="0.80000001" style="stop-color:#6b0000;stop-opacity:.124" id="stop3791"/>
<stop offset="1" id="stop3787"/>
</linearGradient>
<linearGradient id="linearGradient3188" xlink:href="#linearGradient3737" y1="6" x1="36.357143" y2="63.893143" x2="36.357143" gradientUnits="userSpaceOnUse"/>
<linearGradient gradientTransform="scale(1.0058652,0.994169)" id="ButtonShadow" y1="92.539597" x1="45.447727" y2="7.0165396" x2="45.447727" gradientUnits="userSpaceOnUse">
<stop offset="0" id="stop3750"/>
<stop offset="1" style="stop-opacity:.588" id="stop3752"/>
</linearGradient>
<linearGradient id="linearGradient3700">
<stop offset="0" style="stop-color:#2d2d2d" id="stop3702"/>
<stop offset="1" style="stop-color:#6b6b6b" id="stop3704"/>
</linearGradient>
<linearGradient id="linearGradient3737">
<stop offset="0" style="stop-color:#fff" id="stop3739"/>
<stop offset="1" style="stop-color:#fff;stop-opacity:0" id="stop3741"/>
</linearGradient>
<radialGradient fx="48" fy="13.639534" cx="48" cy="13.639534" gradientTransform="matrix(1.5168195,0,0,0.91009166,-24.807334,10.786774)" r="27.25" id="radialGradient3808" xlink:href="#linearGradient3802" gradientUnits="userSpaceOnUse"/>
<radialGradient fx="47.745693" fy="48.001015" cx="47.745693" cy="48.001015" r="16.254307" id="radialGradient3789" xlink:href="#linearGradient3779" gradientUnits="userSpaceOnUse"/>
<radialGradient fx="48" fy="47.876076" cx="48" cy="47.876076" gradientTransform="matrix(1,0,0,0.92307692,0,3.8066995)" r="26" id="radialGradient3759" xlink:href="#linearGradient3753" gradientUnits="userSpaceOnUse"/>
<radialGradient fx="47.745693" fy="48.001015" cx="47.745693" cy="48.001015" r="16.254307" id="radialGradient3722" xlink:href="#linearGradient3716" gradientUnits="userSpaceOnUse"/>
<radialGradient fx="48" fy="90.171875" cx="48" cy="90.171875" gradientTransform="matrix(1.1573129,0,0,0.99590774,-7.5510206,0.19713193)" r="42" id="radialGradient3619" xlink:href="#linearGradient3737" gradientUnits="userSpaceOnUse"/>
</defs>
<g style="display:none" id="layer2">
<rect width="86" x="5" y="7" rx="6" height="85" ry="6" style="opacity:.9;fill:url(#ButtonShadow);filter:url(#filter3174);stroke:none" id="rect3745"/>
</g>
<g style="stroke:none" id="layer3">
<path style="opacity:.08;fill:url(#linearGradient3026)" id="path3786" d="m 12,-95.0312 c -5.51109,0 -10.0312,4.52016 -10.0312,10.0312 v 71 c 0,5.51109 4.52016,10.0312 10.0312,10.0312 h 72 c 5.51109,0 10.0312,-4.52016 10.0312,-10.0312 v -71 c 0,-5.51109 -4.52016,-10.0312 -10.0312,-10.0312 h -72 z " transform="scale(1,-1)"/>
<path style="opacity:.1;fill:url(#linearGradient3780)" id="path3778" d="m 12,-94.0312 c -4.97163,0 -9.03125,4.05962 -9.03125,9.03125 v 71 c 0,4.97163 4.05962,9.03125 9.03125,9.03125 h 72 c 4.97163,0 9.03125,-4.05962 9.03125,-9.03125 v -71 c 0,-4.97163 -4.05962,-9.03125 -9.03125,-9.03125 h -72 z " transform="scale(1,-1)"/>
<path style="opacity:.2;fill:url(#linearGradient3772)" id="path3770" d="m 12,-93 c -4.40913,0 -8,3.59087 -8,8 v 71 c 0,4.40913 3.59087,8 8,8 h 72 c 4.40913,0 8,-3.59087 8,-8 v -71 c 0,-4.40913 -3.59087,-8 -8,-8 h -72 z " transform="scale(1,-1)"/>
<rect width="86" x="5" y="-92" rx="7" height="85" ry="7" style="opacity:.3;fill:url(#linearGradient3725)" id="rect3723" transform="scale(1,-1)"/>
<rect width="84" x="6" y="-91" rx="6" height="84" ry="6" style="opacity:.45;fill:url(#linearGradient3721)" id="rect3716" transform="scale(1,-1)"/>
</g>
<g style="stroke:none" id="layer1">
<rect width="84" x="6" y="6" rx="6" height="84" ry="6" style="fill:url(#linearGradient3617)" id="rect2419"/>
<path style="opacity:.3;fill:url(#linearGradient3188)" id="rect3728" d="m 12,6 c -3.324,0 -6,2.676 -6,6 v 2 68 2 c 0,0.334721 0.04135,0.6507 0.09375,0.96875 0.0487,0.295596 0.09704,0.596915 0.1875,0.875 0.00988,0.03038 0.020892,0.0636 0.03125,0.09375 0.098865,0.287771 0.23488,0.547452 0.375,0.8125 0.144592,0.273507 0.315616,0.535615 0.5,0.78125 0.184384,0.245635 0.373776,0.473472 0.59375,0.6875 0.439947,0.428056 0.94291,0.814526 1.5,1.09375 0.278545,0.139612 0.573473,0.246947 0.875,0.34375 -0.256202,-0.100222 -0.486711,-0.236272 -0.71875,-0.375 -0.00741,-0.0044 -0.023866,0.0045 -0.03125,0 -0.031933,-0.0193 -0.062293,-0.04251 -0.09375,-0.0625 -0.120395,-0.0767 -0.231023,-0.163513 -0.34375,-0.25 -0.106173,-0.0808 -0.213281,-0.161112 -0.3125,-0.25 -0.17793,-0.161433 -0.34746,-0.345388 -0.5,-0.53125 -0.107579,-0.130255 -0.218394,-0.265285 -0.3125,-0.40625 -0.025089,-0.03838 -0.038446,-0.08587 -0.0625,-0.125 -0.064763,-0.103032 -0.130228,-0.204517 -0.1875,-0.3125 -0.101008,-0.194706 -0.205675,-0.415701 -0.28125,-0.625 -0.00796,-0.02181 -0.023589,-0.04055 -0.03125,-0.0625 -0.0318251,-0.09195 -0.0358045,-0.186831 -0.0625,-0.28125 -0.0303323,-0.106618 -0.0703894,-0.203031 -0.09375,-0.3125 -0.0728786,-0.341512 -0.125,-0.698205 -0.125,-1.0625 v -2 -68 -2 c 0,-2.78185 2.21815,-5 5,-5 h 2 68 2 c 2.78185,0 5,2.21815 5,5 v 2 68 2 c 0,0.364295 -0.05212,0.720988 -0.125,1.0625 -0.04415,0.206893 -0.08838,0.397658 -0.15625,0.59375 -0.0077,0.02195 -0.0233,0.04069 -0.03125,0.0625 -0.06274,0.173739 -0.138383,0.367449 -0.21875,0.53125 -0.04158,0.0828 -0.07904,0.169954 -0.125,0.25 -0.0546,0.09721 -0.126774,0.18835 -0.1875,0.28125 -0.09411,0.140965 -0.204921,0.275995 -0.3125,0.40625 -0.143174,0.17445 -0.303141,0.346998 -0.46875,0.5 -0.01117,0.0102 -0.01998,0.02115 -0.03125,0.03125 -0.138386,0.125556 -0.285091,0.234436 -0.4375,0.34375 -0.102571,0.07315 -0.204318,0.153364 -0.3125,0.21875 -0.0074,0.0045 -0.02384,-0.0044 -0.03125,0 -0.232039,0.138728 -0.462548,0.274778 -0.71875,0.375 0.301527,-0.0968 0.596455,-0.204138 0.875,-0.34375 0.55709,-0.279224 1.06005,-0.665694 1.5,-1.09375 0.219973,-0.214028 0.409366,-0.441865 0.59375,-0.6875 0.184384,-0.245635 0.355408,-0.507743 0.5,-0.78125 0.14012,-0.265048 0.276135,-0.524729 0.375,-0.8125 0.01041,-0.03078 0.02133,-0.06274 0.03125,-0.09375 0.09046,-0.278085 0.1388,-0.579404 0.1875,-0.875 0.0524,-0.31805 0.09375,-0.634029 0.09375,-0.96875 v -2 -68 -2 c 0,-3.324 -2.676,-6 -6,-6 h -72 z "/>
<path style="opacity:.2;fill:url(#radialGradient3619)" id="path3615" d="M 12,90 C 8.676,90 6,87.324 6,84 L 6,82 6,14 6,12 c 0,-0.334721 0.04135,-0.6507 0.09375,-0.96875 0.0487,-0.295596 0.09704,-0.596915 0.1875,-0.875 C 6.29113,10.12587 6.302142,10.09265 6.3125,10.0625 6.411365,9.774729 6.5473802,9.515048 6.6875,9.25 6.8320918,8.976493 7.0031161,8.714385 7.1875,8.46875 7.3718839,8.223115 7.5612765,7.995278 7.78125,7.78125 8.221197,7.353194 8.72416,6.966724 9.28125,6.6875 9.559795,6.547888 9.8547231,6.440553 10.15625,6.34375 9.9000482,6.443972 9.6695391,6.580022 9.4375,6.71875 c -0.00741,0.0044 -0.023866,-0.0045 -0.03125,0 -0.031933,0.0193 -0.062293,0.04251 -0.09375,0.0625 -0.120395,0.0767 -0.2310226,0.163513 -0.34375,0.25 -0.1061728,0.0808 -0.2132809,0.161112 -0.3125,0.25 C 8.4783201,7.442683 8.3087904,7.626638 8.15625,7.8125 8.0486711,7.942755 7.9378561,8.077785 7.84375,8.21875 7.818661,8.25713 7.805304,8.30462 7.78125,8.34375 7.716487,8.446782 7.6510225,8.548267 7.59375,8.65625 7.4927417,8.850956 7.3880752,9.071951 7.3125,9.28125 7.30454,9.30306 7.288911,9.3218 7.28125,9.34375 7.2494249,9.4357 7.2454455,9.530581 7.21875,9.625 7.1884177,9.731618 7.1483606,9.828031 7.125,9.9375 7.0521214,10.279012 7,10.635705 7,11 l 0,2 0,68 0,2 c 0,2.781848 2.2181517,5 5,5 l 2,0 68,0 2,0 c 2.781848,0 5,-2.218152 5,-5 l 0,-2 0,-68 0,-2 C 89,10.635705 88.94788,10.279012 88.875,9.9375 88.83085,9.730607 88.78662,9.539842 88.71875,9.34375 88.71105,9.3218 88.69545,9.30306 88.6875,9.28125 88.62476,9.107511 88.549117,8.913801 88.46875,8.75 88.42717,8.6672 88.38971,8.580046 88.34375,8.5 88.28915,8.40279 88.216976,8.31165 88.15625,8.21875 88.06214,8.077785 87.951329,7.942755 87.84375,7.8125 87.700576,7.63805 87.540609,7.465502 87.375,7.3125 87.36383,7.3023 87.35502,7.29135 87.34375,7.28125 87.205364,7.155694 87.058659,7.046814 86.90625,6.9375 86.803679,6.86435 86.701932,6.784136 86.59375,6.71875 c -0.0074,-0.0045 -0.02384,0.0044 -0.03125,0 -0.232039,-0.138728 -0.462548,-0.274778 -0.71875,-0.375 0.301527,0.0968 0.596455,0.204138 0.875,0.34375 0.55709,0.279224 1.060053,0.665694 1.5,1.09375 0.219973,0.214028 0.409366,0.441865 0.59375,0.6875 0.184384,0.245635 0.355408,0.507743 0.5,0.78125 0.14012,0.265048 0.276135,0.524729 0.375,0.8125 0.01041,0.03078 0.02133,0.06274 0.03125,0.09375 0.09046,0.278085 0.1388,0.579404 0.1875,0.875 C 89.95865,11.3493 90,11.665279 90,12 l 0,2 0,68 0,2 c 0,3.324 -2.676,6 -6,6 l -72,0 z"/>
<path style="opacity:.2;fill:url(#linearGradient3866);color:#000;stroke-width:1.5" id="path3777-0" d="m 64,48.001 a 16.2543,16.2543 0 1,1 -32.5086,0 16.2543,16.2543 0 1,1 32.5086,0 z " transform="matrix(0,-2.0302312,2.0302312,0,-49.453158,144.9348)"/>
</g>
<g id="layer5">
<rect width="66" x="15" y="15" rx="12" height="66" ry="12" style="opacity:.1;fill:#f00;filter:url(#filter3794);stroke:#fff;stroke-linecap:round;stroke-width:.5;clip-path:url(#clipPath3613)" id="rect3171"/>
</g>
<g style="color:#000;stroke-width:1.5;stroke:none" id="layer4">
<path style="fill:url(#radialGradient3722)" id="path3685" d="m 64,48.001 a 16.2543,16.2543 0 1,1 -32.5086,0 16.2543,16.2543 0 1,1 32.5086,0 z " transform="matrix(1.9071868,0,0,1.9071868,-43.059956,-43.546902)"/>
<path style="opacity:.15;fill:#ffcb16" id="path3775" d="m 34.71875,23.46875 c 0.006,-8.93e-4 -0.193416,0.064 -0.1875,0.0625 0.0059,-0.0015 -0.224485,0.06459 -0.21875,0.0625 0.0057,-0.0021 -0.192996,0.06515 -0.1875,0.0625 0.0047,-0.0023 -0.08805,0.07376 -0.125,0.09375 -0.0064,0.0034 -0.03202,4.7e-4 -0.03125,0 l 0,0.03125 C 25.327584,28.788571 20,38.013925 20,48 c -3.8e-5,-0.0059 6.1e-4,0.193356 0,0.1875 -6.1e-4,-0.0059 0.03243,0.224519 0.03125,0.21875 -0.0012,-0.0058 0.06423,0.193127 0.0625,0.1875 -0.0017,-0.0056 0.06477,0.192932 0.0625,0.1875 -0.0023,-0.0054 0.09654,0.161435 0.09375,0.15625 -0.0028,-0.0052 0.09703,0.19239 0.09375,0.1875 -0.0033,-0.0049 0.128739,0.160798 0.125,0.15625 -0.0037,-0.0045 0.129163,0.129163 0.125,0.125 -0.0042,-0.0042 0.129548,0.128739 0.125,0.125 -0.0045,-0.0037 0.16114,0.128279 0.15625,0.125 -0.0049,-0.0033 0.192685,0.09654 0.1875,0.09375 -0.0052,-0.0028 0.161682,0.09602 0.15625,0.09375 -0.0054,-0.0023 0.193127,0.06423 0.1875,0.0625 -0.0056,-0.0017 0.193269,0.06368 0.1875,0.0625 -0.0058,-0.0012 0.224606,0.03186 0.21875,0.03125 -0.0059,-6.1e-4 0.193387,3.8e-5 0.1875,0 l 18,0 c -0.0059,3.8e-5 0.193356,-6.1e-4 0.1875,0 -0.0059,6.1e-4 0.224519,-0.03243 0.21875,-0.03125 -0.0058,0.0012 0.193127,-0.06423 0.1875,-0.0625 -0.0056,0.0017 0.192932,-0.06477 0.1875,-0.0625 -0.0054,0.0023 0.161435,-0.09654 0.15625,-0.09375 -0.0052,0.0028 0.19239,-0.09703 0.1875,-0.09375 -0.0049,0.0033 0.160798,-0.128739 0.15625,-0.125 -0.0011,9.35e-4 0.01758,-0.0188 0.03125,-0.03125 0.311881,1.368001 0.919883,2.59443 1.90625,3.53125 -0.02515,0.01134 -0.0961,0.06363 -0.09375,0.0625 0.0029,-0.0014 -0.09661,0.03282 -0.09375,0.03125 0.0029,-0.0016 -0.09652,0.06422 -0.09375,0.0625 0.0028,-0.0017 -0.09642,0.06437 -0.09375,0.0625 0.0027,-0.0019 -0.06507,0.06451 -0.0625,0.0625 0.0026,-0.002 -0.0962,0.06465 -0.09375,0.0625 0.0025,-0.0021 -0.09609,0.09603 -0.09375,0.09375 0.0023,-0.0023 -0.06471,0.0649 -0.0625,0.0625 0.0022,-0.0024 -0.06458,0.09626 -0.0625,0.09375 0.0021,-0.0025 -0.06444,0.09637 -0.0625,0.09375 0.0019,-0.0026 -0.06429,0.06522 -0.0625,0.0625 0.0018,-0.0027 -0.06415,0.09657 -0.0625,0.09375 a 1.0936745,1.0936745 0 0 0 0,0.03125 l -9,15.59375 0,0.03125 c -0.01763,0.03343 -0.09594,0.160895 -0.09375,0.15625 0.0025,-0.0054 -0.06449,0.161832 -0.0625,0.15625 0.002,-0.0056 -0.06394,0.19325 -0.0625,0.1875 0.0014,-0.0058 -0.03212,0.224613 -0.03125,0.21875 8.69e-4,-0.0059 -0.03154,0.19342 -0.03125,0.1875 2.91e-4,-0.0059 2.9e-4,0.19342 0,0.1875 -2.9e-4,-0.0059 0.03212,0.193363 0.03125,0.1875 -8.68e-4,-0.0059 0.03269,0.2245 0.03125,0.21875 -0.0014,-0.0058 0.06449,0.193082 0.0625,0.1875 -0.002,-0.0056 0.06503,0.16161 0.0625,0.15625 -0.0025,-0.0054 0.09679,0.192587 0.09375,0.1875 -0.003,-0.0051 0.09728,0.161015 0.09375,0.15625 -0.0035,-0.0048 0.128975,0.160647 0.125,0.15625 -0.004,-0.0044 0.160636,0.128986 0.15625,0.125 -0.0044,-0.004 0.161006,0.128538 0.15625,0.125 -0.0048,-0.0035 0.161329,0.128056 0.15625,0.125 A 1.0936745,1.0936745 0 0 0 34,72.25 c 8.663159,5.001679 19.336841,5.001678 28,0 a 1.0936745,1.0936745 0 0 0 0.03125,0 c -0.0051,0.0031 0.161006,-0.128538 0.15625,-0.125 -0.0048,0.0035 0.160636,-0.128986 0.15625,-0.125 -0.0044,0.004 0.160225,-0.129397 0.15625,-0.125 -0.004,0.0044 0.128526,-0.161015 0.125,-0.15625 -0.0035,0.0048 0.09679,-0.161337 0.09375,-0.15625 -0.003,0.0051 0.09628,-0.19286 0.09375,-0.1875 -0.0025,0.0054 0.06449,-0.161832 0.0625,-0.15625 -0.002,0.0056 0.06394,-0.19325 0.0625,-0.1875 -0.0014,0.0058 0.03212,-0.224613 0.03125,-0.21875 -8.68e-4,0.0059 0.03154,-0.19342 0.03125,-0.1875 -2.9e-4,0.0059 -2.91e-4,-0.19342 0,-0.1875 2.91e-4,0.0059 -0.03212,-0.193363 -0.03125,-0.1875 8.69e-4,0.0059 -0.03269,-0.2245 -0.03125,-0.21875 0.0014,0.0058 -0.06449,-0.193082 -0.0625,-0.1875 0.002,0.0056 -0.06503,-0.16161 -0.0625,-0.15625 0.0022,0.0046 -0.07612,-0.122822 -0.09375,-0.15625 l 0,-0.03125 -9,-15.59375 a 1.0936745,1.0936745 0 0 0 0,-0.03125 c 0.0031,0.0051 -0.128538,-0.161006 -0.125,-0.15625 0.0035,0.0048 -0.128986,-0.160636 -0.125,-0.15625 0.004,0.0044 -0.129397,-0.160225 -0.125,-0.15625 0.0044,0.004 -0.161015,-0.128526 -0.15625,-0.125 0.0048,0.0035 -0.161337,-0.09679 -0.15625,-0.09375 0.0051,0.003 -0.19286,-0.09628 -0.1875,-0.09375 0.0031,0.0015 -0.04065,-0.0093 -0.09375,-0.03125 1.002734,-0.940715 1.622286,-2.17988 1.9375,-3.5625 0.01367,0.01245 0.03239,0.03218 0.03125,0.03125 -0.0045,-0.0037 0.16114,0.128279 0.15625,0.125 -0.0049,-0.0033 0.192685,0.09654 0.1875,0.09375 -0.0052,-0.0028 0.161682,0.09602 0.15625,0.09375 -0.0054,-0.0023 0.193127,0.06423 0.1875,0.0625 -0.0056,-0.0017 0.193269,0.06368 0.1875,0.0625 -0.0058,-0.0012 0.224606,0.03186 0.21875,0.03125 -0.0059,-6.1e-4 0.193387,3.8e-5 0.1875,0 l 18,0 c -0.0059,3.8e-5 0.193356,-6.1e-4 0.1875,0 -0.0059,6.1e-4 0.224519,-0.03243 0.21875,-0.03125 -0.0058,0.0012 0.193127,-0.06423 0.1875,-0.0625 -0.0056,0.0017 0.192932,-0.06477 0.1875,-0.0625 -0.0054,0.0023 0.161435,-0.09654 0.15625,-0.09375 -0.0052,0.0028 0.19239,-0.09703 0.1875,-0.09375 -0.0049,0.0033 0.160798,-0.128739 0.15625,-0.125 -0.0045,0.0037 0.129163,-0.129163 0.125,-0.125 -0.0042,0.0042 0.128739,-0.129548 0.125,-0.125 -0.0037,0.0045 0.128279,-0.16114 0.125,-0.15625 -0.0033,0.0049 0.09654,-0.192685 0.09375,-0.1875 -0.0028,0.0052 0.09602,-0.161682 0.09375,-0.15625 -0.0023,0.0054 0.06423,-0.193127 0.0625,-0.1875 -0.0017,0.0056 0.06368,-0.193269 0.0625,-0.1875 -0.0012,0.0058 0.03186,-0.224606 0.03125,-0.21875 -6.1e-4,0.0059 3.8e-5,-0.193387 0,-0.1875 0,-9.986075 -5.327584,-19.211429 -13.96875,-24.21875 -0.0056,-0.0032 0.0056,-0.02801 0,-0.03125 6.75e-4,4.18e-4 -0.02565,0.0031 -0.03125,0 -0.03249,-0.018 -0.129113,-0.09581 -0.125,-0.09375 0.0048,0.0024 -0.161269,-0.06448 -0.15625,-0.0625 0.005,0.002 -0.161425,-0.06403 -0.15625,-0.0625 0.0052,0.0015 -0.19279,-0.03231 -0.1875,-0.03125 0.0053,0.0011 -0.161614,-0.03183 -0.15625,-0.03125 0.0054,5.82e-4 -0.192894,-1.02e-4 -0.1875,0 0.0054,1.02e-4 -0.192882,3.79e-4 -0.1875,0 0.0054,-3.79e-4 -0.192827,8.57e-4 -0.1875,0 a 1.0936745,1.0936745 0 0 0 0,0.03125 c 0.0032,-5.81e-4 -0.128173,7.54e-4 -0.125,0 0.0032,-7.54e-4 -0.09688,0.03217 -0.09375,0.03125 0.0031,-9.24e-4 -0.09682,0.03234 -0.09375,0.03125 0.0031,-0.0011 -0.09676,0.03251 -0.09375,0.03125 0.003,-0.0013 -0.127938,0.06392 -0.125,0.0625 0.0029,-0.0014 -0.09661,0.03282 -0.09375,0.03125 0.0029,-0.0016 -0.09652,0.06422 -0.09375,0.0625 0.0028,-0.0017 -0.09642,0.06437 -0.09375,0.0625 0.0027,-0.0019 -0.06507,0.06451 -0.0625,0.0625 0.0026,-0.002 -0.0962,0.06465 -0.09375,0.0625 0.0025,-0.0021 -0.09609,0.09603 -0.09375,0.09375 0.0023,-0.0023 -0.06471,0.0649 -0.0625,0.0625 0.0022,-0.0024 -0.06458,0.09626 -0.0625,0.09375 0.0021,-0.0025 -0.06444,0.09637 -0.0625,0.09375 0.0019,-0.0026 -0.06429,0.06522 -0.0625,0.0625 0.0018,-0.0027 -0.06415,0.09657 -0.0625,0.09375 a 1.0936745,1.0936745 0 0 0 0,0.03125 l -9,15.59375 c 4.06e-4,-6.78e-4 0.0027,0.02611 0,0.03125 -0.01763,0.03343 -0.09594,0.160895 -0.09375,0.15625 0.0025,-0.0054 -0.06449,0.161832 -0.0625,0.15625 0.002,-0.0056 -0.06394,0.19325 -0.0625,0.1875 0.0014,-0.0057 -0.03212,0.224613 -0.03125,0.21875 8.69e-4,-0.0059 -0.03154,0.19342 -0.03125,0.1875 2.91e-4,-0.0059 2.9e-4,0.19342 0,0.1875 -2.9e-4,-0.0059 0.03212,0.193363 0.03125,0.1875 -1.22e-4,-8.21e-4 -0.0013,0.02498 0,0.03125 C 49.377848,41.202892 48.717833,41 48,41 c -0.717833,0 -1.377848,0.202892 -2.03125,0.40625 0.0013,-0.0063 1.22e-4,-0.03207 0,-0.03125 -8.68e-4,0.0059 0.03154,-0.19342 0.03125,-0.1875 -2.9e-4,0.0059 -2.91e-4,-0.19342 0,-0.1875 2.91e-4,0.0059 -0.03212,-0.193363 -0.03125,-0.1875 8.69e-4,0.0059 -0.03269,-0.2245 -0.03125,-0.21875 0.0014,0.0057 -0.06449,-0.193082 -0.0625,-0.1875 0.002,0.0056 -0.06503,-0.16161 -0.0625,-0.15625 0.0022,0.0046 -0.07612,-0.122822 -0.09375,-0.15625 l 0,-0.03125 -9,-15.59375 a 1.0936745,1.0936745 0 0 0 0,-0.03125 c 0.0023,0.0038 -0.06503,-0.12862 -0.0625,-0.125 0.0025,0.0036 -0.09654,-0.128426 -0.09375,-0.125 0.0028,0.0034 -0.09678,-0.09696 -0.09375,-0.09375 0.003,0.0032 -0.128256,-0.09673 -0.125,-0.09375 0.0033,0.003 -0.09721,-0.09649 -0.09375,-0.09375 0.0035,0.0027 -0.128655,-0.09623 -0.125,-0.09375 0.0037,0.0025 -0.128826,-0.09596 -0.125,-0.09375 0.0038,0.0022 -0.128977,-0.06442 -0.125,-0.0625 0.004,0.0019 -0.129107,-0.06413 -0.125,-0.0625 0.0041,0.0016 -0.160464,-0.03257 -0.15625,-0.03125 0.0042,0.0013 -0.129299,-0.06351 -0.125,-0.0625 0.0043,0.001 -0.160611,-6.93e-4 -0.15625,0 0.0044,6.93e-4 -0.16065,-0.03162 -0.15625,-0.03125 0.0044,3.73e-4 -0.129416,-5.1e-5 -0.125,0 0.0044,5.1e-5 -0.160658,2.71e-4 -0.15625,0 0.0044,-2.71e-4 -0.160626,5.92e-4 -0.15625,0 z"/>
<path style="fill:url(#radialGradient3759)" id="path3689" d="m 35,25.4688 c -8.04443,4.64445 -13,13.2423 -13,22.5312 h 18 c 0,-2.95699 1.61433,-5.52159 4,-6.90625 l -9,-15.625 z  m 26,0 -9,15.625 c 2.38567,1.38466 4,3.94926 4,6.90625 h 18 c 0,-9.2889 -4.95557,-17.8868 -13,-22.5312 z  m -13,17.5312 c -2.76143,0 -5,2.23857 -5,5 0,2.76143 2.23857,5 5,5 2.76143,0 5,-2.23857 5,-5 0,-2.76143 -2.23857,-5 -5,-5 z  m -4,11.9062 -9,15.625 c 8.04443,4.64445 17.9556,4.64445 26,0 l -9,-15.625 c -1.17896,0.684275 -2.53871,1.09375 -4,1.09375 -1.46129,0 -2.82104,-0.409475 -4,-1.09375 z "/>
<g style="fill:#f00">
<path style="opacity:.3" id="path3701" d="m 64,48.001 a 16.2543,16.2543 0 1,1 -32.5086,0 16.2543,16.2543 0 1,1 32.5086,0 z " transform="matrix(1.8456648,0,0,1.8456648,-120.12254,-40.593781)"/>
<path style="opacity:.3" id="path3703" d="m 64,48.001 a 16.2543,16.2543 0 1,1 -32.5086,0 16.2543,16.2543 0 1,1 32.5086,0 z " transform="matrix(0.30761091,0,0,0.30761091,-46.687095,33.234366)"/>
<path style="opacity:.3" id="path3705" d="m 64,48.001 a 16.2543,16.2543 0 1,1 -32.5086,0 16.2543,16.2543 0 1,1 32.5086,0 z " transform="matrix(0.49217736,0,0,0.49217736,-55.499348,24.374989)"/>
</g>
<g style="fill:#0ff">
<path style="opacity:.3" id="path3707" d="m 64,48.001 a 16.2543,16.2543 0 0,1 -8.12715,14.0766 l -8.1272,-14.0766 z " transform="matrix(0.7997879,-1.3852733,1.3852733,0.7997879,-136.68095,75.750207)"/>
<path style="opacity:.3" id="path3709" d="m 64,48.001 a 16.2543,16.2543 0 0,1 -8.12715,14.0766 l -8.1272,-14.0766 z " transform="matrix(-1.5995758,1.0960591e-8,-1.0960591e-8,-1.5995758,44.37286,124.78127)"/>
<path style="opacity:.3" id="path3711" d="m 64,48.001 a 16.2543,16.2543 0 0,1 -8.12715,14.0766 l -8.1272,-14.0766 z " transform="matrix(0.79978791,1.3852733,-1.3852733,0.79978791,-3.6919,-56.531461)"/>
</g>
<path style="opacity:.3;fill:#ffcb16" id="path3769" d="m 34.875,24.5625 a 0.912168,0.912168 0 0,0 -0.34375,0.125 c -8.32607,4.80706 -13.4375,13.6992 -13.4375,23.3125 a 0.912168,0.912168 0 0,0 0.90625,0.90625 h 18 a 0.912168,0.912168 0 0,0 0.90625,-0.90625 c 0,-2.62503 1.44521,-4.89611 3.5625,-6.125 a 0.912168,0.912168 0 0,0 0.3125,-1.25 l -9,-15.625 a 0.912168,0.912168 0 0,0 -0.90625,-0.4375 z  m 25.9688,0 a 0.912168,0.912168 0 0,0 -0.625,0.4375 l -9,15.625 a 0.912168,0.912168 0 0,0 0.3125,1.25 c 2.11729,1.22889 3.5625,3.49997 3.5625,6.125 a 0.912168,0.912168 0 0,0 0.90625,0.90625 h 18 a 0.912168,0.912168 0 0,0 0.90625,-0.90625 c 0,-9.6133 -5.11142,-18.5054 -13.4375,-23.3125 a 0.912168,0.912168 0 0,0 -0.625,-0.125 z  m -12.8438,17.5312 c -3.25435,0 -5.90625,2.6519 -5.90625,5.90625 0,3.25435 2.6519,5.90625 5.90625,5.90625 3.25435,0 5.90625,-2.6519 5.90625,-5.90625 0,-3.25435 -2.6519,-5.90625 -5.90625,-5.90625 z  m -4.1562,11.9062 a 0.912168,0.912168 0 0,0 -0.625,0.4375 l -9,15.625 a 0.912168,0.912168 0 0,0 0.3125,1.25 c 8.32536,4.80665 18.6121,4.80665 26.9375,0 a 0.912168,0.912168 0 0,0 0.3125,-1.25 l -9,-15.625 a 0.912168,0.912168 0 0,0 -1.25,-0.3125 c -1.05226,0.610736 -2.24034,0.96875 -3.53125,0.96875 -1.29091,0 -2.47899,-0.358014 -3.53125,-0.96875 a 0.912168,0.912168 0 0,0 -0.625,-0.125 z "/>
<path style="fill:url(#radialGradient3789)" id="path3777" d="m 64,48.001 a 16.2543,16.2543 0 1,1 -32.5086,0 16.2543,16.2543 0 1,1 32.5086,0 z " transform="matrix(1.9071868,0,0,1.9071868,-43.059956,-43.546902)"/>
<path style="opacity:.8;fill:url(#radialGradient3808)" id="path3795" d="m 48,19.0667 c -13.6692,0 -25.1317,9.47338 -28.1583,22.2167 7.3801,-4.80793 17.2813,-7.75 28.1583,-7.75 10.877,0 20.7782,2.94207 28.1583,7.75 -3.02662,-12.7433 -14.4892,-22.2167 -28.1583,-22.2167 z "/>
</g>
</svg>
