<?xml version="1.0" encoding="UTF-8" standalone="no"?>
<svg
   xmlns:dc="http://purl.org/dc/elements/1.1/"
   xmlns:cc="http://creativecommons.org/ns#"
   xmlns:rdf="http://www.w3.org/1999/02/22-rdf-syntax-ns#"
   xmlns:svg="http://www.w3.org/2000/svg"
   xmlns="http://www.w3.org/2000/svg"
   xmlns:xlink="http://www.w3.org/1999/xlink"
   xmlns:sodipodi="http://sodipodi.sourceforge.net/DTD/sodipodi-0.dtd"
   xmlns:inkscape="http://www.inkscape.org/namespaces/inkscape"
   viewBox="0 0 96 96"
   id="svg2"
   version="1.1"
   inkscape:version="0.48.4 r9939"
   width="100%"
   height="100%"
   sodipodi:docname="dropbox.svg">
  <metadata
     id="metadata156">
    <rdf:RDF>
      <cc:Work
         rdf:about="">
        <dc:format>image/svg+xml</dc:format>
        <dc:type
           rdf:resource="http://purl.org/dc/dcmitype/StillImage" />
      </cc:Work>
    </rdf:RDF>
  </metadata>
  <sodipodi:namedview
     pagecolor="#ffffff"
     bordercolor="#666666"
     borderopacity="1"
     objecttolerance="10"
     gridtolerance="10"
     guidetolerance="10"
     inkscape:pageopacity="0"
     inkscape:pageshadow="2"
     inkscape:window-width="1920"
     inkscape:window-height="1018"
     id="namedview154"
     showgrid="false"
     inkscape:zoom="2.4583333"
     inkscape:cx="48"
     inkscape:cy="48"
     inkscape:window-x="-8"
     inkscape:window-y="-8"
     inkscape:window-maximized="1"
     inkscape:current-layer="svg2" />
  <defs
     id="defs4">
    <clipPath
       id="clipPath3613">
      <path
         style="fill:#fff"
         d="m12,6h72a6,6 0 0,1 6,6v72a6,6 0 0,1 -6,6h-72a6,6 0 0,1 -6-6v-72a6,6 0 0,1 6-6"
         id="path7" />
    </clipPath>
    <filter
       width="1.384"
       x="-.192"
       y="-.192"
       height="1.384"
       style="color-interpolation-filters:sRGB"
       id="filter3794">
      <feGaussianBlur
         stdDeviation="5.28"
         id="feGaussianBlur10" />
    </filter>
    <linearGradient
       id="linearGradient3784">
      <stop
         offset="0"
         style="stop-color:#1b8cee"
         id="stop13" />
      <stop
         offset="1"
         style="stop-color:#79b8e8"
         id="stop15" />
    </linearGradient>
    <linearGradient
       id="linearGradient3731">
      <stop
         offset="0"
         style="stop-color:#520"
         id="stop18" />
      <stop
         offset="1"
         style="stop-color:#520;stop-opacity:0"
         id="stop20" />
    </linearGradient>
    <linearGradient
       id="linearGradient3801">
      <stop
         offset="0"
         style="stop-color:#107cd9"
         id="stop23" />
      <stop
         offset="1"
         style="stop-color:#79b8e8"
         id="stop25" />
    </linearGradient>
    <linearGradient
       id="linearGradient3757">
      <stop
         offset="0"
         style="stop-color:#389bed"
         id="stop28" />
      <stop
         offset="1"
         style="stop-color:#c2e5fc"
         id="stop30" />
    </linearGradient>
    <linearGradient
       id="linearGradient3724">
      <stop
         offset="0"
         style="stop-color:#0d82e4"
         id="stop33" />
      <stop
         offset="1"
         style="stop-color:#bcdbf7"
         id="stop35" />
    </linearGradient>
    <linearGradient
       id="linearGradient3740">
      <stop
         offset="0"
         style="stop-color:#5cacf5"
         id="stop38" />
      <stop
         offset="1"
         style="stop-color:#abd4f4"
         id="stop40" />
    </linearGradient>
    <linearGradient
       id="linearGradient3617"
       xlink:href="#linearGradient3700"
       y1="90"
       y2="5.988"
       x2="0"
       gradientUnits="userSpaceOnUse" />
    <linearGradient
       id="linearGradient3737">
      <stop
         offset="0"
         style="stop-color:#fff"
         id="stop44" />
      <stop
         offset="1"
         style="stop-color:#fff;stop-opacity:0"
         id="stop46" />
    </linearGradient>
    <linearGradient
       id="linearGradient3748">
      <stop
         offset="0"
         style="stop-color:#5aabf2"
         id="stop49" />
      <stop
         offset="1"
         style="stop-color:#badaf5"
         id="stop51" />
    </linearGradient>
    <linearGradient
       id="linearGradient3700">
      <stop
         offset="0"
         style="stop-color:#eec00f"
         id="stop54" />
      <stop
         offset="1"
         style="stop-color:#fff8a0"
         id="stop56" />
    </linearGradient>
    <linearGradient
       id="linearGradient3613"
       xlink:href="#linearGradient3737"
       y1="20.221"
       y2="138.661"
       x2="0"
       gradientUnits="userSpaceOnUse" />
    <linearGradient
       id="linearGradient3188"
       xlink:href="#linearGradient3737"
       y1="6"
       y2="63.893"
       x2="0"
       gradientUnits="userSpaceOnUse" />
    <linearGradient
       id="linearGradient3707">
      <stop
         offset="0"
         style="stop-color:#a8d4fb"
         id="stop61" />
      <stop
         offset="1"
         style="stop-color:#dff0fa"
         id="stop63" />
    </linearGradient>
    <linearGradient
       gradientTransform="matrix(1.00587 0 0 .99417 100 0)"
       id="ButtonShadow-0"
       y1="92.54"
       y2="7.017"
       x2="0"
       gradientUnits="userSpaceOnUse">
      <stop
         offset="0"
         id="stop66" />
      <stop
         offset="1"
         style="stop-opacity:.588"
         id="stop68" />
    </linearGradient>
    <linearGradient
       id="linearGradient3782"
       xlink:href="#linearGradient3731"
       y1="74.688"
       x1="47.835"
       y2="28.007"
       x2="48.322"
       gradientUnits="userSpaceOnUse" />
    <linearGradient
       id="linearGradient3739"
       xlink:href="#linearGradient3731"
       y1="77.265"
       y2="21.944"
       x2="0"
       gradientUnits="userSpaceOnUse" />
    <linearGradient
       gradientTransform="translate(0 -97)"
       id="linearGradient3721"
       xlink:href="#ButtonShadow-0"
       y1="6.132"
       y2="90.239"
       x2="0"
       gradientUnits="userSpaceOnUse" />
    <linearGradient
       gradientTransform="matrix(1.02381 0 0 1.0119 -1.14286 -98.07143)"
       id="linearGradient3780"
       xlink:href="#ButtonShadow-0"
       y1="6.132"
       y2="90.239"
       x2="0"
       gradientUnits="userSpaceOnUse" />
    <linearGradient
       id="linearGradient3722"
       xlink:href="#linearGradient3707"
       x1="48.077"
       x2="65.112"
       gradientUnits="userSpaceOnUse" />
    <linearGradient
       id="linearGradient3713"
       xlink:href="#linearGradient3707"
       x1="31"
       x2="48.035"
       gradientUnits="userSpaceOnUse" />
    <linearGradient
       id="linearGradient3730"
       xlink:href="#linearGradient3724"
       x1="27.395"
       x2="48.112"
       gradientUnits="userSpaceOnUse" />
    <linearGradient
       id="linearGradient3755"
       xlink:href="#linearGradient3748"
       x1="19.288"
       x2="47.995"
       gradientUnits="userSpaceOnUse" />
    <linearGradient
       id="linearGradient3763"
       xlink:href="#linearGradient3757"
       x1="19.069"
       x2="47.886"
       gradientUnits="userSpaceOnUse" />
    <linearGradient
       id="linearGradient3799"
       xlink:href="#linearGradient3801"
       x1="48"
       x2="69.018"
       gradientUnits="userSpaceOnUse" />
    <linearGradient
       id="linearGradient3746"
       xlink:href="#linearGradient3740"
       x1="47.917"
       x2="76.624"
       gradientUnits="userSpaceOnUse" />
    <linearGradient
       id="linearGradient3773"
       xlink:href="#linearGradient3757"
       x1="47.917"
       x2="76.734"
       gradientUnits="userSpaceOnUse" />
    <linearGradient
       id="linearGradient3738"
       xlink:href="#linearGradient3724"
       x1="48"
       x2="69.018"
       gradientUnits="userSpaceOnUse" />
    <linearGradient
       id="linearGradient3790"
       xlink:href="#linearGradient3784"
       x1="31.085"
       x2="48.112"
       gradientUnits="userSpaceOnUse" />
    <radialGradient
       cx="48.074"
       cy="63.819"
       gradientTransform="matrix(1,0,0,0.61803,0,24.37652)"
       r="22.071"
       id="radialGradient3714"
       gradientUnits="userSpaceOnUse">
      <stop
         offset="0"
         style="stop-color:#803300"
         id="stop85" />
      <stop
         offset=".5"
         style="stop-color:#803300"
         id="stop87" />
      <stop
         offset=".75"
         style="stop-color:#803300;stop-opacity:.736"
         id="stop89" />
      <stop
         offset="1"
         style="stop-color:#803300;stop-opacity:0"
         id="stop91" />
    </radialGradient>
    <radialGradient
       cx="48"
       cy="90.172"
       gradientTransform="matrix(1.15731 0 0 .99591 -7.55102 .19713)"
       r="42"
       id="radialGradient3619"
       xlink:href="#linearGradient3737"
       gradientUnits="userSpaceOnUse" />
    <linearGradient
       inkscape:collect="always"
       xlink:href="#linearGradient3731"
       id="linearGradient3133"
       gradientUnits="userSpaceOnUse"
       y1="77.265"
       x2="0"
       y2="21.944" />
    <linearGradient
       inkscape:collect="always"
       xlink:href="#linearGradient3731"
       id="linearGradient3135"
       gradientUnits="userSpaceOnUse"
       y1="77.265"
       x2="0"
       y2="21.944" />
    <linearGradient
       inkscape:collect="always"
       xlink:href="#linearGradient3748"
       id="linearGradient3138"
       gradientUnits="userSpaceOnUse"
       x1="19.288"
       x2="47.995" />
    <linearGradient
       inkscape:collect="always"
       xlink:href="#linearGradient3740"
       id="linearGradient3141"
       gradientUnits="userSpaceOnUse"
       x1="47.917"
       x2="76.624" />
    <radialGradient
       inkscape:collect="always"
       xlink:href="#radialGradient3714"
       id="radialGradient3147"
       gradientUnits="userSpaceOnUse"
       gradientTransform="matrix(1,0,0,0.69603157,80,19.676671)"
       cx="48.074"
       cy="63.819"
       r="22.071" />
    <linearGradient
       inkscape:collect="always"
       xlink:href="#linearGradient3731"
       id="linearGradient3150"
       gradientUnits="userSpaceOnUse"
       x1="47.835"
       y1="74.688"
       x2="48.322"
       y2="28.007"
       gradientTransform="translate(0,1)" />
    <linearGradient
       inkscape:collect="always"
       xlink:href="#linearGradient3731"
       id="linearGradient3153"
       gradientUnits="userSpaceOnUse"
       y1="77.265"
       x2="0"
       y2="21.944" />
    <linearGradient
       inkscape:collect="always"
       xlink:href="#linearGradient3731"
       id="linearGradient3156"
       gradientUnits="userSpaceOnUse"
       y1="77.265"
       x2="0"
       y2="21.944" />
    <linearGradient
       inkscape:collect="always"
       xlink:href="#linearGradient3731"
       id="linearGradient3159"
       gradientUnits="userSpaceOnUse"
       y1="77.265"
       x2="0"
       y2="21.944" />
  </defs>
  <path
     style="opacity:.08;fill:url(#linearGradient3780)"
     d="m12-95.0312c-5.5111,0-10.0312,4.5202-10.0312,10.0312v71c0,5.5111 4.5202,10.0312 10.0312,10.0312h72c5.5111,0 10.0312-4.5202 10.0312-10.0312v-71c0-5.5111-4.5202-10.0312-10.0312-10.0312h-72z"
     transform="scale(1 -1)"
     id="path94" />
  <path
     style="opacity:.1;fill:url(#linearGradient3780)"
     d="m12-94.0312c-4.9716,0-9.0312,4.0596-9.0312,9.0312v71c0,4.9716 4.0596,9.0312 9.0312,9.0312h72c4.9716,0 9.0312-4.0596 9.0312-9.0312v-71c0-4.9716-4.0596-9.0312-9.0312-9.0312h-72z"
     transform="scale(1 -1)"
     id="path96" />
  <path
     style="opacity:.2;fill:url(#linearGradient3780)"
     d="m12-93c-4.4091,0-8,3.5909-8,8v71c0,4.4091 3.5909,8 8,8h72c4.4091,0 8-3.5909 8-8v-71c0-4.4091-3.5909-8-8-8h-72z"
     transform="scale(1 -1)"
     id="path98" />
  <path
     style="opacity:.3;fill:url(#linearGradient3780)"
     d="m12-92h72a7,7 0 0,1 7,7v71a7,7 0 0,1 -7,7h-72a7,7 0 0,1 -7-7v-71a7,7 0 0,1 7-7"
     transform="scale(1 -1)"
     id="path100" />
  <path
     style="opacity:.45;fill:url(#linearGradient3721)"
     d="m12-91h72a6,6 0 0,1 6,6v72a6,6 0 0,1 -6,6h-72a6,6 0 0,1 -6-6v-72a6,6 0 0,1 6-6"
     transform="scale(1 -1)"
     id="path102" />
  <path
     style="fill:url(#linearGradient3617)"
     d="m12,6h72a6,6 0 0,1 6,6v72a6,6 0 0,1 -6,6h-72a6,6 0 0,1 -6-6v-72a6,6 0 0,1 6-6"
     id="path104" />
  <path
     style="opacity:.5;fill:url(#linearGradient3188)"
     d="m12,6c-3.324,0-6,2.676-6,6v2 68 2c0,.3347 .0413,.6507 .0938,.9688 .0487,.2956 .097,.5969 .1875,.875 .0099,.0304 .0209,.0636 .0312,.0938 .0989,.2878 .2349,.5475 .375,.8125 .1446,.2735 .3156,.5356 .5,.7812 .1844,.2456 .3738,.4735 .5938,.6875 .4399,.4281 .9429,.8145 1.5,1.0938 .2785,.1396 .5735,.2469 .875,.3438-.2562-.1002-.4867-.2363-.7188-.375-.0074-.0044-.0239,.0045-.0312,0-.0319-.0193-.0623-.0425-.0938-.0625-.1204-.0767-.231-.1635-.3438-.25-.1062-.0808-.2133-.1611-.3125-.25-.1779-.1614-.3475-.3454-.5-.5312-.1076-.1303-.2184-.2653-.3125-.4062-.0251-.0384-.0384-.0859-.0625-.125-.0648-.103-.1302-.2045-.1875-.3125-.101-.1947-.2057-.4157-.2812-.625-.008-.0218-.0236-.0405-.0312-.0625-.0318-.0919-.0358-.1868-.0625-.2812-.0303-.1066-.0704-.203-.0938-.3125-.0729-.3415-.125-.6982-.125-1.0625v-2-68-2c0-2.7818 2.2182-5 5-5h2 68 2c2.7818,0 5,2.2182 5,5v2 68 2c0,.3643-.0521,.721-.125,1.0625-.0442,.2069-.0884,.3977-.1562,.5938-.0077,.022-.0233,.0407-.0312,.0625-.0627,.1737-.1384,.3674-.2188,.5312-.0416,.0828-.079,.17-.125,.25-.0546,.0972-.1268,.1883-.1875,.2812-.0941,.141-.2049,.276-.3125,.4062-.1432,.1744-.3031,.347-.4688,.5-.0112,.0102-.02,.0212-.0312,.0312-.1384,.1256-.2851,.2344-.4375,.3438-.1026,.0731-.2043,.1534-.3125,.2188-.0074,.0045-.0238-.0044-.0312,0-.232,.1387-.4625,.2748-.7188,.375 .3015-.0968 .5965-.2041 .875-.3438 .5571-.2792 1.0601-.6657 1.5-1.0938 .22-.214 .4094-.4419 .5938-.6875 .1844-.2456 .3554-.5077 .5-.7812 .1401-.265 .2761-.5247 .375-.8125 .0104-.0308 .0213-.0627 .0312-.0938 .0905-.2781 .1388-.5794 .1875-.875 .0524-.318 .0938-.634 .0938-.9688v-2-68-2c0-3.324-2.676-6-6-6h-72z"
     id="path106" />
  <path
     style="opacity:.2;fill:url(#radialGradient3619)"
     d="m12,90c-3.324,0-6-2.676-6-6v-2-68-2c0-.3347 .0413-.6507 .0938-.9688 .0487-.2956 .097-.5969 .1875-.875 .0099-.0304 .0209-.0636 .0312-.0938 .0989-.2878 .2349-.5475 .375-.8125 .1446-.2735 .3156-.5356 .5-.7812 .1844-.2456 .3738-.4735 .5938-.6875 .4399-.4281 .9429-.8145 1.5-1.0938 .2785-.1396 .5735-.2469 .875-.3438-.2562,.1002-.4867,.2363-.7188,.375-.0074,.0044-.0239-.0045-.0312,0-.0319,.0193-.0623,.0425-.0938,.0625-.1204,.0767-.231,.1635-.3438,.25-.1062,.0808-.2133,.1611-.3125,.25-.1779,.1614-.3475,.3454-.5,.5312-.1076,.1303-.2184,.2653-.3125,.4062-.0251,.0384-.0384,.0859-.0625,.125-.0648,.103-.1302,.2045-.1875,.3125-.101,.1947-.2057,.4157-.2812,.625-.008,.0218-.0236,.0405-.0312,.0625-.0318,.092-.0358,.1868-.0625,.2812-.0303,.1066-.0704,.203-.0938,.3125-.0729,.3415-.125,.6982-.125,1.0625v2 68 2c0,2.7818 2.2182,5 5,5h2 68 2c2.7818,0 5-2.2182 5-5v-2-68-2c0-.3643-.0521-.721-.125-1.0625-.0442-.2069-.0884-.3977-.1562-.5938-.0077-.022-.0233-.0407-.0312-.0625-.0627-.1737-.1384-.3674-.2188-.5312-.0416-.0828-.079-.17-.125-.25-.0546-.0972-.1268-.1883-.1875-.2812-.0941-.141-.2049-.276-.3125-.4062-.1432-.1745-.3031-.347-.4688-.5-.0112-.0102-.02-.0211-.0312-.0312-.1384-.1256-.2851-.2344-.4375-.3438-.1026-.0732-.2043-.1534-.3125-.2188-.0074-.0045-.0238,.0044-.0312,0-.232-.1387-.4625-.2748-.7188-.375 .3015,.0968 .5965,.2041 .875,.3438 .5571,.2792 1.0601,.6657 1.5,1.0938 .22,.214 .4094,.4419 .5938,.6875 .1844,.2456 .3554,.5077 .5,.7812 .1401,.265 .2761,.5247 .375,.8125 .0104,.0308 .0213,.0627 .0312,.0938 .0905,.2781 .1388,.5794 .1875,.875 .0524,.318 .0938,.634 .0938,.9688v2 68 2c0,3.324-2.676,6-6,6h-72z"
     id="path108" />
  <path
     style="opacity:.1;fill:url(#linearGradient3613);filter:url(#filter3794);stroke:#fff;stroke-linecap:round;stroke-width:.5;clip-path:url(#clipPath3613)"
     d="m27,15h42a12,12 0 0,1 12,12v42a12,12 0 0,1 -12,12h-42a12,12 0 0,1 -12-12v-42a12,12 0 0,1 12-12"
     id="path110"
     clip-path="url(#clipPath3613)" />
  <path
     inkscape:connector-curvature="0"
     id="path114"
     d="m 36.0625,20.5312 a 1.0566,1.0566 0 0 0 -0.375,0.0938 c -3.2369,1.5476 -6.0599,3.6712 -9,5.3125 a 1.0566,1.0566 0 0 0 -0.0625,0.0312 c -3.1879,2.0275 -6.6549,3.8639 -9.8438,6.1562 a 1.0566,1.0566 0 0 0 -0.1875,0.1875 c -0.5483,0.6723 -0.8438,1.4182 -0.8438,2.1562 0,0.7381 0.2735,1.3975 0.625,1.9375 0.6669,1.0246 1.5999,1.7322 2.3125,2.3125 0.0357,0.0421 0.0881,0.0833 0.125,0.125 1.1221,1.268 2.7517,2.3167 4.1562,3.375 1.2435,0.937 1.9064,1.7777 2.1875,2.3125 -2.9262,2.3955 -6.0589,4.6443 -8.9062,7.3125 a 1.0566,1.0566 0 0 0 -0.2188,0.2812 c -0.4594,0.8423 -0.5931,1.7192 -0.4062,2.5 0.1868,0.7808 0.6455,1.3912 1.1562,1.875 1.0214,0.9675 2.3166,1.5799 3.0938,2.0938 a 1.0566,1.0566 0 0 0 0.0312,0 c 2.5467,1.6286 5.0905,3.2247 7.5938,4.875 -0.0587,1.1858 0.2511,2.2876 0.9375,3.0625 0.8256,0.932 1.9166,1.5479 2.8438,2.0312 v 0.0312 c 0.0376,0.0263 0.0874,0.0361 0.125,0.0625 5.0142,3.5174 9.9733,7.1878 15.125,10.5625 a 1.0566,1.0566 0 0 0 0.3125,0.1562 c 1.5131,0.4235 2.8548,-0.2147 3.8438,-0.9062 0.9889,-0.6916 1.8188,-1.4568 2.5,-1.8125 a 1.0566,1.0566 0 0 0 0.125,-0.0938 c 4.6717,-3.3871 9.5498,-6.5333 14.2188,-10.0625 a 1.0566,1.0566 0 0 0 0.3125,-0.375 c 0.5672,-1.1389 0.6756,-2.1908 0.9062,-2.8125 0.2306,-0.6217 0.362,-0.8566 1.375,-1.125 a 1.0566,1.0566 0 0 0 0.3125,-0.1562 c 2.909,-1.9242 6.081,-3.6436 8.9688,-5.875 a 1.0566,1.0566 0 0 0 0.2188,-0.25 c 0.8693,-1.2635 0.6681,-2.7806 0.0312,-3.8125 -0.595,-0.9641 -1.4957,-1.6165 -2.3125,-2.125 l 0.0312,-0.0312 c -0.0534,-0.048 -0.1333,-0.0771 -0.1875,-0.125 -2.1992,-1.9455 -4.8634,-3.8164 -6.5312,-5.5 2.907,-2.5217 6.0044,-4.9483 8.8125,-7.6875 a 1.0566,1.0566 0 0 0 0.1875,-0.2812 c 0.4803,-0.9336 0.5877,-1.8947 0.3125,-2.7188 -0.2752,-0.8241 -0.836,-1.4529 -1.4375,-1.9375 -1.203,-0.9692 -2.7194,-1.5973 -3.4688,-2.125 A 1.0566,1.0566 0 0 0 75,29.5311 C 70.1996,26.6482 65.4684,23.6326 60.5625,20.8436 A 1.0566,1.0566 0 0 0 60.25,20.7186 c -1.6135,-0.3466 -2.9416,0.454 -3.875,1.2812 -0.9334,0.8272 -1.6878,1.7058 -2.3438,2.0938 a 1.0566,1.0566 0 0 0 -0.0625,0.0312 C 52.701,25.007 51.5343,26.2237 50.4062,27.2498 49.4174,28.1492 48.5026,28.7205 47.75,29.031 44.5381,26.3968 41.4897,23.3828 38,20.8748 a 1.0566,1.0566 0 0 0 -0.2188,-0.125 C 37.0957,20.472 36.4994,20.533 36.1562,20.531 a 1.0566,1.0566 0 0 0 -0.0938,0 z"
     style="opacity:0.05;color:#000000;fill:url(#linearGradient3159)" />
  <path
     inkscape:connector-curvature="0"
     id="path116"
     d="m 36.1562,21.5938 c -3.112,1.4879 -5.9473,3.587 -8.9687,5.2737 -3.2381,2.0594 -6.6736,3.8673 -9.7813,6.1013 -1.718,2.1064 0.615,3.8339 2.0963,5.055 1.8977,2.2382 6.709,4.4744 7.0466,6.7149 -3.1653,2.6551 -6.576,5.071 -9.5804,7.8864 -1.4596,2.6764 1.7497,3.9315 3.5048,5.0919 2.6793,1.7134 5.376,3.4 8.0265,5.1581 -0.7113,2.3767 1.5658,3.9141 3.375,4.8438 5.0651,3.5506 10.0918,7.246 15.25,10.625 2.261,0.6329 3.7706,-1.6828 5.5548,-2.6145 4.7026,-3.4096 9.5993,-6.5754 14.2265,-10.073 0.93,-1.8673 0.3841,-3.8168 2.9341,-4.4925 2.9586,-1.9569 6.1102,-3.6881 8.9096,-5.8513 1.288,-1.8721 -0.5748,-3.6895 -2.0938,-4.5938 -2.3785,-2.1395 -5.8111,-4.273 -7.5625,-6.4062 3.1891,-2.8238 6.5919,-5.4788 9.625,-8.4375 1.5324,-2.9786 -2.4061,-4.13 -4.2429,-5.4236 -4.8163,-2.8924 -9.5695,-5.9299 -14.4446,-8.7014 -2.4178,-0.5194 -3.6759,2.184 -5.4777,3.2495 -2.2842,1.5897 -4.6385,4.717 -6.9048,5.3275 -3.4801,-2.7848 -6.6797,-6.0252 -10.2738,-8.6082 -0.3925,-0.1591 -0.8089,-0.1226 -1.2188,-0.125 z"
     style="opacity:0.1;color:#000000;fill:url(#linearGradient3156)" />
  <path
     inkscape:connector-curvature="0"
     id="path118"
     d="M 36.3125,22.5312 A 0.8077,0.8077 0 0 0 36,22.6562 c -5.8648,3.5262 -11.8445,7.1417 -17.6875,10.75 a 0.8077,0.8077 0 0 0 -0.2188,0.2188 c -0.279,0.3854 -0.4018,0.921 -0.2812,1.3438 0.1205,0.4227 0.3883,0.6837 0.625,0.9062 0.4734,0.4452 1.0082,0.7782 1.125,0.9062 a 0.8077,0.8077 0 0 0 0.0625,0.0938 c 2.9587,2.5383 5.985,4.9805 8.875,7.5312 -0.0203,0.0158 -0.0067,0.0141 -0.0312,0.0312 -0.2321,0.1619 -0.6365,0.4257 -1,0.8125 l -0.0312,-0.0312 c -3.1479,2.5523 -6.332,5.0614 -9.4688,7.6562 a 0.8077,0.8077 0 0 0 -0.1875,0.2188 c -0.2194,0.3834 -0.297,0.89 -0.1562,1.2812 0.1407,0.3913 0.3866,0.6549 0.625,0.8438 0.4768,0.3778 1.0172,0.5962 1.1875,0.7188 a 0.8077,0.8077 0 0 0 0.0312,0.0312 c 3.332,2.1532 6.7081,4.195 9.9688,6.375 0.0681,0.4267 -0.0947,1.0598 -0.0312,1.9688 a 0.8077,0.8077 0 0 0 0.125,0.375 c 0.8194,1.2284 2.2363,1.6871 2.9062,2.2812 a 0.8077,0.8077 0 0 0 0.0625,0.0625 c 4.9201,3.4347 9.8425,6.9598 14.7812,10.3438 a 0.8077,0.8077 0 0 0 0.3438,0.125 c 0.8222,0.1368 1.4639,-0.2985 1.9062,-0.6562 0.4423,-0.3577 0.79,-0.6574 1,-0.75 A 0.8077,0.8077 0 0 0 50.6875,76 c 5.084,-3.6447 10.3027,-7.2242 15.375,-10.8125 a 0.8077,0.8077 0 0 0 0.125,-0.125 c 0.3198,-0.3491 0.4372,-0.7898 0.4688,-1.1562 0.0315,-0.3665 2e-4,-0.6596 -0.0312,-0.9375 -0.0587,-0.5187 -0.0286,-0.7706 0.0312,-0.875 3.6835,-2.3779 7.4705,-4.6911 11.125,-7.1562 a 0.8077,0.8077 0 0 0 0.3125,-0.3438 c 0.1791,-0.4363 0.1492,-0.9693 -0.0312,-1.3438 -0.1804,-0.3745 -0.439,-0.6161 -0.6875,-0.8125 -0.497,-0.3928 -0.9935,-0.6948 -1.0938,-0.8125 a 0.8077,0.8077 0 0 0 -0.125,-0.0938 c -2.9265,-2.3959 -5.8992,-4.7136 -8.75,-7.125 0.0189,-0.0152 0.0088,-0.0149 0.0312,-0.0312 0.2328,-0.1703 0.6432,-0.4034 1,-0.8125 l 0.0312,0.0312 c 3.0847,-2.663 6.2611,-5.3045 9.3125,-8.0312 a 0.8077,0.8077 0 0 0 0.1875,-0.25 C 78.1594,34.902 78.1785,34.38 77.9999,34 77.8213,33.62 77.535,33.3923 77.2811,33.2188 76.7734,32.8716 76.2618,32.6359 76.1249,32.5313 a 0.8077,0.8077 0 0 0 -0.0938,-0.0312 c -5.3605,-3.2265 -10.7152,-6.578 -16.0938,-9.75 a 0.8077,0.8077 0 0 0 -0.2812,-0.125 c -0.8448,-0.1212 -1.4598,0.4101 -1.875,0.8125 -0.4152,0.4024 -0.7793,0.7973 -0.9688,0.9062 a 0.8077,0.8077 0 0 0 -0.125,0.0625 c -2.9283,2.482 -5.7858,5.031 -8.7188,7.4375 -0.0876,-0.042 -0.1378,-0.0428 -0.3125,-0.2188 -0.2388,-0.2405 -0.5498,-0.6128 -1,-0.9062 -0.0393,-0.0333 -0.0857,-0.0604 -0.125,-0.0938 -3.0639,-2.5954 -6.1285,-5.3398 -9.25,-7.875 a 0.8077,0.8077 0 0 0 -0.2812,-0.1562 c -0.2633,-0.0791 -0.4702,-0.068 -0.625,-0.0625 a 0.8077,0.8077 0 0 0 -0.0625,0 z"
     style="opacity:0.15;color:#000000;fill:url(#linearGradient3153)" />
  <path
     inkscape:connector-curvature="0"
     id="path120"
     d="m 36.4062,23.3438 c -0.0326,0.0074 8e-4,0.022 -0.0312,0.0312 -0.0321,0.0093 -0.031,-0.0111 -0.0625,0 -0.0315,0.0111 -5e-4,0.0183 -0.0312,0.0312 -0.0308,0.0129 -0.0013,-0.0147 -0.0312,0 -0.03,0.0147 -0.0022,0.0148 -0.0312,0.0312 -0.0291,0.0164 -0.0032,-0.0181 -0.0312,0 a 0.5,0.5 0 0 1 -0.0312,0.0312 l -17.25,10.5 c -0.0289,0.0176 -0.0035,-0.0193 -0.0312,0 -0.0278,0.0193 -0.0047,0.0104 -0.0312,0.0312 -0.0266,0.0209 -0.0059,0.0088 -0.0312,0.0312 -0.0253,0.0224 -0.0073,0.0074 -0.0312,0.0312 -0.0239,0.0239 -0.0088,0.006 -0.0312,0.0312 -0.0225,0.0252 -0.0103,0.0047 -0.0312,0.0312 -0.021,0.0265 -0.0119,0.0035 -0.0312,0.0312 -0.0194,0.0277 0.0177,0.0024 0,0.0312 -0.0177,0.0288 -0.0153,0.0015 -0.0312,0.0312 -0.016,0.0298 -0.0171,0.0318 -0.0312,0.0625 -0.0142,0.0307 0.0124,-2e-4 0,0.0312 -0.0124,0.0315 -0.0208,-9e-4 -0.0312,0.0312 -0.0105,0.0321 0.0086,-0.0015 0,0.0312 -0.0086,0.0327 0.0066,0.0294 0,0.0625 -0.0066,0.0331 0.0047,-0.0022 0,0.0312 -0.0047,0.0335 -0.0286,-0.0024 -0.0312,0.0312 -0.0027,0.0337 7e-4,0.0287 0,0.0625 -7e-4,0.0338 -0.0013,-0.0025 0,0.0312 0.0013,0.0338 -0.0033,0.0289 0,0.0625 0.0033,0.0336 0.026,-0.0021 0.0312,0.0312 0.0053,0.0334 -0.0072,-0.0018 0,0.0312 0.0072,0.033 -0.0092,0.03 0,0.0625 0.0092,0.0325 0.0202,-7e-4 0.0312,0.0312 0.0111,0.0319 -0.0129,0 0,0.0312 0.0129,0.0312 0.0165,8e-4 0.0312,0.0312 0.0147,0.0304 -0.0165,0.033 0,0.0625 0.0165,0.0295 0.013,0.0028 0.0312,0.0312 0.0182,0.0285 0.0114,0.0039 0.0312,0.0312 0.0199,0.0273 0.0098,0.0051 0.0312,0.0312 0.0215,0.0261 -0.023,0.0064 0,0.0312 0.023,0.0248 0.0069,0.0078 0.0312,0.0312 0.0244,0.0234 0.0055,0.0093 0.0312,0.0312 l 10.5,8.875 a 0.5,0.5 0 0 1 0,0.75 l -10.6875,8.5938 c -0.0263,0.0211 -0.0063,0.0086 -0.0312,0.0312 -0.025,0.0226 -0.0076,0.0072 -0.0312,0.0312 -0.0236,0.0241 -0.0091,0.0058 -0.0312,0.0312 -0.0221,0.0254 -0.0106,0.0046 -0.0312,0.0312 -0.0206,0.0267 -0.0122,0.0034 -0.0312,0.0312 -0.019,0.0278 0.0173,0.0336 0,0.0625 -0.0173,0.0289 -0.0156,0.0014 -0.0312,0.0312 -0.0156,0.0299 -0.0174,5e-4 -0.0312,0.0312 -0.0138,0.0307 0.012,-2e-4 0,0.0312 -0.012,0.0315 -0.0211,-9e-4 -0.0312,0.0312 -0.0101,0.0322 0.0082,0.0298 0,0.0625 -0.0082,0.0327 0.0063,-0.0019 0,0.0312 -0.0063,0.0331 0.0043,-0.0022 0,0.0312 -0.0043,0.0334 -0.0289,0.0289 -0.0312,0.0625 -0.0024,0.0336 4e-4,-0.0025 0,0.0312 -4e-4,0.0337 -0.0016,0.0288 0,0.0625 0.0016,0.0337 0.0277,-0.0023 0.0312,0.0312 0.0036,0.0335 -0.0055,-0.002 0,0.0312 0.0055,0.0333 -0.0075,0.0296 0,0.0625 0.0075,0.0329 -0.0094,-0.0011 0,0.0312 0.0094,0.0324 0.02,-5e-4 0.0312,0.0312 0.0113,0.0318 -0.0131,2e-4 0,0.0312 0.0131,0.031 0.0163,0.0323 0.0312,0.0625 0.0149,0.0302 -0.0167,0.002 0,0.0312 0.0167,0.0293 0.0129,0.003 0.0312,0.0312 0.0184,0.0282 0.0112,0.0041 0.0312,0.0312 0.02,0.0271 0.0097,0.0054 0.0312,0.0312 0.0216,0.0259 0.0082,0.0067 0.0312,0.0312 0.0231,0.0246 0.0068,0.0081 0.0312,0.0312 0.0245,0.0232 0.0055,0.0095 0.0312,0.0312 0.0258,0.0217 0.0042,0.0111 0.0312,0.0312 0.0135,0.0101 0.0295,-0.0012 0.0312,0 l 11.4062,7.25 a 0.5,0.5 0 0 1 0.2188,0.4375 l -0.0312,1.375 a 0.5,0.5 0 0 1 -0.0312,0.1875 c -0.0093,0.0225 -0.023,0.0084 -0.0312,0.0312 -0.0083,0.0229 0.0073,0.008 0,0.0312 -0.0073,0.0232 0.0063,0.0077 0,0.0312 -0.0063,0.0235 0.0053,0.0075 0,0.0312 -0.0053,0.0237 -0.0269,0.0073 -0.0312,0.0312 -0.0043,0.024 0.0033,0.0071 0,0.0312 -0.0033,0.0241 0.0023,0.007 0,0.0312 -0.0023,0.0242 0.0012,0.0069 0,0.0312 -0.0012,0.0243 2e-4,0.0069 0,0.0312 -2e-4,0.0243 -8e-4,0.0069 0,0.0312 8e-4,0.0243 -0.0019,0.007 0,0.0312 0.0019,0.0243 -0.0029,0.0071 0,0.0312 0.0029,0.0242 -0.0039,0.0072 0,0.0312 0.0039,0.024 0.0263,0.0074 0.0312,0.0312 0.006,0.0236 -0.0069,0.0079 0,0.0312 0.0069,0.0233 -0.0079,0.0082 0,0.0312 0.0079,0.023 0.0223,0.0086 0.0312,0.0312 0.0089,0.0226 -0.0099,0.009 0,0.0312 0.0099,0.0222 -0.0108,0.0094 0,0.0312 0.0108,0.0218 0.0195,0.0099 0.0312,0.0312 0.0117,0.0213 -0.0126,0.0104 0,0.0312 0.0126,0.0208 0.0178,0.011 0.0312,0.0312 0.0143,0.0197 0.0161,0.0122 0.0312,0.0312 0.0151,0.0191 0.0153,0.0129 0.0312,0.0312 0.0159,0.0184 -0.0167,0.0136 0,0.0312 0.0167,0.0177 0.0138,-0.017 0.0312,0 0.0174,0.017 0.0131,0.015 0.0312,0.0312 0.0181,0.0162 -0.0188,0.0158 0,0.0312 0.0188,0.0154 0.0118,-0.0146 0.0312,0 0.0195,0.0146 0.0112,0.0175 0.0312,0.0312 l 17.0625,12 c 0.018,0.0127 0.0128,-0.012 0.0312,0 0.0185,0.012 0.0123,0.02 0.0312,0.0312 0.0193,0.0105 0.0115,0.0215 0.0312,0.0312 0.0197,0.0098 0.0112,-0.009 0.0312,0 0.0201,0.009 0.0108,-0.0082 0.0312,0 0.0204,0.0082 0.0105,0.0238 0.0312,0.0312 0.0207,0.0075 0.0103,-0.0067 0.0312,0 0.0212,0.0058 0.0098,0.0262 0.0312,0.0312 0.0214,0.005 0.0096,-0.0042 0.0312,0 0.0216,0.0042 0.0095,-0.0034 0.0312,0 0.0217,0.0034 0.0094,-0.0025 0.0312,0 0.0219,0.0025 0.0093,-0.0017 0.0312,0 0.0219,0.0017 0.0093,-8e-4 0.0312,0 0.022,8e-4 0.0092,0 0.0312,0 0.022,-8e-4 0.0093,0.0017 0.0312,0 0.0219,-0.0017 0.0094,0.0025 0.0312,0 0.0219,-0.0025 0.0095,0.0034 0.0312,0 0.0217,-0.0034 0.0096,0.0042 0.0312,0 0.0216,-0.0042 0.0098,0.005 0.0312,0 0.0214,-0.005 0.01,-0.0254 0.0312,-0.0312 0.021,-0.0067 0.0105,0.0075 0.0312,0 0.0207,-0.0075 0.0108,-0.023 0.0312,-0.0312 0.0204,-0.0082 0.0112,0.009 0.0312,0 0.0201,-0.009 0.0115,0.0098 0.0312,0 0.0197,-0.0098 0.0119,-0.0207 0.0312,-0.0312 0.0189,-0.0113 0.0128,-0.0193 0.0312,-0.0312 0.0185,-0.012 0.0133,0.0127 0.0312,0 l 10.5938,-7.5 a 0.5,0.5 0 0 1 0.0312,0 0.5,0.5 0 0 1 0.0625,-0.0625 0.5,0.5 0 0 1 0.0312,0 l 0.0625,-0.0312 6.1562,-4.3125 a 0.5,0.5 0 0 1 0.0312,-0.0312 c 0.0227,-0.0137 0.0092,0.0147 0.0312,0 0.022,-0.0147 0.0099,-0.0155 0.0312,-0.0312 a 0.5,0.5 0 0 1 0.0312,-0.0312 c 0.0183,-0.0103 0.0134,0.011 0.0312,0 0.0089,-0.0055 0.0301,7e-4 0.0312,0 0.0011,-7e-4 -0.0087,-0.0254 0,-0.0312 0.017,-0.0123 0.0147,-0.0183 0.0312,-0.0312 a 0.5,0.5 0 0 1 0.0625,-0.0625 0.5,0.5 0 0 1 0.0312,-0.0312 c 0.0185,-0.019 -0.0176,-0.0114 0,-0.0312 0.0176,-0.0199 0.0146,-0.0106 0.0312,-0.0312 0.0166,-0.0207 0.0156,-0.0098 0.0312,-0.0312 0.0147,-0.0221 0.0176,-0.0085 0.0312,-0.0312 0.0136,-0.0228 -0.0125,-0.0079 0,-0.0312 0.0125,-0.0234 0.0198,-0.0073 0.0312,-0.0312 0.0114,-0.0239 -0.0103,-0.0068 0,-0.0312 0.0103,-0.0244 0.0221,-0.0064 0.0312,-0.0312 0.0092,-0.0249 -0.008,-0.006 0,-0.0312 0.008,-0.0253 -0.0069,-0.0056 0,-0.0312 0.0069,-0.0256 -0.0057,-0.0053 0,-0.0312 0.0057,-0.0259 0.0268,-0.0051 0.0312,-0.0312 0.0045,-0.0261 -0.0032,-0.0049 0,-0.0312 0.0032,-0.0263 -0.002,-0.0048 0,-0.0312 0.002,-0.0264 -8e-4,-0.0047 0,-0.0312 l -0.0312,-2.0312 a 0.5,0.5 0 0 1 0.2188,-0.4375 l 11.0625,-7.0312 c 0.0018,-0.0012 0.0177,0.0101 0.0312,0 0.027,-0.0202 0.0055,-0.0095 0.0312,-0.0312 0.0258,-0.0217 0.0068,-0.0081 0.0312,-0.0312 0.0245,-0.0232 0.0082,-0.0067 0.0312,-0.0312 0.0231,-0.0246 0.0097,-0.0054 0.0312,-0.0312 0.0216,-0.0259 0.0112,-0.0041 0.0312,-0.0312 0.02,-0.0271 0.0129,-0.003 0.0312,-0.0312 0.0184,-0.0282 0.0146,-0.002 0.0312,-0.0312 0.0167,-0.0293 -0.0149,-10e-4 0,-0.0312 0.0149,-0.0302 0.0181,-0.0315 0.0312,-0.0625 0.0131,-0.031 -0.0113,5e-4 0,-0.0312 0.0113,-0.0318 0.0218,0.0011 0.0312,-0.0312 0.0094,-0.0324 -0.0075,0.0016 0,-0.0312 0.0075,-0.0329 -0.0055,-0.0292 0,-0.0625 0.0055,-0.0333 -0.0036,0.0023 0,-0.0312 0.0036,-0.0335 0.0297,0.0024 0.0312,-0.0312 0.0016,-0.0337 4e-4,-0.0288 0,-0.0625 -4e-4,-0.0337 0.0024,0.0024 0,-0.0312 -0.0024,-0.0336 -0.0269,-0.0291 -0.0312,-0.0625 -0.0043,-0.0334 0.0063,0.0019 0,-0.0312 -0.0063,-0.0331 0.0082,0.0014 0,-0.0312 -0.0082,-0.0327 0.0101,-0.0303 0,-0.0625 -0.0101,-0.0322 -0.0192,2e-4 -0.0312,-0.0312 -0.012,-0.0315 0.0138,-5e-4 0,-0.0312 -0.0138,-0.0307 -0.0156,-0.0014 -0.0312,-0.0312 -0.0156,-0.0299 -0.0139,-0.0023 -0.0312,-0.0312 -0.0173,-0.0289 0.019,-0.0347 0,-0.0625 -0.019,-0.0278 -0.0106,-0.0046 -0.0312,-0.0312 -0.0206,-0.0267 -0.0091,-0.0058 -0.0312,-0.0312 -0.0221,-0.0254 -0.0076,-0.0072 -0.0312,-0.0312 -0.0236,-0.0241 -0.0063,-0.0086 -0.0312,-0.0312 -0.025,-0.0226 -0.005,-0.0101 -0.0312,-0.0312 l -10.5625,-8.5 a 0.5,0.5 0 0 1 0,-0.75 l 10.5,-8.9375 c 0.0257,-0.0219 0.0069,-0.0078 0.0312,-0.0312 0.0244,-0.0234 0.0083,-0.0064 0.0312,-0.0312 0.023,-0.0248 -0.0215,-0.0051 0,-0.0312 0.0215,-0.0261 0.0114,-0.0039 0.0312,-0.0312 0.0199,-0.0273 0.013,-0.0028 0.0312,-0.0312 0.0182,-0.0285 0.0147,-0.0018 0.0312,-0.0312 0.0165,-0.0295 -0.0148,-0.0321 0,-0.0625 0.0148,-0.0304 0.0183,0 0.0312,-0.0312 0.0129,-0.0312 -0.0111,7e-4 0,-0.0312 0.0111,-0.0319 0.0221,0.0013 0.0312,-0.0312 0.0092,-0.0325 -0.0072,-0.0295 0,-0.0625 0.0072,-0.033 -0.0053,0.0021 0,-0.0312 0.0053,-0.0334 0.028,0.0024 0.0312,-0.0312 0.0033,-0.0336 -0.0013,-0.0287 0,-0.0625 0.0013,-0.0338 7e-4,0.0025 0,-0.0312 -7e-4,-0.0338 0.0027,-0.0288 0,-0.0625 -0.0027,-0.0337 -0.0266,0.0022 -0.0312,-0.0312 -0.0047,-0.0335 0.0066,0.0019 0,-0.0312 -0.0066,-0.0331 0.0086,-0.0298 0,-0.0625 -0.0086,-0.0327 0.0105,9e-4 0,-0.0312 -0.0105,-0.0321 -0.0189,2e-4 -0.0312,-0.0312 -0.0123,-0.0315 0.0142,-6e-4 0,-0.0312 -0.0142,-0.0307 -0.0153,-0.0327 -0.0312,-0.0625 -0.016,-0.0298 -0.0135,-0.0024 -0.0312,-0.0312 -0.0177,-0.0288 0.0194,-0.0035 0,-0.0312 -0.0194,-0.0277 -0.0103,-0.0047 -0.0312,-0.0312 -0.021,-0.0265 -0.0088,-0.006 -0.0312,-0.0312 -0.0225,-0.0252 -0.0073,-0.0074 -0.0312,-0.0312 -0.0239,-0.0239 -0.0059,-0.0088 -0.0312,-0.0312 -0.0253,-0.0224 -0.0047,-0.0104 -0.0312,-0.0312 -0.0266,-0.0209 -0.0035,-0.012 -0.0312,-0.0312 -0.0278,-0.0193 -0.0024,0.0176 -0.0312,0 L 59.748,23.5309 c -0.0188,-0.0115 -0.012,-0.0205 -0.0312,-0.0312 -0.0192,-0.0108 -0.0116,0.01 -0.0312,0 -0.0196,-0.01 -0.0112,-0.022 -0.0312,-0.0312 -0.02,-0.0093 -0.0109,0.0085 -0.0312,0 -0.0207,-0.0077 -0.0103,-0.0243 -0.0312,-0.0312 -0.021,-0.0069 -0.01,0.0061 -0.0312,0 -0.0212,-0.0061 -0.0098,0.0053 -0.0312,0 -0.0214,-0.0053 -0.0096,0.0044 -0.0312,0 -0.0216,-0.0044 -0.0095,0.0036 -0.0312,0 -0.0218,-0.0036 0.0219,-0.0285 0,-0.0312 -0.0219,-0.0028 -0.0093,0.0019 -0.0312,0 -0.022,-0.0019 -0.0092,0.0011 -0.0312,0 -0.022,-0.0011 -0.0092,2e-4 -0.0312,0 -0.0221,-2e-4 -0.0092,-6e-4 -0.0312,0 -0.0221,6e-4 -0.0092,-0.0015 -0.0312,0 -0.022,0.0015 -0.0093,-0.0023 -0.0312,0 -0.0219,0.0023 -0.0094,-0.0032 -0.0312,0 -0.0218,0.0032 -0.0095,0.0272 -0.0312,0.0312 -0.0215,0.0048 -0.0099,-0.0057 -0.0312,0 -0.0213,0.0057 -0.0102,-0.0065 -0.0312,0 -0.0211,0.0065 -0.0104,0.024 -0.0312,0.0312 -0.0208,0.0073 -0.0107,-0.0081 -0.0312,0 -0.0205,0.0081 -0.011,-0.0089 -0.0312,0 -0.0202,0.0089 0.0199,0.0216 0,0.0312 -0.0199,0.0096 -0.0118,-0.0104 -0.0312,0 -0.0195,0.0104 -0.0122,-0.0111 -0.0312,0 -0.0191,0.0111 -0.0126,0.0194 -0.0312,0.0312 -0.0181,0.0126 -0.0136,0.018 -0.0312,0.0312 -0.0177,0.0132 -0.0141,-0.0139 -0.0312,0 l -10.5938,9.125 a 0.5,0.5 0 0 1 -0.625,0 L 36.9993,23.4996 c -0.0212,-0.0178 -0.0092,0.0167 -0.0312,0 -0.0221,-0.0167 -0.0084,-0.0156 -0.0312,-0.0312 -0.0228,-0.0157 -0.0077,-0.0167 -0.0312,-0.0312 -0.0236,-0.0145 -0.007,0.0134 -0.0312,0 -0.0242,-0.0134 -0.0064,-0.0191 -0.0312,-0.0312 -0.0249,-0.0122 -0.0058,0.011 -0.0312,0 -0.0254,-0.011 -0.0053,-0.0215 -0.0312,-0.0312 -0.0259,-0.0097 -0.0049,0.0085 -0.0312,0 -0.0264,-0.0085 -0.0045,0.0072 -0.0312,0 -0.0267,-0.0072 -0.0042,-0.0254 -0.0312,-0.0312 -0.0271,-0.0059 -0.004,0.0046 -0.0312,0 -0.0273,-0.0046 -0.0038,0.0033 -0.0312,0 -0.0275,-0.0033 -0.0036,0.0019 -0.0312,0 -0.0276,-0.0019 -0.0348,6e-4 -0.0625,0 -0.0277,-6e-4 -0.0036,-7e-4 -0.0312,0 -0.0166,0.0018 -0.0291,-3e-4 -0.0312,0 -0.0021,3e-4 -0.0148,-0.0027 -0.0312,0 -0.0329,0.0055 0.0013,-0.0074 -0.0312,0 z"
     style="opacity:0.3;color:#000000;fill:url(#linearGradient3150)" />
  <path
     inkscape:connector-curvature="0"
     id="path124"
     d="m 36.4062,22.3438 c -0.0326,0.0074 8e-4,0.022 -0.0312,0.0312 -0.0321,0.0093 -0.031,-0.0111 -0.0625,0 -0.0315,0.0111 -5e-4,0.0183 -0.0312,0.0312 -0.0308,0.0129 -0.0013,-0.0147 -0.0312,0 -0.03,0.0147 -0.0022,0.0148 -0.0312,0.0312 -0.0291,0.0164 -0.0032,-0.0181 -0.0312,0 a 0.5,0.5 0 0 1 -0.0312,0.0312 l -17.25,10.5 c -0.0289,0.0176 -0.0035,-0.0193 -0.0312,0 -0.0278,0.0193 -0.0047,0.0104 -0.0312,0.0312 -0.0266,0.0209 -0.0059,0.0088 -0.0312,0.0312 -0.0253,0.0224 -0.0073,0.0074 -0.0312,0.0312 -0.0239,0.0239 -0.0088,0.006 -0.0312,0.0312 -0.0225,0.0252 -0.0103,0.0047 -0.0312,0.0312 -0.021,0.0265 -0.0119,0.0035 -0.0312,0.0312 -0.0194,0.0277 0.0177,0.0024 0,0.0312 -0.0177,0.0288 -0.0153,0.0015 -0.0312,0.0312 -0.016,0.0298 -0.0171,0.0318 -0.0312,0.0625 -0.0142,0.0307 0.0124,-2e-4 0,0.0312 -0.0124,0.0315 -0.0208,-9e-4 -0.0312,0.0312 -0.0105,0.0321 0.0086,-0.0015 0,0.0312 -0.0086,0.0327 0.0066,0.0294 0,0.0625 -0.0066,0.0331 0.0047,-0.0022 0,0.0312 -0.0047,0.0335 -0.0286,-0.0024 -0.0312,0.0312 -0.0027,0.0337 7e-4,0.0287 0,0.0625 -7e-4,0.0338 -0.0013,-0.0025 0,0.0312 0.0013,0.0338 -0.0033,0.0289 0,0.0625 0.0033,0.0336 0.026,-0.0021 0.0312,0.0312 0.0053,0.0334 -0.0072,-0.0018 0,0.0312 0.0072,0.033 -0.0092,0.03 0,0.0625 0.0092,0.0325 0.0202,-7e-4 0.0312,0.0312 0.0111,0.0319 -0.0129,0 0,0.0312 0.0129,0.0312 0.0165,8e-4 0.0312,0.0312 0.0147,0.0304 -0.0165,0.033 0,0.0625 0.0165,0.0295 0.013,0.0028 0.0312,0.0312 0.0182,0.0285 0.0114,0.0039 0.0312,0.0312 0.0199,0.0273 0.0098,0.0051 0.0312,0.0312 0.0215,0.0261 -0.023,0.0064 0,0.0312 0.023,0.0248 0.0069,0.0078 0.0312,0.0312 0.0244,0.0234 0.0055,0.0093 0.0312,0.0312 l 10.5,8.875 a 0.5,0.5 0 0 1 0,0.75 l -10.6875,8.5938 c -0.0263,0.0211 -0.0063,0.0086 -0.0312,0.0312 -0.025,0.0226 -0.0076,0.0072 -0.0312,0.0312 -0.0236,0.0241 -0.0091,0.0058 -0.0312,0.0312 -0.0221,0.0254 -0.0106,0.0046 -0.0312,0.0312 -0.0206,0.0267 -0.0122,0.0034 -0.0312,0.0312 -0.019,0.0278 0.0173,0.0336 0,0.0625 -0.0173,0.0289 -0.0156,0.0014 -0.0312,0.0312 -0.0156,0.0299 -0.0174,5e-4 -0.0312,0.0312 -0.0138,0.0307 0.012,-2e-4 0,0.0312 -0.012,0.0315 -0.0211,-9e-4 -0.0312,0.0312 -0.0101,0.0322 0.0082,0.0298 0,0.0625 -0.0082,0.0327 0.0063,-0.0019 0,0.0312 -0.0063,0.0331 0.0043,-0.0022 0,0.0312 -0.0043,0.0334 -0.0289,0.0289 -0.0312,0.0625 -0.0024,0.0336 4e-4,-0.0025 0,0.0312 -4e-4,0.0337 -0.0016,0.0288 0,0.0625 0.0016,0.0337 0.0277,-0.0023 0.0312,0.0312 0.0036,0.0335 -0.0055,-0.002 0,0.0312 0.0055,0.0333 -0.0075,0.0296 0,0.0625 0.0075,0.0329 -0.0094,-0.0011 0,0.0312 0.0094,0.0324 0.02,-5e-4 0.0312,0.0312 0.0113,0.0318 -0.0131,2e-4 0,0.0312 0.0131,0.031 0.0163,0.0323 0.0312,0.0625 0.0149,0.0302 -0.0167,0.002 0,0.0312 0.0167,0.0293 0.0129,0.003 0.0312,0.0312 0.0184,0.0282 0.0112,0.0041 0.0312,0.0312 0.02,0.0271 0.0097,0.0054 0.0312,0.0312 0.0216,0.0259 0.0082,0.0067 0.0312,0.0312 0.0231,0.0246 0.0068,0.0081 0.0312,0.0312 0.0245,0.0232 0.0055,0.0095 0.0312,0.0312 0.0258,0.0217 0.0042,0.0111 0.0312,0.0312 0.0135,0.0101 0.0295,-0.0012 0.0312,0 l 11.4062,7.25 a 0.5,0.5 0 0 1 0.2188,0.4375 l -0.0312,1.375 a 0.5,0.5 0 0 1 -0.0312,0.1875 c -0.0093,0.0225 -0.023,0.0084 -0.0312,0.0312 -0.0083,0.0229 0.0073,0.008 0,0.0312 -0.0073,0.0232 0.0063,0.0077 0,0.0312 -0.0063,0.0235 0.0053,0.0075 0,0.0312 -0.0053,0.0237 -0.0269,0.0073 -0.0312,0.0312 -0.0043,0.024 0.0033,0.0071 0,0.0312 -0.0033,0.0241 0.0023,0.007 0,0.0312 -0.0023,0.0242 0.0012,0.0069 0,0.0312 -0.0012,0.0243 2e-4,0.0069 0,0.0312 -2e-4,0.0243 -8e-4,0.0069 0,0.0312 8e-4,0.0243 -0.0019,0.007 0,0.0312 0.0019,0.0243 -0.0029,0.0071 0,0.0312 0.0029,0.0242 -0.0039,0.0072 0,0.0312 0.0039,0.024 0.0263,0.0074 0.0312,0.0312 0.006,0.0236 -0.0069,0.0079 0,0.0312 0.0069,0.0233 -0.0079,0.0082 0,0.0312 0.0079,0.023 0.0223,0.0086 0.0312,0.0312 0.0089,0.0226 -0.0099,0.009 0,0.0312 0.0099,0.0222 -0.0108,0.0094 0,0.0312 0.0108,0.0218 0.0195,0.0099 0.0312,0.0312 0.0117,0.0213 -0.0126,0.0104 0,0.0312 0.0126,0.0208 0.0178,0.011 0.0312,0.0312 0.0143,0.0197 0.0161,0.0122 0.0312,0.0312 0.0151,0.0191 0.0153,0.0129 0.0312,0.0312 0.0159,0.0184 -0.0167,0.0136 0,0.0312 0.0167,0.0177 0.0138,-0.017 0.0312,0 0.0174,0.017 0.0131,0.015 0.0312,0.0312 0.0181,0.0162 -0.0188,0.0158 0,0.0312 0.0188,0.0154 0.0118,-0.0146 0.0312,0 0.0195,0.0146 0.0112,0.0175 0.0312,0.0312 l 17.0625,12 c 0.018,0.0127 0.0128,-0.012 0.0312,0 0.0185,0.012 0.0123,0.02 0.0312,0.0312 0.0193,0.0105 0.0115,0.0215 0.0312,0.0312 0.0197,0.0098 0.0112,-0.009 0.0312,0 0.0201,0.009 0.0108,-0.0082 0.0312,0 0.0204,0.0082 0.0105,0.0238 0.0312,0.0312 0.0207,0.0075 0.0103,-0.0067 0.0312,0 0.0212,0.0058 0.0098,0.0262 0.0312,0.0312 0.0214,0.005 0.0096,-0.0042 0.0312,0 0.0216,0.0042 0.0095,-0.0034 0.0312,0 0.0217,0.0034 0.0094,-0.0025 0.0312,0 0.0219,0.0025 0.0093,-0.0017 0.0312,0 0.0219,0.0017 0.0093,-8e-4 0.0312,0 0.022,8e-4 0.0092,0 0.0312,0 0.022,-8e-4 0.0093,0.0017 0.0312,0 0.0219,-0.0017 0.0094,0.0025 0.0312,0 0.0219,-0.0025 0.0095,0.0034 0.0312,0 0.0217,-0.0034 0.0096,0.0042 0.0312,0 0.0216,-0.0042 0.0098,0.005 0.0312,0 0.0214,-0.005 0.01,-0.0254 0.0312,-0.0312 0.021,-0.0067 0.0105,0.0075 0.0312,0 0.0207,-0.0075 0.0108,-0.023 0.0312,-0.0312 0.0204,-0.0082 0.0112,0.009 0.0312,0 0.0201,-0.009 0.0115,0.0098 0.0312,0 0.0197,-0.0098 0.0119,-0.0207 0.0312,-0.0312 0.0189,-0.0113 0.0128,-0.0193 0.0312,-0.0312 0.0185,-0.012 0.0133,0.0127 0.0312,0 l 10.5938,-7.5 a 0.5,0.5 0 0 1 0.0312,0 0.5,0.5 0 0 1 0.0625,-0.0625 0.5,0.5 0 0 1 0.0312,0 l 0.0625,-0.0312 6.1562,-4.3125 a 0.5,0.5 0 0 1 0.0312,-0.0312 c 0.0227,-0.0137 0.0092,0.0147 0.0312,0 0.022,-0.0147 0.0099,-0.0155 0.0312,-0.0312 a 0.5,0.5 0 0 1 0.0312,-0.0312 c 0.0183,-0.0103 0.0134,0.011 0.0312,0 0.0089,-0.0055 0.0301,7e-4 0.0312,0 0.0011,-7e-4 -0.0087,-0.0254 0,-0.0312 0.017,-0.0123 0.0147,-0.0183 0.0312,-0.0312 a 0.5,0.5 0 0 1 0.0625,-0.0625 0.5,0.5 0 0 1 0.0312,-0.0312 c 0.0185,-0.019 -0.0176,-0.0114 0,-0.0312 0.0176,-0.0199 0.0146,-0.0106 0.0312,-0.0312 0.0166,-0.0207 0.0156,-0.0098 0.0312,-0.0312 0.0147,-0.0221 0.0176,-0.0085 0.0312,-0.0312 0.0136,-0.0228 -0.0125,-0.0079 0,-0.0312 0.0125,-0.0234 0.0198,-0.0073 0.0312,-0.0312 0.0114,-0.0239 -0.0103,-0.0068 0,-0.0312 0.0103,-0.0244 0.0221,-0.0064 0.0312,-0.0312 0.0092,-0.0249 -0.008,-0.006 0,-0.0312 0.008,-0.0253 -0.0069,-0.0056 0,-0.0312 0.0069,-0.0256 -0.0057,-0.0053 0,-0.0312 0.0057,-0.0259 0.0268,-0.0051 0.0312,-0.0312 0.0045,-0.0261 -0.0032,-0.0049 0,-0.0312 0.0032,-0.0263 -0.002,-0.0048 0,-0.0312 0.002,-0.0264 -8e-4,-0.0047 0,-0.0312 l -0.0312,-2.0312 a 0.5,0.5 0 0 1 0.2188,-0.4375 l 11.0625,-7.0312 c 0.0018,-0.0012 0.0177,0.0101 0.0312,0 0.027,-0.0202 0.0055,-0.0095 0.0312,-0.0312 0.0258,-0.0217 0.0068,-0.0081 0.0312,-0.0312 0.0245,-0.0232 0.0082,-0.0067 0.0312,-0.0312 0.0231,-0.0246 0.0097,-0.0054 0.0312,-0.0312 0.0216,-0.0259 0.0112,-0.0041 0.0312,-0.0312 0.02,-0.0271 0.0129,-0.003 0.0312,-0.0312 0.0184,-0.0282 0.0146,-0.002 0.0312,-0.0312 0.0167,-0.0293 -0.0149,-10e-4 0,-0.0312 0.0149,-0.0302 0.0181,-0.0315 0.0312,-0.0625 0.0131,-0.031 -0.0113,5e-4 0,-0.0312 0.0113,-0.0318 0.0218,0.0011 0.0312,-0.0312 0.0094,-0.0324 -0.0075,0.0016 0,-0.0312 0.0075,-0.0329 -0.0055,-0.0292 0,-0.0625 0.0055,-0.0333 -0.0036,0.0023 0,-0.0312 0.0036,-0.0335 0.0297,0.0024 0.0312,-0.0312 0.0016,-0.0337 4e-4,-0.0288 0,-0.0625 -4e-4,-0.0337 0.0024,0.0024 0,-0.0312 -0.0024,-0.0336 -0.0269,-0.0291 -0.0312,-0.0625 -0.0043,-0.0334 0.0063,0.0019 0,-0.0312 -0.0063,-0.0331 0.0082,0.0014 0,-0.0312 -0.0082,-0.0327 0.0101,-0.0303 0,-0.0625 -0.0101,-0.0322 -0.0192,2e-4 -0.0312,-0.0312 -0.012,-0.0315 0.0138,-5e-4 0,-0.0312 -0.0138,-0.0307 -0.0156,-0.0014 -0.0312,-0.0312 -0.0156,-0.0299 -0.0139,-0.0023 -0.0312,-0.0312 -0.0173,-0.0289 0.019,-0.0347 0,-0.0625 -0.019,-0.0278 -0.0106,-0.0046 -0.0312,-0.0312 -0.0206,-0.0267 -0.0091,-0.0058 -0.0312,-0.0312 -0.0221,-0.0254 -0.0076,-0.0072 -0.0312,-0.0312 -0.0236,-0.0241 -0.0063,-0.0086 -0.0312,-0.0312 -0.025,-0.0226 -0.005,-0.0101 -0.0312,-0.0312 l -10.5625,-8.5 a 0.5,0.5 0 0 1 0,-0.75 l 10.5,-8.9375 c 0.0257,-0.0219 0.0069,-0.0078 0.0312,-0.0312 0.0244,-0.0234 0.0083,-0.0064 0.0312,-0.0312 0.023,-0.0248 -0.0215,-0.0051 0,-0.0312 0.0215,-0.0261 0.0114,-0.0039 0.0312,-0.0312 0.0199,-0.0273 0.013,-0.0028 0.0312,-0.0312 0.0182,-0.0285 0.0147,-0.0018 0.0312,-0.0312 0.0165,-0.0295 -0.0148,-0.0321 0,-0.0625 0.0148,-0.0304 0.0183,0 0.0312,-0.0312 0.0129,-0.0312 -0.0111,7e-4 0,-0.0312 0.0111,-0.0319 0.0221,0.0013 0.0312,-0.0312 0.0092,-0.0325 -0.0072,-0.0295 0,-0.0625 0.0072,-0.033 -0.0053,0.0021 0,-0.0312 0.0053,-0.0334 0.028,0.0024 0.0312,-0.0312 0.0033,-0.0336 -0.0013,-0.0287 0,-0.0625 0.0013,-0.0338 7e-4,0.0025 0,-0.0312 -7e-4,-0.0338 0.0027,-0.0288 0,-0.0625 -0.0027,-0.0337 -0.0266,0.0022 -0.0312,-0.0312 -0.0047,-0.0335 0.0066,0.0019 0,-0.0312 -0.0066,-0.0331 0.0086,-0.0298 0,-0.0625 -0.0086,-0.0327 0.0105,9e-4 0,-0.0312 -0.0105,-0.0321 -0.0189,2e-4 -0.0312,-0.0312 -0.0123,-0.0315 0.0142,-6e-4 0,-0.0312 -0.0142,-0.0307 -0.0153,-0.0327 -0.0312,-0.0625 -0.016,-0.0298 -0.0135,-0.0024 -0.0312,-0.0312 -0.0177,-0.0288 0.0194,-0.0035 0,-0.0312 -0.0194,-0.0277 -0.0103,-0.0047 -0.0312,-0.0312 -0.021,-0.0265 -0.0088,-0.006 -0.0312,-0.0312 -0.0225,-0.0252 -0.0073,-0.0074 -0.0312,-0.0312 -0.0239,-0.0239 -0.0059,-0.0088 -0.0312,-0.0312 -0.0253,-0.0224 -0.0047,-0.0104 -0.0312,-0.0312 -0.0266,-0.0209 -0.0035,-0.012 -0.0312,-0.0312 -0.0278,-0.0193 -0.0024,0.0176 -0.0312,0 L 59.748,22.5309 c -0.0188,-0.0115 -0.012,-0.0205 -0.0312,-0.0312 -0.0192,-0.0108 -0.0116,0.01 -0.0312,0 -0.0196,-0.01 -0.0112,-0.022 -0.0312,-0.0312 -0.02,-0.0093 -0.0109,0.0085 -0.0312,0 -0.0207,-0.0077 -0.0103,-0.0243 -0.0312,-0.0312 -0.021,-0.0069 -0.01,0.0061 -0.0312,0 -0.0212,-0.0061 -0.0098,0.0053 -0.0312,0 -0.0214,-0.0053 -0.0096,0.0044 -0.0312,0 -0.0216,-0.0044 -0.0095,0.0036 -0.0312,0 -0.0218,-0.0036 0.0219,-0.0285 0,-0.0312 -0.0219,-0.0028 -0.0093,0.0019 -0.0312,0 -0.022,-0.0019 -0.0092,0.0011 -0.0312,0 -0.022,-0.0011 -0.0092,2e-4 -0.0312,0 -0.0221,-2e-4 -0.0092,-6e-4 -0.0312,0 -0.0221,6e-4 -0.0092,-0.0015 -0.0312,0 -0.022,0.0015 -0.0093,-0.0023 -0.0312,0 -0.0219,0.0023 -0.0094,-0.0032 -0.0312,0 -0.0218,0.0032 -0.0095,0.0272 -0.0312,0.0312 -0.0215,0.0048 -0.0099,-0.0057 -0.0312,0 -0.0213,0.0057 -0.0102,-0.0065 -0.0312,0 -0.0211,0.0065 -0.0104,0.024 -0.0312,0.0312 -0.0208,0.0073 -0.0107,-0.0081 -0.0312,0 -0.0205,0.0081 -0.011,-0.0089 -0.0312,0 -0.0202,0.0089 0.0199,0.0216 0,0.0312 -0.0199,0.0096 -0.0118,-0.0104 -0.0312,0 -0.0195,0.0104 -0.0122,-0.0111 -0.0312,0 -0.0191,0.0111 -0.0126,0.0194 -0.0312,0.0312 -0.0181,0.0126 -0.0136,0.018 -0.0312,0.0312 -0.0177,0.0132 -0.0141,-0.0139 -0.0312,0 l -10.5938,9.125 a 0.5,0.5 0 0 1 -0.625,0 L 36.9993,22.4996 c -0.0212,-0.0178 -0.0092,0.0167 -0.0312,0 -0.0221,-0.0167 -0.0084,-0.0156 -0.0312,-0.0312 -0.0228,-0.0157 -0.0077,-0.0167 -0.0312,-0.0312 -0.0236,-0.0145 -0.007,0.0134 -0.0312,0 -0.0242,-0.0134 -0.0064,-0.0191 -0.0312,-0.0312 -0.0249,-0.0122 -0.0058,0.011 -0.0312,0 -0.0254,-0.011 -0.0053,-0.0215 -0.0312,-0.0312 -0.0259,-0.0097 -0.0049,0.0085 -0.0312,0 -0.0264,-0.0085 -0.0045,0.0072 -0.0312,0 -0.0267,-0.0072 -0.0042,-0.0254 -0.0312,-0.0312 -0.0271,-0.0059 -0.004,0.0046 -0.0312,0 -0.0273,-0.0046 -0.0038,0.0033 -0.0312,0 -0.0275,-0.0033 -0.0036,0.0019 -0.0312,0 -0.0276,-0.0019 -0.0348,6e-4 -0.0625,0 -0.0277,-6e-4 -0.0036,-7e-4 -0.0312,0 -0.0166,0.0018 -0.0291,-3e-4 -0.0312,0 -0.0021,3e-4 -0.0148,-0.0027 -0.0312,0 -0.0329,0.0055 0.0013,-0.0074 -0.0312,0 z"
     style="color:#000000;fill:#0b5a9a" />
  <path
     inkscape:connector-curvature="0"
     id="path126"
     d="M 47.9584,51 65,63.0208 47.9584,75.0416 30.9168,63.0208 47.9584,51 z"
     style="color:#000000;fill:#fdfffe" />
  <path
     inkscape:connector-curvature="0"
     id="path130"
     d="m 59.384,23.1097 17.2398,10.4937 -11.6654,9.8965 -17.0416,-10.5 11.4673,-9.8903 z"
     style="color:#000000;fill:url(#linearGradient3141)" />
  <path
     inkscape:connector-curvature="0"
     id="path132"
     d="m 36.528,23.0549 -17.2398,10.4937 11.6654,9.8965 17.0416,-10.5 -11.4673,-9.8903 z"
     style="color:#000000;fill:url(#linearGradient3138)" />
  <path
     style="fill:url(#linearGradient3713)"
     d="m31,63 .1726-19.7536 16.8626-10.2877 0,18.0228l-17.0351,12.0184z"
     id="path134" />
  <path
     style="opacity:.6;fill:url(#linearGradient3730)"
     d="m47.9578,74.8058 .1547-20.8848-17.0173-10.5971v19.7246l16.8626,11.7574z"
     id="path136" />
  <path
     style="fill:url(#linearGradient3722)"
     d="m65.0028,63-.0628-19.7536-16.9174-10.3426v18.2971l16.9803,11.799z"
     id="path138" />
  <path
     style="opacity:.6;fill:url(#linearGradient3738)"
     d="m48.1547,74.8058-.1547-20.8848 17.0173-10.5971v19.7246l-16.8626,11.7574z"
     id="path140" />
  <g
     style="color:#000"
     id="g142">
    <path
       style="fill:url(#linearGradient3773)"
       d="m64.9583,43.4514 11.7752,9.4577-17.1514,10.9389-11.6654-9.8965 17.0416-10.5z"
       id="path144" />
    <path
       style="fill:url(#linearGradient3763)"
       d="m30.8439,43.4514-11.7752,9.4577 17.1513,10.9389 11.6654-9.8965-17.0416-10.5z"
       id="path146" />
    <path
       style="opacity:.2;fill:#fdfffe"
       d="m47.9584,51 17.0416,12.0208-17.0416,12.0208-17.0416-12.0208 17.0416-12.0208z"
       id="path148" />
  </g>
  <path
     style="opacity:.6;fill:url(#linearGradient3790)"
     d="m31.0938,43.5938 0,16.9688 5.125,3.2812l11.6562-9.9062-16.7812-10.3438z"
     id="path150" />
  <path
     style="opacity:.6;fill:url(#linearGradient3799)"
     d="m64.9688,43.4375-12.9688,8-4,2.4688 0,.125 11.5938,9.8125 5.4375-3.4688 0-16.875-.0625-.0625z"
     id="path152" />
</svg>
