<svg xmlns="http://www.w3.org/2000/svg" viewBox="0 0 96 96" xmlns:xlink="http://www.w3.org/1999/xlink">
<defs>
<clipPath id="clipPath2880">
<path style="fill:#fff" d="m12,6c-3.1577,0-5.7192,2.4087-5.9688,5.5 2.4694,.0171 4.4688,2.0266 4.4688,4.5 0,2.484-2.016,4.5-4.5,4.5v7c2.484,0 4.5,2.016 4.5,4.5 0,2.484-2.016,4.5-4.5,4.5v7c2.484,0 4.5,2.016 4.5,4.5 0,2.484-2.016,4.5-4.5,4.5v7c2.484,0 4.5,2.016 4.5,4.5 0,2.484-2.016,4.5-4.5,4.5v7c2.484-0 4.5,2.016 4.5,4.5 0,2.4734-1.9993,4.4829-4.4688,4.5 .2495,3.0913 2.8111,5.5 5.9688,5.5 0-2.484 2.016-4.5 4.5-4.5 2.484,0 4.5,2.016 4.5,4.5h7c0-2.484 2.016-4.5 4.5-4.5 2.484,0 4.5,2.016 4.5,4.5h7c0-2.484 2.016-4.5 4.5-4.5 2.484,0 4.5,2.016 4.5,4.5h7c0-2.484 2.016-4.5 4.5-4.5 2.484,0 4.5,2.016 4.5,4.5h7c-0-2.484 2.016-4.5 4.5-4.5 2.4522,0 4.4493,1.9661 4.5,4.4062 2.6885-.4451 4.746-2.647 4.9688-5.4062-2.4694-.0171-4.4688-2.0266-4.4688-4.5 0-2.484 2.016-4.5 4.5-4.5v-7c-2.484,0-4.5-2.016-4.5-4.5 0-2.484 2.016-4.5 4.5-4.5v-7c-2.484,0-4.5-2.016-4.5-4.5 0-2.484 2.016-4.5 4.5-4.5v-7c-2.484,0-4.5-2.016-4.5-4.5 0-2.484 2.016-4.5 4.5-4.5v-7c-2.484,0-4.5-2.016-4.5-4.5 0-2.4734 1.9993-4.4829 4.4688-4.5-.2227-2.7593-2.2802-4.9611-4.9688-5.4062-.0507,2.4401-2.0478,4.4062-4.5,4.4062-2.484,0-4.5-2.016-4.5-4.5h-7c0,2.484-2.016,4.5-4.5,4.5-2.484,0-4.5-2.016-4.5-4.5h-7c0,2.484-2.016,4.5-4.5,4.5-2.484,0-4.5-2.016-4.5-4.5h-7c0,2.484-2.016,4.5-4.5,4.5-2.484,0-4.5-2.016-4.5-4.5h-7c0,2.484-2.016,4.5-4.5,4.5-2.484,0-4.5-2.016-4.5-4.5z"/>
</clipPath>
<filter width="1.384" x="-.192" y="-.192" height="1.384" style="color-interpolation-filters:sRGB" id="filter3794">
<feGaussianBlur stdDeviation="5.28"/>
</filter>
<linearGradient id="linearGradient3737-0">
<stop offset="0" style="stop-color:#fdff98"/>
<stop offset="1" style="stop-color:#fff;stop-opacity:0"/>
</linearGradient>
<linearGradient id="linearGradient3434" xlink:href="#linearGradient3737" y1="6" y2="74.093" x2="0" gradientUnits="userSpaceOnUse"/>
<linearGradient id="linearGradient3441" xlink:href="#ButtonColor" y1="90" y2="5.988" x2="0" gradientUnits="userSpaceOnUse"/>
<linearGradient id="linearGradient3737">
<stop offset="0" style="stop-color:#fff"/>
<stop offset="1" style="stop-color:#fff;stop-opacity:0"/>
</linearGradient>
<linearGradient gradientTransform="scale(1.00587 .99417)" id="ButtonShadow" y1="92.54" y2="7.017" x2="0" gradientUnits="userSpaceOnUse">
<stop offset="0"/>
<stop offset="1" style="stop-opacity:.588"/>
</linearGradient>
<linearGradient gradientTransform="matrix(1.02381 0 0 1.0119 -1.14286 -.08333)" id="linearGradient3652" xlink:href="#ButtonShadow" y1="91.151" y2="7.291" x2="0" gradientUnits="userSpaceOnUse"/>
<linearGradient id="linearGradient2885" xlink:href="#linearGradient3737-0" y1="20.221" y2="138.661" x2="0" gradientUnits="userSpaceOnUse"/>
<linearGradient id="linearGradient3643" xlink:href="#ButtonShadow" y1="91.151" y2="7.291" x2="0" gradientUnits="userSpaceOnUse"/>
<linearGradient id="ButtonColor" y1="122" y2="5.425" x2="0" gradientUnits="userSpaceOnUse">
<stop offset="0" style="stop-color:#a00000"/>
<stop offset="1" style="stop-color:#ff0505"/>
</linearGradient>
<radialGradient cx="47.967" cy="89.689" gradientTransform="matrix(1.33411 0 0 .95759 -16.02641 2.11126)" r="42" id="radialGradient3684" xlink:href="#linearGradient3737" gradientUnits="userSpaceOnUse"/>
</defs>
<path style="opacity:.08;fill:url(#linearGradient3652)" d="m43.0938,3.9688c-1.141,.0143-2.1829,.1986-2.7812,.0938a1.0282,1.0282 0 0,0 -.3438-.0312c-.5569,.0806-1.6355-.0679-2.7812-.0312-.5729,.0183-1.1871,.0761-1.7812,.375-.5941,.2989-1.1507,.8705-1.4375,1.5938a1.0282,1.0282 0 0,0 -.0625,.4375c.0578,.7809-.4287,1.5622-1.0625,1.9375-.6258,.3705-1.2096,.4267-1.875-.2188-.1616-.1718-.3167-.8372-.5625-1.7188-.1229-.4408-.2837-.9461-.6562-1.4062-.3725-.4601-.9934-.8317-1.6875-.9375a1.0282,1.0282 0 0,0 -.125,0c-2.6713-.0758-5.3481-.0096-7.9688-.0312a1.0282,1.0282 0 0,0 -.1875,.0312c-.8331,.1497-1.492,.6734-1.8438,1.25-.3517,.5766-.4821,1.1395-.5938,1.625-.1116,.4855-.2234,.8713-.3438,1.0938-.1204,.2225-.1708,.2943-.4688,.375a1.0282,1.0282 0 0,0 -.125,.0625c-.4704,.1983-.75,.182-.9688,.125-.2188-.057-.4062-.1813-.625-.4375-.4377-.5125-.8253-1.5275-1.0312-2.4062a1.0282,1.0282 0 0,0 -.1875-.375c-.5495-.6975-1.3332-1.1236-2.0938-1.25-.7605-.1264-1.4999-.0235-2.1875,.1875-1.3753,.422-2.5798,1.2525-3.4062,1.8125a1.0282,1.0282 0 0,0 -.125,.0938c-.8745,.7994-1.9388,1.8655-2.6875,3.1562-.7487,1.2907-1.2127,2.8842-.625,4.4688a1.0282,1.0282 0 0,0 .0625,.1562c.3772,.6738 1.0135,1.0911 1.5625,1.3125 .549,.2214 1.0353,.3 1.4375,.4062 .4022,.1063 .6919,.2406 .8125,.3438 .1206,.1032 .1877,.1551 .2188,.5938a1.0282,1.0282 0 0,0 .0312,.1562c.1996,.8946 .018,1.0621-.5,1.4062-.518,.3442-1.4681,.5911-2.3438,.8125a1.0282,1.0282 0 0,0 -.3438,.1562c-1.2183,.8524-1.4607,2.2644-1.4375,3.375 .0232,1.1106 .1985,2.1295 .0938,2.7188a1.0282,1.0282 0 0,0 -.0312,.3125c.0724,.5656-.0889,1.6885-.0312,2.8438 .0288,.5776 .1114,1.1929 .4375,1.7812 .3261,.5884 .942,1.095 1.6875,1.3438a1.0282,1.0282 0 0,0 .4688,.0625c1.0626-.1515 1.6996,.5432 1.9062,1.4062 .1033,.4315 .042,.8544-.125,1.1562-.167,.3019-.4353,.561-1.0625,.6875v.0312c-1.0546-.0239-2.0396,.4106-2.625,1.1562-.6196,.7892-.8423,1.8254-.625,2.875h-.0312c.1528,2.1057-.3651,4.6155 .25,7.1562a1.0282,1.0282 0 0,0 .0938,.2188c.3742,.7078 1.021,1.1515 1.5938,1.375 .5728,.2235 1.1092,.3077 1.5312,.4062 .4221,.0986 .6862,.2095 .8125,.3125 .1263,.103 .2144,.1916 .25,.6562a1.0282,1.0282 0 0,0 .0312,.125c.2031,.8964 .0178,1.0626-.5,1.4062-.5178,.3436-1.4661,.5918-2.3438,.8125a1.0282,1.0282 0 0,0 -.3438,.1562c-1.2183,.8524-1.4607,2.2644-1.4375,3.375 .0232,1.1106 .1985,2.1295 .0938,2.7188a1.0282,1.0282 0 0,0 -.0312,.3125c.0724,.5656-.0889,1.6885-.0312,2.8438 .0288,.5776 .1114,1.1929 .4375,1.7812 .3261,.5884 .942,1.095 1.6875,1.3438a1.0282,1.0282 0 0,0 .4688,.0625c1.0626-.1515 1.6996,.5432 1.9062,1.4062 .1033,.4315 .042,.8544-.125,1.1562-.167,.3019-.4353,.561-1.0625,.6875v.0312c-1.0546-.0239-2.0396,.4106-2.625,1.1562-.6196,.7892-.8423,1.8254-.625,2.875h-.0312c.1528,2.1057-.3651,4.6155 .25,7.1562a1.0282,1.0282 0 0,0 .0938,.2188c.3742,.7078 1.021,1.1515 1.5938,1.375 .5728,.2235 1.1092,.3077 1.5312,.4062 .4221,.0986 .6862,.2095 .8125,.3125 .1263,.103 .2144,.1916 .25,.6562a1.0282,1.0282 0 0,0 .0312,.125c.108,.4678 .0483,.7077-.0312,.875-.0796,.1673-.2118,.3219-.5,.5-.5764,.3561-1.6309,.6282-2.5938,1.0625a1.0282,1.0282 0 0,0 -.2812,.1875c-.6292,.6133-.9498,1.4261-1,2.1875-.0502,.7614 .1356,1.4682 .4062,2.125 .5413,1.3135 1.4312,2.4512 2.0312,3.2188a1.0282,1.0282 0 0,0 .0938,.125c.8845,.8295 2.1003,1.8002 3.5,2.4375 1.3997,.6373 3.1206,.9518 4.6562,.0938a1.0282,1.0282 0 0,0 .1875-.125c1.0396-.9306 1.0836-2.2025 1.2812-2.9062 .0988-.3519 .2137-.5522 .3125-.6562 .0988-.1041 .2223-.185 .6562-.2188a1.0282,1.0282 0 0,0 .125-.0312c.8735-.2044 1.0535-.0143 1.4062,.5 .3527,.5143 .6193,1.4406 .8438,2.3125a1.0282,1.0282 0 0,0 .1562,.3438c.8524,1.2183 2.2644,1.4607 3.375,1.4375 1.1106-.0232 2.1295-.1985 2.7188-.0938a1.0282,1.0282 0 0,0 .3438,.0312c.5588-.0821 1.6617,.0659 2.8125,.0312 .5754-.0173 1.1843-.0766 1.7812-.375 .597-.2984 1.1484-.8681 1.4375-1.5938a1.0282,1.0282 0 0,0 .0625-.4688c-.0782-.8774 .4851-1.6337 1.1875-1.9688 .6764-.3226 1.2894-.3139 1.875,.4688 .1418,.471 .2528,1.2287 .5938,2.0312 .1864,.4387 .4659,.8803 .9062,1.25 .4404,.3697 1.0602,.6157 1.7188,.625a1.0282,1.0282 0 0,0 .0625,0c2.5333-.1418 5.355,.2966 8.2188-.2188a1.0282,1.0282 0 0,0 .2188-.0625c.6934-.3112 1.1684-.8943 1.4062-1.4375 .2378-.5432 .3207-1.0522 .4062-1.4688 .0856-.4165 .1848-.7461 .2812-.9062 .0965-.1602 .1282-.2029 .4375-.2812a1.0282,1.0282 0 0,0 .1562-.0625c.834-.3553 1.2067-.1743 1.6562,.2812 .4495,.4556 .797,1.3275 .8438,2.0938a1.0282,1.0282 0 0,0 .125,.4375c.3663,.6599 .9355,1.1296 1.5312,1.375 .5958,.2454 1.1916,.3104 1.75,.3125 1.1168,.0042 2.1778-.1865 2.75-.0938a1.0282,1.0282 0 0,0 .3125,0c.5787-.0963 1.6489,.094 2.7812,.0938 .5662-.0002 1.1777-.0688 1.7812-.3125 .6036-.2437 1.1886-.7101 1.5625-1.375a1.0282,1.0282 0 0,0 .125-.4375c.0467-.7662 .3942-1.6382 .8438-2.0938 .4495-.4556 .8223-.6366 1.6562-.2812a1.0282,1.0282 0 0,0 .1562,.0625c.2665,.0688 .3119,.1071 .4375,.3438 .1256,.2367 .2205,.6863 .3438,1.1875 .1232,.5012 .2726,1.0808 .6562,1.6562 .3836,.5754 1.1116,1.0677 1.9688,1.1562a1.0282,1.0282 0 0,0 .125,0c2.6168-.0504 5.4672,.2743 8.3125-.125a1.0282,1.0282 0 0,0 .2188-.0625c.7299-.2741 1.2377-.8542 1.5-1.4062 .2623-.5521 .3453-1.0688 .4375-1.5 .0922-.4312 .1793-.7672 .2812-.9375 .102-.1703 .1559-.2362 .4688-.3125a1.0282,1.0282 0 0,0 .1562-.0625c.5102-.2188 .7545-.1801 .9375-.125 .183,.0551 .375,.1825 .5938,.4688 .4374,.5725 .8371,1.6491 1.3438,2.625a1.0282,1.0282 0 0,0 .1875,.25c.5853,.5862 1.3435,.8964 2.0625,.9375 .719,.041 1.3914-.1473 2-.4062 1.2171-.518 2.2316-1.3465 2.9375-1.9062a1.0282,1.0282 0 0,0 .125-.125c.7048-.7775 1.6609-1.8343 2.3125-3.0938 .6516-1.2595 1.0266-2.8804 .2188-4.3438a1.0282,1.0282 0 0,0 -.0938-.125c-.8638-1.1486-2.1414-1.2325-2.875-1.4375-.3668-.1025-.6103-.2136-.7188-.3125-.1085-.0989-.1868-.1718-.2188-.5938a1.0282,1.0282 0 0,0 -.0312-.1562c-.1996-.8946-.018-1.0621 .5-1.4062 .518-.3442 1.4681-.5911 2.3438-.8125a1.0282,1.0282 0 0,0 .3438-.1562c1.2183-.8524 1.4607-2.2644 1.4375-3.375-.0232-1.1106-.1985-2.1295-.0938-2.7188a1.0282,1.0282 0 0,0 .0312-.3125c-.0724-.5656 .0889-1.6885 .0312-2.8438-.0288-.5776-.1114-1.1929-.4375-1.7812-.3261-.5884-.942-1.095-1.6875-1.3438a1.0282,1.0282 0 0,0 -.4688-.0625c-1.0626,.1515-1.6996-.5432-1.9062-1.4062-.1033-.4315-.042-.8544 .125-1.1562 .167-.3019 .4353-.561 1.0625-.6875v-.0312c1.0546,.0239 2.0396-.4106 2.625-1.1562 .6196-.7892 .8423-1.8254 .625-2.875h.0312c-.1528-2.1057 .3651-4.6155-.25-7.1562a1.0282,1.0282 0 0,0 -.0938-.2188c-.3742-.7078-1.021-1.1515-1.5938-1.375-.5728-.2235-1.1092-.3077-1.5312-.4062-.4221-.0986-.6862-.2095-.8125-.3125-.1263-.103-.2144-.1916-.25-.6562a1.0282,1.0282 0 0,0 -.0312-.125c-.2031-.8964-.0178-1.0626 .5-1.4062 .5178-.3436 1.4661-.5918 2.3438-.8125a1.0282,1.0282 0 0,0 .3438-.1562c1.2183-.8524 1.4607-2.2644 1.4375-3.375-.0232-1.1106-.1985-2.1295-.0938-2.7188a1.0282,1.0282 0 0,0 .0312-.3125c-.0724-.5656 .0889-1.6885 .0312-2.8438-.0288-.5776-.1114-1.1929-.4375-1.7812-.3261-.5884-.942-1.095-1.6875-1.3438a1.0282,1.0282 0 0,0 -.4688-.0625c-1.0626,.1515-1.6996-.5432-1.9062-1.4062-.1033-.4315-.042-.8544 .125-1.1562 .167-.3019 .4353-.561 1.0625-.6875v-.0312c1.0546,.0239 2.0396-.4106 2.625-1.1562 .6196-.7892 .8423-1.8254 .625-2.875h.0312c-.1528-2.1057 .3651-4.6155-.25-7.1562a1.0282,1.0282 0 0,0 -.0938-.2188c-.3742-.7078-1.021-1.1515-1.5938-1.375-.5728-.2235-1.1092-.3077-1.5312-.4062-.4221-.0986-.6862-.2095-.8125-.3125-.1263-.103-.2144-.1916-.25-.6562a1.0282,1.0282 0 0,0 -.0312-.125c-.108-.4678-.0483-.7077 .0312-.875 .0796-.1673 .2118-.3219 .5-.5 .5764-.3561 1.6309-.6282 2.5938-1.0625a1.0282,1.0282 0 0,0 .2812-.1875c.6029-.5656 .927-1.3163 1-2.0312 .073-.715-.085-1.3808-.3125-2-.455-1.2384-1.2389-2.3258-1.75-3.0625a1.0282,1.0282 0 0,0 -.0938-.125c-.7445-.7611-1.7729-1.7583-3-2.4688-1.2271-.7105-2.8106-1.1607-4.3125-.4375a1.0282,1.0282 0 0,0 -.125,.0938c-1.1854,.7998-1.3662,2.0785-1.5938,2.8125-.1138,.367-.2093,.6053-.3125,.7188-.1032,.1134-.2035,.1878-.5938,.2188a1.0282,1.0282 0 0,0 -.125,.0312c-.8216,.1851-1.0752-.021-1.4375-.5-.3623-.479-.6281-1.3324-.75-2.125a1.0282,1.0282 0 0,0 -.1562-.375c-.405-.6477-1.0138-1.1181-1.625-1.3438-.6112-.2257-1.212-.2572-1.7812-.25-1.1384,.0144-2.1848,.1983-2.7812,.0938a1.0282,1.0282 0 0,0 -.3438-.0312c-.5569,.0806-1.6355-.0679-2.7812-.0312-.5729,.0183-1.1871,.0761-1.7812,.375-.5941,.2989-1.1507,.8705-1.4375,1.5938a1.0282,1.0282 0 0,0 -.0625,.4688c.0782,.8774-.4851,1.6337-1.1875,1.9688-.6764,.3226-1.2894,.3139-1.875-.4688-.1418-.471-.2528-1.2287-.5938-2.0312-.1864-.4387-.4659-.8803-.9062-1.25-.4404-.3697-1.0602-.6157-1.7188-.625a1.0282,1.0282 0 0,0 -.0625,0c-2.5333,.1418-5.355-.2966-8.2188,.2188a1.0282,1.0282 0 0,0 -.25,.0625c-.6905,.3145-1.136,.8961-1.375,1.4375-.239,.5414-.3177,1.0536-.4062,1.4688-.0886,.4152-.1824,.7143-.2812,.875-.0988,.1607-.1541,.2338-.4688,.3125a1.0282,1.0282 0 0,0 -.1562,.0625c-.8755,.3755-1.1879,.1928-1.625-.2812-.4371-.4741-.7783-1.4068-.875-2.2188a1.0282,1.0282 0 0,0 -.1562-.4062c-.4064-.6501-1.0117-1.1188-1.625-1.3438-.6133-.225-1.2108-.2572-1.7812-.25z"/>
<path style="opacity:.2;fill:url(#linearGradient3652)" d="m20.1562,6a1.0087,1.0087 0 0,0 -.8125,1c0,1.965-1.5923,3.5625-3.5938,3.5625-1.9839,0-3.5666-1.5597-3.5938-3.5a1.0087,1.0087 0 0,0 -1.125-1c-3.4231,.4096-6.182,2.9512-6.875,6.2812a1.0087,1.0087 0 0,0 .9688,1.2188c1.9396,.0644 3.4688,1.6383 3.4688,3.5625 0,1.965-1.5923,3.5625-3.5938,3.5625a1.0087,1.0087 0 0,0 -1,1v7.0625a1.0087,1.0087 0 0,0 1,1c2.0014,0 3.5938,1.5975 3.5938,3.5625 0,1.965-1.5923,3.5625-3.5938,3.5625a1.0087,1.0087 0 0,0 -1,1v7.0625a1.0087,1.0087 0 0,0 1,1c2.0014,0 3.5938,1.5975 3.5938,3.5625 0,1.965-1.5923,3.5625-3.5938,3.5625a1.0087,1.0087 0 0,0 -1,1v7.0625a1.0087,1.0087 0 0,0 1,1c2.0014,0 3.5938,1.5975 3.5938,3.5625 0,1.965-1.5923,3.5625-3.5938,3.5625a1.0087,1.0087 0 0,0 -1,1v7.0625a1.0087,1.0087 0 0,0 1,1c2.0014-0 3.5938,1.5975 3.5938,3.5625 0,1.9242-1.5291,3.4981-3.4688,3.5625a1.0087,1.0087 0 0,0 -.9688,1.2188c.693,3.3301 3.4519,5.8716 6.875,6.2812a1.0087,1.0087 0 0,0 1.125-1c.0272-1.9403 1.6099-3.5 3.5938-3.5 2.0014,0 3.5938,1.5975 3.5938,3.5625a1.0087,1.0087 0 0,0 1,1h7.1875a1.0087,1.0087 0 0,0 1-1c0-1.965 1.5923-3.5625 3.5938-3.5625 2.0014,0 3.625,1.6058 3.625,3.5625a1.0087,1.0087 0 0,0 1,1h7.1562a1.0087,1.0087 0 0,0 1-1c0-1.965 1.5923-3.5625 3.5938-3.5625 2.0014,0 3.625,1.6058 3.625,3.5625a1.0087,1.0087 0 0,0 1,1h7.1562a1.0087,1.0087 0 0,0 1-1c0-1.9567 1.6236-3.5625 3.625-3.5625 2.0014,0 3.5938,1.5975 3.5938,3.5625a1.0087,1.0087 0 0,0 1,1h7.1562a1.0087,1.0087 0 0,0 1-1c-0-1.9567 1.6236-3.5625 3.625-3.5625 1.9308,0 3.4569,1.5015 3.5625,3.375a1.0087,1.0087 0 0,0 1.25,.9062c2.8884-.7811 5.136-3.112 5.75-6.0625a1.0087,1.0087 0 0,0 -.9688-1.2188c-1.9396-.0644-3.4688-1.6383-3.4688-3.5625 0-1.965 1.5923-3.5625 3.5938-3.5625a1.0087,1.0087 0 0,0 1-1v-7.0625a1.0087,1.0087 0 0,0 -1-1c-2.0014,0-3.5938-1.5975-3.5938-3.5625 0-1.965 1.5923-3.5625 3.5938-3.5625a1.0087,1.0087 0 0,0 1-1v-7.0625a1.0087,1.0087 0 0,0 -1-1c-2.0014,0-3.5938-1.5975-3.5938-3.5625 0-1.965 1.5923-3.5625 3.5938-3.5625a1.0087,1.0087 0 0,0 1-1v-7.0625a1.0087,1.0087 0 0,0 -1-1c-2.0014,0-3.5938-1.5975-3.5938-3.5625 0-1.965 1.5923-3.5625 3.5938-3.5625a1.0087,1.0087 0 0,0 1-1v-7.0625a1.0087,1.0087 0 0,0 -1-1c-2.0014,0-3.5938-1.5975-3.5938-3.5625 0-1.9242 1.5291-3.4981 3.4688-3.5625a1.0087,1.0087 0 0,0 .9688-1.2188c-.614-2.9505-2.8616-5.2814-5.75-6.0625a1.0087,1.0087 0 0,0 -1.25,.9062c-.1056,1.8735-1.6317,3.375-3.5625,3.375-2.0014,0-3.625-1.6058-3.625-3.5625a1.0087,1.0087 0 0,0 -1-1h-7.1562a1.0087,1.0087 0 0,0 -1,1c0,1.965-1.5923,3.5625-3.5938,3.5625-2.0014,0-3.625-1.6058-3.625-3.5625a1.0087,1.0087 0 0,0 -1-1h-7.1562a1.0087,1.0087 0 0,0 -1,1c0,1.9567-1.6236,3.5625-3.625,3.5625-2.0014,0-3.5938-1.5975-3.5938-3.5625a1.0087,1.0087 0 0,0 -1-1h-7.1562a1.0087,1.0087 0 0,0 -1,1c0,1.9567-1.6236,3.5625-3.625,3.5625-2.0014,0-3.5938-1.5975-3.5938-3.5625a1.0087,1.0087 0 0,0 -1-1h-7.1875a1.0087,1.0087 0 0,0 -.1875,0z"/>
<path style="opacity:.45;fill:url(#linearGradient3643)" d="m12,7c-3.1577,0-5.7192,2.4087-5.9688,5.5 2.4694,.0171 4.4688,2.0266 4.4688,4.5 0,2.484-2.016,4.5-4.5,4.5v7c2.484,0 4.5,2.016 4.5,4.5 0,2.484-2.016,4.5-4.5,4.5v7c2.484,0 4.5,2.016 4.5,4.5 0,2.484-2.016,4.5-4.5,4.5v7c2.484,0 4.5,2.016 4.5,4.5 0,2.484-2.016,4.5-4.5,4.5v7c2.484-0 4.5,2.016 4.5,4.5 0,2.4734-1.9993,4.4829-4.4688,4.5 .2495,3.0913 2.8111,5.5 5.9688,5.5 0-2.484 2.016-4.5 4.5-4.5 2.484,0 4.5,2.016 4.5,4.5h7c0-2.484 2.016-4.5 4.5-4.5 2.484,0 4.5,2.016 4.5,4.5h7c0-2.484 2.016-4.5 4.5-4.5 2.484,0 4.5,2.016 4.5,4.5h7c0-2.484 2.016-4.5 4.5-4.5 2.484,0 4.5,2.016 4.5,4.5h7c-0-2.484 2.016-4.5 4.5-4.5 2.4522,0 4.4493,1.9661 4.5,4.4062 2.6885-.4451 4.746-2.647 4.9688-5.4062-2.4694-.0171-4.4688-2.0266-4.4688-4.5 0-2.484 2.016-4.5 4.5-4.5v-7c-2.484,0-4.5-2.016-4.5-4.5 0-2.484 2.016-4.5 4.5-4.5v-7c-2.484,0-4.5-2.016-4.5-4.5 0-2.484 2.016-4.5 4.5-4.5v-7c-2.484,0-4.5-2.016-4.5-4.5 0-2.484 2.016-4.5 4.5-4.5v-7c-2.484,0-4.5-2.016-4.5-4.5 0-2.4734 1.9993-4.4829 4.4688-4.5-.2227-2.7593-2.2802-4.9611-4.9688-5.4062-.0507,2.4401-2.0478,4.4062-4.5,4.4062-2.484,0-4.5-2.016-4.5-4.5h-7c0,2.484-2.016,4.5-4.5,4.5-2.484,0-4.5-2.016-4.5-4.5h-7c0,2.484-2.016,4.5-4.5,4.5-2.484,0-4.5-2.016-4.5-4.5h-7c0,2.484-2.016,4.5-4.5,4.5-2.484,0-4.5-2.016-4.5-4.5h-7c0,2.484-2.016,4.5-4.5,4.5-2.484,0-4.5-2.016-4.5-4.5z"/>
<path style="opacity:.3;fill:url(#linearGradient3652)" d="m20.3438,7c0,2.5136-2.0506,4.5625-4.5938,4.5625-2.5214,0-4.559-2.016-4.5938-4.5-2.9961,.3585-5.3943,2.5891-6,5.5 2.4704,.082 4.4375,2.1009 4.4375,4.5625 0,2.5136-2.0506,4.5625-4.5938,4.5625v7.0625c2.5431,0 4.5938,2.0489 4.5938,4.5625 0,2.5136-2.0506,4.5625-4.5938,4.5625v7.0625c2.5431,0 4.5938,2.0489 4.5938,4.5625 0,2.5136-2.0506,4.5625-4.5938,4.5625v7.0625c2.5431,0 4.5938,2.0489 4.5938,4.5625 0,2.5136-2.0506,4.5625-4.5938,4.5625v7.0625c2.5431-0 4.5938,2.0489 4.5938,4.5625 0,2.4615-1.9671,4.4805-4.4375,4.5625 .6057,2.9109 3.0039,5.1415 6,5.5 .0348-2.484 2.0723-4.5 4.5938-4.5 2.5431,0 4.5938,2.0489 4.5938,4.5625h7.1875c0-2.5136 2.0506-4.5625 4.5938-4.5625 2.5431,0 4.625,2.0489 4.625,4.5625h7.1562c0-2.5136 2.0506-4.5625 4.5938-4.5625 2.5431,0 4.625,2.0489 4.625,4.5625h7.1562c0-2.5136 2.0819-4.5625 4.625-4.5625 2.5431,0 4.5938,2.0489 4.5938,4.5625h7.1562c-0-2.5136 2.0819-4.5625 4.625-4.5625 2.456,0 4.4276,1.9182 4.5625,4.3125 2.5226-.6822 4.4631-2.7322 5-5.3125-2.4704-.082-4.4375-2.1009-4.4375-4.5625 0-2.5136 2.0506-4.5625 4.5938-4.5625v-7.0625c-2.5431,0-4.5938-2.0489-4.5938-4.5625 0-2.5136 2.0506-4.5625 4.5938-4.5625v-7.0625c-2.5431,0-4.5938-2.0489-4.5938-4.5625 0-2.5136 2.0506-4.5625 4.5938-4.5625v-7.0625c-2.5431,0-4.5938-2.0489-4.5938-4.5625 0-2.5136 2.0506-4.5625 4.5938-4.5625v-7.0625c-2.5431,0-4.5938-2.0489-4.5938-4.5625 0-2.4616 1.9671-4.4805 4.4375-4.5625-.5369-2.5803-2.4774-4.6303-5-5.3125-.1349,2.3943-2.1065,4.3125-4.5625,4.3125-2.5431,0-4.625-2.0489-4.625-4.5625h-7.1562c0,2.5136-2.0506,4.5625-4.5938,4.5625-2.5431,0-4.625-2.0489-4.625-4.5625h-7.1562c0,2.5136-2.0819,4.5625-4.625,4.5625-2.5431,0-4.5938-2.0489-4.5938-4.5625h-7.1562c0,2.5136-2.0819,4.5625-4.625,4.5625-2.5431,0-4.5938-2.0489-4.5938-4.5625h-7.1875z"/>
<path style="opacity:.1;fill:url(#linearGradient3652)" d="m19.9688,5.0625c-2.3303,.4186-.951,3.7558-3.1706,4.3572-2.521,1.0628-3.5692-1.5089-4.0169-3.4197-1.6068-2.0397-4.7156-.1187-6.3251,.9718-1.6613,1.5187-3.9137,4.1149-3.0187,6.5282 .963,1.7201 3.9861,.5317 4.168,3.1048 .5461,2.4484-1.8751,2.9888-3.6055,3.4264-1.7286,1.2095-.6257,3.6943-.9375,5.4482 .2132,1.6664-.7689,4.399 1.375,5.1143 3.2092-.4575 4.5988,4.5868 1.1075,5.2907-1.6977-.2501-2.9027,1.4136-2.4825,3.0017 .1671,2.3025-.3229,4.7199 .2188,6.9576 .9665,1.8283 4.1171,.4439 4.3224,3.1252 .5553,2.4514-1.8692,3.0011-3.6037,3.4373-1.7286,1.2095-.6257,3.6943-.9375,5.4482 .2132,1.6664-.7689,4.399 1.375,5.1143 3.2092-.4575 4.5988,4.5868 1.1075,5.2907-1.6977-.2501-2.9027,1.4136-2.4825,3.0017 .1671,2.3025-.3229,4.7199 .2188,6.9576 .9665,1.8283 4.1171,.4439 4.3224,3.1252 .5871,2.5432-2.0477,2.8495-3.6974,3.5935-1.8374,1.7909 .3534,4.6396 1.5459,6.1651 1.6687,1.5649 4.5831,3.6735 6.9229,2.3661 1.3306-1.1911 .3527-3.8497 2.8337-4.0425 2.4103-.564 3.0303,1.8314 3.4788,3.5738 1.2095,1.7286 3.6943,.6257 5.4482,.9375 1.6851-.2476 4.3808,.7952 5.2081-1.2812-.2394-2.6851 3.2899-4.6155 5.0134-2.118 .4375,1.222 .4756,3.3734 2.2991,3.3992 2.6837-.1502 5.4625,.286 8.0938-.1875 1.7982-.807 .5557-3.6262 2.7018-4.1697 2.3284-.9921 3.8016,1.2694 3.9232,3.2635 1.0438,1.8806 3.5773,.8163 5.2891,1.0938 1.7341-.2885 4.3004,.8032 5.3671-1.0938 .1216-1.994 1.5948-4.2556 3.9232-3.2635 2.1693,.5602 .8551,4.077 3.2643,4.326 2.707-.0522 5.5157,.2499 8.1875-.125 1.9165-.7198 .6372-3.665 2.823-4.1981 2.6673-1.1436 3.2884,1.7364 4.177,3.4481 1.678,1.6808 4.2499-.3415 5.6605-1.46 1.387-1.5301 3.5645-4.0962 2.3707-6.2587-1.089-1.448-3.8563-.4497-4.043-2.9173-.5461-2.4484 1.8751-2.9888 3.6055-3.4264 1.7286-1.2095 .6257-3.6943 .9375-5.4482-.2132-1.6664 .7689-4.399-1.375-5.1143-3.2092,.4575-4.5988-4.5868-1.1075-5.2907 1.6977,.2501 2.9027-1.4136 2.4825-3.0017-.1671-2.3025 .3229-4.7199-.2188-6.9576-.9665-1.8283-4.1171-.4439-4.3224-3.1252-.5553-2.4514 1.8692-3.0011 3.6037-3.4373 1.7286-1.2095 .6257-3.6943 .9375-5.4482-.2132-1.6664 .7689-4.399-1.375-5.1143-3.2092,.4575-4.5988-4.5868-1.1075-5.2907 1.6977,.2501 2.9027-1.4136 2.4825-3.0017-.1671-2.3025 .3229-4.7199-.2188-6.9576-.9665-1.8283-4.1171-.4439-4.3224-3.1252-.5871-2.5432 2.0477-2.8495 3.6974-3.5935 1.7378-1.6304-.159-4.2635-1.1931-5.7541-1.4525-1.485-3.8929-3.7556-6.1194-2.6834-1.5013,1.013-.6095,3.7622-2.9761,3.9497-2.3064,.5197-3.1568-1.7031-3.4301-3.481-1.1583-1.8528-3.7343-.7198-5.5107-1.0312-1.6761,.2424-4.3567-.7866-5.1768,1.2812 .2394,2.6851-3.2899,4.6155-5.0134,2.118-.4375-1.222-.4756-3.3734-2.2991-3.3992-2.6837,.1502-5.4625-.286-8.0938,.1875-1.7942,.8172-.57,3.6269-2.7293,4.1668-2.4003,1.0296-3.6922-1.3519-3.927-3.3231-1.1583-1.8528-3.7343-.7198-5.5107-1.0312-1.6761,.2424-4.3567-.7866-5.1768,1.2812 .1796,2.4257-2.7375,4.4713-4.7034,2.515-.9957-1.0581-.4129-3.4731-2.3278-3.765-2.6347-.0748-5.2942-.0094-7.9375-.0312z"/>
<path style="fill:url(#linearGradient3441)" d="m12,6c-3.1577,0-5.7192,2.4087-5.9688,5.5 2.4694,.0171 4.4688,2.0266 4.4688,4.5 0,2.484-2.016,4.5-4.5,4.5v7c2.484,0 4.5,2.016 4.5,4.5 0,2.484-2.016,4.5-4.5,4.5v7c2.484,0 4.5,2.016 4.5,4.5 0,2.484-2.016,4.5-4.5,4.5v7c2.484,0 4.5,2.016 4.5,4.5 0,2.484-2.016,4.5-4.5,4.5v7c2.484-0 4.5,2.016 4.5,4.5 0,2.4734-1.9993,4.4829-4.4688,4.5 .2495,3.0913 2.8111,5.5 5.9688,5.5 0-2.484 2.016-4.5 4.5-4.5 2.484,0 4.5,2.016 4.5,4.5h7c0-2.484 2.016-4.5 4.5-4.5 2.484,0 4.5,2.016 4.5,4.5h7c0-2.484 2.016-4.5 4.5-4.5 2.484,0 4.5,2.016 4.5,4.5h7c0-2.484 2.016-4.5 4.5-4.5 2.484,0 4.5,2.016 4.5,4.5h7c-0-2.484 2.016-4.5 4.5-4.5 2.4522,0 4.4493,1.9661 4.5,4.4062 2.6885-.4451 4.746-2.647 4.9688-5.4062-2.4694-.0171-4.4688-2.0266-4.4688-4.5 0-2.484 2.016-4.5 4.5-4.5v-7c-2.484,0-4.5-2.016-4.5-4.5 0-2.484 2.016-4.5 4.5-4.5v-7c-2.484,0-4.5-2.016-4.5-4.5 0-2.484 2.016-4.5 4.5-4.5v-7c-2.484,0-4.5-2.016-4.5-4.5 0-2.484 2.016-4.5 4.5-4.5v-7c-2.484,0-4.5-2.016-4.5-4.5 0-2.4734 1.9993-4.4829 4.4688-4.5-.2227-2.7593-2.2802-4.9611-4.9688-5.4062-.0507,2.4401-2.0478,4.4062-4.5,4.4062-2.484,0-4.5-2.016-4.5-4.5h-7c0,2.484-2.016,4.5-4.5,4.5-2.484,0-4.5-2.016-4.5-4.5h-7c0,2.484-2.016,4.5-4.5,4.5-2.484,0-4.5-2.016-4.5-4.5h-7c0,2.484-2.016,4.5-4.5,4.5-2.484,0-4.5-2.016-4.5-4.5h-7c0,2.484-2.016,4.5-4.5,4.5-2.484,0-4.5-2.016-4.5-4.5z"/>
<path style="opacity:.5;fill:url(#linearGradient3434)" d="m12,6c-3.1577,0-5.7192,2.4087-5.9688,5.5 .3876,.0027 .7665,.0613 1.125,.1562 .5061-1.9479 2.0913-3.3648 4.125-3.6562 .5136,2.4581 2.6136,4.375 5.2188,4.375 2.6501,0 4.7867-1.9789 5.25-4.5h5.5c.4633,2.5211 2.5999,4.5 5.25,4.5 2.6501,0 4.7867-1.9789 5.25-4.5h5.5c.4633,2.5211 2.5999,4.5 5.25,4.5 2.6501,0 4.7867-1.9789 5.25-4.5h5.5c.4633,2.5211 2.5999,4.5 5.25,4.5 2.6501,0 4.7867-1.9789 5.25-4.5h5.5c.4633,2.5211 2.5999,4.5 5.25,4.5 2.5338,0 4.5992-1.7976 5.1875-4.1562 1.5651,.5524 2.7347,1.8127 3.1562,3.4375 .3585-.0949 .7374-.1536 1.125-.1562-.2227-2.7593-2.2802-4.9611-4.9688-5.4062-.0507,2.4401-2.0478,4.4062-4.5,4.4062-2.484,0-4.5-2.016-4.5-4.5h-7c0,2.484-2.016,4.5-4.5,4.5-2.484,0-4.5-2.016-4.5-4.5h-7c0,2.484-2.016,4.5-4.5,4.5-2.484,0-4.5-2.016-4.5-4.5h-7c0,2.484-2.016,4.5-4.5,4.5-2.484,0-4.5-2.016-4.5-4.5h-7c0,2.484-2.016,4.5-4.5,4.5-2.484,0-4.5-2.016-4.5-4.5zm-3.9688,6c1.4652,.7424 2.4688,2.2462 2.4688,4 0,2.484-2.016,4.5-4.5,4.5v7c.3211,0 .6354,.0297 .9375,.0938v-5.4062c2.5211-.4633 4.5-2.5999 4.5-5.25 0-2.2513-1.4321-4.1336-3.4062-4.9375zm79.9375,0c-1.9742,.8039-3.4062,2.6862-3.4062,4.9375 0,2.6501 1.9789,4.7867 4.5,5.25v5.4062c.3021-.064 .6164-.0938 .9375-.0938v-7c-2.484,0-4.5-2.016-4.5-4.5 0-1.7538 1.0035-3.2576 2.4688-4zm-79.7812,16.0938c1.3692,.7719 2.3125,2.2234 2.3125,3.9062 0,2.484-2.016,4.5-4.5,4.5v7c.3211,0 .6354,.0297 .9375,.0938v-5.4062c2.5211-.4633 4.5-2.5999 4.5-5.25 0-2.1892-1.3591-4.0092-3.25-4.8438zm79.625,0c-1.8909,.8346-3.25,2.6546-3.25,4.8438 0,2.6501 1.9789,4.7867 4.5,5.25v5.4062c.3021-.064 .6164-.0938 .9375-.0938v-7c-2.484,0-4.5-2.016-4.5-4.5 0-1.6828 .9433-3.1343 2.3125-3.9062zm-79.625,16c1.3692,.7719 2.3125,2.2234 2.3125,3.9062 0,2.484-2.016,4.5-4.5,4.5v7c.3211,0 .6354,.0297 .9375,.0938v-5.4062c2.5211-.4633 4.5-2.5999 4.5-5.25 0-2.1892-1.3591-4.0092-3.25-4.8438zm79.625,0c-1.8909,.8346-3.25,2.6546-3.25,4.8438 0,2.6501 1.9789,4.7867 4.5,5.25v5.4062c.3021-.064 .6164-.0938 .9375-.0938v-7c-2.484,0-4.5-2.016-4.5-4.5 0-1.6828 .9433-3.1343 2.3125-3.9062zm-79.625,16c1.3692,.7719 2.3125,2.2234 2.3125,3.9062 0,2.484-2.016,4.5-4.5,4.5v7c.3211-0 .6354,.0297 .9375,.0938v-5.4062c2.5211-.4633 4.5-2.5999 4.5-5.25 0-2.1892-1.3591-4.0092-3.25-4.8438zm79.625,0c-1.8909,.8346-3.25,2.6546-3.25,4.8438 0,2.6501 1.9789,4.7867 4.5,5.25v5.4062c.3021-.064 .6164-.0938 .9375-.0938v-7c-2.484,0-4.5-2.016-4.5-4.5 0-1.6828 .9433-3.1343 2.3125-3.9062zm-79.625,16c1.3692,.7719 2.3125,2.2234 2.3125,3.9062 0,2.4734-1.9993,4.4829-4.4688,4.5 .2495,3.0913 2.8111,5.5 5.9688,5.5 0-2.1629 1.5274-3.975 3.5625-4.4062-2.1542,.4005-3.8319,2.1304-4.2812,4.2812-2.0542-.2944-3.6355-1.7406-4.125-3.7188 2.4131-.5481 4.2812-2.6458 4.2812-5.2188 0-2.1892-1.3591-4.0092-3.25-4.8438zm79.625,0c-1.8909,.8346-3.25,2.6546-3.25,4.8438 0,2.5729 1.8681,4.6707 4.2812,5.2188-.4087,1.6533-1.5722,2.9409-3.1562,3.5-.5147-2.0638-2.1492-3.6862-4.25-4.0625 2.0106,.4212 3.5184,2.1881 3.5625,4.3125 2.6885-.4451 4.746-2.647 4.9688-5.4062-2.4694-.0171-4.4688-2.0266-4.4688-4.5 0-1.6828 .9433-3.1343 2.3125-3.9062zm-70.3438,9.5c2.0202,.4425 3.5312,2.2539 3.5312,4.4062h.75c-.4054-2.2059-2.0906-3.993-4.2812-4.4062zm14.0625,0c-2.1906,.4132-3.8759,2.2003-4.2812,4.4062h.75c0-2.1524 1.5111-3.9637 3.5312-4.4062zm1.9375,0c2.0202,.4425 3.5312,2.2539 3.5312,4.4062h.75c-.4054-2.2059-2.0906-3.993-4.2812-4.4062zm14.0625,0c-2.1906,.4132-3.8759,2.2003-4.2812,4.4062h.75c0-2.1524 1.5111-3.9637 3.5312-4.4062zm1.9375,0c2.0202,.4425 3.5312,2.2539 3.5312,4.4062h.75c-.4054-2.2059-2.0906-3.993-4.2812-4.4062zm14.0625,0c-2.1906,.4132-3.8759,2.2003-4.2812,4.4062h.75c0-2.1524 1.5111-3.9637 3.5312-4.4062zm1.9375,0c2.0202,.4425 3.5312,2.2539 3.5312,4.4062h.75c-.4054-2.2059-2.0906-3.993-4.2812-4.4062zm14.0625,0c-2.1906,.4132-3.8759,2.2003-4.2812,4.4062h.75c-0-2.1524 1.5111-3.9637 3.5312-4.4062z"/>
<path style="opacity:.3;fill:url(#radialGradient3684)" d="m6.5312,9.5625c-.266,.6018-.4444,1.2489-.5,1.9375 2.1261,.0147 3.8906,1.507 4.3438,3.5 .0738-.3231 .125-.6547 .125-1 0-2.3025-1.7373-4.172-3.9688-4.4375zm82.9375,0c-2.2314,.2655-3.9688,2.135-3.9688,4.4375 0,.3453 .0512,.6769 .125,1 .4532-1.993 2.2177-3.4853 4.3438-3.5-.0557-.6898-.2338-1.3361-.5-1.9375zm-83.4688,15.9375v2c2.1387,0 3.9181,1.4991 4.375,3.5 .0738-.3231 .125-.6547 .125-1 0-2.484-2.016-4.5-4.5-4.5zm84,0c-2.484,0-4.5,2.016-4.5,4.5 0,.3453 .0512,.6769 .125,1 .4569-2.0009 2.2363-3.5 4.375-3.5v-2zm-84,16 0,2c2.1387,0 3.9181,1.4991 4.375,3.5 .0738-.3231 .125-.6547 .125-1 0-2.484-2.016-4.5-4.5-4.5zm84,0c-2.484,0-4.5,2.016-4.5,4.5 0,.3453 .0512,.6769 .125,1 .4569-2.0009 2.2363-3.5 4.375-3.5v-2zm-84,16 0,2c2.1387,0 3.9181,1.4991 4.375,3.5 .0738-.3231 .125-.6547 .125-1 0-2.484-2.016-4.5-4.5-4.5zm84,0c-2.484,0-4.5,2.016-4.5,4.5 0,.3453 .0512,.6769 .125,1 .4569-2.0009 2.2363-3.5 4.375-3.5v-2zm-84,16 0,2c2.1387-0 3.9181,1.4991 4.375,3.5 .0732-.3218 .125-.6561 .125-1 0-2.484-2.016-4.5-4.5-4.5zm84,0c-2.484,0-4.5,2.016-4.5,4.5 0,.3439 .0518,.6782 .125,1 .4569-2.0009 2.2363-3.5 4.375-3.5v-2zm-73.5,10c-2.484,0-4.5,2.016-4.5,4.5-2.4543,0-4.5404-1.4627-5.4688-3.5625-.1657,.0197-.3293,.0613-.5,.0625 .2495,3.0913 2.8111,5.5 5.9688,5.5 0-2.484 2.016-4.5 4.5-4.5 2.484,0 4.5,2.016 4.5,4.5h7c0-2.484 2.016-4.5 4.5-4.5 2.484,0 4.5,2.016 4.5,4.5h7c0-2.484 2.016-4.5 4.5-4.5 2.484,0 4.5,2.016 4.5,4.5h7c0-2.484 2.016-4.5 4.5-4.5 2.484,0 4.5,2.016 4.5,4.5h7c-0-2.484 2.016-4.5 4.5-4.5 2.4522,0 4.4493,1.9661 4.5,4.4062 2.6885-.4451 4.746-2.647 4.9688-5.4062-.1707-.0012-.3343-.0428-.5-.0625-.7987,1.8042-2.4523,3.1349-4.4688,3.4688-.0507-2.4401-2.0478-4.4062-4.5-4.4062-2.484,0-4.5,2.016-4.5,4.5h-7c0-2.484-2.016-4.5-4.5-4.5-2.484,0-4.5,2.016-4.5,4.5h-7c0-2.484-2.016-4.5-4.5-4.5-2.484,0-4.5,2.016-4.5,4.5h-7c0-2.484-2.016-4.5-4.5-4.5-2.484,0-4.5,2.016-4.5,4.5h-7c0-2.484-2.016-4.5-4.5-4.5z"/>
<path style="opacity:.15;fill:url(#linearGradient2885);filter:url(#filter3794);stroke:#fff;stroke-linecap:round;stroke-width:.5;clip-path:url(#clipPath2880)" d="m27,15h42a12,12 0 0,1 12,12v42a12,12 0 0,1 -12,12h-42a12,12 0 0,1 -12-12v-42a12,12 0 0,1 12-12"/>
<g style="fill:#300000">
<path style="opacity:.05" d="m31.8438,19.0938c-1.0321-.0243-1.9075,.5533-2.4375,1.25-.5,.6571-.736,1.4413-.8125,2.2188h-.0312c-.0117,.0518-.0195,.1045-.0312,.1562-3.5961,15.8429-7.2462,31.6823-10.8125,47.5312a.9864,.9864 0 0,0 0,.0625c-.1764,1.1796 .3736,2.2645 1.1875,2.875 .7641,.5731 1.7451,.8017 2.7188,.6562v.0312c2.8521-.0403 5.8086,.0853 8.75-.0625a.9864,.9864 0 0,0 .2188-.0625c1.33-.3982 2.0174-1.5313 2.3125-2.5312 .2951-1 .3877-2.0006 .5938-2.5938a.9864,.9864 0 0,0 .0312-.0938l3.9062-16.3438h13.6875c-5.6154,4.9933-11.2673,9.9785-16.8438,15.0312a.9864,.9864 0 0,0 -.0625,.0625c-.8155,.8802-.9074,2.0875-.5938,3 .3004,.874 .8742,1.5536 1.4688,2.0938 .0244,.0264 .0382,.0672 .0625,.0938 1.8257,1.9908 3.5168,4.2463 5.5938,6.2188a.9864,.9864 0 0,0 .2188,.1562c1.1882,.6554 2.4566,.3465 3.375-.0938 .9184-.4403 1.6803-.9742 2.25-1.1875a.9864,.9864 0 0,0 .1562-.0938c2.3444-1.4249 5.2239-1.8361 7.7188-.7812a.9864,.9864 0 0,0 .0625,.0312c4.9856,1.7295 10.6542,2.897 16,.875a.9864,.9864 0 0,0 0-.0312c2.1055-.8096 4.5534-1.585 6.5-3.25a.9864,.9864 0 0,0 .125-.1562c.7443-1.0111 .7173-2.1912 .5312-3.125-.186-.9338-.4903-1.7642-.5312-2.3438a.9864,.9864 0 0,0 0-.1875c-.479-1.8925-.5725-4.0976-1.4375-6.25a.9864,.9864 0 0,0 -.0938-.1875c-.6562-.9327-1.7494-1.3398-2.7188-1.2812-.9174,.0554-1.7726,.4666-2.4375,1.0938-2.2633,1.6584-5.1054,2.5448-7.625,1.5a.9864,.9864 0 0,0 -.0938-.0312c-.6068-.1744-1.0498-.3301-1.5312-.4688 4.7459-4.0211 9.5957-7.9645 14.3125-12.0625a.9864,.9864 0 0,0 .25-.375c.8985-2.0904 1.1282-4.2618 1.6875-6.1562a.9864,.9864 0 0,0 .0312-.1562c.0667-.5777 .371-1.3831 .5938-2.2812 .2227-.8982 .3417-2.0163-.2812-3.0625a.9864,.9864 0 0,0 -.0625-.0938c-.8086-1.0613-2.0544-1.3544-3.0625-1.375-1.0081-.0206-1.9145,.1364-2.5312,.0625a.9864,.9864 0 0,0 -.125-.0312h-31.625l.9375-3.625c7.7644-.0151 15.5359,.0393 23.3125-.0312a.9864,.9864 0 0,0 .1875-.0312c1.3733-.2561 2.1482-1.3779 2.4688-2.375 .3206-.9971 .3913-2.0054 .5625-2.625a.9864,.9864 0 0,0 .0312-.0938c.3523-2.0401 1.0661-4.1768 1.25-6.5a.9864,.9864 0 0,0 0-.125c-.0907-1.1555-.8551-2.0529-1.7188-2.4688-.813-.3914-1.6989-.4241-2.5312-.3125v-.0625h-33.0312-.0312z"/>
<path style="opacity:.1" d="m31.8438,20.0938c-1.3944-.0492-2.2334,1.4016-2.3139,2.6855-3.608,15.8967-7.2651,31.792-10.8423,47.6895-.2437,1.6294 1.4783,2.7076 2.9512,2.4062 2.8895-.0408 5.7938,.0823 8.6738-.0625 1.9332-.5788 1.7117-2.9286 2.2531-4.4869 1.3636-5.7127 2.7271-11.4254 4.0907-17.1381 5.6979,0 11.3958,0 17.0938,0-6.262,5.5918-12.5946,11.116-18.8125,16.75-1.1512,1.2425-.1743,2.8542 .8712,3.7756 1.8993,2.0596 3.605,4.3337 5.6288,6.2557 1.7122,.9444 3.2859-.7697 4.8219-1.3448 2.578-1.5669 5.7712-2.0361 8.597-.8413 4.8932,1.6975 10.3175,2.7573 15.3271,.8625 2.1329-.8202 4.4418-1.5863 6.1914-3.0828 1.0545-1.4326-.0626-3.2234-.1738-4.7983-.5136-2.0294-.6091-4.1993-1.3887-6.1392-.9157-1.3015-2.754-1.0061-3.7632,.021-2.4466,1.7926-5.6449,2.8507-8.5844,1.6318-1.6905-.486-4.4063-.8068-1.8848-2.1647 4.7545-4.0283 9.5926-7.9653 14.2949-12.0506 .8205-1.9089 1.0548-4.0689 1.6474-6.0762 .1791-1.5518 1.3356-3.2115 .4463-4.7051-1.1685-1.5337-3.3083-.7404-4.9521-.9375-10.9639,0-21.9278,0-32.8916,0 .4792-1.875 .9583-3.75 1.4375-5.625 8.0304-.0208 16.0677,.0416 24.0938-.0312 1.9993-.3728 1.87-2.7306 2.2966-4.2743 .3698-2.1417 1.0637-4.2537 1.2346-6.4132-.1255-1.5981-1.9163-2.1336-3.2817-1.9062-11.0207,0-22.0414,0-33.062,0z"/>
<path style="opacity:.15" d="m31.8438,21.2188a1.0168,1.0168 0 0,0 -1,.8125l-11.0312,48.4688a1.0168,1.0168 0 0,0 1,1.25h8.9688a1.0168,1.0168 0 0,0 1-.7812l5-20.9062h20.9375l-20.875,18.5312a1.0168,1.0168 0 0,0 -.0625,1.4062l5.9688,6.8125a1.0168,1.0168 0 0,0 1.2188,.25l3.0312-1.5625c2.7672-1.4105 4.5627-1.6571 6.25-1.4688 1.6873,.1883 3.3295,.8771 5.5938,1.5 4.2419,1.167 8.8659,2.4561 17.375-2.4062a1.0168,1.0168 0 0,0 .5-1.0625l-1.6562-8.375a1.0168,1.0168 0 0,0 -1.5938-.6562c-4.3816,3.0884-6.8973,3.1719-9.3438,2.5625-1.8594-.4632-3.881-1.3296-6.2188-1.8438l16.9062-14.1875a1.0168,1.0168 0 0,0 .3438-.5312l2.0312-8.2812a1.0168,1.0168 0 0,0 -1-1.2812h-37.4688l2-7.875h24.5938a1.0168,1.0168 0 0,0 1-.8125l1.75-8.3125a1.0168,1.0168 0 0,0 -1-1.25h-34.2188z"/>
<path style="opacity:.3" d="m31.8383,22.2639-11.0184,48.4531 8.9524,0 5.2004-21.6833 24.4379,0-22.886,20.3091 5.9661,6.8102 3.0559-1.561c5.7789-2.9455 8.2026-1.2232 12.587-.017 4.2654,1.1735 8.2752,2.4294 16.5945-2.3245l-1.6521-8.3906c-9.0793,6.3995-11.9516,.6899-18.4181,.4633l18.5133-15.5296 2.0088-8.2901h-38.7795l2.4963-9.9496h25.418l1.7431-8.2901h-34.2198z"/>
</g>
<path style="fill:#fff" d="m31.8383,21.2634-11.0184,48.4531 8.9524,0 5.2004-21.6833 24.4379,0-22.886,20.3091 5.9661,6.8102 3.0559-1.561c5.7789-2.9455 8.2026-1.2232 12.587-.017 4.2654,1.1735 8.2752,2.4294 16.5945-2.3245l-1.6521-8.3906c-9.0793,6.3995-11.9516,.6899-18.4181,.4633l18.5133-15.5296 2.0088-8.2901h-38.7795l2.4963-9.9496h25.418l1.7431-8.2901h-34.2198z"/>
</svg>
