<?xml version="1.0" encoding="UTF-8" standalone="no"?>
<!-- Created with Inkscape (http://www.inkscape.org/) -->

<svg
   xmlns:dc="http://purl.org/dc/elements/1.1/"
   xmlns:cc="http://creativecommons.org/ns#"
   xmlns:rdf="http://www.w3.org/1999/02/22-rdf-syntax-ns#"
   xmlns:svg="http://www.w3.org/2000/svg"
   xmlns="http://www.w3.org/2000/svg"
   xmlns:xlink="http://www.w3.org/1999/xlink"
   xmlns:sodipodi="http://sodipodi.sourceforge.net/DTD/sodipodi-0.dtd"
   xmlns:inkscape="http://www.inkscape.org/namespaces/inkscape"
   version="1.0"
   width="96"
   height="96"
   id="svg2408"
   inkscape:version="0.48.4 r9939"
   sodipodi:docname="gbrainy.svg">
  <metadata
     id="metadata53">
    <rdf:RDF>
      <cc:Work
         rdf:about="">
        <dc:format>image/svg+xml</dc:format>
        <dc:type
           rdf:resource="http://purl.org/dc/dcmitype/StillImage" />
      </cc:Work>
    </rdf:RDF>
  </metadata>
  <sodipodi:namedview
     pagecolor="#ffffff"
     bordercolor="#666666"
     borderopacity="1"
     objecttolerance="10"
     gridtolerance="10"
     guidetolerance="10"
     inkscape:pageopacity="0"
     inkscape:pageshadow="2"
     inkscape:window-width="1920"
     inkscape:window-height="1018"
     id="namedview51"
     showgrid="false"
     inkscape:zoom="8"
     inkscape:cx="82.159318"
     inkscape:cy="46.570295"
     inkscape:window-x="-8"
     inkscape:window-y="-8"
     inkscape:window-maximized="1"
     inkscape:current-layer="svg2408" />
  <defs
     id="defs2410">
    <linearGradient
       id="linearGradient3692">
      <stop
         id="stop3694"
         style="stop-color:#2f7d9e;stop-opacity:1"
         offset="0" />
      <stop
         id="stop3696"
         style="stop-color:#54a8cc;stop-opacity:1"
         offset="1" />
    </linearGradient>
    <linearGradient
       x1="45.447727"
       y1="92.539597"
       x2="45.447727"
       y2="7.0165396"
       id="ButtonShadow"
       gradientUnits="userSpaceOnUse"
       gradientTransform="scale(1.0058652,0.994169)">
      <stop
         id="stop3750"
         style="stop-color:#000000;stop-opacity:1"
         offset="0" />
      <stop
         id="stop3752"
         style="stop-color:#000000;stop-opacity:0.58823532"
         offset="1" />
    </linearGradient>
    <linearGradient
       id="linearGradient3737">
      <stop
         id="stop3739"
         style="stop-color:#ffffff;stop-opacity:1"
         offset="0" />
      <stop
         id="stop3741"
         style="stop-color:#ffffff;stop-opacity:0"
         offset="1" />
    </linearGradient>
    <filter
       color-interpolation-filters="sRGB"
       id="filter3174">
      <feGaussianBlur
         id="feGaussianBlur3176"
         stdDeviation="1.71" />
    </filter>
    <linearGradient
       x1="36.357143"
       y1="6"
       x2="36.357143"
       y2="63.893143"
       id="linearGradient3188"
       xlink:href="#linearGradient3737"
       gradientUnits="userSpaceOnUse" />
    <filter
       x="-0.192"
       y="-0.192"
       width="1.3839999"
       height="1.3839999"
       color-interpolation-filters="sRGB"
       id="filter3794">
      <feGaussianBlur
         id="feGaussianBlur3796"
         stdDeviation="5.28" />
    </filter>
    <linearGradient
       x1="48"
       y1="20.220806"
       x2="48"
       y2="138.66119"
       id="linearGradient3613"
       xlink:href="#linearGradient3737"
       gradientUnits="userSpaceOnUse" />
    <radialGradient
       cx="48"
       cy="90.171875"
       r="42"
       fx="48"
       fy="90.171875"
       id="radialGradient3619"
       xlink:href="#linearGradient3737"
       gradientUnits="userSpaceOnUse"
       gradientTransform="matrix(1.1573129,0,0,0.99590774,-7.5510206,0.19713193)" />
    <clipPath
       id="clipPath3613">
      <rect
         width="84"
         height="84"
         rx="6"
         ry="6"
         x="6"
         y="6"
         id="rect3615"
         style="fill:#ffffff;fill-opacity:1;fill-rule:nonzero;stroke:none" />
    </clipPath>
    <linearGradient
       x1="48"
       y1="90"
       x2="48"
       y2="5.9877172"
       id="linearGradient3617"
       xlink:href="#linearGradient3692"
       gradientUnits="userSpaceOnUse" />
    <linearGradient
       x1="45.447727"
       y1="92.539597"
       x2="45.447727"
       y2="7.0165396"
       id="ButtonShadow-0"
       gradientUnits="userSpaceOnUse"
       gradientTransform="matrix(1.0058652,0,0,0.994169,100,0)">
      <stop
         id="stop3750-8"
         style="stop-color:#000000;stop-opacity:1"
         offset="0" />
      <stop
         id="stop3752-5"
         style="stop-color:#000000;stop-opacity:0.58823532"
         offset="1" />
    </linearGradient>
    <linearGradient
       x1="32.251034"
       y1="6.1317081"
       x2="32.251034"
       y2="90.238609"
       id="linearGradient3780"
       xlink:href="#ButtonShadow-0"
       gradientUnits="userSpaceOnUse"
       gradientTransform="matrix(1.0238095,0,0,1.0119048,-1.1428571,-98.071429)" />
    <linearGradient
       x1="32.251034"
       y1="6.1317081"
       x2="32.251034"
       y2="90.238609"
       id="linearGradient3772"
       xlink:href="#ButtonShadow-0"
       gradientUnits="userSpaceOnUse"
       gradientTransform="matrix(1.0238095,0,0,1.0119048,-1.1428571,-98.071429)" />
    <linearGradient
       x1="32.251034"
       y1="6.1317081"
       x2="32.251034"
       y2="90.238609"
       id="linearGradient3725"
       xlink:href="#ButtonShadow-0"
       gradientUnits="userSpaceOnUse"
       gradientTransform="matrix(1.0238095,0,0,1.0119048,-1.1428571,-98.071429)" />
    <linearGradient
       x1="32.251034"
       y1="6.1317081"
       x2="32.251034"
       y2="90.238609"
       id="linearGradient3721"
       xlink:href="#ButtonShadow-0"
       gradientUnits="userSpaceOnUse"
       gradientTransform="translate(0,-97)" />
    <linearGradient
       x1="32.251034"
       y1="6.1317081"
       x2="32.251034"
       y2="90.238609"
       id="linearGradient3026"
       xlink:href="#ButtonShadow-0"
       gradientUnits="userSpaceOnUse"
       gradientTransform="matrix(1.0238095,0,0,1.0119048,-1.1428571,-98.071429)" />
  </defs>
  <g
     id="layer2"
     style="display:none">
    <rect
       width="86"
       height="85"
       rx="6"
       ry="6"
       x="5"
       y="7"
       id="rect3745"
       style="opacity:0.9;fill:url(#ButtonShadow);fill-opacity:1;fill-rule:nonzero;stroke:none;filter:url(#filter3174)" />
  </g>
  <g
     id="layer3">
    <path
       d="m 12,-95.03125 c -5.5110903,0 -10.03125,4.52016 -10.03125,10.03125 l 0,71 c 0,5.5110902 4.5201598,10.03125 10.03125,10.03125 l 72,0 c 5.51109,0 10.03125,-4.5201597 10.03125,-10.03125 l 0,-71 c 0,-5.51109 -4.52016,-10.03125 -10.03125,-10.03125 l -72,0 z"
       transform="scale(1,-1)"
       id="path3786"
       style="opacity:0.07999998;fill:url(#linearGradient3026);fill-opacity:1;fill-rule:nonzero;stroke:none;display:inline" />
    <path
       d="m 12,-94.03125 c -4.971633,0 -9.03125,4.059617 -9.03125,9.03125 l 0,71 c 0,4.9716329 4.0596171,9.03125 9.03125,9.03125 l 72,0 c 4.971633,0 9.03125,-4.059617 9.03125,-9.03125 l 0,-71 c 0,-4.971633 -4.059617,-9.03125 -9.03125,-9.03125 l -72,0 z"
       transform="scale(1,-1)"
       id="path3778"
       style="opacity:0.1;fill:url(#linearGradient3780);fill-opacity:1;fill-rule:nonzero;stroke:none;display:inline" />
    <path
       d="m 12,-93 c -4.4091333,0 -8,3.590867 -8,8 l 0,71 c 0,4.4091333 3.5908667,8 8,8 l 72,0 c 4.409133,0 8,-3.5908667 8,-8 l 0,-71 c 0,-4.409133 -3.590867,-8 -8,-8 l -72,0 z"
       transform="scale(1,-1)"
       id="path3770"
       style="opacity:0.2;fill:url(#linearGradient3772);fill-opacity:1;fill-rule:nonzero;stroke:none;display:inline" />
    <rect
       width="86"
       height="85"
       rx="7"
       ry="7"
       x="5"
       y="-92"
       transform="scale(1,-1)"
       id="rect3723"
       style="opacity:0.3;fill:url(#linearGradient3725);fill-opacity:1;fill-rule:nonzero;stroke:none;display:inline" />
    <rect
       width="84"
       height="84"
       rx="6"
       ry="6"
       x="6"
       y="-91"
       transform="scale(1,-1)"
       id="rect3716"
       style="opacity:0.45;fill:url(#linearGradient3721);fill-opacity:1;fill-rule:nonzero;stroke:none;display:inline" />
  </g>
  <g
     id="layer1">
    <rect
       width="84"
       height="84"
       rx="6"
       ry="6"
       x="6"
       y="6"
       id="rect2419"
       style="fill:url(#linearGradient3617);fill-opacity:1;fill-rule:nonzero;stroke:none" />
    <path
       d="M 12,6 C 8.676,6 6,8.676 6,12 l 0,2 0,68 0,2 c 0,0.334721 0.04135,0.6507 0.09375,0.96875 0.0487,0.295596 0.09704,0.596915 0.1875,0.875 0.00988,0.03038 0.020892,0.0636 0.03125,0.09375 0.098865,0.287771 0.2348802,0.547452 0.375,0.8125 0.1445918,0.273507 0.3156161,0.535615 0.5,0.78125 0.1843839,0.245635 0.3737765,0.473472 0.59375,0.6875 0.439947,0.428056 0.94291,0.814526 1.5,1.09375 0.278545,0.139612 0.5734731,0.246947 0.875,0.34375 -0.2562018,-0.100222 -0.4867109,-0.236272 -0.71875,-0.375 -0.00741,-0.0044 -0.023866,0.0045 -0.03125,0 -0.031933,-0.0193 -0.062293,-0.04251 -0.09375,-0.0625 -0.120395,-0.0767 -0.2310226,-0.163513 -0.34375,-0.25 -0.1061728,-0.0808 -0.2132809,-0.161112 -0.3125,-0.25 C 8.4783201,88.557317 8.3087904,88.373362 8.15625,88.1875 8.0486711,88.057245 7.9378561,87.922215 7.84375,87.78125 7.818661,87.74287 7.805304,87.69538 7.78125,87.65625 7.716487,87.553218 7.6510225,87.451733 7.59375,87.34375 7.4927417,87.149044 7.3880752,86.928049 7.3125,86.71875 7.30454,86.69694 7.288911,86.6782 7.28125,86.65625 7.2494249,86.5643 7.2454455,86.469419 7.21875,86.375 7.1884177,86.268382 7.1483606,86.171969 7.125,86.0625 7.0521214,85.720988 7,85.364295 7,85 L 7,83 7,15 7,13 C 7,10.218152 9.2181517,8 12,8 l 2,0 68,0 2,0 c 2.781848,0 5,2.218152 5,5 l 0,2 0,68 0,2 c 0,0.364295 -0.05212,0.720988 -0.125,1.0625 -0.04415,0.206893 -0.08838,0.397658 -0.15625,0.59375 -0.0077,0.02195 -0.0233,0.04069 -0.03125,0.0625 -0.06274,0.173739 -0.138383,0.367449 -0.21875,0.53125 -0.04158,0.0828 -0.07904,0.169954 -0.125,0.25 -0.0546,0.09721 -0.126774,0.18835 -0.1875,0.28125 -0.09411,0.140965 -0.204921,0.275995 -0.3125,0.40625 -0.143174,0.17445 -0.303141,0.346998 -0.46875,0.5 -0.01117,0.0102 -0.01998,0.02115 -0.03125,0.03125 -0.138386,0.125556 -0.285091,0.234436 -0.4375,0.34375 -0.102571,0.07315 -0.204318,0.153364 -0.3125,0.21875 -0.0074,0.0045 -0.02384,-0.0044 -0.03125,0 -0.232039,0.138728 -0.462548,0.274778 -0.71875,0.375 0.301527,-0.0968 0.596455,-0.204138 0.875,-0.34375 0.55709,-0.279224 1.060053,-0.665694 1.5,-1.09375 0.219973,-0.214028 0.409366,-0.441865 0.59375,-0.6875 0.184384,-0.245635 0.355408,-0.507743 0.5,-0.78125 0.14012,-0.265048 0.276135,-0.524729 0.375,-0.8125 0.01041,-0.03078 0.02133,-0.06274 0.03125,-0.09375 0.09046,-0.278085 0.1388,-0.579404 0.1875,-0.875 C 89.95865,84.6507 90,84.334721 90,84 l 0,-2 0,-68 0,-2 C 90,8.676 87.324,6 84,6 L 12,6 z"
       id="rect3728"
       style="opacity:0.4;fill:url(#linearGradient3188);fill-opacity:1;fill-rule:nonzero;stroke:none" />
    <path
       d="M 12,90 C 8.676,90 6,87.324 6,84 L 6,82 6,14 6,12 c 0,-0.334721 0.04135,-0.6507 0.09375,-0.96875 0.0487,-0.295596 0.09704,-0.596915 0.1875,-0.875 C 6.29113,10.12587 6.302142,10.09265 6.3125,10.0625 6.411365,9.774729 6.5473802,9.515048 6.6875,9.25 6.8320918,8.976493 7.0031161,8.714385 7.1875,8.46875 7.3718839,8.223115 7.5612765,7.995278 7.78125,7.78125 8.221197,7.353194 8.72416,6.966724 9.28125,6.6875 9.559795,6.547888 9.8547231,6.440553 10.15625,6.34375 9.9000482,6.443972 9.6695391,6.580022 9.4375,6.71875 c -0.00741,0.0044 -0.023866,-0.0045 -0.03125,0 -0.031933,0.0193 -0.062293,0.04251 -0.09375,0.0625 -0.120395,0.0767 -0.2310226,0.163513 -0.34375,0.25 -0.1061728,0.0808 -0.2132809,0.161112 -0.3125,0.25 C 8.4783201,7.442683 8.3087904,7.626638 8.15625,7.8125 8.0486711,7.942755 7.9378561,8.077785 7.84375,8.21875 7.818661,8.25713 7.805304,8.30462 7.78125,8.34375 7.716487,8.446782 7.6510225,8.548267 7.59375,8.65625 7.4927417,8.850956 7.3880752,9.071951 7.3125,9.28125 7.30454,9.30306 7.288911,9.3218 7.28125,9.34375 7.2494249,9.4357 7.2454455,9.530581 7.21875,9.625 7.1884177,9.731618 7.1483606,9.828031 7.125,9.9375 7.0521214,10.279012 7,10.635705 7,11 l 0,2 0,68 0,2 c 0,2.781848 2.2181517,5 5,5 l 2,0 68,0 2,0 c 2.781848,0 5,-2.218152 5,-5 l 0,-2 0,-68 0,-2 C 89,10.635705 88.94788,10.279012 88.875,9.9375 88.83085,9.730607 88.78662,9.539842 88.71875,9.34375 88.71105,9.3218 88.69545,9.30306 88.6875,9.28125 88.62476,9.107511 88.549117,8.913801 88.46875,8.75 88.42717,8.6672 88.38971,8.580046 88.34375,8.5 88.28915,8.40279 88.216976,8.31165 88.15625,8.21875 88.06214,8.077785 87.951329,7.942755 87.84375,7.8125 87.700576,7.63805 87.540609,7.465502 87.375,7.3125 87.36383,7.3023 87.35502,7.29135 87.34375,7.28125 87.205364,7.155694 87.058659,7.046814 86.90625,6.9375 86.803679,6.86435 86.701932,6.784136 86.59375,6.71875 c -0.0074,-0.0045 -0.02384,0.0044 -0.03125,0 -0.232039,-0.138728 -0.462548,-0.274778 -0.71875,-0.375 0.301527,0.0968 0.596455,0.204138 0.875,0.34375 0.55709,0.279224 1.060053,0.665694 1.5,1.09375 0.219973,0.214028 0.409366,0.441865 0.59375,0.6875 0.184384,0.245635 0.355408,0.507743 0.5,0.78125 0.14012,0.265048 0.276135,0.524729 0.375,0.8125 0.01041,0.03078 0.02133,0.06274 0.03125,0.09375 0.09046,0.278085 0.1388,0.579404 0.1875,0.875 C 89.95865,11.3493 90,11.665279 90,12 l 0,2 0,68 0,2 c 0,3.324 -2.676,6 -6,6 l -72,0 z"
       id="path3615"
       style="opacity:0.2;fill:url(#radialGradient3619);fill-opacity:1;fill-rule:nonzero;stroke:none" />
  </g>
  <g
     id="layer5">
    <rect
       width="66"
       height="66"
       rx="12"
       ry="12"
       x="15"
       y="15"
       clip-path="url(#clipPath3613)"
       id="rect3171"
       style="opacity:0.1;fill:url(#linearGradient3613);fill-opacity:1;fill-rule:nonzero;stroke:#ffffff;stroke-width:0.5;stroke-linecap:round;stroke-linejoin:miter;stroke-miterlimit:4;stroke-opacity:1;stroke-dasharray:none;stroke-dashoffset:0;filter:url(#filter3794)" />
  </g>
  <g
     id="layer4">
    <path
       d="M 42.21875,16.125 C 23.277761,17.596215 17.243151,26.520438 13.40625,37 c -2.376004,10.304696 2.288702,19.278327 14.75,19.4375 0.335996,2.103393 1.261497,3.971908 2.6875,5.3125 1.64607,1.547478 3.737691,2.549516 5.8125,3.0625 0.0093,0.0023 0.02199,-0.0023 0.03125,0 0.0075,0.0027 0.03477,0.02222 0.0625,0.03125 0.01232,0.004 0.01487,-0.0051 0.03125,0 2.595611,0.806956 5.214889,0.864633 7.75,0.71875 1.344449,3.628079 4.05871,7.557135 6.75,9.5 2.411335,4.920511 2.264438,7.467959 5.5,6.5625 2.295121,-1.138501 6.596313,-1.256239 8.125,-3.03125 0.411026,-0.527046 0.374522,-1.140989 0.40625,-1.65625 -0.341835,-1.604569 -0.999485,-3.050752 -1.71875,-4.40625 1.887571,0.111032 3.725693,0.01846 5.375,-0.21875 6.335728,-0.391381 9.834149,-5.062694 10.71875,-9.75 0.302636,-1.707392 0.129723,-3.190961 0,-4.8125 0.438063,-0.319765 0.559112,-0.791528 0.71875,-1.28125 0.659607,-0.337903 1.606326,-0.569148 2.09375,-1 1.680478,-2.589037 1.033523,-6.386931 0.9375,-9.1875 C 83.098693,43.178239 82.589057,39.693158 81.5,36.75 c -0.09955,-0.354343 -0.360581,-0.610915 -0.5625,-0.875 -0.62917,-0.536503 -0.967989,-1.227427 -1.40625,-2.34375 -0.423037,-1.077545 -1.002204,-2.500482 -2.25,-3.75 L 77.3125,29.75 c -0.118275,-0.139697 -0.12955,-0.1084 -0.09375,-0.0625 0.0072,0.0092 -0.01377,-0.04736 0,-0.03125 -5.068049,-5.929805 -12.098121,-9.467789 -19.09375,-11.8125 -0.02083,-5.98e-4 -0.04167,-5.98e-4 -0.0625,0 -0.08047,-0.03061 -0.164588,-0.05164 -0.25,-0.0625 -0.02974,-0.0084 -0.06401,0.0083 -0.09375,0 -5.505296,-0.633244 -11.160292,-2.010493 -15.5,-1.65625 z"
       id="path3759"
       style="opacity:0.05;fill:#000000"
       inkscape:connector-curvature="0"
       sodipodi:nodetypes="cccsccccccccccccccccccsccccccccc" />
    <path
       d="m 42.96875,17.0625 c -0.119311,0.0078 -0.236975,0.03994 -0.34375,0.09375 -2.239188,0.961312 -4.613636,0.895188 -7.59375,1.65625 -0.01105,0.0028 -0.02019,-0.0028 -0.03125,0 -9.366562,2.152543 -17.749424,9.038529 -20.5,18.46875 -0.01042,-1.82e-4 -0.02083,-1.82e-4 -0.03125,0 -0.816709,2.986445 -1.723791,6.521623 0.03125,9.78125 0.01645,0.03056 0.01432,0.06324 0.03125,0.09375 l 0.03125,0 c 2.022252,4.593213 6.610597,7.9872 11.71875,8.125 0.91502,0.216685 1.914738,-0.03514 2.75,-0.25 0.01304,2.242286 1.200181,4.623169 2.5625,5.9375 1.500956,1.411056 3.459392,2.344657 5.40625,2.8125 0.03144,0.01 0.06228,0.02147 0.09375,0.03125 2.703204,0.840406 5.51377,0.871939 8.25,0.65625 0.457287,2.166817 1.832505,4.308731 2.78125,6.125 0.50481,0.95047 1.227733,1.876922 2.34375,2.5 0.378632,0.374296 1.078131,0.829024 1.53125,1.15625 0.398883,0.354224 0.621439,0.669751 0.6875,1.15625 0.01142,0.07518 0.03248,0.148887 0.0625,0.21875 0.609002,1.457514 1.04365,3.127138 1.875,4.71875 0.07533,0.154564 0.196307,0.286536 0.34375,0.375 0.963954,0.551773 1.982603,0.328866 2.75,0.03125 0.767397,-0.297616 1.426195,-0.662176 1.875,-0.75 0.08576,-0.0086 0.170261,-0.02976 0.25,-0.0625 0.504325,-0.248758 1.207195,-0.412632 1.96875,-0.65625 0.761555,-0.243618 1.612046,-0.610931 2.25,-1.375 0.170035,-0.205183 0.240974,-0.48894 0.1875,-0.75 -0.449127,-2.108194 -1.503133,-4.026704 -2.5625,-5.84375 2.415588,0.523374 4.953874,0.233669 7.21875,-0.09375 0.01042,1.82e-4 0.02083,1.82e-4 0.03125,0 4.552309,-0.873717 8.89408,-4.188485 9.75,-9.03125 0.0035,-0.01998 -0.0034,-0.04247 0,-0.0625 0.0097,-0.057 0.05377,-0.09883 0.0625,-0.15625 l -0.03125,0 c 0.407907,-1.207029 0.1116,-2.378229 -0.03125,-3.28125 -0.07585,-0.479449 -0.110201,-0.877295 -0.0625,-1.15625 0.0477,-0.278955 0.115404,-0.424843 0.375,-0.625 0.243953,-0.187257 0.379237,-0.507018 0.34375,-0.8125 -0.05301,-0.472178 -0.0052,-0.415469 0.0625,-0.46875 0.06774,-0.05328 0.379217,-0.174668 0.8125,-0.28125 0.433283,-0.106582 1.015202,-0.214973 1.53125,-0.6875 0.470665,-0.430972 0.659257,-1.158412 0.625,-1.96875 l 0.03125,0 c -0.0033,-0.07733 0.0086,-0.139786 0,-0.21875 0.266783,-2.085194 -0.01399,-3.670287 0,-5.78125 -0.0087,-0.03179 -0.01912,-0.06311 -0.03125,-0.09375 -0.336464,-3.125861 -0.851571,-6.662507 -1.90625,-9.5 -0.04968,-0.143514 -0.136633,-0.273946 -0.25,-0.375 -0.850895,-0.725571 -1.243231,-1.649623 -1.6875,-2.78125 -0.431288,-1.098562 -0.94282,-2.383435 -2.0625,-3.46875 -0.02888,-0.03411 -0.06474,-0.0598 -0.09375,-0.09375 -4.884325,-5.714841 -11.705106,-9.191147 -18.59375,-11.5 -0.01042,-1.82e-4 -0.02083,-1.82e-4 -0.03125,0 -4.836414,-1.400334 -9.809248,-1.887683 -14.78125,-1.8125 z"
       id="path3755"
       style="opacity:0.1;fill:#000000"
       inkscape:connector-curvature="0"
       sodipodi:nodetypes="ccccccccccccccccccccccsccsccccccccccscccsscccccccsccccc" />
    <path
       d="m 42.96875,17.96875 c -2.457338,1.054967 -4.885986,0.982613 -7.75,1.71875 -9.084941,2.07805 -17.226508,8.763519 -19.875,17.84375 -0.821537,3.004099 -1.642123,6.272753 -0.01897,9.198245 1.904785,4.42791 6.421648,7.725002 11.303763,7.710651 1.569005,0.625041 3.712079,-1.106314 3.621459,-1.377646 -0.885274,1.647192 0.178837,0.327148 -0.375,2.1875 0.04327,4.090851 3.738143,6.836913 7.412335,7.69056 3.029283,0.961712 6.268302,0.961837 9.400165,0.59069 -1.233016,1.160179 0.457465,2.603478 0.839039,3.828951 1.053367,1.746663 1.498454,4.02729 3.439677,5.036986 1.068201,0.803195 2.386328,1.415982 2.585314,2.881396 0.641558,1.53543 1.08305,3.172821 1.851323,4.643672 1.297924,0.742939 2.703264,-0.526229 4.033213,-0.78648 1.283283,-0.63298 2.99781,-0.677069 3.932956,-1.797081 -0.567461,-2.663652 -2.305382,-5.272829 -3.650272,-7.651194 2.726466,1.359884 6.094246,1.097384 9.072889,0.66678 4.313145,-0.827815 8.397963,-4.003107 9.083361,-8.51053 0.758916,-1.817092 -1.130912,-4.315637 0.589879,-5.642421 -0.297722,-2.651829 3.378342,-0.700013 3.058401,-3.639572 0.301469,-2.043629 -0.04474,-3.578276 -0.0296,-5.862417 C 81.160541,43.604352 80.61976,40.104649 79.61628,37.4049 77.541477,35.635684 77.82352,32.914133 75.778025,31.019595 71.040347,25.42386 64.33143,22.013303 57.489298,19.720039 52.760367,18.350826 47.876524,17.894538 42.96875,17.96875 z m 22.8125,26.46875 c 1.059723,1.124113 0.947146,1.771403 0,0 z m 0.90625,1.53125 c 1.414919,2.290882 1.130601,5.102955 0.431194,7.578734 0.03676,0.86574 -1.382031,1.791004 -0.383361,0.125777 0.785854,-2.511377 0.987751,-5.271403 -0.04783,-7.704511 z M 73.5625,65.75 c 0.08478,-0.01392 -0.09537,0.107916 0,0 z m -2.71875,1.875 c 0.08478,-0.01392 -0.09537,0.107916 0,0 z"
       id="path3749"
       style="opacity:0.15;fill:#000000"
       inkscape:connector-curvature="0"
       sodipodi:nodetypes="ccccccccccccccccccccccccccccccccccc" />
    <path
       style="opacity:0.3;fill:#000000"
       d="m 43.03125,19 c -3.353436,0.207215 1.982766,1.392496 2.746921,2.05002 2.536087,0.948325 5.289821,3.545723 3.940579,6.44998 -1.118424,3.12011 -3.204231,5.691081 -6.063379,7.335458 -3.288078,1.705884 -2.610643,6.489086 -0.249121,8.633292 2.821859,-0.003 4.23261,-3.888681 7.612169,-3.15943 2.396794,0.401412 3.587297,-1.478942 4.535057,-3.184772 1.566921,-0.0928 2.766879,2.616045 3.009959,0.1446 1.305292,-2.89619 4.427427,-1.46682 6.249065,-0.144148 2.341569,-1.156329 4.950288,-3.689602 6.90625,-0.15625 1.559662,1.684971 5.210197,1.262514 5.565793,-1.254909 C 75.677021,31.23132 71.634447,28.11976 67.8125,25.53125 61.780478,21.965366 55.008933,19.402493 47.941734,19.142742 46.307016,19.05208 44.669012,18.95254 43.03125,19 z M 39.875,19.875 c -9.458365,0.894599 -18.866643,6.448934 -22.637115,15.437394 -1.088323,2.46489 -1.642107,5.169951 -1.862885,7.843856 0.707303,5.378894 5.391004,10.166113 10.934537,10.235166 3.15636,0.573505 5.184105,-1.27586 6.583334,-3.864455 1.175547,-1.720598 3.311109,-2.325745 4.696192,-3.710221 0.237898,-1.853118 2.0886,-3.191463 3.785937,-2.56674 -2.389263,-2.540134 -2.335264,-7.271984 0.94823,-9.024796 3.12132,-1.878986 5.943178,-5.142852 5.935334,-8.93269 C 47.647347,22.347565 44.17461,21.598724 41.84375,20.4375 41.253481,20.070975 40.536345,20.016481 39.875,19.875 z m 28.90625,16.4375 c -1.414821,1.241841 -3.522739,3.275031 -5.346132,1.472705 -1.081056,-1.010643 -3.187743,-1.477569 -3.863489,0.131949 -0.39552,3.074178 4.1278,2.78931 5.756323,4.62399 1.844869,1.352825 2.748054,3.531688 3.294227,5.654082 0.931666,2.274879 -2.026568,6.282938 1.919832,5.046114 3.226635,-0.291583 6.602169,0.347636 9.739239,0.19616 0.65851,-2.675745 0.157393,-5.469062 0.03208,-8.183512 -0.704894,-2.238443 -0.382042,-7.225702 -2.437816,-7.76333 -1.436665,2.238109 -4.839623,2.85266 -6.497619,0.462463 C 70.639374,37.285026 69.898648,36.22732 68.78125,36.3125 z m -12.5,2.625 c -1.470981,2.587657 -4.481048,2.768292 -7.052035,3.300851 -2.780443,1.381458 -5.452868,3.676596 -8.777631,2.7247 -1.987059,1.051707 -2.821689,4.078951 -5.538566,4.717721 -1.56506,1.901204 -4.342059,3.942723 -3.819268,6.600478 0.748158,4.133171 5.353569,5.632418 8.972558,6.236713 7.184268,1.051097 14.208738,-1.48893 20.800077,-4.043436 2.99278,-1.103742 5.108041,-3.84321 5.364595,-7.039599 0.858585,-3.812108 -1.212212,-8.179627 -5.072445,-9.35066 C 59.156159,41.575396 58.033354,39.887525 56.28125,38.9375 z m 17.4375,15.53125 c -3.113718,0.131756 -6.534624,-0.293142 -8.15625,2.84375 -2.807304,2.562363 -6.63025,3.269121 -10.116752,4.523503 -1.78882,0.949772 -0.01397,3.659506 0.984293,4.76555 2.731109,2.696411 6.928327,3.383133 10.681685,2.955816 4.715279,-0.191437 9.632811,-3.759299 9.882815,-8.726849 0.321243,-1.316315 -0.597019,-2.672901 -0.369541,-3.89302 1.453766,-1.341879 1.613047,-2.880832 -0.875,-2.34375 -0.676294,-0.05169 -1.352092,-0.125842 -2.03125,-0.125 z m -20.75,8.78125 c -1.927083,0.395833 -3.854167,0.791667 -5.78125,1.1875 1.131685,2.110587 2.09414,4.364714 3.330647,6.386393 1.122529,0.90611 2.462513,1.646693 3.451332,2.654583 0.728924,1.913425 1.457847,3.826849 2.186771,5.740274 2.09375,-0.75 4.1875,-1.5 6.28125,-2.25 C 61.064065,74.661486 60.223117,71.977055 58.560665,69.906021 56.982901,68.692918 54.691558,68.704024 54.357571,66.394137 53.894631,65.346091 53.43169,64.298046 52.96875,63.25 z"
       id="path3745"
       inkscape:connector-curvature="0" />
    <path
       style="fill:#ffffff"
       d="m 43.03125,18 c -2.734007,0.750561 3.857766,1.827256 4.622285,3.049493 3.69938,2.048648 2.309974,6.615611 0.05804,9.198717 -1.999167,3.133592 -7.658766,4.284343 -6.131256,8.996428 0.292542,3.887483 3.908387,3.549162 5.849917,1.045928 2.11979,-2.049977 5.902415,0.288502 7.351847,-2.892302 0.679912,-3.167607 3.853257,1.900576 4.046621,-1.622544 2.171066,-3.475992 5.543551,1.870287 7.775687,-0.659838 2.628248,-2.398234 4.592495,0.384874 6.591988,1.721648 3.267675,1.158212 5.323309,-2.683308 2.71146,-4.877411 C 71.298235,25.504635 63.785527,21.791536 56.378739,19.51246 52.054014,18.225266 47.516022,17.991049 43.03125,18 z M 39.875,18.875 c -10.287062,0.902852 -20.522131,7.591162 -23.506965,17.810311 -0.899683,3.039953 -1.562519,6.464227 0.234321,9.329694 2.241025,4.585042 7.823072,7.526424 12.808324,6.088242 2.799436,-1.084506 3.297548,-4.615086 6.07276,-5.758218 C 38.103472,45.578201 38.037345,41.172228 41.375,42.25 38.14709,38.972949 39.942137,33.564512 44.03071,32.027875 46.857229,29.85559 50.297074,24.629718 46.574858,21.768372 44.524996,20.520387 42.219747,19.396355 39.875,18.875 z m 28.90625,16.4375 c -1.804938,2.327763 -4.746315,2.772239 -6.865462,0.64594 -3.871784,-0.662888 -2.073498,4.269892 0.77088,4.123963 3.785598,1.137362 6.168746,5.226874 6.073569,9.034921 -0.866386,1.9822 -0.207352,4.40086 2.388418,3.079832 2.950106,-0.496592 6.966589,1.073577 9.242851,-0.262688 0.632032,-4.464843 -0.33187,-8.945981 -1.027096,-13.341396 -0.858268,-4.64924 -4.112861,2.001202 -6.894317,-0.603268 C 71.201841,37.204249 70.47781,35.304684 68.78125,35.3125 z m -12.5,2.625 c -1.71834,3.276858 -5.949628,2.355352 -8.609654,4.146859 -2.34015,2.244182 -5.831002,1.516856 -8.236191,2.649868 -1.642789,2.76034 -4.664894,3.726035 -6.556443,6.169692 -2.442529,2.005515 -2.330542,5.864879 0.156947,7.776593 4.758382,3.689237 11.386403,3.508982 16.999788,2.316743 4.253471,-1.03453 8.479224,-2.393328 12.415108,-4.30833 5.086871,-3.148952 5.467258,-11.971839 0.06921,-15.023012 -2.264785,-0.669204 -4.094882,-2.094222 -5.917253,-3.542105 L 56.28125,37.9375 z m 17.4375,15.53125 c -3.995605,-0.595345 -7.392481,1.130682 -9.833564,4.105212 -2.486461,2.509252 -8.75858,1.344548 -9.104392,5.237547 1.60867,4.818982 7.422076,6.278753 11.977813,5.78263 5.192222,-0.03463 10.584197,-4.248932 10.281729,-9.755645 -1.189245,-1.955401 0.506605,-3.400397 0.463217,-5.093005 -1.151877,-0.500967 -2.535028,-0.02142 -3.784803,-0.276739 z m -20.75,8.78125 c -1.927083,0.395833 -3.854167,0.791667 -5.78125,1.1875 1.564723,2.428174 2.095962,5.749009 4.655245,7.35876 1.704681,0.778552 2.532926,2.301065 3.011793,4.005497 0.433904,1.138998 0.867808,2.277995 1.301712,3.416993 2.09375,-0.75 4.1875,-1.5 6.28125,-2.25 -1.67878,-2.465139 -2.16109,-6.003287 -4.821981,-7.639353 -2.361975,-0.51006 -3.233348,-2.547611 -3.975478,-4.559669 C 53.416277,63.263152 53.192514,62.756576 52.96875,62.25 z"
       id="path3736"
       inkscape:connector-curvature="0" />
  </g>
</svg>
