<svg xmlns="http://www.w3.org/2000/svg" viewBox="0 0 96 96" xmlns:xlink="http://www.w3.org/1999/xlink">
<defs>
<clipPath id="clipPath3613">
<path style="fill:#fff" d="m12,6h72a6,6 0 0,1 6,6v72a6,6 0 0,1 -6,6h-72a6,6 0 0,1 -6-6v-72a6,6 0 0,1 6-6"/>
</clipPath>
<filter width="1.384" x="-.192" y="-.192" height="1.384" style="color-interpolation-filters:sRGB" id="filter3794">
<feGaussianBlur stdDeviation="5.28"/>
</filter>
<linearGradient id="linearGradient3188" xlink:href="#linearGradient3737" y1="6" y2="63.893" x2="0" gradientUnits="userSpaceOnUse"/>
<linearGradient id="linearGradient3737">
<stop offset="0" style="stop-color:#fff"/>
<stop offset="1" style="stop-color:#fff;stop-opacity:0"/>
</linearGradient>
<linearGradient gradientTransform="matrix(1.02941 0 0 1.02941 -1.41176 -1.41176)" id="linearGradient3279" xlink:href="#linearGradient3465" y1="13" y2="83.295" x2="0" gradientUnits="userSpaceOnUse"/>
<linearGradient id="linearGradient3427" xlink:href="#linearGradient3187" y1="90" y2="5.988" x2="0" gradientUnits="userSpaceOnUse"/>
<linearGradient id="linearGradient3187">
<stop offset="0" style="stop-color:#b4b4b4"/>
<stop offset="1" style="stop-color:#e6e6e6"/>
</linearGradient>
<linearGradient id="linearGradient3465">
<stop offset="0" style="stop-color:#919191"/>
<stop offset="1" style="stop-color:#fdfdfd"/>
</linearGradient>
<linearGradient id="linearGradient3737-4">
<stop offset="0" style="stop-color:#fff"/>
<stop offset="1" style="stop-color:#fff;stop-opacity:0"/>
</linearGradient>
<linearGradient gradientTransform="matrix(1.00587 0 0 .99417 100 0)" id="ButtonShadow-0" y1="92.54" y2="7.017" x2="0" gradientUnits="userSpaceOnUse">
<stop offset="0"/>
<stop offset="1" style="stop-opacity:.588"/>
</linearGradient>
<linearGradient gradientTransform="matrix(1.02381 0 0 1.0119 -1.14286 -98.07143)" id="linearGradient3780" xlink:href="#ButtonShadow-0" y1="6.132" y2="90.239" x2="0" gradientUnits="userSpaceOnUse"/>
<linearGradient id="linearGradient2908" xlink:href="#linearGradient3737-4" y1="20.221" y2="138.661" x2="0" gradientUnits="userSpaceOnUse"/>
<linearGradient gradientTransform="translate(0 -97)" id="linearGradient3721" xlink:href="#ButtonShadow-0" y1="6.132" y2="90.239" x2="0" gradientUnits="userSpaceOnUse"/>
<radialGradient cx="48" cy="90.172" gradientTransform="matrix(1.15731 0 0 .99591 -7.55102 .19713)" r="42" id="radialGradient2874" gradientUnits="userSpaceOnUse">
<stop offset="0" style="stop-color:#fff"/>
<stop offset="1" style="stop-color:#fff;stop-opacity:0"/>
</radialGradient>
<radialGradient cx="47.098" cy="78.287" gradientTransform="matrix(1.38301 -0 0 1.31239 -18.03892 -24.21873)" r="38.957" id="radialGradient3205" gradientUnits="userSpaceOnUse">
<stop offset="0" style="stop-color:#840000"/>
<stop offset="1" style="stop-color:#190000"/>
</radialGradient>
</defs>
<path style="opacity:.08;fill:url(#linearGradient3780)" d="m12-95.0312c-5.5111,0-10.0312,4.5202-10.0312,10.0312v71c0,5.5111 4.5202,10.0312 10.0312,10.0312h72c5.5111,0 10.0312-4.5202 10.0312-10.0312v-71c0-5.5111-4.5202-10.0312-10.0312-10.0312h-72z" transform="scale(1 -1)"/>
<path style="opacity:.1;fill:url(#linearGradient3780)" d="m12-94.0312c-4.9716,0-9.0312,4.0596-9.0312,9.0312v71c0,4.9716 4.0596,9.0312 9.0312,9.0312h72c4.9716,0 9.0312-4.0596 9.0312-9.0312v-71c0-4.9716-4.0596-9.0312-9.0312-9.0312h-72z" transform="scale(1 -1)"/>
<path style="opacity:.2;fill:url(#linearGradient3780)" d="m12-93c-4.4091,0-8,3.5909-8,8v71c0,4.4091 3.5909,8 8,8h72c4.4091,0 8-3.5909 8-8v-71c0-4.4091-3.5909-8-8-8h-72z" transform="scale(1 -1)"/>
<path style="opacity:.3;fill:url(#linearGradient3780)" d="m12-92h72a7,7 0 0,1 7,7v71a7,7 0 0,1 -7,7h-72a7,7 0 0,1 -7-7v-71a7,7 0 0,1 7-7" transform="scale(1 -1)"/>
<path style="opacity:.45;fill:url(#linearGradient3721)" d="m12-91h72a6,6 0 0,1 6,6v72a6,6 0 0,1 -6,6h-72a6,6 0 0,1 -6-6v-72a6,6 0 0,1 6-6" transform="scale(1 -1)"/>
<path line-height="normal" style="opacity:.15;color:#000" d="m19,13c-3.2894,0-6,2.7106-6,6v58c0,3.2894 2.7106,6 6,6h58c3.2894,0 6-2.7106 6-6v-58c0-3.2894-2.7106-6-6-6h-58zm0,4 58,0c1.1426,0 2,.8574 2,2v58c0,1.1426-.8574,2-2,2h-58c-1.1426,0-2-.8574-2-2v-58c0-1.1426 .8574-2 2-2z"/>
<path style="fill:url(#radialGradient3205)" d="m13.9936,8.2544h66.2095a5.8528,6.1733 0 0,1 5.8527,6.1733v66.1699a5.8528,6.1733 0 0,1 -5.8527,6.1733h-66.2095a5.8528,6.1733 0 0,1 -5.8527-6.1733v-66.1699a5.8528,6.1733 0 0,1 5.8527-6.1733"/>
<path style="opacity:.08;fill:#d9c6ed" d="m14,8.25c-3.2424,0-5.8438,2.7675-5.8438,6.1875v49.0625c18.8241-13.8589 45.8117-23.7937 77.9062-21.7812v-27.2812c0-3.42-2.6326-6.1875-5.875-6.1875h-66.1875z"/>
<g line-height="125%" style="fill:#fff">
<path d="m36,38 0,4 12,0 0-4-12,0z"/>
<text x="23.236" y="39.059" text-align="start" style="font-family:American Participants;font-weight:bold;font-size:18.69017029px" xml:space="preserve" transform="scale(.9945 1.00553)"><tspan x="23.236" y="39.059">$</tspan>
</text>
</g>
<g style="color:#000">
<path style="opacity:.3" d="m17,14c-1.662,0-3,1.338-3,3v62c0,1.662 1.338,3 3,3h62c1.662,0 3-1.338 3-3v-62c0-1.662-1.338-3-3-3h-62zm0,1.9375 62,0c.6182,0 1.0625,.4443 1.0625,1.0625v62c0,.6182-.4443,1.0625-1.0625,1.0625h-62c-.6182,0-1.0625-.4443-1.0625-1.0625v-62c0-.6182 .4443-1.0625 1.0625-1.0625z"/>
<path style="opacity:.6" d="m17,14c-1.662,0-3,1.338-3,3v62c0,1.662 1.338,3 3,3h62c1.662,0 3-1.338 3-3v-62c0-1.662-1.338-3-3-3h-62zm0,.9688 62,0c1.1401,0 2.0312,.8912 2.0312,2.0312v62c0,1.1401-.8912,2.0312-2.0312,2.0312h-62c-1.1401,0-2.0312-.8912-2.0312-2.0312v-62c0-1.1401 .8912-2.0312 2.0312-2.0312z"/>
</g>
<path style="fill:url(#linearGradient3427)" d="m12,6c-3.324,0-6,2.676-6,6v72c0,3.324 2.676,6 6,6h72c3.324,0 6-2.676 6-6v-72c0-3.324-2.676-6-6-6h-72zm5,7 62,0c2.216,0 4,1.784 4,4v62c0,2.216-1.784,4-4,4h-62c-2.216,0-4-1.784-4-4v-62c0-2.216 1.784-4 4-4z"/>
<path style="opacity:.5;fill:url(#linearGradient3188)" d="m12,6c-3.324,0-6,2.676-6,6v2 68 2c0,.3347 .0413,.6507 .0938,.9688 .0487,.2956 .097,.5969 .1875,.875 .0099,.0304 .0209,.0636 .0312,.0938 .0989,.2878 .2349,.5475 .375,.8125 .1446,.2735 .3156,.5356 .5,.7812 .1844,.2456 .3738,.4735 .5938,.6875 .4399,.4281 .9429,.8145 1.5,1.0938 .2785,.1396 .5735,.2469 .875,.3438-.2562-.1002-.4867-.2363-.7188-.375-.0074-.0044-.0239,.0045-.0312,0-.0319-.0193-.0623-.0425-.0938-.0625-.1204-.0767-.231-.1635-.3438-.25-.1062-.0808-.2133-.1611-.3125-.25-.1779-.1614-.3475-.3454-.5-.5312-.1076-.1303-.2184-.2653-.3125-.4062-.0251-.0384-.0384-.0859-.0625-.125-.0648-.103-.1302-.2045-.1875-.3125-.101-.1947-.2057-.4157-.2812-.625-.008-.0218-.0236-.0405-.0312-.0625-.0318-.0919-.0358-.1868-.0625-.2812-.0303-.1066-.0704-.203-.0938-.3125-.0729-.3415-.125-.6982-.125-1.0625v-2-68-2c0-2.7818 2.2182-5 5-5h2 68 2c2.7818,0 5,2.2182 5,5v2 68 2c0,.3643-.0521,.721-.125,1.0625-.0442,.2069-.0884,.3977-.1562,.5938-.0077,.022-.0233,.0407-.0312,.0625-.0627,.1737-.1384,.3674-.2188,.5312-.0416,.0828-.079,.17-.125,.25-.0546,.0972-.1268,.1883-.1875,.2812-.0941,.141-.2049,.276-.3125,.4062-.1432,.1744-.3031,.347-.4688,.5-.0112,.0102-.02,.0212-.0312,.0312-.1384,.1256-.2851,.2344-.4375,.3438-.1026,.0731-.2043,.1534-.3125,.2188-.0074,.0045-.0238-.0044-.0312,0-.232,.1387-.4625,.2748-.7188,.375 .3015-.0968 .5965-.2041 .875-.3438 .5571-.2792 1.0601-.6657 1.5-1.0938 .22-.214 .4094-.4419 .5938-.6875 .1844-.2456 .3554-.5077 .5-.7812 .1401-.265 .2761-.5247 .375-.8125 .0104-.0308 .0213-.0627 .0312-.0938 .0905-.2781 .1388-.5794 .1875-.875 .0524-.318 .0938-.634 .0938-.9688v-2-68-2c0-3.324-2.676-6-6-6h-72z"/>
<path style="fill:url(#linearGradient3279)" d="m17,12c-2.7527,0-5,2.2473-5,5v62c0,2.7527 2.2473,5 5,5h62c2.7527,0 5-2.2473 5-5v-62c0-2.7527-2.2473-5-5-5h-62zm0,2 62,0c1.6793,0 3,1.3207 3,3v62c0,1.6793-1.3207,3-3,3h-62c-1.6793,0-3-1.3207-3-3v-62c0-1.6793 1.3207-3 3-3z"/>
<path style="opacity:.4;fill:url(#radialGradient2874)" d="m12,90c-3.324,0-6-2.676-6-6v-2-68-2c0-.3347 .0413-.6507 .0938-.9688 .0487-.2956 .097-.5969 .1875-.875 .0099-.0304 .0209-.0636 .0312-.0938 .0989-.2878 .2349-.5475 .375-.8125 .1446-.2735 .3156-.5356 .5-.7812 .1844-.2456 .3738-.4735 .5938-.6875 .4399-.4281 .9429-.8145 1.5-1.0938 .2785-.1396 .5735-.2469 .875-.3438-.2562,.1002-.4867,.2363-.7188,.375-.0074,.0044-.0239-.0045-.0312,0-.0319,.0193-.0623,.0425-.0938,.0625-.1204,.0767-.231,.1635-.3438,.25-.1062,.0808-.2133,.1611-.3125,.25-.1779,.1614-.3475,.3454-.5,.5312-.1076,.1303-.2184,.2653-.3125,.4062-.0251,.0384-.0384,.0859-.0625,.125-.0648,.103-.1302,.2045-.1875,.3125-.101,.1947-.2057,.4157-.2812,.625-.008,.0218-.0236,.0405-.0312,.0625-.0318,.092-.0358,.1868-.0625,.2812-.0303,.1066-.0704,.203-.0938,.3125-.0729,.3415-.125,.6982-.125,1.0625v2 68 2c0,2.7818 2.2182,5 5,5h2 68 2c2.7818,0 5-2.2182 5-5v-2-68-2c0-.3643-.0521-.721-.125-1.0625-.0442-.2069-.0884-.3977-.1562-.5938-.0077-.022-.0233-.0407-.0312-.0625-.0627-.1737-.1384-.3674-.2188-.5312-.0416-.0828-.079-.17-.125-.25-.0546-.0972-.1268-.1883-.1875-.2812-.0941-.141-.2049-.276-.3125-.4062-.1432-.1745-.3031-.347-.4688-.5-.0112-.0102-.02-.0211-.0312-.0312-.1384-.1256-.2851-.2344-.4375-.3438-.1026-.0732-.2043-.1534-.3125-.2188-.0074-.0045-.0238,.0044-.0312,0-.232-.1387-.4625-.2748-.7188-.375 .3015,.0968 .5965,.2041 .875,.3438 .5571,.2792 1.0601,.6657 1.5,1.0938 .22,.214 .4094,.4419 .5938,.6875 .1844,.2456 .3554,.5077 .5,.7812 .1401,.265 .2761,.5247 .375,.8125 .0104,.0308 .0213,.0627 .0312,.0938 .0905,.2781 .1388,.5794 .1875,.875 .0524,.318 .0938,.634 .0938,.9688v2 68 2c0,3.324-2.676,6-6,6h-72z"/>
<path style="opacity:.1;fill:url(#linearGradient2908);filter:url(#filter3794);stroke:#fff;stroke-linecap:round;stroke-width:.5;clip-path:url(#clipPath3613)" d="m27,15h42a12,12 0 0,1 12,12v42a12,12 0 0,1 -12,12h-42a12,12 0 0,1 -12-12v-42a12,12 0 0,1 12-12"/>
</svg>
