<svg width="96" version="1.0" xmlns="http://www.w3.org/2000/svg" height="96" xmlns:xlink="http://www.w3.org/1999/xlink">
<defs id="defs2410">
<clipPath id="clipPath3613">
<rect width="84" x="6" y="6" rx="6" height="84" ry="6" style="fill:#fff;stroke:none" id="rect3615"/>
</clipPath>
<clipPath id="clipPath3800">
<path style="fill:url(#linearGradient3804);stroke:none" id="path3802" d="m 62,6 c -3.324,0 -6,2.676 -6,6 l 0,0.53125 C 56,8.9207 58.9207,6 62.53125,6 L 62,6 z m 71.46875,0 C 137.0793,6 140,8.9207 140,12.53125 L 140,12 c 0,-3.324 -2.676,-6 -6,-6 l -0.53125,0 z M 140,12.53125 c 0,36.73465 -3.54263,60.10471 -7.84375,69.9375 C 121.33994,87.4996 96.479512,90 62.53125,90 L 134,90 c 3.324,0 6,-2.676 6,-6 l 0,-71.46875 z M 62.53125,90 C 58.9207,89.9945 56,87.0793 56,83.46875 L 56,84 c 0,3.324 2.676,6 6,6 l 0.53125,0 z"/>
</clipPath>
<filter style="color-interpolation-filters:sRGB" id="filter3263">
<feGaussianBlur stdDeviation="1.5967586" id="feGaussianBlur3265"/>
</filter>
<filter width="1.3839999" x="-0.192" y="-0.192" height="1.3839999" style="color-interpolation-filters:sRGB" id="filter3794">
<feGaussianBlur stdDeviation="5.28" id="feGaussianBlur3796"/>
</filter>
<filter style="color-interpolation-filters:sRGB" id="filter3810">
<feGaussianBlur stdDeviation="1.2600071" id="feGaussianBlur3812"/>
</filter>
<filter style="color-interpolation-filters:sRGB" id="filter3174">
<feGaussianBlur stdDeviation="1.71" id="feGaussianBlur3176"/>
</filter>
<linearGradient id="linearGradient3825" xlink:href="#linearGradient3737" y1="82.290176" x1="82.08036" y2="59.821404" x2="59.611588" gradientUnits="userSpaceOnUse"/>
<linearGradient gradientTransform="translate(50,0)" id="linearGradient3804" xlink:href="#ButtonColor" y1="90" x1="48" y2="5.9877172" x2="48" gradientUnits="userSpaceOnUse"/>
<linearGradient gradientTransform="matrix(1.0058652,0,0,0.994169,100,0)" id="ButtonShadow-0" y1="92.539597" x1="45.447727" y2="7.0165396" x2="45.447727" gradientUnits="userSpaceOnUse">
<stop offset="0" id="stop3750-8"/>
<stop offset="1" style="stop-opacity:.588" id="stop3752-5"/>
</linearGradient>
<linearGradient gradientTransform="translate(0,-97)" id="linearGradient3721" xlink:href="#ButtonShadow-0" y1="6.1317081" x1="32.251034" y2="90.238609" x2="32.251034" gradientUnits="userSpaceOnUse"/>
<linearGradient gradientTransform="matrix(1.0238095,0,0,1.0119048,-1.1428571,-98.071429)" id="linearGradient3725" xlink:href="#ButtonShadow-0" y1="6.1317081" x1="32.251034" y2="90.238609" x2="32.251034" gradientUnits="userSpaceOnUse"/>
<linearGradient gradientTransform="matrix(1.0238095,0,0,1.0119048,-1.1428571,-98.071429)" id="linearGradient3780" xlink:href="#ButtonShadow-0" y1="6.1317081" x1="32.251034" y2="90.238609" x2="32.251034" gradientUnits="userSpaceOnUse"/>
<linearGradient gradientTransform="matrix(1.0238095,0,0,1.0119048,-1.1428571,-98.071429)" id="linearGradient3772" xlink:href="#ButtonShadow-0" y1="6.1317081" x1="32.251034" y2="90.238609" x2="32.251034" gradientUnits="userSpaceOnUse"/>
<linearGradient id="linearGradient3766">
<stop offset="0" style="stop-color:#e7ba26;stop-opacity:0" id="stop3768"/>
<stop offset="0.4841198" style="stop-color:#e9ab2c;stop-opacity:.831" id="stop3770"/>
<stop offset="0.69662797" style="stop-color:#eaa82e" id="stop3772"/>
<stop offset="0.842659" style="stop-color:#ebba3f" id="stop3774"/>
<stop offset="1" style="stop-color:#f3e38c" id="stop3776"/>
</linearGradient>
<linearGradient gradientTransform="translate(0,110)" id="linearGradient3783" xlink:href="#ButtonColor" y1="90" x1="48" y2="5.9877172" x2="48" gradientUnits="userSpaceOnUse"/>
<linearGradient id="linearGradient3188" xlink:href="#linearGradient3737" y1="6" x1="36.357143" y2="63.893143" x2="36.357143" gradientUnits="userSpaceOnUse"/>
<linearGradient gradientTransform="scale(1.0058652,0.994169)" id="ButtonShadow" y1="92.539597" x1="45.447727" y2="7.0165396" x2="45.447727" gradientUnits="userSpaceOnUse">
<stop offset="0" id="stop3750"/>
<stop offset="1" style="stop-opacity:.588" id="stop3752"/>
</linearGradient>
<linearGradient id="linearGradient3737">
<stop offset="0" style="stop-color:#fff" id="stop3739"/>
<stop offset="1" style="stop-color:#fff;stop-opacity:0" id="stop3741"/>
</linearGradient>
<linearGradient id="linearGradient3613" xlink:href="#linearGradient3737" y1="20.220806" x1="48" y2="138.66119" x2="48" gradientUnits="userSpaceOnUse"/>
<linearGradient gradientTransform="matrix(1.0238095,0,0,1.0119048,-1.1428571,-98.071429)" id="linearGradient3020" xlink:href="#ButtonShadow-0" y1="6.1317081" x1="32.251034" y2="90.238609" x2="32.251034" gradientUnits="userSpaceOnUse"/>
<linearGradient gradientTransform="matrix(1.0172414,0,0,1.0172414,-1.1034483,-1.1034483)" id="ButtonColor" y1="122" x1="58.650177" y2="5.4252338" x2="58.650177" gradientUnits="userSpaceOnUse">
<stop offset="0" style="stop-color:#e4b31e" id="stop3189"/>
<stop offset="1" style="stop-color:#ffef64" id="stop3191"/>
</linearGradient>
<linearGradient gradientTransform="matrix(0.71186441,0,0,0.71186441,2.44068,2.440678)" id="linearGradient3185" xlink:href="#linearGradient3766" y1="44.471016" x1="59.387539" y2="112.4099" x2="110.98586" gradientUnits="userSpaceOnUse"/>
<linearGradient id="linearGradient3617" xlink:href="#ButtonColor" y1="90" x1="48" y2="5.9877172" x2="48" gradientUnits="userSpaceOnUse"/>
<radialGradient fx="48" fy="90.171875" cx="48" cy="90.171875" gradientTransform="matrix(1.1573129,0,0,0.99590774,-7.5510206,0.19713193)" r="42" id="radialGradient3619" xlink:href="#linearGradient3737" gradientUnits="userSpaceOnUse"/>
</defs>
<g style="display:none" id="layer2">
<rect width="86" x="5" y="7" rx="6" height="85" ry="6" style="opacity:.9;fill:url(#ButtonShadow);filter:url(#filter3174);stroke:none" id="rect3745"/>
</g>
<g style="stroke:none" id="layer3">
<path style="opacity:.08;fill:url(#linearGradient3020)" id="path3786" d="m 12,-95.0312 c -5.51109,0 -10.0312,4.52016 -10.0312,10.0312 v 71 c 0,5.51109 4.52016,10.0312 10.0312,10.0312 h 72 c 5.51109,0 10.0312,-4.52016 10.0312,-10.0312 v -71 c 0,-5.51109 -4.52016,-10.0312 -10.0312,-10.0312 h -72 z " transform="scale(1,-1)"/>
<path style="opacity:.1;fill:url(#linearGradient3780)" id="path3778" d="m 12,-94.0312 c -4.97163,0 -9.03125,4.05962 -9.03125,9.03125 v 71 c 0,4.97163 4.05962,9.03125 9.03125,9.03125 h 72 c 4.97163,0 9.03125,-4.05962 9.03125,-9.03125 v -71 c 0,-4.97163 -4.05962,-9.03125 -9.03125,-9.03125 h -72 z " transform="scale(1,-1)"/>
<path style="opacity:.2;fill:url(#linearGradient3772)" id="path3770" d="m 12,-93 c -4.40913,0 -8,3.59087 -8,8 v 71 c 0,4.40913 3.59087,8 8,8 h 72 c 4.40913,0 8,-3.59087 8,-8 v -71 c 0,-4.40913 -3.59087,-8 -8,-8 h -72 z " transform="scale(1,-1)"/>
<rect width="86" x="5" y="-92" rx="7" height="85" ry="7" style="opacity:.3;fill:url(#linearGradient3725)" id="rect3723" transform="scale(1,-1)"/>
<rect width="84" x="6" y="-91" rx="6" height="84" ry="6" style="opacity:.45;fill:url(#linearGradient3721)" id="rect3716" transform="scale(1,-1)"/>
</g>
<g style="stroke:none" id="layer1">
<path style="opacity:.2" id="path3833" d="m 189.9688,19.2812 c -0.40529,32.8535 -3.78151,53.9723 -7.8125,63.1875 -10.1403,4.71642 -32.6286,7.20522 -63.375,7.5 31.143,-0.03671 56.9791,-0.434437 66.7812,-4.3125 3.02403,-9.87544 4.25911,-33.2922 4.40625,-66.375 z "/>
<rect width="84" x="6" y="6" rx="6" height="84" ry="6" style="fill:url(#linearGradient3617)" id="rect2419"/>
<path style="opacity:.2;fill:url(#radialGradient3619)" id="path3615" d="M 12,90 C 8.676,90 6,87.324 6,84 L 6,82 6,14 6,12 c 0,-0.334721 0.04135,-0.6507 0.09375,-0.96875 0.0487,-0.295596 0.09704,-0.596915 0.1875,-0.875 C 6.29113,10.12587 6.302142,10.09265 6.3125,10.0625 6.411365,9.774729 6.5473802,9.515048 6.6875,9.25 6.8320918,8.976493 7.0031161,8.714385 7.1875,8.46875 7.3718839,8.223115 7.5612765,7.995278 7.78125,7.78125 8.221197,7.353194 8.72416,6.966724 9.28125,6.6875 9.559795,6.547888 9.8547231,6.440553 10.15625,6.34375 9.9000482,6.443972 9.6695391,6.580022 9.4375,6.71875 c -0.00741,0.0044 -0.023866,-0.0045 -0.03125,0 -0.031933,0.0193 -0.062293,0.04251 -0.09375,0.0625 -0.120395,0.0767 -0.2310226,0.163513 -0.34375,0.25 -0.1061728,0.0808 -0.2132809,0.161112 -0.3125,0.25 C 8.4783201,7.442683 8.3087904,7.626638 8.15625,7.8125 8.0486711,7.942755 7.9378561,8.077785 7.84375,8.21875 7.818661,8.25713 7.805304,8.30462 7.78125,8.34375 7.716487,8.446782 7.6510225,8.548267 7.59375,8.65625 7.4927417,8.850956 7.3880752,9.071951 7.3125,9.28125 7.30454,9.30306 7.288911,9.3218 7.28125,9.34375 7.2494249,9.4357 7.2454455,9.530581 7.21875,9.625 7.1884177,9.731618 7.1483606,9.828031 7.125,9.9375 7.0521214,10.279012 7,10.635705 7,11 l 0,2 0,68 0,2 c 0,2.781848 2.2181517,5 5,5 l 2,0 68,0 2,0 c 2.781848,0 5,-2.218152 5,-5 l 0,-2 0,-68 0,-2 C 89,10.635705 88.94788,10.279012 88.875,9.9375 88.83085,9.730607 88.78662,9.539842 88.71875,9.34375 88.71105,9.3218 88.69545,9.30306 88.6875,9.28125 88.62476,9.107511 88.549117,8.913801 88.46875,8.75 88.42717,8.6672 88.38971,8.580046 88.34375,8.5 88.28915,8.40279 88.216976,8.31165 88.15625,8.21875 88.06214,8.077785 87.951329,7.942755 87.84375,7.8125 87.700576,7.63805 87.540609,7.465502 87.375,7.3125 87.36383,7.3023 87.35502,7.29135 87.34375,7.28125 87.205364,7.155694 87.058659,7.046814 86.90625,6.9375 86.803679,6.86435 86.701932,6.784136 86.59375,6.71875 c -0.0074,-0.0045 -0.02384,0.0044 -0.03125,0 -0.232039,-0.138728 -0.462548,-0.274778 -0.71875,-0.375 0.301527,0.0968 0.596455,0.204138 0.875,0.34375 0.55709,0.279224 1.060053,0.665694 1.5,1.09375 0.219973,0.214028 0.409366,0.441865 0.59375,0.6875 0.184384,0.245635 0.355408,0.507743 0.5,0.78125 0.14012,0.265048 0.276135,0.524729 0.375,0.8125 0.01041,0.03078 0.02133,0.06274 0.03125,0.09375 0.09046,0.278085 0.1388,0.579404 0.1875,0.875 C 89.95865,11.3493 90,11.665279 90,12 l 0,2 0,68 0,2 c 0,3.324 -2.676,6 -6,6 l -72,0 z"/>
<path style="opacity:.5;fill:#a14b09;filter:url(#filter3810);clip-path:url(#clipPath3800)" id="path3785" d="M 62.51724,6 C 58.90669,6 56,8.90669 56,12.517241 l 0,70.965519 c 0,3.610548 2.90669,6.511737 6.51724,6.51724 33.948262,0 61.15737,0.163148 73.40225,-3.796268 C 139.14918,76.192373 140,49.251888 140,12.517241 140,8.90669 137.09331,6 133.48276,6 L 62.51724,6 z" transform="translate(-50,0)"/>
<path style="opacity:.35;fill:#fff" id="rect3839" d="M 12,6 C 8.676,6 6,8.676 6,12 l 0,6 84,0 0,-6 C 90,8.676 87.324,6 84,6 L 12,6 z"/>
<path style="fill:url(#linearGradient3185)" id="path3177" d="M 12.51724,6 C 8.90669,6 6,8.90669 6,12.517241 L 6,83.48276 C 6,87.093308 8.90669,89.994497 12.51724,90 46.465502,90 71.353177,87.484577 82.169492,82.453732 86.470605,72.620944 90,49.251888 90,12.517241 90,8.90669 87.093308,6 83.48276,6 L 12.51724,6 z"/>
<path style="opacity:.6;fill:#a14b09;filter:url(#filter3263)" id="path3233" d="m -18.646,-8.4761 c -0.54916,48.6146 -9.3668,76.3093 -15.2188,89.6875 -15.1944,7.06714 -45.9045,14.3438 -93.5938,14.3438 47.6892,0 87.243,1.06703 102.437,-6.00011 5.85011,-13.374 6.07391,-49.2217 6.37511,-98.0311 z "/>
<path style="opacity:.9;fill:#22225e;font-family:JaneAusten;text-align:start;line-height:100%;font-size:27.92438889px" id="text2443" d="m 12.519,46.9148 c 0.0293,-0.439798 0.11361,-0.762318 0.25288,-0.967565 0.13927,-0.205235 0.43246,-0.45812 0.87961,-0.758657 0.44712,-0.300525 0.93457,-0.42147 1.46234,-0.362836 0.527753,0.05865 0.601053,0.355512 0.2199,0.890598 -0.38117,0.535097 -0.56442,1.06286 -0.54976,1.58329 0.0147,0.520435 0.2932,0.894266 0.835623,1.12149 0.542415,0.227234 1.13249,0.186919 1.7702,-0.120944 0.637706,-0.307859 1.3817,-0.765985 2.232,-1.37438 0.85027,-0.608387 1.70789,-1.37804 2.57284,-2.30896 0.864931,-0.930905 1.6016,-1.85815 2.21,-2.78175 0.608378,-0.923574 1.09582,-1.78485 1.46234,-2.58383 0.366485,-0.798961 0.593716,-1.58694 0.681692,-2.36393 0.08794,-0.776967 -0.157612,-1.50997 -0.736668,-2.19901 -0.579087,-0.689006 -0.879617,-1.26808 -0.901593,-1.73721 -0.02201,-0.469104 0.245542,-0.923566 0.802638,-1.36339 0.996868,1.9e-05 1.68955,0.29322 2.07806,0.879603 0.388475,0.586421 0.740315,1.18748 1.05552,1.80319 0.315173,0.615738 0.586384,1.24245 0.813634,1.88015 0.227211,0.637727 0.465437,1.2168 0.714677,1.73721 0.249201,0.520446 0.432451,1.05554 0.549752,1.60528 0.11726,0.549762 0.304176,1.13616 0.560748,1.75921 0.256529,0.623062 0.476429,1.2791 0.659702,1.96811 0.183228,0.689031 0.480094,0.722015 0.890598,0.09896 0.410458,-0.623044 1.05917,-1.40736 1.94612,-2.35294 0.886907,-0.945563 1.65656,-1.74453 2.30896,-2.39692 0.652345,-0.652359 1.38168,-1.30107 2.18801,-1.94612 0.806273,-0.645028 1.62724,-1.2241 2.46289,-1.73722 0.835591,-0.513086 1.7665,-0.974876 2.79274,-1.38537 1.02617,-0.410464 1.94242,-0.608374 2.74876,-0.593733 0.806266,0.01468 1.56126,0.142954 2.26498,0.384827 0.703643,0.241908 1.28271,0.520449 1.73722,0.835623 0.45442,0.315208 0.820921,0.707364 1.0995,1.17647 0.278498,0.469137 0.432429,1.2901 0.461791,2.46289 -0.219943,0.498454 -0.487488,0.725685 -0.802637,0.681693 -0.315233,-0.04396 -0.494819,-0.388479 -0.538757,-1.03353 -0.04402,-0.645029 -0.282247,-1.17645 -0.714678,-1.59428 -0.432511,-0.417795 -0.864983,-0.721992 -1.29742,-0.912588 -0.43251,-0.190565 -1.00059,-0.344495 -1.70423,-0.461792 -0.703719,-0.117264 -1.39641,-0.06228 -2.07806,0.164925 -0.681727,0.227247 -1.41839,0.586419 -2.21,1.07751 -0.791675,0.491126 -1.71526,1.09585 -2.77075,1.81418 -1.05555,0.718356 -2.07809,1.57963 -3.06762,2.58383 -0.989581,1.00422 -1.80321,1.9388 -2.4409,2.80374 -0.637737,0.86495 -1.20215,1.69691 -1.69324,2.49587 -0.491134,0.798978 -0.850305,1.64926 -1.07751,2.55085 -0.227254,0.901595 -0.513124,1.76287 -0.857614,2.58383 -0.344532,0.820963 -0.780668,1.45135 -1.30841,1.89115 -0.791662,-0.117282 -1.20581,-0.355507 -1.24244,-0.714678 -0.03667,-0.359171 0.06962,-0.765987 0.318856,-1.22045 0.249201,-0.454461 0.461772,-1.02987 0.637713,-1.72622 0.175899,-0.696349 0.27852,-1.41836 0.307859,-2.16602 0.0293,-0.747658 -0.08065,-1.51364 -0.32985,-2.29796 -0.24924,-0.784305 -0.487467,-1.44401 -0.714678,-1.97911 -0.227249,-0.535082 -0.476469,-0.978548 -0.747663,-1.3304 -0.271229,-0.351831 -0.560765,-0.340836 -0.868608,0.03298 -0.307878,0.373842 -0.751344,0.934588 -1.3304,1.68224 -0.579087,0.74767 -1.29743,1.54298 -2.15503,2.38592 -0.857626,0.842959 -1.97912,1.79586 -3.36448,2.85871 -1.38539,1.06286 -2.63882,1.77387 -3.76031,2.13304 -1.1215,0.359171 -2.03409,0.432472 -2.73776,0.2199 -0.70368,-0.212566 -1.1838,-0.568072 -1.44035,-1.06652 -0.25655,-0.49844 -0.43614,-1.26809 -0.53875,-2.30896 m 26.0802,2.0011 c 0.234559,0.351843 0.524095,0.535094 0.868609,0.549752 0.344507,0.01466 0.670694,-0.08063 0.978558,-0.285871 0.307857,-0.205238 0.670693,-0.399484 1.08851,-0.582736 0.417806,-0.183248 0.824622,-0.410479 1.22045,-0.681693 0.395814,-0.271208 0.593725,-0.612053 0.593731,-1.02254 -6e-06,-0.410478 -0.153936,-0.729333 -0.461791,-0.95657 -0.307867,-0.227225 -0.436142,-0.51676 -0.384826,-0.868607 0.0513,-0.351836 0.212564,-0.593726 0.483782,-0.725673 0.271203,-0.131934 0.722,-0.205234 1.35239,-0.219901 0.659694,0.131948 1.06285,0.461798 1.20945,0.989554 0.146592,0.527767 0.135597,1.01888 -0.03298,1.47333 -0.168599,0.454466 0.0403,0.864947 0.626718,1.23145 0.586392,0.366504 1.11049,0.487449 1.57229,0.362836 0.461779,-0.124607 0.721995,0.01833 0.780647,0.428807 -0.07331,0.439803 -0.194257,0.703684 -0.362836,0.791642 -0.168602,0.08796 -0.509448,0.168593 -1.02254,0.241891 -0.513111,0.0733 -1.12883,-0.08429 -1.84717,-0.472787 -0.718351,-0.388489 -1.23145,-0.465454 -1.53931,-0.230896 -0.307868,0.234564 -0.769659,0.538759 -1.38538,0.912589 -0.615728,0.373832 -1.22045,0.670698 -1.81418,0.890598 -0.593736,0.219901 -1.27176,0.329852 -2.03408,0.329852 -0.703684,-0.234561 -1.20213,-0.597397 -1.49533,-1.08851 -0.293202,-0.49111 -0.439802,-1.02987 -0.439802,-1.61627 0.0733,-0.410479 0.377496,-0.861275 0.912588,-1.35239 0.535091,-0.491107 1.04819,-0.901589 1.53931,-1.23145 0.491109,-0.329846 0.98955,-0.571736 1.49533,-0.725673 0.505767,-0.153924 0.864937,-0.131934 1.07751,0.06597 0.212566,0.197916 0.351836,0.439806 0.417812,0.725673 0.06596,0.285876 0.03664,0.516771 -0.08796,0.692687 -0.124615,0.175925 -0.307866,0.293205 -0.549752,0.351842 -0.241895,0.05864 -0.575411,0.135609 -1.00055,0.230895 -0.425145,0.09529 -0.883272,0.329855 -1.37438,0.703683 -0.491114,0.373834 -0.619389,0.73667 -0.384827,1.08851 m 9.4557,-.3299 c 0.146601,-0.395819 0.348176,-0.81363 0.604728,-1.25344 0.256549,-0.439797 0.846616,-1.07751 1.7702,-1.91314 0.92358,-0.835617 1.60527,-1.58328 2.04508,-2.24299 -0.674366,0.08797 -1.12516,0.135613 -1.35239,0.142935 -0.227235,0.0073 -0.36284,-0.128268 -0.406817,-0.406816 -0.04398,-0.278533 0.02199,-0.483774 0.19791,-0.615723 0.175918,-0.131931 0.520429,-0.230887 1.03353,-0.296866 0.513097,-0.06596 1.04819,-0.150256 1.60528,-0.252886 0.982216,-0.923572 1.78485,-1.6639 2.40791,-2.221 0.623043,-0.557069 1.29008,-1.15813 2.0011,-1.80319 0.711002,-0.645028 1.38536,-1.18378 2.02309,-1.61627 0.637699,-0.432456 1.19112,-0.656022 1.66025,-0.670697 0.278526,0.366516 0.01831,0.905273 -0.780648,1.61627 -0.798985,0.711026 -1.43303,1.30109 -1.90214,1.7702 -0.469133,0.469133 -0.919928,0.91993 -1.35239,1.35239 -0.432481,0.432482 -0.927257,0.949248 -1.48433,1.5503 0.718334,-0.08795 1.79218,-0.212562 3.22155,-0.373832 1.42934,-0.161251 2.89168,-0.311516 4.38702,-0.450796 1.49531,-0.139261 3.00163,-0.260206 4.51896,-0.362837 1.51729,-0.10261 3.00529,-0.16858 4.46399,-0.197911 1.45865,-0.02931 2.97596,-0.02564 4.55194,0.011 1.57593,0.03666 2.85868,0.102632 3.84827,0.197911 0.989517,0.0953 1.77749,0.399497 2.36393,0.912589 -0.601097,0.190589 -1.15085,0.252895 -1.64925,0.186915 -0.498474,-0.06596 -1.03357,-0.117271 -1.60527,-0.153931 -0.571776,-0.03664 -1.25713,-0.04397 -2.05608,-0.02199 -0.798998,0.022 -1.76656,0.05132 -2.90269,0.08796 -1.13618,0.03666 -2.3493,0.06232 -3.63936,0.07696 -1.29011,0.01467 -2.59852,0.07698 -3.92523,0.186916 -1.32675,0.10996 -2.58752,0.22724 -3.78229,0.351842 -1.19481,0.124618 -2.43725,0.238233 -3.72732,0.340845 -1.2901,0.102629 -2.20635,0.172264 -2.74876,0.208906 -0.542431,0.03666 -0.989562,0.07698 -1.34139,0.120946 -0.351849,0.04399 -0.641385,0.120954 -0.868607,0.230895 -0.227239,0.109959 -0.469129,0.274884 -0.725673,0.494777 -0.256557,0.219908 -0.575414,0.524105 -0.956568,0.912588 -0.381168,0.388498 -0.831964,0.89427 -1.35239,1.51732 -0.520436,0.623057 -0.982226,1.15815 -1.38537,1.60528 -0.403155,0.447135 -0.692691,0.864945 -0.868609,1.25344 -0.175923,0.388492 -0.197913,0.733003 -0.06597,1.03353 0.131937,0.300532 0.381158,0.483782 0.747662,0.549752 0.366498,0.06597 1.07018,-0.08063 2.11105,-0.439801 1.04086,-0.35917 1.78119,-0.678026 2.221,-0.956569 0.439794,-0.278538 0.773309,-0.454459 1.00055,-0.527762 0.227222,-0.0733 0.403143,-0.02565 0.527762,0.142935 0.124602,0.168593 -0.05499,0.458128 -0.538757,0.868609 -0.48379,0.410483 -0.91626,0.725673 -1.29742,0.945573 -0.381167,0.219902 -0.817304,0.425142 -1.30841,0.615723 -0.491117,0.19058 -1.04453,0.329851 -1.66025,0.417811 -0.395826,0.05864 -0.769657,0.08796 -1.12149,0.08796 -0.219904,-1e-06 -0.432475,-0.0073 -0.637713,-0.02199 -0.557084,-0.05864 -0.993219,-0.186917 -1.30841,-0.384827 -0.315192,-0.197911 -0.524098,-0.458127 -0.626718,-0.780648 -0.117281,-0.2932 -0.17592,-0.557081 -0.17592,-0.791642 0,-0.01466 0.0073,-0.03665 0.02199,-0.06597 0,-0.249219 0.0733,-0.57174 0.219901,-0.967563 m 9.7856,-1.0995 c 0.894261,-0.293197 1.49166,-0.571737 1.79219,-0.835622 0.300527,-0.263877 0.428802,-0.505767 0.384826,-0.725673 -0.04399,-0.219896 -0.293205,-0.212566 -0.747663,0.02199 -0.454465,0.234567 -0.76599,0.472792 -0.934578,0.714679 -0.168593,0.241895 -0.333518,0.51677 -0.494777,0.824627 m -1.9351,1.4513 c 0,-0.762319 0.09529,-1.34872 0.285871,-1.75921 0.19058,-0.410477 0.502106,-0.835618 0.934578,-1.27542 0.43247,-0.439797 0.864942,-0.820958 1.29742,-1.14348 0.432469,-0.322514 0.875935,-0.542415 1.3304,-0.659702 l .5058,-.022 c 0.454456,0.01467 0.850277,0.139277 1.18746,0.373831 0.337176,0.234567 0.480111,0.648713 0.428807,1.24244 -0.05132,0.593738 -0.344517,1.10684 -0.879604,1.53931 -0.535096,0.432476 -1.13982,0.744001 -1.81418,0.934578 -0.674364,0.190584 -1.0372,0.36284 -1.08851,0.516767 -0.05131,0.153933 0.05864,0.322524 0.329851,0.505772 0.271208,0.183253 0.8796,0.300533 1.82518,0.351842 0.945568,0.05131 1.71889,2e-06 2.31995,-0.153931 0.601055,-0.153929 1.0885,-0.318854 1.46234,-0.494777 0.373822,-0.175918 0.667023,-0.293198 0.879602,-0.351841 0.212562,-0.05864 0.384818,0.05131 0.516767,0.329852 -0.38117,0.542423 -0.798981,0.941909 -1.25343,1.19846 -0.454469,0.256552 -1.02255,0.487447 -1.70423,0.692687 -0.681698,0.205241 -1.51366,0.329852 -2.49587,0.373831 h -0.593731 c -1.07019,-0.10262 -1.79219,-0.245555 -2.16602,-0.428806 -0.373831,-0.18325 -0.663368,-0.399485 -0.868607,-0.648707 -0.205241,-0.24922 -0.351842,-0.623051 -0.439802,-1.1215 m 9.9725,.1979 c 0.153929,0.425143 0.4398,0.604728 0.857613,0.538756 0.417809,-0.06597 0.79897,-0.208904 1.14348,-0.428806 0.351836,-0.227229 0.707343,-0.560745 1.06652,-1.00055 0.359167,-0.447128 0.516762,-0.751324 0.472787,-0.912588 -0.864947,0.630385 -1.54664,1.0482 -2.04508,1.25344 -0.491115,0.205243 -0.989556,0.388493 -1.49533,0.549752 m -2.21,-.9896 c 0.01466,-0.469118 0.06231,-0.828289 0.142935,-1.07751 0.08063,-0.249217 0.216237,-0.417807 0.406817,-0.505772 0.190581,-0.08796 0.432471,-0.117276 0.725672,-0.08796 0.293201,0.02933 0.513101,0.524101 0.659703,1.48433 0.61572,-0.117277 1.14715,-0.289532 1.59428,-0.516767 0.44713,-0.227227 0.87227,-0.443463 1.27542,-0.648707 0.403147,-0.212567 0.875934,-0.436132 1.41836,-0.670697 0.542417,-0.234556 1.04819,-0.491107 1.51732,-0.769653 0.469114,-0.285866 0.820955,-0.564406 1.05552,-0.835624 0.234553,-0.278533 0.410473,-0.557075 0.527762,-0.835623 0.117272,-0.285863 0.315182,-0.461783 0.593732,-0.527761 0.329841,0.0073 0.571732,0.07697 0.725672,0.208905 0.153921,0.124619 0.249211,0.421484 0.285871,0.890598 -0.01467,0.205248 -0.06598,0.406824 -0.15393,0.604728 -0.08797,0.197916 -0.282216,0.436142 -0.582737,0.714677 -0.29321,0.271216 -0.608401,0.494782 -0.945574,0.670698 -0.329859,0.168595 -0.700025,0.3775 -1.1105,0.626717 -0.403159,0.249225 -0.809975,0.582741 -1.22045,1.00055 -0.403157,0.417814 -0.696358,0.82463 -0.879603,1.22045 -0.175926,0.388493 -0.359176,0.743999 -0.549752,1.06652 -0.190585,0.315192 -0.480121,0.575407 -0.868608,0.780648 -0.388495,0.19791 -0.989557,0.322521 -1.80319,0.373831 -0.542423,-0.01466 -0.967564,-0.08429 -1.27542,-0.208905 -0.307861,-0.124611 -0.630382,-0.494777 -0.967563,-1.1105 -0.337181,-0.61572 -0.527761,-1.23144 -0.571742,-1.84717"/>
<rect width="84" x="6" y="116" rx="6" height="84" ry="6" style="fill:url(#linearGradient3783)" id="rect3781"/>
<path style="opacity:.3;fill:url(#linearGradient3825)" id="path3814" d="m 87.5625,7.4375 c 0.895036,1.11563 1.4375,2.54573 1.4375,4.09375 0,36.7346 -3.54264,60.1047 -7.84375,69.9375 -10.8163,5.03084 -35.6767,7.53125 -69.625,7.53125 -1.54802,-0.002359 -2.97812,-0.542849 -4.09375,-1.4375 1.19251,1.48546 3.03122,2.43436 5.09375,2.4375 33.9483,0 58.8087,-2.50041 69.625,-7.53125 4.30111,-9.83279 7.84375,-33.2029 7.84375,-69.9375 0,-2.06253 -0.951078,-3.90124 -2.4375,-5.09375 z "/>
<path style="opacity:.2;fill:#520" id="path3831" d="m 89.9688,19.2812 c -0.40529,32.8535 -3.78151,53.9723 -7.8125,63.1875 -10.1403,4.71642 -32.6286,7.20522 -63.375,7.5 30.8652,-0.09992 54.6808,-1.00632 64.8125,-5.71875 4.0323,-9.21824 6.12845,-31.9007 6.375,-64.9688 z "/>
<path style="opacity:.6;fill:url(#linearGradient3188)" id="rect3728" d="m 12,6 c -3.324,0 -6,2.676 -6,6 v 2 68 2 c 0,0.334721 0.04135,0.6507 0.09375,0.96875 0.0487,0.295596 0.09704,0.596915 0.1875,0.875 0.00988,0.03038 0.020892,0.0636 0.03125,0.09375 0.098865,0.287771 0.23488,0.547452 0.375,0.8125 0.144592,0.273507 0.315616,0.535615 0.5,0.78125 0.184384,0.245635 0.373776,0.473472 0.59375,0.6875 0.439947,0.428056 0.94291,0.814526 1.5,1.09375 0.278545,0.139612 0.573473,0.246947 0.875,0.34375 -0.256202,-0.100222 -0.486711,-0.236272 -0.71875,-0.375 -0.00741,-0.0044 -0.023866,0.0045 -0.03125,0 -0.031933,-0.0193 -0.062293,-0.04251 -0.09375,-0.0625 -0.120395,-0.0767 -0.231023,-0.163513 -0.34375,-0.25 -0.106173,-0.0808 -0.213281,-0.161112 -0.3125,-0.25 -0.17793,-0.161433 -0.34746,-0.345388 -0.5,-0.53125 -0.107579,-0.130255 -0.218394,-0.265285 -0.3125,-0.40625 -0.025089,-0.03838 -0.038446,-0.08587 -0.0625,-0.125 -0.064763,-0.103032 -0.130228,-0.204517 -0.1875,-0.3125 -0.101008,-0.194706 -0.205675,-0.415701 -0.28125,-0.625 -0.00796,-0.02181 -0.023589,-0.04055 -0.03125,-0.0625 -0.0318251,-0.09195 -0.0358045,-0.186831 -0.0625,-0.28125 -0.0303323,-0.106618 -0.0703894,-0.203031 -0.09375,-0.3125 -0.0728786,-0.341512 -0.125,-0.698205 -0.125,-1.0625 v -2 -68 -2 c 0,-2.78185 2.21815,-5 5,-5 h 2 68 2 c 2.78185,0 5,2.21815 5,5 v 2 68 2 c 0,0.364295 -0.05212,0.720988 -0.125,1.0625 -0.04415,0.206893 -0.08838,0.397658 -0.15625,0.59375 -0.0077,0.02195 -0.0233,0.04069 -0.03125,0.0625 -0.06274,0.173739 -0.138383,0.367449 -0.21875,0.53125 -0.04158,0.0828 -0.07904,0.169954 -0.125,0.25 -0.0546,0.09721 -0.126774,0.18835 -0.1875,0.28125 -0.09411,0.140965 -0.204921,0.275995 -0.3125,0.40625 -0.143174,0.17445 -0.303141,0.346998 -0.46875,0.5 -0.01117,0.0102 -0.01998,0.02115 -0.03125,0.03125 -0.138386,0.125556 -0.285091,0.234436 -0.4375,0.34375 -0.102571,0.07315 -0.204318,0.153364 -0.3125,0.21875 -0.0074,0.0045 -0.02384,-0.0044 -0.03125,0 -0.232039,0.138728 -0.462548,0.274778 -0.71875,0.375 0.301527,-0.0968 0.596455,-0.204138 0.875,-0.34375 0.55709,-0.279224 1.06005,-0.665694 1.5,-1.09375 0.219973,-0.214028 0.409366,-0.441865 0.59375,-0.6875 0.184384,-0.245635 0.355408,-0.507743 0.5,-0.78125 0.14012,-0.265048 0.276135,-0.524729 0.375,-0.8125 0.01041,-0.03078 0.02133,-0.06274 0.03125,-0.09375 0.09046,-0.278085 0.1388,-0.579404 0.1875,-0.875 0.0524,-0.31805 0.09375,-0.634029 0.09375,-0.96875 v -2 -68 -2 c 0,-3.324 -2.676,-6 -6,-6 h -72 z "/>
</g>
<g id="layer5">
<rect width="66" x="15" y="15" rx="12" height="66" ry="12" style="opacity:.1;fill:url(#linearGradient3613);filter:url(#filter3794);stroke:#fff;stroke-linecap:round;stroke-width:.5;clip-path:url(#clipPath3613)" id="rect3171"/>
</g>
</svg>
