<svg xmlns="http://www.w3.org/2000/svg" viewBox="0 0 96 96" xmlns:xlink="http://www.w3.org/1999/xlink">
<defs>
<clipPath id="clipPath3613">
<path style="fill:#fff" d="m12,6h72a6,6 0 0,1 6,6v72a6,6 0 0,1 -6,6h-72a6,6 0 0,1 -6-6v-72a6,6 0 0,1 6-6"/>
</clipPath>
<filter width="1.384" x="-.192" y="-.192" height="1.384" style="color-interpolation-filters:sRGB" id="filter3794">
<feGaussianBlur stdDeviation="5.28"/>
</filter>
<linearGradient id="linearGradient3700">
<stop offset="0" style="stop-color:#167c33"/>
<stop offset="1" style="stop-color:#2da14e"/>
</linearGradient>
<linearGradient id="linearGradient3781">
<stop offset="0" style="stop-color:#fff"/>
<stop offset="1" style="stop-color:#fff;stop-opacity:0"/>
</linearGradient>
<linearGradient id="linearGradient3613" xlink:href="#linearGradient3737" y1="20.221" y2="138.661" x2="0" gradientUnits="userSpaceOnUse"/>
<linearGradient id="linearGradient3617" xlink:href="#linearGradient3700" y1="90" y2="5.988" x2="0" gradientUnits="userSpaceOnUse"/>
<linearGradient id="linearGradient3188" xlink:href="#linearGradient3737" y1="6" y2="63.893" x2="0" gradientUnits="userSpaceOnUse"/>
<linearGradient gradientTransform="matrix(1.00587 0 0 .99417 100 0)" id="ButtonShadow-0" y1="92.54" y2="7.017" x2="0" gradientUnits="userSpaceOnUse">
<stop offset="0"/>
<stop offset="1" style="stop-opacity:.588"/>
</linearGradient>
<linearGradient id="linearGradient3737">
<stop offset="0" style="stop-color:#fff"/>
<stop offset="1" style="stop-color:#fff;stop-opacity:0"/>
</linearGradient>
<linearGradient gradientTransform="translate(0 36)" id="linearGradient3840" xlink:href="#linearGradient3781" y1="15" x1="61" y2="38.502" x2="67.297" gradientUnits="userSpaceOnUse"/>
<linearGradient gradientTransform="matrix(1.02381 0 0 1.0119 -1.14286 -98.07143)" id="linearGradient3780" xlink:href="#ButtonShadow-0" y1="6.132" y2="90.239" x2="0" gradientUnits="userSpaceOnUse"/>
<linearGradient gradientTransform="translate(-36)" id="linearGradient3791" xlink:href="#linearGradient3781" y1="15" x1="61" y2="38.502" x2="67.297" gradientUnits="userSpaceOnUse"/>
<linearGradient gradientTransform="translate(-36 36)" id="linearGradient3836" xlink:href="#linearGradient3781" y1="15" x1="61" y2="38.502" x2="67.297" gradientUnits="userSpaceOnUse"/>
<linearGradient gradientTransform="translate(0 -97)" id="linearGradient3721" xlink:href="#ButtonShadow-0" y1="6.132" y2="90.239" x2="0" gradientUnits="userSpaceOnUse"/>
<linearGradient id="linearGradient3787" xlink:href="#linearGradient3781" y1="15" x1="61" y2="38.502" x2="67.297" gradientUnits="userSpaceOnUse"/>
<radialGradient cx="48" cy="90.172" gradientTransform="matrix(1.15731 0 0 .99591 -7.55102 .19713)" r="42" id="radialGradient3619" xlink:href="#linearGradient3737" gradientUnits="userSpaceOnUse"/>
<radialGradient cx="32" cy="26" gradientTransform="matrix(1.1875 0 0 1.125 -6 -3.25)" r="16" id="radialGradient3679" gradientUnits="userSpaceOnUse">
<stop offset="0" style="stop-color:#fff"/>
<stop offset=".734" style="stop-color:#f2f2f2"/>
<stop offset="1" style="stop-color:#e5e5e5"/>
</radialGradient>
<radialGradient cx="32" cy="40" gradientTransform="matrix(1.1875 0 0 1.125 -6 -5)" r="16" id="radialGradient3760" gradientUnits="userSpaceOnUse">
<stop offset="0" style="stop-color:#393939"/>
<stop offset=".656" style="stop-color:#282828"/>
<stop offset="1" style="stop-color:#161616"/>
</radialGradient>
</defs>
<path style="opacity:.08;fill:url(#linearGradient3780)" d="m12-95.0312c-5.5111,0-10.0312,4.5202-10.0312,10.0312v71c0,5.5111 4.5202,10.0312 10.0312,10.0312h72c5.5111,0 10.0312-4.5202 10.0312-10.0312v-71c0-5.5111-4.5202-10.0312-10.0312-10.0312h-72z" transform="scale(1 -1)"/>
<path style="opacity:.1;fill:url(#linearGradient3780)" d="m12-94.0312c-4.9716,0-9.0312,4.0596-9.0312,9.0312v71c0,4.9716 4.0596,9.0312 9.0312,9.0312h72c4.9716,0 9.0312-4.0596 9.0312-9.0312v-71c0-4.9716-4.0596-9.0312-9.0312-9.0312h-72z" transform="scale(1 -1)"/>
<path style="opacity:.2;fill:url(#linearGradient3780)" d="m12-93c-4.4091,0-8,3.5909-8,8v71c0,4.4091 3.5909,8 8,8h72c4.4091,0 8-3.5909 8-8v-71c0-4.4091-3.5909-8-8-8h-72z" transform="scale(1 -1)"/>
<path style="opacity:.3;fill:url(#linearGradient3780)" d="m12-92h72a7,7 0 0,1 7,7v71a7,7 0 0,1 -7,7h-72a7,7 0 0,1 -7-7v-71a7,7 0 0,1 7-7" transform="scale(1 -1)"/>
<path style="opacity:.45;fill:url(#linearGradient3721)" d="m12-91h72a6,6 0 0,1 6,6v72a6,6 0 0,1 -6,6h-72a6,6 0 0,1 -6-6v-72a6,6 0 0,1 6-6" transform="scale(1 -1)"/>
<path style="fill:url(#linearGradient3617)" d="m12,6h72a6,6 0 0,1 6,6v72a6,6 0 0,1 -6,6h-72a6,6 0 0,1 -6-6v-72a6,6 0 0,1 6-6"/>
<path style="opacity:.4;fill:url(#linearGradient3188)" d="m12,6c-3.324,0-6,2.676-6,6v2 68 2c0,.3347 .0413,.6507 .0938,.9688 .0487,.2956 .097,.5969 .1875,.875 .0099,.0304 .0209,.0636 .0312,.0938 .0989,.2878 .2349,.5475 .375,.8125 .1446,.2735 .3156,.5356 .5,.7812 .1844,.2456 .3738,.4735 .5938,.6875 .4399,.4281 .9429,.8145 1.5,1.0938 .2785,.1396 .5735,.2469 .875,.3438-.2562-.1002-.4867-.2363-.7188-.375-.0074-.0044-.0239,.0045-.0312,0-.0319-.0193-.0623-.0425-.0938-.0625-.1204-.0767-.231-.1635-.3438-.25-.1062-.0808-.2133-.1611-.3125-.25-.1779-.1614-.3475-.3454-.5-.5312-.1076-.1303-.2184-.2653-.3125-.4062-.0251-.0384-.0384-.0859-.0625-.125-.0648-.103-.1302-.2045-.1875-.3125-.101-.1947-.2057-.4157-.2812-.625-.008-.0218-.0236-.0405-.0312-.0625-.0318-.0919-.0358-.1868-.0625-.2812-.0303-.1066-.0704-.203-.0938-.3125-.0729-.3415-.125-.6982-.125-1.0625v-2-68-2c0-2.7818 2.2182-5 5-5h2 68 2c2.7818,0 5,2.2182 5,5v2 68 2c0,.3643-.0521,.721-.125,1.0625-.0442,.2069-.0884,.3977-.1562,.5938-.0077,.022-.0233,.0407-.0312,.0625-.0627,.1737-.1384,.3674-.2188,.5312-.0416,.0828-.079,.17-.125,.25-.0546,.0972-.1268,.1883-.1875,.2812-.0941,.141-.2049,.276-.3125,.4062-.1432,.1744-.3031,.347-.4688,.5-.0112,.0102-.02,.0212-.0312,.0312-.1384,.1256-.2851,.2344-.4375,.3438-.1026,.0731-.2043,.1534-.3125,.2188-.0074,.0045-.0238-.0044-.0312,0-.232,.1387-.4625,.2748-.7188,.375 .3015-.0968 .5965-.2041 .875-.3438 .5571-.2792 1.0601-.6657 1.5-1.0938 .22-.214 .4094-.4419 .5938-.6875 .1844-.2456 .3554-.5077 .5-.7812 .1401-.265 .2761-.5247 .375-.8125 .0104-.0308 .0213-.0627 .0312-.0938 .0905-.2781 .1388-.5794 .1875-.875 .0524-.318 .0938-.634 .0938-.9688v-2-68-2c0-3.324-2.676-6-6-6h-72z"/>
<path style="opacity:.2;fill:url(#radialGradient3619)" d="m12,90c-3.324,0-6-2.676-6-6v-2-68-2c0-.3347 .0413-.6507 .0938-.9688 .0487-.2956 .097-.5969 .1875-.875 .0099-.0304 .0209-.0636 .0312-.0938 .0989-.2878 .2349-.5475 .375-.8125 .1446-.2735 .3156-.5356 .5-.7812 .1844-.2456 .3738-.4735 .5938-.6875 .4399-.4281 .9429-.8145 1.5-1.0938 .2785-.1396 .5735-.2469 .875-.3438-.2562,.1002-.4867,.2363-.7188,.375-.0074,.0044-.0239-.0045-.0312,0-.0319,.0193-.0623,.0425-.0938,.0625-.1204,.0767-.231,.1635-.3438,.25-.1062,.0808-.2133,.1611-.3125,.25-.1779,.1614-.3475,.3454-.5,.5312-.1076,.1303-.2184,.2653-.3125,.4062-.0251,.0384-.0384,.0859-.0625,.125-.0648,.103-.1302,.2045-.1875,.3125-.101,.1947-.2057,.4157-.2812,.625-.008,.0218-.0236,.0405-.0312,.0625-.0318,.092-.0358,.1868-.0625,.2812-.0303,.1066-.0704,.203-.0938,.3125-.0729,.3415-.125,.6982-.125,1.0625v2 68 2c0,2.7818 2.2182,5 5,5h2 68 2c2.7818,0 5-2.2182 5-5v-2-68-2c0-.3643-.0521-.721-.125-1.0625-.0442-.2069-.0884-.3977-.1562-.5938-.0077-.022-.0233-.0407-.0312-.0625-.0627-.1737-.1384-.3674-.2188-.5312-.0416-.0828-.079-.17-.125-.25-.0546-.0972-.1268-.1883-.1875-.2812-.0941-.141-.2049-.276-.3125-.4062-.1432-.1745-.3031-.347-.4688-.5-.0112-.0102-.02-.0211-.0312-.0312-.1384-.1256-.2851-.2344-.4375-.3438-.1026-.0732-.2043-.1534-.3125-.2188-.0074-.0045-.0238,.0044-.0312,0-.232-.1387-.4625-.2748-.7188-.375 .3015,.0968 .5965,.2041 .875,.3438 .5571,.2792 1.0601,.6657 1.5,1.0938 .22,.214 .4094,.4419 .5938,.6875 .1844,.2456 .3554,.5077 .5,.7812 .1401,.265 .2761,.5247 .375,.8125 .0104,.0308 .0213,.0627 .0312,.0938 .0905,.2781 .1388,.5794 .1875,.875 .0524,.318 .0938,.634 .0938,.9688v2 68 2c0,3.324-2.676,6-6,6h-72z"/>
<path style="opacity:.1;fill:url(#linearGradient3613);filter:url(#filter3794);stroke:#fff;stroke-linecap:round;stroke-width:.5;clip-path:url(#clipPath3613)" d="m27,15h42a12,12 0 0,1 12,12v42a12,12 0 0,1 -12,12h-42a12,12 0 0,1 -12-12v-42a12,12 0 0,1 12-12"/>
<g style="color:#000">
<path style="opacity:.05" d="m30,12.125c-10.3979,0-18.875,8.4771-18.875,18.875 0,8.5536 5.7703,15.7121 13.5938,18-7.8234,2.2879-13.5938,9.4464-13.5938,18 0,10.3979 8.4771,18.875 18.875,18.875 8.5536,0 15.7121-5.7703 18-13.5938 2.2879,7.8234 9.4464,13.5938 18,13.5938 10.3979,0 18.875-8.4771 18.875-18.875 0-8.5536-5.7703-15.7121-13.5938-18 7.8234-2.2879 13.5938-9.4464 13.5938-18 0-10.3979-8.4771-18.875-18.875-18.875-8.5536,0-15.7121,5.7703-18,13.5938-2.2879-7.8234-9.4464-13.5938-18-13.5938zm18,24.125c1.7925,6.1482 6.6018,10.9575 12.75,12.75-6.1482,1.7925-10.9575,6.6018-12.75,12.75-1.7925-6.1482-6.6018-10.9575-12.75-12.75 6.1482-1.7925 10.9575-6.6018 12.75-12.75z"/>
<path style="opacity:.1" d="m30,12.9062c-9.9805,0-18.0938,8.1133-18.0938,18.0938 0,9.6393 7.584,17.4705 17.0938,18-9.5097,.5295-17.0938,8.3607-17.0938,18 0,9.9805 8.1133,18.0938 18.0938,18.0938 9.6393,0 17.4705-7.584 18-17.0938 .5295,9.5097 8.3607,17.0938 18,17.0938 9.9805,0 18.0938-8.1133 18.0938-18.0938 0-9.6393-7.584-17.4705-17.0938-18 9.5097-.5295 17.0938-8.3607 17.0938-18 0-9.9805-8.1133-18.0938-18.0938-18.0938-9.6393,0-17.4705,7.584-18,17.0938-.5295-9.5097-8.3607-17.0938-18-17.0938zm18,19.0938c.5108,9.1731 7.8269,16.4892 17,17-9.1731,.5108-16.4892,7.8269-17,17-.5108-9.1731-7.8269-16.4892-17-17 9.1731-.5108 16.4892-7.8269 17-17z"/>
<path style="opacity:.15" d="m30,14c-9.3814,0-17,7.6186-17,17 0,9.3814 7.6186,17 17,17 9.3814,0 17-7.6186 17-17 0-9.3814-7.6186-17-17-17zm36,0c-9.3814,0-17,7.6186-17,17 0,9.3814 7.6186,17 17,17 9.3814,0 17-7.6186 17-17 0-9.3814-7.6186-17-17-17zm-36,36c-9.3814,0-17,7.6186-17,17 0,9.3814 7.6186,17 17,17 9.3814,0 17-7.6186 17-17 0-9.3814-7.6186-17-17-17zm36,0c-9.3814,0-17,7.6186-17,17 0,9.3814 7.6186,17 17,17 9.3814,0 17-7.6186 17-17 0-9.3814-7.6186-17-17-17z"/>
<path style="opacity:.3" d="m30,15c-8.8366,0-16,7.1634-16,16 0,8.8366 7.1634,16 16,16 8.8366,0 16-7.1634 16-16 0-8.8366-7.1634-16-16-16zm36,0c-8.8366,0-16,7.1634-16,16 0,8.8366 7.1634,16 16,16 8.8366,0 16-7.1634 16-16 0-8.8366-7.1634-16-16-16zm-36,36c-8.8366,0-16,7.1634-16,16 0,8.8366 7.1634,16 16,16 8.8366,0 16-7.1634 16-16 0-8.8366-7.1634-16-16-16zm36,0c-8.8366,0-16,7.1634-16,16 0,8.8366 7.1634,16 16,16 8.8366,0 16-7.1634 16-16 0-8.8366-7.1634-16-16-16z"/>
<path style="fill:url(#radialGradient3679)" d="m48,32a16,16 0 1,1 -32,0 16,16 0 1,1 32,0z" transform="matrix(1 0 0 -1 -2 62)"/>
<path style="fill:url(#radialGradient3760)" d="m48,32a16,16 0 1,1 -32,0 16,16 0 1,1 32,0z" transform="translate(34 -2)"/>
<path style="opacity:.2;fill:url(#linearGradient3787)" d="m66,15c-8.2843,0-15,6.7157-15,15 0,3.6087 1.283,6.912 3.4062,9.5-1.5249-2.2956-2.4062-5.0375-2.4062-8 0-8.0081 6.4919-14.5 14.5-14.5 7.7526,0 14.0725,6.096 14.4688,13.75 .0124-.2505 .0312-.4964 .0312-.75 0-8.2843-6.7157-15-15-15z"/>
<path style="fill:url(#linearGradient3791)" d="m30,15c-8.2843,0-15,6.7157-15,15 0,3.6087 1.283,6.912 3.4062,9.5-1.5249-2.2956-2.4062-5.0375-2.4062-8 0-8.0081 6.4919-14.5 14.5-14.5 7.7526,0 14.0725,6.096 14.4688,13.75 .0124-.2505 .0312-.4964 .0312-.75 0-8.2843-6.7157-15-15-15z"/>
<path style="opacity:.1" d="m30,14c-8.8366,0-16,7.1634-16,16 0,8.8366 7.1634,16 16,16 8.8366,0 16-7.1634 16-16 0-8.8366-7.1634-16-16-16zm0,.9688c8.3201,0 15.0312,6.7111 15.0312,15.0312 0,8.3201-6.7111,15.0312-15.0312,15.0312-8.3201,0-15.0312-6.7111-15.0312-15.0312 0-8.3201 6.7111-15.0312 15.0312-15.0312z"/>
<path style="opacity:.2" d="m66,14c-8.8366,0-16,7.1634-16,16 0,8.8366 7.1634,16 16,16 8.8366,0 16-7.1634 16-16 0-8.8366-7.1634-16-16-16zm0,.9688c8.3201,0 15.0312,6.7111 15.0312,15.0312 0,8.3201-6.7111,15.0312-15.0312,15.0312-8.3201,0-15.0312-6.7111-15.0312-15.0312 0-8.3201 6.7111-15.0312 15.0312-15.0312z"/>
<g transform="translate(36)">
<path style="fill:url(#radialGradient3679)" d="m48,32a16,16 0 1,1 -32,0 16,16 0 1,1 32,0z" transform="matrix(1 0 0 -1 -2 98)"/>
<path style="fill:url(#linearGradient3836)" d="m30,51c-8.2843,0-15,6.7157-15,15 0,3.6087 1.283,6.912 3.4062,9.5-1.5249-2.2956-2.4062-5.0375-2.4062-8 0-8.0081 6.4919-14.5 14.5-14.5 7.7526,0 14.0725,6.096 14.4688,13.75 .0124-.2505 .0312-.4964 .0312-.75 0-8.2843-6.7157-15-15-15z"/>
<path style="opacity:.1" d="m30,50c-8.8366,0-16,7.1634-16,16 0,8.8366 7.1634,16 16,16 8.8366,0 16-7.1634 16-16 0-8.8366-7.1634-16-16-16zm0,.9688c8.3201,0 15.0312,6.7111 15.0312,15.0312 0,8.3201-6.7111,15.0312-15.0312,15.0312-8.3201,0-15.0312-6.7111-15.0312-15.0312 0-8.3201 6.7111-15.0312 15.0312-15.0312z"/>
</g>
<g transform="translate(-36)">
<path style="fill:url(#radialGradient3760)" d="m48,32a16,16 0 1,1 -32,0 16,16 0 1,1 32,0z" transform="translate(34 34)"/>
<path style="opacity:.2;fill:url(#linearGradient3840)" d="m66,51c-8.2843,0-15,6.7157-15,15 0,3.6087 1.283,6.912 3.4062,9.5-1.5249-2.2956-2.4062-5.0375-2.4062-8 0-8.0081 6.4919-14.5 14.5-14.5 7.7526,0 14.0725,6.096 14.4688,13.75 .0124-.2505 .0312-.4964 .0312-.75 0-8.2843-6.7157-15-15-15z"/>
<path style="opacity:.2" d="m66,50c-8.8366,0-16,7.1634-16,16 0,8.8366 7.1634,16 16,16 8.8366,0 16-7.1634 16-16 0-8.8366-7.1634-16-16-16zm0,.9688c8.3201,0 15.0312,6.7111 15.0312,15.0312 0,8.3201-6.7111,15.0312-15.0312,15.0312-8.3201,0-15.0312-6.7111-15.0312-15.0312 0-8.3201 6.7111-15.0312 15.0312-15.0312z"/>
</g>
</g>
</svg>
