<svg width="96" version="1.0" xmlns="http://www.w3.org/2000/svg" height="96" xmlns:xlink="http://www.w3.org/1999/xlink">
<defs id="defs2410">
<clipPath id="clipPath2973">
<rect width="84" x="6" y="6" rx="6" height="84" ry="6" style="fill:url(#linearGradient2977);stroke:none" id="rect2975"/>
</clipPath>
<clipPath id="clipPath3613">
<rect width="84" x="6" y="6" rx="6" height="84" ry="6" style="fill:#fff;stroke:none" id="rect3615"/>
</clipPath>
<filter style="color-interpolation-filters:sRGB" id="filter3174">
<feGaussianBlur stdDeviation="1.71" id="feGaussianBlur3176"/>
</filter>
<filter width="1.3839999" x="-0.192" y="-0.192" height="1.3839999" style="color-interpolation-filters:sRGB" id="filter3794">
<feGaussianBlur stdDeviation="5.28" id="feGaussianBlur3796"/>
</filter>
<linearGradient gradientTransform="matrix(0,1,-1,0,95.927112,0.07288784)" id="linearGradient4300" xlink:href="#linearGradient3802" y1="28.878111" x1="45" y2="28.878111" x2="51" gradientUnits="userSpaceOnUse"/>
<linearGradient gradientTransform="matrix(1,0,0,-1,-1.586914e-7,96)" id="linearGradient4298" xlink:href="#linearGradient3802" y1="28.878111" x1="45" y2="28.878111" x2="51" gradientUnits="userSpaceOnUse"/>
<linearGradient gradientTransform="matrix(1.0238095,0,0,1.0119048,-1.1428571,-98.071429)" id="linearGradient3780" xlink:href="#ButtonShadow" y1="6.1317081" x1="32.251034" y2="90.238609" x2="32.251034" gradientUnits="userSpaceOnUse"/>
<linearGradient gradientTransform="matrix(1.0238095,0,0,1.0119048,-1.1428571,-98.071429)" id="linearGradient3788" xlink:href="#ButtonShadow" y1="6.1317081" x1="32.251034" y2="90.238609" x2="32.251034" gradientUnits="userSpaceOnUse"/>
<linearGradient id="linearGradient4296" xlink:href="#linearGradient3802" y1="28.878111" x1="45" y2="28.878111" x2="51" gradientUnits="userSpaceOnUse"/>
<linearGradient id="linearGradient4294" xlink:href="#linearGradient3802" y1="28.878111" x1="45" y2="28.878111" x2="51" gradientUnits="userSpaceOnUse"/>
<linearGradient id="linearGradient4304" xlink:href="#linearGradient3802" y1="28.878111" x1="45" y2="28.878111" x2="51" gradientUnits="userSpaceOnUse"/>
<linearGradient gradientTransform="matrix(1.0238095,0,0,1.0119048,-1.1428571,-98.071429)" id="linearGradient3725" xlink:href="#ButtonShadow" y1="6.1317081" x1="32.251034" y2="90.238609" x2="32.251034" gradientUnits="userSpaceOnUse"/>
<linearGradient gradientTransform="matrix(1,0,0,-1,-1.586914e-7,96)" id="linearGradient4316" xlink:href="#linearGradient3802" y1="28.878111" x1="45" y2="28.878111" x2="51" gradientUnits="userSpaceOnUse"/>
<linearGradient id="linearGradient4330" xlink:href="#linearGradient4152" y1="48" x1="45" y2="48" x2="51" gradientUnits="userSpaceOnUse"/>
<linearGradient gradientTransform="matrix(0,1,-1,0,95.927112,0.07288784)" id="linearGradient4318" xlink:href="#linearGradient3802" y1="28.878111" x1="45" y2="28.878111" x2="51" gradientUnits="userSpaceOnUse"/>
<linearGradient id="linearGradient4314" xlink:href="#linearGradient3802" y1="28.878111" x1="45" y2="28.878111" x2="51" gradientUnits="userSpaceOnUse"/>
<linearGradient id="linearGradient4312" xlink:href="#linearGradient3802" y1="28.878111" x1="45" y2="28.878111" x2="51" gradientUnits="userSpaceOnUse"/>
<linearGradient id="linearGradient4306" xlink:href="#linearGradient3802" y1="28.878111" x1="45" y2="28.878111" x2="51" gradientUnits="userSpaceOnUse"/>
<linearGradient gradientTransform="matrix(0,1,-1,0,95.927112,0.07288784)" id="linearGradient4310" xlink:href="#linearGradient3802" y1="28.878111" x1="45" y2="28.878111" x2="51" gradientUnits="userSpaceOnUse"/>
<linearGradient gradientTransform="matrix(1,0,0,-1,-1.5869141e-7,96)" id="linearGradient4308" xlink:href="#linearGradient3802" y1="28.878111" x1="45" y2="28.878111" x2="51" gradientUnits="userSpaceOnUse"/>
<linearGradient gradientTransform="matrix(1.0238095,0,0,1.0119048,-1.1428571,-98.071429)" id="linearGradient3772" xlink:href="#ButtonShadow" y1="6.1317081" x1="32.251034" y2="90.238609" x2="32.251034" gradientUnits="userSpaceOnUse"/>
<linearGradient id="linearGradient3188" xlink:href="#linearGradient3737" y1="6" x1="36.357143" y2="63.893143" x2="36.357143" gradientUnits="userSpaceOnUse"/>
<linearGradient id="linearGradient3700">
<stop offset="0" style="stop-color:#70a83e" id="stop3702"/>
<stop offset="1" style="stop-color:#9fd058" id="stop3704"/>
</linearGradient>
<linearGradient id="linearGradient3613" xlink:href="#linearGradient3737" y1="20.220806" x1="48" y2="138.66119" x2="48" gradientUnits="userSpaceOnUse"/>
<linearGradient gradientTransform="matrix(1.0058652,0,0,0.994169,100,0)" id="ButtonShadow" y1="92.539597" x1="45.447727" y2="7.0165396" x2="45.447727" gradientUnits="userSpaceOnUse">
<stop offset="0" id="stop3750"/>
<stop offset="1" style="stop-opacity:.588" id="stop3752"/>
</linearGradient>
<linearGradient id="linearGradient3770">
<stop offset="0" style="stop-color:#ff7612" id="stop3772"/>
<stop offset="1" style="stop-color:#ffc149" id="stop3778"/>
</linearGradient>
<linearGradient id="linearGradient4152">
<stop offset="0" style="stop-color:#fff" id="stop4154"/>
<stop offset="0.5" style="stop-color:#fff;stop-opacity:0" id="stop4160"/>
<stop offset="1" style="stop-color:#fff;stop-opacity:0" id="stop4156"/>
</linearGradient>
<linearGradient id="linearGradient3786">
<stop offset="0" style="stop-color:#fff" id="stop3788"/>
<stop offset="0.26277161" style="stop-color:#828282" id="stop3794"/>
<stop offset="0.49462891" style="stop-color:#555" id="stop3796"/>
<stop offset="0.74731445" style="stop-color:#3d3d3d" id="stop3798"/>
<stop offset="1" style="stop-color:#242424" id="stop3790"/>
</linearGradient>
<linearGradient id="linearGradient3802">
<stop offset="0" style="stop-color:#676767" id="stop3804"/>
<stop offset="1" style="stop-color:#282828" id="stop3806"/>
</linearGradient>
<linearGradient id="linearGradient3737">
<stop offset="0" style="stop-color:#fff" id="stop3739"/>
<stop offset="1" style="stop-color:#fff;stop-opacity:0" id="stop3741"/>
</linearGradient>
<linearGradient gradientTransform="translate(0,-97)" id="linearGradient3721" xlink:href="#ButtonShadow" y1="6.1317081" x1="32.251034" y2="90.238609" x2="32.251034" gradientUnits="userSpaceOnUse"/>
<linearGradient id="linearGradient2977" xlink:href="#linearGradient3700-4" y1="90" x1="48" y2="5.9877172" x2="48" gradientUnits="userSpaceOnUse"/>
<linearGradient id="linearGradient3878" xlink:href="#linearGradient3700" y1="90" x1="48" y2="5.9877172" x2="48" gradientUnits="userSpaceOnUse"/>
<linearGradient id="linearGradient3700-4">
<stop offset="0" style="stop-color:#70a83e" id="stop3702-4"/>
<stop offset="1" style="stop-color:#9fd058" id="stop3704-4"/>
</linearGradient>
<linearGradient id="linearGradient3708" xlink:href="#linearGradient3770" y1="90" x1="48" y2="5.9877172" x2="48" gradientUnits="userSpaceOnUse"/>
<linearGradient id="linearGradient3617" xlink:href="#linearGradient3700" y1="90" x1="48" y2="5.9877172" x2="48" gradientUnits="userSpaceOnUse"/>
<radialGradient fx="35.355156" fy="47.746105" cx="35.355156" cy="47.746105" gradientTransform="matrix(2.0070362,-3.115707e-7,2.2679513e-7,1.4609398,-35.348992,-22.262273)" r="3.5318456" id="radialGradient4324" xlink:href="#linearGradient3802" gradientUnits="userSpaceOnUse"/>
<radialGradient fx="35.355156" fy="47.746105" cx="35.355156" cy="47.746105" gradientTransform="matrix(-3.8946337e-7,-2.5087953,1.8261748,-2.8349391e-7,-39.677785,152.12729)" r="3.5318456" id="radialGradient4339" xlink:href="#linearGradient3802" gradientUnits="userSpaceOnUse"/>
<radialGradient fx="48" fy="90.171875" cx="48" cy="90.171875" gradientTransform="matrix(1.1573129,0,0,0.99590774,-7.5510206,0.19713193)" r="42" id="radialGradient3619" xlink:href="#linearGradient3737" gradientUnits="userSpaceOnUse"/>
<radialGradient fx="35.355156" fy="47.746105" cx="35.355156" cy="47.746105" gradientTransform="matrix(2.0070362,-3.115707e-7,2.2679513e-7,1.4609398,-35.348992,-22.262273)" r="3.5318456" id="radialGradient4322" xlink:href="#linearGradient3802" gradientUnits="userSpaceOnUse"/>
<radialGradient fx="35.355156" fy="47.746105" cx="35.355156" cy="47.746105" gradientTransform="matrix(-2.5087953,-3.8946337e-7,-2.8349391e-7,1.8261748,152.27735,-39.827841)" r="3.5318456" id="radialGradient4346" xlink:href="#linearGradient3802" gradientUnits="userSpaceOnUse"/>
<radialGradient fx="48" fy="48" cx="48" cy="48" r="3" id="radialGradient4320" xlink:href="#linearGradient3802" gradientUnits="userSpaceOnUse"/>
<radialGradient fx="37.5" fy="37.5" cx="37.5" cy="37.5" r="8" id="radialGradient4302" xlink:href="#linearGradient3786" gradientUnits="userSpaceOnUse"/>
</defs>
<g style="display:none" id="layer2">
<rect width="86" x="105" y="7" rx="6" height="85" ry="6" style="opacity:.9;fill:url(#ButtonShadow);filter:url(#filter3174);stroke:none" id="rect3745"/>
</g>
<g style="stroke:none" id="layer3">
<path style="opacity:.08;fill:url(#linearGradient3788)" id="path3786" d="m 12,-95.0312 c -5.51109,0 -10.0312,4.52016 -10.0312,10.0312 v 71 c 0,5.51109 4.52016,10.0312 10.0312,10.0312 h 72 c 5.51109,0 10.0312,-4.52016 10.0312,-10.0312 v -71 c 0,-5.51109 -4.52016,-10.0312 -10.0312,-10.0312 h -72 z " transform="scale(1,-1)"/>
<path style="opacity:.1;fill:url(#linearGradient3780)" id="path3778" d="m 12,-94.0312 c -4.97163,0 -9.03125,4.05962 -9.03125,9.03125 v 71 c 0,4.97163 4.05962,9.03125 9.03125,9.03125 h 72 c 4.97163,0 9.03125,-4.05962 9.03125,-9.03125 v -71 c 0,-4.97163 -4.05962,-9.03125 -9.03125,-9.03125 h -72 z " transform="scale(1,-1)"/>
<path style="opacity:.2;fill:url(#linearGradient3772)" id="path3770" d="m 12,-93 c -4.40913,0 -8,3.59087 -8,8 v 71 c 0,4.40913 3.59087,8 8,8 h 72 c 4.40913,0 8,-3.59087 8,-8 v -71 c 0,-4.40913 -3.59087,-8 -8,-8 h -72 z " transform="scale(1,-1)"/>
<rect width="86" x="5" y="-92" rx="7" height="85" ry="7" style="opacity:.3;fill:url(#linearGradient3725)" id="rect3723" transform="scale(1,-1)"/>
<rect width="84" x="6" y="-91" rx="6" height="84" ry="6" style="opacity:.45;fill:url(#linearGradient3721)" id="rect3716" transform="scale(1,-1)"/>
</g>
<g style="stroke:none" id="layer1">
<rect width="84" x="6" y="6" rx="6" height="84" ry="6" style="fill:url(#linearGradient3708)" id="rect2419"/>
<path style="opacity:.4;fill:url(#linearGradient3188)" id="rect3728" d="m 12,6 c -3.324,0 -6,2.676 -6,6 v 2 68 2 c 0,0.334721 0.04135,0.6507 0.09375,0.96875 0.0487,0.295596 0.09704,0.596915 0.1875,0.875 0.00988,0.03038 0.020892,0.0636 0.03125,0.09375 0.098865,0.287771 0.23488,0.547452 0.375,0.8125 0.144592,0.273507 0.315616,0.535615 0.5,0.78125 0.184384,0.245635 0.373776,0.473472 0.59375,0.6875 0.439947,0.428056 0.94291,0.814526 1.5,1.09375 0.278545,0.139612 0.573473,0.246947 0.875,0.34375 -0.256202,-0.100222 -0.486711,-0.236272 -0.71875,-0.375 -0.00741,-0.0044 -0.023866,0.0045 -0.03125,0 -0.031933,-0.0193 -0.062293,-0.04251 -0.09375,-0.0625 -0.120395,-0.0767 -0.231023,-0.163513 -0.34375,-0.25 -0.106173,-0.0808 -0.213281,-0.161112 -0.3125,-0.25 -0.17793,-0.161433 -0.34746,-0.345388 -0.5,-0.53125 -0.107579,-0.130255 -0.218394,-0.265285 -0.3125,-0.40625 -0.025089,-0.03838 -0.038446,-0.08587 -0.0625,-0.125 -0.064763,-0.103032 -0.130228,-0.204517 -0.1875,-0.3125 -0.101008,-0.194706 -0.205675,-0.415701 -0.28125,-0.625 -0.00796,-0.02181 -0.023589,-0.04055 -0.03125,-0.0625 -0.0318251,-0.09195 -0.0358045,-0.186831 -0.0625,-0.28125 -0.0303323,-0.106618 -0.0703894,-0.203031 -0.09375,-0.3125 -0.0728786,-0.341512 -0.125,-0.698205 -0.125,-1.0625 v -2 -68 -2 c 0,-2.78185 2.21815,-5 5,-5 h 2 68 2 c 2.78185,0 5,2.21815 5,5 v 2 68 2 c 0,0.364295 -0.05212,0.720988 -0.125,1.0625 -0.04415,0.206893 -0.08838,0.397658 -0.15625,0.59375 -0.0077,0.02195 -0.0233,0.04069 -0.03125,0.0625 -0.06274,0.173739 -0.138383,0.367449 -0.21875,0.53125 -0.04158,0.0828 -0.07904,0.169954 -0.125,0.25 -0.0546,0.09721 -0.126774,0.18835 -0.1875,0.28125 -0.09411,0.140965 -0.204921,0.275995 -0.3125,0.40625 -0.143174,0.17445 -0.303141,0.346998 -0.46875,0.5 -0.01117,0.0102 -0.01998,0.02115 -0.03125,0.03125 -0.138386,0.125556 -0.285091,0.234436 -0.4375,0.34375 -0.102571,0.07315 -0.204318,0.153364 -0.3125,0.21875 -0.0074,0.0045 -0.02384,-0.0044 -0.03125,0 -0.232039,0.138728 -0.462548,0.274778 -0.71875,0.375 0.301527,-0.0968 0.596455,-0.204138 0.875,-0.34375 0.55709,-0.279224 1.06005,-0.665694 1.5,-1.09375 0.219973,-0.214028 0.409366,-0.441865 0.59375,-0.6875 0.184384,-0.245635 0.355408,-0.507743 0.5,-0.78125 0.14012,-0.265048 0.276135,-0.524729 0.375,-0.8125 0.01041,-0.03078 0.02133,-0.06274 0.03125,-0.09375 0.09046,-0.278085 0.1388,-0.579404 0.1875,-0.875 0.0524,-0.31805 0.09375,-0.634029 0.09375,-0.96875 v -2 -68 -2 c 0,-3.324 -2.676,-6 -6,-6 h -72 z "/>
<path style="opacity:.2;fill:url(#radialGradient3619)" id="path3615" d="M 12,90 C 8.676,90 6,87.324 6,84 L 6,82 6,14 6,12 c 0,-0.334721 0.04135,-0.6507 0.09375,-0.96875 0.0487,-0.295596 0.09704,-0.596915 0.1875,-0.875 C 6.29113,10.12587 6.302142,10.09265 6.3125,10.0625 6.411365,9.774729 6.5473802,9.515048 6.6875,9.25 6.8320918,8.976493 7.0031161,8.714385 7.1875,8.46875 7.3718839,8.223115 7.5612765,7.995278 7.78125,7.78125 8.221197,7.353194 8.72416,6.966724 9.28125,6.6875 9.559795,6.547888 9.8547231,6.440553 10.15625,6.34375 9.9000482,6.443972 9.6695391,6.580022 9.4375,6.71875 c -0.00741,0.0044 -0.023866,-0.0045 -0.03125,0 -0.031933,0.0193 -0.062293,0.04251 -0.09375,0.0625 -0.120395,0.0767 -0.2310226,0.163513 -0.34375,0.25 -0.1061728,0.0808 -0.2132809,0.161112 -0.3125,0.25 C 8.4783201,7.442683 8.3087904,7.626638 8.15625,7.8125 8.0486711,7.942755 7.9378561,8.077785 7.84375,8.21875 7.818661,8.25713 7.805304,8.30462 7.78125,8.34375 7.716487,8.446782 7.6510225,8.548267 7.59375,8.65625 7.4927417,8.850956 7.3880752,9.071951 7.3125,9.28125 7.30454,9.30306 7.288911,9.3218 7.28125,9.34375 7.2494249,9.4357 7.2454455,9.530581 7.21875,9.625 7.1884177,9.731618 7.1483606,9.828031 7.125,9.9375 7.0521214,10.279012 7,10.635705 7,11 l 0,2 0,68 0,2 c 0,2.781848 2.2181517,5 5,5 l 2,0 68,0 2,0 c 2.781848,0 5,-2.218152 5,-5 l 0,-2 0,-68 0,-2 C 89,10.635705 88.94788,10.279012 88.875,9.9375 88.83085,9.730607 88.78662,9.539842 88.71875,9.34375 88.71105,9.3218 88.69545,9.30306 88.6875,9.28125 88.62476,9.107511 88.549117,8.913801 88.46875,8.75 88.42717,8.6672 88.38971,8.580046 88.34375,8.5 88.28915,8.40279 88.216976,8.31165 88.15625,8.21875 88.06214,8.077785 87.951329,7.942755 87.84375,7.8125 87.700576,7.63805 87.540609,7.465502 87.375,7.3125 87.36383,7.3023 87.35502,7.29135 87.34375,7.28125 87.205364,7.155694 87.058659,7.046814 86.90625,6.9375 86.803679,6.86435 86.701932,6.784136 86.59375,6.71875 c -0.0074,-0.0045 -0.02384,0.0044 -0.03125,0 -0.232039,-0.138728 -0.462548,-0.274778 -0.71875,-0.375 0.301527,0.0968 0.596455,0.204138 0.875,0.34375 0.55709,0.279224 1.060053,0.665694 1.5,1.09375 0.219973,0.214028 0.409366,0.441865 0.59375,0.6875 0.184384,0.245635 0.355408,0.507743 0.5,0.78125 0.14012,0.265048 0.276135,0.524729 0.375,0.8125 0.01041,0.03078 0.02133,0.06274 0.03125,0.09375 0.09046,0.278085 0.1388,0.579404 0.1875,0.875 C 89.95865,11.3493 90,11.665279 90,12 l 0,2 0,68 0,2 c 0,3.324 -2.676,6 -6,6 l -72,0 z"/>
</g>
<g id="layer7">
<g style="stroke:none;display:none">
<g style="opacity:.9;fill:#f00;clip-path:url(#clipPath2973)" id="g3855">
<path style="opacity:.15" id="path3819" d="M 48,48 72,-8 88,-8 48,48 z"/>
<path style="opacity:.15" id="path3821" d="M 48,48 103.25122,73.67688 102.769,89.669611 48,48 z"/>
<path style="opacity:.15" id="path3823" d="m 48,48 -59.8279,11.5159 -8.9688,-13.2499 68.7968,1.734 z "/>
<path style="opacity:.15" id="path3825" d="M 48,48 -1.3111997,12.217252 2.2248524,-3.3871168 48,48 z"/>
<path style="opacity:.15" id="path3827" d="M 48,48 65.519239,-14.073153 95.955194,-1.3588835 48,48 z"/>
<path style="opacity:.15" id="path3829" d="M 48,48 109.6356,28.998609 115.4895,61.459846 48,48 z"/>
<path style="opacity:.15" id="path3831" d="M 48,48 16.754067,104.42421 -9.9692451,85.088633 48,48 z"/>
<path style="opacity:.15" id="path3833" d="M 48,48 -14.811967,33.348835 -3.5083336,2.3612922 48,48 z"/>
<path style="opacity:.15" id="path3835" d="M 48,48 93.809637,93.403493 90.117903,102.42501 48,48 z"/>
<path style="opacity:.15" id="path3837" d="m 48,48 -2.970052,64.42964 -9.168463,3.30998 L 48,48 z"/>
<path style="opacity:.15" id="path3839" d="M 48,48 3.1405789,94.342551 -5.923902,90.757601 48,48 z"/>
<path style="opacity:.15" id="path3841" d="m 48,48 -62.1161,17.3662 -6.0159,-7.6698 68.1321,-9.6964 z "/>
<path style="opacity:.15" id="path3843" d="m 48,48 -29.1466,-57.5367 6.3493,-7.3962 22.7974,64.9329 z "/>
<path style="opacity:.15" id="path3845" d="m 48,48 59.4817,-24.9385 6.921,6.8641 -66.4027,18.0744 z "/>
<path style="opacity:.15" id="path3849" d="m 48,48 40.1867,45.7933 -6.8963,14.4375 -33.2904,-60.2308 z "/>
<path style="opacity:.15" id="path3851" d="m 48,48 -35.958,-49.1836 8.1521,-13.7675 27.8059,62.951 z "/>
</g>
<rect width="84" x="6" y="6" rx="6" height="84" ry="6" style="fill:url(#linearGradient3617)" id="rect3873"/>
<rect width="84" x="6" y="6" rx="6" height="84" ry="6" style="fill:url(#linearGradient3878)" id="rect3880"/>
</g>
</g>
<g id="layer5">
<rect width="66" x="15" y="15" rx="12" height="66" ry="12" style="opacity:.1;fill:url(#linearGradient3613);filter:url(#filter3794);stroke:#fff;stroke-linecap:round;stroke-width:.5;clip-path:url(#clipPath3613)" id="rect3171"/>
</g>
<g id="layer6">
<g style="stroke:none;color:#000">
<g style="stroke-width:1.5">
<path style="opacity:.05" id="path4741" d="m 47.625,16.0312 c -1.34275,0.262313 -2.08768,1.36377 -2.4375,2.3125 -0.349817,0.948733 -0.50661,1.86268 -0.75,2.375 a 0.985176,0.985176 0 0,0 -0.0625,0.125 l -2.0312,6.0938 c -1.02575,0.261935 -2.01808,0.688307 -2.6875,0.90625 -0.419843,0.136689 -0.71814,0.138386 -0.90625,0.09375 -0.18811,-0.04464 -0.346277,-0.120301 -0.625,-0.5625 a 0.985176,0.985176 0 0,0 -0.28125,-0.28125 c -0.544824,-0.385931 -1.0898,-1.0029 -1.75,-1.625 -0.660195,-0.622099 -1.47523,-1.26989 -2.5625,-1.53125 a 0.985176,0.985176 0 0,0 -0.09375,0 c -1.20006,-0.135165 -2.27979,0.522904 -2.8125,1.40625 -0.495659,0.821912 -0.582385,1.84828 -0.21875,2.8125 h -0.03125 l .0625,.2188 1.0312,5.125 c -0.240658,0.464195 -0.453587,0.55686 -0.8125,0.59375 -0.424454,0.04363 -1.14425,-0.09441 -1.96875,-0.3125 a 0.985176,0.985176 0 0,0 -0.125,-0.03125 c -0.586875,-0.07864 -1.50305,-0.429903 -2.53125,-0.53125 -0.514102,-0.05067 -1.09169,-0.02676 -1.65625,0.1875 -0.56456,0.214261 -1.08468,0.646338 -1.4375,1.25 a 0.985176,0.985176 0 0,0 -0.03125,0.03125 c -0.330766,0.617755 -0.420698,1.31104 -0.3125,1.90625 0.108198,0.595206 0.381598,1.07751 0.6875,1.5 0.611804,0.844978 1.37796,1.48857 1.75,1.96875 a 0.985176,0.985176 0 0,0 0.15625,0.15625 c 0.688388,0.566872 1.0662,1.10077 1.1875,1.5625 0.103976,0.395765 -0.05258,0.88378 -0.375,1.5 -3.09399,1.06879 -6.29118,2.03871 -9.40625,3.25 a 0.985176,0.985176 0 0,0 -0.15625,0.0625 c -2.31392,1.38998 -1.37736,4.98571 1.15625,5.40625 l -.0312,.0625 8.5312,2.8125 c 0.258648,0.978914 0.623977,1.92846 0.8125,2.5625 0.118516,0.398592 0.141856,0.66206 0.09375,0.84375 -0.04811,0.18169 -0.135468,0.355349 -0.5625,0.625 a 0.985176,0.985176 0 0,0 -0.28125,0.28125 c -0.787851,1.11564 -2.64841,2.16355 -3.1875,4.34375 a 0.985176,0.985176 0 0,0 0,0.125 c -0.135083,1.20003 0.522939,2.28009 1.40625,2.8125 0.82188,0.495384 1.84854,0.581422 2.8125,0.21875 v 0.03125 l .2188,-.0625 5.1562,-1.0312 c 0.40786,0.208607 0.508195,0.371338 0.53125,0.71875 0.02787,0.419983 -0.177774,1.17467 -0.375,2 a 0.985176,0.985176 0 0,0 0,0.09375 c -0.07864,0.586875 -0.429903,1.50305 -0.53125,2.53125 -0.05067,0.514102 -0.02676,1.09169 0.1875,1.65625 0.214261,0.56456 0.646338,1.08468 1.25,1.4375 a 0.985176,0.985176 0 0,0 0.03125,0.03125 c 0.615771,0.329366 1.31256,0.417093 1.90625,0.3125 0.593685,-0.104593 1.07737,-0.385571 1.5,-0.6875 0.845257,-0.603858 1.4853,-1.3488 1.96875,-1.71875 a 0.985176,0.985176 0 0,0 0.15625,-0.15625 c 0.56738,-0.700352 1.09301,-1.07793 1.5625,-1.1875 0.405158,-0.09456 0.92697,0.09596 1.5625,0.4375 1.05859,3.06166 2.01611,6.22815 3.21875,9.3125 a 0.985176,0.985176 0 0,0 0.0625,0.15625 c 1.39025,2.3132 4.98286,1.37545 5.40625,-1.15625 l .0625,.0312 2.8125,-8.375 c 1.01138,-0.264732 1.9935,-0.690479 2.65625,-0.90625 0.420056,-0.136756 0.718645,-0.138391 0.90625,-0.09375 0.187605,0.04464 0.347075,0.119838 0.625,0.5625 a 0.985176,0.985176 0 0,0 0.28125,0.28125 c 0.521452,0.354609 1.08222,1.00471 1.78125,1.65625 0.699028,0.651541 1.64548,1.32314 2.875,1.375 a 0.985176,0.985176 0 0,0 0.0625,0 c 1.16815,-0.05094 2.09806,-0.815663 2.5,-1.71875 0.370924,-0.833399 0.389283,-1.78152 0.0625,-2.65625 l -.0625,-.2188 -.9375,-4.6875 c 0.237475,-0.415187 0.448778,-0.534838 0.8125,-0.5625 0.437543,-0.03328 1.14336,0.171843 1.96875,0.375 a 0.985176,0.985176 0 0,0 0.09375,0 c 0.586541,0.0871 1.49922,0.39663 2.5,0.46875 0.500392,0.03606 1.05076,0.003 1.59375,-0.21875 0.542991,-0.221757 1.03943,-0.631776 1.375,-1.21875 a 0.985176,0.985176 0 0,0 0.03125,-0.03125 c 0.330927,-0.617762 0.420214,-1.31083 0.3125,-1.90625 -0.107714,-0.595425 -0.381622,-1.07713 -0.6875,-1.5 -0.611756,-0.845735 -1.37547,-1.48816 -1.75,-1.96875 a 0.985176,0.985176 0 0,0 -0.09375,-0.09375 c -0.538897,-0.534061 -0.982461,-1.03321 -1.125,-1.34375 -0.142539,-0.310539 -0.203569,-0.392659 0.21875,-0.9375 a 0.985176,0.985176 0 0,0 0.21875,-0.59375 c -0.000157,-0.212989 -0.003,-0.212792 0.03125,-0.25 0.0342,-0.03721 0.17594,-0.10744 0.40625,-0.1875 0.433254,-0.150608 1.17715,-0.260668 1.9375,-0.625 v 0.03125 c 0.0414,-0.0154 0.08343,-0.04727 0.125,-0.0625 2.22456,-0.815257 4.67579,-1.38352 7,-2.46875 a 0.985176,0.985176 0 0,0 0.15625,-0.09375 c 2.12665,-1.50329 1.09237,-4.86465 -1.34375,-5.28125 l .0312,-.0625 -8.25,-2.75 c -0.241786,-1.08552 -0.673744,-2.03808 -0.90625,-2.75 -0.142867,-0.437453 -0.17028,-0.766835 -0.125,-0.96875 0.04528,-0.201915 0.115994,-0.370997 0.5625,-0.65625 a 0.985176,0.985176 0 0,0 0.28125,-0.28125 c 0.349174,-0.517212 0.986767,-1.08511 1.625,-1.78125 0.638233,-0.696137 1.29596,-1.62773 1.34375,-2.84375 a 0.985176,0.985176 0 0,0 0,-0.0625 c -0.05089,-1.16813 -0.815576,-2.09769 -1.71875,-2.5 -0.83348,-0.371265 -1.78112,-0.390417 -2.65625,-0.0625 -0.07318,0.02742 -0.146824,0.02996 -0.21875,0.0625 l -4.6562,.9375 c -0.464312,-0.249702 -0.586492,-0.44842 -0.625,-0.8125 -0.04554,-0.430564 0.09235,-1.17541 0.3125,-2 a 0.985176,0.985176 0 0,0 0.03125,-0.09375 c 0.08554,-0.586095 0.41513,-1.52115 0.5,-2.53125 0.04243,-0.505051 0.03117,-1.04269 -0.1875,-1.59375 -0.218669,-0.551059 -0.656823,-1.06486 -1.25,-1.40625 a 0.985176,0.985176 0 0,0 -0.03125,-0.03125 c -0.617752,-0.330651 -1.3112,-0.421044 -1.90625,-0.3125 -0.595049,0.108544 -1.07778,0.381581 -1.5,0.6875 -0.844436,0.611838 -1.48886,1.37973 -1.96875,1.75 a 0.985176,0.985176 0 0,0 -0.1875,0.1875 c -0.528959,0.697722 -0.973006,0.957625 -1.4375,1.03125 -0.395591,0.0627 -0.954262,-0.125963 -1.59375,-0.4375 -1.0904,-3.10769 -1.99638,-6.35418 -3.3125,-9.5 a 0.985176,0.985176 0 0,0 -0.125,-0.21875 c -0.647301,-0.867507 -1.70251,-1.27464 -2.75,-1.15625 a 0.985176,0.985176 0 0,0 -0.0625,0 z "/>
<path style="opacity:.1" id="path4735" d="M 47.8125,17 A 0.99425786,0.99425786 0 0 0 47.75,17.03125 c -1.61e-4,2.8e-5 -0.124842,0.03121 -0.125,0.03125 -1.58e-4,3.9e-5 -0.124845,0.0312 -0.125,0.03125 -1.55e-4,5e-5 -0.124848,0.03119 -0.125,0.03125 -1.52e-4,6.1e-5 -0.124853,0.06243 -0.125,0.0625 -1.47e-4,7.1e-5 -0.124858,0.06242 -0.125,0.0625 -1.42e-4,8.1e-5 -0.124864,0.06241 -0.125,0.0625 -1.36e-4,9e-5 -0.09362,0.09365 -0.09375,0.09375 -1.3e-4,9.9e-5 -0.124877,0.09364 -0.125,0.09375 -1.23e-4,1.08e-4 -0.09363,0.09363 -0.09375,0.09375 -1.15e-4,1.16e-4 -0.09364,0.09363 -0.09375,0.09375 -1.07e-4,1.24e-4 -0.0624,0.09362 -0.0625,0.09375 -9.8e-5,1.31e-4 -0.09366,0.124863 -0.09375,0.125 -8.9e-5,1.37e-4 -0.06242,0.124857 -0.0625,0.125 -7.9e-5,1.43e-4 -0.06243,0.0936 -0.0625,0.09375 -6.9e-5,1.48e-4 -0.06244,0.124848 -0.0625,0.125 -4.8e-5,1.23e-4 -0.01995,0.09272 -0.03125,0.125 -0.0027,0.0077 9e-6,0.03122 0,0.03125 L 43.125,27.6875 c -1.513316,0.357535 -2.975899,0.88299 -4.34375,1.53125 L 34.4375,25.375 a 0.99425786,0.99425786 0 0 0 -0.03125,-0.03125 c -1.4e-4,-1.15e-4 -0.124852,-0.0624 -0.125,-0.0625 -1.48e-4,-1.04e-4 -0.124844,-0.09366 -0.125,-0.09375 -1.56e-4,-9.3e-5 -0.124838,-0.06242 -0.125,-0.0625 -1.62e-4,-8.1e-5 -0.124832,-0.06243 -0.125,-0.0625 -1.68e-4,-6.8e-5 -0.156077,-0.06245 -0.15625,-0.0625 -1.73e-4,-5.5e-5 -0.156074,-0.03121 -0.15625,-0.03125 -1.76e-4,-4.2e-5 -0.124821,-0.03122 -0.125,-0.03125 -1.79e-4,-2.9e-5 -0.156069,-0.03123 -0.15625,-0.03125 -1.81e-4,-1.5e-5 -0.156069,1e-6 -0.15625,0 -1.81e-4,-1e-6 -0.156069,-1.2e-5 -0.15625,0 -1.81e-4,1.2e-5 -0.156071,0.03122 -0.15625,0.03125 -1.79e-4,2.6e-5 -0.124823,-4e-5 -0.125,0 -1.77e-4,4e-5 -0.156077,0.06245 -0.15625,0.0625 -1.73e-4,5.3e-5 -0.156081,0.03118 -0.15625,0.03125 -1.69e-4,6.6e-5 -0.124837,0.06242 -0.125,0.0625 -1.63e-4,7.8e-5 -0.124843,0.06241 -0.125,0.0625 -1.57e-4,9.1e-5 -0.12485,0.09365 -0.125,0.09375 -1.5e-4,1.02e-4 -0.124859,0.09364 -0.125,0.09375 -1.41e-4,1.13e-4 -0.124867,0.09363 -0.125,0.09375 -1.33e-4,1.24e-4 -0.09363,0.09362 -0.09375,0.09375 -1.23e-4,1.33e-4 -0.124888,0.124858 -0.125,0.125 -1.12e-4,1.42e-4 -0.0624,0.12485 -0.0625,0.125 -1.01e-4,1.5e-4 -0.09366,0.124842 -0.09375,0.125 -9e-5,1.58e-4 -0.06242,0.124836 -0.0625,0.125 -7.7e-5,1.64e-4 -0.06244,0.156081 -0.0625,0.15625 -6.5e-5,1.69e-4 -0.06245,0.156076 -0.0625,0.15625 -5.2e-5,1.74e-4 -0.03121,0.124823 -0.03125,0.125 -3.8e-5,1.77e-4 -0.03122,0.15607 -0.03125,0.15625 -2.5e-5,1.8e-4 1.1e-5,0.156069 0,0.15625 -1.1e-5,1.81e-4 -3e-6,0.156069 0,0.15625 3e-6,1.81e-4 -1.6e-5,0.12482 0,0.125 1.6e-5,1.8e-4 0.03122,0.156071 0.03125,0.15625 a 0.99425786,0.99425786 0 0 0 0,0.03125 L 32.5,33.65625 C 32.003578,34.15853 31.542033,34.699265 31.09375,35.25 L 25.875,34.1875 a 0.99425786,0.99425786 0 0 0 -0.03125,0 c -1.79e-4,-3e-5 -0.15607,-0.03123 -0.15625,-0.03125 -1.8e-4,-1.6e-5 -0.124819,3e-6 -0.125,0 -1.81e-4,-3e-6 -0.156069,-1.1e-5 -0.15625,0 -1.81e-4,1.1e-5 -0.15607,-2.5e-5 -0.15625,0 -1.8e-4,2.5e-5 -0.156073,0.03121 -0.15625,0.03125 -1.77e-4,3.8e-5 -0.124826,0.0312 -0.125,0.03125 -1.74e-4,5.2e-5 -0.156081,0.06244 -0.15625,0.0625 -1.69e-4,6.5e-5 -0.156086,0.06242 -0.15625,0.0625 -1.64e-4,7.7e-5 -0.124842,0.06241 -0.125,0.0625 -1.58e-4,9e-5 -0.12485,0.09365 -0.125,0.09375 -1.5e-4,1.01e-4 -0.124858,0.06239 -0.125,0.0625 -1.42e-4,1.12e-4 -0.124867,0.124877 -0.125,0.125 -1.33e-4,1.23e-4 -0.09363,0.09362 -0.09375,0.09375 -1.24e-4,1.33e-4 -0.09364,0.124859 -0.09375,0.125 -1.13e-4,1.41e-4 -0.09365,0.12485 -0.09375,0.125 -1.02e-4,1.5e-4 -0.09366,0.124843 -0.09375,0.125 -9.1e-5,1.57e-4 -0.06242,0.124837 -0.0625,0.125 -7.8e-5,1.63e-4 -0.06243,0.124831 -0.0625,0.125 -6.6e-5,1.69e-4 -0.0312,0.156077 -0.03125,0.15625 -5.3e-5,1.73e-4 -0.06246,0.156073 -0.0625,0.15625 -4e-5,1.77e-4 2.6e-5,0.124821 0,0.125 -2.6e-5,1.79e-4 -0.03124,0.156069 -0.03125,0.15625 -1.2e-5,1.81e-4 -1e-6,0.156069 0,0.15625 1e-6,1.81e-4 -1.5e-5,0.156069 0,0.15625 1.5e-5,1.81e-4 0.03122,0.156071 0.03125,0.15625 2.9e-5,1.79e-4 0.03121,0.124824 0.03125,0.125 4.2e-5,1.76e-4 0.0312,0.156077 0.03125,0.15625 5.5e-5,1.73e-4 0.06243,0.156082 0.0625,0.15625 6.8e-5,1.68e-4 0.06242,0.124838 0.0625,0.125 8.1e-5,1.62e-4 0.06241,0.124844 0.0625,0.125 9.3e-5,1.56e-4 0.09365,0.124852 0.09375,0.125 1.04e-4,1.48e-4 0.06238,0.12486 0.0625,0.125 A 0.99425786,0.99425786 0 0 0 24,37.4375 l 3.5625,4 c -0.316253,0.842588 -0.566627,1.725429 -0.78125,2.625 L 17.375,47.21875 a 0.99425786,0.99425786 0 0 0 -0.03125,0 c -1.69e-4,6.4e-5 -0.156086,0.06242 -0.15625,0.0625 -1.64e-4,7.6e-5 -0.124842,0.06241 -0.125,0.0625 -1.58e-4,8.8e-5 -0.124849,0.09365 -0.125,0.09375 -1.51e-4,1e-4 -0.124857,0.09364 -0.125,0.09375 -1.43e-4,1.11e-4 -0.124866,0.09363 -0.125,0.09375 -1.34e-4,1.22e-4 -0.09363,0.09362 -0.09375,0.09375 -1.24e-4,1.32e-4 -0.09364,0.124859 -0.09375,0.125 -1.14e-4,1.41e-4 -0.09365,0.124851 -0.09375,0.125 -1.03e-4,1.49e-4 -0.09366,0.124844 -0.09375,0.125 -9.2e-5,1.56e-4 -0.06242,0.124837 -0.0625,0.125 -7.9e-5,1.63e-4 -0.06243,0.124832 -0.0625,0.125 -6.7e-5,1.68e-4 -0.06245,0.156077 -0.0625,0.15625 -5.4e-5,1.73e-4 -0.03121,0.156074 -0.03125,0.15625 -4.1e-5,1.76e-4 -0.03122,0.124821 -0.03125,0.125 -2.7e-5,1.79e-4 1.4e-5,0.15607 0,0.15625 -1.4e-5,1.8e-4 -0.03125,0.156069 -0.03125,0.15625 0,1.81e-4 0.03124,0.15607 0.03125,0.15625 1.4e-5,1.8e-4 -2.7e-5,0.156071 0,0.15625 2.7e-5,1.79e-4 0.03121,0.124824 0.03125,0.125 4.1e-5,1.76e-4 0.0312,0.156077 0.03125,0.15625 5.4e-5,1.73e-4 0.06243,0.156082 0.0625,0.15625 6.7e-5,1.68e-4 0.06242,0.124837 0.0625,0.125 7.9e-5,1.63e-4 0.06241,0.124844 0.0625,0.125 9.2e-5,1.56e-4 0.09365,0.124851 0.09375,0.125 1.03e-4,1.49e-4 0.09364,0.124859 0.09375,0.125 1.14e-4,1.41e-4 0.09363,0.124868 0.09375,0.125 1.24e-4,1.32e-4 0.09362,0.09363 0.09375,0.09375 1.34e-4,1.22e-4 0.124857,0.09364 0.125,0.09375 1.43e-4,1.11e-4 0.124849,0.09365 0.125,0.09375 1.51e-4,1e-4 0.124842,0.09366 0.125,0.09375 1.58e-4,8.8e-5 0.124836,0.06242 0.125,0.0625 1.64e-4,7.6e-5 0.156081,0.06244 0.15625,0.0625 a 0.99425786,0.99425786 0 0 0 0.03125,0 l 9.46875,3.125 c 0.343344,1.441451 0.82301,2.833864 1.4375,4.15625 l -3.875,4.40625 A 0.99425786,0.99425786 0 0 0 24.375,62.6875 c -1.15e-4,1.4e-4 -0.0624,0.124852 -0.0625,0.125 -1.04e-4,1.48e-4 -0.09366,0.124844 -0.09375,0.125 -9.3e-5,1.56e-4 -0.06242,0.124838 -0.0625,0.125 -8.1e-5,1.62e-4 -0.06243,0.124832 -0.0625,0.125 -6.8e-5,1.68e-4 -0.06245,0.156077 -0.0625,0.15625 -5.5e-5,1.73e-4 -0.03121,0.156074 -0.03125,0.15625 -4.2e-5,1.76e-4 -0.03122,0.124821 -0.03125,0.125 -2.9e-5,1.79e-4 -0.03123,0.156069 -0.03125,0.15625 -1.5e-5,1.81e-4 1e-6,0.156069 0,0.15625 -1e-6,1.81e-4 -1.2e-5,0.156069 0,0.15625 1.2e-5,1.81e-4 0.03122,0.156071 0.03125,0.15625 2.6e-5,1.79e-4 -4e-5,0.124823 0,0.125 4e-5,1.77e-4 0.06245,0.156077 0.0625,0.15625 5.3e-5,1.73e-4 0.03118,0.156081 0.03125,0.15625 6.6e-5,1.69e-4 0.06242,0.124837 0.0625,0.125 7.8e-5,1.63e-4 0.06241,0.124843 0.0625,0.125 9.1e-5,1.57e-4 0.09365,0.12485 0.09375,0.125 1.02e-4,1.5e-4 0.09364,0.124859 0.09375,0.125 1.13e-4,1.41e-4 0.09363,0.124867 0.09375,0.125 1.24e-4,1.33e-4 0.09362,0.09363 0.09375,0.09375 1.33e-4,1.23e-4 0.124858,0.124888 0.125,0.125 1.42e-4,1.12e-4 0.12485,0.0624 0.125,0.0625 1.5e-4,1.01e-4 0.124842,0.09366 0.125,0.09375 1.58e-4,9e-5 0.124836,0.06242 0.125,0.0625 1.64e-4,7.7e-5 0.156081,0.06243 0.15625,0.0625 1.69e-4,6.5e-5 0.156076,0.06245 0.15625,0.0625 1.74e-4,5.2e-5 0.124823,0.03121 0.125,0.03125 1.77e-4,3.8e-5 0.15607,0.03123 0.15625,0.03125 1.8e-4,2.5e-5 0.156069,-1.1e-5 0.15625,0 1.81e-4,1.1e-5 0.156069,3e-6 0.15625,0 1.81e-4,-3e-6 0.12482,1.6e-5 0.125,0 1.8e-4,-1.6e-5 0.156071,-0.03122 0.15625,-0.03125 a 0.99425786,0.99425786 0 0 0 0.03125,0 l 6.4375,-1.3125 c 0.475417,0.464874 0.988016,0.895193 1.5,1.3125 l -1.0625,5.21875 a 0.99425786,0.99425786 0 0 0 0,0.03125 c -3e-5,1.79e-4 -0.03123,0.15607 -0.03125,0.15625 -1.6e-5,1.8e-4 3e-6,0.124819 0,0.125 -3e-6,1.81e-4 -1.1e-5,0.156069 0,0.15625 1.1e-5,1.81e-4 -2.5e-5,0.15607 0,0.15625 2.5e-5,1.8e-4 0.03121,0.156073 0.03125,0.15625 3.8e-5,1.77e-4 0.0312,0.124826 0.03125,0.125 5.2e-5,1.74e-4 0.06244,0.156081 0.0625,0.15625 6.5e-5,1.69e-4 0.06242,0.156086 0.0625,0.15625 7.7e-5,1.64e-4 0.06241,0.124842 0.0625,0.125 9e-5,1.58e-4 0.09365,0.12485 0.09375,0.125 1.01e-4,1.5e-4 0.06239,0.124858 0.0625,0.125 1.12e-4,1.42e-4 0.124877,0.124867 0.125,0.125 1.23e-4,1.33e-4 0.09362,0.09363 0.09375,0.09375 1.33e-4,1.24e-4 0.124859,0.09364 0.125,0.09375 1.41e-4,1.13e-4 0.12485,0.09365 0.125,0.09375 1.5e-4,1.02e-4 0.124843,0.09366 0.125,0.09375 1.57e-4,9.1e-5 0.124837,0.06242 0.125,0.0625 1.63e-4,7.8e-5 0.124831,0.06243 0.125,0.0625 1.69e-4,6.6e-5 0.156077,0.0312 0.15625,0.03125 1.73e-4,5.3e-5 0.156073,0.06246 0.15625,0.0625 1.77e-4,4e-5 0.124821,-2.6e-5 0.125,0 1.79e-4,2.6e-5 0.156069,0.03124 0.15625,0.03125 1.81e-4,1.2e-5 0.156069,10e-7 0.15625,0 1.81e-4,-10e-7 0.156069,1.5e-5 0.15625,0 1.81e-4,-1.5e-5 0.156071,-0.03122 0.15625,-0.03125 1.79e-4,-2.9e-5 0.124824,-0.03121 0.125,-0.03125 1.76e-4,-4.2e-5 0.156077,-0.03119 0.15625,-0.03125 1.73e-4,-5.5e-5 0.156082,-0.06243 0.15625,-0.0625 1.68e-4,-6.8e-5 0.124838,-0.06242 0.125,-0.0625 1.62e-4,-8.1e-5 0.124844,-0.06241 0.125,-0.0625 1.56e-4,-9.3e-5 0.124852,-0.09365 0.125,-0.09375 1.48e-4,-1.04e-4 0.12486,-0.06239 0.125,-0.0625 A 0.99425786,0.99425786 0 0 0 36.40625,73 l 4,-3.53125 c 0.865471,0.330739 1.764676,0.621999 2.6875,0.84375 l 3.125,9.3125 a 0.99425786,0.99425786 0 0 0 0,0.03125 c 6.4e-5,1.69e-4 0.06242,0.156086 0.0625,0.15625 7.6e-5,1.64e-4 0.06241,0.124842 0.0625,0.125 8.8e-5,1.58e-4 0.09365,0.124849 0.09375,0.125 1e-4,1.51e-4 0.09364,0.124857 0.09375,0.125 1.11e-4,1.43e-4 0.09363,0.124866 0.09375,0.125 1.22e-4,1.34e-4 0.09362,0.09363 0.09375,0.09375 1.32e-4,1.24e-4 0.124859,0.09364 0.125,0.09375 1.41e-4,1.14e-4 0.124851,0.09365 0.125,0.09375 1.49e-4,1.03e-4 0.124844,0.09366 0.125,0.09375 1.56e-4,9.2e-5 0.124837,0.06242 0.125,0.0625 1.63e-4,7.9e-5 0.124832,0.06243 0.125,0.0625 1.68e-4,6.7e-5 0.156077,0.06245 0.15625,0.0625 1.73e-4,5.4e-5 0.156074,0.03121 0.15625,0.03125 1.76e-4,4.1e-5 0.124821,0.03122 0.125,0.03125 1.79e-4,2.7e-5 0.15607,-1.4e-5 0.15625,0 1.8e-4,1.4e-5 0.156069,0.03125 0.15625,0.03125 1.81e-4,0 0.15607,-0.03124 0.15625,-0.03125 1.8e-4,-1.4e-5 0.156071,2.7e-5 0.15625,0 1.79e-4,-2.7e-5 0.124824,-0.03121 0.125,-0.03125 1.76e-4,-4.1e-5 0.156077,-0.0312 0.15625,-0.03125 1.73e-4,-5.4e-5 0.156082,-0.06243 0.15625,-0.0625 1.68e-4,-6.7e-5 0.124837,-0.06242 0.125,-0.0625 1.63e-4,-7.9e-5 0.124844,-0.06241 0.125,-0.0625 1.56e-4,-9.2e-5 0.124851,-0.09365 0.125,-0.09375 1.49e-4,-1.03e-4 0.124859,-0.09364 0.125,-0.09375 1.41e-4,-1.14e-4 0.124868,-0.09363 0.125,-0.09375 1.32e-4,-1.24e-4 0.09363,-0.09362 0.09375,-0.09375 1.22e-4,-1.34e-4 0.09364,-0.124857 0.09375,-0.125 1.11e-4,-1.43e-4 0.09365,-0.124849 0.09375,-0.125 1e-4,-1.51e-4 0.09366,-0.124842 0.09375,-0.125 8.8e-5,-1.58e-4 0.06242,-0.124836 0.0625,-0.125 7.6e-5,-1.64e-4 0.06244,-0.156081 0.0625,-0.15625 a 0.99425786,0.99425786 0 0 0 0,-0.03125 l 3.09375,-9.3125 c 1.513166,-0.361438 2.980131,-0.88204 4.34375,-1.53125 L 61.59375,72.5 a 0.99425786,0.99425786 0 0 0 0.03125,0.03125 c 1.4e-4,1.15e-4 0.124852,0.0624 0.125,0.0625 1.48e-4,1.04e-4 0.124844,0.09366 0.125,0.09375 1.56e-4,9.3e-5 0.124838,0.06242 0.125,0.0625 1.62e-4,8.1e-5 0.124832,0.06243 0.125,0.0625 1.68e-4,6.8e-5 0.156077,0.06244 0.15625,0.0625 1.73e-4,5.5e-5 0.156074,0.03121 0.15625,0.03125 1.76e-4,4.2e-5 0.124821,0.03122 0.125,0.03125 1.79e-4,2.9e-5 0.156069,0.03123 0.15625,0.03125 1.81e-4,1.5e-5 0.156069,-10e-7 0.15625,0 1.81e-4,10e-7 0.156069,1.2e-5 0.15625,0 1.81e-4,-1.2e-5 0.156071,-0.03122 0.15625,-0.03125 1.79e-4,-2.6e-5 0.124823,4e-5 0.125,0 1.77e-4,-4e-5 0.156077,-0.06245 0.15625,-0.0625 1.73e-4,-5.3e-5 0.156081,-0.03118 0.15625,-0.03125 1.69e-4,-6.6e-5 0.124837,-0.06242 0.125,-0.0625 1.63e-4,-7.8e-5 0.124843,-0.06241 0.125,-0.0625 1.57e-4,-9.1e-5 0.12485,-0.09365 0.125,-0.09375 1.5e-4,-1.02e-4 0.124859,-0.09364 0.125,-0.09375 1.41e-4,-1.13e-4 0.124867,-0.09363 0.125,-0.09375 1.33e-4,-1.24e-4 0.09363,-0.09362 0.09375,-0.09375 1.23e-4,-1.33e-4 0.124888,-0.124858 0.125,-0.125 1.12e-4,-1.42e-4 0.0624,-0.12485 0.0625,-0.125 1.01e-4,-1.5e-4 0.09366,-0.124842 0.09375,-0.125 9e-5,-1.58e-4 0.06242,-0.124836 0.0625,-0.125 7.7e-5,-1.64e-4 0.06243,-0.156081 0.0625,-0.15625 6.5e-5,-1.69e-4 0.06245,-0.156076 0.0625,-0.15625 5.2e-5,-1.74e-4 0.03121,-0.124823 0.03125,-0.125 3.8e-5,-1.77e-4 0.03123,-0.15607 0.03125,-0.15625 2.5e-5,-1.8e-4 -1.1e-5,-0.156069 0,-0.15625 1.1e-5,-1.81e-4 3e-6,-0.156069 0,-0.15625 -3e-6,-1.81e-4 1.6e-5,-0.12482 0,-0.125 -1.6e-5,-1.8e-4 -0.03122,-0.156071 -0.03125,-0.15625 a 0.99425786,0.99425786 0 0 0 0,-0.03125 l -1.25,-6.15625 c 0.484782,-0.480674 0.960728,-0.968547 1.40625,-1.5 l 5.03125,1 a 0.99425786,0.99425786 0 0 0 0.03125,0 c 1.79e-4,3e-5 0.15607,0.03123 0.15625,0.03125 1.8e-4,1.6e-5 0.124819,-3e-6 0.125,0 1.81e-4,3e-6 0.156069,1.1e-5 0.15625,0 1.81e-4,-1.1e-5 0.15607,2.5e-5 0.15625,0 1.8e-4,-2.5e-5 0.156073,-0.03121 0.15625,-0.03125 1.77e-4,-3.8e-5 0.124826,-0.0312 0.125,-0.03125 1.74e-4,-5.2e-5 0.156081,-0.06244 0.15625,-0.0625 1.69e-4,-6.5e-5 0.156086,-0.06242 0.15625,-0.0625 1.64e-4,-7.7e-5 0.124842,-0.06241 0.125,-0.0625 1.58e-4,-9e-5 0.12485,-0.09365 0.125,-0.09375 1.5e-4,-1.01e-4 0.124858,-0.06239 0.125,-0.0625 1.42e-4,-1.12e-4 0.124867,-0.124877 0.125,-0.125 1.33e-4,-1.23e-4 0.09363,-0.09362 0.09375,-0.09375 1.24e-4,-1.33e-4 0.09364,-0.124859 0.09375,-0.125 1.13e-4,-1.41e-4 0.09365,-0.12485 0.09375,-0.125 1.02e-4,-1.5e-4 0.09366,-0.124843 0.09375,-0.125 9.1e-5,-1.57e-4 0.06242,-0.124837 0.0625,-0.125 7.8e-5,-1.63e-4 0.06243,-0.124831 0.0625,-0.125 6.6e-5,-1.69e-4 0.0312,-0.156077 0.03125,-0.15625 5.3e-5,-1.73e-4 0.06246,-0.156073 0.0625,-0.15625 4e-5,-1.77e-4 -2.6e-5,-0.124821 0,-0.125 2.6e-5,-1.79e-4 0.03124,-0.156069 0.03125,-0.15625 1.2e-5,-1.81e-4 10e-7,-0.156069 0,-0.15625 -10e-7,-1.81e-4 1.5e-5,-0.156069 0,-0.15625 -1.5e-5,-1.81e-4 -0.03122,-0.156071 -0.03125,-0.15625 -2.9e-5,-1.79e-4 -0.03121,-0.124824 -0.03125,-0.125 -4.2e-5,-1.76e-4 -0.03119,-0.156077 -0.03125,-0.15625 -5.5e-5,-1.73e-4 -0.06243,-0.156082 -0.0625,-0.15625 -6.8e-5,-1.68e-4 -0.06242,-0.124838 -0.0625,-0.125 -8.1e-5,-1.62e-4 -0.06241,-0.124844 -0.0625,-0.125 -9.3e-5,-1.56e-4 -0.09365,-0.124852 -0.09375,-0.125 -1.04e-4,-1.48e-4 -0.06239,-0.12486 -0.0625,-0.125 A 0.99425786,0.99425786 0 0 0 71.90625,60.71875 L 68.46875,56.875 c 0.356323,-0.907933 0.671501,-1.842352 0.90625,-2.8125 l 9.25,-3.09375 a 0.99425786,0.99425786 0 0 0 0.03125,0 c 1.69e-4,-6.4e-5 0.156086,-0.06242 0.15625,-0.0625 1.64e-4,-7.6e-5 0.124842,-0.06241 0.125,-0.0625 1.58e-4,-8.8e-5 0.124849,-0.09365 0.125,-0.09375 1.51e-4,-1e-4 0.124857,-0.09364 0.125,-0.09375 1.43e-4,-1.11e-4 0.124866,-0.09363 0.125,-0.09375 1.34e-4,-1.22e-4 0.09363,-0.09362 0.09375,-0.09375 1.24e-4,-1.32e-4 0.09364,-0.124859 0.09375,-0.125 1.14e-4,-1.41e-4 0.09365,-0.124851 0.09375,-0.125 1.03e-4,-1.49e-4 0.09366,-0.124844 0.09375,-0.125 9.2e-5,-1.56e-4 0.06242,-0.124837 0.0625,-0.125 7.9e-5,-1.63e-4 0.06243,-0.124832 0.0625,-0.125 6.7e-5,-1.68e-4 0.06245,-0.156077 0.0625,-0.15625 5.4e-5,-1.73e-4 0.03121,-0.156074 0.03125,-0.15625 4.1e-5,-1.76e-4 0.03122,-0.124821 0.03125,-0.125 2.7e-5,-1.79e-4 -1.4e-5,-0.15607 0,-0.15625 1.4e-5,-1.8e-4 0.03125,-0.156069 0.03125,-0.15625 0,-1.81e-4 -0.03124,-0.15607 -0.03125,-0.15625 -1.4e-5,-1.8e-4 2.7e-5,-0.156071 0,-0.15625 -2.7e-5,-1.79e-4 -0.03121,-0.124824 -0.03125,-0.125 -4.1e-5,-1.76e-4 -0.0312,-0.156077 -0.03125,-0.15625 -5.4e-5,-1.73e-4 -0.06243,-0.156082 -0.0625,-0.15625 -6.7e-5,-1.68e-4 -0.06242,-0.124837 -0.0625,-0.125 -7.9e-5,-1.63e-4 -0.06241,-0.124844 -0.0625,-0.125 -9.2e-5,-1.56e-4 -0.09365,-0.124851 -0.09375,-0.125 -1.03e-4,-1.49e-4 -0.09364,-0.124859 -0.09375,-0.125 -1.14e-4,-1.41e-4 -0.09363,-0.124868 -0.09375,-0.125 -1.24e-4,-1.32e-4 -0.09362,-0.09363 -0.09375,-0.09375 -1.34e-4,-1.22e-4 -0.124857,-0.09364 -0.125,-0.09375 -1.43e-4,-1.11e-4 -0.124849,-0.09365 -0.125,-0.09375 -1.51e-4,-1e-4 -0.124842,-0.09366 -0.125,-0.09375 -1.58e-4,-8.8e-5 -0.124836,-0.06242 -0.125,-0.0625 -1.64e-4,-7.6e-5 -0.156081,-0.06244 -0.15625,-0.0625 a 0.99425786,0.99425786 0 0 0 -0.03125,0 l -9.21875,-3.0625 c -0.352572,-1.559228 -0.864038,-3.077111 -1.53125,-4.5 L 71.53125,35.5 a 0.99425786,0.99425786 0 0 0 0.03125,-0.03125 c 1.15e-4,-1.4e-4 0.0624,-0.124852 0.0625,-0.125 1.04e-4,-1.48e-4 0.09366,-0.124844 0.09375,-0.125 9.3e-5,-1.56e-4 0.06242,-0.124838 0.0625,-0.125 8.1e-5,-1.62e-4 0.06243,-0.124832 0.0625,-0.125 6.8e-5,-1.68e-4 0.06244,-0.156077 0.0625,-0.15625 5.5e-5,-1.73e-4 0.03121,-0.156074 0.03125,-0.15625 4.2e-5,-1.76e-4 0.03122,-0.124821 0.03125,-0.125 2.9e-5,-1.79e-4 0.03123,-0.156069 0.03125,-0.15625 1.5e-5,-1.81e-4 -10e-7,-0.156069 0,-0.15625 10e-7,-1.81e-4 1.2e-5,-0.156069 0,-0.15625 -1.2e-5,-1.81e-4 -0.03122,-0.156071 -0.03125,-0.15625 -2.6e-5,-1.79e-4 4e-5,-0.124823 0,-0.125 -4e-5,-1.77e-4 -0.06245,-0.156077 -0.0625,-0.15625 -5.3e-5,-1.73e-4 -0.03118,-0.156081 -0.03125,-0.15625 -6.6e-5,-1.69e-4 -0.06242,-0.124837 -0.0625,-0.125 -7.8e-5,-1.63e-4 -0.06241,-0.124843 -0.0625,-0.125 -9.1e-5,-1.57e-4 -0.09365,-0.12485 -0.09375,-0.125 -1.02e-4,-1.5e-4 -0.09364,-0.124859 -0.09375,-0.125 -1.13e-4,-1.41e-4 -0.09363,-0.124867 -0.09375,-0.125 -1.24e-4,-1.33e-4 -0.09362,-0.09363 -0.09375,-0.09375 -1.33e-4,-1.23e-4 -0.124858,-0.124888 -0.125,-0.125 -1.42e-4,-1.12e-4 -0.12485,-0.0624 -0.125,-0.0625 -1.5e-4,-1.01e-4 -0.124842,-0.09366 -0.125,-0.09375 -1.58e-4,-9e-5 -0.124836,-0.06242 -0.125,-0.0625 -1.64e-4,-7.7e-5 -0.156081,-0.06244 -0.15625,-0.0625 -1.69e-4,-6.5e-5 -0.156076,-0.06245 -0.15625,-0.0625 -1.74e-4,-5.2e-5 -0.124823,-0.03121 -0.125,-0.03125 -1.77e-4,-3.8e-5 -0.15607,-0.03122 -0.15625,-0.03125 -1.8e-4,-2.5e-5 -0.156069,1.1e-5 -0.15625,0 -1.81e-4,-1.1e-5 -0.156069,-3e-6 -0.15625,0 -1.81e-4,3e-6 -0.12482,-1.6e-5 -0.125,0 -1.8e-4,1.6e-5 -0.156071,0.03122 -0.15625,0.03125 a 0.99425786,0.99425786 0 0 0 -0.03125,0 l -6.125,1.25 C 63.029941,32.997 62.492333,32.521012 61.9375,32.0625 l 1.03125,-5.09375 a 0.99425786,0.99425786 0 0 0 0,-0.03125 c 3e-5,-1.79e-4 0.03123,-0.15607 0.03125,-0.15625 1.6e-5,-1.8e-4 -3e-6,-0.124819 0,-0.125 3e-6,-1.81e-4 1.1e-5,-0.156069 0,-0.15625 -1.1e-5,-1.81e-4 2.5e-5,-0.15607 0,-0.15625 -2.5e-5,-1.8e-4 -0.03121,-0.156073 -0.03125,-0.15625 -3.8e-5,-1.77e-4 -0.0312,-0.124826 -0.03125,-0.125 -5.2e-5,-1.74e-4 -0.06244,-0.156081 -0.0625,-0.15625 -6.5e-5,-1.69e-4 -0.06242,-0.156086 -0.0625,-0.15625 -7.7e-5,-1.64e-4 -0.06241,-0.124842 -0.0625,-0.125 -9e-5,-1.58e-4 -0.09365,-0.12485 -0.09375,-0.125 -1.01e-4,-1.5e-4 -0.06239,-0.124858 -0.0625,-0.125 -1.12e-4,-1.42e-4 -0.124877,-0.124867 -0.125,-0.125 -1.23e-4,-1.33e-4 -0.09362,-0.09363 -0.09375,-0.09375 -1.33e-4,-1.24e-4 -0.124859,-0.09364 -0.125,-0.09375 -1.41e-4,-1.13e-4 -0.12485,-0.09365 -0.125,-0.09375 -1.5e-4,-1.02e-4 -0.124843,-0.09366 -0.125,-0.09375 -1.57e-4,-9.1e-5 -0.124837,-0.06242 -0.125,-0.0625 -1.63e-4,-7.8e-5 -0.124831,-0.06243 -0.125,-0.0625 -1.69e-4,-6.6e-5 -0.156077,-0.0312 -0.15625,-0.03125 -1.73e-4,-5.3e-5 -0.156073,-0.06246 -0.15625,-0.0625 -1.77e-4,-4e-5 -0.124821,2.6e-5 -0.125,0 -1.79e-4,-2.6e-5 -0.156069,-0.03124 -0.15625,-0.03125 -1.81e-4,-1.2e-5 -0.156069,-1e-6 -0.15625,0 -1.81e-4,1e-6 -0.156069,-1.5e-5 -0.15625,0 -1.81e-4,1.5e-5 -0.156071,0.03122 -0.15625,0.03125 -1.79e-4,2.9e-5 -0.124824,0.03121 -0.125,0.03125 -1.76e-4,4.2e-5 -0.156077,0.0312 -0.15625,0.03125 -1.73e-4,5.5e-5 -0.156082,0.06243 -0.15625,0.0625 -1.68e-4,6.8e-5 -0.124838,0.06242 -0.125,0.0625 -1.62e-4,8.1e-5 -0.124844,0.06241 -0.125,0.0625 -1.56e-4,9.3e-5 -0.124852,0.09365 -0.125,0.09375 -1.48e-4,1.04e-4 -0.12486,0.06238 -0.125,0.0625 a 0.99425786,0.99425786 0 0 0 -0.03125,0.03125 L 55.8125,28.5625 c -0.879433,-0.34147 -1.773426,-0.645046 -2.71875,-0.875 l -3.125,-9.3125 c -6.4e-5,-2e-4 -0.06242,-0.156057 -0.0625,-0.15625 -8.1e-5,-1.93e-4 -0.0624,-0.156065 -0.0625,-0.15625 -9.7e-5,-1.85e-4 -0.09364,-0.156074 -0.09375,-0.15625 -1.13e-4,-1.76e-4 -0.09362,-0.124834 -0.09375,-0.125 -1.28e-4,-1.66e-4 -0.124858,-0.156096 -0.125,-0.15625 -1.42e-4,-1.54e-4 -0.124845,-0.124859 -0.125,-0.125 -1.55e-4,-1.41e-4 -0.124833,-0.09362 -0.125,-0.09375 -1.67e-4,-1.27e-4 -0.156073,-0.09364 -0.15625,-0.09375 -1.77e-4,-1.11e-4 -0.124814,-0.09365 -0.125,-0.09375 -1.86e-4,-9.6e-5 -0.156056,-0.06242 -0.15625,-0.0625 -1.94e-4,-7.9e-5 -0.1873,-0.06244 -0.1875,-0.0625 -2e-4,-6.2e-5 -0.156045,-0.06246 -0.15625,-0.0625 -2.05e-4,-4.4e-5 -0.187292,-0.03122 -0.1875,-0.03125 -2.08e-4,-2.6e-5 -0.156041,7e-6 -0.15625,0 -2.09e-4,-7e-6 -0.187291,-1.1e-5 -0.1875,0 -2.09e-4,1.1e-5 -0.156043,-2.9e-5 -0.15625,0 z"/>
<path style="opacity:.15" id="path4731" d="m 47.9375,18 a 1.00133,1.00133 0 0,0 -0.78125,0.6875 l -3.25,9.75 c -1.89678,0.38678 -3.70581,1.04722 -5.375,1.90625 l -4.75,-4.2188 a 1.00133,1.00133 0 0,0 -1.625,0.9375 l 1.4062,6.875 c -0.766341,0.737079 -1.47414,1.52517 -2.125,2.375 l -5.75,-1.1562 a 1.00133,1.00133 0 0,0 -0.9375,1.625 l 3.9375,4.4062 c -0.471061,1.16978 -0.869367,2.39512 -1.125,3.65625 l -9.875,3.3125 a 1.00133,1.00133 0 0,0 0,1.875 l 9.9062,3.2812 c 0.37873,1.82184 0.990588,3.56369 1.8125,5.1875 l -4.25,4.8125 a 1.00133,1.00133 0 0,0 0.9375,1.625 l 6.9062,-1.4062 c 0.711864,0.735339 1.47456,1.40971 2.28125,2.03125 l -1.1562,5.75 a 1.00133,1.00133 0 0,0 1.625,0.9375 l 4.4062,-3.875 c 1.1851,0.490104 2.42921,0.888746 3.71875,1.15625 l 3.2812,9.7812 a 1.00133,1.00133 0 0,0 1.875,0 l 3.25,-9.75 c 1.88553,-0.388256 3.6864,-1.05377 5.34375,-1.90625 l 4.625,4.0938 a 1.00133,1.00133 0 0,0 1.625,-0.9375 l -1.3438,-6.6562 c 0.743178,-0.706537 1.45558,-1.46792 2.09375,-2.28125 l 5.5938,1.125 a 1.00133,1.00133 0 0,0 0.9375,-1.625 l -3.7812,-4.25 c 0.521929,-1.23323 0.939005,-2.50321 1.21875,-3.84375 l 9.7188,-3.25 a 1.00133,1.00133 0 0,0 0,-1.875 l -9.6562,-3.2188 c -0.383233,-1.94481 -1.0245,-3.81528 -1.90625,-5.53125 l 4.0312,-4.5625 a 1.00133,1.00133 0 0,0 -0.9375,-1.625 l -6.625,1.3438 c -0.741647,-0.773492 -1.52673,-1.50613 -2.375,-2.15625 l 1.1562,-5.625 a 1.00133,1.00133 0 0,0 -1.625,-0.9375 l -4.3125,3.8125 c -1.19203,-0.498282 -2.44647,-0.913505 -3.75,-1.1875 l -3.2812,-9.7812 a 1.00133,1.00133 0 0,0 -1.09375,-0.6875 z "/>
<path style="opacity:.3" id="path4430" d="m 48.0938,19 -3.4375,10.2812 c -2.26161,0.39053 -4.37906,1.16788 -6.3125,2.25 l -5.2188,-4.6562 1.5,7.375 c -1.04142,0.951686 -1.99105,2.00513 -2.8125,3.15625 l -6.3125,-1.2812 4.2812,4.8125 c -0.651337,1.47572 -1.1271,3.05034 -1.40625,4.6875 l -10.375,3.4688 10.4375,3.4688 c 0.393945,2.18291 1.11547,4.2501 2.15625,6.125 l -4.6875,5.2812 7.4062,-1.5 c 0.920164,1.00901 1.95477,1.91514 3.0625,2.71875 l -1.2812,6.3125 4.8125,-4.25 c 1.50042,0.674892 3.08045,1.18045 4.75,1.46875 l 3.4375,10.2812 3.4375,-10.2812 c 2.24568,-0.389944 4.35925,-1.17766 6.28125,-2.25 l 5.0938,4.5312 -1.4375,-7.1562 c 1.02148,-0.922238 1.96767,-1.9491 2.78125,-3.0625 l 6.1562,1.25 -4.1562,-4.6562 c 0.707945,-1.53057 1.22843,-3.16475 1.53125,-4.875 l 10.2188,-3.4062 -10.1875,-3.4062 c -0.384863,-2.29911 -1.15181,-4.47534 -2.25,-6.4375 l 4.4688,-5.0625 -7.0938,1.4375 c -0.956418,-1.06149 -2.02555,-2.00687 -3.1875,-2.84375 l 1.2812,-6.1875 -4.7188,4.1875 c -1.50594,-0.68118 -3.10422,-1.2088 -4.78125,-1.5 l -3.4375,-10.2812 z "/>
</g>
<g id="g3898" transform="matrix(0.93557115,0.54015226,-0.54015226,0.93557115,29.081901,-22.78917)">
<path style="opacity:.3;color:#000;stroke-width:1.5" id="path3900" d="m 51.846,33.0957 a 3.91885,1.10358 0 1,1 -7.8377,0 3.91885,1.10358 0 1,1 7.8377,0 z "/>
<path style="fill:url(#linearGradient4294)" id="path3902" d="m 45,33 3,-9 3,9 c 0,0 -3.13432,1.7015 -6,0 z "/>
<g style="fill:#fff">
<path style="opacity:.15" id="path3904" d="m 48,24 -2.317197,9.362511 c 0.500378,0.176421 1.154131,0.367058 2.008621,0.401553 L 48,24 z"/>
<path style="opacity:.3" id="path3906" d="m 48,24 -1.75,9.53125 c 0.296466,0.08579 0.586934,0.153005 0.875,0.1875 L 48,24 z"/>
</g>
</g>
<g id="g3908" transform="matrix(-0.54015226,0.93557115,0.93557115,0.54015226,28.974339,-22.760348)">
<path style="opacity:.3;color:#000;stroke-width:1.5" id="path3910" d="m 51.846,33.0957 a 3.91885,1.10358 0 1,1 -7.8377,0 3.91885,1.10358 0 1,1 7.8377,0 z "/>
<path style="fill:url(#linearGradient4296)" id="path3912" d="m 45,33 3,-9 3,9 c 0,0 -3.13432,1.7015 -6,0 z "/>
<g style="fill:#fff">
<path style="opacity:.15" id="path3914" d="m 48,24 -2.317197,9.362511 c 0.500378,0.176421 1.154131,0.367058 2.008621,0.401553 L 48,24 z"/>
<path style="opacity:.3" id="path3916" d="m 48,24 -1.75,9.53125 c 0.296466,0.08579 0.586934,0.153005 0.875,0.1875 L 48,24 z"/>
</g>
</g>
<g id="g3918" transform="matrix(0.93557115,0.54015226,-0.54015226,0.93557115,29.081901,-22.78917)">
<path style="opacity:.3;color:#000;stroke-width:1.5" id="path3920" d="m 51.846,33.0957 a 3.91885,1.10358 0 1,1 -7.8377,0 3.91885,1.10358 0 1,1 7.8377,0 z " transform="matrix(1,0,0,-1,-1.5869141e-7,96)"/>
<path style="fill:url(#linearGradient4298)" id="path3922" d="m 45,63 3,9 3,-9 c 0,0 -3.13432,-1.7015 -6,0 z "/>
<g style="fill:#fff">
<path style="opacity:.15" id="path3924" d="m 48,72 -2.317197,-9.362511 c 0.500378,-0.176421 1.154131,-0.367058 2.008621,-0.401553 L 48,72 z"/>
<path style="opacity:.3" id="path3926" d="m 48,72 -1.75,-9.53125 c 0.296466,-0.08579 0.586934,-0.153005 0.875,-0.1875 L 48,72 z"/>
</g>
<path style="opacity:.3" id="path3928" d="m 45,63 3,9 3,-9 c 0,0 -3.13432,-1.7015 -6,0 z "/>
</g>
<g id="g3930" transform="matrix(0.93557115,0.54015226,-0.54015226,0.93557115,29.081901,-22.78917)">
<path style="opacity:.3;color:#000;stroke-width:1.5" id="path3932" d="m 51.846,33.0957 a 3.91885,1.10358 0 1,1 -7.8377,0 3.91885,1.10358 0 1,1 7.8377,0 z " transform="matrix(0,1,-1,0,95.927112,0.07288784)"/>
<path style="fill:url(#linearGradient4300)" id="path3934" d="m 62.9271,45.0729 9,3 -9,3 c 0,0 -1.7015,-3.13432 0,-6 z "/>
<g style="fill:#fff">
<path style="opacity:.15" id="path3936" d="m 71.9271,48.0729 -9.3625,-2.3172 c -0.176421,0.500378 -0.367058,1.15413 -0.401553,2.00862 l 9.7641,.3086 z "/>
<path style="opacity:.3" id="path3938" d="m 71.9271,48.0729 -9.5312,-1.75 c -0.08579,0.296466 -0.153005,0.586934 -0.1875,0.875 l 9.7188,.875 z "/>
</g>
<path style="opacity:.5" id="path3940" d="m 62.9271,45.0729 9,3 -9,3 c 0,0 -1.7015,-3.13432 0,-6 z "/>
</g>
<path style="fill:url(#radialGradient4302);stroke-width:1.5" id="path3782" d="m 48,40 a 8,8 0 1 1 -16,0 8,8 0 1 1 16,0 z" transform="matrix(2.5,0,0,2.5,-51.90889,-52)"/>
<g id="g3826" transform="matrix(1.25,0,0,1.25,-11.90889,-12)">
<path style="opacity:.3;color:#000;stroke-width:1.5" id="path3824" d="m 51.846,33.0957 a 3.91885,1.10358 0 1,1 -7.8377,0 3.91885,1.10358 0 1,1 7.8377,0 z "/>
<path style="fill:url(#linearGradient4304)" id="path3800" d="m 45,33 3,-9 3,9 c 0,0 -3.13432,1.7015 -6,0 z "/>
<g style="fill:#fff">
<path style="opacity:.15" id="path3822" d="m 48,24 -2.317197,9.362511 c 0.500378,0.176421 1.154131,0.367058 2.008621,0.401553 L 48,24 z"/>
<path style="opacity:.3" id="path3812" d="m 48,24 -1.75,9.53125 c 0.296466,0.08579 0.586934,0.153005 0.875,0.1875 L 48,24 z"/>
</g>
</g>
<g id="g3844" transform="matrix(0,1.25,1.25,0,-11.999999,-11.908891)">
<path style="opacity:.3;color:#000;stroke-width:1.5" id="path3846" d="m 51.846,33.0957 a 3.91885,1.10358 0 1,1 -7.8377,0 3.91885,1.10358 0 1,1 7.8377,0 z "/>
<path style="fill:url(#linearGradient4306)" id="path3848" d="m 45,33 3,-9 3,9 c 0,0 -3.13432,1.7015 -6,0 z "/>
<g style="fill:#fff">
<path style="opacity:.15" id="path3850" d="m 48,24 -2.317197,9.362511 c 0.500378,0.176421 1.154131,0.367058 2.008621,0.401553 L 48,24 z"/>
<path style="opacity:.3" id="path3852" d="m 48,24 -1.75,9.53125 c 0.296466,0.08579 0.586934,0.153005 0.875,0.1875 L 48,24 z"/>
</g>
</g>
<g id="g3891" transform="matrix(1.25,0,0,1.25,-11.90889,-12)">
<path style="opacity:.3;color:#000;stroke-width:1.5" id="path3834" d="m 51.846,33.0957 a 3.91885,1.10358 0 1,1 -7.8377,0 3.91885,1.10358 0 1,1 7.8377,0 z " transform="matrix(1,0,0,-1,-1.5869141e-7,96)"/>
<path style="fill:url(#linearGradient4308)" id="path3836" d="m 45,63 3,9 3,-9 c 0,0 -3.13432,-1.7015 -6,0 z "/>
<g style="fill:#fff">
<path style="opacity:.15" id="path3838" d="m 48,72 -2.317197,-9.362511 c 0.500378,-0.176421 1.154131,-0.367058 2.008621,-0.401553 L 48,72 z"/>
<path style="opacity:.3" id="path3840" d="m 48,72 -1.75,-9.53125 c 0.296466,-0.08579 0.586934,-0.153005 0.875,-0.1875 L 48,72 z"/>
</g>
<path style="opacity:.3" id="path3880" d="m 45,63 3,9 3,-9 c 0,0 -3.13432,-1.7015 -6,0 z "/>
</g>
<g id="g3884" transform="matrix(1.25,0,0,1.25,-11.90889,-12)">
<path style="opacity:.3;color:#000;stroke-width:1.5" id="path3858" d="m 51.846,33.0957 a 3.91885,1.10358 0 1,1 -7.8377,0 3.91885,1.10358 0 1,1 7.8377,0 z " transform="matrix(0,1,-1,0,95.927112,0.07288784)"/>
<path style="fill:url(#linearGradient4310)" id="path3860" d="m 62.9271,45.0729 9,3 -9,3 c 0,0 -1.7015,-3.13432 0,-6 z "/>
<g style="fill:#fff">
<path style="opacity:.15" id="path3862" d="m 71.9271,48.0729 -9.3625,-2.3172 c -0.176421,0.500378 -0.367058,1.15413 -0.401553,2.00862 l 9.7641,.3086 z "/>
<path style="opacity:.3" id="path3864" d="m 71.9271,48.0729 -9.5312,-1.75 c -0.08579,0.296466 -0.153005,0.586934 -0.1875,0.875 l 9.7188,.875 z "/>
</g>
<path style="opacity:.5" id="path3882" d="m 62.9271,45.0729 9,3 -9,3 c 0,0 -1.7015,-3.13432 0,-6 z "/>
</g>
<g id="g3950" transform="matrix(1.0755238,-0.62095395,0.62095395,1.0755238,-33.418394,29.88305)">
<path style="opacity:.3;color:#000;stroke-width:1.5" id="path3952" d="m 51.846,33.0957 a 3.91885,1.10358 0 1,1 -7.8377,0 3.91885,1.10358 0 1,1 7.8377,0 z "/>
<path style="fill:url(#linearGradient4312)" id="path3954" d="m 45,33 3,-9 3,9 c 0,0 -3.13432,1.7015 -6,0 z "/>
<g style="fill:#fff">
<path style="opacity:.15" id="path3956" d="m 48,24 -2.317197,9.362511 c 0.500378,0.176421 1.154131,0.367058 2.008621,0.401553 L 48,24 z"/>
<path style="opacity:.3" id="path3958" d="m 48,24 -1.75,9.53125 c 0.296466,0.08579 0.586934,0.153005 0.875,0.1875 L 48,24 z"/>
</g>
</g>
<g id="g3960" transform="matrix(0.62095395,1.0755238,1.0755238,-0.62095395,-29.701527,26.256703)">
<path style="opacity:.3;color:#000;stroke-width:1.5" id="path3962" d="m 51.846,33.0957 a 3.91885,1.10358 0 1,1 -7.8377,0 3.91885,1.10358 0 1,1 7.8377,0 z "/>
<path style="fill:url(#linearGradient4314)" id="path3964" d="m 45,33 3,-9 3,9 c 0,0 -3.13432,1.7015 -6,0 z "/>
<g style="fill:#fff">
<path style="opacity:.15" id="path3966" d="m 48,24 -2.317197,9.362511 c 0.500378,0.176421 1.154131,0.367058 2.008621,0.401553 L 48,24 z"/>
<path style="opacity:.3" id="path3968" d="m 48,24 -1.75,9.53125 c 0.296466,0.08579 0.586934,0.153005 0.875,0.1875 L 48,24 z"/>
</g>
</g>
<g id="g3970" transform="matrix(1.0755238,-0.62095395,0.62095395,1.0755238,-33.418394,22.38305)">
<path style="opacity:.3;color:#000;stroke-width:1.5" id="path3972" d="m 51.846,33.0957 a 3.91885,1.10358 0 1,1 -7.8377,0 3.91885,1.10358 0 1,1 7.8377,0 z " transform="matrix(1,0,0,-1,-1.5869141e-7,96)"/>
<path style="fill:url(#linearGradient4316)" id="path3974" d="m 45,63 3,9 3,-9 c 0,0 -3.13432,-1.7015 -6,0 z "/>
<g style="fill:#fff">
<path style="opacity:.15" id="path3976" d="m 48,72 -2.317197,-9.362511 c 0.500378,-0.176421 1.154131,-0.367058 2.008621,-0.401553 L 48,72 z"/>
<path style="opacity:.3" id="path3978" d="m 48,72 -1.75,-9.53125 c 0.296466,-0.08579 0.586934,-0.153005 0.875,-0.1875 L 48,72 z"/>
</g>
<path style="opacity:.5" id="path3980" d="m 45,63 3,9 3,-9 c 0,0 -3.13432,-1.7015 -6,0 z "/>
</g>
<g id="g3982" transform="matrix(1.0755238,-0.62095395,0.62095395,1.0755238,-37.168394,26.13305)">
<path style="opacity:.3;color:#000;stroke-width:1.5" id="path3984" d="m 51.846,33.0957 a 3.91885,1.10358 0 1,1 -7.8377,0 3.91885,1.10358 0 1,1 7.8377,0 z " transform="matrix(0,1,-1,0,95.927112,0.07288784)"/>
<path style="fill:url(#linearGradient4318)" id="path3986" d="m 62.9271,45.0729 9,3 -9,3 c 0,0 -1.7015,-3.13432 0,-6 z "/>
<g style="fill:#fff">
<path style="opacity:.15" id="path3988" d="m 71.9271,48.0729 -9.3625,-2.3172 c -0.176421,0.500378 -0.367058,1.15413 -0.401553,2.00862 l 9.7641,.3086 z "/>
<path style="opacity:.3" id="path3990" d="m 71.9271,48.0729 -9.5312,-1.75 c -0.08579,0.296466 -0.153005,0.586934 -0.1875,0.875 l 9.7188,.875 z "/>
</g>
<path style="opacity:.3" id="path3992" d="m 62.9271,45.0729 9,3 -9,3 c 0,0 -1.7015,-3.13432 0,-6 z "/>
</g>
<g style="stroke-width:1.5">
<path style="opacity:.5" id="path4136" d="m 51,48 a 3,3 0 1 1 -6,0 3,3 0 1 1 6,0 z" transform="matrix(1.49775,0,0,1.49775,-23.80089,-23.892)"/>
<path style="fill:url(#radialGradient4320)" id="path4015" d="m 51,48 a 3,3 0 1 1 -6,0 3,3 0 1 1 6,0 z" transform="matrix(1.25,0,0,1.25,-11.90889,-12)"/>
</g>
<g id="g4039" transform="matrix(1.25,0,0,1.25,-11.90889,-12)">
<path style="opacity:.5;color:#000;stroke-width:1.5" id="path4037" d="m 42.5533,47.9528 a 3.36616,3.65196 0 1,1 -6.73232,0 3.36616,3.65196 0 1,1 6.73232,0 z "/>
<path style="fill:url(#radialGradient4322)" id="path4004" d="m 34.9363,48.0729 c 0,0 2.25293,-3.07289 4.06369,-3.07289 4,0 4,6 0,6 -1.62159,-0.04504 -4.06369,-2.92711 -4.06369,-2.92711 z "/>
<g style="fill:#fff">
<path style="opacity:.15" id="path4032" d="M 40.34375,45.28125 35,48 41.96875,47.8125 c -0.0586,-1.046583 -0.589337,-2.058294 -1.625,-2.53125 z"/>
<path style="opacity:.3" id="path4027" d="m 40.875,45.625 -5.8125,2.4375 6.6875,-1.25 C 41.568015,46.353711 41.275952,45.939126 40.875,45.625 z"/>
</g>
</g>
<g id="g4045" transform="matrix(0,1.25,1.25,0,-11.849943,-12.058947)">
<path style="opacity:.5;color:#000;stroke-width:1.5" id="path4047" d="m 42.5533,47.9528 a 3.36616,3.65196 0 1,1 -6.73232,0 3.36616,3.65196 0 1,1 6.73232,0 z "/>
<path style="fill:url(#radialGradient4324)" id="path4049" d="m 34.9363,48.0729 c 0,0 2.25293,-3.07289 4.06369,-3.07289 4,0 4,6 0,6 -1.62159,-0.04504 -4.06369,-2.92711 -4.06369,-2.92711 z "/>
<g style="fill:#fff">
<path style="opacity:.15" id="path4051" d="M 40.34375,45.28125 35,48 41.96875,47.8125 c -0.0586,-1.046583 -0.589337,-2.058294 -1.625,-2.53125 z"/>
<path style="opacity:.3" id="path4053" d="m 40.875,45.625 -5.8125,2.4375 6.6875,-1.25 C 41.568015,46.353711 41.275952,45.939126 40.875,45.625 z"/>
</g>
</g>
<path style="opacity:.5;stroke-width:1.5" id="path4071" d="m 42.5533,47.9528 a 3.36616,3.65196 0 1,1 -6.73232,0 3.36616,3.65196 0 1,1 6.73232,0 z " transform="matrix(-1.25,0,0,1.25,108.09111,-12)"/>
<path style="fill:url(#radialGradient4346)" id="path4073" d="m 64.4207,48.0911 c 0,0 -2.81617,-3.84111 -5.07961,-3.84111 -5,0 -5,7.5 0,7.5 2.02699,-0.0563 5.07961,-3.65889 5.07961,-3.65889 z "/>
<g style="fill:#fff">
<path style="opacity:.15" id="path4075" d="m 57.6614,44.6016 6.6797,3.3984 -8.7109,-.2344 c 0.07325,-1.30823 0.736672,-2.57287 2.03125,-3.16406 z "/>
<path style="opacity:.3" id="path4077" d="m 56.9974,45.0312 7.2656,3.0469 -8.3594,-1.5625 c 0.227481,-0.573486 0.59256,-1.09172 1.09375,-1.48438 z "/>
</g>
<path style="opacity:.4" id="path4087" d="m 64.4207,48.0911 c 0,0 -2.81617,-3.84111 -5.07961,-3.84111 -5,0 -5,7.5 0,7.5 2.02699,-0.0563 5.07961,-3.65889 5.07961,-3.65889 z "/>
<path style="opacity:.5;stroke-width:1.5" id="path4110" d="m 42.5533,47.9528 a 3.36616,3.65196 0 1,1 -6.73232,0 3.36616,3.65196 0 1,1 6.73232,0 z " transform="matrix(0,-1.25,1.25,0,-11.849943,107.94105)"/>
<path style="fill:url(#radialGradient4339)" id="path4112" d="m 48.2412,64.2707 c 0,0 -3.84111,-2.81617 -3.84111,-5.07961 0,-5 7.5,-5 7.5,0 -0.0563,2.02699 -3.65889,5.07961 -3.65889,5.07961 z "/>
<g style="fill:#fff">
<path style="opacity:.15" id="path4114" d="m 44.7516,57.5114 3.3984,6.6797 -.2344,-8.7109 c -1.30823,0.07325 -2.57287,0.736672 -3.16406,2.03125 z "/>
<path style="opacity:.3" id="path4116" d="m 45.1813,56.8473 3.0469,7.2656 -1.5625,-8.3594 c -0.573486,0.227481 -1.09172,0.59256 -1.48438,1.09375 z "/>
</g>
<path style="opacity:.2" id="path4126" d="m 48.2412,64.2707 c 0,0 -3.84111,-2.81617 -3.84111,-5.07961 0,-5 7.5,-5 7.5,0 -0.0563,2.02699 -3.65889,5.07961 -3.65889,5.07961 z "/>
<g style="fill:#fff">
<path style="opacity:.3" id="path4140" d="m 46.2942,44.7188 c -0.610606,0.335402 -1.10183,0.839832 -1.44531,1.44531 l 3.2031,1.7578 -1.7578,-3.2031 z "/>
<path style="opacity:.15" id="path4142" d="m 47.1536,44.4062 c -1.25883,0.332816 -2.24435,1.29702 -2.61719,2.53906 l 3.6719,.9375 -1.0547,-3.4766 z "/>
</g>
<path style="opacity:.5;fill:url(#linearGradient4330);stroke-width:1.5" id="path4150" d="m 51,48 a 3,3 0 1 1 -6,0 3,3 0 1 1 6,0 z" transform="matrix(0.88388348,0.88388348,-0.88388348,0.88388348,48.09111,-36.852814)"/>
</g>
</g>
</svg>
