<svg width="96" version="1.0" xmlns="http://www.w3.org/2000/svg" height="96" xmlns:xlink="http://www.w3.org/1999/xlink">
<defs id="defs2410">
<clipPath id="clipPath3613">
<rect width="84" x="6" y="6" rx="6" height="84" ry="6" style="fill:#fff;stroke:none" id="rect3615"/>
</clipPath>
<filter width="1.3839999" x="-0.192" y="-0.192" height="1.3839999" style="color-interpolation-filters:sRGB" id="filter3794">
<feGaussianBlur stdDeviation="5.28" id="feGaussianBlur3796"/>
</filter>
<filter style="color-interpolation-filters:sRGB" id="filter3174">
<feGaussianBlur stdDeviation="1.71" id="feGaussianBlur3176"/>
</filter>
<filter width="1.2546898" x="-0.12734491" y="-0.30689704" height="1.6137941" style="color-interpolation-filters:sRGB" id="filter3737">
<feGaussianBlur stdDeviation="0.75639026" id="feGaussianBlur3739"/>
</filter>
<linearGradient id="linearGradient5047" xlink:href="#linearGradient3276" y1="21.091696" x1="27.734058" y2="21.091696" x2="19.766102" gradientUnits="userSpaceOnUse"/>
<linearGradient id="linearGradient5017" xlink:href="#linearGradient3410" y1="23.370684" x1="19.999998" y2="23.370684" x2="26.162327" gradientUnits="userSpaceOnUse"/>
<linearGradient id="linearGradient5019" xlink:href="#linearGradient3199" y1="23.370684" x1="18.999998" y2="23.370684" x2="28.484715" gradientUnits="userSpaceOnUse"/>
<linearGradient id="linearGradient5049" xlink:href="#linearGradient3410" y1="23.370684" x1="19.999998" y2="23.370684" x2="26.162327" gradientUnits="userSpaceOnUse"/>
<linearGradient gradientTransform="matrix(0.6881091,0,0,0.81437739,4.054585,1.6419846)" id="linearGradient3665" xlink:href="#linearGradient3659" y1="15.530697" x1="58.102489" y2="61.943794" x2="58.102489" gradientUnits="userSpaceOnUse"/>
<linearGradient id="linearGradient3659">
<stop offset="0" style="stop-color:#6fde00;stop-opacity:.742" id="stop3661"/>
<stop offset="1" style="stop-color:#e3ff77;stop-opacity:0" id="stop3663"/>
</linearGradient>
<linearGradient id="linearGradient5051" xlink:href="#linearGradient3199" y1="23.370684" x1="18.999998" y2="23.370684" x2="28.484715" gradientUnits="userSpaceOnUse"/>
<linearGradient id="linearGradient3455">
<stop offset="0" style="stop-color:#3b7e15" id="stop3457"/>
<stop offset="1" style="stop-color:#131813" id="stop3459"/>
</linearGradient>
<linearGradient id="linearGradient5015" xlink:href="#linearGradient3276" y1="21.091696" x1="27.734058" y2="21.091696" x2="19.766102" gradientUnits="userSpaceOnUse"/>
<linearGradient gradientTransform="matrix(0,-0.6881091,0.6881091,0,4.0545854,91.945421)" id="linearGradient4898" xlink:href="#linearGradient3191" y1="64" x1="13" y2="64" x2="115" gradientUnits="userSpaceOnUse"/>
<linearGradient id="linearGradient5071" xlink:href="#linearGradient3276" y1="21.091696" x1="27.734058" y2="21.091696" x2="19.766102" gradientUnits="userSpaceOnUse"/>
<linearGradient gradientTransform="matrix(1.0238095,0,0,1.0119048,-1.1428571,-98.071429)" id="linearGradient3780" xlink:href="#ButtonShadow-0" y1="6.1317081" x1="32.251034" y2="90.238609" x2="32.251034" gradientUnits="userSpaceOnUse"/>
<linearGradient id="linearGradient3567">
<stop offset="0" style="stop-color:#6ab700" id="stop3569"/>
<stop offset="1" style="stop-color:#6ab700;stop-opacity:0" id="stop3571"/>
</linearGradient>
<linearGradient gradientTransform="matrix(1.0238095,0,0,1.0119048,-1.1428571,-98.071429)" id="linearGradient3772" xlink:href="#ButtonShadow-0" y1="6.1317081" x1="32.251034" y2="90.238609" x2="32.251034" gradientUnits="userSpaceOnUse"/>
<linearGradient gradientTransform="translate(0,-97)" id="linearGradient3721" xlink:href="#ButtonShadow-0" y1="6.1317081" x1="32.251034" y2="90.238609" x2="32.251034" gradientUnits="userSpaceOnUse"/>
<linearGradient gradientTransform="matrix(1.0238095,0,0,1.0119048,-1.1428571,-98.071429)" id="linearGradient3725" xlink:href="#ButtonShadow-0" y1="6.1317081" x1="32.251034" y2="90.238609" x2="32.251034" gradientUnits="userSpaceOnUse"/>
<linearGradient gradientTransform="matrix(1.0058652,0,0,0.994169,100,0)" id="ButtonShadow-0" y1="92.539597" x1="45.447727" y2="7.0165396" x2="45.447727" gradientUnits="userSpaceOnUse">
<stop offset="0" id="stop3750-8"/>
<stop offset="1" style="stop-opacity:.588" id="stop3752-5"/>
</linearGradient>
<linearGradient id="linearGradient5073" xlink:href="#linearGradient3410" y1="23.370684" x1="19.999998" y2="23.370684" x2="26.162327" gradientUnits="userSpaceOnUse"/>
<linearGradient id="linearGradient5083" xlink:href="#linearGradient3199" y1="23.370684" x1="18.999998" y2="23.370684" x2="28.484715" gradientUnits="userSpaceOnUse"/>
<linearGradient id="linearGradient5075" xlink:href="#linearGradient3199" y1="23.370684" x1="18.999998" y2="23.370684" x2="28.484715" gradientUnits="userSpaceOnUse"/>
<linearGradient id="linearGradient5081" xlink:href="#linearGradient3410" y1="23.370684" x1="19.999998" y2="23.370684" x2="26.162327" gradientUnits="userSpaceOnUse"/>
<linearGradient id="linearGradient5079" xlink:href="#linearGradient3276" y1="21.091696" x1="27.734058" y2="21.091696" x2="19.766102" gradientUnits="userSpaceOnUse"/>
<linearGradient gradientTransform="matrix(1.0238095,0,0,1.0119048,-1.1428571,-98.071429)" id="linearGradient2969" xlink:href="#ButtonShadow-0" y1="6.1317081" x1="32.251034" y2="90.238609" x2="32.251034" gradientUnits="userSpaceOnUse"/>
<linearGradient id="linearGradient3410">
<stop offset="0" id="stop3412"/>
<stop offset="1" style="stop-opacity:0" id="stop3414"/>
</linearGradient>
<linearGradient id="linearGradient3191">
<stop offset="0" style="stop-color:#8e8e8e" id="stop3193"/>
<stop offset="1" style="stop-color:#e9e9e9" id="stop3195"/>
</linearGradient>
<linearGradient id="linearGradient3264" xlink:href="#linearGradient3258" y1="65.809189" x1="15.701221" y2="65.809189" x2="112.56733" gradientUnits="userSpaceOnUse"/>
<linearGradient id="linearGradient3205" xlink:href="#linearGradient3199" y1="65.809189" x1="15.657022" y2="65.809189" x2="112.61153" gradientUnits="userSpaceOnUse"/>
<linearGradient id="linearGradient3677">
<stop offset="0" style="stop-color:#ecff07" id="stop3679"/>
<stop offset="0.41935483" style="stop-color:#93f503;stop-opacity:.289" id="stop3687"/>
<stop offset="1" style="stop-color:#88eb00;stop-opacity:0" id="stop3681"/>
</linearGradient>
<linearGradient id="linearGradient3699" xlink:href="#linearGradient3701" y1="90.906906" x1="48.102913" y2="76.775467" x2="69.851814" gradientUnits="userSpaceOnUse"/>
<linearGradient id="linearGradient3701">
<stop offset="0" style="stop-color:#c0ff67" id="stop3703"/>
<stop offset="1" style="stop-color:#68b300;stop-opacity:0" id="stop3705"/>
</linearGradient>
<linearGradient id="linearGradient3735" xlink:href="#linearGradient3729" y1="95.349014" x1="48.638611" y2="95.402832" x2="64.134277" gradientUnits="userSpaceOnUse"/>
<linearGradient id="linearGradient3729">
<stop offset="0" style="stop-color:#d9ff13" id="stop3731"/>
<stop offset="1" style="stop-color:#d9ff13;stop-opacity:0" id="stop3733"/>
</linearGradient>
<linearGradient id="linearGradient3199">
<stop offset="0" style="stop-color:#6d6d6d" id="stop3201"/>
<stop offset="1" style="stop-color:#fff" id="stop3203"/>
</linearGradient>
<linearGradient id="linearGradient3737">
<stop offset="0" style="stop-color:#fff" id="stop3739"/>
<stop offset="1" style="stop-color:#fff;stop-opacity:0" id="stop3741"/>
</linearGradient>
<linearGradient id="linearGradient3617" xlink:href="#ButtonColor" y1="90" x1="48" y2="5.9877172" x2="48" gradientUnits="userSpaceOnUse"/>
<linearGradient id="linearGradient3188" xlink:href="#linearGradient3737" y1="6" x1="36.357143" y2="63.893143" x2="36.357143" gradientUnits="userSpaceOnUse"/>
<linearGradient gradientTransform="matrix(1.0172414,0,0,1.0172414,-1.1034483,-1.1034483)" id="ButtonColor" y1="122" x1="58.650177" y2="5.4252338" x2="58.650177" gradientUnits="userSpaceOnUse">
<stop offset="0" style="stop-color:#a0a0a0" id="stop3189"/>
<stop offset="1" style="stop-color:#dcdcdc" id="stop3191"/>
</linearGradient>
<linearGradient id="linearGradient3276">
<stop offset="0" style="stop-color:#fff" id="stop3278"/>
<stop offset="1" style="stop-color:#a5a5a5" id="stop3280"/>
</linearGradient>
<linearGradient id="linearGradient3258">
<stop offset="0" style="stop-color:#848484" id="stop3260"/>
<stop offset="1" style="stop-color:#cdcdcd" id="stop3262"/>
</linearGradient>
<linearGradient gradientTransform="scale(1.0058652,0.994169)" id="ButtonShadow" y1="92.539597" x1="45.447727" y2="7.0165396" x2="45.447727" gradientUnits="userSpaceOnUse">
<stop offset="0" id="stop3750"/>
<stop offset="1" style="stop-opacity:.588" id="stop3752"/>
</linearGradient>
<linearGradient id="linearGradient4705">
<stop offset="0" style="stop-opacity:0" id="stop4707"/>
<stop offset="0.81582308" style="stop-opacity:0" id="stop4713"/>
<stop offset="1" id="stop4709"/>
</linearGradient>
<radialGradient fx="48" fy="90.171875" cx="48" cy="90.171875" gradientTransform="matrix(1.1573129,0,0,0.99590774,-7.5510206,0.19713193)" r="42" id="radialGradient3619" xlink:href="#linearGradient3737" gradientUnits="userSpaceOnUse"/>
<radialGradient fx="22.72254" fy="22.180895" cx="22.72254" cy="22.180895" gradientTransform="matrix(0.6876737,0,0,0.6772167,7.4153633,7.543666)" r="3.742358" id="radialGradient5045" xlink:href="#linearGradient3276" gradientUnits="userSpaceOnUse"/>
<radialGradient fx="76.207619" fy="81.275986" cx="76.207619" cy="81.275986" r="2.7484715" id="radialGradient3709" xlink:href="#linearGradient3701" gradientUnits="userSpaceOnUse"/>
<radialGradient fx="22.72254" fy="22.180895" cx="22.72254" cy="22.180895" gradientTransform="matrix(0.6876737,0,0,0.6772167,7.4153633,7.543666)" r="3.742358" id="radialGradient5077" xlink:href="#linearGradient3276" gradientUnits="userSpaceOnUse"/>
<radialGradient fx="22.72254" fy="22.180895" cx="22.72254" cy="22.180895" gradientTransform="matrix(0.6876737,0,0,0.6772167,7.4153633,7.543666)" r="3.742358" id="radialGradient5069" xlink:href="#linearGradient3276" gradientUnits="userSpaceOnUse"/>
<radialGradient fx="22.72254" fy="22.180895" cx="22.72254" cy="22.180895" gradientTransform="matrix(0.6876737,0,0,0.6772167,7.4153633,7.543666)" r="3.742358" id="radialGradient5013" xlink:href="#linearGradient3276" gradientUnits="userSpaceOnUse"/>
<radialGradient fx="64" fy="59.5" cx="64" cy="59.5" gradientTransform="matrix(1,0,0,1.3743285,0,-24.272542)" r="3" id="radialGradient3634" xlink:href="#linearGradient3567" gradientUnits="userSpaceOnUse"/>
<radialGradient fx="64" fy="59.5" cx="64" cy="59.5" gradientTransform="matrix(1,0,0,1.3743285,0,-5.272542)" r="3" id="radialGradient3644" xlink:href="#linearGradient3567" gradientUnits="userSpaceOnUse"/>
<radialGradient fx="64" fy="59.5" cx="64" cy="59.5" gradientTransform="matrix(1,0,0,1.3743285,0,12.727458)" r="3" id="radialGradient3648" xlink:href="#linearGradient3567" gradientUnits="userSpaceOnUse"/>
<radialGradient fx="64" fy="59.5" cx="64" cy="59.5" gradientTransform="matrix(1,0,0,1.3743285,0,0.727458)" r="3" id="radialGradient3646" xlink:href="#linearGradient3567" gradientUnits="userSpaceOnUse"/>
<radialGradient fx="64" fy="59.5" cx="64" cy="59.5" gradientTransform="matrix(1,0,0,1.3743285,0,-11.272542)" r="3" id="radialGradient3642" xlink:href="#linearGradient3567" gradientUnits="userSpaceOnUse"/>
<radialGradient fx="64" fy="59.5" cx="64" cy="59.5" gradientTransform="matrix(1,0,0,1.3743285,0,-48.272542)" r="3" id="radialGradient3640" xlink:href="#linearGradient3567" gradientUnits="userSpaceOnUse"/>
<radialGradient fx="76.207619" fy="81.275986" cx="76.207619" cy="81.275986" r="2.7484715" id="radialGradient3675" xlink:href="#linearGradient3677" gradientUnits="userSpaceOnUse"/>
<radialGradient fx="64" fy="59.5" cx="64" cy="59.5" gradientTransform="matrix(1,0,0,1.3743285,0,-36.272542)" r="3" id="radialGradient3638" xlink:href="#linearGradient3567" gradientUnits="userSpaceOnUse"/>
<radialGradient fx="64" fy="59.5" cx="64" cy="59.5" gradientTransform="matrix(1,0,0,1.3743285,0,-30.272542)" r="3" id="radialGradient3636" xlink:href="#linearGradient3567" gradientUnits="userSpaceOnUse"/>
<radialGradient fx="64" fy="59.5" cx="64" cy="59.5" gradientTransform="matrix(1,0,0,1.3743285,0,-24.272542)" r="3" id="radialGradient3573" xlink:href="#linearGradient3567" gradientUnits="userSpaceOnUse"/>
<radialGradient fx="64" fy="59.5" cx="64" cy="59.5" gradientTransform="matrix(1,0,0,1.3743285,0,-30.272542)" r="3" id="radialGradient3577" xlink:href="#linearGradient3567" gradientUnits="userSpaceOnUse"/>
<radialGradient fx="76.207619" fy="81.275986" cx="76.207619" cy="81.275986" r="2.7484715" id="radialGradient3685" xlink:href="#linearGradient3677" gradientUnits="userSpaceOnUse"/>
<radialGradient fx="64.134277" fy="65.809189" cx="64.134277" cy="65.809189" gradientTransform="matrix(0.99997947,-0.00666912,0.00604961,0.98279157,-0.39680386,1.560188)" r="51.055847" id="radialGradient4711" xlink:href="#linearGradient4705" gradientUnits="userSpaceOnUse"/>
<radialGradient fx="64.134277" fy="88.987427" cx="64.134277" cy="88.987427" gradientTransform="matrix(0.8385911,6.6473983e-8,-6.7889832e-8,0.8564525,10.351846,12.773916)" r="39.752651" id="radialGradient4133" xlink:href="#linearGradient3455" gradientUnits="userSpaceOnUse"/>
<radialGradient fx="64" fy="59.5" cx="64" cy="59.5" gradientTransform="matrix(1,0,0,1.3743285,0,12.727458)" r="3" id="radialGradient3601" xlink:href="#linearGradient3567" gradientUnits="userSpaceOnUse"/>
<radialGradient fx="64" fy="59.5" cx="64" cy="59.5" gradientTransform="matrix(1,0,0,1.3743285,0,-36.272542)" r="3" id="radialGradient3581" xlink:href="#linearGradient3567" gradientUnits="userSpaceOnUse"/>
<radialGradient fx="64" fy="59.5" cx="64" cy="59.5" gradientTransform="matrix(1,0,0,1.3743285,0,0.727458)" r="3" id="radialGradient3597" xlink:href="#linearGradient3567" gradientUnits="userSpaceOnUse"/>
<radialGradient fx="64" fy="59.5" cx="64" cy="59.5" gradientTransform="matrix(1,0,0,1.3743285,0,-48.272542)" r="3" id="radialGradient3585" xlink:href="#linearGradient3567" gradientUnits="userSpaceOnUse"/>
<radialGradient fx="64" fy="59.5" cx="64" cy="59.5" gradientTransform="matrix(1,0,0,1.3743285,0,-5.272542)" r="3" id="radialGradient3593" xlink:href="#linearGradient3567" gradientUnits="userSpaceOnUse"/>
<radialGradient fx="64" fy="59.5" cx="64" cy="59.5" gradientTransform="matrix(1,0,0,1.3743285,0,-11.272542)" r="3" id="radialGradient3589" xlink:href="#linearGradient3567" gradientUnits="userSpaceOnUse"/>
</defs>
<g style="display:none" id="layer2">
<rect width="86" x="5" y="7" rx="6" height="85" ry="6" style="opacity:.9;fill:url(#ButtonShadow);filter:url(#filter3174);stroke:none" id="rect3745"/>
</g>
<g style="stroke:none" id="layer6">
<path style="opacity:.08;fill:url(#linearGradient2969)" id="path3786" d="m 12,-95.0312 c -5.51109,0 -10.0312,4.52016 -10.0312,10.0312 v 71 c 0,5.51109 4.52016,10.0312 10.0312,10.0312 h 72 c 5.51109,0 10.0312,-4.52016 10.0312,-10.0312 v -71 c 0,-5.51109 -4.52016,-10.0312 -10.0312,-10.0312 h -72 z " transform="scale(1,-1)"/>
<path style="opacity:.1;fill:url(#linearGradient3780)" id="path3778" d="m 12,-94.0312 c -4.97163,0 -9.03125,4.05962 -9.03125,9.03125 v 71 c 0,4.97163 4.05962,9.03125 9.03125,9.03125 h 72 c 4.97163,0 9.03125,-4.05962 9.03125,-9.03125 v -71 c 0,-4.97163 -4.05962,-9.03125 -9.03125,-9.03125 h -72 z " transform="scale(1,-1)"/>
<path style="opacity:.2;fill:url(#linearGradient3772)" id="path3770" d="m 12,-93 c -4.40913,0 -8,3.59087 -8,8 v 71 c 0,4.40913 3.59087,8 8,8 h 72 c 4.40913,0 8,-3.59087 8,-8 v -71 c 0,-4.40913 -3.59087,-8 -8,-8 h -72 z " transform="scale(1,-1)"/>
<rect width="86" x="5" y="-92" rx="7" height="85" ry="7" style="opacity:.3;fill:url(#linearGradient3725)" id="rect3723" transform="scale(1,-1)"/>
<rect width="84" x="6" y="-91" rx="6" height="84" ry="6" style="opacity:.45;fill:url(#linearGradient3721)" id="rect3716" transform="scale(1,-1)"/>
</g>
<g style="stroke:none" id="layer1">
<rect width="84" x="6" y="6" rx="6" height="84" ry="6" style="fill:url(#linearGradient3617)" id="rect2419"/>
<path style="opacity:.5;fill:url(#linearGradient3188)" id="rect3728" d="m 12,6 c -3.324,0 -6,2.676 -6,6 v 2 68 2 c 0,0.334721 0.04135,0.6507 0.09375,0.96875 0.0487,0.295596 0.09704,0.596915 0.1875,0.875 0.00988,0.03038 0.020892,0.0636 0.03125,0.09375 0.098865,0.287771 0.23488,0.547452 0.375,0.8125 0.144592,0.273507 0.315616,0.535615 0.5,0.78125 0.184384,0.245635 0.373776,0.473472 0.59375,0.6875 0.439947,0.428056 0.94291,0.814526 1.5,1.09375 0.278545,0.139612 0.573473,0.246947 0.875,0.34375 -0.256202,-0.100222 -0.486711,-0.236272 -0.71875,-0.375 -0.00741,-0.0044 -0.023866,0.0045 -0.03125,0 -0.031933,-0.0193 -0.062293,-0.04251 -0.09375,-0.0625 -0.120395,-0.0767 -0.231023,-0.163513 -0.34375,-0.25 -0.106173,-0.0808 -0.213281,-0.161112 -0.3125,-0.25 -0.17793,-0.161433 -0.34746,-0.345388 -0.5,-0.53125 -0.107579,-0.130255 -0.218394,-0.265285 -0.3125,-0.40625 -0.025089,-0.03838 -0.038446,-0.08587 -0.0625,-0.125 -0.064763,-0.103032 -0.130228,-0.204517 -0.1875,-0.3125 -0.101008,-0.194706 -0.205675,-0.415701 -0.28125,-0.625 -0.00796,-0.02181 -0.023589,-0.04055 -0.03125,-0.0625 -0.0318251,-0.09195 -0.0358045,-0.186831 -0.0625,-0.28125 -0.0303323,-0.106618 -0.0703894,-0.203031 -0.09375,-0.3125 -0.0728786,-0.341512 -0.125,-0.698205 -0.125,-1.0625 v -2 -68 -2 c 0,-2.78185 2.21815,-5 5,-5 h 2 68 2 c 2.78185,0 5,2.21815 5,5 v 2 68 2 c 0,0.364295 -0.05212,0.720988 -0.125,1.0625 -0.04415,0.206893 -0.08838,0.397658 -0.15625,0.59375 -0.0077,0.02195 -0.0233,0.04069 -0.03125,0.0625 -0.06274,0.173739 -0.138383,0.367449 -0.21875,0.53125 -0.04158,0.0828 -0.07904,0.169954 -0.125,0.25 -0.0546,0.09721 -0.126774,0.18835 -0.1875,0.28125 -0.09411,0.140965 -0.204921,0.275995 -0.3125,0.40625 -0.143174,0.17445 -0.303141,0.346998 -0.46875,0.5 -0.01117,0.0102 -0.01998,0.02115 -0.03125,0.03125 -0.138386,0.125556 -0.285091,0.234436 -0.4375,0.34375 -0.102571,0.07315 -0.204318,0.153364 -0.3125,0.21875 -0.0074,0.0045 -0.02384,-0.0044 -0.03125,0 -0.232039,0.138728 -0.462548,0.274778 -0.71875,0.375 0.301527,-0.0968 0.596455,-0.204138 0.875,-0.34375 0.55709,-0.279224 1.06005,-0.665694 1.5,-1.09375 0.219973,-0.214028 0.409366,-0.441865 0.59375,-0.6875 0.184384,-0.245635 0.355408,-0.507743 0.5,-0.78125 0.14012,-0.265048 0.276135,-0.524729 0.375,-0.8125 0.01041,-0.03078 0.02133,-0.06274 0.03125,-0.09375 0.09046,-0.278085 0.1388,-0.579404 0.1875,-0.875 0.0524,-0.31805 0.09375,-0.634029 0.09375,-0.96875 v -2 -68 -2 c 0,-3.324 -2.676,-6 -6,-6 h -72 z "/>
<path style="opacity:.2;fill:url(#radialGradient3619)" id="path3615" d="M 12,90 C 8.676,90 6,87.324 6,84 L 6,82 6,14 6,12 c 0,-0.334721 0.04135,-0.6507 0.09375,-0.96875 0.0487,-0.295596 0.09704,-0.596915 0.1875,-0.875 C 6.29113,10.12587 6.302142,10.09265 6.3125,10.0625 6.411365,9.774729 6.5473802,9.515048 6.6875,9.25 6.8320918,8.976493 7.0031161,8.714385 7.1875,8.46875 7.3718839,8.223115 7.5612765,7.995278 7.78125,7.78125 8.221197,7.353194 8.72416,6.966724 9.28125,6.6875 9.559795,6.547888 9.8547231,6.440553 10.15625,6.34375 9.9000482,6.443972 9.6695391,6.580022 9.4375,6.71875 c -0.00741,0.0044 -0.023866,-0.0045 -0.03125,0 -0.031933,0.0193 -0.062293,0.04251 -0.09375,0.0625 -0.120395,0.0767 -0.2310226,0.163513 -0.34375,0.25 -0.1061728,0.0808 -0.2132809,0.161112 -0.3125,0.25 C 8.4783201,7.442683 8.3087904,7.626638 8.15625,7.8125 8.0486711,7.942755 7.9378561,8.077785 7.84375,8.21875 7.818661,8.25713 7.805304,8.30462 7.78125,8.34375 7.716487,8.446782 7.6510225,8.548267 7.59375,8.65625 7.4927417,8.850956 7.3880752,9.071951 7.3125,9.28125 7.30454,9.30306 7.288911,9.3218 7.28125,9.34375 7.2494249,9.4357 7.2454455,9.530581 7.21875,9.625 7.1884177,9.731618 7.1483606,9.828031 7.125,9.9375 7.0521214,10.279012 7,10.635705 7,11 l 0,2 0,68 0,2 c 0,2.781848 2.2181517,5 5,5 l 2,0 68,0 2,0 c 2.781848,0 5,-2.218152 5,-5 l 0,-2 0,-68 0,-2 C 89,10.635705 88.94788,10.279012 88.875,9.9375 88.83085,9.730607 88.78662,9.539842 88.71875,9.34375 88.71105,9.3218 88.69545,9.30306 88.6875,9.28125 88.62476,9.107511 88.549117,8.913801 88.46875,8.75 88.42717,8.6672 88.38971,8.580046 88.34375,8.5 88.28915,8.40279 88.216976,8.31165 88.15625,8.21875 88.06214,8.077785 87.951329,7.942755 87.84375,7.8125 87.700576,7.63805 87.540609,7.465502 87.375,7.3125 87.36383,7.3023 87.35502,7.29135 87.34375,7.28125 87.205364,7.155694 87.058659,7.046814 86.90625,6.9375 86.803679,6.86435 86.701932,6.784136 86.59375,6.71875 c -0.0074,-0.0045 -0.02384,0.0044 -0.03125,0 -0.232039,-0.138728 -0.462548,-0.274778 -0.71875,-0.375 0.301527,0.0968 0.596455,0.204138 0.875,0.34375 0.55709,0.279224 1.060053,0.665694 1.5,1.09375 0.219973,0.214028 0.409366,0.441865 0.59375,0.6875 0.184384,0.245635 0.355408,0.507743 0.5,0.78125 0.14012,0.265048 0.276135,0.524729 0.375,0.8125 0.01041,0.03078 0.02133,0.06274 0.03125,0.09375 0.09046,0.278085 0.1388,0.579404 0.1875,0.875 C 89.95865,11.3493 90,11.665279 90,12 l 0,2 0,68 0,2 c 0,3.324 -2.676,6 -6,6 l -72,0 z"/>
</g>
<g id="layer5">
<rect width="66" x="15" y="15" rx="12" height="66" ry="12" style="opacity:.3;filter:url(#filter3794);stroke:#000;stroke-linecap:round;stroke-width:.5;clip-path:url(#clipPath3613)" id="rect3171"/>
</g>
<g id="layer3">
<g style="stroke:none">
<path style="fill:url(#radialGradient4133)" id="path3172" d="m 103.8869,75.5265 a 39.7527,39.7527 0 1,1 -79.5053,0 39.7527,39.7527 0 1,1 79.5053,0 z " transform="matrix(0.80248811,0,0,0.80248811,-3.3734276,-12.702676)"/>
<path style="fill:url(#linearGradient3665)" id="path3650" d="m 48.0936,15.9954 c -17.6094,0 -31.9111,16.9261 -31.9111,37.7668 0,2.64148 0.251272,5.22225 0.688109,7.71113 3.01296,-11.7841 15.8485,-20.6394 31.223,-20.6394 15.3744,0 28.21,8.85529 31.223,20.6394 0.436839,-2.48888 0.688109,-5.06965 0.688109,-7.71113 0,-20.8407 -14.3017,-37.7668 -31.9111,-37.7668 z "/>
</g>
<g style="fill:none;stroke-linecap:square;stroke-linejoin:round;stroke:#6ab700">
<path style="opacity:.5;stroke-width:1.605" id="path3476" d="m 103.8869,75.5265 a 39.7527,39.7527 0 1,1 -79.5053,0 39.7527,39.7527 0 1,1 79.5053,0 z " transform="matrix(0.6231516,0,0,0.6231516,8.1281894,0.84198261)"/>
<path style="opacity:.5;stroke-width:2.358" id="path3480" d="m 103.8869,75.5265 a 39.7527,39.7527 0 1,1 -79.5053,0 39.7527,39.7527 0 1,1 79.5053,0 z " transform="matrix(0.42408928,0,0,0.42408928,20.894908,15.876465)"/>
</g>
<g style="stroke:none">
<g id="g3603" transform="matrix(0.6881091,0,0,0.6881091,4.0545854,3.8674626)">
<path style="opacity:.5;fill:#6ab700;fill-rule:evenodd" id="path3482" d="m 63.5,18 0,92 1,0 0,-92 -1,0 z"/>
<rect width="6" x="61" y="57" height="1" style="opacity:.5;fill:url(#radialGradient3573)" id="rect3486"/>
<rect width="6" x="61" y="51" height="1" style="opacity:.5;fill:url(#radialGradient3577)" id="rect3575"/>
<rect width="6" x="61" y="45" height="1" style="opacity:.5;fill:url(#radialGradient3581)" id="rect3579"/>
<rect width="6" x="61" y="33" height="1" style="opacity:.5;fill:url(#radialGradient3585)" id="rect3583"/>
<rect width="6" x="61" y="70" height="1" style="opacity:.5;fill:url(#radialGradient3589)" id="rect3587"/>
<rect width="6" x="61" y="76" height="1" style="opacity:.5;fill:url(#radialGradient3593)" id="rect3591"/>
<rect width="6" x="61" y="82" height="1" style="opacity:.5;fill:url(#radialGradient3597)" id="rect3595"/>
<rect width="6" x="61" y="94" height="1" style="opacity:.5;fill:url(#radialGradient3601)" id="rect3599"/>
</g>
<g id="g3614" transform="matrix(0,0.6881091,-0.6881091,0,92.132549,3.8674626)">
<path style="opacity:.5;fill:#6ab700;fill-rule:evenodd" id="path3616" d="m 63.5,18 0,92 1,0 0,-92 -1,0 z"/>
<rect width="6" x="61" y="57" height="1" style="opacity:.5;fill:url(#radialGradient3634)" id="rect3618"/>
<rect width="6" x="61" y="51" height="1" style="opacity:.5;fill:url(#radialGradient3636)" id="rect3620"/>
<rect width="6" x="61" y="45" height="1" style="opacity:.5;fill:url(#radialGradient3638)" id="rect3622"/>
<rect width="6" x="61" y="33" height="1" style="opacity:.5;fill:url(#radialGradient3640)" id="rect3624"/>
<rect width="6" x="61" y="70" height="1" style="opacity:.5;fill:url(#radialGradient3642)" id="rect3626"/>
<rect width="6" x="61" y="76" height="1" style="opacity:.5;fill:url(#radialGradient3644)" id="rect3628"/>
<rect width="6" x="61" y="82" height="1" style="opacity:.5;fill:url(#radialGradient3646)" id="rect3630"/>
<rect width="6" x="61" y="94" height="1" style="opacity:.5;fill:url(#radialGradient3648)" id="rect3632"/>
</g>
<path style="opacity:.8;fill:url(#radialGradient3675)" id="path3667" d="m 78.9561,81.276 a 2.74847,2.74847 0 1,1 -5.49694,0 2.74847,2.74847 0 1,1 5.49694,0 z " transform="matrix(1.1266229,0,0,1.1266229,-25.726621,-32.307116)"/>
<path style="fill:url(#radialGradient3685)" id="path3683" d="m 78.9561,81.276 a 2.74847,2.74847 0 1,1 -5.49694,0 2.74847,2.74847 0 1,1 5.49694,0 z " transform="matrix(1.5021639,0,0,1.5021639,-72.250624,-68.67854)"/>
<path style="opacity:.568;fill:url(#linearGradient3699)" id="path3691" d="m 98.5611,95.4028 a 39.7527,39.7527 0 0,1 -52.9405,15.302 l 18.5137,-35.1783 z " transform="matrix(-0.76080893,-0.25525861,0.25525861,-0.76080893,77.132108,121.63777)"/>
<path style="fill:url(#radialGradient3709)" id="path3707" d="m 78.9561,81.276 a 2.74847,2.74847 0 1,1 -5.49694,0 2.74847,2.74847 0 1,1 5.49694,0 z " transform="matrix(1.8774962,0,0,1.8774962,-94.985944,-122.05095)"/>
<path style="opacity:.707;fill:#d9ff13;filter:url(#filter3737);fill-rule:evenodd" id="path3711" d="m 13.762,37.555 c 9.34416,-5.04176 14.6668,-1.69639 14.2304,-4.23792 -0.601492,-3.50322 -5.9365,-1.2452 -14.2304,4.23792 z " transform="matrix(0.6881091,0,0,0.6881091,29.838903,7.6400596)"/>
<path style="opacity:.568;fill:url(#linearGradient3735)" id="path3727" d="m 64.1343,115.2792 a 39.7527,39.7527 0 0,1 -18.5137,-4.57432 l 18.5137,-35.1783 z " transform="matrix(-0.76080893,-0.25525861,0.25525861,-0.76080893,77.132108,121.63777)"/>
</g>
<path style="fill:none;stroke:#7ad205" id="path3689" d="m 47.9836,48.0237 22.6262,-22.4828"/>
</g>
<g id="layer4">
<g style="stroke:none">
<path style="opacity:.08" id="path5129" d="m 18.3125,9.4688 c -2.52392,0 -5.00876,1.04001 -6.90625,2.9375 -3.81616,3.81616 -3.81616,9.99634 0,13.8125 l 3.9062,3.9062 c -3.18371,5.54265 -5.09375,11.9244 -5.09375,18.7812 0,6.90103 1.93353,13.3353 5.15625,18.9062 l -3.9688,3.9688 c -3.81616,3.81616 -3.81616,9.99634 0,13.8125 3.81616,3.81616 9.99634,3.81616 13.8125,0 l 3.9375,-3.9375 c 5.58292,3.24959 12.0267,5.1875 18.9375,5.1875 6.86004,0 13.2606,-1.92058 18.8125,-5.125 l 3.875,3.875 c 3.81616,3.81616 9.99634,3.81616 13.8125,0 3.81616,-3.81616 3.81616,-9.99634 0,-13.8125 l -3.8438,-3.8438 c 3.26844,-5.60202 5.21875,-12.0788 5.21875,-19.0312 0,-6.90643 -1.9287,-13.3332 -5.15625,-18.9062 l 3.7812,-3.7812 c 3.81616,-3.81616 3.81616,-9.99634 0,-13.8125 -1.90629,-1.90629 -4.4001,-2.90625 -6.90625,-2.90625 -2.50615,0 -4.99996,0.999956 -6.90625,2.90625 l -3.7812,3.7812 c -5.57417,-3.24095 -12.0038,-5.1875 -18.9062,-5.1875 -6.9532,0 -13.4262,1.96368 -19.0312,5.25 l -3.8438,-3.8438 c -1.89749,-1.89749 -4.38233,-2.9375 -6.90625,-2.9375 z  m 29.7812,12.875 c 4.55337,0 8.85239,1.14236 12.5938,3.15625 0.05301,0.02854 0.103456,0.06487 0.15625,0.09375 0.02037,0.01054 0.03011,0.04461 0.0625,0.0625 a 0.808597,0.808597 0 0,0 0.03125,0 c 0.334278,0.184389 0.625404,0.31842 0.875,0.46875 0.284503,0.171627 0.571739,0.359711 0.875,0.5625 0.02026,0.01355 0.04202,0.01753 0.0625,0.03125 0.0046,0.0045 -0.004,0.02744 0,0.03125 0.0081,0.0076 0.02493,-0.0056 0.03125,0 0.02062,0.01383 0.04163,0.01724 0.0625,0.03125 0.02227,0.01695 0.04834,0.05296 0.0625,0.0625 0.08326,0.05606 0.124393,0.103173 0.15625,0.125 0.445904,0.305512 0.918952,0.638036 1.34375,0.96875 0.475445,0.370421 0.943968,0.773583 1.40625,1.1875 0.425918,0.380988 0.797829,0.672829 1.09375,0.96875 0.228897,0.228897 0.474562,0.481684 0.71875,0.75 0.05729,0.06295 0.09753,0.1228 0.15625,0.1875 0.03309,0.04365 0.05382,0.111606 0.09375,0.15625 0.413917,0.462282 0.817079,0.930805 1.1875,1.40625 0.330714,0.424799 0.663236,0.897844 0.96875,1.34375 0.08943,0.130639 0.186728,0.232944 0.15625,0.1875 0.261612,0.389487 0.484459,0.72592 0.6875,1.0625 0.15033,0.249596 0.284361,0.540722 0.46875,0.875 0.02109,0.03824 0.05034,0.07048 0.0625,0.09375 0.01968,0.03764 0.03437,0.07392 0.09375,0.15625 2.01389,3.74136 3.15625,8.04038 3.15625,12.5938 0,4.6658 -1.20646,9.03921 -3.3125,12.8438 -0.101232,0.182872 -0.121536,0.306443 -0.125,0.3125 -0.244326,0.427903 -0.553246,0.897458 -0.84375,1.34375 v 0.03125 c 0.02751,-0.04565 -0.02611,0.01655 -0.0625,0.0625 -0.0182,0.02297 -0.0057,-0.0032 -0.03125,0.03125 -0.0074,0.0092 -0.02538,0.02326 -0.03125,0.03125 -0.0076,0.0081 0.0056,0.02492 0,0.03125 -0.0326,0.0343 -0.01794,0.04502 -0.03125,0.0625 -0.0036,0.0048 -0.02844,-0.004 -0.03125,0 -0.01029,0.0147 -0.02375,0.05138 -0.03125,0.0625 -0.05594,0.0831 -0.102857,0.123931 -0.125,0.15625 -0.223595,0.326292 -0.450615,0.631462 -0.65625,0.90625 a 0.808597,0.808597 0 0,0 0,0.03125 c -0.179466,0.239949 -0.344482,0.484622 -0.53125,0.71875 -0.000111,8.2e-05 -0.05079,0.052 -0.0625,0.0625 -0.01842,0.02291 -0.04398,0.03964 -0.0625,0.0625 -0.01027,0.0116 -0.02082,0.01902 -0.03125,0.03125 -0.02086,0.02447 -0.06116,0.08555 -0.09375,0.125 a 0.808597,0.808597 0 0,0 -0.0625,0.09375 c -0.19739,0.232261 -0.429878,0.46568 -0.65625,0.71875 -0.325306,0.363315 -0.60114,0.691341 -0.90625,1 -0.25553,0.258503 -0.512518,0.490269 -0.71875,0.6875 -0.03178,0.02082 -0.05143,0.05523 -0.0625,0.0625 -0.0034,0.0022 -0.03122,-2.6e-05 -0.03125,0 -0.03984,0.03538 -0.07735,0.112734 -0.125,0.15625 a 0.808597,0.808597 0 0,0 0,0.03125 c -0.0042,0.0019 -0.01512,-0.0082 -0.03125,0 a 0.808597,0.808597 0 0,0 -0.03125,0 c -0.02332,0.02109 -0.03589,0.03896 -0.0625,0.0625 -0.01331,0.01177 -0.01699,0.01881 -0.03125,0.03125 v -0.03125 a 0.808597,0.808597 0 0,0 -0.0625,0.0625 c -0.0066,0.006 -0.01573,0.01551 -0.03125,0.03125 -0.294148,0.264276 -0.563961,0.514752 -0.8125,0.71875 -0.319225,0.262834 -0.667662,0.501296 -1,0.75 a 0.808597,0.808597 0 0,0 0,0.03125 0.808597,0.808597 0 0,0 -0.03125,0.03125 c -0.01562,0.01402 -0.01855,0.01944 -0.03125,0.03125 a 0.808597,0.808597 0 0,0 -0.03125,0.03125 c -0.0094,0.01087 -0.124306,0.09893 -0.03125,0.03125 -0.01454,0.01291 -0.01605,0.01602 -0.03125,0.03125 -0.0087,0.0087 -0.0224,-0.0095 -0.03125,0 -0.433979,0.311047 -0.922359,0.609886 -1.4375,0.9375 0.01799,-0.01147 -0.175943,0.09607 -0.375,0.21875 -0.412392,0.253538 -0.745128,0.461542 -1.09375,0.65625 -0.03077,0.01718 -0.06312,0.04586 -0.09375,0.0625 -0.01983,0.01022 -0.03539,0.01661 -0.0625,0.03125 -3.75253,2.02889 -8.05491,3.1875 -12.625,3.1875 -4.55337,0 -8.85238,-1.14236 -12.5938,-3.15625 -0.08233,-0.05938 -0.118615,-0.07407 -0.15625,-0.09375 -0.02327,-0.01216 -0.05551,-0.04141 -0.09375,-0.0625 -0.334278,-0.184389 -0.625404,-0.31842 -0.875,-0.46875 -0.283785,-0.171193 -0.558142,-0.341444 -0.84375,-0.53125 -0.01233,-0.0082 -0.01888,-0.02299 -0.03125,-0.03125 -0.0032,-0.0024 -0.02625,0.0038 -0.03125,0 a 0.808597,0.808597 0 0,0 -0.03125,-0.0625 c -0.0081,-0.0076 -0.02492,0.0056 -0.03125,0 -0.0343,-0.0326 -0.04502,-0.01794 -0.0625,-0.03125 a 0.808597,0.808597 0 0,0 -0.03125,0 0.808597,0.808597 0 0,0 0,-0.03125 c -0.0078,-0.0049 -0.02417,-0.02648 -0.03125,-0.03125 -0.0831,-0.05594 -0.123931,-0.102857 -0.15625,-0.125 -0.32629,-0.223592 -0.631461,-0.450614 -0.90625,-0.65625 0,0 -0.02846,0.000803 -0.03125,0 -0.0028,-0.000803 -0.02597,0.0015 -0.03125,0 -0.05461,-0.03888 -0.09847,-0.08973 -0.0625,-0.0625 v 0.03125 c -0.04186,-0.01208 -0.0655,-0.01391 -0.125,-0.03125 -0.122872,-0.03581 -0.210069,-0.08003 -0.25,-0.09375 0.01781,0.000675 0.04875,-0.0068 0.09375,0 0.0225,0.0034 0.0942,0.03137 0.09375,0.03125 -0.000157,-4.3e-05 0.03381,0.01947 0.0625,0.03125 0.01229,0.005 0.01773,-0.0055 0.03125,0 v -0.03125 c -0.255715,-0.195422 -0.542407,-0.402609 -0.8125,-0.625 0.041,0.03384 0.04171,-0.01377 -0.125,-0.15625 -0.159703,-0.13649 -0.424812,-0.358773 -0.6875,-0.59375 -0.04473,-0.04005 -0.112512,-0.06052 -0.15625,-0.09375 -0.03484,-0.03167 -0.05918,-0.06232 -0.09375,-0.09375 -0.03404,-0.01944 -0.04884,-0.0428 -0.09375,-0.0625 -0.268674,-0.244751 -0.525388,-0.494138 -0.75,-0.71875 -0.293474,-0.293474 -0.58835,-0.668902 -0.96875,-1.09375 -0.269906,-0.301737 -0.540465,-0.589014 -0.75,-0.84375 -0.217973,-0.264739 -0.400293,-0.489084 -0.5625,-0.6875 -0.01944,-0.04233 -0.02716,-0.06231 -0.0625,-0.125 a 0.808597,0.808597 0 0,0 -0.03125,0 0.808597,0.808597 0 0,0 -0.03125,-0.0625 0.808597,0.808597 0 0,0 0,-0.03125 c -0.158216,-0.206588 -0.19059,-0.233198 -0.0625,-0.0625 -0.0092,-0.01226 -0.04787,-0.04493 -0.0625,-0.0625 -0.0038,-0.0047 -0.02512,-0.02381 -0.03125,-0.03125 0.003,0.0042 0.000796,-0.02977 0,-0.03125 -0.0071,-0.0072 -0.02421,0.0069 -0.03125,0 -0.0085,-0.0083 0.0079,-0.02376 0,-0.03125 -0.01001,-0.0088 -0.01888,-0.02142 -0.03125,-0.03125 -0.0158,-0.0229 -0.04693,-0.04007 -0.0625,-0.0625 -0.0729,-0.105005 -0.13154,-0.2161 -0.21875,-0.34375 0.06984,0.09895 -0.07847,-0.138825 -0.21875,-0.34375 -0.0221,-0.03225 -0.06902,-0.07309 -0.125,-0.15625 -0.0048,-0.0071 -0.02628,-0.02348 -0.03125,-0.03125 -0.0033,-0.0049 0.0029,-0.02659 0,-0.03125 -0.0014,-0.0023 -0.02969,0.0025 -0.03125,0 -0.0133,-0.01745 0.0012,-0.02841 -0.03125,-0.0625 a 0.808597,0.808597 0 0,0 0,-0.03125 c -0.0082,-0.0083 -0.02044,-0.02142 -0.03125,-0.03125 -0.0069,-0.0074 -0.02151,0.0098 -0.03125,0 -0.0035,-0.0035 0.0064,-0.02567 0,-0.03125 -0.0039,-0.0055 0.01096,-0.01683 0,-0.03125 -0.0027,-0.0036 -0.02724,0.0051 -0.03125,0 -0.004,-0.0051 0.0065,-0.02357 0,-0.03125 -0.003,-0.0035 -0.02395,0.0076 -0.03125,0 -0.005,-0.0076 0.005,-0.02368 0,-0.03125 -0.174339,-0.264474 -0.340754,-0.51727 -0.5,-0.78125 -0.15033,-0.249596 -0.284361,-0.540722 -0.46875,-0.875 -0.02109,-0.03824 -0.05034,-0.07048 -0.0625,-0.09375 -0.0045,-0.0082 0.0045,-0.023 0,-0.03125 -0.01761,-0.03221 -0.04301,-0.05464 -0.09375,-0.125 -2.01389,-3.74136 -3.15625,-8.04038 -3.15625,-12.5938 0,-4.57009 1.15861,-8.87247 3.1875,-12.625 0.01464,-0.02711 0.02103,-0.04267 0.03125,-0.0625 0.0063,-0.01168 0.02483,-0.01956 0.03125,-0.03125 0.005,-0.01033 0.03092,-0.06162 0.03125,-0.0625 1.9e-05,-5.2e-05 -0.0029,-0.02131 0,-0.03125 0.192043,-0.341775 0.408026,-0.658751 0.65625,-1.0625 0.146558,-0.238384 0.294846,-0.501599 0.4375,-0.71875 a 0.808597,0.808597 0 0,0 -0.03125,-0.03125 c 0.0111,-0.01016 0.02905,0.0022 0.03125,0 0.0022,-0.0022 -0.000477,-0.03076 0,-0.03125 0.0051,-0.0084 0.02578,-0.02141 0.03125,-0.03125 0.0038,-0.0069 -0.0039,-0.02357 0,-0.03125 a 0.808597,0.808597 0 0,0 0.03125,0 c 0.01198,-0.01425 0.02469,-0.02188 0.03125,-0.03125 a 0.808597,0.808597 0 0,0 0.03125,-0.0625 c 0.0068,-0.01016 -0.0065,-0.0216 0,-0.03125 0.04646,-0.06945 0.105996,-0.09727 0.125,-0.125 0.02203,-0.03216 0.04973,-0.07435 0.0625,-0.09375 0.289097,-0.416766 0.595806,-0.851239 0.90625,-1.25 0.370421,-0.475445 0.773583,-0.943968 1.1875,-1.40625 0.03665,-0.04098 0.06392,-0.08731 0.09375,-0.125 0.02983,-0.03769 0.06536,-0.07534 0.09375,-0.125 0.01701,-0.01569 0.03742,-0.03754 0.0625,-0.0625 0.01929,-0.0192 0.03367,-0.000296 0.0625,-0.03125 0.227874,-0.244653 0.483737,-0.549301 0.75,-0.8125 0.308367,-0.304819 0.635691,-0.580374 1,-0.90625 0.46228,-0.413916 0.930803,-0.817077 1.40625,-1.1875 0.424803,-0.330717 0.897848,-0.663241 1.34375,-0.96875 0.03161,-0.02166 0.07294,-0.06891 0.15625,-0.125 0.0071,-0.0048 0.02348,-0.02628 0.03125,-0.03125 0.0044,-0.0028 0.02591,0.0038 0.03125,0 0.004,-0.0028 -0.0048,-0.02762 0,-0.03125 0.01745,-0.0133 0.02843,0.0012 0.0625,-0.03125 0.0045,-0.0042 0.02629,0.0049 0.03125,0 0.01654,-0.01638 0.0393,-0.03379 0.0625,-0.0625 a 0.808597,0.808597 0 0,0 0.0625,-0.03125 c 0.0014,-0.0013 -0.0064,-0.02493 0,-0.03125 h 0.03125 c 0.01325,-0.01317 0.02165,-0.02166 0.03125,-0.03125 0.09628,-0.05864 0.334005,-0.165743 0.625,-0.34375 0.349881,-0.214439 0.644818,-0.385171 0.90625,-0.53125 0.04014,-0.0224 0.0687,-0.04881 0.09375,-0.0625 3.80454,-2.10604 8.17795,-3.3125 12.8438,-3.3125 z  m -22.9375,40.9688 c -0.06665,0.0136 -0.104245,0.05826 -0.125,0.0625 -0.0046,0.000934 -0.03124,-4e-06 -0.03125,0 -3e-05,1.4e-05 -0.03173,0.04069 -0.0625,0.0625 -0.05918,0.04195 -0.120538,0.03717 -0.15625,0.0625 0.03014,-0.02934 0.06254,-0.06252 0.0625,-0.0625 -4.8e-05,3.4e-05 0.07889,-0.02934 0.15625,-0.0625 0.07736,-0.03316 0.156311,-0.06251 0.15625,-0.0625 z  m 41.2188,5.9688 c 4.4e-05,-8e-06 0.231313,0.698811 0.25,0.75 -0.03284,0.01178 -0.06254,0.03126 -0.0625,0.03125 0,0 -0.125,0.03125 -0.125,0.03125 0,0 -0.0625,-0.8125 -0.0625,-0.8125 z "/>
<path style="opacity:.15" id="path5125" d="m 18.3125,10.2812 c -2.30475,0 -4.5934,0.937153 -6.34375,2.6875 -3.50807,3.50807 -3.50807,9.17943 0,12.6875 l 4.3125,4.3125 c -3.3065,5.54744 -5.25,12.0075 -5.25,18.9375 0,6.97351 1.96691,13.4895 5.3125,19.0625 l -4.375,4.375 c -3.50807,3.50807 -3.50807,9.17943 0,12.6875 3.50807,3.50807 9.17943,3.50807 12.6875,0 l 4.3438,-4.3438 c 5.58419,3.37334 12.1109,5.34375 19.0938,5.34375 6.93263,0 13.4132,-1.95336 18.9688,-5.28125 l 4.2812,4.2812 c 3.50807,3.50807 9.17943,3.50807 12.6875,0 3.50807,-3.50807 3.50807,-9.17943 0,-12.6875 l -4.25,-4.25 c 3.39165,-5.60174 5.375,-12.163 5.375,-19.1875 0,-6.9789 -1.96206,-13.4872 -5.3125,-19.0625 l 4.1875,-4.1875 c 3.50807,-3.50807 3.50807,-9.17943 0,-12.6875 -1.75503,-1.75503 -4.04932,-2.65625 -6.34375,-2.65625 -2.29443,0 -4.58872,0.901222 -6.34375,2.65625 l -4.1875,4.1875 c -5.57663,-3.36397 -12.0892,-5.34375 -19.0625,-5.34375 -7.02355,0 -13.5824,1.99663 -19.1875,5.40625 l -4.25,-4.25 c -1.75035,-1.75035 -4.039,-2.6875 -6.34375,-2.6875 z  m 29.7812,11.25 c 4.7554,0 9.23082,1.21324 13.125,3.34375 -0.116377,-0.06366 -0.0856,-0.03656 0.09375,0.0625 0.317966,0.175391 0.621324,0.328391 0.90625,0.5 0.354707,0.213977 0.694028,0.440038 1.0625,0.6875 0.01402,0.01274 0.005,0.01145 0.03125,0.03125 0.02628,0.0198 -0.01107,0.0027 0.03125,0.03125 0.07587,0.05109 0.139445,0.09208 0.1875,0.125 0.45696,0.313087 0.933526,0.656303 1.375,1 0.499021,0.388789 0.970289,0.80042 1.4375,1.21875 0.402407,0.359957 0.783071,0.658071 1.125,1 0.302194,0.302194 0.597758,0.628833 0.90625,0.96875 -0.01922,-0.02115 -0.02391,0.02471 0.09375,0.15625 0.41833,0.467211 0.829961,0.938479 1.21875,1.4375 0.343696,0.441474 0.686911,0.918038 1,1.375 0.07653,0.111806 0.134853,0.186846 0.15625,0.21875 0.256624,0.382061 0.497456,0.726912 0.71875,1.09375 0.171609,0.284926 0.324609,0.588284 0.5,0.90625 0.09907,0.179629 0.125906,0.209755 0.0625,0.09375 2.13051,3.89418 3.34375,8.3696 3.34375,13.125 0,4.80442 -1.23555,9.32866 -3.40625,13.25 -0.07373,0.133194 -0.106448,0.225408 -0.15625,0.3125 -0.254326,0.445416 -0.546168,0.917834 -0.84375,1.375 -0.02677,0.04104 -0.100192,0.108376 -0.15625,0.1875 -0.01292,0.0063 -0.01201,0.02672 -0.0625,0.09375 -0.01984,0.02633 -0.0026,-0.01122 -0.03125,0.03125 -0.05104,0.07582 -0.0919,0.139188 -0.125,0.1875 -0.220384,0.321607 -0.433226,0.639476 -0.65625,0.9375 -0.251414,0.336144 -0.50976,0.669945 -0.78125,1 0.102679,-0.124148 0.09148,-0.11732 -0.03125,0.03125 -0.233765,0.283238 -0.508652,0.573938 -0.75,0.84375 -0.315546,0.352415 -0.604471,0.694348 -0.9375,1.03125 -0.272132,0.275298 -0.539278,0.554418 -0.78125,0.78125 -0.0049,0.0046 -0.02633,-0.0046 -0.03125,0 -0.04906,0.04312 -0.163821,0.15152 -0.3125,0.28125 -0.07241,0.06165 -0.03406,0.03193 -0.03125,0.03125 0.0019,-0.000452 -0.06486,0.03009 -0.03125,0 -0.292393,0.261366 -0.581049,0.539979 -0.875,0.78125 -0.331698,0.273104 -0.661111,0.527644 -1,0.78125 -2.5e-05,1.9e-05 0.0018,0.02936 0,0.03125 -0.0088,0.0095 -0.05877,0.0249 -0.09375,0.0625 -0.02284,0.01678 -0.03949,0.04576 -0.0625,0.0625 -0.485547,0.353134 -1.00647,0.666258 -1.53125,1 -0.06496,0.04142 -0.202423,0.112394 -0.375,0.21875 -0.440428,0.270774 -0.837345,0.525845 -1.25,0.75 0.03696,-0.02008 0.01417,-0.01016 -0.0625,0.03125 -3.86666,2.0906 -8.29355,3.28125 -13,3.28125 -4.7554,0 -9.23082,-1.21324 -13.125,-3.34375 0.116005,0.06341 0.08588,0.03657 -0.09375,-0.0625 -0.317966,-0.175391 -0.621324,-0.328391 -0.90625,-0.5 -0.310996,-0.187608 -0.617219,-0.379143 -0.9375,-0.59375 0.0044,0.0049 -0.03199,-0.02211 -0.125,-0.09375 -0.0126,-0.0085 -0.01862,-0.02276 -0.03125,-0.03125 -0.02633,-0.01984 0.01122,-0.0026 -0.03125,-0.03125 -0.07582,-0.05104 -0.139188,-0.0919 -0.1875,-0.125 -0.321605,-0.220382 -0.639475,-0.433225 -0.9375,-0.65625 -4.4e-05,-3.3e-05 -0.02661,0.0026 -0.03125,0 -0.02942,-0.02205 -0.06423,-0.04016 -0.09375,-0.0625 -0.04909,-0.02742 -0.09353,-0.06241 -0.09375,-0.0625 -0.274925,-0.210103 -0.545674,-0.436549 -0.8125,-0.65625 -0.06202,-0.05118 -0.106661,-0.113868 -0.15625,-0.15625 -0.193478,-0.165356 -0.440861,-0.404379 -0.6875,-0.625 -0.132084,-0.118281 -0.177297,-0.112897 -0.15625,-0.09375 -0.33633,-0.305697 -0.671045,-0.608546 -0.96875,-0.90625 -0.340018,-0.340018 -0.640936,-0.723981 -1,-1.125 -0.256391,-0.286628 -0.542896,-0.585228 -0.78125,-0.875 -0.234401,-0.284691 -0.45606,-0.526835 -0.65625,-0.78125 -0.000114,-0.000281 -0.02905,-0.06566 -0.0625,-0.125 -0.01674,-0.02186 -0.0461,-0.04064 -0.0625,-0.0625 -0.0026,-0.0045 3.4e-05,-0.0312 0,-0.03125 -0.02409,-0.03223 -0.01423,-0.01043 -0.03125,-0.03125 -0.03403,-0.04164 -0.04775,-0.05013 -0.0625,-0.0625 -0.01895,-0.02635 -0.04281,-0.0652 -0.0625,-0.09375 -0.08636,-0.125177 -0.171707,-0.245912 -0.28125,-0.40625 -0.02967,-0.04204 -0.09919,-0.169092 -0.21875,-0.34375 -0.03308,-0.04829 -0.07394,-0.111647 -0.125,-0.1875 -0.0285,-0.04224 -0.01146,-0.005 -0.03125,-0.03125 -0.03382,-0.05042 -0.01085,-0.0046 -0.03125,-0.03125 -0.04516,-0.04966 -0.08969,-0.12137 -0.09375,-0.125 -0.214607,-0.320281 -0.406142,-0.626504 -0.59375,-0.9375 -0.171609,-0.284926 -0.324609,-0.588284 -0.5,-0.90625 -0.09907,-0.179629 -0.125906,-0.209755 -0.0625,-0.09375 -2.13051,-3.89418 -3.34375,-8.3696 -3.34375,-13.125 0,-4.70645 1.19065,-9.13334 3.28125,-13 0.04141,-0.07667 0.05133,-0.09946 0.03125,-0.0625 0.224155,-0.412655 0.479226,-0.809572 0.75,-1.25 0.132387,-0.215335 0.273633,-0.469307 0.4375,-0.71875 0.01364,-0.0207 -0.01137,-0.01333 0,-0.03125 -0.005,0.0045 0.02207,-0.03195 0.09375,-0.125 -0.000976,-0.000312 0.03691,-0.03967 0.03125,-0.03125 0.0198,-0.02628 0.0027,0.01107 0.03125,-0.03125 0.05113,-0.07593 0.09215,-0.139563 0.125,-0.1875 0.03742,-0.05463 0.05999,-0.09013 0.0625,-0.09375 0.295719,-0.426312 0.615201,-0.867261 0.9375,-1.28125 0.388789,-0.499021 0.80042,-0.970289 1.21875,-1.4375 0.120287,-0.134477 0.130031,-0.19625 0.09375,-0.15625 0.10468,-0.115163 0.180532,-0.177718 0.21875,-0.21875 0.229648,-0.246557 0.500689,-0.535168 0.78125,-0.8125 0.336393,-0.332522 0.677395,-0.620975 1.03125,-0.9375 0.46721,-0.41833 0.938479,-0.82996 1.4375,-1.21875 0.441477,-0.343698 0.91804,-0.686914 1.375,-1 0.04794,-0.03286 0.111587,-0.07389 0.1875,-0.125 0.0422,-0.02847 0.005,-0.01147 0.03125,-0.03125 0.04554,-0.03059 0.0573,-0.03668 0.09375,-0.0625 0.0051,-0.01025 0.06046,-0.06022 0.0625,-0.0625 0.04142,-0.02985 0.0987,-0.07659 0.125,-0.09375 0.164631,-0.107163 0.389052,-0.21155 0.65625,-0.375 0.346591,-0.212423 0.65115,-0.402498 0.9375,-0.5625 0.171541,-0.09573 0.202555,-0.122637 0.09375,-0.0625 3.92134,-2.1707 8.44558,-3.40625 13.25,-3.40625 z "/>
<path style="opacity:.4" id="path5106" d="m 18.3125,11.2812 c -2.04495,0 -4.0893,0.808051 -5.65625,2.375 -3.1339,3.1339 -3.1339,8.1786 0,11.3125 l 4.8438,4.8438 c -3.46224,5.54232 -5.46875,12.0728 -5.46875,19.0938 0,7.06443 2.02944,13.6547 5.53125,19.2188 l -4.9062,4.9062 c -3.1339,3.1339 -3.1339,8.1786 0,11.3125 3.1339,3.1339 8.1786,3.1339 11.3125,0 l 4.875,-4.875 c 5.57328,3.52987 12.1775,5.5625 19.25,5.5625 7.02291,0 13.5765,-2.01561 19.125,-5.5 l 4.8125,4.8125 c 3.1339,3.1339 8.1786,3.1339 11.3125,0 3.1339,-3.1339 3.1339,-8.1786 0,-11.3125 l -4.7812,-4.7812 c 3.548,-5.589 5.59375,-12.2289 5.59375,-19.3438 0,-7.07074 -2.02368,-13.6516 -5.53125,-19.2188 l 4.7188,-4.7188 c 3.1339,-3.1339 3.1339,-8.1786 0,-11.3125 -1.56695,-1.56695 -3.6116,-2.34375 -5.65625,-2.34375 -2.04465,0 -4.0893,0.776801 -5.65625,2.34375 l -4.7188,4.7188 c -5.56861,-3.52123 -12.1557,-5.5625 -19.2188,-5.5625 -7.11268,0 -13.7506,2.0581 -19.3438,5.625 l -4.7812,-4.7812 c -1.56695,-1.56695 -3.6113,-2.375 -5.65625,-2.375 z  m 29.7812,9.25 c 4.92385,0 9.55933,1.26151 13.5938,3.46875 0.03285,0.01797 0.06098,0.0444 0.09375,0.0625 0.315867,0.174233 0.629261,0.3456 0.9375,0.53125 0.394434,0.237942 0.774543,0.493614 1.15625,0.75 0.0083,0.0056 0.02297,0.02567 0.03125,0.03125 0.06411,0.04317 0.123748,0.08132 0.1875,0.125 0.476535,0.326499 0.951251,0.677024 1.40625,1.03125 0.514611,0.400935 1.01419,0.815019 1.5,1.25 0.39464,0.353009 0.781954,0.688204 1.15625,1.0625 0.324459,0.324459 0.629041,0.660119 0.9375,1 0.05087,0.05597 0.07457,0.09987 0.125,0.15625 0.434981,0.485807 0.849065,0.985389 1.25,1.5 0.354226,0.454999 0.70475,0.929715 1.03125,1.40625 0.05084,0.07427 0.106098,0.14397 0.15625,0.21875 0.256386,0.381707 0.512058,0.761816 0.75,1.15625 0.18565,0.308239 0.357017,0.621633 0.53125,0.9375 0.01819,0.03298 0.04443,0.06069 0.0625,0.09375 2.20724,4.03442 3.46875,8.6699 3.46875,13.5938 0,4.97388 -1.28199,9.6555 -3.53125,13.7188 -0.06338,0.114493 -0.122584,0.230227 -0.1875,0.34375 -0.272537,0.477311 -0.576205,0.947221 -0.875,1.40625 -0.0695,0.10654 -0.147854,0.20695 -0.21875,0.3125 -0.0056,0.0083 -0.02569,0.023 -0.03125,0.03125 -0.04325,0.06425 -0.08124,0.123629 -0.125,0.1875 -0.223269,0.325817 -0.450972,0.652681 -0.6875,0.96875 -0.262857,0.351444 -0.533993,0.692664 -0.8125,1.03125 -0.0099,0.01197 -0.02137,0.01929 -0.03125,0.03125 -0.240875,0.291852 -0.497852,0.593114 -0.75,0.875 -0.326397,0.364534 -0.655996,0.714495 -1,1.0625 -0.266928,0.270033 -0.534807,0.553594 -0.8125,0.8125 -0.118327,0.109789 -0.254798,0.204719 -0.375,0.3125 -0.01104,0.0094 -0.02047,0.0216 -0.03125,0.03125 -0.298083,0.266452 -0.596961,0.52739 -0.90625,0.78125 -0.340643,0.280469 -0.677832,0.548021 -1.03125,0.8125 -0.0064,0.0048 0.0055,0.02508 0,0.03125 -0.560113,0.41702 -1.15883,0.811536 -1.75,1.1875 -0.122143,0.07788 -0.251605,0.142704 -0.375,0.21875 -0.43433,0.267025 -0.86293,0.537043 -1.3125,0.78125 -0.02052,0.01115 -0.04195,0.02015 -0.0625,0.03125 -4.0053,2.16555 -8.59493,3.40625 -13.4688,3.40625 -4.92385,0 -9.55933,-1.26151 -13.5938,-3.46875 -0.03306,-0.01807 -0.06077,-0.04431 -0.09375,-0.0625 -0.315867,-0.174233 -0.629261,-0.3456 -0.9375,-0.53125 -0.394434,-0.237942 -0.774543,-0.493614 -1.15625,-0.75 -0.0083,-0.0056 -0.023,-0.02569 -0.03125,-0.03125 -0.06425,-0.04325 -0.123629,-0.08124 -0.1875,-0.125 -0.325817,-0.223268 -0.652681,-0.450972 -0.96875,-0.6875 -0.0066,-0.0049 -0.02469,0.0049 -0.03125,0 -0.346846,-0.259929 -0.697088,-0.537355 -1.03125,-0.8125 -0.06069,-0.05009 -0.127273,-0.104777 -0.1875,-0.15625 -0.229398,-0.196055 -0.464232,-0.425285 -0.6875,-0.625 -0.05665,-0.05073 -0.100002,-0.07383 -0.15625,-0.125 -0.335821,-0.305235 -0.679174,-0.616675 -1,-0.9375 -0.372841,-0.372841 -0.71074,-0.763388 -1.0625,-1.15625 -0.262608,-0.293579 -0.530878,-0.601868 -0.78125,-0.90625 -0.275225,-0.334274 -0.552683,-0.653746 -0.8125,-1 -0.0051,-0.0069 0.0051,-0.02439 0,-0.03125 -0.0071,-0.0095 -0.022,-0.02307 -0.03125,-0.03125 -0.0036,-0.0048 -0.02768,0.0048 -0.03125,0 -0.142854,-0.191746 -0.270689,-0.395329 -0.40625,-0.59375 -0.07855,-0.111281 -0.141761,-0.231281 -0.21875,-0.34375 -0.04376,-0.06387 -0.08175,-0.123254 -0.125,-0.1875 -0.0056,-0.0083 -0.02571,-0.02299 -0.03125,-0.03125 -0.256386,-0.381707 -0.512058,-0.761816 -0.75,-1.15625 -0.18565,-0.308239 -0.357017,-0.621633 -0.53125,-0.9375 -0.01819,-0.03298 -0.04443,-0.06069 -0.0625,-0.09375 -2.20724,-4.03442 -3.46875,-8.6699 -3.46875,-13.5938 0,-4.87382 1.2407,-9.46345 3.40625,-13.4688 0.0111,-0.02055 0.0201,-0.04198 0.03125,-0.0625 0.244207,-0.44957 0.514225,-0.87817 0.78125,-1.3125 0.149653,-0.243419 0.312115,-0.480315 0.46875,-0.71875 0.04621,-0.07014 0.07818,-0.149047 0.125,-0.21875 0.0056,-0.0083 0.02567,-0.02297 0.03125,-0.03125 0.04317,-0.06411 0.08131,-0.123749 0.125,-0.1875 0.02107,-0.03076 0.04122,-0.06308 0.0625,-0.09375 0.308351,-0.444523 0.637388,-0.88687 0.96875,-1.3125 0.400935,-0.514611 0.815019,-1.01419 1.25,-1.5 0.04374,-0.0489 0.08093,-0.107663 0.125,-0.15625 0.07409,-0.08151 0.143887,-0.169625 0.21875,-0.25 0.259266,-0.278356 0.543109,-0.546209 0.8125,-0.8125 0.347177,-0.343182 0.696048,-0.672207 1.0625,-1 0.485807,-0.434981 0.98539,-0.849065 1.5,-1.25 0.455,-0.354226 0.929714,-0.704751 1.40625,-1.03125 0.06375,-0.04369 0.123387,-0.08183 0.1875,-0.125 0.0083,-0.0056 0.02296,-0.02568 0.03125,-0.03125 0.10555,-0.0709 0.20596,-0.149247 0.3125,-0.21875 0.221318,-0.144062 0.461876,-0.268232 0.6875,-0.40625 0.323951,-0.198547 0.636446,-0.408071 0.96875,-0.59375 0.03265,-0.01822 0.06102,-0.04441 0.09375,-0.0625 4.06325,-2.24926 8.74487,-3.53125 13.7188,-3.53125 z "/>
<path style="opacity:.08" id="path4736" d="m 48.0938,11.0312 c -7.82366,0 -15.0294,2.44863 -21.0625,6.53125 l -2,-2 c -2.83753,-2.83754 -7.44372,-2.83753 -10.2812,0 -1.40896,1.40896 -2.15625,3.25211 -2.15625,5.125 0,1.87081 0.736604,3.7366 2.15625,5.15625 l 2,2 c -4.06637,6.0312 -6.5,13.2327 -6.5,21.0625 0,7.82236 2.40604,15.0552 6.46875,21.0938 l -1.9688,1.9688 c -1.40679,1.40679 -2.1875,3.26028 -2.1875,5.15625 0,1.89803 0.791448,3.72895 2.1875,5.125 2.83753,2.83754 7.44372,2.83754 10.2812,0 l 1.9688,-2 c 6.03769,4.09336 13.2581,6.5625 21.0938,6.5625 7.83568,0 15.0561,-2.46914 21.0938,-6.5625 l 1.9688,2 c 2.83753,2.83754 7.44372,2.83754 10.2812,0 2.83754,-2.83753 2.83752,-7.44371 0,-10.2812 l -1.9688,-1.9688 c 4.06271,-6.03855 6.46875,-13.2714 6.46875,-21.0938 0,-7.8298 -2.43363,-15.0313 -6.5,-21.0625 l 2,-2 c 2.83754,-2.83753 2.83754,-7.44372 0,-10.2812 -2.83754,-2.83754 -7.44371,-2.83754 -10.2812,0 l -2,2 c -6.03309,-4.08262 -13.2388,-6.53125 -21.0625,-6.53125 z  m 0,11.2812 c 5.42603,0 10.4502,1.6162 14.6562,4.40625 0.01186,0.0079 0.0194,0.02336 0.03125,0.03125 0.01937,0.01289 0.04317,0.01831 0.0625,0.03125 0.01077,0.0083 0.02345,0.02618 0.03125,0.03125 0.0078,0.0051 0.02434,0.02659 0.03125,0.03125 0.08331,0.0561 0.155555,0.103113 0.1875,0.125 0.432674,0.296448 0.874135,0.627474 1.3125,0.96875 0.476558,0.371287 0.945111,0.774607 1.40625,1.1875 0.423811,0.379103 0.795845,0.670845 1.09375,0.96875 0.232014,0.232013 0.493348,0.499472 0.75,0.78125 0.02635,0.02893 0.03607,0.06469 0.0625,0.09375 0.0158,0.02661 0.04606,0.0403 0.0625,0.0625 0.0295,0.03982 0.058,0.08508 0.09375,0.125 0.0059,0.0065 -0.0061,0.02442 0,0.03125 0.412893,0.461139 0.816213,0.929692 1.1875,1.40625 0.341275,0.438364 0.6723,0.879823 0.96875,1.3125 0.02172,0.03169 0.06887,0.104142 0.125,0.1875 0.0047,0.0069 0.02618,0.02346 0.03125,0.03125 0.0079,0.01181 0.02333,0.01942 0.03125,0.03125 0.01294,0.01933 0.01836,0.04313 0.03125,0.0625 0.0079,0.01185 0.02338,0.01939 0.03125,0.03125 2.79005,4.20609 4.40625,9.23022 4.40625,14.6562 0,5.42603 -1.6162,10.4502 -4.40625,14.6562 -0.0079,0.01186 -0.02336,0.0194 -0.03125,0.03125 -0.01289,0.01937 -0.01831,0.04317 -0.03125,0.0625 -0.0029,0.0043 -0.02836,-0.0043 -0.03125,0 -0.0038,0.0053 0.0029,0.02681 0,0.03125 -0.0051,0.0078 -0.0266,0.02434 -0.03125,0.03125 -0.05598,0.08316 -0.102799,0.155096 -0.125,0.1875 -0.210644,0.307394 -0.404181,0.579923 -0.625,0.875 -0.2196,0.293609 -0.454983,0.588771 -0.6875,0.875 -0.0097,0.01106 -0.02056,0.01868 -0.03125,0.03125 -0.01841,0.02257 -0.04401,0.04002 -0.0625,0.0625 -0.01,0.01197 -0.01968,0.01725 -0.03125,0.03125 a 0.719237,0.719237 0 0,0 0,0.03125 c -0.208596,0.251061 -0.473925,0.5388 -0.71875,0.8125 -0.607596,0.678591 -1.20654,1.32004 -1.84375,1.90625 -0.02566,0.01582 -0.04106,0.04627 -0.0625,0.0625 -0.03847,0.02911 -0.08497,0.05782 -0.125,0.09375 -0.0066,0.0059 -0.02434,-0.0062 -0.03125,0 -0.299428,0.267841 -0.61782,0.538453 -0.875,0.75 -0.319741,0.26326 -0.637008,0.532992 -0.96875,0.78125 -0.04168,0.03117 -0.100971,0.09062 -0.15625,0.15625 -0.0059,0.007 0.006,0.02352 0,0.03125 -0.169211,0.107161 -0.406009,0.223191 -0.71875,0.4375 -0.03234,0.02215 -0.104287,0.06898 -0.1875,0.125 -0.0069,0.0047 -0.02346,0.02617 -0.03125,0.03125 -0.0045,0.0029 -0.02598,-0.0038 -0.03125,0 -0.0038,0.0028 0.0058,0.02671 0,0.03125 -0.01933,0.01294 -0.04313,0.01836 -0.0625,0.03125 -0.01185,0.0079 -0.01939,0.02338 -0.03125,0.03125 -4.20609,2.79005 -9.23022,4.40625 -14.6562,4.40625 -5.42603,0 -10.4502,-1.6162 -14.6562,-4.40625 -0.01227,-0.01373 -0.02178,-0.02201 -0.03125,-0.03125 -0.01937,-0.01289 -0.04317,-0.01831 -0.0625,-0.03125 -0.01076,-0.0083 -0.02347,-0.0262 -0.03125,-0.03125 -0.0078,-0.0051 -0.02434,-0.0266 -0.03125,-0.03125 -0.08316,-0.05598 -0.155096,-0.102799 -0.1875,-0.125 -0.30739,-0.21064 -0.579921,-0.404179 -0.875,-0.625 -0.328393,-0.245616 -0.650375,-0.519369 -0.96875,-0.78125 -5.9e-05,-4.9e-05 -0.02788,0.0016 -0.03125,0 -0.0039,-0.0033 -0.02722,0.0034 -0.03125,0 -0.0036,-0.003 0.0037,-0.02814 0,-0.03125 -0.191251,-0.162302 -0.495138,-0.434867 -0.8125,-0.71875 -0.04862,-0.04354 -0.109798,-0.05928 -0.15625,-0.09375 -0.02322,-0.0211 -0.03937,-0.04147 -0.0625,-0.0625 -0.03466,-0.02056 -0.04522,-0.04117 -0.09375,-0.0625 -0.281712,-0.256429 -0.546973,-0.515724 -0.78125,-0.75 -0.29547,-0.29547 -0.590242,-0.671014 -0.96875,-1.09375 -0.267845,-0.299434 -0.538459,-0.617825 -0.75,-0.875 -0.26326,-0.319741 -0.532992,-0.637008 -0.78125,-0.96875 -0.03117,-0.04168 -0.09062,-0.100971 -0.15625,-0.15625 -0.007,-0.0059 -0.02352,0.006 -0.03125,0 -0.107161,-0.169212 -0.22319,-0.406008 -0.4375,-0.71875 -0.02216,-0.03234 -0.06898,-0.104287 -0.125,-0.1875 -0.0047,-0.0069 -0.02618,-0.02347 -0.03125,-0.03125 -0.005,-0.0075 0.005,-0.02375 0,-0.03125 -0.0028,-0.004 -0.02768,0.0046 -0.03125,0 -0.01294,-0.01933 -0.01836,-0.04313 -0.03125,-0.0625 -0.0086,-0.0087 -0.0197,-0.02069 -0.03125,-0.03125 -2.79004,-4.20609 -4.40625,-9.23022 -4.40625,-14.6562 0,-5.42603 1.61621,-10.4502 4.40625,-14.6562 0.01364,-0.0122 0.02205,-0.02181 0.03125,-0.03125 0.01289,-0.01937 0.01831,-0.04317 0.03125,-0.0625 h 0.03125 c 0.005,-0.0075 -0.005,-0.02375 0,-0.03125 0.0051,-0.0078 0.02659,-0.02434 0.03125,-0.03125 0.05616,-0.0834 0.103293,-0.155826 0.125,-0.1875 0.29645,-0.432677 0.627475,-0.874136 0.96875,-1.3125 0.371287,-0.476558 0.774607,-0.945111 1.1875,-1.40625 0.03761,-0.04205 0.06409,-0.08763 0.09375,-0.125 a 0.719237,0.719237 0 0,0 0,-0.03125 c 0.01948,-0.02143 0.04289,-0.04116 0.0625,-0.0625 0.588582,-0.640452 1.22381,-1.2333 1.90625,-1.84375 0.461136,-0.412892 0.929691,-0.816211 1.40625,-1.1875 0.438368,-0.341277 0.879827,-0.672304 1.3125,-0.96875 0.03168,-0.02171 0.104126,-0.06886 0.1875,-0.125 0.0069,-0.0047 0.02346,-0.02618 0.03125,-0.03125 0.0075,-0.005 0.02375,0.005 0.03125,0 v -0.03125 c 0.01933,-0.01294 0.04313,-0.01836 0.0625,-0.03125 0.0094,-0.0092 0.01913,-0.01771 0.03125,-0.03125 4.20609,-2.79005 9.23022,-4.40625 14.6562,-4.40625 z  m -14.5,3.8125 c 0.0049,0.0384 0.03126,0.09397 0.03125,0.09375 -1.2e-05,-0.000396 -0.06175,0.16315 -0.09375,0.28125 0.01369,-0.0869 0.06257,-0.374543 0.0625,-0.375 z  m 29,0 c -8.2e-05,0.000529 0.06212,0.405468 0.0625,0.40625 -0.02327,-0.05195 -0.06256,-0.09396 -0.0625,-0.09375 0.000101,0.000346 -0.03124,-0.250283 -0.03125,-0.25 -6e-06,0.00015 0.02705,-0.02945 0.03125,-0.0625 z  m -36.875,8.2188 c -0.05195,0.02327 -0.09396,0.06256 -0.09375,0.0625 0.000346,-0.000101 -0.250283,0.03124 -0.25,0.03125 0.00015,6e-06 -0.02945,-0.02705 -0.0625,-0.03125 0.000529,8.2e-05 0.405468,-0.06212 0.40625,-0.0625 z  m 44.7812,0 c 0.0869,0.01369 0.374543,0.06257 0.375,0.0625 -0.0384,0.0049 -0.09397,0.03126 -0.09375,0.03125 0.000396,-1.2e-05 -0.16315,-0.06175 -0.28125,-0.09375 z  m -45.0938,29.0312 c -0.000395,1.3e-05 0.162607,0.06183 0.28125,0.09375 -0.08729,-0.01357 -0.374544,-0.06257 -0.375,-0.0625 0.03728,-0.0046 0.09392,-0.03126 0.09375,-0.03125 z  m 45.4062,0 c -0.000149,-7e-06 0.02904,0.02657 0.0625,0.03125 -0.000525,-8.8e-05 -0.40547,0.06213 -0.40625,0.0625 0.05276,-0.0234 0.09396,-0.06256 0.09375,-0.0625 -0.000345,9.9e-05 0.250281,-0.03124 0.25,-0.03125 z  m -44.8125,1.0938 c -0.08492,0.01741 0.03918,-0.02169 0.21875,0 0.07438,0.009 0.0993,0.03624 0.15625,0.0625 -0.144078,-0.03403 -0.315158,-0.074766 -0.375,-0.0625 z  m 37.7188,6.1562 c -0.03403,0.144078 -0.07477,0.315158 -0.0625,0.375 0.01741,0.08492 -0.02169,-0.03918 0,-0.21875 0.009,-0.07438 0.03624,-0.0993 0.0625,-0.15625 z  m -30.1875,.6562 c 0.0234,0.05276 0.06256,0.09396 0.0625,0.09375 -9.9e-05,-0.000345 0.03124,0.250281 0.03125,0.25 7e-06,-0.000149 -0.02657,0.02904 -0.03125,0.0625 8.8e-05,-0.000525 -0.06213,-0.40547 -0.0625,-0.40625 z  m 29.125,.0312 c -0.01371,0.08684 -0.06257,0.374543 -0.0625,0.375 -0.0049,-0.03836 -0.03126,-0.09397 -0.03125,-0.09375 1.2e-05,0.000396 0.06175,-0.163187 0.09375,-0.28125 z " transform="translate(90,0)"/>
<path style="opacity:.15" id="path4732" d="m 48.0938,11.75 c -7.88201,0 -15.1391,2.51338 -21.1562,6.71875 l -2.4062,-2.4062 c -2.56263,-2.56263 -6.71862,-2.56263 -9.28125,0 -1.27569,1.27569 -1.9375,2.94047 -1.9375,4.625 0,1.68453 0.654493,3.37324 1.9375,4.65625 l 2.4062,2.4062 c -4.1888,6.0153 -6.6875,13.2669 -6.6875,21.1562 0,7.88277 2.47158,15.1682 6.65625,21.1875 l -2.375,2.375 c -1.27564,1.27564 -1.96875,2.95569 -1.96875,4.65625 0,1.70055 0.700426,3.35668 1.96875,4.625 2.56263,2.56264 6.71862,2.56264 9.28125,0 l 2.375,-2.4062 c 6.02162,4.21594 13.2942,6.75 21.1875,6.75 7.89332,0 15.1659,-2.53406 21.1875,-6.75 l 2.375,2.4062 c 2.56263,2.56264 6.71862,2.56264 9.28125,0 2.56263,-2.56263 2.56262,-6.71861 0,-9.28125 l -2.375,-2.375 c 4.18467,-6.01929 6.65625,-13.3047 6.65625,-21.1875 0,-7.88935 -2.4987,-15.141 -6.6875,-21.1562 l 2.4062,-2.4062 c 2.56263,-2.56263 2.56263,-6.71862 0,-9.28125 -2.56263,-2.56263 -6.71862,-2.56263 -9.28125,0 l -2.4062,2.4062 c -6.01715,-4.20537 -13.2742,-6.71875 -21.1562,-6.71875 z  m 0,9.8438 c 5.62701,0 10.8419,1.70615 15.1875,4.625 0.02618,0.01932 -0.0077,0.005 0.03125,0.03125 0.07688,0.05177 0.140802,0.09301 0.1875,0.125 0.455268,0.311928 0.903444,0.657213 1.34375,1 0.497674,0.387739 0.971896,0.801859 1.4375,1.21875 0.403079,0.360558 0.785869,0.660869 1.125,1 0.29343,0.293429 0.601697,0.63401 0.90625,0.96875 -0.02528,-0.02781 -0.02972,0.01821 0.09375,0.15625 0.416891,0.465604 0.831011,0.939826 1.21875,1.4375 0.342786,0.440305 0.68807,0.88848 1,1.34375 0.03192,0.04658 0.0732,0.110575 0.125,0.1875 0.0262,0.03883 0.01196,0.0051 0.03125,0.03125 2.91885,4.34558 4.625,9.56049 4.625,15.1875 0,5.62701 -1.70615,10.8419 -4.625,15.1875 -0.01936,0.02624 -0.0049,-0.0078 -0.03125,0.03125 -0.05171,0.07682 -0.09282,0.140533 -0.125,0.1875 -0.220135,0.321244 -0.434393,0.609786 -0.65625,0.90625 -0.250425,0.334822 -0.510367,0.670682 -0.78125,1 0.112409,-0.135912 0.101235,-0.129127 -0.03125,0.03125 -0.233151,0.282493 -0.509586,0.574981 -0.75,0.84375 -0.633343,0.707346 -1.27771,1.40253 -1.96875,2.03125 0.04774,-0.04335 -0.01381,-0.03379 -0.15625,0.09375 -0.286025,0.255852 -0.586489,0.543932 -0.875,0.78125 -0.330925,0.272468 -0.662367,0.528584 -1,0.78125 -0.09427,0.07051 -0.0072,0.06545 -0.0625,0.125 -0.226131,0.161424 -0.517122,0.307425 -0.84375,0.53125 -0.04694,0.03216 -0.110644,0.07326 -0.1875,0.125 -0.03883,0.0262 -0.0051,0.01196 -0.03125,0.03125 -4.34558,2.91885 -9.56049,4.625 -15.1875,4.625 -5.62701,0 -10.8419,-1.70615 -15.1875,-4.625 -0.02624,-0.01936 0.0078,-0.0049 -0.03125,-0.03125 -0.07682,-0.05171 -0.140533,-0.09282 -0.1875,-0.125 -0.321241,-0.220132 -0.609785,-0.434392 -0.90625,-0.65625 -0.334821,-0.250424 -0.67068,-0.510366 -1,-0.78125 -0.0063,-0.0052 -0.02446,0.0051 -0.03125,0 -0.247405,-0.204191 -0.542197,-0.511508 -0.84375,-0.78125 -0.138604,-0.124119 -0.183977,-0.118974 -0.15625,-0.09375 -0.336373,-0.305737 -0.673044,-0.610545 -0.96875,-0.90625 -0.337181,-0.337181 -0.640305,-0.723276 -1,-1.125 -0.255853,-0.286028 -0.543935,-0.586491 -0.78125,-0.875 -0.272468,-0.330925 -0.528584,-0.662367 -0.78125,-1 -0.07051,-0.09427 -0.06545,-0.0072 -0.125,-0.0625 -0.161423,-0.226131 -0.307423,-0.51712 -0.53125,-0.84375 -0.03216,-0.04694 -0.07326,-0.110644 -0.125,-0.1875 -0.02622,-0.03887 -0.01195,-0.0051 -0.03125,-0.03125 -2.91885,-4.34558 -4.625,-9.56049 -4.625,-15.1875 0,-5.62701 1.70615,-10.8419 4.625,-15.1875 0.01932,-0.02618 0.005,0.0077 0.03125,-0.03125 0.05182,-0.07695 0.09308,-0.140929 0.125,-0.1875 0.31193,-0.45527 0.657214,-0.903445 1,-1.34375 0.387739,-0.497674 0.801859,-0.971896 1.21875,-1.4375 0.126903,-0.141873 0.136976,-0.203906 0.09375,-0.15625 0.631667,-0.694964 1.31997,-1.33251 2.03125,-1.96875 0.465603,-0.416891 0.939826,-0.83101 1.4375,-1.21875 0.440308,-0.342788 0.888482,-0.688073 1.34375,-1 0.04657,-0.03192 0.110568,-0.0732 0.1875,-0.125 0.03883,-0.0262 0.0051,-0.01196 0.03125,-0.03125 4.34558,-2.91885 9.56049,-4.625 15.1875,-4.625 z " transform="translate(90,0)"/>
<path style="opacity:.6" id="path4715" d="m 138.0938,12.8125 c -7.97453,0 -15.3349,2.60239 -21.3125,7 l -3,-3 c -2.15646,-2.15647 -5.62479,-2.15646 -7.78125,0 -1.07823,1.07823 -1.625,2.46806 -1.625,3.875 0,1.40694 0.54677,2.82802 1.625,3.90625 l 3,3 c -4.3817,5.97675 -6.96875,13.3277 -6.96875,21.3125 0,7.98024 2.56039,15.3688 6.9375,21.3438 l -2.9688,2.9688 c -1.07823,1.07823 -1.65625,2.4991 -1.65625,3.90625 0,1.40714 0.57802,2.79677 1.65625,3.875 2.15646,2.15647 5.62479,2.15647 7.78125,0 l 2.9688,-3 c 5.9817,4.40784 13.359,7.03125 21.3438,7.03125 7.98472,0 15.3621,-2.62341 21.3438,-7.03125 l 2.9688,3 c 2.15646,2.15647 5.62479,2.15647 7.78125,0 2.15646,-2.15646 2.15646,-5.62478 0,-7.78125 l -2.9688,-2.9688 c 4.37711,-5.97492 6.9375,-13.3635 6.9375,-21.3438 0,-7.98484 -2.58705,-15.3358 -6.96875,-21.3125 l 3,-3 c 2.15646,-2.15647 2.15646,-5.62478 0,-7.78125 -2.15646,-2.15647 -5.62479,-2.15647 -7.78125,0 l -3,3 c -5.97765,-4.39761 -13.338,-7 -21.3125,-7 z  m 0,7.7188 c 5.84461,0 11.2672,1.78046 15.7812,4.8125 0.008,0.0056 0.023,0.02567 0.0312,0.03125 0.0641,0.04317 0.12375,0.08132 0.1875,0.125 0.47653,0.326499 0.95125,0.677024 1.40625,1.03125 0.51461,0.400935 1.01419,0.815019 1.5,1.25 0.39464,0.353009 0.78195,0.688204 1.15625,1.0625 0.31907,0.319073 0.63381,0.666207 0.9375,1 0.0509,0.05597 0.0746,0.09987 0.125,0.15625 0.43498,0.485807 0.84906,0.985389 1.25,1.5 0.35423,0.454999 0.70475,0.929715 1.03125,1.40625 0.0437,0.06375 0.0818,0.123386 0.125,0.1875 0.006,0.0083 0.0257,0.02296 0.0312,0.03125 3.03204,4.51411 4.8125,9.93664 4.8125,15.7812 0,5.84461 -1.78046,11.2671 -4.8125,15.7812 -0.006,0.0083 -0.0257,0.023 -0.0312,0.03125 -0.0433,0.06425 -0.0812,0.123629 -0.125,0.1875 -0.22327,0.325817 -0.45097,0.652681 -0.6875,0.96875 -0.26286,0.351444 -0.53399,0.692664 -0.8125,1.03125 -0.01,0.01197 -0.0214,0.01929 -0.0312,0.03125 -0.24088,0.291852 -0.49785,0.593114 -0.75,0.875 -0.65279,0.729069 -1.33867,1.43519 -2.0625,2.09375 -0.0488,0.04431 -0.10714,0.08103 -0.15625,0.125 -0.29358,0.262609 -0.60187,0.530878 -0.90625,0.78125 -0.34064,0.280469 -0.67783,0.548021 -1.03125,0.8125 -0.0159,0.0119 -0.0153,0.05063 -0.0312,0.0625 -0.30032,0.223748 -0.62841,0.413195 -0.9375,0.625 -0.0639,0.04376 -0.12325,0.08175 -0.1875,0.125 -0.008,0.0056 -0.023,0.0257 -0.0312,0.03125 -4.5141,3.03204 -9.93664,4.8125 -15.7812,4.8125 -5.84461,0 -11.2671,-1.78046 -15.7812,-4.8125 -0.008,-0.0056 -0.023,-0.02569 -0.0312,-0.03125 -0.0643,-0.04325 -0.12363,-0.08124 -0.1875,-0.125 -0.32582,-0.223268 -0.65268,-0.450972 -0.96875,-0.6875 -0.35144,-0.262857 -0.69266,-0.533994 -1.03125,-0.8125 -0.012,-0.0099 -0.0193,0.0099 -0.0312,0 -0.29185,-0.240874 -0.59311,-0.529101 -0.875,-0.78125 -0.0567,-0.05073 -0.1,-0.07383 -0.15625,-0.125 -0.33582,-0.305235 -0.67917,-0.616675 -1,-0.9375 -0.37284,-0.372841 -0.71074,-0.763388 -1.0625,-1.15625 -0.26261,-0.293579 -0.53088,-0.601868 -0.78125,-0.90625 -0.28047,-0.340643 -0.54802,-0.677832 -0.8125,-1.03125 -0.0119,-0.01591 -0.0506,-0.01531 -0.0625,-0.03125 -0.22375,-0.300325 -0.41319,-0.628412 -0.625,-0.9375 -0.0438,-0.06387 -0.0817,-0.123254 -0.125,-0.1875 -0.006,-0.0083 -0.0257,-0.02299 -0.0312,-0.03125 -3.03204,-4.51411 -4.8125,-9.93664 -4.8125,-15.7812 0,-5.84461 1.78046,-11.2671 4.8125,-15.7812 0.006,-0.0083 0.0257,-0.02297 0.0312,-0.03125 0.0432,-0.06411 0.0813,-0.123749 0.125,-0.1875 0.3265,-0.476535 0.67702,-0.951251 1.03125,-1.40625 0.40093,-0.514611 0.81502,-1.01419 1.25,-1.5 0.0437,-0.0489 0.0809,-0.107663 0.125,-0.15625 0.66134,-0.727613 1.36085,-1.40691 2.09375,-2.0625 0.48581,-0.434981 0.98539,-0.849065 1.5,-1.25 0.455,-0.354226 0.92971,-0.704751 1.40625,-1.03125 0.0637,-0.04369 0.12339,-0.08183 0.1875,-0.125 0.008,-0.0056 0.023,-0.02568 0.0312,-0.03125 4.51411,-3.03204 9.93664,-4.8125 15.7812,-4.8125 z "/>
</g>
<path style="fill:none;stroke:url(#radialGradient4711);stroke-linejoin:round;stroke-linecap:square;stroke-width:10.588" id="path4701" d="m 111.6608,65.8092 a 47.5265,49.47 0 1,1 -95.053,0 47.5265,49.47 0 1,1 95.053,0 z " transform="matrix(0,0.5781471,-0.55543425,0,84.646243,10.827399)"/>
<g style="stroke:none">
<path style="fill:url(#linearGradient4898)" id="rect3229" d="m 18.3125,10.2812 c -2.04495,0 -4.0893,0.808051 -5.65625,2.375 -3.1339,3.1339 -3.1339,8.1786 0,11.3125 l 5.5625,5.5625 c -3.29978,5.34442 -5.21875,11.6354 -5.21875,18.375 0,6.78971 1.93616,13.13 5.28125,18.5 l -5.625,5.625 c -3.1339,3.1339 -3.1339,8.1786 0,11.3125 3.1339,3.1339 8.1786,3.1339 11.3125,0 l 5.625,-5.625 c 5.37004,3.3451 11.7103,5.28125 18.5,5.28125 6.73959,0 13.0306,-1.91896 18.375,-5.21875 l 5.5625,5.5625 c 3.1339,3.1339 8.1786,3.1339 11.3125,0 3.1339,-3.1339 3.1339,-8.1786 0,-11.3125 l -5.5312,-5.5312 c 3.38753,-5.39368 5.375,-11.7573 5.375,-18.5938 0,-6.78971 -1.93616,-13.13 -5.28125,-18.5 l 5.4375,-5.4375 c 3.1339,-3.1339 3.1339,-8.1786 0,-11.3125 -1.56695,-1.56695 -3.6116,-2.34375 -5.65625,-2.34375 -2.04465,0 -4.0893,0.776801 -5.65625,2.34375 l -5.4375,5.4375 c -5.37004,-3.34509 -11.7103,-5.28125 -18.5,-5.28125 -6.8364,0 -13.2001,1.98747 -18.5938,5.375 l -5.5312,-5.5312 c -1.56695,-1.56695 -3.6113,-2.375 -5.65625,-2.375 z  m 29.7812,9.25 c 4.92385,0 9.55933,1.26151 13.5938,3.46875 0.03285,0.01797 0.06098,0.0444 0.09375,0.0625 0.315867,0.174233 0.629261,0.3456 0.9375,0.53125 0.394434,0.237942 0.774543,0.493614 1.15625,0.75 0.0083,0.0056 0.02297,0.02567 0.03125,0.03125 0.06411,0.04317 0.123748,0.08132 0.1875,0.125 0.476535,0.326499 0.951251,0.677024 1.40625,1.03125 0.514611,0.400935 1.01419,0.815019 1.5,1.25 0.39464,0.353009 0.781954,0.688204 1.15625,1.0625 0.324459,0.324459 0.629041,0.660119 0.9375,1 0.05087,0.05597 0.07457,0.09987 0.125,0.15625 0.434981,0.485807 0.849065,0.985389 1.25,1.5 0.354226,0.454999 0.70475,0.929715 1.03125,1.40625 0.05084,0.07427 0.106098,0.14397 0.15625,0.21875 0.256386,0.381707 0.512058,0.761816 0.75,1.15625 0.18565,0.308239 0.357017,0.621633 0.53125,0.9375 0.01819,0.03298 0.04443,0.06069 0.0625,0.09375 2.20724,4.03442 3.46875,8.6699 3.46875,13.5938 0,4.97388 -1.28199,9.6555 -3.53125,13.7188 -0.06338,0.114493 -0.122584,0.230227 -0.1875,0.34375 -0.272537,0.477311 -0.576205,0.947221 -0.875,1.40625 -0.0695,0.10654 -0.147854,0.20695 -0.21875,0.3125 -0.0056,0.0083 -0.02569,0.023 -0.03125,0.03125 -0.04325,0.06425 -0.08124,0.123629 -0.125,0.1875 -0.223269,0.325817 -0.450972,0.652681 -0.6875,0.96875 -0.262857,0.351444 -0.533993,0.692664 -0.8125,1.03125 -0.0099,0.01197 -0.02137,0.01929 -0.03125,0.03125 -0.240875,0.291852 -0.497852,0.593114 -0.75,0.875 -0.326397,0.364534 -0.655996,0.714495 -1,1.0625 -0.266928,0.270033 -0.534807,0.553594 -0.8125,0.8125 -0.118327,0.109789 -0.254798,0.204719 -0.375,0.3125 -0.01104,0.0094 -0.02047,0.0216 -0.03125,0.03125 -0.298083,0.266452 -0.596961,0.52739 -0.90625,0.78125 -0.340643,0.280469 -0.677832,0.548021 -1.03125,0.8125 -0.0064,0.0048 0.0055,0.02508 0,0.03125 -0.560113,0.41702 -1.15883,0.811536 -1.75,1.1875 -0.122143,0.07788 -0.251605,0.142704 -0.375,0.21875 -0.43433,0.267025 -0.86293,0.537043 -1.3125,0.78125 -0.02052,0.01115 -0.04195,0.02015 -0.0625,0.03125 -4.0053,2.16555 -8.59493,3.40625 -13.4688,3.40625 -4.92385,0 -9.55933,-1.26151 -13.5938,-3.46875 -0.03306,-0.01807 -0.06077,-0.04431 -0.09375,-0.0625 -0.315867,-0.174233 -0.629261,-0.3456 -0.9375,-0.53125 -0.394434,-0.237942 -0.774543,-0.493614 -1.15625,-0.75 -0.0083,-0.0056 -0.023,-0.02569 -0.03125,-0.03125 -0.06425,-0.04325 -0.123629,-0.08124 -0.1875,-0.125 -0.325817,-0.223268 -0.652681,-0.450972 -0.96875,-0.6875 -0.0066,-0.0049 -0.02469,0.0049 -0.03125,0 -0.346846,-0.259929 -0.697088,-0.537355 -1.03125,-0.8125 -0.06069,-0.05009 -0.127273,-0.104777 -0.1875,-0.15625 -0.229398,-0.196055 -0.464232,-0.425285 -0.6875,-0.625 -0.05665,-0.05073 -0.100002,-0.07383 -0.15625,-0.125 -0.335821,-0.305235 -0.679174,-0.616675 -1,-0.9375 -0.372841,-0.372841 -0.71074,-0.763388 -1.0625,-1.15625 -0.262608,-0.293579 -0.530878,-0.601868 -0.78125,-0.90625 -0.275225,-0.334274 -0.552683,-0.653746 -0.8125,-1 -0.0051,-0.0069 0.0051,-0.02439 0,-0.03125 -0.0071,-0.0095 -0.022,-0.02307 -0.03125,-0.03125 -0.0036,-0.0048 -0.02768,0.0048 -0.03125,0 -0.142854,-0.191746 -0.270689,-0.395329 -0.40625,-0.59375 -0.07855,-0.111281 -0.141761,-0.231281 -0.21875,-0.34375 -0.04376,-0.06387 -0.08175,-0.123254 -0.125,-0.1875 -0.0056,-0.0083 -0.02571,-0.02299 -0.03125,-0.03125 -0.256386,-0.381707 -0.512058,-0.761816 -0.75,-1.15625 -0.18565,-0.308239 -0.357017,-0.621633 -0.53125,-0.9375 -0.01819,-0.03298 -0.04443,-0.06069 -0.0625,-0.09375 -2.20724,-4.03442 -3.46875,-8.6699 -3.46875,-13.5938 0,-4.87382 1.2407,-9.46345 3.40625,-13.4688 0.0111,-0.02055 0.0201,-0.04198 0.03125,-0.0625 0.244207,-0.44957 0.514225,-0.87817 0.78125,-1.3125 0.149653,-0.243419 0.312115,-0.480315 0.46875,-0.71875 0.04621,-0.07014 0.07818,-0.149047 0.125,-0.21875 0.0056,-0.0083 0.02567,-0.02297 0.03125,-0.03125 0.04317,-0.06411 0.08131,-0.123749 0.125,-0.1875 0.02107,-0.03076 0.04122,-0.06308 0.0625,-0.09375 0.308351,-0.444523 0.637388,-0.88687 0.96875,-1.3125 0.400935,-0.514611 0.815019,-1.01419 1.25,-1.5 0.04374,-0.0489 0.08093,-0.107663 0.125,-0.15625 0.07409,-0.08151 0.143887,-0.169625 0.21875,-0.25 0.259266,-0.278356 0.543109,-0.546209 0.8125,-0.8125 0.347177,-0.343182 0.696048,-0.672207 1.0625,-1 0.485807,-0.434981 0.98539,-0.849065 1.5,-1.25 0.455,-0.354226 0.929714,-0.704751 1.40625,-1.03125 0.06375,-0.04369 0.123387,-0.08183 0.1875,-0.125 0.0083,-0.0056 0.02296,-0.02568 0.03125,-0.03125 0.10555,-0.0709 0.20596,-0.149247 0.3125,-0.21875 0.221318,-0.144062 0.461876,-0.268232 0.6875,-0.40625 0.323951,-0.198547 0.636446,-0.408071 0.96875,-0.59375 0.03265,-0.01822 0.06102,-0.04441 0.09375,-0.0625 4.06325,-2.24926 8.74487,-3.53125 13.7188,-3.53125 z "/>
<path style="opacity:.6;fill:#fff" id="path5085" d="m 18.3125,10.2812 c -2.04495,0 -4.0893,0.808051 -5.65625,2.375 -1.69242,1.69242 -2.44801,3.95119 -2.3125,6.15625 0.115422,-1.87811 0.87102,-3.71477 2.3125,-5.15625 1.56695,-1.56695 3.6113,-2.375 5.65625,-2.375 2.04495,0 4.0893,0.808051 5.65625,2.375 l 5.5312,5.5312 c 5.39368,-3.38753 11.7573,-5.375 18.5938,-5.375 6.78971,0 13.13,1.93616 18.5,5.28125 l 5.4375,-5.4375 c 1.56695,-1.56695 3.6116,-2.34375 5.65625,-2.34375 2.04465,0 4.0893,0.776801 5.65625,2.34375 1.44148,1.44148 2.19708,3.27814 2.3125,5.15625 0.135515,-2.20506 -0.620083,-4.46383 -2.3125,-6.15625 -1.56695,-1.56695 -3.6116,-2.34375 -5.65625,-2.34375 -2.04465,0 -4.0893,0.776801 -5.65625,2.34375 l -5.4375,5.4375 c -5.37004,-3.34509 -11.7103,-5.28125 -18.5,-5.28125 -6.8364,0 -13.2001,1.98747 -18.5938,5.375 l -5.5312,-5.5312 c -1.56695,-1.56695 -3.6113,-2.375 -5.65625,-2.375 z  m -.4062,56.5 -5.25,5.25 c -1.69242,1.69242 -2.44801,3.95119 -2.3125,6.15625 0.115422,-1.87811 0.87102,-3.71477 2.3125,-5.15625 l 5.625,-5.625 c -0.128036,-0.205543 -0.251122,-0.416643 -0.375,-0.625 z  m 60.2812,.0938 c -0.124744,0.207898 -0.246174,0.419881 -0.375,0.625 l 5.5312,5.5312 c 1.44148,1.44148 2.19708,3.27814 2.3125,5.15625 0.135515,-2.20506 -0.620083,-4.46383 -2.3125,-6.15625 l -5.1562,-5.1562 z "/>
<path style="opacity:.3" id="path5090" d="m 10.3438,17.8125 c -0.386724,3.40354 1.98739,6.05067 4.32037,8.16412 1.07029,1.07029 2.14059,2.14059 3.21088,3.21088 0.689819,-1.29838 -1.56964,-2.14666 -2.2378,-3.2378 -2.25552,-2.35388 -5.26325,-4.52588 -5.29345,-8.1372 z  m 75.3125,0 c -0.199709,4.31752 -4.1571,6.67691 -6.7585,9.60225 -1.83192,1.53158 0.0451,1.68293 0.96111,0.03889 2.41541,-2.56147 5.82648,-4.8962 5.80635,-8.81293 l .006,-.4143 -.015,-.4139 z  m -56.0625,58.9062 c -2.53195,2.33819 -4.68023,5.14826 -7.56416,7.05729 -4.82193,2.80641 -11.5961,-1.00884 -11.6858,-6.58854 -0.545156,5.30318 5.15781,9.92332 10.2438,8.17615 3.4391,-1.19626 5.48276,-4.41719 8.11405,-6.75273 1.94467,-2.10057 4.7857,2.31169 7.31531,2.24887 9.91419,3.70023 21.4827,2.54596 30.4519,-3.07854 2.50862,2.32032 4.64269,5.10169 7.50166,6.99479 4.8966,2.86852 11.7105,-1.14004 11.6948,-6.76033 0.08377,-1.74565 -0.558629,3.25382 -1.81296,3.76966 -3.05676,3.96841 -9.52621,3.73161 -12.5381,-0.158708 -1.61513,-1.61513 -3.23027,-3.23027 -4.8454,-4.8454 -11.0476,6.96355 -25.8477,6.93938 -36.875,-0.0625 z "/>
</g>
<g style="stroke-linecap:square;stroke-linejoin:round;fill:none">
<path style="stroke:url(#linearGradient3205);stroke-width:2.763" id="path3188" d="m 111.6608,65.8092 a 47.5265,49.47 0 1,1 -95.053,0 47.5265,49.47 0 1,1 95.053,0 z " transform="matrix(0,-0.7383999,0.70939142,0,1.4090934,95.263181)"/>
<path style="stroke:url(#linearGradient3264);stroke-width:3.418" id="path3184" d="m 111.6608,65.8092 a 47.5265,49.47 0 1,1 -95.053,0 47.5265,49.47 0 1,1 95.053,0 z " transform="matrix(0,0.59693361,-0.57348272,0,85.833998,9.6225396)"/>
</g>
<g id="g3420" transform="matrix(0.93749478,0,0,0.93737856,-3.5624006,-3.5592209)">
<path style="fill:url(#radialGradient5013);stroke:none" id="path3266" d="m 27.4847,23.3707 a 3.74236,3.68545 0 1,1 -7.48472,0 3.74236,3.68545 0 1,1 7.48472,0 z " transform="matrix(1.0688448,0,0,1.085349,-2.3768952,-2.3653482)"/>
<g style="stroke-linejoin:round;stroke-linecap:square">
<path style="fill:url(#linearGradient5015);stroke:url(#linearGradient5017);stroke-width:.495" id="path3282" d="m 27.4847,23.3707 a 3.74236,3.68545 0 1,1 -7.48472,0 3.74236,3.68545 0 1,1 7.48472,0 z " transform="matrix(0,-1.0688448,1.085349,0,-2.3653483,48.376895)"/>
<path style="fill:#747474;stroke:url(#linearGradient5019);stroke-width:2.56" id="path3304" d="m 27.4847,23.3707 a 3.74236,3.68545 0 1,1 -7.48472,0 3.74236,3.68545 0 1,1 7.48472,0 z " transform="matrix(0,0.4039237,-0.4101608,0,32.585738,13.4099)"/>
</g>
</g>
<g id="g5037" transform="matrix(0.93749478,0,0,0.93737856,56.437599,-3.5592209)">
<path style="fill:url(#radialGradient5045);stroke:none" id="path5039" d="m 27.4847,23.3707 a 3.74236,3.68545 0 1,1 -7.48472,0 3.74236,3.68545 0 1,1 7.48472,0 z " transform="matrix(1.0688448,0,0,1.085349,-2.3768952,-2.3653482)"/>
<g style="stroke-linejoin:round;stroke-linecap:square">
<path style="fill:url(#linearGradient5047);stroke:url(#linearGradient5049);stroke-width:.495" id="path5041" d="m 27.4847,23.3707 a 3.74236,3.68545 0 1,1 -7.48472,0 3.74236,3.68545 0 1,1 7.48472,0 z " transform="matrix(0,-1.0688448,1.085349,0,-2.3653483,48.376895)"/>
<path style="fill:#747474;stroke:url(#linearGradient5051);stroke-width:2.56" id="path5043" d="m 27.4847,23.3707 a 3.74236,3.68545 0 1,1 -7.48472,0 3.74236,3.68545 0 1,1 7.48472,0 z " transform="matrix(0,0.4039237,-0.4101608,0,32.585738,13.4099)"/>
</g>
</g>
<g id="g5053" transform="matrix(0.93749478,0,0,0.93737856,-3.5624006,56.440779)">
<path style="fill:url(#radialGradient5069);stroke:none" id="path5055" d="m 27.4847,23.3707 a 3.74236,3.68545 0 1,1 -7.48472,0 3.74236,3.68545 0 1,1 7.48472,0 z " transform="matrix(1.0688448,0,0,1.085349,-2.3768952,-2.3653482)"/>
<g style="stroke-linejoin:round;stroke-linecap:square">
<path style="fill:url(#linearGradient5071);stroke:url(#linearGradient5073);stroke-width:.495" id="path5057" d="m 27.4847,23.3707 a 3.74236,3.68545 0 1,1 -7.48472,0 3.74236,3.68545 0 1,1 7.48472,0 z " transform="matrix(0,-1.0688448,1.085349,0,-2.3653483,48.376895)"/>
<path style="fill:#747474;stroke:url(#linearGradient5075);stroke-width:2.56" id="path5059" d="m 27.4847,23.3707 a 3.74236,3.68545 0 1,1 -7.48472,0 3.74236,3.68545 0 1,1 7.48472,0 z " transform="matrix(0,0.4039237,-0.4101608,0,32.585738,13.4099)"/>
</g>
</g>
<g id="g5061" transform="matrix(0.93749478,0,0,0.93737856,56.437599,56.440779)">
<path style="fill:url(#radialGradient5077);stroke:none" id="path5063" d="m 27.4847,23.3707 a 3.74236,3.68545 0 1,1 -7.48472,0 3.74236,3.68545 0 1,1 7.48472,0 z " transform="matrix(1.0688448,0,0,1.085349,-2.3768952,-2.3653482)"/>
<g style="stroke-linejoin:round;stroke-linecap:square">
<path style="fill:url(#linearGradient5079);stroke:url(#linearGradient5081);stroke-width:.495" id="path5065" d="m 27.4847,23.3707 a 3.74236,3.68545 0 1,1 -7.48472,0 3.74236,3.68545 0 1,1 7.48472,0 z " transform="matrix(0,-1.0688448,1.085349,0,-2.3653483,48.376895)"/>
<path style="fill:#747474;stroke:url(#linearGradient5083);stroke-width:2.56" id="path5067" d="m 27.4847,23.3707 a 3.74236,3.68545 0 1,1 -7.48472,0 3.74236,3.68545 0 1,1 7.48472,0 z " transform="matrix(0,0.4039237,-0.4101608,0,32.585738,13.4099)"/>
</g>
</g>
</g>
</svg>
