<svg width="96" version="1.0" xmlns="http://www.w3.org/2000/svg" height="96" xmlns:xlink="http://www.w3.org/1999/xlink">
<defs id="defs2410">
<clipPath id="clipPath3613">
<rect width="84" x="6" y="6" rx="6" height="84" ry="6" style="fill:#fff;stroke:none" id="rect3615"/>
</clipPath>
<filter width="1.3839999" x="-0.192" y="-0.192" height="1.3839999" style="color-interpolation-filters:sRGB" id="filter3794">
<feGaussianBlur stdDeviation="5.28" id="feGaussianBlur3796"/>
</filter>
<filter style="color-interpolation-filters:sRGB" id="filter3174">
<feGaussianBlur stdDeviation="1.71" id="feGaussianBlur3176"/>
</filter>
<linearGradient id="linearGradient3980" xlink:href="#linearGradient3742" y1="76" x1="22" y2="23.961554" x2="22" gradientUnits="userSpaceOnUse"/>
<linearGradient id="linearGradient3972" xlink:href="#linearGradient3990" y1="76" x1="22" y2="-0.23647422" x2="22" gradientUnits="userSpaceOnUse"/>
<linearGradient id="linearGradient3963" xlink:href="#linearGradient3737" y1="21" x1="21" y2="71" x2="21" gradientUnits="userSpaceOnUse"/>
<linearGradient id="linearGradient3947" xlink:href="#linearGradient3700" y1="21" x1="22" y2="75.083267" x2="22" gradientUnits="userSpaceOnUse"/>
<linearGradient gradientTransform="translate(0,-97)" id="linearGradient3721" xlink:href="#ButtonShadow-0" y1="6.1317081" x1="32.251034" y2="90.238609" x2="32.251034" gradientUnits="userSpaceOnUse"/>
<linearGradient gradientTransform="matrix(1.0238095,0,0,1.0119048,-1.1428571,-98.071429)" id="linearGradient3725" xlink:href="#ButtonShadow-0" y1="6.1317081" x1="32.251034" y2="90.238609" x2="32.251034" gradientUnits="userSpaceOnUse"/>
<linearGradient id="linearGradient3988" xlink:href="#linearGradient3742" y1="76" x1="22" y2="23.961554" x2="22" gradientUnits="userSpaceOnUse"/>
<linearGradient gradientTransform="matrix(1.0238095,0,0,1.0119048,-1.1428571,-98.071429)" id="linearGradient3772" xlink:href="#ButtonShadow-0" y1="6.1317081" x1="32.251034" y2="90.238609" x2="32.251034" gradientUnits="userSpaceOnUse"/>
<linearGradient gradientTransform="matrix(1.0058652,0,0,0.994169,100,0)" id="ButtonShadow-0" y1="92.539597" x1="45.447727" y2="7.0165396" x2="45.447727" gradientUnits="userSpaceOnUse">
<stop offset="0" id="stop3750-8"/>
<stop offset="1" style="stop-opacity:.588" id="stop3752-5"/>
</linearGradient>
<linearGradient id="linearGradient4008" xlink:href="#linearGradient3954" y1="42" x1="23" y2="52" x2="23" gradientUnits="userSpaceOnUse"/>
<linearGradient gradientTransform="matrix(1.0238095,0,0,1.0119048,-1.1428571,-98.071429)" id="linearGradient3780" xlink:href="#ButtonShadow-0" y1="6.1317081" x1="32.251034" y2="90.238609" x2="32.251034" gradientUnits="userSpaceOnUse"/>
<linearGradient id="linearGradient3617" xlink:href="#linearGradient3614" y1="90" x1="48" y2="5.9877172" x2="48" gradientUnits="userSpaceOnUse"/>
<linearGradient id="linearGradient3614">
<stop offset="0" style="stop-color:#b9b9b9" id="stop3616"/>
<stop offset="1" style="stop-color:#dedede" id="stop3618"/>
</linearGradient>
<linearGradient gradientTransform="matrix(0.84615385,0,0,0.84375067,17.384616,7.4999454)" id="linearGradient2905" xlink:href="#ButtonShadow" y1="19.555605" x1="36.181816" y2="76.44445" x2="36.181816" gradientUnits="userSpaceOnUse"/>
<linearGradient id="linearGradient3954">
<stop offset="0" style="stop-color:#1a1a1a" id="stop3956"/>
<stop offset="1" style="stop-color:#3a3a3a" id="stop3958"/>
</linearGradient>
<linearGradient id="linearGradient3990">
<stop offset="0" style="stop-color:#5d5d5d" id="stop3992"/>
<stop offset="1" style="stop-color:#909090" id="stop3994"/>
</linearGradient>
<linearGradient id="linearGradient3742">
<stop offset="0" id="stop3744"/>
<stop offset="1" style="stop-opacity:0" id="stop3746"/>
</linearGradient>
<linearGradient gradientTransform="scale(1.0058652,0.994169)" id="ButtonShadow" y1="92.539597" x1="45.447727" y2="7.0165396" x2="45.447727" gradientUnits="userSpaceOnUse">
<stop offset="0" id="stop3750"/>
<stop offset="1" style="stop-opacity:.588" id="stop3752"/>
</linearGradient>
<linearGradient gradientTransform="matrix(1.0238095,0,0,1.0119048,-1.1428571,-98.071429)" id="linearGradient2969" xlink:href="#ButtonShadow-0" y1="6.1317081" x1="32.251034" y2="90.238609" x2="32.251034" gradientUnits="userSpaceOnUse"/>
<linearGradient id="linearGradient3613" xlink:href="#linearGradient3737" y1="20.220806" x1="48" y2="138.66119" x2="48" gradientUnits="userSpaceOnUse"/>
<linearGradient id="linearGradient3737">
<stop offset="0" style="stop-color:#fff" id="stop3739"/>
<stop offset="1" style="stop-color:#fff;stop-opacity:0" id="stop3741"/>
</linearGradient>
<linearGradient id="linearGradient3188" xlink:href="#linearGradient3737" y1="6" x1="36.357143" y2="63.893143" x2="36.357143" gradientUnits="userSpaceOnUse"/>
<linearGradient id="linearGradient3700">
<stop offset="0" style="stop-color:#ebebeb" id="stop3702"/>
<stop offset="1" style="stop-color:#c8c8c8" id="stop3704"/>
</linearGradient>
<radialGradient fx="48" fy="90.171875" cx="48" cy="90.171875" gradientTransform="matrix(1.1573129,0,0,0.99590774,-7.5510206,0.19713193)" r="42" id="radialGradient3619" xlink:href="#linearGradient3737" gradientUnits="userSpaceOnUse"/>
</defs>
<g style="display:none" id="layer2">
<rect width="86" x="5" y="7" rx="6" height="85" ry="6" style="opacity:.9;fill:url(#ButtonShadow);filter:url(#filter3174);stroke:none" id="rect3745"/>
</g>
<g style="stroke:none" id="layer3">
<path style="opacity:.08;fill:url(#linearGradient2969)" id="path3786" d="m 12,-95.0312 c -5.51109,0 -10.0312,4.52016 -10.0312,10.0312 v 71 c 0,5.51109 4.52016,10.0312 10.0312,10.0312 h 72 c 5.51109,0 10.0312,-4.52016 10.0312,-10.0312 v -71 c 0,-5.51109 -4.52016,-10.0312 -10.0312,-10.0312 h -72 z " transform="scale(1,-1)"/>
<path style="opacity:.1;fill:url(#linearGradient3780)" id="path3778" d="m 12,-94.0312 c -4.97163,0 -9.03125,4.05962 -9.03125,9.03125 v 71 c 0,4.97163 4.05962,9.03125 9.03125,9.03125 h 72 c 4.97163,0 9.03125,-4.05962 9.03125,-9.03125 v -71 c 0,-4.97163 -4.05962,-9.03125 -9.03125,-9.03125 h -72 z " transform="scale(1,-1)"/>
<path style="opacity:.2;fill:url(#linearGradient3772)" id="path3770" d="m 12,-93 c -4.40913,0 -8,3.59087 -8,8 v 71 c 0,4.40913 3.59087,8 8,8 h 72 c 4.40913,0 8,-3.59087 8,-8 v -71 c 0,-4.40913 -3.59087,-8 -8,-8 h -72 z " transform="scale(1,-1)"/>
<rect width="86" x="5" y="-92" rx="7" height="85" ry="7" style="opacity:.3;fill:url(#linearGradient3725)" id="rect3723" transform="scale(1,-1)"/>
<rect width="84" x="6" y="-91" rx="6" height="84" ry="6" style="opacity:.45;fill:url(#linearGradient3721)" id="rect3716" transform="scale(1,-1)"/>
</g>
<g style="stroke:none" id="layer1">
<rect width="84" x="6" y="6" rx="6" height="84" ry="6" style="fill:url(#linearGradient3617)" id="rect2419"/>
<path style="opacity:.5;fill:url(#linearGradient3188)" id="rect3728" d="m 12,6 c -3.324,0 -6,2.676 -6,6 v 2 68 2 c 0,0.334721 0.04135,0.6507 0.09375,0.96875 0.0487,0.295596 0.09704,0.596915 0.1875,0.875 0.00988,0.03038 0.020892,0.0636 0.03125,0.09375 0.098865,0.287771 0.23488,0.547452 0.375,0.8125 0.144592,0.273507 0.315616,0.535615 0.5,0.78125 0.184384,0.245635 0.373776,0.473472 0.59375,0.6875 0.439947,0.428056 0.94291,0.814526 1.5,1.09375 0.278545,0.139612 0.573473,0.246947 0.875,0.34375 -0.256202,-0.100222 -0.486711,-0.236272 -0.71875,-0.375 -0.00741,-0.0044 -0.023866,0.0045 -0.03125,0 -0.031933,-0.0193 -0.062293,-0.04251 -0.09375,-0.0625 -0.120395,-0.0767 -0.231023,-0.163513 -0.34375,-0.25 -0.106173,-0.0808 -0.213281,-0.161112 -0.3125,-0.25 -0.17793,-0.161433 -0.34746,-0.345388 -0.5,-0.53125 -0.107579,-0.130255 -0.218394,-0.265285 -0.3125,-0.40625 -0.025089,-0.03838 -0.038446,-0.08587 -0.0625,-0.125 -0.064763,-0.103032 -0.130228,-0.204517 -0.1875,-0.3125 -0.101008,-0.194706 -0.205675,-0.415701 -0.28125,-0.625 -0.00796,-0.02181 -0.023589,-0.04055 -0.03125,-0.0625 -0.0318251,-0.09195 -0.0358045,-0.186831 -0.0625,-0.28125 -0.0303323,-0.106618 -0.0703894,-0.203031 -0.09375,-0.3125 -0.0728786,-0.341512 -0.125,-0.698205 -0.125,-1.0625 v -2 -68 -2 c 0,-2.78185 2.21815,-5 5,-5 h 2 68 2 c 2.78185,0 5,2.21815 5,5 v 2 68 2 c 0,0.364295 -0.05212,0.720988 -0.125,1.0625 -0.04415,0.206893 -0.08838,0.397658 -0.15625,0.59375 -0.0077,0.02195 -0.0233,0.04069 -0.03125,0.0625 -0.06274,0.173739 -0.138383,0.367449 -0.21875,0.53125 -0.04158,0.0828 -0.07904,0.169954 -0.125,0.25 -0.0546,0.09721 -0.126774,0.18835 -0.1875,0.28125 -0.09411,0.140965 -0.204921,0.275995 -0.3125,0.40625 -0.143174,0.17445 -0.303141,0.346998 -0.46875,0.5 -0.01117,0.0102 -0.01998,0.02115 -0.03125,0.03125 -0.138386,0.125556 -0.285091,0.234436 -0.4375,0.34375 -0.102571,0.07315 -0.204318,0.153364 -0.3125,0.21875 -0.0074,0.0045 -0.02384,-0.0044 -0.03125,0 -0.232039,0.138728 -0.462548,0.274778 -0.71875,0.375 0.301527,-0.0968 0.596455,-0.204138 0.875,-0.34375 0.55709,-0.279224 1.06005,-0.665694 1.5,-1.09375 0.219973,-0.214028 0.409366,-0.441865 0.59375,-0.6875 0.184384,-0.245635 0.355408,-0.507743 0.5,-0.78125 0.14012,-0.265048 0.276135,-0.524729 0.375,-0.8125 0.01041,-0.03078 0.02133,-0.06274 0.03125,-0.09375 0.09046,-0.278085 0.1388,-0.579404 0.1875,-0.875 0.0524,-0.31805 0.09375,-0.634029 0.09375,-0.96875 v -2 -68 -2 c 0,-3.324 -2.676,-6 -6,-6 h -72 z "/>
<path style="opacity:.25;fill:url(#radialGradient3619)" id="path3615" d="M 12,90 C 8.676,90 6,87.324 6,84 L 6,82 6,14 6,12 c 0,-0.334721 0.04135,-0.6507 0.09375,-0.96875 0.0487,-0.295596 0.09704,-0.596915 0.1875,-0.875 C 6.29113,10.12587 6.302142,10.09265 6.3125,10.0625 6.411365,9.774729 6.5473802,9.515048 6.6875,9.25 6.8320918,8.976493 7.0031161,8.714385 7.1875,8.46875 7.3718839,8.223115 7.5612765,7.995278 7.78125,7.78125 8.221197,7.353194 8.72416,6.966724 9.28125,6.6875 9.559795,6.547888 9.8547231,6.440553 10.15625,6.34375 9.9000482,6.443972 9.6695391,6.580022 9.4375,6.71875 c -0.00741,0.0044 -0.023866,-0.0045 -0.03125,0 -0.031933,0.0193 -0.062293,0.04251 -0.09375,0.0625 -0.120395,0.0767 -0.2310226,0.163513 -0.34375,0.25 -0.1061728,0.0808 -0.2132809,0.161112 -0.3125,0.25 C 8.4783201,7.442683 8.3087904,7.626638 8.15625,7.8125 8.0486711,7.942755 7.9378561,8.077785 7.84375,8.21875 7.818661,8.25713 7.805304,8.30462 7.78125,8.34375 7.716487,8.446782 7.6510225,8.548267 7.59375,8.65625 7.4927417,8.850956 7.3880752,9.071951 7.3125,9.28125 7.30454,9.30306 7.288911,9.3218 7.28125,9.34375 7.2494249,9.4357 7.2454455,9.530581 7.21875,9.625 7.1884177,9.731618 7.1483606,9.828031 7.125,9.9375 7.0521214,10.279012 7,10.635705 7,11 l 0,2 0,68 0,2 c 0,2.781848 2.2181517,5 5,5 l 2,0 68,0 2,0 c 2.781848,0 5,-2.218152 5,-5 l 0,-2 0,-68 0,-2 C 89,10.635705 88.94788,10.279012 88.875,9.9375 88.83085,9.730607 88.78662,9.539842 88.71875,9.34375 88.71105,9.3218 88.69545,9.30306 88.6875,9.28125 88.62476,9.107511 88.549117,8.913801 88.46875,8.75 88.42717,8.6672 88.38971,8.580046 88.34375,8.5 88.28915,8.40279 88.216976,8.31165 88.15625,8.21875 88.06214,8.077785 87.951329,7.942755 87.84375,7.8125 87.700576,7.63805 87.540609,7.465502 87.375,7.3125 87.36383,7.3023 87.35502,7.29135 87.34375,7.28125 87.205364,7.155694 87.058659,7.046814 86.90625,6.9375 86.803679,6.86435 86.701932,6.784136 86.59375,6.71875 c -0.0074,-0.0045 -0.02384,0.0044 -0.03125,0 -0.232039,-0.138728 -0.462548,-0.274778 -0.71875,-0.375 0.301527,0.0968 0.596455,0.204138 0.875,0.34375 0.55709,0.279224 1.060053,0.665694 1.5,1.09375 0.219973,0.214028 0.409366,0.441865 0.59375,0.6875 0.184384,0.245635 0.355408,0.507743 0.5,0.78125 0.14012,0.265048 0.276135,0.524729 0.375,0.8125 0.01041,0.03078 0.02133,0.06274 0.03125,0.09375 0.09046,0.278085 0.1388,0.579404 0.1875,0.875 C 89.95865,11.3493 90,11.665279 90,12 l 0,2 0,68 0,2 c 0,3.324 -2.676,6 -6,6 l -72,0 z"/>
</g>
<g id="layer5">
<rect width="66" x="15" y="15" rx="12" height="66" ry="12" style="opacity:.1;fill:url(#linearGradient3613);filter:url(#filter3794);stroke:#fff;stroke-linecap:round;stroke-width:.5;clip-path:url(#clipPath3613)" id="rect3171"/>
</g>
<g style="stroke:none" id="layer4">
<g style="color:#000">
<path style="opacity:.05;fill:url(#linearGradient3988)" id="path3986" d="m 19,15 c -2.75301,0 -5,2.24699 -5,5 v 56 c 0,2.75301 2.24699,5 5,5 h 8 c 2.75301,0 5,-2.24699 5,-5 v -56 c 0,-2.75301 -2.24699,-5 -5,-5 h -8 z "/>
<path style="opacity:.1;fill:url(#linearGradient3980)" id="path3978" d="m 19,15.9688 c -2.22084,0 -4.03125,1.81041 -4.03125,4.03125 v 56 c 0,2.22084 1.81041,4.03125 4.03125,4.03125 h 8 c 2.22084,0 4.03125,-1.81041 4.03125,-4.03125 v -56 c 0,-2.22084 -1.81041,-4.03125 -4.03125,-4.03125 h -8 z "/>
</g>
<path style="opacity:.8;fill:url(#linearGradient2905)" id="path3456" d="m 55.2171,74.5051 c -2.59578,-0.863811 -4.10523,-1.72124 -6.65418,-3.77985 -6.8416,-5.52547 -10.4028,-13.6719 -8.46431,-19.3628 0.800836,-2.35108 1.71362,-3.84087 3.3651,-5.49227 2.86754,-2.8674 7.3391,-4.98242 12.928,-6.11484 8.67818,-1.75837 15.5123,0.434339 16.0467,5.14855 0.388004,3.42267 -2.24546,6.53811 -9.83752,11.6379 -5.38935,3.62019 -7.48862,5.54919 -7.48862,6.88117 0,1.91463 2.32947,3.83436 4.65279,3.83436 1.46599,0 2.21899,-0.789711 2.86731,-3.00707 0.85835,-2.93571 2.61259,-3.9711 6.79353,-4.00966 2.9287,-0.02703 3.83826,0.649624 3.97271,2.95536 0.07873,1.35037 -0.08691,2.03161 -0.886795,3.64712 -1.31118,2.64815 -4.38456,5.68869 -7.08737,7.01166 -1.84432,0.902752 -2.41368,1.0236 -5.27255,1.11902 -2.49384,0.08323 -3.58877,-0.02072 -4.9348,-0.46868 z  m -16.7943,-32.2787 c -2.21174,-1.93081 -3.16331,-5.78556 -1.77015,-7.17076 2.12351,-2.11134 4.8174,-0.55607 5.67362,3.27556 0.902389,4.03825 -1.26366,6.1997 -3.90347,3.89519 z  m 7.4557,-5.3806 c -1.58494,-1.66058 -2.11287,-2.97505 -2.12781,-5.29796 -0.01266,-1.96963 -0.01507,-2.51274 1.02181,-3.54368 2.05764,-2.04586 4.64228,-0.524829 5.43883,3.75945 0.391729,2.10692 -0.0504,4.01565 -1.21343,5.23855 -1.07363,1.1289 -1.93384,1.08578 -3.1194,-0.15636 z  m 21.2996,.006 c -1.02401,-0.535039 -2.14328,-2.22132 -2.40895,-3.62935 -0.515261,-2.73085 1.45195,-7.6804 3.81913,-9.60902 3.86398,-3.14811 9.56598,-3.52598 11.02,-0.730285 1.18298,2.27454 -0.376254,6.32481 -3.83839,9.97059 -3.20494,3.37494 -6.68488,4.99425 -8.59181,3.998 z  m -11.5618,-2.183 c -1.22461,-0.587607 -2.10837,-2.91087 -2.11601,-5.56263 -0.01117,-3.87238 1.53289,-5.93782 4.44081,-5.94042 1.77394,-0.0015 2.80604,1.19127 3.10769,3.59175 0.368571,2.93308 -1.48445,7.296 -3.37744,7.95212 -1.14283,0.396106 -1.14454,0.396077 -2.05504,-0.04083 z "/>
<path style="opacity:.5" id="path3873" d="m 75.7812,21 c -2.25344,-0.05401 -5.01401,0.854188 -7.1875,2.625 -2.26292,1.84368 -4.16239,6.43106 -3.875,9.21875 0.155447,-2.78673 1.86304,-6.57954 3.875,-8.21875 3.86398,-3.14811 9.54596,-3.54569 11,-0.75 0.191276,0.367768 0.323559,0.7986 0.375,1.25 0.07425,-0.853853 -0.04806,-1.62139 -0.375,-2.25 -0.636141,-1.22311 -2.05983,-1.83299 -3.8125,-1.875 z  m -17.8438,2.1562 c -2.90792,0.0026 -4.44867,2.06512 -4.4375,5.9375 0.000567,0.196942 0.02124,0.401008 0.03125,0.59375 0.102246,-3.59389 1.60838,-5.52875 4.40625,-5.53125 1.77394,-0.0015 2.82335,1.19327 3.125,3.59375 0.01148,0.09138 -0.0072,0.187253 0,0.28125 0.02779,-0.44467 0.05075,-0.877388 0,-1.28125 -0.301648,-2.40048 -1.35106,-3.59525 -3.125,-3.59375 z  m -11.1562,3.9375 c -0.675291,-0.0328 -1.35699,0.26692 -2,0.90625 -0.985034,0.979392 -1.03986,1.57232 -1.03125,3.3125 0.04259,-1.03201 0.253591,-1.5393 1.03125,-2.3125 2.05764,-2.04586 4.64095,-0.534275 5.4375,3.75 0.06461,0.347508 0.074,0.696714 0.09375,1.03125 0.04937,-0.637296 0.03615,-1.33259 -0.09375,-2.03125 -0.547629,-2.94544 -1.95186,-4.58409 -3.4375,-4.65625 z  m -8.0312,7 c -0.701511,-0.01391 -1.43015,0.308957 -2.09375,0.96875 -0.522435,0.519447 -0.704827,1.39268 -0.625,2.375 0.07839,-0.559952 0.2889,-1.04082 0.625,-1.375 2.12351,-2.11134 4.80003,-0.550383 5.65625,3.28125 0.09731,0.435477 0.1583,0.830171 0.1875,1.21875 0.05362,-0.652895 -0.000378,-1.38137 -0.1875,-2.21875 -0.588651,-2.63425 -2.01917,-4.21939 -3.5625,-4.25 z  m 23.75,5.0625 c -1.86942,-0.03196 -3.92421,0.154156 -6.09375,0.59375 -5.58887,1.13242 -10.07,3.2576 -12.9375,6.125 -1.65148,1.6514 -2.57416,3.14892 -3.375,5.5 -0.403843,1.1856 -0.553487,2.45964 -0.5,3.8125 0.04281,-0.989737 0.197118,-1.9233 0.5,-2.8125 0.800836,-2.35108 1.72352,-3.8486 3.375,-5.5 2.86754,-2.8674 7.34863,-4.99258 12.9375,-6.125 8.67818,-1.75837 15.4968,0.442041 16.0312,5.15625 0.02207,-0.332603 0.03813,-0.663637 0,-1 -0.400814,-3.53566 -4.32924,-5.65413 -9.9375,-5.75 z  m 6.9375,21.0938 c -4.18094,0.03856 -5.95415,1.06429 -6.8125,4 -0.648316,2.21736 -1.40901,3 -2.875,3 -2.07311,0 -4.13897,-1.52925 -4.5625,-3.21875 -0.03909,0.138599 -0.0625,0.279421 -0.0625,0.40625 0,1.91463 2.30168,3.8125 4.625,3.8125 1.46599,0 2.22668,-0.782644 2.875,-3 0.85835,-2.93571 2.63156,-3.96144 6.8125,-4 2.88539,-0.02663 3.81344,0.619374 3.96875,2.84375 0.01696,-0.279005 0.01968,-0.568658 0,-0.90625 -0.134447,-2.30574 -1.04005,-2.96453 -3.96875,-2.9375 z "/>
<path style="opacity:.5;fill:#fff" id="path3882" d="m 79.9688,25.125 c -0.194398,2.23568 -1.6822,5.08055 -4.1875,7.71875 -3.20494,3.37494 -6.68681,4.99625 -8.59375,4 -1.02401,-0.535039 -2.14058,-2.21697 -2.40625,-3.625 -0.02269,-0.120277 -0.04926,-0.246563 -0.0625,-0.375 -0.02745,0.492015 -0.01482,0.965203 0.0625,1.375 0.265668,1.40803 1.38224,3.08996 2.40625,3.625 1.90694,0.996254 5.38881,-0.625057 8.59375,-4 2.90234,-3.0563 4.45421,-6.37838 4.1875,-8.71875 z  m -18.9062,2.9062 c -0.174066,2.78478 -1.77391,6.12172 -3.40625,6.6875 -1.14283,0.396106 -1.12075,0.374407 -2.03125,-0.0625 -1.13366,-0.543966 -1.96894,-2.56629 -2.09375,-4.96875 -0.004,0.141357 -0.03167,0.259703 -0.03125,0.40625 0.0076,2.65176 0.900393,4.97489 2.125,5.5625 0.910498,0.436907 0.888424,0.458606 2.03125,0.0625 1.83401,-0.635681 3.63128,-4.76431 3.40625,-7.6875 z  m -17.3125,3.5312 c -0.0065,0.295119 -0.0025,0.606074 0,1 0.01494,2.32291 0.540061,3.62067 2.125,5.28125 1.18556,1.24214 2.05137,1.28515 3.125,0.15625 0.971204,-1.0212 1.41249,-2.52501 1.3125,-4.21875 -0.099505,1.28456 -0.535136,2.40137 -1.3125,3.21875 -1.07363,1.1289 -1.93944,1.08589 -3.125,-0.15625 -1.58494,-1.66058 -2.11006,-2.95834 -2.125,-5.28125 z  m -7.7188,5.9375 c -0.216435,1.75903 0.747447,4.27064 2.40625,5.71875 2.35514,2.056 4.30407,0.558529 4.0625,-2.65625 -0.204979,2.49567 -1.97009,3.48289 -4.0625,1.65625 -1.36547,-1.19203 -2.25662,-3.09394 -2.40625,-4.71875 z  m 36.4062,8.6875 c -0.347927,2.95896 -3.2007,5.8814 -9.84375,10.3438 -5.38935,3.62019 -7.46875,5.57427 -7.46875,6.90625 0,0.206191 0.01138,0.389845 0.0625,0.59375 0.37148,-1.317 2.53007,-3.22451 7.40625,-6.5 7.37906,-4.95675 10.0546,-8.0321 9.84375,-11.3438 z  m -32.8438,9 c -0.231187,5.34458 3.19615,11.8691 8.96875,16.5312 2.54895,2.05861 4.06047,2.91744 6.65625,3.78125 1.34602,0.44796 2.44366,0.55198 4.9375,0.46875 2.85887,-0.09542 3.43693,-0.222248 5.28125,-1.125 2.7028,-1.32297 5.75132,-4.35185 7.0625,-7 0.799885,-1.6155 0.98498,-2.30588 0.90625,-3.65625 -0.06309,0.795571 -0.328876,1.49015 -0.90625,2.65625 -1.31118,2.64815 -4.3597,5.67703 -7.0625,7 -1.84432,0.902752 -2.42238,1.02958 -5.28125,1.125 -2.49384,0.08323 -3.59148,-0.02079 -4.9375,-0.46875 -2.59578,-0.863811 -4.1073,-1.72264 -6.65625,-3.78125 -5.41627,-4.37433 -8.7655,-10.3904 -8.96875,-15.5312 z "/>
<g style="color:#000">
<path style="fill:url(#linearGradient3972)" id="rect3935" d="m 19,17 8,0 c 1.662,0 3,1.338 3,3 v 56 c 0,1.662 -1.338,3 -3,3 h -8 c -1.662,0 -3,-1.338 -3,-3 v -56 c 0,-1.662 1.338,-3 3,-3 z "/>
<path style="fill:url(#linearGradient3947)" id="path3939" d="m 19,17.9688 c -1.13645,0 -2.03125,0.894798 -2.03125,2.03125 v 56 c 0,1.13645 0.894798,2.03125 2.03125,2.03125 h 8 c 1.13645,0 2.03125,-0.894798 2.03125,-2.03125 v -56 c 0,-1.13645 -0.894798,-2.03125 -2.03125,-2.03125 h -8 z "/>
<path style="opacity:.8;fill:url(#linearGradient3963)" id="path3949" d="m 19,17.9688 c -1.13645,0 -2.03125,0.894798 -2.03125,2.03125 v 56 c 0,1.13645 0.894798,2.03125 2.03125,2.03125 h 8 c 1.13645,0 2.03125,-0.894798 2.03125,-2.03125 v -56 c 0,-1.13645 -0.894798,-2.03125 -2.03125,-2.03125 h -8 z  m 0,1.0625 8,0 c 0.575727,0 0.96875,0.393023 0.96875,0.96875 v 56 c 0,0.575727 -0.393023,0.96875 -0.96875,0.96875 h -8 c -0.575727,0 -0.96875,-0.393023 -0.96875,-0.96875 v -56 c 0,-0.575727 0.393023,-0.96875 0.96875,-0.96875 z "/>
</g>
<path style="opacity:.8;fill:url(#linearGradient4008)" id="path4000" d="m 19,47 7,5 0,-10 -7,5 z"/>
<path style="opacity:.5" id="path4010" d="m 26,42 -7,5 0.6875,0.5 L 26,43 26,42 z"/>
<path style="opacity:.5;fill:#fff" id="path4019" d="M 19.6875,47.5 19,48 l 7,5 0,-1 -6.3125,-4.5 z"/>
</g>
</svg>
