<svg width="96" version="1.0" xmlns="http://www.w3.org/2000/svg" height="96" xmlns:xlink="http://www.w3.org/1999/xlink">
<defs id="defs2410">
<clipPath id="clipPath3613">
<rect width="84" x="6" y="6" rx="6" height="84" ry="6" style="fill:#fff;stroke:none" id="rect3615"/>
</clipPath>
<filter style="color-interpolation-filters:sRGB" id="filter3174">
<feGaussianBlur stdDeviation="1.71" id="feGaussianBlur3176"/>
</filter>
<filter width="1.3839999" x="-0.192" y="-0.192" height="1.3839999" style="color-interpolation-filters:sRGB" id="filter3794">
<feGaussianBlur stdDeviation="5.28" id="feGaussianBlur3796"/>
</filter>
<filter width="1.24" x="-0.12" y="-0.12" height="1.24" style="color-interpolation-filters:sRGB" id="filter4046-5">
<feGaussianBlur stdDeviation="0.25" id="feGaussianBlur4048-6"/>
</filter>
<linearGradient id="linearGradient3977" xlink:href="#linearGradient3737" y1="-77.510933" x1="66.658142" y2="51.679737" x2="66.658142" gradientUnits="userSpaceOnUse"/>
<linearGradient gradientTransform="matrix(1.0238095,0,0,1.0119048,-1.1428571,-98.071429)" id="linearGradient3725" xlink:href="#ButtonShadow-0" y1="6.1317081" x1="32.251034" y2="90.238609" x2="32.251034" gradientUnits="userSpaceOnUse"/>
<linearGradient gradientTransform="translate(0,-97)" id="linearGradient3721" xlink:href="#ButtonShadow-0" y1="6.1317081" x1="32.251034" y2="90.238609" x2="32.251034" gradientUnits="userSpaceOnUse"/>
<linearGradient gradientTransform="matrix(1.0238095,0,0,1.0119048,-1.1428571,-98.071429)" id="linearGradient3026" xlink:href="#ButtonShadow-0" y1="6.1317081" x1="32.251034" y2="90.238609" x2="32.251034" gradientUnits="userSpaceOnUse"/>
<linearGradient id="linearGradient2312">
<stop offset="0" style="stop-color:#e3ebf3" id="stop2314"/>
<stop offset="1" style="stop-color:#cedceb;stop-opacity:.132" id="stop2316"/>
</linearGradient>
<linearGradient id="linearGradient4224-9">
<stop offset="0" style="stop-color:#95d2f8" id="stop4226-7"/>
<stop offset="0.41" style="stop-color:#357bb5" id="stop4240-8"/>
<stop offset="1" style="stop-color:#13324e" id="stop4228-0"/>
</linearGradient>
<linearGradient id="linearGradient4008-1">
<stop offset="0" style="stop-color:#fff" id="stop4010-3"/>
<stop offset="0.5" style="stop-color:#fff;stop-opacity:.279" id="stop4016-7"/>
<stop offset="1" style="stop-color:#fff;stop-opacity:0" id="stop4012-2"/>
</linearGradient>
<linearGradient gradientTransform="matrix(1.0238095,0,0,1.0119048,-1.1428571,-98.071429)" id="linearGradient3772" xlink:href="#ButtonShadow-0" y1="6.1317081" x1="32.251034" y2="90.238609" x2="32.251034" gradientUnits="userSpaceOnUse"/>
<linearGradient id="linearGradient4463-9">
<stop offset="0" style="stop-opacity:0" id="stop4465-1"/>
<stop offset="0.91000003" style="stop-opacity:0" id="stop4467-3"/>
<stop offset="1" id="stop4469-1"/>
</linearGradient>
<linearGradient id="linearGradient4471-1">
<stop offset="0" style="stop-color:#fff" id="stop4473-6"/>
<stop offset="0.5" style="stop-color:#f6f6f6" id="stop4544-9"/>
<stop offset="1" style="stop-color:#8aa6c6" id="stop4475-9"/>
</linearGradient>
<linearGradient id="linearGradient3700">
<stop offset="0" style="stop-color:#22193e" id="stop3702"/>
<stop offset="1" style="stop-color:#9586af" id="stop3704"/>
</linearGradient>
<linearGradient gradientTransform="matrix(1.0238095,0,0,1.0119048,-1.1428571,-98.071429)" id="linearGradient3780" xlink:href="#ButtonShadow-0" y1="6.1317081" x1="32.251034" y2="90.238609" x2="32.251034" gradientUnits="userSpaceOnUse"/>
<linearGradient id="linearGradient3998">
<stop offset="0" style="stop-color:#fff" id="stop4000"/>
<stop offset="1" style="stop-color:#fff;stop-opacity:0" id="stop4002"/>
</linearGradient>
<linearGradient gradientTransform="scale(1.0058652,0.994169)" id="ButtonShadow" y1="92.539597" x1="45.447727" y2="7.0165396" x2="45.447727" gradientUnits="userSpaceOnUse">
<stop offset="0" id="stop3750"/>
<stop offset="1" style="stop-opacity:.588" id="stop3752"/>
</linearGradient>
<linearGradient id="linearGradient3737">
<stop offset="0" style="stop-color:#fff" id="stop3739"/>
<stop offset="1" style="stop-color:#fff;stop-opacity:0" id="stop3741"/>
</linearGradient>
<linearGradient id="linearGradient3617" xlink:href="#linearGradient3700" y1="90" x1="48" y2="5.9877172" x2="48" gradientUnits="userSpaceOnUse"/>
<linearGradient gradientTransform="matrix(1.0058652,0,0,0.994169,100,0)" id="ButtonShadow-0" y1="92.539597" x1="45.447727" y2="7.0165396" x2="45.447727" gradientUnits="userSpaceOnUse">
<stop offset="0" id="stop3750-8"/>
<stop offset="1" style="stop-opacity:.588" id="stop3752-5"/>
</linearGradient>
<linearGradient id="linearGradient3613" xlink:href="#linearGradient3737" y1="20.220806" x1="48" y2="138.66119" x2="48" gradientUnits="userSpaceOnUse"/>
<linearGradient id="linearGradient3188" xlink:href="#linearGradient3737" y1="6" x1="36.357143" y2="63.893143" x2="36.357143" gradientUnits="userSpaceOnUse"/>
<radialGradient fx="19.464287" fy="15.821428" cx="19.464287" cy="15.821428" r="2.5" id="radialGradient4020-6" xlink:href="#linearGradient4008-1" gradientUnits="userSpaceOnUse"/>
<radialGradient fx="19.464287" fy="15.821428" cx="19.464287" cy="15.821428" r="2.5" id="radialGradient4028-4" xlink:href="#linearGradient4008-1" gradientUnits="userSpaceOnUse"/>
<radialGradient fx="19.464287" fy="15.821428" cx="19.464287" cy="15.821428" r="2.5" id="radialGradient4040-0" xlink:href="#linearGradient4008-1" gradientUnits="userSpaceOnUse"/>
<radialGradient fx="19.464287" fy="15.821428" cx="19.464287" cy="15.821428" r="2.5" id="radialGradient4044-9" xlink:href="#linearGradient4008-1" gradientUnits="userSpaceOnUse"/>
<radialGradient fx="19.464287" fy="15.821428" cx="19.464287" cy="15.821428" r="2.5" id="radialGradient4024-1" xlink:href="#linearGradient4008-1" gradientUnits="userSpaceOnUse"/>
<radialGradient fx="19.464287" fy="15.821428" cx="19.464287" cy="15.821428" r="2.5" id="radialGradient4032-1" xlink:href="#linearGradient4008-1" gradientUnits="userSpaceOnUse"/>
<radialGradient fx="19.464287" fy="15.821428" cx="19.464287" cy="15.821428" r="2.5" id="radialGradient4036-3" xlink:href="#linearGradient4008-1" gradientUnits="userSpaceOnUse"/>
<radialGradient fx="46.972088" fy="-33.92337" cx="46.972088" cy="-33.92337" gradientTransform="matrix(0.59847574,0,0,0.56885524,11.060869,58.573934)" r="60.306107" id="radialGradient3093" xlink:href="#linearGradient4471-1" gradientUnits="userSpaceOnUse"/>
<radialGradient fx="46.972088" fy="-33.92337" cx="46.972088" cy="-33.92337" gradientTransform="matrix(1.16425,0,0,1.10663,-7.71521,3.61728)" r="60.306107" id="radialGradient3916" xlink:href="#linearGradient4224-9" gradientUnits="userSpaceOnUse"/>
<radialGradient fx="19.464287" fy="15.821428" cx="19.464287" cy="15.821428" r="2.5" id="radialGradient4141" xlink:href="#linearGradient4008-1" gradientUnits="userSpaceOnUse"/>
<radialGradient fx="65.260735" fy="-19.960367" cx="65.260735" cy="-19.960367" gradientTransform="matrix(1.13731,0,0,1.10821,-5.9284,3.62966)" r="60.306107" id="radialGradient3926" xlink:href="#linearGradient4463-9" gradientUnits="userSpaceOnUse"/>
<radialGradient fx="46.972088" fy="-33.92337" cx="46.972088" cy="-33.92337" gradientTransform="matrix(1.16425,0,0,1.10663,-7.71521,3.61728)" r="60.306107" id="radialGradient3956" xlink:href="#linearGradient4224-9" gradientUnits="userSpaceOnUse"/>
<radialGradient fx="64.144684" fy="-16.952808" cx="64.144684" cy="-16.952808" r="60.306107" id="radialGradient4004" xlink:href="#linearGradient3998" gradientUnits="userSpaceOnUse"/>
<radialGradient fx="22.109167" fy="19.780535" cx="22.109167" cy="19.780535" gradientTransform="matrix(1.5734438,0,0,1.4686163,8.6764519,12.714697)" r="19.18985" id="radialGradient3146" xlink:href="#linearGradient2312" gradientUnits="userSpaceOnUse"/>
<radialGradient fx="48" fy="90.171875" cx="48" cy="90.171875" gradientTransform="matrix(1.1573129,0,0,0.99590774,-7.5510206,0.19713193)" r="42" id="radialGradient3619" xlink:href="#linearGradient3737" gradientUnits="userSpaceOnUse"/>
</defs>
<g style="display:none" id="layer2">
<rect width="86" x="5" y="7" rx="6" height="85" ry="6" style="opacity:.9;fill:url(#ButtonShadow);filter:url(#filter3174);stroke:none" id="rect3745"/>
</g>
<g style="stroke:none" id="layer3">
<path style="opacity:.08;fill:url(#linearGradient3026)" id="path3786" d="m 12,-95.0312 c -5.51109,0 -10.0312,4.52016 -10.0312,10.0312 v 71 c 0,5.51109 4.52016,10.0312 10.0312,10.0312 h 72 c 5.51109,0 10.0312,-4.52016 10.0312,-10.0312 v -71 c 0,-5.51109 -4.52016,-10.0312 -10.0312,-10.0312 h -72 z " transform="scale(1,-1)"/>
<path style="opacity:.1;fill:url(#linearGradient3780)" id="path3778" d="m 12,-94.0312 c -4.97163,0 -9.03125,4.05962 -9.03125,9.03125 v 71 c 0,4.97163 4.05962,9.03125 9.03125,9.03125 h 72 c 4.97163,0 9.03125,-4.05962 9.03125,-9.03125 v -71 c 0,-4.97163 -4.05962,-9.03125 -9.03125,-9.03125 h -72 z " transform="scale(1,-1)"/>
<path style="opacity:.2;fill:url(#linearGradient3772)" id="path3770" d="m 12,-93 c -4.40913,0 -8,3.59087 -8,8 v 71 c 0,4.40913 3.59087,8 8,8 h 72 c 4.40913,0 8,-3.59087 8,-8 v -71 c 0,-4.40913 -3.59087,-8 -8,-8 h -72 z " transform="scale(1,-1)"/>
<rect width="86" x="5" y="-92" rx="7" height="85" ry="7" style="opacity:.3;fill:url(#linearGradient3725)" id="rect3723" transform="scale(1,-1)"/>
<rect width="84" x="6" y="-91" rx="6" height="84" ry="6" style="opacity:.45;fill:url(#linearGradient3721)" id="rect3716" transform="scale(1,-1)"/>
</g>
<g style="stroke:none" id="layer1">
<rect width="84" x="6" y="6" rx="6" height="84" ry="6" style="fill:url(#linearGradient3617)" id="rect2419"/>
<path style="opacity:.4;fill:url(#linearGradient3188)" id="rect3728" d="m 12,6 c -3.324,0 -6,2.676 -6,6 v 2 68 2 c 0,0.334721 0.04135,0.6507 0.09375,0.96875 0.0487,0.295596 0.09704,0.596915 0.1875,0.875 0.00988,0.03038 0.020892,0.0636 0.03125,0.09375 0.098865,0.287771 0.23488,0.547452 0.375,0.8125 0.144592,0.273507 0.315616,0.535615 0.5,0.78125 0.184384,0.245635 0.373776,0.473472 0.59375,0.6875 0.439947,0.428056 0.94291,0.814526 1.5,1.09375 0.278545,0.139612 0.573473,0.246947 0.875,0.34375 -0.256202,-0.100222 -0.486711,-0.236272 -0.71875,-0.375 -0.00741,-0.0044 -0.023866,0.0045 -0.03125,0 -0.031933,-0.0193 -0.062293,-0.04251 -0.09375,-0.0625 -0.120395,-0.0767 -0.231023,-0.163513 -0.34375,-0.25 -0.106173,-0.0808 -0.213281,-0.161112 -0.3125,-0.25 -0.17793,-0.161433 -0.34746,-0.345388 -0.5,-0.53125 -0.107579,-0.130255 -0.218394,-0.265285 -0.3125,-0.40625 -0.025089,-0.03838 -0.038446,-0.08587 -0.0625,-0.125 -0.064763,-0.103032 -0.130228,-0.204517 -0.1875,-0.3125 -0.101008,-0.194706 -0.205675,-0.415701 -0.28125,-0.625 -0.00796,-0.02181 -0.023589,-0.04055 -0.03125,-0.0625 -0.0318251,-0.09195 -0.0358045,-0.186831 -0.0625,-0.28125 -0.0303323,-0.106618 -0.0703894,-0.203031 -0.09375,-0.3125 -0.0728786,-0.341512 -0.125,-0.698205 -0.125,-1.0625 v -2 -68 -2 c 0,-2.78185 2.21815,-5 5,-5 h 2 68 2 c 2.78185,0 5,2.21815 5,5 v 2 68 2 c 0,0.364295 -0.05212,0.720988 -0.125,1.0625 -0.04415,0.206893 -0.08838,0.397658 -0.15625,0.59375 -0.0077,0.02195 -0.0233,0.04069 -0.03125,0.0625 -0.06274,0.173739 -0.138383,0.367449 -0.21875,0.53125 -0.04158,0.0828 -0.07904,0.169954 -0.125,0.25 -0.0546,0.09721 -0.126774,0.18835 -0.1875,0.28125 -0.09411,0.140965 -0.204921,0.275995 -0.3125,0.40625 -0.143174,0.17445 -0.303141,0.346998 -0.46875,0.5 -0.01117,0.0102 -0.01998,0.02115 -0.03125,0.03125 -0.138386,0.125556 -0.285091,0.234436 -0.4375,0.34375 -0.102571,0.07315 -0.204318,0.153364 -0.3125,0.21875 -0.0074,0.0045 -0.02384,-0.0044 -0.03125,0 -0.232039,0.138728 -0.462548,0.274778 -0.71875,0.375 0.301527,-0.0968 0.596455,-0.204138 0.875,-0.34375 0.55709,-0.279224 1.06005,-0.665694 1.5,-1.09375 0.219973,-0.214028 0.409366,-0.441865 0.59375,-0.6875 0.184384,-0.245635 0.355408,-0.507743 0.5,-0.78125 0.14012,-0.265048 0.276135,-0.524729 0.375,-0.8125 0.01041,-0.03078 0.02133,-0.06274 0.03125,-0.09375 0.09046,-0.278085 0.1388,-0.579404 0.1875,-0.875 0.0524,-0.31805 0.09375,-0.634029 0.09375,-0.96875 v -2 -68 -2 c 0,-3.324 -2.676,-6 -6,-6 h -72 z "/>
<path style="opacity:.2;fill:url(#radialGradient3619)" id="path3615" d="M 12,90 C 8.676,90 6,87.324 6,84 L 6,82 6,14 6,12 c 0,-0.334721 0.04135,-0.6507 0.09375,-0.96875 0.0487,-0.295596 0.09704,-0.596915 0.1875,-0.875 C 6.29113,10.12587 6.302142,10.09265 6.3125,10.0625 6.411365,9.774729 6.5473802,9.515048 6.6875,9.25 6.8320918,8.976493 7.0031161,8.714385 7.1875,8.46875 7.3718839,8.223115 7.5612765,7.995278 7.78125,7.78125 8.221197,7.353194 8.72416,6.966724 9.28125,6.6875 9.559795,6.547888 9.8547231,6.440553 10.15625,6.34375 9.9000482,6.443972 9.6695391,6.580022 9.4375,6.71875 c -0.00741,0.0044 -0.023866,-0.0045 -0.03125,0 -0.031933,0.0193 -0.062293,0.04251 -0.09375,0.0625 -0.120395,0.0767 -0.2310226,0.163513 -0.34375,0.25 -0.1061728,0.0808 -0.2132809,0.161112 -0.3125,0.25 C 8.4783201,7.442683 8.3087904,7.626638 8.15625,7.8125 8.0486711,7.942755 7.9378561,8.077785 7.84375,8.21875 7.818661,8.25713 7.805304,8.30462 7.78125,8.34375 7.716487,8.446782 7.6510225,8.548267 7.59375,8.65625 7.4927417,8.850956 7.3880752,9.071951 7.3125,9.28125 7.30454,9.30306 7.288911,9.3218 7.28125,9.34375 7.2494249,9.4357 7.2454455,9.530581 7.21875,9.625 7.1884177,9.731618 7.1483606,9.828031 7.125,9.9375 7.0521214,10.279012 7,10.635705 7,11 l 0,2 0,68 0,2 c 0,2.781848 2.2181517,5 5,5 l 2,0 68,0 2,0 c 2.781848,0 5,-2.218152 5,-5 l 0,-2 0,-68 0,-2 C 89,10.635705 88.94788,10.279012 88.875,9.9375 88.83085,9.730607 88.78662,9.539842 88.71875,9.34375 88.71105,9.3218 88.69545,9.30306 88.6875,9.28125 88.62476,9.107511 88.549117,8.913801 88.46875,8.75 88.42717,8.6672 88.38971,8.580046 88.34375,8.5 88.28915,8.40279 88.216976,8.31165 88.15625,8.21875 88.06214,8.077785 87.951329,7.942755 87.84375,7.8125 87.700576,7.63805 87.540609,7.465502 87.375,7.3125 87.36383,7.3023 87.35502,7.29135 87.34375,7.28125 87.205364,7.155694 87.058659,7.046814 86.90625,6.9375 86.803679,6.86435 86.701932,6.784136 86.59375,6.71875 c -0.0074,-0.0045 -0.02384,0.0044 -0.03125,0 -0.232039,-0.138728 -0.462548,-0.274778 -0.71875,-0.375 0.301527,0.0968 0.596455,0.204138 0.875,0.34375 0.55709,0.279224 1.060053,0.665694 1.5,1.09375 0.219973,0.214028 0.409366,0.441865 0.59375,0.6875 0.184384,0.245635 0.355408,0.507743 0.5,0.78125 0.14012,0.265048 0.276135,0.524729 0.375,0.8125 0.01041,0.03078 0.02133,0.06274 0.03125,0.09375 0.09046,0.278085 0.1388,0.579404 0.1875,0.875 C 89.95865,11.3493 90,11.665279 90,12 l 0,2 0,68 0,2 c 0,3.324 -2.676,6 -6,6 l -72,0 z"/>
<path style="opacity:.2;fill:url(#radialGradient4004);fill-rule:evenodd;color:#000;stroke-width:2" id="path3990" d="m 124.4508,-16.9528 a 60.3061,60.3061 0 1,1 -120.612,0 60.3061,60.3061 0 1,1 120.612,0 z " transform="matrix(0.55997054,0,0,0.15984552,12.080867,78.349491)"/>
</g>
<g id="layer5">
<rect width="66" x="15" y="15" rx="12" height="66" ry="12" style="opacity:.1;fill:url(#linearGradient3613);filter:url(#filter3794);stroke:#fff;stroke-linecap:round;stroke-width:.5;clip-path:url(#clipPath3613)" id="rect3171"/>
</g>
<g id="layer4">
<g style="stroke-width:2;color:#000;stroke:none;fill-rule:evenodd">
<path style="opacity:.05" id="path3942" d="m 64.1562,-83.125 c -36.4798,0 -66.1875,29.7077 -66.1875,66.1875 0,36.48 29.7111,66.1562 66.1875,66.1562 36.4765,0 66.1562,-29.6797 66.1562,-66.1562 0,-36.4764 -29.6763,-66.1875 -66.1562,-66.1875 z " transform="matrix(0.51404413,0,0,0.51404413,15.026802,57.714492)"/>
<path style="opacity:.1" id="path3938" d="m 64.1562,-81.125 c -35.3955,0 -64.1875,28.792 -64.1875,64.1875 0,35.3956 28.7943,64.1562 64.1875,64.1562 35.3932,0 64.1562,-28.763 64.1562,-64.1562 0,-35.3932 -28.7607,-64.1875 -64.1562,-64.1875 z " transform="matrix(0.51404413,0,0,0.51404413,15.026802,57.714492)"/>
<path style="opacity:.15" id="path3934" d="m 64.1562,-79.125 c -34.3131,0 -62.1875,27.8744 -62.1875,62.1875 0,34.3131 27.8756,62.1562 62.1875,62.1562 34.3119,0 62.1562,-27.8443 62.1562,-62.1562 0,-34.3119 -27.8432,-62.1875 -62.1562,-62.1875 z " transform="matrix(0.51404413,0,0,0.51404413,15.026802,57.714492)"/>
<path style="opacity:.3" id="path3928" d="m 124.4508,-16.9528 a 60.3061,60.3061 0 1,1 -120.612,0 60.3061,60.3061 0 1,1 120.612,0 z " transform="matrix(0.51404413,0,0,0.51404413,15.026802,57.714492)"/>
<path style="fill:url(#radialGradient3916)" id="path3253" d="m 124.4508,-16.9528 a 60.3061,60.3061 0 1,1 -120.612,0 60.3061,60.3061 0 1,1 120.612,0 z " transform="matrix(0.51404413,0,0,0.51404413,15.026802,56.714492)"/>
<path style="fill:url(#radialGradient3926)" id="path4449" d="m 124.4508,-16.9528 a 60.3061,60.3061 0 1,1 -120.612,0 60.3061,60.3061 0 1,1 120.612,0 z " transform="matrix(0.51404413,0,0,0.51404413,15.026802,56.714492)"/>
</g>
<path style="opacity:.6;fill:url(#radialGradient3146)" id="path4144" d="m 47.9751,18.3019 -3.43,.3977 -4.2254,1.1682 -.7954,.7705 2.6346,1.8144 0,1.0439 -1.0439,1.0439 1.367,2.7092 .9196,-.4971 1.1433,-1.8393 c 1.76698,-0.547337 3.36607,-1.16041 5.04557,-1.93869 l 1.367,-3.5046 -2.9826,-1.1682 z  m -8.0282,.4225 c -0.755569,0.213653 -1.50662,0.451057 -2.23695,0.720794 l -.0249,.0249 c -0.01449,0.0053 -0.03524,-0.0054 -0.04971,0 -1.00816,0.375362 -1.97881,0.815819 -2.93289,1.29246 l 1.4913,.2734 .5717,-.522 1.1433,-.2486 c 0.783575,-0.381812 1.57953,-0.650222 2.41094,-0.919636 l -.3728,-.6214 z  m -6.8351,2.9577 -.2237,.522 .0994,1.2925 -.8948,.7705 -.5717,1.4416 1.1433,0 .5717,-1.2925 c 0.493273,-0.349494 0.964044,-0.707498 1.46645,-1.04391 l 1.1433,.3977 c 0.762177,0.518804 1.52386,1.02299 2.28666,1.54101 l 1.1682,-1.0439 -1.2676,-.4971 -.5717,-1.1682 -2.1872,-.2734 -.0994,-.6462 -1.0439,.2486 -.4474,.9196 -.5717,-1.1682 z  m 29.3041,1.0439 -2.1872,.522 -1.367,.8948 0,.7705 -2.1624,1.4416 .4474,2.063 1.2676,-.8948 .7954,.8948 .9196,.522 .5717,-1.541 -.348,-.9196 .348,-.6462 1.2428,-1.1682 .5717,0 -.5717,1.2925 0,1.1682 c 0.525531,-0.143298 1.07777,-0.181552 1.61558,-0.24855 l -1.4913,1.0191 -.1243,.6711 -1.715,1.4167 -1.715,-.3977 v -1.01905 l -.7954,.4971 .348,.9196 h -1.26761 l -.6711,1.1682 -.8699,.9693 -1.541,.3231 .9196,.9196 .2237,.8948 h -1.14333 l -1.4913,.7954 v 2.31152 h 0.695941 l .6214,.7208 1.4416,-.7208 .5717,-1.4167 1.0191,-.6462 .2237,-.522 1.715,-.3977 .9196,1.0439 1.0191,.522 -.5717,1.1682 .9196,-.2485 .4722,-1.1682 -1.1433,-1.3173 h 0.44739 l 1.1433,.9196 .2237,1.2925 1.0439,1.1682 .2237,-1.6901 .5717,-.2486 c 0.565496,0.588168 1.01502,1.27674 1.4913,1.93869 l 1.715,.1243 1.0191,.6462 -.4474,.6462 -1.0439,.9196 h -1.46644 l -1.9635,-.6462 -1.0191,.1243 -.7456,.8451 -2.1127,-2.1375 -1.4913,-.3977 -2.1624,.2734 -1.9635,.522 c -1.09103,1.23924 -2.14879,2.46611 -3.18144,3.75311 l -1.2676,2.9826 .5717,.6462 -1.0191,1.5659 1.1433,2.7092 c 0.972545,1.10224 1.93691,2.20269 2.90803,3.30572 l 1.4167,-1.2179 .6462,.7208 1.541,-.9942 .522,.5965 h 1.54101 l .8699,.9942 -.5468,1.7896 1.0936,1.2428 -.0497,2.1375 .7954,1.541 -.5717,1.3173 c -0.05696,0.954379 -0.09942,1.87895 -0.09942,2.83347 0.46873,1.29315 0.924418,2.59979 1.36703,3.90224 l .3231,2.063 v 1.04391 h 0.820216 l 1.2428,-.7705 h 1.4913 l 2.237,-2.5352 -.2983,-.8451 1.4913,-1.2925 -1.0936,-1.2428 1.3173,-1.0936 1.2676,-.7705 .5717,-.6462 -.348,-1.4416 c 0,-1.20991 0,-2.41876 0,-3.62883 l 1.0439,-2.2121 1.2428,-1.4167 1.367,-3.3803 v -0.89478 c -0.678187,0.08559 -1.32497,0.150735 -1.9884,0.19884 l -.0497,.0497 -.0497,-.0497 c -0.401579,0.02729 -0.804972,0.0497 -1.21789,0.0497 -0.728348,-1.5334 -1.28463,-3.06856 -1.83927,-4.67274 l -.9693,-1.0936 -.4971,-1.889 .3231,-.3728 1.3173,1.4913 1.541,3.3057 .9196,1.0191 -.4474,1.1682 .8699,.9942 c 0.03272,-0.0022 0.06674,0.0024 0.09942,0 l 1.367,-1.367 1.889,-1.2925 1.0439,-1.1682 v -1.31732 c -0.228943,-0.432567 -0.465438,-0.85988 -0.695948,-1.29245 l -.9196,1.0439 -.6959,-.7705 -1.0191,-.7954 v -1.66529 l 1.193,1.3422 1.3173,-.174 c 0.599166,0.544972 1.18946,1.0448 1.715,1.66528 l .8451,-.9445 c -1.20923,-7.40791 -5.12707,-13.9053 -10.6877,-18.4673 l -.2237,.348 -1.1433,1.2925 -1.4664,-1.541 h 1.46644 l .6214,-.6959 c -0.0513,-0.03945 -0.09757,-0.08514 -0.14913,-0.124276 l -2.5104,-.4722 -1.4913,-.522 z  m -31.2676,.0994 c -0.40441,0.276116 -0.778183,0.575013 -1.16819,0.869926 l -.174,.4474 c 0,0 -0.313455,0.05249 -0.54681,0.09942 -6.47106,5.20338 -10.7614,13.0281 -11.2593,21.8475 0.310704,0.533514 0.695941,1.14333 0.695941,1.14333 l 2.4109,1.4167 2.3861,.6711 1.0439,1.2925 1.5907,1.1682 .9196,-.1491 .6959,.3231 v 0.19884 l -.9196,2.4606 -.6959,1.0439 .2237,.522 -.5717,1.9387 2.063,3.778 2.063,1.8144 .9196,1.2925 -.1243,2.7341 .6959,1.541 -.6959,2.9826 c 0,0 -0.01638,0.02201 0.02485,0.198841 0.961363,0.681629 1.96761,1.32142 3.00746,1.88898 0.01628,0.0089 0.03341,0.01597 0.0497,0.02488 0.04472,0.021 0.10693,0.05541 0.149131,0.07455 0.36863,0.16733 0.639098,0.266022 0.69594,0.223693 0.226575,-0.172461 0.422534,-0.323114 0.422534,-0.323114 l -.2237,-.6462 .9196,-.9196 .348,-.8948 1.4664,-.522 1.1433,-2.8583 -.3231,-.7705 .7954,-1.1682 1.715,-.3977 .9196,-2.0878 -.2237,-2.5849 1.367,-1.9387 .2237,-1.9387 c -1.87774,-0.932931 -3.75348,-1.8978 -5.61723,-2.85832 l -.8948,-1.8144 -1.715,-.3977 -.9196,-2.4606 -2.2867,.2486 -1.9387,-1.4167 -2.063,1.8144 v 0.273405 c -0.623082,-0.180184 -1.38389,-0.205039 -1.93869,-0.54681 l -.4722,-1.2925 v -1.41674 l -1.367,.1243 c 0.114546,-0.90834 0.232638,-1.80101 0.347971,-2.7092 h -0.820216 l -.7954,1.0191 -.7954,.3977 -1.1433,-.6462 -.1243,-1.4416 .2486,-1.541 1.715,-1.2925 h 1.36702 l .2237,-.7954 1.715,.3977 1.2676,1.5659 .2237,-2.6098 2.1624,-1.8144 .8202,-1.9387 1.5907,-.6462 .9196,-1.2925 2.063,-.3977 1.0191,-1.5659 c -1.0295,-2e-06 -2.05252,0 -3.08202,0 l 1.9387,-.8948 h 1.36702 l 1.9387,-.6462 .2486,-.7954 -.6959,-.6462 -.7954,-.2486 .2237,-.7705 -.5717,-1.1682 -1.367,.4971 .2237,-1.0191 -1.5907,-.9196 -1.2676,2.2121 .1243,.7705 -1.2676,.522 -.7954,1.6901 -.348,-1.5659 -2.1624,-.8948 -.348,-1.1682 2.8583,-1.6901 1.2428,-1.1682 .1243,-1.4167 -.6959,-.3977 -.1243,-.0249 z  m 19.9089,1.5907 -.8948,.4971 -.4722,-.1243 -.0994,.7954 .7954,.4971 1.367,-.8948 -.6959,-.7705 z  m -15.087,.2486 -.9196,.6462 1.1433,.7705 .9196,0 0,-.8948 -1.1433,-.522 z  m 18.0696,2.9826 0,.7705 .4722,.522 0,1.1682 -.2485,1.5659 1.2676,-.2734 .9196,-.8948 -.7954,-.7705 c -0.268903,-0.717435 -0.583077,-1.39971 -0.919636,-2.08782 h -0.695941 z  m -.4474,1.5659 -.8202,.2486 .2486,1.4167 1.0191,-.4971 -.4474,-1.1682 z  m -15.7829,2.3364 .3231,1.8144 .6959,-1.0439 -1.0191,-.7705 z "/>
<path style="opacity:.1" id="path3983" d="m 47.9062,17.75 -3.4375,.375 a 0.564749,0.564749 0 0,0 -0.09375,0.03125 l -3.5312,1 a 0.564749,0.564749 0 0,0 -0.0625,-0.09375 l -.375,-.625 a 0.564749,0.564749 0 0,0 -0.625,-0.25 c -0.768057,0.217184 -1.50465,0.443464 -2.25,0.71875 a 0.564749,0.564749 0 0,0 -0.03125,0.03125 0.564749,0.564749 0 0,0 -0.03125,0 c -0.02275,0.007 -0.0032,-0.01047 -0.03125,0 a 0.564749,0.564749 0 0,0 -0.03125,0.03125 c -1.0147,0.379471 -2.01049,0.80252 -2.96875,1.28125 a 0.564749,0.564749 0 0,0 0.03125,1.03125 l -.4688,.0938 a 0.564749,0.564749 0 0,0 -0.3125,0.21875 l -.0625,-.1562 a 0.564749,0.564749 0 0,0 -1,0 l -.25,.5312 a 0.564749,0.564749 0 0,0 -0.0625,0.3125 l .0625,.5625 a 0.564749,0.564749 0 0,0 -0.125,-0.09375 l -.6875,-.4062 a 0.564749,0.564749 0 0,0 -0.15625,-0.0625 l -.125,-.0312 a 0.564749,0.564749 0 0,0 -0.4375,0.09375 c -0.42307,0.288856 -0.832042,0.613828 -1.21875,0.90625 a 0.564749,0.564749 0 0,0 -0.1875,0.25 l -.0625,.1562 c -0.104785,0.01693 -0.139906,0.0091 -0.25,0.03125 a 0.564749,0.564749 0 0,0 -0.21875,0.125 c -6.59162,5.30032 -10.9616,13.2674 -11.4688,22.25 a 0.564749,0.564749 0 0,0 0.0625,0.3125 c 0.319277,0.548235 0.71875,1.15625 0.71875,1.15625 a 0.564749,0.564749 0 0,0 0.1875,0.1875 l 2.4062,1.4375 a 0.564749,0.564749 0 0,0 0.125,0.03125 l 2.25,.625 .9062,1.1562 a 0.564749,0.564749 0 0,0 0.09375,0.125 l 1.5938,1.1562 a 0.564749,0.564749 0 0,0 0.4375,0.09375 l .7812,-.125 .0938,.0625 -.75,2.0312 -.0625,.125 -.625,.9062 a 0.564749,0.564749 0 0,0 -0.0625,0.53125 l .1562,.375 -.5,1.7188 a 0.564749,0.564749 0 0,0 0.03125,0.4375 l 2.0625,3.7812 a 0.564749,0.564749 0 0,0 0.125,0.15625 l 2.0625,1.8125 .7188,1 -.125,2.5625 a 0.564749,0.564749 0 0,0 0.0625,0.28125 l .625,1.3125 -.6875,2.8125 c 0,0 0.0015,0.08972 0,0.125 -0.0015,0.03528 -0.0029,0.0583 0,0.09375 0.0058,0.07091 0.0061,0.142162 0.03125,0.25 a 0.564749,0.564749 0 0,0 0.25,0.34375 c 0.978871,0.694043 1.97166,1.32791 3.03125,1.90625 0.06193,0.03386 0.09195,0.04735 0.0625,0.03125 a 0.564749,0.564749 0 0,0 0.03125,0 c 0.108376,0.05089 0.206506,0.07112 0.1875,0.0625 0.181979,0.08261 0.322458,0.160975 0.46875,0.21875 0.07315,0.02889 0.156385,0.07327 0.25,0.09375 0.09361,0.02048 0.243572,0.08923 0.53125,-0.125 0.235566,-0.179304 0.4375,-0.34375 0.4375,-0.34375 a 0.564749,0.564749 0 0,0 0.1875,-0.65625 l -.0938,-.2812 .6562,-.6562 a 0.564749,0.564749 0 0,0 0.125,-0.21875 l .25,-.6562 1.2188,-.4062 a 0.564749,0.564749 0 0,0 0.34375,-0.3125 l 1.1562,-2.875 a 0.564749,0.564749 0 0,0 -0.03125,-0.46875 l -.1875,-.4375 .4688,-.7188 1.5312,-.3438 a 0.564749,0.564749 0 0,0 0.40625,-0.34375 l .9062,-2.0938 a 0.564749,0.564749 0 0,0 0.03125,-0.28125 l -.1875,-2.375 1.25,-1.7812 a 0.564749,0.564749 0 0,0 0.09375,-0.25 l .2188,-1.9375 a 0.564749,0.564749 0 0,0 -0.3125,-0.5625 c -1.81731,-0.902904 -3.65628,-1.8466 -5.46875,-2.78125 l -.8125,-1.6562 a 0.564749,0.564749 0 0,0 -0.375,-0.3125 l -1.4375,-.3125 -.7812,-2.1562 a 0.564749,0.564749 0 0,0 -0.59375,-0.375 l -2.0312,.2188 -1.7812,-1.2812 a 0.564749,0.564749 0 0,0 -0.71875,0.03125 l -2.0625,1.8125 c -0.426234,-0.08609 -0.866207,-0.16121 -1.125,-0.28125 l -.3438,-.9688 v -1.3125 a 0.564749,0.564749 0 0,0 -0.625,-0.5625 l -.6562,.0625 c 0.08538,-0.676551 0.163895,-1.35322 0.25,-2.03125 a 0.564749,0.564749 0 0,0 -0.5625,-0.625 h -0.8125 a 0.564749,0.564749 0 0,0 -0.4375,0.21875 l -.7188,.9375 -.4062,.1875 -.6562,-.3438 -.0938,-1 v -0.0625 l .2188,-1.2812 1.375,-1.0312 h 1.1875 a 0.564749,0.564749 0 0,0 0.53125,-0.40625 l .0625,-.25 1.0625,.25 1.0938,1.375 a 0.564749,0.564749 0 0,0 1,-0.28125 l .2188,-2.375 2,-1.6875 a 0.564749,0.564749 0 0,0 0.15625,-0.21875 l .7188,-1.7188 1.375,-.5625 a 0.564749,0.564749 0 0,0 0.25,-0.21875 l .75,-1.0625 1.8438,-.375 a 0.564749,0.564749 0 0,0 0.375,-0.25 l 1.0312,-1.5625 a 0.564749,0.564749 0 0,0 -0.03125,-0.65625 0.564749,0.564749 0 0,0 0,-0.03125 l .875,-.2812 .2812,1.5625 a 0.564749,0.564749 0 0,0 1.03125,0.21875 l .7188,-1.0625 a 0.564749,0.564749 0 0,0 -0.125,-0.78125 l -.625,-.4688 a 0.564749,0.564749 0 0,0 0.09375,-0.1875 l .25,-.8125 a 0.564749,0.564749 0 0,0 -0.15625,-0.5625 l -.6875,-.625 a 0.564749,0.564749 0 0,0 -0.21875,-0.125 l -.25,-.0938 .0625,-.2188 a 0.564749,0.564749 0 0,0 -0.03125,-0.4375 l -.5938,-1.1562 a 0.564749,0.564749 0 0,0 -0.6875,-0.28125 l -.375,.125 a 0.564749,0.564749 0 0,0 -0.0625,-0.40625 0.564749,0.564749 0 0,0 0.28125,0.0625 h 0.9375 a 0.564749,0.564749 0 0,0 0.5625,-0.5625 v -0.40625 c 0.04301,0.02909 0.08198,0.06454 0.125,0.09375 a 0.564749,0.564749 0 0,0 0.6875,-0.03125 l 1.1875,-1.0312 a 0.564749,0.564749 0 0,0 -0.15625,-0.96875 l -1.0938,-.4375 -.4688,-.9688 a 0.564749,0.564749 0 0,0 -0.4375,-0.3125 l -1.75,-.1875 -.0312,-.25 a 0.564749,0.564749 0 0,0 -0.03125,-0.0625 l .375,.0625 a 0.564749,0.564749 0 0,0 0.46875,-0.15625 l .4375,-.4062 1.0312,-.2188 a 0.564749,0.564749 0 0,0 0.125,-0.0625 c 0.265427,-0.129335 0.569813,-0.205927 0.84375,-0.3125 a 0.564749,0.564749 0 0,0 0.21875,0.65625 l 2.375,1.625 v 0.53125 l -.875,.875 a 0.564749,0.564749 0 0,0 -0.09375,0.65625 l 1.3438,2.7188 a 0.564749,0.564749 0 0,0 0.78125,0.25 l .9375,-.5 a 0.564749,0.564749 0 0,0 0.1875,-0.21875 l 1.0312,-1.6875 c 1.69904,-0.535677 3.30842,-1.12007 4.9375,-1.875 a 0.564749,0.564749 0 0,0 0.28125,-0.28125 l 1.375,-3.5 a 0.564749,0.564749 0 0,0 -0.34375,-0.75 l -3,-1.1562 a 0.564749,0.564749 0 0,0 -0.25,-0.03125 z  m .0625,.5625 3,1.1562 -1.375,3.5 c -1.67949,0.778286 -3.29552,1.39016 -5.0625,1.9375 l -1.125,1.8438 -.9375,.5 -1.3438,-2.7188 1.0312,-1.0312 v -1.0625 l -2.625,-1.8125 .7812,-.75 4.2188,-1.1875 3.4375,-.375 z  m -8.0312,.4062 .375,.625 c -0.831409,0.269414 -1.62268,0.524438 -2.40625,0.90625 l -1.1562,.25 -.5625,.5312 -1.5,-.2812 c 0.954078,-0.476641 1.92934,-0.905888 2.9375,-1.28125 0.01447,-0.0054 0.04801,0.0053 0.0625,0 l .0312,-.0312 c 0.730326,-0.269737 1.46318,-0.505097 2.21875,-0.71875 z  m -6.8125,2.9688 .5625,1.1562 .4375,-.9062 1.0625,-.25 .0938,.6562 2.1875,.25 .5625,1.1875 1.2812,.5 -1.1875,1.0312 c -0.762805,-0.518017 -1.51907,-1.01245 -2.28125,-1.53125 l -1.1562,-.4062 c -0.502402,0.336412 -0.944227,0.681756 -1.4375,1.03125 l -.5938,1.3125 h -1.125 l .5625,-1.4375 .9062,-.7812 -.125,-1.2812 .25,-.5312 z  m 29.1562,.4688 -2.1875,.5312 a 0.564749,0.564749 0 0,0 -0.1875,0.09375 l -1.3438,.9062 a 0.564749,0.564749 0 0,0 -0.25,0.46875 v 0.4375 l -1.9375,1.2812 a 0.564749,0.564749 0 0,0 -0.25,0.59375 l .4688,2.0625 a 0.564749,0.564749 0 0,0 0.5625,0.4375 0.564749,0.564749 0 0,0 0.03125,0.28125 l .0625,.1562 h -0.4375 a 0.564749,0.564749 0 0,0 -0.4375,0.21875 l -.25,-.2188 c -0.260431,-0.679332 -0.556069,-1.34793 -0.875,-2 a 0.564749,0.564749 0 0,0 -0.5,-0.3125 h -0.71875 a 0.564749,0.564749 0 0,0 -0.5625,0.5625 v 0.75 a 0.564749,0.564749 0 0,0 0.03125,0.25 0.564749,0.564749 0 0,0 -0.0625,0.03125 l -.8125,.25 a 0.564749,0.564749 0 0,0 -0.40625,0.625 l .25,1.4062 a 0.564749,0.564749 0 0,0 0.8125,0.40625 l .4688,-.25 -.0625,.4688 a 0.564749,0.564749 0 0,0 0.03125,0.25 l -.125,.0312 a 0.564749,0.564749 0 0,0 -0.28125,0.96875 l .8125,.8438 h -0.40625 a 0.564749,0.564749 0 0,0 -0.28125,0.0625 l -1.5,.8125 a 0.564749,0.564749 0 0,0 -0.28125,0.5 v 2.3125 a 0.564749,0.564749 0 0,0 0.5625,0.5625 h 0.40625 l .4375,.5 c -1.0567,1.20126 -2.08484,2.39884 -3.09375,3.65625 a 0.564749,0.564749 0 0,0 -0.09375,0.125 l -1.25,2.9688 a 0.564749,0.564749 0 0,0 0.09375,0.59375 l .2812,.3438 -.7812,1.1875 a 0.564749,0.564749 0 0,0 -0.0625,0.53125 l 1.1562,2.7188 a 0.564749,0.564749 0 0,0 0.09375,0.15625 c 0.970719,1.10017 1.93356,2.2077 2.90625,3.3125 a 0.564749,0.564749 0 0,0 0.8125,0.0625 l 1,-.875 .2812,.3125 a 0.564749,0.564749 0 0,0 0.71875,0.09375 l 1.125,-.75 .2188,.25 a 0.564749,0.564749 0 0,0 0.40625,0.1875 h 1.25 l .5312,.5938 -.4375,1.4688 a 0.564749,0.564749 0 0,0 0.09375,0.53125 l .9688,1.0938 -.0625,1.875 a 0.564749,0.564749 0 0,0 0.0625,0.28125 l .6562,1.3125 -.4688,1.0938 a 0.564749,0.564749 0 0,0 -0.03125,0.1875 c -0.05736,0.961104 -0.09375,1.87471 -0.09375,2.84375 a 0.564749,0.564749 0 0,0 0.03125,0.1875 c 0.45657,1.25961 0.9122,2.54509 1.34375,3.8125 0.01055,0.03098 0.02073,0.06278 0.03125,0.09375 l .2812,1.875 v 0.09375 0.96875 a 0.564749,0.564749 0 0,0 0.5625,0.5625 h 0.8125 a 0.564749,0.564749 0 0,0 0.3125,-0.09375 l 1.0938,-.6875 h 1.34375 a 0.564749,0.564749 0 0,0 0.4375,-0.1875 l 2.2188,-2.5312 a 0.564749,0.564749 0 0,0 0.09375,-0.5625 l -.1562,-.4688 1.2188,-1.0312 a 0.564749,0.564749 0 0,0 0.0625,-0.8125 l -.7188,-.8125 .8125,-.6875 .0625,-.0312 1.1875,-.75 a 0.564749,0.564749 0 0,0 0.0937,-0.09375 l .5938,-.6562 a 0.564749,0.564749 0 0,0 0.125,-0.53125 l -.3438,-1.2812 v -0.03125 -3.46875 l .9375,-1.9688 1.25,-1.4062 a 0.564749,0.564749 0 0,0 0.0937,-0.15625 l 1.3438,-3.375 a 0.564749,0.564749 0 0,0 0.03135,-0.21875 v -0.90625 a 0.564749,0.564749 0 0,0 -0.625,-0.5625 c -0.13145,0.01659 -0.24775,0.01511 -0.375,0.03125 l .2188,-.2188 1.8125,-1.2188 a 0.564749,0.564749 0 0,0 0.125,-0.09375 l 1.0312,-1.1875 a 0.564749,0.564749 0 0,0 0.125,-0.375 v -1.3125 a 0.564749,0.564749 0 0,0 -0.0312,-0.21875 0.564749,0.564749 0 0,0 0.78125,-0.0625 l .8438,-.9375 a 0.564749,0.564749 0 0,0 0.1562,-0.46875 c -1.23201,-7.54748 -5.2429,-14.1662 -10.9062,-18.8125 a 0.564749,0.564749 0 0,0 -0.53125,-0.09375 0.564749,0.564749 0 0,0 -0.21875,-0.5 c -0.03172,-0.02439 -0.08296,-0.06937 -0.15625,-0.125 a 0.564749,0.564749 0 0,0 -0.25,-0.125 l -2.4062,-.4375 -.0938,-.0312 -1.4062,-.5 a 0.564749,0.564749 0 0,0 -0.3125,-0.03125 z  m .125,.5625 1.5,.5312 2.5,.4688 c 0.05153,0.03914 0.10495,0.08555 0.15625,0.125 l -.625,.6875 h -1.46875 l 1.4688,1.5625 1.1562,-1.3125 .2188,-.3438 c 5.56059,4.56197 9.47827,11.0608 10.6875,18.4688 l -.8438,.9375 c -0.52553,-0.620482 -1.11958,-1.11128 -1.71875,-1.65625 l -1.3125,.1875 -1.1875,-1.3438 v 1.65625 l 1,.7812 .7188,.7812 .9062,-1.0312 c 0.23051,0.432574 0.45855,0.848683 0.6875,1.28125 v 1.3125 l -1.0312,1.1875 -1.9062,1.2812 -1.3438,1.375 c 0.66343,-0.0481 1.29056,-0.13316 1.96875,-0.21875 v 0.90625 l -1.3438,3.375 -1.25,1.4062 -1.0625,2.2188 v 3.625 l .375,1.4375 -.5938,.6562 -1.25,.7812 -1.3125,1.0938 1.0938,1.25 -1.5,1.2812 .2812,.8438 -2.2188,2.5312 h -1.5 l -1.25,.7812 h -0.8125 v -1.0625 l -.3125,-2.0625 c -0.44261,-1.30245 -0.90627,-2.6131 -1.375,-3.90625 0,-0.954526 0.03679,-1.85812 0.09375,-2.8125 l .5625,-1.3125 -.7812,-1.5625 .0625,-2.125 -1.0938,-1.25 .5312,-1.7812 -.875,-1 h -1.53125 l -.5312,-.5938 -1.5312,1 -.6562,-.7188 -1.4062,1.2188 c -0.97113,-1.10303 -1.93371,-2.21026 -2.90625,-3.3125 l -1.1562,-2.7188 1.0312,-1.5625 -.5625,-.6562 1.25,-2.9688 c 1.03265,-1.287 2.09647,-2.51076 3.1875,-3.75 l 1.9688,-.5312 2.1562,-.2812 1.5,.4062 2.0938,2.1562 .75,-.875 1.0312,-.0938 1.9688,.625 h 1.46875 l 1.0312,-.9062 .4375,-.6562 -1,-.6562 -1.7188,-.125 c -0.47628,-0.661949 -0.9345,-1.34933 -1.5,-1.9375 l -.5625,.25 -.2188,1.6875 -1.0625,-1.1562 -.2188,-1.2812 -1.1562,-.9375 h -0.4375 l 1.1562,1.3125 -.4688,1.1875 -.9375,.25 .5625,-1.1875 -1,-.5 -.9375,-1.0625 -1.6875,.4062 -.25,.5312 -1,.625 -.5938,1.4375 -1.4375,.7188 -.625,-.7188 h -0.6875 v -2.3125 l 1.5,-.8125 h 1.15625 l -.25,-.875 -.9062,-.9375 1.5312,-.3125 .875,-.9688 .6875,-1.1875 h 1.25 l -.3438,-.9062 .7812,-.5 v 1.03125 l 1.7188,.375 1.7188,-1.4062 .125,-.6562 1.5,-1.0312 c -0.53781,0.067 -1.09947,0.106702 -1.625,0.25 v -1.15625 l .5625,-1.3125 h -0.5625 l -1.25,1.1875 -.3438,.625 .3438,.9375 -.5625,1.5312 -.9062,-.5312 -.8125,-.875 -1.25,.875 -.4688,-2.0625 2.1875,-1.4375 v -0.75 l 1.3438,-.9062 2.1875,-.5312 z  m 9.5625,26.9375 c -0.0327,0.0024 -0.061,-0.0022 -0.0937,0 l .0312,.0312 .0625,-.0312 z  m -.0937,0 -.875,-1 .4375,-1.1875 -.9062,-1 -1.5625,-3.3125 -1.3125,-1.5 -.3125,.375 .5,1.9062 .9688,1.0938 c 0.55464,1.60418 1.1154,3.12285 1.84375,4.65625 0.41292,0 0.81717,-0.004 1.21875,-0.03125 z  m -40.7188,-26.8438 .125,.0312 .6875,.4062 -.125,1.4062 -1.25,1.1875 -2.8438,1.6875 .3438,1.1562 2.1562,.9062 .3438,1.5625 .8125,-1.6875 1.25,-.5312 -.125,-.7812 1.2812,-2.1875 1.5938,.9062 -.2188,1.0312 1.3438,-.5 .5938,1.1562 -.25,.7812 .8125,.25 .6875,.625 -.25,.8125 -1.9375,.6562 -1.375,0 -1.9375,.875 3.0938,0 -1.0312,1.5625 -2.0625,.4062 -.9062,1.2812 -1.5938,.6562 -.8125,1.9375 -2.1562,1.8125 -.25,2.625 -1.25,-1.5625 -1.7188,-.4062 -.2188,.7812 -1.375,0 -1.7188,1.3125 -.25,1.5312 .125,1.4375 1.1562,.6562 .7812,-.4062 .8125,-1.0312 .8125,0 c -0.115333,0.908183 -0.229204,1.81041 -0.34375,2.71875 l 1.375,-.125 v 1.40625 l .4688,1.3125 c 0.554797,0.341771 1.31442,0.351066 1.9375,0.53125 v -0.25 l 2.0625,-1.8125 1.9375,1.4062 2.2812,-.25 .9062,2.4688 1.7188,.375 .9062,1.8125 c 1.86374,0.960522 3.74726,1.94207 5.625,2.875 l -.2188,1.9375 -1.375,1.9375 .2188,2.5938 -.9062,2.0938 -1.7188,.375 -.8125,1.1875 .3438,.75 -1.1562,2.875 -1.4688,.5 -.3438,.9062 -.9375,.9375 .25,.625 c 0,0 -0.210925,0.171289 -0.4375,0.34375 -0.05684,0.04233 -0.31887,-0.08267 -0.6875,-0.25 -0.0422,-0.01914 -0.11153,-0.0415 -0.15625,-0.0625 -0.01629,-0.0089 -0.04622,-0.02235 -0.0625,-0.03125 -1.03984,-0.567562 -2.03864,-1.19337 -3,-1.875 -0.04123,-0.176831 -0.03125,-0.21875 -0.03125,-0.21875 l .7188,-2.9688 -.7188,-1.5312 .125,-2.75 -.9062,-1.2812 -2.0625,-1.8125 -2.0625,-3.7812 .5625,-1.9375 -.2188,-.5312 .6875,-1.0312 .9375,-2.4688 v -0.1875 l -.6875,-.3438 -.9375,.1562 -1.5938,-1.1562 -1.0312,-1.3125 -2.4062,-.6562 -2.4062,-1.4375 c 0,0 -0.376796,-0.591486 -0.6875,-1.125 0.497945,-8.81946 4.77894,-16.6404 11.25,-21.8438 0.233355,-0.04693 0.5625,-0.09375 0.5625,-0.09375 l .1562,-.4688 c 0.390003,-0.294913 0.78309,-0.598884 1.1875,-0.875 z  m 19.7812,1.0312 a 0.564749,0.564749 0 0,0 -0.15625,0.0625 l -.7188,.4062 -.2188,-.0625 a 0.564749,0.564749 0 0,0 -0.71875,0.46875 l -.0938,.8125 a 0.564749,0.564749 0 0,0 0.25,0.53125 l .7812,.5 a 0.564749,0.564749 0 0,0 0.625,0 l 1.375,-.9062 a 0.564749,0.564749 0 0,0 0.125,-0.84375 l -.6875,-.7812 a 0.564749,0.564749 0 0,0 -0.5625,-0.1875 z  m -16.1562,.1562 l .75,.25 -.8125,.5938 a 0.564749,0.564749 0 0,0 0.03125,0.9375 l .4688,.3438 -1.125,-.6562 a 0.564749,0.564749 0 0,0 -0.78125,0.21875 l -.1562,.25 .5312,-1.1562 c 0.37632,-0.270399 0.736321,-0.532024 1.09375,-0.78125 z  m 16.2812,.4062 .6875,.7812 -1.375,.9062 -.7812,-.5 .0938,-.8125 .4688,.125 .9062,-.5 z  m -15.0938,.25 1.1562,.5312 0,.9062 -.9375,0 -1.125,-.7812 .9062,-.6562 z  m 29.7812,.4375 .1875,0 a 0.564749,0.564749 0 0,0 0.125,0 l -.1562,.1562 -.1562,-.1562 z  m -34.625,1 a 0.564749,0.564749 0 0,0 0.40625,0.1875 h 1.125 a 0.564749,0.564749 0 0,0 0.375,-0.125 l -1,1.7188 a 0.564749,0.564749 0 0,0 -0.0625,0.375 l .0625,.3438 -.8438,.3438 a 0.564749,0.564749 0 0,0 -0.28125,0.28125 l -.0938,.2188 a 0.564749,0.564749 0 0,0 -0.34375,-0.375 l -1.9375,-.8125 -.125,-.4375 2.4688,-1.4688 a 0.564749,0.564749 0 0,0 0.09375,-0.09375 l .1562,-.1562 z  m 30.0938,1.5 .375,0 a 0.564749,0.564749 0 0,0 -0.09375,0.21875 l -.0938,.4688 -.625,.5 .4375,-1.1875 z  m -7.1875,.0625 .7188,0 c 0.336559,0.688113 0.637347,1.37631 0.90625,2.09375 l .7812,.75 -.9062,.9062 -1.2812,.2812 .25,-1.5938 v -1.15625 l -.4688,-.5312 v -0.75 z  m 5.0312,1.3125 .4062,.25 -.4062,-.0938 0,-.1562 z  m -5.4688,.25 .4375,1.1562 -1,.5 -.25,-1.4062 .8125,-.25 z  m -15.7812,2.3438 1.0312,.75 -.7188,1.0625 -.3125,-1.8125 z  m 20.5,3.4688 l .6875,.7812 a 0.564749,0.564749 0 0,0 0.1875,0.125 l .5,.25 -.3125,.6875 a 0.564749,0.564749 0 0,0 0.65625,0.78125 l .9375,-.25 a 0.564749,0.564749 0 0,0 0.375,-0.3125 l .0938,-.25 a 0.564749,0.564749 0 0,0 0.09375,0.125 l 1.0625,1.1562 a 0.564749,0.564749 0 0,0 0.96875,-0.3125 l .1562,-1.1562 c 0.37503,0.452244 0.72354,0.922971 1.09375,1.4375 a 0.564749,0.564749 0 0,0 0.4375,0.21875 l 1.5625,.125 .4062,.25 -.0312,.0625 -.0312,.0312 -.8438,.75 h -1.1875 -0.0625 l -1.8125,-.5938 a 0.564749,0.564749 0 0,0 -0.21875,-0.03125 l -1.0312,.0938 a 0.564749,0.564749 0 0,0 -0.375,0.1875 l -.3438,.4062 -1.6562,-1.7188 a 0.564749,0.564749 0 0,0 -0.25,-0.125 l -1.5,-.4062 a 0.564749,0.564749 0 0,0 -0.21875,-0.03125 l -2.1562,.2812 .5312,-1.2812 .8438,-.5312 a 0.564749,0.564749 0 0,0 0.1875,-0.21875 l .125,-.2812 1.125,-.25 z  m 16.875,7.7812 a 0.564749,0.564749 0 0,0 -0.0625,0.03125 l -.5,.5625 -.2812,-.3125 a 0.564749,0.564749 0 0,0 -0.0625,-0.0625 l -.125,-.0938 a 0.564749,0.564749 0 0,0 0.0625,0 l .9688,-.125 z  m -6.9688,.3438 .3125,.375 .3125,.6562 -.5,-.5625 -.125,-.4688 z  m 1.9062,3.6875 .6562,.75 -.1562,.4688 c -0.16873,-0.402639 -0.34437,-0.810552 -0.5,-1.21875 z "/>
<g style="stroke-width:2;color:#000;stroke:none;fill-rule:evenodd">
<path style="opacity:.6;fill:url(#linearGradient3977)" id="path3897" d="m 124.4508,-16.9528 a 60.3061,60.3061 0 1,1 -120.612,0 60.3061,60.3061 0 1,1 120.612,0 z " transform="matrix(0.36243664,0,0,0.24819601,24.751617,37.114822)"/>
<path style="fill:url(#radialGradient3093)" id="path4540" d="m 48,18.2917 c -3.70431,0 -7.23972,0.697083 -10.5109,1.9375 9.00477,0.157983 14.0866,1.09315 18.6969,3.61667 0.384188,0.210292 0.766836,0.429177 1.14635,0.661978 1.13856,0.698406 2.27093,1.50406 3.43906,2.42188 5.03484,3.95597 5.47549,8.7701 9.75208,12.4484 2.60362,2.2394 2.25122,2.05052 3.45521,2.05052 1.3177,0 1.9885,-1.19105 2.30885,-2.48646 -3.83424,-11.9719 -15.0481,-20.6505 -28.2875,-20.6505 z  m -11.9156,5.4573 c -0.629604,0 -1.25704,0.06786 -1.87292,0.193751 -0.205291,0.04196 -0.410222,0.09084 -0.613541,0.145312 -5.69293,1.52512 -10.5643,7.80545 -12.1578,10.6885 -0.101363,0.183394 -0.216244,0.398951 -0.322917,0.597396 -0.846145,1.79664 -1.52747,3.67969 -2.00208,5.65104 0.455825,-0.583199 0.899431,-1.13059 1.3401,-1.64688 3.08471,-3.61398 5.90766,-5.57031 9.96198,-5.57031 7.2342,0 8.15329,3.22301 21.4094,11.8672 6.52412,4.25432 16.4243,10.1211 24.5901,10.9953 0.334976,-1.09834 0.600326,-2.22635 0.807292,-3.37448 -3.05511,-0.22056 -5.80726,-1.38515 -8.78333,-3.35833 -0.425155,-0.281884 -0.855936,-0.573245 -1.29167,-0.88802 -3.48583,-2.51821 -7.35988,-6.07855 -12.4,-10.4948 -3.83759,-3.36257 -13.4895,-14.8057 -18.6646,-14.8057 z  m -10.3656,33.9224 c -2.29375,0 -4.00535,1.16262 -4.19792,3.77813 3.21559,6.31295 8.61611,11.3217 15.2094,14.0307 -0.0874,-0.122277 -0.170362,-0.251098 -0.258334,-0.3875 -0.615805,-0.95481 -1.21094,-2.24619 -1.21094,-3.72969 0,-1.72589 1.11613,-2.40573 2.37344,-2.40573 1.67449,0 7.20172,2.63177 16.4526,2.63177 4.62713,0 10.3999,-0.677795 14.6281,-2.30885 1.66998,-1.62599 3.13941,-3.44645 4.39167,-5.425 -2.7026,1.09564 -7.70025,2.68021 -14.2083,2.68021 -12.5727,0 -24.0384,-5.36648 -27.351,-7.08802 -0.878685,-0.456648 -3.13097,-1.77604 -5.82865,-1.77604 z "/>
<path style="opacity:.6;fill:#fff" id="path3870" d="m 48.0003,18.2839 c -3.70431,0 -7.24998,0.700995 -10.5212,1.94141 1.00549,0.01764 1.96834,0.05579 2.8808,0.09394 2.4367,-0.654043 4.99707,-1.03333 7.64039,-1.03333 13.0552,-1e-06 24.1368,8.45163 28.1192,20.1656 0.05544,-0.165449 0.114119,-0.329367 0.156566,-0.501009 -3.83424,-11.9719 -15.0364,-20.6666 -28.2757,-20.6666 z  m -11.9303,5.4798 c -0.629604,0 -1.23159,0.06198 -1.84747,0.187879 -0.205292,0.04196 -0.422943,0.07078 -0.626262,0.125252 -5.69293,1.52512 -10.556,7.82599 -12.1495,10.7091 -0.101362,0.183395 -0.237771,0.396504 -0.344444,0.594949 -0.846145,1.79664 -1.49811,3.66501 -1.97273,5.63636 0.125688,-0.16081 0.251732,-0.282919 0.375757,-0.438383 0.0028,-0.0095 -0.0028,-0.02185 0,-0.03131 0.430123,-1.43538 0.966516,-2.82599 1.59697,-4.16464 0.106673,-0.198445 0.243082,-0.411554 0.344444,-0.594949 1.59349,-2.88309 6.45655,-9.18395 12.1495,-10.7091 0.203319,-0.05447 0.42097,-0.08329 0.626262,-0.125252 0.615878,-0.125894 1.21787,-0.187879 1.84747,-0.187879 5.1751,1e-06 14.8563,11.4172 18.6939,14.7798 5.04012,4.41625 8.91415,8.00299 12.4,10.5212 0.435731,0.314775 0.858683,0.594882 1.28384,0.876766 2.9137,1.93183 5.60093,3.06456 8.57979,3.31919 0.06776,-0.319762 0.129624,-0.647542 0.187879,-0.970706 -3.05511,-0.22056 -5.79159,-1.37731 -8.76767,-3.3505 -0.425154,-0.281884 -0.848106,-0.561991 -1.28384,-0.876766 -3.48583,-2.51821 -7.35986,-6.10495 -12.4,-10.5212 -3.83759,-3.36257 -13.5188,-14.7798 -18.6939,-14.7798 z  m -10.3646,33.9121 c -2.29375,0 -4.00339,1.17338 -4.19595,3.78888 0.04272,0.08386 0.08177,0.167104 0.125253,0.250505 0.438304,-2.09505 2.00633,-3.03737 4.0707,-3.03737 2.69768,0 4.97686,1.3282 5.85555,1.78485 3.3126,1.72154 14.7636,7.07676 27.3363,7.07676 5.87451,-1e-06 10.5032,-1.29131 13.3394,-2.34848 0.307664,-0.433947 0.591452,-0.895672 0.876766,-1.34646 -2.7026,1.09564 -7.70806,2.69293 -14.2161,2.69293 -12.5727,0 -24.0237,-5.35522 -27.3363,-7.07676 -0.878686,-0.456648 -3.15787,-1.78485 -5.85555,-1.78485 z  m 9.5818,14.3101 c -0.01337,0.123142 -0.03131,0.239813 -0.03131,0.375757 0,1.04708 0.297916,1.982 0.688888,2.78687 0.260645,0.116039 0.518277,0.235746 0.782827,0.344444 -0.0874,-0.122276 -0.162532,-0.270668 -0.250504,-0.40707 -0.529356,-0.820769 -1.05599,-1.87357 -1.1899,-3.1 z "/>
<path style="opacity:.3" id="path3888" d="m 40.3599,20.3193 c -0.978042,0.26252 -1.94387,0.552802 -2.8808,0.908079 9.00477,0.157984 14.0837,1.1088 18.6939,3.63232 0.384188,0.210293 0.779067,0.424774 1.15859,0.657575 1.13856,0.698406 2.27631,1.49329 3.44444,2.41111 5.03484,3.95597 5.46178,8.78427 9.73837,12.4626 2.60362,2.2394 2.27177,2.03535 3.47575,2.03535 1.3177,0 1.9655,-1.17832 2.28586,-2.47373 -0.05334,-0.166526 -0.100391,-0.335773 -0.156566,-0.50101 -0.362985,1.08323 -0.986185,1.97272 -2.12929,1.97272 -1.20399,-1e-06 -0.872135,0.204048 -3.47575,-2.03535 -4.2766,-3.67834 -4.70353,-8.50664 -9.73837,-12.4626 -1.16813,-0.917822 -2.30588,-1.7127 -3.44444,-2.41111 -0.379518,-0.232801 -0.774397,-0.447282 -1.15859,-0.657575 -4.09546,-2.24174 -8.55386,-3.23487 -15.8131,-3.53838 z  m -9.9576,13.4959 c -4.05432,1e-06 -6.87285,1.95975 -9.95756,5.57373 -0.314034,0.367915 -0.619019,0.757373 -0.939393,1.15859 -0.0028,0.0094 0.0028,0.02184 0,0.03131 -0.143838,0.48183 -0.257103,0.947565 -0.375757,1.4404 0.455826,-0.583199 0.874477,-1.112 1.31515,-1.62828 3.08471,-3.61398 5.90324,-5.57373 9.95756,-5.57373 7.2342,0 8.16207,3.22348 21.4182,11.8677 6.52412,4.25432 16.415,10.1167 24.5808,10.9909 0.334976,-1.09834 0.607175,-2.23368 0.814141,-3.38182 -0.06404,-0.0046 -0.124104,-0.02586 -0.187879,-0.03131 -0.172967,0.816287 -0.385571,1.62192 -0.626262,2.41111 -8.16583,-0.874182 -18.0567,-6.73658 -24.5808,-10.9909 -13.2561,-8.64418 -14.184,-11.8677 -21.4182,-11.8677 z  m 42.7111,31.0313 c -0.263105,0.106664 -0.570883,0.230427 -0.876766,0.344444 -1.04269,1.47067 -2.21757,2.84649 -3.50707,4.10202 -4.22823,1.63106 -10.0274,2.28586 -14.6545,2.28586 -9.25089,0 -14.7649,-2.6303 -16.4394,-2.6303 -1.25731,0 -2.3798,0.685217 -2.3798,2.41111 0,0.185438 0.01384,0.384484 0.03131,0.563636 0.178616,-1.3959 1.20657,-1.97272 2.34848,-1.97272 1.67449,0 7.18848,2.6303 16.4394,2.6303 4.62713,0 10.4263,-0.654798 14.6545,-2.28586 1.66998,-1.626 3.13157,-3.46993 4.38383,-5.44848 z "/>
<path style="fill:url(#radialGradient3956)" id="path3944" d="m 124.4508,-16.9528 a 60.3061,60.3061 0 1,1 -120.612,0 60.3061,60.3061 0 1,1 120.612,0 z " transform="matrix(0.51404413,0,0,0.51404413,-64.973198,56.714492)"/>
</g>
</g>
<g style="stroke-width:3;color:#000;display:inline;stroke:none" id="layer6">
<path style="fill:url(#radialGradient4141)" id="path4006" d="m 21.9643,15.8214 a 2.5,2.5 0 1,1 -5,0 2.5,2.5 0 1,1 5,0 z " transform="matrix(1.2,0,0,1.2,-4.357145,-1.9857136)"/>
<path style="fill:url(#radialGradient4020-6)" id="path4018" d="m 21.9643,15.8214 a 2.5,2.5 0 1,1 -5,0 2.5,2.5 0 1,1 5,0 z " transform="matrix(1.6,0,0,1.6,46.857141,-7.3142846)"/>
<path style="fill:url(#radialGradient4024-1)" id="path4022" d="m 21.9643,15.8214 a 2.5,2.5 0 1,1 -5,0 2.5,2.5 0 1,1 5,0 z " transform="matrix(0.8,0,0,0.8,-3.57143,23.342857)"/>
<path style="fill:url(#radialGradient4028-4)" id="path4026" d="m 21.9643,15.8214 a 2.5,2.5 0 1,1 -5,0 2.5,2.5 0 1,1 5,0 z " transform="matrix(0.8,0,0,0.8,66.428571,19.342857)"/>
<path style="fill:url(#radialGradient4032-1)" id="path4030" d="m 21.9643,15.8214 a 2.5,2.5 0 1,1 -5,0 2.5,2.5 0 1,1 5,0 z " transform="matrix(0.8,0,0,0.8,14.428571,1.3428578)"/>
<path style="fill:url(#radialGradient4036-3)" id="path4034" d="m 21.9643,15.8214 a 2.5,2.5 0 1,1 -5,0 2.5,2.5 0 1,1 5,0 z " transform="matrix(0.8,0,0,0.8,46.428571,-0.65714264)"/>
<path style="fill:url(#radialGradient4040-0)" id="path4038" d="m 21.9643,15.8214 a 2.5,2.5 0 1,1 -5,0 2.5,2.5 0 1,1 5,0 z " transform="matrix(0.8,0,0,0.8,4.4285706,59.342857)"/>
<path style="fill:url(#radialGradient4044-9);filter:url(#filter4046-5)" id="path4042" d="m 21.9643,15.8214 a 2.5,2.5 0 1,1 -5,0 2.5,2.5 0 1,1 5,0 z " transform="matrix(0.8,0,0,0.8,-3.571429,-0.65714264)"/>
</g>
</svg>
