<svg width="96" version="1.0" xmlns="http://www.w3.org/2000/svg" height="96" xmlns:xlink="http://www.w3.org/1999/xlink">
<defs id="defs2410">
<clipPath id="clipPath3613">
<rect width="84" x="6" y="6" rx="6" height="84" ry="6" style="fill:#fff;stroke:none" id="rect3615"/>
</clipPath>
<filter width="1.3839999" x="-0.192" y="-0.192" height="1.3839999" style="color-interpolation-filters:sRGB" id="filter3794">
<feGaussianBlur stdDeviation="5.28" id="feGaussianBlur3796"/>
</filter>
<filter style="color-interpolation-filters:sRGB" id="filter3573-0">
<feGaussianBlur stdDeviation="1.6284922" id="feGaussianBlur3575-8"/>
</filter>
<filter width="1.3794198" x="-0.18970989" y="-0.11606622" height="1.2321324" style="color-interpolation-filters:sRGB" id="filter3789">
<feGaussianBlur stdDeviation="1.8477742" id="feGaussianBlur3791"/>
</filter>
<filter style="color-interpolation-filters:sRGB" id="filter3546-2">
<feGaussianBlur stdDeviation="0.15992437" id="feGaussianBlur3548-8"/>
</filter>
<filter style="color-interpolation-filters:sRGB" id="filter3291-5">
<feGaussianBlur stdDeviation="0.400625" id="feGaussianBlur3293-2"/>
</filter>
<filter style="color-interpolation-filters:sRGB" id="filter3174">
<feGaussianBlur stdDeviation="1.71" id="feGaussianBlur3176"/>
</filter>
<linearGradient gradientTransform="matrix(0.11483924,0,0,0.11007604,-36.97375,94.985305)" xlink:href="#linearGradient3958" id="linearGradient4039" y1="362.14285" x1="61.42857" y2="408.57144" gradientUnits="userSpaceOnUse" x2="116.42857"/>
<linearGradient gradientTransform="translate(0,80)" xlink:href="#linearGradient3431-7" id="linearGradient4041" y1="416.38858" x1="70.491508" y2="375.87961" gradientUnits="userSpaceOnUse" x2="113.64215"/>
<linearGradient gradientTransform="matrix(1.0545222,0,0,1.0447403,-2.1140604,-2.2135043)" xlink:href="#linearGradient3972" id="linearGradient3202" y1="90" x1="48" y2="5.9877172" gradientUnits="userSpaceOnUse" x2="48"/>
<linearGradient gradientTransform="matrix(1.0545222,0,0,1.0447403,-2.1140604,-2.2135043)" xlink:href="#linearGradient3737" id="linearGradient3199" y1="6" x1="36.357143" y2="63.893143" gradientUnits="userSpaceOnUse" x2="36.357143"/>
<linearGradient gradientTransform="matrix(1.0325751,0,0,1.0329673,-1.080805,-97.066023)" xlink:href="#ButtonShadow-0" id="linearGradient3154" y1="6.1317081" x1="32.251034" y2="90.238609" gradientUnits="userSpaceOnUse" x2="32.251034"/>
<linearGradient xlink:href="#linearGradient3697" id="linearGradient3158" y1="63.048103" x1="46.125015" y2="24.840103" gradientUnits="userSpaceOnUse" x2="46.125015"/>
<linearGradient xlink:href="#linearGradient3697" id="linearGradient3160" y1="63.048103" x1="46.125015" y2="24.840103" gradientUnits="userSpaceOnUse" x2="46.125015"/>
<linearGradient gradientTransform="matrix(0.98969578,0,0,1,0.46031597,0)" xlink:href="#linearGradient3714" id="linearGradient3926" y1="117.40218" x1="45.150318" y2="9.9698868" x2="44.561916" gradientUnits="userSpaceOnUse"/>
<linearGradient gradientTransform="matrix(1.5910675,0,0,-1.8190654,0.42334367,147.14906)" xlink:href="#linearGradient2446-733-45" id="linearGradient3224" y1="5.7086449" x1="33.579403" y2="16.323294" gradientUnits="userSpaceOnUse" x2="33.579403"/>
<linearGradient gradientTransform="matrix(1.142185,0,0,1.2182776,11.888803,4.1718909)" xlink:href="#linearGradient2446-733-45-5" id="linearGradient3186" y1="5.7086449" x1="33.579403" y2="16.323294" gradientUnits="userSpaceOnUse" x2="33.579403"/>
<linearGradient gradientTransform="matrix(1.9526052,0,0,-2.7577337,4.8352008,156.0675)" xlink:href="#linearGradient3958" id="linearGradient3226" y1="7.0006418" x1="16.91585" y2="14" gradientUnits="userSpaceOnUse" x2="16.91585"/>
<linearGradient id="linearGradient3972">
<stop offset="0" style="stop-color:#245f24" id="stop3974"/>
<stop offset="1" style="stop-color:#5aa431" id="stop3976"/>
</linearGradient>
<linearGradient id="linearGradient3613" xlink:href="#linearGradient3737" y1="20.220806" x1="48" y2="138.66119" x2="48" gradientUnits="userSpaceOnUse"/>
<linearGradient gradientTransform="matrix(1.0058652,0,0,0.994169,100,0)" id="ButtonShadow-0" y1="92.539597" x1="45.447727" y2="7.0165396" x2="45.447727" gradientUnits="userSpaceOnUse">
<stop offset="0" id="stop3750-8"/>
<stop offset="1" style="stop-opacity:.588" id="stop3752-5"/>
</linearGradient>
<linearGradient id="linearGradient3737">
<stop offset="0" style="stop-color:#fff" id="stop3739"/>
<stop offset="1" style="stop-color:#fff;stop-opacity:0" id="stop3741"/>
</linearGradient>
<linearGradient id="linearGradient3714">
<stop offset="0" style="stop-color:#d7d7d7" id="stop3716"/>
<stop offset="1" style="stop-color:#c8c8c8" id="stop3718"/>
</linearGradient>
<linearGradient gradientTransform="scale(1.0058652,0.994169)" id="ButtonShadow" y1="92.539597" x1="45.447727" y2="7.0165396" x2="45.447727" gradientUnits="userSpaceOnUse">
<stop offset="0" id="stop3750"/>
<stop offset="1" style="stop-opacity:.588" id="stop3752"/>
</linearGradient>
<linearGradient id="linearGradient2446-733-45">
<stop offset="0" style="stop-color:#fafafa" id="stop3793"/>
<stop offset="1" style="stop-color:#c5c5c5" id="stop3795"/>
</linearGradient>
<linearGradient id="linearGradient3697">
<stop offset="0" style="stop-color:#dcdcdc" id="stop3699"/>
<stop offset="1" style="stop-color:#f0f0f0" id="stop3701"/>
</linearGradient>
<linearGradient id="linearGradient3431-7">
<stop offset="0" style="stop-color:#3d3d3d" id="stop3433-5"/>
<stop offset="1" style="stop-opacity:.114" id="stop3435-7"/>
</linearGradient>
<linearGradient id="linearGradient3958">
<stop offset="0" style="stop-color:#a1a1a1" id="stop3960"/>
<stop offset="1" style="stop-color:#4d4d4d" id="stop3962"/>
</linearGradient>
<linearGradient id="linearGradient2446-733-45-5">
<stop offset="0" style="stop-color:#fafafa" id="stop3793-2"/>
<stop offset="1" style="stop-color:#c5c5c5" id="stop3795-5"/>
</linearGradient>
<linearGradient gradientTransform="matrix(1.0571602,0,0,1.0452646,-2.2608908,-98.172774)" xlink:href="#ButtonShadow-0" id="linearGradient3157" y1="6.1317081" x1="32.251034" y2="90.238609" gradientUnits="userSpaceOnUse" x2="32.251034"/>
<radialGradient fx="3.8111858" fy="121.67158" cx="3.8111858" cy="121.67158" gradientTransform="matrix(1.1895162,-0.02603905,0.00870632,0.41856996,35.309913,76.231108)" xlink:href="#linearGradient2446-733-45" id="radialGradient3206" r="28.116484" gradientUnits="userSpaceOnUse"/>
<radialGradient fx="48" fy="90.171875" cx="48" cy="90.171875" gradientTransform="matrix(1.2204121,0,0,1.0404649,-10.076779,-2.0075526)" xlink:href="#linearGradient3737" id="radialGradient3196" r="42" gradientUnits="userSpaceOnUse"/>
<radialGradient fx="3.8111858" fy="121.67158" cx="3.8111858" cy="121.67158" gradientTransform="matrix(1.1895162,-0.02603905,0.00870632,0.41856996,70.382462,76.231108)" xlink:href="#linearGradient2446-733-45" id="radialGradient3195" r="28.116484" gradientUnits="userSpaceOnUse"/>
</defs>
<g style="display:none" id="layer2">
<rect width="86" x="5" y="7" rx="6" height="85" ry="6" style="opacity:.9;fill:url(#ButtonShadow);filter:url(#filter3174);stroke:none" id="rect3745"/>
</g>
<g style="stroke:none">
<rect width="88.80146" x="4.0820704" y="-91.901184" rx="7.2280259" ry="7.2307711" height="87.802223" style="opacity:.3;fill:url(#linearGradient3157)" id="rect3723" transform="scale(1,-1)"/>
<rect width="86.736305" x="5.1146455" y="-90.868217" rx="6.1954508" ry="6.197804" height="86.769257" style="opacity:.45;fill:url(#linearGradient3154)" id="rect3716" transform="scale(1,-1)"/>
<rect width="88.579865" x="4.2130733" y="4.0549378" rx="6.3271327" ry="6.2684417" height="87.758186" style="fill:url(#linearGradient3202)" id="rect2419"/>
<path style="opacity:.4;fill:url(#linearGradient3199)" id="rect3728" d="m 10.5402,4.0549 c -3.50523,0 -6.32713,2.79573 -6.32713,6.26844 v 2.08948 71.0423 2.08948 c 0,0.349698 0.043605,0.679812 0.098862,1.01209 0.051355,0.308822 0.102331,0.623622 0.197723,0.914147 0.010419,0.03174 0.022031,0.06645 0.032953,0.09795 0.104255,0.300645 0.247686,0.571944 0.395446,0.848851 0.152475,0.285745 0.332824,0.559579 0.527261,0.816204 0.194437,0.256624 0.394156,0.494655 0.626123,0.718259 0.463934,0.447207 0.99432,0.850967 1.58178,1.14268 0.293732,0.145859 0.60474,0.257995 0.922707,0.35913 -0.27017,-0.104706 -0.513247,-0.246843 -0.757938,-0.391778 -0.00782,-0.0047 -0.025167,0.0048 -0.032953,0 -0.033674,-0.02016 -0.065689,-0.04442 -0.098862,-0.0653 -0.126959,-0.080132 -0.243618,-0.170829 -0.362492,-0.261185 -0.111962,-0.084415 -0.224909,-0.16832 -0.329538,-0.261185 -0.187631,-0.168656 -0.366404,-0.360841 -0.527261,-0.555018 -0.113444,-0.136084 -0.230301,-0.277155 -0.329538,-0.424427 -0.026457,-0.040096 -0.0405422,-0.089711 -0.0659077,-0.130592 -0.068294,-0.107642 -0.137328,-0.213667 -0.197723,-0.326482 -0.106515,-0.203417 -0.216889,-0.434299 -0.296584,-0.652962 -0.00839,-0.02279 -0.024875,-0.04236 -0.032954,-0.06529 -0.033561,-0.09607 -0.037757,-0.195191 -0.065907,-0.293834 -0.031987,-0.11139 -0.074228,-0.212116 -0.098862,-0.326482 -0.076852,-0.356792 -0.131815,-0.729444 -0.131815,-1.11004 v -2.08948 -71.0423 -2.08948 c 0,-2.90631 2.33909,-5.2237 5.27261,-5.2237 h 2.10904 71.7075 2.10904 c 2.93352,0 5.27261,2.31739 5.27261,5.2237 v 2.08948 71.0423 2.08948 c 0,0.380593 -0.05496,0.753245 -0.131815,1.11004 -0.04656,0.216149 -0.0932,0.415449 -0.16477,0.620314 -0.0082,0.02293 -0.02458,0.04251 -0.03295,0.0653 -0.06615,0.181512 -0.145929,0.383888 -0.230678,0.555019 -0.04385,0.0865 -0.08334,0.177558 -0.131815,0.261184 -0.05758,0.101565 -0.133685,0.196777 -0.197723,0.293833 -0.09924,0.147272 -0.216094,0.288343 -0.329537,0.424427 -0.150981,0.182254 -0.31967,0.362523 -0.494307,0.52237 -0.01178,0.01066 -0.02107,0.0221 -0.03295,0.03265 -0.145932,0.131174 -0.300635,0.244925 -0.461354,0.359129 -0.108164,0.07642 -0.215458,0.160225 -0.329539,0.228537 -0.0079,0.0048 -0.02515,-0.0047 -0.03295,0 -0.244691,0.144935 -0.487767,0.287072 -0.757939,0.391778 0.317968,-0.10113 0.628977,-0.213271 0.922708,-0.35913 0.587463,-0.291717 1.11785,-0.695477 1.58178,-1.14268 0.231967,-0.223604 0.431685,-0.461635 0.626123,-0.718259 0.194437,-0.256625 0.374785,-0.530459 0.527261,-0.816204 0.147759,-0.276907 0.291191,-0.548206 0.395445,-0.848851 0.01097,-0.03215 0.02249,-0.06556 0.03295,-0.09795 0.09539,-0.290525 0.146369,-0.605325 0.197723,-0.914146 0.05525,-0.332281 0.09886,-0.662395 0.09886,-1.01209 v -2.08948 -71.0423 -2.08948 c 0,-3.47272 -2.8219,-6.26844 -6.32713,-6.26844 h -75.9256 z "/>
<path style="opacity:.2;fill:url(#radialGradient3196)" id="path3615" d="m 10.5402,91.8131 c -3.50523,0 -6.32713,-2.79572 -6.32713,-6.26844 v -2.08948 -71.0423 -2.08948 c 0,-0.349696 0.043605,-0.679812 0.098862,-1.01209 0.051355,-0.308821 0.102331,-0.623621 0.197723,-0.914148 0.010419,-0.03174 0.022031,-0.066456 0.032953,-0.097947 0.104256,-0.300645 0.247687,-0.571945 0.395446,-0.84885 0.152475,-0.285743 0.332824,-0.559577 0.527261,-0.816202 0.194437,-0.256625 0.394156,-0.494655 0.626123,-0.718259 0.463934,-0.447207 0.994319,-0.850968 1.58178,-1.14268 0.293732,-0.145858 0.60474,-0.257996 0.922707,-0.35913 -0.27017,0.104706 -0.513247,0.246843 -0.757938,0.391778 -0.00782,0.0046 -0.025167,-0.0047 -0.032954,0 -0.033674,0.020163 -0.065689,0.044412 -0.098862,0.065296 -0.126958,0.0801318 -0.243618,0.170829 -0.362491,0.261185 -0.111962,0.084415 -0.224909,0.16832 -0.329538,0.261185 -0.187631,0.168656 -0.366404,0.360841 -0.527261,0.555018 -0.113444,0.136083 -0.230301,0.277154 -0.329538,0.424426 -0.026457,0.0400971 -0.0405422,0.0897118 -0.0659077,0.130592 -0.068294,0.107642 -0.137328,0.213667 -0.197723,0.326481 -0.106515,0.203417 -0.216889,0.434299 -0.296584,0.652963 -0.0084,0.022789 -0.024875,0.042364 -0.032953,0.065298 -0.033561,0.096066 -0.037757,0.19519 -0.065907,0.293834 -0.031986,0.111388 -0.074226,0.212115 -0.098862,0.326481 -0.076853,0.356791 -0.131815,0.729443 -0.131815,1.11004 v 2.08948 71.0423 2.08948 c 0,2.90631 2.33909,5.2237 5.27261,5.2237 h 2.10905 71.7075 2.10904 c 2.93352,0 5.27261,-2.31739 5.27261,-5.2237 v -2.08948 -71.0423 -2.08948 c 0,-0.380593 -0.05496,-0.753245 -0.131815,-1.11004 -0.04655,-0.21615 -0.0932,-0.415449 -0.164769,-0.620315 -0.0082,-0.022934 -0.02458,-0.042509 -0.03295,-0.065298 -0.066157,-0.181511 -0.145931,-0.383889 -0.23068,-0.555018 -0.04384,-0.0865048 -0.083346,-0.177558 -0.131813,-0.261185 -0.057581,-0.101559 -0.133689,-0.196777 -0.197727,-0.293833 -0.09924,-0.147272 -0.216094,-0.288343 -0.329538,-0.424426 -0.15098,-0.182255 -0.319669,-0.362523 -0.494306,-0.52237 -0.011784,-0.0106567 -0.021069,-0.0220968 -0.032953,-0.0326481 -0.145931,-0.131173 -0.300634,-0.244925 -0.461353,-0.359129 -0.108164,-0.0764231 -0.215459,-0.160226 -0.329539,-0.228537 -0.0079,-0.0047 -0.02515,0.0046 -0.03295,0 -0.244696,-0.144935 -0.487773,-0.287072 -0.757944,-0.391778 0.317968,0.101131 0.628976,0.213271 0.922707,0.359129 0.587464,0.291717 1.11785,0.695477 1.58178,1.14268 0.231966,0.223604 0.431685,0.461634 0.626122,0.718259 0.194437,0.256625 0.374786,0.53046 0.527262,0.816204 0.147759,0.276905 0.29119,0.548205 0.395445,0.84885 0.01097,0.032153 0.02249,0.065546 0.03295,0.097947 0.09539,0.290527 0.146369,0.605327 0.197723,0.914148 0.05525,0.33228 0.09886,0.662396 0.09886,1.01209 v 2.08948 71.0423 2.08948 c 0,3.47272 -2.8219,6.26844 -6.32713,6.26844 h -75.9256 z "/>
</g>
<g id="layer5" transform="matrix(1.0555058,0,0,1.0422392,-2.0944826,-2.1369602)">
<rect width="66" x="15" y="15" rx="12" height="66" ry="12" style="opacity:.1;fill:url(#linearGradient3613);filter:url(#filter3794);stroke:#fff;stroke-linecap:round;stroke-width:.5;clip-path:url(#clipPath3613)" id="rect3171"/>
</g>
<rect width="60.679295" x="18.397371" y="19.822863" rx="0" ry="0.1250356" height="45.86282" style="fill:none;stroke:#fff;stroke-width:2.938" id="rect3112"/>
<path style="fill:url(#linearGradient3186);fill-rule:evenodd;stroke:url(#linearGradient3926);stroke-width:.68" id="path3114" d="m 21.3637,12.0521 c 0,0 55.1385,0.01579 55.1385,0.01579 2.1936,0 3.73387,2.32932 3.73387,4.9069 0,0 0,6.15764 0,6.15764 0,0 -63.0776,0 -63.0776,0 0,0 0,-6.15764 0,-6.15764 0,-2.74735 1.69439,-4.92276 4.20517,-4.92276 z "/>
<g id="g3231" transform="matrix(0.99932534,0,0,1,-3.0880217,-43.046734)">
<path style="fill:url(#linearGradient3224);fill-rule:evenodd;stroke:url(#linearGradient3226);stroke-width:.867" id="path3264" d="m 13.6219,135.3827 c 0,0 76.8081,-0.0237 76.8081,-0.0237 3.05567,0 5.20128,-3.47802 5.20128,-7.32669 0,0 0,-9.19426 0,-9.19426 0,0 -87.8672,0 -87.8672,0 0,0 0,9.19426 0,9.19426 0,4.10219 2.36028,7.35038 5.85782,7.35038 z "/>
<rect width="31.135138" x="25.335123" y="122.17013" rx="4.0051246" ry="4.0051246" height="9.7796173" style="fill:url(#radialGradient3206);stroke:#5d5d5d;stroke-width:.928" id="rect3105"/>
<g id="g3937" transform="matrix(1.0325751,0,0,1.0329673,42.417829,-15.730489)">
<g style="fill-rule:evenodd">
<path style="opacity:.26;filter:url(#filter3573-0);stroke:none;color:#000" id="path3151" d="m 331.7904,510.9335 c -21.2901,0 -39.7658,-16.1399 -39.7658,-37.411 l -.0191,-21.9923 v -6.58604 h -13.4978 v -36.6513 l 56.9204,.2681 17.8056,.0383 c 21.3093,0 39.7658,16.1207 39.7658,37.4109 v 64.9233 h -61.209 l 0,0 z " transform="matrix(0.10975306,0,0,0.10520082,-62.5674,89.761023)"/>
<path style="fill:url(#linearGradient4039)" id="path3153" d="m -20.2966,141.7377 c 0,-1.48484 0,-4.98757 0,-4.98757 0,-1.66628 -1.5245,-3.01701 -3.4055,-3.01701 h -1.95229 v -0.004 l -5.2802,-.0221 v 1.8198 c 0,0 0.431134,0 0.810544,0 0.565777,0 0.665728,0.37436 0.665728,0.89253 l .0042,3.2172 c 0,1.66629 1.52451,3.01702 3.4034,3.01702 h 4.63899 c 0.594723,0 1.11513,-0.36101 1.11513,-0.91583 z "/>
</g>
<path style="opacity:.175;fill:url(#linearGradient4041);filter:url(#filter3291-5)" id="path3155" d="m 142.9375,500.5312 c -10.7518,-7.40935 -18.3668,-15.9203 -24.7812,-27.1875 -12.6444,-23.3581 -9.68791,-34.9533 -41,-37.6875 -9.03629,0 -15.0512,-2 -24.5625,-2 v 3.3125 c 1e-06,1e-05 3.75868,1.90749 7.0625,1.90749 4.9267,1e-05 5.78125,3.41765 5.78125,8.125 l .0312,29.155 c -3e-06,15.1376 13.2952,27.4062 29.6562,27.4062 h 40.375 c 2.96358,0 5.62572,-1.16787 7.4375,-3.03125 z " transform="matrix(0.11033923,0,0,0.10576268,-36.528679,89.221552)"/>
<g style="fill-rule:evenodd;color:#000;stroke:none">
<path style="filter:url(#filter3546-2);fill-opacity:.08;stroke-width:4.767" id="path3157" d="m 105.5184,438.5401 c -3.83671,0 -7.24574,1.42445 -9.98484,4.1914 -2.73772,2.76548 -4.1752,6.21796 -4.17519,10.1142 v 19.6947 h 8.93296 v -19.6947 c 0,-1.49338 0.48728,-2.66108 1.55355,-3.73818 1.06977,-1.08055 2.2026,-1.56971 3.67352,-1.56971 1.50175,0 2.61758,0.4867 3.68969,1.56971 1.06628,1.0771 1.55356,2.2448 1.55356,3.73818 v 19.6947 h 8.93297 v -19.6947 c 0,-1.49338 0.48728,-2.66108 1.55356,-3.73818 1.07211,-1.08301 2.18794,-1.56971 3.68971,-1.56971 1.47093,0 2.60373,0.48916 3.6735,1.56971 1.06627,1.0771 1.55356,2.2448 1.55356,3.73818 l .0486,23.0122 c 0,4.90894 -4.67486,9.04618 -10.6807,9.04618 l -28.8055,-.1133 c -4.63471,0 -8.59313,-4.51117 -8.59313,-10.3085 v -43.3353 h -8.44746 v 45.0021 c 0,4.77471 1.74718,8.96178 5.14616,12.3476 2.90519,2.8676 6.39907,4.56445 10.3247,4.98427 v 0.16191 h 32.0745 c 4.92872,0 9.25884,-1.83265 12.7521,-5.38904 h 0.0162 c 2.97102,-3.05245 4.70787,-6.70998 5.12997,-10.8262 l -.0324,-24.5819 c 0,-3.89625 -1.43744,-7.34873 -4.17521,-10.1142 -2.73906,-2.76695 -6.14812,-4.1914 -9.98482,-4.1914 -3.76604,0 -7.06133,1.40042 -9.72593,3.96479 -2.65681,-2.56014 -5.92908,-3.96479 -9.69356,-3.96479 z " transform="matrix(0.11033923,0,0,0.10576268,-36.672497,89.149642)"/>
<path style="fill:#fff" id="path3159" d="m -25.1084,135.5556 c -0.42334,0 -0.79949,0.15065 -1.10172,0.44329 -0.302079,0.29248 -0.460688,0.65763 -0.460688,1.0697 v 2.08297 h 0.985657 v -2.08297 c 0,-0.15794 0.05377,-0.28144 0.171417,-0.39536 0.118038,-0.11428 0.243034,-0.16601 0.405334,-0.16601 0.165701,0 0.288822,0.0515 0.407118,0.16601 0.117652,0.11392 0.171418,0.23742 0.171418,0.39536 v 2.08297 h 0.985656 v -2.08297 c 0,-0.15794 0.05377,-0.28144 0.17142,-0.39536 0.118295,-0.11454 0.241415,-0.16601 0.40712,-0.16601 0.162301,0 0.287293,0.0517 0.405329,0.16601 0.117653,0.11392 0.171419,0.23742 0.171419,0.39536 l .0054,2.4338 c 0,0.51918 -0.515821,0.95675 -1.1785,0.95675 l -3.1784,-.012 c -0.51139,0 -0.948159,-0.47712 -0.948159,-1.09026 v -4.58325 h -0.932086 v 4.75954 c 0,0.50498 0.192783,0.94782 0.567823,1.30591 0.320557,0.30329 0.70607,0.49988 1.13922,0.54428 h 3.53908 c 0.543831,0 1.02161,-0.19383 1.40706,-0.56996 h 0.0018 c 0.327818,-0.32284 0.519462,-0.70967 0.566037,-1.14501 l -.0036,-2.5999 c 0,-0.41207 -0.158605,-0.77722 -0.460688,-1.0697 -0.302226,-0.29264 -0.67838,-0.44329 -1.10172,-0.44329 -0.415542,0 -0.779142,0.14811 -1.07315,0.41932 -0.293151,-0.27077 -0.654209,-0.41932 -1.06958,-0.41932 z "/>
<path style="opacity:.3;fill:#010101" id="path3161" d="m -25.688,140.4504 0,.9331 2.3152,0 c 0.543829,0 1.01879,-0.19442 1.40423,-0.57055 h 0.0033 c 0.32782,-0.32284 0.519066,-0.7089 0.56564,-1.14425 v -0.52957 h -0.983293 v 0.3625 c 0,0.51919 -0.514641,0.95512 -1.17732,0.95512 l -2.1277,-.006 z "/>
<path style="fill:#fff" id="path3163" d="m -26.0816,143.3442 c -2.24047,0 -4.18477,-1.62805 -4.18477,-3.77367 l -.002,-2.6052 v -0.66434 h -1.42044 v -3.31016 l 5.99,.027 1.8738,.004 c 2.24249,0 4.18477,1.6261 4.18477,3.77365 v 6.54885 h -6.44135 l 0,0 z  m 5.5286,-1.7567 c 0,-1.42665 0,-4.79212 0,-4.79212 0,-1.601 -1.46476,-2.8988 -3.27205,-2.8988 h -1.87579 v -0.004 l -5.0733,-.0213 v 1.55465 c 0,0 0.203769,0 0.56831,0 0.385835,0 0.850112,0.34755 0.850112,0.85756 l .004,3.285 c 0,1.60099 1.46477,2.89879 3.27004,2.89879 h 4.45721 c 0.571417,0 1.07143,-0.34687 1.07143,-0.87994 z "/>
</g>
</g>
<rect width="31.135138" x="60.407665" y="122.17013" rx="4.0051246" height="9.7796173" ry="4.0051246" style="fill:url(#radialGradient3195);stroke:#5d5d5d;stroke-width:.928" id="rect3950"/>
</g>
<g style="writing-mode:tb-rl;font-size:48px;line-height:125%;text-align:start;font-family:American Participants;stroke:none" id="g3143" transform="matrix(0.96555422,0,0,1.0054554,2.1084551,-1.7461776)">
<g style="opacity:.8;filter:url(#filter3789)" id="g3145" transform="matrix(0.94113621,0,0,0.94221106,4.5900791,4.5953791)">
<path id="path3147" d="m 57.813,34.8241 c -2.4e-05,2.40002 -0.736023,4.46402 -2.208,6.192 -0.448021,0.576019 -1.79202,1.74402 -4.032,3.504 -1.47202,1.18402 -2.20802,2.28801 -2.208,3.312 v 1.68 h -8.88 v -2.736 c -6e-06,-1.82399 0.703993,-3.51998 2.112,-5.088 0.03199,-0.06398 1.32799,-1.24798 3.888,-3.552 1.40799,-1.24798 2.11198,-2.39997 2.112,-3.456 -1.5e-05,-0.703974 -0.272014,-1.27997 -0.816,-1.728 -0.544013,-0.479972 -1.18401,-0.719972 -1.92,-0.72 -0.960011,2.8e-05 -1.68001,0.352028 -2.16,1.056 -0.480009,0.704026 -0.704009,1.55203 -0.672,2.544 h -8.592 v -0.768 c 0,-3.16797 1.168,-5.69597 3.504,-7.584 2.14399,-1.75997 4.83199,-2.63996 8.064,-2.64 3.19998,3.6e-05 5.91998,0.848035 8.16,2.544 2.43198,1.85603 3.64798,4.33603 3.648,7.44 m -7.872,23.328 c -1.6e-05,1.44 -0.464015,2.608 -1.392,3.504 -0.896014,0.927998 -2.06401,1.392 -3.504,1.392 -1.44001,-3e-06 -2.62401,-0.464002 -3.552,-1.392 -0.896007,-0.896 -1.34401,-2.064 -1.344,-3.504 -6e-06,-1.44 0.447993,-2.624 1.344,-3.552 0.927992,-0.927993 2.11199,-1.39199 3.552,-1.392 1.43999,7e-06 2.60799,0.464007 3.504,1.392 0.927985,0.928005 1.39198,2.112 1.392,3.552"/>
</g>
<g style="fill:url(#linearGradient3160)" id="g3149" transform="matrix(0.94113621,0,0,0.94221106,4.5900791,3.5953791)">
<path style="fill:url(#linearGradient3158)" id="path3152" d="m 57.813,34.8241 c -2.4e-05,2.40002 -0.736023,4.46402 -2.208,6.192 -0.448021,0.576019 -1.79202,1.74402 -4.032,3.504 -1.47202,1.18402 -2.20802,2.28801 -2.208,3.312 v 1.68 h -8.88 v -2.736 c -6e-06,-1.82399 0.703993,-3.51998 2.112,-5.088 0.03199,-0.06398 1.32799,-1.24798 3.888,-3.552 1.40799,-1.24798 2.11198,-2.39997 2.112,-3.456 -1.5e-05,-0.703974 -0.272014,-1.27997 -0.816,-1.728 -0.544013,-0.479972 -1.18401,-0.719972 -1.92,-0.72 -0.960011,2.8e-05 -1.68001,0.352028 -2.16,1.056 -0.480009,0.704026 -0.704009,1.55203 -0.672,2.544 h -8.592 v -0.768 c 0,-3.16797 1.168,-5.69597 3.504,-7.584 2.14399,-1.75997 4.83199,-2.63996 8.064,-2.64 3.19998,3.6e-05 5.91998,0.848035 8.16,2.544 2.43198,1.85603 3.64798,4.33603 3.648,7.44 m -7.872,23.328 c -1.6e-05,1.44 -0.464015,2.608 -1.392,3.504 -0.896014,0.927998 -2.06401,1.392 -3.504,1.392 -1.44001,-3e-06 -2.62401,-0.464002 -3.552,-1.392 -0.896007,-0.896 -1.34401,-2.064 -1.344,-3.504 -6e-06,-1.44 0.447993,-2.624 1.344,-3.552 0.927992,-0.927993 2.11199,-1.39199 3.552,-1.392 1.43999,7e-06 2.60799,0.464007 3.504,1.392 0.927985,0.928005 1.39198,2.112 1.392,3.552"/>
</g>
<path style="fill:#fff" id="path3156" d="m 47.875,27 c -3.04176,3.4e-05 -5.54471,0.841742 -7.5625,2.5 -2.1985,1.77892 -3.3125,4.1401 -3.3125,7.125 v 0.71875 h 0.09375 c 0.280046,-2.38746 1.34514,-4.32771 3.21875,-5.84375 2.01779,-1.65826 4.52074,-2.49997 7.5625,-2.5 3.01162,3.4e-05 5.57934,0.808293 7.6875,2.40625 2.03626,1.5558 3.14955,3.5778 3.375,6.0625 0.03484,-0.34621 0.0625,-0.700474 0.0625,-1.0625 -2.3e-05,-2.9246 -1.14868,-5.25123 -3.4375,-7 -2.10816,-1.59796 -4.67588,-2.40622 -7.6875,-2.40625 z  m 2.2188,10.3125 c -0.28962,0.700055 -0.868872,1.43686 -1.75,2.21875 -2.40932,2.17087 -3.62614,3.28347 -3.65625,3.34375 -1.32513,1.4774 -2.00001,3.06267 -2,4.78125 v 2 c -6e-06,-1.71858 0.674874,-3.30385 2,-4.78125 0.03011,-0.06028 1.24693,-1.17288 3.65625,-3.34375 1.32511,-1.17586 1.96874,-2.255 1.96875,-3.25 -8e-06,-0.358281 -0.07419,-0.681674 -0.21875,-0.96875 z  m -3.125,16.4062 c -1.35525,7e-06 -2.43913,0.438135 -3.3125,1.3125 -0.843265,0.874377 -1.28126,1.98697 -1.28125,3.34375 -1e-06,0.339196 0.03951,0.660559 0.09375,0.96875 0.16965,-0.899558 0.569224,-1.67141 1.1875,-2.3125 0.873367,-0.874365 1.95725,-1.31249 3.3125,-1.3125 1.35522,7e-06 2.46923,0.438135 3.3125,1.3125 0.640601,0.641347 1.04732,1.41247 1.21875,2.3125 0.05482,-0.308191 0.09375,-0.629554 0.09375,-0.96875 -1.5e-05,-1.35678 -0.43914,-2.46937 -1.3125,-3.34375 -0.843271,-0.874365 -1.95728,-1.31249 -3.3125,-1.3125 z "/>
</g>
</svg>
