<?xml version="1.0" encoding="UTF-8" standalone="no"?>
<!-- Created with Inkscape (http://www.inkscape.org/) -->

<svg
   xmlns:dc="http://purl.org/dc/elements/1.1/"
   xmlns:cc="http://creativecommons.org/ns#"
   xmlns:rdf="http://www.w3.org/1999/02/22-rdf-syntax-ns#"
   xmlns:svg="http://www.w3.org/2000/svg"
   xmlns="http://www.w3.org/2000/svg"
   xmlns:xlink="http://www.w3.org/1999/xlink"
   xmlns:sodipodi="http://sodipodi.sourceforge.net/DTD/sodipodi-0.dtd"
   xmlns:inkscape="http://www.inkscape.org/namespaces/inkscape"
   version="1.0"
   width="96"
   height="96"
   id="svg2408"
   inkscape:version="0.48.2 r9819"
   sodipodi:docname="application-default-icon (copia).svg">
  <sodipodi:namedview
     pagecolor="#ffffff"
     bordercolor="#666666"
     borderopacity="1"
     objecttolerance="10"
     gridtolerance="10"
     guidetolerance="10"
     inkscape:pageopacity="0"
     inkscape:pageshadow="2"
     inkscape:window-width="1280"
     inkscape:window-height="968"
     id="namedview116"
     showgrid="false"
     inkscape:zoom="2.4583333"
     inkscape:cx="47.999999"
     inkscape:cy="15.484282"
     inkscape:window-x="0"
     inkscape:window-y="0"
     inkscape:window-maximized="1"
     inkscape:current-layer="svg2408" />
  <defs
     id="defs2410">
    <linearGradient
       x1="45.447727"
       y1="92.539597"
       x2="45.447727"
       y2="7.0165396"
       id="ButtonShadow"
       gradientUnits="userSpaceOnUse"
       gradientTransform="scale(1.0058652,0.994169)">
      <stop
         id="stop3750"
         style="stop-color:#000000;stop-opacity:1"
         offset="0" />
      <stop
         id="stop3752"
         style="stop-color:#000000;stop-opacity:0.58823532"
         offset="1" />
    </linearGradient>
    <linearGradient
       id="linearGradient3737">
      <stop
         id="stop3739"
         style="stop-color:#ffffff;stop-opacity:1"
         offset="0" />
      <stop
         id="stop3741"
         style="stop-color:#ffffff;stop-opacity:0"
         offset="1" />
    </linearGradient>
    <filter
       color-interpolation-filters="sRGB"
       id="filter3174">
      <feGaussianBlur
         id="feGaussianBlur3176"
         stdDeviation="1.71" />
    </filter>
    <linearGradient
       x1="36.357143"
       y1="6"
       x2="36.357143"
       y2="63.893143"
       id="linearGradient3188"
       xlink:href="#linearGradient3737"
       gradientUnits="userSpaceOnUse" />
    <filter
       x="-0.192"
       y="-0.192"
       width="1.3839999"
       height="1.3839999"
       color-interpolation-filters="sRGB"
       id="filter3794">
      <feGaussianBlur
         id="feGaussianBlur3796"
         stdDeviation="5.28" />
    </filter>
    <radialGradient
       cx="48"
       cy="90.171875"
       r="42"
       fx="48"
       fy="90.171875"
       id="radialGradient3619"
       xlink:href="#linearGradient3737"
       gradientUnits="userSpaceOnUse"
       gradientTransform="matrix(1.1573129,0,0,0.99590774,-7.5510206,0.19713193)" />
    <clipPath
       id="clipPath3613">
      <rect
         width="84"
         height="84"
         rx="6"
         ry="6"
         x="6"
         y="6"
         id="rect3615"
         style="fill:#ffffff;fill-opacity:1;fill-rule:nonzero;stroke:none" />
    </clipPath>
    <linearGradient
       x1="48"
       y1="90"
       x2="48"
       y2="5.9877172"
       id="linearGradient3617"
       xlink:href="#ButtonColor-7"
       gradientUnits="userSpaceOnUse" />
    <linearGradient
       x1="10.31979"
       y1="21"
       x2="10.31979"
       y2="0.99929649"
       id="ButtonColor-7"
       gradientUnits="userSpaceOnUse">
      <stop
         id="stop3189"
         style="stop-color:#787878;stop-opacity:1"
         offset="0" />
      <stop
         id="stop3191"
         style="stop-color:#b4b4b4;stop-opacity:1"
         offset="1" />
    </linearGradient>
    <linearGradient
       x1="45.447727"
       y1="92.539597"
       x2="45.447727"
       y2="7.0165396"
       id="ButtonShadow-0"
       gradientUnits="userSpaceOnUse"
       gradientTransform="matrix(1.0058652,0,0,0.994169,100,0)">
      <stop
         id="stop3750-8"
         style="stop-color:#000000;stop-opacity:1"
         offset="0" />
      <stop
         id="stop3752-5"
         style="stop-color:#000000;stop-opacity:0.58823532"
         offset="1" />
    </linearGradient>
    <linearGradient
       x1="32.251034"
       y1="6.1317081"
       x2="32.251034"
       y2="90.238609"
       id="linearGradient3780"
       xlink:href="#ButtonShadow-0"
       gradientUnits="userSpaceOnUse"
       gradientTransform="matrix(1.0238095,0,0,1.0119048,-1.1428571,-98.071429)" />
    <linearGradient
       x1="32.251034"
       y1="6.1317081"
       x2="32.251034"
       y2="90.238609"
       id="linearGradient3772"
       xlink:href="#ButtonShadow-0"
       gradientUnits="userSpaceOnUse"
       gradientTransform="matrix(1.0238095,0,0,1.0119048,-1.1428571,-98.071429)" />
    <linearGradient
       x1="32.251034"
       y1="6.1317081"
       x2="32.251034"
       y2="90.238609"
       id="linearGradient3725"
       xlink:href="#ButtonShadow-0"
       gradientUnits="userSpaceOnUse"
       gradientTransform="matrix(1.0238095,0,0,1.0119048,-1.1428571,-98.071429)" />
    <linearGradient
       x1="32.251034"
       y1="6.1317081"
       x2="32.251034"
       y2="90.238609"
       id="linearGradient3721"
       xlink:href="#ButtonShadow-0"
       gradientUnits="userSpaceOnUse"
       gradientTransform="translate(0,-97)" />
    <linearGradient
       x1="32.251034"
       y1="6.1317081"
       x2="32.251034"
       y2="90.238609"
       id="linearGradient3059"
       xlink:href="#ButtonShadow-0"
       gradientUnits="userSpaceOnUse"
       gradientTransform="matrix(1.0238095,0,0,1.0119048,-1.1428571,-98.071429)" />
    <clipPath
       id="clipPath4403">
      <path
         d="m 30.916245,135.971 c -0.937266,0.54113 -1.228304,1.74752 -0.677924,2.7008 l 1.9375,3.35585 c -1.418086,1.4141 -2.622273,3.01198 -3.595451,4.71 l -3.783634,-0.99095 c -0.531629,-0.14245 -1.037926,-0.11751 -1.476221,0.13061 -0.438159,0.24835 -0.796545,0.66758 -0.936598,1.19027 l -1.978825,7.38507 c -0.280102,1.04538 0.365953,2.06538 1.429126,2.35032 l 3.772195,1.03363 c -0.0062,1.95711 0.237711,3.94301 0.758755,5.87671 l -3.355849,1.9375 c -0.95328,0.55037 -1.304431,1.74066 -0.763301,2.67792 l 3.8125,6.60344 c 0.54113,0.93727 1.747521,1.2283 2.700801,0.67793 l 3.355849,-1.9375 c 1.414106,1.41808 3.011983,2.62227 4.709995,3.59545 l -0.990945,3.78363 c -0.284894,1.06325 0.275431,2.13275 1.320874,2.41282 l 7.385075,1.97883 c 1.045371,0.28011 2.065425,-0.36588 2.35032,-1.42913 l 1.033633,-3.77219 c 1.957118,0.006 3.943015,-0.23771 5.876701,-0.75876 l 1.9375,3.35585 c 0.550375,0.95328 1.740658,1.30443 2.677924,0.7633 l 6.603444,-3.8125 c 0.937258,-0.54113 1.228299,-1.74752 0.677924,-2.7008 l -1.9375,-3.35585 c 1.418087,-1.4141 2.622272,-3.01197 3.595452,-4.70999 l 3.783633,0.99094 c 1.063244,0.2849 2.132709,-0.27549 2.41282,-1.32087 l 1.978825,-7.38508 c 0.280102,-1.04537 -0.365953,-2.06538 -1.429127,-2.35032 l -3.772195,-1.03363 c 0.0062,-1.95711 -0.237701,-3.94301 -0.758754,-5.8767 l 3.355848,-1.9375 c 0.953272,-0.55037 1.304431,-1.74066 0.763301,-2.67793 l -3.8125,-6.60344 c -0.54113,-0.93726 -1.747529,-1.2283 -2.700801,-0.67792 l -3.355849,1.9375 c -1.414093,-1.4181 -3.011984,-2.62228 -4.709995,-3.59546 l 0.990945,-3.78363 c 0.284894,-1.06324 -0.275422,-2.13275 -1.320874,-2.41282 l -7.385074,-1.97882 c -1.045381,-0.28011 -2.065426,0.36588 -2.35032,1.42912 l -1.033633,3.7722 c -1.95712,-0.006 -3.943015,0.2377 -5.876702,0.75875 l -1.9375,-3.35585 c -0.55038,-0.95328 -1.740666,-1.30442 -2.677924,-0.7633 l -6.603444,3.8125 z m 10.051722,9.7851 c 6.696096,-3.866 15.258361,-1.57175 19.124356,5.12435 3.865995,6.6961 1.57174,15.25836 -5.124356,19.12436 -6.696096,3.86599 -15.258361,1.57174 -19.124356,-5.12436 -3.865995,-6.6961 -1.57174,-15.25836 5.124356,-19.12435 z"
         inkscape:connector-curvature="0"
         id="path4405"
         style="fill:url(#linearGradient4407);fill-opacity:1;fill-rule:nonzero;stroke:none;stroke-width:1;marker:none;visibility:visible;display:block;overflow:visible;enable-background:accumulate" />
    </clipPath>
    <linearGradient
       x1="48.233639"
       y1="48.047016"
       x2="126.13924"
       y2="66.232674"
       id="linearGradient4213"
       xlink:href="#linearGradient4071-3"
       gradientUnits="userSpaceOnUse" />
    <linearGradient
       id="linearGradient4071-3">
      <stop
         id="stop4073-8"
         style="stop-color:#000000;stop-opacity:1"
         offset="0" />
      <stop
         id="stop4075-4"
         style="stop-color:#000000;stop-opacity:0"
         offset="1" />
    </linearGradient>
    <linearGradient
       x1="48.055065"
       y1="48.031517"
       x2="126.67282"
       y2="62.838562"
       id="linearGradient4215"
       xlink:href="#linearGradient4047-2"
       gradientUnits="userSpaceOnUse" />
    <linearGradient
       id="linearGradient4047-2">
      <stop
         id="stop4049-0"
         style="stop-color:#000000;stop-opacity:1"
         offset="0" />
      <stop
         id="stop4051-5"
         style="stop-color:#000000;stop-opacity:0"
         offset="1" />
    </linearGradient>
    <linearGradient
       x1="47.997307"
       y1="48.028725"
       x2="127.05216"
       y2="60.289631"
       id="linearGradient4217"
       xlink:href="#linearGradient4047-2"
       gradientUnits="userSpaceOnUse" />
    <linearGradient
       x1="47.99826"
       y1="48.028797"
       x2="127.41583"
       y2="57.664623"
       id="linearGradient4219"
       xlink:href="#linearGradient4047-2"
       gradientUnits="userSpaceOnUse" />
    <linearGradient
       x1="48.233643"
       y1="48.04702"
       x2="126.13924"
       y2="66.232674"
       id="linearGradient4221"
       xlink:href="#linearGradient4115-2"
       gradientUnits="userSpaceOnUse" />
    <linearGradient
       id="linearGradient4115-2">
      <stop
         id="stop4117-3"
         style="stop-color:#ffffff;stop-opacity:1"
         offset="0" />
      <stop
         id="stop4119-6"
         style="stop-color:#ffffff;stop-opacity:0"
         offset="1" />
    </linearGradient>
    <linearGradient
       x1="48.055069"
       y1="48.031521"
       x2="126.67282"
       y2="62.838566"
       id="linearGradient4223"
       xlink:href="#linearGradient4115-2"
       gradientUnits="userSpaceOnUse" />
    <linearGradient
       x1="47.997311"
       y1="48.028728"
       x2="127.05216"
       y2="60.289635"
       id="linearGradient4225"
       xlink:href="#linearGradient4115-2"
       gradientUnits="userSpaceOnUse" />
    <linearGradient
       x1="47.998264"
       y1="48.028801"
       x2="127.41583"
       y2="57.664627"
       id="linearGradient4227"
       xlink:href="#linearGradient4115-2"
       gradientUnits="userSpaceOnUse" />
    <linearGradient
       x1="48.233639"
       y1="48.047016"
       x2="126.13924"
       y2="66.232674"
       id="linearGradient4229"
       xlink:href="#linearGradient4071-3"
       gradientUnits="userSpaceOnUse" />
    <linearGradient
       x1="48.055065"
       y1="48.031517"
       x2="126.67282"
       y2="62.838562"
       id="linearGradient4231"
       xlink:href="#linearGradient4047-2"
       gradientUnits="userSpaceOnUse" />
    <linearGradient
       x1="47.997307"
       y1="48.028725"
       x2="127.05216"
       y2="60.289631"
       id="linearGradient4233"
       xlink:href="#linearGradient4047-2"
       gradientUnits="userSpaceOnUse" />
    <linearGradient
       x1="47.99826"
       y1="48.028797"
       x2="127.41583"
       y2="57.664623"
       id="linearGradient4235"
       xlink:href="#linearGradient4047-2"
       gradientUnits="userSpaceOnUse" />
    <linearGradient
       x1="48.233639"
       y1="48.047016"
       x2="126.13924"
       y2="66.232674"
       id="linearGradient4237"
       xlink:href="#linearGradient4071-3"
       gradientUnits="userSpaceOnUse" />
    <linearGradient
       x1="48.055065"
       y1="48.031517"
       x2="126.67282"
       y2="62.838562"
       id="linearGradient4239"
       xlink:href="#linearGradient4047-2"
       gradientUnits="userSpaceOnUse" />
    <linearGradient
       x1="47.997307"
       y1="48.028725"
       x2="127.05216"
       y2="60.289631"
       id="linearGradient4241"
       xlink:href="#linearGradient4047-2"
       gradientUnits="userSpaceOnUse" />
    <linearGradient
       x1="47.99826"
       y1="48.028797"
       x2="127.41583"
       y2="57.664623"
       id="linearGradient4243"
       xlink:href="#linearGradient4047-2"
       gradientUnits="userSpaceOnUse" />
    <linearGradient
       x1="48.233643"
       y1="48.04702"
       x2="126.13924"
       y2="66.232674"
       id="linearGradient4245"
       xlink:href="#linearGradient4115-2"
       gradientUnits="userSpaceOnUse" />
    <linearGradient
       x1="48.055069"
       y1="48.031521"
       x2="126.67282"
       y2="62.838566"
       id="linearGradient4247"
       xlink:href="#linearGradient4115-2"
       gradientUnits="userSpaceOnUse" />
    <linearGradient
       x1="47.997311"
       y1="48.028728"
       x2="127.05216"
       y2="60.289635"
       id="linearGradient4249"
       xlink:href="#linearGradient4115-2"
       gradientUnits="userSpaceOnUse" />
    <linearGradient
       x1="47.998264"
       y1="48.028801"
       x2="127.41583"
       y2="57.664627"
       id="linearGradient4251"
       xlink:href="#linearGradient4115-2"
       gradientUnits="userSpaceOnUse" />
    <linearGradient
       x1="20.758585"
       y1="1"
       x2="20.758585"
       y2="45.017357"
       id="linearGradient3141"
       xlink:href="#linearGradient3309"
       gradientUnits="userSpaceOnUse"
       gradientTransform="matrix(1.2790652,0,0,1.2790652,17.302433,18.5815)" />
    <linearGradient
       x1="63.9995"
       y1="3.1001"
       x2="63.9995"
       y2="122.8994"
       id="linearGradient3309"
       gradientUnits="userSpaceOnUse">
      <stop
         id="stop3311"
         style="stop-color:#f0f0f0;stop-opacity:1"
         offset="0" />
      <stop
         id="stop3313"
         style="stop-color:#aaaaaa;stop-opacity:1"
         offset="1" />
    </linearGradient>
    <linearGradient
       x1="48"
       y1="20.220806"
       x2="48"
       y2="138.66119"
       id="linearGradient3917"
       xlink:href="#linearGradient3737"
       gradientUnits="userSpaceOnUse" />
    <radialGradient
       inkscape:collect="always"
       xlink:href="#linearGradient9653"
       id="radialGradient8983"
       gradientUnits="userSpaceOnUse"
       gradientTransform="matrix(1.4187906,1.7990908,-5.2147088,4.0808465,94.375805,-90.916668)"
       cx="17.084749"
       cy="19.525423"
       fx="17.084749"
       fy="19.525423"
       r="45" />
    <linearGradient
       id="linearGradient9653">
      <stop
         id="stop9655"
         offset="0"
         style="stop-color:#757474;stop-opacity:1;" />
      <stop
         id="stop9657"
         offset="1"
         style="stop-color:#0d0d0d;stop-opacity:1" />
    </linearGradient>
    <linearGradient
       inkscape:collect="always"
       xlink:href="#linearGradient9647"
       id="linearGradient8985"
       gradientUnits="userSpaceOnUse"
       gradientTransform="matrix(1.0095551,0,0,1.0056748,-0.45190713,-0.13562498)"
       x1="48.24577"
       y1="102.10169"
       x2="17.000467"
       y2="-21.966103" />
    <linearGradient
       id="linearGradient9647">
      <stop
         id="stop9649"
         style="stop-color:#151414;stop-opacity:1"
         offset="0" />
      <stop
         id="stop9651"
         style="stop-color:#5c5a5a;stop-opacity:1"
         offset="1" />
    </linearGradient>
    <radialGradient
       inkscape:collect="always"
       xlink:href="#linearGradient9859"
       id="radialGradient9867"
       cx="48.203388"
       cy="43.728813"
       fx="48.203388"
       fy="43.728813"
       r="24.169493"
       gradientTransform="matrix(2.2033418,-0.06036903,0.03315132,1.2099539,-59.861598,-5.2540915)"
       gradientUnits="userSpaceOnUse" />
    <linearGradient
       inkscape:collect="always"
       id="linearGradient9859">
      <stop
         style="stop-color:#000000;stop-opacity:1;"
         offset="0"
         id="stop9861" />
      <stop
         style="stop-color:#000000;stop-opacity:0;"
         offset="1"
         id="stop9863" />
    </linearGradient>
    <linearGradient
       inkscape:collect="always"
       xlink:href="#linearGradient3697-6"
       id="linearGradient8873"
       gradientUnits="userSpaceOnUse"
       gradientTransform="matrix(-1.0824791,0,0,1.3092641,100.40044,-5.8430701)"
       x1="129.16827"
       y1="11.108812"
       x2="6.9054751"
       y2="66.667923" />
    <linearGradient
       id="linearGradient3697-6">
      <stop
         id="stop3699-5"
         style="stop-color:#ffffff;stop-opacity:1"
         offset="0" />
      <stop
         id="stop3701-6"
         style="stop-color:#ffffff;stop-opacity:0"
         offset="1" />
    </linearGradient>
    <linearGradient
       inkscape:collect="always"
       xlink:href="#linearGradient3737-9"
       id="linearGradient8877"
       gradientUnits="userSpaceOnUse"
       x1="48"
       y1="20.220806"
       x2="48"
       y2="138.66119" />
    <linearGradient
       id="linearGradient3737-9">
      <stop
         id="stop3739-8"
         style="stop-color:#ffffff;stop-opacity:1"
         offset="0" />
      <stop
         id="stop3741-5"
         style="stop-color:#ffffff;stop-opacity:0"
         offset="1" />
    </linearGradient>
    <clipPath
       id="clipPath3613-6">
      <rect
         width="84"
         height="84"
         rx="6"
         ry="6"
         x="6"
         y="6"
         id="rect3615-5"
         style="fill:#ffffff;fill-opacity:1;fill-rule:nonzero;stroke:none" />
    </clipPath>
    <filter
       x="-0.192"
       y="-0.192"
       width="1.3839999"
       height="1.3839999"
       color-interpolation-filters="sRGB"
       id="filter3794-6">
      <feGaussianBlur
         id="feGaussianBlur3796-9"
         stdDeviation="5.28" />
    </filter>
    <radialGradient
       inkscape:collect="always"
       xlink:href="#linearGradient9811"
       id="radialGradient9887"
       cx="17.084749"
       cy="19.525423"
       fx="17.084749"
       fy="19.525423"
       r="45"
       gradientUnits="userSpaceOnUse"
       gradientTransform="matrix(1.4053622,1.788939,-5.1653533,4.0578193,93.930196,-90.268788)" />
    <linearGradient
       id="linearGradient9811">
      <stop
         style="stop-color:#c71d0a;stop-opacity:1;"
         offset="0"
         id="stop9813" />
      <stop
         style="stop-color:#532025;stop-opacity:1;"
         offset="1"
         id="stop9815" />
    </linearGradient>
    <linearGradient
       inkscape:collect="always"
       xlink:href="#linearGradient9829"
       id="linearGradient9827"
       x1="48.24577"
       y1="102.10169"
       x2="17.000467"
       y2="-21.966103"
       gradientUnits="userSpaceOnUse" />
    <linearGradient
       id="linearGradient9829">
      <stop
         offset="0"
         style="stop-color:#440d14;stop-opacity:1;"
         id="stop9831" />
      <stop
         offset="1"
         style="stop-color:#ad1608;stop-opacity:1;"
         id="stop9833" />
    </linearGradient>
    <filter
       color-interpolation-filters="sRGB"
       inkscape:collect="always"
       id="filter9971">
      <feGaussianBlur
         inkscape:collect="always"
         stdDeviation="0.1677965"
         id="feGaussianBlur9973" />
    </filter>
    <linearGradient
       inkscape:collect="always"
       xlink:href="#linearGradient3697"
       id="linearGradient9604"
       gradientUnits="userSpaceOnUse"
       gradientTransform="matrix(-1.0753334,0,0,1.2937566,100.68273,-4.8619498)"
       x1="129.16827"
       y1="11.108812"
       x2="6.9054751"
       y2="66.667923" />
    <linearGradient
       id="linearGradient3697">
      <stop
         id="stop3699"
         style="stop-color:#ffffff;stop-opacity:1"
         offset="0" />
      <stop
         id="stop3701"
         style="stop-color:#ffffff;stop-opacity:0"
         offset="1" />
    </linearGradient>
    <linearGradient
       inkscape:collect="always"
       xlink:href="#linearGradient3737-7"
       id="linearGradient9625"
       gradientUnits="userSpaceOnUse"
       x1="48"
       y1="20.220806"
       x2="48"
       y2="138.66119" />
    <linearGradient
       id="linearGradient3737-7">
      <stop
         id="stop3739-9"
         style="stop-color:#ffffff;stop-opacity:1"
         offset="0" />
      <stop
         id="stop3741-3"
         style="stop-color:#ffffff;stop-opacity:0"
         offset="1" />
    </linearGradient>
    <clipPath
       id="clipPath3613-6-8">
      <rect
         width="84"
         height="84"
         rx="6"
         ry="6"
         x="6"
         y="6"
         id="rect3615-5-2"
         style="fill:#ffffff;fill-opacity:1;fill-rule:nonzero;stroke:none" />
    </clipPath>
    <filter
       x="-0.192"
       y="-0.192"
       width="1.3839999"
       height="1.3839999"
       color-interpolation-filters="sRGB"
       id="filter3794-6-9">
      <feGaussianBlur
         id="feGaussianBlur3796-9-1"
         stdDeviation="5.28" />
    </filter>
    <linearGradient
       y2="138.66119"
       x2="48"
       y1="20.220806"
       x1="48"
       gradientUnits="userSpaceOnUse"
       id="linearGradient8720"
       xlink:href="#linearGradient3737-7"
       inkscape:collect="always" />
  </defs>
  <metadata
     id="metadata2413">
    <rdf:RDF>
      <cc:Work
         rdf:about="">
        <dc:format>image/svg+xml</dc:format>
        <dc:type
           rdf:resource="http://purl.org/dc/dcmitype/StillImage" />
      </cc:Work>
    </rdf:RDF>
  </metadata>
  <g
     id="layer2"
     style="display:none">
    <rect
       width="86"
       height="85"
       rx="6"
       ry="6"
       x="5"
       y="7"
       id="rect3745"
       style="opacity:0.9;fill:url(#ButtonShadow);fill-opacity:1;fill-rule:nonzero;stroke:none;filter:url(#filter3174)" />
  </g>
  <g
     transform="translate(2.1451187e-4,-9.5367432e-7)"
     style="display:inline"
     id="g8603">
    <rect
       inkscape:transform-center-y="-79.822033"
       inkscape:transform-center-x="-2.4406777"
       width="84"
       height="84"
       rx="6"
       ry="6"
       x="6.8135633"
       y="-90.18644"
       transform="scale(1,-1)"
       id="rect3716"
       style="opacity:0.76254183;fill:#090909;fill-opacity:1;fill-rule:nonzero;stroke:none;display:inline" />
    <rect
       width="84"
       height="84"
       rx="6"
       ry="6"
       x="6.4067855"
       y="6.000001"
       id="rect2419"
       style="fill:url(#radialGradient9887);fill-opacity:1;fill-rule:nonzero;stroke:url(#linearGradient9827);stroke-width:6;stroke-miterlimit:4;stroke-opacity:1;stroke-dasharray:none" />
    <path
       style="fill:none;stroke:#ffffff;stroke-width:3;stroke-linecap:butt;stroke-linejoin:miter;stroke-miterlimit:4;stroke-opacity:1;stroke-dasharray:none;filter:url(#filter9971)"
       d="m 291.93248,114.63784 -0.50848,-1.11863 -0.91525,-1.32204 -1.30507,-1.45436 -1.74577,-1.4948 -1.72882,-1.22033 -2.74576,-1.52543 -2.74576,-1.22033 -2.54237,-0.81357 -2.65701,-0.52611 -3.2413,-0.0841 -2.61405,0.18829 -3.18256,0.72697 -2.33898,0.61017 -2.44068,0.91525 -1.38305,0.69153 -1.6678,0.9356 -1.80914,1.25848 -1.3434,1.38557 -1.0648,1.5374 -0.8674,1.71685 -0.48959,1.96828 -0.12058,1.79443 0.25788,1.99965 0.65737,2.16984 0.87616,1.72101 1.15774,1.32984 1.83834,1.56454 1.92437,1.4863 1.9322,1.11865 2.2879,0.95199 2.59345,0.87852 2.7566,0.46133 3.04002,0.0471 3.10585,-0.41178 3.40262,-0.70686 2.0339,-0.61018 2.416,-0.92615 2.53086,-1.2975 2.47687,-1.64075 2.33899,-2.23728 1.42372,-1.83052 0.61017,-1.42369"
       id="path9573"
       inkscape:connector-curvature="0"
       sodipodi:nodetypes="cccccccccccccccccccccccccccccccccccccccccc"
       transform="matrix(1.1653287,0,0,1.0210881,-273.89269,-69.393867)" />
    <path
       sodipodi:nodetypes="cccccccccccccccccccccccccccccccccccccccccc"
       inkscape:connector-curvature="0"
       id="path9575"
       d="m 291.93248,114.63784 -0.50848,-1.11863 -0.91525,-1.32204 -1.30507,-1.45436 -1.74577,-1.4948 -1.72882,-1.22033 -2.74576,-1.52543 -2.74576,-1.22033 -2.54237,-0.81357 -2.65701,-0.52611 -3.2413,-0.0841 -2.61405,0.18829 -3.18256,0.72697 -2.33898,0.61017 -2.44068,0.91525 -1.38305,0.69153 -1.6678,0.9356 -1.80914,1.25848 -1.3434,1.38557 -1.0648,1.5374 -0.8674,1.71685 -0.48959,1.96828 -0.12058,1.79443 0.25788,1.99965 0.65737,2.16984 0.87616,1.72101 1.15774,1.32984 1.83834,1.56454 1.92437,1.4863 1.9322,1.11865 2.2879,0.95199 2.59345,0.87852 2.7566,0.46133 3.04002,0.0471 3.10585,-0.41178 3.40262,-0.70686 2.0339,-0.61018 2.416,-0.92615 2.53086,-1.2975 2.47687,-1.64075 2.33899,-2.23728 1.42372,-1.83052 0.61017,-1.42369"
       style="fill:none;stroke:#ffffff;stroke-width:3;stroke-linecap:butt;stroke-linejoin:miter;stroke-miterlimit:4;stroke-opacity:1;stroke-dasharray:none;filter:url(#filter9971)"
       transform="matrix(1.1653287,0,0,1.0210881,-273.89269,-69.393867)" />
    <path
       style="fill:none;stroke:#ffffff;stroke-width:3;stroke-linecap:butt;stroke-linejoin:miter;stroke-miterlimit:4;stroke-opacity:1;stroke-dasharray:none"
       d="m 291.93248,114.63784 -0.50848,-1.11863 -0.91525,-1.32204 -1.30507,-1.45436 -1.74577,-1.4948 -1.72882,-1.22033 -2.74576,-1.52543 -2.74576,-1.22033 -2.54237,-0.81357 -2.65701,-0.52611 -3.2413,-0.0841 -2.61405,0.18829 -3.18256,0.72697 -2.33898,0.61017 -2.44068,0.91525 -1.38305,0.69153 -1.6678,0.9356 -1.80914,1.25848 -1.3434,1.38557 -1.0648,1.5374 -0.8674,1.71685 -0.48959,1.96828 -0.12058,1.79443 0.25788,1.99965 0.65737,2.16984 0.87616,1.72101 1.15774,1.32984 1.83834,1.56454 1.92437,1.4863 1.9322,1.11865 2.2879,0.95199 2.59345,0.87852 2.7566,0.46133 3.04002,0.0471 3.10585,-0.41178 3.40262,-0.70686 2.0339,-0.61018 2.416,-0.92615 2.53086,-1.2975 2.47687,-1.64075 2.33899,-2.23728 1.42372,-1.83052 0.61017,-1.42369"
       id="path9577"
       inkscape:connector-curvature="0"
       sodipodi:nodetypes="cccccccccccccccccccccccccccccccccccccccccc"
       transform="matrix(1.1653287,0,0,1.0210881,-273.89269,-69.393867)" />
    <path
       style="fill:none;stroke:#ffffff;stroke-width:3.08319044;stroke-linecap:butt;stroke-linejoin:miter;stroke-miterlimit:4;stroke-opacity:1;stroke-dasharray:none"
       d="m 66.243194,48.256282 -0.03196,-1.103367 0.208,-1.535257 0.527945,-2.111059 0.525235,-1.750186 0.48541,-1.297997 0.645506,-1.298385 1.217124,-2.08546 1.314039,-1.787394 1.099966,-1.501776 1.640066,-1.995849 1.783063,-1.843524 2.071913,-1.612267 -1.304284,4.874133 -0.869612,5.18434 -0.338854,2.999906 -0.253225,2.709212 -0.05958,2.241299 0.01758,1.755342 -0.05379,1.674176 0.160097,2.752945"
       id="path9579"
       inkscape:connector-curvature="0"
       sodipodi:nodetypes="ccccccccccccccccccccc" />
    <path
       sodipodi:nodetypes="ccccccccccccccccccc"
       inkscape:connector-curvature="0"
       id="path9581"
       d="m 74.998921,52.236565 0.06186,2.275372 0.138498,2.346798 0.222461,2.711836 0.305277,3.003408 0.811478,5.19354 1.249626,4.888061 -2.053729,-1.634782 -1.762323,-1.862863 -1.617598,-2.013637 -1.083085,-1.513681 -1.29394,-1.801639 -1.193684,-2.098611 -0.630931,-1.305349 -0.470835,-1.303215 -0.505612,-1.755812 -0.504257,-2.116685 -0.190818,-1.537442 0.04427,-1.102949"
       style="fill:none;stroke:#ffffff;stroke-width:3.08319044;stroke-linecap:butt;stroke-linejoin:miter;stroke-miterlimit:4;stroke-opacity:1;stroke-dasharray:none" />
    <path
       sodipodi:type="arc"
       style="fill:none;stroke:#ffffff;stroke-width:1.84344947;stroke-miterlimit:4;stroke-opacity:1;stroke-dasharray:none"
       id="path9583"
       sodipodi:cx="68.542374"
       sodipodi:cy="305.49152"
       sodipodi:rx="3.2542374"
       sodipodi:ry="2.8474576"
       d="m 71.568777,306.53821 c -0.660654,1.46251 -2.551188,2.17948 -4.222624,1.60141 -1.671436,-0.57807 -2.490837,-2.23229 -1.830183,-3.6948 0.660655,-1.4625 2.551188,-2.17948 4.222624,-1.60141 1.670101,0.57761 2.489772,2.22982 1.831533,3.69181"
       sodipodi:start="0.37641478"
       sodipodi:end="6.6584698"
       transform="matrix(1.3977462,0,0,1.3897844,-62.212848,-377.86971)"
       sodipodi:open="true" />
    <path
       sodipodi:open="true"
       transform="matrix(-1.3977462,0,0,1.3897844,129.54227,-377.94097)"
       sodipodi:end="6.6584698"
       sodipodi:start="0.37641478"
       d="m 71.568777,306.53821 c -0.660654,1.46251 -2.551188,2.17948 -4.222624,1.60141 -1.671436,-0.57807 -2.490837,-2.23229 -1.830183,-3.6948 0.660655,-1.4625 2.551188,-2.17948 4.222624,-1.60141 1.670101,0.57761 2.489772,2.22982 1.831533,3.69181"
       sodipodi:ry="2.8474576"
       sodipodi:rx="3.2542374"
       sodipodi:cy="305.49152"
       sodipodi:cx="68.542374"
       id="path9585"
       style="fill:none;stroke:#ffffff;stroke-width:1.84344947;stroke-miterlimit:4;stroke-opacity:1;stroke-dasharray:none"
       sodipodi:type="arc" />
    <path
       style="fill:none;stroke:#fbfbfb;stroke-width:3.08319044;stroke-linecap:butt;stroke-linejoin:miter;stroke-miterlimit:4;stroke-opacity:1;stroke-dasharray:none"
       d="m 36.031655,37.396244 1.104818,-2.551995 1.279685,-2.828588 1.43521,-2.395962 1.90109,-2.448161 1.716582,-1.703829 2.102076,-1.963399 2.192847,-1.854286 5.785196,-4.277062 -1.899962,4.506909 -0.857127,2.389683 -0.541993,2.734464 -0.365541,2.140007 -0.155752,2.281366 0.01128,2.381851 0.562898,4.634607"
       id="path9587"
       inkscape:connector-curvature="0"
       sodipodi:nodetypes="cccccccccccccccc" />
    <path
       sodipodi:nodetypes="cccccccccccccccc"
       inkscape:connector-curvature="0"
       id="path9589"
       d="m 42.696517,63.906622 0.741811,1.209775 0.859227,1.340883 0.96364,1.135807 1.276459,1.160558 1.152566,0.807691 1.411398,0.930753 1.472345,0.879024 3.884375,2.027534 -1.275703,-2.136494 -0.575497,-1.132826 -0.363918,-1.296272 -0.245436,-1.014471 -0.104569,-1.081475 0.0072,-1.12912 0.377955,-2.197034"
       style="fill:none;stroke:#fbfbfb;stroke-width:3.08319044;stroke-linecap:butt;stroke-linejoin:miter;stroke-miterlimit:4;stroke-opacity:1;stroke-dasharray:none" />
    <path
       inkscape:connector-curvature="0"
       style="opacity:0.4;fill:url(#linearGradient9604);fill-opacity:1;fill-rule:nonzero;stroke:none"
       id="path9602"
       d="m 87.778729,2.9005898 c 3.57441,0 6.452,3.46209 6.452,7.7625402 l 0,60.64484 C 75.295649,56.40127 46.670086,46.88832 14.656061,46.88832 c -3.63247,0 -7.2176746,0.12536 -10.7533446,0.36387 l 0,-36.58906 c 0,-4.3004502 2.8776,-7.7625402 6.4520136,-7.7625402 l 77.423999,0 z" />
    <rect
       style="opacity:0.1;fill:url(#linearGradient8720);fill-opacity:1;fill-rule:nonzero;stroke:#ffffff;stroke-width:0.5;stroke-linecap:round;stroke-linejoin:miter;stroke-miterlimit:4;stroke-opacity:1;stroke-dasharray:none;stroke-dashoffset:0;filter:url(#filter3794-6-9)"
       id="rect9623"
       clip-path="url(#clipPath3613-6-8)"
       y="15"
       x="15"
       ry="12"
       rx="12"
       height="66"
       width="66"
       transform="matrix(0.98553639,0,0,0.9904963,1.2483152,0.26143548)" />
  </g>
</svg>
