<svg width="96" version="1.0" xmlns="http://www.w3.org/2000/svg" height="96" xmlns:xlink="http://www.w3.org/1999/xlink">
<defs id="defs2410">
<clipPath id="clipPath3613">
<rect width="84" x="6" y="6" rx="6" height="84" ry="6" style="fill:#fff;stroke:none" id="rect3615"/>
</clipPath>
<clipPath id="clipPath3939">
<path style="opacity:.472;fill:#0ff;fill-rule:evenodd;stroke:none" id="path3941" d="m 71.9688,20 c -4.31369,1.76554 -18.1551,7.51277 -18.5,7.65625 -3.87007,-3.15018 -8.91154,-5.59814 -14.125,-5.875 -12.6463,-0.79267 -24.2763,10.3946 -24.3125,22.8125 -0.555181,11.1798 4.56274,21.5285 9.1875,31.4062 3.86909,-1.60891 17.9578,-7.44581 18.3125,-7.59375 3.79832,3.16375 8.648,5.47837 13.7188,5.84375 12.4437,1.04072 24.0241,-9.65549 24.6562,-21.7812 0.90325,-11.3427 -4.34426,-21.8577 -8.75,-32 -0.0642,-0.15823 -0.1235,-0.310504 -0.1875,-0.46875 z  m -34.25,7.3125 c 9.1497,-0.0011 17.2005,7.68347 17.625,14.0625 0.35572,5.34549 -1.41147,12.9565 -10.1562,13.9688 0.323717,0.862924 0.769457,1.77011 1.40625,2.65625 h -5.09375 c -0.414177,-0.963437 -0.667923,-1.93171 -0.78125,-2.875 -4.22321,-1.12155 -7.97654,-5.09882 -8,-10.625 -0.03,-7.05132 8.82761,-7.73263 11.0625,-5.9375 0.86811,0.6973 0.83057,2.06161 0.0625,1.8125 -4.77179,-1.54858 -7.71892,1.5261 -7.5,4.5625 0.228202,3.1635 1.72951,5.34492 4.40625,6.28125 0.129081,-1.07534 0.354866,-2.16459 0.71875,-3.21875 h 4.3125 c -0.716657,1.25247 -1.07742,2.60953 -1.1875,3.6875 5.44195,-0.419155 6.99602,-5.96932 6.84375,-8.3125 -0.197,-3.03321 -2.84006,-9.29778 -11.0938,-10.4375 -3.8972,-0.537566 -7.10947,0.626374 -9.46875,2.90625 -2.35923,2.28008 -3.71247,4.66367 -3.90625,8.53125 -0.200416,4.00037 0.693285,6.34526 3.09375,11.5938 0.857436,1.87446 3.23899,5.65054 5.09375,9.4375 l -8.0312,3.3438 c -2.72903,-6.58451 -6.35708,-12.3714 -6.4375,-23.125 -0.08308,-11.1103 9.474,-18.3116 17.0312,-18.3125 z "/>
</clipPath>
<filter style="color-interpolation-filters:sRGB" id="filter3174">
<feGaussianBlur stdDeviation="1.71" id="feGaussianBlur3176"/>
</filter>
<filter width="1.3839999" x="-0.192" y="-0.192" height="1.3839999" style="color-interpolation-filters:sRGB" id="filter3794">
<feGaussianBlur stdDeviation="5.28" id="feGaussianBlur3796"/>
</filter>
<linearGradient gradientTransform="matrix(1.0238095,0,0,1.0119048,-1.1428571,-98.071429)" id="linearGradient3772" xlink:href="#ButtonShadow-0" y1="6.1317081" x1="32.251034" y2="90.238609" x2="32.251034" gradientUnits="userSpaceOnUse"/>
<linearGradient gradientTransform="matrix(1.0238095,0,0,1.0119048,-1.1428571,-98.071429)" id="linearGradient3725" xlink:href="#ButtonShadow-0" y1="6.1317081" x1="32.251034" y2="90.238609" x2="32.251034" gradientUnits="userSpaceOnUse"/>
<linearGradient id="linearGradient7985">
<stop offset="0" style="stop-color:#42699a" id="stop7991"/>
<stop offset="1" style="stop-color:#99b8e1" id="stop7989"/>
</linearGradient>
<linearGradient gradientTransform="translate(0,-97)" id="linearGradient3721" xlink:href="#ButtonShadow-0" y1="6.1317081" x1="32.251034" y2="90.238609" x2="32.251034" gradientUnits="userSpaceOnUse"/>
<linearGradient gradientTransform="matrix(1.0238095,0,0,1.0119048,-1.1428571,-98.071429)" id="linearGradient3026" xlink:href="#ButtonShadow-0" y1="6.1317081" x1="32.251034" y2="90.238609" x2="32.251034" gradientUnits="userSpaceOnUse"/>
<linearGradient gradientTransform="matrix(1.0238095,0,0,1.0119048,-1.1428571,-98.071429)" id="linearGradient3780" xlink:href="#ButtonShadow-0" y1="6.1317081" x1="32.251034" y2="90.238609" x2="32.251034" gradientUnits="userSpaceOnUse"/>
<linearGradient id="linearGradient3617" xlink:href="#linearGradient3744" y1="90" x1="48" y2="5.9877172" x2="48" gradientUnits="userSpaceOnUse"/>
<linearGradient id="linearGradient3744">
<stop offset="0" style="stop-color:#6189bb" id="stop3746"/>
<stop offset="1" style="stop-color:#b6cce9" id="stop3748"/>
</linearGradient>
<linearGradient gradientTransform="scale(1.0058652,0.994169)" id="ButtonShadow" y1="92.539597" x1="45.447727" y2="7.0165396" x2="45.447727" gradientUnits="userSpaceOnUse">
<stop offset="0" id="stop3750"/>
<stop offset="1" style="stop-opacity:.588" id="stop3752"/>
</linearGradient>
<linearGradient gradientTransform="matrix(1.0058652,0,0,0.994169,100,0)" id="ButtonShadow-0" y1="92.539597" x1="45.447727" y2="7.0165396" x2="45.447727" gradientUnits="userSpaceOnUse">
<stop offset="0" id="stop3750-8"/>
<stop offset="1" style="stop-opacity:.588" id="stop3752-5"/>
</linearGradient>
<linearGradient id="linearGradient3737">
<stop offset="0" style="stop-color:#fff" id="stop3739"/>
<stop offset="1" style="stop-color:#fff;stop-opacity:0" id="stop3741"/>
</linearGradient>
<linearGradient id="linearGradient3188" xlink:href="#linearGradient3737" y1="6" x1="36.357143" y2="63.893143" x2="36.357143" gradientUnits="userSpaceOnUse"/>
<linearGradient gradientTransform="matrix(-0.25635421,0,0,0.25321235,593.66341,-3728.0457)" id="linearGradient2983" xlink:href="#linearGradient7985" y1="15026.778" x1="2128.5525" y2="14844.775" x2="2128.5525" gradientUnits="userSpaceOnUse"/>
<linearGradient id="linearGradient3613" xlink:href="#linearGradient3737" y1="20.220806" x1="48" y2="138.66119" x2="48" gradientUnits="userSpaceOnUse"/>
<radialGradient fx="48" fy="90.171875" cx="48" cy="90.171875" gradientTransform="matrix(1.1573129,0,0,0.99590774,-7.5510206,0.19713193)" r="42" id="radialGradient3619" xlink:href="#linearGradient3737" gradientUnits="userSpaceOnUse"/>
</defs>
<g style="display:none" id="layer2">
<rect width="86" x="5" y="7" rx="6" height="85" ry="6" style="opacity:.9;fill:url(#ButtonShadow);filter:url(#filter3174);stroke:none" id="rect3745"/>
</g>
<g style="stroke:none" id="layer3">
<path style="opacity:.08;fill:url(#linearGradient3026)" id="path3786" d="m 12,-95.0312 c -5.51109,0 -10.0312,4.52016 -10.0312,10.0312 v 71 c 0,5.51109 4.52016,10.0312 10.0312,10.0312 h 72 c 5.51109,0 10.0312,-4.52016 10.0312,-10.0312 v -71 c 0,-5.51109 -4.52016,-10.0312 -10.0312,-10.0312 h -72 z " transform="scale(1,-1)"/>
<path style="opacity:.1;fill:url(#linearGradient3780)" id="path3778" d="m 12,-94.0312 c -4.97163,0 -9.03125,4.05962 -9.03125,9.03125 v 71 c 0,4.97163 4.05962,9.03125 9.03125,9.03125 h 72 c 4.97163,0 9.03125,-4.05962 9.03125,-9.03125 v -71 c 0,-4.97163 -4.05962,-9.03125 -9.03125,-9.03125 h -72 z " transform="scale(1,-1)"/>
<path style="opacity:.2;fill:url(#linearGradient3772)" id="path3770" d="m 12,-93 c -4.40913,0 -8,3.59087 -8,8 v 71 c 0,4.40913 3.59087,8 8,8 h 72 c 4.40913,0 8,-3.59087 8,-8 v -71 c 0,-4.40913 -3.59087,-8 -8,-8 h -72 z " transform="scale(1,-1)"/>
<rect width="86" x="5" y="-92" rx="7" height="85" ry="7" style="opacity:.3;fill:url(#linearGradient3725)" id="rect3723" transform="scale(1,-1)"/>
<rect width="84" x="6" y="-91" rx="6" height="84" ry="6" style="opacity:.45;fill:url(#linearGradient3721)" id="rect3716" transform="scale(1,-1)"/>
</g>
<g style="stroke:none" id="layer1">
<rect width="84" x="6" y="6" rx="6" height="84" ry="6" style="fill:url(#linearGradient3617)" id="rect2419"/>
<path style="opacity:.4;fill:url(#linearGradient3188)" id="rect3728" d="m 12,6 c -3.324,0 -6,2.676 -6,6 v 2 68 2 c 0,0.334721 0.04135,0.6507 0.09375,0.96875 0.0487,0.295596 0.09704,0.596915 0.1875,0.875 0.00988,0.03038 0.020892,0.0636 0.03125,0.09375 0.098865,0.287771 0.23488,0.547452 0.375,0.8125 0.144592,0.273507 0.315616,0.535615 0.5,0.78125 0.184384,0.245635 0.373776,0.473472 0.59375,0.6875 0.439947,0.428056 0.94291,0.814526 1.5,1.09375 0.278545,0.139612 0.573473,0.246947 0.875,0.34375 -0.256202,-0.100222 -0.486711,-0.236272 -0.71875,-0.375 -0.00741,-0.0044 -0.023866,0.0045 -0.03125,0 -0.031933,-0.0193 -0.062293,-0.04251 -0.09375,-0.0625 -0.120395,-0.0767 -0.231023,-0.163513 -0.34375,-0.25 -0.106173,-0.0808 -0.213281,-0.161112 -0.3125,-0.25 -0.17793,-0.161433 -0.34746,-0.345388 -0.5,-0.53125 -0.107579,-0.130255 -0.218394,-0.265285 -0.3125,-0.40625 -0.025089,-0.03838 -0.038446,-0.08587 -0.0625,-0.125 -0.064763,-0.103032 -0.130228,-0.204517 -0.1875,-0.3125 -0.101008,-0.194706 -0.205675,-0.415701 -0.28125,-0.625 -0.00796,-0.02181 -0.023589,-0.04055 -0.03125,-0.0625 -0.0318251,-0.09195 -0.0358045,-0.186831 -0.0625,-0.28125 -0.0303323,-0.106618 -0.0703894,-0.203031 -0.09375,-0.3125 -0.0728786,-0.341512 -0.125,-0.698205 -0.125,-1.0625 v -2 -68 -2 c 0,-2.78185 2.21815,-5 5,-5 h 2 68 2 c 2.78185,0 5,2.21815 5,5 v 2 68 2 c 0,0.364295 -0.05212,0.720988 -0.125,1.0625 -0.04415,0.206893 -0.08838,0.397658 -0.15625,0.59375 -0.0077,0.02195 -0.0233,0.04069 -0.03125,0.0625 -0.06274,0.173739 -0.138383,0.367449 -0.21875,0.53125 -0.04158,0.0828 -0.07904,0.169954 -0.125,0.25 -0.0546,0.09721 -0.126774,0.18835 -0.1875,0.28125 -0.09411,0.140965 -0.204921,0.275995 -0.3125,0.40625 -0.143174,0.17445 -0.303141,0.346998 -0.46875,0.5 -0.01117,0.0102 -0.01998,0.02115 -0.03125,0.03125 -0.138386,0.125556 -0.285091,0.234436 -0.4375,0.34375 -0.102571,0.07315 -0.204318,0.153364 -0.3125,0.21875 -0.0074,0.0045 -0.02384,-0.0044 -0.03125,0 -0.232039,0.138728 -0.462548,0.274778 -0.71875,0.375 0.301527,-0.0968 0.596455,-0.204138 0.875,-0.34375 0.55709,-0.279224 1.06005,-0.665694 1.5,-1.09375 0.219973,-0.214028 0.409366,-0.441865 0.59375,-0.6875 0.184384,-0.245635 0.355408,-0.507743 0.5,-0.78125 0.14012,-0.265048 0.276135,-0.524729 0.375,-0.8125 0.01041,-0.03078 0.02133,-0.06274 0.03125,-0.09375 0.09046,-0.278085 0.1388,-0.579404 0.1875,-0.875 0.0524,-0.31805 0.09375,-0.634029 0.09375,-0.96875 v -2 -68 -2 c 0,-3.324 -2.676,-6 -6,-6 h -72 z "/>
<path style="opacity:.2;fill:url(#radialGradient3619)" id="path3615" d="M 12,90 C 8.676,90 6,87.324 6,84 L 6,82 6,14 6,12 c 0,-0.334721 0.04135,-0.6507 0.09375,-0.96875 0.0487,-0.295596 0.09704,-0.596915 0.1875,-0.875 C 6.29113,10.12587 6.302142,10.09265 6.3125,10.0625 6.411365,9.774729 6.5473802,9.515048 6.6875,9.25 6.8320918,8.976493 7.0031161,8.714385 7.1875,8.46875 7.3718839,8.223115 7.5612765,7.995278 7.78125,7.78125 8.221197,7.353194 8.72416,6.966724 9.28125,6.6875 9.559795,6.547888 9.8547231,6.440553 10.15625,6.34375 9.9000482,6.443972 9.6695391,6.580022 9.4375,6.71875 c -0.00741,0.0044 -0.023866,-0.0045 -0.03125,0 -0.031933,0.0193 -0.062293,0.04251 -0.09375,0.0625 -0.120395,0.0767 -0.2310226,0.163513 -0.34375,0.25 -0.1061728,0.0808 -0.2132809,0.161112 -0.3125,0.25 C 8.4783201,7.442683 8.3087904,7.626638 8.15625,7.8125 8.0486711,7.942755 7.9378561,8.077785 7.84375,8.21875 7.818661,8.25713 7.805304,8.30462 7.78125,8.34375 7.716487,8.446782 7.6510225,8.548267 7.59375,8.65625 7.4927417,8.850956 7.3880752,9.071951 7.3125,9.28125 7.30454,9.30306 7.288911,9.3218 7.28125,9.34375 7.2494249,9.4357 7.2454455,9.530581 7.21875,9.625 7.1884177,9.731618 7.1483606,9.828031 7.125,9.9375 7.0521214,10.279012 7,10.635705 7,11 l 0,2 0,68 0,2 c 0,2.781848 2.2181517,5 5,5 l 2,0 68,0 2,0 c 2.781848,0 5,-2.218152 5,-5 l 0,-2 0,-68 0,-2 C 89,10.635705 88.94788,10.279012 88.875,9.9375 88.83085,9.730607 88.78662,9.539842 88.71875,9.34375 88.71105,9.3218 88.69545,9.30306 88.6875,9.28125 88.62476,9.107511 88.549117,8.913801 88.46875,8.75 88.42717,8.6672 88.38971,8.580046 88.34375,8.5 88.28915,8.40279 88.216976,8.31165 88.15625,8.21875 88.06214,8.077785 87.951329,7.942755 87.84375,7.8125 87.700576,7.63805 87.540609,7.465502 87.375,7.3125 87.36383,7.3023 87.35502,7.29135 87.34375,7.28125 87.205364,7.155694 87.058659,7.046814 86.90625,6.9375 86.803679,6.86435 86.701932,6.784136 86.59375,6.71875 c -0.0074,-0.0045 -0.02384,0.0044 -0.03125,0 -0.232039,-0.138728 -0.462548,-0.274778 -0.71875,-0.375 0.301527,0.0968 0.596455,0.204138 0.875,0.34375 0.55709,0.279224 1.060053,0.665694 1.5,1.09375 0.219973,0.214028 0.409366,0.441865 0.59375,0.6875 0.184384,0.245635 0.355408,0.507743 0.5,0.78125 0.14012,0.265048 0.276135,0.524729 0.375,0.8125 0.01041,0.03078 0.02133,0.06274 0.03125,0.09375 0.09046,0.278085 0.1388,0.579404 0.1875,0.875 C 89.95865,11.3493 90,11.665279 90,12 l 0,2 0,68 0,2 c 0,3.324 -2.676,6 -6,6 l -72,0 z"/>
</g>
<g id="layer5">
<rect width="66" x="15" y="15" rx="12" height="66" ry="12" style="opacity:.1;fill:url(#linearGradient3613);filter:url(#filter3794);stroke:#fff;stroke-linecap:round;stroke-width:.5;clip-path:url(#clipPath3613)" id="rect3171"/>
</g>
<g id="layer4">
<g style="fill-rule:evenodd;stroke:none">
<path style="fill:url(#linearGradient2983)" id="path3603" d="m 71.9643,20 c -4.31369,1.76554 -18.1465,7.51477 -18.4914,7.65825 -3.87007,-3.15018 -8.90363,-5.59776 -14.1171,-5.87462 -12.6463,-0.79267 -24.2781,10.4012 -24.3143,22.819 -0.555181,11.1798 4.56413,21.5196 9.18889,31.3974 3.86909,-1.60891 17.9378,-7.45367 18.2926,-7.60161 3.79831,3.16375 8.66288,5.49509 13.7336,5.86047 12.4437,1.04072 24.0088,-9.67403 24.641,-21.7998 0.903254,-11.3427 -4.34286,-21.8355 -8.74861,-31.9778 -0.06416,-0.15823 -0.120626,-0.323054 -0.18463,-0.4813 z "/>
<path style="fill:#eeeeec" id="path3607" d="m 27.1151,68.7549 c -2.72903,-6.58451 -6.34703,-12.3873 -6.42746,-23.1409 -0.08308,-11.1103 9.47879,-18.3034 17.036,-18.3042 9.1497,-0.0011 17.2,7.7003 17.6244,14.0793 0.383092,5.75679 -1.67219,14.1292 -12.2807,14.0669 -5.06536,-0.0293 -10.3287,-4.4214 -10.3565,-10.9559 -0.03,-7.05132 8.83244,-7.73922 11.0673,-5.94409 0.868115,0.6973 0.841574,2.07716 0.07355,1.82805 -4.77179,-1.54858 -7.71974,1.50345 -7.50082,4.53985 0.297193,4.11991 2.74949,6.57106 7.1454,6.77955 6.34113,0.300221 8.11634,-5.84659 7.95422,-8.34136 -0.197,-3.03321 -2.85035,-9.27176 -11.104,-10.4115 -3.8972,-0.537566 -7.12708,0.625897 -9.48636,2.90577 -2.35923,2.28008 -3.68561,4.6378 -3.8794,8.50537 -0.200416,4.00037 0.675838,6.3476 3.0763,11.5961 0.857436,1.87446 3.25247,5.65628 5.10723,9.44324 l -8.0492,3.3537 z "/>
<path style="opacity:.05" id="path3880" d="m 68.5625,26.5625 c -2.87878,1.15852 -5.78538,2.35172 -8.625,3.59375 -1.06763,0.625532 -1.01696,2.09691 -0.291805,2.98225 2.62179,5.198 6.09208,10.0871 7.42711,15.8383 0.594136,3.59176 0.264234,7.77503 -2.55367,10.4089 -2.23686,2.66448 -5.9613,3.63881 -9.29531,2.88062 -4.41617,-0.612318 -8.4444,-4.15712 -8.91132,-8.70374 -0.0064,-2.953 1.93146,-6.37747 5.20054,-6.43139 2.45711,-0.232807 5.40713,0.791221 6.0887,3.42359 0.872711,1.95945 -0.03769,4.65203 -2.42571,4.80346 -1.73,0.267013 -4.18306,-1.44771 -5.13599,0.863861 -0.882603,2.29477 1.32422,4.44761 3.50587,4.68725 4.4004,0.865834 9.71483,-1.22758 11.1083,-5.77328 1.70431,-6.28403 -2.63884,-13.3222 -8.90168,-14.9072 -5.39048,-1.27865 -11.8375,0.650409 -14.7238,5.6099 -2.1389,3.72035 -2.73008,8.34497 -1.65524,12.4913 2.06051,6.17413 7.73053,10.6975 13.8594,12.4738 5.7603,1.77761 12.1755,0.0458 16.6698,-3.85028 4.90615,-4.03165 7.59941,-10.4774 7.13328,-16.7997 -0.118387,-6.71256 -2.2304,-13.1941 -5.08722,-19.2103 -0.707837,-1.23961 -0.952294,-2.77115 -1.85495,-3.88113 -0.401636,-0.408936 -0.968701,-0.554257 -1.53125,-0.5 z "/>
<path style="opacity:.1" id="path3875" d="m 68.7812,27.4375 a 0.868396,0.868396 0 0,0 -0.25,0.0625 l -8.0312,3.3438 a 0.868396,0.868396 0 0,0 -0.4375,1.1875 c 1.88361,3.8464 4.30592,7.7146 5.09375,9.4375 2.39315,5.23251 3.1931,7.36416 3,11.2188 -0.184538,3.6827 -1.36103,5.71808 -3.625,7.90625 -2.18223,2.10882 -5.08492,3.16202 -8.75,2.65625 -3.92572,-0.541678 -6.44041,-2.25315 -8.03125,-4.1875 -1.59084,-1.93435 -2.22777,-4.13293 -2.3125,-5.4375 -0.06489,-0.998557 0.292176,-3.04465 1.375,-4.65625 1.08282,-1.6116 2.76781,-2.8555 5.65625,-2.71875 2.04466,0.09697 3.50609,0.703399 4.53125,1.6875 1.02516,0.984101 1.64416,2.38068 1.78125,4.28125 0.08787,1.21857 -0.435301,2.44675 -1.5,3.21875 -1.0647,0.771998 -2.66666,1.14412 -4.84375,0.4375 -0.415258,-0.134567 -1.0232,-0.05832 -1.34375,0.28125 -0.320545,0.339572 -0.377725,0.746825 -0.375,1.09375 0.0055,0.69385 0.314411,1.4119 0.96875,1.9375 0.797959,0.641016 1.8978,0.913792 3.15625,1 1.25845,0.08621 2.66705,-0.04669 4.03125,-0.5 2.72841,-0.906617 5.2978,-3.23575 5.28125,-7.125 -0.02971,-6.99776 -5.65345,-11.8116 -11.2188,-11.8438 -5.53375,-0.03268 -9.06326,2.24278 -11,5.28125 -1.93674,3.03847 -2.35648,6.74072 -2.15625,9.75 0.234849,3.52905 2.49634,7.1959 5.84375,10.0312 3.34741,2.83535 7.83823,4.84454 12.6562,4.84375 8.10883,-0.000443 17.9931,-7.57652 17.9062,-19.1875 -0.08188,-10.9468 -3.80627,-16.969 -6.5,-23.4688 a 0.868396,0.868396 0 0,0 -0.90625,-0.53125 z "/>
<path style="opacity:.2" id="path3871" d="m 68.8849,28.3098 c 2.72906,6.58496 6.34703,12.3875 6.42747,23.1413 0.08308,11.1103 -9.47882,18.3034 -17.036,18.3038 -9.14972,0.0015 -17.2,-7.70008 -17.6244,-14.0785 -0.383076,-5.75742 1.67218,-14.13 12.2807,-14.0674 5.06536,0.02929 10.3287,4.42141 10.3565,10.9557 0.03,7.0511 -8.83246,7.73942 -11.0673,5.94409 -0.868099,-0.6973 -0.841604,-2.07695 -0.07355,-1.82805 4.77177,1.54878 7.7197,-1.50366 7.50077,-4.53986 -0.297177,-4.11989 -2.74946,-6.57062 -7.14537,-6.7791 -6.34111,-0.300219 -8.11634,5.8468 -7.95424,8.34115 0.197001,3.03319 2.85033,9.27217 11.1041,10.411 3.89718,0.537795 7.12707,-0.625667 9.48631,-2.90555 2.35928,-2.28029 3.68567,-4.63801 3.87944,-8.50494 0.200415,-4.00058 -0.675869,-6.34759 -3.07633,-11.5961 -0.857419,-1.87508 -3.25248,-5.65606 -5.1072,-9.44345 l 8.0492,-3.3542 z "/>
<path style="fill:#a9c4e3" id="path3611" d="m 68.8849,27.3098 c 2.72906,6.58496 6.34703,12.3875 6.42747,23.1413 0.08308,11.1103 -9.47882,18.3034 -17.036,18.3038 -9.14972,0.0015 -17.2,-7.70008 -17.6244,-14.0785 -0.383076,-5.75742 1.67218,-14.13 12.2807,-14.0674 5.06536,0.02929 10.3287,4.42141 10.3565,10.9557 0.03,7.0511 -8.83246,7.73942 -11.0673,5.94409 -0.868099,-0.6973 -0.841604,-2.07695 -0.07355,-1.82805 4.77177,1.54878 7.7197,-1.50366 7.50077,-4.53986 -0.297177,-4.11989 -2.74946,-6.57062 -7.14537,-6.7791 -6.34111,-0.300219 -8.11634,5.8468 -7.95424,8.34115 0.197001,3.03319 2.85033,9.27217 11.1041,10.411 3.89718,0.537795 7.12707,-0.625667 9.48631,-2.90555 2.35928,-2.28029 3.68567,-4.63801 3.87944,-8.50494 0.200415,-4.00058 -0.675869,-6.34759 -3.07633,-11.5961 -0.857419,-1.87508 -3.25248,-5.65606 -5.1072,-9.44345 l 8.0492,-3.3542 z "/>
<path style="fill:#eeeeec" id="path3613" d="m 37.7107,27.2864 c -7.55725,0.000858 -17.1037,7.19631 -17.0206,18.3066 0.08047,10.7536 3.71378,16.5623 6.44281,23.1468 l 8.0295,-3.3546 c -0.716934,-1.46381 -1.50141,-2.86481 -2.25979,-4.21722 h -1.77898 v -3.21084 c -0.437034,-0.78468 -0.817094,-1.4866 -1.05777,-2.01277 -2.40047,-5.24849 -3.27758,-7.597 -3.07716,-11.5974 0.193785,-3.86758 1.5353,-6.20229 3.89454,-8.48237 2.35928,-2.27988 5.5747,-3.46087 9.47189,-2.9233 3.90315,0.538977 6.53907,2.22801 8.26988,4.1693 h 1.63474 v 2.39615 c 0.744166,1.43195 1.13564,2.81197 1.20202,3.83384 0.07201,1.10838 -0.278729,2.93615 -1.20202,4.60061 v 5.70284 c 4.3853,-2.76705 5.36881,-8.1772 5.09655,-12.2683 -0.424479,-6.37903 -8.49591,-14.0904 -17.6456,-14.0894 z "/>
<path style="opacity:.4;fill:#fff" id="path3838" d="m 15,46.9375 c -0.105417,10.6672 4.77952,20.581 9.21875,30.0625 3.86909,-1.60891 17.9578,-7.44581 18.3125,-7.59375 3.79831,3.16375 8.648,5.47837 13.7188,5.84375 12.4437,1.04072 24.0241,-9.65549 24.6562,-21.7812 0.07667,-0.962805 0.101418,-1.92414 0.09375,-2.875 -0.01358,0.620591 -0.04393,1.24932 -0.09375,1.875 -0.632173,12.1258 -12.2125,22.822 -24.6562,21.7812 -5.07075,-0.365379 -9.92044,-2.68 -13.7188,-5.84375 -0.354719,0.147941 -14.4434,5.98484 -18.3125,7.59375 -4.30075,-9.1857 -9.02379,-18.7737 -9.21875,-29.0625 z "/>
<path style="opacity:.1" id="path3855" d="m 71.9688,20 c -4.31369,1.76554 -18.1551,7.51277 -18.5,7.65625 -3.87007,-3.15018 -8.91155,-5.59814 -14.125,-5.875 -12.6463,-0.79267 -24.2763,10.3946 -24.3125,22.8125 -0.555181,11.1798 4.56274,21.5285 9.1875,31.4062 3.86909,-1.60891 17.9578,-7.44581 18.3125,-7.59375 3.79831,3.16375 8.648,5.47837 13.7188,5.84375 12.4437,1.04072 24.0241,-9.65549 24.6562,-21.7812 0.903254,-11.3427 -4.34426,-21.8577 -8.75,-32 -0.06416,-0.15823 -0.123496,-0.310504 -0.1875,-0.46875 z  m -.875,2.1562 c 4.31464,9.86118 9.0157,19.7873 8.1875,30.1875 a 1.64252,1.64252 0 0,0 0,0.03125 c -0.580494,11.1345 -11.4782,21.2058 -22.9062,20.25 -4.6497,-0.33504 -9.20849,-2.49288 -12.7812,-5.46875 a 1.64252,1.64252 0 0,0 -1.6875,-0.28125 c -0.239281,0.0998 -11.9067,4.94989 -16.8438,7 -4.42698,-9.44405 -8.90882,-19.0672 -8.40625,-29.1875 a 1.64252,1.64252 0 0,0 0.03125,-0.09375 c 0.03325,-11.3953 10.9418,-21.9159 22.5625,-21.1875 4.7575,0.25265 9.53594,2.55894 13.1875,5.53125 a 1.64252,1.64252 0 0,0 1.65625,0.25 c 0.291615,-0.121316 11.7629,-4.87646 17,-7.03125 z "/>
<path style="opacity:.15" id="path3847" d="m 71.9688,20 c -4.31369,1.76554 -18.1551,7.51277 -18.5,7.65625 -3.87007,-3.15018 -8.91155,-5.59814 -14.125,-5.875 -12.6463,-0.79267 -24.2763,10.3946 -24.3125,22.8125 -0.555181,11.1798 4.56274,21.5285 9.1875,31.4062 3.86909,-1.60891 17.9578,-7.44581 18.3125,-7.59375 3.79831,3.16375 8.648,5.47837 13.7188,5.84375 12.4437,1.04072 24.0241,-9.65549 24.6562,-21.7812 0.903254,-11.3427 -4.34426,-21.8577 -8.75,-32 -0.06416,-0.15823 -0.123496,-0.310504 -0.1875,-0.46875 z  m -.375,.9688 c 4.39543,10.0985 9.47017,20.4318 8.59375,31.4375 a 0.729354,0.729354 0 0,0 0,0.03125 c -0.609225,11.6856 -11.8823,22.0967 -23.875,21.0938 -4.88379,-0.351907 -9.61434,-2.60718 -13.3125,-5.6875 a 0.729354,0.729354 0 0,0 -0.75,-0.125 c -0.301426,0.125715 -13.2424,5.4785 -17.6562,7.3125 -4.54335,-9.68812 -9.37503,-19.7078 -8.84375,-30.4062 a 0.729354,0.729354 0 0,0 0,-0.03125 c 0.034909,-11.9638 11.3716,-22.8579 23.5625,-22.0938 5.01099,0.266112 9.91446,2.64756 13.6875,5.71875 a 0.729354,0.729354 0 0,0 0.75,0.125 c 0.320809,-0.133461 13.0624,-5.4126 17.8438,-7.375 z "/>
<path style="opacity:.2" id="path3862" d="m 71.9688,20 c -4.31369,1.76554 -18.1551,7.51277 -18.5,7.65625 -3.87007,-3.15018 -8.91155,-5.59814 -14.125,-5.875 -12.6463,-0.79267 -24.2763,10.3946 -24.3125,22.8125 -0.01657,0.33365 0.0066,0.667836 0,1 0.03623,-12.4179 11.6662,-23.6052 24.3125,-22.8125 5.21345,0.276864 10.2549,2.72482 14.125,5.875 0.344889,-0.143479 14.1863,-5.89071 18.5,-7.65625 0.064,0.158246 0.12334,0.31052 0.1875,0.46875 3.85503,8.87447 8.35323,18.0355 8.8125,27.7812 -0.184366,-10.1211 -4.82599,-19.6041 -8.8125,-28.7812 -0.06416,-0.15823 -0.123496,-0.310504 -0.1875,-0.46875 z "/>
<g style="clip-path:url(#clipPath3939)" id="g3896">
<path style="opacity:.05" id="path3894" d="m 37.7188,26.3438 c -8.80597,0.001 -19.0916,8.03092 -19,20.2812 0.08374,11.1977 3.91482,17.518 6.5625,23.9062 -0.0012,-0.0027 0.09517,0.190084 0.09375,0.1875 -0.0014,-0.0026 0.09541,0.158683 0.09375,0.15625 -0.0017,-0.0024 0.126895,0.158508 0.125,0.15625 -0.0019,-0.0023 0.127108,0.15831 0.125,0.15625 -0.0021,-0.0021 0.15855,0.126843 0.15625,0.125 -0.0023,-0.0018 0.15872,0.09536 0.15625,0.09375 -0.0025,-0.0016 0.190116,0.126358 0.1875,0.125 -0.0026,-0.0014 0.158987,0.0636 0.15625,0.0625 -0.0027,-0.0011 0.190331,0.06332 0.1875,0.0625 -0.0028,-0.000821 0.190398,0.06304 0.1875,0.0625 -0.0029,-0.000539 0.221687,0.0315 0.21875,0.03125 -0.0029,-0.000251 0.190448,-3.8e-05 0.1875,0 -0.0029,3.8e-05 0.190429,-0.03158 0.1875,-0.03125 -0.0029,0.000328 0.190383,-0.03186 0.1875,-0.03125 -0.0029,0.000614 0.190309,-0.03214 0.1875,-0.03125 -0.0028,0.000894 0.190208,-0.06367 0.1875,-0.0625 l 8.0312,-3.3438 a 1.0405,1.0405 0 0,0 0.03125,-0.03125 c -0.0027,0.0012 0.158853,-0.06399 0.15625,-0.0625 -0.0026,0.0015 0.189941,-0.126741 0.1875,-0.125 -0.0024,0.0017 0.158505,-0.126977 0.15625,-0.125 -0.0023,0.002 0.127046,-0.127192 0.125,-0.125 -0.002,0.0022 0.126817,-0.158635 0.125,-0.15625 -0.0018,0.0024 0.126569,-0.158805 0.125,-0.15625 -0.0016,0.0026 0.09506,-0.190199 0.09375,-0.1875 -0.0013,0.0027 0.06353,-0.190316 0.0625,-0.1875 -0.001,0.0028 0.06324,-0.190405 0.0625,-0.1875 -0.000744,0.0029 0.06295,-0.190464 0.0625,-0.1875 -0.00045,0.003 0.000152,-0.221745 0,-0.21875 -0.000152,0.003 -0.000148,-0.190495 0,-0.1875 0.000148,0.003 -0.000447,-0.190465 0,-0.1875 0.000447,0.003 -0.06324,-0.221655 -0.0625,-0.21875 0.000741,0.0029 -0.06353,-0.190317 -0.0625,-0.1875 0.001,0.0028 -0.0638,-0.15895 -0.0625,-0.15625 a 1.0405,1.0405 0 0,0 0,-0.03125 c -1.918,-3.91608 -4.36787,-7.8877 -5.0625,-9.40625 -2.38812,-5.22151 -3.12151,-6.95212 -2.9375,-10.625 0.173438,-3.46151 1.16538,-5.14367 3.3125,-7.21875 1.96117,-1.89516 4.4401,-2.84018 7.8125,-2.375 3.66763,0.50645 5.87893,2.06947 7.3125,3.8125 1.4235,1.73078 2.02807,3.76994 2.09375,4.78125 0.04039,0.621572 -0.314309,2.61685 -1.21875,3.96875 -0.934297,1.39653 -2.1178,2.40143 -4.65625,2.28125 -1.84157,-0.08734 -3.03669,-0.631516 -3.84375,-1.40625 -0.805974,-0.773693 -1.31484,-1.83083 -1.4375,-3.53125 -0.05957,-0.826182 0.332813,-1.69373 1.09375,-2.25 0.769488,-0.562519 1.93404,-0.901005 3.84375,-0.28125 0.883934,0.286702 1.77108,0.114016 2.46875,-0.625 0.55885,-0.591966 0.691393,-1.34717 0.6875,-1.84375 -0.008,-1.02295 -0.466417,-2.08269 -1.375,-2.8125 -1.06957,-0.859109 -2.43048,-1.15532 -3.8125,-1.25 -1.40941,-0.09656 -2.92847,0.0611 -4.4375,0.5625 -3.07267,1.02095 -6.04989,3.80626 -6.03125,8.1875 0.03224,7.59515 6.10689,12.9016 12.3125,12.9375 5.83942,0.03425 9.80342,-2.40192 11.9375,-5.75 2.1212,-3.32789 2.5235,-7.26675 2.3125,-10.4375 -0.263154,-3.95464 -2.69716,-7.82976 -6.21875,-10.8125 -3.52568,-2.9862 -8.24769,-5.09437 -13.375,-5.09375 z "/>
<path style="opacity:.1" id="path3890" d="m 37.7188,27.375 c -8.16092,0.000928 -18.0559,7.59168 -17.9688,19.25 0.082,10.9648 3.80963,17.0088 6.5,23.5 a 0.950495,0.950495 0 0,0 1.25,0.5 l 8.0312,-3.3438 a 0.950495,0.950495 0 0,0 0.46875,-1.28125 c -1.88634,-3.85144 -4.28114,-7.72935 -5.0625,-9.4375 -2.39304,-5.23226 -3.22367,-7.28419 -3.03125,-11.125 0.183695,-3.66621 1.37318,-5.72998 3.625,-7.90625 2.16552,-2.09264 5.04429,-3.15878 8.6875,-2.65625 3.90673,0.539466 6.38984,2.26776 7.96875,4.1875 1.57891,1.91974 2.22907,4.09048 2.3125,5.375 0.06336,0.975065 -0.303611,3.02356 -1.375,4.625 -1.07139,1.60144 -2.73351,2.85417 -5.59375,2.71875 -2.03017,-0.09628 -3.4916,-0.719488 -4.5,-1.6875 -1.0084,-0.968012 -1.61399,-2.33323 -1.75,-4.21875 -0.08581,-1.19015 0.456822,-2.39366 1.5,-3.15625 1.04318,-0.762595 2.62566,-1.13705 4.78125,-0.4375 0.436346,0.141528 1.06461,0.01814 1.40625,-0.34375 0.341644,-0.361889 0.40908,-0.764044 0.40625,-1.125 -0.0057,-0.721912 -0.324783,-1.45764 -1,-2 -0.820571,-0.659108 -1.94951,-0.944294 -3.21875,-1.03125 -1.26924,-0.08696 -2.68703,0.07422 -4.0625,0.53125 -2.75095,0.91405 -5.32919,3.26377 -5.3125,7.1875 0.02989,7.04178 5.66872,11.8738 11.2812,11.9062 5.55543,0.03259 9.11209,-2.22132 11.0625,-5.28125 1.95041,-3.05993 2.35731,-6.79117 2.15625,-9.8125 -0.236991,-3.56147 -2.51454,-7.24748 -5.875,-10.0938 -3.36046,-2.84626 -7.84654,-4.84433 -12.6875,-4.84375 z "/>
<path style="opacity:.2" id="path3886" d="m 27.1151,69.7549 c -2.72903,-6.58451 -6.34703,-12.3873 -6.42746,-23.1409 -0.08308,-11.1103 9.47879,-18.3034 17.036,-18.3042 9.1497,-0.0011 17.2,7.7003 17.6244,14.0793 0.383092,5.75679 -1.67219,14.1292 -12.2807,14.0669 -5.06536,-0.0293 -10.3287,-4.4214 -10.3565,-10.9559 -0.03,-7.05132 8.83244,-7.73922 11.0673,-5.94409 0.868115,0.6973 0.841574,2.07716 0.07355,1.82805 -4.77179,-1.54858 -7.71974,1.50345 -7.50082,4.53985 0.297193,4.11991 2.74949,6.57106 7.1454,6.77955 6.34113,0.300221 8.11634,-5.84659 7.95422,-8.34136 -0.197,-3.03321 -2.85035,-9.27176 -11.104,-10.4115 -3.8972,-0.537566 -7.12708,0.625897 -9.48636,2.90577 -2.35923,2.28008 -3.68561,4.6378 -3.8794,8.50537 -0.200416,4.00037 0.675838,6.3476 3.0763,11.5961 0.857436,1.87446 3.25247,5.65628 5.10723,9.44324 l -8.0492,3.3537 z "/>
</g>
</g>
</g>
</svg>
