<svg xmlns="http://www.w3.org/2000/svg" viewBox="0 0 96 96" xmlns:xlink="http://www.w3.org/1999/xlink">
<defs>
<clipPath id="clipPath3613-6">
<path style="fill:#fff" d="m12,6h72a6,6 0 0,1 6,6v72a6,6 0 0,1 -6,6h-72a6,6 0 0,1 -6-6v-72a6,6 0 0,1 6-6"/>
</clipPath>
<filter width="1.384" x="-.192" y="-.192" height="1.384" style="color-interpolation-filters:sRGB" id="filter3794-6">
<feGaussianBlur stdDeviation="5.28"/>
</filter>
<linearGradient gradientTransform="translate(-.00031 -0)" xlink:href="#linearGradient9829" id="linearGradient3087" y1="102.102" x1="48.246" y2="-21.966" gradientUnits="userSpaceOnUse" x2="17"/>
<linearGradient id="linearGradient3737-0">
<stop offset="0" style="stop-color:#fff"/>
<stop offset="1" style="stop-color:#fff;stop-opacity:0"/>
</linearGradient>
<linearGradient id="linearGradient3103" xlink:href="#linearGradient3737-0" y1="20.221" y2="138.661" x2="0" gradientUnits="userSpaceOnUse"/>
<linearGradient id="linearGradient3697">
<stop offset="0" style="stop-color:#fff"/>
<stop offset="1" style="stop-color:#fff;stop-opacity:0"/>
</linearGradient>
<linearGradient id="linearGradient9829">
<stop offset="0" style="stop-color:#263e25"/>
<stop offset="1" style="stop-color:#09ad08"/>
</linearGradient>
<linearGradient gradientTransform="matrix(-1.06864 0 0 1.29376 99.56934 -4.90695)" xlink:href="#linearGradient3697" id="linearGradient3080" y1="11.109" x1="129.168" y2="66.668" gradientUnits="userSpaceOnUse" x2="6.905"/>
<linearGradient id="linearGradient9811">
<stop offset="0" style="stop-color:#00aa08"/>
<stop offset="1"/>
</linearGradient>
<radialGradient cx="17.085" cy="19.525" gradientTransform="matrix(1.55562 1.96572 -5.15083 4.07624 91.07906 -93.64874)" xlink:href="#linearGradient9811" id="radialGradient3085" r="45" gradientUnits="userSpaceOnUse"/>
</defs>
<path style="opacity:.763;fill:#090909" d="m12.8133-90.1864h72a6,6 0 0,1 6,6v72a6,6 0 0,1 -6,6h-72a6,6 0 0,1 -6-6v-72a6,6 0 0,1 6-6" transform="scale(1 -1)"/>
<path style="fill:url(#radialGradient3085);stroke:url(#linearGradient3087);stroke-width:6" d="m12.4065,6h72a6,6 0 0,1 6,6v72a6,6 0 0,1 -6,6h-72a6,6 0 0,1 -6-6v-72a6,6 0 0,1 6-6"/>
<g style="stroke:#fff">
<path style="opacity:.1;fill:url(#linearGradient3103);filter:url(#filter3794-6);stroke-linecap:round;stroke-width:.5;clip-path:url(#clipPath3613-6)" d="m27,15h42a12,12 0 0,1 12,12v42a12,12 0 0,1 -12,12h-42a12,12 0 0,1 -12-12v-42a12,12 0 0,1 12-12" transform="translate(.65287 .16553)"/>
<path style="fill:none;color:#000;stroke-width:.874" d="m13.2171,8.8304h71.0312a3.8372,2.8286 0 0,1 3.8373,2.8286v72.9719a3.8372,2.8286 0 0,1 -3.8373,2.8285h-71.0312a3.8372,2.8286 0 0,1 -3.8372-2.8285v-72.9719a3.8372,2.8286 0 0,1 3.8372-2.8286"/>
</g>
<path style="opacity:.4;fill:url(#linearGradient3080)" d="m85.1285,2.9962c3.5521-.0034 8.255,3.8137 8.2399,8.1141l-.2109,60.1527c-18.8172-14.9067-47.2645-24.4197-79.0791-24.4197-3.6099,0-7.1727,.1254-10.6864,.3639v-35.9562c0-4.3004 4.5472-8.181 8.0993-8.1844z"/>
<g style="fill:#fff" transform="matrix(.80322 0 0 .77247 -10.07656 -168.67076)">
<path d="m36.5497,263.1049c-.8924,.0793-1.5766,.6388-1.6786,1.7522l-.0186,30.4671c.1601,.9213 .9408,1.6104 1.6025,1.6427l15.5666-.0297 15.5052,16.622c.1606,.1469 .629,.5203 1.139,.3763 .2812-.024 .7156-.3901 .7195-.7294l.3024-66.3284c-.0106-.3828-.4504-.8857-.9141-.8983-.5638-.1128-.9954,.3996-1.0959,.477l-15.7769,16.7945z"/>
<path d="m96.5874,244.0266a1.0285,1.1361 0 0,0 -.6043,.3534l-7.2515,8.0101a1.0285,1.1361 0 0,0 -.0355,1.5706c5.7629,6.7893 9.3487,15.8136 9.3487,25.8365 0,10.1039-3.6456,19.2266-9.4909,26.0328a1.0285,1.1361 0 0,0 .0355,1.5706l7.1804,7.9316a1.0285,1.1361 0 0,0 1.4574,0c8.025-9.2316 12.9745-21.7348 12.9745-35.535 0-13.7025-4.8348-26.1945-12.7612-35.4172a1.0285,1.1361 0 0,0 -.8531-.3534z"/>
<path d="m84.0253,257.3876a1.0096,1.1361 0 0,0 -.5583,.3534l-7.188,8.0886a1.0096,1.1361 0 0,0 -.1046,1.4921c2.5181,3.5891 4.0825,8.0166 4.0825,12.9182 0,4.987-1.572,9.5107-4.1523,13.1146a1.0096,1.1361 0 0,0 .0698,1.4921l7.1182,8.0494a1.0096,1.1361 0 0,0 1.5004-.0392c4.6343-6.0734 7.4323-14.0003 7.4323-22.6168 0-8.534-2.74-16.4094-7.2927-22.4597a1.0096,1.1361 0 0,0 -.9072-.3927z"/>
</g>
</svg>
