<svg xmlns="http://www.w3.org/2000/svg" viewBox="0 0 96 96" xmlns:xlink="http://www.w3.org/1999/xlink">
<defs>
<clipPath id="clipPath3613">
<path style="fill:#fff" d="m12,6h72a6,6 0 0,1 6,6v72a6,6 0 0,1 -6,6h-72a6,6 0 0,1 -6-6v-72a6,6 0 0,1 6-6"/>
</clipPath>
<clipPath id="clipPath3805">
<path style="fill:#fff" d="m13.8287,28.3198h68.3071a6,4.4196 0 0,1 6,4.4196v32.8295a6,4.4196 0 0,1 -6,4.4197h-68.3071a6,4.4196 0 0,1 -6-4.4197v-32.8295a6,4.4196 0 0,1 6-4.4196"/>
</clipPath>
<filter style="color-interpolation-filters:sRGB" id="filter3795">
<feGaussianBlur stdDeviation="1.215"/>
</filter>
<filter width="1.384" x="-.192" y="-.192" height="1.384" style="color-interpolation-filters:sRGB" id="filter3794">
<feGaussianBlur stdDeviation="5.28"/>
</filter>
<linearGradient gradientTransform="translate(0 -97)" id="linearGradient3721" xlink:href="#ButtonShadow-0" y1="6.132" y2="90.239" x2="0" gradientUnits="userSpaceOnUse"/>
<linearGradient id="linearGradient3737">
<stop offset="0" style="stop-color:#fff"/>
<stop offset="1" style="stop-color:#fff;stop-opacity:0"/>
</linearGradient>
<linearGradient id="linearGradient3617" xlink:href="#linearGradient3700" y1="90" y2="5.988" x2="0" gradientUnits="userSpaceOnUse"/>
<linearGradient id="linearGradient3756">
<stop offset="0" style="stop-color:#dbff9a"/>
<stop offset=".176" style="stop-color:#dfffa7"/>
<stop offset=".293" style="stop-color:#c1ff53"/>
<stop offset=".493" style="stop-color:#82c50c"/>
<stop offset=".755" style="stop-color:#609501"/>
<stop offset="1" style="stop-color:#7cbf06"/>
</linearGradient>
<linearGradient id="linearGradient3613" xlink:href="#linearGradient3737" y1="20.221" y2="138.661" x2="0" gradientUnits="userSpaceOnUse"/>
<linearGradient id="linearGradient3700">
<stop offset="0" style="stop-color:#222"/>
<stop offset="1" style="stop-color:#333"/>
</linearGradient>
<linearGradient id="linearGradient3762" xlink:href="#linearGradient3756" y1="6" y2="90.001" x2="0" gradientUnits="userSpaceOnUse"/>
<linearGradient id="linearGradient3868" xlink:href="#linearGradient3737" y1="6" y2="63.893" x2="0" gradientUnits="userSpaceOnUse"/>
<linearGradient gradientTransform="matrix(1.00587 0 0 .99417 100 0)" id="ButtonShadow-0" y1="92.54" y2="7.017" x2="0" gradientUnits="userSpaceOnUse">
<stop offset="0"/>
<stop offset="1" style="stop-opacity:.588"/>
</linearGradient>
<linearGradient gradientTransform="matrix(1.02381 0 0 1.0119 -1.14286 -98.07143)" id="linearGradient3780" xlink:href="#ButtonShadow-0" y1="6.132" y2="90.239" x2="0" gradientUnits="userSpaceOnUse"/>
<linearGradient gradientTransform="matrix(.66667 0 0 1 -13.66667 0)" id="linearGradient3825" xlink:href="#linearGradient3819" x1="-41" x2="-35" gradientUnits="userSpaceOnUse"/>
<linearGradient id="linearGradient3819">
<stop offset="0"/>
<stop offset="1" style="stop-opacity:0"/>
</linearGradient>
<linearGradient gradientTransform="matrix(.5 0 0 1 61.5 0)" id="linearGradient3829" xlink:href="#linearGradient3737" x1="-41" x2="-35" gradientUnits="userSpaceOnUse"/>
<radialGradient cx="48" cy="90.172" gradientTransform="matrix(1.15731 0 0 .99591 -7.55102 .19713)" r="42" id="radialGradient3619" xlink:href="#linearGradient3737" gradientUnits="userSpaceOnUse"/>
</defs>
<path style="opacity:.08;fill:url(#linearGradient3780)" d="m12-95.0312c-5.5111,0-10.0312,4.5202-10.0312,10.0312v71c0,5.5111 4.5202,10.0312 10.0312,10.0312h72c5.5111,0 10.0312-4.5202 10.0312-10.0312v-71c0-5.5111-4.5202-10.0312-10.0312-10.0312h-72z" transform="scale(1 -1)"/>
<path style="opacity:.1;fill:url(#linearGradient3780)" d="m12-94.0312c-4.9716,0-9.0312,4.0596-9.0312,9.0312v71c0,4.9716 4.0596,9.0312 9.0312,9.0312h72c4.9716,0 9.0312-4.0596 9.0312-9.0312v-71c0-4.9716-4.0596-9.0312-9.0312-9.0312h-72z" transform="scale(1 -1)"/>
<path style="opacity:.2;fill:url(#linearGradient3780)" d="m12-93c-4.4091,0-8,3.5909-8,8v71c0,4.4091 3.5909,8 8,8h72c4.4091,0 8-3.5909 8-8v-71c0-4.4091-3.5909-8-8-8h-72z" transform="scale(1 -1)"/>
<path style="opacity:.3;fill:url(#linearGradient3780)" d="m12-92h72a7,7 0 0,1 7,7v71a7,7 0 0,1 -7,7h-72a7,7 0 0,1 -7-7v-71a7,7 0 0,1 7-7" transform="scale(1 -1)"/>
<path style="opacity:.45;fill:url(#linearGradient3721)" d="m12-91h72a6,6 0 0,1 6,6v72a6,6 0 0,1 -6,6h-72a6,6 0 0,1 -6-6v-72a6,6 0 0,1 6-6" transform="scale(1 -1)"/>
<path style="fill:url(#linearGradient3617)" d="m12,6h72a6,6 0 0,1 6,6v72a6,6 0 0,1 -6,6h-72a6,6 0 0,1 -6-6v-72a6,6 0 0,1 6-6"/>
<path style="filter:url(#filter3795);clip-path:url(#clipPath3805)" d="m41.0938,7 0,23.1562c.4579-.0354 .9146-.0781 1.375-.0938 17.7317-.5976 29.2812,14.5625 29.2812,14.5625 0,0-13.2693,16.125-27.0938,16.125-1.267,0-2.4484-.1154-3.5625-.3125v4.3125c.9527,.121 1.938,.1875 2.9688,.1875 12.8646,0 22.1791-6.5678 31.1875-14.3438 1.4936,1.1962 7.618,4.1008 8.875,5.375-8.5653,7.1711-28.5266,12.9688-39.8438,12.9688-1.0909,0-2.1577-.0882-3.1875-.1875v22.25h42.9062c3.324,0 6-2.676 6-6v-72c0-3.324-2.676-6-6-6h-42.9062zm0,61.75 0-4c-15.7436-1.9809-21.125-19.3438-21.125-19.3438 0,0 7.0439-10.3926 21.125-11.4688v-3.7812c-15.5966,1.2526-29.0938,14.4688-29.0938,14.4688 0,0 7.6407,22.1002 29.0938,24.125zm0-34.8125 0,4.6562c.8339-.0893 1.7053-.1562 2.5938-.1562 8.1676,0 13,6.3438 13,6.3438l-6.625,5.625c-2.9843-4.9749-4.0048-7.1814-8.9688-7.7812v14.125c1.125,.3783 2.387,.625 3.7812,.625 9.6878,0 18.7188-12.5625 18.7188-12.5625 0,0-8.3742-11.338-21.125-10.9375-.4663,.0147-.9218,.0309-1.375,.0625zm0,22.8125c-6.7082-2.2538-8.875-10.0625-8.875-10.0625 0,0 3.8951-4.6601 8.875-4.0625v-4.0312c-9.4882,1.026-15.1875,7.3438-15.1875,7.3438 0,0 3.2891,12.3787 15.1875,14.5v-3.6875z"/>
<path style="fill:url(#linearGradient3762)" d="m41.0938,6 0,23.1562c.4579-.0354 .9146-.0781 1.375-.0938 17.7317-.5976 29.2812,14.5625 29.2812,14.5625 0,0-13.2693,16.125-27.0938,16.125-1.267,0-2.4484-.1154-3.5625-.3125v4.3125c.9527,.121 1.938,.1875 2.9688,.1875 12.8646,0 22.1791-6.5678 31.1875-14.3438 1.4936,1.1962 7.618,4.1008 8.875,5.375-8.5653,7.1711-28.5266,12.9688-39.8438,12.9688-1.0909,0-2.1577-.0882-3.1875-.1875v22.25h42.9062c3.324,0 6-2.676 6-6v-72c0-3.324-2.676-6-6-6h-42.9062zm0,61.75 0-4c-15.7436-1.9809-21.125-19.3438-21.125-19.3438 0,0 7.0439-10.3926 21.125-11.4688v-3.7812c-15.5966,1.2526-29.0938,14.4688-29.0938,14.4688 0,0 7.6407,22.1002 29.0938,24.125zm0-34.8125 0,4.6562c.8339-.0893 1.7053-.1562 2.5938-.1562 8.1676,0 13,6.3438 13,6.3438l-6.625,5.625c-2.9843-4.9749-4.0048-7.1814-8.9688-7.7812v14.125c1.125,.3783 2.387,.625 3.7812,.625 9.6878,0 18.7188-12.5625 18.7188-12.5625 0,0-8.3742-11.338-21.125-10.9375-.4663,.0147-.9218,.0309-1.375,.0625zm0,22.8125c-6.7082-2.2538-8.875-10.0625-8.875-10.0625 0,0 3.8951-4.6601 8.875-4.0625v-4.0312c-9.4882,1.026-15.1875,7.3438-15.1875,7.3438 0,0 3.2891,12.3787 15.1875,14.5v-3.6875z"/>
<path style="opacity:.6;fill:#fff" d="m41.0938,29.1562c-15.5966,1.2526-29.0938,14.4688-29.0938,14.4688 0,0 .1338,.3772 .2812,.75 1.3919-1.3215 14.0883-13.0362 28.8125-14.2188v-1zm1.375,3.7188c-.4663,.0147-.9218,.0309-1.375,.0625v1c.4532-.0316 .9087-.0478 1.375-.0625 11.157-.3504 18.9728,8.2728 20.75,10.4375 .2331-.3028 .375-.5 .375-.5 0,0-8.3742-11.338-21.125-10.9375zm-1.375,4.7188c-9.4882,1.026-15.1875,7.3438-15.1875,7.3438 0,0 .0676,.3071 .2188,.75 1.0983-1.1147 6.5275-6.181 14.9688-7.0938v-1zm0,4.0312 0,1c4.9639,.5998 5.9844,2.8063 8.9688,7.7812l6.625-5.625c0,0-.1989-.26-.5-.5938l-6.125,5.2188c-2.9843-4.9749-4.0048-7.1814-8.9688-7.7812zm30.25,2.4688c-1.9871,2.3028-14.043,15.6562-26.6875,15.6562-1.267,0-2.4484-.1154-3.5625-.3125v1c1.1141,.1971 2.2955,.3125 3.5625,.3125 13.8245,0 27.0938-16.125 27.0938-16.125 0,0-.1852-.2642-.4062-.5312zm-51.1562,1c-.1031,.1398-.2188,.3125-.2188,.3125 0,0 5.3814,17.3629 21.125,19.3438v-1c-13.9479-1.7549-19.7612-15.5246-20.9062-18.6562zm12.2812,1.3438c-.0595,.0666-.25,.25-.25,.25 0,0 2.1668,7.8087 8.875,10.0625v-1c-5.4931-1.8456-7.9184-7.3551-8.625-9.3125zm51.0312,9c-8.8618,6.9489-28.1543,12.5-39.2188,12.5-1.0909,0-2.1577-.0882-3.1875-.1875v1c1.0298,.0993 2.0966,.1875 3.1875,.1875 11.3171,0 31.2784-5.7977 39.8438-12.9688-.1451-.1471-.3649-.3459-.625-.5312z"/>
<path style="opacity:.6;fill:url(#linearGradient3829)" d="m41.0938,6 0,23.1562c.4579-.0354 .9146-.0781 1.375-.0938 .5123-.0173 1.0294-.0083 1.5312,0v-23.0625h-2.9062zm0,23.1562c-.0308,.0025-.063-.0026-.0938,0v3.7812c.0311-.0025 .0626,.0024 .0938,0v-3.7812zm0,3.7812 0,4.6562c.8339-.0893 1.7053-.1562 2.5938-.1562 .1062,0 .2075-.0021 .3125,0v-4.5312c-.5025-.0208-1.0141-.0475-1.5312-.0312-.4663,.0147-.9218,.0309-1.375,.0625zm0,4.6562c-.0317,.0034-.0622-.0035-.0938,0v4.0312c.032,.0034 .0617-.0038 .0938,0v-4.0312zm0,4.0312 0,14.125c.8864,.298 1.8522,.5153 2.9062,.5938v-14c-.8082-.3341-1.7384-.5776-2.9062-.7188zm0,14.125c-.0314-.0105-.0626-.0205-.0938-.0312v3.6875c.0326,.006 .0611,.0254 .0938,.0312v-3.6875zm0,3.6875 0,4.3125c.9329,.1184 1.8988,.1848 2.9062,.1875v-4.2188c-1.017-.0329-1.9904-.1192-2.9062-.2812zm0,4.3125c-.0314-.0039-.0625,.0041-.0938,0v4c.0314,.0031 .0623-.003 .0938,0v-4zm0,4 0,22.25h2.9062v-22.0625c-.9927-.0134-1.9655-.0967-2.9062-.1875z"/>
<path style="opacity:.6;fill:url(#linearGradient3825)" d="m-41,6h4v84h-4z" transform="scale(-1 1)"/>
<path style="opacity:.1;fill:url(#linearGradient3613);filter:url(#filter3794);stroke:#fff;stroke-linecap:round;stroke-width:.5;clip-path:url(#clipPath3613)" d="m27,15h42a12,12 0 0,1 12,12v42a12,12 0 0,1 -12,12h-42a12,12 0 0,1 -12-12v-42a12,12 0 0,1 12-12"/>
<path style="opacity:.2;fill:url(#linearGradient3868)" d="m12,6c-3.324,0-6,2.676-6,6v2 68 2c0,.3347 .0413,.6507 .0938,.9688 .0487,.2956 .097,.5969 .1875,.875 .0099,.0304 .0209,.0636 .0312,.0938 .0989,.2878 .2349,.5475 .375,.8125 .1446,.2735 .3156,.5356 .5,.7812 .1844,.2456 .3738,.4735 .5938,.6875 .4399,.4281 .9429,.8145 1.5,1.0938 .2785,.1396 .5735,.2469 .875,.3438-.2562-.1002-.4867-.2363-.7188-.375-.0074-.0044-.0239,.0045-.0312,0-.0319-.0193-.0623-.0425-.0938-.0625-.1204-.0767-.231-.1635-.3438-.25-.1062-.0808-.2133-.1611-.3125-.25-.1779-.1614-.3475-.3454-.5-.5312-.1076-.1303-.2184-.2653-.3125-.4062-.0251-.0384-.0385-.0859-.0625-.125-.0648-.103-.1302-.2045-.1875-.3125-.101-.1947-.2057-.4157-.2812-.625-.008-.0218-.0236-.0405-.0312-.0625-.0318-.0919-.0358-.1868-.0625-.2812-.0303-.1066-.0704-.203-.0938-.3125-.0729-.3415-.125-.6982-.125-1.0625v-2-68-2c0-2.7818 2.2182-5 5-5h2 68 2c2.7818,0 5,2.2182 5,5v2 68 2c0,.3643-.0521,.721-.125,1.0625-.0442,.2069-.0884,.3977-.1562,.5938-.0077,.022-.0233,.0407-.0312,.0625-.0627,.1737-.1384,.3674-.2188,.5312-.0416,.0828-.079,.17-.125,.25-.0546,.0972-.1268,.1883-.1875,.2812-.0941,.141-.2049,.276-.3125,.4062-.1432,.1744-.3031,.347-.4688,.5-.0112,.0102-.02,.0212-.0312,.0312-.1384,.1256-.2851,.2344-.4375,.3438-.1026,.0731-.2043,.1534-.3125,.2188-.0074,.0045-.0238-.0044-.0312,0-.232,.1387-.4625,.2748-.7188,.375 .3015-.0968 .5965-.2041 .875-.3438 .5571-.2792 1.0601-.6657 1.5-1.0938 .22-.214 .4094-.4419 .5938-.6875 .1844-.2456 .3554-.5077 .5-.7812 .1401-.265 .2761-.5247 .375-.8125 .0104-.0308 .0213-.0627 .0312-.0938 .0905-.2781 .1388-.5794 .1875-.875 .0524-.318 .0938-.634 .0938-.9688v-2-68-2c0-3.324-2.676-6-6-6h-72z"/>
<path style="opacity:.2;fill:url(#radialGradient3619)" d="m12,90c-3.324,0-6-2.676-6-6v-2-68-2c0-.3347 .0413-.6507 .0938-.9688 .0487-.2956 .097-.5969 .1875-.875 .0099-.0304 .0209-.0636 .0312-.0938 .0989-.2878 .2349-.5475 .375-.8125 .1446-.2735 .3156-.5356 .5-.7812 .1844-.2456 .3738-.4735 .5938-.6875 .4399-.4281 .9429-.8145 1.5-1.0938 .2785-.1396 .5735-.2469 .875-.3438-.2562,.1002-.4867,.2363-.7188,.375-.0074,.0044-.0239-.0045-.0312,0-.0319,.0193-.0623,.0425-.0938,.0625-.1204,.0767-.231,.1635-.3438,.25-.1062,.0808-.2133,.1611-.3125,.25-.1779,.1614-.3475,.3454-.5,.5312-.1076,.1303-.2184,.2653-.3125,.4062-.0251,.0384-.0384,.0859-.0625,.125-.0648,.103-.1302,.2045-.1875,.3125-.101,.1947-.2057,.4157-.2812,.625-.008,.0218-.0236,.0405-.0312,.0625-.0318,.092-.0358,.1868-.0625,.2812-.0303,.1066-.0704,.203-.0938,.3125-.0729,.3415-.125,.6982-.125,1.0625v2 68 2c0,2.7818 2.2182,5 5,5h2 68 2c2.7818,0 5-2.2182 5-5v-2-68-2c0-.3643-.0521-.721-.125-1.0625-.0442-.2069-.0884-.3977-.1562-.5938-.0077-.022-.0233-.0407-.0312-.0625-.0627-.1737-.1384-.3674-.2188-.5312-.0416-.0828-.079-.17-.125-.25-.0546-.0972-.1268-.1883-.1875-.2812-.0941-.141-.2049-.276-.3125-.4062-.1432-.1745-.3031-.347-.4688-.5-.0112-.0102-.02-.0211-.0312-.0312-.1384-.1256-.2851-.2344-.4375-.3438-.1026-.0732-.2043-.1534-.3125-.2188-.0074-.0045-.0238,.0044-.0312,0-.232-.1387-.4625-.2748-.7188-.375 .3015,.0968 .5965,.2041 .875,.3438 .5571,.2792 1.0601,.6657 1.5,1.0938 .22,.214 .4094,.4419 .5938,.6875 .1844,.2456 .3554,.5077 .5,.7812 .1401,.265 .2761,.5247 .375,.8125 .0104,.0308 .0213,.0627 .0312,.0938 .0905,.2781 .1388,.5794 .1875,.875 .0524,.318 .0938,.634 .0938,.9688v2 68 2c0,3.324-2.676,6-6,6h-72z"/>
<path style="opacity:.5;fill:url(#linearGradient3868)" d="m41,6 0,2 41,0 2,0c2.7818,0 5,2.2182 5,5v2 68 2c0,.3643-.0521,.721-.125,1.0625-.0442,.2069-.0884,.3977-.1562,.5938-.0077,.022-.0233,.0407-.0312,.0625-.0627,.1737-.1384,.3674-.2188,.5312-.0416,.0828-.079,.17-.125,.25-.0546,.0972-.1268,.1883-.1875,.2812-.0941,.141-.2049,.276-.3125,.4062-.1432,.1744-.3031,.347-.4688,.5-.0112,.0102-.02,.0212-.0312,.0312-.1384,.1256-.2851,.2344-.4375,.3438-.1026,.0731-.2043,.1534-.3125,.2188-.0074,.0045-.0238-.0044-.0312,0-.232,.1387-.4625,.2748-.7188,.375 .3015-.0968 .5965-.2041 .875-.3438 .5571-.2792 1.0601-.6657 1.5-1.0938 .22-.214 .4094-.4419 .5938-.6875 .1844-.2456 .3554-.5077 .5-.7812 .1401-.265 .2761-.5247 .375-.8125 .0104-.0308 .0213-.0627 .0312-.0938 .0905-.2781 .1388-.5794 .1875-.875 .0524-.318 .0938-.634 .0938-.9688v-2-68-2c0-3.324-2.676-6-6-6h-43z"/>
</svg>
