<svg xmlns="http://www.w3.org/2000/svg" viewBox="0 0 96 96" xmlns:xlink="http://www.w3.org/1999/xlink">
<defs>
<linearGradient id="linearGradient3816">
<stop offset="0"/>
<stop offset="1" style="stop-opacity:0"/>
</linearGradient>
<linearGradient gradientTransform="matrix(1.00587 0 0 .99417 100 0)" id="ButtonShadow-0" y1="92.54" y2="7.017" x2="0" gradientUnits="userSpaceOnUse">
<stop offset="0"/>
<stop offset="1" style="stop-opacity:.588"/>
</linearGradient>
<linearGradient id="linearGradient4011">
<stop offset="0" style="stop-color:#07060b"/>
<stop offset="1" style="stop-color:#37243e"/>
</linearGradient>
<linearGradient id="linearGradient3707">
<stop offset="0" style="stop-color:#82619a"/>
<stop offset="1" style="stop-color:#82619a;stop-opacity:0"/>
</linearGradient>
<linearGradient id="linearGradient3722">
<stop offset="0" style="stop-color:#ead7f5"/>
<stop offset="1" style="stop-color:#fff;stop-opacity:0"/>
</linearGradient>
<linearGradient id="linearGradient3835">
<stop offset="0" style="stop-color:#4d3557"/>
<stop offset="1" style="stop-color:#4d3557;stop-opacity:0"/>
</linearGradient>
<linearGradient id="linearGradient3730">
<stop offset="0" style="stop-color:#b5a7c0"/>
<stop offset="1" style="stop-color:#b5a7c0;stop-opacity:0"/>
</linearGradient>
<linearGradient id="linearGradient3676">
<stop offset="0" style="stop-color:#ac65df"/>
<stop offset="1" style="stop-color:#ac65df;stop-opacity:0"/>
</linearGradient>
<linearGradient id="linearGradient3188" xlink:href="#linearGradient3737" y1="6" y2="63.893" x2="0" gradientUnits="userSpaceOnUse"/>
<linearGradient id="linearGradient3668">
<stop offset="0" style="stop-color:#6d3c8d"/>
<stop offset="1" style="stop-color:#6d3c8d;stop-opacity:0"/>
</linearGradient>
<linearGradient id="linearGradient3699">
<stop offset="0" style="stop-color:#d4aeee"/>
<stop offset="1" style="stop-color:#d9b7f0;stop-opacity:0"/>
</linearGradient>
<linearGradient id="linearGradient3700">
<stop offset="0" style="stop-color:#ddbef2"/>
<stop offset="1" style="stop-color:#eddef7"/>
</linearGradient>
<linearGradient id="linearGradient3737">
<stop offset="0" style="stop-color:#fff"/>
<stop offset="1" style="stop-color:#fff;stop-opacity:0"/>
</linearGradient>
<linearGradient id="linearGradient3802">
<stop offset="0" style="stop-color:#fff"/>
<stop offset="1" style="stop-color:#fff;stop-opacity:0"/>
</linearGradient>
<linearGradient id="linearGradient3617" xlink:href="#linearGradient3700" y1="90" y2="5.988" x2="0" gradientUnits="userSpaceOnUse"/>
<linearGradient gradientTransform="translate(-30)" id="linearGradient3879" xlink:href="#linearGradient3835" y1="61" y2="79" x2="0" gradientUnits="userSpaceOnUse"/>
<linearGradient gradientTransform="translate(-30)" id="linearGradient3781" xlink:href="#linearGradient4011" y1="83" y2="48.868" x2="0" gradientUnits="userSpaceOnUse"/>
<linearGradient gradientTransform="translate(-30)" id="linearGradient3674" xlink:href="#linearGradient3668" y1="25" y2="56" x2="0" gradientUnits="userSpaceOnUse"/>
<linearGradient id="linearGradient3682" xlink:href="#linearGradient3676" y1="25" y2="56" x2="0" gradientUnits="userSpaceOnUse"/>
<linearGradient gradientTransform="translate(0 -97)" id="linearGradient3721" xlink:href="#ButtonShadow-0" y1="6.132" y2="90.239" x2="0" gradientUnits="userSpaceOnUse"/>
<linearGradient gradientTransform="matrix(1.02381 0 0 1.0119 -1.14286 -98.07143)" id="linearGradient3780" xlink:href="#ButtonShadow-0" y1="6.132" y2="90.239" x2="0" gradientUnits="userSpaceOnUse"/>
<linearGradient id="linearGradient3705" xlink:href="#linearGradient3699" y1="37" y2="69.062" x2="0" gradientUnits="userSpaceOnUse"/>
<linearGradient gradientTransform="translate(-60)" id="linearGradient3736" xlink:href="#linearGradient3730" y1="32" y2="80" x2="0" gradientUnits="userSpaceOnUse"/>
<linearGradient id="linearGradient3728" xlink:href="#linearGradient3722" y1="13.405" y2="75.676" x2="0" gradientUnits="userSpaceOnUse"/>
<linearGradient gradientTransform="translate(-30)" id="linearGradient3713" xlink:href="#linearGradient3707" y1="31.991" y2="72.012" x2="0" gradientUnits="userSpaceOnUse"/>
<linearGradient gradientTransform="translate(-30 -1)" spreadMethod="reflect" id="linearGradient3862" xlink:href="#linearGradient3802" x1="77.998" x2="87" gradientUnits="userSpaceOnUse"/>
<linearGradient gradientTransform="matrix(1 0 0 .72177 -30 13.97336)" id="linearGradient3822" xlink:href="#linearGradient3816" y1="50" y2="58" x2="0" gradientUnits="userSpaceOnUse"/>
<radialGradient cx="48" cy="90.172" gradientTransform="matrix(1.15731 0 0 .99591 -7.55102 .19713)" r="42" id="radialGradient3619" xlink:href="#linearGradient3737" gradientUnits="userSpaceOnUse"/>
<radialGradient cx="78" cy="55" gradientTransform="matrix(1 0 0 .44752 -30 29.41404)" r="9" id="radialGradient3789" gradientUnits="userSpaceOnUse">
<stop offset="0" style="stop-color:#ae96ba"/>
<stop offset=".836" style="stop-color:#755584"/>
<stop offset="1" style="stop-color:#664e70;stop-opacity:0"/>
</radialGradient>
<radialGradient cx="42" cy="40" gradientTransform="matrix(2 0 0 1.5 -42 -20)" r="8" id="radialGradient3761" gradientUnits="userSpaceOnUse">
<stop offset="0" style="stop-color:#dcbff1"/>
<stop offset="1" style="stop-color:#594b88;stop-opacity:0"/>
</radialGradient>
<radialGradient cx="48" cy="83" gradientTransform="matrix(1 0 0 .25 0 62.25)" r="8" id="radialGradient3889" gradientUnits="userSpaceOnUse">
<stop offset="0"/>
<stop offset="1" style="stop-opacity:0"/>
</radialGradient>
<radialGradient cx="48" cy="45" gradientTransform="matrix(1.25 0 0 1 -12 0)" r="8" id="radialGradient3747" gradientUnits="userSpaceOnUse">
<stop offset="0" style="stop-color:#513162"/>
<stop offset=".411" style="stop-color:#340d42"/>
<stop offset="1" style="stop-color:#0e0c0f"/>
</radialGradient>
</defs>
<path style="opacity:.08;fill:url(#linearGradient3780)" d="m12-95.0312c-5.5111,0-10.0312,4.5202-10.0312,10.0312v71c0,5.5111 4.5202,10.0312 10.0312,10.0312h72c5.5111,0 10.0312-4.5202 10.0312-10.0312v-71c0-5.5111-4.5202-10.0312-10.0312-10.0312h-72z" transform="scale(1 -1)"/>
<path style="opacity:.1;fill:url(#linearGradient3780)" d="m12-94.0312c-4.9716,0-9.0312,4.0596-9.0312,9.0312v71c0,4.9716 4.0596,9.0312 9.0312,9.0312h72c4.9716,0 9.0312-4.0596 9.0312-9.0312v-71c0-4.9716-4.0596-9.0312-9.0312-9.0312h-72z" transform="scale(1 -1)"/>
<path style="opacity:.2;fill:url(#linearGradient3780)" d="m12-93c-4.4091,0-8,3.5909-8,8v71c0,4.4091 3.5909,8 8,8h72c4.4091,0 8-3.5909 8-8v-71c0-4.4091-3.5909-8-8-8h-72z" transform="scale(1 -1)"/>
<path style="opacity:.3;fill:url(#linearGradient3780)" d="m12-92h72a7,7 0 0,1 7,7v71a7,7 0 0,1 -7,7h-72a7,7 0 0,1 -7-7v-71a7,7 0 0,1 7-7" transform="scale(1 -1)"/>
<path style="opacity:.45;fill:url(#linearGradient3721)" d="m12-91h72a6,6 0 0,1 6,6v72a6,6 0 0,1 -6,6h-72a6,6 0 0,1 -6-6v-72a6,6 0 0,1 6-6" transform="scale(1 -1)"/>
<path style="fill:url(#linearGradient3617)" d="m12,6h72a6,6 0 0,1 6,6v72a6,6 0 0,1 -6,6h-72a6,6 0 0,1 -6-6v-72a6,6 0 0,1 6-6"/>
<path style="opacity:.5;fill:url(#linearGradient3188)" d="m12,6c-3.324,0-6,2.676-6,6v2 68 2c0,.3347 .0413,.6507 .0938,.9688 .0487,.2956 .097,.5969 .1875,.875 .0099,.0304 .0209,.0636 .0312,.0938 .0989,.2878 .2349,.5475 .375,.8125 .1446,.2735 .3156,.5356 .5,.7812 .1844,.2456 .3738,.4735 .5938,.6875 .4399,.4281 .9429,.8145 1.5,1.0938 .2785,.1396 .5735,.2469 .875,.3438-.2562-.1002-.4867-.2363-.7188-.375-.0074-.0044-.0239,.0045-.0312,0-.0319-.0193-.0623-.0425-.0938-.0625-.1204-.0767-.231-.1635-.3438-.25-.1062-.0808-.2133-.1611-.3125-.25-.1779-.1614-.3475-.3454-.5-.5312-.1076-.1303-.2184-.2653-.3125-.4062-.0251-.0384-.0384-.0859-.0625-.125-.0648-.103-.1302-.2045-.1875-.3125-.101-.1947-.2057-.4157-.2812-.625-.008-.0218-.0236-.0405-.0312-.0625-.0318-.0919-.0358-.1868-.0625-.2812-.0303-.1066-.0704-.203-.0938-.3125-.0729-.3415-.125-.6982-.125-1.0625v-2-68-2c0-2.7818 2.2182-5 5-5h2 68 2c2.7818,0 5,2.2182 5,5v2 68 2c0,.3643-.0521,.721-.125,1.0625-.0442,.2069-.0884,.3977-.1562,.5938-.0077,.022-.0233,.0407-.0312,.0625-.0627,.1737-.1384,.3674-.2188,.5312-.0416,.0828-.079,.17-.125,.25-.0546,.0972-.1268,.1883-.1875,.2812-.0941,.141-.2049,.276-.3125,.4062-.1432,.1744-.3031,.347-.4688,.5-.0112,.0102-.02,.0212-.0312,.0312-.1384,.1256-.2851,.2344-.4375,.3438-.1026,.0731-.2043,.1534-.3125,.2188-.0074,.0045-.0238-.0044-.0312,0-.232,.1387-.4625,.2748-.7188,.375 .3015-.0968 .5965-.2041 .875-.3438 .5571-.2792 1.0601-.6657 1.5-1.0938 .22-.214 .4094-.4419 .5938-.6875 .1844-.2456 .3554-.5077 .5-.7812 .1401-.265 .2761-.5247 .375-.8125 .0104-.0308 .0213-.0627 .0312-.0938 .0905-.2781 .1388-.5794 .1875-.875 .0524-.318 .0938-.634 .0938-.9688v-2-68-2c0-3.324-2.676-6-6-6h-72z"/>
<path style="opacity:.2;fill:url(#radialGradient3619)" d="m12,90c-3.324,0-6-2.676-6-6v-2-68-2c0-.3347 .0413-.6507 .0938-.9688 .0487-.2956 .097-.5969 .1875-.875 .0099-.0304 .0209-.0636 .0312-.0938 .0989-.2878 .2349-.5475 .375-.8125 .1446-.2735 .3156-.5356 .5-.7812 .1844-.2456 .3738-.4735 .5938-.6875 .4399-.4281 .9429-.8145 1.5-1.0938 .2785-.1396 .5735-.2469 .875-.3438-.2562,.1002-.4867,.2363-.7188,.375-.0074,.0044-.0239-.0045-.0312,0-.0319,.0193-.0623,.0425-.0938,.0625-.1204,.0767-.231,.1635-.3438,.25-.1062,.0808-.2133,.1611-.3125,.25-.1779,.1614-.3475,.3454-.5,.5312-.1076,.1303-.2184,.2653-.3125,.4062-.0251,.0384-.0384,.0859-.0625,.125-.0648,.103-.1302,.2045-.1875,.3125-.101,.1947-.2057,.4157-.2812,.625-.008,.0218-.0236,.0405-.0312,.0625-.0318,.092-.0358,.1868-.0625,.2812-.0303,.1066-.0704,.203-.0938,.3125-.0729,.3415-.125,.6982-.125,1.0625v2 68 2c0,2.7818 2.2182,5 5,5h2 68 2c2.7818,0 5-2.2182 5-5v-2-68-2c0-.3643-.0521-.721-.125-1.0625-.0442-.2069-.0884-.3977-.1562-.5938-.0077-.022-.0233-.0407-.0312-.0625-.0627-.1737-.1384-.3674-.2188-.5312-.0416-.0828-.079-.17-.125-.25-.0546-.0972-.1268-.1883-.1875-.2812-.0941-.141-.2049-.276-.3125-.4062-.1432-.1745-.3031-.347-.4688-.5-.0112-.0102-.02-.0211-.0312-.0312-.1384-.1256-.2851-.2344-.4375-.3438-.1026-.0732-.2043-.1534-.3125-.2188-.0074-.0045-.0238,.0044-.0312,0-.232-.1387-.4625-.2748-.7188-.375 .3015,.0968 .5965,.2041 .875,.3438 .5571,.2792 1.0601,.6657 1.5,1.0938 .22,.214 .4094,.4419 .5938,.6875 .1844,.2456 .3554,.5077 .5,.7812 .1401,.265 .2761,.5247 .375,.8125 .0104,.0308 .0213,.0627 .0312,.0938 .0905,.2781 .1388,.5794 .1875,.875 .0524,.318 .0938,.634 .0938,.9688v2 68 2c0,3.324-2.676,6-6,6h-72z"/>
<g style="color:#000">
<path style="fill:url(#linearGradient3728)" d="m80,48a32,32 0 1,1 -64,0 32,32 0 1,1 64,0z" transform="matrix(1.15625 0 0 1.15625 -7.5 -7.5)"/>
<path style="fill:url(#linearGradient3736)" d="m48,11c-20.4345,0-37,16.5655-37,37 0,20.4345 16.5655,37 37,37 20.4345,0 37-16.5655 37-37 0-20.4345-16.5655-37-37-37zm0,3c19.33,0 35,15.67 35,35 0,19.33-15.67,35-35,35-19.33,0-35-15.67-35-35 0-19.33 15.67-35 35-35z"/>
<path style="fill:url(#linearGradient3705)" d="m73,40a25,25 0 1,1 -50,0 25,25 0 1,1 50,0z" transform="translate(0 3)"/>
<path style="fill:url(#linearGradient3713)" d="m48,18c-13.8071,0-25,11.1929-25,25 0,13.8071 11.1929,25 25,25 13.8071,0 25-11.1929 25-25 0-13.8071-11.1929-25-25-25zm0,3c12.7025,0 23,10.2975 23,23 0,12.7025-10.2975,23-23,23-12.7025,0-23-10.2975-23-23 0-12.7025 10.2975-23 23-23z"/>
<path style="fill:url(#linearGradient3682)" d="m63,40a15,15 0 1,1 -30,0 15,15 0 1,1 30,0z"/>
<path style="fill:url(#linearGradient3674)" d="m48,25c-8.2843,0-15,6.7157-15,15 0,8.2843 6.7157,15 15,15 8.2843,0 15-6.7157 15-15 0-8.2843-6.7157-15-15-15zm0,3c7.1797,0 13,5.8203 13,13 0,7.1797-5.8203,13-13,13-7.1797,0-13-5.8203-13-13 0-7.1797 5.8203-13 13-13z"/>
<path style="fill:url(#radialGradient3747)" d="m56,40a8,8 0 1,1 -16,0 8,8 0 1,1 16,0z"/>
<path style="fill:url(#radialGradient3761)" d="m56,40a8,8 0 1,1 -16,0 8,8 0 1,1 16,0z" transform="matrix(0 .5 -.75 0 78 13)"/>
<path style="fill:#18061e" d="m48,32c-4.4183,0-8,3.5817-8,8 0,4.4183 3.5817,8 8,8 4.4183,0 8-3.5817 8-8 0-4.4183-3.5817-8-8-8zm0,1c3.866,0 7,3.134 7,7 0,3.866-3.134,7-7,7-3.866,0-7-3.134-7-7 0-3.866 3.134-7 7-7z"/>
</g>
<path style="fill:url(#linearGradient3781)" d="m44,83 8,0c2.2596,0 6-22.9812 6-28 0-5-6.3454-6-10-6-3.6546,0-10,1-10,6 0,6 3.816,28 6,28z"/>
<g style="color:#000">
<path style="fill:url(#radialGradient3789)" d="m57,54.0277c0,2.2244-4.0294,4.0277-9,4.0277-4.9706,0-9-1.8033-9-4.0277 0-2.2244 4.0294-4.0277 9-4.0277 4.9706,0 9,1.8033 9,4.0277z"/>
<path style="opacity:.4;fill:url(#linearGradient3822)" d="m53,52.2271c0,1.1073-2.2386,2.0049-5,2.0049-2.7614,0-5-.8976-5-2.0049 0-1.1073 2.2386-2.0049 5-2.0049 2.7614,0 5,.8976 5,2.0049z"/>
<path style="opacity:.6;fill:url(#linearGradient3862)" d="m39.0625,53.5312c-.046,.165-.0625,.3294-.0625,.5 0,2.2244 4.0294,4.0312 9,4.0312 4.9706,0 9-1.8068 9-4.0312 0-.1706-.0165-.335-.0625-.5-.5538,1.9867-4.3481,3.5312-8.9375,3.5312-4.5894,0-8.3837-1.5445-8.9375-3.5312z"/>
</g>
<path style="fill:url(#linearGradient3879)" d="m41.0938,59.5938c-.5318,.3503-.8261,1.0286-.7188,1.6562 0,5.6539 3,20 3,20 .1152,.7715 .8449,1.403 1.625,1.4062h6c.7801-.0033 1.5098-.6347 1.625-1.4062 0,0 3-13.8531 3-20 .0948-.6182-.1976-1.2792-.7188-1.625-1.6509,.8837-4.131,1.4375-6.9062,1.4375-2.7821,0-5.2554-.5812-6.9062-1.4688z"/>
<path style="opacity:.6;fill:url(#radialGradient3889);color:#000" d="m56,83a8,2 0 1,1 -16,0 8,2 0 1,1 16,0z" transform="matrix(1.25 0 0 1.25 -12 -21.25)"/>
</svg>
