<svg xmlns="http://www.w3.org/2000/svg" viewBox="0 0 96 96" xmlns:xlink="http://www.w3.org/1999/xlink">
<defs>
<clipPath id="clipPath3613">
<path fill="#fff" d="m12,6h72a6,6 0 0,1 6,6v72a6,6 0 0,1 -6,6h-72a6,6 0 0,1 -6-6v-72a6,6 0 0,1 6-6"/>
</clipPath>
<clipPath id="clipPath3867">
<path fill="#fff" d="m115.7812,6c-5.7812,3.1123-9.7188,9.2251-9.7188,16.25 0,10.1815 8.256,18.4375 18.4375,18.4375 10.1815,0 18.4375-8.256 18.4375-18.4375 0-7.0249-3.9376-13.1377-9.7188-16.25h-17.4375zm24.7812,0c4.098,4.1293 6.625,9.8189 6.625,16.0938 0,12.6127-10.231,22.8438-22.8438,22.8438-7.5048,0-14.179-3.6278-18.3438-9.2188v7.875l.2188-.1562 .4375-.5312 2.1875,1.6875-.4062,.5625-.625,1.75-.375,2.7188 1.5625,.875 2.1562-1.6562 1.1875-1.4375 .3125-.625 2.5312,1.0625-.25,.6562-.1562,1.8438 .375,2.7188 1.7188,.4688 1.6875-2.1875 .75-1.6875 .125-.6875 2.75,.375-.0625,.6562 .2812,1.8438 1.0625,2.5312h1.7812l1.0625-2.5312 .3125-1.8438-.0625-.6562 2.7188-.375 .125,.6875 .7812,1.6875 1.6562,2.1875 1.7188-.4688 .375-2.7188-.1875-1.8438-.2188-.6562 2.5312-1.0625 .3125,.625 1.1562,1.4375 2.1875,1.6562 1.5312-.875-.3438-2.7188-.6562-1.75-.375-.5625 2.1875-1.6875 .4375,.5312 1.5,1.0625 2.5625,1.0625 1.25-1.2812-1.0625-2.5312-1.0625-1.5-.5312-.4375 1.6875-2.1875 .5625,.375 1.75,.6562 2.7188,.3438 .875-1.5312-1.6562-2.1875-1.4375-1.1875-.625-.25 1.0625-2.5625 .6562,.2188 1.8438,.1875 2.7188-.375 .4375-1.7188-2.1562-1.6875-1.6875-.75-.6875-.125 .375-2.75 .6875,.0625 1.8125-.3125 2.5312-1.0312v-1.7812l-2.5312-1.0625-1.8125-.3125-.6875,.0625-.375-2.75 .6875-.125 1.6875-.75 2.1562-1.6875-.4375-1.7188-2.7188-.3438-1.8438,.1562-.6562,.25-1.0625-2.5625 .625-.2812 1.4375-1.1875 1.6562-2.1562-.4062-.75h-4.4375l-.5,.1875-.5625,.4062-.4688-.5938h-5.8125zm-16.0625,2.625c7.5315,0 13.625,6.0935 13.625,13.625 0,7.5315-6.0935,13.6562-13.625,13.6562-7.5315,0-13.6562-6.1247-13.6562-13.6562 0-7.5315 6.1247-13.625 13.6562-13.625zm43.5938,28.2188-1.1875,2.8125-.3438,2 .0625,.7812-3.0312,.375-.125-.7188-.8438-1.875-1.875-2.4062-1.875,.5-.4062,3 .1875,2.0625 .25,.6875-2.8125,1.1875-.3125-.6875-1.3125-1.5938-2.4375-1.8438-1.6875,1 .4062,3.0312 .6875,1.875 .4375,.6562-2.4062,1.8438-.5-.5625l-1.6562-1.2188-2.8125-1.125-1.4062,1.375 1.1562,2.8125 1.1875,1.6562 .5938,.5-1.875,2.4375-.625-.4375-1.9062-.7188-3-.4062-1,1.7188 1.8438,2.4062 1.5938,1.3125 .6562,.3125-1.1562,2.8125-.7188-.25-2.0312-.1875-3,.4062-.5312,1.9062 2.4062,1.8438 1.875,.8438 .75,.1562-.4062,3.0312-.75-.0625-2.0312,.3125-2.8125,1.1875v1.9688l2.8125,1.1562 2.0312,.3438 .75-.0625 .4062,3.0312-.75,.1562-1.875,.8125-2.4062,1.875 .5312,1.9062 3,.4062 2.0312-.2188 .7188-.25 1.1562,2.8125-.6562,.3438-1.5938,1.2812-1.8438,2.4375 .25,.4062h5.9375l.3438-.25 .1875,.25h6.2188c-1.2952-1.3752-2.4398-2.8946-3.4062-4.5312l10.9062-5c2.3164,3.2175 6.0148,5.3822 10.2188,5.625l.5312,3.9062h5.2188l-.625-4.5938c3.788-1.2847 6.8314-4.1975 8.2812-7.9062l8.3125,1.5312v-5.2812l-7.375-1.3438c-.0504-4.2336-2.069-7.9862-5.1562-10.4375l5.5-10.6562c2.768,1.8137 5.157,4.157 7.0312,6.875v-9.8438l-.8438,.625-.5,.5625-2.4062-1.8438 .4062-.6562 .75-1.875 .375-3.0312-1.7188-1-2.4062,1.8438-1.2812,1.5938-.3438,.6875-2.8125-1.1875 .25-.6875 .2188-2.0625-.4375-3-1.875-.5-1.875,2.4062-.8438,1.875-.125,.7188-3.0312-.375 .0625-.7812-.3438-2-1.1562-2.8125h-1.9688zm.9688,10.3125c3.2847,0 6.4301,.646 9.3125,1.7812l-5.5,10.625c-1.2095-.3543-2.489-.5312-3.8125-.5312-2.6243,0-5.0802,.7381-7.1562,2.0312l-8.1562-8.7812c4.2606-3.2171 9.5667-5.125 15.3125-5.125zm-48.75,6.3125-.9688,2.0938-.0625,.7188 .1875,1.25-2.25,.5938-.4375-1.1875-.4375-.5938l-1.8438-1.3438-1.0938,.625 .2188,2.2812 .3125,.6562 .7812,1-1.625,1.625-1-.7812-.6562-.3125-2.2812-.2188-.625,1.0625 1.3438,1.8438 .5938,.4375 1.1562,.4688-.5938,2.2188-1.25-.1875-.75,.0625-2.0625,.9375v1.25l2.0625,.9375 .75,.0625 1.25-.1562 .5938,2.2188-1.1875,.4688-.5938,.4062-1.3438,1.875 .5938,1.0625 2.2812-.2188 .6875-.3125 1-.7812 1.625,1.625-.8125,1-.3125,.6875-.2188,2.25 1.0625,.625 1.875-1.3125 .4062-.5938 .5-1.1875 2.2188,.5938-.1875,1.25 .0625,.75 .9375,2.0938h1.2188l.9688-2.0938 .0625-.7188-.1875-1.2812 2.2188-.5625 .4688,1.1562 .4375,.625 1.8438,1.3125 1.0625-.5938-.2188-2.2812-.2812-.6562-.7812-1 1.625-1.625 1,.7812 .6562,.3125 2.2812,.2188 .625-1.0625-1.3438-1.8438-.5938-.4375-1.1875-.4688 .625-2.2188 1.25,.1875 .7188-.0625 2.0938-.9375v-1.25l-2.0625-.9375-.75-.0938-1.25,.1875-.5938-2.2188 1.1875-.4688 .5938-.4375 1.3438-1.8438-.625-1.0625-2.25,.2188-.6875,.3125-1,.7812-1.625-1.6562 .8125-.9688 .2812-.6875 .25-2.25-1.0625-.625-1.875,1.3125-.4375,.5938-.4688,1.1875-2.2188-.5938 .1875-1.2812-.0625-.7188-.9375-2.0938h-1.2188zm29.625,2.3438 8.1562,8.7812c-1.6356,2.2393-2.5938,4.9854-2.5938,7.9688 0,1.1014 .1579,2.1934 .4062,3.2188l-10.9062,4.9688c-.8777-2.5735-1.375-5.3188-1.375-8.1875 0-6.4208 2.3799-12.2752 6.3125-16.75zm-29.0938,8.375c1.8131,0 3.2812,1.4681 3.2812,3.2812 0,1.8131-1.4681,3.2812-3.2812,3.2812-1.8131,0-3.2812-1.4681-3.2812-3.2812 0-1.8131 1.4681-3.2812 3.2812-3.2812zm48.2188,3.2812c2.7895,0 5.0625,2.2418 5.0625,5.0312 0,2.7895-2.273,5.0625-5.0625,5.0625-2.7895,0-5.0312-2.273-5.0312-5.0625 0-2.7895 2.2418-5.0312 5.0312-5.0312z"/>
</clipPath>
<clipPath id="clipPath3836">
<path fill="#fff" d="m112,6c-3.324,0-6,2.676-6,6v23.7188c4.1648,5.5909 10.839,9.2188 18.3438,9.2188 12.6127,0 22.8438-10.231 22.8438-22.8438 0-6.2749-2.527-11.9644-6.625-16.0938h-7.3438c5.7812,3.1123 9.7188,9.2251 9.7188,16.25 0,10.1815-8.256,18.4375-18.4375,18.4375-10.1815,0-18.4375-8.256-18.4375-18.4375 0-7.0249 3.9376-13.1377 9.7188-16.25h-3.7812zm34.375,0 .4688,.5938 .5625-.4062 .5-.1875-1.5312,0zm5.9688,0 .4062,.75-1.6562,2.1562-1.4375,1.1875-.625,.2812 1.0625,2.5625 .6562-.25 1.8438-.1562 2.7188,.3438 .4375,1.7188-2.1562,1.6875-1.6875,.75-.6875,.125 .375,2.75 .6875-.0625 1.8125,.3125 2.5312,1.0625 0,1.7812-2.5312,1.0312-1.8125,.3125-.6875-.0625-.375,2.75 .6875,.125 1.6875,.75 2.1562,1.6875-.4375,1.7188-2.7188,.375l-1.8438-.1875-.6562-.2188-1.0625,2.5625 .625,.25 1.4375,1.1875 1.6562,2.1875-.875,1.5312-2.7188-.3438-1.75-.6562-.5625-.375-1.6875,2.1875 .5312,.4375 1.0625,1.5 1.0625,2.5312-1.25,1.2812-2.5625-1.0625-1.5-1.0625-.4375-.5312-2.1875,1.6875 .375,.5625 .6562,1.75 .3438,2.7188-1.5312,.875-2.1875-1.6562-1.1562-1.4375-.3125-.625-2.5312,1.0625 .2188,.6562 .1875,1.8438-.375,2.7188-1.7188,.4688-1.6562-2.1875-.7812-1.6875-.125-.6875-2.7188,.375 .0625,.6562-.3125,1.8438-1.0625,2.5312h-1.7812l-1.0625-2.5312-.2812-1.8438 .0625-.6562-2.75-.375-.125,.6875-.75,1.6875-1.6875,2.1875-1.7188-.4688-.375-2.7188 .1562-1.8438 .25-.6562-2.5312-1.0625-.3125,.625-1.1875,1.4375-2.1562,1.6562-1.5625-.875 .375-2.7188 .625-1.75 .4062-.5625-2.1875-1.6875-.4375,.5312-.2188,.1562v40.4062c0,3.324 2.676,6 6,6h25.875l-.25-.4062 1.8438-2.4375 1.5938-1.2812 .6562-.3438-1.1562-2.8125-.7188,.25-2.0312,.2188-3-.4062-.5312-1.9062 2.4062-1.875 1.875-.8125 .75-.1562-.4062-3.0312-.75,.0625-2.0312-.3438-2.8125-1.1562v-1.9688l2.8125-1.1875 2.0312-.3125 .75,.0625 .4062-3.0312-.75-.1562-1.875-.8438-2.4062-1.8438 .5312-1.9062 3-.4062 2.0312,.1875 .7188,.25 1.1562-2.8125-.6562-.3125-1.5938-1.3125-1.8438-2.4062 1-1.7188 3,.4062 1.9062,.7188 .625,.4375 1.875-2.4375-.5938-.5-1.1875-1.6562-1.1562-2.8125 1.4062-1.375 2.8125,1.125 1.6562,1.2188 .5,.5625 2.4062-1.8438-.4375-.6562-.6875-1.875-.4062-3.0312 1.6875-1 2.4375,1.8438 1.3125,1.5938 .3125,.6875 2.8125-1.1875-.25-.6875-.1875-2.0625 .4062-3 1.875-.5 1.875,2.4062 .8438,1.875 .125,.7188 3.0312-.375-.0625-.7812 .3438-2 1.1875-2.8125h1.9688l1.1562,2.8125 .3438,2-.0625,.7812 3.0312,.375 .125-.7188 .8438-1.875 1.875-2.4062 1.875,.5 .4375,3-.2188,2.0625-.25,.6875 2.8125,1.1875 .3438-.6875 1.2812-1.5938 2.4062-1.8438 1.7188,1-.375,3.0312-.75,1.875-.4062,.6562 2.4062,1.8438 .5-.5625 .8438-.625v-36.3438c0-3.324-2.676-6-6-6h-31.6562zm-27.8438,2.625c-7.5315,0-13.6562,6.0935-13.6562,13.625 0,7.5315 6.1247,13.6562 13.6562,13.6562 7.5315,0 13.625-6.1247 13.625-13.6562 0-7.5315-6.0935-13.625-13.625-13.625zm44.5625,38.5312c-5.7458,0-11.0519,1.9079-15.3125,5.125l8.1562,8.7812c2.0761-1.2932 4.5319-2.0312 7.1562-2.0312 1.3235,0 2.603,.177 3.8125,.5312l5.5-10.625c-2.8824-1.1353-6.0278-1.7812-9.3125-1.7812zm13.9062,4.1562-5.5,10.6562c3.0873,2.4513 5.1059,6.2039 5.1562,10.4375l7.375,1.3438v-15.5625c-1.8742-2.718-4.2632-5.0613-7.0312-6.875zm-62.6562,2.1562 1.2188,0 .9375,2.0938 .0625,.7188-.1875,1.2812 2.2188,.5938 .4688-1.1875 .4375-.5938 1.875-1.3125 1.0625,.625-.25,2.25-.2812,.6875-.8125,.9688 1.625,1.6562 1-.7812 .6875-.3125 2.25-.2188 .625,1.0625-1.3438,1.8438-.5938,.4375-1.1875,.4688 .5938,2.2188 1.25-.1875 .75,.0938 2.0625,.9375 0,1.25-2.0938,.9375-.7188,.0625-1.25-.1875-.625,2.2188 1.1875,.4688 .5938,.4375 1.3438,1.8438-.625,1.0625-2.2812-.2188-.6562-.3125-1-.7812-1.625,1.625 .7812,1 .2812,.6562 .2188,2.2812-1.0625,.5938-1.8438-1.3125-.4375-.625-.4688-1.1562-2.2188,.5625 .1875,1.2812-.0625,.7188-.9688,2.0938-1.2188,0-.9375-2.0938-.0625-.75 .1875-1.25-2.2188-.5938-.5,1.1875-.4062,.5938-1.875,1.3125-1.0625-.625 .2188-2.25 .3125-.6875 .8125-1-1.625-1.625-1,.7812-.6875,.3125-2.2812,.2188-.5938-1.0625 1.3438-1.875 .5938-.4062 1.1875-.4688-.5938-2.2188-1.25,.1562-.75-.0625-2.0625-.9375 0-1.25 2.0625-.9375 .75-.0625 1.25,.1875 .5938-2.2188-1.1562-.4688-.5938-.4375-1.3438-1.8438 .625-1.0625 2.2812,.2188 .6562,.3125 1,.7812 1.625-1.625-.7812-1l-.3125-.6562-.2188-2.2812 1.0938-.625 1.8438,1.3438 .4375,.5938 .4375,1.1875 2.25-.5938-.1875-1.25 .0625-.7188 .9688-2.0938zm29.625,2.3438c-3.9326,4.4748-6.3125,10.3292-6.3125,16.75 0,2.8687 .4973,5.614 1.375,8.1875l10.9062-4.9688c-.2483-1.0254-.4062-2.1174-.4062-3.2188 0-2.9834 .9581-5.7295 2.5938-7.9688l-8.1562-8.7812zm-29.0938,8.375c-1.8131,0-3.2812,1.4681-3.2812,3.2812 0,1.8131 1.4681,3.2812 3.2812,3.2812 1.8131,0 3.2812-1.4681 3.2812-3.2812 0-1.8131-1.4681-3.2812-3.2812-3.2812zm48.2188,3.2812c-2.7895,0-5.0312,2.2418-5.0312,5.0312 0,2.7895 2.2418,5.0625 5.0312,5.0625 2.7895,0 5.0625-2.273 5.0625-5.0625 0-2.7895-2.273-5.0312-5.0625-5.0312zm12.625,10.0312c-1.4499,3.7088-4.4932,6.6216-8.2812,7.9062l.625,4.5938h9.9688c3.324,0 6-2.676 6-6v-4.9688l-8.3125-1.5312zm-23.625,2.9688-10.9062,5c.9664,1.6366 2.111,3.156 3.4062,4.5312h18.25l-.5312-3.9062c-4.2039-.2428-7.9024-2.4075-10.2188-5.625zm-13.9062,9.2812-.3438,.25h.5312l-.1875-.25z"/>
</clipPath>
<filter width="1.24" x="-.12" y="-.12" height="1.24" color-interpolation-filters="sRGB" id="filter3879">
<feGaussianBlur stdDeviation="4.2"/>
</filter>
<filter color-interpolation-filters="sRGB" id="filter3875">
<feGaussianBlur stdDeviation=".42"/>
</filter>
<filter width="1.384" x="-.192" y="-.192" height="1.384" color-interpolation-filters="sRGB" id="filter3794">
<feGaussianBlur stdDeviation="5.28"/>
</filter>
<linearGradient gradientTransform="matrix(1.00587 0 0 .99417 100 0)" id="ButtonShadow-0" y1="92.54" y2="7.017" x2="0" gradientUnits="userSpaceOnUse">
<stop offset="0"/>
<stop offset="1" stop-opacity=".588"/>
</linearGradient>
<linearGradient id="ButtonColor-7" y1="21" y2=".999" x2="0" gradientUnits="userSpaceOnUse">
<stop offset="0" stop-color="#afafaf"/>
<stop offset="1" stop-color="#d8d8d8"/>
</linearGradient>
<linearGradient gradientTransform="matrix(1.02381 0 0 1.0119 -1.14286 -98.07143)" id="linearGradient3780" xlink:href="#ButtonShadow-0" y1="6.132" y2="90.239" x2="0" gradientUnits="userSpaceOnUse"/>
<linearGradient gradientTransform="matrix(1.01724 0 0 1.01724 -1.10345 -1.10345)" id="linearGradient3848" y1="122" y2="5.425" x2="0" gradientUnits="userSpaceOnUse">
<stop offset="0" stop-color="#969696"/>
<stop offset="1" stop-color="#d2d2d2"/>
</linearGradient>
<linearGradient id="linearGradient3737">
<stop offset="0" stop-color="#fff"/>
<stop offset="1" stop-color="#fff" stop-opacity="0"/>
</linearGradient>
<linearGradient id="linearGradient3188" xlink:href="#linearGradient3737" y1="6" y2="63.893" x2="0" gradientUnits="userSpaceOnUse"/>
<linearGradient id="linearGradient3846" xlink:href="#linearGradient3848" y1="90" y2="5.597" x2="0" gradientUnits="userSpaceOnUse"/>
<linearGradient id="linearGradient3613" xlink:href="#linearGradient3737" y1="20.221" y2="138.661" x2="0" gradientUnits="userSpaceOnUse"/>
<linearGradient id="linearGradient3617" xlink:href="#ButtonColor-7" y1="90" y2="5.988" x2="0" gradientUnits="userSpaceOnUse"/>
<linearGradient gradientTransform="translate(0 -97)" id="linearGradient3721" xlink:href="#ButtonShadow-0" y1="6.132" y2="90.239" x2="0" gradientUnits="userSpaceOnUse"/>
<radialGradient cx="48" cy="90.172" gradientTransform="matrix(1.15731 0 0 .99591 -7.55102 .19713)" r="42" id="radialGradient3619" xlink:href="#linearGradient3737" gradientUnits="userSpaceOnUse"/>
</defs>
<path opacity=".08" fill="url(#linearGradient3780)" d="m12-95.0312c-5.5111,0-10.0312,4.5202-10.0312,10.0312v71c0,5.5111 4.5202,10.0312 10.0312,10.0312h72c5.5111,0 10.0312-4.5202 10.0312-10.0312v-71c0-5.5111-4.5202-10.0312-10.0312-10.0312h-72z" transform="scale(1 -1)"/>
<path opacity=".1" fill="url(#linearGradient3780)" d="m12-94.0312c-4.9716,0-9.0312,4.0596-9.0312,9.0312v71c0,4.9716 4.0596,9.0312 9.0312,9.0312h72c4.9716,0 9.0312-4.0596 9.0312-9.0312v-71c0-4.9716-4.0596-9.0312-9.0312-9.0312h-72z" transform="scale(1 -1)"/>
<path opacity=".2" fill="url(#linearGradient3780)" d="m12-93c-4.4091,0-8,3.5909-8,8v71c0,4.4091 3.5909,8 8,8h72c4.4091,0 8-3.5909 8-8v-71c0-4.4091-3.5909-8-8-8h-72z" transform="scale(1 -1)"/>
<path opacity=".3" fill="url(#linearGradient3780)" d="m12-92h72a7,7 0 0,1 7,7v71a7,7 0 0,1 -7,7h-72a7,7 0 0,1 -7-7v-71a7,7 0 0,1 7-7" transform="scale(1 -1)"/>
<path opacity=".45" fill="url(#linearGradient3721)" d="m12-91h72a6,6 0 0,1 6,6v72a6,6 0 0,1 -6,6h-72a6,6 0 0,1 -6-6v-72a6,6 0 0,1 6-6" transform="scale(1 -1)"/>
<path fill="url(#linearGradient3617)" d="m12,6h72a6,6 0 0,1 6,6v72a6,6 0 0,1 -6,6h-72a6,6 0 0,1 -6-6v-72a6,6 0 0,1 6-6"/>
<path opacity=".5" fill="#fff" filter="url(#filter3879)" d="m115.7812,6c-5.7812,3.1123-9.7188,9.2251-9.7188,16.25 0,10.1815 8.256,18.4375 18.4375,18.4375 10.1815,0 18.4375-8.256 18.4375-18.4375 0-7.0249-3.9376-13.1377-9.7188-16.25h-17.4375zm24.7812,0c4.098,4.1293 6.625,9.8189 6.625,16.0938 0,12.6127-10.231,22.8438-22.8438,22.8438-7.5048,0-14.179-3.6278-18.3438-9.2188v7.875l.2188-.1562 .4375-.5312 2.1875,1.6875-.4062,.5625-.625,1.75-.375,2.7188 1.5625,.875 2.1562-1.6562 1.1875-1.4375 .3125-.625 2.5312,1.0625-.25,.6562-.1562,1.8438 .375,2.7188 1.7188,.4688 1.6875-2.1875 .75-1.6875 .125-.6875 2.75,.375-.0625,.6562 .2812,1.8438 1.0625,2.5312h1.7812l1.0625-2.5312 .3125-1.8438-.0625-.6562 2.7188-.375 .125,.6875 .7812,1.6875 1.6562,2.1875 1.7188-.4688 .375-2.7188-.1875-1.8438-.2188-.6562 2.5312-1.0625 .3125,.625 1.1562,1.4375 2.1875,1.6562 1.5312-.875-.3438-2.7188-.6562-1.75-.375-.5625 2.1875-1.6875 .4375,.5312 1.5,1.0625 2.5625,1.0625 1.25-1.2812-1.0625-2.5312-1.0625-1.5-.5312-.4375 1.6875-2.1875 .5625,.375 1.75,.6562 2.7188,.3438 .875-1.5312-1.6562-2.1875-1.4375-1.1875-.625-.25 1.0625-2.5625 .6562,.2188 1.8438,.1875 2.7188-.375 .4375-1.7188-2.1562-1.6875-1.6875-.75-.6875-.125 .375-2.75 .6875,.0625 1.8125-.3125 2.5312-1.0312v-1.7812l-2.5312-1.0625-1.8125-.3125-.6875,.0625-.375-2.75 .6875-.125 1.6875-.75 2.1562-1.6875-.4375-1.7188-2.7188-.3438-1.8438,.1562-.6562,.25-1.0625-2.5625 .625-.2812 1.4375-1.1875 1.6562-2.1562-.4062-.75h-4.4375l-.5,.1875-.5625,.4062-.4688-.5938h-5.8125zm-16.0625,2.625c7.5315,0 13.625,6.0935 13.625,13.625 0,7.5315-6.0935,13.6562-13.625,13.6562-7.5315,0-13.6562-6.1247-13.6562-13.6562 0-7.5315 6.1247-13.625 13.6562-13.625zm43.5938,28.2188-1.1875,2.8125-.3438,2 .0625,.7812-3.0312,.375-.125-.7188-.8438-1.875-1.875-2.4062-1.875,.5-.4062,3 .1875,2.0625 .25,.6875-2.8125,1.1875-.3125-.6875-1.3125-1.5938-2.4375-1.8438-1.6875,1 .4062,3.0312 .6875,1.875 .4375,.6562-2.4062,1.8438-.5-.5625l-1.6562-1.2188-2.8125-1.125-1.4062,1.375 1.1562,2.8125 1.1875,1.6562 .5938,.5-1.875,2.4375-.625-.4375-1.9062-.7188-3-.4062-1,1.7188 1.8438,2.4062 1.5938,1.3125 .6562,.3125-1.1562,2.8125-.7188-.25-2.0312-.1875-3,.4062-.5312,1.9062 2.4062,1.8438 1.875,.8438 .75,.1562-.4062,3.0312-.75-.0625-2.0312,.3125-2.8125,1.1875v1.9688l2.8125,1.1562 2.0312,.3438 .75-.0625 .4062,3.0312-.75,.1562-1.875,.8125-2.4062,1.875 .5312,1.9062 3,.4062 2.0312-.2188 .7188-.25 1.1562,2.8125-.6562,.3438-1.5938,1.2812-1.8438,2.4375 .25,.4062h5.9375l.3438-.25 .1875,.25h6.2188c-1.2952-1.3752-2.4398-2.8946-3.4062-4.5312l10.9062-5c2.3164,3.2175 6.0148,5.3822 10.2188,5.625l.5312,3.9062h5.2188l-.625-4.5938c3.788-1.2847 6.8314-4.1975 8.2812-7.9062l8.3125,1.5312v-5.2812l-7.375-1.3438c-.0504-4.2336-2.069-7.9862-5.1562-10.4375l5.5-10.6562c2.768,1.8137 5.157,4.157 7.0312,6.875v-9.8438l-.8438,.625-.5,.5625-2.4062-1.8438 .4062-.6562 .75-1.875 .375-3.0312-1.7188-1-2.4062,1.8438-1.2812,1.5938-.3438,.6875-2.8125-1.1875 .25-.6875 .2188-2.0625-.4375-3-1.875-.5-1.875,2.4062-.8438,1.875-.125,.7188-3.0312-.375 .0625-.7812-.3438-2-1.1562-2.8125h-1.9688zm.9688,10.3125c3.2847,0 6.4301,.646 9.3125,1.7812l-5.5,10.625c-1.2095-.3543-2.489-.5312-3.8125-.5312-2.6243,0-5.0802,.7381-7.1562,2.0312l-8.1562-8.7812c4.2606-3.2171 9.5667-5.125 15.3125-5.125zm-48.75,6.3125-.9688,2.0938-.0625,.7188 .1875,1.25-2.25,.5938-.4375-1.1875-.4375-.5938l-1.8438-1.3438-1.0938,.625 .2188,2.2812 .3125,.6562 .7812,1-1.625,1.625-1-.7812-.6562-.3125-2.2812-.2188-.625,1.0625 1.3438,1.8438 .5938,.4375 1.1562,.4688-.5938,2.2188-1.25-.1875-.75,.0625-2.0625,.9375v1.25l2.0625,.9375 .75,.0625 1.25-.1562 .5938,2.2188-1.1875,.4688-.5938,.4062-1.3438,1.875 .5938,1.0625 2.2812-.2188 .6875-.3125 1-.7812 1.625,1.625-.8125,1-.3125,.6875-.2188,2.25 1.0625,.625 1.875-1.3125 .4062-.5938 .5-1.1875 2.2188,.5938-.1875,1.25 .0625,.75 .9375,2.0938h1.2188l.9688-2.0938 .0625-.7188-.1875-1.2812 2.2188-.5625 .4688,1.1562 .4375,.625 1.8438,1.3125 1.0625-.5938-.2188-2.2812-.2812-.6562-.7812-1 1.625-1.625 1,.7812 .6562,.3125 2.2812,.2188 .625-1.0625-1.3438-1.8438-.5938-.4375-1.1875-.4688 .625-2.2188 1.25,.1875 .7188-.0625 2.0938-.9375v-1.25l-2.0625-.9375-.75-.0938-1.25,.1875-.5938-2.2188 1.1875-.4688 .5938-.4375 1.3438-1.8438-.625-1.0625-2.25,.2188-.6875,.3125-1,.7812-1.625-1.6562 .8125-.9688 .2812-.6875 .25-2.25-1.0625-.625-1.875,1.3125-.4375,.5938-.4688,1.1875-2.2188-.5938 .1875-1.2812-.0625-.7188-.9375-2.0938h-1.2188zm29.625,2.3438 8.1562,8.7812c-1.6356,2.2393-2.5938,4.9854-2.5938,7.9688 0,1.1014 .1579,2.1934 .4062,3.2188l-10.9062,4.9688c-.8777-2.5735-1.375-5.3188-1.375-8.1875 0-6.4208 2.3799-12.2752 6.3125-16.75zm-29.0938,8.375c1.8131,0 3.2812,1.4681 3.2812,3.2812 0,1.8131-1.4681,3.2812-3.2812,3.2812-1.8131,0-3.2812-1.4681-3.2812-3.2812 0-1.8131 1.4681-3.2812 3.2812-3.2812zm48.2188,3.2812c2.7895,0 5.0625,2.2418 5.0625,5.0312 0,2.7895-2.273,5.0625-5.0625,5.0625-2.7895,0-5.0312-2.273-5.0312-5.0625 0-2.7895 2.2418-5.0312 5.0312-5.0312z" clip-path="url(#clipPath3836)" transform="translate(-100)"/>
<path fill="url(#linearGradient3846)" d="m15.7812,6c-5.7812,3.1123-9.7188,9.2251-9.7188,16.25 0,10.1815 8.256,18.4375 18.4375,18.4375 10.1815,0 18.4375-8.256 18.4375-18.4375 0-7.0249-3.9376-13.1377-9.7188-16.25h-17.4375zm24.7812,0c4.098,4.1293 6.625,9.8189 6.625,16.0938 0,12.6127-10.231,22.8438-22.8438,22.8438-7.5048,0-14.179-3.6278-18.3438-9.2188v7.875l.2188-.1562 .4375-.5312 2.1875,1.6875-.4062,.5625-.625,1.75-.375,2.7188 1.5625,.875 2.1562-1.6562 1.1875-1.4375 .3125-.625 2.5312,1.0625-.25,.6562-.1562,1.8438 .375,2.7188 1.7188,.4688 1.6875-2.1875 .75-1.6875 .125-.6875 2.75,.375-.0625,.6562 .2812,1.8438 1.0625,2.5312h1.7812l1.0625-2.5312 .3125-1.8438-.0625-.6562 2.7188-.375 .125,.6875 .7812,1.6875 1.6562,2.1875 1.7188-.4688 .375-2.7188-.1875-1.8438-.2188-.6562 2.5312-1.0625 .3125,.625 1.1562,1.4375 2.1875,1.6562 1.5312-.875-.3438-2.7188-.6562-1.75-.375-.5625 2.1875-1.6875 .4375,.5312 1.5,1.0625 2.5625,1.0625 1.25-1.2812-1.0625-2.5312-1.0625-1.5-.5312-.4375 1.6875-2.1875 .5625,.375 1.75,.6562 2.7188,.3438 .875-1.5312-1.6562-2.1875-1.4375-1.1875-.625-.25 1.0625-2.5625 .6562,.2188 1.8438,.1875 2.7188-.375 .4375-1.7188-2.1562-1.6875-1.6875-.75-.6875-.125 .375-2.75 .6875,.0625 1.8125-.3125 2.5312-1.0312v-1.7812l-2.5312-1.0625-1.8125-.3125-.6875,.0625-.375-2.75 .6875-.125 1.6875-.75 2.1562-1.6875-.4375-1.7188-2.7188-.3438-1.8438,.1562-.6562,.25-1.0625-2.5625 .625-.2812 1.4375-1.1875 1.6562-2.1562-.4062-.75h-4.4375l-.5,.1875-.5625,.4062-.4688-.5938h-5.8125zm-16.0625,2.625c7.5315,0 13.625,6.0935 13.625,13.625 0,7.5315-6.0935,13.6562-13.625,13.6562-7.5315,0-13.6562-6.1247-13.6562-13.6562 0-7.5315 6.1247-13.625 13.6562-13.625zm43.5938,28.2188-1.1875,2.8125-.3438,2 .0625,.7812-3.0312,.375-.125-.7188-.8438-1.875-1.875-2.4062-1.875,.5-.4062,3 .1875,2.0625 .25,.6875-2.8125,1.1875-.3125-.6875-1.3125-1.5938-2.4375-1.8438-1.6875,1 .4062,3.0312 .6875,1.875 .4375,.6562-2.4062,1.8438-.5-.5625l-1.6562-1.2188-2.8125-1.125-1.4062,1.375 1.1562,2.8125 1.1875,1.6562 .5938,.5-1.875,2.4375-.625-.4375-1.9062-.7188-3-.4062-1,1.7188 1.8438,2.4062 1.5938,1.3125 .6562,.3125-1.1562,2.8125-.7188-.25-2.0312-.1875-3,.4062-.5312,1.9062 2.4062,1.8438 1.875,.8438 .75,.1562-.4062,3.0312-.75-.0625-2.0312,.3125-2.8125,1.1875v1.9688l2.8125,1.1562 2.0312,.3438 .75-.0625 .4062,3.0312-.75,.1562-1.875,.8125-2.4062,1.875 .5312,1.9062 3,.4062 2.0312-.2188 .7188-.25 1.1562,2.8125-.6562,.3438-1.5938,1.2812-1.8438,2.4375 .25,.4062h5.9375l.3438-.25 .1875,.25h6.2188c-1.2952-1.3752-2.4398-2.8946-3.4062-4.5312l10.9062-5c2.3164,3.2175 6.0148,5.3822 10.2188,5.625l.5312,3.9062h5.2188l-.625-4.5938c3.788-1.2847 6.8314-4.1975 8.2812-7.9062l8.3125,1.5312v-5.2812l-7.375-1.3438c-.0504-4.2336-2.0689-7.9862-5.1562-10.4375l5.5-10.6562c2.768,1.8137 5.157,4.157 7.0312,6.875v-9.8438l-.8438,.625-.5,.5625-2.4062-1.8438 .4062-.6562 .75-1.875 .375-3.0312-1.7188-1-2.4062,1.8438-1.2812,1.5938-.3438,.6875-2.8125-1.1875 .25-.6875 .2188-2.0625-.4375-3-1.875-.5-1.875,2.4062-.8438,1.875-.125,.7188-3.0312-.375 .0625-.7812-.3438-2-1.1562-2.8125h-1.9688zm.9688,10.3125c3.2847,0 6.4301,.646 9.3125,1.7812l-5.5,10.625c-1.2094-.3543-2.489-.5312-3.8125-.5312-2.6243,0-5.0801,.7381-7.1562,2.0312l-8.1562-8.7812c4.2606-3.2171 9.5667-5.125 15.3125-5.125zm-48.75,6.3125-.9688,2.0938-.0625,.7188 .1875,1.25-2.25,.5938-.4375-1.1875-.4375-.5938l-1.8438-1.3438-1.0938,.625 .2188,2.2812 .3125,.6562 .7812,1-1.625,1.625-1-.7812-.6562-.3125-2.2812-.2188-.625,1.0625 1.3438,1.8438 .5938,.4375 1.1562,.4688-.5938,2.2188-1.25-.1875-.75,.0625-2.0625,.9375v1.25l2.0625,.9375 .75,.0625 1.25-.1562 .5938,2.2188-1.1875,.4688-.5938,.4062-1.3438,1.875 .5938,1.0625 2.2812-.2188 .6875-.3125 1-.7812 1.625,1.625-.8125,1-.3125,.6875-.2188,2.25 1.0625,.625 1.875-1.3125 .4062-.5938 .5-1.1875 2.2188,.5938-.1875,1.25 .0625,.75 .9375,2.0938h1.2188l.9688-2.0938 .0625-.7188-.1875-1.2812 2.2188-.5625 .4688,1.1562 .4375,.625 1.8438,1.3125 1.0625-.5938-.2188-2.2812-.2812-.6562-.7812-1 1.625-1.625 1,.7812 .6562,.3125 2.2812,.2188 .625-1.0625-1.3438-1.8438-.5938-.4375-1.1875-.4688 .625-2.2188 1.25,.1875 .7188-.0625 2.0938-.9375v-1.25l-2.0625-.9375-.75-.0938-1.25,.1875-.5938-2.2188 1.1875-.4688 .5938-.4375 1.3438-1.8438-.625-1.0625-2.25,.2188-.6875,.3125-1,.7812-1.625-1.6562 .8125-.9688 .2812-.6875 .25-2.25-1.0625-.625-1.875,1.3125-.4375,.5938-.4688,1.1875-2.2188-.5938 .1875-1.2812-.0625-.7188-.9375-2.0938h-1.2188zm29.625,2.3438 8.1562,8.7812c-1.6356,2.2393-2.5938,4.9854-2.5938,7.9688 0,1.1014 .1579,2.1934 .4062,3.2188l-10.9062,4.9688c-.8777-2.5735-1.375-5.3188-1.375-8.1875 0-6.4208 2.3799-12.2752 6.3125-16.75zm-29.0938,8.375c1.8131,0 3.2812,1.4681 3.2812,3.2812 0,1.8131-1.4681,3.2812-3.2812,3.2812-1.8131,0-3.2812-1.4681-3.2812-3.2812 0-1.8131 1.4681-3.2812 3.2812-3.2812zm48.2188,3.2812c2.7895,0 5.0625,2.2418 5.0625,5.0312 0,2.7895-2.273,5.0625-5.0625,5.0625-2.7895,0-5.0312-2.273-5.0312-5.0625 0-2.7895 2.2418-5.0312 5.0312-5.0312z"/>
<path opacity=".2" fill="none" filter="url(#filter3875)" stroke="#000" stroke-width="1.5" d="m115.7812,6.5c-5.7812,3.1123-9.7188,9.2251-9.7188,16.25 0,10.1815 8.256,18.4375 18.4375,18.4375 10.1815,0 18.4375-8.256 18.4375-18.4375 0-7.0249-3.9376-13.1377-9.7188-16.25h-17.4375zm24.7812,0c4.098,4.1293 6.625,9.8189 6.625,16.0938 0,12.6127-10.231,22.8438-22.8438,22.8438-7.5048,0-14.179-3.6278-18.3438-9.2188v7.875l.2188-.1562 .4375-.5312 2.1875,1.6875-.4062,.5625-.625,1.75-.375,2.7188 1.5625,.875 2.1562-1.6562 1.1875-1.4375 .3125-.625 2.5312,1.0625-.25,.6562-.1562,1.8438 .375,2.7188 1.7188,.4688 1.6875-2.1875 .75-1.6875 .125-.6875 2.75,.375-.0625,.6562 .2812,1.8438 1.0625,2.5312h1.7812l1.0625-2.5312 .3125-1.8438-.0625-.6562 2.7188-.375 .125,.6875 .7812,1.6875 1.6562,2.1875 1.7188-.4688 .375-2.7188-.1875-1.8438-.2188-.6562 2.5312-1.0625 .3125,.625 1.1562,1.4375 2.1875,1.6562 1.5312-.875-.3438-2.7188-.6562-1.75-.375-.5625 2.1875-1.6875 .4375,.5312 1.5,1.0625 2.5625,1.0625 1.25-1.2812-1.0625-2.5312-1.0625-1.5-.5312-.4375 1.6875-2.1875 .5625,.375 1.75,.6562 2.7188,.3438 .875-1.5312-1.6562-2.1875-1.4375-1.1875-.625-.25 1.0625-2.5625 .6562,.2188 1.8438,.1875 2.7188-.375 .4375-1.7188-2.1562-1.6875-1.6875-.75-.6875-.125 .375-2.75 .6875,.0625 1.8125-.3125 2.5312-1.0312v-1.7812l-2.5312-1.0625-1.8125-.3125-.6875,.0625-.375-2.75 .6875-.125 1.6875-.75 2.1562-1.6875-.4375-1.7188-2.7188-.3438-1.8438,.1562-.6562,.25-1.0625-2.5625 .625-.2812 1.4375-1.1875 1.6562-2.1562-.4062-.75h-4.4375l-.5,.1875-.5625,.4062-.4688-.5938h-5.8125zm-16.0625,2.625c7.5315,0 13.625,6.0935 13.625,13.625 0,7.5315-6.0935,13.6562-13.625,13.6562-7.5315,0-13.6562-6.1247-13.6562-13.6562 0-7.5315 6.1247-13.625 13.6562-13.625zm43.5938,28.2188-1.1875,2.8125-.3438,2 .0625,.7812-3.0312,.375-.125-.7188-.8438-1.875-1.875-2.4062-1.875,.5-.4062,3 .1875,2.0625 .25,.6875-2.8125,1.1875-.3125-.6875-1.3125-1.5938-2.4375-1.8438-1.6875,1 .4062,3.0312 .6875,1.875 .4375,.6562-2.4062,1.8438-.5-.5625l-1.6562-1.2188-2.8125-1.125-1.4062,1.375 1.1562,2.8125 1.1875,1.6562 .5938,.5-1.875,2.4375-.625-.4375-1.9062-.7188-3-.4062-1,1.7188 1.8438,2.4062 1.5938,1.3125 .6562,.3125-1.1562,2.8125-.7188-.25-2.0312-.1875-3,.4062-.5312,1.9062 2.4062,1.8438 1.875,.8438 .75,.1562-.4062,3.0312-.75-.0625-2.0312,.3125-2.8125,1.1875v1.9688l2.8125,1.1562 2.0312,.3438 .75-.0625 .4062,3.0312-.75,.1562-1.875,.8125-2.4062,1.875 .5312,1.9062 3,.4062 2.0312-.2188 .7188-.25 1.1562,2.8125-.6562,.3438-1.5938,1.2812-1.8438,2.4375 .25,.4062h5.9375l.3438-.25 .1875,.25h6.2188c-1.2952-1.3752-2.4398-2.8946-3.4062-4.5312l10.9062-5c2.3164,3.2175 6.0148,5.3822 10.2188,5.625l.5312,3.9062h5.2188l-.625-4.5938c3.788-1.2847 6.8314-4.1975 8.2812-7.9062l8.3125,1.5312v-5.2812l-7.375-1.3438c-.0504-4.2336-2.069-7.9862-5.1562-10.4375l5.5-10.6562c2.768,1.8137 5.157,4.157 7.0312,6.875v-9.8438l-.8438,.625-.5,.5625-2.4062-1.8438 .4062-.6562 .75-1.875 .375-3.0312-1.7188-1-2.4062,1.8438-1.2812,1.5938-.3438,.6875-2.8125-1.1875 .25-.6875 .2188-2.0625-.4375-3-1.875-.5-1.875,2.4062-.8438,1.875-.125,.7188-3.0312-.375 .0625-.7812-.3438-2-1.1562-2.8125h-1.9688zm.9688,10.3125c3.2847,0 6.4301,.646 9.3125,1.7812l-5.5,10.625c-1.2095-.3543-2.489-.5312-3.8125-.5312-2.6243,0-5.0802,.7381-7.1562,2.0312l-8.1562-8.7812c4.2606-3.2171 9.5667-5.125 15.3125-5.125zm-48.75,6.3125-.9688,2.0938-.0625,.7188 .1875,1.25-2.25,.5938-.4375-1.1875-.4375-.5938l-1.8438-1.3438-1.0938,.625 .2188,2.2812 .3125,.6562 .7812,1-1.625,1.625-1-.7812-.6562-.3125-2.2812-.2188-.625,1.0625 1.3438,1.8438 .5938,.4375 1.1562,.4688-.5938,2.2188-1.25-.1875-.75,.0625-2.0625,.9375v1.25l2.0625,.9375 .75,.0625 1.25-.1562 .5938,2.2188-1.1875,.4688-.5938,.4062-1.3438,1.875 .5938,1.0625 2.2812-.2188 .6875-.3125 1-.7812 1.625,1.625-.8125,1-.3125,.6875-.2188,2.25 1.0625,.625 1.875-1.3125 .4062-.5938 .5-1.1875 2.2188,.5938-.1875,1.25 .0625,.75 .9375,2.0938h1.2188l.9688-2.0938 .0625-.7188-.1875-1.2812 2.2188-.5625 .4688,1.1562 .4375,.625 1.8438,1.3125 1.0625-.5938-.2188-2.2812-.2812-.6562-.7812-1 1.625-1.625 1,.7812 .6562,.3125 2.2812,.2188 .625-1.0625-1.3438-1.8438-.5938-.4375-1.1875-.4688 .625-2.2188 1.25,.1875 .7188-.0625 2.0938-.9375v-1.25l-2.0625-.9375-.75-.0938-1.25,.1875-.5938-2.2188 1.1875-.4688 .5938-.4375 1.3438-1.8438-.625-1.0625-2.25,.2188-.6875,.3125-1,.7812-1.625-1.6562 .8125-.9688 .2812-.6875 .25-2.25-1.0625-.625-1.875,1.3125-.4375,.5938-.4688,1.1875-2.2188-.5938 .1875-1.2812-.0625-.7188-.9375-2.0938h-1.2188zm29.625,2.3438 8.1562,8.7812c-1.6356,2.2393-2.5938,4.9854-2.5938,7.9688 0,1.1014 .1579,2.1934 .4062,3.2188l-10.9062,4.9688c-.8777-2.5735-1.375-5.3188-1.375-8.1875 0-6.4208 2.3799-12.2752 6.3125-16.75zm-29.0938,8.375c1.8131,0 3.2812,1.4681 3.2812,3.2812 0,1.8131-1.4681,3.2812-3.2812,3.2812-1.8131,0-3.2812-1.4681-3.2812-3.2812 0-1.8131 1.4681-3.2812 3.2812-3.2812zm48.2188,3.2812c2.7895,0 5.0625,2.2418 5.0625,5.0312 0,2.7895-2.273,5.0625-5.0625,5.0625-2.7895,0-5.0312-2.273-5.0312-5.0625 0-2.7895 2.2418-5.0312 5.0312-5.0312z" clip-path="url(#clipPath3867)" transform="translate(-100)"/>
<path d="m-51.9062,36.8438-1.1875,2.8125-.3438,2 .0625,.7812-3.0312,.375-.125-.7188-.8438-1.875-1.875-2.4062-1.875,.5-.4062,3 .1875,2.0625 .25,.6875-2.8125,1.1875-.3125-.6875-1.3125-1.5938-2.4375-1.8438-1.6875,1 .4062,3.0312 .6875,1.875 .4375,.6562-2.4062,1.8438-.5-.5625l-1.6562-1.2188-2.8125-1.125-1.4062,1.375 1.1562,2.8125 1.1875,1.6562 .5938,.5-1.875,2.4375-.625-.4375-1.9062-.7188-3-.4062-1,1.7188 1.8438,2.4062 1.5938,1.3125 .6562,.3125-1.1562,2.8125-.7188-.25-2.0312-.1875-3,.4062-.5312,1.9062 2.4062,1.8438 1.875,.8438 .75,.1562-.4062,3.0312-.75-.0625-2.0312,.3125-2.8125,1.1875v1.9688l2.8125,1.1562 2.0312,.3438 .75-.0625 .4062,3.0312-.75,.1562-1.875,.8125-2.4062,1.875 .5312,1.9062 3,.4062 2.0312-.2188 .7188-.25 1.1562,2.8125-.6562,.3438-1.5938,1.2812-1.8438,2.4375 1,1.6875 3-.375 1.9062-.7188 .625-.4375 1.875,2.4062-.5938,.5-1.1875,1.6875-1.1562,2.8125 1.4062,1.375 2.8125-1.1562 1.6562-1.1875 .5-.5625 2.4062,1.8438-.4375,.625-.6875,1.9062-.4062,3.0312 1.6875,.9688 2.4375-1.8125 1.3125-1.5938 .3125-.6875 2.8125,1.1562-.25,.7188-.1875,2.0312 .4062,3.0312 1.875,.5 1.875-2.4062 .8438-1.875 .125-.75 3.0312,.4062-.0625,.75 .3438,2.0312 1.1875,2.8125h1.9688l1.1562-2.8125 .3438-2.0312-.0625-.75 3.0312-.4062 .125,.75 .8438,1.875 1.875,2.4062 1.875-.5 .4375-3.0312-.2188-2.0312-.25-.7188 2.8125-1.1562 .3438,.6875 1.2812,1.5938 2.4062,1.8125 1.7188-.9688-.375-3.0312-.75-1.9062-.4062-.625 2.4062-1.8438 .5,.5625 1.6562,1.1875 2.8125,1.1562 1.4062-1.375-1.1562-2.8125-1.1875-1.6875-.5938-.5 1.875-2.4062 .625,.4375 1.9062,.7188 3.0312,.375 .9688-1.6875-1.8438-2.4375-1.5938-1.2812-.6875-.3438 1.1875-2.8125 .7188,.25 2.0312,.2188 3-.4062 .5312-1.9062-2.4375-1.875-1.8438-.8125-.75-.1562 .4062-3.0312 .75,.0625 2.0312-.3438 2.7812-1.1562v-1.9688l-2.7812-1.1875-2.0312-.3125-.75,.0625-.4062-3.0312 .75-.1562 1.8438-.8438 2.4375-1.8438-.5312-1.9062-3-.4062-2.0312,.1875-.7188,.25-1.1875-2.8125 .6875-.3125 1.5938-1.3125 1.8438-2.4062-.9688-1.7188-3.0312,.4062-1.9062,.7188-.625,.4375-1.875-2.4375 .5938-.5 1.1875-1.6562 1.1562-2.8125-1.4062-1.375-2.8125,1.125-1.6562,1.2188-.5,.5625-2.4062-1.8438 .4062-.6562 .75-1.875 .375-3.0312-1.7188-1-2.4062,1.8438-1.2812,1.5938-.3438,.6875-2.8125-1.1875 .25-.6875 .2188-2.0625-.4375-3-1.875-.5-1.875,2.4062-.8438,1.875-.125,.7188-3.0312-.375 .0625-.7812-.3438-2-1.1562-2.8125h-1.9688zm.9688,10.3125c3.2847,0 6.4301,.646 9.3125,1.7812l-5.5,10.625c-1.2094-.3543-2.489-.5312-3.8125-.5312-2.6243,0-5.0801,.7381-7.1562,2.0312l-8.1562-8.7812c4.2606-3.2171 9.5667-5.125 15.3125-5.125zm13.9062,4.1562c6.9297,4.5405 11.5,12.3497 11.5,21.25 0,.6647-.0124,1.3168-.0625,1.9688l-11.7812-2.125c-.0504-4.2336-2.0689-7.9862-5.1562-10.4375l5.5-10.6562zm-33.0312,4.5 8.1562,8.7812c-1.6356,2.2393-2.5938,4.9854-2.5938,7.9688 0,1.1014 .1579,2.1934 .4062,3.2188l-10.9062,4.9688c-.8777-2.5735-1.375-5.3188-1.375-8.1875 0-6.4208 2.3799-12.2752 6.3125-16.75zm19.125,11.6562c2.7895,0 5.0625,2.2418 5.0625,5.0312 0,2.7895-2.273,5.0625-5.0625,5.0625-2.7895,0-5.0312-2.273-5.0312-5.0625 0-2.7895 2.2418-5.0312 5.0312-5.0312zm12.625,10.0312 11.7812,2.1562c-2.5209,8.72-9.5631,15.5199-18.4375,17.6562l-1.625-11.9062c3.788-1.2847 6.8314-4.1975 8.2812-7.9062zm-23.625,2.9688c2.3164,3.2175 6.0148,5.3822 10.2188,5.625l1.5938,11.9062c-.2692,.009-.5413,0-.8125,0-9.3261,0-17.4801-5.0356-21.9062-12.5312l10.9062-5z"/>
<path d="m-96.5312-10.1562-1.0625,2.5-.2812,1.8438 .0625,.6875-2.75,.375-.125-.6875-.75-1.6875-1.6875-2.1875-1.7188,.4688-.375,2.7188 .1562,1.8438 .25,.625-2.5312,1.0625-.3125-.625-1.1875-1.4062-2.1562-1.6875-1.5625,.9062 .375,2.7188 .625,1.75 .4062,.5625-2.1875,1.6875-.4375-.5312-1.5-1.0938-2.5625-1.0312-1.25,1.25 1.0312,2.5625 1.0938,1.5 .5,.4375-1.6562,2.1875-.5625-.4062-1.75-.6562-2.7188-.3438-.875,1.5625 1.6562,2.1562 1.4375,1.1875 .625,.2812-1.0625,2.5625-.6562-.25-1.8438-.1562-2.7188,.3438-.4688,1.7188 2.1875,1.6875 1.6875,.75 .6562,.125-.3438,2.75-.6875-.0625-1.8125,.3125-2.5312,1.0625 0,1.7812 2.5312,1.0312 1.8125,.3125 .6875-.0625 .3438,2.75-.6562,.125-1.6875,.75-2.1875,1.6875 .4688,1.7188 2.7188,.375 1.8438-.1875 .6562-.2188 1.0625,2.5625-.625,.25-1.4375,1.1875-1.6562,2.1875 .875,1.5312 2.7188-.3438 1.75-.6562 .5625-.375 1.6562,2.1875-.5,.4375-1.0938,1.5-1.0312,2.5312 1.25,1.2812 2.5625-1.0625 1.5-1.0625 .4375-.5312 2.1875,1.6875-.4062,.5625-.625,1.75-.375,2.7188 1.5625,.875 2.1562-1.6562 1.1875-1.4375 .3125-.625 2.5312,1.0625-.25,.6562-.1562,1.8438 .375,2.7188 1.7188,.4688 1.6875-2.1875 .75-1.6875 .125-.6875 2.75,.375l-.0625,.6562 .2812,1.8438 1.0625,2.5312h1.7812l1.0625-2.5312 .3125-1.8438-.0625-.6562 2.7188-.375 .125,.6875 .7812,1.6875 1.6562,2.1875 1.7188-.4688 .375-2.7188-.1875-1.8438-.2188-.6562 2.5312-1.0625 .3125,.625 1.1562,1.4375 2.1875,1.6562 1.5312-.875-.3438-2.7188-.6562-1.75-.375-.5625 2.1875-1.6875 .4375,.5312 1.5,1.0625 2.5625,1.0625 1.25-1.2812-1.0625-2.5312-1.0625-1.5-.5312-.4375 1.6875-2.1875 .5625,.375 1.75,.6562 2.7188,.3438 .875-1.5312-1.6562-2.1875-1.4375-1.1875-.625-.25 1.0625-2.5625 .6562,.2188 1.8438,.1875 2.7188-.375 .4375-1.7188-2.1562-1.6875-1.6875-.75-.6875-.125 .375-2.75 .6875,.0625 1.8125-.3125 2.5312-1.0312v-1.7812l-2.5312-1.0625-1.8125-.3125-.6875,.0625-.375-2.75 .6875-.125 1.6875-.75 2.1562-1.6875-.4375-1.7188-2.7188-.3438-1.8438,.1562-.6562,.25-1.0625-2.5625 .625-.2812 1.4375-1.1875 1.6562-2.1562-.875-1.5625-2.7188,.3438-1.75,.6562-.5625,.4062-1.6875-2.1875 .5312-.4375 1.0625-1.5 1.0625-2.5625-1.25-1.25-2.5625,1.0312-1.5,1.0938-.4375,.5312-2.1875-1.6875 .375-.5625 .6562-1.75 .3438-2.7188-1.5312-.9062-2.1875,1.6875-1.1562,1.4062-.3125,.625-2.5312-1.0625 .2188-.625 .1875-1.8438-.375-2.7188-1.7188-.4688-1.6562,2.1875-.7812,1.6875-.125,.6875-2.7188-.375 .0625-.6875-.3125-1.8438-1.0625-2.5h-1.7812zm.875,9.4062c12.6127,0 22.8438,10.231 22.8438,22.8438 0,12.6127-10.231,22.8438-22.8438,22.8438-12.6127,0-22.8438-10.231-22.8438-22.8438 0-12.6127 10.231-22.8438 22.8438-22.8438zm.1562,4.5625c-10.1815,0-18.4375,8.256-18.4375,18.4375 0,10.1815 8.256,18.4375 18.4375,18.4375 10.1815,0 18.4375-8.256 18.4375-18.4375 0-10.1815-8.256-18.4375-18.4375-18.4375zm0,4.8125c7.5315,0 13.625,6.0935 13.625,13.625 0,7.5315-6.0935,13.6562-13.625,13.6562-7.5315,0-13.6562-6.1247-13.6562-13.6562 0-7.5315 6.1247-13.625 13.6562-13.625z"/>
<path d="m-99.6875,53.4688-.9688,2.0938-.0625,.7188 .1875,1.25-2.25,.5938-.4375-1.1875-.4375-.5938l-1.8438-1.3438-1.0938,.625 .2188,2.2812 .3125,.6562 .7812,1-1.625,1.625-1-.7812-.6562-.3125-2.2812-.2188-.625,1.0625 1.3438,1.8438 .5938,.4375 1.1562,.4688-.5938,2.2188-1.25-.1875-.75,.0625-2.0625,.9375v1.25l2.0625,.9375 .75,.0625 1.25-.1562 .5938,2.2188-1.1875,.4688-.5938,.4062-1.3438,1.875 .5938,1.0625 2.2812-.2188 .6875-.3125 1-.7812 1.625,1.625-.8125,1-.3125,.6875-.2188,2.25 1.0625,.625 1.875-1.3125 .4062-.5938 .5-1.1875 2.2188,.5938-.1875,1.25 .0625,.75 .9375,2.0938h1.2188l.9688-2.0938 .0625-.7188-.1875-1.2812 2.2188-.5625 .4688,1.1562 .4375,.625 1.8438,1.3125 1.0625-.5938-.2188-2.2812-.2812-.6562-.7812-1 1.625-1.625 1,.7812 .6562,.3125 2.2812,.2188 .625-1.0625-1.3438-1.8438-.5938-.4375-1.1875-.4688 .625-2.2188 1.25,.1875 .7188-.0625 2.0938-.9375v-1.25l-2.0625-.9375-.75-.0938-1.25,.1875-.5938-2.2188 1.1875-.4688 .5938-.4375 1.3438-1.8438-.625-1.0625-2.25,.2188-.6875,.3125-1,.7812-1.625-1.6562 .8125-.9688 .2812-.6875 .25-2.25-1.0625-.625-1.875,1.3125-.4375,.5938-.4688,1.1875-2.2188-.5938 .1875-1.2812-.0625-.7188-.9375-2.0938h-1.2188zm.5312,10.7188c1.8131,0 3.2812,1.4681 3.2812,3.2812 0,1.8131-1.4681,3.2812-3.2812,3.2812-1.8131,0-3.2812-1.4681-3.2812-3.2812 0-1.8131 1.4681-3.2812 3.2812-3.2812z"/>
<path d="m12,106h72a6,6 0 0,1 6,6v72a6,6 0 0,1 -6,6h-72a6,6 0 0,1 -6-6v-72a6,6 0 0,1 6-6"/>
<path opacity=".1" fill="url(#linearGradient3613)" filter="url(#filter3794)" stroke="#fff" stroke-linecap="round" stroke-width=".5" d="m27,15h42a12,12 0 0,1 12,12v42a12,12 0 0,1 -12,12h-42a12,12 0 0,1 -12-12v-42a12,12 0 0,1 12-12" clip-path="url(#clipPath3613)"/>
<path opacity=".5" fill="url(#linearGradient3188)" d="m12,6c-3.324,0-6,2.676-6,6v2 68 2c0,.3347 .0413,.6507 .0938,.9688 .0487,.2956 .097,.5969 .1875,.875 .0099,.0304 .0209,.0636 .0312,.0938 .0989,.2878 .2349,.5475 .375,.8125 .1446,.2735 .3156,.5356 .5,.7812 .1844,.2456 .3738,.4735 .5938,.6875 .4399,.4281 .9429,.8145 1.5,1.0938 .2785,.1396 .5735,.2469 .875,.3438-.2562-.1002-.4867-.2363-.7188-.375-.0074-.0044-.0239,.0045-.0312,0-.0319-.0193-.0623-.0425-.0938-.0625-.1204-.0767-.231-.1635-.3438-.25-.1062-.0808-.2133-.1611-.3125-.25-.1779-.1614-.3475-.3454-.5-.5312-.1076-.1303-.2184-.2653-.3125-.4062-.0251-.0384-.0384-.0859-.0625-.125-.0648-.103-.1302-.2045-.1875-.3125-.101-.1947-.2057-.4157-.2812-.625-.008-.0218-.0236-.0405-.0312-.0625-.0318-.0919-.0358-.1868-.0625-.2812-.0303-.1066-.0704-.203-.0938-.3125-.0729-.3415-.125-.6982-.125-1.0625v-2-68-2c0-2.7818 2.2182-5 5-5h2 68 2c2.7818,0 5,2.2182 5,5v2 68 2c0,.3643-.0521,.721-.125,1.0625-.0442,.2069-.0884,.3977-.1562,.5938-.0077,.022-.0233,.0407-.0312,.0625-.0627,.1737-.1384,.3674-.2188,.5312-.0416,.0828-.079,.17-.125,.25-.0546,.0972-.1268,.1883-.1875,.2812-.0941,.141-.2049,.276-.3125,.4062-.1432,.1744-.3031,.347-.4688,.5-.0112,.0102-.02,.0212-.0312,.0312-.1384,.1256-.2851,.2344-.4375,.3438-.1026,.0731-.2043,.1534-.3125,.2188-.0074,.0045-.0238-.0044-.0312,0-.232,.1387-.4625,.2748-.7188,.375 .3015-.0968 .5965-.2041 .875-.3438 .5571-.2792 1.0601-.6657 1.5-1.0938 .22-.214 .4094-.4419 .5938-.6875 .1844-.2456 .3554-.5077 .5-.7812 .1401-.265 .2761-.5247 .375-.8125 .0104-.0308 .0213-.0627 .0312-.0938 .0905-.2781 .1388-.5794 .1875-.875 .0524-.318 .0938-.634 .0938-.9688v-2-68-2c0-3.324-2.676-6-6-6h-72z"/>
<path opacity=".2" fill="url(#radialGradient3619)" d="m12,90c-3.324,0-6-2.676-6-6v-2-68-2c0-.3347 .0413-.6507 .0938-.9688 .0487-.2956 .097-.5969 .1875-.875 .0099-.0304 .0209-.0636 .0312-.0938 .0989-.2878 .2349-.5475 .375-.8125 .1446-.2735 .3156-.5356 .5-.7812 .1844-.2456 .3738-.4735 .5938-.6875 .4399-.4281 .9429-.8145 1.5-1.0938 .2785-.1396 .5735-.2469 .875-.3438-.2562,.1002-.4867,.2363-.7188,.375-.0074,.0044-.0239-.0045-.0312,0-.0319,.0193-.0623,.0425-.0938,.0625-.1204,.0767-.231,.1635-.3438,.25-.1062,.0808-.2133,.1611-.3125,.25-.1779,.1614-.3475,.3454-.5,.5312-.1076,.1303-.2184,.2653-.3125,.4062-.0251,.0384-.0384,.0859-.0625,.125-.0648,.103-.1302,.2045-.1875,.3125-.101,.1947-.2057,.4157-.2812,.625-.008,.0218-.0236,.0405-.0312,.0625-.0318,.092-.0358,.1868-.0625,.2812-.0303,.1066-.0704,.203-.0938,.3125-.0729,.3415-.125,.6982-.125,1.0625v2 68 2c0,2.7818 2.2182,5 5,5h2 68 2c2.7818,0 5-2.2182 5-5v-2-68-2c0-.3643-.0521-.721-.125-1.0625-.0442-.2069-.0884-.3977-.1562-.5938-.0077-.022-.0233-.0407-.0312-.0625-.0627-.1737-.1384-.3674-.2188-.5312-.0416-.0828-.079-.17-.125-.25-.0546-.0972-.1268-.1883-.1875-.2812-.0941-.141-.2049-.276-.3125-.4062-.1432-.1745-.3031-.347-.4688-.5-.0112-.0102-.02-.0211-.0312-.0312-.1384-.1256-.2851-.2344-.4375-.3438-.1026-.0732-.2043-.1534-.3125-.2188-.0074-.0045-.0238,.0044-.0312,0-.232-.1387-.4625-.2748-.7188-.375 .3015,.0968 .5965,.2041 .875,.3438 .5571,.2792 1.0601,.6657 1.5,1.0938 .22,.214 .4094,.4419 .5938,.6875 .1844,.2456 .3554,.5077 .5,.7812 .1401,.265 .2761,.5247 .375,.8125 .0104,.0308 .0213,.0627 .0312,.0938 .0905,.2781 .1388,.5794 .1875,.875 .0524,.318 .0938,.634 .0938,.9688v2 68 2c0,3.324-2.676,6-6,6h-72z"/>
</svg>
