<svg xmlns="http://www.w3.org/2000/svg" viewBox="0 0 128 128" xmlns:xlink="http://www.w3.org/1999/xlink">
<defs>
<linearGradient id="linearGradient3048">
<stop offset="0" stop-color="#a90c0c"/>
<stop offset="1" stop-color="#f05530"/>
</linearGradient>
<linearGradient gradientTransform="matrix(.97824 0 0 .99674 3.05893 .703)" id="linearGradient3117" xlink:href="#linearGradient3048" y1="127.98" y2="2.003" x1="92.802" x2="92.58" gradientUnits="userSpaceOnUse"/>
</defs>
<path fill="url(#linearGradient3117)" fill-rule="evenodd" stroke="#720000" stroke-width=".987" d="m13.5057,114.9015 16.3377-12.348 5.8903-4.89 7.8021-7.0155 .0283-.037 20.1066,21.0435-8.7704-16.4905 1.2535-.6073 60.2135,20.7775-9.1004-9.8937-9.7045-10.0955-7.3511-7.4292 21.9487-22.2007-16.3655,9.6216-.5451-1.2678 21.269-61.8276-6.3362,6.5386-9.0906,9.2464-11.6043,11.7877-.0962,.1255-20.1855-21.1278 8.7704,16.4905-1.2542,.6067-61.6135-23.2656 8.2996,9.2707 4.5034,5.1174 14.8245,15.5915-21.8712,22.1218 16.3649-9.6209 .5445,1.2685-11.4674,25.7319-4.2004,10.7874zm35.294-56.33 .8261,2.7338-3.3754,23.4082 .2471,.7078-11.2815-4.3472 7.1546-22.5008 .943,.2975 1.4904,5.5227 3.9957-5.8219zm9.9665,30.1963 5.4281-1.7334-5.5222-3.9003 2.6909-.9497 22.658,2.6245 2.1407-.861-4.998,12.6743-22.7218-6.8747 .3243-.9798zm-4.0191-2.4127-2.4457,1.3017-4.201-1.6184 3.0304-2.9798 .1633-.2859 3.453,3.5823zm-23.3857,10.4946-.9639-.6178 4.6284-14.5582 7.3059,7.6475-10.9704,7.5285zm63.9287,2.84-.6359,1.0148-13.152-3.9789 7.2877-7.3706 6.5002,10.3348zm-6.8946-21.4054-2.1668,5.4935-3.315-3.5748 4.3029-4.3875 1.1789,2.4687zm-4.1714-6.3929-.8261-2.7337 3.376-23.4089-.2228-.6347 11.2387,4.3305-7.136,22.4444-.9437-.2981-1.4898-5.5234-3.9962,5.8239zm-10.1143-30.1906-5.4288,1.7328 5.5222,3.9003-2.6909,.9497-22.6574-2.6252-1.9667,.7911 4.9543-12.5649 22.5908,6.8346-.3235,.9817zm4.0204,2.4126 2.4451-1.3023 4.3038,1.6582-2.9848,2.9348-.2211,.3867-3.543-3.6774zm23.5329-10.4996 .9645,.6171-4.6674,14.679-7.3602-7.7045 11.0631-7.5917zm-64.0779-2.8355 .6353-1.0141 13.2633,4.0128-7.3421,7.4261-6.5565-10.4248zm7.0443,21.4002 2.1209-5.3787 3.2817,3.541-4.2237,4.3065-1.1789-2.4687zm9.4427,.6294 .8069,.4669 24.2616-.7107-.1897,25.1811-.9549-.5519-24.1136,.7063 .1897-25.0917z"/>
</svg>
