<svg xmlns="http://www.w3.org/2000/svg" viewBox="0 0 128 128" xmlns:xlink="http://www.w3.org/1999/xlink">
<defs>
<linearGradient gradientTransform="translate(.23642 -.77184)" xlink:href="#linearGradient3187-2" id="linearGradient3172" y1="136.887" x1="38.224" y2="-38.67" gradientUnits="userSpaceOnUse" x2="37.292"/>
<linearGradient gradientTransform="matrix(.2773 0 0 .28092 -666.5273 165.1555)" xlink:href="#linearGradient3825-9-3" id="linearGradient3917" y1="-562.745" x1="2876.588" y2="-110.184" gradientUnits="userSpaceOnUse" x2="2430.159"/>
<linearGradient gradientTransform="translate(.23642 -.77184)" xlink:href="#linearGradient3187-2" id="linearGradient3170" y1="142.959" x1="73.133" y2="-5.785" gradientUnits="userSpaceOnUse" x2="72.201"/>
<linearGradient id="linearGradient3187-2">
<stop offset="0" stop-color="#4d1d01"/>
<stop offset="1" stop-color="#965128"/>
</linearGradient>
<linearGradient id="linearGradient3825-9-3">
<stop offset="0" stop-color="#a8a8a8"/>
<stop offset="1" stop-color="#f0ecec"/>
</linearGradient>
</defs>
<path fill="url(#linearGradient3170)" stroke="url(#linearGradient3172)" stroke-width="8.066" d="m16.1567,6.7976h96.7983a8.0665,8.0663 0 0,1 8.066,8.0663v96.7961a8.0665,8.0663 0 0,1 -8.066,8.066h-96.7983a8.0665,8.0663 0 0,1 -8.0665-8.066v-96.7961a8.0665,8.0663 0 0,1 8.0665-8.0663"/>
<path opacity=".591" d="m9.2081,5.3747c-.7896,.0861-1.1519,.2271-1.1875,2l.4688,8.4063c.2764,3.4973 .2888,6.3752 .2812,9.25v50.2812l.7188-21.8438 .1801-30.9062c-.2274-4.8236-.2869-11.7517-.5313-15.375-.051-.7564 .6546-1.482 .0699-1.8125zm5.1845,3.8103c-.2142,0-.122,.6784-.122,1.2835v6.2813c0,.6051 .1608,1.0938 .375,1.0938 .2142,0-.0485-.4908-.0997-1.0938-.1778-2.0938 .225-4.4453-.1265-6.0283-.1312-.5907 .1874-1.5364-.0268-1.5364zm-1.997,12.346c-.2142,0-.4062,.8353-.4062,1.875v10.75c0,1.0624 .0773,2.7207 .1533,2.4442 .0567-.2066 .2423-.8753 .1853-2.5707-.044-1.3091-.0564-7.938 .0632-10.6235 .0463-1.0387 .2187-1.875 .0044-1.875zm3.8438,3.5312c-.1547,0-.2825,3.3091-.3593,7.5944-.0499,2.7867 .3301,8.7098 .3012,9.6829l-.3794,12.7853c-.0733,2.4694 .1822,4.4375 .4375,4.4375 .2553,0 .4688-1.967 .4688-4.4375v-25.5938c0-2.4705-.2135-4.4688-.4688-4.4688zm-11.2813,2.2812c-.1894,0-.3438,5.4649-.3438,12.2812v41.1562c0,6.8164 .1544,12.3125 .3438,12.3125 .1894,0 .3438-5.4961 .3438-12.3125v-41.1562c0-6.8164-.1544-12.2812-.3438-12.2812zm7.5313,25.5312c-.2885,0-.5312,5.4649-.5312,12.2812v41.1562c0,6.8164 .2428,12.3125 .5312,12.3125 .2885,0-.1012-5.8756-.1012-12.692v-40.7768c0-6.8164 .3896-12.2812 .1012-12.2812zm5.4688,12.9062c-.3544,0-.187,2.7144-.1937,4.5148l-.0276,7.359-.0555,10.0324c-.01,1.8004-.0776,3.25 .2768,3.25 .3544,0 .0403-2.0826-.0074-3.8824-.0889-3.3561 .0668-4.9655 .0422-8.5104-.0104-1.4997 .2583-3.3459-.0422-5.8174-.1509-1.2408 .1271-4.4009 .1897-5.2771 .0526-.7359 .1721-1.669-.1823-1.669zm-3,22.5938c-.2843,0-.5,1.103-.5,2.4688v14.125c0,1.3657 .2157,2.4688 .5,2.4688 .2843,0-.0217-1.282-.0054-2.6476l.168-14.0726c.0163-1.3656 .1216-2.3423-.1627-2.3423zm-6.875,5.5c-.3544,0-.6432,1.4497-.625,3.25l.1897,18.7827c.0182,1.8003 .0809,3.1235 .4353,3.1235 .3544,0-.0074-1.5129-.0074-3.3132v-18.846c0-1.8004 .3618-2.997 .0074-2.997z"/>
<path opacity=".591" d="m28.0939,16.8747c-.2438,0-.4375,5.4961-.4375,12.3125l-.5059,63.018 .5059,7.5757c.4542,6.8012 .1937,12.3125 .4375,12.3125 .2438,0 .4375-5.4961 .4375-12.3125l-.5059-11.6231c.1686-3.1985-1.2161,4.1753-.0307-5.1238 .0463,.2056-.4869-3.2829-.4333-3.2829 .2142,0 .4891-4.4561 .3628-6.7096-.253-4.5169 .6324-5.6905 .3794-9.4212l-.1265-12.689c-.0225-2.257 .1567-3.4089-.0575-3.4089-.0536,0 .1002-1.8295 .0539-1.6239l.1789-17.7845c.0685-6.816-.0149-11.2393-.2586-11.2393zm3.4062,21.8125c-.0804-.2602-.4688,3.5168-.4688,7.9062l.1789,5.5642-.1789,39.9046c-.0197,4.3894 .1965,7.9375 .4688,7.9375 .2723,0 .5-3.5481 .5-7.9375l-.6454-23.5098c.2762-4.7479 .1947-9.6746 .4709-14.4224l-.0021-5.5527 .2814-1.8509c-.2576-.4681-.0343-.0366-.251-1.3813-.1159-.7195 .333-1.634 .3251-2.6867-.0077-1.0392 .0933-1.4717-.6789-3.971zm-7.2812,29.4375c-.2142,0 .0233,1.1932 .0409,2.2327 .0585,3.4573 .578,5.481 0,10.4235-.1208,1.0327-.2552,1.875-.0409,1.875 .2142,0 .375-.8353 .375-1.875v-10.7812c0-1.0397-.1608-1.875-.375-1.875zm-2.375,15.6875c-.173,0-.3125,2.3361-.3125,5.25v30.1875c0,2.9138 .9364,.4687 .3125,5.25-.0224,.1716 .3125-2.3362 .3125-5.25v-30.1875c0-2.9139-.1395-5.25-.3125-5.25z"/>
<path opacity=".509" d="m48.0786,56.2455c.0952-.1844 .2743-.244 .3571-.2321 .2086,.0301 .2618,.2102 .3428,.4554 .1992,.603-.1044,2.1313 .0398,3.7077-.9839,8.0128 .0959,8.4373-.1917,12.2725l-.5753,13.6148c-.1431,1.0409-.3477,1.8972-.6711,2.397-.9684,2.0037-2.0556,.6009-2.2275-.6324 .7057-4.8668-.1657-5.3868 .006-7.5714 .4644-2.3834 1.2127-2.6209 1.9505-3.8275 .1312-.4358 .2078-.7229 .2208-1.1753l.5356-17.9008c.0141-.8234 .1141-.7955 .2134-1.1078z"/>
<path opacity=".591" d="m113.5206,8.7497c-.1591,0-.2812,6.0708-.2812,13.625l-.4983,15.1155 .3194,38.0997 .6843,7.8896-.5054,17.1452c-.2226,7.5509 .1221,13.625 .2812,13.625 .1591,0 .3311-6.0709 .3125-13.625l-.0531-52.6694c.096-1.0453-.5752-2.7823-.2471-3.1311l-.2163-4.4744 .3376-12.5195c.0215-.7961 .444-7.4503 .4431-8.3169-.007-7.3529-.4343-10.7637-.5767-10.7637zm-4.5,.625c.004,.2142-.0971,1.908-.122,3.8169l-.253,19.4018c-.0249,1.9089 .1608,3.4375 .375,3.4375 .2142,0-.1053-1.7076-.0722-3.6164l.0796-4.5892 .4041-6.3936c.0127-1.4722 .0324-2.082-.009-3.037 .0726-.6174 .157-1.0319 .1325-1.6585l-.0127-1.5824c-.0389-.3928 .0532-1.1409-.0588-1.5493 .1002-1.0102 .0629-1.3169 .0645-2.2132l.1559-1.9018-.0552-5.9739c.254-.9314-.7653-.7367-.7545-.2122zm11.9688,3.9375c-.2481,0-.4688,2.8754-.4688,6.4688l.2468,21.5792 .2591,4.0467c-.2918-2.1286 .0596,2.7174-.0757,3.4215-.4311,2.2443-.6664,4.815-.4302,8.1714 .2522,3.5845 .2206,6.5 .4688,6.5 .2481,0-.4986-4.8965-.0991-8.4676 1.432-12.7997 .7892-6.5325 1.0943-10.6931l-.8761-13.1005 .0654-8.9779 .253-2.4796c.1023-1.0027-.1894-6.4688-.4375-6.4688zm-14.25,3.4062c-.2142,0-.375,.8353-.375,1.875v10.7812c0,1.0397 .1608,1.875 .375,1.875 .2142,0 .0173-.8353 .0173-1.875l.1048-5.4699 .0741-5.3114c.0145-1.0396 .0181-1.875-.1961-1.875zm10.375,12.4063c-.2142,0-.375,1.4496-.375,3.25v18.625c0,1.8004 .1608,3.25 .375,3.25 .2142,0 .375-1.4496 .375-3.25v-18.625c0-1.8004-.1608-3.25-.375-3.25zm-5.8125,11.125c-.2142,0-.4062,1.5284-.4062,3.4375v19.7812c0,1.9091 .192,3.4375 .4062,3.4375 .2142,0 .375-1.5284 .375-3.4375v-19.7812c0-1.9091-.1608-3.4375-.375-3.4375zm-2.625,10.0938c-.2481,0-.441,2.8755-.4688,6.4688-.0139,1.8 .1346,2.6256 .2628,3.5728 .0343,.2529 .004,1.147 .0317,1.4381-.0593,9.6593-.0553,6.2126-.1146,9.829l-.2805,6.7121 .4583,15.7562c.0231,3.5933-.1371,6.4106 .111,6.4106 .2481,0 .1692-2.9066 .1692-6.5v-10.4812l.3476-16.8132-.0793-9.9244c-.0287-3.5933-.1894-6.4688-.4375-6.4688zm12.4688,19.25c-.2057,0-.375,1.4496-.375,3.25v18.625c0,1.8004 .1693,3.25 .375,3.25 .2057,0 .1067-1.539 .1067-3.3394l-.0532-3.5749c-.0945-6.3534-.223-4.1309-.1844-5.7175l.2376-9.7798c.0437-1.7999 .099-2.7134-.1067-2.7134zm-3.75,7.8125c-.1781,0-.3211,1.6911-.3125,3.7812l.0894,21.625c.009,2.0902 .045,3.7812 .2231,3.7812 .1781,0 .3125-1.6911 .3125-3.7812v-21.625c0-2.0902-.1344-3.7812-.3125-3.7812zm-7.4375,28.6562c-.2142,0-.375,.8665-.375,1.9062v10.75c0,1.0397 .1608,1.875 .375,1.875 .2142,0 .375-.8353 .375-1.875v-10.75c0-1.0397-.1608-1.9062-.375-1.9062z"/>
<path opacity=".591" d="m60.0906,76.3404a.5402,5.8029 0 0,1 .5402,5.8029v33.2967a.5402,5.8029 0 0,1 -.5402,5.803 .5402,5.8029 0 0,1 -.5402-5.803v-33.2967a.5402,5.8029 0 0,1 .5402-5.8029"/>
<path opacity=".591" d="m55.1386,6.5535a.4479,15.0294 0 0,1 .4479,15.0294v86.2391a.4479,15.0294 0 0,1 -.4479,15.029 .4479,15.0294 0 0,1 -.4479-15.029v-86.2391a.4479,15.0294 0 0,1 .4479-15.0294"/>
<path opacity=".591" d="m64.4689,5.1559c-.2889,0-.5312,3.5168-.5312,7.9063l.003,25.9483 .2477,11.1808 .0176,5.0966-.0894,5.8367c-.0516,3.365 .0942,5.4735 .3524,5.3438 .2758-.1386 .0568-3.1192 .1144-5.2751 .0346-1.2965 .3976-1.7239 .3856-2.6624l-.4472-34.993 .4472-10.4758c.1872-4.3854-.2111-7.9063-.5-7.9063zm-3.5625,12.875c-.4805-3.4196-1.7161-5.0212-.25,4.375l.3865,2.4771 .1169,3.9287c.1336,1.7236 .4034,3.1747-.1457,6.2635l-.3577,12.3619c-.0699,2.4143 .1013,4.3438 .25,4.3438 .1487,0 .2076-1.9295 .2812-4.3438 .2002-6.5652 .7597-13.1305 .5366-19.6957l-.5366-5.3355c-.2417-2.4032-.2606-4.2277-.2812-4.375z"/>
<path opacity=".591" d="m103.2706,5.7497c-.2497,0-.4688,4.7976-.4688,10.75v61.6562c0,5.9524 .219,10.75 .4688,10.75 .2497,0 .4375-4.7976 .4375-10.75l-.3636-17.1907 .1632-10.2854-.3054-21.4627 .5059-12.7174c.2366-5.9477-.1878-10.75-.4375-10.75zm1.9688,29.5313c-.2933,0-.5312,4.7976-.5312,10.75l.3795,28.9727 .336,32.3258c.0619,5.9521-.4776,11.1077-.1842,11.1077 .2933,0 .5312-4.7976 .5312-10.75l-.1555-25.2175 .535-6.8336c-.0433-2.4826-.1863-4.7656-.5656-6.5762l-.5294-23.0289c-.1368-5.9508 .4776-10.75 .1842-10.75z"/>
<path opacity=".591" d="m86.9253,2.9071c-.1945,0 .0433,8.0426-.2064,15.5926-.4542,13.7319 .4423,27.4556 .5625,41.1875 .1081,12.3514-.5803,24.7111-.5625,37.0625 .0109,7.5541 .1493,13.625 .3438,13.625 .1945,0 .3656-6.0709 .3438-13.625-.0312-10.7927 .6962-23.2687 .5938-34.1562-.0937-9.9612-.4519-20.8035-.6077-30.361-.0421-2.5788-.3389-5.4935-.2414-7.8092 .0923-2.1914 .2482-5.06 .3011-4.5273 .0719,.7235 4.1346,4.7773 4.1073,7.5106-.0239,2.3886-2.7716,24.8166-2.403,24.5932 .4263-.2584 1.434-9.8367 2.1212-16.4952 .6278-6.0826 .988-7.6211 .6288-9.1923-.3452-1.5102-4.5121-7.4453-4.5-7.8125 .1046-3.1771-.1204-7.5185-.0763-10.8818 .0258-1.9646 .1248-4.5937 .0049-4.5919-.4575,.0068-.3449-.1189-.4097-.1189zm-15.1126,2.1864c-.3169,0-.4152,1.5754-.2188,3.5625l.8514,10.2664 1.1799,10.3273c.1964,1.9871 .6206,3.5938 .9375,3.5938 .3169,0-.1214-1.6066-.3179-3.5938l-1.2848-8.5737c-.0738-1.7145-.3512-3.7084-.3265-4.1075 .0392-.5472-.1492-.7393 .1687-.9806 .2709-.365 .5708,.5958 .8747,1.5263 .179,.548 .2376,2.0009 .1946,1.5086-.0135-.1554 .1383,2.6887 .2678,3.4006 .0835,.4588 .1357,.5883 .133-1.7496-.1116-1.1424-.1319-1.0334-.22-1.8698-.0423-.5901-.0917-1.1802-.2511-1.7703-.2893-.8751-.3348-1.4758-1.2203-1.6955l-.5778-4.3168 .0833-1.9655c-.1964-1.9871 .0431-3.5625-.2738-3.5625zm3.5923-2.2078c-.0598-.4391 .068,3.398-.0096,4.0145-.1205,.9566 .0658,.6363 .0831,3.0916l.1167,1.5095-.0503,1.6412c-.0185,.6048 .1161,1.1385 .3303,1.1385 .2142,0 .1528,.1027 .062-1.1385-.0762-1.0412-.0002-2.0236-.0537-3.3791-.101-2.5617-.0123-5.5675 .1124-6.663 .0685-.6012-.5517,.0733-.5909-.2147zm4.9077,5.739c-.2843,0 .1324,1.4496 .1324,3.25v6.0855l-.1265,12.5708c-.0181,1.8003-.2902,3.25-.0059,3.25 .2843,0 .5312-1.4496 .5312-3.25l.2529-16.2388-.253-2.4175c-.1874-1.7906-.2469-3.25-.5312-3.25zm-12.0312,7.5938c-.2142,0-.375,.4887-.375,1.0938v6.25c0,.6051 .1608,1.0938 .375,1.0938 .2142,0 .4062-.4887 .4062-1.0938v-6.25c0-.6051-.192-1.0938-.4062-1.0938zm3.2812,8.8438c-.2142,0-.375,1.1162-.375,2.5v14.3438c0,1.3839 .1608,2.5 .375,2.5 .2142,0 .4062-1.1161 .4062-2.5v-14.3438c0-1.3838-.192-2.5-.4062-2.5zm-3.9688,4.8438c-.2843,0-.5,1.4496-.5,3.25v18.6562c0,1.8004 .2157,3.25 .5,3.25 .2843,0-.1375-1.5764-.1012-3.3765l.3794-18.7827c.0364-1.8 .006-2.997-.2783-2.997zm25.4688,3.4688c-.1958,.0736-.3699,.5818-.4688,1.125-.1396,.7673 .2066,3.7233 .1562,3.0625l-.0625,7.7188-.2188,10 .2188,14.2812 .0312,22.6562c.1058,3.3292-.4412,4.2626 .3438,9.9687 .3722,2.5345 1.0075,5.5622 .4375-7.4375l-.1875-13.1562-.5366-18.8286 .2812-20.7673c.3647-8.119 .4362-8.7848 .0054-8.6229zm-19.0312,.6562c-.2989,0-.5312,2.174-.5312,4.875v27.9688c0,2.701 .2324,4.9062 .5312,4.9062 .2989,0 .0438-3.2171 .0566-5.9181l.1265-26.8304c.0127-2.701 .1158-5.0015-.1831-5.0015zm10.125,.5312c-.1945,0-.375,4.5124-.375,10.125v58.1562c0,5.6126 .1805,10.125 .375,10.125 .1945,0 .3438-4.5124 .3438-10.125v-58.1562c0-5.6126-.1493-10.125-.3438-10.125zm-2.4375,6.4375c-.2142,0-.4062,1.8619-.4062,4.1875v24.0938c0,2.3256 .192,4.1875 .4062,4.1875 .2142,0 .375-1.8619 .375-4.1875v-24.0938c0-2.3256-.1608-4.1875-.375-4.1875zm-4.5625,3.0312c-.2142,0-.375,.8353-.375,1.875l.25,2.9062-.25,7.875c-.0334,1.0392 .1608,1.875 .375,1.875 .2142,0 .375-.8353 .375-1.875l-.125-5.7188 .5625-2.0312-.4375-3.0312c-.1485-1.0291-.1608-1.875-.375-1.875zm-6.2812,11.375c-.2553,0-.4499,.9763-.4688,2.1875l-.1265,8.1356c-.0188,1.2112 .34,6.6144 .5952,6.6144 .2553,0 .3423,1.3005 .3423,.0892v-12.5625c0-1.2113-.087-4.4642-.3423-4.4642zm-2.8125,15.625c-.2481,0-.4688,2.8754-.4688,6.4688v37.2187c0,3.5934 .2206,6.5 .4688,6.5 .2481,0 .4375-2.9066 .4375-6.5v-37.2187c0-3.5934-.1894-6.4688-.4375-6.4688zm11.125,.3125c-.3544,0-.6562,1.4496-.6562,3.25v18.6562c0,1.8004 .3019,3.25 .6562,3.25 .3544,0 .1125-1.6286 .0884-3.4289-.0834-6.2188 .1979-17.2671 0-19.5506-.1555-1.7937 .266-2.1768-.0884-2.1768zm-4.3125,6.5938c-.2142,0-.4062,.4887-.4062,1.0938v8.7542c0,.6051-.1657,3.0614 .0485,3.0614 .2142,0 .7327-2.4563 .7327-3.0614v-8.7542c0-.6051-.1608-1.0938-.375-1.0938zm-1.2812,16.6875c-.2142,0-.375,1.1162-.375,2.5v14.3437c0,1.3838 .1608,2.5 .375,2.5 .2142,0 .4062-1.1162 .4062-2.5v-14.3437c0-1.3838-.192-2.5-.4062-2.5zm5.2188,7.0312c-.2869-.0272-.4704,1.1744-.4375,2.7188l.3438,16c.0329,1.5444 .2756,2.8165 .5625,2.8438 .2869,.0272 .5016-1.2056 .4688-2.75l-.3438-16c-.0329-1.5444-.3068-2.7853-.5938-2.8125z"/>
<path opacity=".453" d="m42.3338,80.9315 .3127,1.7731 1.7948,18.4458 .4437,19.1406c-.1569,1.2931-.4056,2.0289-.6655,2.6959-.2868,.778-1.1227,.6666-1.3311,0-.1041-.787-.1166-1.4626-.1177-2.1245l.1177-14.455c.0922-4.0805-.153-5.9068-.3432-8.1001l-.877-10.3665c-.0273-3.6988 .4303-4.7458 .6655-7.0092z"/>
<path opacity=".591" d="m90.9689,58.4997c-.2481,0-.4688,2.9066-.4688,6.5v37.2187c0,3.5934 .2206,6.4688 .4688,6.4688 .2481,0 .4375-2.8754 .4375-6.4688l-.375-23.5312 .375-13.6875c.0997-3.592-.1894-6.5-.4375-6.5zm6.75,13.8438c-.2481,0-.4375,2.8754-.4375,6.4688l.25,12.625-.125,15.0937-.3438,4.125 .2188,5.375c.135,3.5909 .1894,6.5 .4375,6.5 .2481,0 .4688-2.9066 .4688-6.5l-.3577-32.3836-.0539-2.875 .25-5.7521c.2157-3.5869-.059-2.6768-.3071-2.6768zm-8.25,38.0937c-.3048,0-.1153,.8785-.1153,1.7726l.21,6.5682-.0311,2.6236c-.1927,.8731-.0522,1.5675 .2526,1.5675 .3048,0 .2463-.7629 .2463-1.657l.0261-2.317 .0677-1.7143-.2188-2.8125-.0647-2.817c.0464-.8929-.0679-1.2143-.3728-1.2143z"/>
<path opacity=".576" d="m55.6139,6.9256-.1464,1.2303-.0862,1.4831 .6373,14.3083 .3849,5.5546 .8548,7.3399c.1687,1.2856 .3725,2.21 .4085,4.8635l.4737,28.4746 .7369-30.7119c.0822-1.9859-.1538-3.5621-.3399-5.2025l-.818-5.8484c-.4183-2.5807-.3966-4.028-.5659-5.967l-.5921-14.9144c-.2192-2.3571-.7795-1.2835-.9474-.6102z"/>
<path opacity=".356" d="m64.5593,80.0822a.4479,5.4455 0 0,1 .4479,5.4455v31.2463a.4479,5.4455 0 0,1 -.4479,5.445 .4479,5.4455 0 0,1 -.4479-5.445v-31.2463a.4479,5.4455 0 0,1 .4479-5.4455"/>
<path opacity=".591" d="m42.5465,3.1172c-.2216,.1116 .0991,4.6641 .0991,8.2575l.1789,16.6351-.1789,20.5837c-.0312,3.5933 .1894,6.5 .4375,6.5 .2481,0 .421-2.9066 .4375-6.5 .0267-5.8009-.5582-12.1746-.0905-16.1336l-.1101-13.5546-.0677-7.7094c-.0249-2.8344 .0997-6.5869 .0722-8.0566 0,0-.1068-.3599-.778-.022zm-2.6509,2.0387c-.2481,0-.4375,2.9066-.4375,6.5l.5366,19.2158-.5366,18.003c-.1071,3.5918 .1894,6.4688 .4375,6.4688 .2481,0 .4375-2.8754 .4375-6.4688v-37.2188c0-3.5934-.1894-6.5-.4375-6.5z"/>
<path opacity=".561" d="m37.1944,122.6197c-.1338-.4613-.2902-.6632-.3603-1.8548l-.1253-5.4344c.1025-.2251 .0784-2.475 .7597-3.2363 .1973-.5635 .4842-.2711 .5602-1.9932l-.128-6.321v-1.1506c.0411-.8879 .0876-1.8787 .6099-.9347 .1391,.3012 .2444,.7535 .2478,1.6595l.1558,4.7636v6.4753l-.2617,7.3105c-.0273,.6644-.0614,.7304-.1303,.975-.2244,1.1508-.9429,1.3722-1.3279-.2588z"/>
<path opacity=".481" d="m98.6101,3.1258c-.1403,0-.653-.8142-.7924-.109-.125,.6324 .031,4.6996-.047,5.6391l-.1295,4.0566-.3374,4.3112-.5592,5.0194-.2453,7.2065c-.165,1.9871-.5258,3.5938-.2597,3.5938 .2662,0 .6163-1.6066 .7812-3.5938l.5649-10.1681 .8543-11.8567c.165-1.9871 .4364-4.0991 .1702-4.0991zm-9.0582,3.7176c-.2142,0-.4062,.4887-.4062,1.0938v6.2813c0,.6051 .192,1.0938 .4062,1.0938 .2142,0 .0684-.552 .0588-1.157l-.0415-2.6017 .0415-3.7428c.0067-.605 .1554-.9673-.0588-.9673zm3.5312,1.2812c-.2142,0-.035,.8462-.1853,1.875l.1003,1.9115-.1128,4.2938c.092,1.4431 .0145,1.6624 .3179,3.7397 .1503,1.0288-.3343,2.6799-.1201,2.6799 .2142,0 .375-.8353 .375-1.875l-.1789-5.1716 .1789-5.5784c.0333-1.0392-.1608-1.875-.375-1.875zm6.4375,4.1563c-.2142,0-.3093,.8353-.2188,1.875l.9375,10.7812c.0905,1.0397 .3483,1.875 .5625,1.875 .2142,0-.1379-.8353-.2284-1.875l-.2143-2.2553-.2074-2.7626-.2858-3.1172-.1406-3.2722c-.0905-1.0397 .0095-1.2489-.2048-1.2489z"/>
<a transform="matrix(.86018 0 0 1 4.10289 -.74849)">
<path opacity=".481" fill="#4e2717" d="m35.6971,7.5987h-.0001a.3456,4.4594 0 0,1 .3456,4.4594v25.588a.3456,4.4594 0 0,1 -.3456,4.4594h.0001a.3456,4.4594 0 0,1 -.3456-4.4594v-25.588a.3456,4.4594 0 0,1 .3456-4.4594"/>
</a>
<g fill="#4e2717">
<path opacity=".481" d="m48.3172,12.5218c-.0845,.1968-.1928,1.7864-.1533,2.3902l.0894,1.3675c-.0364-.0547-.0848,.6217-.0356,1.4267 .0131,.2138-.0636,1.1045-.1067,2.1433l-.4472,10.7812c-.0431,1.0389 .1608,1.875 .375,1.875 .2142,0 .3967-.8353 .4062-1.875l.0632-6.8565c.037,.033 .1193-2.2369 .125-2.2774 .151-1.0751 .1853-2.1329 .1853-2.738v-6.25c0-.0252-.2873-.4859-.5015,.013z"/>
<path opacity=".481" d="m52.0999,11.4036a.3867,1.0922 0 0,1 .3867,1.0922v6.2671a.3867,1.0922 0 0,1 -.3867,1.0922 .3867,1.0922 0 0,1 -.3867-1.0922v-6.2671a.3867,1.0922 0 0,1 .3867-1.0922"/>
</g>
<a transform="matrix(1 0 0 .78741 .93087 46.65351)">
<path opacity=".481" fill="#4e2717" d="m35.6334,7.5987a.2819,4.4594 0 0,1 .2819,4.4594v25.588a.2819,4.4594 0 0,1 -.2819,4.4594 .2819,4.4594 0 0,1 -.2819-4.4594v-25.588a.2819,4.4594 0 0,1 .2819-4.4594"/>
</a>
<path opacity=".481" fill="#311409" d="m42.923,59.2787a.3867,1.8768 0 0,1 .3867,1.8768v10.7691a.3867,1.8768 0 0,1 -.3867,1.8768 .3867,1.8768 0 0,1 -.3867-1.8768v-10.7691a.3867,1.8768 0 0,1 .3867-1.8768"/>
<path opacity=".481" fill="#371c11" d="m50.9615,93.3641a.5132,3.2498 0 0,1 .5132,3.2498v18.6471a.5132,3.2498 0 0,1 -.5132,3.25 .5132,3.2498 0 0,1 -.5132-3.25v-18.6471a.5132,3.2498 0 0,1 .5132-3.2498"/>
<path opacity=".481" fill="#311910" d="m33.3805,103.989a.6397,2.3998 0 0,1 .6397,2.399v13.771a.6397,2.3998 0 0,1 -.6397,2.4 .6397,2.3998 0 0,1 -.6397-2.4v-13.771a.6397,2.3998 0 0,1 .6397-2.399"/>
<a transform="matrix(1 0 0 .78741 61.64233 34.00529)">
<path opacity=".481" fill="#4e2717" d="m35.7229,7.5987h-.0001a.3714,4.4594 0 0,1 .3714,4.4594v25.588a.3714,4.4594 0 0,1 -.3714,4.4594h.0001a.3714,4.4594 0 0,1 -.3714-4.4594v-25.588a.3714,4.4594 0 0,1 .3714-4.4594"/>
</a>
<a fill="#100b05" transform="matrix(.42444 0 0 .59567 4.30273 46.04295)">
<path opacity=".481" d="m35.9912,7.5987h-.0001a.6397,4.4594 0 0,1 .6397,4.4594v25.588a.6397,4.4594 0 0,1 -.6397,4.4594h.0001a.6397,4.4594 0 0,1 -.6397-4.4594v-25.588a.6397,4.4594 0 0,1 .6397-4.4594"/>
</a>
<path opacity=".481" fill="#4e2717" d="m24.0206,4.8122c-.2057,0-.375,1.4496-.375,3.25l-.3794,5.3446 .3794,13.3116c.0513,1.7997 .1693,3.25 .375,3.25 .2057,0 .3438-1.4496 .3438-3.25l-.253-10.2761 .253-8.3802c.0543-1.7996-.138-3.25-.3438-3.25zm6.9397-1.8875c-.2142,0-.5648,4.4088-.5647,5.2312 .0001,.7827-.3843,2.3456-.5692,4.3655 .03,2.005-.2751,3.0841-.0632,3.7551 .5104,1.6167 1.1181,5.1978 1.4395,6.2808 .601,2.0252 .7737,3.5504 .4533,.2152-.0205-.2132-.7417-5.382-1.1115-6.1166-.6727-1.336-.0772-3.5574-.1265-4.8934 .9549-3.4936 .7499-6.8824 1.1383-8.16 .2393-.7868-.3817-.6779-.596-.6779zm-4.9268,25.4715c-.2142,0-.1379,.9359-.1379,1.5409v6.2812c0,.6051 .192,1.0938 .4062,1.0938 .2142,0 .1348-.4893 .1067-1.0938-.1293-2.7795-.093-4.8637-.0894-6.639 .0012-.6051-.0713-1.1832-.2856-1.1832zm-.4817,14.1347c-.2142,0-.4062,.8353-.4062,1.875v10.75c0,1.0397 .192,1.875 .4062,1.875 .2142,0 .4536-.8382 .375-1.875-.6915-9.115-.2822-9.4244 0-10.75 .2165-1.017-.1608-1.875-.375-1.875z"/>
<path opacity=".69" fill="#281401" d="m16.1788,7.6596 2.3834,4.7525 .7889,5.6897 .4054,3.9134 .6328,5.7134c-.3334,1.9518 .2352,4.1732 .416,6.6392l.1568,3.0709c-.4149,6.254 .9307,9.5699 .4578,10.1084-.2623-.7559-.3588-1.7184-.5867-2.7916-.1271-.5986-.4693-.5347-.4844-2.1664-.15-4.7736-.2141-7.9539-.2374-10.3769l-1.0936-8.3603-.8033-8.0664-.8159-3.7895-1.2927-3.3926c-1.1323-2.9571-1.3364-4.1128-1.8495-5.8679l.4871,.1492"/>
<path opacity=".618" d="m33.7095,53.4097-.439,11.4895 .0753,16.6289 .1869,9.256 .1225,4.5685c.4245,5.0842 .2093,3.3885 .4683,.45l-.2258-13.0848 .0132-10.5281 .0997-2.307c-.6914-3.2561 .1256-5.5263 .0682-8.3304l.3794-11.1805c-.217-4.3221-.9213-5.5959-.7487,3.038z"/>
<path opacity=".618" fill="#492912" d="m37.8834,18.3338 .0081,2.4052-.1483,3.9282-.0367,1.4904 .1225,.9563c.1327,1.8424 .6356,1.7408 .3789,.0942l-.1364-2.7391 .0132-2.2039 .0997-1.109c-.1548,.0339 .1256-.5308 .0682-1.1178l.1111-1.8933c-.217-.9048-.653-1.6186-.4804,.1888z"/>
<path opacity=".618" fill="#241305" d="m25.4814,41.0753-.439,7.0108 .0753,10.1469 .1869,5.648 .1225,2.7877c.4245,3.1023 .2093,2.0676 .4683,.2746l-.2258-7.9843 .0132-6.4242 .0997-1.4078c-.6914-1.9869 .1256-3.3721 .0682-5.0832l.3794-6.8223c-.217-2.6373-.9213-3.4146-.7487,1.8538z"/>
<path opacity=".481" fill="#2c150c" d="m25.9813,8.7475a.197,1.0922 0 0,1 .197,1.0922v6.267a.197,1.0922 0 0,1 -.197,1.0922 .197,1.0922 0 0,1 -.197-1.0922v-6.267a.197,1.0922 0 0,1 .197-1.0922"/>
<path opacity=".618" fill="#492912" d="m29.7294,28.2657 .3812,1.5958 .0753,3.4811 .1869,1.9376 .1225,.9563c.4245,1.0643 .2093,.7093 .4683,.0942l-.2258-2.7391 .0132-2.2039-.09-.8624c-.2487-.8081-.0641-.7774-.1215-1.3644-.0933-.5335-.1948-.6456-.3143-1.1778-.217-.9048-.9213-2.3341-.7487-.5267z"/>
<path opacity=".356" d="m34.6875,59.6907a.269,5.4455 0 0,1 .269,5.4455v31.246a.269,5.4455 0 0,1 -.269,5.4458 .269,5.4455 0 0,1 -.269-5.4458v-31.246a.269,5.4455 0 0,1 .269-5.4455"/>
<path opacity=".356" d="m-29.7685,40.0147h.0001a.1781,7.6184 0 0,1 .1781,7.6184v43.7142a.1781,7.6184 0 0,1 -.1781,7.6184h-.0001a.1781,7.6184 0 0,1 -.1781-7.6184v-43.7142a.1781,7.6184 0 0,1 .1781-7.6184" transform="scale(-1 1)"/>
<a transform="matrix(1 0 0 .56969 64.5043 30.83008)">
<path opacity=".481" fill="#4e2717" d="m35.7229,7.5987h-.0001a.3714,4.4594 0 0,1 .3714,4.4594v25.588a.3714,4.4594 0 0,1 -.3714,4.4594h.0001a.3714,4.4594 0 0,1 -.3714-4.4594v-25.588a.3714,4.4594 0 0,1 .3714-4.4594"/>
</a>
<path opacity=".481" fill="#160700" d="m38.4511,59.6365h.0001a.2078,1.0446 0 0,1 .2078,1.0446v5.994a.2078,1.0446 0 0,1 -.2078,1.0446h-.0001a.2078,1.0446 0 0,1 -.2078-1.0446v-5.994a.2078,1.0446 0 0,1 .2078-1.0446"/>
<g fill="#241305">
<path opacity=".618" d="m14.3509,70.5451-.0596,1.4973-.0512,2.385-.066,1.1939 .1225,.6205c.4245,.6905 .2093,.4602 .4683,.0611l-.2258-1.7772 .0132-1.4299 .1891-.7605c.0241-.6211 .0362-.3034-.0212-.6843l.5583-3.4862c-.217-.587-.653-1.2072-.4804-.0346z"/>
<path opacity=".618" d="m51.0308,37.826-.439,5.5376 .0753,8.0147 .1869,4.4611 .1225,2.2019c.4245,2.4504 .2093,1.6332 .4683,.2169l-.2258-6.3065 .0132-5.0743 .0997-1.1119c-.6914-1.5694 .1256-2.6635 .0682-4.015l.1265-5.5152c-.217-2.0831-.7948-7.3769-.6222-3.2156z"/>
</g>
<g fill="#160700">
<path opacity=".602" d="m45.4704,24.0316-.4879,9.6126-.0813,8.6008c.1989-.5905 .1526,6.9153 .6505-3.5415l.2801-8.3478c.1536,2.361 .1807-1.9816 .2078-2.1502 .2884-12.7955-.2176-5.4581-.5692-4.1739z"/>
<path opacity=".326" d="m23.469,46.5696-.4879,9.6126-.0813,8.6008c.1989-.5905 .1526,6.9153 .6505-3.5415l.2801-8.3478c.1536,2.361 .1807-1.9816 .2078-2.1502 .2884-12.7955-.2176-5.4581-.5692-4.1739z"/>
</g>
<path opacity=".618" fill="#241305" d="m39.3451,73.0494 .126,1.3816 .2378,2.4374-.1869,1.2572-.1225,.6205c-.4245,.6905-.2093,.4602-.4683,.0611l.2258-1.7772-.0132-1.4299-.055-.4475c-.0241-.3975-.1704-.6164-.1129-.9973l-.3794-1.5186c.217-.587 .3847-.5812 .6146,.0996z"/>
<path opacity=".481" fill="#4e2717" d="m50.0428,2.8177a.2078,1.0922 0 0,1 .2078,1.0922v6.2671a.2078,1.0922 0 0,1 -.2078,1.0922 .2078,1.0922 0 0,1 -.2078-1.0922v-6.2671a.2078,1.0922 0 0,1 .2078-1.0922"/>
<path opacity=".326" fill="#160700" d="m115.9463,9.5312-.4879,6.4091-.0813,5.7344c.1989-.3937 .1526,4.6106 .6505-2.3612l.2801-5.5658c.1536,1.5742 .1807-1.3212 .2078-1.4336 .2884-8.5311-.2176-3.6391-.5692-2.7829z"/>
<path fill="#2f0d0d" d="m120.2846,102.3241-.3162,5.3755 .253,5.249 0,3.0988c-.0629,1.1405 .769,.9801 .6201,.137-.1248-.7065-.0119-2.6085-.0509-3.4888l-.1265-4.3004c.0574-2.1074 .0943-5.3121 .1341-6.4504 .073-2.0872-.1768-1.8867-.5135,.3792z"/>
<path fill="url(#linearGradient3917)" d="m69.2652,21.2447c-21.0095,.2007-31.4126,15.8224-31.4127,33.2453 0,7.5257 3.4601,13.2809 8.0503,18.7954l-24.4628,20.0332c5.6869,5.2616 9.8199,8.7066 20.8753,12.8872 11.0795,4.5018 26.5389,3.3689 36.7506-.0351 2.9079-.907 7.6808-3.4198 11.5252-6.4261 3.2822-2.5666 4.8489-4.5295 6.7591-6.7157 3.4849-3.9886 5.2285-7.0201 6.6378-10.1219 .7499-1.4351 2.3855-5.4273 2.9116-7.2952 1.3561-4.8139 1.8757-7.9919 1.6118-14.2041 0-.8253-.1897-2.5632-.4159-3.9505-.1478-.7868-.2344-1.6472-.5113-2.9672-4.0288-19.2066-16.9869-30.7795-32.1059-32.6747-1.6989-.2129-2.7994-.4943-4.1421-.5443-.6998-.0259-1.3933-.0329-2.0711-.0263zm-1.8631,20.8409c.2886-.003 .5772-.003 .8752,.009 .5717,.0217 1.0443,.1443 1.7678,.237 6.4382,.8255 11.9587,5.8646 13.6743,14.2304 .1179,.5749 .1536,.9565 .2166,1.2993 .0964,.6042 .1733,1.3612 .1733,1.7206 .1123,2.1664 .006,3.4122-.5717,5.6169-.2241,.8136-1.0327,2.4385-1.352,3.0635-.6001,1.3511-1.3409,2.432-2.825,4.1693-.8134,.9523-1.8265,1.6997-3.2241,2.8177-1.6371,1.3094-3.5536,2.4054-4.7919,2.8004-4.3485,1.4827-9.9939,1.9369-16.1014,.1233-4.5863-1.944-6.5062-3.8156-9.1052-5.9276l10.7488-8.8683c-1.9547-2.4019-2.8644-3.5371-2.8644-6.8151 0-7.5888 4.433-14.3888 13.3796-14.4762zm-1.2519,7.2452c-3.7139,.47-5.4904,3.2265-5.4904,6.7772 0,1.5337 .3509,2.5607 1.2733,3.6845l-4.5184,3.7389c1.1427,1.0723 2.0154,1.5218 4.2369,2.3738 2.8281,.6123 4.0944,.4421 6.1463-.2515 .5842-.1848 1.9887-.9786 2.7612-1.5913 .6595-.5231 1.4091-1.2355 1.8306-1.8145 .448-.6478 .5794-.7853 .919-1.4175 .1507-.2925 .49-1.0568 .6178-1.8421 .1033-.695 .1389-1.0598 .1423-1.5821 .0377-.397-.007-.9393-.0523-1.5272-.0297-.1604-.0975-.7015-.3621-1.5287-.8143-2.6355-2.4564-3.885-4.0275-4.5859-.5106-.1864-1.1146-.3694-1.3844-.3795-.1405-.005-.7311-.0962-.8673-.0947-.386-.009-.7096-.0243-1.2248,.0405zm.5148,4.1882c.4079,.1034 .8898,.2615 1.1105,.4434 .3019,.1904 .4753,.4271 .678,.6732 .4918,.7642 .5623,1.5138 .57,2.2667-.006,.3355-.0217,.6754-.1084,1.0106-.0813,.3122-.1858,.5602-.3127,.7841-.1487,.3008-.2245,.3869-.3865,.5749-.1398,.1936-.3427,.3915-.5702,.5502-.2789,.2073-.4904,.3284-.8036,.4642-.3037,.1334-.5244,.1853-.9912,.2635-.313,.0135-.4295,.0309-.6838,.0326-.2863-.012-.4197-.005-.8299-.0809-.4082-.0941-.7067-.1886-.9374-.3126l.7947-2.2485c.7767,.5976 2.0005,.4117 2.5667,.0902 .2689-.1527 .5079-.41 .6469-.6928 .0994-.202 .1579-.4509 .1863-.7015 .026-.2299 .003-.3034-.003-.4601 0-.166-.0495-.4211-.0865-.5627-.1977-.7552-.919-1.2116-1.7873-1.1068-1.3413,.1618-1.7191,1.4106-1.4964,2.6536-.0401-.1545-.4243-.3678-.4642-1.1496-.0694-1.3581 .984-2.2707 1.78-2.4487 .4416-.0837 .7962-.1014 1.1284-.0429z"/>
</svg>
