<svg xmlns="http://www.w3.org/2000/svg" viewBox="0 0 128 128" xmlns:xlink="http://www.w3.org/1999/xlink">
<defs>
<linearGradient gradientTransform="matrix(-1 0 0 -1 91.08061 91.12006)" xlink:href="#linearGradient3932" id="linearGradient3149" y1="48.268" x1="45.312" y2="45.618" gradientUnits="userSpaceOnUse" x2="42.662"/>
<linearGradient id="linearGradient3309" y1="3.1" y2="122.899" x2="0" gradientUnits="userSpaceOnUse">
<stop offset="0" stop-color="#f6f6f6"/>
<stop offset="1" stop-color="#d2d2d2"/>
</linearGradient>
<linearGradient id="linearGradient3865">
<stop offset="0" stop-color="#ffe99d"/>
<stop offset="1" stop-color="#ffe99d" stop-opacity="0"/>
</linearGradient>
<linearGradient xlink:href="#linearGradient3309" id="linearGradient3145" y1="21.65" x1="32.238" y2="47.535" gradientUnits="userSpaceOnUse" x2="36.821"/>
<linearGradient xlink:href="#linearGradient3724" id="linearGradient3142" y1="71.888" x1="64.67" y2="52.872" gradientUnits="userSpaceOnUse" x2="59.574"/>
<linearGradient id="linearGradient3724">
<stop offset="0" stop-color="#ffa92a"/>
<stop offset="1" stop-color="#ffcf2a"/>
</linearGradient>
<linearGradient gradientTransform="matrix(.5 .86603 -.86603 .5 91.5237 -24.5237)" xlink:href="#linearGradient3865" id="linearGradient3127" y1="66.836" x1="60.756" y2="69.231" gradientUnits="userSpaceOnUse" x2="69.694"/>
<linearGradient xlink:href="#linearGradient3741" id="linearGradient3136" y1="44.04" x1="52.515" y2="64.308" gradientUnits="userSpaceOnUse" x2="54.767"/>
<linearGradient id="linearGradient3741">
<stop offset="0" stop-color="#fff"/>
<stop offset="1" stop-color="#fff" stop-opacity="0"/>
</linearGradient>
<linearGradient id="linearGradient3932">
<stop offset="0"/>
<stop offset="1" stop-opacity="0"/>
</linearGradient>
<linearGradient gradientTransform="matrix(.99002 0 0 .97819 .00796 .99641)" xlink:href="#linearGradient3984" id="linearGradient4028" y1="128.185" x1="83.885" y2="-.573" gradientUnits="userSpaceOnUse" x2="84.095"/>
<linearGradient gradientTransform="matrix(.44989 0 0 .44989 -.00001 -94.53287)" xlink:href="#linearGradient5128" id="linearGradient3152" y1="62.879" x1="5.274" y2="66.807" gradientUnits="userSpaceOnUse" x2="-6.524"/>
<linearGradient id="linearGradient4054">
<stop offset="0" stop-color="#194a96"/>
<stop offset=".499" stop-color="#a6cfe5"/>
<stop offset="1" stop-color="#194a96" stop-opacity=".995"/>
</linearGradient>
<linearGradient id="linearGradient3984">
<stop offset="0" stop-color="#2a2a33"/>
<stop offset="1" stop-color="#363642"/>
</linearGradient>
<linearGradient id="linearGradient3804">
<stop offset="0" stop-color="#fff"/>
<stop offset="1" stop-color="#fff" stop-opacity="0"/>
</linearGradient>
<linearGradient id="linearGradient5128">
<stop offset="0" stop-color="#e5e5e5"/>
<stop offset="1" stop-color="#ababab"/>
</linearGradient>
<linearGradient gradientTransform="matrix(.98229 0 0 .95211 -352.13348 -312.87096)" xlink:href="#linearGradient3804" id="linearGradient4050" x1="367.731" gradientUnits="userSpaceOnUse" x2="478.511"/>
<linearGradient gradientTransform="matrix(.96686 0 0 .61325 -.24045 1.34948)" xlink:href="#linearGradient4054" id="linearGradient3200" y1="5.318" x1="4.36" y2="5.201" gradientUnits="userSpaceOnUse" x2="127.352"/>
<linearGradient xlink:href="#linearGradient5128" id="linearGradient3155" y1="62.879" x1="5.274" y2="66.807" gradientUnits="userSpaceOnUse" x2="-6.524"/>
<radialGradient cx="48.09" cy="53.891" gradientTransform="matrix(-1.41357 1.39094 -1.97267 -2.00476 227.98898 87.32376)" id="radialGradient3133" r="5.493" gradientUnits="userSpaceOnUse">
<stop offset="0" stop-color="#f60"/>
<stop offset="1" stop-color="#f60" stop-opacity="0"/>
</radialGradient>
<radialGradient cx="47.644" cy="54.106" gradientTransform="matrix(2.31253 2.33484 1.27175 -1.2596 -125.14605 4.53261)" id="radialGradient3130" r="4.862" gradientUnits="userSpaceOnUse">
<stop offset="0" stop-color="#f89400"/>
<stop offset="1" stop-color="#f89400" stop-opacity="0"/>
</radialGradient>
</defs>
<g transform="matrix(.97082 0 0 .96353 3.06729 3.08588)">
<path fill="#393945" stroke="url(#linearGradient4028)" stroke-width="2.46" d="m9.5545,4.601h107.8925a4.6507,4.8864 0 0,1 4.65,4.8864v108.0946a4.6507,4.8864 0 0,1 -4.65,4.886h-107.8925a4.6507,4.8864 0 0,1 -4.6507-4.886v-108.0946a4.6507,4.8864 0 0,1 4.6507-4.8864"/>
<path fill="none" stroke="#0d0d0d" stroke-width="2.771" d="m10.3069,2.0206h106.4011a7.8612,6.9635 0 0,1 7.861,6.9635v108.8819a7.8612,6.9635 0 0,1 -7.861,6.964h-106.4011a7.8612,6.9635 0 0,1 -7.8612-6.964v-108.8819a7.8612,6.9635 0 0,1 7.8612-6.9635"/>
</g>
<g transform="matrix(1.01586 0 0 .97655 .57714 1.68685)">
<path opacity=".4" stroke="#bbb" stroke-width=".983" d="m17.2401,14.3171h92.2109a7.8566,7.8566 0 0,1 7.856,7.8566v89.1723a7.8566,7.8566 0 0,1 -7.856,7.856h-92.2109a7.8566,7.8566 0 0,1 -7.8566-7.856v-89.1723a7.8566,7.8566 0 0,1 7.8566-7.8566"/>
<path opacity=".4" fill="url(#linearGradient4050)" d="m17.196,13.8462c-4.4905,0-8.1039,3.5024-8.1039,7.8549v66.4992l108.8192-42.7559v-23.7433c0-4.3525-3.6134-7.8549-8.1039-7.8549h-92.6115z"/>
</g>
<g transform="matrix(.97082 0 0 .96353 3.06729 3.08588)">
<path fill="url(#linearGradient3200)" d="m14.5597,1.9841c-3.144,0-7.0226,1.9375-7.0226,1.9375-1.8098,.9427-2.6713,1.6773-3.2853,3.0625l56.7234,.0312h.0301 2.4112v.0312h2.5619 .0301l56.7234-.0312c-.614-1.3852-1.4754-2.1198-3.2853-3.0625 0,0-3.8786-1.9375-7.0226-1.9375h-46.4155-.0301-2.4112v-.0312h-2.5619-.0301-46.4155z"/>
</g>
<g transform="matrix(1.51281 0 0 1.51403 -6.50918 -5.10943)">
<path opacity=".05" d="m34.7812,18.9688c-2.07,.1342-4.6741,.172-6.75,1.6875a1.0122,1.0122 0 0,0 -.0938,.0625c-.8022,.7584-1.025,1.8687-.8125,2.7812 .1956,.8403 .7329,1.5535 1.4375,2.0625l-.0312,.0312 4.5938,4.5625-3.9688,3.9688c-1.8275-1.8284-3.6425-3.7406-5.5625-5.5312a1.0122,1.0122 0 0,0 -.125-.0938c-1.8364-1.2162-4.175,.0768-4.5938,2.0938l-.0625-.0312c-2.9102,8.2015 1.5869,17.9809 9.7812,21 .0089,.0033 .0223-.0033 .0312,0 3.1978,1.2395 6.7442,1.3423 10.0625,.5625l1.875,1.875c-.2321,1.1511-.0978,2.2955 .375,3.2188 .5654,1.104 1.4538,1.9547 2.2812,2.6875l-.0312,.0312c.0156,.0157 .0469,.0156 .0625,.0312 5.495,5.503 10.9365,11.0516 16.5312,16.4688a1.0122,1.0122 0 0,0 .0625,.0312c5.0251,4.3574 13.4118,2.9216 16.625-2.9062 .0042-.0077-.0042-.0236 0-.0312 2.858-4.6439 1.5601-10.891-2.5625-14.3125l.0312-.0312c-.026-.0262-.0678-.0363-.0938-.0625-5.5186-5.558-11.0366-11.0928-16.625-16.5938l-.0312,.0312c-.5069-.592-1.1471-.964-1.75-1.0938-.6358-.1368-1.1946-.1152-1.6562-.0938-.4616,.0214-.8061,.0243-1-.0312-.1939-.0556-.2947-.0893-.4688-.4062a1.0122,1.0122 0 0,0 -.4062-.375c-.3588-.1946-.4564-.3705-.5312-.5312-.0749-.1607-.1143-.3879-.0938-.7188 .0402-.647 .3393-1.5854 .375-2.6875 .0008-.0251-.0005-.0372 0-.0625 .6152-8.1844-5.53-15.919-13.5625-17.3125-1.0756-.2082-2.1631-.2853-3.25-.2812a1.0122,1.0122 0 0,0 -.0625,0z"/>
<path opacity=".08" d="m34.8438,19.9688c-2.0892,.1355-4.4803,.2309-6.2188,1.5-1.059,1.0011-.5077,2.6841 .613,3.3911 1.7749,1.7655 3.5497,3.5309 5.3245,5.2964-1.8021,1.8021-3.6042,3.6042-5.4062,5.4062-2.093-2.0577-4.1163-4.2289-6.25-6.2188-1.2376-.8196-2.9339,.1547-3.1235,1.564-2.7159,7.6539 1.5444,16.9217 9.193,19.7231 3.2046,1.2492 6.8104,1.3813 10.118,.4628 .8438,.8438 1.6875,1.6875 2.5312,2.5312-.8797,2.2607 .7104,4.1896 2.2951,5.5834 5.5138,5.5214 10.9674,11.0953 16.5669,16.5171 4.5132,3.9135 12.2338,2.5353 15.1064-2.7072 2.6056-4.2059 1.4171-10.0267-2.3776-13.1084-5.5421-5.5821-11.1159-11.1504-16.7274-16.6742-1.5095-1.9097-3.9222,.2602-5.0549-1.8022-2.0274-1.0998-.8018-3.0576-.7637-4.8988 .607-7.6456-5.2597-14.9753-12.7697-16.2781-1.0062-.1948-2.0314-.2916-3.0563-.2878zm32.1562,47.0625c2.8238,.6888-1.3659,3.476-.9,.5695 .1253-.3693 .5244-.5853 .9-.5695z"/>
<path opacity=".2" d="m34.8438,21.0938c-1.7333,.0064-3.4565,.3328-5.0938,.9375a.8929,.8929 0 0,0 -.3125,1.4688l6.6875,6.6562-6.9688,6.9688-6.6562-6.6875a.8929,.8929 0 0,0 -1.4688,.3125c-1.9405,5.2539-.811,11.4078 3.4062,15.625 4.0693,4.0693 9.9038,5.1995 15.0312,3.5312l3.3438,3.3438c-.6671,1.2197-.5285,2.7528 .5,3.7812l12.25,12.2812 .8125,.8438a.8929,.8929 0 0,0 .0312,0l4.0938,4.0938c3.5196,3.5196 9.2304,3.5196 12.75,0 3.5196-3.5196 3.5196-9.2304 0-12.75l-4.0938-4.0938a.8929,.8929 0 0,0 0-.0312l-.8438-.8125-12.2812-12.25c-.6284-.6284-1.4542-.9688-2.2812-.9688-.5306,0-1.0291,.2078-1.5,.4688l-3.3438-3.3438c1.6682-5.1274 .538-10.962-3.5312-15.0312-2.9004-2.9004-6.7274-4.3577-10.5312-4.3438zm32.1562,44.8125c1.1743,0 2.0938,.9194 2.0938,2.0938 0,1.1743-.9194,2.0938-2.0938,2.0938-1.1743,0-2.0938-.9194-2.0938-2.0938 0-1.1743 .9194-2.0938 2.0938-2.0938z"/>
<path opacity=".3" d="m34.8438,22c-1.626,.006-3.2384,.3052-4.7812,.875l7.3125,7.2812-8.2188,8.2188-7.2812-7.3125c-1.8235,4.9373-.7782,10.7218 3.1875,14.6875 3.9736,3.9736 9.7438,5.0261 14.6875,3.1875l4.1875,4.1875c-.9083,.9083-.9083,2.3729 0,3.2812l12.2812,12.2812 .8125,.8438 4.0938,4.0938c3.1792,3.1792 8.3208,3.1792 11.5,0 3.1792-3.1792 3.1792-8.3208 0-11.5l-4.0938-4.0938-.8438-.8125-12.2812-12.2812c-.4542-.4542-1.0635-.6875-1.6562-.6875-.5927,0-1.1708,.2333-1.625,.6875l-4.1875-4.1875c1.8386-4.9437 .7861-10.7139-3.1875-14.6875-2.7264-2.7264-6.3291-4.0756-9.9062-4.0625zm32.1562,43c1.6569,0 3,1.3431 3,3 0,1.6569-1.3431,3-3,3-1.6569,0-3-1.3431-3-3 0-1.6569 1.3431-3 3-3z"/>
<path fill="url(#linearGradient3155)" d="m-5.7969,57.8505h11.5939v14.6994h-11.5939z" transform="matrix(.70711 -.70711 .70711 .70711 0 0)"/>
<path fill="url(#linearGradient3152)" d="m-2.608-68.5067h5.2159v6.613h-5.2159z" transform="rotate(135)"/>
<path opacity=".4" fill="url(#linearGradient3149)" d="m47.139,38.967-8.2706,8.2391 5.0102,4.947 8.3338-8.0812-5.0733-5.1049z"/>
<path opacity=".2" d="m45,36.8125-8.1875,8.1875 10.375,10.4062 8.2188-8.2188-10.4062-10.375zm0,1.4375 8.9688,8.9375-6.7812,6.7812-8.9375-8.9688 6.75-6.75z"/>
<path fill="url(#linearGradient3145)" d="m21.8641,30.0623c-1.8235,4.9373-.7633,10.714 3.2024,14.6797 5.4332,5.4332 14.2422,5.4332 19.6755,0 5.4332-5.4332 5.4332-14.2422 0-19.6755-3.9657-3.9657-9.7425-5.0259-14.6797-3.2024l7.3014,7.3014-8.1981,8.1981-7.3014-7.3014z"/>
<path fill="url(#linearGradient3142)" d="m53.75,43.25c-.5927,0-1.1708,.2333-1.625,.6875l-8.1875,8.1875c-.9083,.9083-.9083,2.3729 0,3.2812l12.2812,12.2812 .8125,.8438 4.0938,4.0938c3.1792,3.1792 8.3208,3.1792 11.5,0 3.1792-3.1792 3.1792-8.3208 0-11.5l-4.0938-4.0938-.8438-.8125-12.2812-12.2812c-.4542-.4542-1.0635-.6875-1.6562-.6875zm13.25,20.75c1.6569,0 3,1.3431 3,3 0,1.6569-1.3431,3-3,3-1.6569,0-3-1.3431-3-3 0-1.6569 1.3431-3 3-3z"/>
<path opacity=".8" fill="#f98d01" d="m73.125,62.625c.2389,.7333 .375,1.5307 .375,2.3438 0,4.1493-3.3507,7.5-7.5,7.5-2.5384,0-4.7962-1.26-6.1562-3.1875 .9803,3.0092 3.8199,5.1875 7.1562,5.1875 4.1493,0 7.5-3.3507 7.5-7.5 0-1.6128-.51-3.1197-1.375-4.3438z"/>
<g fill="#d88100">
<path d="m53.75,43.25c-.5927,0-1.1708,.2333-1.625,.6875l-8.1875,8.1875c-.9083,.9083-.9083,2.3729 0,3.2812l12.2812,12.2812 .8125,.8438 4.0938,4.0938c3.1792,3.1792 8.3208,3.1792 11.5,0 3.1792-3.1792 3.1792-8.3208 0-11.5l-4.0938-4.0938-.8438-.8125-12.2812-12.2812c-.4542-.4542-1.0635-.6875-1.6562-.6875zm0,1.3438c.2391,0 .5275,.09 .7188,.2812l12.2812,12.2812a1.3476,1.3476 0 0,0 0,.0312l.8438,.8125 4.0938,4.0625c2.6656,2.6656 2.6656,6.9594 0,9.625-2.6656,2.6656-6.9594,2.6656-9.625,0l-4.0625-4.0938-.8125-.8438a1.3476,1.3476 0 0,0 -.0312,0l-12.2812-12.2812c-.3963-.3963-.3963-1.01 0-1.4062l8.1875-8.1875c.2131-.2131 .4484-.2812 .6875-.2812z"/>
<path d="m67,63c-2.2091,0-4,1.7909-4,4 0,2.2091 1.7909,4 4,4 2.2091,0 4-1.7909 4-4 0-2.2091-1.7909-4-4-4zm0,1c1.6569,0 3,1.3431 3,3 0,1.6569-1.3431,3-3,3-1.6569,0-3-1.3431-3-3 0-1.6569 1.3431-3 3-3z"/>
</g>
<path opacity=".6" fill="url(#linearGradient3136)" d="m53.75,44.5625c-.2475,0-.4687,.0937-.6875,.3125l-8.1875,8.1875c-.4084,.4084-.4084,.9979 0,1.4062l12.2812,12.2812a1.3158,1.3158 0 0,1 0,.0312l.8125,.8438 4.0938,4.0625c2.6777,2.6777 6.9473,2.6777 9.625,0 2.6777-2.6777 2.6777-6.9473 0-9.625l-4.0625-4.0938-.8438-.8125a1.3158,1.3158 0 0,1 -.0312,0l-12.2812-12.2812c-.1974-.1974-.4713-.3125-.7188-.3125zm0,1.625 12,11.9688a2.7498,2.7498 0 0,0 .0312,.0312l.8125,.7812 .0312,.0312 4.0625,4.0625c2.1312,2.1312 2.1312,5.4938 0,7.625-2.1312,2.1312-5.4938,2.1312-7.625,0l-4.0625-4.0625-.0312-.0312-.7812-.8125a2.7498,2.7498 0 0,0 -.0312-.0312l-11.9688-12 7.5625-7.5625z"/>
<path opacity=".6" fill="url(#radialGradient3133)" d="m64.4807,56.9515a15.2154,10.9854 45 0,1 -18.5268-2.9911l7.7679-7.7679z"/>
<path fill="none" stroke="url(#radialGradient3130)" stroke-width="2" d="m46.8332,54.3977 6.875-6.7857 11.753,11.5113"/>
<path fill="url(#linearGradient3127)" d="m71.7631,64.25c-1.5188-2.6306-4.8825-3.5319-7.5131-2.0131-2.6306,1.5188-3.5319,4.8825-2.0131,7.5131 1.5188,2.6306 4.8825,3.5319 7.5131,2.0131 2.6306-1.5188 3.5319-4.8825 2.0131-7.5131zm-.866,.5c1.2426,2.1523 .5052,4.9045-1.6471,6.1471-2.1523,1.2426-4.9045,.5052-6.1471-1.6471-1.2426-2.1523-.5052-4.9045 1.6471-6.1471 2.1523-1.2426 4.9045-.5052 6.1471,1.6471z"/>
<path opacity=".4" fill="#4d4d4d" d="m30.8125,21.625c-.2507,.0768-.5031,.1588-.75,.25l7.2646,7.2649 .5-.5-7.0146-7.0149zm16.0625,6.2188c1.9392,4.9856 .9004,10.8809-3.125,14.9062-5.4332,5.4332-14.2543,5.4332-19.6875,0-.8046-.8046-1.4657-1.6935-2.0312-2.625 .6775,1.6764 1.6732,3.2669 3.0312,4.625 5.4332,5.4332 14.2543,5.4332 19.6875,0 4.5843-4.5843 5.2767-11.5709 2.125-16.9062z"/>
<path opacity=".5" fill="#fff" d="m37.8125,28.6741-8.6562,8.7009-7.2812-7.3125c-.6269,1.6973-.8994,3.4932-.8438,5.2812 .0576-1.457 .3328-2.8978 .8438-4.2812l7.2812,7.3125 9.1562-9.2009-.5-.5z"/>
</g>
</svg>
