<svg xmlns="http://www.w3.org/2000/svg" viewBox="0 0 96 96" xmlns:xlink="http://www.w3.org/1999/xlink">
<defs>
<clipPath>
<path fill="#f0f" d="m12,18h72a6,6 0 0,1 6,6v60a6,6 0 0,1 -6,6h-72a6,6 0 0,1 -6-6v-60a6,6 0 0,1 6-6"/>
</clipPath>
<linearGradient gradientTransform="matrix(.00201 1.01352 -1.02269 .00199 113.55279 -.25971)" xlink:href="#linearGradient3294" id="linearGradient3211" y1="63.792" x1="2.602" y2="63.911" gradientUnits="userSpaceOnUse" x2="17.736"/>
<linearGradient id="linearGradient3247">
<stop offset="0" stop-color="#fff"/>
<stop offset="1" stop-color="#929292"/>
</linearGradient>
<linearGradient gradientTransform="matrix(1.05445 0 0 1.03775 -13.88398 -.45025)" xlink:href="#linearGradient3777-28" id="linearGradient4285" y1="54" x1="83.217" y2="131.886" gradientUnits="userSpaceOnUse" x2="82.505"/>
<linearGradient id="linearGradient3777-28">
<stop offset="0" stop-color="#443452"/>
<stop offset=".362" stop-color="#4b3c54"/>
<stop offset="1" stop-color="#1b0d24"/>
</linearGradient>
<linearGradient gradientTransform="matrix(1.0484 0 0 1.0441 -13.35167 -.79505)" xlink:href="#linearGradient3777-28" id="linearGradient4283" y1="122" y2="53.998" gradientUnits="userSpaceOnUse" x2="0"/>
<linearGradient gradientTransform="matrix(1.15806 0 0 1.01352 -6.71793 -1.34881)" xlink:href="#linearGradient4051" id="linearGradient3214" y1="33.356" x1="48.182" y2="103.729" gradientUnits="userSpaceOnUse" x2="47.797"/>
<linearGradient gradientTransform="matrix(1.02376 0 0 1.30845 .22924 -11.86335)" xlink:href="#linearGradient4021" id="linearGradient3217" x1="5.465" gradientUnits="userSpaceOnUse" x2="89.465"/>
<linearGradient gradientTransform="matrix(1.02381 0 0 1.02558 -.33999 -97.22191)" xlink:href="#ButtonColor" id="linearGradient3249" y1="6.132" y2="90.239" gradientUnits="userSpaceOnUse" x2="0"/>
<linearGradient gradientTransform="matrix(1.02468 0 0 1.17185 -.15056 -7.17335)" xlink:href="#linearGradient3988" id="linearGradient3245" x1="5.753" gradientUnits="userSpaceOnUse" x2="89.743"/>
<linearGradient xlink:href="#linearGradient3982" id="linearGradient3997" y1="54.365" x1="174.332" y2="22.323" x2="174.445" gradientUnits="userSpaceOnUse"/>
<linearGradient gradientTransform="matrix(1.02234 0 0 1.01352 -.34745 -1.23565)" xlink:href="#linearGradient3244" id="linearGradient3242" y1="-.403" x1="64.89" y2="28.792" gradientUnits="userSpaceOnUse" x2="64.983"/>
<linearGradient gradientTransform="matrix(1 0 0 1.01352 1.31046 -.0888)" xlink:href="#linearGradient4021" id="linearGradient3223" x1="5.703" gradientUnits="userSpaceOnUse" x2="90.195"/>
<linearGradient gradientTransform="matrix(1.02376 0 0 1.30845 .22924 1.52218)" xlink:href="#linearGradient4021" id="linearGradient3220" x1="5.465" gradientUnits="userSpaceOnUse" x2="89.465"/>
<linearGradient gradientTransform="matrix(1.02376 0 0 1.30845 .22909 15.52595)" xlink:href="#linearGradient4021" id="linearGradient3226" x1="5.465" gradientUnits="userSpaceOnUse" x2="89.465"/>
<linearGradient id="linearGradient3294">
<stop offset="0"/>
<stop offset="1" stop-color="#7d7d7d" stop-opacity="0"/>
</linearGradient>
<linearGradient id="linearGradient3988">
<stop offset="0" stop-color="#752c2c"/>
<stop offset=".476" stop-color="#752c2c" stop-opacity=".478"/>
<stop offset="1" stop-color="#752c2c"/>
</linearGradient>
<linearGradient gradientTransform="matrix(1.01724 0 0 1.01724 -1.10345 -1.10345)" id="ButtonColor" y1="122" y2="5.425" x2="0" gradientUnits="userSpaceOnUse">
<stop offset="0" stop-color="#d5d5d5"/>
<stop offset="1" stop-color="#fffdfd"/>
</linearGradient>
<linearGradient id="linearGradient4051">
<stop offset="0" stop-color="#ac0d00"/>
<stop offset="1" stop-color="#ffcac3"/>
</linearGradient>
<linearGradient gradientTransform="matrix(1.00251 0 0 -.9918 -180.73079 42.67404)" xlink:href="#ButtonShadow-0-9" id="linearGradient4159" y1="6.132" y2="90.239" gradientUnits="userSpaceOnUse" x2="0"/>
<linearGradient gradientTransform="matrix(1.02381 0 0 -1.0119 -181.75303 43.69008)" xlink:href="#ButtonShadow-0-9" id="linearGradient4153" y1="6.132" y2="90.239" gradientUnits="userSpaceOnUse" x2="0"/>
<linearGradient id="linearGradient3982">
<stop offset="0" stop-color="#7a7a7a"/>
<stop offset="1" stop-color="#aeaeae" stop-opacity=".986"/>
</linearGradient>
<linearGradient gradientTransform="matrix(1.00587 0 0 .99417 100 0)" id="ButtonShadow-0-9" y1="92.54" y2="7.017" x2="0" gradientUnits="userSpaceOnUse">
<stop offset="0"/>
<stop offset="1" stop-opacity=".588"/>
</linearGradient>
<linearGradient id="linearGradient3244">
<stop offset="0" stop-color="#080808"/>
<stop offset="1"/>
</linearGradient>
<linearGradient id="linearGradient4021">
<stop offset="0" stop-color="#d46e00"/>
<stop offset=".49" stop-color="#ffa348" stop-opacity=".486"/>
<stop offset="1" stop-color="#d46e00"/>
</linearGradient>
<linearGradient gradientTransform="matrix(1.125 0 0 1 .375 -4)" xlink:href="#linearGradient3238" id="linearGradient4253" x1="5" gradientUnits="userSpaceOnUse" x2="21"/>
<linearGradient gradientTransform="matrix(1.125 0 0 1.02663 -.24933 -46.33626)" xlink:href="#linearGradient3238" id="linearGradient4261" x1="5" gradientUnits="userSpaceOnUse" x2="21"/>
<linearGradient gradientTransform="matrix(1.125 0 0 1.02663 -.24933 -52.49602)" xlink:href="#linearGradient3250" id="linearGradient4263" x1="5" gradientUnits="userSpaceOnUse" x2="21"/>
<linearGradient id="linearGradient3250">
<stop offset="0" stop-color="#fff"/>
<stop offset="1" stop-color="#c4875e" stop-opacity="0"/>
</linearGradient>
<linearGradient id="linearGradient3238">
<stop offset="0" stop-color="#4b4b4b"/>
<stop offset="1" stop-color="#fff" stop-opacity="0"/>
</linearGradient>
<linearGradient gradientTransform="matrix(1.125 0 0 1 .375 -10)" xlink:href="#linearGradient3250" id="linearGradient4255" x1="5" gradientUnits="userSpaceOnUse" x2="21"/>
<radialGradient cx="170.237" cy="37.83" gradientTransform="matrix(2.80251 -.04121 .02817 1.91549 -307.92051 -27.61749)" xlink:href="#linearGradient3247" id="radialGradient3995" r="14.441" gradientUnits="userSpaceOnUse"/>
<radialGradient cx="65.795" cy="58.282" gradientTransform="matrix(0 2.49318 -2.74573 0 212.3174 -108.88641)" id="radialGradient4281" r="31" gradientUnits="userSpaceOnUse">
<stop offset="0" stop-color="#a957c9"/>
<stop offset=".134" stop-color="#954db1"/>
<stop offset="1" stop-color="#302453"/>
</radialGradient>
</defs>
<g transform="matrix(1.01961 0 0 1.03127 183.96101 53.07801)">
<path opacity=".08" fill="url(#linearGradient4153)" d="m-168.6102,40.6499c-5.5111,0-10.0312-4.5202-10.0312-10.0312v-71c0-5.5111 4.5202-10.0312 10.0312-10.0312h72c5.5111,0 10.0312,4.5202 10.0312,10.0312v71c0,5.5111-4.5202,10.0312-10.0312,10.0312h-72z"/>
<path opacity=".1" fill="url(#linearGradient4153)" d="m-168.6102,39.6499c-4.9716,0-9.0312-4.0596-9.0312-9.0312v-71c0-4.9716 4.0596-9.0312 9.0312-9.0312h72c4.9716,0 9.0312,4.0596 9.0312,9.0312v71c0,4.9716-4.0596,9.0312-9.0312,9.0312h-72z"/>
<path opacity=".2" fill="url(#linearGradient4153)" d="m-168.6102,38.6186c-4.4091,0-8-3.5909-8-8v-71c0-4.4091 3.5909-8 8-8h72c4.4091,0 8,3.5909 8,8v71c0,4.4091-3.5909,8-8,8h-72z"/>
<path fill="none" d="m-175.757-17.6803a4.1707,3.5955 0 0,1 4.171,3.5955v-.0001a4.1707,3.5955 0 0,1 -4.171,3.5955 4.1707,3.5955 0 0,1 -4.171-3.5955v.0001a4.1707,3.5955 0 0,1 4.171-3.5955"/>
<path opacity=".3" fill="url(#linearGradient4159)" d="m-167.8613,37.7034c-4.3174,0-7.8336-3.5195-7.8336-7.841v-69.5891c0-4.3215 3.5162-7.841 7.8336-7.841h70.5023c4.3174,0 7.8336,3.5195 7.8336,7.841v69.5891c0,4.3215-3.5162,7.841-7.8336,7.841h-70.5023z"/>
</g>
<path fill="url(#linearGradient3249)" d="m12.8029-91.0684h72a7,7.0946 0 0,1 7,7.0946v71.9598a7,7.0946 0 0,1 -7,7.0946h-72a7,7.0946 0 0,1 -7-7.0946v-71.9598a7,7.0946 0 0,1 7-7.0946" transform="scale(1 -1)"/>
<path fill="none" d="m9.7238,23.8904h.0001a4.1707,3.6441 0 0,1 4.1707,3.6441v-.0001a4.1707,3.6441 0 0,1 -4.1707,3.6441h-.0001a4.1707,3.6441 0 0,1 -4.1707-3.6441v.0001a4.1707,3.6441 0 0,1 4.1707-3.6441"/>
<path fill="url(#linearGradient3245)" d="m5.7442,21.0575h86.0629v14.4939h-86.0629z"/>
<path fill="url(#linearGradient3242)" d="m91.7935,12.0976c.0288-3.8426-3.078-7.1987-6.7362-7.1988l-72.2778-.0027c-4.4114,.1529-6.9163,3.7311-6.9445,6.8947l-.1013,11.3605 86.0839-.167z"/>
<g transform="matrix(.00201 1.01352 -1.02662 .00199 96.02833 -1.23391)">
<path fill="url(#linearGradient4253)" d="m6,20h18v2h-18z"/>
<path fill="url(#linearGradient4255)" d="m6,16h18v2h-18z"/>
</g>
<g transform="matrix(.00201 1.01352 -1.02662 .00199 77.54908 -1.21031)">
<path fill="url(#linearGradient4253)" d="m6,20h18v2h-18z"/>
<path fill="url(#linearGradient4255)" d="m6,16h18v2h-18z"/>
</g>
<g transform="matrix(1 0 0 1.01352 -1.63781 -.5132)">
<path fill="url(#linearGradient4261)" d="m5.3757-21.6972h18v2.0532h-18z" transform="matrix(.00201 1 -1 .00191 0 0)"/>
<path fill="url(#linearGradient4263)" d="m5.3757-25.8037h18v2.0532h-18z" transform="matrix(.00201 1 -1 .00191 0 0)"/>
</g>
<g transform="matrix(.00201 1.01352 -1.02662 .00199 59.06983 -1.22637)">
<path fill="url(#linearGradient4253)" d="m6,20h18v2h-18z"/>
<path fill="url(#linearGradient4255)" d="m6,16h18v2h-18z"/>
</g>
<path opacity=".1" fill="#fff" d="m23.1624-91.9243h1.0135v86.2366h-1.0135z" transform="matrix(.00199 1 -1 .00194 0 0)"/>
<path fill="url(#linearGradient3226)" d="m5.824,70.2377h85.996v6.5423h-85.996z"/>
<path fill="url(#linearGradient3223)" d="m5.9122,85.2013 85.9096-.6161c-.1251,1.4775-1.2032,5.5812-6.3842,6.5169l-72.9407,.0258c-3.8333-.3776-6.2572-3.3436-6.5847-5.9265z"/>
<path fill="url(#linearGradient3220)" d="m5.8242,56.2339h85.996v6.5423h-85.996z"/>
<path fill="url(#linearGradient3217)" d="m5.8242,42.8484h85.996v6.5423h-85.996z"/>
<path fill="url(#linearGradient3214)" stroke="#9c3a3a" d="m39.2853,35.6105 0,47.7648 10.2036-10.3078 9.8414,10.3078 0-47.8251z"/>
<path fill="url(#linearGradient3211)" d="m91.7696,11.6271c.1454-2.9566-3.1048-6.7665-6.5804-6.7649l-72.6624,.0338c-3.3994,.0071-6.6705,3.3254-6.6634,6.6943l-.0716,8.5898 85.9961-.0004z"/>
<g transform="matrix(.47691 0 0 .52594 38.04953 24.4276)">
<path fill="url(#radialGradient4281)" stroke="url(#linearGradient4283)" stroke-linejoin="round" stroke-linecap="round" stroke-width="1.031" d="m110.8919,87.4313-32.0643,38.6393-31.9036-38.6393h14.6853v-31.3306h34.5973v31.3306h14.6853z"/>
<path opacity=".4" fill="none" stroke="url(#linearGradient4285)" stroke-linejoin="round" stroke-linecap="round" stroke-width="1.031" d="m62.6577,57.1524c0,0 0,31.323 0,31.323 0,0-13.6369,0-13.6369,0 0,0 29.8213,35.4993 29.8213,35.4993 0,0 29.9531-35.4993 29.9531-35.4993 0,0-13.6369,0-13.6369,0 0,0 0-31.323 0-31.323 0,0-32.5005,0-32.5005,0z"/>
</g>
<path fill="url(#radialGradient3995)" stroke="url(#linearGradient3997)" d="m184.678,37.8305a14.4407,14.6441 0 1,1 -28.8814,0 14.4407,14.6441 0 1,1 28.8814,0z" transform="matrix(1.00437 0 0 .99022 -122.13249 -1.85088)"/>
<g transform="matrix(.27505 0 0 .27828 33.61936 23.34492)">
<path fill="#d70751" d="m60.969,47.645c-1.494,.02 .281,.768 2.232,1.069 .541-.422 1.027-.846 1.463-1.26-1.213,.297-2.449,.304-3.695,.191"/>
<path fill="#d70751" d="m68.986,45.646c.893-1.229 1.541-2.573 1.77-3.963-.201,.99-.736,1.845-1.244,2.749-2.793,1.759-.264-1.044-.002-2.111-3.002,3.783-.414,2.268-.524,3.325"/>
<path fill="#d70751" d="m71.949,37.942c.182-2.691-.529-1.839-.768-.814 .278,.146 .499,1.898 .768,.814"/>
<path fill="#d70751" d="m55.301,1.163c.798,.142 1.724,.252 1.591,.443 .876-.193 1.073-.367-1.591-.443"/>
<path fill="#d70751" d="m56.893,1.606-.561,.117 .523-.048 .038-.069"/>
<path fill="#d70751" d="m81.762,38.962c.09,2.416-.705,3.59-1.424,5.666l-1.293,.643c-1.057,2.054 .105,1.304-.652,2.937-1.652,1.467-5.006,4.589-6.08,4.875-.785-.017 .531-.926 .703-1.281-2.209,1.516-1.773,2.276-5.152,3.199l-.098-.221c-8.33,3.92-19.902-3.847-19.75-14.443-.088,.672-.253,.504-.437,.774-.43-5.451 2.518-10.926 7.49-13.165 4.863-2.406 10.564-1.42 14.045,1.829-1.912-2.506-5.721-5.163-10.232-4.917-4.421,.072-8.558,2.881-9.938,5.932-2.264,1.425-2.528,5.496-3.514,6.242-1.329,9.76 2.497,13.975 8.97,18.936 1.016,.686 .286,.791 .422,1.313-2.15-1.006-4.118-2.526-5.738-4.387 .86,1.257 1.787,2.479 2.986,3.439-2.029-.685-4.738-4.913-5.527-5.085 3.495,6.258 14.178,10.975 19.775,8.634-2.59,.096-5.879,.053-8.787-1.022-1.225-.629-2.884-1.93-2.587-2.173 7.636,2.851 15.522,2.158 22.128-3.137 1.682-1.31 3.518-3.537 4.049-3.567-.799,1.202 .137,.578-.477,1.639 1.672-2.701-.729-1.1 1.73-4.664l.908,1.25c-.34-2.244 2.785-4.966 2.467-8.512 .717-1.084 .799,1.168 .039,3.662 1.055-2.767 .279-3.212 .549-5.496 .291,.768 .678,1.583 .875,2.394-.688-2.675 .703-4.503 1.049-6.058-.342-.15-1.061,1.182-1.227-1.976 .025-1.372 .383-.719 .52-1.057-.268-.155-.975-1.207-1.404-3.224 .309-.475 .832,1.229 1.256,1.298-.273-1.603-.742-2.826-.762-4.057-1.24-2.59-.439,.346-1.443-1.112-1.32-4.114 1.094-.955 1.258-2.823 1.998,2.895 3.137,7.385 3.662,9.244-.4-2.267-1.045-4.464-1.834-6.589 .609,.257-.979-4.663 .791-1.405-1.889-6.945-8.078-13.435-13.773-16.479 .695,.637 1.574,1.437 1.26,1.563-2.834-1.685-2.336-1.818-2.742-2.53-2.305-.939-2.459,.077-3.984,.002-4.35-2.308-5.188-2.063-9.191-3.507l.182,.852c-2.881-.96-3.357,.362-6.47,.002-.189-.147 .998-.536 1.976-.677-2.786,.368-2.656-.55-5.382,.101 .671-.471 1.383-.784 2.099-1.184-2.271,.138-5.424,1.322-4.451,.244-3.705,1.654-10.286,3.975-13.979,7.438l-.116-.776c-1.692,2.031-7.379,6.066-7.832,8.699l-.453,.105c-.879,1.491-1.45,3.18-2.148,4.713-1.151,1.963-1.688,.756-1.524,1.064-2.265,4.592-3.392,8.45-4.363,11.616 .692,1.035 .017,6.232 .278,10.391-1.136,20.544 14.418,40.489 31.42,45.093 2.492,.893 6.197,.861 9.349,.949-3.718-1.064-4.198-.563-7.822-1.826-2.613-1.232-3.185-2.637-5.037-4.244l.733,1.295c-3.63-1.285-2.111-1.59-5.065-2.525l.783-1.021c-1.177-.09-3.117-1.982-3.647-3.033l-1.288,.051c-1.546-1.906-2.371-3.283-2.31-4.35l-.416,.742c-.471-.809-5.691-7.158-2.983-5.68-.503-.458-1.172-.747-1.897-2.066l.551-.629c-1.301-1.677-2.398-3.826-2.314-4.542 .695,.938 1.177,1.114 1.655,1.275-3.291-8.164-3.476-.449-5.967-8.31l.526-.042c-.403-.611-.65-1.27-.974-1.919l.23-2.285c-2.368-2.736-.662-11.645-.319-16.53 .235-1.986 1.977-4.101 3.3-7.418l-.806-.138c1.542-2.688 8.802-10.799 12.166-10.383 1.629-2.046-.324-.008-.643-.522 3.579-3.703 4.704-2.616 7.119-3.283 2.603-1.545-2.235,.604-1.001-.589 4.503-1.149 3.19-2.614 9.063-3.197 .62,.352-1.437,.544-1.953,1.001 3.75-1.836 11.869-1.417 17.145,1.018 6.117,2.861 12.994,11.314 13.266,19.267l.309,.083c-.156,3.162 .484,6.819-.627,10.177l.751-1.591"/>
<path fill="#d70751" d="m44.658,49.695-.211,1.047c.983,1.335 1.763,2.781 3.016,3.821-.902-1.759-1.571-2.486-2.805-4.868"/>
<path fill="#d70751" d="m46.979,49.605c-.52-.576-.826-1.268-1.172-1.956 .33,1.211 1.006,2.252 1.633,3.312l-.461-1.356"/>
<path fill="#d70751" d="m88.063,40.675-.219,.552c-.402,2.858-1.273,5.686-2.605,8.309 1.472-2.767 2.421-5.794 2.824-8.861"/>
<path fill="#d70751" d="m55.598,.446c1.009-.369 2.482-.203 3.556-.446-1.398,.117-2.789,.187-4.162,.362l.606,.084"/>
<path fill="#d70751" d="m20.127,19.308c.233,2.154-1.62,2.991 .41,1.569 1.09-2.454-.424-.677-.41-1.569"/>
<path fill="#d70751" d="m17.739,29.282c.469-1.437 .553-2.299 .732-3.132-1.293,1.654-.596,2.007-.732,3.132"/>
</g>
</svg>
