<svg xmlns="http://www.w3.org/2000/svg" viewBox="0 0 128 128" xmlns:xlink="http://www.w3.org/1999/xlink">
<defs>
<clipPath id="clipPath3613-6-4">
<path fill="#fff" d="m12,6h72a6,6 0 0,1 6,6v72a6,6 0 0,1 -6,6h-72a6,6 0 0,1 -6-6v-72a6,6 0 0,1 6-6"/>
</clipPath>
<clipPath id="clipPath3613-6-6">
<path fill="#fff" d="m12,6h72a6,6 0 0,1 6,6v72a6,6 0 0,1 -6,6h-72a6,6 0 0,1 -6-6v-72a6,6 0 0,1 6-6"/>
</clipPath>
<filter width="1.384" x="-.192" y="-.192" height="1.384" color-interpolation-filters="sRGB" id="filter3794-6-4">
<feGaussianBlur stdDeviation="5.28"/>
</filter>
<filter width="1.384" x="-.192" y="-.192" height="1.384" color-interpolation-filters="sRGB" id="filter3794-6-1">
<feGaussianBlur stdDeviation="5.28"/>
</filter>
<linearGradient gradientTransform="matrix(1.3408 0 0 1.3265 40.08766 211.88669)" id="linearGradient3840" xlink:href="#linearGradient2895" y1="45.114" y2="15.944" x1="82.453" x2="65.34" gradientUnits="userSpaceOnUse"/>
<linearGradient gradientTransform="matrix(1.34442 0 0 1.34439 -.75962 -.49692)" xlink:href="#linearGradient2895" id="linearGradient3072" y1="101.698" x1="19.199" y2="-56.647" gradientUnits="userSpaceOnUse" x2="19.34"/>
<linearGradient gradientTransform="matrix(-1.43887 0 0 1.6608 133.16887 -6.89261)" xlink:href="#linearGradient3697" id="linearGradient3868" y1="11.109" x1="129.168" y2="66.668" gradientUnits="userSpaceOnUse" x2="6.905"/>
<linearGradient gradientTransform="matrix(1.3408 0 0 1.3265 -72.463 -1.6032)" id="linearGradient2895" y1="45.114" y2="15.944" x1="82.453" gradientUnits="userSpaceOnUse" x2="65.34">
<stop offset="0" stop-color="#bb2b12"/>
<stop offset="1" stop-color="#cd7233"/>
</linearGradient>
<linearGradient id="linearGradient3697">
<stop offset="0" stop-color="#fff"/>
<stop offset="1" stop-color="#fff" stop-opacity="0"/>
</linearGradient>
<linearGradient id="linearGradient3103" xlink:href="#linearGradient3737-1" y1="20.221" y2="138.661" x2="0" gradientUnits="userSpaceOnUse"/>
<linearGradient id="linearGradient3737-1">
<stop offset="0" stop-color="#fff"/>
<stop offset="1" stop-color="#fff" stop-opacity="0"/>
</linearGradient>
<linearGradient id="linearGradient3737-18">
<stop offset="0" stop-color="#fff"/>
<stop offset="1" stop-color="#fff" stop-opacity="0"/>
</linearGradient>
<linearGradient id="linearGradient8813" xlink:href="#linearGradient3737-18" y1="20.221" y2="138.661" x2="0" gradientUnits="userSpaceOnUse"/>
<radialGradient cx="63.969" cy="14.113" gradientTransform="matrix(2.0979 -0 0 1.3475 -3.41933 222.84359)" r="23.097" id="radialGradient3838" xlink:href="#radialGradient2893" gradientUnits="userSpaceOnUse"/>
<radialGradient cx="63.969" cy="14.113" gradientTransform="matrix(2.0979 -0 0 1.3475 -115.97 9.3537)" id="radialGradient2893" r="23.097" gradientUnits="userSpaceOnUse">
<stop offset="0" stop-color="#edb763"/>
<stop offset=".5" stop-color="#de7f32"/>
<stop offset="1" stop-color="#d24413"/>
</radialGradient>
<radialGradient cx="19.142" cy="19.001" gradientTransform="matrix(1.77875 -.00217 .00204 1.66893 28.63268 29.12787)" xlink:href="#radialGradient2893" id="radialGradient3070" r="45" gradientUnits="userSpaceOnUse"/>
</defs>
<path opacity=".763" fill="#090909" d="m16.4671-120.748h96.7979a8.0665,8.0663 0 0,1 8.067,8.066v96.7957a8.0665,8.0663 0 0,1 -8.067,8.0663h-96.7979a8.0665,8.0663 0 0,1 -8.0665-8.0663v-96.7957a8.0665,8.0663 0 0,1 8.0664-8.066" transform="scale(1 -1)"/>
<path fill="url(#radialGradient3070)" stroke="url(#linearGradient3072)" stroke-width="8.066" d="m15.9203,7.5694h96.7977a8.0665,8.0663 0 0,1 8.067,8.0663v96.7953a8.0665,8.0663 0 0,1 -8.067,8.067h-96.7977a8.0665,8.0663 0 0,1 -8.0665-8.067v-96.7953a8.0665,8.0663 0 0,1 8.0665-8.0663"/>
<path opacity=".1" fill="url(#linearGradient3103)" filter="url(#filter3794-6-4)" stroke="#fff" stroke-linecap="round" stroke-width=".5" d="m27,15h42a12,12 0 0,1 12,12v42a12,12 0 0,1 -12,12h-42a12,12 0 0,1 -12-12v-42a12,12 0 0,1 12-12" clip-path="url(#clipPath3613-6-4)" transform="matrix(1.34442 0 0 1.35764 -2.41146 1.98158)"/>
<path fill="#fff" d="m-106.2892,496.371c-21.0095,.2007-31.4126,15.8224-31.4127,33.2453 0,7.5257 3.4601,13.2809 8.0503,18.7954l-24.4629,20.0332c5.6869,5.2616 9.8199,8.7066 20.8753,12.8873 11.0795,4.5018 26.5389,3.3689 36.7506-.0351 2.9079-.907 7.6808-3.4198 11.5252-6.4261 3.2822-2.5666 4.8489-4.5295 6.7591-6.7157 3.4849-3.9886 5.2285-7.0201 6.6378-10.122 .7499-1.4351 2.3855-5.4273 2.9116-7.2952 1.3561-4.8139 1.8757-7.9919 1.6118-14.2041 0-.8253-.1897-2.5632-.4159-3.9505-.1478-.7868-.2344-1.6472-.5113-2.9673-4.0288-19.2066-16.9868-30.7795-32.1059-32.6747-1.6989-.2129-2.7994-.4943-4.1421-.5443-.6998-.0259-1.3933-.0329-2.0711-.0263zm-1.8631,20.8409c.2886-.003 .5772-.003 .8752,.009 .5717,.0217 1.0443,.1443 1.7678,.237 6.4382,.8255 11.9587,5.8646 13.6743,14.2304 .1179,.5749 .1536,.9565 .2166,1.2993 .0964,.6042 .1733,1.3611 .1733,1.7206 .1123,2.1664 .006,3.4122-.5717,5.6169-.2241,.8136-1.0327,2.4384-1.352,3.0635-.6001,1.3511-1.3409,2.432-2.825,4.1693-.8134,.9523-1.8265,1.6997-3.2241,2.8177-1.6371,1.3094-3.5536,2.4054-4.7919,2.8004-4.3485,1.4827-9.9939,1.9369-16.1014,.1233-4.5863-1.944-6.5062-3.8156-9.1052-5.9276l10.7488-8.8683c-1.9547-2.4019-2.8644-3.5371-2.8644-6.8151 0-7.5888 4.433-14.3888 13.3796-14.4762zm-1.2519,7.2452c-3.7139,.47-5.4904,3.2265-5.4904,6.7772 0,1.5337 .3509,2.5607 1.2733,3.6845l-4.5184,3.7389c1.1428,1.0723 2.0154,1.5218 4.2369,2.3738 2.8281,.6123 4.0944,.4421 6.1463-.2515 .5842-.1848 1.9887-.9786 2.7612-1.5912 .6595-.5231 1.4091-1.2355 1.8306-1.8145 .448-.6478 .5794-.7853 .919-1.4175 .1507-.2925 .49-1.0568 .6178-1.8421 .1033-.695 .1389-1.0598 .1423-1.582 .0377-.397-.007-.9393-.0523-1.5272-.0297-.1604-.0975-.7015-.3621-1.5287-.8143-2.6355-2.4564-3.885-4.0275-4.586-.5106-.1864-1.1147-.3694-1.3844-.3795-.1405-.005-.7311-.0962-.8673-.0947-.386-.009-.7096-.0243-1.2248,.0405zm.5148,4.1882c.4079,.1034 .8898,.2615 1.1105,.4434 .3019,.1904 .4753,.4271 .678,.6732 .4918,.7642 .5623,1.5138 .57,2.2667-.006,.3355-.0217,.6754-.1084,1.0106-.0813,.3122-.1858,.5602-.3127,.7841-.1487,.3008-.2245,.3868-.3865,.5749-.1398,.1936-.3427,.3915-.5702,.5502-.2789,.2073-.4904,.3284-.8036,.4642-.3037,.1334-.5244,.1853-.9912,.2635-.313,.0135-.4295,.0309-.6838,.0326-.2863-.012-.4197-.005-.8299-.0809-.4082-.0941-.7067-.1886-.9374-.3126l.7947-2.2485c.7767,.5976 2.0005,.4117 2.5667,.0902 .2689-.1527 .5079-.41 .6469-.6928 .0994-.202 .1579-.4509 .1863-.7015 .026-.2299 .003-.3034-.003-.4601 0-.166-.0495-.4211-.0865-.5627-.1977-.7552-.919-1.2116-1.7873-1.1068-1.3413,.1618-1.719,1.4106-1.4964,2.6536-.0401-.1545-.4243-.3678-.4643-1.1496-.0694-1.3581 .984-2.2707 1.78-2.4487 .4416-.0837 .7962-.1014 1.1284-.0429z"/>
<path opacity=".3" fill="url(#linearGradient3868)" d="m113.725,3.2527c4.7828-.004 11.115,4.8956 11.0947,10.4161l-.284,77.2182c-25.3365-19.1358-63.6395-31.3476-106.4765-31.3476-4.8605,0-9.6578,.1609-14.3887,.4671v-46.1572c0-5.5205 6.1226-10.502 10.9054-10.5064z"/>
<path opacity=".1" fill="url(#linearGradient8813)" filter="url(#filter3794-6-1)" stroke="#fff" stroke-linecap="round" stroke-width=".5" d="m27,15h42a12,12 0 0,1 12,12v42a12,12 0 0,1 -12,12h-42a12,12 0 0,1 -12-12v-42a12,12 0 0,1 12-12" clip-path="url(#clipPath3613-6-6)" transform="matrix(1.35911 0 0 1.34291 212.78421 -137.80034)"/>
<g word-spacing="0" line-height="125%" letter-spacing="0">
<path fill="#fff" d="m50.8484,22.7661 0,.0312-35.3438,0 0,9.1562 10.6875,0 0,42.0312c-0,10.35 2.1367,18.2108 6.4062,23.5625 4.1725,5.1245 10.2633,7.7359 18.25,7.9062v.0312h.5 27.0625v-.0625c7.6567-.3007 13.5077-2.9263 17.5625-7.9062 4.2695-5.3517 6.4063-13.2125 6.4063-23.5625v-42.0312h10.6875v-9.1562h-34.6563-1.4375v66.25h-25.125v-38.4688c-0-.7882-0-1.721 0-2.8125 .0541-1.1217 .023-2.2863-.0122-3.4688 .0636-1.3244 .0578-2.4123 .112-3.625-.0035-1.2573-.0095-1.8762 0-2.9438-.2709,.182-.1685,.08-.8185,.4438-.6501,.3639-1.375,.7953-2.1875,1.25-.8126,.4245-1.6646,.8265-2.5312,1.2812-.5749,.3017-1.1108,.5539-1.6562,.8125v-13.7812l11.0625-4.9375h-4.9688z"/>
<g fill="#003eec">
<path d="m257.5949-60.1916 0,9.1562 10.6875,0 0,42.0312c-0,10.35 2.1367,18.2108 6.4062,23.5625 4.2614,5.2336 10.5102,7.8708 18.75,7.9375v-27.4063c-.1512-2.4139-.25-5.1261-.25-8.25v-47.0312h-35.5938zm51.8438,0 0,9.1562 9.0938,0 0,35.9688c0,.3118-.0282,.6005-.0312,.9062h.2188v34.4687h35.4062v-9.1875h-10.625v-71.3125h-34.0625z"/>
<path d="m-305.645-165.9111 0,9.1562 10.6875,0 0,42.0312c-0,10.35 2.1367,18.2108 6.4062,23.5625 4.2614,5.2336 10.5102,7.8708 18.75,7.9375v-27.4062c-.1512-2.4139-.25-5.1261-.25-8.25v-47.0312h-35.5938z"/>
<path d="m-208.0779-165.9169 0,9.1562-10.6875,0 0,42.0312c0,10.35-2.1367,18.2108-6.4062,23.5625-4.2614,5.2336-10.5102,7.8708-18.75,7.9375v-27.4062c.1512-2.4139 .25-5.1261 .25-8.25v-47.0312h35.5938z"/>
</g>
</g>
<path fill="#003eec" d="m-270.311-165.928h27.573v82.7192h-27.573z"/>
<g word-spacing="0" line-height="125%" letter-spacing="0">
<path d="m-100.7919-136.919-19.4062,8.875 0,14.25 7-3.25c.8125-.3735 1.6333-.7831 2.5-1.25 .8667-.4668 1.7187-.908 2.5312-1.3438 .8125-.4668 1.5374-.9077 2.1875-1.2812 .65-.3734 1.1041-.6569 1.375-.8438-.0542,1.0272-.1417,2.1926-.25,3.4375-.0542,1.245-.1105,2.4738-.2188,3.7188-.0542,1.2139-.1334,2.4109-.1875,3.5625-0,1.1205-0,2.0658 0,2.875v39.5h25.125v-68.25h-20.6562z"/>
<path fill="#003eec" d="m-338.8999,33.7527 0,.0312-35.3438,0 0,9.1562 10.6875,0 0,42.0312c-0,10.35 2.1367,18.2108 6.4062,23.5625 4.1725,5.1245 10.2633,7.7359 18.25,7.9062v.0312h.5 27.0625v-.0625c7.6567-.3007 13.5077-2.9263 17.5625-7.9062 4.2695-5.3517 6.4063-13.2125 6.4062-23.5625v-42.0312h10.6875v-9.1562h-34.6562-27.5625z"/>
</g>
<path fill="url(#radialGradient3838)" stroke="url(#linearGradient3840)" stroke-linejoin="round" stroke-linecap="round" stroke-width=".999" d="m115.0766,233.9579c-1.4382,.164-.8699,1.86-.9846,2.814 .5263,11.235 1.2577,22.244 1.7807,33.479 .4584,1.281 2.1379,.625 3.202,.788h53.07c1.46-.142 .853-1.868 1.059-2.855 .526-11.236 1.258-22.244 1.781-33.48-.337-1.265-2.238-.562-3.235-.746h-56.673-.0001z"/>
</svg>
